<?xml version="1.0" encoding="UTF-8" standalone="no"?>
<!DOCTYPE svg PUBLIC "-//W3C//DTD SVG 1.1//EN"
 "http://www.w3.org/Graphics/SVG/1.1/DTD/svg11.dtd">
<!-- Generated by graphviz version 2.42.3 (20191010.1750)
 -->
<!-- Title: MST Pages: 1 -->
<svg width="4596pt" height="3624pt"
 viewBox="0.00 0.00 4595.55 3624.45" xmlns="http://www.w3.org/2000/svg" xmlns:xlink="http://www.w3.org/1999/xlink">
<g id="graph0" class="graph" transform="scale(1 1) rotate(0) translate(4 3620.45)">
<title>MST</title>
<polygon fill="white" stroke="transparent" points="-4,4 -4,-3620.45 4591.55,-3620.45 4591.55,4 -4,4"/>
<!-- id_27236097_DOT_1 -->
<g id="node1" class="node">
<title>id_27236097_DOT_1</title>
<polygon fill="aquamarine" stroke="aquamarine" points="531.8,-3205.47 535.23,-3205.66 538.62,-3205.95 541.96,-3206.34 545.25,-3206.81 548.45,-3207.38 551.57,-3208.05 554.58,-3208.8 557.48,-3209.63 560.26,-3210.56 562.91,-3211.56 565.42,-3212.65 567.77,-3213.81 569.97,-3215.04 572,-3216.35 573.86,-3217.72 575.55,-3219.15 577.05,-3220.65 578.38,-3222.19 579.53,-3223.79 580.49,-3225.44 581.27,-3227.12 581.86,-3228.84 582.28,-3230.6 582.51,-3232.38 582.58,-3234.19 582.47,-3236.01 582.2,-3237.84 581.77,-3239.69 581.19,-3241.53 580.46,-3243.38 579.59,-3245.21 578.58,-3247.03 577.45,-3248.84 576.2,-3250.62 574.84,-3252.38 573.38,-3254.1 571.82,-3255.78 570.17,-3257.43 568.44,-3259.03 566.64,-3260.57 564.77,-3262.07 562.84,-3263.5 560.86,-3264.87 558.83,-3266.18 556.75,-3267.41 554.64,-3268.57 552.5,-3269.66 550.33,-3270.66 548.13,-3271.59 545.91,-3272.42 543.68,-3273.17 541.43,-3273.84 539.17,-3274.41 536.9,-3274.88 534.62,-3275.27 532.34,-3275.56 530.06,-3275.75 527.77,-3275.85 525.48,-3275.85 523.19,-3275.75 520.9,-3275.56 518.62,-3275.27 516.34,-3274.88 514.07,-3274.41 511.81,-3273.84 509.57,-3273.17 507.33,-3272.42 505.11,-3271.59 502.92,-3270.66 500.75,-3269.66 498.6,-3268.57 496.49,-3267.41 494.42,-3266.18 492.39,-3264.87 490.4,-3263.5 488.47,-3262.07 486.6,-3260.57 484.8,-3259.03 483.07,-3257.43 481.43,-3255.78 479.87,-3254.1 478.4,-3252.38 477.04,-3250.62 475.79,-3248.84 474.66,-3247.03 473.66,-3245.21 472.79,-3243.38 472.06,-3241.53 471.47,-3239.69 471.04,-3237.84 470.77,-3236.01 470.67,-3234.19 470.73,-3232.38 470.97,-3230.6 471.38,-3228.84 471.98,-3227.12 472.76,-3225.44 473.72,-3223.79 474.86,-3222.19 476.19,-3220.65 477.7,-3219.15 479.39,-3217.72 481.25,-3216.35 483.28,-3215.04 485.47,-3213.81 487.83,-3212.65 490.33,-3211.56 492.98,-3210.56 495.76,-3209.63 498.66,-3208.8 501.68,-3208.05 504.79,-3207.38 508,-3206.81 511.28,-3206.34 514.62,-3205.95 518.02,-3205.66 521.44,-3205.47 524.89,-3205.37 528.35,-3205.37 531.8,-3205.47"/>
<text text-anchor="start" x="497.45" y="-3250.41" font-family="Times,serif" font-size="14.00">C0023828</text>
<text text-anchor="start" x="499.01" y="-3236.41" font-family="Times,serif" font-size="14.00">liposomal</text>
<text text-anchor="start" x="517.68" y="-3222.41" font-family="Times,serif" font-size="14.00">3:3</text>
</g>
<!-- id_27236097_DOT_3 -->
<g id="node3" class="node">
<title>id_27236097_DOT_3</title>
<polygon fill="aquamarine" stroke="aquamarine" points="344.95,-3545.95 348.46,-3546.14 351.94,-3546.43 355.36,-3546.81 358.72,-3547.29 362,-3547.86 365.19,-3548.52 368.28,-3549.27 371.25,-3550.11 374.09,-3551.03 376.8,-3552.04 379.37,-3553.12 381.78,-3554.28 384.03,-3555.52 386.11,-3556.82 388.01,-3558.19 389.74,-3559.63 391.28,-3561.12 392.64,-3562.67 393.81,-3564.27 394.8,-3565.91 395.59,-3567.6 396.2,-3569.32 396.63,-3571.07 396.87,-3572.86 396.94,-3574.66 396.83,-3576.48 396.55,-3578.32 396.11,-3580.16 395.51,-3582.01 394.77,-3583.85 393.87,-3585.69 392.85,-3587.51 391.69,-3589.31 390.41,-3591.1 389.02,-3592.85 387.52,-3594.57 385.92,-3596.26 384.24,-3597.9 382.47,-3599.5 380.62,-3601.05 378.71,-3602.54 376.73,-3603.98 374.7,-3605.35 372.62,-3606.65 370.5,-3607.89 368.34,-3609.05 366.14,-3610.13 363.92,-3611.14 361.67,-3612.06 359.4,-3612.9 357.12,-3613.65 354.81,-3614.31 352.5,-3614.88 350.18,-3615.36 347.85,-3615.74 345.51,-3616.03 343.17,-3616.22 340.83,-3616.32 338.48,-3616.32 336.14,-3616.22 333.8,-3616.03 331.46,-3615.74 329.13,-3615.36 326.81,-3614.88 324.49,-3614.31 322.19,-3613.65 319.91,-3612.9 317.64,-3612.06 315.39,-3611.14 313.16,-3610.13 310.97,-3609.05 308.81,-3607.89 306.69,-3606.65 304.61,-3605.35 302.57,-3603.98 300.6,-3602.54 298.69,-3601.05 296.84,-3599.5 295.07,-3597.9 293.39,-3596.26 291.79,-3594.57 290.29,-3592.85 288.9,-3591.1 287.62,-3589.31 286.46,-3587.51 285.43,-3585.69 284.54,-3583.85 283.79,-3582.01 283.2,-3580.16 282.76,-3578.32 282.48,-3576.48 282.37,-3574.66 282.44,-3572.86 282.68,-3571.07 283.11,-3569.32 283.72,-3567.6 284.51,-3565.91 285.5,-3564.27 286.67,-3562.67 288.03,-3561.12 289.57,-3559.63 291.3,-3558.19 293.2,-3556.82 295.28,-3555.52 297.53,-3554.28 299.94,-3553.12 302.5,-3552.04 305.21,-3551.03 308.06,-3550.11 311.03,-3549.27 314.12,-3548.52 317.31,-3547.86 320.59,-3547.29 323.95,-3546.81 327.37,-3546.43 330.84,-3546.14 334.35,-3545.95 337.88,-3545.85 341.42,-3545.85 344.95,-3545.95"/>
<text text-anchor="start" x="310.49" y="-3590.88" font-family="Times,serif" font-size="14.00">C0023828</text>
<text text-anchor="start" x="309.71" y="-3576.88" font-family="Times,serif" font-size="14.00">Liposomal</text>
<text text-anchor="start" x="323.71" y="-3562.88" font-family="Times,serif" font-size="14.00">15:15</text>
</g>
<!-- id_27236097_DOT_1&#45;&#45;id_27236097_DOT_3 -->
<g id="edge1" class="edge">
<title>id_27236097_DOT_1&#45;&#45;id_27236097_DOT_3</title>
<path fill="none" stroke="black" d="M508.86,-3272.95C473.45,-3337.44 394.36,-3481.47 358.26,-3547.21"/>
<text text-anchor="middle" x="407.31" y="-3412.88" font-family="Times,serif" font-size="14.00">0.003100</text>
</g>
<!-- id_27236097_DOT_22 -->
<g id="node22" class="node">
<title>id_27236097_DOT_22</title>
<polygon fill="aquamarine" stroke="aquamarine" points="774.05,-2873.57 777.48,-2873.76 780.87,-2874.05 784.22,-2874.43 787.5,-2874.91 790.7,-2875.48 793.82,-2876.14 796.83,-2876.89 799.74,-2877.73 802.52,-2878.65 805.16,-2879.66 807.67,-2880.74 810.02,-2881.9 812.22,-2883.14 814.25,-2884.44 816.11,-2885.81 817.8,-2887.25 819.31,-2888.74 820.63,-2890.29 821.78,-2891.89 822.74,-2893.53 823.52,-2895.22 824.11,-2896.94 824.53,-2898.69 824.77,-2900.48 824.83,-2902.28 824.73,-2904.11 824.45,-2905.94 824.02,-2907.78 823.44,-2909.63 822.71,-2911.47 821.84,-2913.31 820.83,-2915.13 819.7,-2916.93 818.45,-2918.72 817.09,-2920.47 815.63,-2922.19 814.07,-2923.88 812.42,-2925.52 810.7,-2927.12 808.89,-2928.67 807.02,-2930.16 805.1,-2931.6 803.11,-2932.97 801.08,-2934.27 799.01,-2935.51 796.89,-2936.67 794.75,-2937.75 792.58,-2938.76 790.38,-2939.68 788.17,-2940.52 785.93,-2941.27 783.68,-2941.93 781.42,-2942.5 779.15,-2942.98 776.88,-2943.36 774.59,-2943.65 772.31,-2943.84 770.02,-2943.94 767.73,-2943.94 765.44,-2943.84 763.16,-2943.65 760.87,-2943.36 758.6,-2942.98 756.33,-2942.5 754.07,-2941.93 751.82,-2941.27 749.58,-2940.52 747.37,-2939.68 745.17,-2938.76 743,-2937.75 740.85,-2936.67 738.74,-2935.51 736.67,-2934.27 734.64,-2932.97 732.65,-2931.6 730.73,-2930.16 728.86,-2928.67 727.05,-2927.12 725.33,-2925.52 723.68,-2923.88 722.12,-2922.19 720.66,-2920.47 719.3,-2918.72 718.05,-2916.93 716.92,-2915.13 715.91,-2913.31 715.04,-2911.47 714.31,-2909.63 713.73,-2907.78 713.29,-2905.94 713.02,-2904.11 712.92,-2902.28 712.98,-2900.48 713.22,-2898.69 713.64,-2896.94 714.23,-2895.22 715.01,-2893.53 715.97,-2891.89 717.12,-2890.29 718.44,-2888.74 719.95,-2887.25 721.64,-2885.81 723.5,-2884.44 725.53,-2883.14 727.73,-2881.9 730.08,-2880.74 732.59,-2879.66 735.23,-2878.65 738.01,-2877.73 740.92,-2876.89 743.93,-2876.14 747.05,-2875.48 750.25,-2874.91 753.53,-2874.43 756.88,-2874.05 760.27,-2873.76 763.7,-2873.57 767.15,-2873.47 770.6,-2873.47 774.05,-2873.57"/>
<text text-anchor="start" x="739.71" y="-2918.51" font-family="Times,serif" font-size="14.00">C0023828</text>
<text text-anchor="start" x="740.49" y="-2904.51" font-family="Times,serif" font-size="14.00">liposomes</text>
<text text-anchor="start" x="745.93" y="-2890.51" font-family="Times,serif" font-size="14.00">148:148</text>
</g>
<!-- id_27236097_DOT_1&#45;&#45;id_27236097_DOT_22 -->
<g id="edge2" class="edge">
<title>id_27236097_DOT_1&#45;&#45;id_27236097_DOT_22</title>
<path fill="none" stroke="black" d="M550.74,-3207.57C597.65,-3143.3 700.6,-3002.25 746.27,-2939.67"/>
<text text-anchor="middle" x="622.26" y="-3076.42" font-family="Times,serif" font-size="14.00">0.019872</text>
</g>
<!-- id_27236097_DOT_2 -->
<g id="node2" class="node">
<title>id_27236097_DOT_2</title>
<polygon fill="bisque" stroke="bisque" points="978.53,-2215.92 987.49,-2216.11 996.37,-2216.4 1005.12,-2216.78 1013.7,-2217.26 1022.08,-2217.83 1030.23,-2218.49 1038.12,-2219.24 1045.71,-2220.08 1052.98,-2221 1059.91,-2222.01 1066.46,-2223.09 1072.62,-2224.25 1078.36,-2225.49 1083.68,-2226.79 1088.55,-2228.16 1092.96,-2229.6 1096.9,-2231.09 1100.38,-2232.64 1103.37,-2234.24 1105.89,-2235.88 1107.92,-2237.57 1109.48,-2239.29 1110.57,-2241.04 1111.19,-2242.83 1111.36,-2244.63 1111.08,-2246.45 1110.37,-2248.29 1109.25,-2250.13 1107.72,-2251.98 1105.81,-2253.82 1103.53,-2255.66 1100.9,-2257.48 1097.94,-2259.28 1094.67,-2261.07 1091.12,-2262.82 1087.29,-2264.54 1083.21,-2266.23 1078.9,-2267.87 1074.38,-2269.47 1069.67,-2271.02 1064.78,-2272.51 1059.73,-2273.95 1054.54,-2275.32 1049.23,-2276.62 1043.8,-2277.86 1038.28,-2279.02 1032.67,-2280.1 1026.99,-2281.11 1021.24,-2282.03 1015.44,-2282.87 1009.6,-2283.62 1003.72,-2284.28 997.81,-2284.85 991.87,-2285.33 985.91,-2285.71 979.94,-2286 973.96,-2286.19 967.98,-2286.29 961.99,-2286.29 956,-2286.19 950.02,-2286 944.05,-2285.71 938.09,-2285.33 932.16,-2284.85 926.24,-2284.28 920.36,-2283.62 914.52,-2282.87 908.72,-2282.03 902.97,-2281.11 897.29,-2280.1 891.68,-2279.02 886.16,-2277.86 880.74,-2276.62 875.42,-2275.32 870.23,-2273.95 865.19,-2272.51 860.3,-2271.02 855.58,-2269.47 851.06,-2267.87 846.75,-2266.23 842.67,-2264.54 838.85,-2262.82 835.29,-2261.07 832.02,-2259.28 829.06,-2257.48 826.43,-2255.66 824.16,-2253.82 822.24,-2251.98 820.72,-2250.13 819.59,-2248.29 818.88,-2246.45 818.61,-2244.63 818.77,-2242.83 819.4,-2241.04 820.48,-2239.29 822.04,-2237.57 824.08,-2235.88 826.59,-2234.24 829.59,-2232.64 833.06,-2231.09 837,-2229.6 841.42,-2228.16 846.28,-2226.79 851.6,-2225.49 857.34,-2224.25 863.5,-2223.09 870.05,-2222.01 876.98,-2221 884.25,-2220.08 891.84,-2219.24 899.73,-2218.49 907.88,-2217.83 916.26,-2217.26 924.85,-2216.78 933.59,-2216.4 942.47,-2216.11 951.44,-2215.92 960.46,-2215.82 969.5,-2215.82 978.53,-2215.92"/>
<text text-anchor="start" x="935.81" y="-2260.85" font-family="Times,serif" font-size="14.00">C0600500</text>
<text text-anchor="start" x="875.75" y="-2246.85" font-family="Times,serif" font-size="14.00">Peptide Nucleic Acid oligomers</text>
<text text-anchor="start" x="949.29" y="-2232.85" font-family="Times,serif" font-size="14.00">11:14</text>
</g>
<!-- id_27236097_DOT_6 -->
<g id="node6" class="node">
<title>id_27236097_DOT_6</title>
<polygon fill="bisque" stroke="bisque" points="1115.77,-2605.62 1124.74,-2605.81 1133.61,-2606.1 1142.36,-2606.48 1150.94,-2606.96 1159.32,-2607.53 1167.47,-2608.19 1175.36,-2608.94 1182.96,-2609.78 1190.23,-2610.7 1197.15,-2611.71 1203.7,-2612.79 1209.86,-2613.95 1215.61,-2615.19 1220.92,-2616.49 1225.79,-2617.87 1230.2,-2619.3 1234.15,-2620.79 1237.62,-2622.34 1240.61,-2623.94 1243.13,-2625.58 1245.16,-2627.27 1246.72,-2628.99 1247.81,-2630.75 1248.43,-2632.53 1248.6,-2634.33 1248.32,-2636.16 1247.61,-2637.99 1246.49,-2639.83 1244.96,-2641.68 1243.05,-2643.52 1240.77,-2645.36 1238.14,-2647.18 1235.19,-2648.99 1231.92,-2650.77 1228.36,-2652.52 1224.53,-2654.25 1220.45,-2655.93 1216.14,-2657.58 1211.62,-2659.17 1206.91,-2660.72 1202.02,-2662.21 1196.97,-2663.65 1191.78,-2665.02 1186.47,-2666.32 1181.04,-2667.56 1175.52,-2668.72 1169.91,-2669.81 1164.23,-2670.81 1158.49,-2671.73 1152.69,-2672.57 1146.84,-2673.32 1140.96,-2673.98 1135.05,-2674.55 1129.11,-2675.03 1123.16,-2675.41 1117.19,-2675.7 1111.21,-2675.9 1105.22,-2675.99 1099.23,-2675.99 1093.24,-2675.9 1087.26,-2675.7 1081.29,-2675.41 1075.34,-2675.03 1069.4,-2674.55 1063.49,-2673.98 1057.61,-2673.32 1051.76,-2672.57 1045.96,-2671.73 1040.22,-2670.81 1034.54,-2669.81 1028.93,-2668.72 1023.4,-2667.56 1017.98,-2666.32 1012.67,-2665.02 1007.48,-2663.65 1002.43,-2662.21 997.54,-2660.72 992.83,-2659.17 988.3,-2657.58 984,-2655.93 979.92,-2654.25 976.09,-2652.52 972.53,-2650.77 969.26,-2648.99 966.31,-2647.18 963.68,-2645.36 961.4,-2643.52 959.49,-2641.68 957.96,-2639.83 956.83,-2637.99 956.13,-2636.16 955.85,-2634.33 956.02,-2632.53 956.64,-2630.75 957.73,-2628.99 959.29,-2627.27 961.32,-2625.58 963.83,-2623.94 966.83,-2622.34 970.3,-2620.79 974.25,-2619.3 978.66,-2617.87 983.53,-2616.49 988.84,-2615.19 994.59,-2613.95 1000.74,-2612.79 1007.3,-2611.71 1014.22,-2610.7 1021.49,-2609.78 1029.09,-2608.94 1036.97,-2608.19 1045.13,-2607.53 1053.51,-2606.96 1062.09,-2606.48 1070.84,-2606.1 1079.71,-2605.81 1088.68,-2605.62 1097.7,-2605.52 1106.75,-2605.52 1115.77,-2605.62"/>
<text text-anchor="start" x="1073.06" y="-2650.56" font-family="Times,serif" font-size="14.00">C0600500</text>
<text text-anchor="start" x="1012.99" y="-2636.56" font-family="Times,serif" font-size="14.00">Peptide Nucleic Acid oligomers</text>
<text text-anchor="start" x="1086.28" y="-2622.56" font-family="Times,serif" font-size="14.00">39:42</text>
</g>
<!-- id_27236097_DOT_2&#45;&#45;id_27236097_DOT_6 -->
<g id="edge3" class="edge">
<title>id_27236097_DOT_2&#45;&#45;id_27236097_DOT_6</title>
<path fill="none" stroke="black" d="M977.4,-2286.33C1003.5,-2360.43 1063.76,-2531.54 1089.83,-2605.57"/>
<text text-anchor="middle" x="1007.37" y="-2448.75" font-family="Times,serif" font-size="14.00">0.013255</text>
</g>
<!-- id_27236097_DOT_4 -->
<g id="node4" class="node">
<title>id_27236097_DOT_4</title>
<polygon fill="blue" stroke="blue" points="3404.54,-2062.17 3408.92,-2062.36 3413.25,-2062.65 3417.52,-2063.03 3421.71,-2063.51 3425.8,-2064.08 3429.77,-2064.74 3433.62,-2065.49 3437.33,-2066.33 3440.88,-2067.25 3444.25,-2068.26 3447.45,-2069.34 3450.46,-2070.51 3453.26,-2071.74 3455.85,-2073.04 3458.23,-2074.42 3460.38,-2075.85 3462.31,-2077.34 3464,-2078.89 3465.46,-2080.49 3466.69,-2082.13 3467.68,-2083.82 3468.44,-2085.54 3468.97,-2087.3 3469.27,-2089.08 3469.36,-2090.88 3469.22,-2092.71 3468.88,-2094.54 3468.33,-2096.39 3467.58,-2098.23 3466.65,-2100.07 3465.54,-2101.91 3464.25,-2103.73 3462.81,-2105.54 3461.22,-2107.32 3459.48,-2109.07 3457.61,-2110.8 3455.62,-2112.48 3453.52,-2114.13 3451.31,-2115.72 3449.01,-2117.27 3446.63,-2118.77 3444.17,-2120.2 3441.63,-2121.57 3439.04,-2122.88 3436.39,-2124.11 3433.7,-2125.27 3430.96,-2126.36 3428.19,-2127.36 3425.39,-2128.28 3422.56,-2129.12 3419.71,-2129.87 3416.84,-2130.53 3413.95,-2131.1 3411.06,-2131.58 3408.15,-2131.96 3405.24,-2132.25 3402.32,-2132.45 3399.4,-2132.54 3396.47,-2132.54 3393.55,-2132.45 3390.64,-2132.25 3387.72,-2131.96 3384.82,-2131.58 3381.92,-2131.1 3379.03,-2130.53 3376.16,-2129.87 3373.31,-2129.12 3370.48,-2128.28 3367.68,-2127.36 3364.91,-2126.36 3362.17,-2125.27 3359.48,-2124.11 3356.83,-2122.88 3354.24,-2121.57 3351.71,-2120.2 3349.24,-2118.77 3346.86,-2117.27 3344.56,-2115.72 3342.35,-2114.13 3340.25,-2112.48 3338.26,-2110.8 3336.39,-2109.07 3334.65,-2107.32 3333.06,-2105.54 3331.62,-2103.73 3330.33,-2101.91 3329.22,-2100.07 3328.29,-2098.23 3327.54,-2096.39 3327,-2094.54 3326.65,-2092.71 3326.52,-2090.88 3326.6,-2089.08 3326.9,-2087.3 3327.43,-2085.54 3328.19,-2083.82 3329.18,-2082.13 3330.41,-2080.49 3331.87,-2078.89 3333.57,-2077.34 3335.49,-2075.85 3337.64,-2074.42 3340.02,-2073.04 3342.61,-2071.74 3345.42,-2070.51 3348.42,-2069.34 3351.62,-2068.26 3355,-2067.25 3358.54,-2066.33 3362.25,-2065.49 3366.1,-2064.74 3370.08,-2064.08 3374.17,-2063.51 3378.35,-2063.03 3382.62,-2062.65 3386.95,-2062.36 3391.33,-2062.17 3395.73,-2062.07 3400.14,-2062.07 3404.54,-2062.17"/>
<text text-anchor="start" x="3368.77" y="-2107.11" font-family="Times,serif" font-size="14.00">C0031676</text>
<text text-anchor="start" x="3358.65" y="-2093.11" font-family="Times,serif" font-size="14.00">phospholipids</text>
<text text-anchor="start" x="3381.99" y="-2079.11" font-family="Times,serif" font-size="14.00">19:19</text>
</g>
<!-- id_27236097_DOT_8 -->
<g id="node8" class="node">
<title>id_27236097_DOT_8</title>
<polygon fill="brown" stroke="brown" points="3697.46,-2370.29 3703.66,-2370.49 3709.79,-2370.78 3715.83,-2371.16 3721.76,-2371.64 3727.55,-2372.21 3733.18,-2372.87 3738.63,-2373.62 3743.87,-2374.46 3748.89,-2375.38 3753.68,-2376.38 3758.2,-2377.47 3762.46,-2378.63 3766.43,-2379.87 3770.1,-2381.17 3773.46,-2382.54 3776.51,-2383.98 3779.23,-2385.47 3781.63,-2387.02 3783.7,-2388.61 3785.44,-2390.26 3786.84,-2391.94 3787.92,-2393.67 3788.67,-2395.42 3789.1,-2397.2 3789.22,-2399.01 3789.02,-2400.83 3788.54,-2402.67 3787.76,-2404.51 3786.7,-2406.36 3785.38,-2408.2 3783.81,-2410.03 3781.99,-2411.86 3779.95,-2413.66 3777.69,-2415.44 3775.24,-2417.2 3772.59,-2418.92 3769.77,-2420.61 3766.8,-2422.25 3763.67,-2423.85 3760.42,-2425.4 3757.04,-2426.89 3753.55,-2428.32 3749.97,-2429.7 3746.3,-2431 3742.55,-2432.24 3738.74,-2433.4 3734.86,-2434.48 3730.94,-2435.49 3726.97,-2436.41 3722.96,-2437.25 3718.93,-2438 3714.86,-2438.66 3710.78,-2439.23 3706.68,-2439.71 3702.56,-2440.09 3698.44,-2440.38 3694.31,-2440.57 3690.17,-2440.67 3686.04,-2440.67 3681.9,-2440.57 3677.77,-2440.38 3673.64,-2440.09 3669.53,-2439.71 3665.43,-2439.23 3661.35,-2438.66 3657.28,-2438 3653.25,-2437.25 3649.24,-2436.41 3645.27,-2435.49 3641.35,-2434.48 3637.47,-2433.4 3633.66,-2432.24 3629.91,-2431 3626.24,-2429.7 3622.65,-2428.32 3619.17,-2426.89 3615.79,-2425.4 3612.53,-2423.85 3609.41,-2422.25 3606.43,-2420.61 3603.62,-2418.92 3600.97,-2417.2 3598.51,-2415.44 3596.26,-2413.66 3594.21,-2411.86 3592.4,-2410.03 3590.82,-2408.2 3589.5,-2406.36 3588.45,-2404.51 3587.67,-2402.67 3587.18,-2400.83 3586.99,-2399.01 3587.11,-2397.2 3587.54,-2395.42 3588.29,-2393.67 3589.37,-2391.94 3590.77,-2390.26 3592.51,-2388.61 3594.58,-2387.02 3596.97,-2385.47 3599.7,-2383.98 3602.75,-2382.54 3606.11,-2381.17 3609.78,-2379.87 3613.75,-2378.63 3618,-2377.47 3622.53,-2376.38 3627.31,-2375.38 3632.34,-2374.46 3637.58,-2373.62 3643.03,-2372.87 3648.66,-2372.21 3654.45,-2371.64 3660.38,-2371.16 3666.42,-2370.78 3672.55,-2370.49 3678.75,-2370.29 3684.98,-2370.2 3691.23,-2370.2 3697.46,-2370.29"/>
<text text-anchor="start" x="3658.93" y="-2415.23" font-family="Times,serif" font-size="14.00">C0043840</text>
<text text-anchor="start" x="3629" y="-2401.23" font-family="Times,serif" font-size="14.00">phosphatidylglycerol</text>
<text text-anchor="start" x="3672.16" y="-2387.23" font-family="Times,serif" font-size="14.00">62:62</text>
</g>
<!-- id_27236097_DOT_4&#45;&#45;id_27236097_DOT_8 -->
<g id="edge14" class="edge">
<title>id_27236097_DOT_4&#45;&#45;id_27236097_DOT_8</title>
<path fill="none" stroke="black" stroke-dasharray="1,5" d="M3426.82,-2127.98C3481.29,-2185.82 3598.83,-2310.64 3655.82,-2371.15"/>
<text text-anchor="middle" x="3515.07" y="-2252.36" font-family="Times,serif" font-size="14.00">0.814798</text>
</g>
<!-- id_27236097_DOT_16 -->
<g id="node16" class="node">
<title>id_27236097_DOT_16</title>
<polygon fill="coral" stroke="coral" points="3521.94,-1647.62 3525.5,-1647.81 3529.03,-1648.1 3532.5,-1648.49 3535.9,-1648.96 3539.23,-1649.53 3542.47,-1650.19 3545.6,-1650.95 3548.61,-1651.78 3551.5,-1652.71 3554.25,-1653.71 3556.85,-1654.8 3559.29,-1655.96 3561.57,-1657.19 3563.68,-1658.5 3565.61,-1659.87 3567.37,-1661.3 3568.93,-1662.79 3570.31,-1664.34 3571.5,-1665.94 3572.5,-1667.58 3573.3,-1669.27 3573.92,-1670.99 3574.35,-1672.75 3574.6,-1674.53 3574.67,-1676.34 3574.56,-1678.16 3574.28,-1679.99 3573.83,-1681.84 3573.22,-1683.68 3572.47,-1685.52 3571.56,-1687.36 3570.52,-1689.18 3569.34,-1690.99 3568.05,-1692.77 3566.63,-1694.53 3565.11,-1696.25 3563.5,-1697.93 3561.79,-1699.58 3559.99,-1701.18 3558.12,-1702.72 3556.18,-1704.22 3554.18,-1705.65 3552.12,-1707.02 3550.01,-1708.33 3547.85,-1709.56 3545.66,-1710.72 3543.43,-1711.81 3541.18,-1712.81 3538.9,-1713.74 3536.6,-1714.57 3534.28,-1715.32 3531.94,-1715.99 3529.6,-1716.56 3527.24,-1717.03 3524.88,-1717.42 3522.51,-1717.71 3520.13,-1717.9 3517.76,-1717.99 3515.38,-1717.99 3513,-1717.9 3510.63,-1717.71 3508.26,-1717.42 3505.89,-1717.03 3503.54,-1716.56 3501.19,-1715.99 3498.86,-1715.32 3496.54,-1714.57 3494.24,-1713.74 3491.96,-1712.81 3489.7,-1711.81 3487.47,-1710.72 3485.28,-1709.56 3483.13,-1708.33 3481.02,-1707.02 3478.96,-1705.65 3476.96,-1704.22 3475.02,-1702.72 3473.14,-1701.18 3471.35,-1699.58 3469.64,-1697.93 3468.02,-1696.25 3466.5,-1694.53 3465.09,-1692.77 3463.79,-1690.99 3462.62,-1689.18 3461.57,-1687.36 3460.67,-1685.52 3459.91,-1683.68 3459.3,-1681.84 3458.86,-1679.99 3458.58,-1678.16 3458.47,-1676.34 3458.53,-1674.53 3458.78,-1672.75 3459.21,-1670.99 3459.83,-1669.27 3460.64,-1667.58 3461.64,-1665.94 3462.83,-1664.34 3464.2,-1662.79 3465.77,-1661.3 3467.52,-1659.87 3469.45,-1658.5 3471.56,-1657.19 3473.84,-1655.96 3476.29,-1654.8 3478.89,-1653.71 3481.64,-1652.71 3484.52,-1651.78 3487.54,-1650.95 3490.67,-1650.19 3493.9,-1649.53 3497.23,-1648.96 3500.64,-1648.49 3504.11,-1648.1 3507.63,-1647.81 3511.19,-1647.62 3514.77,-1647.52 3518.36,-1647.52 3521.94,-1647.62"/>
<text text-anchor="start" x="3487.4" y="-1692.56" font-family="Times,serif" font-size="14.00">C0008377</text>
<text text-anchor="start" x="3485.86" y="-1678.56" font-family="Times,serif" font-size="14.00">cholesterol</text>
<text text-anchor="start" x="3493.62" y="-1664.56" font-family="Times,serif" font-size="14.00">107:107</text>
</g>
<!-- id_27236097_DOT_4&#45;&#45;id_27236097_DOT_16 -->
<g id="edge15" class="edge">
<title>id_27236097_DOT_4&#45;&#45;id_27236097_DOT_16</title>
<path fill="none" stroke="black" stroke-dasharray="1,5" d="M3408.05,-2061.96C3430.52,-1983.45 3484.36,-1795.31 3506.65,-1717.43"/>
<text text-anchor="middle" x="3431.1" y="-1892.5" font-family="Times,serif" font-size="14.00">0.788432</text>
</g>
<!-- id_27236097_DOT_20 -->
<g id="node20" class="node">
<title>id_27236097_DOT_20</title>
<polygon fill="crimson" stroke="crimson" points="3002.92,-2192 3006.47,-2192.19 3009.98,-2192.48 3013.44,-2192.86 3016.84,-2193.34 3020.16,-2193.91 3023.39,-2194.57 3026.51,-2195.32 3029.51,-2196.16 3032.39,-2197.09 3035.13,-2198.09 3037.73,-2199.17 3040.17,-2200.34 3042.44,-2201.57 3044.54,-2202.88 3046.47,-2204.25 3048.22,-2205.68 3049.78,-2207.17 3051.16,-2208.72 3052.34,-2210.32 3053.34,-2211.96 3054.14,-2213.65 3054.76,-2215.37 3055.19,-2217.13 3055.44,-2218.91 3055.5,-2220.72 3055.39,-2222.54 3055.11,-2224.37 3054.67,-2226.22 3054.06,-2228.06 3053.31,-2229.9 3052.4,-2231.74 3051.36,-2233.56 3050.19,-2235.37 3048.9,-2237.15 3047.49,-2238.9 3045.97,-2240.63 3044.36,-2242.31 3042.65,-2243.96 3040.86,-2245.56 3039,-2247.1 3037.06,-2248.6 3035.06,-2250.03 3033.01,-2251.4 3030.91,-2252.71 3028.76,-2253.94 3026.57,-2255.1 3024.35,-2256.19 3022.1,-2257.19 3019.83,-2258.11 3017.53,-2258.95 3015.22,-2259.7 3012.89,-2260.36 3010.55,-2260.93 3008.2,-2261.41 3005.84,-2261.8 3003.48,-2262.08 3001.11,-2262.28 2998.74,-2262.37 2996.37,-2262.37 2994,-2262.28 2991.63,-2262.08 2989.27,-2261.8 2986.91,-2261.41 2984.56,-2260.93 2982.22,-2260.36 2979.89,-2259.7 2977.58,-2258.95 2975.28,-2258.11 2973.01,-2257.19 2970.76,-2256.19 2968.54,-2255.1 2966.35,-2253.94 2964.2,-2252.71 2962.1,-2251.4 2960.05,-2250.03 2958.05,-2248.6 2956.11,-2247.1 2954.25,-2245.56 2952.46,-2243.96 2950.75,-2242.31 2949.13,-2240.63 2947.62,-2238.9 2946.21,-2237.15 2944.92,-2235.37 2943.75,-2233.56 2942.71,-2231.74 2941.8,-2229.9 2941.05,-2228.06 2940.44,-2226.22 2940,-2224.37 2939.72,-2222.54 2939.61,-2220.72 2939.67,-2218.91 2939.92,-2217.13 2940.35,-2215.37 2940.97,-2213.65 2941.77,-2211.96 2942.77,-2210.32 2943.95,-2208.72 2945.33,-2207.17 2946.89,-2205.68 2948.64,-2204.25 2950.56,-2202.88 2952.67,-2201.57 2954.94,-2200.34 2957.38,-2199.17 2959.97,-2198.09 2962.72,-2197.09 2965.59,-2196.16 2968.6,-2195.32 2971.72,-2194.57 2974.95,-2193.91 2978.27,-2193.34 2981.67,-2192.86 2985.13,-2192.48 2988.64,-2192.19 2992.19,-2192 2995.76,-2191.9 2999.34,-2191.9 3002.92,-2192"/>
<text text-anchor="start" x="2968.39" y="-2236.94" font-family="Times,serif" font-size="14.00">C0032483</text>
<text text-anchor="start" x="2967.23" y="-2222.94" font-family="Times,serif" font-size="14.00">PEGylated</text>
<text text-anchor="start" x="2974.61" y="-2208.94" font-family="Times,serif" font-size="14.00">146:146</text>
</g>
<!-- id_27236097_DOT_4&#45;&#45;id_27236097_DOT_20 -->
<g id="edge16" class="edge">
<title>id_27236097_DOT_4&#45;&#45;id_27236097_DOT_20</title>
<path fill="none" stroke="black" stroke-dasharray="1,5" d="M3343.1,-2115.09C3266.54,-2139.92 3128.43,-2184.7 3052.04,-2209.47"/>
<text text-anchor="middle" x="3171.32" y="-2165.08" font-family="Times,serif" font-size="14.00">0.870479</text>
</g>
<!-- id_27236097_DOT_5 -->
<g id="node5" class="node">
<title>id_27236097_DOT_5</title>
<polygon fill="blueviolet" stroke="blueviolet" points="3994.65,-1010.24 4004.7,-1010.44 4014.64,-1010.73 4024.44,-1011.11 4034.06,-1011.59 4043.45,-1012.16 4052.59,-1012.82 4061.43,-1013.57 4069.94,-1014.41 4078.08,-1015.33 4085.84,-1016.33 4093.19,-1017.42 4100.09,-1018.58 4106.52,-1019.82 4112.48,-1021.12 4117.94,-1022.49 4122.88,-1023.93 4127.3,-1025.42 4131.19,-1026.97 4134.55,-1028.56 4137.37,-1030.21 4139.65,-1031.89 4141.39,-1033.62 4142.61,-1035.37 4143.31,-1037.15 4143.5,-1038.96 4143.19,-1040.78 4142.39,-1042.62 4141.13,-1044.46 4139.42,-1046.31 4137.28,-1048.15 4134.72,-1049.98 4131.78,-1051.81 4128.46,-1053.61 4124.8,-1055.39 4120.82,-1057.15 4116.53,-1058.87 4111.96,-1060.56 4107.13,-1062.2 4102.06,-1063.8 4096.78,-1065.35 4091.3,-1066.84 4085.64,-1068.27 4079.83,-1069.65 4073.87,-1070.95 4067.79,-1072.19 4061.6,-1073.35 4055.32,-1074.43 4048.95,-1075.44 4042.51,-1076.36 4036.02,-1077.2 4029.47,-1077.95 4022.88,-1078.61 4016.25,-1079.18 4009.6,-1079.66 4002.92,-1080.04 3996.23,-1080.33 3989.53,-1080.52 3982.82,-1080.62 3976.11,-1080.62 3969.4,-1080.52 3962.7,-1080.33 3956.01,-1080.04 3949.34,-1079.66 3942.68,-1079.18 3936.06,-1078.61 3929.47,-1077.95 3922.92,-1077.2 3916.42,-1076.36 3909.98,-1075.44 3903.62,-1074.43 3897.33,-1073.35 3891.14,-1072.19 3885.06,-1070.95 3879.11,-1069.65 3873.29,-1068.27 3867.64,-1066.84 3862.16,-1065.35 3856.88,-1063.8 3851.81,-1062.2 3846.98,-1060.56 3842.41,-1058.87 3838.12,-1057.15 3834.13,-1055.39 3830.47,-1053.61 3827.16,-1051.81 3824.21,-1049.98 3821.66,-1048.15 3819.52,-1046.31 3817.8,-1044.46 3816.54,-1042.62 3815.75,-1040.78 3815.44,-1038.96 3815.63,-1037.15 3816.33,-1035.37 3817.54,-1033.62 3819.29,-1031.89 3821.57,-1030.21 3824.39,-1028.56 3827.74,-1026.97 3831.63,-1025.42 3836.06,-1023.93 3841,-1022.49 3846.46,-1021.12 3852.41,-1019.82 3858.85,-1018.58 3865.75,-1017.42 3873.09,-1016.33 3880.85,-1015.33 3889,-1014.41 3897.51,-1013.57 3906.35,-1012.82 3915.48,-1012.16 3924.88,-1011.59 3934.49,-1011.11 3944.29,-1010.73 3954.24,-1010.44 3964.29,-1010.24 3974.4,-1010.15 3984.53,-1010.15 3994.65,-1010.24"/>
<text text-anchor="start" x="3950.3" y="-1055.18" font-family="Times,serif" font-size="14.00">C0201950</text>
<text text-anchor="start" x="3878.4" y="-1041.18" font-family="Times,serif" font-size="14.00">cholesterol content have been tested</text>
<text text-anchor="start" x="3963.52" y="-1027.18" font-family="Times,serif" font-size="14.00">30:34</text>
</g>
<!-- id_27236097_DOT_11 -->
<g id="node11" class="node">
<title>id_27236097_DOT_11</title>
<polygon fill="chartreuse" stroke="chartreuse" points="4142.45,-669.33 4145.87,-669.53 4149.27,-669.82 4152.61,-670.2 4155.89,-670.68 4159.1,-671.25 4162.21,-671.91 4165.23,-672.66 4168.13,-673.5 4170.91,-674.42 4173.56,-675.43 4176.06,-676.51 4178.42,-677.67 4180.61,-678.91 4182.64,-680.21 4184.5,-681.58 4186.19,-683.02 4187.7,-684.51 4189.03,-686.06 4190.17,-687.65 4191.13,-689.3 4191.91,-690.98 4192.51,-692.71 4192.92,-694.46 4193.16,-696.25 4193.22,-698.05 4193.12,-699.87 4192.85,-701.71 4192.42,-703.55 4191.83,-705.4 4191.1,-707.24 4190.23,-709.07 4189.23,-710.9 4188.1,-712.7 4186.85,-714.48 4185.49,-716.24 4184.02,-717.96 4182.46,-719.65 4180.82,-721.29 4179.09,-722.89 4177.29,-724.44 4175.42,-725.93 4173.49,-727.36 4171.5,-728.74 4169.47,-730.04 4167.4,-731.28 4165.29,-732.44 4163.14,-733.52 4160.97,-734.53 4158.78,-735.45 4156.56,-736.29 4154.32,-737.04 4152.08,-737.7 4149.82,-738.27 4147.55,-738.75 4145.27,-739.13 4142.99,-739.42 4140.7,-739.61 4138.41,-739.71 4136.12,-739.71 4133.83,-739.61 4131.55,-739.42 4129.27,-739.13 4126.99,-738.75 4124.72,-738.27 4122.46,-737.7 4120.21,-737.04 4117.98,-736.29 4115.76,-735.45 4113.56,-734.53 4111.39,-733.52 4109.25,-732.44 4107.14,-731.28 4105.06,-730.04 4103.03,-728.74 4101.05,-727.36 4099.12,-725.93 4097.25,-724.44 4095.45,-722.89 4093.72,-721.29 4092.07,-719.65 4090.51,-717.96 4089.05,-716.24 4087.69,-714.48 4086.44,-712.7 4085.31,-710.9 4084.3,-709.07 4083.43,-707.24 4082.7,-705.4 4082.12,-703.55 4081.69,-701.71 4081.42,-699.87 4081.31,-698.05 4081.38,-696.25 4081.61,-694.46 4082.03,-692.71 4082.62,-690.98 4083.4,-689.3 4084.36,-687.65 4085.51,-686.06 4086.84,-684.51 4088.34,-683.02 4090.03,-681.58 4091.89,-680.21 4093.92,-678.91 4096.12,-677.67 4098.47,-676.51 4100.98,-675.43 4103.63,-674.42 4106.41,-673.5 4109.31,-672.66 4112.32,-671.91 4115.44,-671.25 4118.64,-670.68 4121.93,-670.2 4125.27,-669.82 4128.66,-669.53 4132.09,-669.33 4135.54,-669.24 4139,-669.24 4142.45,-669.33"/>
<text text-anchor="start" x="4108.1" y="-714.27" font-family="Times,serif" font-size="14.00">C0441587</text>
<text text-anchor="start" x="4112.77" y="-700.27" font-family="Times,serif" font-size="14.00">insertion</text>
<text text-anchor="start" x="4121.32" y="-686.27" font-family="Times,serif" font-size="14.00">73:73</text>
</g>
<!-- id_27236097_DOT_5&#45;&#45;id_27236097_DOT_11 -->
<g id="edge17" class="edge">
<title>id_27236097_DOT_5&#45;&#45;id_27236097_DOT_11</title>
<path fill="none" stroke="black" stroke-dasharray="1,5" d="M3995.76,-1010.18C4026.31,-944.18 4091.82,-802.65 4121.76,-737.97"/>
<text text-anchor="middle" x="4032.51" y="-876.88" font-family="Times,serif" font-size="14.00">0.715261</text>
</g>
<!-- id_27236097_DOT_23 -->
<g id="node23" class="node">
<title>id_27236097_DOT_23</title>
<polygon fill="coral" stroke="coral" points="3803.31,-1352.57 3806.87,-1352.76 3810.39,-1353.05 3813.87,-1353.43 3817.27,-1353.91 3820.6,-1354.48 3823.83,-1355.14 3826.97,-1355.89 3829.98,-1356.73 3832.87,-1357.65 3835.61,-1358.66 3838.22,-1359.74 3840.66,-1360.91 3842.94,-1362.14 3845.05,-1363.45 3846.98,-1364.82 3848.73,-1366.25 3850.3,-1367.74 3851.68,-1369.29 3852.87,-1370.89 3853.86,-1372.53 3854.67,-1374.22 3855.29,-1375.94 3855.72,-1377.7 3855.97,-1379.48 3856.04,-1381.28 3855.93,-1383.11 3855.64,-1384.94 3855.2,-1386.79 3854.59,-1388.63 3853.83,-1390.47 3852.93,-1392.31 3851.88,-1394.13 3850.71,-1395.94 3849.41,-1397.72 3848,-1399.47 3846.48,-1401.2 3844.86,-1402.88 3843.15,-1404.53 3841.36,-1406.12 3839.49,-1407.67 3837.55,-1409.17 3835.54,-1410.6 3833.48,-1411.97 3831.37,-1413.28 3829.22,-1414.51 3827.03,-1415.67 3824.8,-1416.76 3822.55,-1417.76 3820.27,-1418.68 3817.96,-1419.52 3815.65,-1420.27 3813.31,-1420.93 3810.96,-1421.5 3808.61,-1421.98 3806.24,-1422.37 3803.87,-1422.65 3801.5,-1422.85 3799.12,-1422.94 3796.75,-1422.94 3794.37,-1422.85 3792,-1422.65 3789.63,-1422.37 3787.26,-1421.98 3784.91,-1421.5 3782.56,-1420.93 3780.22,-1420.27 3777.9,-1419.52 3775.6,-1418.68 3773.32,-1417.76 3771.07,-1416.76 3768.84,-1415.67 3766.65,-1414.51 3764.5,-1413.28 3762.39,-1411.97 3760.33,-1410.6 3758.32,-1409.17 3756.38,-1407.67 3754.51,-1406.12 3752.72,-1404.53 3751.01,-1402.88 3749.39,-1401.2 3747.87,-1399.47 3746.46,-1397.72 3745.16,-1395.94 3743.98,-1394.13 3742.94,-1392.31 3742.04,-1390.47 3741.28,-1388.63 3740.67,-1386.79 3740.23,-1384.94 3739.94,-1383.11 3739.83,-1381.28 3739.9,-1379.48 3740.15,-1377.7 3740.58,-1375.94 3741.2,-1374.22 3742.01,-1372.53 3743,-1370.89 3744.19,-1369.29 3745.57,-1367.74 3747.14,-1366.25 3748.89,-1364.82 3750.82,-1363.45 3752.93,-1362.14 3755.21,-1360.91 3757.65,-1359.74 3760.26,-1358.66 3763,-1357.65 3765.89,-1356.73 3768.9,-1355.89 3772.04,-1355.14 3775.27,-1354.48 3778.6,-1353.91 3782,-1353.43 3785.48,-1353.05 3789,-1352.76 3792.56,-1352.57 3796.14,-1352.47 3799.73,-1352.47 3803.31,-1352.57"/>
<text text-anchor="start" x="3768.77" y="-1397.51" font-family="Times,serif" font-size="14.00">C0008377</text>
<text text-anchor="start" x="3767.22" y="-1383.51" font-family="Times,serif" font-size="14.00">cholesterol</text>
<text text-anchor="start" x="3774.99" y="-1369.51" font-family="Times,serif" font-size="14.00">153:153</text>
</g>
<!-- id_27236097_DOT_5&#45;&#45;id_27236097_DOT_23 -->
<g id="edge4" class="edge">
<title>id_27236097_DOT_5&#45;&#45;id_27236097_DOT_23</title>
<path fill="none" stroke="black" d="M3960.89,-1080.41C3925.92,-1146.36 3850.72,-1288.18 3816.08,-1353.49"/>
<text text-anchor="middle" x="3862.24" y="-1219.75" font-family="Times,serif" font-size="14.00">0.222094</text>
</g>
<!-- id_27236097_DOT_6&#45;&#45;id_27236097_DOT_22 -->
<g id="edge18" class="edge">
<title>id_27236097_DOT_6&#45;&#45;id_27236097_DOT_22</title>
<path fill="none" stroke="black" stroke-dasharray="1,5" d="M1061.01,-2673.88C995.34,-2726.67 867.99,-2829.04 805.4,-2879.35"/>
<text text-anchor="middle" x="906.96" y="-2779.41" font-family="Times,serif" font-size="14.00">0.817397</text>
</g>
<!-- id_27236097_DOT_25 -->
<g id="node25" class="node">
<title>id_27236097_DOT_25</title>
<polygon fill="bisque" stroke="bisque" points="1512.24,-2583.52 1515.75,-2583.71 1519.22,-2584 1522.64,-2584.38 1526,-2584.86 1529.28,-2585.43 1532.47,-2586.09 1535.56,-2586.84 1538.53,-2587.68 1541.38,-2588.6 1544.08,-2589.61 1546.65,-2590.69 1549.06,-2591.85 1551.31,-2593.09 1553.39,-2594.39 1555.29,-2595.77 1557.02,-2597.2 1558.56,-2598.69 1559.92,-2600.24 1561.09,-2601.84 1562.08,-2603.48 1562.87,-2605.17 1563.48,-2606.89 1563.91,-2608.65 1564.15,-2610.43 1564.22,-2612.23 1564.11,-2614.06 1563.83,-2615.89 1563.39,-2617.73 1562.8,-2619.58 1562.05,-2621.42 1561.15,-2623.26 1560.13,-2625.08 1558.97,-2626.89 1557.69,-2628.67 1556.3,-2630.42 1554.8,-2632.15 1553.2,-2633.83 1551.52,-2635.48 1549.75,-2637.07 1547.9,-2638.62 1545.99,-2640.11 1544.01,-2641.55 1541.98,-2642.92 1539.9,-2644.22 1537.78,-2645.46 1535.62,-2646.62 1533.42,-2647.71 1531.2,-2648.71 1528.95,-2649.63 1526.68,-2650.47 1524.4,-2651.22 1522.09,-2651.88 1519.78,-2652.45 1517.46,-2652.93 1515.13,-2653.31 1512.79,-2653.6 1510.45,-2653.8 1508.11,-2653.89 1505.76,-2653.89 1503.42,-2653.8 1501.08,-2653.6 1498.74,-2653.31 1496.41,-2652.93 1494.09,-2652.45 1491.78,-2651.88 1489.47,-2651.22 1487.19,-2650.47 1484.92,-2649.63 1482.67,-2648.71 1480.45,-2647.71 1478.25,-2646.62 1476.09,-2645.46 1473.97,-2644.22 1471.89,-2642.92 1469.86,-2641.55 1467.88,-2640.11 1465.97,-2638.62 1464.12,-2637.07 1462.35,-2635.48 1460.67,-2633.83 1459.07,-2632.15 1457.57,-2630.42 1456.18,-2628.67 1454.9,-2626.89 1453.74,-2625.08 1452.72,-2623.26 1451.82,-2621.42 1451.07,-2619.58 1450.48,-2617.73 1450.04,-2615.89 1449.76,-2614.06 1449.65,-2612.23 1449.72,-2610.43 1449.96,-2608.65 1450.39,-2606.89 1451,-2605.17 1451.79,-2603.48 1452.78,-2601.84 1453.95,-2600.24 1455.31,-2598.69 1456.85,-2597.2 1458.58,-2595.77 1460.48,-2594.39 1462.56,-2593.09 1464.81,-2591.85 1467.22,-2590.69 1469.79,-2589.61 1472.49,-2588.6 1475.34,-2587.68 1478.31,-2586.84 1481.4,-2586.09 1484.59,-2585.43 1487.87,-2584.86 1491.23,-2584.38 1494.65,-2584 1498.12,-2583.71 1501.63,-2583.52 1505.17,-2583.42 1508.7,-2583.42 1512.24,-2583.52"/>
<text text-anchor="start" x="1477.77" y="-2628.46" font-family="Times,serif" font-size="14.00">C0600500</text>
<text text-anchor="start" x="1476.99" y="-2614.46" font-family="Times,serif" font-size="14.00">PNA&#45;a210</text>
<text text-anchor="start" x="1483.99" y="-2600.46" font-family="Times,serif" font-size="14.00">167:167</text>
</g>
<!-- id_27236097_DOT_6&#45;&#45;id_27236097_DOT_25 -->
<g id="edge19" class="edge">
<title>id_27236097_DOT_6&#45;&#45;id_27236097_DOT_25</title>
<path fill="none" stroke="black" stroke-dasharray="1,5" d="M1248.62,-2632.76C1319.23,-2628.91 1399.71,-2624.51 1451.8,-2621.67"/>
<text text-anchor="middle" x="1323.96" y="-2630.02" font-family="Times,serif" font-size="14.00">0.581441</text>
</g>
<!-- id_27236097_DOT_7 -->
<g id="node7" class="node">
<title>id_27236097_DOT_7</title>
<polygon fill="aquamarine" stroke="aquamarine" points="61.16,-2481.06 64.58,-2481.25 67.98,-2481.54 71.32,-2481.93 74.6,-2482.4 77.81,-2482.98 80.92,-2483.64 83.94,-2484.39 86.84,-2485.22 89.62,-2486.15 92.27,-2487.15 94.77,-2488.24 97.13,-2489.4 99.32,-2490.63 101.35,-2491.94 103.22,-2493.31 104.9,-2494.74 106.41,-2496.24 107.74,-2497.78 108.88,-2499.38 109.84,-2501.03 110.62,-2502.71 111.22,-2504.44 111.63,-2506.19 111.87,-2507.97 111.93,-2509.78 111.83,-2511.6 111.56,-2513.44 111.13,-2515.28 110.54,-2517.12 109.81,-2518.97 108.94,-2520.8 107.94,-2522.62 106.81,-2524.43 105.56,-2526.21 104.2,-2527.97 102.73,-2529.69 101.18,-2531.38 99.53,-2533.02 97.8,-2534.62 96,-2536.17 94.13,-2537.66 92.2,-2539.09 90.22,-2540.46 88.18,-2541.77 86.11,-2543 84,-2544.16 81.85,-2545.25 79.68,-2546.25 77.49,-2547.18 75.27,-2548.01 73.04,-2548.77 70.79,-2549.43 68.53,-2550 66.26,-2550.47 63.98,-2550.86 61.7,-2551.15 59.41,-2551.34 57.12,-2551.44 54.83,-2551.44 52.55,-2551.34 50.26,-2551.15 47.98,-2550.86 45.7,-2550.47 43.43,-2550 41.17,-2549.43 38.92,-2548.77 36.69,-2548.01 34.47,-2547.18 32.27,-2546.25 30.1,-2545.25 27.96,-2544.16 25.85,-2543 23.77,-2541.77 21.74,-2540.46 19.76,-2539.09 17.83,-2537.66 15.96,-2536.17 14.16,-2534.62 12.43,-2533.02 10.78,-2531.38 9.22,-2529.69 7.76,-2527.97 6.4,-2526.21 5.15,-2524.43 4.02,-2522.62 3.01,-2520.8 2.14,-2518.97 1.41,-2517.12 0.83,-2515.28 0.4,-2513.44 0.13,-2511.6 0.02,-2509.78 0.09,-2507.97 0.32,-2506.19 0.74,-2504.44 1.34,-2502.71 2.11,-2501.03 3.07,-2499.38 4.22,-2497.78 5.55,-2496.24 7.05,-2494.74 8.74,-2493.31 10.6,-2491.94 12.63,-2490.63 14.83,-2489.4 17.18,-2488.24 19.69,-2487.15 22.34,-2486.15 25.12,-2485.22 28.02,-2484.39 31.03,-2483.64 34.15,-2482.98 37.35,-2482.4 40.64,-2481.93 43.98,-2481.54 47.37,-2481.25 50.8,-2481.06 54.25,-2480.97 57.71,-2480.97 61.16,-2481.06"/>
<text text-anchor="start" x="26.81" y="-2526" font-family="Times,serif" font-size="14.00">C0023828</text>
<text text-anchor="start" x="27.59" y="-2512" font-family="Times,serif" font-size="14.00">liposomes</text>
<text text-anchor="start" x="40.03" y="-2498" font-family="Times,serif" font-size="14.00">60:60</text>
</g>
<!-- id_27236097_DOT_14 -->
<g id="node14" class="node">
<title>id_27236097_DOT_14</title>
<polygon fill="aquamarine" stroke="aquamarine" points="412.39,-2652.63 415.81,-2652.82 419.21,-2653.11 422.55,-2653.49 425.83,-2653.97 429.04,-2654.54 432.15,-2655.2 435.17,-2655.95 438.07,-2656.79 440.85,-2657.71 443.5,-2658.72 446,-2659.8 448.36,-2660.96 450.55,-2662.2 452.58,-2663.5 454.45,-2664.87 456.13,-2666.31 457.64,-2667.8 458.97,-2669.35 460.11,-2670.95 461.07,-2672.59 461.85,-2674.28 462.45,-2676 462.86,-2677.75 463.1,-2679.54 463.16,-2681.34 463.06,-2683.16 462.79,-2685 462.36,-2686.84 461.77,-2688.69 461.04,-2690.53 460.17,-2692.37 459.17,-2694.19 458.04,-2695.99 456.79,-2697.78 455.43,-2699.53 453.96,-2701.25 452.41,-2702.94 450.76,-2704.58 449.03,-2706.18 447.23,-2707.73 445.36,-2709.22 443.43,-2710.66 441.45,-2712.03 439.41,-2713.33 437.34,-2714.57 435.23,-2715.73 433.08,-2716.81 430.91,-2717.82 428.72,-2718.74 426.5,-2719.58 424.27,-2720.33 422.02,-2720.99 419.76,-2721.56 417.49,-2722.04 415.21,-2722.42 412.93,-2722.71 410.64,-2722.9 408.35,-2723 406.06,-2723 403.78,-2722.9 401.49,-2722.71 399.21,-2722.42 396.93,-2722.04 394.66,-2721.56 392.4,-2720.99 390.15,-2720.33 387.92,-2719.58 385.7,-2718.74 383.5,-2717.82 381.33,-2716.81 379.19,-2715.73 377.08,-2714.57 375,-2713.33 372.97,-2712.03 370.99,-2710.66 369.06,-2709.22 367.19,-2707.73 365.39,-2706.18 363.66,-2704.58 362.01,-2702.94 360.45,-2701.25 358.99,-2699.53 357.63,-2697.78 356.38,-2695.99 355.25,-2694.19 354.24,-2692.37 353.37,-2690.53 352.64,-2688.69 352.06,-2686.84 351.63,-2685 351.36,-2683.16 351.25,-2681.34 351.32,-2679.54 351.55,-2677.75 351.97,-2676 352.57,-2674.28 353.34,-2672.59 354.3,-2670.95 355.45,-2669.35 356.78,-2667.8 358.28,-2666.31 359.97,-2664.87 361.83,-2663.5 363.86,-2662.2 366.06,-2660.96 368.41,-2659.8 370.92,-2658.72 373.57,-2657.71 376.35,-2656.79 379.25,-2655.95 382.26,-2655.2 385.38,-2654.54 388.59,-2653.97 391.87,-2653.49 395.21,-2653.11 398.6,-2652.82 402.03,-2652.63 405.48,-2652.53 408.94,-2652.53 412.39,-2652.63"/>
<text text-anchor="start" x="378.04" y="-2697.56" font-family="Times,serif" font-size="14.00">C0023828</text>
<text text-anchor="start" x="378.82" y="-2683.56" font-family="Times,serif" font-size="14.00">liposomes</text>
<text text-anchor="start" x="391.26" y="-2669.56" font-family="Times,serif" font-size="14.00">85:85</text>
</g>
<!-- id_27236097_DOT_7&#45;&#45;id_27236097_DOT_14 -->
<g id="edge5" class="edge">
<title>id_27236097_DOT_7&#45;&#45;id_27236097_DOT_14</title>
<path fill="none" stroke="black" d="M96.61,-2536.05C162.07,-2568.02 290.53,-2630.77 359.97,-2664.69"/>
<text text-anchor="middle" x="202.04" y="-2603.17" font-family="Times,serif" font-size="14.00">0.004233</text>
</g>
<!-- id_27236097_DOT_9 -->
<g id="node9" class="node">
<title>id_27236097_DOT_9</title>
<polygon fill="brown" stroke="brown" points="3973.7,-2650.9 3977.13,-2651.09 3980.52,-2651.38 3983.86,-2651.76 3987.14,-2652.24 3990.35,-2652.81 3993.46,-2653.47 3996.48,-2654.22 3999.38,-2655.06 4002.16,-2655.98 4004.81,-2656.99 4007.31,-2658.07 4009.67,-2659.23 4011.86,-2660.47 4013.9,-2661.77 4015.76,-2663.14 4017.44,-2664.58 4018.95,-2666.07 4020.28,-2667.62 4021.42,-2669.22 4022.38,-2670.86 4023.16,-2672.55 4023.76,-2674.27 4024.17,-2676.02 4024.41,-2677.81 4024.48,-2679.61 4024.37,-2681.43 4024.1,-2683.27 4023.67,-2685.11 4023.09,-2686.96 4022.35,-2688.8 4021.48,-2690.64 4020.48,-2692.46 4019.35,-2694.26 4018.1,-2696.05 4016.74,-2697.8 4015.28,-2699.52 4013.72,-2701.21 4012.07,-2702.85 4010.34,-2704.45 4008.54,-2706 4006.67,-2707.49 4004.74,-2708.93 4002.76,-2710.3 4000.72,-2711.6 3998.65,-2712.84 3996.54,-2714 3994.4,-2715.08 3992.22,-2716.09 3990.03,-2717.01 3987.81,-2717.85 3985.58,-2718.6 3983.33,-2719.26 3981.07,-2719.83 3978.8,-2720.31 3976.52,-2720.69 3974.24,-2720.98 3971.95,-2721.17 3969.66,-2721.27 3967.37,-2721.27 3965.09,-2721.17 3962.8,-2720.98 3960.52,-2720.69 3958.24,-2720.31 3955.97,-2719.83 3953.71,-2719.26 3951.46,-2718.6 3949.23,-2717.85 3947.01,-2717.01 3944.82,-2716.09 3942.64,-2715.08 3940.5,-2714 3938.39,-2712.84 3936.31,-2711.6 3934.28,-2710.3 3932.3,-2708.93 3930.37,-2707.49 3928.5,-2706 3926.7,-2704.45 3924.97,-2702.85 3923.32,-2701.21 3921.76,-2699.52 3920.3,-2697.8 3918.94,-2696.05 3917.69,-2694.26 3916.56,-2692.46 3915.56,-2690.64 3914.68,-2688.8 3913.95,-2686.96 3913.37,-2685.11 3912.94,-2683.27 3912.67,-2681.43 3912.56,-2679.61 3912.63,-2677.81 3912.87,-2676.02 3913.28,-2674.27 3913.88,-2672.55 3914.65,-2670.86 3915.62,-2669.22 3916.76,-2667.62 3918.09,-2666.07 3919.6,-2664.58 3921.28,-2663.14 3923.14,-2661.77 3925.18,-2660.47 3927.37,-2659.23 3929.73,-2658.07 3932.23,-2656.99 3934.88,-2655.98 3937.66,-2655.06 3940.56,-2654.22 3943.58,-2653.47 3946.69,-2652.81 3949.9,-2652.24 3953.18,-2651.76 3956.52,-2651.38 3959.91,-2651.09 3963.34,-2650.9 3966.79,-2650.8 3970.25,-2650.8 3973.7,-2650.9"/>
<text text-anchor="start" x="3939.35" y="-2695.83" font-family="Times,serif" font-size="14.00">C0043840</text>
<text text-anchor="start" x="3949.46" y="-2681.83" font-family="Times,serif" font-size="14.00">DOPG</text>
<text text-anchor="start" x="3952.57" y="-2667.83" font-family="Times,serif" font-size="14.00">64:64</text>
</g>
<!-- id_27236097_DOT_8&#45;&#45;id_27236097_DOT_9 -->
<g id="edge6" class="edge">
<title>id_27236097_DOT_8&#45;&#45;id_27236097_DOT_9</title>
<path fill="none" stroke="black" d="M3720.54,-2437.9C3774.9,-2492.28 3883.65,-2601.11 3937.23,-2654.72"/>
<text text-anchor="middle" x="3802.64" y="-2549.11" font-family="Times,serif" font-size="14.00">0.009094</text>
</g>
<!-- id_27236097_DOT_13 -->
<g id="node13" class="node">
<title>id_27236097_DOT_13</title>
<polygon fill="brown" stroke="brown" points="4254.58,-2911.71 4258,-2911.91 4261.4,-2912.2 4264.74,-2912.58 4268.02,-2913.06 4271.23,-2913.63 4274.34,-2914.29 4277.36,-2915.04 4280.26,-2915.88 4283.04,-2916.8 4285.69,-2917.8 4288.19,-2918.89 4290.55,-2920.05 4292.74,-2921.29 4294.77,-2922.59 4296.64,-2923.96 4298.32,-2925.4 4299.83,-2926.89 4301.16,-2928.44 4302.3,-2930.03 4303.26,-2931.68 4304.04,-2933.36 4304.64,-2935.09 4305.05,-2936.84 4305.29,-2938.62 4305.35,-2940.43 4305.25,-2942.25 4304.98,-2944.09 4304.55,-2945.93 4303.96,-2947.78 4303.23,-2949.62 4302.36,-2951.45 4301.36,-2953.28 4300.23,-2955.08 4298.98,-2956.86 4297.62,-2958.62 4296.15,-2960.34 4294.59,-2962.03 4292.95,-2963.67 4291.22,-2965.27 4289.42,-2966.82 4287.55,-2968.31 4285.62,-2969.74 4283.63,-2971.12 4281.6,-2972.42 4279.53,-2973.66 4277.42,-2974.82 4275.27,-2975.9 4273.1,-2976.91 4270.91,-2977.83 4268.69,-2978.67 4266.46,-2979.42 4264.21,-2980.08 4261.95,-2980.65 4259.68,-2981.13 4257.4,-2981.51 4255.12,-2981.8 4252.83,-2981.99 4250.54,-2982.09 4248.25,-2982.09 4245.96,-2981.99 4243.68,-2981.8 4241.4,-2981.51 4239.12,-2981.13 4236.85,-2980.65 4234.59,-2980.08 4232.34,-2979.42 4230.11,-2978.67 4227.89,-2977.83 4225.69,-2976.91 4223.52,-2975.9 4221.38,-2974.82 4219.27,-2973.66 4217.19,-2972.42 4215.16,-2971.12 4213.18,-2969.74 4211.25,-2968.31 4209.38,-2966.82 4207.58,-2965.27 4205.85,-2963.67 4204.2,-2962.03 4202.64,-2960.34 4201.18,-2958.62 4199.82,-2956.86 4198.57,-2955.08 4197.44,-2953.28 4196.43,-2951.45 4195.56,-2949.62 4194.83,-2947.78 4194.25,-2945.93 4193.82,-2944.09 4193.55,-2942.25 4193.44,-2940.43 4193.51,-2938.62 4193.74,-2936.84 4194.16,-2935.09 4194.76,-2933.36 4195.53,-2931.68 4196.49,-2930.03 4197.64,-2928.44 4198.97,-2926.89 4200.47,-2925.4 4202.16,-2923.96 4204.02,-2922.59 4206.05,-2921.29 4208.25,-2920.05 4210.6,-2918.89 4213.11,-2917.8 4215.76,-2916.8 4218.54,-2915.88 4221.44,-2915.04 4224.45,-2914.29 4227.57,-2913.63 4230.77,-2913.06 4234.06,-2912.58 4237.4,-2912.2 4240.79,-2911.91 4244.22,-2911.71 4247.67,-2911.62 4251.13,-2911.62 4254.58,-2911.71"/>
<text text-anchor="start" x="4220.23" y="-2956.65" font-family="Times,serif" font-size="14.00">C0043840</text>
<text text-anchor="start" x="4230.34" y="-2942.65" font-family="Times,serif" font-size="14.00">DOPG</text>
<text text-anchor="start" x="4233.45" y="-2928.65" font-family="Times,serif" font-size="14.00">83:83</text>
</g>
<!-- id_27236097_DOT_9&#45;&#45;id_27236097_DOT_13 -->
<g id="edge7" class="edge">
<title>id_27236097_DOT_9&#45;&#45;id_27236097_DOT_13</title>
<path fill="none" stroke="black" d="M3998.05,-2713.45C4050.87,-2762.5 4161.15,-2864.91 4216.39,-2916.2"/>
<text text-anchor="middle" x="4080.97" y="-2817.63" font-family="Times,serif" font-size="14.00">0.003767</text>
</g>
<!-- id_27236097_DOT_10 -->
<g id="node10" class="node">
<title>id_27236097_DOT_10</title>
<polygon fill="cadetblue" stroke="cadetblue" points="4450.35,-0.23 4455.96,-0.42 4461.51,-0.71 4466.98,-1.09 4472.35,-1.57 4477.59,-2.14 4482.69,-2.8 4487.62,-3.55 4492.37,-4.39 4496.92,-5.31 4501.25,-6.32 4505.35,-7.4 4509.2,-8.57 4512.79,-9.8 4516.11,-11.1 4519.16,-12.48 4521.92,-13.91 4524.38,-15.4 4526.56,-16.95 4528.43,-18.55 4530,-20.19 4531.27,-21.88 4532.25,-23.6 4532.93,-25.36 4533.32,-27.14 4533.42,-28.94 4533.25,-30.77 4532.81,-32.6 4532.1,-34.44 4531.15,-36.29 4529.95,-38.13 4528.53,-39.97 4526.88,-41.79 4525.03,-43.6 4522.99,-45.38 4520.76,-47.13 4518.37,-48.86 4515.82,-50.54 4513.13,-52.19 4510.3,-53.78 4507.35,-55.33 4504.29,-56.82 4501.14,-58.26 4497.89,-59.63 4494.57,-60.94 4491.17,-62.17 4487.72,-63.33 4484.21,-64.42 4480.66,-65.42 4477.07,-66.34 4473.44,-67.18 4469.79,-67.93 4466.11,-68.59 4462.41,-69.16 4458.7,-69.64 4454.97,-70.02 4451.24,-70.31 4447.5,-70.51 4443.75,-70.6 4440.01,-70.6 4436.27,-70.51 4432.53,-70.31 4428.79,-70.02 4425.07,-69.64 4421.35,-69.16 4417.66,-68.59 4413.98,-67.93 4410.32,-67.18 4406.7,-66.34 4403.1,-65.42 4399.55,-64.42 4396.04,-63.33 4392.59,-62.17 4389.2,-60.94 4385.87,-59.63 4382.63,-58.26 4379.47,-56.82 4376.41,-55.33 4373.47,-53.78 4370.64,-52.19 4367.94,-50.54 4365.39,-48.86 4363,-47.13 4360.77,-45.38 4358.73,-43.6 4356.88,-41.79 4355.24,-39.97 4353.81,-38.13 4352.62,-36.29 4351.66,-34.44 4350.96,-32.6 4350.52,-30.77 4350.34,-28.94 4350.45,-27.14 4350.84,-25.36 4351.52,-23.6 4352.49,-21.88 4353.76,-20.19 4355.34,-18.55 4357.21,-16.95 4359.38,-15.4 4361.85,-13.91 4364.61,-12.48 4367.65,-11.1 4370.98,-9.8 4374.57,-8.57 4378.42,-7.4 4382.52,-6.32 4386.85,-5.31 4391.39,-4.39 4396.14,-3.55 4401.08,-2.8 4406.17,-2.14 4411.42,-1.57 4416.78,-1.09 4422.25,-0.71 4427.8,-0.42 4433.41,-0.23 4439.05,-0.13 4444.71,-0.13 4450.35,-0.23"/>
<text text-anchor="start" x="4412.71" y="-45.17" font-family="Times,serif" font-size="14.00">C0003075</text>
<text text-anchor="start" x="4388.95" y="-31.17" font-family="Times,serif" font-size="14.00">negatively charged</text>
<text text-anchor="start" x="4425.94" y="-17.17" font-family="Times,serif" font-size="14.00">67:68</text>
</g>
<!-- id_27236097_DOT_18 -->
<g id="node18" class="node">
<title>id_27236097_DOT_18</title>
<polygon fill="cornflowerblue" stroke="cornflowerblue" points="4298.09,-332.79 4303.64,-332.98 4309.13,-333.27 4314.53,-333.65 4319.84,-334.13 4325.02,-334.7 4330.06,-335.36 4334.94,-336.11 4339.64,-336.95 4344.13,-337.87 4348.41,-338.88 4352.47,-339.96 4356.27,-341.13 4359.83,-342.36 4363.11,-343.67 4366.12,-345.04 4368.85,-346.47 4371.29,-347.96 4373.44,-349.51 4375.29,-351.11 4376.84,-352.75 4378.1,-354.44 4379.06,-356.16 4379.74,-357.92 4380.12,-359.7 4380.23,-361.5 4380.05,-363.33 4379.62,-365.16 4378.92,-367.01 4377.98,-368.85 4376.79,-370.69 4375.39,-372.53 4373.76,-374.35 4371.93,-376.16 4369.91,-377.94 4367.71,-379.69 4365.34,-381.42 4362.82,-383.1 4360.16,-384.75 4357.36,-386.34 4354.45,-387.89 4351.42,-389.39 4348.3,-390.82 4345.1,-392.19 4341.81,-393.5 4338.45,-394.73 4335.04,-395.89 4331.57,-396.98 4328.06,-397.98 4324.51,-398.9 4320.92,-399.74 4317.31,-400.49 4313.67,-401.15 4310.02,-401.72 4306.34,-402.2 4302.66,-402.59 4298.97,-402.87 4295.27,-403.07 4291.57,-403.16 4287.87,-403.16 4284.17,-403.07 4280.47,-402.87 4276.78,-402.59 4273.09,-402.2 4269.42,-401.72 4265.77,-401.15 4262.13,-400.49 4258.52,-399.74 4254.93,-398.9 4251.38,-397.98 4247.87,-396.98 4244.4,-395.89 4240.98,-394.73 4237.63,-393.5 4234.34,-392.19 4231.13,-390.82 4228.01,-389.39 4224.99,-387.89 4222.08,-386.34 4219.28,-384.75 4216.62,-383.1 4214.09,-381.42 4211.73,-379.69 4209.53,-377.94 4207.51,-376.16 4205.68,-374.35 4204.05,-372.53 4202.64,-370.69 4201.46,-368.85 4200.52,-367.01 4199.82,-365.16 4199.38,-363.33 4199.21,-361.5 4199.32,-359.7 4199.7,-357.92 4200.37,-356.16 4201.34,-354.44 4202.59,-352.75 4204.15,-351.11 4206,-349.51 4208.15,-347.96 4210.59,-346.47 4213.32,-345.04 4216.33,-343.67 4219.61,-342.36 4223.16,-341.13 4226.97,-339.96 4231.02,-338.88 4235.3,-337.87 4239.8,-336.95 4244.5,-336.11 4249.37,-335.36 4254.41,-334.7 4259.6,-334.13 4264.9,-333.65 4270.31,-333.27 4275.8,-332.98 4281.34,-332.79 4286.92,-332.69 4292.51,-332.69 4298.09,-332.79"/>
<text text-anchor="start" x="4260.55" y="-377.73" font-family="Times,serif" font-size="14.00">C3812213</text>
<text text-anchor="start" x="4237.63" y="-363.73" font-family="Times,serif" font-size="14.00">fetal bovine serum</text>
<text text-anchor="start" x="4266.77" y="-349.73" font-family="Times,serif" font-size="14.00">129:131</text>
</g>
<!-- id_27236097_DOT_10&#45;&#45;id_27236097_DOT_18 -->
<g id="edge20" class="edge">
<title>id_27236097_DOT_10&#45;&#45;id_27236097_DOT_18</title>
<path fill="none" stroke="black" stroke-dasharray="1,5" d="M4426.03,-70.02C4396.88,-133.73 4335.06,-268.83 4305.77,-332.86"/>
<text text-anchor="middle" x="4339.65" y="-204.24" font-family="Times,serif" font-size="14.00">0.829480</text>
</g>
<!-- id_27236097_DOT_11&#45;&#45;id_27236097_DOT_18 -->
<g id="edge21" class="edge">
<title>id_27236097_DOT_11&#45;&#45;id_27236097_DOT_18</title>
<path fill="none" stroke="black" stroke-dasharray="1,5" d="M4152.87,-670.04C4182.12,-605.46 4244.9,-466.86 4274.14,-402.31"/>
<text text-anchor="middle" x="4187.25" y="-538.98" font-family="Times,serif" font-size="14.00">0.772706</text>
</g>
<!-- id_27236097_DOT_12 -->
<g id="node12" class="node">
<title>id_27236097_DOT_12</title>
<polygon fill="coral" stroke="coral" points="3258.15,-1353.88 3261.71,-1354.07 3265.23,-1354.36 3268.7,-1354.74 3272.11,-1355.22 3275.44,-1355.79 3278.67,-1356.45 3281.8,-1357.2 3284.82,-1358.04 3287.7,-1358.96 3290.45,-1359.97 3293.05,-1361.05 3295.5,-1362.21 3297.78,-1363.45 3299.89,-1364.75 3301.82,-1366.12 3303.57,-1367.56 3305.14,-1369.05 3306.51,-1370.6 3307.7,-1372.2 3308.7,-1373.84 3309.51,-1375.53 3310.13,-1377.25 3310.56,-1379.01 3310.8,-1380.79 3310.87,-1382.59 3310.76,-1384.42 3310.48,-1386.25 3310.03,-1388.09 3309.43,-1389.94 3308.67,-1391.78 3307.76,-1393.62 3306.72,-1395.44 3305.55,-1397.24 3304.25,-1399.03 3302.84,-1400.78 3301.32,-1402.5 3299.7,-1404.19 3297.99,-1405.83 3296.19,-1407.43 3294.32,-1408.98 3292.38,-1410.47 3290.38,-1411.91 3288.32,-1413.28 3286.21,-1414.58 3284.06,-1415.82 3281.86,-1416.98 3279.64,-1418.06 3277.38,-1419.07 3275.1,-1419.99 3272.8,-1420.83 3270.48,-1421.58 3268.15,-1422.24 3265.8,-1422.81 3263.44,-1423.29 3261.08,-1423.67 3258.71,-1423.96 3256.34,-1424.15 3253.96,-1424.25 3251.58,-1424.25 3249.21,-1424.15 3246.83,-1423.96 3244.46,-1423.67 3242.1,-1423.29 3239.74,-1422.81 3237.4,-1422.24 3235.06,-1421.58 3232.74,-1420.83 3230.44,-1419.99 3228.16,-1419.07 3225.9,-1418.06 3223.68,-1416.98 3221.49,-1415.82 3219.33,-1414.58 3217.22,-1413.28 3215.16,-1411.91 3213.16,-1410.47 3211.22,-1408.98 3209.35,-1407.43 3207.55,-1405.83 3205.84,-1404.19 3204.22,-1402.5 3202.7,-1400.78 3201.29,-1399.03 3200,-1397.24 3198.82,-1395.44 3197.78,-1393.62 3196.87,-1391.78 3196.11,-1389.94 3195.51,-1388.09 3195.06,-1386.25 3194.78,-1384.42 3194.67,-1382.59 3194.74,-1380.79 3194.98,-1379.01 3195.42,-1377.25 3196.03,-1375.53 3196.84,-1373.84 3197.84,-1372.2 3199.03,-1370.6 3200.41,-1369.05 3201.97,-1367.56 3203.72,-1366.12 3205.66,-1364.75 3207.77,-1363.45 3210.05,-1362.21 3212.49,-1361.05 3215.09,-1359.97 3217.84,-1358.96 3220.73,-1358.04 3223.74,-1357.2 3226.87,-1356.45 3230.11,-1355.79 3233.43,-1355.22 3236.84,-1354.74 3240.31,-1354.36 3243.84,-1354.07 3247.39,-1353.88 3250.98,-1353.78 3254.57,-1353.78 3258.15,-1353.88"/>
<text text-anchor="start" x="3223.6" y="-1398.82" font-family="Times,serif" font-size="14.00">C0008377</text>
<text text-anchor="start" x="3222.06" y="-1384.82" font-family="Times,serif" font-size="14.00">cholesterol</text>
<text text-anchor="start" x="3236.83" y="-1370.82" font-family="Times,serif" font-size="14.00">81:81</text>
</g>
<!-- id_27236097_DOT_12&#45;&#45;id_27236097_DOT_16 -->
<g id="edge8" class="edge">
<title>id_27236097_DOT_12&#45;&#45;id_27236097_DOT_16</title>
<path fill="none" stroke="black" d="M3279.27,-1418.53C3329.05,-1473.96 3436.15,-1593.21 3487.69,-1650.6"/>
<text text-anchor="middle" x="3357.23" y="-1537.36" font-family="Times,serif" font-size="14.00">0.003347</text>
</g>
<!-- id_27236097_DOT_21 -->
<g id="node21" class="node">
<title>id_27236097_DOT_21</title>
<polygon fill="brown" stroke="brown" points="4536.75,-3157.73 4540.18,-3157.92 4543.57,-3158.21 4546.92,-3158.59 4550.2,-3159.07 4553.4,-3159.64 4556.52,-3160.3 4559.53,-3161.05 4562.44,-3161.89 4565.22,-3162.81 4567.86,-3163.82 4570.37,-3164.9 4572.72,-3166.06 4574.92,-3167.3 4576.95,-3168.6 4578.81,-3169.97 4580.5,-3171.41 4582.01,-3172.9 4583.33,-3174.45 4584.48,-3176.05 4585.44,-3177.69 4586.22,-3179.38 4586.81,-3181.1 4587.23,-3182.86 4587.47,-3184.64 4587.53,-3186.44 4587.42,-3188.27 4587.15,-3190.1 4586.72,-3191.94 4586.14,-3193.79 4585.41,-3195.63 4584.54,-3197.47 4583.53,-3199.29 4582.4,-3201.09 4581.15,-3202.88 4579.79,-3204.63 4578.33,-3206.35 4576.77,-3208.04 4575.12,-3209.68 4573.4,-3211.28 4571.59,-3212.83 4569.72,-3214.32 4567.79,-3215.76 4565.81,-3217.13 4563.78,-3218.43 4561.71,-3219.67 4559.59,-3220.83 4557.45,-3221.91 4555.28,-3222.92 4553.08,-3223.84 4550.87,-3224.68 4548.63,-3225.43 4546.38,-3226.09 4544.12,-3226.66 4541.85,-3227.14 4539.58,-3227.52 4537.29,-3227.81 4535.01,-3228 4532.72,-3228.1 4530.43,-3228.1 4528.14,-3228 4525.85,-3227.81 4523.57,-3227.52 4521.3,-3227.14 4519.03,-3226.66 4516.77,-3226.09 4514.52,-3225.43 4512.28,-3224.68 4510.07,-3223.84 4507.87,-3222.92 4505.7,-3221.91 4503.55,-3220.83 4501.44,-3219.67 4499.37,-3218.43 4497.34,-3217.13 4495.35,-3215.76 4493.42,-3214.32 4491.56,-3212.83 4489.75,-3211.28 4488.02,-3209.68 4486.38,-3208.04 4484.82,-3206.35 4483.35,-3204.63 4481.99,-3202.88 4480.75,-3201.09 4479.61,-3199.29 4478.61,-3197.47 4477.74,-3195.63 4477.01,-3193.79 4476.42,-3191.94 4475.99,-3190.1 4475.72,-3188.27 4475.62,-3186.44 4475.68,-3184.64 4475.92,-3182.86 4476.34,-3181.1 4476.93,-3179.38 4477.71,-3177.69 4478.67,-3176.05 4479.81,-3174.45 4481.14,-3172.9 4482.65,-3171.41 4484.34,-3169.97 4486.2,-3168.6 4488.23,-3167.3 4490.43,-3166.06 4492.78,-3164.9 4495.29,-3163.82 4497.93,-3162.81 4500.71,-3161.89 4503.61,-3161.05 4506.63,-3160.3 4509.75,-3159.64 4512.95,-3159.07 4516.23,-3158.59 4519.58,-3158.21 4522.97,-3157.92 4526.4,-3157.73 4529.85,-3157.63 4533.3,-3157.63 4536.75,-3157.73"/>
<text text-anchor="start" x="4502.41" y="-3202.67" font-family="Times,serif" font-size="14.00">C0043840</text>
<text text-anchor="start" x="4512.52" y="-3188.67" font-family="Times,serif" font-size="14.00">DOPG</text>
<text text-anchor="start" x="4508.63" y="-3174.67" font-family="Times,serif" font-size="14.00">147:147</text>
</g>
<!-- id_27236097_DOT_13&#45;&#45;id_27236097_DOT_21 -->
<g id="edge9" class="edge">
<title>id_27236097_DOT_13&#45;&#45;id_27236097_DOT_21</title>
<path fill="none" stroke="black" d="M4280.13,-2973.65C4333.13,-3019.85 4441.34,-3114.2 4496.93,-3162.66"/>
<text text-anchor="middle" x="4362.28" y="-3070.95" font-family="Times,serif" font-size="14.00">0.019332</text>
</g>
<!-- id_27236097_DOT_14&#45;&#45;id_27236097_DOT_22 -->
<g id="edge10" class="edge">
<title>id_27236097_DOT_14&#45;&#45;id_27236097_DOT_22</title>
<path fill="none" stroke="black" d="M444.21,-2710.37C511.73,-2751.61 654.5,-2838.84 726.08,-2882.56"/>
<text text-anchor="middle" x="558.9" y="-2799.27" font-family="Times,serif" font-size="14.00">0.006067</text>
</g>
<!-- id_27236097_DOT_15 -->
<g id="node15" class="node">
<title>id_27236097_DOT_15</title>
<polygon fill="bisque" stroke="bisque" points="1894.41,-2511.76 1900.64,-2511.96 1906.81,-2512.25 1912.89,-2512.63 1918.86,-2513.11 1924.69,-2513.68 1930.36,-2514.34 1935.84,-2515.09 1941.12,-2515.93 1946.18,-2516.85 1950.99,-2517.85 1955.55,-2518.94 1959.83,-2520.1 1963.82,-2521.34 1967.52,-2522.64 1970.9,-2524.01 1973.97,-2525.45 1976.72,-2526.94 1979.13,-2528.49 1981.21,-2530.08 1982.96,-2531.73 1984.38,-2533.41 1985.46,-2535.14 1986.21,-2536.89 1986.65,-2538.67 1986.76,-2540.48 1986.57,-2542.3 1986.08,-2544.14 1985.3,-2545.98 1984.24,-2547.83 1982.91,-2549.67 1981.32,-2551.5 1979.49,-2553.33 1977.44,-2555.13 1975.17,-2556.91 1972.69,-2558.67 1970.03,-2560.39 1967.19,-2562.08 1964.2,-2563.72 1961.05,-2565.32 1957.78,-2566.87 1954.38,-2568.36 1950.87,-2569.79 1947.26,-2571.17 1943.56,-2572.47 1939.79,-2573.71 1935.95,-2574.87 1932.05,-2575.95 1928.1,-2576.96 1924.11,-2577.88 1920.08,-2578.72 1916.01,-2579.47 1911.92,-2580.13 1907.81,-2580.7 1903.68,-2581.18 1899.54,-2581.56 1895.39,-2581.85 1891.23,-2582.04 1887.07,-2582.14 1882.91,-2582.14 1878.74,-2582.04 1874.59,-2581.85 1870.43,-2581.56 1866.29,-2581.18 1862.16,-2580.7 1858.05,-2580.13 1853.96,-2579.47 1849.9,-2578.72 1845.87,-2577.88 1841.87,-2576.96 1837.92,-2575.95 1834.02,-2574.87 1830.18,-2573.71 1826.41,-2572.47 1822.72,-2571.17 1819.11,-2569.79 1815.6,-2568.36 1812.2,-2566.87 1808.92,-2565.32 1805.78,-2563.72 1802.78,-2562.08 1799.95,-2560.39 1797.29,-2558.67 1794.81,-2556.91 1792.54,-2555.13 1790.48,-2553.33 1788.66,-2551.5 1787.07,-2549.67 1785.74,-2547.83 1784.68,-2545.98 1783.9,-2544.14 1783.41,-2542.3 1783.21,-2540.48 1783.33,-2538.67 1783.76,-2536.89 1784.52,-2535.14 1785.6,-2533.41 1787.02,-2531.73 1788.76,-2530.08 1790.85,-2528.49 1793.26,-2526.94 1796,-2525.45 1799.07,-2524.01 1802.46,-2522.64 1806.15,-2521.34 1810.15,-2520.1 1814.43,-2518.94 1818.98,-2517.85 1823.8,-2516.85 1828.86,-2515.93 1834.14,-2515.09 1839.62,-2514.34 1845.29,-2513.68 1851.12,-2513.11 1857.08,-2512.63 1863.16,-2512.25 1869.33,-2511.96 1875.57,-2511.76 1881.84,-2511.67 1888.13,-2511.67 1894.41,-2511.76"/>
<text text-anchor="start" x="1855.82" y="-2556.7" font-family="Times,serif" font-size="14.00">C0600500</text>
<text text-anchor="start" x="1825.5" y="-2542.7" font-family="Times,serif" font-size="14.00">Peptide Nucleic Acid</text>
<text text-anchor="start" x="1869.04" y="-2528.7" font-family="Times,serif" font-size="14.00">96:98</text>
</g>
<!-- id_27236097_DOT_17 -->
<g id="node17" class="node">
<title>id_27236097_DOT_17</title>
<polygon fill="bisque" stroke="bisque" points="2263.39,-2415.95 2270.13,-2416.15 2276.81,-2416.43 2283.38,-2416.82 2289.83,-2417.3 2296.14,-2417.87 2302.27,-2418.53 2308.2,-2419.28 2313.9,-2420.12 2319.37,-2421.04 2324.58,-2422.04 2329.5,-2423.13 2334.13,-2424.29 2338.45,-2425.52 2342.45,-2426.83 2346.11,-2428.2 2349.43,-2429.63 2352.39,-2431.13 2355,-2432.68 2357.25,-2434.27 2359.15,-2435.92 2360.68,-2437.6 2361.85,-2439.33 2362.66,-2441.08 2363.13,-2442.86 2363.26,-2444.67 2363.05,-2446.49 2362.52,-2448.33 2361.67,-2450.17 2360.52,-2452.01 2359.09,-2453.86 2357.37,-2455.69 2355.4,-2457.52 2353.17,-2459.32 2350.72,-2461.1 2348.04,-2462.86 2345.16,-2464.58 2342.1,-2466.27 2338.86,-2467.91 2335.46,-2469.51 2331.91,-2471.06 2328.24,-2472.55 2324.44,-2473.98 2320.54,-2475.35 2316.55,-2476.66 2312.47,-2477.89 2308.31,-2479.06 2304.1,-2480.14 2299.83,-2481.15 2295.51,-2482.07 2291.15,-2482.91 2286.75,-2483.66 2282.33,-2484.32 2277.89,-2484.89 2273.42,-2485.37 2268.94,-2485.75 2264.46,-2486.04 2259.96,-2486.23 2255.46,-2486.33 2250.96,-2486.33 2246.46,-2486.23 2241.96,-2486.04 2237.47,-2485.75 2232.99,-2485.37 2228.53,-2484.89 2224.08,-2484.32 2219.66,-2483.66 2215.27,-2482.91 2210.91,-2482.07 2206.59,-2481.15 2202.32,-2480.14 2198.1,-2479.06 2193.95,-2477.89 2189.87,-2476.66 2185.87,-2475.35 2181.97,-2473.98 2178.18,-2472.55 2174.5,-2471.06 2170.96,-2469.51 2167.56,-2467.91 2164.32,-2466.27 2161.25,-2464.58 2158.37,-2462.86 2155.7,-2461.1 2153.24,-2459.32 2151.02,-2457.52 2149.04,-2455.69 2147.33,-2453.86 2145.89,-2452.01 2144.74,-2450.17 2143.9,-2448.33 2143.36,-2446.49 2143.16,-2444.67 2143.28,-2442.86 2143.75,-2441.08 2144.57,-2439.33 2145.74,-2437.6 2147.27,-2435.92 2149.16,-2434.27 2151.41,-2432.68 2154.02,-2431.13 2156.99,-2429.63 2160.3,-2428.2 2163.97,-2426.83 2167.96,-2425.52 2172.28,-2424.29 2176.91,-2423.13 2181.84,-2422.04 2187.04,-2421.04 2192.51,-2420.12 2198.22,-2419.28 2204.15,-2418.53 2210.28,-2417.87 2216.58,-2417.3 2223.03,-2416.82 2229.61,-2416.43 2236.28,-2416.15 2243.02,-2415.95 2249.81,-2415.86 2256.61,-2415.86 2263.39,-2415.95"/>
<text text-anchor="start" x="2224.04" y="-2460.89" font-family="Times,serif" font-size="14.00">C0600500</text>
<text text-anchor="start" x="2187.99" y="-2446.89" font-family="Times,serif" font-size="14.00">Peptide Nucleic Acid &#39;s</text>
<text text-anchor="start" x="2230.52" y="-2432.89" font-family="Times,serif" font-size="14.00">118:121</text>
</g>
<!-- id_27236097_DOT_15&#45;&#45;id_27236097_DOT_17 -->
<g id="edge11" class="edge">
<title>id_27236097_DOT_15&#45;&#45;id_27236097_DOT_17</title>
<path fill="none" stroke="black" d="M1971.78,-2524.32C2033.44,-2508.27 2115.54,-2486.91 2175.14,-2471.41"/>
<text text-anchor="middle" x="2047.21" y="-2500.66" font-family="Times,serif" font-size="14.00">0.010866</text>
</g>
<!-- id_27236097_DOT_15&#45;&#45;id_27236097_DOT_25 -->
<g id="edge22" class="edge">
<title>id_27236097_DOT_15&#45;&#45;id_27236097_DOT_25</title>
<path fill="none" stroke="black" stroke-dasharray="1,5" d="M1802.96,-2562.47C1730.75,-2576.18 1627.48,-2595.78 1563.95,-2607.84"/>
<text text-anchor="middle" x="1657.2" y="-2587.95" font-family="Times,serif" font-size="14.00">0.503836</text>
</g>
<!-- id_27236097_DOT_16&#45;&#45;id_27236097_DOT_23 -->
<g id="edge12" class="edge">
<title>id_27236097_DOT_16&#45;&#45;id_27236097_DOT_23</title>
<path fill="none" stroke="black" d="M3546.68,-1651.18C3601.54,-1593.65 3717.02,-1472.56 3770.13,-1416.87"/>
<text text-anchor="middle" x="3632.15" y="-1536.82" font-family="Times,serif" font-size="14.00">0.002971</text>
</g>
<!-- id_27236097_DOT_24 -->
<g id="node24" class="node">
<title>id_27236097_DOT_24</title>
<polygon fill="darkgoldenrod" stroke="darkgoldenrod" points="2630.14,-2308.29 2636.07,-2308.48 2641.94,-2308.77 2647.73,-2309.16 2653.41,-2309.63 2658.95,-2310.2 2664.34,-2310.87 2669.56,-2311.62 2674.58,-2312.45 2679.4,-2313.38 2683.98,-2314.38 2688.31,-2315.47 2692.38,-2316.63 2696.18,-2317.86 2699.7,-2319.17 2702.92,-2320.54 2705.84,-2321.97 2708.45,-2323.47 2710.75,-2325.01 2712.73,-2326.61 2714.39,-2328.26 2715.74,-2329.94 2716.77,-2331.66 2717.49,-2333.42 2717.9,-2335.2 2718.01,-2337.01 2717.83,-2338.83 2717.36,-2340.66 2716.61,-2342.51 2715.6,-2344.35 2714.34,-2346.2 2712.83,-2348.03 2711.09,-2349.85 2709.14,-2351.66 2706.97,-2353.44 2704.62,-2355.2 2702.09,-2356.92 2699.39,-2358.6 2696.54,-2360.25 2693.55,-2361.85 2690.43,-2363.39 2687.2,-2364.89 2683.86,-2366.32 2680.42,-2367.69 2676.91,-2369 2673.32,-2370.23 2669.67,-2371.39 2665.96,-2372.48 2662.2,-2373.48 2658.4,-2374.41 2654.56,-2375.24 2650.69,-2375.99 2646.8,-2376.66 2642.89,-2377.23 2638.97,-2377.7 2635.03,-2378.09 2631.08,-2378.38 2627.12,-2378.57 2623.16,-2378.67 2619.2,-2378.67 2615.24,-2378.57 2611.28,-2378.38 2607.33,-2378.09 2603.39,-2377.7 2599.46,-2377.23 2595.55,-2376.66 2591.66,-2375.99 2587.8,-2375.24 2583.96,-2374.41 2580.16,-2373.48 2576.4,-2372.48 2572.69,-2371.39 2569.04,-2370.23 2565.45,-2369 2561.93,-2367.69 2558.5,-2366.32 2555.16,-2364.89 2551.93,-2363.39 2548.81,-2361.85 2545.82,-2360.25 2542.97,-2358.6 2540.27,-2356.92 2537.74,-2355.2 2535.38,-2353.44 2533.22,-2351.66 2531.27,-2349.85 2529.53,-2348.03 2528.02,-2346.2 2526.75,-2344.35 2525.74,-2342.51 2525,-2340.66 2524.53,-2338.83 2524.35,-2337.01 2524.46,-2335.2 2524.87,-2333.42 2525.59,-2331.66 2526.62,-2329.94 2527.97,-2328.26 2529.63,-2326.61 2531.61,-2325.01 2533.91,-2323.47 2536.52,-2321.97 2539.44,-2320.54 2542.66,-2319.17 2546.17,-2317.86 2549.97,-2316.63 2554.05,-2315.47 2558.38,-2314.38 2562.96,-2313.38 2567.77,-2312.45 2572.8,-2311.62 2578.01,-2310.87 2583.41,-2310.2 2588.95,-2309.63 2594.63,-2309.16 2600.41,-2308.77 2606.29,-2308.48 2612.22,-2308.29 2618.19,-2308.19 2624.17,-2308.19 2630.14,-2308.29"/>
<text text-anchor="start" x="2592.01" y="-2353.23" font-family="Times,serif" font-size="14.00">C0524527</text>
<text text-anchor="start" x="2564.99" y="-2339.23" font-family="Times,serif" font-size="14.00">optimal formulation</text>
<text text-anchor="start" x="2598.23" y="-2325.23" font-family="Times,serif" font-size="14.00">161:162</text>
</g>
<!-- id_27236097_DOT_17&#45;&#45;id_27236097_DOT_24 -->
<g id="edge23" class="edge">
<title>id_27236097_DOT_17&#45;&#45;id_27236097_DOT_24</title>
<path fill="none" stroke="black" stroke-dasharray="1,5" d="M2339.48,-2425.85C2404.27,-2406.89 2491.83,-2381.27 2552.05,-2363.66"/>
<text text-anchor="middle" x="2419.51" y="-2397.55" font-family="Times,serif" font-size="14.00">0.801872</text>
</g>
<!-- id_27236097_DOT_19 -->
<g id="node19" class="node">
<title>id_27236097_DOT_19</title>
<polygon fill="aquamarine" stroke="aquamarine" points="936.75,-3240.94 940.18,-3241.13 943.57,-3241.42 946.91,-3241.81 950.19,-3242.28 953.4,-3242.85 956.52,-3243.52 959.53,-3244.27 962.43,-3245.1 965.21,-3246.03 967.86,-3247.03 970.36,-3248.12 972.72,-3249.28 974.92,-3250.51 976.95,-3251.82 978.81,-3253.19 980.49,-3254.62 982,-3256.12 983.33,-3257.66 984.48,-3259.26 985.44,-3260.91 986.21,-3262.59 986.81,-3264.31 987.23,-3266.07 987.46,-3267.85 987.53,-3269.66 987.42,-3271.48 987.15,-3273.31 986.72,-3275.16 986.14,-3277 985.41,-3278.85 984.53,-3280.68 983.53,-3282.5 982.4,-3284.31 981.15,-3286.09 979.79,-3287.85 978.33,-3289.57 976.77,-3291.25 975.12,-3292.9 973.39,-3294.5 971.59,-3296.04 969.72,-3297.54 967.79,-3298.97 965.81,-3300.34 963.78,-3301.65 961.7,-3302.88 959.59,-3304.04 957.45,-3305.13 955.28,-3306.13 953.08,-3307.06 950.86,-3307.89 948.63,-3308.64 946.38,-3309.31 944.12,-3309.88 941.85,-3310.35 939.57,-3310.74 937.29,-3311.03 935,-3311.22 932.72,-3311.32 930.43,-3311.32 928.14,-3311.22 925.85,-3311.03 923.57,-3310.74 921.29,-3310.35 919.02,-3309.88 916.76,-3309.31 914.51,-3308.64 912.28,-3307.89 910.06,-3307.06 907.87,-3306.13 905.7,-3305.13 903.55,-3304.04 901.44,-3302.88 899.37,-3301.65 897.33,-3300.34 895.35,-3298.97 893.42,-3297.54 891.55,-3296.04 889.75,-3294.5 888.02,-3292.9 886.37,-3291.25 884.82,-3289.57 883.35,-3287.85 881.99,-3286.09 880.74,-3284.31 879.61,-3282.5 878.61,-3280.68 877.74,-3278.85 877.01,-3277 876.42,-3275.16 875.99,-3273.31 875.72,-3271.48 875.61,-3269.66 875.68,-3267.85 875.92,-3266.07 876.33,-3264.31 876.93,-3262.59 877.71,-3260.91 878.67,-3259.26 879.81,-3257.66 881.14,-3256.12 882.65,-3254.62 884.33,-3253.19 886.2,-3251.82 888.23,-3250.51 890.42,-3249.28 892.78,-3248.12 895.28,-3247.03 897.93,-3246.03 900.71,-3245.1 903.61,-3244.27 906.63,-3243.52 909.74,-3242.85 912.95,-3242.28 916.23,-3241.81 919.57,-3241.42 922.96,-3241.13 926.39,-3240.94 929.84,-3240.84 933.3,-3240.84 936.75,-3240.94"/>
<text text-anchor="start" x="902.4" y="-3285.88" font-family="Times,serif" font-size="14.00">C0023828</text>
<text text-anchor="start" x="903.96" y="-3271.88" font-family="Times,serif" font-size="14.00">liposomal</text>
<text text-anchor="start" x="908.63" y="-3257.88" font-family="Times,serif" font-size="14.00">134:134</text>
</g>
<!-- id_27236097_DOT_19&#45;&#45;id_27236097_DOT_22 -->
<g id="edge13" class="edge">
<title>id_27236097_DOT_19&#45;&#45;id_27236097_DOT_22</title>
<path fill="none" stroke="black" d="M916.27,-3241.52C885.06,-3171.05 814.44,-3011.59 783.67,-2942.11"/>
<text text-anchor="middle" x="823.72" y="-3094.61" font-family="Times,serif" font-size="14.00">0.002363</text>
</g>
<!-- id_27236097_DOT_20&#45;&#45;id_27236097_DOT_24 -->
<g id="edge24" class="edge">
<title>id_27236097_DOT_20&#45;&#45;id_27236097_DOT_24</title>
<path fill="none" stroke="black" stroke-dasharray="1,5" d="M2949.89,-2241.87C2886.98,-2261.3 2775.42,-2295.77 2699.9,-2319.11"/>
<text text-anchor="middle" x="2798.64" y="-2283.29" font-family="Times,serif" font-size="14.00">0.850903</text>
</g>
</g>
</svg>
