<?xml version="1.0" encoding="UTF-8" standalone="no"?>
<!DOCTYPE svg PUBLIC "-//W3C//DTD SVG 1.1//EN"
 "http://www.w3.org/Graphics/SVG/1.1/DTD/svg11.dtd">
<!-- Generated by graphviz version 2.42.3 (20191010.1750)
 -->
<!-- Title: MST Pages: 1 -->
<svg width="1938pt" height="5198pt"
 viewBox="0.00 0.00 1938.08 5197.99" xmlns="http://www.w3.org/2000/svg" xmlns:xlink="http://www.w3.org/1999/xlink">
<g id="graph0" class="graph" transform="scale(1 1) rotate(0) translate(4 5193.99)">
<title>MST</title>
<polygon fill="white" stroke="transparent" points="-4,4 -4,-5193.99 1934.08,-5193.99 1934.08,4 -4,4"/>
<!-- id_27240257_DOT_1 -->
<g id="node1" class="node">
<title>id_27240257_DOT_1</title>
<polygon fill="aquamarine" stroke="aquamarine" points="1214.8,-3665.1 1220.61,-3665.29 1226.36,-3665.58 1232.02,-3665.97 1237.58,-3666.44 1243.01,-3667.01 1248.29,-3667.68 1253.4,-3668.43 1258.32,-3669.26 1263.03,-3670.19 1267.51,-3671.19 1271.76,-3672.28 1275.74,-3673.44 1279.47,-3674.67 1282.91,-3675.98 1286.06,-3677.35 1288.92,-3678.78 1291.48,-3680.28 1293.72,-3681.82 1295.66,-3683.42 1297.29,-3685.07 1298.61,-3686.75 1299.62,-3688.47 1300.32,-3690.23 1300.73,-3692.01 1300.84,-3693.82 1300.66,-3695.64 1300.2,-3697.48 1299.47,-3699.32 1298.48,-3701.16 1297.24,-3703.01 1295.77,-3704.84 1294.06,-3706.66 1292.15,-3708.47 1290.03,-3710.25 1287.73,-3712.01 1285.25,-3713.73 1282.61,-3715.42 1279.81,-3717.06 1276.89,-3718.66 1273.83,-3720.21 1270.66,-3721.7 1267.4,-3723.13 1264.04,-3724.5 1260.59,-3725.81 1257.08,-3727.04 1253.5,-3728.2 1249.87,-3729.29 1246.19,-3730.29 1242.47,-3731.22 1238.71,-3732.05 1234.93,-3732.81 1231.12,-3733.47 1227.29,-3734.04 1223.44,-3734.51 1219.58,-3734.9 1215.72,-3735.19 1211.84,-3735.38 1207.97,-3735.48 1204.09,-3735.48 1200.21,-3735.38 1196.34,-3735.19 1192.47,-3734.9 1188.61,-3734.51 1184.77,-3734.04 1180.94,-3733.47 1177.13,-3732.81 1173.34,-3732.05 1169.59,-3731.22 1165.86,-3730.29 1162.18,-3729.29 1158.55,-3728.2 1154.97,-3727.04 1151.46,-3725.81 1148.02,-3724.5 1144.66,-3723.13 1141.39,-3721.7 1138.22,-3720.21 1135.17,-3718.66 1132.24,-3717.06 1129.45,-3715.42 1126.81,-3713.73 1124.33,-3712.01 1122.02,-3710.25 1119.91,-3708.47 1117.99,-3706.66 1116.29,-3704.84 1114.81,-3703.01 1113.57,-3701.16 1112.58,-3699.32 1111.85,-3697.48 1111.4,-3695.64 1111.22,-3693.82 1111.33,-3692.01 1111.73,-3690.23 1112.43,-3688.47 1113.44,-3686.75 1114.76,-3685.07 1116.39,-3683.42 1118.33,-3681.82 1120.58,-3680.28 1123.13,-3678.78 1125.99,-3677.35 1129.14,-3675.98 1132.59,-3674.67 1136.31,-3673.44 1140.3,-3672.28 1144.54,-3671.19 1149.03,-3670.19 1153.74,-3669.26 1158.65,-3668.43 1163.76,-3667.68 1169.04,-3667.01 1174.47,-3666.44 1180.03,-3665.97 1185.7,-3665.58 1191.44,-3665.29 1197.25,-3665.1 1203.1,-3665.01 1208.95,-3665.01 1214.8,-3665.1"/>
<text text-anchor="start" x="1176.86" y="-3710.04" font-family="Times,serif" font-size="14.00">C0033684</text>
<text text-anchor="start" x="1151.01" y="-3696.04" font-family="Times,serif" font-size="14.00">fluorescent proteins</text>
<text text-anchor="start" x="1197.08" y="-3682.04" font-family="Times,serif" font-size="14.00">3:4</text>
</g>
<!-- id_27240257_DOT_2 -->
<g id="node2" class="node">
<title>id_27240257_DOT_2</title>
<polygon fill="aquamarine" stroke="aquamarine" points="982.67,-3960.3 988.48,-3960.5 994.23,-3960.78 999.89,-3961.17 1005.45,-3961.65 1010.88,-3962.22 1016.16,-3962.88 1021.27,-3963.63 1026.19,-3964.47 1030.9,-3965.39 1035.38,-3966.39 1039.63,-3967.48 1043.62,-3968.64 1047.34,-3969.87 1050.78,-3971.18 1053.93,-3972.55 1056.79,-3973.98 1059.35,-3975.48 1061.6,-3977.02 1063.54,-3978.62 1065.16,-3980.27 1066.48,-3981.95 1067.49,-3983.68 1068.2,-3985.43 1068.6,-3987.21 1068.71,-3989.02 1068.53,-3990.84 1068.07,-3992.68 1067.34,-3994.52 1066.35,-3996.36 1065.11,-3998.21 1063.64,-4000.04 1061.94,-4001.86 1060.02,-4003.67 1057.9,-4005.45 1055.6,-4007.21 1053.12,-4008.93 1050.48,-4010.62 1047.69,-4012.26 1044.76,-4013.86 1041.7,-4015.41 1038.54,-4016.9 1035.27,-4018.33 1031.91,-4019.7 1028.47,-4021.01 1024.95,-4022.24 1021.37,-4023.4 1017.74,-4024.49 1014.06,-4025.49 1010.34,-4026.42 1006.58,-4027.26 1002.8,-4028.01 998.99,-4028.67 995.16,-4029.24 991.31,-4029.71 987.46,-4030.1 983.59,-4030.39 979.72,-4030.58 975.84,-4030.68 971.96,-4030.68 968.08,-4030.58 964.21,-4030.39 960.34,-4030.1 956.48,-4029.71 952.64,-4029.24 948.81,-4028.67 945,-4028.01 941.21,-4027.26 937.46,-4026.42 933.74,-4025.49 930.06,-4024.49 926.42,-4023.4 922.85,-4022.24 919.33,-4021.01 915.89,-4019.7 912.53,-4018.33 909.26,-4016.9 906.09,-4015.41 903.04,-4013.86 900.11,-4012.26 897.32,-4010.62 894.68,-4008.93 892.2,-4007.21 889.89,-4005.45 887.78,-4003.67 885.86,-4001.86 884.16,-4000.04 882.68,-3998.21 881.45,-3996.36 880.46,-3994.52 879.73,-3992.68 879.27,-3990.84 879.09,-3989.02 879.2,-3987.21 879.6,-3985.43 880.31,-3983.68 881.32,-3981.95 882.63,-3980.27 884.26,-3978.62 886.2,-3977.02 888.45,-3975.48 891.01,-3973.98 893.86,-3972.55 897.02,-3971.18 900.46,-3969.87 904.18,-3968.64 908.17,-3967.48 912.41,-3966.39 916.9,-3965.39 921.61,-3964.47 926.53,-3963.63 931.64,-3962.88 936.91,-3962.22 942.34,-3961.65 947.9,-3961.17 953.57,-3960.78 959.32,-3960.5 965.13,-3960.3 970.97,-3960.21 976.83,-3960.21 982.67,-3960.3"/>
<text text-anchor="start" x="944.73" y="-4005.24" font-family="Times,serif" font-size="14.00">C0033684</text>
<text text-anchor="start" x="918.88" y="-3991.24" font-family="Times,serif" font-size="14.00">fluorescent proteins</text>
<text text-anchor="start" x="964.95" y="-3977.24" font-family="Times,serif" font-size="14.00">8:9</text>
</g>
<!-- id_27240257_DOT_1&#45;&#45;id_27240257_DOT_2 -->
<g id="edge1" class="edge">
<title>id_27240257_DOT_1&#45;&#45;id_27240257_DOT_2</title>
<path fill="none" stroke="black" d="M1179.85,-3733.53C1135.5,-3789.92 1046.05,-3903.68 1001.05,-3960.91"/>
<text text-anchor="middle" x="1064.2" y="-3850.02" font-family="Times,serif" font-size="14.00">0.000327</text>
</g>
<!-- id_27240257_DOT_14 -->
<g id="node14" class="node">
<title>id_27240257_DOT_14</title>
<polygon fill="aquamarine" stroke="aquamarine" points="1497.95,-3389.97 1501.38,-3390.17 1504.77,-3390.46 1508.11,-3390.84 1511.39,-3391.32 1514.6,-3391.89 1517.71,-3392.55 1520.73,-3393.3 1523.63,-3394.14 1526.41,-3395.06 1529.06,-3396.06 1531.56,-3397.15 1533.92,-3398.31 1536.11,-3399.55 1538.15,-3400.85 1540.01,-3402.22 1541.69,-3403.66 1543.2,-3405.15 1544.53,-3406.7 1545.67,-3408.29 1546.64,-3409.94 1547.41,-3411.62 1548.01,-3413.35 1548.42,-3415.1 1548.66,-3416.88 1548.73,-3418.69 1548.62,-3420.51 1548.35,-3422.35 1547.92,-3424.19 1547.34,-3426.04 1546.61,-3427.88 1545.73,-3429.71 1544.73,-3431.54 1543.6,-3433.34 1542.35,-3435.12 1540.99,-3436.88 1539.53,-3438.6 1537.97,-3440.29 1536.32,-3441.93 1534.59,-3443.53 1532.79,-3445.08 1530.92,-3446.57 1528.99,-3448 1527.01,-3449.38 1524.98,-3450.68 1522.9,-3451.92 1520.79,-3453.08 1518.65,-3454.16 1516.47,-3455.17 1514.28,-3456.09 1512.06,-3456.93 1509.83,-3457.68 1507.58,-3458.34 1505.32,-3458.91 1503.05,-3459.39 1500.77,-3459.77 1498.49,-3460.06 1496.2,-3460.25 1493.91,-3460.35 1491.63,-3460.35 1489.34,-3460.25 1487.05,-3460.06 1484.77,-3459.77 1482.49,-3459.39 1480.22,-3458.91 1477.96,-3458.34 1475.71,-3457.68 1473.48,-3456.93 1471.26,-3456.09 1469.07,-3455.17 1466.89,-3454.16 1464.75,-3453.08 1462.64,-3451.92 1460.57,-3450.68 1458.53,-3449.38 1456.55,-3448 1454.62,-3446.57 1452.75,-3445.08 1450.95,-3443.53 1449.22,-3441.93 1447.57,-3440.29 1446.01,-3438.6 1444.55,-3436.88 1443.19,-3435.12 1441.94,-3433.34 1440.81,-3431.54 1439.81,-3429.71 1438.94,-3427.88 1438.2,-3426.04 1437.62,-3424.19 1437.19,-3422.35 1436.92,-3420.51 1436.81,-3418.69 1436.88,-3416.88 1437.12,-3415.1 1437.53,-3413.35 1438.13,-3411.62 1438.91,-3409.94 1439.87,-3408.29 1441.01,-3406.7 1442.34,-3405.15 1443.85,-3403.66 1445.53,-3402.22 1447.39,-3400.85 1449.43,-3399.55 1451.62,-3398.31 1453.98,-3397.15 1456.48,-3396.06 1459.13,-3395.06 1461.91,-3394.14 1464.81,-3393.3 1467.83,-3392.55 1470.94,-3391.89 1474.15,-3391.32 1477.43,-3390.84 1480.77,-3390.46 1484.16,-3390.17 1487.59,-3389.97 1491.04,-3389.88 1494.5,-3389.88 1497.95,-3389.97"/>
<text text-anchor="start" x="1463.6" y="-3434.91" font-family="Times,serif" font-size="14.00">C0033684</text>
<text text-anchor="start" x="1484.98" y="-3420.91" font-family="Times,serif" font-size="14.00">FP</text>
<text text-anchor="start" x="1476.83" y="-3406.91" font-family="Times,serif" font-size="14.00">92:92</text>
</g>
<!-- id_27240257_DOT_1&#45;&#45;id_27240257_DOT_14 -->
<g id="edge2" class="edge">
<title>id_27240257_DOT_1&#45;&#45;id_27240257_DOT_14</title>
<path fill="none" stroke="black" d="M1240.9,-3666.78C1298.06,-3611.93 1410.65,-3503.91 1463.75,-3452.96"/>
<text text-anchor="middle" x="1326.07" y="-3562.67" font-family="Times,serif" font-size="14.00">0.046251</text>
</g>
<!-- id_27240257_DOT_6 -->
<g id="node6" class="node">
<title>id_27240257_DOT_6</title>
<polygon fill="aquamarine" stroke="aquamarine" points="770.92,-4261.57 776.73,-4261.76 782.48,-4262.05 788.14,-4262.44 793.7,-4262.91 799.13,-4263.49 804.41,-4264.15 809.52,-4264.9 814.44,-4265.73 819.15,-4266.66 823.63,-4267.66 827.88,-4268.75 831.87,-4269.91 835.59,-4271.14 839.03,-4272.45 842.18,-4273.82 845.04,-4275.25 847.6,-4276.75 849.84,-4278.29 851.78,-4279.89 853.41,-4281.54 854.73,-4283.22 855.74,-4284.94 856.44,-4286.7 856.85,-4288.48 856.96,-4290.29 856.78,-4292.11 856.32,-4293.95 855.59,-4295.79 854.6,-4297.63 853.36,-4299.48 851.89,-4301.31 850.18,-4303.13 848.27,-4304.94 846.15,-4306.72 843.85,-4308.48 841.37,-4310.2 838.73,-4311.89 835.93,-4313.53 833.01,-4315.13 829.95,-4316.68 826.79,-4318.17 823.52,-4319.6 820.16,-4320.97 816.71,-4322.28 813.2,-4323.51 809.62,-4324.67 805.99,-4325.76 802.31,-4326.76 798.59,-4327.69 794.83,-4328.52 791.05,-4329.28 787.24,-4329.94 783.41,-4330.51 779.56,-4330.98 775.7,-4331.37 771.84,-4331.66 767.96,-4331.85 764.09,-4331.95 760.21,-4331.95 756.33,-4331.85 752.46,-4331.66 748.59,-4331.37 744.73,-4330.98 740.89,-4330.51 737.06,-4329.94 733.25,-4329.28 729.46,-4328.52 725.71,-4327.69 721.98,-4326.76 718.3,-4325.76 714.67,-4324.67 711.09,-4323.51 707.58,-4322.28 704.14,-4320.97 700.78,-4319.6 697.51,-4318.17 694.34,-4316.68 691.29,-4315.13 688.36,-4313.53 685.57,-4311.89 682.93,-4310.2 680.45,-4308.48 678.14,-4306.72 676.03,-4304.94 674.11,-4303.13 672.41,-4301.31 670.93,-4299.48 669.69,-4297.63 668.7,-4295.79 667.98,-4293.95 667.52,-4292.11 667.34,-4290.29 667.45,-4288.48 667.85,-4286.7 668.55,-4284.94 669.56,-4283.22 670.88,-4281.54 672.51,-4279.89 674.45,-4278.29 676.7,-4276.75 679.25,-4275.25 682.11,-4273.82 685.27,-4272.45 688.71,-4271.14 692.43,-4269.91 696.42,-4268.75 700.66,-4267.66 705.15,-4266.66 709.86,-4265.73 714.77,-4264.9 719.88,-4264.15 725.16,-4263.49 730.59,-4262.91 736.15,-4262.44 741.82,-4262.05 747.56,-4261.76 753.37,-4261.57 759.22,-4261.48 765.08,-4261.48 770.92,-4261.57"/>
<text text-anchor="start" x="732.98" y="-4306.51" font-family="Times,serif" font-size="14.00">C0033684</text>
<text text-anchor="start" x="707.13" y="-4292.51" font-family="Times,serif" font-size="14.00">fluorescent proteins</text>
<text text-anchor="start" x="746.2" y="-4278.51" font-family="Times,serif" font-size="14.00">33:34</text>
</g>
<!-- id_27240257_DOT_2&#45;&#45;id_27240257_DOT_6 -->
<g id="edge3" class="edge">
<title>id_27240257_DOT_2&#45;&#45;id_27240257_DOT_6</title>
<path fill="none" stroke="black" d="M950.22,-4029.12C909.75,-4086.7 827.67,-4203.48 786.65,-4261.86"/>
<text text-anchor="middle" x="842.18" y="-4148.29" font-family="Times,serif" font-size="14.00">0.000545</text>
</g>
<!-- id_27240257_DOT_3 -->
<g id="node3" class="node">
<title>id_27240257_DOT_3</title>
<polygon fill="bisque" stroke="bisque" points="1475.87,-0.23 1480.72,-0.42 1485.52,-0.71 1490.25,-1.09 1494.89,-1.57 1499.42,-2.14 1503.83,-2.8 1508.1,-3.55 1512.2,-4.39 1516.14,-5.31 1519.88,-6.32 1523.43,-7.4 1526.76,-8.57 1529.86,-9.8 1532.74,-11.1 1535.37,-12.48 1537.76,-13.91 1539.89,-15.4 1541.77,-16.95 1543.39,-18.55 1544.75,-20.19 1545.85,-21.88 1546.69,-23.6 1547.28,-25.36 1547.62,-27.14 1547.71,-28.94 1547.56,-30.77 1547.17,-32.6 1546.56,-34.44 1545.74,-36.29 1544.7,-38.13 1543.47,-39.97 1542.05,-41.79 1540.45,-43.6 1538.68,-45.38 1536.76,-47.13 1534.69,-48.86 1532.48,-50.54 1530.15,-52.19 1527.71,-53.78 1525.16,-55.33 1522.51,-56.82 1519.78,-58.26 1516.98,-59.63 1514.1,-60.94 1511.17,-62.17 1508.18,-63.33 1505.15,-64.42 1502.08,-65.42 1498.97,-66.34 1495.83,-67.18 1492.67,-67.93 1489.49,-68.59 1486.3,-69.16 1483.09,-69.64 1479.86,-70.02 1476.64,-70.31 1473.4,-70.51 1470.16,-70.6 1466.92,-70.6 1463.69,-70.51 1460.45,-70.31 1457.22,-70.02 1454,-69.64 1450.79,-69.16 1447.59,-68.59 1444.41,-67.93 1441.25,-67.18 1438.12,-66.34 1435.01,-65.42 1431.94,-64.42 1428.9,-63.33 1425.92,-62.17 1422.98,-60.94 1420.11,-59.63 1417.3,-58.26 1414.57,-56.82 1411.93,-55.33 1409.38,-53.78 1406.93,-52.19 1404.6,-50.54 1402.4,-48.86 1400.33,-47.13 1398.4,-45.38 1396.64,-43.6 1395.04,-41.79 1393.62,-39.97 1392.38,-38.13 1391.35,-36.29 1390.52,-34.44 1389.91,-32.6 1389.53,-30.77 1389.38,-28.94 1389.47,-27.14 1389.81,-25.36 1390.4,-23.6 1391.24,-21.88 1392.34,-20.19 1393.7,-18.55 1395.32,-16.95 1397.2,-15.4 1399.33,-13.91 1401.72,-12.48 1404.35,-11.1 1407.23,-9.8 1410.33,-8.57 1413.66,-7.4 1417.21,-6.32 1420.95,-5.31 1424.88,-4.39 1428.99,-3.55 1433.26,-2.8 1437.66,-2.14 1442.2,-1.57 1446.84,-1.09 1451.57,-0.71 1456.37,-0.42 1461.22,-0.23 1466.1,-0.13 1470.99,-0.13 1475.87,-0.23"/>
<text text-anchor="start" x="1439.38" y="-45.17" font-family="Times,serif" font-size="14.00">C1513384</text>
<text text-anchor="start" x="1424.04" y="-31.17" font-family="Times,serif" font-size="14.00">genetic labeling</text>
<text text-anchor="start" x="1452.86" y="-17.17" font-family="Times,serif" font-size="14.00">11:12</text>
</g>
<!-- id_27240257_DOT_9 -->
<g id="node9" class="node">
<title>id_27240257_DOT_9</title>
<polygon fill="cadetblue" stroke="cadetblue" points="1482.04,-387.14 1485.47,-387.33 1488.87,-387.62 1492.21,-388 1495.49,-388.48 1498.69,-389.05 1501.81,-389.71 1504.83,-390.46 1507.73,-391.3 1510.51,-392.22 1513.16,-393.23 1515.66,-394.31 1518.01,-395.47 1520.21,-396.71 1522.24,-398.01 1524.1,-399.38 1525.79,-400.82 1527.3,-402.31 1528.63,-403.86 1529.77,-405.46 1530.73,-407.1 1531.51,-408.79 1532.11,-410.51 1532.52,-412.26 1532.76,-414.05 1532.82,-415.85 1532.72,-417.67 1532.45,-419.51 1532.02,-421.35 1531.43,-423.2 1530.7,-425.04 1529.83,-426.88 1528.83,-428.7 1527.69,-430.5 1526.45,-432.29 1525.09,-434.04 1523.62,-435.76 1522.06,-437.45 1520.42,-439.09 1518.69,-440.69 1516.89,-442.24 1515.02,-443.73 1513.09,-445.17 1511.1,-446.54 1509.07,-447.84 1507,-449.08 1504.89,-450.24 1502.74,-451.32 1500.57,-452.33 1498.37,-453.25 1496.16,-454.09 1493.92,-454.84 1491.67,-455.5 1489.41,-456.07 1487.15,-456.55 1484.87,-456.93 1482.59,-457.22 1480.3,-457.41 1478.01,-457.51 1475.72,-457.51 1473.43,-457.41 1471.15,-457.22 1468.86,-456.93 1466.59,-456.55 1464.32,-456.07 1462.06,-455.5 1459.81,-454.84 1457.58,-454.09 1455.36,-453.25 1453.16,-452.33 1450.99,-451.32 1448.85,-450.24 1446.74,-449.08 1444.66,-447.84 1442.63,-446.54 1440.65,-445.17 1438.72,-443.73 1436.85,-442.24 1435.05,-440.69 1433.32,-439.09 1431.67,-437.45 1430.11,-435.76 1428.65,-434.04 1427.29,-432.29 1426.04,-430.5 1424.91,-428.7 1423.9,-426.88 1423.03,-425.04 1422.3,-423.2 1421.72,-421.35 1421.29,-419.51 1421.02,-417.67 1420.91,-415.85 1420.97,-414.05 1421.21,-412.26 1421.63,-410.51 1422.22,-408.79 1423,-407.1 1423.96,-405.46 1425.11,-403.86 1426.43,-402.31 1427.94,-400.82 1429.63,-399.38 1431.49,-398.01 1433.52,-396.71 1435.72,-395.47 1438.07,-394.31 1440.58,-393.23 1443.22,-392.22 1446,-391.3 1448.91,-390.46 1451.92,-389.71 1455.04,-389.05 1458.24,-388.48 1461.52,-388 1464.87,-387.62 1468.26,-387.33 1471.69,-387.14 1475.14,-387.04 1478.59,-387.04 1482.04,-387.14"/>
<text text-anchor="start" x="1447.7" y="-432.08" font-family="Times,serif" font-size="14.00">C0220806</text>
<text text-anchor="start" x="1451.6" y="-418.08" font-family="Times,serif" font-size="14.00">chemical</text>
<text text-anchor="start" x="1460.92" y="-404.08" font-family="Times,serif" font-size="14.00">58:58</text>
</g>
<!-- id_27240257_DOT_3&#45;&#45;id_27240257_DOT_9 -->
<g id="edge10" class="edge">
<title>id_27240257_DOT_3&#45;&#45;id_27240257_DOT_9</title>
<path fill="none" stroke="black" stroke-dasharray="1,5" d="M1469.3,-70.73C1470.89,-144.32 1474.52,-313.21 1476.1,-386.86"/>
<text text-anchor="middle" x="1446.45" y="-231.59" font-family="Times,serif" font-size="14.00">0.838227</text>
</g>
<!-- id_27240257_DOT_4 -->
<g id="node4" class="node">
<title>id_27240257_DOT_4</title>
<polygon fill="blue" stroke="blue" points="1513.3,-1521.98 1516.73,-1522.17 1520.12,-1522.46 1523.47,-1522.84 1526.75,-1523.32 1529.95,-1523.89 1533.07,-1524.55 1536.08,-1525.3 1538.98,-1526.14 1541.76,-1527.06 1544.41,-1528.07 1546.92,-1529.15 1549.27,-1530.32 1551.47,-1531.55 1553.5,-1532.86 1555.36,-1534.23 1557.05,-1535.66 1558.55,-1537.15 1559.88,-1538.7 1561.03,-1540.3 1561.99,-1541.94 1562.77,-1543.63 1563.36,-1545.35 1563.78,-1547.11 1564.01,-1548.89 1564.08,-1550.69 1563.97,-1552.52 1563.7,-1554.35 1563.27,-1556.2 1562.69,-1558.04 1561.96,-1559.88 1561.09,-1561.72 1560.08,-1563.54 1558.95,-1565.35 1557.7,-1567.13 1556.34,-1568.88 1554.88,-1570.61 1553.32,-1572.29 1551.67,-1573.94 1549.94,-1575.53 1548.14,-1577.08 1546.27,-1578.58 1544.34,-1580.01 1542.36,-1581.38 1540.33,-1582.69 1538.25,-1583.92 1536.14,-1585.08 1534,-1586.17 1531.83,-1587.17 1529.63,-1588.09 1527.41,-1588.93 1525.18,-1589.68 1522.93,-1590.34 1520.67,-1590.91 1518.4,-1591.39 1516.12,-1591.78 1513.84,-1592.06 1511.56,-1592.26 1509.27,-1592.35 1506.98,-1592.35 1504.69,-1592.26 1502.4,-1592.06 1500.12,-1591.78 1497.84,-1591.39 1495.57,-1590.91 1493.31,-1590.34 1491.07,-1589.68 1488.83,-1588.93 1486.61,-1588.09 1484.42,-1587.17 1482.25,-1586.17 1480.1,-1585.08 1477.99,-1583.92 1475.92,-1582.69 1473.89,-1581.38 1471.9,-1580.01 1469.97,-1578.58 1468.1,-1577.08 1466.3,-1575.53 1464.57,-1573.94 1462.93,-1572.29 1461.37,-1570.61 1459.9,-1568.88 1458.54,-1567.13 1457.29,-1565.35 1456.16,-1563.54 1455.16,-1561.72 1454.29,-1559.88 1453.56,-1558.04 1452.97,-1556.2 1452.54,-1554.35 1452.27,-1552.52 1452.17,-1550.69 1452.23,-1548.89 1452.47,-1547.11 1452.88,-1545.35 1453.48,-1543.63 1454.26,-1541.94 1455.22,-1540.3 1456.36,-1538.7 1457.69,-1537.15 1459.2,-1535.66 1460.89,-1534.23 1462.75,-1532.86 1464.78,-1531.55 1466.97,-1530.32 1469.33,-1529.15 1471.83,-1528.07 1474.48,-1527.06 1477.26,-1526.14 1480.16,-1525.3 1483.18,-1524.55 1486.29,-1523.89 1489.5,-1523.32 1492.78,-1522.84 1496.12,-1522.46 1499.52,-1522.17 1502.94,-1521.98 1506.39,-1521.88 1509.85,-1521.88 1513.3,-1521.98"/>
<text text-anchor="start" x="1478.95" y="-1566.92" font-family="Times,serif" font-size="14.00">C0007634</text>
<text text-anchor="start" x="1495.29" y="-1552.92" font-family="Times,serif" font-size="14.00">cells</text>
<text text-anchor="start" x="1492.18" y="-1538.92" font-family="Times,serif" font-size="14.00">16:16</text>
</g>
<!-- id_27240257_DOT_11 -->
<g id="node11" class="node">
<title>id_27240257_DOT_11</title>
<polygon fill="coral" stroke="coral" points="1505.26,-1154.66 1508.68,-1154.85 1512.08,-1155.14 1515.42,-1155.52 1518.7,-1156 1521.91,-1156.57 1525.02,-1157.23 1528.04,-1157.98 1530.94,-1158.82 1533.72,-1159.74 1536.37,-1160.75 1538.87,-1161.83 1541.22,-1162.99 1543.42,-1164.23 1545.45,-1165.53 1547.31,-1166.9 1549,-1168.34 1550.51,-1169.83 1551.84,-1171.38 1552.98,-1172.98 1553.94,-1174.62 1554.72,-1176.31 1555.32,-1178.03 1555.73,-1179.78 1555.97,-1181.57 1556.03,-1183.37 1555.93,-1185.19 1555.66,-1187.03 1555.23,-1188.87 1554.64,-1190.72 1553.91,-1192.56 1553.04,-1194.4 1552.04,-1196.22 1550.91,-1198.02 1549.66,-1199.81 1548.3,-1201.56 1546.83,-1203.28 1545.27,-1204.97 1543.63,-1206.61 1541.9,-1208.21 1540.1,-1209.76 1538.23,-1211.25 1536.3,-1212.69 1534.31,-1214.06 1532.28,-1215.36 1530.21,-1216.6 1528.1,-1217.76 1525.95,-1218.84 1523.78,-1219.85 1521.58,-1220.77 1519.37,-1221.61 1517.13,-1222.36 1514.89,-1223.02 1512.63,-1223.59 1510.36,-1224.07 1508.08,-1224.45 1505.8,-1224.74 1503.51,-1224.93 1501.22,-1225.03 1498.93,-1225.03 1496.64,-1224.93 1494.36,-1224.74 1492.08,-1224.45 1489.8,-1224.07 1487.53,-1223.59 1485.27,-1223.02 1483.02,-1222.36 1480.79,-1221.61 1478.57,-1220.77 1476.37,-1219.85 1474.2,-1218.84 1472.06,-1217.76 1469.95,-1216.6 1467.87,-1215.36 1465.84,-1214.06 1463.86,-1212.69 1461.93,-1211.25 1460.06,-1209.76 1458.26,-1208.21 1456.53,-1206.61 1454.88,-1204.97 1453.32,-1203.28 1451.86,-1201.56 1450.5,-1199.81 1449.25,-1198.02 1448.12,-1196.22 1447.11,-1194.4 1446.24,-1192.56 1445.51,-1190.72 1444.93,-1188.87 1444.5,-1187.03 1444.23,-1185.19 1444.12,-1183.37 1444.18,-1181.57 1444.42,-1179.78 1444.84,-1178.03 1445.43,-1176.31 1446.21,-1174.62 1447.17,-1172.98 1448.32,-1171.38 1449.65,-1169.83 1451.15,-1168.34 1452.84,-1166.9 1454.7,-1165.53 1456.73,-1164.23 1458.93,-1162.99 1461.28,-1161.83 1463.79,-1160.75 1466.43,-1159.74 1469.21,-1158.82 1472.12,-1157.98 1475.13,-1157.23 1478.25,-1156.57 1481.45,-1156 1484.73,-1155.52 1488.08,-1155.14 1491.47,-1154.85 1494.9,-1154.66 1498.35,-1154.56 1501.81,-1154.56 1505.26,-1154.66"/>
<text text-anchor="start" x="1470.91" y="-1199.59" font-family="Times,serif" font-size="14.00">C0026383</text>
<text text-anchor="start" x="1475.59" y="-1185.59" font-family="Times,serif" font-size="14.00">structure</text>
<text text-anchor="start" x="1484.13" y="-1171.59" font-family="Times,serif" font-size="14.00">68:68</text>
</g>
<!-- id_27240257_DOT_4&#45;&#45;id_27240257_DOT_11 -->
<g id="edge11" class="edge">
<title>id_27240257_DOT_4&#45;&#45;id_27240257_DOT_11</title>
<path fill="none" stroke="black" stroke-dasharray="1,5" d="M1507.34,-1521.56C1505.8,-1451.26 1502.39,-1295.2 1500.85,-1225.1"/>
<text text-anchor="middle" x="1477.85" y="-1376.13" font-family="Times,serif" font-size="14.00">0.907942</text>
</g>
<!-- id_27240257_DOT_16 -->
<g id="node16" class="node">
<title>id_27240257_DOT_16</title>
<polygon fill="cornflowerblue" stroke="cornflowerblue" points="1531.79,-1888.3 1536.08,-1888.49 1540.33,-1888.78 1544.52,-1889.17 1548.62,-1889.64 1552.64,-1890.21 1556.54,-1890.88 1560.31,-1891.63 1563.95,-1892.46 1567.43,-1893.39 1570.74,-1894.39 1573.88,-1895.48 1576.83,-1896.64 1579.58,-1897.87 1582.12,-1899.18 1584.45,-1900.55 1586.56,-1901.98 1588.45,-1903.48 1590.11,-1905.02 1591.55,-1906.62 1592.75,-1908.27 1593.72,-1909.95 1594.47,-1911.67 1594.99,-1913.43 1595.29,-1915.21 1595.37,-1917.02 1595.24,-1918.84 1594.9,-1920.68 1594.36,-1922.52 1593.63,-1924.36 1592.71,-1926.21 1591.62,-1928.04 1590.36,-1929.86 1588.95,-1931.67 1587.38,-1933.45 1585.68,-1935.21 1583.85,-1936.93 1581.9,-1938.62 1579.83,-1940.26 1577.67,-1941.86 1575.41,-1943.41 1573.07,-1944.9 1570.66,-1946.33 1568.17,-1947.7 1565.63,-1949.01 1563.03,-1950.24 1560.39,-1951.4 1557.71,-1952.49 1554.99,-1953.49 1552.24,-1954.42 1549.46,-1955.25 1546.66,-1956.01 1543.85,-1956.67 1541.02,-1957.24 1538.18,-1957.71 1535.33,-1958.1 1532.47,-1958.39 1529.6,-1958.58 1526.74,-1958.68 1523.87,-1958.68 1521.01,-1958.58 1518.15,-1958.39 1515.29,-1958.1 1512.44,-1957.71 1509.59,-1957.24 1506.76,-1956.67 1503.95,-1956.01 1501.15,-1955.25 1498.38,-1954.42 1495.63,-1953.49 1492.91,-1952.49 1490.22,-1951.4 1487.58,-1950.24 1484.98,-1949.01 1482.44,-1947.7 1479.96,-1946.33 1477.54,-1944.9 1475.2,-1943.41 1472.94,-1941.86 1470.78,-1940.26 1468.72,-1938.62 1466.76,-1936.93 1464.93,-1935.21 1463.23,-1933.45 1461.66,-1931.67 1460.25,-1929.86 1458.99,-1928.04 1457.9,-1926.21 1456.98,-1924.36 1456.25,-1922.52 1455.72,-1920.68 1455.38,-1918.84 1455.24,-1917.02 1455.32,-1915.21 1455.62,-1913.43 1456.14,-1911.67 1456.89,-1909.95 1457.86,-1908.27 1459.07,-1906.62 1460.5,-1905.02 1462.16,-1903.48 1464.05,-1901.98 1466.16,-1900.55 1468.49,-1899.18 1471.04,-1897.87 1473.79,-1896.64 1476.73,-1895.48 1479.87,-1894.39 1483.18,-1893.39 1486.66,-1892.46 1490.3,-1891.63 1494.07,-1890.88 1497.98,-1890.21 1501.99,-1889.64 1506.1,-1889.17 1510.28,-1888.78 1514.53,-1888.49 1518.82,-1888.3 1523.14,-1888.21 1527.47,-1888.21 1531.79,-1888.3"/>
<text text-anchor="start" x="1496.14" y="-1933.24" font-family="Times,serif" font-size="14.00">C0243095</text>
<text text-anchor="start" x="1486.81" y="-1919.24" font-family="Times,serif" font-size="14.00">photostability</text>
<text text-anchor="start" x="1502.87" y="-1905.24" font-family="Times,serif" font-size="14.00">118:118</text>
</g>
<!-- id_27240257_DOT_4&#45;&#45;id_27240257_DOT_16 -->
<g id="edge12" class="edge">
<title>id_27240257_DOT_4&#45;&#45;id_27240257_DOT_16</title>
<path fill="none" stroke="black" stroke-dasharray="1,5" d="M1509.79,-1592.58C1513.07,-1662.6 1520.36,-1817.92 1523.64,-1887.96"/>
<text text-anchor="middle" x="1490.46" y="-1743.07" font-family="Times,serif" font-size="14.00">0.872952</text>
</g>
<!-- id_27240257_DOT_5 -->
<g id="node5" class="node">
<title>id_27240257_DOT_5</title>
<polygon fill="blueviolet" stroke="blueviolet" points="1516.02,-2254.14 1523.16,-2254.33 1530.23,-2254.62 1537.2,-2255 1544.04,-2255.48 1550.71,-2256.05 1557.21,-2256.71 1563.49,-2257.46 1569.54,-2258.3 1575.34,-2259.22 1580.85,-2260.23 1586.07,-2261.31 1590.98,-2262.48 1595.55,-2263.71 1599.79,-2265.02 1603.67,-2266.39 1607.18,-2267.82 1610.32,-2269.31 1613.09,-2270.86 1615.48,-2272.46 1617.48,-2274.1 1619.1,-2275.79 1620.34,-2277.51 1621.21,-2279.27 1621.7,-2281.05 1621.84,-2282.85 1621.62,-2284.68 1621.05,-2286.51 1620.16,-2288.36 1618.94,-2290.2 1617.42,-2292.04 1615.6,-2293.88 1613.51,-2295.7 1611.15,-2297.51 1608.55,-2299.29 1605.71,-2301.04 1602.66,-2302.77 1599.41,-2304.45 1595.98,-2306.1 1592.38,-2307.69 1588.62,-2309.24 1584.73,-2310.74 1580.71,-2312.17 1576.57,-2313.54 1572.34,-2314.85 1568.02,-2316.08 1563.62,-2317.24 1559.15,-2318.33 1554.62,-2319.33 1550.05,-2320.25 1545.43,-2321.09 1540.77,-2321.84 1536.09,-2322.5 1531.38,-2323.07 1526.65,-2323.55 1521.9,-2323.94 1517.15,-2324.22 1512.38,-2324.42 1507.61,-2324.51 1502.84,-2324.51 1498.07,-2324.42 1493.31,-2324.22 1488.55,-2323.94 1483.81,-2323.55 1479.08,-2323.07 1474.37,-2322.5 1469.68,-2321.84 1465.02,-2321.09 1460.41,-2320.25 1455.83,-2319.33 1451.3,-2318.33 1446.83,-2317.24 1442.43,-2316.08 1438.11,-2314.85 1433.88,-2313.54 1429.74,-2312.17 1425.72,-2310.74 1421.83,-2309.24 1418.07,-2307.69 1414.47,-2306.1 1411.04,-2304.45 1407.79,-2302.77 1404.74,-2301.04 1401.9,-2299.29 1399.3,-2297.51 1396.95,-2295.7 1394.85,-2293.88 1393.04,-2292.04 1391.51,-2290.2 1390.3,-2288.36 1389.4,-2286.51 1388.84,-2284.68 1388.62,-2282.85 1388.75,-2281.05 1389.24,-2279.27 1390.11,-2277.51 1391.35,-2275.79 1392.97,-2274.1 1394.98,-2272.46 1397.36,-2270.86 1400.13,-2269.31 1403.27,-2267.82 1406.79,-2266.39 1410.67,-2265.02 1414.9,-2263.71 1419.48,-2262.48 1424.38,-2261.31 1429.6,-2260.23 1435.12,-2259.22 1440.91,-2258.3 1446.96,-2257.46 1453.24,-2256.71 1459.74,-2256.05 1466.42,-2255.48 1473.25,-2255 1480.22,-2254.62 1487.29,-2254.33 1494.44,-2254.14 1501.62,-2254.04 1508.83,-2254.04 1516.02,-2254.14"/>
<text text-anchor="start" x="1476.06" y="-2299.08" font-family="Times,serif" font-size="14.00">C0026022</text>
<text text-anchor="start" x="1435.83" y="-2285.08" font-family="Times,serif" font-size="14.00">fluorescence microscopy</text>
<text text-anchor="start" x="1489.28" y="-2271.08" font-family="Times,serif" font-size="14.00">19:20</text>
</g>
<!-- id_27240257_DOT_13 -->
<g id="node13" class="node">
<title>id_27240257_DOT_13</title>
<polygon fill="aquamarine" stroke="aquamarine" points="1480.17,-2621.7 1483.6,-2621.9 1486.99,-2622.18 1490.33,-2622.57 1493.62,-2623.05 1496.82,-2623.62 1499.94,-2624.28 1502.95,-2625.03 1505.85,-2625.87 1508.63,-2626.79 1511.28,-2627.79 1513.79,-2628.88 1516.14,-2630.04 1518.34,-2631.27 1520.37,-2632.58 1522.23,-2633.95 1523.92,-2635.38 1525.42,-2636.88 1526.75,-2638.42 1527.9,-2640.02 1528.86,-2641.67 1529.64,-2643.35 1530.23,-2645.08 1530.65,-2646.83 1530.88,-2648.61 1530.95,-2650.42 1530.84,-2652.24 1530.57,-2654.08 1530.14,-2655.92 1529.56,-2657.76 1528.83,-2659.61 1527.96,-2661.44 1526.95,-2663.26 1525.82,-2665.07 1524.57,-2666.85 1523.21,-2668.61 1521.75,-2670.33 1520.19,-2672.02 1518.54,-2673.66 1516.81,-2675.26 1515.01,-2676.81 1513.14,-2678.3 1511.21,-2679.73 1509.23,-2681.1 1507.2,-2682.41 1505.12,-2683.64 1503.01,-2684.8 1500.87,-2685.89 1498.7,-2686.89 1496.5,-2687.82 1494.28,-2688.66 1492.05,-2689.41 1489.8,-2690.07 1487.54,-2690.64 1485.27,-2691.11 1482.99,-2691.5 1480.71,-2691.79 1478.43,-2691.98 1476.14,-2692.08 1473.85,-2692.08 1471.56,-2691.98 1469.27,-2691.79 1466.99,-2691.5 1464.71,-2691.11 1462.44,-2690.64 1460.18,-2690.07 1457.94,-2689.41 1455.7,-2688.66 1453.48,-2687.82 1451.29,-2686.89 1449.12,-2685.89 1446.97,-2684.8 1444.86,-2683.64 1442.79,-2682.41 1440.76,-2681.1 1438.77,-2679.73 1436.84,-2678.3 1434.97,-2676.81 1433.17,-2675.26 1431.44,-2673.66 1429.8,-2672.02 1428.24,-2670.33 1426.77,-2668.61 1425.41,-2666.85 1424.16,-2665.07 1423.03,-2663.26 1422.03,-2661.44 1421.16,-2659.61 1420.43,-2657.76 1419.84,-2655.92 1419.41,-2654.08 1419.14,-2652.24 1419.04,-2650.42 1419.1,-2648.61 1419.34,-2646.83 1419.75,-2645.08 1420.35,-2643.35 1421.13,-2641.67 1422.09,-2640.02 1423.23,-2638.42 1424.56,-2636.88 1426.07,-2635.38 1427.76,-2633.95 1429.62,-2632.58 1431.65,-2631.27 1433.84,-2630.04 1436.2,-2628.88 1438.7,-2627.79 1441.35,-2626.79 1444.13,-2625.87 1447.03,-2625.03 1450.05,-2624.28 1453.16,-2623.62 1456.37,-2623.05 1459.65,-2622.57 1462.99,-2622.18 1466.39,-2621.9 1469.81,-2621.7 1473.26,-2621.61 1476.72,-2621.61 1480.17,-2621.7"/>
<text text-anchor="start" x="1445.82" y="-2666.64" font-family="Times,serif" font-size="14.00">C0033684</text>
<text text-anchor="start" x="1467.21" y="-2652.64" font-family="Times,serif" font-size="14.00">FP</text>
<text text-anchor="start" x="1459.05" y="-2638.64" font-family="Times,serif" font-size="14.00">85:85</text>
</g>
<!-- id_27240257_DOT_5&#45;&#45;id_27240257_DOT_13 -->
<g id="edge13" class="edge">
<title>id_27240257_DOT_5&#45;&#45;id_27240257_DOT_13</title>
<path fill="none" stroke="black" stroke-dasharray="1,5" d="M1502.33,-2324.52C1496.56,-2394.69 1483.69,-2551.13 1477.9,-2621.43"/>
<text text-anchor="middle" x="1463.87" y="-2475.78" font-family="Times,serif" font-size="14.00">0.872147</text>
</g>
<!-- id_27240257_DOT_5&#45;&#45;id_27240257_DOT_16 -->
<g id="edge14" class="edge">
<title>id_27240257_DOT_5&#45;&#45;id_27240257_DOT_16</title>
<path fill="none" stroke="black" stroke-dasharray="1,5" d="M1507.17,-2253.87C1511.01,-2183.93 1519.52,-2028.82 1523.36,-1958.87"/>
<text text-anchor="middle" x="1489.02" y="-2109.17" font-family="Times,serif" font-size="14.00">0.913220</text>
</g>
<!-- id_27240257_DOT_8 -->
<g id="node8" class="node">
<title>id_27240257_DOT_8</title>
<polygon fill="aquamarine" stroke="aquamarine" points="583.53,-4575.91 589.34,-4576.1 595.09,-4576.39 600.75,-4576.78 606.31,-4577.25 611.74,-4577.82 617.02,-4578.49 622.13,-4579.24 627.05,-4580.07 631.76,-4581 636.24,-4582 640.49,-4583.09 644.48,-4584.25 648.2,-4585.48 651.64,-4586.79 654.79,-4588.16 657.65,-4589.59 660.21,-4591.09 662.46,-4592.63 664.4,-4594.23 666.02,-4595.88 667.34,-4597.56 668.35,-4599.28 669.06,-4601.04 669.46,-4602.82 669.57,-4604.63 669.39,-4606.45 668.93,-4608.28 668.2,-4610.13 667.21,-4611.97 665.97,-4613.82 664.5,-4615.65 662.79,-4617.47 660.88,-4619.28 658.76,-4621.06 656.46,-4622.82 653.98,-4624.54 651.34,-4626.22 648.55,-4627.87 645.62,-4629.47 642.56,-4631.01 639.4,-4632.51 636.13,-4633.94 632.77,-4635.31 629.32,-4636.62 625.81,-4637.85 622.23,-4639.01 618.6,-4640.1 614.92,-4641.1 611.2,-4642.03 607.44,-4642.86 603.66,-4643.61 599.85,-4644.28 596.02,-4644.85 592.17,-4645.32 588.32,-4645.71 584.45,-4646 580.58,-4646.19 576.7,-4646.28 572.82,-4646.28 568.94,-4646.19 565.07,-4646 561.2,-4645.71 557.34,-4645.32 553.5,-4644.85 549.67,-4644.28 545.86,-4643.61 542.07,-4642.86 538.32,-4642.03 534.6,-4641.1 530.92,-4640.1 527.28,-4639.01 523.71,-4637.85 520.19,-4636.62 516.75,-4635.31 513.39,-4633.94 510.12,-4632.51 506.95,-4631.01 503.9,-4629.47 500.97,-4627.87 498.18,-4626.22 495.54,-4624.54 493.06,-4622.82 490.75,-4621.06 488.64,-4619.28 486.72,-4617.47 485.02,-4615.65 483.54,-4613.82 482.3,-4611.97 481.32,-4610.13 480.59,-4608.28 480.13,-4606.45 479.95,-4604.63 480.06,-4602.82 480.46,-4601.04 481.16,-4599.28 482.17,-4597.56 483.49,-4595.88 485.12,-4594.23 487.06,-4592.63 489.31,-4591.09 491.86,-4589.59 494.72,-4588.16 497.88,-4586.79 501.32,-4585.48 505.04,-4584.25 509.03,-4583.09 513.27,-4582 517.76,-4581 522.47,-4580.07 527.39,-4579.24 532.49,-4578.49 537.77,-4577.82 543.2,-4577.25 548.76,-4576.78 554.43,-4576.39 560.18,-4576.1 565.98,-4575.91 571.83,-4575.81 577.69,-4575.81 583.53,-4575.91"/>
<text text-anchor="start" x="545.59" y="-4620.85" font-family="Times,serif" font-size="14.00">C0033684</text>
<text text-anchor="start" x="519.74" y="-4606.85" font-family="Times,serif" font-size="14.00">fluorescent proteins</text>
<text text-anchor="start" x="558.81" y="-4592.85" font-family="Times,serif" font-size="14.00">45:46</text>
</g>
<!-- id_27240257_DOT_6&#45;&#45;id_27240257_DOT_8 -->
<g id="edge4" class="edge">
<title>id_27240257_DOT_6&#45;&#45;id_27240257_DOT_8</title>
<path fill="none" stroke="black" d="M741.91,-4330.65C706.05,-4390.82 631.69,-4515.55 595.48,-4576.3"/>
<text text-anchor="middle" x="642.45" y="-4456.27" font-family="Times,serif" font-size="14.00">0.001023</text>
</g>
<!-- id_27240257_DOT_7 -->
<g id="node7" class="node">
<title>id_27240257_DOT_7</title>
<polygon fill="brown" stroke="brown" points="1087.82,-257.95 1092.5,-258.15 1097.13,-258.44 1101.7,-258.82 1106.18,-259.3 1110.56,-259.87 1114.81,-260.53 1118.93,-261.28 1122.89,-262.12 1126.69,-263.04 1130.3,-264.04 1133.72,-265.13 1136.94,-266.29 1139.94,-267.53 1142.71,-268.83 1145.25,-270.2 1147.56,-271.64 1149.62,-273.13 1151.43,-274.68 1152.99,-276.27 1154.3,-277.92 1155.37,-279.6 1156.18,-281.33 1156.75,-283.08 1157.07,-284.86 1157.16,-286.67 1157.02,-288.49 1156.65,-290.33 1156.06,-292.17 1155.26,-294.02 1154.26,-295.86 1153.07,-297.69 1151.7,-299.52 1150.16,-301.32 1148.45,-303.1 1146.59,-304.86 1144.6,-306.58 1142.47,-308.27 1140.22,-309.91 1137.86,-311.51 1135.4,-313.06 1132.84,-314.55 1130.21,-315.98 1127.5,-317.36 1124.73,-318.66 1121.89,-319.9 1119.01,-321.06 1116.08,-322.14 1113.12,-323.15 1110.12,-324.07 1107.09,-324.91 1104.04,-325.66 1100.97,-326.32 1097.88,-326.89 1094.79,-327.37 1091.68,-327.75 1088.56,-328.04 1085.44,-328.23 1082.31,-328.33 1079.19,-328.33 1076.06,-328.23 1072.94,-328.04 1069.82,-327.75 1066.71,-327.37 1063.61,-326.89 1060.53,-326.32 1057.46,-325.66 1054.41,-324.91 1051.38,-324.07 1048.38,-323.15 1045.41,-322.14 1042.49,-321.06 1039.6,-319.9 1036.77,-318.66 1034,-317.36 1031.29,-315.98 1028.65,-314.55 1026.1,-313.06 1023.64,-311.51 1021.28,-309.91 1019.03,-308.27 1016.9,-306.58 1014.9,-304.86 1013.05,-303.1 1011.34,-301.32 1009.8,-299.52 1008.42,-297.69 1007.23,-295.86 1006.24,-294.02 1005.44,-292.17 1004.85,-290.33 1004.48,-288.49 1004.34,-286.67 1004.43,-284.86 1004.75,-283.08 1005.32,-281.33 1006.13,-279.6 1007.19,-277.92 1008.51,-276.27 1010.07,-274.68 1011.88,-273.13 1013.94,-271.64 1016.24,-270.2 1018.79,-268.83 1021.56,-267.53 1024.56,-266.29 1027.77,-265.13 1031.19,-264.04 1034.81,-263.04 1038.61,-262.12 1042.57,-261.28 1046.69,-260.53 1050.94,-259.87 1055.32,-259.3 1059.8,-258.82 1064.36,-258.44 1069,-258.15 1073.68,-257.95 1078.39,-257.86 1083.11,-257.86 1087.82,-257.95"/>
<text text-anchor="start" x="1051.84" y="-302.89" font-family="Times,serif" font-size="14.00">C0544711</text>
<text text-anchor="start" x="1037.98" y="-288.89" font-family="Times,serif" font-size="14.00">autofluorescent</text>
<text text-anchor="start" x="1064.8" y="-274.89" font-family="Times,serif" font-size="14.00">44:44</text>
</g>
<!-- id_27240257_DOT_7&#45;&#45;id_27240257_DOT_9 -->
<g id="edge15" class="edge">
<title>id_27240257_DOT_7&#45;&#45;id_27240257_DOT_9</title>
<path fill="none" stroke="black" stroke-dasharray="1,5" d="M1137.92,-311.74C1214.63,-336.75 1349.78,-380.83 1424.14,-405.08"/>
<text text-anchor="middle" x="1254.78" y="-361.21" font-family="Times,serif" font-size="14.00">0.899972</text>
</g>
<!-- id_27240257_DOT_18 -->
<g id="node18" class="node">
<title>id_27240257_DOT_18</title>
<polygon fill="aquamarine" stroke="aquamarine" points="362.37,-4864.96 368.17,-4865.15 373.92,-4865.44 379.59,-4865.83 385.15,-4866.3 390.58,-4866.87 395.86,-4867.54 400.96,-4868.29 405.88,-4869.12 410.59,-4870.05 415.08,-4871.05 419.32,-4872.14 423.31,-4873.3 427.03,-4874.53 430.47,-4875.84 433.63,-4877.21 436.49,-4878.64 439.04,-4880.14 441.29,-4881.68 443.23,-4883.28 444.86,-4884.93 446.18,-4886.61 447.19,-4888.33 447.89,-4890.09 448.29,-4891.87 448.4,-4893.68 448.22,-4895.5 447.76,-4897.34 447.03,-4899.18 446.05,-4901.02 444.81,-4902.87 443.33,-4904.7 441.63,-4906.52 439.71,-4908.33 437.6,-4910.11 435.29,-4911.87 432.81,-4913.59 430.17,-4915.28 427.38,-4916.92 424.45,-4918.52 421.4,-4920.07 418.23,-4921.56 414.96,-4922.99 411.6,-4924.36 408.16,-4925.67 404.64,-4926.9 401.07,-4928.06 397.43,-4929.15 393.75,-4930.15 390.03,-4931.08 386.28,-4931.91 382.49,-4932.67 378.68,-4933.33 374.85,-4933.9 371.01,-4934.37 367.15,-4934.76 363.28,-4935.05 359.41,-4935.24 355.53,-4935.34 351.65,-4935.34 347.78,-4935.24 343.9,-4935.05 340.03,-4934.76 336.18,-4934.37 332.33,-4933.9 328.5,-4933.33 324.69,-4932.67 320.91,-4931.91 317.15,-4931.08 313.43,-4930.15 309.75,-4929.15 306.12,-4928.06 302.54,-4926.9 299.03,-4925.67 295.58,-4924.36 292.22,-4922.99 288.95,-4921.56 285.79,-4920.07 282.73,-4918.52 279.8,-4916.92 277.01,-4915.28 274.37,-4913.59 271.89,-4911.87 269.59,-4910.11 267.47,-4908.33 265.56,-4906.52 263.85,-4904.7 262.38,-4902.87 261.14,-4901.02 260.15,-4899.18 259.42,-4897.34 258.96,-4895.5 258.78,-4893.68 258.89,-4891.87 259.29,-4890.09 260,-4888.33 261.01,-4886.61 262.33,-4884.93 263.95,-4883.28 265.89,-4881.68 268.14,-4880.14 270.7,-4878.64 273.56,-4877.21 276.71,-4875.84 280.15,-4874.53 283.87,-4873.3 287.86,-4872.14 292.11,-4871.05 296.59,-4870.05 301.3,-4869.12 306.22,-4868.29 311.33,-4867.54 316.61,-4866.87 322.04,-4866.3 327.6,-4865.83 333.26,-4865.44 339.01,-4865.15 344.82,-4864.96 350.66,-4864.87 356.52,-4864.87 362.37,-4864.96"/>
<text text-anchor="start" x="324.42" y="-4909.9" font-family="Times,serif" font-size="14.00">C0033684</text>
<text text-anchor="start" x="298.58" y="-4895.9" font-family="Times,serif" font-size="14.00">fluorescent proteins</text>
<text text-anchor="start" x="330.65" y="-4881.9" font-family="Times,serif" font-size="14.00">129:130</text>
</g>
<!-- id_27240257_DOT_8&#45;&#45;id_27240257_DOT_18 -->
<g id="edge5" class="edge">
<title>id_27240257_DOT_8&#45;&#45;id_27240257_DOT_18</title>
<path fill="none" stroke="black" d="M549.17,-4644.49C506.87,-4699.77 422.79,-4809.66 379.98,-4865.62"/>
<text text-anchor="middle" x="438.32" y="-4757.85" font-family="Times,serif" font-size="14.00">0.047152</text>
</g>
<!-- id_27240257_DOT_10 -->
<g id="node10" class="node">
<title>id_27240257_DOT_10</title>
<polygon fill="chartreuse" stroke="chartreuse" points="1491.36,-781.23 1495.35,-781.43 1499.3,-781.71 1503.19,-782.1 1507.01,-782.58 1510.75,-783.15 1514.37,-783.81 1517.89,-784.56 1521.27,-785.4 1524.5,-786.32 1527.59,-787.32 1530.5,-788.41 1533.24,-789.57 1535.8,-790.8 1538.17,-792.11 1540.34,-793.48 1542.3,-794.91 1544.06,-796.41 1545.6,-797.96 1546.93,-799.55 1548.05,-801.2 1548.96,-802.88 1549.65,-804.61 1550.14,-806.36 1550.41,-808.14 1550.49,-809.95 1550.37,-811.77 1550.05,-813.61 1549.55,-815.45 1548.87,-817.29 1548.02,-819.14 1547,-820.97 1545.83,-822.8 1544.52,-824.6 1543.06,-826.38 1541.48,-828.14 1539.78,-829.86 1537.96,-831.55 1536.04,-833.19 1534.03,-834.79 1531.93,-836.34 1529.75,-837.83 1527.51,-839.26 1525.2,-840.63 1522.83,-841.94 1520.42,-843.17 1517.96,-844.34 1515.46,-845.42 1512.93,-846.43 1510.37,-847.35 1507.79,-848.19 1505.19,-848.94 1502.57,-849.6 1499.94,-850.17 1497.3,-850.65 1494.64,-851.03 1491.99,-851.32 1489.32,-851.51 1486.66,-851.61 1483.99,-851.61 1481.33,-851.51 1478.67,-851.32 1476.01,-851.03 1473.36,-850.65 1470.71,-850.17 1468.08,-849.6 1465.46,-848.94 1462.86,-848.19 1460.28,-847.35 1457.72,-846.43 1455.19,-845.42 1452.7,-844.34 1450.24,-843.17 1447.82,-841.94 1445.46,-840.63 1443.15,-839.26 1440.9,-837.83 1438.72,-836.34 1436.62,-834.79 1434.61,-833.19 1432.69,-831.55 1430.88,-829.86 1429.17,-828.14 1427.59,-826.38 1426.13,-824.6 1424.82,-822.8 1423.65,-820.97 1422.63,-819.14 1421.78,-817.29 1421.1,-815.45 1420.6,-813.61 1420.29,-811.77 1420.16,-809.95 1420.24,-808.14 1420.51,-806.36 1421,-804.61 1421.69,-802.88 1422.6,-801.2 1423.72,-799.55 1425.05,-797.96 1426.6,-796.41 1428.35,-794.91 1430.32,-793.48 1432.48,-792.11 1434.85,-790.8 1437.41,-789.57 1440.15,-788.41 1443.07,-787.32 1446.15,-786.32 1449.39,-785.4 1452.77,-784.56 1456.28,-783.81 1459.91,-783.15 1463.64,-782.58 1467.46,-782.1 1471.35,-781.71 1475.3,-781.43 1479.3,-781.23 1483.31,-781.14 1487.34,-781.14 1491.36,-781.23"/>
<text text-anchor="start" x="1456.16" y="-826.17" font-family="Times,serif" font-size="14.00">C0014406</text>
<text text-anchor="start" x="1449.95" y="-812.17" font-family="Times,serif" font-size="14.00">environment</text>
<text text-anchor="start" x="1469.38" y="-798.17" font-family="Times,serif" font-size="14.00">59:59</text>
</g>
<!-- id_27240257_DOT_9&#45;&#45;id_27240257_DOT_10 -->
<g id="edge16" class="edge">
<title>id_27240257_DOT_9&#45;&#45;id_27240257_DOT_10</title>
<path fill="none" stroke="black" stroke-dasharray="1,5" d="M1477.62,-457.6C1479.23,-532.41 1482.96,-706.12 1484.57,-780.99"/>
<text text-anchor="middle" x="1454.85" y="-622.09" font-family="Times,serif" font-size="14.00">0.868243</text>
</g>
<!-- id_27240257_DOT_17 -->
<g id="node17" class="node">
<title>id_27240257_DOT_17</title>
<polygon fill="crimson" stroke="crimson" points="1875.47,-246.84 1879.16,-247.03 1882.8,-247.32 1886.39,-247.7 1889.92,-248.18 1893.36,-248.75 1896.71,-249.41 1899.95,-250.16 1903.07,-251 1906.06,-251.92 1908.9,-252.93 1911.59,-254.01 1914.12,-255.17 1916.48,-256.41 1918.66,-257.71 1920.66,-259.08 1922.47,-260.52 1924.1,-262.01 1925.52,-263.56 1926.75,-265.16 1927.78,-266.8 1928.62,-268.49 1929.26,-270.21 1929.71,-271.96 1929.96,-273.75 1930.03,-275.55 1929.92,-277.37 1929.63,-279.21 1929.16,-281.05 1928.54,-282.9 1927.75,-284.74 1926.82,-286.57 1925.74,-288.4 1924.52,-290.2 1923.18,-291.99 1921.72,-293.74 1920.15,-295.46 1918.47,-297.15 1916.7,-298.79 1914.84,-300.39 1912.91,-301.94 1910.9,-303.43 1908.83,-304.87 1906.69,-306.24 1904.51,-307.54 1902.28,-308.78 1900.02,-309.94 1897.71,-311.02 1895.38,-312.03 1893.02,-312.95 1890.64,-313.79 1888.24,-314.54 1885.82,-315.2 1883.39,-315.77 1880.95,-316.25 1878.51,-316.63 1876.06,-316.92 1873.6,-317.11 1871.14,-317.21 1868.68,-317.21 1866.22,-317.11 1863.77,-316.92 1861.31,-316.63 1858.87,-316.25 1856.43,-315.77 1854,-315.2 1851.58,-314.54 1849.18,-313.79 1846.8,-312.95 1844.44,-312.03 1842.11,-311.02 1839.8,-309.94 1837.54,-308.78 1835.31,-307.54 1833.13,-306.24 1830.99,-304.87 1828.92,-303.43 1826.91,-301.94 1824.98,-300.39 1823.12,-298.79 1821.35,-297.15 1819.67,-295.46 1818.1,-293.74 1816.64,-291.99 1815.3,-290.2 1814.08,-288.4 1813,-286.57 1812.07,-284.74 1811.28,-282.9 1810.66,-281.05 1810.19,-279.21 1809.9,-277.37 1809.79,-275.55 1809.86,-273.75 1810.11,-271.96 1810.56,-270.21 1811.2,-268.49 1812.04,-266.8 1813.07,-265.16 1814.3,-263.56 1815.73,-262.01 1817.35,-260.52 1819.16,-259.08 1821.16,-257.71 1823.34,-256.41 1825.7,-255.17 1828.23,-254.01 1830.92,-252.93 1833.76,-251.92 1836.75,-251 1839.87,-250.16 1843.11,-249.41 1846.46,-248.75 1849.9,-248.18 1853.43,-247.7 1857.02,-247.32 1860.66,-247.03 1864.35,-246.84 1868.05,-246.74 1871.77,-246.74 1875.47,-246.84"/>
<text text-anchor="start" x="1840.74" y="-291.77" font-family="Times,serif" font-size="14.00">C0596973</text>
<text text-anchor="start" x="1838.03" y="-277.77" font-family="Times,serif" font-size="14.00">monomeric</text>
<text text-anchor="start" x="1846.97" y="-263.77" font-family="Times,serif" font-size="14.00">123:123</text>
</g>
<!-- id_27240257_DOT_9&#45;&#45;id_27240257_DOT_17 -->
<g id="edge17" class="edge">
<title>id_27240257_DOT_9&#45;&#45;id_27240257_DOT_17</title>
<path fill="none" stroke="black" stroke-dasharray="1,5" d="M1528.65,-403.79C1605.57,-376.33 1748.87,-325.18 1822.92,-298.75"/>
<text text-anchor="middle" x="1649.79" y="-354.07" font-family="Times,serif" font-size="14.00">0.901125</text>
</g>
<!-- id_27240257_DOT_10&#45;&#45;id_27240257_DOT_11 -->
<g id="edge18" class="edge">
<title>id_27240257_DOT_10&#45;&#45;id_27240257_DOT_11</title>
<path fill="none" stroke="black" stroke-dasharray="1,5" d="M1486.73,-851.84C1489.54,-923.11 1495.86,-1082.99 1498.67,-1154.29"/>
<text text-anchor="middle" x="1466.45" y="-1005.87" font-family="Times,serif" font-size="14.00">0.812603</text>
</g>
<!-- id_27240257_DOT_12 -->
<g id="node12" class="node">
<title>id_27240257_DOT_12</title>
<polygon fill="aquamarine" stroke="aquamarine" points="1464.09,-2995.76 1467.52,-2995.96 1470.92,-2996.24 1474.26,-2996.63 1477.54,-2997.11 1480.74,-2997.68 1483.86,-2998.34 1486.88,-2999.09 1489.78,-2999.93 1492.56,-3000.85 1495.21,-3001.85 1497.71,-3002.94 1500.06,-3004.1 1502.26,-3005.33 1504.29,-3006.64 1506.15,-3008.01 1507.84,-3009.44 1509.35,-3010.94 1510.68,-3012.49 1511.82,-3014.08 1512.78,-3015.73 1513.56,-3017.41 1514.16,-3019.14 1514.57,-3020.89 1514.81,-3022.67 1514.87,-3024.48 1514.77,-3026.3 1514.5,-3028.14 1514.07,-3029.98 1513.48,-3031.82 1512.75,-3033.67 1511.88,-3035.5 1510.88,-3037.33 1509.74,-3039.13 1508.5,-3040.91 1507.14,-3042.67 1505.67,-3044.39 1504.11,-3046.08 1502.47,-3047.72 1500.74,-3049.32 1498.94,-3050.87 1497.07,-3052.36 1495.14,-3053.79 1493.15,-3055.16 1491.12,-3056.47 1489.05,-3057.7 1486.94,-3058.87 1484.79,-3059.95 1482.62,-3060.96 1480.42,-3061.88 1478.21,-3062.72 1475.97,-3063.47 1473.72,-3064.13 1471.46,-3064.7 1469.2,-3065.18 1466.92,-3065.56 1464.64,-3065.85 1462.35,-3066.04 1460.06,-3066.14 1457.77,-3066.14 1455.48,-3066.04 1453.2,-3065.85 1450.91,-3065.56 1448.64,-3065.18 1446.37,-3064.7 1444.11,-3064.13 1441.86,-3063.47 1439.63,-3062.72 1437.41,-3061.88 1435.21,-3060.96 1433.04,-3059.95 1430.9,-3058.87 1428.79,-3057.7 1426.71,-3056.47 1424.68,-3055.16 1422.7,-3053.79 1420.77,-3052.36 1418.9,-3050.87 1417.1,-3049.32 1415.37,-3047.72 1413.72,-3046.08 1412.16,-3044.39 1410.7,-3042.67 1409.34,-3040.91 1408.09,-3039.13 1406.96,-3037.33 1405.95,-3035.5 1405.08,-3033.67 1404.35,-3031.82 1403.77,-3029.98 1403.34,-3028.14 1403.07,-3026.3 1402.96,-3024.48 1403.02,-3022.67 1403.26,-3020.89 1403.68,-3019.14 1404.27,-3017.41 1405.05,-3015.73 1406.01,-3014.08 1407.16,-3012.49 1408.48,-3010.94 1409.99,-3009.44 1411.68,-3008.01 1413.54,-3006.64 1415.57,-3005.33 1417.77,-3004.1 1420.12,-3002.94 1422.63,-3001.85 1425.27,-3000.85 1428.05,-2999.93 1430.96,-2999.09 1433.97,-2998.34 1437.09,-2997.68 1440.29,-2997.11 1443.57,-2996.63 1446.92,-2996.24 1450.31,-2995.96 1453.74,-2995.76 1457.19,-2995.67 1460.64,-2995.67 1464.09,-2995.76"/>
<text text-anchor="start" x="1429.75" y="-3040.7" font-family="Times,serif" font-size="14.00">C0033684</text>
<text text-anchor="start" x="1451.13" y="-3026.7" font-family="Times,serif" font-size="14.00">FP</text>
<text text-anchor="start" x="1442.97" y="-3012.7" font-family="Times,serif" font-size="14.00">71:71</text>
</g>
<!-- id_27240257_DOT_12&#45;&#45;id_27240257_DOT_13 -->
<g id="edge6" class="edge">
<title>id_27240257_DOT_12&#45;&#45;id_27240257_DOT_13</title>
<path fill="none" stroke="black" d="M1460.44,-2995.37C1463.52,-2923.89 1470.41,-2763.42 1473.48,-2692.13"/>
<text text-anchor="middle" x="1440.71" y="-2846.55" font-family="Times,serif" font-size="14.00">0.001512</text>
</g>
<!-- id_27240257_DOT_12&#45;&#45;id_27240257_DOT_14 -->
<g id="edge7" class="edge">
<title>id_27240257_DOT_12&#45;&#45;id_27240257_DOT_14</title>
<path fill="none" stroke="black" d="M1461.95,-3066.23C1468.38,-3141.07 1483.3,-3314.83 1489.73,-3389.72"/>
<text text-anchor="middle" x="1449.59" y="-3230.78" font-family="Times,serif" font-size="14.00">0.001760</text>
</g>
<!-- id_27240257_DOT_15 -->
<g id="node15" class="node">
<title>id_27240257_DOT_15</title>
<polygon fill="aquamarine" stroke="aquamarine" points="1879.28,-3544.34 1882.71,-3544.53 1886.1,-3544.82 1889.44,-3545.21 1892.72,-3545.68 1895.93,-3546.25 1899.04,-3546.92 1902.06,-3547.67 1904.96,-3548.5 1907.74,-3549.43 1910.39,-3550.43 1912.89,-3551.52 1915.25,-3552.68 1917.44,-3553.91 1919.48,-3555.22 1921.34,-3556.59 1923.02,-3558.02 1924.53,-3559.52 1925.86,-3561.06 1927,-3562.66 1927.97,-3564.31 1928.74,-3565.99 1929.34,-3567.71 1929.75,-3569.47 1929.99,-3571.25 1930.06,-3573.06 1929.95,-3574.88 1929.68,-3576.71 1929.25,-3578.56 1928.67,-3580.4 1927.94,-3582.25 1927.06,-3584.08 1926.06,-3585.9 1924.93,-3587.71 1923.68,-3589.49 1922.32,-3591.25 1920.86,-3592.97 1919.3,-3594.65 1917.65,-3596.3 1915.92,-3597.9 1914.12,-3599.44 1912.25,-3600.94 1910.32,-3602.37 1908.34,-3603.74 1906.31,-3605.05 1904.23,-3606.28 1902.12,-3607.44 1899.98,-3608.53 1897.8,-3609.53 1895.61,-3610.46 1893.39,-3611.29 1891.16,-3612.04 1888.91,-3612.71 1886.65,-3613.28 1884.38,-3613.75 1882.1,-3614.14 1879.82,-3614.43 1877.53,-3614.62 1875.24,-3614.72 1872.96,-3614.72 1870.67,-3614.62 1868.38,-3614.43 1866.1,-3614.14 1863.82,-3613.75 1861.55,-3613.28 1859.29,-3612.71 1857.04,-3612.04 1854.81,-3611.29 1852.59,-3610.46 1850.4,-3609.53 1848.22,-3608.53 1846.08,-3607.44 1843.97,-3606.28 1841.89,-3605.05 1839.86,-3603.74 1837.88,-3602.37 1835.95,-3600.94 1834.08,-3599.44 1832.28,-3597.9 1830.55,-3596.3 1828.9,-3594.65 1827.34,-3592.97 1825.88,-3591.25 1824.52,-3589.49 1823.27,-3587.71 1822.14,-3585.9 1821.14,-3584.08 1820.27,-3582.25 1819.53,-3580.4 1818.95,-3578.56 1818.52,-3576.71 1818.25,-3574.88 1818.14,-3573.06 1818.21,-3571.25 1818.45,-3569.47 1818.86,-3567.71 1819.46,-3565.99 1820.24,-3564.31 1821.2,-3562.66 1822.34,-3561.06 1823.67,-3559.52 1825.18,-3558.02 1826.86,-3556.59 1828.72,-3555.22 1830.76,-3553.91 1832.95,-3552.68 1835.31,-3551.52 1837.81,-3550.43 1840.46,-3549.43 1843.24,-3548.5 1846.14,-3547.67 1849.16,-3546.92 1852.27,-3546.25 1855.48,-3545.68 1858.76,-3545.21 1862.1,-3544.82 1865.49,-3544.53 1868.92,-3544.34 1872.37,-3544.24 1875.83,-3544.24 1879.28,-3544.34"/>
<text text-anchor="start" x="1844.93" y="-3589.28" font-family="Times,serif" font-size="14.00">C0033684</text>
<text text-anchor="start" x="1866.31" y="-3575.28" font-family="Times,serif" font-size="14.00">FP</text>
<text text-anchor="start" x="1851.16" y="-3561.28" font-family="Times,serif" font-size="14.00">103:103</text>
</g>
<!-- id_27240257_DOT_14&#45;&#45;id_27240257_DOT_15 -->
<g id="edge8" class="edge">
<title>id_27240257_DOT_14&#45;&#45;id_27240257_DOT_15</title>
<path fill="none" stroke="black" d="M1535.77,-3442.52C1606.77,-3471.26 1748.15,-3528.49 1823.72,-3559.08"/>
<text text-anchor="middle" x="1653.5" y="-3503.6" font-family="Times,serif" font-size="14.00">0.000776</text>
</g>
<!-- id_27240257_DOT_19 -->
<g id="node19" class="node">
<title>id_27240257_DOT_19</title>
<polygon fill="aquamarine" stroke="aquamarine" points="103.68,-5119.49 109.49,-5119.68 115.24,-5119.97 120.9,-5120.35 126.46,-5120.83 131.89,-5121.4 137.17,-5122.06 142.28,-5122.81 147.2,-5123.65 151.91,-5124.57 156.39,-5125.58 160.63,-5126.66 164.62,-5127.82 168.34,-5129.06 171.79,-5130.36 174.94,-5131.73 177.8,-5133.17 180.35,-5134.66 182.6,-5136.21 184.54,-5137.81 186.17,-5139.45 187.49,-5141.14 188.5,-5142.86 189.2,-5144.61 189.61,-5146.4 189.71,-5148.2 189.53,-5150.02 189.08,-5151.86 188.35,-5153.7 187.36,-5155.55 186.12,-5157.39 184.64,-5159.23 182.94,-5161.05 181.03,-5162.85 178.91,-5164.64 176.6,-5166.39 174.13,-5168.11 171.48,-5169.8 168.69,-5171.44 165.76,-5173.04 162.71,-5174.59 159.54,-5176.08 156.27,-5177.52 152.91,-5178.89 149.47,-5180.19 145.96,-5181.43 142.38,-5182.59 138.75,-5183.67 135.07,-5184.68 131.35,-5185.6 127.59,-5186.44 123.8,-5187.19 120,-5187.85 116.17,-5188.42 112.32,-5188.9 108.46,-5189.28 104.6,-5189.57 100.72,-5189.76 96.84,-5189.86 92.97,-5189.86 89.09,-5189.76 85.21,-5189.57 81.35,-5189.28 77.49,-5188.9 73.64,-5188.42 69.81,-5187.85 66,-5187.19 62.22,-5186.44 58.46,-5185.6 54.74,-5184.68 51.06,-5183.67 47.43,-5182.59 43.85,-5181.43 40.34,-5180.19 36.9,-5178.89 33.54,-5177.52 30.27,-5176.08 27.1,-5174.59 24.05,-5173.04 21.12,-5171.44 18.33,-5169.8 15.68,-5168.11 13.2,-5166.39 10.9,-5164.64 8.78,-5162.85 6.87,-5161.05 5.17,-5159.23 3.69,-5157.39 2.45,-5155.55 1.46,-5153.7 0.73,-5151.86 0.27,-5150.02 0.1,-5148.2 0.2,-5146.4 0.61,-5144.61 1.31,-5142.86 2.32,-5141.14 3.64,-5139.45 5.27,-5137.81 7.21,-5136.21 9.46,-5134.66 12.01,-5133.17 14.87,-5131.73 18.02,-5130.36 21.47,-5129.06 25.19,-5127.82 29.17,-5126.66 33.42,-5125.58 37.9,-5124.57 42.61,-5123.65 47.53,-5122.81 52.64,-5122.06 57.92,-5121.4 63.35,-5120.83 68.91,-5120.35 74.57,-5119.97 80.32,-5119.68 86.13,-5119.49 91.98,-5119.39 97.83,-5119.39 103.68,-5119.49"/>
<text text-anchor="start" x="65.74" y="-5164.42" font-family="Times,serif" font-size="14.00">C0033684</text>
<text text-anchor="start" x="39.89" y="-5150.42" font-family="Times,serif" font-size="14.00">fluorescent proteins</text>
<text text-anchor="start" x="71.96" y="-5136.42" font-family="Times,serif" font-size="14.00">148:149</text>
</g>
<!-- id_27240257_DOT_18&#45;&#45;id_27240257_DOT_19 -->
<g id="edge9" class="edge">
<title>id_27240257_DOT_18&#45;&#45;id_27240257_DOT_19</title>
<path fill="none" stroke="black" d="M321.09,-4932.08C271.97,-4980.41 179.24,-5071.65 129.12,-5120.96"/>
<text text-anchor="middle" x="198.86" y="-5029.32" font-family="Times,serif" font-size="14.00">0.004515</text>
</g>
</g>
</svg>
