<?xml version="1.0" encoding="UTF-8" standalone="no"?>
<!DOCTYPE svg PUBLIC "-//W3C//DTD SVG 1.1//EN"
 "http://www.w3.org/Graphics/SVG/1.1/DTD/svg11.dtd">
<!-- Generated by graphviz version 2.42.3 (20191010.1750)
 -->
<!-- Title: MST Pages: 1 -->
<svg width="5152pt" height="3255pt"
 viewBox="0.00 0.00 5152.39 3255.00" xmlns="http://www.w3.org/2000/svg" xmlns:xlink="http://www.w3.org/1999/xlink">
<g id="graph0" class="graph" transform="scale(1 1) rotate(0) translate(4 3251)">
<title>MST</title>
<polygon fill="white" stroke="transparent" points="-4,4 -4,-3251 5148.39,-3251 5148.39,4 -4,4"/>
<!-- id_27240560_DOT_1 -->
<g id="node1" class="node">
<title>id_27240560_DOT_1</title>
<polygon fill="aquamarine" stroke="aquamarine" points="1285.22,-483.75 1295.66,-483.94 1305.99,-484.23 1316.16,-484.62 1326.15,-485.09 1335.9,-485.66 1345.39,-486.33 1354.56,-487.08 1363.4,-487.91 1371.86,-488.84 1379.92,-489.84 1387.54,-490.93 1394.71,-492.09 1401.39,-493.32 1407.57,-494.63 1413.24,-496 1418.37,-497.43 1422.96,-498.93 1427,-500.47 1430.49,-502.07 1433.41,-503.72 1435.78,-505.4 1437.6,-507.12 1438.86,-508.88 1439.58,-510.66 1439.78,-512.47 1439.46,-514.29 1438.63,-516.12 1437.32,-517.97 1435.55,-519.81 1433.32,-521.66 1430.67,-523.49 1427.61,-525.31 1424.17,-527.12 1420.37,-528.9 1416.23,-530.66 1411.78,-532.38 1407.03,-534.06 1402.02,-535.71 1396.76,-537.31 1391.27,-538.85 1385.58,-540.35 1379.71,-541.78 1373.67,-543.15 1367.49,-544.46 1361.18,-545.69 1354.75,-546.85 1348.22,-547.94 1341.61,-548.94 1334.93,-549.87 1328.18,-550.7 1321.38,-551.45 1314.54,-552.12 1307.66,-552.69 1300.75,-553.16 1293.82,-553.55 1286.87,-553.84 1279.91,-554.03 1272.95,-554.13 1265.98,-554.13 1259.01,-554.03 1252.06,-553.84 1245.11,-553.55 1238.18,-553.16 1231.27,-552.69 1224.39,-552.12 1217.55,-551.45 1210.75,-550.7 1204,-549.87 1197.32,-548.94 1190.71,-547.94 1184.18,-546.85 1177.75,-545.69 1171.44,-544.46 1165.26,-543.15 1159.22,-541.78 1153.35,-540.35 1147.66,-538.85 1142.17,-537.31 1136.91,-535.71 1131.9,-534.06 1127.15,-532.38 1122.7,-530.66 1118.56,-528.9 1114.76,-527.12 1111.31,-525.31 1108.26,-523.49 1105.61,-521.66 1103.38,-519.81 1101.6,-517.97 1100.29,-516.12 1099.47,-514.29 1099.15,-512.47 1099.34,-510.66 1100.07,-508.88 1101.33,-507.12 1103.15,-505.4 1105.51,-503.72 1108.44,-502.07 1111.92,-500.47 1115.96,-498.93 1120.55,-497.43 1125.69,-496 1131.35,-494.63 1137.54,-493.32 1144.22,-492.09 1151.39,-490.93 1159.01,-489.84 1167.07,-488.84 1175.53,-487.91 1184.36,-487.08 1193.54,-486.33 1203.03,-485.66 1212.78,-485.09 1222.77,-484.62 1232.94,-484.23 1243.27,-483.94 1253.7,-483.75 1264.2,-483.65 1274.72,-483.65 1285.22,-483.75"/>
<text text-anchor="start" x="1240.3" y="-528.69" font-family="Times,serif" font-size="14.00">C1271941</text>
<text text-anchor="start" x="1164.48" y="-514.69" font-family="Times,serif" font-size="14.00">Consumption of fruits and vegetables</text>
<text text-anchor="start" x="1260.52" y="-500.69" font-family="Times,serif" font-size="14.00">0:4</text>
</g>
<!-- id_27240560_DOT_3 -->
<g id="node3" class="node">
<title>id_27240560_DOT_3</title>
<polygon fill="aquamarine" stroke="aquamarine" points="923.57,-655.23 933.84,-655.42 944,-655.71 954.01,-656.09 963.84,-656.57 973.44,-657.14 982.77,-657.8 991.8,-658.55 1000.5,-659.39 1008.83,-660.31 1016.76,-661.32 1024.26,-662.4 1031.31,-663.57 1037.89,-664.8 1043.97,-666.1 1049.55,-667.48 1054.6,-668.91 1059.12,-670.4 1063.09,-671.95 1066.52,-673.55 1069.4,-675.19 1071.73,-676.88 1073.52,-678.6 1074.76,-680.36 1075.48,-682.14 1075.67,-683.94 1075.35,-685.77 1074.54,-687.6 1073.25,-689.44 1071.5,-691.29 1069.31,-693.13 1066.7,-694.97 1063.69,-696.79 1060.31,-698.6 1056.57,-700.38 1052.49,-702.13 1048.11,-703.86 1043.44,-705.54 1038.5,-707.19 1033.33,-708.78 1027.93,-710.33 1022.33,-711.82 1016.55,-713.26 1010.61,-714.63 1004.52,-715.94 998.31,-717.17 991.99,-718.33 985.56,-719.42 979.06,-720.42 972.48,-721.34 965.84,-722.18 959.15,-722.93 952.41,-723.59 945.64,-724.16 938.85,-724.64 932.02,-725.02 925.19,-725.31 918.34,-725.51 911.48,-725.6 904.63,-725.6 897.77,-725.51 890.92,-725.31 884.09,-725.02 877.27,-724.64 870.47,-724.16 863.7,-723.59 856.96,-722.93 850.27,-722.18 843.63,-721.34 837.05,-720.42 830.55,-719.42 824.13,-718.33 817.8,-717.17 811.59,-715.94 805.5,-714.63 799.56,-713.26 793.78,-711.82 788.18,-710.33 782.79,-708.78 777.61,-707.19 772.67,-705.54 768,-703.86 763.62,-702.13 759.55,-700.38 755.81,-698.6 752.42,-696.79 749.41,-694.97 746.8,-693.13 744.61,-691.29 742.86,-689.44 741.57,-687.6 740.76,-685.77 740.45,-683.94 740.64,-682.14 741.35,-680.36 742.6,-678.6 744.38,-676.88 746.71,-675.19 749.59,-673.55 753.02,-671.95 756.99,-670.4 761.51,-668.91 766.56,-667.48 772.14,-666.1 778.22,-664.8 784.8,-663.57 791.85,-662.4 799.36,-661.32 807.29,-660.31 815.61,-659.39 824.31,-658.55 833.34,-657.8 842.67,-657.14 852.27,-656.57 862.1,-656.09 872.11,-655.71 882.28,-655.42 892.55,-655.23 902.88,-655.13 913.23,-655.13 923.57,-655.23"/>
<text text-anchor="start" x="878.89" y="-700.17" font-family="Times,serif" font-size="14.00">C1271941</text>
<text text-anchor="start" x="804.64" y="-686.17" font-family="Times,serif" font-size="14.00">consumption of fruits and vegetables</text>
<text text-anchor="start" x="892.11" y="-672.17" font-family="Times,serif" font-size="14.00">20:24</text>
</g>
<!-- id_27240560_DOT_1&#45;&#45;id_27240560_DOT_3 -->
<g id="edge1" class="edge">
<title>id_27240560_DOT_1&#45;&#45;id_27240560_DOT_3</title>
<path fill="none" stroke="black" d="M1204.02,-549.94C1140.04,-580.3 1042.99,-626.34 977.64,-657.35"/>
<text text-anchor="middle" x="1064.58" y="-606.45" font-family="Times,serif" font-size="14.00">0.008182</text>
</g>
<!-- id_27240560_DOT_11 -->
<g id="node11" class="node">
<title>id_27240560_DOT_11</title>
<polygon fill="aquamarine" stroke="aquamarine" points="1203.87,-80.17 1214.13,-80.36 1224.3,-80.65 1234.31,-81.04 1244.14,-81.51 1253.74,-82.08 1263.07,-82.75 1272.1,-83.5 1280.8,-84.33 1289.13,-85.26 1297.05,-86.26 1304.56,-87.35 1311.61,-88.51 1318.19,-89.74 1324.27,-91.05 1329.85,-92.42 1334.9,-93.85 1339.42,-95.35 1343.39,-96.89 1346.82,-98.49 1349.7,-100.14 1352.03,-101.82 1353.82,-103.54 1355.06,-105.3 1355.77,-107.08 1355.97,-108.89 1355.65,-110.71 1354.84,-112.54 1353.55,-114.39 1351.8,-116.23 1349.61,-118.08 1347,-119.91 1343.99,-121.73 1340.61,-123.54 1336.86,-125.32 1332.79,-127.08 1328.41,-128.8 1323.74,-130.48 1318.8,-132.13 1313.62,-133.73 1308.23,-135.27 1302.63,-136.77 1296.85,-138.2 1290.91,-139.57 1284.82,-140.88 1278.61,-142.11 1272.29,-143.27 1265.86,-144.36 1259.36,-145.36 1252.78,-146.29 1246.14,-147.12 1239.45,-147.87 1232.71,-148.54 1225.94,-149.11 1219.14,-149.58 1212.32,-149.97 1205.49,-150.26 1198.64,-150.45 1191.78,-150.55 1184.93,-150.55 1178.07,-150.45 1171.22,-150.26 1164.39,-149.97 1157.57,-149.58 1150.77,-149.11 1144,-148.54 1137.26,-147.87 1130.57,-147.12 1123.93,-146.29 1117.35,-145.36 1110.85,-144.36 1104.42,-143.27 1098.1,-142.11 1091.89,-140.88 1085.8,-139.57 1079.86,-138.2 1074.08,-136.77 1068.48,-135.27 1063.09,-133.73 1057.91,-132.13 1052.97,-130.48 1048.3,-128.8 1043.92,-127.08 1039.85,-125.32 1036.1,-123.54 1032.72,-121.73 1029.71,-119.91 1027.1,-118.08 1024.91,-116.23 1023.16,-114.39 1021.87,-112.54 1021.06,-110.71 1020.74,-108.89 1020.94,-107.08 1021.65,-105.3 1022.89,-103.54 1024.68,-101.82 1027.01,-100.14 1029.89,-98.49 1033.32,-96.89 1037.29,-95.35 1041.81,-93.85 1046.86,-92.42 1052.44,-91.05 1058.52,-89.74 1065.1,-88.51 1072.15,-87.35 1079.66,-86.26 1087.58,-85.26 1095.91,-84.33 1104.61,-83.5 1113.64,-82.75 1122.97,-82.08 1132.57,-81.51 1142.4,-81.04 1152.41,-80.65 1162.58,-80.36 1172.84,-80.17 1183.18,-80.07 1193.53,-80.07 1203.87,-80.17"/>
<text text-anchor="start" x="1159.19" y="-125.11" font-family="Times,serif" font-size="14.00">C1271941</text>
<text text-anchor="start" x="1084.93" y="-111.11" font-family="Times,serif" font-size="14.00">consumption of fruits and vegetables</text>
<text text-anchor="start" x="1172.41" y="-97.11" font-family="Times,serif" font-size="14.00">86:90</text>
</g>
<!-- id_27240560_DOT_1&#45;&#45;id_27240560_DOT_11 -->
<g id="edge2" class="edge">
<title>id_27240560_DOT_1&#45;&#45;id_27240560_DOT_11</title>
<path fill="none" stroke="black" d="M1262.34,-483.43C1246.95,-406.87 1210.78,-226.9 1195.44,-150.55"/>
<text text-anchor="middle" x="1202.64" y="-319.79" font-family="Times,serif" font-size="14.00">0.014671</text>
</g>
<!-- id_27240560_DOT_23 -->
<g id="node23" class="node">
<title>id_27240560_DOT_23</title>
<polygon fill="blue" stroke="blue" points="1637.17,-650.4 1640.65,-650.6 1644.08,-650.88 1647.47,-651.27 1650.8,-651.75 1654.04,-652.32 1657.2,-652.98 1660.26,-653.73 1663.2,-654.57 1666.02,-655.49 1668.7,-656.49 1671.24,-657.58 1673.62,-658.74 1675.85,-659.97 1677.91,-661.28 1679.79,-662.65 1681.5,-664.08 1683.03,-665.58 1684.38,-667.12 1685.54,-668.72 1686.51,-670.37 1687.3,-672.05 1687.9,-673.78 1688.33,-675.53 1688.57,-677.31 1688.63,-679.12 1688.52,-680.94 1688.25,-682.78 1687.81,-684.62 1687.22,-686.46 1686.48,-688.31 1685.6,-690.14 1684.58,-691.96 1683.43,-693.77 1682.17,-695.55 1680.79,-697.31 1679.31,-699.03 1677.73,-700.72 1676.06,-702.36 1674.31,-703.96 1672.48,-705.51 1670.59,-707 1668.63,-708.43 1666.62,-709.8 1664.56,-711.11 1662.46,-712.34 1660.32,-713.51 1658.15,-714.59 1655.95,-715.6 1653.72,-716.52 1651.47,-717.36 1649.21,-718.11 1646.93,-718.77 1644.64,-719.34 1642.34,-719.82 1640.03,-720.2 1637.72,-720.49 1635.4,-720.68 1633.08,-720.78 1630.76,-720.78 1628.45,-720.68 1626.13,-720.49 1623.82,-720.2 1621.51,-719.82 1619.21,-719.34 1616.92,-718.77 1614.64,-718.11 1612.37,-717.36 1610.13,-716.52 1607.9,-715.6 1605.7,-714.59 1603.53,-713.51 1601.39,-712.34 1599.29,-711.11 1597.23,-709.8 1595.22,-708.43 1593.26,-707 1591.37,-705.51 1589.54,-703.96 1587.79,-702.36 1586.12,-700.72 1584.54,-699.03 1583.06,-697.31 1581.68,-695.55 1580.41,-693.77 1579.27,-691.96 1578.25,-690.14 1577.37,-688.31 1576.63,-686.46 1576.03,-684.62 1575.6,-682.78 1575.32,-680.94 1575.22,-679.12 1575.28,-677.31 1575.52,-675.53 1575.94,-673.78 1576.55,-672.05 1577.34,-670.37 1578.31,-668.72 1579.47,-667.12 1580.82,-665.58 1582.34,-664.08 1584.05,-662.65 1585.94,-661.28 1588,-659.97 1590.22,-658.74 1592.61,-657.58 1595.15,-656.49 1597.83,-655.49 1600.65,-654.57 1603.59,-653.73 1606.65,-652.98 1609.8,-652.32 1613.05,-651.75 1616.38,-651.27 1619.76,-650.88 1623.2,-650.6 1626.68,-650.4 1630.17,-650.31 1633.68,-650.31 1637.17,-650.4"/>
<text text-anchor="start" x="1602.76" y="-695.34" font-family="Times,serif" font-size="14.00">C3489624</text>
<text text-anchor="start" x="1602.17" y="-681.34" font-family="Times,serif" font-size="14.00">soft drinks</text>
<text text-anchor="start" x="1608.98" y="-667.34" font-family="Times,serif" font-size="14.00">256:257</text>
</g>
<!-- id_27240560_DOT_1&#45;&#45;id_27240560_DOT_23 -->
<g id="edge13" class="edge">
<title>id_27240560_DOT_1&#45;&#45;id_27240560_DOT_23</title>
<path fill="none" stroke="black" stroke-dasharray="1,5" d="M1336.79,-549.85C1408.34,-582.74 1519.73,-633.96 1583.23,-663.15"/>
<text text-anchor="middle" x="1433.76" y="-609.3" font-family="Times,serif" font-size="14.00">0.861621</text>
</g>
<!-- id_27240560_DOT_2 -->
<g id="node2" class="node">
<title>id_27240560_DOT_2</title>
<polygon fill="bisque" stroke="bisque" points="3781.46,-2842.81 3786.44,-2843 3791.37,-2843.29 3796.23,-2843.67 3801,-2844.15 3805.66,-2844.72 3810.19,-2845.38 3814.58,-2846.13 3818.8,-2846.97 3822.84,-2847.89 3826.69,-2848.9 3830.33,-2849.98 3833.75,-2851.14 3836.95,-2852.38 3839.9,-2853.68 3842.61,-2855.05 3845.06,-2856.49 3847.25,-2857.98 3849.18,-2859.53 3850.84,-2861.13 3852.24,-2862.77 3853.37,-2864.46 3854.24,-2866.18 3854.84,-2867.93 3855.19,-2869.72 3855.28,-2871.52 3855.13,-2873.34 3854.74,-2875.18 3854.11,-2877.02 3853.26,-2878.87 3852.2,-2880.71 3850.93,-2882.54 3849.47,-2884.37 3847.83,-2886.17 3846.01,-2887.95 3844.03,-2889.71 3841.91,-2891.43 3839.64,-2893.12 3837.24,-2894.76 3834.73,-2896.36 3832.11,-2897.91 3829.39,-2899.4 3826.59,-2900.84 3823.7,-2902.21 3820.75,-2903.51 3817.74,-2904.75 3814.67,-2905.91 3811.55,-2906.99 3808.39,-2908 3805.2,-2908.92 3801.97,-2909.76 3798.73,-2910.51 3795.46,-2911.17 3792.17,-2911.74 3788.87,-2912.22 3785.56,-2912.6 3782.24,-2912.89 3778.92,-2913.08 3775.59,-2913.18 3772.26,-2913.18 3768.94,-2913.08 3765.61,-2912.89 3762.29,-2912.6 3758.98,-2912.22 3755.68,-2911.74 3752.4,-2911.17 3749.13,-2910.51 3745.88,-2909.76 3742.66,-2908.92 3739.46,-2908 3736.31,-2906.99 3733.19,-2905.91 3730.12,-2904.75 3727.1,-2903.51 3724.15,-2902.21 3721.27,-2900.84 3718.46,-2899.4 3715.74,-2897.91 3713.12,-2896.36 3710.61,-2894.76 3708.21,-2893.12 3705.95,-2891.43 3703.82,-2889.71 3701.84,-2887.95 3700.03,-2886.17 3698.38,-2884.37 3696.92,-2882.54 3695.65,-2880.71 3694.59,-2878.87 3693.74,-2877.02 3693.12,-2875.18 3692.72,-2873.34 3692.57,-2871.52 3692.66,-2869.72 3693.01,-2867.93 3693.61,-2866.18 3694.48,-2864.46 3695.61,-2862.77 3697.01,-2861.13 3698.67,-2859.53 3700.6,-2857.98 3702.8,-2856.49 3705.25,-2855.05 3707.95,-2853.68 3710.91,-2852.38 3714.1,-2851.14 3717.52,-2849.98 3721.17,-2848.9 3725.01,-2847.89 3729.06,-2846.97 3733.28,-2846.13 3737.66,-2845.38 3742.19,-2844.72 3746.85,-2844.15 3751.62,-2843.67 3756.48,-2843.29 3761.41,-2843 3766.4,-2842.81 3771.41,-2842.71 3776.44,-2842.71 3781.46,-2842.81"/>
<text text-anchor="start" x="3744.76" y="-2887.74" font-family="Times,serif" font-size="14.00">C0006137</text>
<text text-anchor="start" x="3727.86" y="-2873.74" font-family="Times,serif" font-size="14.00">Northeast Brazil</text>
<text text-anchor="start" x="3757.98" y="-2859.74" font-family="Times,serif" font-size="14.00">13:14</text>
</g>
<!-- id_27240560_DOT_6 -->
<g id="node6" class="node">
<title>id_27240560_DOT_6</title>
<polygon fill="brown" stroke="brown" points="3657.98,-2490.91 3661.41,-2491.1 3664.8,-2491.39 3668.15,-2491.77 3671.43,-2492.25 3674.63,-2492.82 3677.75,-2493.48 3680.76,-2494.23 3683.67,-2495.07 3686.45,-2495.99 3689.09,-2497 3691.6,-2498.08 3693.95,-2499.24 3696.15,-2500.48 3698.18,-2501.78 3700.04,-2503.15 3701.73,-2504.59 3703.24,-2506.08 3704.56,-2507.63 3705.71,-2509.23 3706.67,-2510.87 3707.45,-2512.56 3708.04,-2514.28 3708.46,-2516.03 3708.7,-2517.82 3708.76,-2519.62 3708.66,-2521.44 3708.38,-2523.28 3707.95,-2525.12 3707.37,-2526.97 3706.64,-2528.81 3705.77,-2530.65 3704.76,-2532.47 3703.63,-2534.27 3702.38,-2536.06 3701.02,-2537.81 3699.56,-2539.53 3698,-2541.22 3696.35,-2542.86 3694.63,-2544.46 3692.82,-2546.01 3690.95,-2547.5 3689.03,-2548.94 3687.04,-2550.31 3685.01,-2551.61 3682.94,-2552.85 3680.82,-2554.01 3678.68,-2555.09 3676.51,-2556.1 3674.31,-2557.02 3672.1,-2557.86 3669.86,-2558.61 3667.61,-2559.27 3665.35,-2559.84 3663.08,-2560.32 3660.81,-2560.7 3658.52,-2560.99 3656.24,-2561.18 3653.95,-2561.28 3651.66,-2561.28 3649.37,-2561.18 3647.09,-2560.99 3644.8,-2560.7 3642.53,-2560.32 3640.26,-2559.84 3638,-2559.27 3635.75,-2558.61 3633.51,-2557.86 3631.3,-2557.02 3629.1,-2556.1 3626.93,-2555.09 3624.79,-2554.01 3622.67,-2552.85 3620.6,-2551.61 3618.57,-2550.31 3616.58,-2548.94 3614.66,-2547.5 3612.79,-2546.01 3610.98,-2544.46 3609.26,-2542.86 3607.61,-2541.22 3606.05,-2539.53 3604.59,-2537.81 3603.23,-2536.06 3601.98,-2534.27 3600.85,-2532.47 3599.84,-2530.65 3598.97,-2528.81 3598.24,-2526.97 3597.66,-2525.12 3597.22,-2523.28 3596.95,-2521.44 3596.85,-2519.62 3596.91,-2517.82 3597.15,-2516.03 3597.57,-2514.28 3598.16,-2512.56 3598.94,-2510.87 3599.9,-2509.23 3601.05,-2507.63 3602.37,-2506.08 3603.88,-2504.59 3605.57,-2503.15 3607.43,-2501.78 3609.46,-2500.48 3611.66,-2499.24 3614.01,-2498.08 3616.52,-2497 3619.16,-2495.99 3621.94,-2495.07 3624.85,-2494.23 3627.86,-2493.48 3630.98,-2492.82 3634.18,-2492.25 3637.46,-2491.77 3640.81,-2491.39 3644.2,-2491.1 3647.63,-2490.91 3651.08,-2490.81 3654.53,-2490.81 3657.98,-2490.91"/>
<text text-anchor="start" x="3623.64" y="-2535.85" font-family="Times,serif" font-size="14.00">C0028754</text>
<text text-anchor="start" x="3632.58" y="-2521.85" font-family="Times,serif" font-size="14.00">obesity</text>
<text text-anchor="start" x="3636.86" y="-2507.85" font-family="Times,serif" font-size="14.00">48:48</text>
</g>
<!-- id_27240560_DOT_2&#45;&#45;id_27240560_DOT_6 -->
<g id="edge14" class="edge">
<title>id_27240560_DOT_2&#45;&#45;id_27240560_DOT_6</title>
<path fill="none" stroke="black" stroke-dasharray="1,5" d="M3761.87,-2842.92C3738.56,-2775.2 3687.6,-2627.13 3664.54,-2560.15"/>
<text text-anchor="middle" x="3686.96" y="-2704.34" font-family="Times,serif" font-size="14.00">0.910889</text>
</g>
<!-- id_27240560_DOT_10 -->
<g id="node10" class="node">
<title>id_27240560_DOT_10</title>
<polygon fill="bisque" stroke="bisque" points="3934.36,-3176.49 3937.79,-3176.68 3941.18,-3176.97 3944.52,-3177.36 3947.8,-3177.83 3951.01,-3178.4 3954.12,-3179.07 3957.14,-3179.82 3960.04,-3180.65 3962.82,-3181.58 3965.47,-3182.58 3967.97,-3183.67 3970.33,-3184.83 3972.52,-3186.06 3974.55,-3187.37 3976.42,-3188.74 3978.1,-3190.17 3979.61,-3191.67 3980.94,-3193.21 3982.08,-3194.81 3983.04,-3196.46 3983.82,-3198.14 3984.42,-3199.86 3984.83,-3201.62 3985.07,-3203.4 3985.14,-3205.21 3985.03,-3207.03 3984.76,-3208.86 3984.33,-3210.71 3983.74,-3212.55 3983.01,-3214.4 3982.14,-3216.23 3981.14,-3218.05 3980.01,-3219.86 3978.76,-3221.64 3977.4,-3223.4 3975.93,-3225.12 3974.38,-3226.8 3972.73,-3228.45 3971,-3230.05 3969.2,-3231.59 3967.33,-3233.09 3965.4,-3234.52 3963.42,-3235.89 3961.38,-3237.2 3959.31,-3238.43 3957.2,-3239.59 3955.05,-3240.68 3952.88,-3241.68 3950.69,-3242.61 3948.47,-3243.44 3946.24,-3244.19 3943.99,-3244.86 3941.73,-3245.43 3939.46,-3245.9 3937.18,-3246.29 3934.9,-3246.58 3932.61,-3246.77 3930.32,-3246.87 3928.03,-3246.87 3925.75,-3246.77 3923.46,-3246.58 3921.18,-3246.29 3918.9,-3245.9 3916.63,-3245.43 3914.37,-3244.86 3912.12,-3244.19 3909.89,-3243.44 3907.67,-3242.61 3905.47,-3241.68 3903.3,-3240.68 3901.16,-3239.59 3899.05,-3238.43 3896.97,-3237.2 3894.94,-3235.89 3892.96,-3234.52 3891.03,-3233.09 3889.16,-3231.59 3887.36,-3230.05 3885.63,-3228.45 3883.98,-3226.8 3882.42,-3225.12 3880.96,-3223.4 3879.6,-3221.64 3878.35,-3219.86 3877.22,-3218.05 3876.21,-3216.23 3875.34,-3214.4 3874.61,-3212.55 3874.03,-3210.71 3873.6,-3208.86 3873.33,-3207.03 3873.22,-3205.21 3873.29,-3203.4 3873.52,-3201.62 3873.94,-3199.86 3874.54,-3198.14 3875.31,-3196.46 3876.27,-3194.81 3877.42,-3193.21 3878.75,-3191.67 3880.26,-3190.17 3881.94,-3188.74 3883.8,-3187.37 3885.83,-3186.06 3888.03,-3184.83 3890.38,-3183.67 3892.89,-3182.58 3895.54,-3181.58 3898.32,-3180.65 3901.22,-3179.82 3904.23,-3179.07 3907.35,-3178.4 3910.56,-3177.83 3913.84,-3177.36 3917.18,-3176.97 3920.57,-3176.68 3924,-3176.49 3927.45,-3176.39 3930.91,-3176.39 3934.36,-3176.49"/>
<text text-anchor="start" x="3900.01" y="-3221.43" font-family="Times,serif" font-size="14.00">C0006137</text>
<text text-anchor="start" x="3912.08" y="-3207.43" font-family="Times,serif" font-size="14.00">Brazil</text>
<text text-anchor="start" x="3913.23" y="-3193.43" font-family="Times,serif" font-size="14.00">80:80</text>
</g>
<!-- id_27240560_DOT_2&#45;&#45;id_27240560_DOT_10 -->
<g id="edge3" class="edge">
<title>id_27240560_DOT_2&#45;&#45;id_27240560_DOT_10</title>
<path fill="none" stroke="black" d="M3789.81,-2912.09C3819.57,-2976.04 3883.38,-3113.18 3913.2,-3177.29"/>
<text text-anchor="middle" x="3825.26" y="-3047.49" font-family="Times,serif" font-size="14.00">0.082879</text>
</g>
<!-- id_27240560_DOT_20 -->
<g id="node20" class="node">
<title>id_27240560_DOT_20</title>
<polygon fill="aquamarine" stroke="aquamarine" points="551.04,-714.28 561.31,-714.47 571.47,-714.76 581.49,-715.14 591.31,-715.62 600.91,-716.19 610.25,-716.85 619.28,-717.6 627.97,-718.44 636.3,-719.36 644.23,-720.37 651.73,-721.45 658.78,-722.61 665.36,-723.85 671.45,-725.15 677.02,-726.52 682.07,-727.96 686.59,-729.45 690.57,-731 694,-732.6 696.88,-734.24 699.21,-735.93 700.99,-737.65 702.23,-739.4 702.95,-741.19 703.14,-742.99 702.82,-744.81 702.01,-746.65 700.72,-748.49 698.97,-750.34 696.79,-752.18 694.18,-754.02 691.17,-755.84 687.78,-757.64 684.04,-759.43 679.96,-761.18 675.58,-762.9 670.91,-764.59 665.98,-766.23 660.8,-767.83 655.4,-769.38 649.8,-770.87 644.02,-772.31 638.08,-773.68 632,-774.98 625.78,-776.22 619.46,-777.38 613.04,-778.46 606.53,-779.47 599.95,-780.39 593.31,-781.23 586.62,-781.98 579.89,-782.64 573.12,-783.21 566.32,-783.69 559.5,-784.07 552.66,-784.36 545.81,-784.55 538.96,-784.65 532.1,-784.65 525.25,-784.55 518.4,-784.36 511.56,-784.07 504.74,-783.69 497.94,-783.21 491.17,-782.64 484.44,-781.98 477.75,-781.23 471.11,-780.39 464.53,-779.47 458.02,-778.46 451.6,-777.38 445.27,-776.22 439.06,-774.98 432.98,-773.68 427.04,-772.31 421.26,-770.87 415.66,-769.38 410.26,-767.83 405.08,-766.23 400.15,-764.59 395.48,-762.9 391.09,-761.18 387.02,-759.43 383.28,-757.64 379.89,-755.84 376.88,-754.02 374.27,-752.18 372.08,-750.34 370.33,-748.49 369.05,-746.65 368.23,-744.81 367.92,-742.99 368.11,-741.19 368.82,-739.4 370.07,-737.65 371.85,-735.93 374.18,-734.24 377.06,-732.6 380.49,-731 384.47,-729.45 388.98,-727.96 394.04,-726.52 399.61,-725.15 405.7,-723.85 412.28,-722.61 419.33,-721.45 426.83,-720.37 434.76,-719.36 443.09,-718.44 451.78,-717.6 460.81,-716.85 470.15,-716.19 479.75,-715.62 489.57,-715.14 499.59,-714.76 509.75,-714.47 520.02,-714.28 530.35,-714.18 540.71,-714.18 551.04,-714.28"/>
<text text-anchor="start" x="506.36" y="-759.21" font-family="Times,serif" font-size="14.00">C1271941</text>
<text text-anchor="start" x="432.11" y="-745.21" font-family="Times,serif" font-size="14.00">consumption of fruits and vegetables</text>
<text text-anchor="start" x="512.58" y="-731.21" font-family="Times,serif" font-size="14.00">160:164</text>
</g>
<!-- id_27240560_DOT_3&#45;&#45;id_27240560_DOT_20 -->
<g id="edge4" class="edge">
<title>id_27240560_DOT_3&#45;&#45;id_27240560_DOT_20</title>
<path fill="none" stroke="black" d="M785.82,-709.74C751.45,-715.19 713.78,-721.16 678.33,-726.78"/>
<text text-anchor="middle" x="705.82" y="-707.06" font-family="Times,serif" font-size="14.00">0.012481</text>
</g>
<!-- id_27240560_DOT_4 -->
<g id="node4" class="node">
<title>id_27240560_DOT_4</title>
<polygon fill="blue" stroke="blue" points="2793.46,-879.74 2796.94,-879.94 2800.37,-880.23 2803.76,-880.61 2807.09,-881.09 2810.34,-881.66 2813.49,-882.32 2816.55,-883.07 2819.49,-883.91 2822.31,-884.83 2824.99,-885.83 2827.53,-886.92 2829.91,-888.08 2832.14,-889.32 2834.2,-890.62 2836.08,-891.99 2837.79,-893.43 2839.32,-894.92 2840.67,-896.47 2841.83,-898.06 2842.8,-899.71 2843.59,-901.39 2844.19,-903.12 2844.62,-904.87 2844.86,-906.65 2844.92,-908.46 2844.81,-910.28 2844.54,-912.12 2844.1,-913.96 2843.51,-915.81 2842.77,-917.65 2841.89,-919.48 2840.87,-921.31 2839.72,-923.11 2838.46,-924.89 2837.08,-926.65 2835.6,-928.37 2834.02,-930.06 2832.35,-931.7 2830.6,-933.3 2828.77,-934.85 2826.88,-936.34 2824.92,-937.77 2822.91,-939.15 2820.85,-940.45 2818.75,-941.69 2816.61,-942.85 2814.44,-943.93 2812.24,-944.94 2810.01,-945.86 2807.76,-946.7 2805.5,-947.45 2803.22,-948.11 2800.93,-948.68 2798.63,-949.16 2796.32,-949.54 2794.01,-949.83 2791.69,-950.02 2789.37,-950.12 2787.05,-950.12 2784.74,-950.02 2782.42,-949.83 2780.11,-949.54 2777.8,-949.16 2775.5,-948.68 2773.21,-948.11 2770.93,-947.45 2768.66,-946.7 2766.42,-945.86 2764.19,-944.94 2761.99,-943.93 2759.82,-942.85 2757.68,-941.69 2755.58,-940.45 2753.52,-939.15 2751.51,-937.77 2749.55,-936.34 2747.66,-934.85 2745.83,-933.3 2744.08,-931.7 2742.41,-930.06 2740.83,-928.37 2739.35,-926.65 2737.97,-924.89 2736.7,-923.11 2735.56,-921.31 2734.54,-919.48 2733.66,-917.65 2732.92,-915.81 2732.32,-913.96 2731.89,-912.12 2731.61,-910.28 2731.51,-908.46 2731.57,-906.65 2731.81,-904.87 2732.23,-903.12 2732.84,-901.39 2733.63,-899.71 2734.6,-898.06 2735.76,-896.47 2737.11,-894.92 2738.63,-893.43 2740.34,-891.99 2742.23,-890.62 2744.29,-889.32 2746.51,-888.08 2748.9,-886.92 2751.44,-885.83 2754.12,-884.83 2756.94,-883.91 2759.88,-883.07 2762.94,-882.32 2766.09,-881.66 2769.34,-881.09 2772.67,-880.61 2776.05,-880.23 2779.49,-879.94 2782.97,-879.74 2786.46,-879.65 2789.97,-879.65 2793.46,-879.74"/>
<text text-anchor="start" x="2759.05" y="-924.68" font-family="Times,serif" font-size="14.00">C3489624</text>
<text text-anchor="start" x="2758.46" y="-910.68" font-family="Times,serif" font-size="14.00">soft drinks</text>
<text text-anchor="start" x="2772.27" y="-896.68" font-family="Times,serif" font-size="14.00">43:44</text>
</g>
<!-- id_27240560_DOT_12 -->
<g id="node12" class="node">
<title>id_27240560_DOT_12</title>
<polygon fill="blue" stroke="blue" points="2386.46,-849.45 2389.94,-849.65 2393.38,-849.94 2396.76,-850.32 2400.09,-850.8 2403.34,-851.37 2406.49,-852.03 2409.55,-852.78 2412.49,-853.62 2415.31,-854.54 2417.99,-855.55 2420.53,-856.63 2422.92,-857.79 2425.14,-859.03 2427.2,-860.33 2429.09,-861.7 2430.8,-863.14 2432.32,-864.63 2433.67,-866.18 2434.83,-867.77 2435.8,-869.42 2436.59,-871.1 2437.2,-872.83 2437.62,-874.58 2437.86,-876.37 2437.92,-878.17 2437.82,-879.99 2437.54,-881.83 2437.1,-883.67 2436.51,-885.52 2435.77,-887.36 2434.89,-889.19 2433.87,-891.02 2432.73,-892.82 2431.46,-894.6 2430.08,-896.36 2428.6,-898.08 2427.02,-899.77 2425.35,-901.41 2423.6,-903.01 2421.77,-904.56 2419.88,-906.05 2417.92,-907.48 2415.91,-908.86 2413.85,-910.16 2411.75,-911.4 2409.61,-912.56 2407.44,-913.64 2405.24,-914.65 2403.01,-915.57 2400.77,-916.41 2398.5,-917.16 2396.22,-917.82 2393.93,-918.39 2391.63,-918.87 2389.32,-919.25 2387.01,-919.54 2384.69,-919.73 2382.38,-919.83 2380.06,-919.83 2377.74,-919.73 2375.42,-919.54 2373.11,-919.25 2370.8,-918.87 2368.5,-918.39 2366.21,-917.82 2363.93,-917.16 2361.67,-916.41 2359.42,-915.57 2357.19,-914.65 2354.99,-913.64 2352.82,-912.56 2350.68,-911.4 2348.58,-910.16 2346.52,-908.86 2344.51,-907.48 2342.55,-906.05 2340.66,-904.56 2338.83,-903.01 2337.08,-901.41 2335.41,-899.77 2333.83,-898.08 2332.35,-896.36 2330.97,-894.6 2329.7,-892.82 2328.56,-891.02 2327.54,-889.19 2326.66,-887.36 2325.92,-885.52 2325.33,-883.67 2324.89,-881.83 2324.62,-879.99 2324.51,-878.17 2324.57,-876.37 2324.81,-874.58 2325.24,-872.83 2325.84,-871.1 2326.63,-869.42 2327.6,-867.77 2328.76,-866.18 2330.11,-864.63 2331.64,-863.14 2333.34,-861.7 2335.23,-860.33 2337.29,-859.03 2339.52,-857.79 2341.9,-856.63 2344.44,-855.55 2347.12,-854.54 2349.94,-853.62 2352.88,-852.78 2355.94,-852.03 2359.09,-851.37 2362.34,-850.8 2365.67,-850.32 2369.06,-849.94 2372.49,-849.65 2375.97,-849.45 2379.46,-849.36 2382.97,-849.36 2386.46,-849.45"/>
<text text-anchor="start" x="2352.05" y="-894.39" font-family="Times,serif" font-size="14.00">C3489624</text>
<text text-anchor="start" x="2351.47" y="-880.39" font-family="Times,serif" font-size="14.00">soft drinks</text>
<text text-anchor="start" x="2359.04" y="-866.39" font-family="Times,serif" font-size="14.00">111:112</text>
</g>
<!-- id_27240560_DOT_4&#45;&#45;id_27240560_DOT_12 -->
<g id="edge5" class="edge">
<title>id_27240560_DOT_4&#45;&#45;id_27240560_DOT_12</title>
<path fill="none" stroke="black" d="M2731.62,-910.67C2653.21,-904.84 2512.48,-894.36 2435.38,-888.62"/>
<text text-anchor="middle" x="2557.25" y="-902.45" font-family="Times,serif" font-size="14.00">0.014197</text>
</g>
<!-- id_27240560_DOT_17 -->
<g id="node17" class="node">
<title>id_27240560_DOT_17</title>
<polygon fill="darkgoldenrod" stroke="darkgoldenrod" points="3251.63,-916.55 3256.44,-916.74 3261.2,-917.03 3265.89,-917.41 3270.49,-917.89 3274.99,-918.46 3279.36,-919.12 3283.59,-919.87 3287.66,-920.71 3291.56,-921.63 3295.28,-922.64 3298.79,-923.72 3302.09,-924.88 3305.17,-926.12 3308.02,-927.42 3310.63,-928.79 3313,-930.23 3315.12,-931.72 3316.98,-933.27 3318.58,-934.87 3319.93,-936.51 3321.02,-938.2 3321.86,-939.92 3322.44,-941.67 3322.78,-943.46 3322.87,-945.26 3322.72,-947.08 3322.34,-948.92 3321.73,-950.76 3320.92,-952.61 3319.89,-954.45 3318.67,-956.28 3317.26,-958.11 3315.67,-959.91 3313.92,-961.69 3312.01,-963.45 3309.96,-965.17 3307.77,-966.86 3305.46,-968.5 3303.04,-970.1 3300.51,-971.65 3297.89,-973.14 3295.18,-974.58 3292.4,-975.95 3289.55,-977.25 3286.64,-978.49 3283.68,-979.65 3280.67,-980.73 3277.62,-981.74 3274.54,-982.66 3271.43,-983.5 3268.3,-984.25 3265.14,-984.91 3261.97,-985.48 3258.79,-985.96 3255.59,-986.34 3252.39,-986.63 3249.18,-986.82 3245.97,-986.92 3242.76,-986.92 3239.55,-986.82 3236.34,-986.63 3233.14,-986.34 3229.95,-985.96 3226.76,-985.48 3223.59,-984.91 3220.44,-984.25 3217.31,-983.5 3214.2,-982.66 3211.12,-981.74 3208.07,-980.73 3205.06,-979.65 3202.1,-978.49 3199.19,-977.25 3196.34,-975.95 3193.56,-974.58 3190.85,-973.14 3188.23,-971.65 3185.7,-970.1 3183.27,-968.5 3180.96,-966.86 3178.78,-965.17 3176.72,-963.45 3174.82,-961.69 3173.06,-959.91 3171.48,-958.11 3170.07,-956.28 3168.85,-954.45 3167.82,-952.61 3167,-950.76 3166.4,-948.92 3166.02,-947.08 3165.87,-945.26 3165.96,-943.46 3166.29,-941.67 3166.88,-939.92 3167.71,-938.2 3168.8,-936.51 3170.15,-934.87 3171.76,-933.27 3173.62,-931.72 3175.74,-930.23 3178.1,-928.79 3180.71,-927.42 3183.56,-926.12 3186.64,-924.88 3189.95,-923.72 3193.46,-922.64 3197.17,-921.63 3201.07,-920.71 3205.15,-919.87 3209.38,-919.12 3213.75,-918.46 3218.24,-917.89 3222.84,-917.41 3227.54,-917.03 3232.29,-916.74 3237.1,-916.55 3241.94,-916.45 3246.79,-916.45 3251.63,-916.55"/>
<text text-anchor="start" x="3215.2" y="-961.48" font-family="Times,serif" font-size="14.00">C0008041</text>
<text text-anchor="start" x="3200.25" y="-947.48" font-family="Times,serif" font-size="14.00">chi &#45; square test</text>
<text text-anchor="start" x="3221.42" y="-933.48" font-family="Times,serif" font-size="14.00">136:139</text>
</g>
<!-- id_27240560_DOT_4&#45;&#45;id_27240560_DOT_17 -->
<g id="edge15" class="edge">
<title>id_27240560_DOT_4&#45;&#45;id_27240560_DOT_17</title>
<path fill="none" stroke="black" stroke-dasharray="1,5" d="M2842.33,-919.25C2922.45,-925.71 3073.09,-937.87 3165.5,-945.32"/>
<text text-anchor="middle" x="2977.66" y="-935.09" font-family="Times,serif" font-size="14.00">0.902998</text>
</g>
<!-- id_27240560_DOT_5 -->
<g id="node5" class="node">
<title>id_27240560_DOT_5</title>
<polygon fill="blueviolet" stroke="blueviolet" points="4041.81,-651.77 4045.46,-651.96 4049.06,-652.25 4052.61,-652.63 4056.1,-653.11 4059.5,-653.68 4062.81,-654.34 4066.02,-655.09 4069.1,-655.93 4072.05,-656.85 4074.87,-657.86 4077.53,-658.94 4080.03,-660.1 4082.36,-661.34 4084.52,-662.64 4086.5,-664.02 4088.29,-665.45 4089.89,-666.94 4091.3,-668.49 4092.52,-670.09 4093.54,-671.73 4094.37,-673.42 4095,-675.14 4095.44,-676.9 4095.69,-678.68 4095.76,-680.48 4095.65,-682.31 4095.36,-684.14 4094.9,-685.98 4094.28,-687.83 4093.51,-689.67 4092.58,-691.51 4091.51,-693.33 4090.31,-695.14 4088.99,-696.92 4087.54,-698.67 4085.99,-700.4 4084.33,-702.08 4082.58,-703.73 4080.74,-705.32 4078.83,-706.87 4076.84,-708.36 4074.79,-709.8 4072.69,-711.17 4070.53,-712.47 4068.32,-713.71 4066.08,-714.87 4063.8,-715.96 4061.5,-716.96 4059.16,-717.88 4056.81,-718.72 4054.43,-719.47 4052.05,-720.13 4049.64,-720.7 4047.23,-721.18 4044.81,-721.56 4042.39,-721.85 4039.96,-722.05 4037.53,-722.14 4035.1,-722.14 4032.67,-722.05 4030.24,-721.85 4027.81,-721.56 4025.39,-721.18 4022.98,-720.7 4020.58,-720.13 4018.19,-719.47 4015.82,-718.72 4013.46,-717.88 4011.13,-716.96 4008.82,-715.96 4006.55,-714.87 4004.3,-713.71 4002.1,-712.47 3999.94,-711.17 3997.83,-709.8 3995.78,-708.36 3993.8,-706.87 3991.88,-705.32 3990.05,-703.73 3988.3,-702.08 3986.64,-700.4 3985.09,-698.67 3983.64,-696.92 3982.31,-695.14 3981.11,-693.33 3980.05,-691.51 3979.12,-689.67 3978.34,-687.83 3977.72,-685.98 3977.27,-684.14 3976.98,-682.31 3976.87,-680.48 3976.93,-678.68 3977.19,-676.9 3977.63,-675.14 3978.26,-673.42 3979.09,-671.73 3980.11,-670.09 3981.33,-668.49 3982.74,-666.94 3984.34,-665.45 3986.13,-664.02 3988.11,-662.64 3990.27,-661.34 3992.6,-660.1 3995.1,-658.94 3997.76,-657.86 4000.57,-656.85 4003.53,-655.93 4006.61,-655.09 4009.81,-654.34 4013.12,-653.68 4016.53,-653.11 4020.01,-652.63 4023.57,-652.25 4027.17,-651.96 4030.81,-651.77 4034.48,-651.67 4038.15,-651.67 4041.81,-651.77"/>
<text text-anchor="start" x="4007.14" y="-696.71" font-family="Times,serif" font-size="14.00">C0497406</text>
<text text-anchor="start" x="4004.82" y="-682.71" font-family="Times,serif" font-size="14.00">overweight</text>
<text text-anchor="start" x="4020.37" y="-668.71" font-family="Times,serif" font-size="14.00">46:46</text>
</g>
<!-- id_27240560_DOT_13 -->
<g id="node13" class="node">
<title>id_27240560_DOT_13</title>
<polygon fill="blueviolet" stroke="blueviolet" points="4378.49,-449.46 4382.13,-449.65 4385.74,-449.94 4389.29,-450.32 4392.77,-450.8 4396.18,-451.37 4399.49,-452.03 4402.69,-452.78 4405.78,-453.62 4408.73,-454.54 4411.54,-455.55 4414.2,-456.63 4416.7,-457.79 4419.04,-459.03 4421.19,-460.33 4423.17,-461.71 4424.96,-463.14 4426.57,-464.63 4427.98,-466.18 4429.19,-467.78 4430.21,-469.42 4431.04,-471.11 4431.67,-472.83 4432.11,-474.59 4432.37,-476.37 4432.44,-478.17 4432.32,-480 4432.04,-481.83 4431.58,-483.67 4430.96,-485.52 4430.18,-487.36 4429.26,-489.2 4428.19,-491.02 4426.99,-492.83 4425.66,-494.61 4424.22,-496.36 4422.66,-498.09 4421,-499.77 4419.25,-501.42 4417.42,-503.01 4415.5,-504.56 4413.52,-506.05 4411.47,-507.49 4409.36,-508.86 4407.2,-510.16 4405,-511.4 4402.76,-512.56 4400.48,-513.65 4398.17,-514.65 4395.84,-515.57 4393.48,-516.41 4391.11,-517.16 4388.72,-517.82 4386.32,-518.39 4383.91,-518.87 4381.49,-519.25 4379.06,-519.54 4376.64,-519.74 4374.2,-519.83 4371.77,-519.83 4369.34,-519.74 4366.91,-519.54 4364.49,-519.25 4362.07,-518.87 4359.66,-518.39 4357.26,-517.82 4354.87,-517.16 4352.49,-516.41 4350.14,-515.57 4347.81,-514.65 4345.5,-513.65 4343.22,-512.56 4340.98,-511.4 4338.77,-510.16 4336.62,-508.86 4334.51,-507.49 4332.46,-506.05 4330.47,-504.56 4328.56,-503.01 4326.72,-501.42 4324.97,-499.77 4323.32,-498.09 4321.76,-496.36 4320.32,-494.61 4318.99,-492.83 4317.79,-491.02 4316.72,-489.2 4315.8,-487.36 4315.02,-485.52 4314.4,-483.67 4313.94,-481.83 4313.65,-480 4313.54,-478.17 4313.61,-476.37 4313.86,-474.59 4314.3,-472.83 4314.94,-471.11 4315.76,-469.42 4316.78,-467.78 4318,-466.18 4319.41,-464.63 4321.01,-463.14 4322.81,-461.71 4324.78,-460.33 4326.94,-459.03 4329.27,-457.79 4331.78,-456.63 4334.44,-455.55 4337.25,-454.54 4340.2,-453.62 4343.29,-452.78 4346.49,-452.03 4349.8,-451.37 4353.2,-450.8 4356.69,-450.32 4360.24,-449.94 4363.85,-449.65 4367.49,-449.46 4371.15,-449.36 4374.82,-449.36 4378.49,-449.46"/>
<text text-anchor="start" x="4343.82" y="-494.4" font-family="Times,serif" font-size="14.00">C0497406</text>
<text text-anchor="start" x="4341.5" y="-480.4" font-family="Times,serif" font-size="14.00">overweight</text>
<text text-anchor="start" x="4350.56" y="-466.4" font-family="Times,serif" font-size="14.00">115:115</text>
</g>
<!-- id_27240560_DOT_5&#45;&#45;id_27240560_DOT_13 -->
<g id="edge6" class="edge">
<title>id_27240560_DOT_5&#45;&#45;id_27240560_DOT_13</title>
<path fill="none" stroke="black" d="M4080.67,-660.25C4147.19,-620.28 4271.64,-545.5 4334.53,-507.71"/>
<text text-anchor="middle" x="4181.35" y="-586.78" font-family="Times,serif" font-size="14.00">0.009878</text>
</g>
<!-- id_27240560_DOT_16 -->
<g id="node16" class="node">
<title>id_27240560_DOT_16</title>
<polygon fill="crimson" stroke="crimson" points="3663.51,-814.96 3666.99,-815.16 3670.42,-815.45 3673.81,-815.83 3677.14,-816.31 3680.38,-816.88 3683.54,-817.54 3686.6,-818.29 3689.54,-819.13 3692.36,-820.05 3695.04,-821.05 3697.58,-822.14 3699.96,-823.3 3702.19,-824.54 3704.25,-825.84 3706.13,-827.21 3707.84,-828.65 3709.37,-830.14 3710.72,-831.69 3711.88,-833.28 3712.85,-834.93 3713.64,-836.61 3714.24,-838.34 3714.66,-840.09 3714.91,-841.87 3714.97,-843.68 3714.86,-845.5 3714.59,-847.34 3714.15,-849.18 3713.56,-851.03 3712.82,-852.87 3711.94,-854.7 3710.92,-856.53 3709.77,-858.33 3708.51,-860.11 3707.13,-861.87 3705.65,-863.59 3704.07,-865.28 3702.4,-866.92 3700.65,-868.52 3698.82,-870.07 3696.93,-871.56 3694.97,-872.99 3692.96,-874.37 3690.9,-875.67 3688.8,-876.91 3686.66,-878.07 3684.49,-879.15 3682.29,-880.16 3680.06,-881.08 3677.81,-881.92 3675.55,-882.67 3673.27,-883.33 3670.98,-883.9 3668.68,-884.38 3666.37,-884.76 3664.06,-885.05 3661.74,-885.24 3659.42,-885.34 3657.1,-885.34 3654.78,-885.24 3652.47,-885.05 3650.15,-884.76 3647.85,-884.38 3645.55,-883.9 3643.26,-883.33 3640.98,-882.67 3638.71,-881.92 3636.47,-881.08 3634.24,-880.16 3632.04,-879.15 3629.87,-878.07 3627.73,-876.91 3625.63,-875.67 3623.57,-874.37 3621.56,-872.99 3619.6,-871.56 3617.71,-870.07 3615.88,-868.52 3614.13,-866.92 3612.46,-865.28 3610.88,-863.59 3609.4,-861.87 3608.02,-860.11 3606.75,-858.33 3605.61,-856.53 3604.59,-854.7 3603.71,-852.87 3602.97,-851.03 3602.37,-849.18 3601.94,-847.34 3601.66,-845.5 3601.56,-843.68 3601.62,-841.87 3601.86,-840.09 3602.28,-838.34 3602.89,-836.61 3603.68,-834.93 3604.65,-833.28 3605.81,-831.69 3607.16,-830.14 3608.68,-828.65 3610.39,-827.21 3612.28,-825.84 3614.34,-824.54 3616.56,-823.3 3618.95,-822.14 3621.49,-821.05 3624.17,-820.05 3626.99,-819.13 3629.93,-818.29 3632.99,-817.54 3636.14,-816.88 3639.39,-816.31 3642.72,-815.83 3646.1,-815.45 3649.54,-815.16 3653.02,-814.96 3656.51,-814.87 3660.02,-814.87 3663.51,-814.96"/>
<text text-anchor="start" x="3629.09" y="-859.9" font-family="Times,serif" font-size="14.00">C3698309</text>
<text text-anchor="start" x="3628.51" y="-845.9" font-family="Times,serif" font-size="14.00">body mass</text>
<text text-anchor="start" x="3635.32" y="-831.9" font-family="Times,serif" font-size="14.00">125:126</text>
</g>
<!-- id_27240560_DOT_5&#45;&#45;id_27240560_DOT_16 -->
<g id="edge16" class="edge">
<title>id_27240560_DOT_5&#45;&#45;id_27240560_DOT_16</title>
<path fill="none" stroke="black" stroke-dasharray="1,5" d="M3992.21,-705.95C3921.31,-736.55 3782.43,-796.5 3708.07,-828.6"/>
<text text-anchor="middle" x="3824.14" y="-770.07" font-family="Times,serif" font-size="14.00">0.811292</text>
</g>
<!-- id_27240560_DOT_14 -->
<g id="node14" class="node">
<title>id_27240560_DOT_14</title>
<polygon fill="brown" stroke="brown" points="3553.74,-2127.7 3557.17,-2127.89 3560.56,-2128.18 3563.91,-2128.57 3567.19,-2129.04 3570.39,-2129.61 3573.51,-2130.28 3576.52,-2131.03 3579.43,-2131.86 3582.21,-2132.79 3584.85,-2133.79 3587.36,-2134.88 3589.71,-2136.04 3591.91,-2137.27 3593.94,-2138.58 3595.8,-2139.95 3597.49,-2141.38 3599,-2142.88 3600.32,-2144.42 3601.47,-2146.02 3602.43,-2147.67 3603.21,-2149.35 3603.8,-2151.07 3604.22,-2152.83 3604.46,-2154.61 3604.52,-2156.42 3604.42,-2158.24 3604.14,-2160.07 3603.71,-2161.92 3603.13,-2163.76 3602.4,-2165.61 3601.53,-2167.44 3600.52,-2169.26 3599.39,-2171.07 3598.14,-2172.85 3596.78,-2174.61 3595.32,-2176.33 3593.76,-2178.01 3592.11,-2179.66 3590.39,-2181.26 3588.58,-2182.8 3586.71,-2184.3 3584.78,-2185.73 3582.8,-2187.1 3580.77,-2188.41 3578.7,-2189.64 3576.58,-2190.8 3574.44,-2191.89 3572.27,-2192.89 3570.07,-2193.82 3567.86,-2194.65 3565.62,-2195.4 3563.37,-2196.07 3561.11,-2196.64 3558.84,-2197.11 3556.57,-2197.5 3554.28,-2197.79 3552,-2197.98 3549.71,-2198.08 3547.42,-2198.08 3545.13,-2197.98 3542.84,-2197.79 3540.56,-2197.5 3538.29,-2197.11 3536.02,-2196.64 3533.76,-2196.07 3531.51,-2195.4 3529.27,-2194.65 3527.06,-2193.82 3524.86,-2192.89 3522.69,-2191.89 3520.54,-2190.8 3518.43,-2189.64 3516.36,-2188.41 3514.33,-2187.1 3512.34,-2185.73 3510.41,-2184.3 3508.55,-2182.8 3506.74,-2181.26 3505.01,-2179.66 3503.37,-2178.01 3501.81,-2176.33 3500.34,-2174.61 3498.98,-2172.85 3497.74,-2171.07 3496.61,-2169.26 3495.6,-2167.44 3494.73,-2165.61 3494,-2163.76 3493.41,-2161.92 3492.98,-2160.07 3492.71,-2158.24 3492.61,-2156.42 3492.67,-2154.61 3492.91,-2152.83 3493.33,-2151.07 3493.92,-2149.35 3494.7,-2147.67 3495.66,-2146.02 3496.81,-2144.42 3498.13,-2142.88 3499.64,-2141.38 3501.33,-2139.95 3503.19,-2138.58 3505.22,-2137.27 3507.42,-2136.04 3509.77,-2134.88 3512.28,-2133.79 3514.92,-2132.79 3517.7,-2131.86 3520.61,-2131.03 3523.62,-2130.28 3526.74,-2129.61 3529.94,-2129.04 3533.22,-2128.57 3536.57,-2128.18 3539.96,-2127.89 3543.39,-2127.7 3546.84,-2127.6 3550.29,-2127.6 3553.74,-2127.7"/>
<text text-anchor="start" x="3519.4" y="-2172.64" font-family="Times,serif" font-size="14.00">C0028754</text>
<text text-anchor="start" x="3528.34" y="-2158.64" font-family="Times,serif" font-size="14.00">obesity</text>
<text text-anchor="start" x="3526.13" y="-2144.64" font-family="Times,serif" font-size="14.00">117:117</text>
</g>
<!-- id_27240560_DOT_6&#45;&#45;id_27240560_DOT_14 -->
<g id="edge7" class="edge">
<title>id_27240560_DOT_6&#45;&#45;id_27240560_DOT_14</title>
<path fill="none" stroke="black" d="M3642.72,-2490.89C3622.71,-2421.19 3578.25,-2266.28 3558.43,-2197.22"/>
<text text-anchor="middle" x="3574.32" y="-2346.85" font-family="Times,serif" font-size="14.00">0.018626</text>
</g>
<!-- id_27240560_DOT_7 -->
<g id="node7" class="node">
<title>id_27240560_DOT_7</title>
<polygon fill="cadetblue" stroke="cadetblue" points="4991.57,-0.23 5001.88,-0.42 5012.08,-0.71 5022.14,-1.09 5032,-1.57 5041.64,-2.14 5051.01,-2.8 5060.08,-3.55 5068.81,-4.39 5077.17,-5.31 5085.13,-6.32 5092.67,-7.4 5099.75,-8.57 5106.35,-9.8 5112.46,-11.1 5118.06,-12.48 5123.13,-13.91 5127.67,-15.4 5131.66,-16.95 5135.1,-18.55 5137.99,-20.19 5140.33,-21.88 5142.12,-23.6 5143.37,-25.36 5144.09,-27.14 5144.28,-28.94 5143.96,-30.77 5143.15,-32.6 5141.86,-34.44 5140.1,-36.29 5137.9,-38.13 5135.28,-39.97 5132.26,-41.79 5128.86,-43.6 5125.1,-45.38 5121.01,-47.13 5116.61,-48.86 5111.92,-50.54 5106.97,-52.19 5101.77,-53.78 5096.35,-55.33 5090.73,-56.82 5084.93,-58.26 5078.96,-59.63 5072.85,-60.94 5066.61,-62.17 5060.26,-63.33 5053.82,-64.42 5047.28,-65.42 5040.68,-66.34 5034.01,-67.18 5027.29,-67.93 5020.53,-68.59 5013.74,-69.16 5006.91,-69.64 5000.06,-70.02 4993.2,-70.31 4986.32,-70.51 4979.44,-70.6 4972.55,-70.6 4965.67,-70.51 4958.8,-70.31 4951.93,-70.02 4945.08,-69.64 4938.26,-69.16 4931.46,-68.59 4924.7,-67.93 4917.98,-67.18 4911.31,-66.34 4904.71,-65.42 4898.18,-64.42 4891.73,-63.33 4885.38,-62.17 4879.14,-60.94 4873.03,-59.63 4867.07,-58.26 4861.26,-56.82 4855.64,-55.33 4850.22,-53.78 4845.03,-52.19 4840.07,-50.54 4835.38,-48.86 4830.98,-47.13 4826.89,-45.38 4823.13,-43.6 4819.73,-41.79 4816.71,-39.97 4814.09,-38.13 4811.89,-36.29 4810.14,-34.44 4808.84,-32.6 4808.03,-30.77 4807.71,-28.94 4807.91,-27.14 4808.62,-25.36 4809.87,-23.6 4811.66,-21.88 4814,-20.19 4816.89,-18.55 4820.34,-16.95 4824.33,-15.4 4828.86,-13.91 4833.94,-12.48 4839.53,-11.1 4845.64,-9.8 4852.25,-8.57 4859.33,-7.4 4866.86,-6.32 4874.82,-5.31 4883.18,-4.39 4891.91,-3.55 4900.98,-2.8 4910.35,-2.14 4919.99,-1.57 4929.86,-1.09 4939.91,-0.71 4950.11,-0.42 4960.42,-0.23 4970.8,-0.13 4981.19,-0.13 4991.57,-0.23"/>
<text text-anchor="start" x="4946.83" y="-45.17" font-family="Times,serif" font-size="14.00">C0010362</text>
<text text-anchor="start" x="4872.19" y="-31.17" font-family="Times,serif" font-size="14.00">cross &#45; sectional school &#45; based study</text>
<text text-anchor="start" x="4960.05" y="-17.17" font-family="Times,serif" font-size="14.00">55:61</text>
</g>
<!-- id_27240560_DOT_24 -->
<g id="node24" class="node">
<title>id_27240560_DOT_24</title>
<polygon fill="blueviolet" stroke="blueviolet" points="4689.06,-230.04 4692.7,-230.23 4696.3,-230.52 4699.86,-230.9 4703.34,-231.38 4706.75,-231.95 4710.06,-232.61 4713.26,-233.36 4716.34,-234.2 4719.3,-235.12 4722.11,-236.13 4724.77,-237.21 4727.27,-238.37 4729.6,-239.61 4731.76,-240.91 4733.74,-242.28 4735.53,-243.72 4737.13,-245.21 4738.54,-246.76 4739.76,-248.36 4740.78,-250 4741.61,-251.69 4742.24,-253.41 4742.68,-255.17 4742.93,-256.95 4743,-258.75 4742.89,-260.58 4742.6,-262.41 4742.15,-264.25 4741.53,-266.1 4740.75,-267.94 4739.82,-269.78 4738.76,-271.6 4737.56,-273.4 4736.23,-275.19 4734.78,-276.94 4733.23,-278.66 4731.57,-280.35 4729.82,-281.99 4727.99,-283.59 4726.07,-285.14 4724.09,-286.63 4722.04,-288.07 4719.93,-289.44 4717.77,-290.74 4715.57,-291.98 4713.32,-293.14 4711.05,-294.22 4708.74,-295.23 4706.41,-296.15 4704.05,-296.99 4701.68,-297.74 4699.29,-298.4 4696.89,-298.97 4694.48,-299.45 4692.06,-299.83 4689.63,-300.12 4687.2,-300.31 4684.77,-300.41 4682.34,-300.41 4679.91,-300.31 4677.48,-300.12 4675.06,-299.83 4672.64,-299.45 4670.22,-298.97 4667.82,-298.4 4665.44,-297.74 4663.06,-296.99 4660.71,-296.15 4658.37,-295.23 4656.07,-294.22 4653.79,-293.14 4651.55,-291.98 4649.34,-290.74 4647.18,-289.44 4645.08,-288.07 4643.03,-286.63 4641.04,-285.14 4639.13,-283.59 4637.29,-281.99 4635.54,-280.35 4633.88,-278.66 4632.33,-276.94 4630.88,-275.19 4629.56,-273.4 4628.36,-271.6 4627.29,-269.78 4626.36,-267.94 4625.59,-266.1 4624.97,-264.25 4624.51,-262.41 4624.22,-260.58 4624.11,-258.75 4624.18,-256.95 4624.43,-255.17 4624.87,-253.41 4625.5,-251.69 4626.33,-250 4627.35,-248.36 4628.57,-246.76 4629.98,-245.21 4631.58,-243.72 4633.37,-242.28 4635.35,-240.91 4637.51,-239.61 4639.84,-238.37 4642.34,-237.21 4645,-236.13 4647.82,-235.12 4650.77,-234.2 4653.85,-233.36 4657.06,-232.61 4660.37,-231.95 4663.77,-231.38 4667.26,-230.9 4670.81,-230.52 4674.41,-230.23 4678.06,-230.04 4681.72,-229.94 4685.39,-229.94 4689.06,-230.04"/>
<text text-anchor="start" x="4654.39" y="-274.98" font-family="Times,serif" font-size="14.00">C0497406</text>
<text text-anchor="start" x="4652.07" y="-260.98" font-family="Times,serif" font-size="14.00">overweight</text>
<text text-anchor="start" x="4660.61" y="-246.98" font-family="Times,serif" font-size="14.00">275:275</text>
</g>
<!-- id_27240560_DOT_7&#45;&#45;id_27240560_DOT_24 -->
<g id="edge17" class="edge">
<title>id_27240560_DOT_7&#45;&#45;id_27240560_DOT_24</title>
<path fill="none" stroke="black" stroke-dasharray="1,5" d="M4933.47,-68.78C4876.29,-113.72 4775.5,-192.92 4721.02,-235.73"/>
<text text-anchor="middle" x="4801" y="-155.06" font-family="Times,serif" font-size="14.00">0.764896</text>
</g>
<!-- id_27240560_DOT_8 -->
<g id="node8" class="node">
<title>id_27240560_DOT_8</title>
<polygon fill="chartreuse" stroke="chartreuse" points="3437.38,-155.03 3440.8,-155.22 3444.2,-155.51 3447.54,-155.89 3450.82,-156.37 3454.03,-156.94 3457.14,-157.6 3460.16,-158.35 3463.06,-159.19 3465.84,-160.11 3468.49,-161.12 3470.99,-162.2 3473.35,-163.36 3475.54,-164.6 3477.57,-165.9 3479.44,-167.28 3481.12,-168.71 3482.63,-170.2 3483.96,-171.75 3485.1,-173.35 3486.06,-174.99 3486.84,-176.68 3487.44,-178.4 3487.85,-180.16 3488.09,-181.94 3488.15,-183.74 3488.05,-185.57 3487.78,-187.4 3487.35,-189.24 3486.76,-191.09 3486.03,-192.93 3485.16,-194.77 3484.16,-196.59 3483.03,-198.4 3481.78,-200.18 3480.42,-201.93 3478.95,-203.66 3477.39,-205.34 3475.75,-206.99 3474.02,-208.58 3472.22,-210.13 3470.35,-211.62 3468.42,-213.06 3466.43,-214.43 3464.4,-215.73 3462.33,-216.97 3460.22,-218.13 3458.07,-219.22 3455.9,-220.22 3453.71,-221.14 3451.49,-221.98 3449.26,-222.73 3447.01,-223.39 3444.75,-223.96 3442.48,-224.44 3440.2,-224.82 3437.92,-225.11 3435.63,-225.31 3433.34,-225.4 3431.05,-225.4 3428.76,-225.31 3426.48,-225.11 3424.2,-224.82 3421.92,-224.44 3419.65,-223.96 3417.39,-223.39 3415.14,-222.73 3412.91,-221.98 3410.69,-221.14 3408.49,-220.22 3406.32,-219.22 3404.18,-218.13 3402.07,-216.97 3399.99,-215.73 3397.96,-214.43 3395.98,-213.06 3394.05,-211.62 3392.18,-210.13 3390.38,-208.58 3388.65,-206.99 3387,-205.34 3385.44,-203.66 3383.98,-201.93 3382.62,-200.18 3381.37,-198.4 3380.24,-196.59 3379.23,-194.77 3378.36,-192.93 3377.63,-191.09 3377.05,-189.24 3376.62,-187.4 3376.35,-185.57 3376.24,-183.74 3376.31,-181.94 3376.54,-180.16 3376.96,-178.4 3377.56,-176.68 3378.33,-174.99 3379.29,-173.35 3380.44,-171.75 3381.77,-170.2 3383.27,-168.71 3384.96,-167.28 3386.82,-165.9 3388.85,-164.6 3391.05,-163.36 3393.4,-162.2 3395.91,-161.12 3398.56,-160.11 3401.34,-159.19 3404.24,-158.35 3407.25,-157.6 3410.37,-156.94 3413.57,-156.37 3416.86,-155.89 3420.2,-155.51 3423.59,-155.22 3427.02,-155.03 3430.47,-154.93 3433.93,-154.93 3437.38,-155.03"/>
<text text-anchor="start" x="3403.03" y="-199.97" font-family="Times,serif" font-size="14.00">C0038492</text>
<text text-anchor="start" x="3409.25" y="-185.97" font-family="Times,serif" font-size="14.00">students</text>
<text text-anchor="start" x="3416.25" y="-171.97" font-family="Times,serif" font-size="14.00">68:68</text>
</g>
<!-- id_27240560_DOT_15 -->
<g id="node15" class="node">
<title>id_27240560_DOT_15</title>
<polygon fill="cornflowerblue" stroke="cornflowerblue" points="3249.72,-506.13 3261.85,-506.32 3273.86,-506.61 3285.69,-506.99 3297.3,-507.47 3308.64,-508.04 3319.67,-508.7 3330.34,-509.45 3340.61,-510.29 3350.45,-511.21 3359.81,-512.22 3368.68,-513.3 3377.01,-514.46 3384.78,-515.7 3391.97,-517 3398.56,-518.37 3404.52,-519.81 3409.86,-521.3 3414.56,-522.85 3418.61,-524.45 3422.01,-526.09 3424.76,-527.78 3426.87,-529.5 3428.34,-531.25 3429.19,-533.04 3429.41,-534.84 3429.04,-536.66 3428.08,-538.5 3426.56,-540.34 3424.49,-542.19 3421.91,-544.03 3418.82,-545.87 3415.27,-547.69 3411.27,-549.49 3406.85,-551.28 3402.03,-553.03 3396.85,-554.75 3391.34,-556.44 3385.51,-558.08 3379.39,-559.68 3373.01,-561.23 3366.4,-562.72 3359.57,-564.16 3352.55,-565.53 3345.36,-566.83 3338.02,-568.07 3330.55,-569.23 3322.96,-570.31 3315.28,-571.32 3307.51,-572.24 3299.66,-573.08 3291.76,-573.83 3283.8,-574.49 3275.8,-575.06 3267.77,-575.54 3259.71,-575.92 3251.63,-576.21 3243.54,-576.4 3235.45,-576.5 3227.34,-576.5 3219.25,-576.4 3211.16,-576.21 3203.08,-575.92 3195.02,-575.54 3186.99,-575.06 3178.99,-574.49 3171.03,-573.83 3163.13,-573.08 3155.28,-572.24 3147.51,-571.32 3139.83,-570.31 3132.24,-569.23 3124.77,-568.07 3117.43,-566.83 3110.24,-565.53 3103.22,-564.16 3096.39,-562.72 3089.78,-561.23 3083.4,-559.68 3077.28,-558.08 3071.45,-556.44 3065.94,-554.75 3060.76,-553.03 3055.94,-551.28 3051.52,-549.49 3047.52,-547.69 3043.97,-545.87 3040.88,-544.03 3038.3,-542.19 3036.23,-540.34 3034.71,-538.5 3033.75,-536.66 3033.38,-534.84 3033.6,-533.04 3034.45,-531.25 3035.92,-529.5 3038.03,-527.78 3040.78,-526.09 3044.18,-524.45 3048.23,-522.85 3052.93,-521.3 3058.27,-519.81 3064.23,-518.37 3070.82,-517 3078.01,-515.7 3085.78,-514.46 3094.11,-513.3 3102.98,-512.22 3112.34,-511.21 3122.18,-510.29 3132.45,-509.45 3143.12,-508.7 3154.15,-508.04 3165.49,-507.47 3177.1,-506.99 3188.93,-506.61 3200.94,-506.32 3213.07,-506.13 3225.28,-506.03 3237.51,-506.03 3249.72,-506.13"/>
<text text-anchor="start" x="3202.23" y="-551.06" font-family="Times,serif" font-size="14.00">C0034394</text>
<text text-anchor="start" x="3107.75" y="-537.06" font-family="Times,serif" font-size="14.00">Global Student Health Survey questionnaire</text>
<text text-anchor="start" x="3208.71" y="-523.06" font-family="Times,serif" font-size="14.00">119:123</text>
</g>
<!-- id_27240560_DOT_8&#45;&#45;id_27240560_DOT_15 -->
<g id="edge18" class="edge">
<title>id_27240560_DOT_8&#45;&#45;id_27240560_DOT_15</title>
<path fill="none" stroke="black" stroke-dasharray="1,5" d="M3413.67,-222.57C3375.95,-288.52 3290.52,-437.88 3251.51,-506.09"/>
<text text-anchor="middle" x="3306.34" y="-367.13" font-family="Times,serif" font-size="14.00">0.932431</text>
</g>
<!-- id_27240560_DOT_9 -->
<g id="node9" class="node">
<title>id_27240560_DOT_9</title>
<polygon fill="coral" stroke="coral" points="3059.28,-146.98 3064.02,-147.18 3068.72,-147.47 3073.34,-147.85 3077.88,-148.33 3082.31,-148.9 3086.62,-149.56 3090.79,-150.31 3094.8,-151.15 3098.64,-152.07 3102.3,-153.07 3105.77,-154.16 3109.02,-155.32 3112.06,-156.56 3114.87,-157.86 3117.44,-159.23 3119.78,-160.67 3121.86,-162.16 3123.7,-163.71 3125.28,-165.3 3126.61,-166.95 3127.68,-168.63 3128.51,-170.36 3129.08,-172.11 3129.41,-173.89 3129.5,-175.7 3129.35,-177.52 3128.98,-179.36 3128.39,-181.2 3127.58,-183.05 3126.57,-184.89 3125.36,-186.72 3123.97,-188.55 3122.41,-190.35 3120.68,-192.13 3118.8,-193.89 3116.78,-195.61 3114.62,-197.3 3112.34,-198.94 3109.95,-200.54 3107.46,-202.09 3104.88,-203.58 3102.21,-205.01 3099.47,-206.39 3096.66,-207.69 3093.79,-208.93 3090.87,-210.09 3087.91,-211.17 3084.9,-212.18 3081.86,-213.1 3078.8,-213.94 3075.71,-214.69 3072.6,-215.35 3069.48,-215.92 3066.34,-216.4 3063.19,-216.78 3060.03,-217.07 3056.87,-217.26 3053.71,-217.36 3050.54,-217.36 3047.38,-217.26 3044.21,-217.07 3041.06,-216.78 3037.91,-216.4 3034.77,-215.92 3031.65,-215.35 3028.54,-214.69 3025.45,-213.94 3022.38,-213.1 3019.35,-212.18 3016.34,-211.17 3013.38,-210.09 3010.46,-208.93 3007.59,-207.69 3004.78,-206.39 3002.04,-205.01 2999.37,-203.58 2996.78,-202.09 2994.29,-200.54 2991.9,-198.94 2989.62,-197.3 2987.47,-195.61 2985.44,-193.89 2983.56,-192.13 2981.84,-190.35 2980.27,-188.55 2978.88,-186.72 2977.68,-184.89 2976.67,-183.05 2975.86,-181.2 2975.27,-179.36 2974.89,-177.52 2974.75,-175.7 2974.83,-173.89 2975.16,-172.11 2975.74,-170.36 2976.56,-168.63 2977.64,-166.95 2978.97,-165.3 2980.55,-163.71 2982.39,-162.16 2984.47,-160.67 2986.8,-159.23 2989.38,-157.86 2992.19,-156.56 2995.22,-155.32 2998.48,-154.16 3001.94,-153.07 3005.6,-152.07 3009.45,-151.15 3013.46,-150.31 3017.63,-149.56 3021.94,-148.9 3026.37,-148.33 3030.91,-147.85 3035.53,-147.47 3040.22,-147.18 3044.96,-146.98 3049.73,-146.89 3054.51,-146.89 3059.28,-146.98"/>
<text text-anchor="start" x="3022.95" y="-191.92" font-family="Times,serif" font-size="14.00">C1301808</text>
<text text-anchor="start" x="3008.7" y="-177.92" font-family="Times,serif" font-size="14.00">state of Sergipe</text>
<text text-anchor="start" x="3036.18" y="-163.92" font-family="Times,serif" font-size="14.00">76:78</text>
</g>
<!-- id_27240560_DOT_9&#45;&#45;id_27240560_DOT_15 -->
<g id="edge19" class="edge">
<title>id_27240560_DOT_9&#45;&#45;id_27240560_DOT_15</title>
<path fill="none" stroke="black" stroke-dasharray="1,5" d="M3069.15,-216.23C3103.19,-284.43 3179.34,-436.97 3213.82,-506.06"/>
<text text-anchor="middle" x="3115.24" y="-363.95" font-family="Times,serif" font-size="14.00">0.915027</text>
</g>
<!-- id_27240560_DOT_22 -->
<g id="node22" class="node">
<title>id_27240560_DOT_22</title>
<polygon fill="blue" stroke="blue" points="2003.77,-772.43 2007.24,-772.63 2010.68,-772.91 2014.07,-773.3 2017.39,-773.78 2020.64,-774.35 2023.8,-775.01 2026.86,-775.76 2029.8,-776.6 2032.61,-777.52 2035.3,-778.52 2037.84,-779.61 2040.22,-780.77 2042.45,-782 2044.51,-783.31 2046.39,-784.68 2048.1,-786.11 2049.63,-787.61 2050.98,-789.15 2052.14,-790.75 2053.11,-792.4 2053.9,-794.08 2054.5,-795.81 2054.92,-797.56 2055.16,-799.34 2055.23,-801.15 2055.12,-802.97 2054.85,-804.81 2054.41,-806.65 2053.82,-808.49 2053.08,-810.34 2052.2,-812.17 2051.18,-814 2050.03,-815.8 2048.77,-817.58 2047.39,-819.34 2045.9,-821.06 2044.32,-822.75 2042.66,-824.39 2040.9,-825.99 2039.08,-827.54 2037.18,-829.03 2035.23,-830.46 2033.22,-831.83 2031.16,-833.14 2029.06,-834.37 2026.92,-835.54 2024.74,-836.62 2022.54,-837.63 2020.32,-838.55 2018.07,-839.39 2015.81,-840.14 2013.53,-840.8 2011.24,-841.37 2008.94,-841.85 2006.63,-842.23 2004.32,-842.52 2002,-842.71 1999.68,-842.81 1997.36,-842.81 1995.04,-842.71 1992.73,-842.52 1990.41,-842.23 1988.1,-841.85 1985.8,-841.37 1983.51,-840.8 1981.24,-840.14 1978.97,-839.39 1976.73,-838.55 1974.5,-837.63 1972.3,-836.62 1970.13,-835.54 1967.99,-834.37 1965.88,-833.14 1963.83,-831.83 1961.82,-830.46 1959.86,-829.03 1957.97,-827.54 1956.14,-825.99 1954.39,-824.39 1952.72,-822.75 1951.14,-821.06 1949.66,-819.34 1948.28,-817.58 1947.01,-815.8 1945.87,-814 1944.85,-812.17 1943.96,-810.34 1943.22,-808.49 1942.63,-806.65 1942.2,-804.81 1941.92,-802.97 1941.81,-801.15 1941.88,-799.34 1942.12,-797.56 1942.54,-795.81 1943.15,-794.08 1943.93,-792.4 1944.91,-790.75 1946.07,-789.15 1947.41,-787.61 1948.94,-786.11 1950.65,-784.68 1952.54,-783.31 1954.6,-782 1956.82,-780.77 1959.21,-779.61 1961.75,-778.52 1964.43,-777.52 1967.25,-776.6 1970.19,-775.76 1973.24,-775.01 1976.4,-774.35 1979.65,-773.78 1982.97,-773.3 1986.36,-772.91 1989.8,-772.63 1993.27,-772.43 1996.77,-772.34 2000.27,-772.34 2003.77,-772.43"/>
<text text-anchor="start" x="1969.35" y="-817.37" font-family="Times,serif" font-size="14.00">C3489624</text>
<text text-anchor="start" x="1968.77" y="-803.37" font-family="Times,serif" font-size="14.00">soft drinks</text>
<text text-anchor="start" x="1975.58" y="-789.37" font-family="Times,serif" font-size="14.00">217:218</text>
</g>
<!-- id_27240560_DOT_12&#45;&#45;id_27240560_DOT_22 -->
<g id="edge8" class="edge">
<title>id_27240560_DOT_12&#45;&#45;id_27240560_DOT_22</title>
<path fill="none" stroke="black" d="M2324.75,-873.23C2250.21,-858.23 2120.11,-832.04 2048.81,-817.69"/>
<text text-anchor="middle" x="2160.53" y="-848.26" font-family="Times,serif" font-size="14.00">0.028898</text>
</g>
<!-- id_27240560_DOT_13&#45;&#45;id_27240560_DOT_24 -->
<g id="edge9" class="edge">
<title>id_27240560_DOT_13&#45;&#45;id_27240560_DOT_24</title>
<path fill="none" stroke="black" d="M4413.27,-456.14C4474.49,-412.88 4589.96,-331.3 4648.15,-290.19"/>
<text text-anchor="middle" x="4504.46" y="-375.97" font-family="Times,serif" font-size="14.00">0.007167</text>
</g>
<!-- id_27240560_DOT_25 -->
<g id="node25" class="node">
<title>id_27240560_DOT_25</title>
<polygon fill="brown" stroke="brown" points="3464.14,-1751.23 3467.56,-1751.43 3470.96,-1751.71 3474.3,-1752.1 3477.58,-1752.58 3480.79,-1753.15 3483.9,-1753.81 3486.92,-1754.56 3489.82,-1755.4 3492.6,-1756.32 3495.25,-1757.32 3497.75,-1758.41 3500.11,-1759.57 3502.3,-1760.8 3504.33,-1762.11 3506.2,-1763.48 3507.88,-1764.91 3509.39,-1766.41 3510.72,-1767.96 3511.86,-1769.55 3512.82,-1771.2 3513.6,-1772.88 3514.2,-1774.61 3514.61,-1776.36 3514.85,-1778.14 3514.91,-1779.95 3514.81,-1781.77 3514.54,-1783.61 3514.11,-1785.45 3513.52,-1787.29 3512.79,-1789.14 3511.92,-1790.97 3510.92,-1792.8 3509.79,-1794.6 3508.54,-1796.38 3507.18,-1798.14 3505.71,-1799.86 3504.15,-1801.55 3502.51,-1803.19 3500.78,-1804.79 3498.98,-1806.34 3497.11,-1807.83 3495.18,-1809.26 3493.2,-1810.63 3491.16,-1811.94 3489.09,-1813.17 3486.98,-1814.34 3484.83,-1815.42 3482.66,-1816.43 3480.47,-1817.35 3478.25,-1818.19 3476.02,-1818.94 3473.77,-1819.6 3471.51,-1820.17 3469.24,-1820.65 3466.96,-1821.03 3464.68,-1821.32 3462.39,-1821.51 3460.1,-1821.61 3457.81,-1821.61 3455.53,-1821.51 3453.24,-1821.32 3450.96,-1821.03 3448.68,-1820.65 3446.41,-1820.17 3444.15,-1819.6 3441.9,-1818.94 3439.67,-1818.19 3437.45,-1817.35 3435.25,-1816.43 3433.08,-1815.42 3430.94,-1814.34 3428.83,-1813.17 3426.75,-1811.94 3424.72,-1810.63 3422.74,-1809.26 3420.81,-1807.83 3418.94,-1806.34 3417.14,-1804.79 3415.41,-1803.19 3413.76,-1801.55 3412.2,-1799.86 3410.74,-1798.14 3409.38,-1796.38 3408.13,-1794.6 3407,-1792.8 3405.99,-1790.97 3405.12,-1789.14 3404.39,-1787.29 3403.81,-1785.45 3403.38,-1783.61 3403.11,-1781.77 3403,-1779.95 3403.07,-1778.14 3403.3,-1776.36 3403.72,-1774.61 3404.32,-1772.88 3405.09,-1771.2 3406.05,-1769.55 3407.2,-1767.96 3408.53,-1766.41 3410.03,-1764.91 3411.72,-1763.48 3413.58,-1762.11 3415.61,-1760.8 3417.81,-1759.57 3420.16,-1758.41 3422.67,-1757.32 3425.32,-1756.32 3428.1,-1755.4 3431,-1754.56 3434.01,-1753.81 3437.13,-1753.15 3440.33,-1752.58 3443.62,-1752.1 3446.96,-1751.71 3450.35,-1751.43 3453.78,-1751.23 3457.23,-1751.14 3460.69,-1751.14 3464.14,-1751.23"/>
<text text-anchor="start" x="3429.79" y="-1796.17" font-family="Times,serif" font-size="14.00">C0028754</text>
<text text-anchor="start" x="3438.74" y="-1782.17" font-family="Times,serif" font-size="14.00">obesity</text>
<text text-anchor="start" x="3436.01" y="-1768.17" font-family="Times,serif" font-size="14.00">277:277</text>
</g>
<!-- id_27240560_DOT_14&#45;&#45;id_27240560_DOT_25 -->
<g id="edge10" class="edge">
<title>id_27240560_DOT_14&#45;&#45;id_27240560_DOT_25</title>
<path fill="none" stroke="black" d="M3540.21,-2127.76C3523.12,-2055.93 3484.3,-1892.86 3467.25,-1821.23"/>
<text text-anchor="middle" x="3477.48" y="-1977.29" font-family="Times,serif" font-size="14.00">0.010080</text>
</g>
<!-- id_27240560_DOT_15&#45;&#45;id_27240560_DOT_17 -->
<g id="edge20" class="edge">
<title>id_27240560_DOT_15&#45;&#45;id_27240560_DOT_17</title>
<path fill="none" stroke="black" stroke-dasharray="1,5" d="M3232.51,-576.61C3234.96,-654.19 3240.79,-838.64 3243.25,-916.28"/>
<text text-anchor="middle" x="3211.63" y="-749.24" font-family="Times,serif" font-size="14.00">0.897106</text>
</g>
<!-- id_27240560_DOT_16&#45;&#45;id_27240560_DOT_17 -->
<g id="edge21" class="edge">
<title>id_27240560_DOT_16&#45;&#45;id_27240560_DOT_17</title>
<path fill="none" stroke="black" stroke-dasharray="1,5" d="M3609.16,-862.15C3537,-879.87 3401.79,-913.05 3317.79,-933.66"/>
<text text-anchor="middle" x="3437.23" y="-900.71" font-family="Times,serif" font-size="14.00">0.834177</text>
</g>
<!-- id_27240560_DOT_18 -->
<g id="node18" class="node">
<title>id_27240560_DOT_18</title>
<polygon fill="darkgreen" stroke="darkgreen" points="3403.22,-1350.71 3415.48,-1350.9 3427.61,-1351.19 3439.57,-1351.58 3451.3,-1352.05 3462.76,-1352.63 3473.9,-1353.29 3484.68,-1354.04 3495.06,-1354.87 3505,-1355.8 3514.47,-1356.8 3523.42,-1357.89 3531.84,-1359.05 3539.69,-1360.28 3546.96,-1361.59 3553.61,-1362.96 3559.64,-1364.39 3565.04,-1365.89 3569.78,-1367.43 3573.88,-1369.03 3577.31,-1370.68 3580.1,-1372.36 3582.23,-1374.09 3583.71,-1375.84 3584.56,-1377.62 3584.79,-1379.43 3584.41,-1381.25 3583.45,-1383.09 3581.91,-1384.93 3579.82,-1386.77 3577.21,-1388.62 3574.09,-1390.45 3570.5,-1392.27 3566.46,-1394.08 3561.99,-1395.86 3557.13,-1397.62 3551.89,-1399.34 3546.32,-1401.03 3540.43,-1402.67 3534.25,-1404.27 3527.8,-1405.82 3521.12,-1407.31 3514.22,-1408.74 3507.13,-1410.11 3499.86,-1411.42 3492.45,-1412.65 3484.9,-1413.81 3477.23,-1414.9 3469.47,-1415.9 3461.61,-1416.83 3453.69,-1417.66 3445.7,-1418.42 3437.66,-1419.08 3429.58,-1419.65 3421.46,-1420.12 3413.32,-1420.51 3405.16,-1420.8 3396.98,-1420.99 3388.8,-1421.09 3380.61,-1421.09 3372.43,-1420.99 3364.26,-1420.8 3356.1,-1420.51 3347.95,-1420.12 3339.84,-1419.65 3331.76,-1419.08 3323.72,-1418.42 3315.73,-1417.66 3307.8,-1416.83 3299.95,-1415.9 3292.18,-1414.9 3284.52,-1413.81 3276.97,-1412.65 3269.55,-1411.42 3262.29,-1410.11 3255.19,-1408.74 3248.3,-1407.31 3241.61,-1405.82 3235.17,-1404.27 3228.99,-1402.67 3223.1,-1401.03 3217.52,-1399.34 3212.29,-1397.62 3207.43,-1395.86 3202.96,-1394.08 3198.92,-1392.27 3195.32,-1390.45 3192.21,-1388.62 3189.6,-1386.77 3187.51,-1384.93 3185.97,-1383.09 3185,-1381.25 3184.62,-1379.43 3184.85,-1377.62 3185.7,-1375.84 3187.19,-1374.09 3189.32,-1372.36 3192.1,-1370.68 3195.54,-1369.03 3199.63,-1367.43 3204.38,-1365.89 3209.77,-1364.39 3215.8,-1362.96 3222.46,-1361.59 3229.72,-1360.28 3237.57,-1359.05 3245.99,-1357.89 3254.95,-1356.8 3264.41,-1355.8 3274.35,-1354.87 3284.73,-1354.04 3295.52,-1353.29 3306.66,-1352.63 3318.12,-1352.05 3329.85,-1351.58 3341.8,-1351.19 3353.93,-1350.9 3366.19,-1350.71 3378.53,-1350.62 3390.89,-1350.62 3403.22,-1350.71"/>
<text text-anchor="start" x="3355.54" y="-1395.65" font-family="Times,serif" font-size="14.00">C0206031</text>
<text text-anchor="start" x="3259.72" y="-1381.65" font-family="Times,serif" font-size="14.00">crude and adjusted binary logistic regression</text>
<text text-anchor="start" x="3361.76" y="-1367.65" font-family="Times,serif" font-size="14.00">141:146</text>
</g>
<!-- id_27240560_DOT_17&#45;&#45;id_27240560_DOT_18 -->
<g id="edge22" class="edge">
<title>id_27240560_DOT_17&#45;&#45;id_27240560_DOT_18</title>
<path fill="none" stroke="black" stroke-dasharray="1,5" d="M3255.62,-986.48C3281.86,-1067.67 3346.92,-1268.93 3373.31,-1350.59"/>
<text text-anchor="middle" x="3288.21" y="-1171.33" font-family="Times,serif" font-size="14.00">0.635980</text>
</g>
<!-- id_27240560_DOT_19 -->
<g id="node19" class="node">
<title>id_27240560_DOT_19</title>
<polygon fill="darkkhaki" stroke="darkkhaki" points="3066.91,-1185.43 3072.15,-1185.63 3077.34,-1185.92 3082.45,-1186.3 3087.47,-1186.78 3092.37,-1187.35 3097.13,-1188.01 3101.74,-1188.76 3106.18,-1189.6 3110.43,-1190.52 3114.48,-1191.52 3118.31,-1192.61 3121.9,-1193.77 3125.26,-1195.01 3128.37,-1196.31 3131.21,-1197.68 3133.79,-1199.12 3136.1,-1200.61 3138.13,-1202.16 3139.88,-1203.75 3141.35,-1205.4 3142.54,-1207.08 3143.45,-1208.81 3144.08,-1210.56 3144.45,-1212.34 3144.55,-1214.15 3144.38,-1215.97 3143.97,-1217.81 3143.31,-1219.65 3142.42,-1221.5 3141.3,-1223.34 3139.97,-1225.17 3138.43,-1227 3136.71,-1228.8 3134.8,-1230.58 3132.72,-1232.34 3130.48,-1234.06 3128.1,-1235.75 3125.58,-1237.39 3122.93,-1238.99 3120.18,-1240.54 3117.32,-1242.03 3114.37,-1243.46 3111.34,-1244.84 3108.23,-1246.14 3105.06,-1247.38 3101.83,-1248.54 3098.56,-1249.62 3095.23,-1250.63 3091.88,-1251.55 3088.49,-1252.39 3085.07,-1253.14 3081.63,-1253.8 3078.18,-1254.37 3074.71,-1254.85 3071.23,-1255.23 3067.74,-1255.52 3064.24,-1255.71 3060.74,-1255.81 3057.24,-1255.81 3053.75,-1255.71 3050.25,-1255.52 3046.76,-1255.23 3043.28,-1254.85 3039.81,-1254.37 3036.35,-1253.8 3032.92,-1253.14 3029.5,-1252.39 3026.11,-1251.55 3022.75,-1250.63 3019.43,-1249.62 3016.15,-1248.54 3012.93,-1247.38 3009.76,-1246.14 3006.65,-1244.84 3003.62,-1243.46 3000.67,-1242.03 2997.81,-1240.54 2995.05,-1238.99 2992.41,-1237.39 2989.89,-1235.75 2987.51,-1234.06 2985.27,-1232.34 2983.19,-1230.58 2981.28,-1228.8 2979.55,-1227 2978.02,-1225.17 2976.69,-1223.34 2975.57,-1221.5 2974.68,-1219.65 2974.02,-1217.81 2973.6,-1215.97 2973.44,-1214.15 2973.54,-1212.34 2973.9,-1210.56 2974.54,-1208.81 2975.45,-1207.08 2976.64,-1205.4 2978.11,-1203.75 2979.86,-1202.16 2981.89,-1200.61 2984.2,-1199.12 2986.77,-1197.68 2989.62,-1196.31 2992.73,-1195.01 2996.08,-1193.77 2999.68,-1192.61 3003.51,-1191.52 3007.56,-1190.52 3011.81,-1189.6 3016.25,-1188.76 3020.86,-1188.01 3025.62,-1187.35 3030.52,-1186.78 3035.54,-1186.3 3040.65,-1185.92 3045.84,-1185.63 3051.08,-1185.43 3056.35,-1185.34 3061.64,-1185.34 3066.91,-1185.43"/>
<text text-anchor="start" x="3029.83" y="-1230.37" font-family="Times,serif" font-size="14.00">C0814896</text>
<text text-anchor="start" x="3010.21" y="-1216.37" font-family="Times,serif" font-size="14.00">significance level</text>
<text text-anchor="start" x="3036.05" y="-1202.37" font-family="Times,serif" font-size="14.00">149:150</text>
</g>
<!-- id_27240560_DOT_17&#45;&#45;id_27240560_DOT_19 -->
<g id="edge23" class="edge">
<title>id_27240560_DOT_17&#45;&#45;id_27240560_DOT_19</title>
<path fill="none" stroke="black" stroke-dasharray="1,5" d="M3221.64,-984.66C3186.35,-1035.84 3118.72,-1133.94 3082.79,-1186.06"/>
<text text-anchor="middle" x="3125.96" y="-1088.16" font-family="Times,serif" font-size="14.00">0.806039</text>
</g>
<!-- id_27240560_DOT_18&#45;&#45;id_27240560_DOT_25 -->
<g id="edge24" class="edge">
<title>id_27240560_DOT_18&#45;&#45;id_27240560_DOT_25</title>
<path fill="none" stroke="black" stroke-dasharray="1,5" d="M3391.3,-1421.39C3405.4,-1497.5 3438.39,-1675.42 3452.44,-1751.19"/>
<text text-anchor="middle" x="3395.62" y="-1589.09" font-family="Times,serif" font-size="14.00">0.934400</text>
</g>
<!-- id_27240560_DOT_21 -->
<g id="node21" class="node">
<title>id_27240560_DOT_21</title>
<polygon fill="aquamarine" stroke="aquamarine" points="183.32,-677.74 193.58,-677.93 203.75,-678.22 213.76,-678.6 223.59,-679.08 233.19,-679.65 242.52,-680.31 251.55,-681.06 260.25,-681.9 268.58,-682.82 276.5,-683.83 284.01,-684.91 291.06,-686.07 297.64,-687.31 303.72,-688.61 309.3,-689.98 314.35,-691.42 318.87,-692.91 322.84,-694.46 326.27,-696.06 329.15,-697.7 331.48,-699.39 333.27,-701.11 334.51,-702.86 335.22,-704.65 335.42,-706.45 335.1,-708.27 334.29,-710.11 333,-711.95 331.25,-713.8 329.06,-715.64 326.45,-717.47 323.44,-719.3 320.06,-721.1 316.31,-722.88 312.24,-724.64 307.86,-726.36 303.19,-728.05 298.25,-729.69 293.07,-731.29 287.68,-732.84 282.08,-734.33 276.3,-735.77 270.36,-737.14 264.27,-738.44 258.06,-739.68 251.74,-740.84 245.31,-741.92 238.81,-742.93 232.23,-743.85 225.59,-744.69 218.9,-745.44 212.16,-746.1 205.39,-746.67 198.59,-747.15 191.77,-747.53 184.94,-747.82 178.09,-748.01 171.23,-748.11 164.38,-748.11 157.52,-748.01 150.67,-747.82 143.84,-747.53 137.02,-747.15 130.22,-746.67 123.45,-746.1 116.71,-745.44 110.02,-744.69 103.38,-743.85 96.8,-742.93 90.3,-741.92 83.88,-740.84 77.55,-739.68 71.34,-738.44 65.25,-737.14 59.31,-735.77 53.53,-734.33 47.93,-732.84 42.54,-731.29 37.36,-729.69 32.42,-728.05 27.75,-726.36 23.37,-724.64 19.3,-722.88 15.55,-721.1 12.17,-719.3 9.16,-717.47 6.55,-715.64 4.36,-713.8 2.61,-711.95 1.32,-710.11 0.51,-708.27 0.19,-706.45 0.39,-704.65 1.1,-702.86 2.34,-701.11 4.13,-699.39 6.46,-697.7 9.34,-696.06 12.77,-694.46 16.74,-692.91 21.26,-691.42 26.31,-689.98 31.89,-688.61 37.97,-687.31 44.55,-686.07 51.6,-684.91 59.11,-683.83 67.03,-682.82 75.36,-681.9 84.06,-681.06 93.09,-680.31 102.42,-679.65 112.02,-679.08 121.85,-678.6 131.86,-678.22 142.03,-677.93 152.3,-677.74 162.63,-677.64 172.98,-677.64 183.32,-677.74"/>
<text text-anchor="start" x="138.64" y="-722.67" font-family="Times,serif" font-size="14.00">C1271941</text>
<text text-anchor="start" x="64.38" y="-708.67" font-family="Times,serif" font-size="14.00">consumption of fruits and vegetables</text>
<text text-anchor="start" x="144.86" y="-694.67" font-family="Times,serif" font-size="14.00">185:189</text>
</g>
<!-- id_27240560_DOT_20&#45;&#45;id_27240560_DOT_21 -->
<g id="edge11" class="edge">
<title>id_27240560_DOT_20&#45;&#45;id_27240560_DOT_21</title>
<path fill="none" stroke="black" d="M375.31,-733.49C352.57,-731.23 329.34,-728.93 307.04,-726.71"/>
<text text-anchor="middle" x="341.17" y="-718.9" font-family="Times,serif" font-size="14.00">0.008523</text>
</g>
<!-- id_27240560_DOT_22&#45;&#45;id_27240560_DOT_23 -->
<g id="edge12" class="edge">
<title>id_27240560_DOT_22&#45;&#45;id_27240560_DOT_23</title>
<path fill="none" stroke="black" d="M1945.22,-789.83C1873.13,-765.83 1745.78,-723.44 1677.76,-700.8"/>
<text text-anchor="middle" x="1785.24" y="-748.11" font-family="Times,serif" font-size="14.00">0.022309</text>
</g>
</g>
</svg>
