<?xml version="1.0" encoding="UTF-8" standalone="no"?>
<!DOCTYPE svg PUBLIC "-//W3C//DTD SVG 1.1//EN"
 "http://www.w3.org/Graphics/SVG/1.1/DTD/svg11.dtd">
<!-- Generated by graphviz version 2.42.3 (20191010.1750)
 -->
<!-- Title: MST Pages: 1 -->
<svg width="3877pt" height="4145pt"
 viewBox="0.00 0.00 3876.81 4145.42" xmlns="http://www.w3.org/2000/svg" xmlns:xlink="http://www.w3.org/1999/xlink">
<g id="graph0" class="graph" transform="scale(1 1) rotate(0) translate(4 4141.42)">
<title>MST</title>
<polygon fill="white" stroke="transparent" points="-4,4 -4,-4141.42 3872.81,-4141.42 3872.81,4 -4,4"/>
<!-- id_27256947_DOT_1 -->
<g id="node1" class="node">
<title>id_27256947_DOT_1</title>
<polygon fill="aquamarine" stroke="aquamarine" points="3068.6,-3273.96 3072.24,-3274.15 3075.84,-3274.44 3079.39,-3274.82 3082.87,-3275.3 3086.28,-3275.87 3089.59,-3276.53 3092.79,-3277.28 3095.87,-3278.12 3098.82,-3279.04 3101.63,-3280.05 3104.29,-3281.13 3106.79,-3282.29 3109.12,-3283.53 3111.28,-3284.83 3113.26,-3286.2 3115.05,-3287.64 3116.65,-3289.13 3118.06,-3290.68 3119.27,-3292.28 3120.3,-3293.92 3121.12,-3295.61 3121.75,-3297.33 3122.2,-3299.08 3122.45,-3300.87 3122.52,-3302.67 3122.4,-3304.49 3122.12,-3306.33 3121.66,-3308.17 3121.04,-3310.02 3120.26,-3311.86 3119.34,-3313.69 3118.27,-3315.52 3117.07,-3317.32 3115.74,-3319.1 3114.3,-3320.86 3112.75,-3322.58 3111.09,-3324.27 3109.34,-3325.91 3107.51,-3327.51 3105.59,-3329.06 3103.61,-3330.55 3101.56,-3331.99 3099.45,-3333.36 3097.3,-3334.66 3095.09,-3335.9 3092.85,-3337.06 3090.58,-3338.14 3088.27,-3339.15 3085.94,-3340.07 3083.58,-3340.91 3081.21,-3341.66 3078.82,-3342.32 3076.42,-3342.89 3074.01,-3343.37 3071.6,-3343.75 3069.17,-3344.04 3066.75,-3344.23 3064.32,-3344.33 3061.88,-3344.33 3059.45,-3344.23 3057.03,-3344.04 3054.6,-3343.75 3052.19,-3343.37 3049.78,-3342.89 3047.38,-3342.32 3044.99,-3341.66 3042.62,-3340.91 3040.26,-3340.07 3037.93,-3339.15 3035.62,-3338.14 3033.35,-3337.06 3031.11,-3335.9 3028.9,-3334.66 3026.75,-3333.36 3024.64,-3331.99 3022.59,-3330.55 3020.61,-3329.06 3018.69,-3327.51 3016.86,-3325.91 3015.11,-3324.27 3013.45,-3322.58 3011.9,-3320.86 3010.46,-3319.1 3009.13,-3317.32 3007.93,-3315.52 3006.86,-3313.69 3005.94,-3311.86 3005.16,-3310.02 3004.54,-3308.17 3004.08,-3306.33 3003.8,-3304.49 3003.68,-3302.67 3003.75,-3300.87 3004,-3299.08 3004.45,-3297.33 3005.08,-3295.61 3005.9,-3293.92 3006.93,-3292.28 3008.14,-3290.68 3009.55,-3289.13 3011.15,-3287.64 3012.94,-3286.2 3014.92,-3284.83 3017.08,-3283.53 3019.41,-3282.29 3021.91,-3281.13 3024.57,-3280.05 3027.38,-3279.04 3030.33,-3278.12 3033.41,-3277.28 3036.61,-3276.53 3039.92,-3275.87 3043.33,-3275.3 3046.81,-3274.82 3050.36,-3274.44 3053.96,-3274.15 3057.6,-3273.96 3061.26,-3273.86 3064.94,-3273.86 3068.6,-3273.96"/>
<text text-anchor="start" x="3033.93" y="-3318.89" font-family="Times,serif" font-size="14.00">C0596545</text>
<text text-anchor="start" x="3031.62" y="-3304.89" font-family="Times,serif" font-size="14.00">Experience</text>
<text text-anchor="start" x="3054.16" y="-3290.89" font-family="Times,serif" font-size="14.00">1:1</text>
</g>
<!-- id_27256947_DOT_18 -->
<g id="node18" class="node">
<title>id_27256947_DOT_18</title>
<polygon fill="aquamarine" stroke="aquamarine" points="2878.42,-2935.35 2882.19,-2935.54 2885.93,-2935.83 2889.61,-2936.22 2893.22,-2936.69 2896.75,-2937.26 2900.18,-2937.93 2903.5,-2938.68 2906.69,-2939.51 2909.75,-2940.44 2912.67,-2941.44 2915.42,-2942.53 2918.02,-2943.69 2920.43,-2944.92 2922.67,-2946.23 2924.72,-2947.6 2926.58,-2949.03 2928.24,-2950.53 2929.7,-2952.07 2930.96,-2953.67 2932.02,-2955.32 2932.87,-2957 2933.53,-2958.72 2933.99,-2960.48 2934.25,-2962.26 2934.32,-2964.07 2934.2,-2965.89 2933.9,-2967.73 2933.43,-2969.57 2932.79,-2971.41 2931.98,-2973.26 2931.02,-2975.09 2929.92,-2976.91 2928.67,-2978.72 2927.3,-2980.5 2925.8,-2982.26 2924.19,-2983.98 2922.47,-2985.67 2920.66,-2987.31 2918.76,-2988.91 2916.77,-2990.46 2914.71,-2991.95 2912.59,-2993.38 2910.41,-2994.75 2908.17,-2996.06 2905.89,-2997.29 2903.56,-2998.45 2901.2,-2999.54 2898.81,-3000.54 2896.39,-3001.47 2893.95,-3002.3 2891.49,-3003.06 2889.02,-3003.72 2886.53,-3004.29 2884.03,-3004.76 2881.53,-3005.15 2879.01,-3005.44 2876.5,-3005.63 2873.98,-3005.73 2871.46,-3005.73 2868.94,-3005.63 2866.42,-3005.44 2863.91,-3005.15 2861.4,-3004.76 2858.9,-3004.29 2856.41,-3003.72 2853.94,-3003.06 2851.48,-3002.3 2849.04,-3001.47 2846.62,-3000.54 2844.23,-2999.54 2841.87,-2998.45 2839.55,-2997.29 2837.26,-2996.06 2835.03,-2994.75 2832.84,-2993.38 2830.72,-2991.95 2828.66,-2990.46 2826.68,-2988.91 2824.77,-2987.31 2822.96,-2985.67 2821.24,-2983.98 2819.63,-2982.26 2818.14,-2980.5 2816.76,-2978.72 2815.52,-2976.91 2814.41,-2975.09 2813.45,-2973.26 2812.65,-2971.41 2812,-2969.57 2811.53,-2967.73 2811.23,-2965.89 2811.12,-2964.07 2811.19,-2962.26 2811.45,-2960.48 2811.91,-2958.72 2812.56,-2957 2813.42,-2955.32 2814.48,-2953.67 2815.74,-2952.07 2817.2,-2950.53 2818.86,-2949.03 2820.71,-2947.6 2822.76,-2946.23 2825,-2944.92 2827.42,-2943.69 2830.01,-2942.53 2832.77,-2941.44 2835.68,-2940.44 2838.74,-2939.51 2841.94,-2938.68 2845.26,-2937.93 2848.69,-2937.26 2852.21,-2936.69 2855.83,-2936.22 2859.51,-2935.83 2863.24,-2935.54 2867.02,-2935.35 2870.81,-2935.26 2874.62,-2935.26 2878.42,-2935.35"/>
<text text-anchor="start" x="2843.55" y="-2980.29" font-family="Times,serif" font-size="14.00">C0596545</text>
<text text-anchor="start" x="2839.68" y="-2966.29" font-family="Times,serif" font-size="14.00">experiences</text>
<text text-anchor="start" x="2856.77" y="-2952.29" font-family="Times,serif" font-size="14.00">89:89</text>
</g>
<!-- id_27256947_DOT_1&#45;&#45;id_27256947_DOT_18 -->
<g id="edge1" class="edge">
<title>id_27256947_DOT_1&#45;&#45;id_27256947_DOT_18</title>
<path fill="none" stroke="black" d="M3043.97,-3275.08C3007.29,-3209.84 2927.49,-3067.91 2891.27,-3003.49"/>
<text text-anchor="middle" x="2941.37" y="-3142.08" font-family="Times,serif" font-size="14.00">0.018661</text>
</g>
<!-- id_27256947_DOT_20 -->
<g id="node20" class="node">
<title>id_27256947_DOT_20</title>
<polygon fill="coral" stroke="coral" points="3266.28,-3589.76 3269.71,-3589.95 3273.1,-3590.24 3276.45,-3590.63 3279.73,-3591.1 3282.93,-3591.68 3286.05,-3592.34 3289.06,-3593.09 3291.97,-3593.92 3294.75,-3594.85 3297.39,-3595.85 3299.9,-3596.94 3302.25,-3598.1 3304.45,-3599.33 3306.48,-3600.64 3308.34,-3602.01 3310.03,-3603.44 3311.54,-3604.94 3312.86,-3606.48 3314.01,-3608.08 3314.97,-3609.73 3315.75,-3611.41 3316.34,-3613.13 3316.76,-3614.89 3317,-3616.67 3317.06,-3618.48 3316.96,-3620.3 3316.69,-3622.14 3316.26,-3623.98 3315.67,-3625.82 3314.94,-3627.67 3314.07,-3629.5 3313.06,-3631.32 3311.93,-3633.13 3310.68,-3634.91 3309.32,-3636.67 3307.86,-3638.39 3306.3,-3640.08 3304.65,-3641.72 3302.93,-3643.32 3301.12,-3644.87 3299.26,-3646.36 3297.33,-3647.79 3295.34,-3649.16 3293.31,-3650.47 3291.24,-3651.7 3289.13,-3652.86 3286.98,-3653.95 3284.81,-3654.95 3282.61,-3655.88 3280.4,-3656.71 3278.16,-3657.47 3275.91,-3658.13 3273.65,-3658.7 3271.38,-3659.17 3269.11,-3659.56 3266.82,-3659.85 3264.54,-3660.04 3262.25,-3660.14 3259.96,-3660.14 3257.67,-3660.04 3255.39,-3659.85 3253.1,-3659.56 3250.83,-3659.17 3248.56,-3658.7 3246.3,-3658.13 3244.05,-3657.47 3241.81,-3656.71 3239.6,-3655.88 3237.4,-3654.95 3235.23,-3653.95 3233.09,-3652.86 3230.97,-3651.7 3228.9,-3650.47 3226.87,-3649.16 3224.89,-3647.79 3222.96,-3646.36 3221.09,-3644.87 3219.28,-3643.32 3217.56,-3641.72 3215.91,-3640.08 3214.35,-3638.39 3212.89,-3636.67 3211.53,-3634.91 3210.28,-3633.13 3209.15,-3631.32 3208.14,-3629.5 3207.27,-3627.67 3206.54,-3625.82 3205.96,-3623.98 3205.53,-3622.14 3205.25,-3620.3 3205.15,-3618.48 3205.21,-3616.67 3205.45,-3614.89 3205.87,-3613.13 3206.46,-3611.41 3207.24,-3609.73 3208.2,-3608.08 3209.35,-3606.48 3210.67,-3604.94 3212.18,-3603.44 3213.87,-3602.01 3215.73,-3600.64 3217.76,-3599.33 3219.96,-3598.1 3222.31,-3596.94 3224.82,-3595.85 3227.46,-3594.85 3230.24,-3593.92 3233.15,-3593.09 3236.16,-3592.34 3239.28,-3591.68 3242.48,-3591.1 3245.76,-3590.63 3249.11,-3590.24 3252.5,-3589.95 3255.93,-3589.76 3259.38,-3589.67 3262.83,-3589.67 3266.28,-3589.76"/>
<text text-anchor="start" x="3231.94" y="-3634.7" font-family="Times,serif" font-size="14.00">C0282574</text>
<text text-anchor="start" x="3247.11" y="-3620.7" font-family="Times,serif" font-size="14.00">story</text>
<text text-anchor="start" x="3238.67" y="-3606.7" font-family="Times,serif" font-size="14.00">110:110</text>
</g>
<!-- id_27256947_DOT_1&#45;&#45;id_27256947_DOT_20 -->
<g id="edge10" class="edge">
<title>id_27256947_DOT_1&#45;&#45;id_27256947_DOT_20</title>
<path fill="none" stroke="black" stroke-dasharray="1,5" d="M3083.18,-3341.11C3120.83,-3401.17 3201.72,-3530.18 3240.08,-3591.37"/>
<text text-anchor="middle" x="3135.38" y="-3469.04" font-family="Times,serif" font-size="14.00">0.682450</text>
</g>
<!-- id_27256947_DOT_2 -->
<g id="node2" class="node">
<title>id_27256947_DOT_2</title>
<polygon fill="bisque" stroke="bisque" points="1167.17,-1259.81 1170.6,-1260 1173.99,-1260.29 1177.34,-1260.68 1180.62,-1261.15 1183.82,-1261.72 1186.94,-1262.38 1189.95,-1263.14 1192.86,-1263.97 1195.64,-1264.9 1198.28,-1265.9 1200.79,-1266.99 1203.14,-1268.15 1205.34,-1269.38 1207.37,-1270.69 1209.23,-1272.06 1210.92,-1273.49 1212.43,-1274.98 1213.75,-1276.53 1214.9,-1278.13 1215.86,-1279.77 1216.64,-1281.46 1217.23,-1283.18 1217.65,-1284.94 1217.89,-1286.72 1217.95,-1288.53 1217.84,-1290.35 1217.57,-1292.18 1217.14,-1294.03 1216.56,-1295.87 1215.83,-1297.71 1214.96,-1299.55 1213.95,-1301.37 1212.82,-1303.18 1211.57,-1304.96 1210.21,-1306.71 1208.75,-1308.44 1207.19,-1310.12 1205.54,-1311.77 1203.81,-1313.37 1202.01,-1314.91 1200.14,-1316.41 1198.21,-1317.84 1196.23,-1319.21 1194.2,-1320.52 1192.12,-1321.75 1190.01,-1322.91 1187.87,-1324 1185.7,-1325 1183.5,-1325.92 1181.28,-1326.76 1179.05,-1327.51 1176.8,-1328.17 1174.54,-1328.74 1172.27,-1329.22 1170,-1329.61 1167.71,-1329.89 1165.43,-1330.09 1163.14,-1330.18 1160.85,-1330.18 1158.56,-1330.09 1156.27,-1329.89 1153.99,-1329.61 1151.71,-1329.22 1149.44,-1328.74 1147.18,-1328.17 1144.94,-1327.51 1142.7,-1326.76 1140.49,-1325.92 1138.29,-1325 1136.12,-1324 1133.97,-1322.91 1131.86,-1321.75 1129.79,-1320.52 1127.76,-1319.21 1125.77,-1317.84 1123.84,-1316.41 1121.97,-1314.91 1120.17,-1313.37 1118.44,-1311.77 1116.8,-1310.12 1115.24,-1308.44 1113.77,-1306.71 1112.41,-1304.96 1111.16,-1303.18 1110.03,-1301.37 1109.03,-1299.55 1108.16,-1297.71 1107.43,-1295.87 1106.84,-1294.03 1106.41,-1292.18 1106.14,-1290.35 1106.04,-1288.53 1106.1,-1286.72 1106.34,-1284.94 1106.75,-1283.18 1107.35,-1281.46 1108.13,-1279.77 1109.09,-1278.13 1110.23,-1276.53 1111.56,-1274.98 1113.07,-1273.49 1114.76,-1272.06 1116.62,-1270.69 1118.65,-1269.38 1120.85,-1268.15 1123.2,-1266.99 1125.7,-1265.9 1128.35,-1264.9 1131.13,-1263.97 1134.03,-1263.14 1137.05,-1262.38 1140.17,-1261.72 1143.37,-1261.15 1146.65,-1260.68 1149.99,-1260.29 1153.39,-1260 1156.82,-1259.81 1160.26,-1259.71 1163.72,-1259.71 1167.17,-1259.81"/>
<text text-anchor="start" x="1132.82" y="-1304.75" font-family="Times,serif" font-size="14.00">C0043210</text>
<text text-anchor="start" x="1140.39" y="-1290.75" font-family="Times,serif" font-size="14.00">Women</text>
<text text-anchor="start" x="1153.05" y="-1276.75" font-family="Times,serif" font-size="14.00">3:3</text>
</g>
<!-- id_27256947_DOT_11 -->
<g id="node11" class="node">
<title>id_27256947_DOT_11</title>
<polygon fill="bisque" stroke="bisque" points="1382.65,-1560.2 1386.08,-1560.39 1389.47,-1560.68 1392.81,-1561.06 1396.09,-1561.54 1399.3,-1562.11 1402.41,-1562.77 1405.43,-1563.52 1408.33,-1564.36 1411.11,-1565.28 1413.76,-1566.29 1416.26,-1567.37 1418.62,-1568.54 1420.81,-1569.77 1422.84,-1571.08 1424.71,-1572.45 1426.39,-1573.88 1427.9,-1575.37 1429.23,-1576.92 1430.37,-1578.52 1431.33,-1580.16 1432.11,-1581.85 1432.71,-1583.57 1433.12,-1585.33 1433.36,-1587.11 1433.43,-1588.91 1433.32,-1590.74 1433.05,-1592.57 1432.62,-1594.42 1432.04,-1596.26 1431.3,-1598.1 1430.43,-1599.94 1429.43,-1601.76 1428.3,-1603.57 1427.05,-1605.35 1425.69,-1607.1 1424.23,-1608.83 1422.67,-1610.51 1421.02,-1612.16 1419.29,-1613.76 1417.49,-1615.3 1415.62,-1616.8 1413.69,-1618.23 1411.71,-1619.6 1409.67,-1620.91 1407.6,-1622.14 1405.49,-1623.3 1403.35,-1624.39 1401.17,-1625.39 1398.98,-1626.31 1396.76,-1627.15 1394.53,-1627.9 1392.28,-1628.56 1390.02,-1629.13 1387.75,-1629.61 1385.47,-1630 1383.19,-1630.28 1380.9,-1630.48 1378.61,-1630.57 1376.32,-1630.57 1374.04,-1630.48 1371.75,-1630.28 1369.47,-1630 1367.19,-1629.61 1364.92,-1629.13 1362.66,-1628.56 1360.41,-1627.9 1358.18,-1627.15 1355.96,-1626.31 1353.77,-1625.39 1351.59,-1624.39 1349.45,-1623.3 1347.34,-1622.14 1345.26,-1620.91 1343.23,-1619.6 1341.25,-1618.23 1339.32,-1616.8 1337.45,-1615.3 1335.65,-1613.76 1333.92,-1612.16 1332.27,-1610.51 1330.71,-1608.83 1329.25,-1607.1 1327.89,-1605.35 1326.64,-1603.57 1325.51,-1601.76 1324.51,-1599.94 1323.63,-1598.1 1322.9,-1596.26 1322.32,-1594.42 1321.89,-1592.57 1321.62,-1590.74 1321.51,-1588.91 1321.58,-1587.11 1321.81,-1585.33 1322.23,-1583.57 1322.83,-1581.85 1323.6,-1580.16 1324.57,-1578.52 1325.71,-1576.92 1327.04,-1575.37 1328.55,-1573.88 1330.23,-1572.45 1332.09,-1571.08 1334.13,-1569.77 1336.32,-1568.54 1338.68,-1567.37 1341.18,-1566.29 1343.83,-1565.28 1346.61,-1564.36 1349.51,-1563.52 1352.53,-1562.77 1355.64,-1562.11 1358.85,-1561.54 1362.13,-1561.06 1365.47,-1560.68 1368.86,-1560.39 1372.29,-1560.2 1375.74,-1560.1 1379.2,-1560.1 1382.65,-1560.2"/>
<text text-anchor="start" x="1348.3" y="-1605.14" font-family="Times,serif" font-size="14.00">C0043210</text>
<text text-anchor="start" x="1356.86" y="-1591.14" font-family="Times,serif" font-size="14.00">women</text>
<text text-anchor="start" x="1361.52" y="-1577.14" font-family="Times,serif" font-size="14.00">43:43</text>
</g>
<!-- id_27256947_DOT_2&#45;&#45;id_27256947_DOT_11 -->
<g id="edge2" class="edge">
<title>id_27256947_DOT_2&#45;&#45;id_27256947_DOT_11</title>
<path fill="none" stroke="black" d="M1184.24,-1325.96C1225.1,-1382.93 1311.75,-1503.72 1353.71,-1562.22"/>
<text text-anchor="middle" x="1242.73" y="-1446.89" font-family="Times,serif" font-size="14.00">0.003355</text>
</g>
<!-- id_27256947_DOT_23 -->
<g id="node23" class="node">
<title>id_27256947_DOT_23</title>
<polygon fill="blue" stroke="blue" points="927.38,-981.27 930.81,-981.46 934.2,-981.75 937.54,-982.13 940.82,-982.61 944.03,-983.18 947.14,-983.84 950.16,-984.59 953.06,-985.43 955.84,-986.35 958.49,-987.36 960.99,-988.44 963.35,-989.61 965.54,-990.84 967.57,-992.15 969.44,-993.52 971.12,-994.95 972.63,-996.44 973.96,-997.99 975.1,-999.59 976.06,-1001.23 976.84,-1002.92 977.44,-1004.64 977.85,-1006.4 978.09,-1008.18 978.16,-1009.99 978.05,-1011.81 977.78,-1013.64 977.35,-1015.49 976.77,-1017.33 976.03,-1019.17 975.16,-1021.01 974.16,-1022.83 973.03,-1024.64 971.78,-1026.42 970.42,-1028.17 968.96,-1029.9 967.4,-1031.58 965.75,-1033.23 964.02,-1034.83 962.22,-1036.37 960.35,-1037.87 958.42,-1039.3 956.44,-1040.67 954.4,-1041.98 952.33,-1043.21 950.22,-1044.37 948.08,-1045.46 945.9,-1046.46 943.71,-1047.38 941.49,-1048.22 939.26,-1048.97 937.01,-1049.63 934.75,-1050.2 932.48,-1050.68 930.2,-1051.07 927.92,-1051.35 925.63,-1051.55 923.34,-1051.64 921.05,-1051.64 918.77,-1051.55 916.48,-1051.35 914.2,-1051.07 911.92,-1050.68 909.65,-1050.2 907.39,-1049.63 905.14,-1048.97 902.91,-1048.22 900.69,-1047.38 898.5,-1046.46 896.32,-1045.46 894.18,-1044.37 892.07,-1043.21 889.99,-1041.98 887.96,-1040.67 885.98,-1039.3 884.05,-1037.87 882.18,-1036.37 880.38,-1034.83 878.65,-1033.23 877,-1031.58 875.44,-1029.9 873.98,-1028.17 872.62,-1026.42 871.37,-1024.64 870.24,-1022.83 869.24,-1021.01 868.36,-1019.17 867.63,-1017.33 867.05,-1015.49 866.62,-1013.64 866.35,-1011.81 866.24,-1009.99 866.31,-1008.18 866.54,-1006.4 866.96,-1004.64 867.56,-1002.92 868.33,-1001.23 869.3,-999.59 870.44,-997.99 871.77,-996.44 873.28,-994.95 874.96,-993.52 876.82,-992.15 878.86,-990.84 881.05,-989.61 883.41,-988.44 885.91,-987.36 888.56,-986.35 891.34,-985.43 894.24,-984.59 897.26,-983.84 900.37,-983.18 903.58,-982.61 906.86,-982.13 910.2,-981.75 913.59,-981.46 917.02,-981.27 920.47,-981.17 923.93,-981.17 927.38,-981.27"/>
<text text-anchor="start" x="893.03" y="-1026.21" font-family="Times,serif" font-size="14.00">C0042610</text>
<text text-anchor="start" x="898.88" y="-1012.21" font-family="Times,serif" font-size="14.00">veterans</text>
<text text-anchor="start" x="899.25" y="-998.21" font-family="Times,serif" font-size="14.00">124:124</text>
</g>
<!-- id_27256947_DOT_2&#45;&#45;id_27256947_DOT_23 -->
<g id="edge11" class="edge">
<title>id_27256947_DOT_2&#45;&#45;id_27256947_DOT_23</title>
<path fill="none" stroke="black" stroke-dasharray="1,5" d="M1134.49,-1263C1087.62,-1208.55 992.95,-1098.59 947.57,-1045.88"/>
<text text-anchor="middle" x="1014.78" y="-1157.24" font-family="Times,serif" font-size="14.00">0.553065</text>
</g>
<!-- id_27256947_DOT_3 -->
<g id="node3" class="node">
<title>id_27256947_DOT_3</title>
<polygon fill="blue" stroke="blue" points="61.16,-396.31 64.58,-396.5 67.98,-396.79 71.32,-397.17 74.6,-397.65 77.81,-398.22 80.92,-398.88 83.94,-399.63 86.84,-400.47 89.62,-401.39 92.27,-402.4 94.77,-403.48 97.13,-404.64 99.32,-405.88 101.35,-407.18 103.22,-408.56 104.9,-409.99 106.41,-411.48 107.74,-413.03 108.88,-414.63 109.84,-416.27 110.62,-417.96 111.22,-419.68 111.63,-421.44 111.87,-423.22 111.93,-425.02 111.83,-426.85 111.56,-428.68 111.13,-430.52 110.54,-432.37 109.81,-434.21 108.94,-436.05 107.94,-437.87 106.81,-439.68 105.56,-441.46 104.2,-443.21 102.73,-444.94 101.18,-446.62 99.53,-448.27 97.8,-449.86 96,-451.41 94.13,-452.9 92.2,-454.34 90.22,-455.71 88.18,-457.02 86.11,-458.25 84,-459.41 81.85,-460.5 79.68,-461.5 77.49,-462.42 75.27,-463.26 73.04,-464.01 70.79,-464.67 68.53,-465.24 66.26,-465.72 63.98,-466.1 61.7,-466.39 59.41,-466.59 57.12,-466.68 54.83,-466.68 52.55,-466.59 50.26,-466.39 47.98,-466.1 45.7,-465.72 43.43,-465.24 41.17,-464.67 38.92,-464.01 36.69,-463.26 34.47,-462.42 32.27,-461.5 30.1,-460.5 27.96,-459.41 25.85,-458.25 23.77,-457.02 21.74,-455.71 19.76,-454.34 17.83,-452.9 15.96,-451.41 14.16,-449.86 12.43,-448.27 10.78,-446.62 9.22,-444.94 7.76,-443.21 6.4,-441.46 5.15,-439.68 4.02,-437.87 3.01,-436.05 2.14,-434.21 1.41,-432.37 0.83,-430.52 0.4,-428.68 0.13,-426.85 0.02,-425.02 0.09,-423.22 0.32,-421.44 0.74,-419.68 1.34,-417.96 2.11,-416.27 3.07,-414.63 4.22,-413.03 5.55,-411.48 7.05,-409.99 8.74,-408.56 10.6,-407.18 12.63,-405.88 14.83,-404.64 17.18,-403.48 19.69,-402.4 22.34,-401.39 25.12,-400.47 28.02,-399.63 31.03,-398.88 34.15,-398.22 37.35,-397.65 40.64,-397.17 43.98,-396.79 47.37,-396.5 50.8,-396.31 54.25,-396.21 57.71,-396.21 61.16,-396.31"/>
<text text-anchor="start" x="26.81" y="-441.25" font-family="Times,serif" font-size="14.00">C0042610</text>
<text text-anchor="start" x="31.88" y="-427.25" font-family="Times,serif" font-size="14.00">Veterans</text>
<text text-anchor="start" x="47.03" y="-413.25" font-family="Times,serif" font-size="14.00">4:4</text>
</g>
<!-- id_27256947_DOT_12 -->
<g id="node12" class="node">
<title>id_27256947_DOT_12</title>
<polygon fill="blue" stroke="blue" points="458.59,-389.84 462.02,-390.03 465.42,-390.32 468.76,-390.7 472.04,-391.18 475.24,-391.75 478.36,-392.41 481.38,-393.16 484.28,-394 487.06,-394.92 489.71,-395.93 492.21,-397.01 494.56,-398.17 496.76,-399.41 498.79,-400.71 500.65,-402.08 502.34,-403.52 503.85,-405.01 505.18,-406.56 506.32,-408.16 507.28,-409.8 508.06,-411.49 508.65,-413.21 509.07,-414.97 509.31,-416.75 509.37,-418.55 509.27,-420.38 509,-422.21 508.57,-424.05 507.98,-425.9 507.25,-427.74 506.38,-429.58 505.38,-431.4 504.24,-433.2 503,-434.99 501.64,-436.74 500.17,-438.46 498.61,-440.15 496.97,-441.79 495.24,-443.39 493.43,-444.94 491.57,-446.43 489.64,-447.87 487.65,-449.24 485.62,-450.54 483.55,-451.78 481.44,-452.94 479.29,-454.02 477.12,-455.03 474.92,-455.95 472.71,-456.79 470.47,-457.54 468.22,-458.2 465.96,-458.77 463.69,-459.25 461.42,-459.63 459.14,-459.92 456.85,-460.11 454.56,-460.21 452.27,-460.21 449.98,-460.11 447.7,-459.92 445.41,-459.63 443.14,-459.25 440.87,-458.77 438.61,-458.2 436.36,-457.54 434.13,-456.79 431.91,-455.95 429.71,-455.03 427.54,-454.02 425.4,-452.94 423.28,-451.78 421.21,-450.54 419.18,-449.24 417.2,-447.87 415.27,-446.43 413.4,-444.94 411.6,-443.39 409.87,-441.79 408.22,-440.15 406.66,-438.46 405.2,-436.74 403.84,-434.99 402.59,-433.2 401.46,-431.4 400.45,-429.58 399.58,-427.74 398.85,-425.9 398.27,-424.05 397.84,-422.21 397.57,-420.38 397.46,-418.55 397.52,-416.75 397.76,-414.97 398.18,-413.21 398.77,-411.49 399.55,-409.8 400.51,-408.16 401.66,-406.56 402.98,-405.01 404.49,-403.52 406.18,-402.08 408.04,-400.71 410.07,-399.41 412.27,-398.17 414.62,-397.01 417.13,-395.93 419.77,-394.92 422.55,-394 425.46,-393.16 428.47,-392.41 431.59,-391.75 434.79,-391.18 438.07,-390.7 441.42,-390.32 444.81,-390.03 448.24,-389.84 451.69,-389.74 455.14,-389.74 458.59,-389.84"/>
<text text-anchor="start" x="424.25" y="-434.78" font-family="Times,serif" font-size="14.00">C0042610</text>
<text text-anchor="start" x="430.1" y="-420.78" font-family="Times,serif" font-size="14.00">veterans</text>
<text text-anchor="start" x="437.47" y="-406.78" font-family="Times,serif" font-size="14.00">44:44</text>
</g>
<!-- id_27256947_DOT_3&#45;&#45;id_27256947_DOT_12 -->
<g id="edge3" class="edge">
<title>id_27256947_DOT_3&#45;&#45;id_27256947_DOT_12</title>
<path fill="none" stroke="black" d="M111.24,-430.55C187.17,-429.31 322.94,-427.1 398.62,-425.87"/>
<text text-anchor="middle" x="228.68" y="-431.01" font-family="Times,serif" font-size="14.00">0.004225</text>
</g>
<!-- id_27256947_DOT_4 -->
<g id="node4" class="node">
<title>id_27256947_DOT_4</title>
<polygon fill="bisque" stroke="bisque" points="1615.31,-1855.29 1618.74,-1855.48 1622.13,-1855.77 1625.48,-1856.16 1628.76,-1856.63 1631.96,-1857.2 1635.08,-1857.87 1638.09,-1858.62 1641,-1859.45 1643.78,-1860.38 1646.42,-1861.38 1648.93,-1862.47 1651.28,-1863.63 1653.48,-1864.86 1655.51,-1866.17 1657.37,-1867.54 1659.06,-1868.97 1660.57,-1870.47 1661.89,-1872.01 1663.04,-1873.61 1664,-1875.26 1664.78,-1876.94 1665.37,-1878.66 1665.79,-1880.42 1666.03,-1882.2 1666.09,-1884.01 1665.99,-1885.83 1665.72,-1887.66 1665.29,-1889.51 1664.7,-1891.35 1663.97,-1893.2 1663.1,-1895.03 1662.09,-1896.85 1660.96,-1898.66 1659.71,-1900.44 1658.35,-1902.2 1656.89,-1903.92 1655.33,-1905.6 1653.68,-1907.25 1651.96,-1908.85 1650.15,-1910.39 1648.29,-1911.89 1646.36,-1913.32 1644.37,-1914.69 1642.34,-1916 1640.27,-1917.23 1638.16,-1918.39 1636.01,-1919.48 1633.84,-1920.48 1631.64,-1921.41 1629.43,-1922.24 1627.19,-1922.99 1624.94,-1923.66 1622.68,-1924.23 1620.41,-1924.7 1618.14,-1925.09 1615.85,-1925.38 1613.57,-1925.57 1611.28,-1925.67 1608.99,-1925.67 1606.7,-1925.57 1604.42,-1925.38 1602.13,-1925.09 1599.86,-1924.7 1597.59,-1924.23 1595.33,-1923.66 1593.08,-1922.99 1590.84,-1922.24 1588.63,-1921.41 1586.43,-1920.48 1584.26,-1919.48 1582.12,-1918.39 1580,-1917.23 1577.93,-1916 1575.9,-1914.69 1573.92,-1913.32 1571.99,-1911.89 1570.12,-1910.39 1568.31,-1908.85 1566.59,-1907.25 1564.94,-1905.6 1563.38,-1903.92 1561.92,-1902.2 1560.56,-1900.44 1559.31,-1898.66 1558.18,-1896.85 1557.17,-1895.03 1556.3,-1893.2 1555.57,-1891.35 1554.99,-1889.51 1554.56,-1887.66 1554.28,-1885.83 1554.18,-1884.01 1554.24,-1882.2 1554.48,-1880.42 1554.9,-1878.66 1555.49,-1876.94 1556.27,-1875.26 1557.23,-1873.61 1558.38,-1872.01 1559.7,-1870.47 1561.21,-1868.97 1562.9,-1867.54 1564.76,-1866.17 1566.79,-1864.86 1568.99,-1863.63 1571.34,-1862.47 1573.85,-1861.38 1576.49,-1860.38 1579.27,-1859.45 1582.18,-1858.62 1585.19,-1857.87 1588.31,-1857.2 1591.51,-1856.63 1594.79,-1856.16 1598.14,-1855.77 1601.53,-1855.48 1604.96,-1855.29 1608.41,-1855.19 1611.86,-1855.19 1615.31,-1855.29"/>
<text text-anchor="start" x="1580.97" y="-1900.23" font-family="Times,serif" font-size="14.00">C0043210</text>
<text text-anchor="start" x="1589.53" y="-1886.23" font-family="Times,serif" font-size="14.00">women</text>
<text text-anchor="start" x="1594.19" y="-1872.23" font-family="Times,serif" font-size="14.00">16:16</text>
</g>
<!-- id_27256947_DOT_7 -->
<g id="node7" class="node">
<title>id_27256947_DOT_7</title>
<polygon fill="brown" stroke="brown" points="1882.12,-2145.97 1886.02,-2146.16 1889.88,-2146.45 1893.68,-2146.83 1897.41,-2147.31 1901.06,-2147.88 1904.6,-2148.54 1908.03,-2149.29 1911.33,-2150.13 1914.5,-2151.05 1917.51,-2152.06 1920.36,-2153.14 1923.03,-2154.3 1925.53,-2155.54 1927.84,-2156.84 1929.96,-2158.21 1931.88,-2159.65 1933.6,-2161.14 1935.11,-2162.69 1936.41,-2164.29 1937.5,-2165.93 1938.39,-2167.62 1939.06,-2169.34 1939.54,-2171.09 1939.81,-2172.88 1939.88,-2174.68 1939.76,-2176.5 1939.45,-2178.34 1938.96,-2180.18 1938.3,-2182.03 1937.47,-2183.87 1936.48,-2185.71 1935.33,-2187.53 1934.05,-2189.33 1932.63,-2191.12 1931.08,-2192.87 1929.41,-2194.59 1927.64,-2196.28 1925.77,-2197.92 1923.8,-2199.52 1921.75,-2201.07 1919.62,-2202.56 1917.43,-2204 1915.17,-2205.37 1912.86,-2206.67 1910.5,-2207.91 1908.1,-2209.07 1905.66,-2210.15 1903.19,-2211.16 1900.69,-2212.08 1898.17,-2212.92 1895.63,-2213.67 1893.07,-2214.33 1890.5,-2214.9 1887.92,-2215.38 1885.33,-2215.76 1882.73,-2216.05 1880.13,-2216.24 1877.53,-2216.34 1874.93,-2216.34 1872.32,-2216.24 1869.72,-2216.05 1867.12,-2215.76 1864.53,-2215.38 1861.95,-2214.9 1859.38,-2214.33 1856.82,-2213.67 1854.28,-2212.92 1851.76,-2212.08 1849.26,-2211.16 1846.79,-2210.15 1844.35,-2209.07 1841.95,-2207.91 1839.59,-2206.67 1837.28,-2205.37 1835.03,-2204 1832.83,-2202.56 1830.7,-2201.07 1828.65,-2199.52 1826.69,-2197.92 1824.81,-2196.28 1823.04,-2194.59 1821.38,-2192.87 1819.83,-2191.12 1818.41,-2189.33 1817.12,-2187.53 1815.98,-2185.71 1814.99,-2183.87 1814.16,-2182.03 1813.49,-2180.18 1813,-2178.34 1812.7,-2176.5 1812.57,-2174.68 1812.65,-2172.88 1812.92,-2171.09 1813.39,-2169.34 1814.07,-2167.62 1814.95,-2165.93 1816.05,-2164.29 1817.35,-2162.69 1818.86,-2161.14 1820.57,-2159.65 1822.49,-2158.21 1824.61,-2156.84 1826.92,-2155.54 1829.42,-2154.3 1832.1,-2153.14 1834.95,-2152.06 1837.96,-2151.05 1841.12,-2150.13 1844.42,-2149.29 1847.85,-2148.54 1851.4,-2147.88 1855.04,-2147.31 1858.77,-2146.83 1862.58,-2146.45 1866.44,-2146.16 1870.34,-2145.97 1874.26,-2145.87 1878.19,-2145.87 1882.12,-2145.97"/>
<text text-anchor="start" x="1847.06" y="-2190.91" font-family="Times,serif" font-size="14.00">C0001732</text>
<text text-anchor="start" x="1842.01" y="-2176.91" font-family="Times,serif" font-size="14.00">Afghanistan</text>
<text text-anchor="start" x="1860.28" y="-2162.91" font-family="Times,serif" font-size="14.00">24:24</text>
</g>
<!-- id_27256947_DOT_4&#45;&#45;id_27256947_DOT_7 -->
<g id="edge12" class="edge">
<title>id_27256947_DOT_4&#45;&#45;id_27256947_DOT_7</title>
<path fill="none" stroke="black" stroke-dasharray="1,5" d="M1636.62,-1919.36C1686.57,-1973.93 1794.36,-2091.68 1846.62,-2148.77"/>
<text text-anchor="middle" x="1715.37" y="-2036.86" font-family="Times,serif" font-size="14.00">0.894944</text>
</g>
<!-- id_27256947_DOT_4&#45;&#45;id_27256947_DOT_11 -->
<g id="edge4" class="edge">
<title>id_27256947_DOT_4&#45;&#45;id_27256947_DOT_11</title>
<path fill="none" stroke="black" d="M1584.57,-1858.01C1539.24,-1800.51 1445.41,-1681.51 1401.33,-1625.6"/>
<text text-anchor="middle" x="1466.7" y="-1744.6" font-family="Times,serif" font-size="14.00">0.000366</text>
</g>
<!-- id_27256947_DOT_5 -->
<g id="node5" class="node">
<title>id_27256947_DOT_5</title>
<polygon fill="blue" stroke="blue" points="537.26,-0.23 540.69,-0.42 544.09,-0.71 547.43,-1.09 550.71,-1.57 553.91,-2.14 557.03,-2.8 560.05,-3.55 562.95,-4.39 565.73,-5.31 568.38,-6.32 570.88,-7.4 573.23,-8.57 575.43,-9.8 577.46,-11.1 579.32,-12.48 581.01,-13.91 582.52,-15.4 583.85,-16.95 584.99,-18.55 585.95,-20.19 586.73,-21.88 587.33,-23.6 587.74,-25.36 587.98,-27.14 588.04,-28.94 587.94,-30.77 587.67,-32.6 587.24,-34.44 586.65,-36.29 585.92,-38.13 585.05,-39.97 584.05,-41.79 582.92,-43.6 581.67,-45.38 580.31,-47.13 578.84,-48.86 577.28,-50.54 575.64,-52.19 573.91,-53.78 572.11,-55.33 570.24,-56.82 568.31,-58.26 566.32,-59.63 564.29,-60.94 562.22,-62.17 560.11,-63.33 557.96,-64.42 555.79,-65.42 553.59,-66.34 551.38,-67.18 549.14,-67.93 546.89,-68.59 544.63,-69.16 542.37,-69.64 540.09,-70.02 537.81,-70.31 535.52,-70.51 533.23,-70.6 530.94,-70.6 528.65,-70.51 526.37,-70.31 524.08,-70.02 521.81,-69.64 519.54,-69.16 517.28,-68.59 515.03,-67.93 512.8,-67.18 510.58,-66.34 508.38,-65.42 506.21,-64.42 504.07,-63.33 501.96,-62.17 499.88,-60.94 497.85,-59.63 495.87,-58.26 493.94,-56.82 492.07,-55.33 490.27,-53.78 488.54,-52.19 486.89,-50.54 485.33,-48.86 483.87,-47.13 482.51,-45.38 481.26,-43.6 480.13,-41.79 479.12,-39.97 478.25,-38.13 477.52,-36.29 476.94,-34.44 476.51,-32.6 476.24,-30.77 476.13,-28.94 476.19,-27.14 476.43,-25.36 476.85,-23.6 477.44,-21.88 478.22,-20.19 479.18,-18.55 480.33,-16.95 481.65,-15.4 483.16,-13.91 484.85,-12.48 486.71,-11.1 488.74,-9.8 490.94,-8.57 493.29,-7.4 495.8,-6.32 498.44,-5.31 501.22,-4.39 504.13,-3.55 507.14,-2.8 510.26,-2.14 513.46,-1.57 516.74,-1.09 520.09,-0.71 523.48,-0.42 526.91,-0.23 530.36,-0.13 533.81,-0.13 537.26,-0.23"/>
<text text-anchor="start" x="502.92" y="-45.17" font-family="Times,serif" font-size="14.00">C0042610</text>
<text text-anchor="start" x="508.77" y="-31.17" font-family="Times,serif" font-size="14.00">veterans</text>
<text text-anchor="start" x="516.14" y="-17.17" font-family="Times,serif" font-size="14.00">17:17</text>
</g>
<!-- id_27256947_DOT_5&#45;&#45;id_27256947_DOT_12 -->
<g id="edge5" class="edge">
<title>id_27256947_DOT_5&#45;&#45;id_27256947_DOT_12</title>
<path fill="none" stroke="black" d="M525.04,-70.29C510.12,-144.16 475.51,-315.54 460.54,-389.72"/>
<text text-anchor="middle" x="466.54" y="-232.8" font-family="Times,serif" font-size="14.00">0.001294</text>
</g>
<!-- id_27256947_DOT_6 -->
<g id="node6" class="node">
<title>id_27256947_DOT_6</title>
<polygon fill="blueviolet" stroke="blueviolet" points="1632.71,-2985.15 1636.14,-2985.34 1639.53,-2985.63 1642.87,-2986.01 1646.15,-2986.49 1649.36,-2987.06 1652.48,-2987.72 1655.49,-2988.47 1658.39,-2989.31 1661.17,-2990.23 1663.82,-2991.24 1666.32,-2992.32 1668.68,-2993.48 1670.88,-2994.72 1672.91,-2996.02 1674.77,-2997.39 1676.45,-2998.83 1677.96,-3000.32 1679.29,-3001.87 1680.44,-3003.47 1681.4,-3005.11 1682.17,-3006.8 1682.77,-3008.52 1683.19,-3010.27 1683.42,-3012.06 1683.49,-3013.86 1683.38,-3015.68 1683.11,-3017.52 1682.68,-3019.36 1682.1,-3021.21 1681.37,-3023.05 1680.49,-3024.89 1679.49,-3026.71 1678.36,-3028.51 1677.11,-3030.3 1675.75,-3032.05 1674.29,-3033.77 1672.73,-3035.46 1671.08,-3037.1 1669.35,-3038.7 1667.55,-3040.25 1665.68,-3041.74 1663.75,-3043.18 1661.77,-3044.55 1659.74,-3045.85 1657.66,-3047.09 1655.55,-3048.25 1653.41,-3049.33 1651.24,-3050.34 1649.04,-3051.26 1646.82,-3052.1 1644.59,-3052.85 1642.34,-3053.51 1640.08,-3054.08 1637.81,-3054.56 1635.53,-3054.94 1633.25,-3055.23 1630.96,-3055.42 1628.68,-3055.52 1626.39,-3055.52 1624.1,-3055.42 1621.81,-3055.23 1619.53,-3054.94 1617.25,-3054.56 1614.98,-3054.08 1612.72,-3053.51 1610.47,-3052.85 1608.24,-3052.1 1606.02,-3051.26 1603.83,-3050.34 1601.66,-3049.33 1599.51,-3048.25 1597.4,-3047.09 1595.33,-3045.85 1593.29,-3044.55 1591.31,-3043.18 1589.38,-3041.74 1587.51,-3040.25 1585.71,-3038.7 1583.98,-3037.1 1582.33,-3035.46 1580.78,-3033.77 1579.31,-3032.05 1577.95,-3030.3 1576.7,-3028.51 1575.57,-3026.71 1574.57,-3024.89 1573.7,-3023.05 1572.97,-3021.21 1572.38,-3019.36 1571.95,-3017.52 1571.68,-3015.68 1571.57,-3013.86 1571.64,-3012.06 1571.88,-3010.27 1572.29,-3008.52 1572.89,-3006.8 1573.67,-3005.11 1574.63,-3003.47 1575.77,-3001.87 1577.1,-3000.32 1578.61,-2998.83 1580.29,-2997.39 1582.16,-2996.02 1584.19,-2994.72 1586.38,-2993.48 1588.74,-2992.32 1591.24,-2991.24 1593.89,-2990.23 1596.67,-2989.31 1599.57,-2988.47 1602.59,-2987.72 1605.7,-2987.06 1608.91,-2986.49 1612.19,-2986.01 1615.53,-2985.63 1618.92,-2985.34 1622.35,-2985.15 1625.8,-2985.05 1629.26,-2985.05 1632.71,-2985.15"/>
<text text-anchor="start" x="1598.36" y="-3030.09" font-family="Times,serif" font-size="14.00">C0022066</text>
<text text-anchor="start" x="1616.26" y="-3016.09" font-family="Times,serif" font-size="14.00">Iraq</text>
<text text-anchor="start" x="1611.59" y="-3002.09" font-family="Times,serif" font-size="14.00">22:22</text>
</g>
<!-- id_27256947_DOT_16 -->
<g id="node16" class="node">
<title>id_27256947_DOT_16</title>
<polygon fill="darkgoldenrod" stroke="darkgoldenrod" points="1925,-2695.18 1931.36,-2695.37 1937.66,-2695.66 1943.86,-2696.05 1949.95,-2696.52 1955.9,-2697.1 1961.69,-2697.76 1967.28,-2698.51 1972.67,-2699.34 1977.83,-2700.27 1982.74,-2701.27 1987.39,-2702.36 1991.76,-2703.52 1995.84,-2704.75 1999.61,-2706.06 2003.06,-2707.43 2006.2,-2708.86 2008.99,-2710.36 2011.46,-2711.9 2013.58,-2713.5 2015.37,-2715.15 2016.81,-2716.83 2017.92,-2718.56 2018.69,-2720.31 2019.13,-2722.09 2019.25,-2723.9 2019.05,-2725.72 2018.55,-2727.56 2017.75,-2729.4 2016.67,-2731.24 2015.31,-2733.09 2013.69,-2734.92 2011.83,-2736.74 2009.73,-2738.55 2007.41,-2740.33 2004.89,-2742.09 2002.17,-2743.81 1999.28,-2745.5 1996.22,-2747.14 1993.01,-2748.74 1989.67,-2750.29 1986.2,-2751.78 1982.62,-2753.21 1978.93,-2754.58 1975.16,-2755.89 1971.31,-2757.12 1967.4,-2758.28 1963.42,-2759.37 1959.38,-2760.37 1955.31,-2761.3 1951.19,-2762.13 1947.05,-2762.89 1942.87,-2763.55 1938.68,-2764.12 1934.47,-2764.59 1930.24,-2764.98 1926,-2765.27 1921.76,-2765.46 1917.51,-2765.56 1913.26,-2765.56 1909.01,-2765.46 1904.77,-2765.27 1900.53,-2764.98 1896.31,-2764.59 1892.09,-2764.12 1887.9,-2763.55 1883.73,-2762.89 1879.58,-2762.13 1875.47,-2761.3 1871.39,-2760.37 1867.36,-2759.37 1863.38,-2758.28 1859.46,-2757.12 1855.61,-2755.89 1851.84,-2754.58 1848.16,-2753.21 1844.58,-2751.78 1841.11,-2750.29 1837.76,-2748.74 1834.55,-2747.14 1831.49,-2745.5 1828.6,-2743.81 1825.88,-2742.09 1823.36,-2740.33 1821.04,-2738.55 1818.94,-2736.74 1817.08,-2734.92 1815.46,-2733.09 1814.1,-2731.24 1813.02,-2729.4 1812.22,-2727.56 1811.72,-2725.72 1811.52,-2723.9 1811.64,-2722.09 1812.08,-2720.31 1812.86,-2718.56 1813.96,-2716.83 1815.41,-2715.15 1817.19,-2713.5 1819.31,-2711.9 1821.78,-2710.36 1824.58,-2708.86 1827.71,-2707.43 1831.16,-2706.06 1834.93,-2704.75 1839.01,-2703.52 1843.38,-2702.36 1848.03,-2701.27 1852.94,-2700.27 1858.1,-2699.34 1863.49,-2698.51 1869.09,-2697.76 1874.87,-2697.1 1880.82,-2696.52 1886.91,-2696.05 1893.11,-2695.66 1899.41,-2695.37 1905.78,-2695.18 1912.18,-2695.09 1918.59,-2695.09 1925,-2695.18"/>
<text text-anchor="start" x="1886.22" y="-2740.12" font-family="Times,serif" font-size="14.00">C2321230</text>
<text text-anchor="start" x="1854.54" y="-2726.12" font-family="Times,serif" font-size="14.00">frequent deployments</text>
<text text-anchor="start" x="1899.44" y="-2712.12" font-family="Times,serif" font-size="14.00">78:79</text>
</g>
<!-- id_27256947_DOT_6&#45;&#45;id_27256947_DOT_16 -->
<g id="edge13" class="edge">
<title>id_27256947_DOT_6&#45;&#45;id_27256947_DOT_16</title>
<path fill="none" stroke="black" stroke-dasharray="1,5" d="M1658.34,-2989.25C1713.16,-2934.03 1827.14,-2819.21 1883.05,-2762.9"/>
<text text-anchor="middle" x="1744.44" y="-2878.88" font-family="Times,serif" font-size="14.00">0.882448</text>
</g>
<!-- id_27256947_DOT_15 -->
<g id="node15" class="node">
<title>id_27256947_DOT_15</title>
<polygon fill="crimson" stroke="crimson" points="2236.82,-2393.04 2243.67,-2393.24 2250.44,-2393.53 2257.12,-2393.91 2263.67,-2394.39 2270.07,-2394.96 2276.29,-2395.62 2282.31,-2396.37 2288.11,-2397.21 2293.66,-2398.13 2298.94,-2399.14 2303.94,-2400.22 2308.64,-2401.38 2313.03,-2402.62 2317.09,-2403.92 2320.8,-2405.29 2324.17,-2406.73 2327.18,-2408.22 2329.83,-2409.77 2332.12,-2411.37 2334.04,-2413.01 2335.59,-2414.7 2336.78,-2416.42 2337.61,-2418.17 2338.09,-2419.96 2338.21,-2421.76 2338,-2423.58 2337.46,-2425.42 2336.6,-2427.26 2335.44,-2429.11 2333.98,-2430.95 2332.24,-2432.78 2330.23,-2434.61 2327.97,-2436.41 2325.48,-2438.19 2322.76,-2439.95 2319.84,-2441.67 2316.73,-2443.36 2313.44,-2445 2309.99,-2446.6 2306.39,-2448.15 2302.66,-2449.64 2298.81,-2451.08 2294.84,-2452.45 2290.79,-2453.75 2286.65,-2454.99 2282.43,-2456.15 2278.15,-2457.23 2273.81,-2458.24 2269.43,-2459.16 2265,-2460 2260.54,-2460.75 2256.05,-2461.41 2251.54,-2461.98 2247.01,-2462.46 2242.46,-2462.84 2237.9,-2463.13 2233.34,-2463.32 2228.77,-2463.42 2224.2,-2463.42 2219.63,-2463.32 2215.06,-2463.13 2210.5,-2462.84 2205.96,-2462.46 2201.43,-2461.98 2196.91,-2461.41 2192.42,-2460.75 2187.96,-2460 2183.54,-2459.16 2179.15,-2458.24 2174.81,-2457.23 2170.53,-2456.15 2166.32,-2454.99 2162.18,-2453.75 2158.12,-2452.45 2154.16,-2451.08 2150.31,-2449.64 2146.57,-2448.15 2142.97,-2446.6 2139.52,-2445 2136.23,-2443.36 2133.12,-2441.67 2130.2,-2439.95 2127.48,-2438.19 2124.99,-2436.41 2122.73,-2434.61 2120.73,-2432.78 2118.99,-2430.95 2117.53,-2429.11 2116.36,-2427.26 2115.5,-2425.42 2114.96,-2423.58 2114.75,-2421.76 2114.88,-2419.96 2115.35,-2418.17 2116.18,-2416.42 2117.37,-2414.7 2118.93,-2413.01 2120.84,-2411.37 2123.13,-2409.77 2125.78,-2408.22 2128.79,-2406.73 2132.16,-2405.29 2135.88,-2403.92 2139.93,-2402.62 2144.32,-2401.38 2149.02,-2400.22 2154.02,-2399.14 2159.31,-2398.13 2164.86,-2397.21 2170.65,-2396.37 2176.67,-2395.62 2182.9,-2394.96 2189.3,-2394.39 2195.85,-2393.91 2202.52,-2393.53 2209.3,-2393.24 2216.14,-2393.04 2223.03,-2392.95 2229.93,-2392.95 2236.82,-2393.04"/>
<text text-anchor="start" x="2197.31" y="-2437.98" font-family="Times,serif" font-size="14.00">C0243095</text>
<text text-anchor="start" x="2160.2" y="-2423.98" font-family="Times,serif" font-size="14.00">permeating aggravation</text>
<text text-anchor="start" x="2210.54" y="-2409.98" font-family="Times,serif" font-size="14.00">71:72</text>
</g>
<!-- id_27256947_DOT_7&#45;&#45;id_27256947_DOT_15 -->
<g id="edge14" class="edge">
<title>id_27256947_DOT_7&#45;&#45;id_27256947_DOT_15</title>
<path fill="none" stroke="black" stroke-dasharray="1,5" d="M1912.72,-2206.85C1976.67,-2251.96 2108.9,-2345.24 2179.56,-2395.08"/>
<text text-anchor="middle" x="2019.89" y="-2303.76" font-family="Times,serif" font-size="14.00">0.704661</text>
</g>
<!-- id_27256947_DOT_8 -->
<g id="node8" class="node">
<title>id_27256947_DOT_8</title>
<polygon fill="cadetblue" stroke="cadetblue" points="2516.47,-2091.63 2519.89,-2091.82 2523.29,-2092.11 2526.63,-2092.5 2529.91,-2092.97 2533.12,-2093.54 2536.23,-2094.21 2539.25,-2094.96 2542.15,-2095.79 2544.93,-2096.72 2547.58,-2097.72 2550.08,-2098.81 2552.44,-2099.97 2554.63,-2101.2 2556.66,-2102.51 2558.52,-2103.88 2560.21,-2105.31 2561.72,-2106.81 2563.05,-2108.35 2564.19,-2109.95 2565.15,-2111.6 2565.93,-2113.28 2566.53,-2115 2566.94,-2116.76 2567.18,-2118.54 2567.24,-2120.35 2567.14,-2122.17 2566.87,-2124 2566.44,-2125.85 2565.85,-2127.69 2565.12,-2129.54 2564.25,-2131.37 2563.25,-2133.19 2562.12,-2135 2560.87,-2136.78 2559.51,-2138.54 2558.04,-2140.26 2556.48,-2141.94 2554.84,-2143.59 2553.11,-2145.19 2551.31,-2146.73 2549.44,-2148.23 2547.51,-2149.66 2545.52,-2151.03 2543.49,-2152.34 2541.42,-2153.57 2539.31,-2154.73 2537.16,-2155.82 2534.99,-2156.82 2532.79,-2157.75 2530.58,-2158.58 2528.34,-2159.33 2526.1,-2160 2523.84,-2160.57 2521.57,-2161.04 2519.29,-2161.43 2517.01,-2161.72 2514.72,-2161.91 2512.43,-2162.01 2510.14,-2162.01 2507.85,-2161.91 2505.57,-2161.72 2503.29,-2161.43 2501.01,-2161.04 2498.74,-2160.57 2496.48,-2160 2494.23,-2159.33 2492,-2158.58 2489.78,-2157.75 2487.58,-2156.82 2485.41,-2155.82 2483.27,-2154.73 2481.16,-2153.57 2479.08,-2152.34 2477.05,-2151.03 2475.07,-2149.66 2473.14,-2148.23 2471.27,-2146.73 2469.47,-2145.19 2467.74,-2143.59 2466.09,-2141.94 2464.53,-2140.26 2463.07,-2138.54 2461.71,-2136.78 2460.46,-2135 2459.33,-2133.19 2458.32,-2131.37 2457.45,-2129.54 2456.72,-2127.69 2456.14,-2125.85 2455.71,-2124 2455.44,-2122.17 2455.33,-2120.35 2455.39,-2118.54 2455.63,-2116.76 2456.05,-2115 2456.64,-2113.28 2457.42,-2111.6 2458.38,-2109.95 2459.53,-2108.35 2460.86,-2106.81 2462.36,-2105.31 2464.05,-2103.88 2465.91,-2102.51 2467.94,-2101.2 2470.14,-2099.97 2472.49,-2098.81 2475,-2097.72 2477.65,-2096.72 2480.43,-2095.79 2483.33,-2094.96 2486.34,-2094.21 2489.46,-2093.54 2492.66,-2092.97 2495.94,-2092.5 2499.29,-2092.11 2502.68,-2091.82 2506.11,-2091.63 2509.56,-2091.53 2513.02,-2091.53 2516.47,-2091.63"/>
<text text-anchor="start" x="2482.12" y="-2136.57" font-family="Times,serif" font-size="14.00">C2603343</text>
<text text-anchor="start" x="2496.12" y="-2122.57" font-family="Times,serif" font-size="14.00">study</text>
<text text-anchor="start" x="2495.34" y="-2108.57" font-family="Times,serif" font-size="14.00">32:32</text>
</g>
<!-- id_27256947_DOT_8&#45;&#45;id_27256947_DOT_15 -->
<g id="edge15" class="edge">
<title>id_27256947_DOT_8&#45;&#45;id_27256947_DOT_15</title>
<path fill="none" stroke="black" stroke-dasharray="1,5" d="M2484.24,-2155.4C2431.61,-2211.09 2315.66,-2333.8 2258.97,-2393.8"/>
<text text-anchor="middle" x="2345.35" y="-2277.4" font-family="Times,serif" font-size="14.00">0.929790</text>
</g>
<!-- id_27256947_DOT_9 -->
<g id="node9" class="node">
<title>id_27256947_DOT_9</title>
<polygon fill="chartreuse" stroke="chartreuse" points="2285.41,-2024.2 2288.84,-2024.39 2292.23,-2024.68 2295.58,-2025.07 2298.86,-2025.54 2302.06,-2026.11 2305.18,-2026.78 2308.19,-2027.53 2311.1,-2028.36 2313.88,-2029.29 2316.52,-2030.29 2319.03,-2031.38 2321.38,-2032.54 2323.58,-2033.77 2325.61,-2035.08 2327.47,-2036.45 2329.16,-2037.88 2330.67,-2039.38 2331.99,-2040.92 2333.14,-2042.52 2334.1,-2044.17 2334.88,-2045.85 2335.47,-2047.57 2335.89,-2049.33 2336.13,-2051.11 2336.19,-2052.92 2336.09,-2054.74 2335.81,-2056.57 2335.38,-2058.42 2334.8,-2060.26 2334.07,-2062.11 2333.2,-2063.94 2332.19,-2065.76 2331.06,-2067.57 2329.81,-2069.35 2328.45,-2071.11 2326.99,-2072.83 2325.43,-2074.51 2323.78,-2076.16 2322.06,-2077.76 2320.25,-2079.3 2318.38,-2080.8 2316.46,-2082.23 2314.47,-2083.6 2312.44,-2084.91 2310.37,-2086.14 2308.25,-2087.3 2306.11,-2088.39 2303.94,-2089.39 2301.74,-2090.32 2299.53,-2091.15 2297.29,-2091.9 2295.04,-2092.57 2292.78,-2093.14 2290.51,-2093.61 2288.24,-2094 2285.95,-2094.29 2283.67,-2094.48 2281.38,-2094.58 2279.09,-2094.58 2276.8,-2094.48 2274.52,-2094.29 2272.23,-2094 2269.96,-2093.61 2267.69,-2093.14 2265.43,-2092.57 2263.18,-2091.9 2260.94,-2091.15 2258.73,-2090.32 2256.53,-2089.39 2254.36,-2088.39 2252.21,-2087.3 2250.1,-2086.14 2248.03,-2084.91 2246,-2083.6 2244.01,-2082.23 2242.09,-2080.8 2240.22,-2079.3 2238.41,-2077.76 2236.69,-2076.16 2235.04,-2074.51 2233.48,-2072.83 2232.02,-2071.11 2230.66,-2069.35 2229.41,-2067.57 2228.28,-2065.76 2227.27,-2063.94 2226.4,-2062.11 2225.67,-2060.26 2225.09,-2058.42 2224.65,-2056.57 2224.38,-2054.74 2224.28,-2052.92 2224.34,-2051.11 2224.58,-2049.33 2225,-2047.57 2225.59,-2045.85 2226.37,-2044.17 2227.33,-2042.52 2228.48,-2040.92 2229.8,-2039.38 2231.31,-2037.88 2233,-2036.45 2234.86,-2035.08 2236.89,-2033.77 2239.09,-2032.54 2241.44,-2031.38 2243.95,-2030.29 2246.59,-2029.29 2249.37,-2028.36 2252.28,-2027.53 2255.29,-2026.78 2258.41,-2026.11 2261.61,-2025.54 2264.89,-2025.07 2268.24,-2024.68 2271.63,-2024.39 2275.06,-2024.2 2278.51,-2024.11 2281.96,-2024.11 2285.41,-2024.2"/>
<text text-anchor="start" x="2251.07" y="-2069.14" font-family="Times,serif" font-size="14.00">C1301746</text>
<text text-anchor="start" x="2252.63" y="-2055.14" font-family="Times,serif" font-size="14.00">document</text>
<text text-anchor="start" x="2264.29" y="-2041.14" font-family="Times,serif" font-size="14.00">35:35</text>
</g>
<!-- id_27256947_DOT_9&#45;&#45;id_27256947_DOT_15 -->
<g id="edge16" class="edge">
<title>id_27256947_DOT_9&#45;&#45;id_27256947_DOT_15</title>
<path fill="none" stroke="black" stroke-dasharray="1,5" d="M2275.13,-2094.37C2264.88,-2164.68 2241.92,-2322.28 2231.63,-2392.85"/>
<text text-anchor="middle" x="2227.13" y="-2246.41" font-family="Times,serif" font-size="14.00">0.522529</text>
</g>
<!-- id_27256947_DOT_10 -->
<g id="node10" class="node">
<title>id_27256947_DOT_10</title>
<polygon fill="coral" stroke="coral" points="3818.01,-4066.91 3821.44,-4067.1 3824.84,-4067.39 3828.18,-4067.77 3831.46,-4068.25 3834.66,-4068.82 3837.78,-4069.48 3840.8,-4070.23 3843.7,-4071.07 3846.48,-4071.99 3849.13,-4073 3851.63,-4074.08 3853.98,-4075.25 3856.18,-4076.48 3858.21,-4077.78 3860.07,-4079.16 3861.76,-4080.59 3863.27,-4082.08 3864.6,-4083.63 3865.74,-4085.23 3866.7,-4086.87 3867.48,-4088.56 3868.08,-4090.28 3868.49,-4092.04 3868.73,-4093.82 3868.79,-4095.62 3868.69,-4097.45 3868.42,-4099.28 3867.99,-4101.12 3867.4,-4102.97 3866.67,-4104.81 3865.8,-4106.65 3864.8,-4108.47 3863.67,-4110.28 3862.42,-4112.06 3861.06,-4113.81 3859.59,-4115.54 3858.03,-4117.22 3856.39,-4118.87 3854.66,-4120.46 3852.86,-4122.01 3850.99,-4123.5 3849.06,-4124.94 3847.07,-4126.31 3845.04,-4127.62 3842.97,-4128.85 3840.86,-4130.01 3838.71,-4131.1 3836.54,-4132.1 3834.34,-4133.02 3832.13,-4133.86 3829.89,-4134.61 3827.65,-4135.27 3825.39,-4135.84 3823.12,-4136.32 3820.84,-4136.7 3818.56,-4136.99 3816.27,-4137.19 3813.98,-4137.28 3811.69,-4137.28 3809.4,-4137.19 3807.12,-4136.99 3804.83,-4136.7 3802.56,-4136.32 3800.29,-4135.84 3798.03,-4135.27 3795.78,-4134.61 3793.55,-4133.86 3791.33,-4133.02 3789.13,-4132.1 3786.96,-4131.1 3784.82,-4130.01 3782.71,-4128.85 3780.63,-4127.62 3778.6,-4126.31 3776.62,-4124.94 3774.69,-4123.5 3772.82,-4122.01 3771.02,-4120.46 3769.29,-4118.87 3767.64,-4117.22 3766.08,-4115.54 3764.62,-4113.81 3763.26,-4112.06 3762.01,-4110.28 3760.88,-4108.47 3759.87,-4106.65 3759,-4104.81 3758.27,-4102.97 3757.69,-4101.12 3757.26,-4099.28 3756.99,-4097.45 3756.88,-4095.62 3756.94,-4093.82 3757.18,-4092.04 3757.6,-4090.28 3758.19,-4088.56 3758.97,-4086.87 3759.93,-4085.23 3761.08,-4083.63 3762.4,-4082.08 3763.91,-4080.59 3765.6,-4079.16 3767.46,-4077.78 3769.49,-4076.48 3771.69,-4075.25 3774.04,-4074.08 3776.55,-4073 3779.19,-4071.99 3781.97,-4071.07 3784.88,-4070.23 3787.89,-4069.48 3791.01,-4068.82 3794.21,-4068.25 3797.49,-4067.77 3800.84,-4067.39 3804.23,-4067.1 3807.66,-4066.91 3811.11,-4066.81 3814.57,-4066.81 3818.01,-4066.91"/>
<text text-anchor="start" x="3783.67" y="-4111.85" font-family="Times,serif" font-size="14.00">C0282574</text>
<text text-anchor="start" x="3794.56" y="-4097.85" font-family="Times,serif" font-size="14.00">stories</text>
<text text-anchor="start" x="3796.89" y="-4083.85" font-family="Times,serif" font-size="14.00">39:39</text>
</g>
<!-- id_27256947_DOT_13 -->
<g id="node13" class="node">
<title>id_27256947_DOT_13</title>
<polygon fill="coral" stroke="coral" points="3518.07,-3857.55 3521.5,-3857.74 3524.89,-3858.03 3528.23,-3858.41 3531.51,-3858.89 3534.72,-3859.46 3537.83,-3860.12 3540.85,-3860.87 3543.75,-3861.71 3546.53,-3862.63 3549.18,-3863.64 3551.68,-3864.72 3554.04,-3865.88 3556.23,-3867.12 3558.26,-3868.42 3560.13,-3869.8 3561.81,-3871.23 3563.32,-3872.72 3564.65,-3874.27 3565.79,-3875.87 3566.75,-3877.51 3567.53,-3879.2 3568.13,-3880.92 3568.54,-3882.68 3568.78,-3884.46 3568.85,-3886.26 3568.74,-3888.09 3568.47,-3889.92 3568.04,-3891.76 3567.46,-3893.61 3566.72,-3895.45 3565.85,-3897.29 3564.85,-3899.11 3563.72,-3900.91 3562.47,-3902.7 3561.11,-3904.45 3559.65,-3906.18 3558.09,-3907.86 3556.44,-3909.51 3554.71,-3911.1 3552.91,-3912.65 3551.04,-3914.14 3549.11,-3915.58 3547.13,-3916.95 3545.09,-3918.25 3543.02,-3919.49 3540.91,-3920.65 3538.77,-3921.73 3536.59,-3922.74 3534.4,-3923.66 3532.18,-3924.5 3529.95,-3925.25 3527.7,-3925.91 3525.44,-3926.48 3523.17,-3926.96 3520.89,-3927.34 3518.61,-3927.63 3516.32,-3927.83 3514.03,-3927.92 3511.74,-3927.92 3509.46,-3927.83 3507.17,-3927.63 3504.89,-3927.34 3502.61,-3926.96 3500.34,-3926.48 3498.08,-3925.91 3495.83,-3925.25 3493.6,-3924.5 3491.38,-3923.66 3489.19,-3922.74 3487.01,-3921.73 3484.87,-3920.65 3482.76,-3919.49 3480.68,-3918.25 3478.65,-3916.95 3476.67,-3915.58 3474.74,-3914.14 3472.87,-3912.65 3471.07,-3911.1 3469.34,-3909.51 3467.69,-3907.86 3466.13,-3906.18 3464.67,-3904.45 3463.31,-3902.7 3462.06,-3900.91 3460.93,-3899.11 3459.93,-3897.29 3459.05,-3895.45 3458.32,-3893.61 3457.74,-3891.76 3457.31,-3889.92 3457.04,-3888.09 3456.93,-3886.26 3457,-3884.46 3457.23,-3882.68 3457.65,-3880.92 3458.25,-3879.2 3459.02,-3877.51 3459.99,-3875.87 3461.13,-3874.27 3462.46,-3872.72 3463.97,-3871.23 3465.65,-3869.8 3467.51,-3868.42 3469.55,-3867.12 3471.74,-3865.88 3474.1,-3864.72 3476.6,-3863.64 3479.25,-3862.63 3482.03,-3861.71 3484.93,-3860.87 3487.95,-3860.12 3491.06,-3859.46 3494.27,-3858.89 3497.55,-3858.41 3500.89,-3858.03 3504.28,-3857.74 3507.71,-3857.55 3511.16,-3857.45 3514.62,-3857.45 3518.07,-3857.55"/>
<text text-anchor="start" x="3483.72" y="-3902.49" font-family="Times,serif" font-size="14.00">C0282574</text>
<text text-anchor="start" x="3494.61" y="-3888.49" font-family="Times,serif" font-size="14.00">stories</text>
<text text-anchor="start" x="3496.94" y="-3874.49" font-family="Times,serif" font-size="14.00">55:55</text>
</g>
<!-- id_27256947_DOT_10&#45;&#45;id_27256947_DOT_13 -->
<g id="edge6" class="edge">
<title>id_27256947_DOT_10&#45;&#45;id_27256947_DOT_13</title>
<path fill="none" stroke="black" d="M3773.01,-4074.25C3713.88,-4032.98 3603.87,-3956.19 3547.75,-3917.02"/>
<text text-anchor="middle" x="3634.13" y="-3998.43" font-family="Times,serif" font-size="14.00">0.002007</text>
</g>
<!-- id_27256947_DOT_22 -->
<g id="node22" class="node">
<title>id_27256947_DOT_22</title>
<polygon fill="blue" stroke="blue" points="700.37,-689.23 703.8,-689.42 707.19,-689.71 710.54,-690.09 713.82,-690.57 717.02,-691.14 720.14,-691.8 723.15,-692.55 726.06,-693.39 728.84,-694.31 731.48,-695.32 733.99,-696.4 736.34,-697.56 738.54,-698.8 740.57,-700.1 742.43,-701.47 744.12,-702.91 745.63,-704.4 746.95,-705.95 748.1,-707.55 749.06,-709.19 749.84,-710.88 750.43,-712.6 750.85,-714.35 751.09,-716.14 751.15,-717.94 751.05,-719.76 750.78,-721.6 750.35,-723.44 749.76,-725.29 749.03,-727.13 748.16,-728.97 747.15,-730.79 746.02,-732.59 744.77,-734.38 743.41,-736.13 741.95,-737.85 740.39,-739.54 738.74,-741.18 737.02,-742.78 735.21,-744.33 733.35,-745.82 731.42,-747.26 729.43,-748.63 727.4,-749.93 725.33,-751.17 723.22,-752.33 721.07,-753.41 718.9,-754.42 716.7,-755.34 714.49,-756.18 712.25,-756.93 710,-757.59 707.74,-758.16 705.47,-758.64 703.2,-759.02 700.91,-759.31 698.63,-759.5 696.34,-759.6 694.05,-759.6 691.76,-759.5 689.48,-759.31 687.19,-759.02 684.92,-758.64 682.65,-758.16 680.39,-757.59 678.14,-756.93 675.9,-756.18 673.69,-755.34 671.49,-754.42 669.32,-753.41 667.18,-752.33 665.06,-751.17 662.99,-749.93 660.96,-748.63 658.98,-747.26 657.05,-745.82 655.18,-744.33 653.37,-742.78 651.65,-741.18 650,-739.54 648.44,-737.85 646.98,-736.13 645.62,-734.38 644.37,-732.59 643.24,-730.79 642.23,-728.97 641.36,-727.13 640.63,-725.29 640.05,-723.44 639.62,-721.6 639.34,-719.76 639.24,-717.94 639.3,-716.14 639.54,-714.35 639.96,-712.6 640.55,-710.88 641.33,-709.19 642.29,-707.55 643.44,-705.95 644.76,-704.4 646.27,-702.91 647.96,-701.47 649.82,-700.1 651.85,-698.8 654.05,-697.56 656.4,-696.4 658.91,-695.32 661.55,-694.31 664.33,-693.39 667.24,-692.55 670.25,-691.8 673.37,-691.14 676.57,-690.57 679.85,-690.09 683.2,-689.71 686.59,-689.42 690.02,-689.23 693.47,-689.13 696.92,-689.13 700.37,-689.23"/>
<text text-anchor="start" x="666.03" y="-734.16" font-family="Times,serif" font-size="14.00">C0042610</text>
<text text-anchor="start" x="671.87" y="-720.16" font-family="Times,serif" font-size="14.00">veterans</text>
<text text-anchor="start" x="672.76" y="-706.16" font-family="Times,serif" font-size="14.00">119:119</text>
</g>
<!-- id_27256947_DOT_12&#45;&#45;id_27256947_DOT_22 -->
<g id="edge7" class="edge">
<title>id_27256947_DOT_12&#45;&#45;id_27256947_DOT_22</title>
<path fill="none" stroke="black" d="M477.71,-455.05C523.45,-511.7 622,-633.73 669.1,-692.05"/>
<text text-anchor="middle" x="547.15" y="-576.35" font-family="Times,serif" font-size="14.00">0.019263</text>
</g>
<!-- id_27256947_DOT_13&#45;&#45;id_27256947_DOT_20 -->
<g id="edge8" class="edge">
<title>id_27256947_DOT_13&#45;&#45;id_27256947_DOT_20</title>
<path fill="none" stroke="black" d="M3483.27,-3861.18C3434,-3808.78 3335.94,-3704.49 3288.32,-3653.84"/>
<text text-anchor="middle" x="3359.54" y="-3760.31" font-family="Times,serif" font-size="14.00">0.017760</text>
</g>
<!-- id_27256947_DOT_14 -->
<g id="node14" class="node">
<title>id_27256947_DOT_14</title>
<polygon fill="cornflowerblue" stroke="cornflowerblue" points="2445.58,-2959.17 2449.35,-2959.36 2453.09,-2959.65 2456.77,-2960.04 2460.39,-2960.51 2463.92,-2961.08 2467.35,-2961.75 2470.67,-2962.5 2473.87,-2963.33 2476.93,-2964.26 2479.84,-2965.26 2482.6,-2966.35 2485.2,-2967.51 2487.62,-2968.74 2489.85,-2970.05 2491.9,-2971.42 2493.76,-2972.85 2495.42,-2974.35 2496.88,-2975.89 2498.14,-2977.49 2499.2,-2979.14 2500.06,-2980.82 2500.72,-2982.54 2501.17,-2984.3 2501.44,-2986.08 2501.51,-2987.89 2501.39,-2989.71 2501.09,-2991.54 2500.62,-2993.39 2499.98,-2995.23 2499.17,-2997.08 2498.21,-2998.91 2497.1,-3000.73 2495.86,-3002.54 2494.48,-3004.32 2492.99,-3006.08 2491.37,-3007.8 2489.66,-3009.48 2487.84,-3011.13 2485.94,-3012.73 2483.95,-3014.27 2481.89,-3015.77 2479.77,-3017.2 2477.58,-3018.57 2475.35,-3019.88 2473.06,-3021.11 2470.74,-3022.27 2468.38,-3023.36 2465.98,-3024.36 2463.56,-3025.29 2461.12,-3026.12 2458.66,-3026.87 2456.19,-3027.54 2453.7,-3028.11 2451.2,-3028.58 2448.69,-3028.97 2446.17,-3029.26 2443.66,-3029.45 2441.14,-3029.55 2438.61,-3029.55 2436.09,-3029.45 2433.58,-3029.26 2431.06,-3028.97 2428.55,-3028.58 2426.05,-3028.11 2423.56,-3027.54 2421.09,-3026.87 2418.63,-3026.12 2416.19,-3025.29 2413.77,-3024.36 2411.37,-3023.36 2409.01,-3022.27 2406.69,-3021.11 2404.4,-3019.88 2402.17,-3018.57 2399.98,-3017.2 2397.86,-3015.77 2395.8,-3014.27 2393.81,-3012.73 2391.91,-3011.13 2390.09,-3009.48 2388.38,-3007.8 2386.77,-3006.08 2385.27,-3004.32 2383.89,-3002.54 2382.65,-3000.73 2381.54,-2998.91 2380.58,-2997.08 2379.77,-2995.23 2379.13,-2993.39 2378.66,-2991.54 2378.36,-2989.71 2378.24,-2987.89 2378.31,-2986.08 2378.58,-2984.3 2379.03,-2982.54 2379.69,-2980.82 2380.55,-2979.14 2381.61,-2977.49 2382.87,-2975.89 2384.33,-2974.35 2385.99,-2972.85 2387.85,-2971.42 2389.9,-2970.05 2392.13,-2968.74 2394.55,-2967.51 2397.15,-2966.35 2399.91,-2965.26 2402.82,-2964.26 2405.88,-2963.33 2409.08,-2962.5 2412.4,-2961.75 2415.83,-2961.08 2419.36,-2960.51 2422.98,-2960.04 2426.66,-2959.65 2430.4,-2959.36 2434.17,-2959.17 2437.97,-2959.07 2441.78,-2959.07 2445.58,-2959.17"/>
<text text-anchor="start" x="2410.71" y="-3004.11" font-family="Times,serif" font-size="14.00">C0242498</text>
<text text-anchor="start" x="2406.83" y="-2990.11" font-family="Times,serif" font-size="14.00">view of self</text>
<text text-anchor="start" x="2423.93" y="-2976.11" font-family="Times,serif" font-size="14.00">67:69</text>
</g>
<!-- id_27256947_DOT_19 -->
<g id="node19" class="node">
<title>id_27256947_DOT_19</title>
<polygon fill="crimson" stroke="crimson" points="2638.07,-2608.73 2649.16,-2608.92 2660.14,-2609.21 2670.95,-2609.59 2681.56,-2610.07 2691.93,-2610.64 2702.01,-2611.3 2711.76,-2612.05 2721.15,-2612.89 2730.14,-2613.81 2738.71,-2614.82 2746.81,-2615.9 2754.42,-2617.06 2761.53,-2618.3 2768.1,-2619.6 2774.12,-2620.97 2779.57,-2622.41 2784.45,-2623.9 2788.75,-2625.45 2792.45,-2627.05 2795.56,-2628.69 2798.07,-2630.38 2800,-2632.1 2801.35,-2633.85 2802.12,-2635.64 2802.32,-2637.44 2801.98,-2639.26 2801.11,-2641.1 2799.71,-2642.94 2797.83,-2644.79 2795.46,-2646.63 2792.64,-2648.47 2789.39,-2650.29 2785.74,-2652.09 2781.7,-2653.88 2777.3,-2655.63 2772.56,-2657.35 2767.52,-2659.04 2762.19,-2660.68 2756.6,-2662.28 2750.77,-2663.83 2744.73,-2665.32 2738.48,-2666.76 2732.07,-2668.13 2725.5,-2669.43 2718.79,-2670.67 2711.96,-2671.83 2705.02,-2672.91 2698,-2673.92 2690.89,-2674.84 2683.72,-2675.68 2676.5,-2676.43 2669.23,-2677.09 2661.91,-2677.66 2654.57,-2678.14 2647.21,-2678.52 2639.83,-2678.81 2632.43,-2679 2625.03,-2679.1 2617.62,-2679.1 2610.22,-2679 2602.83,-2678.81 2595.44,-2678.52 2588.08,-2678.14 2580.74,-2677.66 2573.43,-2677.09 2566.15,-2676.43 2558.93,-2675.68 2551.76,-2674.84 2544.65,-2673.92 2537.63,-2672.91 2530.69,-2671.83 2523.86,-2670.67 2517.15,-2669.43 2510.58,-2668.13 2504.17,-2666.76 2497.93,-2665.32 2491.88,-2663.83 2486.05,-2662.28 2480.46,-2660.68 2475.13,-2659.04 2470.09,-2657.35 2465.35,-2655.63 2460.96,-2653.88 2456.92,-2652.09 2453.26,-2650.29 2450.01,-2648.47 2447.19,-2646.63 2444.83,-2644.79 2442.94,-2642.94 2441.55,-2641.1 2440.67,-2639.26 2440.33,-2637.44 2440.54,-2635.64 2441.31,-2633.85 2442.65,-2632.1 2444.58,-2630.38 2447.09,-2628.69 2450.2,-2627.05 2453.9,-2625.45 2458.2,-2623.9 2463.08,-2622.41 2468.53,-2620.97 2474.55,-2619.6 2481.12,-2618.3 2488.23,-2617.06 2495.84,-2615.9 2503.94,-2614.82 2512.51,-2613.81 2521.5,-2612.89 2530.89,-2612.05 2540.64,-2611.3 2550.72,-2610.64 2561.09,-2610.07 2571.7,-2609.59 2582.51,-2609.21 2593.49,-2608.92 2604.58,-2608.73 2615.74,-2608.63 2626.92,-2608.63 2638.07,-2608.73"/>
<text text-anchor="start" x="2592.16" y="-2653.67" font-family="Times,serif" font-size="14.00">C0243095</text>
<text text-anchor="start" x="2509.14" y="-2639.67" font-family="Times,serif" font-size="14.00">seeking opportunity for what is possible</text>
<text text-anchor="start" x="2605.38" y="-2625.67" font-family="Times,serif" font-size="14.00">92:97</text>
</g>
<!-- id_27256947_DOT_14&#45;&#45;id_27256947_DOT_19 -->
<g id="edge17" class="edge">
<title>id_27256947_DOT_14&#45;&#45;id_27256947_DOT_19</title>
<path fill="none" stroke="black" stroke-dasharray="1,5" d="M2457.6,-2960.07C2492.16,-2893.33 2568.19,-2746.49 2603.12,-2679.02"/>
<text text-anchor="middle" x="2504.11" y="-2822.35" font-family="Times,serif" font-size="14.00">0.571283</text>
</g>
<!-- id_27256947_DOT_15&#45;&#45;id_27256947_DOT_16 -->
<g id="edge18" class="edge">
<title>id_27256947_DOT_15&#45;&#45;id_27256947_DOT_16</title>
<path fill="none" stroke="black" stroke-dasharray="1,5" d="M2192.6,-2461.09C2133.07,-2518.91 2010.34,-2638.1 1950.18,-2696.53"/>
<text text-anchor="middle" x="2045.14" y="-2581.61" font-family="Times,serif" font-size="14.00">0.597225</text>
</g>
<!-- id_27256947_DOT_15&#45;&#45;id_27256947_DOT_19 -->
<g id="edge19" class="edge">
<title>id_27256947_DOT_15&#45;&#45;id_27256947_DOT_19</title>
<path fill="none" stroke="black" stroke-dasharray="1,5" d="M2279.32,-2457.05C2351.93,-2496.71 2482.28,-2567.91 2559.38,-2610.03"/>
<text text-anchor="middle" x="2393.1" y="-2536.34" font-family="Times,serif" font-size="14.00">0.696690</text>
</g>
<!-- id_27256947_DOT_17 -->
<g id="node17" class="node">
<title>id_27256947_DOT_17</title>
<polygon fill="darkgreen" stroke="darkgreen" points="3002.63,-2373.32 3006.8,-2373.51 3010.92,-2373.8 3014.98,-2374.18 3018.97,-2374.66 3022.86,-2375.23 3026.65,-2375.89 3030.32,-2376.64 3033.84,-2377.48 3037.22,-2378.4 3040.44,-2379.41 3043.48,-2380.49 3046.34,-2381.65 3049.01,-2382.89 3051.48,-2384.19 3053.74,-2385.57 3055.79,-2387 3057.63,-2388.49 3059.24,-2390.04 3060.63,-2391.64 3061.8,-2393.28 3062.74,-2394.97 3063.47,-2396.69 3063.97,-2398.45 3064.26,-2400.23 3064.34,-2402.03 3064.21,-2403.86 3063.88,-2405.69 3063.36,-2407.53 3062.65,-2409.38 3061.76,-2411.22 3060.7,-2413.06 3059.48,-2414.88 3058.11,-2416.69 3056.59,-2418.47 3054.94,-2420.22 3053.16,-2421.95 3051.26,-2423.63 3049.26,-2425.28 3047.16,-2426.87 3044.97,-2428.42 3042.7,-2429.91 3040.35,-2431.35 3037.94,-2432.72 3035.48,-2434.02 3032.96,-2435.26 3030.39,-2436.42 3027.78,-2437.51 3025.14,-2438.51 3022.48,-2439.43 3019.78,-2440.27 3017.07,-2441.02 3014.33,-2441.68 3011.59,-2442.25 3008.83,-2442.73 3006.06,-2443.11 3003.29,-2443.4 3000.51,-2443.6 2997.73,-2443.69 2994.95,-2443.69 2992.17,-2443.6 2989.39,-2443.4 2986.61,-2443.11 2983.85,-2442.73 2981.09,-2442.25 2978.34,-2441.68 2975.61,-2441.02 2972.89,-2440.27 2970.2,-2439.43 2967.53,-2438.51 2964.89,-2437.51 2962.29,-2436.42 2959.72,-2435.26 2957.2,-2434.02 2954.73,-2432.72 2952.32,-2431.35 2949.98,-2429.91 2947.71,-2428.42 2945.52,-2426.87 2943.41,-2425.28 2941.41,-2423.63 2939.52,-2421.95 2937.74,-2420.22 2936.09,-2418.47 2934.57,-2416.69 2933.19,-2414.88 2931.97,-2413.06 2930.91,-2411.22 2930.03,-2409.38 2929.32,-2407.53 2928.79,-2405.69 2928.47,-2403.86 2928.34,-2402.03 2928.41,-2400.23 2928.7,-2398.45 2929.21,-2396.69 2929.93,-2394.97 2930.88,-2393.28 2932.05,-2391.64 2933.44,-2390.04 2935.05,-2388.49 2936.88,-2387 2938.93,-2385.57 2941.2,-2384.19 2943.66,-2382.89 2946.33,-2381.65 2949.19,-2380.49 2952.24,-2379.41 2955.45,-2378.4 2958.83,-2377.48 2962.36,-2376.64 2966.02,-2375.89 2969.81,-2375.23 2973.71,-2374.66 2977.69,-2374.18 2981.76,-2373.8 2985.88,-2373.51 2990.05,-2373.32 2994.24,-2373.22 2998.44,-2373.22 3002.63,-2373.32"/>
<text text-anchor="start" x="2967.17" y="-2418.26" font-family="Times,serif" font-size="14.00">C0034770</text>
<text text-anchor="start" x="2959.02" y="-2404.26" font-family="Times,serif" font-size="14.00">remembering</text>
<text text-anchor="start" x="2980.39" y="-2390.26" font-family="Times,serif" font-size="14.00">87:87</text>
</g>
<!-- id_27256947_DOT_17&#45;&#45;id_27256947_DOT_19 -->
<g id="edge20" class="edge">
<title>id_27256947_DOT_17&#45;&#45;id_27256947_DOT_19</title>
<path fill="none" stroke="black" stroke-dasharray="1,5" d="M2956.21,-2433.65C2888.56,-2476.11 2751.79,-2561.97 2675.63,-2609.78"/>
<text text-anchor="middle" x="2789.67" y="-2524.51" font-family="Times,serif" font-size="14.00">0.758180</text>
</g>
<!-- id_27256947_DOT_21 -->
<g id="node21" class="node">
<title>id_27256947_DOT_21</title>
<polygon fill="darkkhaki" stroke="darkkhaki" points="3343.79,-2154.68 3348.03,-2154.87 3352.23,-2155.16 3356.37,-2155.54 3360.43,-2156.02 3364.4,-2156.59 3368.25,-2157.25 3371.99,-2158 3375.58,-2158.84 3379.02,-2159.76 3382.3,-2160.77 3385.4,-2161.85 3388.31,-2163.01 3391.03,-2164.25 3393.54,-2165.55 3395.85,-2166.92 3397.94,-2168.36 3399.8,-2169.85 3401.45,-2171.4 3402.86,-2173 3404.05,-2174.64 3405.02,-2176.33 3405.75,-2178.05 3406.27,-2179.8 3406.56,-2181.59 3406.64,-2183.39 3406.51,-2185.21 3406.18,-2187.05 3405.64,-2188.89 3404.92,-2190.74 3404.02,-2192.58 3402.94,-2194.42 3401.69,-2196.24 3400.29,-2198.04 3398.75,-2199.83 3397.06,-2201.58 3395.25,-2203.3 3393.32,-2204.99 3391.28,-2206.63 3389.14,-2208.23 3386.91,-2209.78 3384.6,-2211.27 3382.21,-2212.71 3379.76,-2214.08 3377.24,-2215.38 3374.68,-2216.62 3372.06,-2217.78 3369.41,-2218.86 3366.72,-2219.87 3364,-2220.79 3361.26,-2221.63 3358.49,-2222.38 3355.71,-2223.04 3352.91,-2223.61 3350.1,-2224.09 3347.28,-2224.47 3344.46,-2224.76 3341.63,-2224.95 3338.8,-2225.05 3335.96,-2225.05 3333.13,-2224.95 3330.3,-2224.76 3327.48,-2224.47 3324.66,-2224.09 3321.85,-2223.61 3319.05,-2223.04 3316.27,-2222.38 3313.5,-2221.63 3310.76,-2220.79 3308.04,-2219.87 3305.35,-2218.86 3302.7,-2217.78 3300.08,-2216.62 3297.52,-2215.38 3295,-2214.08 3292.55,-2212.71 3290.16,-2211.27 3287.85,-2209.78 3285.62,-2208.23 3283.48,-2206.63 3281.44,-2204.99 3279.51,-2203.3 3277.7,-2201.58 3276.01,-2199.83 3274.47,-2198.04 3273.07,-2196.24 3271.82,-2194.42 3270.74,-2192.58 3269.84,-2190.74 3269.12,-2188.89 3268.58,-2187.05 3268.25,-2185.21 3268.12,-2183.39 3268.2,-2181.59 3268.49,-2179.8 3269.01,-2178.05 3269.74,-2176.33 3270.71,-2174.64 3271.9,-2173 3273.31,-2171.4 3274.96,-2169.85 3276.82,-2168.36 3278.91,-2166.92 3281.22,-2165.55 3283.73,-2164.25 3286.45,-2163.01 3289.36,-2161.85 3292.46,-2160.77 3295.74,-2159.76 3299.18,-2158.84 3302.77,-2158 3306.51,-2157.25 3310.36,-2156.59 3314.33,-2156.02 3318.39,-2155.54 3322.53,-2155.16 3326.73,-2154.87 3330.97,-2154.68 3335.24,-2154.58 3339.52,-2154.58 3343.79,-2154.68"/>
<text text-anchor="start" x="3308.21" y="-2199.62" font-family="Times,serif" font-size="14.00">C0025353</text>
<text text-anchor="start" x="3299.48" y="-2185.62" font-family="Times,serif" font-size="14.00">mental health</text>
<text text-anchor="start" x="3314.95" y="-2171.62" font-family="Times,serif" font-size="14.00">115:116</text>
</g>
<!-- id_27256947_DOT_17&#45;&#45;id_27256947_DOT_21 -->
<g id="edge21" class="edge">
<title>id_27256947_DOT_17&#45;&#45;id_27256947_DOT_21</title>
<path fill="none" stroke="black" stroke-dasharray="1,5" d="M3041.27,-2379.65C3108.29,-2336.69 3233.37,-2256.5 3297.39,-2215.45"/>
<text text-anchor="middle" x="3143.08" y="-2300.35" font-family="Times,serif" font-size="14.00">0.649316</text>
</g>
<!-- id_27256947_DOT_18&#45;&#45;id_27256947_DOT_19 -->
<g id="edge22" class="edge">
<title>id_27256947_DOT_18&#45;&#45;id_27256947_DOT_19</title>
<path fill="none" stroke="black" stroke-dasharray="1,5" d="M2847.23,-2937.37C2799.42,-2875.26 2696.73,-2741.83 2648.02,-2678.54"/>
<text text-anchor="middle" x="2721.37" y="-2810.76" font-family="Times,serif" font-size="14.00">0.837908</text>
</g>
<!-- id_27256947_DOT_22&#45;&#45;id_27256947_DOT_23 -->
<g id="edge9" class="edge">
<title>id_27256947_DOT_22&#45;&#45;id_27256947_DOT_23</title>
<path fill="none" stroke="black" d="M718.85,-754.79C761.88,-810.16 852.63,-926.91 896.87,-983.83"/>
<text text-anchor="middle" x="781.61" y="-872.11" font-family="Times,serif" font-size="14.00">0.000860</text>
</g>
</g>
</svg>
