<?xml version="1.0" encoding="UTF-8" standalone="no"?>
<!DOCTYPE svg PUBLIC "-//W3C//DTD SVG 1.1//EN"
 "http://www.w3.org/Graphics/SVG/1.1/DTD/svg11.dtd">
<!-- Generated by graphviz version 2.42.3 (20191010.1750)
 -->
<!-- Title: MST Pages: 1 -->
<svg width="959pt" height="1770pt"
 viewBox="0.00 0.00 958.73 1770.46" xmlns="http://www.w3.org/2000/svg" xmlns:xlink="http://www.w3.org/1999/xlink">
<g id="graph0" class="graph" transform="scale(1 1) rotate(0) translate(4 1766.46)">
<title>MST</title>
<polygon fill="white" stroke="transparent" points="-4,4 -4,-1766.46 954.73,-1766.46 954.73,4 -4,4"/>
<!-- id_27336997_DOT_1 -->
<g id="node1" class="node">
<title>id_27336997_DOT_1</title>
<polygon fill="aquamarine" stroke="aquamarine" points="61.16,-0.23 64.58,-0.42 67.98,-0.71 71.32,-1.09 74.6,-1.57 77.81,-2.14 80.92,-2.8 83.94,-3.55 86.84,-4.39 89.62,-5.31 92.27,-6.32 94.77,-7.4 97.13,-8.57 99.32,-9.8 101.35,-11.1 103.22,-12.48 104.9,-13.91 106.41,-15.4 107.74,-16.95 108.88,-18.55 109.84,-20.19 110.62,-21.88 111.22,-23.6 111.63,-25.36 111.87,-27.14 111.93,-28.94 111.83,-30.77 111.56,-32.6 111.13,-34.44 110.54,-36.29 109.81,-38.13 108.94,-39.97 107.94,-41.79 106.81,-43.6 105.56,-45.38 104.2,-47.13 102.73,-48.86 101.18,-50.54 99.53,-52.19 97.8,-53.78 96,-55.33 94.13,-56.82 92.2,-58.26 90.22,-59.63 88.18,-60.94 86.11,-62.17 84,-63.33 81.85,-64.42 79.68,-65.42 77.49,-66.34 75.27,-67.18 73.04,-67.93 70.79,-68.59 68.53,-69.16 66.26,-69.64 63.98,-70.02 61.7,-70.31 59.41,-70.51 57.12,-70.6 54.83,-70.6 52.55,-70.51 50.26,-70.31 47.98,-70.02 45.7,-69.64 43.43,-69.16 41.17,-68.59 38.92,-67.93 36.69,-67.18 34.47,-66.34 32.27,-65.42 30.1,-64.42 27.96,-63.33 25.85,-62.17 23.77,-60.94 21.74,-59.63 19.76,-58.26 17.83,-56.82 15.96,-55.33 14.16,-53.78 12.43,-52.19 10.78,-50.54 9.22,-48.86 7.76,-47.13 6.4,-45.38 5.15,-43.6 4.02,-41.79 3.01,-39.97 2.14,-38.13 1.41,-36.29 0.83,-34.44 0.4,-32.6 0.13,-30.77 0.02,-28.94 0.09,-27.14 0.32,-25.36 0.74,-23.6 1.34,-21.88 2.11,-20.19 3.07,-18.55 4.22,-16.95 5.55,-15.4 7.05,-13.91 8.74,-12.48 10.6,-11.1 12.63,-9.8 14.83,-8.57 17.18,-7.4 19.69,-6.32 22.34,-5.31 25.12,-4.39 28.02,-3.55 31.03,-2.8 34.15,-2.14 37.35,-1.57 40.64,-1.09 43.98,-0.71 47.37,-0.42 50.8,-0.23 54.25,-0.13 57.71,-0.13 61.16,-0.23"/>
<text text-anchor="start" x="26.81" y="-45.17" font-family="Times,serif" font-size="14.00">C1706852</text>
<text text-anchor="start" x="38.49" y="-31.17" font-family="Times,serif" font-size="14.00">article</text>
<text text-anchor="start" x="47.03" y="-17.17" font-family="Times,serif" font-size="14.00">6:6</text>
</g>
<!-- id_27336997_DOT_7 -->
<g id="node7" class="node">
<title>id_27336997_DOT_7</title>
<polygon fill="aquamarine" stroke="aquamarine" points="280.25,-298.14 283.68,-298.34 287.07,-298.63 290.41,-299.01 293.69,-299.49 296.9,-300.06 300.01,-300.72 303.03,-301.47 305.93,-302.31 308.71,-303.23 311.36,-304.23 313.86,-305.32 316.22,-306.48 318.41,-307.72 320.44,-309.02 322.31,-310.39 323.99,-311.83 325.5,-313.32 326.83,-314.87 327.97,-316.46 328.93,-318.11 329.71,-319.79 330.31,-321.52 330.72,-323.27 330.96,-325.05 331.03,-326.86 330.92,-328.68 330.65,-330.52 330.22,-332.36 329.63,-334.21 328.9,-336.05 328.03,-337.88 327.03,-339.71 325.9,-341.51 324.65,-343.29 323.29,-345.05 321.82,-346.77 320.27,-348.46 318.62,-350.1 316.89,-351.7 315.09,-353.25 313.22,-354.74 311.29,-356.17 309.31,-357.55 307.27,-358.85 305.2,-360.09 303.09,-361.25 300.94,-362.33 298.77,-363.34 296.58,-364.26 294.36,-365.1 292.13,-365.85 289.88,-366.51 287.62,-367.08 285.35,-367.56 283.07,-367.94 280.79,-368.23 278.5,-368.42 276.21,-368.52 273.92,-368.52 271.64,-368.42 269.35,-368.23 267.07,-367.94 264.79,-367.56 262.52,-367.08 260.26,-366.51 258.01,-365.85 255.78,-365.1 253.56,-364.26 251.36,-363.34 249.19,-362.33 247.05,-361.25 244.94,-360.09 242.86,-358.85 240.83,-357.55 238.85,-356.17 236.92,-354.74 235.05,-353.25 233.25,-351.7 231.52,-350.1 229.87,-348.46 228.31,-346.77 226.85,-345.05 225.49,-343.29 224.24,-341.51 223.11,-339.71 222.1,-337.88 221.23,-336.05 220.5,-334.21 219.92,-332.36 219.49,-330.52 219.22,-328.68 219.11,-326.86 219.18,-325.05 219.41,-323.27 219.83,-321.52 220.43,-319.79 221.2,-318.11 222.16,-316.46 223.31,-314.87 224.64,-313.32 226.15,-311.83 227.83,-310.39 229.69,-309.02 231.72,-307.72 233.92,-306.48 236.27,-305.32 238.78,-304.23 241.43,-303.23 244.21,-302.31 247.11,-301.47 250.12,-300.72 253.24,-300.06 256.45,-299.49 259.73,-299.01 263.07,-298.63 266.46,-298.34 269.89,-298.14 273.34,-298.05 276.8,-298.05 280.25,-298.14"/>
<text text-anchor="start" x="245.9" y="-343.08" font-family="Times,serif" font-size="14.00">C1706852</text>
<text text-anchor="start" x="257.58" y="-329.08" font-family="Times,serif" font-size="14.00">article</text>
<text text-anchor="start" x="259.12" y="-315.08" font-family="Times,serif" font-size="14.00">37:37</text>
</g>
<!-- id_27336997_DOT_1&#45;&#45;id_27336997_DOT_7 -->
<g id="edge1" class="edge">
<title>id_27336997_DOT_1&#45;&#45;id_27336997_DOT_7</title>
<path fill="none" stroke="black" d="M78.6,-66.13C120.15,-122.62 208.25,-242.42 250.91,-300.43"/>
<text text-anchor="middle" x="138.5" y="-186.08" font-family="Times,serif" font-size="14.00">0.002998</text>
</g>
<!-- id_27336997_DOT_2 -->
<g id="node2" class="node">
<title>id_27336997_DOT_2</title>
<polygon fill="bisque" stroke="bisque" points="514.88,-615.57 521.54,-615.77 528.14,-616.05 534.64,-616.44 541.02,-616.92 547.25,-617.49 553.3,-618.15 559.17,-618.9 564.81,-619.74 570.22,-620.66 575.36,-621.66 580.23,-622.75 584.81,-623.91 589.08,-625.14 593.03,-626.45 596.65,-627.82 599.92,-629.25 602.86,-630.75 605.44,-632.29 607.66,-633.89 609.53,-635.54 611.04,-637.22 612.2,-638.95 613.01,-640.7 613.47,-642.48 613.6,-644.29 613.39,-646.11 612.87,-647.95 612.03,-649.79 610.89,-651.63 609.47,-653.48 607.78,-655.31 605.83,-657.13 603.63,-658.94 601.2,-660.72 598.56,-662.48 595.71,-664.2 592.68,-665.89 589.48,-667.53 586.12,-669.13 582.61,-670.68 578.98,-672.17 575.23,-673.6 571.37,-674.97 567.42,-676.28 563.39,-677.51 559.28,-678.68 555.12,-679.76 550.89,-680.77 546.62,-681.69 542.31,-682.53 537.97,-683.28 533.6,-683.94 529.21,-684.51 524.79,-684.99 520.37,-685.37 515.93,-685.66 511.48,-685.85 507.04,-685.95 502.58,-685.95 498.14,-685.85 493.69,-685.66 489.25,-685.37 484.83,-684.99 480.41,-684.51 476.02,-683.94 471.65,-683.28 467.31,-682.53 463,-681.69 458.73,-680.77 454.5,-679.76 450.34,-678.68 446.23,-677.51 442.2,-676.28 438.25,-674.97 434.39,-673.6 430.64,-672.17 427.01,-670.68 423.5,-669.13 420.14,-667.53 416.94,-665.89 413.91,-664.2 411.06,-662.48 408.42,-660.72 405.99,-658.94 403.79,-657.13 401.84,-655.31 400.15,-653.48 398.73,-651.63 397.59,-649.79 396.75,-647.95 396.23,-646.11 396.02,-644.29 396.15,-642.48 396.61,-640.7 397.42,-638.95 398.58,-637.22 400.09,-635.54 401.96,-633.89 404.18,-632.29 406.76,-630.75 409.7,-629.25 412.97,-627.82 416.59,-626.45 420.54,-625.14 424.81,-623.91 429.39,-622.75 434.26,-621.66 439.4,-620.66 444.81,-619.74 450.45,-618.9 456.32,-618.15 462.37,-617.49 468.6,-616.92 474.98,-616.44 481.48,-616.05 488.08,-615.77 494.74,-615.57 501.45,-615.48 508.17,-615.48 514.88,-615.57"/>
<text text-anchor="start" x="475.64" y="-660.51" font-family="Times,serif" font-size="14.00">C0015538</text>
<text text-anchor="start" x="440.67" y="-646.51" font-family="Times,serif" font-size="14.00">adjunct clinical faculty</text>
<text text-anchor="start" x="488.87" y="-632.51" font-family="Times,serif" font-size="14.00">16:18</text>
</g>
<!-- id_27336997_DOT_3 -->
<g id="node3" class="node">
<title>id_27336997_DOT_3</title>
<polygon fill="blue" stroke="blue" points="392.94,-987.03 396.37,-987.23 399.76,-987.51 403.1,-987.9 406.38,-988.38 409.59,-988.95 412.71,-989.61 415.72,-990.36 418.62,-991.2 421.4,-992.12 424.05,-993.12 426.55,-994.21 428.91,-995.37 431.11,-996.6 433.14,-997.91 435,-999.28 436.68,-1000.71 438.19,-1002.21 439.52,-1003.76 440.67,-1005.35 441.63,-1007 442.4,-1008.68 443,-1010.41 443.42,-1012.16 443.65,-1013.94 443.72,-1015.75 443.61,-1017.57 443.34,-1019.41 442.91,-1021.25 442.33,-1023.09 441.6,-1024.94 440.72,-1026.77 439.72,-1028.6 438.59,-1030.4 437.34,-1032.18 435.98,-1033.94 434.52,-1035.66 432.96,-1037.35 431.31,-1038.99 429.58,-1040.59 427.78,-1042.14 425.91,-1043.63 423.98,-1045.06 422,-1046.43 419.97,-1047.74 417.89,-1048.97 415.78,-1050.14 413.64,-1051.22 411.47,-1052.23 409.27,-1053.15 407.05,-1053.99 404.82,-1054.74 402.57,-1055.4 400.31,-1055.97 398.04,-1056.45 395.76,-1056.83 393.48,-1057.12 391.19,-1057.31 388.91,-1057.41 386.62,-1057.41 384.33,-1057.31 382.04,-1057.12 379.76,-1056.83 377.48,-1056.45 375.21,-1055.97 372.95,-1055.4 370.7,-1054.74 368.47,-1053.99 366.25,-1053.15 364.06,-1052.23 361.89,-1051.22 359.74,-1050.14 357.63,-1048.97 355.56,-1047.74 353.52,-1046.43 351.54,-1045.06 349.61,-1043.63 347.74,-1042.14 345.94,-1040.59 344.21,-1038.99 342.56,-1037.35 341.01,-1035.66 339.54,-1033.94 338.18,-1032.18 336.93,-1030.4 335.8,-1028.6 334.8,-1026.77 333.93,-1024.94 333.2,-1023.09 332.61,-1021.25 332.18,-1019.41 331.91,-1017.57 331.8,-1015.75 331.87,-1013.94 332.11,-1012.16 332.52,-1010.41 333.12,-1008.68 333.9,-1007 334.86,-1005.35 336,-1003.76 337.33,-1002.21 338.84,-1000.71 340.52,-999.28 342.39,-997.91 344.42,-996.6 346.61,-995.37 348.97,-994.21 351.47,-993.12 354.12,-992.12 356.9,-991.2 359.8,-990.36 362.82,-989.61 365.93,-988.95 369.14,-988.38 372.42,-987.9 375.76,-987.51 379.15,-987.23 382.58,-987.03 386.03,-986.94 389.49,-986.94 392.94,-987.03"/>
<text text-anchor="start" x="358.59" y="-1031.97" font-family="Times,serif" font-size="14.00">C0221457</text>
<text text-anchor="start" x="358.61" y="-1017.97" font-family="Times,serif" font-size="14.00">preceptors</text>
<text text-anchor="start" x="371.82" y="-1003.97" font-family="Times,serif" font-size="14.00">20:20</text>
</g>
<!-- id_27336997_DOT_2&#45;&#45;id_27336997_DOT_3 -->
<g id="edge2" class="edge">
<title>id_27336997_DOT_2&#45;&#45;id_27336997_DOT_3</title>
<path fill="none" stroke="black" stroke-dasharray="1,5" d="M493.69,-685.99C471.29,-757.07 420.98,-916.74 398.72,-987.4"/>
<text text-anchor="middle" x="419.96" y="-839.49" font-family="Times,serif" font-size="14.00">0.737080</text>
</g>
<!-- id_27336997_DOT_5 -->
<g id="node5" class="node">
<title>id_27336997_DOT_5</title>
<polygon fill="brown" stroke="brown" points="899.93,-537.04 903.36,-537.23 906.75,-537.52 910.09,-537.9 913.38,-538.38 916.58,-538.95 919.7,-539.61 922.71,-540.36 925.61,-541.2 928.39,-542.12 931.04,-543.13 933.55,-544.21 935.9,-545.37 938.1,-546.61 940.13,-547.91 941.99,-549.28 943.68,-550.72 945.18,-552.21 946.51,-553.76 947.66,-555.36 948.62,-557 949.4,-558.69 949.99,-560.41 950.41,-562.16 950.64,-563.95 950.71,-565.75 950.6,-567.57 950.33,-569.41 949.9,-571.25 949.32,-573.1 948.59,-574.94 947.72,-576.77 946.71,-578.6 945.58,-580.4 944.33,-582.18 942.97,-583.94 941.51,-585.66 939.95,-587.35 938.3,-588.99 936.57,-590.59 934.77,-592.14 932.9,-593.63 930.97,-595.07 928.99,-596.44 926.96,-597.74 924.88,-598.98 922.77,-600.14 920.63,-601.22 918.46,-602.23 916.26,-603.15 914.04,-603.99 911.81,-604.74 909.56,-605.4 907.3,-605.97 905.03,-606.45 902.75,-606.83 900.47,-607.12 898.19,-607.31 895.9,-607.41 893.61,-607.41 891.32,-607.31 889.03,-607.12 886.75,-606.83 884.47,-606.45 882.2,-605.97 879.94,-605.4 877.7,-604.74 875.46,-603.99 873.24,-603.15 871.05,-602.23 868.88,-601.22 866.73,-600.14 864.62,-598.98 862.55,-597.74 860.52,-596.44 858.53,-595.07 856.6,-593.63 854.73,-592.14 852.93,-590.59 851.2,-588.99 849.56,-587.35 848,-585.66 846.53,-583.94 845.17,-582.18 843.92,-580.4 842.79,-578.6 841.79,-576.77 840.92,-574.94 840.19,-573.1 839.6,-571.25 839.17,-569.41 838.9,-567.57 838.8,-565.75 838.86,-563.95 839.1,-562.16 839.51,-560.41 840.11,-558.69 840.89,-557 841.85,-555.36 842.99,-553.76 844.32,-552.21 845.83,-550.72 847.52,-549.28 849.38,-547.91 851.41,-546.61 853.6,-545.37 855.96,-544.21 858.46,-543.13 861.11,-542.12 863.89,-541.2 866.79,-540.36 869.81,-539.61 872.92,-538.95 876.13,-538.38 879.41,-537.9 882.75,-537.52 886.15,-537.23 889.57,-537.04 893.02,-536.94 896.48,-536.94 899.93,-537.04"/>
<text text-anchor="start" x="865.58" y="-581.97" font-family="Times,serif" font-size="14.00">C0588053</text>
<text text-anchor="start" x="867.93" y="-567.97" font-family="Times,serif" font-size="14.00">graduates</text>
<text text-anchor="start" x="878.81" y="-553.97" font-family="Times,serif" font-size="14.00">28:28</text>
</g>
<!-- id_27336997_DOT_2&#45;&#45;id_27336997_DOT_5 -->
<g id="edge3" class="edge">
<title>id_27336997_DOT_2&#45;&#45;id_27336997_DOT_5</title>
<path fill="none" stroke="black" stroke-dasharray="1,5" d="M603.21,-630.89C680.26,-615.37 784.23,-594.43 844.93,-582.21"/>
<text text-anchor="middle" x="697.82" y="-609.35" font-family="Times,serif" font-size="14.00">0.979014</text>
</g>
<!-- id_27336997_DOT_2&#45;&#45;id_27336997_DOT_7 -->
<g id="edge4" class="edge">
<title>id_27336997_DOT_2&#45;&#45;id_27336997_DOT_7</title>
<path fill="none" stroke="black" stroke-dasharray="1,5" d="M479.79,-616.14C434.66,-553.79 340.36,-423.5 297.34,-364.05"/>
<text text-anchor="middle" x="362.31" y="-492.89" font-family="Times,serif" font-size="14.00">0.886161</text>
</g>
<!-- id_27336997_DOT_6 -->
<g id="node6" class="node">
<title>id_27336997_DOT_6</title>
<polygon fill="cadetblue" stroke="cadetblue" points="292.82,-1342.33 296.38,-1342.52 299.91,-1342.81 303.38,-1343.19 306.79,-1343.67 310.11,-1344.24 313.35,-1344.9 316.48,-1345.65 319.5,-1346.49 322.38,-1347.41 325.13,-1348.42 327.73,-1349.5 330.18,-1350.66 332.46,-1351.9 334.57,-1353.2 336.5,-1354.57 338.25,-1356.01 339.82,-1357.5 341.2,-1359.05 342.39,-1360.65 343.38,-1362.29 344.19,-1363.98 344.81,-1365.7 345.24,-1367.45 345.49,-1369.24 345.56,-1371.04 345.45,-1372.87 345.17,-1374.7 344.72,-1376.54 344.11,-1378.39 343.35,-1380.23 342.45,-1382.07 341.41,-1383.89 340.23,-1385.69 338.93,-1387.48 337.52,-1389.23 336,-1390.95 334.38,-1392.64 332.67,-1394.28 330.88,-1395.88 329.01,-1397.43 327.06,-1398.92 325.06,-1400.36 323,-1401.73 320.89,-1403.03 318.74,-1404.27 316.54,-1405.43 314.32,-1406.51 312.06,-1407.52 309.78,-1408.44 307.48,-1409.28 305.16,-1410.03 302.82,-1410.69 300.48,-1411.26 298.12,-1411.74 295.76,-1412.12 293.39,-1412.41 291.01,-1412.6 288.63,-1412.7 286.26,-1412.7 283.88,-1412.6 281.51,-1412.41 279.14,-1412.12 276.77,-1411.74 274.41,-1411.26 272.07,-1410.69 269.73,-1410.03 267.41,-1409.28 265.11,-1408.44 262.83,-1407.52 260.57,-1406.51 258.35,-1405.43 256.15,-1404.27 254,-1403.03 251.89,-1401.73 249.83,-1400.36 247.83,-1398.92 245.89,-1397.43 244.01,-1395.88 242.22,-1394.28 240.51,-1392.64 238.89,-1390.95 237.37,-1389.23 235.96,-1387.48 234.66,-1385.69 233.49,-1383.89 232.44,-1382.07 231.54,-1380.23 230.78,-1378.39 230.17,-1376.54 229.73,-1374.7 229.44,-1372.87 229.34,-1371.04 229.4,-1369.24 229.65,-1367.45 230.08,-1365.7 230.7,-1363.98 231.51,-1362.29 232.51,-1360.65 233.69,-1359.05 235.07,-1357.5 236.64,-1356.01 238.39,-1354.57 240.32,-1353.2 242.43,-1351.9 244.71,-1350.66 247.16,-1349.5 249.76,-1348.42 252.51,-1347.41 255.4,-1346.49 258.41,-1345.65 261.54,-1344.9 264.78,-1344.24 268.11,-1343.67 271.51,-1343.19 274.98,-1342.81 278.51,-1342.52 282.07,-1342.33 285.65,-1342.23 289.24,-1342.23 292.82,-1342.33"/>
<text text-anchor="start" x="258.28" y="-1387.27" font-family="Times,serif" font-size="14.00">C0376554</text>
<text text-anchor="start" x="256.73" y="-1373.27" font-family="Times,serif" font-size="14.00">knowledge</text>
<text text-anchor="start" x="271.5" y="-1359.27" font-family="Times,serif" font-size="14.00">31:31</text>
</g>
<!-- id_27336997_DOT_3&#45;&#45;id_27336997_DOT_6 -->
<g id="edge5" class="edge">
<title>id_27336997_DOT_3&#45;&#45;id_27336997_DOT_6</title>
<path fill="none" stroke="black" stroke-dasharray="1,5" d="M378.05,-1056.56C358.92,-1124.31 316.56,-1274.35 297.31,-1342.53"/>
<text text-anchor="middle" x="311.43" y="-1202.35" font-family="Times,serif" font-size="14.00">0.974721</text>
</g>
<!-- id_27336997_DOT_4 -->
<g id="node4" class="node">
<title>id_27336997_DOT_4</title>
<polygon fill="blueviolet" stroke="blueviolet" points="195.32,-1691.95 200.26,-1692.15 205.16,-1692.43 209.98,-1692.82 214.72,-1693.3 219.34,-1693.87 223.84,-1694.53 228.19,-1695.28 232.38,-1696.12 236.39,-1697.04 240.21,-1698.04 243.82,-1699.13 247.22,-1700.29 250.38,-1701.52 253.32,-1702.83 256,-1704.2 258.43,-1705.63 260.61,-1707.13 262.53,-1708.67 264.18,-1710.27 265.56,-1711.92 266.69,-1713.6 267.55,-1715.33 268.15,-1717.08 268.49,-1718.86 268.58,-1720.67 268.43,-1722.49 268.04,-1724.33 267.42,-1726.17 266.58,-1728.01 265.52,-1729.86 264.26,-1731.69 262.81,-1733.52 261.18,-1735.32 259.38,-1737.1 257.42,-1738.86 255.31,-1740.58 253.06,-1742.27 250.68,-1743.91 248.19,-1745.51 245.59,-1747.06 242.89,-1748.55 240.11,-1749.98 237.24,-1751.35 234.31,-1752.66 231.32,-1753.89 228.27,-1755.06 225.18,-1756.14 222.05,-1757.15 218.88,-1758.07 215.68,-1758.91 212.46,-1759.66 209.21,-1760.32 205.95,-1760.89 202.68,-1761.37 199.39,-1761.75 196.1,-1762.04 192.8,-1762.23 189.5,-1762.33 186.2,-1762.33 182.89,-1762.23 179.6,-1762.04 176.3,-1761.75 173.02,-1761.37 169.74,-1760.89 166.48,-1760.32 163.24,-1759.66 160.01,-1758.91 156.82,-1758.07 153.65,-1757.15 150.51,-1756.14 147.42,-1755.06 144.37,-1753.89 141.38,-1752.66 138.45,-1751.35 135.59,-1749.98 132.8,-1748.55 130.11,-1747.06 127.51,-1745.51 125.01,-1743.91 122.64,-1742.27 120.39,-1740.58 118.28,-1738.86 116.31,-1737.1 114.51,-1735.32 112.88,-1733.52 111.43,-1731.69 110.17,-1729.86 109.12,-1728.01 108.28,-1726.17 107.66,-1724.33 107.27,-1722.49 107.11,-1720.67 107.21,-1718.86 107.55,-1717.08 108.15,-1715.33 109.01,-1713.6 110.13,-1711.92 111.52,-1710.27 113.17,-1708.67 115.08,-1707.13 117.26,-1705.63 119.69,-1704.2 122.38,-1702.83 125.31,-1701.52 128.48,-1700.29 131.88,-1699.13 135.49,-1698.04 139.31,-1697.04 143.32,-1696.12 147.51,-1695.28 151.86,-1694.53 156.35,-1693.87 160.98,-1693.3 165.71,-1692.82 170.53,-1692.43 175.43,-1692.15 180.38,-1691.95 185.35,-1691.86 190.34,-1691.86 195.32,-1691.95"/>
<text text-anchor="start" x="158.68" y="-1736.89" font-family="Times,serif" font-size="14.00">C0038496</text>
<text text-anchor="start" x="142.15" y="-1722.89" font-family="Times,serif" font-size="14.00">nursing students</text>
<text text-anchor="start" x="171.9" y="-1708.89" font-family="Times,serif" font-size="14.00">24:25</text>
</g>
<!-- id_27336997_DOT_4&#45;&#45;id_27336997_DOT_6 -->
<g id="edge6" class="edge">
<title>id_27336997_DOT_4&#45;&#45;id_27336997_DOT_6</title>
<path fill="none" stroke="black" stroke-dasharray="1,5" d="M197.85,-1691.97C216.99,-1624.78 258.58,-1478.81 277.59,-1412.05"/>
<text text-anchor="middle" x="211.47" y="-1554.81" font-family="Times,serif" font-size="14.00">0.964348</text>
</g>
</g>
</svg>
