<?xml version="1.0" encoding="UTF-8" standalone="no"?>
<!DOCTYPE svg PUBLIC "-//W3C//DTD SVG 1.1//EN"
 "http://www.w3.org/Graphics/SVG/1.1/DTD/svg11.dtd">
<!-- Generated by graphviz version 2.42.3 (20191010.1750)
 -->
<!-- Title: MST Pages: 1 -->
<svg width="4852pt" height="2492pt"
 viewBox="0.00 0.00 4851.97 2492.01" xmlns="http://www.w3.org/2000/svg" xmlns:xlink="http://www.w3.org/1999/xlink">
<g id="graph0" class="graph" transform="scale(1 1) rotate(0) translate(4 2488.01)">
<title>MST</title>
<polygon fill="white" stroke="transparent" points="-4,4 -4,-2488.01 4847.97,-2488.01 4847.97,4 -4,4"/>
<!-- id_27390504_DOT_1 -->
<g id="node1" class="node">
<title>id_27390504_DOT_1</title>
<polygon fill="aquamarine" stroke="aquamarine" points="4096.96,-276.77 4102.07,-276.96 4107.13,-277.25 4112.11,-277.63 4117,-278.11 4121.78,-278.68 4126.42,-279.34 4130.91,-280.09 4135.24,-280.93 4139.38,-281.85 4143.33,-282.86 4147.06,-283.94 4150.57,-285.1 4153.84,-286.34 4156.87,-287.64 4159.64,-289.01 4162.15,-290.45 4164.4,-291.94 4166.38,-293.49 4168.09,-295.09 4169.52,-296.73 4170.68,-298.42 4171.57,-300.14 4172.19,-301.89 4172.54,-303.68 4172.64,-305.48 4172.48,-307.3 4172.07,-309.14 4171.43,-310.98 4170.56,-312.83 4169.47,-314.67 4168.18,-316.5 4166.68,-318.33 4164.99,-320.13 4163.13,-321.91 4161.11,-323.67 4158.92,-325.39 4156.6,-327.08 4154.15,-328.72 4151.57,-330.32 4148.88,-331.87 4146.1,-333.36 4143.22,-334.8 4140.27,-336.17 4137.24,-337.47 4134.15,-338.71 4131,-339.87 4127.81,-340.95 4124.57,-341.96 4121.3,-342.88 4118,-343.72 4114.67,-344.47 4111.32,-345.13 4107.95,-345.7 4104.57,-346.18 4101.17,-346.56 4097.77,-346.85 4094.36,-347.04 4090.95,-347.14 4087.54,-347.14 4084.13,-347.04 4080.72,-346.85 4077.32,-346.56 4073.93,-346.18 4070.55,-345.7 4067.18,-345.13 4063.83,-344.47 4060.5,-343.72 4057.2,-342.88 4053.92,-341.96 4050.69,-340.95 4047.49,-339.87 4044.34,-338.71 4041.25,-337.47 4038.23,-336.17 4035.27,-334.8 4032.4,-333.36 4029.61,-331.87 4026.92,-330.32 4024.35,-328.72 4021.89,-327.08 4019.57,-325.39 4017.39,-323.67 4015.36,-321.91 4013.5,-320.13 4011.82,-318.33 4010.32,-316.5 4009.02,-314.67 4007.93,-312.83 4007.06,-310.98 4006.42,-309.14 4006.02,-307.3 4005.86,-305.48 4005.95,-303.68 4006.31,-301.89 4006.93,-300.14 4007.82,-298.42 4008.98,-296.73 4010.41,-295.09 4012.11,-293.49 4014.09,-291.94 4016.34,-290.45 4018.85,-289.01 4021.63,-287.64 4024.65,-286.34 4027.93,-285.1 4031.44,-283.94 4035.17,-282.86 4039.11,-281.85 4043.26,-280.93 4047.58,-280.09 4052.08,-279.34 4056.72,-278.68 4061.49,-278.11 4066.38,-277.63 4071.37,-277.25 4076.42,-276.96 4081.53,-276.77 4086.67,-276.67 4091.82,-276.67 4096.96,-276.77"/>
<text text-anchor="start" x="4060.08" y="-321.7" font-family="Times,serif" font-size="14.00">C0015417</text>
<text text-anchor="start" x="4042.01" y="-307.7" font-family="Times,serif" font-size="14.00">ocular prosthesis</text>
<text text-anchor="start" x="4080.3" y="-293.7" font-family="Times,serif" font-size="14.00">1:2</text>
</g>
<!-- id_27390504_DOT_8 -->
<g id="node8" class="node">
<title>id_27390504_DOT_8</title>
<polygon fill="aquamarine" stroke="aquamarine" points="3755.48,-411.31 3760.59,-411.51 3765.64,-411.8 3770.63,-412.18 3775.51,-412.66 3780.29,-413.23 3784.93,-413.89 3789.43,-414.64 3793.75,-415.48 3797.9,-416.4 3801.84,-417.4 3805.57,-418.49 3809.08,-419.65 3812.35,-420.89 3815.38,-422.19 3818.15,-423.56 3820.67,-425 3822.92,-426.49 3824.89,-428.04 3826.6,-429.63 3828.03,-431.28 3829.19,-432.96 3830.08,-434.69 3830.7,-436.44 3831.05,-438.22 3831.15,-440.03 3830.99,-441.85 3830.59,-443.69 3829.95,-445.53 3829.08,-447.38 3827.99,-449.22 3826.69,-451.05 3825.19,-452.88 3823.51,-454.68 3821.65,-456.46 3819.62,-458.22 3817.44,-459.94 3815.11,-461.63 3812.66,-463.27 3810.08,-464.87 3807.4,-466.42 3804.61,-467.91 3801.74,-469.34 3798.78,-470.72 3795.75,-472.02 3792.66,-473.26 3789.52,-474.42 3786.32,-475.5 3783.09,-476.51 3779.81,-477.43 3776.51,-478.27 3773.18,-479.02 3769.83,-479.68 3766.46,-480.25 3763.08,-480.73 3759.69,-481.11 3756.28,-481.4 3752.88,-481.59 3749.47,-481.69 3746.06,-481.69 3742.64,-481.59 3739.24,-481.4 3735.84,-481.11 3732.44,-480.73 3729.06,-480.25 3725.69,-479.68 3722.34,-479.02 3719.01,-478.27 3715.71,-477.43 3712.44,-476.51 3709.2,-475.5 3706,-474.42 3702.86,-473.26 3699.77,-472.02 3696.74,-470.72 3693.78,-469.34 3690.91,-467.91 3688.12,-466.42 3685.44,-464.87 3682.86,-463.27 3680.41,-461.63 3678.08,-459.94 3675.9,-458.22 3673.88,-456.46 3672.01,-454.68 3670.33,-452.88 3668.83,-451.05 3667.53,-449.22 3666.45,-447.38 3665.58,-445.53 3664.93,-443.69 3664.53,-441.85 3664.37,-440.03 3664.47,-438.22 3664.82,-436.44 3665.44,-434.69 3666.33,-432.96 3667.49,-431.28 3668.92,-429.63 3670.63,-428.04 3672.61,-426.49 3674.85,-425 3677.37,-423.56 3680.14,-422.19 3683.17,-420.89 3686.44,-419.65 3689.95,-418.49 3693.68,-417.4 3697.63,-416.4 3701.77,-415.48 3706.1,-414.64 3710.59,-413.89 3715.23,-413.23 3720.01,-412.66 3724.9,-412.18 3729.88,-411.8 3734.94,-411.51 3740.04,-411.31 3745.19,-411.22 3750.34,-411.22 3755.48,-411.31"/>
<text text-anchor="start" x="3718.59" y="-456.25" font-family="Times,serif" font-size="14.00">C0015417</text>
<text text-anchor="start" x="3700.52" y="-442.25" font-family="Times,serif" font-size="14.00">ocular prosthesis</text>
<text text-anchor="start" x="3731.82" y="-428.25" font-family="Times,serif" font-size="14.00">41:42</text>
</g>
<!-- id_27390504_DOT_1&#45;&#45;id_27390504_DOT_8 -->
<g id="edge1" class="edge">
<title>id_27390504_DOT_1&#45;&#45;id_27390504_DOT_8</title>
<path fill="none" stroke="black" d="M4033.24,-333.97C3972.69,-357.83 3876.31,-395.8 3812.54,-420.93"/>
<text text-anchor="middle" x="3897.15" y="-380.25" font-family="Times,serif" font-size="14.00">0.001114</text>
</g>
<!-- id_27390504_DOT_13 -->
<g id="node13" class="node">
<title>id_27390504_DOT_13</title>
<polygon fill="aquamarine" stroke="aquamarine" points="4443.9,-162.89 4449.01,-163.09 4454.07,-163.37 4459.05,-163.76 4463.94,-164.24 4468.72,-164.81 4473.36,-165.47 4477.85,-166.22 4482.18,-167.06 4486.32,-167.98 4490.27,-168.98 4494,-170.07 4497.51,-171.23 4500.78,-172.46 4503.81,-173.77 4506.58,-175.14 4509.09,-176.57 4511.34,-178.07 4513.32,-179.61 4515.03,-181.21 4516.46,-182.86 4517.62,-184.54 4518.51,-186.27 4519.12,-188.02 4519.48,-189.8 4519.57,-191.61 4519.42,-193.43 4519.01,-195.27 4518.37,-197.11 4517.5,-198.95 4516.41,-200.8 4515.11,-202.63 4513.62,-204.45 4511.93,-206.26 4510.07,-208.04 4508.04,-209.8 4505.86,-211.52 4503.54,-213.21 4501.09,-214.85 4498.51,-216.45 4495.82,-218 4493.04,-219.49 4490.16,-220.92 4487.21,-222.29 4484.18,-223.6 4481.09,-224.83 4477.94,-226 4474.75,-227.08 4471.51,-228.08 4468.24,-229.01 4464.93,-229.85 4461.61,-230.6 4458.25,-231.26 4454.89,-231.83 4451.5,-232.31 4448.11,-232.69 4444.71,-232.98 4441.3,-233.17 4437.89,-233.27 4434.48,-233.27 4431.07,-233.17 4427.66,-232.98 4424.26,-232.69 4420.87,-232.31 4417.49,-231.83 4414.12,-231.26 4410.77,-230.6 4407.44,-229.85 4404.14,-229.01 4400.86,-228.08 4397.63,-227.08 4394.43,-226 4391.28,-224.83 4388.19,-223.6 4385.17,-222.29 4382.21,-220.92 4379.33,-219.49 4376.55,-218 4373.86,-216.45 4371.29,-214.85 4368.83,-213.21 4366.51,-211.52 4364.33,-209.8 4362.3,-208.04 4360.44,-206.26 4358.76,-204.45 4357.26,-202.63 4355.96,-200.8 4354.87,-198.95 4354,-197.11 4353.36,-195.27 4352.96,-193.43 4352.8,-191.61 4352.89,-189.8 4353.25,-188.02 4353.87,-186.27 4354.76,-184.54 4355.92,-182.86 4357.35,-181.21 4359.05,-179.61 4361.03,-178.07 4363.28,-176.57 4365.79,-175.14 4368.57,-173.77 4371.59,-172.46 4374.87,-171.23 4378.37,-170.07 4382.11,-168.98 4386.05,-167.98 4390.19,-167.06 4394.52,-166.22 4399.01,-165.47 4403.66,-164.81 4408.43,-164.24 4413.32,-163.76 4418.31,-163.37 4423.36,-163.09 4428.47,-162.89 4433.61,-162.8 4438.76,-162.8 4443.9,-162.89"/>
<text text-anchor="start" x="4407.02" y="-207.83" font-family="Times,serif" font-size="14.00">C0015417</text>
<text text-anchor="start" x="4388.95" y="-193.83" font-family="Times,serif" font-size="14.00">ocular prosthesis</text>
<text text-anchor="start" x="4420.24" y="-179.83" font-family="Times,serif" font-size="14.00">76:77</text>
</g>
<!-- id_27390504_DOT_1&#45;&#45;id_27390504_DOT_13 -->
<g id="edge2" class="edge">
<title>id_27390504_DOT_1&#45;&#45;id_27390504_DOT_13</title>
<path fill="none" stroke="black" d="M4159.46,-288.86C4223.01,-268 4315.65,-237.59 4375.92,-217.81"/>
<text text-anchor="middle" x="4241.44" y="-256.14" font-family="Times,serif" font-size="14.00">0.002995</text>
</g>
<!-- id_27390504_DOT_2 -->
<g id="node2" class="node">
<title>id_27390504_DOT_2</title>
<polygon fill="bisque" stroke="bisque" points="2599.09,-1760.03 2603.25,-1760.22 2607.38,-1760.51 2611.44,-1760.9 2615.43,-1761.37 2619.32,-1761.94 2623.11,-1762.61 2626.78,-1763.36 2630.3,-1764.19 2633.68,-1765.12 2636.9,-1766.12 2639.95,-1767.21 2642.81,-1768.37 2645.48,-1769.6 2647.94,-1770.91 2650.21,-1772.28 2652.26,-1773.71 2654.09,-1775.21 2655.7,-1776.75 2657.1,-1778.35 2658.26,-1780 2659.21,-1781.68 2659.93,-1783.4 2660.44,-1785.16 2660.73,-1786.94 2660.81,-1788.75 2660.68,-1790.57 2660.35,-1792.4 2659.82,-1794.25 2659.12,-1796.09 2658.23,-1797.94 2657.17,-1799.77 2655.95,-1801.59 2654.57,-1803.4 2653.05,-1805.18 2651.4,-1806.94 2649.62,-1808.66 2647.73,-1810.34 2645.73,-1811.99 2643.62,-1813.59 2641.43,-1815.13 2639.16,-1816.63 2636.82,-1818.06 2634.41,-1819.43 2631.94,-1820.74 2629.42,-1821.97 2626.85,-1823.13 2624.24,-1824.22 2621.6,-1825.22 2618.94,-1826.15 2616.24,-1826.98 2613.53,-1827.73 2610.79,-1828.4 2608.05,-1828.97 2605.29,-1829.44 2602.52,-1829.83 2599.75,-1830.12 2596.97,-1830.31 2594.19,-1830.41 2591.4,-1830.41 2588.62,-1830.31 2585.84,-1830.12 2583.07,-1829.83 2580.3,-1829.44 2577.54,-1828.97 2574.8,-1828.4 2572.06,-1827.73 2569.35,-1826.98 2566.65,-1826.15 2563.98,-1825.22 2561.34,-1824.22 2558.74,-1823.13 2556.17,-1821.97 2553.65,-1820.74 2551.18,-1819.43 2548.77,-1818.06 2546.43,-1816.63 2544.15,-1815.13 2541.96,-1813.59 2539.86,-1811.99 2537.86,-1810.34 2535.96,-1808.66 2534.19,-1806.94 2532.53,-1805.18 2531.01,-1803.4 2529.64,-1801.59 2528.42,-1799.77 2527.36,-1797.94 2526.47,-1796.09 2525.76,-1794.25 2525.24,-1792.4 2524.91,-1790.57 2524.78,-1788.75 2524.86,-1786.94 2525.15,-1785.16 2525.65,-1783.4 2526.38,-1781.68 2527.32,-1780 2528.49,-1778.35 2529.88,-1776.75 2531.5,-1775.21 2533.33,-1773.71 2535.38,-1772.28 2537.64,-1770.91 2540.11,-1769.6 2542.78,-1768.37 2545.64,-1767.21 2548.69,-1766.12 2551.9,-1765.12 2555.28,-1764.19 2558.81,-1763.36 2562.48,-1762.61 2566.26,-1761.94 2570.16,-1761.37 2574.15,-1760.9 2578.21,-1760.51 2582.33,-1760.22 2586.5,-1760.03 2590.69,-1759.93 2594.89,-1759.93 2599.09,-1760.03"/>
<text text-anchor="start" x="2563.62" y="-1804.97" font-family="Times,serif" font-size="14.00">C0034991</text>
<text text-anchor="start" x="2555.47" y="-1790.97" font-family="Times,serif" font-size="14.00">rehabilitation</text>
<text text-anchor="start" x="2583.85" y="-1776.97" font-family="Times,serif" font-size="14.00">4:4</text>
</g>
<!-- id_27390504_DOT_20 -->
<g id="node20" class="node">
<title>id_27390504_DOT_20</title>
<polygon fill="bisque" stroke="bisque" points="2268.59,-1634.06 2272.75,-1634.26 2276.88,-1634.55 2280.94,-1634.93 2284.93,-1635.41 2288.82,-1635.98 2292.61,-1636.64 2296.27,-1637.39 2299.8,-1638.23 2303.18,-1639.15 2306.4,-1640.16 2309.44,-1641.24 2312.3,-1642.4 2314.97,-1643.64 2317.44,-1644.94 2319.71,-1646.31 2321.76,-1647.75 2323.59,-1649.24 2325.2,-1650.79 2326.59,-1652.38 2327.76,-1654.03 2328.71,-1655.71 2329.43,-1657.44 2329.94,-1659.19 2330.23,-1660.98 2330.3,-1662.78 2330.18,-1664.6 2329.85,-1666.44 2329.32,-1668.28 2328.61,-1670.13 2327.73,-1671.97 2326.67,-1673.8 2325.45,-1675.63 2324.07,-1677.43 2322.55,-1679.21 2320.9,-1680.97 2319.12,-1682.69 2317.23,-1684.38 2315.22,-1686.02 2313.12,-1687.62 2310.93,-1689.17 2308.66,-1690.66 2306.32,-1692.1 2303.9,-1693.47 2301.44,-1694.77 2298.91,-1696.01 2296.35,-1697.17 2293.74,-1698.25 2291.1,-1699.26 2288.43,-1700.18 2285.74,-1701.02 2283.02,-1701.77 2280.29,-1702.43 2277.54,-1703 2274.79,-1703.48 2272.02,-1703.86 2269.24,-1704.15 2266.47,-1704.34 2263.68,-1704.44 2260.9,-1704.44 2258.12,-1704.34 2255.34,-1704.15 2252.57,-1703.86 2249.8,-1703.48 2247.04,-1703 2244.29,-1702.43 2241.56,-1701.77 2238.85,-1701.02 2236.15,-1700.18 2233.48,-1699.26 2230.84,-1698.25 2228.24,-1697.17 2225.67,-1696.01 2223.15,-1694.77 2220.68,-1693.47 2218.27,-1692.1 2215.92,-1690.66 2213.65,-1689.17 2211.46,-1687.62 2209.36,-1686.02 2207.36,-1684.38 2205.46,-1682.69 2203.68,-1680.97 2202.03,-1679.21 2200.51,-1677.43 2199.14,-1675.63 2197.92,-1673.8 2196.86,-1671.97 2195.97,-1670.13 2195.26,-1668.28 2194.74,-1666.44 2194.41,-1664.6 2194.28,-1662.78 2194.36,-1660.98 2194.65,-1659.19 2195.15,-1657.44 2195.88,-1655.71 2196.82,-1654.03 2197.99,-1652.38 2199.38,-1650.79 2201,-1649.24 2202.83,-1647.75 2204.88,-1646.31 2207.14,-1644.94 2209.61,-1643.64 2212.28,-1642.4 2215.14,-1641.24 2218.19,-1640.16 2221.4,-1639.15 2224.78,-1638.23 2228.31,-1637.39 2231.97,-1636.64 2235.76,-1635.98 2239.66,-1635.41 2243.64,-1634.93 2247.71,-1634.55 2251.83,-1634.26 2256,-1634.06 2260.19,-1633.97 2264.39,-1633.97 2268.59,-1634.06"/>
<text text-anchor="start" x="2233.12" y="-1679" font-family="Times,serif" font-size="14.00">C0034991</text>
<text text-anchor="start" x="2224.97" y="-1665" font-family="Times,serif" font-size="14.00">rehabilitation</text>
<text text-anchor="start" x="2239.86" y="-1651" font-family="Times,serif" font-size="14.00">114:114</text>
</g>
<!-- id_27390504_DOT_2&#45;&#45;id_27390504_DOT_20 -->
<g id="edge3" class="edge">
<title>id_27390504_DOT_2&#45;&#45;id_27390504_DOT_20</title>
<path fill="none" stroke="black" d="M2534.09,-1772.79C2471.02,-1748.76 2371.86,-1710.96 2312.35,-1688.28"/>
<text text-anchor="middle" x="2396.97" y="-1733.34" font-family="Times,serif" font-size="14.00">0.021339</text>
</g>
<!-- id_27390504_DOT_3 -->
<g id="node3" class="node">
<title>id_27390504_DOT_3</title>
<polygon fill="blue" stroke="blue" points="449.38,-997.9 453.97,-998.09 458.52,-998.38 462.99,-998.76 467.38,-999.24 471.67,-999.81 475.84,-1000.47 479.88,-1001.22 483.76,-1002.06 487.49,-1002.98 491.03,-1003.99 494.38,-1005.07 497.53,-1006.23 500.47,-1007.47 503.19,-1008.77 505.68,-1010.15 507.94,-1011.58 509.96,-1013.07 511.74,-1014.62 513.27,-1016.22 514.56,-1017.86 515.6,-1019.55 516.39,-1021.27 516.95,-1023.03 517.27,-1024.81 517.35,-1026.61 517.21,-1028.44 516.85,-1030.27 516.27,-1032.11 515.49,-1033.96 514.52,-1035.8 513.35,-1037.64 512,-1039.46 510.49,-1041.27 508.82,-1043.05 507,-1044.8 505.04,-1046.53 502.95,-1048.21 500.75,-1049.86 498.43,-1051.45 496.02,-1053 493.52,-1054.49 490.94,-1055.93 488.28,-1057.3 485.56,-1058.6 482.79,-1059.84 479.96,-1061 477.09,-1062.09 474.18,-1063.09 471.24,-1064.01 468.28,-1064.85 465.29,-1065.6 462.28,-1066.26 459.25,-1066.83 456.21,-1067.31 453.16,-1067.69 450.11,-1067.98 447.05,-1068.18 443.99,-1068.27 440.92,-1068.27 437.86,-1068.18 434.8,-1067.98 431.74,-1067.69 428.69,-1067.31 425.66,-1066.83 422.63,-1066.26 419.62,-1065.6 416.63,-1064.85 413.66,-1064.01 410.72,-1063.09 407.82,-1062.09 404.95,-1061 402.12,-1059.84 399.35,-1058.6 396.63,-1057.3 393.97,-1055.93 391.39,-1054.49 388.89,-1053 386.47,-1051.45 384.16,-1049.86 381.96,-1048.21 379.87,-1046.53 377.91,-1044.8 376.09,-1043.05 374.42,-1041.27 372.9,-1039.46 371.56,-1037.64 370.39,-1035.8 369.41,-1033.96 368.63,-1032.11 368.06,-1030.27 367.69,-1028.44 367.55,-1026.61 367.64,-1024.81 367.96,-1023.03 368.51,-1021.27 369.31,-1019.55 370.35,-1017.86 371.64,-1016.22 373.17,-1014.62 374.95,-1013.07 376.97,-1011.58 379.22,-1010.15 381.72,-1008.77 384.44,-1007.47 387.37,-1006.23 390.53,-1005.07 393.88,-1003.99 397.42,-1002.98 401.14,-1002.06 405.03,-1001.22 409.06,-1000.47 413.24,-999.81 417.53,-999.24 421.92,-998.76 426.39,-998.38 430.93,-998.09 435.52,-997.9 440.14,-997.8 444.77,-997.8 449.38,-997.9"/>
<text text-anchor="start" x="413.28" y="-1042.84" font-family="Times,serif" font-size="14.00">C0035335</text>
<text text-anchor="start" x="400.85" y="-1028.84" font-family="Times,serif" font-size="14.00">retinoblastoma</text>
<text text-anchor="start" x="426.51" y="-1014.84" font-family="Times,serif" font-size="14.00">10:10</text>
</g>
<!-- id_27390504_DOT_7 -->
<g id="node7" class="node">
<title>id_27390504_DOT_7</title>
<polygon fill="brown" stroke="brown" points="101.11,-890.18 106.78,-890.38 112.4,-890.66 117.93,-891.05 123.36,-891.53 128.66,-892.1 133.81,-892.76 138.8,-893.51 143.61,-894.35 148.2,-895.27 152.58,-896.27 156.73,-897.36 160.62,-898.52 164.26,-899.75 167.62,-901.06 170.7,-902.43 173.49,-903.86 175.98,-905.36 178.18,-906.91 180.07,-908.5 181.67,-910.15 182.95,-911.83 183.94,-913.56 184.63,-915.31 185.02,-917.09 185.13,-918.9 184.95,-920.72 184.5,-922.56 183.79,-924.4 182.82,-926.24 181.62,-928.09 180.17,-929.92 178.51,-931.75 176.64,-933.55 174.57,-935.33 172.32,-937.09 169.9,-938.81 167.32,-940.5 164.6,-942.14 161.74,-943.74 158.76,-945.29 155.66,-946.78 152.47,-948.21 149.19,-949.58 145.83,-950.89 142.4,-952.12 138.9,-953.29 135.36,-954.37 131.76,-955.38 128.13,-956.3 124.46,-957.14 120.76,-957.89 117.04,-958.55 113.3,-959.12 109.55,-959.6 105.78,-959.98 102,-960.27 98.22,-960.46 94.44,-960.56 90.65,-960.56 86.86,-960.46 83.08,-960.27 79.3,-959.98 75.53,-959.6 71.78,-959.12 68.04,-958.55 64.32,-957.89 60.62,-957.14 56.96,-956.3 53.32,-955.38 49.73,-954.37 46.18,-953.29 42.69,-952.12 39.26,-950.89 35.89,-949.58 32.61,-948.21 29.42,-946.78 26.33,-945.29 23.35,-943.74 20.49,-942.14 17.76,-940.5 15.18,-938.81 12.76,-937.09 10.51,-935.33 8.44,-933.55 6.57,-931.75 4.91,-929.92 3.47,-928.09 2.26,-926.24 1.29,-924.4 0.58,-922.56 0.13,-920.72 -0.04,-918.9 0.06,-917.09 0.46,-915.31 1.15,-913.56 2.13,-911.83 3.42,-910.15 5.01,-908.5 6.9,-906.91 9.1,-905.36 11.59,-903.86 14.39,-902.43 17.46,-901.06 20.83,-899.75 24.46,-898.52 28.35,-897.36 32.5,-896.27 36.88,-895.27 41.48,-894.35 46.28,-893.51 51.27,-892.76 56.43,-892.1 61.73,-891.53 67.16,-891.05 72.69,-890.66 78.3,-890.38 83.97,-890.18 89.68,-890.09 95.4,-890.09 101.11,-890.18"/>
<text text-anchor="start" x="63.63" y="-935.12" font-family="Times,serif" font-size="14.00">C0003119</text>
<text text-anchor="start" x="39.1" y="-921.12" font-family="Times,serif" font-size="14.00">anopthalmic defect</text>
<text text-anchor="start" x="76.6" y="-907.12" font-family="Times,serif" font-size="14.00">32:33</text>
</g>
<!-- id_27390504_DOT_3&#45;&#45;id_27390504_DOT_7 -->
<g id="edge9" class="edge">
<title>id_27390504_DOT_3&#45;&#45;id_27390504_DOT_7</title>
<path fill="none" stroke="black" stroke-dasharray="1,5" d="M375.4,-1012.4C312.99,-993.18 220.53,-964.72 158.48,-945.62"/>
<text text-anchor="middle" x="240.69" y="-981.81" font-family="Times,serif" font-size="14.00">0.940630</text>
</g>
<!-- id_27390504_DOT_19 -->
<g id="node19" class="node">
<title>id_27390504_DOT_19</title>
<polygon fill="blue" stroke="blue" points="801.04,-1114.58 805.63,-1114.78 810.17,-1115.07 814.65,-1115.45 819.04,-1115.93 823.33,-1116.5 827.5,-1117.16 831.53,-1117.91 835.42,-1118.75 839.14,-1119.67 842.68,-1120.67 846.04,-1121.76 849.19,-1122.92 852.13,-1124.16 854.85,-1125.46 857.34,-1126.83 859.6,-1128.27 861.61,-1129.76 863.39,-1131.31 864.92,-1132.9 866.21,-1134.55 867.25,-1136.23 868.05,-1137.96 868.61,-1139.71 868.92,-1141.49 869.01,-1143.3 868.87,-1145.12 868.51,-1146.96 867.93,-1148.8 867.15,-1150.65 866.17,-1152.49 865,-1154.32 863.66,-1156.15 862.15,-1157.95 860.47,-1159.73 858.65,-1161.49 856.69,-1163.21 854.61,-1164.9 852.4,-1166.54 850.09,-1168.14 847.68,-1169.69 845.17,-1171.18 842.59,-1172.61 839.94,-1173.99 837.22,-1175.29 834.44,-1176.53 831.61,-1177.69 828.75,-1178.77 825.84,-1179.78 822.9,-1180.7 819.93,-1181.54 816.94,-1182.29 813.93,-1182.95 810.91,-1183.52 807.87,-1184 804.82,-1184.38 801.76,-1184.67 798.7,-1184.86 795.64,-1184.96 792.58,-1184.96 789.51,-1184.86 786.45,-1184.67 783.4,-1184.38 780.35,-1184 777.31,-1183.52 774.29,-1182.95 771.28,-1182.29 768.29,-1181.54 765.32,-1180.7 762.38,-1179.78 759.47,-1178.77 756.6,-1177.69 753.78,-1176.53 751,-1175.29 748.28,-1173.99 745.63,-1172.61 743.04,-1171.18 740.54,-1169.69 738.13,-1168.14 735.82,-1166.54 733.61,-1164.9 731.52,-1163.21 729.56,-1161.49 727.74,-1159.73 726.07,-1157.95 724.56,-1156.15 723.21,-1154.32 722.05,-1152.49 721.07,-1150.65 720.29,-1148.8 719.71,-1146.96 719.35,-1145.12 719.21,-1143.3 719.29,-1141.49 719.61,-1139.71 720.17,-1137.96 720.97,-1136.23 722.01,-1134.55 723.29,-1132.9 724.83,-1131.31 726.6,-1129.76 728.62,-1128.27 730.88,-1126.83 733.37,-1125.46 736.09,-1124.16 739.03,-1122.92 742.18,-1121.76 745.53,-1120.67 749.08,-1119.67 752.8,-1118.75 756.68,-1117.91 760.72,-1117.16 764.89,-1116.5 769.18,-1115.93 773.57,-1115.45 778.05,-1115.07 782.59,-1114.78 787.18,-1114.58 791.8,-1114.49 796.42,-1114.49 801.04,-1114.58"/>
<text text-anchor="start" x="764.94" y="-1159.52" font-family="Times,serif" font-size="14.00">C0035335</text>
<text text-anchor="start" x="752.51" y="-1145.52" font-family="Times,serif" font-size="14.00">retinoblastoma</text>
<text text-anchor="start" x="771.16" y="-1131.52" font-family="Times,serif" font-size="14.00">109:109</text>
</g>
<!-- id_27390504_DOT_3&#45;&#45;id_27390504_DOT_19 -->
<g id="edge4" class="edge">
<title>id_27390504_DOT_3&#45;&#45;id_27390504_DOT_19</title>
<path fill="none" stroke="black" d="M498.56,-1051.66C561.2,-1072.44 662.43,-1106.03 728.63,-1128"/>
<text text-anchor="middle" x="587.35" y="-1092.63" font-family="Times,serif" font-size="14.00">0.131260</text>
</g>
<!-- id_27390504_DOT_4 -->
<g id="node4" class="node">
<title>id_27390504_DOT_4</title>
<polygon fill="blueviolet" stroke="blueviolet" points="1658.1,-2030.33 1665.21,-2030.52 1672.23,-2030.81 1679.16,-2031.19 1685.96,-2031.67 1692.6,-2032.24 1699.05,-2032.9 1705.3,-2033.65 1711.31,-2034.49 1717.07,-2035.41 1722.56,-2036.42 1727.75,-2037.5 1732.62,-2038.67 1737.17,-2039.9 1741.38,-2041.21 1745.24,-2042.58 1748.73,-2044.01 1751.86,-2045.5 1754.61,-2047.05 1756.98,-2048.65 1758.97,-2050.29 1760.58,-2051.98 1761.82,-2053.7 1762.68,-2055.46 1763.17,-2057.24 1763.3,-2059.04 1763.08,-2060.87 1762.52,-2062.7 1761.63,-2064.55 1760.42,-2066.39 1758.91,-2068.23 1757.1,-2070.07 1755.02,-2071.89 1752.68,-2073.7 1750.09,-2075.48 1747.27,-2077.23 1744.24,-2078.96 1741.01,-2080.64 1737.6,-2082.29 1734.02,-2083.88 1730.28,-2085.43 1726.41,-2086.93 1722.41,-2088.36 1718.31,-2089.73 1714.1,-2091.04 1709.8,-2092.27 1705.43,-2093.43 1700.98,-2094.52 1696.48,-2095.52 1691.93,-2096.44 1687.34,-2097.28 1682.71,-2098.03 1678.05,-2098.69 1673.37,-2099.26 1668.67,-2099.74 1663.95,-2100.13 1659.22,-2100.41 1654.49,-2100.61 1649.75,-2100.7 1645,-2100.7 1640.26,-2100.61 1635.53,-2100.41 1630.8,-2100.13 1626.08,-2099.74 1621.38,-2099.26 1616.7,-2098.69 1612.04,-2098.03 1607.41,-2097.28 1602.82,-2096.44 1598.27,-2095.52 1593.77,-2094.52 1589.33,-2093.43 1584.95,-2092.27 1580.65,-2091.04 1576.45,-2089.73 1572.34,-2088.36 1568.34,-2086.93 1564.47,-2085.43 1560.73,-2083.88 1557.15,-2082.29 1553.74,-2080.64 1550.51,-2078.96 1547.48,-2077.23 1544.66,-2075.48 1542.07,-2073.7 1539.73,-2071.89 1537.65,-2070.07 1535.84,-2068.23 1534.33,-2066.39 1533.12,-2064.55 1532.23,-2062.7 1531.67,-2060.87 1531.45,-2059.04 1531.58,-2057.24 1532.07,-2055.46 1532.94,-2053.7 1534.17,-2051.98 1535.78,-2050.29 1537.77,-2048.65 1540.14,-2047.05 1542.89,-2045.5 1546.02,-2044.01 1549.51,-2042.58 1553.37,-2041.21 1557.58,-2039.9 1562.13,-2038.67 1567.01,-2037.5 1572.19,-2036.42 1577.68,-2035.41 1583.44,-2034.49 1589.45,-2033.65 1595.7,-2032.9 1602.15,-2032.24 1608.79,-2031.67 1615.59,-2031.19 1622.52,-2030.81 1629.55,-2030.52 1636.65,-2030.33 1643.79,-2030.23 1650.96,-2030.23 1658.1,-2030.33"/>
<text text-anchor="start" x="1618.21" y="-2075.27" font-family="Times,serif" font-size="14.00">C1610129</text>
<text text-anchor="start" x="1578.38" y="-2061.27" font-family="Times,serif" font-size="14.00">management of a patient</text>
<text text-anchor="start" x="1631.43" y="-2047.27" font-family="Times,serif" font-size="14.00">21:24</text>
</g>
<!-- id_27390504_DOT_6 -->
<g id="node6" class="node">
<title>id_27390504_DOT_6</title>
<polygon fill="cadetblue" stroke="cadetblue" points="1842.87,-1651.99 1849.66,-1652.18 1856.39,-1652.47 1863.02,-1652.85 1869.52,-1653.33 1875.87,-1653.9 1882.05,-1654.56 1888.02,-1655.31 1893.78,-1656.15 1899.29,-1657.07 1904.53,-1658.08 1909.5,-1659.16 1914.17,-1660.33 1918.52,-1661.56 1922.55,-1662.87 1926.24,-1664.24 1929.58,-1665.67 1932.57,-1667.16 1935.2,-1668.71 1937.47,-1670.31 1939.37,-1671.95 1940.92,-1673.64 1942.1,-1675.36 1942.92,-1677.12 1943.39,-1678.9 1943.52,-1680.7 1943.31,-1682.53 1942.77,-1684.36 1941.92,-1686.21 1940.76,-1688.05 1939.31,-1689.89 1937.59,-1691.73 1935.6,-1693.55 1933.35,-1695.36 1930.88,-1697.14 1928.18,-1698.89 1925.28,-1700.62 1922.19,-1702.3 1918.93,-1703.95 1915.5,-1705.55 1911.93,-1707.09 1908.22,-1708.59 1904.4,-1710.02 1900.47,-1711.39 1896.44,-1712.7 1892.33,-1713.93 1888.14,-1715.09 1883.89,-1716.18 1879.59,-1717.18 1875.24,-1718.1 1870.84,-1718.94 1866.41,-1719.69 1861.96,-1720.35 1857.48,-1720.92 1852.98,-1721.4 1848.46,-1721.79 1843.94,-1722.07 1839.41,-1722.27 1834.87,-1722.36 1830.33,-1722.36 1825.8,-1722.27 1821.27,-1722.07 1816.74,-1721.79 1812.23,-1721.4 1807.73,-1720.92 1803.25,-1720.35 1798.79,-1719.69 1794.37,-1718.94 1789.97,-1718.1 1785.62,-1717.18 1781.31,-1716.18 1777.06,-1715.09 1772.88,-1713.93 1768.77,-1712.7 1764.74,-1711.39 1760.81,-1710.02 1756.98,-1708.59 1753.28,-1707.09 1749.71,-1705.55 1746.28,-1703.95 1743.01,-1702.3 1739.92,-1700.62 1737.02,-1698.89 1734.33,-1697.14 1731.85,-1695.36 1729.61,-1693.55 1727.62,-1691.73 1725.89,-1689.89 1724.44,-1688.05 1723.29,-1686.21 1722.43,-1684.36 1721.9,-1682.53 1721.69,-1680.7 1721.81,-1678.9 1722.29,-1677.12 1723.11,-1675.36 1724.29,-1673.64 1725.83,-1671.95 1727.74,-1670.31 1730.01,-1668.71 1732.64,-1667.16 1735.63,-1665.67 1738.97,-1664.24 1742.66,-1662.87 1746.69,-1661.56 1751.04,-1660.33 1755.71,-1659.16 1760.67,-1658.08 1765.92,-1657.07 1771.43,-1656.15 1777.18,-1655.31 1783.16,-1654.56 1789.34,-1653.9 1795.69,-1653.33 1802.19,-1652.85 1808.82,-1652.47 1815.54,-1652.18 1822.34,-1651.99 1829.18,-1651.89 1836.03,-1651.89 1842.87,-1651.99"/>
<text text-anchor="start" x="1803.95" y="-1696.93" font-family="Times,serif" font-size="14.00">C0087111</text>
<text text-anchor="start" x="1767.09" y="-1682.93" font-family="Times,serif" font-size="14.00">Prosthetic management</text>
<text text-anchor="start" x="1816.66" y="-1668.93" font-family="Times,serif" font-size="14.00">28:29</text>
</g>
<!-- id_27390504_DOT_4&#45;&#45;id_27390504_DOT_6 -->
<g id="edge5" class="edge">
<title>id_27390504_DOT_4&#45;&#45;id_27390504_DOT_6</title>
<path fill="none" stroke="black" d="M1664.64,-2030.21C1700.02,-1957.94 1780.41,-1793.73 1815.59,-1721.88"/>
<text text-anchor="middle" x="1713.86" y="-1878.85" font-family="Times,serif" font-size="14.00">0.203370</text>
</g>
<!-- id_27390504_DOT_14 -->
<g id="node14" class="node">
<title>id_27390504_DOT_14</title>
<polygon fill="crimson" stroke="crimson" points="1493.19,-2392.01 1496.75,-2392.2 1500.26,-2392.49 1503.73,-2392.87 1507.13,-2393.35 1510.45,-2393.92 1513.68,-2394.58 1516.8,-2395.33 1519.81,-2396.17 1522.69,-2397.09 1525.44,-2398.1 1528.03,-2399.18 1530.47,-2400.34 1532.75,-2401.58 1534.85,-2402.88 1536.78,-2404.26 1538.53,-2405.69 1540.09,-2407.18 1541.47,-2408.73 1542.66,-2410.33 1543.65,-2411.97 1544.46,-2413.66 1545.08,-2415.38 1545.51,-2417.14 1545.75,-2418.92 1545.82,-2420.72 1545.71,-2422.55 1545.43,-2424.38 1544.98,-2426.22 1544.38,-2428.07 1543.62,-2429.91 1542.72,-2431.75 1541.68,-2433.57 1540.51,-2435.38 1539.21,-2437.16 1537.8,-2438.91 1536.29,-2440.64 1534.67,-2442.32 1532.96,-2443.97 1531.17,-2445.56 1529.3,-2447.11 1527.37,-2448.6 1525.37,-2450.04 1523.31,-2451.41 1521.21,-2452.72 1519.06,-2453.95 1516.87,-2455.11 1514.65,-2456.2 1512.39,-2457.2 1510.12,-2458.12 1507.82,-2458.96 1505.51,-2459.71 1503.18,-2460.37 1500.83,-2460.94 1498.48,-2461.42 1496.12,-2461.8 1493.76,-2462.09 1491.39,-2462.29 1489.01,-2462.38 1486.64,-2462.38 1484.27,-2462.29 1481.9,-2462.09 1479.54,-2461.8 1477.18,-2461.42 1474.82,-2460.94 1472.48,-2460.37 1470.15,-2459.71 1467.84,-2458.96 1465.54,-2458.12 1463.26,-2457.2 1461.01,-2456.2 1458.79,-2455.11 1456.6,-2453.95 1454.45,-2452.72 1452.35,-2451.41 1450.29,-2450.04 1448.29,-2448.6 1446.35,-2447.11 1444.49,-2445.56 1442.69,-2443.97 1440.99,-2442.32 1439.37,-2440.64 1437.85,-2438.91 1436.44,-2437.16 1435.15,-2435.38 1433.98,-2433.57 1432.94,-2431.75 1432.03,-2429.91 1431.28,-2428.07 1430.67,-2426.22 1430.23,-2424.38 1429.95,-2422.55 1429.84,-2420.72 1429.9,-2418.92 1430.15,-2417.14 1430.58,-2415.38 1431.2,-2413.66 1432,-2411.97 1433,-2410.33 1434.19,-2408.73 1435.56,-2407.18 1437.12,-2405.69 1438.87,-2404.26 1440.8,-2402.88 1442.91,-2401.58 1445.18,-2400.34 1447.62,-2399.18 1450.22,-2398.1 1452.96,-2397.09 1455.84,-2396.17 1458.85,-2395.33 1461.98,-2394.58 1465.21,-2393.92 1468.53,-2393.35 1471.93,-2392.87 1475.39,-2392.49 1478.91,-2392.2 1482.46,-2392.01 1486.04,-2391.91 1489.62,-2391.91 1493.19,-2392.01"/>
<text text-anchor="start" x="1458.66" y="-2436.95" font-family="Times,serif" font-size="14.00">C0007320</text>
<text text-anchor="start" x="1457.32" y="-2422.95" font-family="Times,serif" font-size="14.00">case report</text>
<text text-anchor="start" x="1471.88" y="-2408.95" font-family="Times,serif" font-size="14.00">84:85</text>
</g>
<!-- id_27390504_DOT_4&#45;&#45;id_27390504_DOT_14 -->
<g id="edge10" class="edge">
<title>id_27390504_DOT_4&#45;&#45;id_27390504_DOT_14</title>
<path fill="none" stroke="black" stroke-dasharray="1,5" d="M1631.93,-2100.48C1601.35,-2169.79 1533.44,-2323.75 1503.05,-2392.65"/>
<text text-anchor="middle" x="1541.24" y="-2249.36" font-family="Times,serif" font-size="14.00">0.892150</text>
</g>
<!-- id_27390504_DOT_5 -->
<g id="node5" class="node">
<title>id_27390504_DOT_5</title>
<polygon fill="brown" stroke="brown" points="1157.7,-1237.53 1162.17,-1237.72 1166.59,-1238.01 1170.95,-1238.4 1175.22,-1238.87 1179.4,-1239.44 1183.46,-1240.11 1187.39,-1240.86 1191.17,-1241.69 1194.79,-1242.62 1198.24,-1243.62 1201.5,-1244.71 1204.57,-1245.87 1207.43,-1247.1 1210.08,-1248.41 1212.51,-1249.78 1214.7,-1251.21 1216.67,-1252.71 1218.4,-1254.25 1219.89,-1255.85 1221.14,-1257.5 1222.16,-1259.18 1222.93,-1260.9 1223.47,-1262.66 1223.78,-1264.44 1223.87,-1266.25 1223.73,-1268.07 1223.38,-1269.91 1222.82,-1271.75 1222.06,-1273.59 1221.1,-1275.44 1219.97,-1277.27 1218.66,-1279.09 1217.19,-1280.9 1215.56,-1282.68 1213.79,-1284.44 1211.88,-1286.16 1209.85,-1287.84 1207.7,-1289.49 1205.45,-1291.09 1203.1,-1292.63 1200.67,-1294.13 1198.15,-1295.56 1195.57,-1296.93 1192.92,-1298.24 1190.22,-1299.47 1187.47,-1300.63 1184.67,-1301.72 1181.84,-1302.72 1178.98,-1303.65 1176.09,-1304.48 1173.18,-1305.23 1170.25,-1305.9 1167.31,-1306.47 1164.35,-1306.94 1161.38,-1307.33 1158.41,-1307.62 1155.43,-1307.81 1152.45,-1307.91 1149.47,-1307.91 1146.48,-1307.81 1143.5,-1307.62 1140.53,-1307.33 1137.56,-1306.94 1134.61,-1306.47 1131.66,-1305.9 1128.73,-1305.23 1125.82,-1304.48 1122.93,-1303.65 1120.07,-1302.72 1117.24,-1301.72 1114.45,-1300.63 1111.7,-1299.47 1108.99,-1298.24 1106.35,-1296.93 1103.76,-1295.56 1101.25,-1294.13 1098.81,-1292.63 1096.46,-1291.09 1094.21,-1289.49 1092.07,-1287.84 1090.03,-1286.16 1088.13,-1284.44 1086.36,-1282.68 1084.73,-1280.9 1083.25,-1279.09 1081.95,-1277.27 1080.81,-1275.44 1079.86,-1273.59 1079.1,-1271.75 1078.54,-1269.91 1078.18,-1268.07 1078.05,-1266.25 1078.13,-1264.44 1078.44,-1262.66 1078.98,-1260.9 1079.76,-1259.18 1080.77,-1257.5 1082.02,-1255.85 1083.52,-1254.25 1085.24,-1252.71 1087.21,-1251.21 1089.41,-1249.78 1091.83,-1248.41 1094.48,-1247.1 1097.34,-1245.87 1100.41,-1244.71 1103.67,-1243.62 1107.12,-1242.62 1110.74,-1241.69 1114.53,-1240.86 1118.46,-1240.11 1122.52,-1239.44 1126.69,-1238.87 1130.97,-1238.4 1135.32,-1238.01 1139.74,-1237.72 1144.21,-1237.53 1148.7,-1237.44 1153.21,-1237.44 1157.7,-1237.53"/>
<text text-anchor="start" x="1122.04" y="-1282.47" font-family="Times,serif" font-size="14.00">C0003119</text>
<text text-anchor="start" x="1110.52" y="-1268.47" font-family="Times,serif" font-size="14.00">anopthalmosis</text>
<text text-anchor="start" x="1135.01" y="-1254.47" font-family="Times,serif" font-size="14.00">26:26</text>
</g>
<!-- id_27390504_DOT_18 -->
<g id="node18" class="node">
<title>id_27390504_DOT_18</title>
<polygon fill="darkgoldenrod" stroke="darkgoldenrod" points="1508.48,-1404.22 1512.21,-1404.41 1515.89,-1404.7 1519.52,-1405.08 1523.09,-1405.56 1526.57,-1406.13 1529.95,-1406.79 1533.23,-1407.54 1536.38,-1408.38 1539.4,-1409.3 1542.27,-1410.31 1544.99,-1411.39 1547.55,-1412.55 1549.93,-1413.79 1552.14,-1415.09 1554.16,-1416.46 1555.99,-1417.9 1557.63,-1419.39 1559.07,-1420.94 1560.32,-1422.54 1561.36,-1424.18 1562.21,-1425.87 1562.85,-1427.59 1563.3,-1429.35 1563.56,-1431.13 1563.63,-1432.93 1563.52,-1434.76 1563.22,-1436.59 1562.76,-1438.43 1562.12,-1440.28 1561.33,-1442.12 1560.38,-1443.96 1559.29,-1445.78 1558.06,-1447.58 1556.71,-1449.37 1555.23,-1451.12 1553.64,-1452.84 1551.95,-1454.53 1550.16,-1456.17 1548.28,-1457.77 1546.32,-1459.32 1544.29,-1460.81 1542.2,-1462.25 1540.04,-1463.62 1537.84,-1464.92 1535.58,-1466.16 1533.29,-1467.32 1530.96,-1468.4 1528.6,-1469.41 1526.22,-1470.33 1523.81,-1471.17 1521.38,-1471.92 1518.94,-1472.58 1516.49,-1473.15 1514.02,-1473.63 1511.55,-1474.01 1509.07,-1474.3 1506.59,-1474.49 1504.1,-1474.59 1501.62,-1474.59 1499.13,-1474.49 1496.65,-1474.3 1494.17,-1474.01 1491.7,-1473.63 1489.23,-1473.15 1486.78,-1472.58 1484.33,-1471.92 1481.91,-1471.17 1479.5,-1470.33 1477.11,-1469.41 1474.76,-1468.4 1472.43,-1467.32 1470.13,-1466.16 1467.88,-1464.92 1465.67,-1463.62 1463.52,-1462.25 1461.42,-1460.81 1459.39,-1459.32 1457.44,-1457.77 1455.56,-1456.17 1453.77,-1454.53 1452.08,-1452.84 1450.49,-1451.12 1449.01,-1449.37 1447.65,-1447.58 1446.43,-1445.78 1445.34,-1443.96 1444.39,-1442.12 1443.6,-1440.28 1442.96,-1438.43 1442.49,-1436.59 1442.2,-1434.76 1442.08,-1432.93 1442.15,-1431.13 1442.41,-1429.35 1442.86,-1427.59 1443.51,-1425.87 1444.36,-1424.18 1445.4,-1422.54 1446.64,-1420.94 1448.09,-1419.39 1449.72,-1417.9 1451.56,-1416.46 1453.58,-1415.09 1455.78,-1413.79 1458.17,-1412.55 1460.73,-1411.39 1463.45,-1410.31 1466.32,-1409.3 1469.34,-1408.38 1472.49,-1407.54 1475.77,-1406.79 1479.15,-1406.13 1482.63,-1405.56 1486.2,-1405.08 1489.83,-1404.7 1493.51,-1404.41 1497.24,-1404.22 1500.98,-1404.12 1504.74,-1404.12 1508.48,-1404.22"/>
<text text-anchor="start" x="1473.69" y="-1449.16" font-family="Times,serif" font-size="14.00">C0014392</text>
<text text-anchor="start" x="1470.6" y="-1435.16" font-family="Times,serif" font-size="14.00">enucleation</text>
<text text-anchor="start" x="1479.91" y="-1421.16" font-family="Times,serif" font-size="14.00">107:107</text>
</g>
<!-- id_27390504_DOT_5&#45;&#45;id_27390504_DOT_18 -->
<g id="edge11" class="edge">
<title>id_27390504_DOT_5&#45;&#45;id_27390504_DOT_18</title>
<path fill="none" stroke="black" stroke-dasharray="1,5" d="M1198.78,-1295.32C1265.21,-1326.79 1384.86,-1383.47 1452.58,-1415.54"/>
<text text-anchor="middle" x="1299.69" y="-1358.23" font-family="Times,serif" font-size="14.00">0.841153</text>
</g>
<!-- id_27390504_DOT_5&#45;&#45;id_27390504_DOT_19 -->
<g id="edge12" class="edge">
<title>id_27390504_DOT_5&#45;&#45;id_27390504_DOT_19</title>
<path fill="none" stroke="black" stroke-dasharray="1,5" d="M1087.57,-1250.83C1019.88,-1227.51 913.67,-1190.92 849.3,-1168.74"/>
<text text-anchor="middle" x="942.18" y="-1212.58" font-family="Times,serif" font-size="14.00">0.431217</text>
</g>
<!-- id_27390504_DOT_6&#45;&#45;id_27390504_DOT_18 -->
<g id="edge13" class="edge">
<title>id_27390504_DOT_6&#45;&#45;id_27390504_DOT_18</title>
<path fill="none" stroke="black" stroke-dasharray="1,5" d="M1788.47,-1653.97C1722.14,-1604.12 1598.07,-1510.9 1537.68,-1465.52"/>
<text text-anchor="middle" x="1636.83" y="-1562.54" font-family="Times,serif" font-size="14.00">0.664353</text>
</g>
<!-- id_27390504_DOT_6&#45;&#45;id_27390504_DOT_20 -->
<g id="edge14" class="edge">
<title>id_27390504_DOT_6&#45;&#45;id_27390504_DOT_20</title>
<path fill="none" stroke="black" stroke-dasharray="1,5" d="M1943.54,-1682.5C2023.73,-1679.16 2129.37,-1674.75 2196.58,-1671.95"/>
<text text-anchor="middle" x="2043.81" y="-1680.02" font-family="Times,serif" font-size="14.00">0.620149</text>
</g>
<!-- id_27390504_DOT_17 -->
<g id="node17" class="node">
<title>id_27390504_DOT_17</title>
<polygon fill="chartreuse" stroke="chartreuse" points="3428.44,-587.71 3431.87,-587.9 3435.26,-588.19 3438.6,-588.58 3441.88,-589.05 3445.09,-589.62 3448.21,-590.28 3451.22,-591.04 3454.12,-591.87 3456.9,-592.8 3459.55,-593.8 3462.06,-594.89 3464.41,-596.05 3466.61,-597.28 3468.64,-598.59 3470.5,-599.96 3472.18,-601.39 3473.69,-602.88 3475.02,-604.43 3476.17,-606.03 3477.13,-607.67 3477.9,-609.36 3478.5,-611.08 3478.92,-612.84 3479.15,-614.62 3479.22,-616.43 3479.11,-618.25 3478.84,-620.08 3478.41,-621.93 3477.83,-623.77 3477.1,-625.61 3476.23,-627.45 3475.22,-629.27 3474.09,-631.08 3472.84,-632.86 3471.48,-634.62 3470.02,-636.34 3468.46,-638.02 3466.81,-639.67 3465.08,-641.27 3463.28,-642.81 3461.41,-644.31 3459.48,-645.74 3457.5,-647.11 3455.47,-648.42 3453.39,-649.65 3451.28,-650.81 3449.14,-651.9 3446.97,-652.9 3444.77,-653.83 3442.55,-654.66 3440.32,-655.41 3438.07,-656.08 3435.81,-656.65 3433.54,-657.12 3431.26,-657.51 3428.98,-657.8 3426.69,-657.99 3424.41,-658.08 3422.12,-658.08 3419.83,-657.99 3417.54,-657.8 3415.26,-657.51 3412.98,-657.12 3410.71,-656.65 3408.45,-656.08 3406.2,-655.41 3403.97,-654.66 3401.75,-653.83 3399.56,-652.9 3397.39,-651.9 3395.24,-650.81 3393.13,-649.65 3391.06,-648.42 3389.02,-647.11 3387.04,-645.74 3385.11,-644.31 3383.24,-642.81 3381.44,-641.27 3379.71,-639.67 3378.06,-638.02 3376.51,-636.34 3375.04,-634.62 3373.68,-632.86 3372.43,-631.08 3371.3,-629.27 3370.3,-627.45 3369.43,-625.61 3368.7,-623.77 3368.11,-621.93 3367.68,-620.08 3367.41,-618.25 3367.3,-616.43 3367.37,-614.62 3367.61,-612.84 3368.02,-611.08 3368.62,-609.36 3369.4,-607.67 3370.36,-606.03 3371.5,-604.43 3372.83,-602.88 3374.34,-601.39 3376.02,-599.96 3377.89,-598.59 3379.92,-597.28 3382.11,-596.05 3384.47,-594.89 3386.97,-593.8 3389.62,-592.8 3392.4,-591.87 3395.3,-591.04 3398.32,-590.28 3401.43,-589.62 3404.64,-589.05 3407.92,-588.58 3411.26,-588.19 3414.65,-587.9 3418.08,-587.71 3421.53,-587.61 3424.99,-587.61 3428.44,-587.71"/>
<text text-anchor="start" x="3394.09" y="-632.65" font-family="Times,serif" font-size="14.00">C0015392</text>
<text text-anchor="start" x="3413.55" y="-618.65" font-family="Times,serif" font-size="14.00">eye</text>
<text text-anchor="start" x="3400.32" y="-604.65" font-family="Times,serif" font-size="14.00">105:105</text>
</g>
<!-- id_27390504_DOT_8&#45;&#45;id_27390504_DOT_17 -->
<g id="edge15" class="edge">
<title>id_27390504_DOT_8&#45;&#45;id_27390504_DOT_17</title>
<path fill="none" stroke="black" stroke-dasharray="1,5" d="M3700.23,-472.29C3637.91,-506.17 3529.36,-565.17 3468.31,-598.36"/>
<text text-anchor="middle" x="3558.02" y="-538.13" font-family="Times,serif" font-size="14.00">1.065450</text>
</g>
<!-- id_27390504_DOT_9 -->
<g id="node9" class="node">
<title>id_27390504_DOT_9</title>
<polygon fill="chartreuse" stroke="chartreuse" points="3114.96,-789.84 3118.39,-790.03 3121.78,-790.32 3125.13,-790.71 3128.41,-791.18 3131.61,-791.75 3134.73,-792.42 3137.74,-793.17 3140.65,-794 3143.43,-794.93 3146.07,-795.93 3148.58,-797.02 3150.93,-798.18 3153.13,-799.41 3155.16,-800.72 3157.02,-802.09 3158.71,-803.52 3160.22,-805.02 3161.54,-806.56 3162.69,-808.16 3163.65,-809.81 3164.43,-811.49 3165.02,-813.21 3165.44,-814.97 3165.68,-816.75 3165.74,-818.56 3165.64,-820.38 3165.37,-822.22 3164.94,-824.06 3164.35,-825.9 3163.62,-827.75 3162.75,-829.58 3161.74,-831.4 3160.61,-833.21 3159.36,-834.99 3158,-836.75 3156.54,-838.47 3154.98,-840.16 3153.33,-841.8 3151.61,-843.4 3149.8,-844.95 3147.94,-846.44 3146.01,-847.87 3144.02,-849.24 3141.99,-850.55 3139.92,-851.78 3137.81,-852.94 3135.66,-854.03 3133.49,-855.03 3131.29,-855.96 3129.08,-856.79 3126.84,-857.55 3124.59,-858.21 3122.33,-858.78 3120.06,-859.25 3117.79,-859.64 3115.5,-859.93 3113.22,-860.12 3110.93,-860.22 3108.64,-860.22 3106.35,-860.12 3104.07,-859.93 3101.78,-859.64 3099.51,-859.25 3097.24,-858.78 3094.98,-858.21 3092.73,-857.55 3090.49,-856.79 3088.28,-855.96 3086.08,-855.03 3083.91,-854.03 3081.77,-852.94 3079.65,-851.78 3077.58,-850.55 3075.55,-849.24 3073.57,-847.87 3071.64,-846.44 3069.77,-844.95 3067.96,-843.4 3066.24,-841.8 3064.59,-840.16 3063.03,-838.47 3061.57,-836.75 3060.21,-834.99 3058.96,-833.21 3057.83,-831.4 3056.82,-829.58 3055.95,-827.75 3055.22,-825.9 3054.64,-824.06 3054.21,-822.22 3053.93,-820.38 3053.83,-818.56 3053.89,-816.75 3054.13,-814.97 3054.55,-813.21 3055.14,-811.49 3055.92,-809.81 3056.88,-808.16 3058.03,-806.56 3059.35,-805.02 3060.86,-803.52 3062.55,-802.09 3064.41,-800.72 3066.44,-799.41 3068.64,-798.18 3070.99,-797.02 3073.5,-795.93 3076.14,-794.93 3078.92,-794 3081.83,-793.17 3084.84,-792.42 3087.96,-791.75 3091.16,-791.18 3094.44,-790.71 3097.79,-790.32 3101.18,-790.03 3104.61,-789.84 3108.06,-789.75 3111.51,-789.75 3114.96,-789.84"/>
<text text-anchor="start" x="3080.62" y="-834.78" font-family="Times,serif" font-size="14.00">C0015392</text>
<text text-anchor="start" x="3100.07" y="-820.78" font-family="Times,serif" font-size="14.00">eye</text>
<text text-anchor="start" x="3093.84" y="-806.78" font-family="Times,serif" font-size="14.00">48:48</text>
</g>
<!-- id_27390504_DOT_10 -->
<g id="node10" class="node">
<title>id_27390504_DOT_10</title>
<polygon fill="coral" stroke="coral" points="2810.87,-1014.58 2815.89,-1014.77 2820.85,-1015.06 2825.75,-1015.45 2830.55,-1015.92 2835.24,-1016.49 2839.81,-1017.16 2844.22,-1017.91 2848.47,-1018.74 2852.54,-1019.67 2856.42,-1020.67 2860.09,-1021.76 2863.53,-1022.92 2866.75,-1024.15 2869.72,-1025.46 2872.45,-1026.83 2874.92,-1028.26 2877.13,-1029.76 2879.07,-1031.3 2880.75,-1032.9 2882.15,-1034.55 2883.29,-1036.23 2884.17,-1037.95 2884.77,-1039.71 2885.12,-1041.49 2885.22,-1043.3 2885.06,-1045.12 2884.67,-1046.95 2884.04,-1048.8 2883.18,-1050.64 2882.11,-1052.49 2880.83,-1054.32 2879.36,-1056.14 2877.71,-1057.95 2875.88,-1059.73 2873.89,-1061.49 2871.75,-1063.21 2869.46,-1064.89 2867.05,-1066.54 2864.52,-1068.14 2861.88,-1069.68 2859.14,-1071.18 2856.32,-1072.61 2853.41,-1073.98 2850.44,-1075.29 2847.4,-1076.52 2844.31,-1077.68 2841.17,-1078.77 2837.99,-1079.77 2834.78,-1080.7 2831.53,-1081.53 2828.26,-1082.28 2824.97,-1082.95 2821.66,-1083.52 2818.33,-1083.99 2815,-1084.38 2811.66,-1084.67 2808.31,-1084.86 2804.96,-1084.96 2801.61,-1084.96 2798.26,-1084.86 2794.91,-1084.67 2791.57,-1084.38 2788.23,-1083.99 2784.91,-1083.52 2781.6,-1082.95 2778.31,-1082.28 2775.04,-1081.53 2771.79,-1080.7 2768.58,-1079.77 2765.4,-1078.77 2762.26,-1077.68 2759.16,-1076.52 2756.13,-1075.29 2753.15,-1073.98 2750.25,-1072.61 2747.42,-1071.18 2744.69,-1069.68 2742.05,-1068.14 2739.52,-1066.54 2737.1,-1064.89 2734.82,-1063.21 2732.68,-1061.49 2730.69,-1059.73 2728.86,-1057.95 2727.2,-1056.14 2725.73,-1054.32 2724.46,-1052.49 2723.39,-1050.64 2722.53,-1048.8 2721.9,-1046.95 2721.51,-1045.12 2721.35,-1043.3 2721.44,-1041.49 2721.79,-1039.71 2722.4,-1037.95 2723.27,-1036.23 2724.41,-1034.55 2725.82,-1032.9 2727.5,-1031.3 2729.44,-1029.76 2731.65,-1028.26 2734.12,-1026.83 2736.84,-1025.46 2739.82,-1024.15 2743.03,-1022.92 2746.48,-1021.76 2750.15,-1020.67 2754.02,-1019.67 2758.09,-1018.74 2762.34,-1017.91 2766.76,-1017.16 2771.32,-1016.49 2776.01,-1015.92 2780.82,-1015.45 2785.71,-1015.06 2790.68,-1014.77 2795.7,-1014.58 2800.75,-1014.48 2805.81,-1014.48 2810.87,-1014.58"/>
<text text-anchor="start" x="2774.11" y="-1059.52" font-family="Times,serif" font-size="14.00">C0237529</text>
<text text-anchor="start" x="2757.02" y="-1045.52" font-family="Times,serif" font-size="14.00">self &#45; confidence</text>
<text text-anchor="start" x="2787.34" y="-1031.52" font-family="Times,serif" font-size="14.00">60:62</text>
</g>
<!-- id_27390504_DOT_9&#45;&#45;id_27390504_DOT_10 -->
<g id="edge16" class="edge">
<title>id_27390504_DOT_9&#45;&#45;id_27390504_DOT_10</title>
<path fill="none" stroke="black" stroke-dasharray="1,5" d="M3076.11,-849.67C3020.12,-890.72 2907.99,-972.95 2846.34,-1018.15"/>
<text text-anchor="middle" x="2934.97" y="-936.71" font-family="Times,serif" font-size="14.00">0.909875</text>
</g>
<!-- id_27390504_DOT_9&#45;&#45;id_27390504_DOT_17 -->
<g id="edge6" class="edge">
<title>id_27390504_DOT_9&#45;&#45;id_27390504_DOT_17</title>
<path fill="none" stroke="black" d="M3151.41,-798.14C3213.37,-758.19 3328.8,-683.76 3387.3,-646.04"/>
<text text-anchor="middle" x="3243.1" y="-724.89" font-family="Times,serif" font-size="14.00">0.015303</text>
</g>
<!-- id_27390504_DOT_11 -->
<g id="node11" class="node">
<title>id_27390504_DOT_11</title>
<polygon fill="cornflowerblue" stroke="cornflowerblue" points="2510.29,-1275.04 2513.71,-1275.23 2517.11,-1275.52 2520.45,-1275.9 2523.73,-1276.38 2526.94,-1276.95 2530.05,-1277.61 2533.07,-1278.36 2535.97,-1279.2 2538.75,-1280.12 2541.4,-1281.13 2543.9,-1282.21 2546.26,-1283.37 2548.45,-1284.61 2550.48,-1285.91 2552.35,-1287.28 2554.03,-1288.72 2555.54,-1290.21 2556.87,-1291.76 2558.01,-1293.36 2558.97,-1295 2559.75,-1296.69 2560.35,-1298.41 2560.76,-1300.16 2561,-1301.95 2561.07,-1303.75 2560.96,-1305.57 2560.69,-1307.41 2560.26,-1309.25 2559.67,-1311.1 2558.94,-1312.94 2558.07,-1314.78 2557.07,-1316.6 2555.94,-1318.4 2554.69,-1320.19 2553.33,-1321.94 2551.86,-1323.66 2550.31,-1325.35 2548.66,-1326.99 2546.93,-1328.59 2545.13,-1330.14 2543.26,-1331.63 2541.33,-1333.07 2539.35,-1334.44 2537.31,-1335.74 2535.24,-1336.98 2533.13,-1338.14 2530.98,-1339.22 2528.81,-1340.23 2526.62,-1341.15 2524.4,-1341.99 2522.17,-1342.74 2519.92,-1343.4 2517.66,-1343.97 2515.39,-1344.45 2513.11,-1344.83 2510.83,-1345.12 2508.54,-1345.31 2506.25,-1345.41 2503.96,-1345.41 2501.68,-1345.31 2499.39,-1345.12 2497.11,-1344.83 2494.83,-1344.45 2492.56,-1343.97 2490.3,-1343.4 2488.05,-1342.74 2485.82,-1341.99 2483.6,-1341.15 2481.4,-1340.23 2479.23,-1339.22 2477.09,-1338.14 2474.98,-1336.98 2472.9,-1335.74 2470.87,-1334.44 2468.89,-1333.07 2466.96,-1331.63 2465.09,-1330.14 2463.29,-1328.59 2461.56,-1326.99 2459.91,-1325.35 2458.35,-1323.66 2456.89,-1321.94 2455.53,-1320.19 2454.28,-1318.4 2453.15,-1316.6 2452.14,-1314.78 2451.27,-1312.94 2450.54,-1311.1 2449.96,-1309.25 2449.53,-1307.41 2449.26,-1305.57 2449.15,-1303.75 2449.22,-1301.95 2449.45,-1300.16 2449.87,-1298.41 2450.47,-1296.69 2451.24,-1295 2452.2,-1293.36 2453.35,-1291.76 2454.68,-1290.21 2456.19,-1288.72 2457.87,-1287.28 2459.73,-1285.91 2461.76,-1284.61 2463.96,-1283.37 2466.31,-1282.21 2468.82,-1281.13 2471.47,-1280.12 2474.25,-1279.2 2477.15,-1278.36 2480.16,-1277.61 2483.28,-1276.95 2486.49,-1276.38 2489.77,-1275.9 2493.11,-1275.52 2496.5,-1275.23 2499.93,-1275.04 2503.38,-1274.94 2506.84,-1274.94 2510.29,-1275.04"/>
<text text-anchor="start" x="2475.94" y="-1319.97" font-family="Times,serif" font-size="14.00">C0037455</text>
<text text-anchor="start" x="2485.28" y="-1305.97" font-family="Times,serif" font-size="14.00">society</text>
<text text-anchor="start" x="2489.16" y="-1291.97" font-family="Times,serif" font-size="14.00">69:69</text>
</g>
<!-- id_27390504_DOT_10&#45;&#45;id_27390504_DOT_11 -->
<g id="edge17" class="edge">
<title>id_27390504_DOT_10&#45;&#45;id_27390504_DOT_11</title>
<path fill="none" stroke="black" stroke-dasharray="1,5" d="M2768.79,-1079.85C2711.3,-1130.07 2596.57,-1230.28 2539.29,-1280.31"/>
<text text-anchor="middle" x="2627.79" y="-1182.88" font-family="Times,serif" font-size="14.00">0.654149</text>
</g>
<!-- id_27390504_DOT_11&#45;&#45;id_27390504_DOT_20 -->
<g id="edge18" class="edge">
<title>id_27390504_DOT_11&#45;&#45;id_27390504_DOT_20</title>
<path fill="none" stroke="black" stroke-dasharray="1,5" d="M2483.99,-1341.41C2438.64,-1408.46 2332.29,-1565.7 2285.3,-1635.18"/>
<text text-anchor="middle" x="2358.39" y="-1491.09" font-family="Times,serif" font-size="14.00">0.808194</text>
</g>
<!-- id_27390504_DOT_12 -->
<g id="node12" class="node">
<title>id_27390504_DOT_12</title>
<polygon fill="cadetblue" stroke="cadetblue" points="2600.69,-2413.5 2604.23,-2413.7 2607.75,-2413.99 2611.21,-2414.37 2614.6,-2414.85 2617.92,-2415.42 2621.14,-2416.08 2624.27,-2416.83 2627.27,-2417.67 2630.15,-2418.59 2632.89,-2419.59 2635.48,-2420.68 2637.92,-2421.84 2640.19,-2423.08 2642.29,-2424.38 2644.22,-2425.75 2645.96,-2427.19 2647.53,-2428.68 2648.9,-2430.23 2650.08,-2431.82 2651.08,-2433.47 2651.88,-2435.15 2652.5,-2436.88 2652.93,-2438.63 2653.18,-2440.41 2653.24,-2442.22 2653.13,-2444.04 2652.85,-2445.88 2652.41,-2447.72 2651.8,-2449.57 2651.05,-2451.41 2650.15,-2453.24 2649.11,-2455.07 2647.94,-2456.87 2646.64,-2458.65 2645.24,-2460.41 2643.72,-2462.13 2642.11,-2463.82 2640.4,-2465.46 2638.61,-2467.06 2636.75,-2468.61 2634.81,-2470.1 2632.82,-2471.53 2630.76,-2472.91 2628.66,-2474.21 2626.51,-2475.45 2624.33,-2476.61 2622.11,-2477.69 2619.86,-2478.7 2617.59,-2479.62 2615.29,-2480.46 2612.98,-2481.21 2610.65,-2481.87 2608.31,-2482.44 2605.97,-2482.92 2603.61,-2483.3 2601.25,-2483.59 2598.88,-2483.78 2596.51,-2483.88 2594.14,-2483.88 2591.77,-2483.78 2589.41,-2483.59 2587.04,-2483.3 2584.69,-2482.92 2582.34,-2482.44 2580,-2481.87 2577.67,-2481.21 2575.36,-2480.46 2573.07,-2479.62 2570.79,-2478.7 2568.54,-2477.69 2566.33,-2476.61 2564.14,-2475.45 2561.99,-2474.21 2559.89,-2472.91 2557.84,-2471.53 2555.84,-2470.1 2553.91,-2468.61 2552.04,-2467.06 2550.25,-2465.46 2548.55,-2463.82 2546.93,-2462.13 2545.42,-2460.41 2544.01,-2458.65 2542.72,-2456.87 2541.55,-2455.07 2540.51,-2453.24 2539.61,-2451.41 2538.85,-2449.57 2538.25,-2447.72 2537.8,-2445.88 2537.52,-2444.04 2537.41,-2442.22 2537.48,-2440.41 2537.72,-2438.63 2538.15,-2436.88 2538.77,-2435.15 2539.58,-2433.47 2540.57,-2431.82 2541.75,-2430.23 2543.13,-2428.68 2544.69,-2427.19 2546.44,-2425.75 2548.36,-2424.38 2550.46,-2423.08 2552.74,-2421.84 2555.17,-2420.68 2557.77,-2419.59 2560.51,-2418.59 2563.38,-2417.67 2566.39,-2416.83 2569.51,-2416.08 2572.73,-2415.42 2576.05,-2414.85 2579.45,-2414.37 2582.91,-2413.99 2586.42,-2413.7 2589.97,-2413.5 2593.54,-2413.41 2597.12,-2413.41 2600.69,-2413.5"/>
<text text-anchor="start" x="2566.67" y="-2458.44" font-family="Times,serif" font-size="14.00">C0087111</text>
<text text-anchor="start" x="2565.01" y="-2444.44" font-family="Times,serif" font-size="14.00">fabrication</text>
<text text-anchor="start" x="2579.38" y="-2430.44" font-family="Times,serif" font-size="14.00">72:72</text>
</g>
<!-- id_27390504_DOT_15 -->
<g id="node15" class="node">
<title>id_27390504_DOT_15</title>
<polygon fill="cadetblue" stroke="cadetblue" points="2409.67,-2058.96 2413.21,-2059.16 2416.73,-2059.45 2420.19,-2059.83 2423.58,-2060.31 2426.9,-2060.88 2430.12,-2061.54 2433.25,-2062.29 2436.25,-2063.13 2439.13,-2064.05 2441.87,-2065.05 2444.46,-2066.14 2446.9,-2067.3 2449.17,-2068.54 2451.27,-2069.84 2453.2,-2071.21 2454.94,-2072.65 2456.51,-2074.14 2457.88,-2075.69 2459.06,-2077.28 2460.06,-2078.93 2460.86,-2080.61 2461.48,-2082.34 2461.91,-2084.09 2462.16,-2085.87 2462.22,-2087.68 2462.11,-2089.5 2461.83,-2091.34 2461.39,-2093.18 2460.78,-2095.03 2460.03,-2096.87 2459.13,-2098.7 2458.09,-2100.53 2456.92,-2102.33 2455.62,-2104.11 2454.22,-2105.87 2452.7,-2107.59 2451.09,-2109.28 2449.38,-2110.92 2447.59,-2112.52 2445.73,-2114.07 2443.79,-2115.56 2441.8,-2116.99 2439.74,-2118.37 2437.64,-2119.67 2435.49,-2120.91 2433.31,-2122.07 2431.09,-2123.15 2428.84,-2124.16 2426.57,-2125.08 2424.27,-2125.92 2421.96,-2126.67 2419.63,-2127.33 2417.29,-2127.9 2414.95,-2128.38 2412.59,-2128.76 2410.23,-2129.05 2407.86,-2129.24 2405.49,-2129.34 2403.12,-2129.34 2400.75,-2129.24 2398.39,-2129.05 2396.02,-2128.76 2393.67,-2128.38 2391.32,-2127.9 2388.98,-2127.33 2386.65,-2126.67 2384.34,-2125.92 2382.05,-2125.08 2379.77,-2124.16 2377.52,-2123.15 2375.31,-2122.07 2373.12,-2120.91 2370.97,-2119.67 2368.87,-2118.37 2366.82,-2116.99 2364.82,-2115.56 2362.89,-2114.07 2361.02,-2112.52 2359.23,-2110.92 2357.53,-2109.28 2355.91,-2107.59 2354.4,-2105.87 2352.99,-2104.11 2351.7,-2102.33 2350.53,-2100.53 2349.49,-2098.7 2348.59,-2096.87 2347.83,-2095.03 2347.23,-2093.18 2346.78,-2091.34 2346.5,-2089.5 2346.39,-2087.68 2346.46,-2085.87 2346.7,-2084.09 2347.13,-2082.34 2347.75,-2080.61 2348.56,-2078.93 2349.55,-2077.28 2350.73,-2075.69 2352.11,-2074.14 2353.67,-2072.65 2355.42,-2071.21 2357.34,-2069.84 2359.44,-2068.54 2361.72,-2067.3 2364.15,-2066.14 2366.75,-2065.05 2369.49,-2064.05 2372.36,-2063.13 2375.37,-2062.29 2378.49,-2061.54 2381.71,-2060.88 2385.03,-2060.31 2388.43,-2059.83 2391.89,-2059.45 2395.4,-2059.16 2398.95,-2058.96 2402.52,-2058.87 2406.1,-2058.87 2409.67,-2058.96"/>
<text text-anchor="start" x="2375.65" y="-2103.9" font-family="Times,serif" font-size="14.00">C0087111</text>
<text text-anchor="start" x="2373.99" y="-2089.9" font-family="Times,serif" font-size="14.00">fabrication</text>
<text text-anchor="start" x="2388.36" y="-2075.9" font-family="Times,serif" font-size="14.00">92:92</text>
</g>
<!-- id_27390504_DOT_12&#45;&#45;id_27390504_DOT_15 -->
<g id="edge7" class="edge">
<title>id_27390504_DOT_12&#45;&#45;id_27390504_DOT_15</title>
<path fill="none" stroke="black" d="M2577.01,-2414.65C2540.27,-2346.45 2457.99,-2193.74 2421.87,-2126.71"/>
<text text-anchor="middle" x="2473.19" y="-2273.48" font-family="Times,serif" font-size="14.00">0.006607</text>
</g>
<!-- id_27390504_DOT_16 -->
<g id="node16" class="node">
<title>id_27390504_DOT_16</title>
<polygon fill="aquamarine" stroke="aquamarine" points="4768.49,-0.23 4773.6,-0.42 4778.66,-0.71 4783.64,-1.09 4788.53,-1.57 4793.31,-2.14 4797.95,-2.8 4802.44,-3.55 4806.77,-4.39 4810.91,-5.31 4814.86,-6.32 4818.59,-7.4 4822.1,-8.57 4825.37,-9.8 4828.4,-11.1 4831.17,-12.48 4833.69,-13.91 4835.93,-15.4 4837.91,-16.95 4839.62,-18.55 4841.05,-20.19 4842.21,-21.88 4843.1,-23.6 4843.72,-25.36 4844.07,-27.14 4844.17,-28.94 4844.01,-30.77 4843.61,-32.6 4842.96,-34.44 4842.09,-36.29 4841.01,-38.13 4839.71,-39.97 4838.21,-41.79 4836.52,-43.6 4834.66,-45.38 4832.64,-47.13 4830.46,-48.86 4828.13,-50.54 4825.68,-52.19 4823.1,-53.78 4820.42,-55.33 4817.63,-56.82 4814.75,-58.26 4811.8,-59.63 4808.77,-60.94 4805.68,-62.17 4802.53,-63.33 4799.34,-64.42 4796.1,-65.42 4792.83,-66.34 4789.53,-67.18 4786.2,-67.93 4782.85,-68.59 4779.48,-69.16 4776.1,-69.64 4772.7,-70.02 4769.3,-70.31 4765.89,-70.51 4762.48,-70.6 4759.07,-70.6 4755.66,-70.51 4752.26,-70.31 4748.85,-70.02 4745.46,-69.64 4742.08,-69.16 4738.71,-68.59 4735.36,-67.93 4732.03,-67.18 4728.73,-66.34 4725.45,-65.42 4722.22,-64.42 4719.02,-63.33 4715.88,-62.17 4712.79,-60.94 4709.76,-59.63 4706.8,-58.26 4703.93,-56.82 4701.14,-55.33 4698.46,-53.78 4695.88,-52.19 4693.42,-50.54 4691.1,-48.86 4688.92,-47.13 4686.89,-45.38 4685.03,-43.6 4683.35,-41.79 4681.85,-39.97 4680.55,-38.13 4679.46,-36.29 4678.59,-34.44 4677.95,-32.6 4677.55,-30.77 4677.39,-28.94 4677.49,-27.14 4677.84,-25.36 4678.46,-23.6 4679.35,-21.88 4680.51,-20.19 4681.94,-18.55 4683.65,-16.95 4685.62,-15.4 4687.87,-13.91 4690.38,-12.48 4693.16,-11.1 4696.19,-9.8 4699.46,-8.57 4702.97,-7.4 4706.7,-6.32 4710.64,-5.31 4714.79,-4.39 4719.11,-3.55 4723.61,-2.8 4728.25,-2.14 4733.03,-1.57 4737.91,-1.09 4742.9,-0.71 4747.95,-0.42 4753.06,-0.23 4758.2,-0.13 4763.35,-0.13 4768.49,-0.23"/>
<text text-anchor="start" x="4731.61" y="-45.17" font-family="Times,serif" font-size="14.00">C0015417</text>
<text text-anchor="start" x="4713.54" y="-31.17" font-family="Times,serif" font-size="14.00">ocular prosthesis</text>
<text text-anchor="start" x="4744.83" y="-17.17" font-family="Times,serif" font-size="14.00">96:97</text>
</g>
<!-- id_27390504_DOT_13&#45;&#45;id_27390504_DOT_16 -->
<g id="edge8" class="edge">
<title>id_27390504_DOT_13&#45;&#45;id_27390504_DOT_16</title>
<path fill="none" stroke="black" d="M4492.73,-169.7C4554.39,-138.79 4652.14,-89.81 4711,-60.31"/>
<text text-anchor="middle" x="4575.61" y="-117.81" font-family="Times,serif" font-size="14.00">0.002508</text>
</g>
<!-- id_27390504_DOT_15&#45;&#45;id_27390504_DOT_20 -->
<g id="edge19" class="edge">
<title>id_27390504_DOT_15&#45;&#45;id_27390504_DOT_20</title>
<path fill="none" stroke="black" stroke-dasharray="1,5" d="M2392.69,-2059.33C2365.99,-1979.46 2300.53,-1783.62 2273.88,-1703.86"/>
<text text-anchor="middle" x="2307.03" y="-1884.4" font-family="Times,serif" font-size="14.00">0.569481</text>
</g>
</g>
</svg>
