<?xml version="1.0" encoding="UTF-8" standalone="no"?>
<!DOCTYPE svg PUBLIC "-//W3C//DTD SVG 1.1//EN"
 "http://www.w3.org/Graphics/SVG/1.1/DTD/svg11.dtd">
<!-- Generated by graphviz version 2.42.3 (20191010.1750)
 -->
<!-- Title: MST Pages: 1 -->
<svg width="3337pt" height="3999pt"
 viewBox="0.00 0.00 3336.89 3998.81" xmlns="http://www.w3.org/2000/svg" xmlns:xlink="http://www.w3.org/1999/xlink">
<g id="graph0" class="graph" transform="scale(1 1) rotate(0) translate(4 3994.81)">
<title>MST</title>
<polygon fill="white" stroke="transparent" points="-4,4 -4,-3994.81 3332.89,-3994.81 3332.89,4 -4,4"/>
<!-- id_27418256_DOT_1 -->
<g id="node1" class="node">
<title>id_27418256_DOT_1</title>
<polygon fill="aquamarine" stroke="aquamarine" points="2236.02,-364.57 2239.45,-364.76 2242.85,-365.05 2246.19,-365.43 2249.47,-365.91 2252.67,-366.48 2255.79,-367.14 2258.81,-367.89 2261.71,-368.73 2264.49,-369.65 2267.14,-370.66 2269.64,-371.74 2271.99,-372.9 2274.19,-374.14 2276.22,-375.44 2278.08,-376.81 2279.77,-378.25 2281.28,-379.74 2282.61,-381.29 2283.75,-382.89 2284.71,-384.53 2285.49,-386.22 2286.09,-387.94 2286.5,-389.7 2286.74,-391.48 2286.8,-393.28 2286.7,-395.11 2286.43,-396.94 2286,-398.78 2285.41,-400.63 2284.68,-402.47 2283.81,-404.31 2282.81,-406.13 2281.67,-407.93 2280.43,-409.72 2279.07,-411.47 2277.6,-413.19 2276.04,-414.88 2274.4,-416.52 2272.67,-418.12 2270.87,-419.67 2269,-421.16 2267.07,-422.6 2265.08,-423.97 2263.05,-425.27 2260.98,-426.51 2258.87,-427.67 2256.72,-428.75 2254.55,-429.76 2252.35,-430.68 2250.14,-431.52 2247.9,-432.27 2245.65,-432.93 2243.39,-433.5 2241.13,-433.98 2238.85,-434.36 2236.57,-434.65 2234.28,-434.84 2231.99,-434.94 2229.7,-434.94 2227.41,-434.84 2225.13,-434.65 2222.84,-434.36 2220.57,-433.98 2218.3,-433.5 2216.04,-432.93 2213.79,-432.27 2211.56,-431.52 2209.34,-430.68 2207.14,-429.76 2204.97,-428.75 2202.83,-427.67 2200.72,-426.51 2198.64,-425.27 2196.61,-423.97 2194.63,-422.6 2192.7,-421.16 2190.83,-419.67 2189.03,-418.12 2187.3,-416.52 2185.65,-414.88 2184.09,-413.19 2182.63,-411.47 2181.27,-409.72 2180.02,-407.93 2178.89,-406.13 2177.88,-404.31 2177.01,-402.47 2176.28,-400.63 2175.7,-398.78 2175.27,-396.94 2175,-395.11 2174.89,-393.28 2174.95,-391.48 2175.19,-389.7 2175.61,-387.94 2176.2,-386.22 2176.98,-384.53 2177.94,-382.89 2179.09,-381.29 2180.41,-379.74 2181.92,-378.25 2183.61,-376.81 2185.47,-375.44 2187.5,-374.14 2189.7,-372.9 2192.05,-371.74 2194.56,-370.66 2197.2,-369.65 2199.98,-368.73 2202.89,-367.89 2205.9,-367.14 2209.02,-366.48 2212.22,-365.91 2215.5,-365.43 2218.85,-365.05 2222.24,-364.76 2225.67,-364.57 2229.12,-364.47 2232.57,-364.47 2236.02,-364.57"/>
<text text-anchor="start" x="2201.68" y="-409.51" font-family="Times,serif" font-size="14.00">C1335533</text>
<text text-anchor="start" x="2204.02" y="-395.51" font-family="Times,serif" font-size="14.00">Fragment</text>
<text text-anchor="start" x="2221.9" y="-381.51" font-family="Times,serif" font-size="14.00">0:0</text>
</g>
<!-- id_27418256_DOT_15 -->
<g id="node15" class="node">
<title>id_27418256_DOT_15</title>
<polygon fill="aquamarine" stroke="aquamarine" points="2223.56,-747.56 2226.98,-747.75 2230.38,-748.04 2233.72,-748.43 2237,-748.9 2240.21,-749.47 2243.32,-750.14 2246.34,-750.89 2249.24,-751.72 2252.02,-752.65 2254.67,-753.65 2257.17,-754.74 2259.53,-755.9 2261.72,-757.13 2263.75,-758.44 2265.62,-759.81 2267.3,-761.24 2268.81,-762.74 2270.14,-764.28 2271.28,-765.88 2272.24,-767.53 2273.02,-769.21 2273.62,-770.93 2274.03,-772.69 2274.27,-774.47 2274.33,-776.28 2274.23,-778.1 2273.96,-779.93 2273.53,-781.78 2272.94,-783.62 2272.21,-785.47 2271.34,-787.3 2270.34,-789.12 2269.21,-790.93 2267.96,-792.71 2266.6,-794.47 2265.13,-796.19 2263.58,-797.87 2261.93,-799.52 2260.2,-801.12 2258.4,-802.66 2256.53,-804.16 2254.6,-805.59 2252.62,-806.96 2250.58,-808.27 2248.51,-809.5 2246.4,-810.66 2244.25,-811.75 2242.08,-812.75 2239.89,-813.68 2237.67,-814.51 2235.44,-815.26 2233.19,-815.93 2230.93,-816.5 2228.66,-816.97 2226.38,-817.36 2224.1,-817.65 2221.81,-817.84 2219.52,-817.94 2217.23,-817.94 2214.95,-817.84 2212.66,-817.65 2210.38,-817.36 2208.1,-816.97 2205.83,-816.5 2203.57,-815.93 2201.32,-815.26 2199.09,-814.51 2196.87,-813.68 2194.67,-812.75 2192.5,-811.75 2190.36,-810.66 2188.25,-809.5 2186.17,-808.27 2184.14,-806.96 2182.16,-805.59 2180.23,-804.16 2178.36,-802.66 2176.56,-801.12 2174.83,-799.52 2173.18,-797.87 2171.62,-796.19 2170.16,-794.47 2168.8,-792.71 2167.55,-790.93 2166.42,-789.12 2165.41,-787.3 2164.54,-785.47 2163.81,-783.62 2163.23,-781.78 2162.8,-779.93 2162.53,-778.1 2162.42,-776.28 2162.49,-774.47 2162.72,-772.69 2163.14,-770.93 2163.74,-769.21 2164.51,-767.53 2165.47,-765.88 2166.62,-764.28 2167.95,-762.74 2169.45,-761.24 2171.14,-759.81 2173,-758.44 2175.03,-757.13 2177.23,-755.9 2179.58,-754.74 2182.09,-753.65 2184.74,-752.65 2187.52,-751.72 2190.42,-750.89 2193.43,-750.14 2196.55,-749.47 2199.75,-748.9 2203.04,-748.43 2206.38,-748.04 2209.77,-747.75 2213.2,-747.56 2216.65,-747.46 2220.11,-747.46 2223.56,-747.56"/>
<text text-anchor="start" x="2189.21" y="-792.5" font-family="Times,serif" font-size="14.00">C1335533</text>
<text text-anchor="start" x="2193.11" y="-778.5" font-family="Times,serif" font-size="14.00">fragment</text>
<text text-anchor="start" x="2202.43" y="-764.5" font-family="Times,serif" font-size="14.00">67:67</text>
</g>
<!-- id_27418256_DOT_1&#45;&#45;id_27418256_DOT_15 -->
<g id="edge1" class="edge">
<title>id_27418256_DOT_1&#45;&#45;id_27418256_DOT_15</title>
<path fill="none" stroke="black" d="M2229.7,-435.05C2227.32,-508.01 2221.9,-674.55 2219.53,-747.44"/>
<text text-anchor="middle" x="2198.36" y="-594.05" font-family="Times,serif" font-size="14.00">0.046832</text>
</g>
<!-- id_27418256_DOT_26 -->
<g id="node26" class="node">
<title>id_27418256_DOT_26</title>
<polygon fill="darkred" stroke="darkred" points="2315.36,-0.23 2318.79,-0.42 2322.18,-0.71 2325.53,-1.09 2328.81,-1.57 2332.01,-2.14 2335.13,-2.8 2338.14,-3.55 2341.04,-4.39 2343.82,-5.31 2346.47,-6.32 2348.98,-7.4 2351.33,-8.57 2353.53,-9.8 2355.56,-11.1 2357.42,-12.48 2359.11,-13.91 2360.61,-15.4 2361.94,-16.95 2363.09,-18.55 2364.05,-20.19 2364.83,-21.88 2365.42,-23.6 2365.84,-25.36 2366.08,-27.14 2366.14,-28.94 2366.03,-30.77 2365.76,-32.6 2365.33,-34.44 2364.75,-36.29 2364.02,-38.13 2363.15,-39.97 2362.14,-41.79 2361.01,-43.6 2359.76,-45.38 2358.4,-47.13 2356.94,-48.86 2355.38,-50.54 2353.73,-52.19 2352,-53.78 2350.2,-55.33 2348.33,-56.82 2346.4,-58.26 2344.42,-59.63 2342.39,-60.94 2340.31,-62.17 2338.2,-63.33 2336.06,-64.42 2333.89,-65.42 2331.69,-66.34 2329.47,-67.18 2327.24,-67.93 2324.99,-68.59 2322.73,-69.16 2320.46,-69.64 2318.18,-70.02 2315.9,-70.31 2313.62,-70.51 2311.33,-70.6 2309.04,-70.6 2306.75,-70.51 2304.46,-70.31 2302.18,-70.02 2299.9,-69.64 2297.63,-69.16 2295.37,-68.59 2293.13,-67.93 2290.89,-67.18 2288.68,-66.34 2286.48,-65.42 2284.31,-64.42 2282.16,-63.33 2280.05,-62.17 2277.98,-60.94 2275.95,-59.63 2273.96,-58.26 2272.03,-56.82 2270.16,-55.33 2268.36,-53.78 2266.63,-52.19 2264.99,-50.54 2263.43,-48.86 2261.96,-47.13 2260.6,-45.38 2259.35,-43.6 2258.22,-41.79 2257.22,-39.97 2256.35,-38.13 2255.62,-36.29 2255.03,-34.44 2254.6,-32.6 2254.33,-30.77 2254.23,-28.94 2254.29,-27.14 2254.53,-25.36 2254.94,-23.6 2255.54,-21.88 2256.32,-20.19 2257.28,-18.55 2258.42,-16.95 2259.75,-15.4 2261.26,-13.91 2262.95,-12.48 2264.81,-11.1 2266.84,-9.8 2269.03,-8.57 2271.39,-7.4 2273.89,-6.32 2276.54,-5.31 2279.32,-4.39 2282.22,-3.55 2285.24,-2.8 2288.35,-2.14 2291.56,-1.57 2294.84,-1.09 2298.18,-0.71 2301.58,-0.42 2305,-0.23 2308.45,-0.13 2311.91,-0.13 2315.36,-0.23"/>
<text text-anchor="start" x="2281.01" y="-45.17" font-family="Times,serif" font-size="14.00">C0002776</text>
<text text-anchor="start" x="2282.19" y="-31.17" font-family="Times,serif" font-size="14.00">analogues</text>
<text text-anchor="start" x="2287.24" y="-17.17" font-family="Times,serif" font-size="14.00">155:155</text>
</g>
<!-- id_27418256_DOT_1&#45;&#45;id_27418256_DOT_26 -->
<g id="edge10" class="edge">
<title>id_27418256_DOT_1&#45;&#45;id_27418256_DOT_26</title>
<path fill="none" stroke="black" stroke-dasharray="1,5" d="M2238.53,-364.44C2253.73,-294.61 2287.5,-139.52 2302.62,-70.12"/>
<text text-anchor="middle" x="2244.32" y="-220.08" font-family="Times,serif" font-size="14.00">0.764708</text>
</g>
<!-- id_27418256_DOT_2 -->
<g id="node2" class="node">
<title>id_27418256_DOT_2</title>
<polygon fill="bisque" stroke="bisque" points="3271.73,-3401.78 3275.59,-3401.97 3279.41,-3402.26 3283.17,-3402.64 3286.86,-3403.12 3290.47,-3403.69 3293.98,-3404.35 3297.37,-3405.1 3300.64,-3405.94 3303.77,-3406.87 3306.75,-3407.87 3309.57,-3408.95 3312.22,-3410.12 3314.69,-3411.35 3316.98,-3412.66 3319.07,-3414.03 3320.97,-3415.46 3322.67,-3416.95 3324.16,-3418.5 3325.45,-3420.1 3326.53,-3421.74 3327.41,-3423.43 3328.08,-3425.15 3328.55,-3426.91 3328.82,-3428.69 3328.89,-3430.5 3328.77,-3432.32 3328.46,-3434.15 3327.98,-3436 3327.32,-3437.84 3326.5,-3439.68 3325.52,-3441.52 3324.39,-3443.34 3323.12,-3445.15 3321.71,-3446.93 3320.18,-3448.68 3318.53,-3450.41 3316.78,-3452.09 3314.92,-3453.74 3312.98,-3455.34 3310.95,-3456.88 3308.84,-3458.38 3306.67,-3459.81 3304.44,-3461.18 3302.15,-3462.49 3299.82,-3463.72 3297.44,-3464.88 3295.03,-3465.97 3292.58,-3466.97 3290.11,-3467.89 3287.61,-3468.73 3285.1,-3469.48 3282.57,-3470.14 3280.02,-3470.71 3277.47,-3471.19 3274.91,-3471.58 3272.34,-3471.86 3269.76,-3472.06 3267.19,-3472.15 3264.61,-3472.15 3262.03,-3472.06 3259.46,-3471.86 3256.89,-3471.58 3254.33,-3471.19 3251.77,-3470.71 3249.23,-3470.14 3246.7,-3469.48 3244.18,-3468.73 3241.69,-3467.89 3239.22,-3466.97 3236.77,-3465.97 3234.36,-3464.88 3231.98,-3463.72 3229.65,-3462.49 3227.36,-3461.18 3225.13,-3459.81 3222.96,-3458.38 3220.85,-3456.88 3218.82,-3455.34 3216.88,-3453.74 3215.02,-3452.09 3213.27,-3450.41 3211.62,-3448.68 3210.09,-3446.93 3208.68,-3445.15 3207.41,-3443.34 3206.28,-3441.52 3205.3,-3439.68 3204.48,-3437.84 3203.82,-3436 3203.33,-3434.15 3203.03,-3432.32 3202.91,-3430.5 3202.98,-3428.69 3203.25,-3426.91 3203.72,-3425.15 3204.39,-3423.43 3205.26,-3421.74 3206.35,-3420.1 3207.64,-3418.5 3209.13,-3416.95 3210.83,-3415.46 3212.73,-3414.03 3214.82,-3412.66 3217.11,-3411.35 3219.58,-3410.12 3222.23,-3408.95 3225.05,-3407.87 3228.03,-3406.87 3231.16,-3405.94 3234.43,-3405.1 3237.82,-3404.35 3241.33,-3403.69 3244.94,-3403.12 3248.63,-3402.64 3252.39,-3402.26 3256.21,-3401.97 3260.07,-3401.78 3263.95,-3401.68 3267.84,-3401.68 3271.73,-3401.78"/>
<text text-anchor="start" x="3236.99" y="-3446.72" font-family="Times,serif" font-size="14.00">C0022115</text>
<text text-anchor="start" x="3232.07" y="-3432.72" font-family="Times,serif" font-size="14.00">5&#45;Arylisatin</text>
<text text-anchor="start" x="3256.95" y="-3418.72" font-family="Times,serif" font-size="14.00">5:5</text>
</g>
<!-- id_27418256_DOT_22 -->
<g id="node22" class="node">
<title>id_27418256_DOT_22</title>
<polygon fill="bisque" stroke="bisque" points="2913.98,-3245.85 2921.27,-3246.04 2928.47,-3246.33 2935.57,-3246.71 2942.54,-3247.19 2949.34,-3247.76 2955.96,-3248.42 2962.37,-3249.17 2968.53,-3250.01 2974.44,-3250.93 2980.06,-3251.94 2985.38,-3253.02 2990.38,-3254.18 2995.04,-3255.42 2999.35,-3256.72 3003.31,-3258.09 3006.89,-3259.53 3010.09,-3261.02 3012.91,-3262.57 3015.34,-3264.17 3017.38,-3265.81 3019.04,-3267.5 3020.3,-3269.22 3021.18,-3270.97 3021.69,-3272.76 3021.82,-3274.56 3021.6,-3276.38 3021.03,-3278.22 3020.11,-3280.06 3018.87,-3281.91 3017.32,-3283.75 3015.47,-3285.58 3013.34,-3287.41 3010.93,-3289.21 3008.28,-3290.99 3005.39,-3292.75 3002.29,-3294.47 2998.97,-3296.16 2995.48,-3297.8 2991.8,-3299.4 2987.98,-3300.95 2984.01,-3302.44 2979.91,-3303.88 2975.7,-3305.25 2971.38,-3306.55 2966.98,-3307.79 2962.49,-3308.95 2957.94,-3310.03 2953.33,-3311.04 2948.66,-3311.96 2943.96,-3312.8 2939.21,-3313.55 2934.44,-3314.21 2929.64,-3314.78 2924.82,-3315.26 2919.98,-3315.64 2915.13,-3315.93 2910.28,-3316.12 2905.42,-3316.22 2900.56,-3316.22 2895.7,-3316.12 2890.84,-3315.93 2885.99,-3315.64 2881.16,-3315.26 2876.34,-3314.78 2871.54,-3314.21 2866.76,-3313.55 2862.02,-3312.8 2857.31,-3311.96 2852.65,-3311.04 2848.03,-3310.03 2843.48,-3308.95 2839,-3307.79 2834.59,-3306.55 2830.28,-3305.25 2826.07,-3303.88 2821.97,-3302.44 2818,-3300.95 2814.17,-3299.4 2810.5,-3297.8 2807,-3296.16 2803.69,-3294.47 2800.58,-3292.75 2797.69,-3290.99 2795.04,-3289.21 2792.64,-3287.41 2790.51,-3285.58 2788.66,-3283.75 2787.1,-3281.91 2785.86,-3280.06 2784.95,-3278.22 2784.38,-3276.38 2784.15,-3274.56 2784.29,-3272.76 2784.79,-3270.97 2785.68,-3269.22 2786.94,-3267.5 2788.59,-3265.81 2790.63,-3264.17 2793.07,-3262.57 2795.88,-3261.02 2799.09,-3259.53 2802.67,-3258.09 2806.62,-3256.72 2810.94,-3255.42 2815.6,-3254.18 2820.6,-3253.02 2825.92,-3251.94 2831.54,-3250.93 2837.45,-3250.01 2843.61,-3249.17 2850.01,-3248.42 2856.63,-3247.76 2863.44,-3247.19 2870.4,-3246.71 2877.51,-3246.33 2884.71,-3246.04 2891.99,-3245.85 2899.32,-3245.75 2906.66,-3245.75 2913.98,-3245.85"/>
<text text-anchor="start" x="2874.08" y="-3290.78" font-family="Times,serif" font-size="14.00">C0022115</text>
<text text-anchor="start" x="2832.03" y="-3276.78" font-family="Times,serif" font-size="14.00">isatin &#45; based compounds</text>
<text text-anchor="start" x="2880.81" y="-3262.78" font-family="Times,serif" font-size="14.00">111:114</text>
</g>
<!-- id_27418256_DOT_2&#45;&#45;id_27418256_DOT_22 -->
<g id="edge11" class="edge">
<title>id_27418256_DOT_2&#45;&#45;id_27418256_DOT_22</title>
<path fill="none" stroke="black" stroke-dasharray="1,5" d="M3212.35,-3413.91C3146.79,-3385.74 3035.91,-3338.1 2966.23,-3308.16"/>
<text text-anchor="middle" x="3063.04" y="-3363.83" font-family="Times,serif" font-size="14.00">0.423637</text>
</g>
<!-- id_27418256_DOT_3 -->
<g id="node3" class="node">
<title>id_27418256_DOT_3</title>
<polygon fill="blue" stroke="blue" points="2263.66,-2759.17 2267.09,-2759.36 2270.48,-2759.65 2273.83,-2760.03 2277.11,-2760.51 2280.31,-2761.08 2283.43,-2761.74 2286.45,-2762.49 2289.35,-2763.33 2292.13,-2764.25 2294.77,-2765.26 2297.28,-2766.34 2299.63,-2767.5 2301.83,-2768.74 2303.86,-2770.04 2305.72,-2771.41 2307.41,-2772.85 2308.92,-2774.34 2310.25,-2775.89 2311.39,-2777.49 2312.35,-2779.13 2313.13,-2780.82 2313.72,-2782.54 2314.14,-2784.29 2314.38,-2786.08 2314.44,-2787.88 2314.34,-2789.7 2314.07,-2791.54 2313.64,-2793.38 2313.05,-2795.23 2312.32,-2797.07 2311.45,-2798.91 2310.45,-2800.73 2309.31,-2802.53 2308.07,-2804.32 2306.71,-2806.07 2305.24,-2807.79 2303.68,-2809.48 2302.04,-2811.12 2300.31,-2812.72 2298.5,-2814.27 2296.64,-2815.76 2294.71,-2817.2 2292.72,-2818.57 2290.69,-2819.87 2288.62,-2821.11 2286.51,-2822.27 2284.36,-2823.35 2282.19,-2824.36 2279.99,-2825.28 2277.78,-2826.12 2275.54,-2826.87 2273.29,-2827.53 2271.03,-2828.1 2268.76,-2828.58 2266.49,-2828.96 2264.21,-2829.25 2261.92,-2829.44 2259.63,-2829.54 2257.34,-2829.54 2255.05,-2829.44 2252.77,-2829.25 2250.48,-2828.96 2248.21,-2828.58 2245.94,-2828.1 2243.68,-2827.53 2241.43,-2826.87 2239.19,-2826.12 2236.98,-2825.28 2234.78,-2824.36 2232.61,-2823.35 2230.47,-2822.27 2228.35,-2821.11 2226.28,-2819.87 2224.25,-2818.57 2222.27,-2817.2 2220.34,-2815.76 2218.47,-2814.27 2216.66,-2812.72 2214.94,-2811.12 2213.29,-2809.48 2211.73,-2807.79 2210.27,-2806.07 2208.91,-2804.32 2207.66,-2802.53 2206.53,-2800.73 2205.52,-2798.91 2204.65,-2797.07 2203.92,-2795.23 2203.34,-2793.38 2202.91,-2791.54 2202.64,-2789.7 2202.53,-2787.88 2202.59,-2786.08 2202.83,-2784.29 2203.25,-2782.54 2203.84,-2780.82 2204.62,-2779.13 2205.58,-2777.49 2206.73,-2775.89 2208.05,-2774.34 2209.56,-2772.85 2211.25,-2771.41 2213.11,-2770.04 2215.14,-2768.74 2217.34,-2767.5 2219.69,-2766.34 2222.2,-2765.26 2224.84,-2764.25 2227.62,-2763.33 2230.53,-2762.49 2233.54,-2761.74 2236.66,-2761.08 2239.86,-2760.51 2243.14,-2760.03 2246.49,-2759.65 2249.88,-2759.36 2253.31,-2759.17 2256.76,-2759.07 2260.21,-2759.07 2263.66,-2759.17"/>
<text text-anchor="start" x="2229.32" y="-2804.11" font-family="Times,serif" font-size="14.00">C1513016</text>
<text text-anchor="start" x="2231.27" y="-2790.11" font-family="Times,serif" font-size="14.00">Inhibitors</text>
<text text-anchor="start" x="2249.54" y="-2776.11" font-family="Times,serif" font-size="14.00">8:8</text>
</g>
<!-- id_27418256_DOT_16 -->
<g id="node16" class="node">
<title>id_27418256_DOT_16</title>
<polygon fill="darkgoldenrod" stroke="darkgoldenrod" points="2634.18,-2682.8 2644.41,-2682.99 2654.52,-2683.28 2664.5,-2683.66 2674.28,-2684.14 2683.84,-2684.71 2693.14,-2685.37 2702.13,-2686.12 2710.79,-2686.96 2719.08,-2687.88 2726.97,-2688.89 2734.45,-2689.97 2741.47,-2691.13 2748.02,-2692.37 2754.08,-2693.67 2759.63,-2695.05 2764.66,-2696.48 2769.16,-2697.97 2773.12,-2699.52 2776.53,-2701.12 2779.4,-2702.76 2781.72,-2704.45 2783.5,-2706.17 2784.74,-2707.93 2785.45,-2709.71 2785.64,-2711.51 2785.32,-2713.34 2784.51,-2715.17 2783.23,-2717.01 2781.49,-2718.86 2779.31,-2720.7 2776.71,-2722.54 2773.71,-2724.36 2770.34,-2726.17 2766.62,-2727.95 2762.56,-2729.7 2758.19,-2731.43 2753.54,-2733.11 2748.63,-2734.76 2743.47,-2736.35 2738.1,-2737.9 2732.52,-2739.39 2726.77,-2740.83 2720.85,-2742.2 2714.79,-2743.5 2708.61,-2744.74 2702.31,-2745.9 2695.92,-2746.99 2689.44,-2747.99 2682.89,-2748.91 2676.27,-2749.75 2669.61,-2750.5 2662.9,-2751.16 2656.16,-2751.73 2649.39,-2752.21 2642.6,-2752.59 2635.79,-2752.88 2628.98,-2753.08 2622.15,-2753.17 2615.32,-2753.17 2608.5,-2753.08 2601.68,-2752.88 2594.87,-2752.59 2588.08,-2752.21 2581.31,-2751.73 2574.57,-2751.16 2567.86,-2750.5 2561.2,-2749.75 2554.58,-2748.91 2548.03,-2747.99 2541.55,-2746.99 2535.16,-2745.9 2528.86,-2744.74 2522.68,-2743.5 2516.62,-2742.2 2510.7,-2740.83 2504.95,-2739.39 2499.37,-2737.9 2494,-2736.35 2488.84,-2734.76 2483.93,-2733.11 2479.28,-2731.43 2474.91,-2729.7 2470.85,-2727.95 2467.13,-2726.17 2463.76,-2724.36 2460.76,-2722.54 2458.16,-2720.7 2455.98,-2718.86 2454.24,-2717.01 2452.96,-2715.17 2452.15,-2713.34 2451.83,-2711.51 2452.02,-2709.71 2452.73,-2707.93 2453.97,-2706.17 2455.75,-2704.45 2458.07,-2702.76 2460.94,-2701.12 2464.35,-2699.52 2468.31,-2697.97 2472.81,-2696.48 2477.84,-2695.05 2483.39,-2693.67 2489.45,-2692.37 2496,-2691.13 2503.02,-2689.97 2510.5,-2688.89 2518.39,-2687.88 2526.68,-2686.96 2535.34,-2686.12 2544.33,-2685.37 2553.63,-2684.71 2563.19,-2684.14 2572.97,-2683.66 2582.95,-2683.28 2593.07,-2682.99 2603.29,-2682.8 2613.58,-2682.7 2623.89,-2682.7 2634.18,-2682.8"/>
<text text-anchor="start" x="2589.57" y="-2727.74" font-family="Times,serif" font-size="14.00">C0282574</text>
<text text-anchor="start" x="2515.88" y="-2713.74" font-family="Times,serif" font-size="14.00">EDASA Scientific compound library</text>
<text text-anchor="start" x="2602.79" y="-2699.74" font-family="Times,serif" font-size="14.00">73:76</text>
</g>
<!-- id_27418256_DOT_3&#45;&#45;id_27418256_DOT_16 -->
<g id="edge12" class="edge">
<title>id_27418256_DOT_3&#45;&#45;id_27418256_DOT_16</title>
<path fill="none" stroke="black" stroke-dasharray="1,5" d="M2313.99,-2782.54C2366.19,-2771.47 2445.79,-2754.6 2510.54,-2740.87"/>
<text text-anchor="middle" x="2386.01" y="-2764.51" font-family="Times,serif" font-size="14.00">0.840208</text>
</g>
<!-- id_27418256_DOT_19 -->
<g id="node19" class="node">
<title>id_27418256_DOT_19</title>
<polygon fill="darkkhaki" stroke="darkkhaki" points="2004.56,-2391.39 2007.99,-2391.58 2011.38,-2391.87 2014.72,-2392.25 2018,-2392.73 2021.21,-2393.3 2024.32,-2393.96 2027.34,-2394.71 2030.24,-2395.55 2033.02,-2396.47 2035.67,-2397.48 2038.17,-2398.56 2040.53,-2399.72 2042.72,-2400.96 2044.76,-2402.26 2046.62,-2403.63 2048.3,-2405.07 2049.81,-2406.56 2051.14,-2408.11 2052.28,-2409.71 2053.25,-2411.35 2054.02,-2413.04 2054.62,-2414.76 2055.03,-2416.51 2055.27,-2418.3 2055.34,-2420.1 2055.23,-2421.92 2054.96,-2423.76 2054.53,-2425.6 2053.95,-2427.45 2053.22,-2429.29 2052.34,-2431.13 2051.34,-2432.95 2050.21,-2434.75 2048.96,-2436.54 2047.6,-2438.29 2046.14,-2440.01 2044.58,-2441.7 2042.93,-2443.34 2041.2,-2444.94 2039.4,-2446.49 2037.53,-2447.98 2035.6,-2449.42 2033.62,-2450.79 2031.59,-2452.09 2029.51,-2453.33 2027.4,-2454.49 2025.26,-2455.57 2023.08,-2456.58 2020.89,-2457.5 2018.67,-2458.34 2016.44,-2459.09 2014.19,-2459.75 2011.93,-2460.32 2009.66,-2460.8 2007.38,-2461.18 2005.1,-2461.47 2002.81,-2461.66 2000.53,-2461.76 1998.24,-2461.76 1995.95,-2461.66 1993.66,-2461.47 1991.38,-2461.18 1989.1,-2460.8 1986.83,-2460.32 1984.57,-2459.75 1982.32,-2459.09 1980.09,-2458.34 1977.87,-2457.5 1975.68,-2456.58 1973.5,-2455.57 1971.36,-2454.49 1969.25,-2453.33 1967.18,-2452.09 1965.14,-2450.79 1963.16,-2449.42 1961.23,-2447.98 1959.36,-2446.49 1957.56,-2444.94 1955.83,-2443.34 1954.18,-2441.7 1952.62,-2440.01 1951.16,-2438.29 1949.8,-2436.54 1948.55,-2434.75 1947.42,-2432.95 1946.42,-2431.13 1945.55,-2429.29 1944.81,-2427.45 1944.23,-2425.6 1943.8,-2423.76 1943.53,-2421.92 1943.42,-2420.1 1943.49,-2418.3 1943.73,-2416.51 1944.14,-2414.76 1944.74,-2413.04 1945.52,-2411.35 1946.48,-2409.71 1947.62,-2408.11 1948.95,-2406.56 1950.46,-2405.07 1952.14,-2403.63 1954,-2402.26 1956.04,-2400.96 1958.23,-2399.72 1960.59,-2398.56 1963.09,-2397.48 1965.74,-2396.47 1968.52,-2395.55 1971.42,-2394.71 1974.44,-2393.96 1977.55,-2393.3 1980.76,-2392.73 1984.04,-2392.25 1987.38,-2391.87 1990.77,-2391.58 1994.2,-2391.39 1997.65,-2391.29 2001.11,-2391.29 2004.56,-2391.39"/>
<text text-anchor="start" x="1970.21" y="-2436.32" font-family="Times,serif" font-size="14.00">C1519941</text>
<text text-anchor="start" x="1977.23" y="-2422.32" font-family="Times,serif" font-size="14.00">validate</text>
<text text-anchor="start" x="1983.44" y="-2408.32" font-family="Times,serif" font-size="14.00">96:96</text>
</g>
<!-- id_27418256_DOT_3&#45;&#45;id_27418256_DOT_19 -->
<g id="edge13" class="edge">
<title>id_27418256_DOT_3&#45;&#45;id_27418256_DOT_19</title>
<path fill="none" stroke="black" stroke-dasharray="1,5" d="M2235.26,-2761.34C2185.58,-2690.82 2069.55,-2526.13 2021.17,-2457.46"/>
<text text-anchor="middle" x="2101.97" y="-2612.2" font-family="Times,serif" font-size="14.00">0.846942</text>
</g>
<!-- id_27418256_DOT_24 -->
<g id="node24" class="node">
<title>id_27418256_DOT_24</title>
<polygon fill="blue" stroke="blue" points="2490.97,-3140.88 2495.82,-3141.07 2500.62,-3141.36 2505.35,-3141.74 2509.99,-3142.22 2514.52,-3142.79 2518.93,-3143.45 2523.19,-3144.2 2527.3,-3145.04 2531.23,-3145.96 2534.97,-3146.97 2538.52,-3148.05 2541.84,-3149.22 2544.95,-3150.45 2547.82,-3151.76 2550.46,-3153.13 2552.84,-3154.56 2554.98,-3156.05 2556.85,-3157.6 2558.47,-3159.2 2559.83,-3160.84 2560.93,-3162.53 2561.78,-3164.25 2562.36,-3166.01 2562.7,-3167.79 2562.79,-3169.59 2562.64,-3171.42 2562.26,-3173.25 2561.65,-3175.1 2560.82,-3176.94 2559.79,-3178.78 2558.56,-3180.62 2557.14,-3182.44 2555.54,-3184.25 2553.77,-3186.03 2551.85,-3187.78 2549.78,-3189.51 2547.57,-3191.19 2545.24,-3192.84 2542.8,-3194.43 2540.25,-3195.98 2537.6,-3197.48 2534.88,-3198.91 2532.07,-3200.28 2529.2,-3201.59 2526.26,-3202.82 2523.28,-3203.98 2520.24,-3205.07 2517.17,-3206.07 2514.07,-3206.99 2510.93,-3207.83 2507.77,-3208.58 2504.59,-3209.24 2501.39,-3209.81 2498.18,-3210.29 2494.96,-3210.68 2491.73,-3210.96 2488.5,-3211.16 2485.26,-3211.25 2482.03,-3211.25 2478.79,-3211.16 2475.55,-3210.96 2472.33,-3210.68 2469.11,-3210.29 2465.9,-3209.81 2462.7,-3209.24 2459.52,-3208.58 2456.36,-3207.83 2453.22,-3206.99 2450.12,-3206.07 2447.05,-3205.07 2444.01,-3203.98 2441.03,-3202.82 2438.09,-3201.59 2435.22,-3200.28 2432.41,-3198.91 2429.68,-3197.48 2427.04,-3195.98 2424.49,-3194.43 2422.05,-3192.84 2419.72,-3191.19 2417.51,-3189.51 2415.44,-3187.78 2413.52,-3186.03 2411.75,-3184.25 2410.15,-3182.44 2408.73,-3180.62 2407.5,-3178.78 2406.47,-3176.94 2405.64,-3175.1 2405.03,-3173.25 2404.65,-3171.42 2404.5,-3169.59 2404.59,-3167.79 2404.93,-3166.01 2405.51,-3164.25 2406.36,-3162.53 2407.46,-3160.84 2408.82,-3159.2 2410.44,-3157.6 2412.31,-3156.05 2414.45,-3154.56 2416.83,-3153.13 2419.46,-3151.76 2422.34,-3150.45 2425.44,-3149.22 2428.77,-3148.05 2432.32,-3146.97 2436.06,-3145.96 2439.99,-3145.04 2444.1,-3144.2 2448.36,-3143.45 2452.77,-3142.79 2457.3,-3142.22 2461.94,-3141.74 2466.67,-3141.36 2471.47,-3141.07 2476.32,-3140.88 2481.2,-3140.78 2486.09,-3140.78 2490.97,-3140.88"/>
<text text-anchor="start" x="2454.48" y="-3185.82" font-family="Times,serif" font-size="14.00">C1513016</text>
<text text-anchor="start" x="2438.98" y="-3171.82" font-family="Times,serif" font-size="14.00">MMP inhibitors</text>
<text text-anchor="start" x="2460.7" y="-3157.82" font-family="Times,serif" font-size="14.00">135:136</text>
</g>
<!-- id_27418256_DOT_3&#45;&#45;id_27418256_DOT_24 -->
<g id="edge2" class="edge">
<title>id_27418256_DOT_3&#45;&#45;id_27418256_DOT_24</title>
<path fill="none" stroke="black" d="M2277.49,-2826.52C2319.53,-2897.79 2420.09,-3068.27 2463.32,-3141.57"/>
<text text-anchor="middle" x="2344.16" y="-2986.84" font-family="Times,serif" font-size="14.00">0.124372</text>
</g>
<!-- id_27418256_DOT_4 -->
<g id="node4" class="node">
<title>id_27418256_DOT_4</title>
<polygon fill="blueviolet" stroke="blueviolet" points="3001.06,-1882.85 3009.11,-1883.04 3017.09,-1883.33 3024.94,-1883.71 3032.65,-1884.19 3040.18,-1884.76 3047.51,-1885.42 3054.59,-1886.17 3061.41,-1887.01 3067.95,-1887.93 3074.17,-1888.94 3080.05,-1890.02 3085.59,-1891.18 3090.75,-1892.42 3095.52,-1893.72 3099.89,-1895.09 3103.86,-1896.53 3107.4,-1898.02 3110.52,-1899.57 3113.21,-1901.17 3115.47,-1902.81 3117.3,-1904.5 3118.7,-1906.22 3119.68,-1907.97 3120.24,-1909.76 3120.39,-1911.56 3120.14,-1913.39 3119.5,-1915.22 3118.49,-1917.06 3117.12,-1918.91 3115.4,-1920.75 3113.35,-1922.59 3110.99,-1924.41 3108.34,-1926.21 3105.4,-1928 3102.2,-1929.75 3098.76,-1931.47 3095.1,-1933.16 3091.23,-1934.8 3087.17,-1936.4 3082.93,-1937.95 3078.54,-1939.44 3074.01,-1940.88 3069.34,-1942.25 3064.57,-1943.55 3059.7,-1944.79 3054.73,-1945.95 3049.7,-1947.03 3044.59,-1948.04 3039.43,-1948.96 3034.22,-1949.8 3028.97,-1950.55 3023.69,-1951.21 3018.38,-1951.78 3013.04,-1952.26 3007.69,-1952.64 3002.33,-1952.93 2996.96,-1953.12 2991.58,-1953.22 2986.2,-1953.22 2980.82,-1953.12 2975.45,-1952.93 2970.08,-1952.64 2964.73,-1952.26 2959.4,-1951.78 2954.09,-1951.21 2948.8,-1950.55 2943.55,-1949.8 2938.34,-1948.96 2933.18,-1948.04 2928.08,-1947.03 2923.04,-1945.95 2918.08,-1944.79 2913.21,-1943.55 2908.43,-1942.25 2903.77,-1940.88 2899.24,-1939.44 2894.84,-1937.95 2890.61,-1936.4 2886.55,-1934.8 2882.67,-1933.16 2879.01,-1931.47 2875.57,-1929.75 2872.38,-1928 2869.44,-1926.21 2866.78,-1924.41 2864.42,-1922.59 2862.37,-1920.75 2860.66,-1918.91 2859.29,-1917.06 2858.27,-1915.22 2857.64,-1913.39 2857.39,-1911.56 2857.54,-1909.76 2858.1,-1907.97 2859.08,-1906.22 2860.48,-1904.5 2862.3,-1902.81 2864.56,-1901.17 2867.25,-1899.57 2870.37,-1898.02 2873.92,-1896.53 2877.88,-1895.09 2882.25,-1893.72 2887.03,-1892.42 2892.19,-1891.18 2897.72,-1890.02 2903.61,-1888.94 2909.83,-1887.93 2916.36,-1887.01 2923.18,-1886.17 2930.27,-1885.42 2937.59,-1884.76 2945.12,-1884.19 2952.83,-1883.71 2960.69,-1883.33 2968.66,-1883.04 2976.72,-1882.85 2984.83,-1882.75 2992.95,-1882.75 3001.06,-1882.85"/>
<text text-anchor="start" x="2959.72" y="-1927.79" font-family="Times,serif" font-size="14.00">C0172537</text>
<text text-anchor="start" x="2909.57" y="-1913.79" font-family="Times,serif" font-size="14.00">Matrix Metalloproteinases 2</text>
<text text-anchor="start" x="2972.94" y="-1899.79" font-family="Times,serif" font-size="14.00">10:12</text>
</g>
<!-- id_27418256_DOT_8 -->
<g id="node8" class="node">
<title>id_27418256_DOT_8</title>
<polygon fill="blueviolet" stroke="blueviolet" points="2588.61,-1941.75 2592.04,-1941.94 2595.44,-1942.23 2598.78,-1942.62 2602.06,-1943.09 2605.26,-1943.66 2608.38,-1944.33 2611.4,-1945.08 2614.3,-1945.91 2617.08,-1946.84 2619.73,-1947.84 2622.23,-1948.93 2624.58,-1950.09 2626.78,-1951.32 2628.81,-1952.63 2630.67,-1954 2632.36,-1955.43 2633.87,-1956.93 2635.2,-1958.47 2636.34,-1960.07 2637.3,-1961.72 2638.08,-1963.4 2638.68,-1965.12 2639.09,-1966.88 2639.33,-1968.66 2639.39,-1970.47 2639.29,-1972.29 2639.02,-1974.12 2638.59,-1975.97 2638,-1977.81 2637.27,-1979.66 2636.4,-1981.49 2635.4,-1983.31 2634.27,-1985.12 2633.02,-1986.9 2631.66,-1988.66 2630.19,-1990.38 2628.63,-1992.06 2626.99,-1993.71 2625.26,-1995.31 2623.46,-1996.85 2621.59,-1998.35 2619.66,-1999.78 2617.67,-2001.15 2615.64,-2002.46 2613.57,-2003.69 2611.46,-2004.85 2609.31,-2005.94 2607.14,-2006.94 2604.94,-2007.87 2602.73,-2008.7 2600.49,-2009.45 2598.25,-2010.12 2595.99,-2010.69 2593.72,-2011.16 2591.44,-2011.55 2589.16,-2011.84 2586.87,-2012.03 2584.58,-2012.12 2582.29,-2012.12 2580,-2012.03 2577.72,-2011.84 2575.43,-2011.55 2573.16,-2011.16 2570.89,-2010.69 2568.63,-2010.12 2566.38,-2009.45 2564.15,-2008.7 2561.93,-2007.87 2559.73,-2006.94 2557.56,-2005.94 2555.42,-2004.85 2553.31,-2003.69 2551.23,-2002.46 2549.2,-2001.15 2547.22,-1999.78 2545.29,-1998.35 2543.42,-1996.85 2541.62,-1995.31 2539.89,-1993.71 2538.24,-1992.06 2536.68,-1990.38 2535.22,-1988.66 2533.86,-1986.9 2532.61,-1985.12 2531.48,-1983.31 2530.47,-1981.49 2529.6,-1979.66 2528.87,-1977.81 2528.29,-1975.97 2527.86,-1974.12 2527.59,-1972.29 2527.48,-1970.47 2527.54,-1968.66 2527.78,-1966.88 2528.2,-1965.12 2528.79,-1963.4 2529.57,-1961.72 2530.53,-1960.07 2531.68,-1958.47 2533,-1956.93 2534.51,-1955.43 2536.2,-1954 2538.06,-1952.63 2540.09,-1951.32 2542.29,-1950.09 2544.64,-1948.93 2547.15,-1947.84 2549.79,-1946.84 2552.57,-1945.91 2555.48,-1945.08 2558.49,-1944.33 2561.61,-1943.66 2564.81,-1943.09 2568.09,-1942.62 2571.44,-1942.23 2574.83,-1941.94 2578.26,-1941.75 2581.71,-1941.65 2585.17,-1941.65 2588.61,-1941.75"/>
<text text-anchor="start" x="2554.27" y="-1986.69" font-family="Times,serif" font-size="14.00">C0172537</text>
<text text-anchor="start" x="2561.26" y="-1972.69" font-family="Times,serif" font-size="14.00">MMP&#45;2</text>
<text text-anchor="start" x="2567.49" y="-1958.69" font-family="Times,serif" font-size="14.00">29:29</text>
</g>
<!-- id_27418256_DOT_4&#45;&#45;id_27418256_DOT_8 -->
<g id="edge3" class="edge">
<title>id_27418256_DOT_4&#45;&#45;id_27418256_DOT_8</title>
<path fill="none" stroke="black" d="M2882.89,-1933.39C2804.99,-1944.7 2702.21,-1959.63 2639.56,-1968.74"/>
<text text-anchor="middle" x="2734.98" y="-1953.86" font-family="Times,serif" font-size="14.00">0.004356</text>
</g>
<!-- id_27418256_DOT_5 -->
<g id="node5" class="node">
<title>id_27418256_DOT_5</title>
<polygon fill="brown" stroke="brown" points="1867.63,-1777.72 1871.05,-1777.91 1874.45,-1778.2 1877.79,-1778.59 1881.07,-1779.06 1884.28,-1779.63 1887.39,-1780.29 1890.41,-1781.05 1893.31,-1781.88 1896.09,-1782.81 1898.74,-1783.81 1901.24,-1784.9 1903.6,-1786.06 1905.79,-1787.29 1907.82,-1788.6 1909.68,-1789.97 1911.37,-1791.4 1912.88,-1792.89 1914.21,-1794.44 1915.35,-1796.04 1916.31,-1797.68 1917.09,-1799.37 1917.69,-1801.09 1918.1,-1802.85 1918.34,-1804.63 1918.4,-1806.44 1918.3,-1808.26 1918.03,-1810.09 1917.6,-1811.94 1917.01,-1813.78 1916.28,-1815.62 1915.41,-1817.46 1914.41,-1819.28 1913.28,-1821.09 1912.03,-1822.87 1910.67,-1824.62 1909.2,-1826.35 1907.64,-1828.03 1906,-1829.68 1904.27,-1831.28 1902.47,-1832.82 1900.6,-1834.32 1898.67,-1835.75 1896.68,-1837.12 1894.65,-1838.43 1892.58,-1839.66 1890.47,-1840.82 1888.32,-1841.91 1886.15,-1842.91 1883.96,-1843.84 1881.74,-1844.67 1879.5,-1845.42 1877.26,-1846.08 1875,-1846.65 1872.73,-1847.13 1870.45,-1847.52 1868.17,-1847.8 1865.88,-1848 1863.59,-1848.09 1861.3,-1848.09 1859.01,-1848 1856.73,-1847.8 1854.45,-1847.52 1852.17,-1847.13 1849.9,-1846.65 1847.64,-1846.08 1845.39,-1845.42 1843.16,-1844.67 1840.94,-1843.84 1838.74,-1842.91 1836.57,-1841.91 1834.43,-1840.82 1832.32,-1839.66 1830.24,-1838.43 1828.21,-1837.12 1826.23,-1835.75 1824.3,-1834.32 1822.43,-1832.82 1820.63,-1831.28 1818.9,-1829.68 1817.25,-1828.03 1815.69,-1826.35 1814.23,-1824.62 1812.87,-1822.87 1811.62,-1821.09 1810.49,-1819.28 1809.48,-1817.46 1808.61,-1815.62 1807.88,-1813.78 1807.3,-1811.94 1806.87,-1810.09 1806.6,-1808.26 1806.49,-1806.44 1806.56,-1804.63 1806.79,-1802.85 1807.21,-1801.09 1807.8,-1799.37 1808.58,-1797.68 1809.54,-1796.04 1810.69,-1794.44 1812.02,-1792.89 1813.52,-1791.4 1815.21,-1789.97 1817.07,-1788.6 1819.1,-1787.29 1821.3,-1786.06 1823.65,-1784.9 1826.16,-1783.81 1828.81,-1782.81 1831.59,-1781.88 1834.49,-1781.05 1837.5,-1780.29 1840.62,-1779.63 1843.82,-1779.06 1847.1,-1778.59 1850.45,-1778.2 1853.84,-1777.91 1857.27,-1777.72 1860.72,-1777.62 1864.18,-1777.62 1867.63,-1777.72"/>
<text text-anchor="start" x="1833.28" y="-1822.66" font-family="Times,serif" font-size="14.00">C0255672</text>
<text text-anchor="start" x="1855.45" y="-1808.66" font-family="Times,serif" font-size="14.00">13</text>
<text text-anchor="start" x="1846.5" y="-1794.66" font-family="Times,serif" font-size="14.00">14:14</text>
</g>
<!-- id_27418256_DOT_9 -->
<g id="node9" class="node">
<title>id_27418256_DOT_9</title>
<polygon fill="brown" stroke="brown" points="2182.5,-1963.5 2185.93,-1963.69 2189.33,-1963.98 2192.67,-1964.36 2195.95,-1964.84 2199.15,-1965.41 2202.27,-1966.07 2205.29,-1966.82 2208.19,-1967.66 2210.97,-1968.58 2213.62,-1969.59 2216.12,-1970.67 2218.47,-1971.83 2220.67,-1973.07 2222.7,-1974.37 2224.56,-1975.75 2226.25,-1977.18 2227.76,-1978.67 2229.09,-1980.22 2230.23,-1981.82 2231.19,-1983.46 2231.97,-1985.15 2232.57,-1986.87 2232.98,-1988.63 2233.22,-1990.41 2233.28,-1992.21 2233.18,-1994.04 2232.91,-1995.87 2232.48,-1997.71 2231.89,-1999.56 2231.16,-2001.4 2230.29,-2003.24 2229.29,-2005.06 2228.15,-2006.87 2226.91,-2008.65 2225.55,-2010.4 2224.08,-2012.13 2222.52,-2013.81 2220.88,-2015.46 2219.15,-2017.05 2217.35,-2018.6 2215.48,-2020.09 2213.55,-2021.53 2211.56,-2022.9 2209.53,-2024.2 2207.46,-2025.44 2205.35,-2026.6 2203.2,-2027.69 2201.03,-2028.69 2198.83,-2029.61 2196.62,-2030.45 2194.38,-2031.2 2192.13,-2031.86 2189.87,-2032.43 2187.61,-2032.91 2185.33,-2033.29 2183.05,-2033.58 2180.76,-2033.78 2178.47,-2033.87 2176.18,-2033.87 2173.89,-2033.78 2171.61,-2033.58 2169.32,-2033.29 2167.05,-2032.91 2164.78,-2032.43 2162.52,-2031.86 2160.27,-2031.2 2158.04,-2030.45 2155.82,-2029.61 2153.62,-2028.69 2151.45,-2027.69 2149.31,-2026.6 2147.19,-2025.44 2145.12,-2024.2 2143.09,-2022.9 2141.11,-2021.53 2139.18,-2020.09 2137.31,-2018.6 2135.51,-2017.05 2133.78,-2015.46 2132.13,-2013.81 2130.57,-2012.13 2129.11,-2010.4 2127.75,-2008.65 2126.5,-2006.87 2125.37,-2005.06 2124.36,-2003.24 2123.49,-2001.4 2122.76,-1999.56 2122.18,-1997.71 2121.75,-1995.87 2121.48,-1994.04 2121.37,-1992.21 2121.43,-1990.41 2121.67,-1988.63 2122.09,-1986.87 2122.68,-1985.15 2123.46,-1983.46 2124.42,-1981.82 2125.57,-1980.22 2126.89,-1978.67 2128.4,-1977.18 2130.09,-1975.75 2131.95,-1974.37 2133.98,-1973.07 2136.18,-1971.83 2138.53,-1970.67 2141.04,-1969.59 2143.68,-1968.58 2146.46,-1967.66 2149.37,-1966.82 2152.38,-1966.07 2155.5,-1965.41 2158.7,-1964.84 2161.98,-1964.36 2165.33,-1963.98 2168.72,-1963.69 2172.15,-1963.5 2175.6,-1963.4 2179.05,-1963.4 2182.5,-1963.5"/>
<text text-anchor="start" x="2148.16" y="-2008.44" font-family="Times,serif" font-size="14.00">C0255672</text>
<text text-anchor="start" x="2151.65" y="-1994.44" font-family="Times,serif" font-size="14.00">MMP&#45;13</text>
<text text-anchor="start" x="2161.38" y="-1980.44" font-family="Times,serif" font-size="14.00">31:31</text>
</g>
<!-- id_27418256_DOT_5&#45;&#45;id_27418256_DOT_9 -->
<g id="edge4" class="edge">
<title>id_27418256_DOT_5&#45;&#45;id_27418256_DOT_9</title>
<path fill="none" stroke="black" d="M1900.12,-1835.08C1958.8,-1869.71 2071.74,-1936.34 2133.82,-1972.97"/>
<text text-anchor="middle" x="1990.72" y="-1906.83" font-family="Times,serif" font-size="14.00">0.029063</text>
</g>
<!-- id_27418256_DOT_6 -->
<g id="node6" class="node">
<title>id_27418256_DOT_6</title>
<polygon fill="cadetblue" stroke="cadetblue" points="2471.11,-3920.31 2478.61,-3920.5 2486.02,-3920.79 2493.33,-3921.17 2500.51,-3921.65 2507.51,-3922.22 2514.33,-3922.88 2520.92,-3923.63 2527.26,-3924.47 2533.34,-3925.39 2539.13,-3926.4 2544.61,-3927.48 2549.75,-3928.64 2554.55,-3929.88 2558.99,-3931.18 2563.06,-3932.55 2566.75,-3933.99 2570.05,-3935.48 2572.95,-3937.03 2575.45,-3938.63 2577.56,-3940.27 2579.26,-3941.96 2580.56,-3943.68 2581.47,-3945.43 2581.99,-3947.22 2582.13,-3949.02 2581.9,-3950.84 2581.3,-3952.68 2580.36,-3954.52 2579.09,-3956.37 2577.49,-3958.21 2575.58,-3960.05 2573.39,-3961.87 2570.92,-3963.67 2568.19,-3965.46 2565.21,-3967.21 2562.01,-3968.93 2558.6,-3970.62 2555,-3972.26 2551.22,-3973.86 2547.28,-3975.41 2543.2,-3976.9 2538.98,-3978.34 2534.64,-3979.71 2530.2,-3981.01 2525.67,-3982.25 2521.05,-3983.41 2516.36,-3984.49 2511.61,-3985.5 2506.81,-3986.42 2501.97,-3987.26 2497.08,-3988.01 2492.17,-3988.67 2487.22,-3989.24 2482.26,-3989.72 2477.28,-3990.1 2472.29,-3990.39 2467.3,-3990.58 2462.29,-3990.68 2457.29,-3990.68 2452.28,-3990.58 2447.29,-3990.39 2442.3,-3990.1 2437.32,-3989.72 2432.36,-3989.24 2427.41,-3988.67 2422.5,-3988.01 2417.61,-3987.26 2412.77,-3986.42 2407.97,-3985.5 2403.22,-3984.49 2398.53,-3983.41 2393.91,-3982.25 2389.38,-3981.01 2384.94,-3979.71 2380.6,-3978.34 2376.38,-3976.9 2372.3,-3975.41 2368.36,-3973.86 2364.58,-3972.26 2360.98,-3970.62 2357.57,-3968.93 2354.37,-3967.21 2351.4,-3965.46 2348.66,-3963.67 2346.19,-3961.87 2344,-3960.05 2342.09,-3958.21 2340.49,-3956.37 2339.22,-3954.52 2338.28,-3952.68 2337.68,-3950.84 2337.45,-3949.02 2337.59,-3947.22 2338.11,-3945.43 2339.02,-3943.68 2340.32,-3941.96 2342.03,-3940.27 2344.13,-3938.63 2346.63,-3937.03 2349.53,-3935.48 2352.83,-3933.99 2356.52,-3932.55 2360.59,-3931.18 2365.03,-3929.88 2369.83,-3928.64 2374.98,-3927.48 2380.45,-3926.4 2386.24,-3925.39 2392.32,-3924.47 2398.66,-3923.63 2405.26,-3922.88 2412.07,-3922.22 2419.07,-3921.65 2426.25,-3921.17 2433.56,-3920.79 2440.97,-3920.5 2448.47,-3920.31 2456.01,-3920.21 2463.57,-3920.21 2471.11,-3920.31"/>
<text text-anchor="start" x="2430.62" y="-3965.24" font-family="Times,serif" font-size="14.00">C0623362</text>
<text text-anchor="start" x="2386.51" y="-3951.24" font-family="Times,serif" font-size="14.00">Matrix metalloproteinases</text>
<text text-anchor="start" x="2443.85" y="-3937.24" font-family="Times,serif" font-size="14.00">15:16</text>
</g>
<!-- id_27418256_DOT_13 -->
<g id="node13" class="node">
<title>id_27418256_DOT_13</title>
<polygon fill="cadetblue" stroke="cadetblue" points="2410.87,-3535.28 2416.2,-3535.48 2421.47,-3535.76 2426.67,-3536.15 2431.77,-3536.63 2436.75,-3537.2 2441.59,-3537.86 2446.28,-3538.61 2450.79,-3539.45 2455.11,-3540.37 2459.23,-3541.37 2463.12,-3542.46 2466.78,-3543.62 2470.19,-3544.85 2473.35,-3546.16 2476.24,-3547.53 2478.86,-3548.96 2481.21,-3550.46 2483.27,-3552.01 2485.05,-3553.6 2486.55,-3555.25 2487.75,-3556.93 2488.68,-3558.66 2489.33,-3560.41 2489.7,-3562.19 2489.8,-3564 2489.63,-3565.82 2489.21,-3567.66 2488.54,-3569.5 2487.64,-3571.34 2486.5,-3573.19 2485.14,-3575.02 2483.58,-3576.85 2481.83,-3578.65 2479.88,-3580.43 2477.77,-3582.19 2475.5,-3583.91 2473.07,-3585.6 2470.51,-3587.24 2467.82,-3588.84 2465.02,-3590.39 2462.12,-3591.88 2459.12,-3593.31 2456.04,-3594.68 2452.88,-3595.99 2449.66,-3597.22 2446.37,-3598.39 2443.04,-3599.47 2439.66,-3600.48 2436.25,-3601.4 2432.81,-3602.24 2429.33,-3602.99 2425.84,-3603.65 2422.33,-3604.22 2418.8,-3604.7 2415.26,-3605.08 2411.71,-3605.37 2408.16,-3605.56 2404.6,-3605.66 2401.04,-3605.66 2397.48,-3605.56 2393.93,-3605.37 2390.38,-3605.08 2386.84,-3604.7 2383.32,-3604.22 2379.8,-3603.65 2376.31,-3602.99 2372.84,-3602.24 2369.39,-3601.4 2365.98,-3600.48 2362.6,-3599.47 2359.27,-3598.39 2355.99,-3597.22 2352.76,-3595.99 2349.61,-3594.68 2346.52,-3593.31 2343.52,-3591.88 2340.62,-3590.39 2337.82,-3588.84 2335.13,-3587.24 2332.57,-3585.6 2330.15,-3583.91 2327.87,-3582.19 2325.76,-3580.43 2323.82,-3578.65 2322.06,-3576.85 2320.5,-3575.02 2319.14,-3573.19 2318.01,-3571.34 2317.1,-3569.5 2316.43,-3567.66 2316.01,-3565.82 2315.85,-3564 2315.95,-3562.19 2316.32,-3560.41 2316.96,-3558.66 2317.89,-3556.93 2319.1,-3555.25 2320.59,-3553.6 2322.37,-3552.01 2324.43,-3550.46 2326.78,-3548.96 2329.4,-3547.53 2332.29,-3546.16 2335.45,-3544.85 2338.86,-3543.62 2342.52,-3542.46 2346.42,-3541.37 2350.53,-3540.37 2354.85,-3539.45 2359.36,-3538.61 2364.05,-3537.86 2368.89,-3537.2 2373.87,-3536.63 2378.97,-3536.15 2384.17,-3535.76 2389.44,-3535.48 2394.77,-3535.28 2400.13,-3535.19 2405.51,-3535.19 2410.87,-3535.28"/>
<text text-anchor="start" x="2373.65" y="-3580.22" font-family="Times,serif" font-size="14.00">C0623362</text>
<text text-anchor="start" x="2353.06" y="-3566.22" font-family="Times,serif" font-size="14.00">metalloproteinase</text>
<text text-anchor="start" x="2386.88" y="-3552.22" font-family="Times,serif" font-size="14.00">54:54</text>
</g>
<!-- id_27418256_DOT_6&#45;&#45;id_27418256_DOT_13 -->
<g id="edge5" class="edge">
<title>id_27418256_DOT_6&#45;&#45;id_27418256_DOT_13</title>
<path fill="none" stroke="black" d="M2454.53,-3919.91C2443.67,-3846.47 2418.84,-3678.72 2408.02,-3605.59"/>
<text text-anchor="middle" x="2405.03" y="-3765.55" font-family="Times,serif" font-size="14.00">0.010720</text>
</g>
<!-- id_27418256_DOT_7 -->
<g id="node7" class="node">
<title>id_27418256_DOT_7</title>
<polygon fill="chartreuse" stroke="chartreuse" points="944.15,-2934.4 947.87,-2934.59 951.56,-2934.88 955.19,-2935.26 958.76,-2935.74 962.24,-2936.31 965.63,-2936.97 968.9,-2937.72 972.06,-2938.56 975.08,-2939.48 977.95,-2940.49 980.68,-2941.57 983.23,-2942.73 985.62,-2943.97 987.83,-2945.27 989.85,-2946.64 991.68,-2948.08 993.32,-2949.57 994.76,-2951.12 996.01,-2952.72 997.05,-2954.36 997.9,-2956.05 998.55,-2957.77 999,-2959.53 999.26,-2961.31 999.33,-2963.11 999.21,-2964.94 998.92,-2966.77 998.45,-2968.61 997.81,-2970.46 997.02,-2972.3 996.07,-2974.14 994.98,-2975.96 993.75,-2977.76 992.4,-2979.55 990.92,-2981.3 989.33,-2983.02 987.63,-2984.71 985.84,-2986.35 983.97,-2987.95 982.01,-2989.5 979.98,-2990.99 977.88,-2992.43 975.72,-2993.8 973.52,-2995.1 971.26,-2996.34 968.97,-2997.5 966.64,-2998.58 964.28,-2999.59 961.89,-3000.51 959.48,-3001.35 957.06,-3002.1 954.61,-3002.76 952.16,-3003.33 949.69,-3003.81 947.22,-3004.19 944.74,-3004.48 942.25,-3004.68 939.76,-3004.77 937.28,-3004.77 934.79,-3004.68 932.31,-3004.48 929.83,-3004.19 927.35,-3003.81 924.89,-3003.33 922.43,-3002.76 919.99,-3002.1 917.56,-3001.35 915.15,-3000.51 912.76,-2999.59 910.4,-2998.58 908.07,-2997.5 905.78,-2996.34 903.52,-2995.1 901.32,-2993.8 899.16,-2992.43 897.07,-2990.99 895.03,-2989.5 893.08,-2987.95 891.2,-2986.35 889.41,-2984.71 887.71,-2983.02 886.12,-2981.3 884.65,-2979.55 883.29,-2977.76 882.06,-2975.96 880.97,-2974.14 880.02,-2972.3 879.23,-2970.46 878.59,-2968.61 878.12,-2966.77 877.83,-2964.94 877.72,-2963.11 877.79,-2961.31 878.04,-2959.53 878.5,-2957.77 879.14,-2956.05 879.99,-2954.36 881.03,-2952.72 882.28,-2951.12 883.72,-2949.57 885.36,-2948.08 887.19,-2946.64 889.21,-2945.27 891.42,-2943.97 893.81,-2942.73 896.37,-2941.57 899.09,-2940.49 901.96,-2939.48 904.98,-2938.56 908.14,-2937.72 911.42,-2936.97 914.8,-2936.31 918.28,-2935.74 921.85,-2935.26 925.48,-2934.88 929.17,-2934.59 932.89,-2934.4 936.64,-2934.3 940.4,-2934.3 944.15,-2934.4"/>
<text text-anchor="start" x="909.35" y="-2979.34" font-family="Times,serif" font-size="14.00">C0699748</text>
<text text-anchor="start" x="906.25" y="-2965.34" font-family="Times,serif" font-size="14.00">pathologies</text>
<text text-anchor="start" x="922.58" y="-2951.34" font-family="Times,serif" font-size="14.00">24:24</text>
</g>
<!-- id_27418256_DOT_20 -->
<g id="node20" class="node">
<title>id_27418256_DOT_20</title>
<polygon fill="darkmagenta" stroke="darkmagenta" points="687.27,-3237.03 690.69,-3237.22 694.06,-3237.51 697.39,-3237.89 700.65,-3238.37 703.84,-3238.94 706.94,-3239.6 709.95,-3240.35 712.83,-3241.19 715.6,-3242.11 718.23,-3243.12 720.73,-3244.2 723.07,-3245.36 725.26,-3246.6 727.28,-3247.9 729.13,-3249.27 730.81,-3250.71 732.31,-3252.2 733.63,-3253.75 734.77,-3255.35 735.73,-3256.99 736.5,-3258.68 737.09,-3260.4 737.51,-3262.15 737.74,-3263.94 737.81,-3265.74 737.7,-3267.56 737.43,-3269.4 737,-3271.24 736.42,-3273.09 735.7,-3274.93 734.83,-3276.76 733.83,-3278.59 732.7,-3280.39 731.46,-3282.18 730.11,-3283.93 728.65,-3285.65 727.1,-3287.34 725.46,-3288.98 723.74,-3290.58 721.95,-3292.13 720.09,-3293.62 718.17,-3295.06 716.19,-3296.43 714.17,-3297.73 712.11,-3298.97 710.01,-3300.13 707.87,-3301.21 705.71,-3302.22 703.52,-3303.14 701.32,-3303.98 699.1,-3304.73 696.86,-3305.39 694.61,-3305.96 692.35,-3306.44 690.08,-3306.82 687.81,-3307.11 685.54,-3307.3 683.26,-3307.4 680.98,-3307.4 678.71,-3307.3 676.43,-3307.11 674.16,-3306.82 671.89,-3306.44 669.63,-3305.96 667.39,-3305.39 665.15,-3304.73 662.92,-3303.98 660.72,-3303.14 658.53,-3302.22 656.37,-3301.21 654.24,-3300.13 652.14,-3298.97 650.07,-3297.73 648.05,-3296.43 646.08,-3295.06 644.16,-3293.62 642.3,-3292.13 640.5,-3290.58 638.78,-3288.98 637.14,-3287.34 635.59,-3285.65 634.14,-3283.93 632.78,-3282.18 631.54,-3280.39 630.42,-3278.59 629.42,-3276.76 628.55,-3274.93 627.82,-3273.09 627.24,-3271.24 626.81,-3269.4 626.54,-3267.56 626.44,-3265.74 626.5,-3263.94 626.74,-3262.15 627.15,-3260.4 627.74,-3258.68 628.52,-3256.99 629.48,-3255.35 630.61,-3253.75 631.94,-3252.2 633.44,-3250.71 635.11,-3249.27 636.97,-3247.9 638.99,-3246.6 641.17,-3245.36 643.52,-3244.2 646.01,-3243.12 648.64,-3242.11 651.41,-3241.19 654.3,-3240.35 657.3,-3239.6 660.4,-3238.94 663.59,-3238.37 666.85,-3237.89 670.18,-3237.51 673.56,-3237.22 676.97,-3237.03 680.4,-3236.93 683.84,-3236.93 687.27,-3237.03"/>
<text text-anchor="start" x="653.21" y="-3281.96" font-family="Times,serif" font-size="14.00">C1179132</text>
<text text-anchor="start" x="656.98" y="-3267.96" font-family="Times,serif" font-size="14.00">scaffolds</text>
<text text-anchor="start" x="659.18" y="-3253.96" font-family="Times,serif" font-size="14.00">101:101</text>
</g>
<!-- id_27418256_DOT_7&#45;&#45;id_27418256_DOT_20 -->
<g id="edge14" class="edge">
<title>id_27418256_DOT_7&#45;&#45;id_27418256_DOT_20</title>
<path fill="none" stroke="black" stroke-dasharray="1,5" d="M912.76,-2999.94C864.12,-3057.35 759.19,-3181.2 709.4,-3239.96"/>
<text text-anchor="middle" x="785.09" y="-3122.75" font-family="Times,serif" font-size="14.00">0.711339</text>
</g>
<!-- id_27418256_DOT_25 -->
<g id="node25" class="node">
<title>id_27418256_DOT_25</title>
<polygon fill="darkorange" stroke="darkorange" points="1146.13,-2567.77 1150.72,-2567.97 1155.26,-2568.25 1159.74,-2568.64 1164.13,-2569.12 1168.42,-2569.69 1172.6,-2570.35 1176.63,-2571.1 1180.52,-2571.94 1184.24,-2572.86 1187.79,-2573.86 1191.14,-2574.95 1194.29,-2576.11 1197.23,-2577.34 1199.95,-2578.65 1202.45,-2580.02 1204.7,-2581.45 1206.72,-2582.95 1208.5,-2584.5 1210.03,-2586.09 1211.32,-2587.74 1212.36,-2589.42 1213.16,-2591.15 1213.72,-2592.9 1214.04,-2594.68 1214.12,-2596.49 1213.98,-2598.31 1213.62,-2600.15 1213.04,-2601.99 1212.26,-2603.83 1211.28,-2605.68 1210.11,-2607.51 1208.77,-2609.34 1207.26,-2611.14 1205.58,-2612.92 1203.76,-2614.68 1201.8,-2616.4 1199.71,-2618.09 1197.51,-2619.73 1195.19,-2621.33 1192.78,-2622.88 1190.28,-2624.37 1187.7,-2625.8 1185.04,-2627.17 1182.32,-2628.48 1179.54,-2629.71 1176.71,-2630.88 1173.84,-2631.96 1170.94,-2632.97 1167.99,-2633.89 1165.03,-2634.73 1162.04,-2635.48 1159.02,-2636.14 1156,-2636.71 1152.96,-2637.19 1149.91,-2637.57 1146.85,-2637.86 1143.79,-2638.05 1140.73,-2638.15 1137.66,-2638.15 1134.6,-2638.05 1131.54,-2637.86 1128.48,-2637.57 1125.43,-2637.19 1122.39,-2636.71 1119.37,-2636.14 1116.36,-2635.48 1113.37,-2634.73 1110.4,-2633.89 1107.46,-2632.97 1104.55,-2631.96 1101.68,-2630.88 1098.85,-2629.71 1096.07,-2628.48 1093.35,-2627.17 1090.7,-2625.8 1088.11,-2624.37 1085.61,-2622.88 1083.2,-2621.33 1080.88,-2619.73 1078.68,-2618.09 1076.59,-2616.4 1074.63,-2614.68 1072.81,-2612.92 1071.14,-2611.14 1069.62,-2609.34 1068.28,-2607.51 1067.11,-2605.68 1066.13,-2603.83 1065.35,-2601.99 1064.78,-2600.15 1064.41,-2598.31 1064.27,-2596.49 1064.36,-2594.68 1064.68,-2592.9 1065.23,-2591.15 1066.03,-2589.42 1067.07,-2587.74 1068.36,-2586.09 1069.89,-2584.5 1071.67,-2582.95 1073.69,-2581.45 1075.95,-2580.02 1078.44,-2578.65 1081.16,-2577.34 1084.1,-2576.11 1087.25,-2574.95 1090.61,-2573.86 1094.15,-2572.86 1097.87,-2571.94 1101.76,-2571.1 1105.8,-2570.35 1109.97,-2569.69 1114.26,-2569.12 1118.65,-2568.64 1123.13,-2568.25 1127.67,-2567.97 1132.26,-2567.77 1136.88,-2567.68 1141.51,-2567.68 1146.13,-2567.77"/>
<text text-anchor="start" x="1110.03" y="-2612.71" font-family="Times,serif" font-size="14.00">C0444454</text>
<text text-anchor="start" x="1097.42" y="-2598.71" font-family="Times,serif" font-size="14.00">creative access</text>
<text text-anchor="start" x="1116.25" y="-2584.71" font-family="Times,serif" font-size="14.00">151:152</text>
</g>
<!-- id_27418256_DOT_7&#45;&#45;id_27418256_DOT_25 -->
<g id="edge15" class="edge">
<title>id_27418256_DOT_7&#45;&#45;id_27418256_DOT_25</title>
<path fill="none" stroke="black" stroke-dasharray="1,5" d="M957.22,-2935.37C995.56,-2865.34 1082.65,-2706.21 1120.76,-2636.59"/>
<text text-anchor="middle" x="1012.74" y="-2788.78" font-family="Times,serif" font-size="14.00">0.783666</text>
</g>
<!-- id_27418256_DOT_8&#45;&#45;id_27418256_DOT_9 -->
<g id="edge16" class="edge">
<title>id_27418256_DOT_8&#45;&#45;id_27418256_DOT_9</title>
<path fill="none" stroke="black" stroke-dasharray="1,5" d="M2529.51,-1979.78C2452.37,-1983.91 2311.25,-1991.47 2233.11,-1995.65"/>
<text text-anchor="middle" x="2355.06" y="-1990.51" font-family="Times,serif" font-size="14.00">0.914565</text>
</g>
<!-- id_27418256_DOT_9&#45;&#45;id_27418256_DOT_19 -->
<g id="edge17" class="edge">
<title>id_27418256_DOT_9&#45;&#45;id_27418256_DOT_19</title>
<path fill="none" stroke="black" stroke-dasharray="1,5" d="M2163.36,-2032.21C2130.26,-2111.81 2047.3,-2311.3 2013.77,-2391.92"/>
<text text-anchor="middle" x="2062.32" y="-2214.86" font-family="Times,serif" font-size="14.00">0.670713</text>
</g>
<!-- id_27418256_DOT_23 -->
<g id="node23" class="node">
<title>id_27418256_DOT_23</title>
<polygon fill="aquamarine" stroke="aquamarine" points="2238.72,-1525.06 2242.14,-1525.25 2245.54,-1525.54 2248.88,-1525.92 2252.16,-1526.4 2255.37,-1526.97 2258.48,-1527.63 2261.5,-1528.38 2264.4,-1529.22 2267.18,-1530.14 2269.83,-1531.15 2272.33,-1532.23 2274.69,-1533.39 2276.88,-1534.63 2278.91,-1535.93 2280.78,-1537.3 2282.46,-1538.74 2283.97,-1540.23 2285.3,-1541.78 2286.44,-1543.38 2287.4,-1545.02 2288.18,-1546.71 2288.78,-1548.43 2289.19,-1550.18 2289.43,-1551.97 2289.5,-1553.77 2289.39,-1555.59 2289.12,-1557.43 2288.69,-1559.27 2288.1,-1561.12 2287.37,-1562.96 2286.5,-1564.8 2285.5,-1566.62 2284.37,-1568.42 2283.12,-1570.21 2281.76,-1571.96 2280.29,-1573.68 2278.74,-1575.37 2277.09,-1577.01 2275.36,-1578.61 2273.56,-1580.16 2271.69,-1581.65 2269.76,-1583.09 2267.78,-1584.46 2265.74,-1585.76 2263.67,-1587 2261.56,-1588.16 2259.41,-1589.24 2257.24,-1590.25 2255.05,-1591.17 2252.83,-1592.01 2250.6,-1592.76 2248.35,-1593.42 2246.09,-1593.99 2243.82,-1594.47 2241.54,-1594.85 2239.26,-1595.14 2236.97,-1595.33 2234.68,-1595.43 2232.39,-1595.43 2230.11,-1595.33 2227.82,-1595.14 2225.54,-1594.85 2223.26,-1594.47 2220.99,-1593.99 2218.73,-1593.42 2216.48,-1592.76 2214.25,-1592.01 2212.03,-1591.17 2209.83,-1590.25 2207.66,-1589.24 2205.52,-1588.16 2203.41,-1587 2201.33,-1585.76 2199.3,-1584.46 2197.32,-1583.09 2195.39,-1581.65 2193.52,-1580.16 2191.72,-1578.61 2189.99,-1577.01 2188.34,-1575.37 2186.78,-1573.68 2185.32,-1571.96 2183.96,-1570.21 2182.71,-1568.42 2181.58,-1566.62 2180.57,-1564.8 2179.7,-1562.96 2178.97,-1561.12 2178.39,-1559.27 2177.96,-1557.43 2177.69,-1555.59 2177.58,-1553.77 2177.65,-1551.97 2177.88,-1550.18 2178.3,-1548.43 2178.9,-1546.71 2179.67,-1545.02 2180.63,-1543.38 2181.78,-1541.78 2183.11,-1540.23 2184.61,-1538.74 2186.3,-1537.3 2188.16,-1535.93 2190.19,-1534.63 2192.39,-1533.39 2194.74,-1532.23 2197.25,-1531.15 2199.9,-1530.14 2202.68,-1529.22 2205.58,-1528.38 2208.59,-1527.63 2211.71,-1526.97 2214.92,-1526.4 2218.2,-1525.92 2221.54,-1525.54 2224.93,-1525.25 2228.36,-1525.06 2231.81,-1524.96 2235.27,-1524.96 2238.72,-1525.06"/>
<text text-anchor="start" x="2204.37" y="-1569.99" font-family="Times,serif" font-size="14.00">C1335533</text>
<text text-anchor="start" x="2205.55" y="-1555.99" font-family="Times,serif" font-size="14.00">fragments</text>
<text text-anchor="start" x="2210.59" y="-1541.99" font-family="Times,serif" font-size="14.00">122:122</text>
</g>
<!-- id_27418256_DOT_9&#45;&#45;id_27418256_DOT_23 -->
<g id="edge18" class="edge">
<title>id_27418256_DOT_9&#45;&#45;id_27418256_DOT_23</title>
<path fill="none" stroke="black" stroke-dasharray="1,5" d="M2181.88,-1963.13C2192.44,-1880.77 2218.5,-1677.51 2229.02,-1595.42"/>
<text text-anchor="middle" x="2179.2" y="-1782.08" font-family="Times,serif" font-size="14.00">0.792901</text>
</g>
<!-- id_27418256_DOT_10 -->
<g id="node10" class="node">
<title>id_27418256_DOT_10</title>
<polygon fill="coral" stroke="coral" points="1571.71,-2481.5 1577.3,-2481.69 1582.84,-2481.98 1588.29,-2482.37 1593.64,-2482.84 1598.86,-2483.41 1603.95,-2484.07 1608.86,-2484.83 1613.6,-2485.66 1618.13,-2486.59 1622.45,-2487.59 1626.53,-2488.68 1630.37,-2489.84 1633.95,-2491.07 1637.26,-2492.38 1640.3,-2493.75 1643.05,-2495.18 1645.51,-2496.67 1647.67,-2498.22 1649.54,-2499.82 1651.11,-2501.46 1652.37,-2503.15 1653.35,-2504.87 1654.02,-2506.63 1654.41,-2508.41 1654.52,-2510.22 1654.34,-2512.04 1653.9,-2513.87 1653.2,-2515.72 1652.25,-2517.56 1651.06,-2519.4 1649.64,-2521.24 1648,-2523.06 1646.15,-2524.87 1644.12,-2526.65 1641.9,-2528.4 1639.51,-2530.13 1636.97,-2531.81 1634.28,-2533.46 1631.47,-2535.06 1628.53,-2536.6 1625.48,-2538.1 1622.33,-2539.53 1619.1,-2540.9 1615.79,-2542.21 1612.4,-2543.44 1608.96,-2544.6 1605.46,-2545.69 1601.92,-2546.69 1598.34,-2547.62 1594.73,-2548.45 1591.08,-2549.2 1587.42,-2549.86 1583.73,-2550.44 1580.03,-2550.91 1576.32,-2551.3 1572.6,-2551.58 1568.87,-2551.78 1565.14,-2551.87 1561.4,-2551.87 1557.67,-2551.78 1553.94,-2551.58 1550.22,-2551.3 1546.51,-2550.91 1542.81,-2550.44 1539.12,-2549.86 1535.46,-2549.2 1531.81,-2548.45 1528.2,-2547.62 1524.62,-2546.69 1521.07,-2545.69 1517.58,-2544.6 1514.14,-2543.44 1510.75,-2542.21 1507.44,-2540.9 1504.21,-2539.53 1501.06,-2538.1 1498.01,-2536.6 1495.07,-2535.06 1492.25,-2533.46 1489.57,-2531.81 1487.03,-2530.13 1484.64,-2528.4 1482.42,-2526.65 1480.38,-2524.87 1478.54,-2523.06 1476.9,-2521.24 1475.48,-2519.4 1474.29,-2517.56 1473.34,-2515.72 1472.64,-2513.87 1472.2,-2512.04 1472.02,-2510.22 1472.13,-2508.41 1472.52,-2506.63 1473.19,-2504.87 1474.16,-2503.15 1475.43,-2501.46 1477,-2499.82 1478.87,-2498.22 1481.03,-2496.67 1483.49,-2495.18 1486.24,-2493.75 1489.28,-2492.38 1492.59,-2491.07 1496.17,-2489.84 1500.01,-2488.68 1504.09,-2487.59 1508.41,-2486.59 1512.94,-2485.66 1517.68,-2484.83 1522.59,-2484.07 1527.68,-2483.41 1532.9,-2482.84 1538.25,-2482.37 1543.7,-2481.98 1549.24,-2481.69 1554.83,-2481.5 1560.45,-2481.4 1566.09,-2481.4 1571.71,-2481.5"/>
<text text-anchor="start" x="1534.1" y="-2526.44" font-family="Times,serif" font-size="14.00">C1947901</text>
<text text-anchor="start" x="1510.6" y="-2512.44" font-family="Times,serif" font-size="14.00">cancer progression</text>
<text text-anchor="start" x="1547.32" y="-2498.44" font-family="Times,serif" font-size="14.00">37:38</text>
</g>
<!-- id_27418256_DOT_10&#45;&#45;id_27418256_DOT_19 -->
<g id="edge19" class="edge">
<title>id_27418256_DOT_10&#45;&#45;id_27418256_DOT_19</title>
<path fill="none" stroke="black" stroke-dasharray="1,5" d="M1648.65,-2499C1738.42,-2480.45 1876.58,-2451.9 1949.82,-2436.76"/>
<text text-anchor="middle" x="1772.99" y="-2470.68" font-family="Times,serif" font-size="14.00">0.810385</text>
</g>
<!-- id_27418256_DOT_10&#45;&#45;id_27418256_DOT_25 -->
<g id="edge20" class="edge">
<title>id_27418256_DOT_10&#45;&#45;id_27418256_DOT_25</title>
<path fill="none" stroke="black" stroke-dasharray="1,5" d="M1488.92,-2531.77C1410.88,-2547.64 1289.02,-2572.43 1211.69,-2588.16"/>
<text text-anchor="middle" x="1324.05" y="-2562.76" font-family="Times,serif" font-size="14.00">0.792864</text>
</g>
<!-- id_27418256_DOT_11 -->
<g id="node11" class="node">
<title>id_27418256_DOT_11</title>
<polygon fill="cornflowerblue" stroke="cornflowerblue" points="61.16,-2072.29 64.58,-2072.48 67.98,-2072.77 71.32,-2073.15 74.6,-2073.63 77.81,-2074.2 80.92,-2074.86 83.94,-2075.61 86.84,-2076.45 89.62,-2077.37 92.27,-2078.38 94.77,-2079.46 97.13,-2080.62 99.32,-2081.86 101.35,-2083.16 103.22,-2084.53 104.9,-2085.97 106.41,-2087.46 107.74,-2089.01 108.88,-2090.61 109.84,-2092.25 110.62,-2093.94 111.22,-2095.66 111.63,-2097.41 111.87,-2099.2 111.93,-2101 111.83,-2102.82 111.56,-2104.66 111.13,-2106.5 110.54,-2108.35 109.81,-2110.19 108.94,-2112.03 107.94,-2113.85 106.81,-2115.65 105.56,-2117.44 104.2,-2119.19 102.73,-2120.91 101.18,-2122.6 99.53,-2124.24 97.8,-2125.84 96,-2127.39 94.13,-2128.88 92.2,-2130.32 90.22,-2131.69 88.18,-2132.99 86.11,-2134.23 84,-2135.39 81.85,-2136.47 79.68,-2137.48 77.49,-2138.4 75.27,-2139.24 73.04,-2139.99 70.79,-2140.65 68.53,-2141.22 66.26,-2141.7 63.98,-2142.08 61.7,-2142.37 59.41,-2142.56 57.12,-2142.66 54.83,-2142.66 52.55,-2142.56 50.26,-2142.37 47.98,-2142.08 45.7,-2141.7 43.43,-2141.22 41.17,-2140.65 38.92,-2139.99 36.69,-2139.24 34.47,-2138.4 32.27,-2137.48 30.1,-2136.47 27.96,-2135.39 25.85,-2134.23 23.77,-2132.99 21.74,-2131.69 19.76,-2130.32 17.83,-2128.88 15.96,-2127.39 14.16,-2125.84 12.43,-2124.24 10.78,-2122.6 9.22,-2120.91 7.76,-2119.19 6.4,-2117.44 5.15,-2115.65 4.02,-2113.85 3.01,-2112.03 2.14,-2110.19 1.41,-2108.35 0.83,-2106.5 0.4,-2104.66 0.13,-2102.82 0.02,-2101 0.09,-2099.2 0.32,-2097.41 0.74,-2095.66 1.34,-2093.94 2.11,-2092.25 3.07,-2090.61 4.22,-2089.01 5.55,-2087.46 7.05,-2085.97 8.74,-2084.53 10.6,-2083.16 12.63,-2081.86 14.83,-2080.62 17.18,-2079.46 19.69,-2078.38 22.34,-2077.37 25.12,-2076.45 28.02,-2075.61 31.03,-2074.86 34.15,-2074.2 37.35,-2073.63 40.64,-2073.15 43.98,-2072.77 47.37,-2072.48 50.8,-2072.29 54.25,-2072.19 57.71,-2072.19 61.16,-2072.29"/>
<text text-anchor="start" x="26.81" y="-2117.23" font-family="Times,serif" font-size="14.00">C2603343</text>
<text text-anchor="start" x="40.81" y="-2103.23" font-family="Times,serif" font-size="14.00">study</text>
<text text-anchor="start" x="40.03" y="-2089.23" font-family="Times,serif" font-size="14.00">42:42</text>
</g>
<!-- id_27418256_DOT_21 -->
<g id="node21" class="node">
<title>id_27418256_DOT_21</title>
<polygon fill="darkgreen" stroke="darkgreen" points="427.72,-2181.12 431.14,-2181.32 434.54,-2181.6 437.88,-2181.99 441.16,-2182.47 444.37,-2183.04 447.48,-2183.7 450.5,-2184.45 453.4,-2185.29 456.18,-2186.21 458.83,-2187.21 461.33,-2188.3 463.69,-2189.46 465.88,-2190.69 467.91,-2192 469.77,-2193.37 471.46,-2194.8 472.97,-2196.3 474.3,-2197.84 475.44,-2199.44 476.4,-2201.09 477.18,-2202.77 477.78,-2204.5 478.19,-2206.25 478.43,-2208.03 478.49,-2209.84 478.39,-2211.66 478.12,-2213.5 477.69,-2215.34 477.1,-2217.18 476.37,-2219.03 475.5,-2220.86 474.5,-2222.69 473.37,-2224.49 472.12,-2226.27 470.76,-2228.03 469.29,-2229.75 467.73,-2231.44 466.09,-2233.08 464.36,-2234.68 462.56,-2236.23 460.69,-2237.72 458.76,-2239.15 456.77,-2240.52 454.74,-2241.83 452.67,-2243.06 450.56,-2244.23 448.41,-2245.31 446.24,-2246.32 444.05,-2247.24 441.83,-2248.08 439.59,-2248.83 437.35,-2249.49 435.09,-2250.06 432.82,-2250.54 430.54,-2250.92 428.26,-2251.21 425.97,-2251.4 423.68,-2251.5 421.39,-2251.5 419.1,-2251.4 416.82,-2251.21 414.54,-2250.92 412.26,-2250.54 409.99,-2250.06 407.73,-2249.49 405.48,-2248.83 403.25,-2248.08 401.03,-2247.24 398.83,-2246.32 396.66,-2245.31 394.52,-2244.23 392.41,-2243.06 390.33,-2241.83 388.3,-2240.52 386.32,-2239.15 384.39,-2237.72 382.52,-2236.23 380.72,-2234.68 378.99,-2233.08 377.34,-2231.44 375.78,-2229.75 374.32,-2228.03 372.96,-2226.27 371.71,-2224.49 370.58,-2222.69 369.57,-2220.86 368.7,-2219.03 367.97,-2217.18 367.39,-2215.34 366.96,-2213.5 366.69,-2211.66 366.58,-2209.84 366.65,-2208.03 366.88,-2206.25 367.3,-2204.5 367.89,-2202.77 368.67,-2201.09 369.63,-2199.44 370.78,-2197.84 372.11,-2196.3 373.61,-2194.8 375.3,-2193.37 377.16,-2192 379.19,-2190.69 381.39,-2189.46 383.74,-2188.3 386.25,-2187.21 388.9,-2186.21 391.68,-2185.29 394.58,-2184.45 397.59,-2183.7 400.71,-2183.04 403.91,-2182.47 407.2,-2181.99 410.54,-2181.6 413.93,-2181.32 417.36,-2181.12 420.81,-2181.03 424.27,-2181.03 427.72,-2181.12"/>
<text text-anchor="start" x="393.37" y="-2226.06" font-family="Times,serif" font-size="14.00">C0005507</text>
<text text-anchor="start" x="407.38" y="-2212.06" font-family="Times,serif" font-size="14.00">assay</text>
<text text-anchor="start" x="399.59" y="-2198.06" font-family="Times,serif" font-size="14.00">107:107</text>
</g>
<!-- id_27418256_DOT_11&#45;&#45;id_27418256_DOT_21 -->
<g id="edge21" class="edge">
<title>id_27418256_DOT_11&#45;&#45;id_27418256_DOT_21</title>
<path fill="none" stroke="black" stroke-dasharray="1,5" d="M102.78,-2121.32C170.91,-2141.55 297.09,-2179.01 368.89,-2200.33"/>
<text text-anchor="middle" x="209.58" y="-2163.63" font-family="Times,serif" font-size="14.00">0.946862</text>
</g>
<!-- id_27418256_DOT_12 -->
<g id="node12" class="node">
<title>id_27418256_DOT_12</title>
<polygon fill="crimson" stroke="crimson" points="421,-3503.96 428.66,-3504.15 436.23,-3504.44 443.7,-3504.82 451.03,-3505.3 458.19,-3505.87 465.15,-3506.53 471.88,-3507.28 478.37,-3508.12 484.58,-3509.04 490.49,-3510.05 496.09,-3511.13 501.34,-3512.3 506.25,-3513.53 510.79,-3514.84 514.95,-3516.21 518.71,-3517.64 522.08,-3519.13 525.05,-3520.68 527.6,-3522.28 529.75,-3523.92 531.49,-3525.61 532.82,-3527.33 533.75,-3529.09 534.28,-3530.87 534.42,-3532.67 534.19,-3534.5 533.58,-3536.33 532.62,-3538.18 531.32,-3540.02 529.68,-3541.86 527.74,-3543.7 525.49,-3545.52 522.97,-3547.33 520.18,-3549.11 517.14,-3550.86 513.87,-3552.59 510.39,-3554.27 506.71,-3555.92 502.85,-3557.51 498.82,-3559.06 494.65,-3560.56 490.34,-3561.99 485.91,-3563.36 481.37,-3564.67 476.74,-3565.9 472.02,-3567.06 467.23,-3568.15 462.38,-3569.15 457.47,-3570.07 452.52,-3570.91 447.53,-3571.66 442.51,-3572.32 437.46,-3572.89 432.39,-3573.37 427.31,-3573.76 422.21,-3574.04 417.1,-3574.24 411.99,-3574.33 406.88,-3574.33 401.76,-3574.24 396.66,-3574.04 391.56,-3573.76 386.47,-3573.37 381.4,-3572.89 376.35,-3572.32 371.33,-3571.66 366.34,-3570.91 361.39,-3570.07 356.48,-3569.15 351.63,-3568.15 346.84,-3567.06 342.13,-3565.9 337.49,-3564.67 332.96,-3563.36 328.53,-3561.99 324.22,-3560.56 320.04,-3559.06 316.02,-3557.51 312.15,-3555.92 308.47,-3554.27 304.99,-3552.59 301.72,-3550.86 298.69,-3549.11 295.89,-3547.33 293.37,-3545.52 291.13,-3543.7 289.18,-3541.86 287.55,-3540.02 286.24,-3538.18 285.28,-3536.33 284.68,-3534.5 284.44,-3532.67 284.58,-3530.87 285.12,-3529.09 286.04,-3527.33 287.37,-3525.61 289.11,-3523.92 291.26,-3522.28 293.82,-3520.68 296.78,-3519.13 300.15,-3517.64 303.92,-3516.21 308.08,-3514.84 312.61,-3513.53 317.52,-3512.3 322.78,-3511.13 328.37,-3510.05 334.28,-3509.04 340.49,-3508.12 346.98,-3507.28 353.71,-3506.53 360.67,-3505.87 367.83,-3505.3 375.16,-3504.82 382.63,-3504.44 390.21,-3504.15 397.87,-3503.96 405.57,-3503.86 413.29,-3503.86 421,-3503.96"/>
<text text-anchor="start" x="380.26" y="-3548.9" font-family="Times,serif" font-size="14.00">C1710032</text>
<text text-anchor="start" x="334.6" y="-3534.9" font-family="Times,serif" font-size="14.00">structure &#45; based screening</text>
<text text-anchor="start" x="393.49" y="-3520.9" font-family="Times,serif" font-size="14.00">45:48</text>
</g>
<!-- id_27418256_DOT_12&#45;&#45;id_27418256_DOT_20 -->
<g id="edge22" class="edge">
<title>id_27418256_DOT_12&#45;&#45;id_27418256_DOT_20</title>
<path fill="none" stroke="black" stroke-dasharray="1,5" d="M444.52,-3504.75C499.18,-3451.24 603.59,-3349.04 653.79,-3299.9"/>
<text text-anchor="middle" x="522.9" y="-3405.12" font-family="Times,serif" font-size="14.00">0.741952</text>
</g>
<!-- id_27418256_DOT_13&#45;&#45;id_27418256_DOT_24 -->
<g id="edge23" class="edge">
<title>id_27418256_DOT_13&#45;&#45;id_27418256_DOT_24</title>
<path fill="none" stroke="black" stroke-dasharray="1,5" d="M2410.06,-3535.07C2425.43,-3460.11 2461.12,-3285.92 2476.45,-3211.15"/>
<text text-anchor="middle" x="2417.01" y="-3375.91" font-family="Times,serif" font-size="14.00">0.777685</text>
</g>
<!-- id_27418256_DOT_14 -->
<g id="node14" class="node">
<title>id_27418256_DOT_14</title>
<polygon fill="aquamarine" stroke="aquamarine" points="2758.21,-997.44 2761.64,-997.64 2765.03,-997.92 2768.37,-998.31 2771.65,-998.79 2774.86,-999.36 2777.98,-1000.02 2780.99,-1000.77 2783.89,-1001.61 2786.67,-1002.53 2789.32,-1003.53 2791.83,-1004.62 2794.18,-1005.78 2796.38,-1007.01 2798.41,-1008.32 2800.27,-1009.69 2801.96,-1011.12 2803.46,-1012.62 2804.79,-1014.16 2805.94,-1015.76 2806.9,-1017.41 2807.67,-1019.09 2808.27,-1020.82 2808.69,-1022.57 2808.92,-1024.35 2808.99,-1026.16 2808.88,-1027.98 2808.61,-1029.82 2808.18,-1031.66 2807.6,-1033.5 2806.87,-1035.35 2806,-1037.18 2804.99,-1039 2803.86,-1040.81 2802.61,-1042.59 2801.25,-1044.35 2799.79,-1046.07 2798.23,-1047.76 2796.58,-1049.4 2794.85,-1051 2793.05,-1052.55 2791.18,-1054.04 2789.25,-1055.47 2787.27,-1056.84 2785.24,-1058.15 2783.16,-1059.38 2781.05,-1060.55 2778.91,-1061.63 2776.74,-1062.63 2774.54,-1063.56 2772.32,-1064.4 2770.09,-1065.15 2767.84,-1065.81 2765.58,-1066.38 2763.31,-1066.86 2761.03,-1067.24 2758.75,-1067.53 2756.46,-1067.72 2754.18,-1067.82 2751.89,-1067.82 2749.6,-1067.72 2747.31,-1067.53 2745.03,-1067.24 2742.75,-1066.86 2740.48,-1066.38 2738.22,-1065.81 2735.97,-1065.15 2733.74,-1064.4 2731.52,-1063.56 2729.33,-1062.63 2727.16,-1061.63 2725.01,-1060.55 2722.9,-1059.38 2720.83,-1058.15 2718.79,-1056.84 2716.81,-1055.47 2714.88,-1054.04 2713.01,-1052.55 2711.21,-1051 2709.48,-1049.4 2707.83,-1047.76 2706.28,-1046.07 2704.81,-1044.35 2703.45,-1042.59 2702.2,-1040.81 2701.07,-1039 2700.07,-1037.18 2699.2,-1035.35 2698.47,-1033.5 2697.88,-1031.66 2697.45,-1029.82 2697.18,-1027.98 2697.08,-1026.16 2697.14,-1024.35 2697.38,-1022.57 2697.79,-1020.82 2698.39,-1019.09 2699.17,-1017.41 2700.13,-1015.76 2701.27,-1014.16 2702.6,-1012.62 2704.11,-1011.12 2705.79,-1009.69 2707.66,-1008.32 2709.69,-1007.01 2711.88,-1005.78 2714.24,-1004.62 2716.74,-1003.53 2719.39,-1002.53 2722.17,-1001.61 2725.07,-1000.77 2728.09,-1000.02 2731.2,-999.36 2734.41,-998.79 2737.69,-998.31 2741.03,-997.92 2744.43,-997.64 2747.85,-997.44 2751.3,-997.35 2754.76,-997.35 2758.21,-997.44"/>
<text text-anchor="start" x="2723.86" y="-1042.38" font-family="Times,serif" font-size="14.00">C1335533</text>
<text text-anchor="start" x="2725.04" y="-1028.38" font-family="Times,serif" font-size="14.00">fragments</text>
<text text-anchor="start" x="2737.09" y="-1014.38" font-family="Times,serif" font-size="14.00">57:57</text>
</g>
<!-- id_27418256_DOT_17 -->
<g id="node17" class="node">
<title>id_27418256_DOT_17</title>
<polygon fill="aquamarine" stroke="aquamarine" points="2361.58,-1126.48 2365.01,-1126.68 2368.4,-1126.96 2371.75,-1127.35 2375.03,-1127.83 2378.23,-1128.4 2381.35,-1129.06 2384.36,-1129.81 2387.27,-1130.65 2390.05,-1131.57 2392.69,-1132.57 2395.2,-1133.66 2397.55,-1134.82 2399.75,-1136.05 2401.78,-1137.36 2403.64,-1138.73 2405.33,-1140.16 2406.84,-1141.66 2408.16,-1143.21 2409.31,-1144.8 2410.27,-1146.45 2411.05,-1148.13 2411.64,-1149.86 2412.06,-1151.61 2412.3,-1153.39 2412.36,-1155.2 2412.25,-1157.02 2411.98,-1158.86 2411.55,-1160.7 2410.97,-1162.54 2410.24,-1164.39 2409.37,-1166.22 2408.36,-1168.05 2407.23,-1169.85 2405.98,-1171.63 2404.62,-1173.39 2403.16,-1175.11 2401.6,-1176.8 2399.95,-1178.44 2398.22,-1180.04 2396.42,-1181.59 2394.55,-1183.08 2392.62,-1184.51 2390.64,-1185.88 2388.61,-1187.19 2386.53,-1188.42 2384.42,-1189.59 2382.28,-1190.67 2380.11,-1191.68 2377.91,-1192.6 2375.69,-1193.44 2373.46,-1194.19 2371.21,-1194.85 2368.95,-1195.42 2366.68,-1195.9 2364.41,-1196.28 2362.12,-1196.57 2359.84,-1196.76 2357.55,-1196.86 2355.26,-1196.86 2352.97,-1196.76 2350.68,-1196.57 2348.4,-1196.28 2346.12,-1195.9 2343.86,-1195.42 2341.6,-1194.85 2339.35,-1194.19 2337.11,-1193.44 2334.9,-1192.6 2332.7,-1191.68 2330.53,-1190.67 2328.38,-1189.59 2326.27,-1188.42 2324.2,-1187.19 2322.17,-1185.88 2320.18,-1184.51 2318.25,-1183.08 2316.38,-1181.59 2314.58,-1180.04 2312.85,-1178.44 2311.21,-1176.8 2309.65,-1175.11 2308.18,-1173.39 2306.82,-1171.63 2305.58,-1169.85 2304.44,-1168.05 2303.44,-1166.22 2302.57,-1164.39 2301.84,-1162.54 2301.25,-1160.7 2300.82,-1158.86 2300.55,-1157.02 2300.45,-1155.2 2300.51,-1153.39 2300.75,-1151.61 2301.16,-1149.86 2301.76,-1148.13 2302.54,-1146.45 2303.5,-1144.8 2304.64,-1143.21 2305.97,-1141.66 2307.48,-1140.16 2309.17,-1138.73 2311.03,-1137.36 2313.06,-1136.05 2315.26,-1134.82 2317.61,-1133.66 2320.11,-1132.57 2322.76,-1131.57 2325.54,-1130.65 2328.44,-1129.81 2331.46,-1129.06 2334.58,-1128.4 2337.78,-1127.83 2341.06,-1127.35 2344.4,-1126.96 2347.8,-1126.68 2351.23,-1126.48 2354.68,-1126.39 2358.13,-1126.39 2361.58,-1126.48"/>
<text text-anchor="start" x="2327.23" y="-1171.42" font-family="Times,serif" font-size="14.00">C1335533</text>
<text text-anchor="start" x="2328.41" y="-1157.42" font-family="Times,serif" font-size="14.00">fragments</text>
<text text-anchor="start" x="2340.46" y="-1143.42" font-family="Times,serif" font-size="14.00">79:79</text>
</g>
<!-- id_27418256_DOT_14&#45;&#45;id_27418256_DOT_17 -->
<g id="edge6" class="edge">
<title>id_27418256_DOT_14&#45;&#45;id_27418256_DOT_17</title>
<path fill="none" stroke="black" d="M2707.15,-1047.51C2633.02,-1071.63 2487.36,-1119.02 2409.1,-1144.48"/>
<text text-anchor="middle" x="2531.87" y="-1098.79" font-family="Times,serif" font-size="14.00">0.012371</text>
</g>
<!-- id_27418256_DOT_15&#45;&#45;id_27418256_DOT_17 -->
<g id="edge7" class="edge">
<title>id_27418256_DOT_15&#45;&#45;id_27418256_DOT_17</title>
<path fill="none" stroke="black" d="M2230.75,-816.66C2256.85,-888.32 2317.33,-1054.35 2343.71,-1126.78"/>
<text text-anchor="middle" x="2261.24" y="-974.52" font-family="Times,serif" font-size="14.00">0.011210</text>
</g>
<!-- id_27418256_DOT_17&#45;&#45;id_27418256_DOT_23 -->
<g id="edge8" class="edge">
<title>id_27418256_DOT_17&#45;&#45;id_27418256_DOT_23</title>
<path fill="none" stroke="black" d="M2345.82,-1195.95C2322.66,-1271.1 2267.66,-1449.52 2244.31,-1525.24"/>
<text text-anchor="middle" x="2268.82" y="-1363.39" font-family="Times,serif" font-size="14.00">0.012386</text>
</g>
<!-- id_27418256_DOT_18 -->
<g id="node18" class="node">
<title>id_27418256_DOT_18</title>
<polygon fill="darkgreen" stroke="darkgreen" points="798.88,-2330.57 803.78,-2330.76 808.62,-2331.05 813.39,-2331.43 818.07,-2331.91 822.64,-2332.48 827.09,-2333.14 831.39,-2333.89 835.54,-2334.73 839.5,-2335.65 843.28,-2336.66 846.86,-2337.74 850.22,-2338.91 853.35,-2340.14 856.25,-2341.45 858.91,-2342.82 861.31,-2344.25 863.47,-2345.74 865.36,-2347.29 866.99,-2348.89 868.37,-2350.53 869.48,-2352.22 870.33,-2353.94 870.92,-2355.7 871.26,-2357.48 871.35,-2359.28 871.2,-2361.11 870.81,-2362.94 870.2,-2364.79 869.37,-2366.63 868.32,-2368.47 867.08,-2370.31 865.65,-2372.13 864.03,-2373.94 862.25,-2375.72 860.31,-2377.47 858.22,-2379.2 855.99,-2380.88 853.64,-2382.53 851.18,-2384.12 848.6,-2385.67 845.94,-2387.17 843.18,-2388.6 840.35,-2389.97 837.45,-2391.28 834.49,-2392.51 831.48,-2393.67 828.42,-2394.76 825.32,-2395.76 822.19,-2396.68 819.02,-2397.52 815.84,-2398.27 812.63,-2398.93 809.4,-2399.5 806.16,-2399.98 802.91,-2400.37 799.66,-2400.65 796.39,-2400.85 793.13,-2400.94 789.86,-2400.94 786.59,-2400.85 783.33,-2400.65 780.07,-2400.37 776.82,-2399.98 773.59,-2399.5 770.36,-2398.93 767.15,-2398.27 763.96,-2397.52 760.8,-2396.68 757.67,-2395.76 754.57,-2394.76 751.51,-2393.67 748.49,-2392.51 745.53,-2391.28 742.63,-2389.97 739.8,-2388.6 737.05,-2387.17 734.38,-2385.67 731.81,-2384.12 729.34,-2382.53 726.99,-2380.88 724.77,-2379.2 722.68,-2377.47 720.74,-2375.72 718.96,-2373.94 717.34,-2372.13 715.91,-2370.31 714.66,-2368.47 713.62,-2366.63 712.79,-2364.79 712.17,-2362.94 711.79,-2361.11 711.64,-2359.28 711.73,-2357.48 712.07,-2355.7 712.66,-2353.94 713.51,-2352.22 714.62,-2350.53 715.99,-2348.89 717.63,-2347.29 719.52,-2345.74 721.67,-2344.25 724.08,-2342.82 726.74,-2341.45 729.64,-2340.14 732.77,-2338.91 736.13,-2337.74 739.7,-2336.66 743.48,-2335.65 747.45,-2334.73 751.59,-2333.89 755.9,-2333.14 760.34,-2332.48 764.92,-2331.91 769.6,-2331.43 774.37,-2331.05 779.21,-2330.76 784.1,-2330.57 789.03,-2330.47 793.96,-2330.47 798.88,-2330.57"/>
<text text-anchor="start" x="762.32" y="-2375.51" font-family="Times,serif" font-size="14.00">C0005507</text>
<text text-anchor="start" x="746.59" y="-2361.51" font-family="Times,serif" font-size="14.00">biological assay</text>
<text text-anchor="start" x="775.55" y="-2347.51" font-family="Times,serif" font-size="14.00">93:94</text>
</g>
<!-- id_27418256_DOT_18&#45;&#45;id_27418256_DOT_21 -->
<g id="edge9" class="edge">
<title>id_27418256_DOT_18&#45;&#45;id_27418256_DOT_21</title>
<path fill="none" stroke="black" d="M728.91,-2340.36C653.97,-2310 530.45,-2259.97 465.51,-2233.67"/>
<text text-anchor="middle" x="570.96" y="-2289.81" font-family="Times,serif" font-size="14.00">0.013236</text>
</g>
<!-- id_27418256_DOT_18&#45;&#45;id_27418256_DOT_25 -->
<g id="edge24" class="edge">
<title>id_27418256_DOT_18&#45;&#45;id_27418256_DOT_25</title>
<path fill="none" stroke="black" stroke-dasharray="1,5" d="M832.4,-2393.62C898.1,-2438.44 1026.65,-2526.13 1094.61,-2572.5"/>
<text text-anchor="middle" x="937.26" y="-2485.86" font-family="Times,serif" font-size="14.00">0.851612</text>
</g>
<!-- id_27418256_DOT_22&#45;&#45;id_27418256_DOT_24 -->
<g id="edge25" class="edge">
<title>id_27418256_DOT_22&#45;&#45;id_27418256_DOT_24</title>
<path fill="none" stroke="black" stroke-dasharray="1,5" d="M2806.26,-3256.77C2726.56,-3236.82 2615.83,-3209.1 2547.01,-3191.88"/>
<text text-anchor="middle" x="2650.38" y="-3227.13" font-family="Times,serif" font-size="14.00">0.634527</text>
</g>
</g>
</svg>
