<?xml version="1.0" encoding="UTF-8" standalone="no"?>
<!DOCTYPE svg PUBLIC "-//W3C//DTD SVG 1.1//EN"
 "http://www.w3.org/Graphics/SVG/1.1/DTD/svg11.dtd">
<!-- Generated by graphviz version 2.42.3 (20191010.1750)
 -->
<!-- Title: MST Pages: 1 -->
<svg width="4965pt" height="3493pt"
 viewBox="0.00 0.00 4965.49 3492.59" xmlns="http://www.w3.org/2000/svg" xmlns:xlink="http://www.w3.org/1999/xlink">
<g id="graph0" class="graph" transform="scale(1 1) rotate(0) translate(4 3488.59)">
<title>MST</title>
<polygon fill="white" stroke="transparent" points="-4,4 -4,-3488.59 4961.49,-3488.59 4961.49,4 -4,4"/>
<!-- id_27454401_DOT_1 -->
<g id="node1" class="node">
<title>id_27454401_DOT_1</title>
<polygon fill="aquamarine" stroke="aquamarine" points="1381.02,-1140.14 1384.45,-1140.33 1387.84,-1140.62 1391.19,-1141 1394.47,-1141.48 1397.67,-1142.05 1400.79,-1142.71 1403.8,-1143.46 1406.71,-1144.3 1409.49,-1145.22 1412.13,-1146.23 1414.64,-1147.31 1416.99,-1148.47 1419.19,-1149.71 1421.22,-1151.01 1423.08,-1152.38 1424.77,-1153.82 1426.28,-1155.31 1427.6,-1156.86 1428.75,-1158.46 1429.71,-1160.1 1430.49,-1161.79 1431.08,-1163.51 1431.5,-1165.26 1431.74,-1167.05 1431.8,-1168.85 1431.69,-1170.67 1431.42,-1172.51 1430.99,-1174.35 1430.41,-1176.2 1429.68,-1178.04 1428.81,-1179.88 1427.8,-1181.7 1426.67,-1183.5 1425.42,-1185.29 1424.06,-1187.04 1422.6,-1188.76 1421.04,-1190.45 1419.39,-1192.09 1417.66,-1193.69 1415.86,-1195.24 1413.99,-1196.73 1412.06,-1198.17 1410.08,-1199.54 1408.05,-1200.84 1405.97,-1202.08 1403.86,-1203.24 1401.72,-1204.32 1399.55,-1205.33 1397.35,-1206.25 1395.13,-1207.09 1392.9,-1207.84 1390.65,-1208.5 1388.39,-1209.07 1386.12,-1209.55 1383.85,-1209.93 1381.56,-1210.22 1379.28,-1210.41 1376.99,-1210.51 1374.7,-1210.51 1372.41,-1210.41 1370.12,-1210.22 1367.84,-1209.93 1365.56,-1209.55 1363.29,-1209.07 1361.03,-1208.5 1358.79,-1207.84 1356.55,-1207.09 1354.34,-1206.25 1352.14,-1205.33 1349.97,-1204.32 1347.82,-1203.24 1345.71,-1202.08 1343.64,-1200.84 1341.61,-1199.54 1339.62,-1198.17 1337.69,-1196.73 1335.82,-1195.24 1334.02,-1193.69 1332.29,-1192.09 1330.65,-1190.45 1329.09,-1188.76 1327.62,-1187.04 1326.26,-1185.29 1325.01,-1183.5 1323.88,-1181.7 1322.88,-1179.88 1322.01,-1178.04 1321.28,-1176.2 1320.69,-1174.35 1320.26,-1172.51 1319.99,-1170.67 1319.89,-1168.85 1319.95,-1167.05 1320.19,-1165.26 1320.6,-1163.51 1321.2,-1161.79 1321.98,-1160.1 1322.94,-1158.46 1324.08,-1156.86 1325.41,-1155.31 1326.92,-1153.82 1328.61,-1152.38 1330.47,-1151.01 1332.5,-1149.71 1334.7,-1148.47 1337.05,-1147.31 1339.55,-1146.23 1342.2,-1145.22 1344.98,-1144.3 1347.88,-1143.46 1350.9,-1142.71 1354.02,-1142.05 1357.22,-1141.48 1360.5,-1141 1363.84,-1140.62 1367.24,-1140.33 1370.67,-1140.14 1374.11,-1140.04 1377.57,-1140.04 1381.02,-1140.14"/>
<text text-anchor="start" x="1346.67" y="-1185.08" font-family="Times,serif" font-size="14.00">C0870071</text>
<text text-anchor="start" x="1347.46" y="-1171.08" font-family="Times,serif" font-size="14.00">modelling</text>
<text text-anchor="start" x="1366.9" y="-1157.08" font-family="Times,serif" font-size="14.00">2:2</text>
</g>
<!-- id_27454401_DOT_6 -->
<g id="node6" class="node">
<title>id_27454401_DOT_6</title>
<polygon fill="blue" stroke="blue" points="1131.2,-807.81 1136.61,-808.01 1141.97,-808.3 1147.26,-808.68 1152.44,-809.16 1157.51,-809.73 1162.43,-810.39 1167.19,-811.14 1171.78,-811.98 1176.17,-812.9 1180.36,-813.9 1184.31,-814.99 1188.03,-816.15 1191.5,-817.39 1194.71,-818.69 1197.66,-820.06 1200.32,-821.5 1202.7,-822.99 1204.8,-824.54 1206.61,-826.13 1208.13,-827.78 1209.36,-829.46 1210.3,-831.19 1210.96,-832.94 1211.33,-834.72 1211.43,-836.53 1211.27,-838.35 1210.84,-840.19 1210.16,-842.03 1209.24,-843.88 1208.08,-845.72 1206.7,-847.55 1205.12,-849.38 1203.33,-851.18 1201.36,-852.96 1199.21,-854.72 1196.9,-856.44 1194.43,-858.13 1191.83,-859.77 1189.1,-861.37 1186.25,-862.92 1183.3,-864.41 1180.25,-865.84 1177.11,-867.22 1173.9,-868.52 1170.63,-869.76 1167.29,-870.92 1163.9,-872 1160.47,-873.01 1157,-873.93 1153.5,-874.77 1149.97,-875.52 1146.41,-876.18 1142.84,-876.75 1139.26,-877.23 1135.66,-877.61 1132.05,-877.9 1128.44,-878.09 1124.82,-878.19 1121.21,-878.19 1117.59,-878.09 1113.98,-877.9 1110.37,-877.61 1106.77,-877.23 1103.19,-876.75 1099.61,-876.18 1096.06,-875.52 1092.53,-874.77 1089.03,-873.93 1085.56,-873.01 1082.13,-872 1078.74,-870.92 1075.4,-869.76 1072.12,-868.52 1068.91,-867.22 1065.78,-865.84 1062.73,-864.41 1059.78,-862.92 1056.93,-861.37 1054.2,-859.77 1051.6,-858.13 1049.13,-856.44 1046.82,-854.72 1044.67,-852.96 1042.7,-851.18 1040.91,-849.38 1039.32,-847.55 1037.95,-845.72 1036.79,-843.88 1035.87,-842.03 1035.19,-840.19 1034.76,-838.35 1034.59,-836.53 1034.7,-834.72 1035.07,-832.94 1035.73,-831.19 1036.67,-829.46 1037.9,-827.78 1039.42,-826.13 1041.23,-824.54 1043.32,-822.99 1045.71,-821.5 1048.37,-820.06 1051.31,-818.69 1054.52,-817.39 1057.99,-816.15 1061.71,-814.99 1065.67,-813.9 1069.85,-812.9 1074.25,-811.98 1078.83,-811.14 1083.6,-810.39 1088.52,-809.73 1093.59,-809.16 1098.77,-808.68 1104.05,-808.3 1109.41,-808.01 1114.83,-807.81 1120.28,-807.72 1125.75,-807.72 1131.2,-807.81"/>
<text text-anchor="start" x="1093.85" y="-852.75" font-family="Times,serif" font-size="14.00">C0596171</text>
<text text-anchor="start" x="1072.28" y="-838.75" font-family="Times,serif" font-size="14.00">tissue engineering</text>
<text text-anchor="start" x="1107.07" y="-824.75" font-family="Times,serif" font-size="14.00">38:39</text>
</g>
<!-- id_27454401_DOT_1&#45;&#45;id_27454401_DOT_6 -->
<g id="edge12" class="edge">
<title>id_27454401_DOT_1&#45;&#45;id_27454401_DOT_6</title>
<path fill="none" stroke="black" stroke-dasharray="1,5" d="M1350.91,-1142.5C1302.57,-1078.97 1196.62,-939.7 1148.14,-875.97"/>
<text text-anchor="middle" x="1223.27" y="-1012.04" font-family="Times,serif" font-size="14.00">0.751867</text>
</g>
<!-- id_27454401_DOT_15 -->
<g id="node15" class="node">
<title>id_27454401_DOT_15</title>
<polygon fill="coral" stroke="coral" points="1625.71,-1472.66 1632.08,-1472.85 1638.39,-1473.14 1644.61,-1473.52 1650.71,-1474 1656.66,-1474.57 1662.46,-1475.23 1668.06,-1475.98 1673.46,-1476.82 1678.63,-1477.74 1683.55,-1478.75 1688.2,-1479.83 1692.58,-1480.99 1696.66,-1482.23 1700.44,-1483.53 1703.9,-1484.9 1707.04,-1486.34 1709.84,-1487.83 1712.31,-1489.38 1714.44,-1490.98 1716.22,-1492.62 1717.67,-1494.31 1718.78,-1496.03 1719.55,-1497.78 1719.99,-1499.57 1720.11,-1501.37 1719.91,-1503.19 1719.41,-1505.03 1718.61,-1506.87 1717.53,-1508.72 1716.17,-1510.56 1714.55,-1512.4 1712.68,-1514.22 1710.58,-1516.02 1708.26,-1517.81 1705.73,-1519.56 1703.01,-1521.28 1700.11,-1522.97 1697.05,-1524.61 1693.83,-1526.21 1690.48,-1527.76 1687.01,-1529.25 1683.42,-1530.69 1679.73,-1532.06 1675.96,-1533.36 1672.1,-1534.6 1668.17,-1535.76 1664.19,-1536.84 1660.15,-1537.85 1656.07,-1538.77 1651.95,-1539.61 1647.79,-1540.36 1643.61,-1541.02 1639.41,-1541.59 1635.19,-1542.07 1630.96,-1542.45 1626.72,-1542.74 1622.47,-1542.93 1618.21,-1543.03 1613.96,-1543.03 1609.7,-1542.93 1605.45,-1542.74 1601.21,-1542.45 1596.98,-1542.07 1592.76,-1541.59 1588.55,-1541.02 1584.37,-1540.36 1580.22,-1539.61 1576.1,-1538.77 1572.02,-1537.85 1567.98,-1536.84 1563.99,-1535.76 1560.07,-1534.6 1556.21,-1533.36 1552.44,-1532.06 1548.75,-1530.69 1545.16,-1529.25 1541.69,-1527.76 1538.34,-1526.21 1535.12,-1524.61 1532.06,-1522.97 1529.16,-1521.28 1526.44,-1519.56 1523.91,-1517.81 1521.59,-1516.02 1519.49,-1514.22 1517.62,-1512.4 1516,-1510.56 1514.64,-1508.72 1513.56,-1506.87 1512.76,-1505.03 1512.25,-1503.19 1512.06,-1501.37 1512.18,-1499.57 1512.62,-1497.78 1513.39,-1496.03 1514.5,-1494.31 1515.95,-1492.62 1517.73,-1490.98 1519.86,-1489.38 1522.33,-1487.83 1525.13,-1486.34 1528.27,-1484.9 1531.73,-1483.53 1535.51,-1482.23 1539.59,-1480.99 1543.96,-1479.83 1548.62,-1478.75 1553.54,-1477.74 1558.71,-1476.82 1564.11,-1475.98 1569.71,-1475.23 1575.5,-1474.57 1581.46,-1474 1587.56,-1473.52 1593.78,-1473.14 1600.08,-1472.85 1606.46,-1472.66 1612.87,-1472.56 1619.3,-1472.56 1625.71,-1472.66"/>
<text text-anchor="start" x="1586.92" y="-1517.6" font-family="Times,serif" font-size="14.00">C0870781</text>
<text text-anchor="start" x="1554.85" y="-1503.6" font-family="Times,serif" font-size="14.00">nanoscale topography</text>
<text text-anchor="start" x="1593.14" y="-1489.6" font-family="Times,serif" font-size="14.00">132:133</text>
</g>
<!-- id_27454401_DOT_1&#45;&#45;id_27454401_DOT_15 -->
<g id="edge13" class="edge">
<title>id_27454401_DOT_1&#45;&#45;id_27454401_DOT_15</title>
<path fill="none" stroke="black" stroke-dasharray="1,5" d="M1398.23,-1206.26C1443.13,-1268.41 1543.92,-1407.91 1590.98,-1473.05"/>
<text text-anchor="middle" x="1468.36" y="-1342.46" font-family="Times,serif" font-size="14.00">0.803537</text>
</g>
<!-- id_27454401_DOT_2 -->
<g id="node2" class="node">
<title>id_27454401_DOT_2</title>
<polygon fill="bisque" stroke="bisque" points="1727.4,-0.23 1730.83,-0.42 1734.23,-0.71 1737.57,-1.09 1740.85,-1.57 1744.05,-2.14 1747.17,-2.8 1750.19,-3.55 1753.09,-4.39 1755.87,-5.31 1758.52,-6.32 1761.02,-7.4 1763.37,-8.57 1765.57,-9.8 1767.6,-11.1 1769.46,-12.48 1771.15,-13.91 1772.66,-15.4 1773.99,-16.95 1775.13,-18.55 1776.09,-20.19 1776.87,-21.88 1777.47,-23.6 1777.88,-25.36 1778.12,-27.14 1778.18,-28.94 1778.08,-30.77 1777.81,-32.6 1777.38,-34.44 1776.79,-36.29 1776.06,-38.13 1775.19,-39.97 1774.19,-41.79 1773.05,-43.6 1771.81,-45.38 1770.45,-47.13 1768.98,-48.86 1767.42,-50.54 1765.78,-52.19 1764.05,-53.78 1762.24,-55.33 1760.38,-56.82 1758.45,-58.26 1756.46,-59.63 1754.43,-60.94 1752.36,-62.17 1750.25,-63.33 1748.1,-64.42 1745.93,-65.42 1743.73,-66.34 1741.52,-67.18 1739.28,-67.93 1737.03,-68.59 1734.77,-69.16 1732.51,-69.64 1730.23,-70.02 1727.95,-70.31 1725.66,-70.51 1723.37,-70.6 1721.08,-70.6 1718.79,-70.51 1716.51,-70.31 1714.22,-70.02 1711.95,-69.64 1709.68,-69.16 1707.42,-68.59 1705.17,-67.93 1702.94,-67.18 1700.72,-66.34 1698.52,-65.42 1696.35,-64.42 1694.21,-63.33 1692.09,-62.17 1690.02,-60.94 1687.99,-59.63 1686.01,-58.26 1684.08,-56.82 1682.21,-55.33 1680.41,-53.78 1678.68,-52.19 1677.03,-50.54 1675.47,-48.86 1674.01,-47.13 1672.65,-45.38 1671.4,-43.6 1670.27,-41.79 1669.26,-39.97 1668.39,-38.13 1667.66,-36.29 1667.08,-34.44 1666.65,-32.6 1666.38,-30.77 1666.27,-28.94 1666.33,-27.14 1666.57,-25.36 1666.99,-23.6 1667.58,-21.88 1668.36,-20.19 1669.32,-18.55 1670.47,-16.95 1671.79,-15.4 1673.3,-13.91 1674.99,-12.48 1676.85,-11.1 1678.88,-9.8 1681.08,-8.57 1683.43,-7.4 1685.94,-6.32 1688.58,-5.31 1691.36,-4.39 1694.27,-3.55 1697.28,-2.8 1700.4,-2.14 1703.6,-1.57 1706.88,-1.09 1710.23,-0.71 1713.62,-0.42 1717.05,-0.23 1720.5,-0.13 1723.95,-0.13 1727.4,-0.23"/>
<text text-anchor="start" x="1693.06" y="-45.17" font-family="Times,serif" font-size="14.00">C0205148</text>
<text text-anchor="start" x="1704.35" y="-31.17" font-family="Times,serif" font-size="14.00">fractal</text>
<text text-anchor="start" x="1713.28" y="-17.17" font-family="Times,serif" font-size="14.00">4:4</text>
</g>
<!-- id_27454401_DOT_9 -->
<g id="node9" class="node">
<title>id_27454401_DOT_9</title>
<polygon fill="cadetblue" stroke="cadetblue" points="1852.31,-385.67 1859.72,-385.87 1867.04,-386.16 1874.27,-386.54 1881.35,-387.02 1888.27,-387.59 1895,-388.25 1901.52,-389 1907.79,-389.84 1913.79,-390.76 1919.51,-391.76 1924.92,-392.85 1930,-394.01 1934.75,-395.25 1939.13,-396.55 1943.15,-397.92 1946.8,-399.36 1950.06,-400.85 1952.92,-402.4 1955.39,-403.99 1957.47,-405.64 1959.15,-407.32 1960.44,-409.05 1961.34,-410.8 1961.85,-412.58 1961.99,-414.39 1961.76,-416.21 1961.18,-418.05 1960.25,-419.89 1958.99,-421.74 1957.41,-423.58 1955.52,-425.41 1953.35,-427.24 1950.91,-429.04 1948.21,-430.82 1945.28,-432.58 1942.12,-434.3 1938.75,-435.99 1935.19,-437.63 1931.46,-439.23 1927.56,-440.78 1923.53,-442.27 1919.36,-443.7 1915.08,-445.08 1910.69,-446.38 1906.21,-447.62 1901.65,-448.78 1897.02,-449.86 1892.32,-450.87 1887.58,-451.79 1882.79,-452.63 1877.97,-453.38 1873.11,-454.04 1868.23,-454.61 1863.33,-455.09 1858.41,-455.47 1853.48,-455.76 1848.54,-455.95 1843.6,-456.05 1838.65,-456.05 1833.71,-455.95 1828.77,-455.76 1823.84,-455.47 1818.92,-455.09 1814.02,-454.61 1809.14,-454.04 1804.28,-453.38 1799.46,-452.63 1794.67,-451.79 1789.93,-450.87 1785.24,-449.86 1780.61,-448.78 1776.04,-447.62 1771.57,-446.38 1767.18,-445.08 1762.89,-443.7 1758.73,-442.27 1754.69,-440.78 1750.8,-439.23 1747.06,-437.63 1743.5,-435.99 1740.14,-434.3 1736.98,-432.58 1734.04,-430.82 1731.34,-429.04 1728.9,-427.24 1726.73,-425.41 1724.85,-423.58 1723.27,-421.74 1722.01,-419.89 1721.08,-418.05 1720.49,-416.21 1720.26,-414.39 1720.4,-412.58 1720.92,-410.8 1721.81,-409.05 1723.1,-407.32 1724.78,-405.64 1726.86,-403.99 1729.33,-402.4 1732.2,-400.85 1735.45,-399.36 1739.1,-397.92 1743.12,-396.55 1747.51,-395.25 1752.25,-394.01 1757.33,-392.85 1762.74,-391.76 1768.46,-390.76 1774.47,-389.84 1780.74,-389 1787.25,-388.25 1793.98,-387.59 1800.9,-387.02 1807.99,-386.54 1815.21,-386.16 1822.54,-385.87 1829.94,-385.67 1837.39,-385.58 1844.86,-385.58 1852.31,-385.67"/>
<text text-anchor="start" x="1811.96" y="-430.61" font-family="Times,serif" font-size="14.00">C0005898</text>
<text text-anchor="start" x="1768.83" y="-416.61" font-family="Times,serif" font-size="14.00">fractal topographical cues</text>
<text text-anchor="start" x="1825.18" y="-402.61" font-family="Times,serif" font-size="14.00">59:61</text>
</g>
<!-- id_27454401_DOT_2&#45;&#45;id_27454401_DOT_9 -->
<g id="edge14" class="edge">
<title>id_27454401_DOT_2&#45;&#45;id_27454401_DOT_9</title>
<path fill="none" stroke="black" stroke-dasharray="1,5" d="M1732.88,-69.91C1755.4,-142.9 1807.6,-312.12 1830.28,-385.65"/>
<text text-anchor="middle" x="1755.33" y="-230.58" font-family="Times,serif" font-size="14.00">0.507866</text>
</g>
<!-- id_27454401_DOT_3 -->
<g id="node3" class="node">
<title>id_27454401_DOT_3</title>
<polygon fill="bisque" stroke="bisque" points="455.15,-1552.04 458.83,-1552.24 462.48,-1552.52 466.07,-1552.91 469.6,-1553.39 473.04,-1553.96 476.39,-1554.62 479.63,-1555.37 482.75,-1556.2 485.74,-1557.13 488.58,-1558.13 491.27,-1559.22 493.8,-1560.38 496.16,-1561.61 498.35,-1562.92 500.35,-1564.29 502.16,-1565.72 503.78,-1567.22 505.21,-1568.76 506.44,-1570.36 507.47,-1572.01 508.31,-1573.69 508.95,-1575.42 509.39,-1577.17 509.65,-1578.95 509.72,-1580.76 509.6,-1582.58 509.31,-1584.42 508.85,-1586.26 508.22,-1588.1 507.44,-1589.95 506.5,-1591.78 505.42,-1593.6 504.21,-1595.41 502.86,-1597.19 501.4,-1598.95 499.83,-1600.67 498.15,-1602.36 496.38,-1604 494.53,-1605.6 492.59,-1607.15 490.58,-1608.64 488.51,-1610.07 486.38,-1611.44 484.19,-1612.75 481.97,-1613.98 479.7,-1615.14 477.39,-1616.23 475.06,-1617.23 472.7,-1618.16 470.32,-1618.99 467.92,-1619.75 465.5,-1620.41 463.07,-1620.98 460.63,-1621.45 458.19,-1621.84 455.73,-1622.13 453.28,-1622.32 450.82,-1622.42 448.36,-1622.42 445.9,-1622.32 443.44,-1622.13 440.99,-1621.84 438.54,-1621.45 436.1,-1620.98 433.67,-1620.41 431.26,-1619.75 428.86,-1618.99 426.47,-1618.16 424.11,-1617.23 421.78,-1616.23 419.48,-1615.14 417.21,-1613.98 414.98,-1612.75 412.8,-1611.44 410.66,-1610.07 408.59,-1608.64 406.58,-1607.15 404.65,-1605.6 402.79,-1604 401.02,-1602.36 399.34,-1600.67 397.77,-1598.95 396.31,-1597.19 394.97,-1595.41 393.75,-1593.6 392.67,-1591.78 391.73,-1589.95 390.95,-1588.1 390.32,-1586.26 389.86,-1584.42 389.57,-1582.58 389.46,-1580.76 389.52,-1578.95 389.78,-1577.17 390.23,-1575.42 390.87,-1573.69 391.7,-1572.01 392.74,-1570.36 393.97,-1568.76 395.39,-1567.22 397.01,-1565.72 398.83,-1564.29 400.83,-1562.92 403.01,-1561.61 405.37,-1560.38 407.9,-1559.22 410.59,-1558.13 413.43,-1557.13 416.42,-1556.2 419.54,-1555.37 422.78,-1554.62 426.13,-1553.96 429.57,-1553.39 433.1,-1552.91 436.69,-1552.52 440.34,-1552.24 444.02,-1552.04 447.73,-1551.95 451.44,-1551.95 455.15,-1552.04"/>
<text text-anchor="start" x="420.42" y="-1596.98" font-family="Times,serif" font-size="14.00">C0205148</text>
<text text-anchor="start" x="417.7" y="-1582.98" font-family="Times,serif" font-size="14.00">biomimetic</text>
<text text-anchor="start" x="440.64" y="-1568.98" font-family="Times,serif" font-size="14.00">6:6</text>
</g>
<!-- id_27454401_DOT_7 -->
<g id="node7" class="node">
<title>id_27454401_DOT_7</title>
<polygon fill="blueviolet" stroke="blueviolet" points="172.02,-1258.02 175.7,-1258.21 179.35,-1258.5 182.94,-1258.88 186.46,-1259.36 189.91,-1259.93 193.25,-1260.59 196.49,-1261.34 199.61,-1262.18 202.6,-1263.1 205.44,-1264.11 208.13,-1265.19 210.66,-1266.35 213.02,-1267.59 215.2,-1268.89 217.2,-1270.27 219.01,-1271.7 220.63,-1273.19 222.06,-1274.74 223.29,-1276.34 224.32,-1277.98 225.16,-1279.67 225.8,-1281.39 226.24,-1283.15 226.5,-1284.93 226.57,-1286.73 226.45,-1288.56 226.16,-1290.39 225.7,-1292.23 225.07,-1294.08 224.29,-1295.92 223.35,-1297.76 222.27,-1299.58 221.06,-1301.39 219.72,-1303.17 218.26,-1304.92 216.68,-1306.65 215.01,-1308.33 213.24,-1309.98 211.38,-1311.57 209.45,-1313.12 207.44,-1314.61 205.37,-1316.05 203.24,-1317.42 201.05,-1318.72 198.83,-1319.96 196.56,-1321.12 194.25,-1322.21 191.92,-1323.21 189.56,-1324.13 187.18,-1324.97 184.78,-1325.72 182.36,-1326.38 179.94,-1326.95 177.5,-1327.43 175.05,-1327.81 172.6,-1328.1 170.15,-1328.3 167.69,-1328.39 165.23,-1328.39 162.77,-1328.3 160.31,-1328.1 157.86,-1327.81 155.42,-1327.43 152.98,-1326.95 150.55,-1326.38 148.13,-1325.72 145.73,-1324.97 143.35,-1324.13 140.99,-1323.21 138.66,-1322.21 136.36,-1321.12 134.09,-1319.96 131.86,-1318.72 129.68,-1317.42 127.55,-1316.05 125.48,-1314.61 123.47,-1313.12 121.53,-1311.57 119.67,-1309.98 117.91,-1308.33 116.23,-1306.65 114.66,-1304.92 113.2,-1303.17 111.86,-1301.39 110.64,-1299.58 109.56,-1297.76 108.63,-1295.92 107.84,-1294.08 107.21,-1292.23 106.75,-1290.39 106.46,-1288.56 106.35,-1286.73 106.42,-1284.93 106.67,-1283.15 107.12,-1281.39 107.76,-1279.67 108.59,-1277.98 109.63,-1276.34 110.86,-1274.74 112.28,-1273.19 113.9,-1271.7 115.71,-1270.27 117.71,-1268.89 119.9,-1267.59 122.25,-1266.35 124.78,-1265.19 127.47,-1264.11 130.32,-1263.1 133.3,-1262.18 136.42,-1261.34 139.66,-1260.59 143.01,-1259.93 146.45,-1259.36 149.98,-1258.88 153.57,-1258.5 157.21,-1258.21 160.89,-1258.02 164.6,-1257.92 168.31,-1257.92 172.02,-1258.02"/>
<text text-anchor="start" x="137.29" y="-1302.96" font-family="Times,serif" font-size="14.00">C0005479</text>
<text text-anchor="start" x="134.58" y="-1288.96" font-family="Times,serif" font-size="14.00">biomaterial</text>
<text text-anchor="start" x="150.51" y="-1274.96" font-family="Times,serif" font-size="14.00">41:41</text>
</g>
<!-- id_27454401_DOT_3&#45;&#45;id_27454401_DOT_7 -->
<g id="edge15" class="edge">
<title>id_27454401_DOT_3&#45;&#45;id_27454401_DOT_7</title>
<path fill="none" stroke="black" stroke-dasharray="1,5" d="M419.02,-1555.44C363.82,-1498.12 248.3,-1378.15 194.79,-1322.58"/>
<text text-anchor="middle" x="280.65" y="-1441.81" font-family="Times,serif" font-size="14.00">0.388939</text>
</g>
<!-- id_27454401_DOT_11 -->
<g id="node11" class="node">
<title>id_27454401_DOT_11</title>
<polygon fill="coral" stroke="coral" points="878.93,-1636.16 882.62,-1636.35 886.26,-1636.64 889.86,-1637.02 893.38,-1637.5 896.83,-1638.07 900.17,-1638.73 903.41,-1639.48 906.53,-1640.32 909.52,-1641.24 912.37,-1642.25 915.06,-1643.33 917.59,-1644.49 919.95,-1645.73 922.13,-1647.03 924.13,-1648.4 925.94,-1649.84 927.56,-1651.33 928.99,-1652.88 930.22,-1654.48 931.25,-1656.12 932.09,-1657.81 932.73,-1659.53 933.18,-1661.28 933.43,-1663.07 933.5,-1664.87 933.39,-1666.69 933.1,-1668.53 932.63,-1670.37 932.01,-1672.22 931.22,-1674.06 930.28,-1675.89 929.2,-1677.72 927.99,-1679.52 926.65,-1681.3 925.19,-1683.06 923.61,-1684.78 921.94,-1686.47 920.17,-1688.11 918.31,-1689.71 916.37,-1691.26 914.37,-1692.75 912.29,-1694.19 910.16,-1695.56 907.98,-1696.86 905.75,-1698.1 903.48,-1699.26 901.18,-1700.34 898.84,-1701.35 896.48,-1702.27 894.1,-1703.11 891.7,-1703.86 889.28,-1704.52 886.85,-1705.09 884.42,-1705.57 881.97,-1705.95 879.52,-1706.24 877.06,-1706.43 874.6,-1706.53 872.14,-1706.53 869.68,-1706.43 867.22,-1706.24 864.77,-1705.95 862.32,-1705.57 859.88,-1705.09 857.46,-1704.52 855.04,-1703.86 852.64,-1703.11 850.26,-1702.27 847.9,-1701.35 845.56,-1700.34 843.26,-1699.26 840.99,-1698.1 838.76,-1696.86 836.58,-1695.56 834.45,-1694.19 832.37,-1692.75 830.37,-1691.26 828.43,-1689.71 826.57,-1688.11 824.8,-1686.47 823.13,-1684.78 821.55,-1683.06 820.09,-1681.3 818.75,-1679.52 817.53,-1677.72 816.45,-1675.89 815.52,-1674.06 814.73,-1672.22 814.11,-1670.37 813.64,-1668.53 813.35,-1666.69 813.24,-1664.87 813.31,-1663.07 813.56,-1661.28 814.01,-1659.53 814.65,-1657.81 815.49,-1656.12 816.52,-1654.48 817.75,-1652.88 819.18,-1651.33 820.8,-1649.84 822.61,-1648.4 824.61,-1647.03 826.79,-1645.73 829.15,-1644.49 831.68,-1643.33 834.37,-1642.25 837.22,-1641.24 840.2,-1640.32 843.32,-1639.48 846.56,-1638.73 849.91,-1638.07 853.36,-1637.5 856.88,-1637.02 860.48,-1636.64 864.12,-1636.35 867.81,-1636.16 871.51,-1636.06 875.23,-1636.06 878.93,-1636.16"/>
<text text-anchor="start" x="844.2" y="-1681.09" font-family="Times,serif" font-size="14.00">C0870781</text>
<text text-anchor="start" x="841.49" y="-1667.09" font-family="Times,serif" font-size="14.00">biomimetic</text>
<text text-anchor="start" x="857.42" y="-1653.09" font-family="Times,serif" font-size="14.00">72:72</text>
</g>
<!-- id_27454401_DOT_3&#45;&#45;id_27454401_DOT_11 -->
<g id="edge1" class="edge">
<title>id_27454401_DOT_3&#45;&#45;id_27454401_DOT_11</title>
<path fill="none" stroke="black" d="M502.83,-1597.75C582.19,-1613.5 731.03,-1643.04 813.87,-1659.49"/>
<text text-anchor="middle" x="632.1" y="-1631.42" font-family="Times,serif" font-size="14.00">0.027910</text>
</g>
<!-- id_27454401_DOT_18 -->
<g id="node18" class="node">
<title>id_27454401_DOT_18</title>
<polygon fill="darkgreen" stroke="darkgreen" points="96,-1739.43 101.38,-1739.63 106.7,-1739.91 111.94,-1740.3 117.08,-1740.78 122.11,-1741.35 127,-1742.01 131.73,-1742.76 136.28,-1743.6 140.64,-1744.52 144.79,-1745.52 148.72,-1746.61 152.41,-1747.77 155.85,-1749 159.04,-1750.31 161.96,-1751.68 164.6,-1753.11 166.97,-1754.61 169.05,-1756.16 170.85,-1757.75 172.35,-1759.4 173.57,-1761.08 174.51,-1762.81 175.16,-1764.56 175.53,-1766.34 175.63,-1768.15 175.47,-1769.97 175.04,-1771.81 174.37,-1773.65 173.45,-1775.49 172.31,-1777.34 170.94,-1779.17 169.37,-1781 167.59,-1782.8 165.63,-1784.58 163.5,-1786.34 161.21,-1788.06 158.76,-1789.75 156.18,-1791.39 153.47,-1792.99 150.64,-1794.54 147.71,-1796.03 144.68,-1797.46 141.57,-1798.83 138.39,-1800.14 135.13,-1801.37 131.82,-1802.54 128.46,-1803.62 125.05,-1804.63 121.61,-1805.55 118.13,-1806.39 114.63,-1807.14 111.1,-1807.8 107.56,-1808.37 104,-1808.85 100.43,-1809.23 96.85,-1809.52 93.26,-1809.71 89.67,-1809.81 86.08,-1809.81 82.49,-1809.71 78.91,-1809.52 75.33,-1809.23 71.76,-1808.85 68.2,-1808.37 64.65,-1807.8 61.13,-1807.14 57.62,-1806.39 54.15,-1805.55 50.7,-1804.63 47.3,-1803.62 43.93,-1802.54 40.62,-1801.37 37.37,-1800.14 34.18,-1798.83 31.07,-1797.46 28.05,-1796.03 25.12,-1794.54 22.29,-1792.99 19.58,-1791.39 17,-1789.75 14.55,-1788.06 12.26,-1786.34 10.12,-1784.58 8.16,-1782.8 6.39,-1781 4.82,-1779.17 3.45,-1777.34 2.3,-1775.49 1.39,-1773.65 0.71,-1771.81 0.29,-1769.97 0.12,-1768.15 0.22,-1766.34 0.6,-1764.56 1.25,-1762.81 2.18,-1761.08 3.4,-1759.4 4.91,-1757.75 6.7,-1756.16 8.79,-1754.61 11.15,-1753.11 13.8,-1751.68 16.72,-1750.31 19.9,-1749 23.35,-1747.77 27.04,-1746.61 30.97,-1745.52 35.12,-1744.52 39.48,-1743.6 44.03,-1742.76 48.76,-1742.01 53.65,-1741.35 58.67,-1740.78 63.82,-1740.3 69.06,-1739.91 74.38,-1739.63 79.76,-1739.43 85.17,-1739.34 90.59,-1739.34 96,-1739.43"/>
<text text-anchor="start" x="58.71" y="-1784.37" font-family="Times,serif" font-size="14.00">C0440257</text>
<text text-anchor="start" x="37.53" y="-1770.37" font-family="Times,serif" font-size="14.00">synthetic polymer</text>
<text text-anchor="start" x="64.93" y="-1756.37" font-family="Times,serif" font-size="14.00">141:142</text>
</g>
<!-- id_27454401_DOT_3&#45;&#45;id_27454401_DOT_18 -->
<g id="edge16" class="edge">
<title>id_27454401_DOT_3&#45;&#45;id_27454401_DOT_18</title>
<path fill="none" stroke="black" stroke-dasharray="1,5" d="M408.09,-1608.68C343.15,-1642.32 217.36,-1707.49 144.26,-1745.36"/>
<text text-anchor="middle" x="249.93" y="-1679.82" font-family="Times,serif" font-size="14.00">0.904234</text>
</g>
<!-- id_27454401_DOT_4 -->
<g id="node4" class="node">
<title>id_27454401_DOT_4</title>
<polygon fill="bisque" stroke="bisque" points="766.84,-2314.58 770.27,-2314.77 773.66,-2315.06 777,-2315.44 780.28,-2315.92 783.49,-2316.49 786.61,-2317.15 789.62,-2317.9 792.52,-2318.74 795.3,-2319.66 797.95,-2320.67 800.45,-2321.75 802.81,-2322.91 805.01,-2324.15 807.04,-2325.45 808.9,-2326.82 810.58,-2328.26 812.09,-2329.75 813.42,-2331.3 814.57,-2332.9 815.53,-2334.54 816.3,-2336.23 816.9,-2337.95 817.32,-2339.7 817.55,-2341.49 817.62,-2343.29 817.51,-2345.11 817.24,-2346.95 816.81,-2348.79 816.23,-2350.64 815.5,-2352.48 814.63,-2354.32 813.62,-2356.14 812.49,-2357.94 811.24,-2359.73 809.88,-2361.48 808.42,-2363.2 806.86,-2364.89 805.21,-2366.53 803.48,-2368.13 801.68,-2369.68 799.81,-2371.17 797.88,-2372.61 795.9,-2373.98 793.87,-2375.28 791.79,-2376.52 789.68,-2377.68 787.54,-2378.76 785.37,-2379.77 783.17,-2380.69 780.95,-2381.53 778.72,-2382.28 776.47,-2382.94 774.21,-2383.51 771.94,-2383.99 769.66,-2384.37 767.38,-2384.66 765.09,-2384.85 762.81,-2384.95 760.52,-2384.95 758.23,-2384.85 755.94,-2384.66 753.66,-2384.37 751.38,-2383.99 749.11,-2383.51 746.85,-2382.94 744.6,-2382.28 742.37,-2381.53 740.15,-2380.69 737.96,-2379.77 735.79,-2378.76 733.64,-2377.68 731.53,-2376.52 729.46,-2375.28 727.42,-2373.98 725.44,-2372.61 723.51,-2371.17 721.64,-2369.68 719.84,-2368.13 718.11,-2366.53 716.46,-2364.89 714.91,-2363.2 713.44,-2361.48 712.08,-2359.73 710.83,-2357.94 709.7,-2356.14 708.7,-2354.32 707.83,-2352.48 707.1,-2350.64 706.51,-2348.79 706.08,-2346.95 705.81,-2345.11 705.7,-2343.29 705.77,-2341.49 706.01,-2339.7 706.42,-2337.95 707.02,-2336.23 707.8,-2334.54 708.76,-2332.9 709.9,-2331.3 711.23,-2329.75 712.74,-2328.26 714.42,-2326.82 716.29,-2325.45 718.32,-2324.15 720.51,-2322.91 722.87,-2321.75 725.37,-2320.67 728.02,-2319.66 730.8,-2318.74 733.7,-2317.9 736.72,-2317.15 739.83,-2316.49 743.04,-2315.92 746.32,-2315.44 749.66,-2315.06 753.05,-2314.77 756.48,-2314.58 759.93,-2314.48 763.39,-2314.48 766.84,-2314.58"/>
<text text-anchor="start" x="732.49" y="-2359.52" font-family="Times,serif" font-size="14.00">C0205148</text>
<text text-anchor="start" x="745.33" y="-2345.52" font-family="Times,serif" font-size="14.00">micro</text>
<text text-anchor="start" x="752.72" y="-2331.52" font-family="Times,serif" font-size="14.00">8:8</text>
</g>
<!-- id_27454401_DOT_14 -->
<g id="node14" class="node">
<title>id_27454401_DOT_14</title>
<polygon fill="coral" stroke="coral" points="1065.45,-2045.15 1068.88,-2045.34 1072.28,-2045.63 1075.62,-2046.01 1078.9,-2046.49 1082.1,-2047.06 1085.22,-2047.72 1088.24,-2048.47 1091.14,-2049.31 1093.92,-2050.23 1096.57,-2051.24 1099.07,-2052.32 1101.42,-2053.49 1103.62,-2054.72 1105.65,-2056.03 1107.51,-2057.4 1109.2,-2058.83 1110.71,-2060.32 1112.04,-2061.87 1113.18,-2063.47 1114.14,-2065.11 1114.92,-2066.8 1115.51,-2068.52 1115.93,-2070.28 1116.17,-2072.06 1116.23,-2073.86 1116.13,-2075.69 1115.86,-2077.52 1115.43,-2079.37 1114.84,-2081.21 1114.11,-2083.05 1113.24,-2084.89 1112.24,-2086.71 1111.1,-2088.52 1109.86,-2090.3 1108.5,-2092.05 1107.03,-2093.78 1105.47,-2095.46 1103.83,-2097.11 1102.1,-2098.7 1100.29,-2100.25 1098.43,-2101.75 1096.5,-2103.18 1094.51,-2104.55 1092.48,-2105.86 1090.41,-2107.09 1088.3,-2108.25 1086.15,-2109.34 1083.98,-2110.34 1081.78,-2111.26 1079.57,-2112.1 1077.33,-2112.85 1075.08,-2113.51 1072.82,-2114.08 1070.55,-2114.56 1068.28,-2114.95 1066,-2115.23 1063.71,-2115.43 1061.42,-2115.52 1059.13,-2115.52 1056.84,-2115.43 1054.56,-2115.23 1052.27,-2114.95 1050,-2114.56 1047.73,-2114.08 1045.47,-2113.51 1043.22,-2112.85 1040.99,-2112.1 1038.77,-2111.26 1036.57,-2110.34 1034.4,-2109.34 1032.26,-2108.25 1030.14,-2107.09 1028.07,-2105.86 1026.04,-2104.55 1024.06,-2103.18 1022.13,-2101.75 1020.26,-2100.25 1018.46,-2098.7 1016.73,-2097.11 1015.08,-2095.46 1013.52,-2093.78 1012.06,-2092.05 1010.7,-2090.3 1009.45,-2088.52 1008.32,-2086.71 1007.31,-2084.89 1006.44,-2083.05 1005.71,-2081.21 1005.13,-2079.37 1004.7,-2077.52 1004.43,-2075.69 1004.32,-2073.86 1004.38,-2072.06 1004.62,-2070.28 1005.04,-2068.52 1005.63,-2066.8 1006.41,-2065.11 1007.37,-2063.47 1008.52,-2061.87 1009.84,-2060.32 1011.35,-2058.83 1013.04,-2057.4 1014.9,-2056.03 1016.93,-2054.72 1019.13,-2053.49 1021.48,-2052.32 1023.99,-2051.24 1026.63,-2050.23 1029.41,-2049.31 1032.32,-2048.47 1035.33,-2047.72 1038.45,-2047.06 1041.65,-2046.49 1044.93,-2046.01 1048.28,-2045.63 1051.67,-2045.34 1055.1,-2045.15 1058.55,-2045.05 1062,-2045.05 1065.45,-2045.15"/>
<text text-anchor="start" x="1031.11" y="-2090.09" font-family="Times,serif" font-size="14.00">C0870781</text>
<text text-anchor="start" x="1043.95" y="-2076.09" font-family="Times,serif" font-size="14.00">micro</text>
<text text-anchor="start" x="1037.33" y="-2062.09" font-family="Times,serif" font-size="14.00">130:130</text>
</g>
<!-- id_27454401_DOT_4&#45;&#45;id_27454401_DOT_14 -->
<g id="edge2" class="edge">
<title>id_27454401_DOT_4&#45;&#45;id_27454401_DOT_14</title>
<path fill="none" stroke="black" d="M795.34,-2319.33C854.06,-2266.35 974.27,-2157.88 1030.3,-2107.33"/>
<text text-anchor="middle" x="886.57" y="-2216.13" font-family="Times,serif" font-size="14.00">0.055552</text>
</g>
<!-- id_27454401_DOT_5 -->
<g id="node5" class="node">
<title>id_27454401_DOT_5</title>
<polygon fill="bisque" stroke="bisque" points="1408.22,-2654.86 1416.58,-2655.05 1424.85,-2655.34 1433,-2655.72 1441,-2656.2 1448.81,-2656.77 1456.41,-2657.43 1463.76,-2658.18 1470.83,-2659.02 1477.61,-2659.94 1484.06,-2660.95 1490.17,-2662.03 1495.91,-2663.2 1501.26,-2664.43 1506.21,-2665.73 1510.75,-2667.11 1514.86,-2668.54 1518.54,-2670.03 1521.78,-2671.58 1524.57,-2673.18 1526.91,-2674.82 1528.81,-2676.51 1530.26,-2678.23 1531.27,-2679.99 1531.85,-2681.77 1532.01,-2683.57 1531.75,-2685.4 1531.09,-2687.23 1530.04,-2689.08 1528.62,-2690.92 1526.84,-2692.76 1524.71,-2694.6 1522.26,-2696.42 1519.51,-2698.23 1516.46,-2700.01 1513.15,-2701.76 1509.58,-2703.49 1505.78,-2705.17 1501.76,-2706.82 1497.55,-2708.41 1493.16,-2709.96 1488.6,-2711.46 1483.9,-2712.89 1479.06,-2714.26 1474.11,-2715.57 1469.05,-2716.8 1463.9,-2717.96 1458.68,-2719.05 1453.38,-2720.05 1448.03,-2720.97 1442.62,-2721.81 1437.18,-2722.56 1431.7,-2723.22 1426.19,-2723.79 1420.65,-2724.27 1415.1,-2724.66 1409.54,-2724.94 1403.97,-2725.14 1398.39,-2725.23 1392.81,-2725.23 1387.23,-2725.14 1381.65,-2724.94 1376.09,-2724.66 1370.54,-2724.27 1365.01,-2723.79 1359.5,-2723.22 1354.01,-2722.56 1348.57,-2721.81 1343.16,-2720.97 1337.81,-2720.05 1332.52,-2719.05 1327.29,-2717.96 1322.14,-2716.8 1317.09,-2715.57 1312.13,-2714.26 1307.3,-2712.89 1302.59,-2711.46 1298.04,-2709.96 1293.64,-2708.41 1289.43,-2706.82 1285.41,-2705.17 1281.61,-2703.49 1278.05,-2701.76 1274.73,-2700.01 1271.68,-2698.23 1268.93,-2696.42 1266.48,-2694.6 1264.36,-2692.76 1262.57,-2690.92 1261.15,-2689.08 1260.1,-2687.23 1259.44,-2685.4 1259.18,-2683.57 1259.34,-2681.77 1259.92,-2679.99 1260.93,-2678.23 1262.39,-2676.51 1264.28,-2674.82 1266.63,-2673.18 1269.42,-2671.58 1272.65,-2670.03 1276.33,-2668.54 1280.44,-2667.11 1284.98,-2665.73 1289.93,-2664.43 1295.28,-2663.2 1301.02,-2662.03 1307.13,-2660.95 1313.58,-2659.94 1320.36,-2659.02 1327.44,-2658.18 1334.79,-2657.43 1342.38,-2656.77 1350.2,-2656.2 1358.19,-2655.72 1366.34,-2655.34 1374.62,-2655.05 1382.97,-2654.86 1391.38,-2654.76 1399.81,-2654.76 1408.22,-2654.86"/>
<text text-anchor="start" x="1366.43" y="-2699.8" font-family="Times,serif" font-size="14.00">C0205148</text>
<text text-anchor="start" x="1312.99" y="-2685.8" font-family="Times,serif" font-size="14.00">nano &#45; topographical surfaces</text>
<text text-anchor="start" x="1379.65" y="-2671.8" font-family="Times,serif" font-size="14.00">10:13</text>
</g>
<!-- id_27454401_DOT_20 -->
<g id="node20" class="node">
<title>id_27454401_DOT_20</title>
<polygon fill="bisque" stroke="bisque" points="1309.97,-3045.59 1313.4,-3045.78 1316.8,-3046.07 1320.14,-3046.45 1323.42,-3046.93 1326.62,-3047.5 1329.74,-3048.16 1332.76,-3048.91 1335.66,-3049.75 1338.44,-3050.67 1341.09,-3051.68 1343.59,-3052.76 1345.94,-3053.92 1348.14,-3055.16 1350.17,-3056.46 1352.03,-3057.83 1353.72,-3059.27 1355.23,-3060.76 1356.56,-3062.31 1357.7,-3063.91 1358.66,-3065.55 1359.44,-3067.24 1360.03,-3068.96 1360.45,-3070.71 1360.69,-3072.5 1360.75,-3074.3 1360.65,-3076.12 1360.38,-3077.96 1359.95,-3079.8 1359.36,-3081.65 1358.63,-3083.49 1357.76,-3085.33 1356.76,-3087.15 1355.62,-3088.95 1354.38,-3090.74 1353.02,-3092.49 1351.55,-3094.21 1349.99,-3095.9 1348.35,-3097.54 1346.62,-3099.14 1344.81,-3100.69 1342.95,-3102.18 1341.02,-3103.62 1339.03,-3104.99 1337,-3106.29 1334.93,-3107.53 1332.82,-3108.69 1330.67,-3109.77 1328.5,-3110.78 1326.3,-3111.7 1324.09,-3112.54 1321.85,-3113.29 1319.6,-3113.95 1317.34,-3114.52 1315.07,-3115 1312.8,-3115.38 1310.52,-3115.67 1308.23,-3115.86 1305.94,-3115.96 1303.65,-3115.96 1301.36,-3115.86 1299.08,-3115.67 1296.79,-3115.38 1294.52,-3115 1292.25,-3114.52 1289.99,-3113.95 1287.74,-3113.29 1285.51,-3112.54 1283.29,-3111.7 1281.09,-3110.78 1278.92,-3109.77 1276.78,-3108.69 1274.66,-3107.53 1272.59,-3106.29 1270.56,-3104.99 1268.58,-3103.62 1266.65,-3102.18 1264.78,-3100.69 1262.98,-3099.14 1261.25,-3097.54 1259.6,-3095.9 1258.04,-3094.21 1256.58,-3092.49 1255.22,-3090.74 1253.97,-3088.95 1252.84,-3087.15 1251.83,-3085.33 1250.96,-3083.49 1250.23,-3081.65 1249.65,-3079.8 1249.22,-3077.96 1248.95,-3076.12 1248.84,-3074.3 1248.9,-3072.5 1249.14,-3070.71 1249.56,-3068.96 1250.15,-3067.24 1250.93,-3065.55 1251.89,-3063.91 1253.04,-3062.31 1254.36,-3060.76 1255.87,-3059.27 1257.56,-3057.83 1259.42,-3056.46 1261.45,-3055.16 1263.65,-3053.92 1266,-3052.76 1268.51,-3051.68 1271.15,-3050.67 1273.93,-3049.75 1276.84,-3048.91 1279.85,-3048.16 1282.97,-3047.5 1286.17,-3046.93 1289.45,-3046.45 1292.8,-3046.07 1296.19,-3045.78 1299.62,-3045.59 1303.07,-3045.49 1306.52,-3045.49 1309.97,-3045.59"/>
<text text-anchor="start" x="1275.63" y="-3090.53" font-family="Times,serif" font-size="14.00">C0205148</text>
<text text-anchor="start" x="1284.59" y="-3076.53" font-family="Times,serif" font-size="14.00">surface</text>
<text text-anchor="start" x="1281.85" y="-3062.53" font-family="Times,serif" font-size="14.00">152:152</text>
</g>
<!-- id_27454401_DOT_5&#45;&#45;id_27454401_DOT_20 -->
<g id="edge3" class="edge">
<title>id_27454401_DOT_5&#45;&#45;id_27454401_DOT_20</title>
<path fill="none" stroke="black" d="M1387.38,-2725.36C1370.09,-2799.75 1330.14,-2971.65 1312.93,-3045.72"/>
<text text-anchor="middle" x="1323.9" y="-2888.34" font-family="Times,serif" font-size="14.00">0.093271</text>
</g>
<!-- id_27454401_DOT_26 -->
<g id="node26" class="node">
<title>id_27454401_DOT_26</title>
<polygon fill="coral" stroke="coral" points="1434.42,-2229.72 1437.85,-2229.92 1441.25,-2230.21 1444.59,-2230.59 1447.87,-2231.07 1451.07,-2231.64 1454.19,-2232.3 1457.21,-2233.05 1460.11,-2233.89 1462.89,-2234.81 1465.54,-2235.81 1468.04,-2236.9 1470.39,-2238.06 1472.59,-2239.29 1474.62,-2240.6 1476.48,-2241.97 1478.17,-2243.41 1479.68,-2244.9 1481.01,-2246.45 1482.15,-2248.04 1483.11,-2249.69 1483.89,-2251.37 1484.49,-2253.1 1484.9,-2254.85 1485.14,-2256.63 1485.2,-2258.44 1485.1,-2260.26 1484.83,-2262.1 1484.4,-2263.94 1483.81,-2265.79 1483.08,-2267.63 1482.21,-2269.46 1481.21,-2271.29 1480.08,-2273.09 1478.83,-2274.87 1477.47,-2276.63 1476,-2278.35 1474.44,-2280.04 1472.8,-2281.68 1471.07,-2283.28 1469.27,-2284.83 1467.4,-2286.32 1465.47,-2287.75 1463.48,-2289.13 1461.45,-2290.43 1459.38,-2291.66 1457.27,-2292.83 1455.12,-2293.91 1452.95,-2294.92 1450.75,-2295.84 1448.54,-2296.68 1446.3,-2297.43 1444.06,-2298.09 1441.79,-2298.66 1439.53,-2299.14 1437.25,-2299.52 1434.97,-2299.81 1432.68,-2300 1430.39,-2300.1 1428.1,-2300.1 1425.81,-2300 1423.53,-2299.81 1421.24,-2299.52 1418.97,-2299.14 1416.7,-2298.66 1414.44,-2298.09 1412.19,-2297.43 1409.96,-2296.68 1407.74,-2295.84 1405.54,-2294.92 1403.37,-2293.91 1401.23,-2292.83 1399.12,-2291.66 1397.04,-2290.43 1395.01,-2289.13 1393.03,-2287.75 1391.1,-2286.32 1389.23,-2284.83 1387.43,-2283.28 1385.7,-2281.68 1384.05,-2280.04 1382.49,-2278.35 1381.03,-2276.63 1379.67,-2274.87 1378.42,-2273.09 1377.29,-2271.29 1376.28,-2269.46 1375.41,-2267.63 1374.68,-2265.79 1374.1,-2263.94 1373.67,-2262.1 1373.4,-2260.26 1373.29,-2258.44 1373.35,-2256.63 1373.59,-2254.85 1374.01,-2253.1 1374.6,-2251.37 1375.38,-2249.69 1376.34,-2248.04 1377.49,-2246.45 1378.81,-2244.9 1380.32,-2243.41 1382.01,-2241.97 1383.87,-2240.6 1385.9,-2239.29 1388.1,-2238.06 1390.45,-2236.9 1392.96,-2235.81 1395.6,-2234.81 1398.38,-2233.89 1401.29,-2233.05 1404.3,-2232.3 1407.42,-2231.64 1410.62,-2231.07 1413.9,-2230.59 1417.25,-2230.21 1420.64,-2229.92 1424.07,-2229.72 1427.52,-2229.63 1430.97,-2229.63 1434.42,-2229.72"/>
<text text-anchor="start" x="1400.08" y="-2274.66" font-family="Times,serif" font-size="14.00">C0870781</text>
<text text-anchor="start" x="1415.64" y="-2260.66" font-family="Times,serif" font-size="14.00">nano</text>
<text text-anchor="start" x="1406.3" y="-2246.66" font-family="Times,serif" font-size="14.00">229:229</text>
</g>
<!-- id_27454401_DOT_5&#45;&#45;id_27454401_DOT_26 -->
<g id="edge17" class="edge">
<title>id_27454401_DOT_5&#45;&#45;id_27454401_DOT_26</title>
<path fill="none" stroke="black" stroke-dasharray="1,5" d="M1398.41,-2654.48C1404.75,-2574.36 1420.11,-2380.31 1426.44,-2300.28"/>
<text text-anchor="middle" x="1386.18" y="-2480.18" font-family="Times,serif" font-size="14.00">0.777236</text>
</g>
<!-- id_27454401_DOT_8 -->
<g id="node8" class="node">
<title>id_27454401_DOT_8</title>
<polygon fill="brown" stroke="brown" points="4258.49,-511.53 4262.44,-511.72 4266.35,-512.01 4270.2,-512.39 4273.97,-512.87 4277.66,-513.44 4281.25,-514.1 4284.72,-514.85 4288.06,-515.69 4291.26,-516.61 4294.31,-517.62 4297.2,-518.7 4299.91,-519.86 4302.43,-521.1 4304.77,-522.4 4306.92,-523.77 4308.86,-525.21 4310.6,-526.7 4312.12,-528.25 4313.44,-529.85 4314.55,-531.49 4315.44,-533.18 4316.13,-534.9 4316.61,-536.65 4316.88,-538.44 4316.96,-540.24 4316.83,-542.06 4316.52,-543.9 4316.03,-545.74 4315.35,-547.59 4314.51,-549.43 4313.51,-551.26 4312.35,-553.09 4311.05,-554.89 4309.61,-556.67 4308.05,-558.43 4306.36,-560.15 4304.57,-561.84 4302.67,-563.48 4300.68,-565.08 4298.61,-566.63 4296.45,-568.12 4294.23,-569.56 4291.95,-570.93 4289.61,-572.23 4287.22,-573.47 4284.79,-574.63 4282.32,-575.71 4279.82,-576.72 4277.29,-577.64 4274.74,-578.48 4272.17,-579.23 4269.58,-579.89 4266.98,-580.46 4264.37,-580.94 4261.75,-581.32 4259.12,-581.61 4256.49,-581.8 4253.85,-581.9 4251.21,-581.9 4248.58,-581.8 4245.95,-581.61 4243.32,-581.32 4240.7,-580.94 4238.09,-580.46 4235.48,-579.89 4232.89,-579.23 4230.32,-578.48 4227.77,-577.64 4225.24,-576.72 4222.74,-575.71 4220.27,-574.63 4217.84,-573.47 4215.45,-572.23 4213.12,-570.93 4210.83,-569.56 4208.61,-568.12 4206.46,-566.63 4204.38,-565.08 4202.39,-563.48 4200.5,-561.84 4198.7,-560.15 4197.02,-558.43 4195.45,-556.67 4194.01,-554.89 4192.71,-553.09 4191.55,-551.26 4190.55,-549.43 4189.71,-547.59 4189.04,-545.74 4188.54,-543.9 4188.23,-542.06 4188.11,-540.24 4188.18,-538.44 4188.46,-536.65 4188.94,-534.9 4189.62,-533.18 4190.52,-531.49 4191.62,-529.85 4192.94,-528.25 4194.47,-526.7 4196.21,-525.21 4198.15,-523.77 4200.29,-522.4 4202.63,-521.1 4205.16,-519.86 4207.87,-518.7 4210.75,-517.62 4213.8,-516.61 4217,-515.69 4220.34,-514.85 4223.81,-514.1 4227.4,-513.44 4231.09,-512.87 4234.87,-512.39 4238.72,-512.01 4242.62,-511.72 4246.57,-511.53 4250.54,-511.43 4254.52,-511.43 4258.49,-511.53"/>
<text text-anchor="start" x="4223.36" y="-556.46" font-family="Times,serif" font-size="14.00">C0242821</text>
<text text-anchor="start" x="4217.73" y="-542.46" font-family="Times,serif" font-size="14.00">human body</text>
<text text-anchor="start" x="4236.59" y="-528.46" font-family="Times,serif" font-size="14.00">53:54</text>
</g>
<!-- id_27454401_DOT_16 -->
<g id="node16" class="node">
<title>id_27454401_DOT_16</title>
<polygon fill="crimson" stroke="crimson" points="4559,-279.22 4562.43,-279.41 4565.82,-279.7 4569.17,-280.08 4572.45,-280.56 4575.65,-281.13 4578.77,-281.79 4581.78,-282.54 4584.69,-283.38 4587.47,-284.31 4590.11,-285.31 4592.62,-286.39 4594.97,-287.56 4597.17,-288.79 4599.2,-290.1 4601.06,-291.47 4602.75,-292.9 4604.26,-294.39 4605.58,-295.94 4606.73,-297.54 4607.69,-299.18 4608.47,-300.87 4609.06,-302.59 4609.48,-304.35 4609.72,-306.13 4609.78,-307.94 4609.67,-309.76 4609.4,-311.59 4608.97,-313.44 4608.39,-315.28 4607.66,-317.12 4606.79,-318.96 4605.78,-320.78 4604.65,-322.59 4603.4,-324.37 4602.04,-326.12 4600.58,-327.85 4599.02,-329.53 4597.37,-331.18 4595.64,-332.78 4593.84,-334.32 4591.97,-335.82 4590.04,-337.25 4588.06,-338.62 4586.03,-339.93 4583.95,-341.16 4581.84,-342.32 4579.7,-343.41 4577.53,-344.41 4575.33,-345.33 4573.11,-346.17 4570.88,-346.92 4568.63,-347.58 4566.37,-348.15 4564.1,-348.63 4561.83,-349.02 4559.54,-349.3 4557.26,-349.5 4554.97,-349.59 4552.68,-349.59 4550.39,-349.5 4548.1,-349.3 4545.82,-349.02 4543.54,-348.63 4541.27,-348.15 4539.01,-347.58 4536.77,-346.92 4534.53,-346.17 4532.32,-345.33 4530.12,-344.41 4527.95,-343.41 4525.8,-342.32 4523.69,-341.16 4521.62,-339.93 4519.59,-338.62 4517.6,-337.25 4515.67,-335.82 4513.8,-334.32 4512,-332.78 4510.27,-331.18 4508.63,-329.53 4507.07,-327.85 4505.6,-326.12 4504.24,-324.37 4502.99,-322.59 4501.86,-320.78 4500.86,-318.96 4499.99,-317.12 4499.26,-315.28 4498.67,-313.44 4498.24,-311.59 4497.97,-309.76 4497.87,-307.94 4497.93,-306.13 4498.17,-304.35 4498.58,-302.59 4499.18,-300.87 4499.96,-299.18 4500.92,-297.54 4502.06,-295.94 4503.39,-294.39 4504.9,-292.9 4506.59,-291.47 4508.45,-290.1 4510.48,-288.79 4512.68,-287.56 4515.03,-286.39 4517.53,-285.31 4520.18,-284.31 4522.96,-283.38 4525.86,-282.54 4528.88,-281.79 4532,-281.13 4535.2,-280.56 4538.48,-280.08 4541.82,-279.7 4545.22,-279.41 4548.65,-279.22 4552.09,-279.12 4555.55,-279.12 4559,-279.22"/>
<text text-anchor="start" x="4524.65" y="-324.16" font-family="Times,serif" font-size="14.00">C0086418</text>
<text text-anchor="start" x="4534.77" y="-310.16" font-family="Times,serif" font-size="14.00">human</text>
<text text-anchor="start" x="4530.88" y="-296.16" font-family="Times,serif" font-size="14.00">136:136</text>
</g>
<!-- id_27454401_DOT_8&#45;&#45;id_27454401_DOT_16 -->
<g id="edge18" class="edge">
<title>id_27454401_DOT_8&#45;&#45;id_27454401_DOT_16</title>
<path fill="none" stroke="black" stroke-dasharray="1,5" d="M4291.61,-516.53C4351.48,-470.37 4464.83,-382.98 4520.82,-339.8"/>
<text text-anchor="middle" x="4379.97" y="-430.97" font-family="Times,serif" font-size="14.00">0.561234</text>
</g>
<!-- id_27454401_DOT_23 -->
<g id="node23" class="node">
<title>id_27454401_DOT_23</title>
<polygon fill="darkmagenta" stroke="darkmagenta" points="3996.24,-818.59 4003,-818.78 4009.69,-819.07 4016.28,-819.45 4022.74,-819.93 4029.06,-820.5 4035.2,-821.16 4041.14,-821.91 4046.86,-822.75 4052.34,-823.67 4057.56,-824.68 4062.5,-825.76 4067.14,-826.92 4071.46,-828.16 4075.47,-829.46 4079.14,-830.83 4082.46,-832.27 4085.43,-833.76 4088.05,-835.31 4090.31,-836.91 4092.2,-838.55 4093.73,-840.24 4094.91,-841.96 4095.73,-843.71 4096.2,-845.5 4096.32,-847.3 4096.11,-849.12 4095.58,-850.96 4094.73,-852.8 4093.58,-854.65 4092.14,-856.49 4090.42,-858.33 4088.44,-860.15 4086.22,-861.95 4083.75,-863.74 4081.07,-865.49 4078.19,-867.21 4075.12,-868.9 4071.87,-870.54 4068.46,-872.14 4064.91,-873.69 4061.23,-875.18 4057.42,-876.62 4053.51,-877.99 4049.51,-879.29 4045.42,-880.53 4041.26,-881.69 4037.04,-882.77 4032.75,-883.78 4028.43,-884.7 4024.06,-885.54 4019.65,-886.29 4015.22,-886.95 4010.77,-887.52 4006.29,-888 4001.81,-888.38 3997.31,-888.67 3992.8,-888.86 3988.29,-888.96 3983.78,-888.96 3979.27,-888.86 3974.76,-888.67 3970.26,-888.38 3965.78,-888 3961.3,-887.52 3956.85,-886.95 3952.42,-886.29 3948.01,-885.54 3943.64,-884.7 3939.32,-883.78 3935.04,-882.77 3930.81,-881.69 3926.65,-880.53 3922.56,-879.29 3918.56,-877.99 3914.65,-876.62 3910.84,-875.18 3907.16,-873.69 3903.61,-872.14 3900.2,-870.54 3896.95,-868.9 3893.88,-867.21 3891,-865.49 3888.32,-863.74 3885.85,-861.95 3883.63,-860.15 3881.65,-858.33 3879.93,-856.49 3878.49,-854.65 3877.34,-852.8 3876.49,-850.96 3875.96,-849.12 3875.75,-847.3 3875.87,-845.5 3876.34,-843.71 3877.16,-841.96 3878.34,-840.24 3879.87,-838.55 3881.76,-836.91 3884.02,-835.31 3886.64,-833.76 3889.61,-832.27 3892.93,-830.83 3896.6,-829.46 3900.61,-828.16 3904.93,-826.92 3909.57,-825.76 3914.51,-824.68 3919.73,-823.67 3925.21,-822.75 3930.93,-821.91 3936.87,-821.16 3943.01,-820.5 3949.33,-819.93 3955.8,-819.45 3962.39,-819.07 3969.07,-818.78 3975.83,-818.59 3982.63,-818.49 3989.44,-818.49 3996.24,-818.59"/>
<text text-anchor="start" x="3956.87" y="-863.53" font-family="Times,serif" font-size="14.00">C3494272</text>
<text text-anchor="start" x="3920.74" y="-849.53" font-family="Times,serif" font-size="14.00">acellular dermal matrix</text>
<text text-anchor="start" x="3963.09" y="-835.53" font-family="Times,serif" font-size="14.00">210:212</text>
</g>
<!-- id_27454401_DOT_8&#45;&#45;id_27454401_DOT_23 -->
<g id="edge19" class="edge">
<title>id_27454401_DOT_8&#45;&#45;id_27454401_DOT_23</title>
<path fill="none" stroke="black" stroke-dasharray="1,5" d="M4226.01,-577.23C4176.11,-634.72 4068.59,-758.6 4016.1,-819.08"/>
<text text-anchor="middle" x="4094.8" y="-700.96" font-family="Times,serif" font-size="14.00">0.843052</text>
</g>
<!-- id_27454401_DOT_12 -->
<g id="node12" class="node">
<title>id_27454401_DOT_12</title>
<polygon fill="coral" stroke="coral" points="1947.49,-803.42 1953.38,-803.61 1959.2,-803.9 1964.95,-804.29 1970.58,-804.76 1976.09,-805.33 1981.44,-806 1986.62,-806.75 1991.61,-807.58 1996.38,-808.51 2000.93,-809.51 2005.23,-810.6 2009.27,-811.76 2013.05,-812.99 2016.53,-814.3 2019.73,-815.67 2022.63,-817.1 2025.22,-818.6 2027.5,-820.14 2029.47,-821.74 2031.12,-823.39 2032.45,-825.07 2033.48,-826.79 2034.19,-828.55 2034.6,-830.33 2034.71,-832.14 2034.53,-833.96 2034.06,-835.79 2033.32,-837.64 2032.32,-839.48 2031.07,-841.33 2029.57,-843.16 2027.84,-844.98 2025.9,-846.79 2023.76,-848.57 2021.42,-850.33 2018.91,-852.05 2016.23,-853.73 2013.4,-855.38 2010.43,-856.98 2007.33,-858.52 2004.12,-860.02 2000.81,-861.45 1997.4,-862.82 1993.91,-864.13 1990.35,-865.36 1986.72,-866.52 1983.04,-867.61 1979.31,-868.61 1975.54,-869.54 1971.73,-870.37 1967.89,-871.12 1964.03,-871.79 1960.15,-872.36 1956.25,-872.83 1952.34,-873.22 1948.42,-873.51 1944.49,-873.7 1940.56,-873.8 1936.63,-873.8 1932.7,-873.7 1928.77,-873.51 1924.85,-873.22 1920.94,-872.83 1917.04,-872.36 1913.16,-871.79 1909.3,-871.12 1905.46,-870.37 1901.65,-869.54 1897.88,-868.61 1894.15,-867.61 1890.47,-866.52 1886.84,-865.36 1883.28,-864.13 1879.79,-862.82 1876.38,-861.45 1873.07,-860.02 1869.85,-858.52 1866.76,-856.98 1863.79,-855.38 1860.96,-853.73 1858.28,-852.05 1855.77,-850.33 1853.43,-848.57 1851.29,-846.79 1849.34,-844.98 1847.62,-843.16 1846.12,-841.33 1844.87,-839.48 1843.86,-837.64 1843.13,-835.79 1842.66,-833.96 1842.48,-832.14 1842.59,-830.33 1843,-828.55 1843.71,-826.79 1844.73,-825.07 1846.07,-823.39 1847.72,-821.74 1849.69,-820.14 1851.97,-818.6 1854.56,-817.1 1857.46,-815.67 1860.65,-814.3 1864.14,-812.99 1867.92,-811.76 1871.96,-810.6 1876.26,-809.51 1880.81,-808.51 1885.58,-807.58 1890.57,-806.75 1895.75,-806 1901.1,-805.33 1906.61,-804.76 1912.24,-804.29 1917.98,-803.9 1923.81,-803.61 1929.7,-803.42 1935.63,-803.32 1941.56,-803.32 1947.49,-803.42"/>
<text text-anchor="start" x="1909.43" y="-848.36" font-family="Times,serif" font-size="14.00">C0870781</text>
<text text-anchor="start" x="1882.81" y="-834.36" font-family="Times,serif" font-size="14.00">fractal topographies</text>
<text text-anchor="start" x="1922.65" y="-820.36" font-family="Times,serif" font-size="14.00">74:75</text>
</g>
<!-- id_27454401_DOT_9&#45;&#45;id_27454401_DOT_12 -->
<g id="edge20" class="edge">
<title>id_27454401_DOT_9&#45;&#45;id_27454401_DOT_12</title>
<path fill="none" stroke="black" stroke-dasharray="1,5" d="M1849.35,-456.07C1867.73,-534.85 1911.96,-724.42 1930.36,-803.25"/>
<text text-anchor="middle" x="1863.6" y="-632.46" font-family="Times,serif" font-size="14.00">0.296386</text>
</g>
<!-- id_27454401_DOT_10 -->
<g id="node10" class="node">
<title>id_27454401_DOT_10</title>
<polygon fill="chartreuse" stroke="chartreuse" points="3511.92,-419.6 3515.35,-419.79 3518.74,-420.08 3522.09,-420.46 3525.37,-420.94 3528.57,-421.51 3531.69,-422.17 3534.7,-422.92 3537.61,-423.76 3540.39,-424.68 3543.03,-425.69 3545.54,-426.77 3547.89,-427.93 3550.09,-429.17 3552.12,-430.47 3553.98,-431.84 3555.67,-433.28 3557.17,-434.77 3558.5,-436.32 3559.65,-437.92 3560.61,-439.56 3561.39,-441.25 3561.98,-442.97 3562.4,-444.72 3562.64,-446.51 3562.7,-448.31 3562.59,-450.13 3562.32,-451.97 3561.89,-453.81 3561.31,-455.66 3560.58,-457.5 3559.71,-459.33 3558.7,-461.16 3557.57,-462.96 3556.32,-464.74 3554.96,-466.5 3553.5,-468.22 3551.94,-469.91 3550.29,-471.55 3548.56,-473.15 3546.76,-474.7 3544.89,-476.19 3542.96,-477.63 3540.98,-479 3538.95,-480.3 3536.87,-481.54 3534.76,-482.7 3532.62,-483.78 3530.45,-484.79 3528.25,-485.71 3526.03,-486.55 3523.8,-487.3 3521.55,-487.96 3519.29,-488.53 3517.02,-489.01 3514.74,-489.39 3512.46,-489.68 3510.18,-489.87 3507.89,-489.97 3505.6,-489.97 3503.31,-489.87 3501.02,-489.68 3498.74,-489.39 3496.46,-489.01 3494.19,-488.53 3491.93,-487.96 3489.69,-487.3 3487.45,-486.55 3485.24,-485.71 3483.04,-484.79 3480.87,-483.78 3478.72,-482.7 3476.61,-481.54 3474.54,-480.3 3472.51,-479 3470.52,-477.63 3468.59,-476.19 3466.72,-474.7 3464.92,-473.15 3463.19,-471.55 3461.55,-469.91 3459.99,-468.22 3458.52,-466.5 3457.16,-464.74 3455.91,-462.96 3454.78,-461.16 3453.78,-459.33 3452.91,-457.5 3452.18,-455.66 3451.59,-453.81 3451.16,-451.97 3450.89,-450.13 3450.79,-448.31 3450.85,-446.51 3451.09,-444.72 3451.5,-442.97 3452.1,-441.25 3452.88,-439.56 3453.84,-437.92 3454.98,-436.32 3456.31,-434.77 3457.82,-433.28 3459.51,-431.84 3461.37,-430.47 3463.4,-429.17 3465.59,-427.93 3467.95,-426.77 3470.45,-425.69 3473.1,-424.68 3475.88,-423.76 3478.78,-422.92 3481.8,-422.17 3484.91,-421.51 3488.12,-420.94 3491.4,-420.46 3494.74,-420.08 3498.14,-419.79 3501.56,-419.6 3505.01,-419.5 3508.47,-419.5 3511.92,-419.6"/>
<text text-anchor="start" x="3477.57" y="-464.53" font-family="Times,serif" font-size="14.00">C0007634</text>
<text text-anchor="start" x="3496.64" y="-450.53" font-family="Times,serif" font-size="14.00">cell</text>
<text text-anchor="start" x="3490.8" y="-436.53" font-family="Times,serif" font-size="14.00">66:66</text>
</g>
<!-- id_27454401_DOT_19 -->
<g id="node19" class="node">
<title>id_27454401_DOT_19</title>
<polygon fill="darkgoldenrod" stroke="darkgoldenrod" points="3573.71,-830.34 3578.66,-830.53 3583.55,-830.82 3588.38,-831.21 3593.11,-831.68 3597.73,-832.25 3602.22,-832.92 3606.57,-833.67 3610.76,-834.5 3614.77,-835.43 3618.59,-836.43 3622.2,-837.52 3625.6,-838.68 3628.77,-839.91 3631.7,-841.22 3634.38,-842.59 3636.81,-844.02 3638.99,-845.52 3640.9,-847.06 3642.56,-848.66 3643.94,-850.31 3645.06,-851.99 3645.92,-853.71 3646.52,-855.47 3646.87,-857.25 3646.96,-859.06 3646.81,-860.88 3646.42,-862.71 3645.79,-864.56 3644.95,-866.4 3643.9,-868.25 3642.64,-870.08 3641.19,-871.9 3639.56,-873.71 3637.76,-875.49 3635.8,-877.25 3633.69,-878.97 3631.44,-880.65 3629.06,-882.3 3626.57,-883.9 3623.97,-885.44 3621.27,-886.94 3618.49,-888.37 3615.63,-889.74 3612.7,-891.05 3609.71,-892.28 3606.66,-893.44 3603.57,-894.53 3600.44,-895.53 3597.27,-896.46 3594.07,-897.29 3590.85,-898.04 3587.61,-898.71 3584.35,-899.28 3581.07,-899.75 3577.79,-900.14 3574.49,-900.43 3571.2,-900.62 3567.9,-900.72 3564.59,-900.72 3561.29,-900.62 3557.99,-900.43 3554.7,-900.14 3551.42,-899.75 3548.14,-899.28 3544.88,-898.71 3541.64,-898.04 3538.42,-897.29 3535.22,-896.46 3532.05,-895.53 3528.92,-894.53 3525.83,-893.44 3522.78,-892.28 3519.79,-891.05 3516.86,-889.74 3514,-888.37 3511.22,-886.94 3508.52,-885.44 3505.92,-883.9 3503.43,-882.3 3501.05,-880.65 3498.8,-878.97 3496.69,-877.25 3494.73,-875.49 3492.93,-873.71 3491.3,-871.9 3489.85,-870.08 3488.59,-868.25 3487.54,-866.4 3486.69,-864.56 3486.07,-862.71 3485.68,-860.88 3485.53,-859.06 3485.62,-857.25 3485.97,-855.47 3486.57,-853.71 3487.43,-851.99 3488.55,-850.31 3489.93,-848.66 3491.59,-847.06 3493.5,-845.52 3495.68,-844.02 3498.11,-842.59 3500.79,-841.22 3503.72,-839.91 3506.89,-838.68 3510.29,-837.52 3513.9,-836.43 3517.72,-835.43 3521.73,-834.5 3525.92,-833.67 3530.26,-832.92 3534.76,-832.25 3539.38,-831.68 3544.11,-831.21 3548.94,-830.82 3553.83,-830.53 3558.78,-830.34 3563.75,-830.24 3568.74,-830.24 3573.71,-830.34"/>
<text text-anchor="start" x="3537.08" y="-875.28" font-family="Times,serif" font-size="14.00">C0457457</text>
<text text-anchor="start" x="3520.56" y="-861.28" font-family="Times,serif" font-size="14.00">biological tissue</text>
<text text-anchor="start" x="3543.3" y="-847.28" font-family="Times,serif" font-size="14.00">150:151</text>
</g>
<!-- id_27454401_DOT_10&#45;&#45;id_27454401_DOT_19 -->
<g id="edge21" class="edge">
<title>id_27454401_DOT_10&#45;&#45;id_27454401_DOT_19</title>
<path fill="none" stroke="black" stroke-dasharray="1,5" d="M3511.82,-489.75C3523.04,-567.26 3549.89,-752.57 3561.14,-830.26"/>
<text text-anchor="middle" x="3510.23" y="-662.81" font-family="Times,serif" font-size="14.00">0.838620</text>
</g>
<!-- id_27454401_DOT_27 -->
<g id="node27" class="node">
<title>id_27454401_DOT_27</title>
<polygon fill="coral" stroke="coral" points="1318.18,-1793.93 1324.5,-1794.12 1330.77,-1794.41 1336.94,-1794.79 1342.99,-1795.27 1348.9,-1795.84 1354.65,-1796.5 1360.22,-1797.25 1365.58,-1798.09 1370.71,-1799.01 1375.59,-1800.02 1380.21,-1801.1 1384.56,-1802.26 1388.61,-1803.5 1392.36,-1804.8 1395.8,-1806.17 1398.91,-1807.61 1401.69,-1809.1 1404.14,-1810.65 1406.25,-1812.25 1408.03,-1813.89 1409.46,-1815.58 1410.56,-1817.3 1411.33,-1819.05 1411.77,-1820.84 1411.89,-1822.64 1411.69,-1824.46 1411.19,-1826.3 1410.4,-1828.14 1409.32,-1829.99 1407.97,-1831.83 1406.36,-1833.67 1404.51,-1835.49 1402.42,-1837.29 1400.12,-1839.08 1397.61,-1840.83 1394.91,-1842.55 1392.03,-1844.24 1388.99,-1845.88 1385.8,-1847.48 1382.47,-1849.03 1379.03,-1850.52 1375.46,-1851.96 1371.8,-1853.33 1368.05,-1854.63 1364.23,-1855.87 1360.33,-1857.03 1356.37,-1858.11 1352.37,-1859.12 1348.31,-1860.04 1344.22,-1860.88 1340.1,-1861.63 1335.95,-1862.29 1331.78,-1862.86 1327.59,-1863.34 1323.39,-1863.72 1319.18,-1864.01 1314.96,-1864.2 1310.73,-1864.3 1306.51,-1864.3 1302.29,-1864.2 1298.07,-1864.01 1293.85,-1863.72 1289.65,-1863.34 1285.46,-1862.86 1281.29,-1862.29 1277.14,-1861.63 1273.02,-1860.88 1268.93,-1860.04 1264.88,-1859.12 1260.87,-1858.11 1256.91,-1857.03 1253.02,-1855.87 1249.19,-1854.63 1245.44,-1853.33 1241.78,-1851.96 1238.22,-1850.52 1234.77,-1849.03 1231.44,-1847.48 1228.25,-1845.88 1225.21,-1844.24 1222.33,-1842.55 1219.63,-1840.83 1217.12,-1839.08 1214.82,-1837.29 1212.73,-1835.49 1210.88,-1833.67 1209.27,-1831.83 1207.92,-1829.99 1206.84,-1828.14 1206.05,-1826.3 1205.55,-1824.46 1205.36,-1822.64 1205.47,-1820.84 1205.91,-1819.05 1206.68,-1817.3 1207.78,-1815.58 1209.22,-1813.89 1210.99,-1812.25 1213.1,-1810.65 1215.55,-1809.1 1218.33,-1807.61 1221.45,-1806.17 1224.88,-1804.8 1228.63,-1803.5 1232.68,-1802.26 1237.03,-1801.1 1241.65,-1800.02 1246.54,-1799.01 1251.67,-1798.09 1257.02,-1797.25 1262.59,-1796.5 1268.34,-1795.84 1274.25,-1795.27 1280.31,-1794.79 1286.48,-1794.41 1292.74,-1794.12 1299.07,-1793.93 1305.43,-1793.83 1311.81,-1793.83 1318.18,-1793.93"/>
<text text-anchor="start" x="1279.45" y="-1838.87" font-family="Times,serif" font-size="14.00">C0870781</text>
<text text-anchor="start" x="1247.98" y="-1824.87" font-family="Times,serif" font-size="14.00">micro &#45; topographical</text>
<text text-anchor="start" x="1285.68" y="-1810.87" font-family="Times,serif" font-size="14.00">231:233</text>
</g>
<!-- id_27454401_DOT_11&#45;&#45;id_27454401_DOT_27 -->
<g id="edge22" class="edge">
<title>id_27454401_DOT_11&#45;&#45;id_27454401_DOT_27</title>
<path fill="none" stroke="black" stroke-dasharray="1,5" d="M920.36,-1688.33C995.54,-1715.58 1143.52,-1769.22 1233.5,-1801.84"/>
<text text-anchor="middle" x="1050.68" y="-1747.88" font-family="Times,serif" font-size="14.00">0.643724</text>
</g>
<!-- id_27454401_DOT_30 -->
<g id="node30" class="node">
<title>id_27454401_DOT_30</title>
<polygon fill="coral" stroke="coral" points="2009.8,-1247.55 2015.3,-1247.75 2020.74,-1248.03 2026.1,-1248.42 2031.36,-1248.89 2036.5,-1249.47 2041.5,-1250.13 2046.33,-1250.88 2050.99,-1251.71 2055.45,-1252.64 2059.69,-1253.64 2063.71,-1254.73 2067.48,-1255.89 2071.01,-1257.12 2074.26,-1258.43 2077.25,-1259.8 2079.95,-1261.23 2082.37,-1262.73 2084.5,-1264.27 2086.34,-1265.87 2087.88,-1267.52 2089.13,-1269.2 2090.08,-1270.93 2090.75,-1272.68 2091.13,-1274.46 2091.23,-1276.27 2091.06,-1278.09 2090.63,-1279.93 2089.94,-1281.77 2089,-1283.61 2087.83,-1285.46 2086.43,-1287.29 2084.82,-1289.11 2083.01,-1290.92 2081,-1292.7 2078.82,-1294.46 2076.48,-1296.18 2073.98,-1297.87 2071.33,-1299.51 2068.56,-1301.11 2065.67,-1302.66 2062.68,-1304.15 2059.58,-1305.58 2056.4,-1306.95 2053.14,-1308.26 2049.82,-1309.49 2046.43,-1310.65 2042.99,-1311.74 2039.51,-1312.74 2035.99,-1313.67 2032.43,-1314.5 2028.85,-1315.26 2025.24,-1315.92 2021.62,-1316.49 2017.98,-1316.96 2014.33,-1317.35 2010.67,-1317.64 2007,-1317.83 2003.33,-1317.93 1999.66,-1317.93 1995.99,-1317.83 1992.32,-1317.64 1988.66,-1317.35 1985.01,-1316.96 1981.37,-1316.49 1977.75,-1315.92 1974.14,-1315.26 1970.56,-1314.5 1967,-1313.67 1963.48,-1312.74 1960,-1311.74 1956.56,-1310.65 1953.17,-1309.49 1949.85,-1308.26 1946.59,-1306.95 1943.41,-1305.58 1940.32,-1304.15 1937.32,-1302.66 1934.43,-1301.11 1931.66,-1299.51 1929.01,-1297.87 1926.51,-1296.18 1924.17,-1294.46 1921.99,-1292.7 1919.98,-1290.92 1918.17,-1289.11 1916.56,-1287.29 1915.16,-1285.46 1913.99,-1283.61 1913.05,-1281.77 1912.36,-1279.93 1911.93,-1278.09 1911.76,-1276.27 1911.86,-1274.46 1912.24,-1272.68 1912.91,-1270.93 1913.87,-1269.2 1915.11,-1267.52 1916.65,-1265.87 1918.49,-1264.27 1920.62,-1262.73 1923.04,-1261.23 1925.74,-1259.8 1928.73,-1258.43 1931.99,-1257.12 1935.51,-1255.89 1939.28,-1254.73 1943.3,-1253.64 1947.54,-1252.64 1952,-1251.71 1956.66,-1250.88 1961.49,-1250.13 1966.49,-1249.47 1971.63,-1248.89 1976.89,-1248.42 1982.25,-1248.03 1987.69,-1247.75 1993.19,-1247.55 1998.72,-1247.46 2004.27,-1247.46 2009.8,-1247.55"/>
<text text-anchor="start" x="1972.33" y="-1292.49" font-family="Times,serif" font-size="14.00">C0870781</text>
<text text-anchor="start" x="1949.99" y="-1278.49" font-family="Times,serif" font-size="14.00">fractal topography</text>
<text text-anchor="start" x="1978.55" y="-1264.49" font-family="Times,serif" font-size="14.00">262:263</text>
</g>
<!-- id_27454401_DOT_12&#45;&#45;id_27454401_DOT_30 -->
<g id="edge4" class="edge">
<title>id_27454401_DOT_12&#45;&#45;id_27454401_DOT_30</title>
<path fill="none" stroke="black" d="M1943.58,-873.78C1955.35,-956.87 1984.74,-1164.37 1996.51,-1247.47"/>
<text text-anchor="middle" x="1943.79" y="-1063.42" font-family="Times,serif" font-size="14.00">0.214144</text>
</g>
<!-- id_27454401_DOT_13 -->
<g id="node13" class="node">
<title>id_27454401_DOT_13</title>
<polygon fill="cornflowerblue" stroke="cornflowerblue" points="4906.69,-151.64 4910.12,-151.83 4913.52,-152.12 4916.86,-152.51 4920.14,-152.98 4923.34,-153.55 4926.46,-154.21 4929.48,-154.96 4932.38,-155.8 4935.16,-156.73 4937.81,-157.73 4940.31,-158.82 4942.66,-159.98 4944.86,-161.21 4946.89,-162.52 4948.75,-163.89 4950.44,-165.32 4951.95,-166.81 4953.28,-168.36 4954.42,-169.96 4955.38,-171.6 4956.16,-173.29 4956.76,-175.01 4957.17,-176.77 4957.41,-178.55 4957.47,-180.36 4957.37,-182.18 4957.1,-184.01 4956.67,-185.86 4956.08,-187.7 4955.35,-189.54 4954.48,-191.38 4953.48,-193.2 4952.35,-195.01 4951.1,-196.79 4949.74,-198.54 4948.27,-200.27 4946.71,-201.95 4945.07,-203.6 4943.34,-205.2 4941.54,-206.74 4939.67,-208.24 4937.74,-209.67 4935.75,-211.04 4933.72,-212.35 4931.65,-213.58 4929.54,-214.74 4927.39,-215.83 4925.22,-216.83 4923.02,-217.75 4920.81,-218.59 4918.57,-219.34 4916.32,-220 4914.06,-220.57 4911.8,-221.05 4909.52,-221.44 4907.24,-221.72 4904.95,-221.92 4902.66,-222.01 4900.37,-222.01 4898.08,-221.92 4895.8,-221.72 4893.51,-221.44 4891.24,-221.05 4888.97,-220.57 4886.71,-220 4884.46,-219.34 4882.23,-218.59 4880.01,-217.75 4877.81,-216.83 4875.64,-215.83 4873.5,-214.74 4871.39,-213.58 4869.31,-212.35 4867.28,-211.04 4865.3,-209.67 4863.37,-208.24 4861.5,-206.74 4859.7,-205.2 4857.97,-203.6 4856.32,-201.95 4854.76,-200.27 4853.3,-198.54 4851.94,-196.79 4850.69,-195.01 4849.56,-193.2 4848.55,-191.38 4847.68,-189.54 4846.95,-187.7 4846.37,-185.86 4845.94,-184.01 4845.67,-182.18 4845.56,-180.36 4845.62,-178.55 4845.86,-176.77 4846.28,-175.01 4846.87,-173.29 4847.65,-171.6 4848.61,-169.96 4849.76,-168.36 4851.08,-166.81 4852.59,-165.32 4854.28,-163.89 4856.14,-162.52 4858.17,-161.21 4860.37,-159.98 4862.72,-158.82 4865.23,-157.73 4867.87,-156.73 4870.65,-155.8 4873.56,-154.96 4876.57,-154.21 4879.69,-153.55 4882.89,-152.98 4886.17,-152.51 4889.52,-152.12 4892.91,-151.83 4896.34,-151.64 4899.79,-151.54 4903.24,-151.54 4906.69,-151.64"/>
<text text-anchor="start" x="4872.35" y="-196.58" font-family="Times,serif" font-size="14.00">C0025663</text>
<text text-anchor="start" x="4880.52" y="-182.58" font-family="Times,serif" font-size="14.00">method</text>
<text text-anchor="start" x="4878.57" y="-168.58" font-family="Times,serif" font-size="14.00">121:121</text>
</g>
<!-- id_27454401_DOT_13&#45;&#45;id_27454401_DOT_16 -->
<g id="edge23" class="edge">
<title>id_27454401_DOT_13&#45;&#45;id_27454401_DOT_16</title>
<path fill="none" stroke="black" stroke-dasharray="1,5" d="M4857.13,-203.07C4792.69,-226.71 4673.49,-270.45 4605.29,-295.47"/>
<text text-anchor="middle" x="4704.96" y="-252.07" font-family="Times,serif" font-size="14.00">0.895398</text>
</g>
<!-- id_27454401_DOT_14&#45;&#45;id_27454401_DOT_27 -->
<g id="edge24" class="edge">
<title>id_27454401_DOT_14&#45;&#45;id_27454401_DOT_27</title>
<path fill="none" stroke="black" stroke-dasharray="1,5" d="M1090.98,-2049.23C1138.22,-2001.45 1228.29,-1910.33 1276.42,-1861.64"/>
<text text-anchor="middle" x="1157.45" y="-1958.24" font-family="Times,serif" font-size="14.00">0.334977</text>
</g>
<!-- id_27454401_DOT_15&#45;&#45;id_27454401_DOT_27 -->
<g id="edge25" class="edge">
<title>id_27454401_DOT_15&#45;&#45;id_27454401_DOT_27</title>
<path fill="none" stroke="black" stroke-dasharray="1,5" d="M1584.63,-1540.67C1526.01,-1601.92 1400.64,-1732.91 1341.19,-1795.03"/>
<text text-anchor="middle" x="1436.66" y="-1670.65" font-family="Times,serif" font-size="14.00">0.255508</text>
</g>
<!-- id_27454401_DOT_15&#45;&#45;id_27454401_DOT_30 -->
<g id="edge5" class="edge">
<title>id_27454401_DOT_15&#45;&#45;id_27454401_DOT_30</title>
<path fill="none" stroke="black" d="M1670.08,-1476.26C1745.9,-1431.97 1882.68,-1352.09 1954.51,-1310.13"/>
<text text-anchor="middle" x="1786.3" y="-1395.99" font-family="Times,serif" font-size="14.00">0.118845</text>
</g>
<!-- id_27454401_DOT_17 -->
<g id="node17" class="node">
<title>id_27454401_DOT_17</title>
<polygon fill="darkgoldenrod" stroke="darkgoldenrod" points="3254.07,-1106.45 3259.01,-1106.64 3263.91,-1106.93 3268.73,-1107.31 3273.46,-1107.79 3278.08,-1108.36 3282.58,-1109.02 3286.93,-1109.77 3291.12,-1110.61 3295.13,-1111.53 3298.94,-1112.54 3302.56,-1113.62 3305.95,-1114.78 3309.12,-1116.02 3312.05,-1117.32 3314.74,-1118.7 3317.17,-1120.13 3319.34,-1121.62 3321.26,-1123.17 3322.91,-1124.77 3324.3,-1126.41 3325.42,-1128.1 3326.28,-1129.82 3326.88,-1131.58 3327.22,-1133.36 3327.31,-1135.16 3327.16,-1136.99 3326.77,-1138.82 3326.15,-1140.66 3325.31,-1142.51 3324.25,-1144.35 3323,-1146.19 3321.55,-1148.01 3319.92,-1149.82 3318.11,-1151.6 3316.15,-1153.35 3314.04,-1155.08 3311.79,-1156.76 3309.42,-1158.41 3306.92,-1160 3304.32,-1161.55 3301.63,-1163.04 3298.85,-1164.48 3295.98,-1165.85 3293.05,-1167.15 3290.06,-1168.39 3287.02,-1169.55 3283.92,-1170.64 3280.79,-1171.64 3277.62,-1172.56 3274.43,-1173.4 3271.2,-1174.15 3267.96,-1174.81 3264.7,-1175.38 3261.43,-1175.86 3258.14,-1176.24 3254.85,-1176.53 3251.55,-1176.73 3248.25,-1176.82 3244.95,-1176.82 3241.65,-1176.73 3238.35,-1176.53 3235.06,-1176.24 3231.77,-1175.86 3228.5,-1175.38 3225.24,-1174.81 3222,-1174.15 3218.77,-1173.4 3215.58,-1172.56 3212.41,-1171.64 3209.28,-1170.64 3206.18,-1169.55 3203.14,-1168.39 3200.15,-1167.15 3197.22,-1165.85 3194.35,-1164.48 3191.57,-1163.04 3188.87,-1161.55 3186.28,-1160 3183.78,-1158.41 3181.41,-1156.76 3179.16,-1155.08 3177.05,-1153.35 3175.08,-1151.6 3173.28,-1149.82 3171.65,-1148.01 3170.2,-1146.19 3168.95,-1144.35 3167.89,-1142.51 3167.05,-1140.66 3166.43,-1138.82 3166.04,-1136.99 3165.89,-1135.16 3165.98,-1133.36 3166.32,-1131.58 3166.92,-1129.82 3167.78,-1128.1 3168.9,-1126.41 3170.29,-1124.77 3171.94,-1123.17 3173.85,-1121.62 3176.03,-1120.13 3178.46,-1118.7 3181.15,-1117.32 3184.08,-1116.02 3187.25,-1114.78 3190.64,-1113.62 3194.25,-1112.54 3198.07,-1111.53 3202.08,-1110.61 3206.27,-1109.77 3210.62,-1109.02 3215.11,-1108.36 3219.74,-1107.79 3224.47,-1107.31 3229.29,-1106.93 3234.19,-1106.64 3239.13,-1106.45 3244.11,-1106.35 3249.09,-1106.35 3254.07,-1106.45"/>
<text text-anchor="start" x="3217.43" y="-1151.39" font-family="Times,serif" font-size="14.00">C0457457</text>
<text text-anchor="start" x="3200.91" y="-1137.39" font-family="Times,serif" font-size="14.00">biological tissue</text>
<text text-anchor="start" x="3223.65" y="-1123.39" font-family="Times,serif" font-size="14.00">137:138</text>
</g>
<!-- id_27454401_DOT_17&#45;&#45;id_27454401_DOT_19 -->
<g id="edge6" class="edge">
<title>id_27454401_DOT_17&#45;&#45;id_27454401_DOT_19</title>
<path fill="none" stroke="black" d="M3284.21,-1109.1C3346.59,-1055.22 3470.59,-948.11 3531.22,-895.73"/>
<text text-anchor="middle" x="3381.46" y="-1005.22" font-family="Times,serif" font-size="14.00">0.002798</text>
</g>
<!-- id_27454401_DOT_25 -->
<g id="node25" class="node">
<title>id_27454401_DOT_25</title>
<polygon fill="darkkhaki" stroke="darkkhaki" points="2887.17,-1357.49 2894.32,-1357.68 2901.39,-1357.97 2908.36,-1358.35 2915.2,-1358.83 2921.89,-1359.4 2928.39,-1360.06 2934.67,-1360.81 2940.73,-1361.65 2946.52,-1362.57 2952.04,-1363.58 2957.27,-1364.66 2962.18,-1365.82 2966.76,-1367.06 2970.99,-1368.36 2974.87,-1369.73 2978.39,-1371.17 2981.54,-1372.66 2984.3,-1374.21 2986.69,-1375.81 2988.7,-1377.45 2990.32,-1379.14 2991.56,-1380.86 2992.43,-1382.61 2992.92,-1384.4 2993.06,-1386.2 2992.84,-1388.02 2992.27,-1389.86 2991.37,-1391.7 2990.16,-1393.55 2988.63,-1395.39 2986.82,-1397.23 2984.72,-1399.05 2982.36,-1400.85 2979.76,-1402.64 2976.92,-1404.39 2973.87,-1406.11 2970.62,-1407.8 2967.18,-1409.44 2963.58,-1411.04 2959.82,-1412.59 2955.92,-1414.08 2951.9,-1415.52 2947.76,-1416.89 2943.53,-1418.19 2939.2,-1419.43 2934.8,-1420.59 2930.33,-1421.67 2925.8,-1422.68 2921.22,-1423.6 2916.6,-1424.44 2911.94,-1425.19 2907.25,-1425.85 2902.54,-1426.42 2897.8,-1426.9 2893.06,-1427.28 2888.3,-1427.57 2883.53,-1427.76 2878.76,-1427.86 2873.98,-1427.86 2869.21,-1427.76 2864.44,-1427.57 2859.68,-1427.28 2854.93,-1426.9 2850.2,-1426.42 2845.49,-1425.85 2840.8,-1425.19 2836.14,-1424.44 2831.52,-1423.6 2826.94,-1422.68 2822.41,-1421.67 2817.94,-1420.59 2813.54,-1419.43 2809.21,-1418.19 2804.97,-1416.89 2800.84,-1415.52 2796.81,-1414.08 2792.92,-1412.59 2789.16,-1411.04 2785.55,-1409.44 2782.12,-1407.8 2778.87,-1406.11 2775.82,-1404.39 2772.98,-1402.64 2770.37,-1400.85 2768.02,-1399.05 2765.92,-1397.23 2764.1,-1395.39 2762.58,-1393.55 2761.36,-1391.7 2760.47,-1389.86 2759.9,-1388.02 2759.68,-1386.2 2759.81,-1384.4 2760.31,-1382.61 2761.18,-1380.86 2762.42,-1379.14 2764.04,-1377.45 2766.05,-1375.81 2768.43,-1374.21 2771.2,-1372.66 2774.35,-1371.17 2777.86,-1369.73 2781.75,-1368.36 2785.98,-1367.06 2790.56,-1365.82 2795.47,-1364.66 2800.69,-1363.58 2806.21,-1362.57 2812.01,-1361.65 2818.06,-1360.81 2824.35,-1360.06 2830.85,-1359.4 2837.53,-1358.83 2844.37,-1358.35 2851.35,-1357.97 2858.42,-1357.68 2865.57,-1357.49 2872.76,-1357.39 2879.97,-1357.39 2887.17,-1357.49"/>
<text text-anchor="start" x="2847.2" y="-1402.42" font-family="Times,serif" font-size="14.00">C0242849</text>
<text text-anchor="start" x="2806.79" y="-1388.42" font-family="Times,serif" font-size="14.00">atomic force microscopy</text>
<text text-anchor="start" x="2853.42" y="-1374.42" font-family="Times,serif" font-size="14.00">218:220</text>
</g>
<!-- id_27454401_DOT_17&#45;&#45;id_27454401_DOT_25 -->
<g id="edge26" class="edge">
<title>id_27454401_DOT_17&#45;&#45;id_27454401_DOT_25</title>
<path fill="none" stroke="black" stroke-dasharray="1,5" d="M3205.56,-1169.41C3136.85,-1216.01 2998.8,-1309.61 2925.2,-1359.51"/>
<text text-anchor="middle" x="3039.13" y="-1267.26" font-family="Times,serif" font-size="14.00">0.770221</text>
</g>
<!-- id_27454401_DOT_19&#45;&#45;id_27454401_DOT_23 -->
<g id="edge27" class="edge">
<title>id_27454401_DOT_19&#45;&#45;id_27454401_DOT_23</title>
<path fill="none" stroke="black" stroke-dasharray="1,5" d="M3646.69,-863.23C3712.99,-861.37 3807.57,-858.72 3880.04,-856.69"/>
<text text-anchor="middle" x="3737.12" y="-862.76" font-family="Times,serif" font-size="14.00">0.835631</text>
</g>
<!-- id_27454401_DOT_31 -->
<g id="node31" class="node">
<title>id_27454401_DOT_31</title>
<polygon fill="bisque" stroke="bisque" points="1206.72,-3414.08 1212.31,-3414.27 1217.85,-3414.56 1223.3,-3414.95 1228.65,-3415.42 1233.88,-3415.99 1238.96,-3416.66 1243.87,-3417.41 1248.61,-3418.24 1253.14,-3419.17 1257.46,-3420.17 1261.54,-3421.26 1265.38,-3422.42 1268.97,-3423.65 1272.28,-3424.96 1275.31,-3426.33 1278.06,-3427.76 1280.52,-3429.26 1282.69,-3430.8 1284.56,-3432.4 1286.12,-3434.05 1287.39,-3435.73 1288.36,-3437.45 1289.04,-3439.21 1289.43,-3440.99 1289.53,-3442.8 1289.36,-3444.62 1288.92,-3446.45 1288.22,-3448.3 1287.27,-3450.14 1286.07,-3451.98 1284.65,-3453.82 1283.02,-3455.64 1281.17,-3457.45 1279.13,-3459.23 1276.92,-3460.99 1274.53,-3462.71 1271.99,-3464.39 1269.3,-3466.04 1266.48,-3467.64 1263.54,-3469.18 1260.49,-3470.68 1257.35,-3472.11 1254.11,-3473.48 1250.8,-3474.79 1247.42,-3476.02 1243.97,-3477.18 1240.48,-3478.27 1236.93,-3479.27 1233.35,-3480.2 1229.74,-3481.03 1226.09,-3481.78 1222.43,-3482.45 1218.74,-3483.02 1215.04,-3483.49 1211.33,-3483.88 1207.6,-3484.17 1203.88,-3484.36 1200.14,-3484.45 1196.41,-3484.45 1192.68,-3484.36 1188.95,-3484.17 1185.23,-3483.88 1181.51,-3483.49 1177.81,-3483.02 1174.13,-3482.45 1170.46,-3481.78 1166.82,-3481.03 1163.2,-3480.2 1159.62,-3479.27 1156.08,-3478.27 1152.58,-3477.18 1149.14,-3476.02 1145.75,-3474.79 1142.44,-3473.48 1139.21,-3472.11 1136.06,-3470.68 1133.01,-3469.18 1130.07,-3467.64 1127.25,-3466.04 1124.57,-3464.39 1122.02,-3462.71 1119.64,-3460.99 1117.42,-3459.23 1115.38,-3457.45 1113.54,-3455.64 1111.9,-3453.82 1110.48,-3451.98 1109.29,-3450.14 1108.34,-3448.3 1107.63,-3446.45 1107.19,-3444.62 1107.02,-3442.8 1107.12,-3440.99 1107.51,-3439.21 1108.19,-3437.45 1109.16,-3435.73 1110.43,-3434.05 1112,-3432.4 1113.87,-3430.8 1116.03,-3429.26 1118.49,-3427.76 1121.24,-3426.33 1124.28,-3424.96 1127.59,-3423.65 1131.17,-3422.42 1135.01,-3421.26 1139.09,-3420.17 1143.41,-3419.17 1147.95,-3418.24 1152.68,-3417.41 1157.6,-3416.66 1162.68,-3415.99 1167.91,-3415.42 1173.26,-3414.95 1178.71,-3414.56 1184.24,-3414.27 1189.83,-3414.08 1195.46,-3413.98 1201.1,-3413.98 1206.72,-3414.08"/>
<text text-anchor="start" x="1169.11" y="-3459.02" font-family="Times,serif" font-size="14.00">C0205148</text>
<text text-anchor="start" x="1145.6" y="-3445.02" font-family="Times,serif" font-size="14.00">biological surfaces</text>
<text text-anchor="start" x="1175.33" y="-3431.02" font-family="Times,serif" font-size="14.00">265:266</text>
</g>
<!-- id_27454401_DOT_20&#45;&#45;id_27454401_DOT_31 -->
<g id="edge7" class="edge">
<title>id_27454401_DOT_20&#45;&#45;id_27454401_DOT_31</title>
<path fill="none" stroke="black" d="M1294.87,-3115.06C1274.65,-3185.01 1228.88,-3343.36 1208.45,-3414.03"/>
<text text-anchor="middle" x="1225.41" y="-3267.34" font-family="Times,serif" font-size="14.00">0.097808</text>
</g>
<!-- id_27454401_DOT_21 -->
<g id="node21" class="node">
<title>id_27454401_DOT_21</title>
<polygon fill="darkkhaki" stroke="darkkhaki" points="2855.66,-1015.91 2862.81,-1016.1 2869.88,-1016.39 2876.85,-1016.78 2883.7,-1017.25 2890.38,-1017.82 2896.88,-1018.48 2903.16,-1019.24 2909.22,-1020.07 2915.01,-1021 2920.53,-1022 2925.76,-1023.09 2930.67,-1024.25 2935.25,-1025.48 2939.48,-1026.79 2943.36,-1028.16 2946.88,-1029.59 2950.03,-1031.08 2952.8,-1032.63 2955.18,-1034.23 2957.19,-1035.87 2958.81,-1037.56 2960.05,-1039.28 2960.92,-1041.04 2961.41,-1042.82 2961.55,-1044.63 2961.33,-1046.45 2960.76,-1048.28 2959.87,-1050.13 2958.65,-1051.97 2957.12,-1053.81 2955.31,-1055.65 2953.21,-1057.47 2950.85,-1059.28 2948.25,-1061.06 2945.41,-1062.81 2942.36,-1064.54 2939.11,-1066.22 2935.67,-1067.87 2932.07,-1069.47 2928.31,-1071.01 2924.41,-1072.51 2920.39,-1073.94 2916.26,-1075.31 2912.02,-1076.62 2907.69,-1077.85 2903.29,-1079.01 2898.82,-1080.1 2894.29,-1081.1 2889.71,-1082.03 2885.09,-1082.86 2880.43,-1083.61 2875.74,-1084.27 2871.03,-1084.85 2866.29,-1085.32 2861.55,-1085.71 2856.79,-1086 2852.02,-1086.19 2847.25,-1086.28 2842.47,-1086.28 2837.7,-1086.19 2832.93,-1086 2828.17,-1085.71 2823.43,-1085.32 2818.69,-1084.85 2813.98,-1084.27 2809.29,-1083.61 2804.63,-1082.86 2800.01,-1082.03 2795.43,-1081.1 2790.9,-1080.1 2786.43,-1079.01 2782.03,-1077.85 2777.7,-1076.62 2773.46,-1075.31 2769.33,-1073.94 2765.31,-1072.51 2761.41,-1071.01 2757.65,-1069.47 2754.05,-1067.87 2750.61,-1066.22 2747.36,-1064.54 2744.31,-1062.81 2741.47,-1061.06 2738.87,-1059.28 2736.51,-1057.47 2734.41,-1055.65 2732.6,-1053.81 2731.07,-1051.97 2729.85,-1050.13 2728.96,-1048.28 2728.39,-1046.45 2728.17,-1044.63 2728.31,-1042.82 2728.8,-1041.04 2729.67,-1039.28 2730.91,-1037.56 2732.53,-1035.87 2734.54,-1034.23 2736.92,-1032.63 2739.69,-1031.08 2742.84,-1029.59 2746.36,-1028.16 2750.24,-1026.79 2754.47,-1025.48 2759.05,-1024.25 2763.96,-1023.09 2769.19,-1022 2774.7,-1021 2780.5,-1020.07 2786.56,-1019.24 2792.84,-1018.48 2799.34,-1017.82 2806.02,-1017.25 2812.87,-1016.78 2819.84,-1016.39 2826.91,-1016.1 2834.06,-1015.91 2841.26,-1015.81 2848.46,-1015.81 2855.66,-1015.91"/>
<text text-anchor="start" x="2815.69" y="-1060.85" font-family="Times,serif" font-size="14.00">C0242849</text>
<text text-anchor="start" x="2775.28" y="-1046.85" font-family="Times,serif" font-size="14.00">atomic force microscopy</text>
<text text-anchor="start" x="2821.92" y="-1032.85" font-family="Times,serif" font-size="14.00">156:158</text>
</g>
<!-- id_27454401_DOT_21&#45;&#45;id_27454401_DOT_25 -->
<g id="edge8" class="edge">
<title>id_27454401_DOT_21&#45;&#45;id_27454401_DOT_25</title>
<path fill="none" stroke="black" d="M2848.11,-1086.32C2854.16,-1151.86 2867.06,-1291.71 2873.11,-1357.29"/>
<text text-anchor="middle" x="2834.36" y="-1224.61" font-family="Times,serif" font-size="14.00">0.023291</text>
</g>
<!-- id_27454401_DOT_22 -->
<g id="node22" class="node">
<title>id_27454401_DOT_22</title>
<polygon fill="coral" stroke="coral" points="2436.82,-1335.77 2442.32,-1335.96 2447.76,-1336.25 2453.12,-1336.63 2458.38,-1337.11 2463.52,-1337.68 2468.52,-1338.34 2473.36,-1339.09 2478.01,-1339.93 2482.47,-1340.85 2486.71,-1341.86 2490.73,-1342.94 2494.51,-1344.11 2498.03,-1345.34 2501.29,-1346.65 2504.27,-1348.02 2506.98,-1349.45 2509.4,-1350.94 2511.52,-1352.49 2513.36,-1354.09 2514.9,-1355.73 2516.15,-1357.42 2517.1,-1359.14 2517.77,-1360.9 2518.15,-1362.68 2518.25,-1364.48 2518.09,-1366.31 2517.65,-1368.14 2516.96,-1369.99 2516.02,-1371.83 2514.85,-1373.67 2513.46,-1375.51 2511.84,-1377.33 2510.03,-1379.14 2508.03,-1380.92 2505.85,-1382.67 2503.5,-1384.4 2501,-1386.08 2498.36,-1387.73 2495.59,-1389.33 2492.7,-1390.87 2489.7,-1392.37 2486.6,-1393.8 2483.42,-1395.17 2480.17,-1396.48 2476.84,-1397.71 2473.45,-1398.87 2470.02,-1399.96 2466.53,-1400.96 2463.01,-1401.88 2459.45,-1402.72 2455.87,-1403.47 2452.27,-1404.13 2448.64,-1404.7 2445,-1405.18 2441.35,-1405.57 2437.69,-1405.85 2434.02,-1406.05 2430.35,-1406.14 2426.68,-1406.14 2423.01,-1406.05 2419.35,-1405.85 2415.69,-1405.57 2412.03,-1405.18 2408.39,-1404.7 2404.77,-1404.13 2401.16,-1403.47 2397.58,-1402.72 2394.03,-1401.88 2390.51,-1400.96 2387.02,-1399.96 2383.58,-1398.87 2380.2,-1397.71 2376.87,-1396.48 2373.61,-1395.17 2370.43,-1393.8 2367.34,-1392.37 2364.34,-1390.87 2361.45,-1389.33 2358.68,-1387.73 2356.04,-1386.08 2353.54,-1384.4 2351.19,-1382.67 2349.01,-1380.92 2347.01,-1379.14 2345.19,-1377.33 2343.58,-1375.51 2342.18,-1373.67 2341.01,-1371.83 2340.08,-1369.99 2339.39,-1368.14 2338.95,-1366.31 2338.78,-1364.48 2338.89,-1362.68 2339.27,-1360.9 2339.93,-1359.14 2340.89,-1357.42 2342.14,-1355.73 2343.68,-1354.09 2345.51,-1352.49 2347.64,-1350.94 2350.06,-1349.45 2352.77,-1348.02 2355.75,-1346.65 2359.01,-1345.34 2362.53,-1344.11 2366.31,-1342.94 2370.32,-1341.86 2374.57,-1340.85 2379.03,-1339.93 2383.68,-1339.09 2388.52,-1338.34 2393.51,-1337.68 2398.65,-1337.11 2403.91,-1336.63 2409.28,-1336.25 2414.72,-1335.96 2420.21,-1335.77 2425.75,-1335.67 2431.29,-1335.67 2436.82,-1335.77"/>
<text text-anchor="start" x="2399.35" y="-1380.71" font-family="Times,serif" font-size="14.00">C0870781</text>
<text text-anchor="start" x="2377.01" y="-1366.71" font-family="Times,serif" font-size="14.00">fractal topography</text>
<text text-anchor="start" x="2405.57" y="-1352.71" font-family="Times,serif" font-size="14.00">207:208</text>
</g>
<!-- id_27454401_DOT_22&#45;&#45;id_27454401_DOT_25 -->
<g id="edge28" class="edge">
<title>id_27454401_DOT_22&#45;&#45;id_27454401_DOT_25</title>
<path fill="none" stroke="black" stroke-dasharray="1,5" d="M2513.81,-1375.04C2583.47,-1378.42 2682.65,-1383.23 2759.68,-1386.97"/>
<text text-anchor="middle" x="2610.49" y="-1383.81" font-family="Times,serif" font-size="14.00">0.688566</text>
</g>
<!-- id_27454401_DOT_22&#45;&#45;id_27454401_DOT_30 -->
<g id="edge9" class="edge">
<title>id_27454401_DOT_22&#45;&#45;id_27454401_DOT_30</title>
<path fill="none" stroke="black" d="M2344.15,-1353.48C2265.4,-1337.21 2149.1,-1313.18 2074.31,-1297.73"/>
<text text-anchor="middle" x="2182.98" y="-1328.41" font-family="Times,serif" font-size="14.00">0.046279</text>
</g>
<!-- id_27454401_DOT_28 -->
<g id="node28" class="node">
<title>id_27454401_DOT_28</title>
<polygon fill="darkmagenta" stroke="darkmagenta" points="4293.74,-1099.96 4300.49,-1100.15 4307.18,-1100.44 4313.77,-1100.82 4320.24,-1101.3 4326.55,-1101.87 4332.7,-1102.53 4338.64,-1103.28 4344.36,-1104.12 4349.84,-1105.04 4355.06,-1106.05 4359.99,-1107.13 4364.63,-1108.3 4368.96,-1109.53 4372.96,-1110.83 4376.63,-1112.21 4379.96,-1113.64 4382.93,-1115.13 4385.55,-1116.68 4387.8,-1118.28 4389.7,-1119.92 4391.23,-1121.61 4392.4,-1123.33 4393.22,-1125.09 4393.69,-1126.87 4393.82,-1128.67 4393.61,-1130.5 4393.08,-1132.33 4392.23,-1134.18 4391.08,-1136.02 4389.64,-1137.86 4387.92,-1139.7 4385.94,-1141.52 4383.71,-1143.33 4381.25,-1145.11 4378.57,-1146.86 4375.69,-1148.59 4372.61,-1150.27 4369.37,-1151.92 4365.96,-1153.51 4362.41,-1155.06 4358.72,-1156.56 4354.92,-1157.99 4351.01,-1159.36 4347.01,-1160.67 4342.92,-1161.9 4338.76,-1163.06 4334.53,-1164.15 4330.25,-1165.15 4325.92,-1166.07 4321.55,-1166.91 4317.15,-1167.66 4312.72,-1168.32 4308.26,-1168.89 4303.79,-1169.37 4299.3,-1169.76 4294.8,-1170.04 4290.3,-1170.24 4285.79,-1170.33 4281.28,-1170.33 4276.77,-1170.24 4272.26,-1170.04 4267.76,-1169.76 4263.27,-1169.37 4258.8,-1168.89 4254.34,-1168.32 4249.91,-1167.66 4245.51,-1166.91 4241.14,-1166.07 4236.81,-1165.15 4232.53,-1164.15 4228.31,-1163.06 4224.14,-1161.9 4220.06,-1160.67 4216.05,-1159.36 4212.14,-1157.99 4208.34,-1156.56 4204.66,-1155.06 4201.1,-1153.51 4197.7,-1151.92 4194.45,-1150.27 4191.38,-1148.59 4188.49,-1146.86 4185.81,-1145.11 4183.35,-1143.33 4181.12,-1141.52 4179.14,-1139.7 4177.42,-1137.86 4175.98,-1136.02 4174.83,-1134.18 4173.99,-1132.33 4173.45,-1130.5 4173.24,-1128.67 4173.37,-1126.87 4173.84,-1125.09 4174.66,-1123.33 4175.83,-1121.61 4177.37,-1119.92 4179.26,-1118.28 4181.52,-1116.68 4184.13,-1115.13 4187.11,-1113.64 4190.43,-1112.21 4194.1,-1110.83 4198.1,-1109.53 4202.43,-1108.3 4207.07,-1107.13 4212.01,-1106.05 4217.22,-1105.04 4222.7,-1104.12 4228.43,-1103.28 4234.37,-1102.53 4240.51,-1101.87 4246.83,-1101.3 4253.29,-1100.82 4259.88,-1100.44 4266.57,-1100.15 4273.33,-1099.96 4280.13,-1099.86 4286.94,-1099.86 4293.74,-1099.96"/>
<text text-anchor="start" x="4254.36" y="-1144.9" font-family="Times,serif" font-size="14.00">C3494272</text>
<text text-anchor="start" x="4218.23" y="-1130.9" font-family="Times,serif" font-size="14.00">acellular dermal matrix</text>
<text text-anchor="start" x="4260.59" y="-1116.9" font-family="Times,serif" font-size="14.00">245:247</text>
</g>
<!-- id_27454401_DOT_23&#45;&#45;id_27454401_DOT_28 -->
<g id="edge10" class="edge">
<title>id_27454401_DOT_23&#45;&#45;id_27454401_DOT_28</title>
<path fill="none" stroke="black" d="M4020.45,-886.28C4077.2,-939.95 4189.84,-1046.48 4247.58,-1101.09"/>
<text text-anchor="middle" x="4107.76" y="-996.48" font-family="Times,serif" font-size="14.00">0.009099</text>
</g>
<!-- id_27454401_DOT_24 -->
<g id="node24" class="node">
<title>id_27454401_DOT_24</title>
<polygon fill="darkorange" stroke="darkorange" points="3512.38,-2399.75 3518.7,-2399.94 3524.97,-2400.23 3531.14,-2400.62 3537.2,-2401.09 3543.11,-2401.66 3548.87,-2402.33 3554.43,-2403.08 3559.79,-2403.91 3564.93,-2404.84 3569.81,-2405.84 3574.44,-2406.93 3578.78,-2408.09 3582.84,-2409.32 3586.59,-2410.63 3590.02,-2412 3593.14,-2413.43 3595.92,-2414.93 3598.37,-2416.47 3600.49,-2418.07 3602.26,-2419.72 3603.7,-2421.4 3604.8,-2423.12 3605.56,-2424.88 3606,-2426.66 3606.12,-2428.47 3605.93,-2430.29 3605.43,-2432.12 3604.63,-2433.97 3603.56,-2435.81 3602.21,-2437.66 3600.6,-2439.49 3598.74,-2441.31 3596.66,-2443.12 3594.35,-2444.9 3591.84,-2446.66 3589.14,-2448.38 3586.26,-2450.06 3583.22,-2451.71 3580.03,-2453.31 3576.7,-2454.85 3573.25,-2456.35 3569.69,-2457.78 3566.02,-2459.15 3562.27,-2460.46 3558.44,-2461.69 3554.55,-2462.85 3550.59,-2463.94 3546.58,-2464.94 3542.52,-2465.87 3538.43,-2466.7 3534.31,-2467.45 3530.16,-2468.12 3525.98,-2468.69 3521.79,-2469.16 3517.59,-2469.55 3513.37,-2469.84 3509.15,-2470.03 3504.93,-2470.13 3500.7,-2470.13 3496.48,-2470.03 3492.26,-2469.84 3488.04,-2469.55 3483.84,-2469.16 3479.65,-2468.69 3475.48,-2468.12 3471.33,-2467.45 3467.2,-2466.7 3463.11,-2465.87 3459.05,-2464.94 3455.04,-2463.94 3451.09,-2462.85 3447.19,-2461.69 3443.36,-2460.46 3439.61,-2459.15 3435.95,-2457.78 3432.38,-2456.35 3428.93,-2454.85 3425.61,-2453.31 3422.41,-2451.71 3419.37,-2450.06 3416.49,-2448.38 3413.79,-2446.66 3411.28,-2444.9 3408.98,-2443.12 3406.89,-2441.31 3405.03,-2439.49 3403.43,-2437.66 3402.08,-2435.81 3401,-2433.97 3400.2,-2432.12 3399.7,-2430.29 3399.51,-2428.47 3399.63,-2426.66 3400.07,-2424.88 3400.83,-2423.12 3401.93,-2421.4 3403.37,-2419.72 3405.14,-2418.07 3407.26,-2416.47 3409.71,-2414.93 3412.49,-2413.43 3415.61,-2412 3419.04,-2410.63 3422.79,-2409.32 3426.85,-2408.09 3431.19,-2406.93 3435.82,-2405.84 3440.71,-2404.84 3445.84,-2403.91 3451.2,-2403.08 3456.76,-2402.33 3462.52,-2401.66 3468.43,-2401.09 3474.49,-2400.62 3480.66,-2400.23 3486.93,-2399.94 3493.26,-2399.75 3499.62,-2399.65 3506.01,-2399.65 3512.38,-2399.75"/>
<text text-anchor="start" x="3473.65" y="-2444.69" font-family="Times,serif" font-size="14.00">C0137758</text>
<text text-anchor="start" x="3442.16" y="-2430.69" font-family="Times,serif" font-size="14.00">polydimethylsiloxane</text>
<text text-anchor="start" x="3479.87" y="-2416.69" font-family="Times,serif" font-size="14.00">214:214</text>
</g>
<!-- id_27454401_DOT_29 -->
<g id="node29" class="node">
<title>id_27454401_DOT_29</title>
<polygon fill="darkorange" stroke="darkorange" points="3284.84,-2080.31 3291.17,-2080.51 3297.43,-2080.8 3303.6,-2081.18 3309.66,-2081.66 3315.58,-2082.23 3321.33,-2082.89 3326.9,-2083.64 3332.25,-2084.48 3337.39,-2085.4 3342.27,-2086.4 3346.9,-2087.49 3351.24,-2088.65 3355.3,-2089.89 3359.05,-2091.19 3362.49,-2092.56 3365.6,-2094 3368.38,-2095.49 3370.83,-2097.04 3372.95,-2098.63 3374.72,-2100.28 3376.16,-2101.96 3377.26,-2103.69 3378.03,-2105.44 3378.47,-2107.22 3378.58,-2109.03 3378.39,-2110.85 3377.89,-2112.69 3377.09,-2114.53 3376.02,-2116.38 3374.67,-2118.22 3373.06,-2120.05 3371.2,-2121.88 3369.12,-2123.68 3366.81,-2125.46 3364.3,-2127.22 3361.6,-2128.94 3358.72,-2130.63 3355.68,-2132.27 3352.49,-2133.87 3349.16,-2135.42 3345.71,-2136.91 3342.15,-2138.34 3338.48,-2139.72 3334.73,-2141.02 3330.91,-2142.26 3327.01,-2143.42 3323.05,-2144.5 3319.04,-2145.51 3314.98,-2146.43 3310.89,-2147.27 3306.77,-2148.02 3302.62,-2148.68 3298.44,-2149.25 3294.25,-2149.73 3290.05,-2150.11 3285.84,-2150.4 3281.62,-2150.59 3277.39,-2150.69 3273.16,-2150.69 3268.94,-2150.59 3264.72,-2150.4 3260.5,-2150.11 3256.3,-2149.73 3252.11,-2149.25 3247.94,-2148.68 3243.79,-2148.02 3239.66,-2147.27 3235.57,-2146.43 3231.51,-2145.51 3227.5,-2144.5 3223.55,-2143.42 3219.65,-2142.26 3215.82,-2141.02 3212.07,-2139.72 3208.41,-2138.34 3204.84,-2136.91 3201.39,-2135.42 3198.07,-2133.87 3194.88,-2132.27 3191.83,-2130.63 3188.96,-2128.94 3186.25,-2127.22 3183.74,-2125.46 3181.44,-2123.68 3179.35,-2121.88 3177.5,-2120.05 3175.89,-2118.22 3174.54,-2116.38 3173.46,-2114.53 3172.67,-2112.69 3172.17,-2110.85 3171.97,-2109.03 3172.09,-2107.22 3172.53,-2105.44 3173.3,-2103.69 3174.39,-2101.96 3175.83,-2100.28 3177.61,-2098.63 3179.72,-2097.04 3182.17,-2095.49 3184.95,-2094 3188.07,-2092.56 3191.5,-2091.19 3195.26,-2089.89 3199.31,-2088.65 3203.66,-2087.49 3208.28,-2086.4 3213.17,-2085.4 3218.3,-2084.48 3223.66,-2083.64 3229.23,-2082.89 3234.98,-2082.23 3240.89,-2081.66 3246.95,-2081.18 3253.12,-2080.8 3259.39,-2080.51 3265.72,-2080.31 3272.09,-2080.22 3278.47,-2080.22 3284.84,-2080.31"/>
<text text-anchor="start" x="3246.11" y="-2125.25" font-family="Times,serif" font-size="14.00">C0137758</text>
<text text-anchor="start" x="3214.62" y="-2111.25" font-family="Times,serif" font-size="14.00">polydimethylsiloxane</text>
<text text-anchor="start" x="3252.33" y="-2097.25" font-family="Times,serif" font-size="14.00">251:251</text>
</g>
<!-- id_27454401_DOT_24&#45;&#45;id_27454401_DOT_29 -->
<g id="edge11" class="edge">
<title>id_27454401_DOT_24&#45;&#45;id_27454401_DOT_29</title>
<path fill="none" stroke="black" d="M3478.03,-2400.1C3434.03,-2338.33 3342.82,-2210.28 3299.34,-2149.24"/>
<text text-anchor="middle" x="3362.44" y="-2277.47" font-family="Times,serif" font-size="14.00">0.012414</text>
</g>
<!-- id_27454401_DOT_32 -->
<g id="node32" class="node">
<title>id_27454401_DOT_32</title>
<polygon fill="darkred" stroke="darkred" points="3064.72,-1736.64 3069.36,-1736.83 3073.94,-1737.12 3078.46,-1737.5 3082.89,-1737.98 3087.23,-1738.55 3091.44,-1739.21 3095.51,-1739.96 3099.43,-1740.8 3103.19,-1741.72 3106.77,-1742.73 3110.15,-1743.81 3113.33,-1744.97 3116.3,-1746.21 3119.05,-1747.51 3121.56,-1748.89 3123.84,-1750.32 3125.88,-1751.81 3127.67,-1753.36 3129.22,-1754.96 3130.52,-1756.6 3131.57,-1758.29 3132.38,-1760.01 3132.94,-1761.77 3133.26,-1763.55 3133.35,-1765.35 3133.2,-1767.18 3132.84,-1769.01 3132.26,-1770.85 3131.47,-1772.7 3130.48,-1774.54 3129.3,-1776.38 3127.94,-1778.2 3126.42,-1780 3124.73,-1781.79 3122.89,-1783.54 3120.91,-1785.27 3118.81,-1786.95 3116.58,-1788.6 3114.24,-1790.19 3111.81,-1791.74 3109.28,-1793.23 3106.68,-1794.67 3103.99,-1796.04 3101.25,-1797.34 3098.45,-1798.58 3095.59,-1799.74 3092.7,-1800.83 3089.76,-1801.83 3086.79,-1802.75 3083.8,-1803.59 3080.78,-1804.34 3077.74,-1805 3074.68,-1805.57 3071.62,-1806.05 3068.54,-1806.43 3065.46,-1806.72 3062.37,-1806.92 3059.27,-1807.01 3056.18,-1807.01 3053.09,-1806.92 3050,-1806.72 3046.91,-1806.43 3043.84,-1806.05 3040.77,-1805.57 3037.71,-1805 3034.68,-1804.34 3031.66,-1803.59 3028.66,-1802.75 3025.69,-1801.83 3022.76,-1800.83 3019.86,-1799.74 3017.01,-1798.58 3014.2,-1797.34 3011.46,-1796.04 3008.78,-1794.67 3006.17,-1793.23 3003.65,-1791.74 3001.21,-1790.19 2998.87,-1788.6 2996.65,-1786.95 2994.54,-1785.27 2992.56,-1783.54 2990.73,-1781.79 2989.04,-1780 2987.51,-1778.2 2986.15,-1776.38 2984.97,-1774.54 2983.99,-1772.7 2983.2,-1770.85 2982.62,-1769.01 2982.25,-1767.18 2982.11,-1765.35 2982.19,-1763.55 2982.52,-1761.77 2983.08,-1760.01 2983.88,-1758.29 2984.93,-1756.6 2986.23,-1754.96 2987.78,-1753.36 2989.57,-1751.81 2991.61,-1750.32 2993.89,-1748.89 2996.41,-1747.51 2999.15,-1746.21 3002.12,-1744.97 3005.3,-1743.81 3008.69,-1742.73 3012.26,-1741.72 3016.02,-1740.8 3019.94,-1739.96 3024.02,-1739.21 3028.23,-1738.55 3032.56,-1737.98 3036.99,-1737.5 3041.51,-1737.12 3046.1,-1736.83 3050.73,-1736.64 3055.39,-1736.54 3060.06,-1736.54 3064.72,-1736.64"/>
<text text-anchor="start" x="3028.56" y="-1781.58" font-family="Times,serif" font-size="14.00">C0025080</text>
<text text-anchor="start" x="3015.56" y="-1767.58" font-family="Times,serif" font-size="14.00">medical device</text>
<text text-anchor="start" x="3034.78" y="-1753.58" font-family="Times,serif" font-size="14.00">287:288</text>
</g>
<!-- id_27454401_DOT_25&#45;&#45;id_27454401_DOT_32 -->
<g id="edge29" class="edge">
<title>id_27454401_DOT_25&#45;&#45;id_27454401_DOT_32</title>
<path fill="none" stroke="black" stroke-dasharray="1,5" d="M2893.11,-1427.61C2927.7,-1499.94 3006.72,-1665.13 3041.16,-1737.15"/>
<text text-anchor="middle" x="2940.88" y="-1585.18" font-family="Times,serif" font-size="14.00">0.868350</text>
</g>
<!-- id_27454401_DOT_26&#45;&#45;id_27454401_DOT_27 -->
<g id="edge30" class="edge">
<title>id_27454401_DOT_26&#45;&#45;id_27454401_DOT_27</title>
<path fill="none" stroke="black" stroke-dasharray="1,5" d="M1419.58,-2229.94C1396.99,-2148.34 1340.97,-1945.92 1318.33,-1864.16"/>
<text text-anchor="middle" x="1342.71" y="-2049.85" font-family="Times,serif" font-size="14.00">0.305391</text>
</g>
<!-- id_27454401_DOT_29&#45;&#45;id_27454401_DOT_32 -->
<g id="edge31" class="edge">
<title>id_27454401_DOT_29&#45;&#45;id_27454401_DOT_32</title>
<path fill="none" stroke="black" stroke-dasharray="1,5" d="M3253.22,-2080.61C3211.15,-2014.14 3119.95,-1870.07 3078.72,-1804.94"/>
<text text-anchor="middle" x="3139.72" y="-1945.57" font-family="Times,serif" font-size="14.00">0.889886</text>
</g>
</g>
</svg>
