<?xml version="1.0" encoding="UTF-8" standalone="no"?>
<!DOCTYPE svg PUBLIC "-//W3C//DTD SVG 1.1//EN"
 "http://www.w3.org/Graphics/SVG/1.1/DTD/svg11.dtd">
<!-- Generated by graphviz version 2.42.3 (20191010.1750)
 -->
<!-- Title: MST Pages: 1 -->
<svg width="3389pt" height="3255pt"
 viewBox="0.00 0.00 3389.44 3255.24" xmlns="http://www.w3.org/2000/svg" xmlns:xlink="http://www.w3.org/1999/xlink">
<g id="graph0" class="graph" transform="scale(1 1) rotate(0) translate(4 3251.24)">
<title>MST</title>
<polygon fill="white" stroke="transparent" points="-4,4 -4,-3251.24 3385.44,-3251.24 3385.44,4 -4,4"/>
<!-- id_27469396_DOT_1 -->
<g id="node1" class="node">
<title>id_27469396_DOT_1</title>
<polygon fill="aquamarine" stroke="aquamarine" points="871.59,-2074.06 881.02,-2074.25 890.36,-2074.54 899.56,-2074.92 908.59,-2075.4 917.41,-2075.97 925.98,-2076.63 934.28,-2077.38 942.27,-2078.22 949.92,-2079.14 957.2,-2080.15 964.09,-2081.23 970.57,-2082.39 976.62,-2083.63 982.21,-2084.93 987.33,-2086.3 991.97,-2087.74 996.12,-2089.23 999.77,-2090.78 1002.92,-2092.38 1005.57,-2094.02 1007.71,-2095.71 1009.35,-2097.43 1010.49,-2099.19 1011.15,-2100.97 1011.32,-2102.77 1011.03,-2104.6 1010.29,-2106.43 1009.1,-2108.27 1007.5,-2110.12 1005.49,-2111.96 1003.09,-2113.8 1000.32,-2115.62 997.21,-2117.42 993.77,-2119.21 990.03,-2120.96 986,-2122.68 981.71,-2124.37 977.18,-2126.01 972.42,-2127.61 967.47,-2129.16 962.32,-2130.65 957.01,-2132.09 951.55,-2133.46 945.96,-2134.76 940.26,-2136 934.45,-2137.16 928.55,-2138.24 922.57,-2139.25 916.53,-2140.17 910.42,-2141.01 904.28,-2141.76 898.09,-2142.42 891.87,-2142.99 885.62,-2143.47 879.36,-2143.85 873.08,-2144.14 866.79,-2144.33 860.49,-2144.43 854.19,-2144.43 847.89,-2144.33 841.6,-2144.14 835.32,-2143.85 829.05,-2143.47 822.81,-2142.99 816.59,-2142.42 810.4,-2141.76 804.25,-2141.01 798.15,-2140.17 792.11,-2139.25 786.13,-2138.24 780.23,-2137.16 774.42,-2136 768.71,-2134.76 763.12,-2133.46 757.67,-2132.09 752.36,-2130.65 747.21,-2129.16 742.25,-2127.61 737.5,-2126.01 732.96,-2124.37 728.67,-2122.68 724.65,-2120.96 720.9,-2119.21 717.47,-2117.42 714.35,-2115.62 711.59,-2113.8 709.19,-2111.96 707.18,-2110.12 705.57,-2108.27 704.39,-2106.43 703.65,-2104.6 703.35,-2102.77 703.53,-2100.97 704.19,-2099.19 705.33,-2097.43 706.97,-2095.71 709.11,-2094.02 711.76,-2092.38 714.9,-2090.78 718.56,-2089.23 722.71,-2087.74 727.35,-2086.3 732.47,-2084.93 738.06,-2083.63 744.11,-2082.39 750.58,-2081.23 757.48,-2080.15 764.76,-2079.14 772.41,-2078.22 780.4,-2077.38 788.7,-2076.63 797.27,-2075.97 806.09,-2075.4 815.12,-2074.92 824.32,-2074.54 833.66,-2074.25 843.09,-2074.06 852.58,-2073.96 862.1,-2073.96 871.59,-2074.06"/>
<text text-anchor="start" x="828.17" y="-2119" font-family="Times,serif" font-size="14.00">C0004930</text>
<text text-anchor="start" x="763.26" y="-2105" font-family="Times,serif" font-size="14.00">Externalizing Behavior Disorders</text>
<text text-anchor="start" x="848.39" y="-2091" font-family="Times,serif" font-size="14.00">5:7</text>
</g>
<!-- id_27469396_DOT_8 -->
<g id="node8" class="node">
<title>id_27469396_DOT_8</title>
<polygon fill="aquamarine" stroke="aquamarine" points="1238.68,-1830.8 1247.73,-1831 1256.69,-1831.29 1265.52,-1831.67 1274.18,-1832.15 1282.65,-1832.72 1290.87,-1833.38 1298.84,-1834.13 1306.5,-1834.97 1313.84,-1835.89 1320.83,-1836.89 1327.45,-1837.98 1333.66,-1839.14 1339.46,-1840.38 1344.83,-1841.68 1349.74,-1843.05 1354.19,-1844.49 1358.18,-1845.98 1361.68,-1847.53 1364.7,-1849.12 1367.24,-1850.77 1369.3,-1852.45 1370.87,-1854.18 1371.97,-1855.93 1372.6,-1857.71 1372.76,-1859.52 1372.49,-1861.34 1371.77,-1863.18 1370.64,-1865.02 1369.09,-1866.87 1367.16,-1868.71 1364.86,-1870.54 1362.21,-1872.37 1359.22,-1874.17 1355.93,-1875.95 1352.33,-1877.71 1348.47,-1879.43 1344.35,-1881.12 1340,-1882.76 1335.44,-1884.36 1330.68,-1885.91 1325.74,-1887.4 1320.65,-1888.83 1315.41,-1890.21 1310.05,-1891.51 1304.57,-1892.75 1299,-1893.91 1293.33,-1894.99 1287.6,-1896 1281.8,-1896.92 1275.95,-1897.76 1270.05,-1898.51 1264.11,-1899.17 1258.14,-1899.74 1252.15,-1900.22 1246.14,-1900.6 1240.11,-1900.89 1234.07,-1901.08 1228.03,-1901.18 1221.98,-1901.18 1215.94,-1901.08 1209.9,-1900.89 1203.88,-1900.6 1197.87,-1900.22 1191.87,-1899.74 1185.9,-1899.17 1179.97,-1898.51 1174.07,-1897.76 1168.21,-1896.92 1162.42,-1896 1156.68,-1894.99 1151.02,-1893.91 1145.44,-1892.75 1139.97,-1891.51 1134.6,-1890.21 1129.36,-1888.83 1124.27,-1887.4 1119.33,-1885.91 1114.58,-1884.36 1110.01,-1882.76 1105.66,-1881.12 1101.54,-1879.43 1097.68,-1877.71 1094.09,-1875.95 1090.79,-1874.17 1087.8,-1872.37 1085.15,-1870.54 1082.85,-1868.71 1080.92,-1866.87 1079.38,-1865.02 1078.24,-1863.18 1077.53,-1861.34 1077.25,-1859.52 1077.42,-1857.71 1078.05,-1855.93 1079.14,-1854.18 1080.72,-1852.45 1082.77,-1850.77 1085.31,-1849.12 1088.33,-1847.53 1091.84,-1845.98 1095.82,-1844.49 1100.27,-1843.05 1105.19,-1841.68 1110.55,-1840.38 1116.35,-1839.14 1122.57,-1837.98 1129.18,-1836.89 1136.17,-1835.89 1143.51,-1834.97 1151.18,-1834.13 1159.14,-1833.38 1167.37,-1832.72 1175.83,-1832.15 1184.49,-1831.67 1193.32,-1831.29 1202.28,-1831 1211.33,-1830.8 1220.44,-1830.71 1229.57,-1830.71 1238.68,-1830.8"/>
<text text-anchor="start" x="1195.84" y="-1875.74" font-family="Times,serif" font-size="14.00">C0004930</text>
<text text-anchor="start" x="1134.82" y="-1861.74" font-family="Times,serif" font-size="14.00">externalizing behavior disorders</text>
<text text-anchor="start" x="1209.06" y="-1847.74" font-family="Times,serif" font-size="14.00">58:60</text>
</g>
<!-- id_27469396_DOT_1&#45;&#45;id_27469396_DOT_8 -->
<g id="edge11" class="edge">
<title>id_27469396_DOT_1&#45;&#45;id_27469396_DOT_8</title>
<path fill="none" stroke="black" stroke-dasharray="1,5" d="M908.46,-2075.37C979.4,-2028.44 1106.78,-1944.16 1176.37,-1898.12"/>
<text text-anchor="middle" x="1016.16" y="-1989.55" font-family="Times,serif" font-size="14.00">0.251687</text>
</g>
<!-- id_27469396_DOT_18 -->
<g id="node18" class="node">
<title>id_27469396_DOT_18</title>
<polygon fill="chartreuse" stroke="chartreuse" points="450.97,-2036.55 454.4,-2036.75 457.79,-2037.03 461.13,-2037.42 464.41,-2037.9 467.62,-2038.47 470.73,-2039.13 473.75,-2039.88 476.65,-2040.72 479.43,-2041.64 482.08,-2042.64 484.58,-2043.73 486.94,-2044.89 489.13,-2046.12 491.16,-2047.43 493.03,-2048.8 494.71,-2050.23 496.22,-2051.73 497.55,-2053.28 498.69,-2054.87 499.65,-2056.52 500.43,-2058.2 501.03,-2059.93 501.44,-2061.68 501.68,-2063.46 501.75,-2065.27 501.64,-2067.09 501.37,-2068.93 500.94,-2070.77 500.36,-2072.61 499.62,-2074.46 498.75,-2076.29 497.75,-2078.12 496.62,-2079.92 495.37,-2081.7 494.01,-2083.46 492.55,-2085.18 490.99,-2086.87 489.34,-2088.51 487.61,-2090.11 485.81,-2091.66 483.94,-2093.15 482.01,-2094.58 480.03,-2095.95 477.99,-2097.26 475.92,-2098.49 473.81,-2099.66 471.67,-2100.74 469.49,-2101.75 467.3,-2102.67 465.08,-2103.51 462.85,-2104.26 460.6,-2104.92 458.34,-2105.49 456.07,-2105.97 453.79,-2106.35 451.51,-2106.64 449.22,-2106.83 446.93,-2106.93 444.64,-2106.93 442.36,-2106.83 440.07,-2106.64 437.79,-2106.35 435.51,-2105.97 433.24,-2105.49 430.98,-2104.92 428.73,-2104.26 426.5,-2103.51 424.28,-2102.67 422.09,-2101.75 419.91,-2100.74 417.77,-2099.66 415.66,-2098.49 413.58,-2097.26 411.55,-2095.95 409.57,-2094.58 407.64,-2093.15 405.77,-2091.66 403.97,-2090.11 402.24,-2088.51 400.59,-2086.87 399.03,-2085.18 397.57,-2083.46 396.21,-2081.7 394.96,-2079.92 393.83,-2078.12 392.83,-2076.29 391.95,-2074.46 391.22,-2072.61 390.64,-2070.77 390.21,-2068.93 389.94,-2067.09 389.83,-2065.27 389.9,-2063.46 390.14,-2061.68 390.55,-2059.93 391.15,-2058.2 391.92,-2056.52 392.89,-2054.87 394.03,-2053.28 395.36,-2051.73 396.87,-2050.23 398.55,-2048.8 400.41,-2047.43 402.45,-2046.12 404.64,-2044.89 407,-2043.73 409.5,-2042.64 412.15,-2041.64 414.93,-2040.72 417.83,-2039.88 420.85,-2039.13 423.96,-2038.47 427.17,-2037.9 430.45,-2037.42 433.79,-2037.03 437.18,-2036.75 440.61,-2036.55 444.06,-2036.46 447.52,-2036.46 450.97,-2036.55"/>
<text text-anchor="start" x="416.62" y="-2081.49" font-family="Times,serif" font-size="14.00">C1263846</text>
<text text-anchor="start" x="425.57" y="-2067.49" font-family="Times,serif" font-size="14.00">ADHD</text>
<text text-anchor="start" x="422.84" y="-2053.49" font-family="Times,serif" font-size="14.00">179:179</text>
</g>
<!-- id_27469396_DOT_1&#45;&#45;id_27469396_DOT_18 -->
<g id="edge12" class="edge">
<title>id_27469396_DOT_1&#45;&#45;id_27469396_DOT_18</title>
<path fill="none" stroke="black" stroke-dasharray="1,5" d="M707.01,-2095.5C634.22,-2088.86 551.43,-2081.32 498.93,-2076.53"/>
<text text-anchor="middle" x="576.72" y="-2088.82" font-family="Times,serif" font-size="14.00">0.274864</text>
</g>
<!-- id_27469396_DOT_19 -->
<g id="node19" class="node">
<title>id_27469396_DOT_19</title>
<polygon fill="coral" stroke="coral" points="765.07,-2471.25 773.21,-2471.44 781.26,-2471.73 789.2,-2472.11 796.99,-2472.59 804.6,-2473.16 812,-2473.82 819.16,-2474.57 826.05,-2475.41 832.65,-2476.33 838.94,-2477.34 844.88,-2478.42 850.47,-2479.59 855.69,-2480.82 860.51,-2482.13 864.93,-2483.5 868.94,-2484.93 872.52,-2486.42 875.67,-2487.97 878.39,-2489.57 880.67,-2491.21 882.52,-2492.9 883.93,-2494.62 884.92,-2496.38 885.48,-2498.16 885.64,-2499.97 885.39,-2501.79 884.74,-2503.62 883.72,-2505.47 882.34,-2507.31 880.6,-2509.15 878.53,-2510.99 876.15,-2512.81 873.46,-2514.62 870.49,-2516.4 867.27,-2518.15 863.79,-2519.88 860.09,-2521.56 856.18,-2523.21 852.07,-2524.81 847.79,-2526.35 843.36,-2527.85 838.77,-2529.28 834.06,-2530.65 829.24,-2531.96 824.32,-2533.19 819.3,-2534.35 814.21,-2535.44 809.05,-2536.44 803.84,-2537.36 798.58,-2538.2 793.27,-2538.95 787.93,-2539.61 782.57,-2540.18 777.18,-2540.66 771.77,-2541.05 766.35,-2541.33 760.92,-2541.53 755.49,-2541.62 750.05,-2541.62 744.62,-2541.53 739.19,-2541.33 733.77,-2541.05 728.36,-2540.66 722.97,-2540.18 717.61,-2539.61 712.27,-2538.95 706.96,-2538.2 701.7,-2537.36 696.49,-2536.44 691.33,-2535.44 686.24,-2534.35 681.23,-2533.19 676.3,-2531.96 671.48,-2530.65 666.77,-2529.28 662.19,-2527.85 657.75,-2526.35 653.47,-2524.81 649.36,-2523.21 645.45,-2521.56 641.75,-2519.88 638.28,-2518.15 635.05,-2516.4 632.08,-2514.62 629.4,-2512.81 627.01,-2510.99 624.94,-2509.15 623.21,-2507.31 621.82,-2505.47 620.8,-2503.62 620.16,-2501.79 619.9,-2499.97 620.06,-2498.16 620.62,-2496.38 621.61,-2494.62 623.02,-2492.9 624.87,-2491.21 627.15,-2489.57 629.87,-2487.97 633.02,-2486.42 636.6,-2484.93 640.61,-2483.5 645.03,-2482.13 649.85,-2480.82 655.07,-2479.59 660.66,-2478.42 666.6,-2477.34 672.89,-2476.33 679.49,-2475.41 686.38,-2474.57 693.54,-2473.82 700.94,-2473.16 708.55,-2472.59 716.34,-2472.11 724.28,-2471.73 732.34,-2471.44 740.48,-2471.25 748.67,-2471.15 756.87,-2471.15 765.07,-2471.25"/>
<text text-anchor="start" x="723.6" y="-2516.19" font-family="Times,serif" font-size="14.00">C0029121</text>
<text text-anchor="start" x="672.67" y="-2502.19" font-family="Times,serif" font-size="14.00">oppositional defiant disorder</text>
<text text-anchor="start" x="729.83" y="-2488.19" font-family="Times,serif" font-size="14.00">181:183</text>
</g>
<!-- id_27469396_DOT_1&#45;&#45;id_27469396_DOT_19 -->
<g id="edge13" class="edge">
<title>id_27469396_DOT_1&#45;&#45;id_27469396_DOT_19</title>
<path fill="none" stroke="black" stroke-dasharray="1,5" d="M848.06,-2144.44C828.24,-2219.72 781.97,-2395.47 762.1,-2470.93"/>
<text text-anchor="middle" x="778.83" y="-2310.49" font-family="Times,serif" font-size="14.00">0.424625</text>
</g>
<!-- id_27469396_DOT_2 -->
<g id="node2" class="node">
<title>id_27469396_DOT_2</title>
<polygon fill="bisque" stroke="bisque" points="1587.01,-2074.15 1591.26,-2074.34 1595.47,-2074.63 1599.61,-2075.02 1603.68,-2075.49 1607.65,-2076.06 1611.51,-2076.73 1615.25,-2077.48 1618.85,-2078.31 1622.3,-2079.24 1625.58,-2080.24 1628.68,-2081.33 1631.6,-2082.49 1634.32,-2083.72 1636.84,-2085.03 1639.15,-2086.4 1641.24,-2087.83 1643.11,-2089.33 1644.76,-2090.87 1646.18,-2092.47 1647.37,-2094.12 1648.33,-2095.8 1649.07,-2097.52 1649.59,-2099.28 1649.88,-2101.06 1649.96,-2102.87 1649.83,-2104.69 1649.49,-2106.52 1648.96,-2108.37 1648.24,-2110.21 1647.33,-2112.06 1646.25,-2113.89 1645,-2115.71 1643.6,-2117.52 1642.05,-2119.3 1640.37,-2121.06 1638.55,-2122.78 1636.62,-2124.46 1634.58,-2126.11 1632.44,-2127.71 1630.2,-2129.25 1627.89,-2130.75 1625.49,-2132.18 1623.03,-2133.55 1620.52,-2134.86 1617.95,-2136.09 1615.33,-2137.25 1612.67,-2138.34 1609.98,-2139.34 1607.25,-2140.27 1604.51,-2141.1 1601.74,-2141.85 1598.95,-2142.52 1596.15,-2143.09 1593.33,-2143.56 1590.51,-2143.95 1587.68,-2144.24 1584.85,-2144.43 1582.01,-2144.53 1579.17,-2144.53 1576.34,-2144.43 1573.5,-2144.24 1570.67,-2143.95 1567.85,-2143.56 1565.04,-2143.09 1562.23,-2142.52 1559.45,-2141.85 1556.68,-2141.1 1553.93,-2140.27 1551.21,-2139.34 1548.51,-2138.34 1545.86,-2137.25 1543.24,-2136.09 1540.67,-2134.86 1538.15,-2133.55 1535.69,-2132.18 1533.3,-2130.75 1530.98,-2129.25 1528.75,-2127.71 1526.6,-2126.11 1524.56,-2124.46 1522.63,-2122.78 1520.82,-2121.06 1519.13,-2119.3 1517.58,-2117.52 1516.18,-2115.71 1514.93,-2113.89 1513.85,-2112.06 1512.95,-2110.21 1512.22,-2108.37 1511.69,-2106.52 1511.35,-2104.69 1511.22,-2102.87 1511.3,-2101.06 1511.6,-2099.28 1512.11,-2097.52 1512.85,-2095.8 1513.82,-2094.12 1515.01,-2092.47 1516.43,-2090.87 1518.07,-2089.33 1519.94,-2087.83 1522.03,-2086.4 1524.34,-2085.03 1526.86,-2083.72 1529.58,-2082.49 1532.5,-2081.33 1535.6,-2080.24 1538.89,-2079.24 1542.33,-2078.31 1545.93,-2077.48 1549.67,-2076.73 1553.53,-2076.06 1557.51,-2075.49 1561.57,-2075.02 1565.72,-2074.63 1569.92,-2074.34 1574.17,-2074.15 1578.45,-2074.06 1582.73,-2074.06 1587.01,-2074.15"/>
<text text-anchor="start" x="1551.42" y="-2119.09" font-family="Times,serif" font-size="14.00">C0033920</text>
<text text-anchor="start" x="1542.49" y="-2105.09" font-family="Times,serif" font-size="14.00">Psychometric</text>
<text text-anchor="start" x="1571.65" y="-2091.09" font-family="Times,serif" font-size="14.00">9:9</text>
</g>
<!-- id_27469396_DOT_5 -->
<g id="node5" class="node">
<title>id_27469396_DOT_5</title>
<polygon fill="bisque" stroke="bisque" points="1920.44,-2302.86 1924.65,-2303.05 1928.81,-2303.34 1932.92,-2303.72 1936.94,-2304.2 1940.88,-2304.77 1944.7,-2305.43 1948.4,-2306.18 1951.97,-2307.02 1955.38,-2307.94 1958.63,-2308.95 1961.7,-2310.03 1964.59,-2311.2 1967.29,-2312.43 1969.78,-2313.73 1972.07,-2315.11 1974.14,-2316.54 1975.99,-2318.03 1977.62,-2319.58 1979.02,-2321.18 1980.2,-2322.82 1981.16,-2324.51 1981.89,-2326.23 1982.4,-2327.99 1982.69,-2329.77 1982.77,-2331.57 1982.64,-2333.4 1982.31,-2335.23 1981.78,-2337.07 1981.06,-2338.92 1980.17,-2340.76 1979.1,-2342.6 1977.86,-2344.42 1976.48,-2346.23 1974.94,-2348.01 1973.27,-2349.76 1971.48,-2351.49 1969.56,-2353.17 1967.54,-2354.82 1965.42,-2356.41 1963.21,-2357.96 1960.91,-2359.45 1958.54,-2360.89 1956.11,-2362.26 1953.62,-2363.57 1951.07,-2364.8 1948.48,-2365.96 1945.85,-2367.05 1943.18,-2368.05 1940.49,-2368.97 1937.76,-2369.81 1935.02,-2370.56 1932.26,-2371.22 1929.49,-2371.79 1926.7,-2372.27 1923.91,-2372.65 1921.11,-2372.94 1918.3,-2373.14 1915.49,-2373.23 1912.68,-2373.23 1909.87,-2373.14 1907.06,-2372.94 1904.26,-2372.65 1901.47,-2372.27 1898.68,-2371.79 1895.91,-2371.22 1893.15,-2370.56 1890.41,-2369.81 1887.69,-2368.97 1884.99,-2368.05 1882.32,-2367.05 1879.69,-2365.96 1877.1,-2364.8 1874.55,-2363.57 1872.06,-2362.26 1869.63,-2360.89 1867.26,-2359.45 1864.96,-2357.96 1862.75,-2356.41 1860.63,-2354.82 1858.61,-2353.17 1856.69,-2351.49 1854.9,-2349.76 1853.23,-2348.01 1851.69,-2346.23 1850.31,-2344.42 1849.07,-2342.6 1848,-2340.76 1847.11,-2338.92 1846.39,-2337.07 1845.86,-2335.23 1845.53,-2333.4 1845.4,-2331.57 1845.48,-2329.77 1845.77,-2327.99 1846.28,-2326.23 1847.01,-2324.51 1847.97,-2322.82 1849.15,-2321.18 1850.55,-2319.58 1852.18,-2318.03 1854.03,-2316.54 1856.1,-2315.11 1858.39,-2313.73 1860.88,-2312.43 1863.58,-2311.2 1866.47,-2310.03 1869.54,-2308.95 1872.79,-2307.94 1876.2,-2307.02 1879.77,-2306.18 1883.47,-2305.43 1887.29,-2304.77 1891.23,-2304.2 1895.25,-2303.72 1899.36,-2303.34 1903.52,-2303.05 1907.73,-2302.86 1911.96,-2302.76 1916.21,-2302.76 1920.44,-2302.86"/>
<text text-anchor="start" x="1884.92" y="-2347.8" font-family="Times,serif" font-size="14.00">C0033920</text>
<text text-anchor="start" x="1876.37" y="-2333.8" font-family="Times,serif" font-size="14.00">psychometric</text>
<text text-anchor="start" x="1898.14" y="-2319.8" font-family="Times,serif" font-size="14.00">29:29</text>
</g>
<!-- id_27469396_DOT_2&#45;&#45;id_27469396_DOT_5 -->
<g id="edge1" class="edge">
<title>id_27469396_DOT_2&#45;&#45;id_27469396_DOT_5</title>
<path fill="none" stroke="black" d="M1619.17,-2135.75C1681.84,-2178.73 1805.32,-2263.41 1870.86,-2308.35"/>
<text text-anchor="middle" x="1718.77" y="-2224.85" font-family="Times,serif" font-size="14.00">0.004005</text>
</g>
<!-- id_27469396_DOT_2&#45;&#45;id_27469396_DOT_8 -->
<g id="edge14" class="edge">
<title>id_27469396_DOT_2&#45;&#45;id_27469396_DOT_8</title>
<path fill="none" stroke="black" stroke-dasharray="1,5" d="M1537.35,-2079.69C1470.34,-2033.84 1341.95,-1945.97 1272.47,-1898.43"/>
<text text-anchor="middle" x="1378.66" y="-1991.86" font-family="Times,serif" font-size="14.00">0.836536</text>
</g>
<!-- id_27469396_DOT_3 -->
<g id="node3" class="node">
<title>id_27469396_DOT_3</title>
<polygon fill="blue" stroke="blue" points="968.22,-1079.51 984.12,-1079.7 999.86,-1079.99 1015.37,-1080.38 1030.59,-1080.85 1045.45,-1081.42 1059.9,-1082.09 1073.89,-1082.84 1087.35,-1083.67 1100.25,-1084.6 1112.53,-1085.6 1124.14,-1086.69 1135.06,-1087.85 1145.25,-1089.08 1154.67,-1090.39 1163.31,-1091.76 1171.13,-1093.19 1178.13,-1094.69 1184.28,-1096.23 1189.59,-1097.83 1194.05,-1099.48 1197.66,-1101.16 1200.42,-1102.88 1202.35,-1104.64 1203.45,-1106.42 1203.75,-1108.23 1203.26,-1110.05 1202,-1111.88 1200.01,-1113.73 1197.3,-1115.57 1193.91,-1117.42 1189.87,-1119.25 1185.21,-1121.07 1179.97,-1122.88 1174.17,-1124.66 1167.86,-1126.42 1161.08,-1128.14 1153.84,-1129.82 1146.2,-1131.47 1138.19,-1133.07 1129.83,-1134.61 1121.16,-1136.11 1112.21,-1137.54 1103.01,-1138.91 1093.58,-1140.22 1083.96,-1141.45 1074.17,-1142.61 1064.23,-1143.7 1054.15,-1144.7 1043.97,-1145.63 1033.68,-1146.46 1023.32,-1147.21 1012.89,-1147.88 1002.41,-1148.45 991.88,-1148.92 981.32,-1149.31 970.73,-1149.6 960.13,-1149.79 949.51,-1149.89 938.9,-1149.89 928.28,-1149.79 917.68,-1149.6 907.09,-1149.31 896.53,-1148.92 886,-1148.45 875.52,-1147.88 865.09,-1147.21 854.73,-1146.46 844.45,-1145.63 834.26,-1144.7 824.18,-1143.7 814.24,-1142.61 804.45,-1141.45 794.83,-1140.22 785.4,-1138.91 776.2,-1137.54 767.25,-1136.11 758.58,-1134.61 750.22,-1133.07 742.21,-1131.47 734.57,-1129.82 727.33,-1128.14 720.55,-1126.42 714.24,-1124.66 708.44,-1122.88 703.2,-1121.07 698.54,-1119.25 694.5,-1117.42 691.11,-1115.57 688.4,-1113.73 686.41,-1111.88 685.15,-1110.05 684.66,-1108.23 684.96,-1106.42 686.06,-1104.64 687.99,-1102.88 690.75,-1101.16 694.36,-1099.48 698.82,-1097.83 704.13,-1096.23 710.28,-1094.69 717.28,-1093.19 725.1,-1091.76 733.74,-1090.39 743.16,-1089.08 753.35,-1087.85 764.27,-1086.69 775.88,-1085.6 788.16,-1084.6 801.06,-1083.67 814.52,-1082.84 828.51,-1082.09 842.96,-1081.42 857.82,-1080.85 873.04,-1080.38 888.55,-1079.99 904.29,-1079.7 920.19,-1079.51 936.19,-1079.41 952.22,-1079.41 968.22,-1079.51"/>
<text text-anchor="start" x="915.04" y="-1124.45" font-family="Times,serif" font-size="14.00">C0282574</text>
<text text-anchor="start" x="779.72" y="-1110.45" font-family="Times,serif" font-size="14.00">Weiss Functional Impairment Rating Scale &#45; Parent Report</text>
<text text-anchor="start" x="928.26" y="-1096.45" font-family="Times,serif" font-size="14.00">13:20</text>
</g>
<!-- id_27469396_DOT_7 -->
<g id="node7" class="node">
<title>id_27469396_DOT_7</title>
<polygon fill="blue" stroke="blue" points="792.89,-716.4 808.79,-716.59 824.53,-716.88 840.04,-717.27 855.25,-717.74 870.12,-718.31 884.57,-718.98 898.56,-719.73 912.02,-720.56 924.92,-721.49 937.19,-722.49 948.81,-723.58 959.73,-724.74 969.92,-725.97 979.34,-727.28 987.97,-728.65 995.8,-730.08 1002.79,-731.58 1008.95,-733.12 1014.26,-734.72 1018.72,-736.37 1022.33,-738.05 1025.09,-739.77 1027.02,-741.53 1028.12,-743.31 1028.42,-745.12 1027.93,-746.94 1026.67,-748.77 1024.68,-750.62 1021.97,-752.46 1018.58,-754.31 1014.54,-756.14 1009.88,-757.96 1004.63,-759.77 998.84,-761.55 992.53,-763.31 985.74,-765.03 978.51,-766.71 970.87,-768.36 962.85,-769.96 954.49,-771.5 945.82,-773 936.87,-774.43 927.67,-775.8 918.25,-777.11 908.63,-778.34 898.84,-779.5 888.89,-780.59 878.82,-781.59 868.63,-782.52 858.35,-783.35 847.99,-784.1 837.56,-784.77 827.08,-785.34 816.55,-785.81 805.99,-786.2 795.4,-786.49 784.8,-786.68 774.18,-786.78 763.56,-786.78 752.95,-786.68 742.34,-786.49 731.76,-786.2 721.19,-785.81 710.67,-785.34 700.18,-784.77 689.76,-784.1 679.39,-783.35 669.11,-782.52 658.92,-781.59 648.85,-780.59 638.91,-779.5 629.11,-778.34 619.49,-777.11 610.07,-775.8 600.87,-774.43 591.92,-773 583.25,-771.5 574.89,-769.96 566.87,-768.36 559.23,-766.71 552,-765.03 545.21,-763.31 538.9,-761.55 533.11,-759.77 527.87,-757.96 523.21,-756.14 519.17,-754.31 515.78,-752.46 513.07,-750.62 511.07,-748.77 509.82,-746.94 509.33,-745.12 509.62,-743.31 510.73,-741.53 512.65,-739.77 515.42,-738.05 519.03,-736.37 523.48,-734.72 528.79,-733.12 534.95,-731.58 541.95,-730.08 549.77,-728.65 558.4,-727.28 567.83,-725.97 578.01,-724.74 588.93,-723.58 600.55,-722.49 612.83,-721.49 625.72,-720.56 639.19,-719.73 653.17,-718.98 667.63,-718.31 682.49,-717.74 697.71,-717.27 713.22,-716.88 728.95,-716.59 744.85,-716.4 760.85,-716.3 776.89,-716.3 792.89,-716.4"/>
<text text-anchor="start" x="739.7" y="-761.34" font-family="Times,serif" font-size="14.00">C0282574</text>
<text text-anchor="start" x="604.39" y="-747.34" font-family="Times,serif" font-size="14.00">Weiss Functional Impairment Rating Scale &#45; Parent Report</text>
<text text-anchor="start" x="752.93" y="-733.34" font-family="Times,serif" font-size="14.00">37:44</text>
</g>
<!-- id_27469396_DOT_3&#45;&#45;id_27469396_DOT_7 -->
<g id="edge2" class="edge">
<title>id_27469396_DOT_3&#45;&#45;id_27469396_DOT_7</title>
<path fill="none" stroke="black" d="M927.07,-1079.17C893.51,-1009.66 819.46,-856.3 785.94,-786.89"/>
<text text-anchor="middle" x="830.26" y="-935.83" font-family="Times,serif" font-size="14.00">0.002076</text>
</g>
<!-- id_27469396_DOT_13 -->
<g id="node13" class="node">
<title>id_27469396_DOT_13</title>
<polygon fill="cornflowerblue" stroke="cornflowerblue" points="1265.94,-1390.81 1270.45,-1391 1274.91,-1391.29 1279.31,-1391.68 1283.63,-1392.15 1287.84,-1392.72 1291.94,-1393.39 1295.91,-1394.14 1299.73,-1394.97 1303.39,-1395.9 1306.87,-1396.9 1310.17,-1397.99 1313.27,-1399.15 1316.16,-1400.38 1318.83,-1401.69 1321.28,-1403.06 1323.5,-1404.49 1325.48,-1405.99 1327.23,-1407.53 1328.74,-1409.13 1330,-1410.78 1331.02,-1412.46 1331.81,-1414.18 1332.35,-1415.94 1332.67,-1417.72 1332.75,-1419.53 1332.61,-1421.35 1332.26,-1423.18 1331.69,-1425.03 1330.92,-1426.87 1329.96,-1428.72 1328.81,-1430.55 1327.49,-1432.37 1326,-1434.18 1324.36,-1435.96 1322.57,-1437.72 1320.65,-1439.44 1318.59,-1441.12 1316.43,-1442.77 1314.15,-1444.37 1311.78,-1445.91 1309.32,-1447.41 1306.78,-1448.84 1304.17,-1450.21 1301.5,-1451.52 1298.77,-1452.75 1295.99,-1453.91 1293.17,-1455 1290.31,-1456 1287.42,-1456.93 1284.51,-1457.76 1281.57,-1458.51 1278.61,-1459.18 1275.63,-1459.75 1272.65,-1460.22 1269.65,-1460.61 1266.65,-1460.9 1263.64,-1461.09 1260.63,-1461.18 1257.62,-1461.18 1254.6,-1461.09 1251.6,-1460.9 1248.59,-1460.61 1245.6,-1460.22 1242.61,-1459.75 1239.64,-1459.18 1236.68,-1458.51 1233.74,-1457.76 1230.82,-1456.93 1227.93,-1456 1225.07,-1455 1222.25,-1453.91 1219.47,-1452.75 1216.75,-1451.52 1214.07,-1450.21 1211.46,-1448.84 1208.92,-1447.41 1206.46,-1445.91 1204.09,-1444.37 1201.82,-1442.77 1199.65,-1441.12 1197.6,-1439.44 1195.67,-1437.72 1193.88,-1435.96 1192.24,-1434.18 1190.75,-1432.37 1189.43,-1430.55 1188.28,-1428.72 1187.32,-1426.87 1186.55,-1425.03 1185.99,-1423.18 1185.63,-1421.35 1185.49,-1419.53 1185.58,-1417.72 1185.89,-1415.94 1186.44,-1414.18 1187.22,-1412.46 1188.24,-1410.78 1189.51,-1409.13 1191.02,-1407.53 1192.76,-1405.99 1194.75,-1404.49 1196.97,-1403.06 1199.42,-1401.69 1202.09,-1400.38 1204.98,-1399.15 1208.08,-1397.99 1211.37,-1396.9 1214.85,-1395.9 1218.51,-1394.97 1222.33,-1394.14 1226.3,-1393.39 1230.4,-1392.72 1234.62,-1392.15 1238.93,-1391.68 1243.33,-1391.29 1247.8,-1391 1252.31,-1390.81 1256.85,-1390.71 1261.4,-1390.71 1265.94,-1390.81"/>
<text text-anchor="start" x="1229.95" y="-1435.75" font-family="Times,serif" font-size="14.00">C3161035</text>
<text text-anchor="start" x="1218.11" y="-1421.75" font-family="Times,serif" font-size="14.00">bifactor model</text>
<text text-anchor="start" x="1236.18" y="-1407.75" font-family="Times,serif" font-size="14.00">100:101</text>
</g>
<!-- id_27469396_DOT_3&#45;&#45;id_27469396_DOT_13 -->
<g id="edge15" class="edge">
<title>id_27469396_DOT_3&#45;&#45;id_27469396_DOT_13</title>
<path fill="none" stroke="black" stroke-dasharray="1,5" d="M979.41,-1149.45C1040.72,-1210.06 1166.25,-1334.14 1226.04,-1393.25"/>
<text text-anchor="middle" x="1076.48" y="-1274.15" font-family="Times,serif" font-size="14.00">0.832510</text>
</g>
<!-- id_27469396_DOT_4 -->
<g id="node4" class="node">
<title>id_27469396_DOT_4</title>
<polygon fill="blueviolet" stroke="blueviolet" points="1947.64,-902.78 1951.07,-902.97 1954.46,-903.26 1957.8,-903.64 1961.08,-904.12 1964.29,-904.69 1967.41,-905.35 1970.42,-906.1 1973.32,-906.94 1976.1,-907.86 1978.75,-908.87 1981.26,-909.95 1983.61,-911.11 1985.81,-912.35 1987.84,-913.65 1989.7,-915.02 1991.39,-916.46 1992.89,-917.95 1994.22,-919.5 1995.37,-921.1 1996.33,-922.74 1997.1,-924.43 1997.7,-926.15 1998.12,-927.9 1998.35,-929.69 1998.42,-931.49 1998.31,-933.31 1998.04,-935.15 1997.61,-936.99 1997.03,-938.84 1996.3,-940.68 1995.43,-942.52 1994.42,-944.34 1993.29,-946.14 1992.04,-947.93 1990.68,-949.68 1989.22,-951.4 1987.66,-953.09 1986.01,-954.73 1984.28,-956.33 1982.48,-957.88 1980.61,-959.37 1978.68,-960.81 1976.7,-962.18 1974.67,-963.48 1972.59,-964.72 1970.48,-965.88 1968.34,-966.96 1966.17,-967.97 1963.97,-968.89 1961.75,-969.73 1959.52,-970.48 1957.27,-971.14 1955.01,-971.71 1952.74,-972.19 1950.46,-972.57 1948.18,-972.86 1945.89,-973.05 1943.61,-973.15 1941.32,-973.15 1939.03,-973.05 1936.74,-972.86 1934.46,-972.57 1932.18,-972.19 1929.91,-971.71 1927.65,-971.14 1925.4,-970.48 1923.17,-969.73 1920.95,-968.89 1918.76,-967.97 1916.59,-966.96 1914.44,-965.88 1912.33,-964.72 1910.26,-963.48 1908.22,-962.18 1906.24,-960.81 1904.31,-959.37 1902.44,-957.88 1900.64,-956.33 1898.91,-954.73 1897.26,-953.09 1895.71,-951.4 1894.24,-949.68 1892.88,-947.93 1891.63,-946.14 1890.5,-944.34 1889.5,-942.52 1888.63,-940.68 1887.9,-938.84 1887.31,-936.99 1886.88,-935.15 1886.61,-933.31 1886.51,-931.49 1886.57,-929.69 1886.81,-927.9 1887.22,-926.15 1887.82,-924.43 1888.6,-922.74 1889.56,-921.1 1890.7,-919.5 1892.03,-917.95 1893.54,-916.46 1895.22,-915.02 1897.09,-913.65 1899.12,-912.35 1901.31,-911.11 1903.67,-909.95 1906.17,-908.87 1908.82,-907.86 1911.6,-906.94 1914.5,-906.1 1917.52,-905.35 1920.63,-904.69 1923.84,-904.12 1927.12,-903.64 1930.46,-903.26 1933.86,-902.97 1937.28,-902.78 1940.73,-902.68 1944.19,-902.68 1947.64,-902.78"/>
<text text-anchor="start" x="1913.29" y="-947.72" font-family="Times,serif" font-size="14.00">C0017480</text>
<text text-anchor="start" x="1919.92" y="-933.72" font-family="Times,serif" font-size="14.00">German</text>
<text text-anchor="start" x="1926.52" y="-919.72" font-family="Times,serif" font-size="14.00">23:23</text>
</g>
<!-- id_27469396_DOT_6 -->
<g id="node6" class="node">
<title>id_27469396_DOT_6</title>
<polygon fill="blueviolet" stroke="blueviolet" points="1668.8,-1200.52 1672.23,-1200.71 1675.62,-1201 1678.97,-1201.38 1682.25,-1201.86 1685.45,-1202.43 1688.57,-1203.09 1691.58,-1203.84 1694.49,-1204.68 1697.27,-1205.6 1699.91,-1206.61 1702.42,-1207.69 1704.77,-1208.85 1706.97,-1210.09 1709,-1211.39 1710.86,-1212.76 1712.55,-1214.2 1714.06,-1215.69 1715.38,-1217.24 1716.53,-1218.84 1717.49,-1220.48 1718.27,-1222.17 1718.86,-1223.89 1719.28,-1225.64 1719.52,-1227.43 1719.58,-1229.23 1719.47,-1231.05 1719.2,-1232.89 1718.77,-1234.73 1718.19,-1236.58 1717.46,-1238.42 1716.59,-1240.26 1715.58,-1242.08 1714.45,-1243.88 1713.2,-1245.67 1711.84,-1247.42 1710.38,-1249.14 1708.82,-1250.83 1707.17,-1252.47 1705.45,-1254.07 1703.64,-1255.62 1701.77,-1257.11 1699.84,-1258.55 1697.86,-1259.92 1695.83,-1261.22 1693.76,-1262.46 1691.64,-1263.62 1689.5,-1264.7 1687.33,-1265.71 1685.13,-1266.63 1682.91,-1267.47 1680.68,-1268.22 1678.43,-1268.88 1676.17,-1269.45 1673.9,-1269.93 1671.63,-1270.31 1669.34,-1270.6 1667.06,-1270.79 1664.77,-1270.89 1662.48,-1270.89 1660.19,-1270.79 1657.9,-1270.6 1655.62,-1270.31 1653.35,-1269.93 1651.08,-1269.45 1648.82,-1268.88 1646.57,-1268.22 1644.33,-1267.47 1642.12,-1266.63 1639.92,-1265.71 1637.75,-1264.7 1635.6,-1263.62 1633.49,-1262.46 1631.42,-1261.22 1629.39,-1259.92 1627.4,-1258.55 1625.47,-1257.11 1623.61,-1255.62 1621.8,-1254.07 1620.07,-1252.47 1618.43,-1250.83 1616.87,-1249.14 1615.4,-1247.42 1614.04,-1245.67 1612.8,-1243.88 1611.66,-1242.08 1610.66,-1240.26 1609.79,-1238.42 1609.06,-1236.58 1608.47,-1234.73 1608.04,-1232.89 1607.77,-1231.05 1607.67,-1229.23 1607.73,-1227.43 1607.97,-1225.64 1608.39,-1223.89 1608.98,-1222.17 1609.76,-1220.48 1610.72,-1218.84 1611.86,-1217.24 1613.19,-1215.69 1614.7,-1214.2 1616.39,-1212.76 1618.25,-1211.39 1620.28,-1210.09 1622.48,-1208.85 1624.83,-1207.69 1627.33,-1206.61 1629.98,-1205.6 1632.76,-1204.68 1635.66,-1203.84 1638.68,-1203.09 1641.8,-1202.43 1645,-1201.86 1648.28,-1201.38 1651.62,-1201 1655.02,-1200.71 1658.45,-1200.52 1661.9,-1200.42 1665.35,-1200.42 1668.8,-1200.52"/>
<text text-anchor="start" x="1634.46" y="-1245.45" font-family="Times,serif" font-size="14.00">C0017480</text>
<text text-anchor="start" x="1641.08" y="-1231.45" font-family="Times,serif" font-size="14.00">German</text>
<text text-anchor="start" x="1647.68" y="-1217.45" font-family="Times,serif" font-size="14.00">33:33</text>
</g>
<!-- id_27469396_DOT_4&#45;&#45;id_27469396_DOT_6 -->
<g id="edge3" class="edge">
<title>id_27469396_DOT_4&#45;&#45;id_27469396_DOT_6</title>
<path fill="none" stroke="black" d="M1915.47,-966.73C1862.99,-1022.78 1747.57,-1146.02 1693.13,-1204.14"/>
<text text-anchor="middle" x="1778.05" y="-1088.24" font-family="Times,serif" font-size="14.00">0.002841</text>
</g>
<!-- id_27469396_DOT_9 -->
<g id="node9" class="node">
<title>id_27469396_DOT_9</title>
<polygon fill="brown" stroke="brown" points="2244.34,-2523.96 2248.42,-2524.15 2252.46,-2524.44 2256.44,-2524.82 2260.34,-2525.3 2264.15,-2525.87 2267.86,-2526.53 2271.45,-2527.28 2274.9,-2528.12 2278.21,-2529.04 2281.36,-2530.05 2284.34,-2531.13 2287.14,-2532.3 2289.75,-2533.53 2292.17,-2534.84 2294.39,-2536.21 2296.39,-2537.64 2298.19,-2539.13 2299.77,-2540.68 2301.13,-2542.28 2302.27,-2543.92 2303.2,-2545.61 2303.91,-2547.33 2304.4,-2549.09 2304.68,-2550.87 2304.76,-2552.67 2304.63,-2554.5 2304.31,-2556.33 2303.8,-2558.18 2303.11,-2560.02 2302.24,-2561.86 2301.2,-2563.7 2300,-2565.52 2298.66,-2567.33 2297.17,-2569.11 2295.55,-2570.86 2293.81,-2572.59 2291.96,-2574.27 2290,-2575.92 2287.94,-2577.51 2285.8,-2579.06 2283.57,-2580.56 2281.28,-2581.99 2278.92,-2583.36 2276.5,-2584.67 2274.03,-2585.9 2271.52,-2587.06 2268.97,-2588.15 2266.39,-2589.15 2263.77,-2590.07 2261.13,-2590.91 2258.48,-2591.66 2255.8,-2592.32 2253.11,-2592.89 2250.41,-2593.37 2247.7,-2593.76 2244.99,-2594.04 2242.27,-2594.24 2239.54,-2594.33 2236.82,-2594.33 2234.1,-2594.24 2231.38,-2594.04 2228.66,-2593.76 2225.95,-2593.37 2223.25,-2592.89 2220.56,-2592.32 2217.89,-2591.66 2215.23,-2590.91 2212.59,-2590.07 2209.98,-2589.15 2207.4,-2588.15 2204.84,-2587.06 2202.33,-2585.9 2199.86,-2584.67 2197.45,-2583.36 2195.09,-2581.99 2192.79,-2580.56 2190.57,-2579.06 2188.42,-2577.51 2186.37,-2575.92 2184.41,-2574.27 2182.55,-2572.59 2180.81,-2570.86 2179.19,-2569.11 2177.71,-2567.33 2176.36,-2565.52 2175.17,-2563.7 2174.13,-2561.86 2173.26,-2560.02 2172.57,-2558.18 2172.05,-2556.33 2171.73,-2554.5 2171.61,-2552.67 2171.68,-2550.87 2171.96,-2549.09 2172.46,-2547.33 2173.17,-2545.61 2174.09,-2543.92 2175.24,-2542.28 2176.6,-2540.68 2178.18,-2539.13 2179.97,-2537.64 2181.98,-2536.21 2184.19,-2534.84 2186.61,-2533.53 2189.22,-2532.3 2192.03,-2531.13 2195.01,-2530.05 2198.16,-2529.04 2201.46,-2528.12 2204.92,-2527.28 2208.5,-2526.53 2212.21,-2525.87 2216.02,-2525.3 2219.93,-2524.82 2223.91,-2524.44 2227.94,-2524.15 2232.02,-2523.96 2236.13,-2523.86 2240.24,-2523.86 2244.34,-2523.96"/>
<text text-anchor="start" x="2209.01" y="-2568.9" font-family="Times,serif" font-size="14.00">C0008976</text>
<text text-anchor="start" x="2201.84" y="-2554.9" font-family="Times,serif" font-size="14.00">clinical trials</text>
<text text-anchor="start" x="2222.24" y="-2540.9" font-family="Times,serif" font-size="14.00">67:68</text>
</g>
<!-- id_27469396_DOT_5&#45;&#45;id_27469396_DOT_9 -->
<g id="edge16" class="edge">
<title>id_27469396_DOT_5&#45;&#45;id_27469396_DOT_9</title>
<path fill="none" stroke="black" stroke-dasharray="1,5" d="M1952.54,-2364.23C2013.4,-2405.75 2131.54,-2486.35 2195.15,-2529.74"/>
<text text-anchor="middle" x="2047.59" y="-2449.79" font-family="Times,serif" font-size="14.00">0.886958</text>
</g>
<!-- id_27469396_DOT_6&#45;&#45;id_27469396_DOT_13 -->
<g id="edge17" class="edge">
<title>id_27469396_DOT_6&#45;&#45;id_27469396_DOT_13</title>
<path fill="none" stroke="black" stroke-dasharray="1,5" d="M1622.61,-1254.95C1549.7,-1289.25 1397.47,-1360.87 1315.03,-1399.65"/>
<text text-anchor="middle" x="1442.57" y="-1330.1" font-family="Times,serif" font-size="14.00">0.890147</text>
</g>
<!-- id_27469396_DOT_21 -->
<g id="node21" class="node">
<title>id_27469396_DOT_21</title>
<polygon fill="blue" stroke="blue" points="664.24,-357.02 680.14,-357.22 695.88,-357.5 711.39,-357.89 726.6,-358.37 741.47,-358.94 755.92,-359.6 769.91,-360.35 783.37,-361.19 796.27,-362.11 808.54,-363.11 820.16,-364.2 831.08,-365.36 841.27,-366.59 850.69,-367.9 859.32,-369.27 867.15,-370.7 874.14,-372.2 880.3,-373.74 885.61,-375.34 890.07,-376.99 893.68,-378.67 896.44,-380.4 898.37,-382.15 899.47,-383.93 899.77,-385.74 899.28,-387.56 898.02,-389.4 896.03,-391.24 893.32,-393.08 889.93,-394.93 885.89,-396.76 881.23,-398.58 875.98,-400.39 870.19,-402.17 863.88,-403.93 857.09,-405.65 849.86,-407.34 842.22,-408.98 834.2,-410.58 825.84,-412.13 817.17,-413.62 808.23,-415.05 799.03,-416.42 789.6,-417.73 779.98,-418.96 770.19,-420.12 760.24,-421.21 750.17,-422.21 739.98,-423.14 729.7,-423.97 719.34,-424.73 708.91,-425.39 698.43,-425.96 687.9,-426.43 677.34,-426.82 666.75,-427.11 656.15,-427.3 645.53,-427.4 634.91,-427.4 624.3,-427.3 613.69,-427.11 603.11,-426.82 592.55,-426.43 582.02,-425.96 571.54,-425.39 561.11,-424.73 550.74,-423.97 540.46,-423.14 530.28,-422.21 520.2,-421.21 510.26,-420.12 500.46,-418.96 490.84,-417.73 481.42,-416.42 472.22,-415.05 463.27,-413.62 454.6,-412.13 446.24,-410.58 438.23,-408.98 430.58,-407.34 423.35,-405.65 416.56,-403.93 410.26,-402.17 404.46,-400.39 399.22,-398.58 394.56,-396.76 390.52,-394.93 387.13,-393.08 384.42,-391.24 382.42,-389.4 381.17,-387.56 380.68,-385.74 380.97,-383.93 382.08,-382.15 384.01,-380.4 386.77,-378.67 390.38,-376.99 394.84,-375.34 400.15,-373.74 406.3,-372.2 413.3,-370.7 421.12,-369.27 429.76,-367.9 439.18,-366.59 449.36,-365.36 460.28,-364.2 471.9,-363.11 484.18,-362.11 497.07,-361.19 510.54,-360.35 524.52,-359.6 538.98,-358.94 553.84,-358.37 569.06,-357.89 584.57,-357.5 600.3,-357.22 616.21,-357.02 632.21,-356.93 648.24,-356.93 664.24,-357.02"/>
<text text-anchor="start" x="611.05" y="-401.96" font-family="Times,serif" font-size="14.00">C0282574</text>
<text text-anchor="start" x="475.74" y="-387.96" font-family="Times,serif" font-size="14.00">Weiss Functional Impairment Rating Scale &#45; Parent Report</text>
<text text-anchor="start" x="617.53" y="-373.96" font-family="Times,serif" font-size="14.00">204:211</text>
</g>
<!-- id_27469396_DOT_7&#45;&#45;id_27469396_DOT_21 -->
<g id="edge4" class="edge">
<title>id_27469396_DOT_7&#45;&#45;id_27469396_DOT_21</title>
<path fill="none" stroke="black" d="M756.18,-716.1C731.53,-647.21 677.4,-496.01 652.82,-427.34"/>
<text text-anchor="middle" x="678.25" y="-574.52" font-family="Times,serif" font-size="14.00">0.035938</text>
</g>
<!-- id_27469396_DOT_8&#45;&#45;id_27469396_DOT_13 -->
<g id="edge18" class="edge">
<title>id_27469396_DOT_8&#45;&#45;id_27469396_DOT_13</title>
<path fill="none" stroke="black" stroke-dasharray="1,5" d="M1227.74,-1830.68C1234.13,-1748.3 1249.97,-1543.93 1256.38,-1461.38"/>
<text text-anchor="middle" x="1215.81" y="-1648.83" font-family="Times,serif" font-size="14.00">0.803663</text>
</g>
<!-- id_27469396_DOT_16 -->
<g id="node16" class="node">
<title>id_27469396_DOT_16</title>
<polygon fill="crimson" stroke="crimson" points="2560.7,-2769.76 2565.86,-2769.96 2570.97,-2770.25 2576,-2770.63 2580.93,-2771.11 2585.76,-2771.68 2590.45,-2772.34 2594.98,-2773.09 2599.35,-2773.93 2603.53,-2774.85 2607.52,-2775.85 2611.28,-2776.94 2614.83,-2778.1 2618.13,-2779.34 2621.19,-2780.64 2623.99,-2782.01 2626.53,-2783.45 2628.8,-2784.94 2630.79,-2786.49 2632.51,-2788.08 2633.96,-2789.73 2635.13,-2791.41 2636.03,-2793.14 2636.65,-2794.89 2637.01,-2796.67 2637.11,-2798.48 2636.95,-2800.3 2636.54,-2802.14 2635.89,-2803.98 2635.02,-2805.83 2633.92,-2807.67 2632.6,-2809.5 2631.09,-2811.33 2629.39,-2813.13 2627.51,-2814.91 2625.47,-2816.67 2623.26,-2818.39 2620.92,-2820.08 2618.44,-2821.72 2615.84,-2823.32 2613.13,-2824.87 2610.31,-2826.36 2607.41,-2827.79 2604.43,-2829.17 2601.37,-2830.47 2598.25,-2831.71 2595.07,-2832.87 2591.85,-2833.95 2588.58,-2834.96 2585.27,-2835.88 2581.94,-2836.72 2578.58,-2837.47 2575.19,-2838.13 2571.79,-2838.7 2568.38,-2839.18 2564.95,-2839.56 2561.52,-2839.85 2558.08,-2840.04 2554.64,-2840.14 2551.19,-2840.14 2547.75,-2840.04 2544.31,-2839.85 2540.87,-2839.56 2537.45,-2839.18 2534.03,-2838.7 2530.63,-2838.13 2527.25,-2837.47 2523.89,-2836.72 2520.55,-2835.88 2517.25,-2834.96 2513.98,-2833.95 2510.75,-2832.87 2507.58,-2831.71 2504.46,-2830.47 2501.4,-2829.17 2498.42,-2827.79 2495.51,-2826.36 2492.7,-2824.87 2489.99,-2823.32 2487.39,-2821.72 2484.91,-2820.08 2482.56,-2818.39 2480.36,-2816.67 2478.31,-2814.91 2476.44,-2813.13 2474.73,-2811.33 2473.22,-2809.5 2471.91,-2807.67 2470.81,-2805.83 2469.93,-2803.98 2469.29,-2802.14 2468.88,-2800.3 2468.72,-2798.48 2468.82,-2796.67 2469.17,-2794.89 2469.8,-2793.14 2470.7,-2791.41 2471.87,-2789.73 2473.31,-2788.08 2475.03,-2786.49 2477.03,-2784.94 2479.3,-2783.45 2481.84,-2782.01 2484.64,-2780.64 2487.7,-2779.34 2491,-2778.1 2494.54,-2776.94 2498.31,-2775.85 2502.29,-2774.85 2506.48,-2773.93 2510.85,-2773.09 2515.38,-2772.34 2520.07,-2771.68 2524.89,-2771.11 2529.83,-2770.63 2534.86,-2770.25 2539.96,-2769.96 2545.12,-2769.76 2550.31,-2769.67 2555.51,-2769.67 2560.7,-2769.76"/>
<text text-anchor="start" x="2523.74" y="-2814.7" font-family="Times,serif" font-size="14.00">C2827421</text>
<text text-anchor="start" x="2504.91" y="-2800.7" font-family="Times,serif" font-size="14.00">general construct</text>
<text text-anchor="start" x="2529.97" y="-2786.7" font-family="Times,serif" font-size="14.00">138:139</text>
</g>
<!-- id_27469396_DOT_9&#45;&#45;id_27469396_DOT_16 -->
<g id="edge19" class="edge">
<title>id_27469396_DOT_9&#45;&#45;id_27469396_DOT_16</title>
<path fill="none" stroke="black" stroke-dasharray="1,5" d="M2273.37,-2586.58C2332,-2632.37 2449.38,-2724.04 2511.75,-2772.75"/>
<text text-anchor="middle" x="2366.31" y="-2682.47" font-family="Times,serif" font-size="14.00">0.772526</text>
</g>
<!-- id_27469396_DOT_10 -->
<g id="node10" class="node">
<title>id_27469396_DOT_10</title>
<polygon fill="cadetblue" stroke="cadetblue" points="2955.81,-2718.12 2959.23,-2718.31 2962.63,-2718.6 2965.97,-2718.98 2969.25,-2719.46 2972.46,-2720.03 2975.57,-2720.69 2978.59,-2721.44 2981.49,-2722.28 2984.27,-2723.2 2986.92,-2724.21 2989.42,-2725.29 2991.78,-2726.45 2993.97,-2727.69 2996,-2728.99 2997.86,-2730.37 2999.55,-2731.8 3001.06,-2733.29 3002.39,-2734.84 3003.53,-2736.44 3004.49,-2738.08 3005.27,-2739.77 3005.87,-2741.49 3006.28,-2743.25 3006.52,-2745.03 3006.58,-2746.83 3006.48,-2748.66 3006.21,-2750.49 3005.78,-2752.33 3005.19,-2754.18 3004.46,-2756.02 3003.59,-2757.86 3002.59,-2759.68 3001.46,-2761.49 3000.21,-2763.27 2998.85,-2765.02 2997.38,-2766.75 2995.82,-2768.43 2994.18,-2770.08 2992.45,-2771.67 2990.65,-2773.22 2988.78,-2774.71 2986.85,-2776.15 2984.86,-2777.52 2982.83,-2778.82 2980.76,-2780.06 2978.65,-2781.22 2976.5,-2782.31 2974.33,-2783.31 2972.14,-2784.23 2969.92,-2785.07 2967.68,-2785.82 2965.44,-2786.48 2963.18,-2787.05 2960.91,-2787.53 2958.63,-2787.91 2956.35,-2788.2 2954.06,-2788.4 2951.77,-2788.49 2949.48,-2788.49 2947.19,-2788.4 2944.91,-2788.2 2942.63,-2787.91 2940.35,-2787.53 2938.08,-2787.05 2935.82,-2786.48 2933.57,-2785.82 2931.34,-2785.07 2929.12,-2784.23 2926.92,-2783.31 2924.75,-2782.31 2922.61,-2781.22 2920.5,-2780.06 2918.42,-2778.82 2916.39,-2777.52 2914.41,-2776.15 2912.48,-2774.71 2910.61,-2773.22 2908.81,-2771.67 2907.08,-2770.08 2905.43,-2768.43 2903.87,-2766.75 2902.41,-2765.02 2901.05,-2763.27 2899.8,-2761.49 2898.67,-2759.68 2897.66,-2757.86 2896.79,-2756.02 2896.06,-2754.18 2895.48,-2752.33 2895.05,-2750.49 2894.78,-2748.66 2894.67,-2746.83 2894.73,-2745.03 2894.97,-2743.25 2895.39,-2741.49 2895.98,-2739.77 2896.76,-2738.08 2897.72,-2736.44 2898.87,-2734.84 2900.2,-2733.29 2901.7,-2731.8 2903.39,-2730.37 2905.25,-2728.99 2907.28,-2727.69 2909.48,-2726.45 2911.83,-2725.29 2914.34,-2724.21 2916.99,-2723.2 2919.77,-2722.28 2922.67,-2721.44 2925.68,-2720.69 2928.8,-2720.03 2932,-2719.46 2935.28,-2718.98 2938.63,-2718.6 2942.02,-2718.31 2945.45,-2718.12 2948.9,-2718.02 2952.36,-2718.02 2955.81,-2718.12"/>
<text text-anchor="start" x="2921.46" y="-2763.06" font-family="Times,serif" font-size="14.00">C1457887</text>
<text text-anchor="start" x="2921.84" y="-2749.06" font-family="Times,serif" font-size="14.00">symptoms</text>
<text text-anchor="start" x="2934.68" y="-2735.06" font-family="Times,serif" font-size="14.00">84:84</text>
</g>
<!-- id_27469396_DOT_10&#45;&#45;id_27469396_DOT_16 -->
<g id="edge20" class="edge">
<title>id_27469396_DOT_10&#45;&#45;id_27469396_DOT_16</title>
<path fill="none" stroke="black" stroke-dasharray="1,5" d="M2898.63,-2760.01C2831.99,-2768.66 2715.63,-2783.77 2636.49,-2794.05"/>
<text text-anchor="middle" x="2741.31" y="-2779.83" font-family="Times,serif" font-size="14.00">0.751580</text>
</g>
<!-- id_27469396_DOT_20 -->
<g id="node20" class="node">
<title>id_27469396_DOT_20</title>
<polygon fill="cadetblue" stroke="cadetblue" points="3330.64,-2760.9 3334.07,-2761.09 3337.46,-2761.38 3340.8,-2761.76 3344.08,-2762.24 3347.29,-2762.81 3350.4,-2763.47 3353.42,-2764.22 3356.32,-2765.06 3359.1,-2765.98 3361.75,-2766.99 3364.25,-2768.07 3366.61,-2769.23 3368.8,-2770.47 3370.84,-2771.77 3372.7,-2773.14 3374.38,-2774.58 3375.89,-2776.07 3377.22,-2777.62 3378.36,-2779.22 3379.32,-2780.86 3380.1,-2782.55 3380.7,-2784.27 3381.11,-2786.02 3381.35,-2787.81 3381.42,-2789.61 3381.31,-2791.43 3381.04,-2793.27 3380.61,-2795.11 3380.03,-2796.96 3379.29,-2798.8 3378.42,-2800.64 3377.42,-2802.46 3376.29,-2804.26 3375.04,-2806.05 3373.68,-2807.8 3372.22,-2809.52 3370.66,-2811.21 3369.01,-2812.85 3367.28,-2814.45 3365.48,-2816 3363.61,-2817.49 3361.68,-2818.93 3359.7,-2820.3 3357.66,-2821.6 3355.59,-2822.84 3353.48,-2824 3351.34,-2825.08 3349.16,-2826.09 3346.97,-2827.01 3344.75,-2827.85 3342.52,-2828.6 3340.27,-2829.26 3338.01,-2829.83 3335.74,-2830.31 3333.46,-2830.69 3331.18,-2830.98 3328.89,-2831.17 3326.6,-2831.27 3324.31,-2831.27 3322.03,-2831.17 3319.74,-2830.98 3317.46,-2830.69 3315.18,-2830.31 3312.91,-2829.83 3310.65,-2829.26 3308.4,-2828.6 3306.17,-2827.85 3303.95,-2827.01 3301.76,-2826.09 3299.58,-2825.08 3297.44,-2824 3295.33,-2822.84 3293.25,-2821.6 3291.22,-2820.3 3289.24,-2818.93 3287.31,-2817.49 3285.44,-2816 3283.64,-2814.45 3281.91,-2812.85 3280.26,-2811.21 3278.7,-2809.52 3277.24,-2807.8 3275.88,-2806.05 3274.63,-2804.26 3273.5,-2802.46 3272.5,-2800.64 3271.62,-2798.8 3270.89,-2796.96 3270.31,-2795.11 3269.88,-2793.27 3269.61,-2791.43 3269.5,-2789.61 3269.57,-2787.81 3269.81,-2786.02 3270.22,-2784.27 3270.82,-2782.55 3271.59,-2780.86 3272.56,-2779.22 3273.7,-2777.62 3275.03,-2776.07 3276.54,-2774.58 3278.22,-2773.14 3280.08,-2771.77 3282.12,-2770.47 3284.31,-2769.23 3286.67,-2768.07 3289.17,-2766.99 3291.82,-2765.98 3294.6,-2765.06 3297.5,-2764.22 3300.52,-2763.47 3303.63,-2762.81 3306.84,-2762.24 3310.12,-2761.76 3313.46,-2761.38 3316.85,-2761.09 3320.28,-2760.9 3323.73,-2760.8 3327.19,-2760.8 3330.64,-2760.9"/>
<text text-anchor="start" x="3296.29" y="-2805.84" font-family="Times,serif" font-size="14.00">C1457887</text>
<text text-anchor="start" x="3296.68" y="-2791.84" font-family="Times,serif" font-size="14.00">symptoms</text>
<text text-anchor="start" x="3302.51" y="-2777.84" font-family="Times,serif" font-size="14.00">184:184</text>
</g>
<!-- id_27469396_DOT_10&#45;&#45;id_27469396_DOT_20 -->
<g id="edge5" class="edge">
<title>id_27469396_DOT_10&#45;&#45;id_27469396_DOT_20</title>
<path fill="none" stroke="black" d="M3003.14,-2759.25C3073.36,-2767.26 3197.32,-2781.41 3269.33,-2789.63"/>
<text text-anchor="middle" x="3109.98" y="-2777.24" font-family="Times,serif" font-size="14.00">0.007475</text>
</g>
<!-- id_27469396_DOT_11 -->
<g id="node11" class="node">
<title>id_27469396_DOT_11</title>
<polygon fill="chartreuse" stroke="chartreuse" points="61.16,-2104.55 64.58,-2104.74 67.98,-2105.03 71.32,-2105.41 74.6,-2105.89 77.81,-2106.46 80.92,-2107.12 83.94,-2107.87 86.84,-2108.71 89.62,-2109.63 92.27,-2110.64 94.77,-2111.72 97.13,-2112.88 99.32,-2114.12 101.35,-2115.42 103.22,-2116.79 104.9,-2118.23 106.41,-2119.72 107.74,-2121.27 108.88,-2122.87 109.84,-2124.51 110.62,-2126.2 111.22,-2127.92 111.63,-2129.67 111.87,-2131.46 111.93,-2133.26 111.83,-2135.08 111.56,-2136.92 111.13,-2138.76 110.54,-2140.61 109.81,-2142.45 108.94,-2144.29 107.94,-2146.11 106.81,-2147.91 105.56,-2149.7 104.2,-2151.45 102.73,-2153.17 101.18,-2154.86 99.53,-2156.5 97.8,-2158.1 96,-2159.65 94.13,-2161.14 92.2,-2162.58 90.22,-2163.95 88.18,-2165.25 86.11,-2166.49 84,-2167.65 81.85,-2168.73 79.68,-2169.74 77.49,-2170.66 75.27,-2171.5 73.04,-2172.25 70.79,-2172.91 68.53,-2173.48 66.26,-2173.96 63.98,-2174.34 61.7,-2174.63 59.41,-2174.82 57.12,-2174.92 54.83,-2174.92 52.55,-2174.82 50.26,-2174.63 47.98,-2174.34 45.7,-2173.96 43.43,-2173.48 41.17,-2172.91 38.92,-2172.25 36.69,-2171.5 34.47,-2170.66 32.27,-2169.74 30.1,-2168.73 27.96,-2167.65 25.85,-2166.49 23.77,-2165.25 21.74,-2163.95 19.76,-2162.58 17.83,-2161.14 15.96,-2159.65 14.16,-2158.1 12.43,-2156.5 10.78,-2154.86 9.22,-2153.17 7.76,-2151.45 6.4,-2149.7 5.15,-2147.91 4.02,-2146.11 3.01,-2144.29 2.14,-2142.45 1.41,-2140.61 0.83,-2138.76 0.4,-2136.92 0.13,-2135.08 0.02,-2133.26 0.09,-2131.46 0.32,-2129.67 0.74,-2127.92 1.34,-2126.2 2.11,-2124.51 3.07,-2122.87 4.22,-2121.27 5.55,-2119.72 7.05,-2118.23 8.74,-2116.79 10.6,-2115.42 12.63,-2114.12 14.83,-2112.88 17.18,-2111.72 19.69,-2110.64 22.34,-2109.63 25.12,-2108.71 28.02,-2107.87 31.03,-2107.12 34.15,-2106.46 37.35,-2105.89 40.64,-2105.41 43.98,-2105.03 47.37,-2104.74 50.8,-2104.55 54.25,-2104.45 57.71,-2104.45 61.16,-2104.55"/>
<text text-anchor="start" x="26.81" y="-2149.48" font-family="Times,serif" font-size="14.00">C1263846</text>
<text text-anchor="start" x="35.76" y="-2135.48" font-family="Times,serif" font-size="14.00">ADHD</text>
<text text-anchor="start" x="40.03" y="-2121.48" font-family="Times,serif" font-size="14.00">86:86</text>
</g>
<!-- id_27469396_DOT_11&#45;&#45;id_27469396_DOT_18 -->
<g id="edge6" class="edge">
<title>id_27469396_DOT_11&#45;&#45;id_27469396_DOT_18</title>
<path fill="none" stroke="black" d="M111.83,-2129.94C187.72,-2116.71 322.31,-2093.23 395.31,-2080.5"/>
<text text-anchor="middle" x="227.32" y="-2108.02" font-family="Times,serif" font-size="14.00">0.002765</text>
</g>
<!-- id_27469396_DOT_12 -->
<g id="node12" class="node">
<title>id_27469396_DOT_12</title>
<polygon fill="coral" stroke="coral" points="556.69,-2807.1 564.83,-2807.29 572.88,-2807.58 580.82,-2807.96 588.61,-2808.44 596.22,-2809.01 603.62,-2809.67 610.78,-2810.42 617.67,-2811.26 624.28,-2812.18 630.56,-2813.19 636.51,-2814.27 642.1,-2815.43 647.31,-2816.67 652.14,-2817.97 656.56,-2819.35 660.56,-2820.78 664.14,-2822.27 667.29,-2823.82 670.01,-2825.42 672.29,-2827.06 674.14,-2828.75 675.56,-2830.47 676.54,-2832.23 677.11,-2834.01 677.26,-2835.81 677.01,-2837.64 676.37,-2839.47 675.34,-2841.31 673.96,-2843.16 672.22,-2845 670.15,-2846.84 667.77,-2848.66 665.08,-2850.47 662.12,-2852.25 658.89,-2854 655.41,-2855.73 651.71,-2857.41 647.8,-2859.06 643.7,-2860.65 639.42,-2862.2 634.98,-2863.69 630.4,-2865.13 625.69,-2866.5 620.86,-2867.81 615.94,-2869.04 610.93,-2870.2 605.83,-2871.29 600.68,-2872.29 595.46,-2873.21 590.2,-2874.05 584.89,-2874.8 579.56,-2875.46 574.19,-2876.03 568.8,-2876.51 563.39,-2876.89 557.97,-2877.18 552.55,-2877.38 547.11,-2877.47 541.68,-2877.47 536.24,-2877.38 530.81,-2877.18 525.39,-2876.89 519.99,-2876.51 514.6,-2876.03 509.23,-2875.46 503.89,-2874.8 498.59,-2874.05 493.32,-2873.21 488.11,-2872.29 482.95,-2871.29 477.86,-2870.2 472.85,-2869.04 467.92,-2867.81 463.1,-2866.5 458.39,-2865.13 453.81,-2863.69 449.37,-2862.2 445.09,-2860.65 440.99,-2859.06 437.08,-2857.41 433.37,-2855.73 429.9,-2854 426.67,-2852.25 423.7,-2850.47 421.02,-2848.66 418.63,-2846.84 416.56,-2845 414.83,-2843.16 413.44,-2841.31 412.42,-2839.47 411.78,-2837.64 411.53,-2835.81 411.68,-2834.01 412.24,-2832.23 413.23,-2830.47 414.65,-2828.75 416.49,-2827.06 418.78,-2825.42 421.49,-2823.82 424.65,-2822.27 428.23,-2820.78 432.23,-2819.35 436.65,-2817.97 441.48,-2816.67 446.69,-2815.43 452.28,-2814.27 458.23,-2813.19 464.51,-2812.18 471.11,-2811.26 478.01,-2810.42 485.17,-2809.67 492.56,-2809.01 500.17,-2808.44 507.96,-2807.96 515.9,-2807.58 523.96,-2807.29 532.1,-2807.1 540.29,-2807 548.5,-2807 556.69,-2807.1"/>
<text text-anchor="start" x="515.22" y="-2852.04" font-family="Times,serif" font-size="14.00">C0029121</text>
<text text-anchor="start" x="464.29" y="-2838.04" font-family="Times,serif" font-size="14.00">oppositional defiant disorder</text>
<text text-anchor="start" x="528.45" y="-2824.04" font-family="Times,serif" font-size="14.00">88:90</text>
</g>
<!-- id_27469396_DOT_12&#45;&#45;id_27469396_DOT_19 -->
<g id="edge7" class="edge">
<title>id_27469396_DOT_12&#45;&#45;id_27469396_DOT_19</title>
<path fill="none" stroke="black" d="M566.1,-2807.25C606.13,-2742.73 691.12,-2605.76 731.11,-2541.3"/>
<text text-anchor="middle" x="622.36" y="-2677.07" font-family="Times,serif" font-size="14.00">0.105634</text>
</g>
<!-- id_27469396_DOT_15 -->
<g id="node15" class="node">
<title>id_27469396_DOT_15</title>
<polygon fill="cornflowerblue" stroke="cornflowerblue" points="1360.01,-1071.1 1363.44,-1071.3 1366.84,-1071.58 1370.18,-1071.97 1373.46,-1072.45 1376.66,-1073.02 1379.78,-1073.68 1382.8,-1074.43 1385.7,-1075.27 1388.48,-1076.19 1391.13,-1077.19 1393.63,-1078.28 1395.98,-1079.44 1398.18,-1080.67 1400.21,-1081.98 1402.07,-1083.35 1403.76,-1084.78 1405.27,-1086.28 1406.6,-1087.83 1407.74,-1089.42 1408.7,-1091.07 1409.48,-1092.75 1410.08,-1094.48 1410.49,-1096.23 1410.73,-1098.01 1410.79,-1099.82 1410.69,-1101.64 1410.42,-1103.48 1409.99,-1105.32 1409.4,-1107.16 1408.67,-1109.01 1407.8,-1110.84 1406.8,-1112.67 1405.67,-1114.47 1404.42,-1116.25 1403.06,-1118.01 1401.59,-1119.73 1400.03,-1121.42 1398.39,-1123.06 1396.66,-1124.66 1394.86,-1126.21 1392.99,-1127.7 1391.06,-1129.13 1389.07,-1130.5 1387.04,-1131.81 1384.97,-1133.04 1382.86,-1134.21 1380.71,-1135.29 1378.54,-1136.3 1376.34,-1137.22 1374.13,-1138.06 1371.89,-1138.81 1369.65,-1139.47 1367.39,-1140.04 1365.12,-1140.52 1362.84,-1140.9 1360.56,-1141.19 1358.27,-1141.38 1355.98,-1141.48 1353.69,-1141.48 1351.4,-1141.38 1349.12,-1141.19 1346.83,-1140.9 1344.56,-1140.52 1342.29,-1140.04 1340.03,-1139.47 1337.78,-1138.81 1335.55,-1138.06 1333.33,-1137.22 1331.13,-1136.3 1328.96,-1135.29 1326.82,-1134.21 1324.71,-1133.04 1322.63,-1131.81 1320.6,-1130.5 1318.62,-1129.13 1316.69,-1127.7 1314.82,-1126.21 1313.02,-1124.66 1311.29,-1123.06 1309.64,-1121.42 1308.08,-1119.73 1306.62,-1118.01 1305.26,-1116.25 1304.01,-1114.47 1302.88,-1112.67 1301.87,-1110.84 1301,-1109.01 1300.27,-1107.16 1299.69,-1105.32 1299.26,-1103.48 1298.99,-1101.64 1298.88,-1099.82 1298.94,-1098.01 1299.18,-1096.23 1299.6,-1094.48 1300.19,-1092.75 1300.97,-1091.07 1301.93,-1089.42 1303.08,-1087.83 1304.4,-1086.28 1305.91,-1084.78 1307.6,-1083.35 1309.46,-1081.98 1311.49,-1080.67 1313.69,-1079.44 1316.04,-1078.28 1318.55,-1077.19 1321.19,-1076.19 1323.97,-1075.27 1326.88,-1074.43 1329.89,-1073.68 1333.01,-1073.02 1336.21,-1072.45 1339.49,-1071.97 1342.84,-1071.58 1346.23,-1071.3 1349.66,-1071.1 1353.11,-1071.01 1356.57,-1071.01 1360.01,-1071.1"/>
<text text-anchor="start" x="1325.67" y="-1116.04" font-family="Times,serif" font-size="14.00">C3161035</text>
<text text-anchor="start" x="1336.56" y="-1102.04" font-family="Times,serif" font-size="14.00">Model</text>
<text text-anchor="start" x="1331.89" y="-1088.04" font-family="Times,serif" font-size="14.00">129:129</text>
</g>
<!-- id_27469396_DOT_13&#45;&#45;id_27469396_DOT_15 -->
<g id="edge8" class="edge">
<title>id_27469396_DOT_13&#45;&#45;id_27469396_DOT_15</title>
<path fill="none" stroke="black" d="M1269.64,-1390.82C1288.09,-1329.18 1326.08,-1202.28 1344.45,-1140.94"/>
<text text-anchor="middle" x="1280.79" y="-1268.68" font-family="Times,serif" font-size="14.00">0.216202</text>
</g>
<!-- id_27469396_DOT_14 -->
<g id="node14" class="node">
<title>id_27469396_DOT_14</title>
<polygon fill="crimson" stroke="crimson" points="2542.57,-3176.73 2547.73,-3176.92 2552.84,-3177.21 2557.87,-3177.6 2562.8,-3178.07 2567.62,-3178.64 2572.31,-3179.3 2576.85,-3180.06 2581.22,-3180.89 2585.4,-3181.82 2589.38,-3182.82 2593.15,-3183.91 2596.69,-3185.07 2600,-3186.3 2603.05,-3187.61 2605.85,-3188.98 2608.39,-3190.41 2610.66,-3191.9 2612.66,-3193.45 2614.38,-3195.05 2615.83,-3196.69 2617,-3198.38 2617.89,-3200.1 2618.52,-3201.86 2618.88,-3203.64 2618.97,-3205.45 2618.82,-3207.27 2618.41,-3209.1 2617.76,-3210.95 2616.88,-3212.79 2615.78,-3214.63 2614.47,-3216.47 2612.96,-3218.29 2611.26,-3220.1 2609.38,-3221.88 2607.33,-3223.63 2605.13,-3225.36 2602.79,-3227.04 2600.31,-3228.69 2597.71,-3230.29 2594.99,-3231.83 2592.18,-3233.33 2589.28,-3234.76 2586.29,-3236.13 2583.24,-3237.44 2580.12,-3238.67 2576.94,-3239.83 2573.71,-3240.92 2570.45,-3241.92 2567.14,-3242.85 2563.81,-3243.68 2560.45,-3244.43 2557.06,-3245.09 2553.66,-3245.66 2550.25,-3246.14 2546.82,-3246.53 2543.39,-3246.81 2539.95,-3247.01 2536.5,-3247.1 2533.06,-3247.1 2529.62,-3247.01 2526.18,-3246.81 2522.74,-3246.53 2519.31,-3246.14 2515.9,-3245.66 2512.5,-3245.09 2509.12,-3244.43 2505.76,-3243.68 2502.42,-3242.85 2499.12,-3241.92 2495.85,-3240.92 2492.62,-3239.83 2489.44,-3238.67 2486.32,-3237.44 2483.27,-3236.13 2480.28,-3234.76 2477.38,-3233.33 2474.57,-3231.83 2471.86,-3230.29 2469.26,-3228.69 2466.78,-3227.04 2464.43,-3225.36 2462.23,-3223.63 2460.18,-3221.88 2458.3,-3220.1 2456.6,-3218.29 2455.09,-3216.47 2453.78,-3214.63 2452.68,-3212.79 2451.8,-3210.95 2451.15,-3209.1 2450.75,-3207.27 2450.59,-3205.45 2450.68,-3203.64 2451.04,-3201.86 2451.67,-3200.1 2452.56,-3198.38 2453.73,-3196.69 2455.18,-3195.05 2456.9,-3193.45 2458.9,-3191.9 2461.17,-3190.41 2463.71,-3188.98 2466.51,-3187.61 2469.56,-3186.3 2472.87,-3185.07 2476.41,-3183.91 2480.18,-3182.82 2484.16,-3181.82 2488.34,-3180.89 2492.71,-3180.06 2497.25,-3179.3 2501.94,-3178.64 2506.76,-3178.07 2511.7,-3177.6 2516.73,-3177.21 2521.83,-3176.92 2526.99,-3176.73 2532.18,-3176.63 2537.38,-3176.63 2542.57,-3176.73"/>
<text text-anchor="start" x="2505.61" y="-3221.67" font-family="Times,serif" font-size="14.00">C2827421</text>
<text text-anchor="start" x="2486.78" y="-3207.67" font-family="Times,serif" font-size="14.00">general construct</text>
<text text-anchor="start" x="2512.09" y="-3193.67" font-family="Times,serif" font-size="14.00">109:110</text>
</g>
<!-- id_27469396_DOT_14&#45;&#45;id_27469396_DOT_16 -->
<g id="edge9" class="edge">
<title>id_27469396_DOT_14&#45;&#45;id_27469396_DOT_16</title>
<path fill="none" stroke="black" d="M2536.36,-3176.47C2539.79,-3099.4 2547.91,-2917.21 2551.34,-2840.22"/>
<text text-anchor="middle" x="2517.6" y="-3011.14" font-family="Times,serif" font-size="14.00">0.025774</text>
</g>
<!-- id_27469396_DOT_17 -->
<g id="node17" class="node">
<title>id_27469396_DOT_17</title>
<polygon fill="blue" stroke="blue" points="563.76,-0.23 581.48,-0.42 599.01,-0.71 616.29,-1.09 633.25,-1.57 649.81,-2.14 665.91,-2.8 681.49,-3.55 696.5,-4.39 710.86,-5.31 724.54,-6.32 737.49,-7.4 749.65,-8.57 761,-9.8 771.5,-11.1 781.12,-12.48 789.84,-13.91 797.63,-15.4 804.49,-16.95 810.41,-18.55 815.38,-20.19 819.4,-21.88 822.48,-23.6 824.62,-25.36 825.85,-27.14 826.18,-28.94 825.64,-30.77 824.24,-32.6 822.02,-34.44 819,-36.29 815.22,-38.13 810.72,-39.97 805.53,-41.79 799.68,-43.6 793.23,-45.38 786.2,-47.13 778.64,-48.86 770.58,-50.54 762.06,-52.19 753.13,-53.78 743.82,-55.33 734.16,-56.82 724.19,-58.26 713.94,-59.63 703.44,-60.94 692.72,-62.17 681.81,-63.33 670.73,-64.42 659.5,-65.42 648.15,-66.34 636.7,-67.18 625.15,-67.93 613.53,-68.59 601.85,-69.16 590.12,-69.64 578.36,-70.02 566.56,-70.31 554.74,-70.51 542.92,-70.6 531.09,-70.6 519.26,-70.51 507.44,-70.31 495.65,-70.02 483.88,-69.64 472.15,-69.16 460.47,-68.59 448.85,-67.93 437.31,-67.18 425.85,-66.34 414.5,-65.42 403.28,-64.42 392.2,-63.33 381.28,-62.17 370.57,-60.94 360.07,-59.63 349.82,-58.26 339.85,-56.82 330.19,-55.33 320.87,-53.78 311.94,-52.19 303.43,-50.54 295.37,-48.86 287.81,-47.13 280.78,-45.38 274.32,-43.6 268.48,-41.79 263.29,-39.97 258.78,-38.13 255.01,-36.29 251.99,-34.44 249.77,-32.6 248.37,-30.77 247.82,-28.94 248.15,-27.14 249.38,-25.36 251.53,-23.6 254.61,-21.88 258.63,-20.19 263.6,-18.55 269.51,-16.95 276.37,-15.4 284.17,-13.91 292.88,-12.48 302.5,-11.1 313,-9.8 324.35,-8.57 336.52,-7.4 349.46,-6.32 363.14,-5.31 377.51,-4.39 392.51,-3.55 408.09,-2.8 424.2,-2.14 440.76,-1.57 457.71,-1.09 474.99,-0.71 492.53,-0.42 510.24,-0.23 528.07,-0.13 545.93,-0.13 563.76,-0.23"/>
<text text-anchor="start" x="507.83" y="-45.17" font-family="Times,serif" font-size="14.00">C0282574</text>
<text text-anchor="start" x="352.88" y="-31.17" font-family="Times,serif" font-size="14.00">Weiss Functional Impairment Rating Scale &#45; Parent Report Scales</text>
<text text-anchor="start" x="514.06" y="-17.17" font-family="Times,serif" font-size="14.00">169:177</text>
</g>
<!-- id_27469396_DOT_17&#45;&#45;id_27469396_DOT_21 -->
<g id="edge10" class="edge">
<title>id_27469396_DOT_17&#45;&#45;id_27469396_DOT_21</title>
<path fill="none" stroke="black" d="M547.28,-70.88C567.06,-139.27 610.24,-288.51 629.99,-356.79"/>
<text text-anchor="middle" x="562.38" y="-216.64" font-family="Times,serif" font-size="14.00">0.007206</text>
</g>
</g>
</svg>
