<?xml version="1.0" encoding="UTF-8" standalone="no"?>
<!DOCTYPE svg PUBLIC "-//W3C//DTD SVG 1.1//EN"
 "http://www.w3.org/Graphics/SVG/1.1/DTD/svg11.dtd">
<!-- Generated by graphviz version 2.42.3 (20191010.1750)
 -->
<!-- Title: MST Pages: 1 -->
<svg width="3987pt" height="3586pt"
 viewBox="0.00 0.00 3986.95 3586.36" xmlns="http://www.w3.org/2000/svg" xmlns:xlink="http://www.w3.org/1999/xlink">
<g id="graph0" class="graph" transform="scale(1 1) rotate(0) translate(4 3582.36)">
<title>MST</title>
<polygon fill="white" stroke="transparent" points="-4,4 -4,-3582.36 3982.95,-3582.36 3982.95,4 -4,4"/>
<!-- id_27473877_DOT_1 -->
<g id="node1" class="node">
<title>id_27473877_DOT_1</title>
<polygon fill="aquamarine" stroke="aquamarine" points="875.35,-2718.84 879.87,-2719.03 884.33,-2719.32 888.74,-2719.7 893.06,-2720.18 897.28,-2720.75 901.38,-2721.41 905.35,-2722.16 909.17,-2723 912.83,-2723.92 916.31,-2724.93 919.61,-2726.01 922.71,-2727.17 925.6,-2728.41 928.28,-2729.71 930.73,-2731.09 932.95,-2732.52 934.93,-2734.01 936.68,-2735.56 938.19,-2737.16 939.45,-2738.8 940.48,-2740.49 941.26,-2742.21 941.81,-2743.97 942.12,-2745.75 942.21,-2747.55 942.07,-2749.38 941.71,-2751.21 941.15,-2753.05 940.38,-2754.9 939.41,-2756.74 938.27,-2758.58 936.95,-2760.4 935.46,-2762.21 933.81,-2763.99 932.02,-2765.74 930.09,-2767.47 928.04,-2769.15 925.87,-2770.8 923.6,-2772.39 921.22,-2773.94 918.76,-2775.43 916.22,-2776.87 913.61,-2778.24 910.94,-2779.54 908.21,-2780.78 905.43,-2781.94 902.6,-2783.03 899.74,-2784.03 896.85,-2784.95 893.93,-2785.79 890.99,-2786.54 888.03,-2787.2 885.06,-2787.77 882.07,-2788.25 879.07,-2788.63 876.07,-2788.92 873.06,-2789.12 870.04,-2789.21 867.03,-2789.21 864.02,-2789.12 861.01,-2788.92 858,-2788.63 855,-2788.25 852.02,-2787.77 849.04,-2787.2 846.08,-2786.54 843.14,-2785.79 840.22,-2784.95 837.33,-2784.03 834.47,-2783.03 831.65,-2781.94 828.87,-2780.78 826.14,-2779.54 823.46,-2778.24 820.85,-2776.87 818.31,-2775.43 815.85,-2773.94 813.48,-2772.39 811.2,-2770.8 809.03,-2769.15 806.98,-2767.47 805.05,-2765.74 803.26,-2763.99 801.62,-2762.21 800.13,-2760.4 798.81,-2758.58 797.66,-2756.74 796.7,-2754.9 795.93,-2753.05 795.36,-2751.21 795,-2749.38 794.87,-2747.55 794.95,-2745.75 795.26,-2743.97 795.81,-2742.21 796.59,-2740.49 797.62,-2738.8 798.88,-2737.16 800.39,-2735.56 802.14,-2734.01 804.13,-2732.52 806.35,-2731.09 808.8,-2729.71 811.47,-2728.41 814.36,-2727.17 817.46,-2726.01 820.76,-2724.93 824.24,-2723.92 827.9,-2723 831.73,-2722.16 835.7,-2721.41 839.8,-2720.75 844.02,-2720.18 848.34,-2719.7 852.74,-2719.32 857.21,-2719.03 861.72,-2718.84 866.26,-2718.74 870.81,-2718.74 875.35,-2718.84"/>
<text text-anchor="start" x="839.37" y="-2763.78" font-family="Times,serif" font-size="14.00">C0028688</text>
<text text-anchor="start" x="827.51" y="-2749.78" font-family="Times,serif" font-size="14.00">nursing homes</text>
<text text-anchor="start" x="859.59" y="-2735.78" font-family="Times,serif" font-size="14.00">3:4</text>
</g>
<!-- id_27473877_DOT_4 -->
<g id="node4" class="node">
<title>id_27473877_DOT_4</title>
<polygon fill="aquamarine" stroke="aquamarine" points="463.9,-2671.18 468.41,-2671.37 472.88,-2671.66 477.28,-2672.04 481.6,-2672.52 485.82,-2673.09 489.92,-2673.75 493.89,-2674.5 497.72,-2675.34 501.38,-2676.26 504.86,-2677.27 508.16,-2678.35 511.26,-2679.51 514.15,-2680.75 516.82,-2682.05 519.27,-2683.42 521.5,-2684.86 523.48,-2686.35 525.23,-2687.9 526.74,-2689.5 528,-2691.14 529.03,-2692.83 529.81,-2694.55 530.36,-2696.3 530.67,-2698.09 530.75,-2699.89 530.62,-2701.71 530.26,-2703.55 529.69,-2705.39 528.92,-2707.24 527.96,-2709.08 526.81,-2710.91 525.49,-2712.74 524,-2714.54 522.36,-2716.32 520.57,-2718.08 518.64,-2719.8 516.59,-2721.49 514.42,-2723.13 512.14,-2724.73 509.77,-2726.28 507.31,-2727.77 504.77,-2729.21 502.16,-2730.58 499.48,-2731.88 496.75,-2733.12 493.97,-2734.28 491.15,-2735.36 488.29,-2736.37 485.4,-2737.29 482.48,-2738.13 479.54,-2738.88 476.58,-2739.54 473.6,-2740.11 470.62,-2740.59 467.62,-2740.97 464.61,-2741.26 461.6,-2741.45 458.59,-2741.55 455.58,-2741.55 452.56,-2741.45 449.55,-2741.26 446.55,-2740.97 443.55,-2740.59 440.56,-2740.11 437.59,-2739.54 434.63,-2738.88 431.69,-2738.13 428.77,-2737.29 425.88,-2736.37 423.02,-2735.36 420.19,-2734.28 417.41,-2733.12 414.68,-2731.88 412.01,-2730.58 409.4,-2729.21 406.86,-2727.77 404.4,-2726.28 402.02,-2724.73 399.75,-2723.13 397.58,-2721.49 395.53,-2719.8 393.6,-2718.08 391.81,-2716.32 390.16,-2714.54 388.68,-2712.74 387.35,-2710.91 386.21,-2709.08 385.24,-2707.24 384.47,-2705.39 383.91,-2703.55 383.55,-2701.71 383.41,-2699.89 383.5,-2698.09 383.81,-2696.3 384.36,-2694.55 385.14,-2692.83 386.17,-2691.14 387.43,-2689.5 388.94,-2687.9 390.69,-2686.35 392.67,-2684.86 394.89,-2683.42 397.34,-2682.05 400.02,-2680.75 402.91,-2679.51 406.01,-2678.35 409.31,-2677.27 412.79,-2676.26 416.45,-2675.34 420.27,-2674.5 424.24,-2673.75 428.35,-2673.09 432.56,-2672.52 436.88,-2672.04 441.29,-2671.66 445.75,-2671.37 450.27,-2671.18 454.81,-2671.08 459.36,-2671.08 463.9,-2671.18"/>
<text text-anchor="start" x="427.91" y="-2716.11" font-family="Times,serif" font-size="14.00">C0028688</text>
<text text-anchor="start" x="416.06" y="-2702.11" font-family="Times,serif" font-size="14.00">nursing homes</text>
<text text-anchor="start" x="441.14" y="-2688.11" font-family="Times,serif" font-size="14.00">16:17</text>
</g>
<!-- id_27473877_DOT_1&#45;&#45;id_27473877_DOT_4 -->
<g id="edge1" class="edge">
<title>id_27473877_DOT_1&#45;&#45;id_27473877_DOT_4</title>
<path fill="none" stroke="black" d="M794.98,-2745.46C718.24,-2736.57 598.94,-2722.75 524.55,-2714.13"/>
<text text-anchor="middle" x="633.51" y="-2732.59" font-family="Times,serif" font-size="14.00">0.000476</text>
</g>
<!-- id_27473877_DOT_12 -->
<g id="node12" class="node">
<title>id_27473877_DOT_12</title>
<polygon fill="aquamarine" stroke="aquamarine" points="1185.98,-2450.94 1190.49,-2451.13 1194.96,-2451.42 1199.36,-2451.81 1203.68,-2452.28 1207.9,-2452.85 1212,-2453.52 1215.97,-2454.27 1219.8,-2455.1 1223.46,-2456.03 1226.94,-2457.03 1230.24,-2458.12 1233.34,-2459.28 1236.23,-2460.51 1238.9,-2461.82 1241.35,-2463.19 1243.58,-2464.62 1245.56,-2466.12 1247.31,-2467.66 1248.82,-2469.26 1250.08,-2470.91 1251.11,-2472.59 1251.89,-2474.31 1252.44,-2476.07 1252.75,-2477.85 1252.83,-2479.66 1252.7,-2481.48 1252.34,-2483.31 1251.77,-2485.16 1251,-2487 1250.04,-2488.85 1248.89,-2490.68 1247.57,-2492.5 1246.08,-2494.31 1244.44,-2496.09 1242.65,-2497.85 1240.72,-2499.57 1238.67,-2501.25 1236.5,-2502.9 1234.22,-2504.5 1231.85,-2506.04 1229.39,-2507.54 1226.85,-2508.97 1224.24,-2510.34 1221.56,-2511.65 1218.83,-2512.88 1216.05,-2514.04 1213.23,-2515.13 1210.37,-2516.13 1207.48,-2517.06 1204.56,-2517.89 1201.62,-2518.64 1198.66,-2519.31 1195.68,-2519.88 1192.7,-2520.35 1189.7,-2520.74 1186.69,-2521.03 1183.68,-2521.22 1180.67,-2521.31 1177.66,-2521.31 1174.64,-2521.22 1171.63,-2521.03 1168.63,-2520.74 1165.63,-2520.35 1162.64,-2519.88 1159.67,-2519.31 1156.71,-2518.64 1153.77,-2517.89 1150.85,-2517.06 1147.96,-2516.13 1145.1,-2515.13 1142.27,-2514.04 1139.49,-2512.88 1136.76,-2511.65 1134.09,-2510.34 1131.48,-2508.97 1128.94,-2507.54 1126.48,-2506.04 1124.1,-2504.5 1121.83,-2502.9 1119.66,-2501.25 1117.61,-2499.57 1115.68,-2497.85 1113.89,-2496.09 1112.24,-2494.31 1110.76,-2492.5 1109.43,-2490.68 1108.29,-2488.85 1107.32,-2487 1106.55,-2485.16 1105.99,-2483.31 1105.63,-2481.48 1105.49,-2479.66 1105.58,-2477.85 1105.89,-2476.07 1106.44,-2474.31 1107.22,-2472.59 1108.25,-2470.91 1109.51,-2469.26 1111.02,-2467.66 1112.77,-2466.12 1114.75,-2464.62 1116.97,-2463.19 1119.42,-2461.82 1122.1,-2460.51 1124.99,-2459.28 1128.09,-2458.12 1131.39,-2457.03 1134.87,-2456.03 1138.53,-2455.1 1142.35,-2454.27 1146.32,-2453.52 1150.43,-2452.85 1154.64,-2452.28 1158.96,-2451.81 1163.37,-2451.42 1167.83,-2451.13 1172.35,-2450.94 1176.89,-2450.84 1181.44,-2450.84 1185.98,-2450.94"/>
<text text-anchor="start" x="1149.99" y="-2495.88" font-family="Times,serif" font-size="14.00">C0028688</text>
<text text-anchor="start" x="1138.14" y="-2481.88" font-family="Times,serif" font-size="14.00">nursing homes</text>
<text text-anchor="start" x="1163.22" y="-2467.88" font-family="Times,serif" font-size="14.00">78:79</text>
</g>
<!-- id_27473877_DOT_1&#45;&#45;id_27473877_DOT_12 -->
<g id="edge2" class="edge">
<title>id_27473877_DOT_1&#45;&#45;id_27473877_DOT_12</title>
<path fill="none" stroke="black" d="M905.7,-2721.93C966.57,-2669.43 1086.62,-2565.9 1145.28,-2515.3"/>
<text text-anchor="middle" x="999.24" y="-2621.41" font-family="Times,serif" font-size="14.00">0.003156</text>
</g>
<!-- id_27473877_DOT_24 -->
<g id="node24" class="node">
<title>id_27473877_DOT_24</title>
<polygon fill="aquamarine" stroke="aquamarine" points="912.77,-3127.34 917.05,-3127.53 921.3,-3127.82 925.48,-3128.2 929.58,-3128.68 933.59,-3129.25 937.48,-3129.91 941.25,-3130.66 944.88,-3131.5 948.36,-3132.42 951.67,-3133.43 954.8,-3134.51 957.74,-3135.67 960.49,-3136.91 963.03,-3138.21 965.36,-3139.58 967.46,-3141.02 969.35,-3142.51 971.01,-3144.06 972.44,-3145.66 973.64,-3147.3 974.62,-3148.99 975.36,-3150.71 975.88,-3152.46 976.18,-3154.25 976.26,-3156.05 976.13,-3157.88 975.79,-3159.71 975.25,-3161.55 974.52,-3163.4 973.61,-3165.24 972.52,-3167.08 971.26,-3168.9 969.85,-3170.7 968.29,-3172.49 966.58,-3174.24 964.75,-3175.96 962.81,-3177.65 960.75,-3179.29 958.58,-3180.89 956.33,-3182.44 953.99,-3183.93 951.58,-3185.37 949.1,-3186.74 946.56,-3188.04 943.97,-3189.28 941.33,-3190.44 938.65,-3191.52 935.93,-3192.53 933.18,-3193.45 930.41,-3194.29 927.62,-3195.04 924.81,-3195.7 921.98,-3196.27 919.14,-3196.75 916.3,-3197.13 913.44,-3197.42 910.59,-3197.61 907.72,-3197.71 904.86,-3197.71 902,-3197.61 899.14,-3197.42 896.29,-3197.13 893.44,-3196.75 890.6,-3196.27 887.78,-3195.7 884.97,-3195.04 882.17,-3194.29 879.4,-3193.45 876.65,-3192.53 873.94,-3191.52 871.26,-3190.44 868.62,-3189.28 866.02,-3188.04 863.48,-3186.74 861,-3185.37 858.59,-3183.93 856.25,-3182.44 854,-3180.89 851.84,-3179.29 849.78,-3177.65 847.83,-3175.96 846,-3174.24 844.3,-3172.49 842.74,-3170.7 841.32,-3168.9 840.07,-3167.08 838.98,-3165.24 838.06,-3163.4 837.33,-3161.55 836.8,-3159.71 836.46,-3157.88 836.33,-3156.05 836.41,-3154.25 836.7,-3152.46 837.22,-3150.71 837.97,-3148.99 838.94,-3147.3 840.14,-3145.66 841.57,-3144.06 843.23,-3142.51 845.12,-3141.02 847.23,-3139.58 849.56,-3138.21 852.1,-3136.91 854.84,-3135.67 857.79,-3134.51 860.92,-3133.43 864.23,-3132.42 867.7,-3131.5 871.33,-3130.66 875.1,-3129.91 879,-3129.25 883.01,-3128.68 887.11,-3128.2 891.29,-3127.82 895.53,-3127.53 899.82,-3127.34 904.13,-3127.24 908.45,-3127.24 912.77,-3127.34"/>
<text text-anchor="start" x="877.12" y="-3172.28" font-family="Times,serif" font-size="14.00">C0028688</text>
<text text-anchor="start" x="867.99" y="-3158.28" font-family="Times,serif" font-size="14.00">nursing home</text>
<text text-anchor="start" x="883.35" y="-3144.28" font-family="Times,serif" font-size="14.00">194:195</text>
</g>
<!-- id_27473877_DOT_1&#45;&#45;id_27473877_DOT_24 -->
<g id="edge3" class="edge">
<title>id_27473877_DOT_1&#45;&#45;id_27473877_DOT_24</title>
<path fill="none" stroke="black" d="M871.79,-2789.16C878.93,-2866.38 895.89,-3049.96 903.04,-3127.23"/>
<text text-anchor="middle" x="861.16" y="-2961" font-family="Times,serif" font-size="14.00">0.017770</text>
</g>
<!-- id_27473877_DOT_2 -->
<g id="node2" class="node">
<title>id_27473877_DOT_2</title>
<polygon fill="bisque" stroke="bisque" points="3506.26,-1240.31 3510.38,-1240.5 3514.46,-1240.79 3518.48,-1241.17 3522.42,-1241.65 3526.27,-1242.22 3530.02,-1242.88 3533.64,-1243.63 3537.13,-1244.47 3540.47,-1245.39 3543.65,-1246.4 3546.67,-1247.48 3549.5,-1248.65 3552.13,-1249.88 3554.58,-1251.19 3556.81,-1252.56 3558.84,-1253.99 3560.65,-1255.48 3562.25,-1257.03 3563.63,-1258.63 3564.78,-1260.27 3565.72,-1261.96 3566.43,-1263.68 3566.93,-1265.44 3567.22,-1267.22 3567.3,-1269.02 3567.17,-1270.85 3566.84,-1272.68 3566.33,-1274.53 3565.62,-1276.37 3564.75,-1278.21 3563.7,-1280.05 3562.49,-1281.87 3561.13,-1283.68 3559.63,-1285.46 3558,-1287.21 3556.24,-1288.94 3554.36,-1290.62 3552.38,-1292.27 3550.3,-1293.86 3548.14,-1295.41 3545.89,-1296.91 3543.57,-1298.34 3541.19,-1299.71 3538.75,-1301.02 3536.25,-1302.25 3533.71,-1303.41 3531.14,-1304.5 3528.53,-1305.5 3525.89,-1306.42 3523.22,-1307.26 3520.54,-1308.01 3517.83,-1308.67 3515.12,-1309.24 3512.39,-1309.72 3509.65,-1310.11 3506.91,-1310.39 3504.16,-1310.59 3501.41,-1310.68 3498.66,-1310.68 3495.91,-1310.59 3493.16,-1310.39 3490.42,-1310.11 3487.68,-1309.72 3484.95,-1309.24 3482.23,-1308.67 3479.53,-1308.01 3476.85,-1307.26 3474.18,-1306.42 3471.54,-1305.5 3468.93,-1304.5 3466.35,-1303.41 3463.82,-1302.25 3461.32,-1301.02 3458.88,-1299.71 3456.5,-1298.34 3454.18,-1296.91 3451.93,-1295.41 3449.76,-1293.86 3447.69,-1292.27 3445.71,-1290.62 3443.83,-1288.94 3442.07,-1287.21 3440.44,-1285.46 3438.94,-1283.68 3437.58,-1281.87 3436.37,-1280.05 3435.32,-1278.21 3434.45,-1276.37 3433.74,-1274.53 3433.23,-1272.68 3432.9,-1270.85 3432.77,-1269.02 3432.85,-1267.22 3433.14,-1265.44 3433.64,-1263.68 3434.35,-1261.96 3435.29,-1260.27 3436.44,-1258.63 3437.82,-1257.03 3439.41,-1255.48 3441.23,-1253.99 3443.25,-1252.56 3445.49,-1251.19 3447.93,-1249.88 3450.57,-1248.65 3453.4,-1247.48 3456.41,-1246.4 3459.6,-1245.39 3462.94,-1244.47 3466.43,-1243.63 3470.05,-1242.88 3473.8,-1242.22 3477.65,-1241.65 3481.59,-1241.17 3485.61,-1240.79 3489.69,-1240.5 3493.81,-1240.31 3497.96,-1240.21 3502.11,-1240.21 3506.26,-1240.31"/>
<text text-anchor="start" x="3470.87" y="-1285.25" font-family="Times,serif" font-size="14.00">C0043210</text>
<text text-anchor="start" x="3463.29" y="-1271.25" font-family="Times,serif" font-size="14.00">older women</text>
<text text-anchor="start" x="3487.59" y="-1257.25" font-family="Times,serif" font-size="14.00">9:10</text>
</g>
<!-- id_27473877_DOT_11 -->
<g id="node11" class="node">
<title>id_27473877_DOT_11</title>
<polygon fill="cornflowerblue" stroke="cornflowerblue" points="3194.18,-1484.1 3200.98,-1484.29 3207.71,-1484.58 3214.35,-1484.96 3220.86,-1485.44 3227.22,-1486.01 3233.4,-1486.67 3239.38,-1487.42 3245.14,-1488.26 3250.66,-1489.18 3255.91,-1490.19 3260.88,-1491.27 3265.55,-1492.43 3269.91,-1493.67 3273.94,-1494.97 3277.63,-1496.34 3280.98,-1497.78 3283.97,-1499.27 3286.6,-1500.82 3288.87,-1502.42 3290.78,-1504.06 3292.32,-1505.75 3293.51,-1507.47 3294.33,-1509.22 3294.8,-1511.01 3294.93,-1512.81 3294.72,-1514.63 3294.18,-1516.47 3293.33,-1518.31 3292.17,-1520.16 3290.72,-1522 3288.99,-1523.84 3287,-1525.66 3284.76,-1527.46 3282.28,-1529.25 3279.58,-1531 3276.67,-1532.72 3273.58,-1534.41 3270.31,-1536.05 3266.88,-1537.65 3263.31,-1539.2 3259.6,-1540.69 3255.77,-1542.13 3251.84,-1543.5 3247.8,-1544.8 3243.69,-1546.04 3239.5,-1547.2 3235.25,-1548.28 3230.94,-1549.29 3226.58,-1550.21 3222.18,-1551.05 3217.75,-1551.8 3213.29,-1552.46 3208.8,-1553.03 3204.3,-1553.51 3199.78,-1553.89 3195.25,-1554.18 3190.72,-1554.37 3186.18,-1554.47 3181.64,-1554.47 3177.09,-1554.37 3172.56,-1554.18 3168.03,-1553.89 3163.51,-1553.51 3159.01,-1553.03 3154.52,-1552.46 3150.06,-1551.8 3145.63,-1551.05 3141.23,-1550.21 3136.88,-1549.29 3132.57,-1548.28 3128.31,-1547.2 3124.12,-1546.04 3120.01,-1544.8 3115.98,-1543.5 3112.04,-1542.13 3108.21,-1540.69 3104.51,-1539.2 3100.93,-1537.65 3097.5,-1536.05 3094.23,-1534.41 3091.14,-1532.72 3088.23,-1531 3085.54,-1529.25 3083.06,-1527.46 3080.81,-1525.66 3078.82,-1523.84 3077.09,-1522 3075.64,-1520.16 3074.48,-1518.31 3073.63,-1516.47 3073.09,-1514.63 3072.88,-1512.81 3073.01,-1511.01 3073.48,-1509.22 3074.31,-1507.47 3075.49,-1505.75 3077.03,-1504.06 3078.94,-1502.42 3081.21,-1500.82 3083.84,-1499.27 3086.84,-1497.78 3090.18,-1496.34 3093.88,-1494.97 3097.91,-1493.67 3102.27,-1492.43 3106.94,-1491.27 3111.91,-1490.19 3117.16,-1489.18 3122.67,-1488.26 3128.43,-1487.42 3134.42,-1486.67 3140.6,-1486.01 3146.96,-1485.44 3153.47,-1484.96 3160.1,-1484.58 3166.83,-1484.29 3173.63,-1484.1 3180.48,-1484 3187.34,-1484 3194.18,-1484.1"/>
<text text-anchor="start" x="3154.74" y="-1529.03" font-family="Times,serif" font-size="14.00">C3161473</text>
<text text-anchor="start" x="3118.2" y="-1515.03" font-family="Times,serif" font-size="14.00">elderly Spanish women</text>
<text text-anchor="start" x="3167.96" y="-1501.03" font-family="Times,serif" font-size="14.00">73:75</text>
</g>
<!-- id_27473877_DOT_2&#45;&#45;id_27473877_DOT_11 -->
<g id="edge4" class="edge">
<title>id_27473877_DOT_2&#45;&#45;id_27473877_DOT_11</title>
<path fill="none" stroke="black" d="M3464.69,-1302.7C3406.37,-1347.68 3290.15,-1437.3 3227.07,-1485.95"/>
<text text-anchor="middle" x="3319.63" y="-1397.13" font-family="Times,serif" font-size="14.00">0.060291</text>
</g>
<!-- id_27473877_DOT_3 -->
<g id="node3" class="node">
<title>id_27473877_DOT_3</title>
<polygon fill="blue" stroke="blue" points="1911.48,-659.08 1916.5,-659.28 1921.48,-659.56 1926.38,-659.95 1931.19,-660.43 1935.89,-661 1940.46,-661.66 1944.88,-662.41 1949.14,-663.25 1953.21,-664.17 1957.09,-665.17 1960.77,-666.26 1964.22,-667.42 1967.44,-668.65 1970.42,-669.96 1973.15,-671.33 1975.62,-672.76 1977.83,-674.26 1979.78,-675.81 1981.46,-677.4 1982.87,-679.05 1984.01,-680.73 1984.88,-682.46 1985.49,-684.21 1985.84,-685.99 1985.93,-687.8 1985.78,-689.62 1985.38,-691.46 1984.75,-693.3 1983.89,-695.14 1982.82,-696.99 1981.55,-698.82 1980.07,-700.65 1978.41,-702.45 1976.58,-704.23 1974.59,-705.99 1972.44,-707.71 1970.16,-709.4 1967.74,-711.04 1965.21,-712.64 1962.56,-714.19 1959.82,-715.68 1956.99,-717.11 1954.09,-718.48 1951.11,-719.79 1948.07,-721.02 1944.97,-722.19 1941.83,-723.27 1938.64,-724.28 1935.42,-725.2 1932.17,-726.04 1928.89,-726.79 1925.6,-727.45 1922.28,-728.02 1918.96,-728.5 1915.62,-728.88 1912.27,-729.17 1908.92,-729.36 1905.56,-729.46 1902.2,-729.46 1898.85,-729.36 1895.5,-729.17 1892.15,-728.88 1888.81,-728.5 1885.48,-728.02 1882.17,-727.45 1878.87,-726.79 1875.6,-726.04 1872.35,-725.2 1869.13,-724.28 1865.94,-723.27 1862.8,-722.19 1859.7,-721.02 1856.66,-719.79 1853.68,-718.48 1850.77,-717.11 1847.94,-715.68 1845.2,-714.19 1842.56,-712.64 1840.03,-711.04 1837.61,-709.4 1835.32,-707.71 1833.18,-705.99 1831.18,-704.23 1829.35,-702.45 1827.69,-700.65 1826.22,-698.82 1824.94,-696.99 1823.87,-695.14 1823.02,-693.3 1822.38,-691.46 1821.99,-689.62 1821.83,-687.8 1821.93,-685.99 1822.28,-684.21 1822.88,-682.46 1823.76,-680.73 1824.9,-679.05 1826.31,-677.4 1827.99,-675.81 1829.93,-674.26 1832.15,-672.76 1834.62,-671.33 1837.35,-669.96 1840.33,-668.65 1843.55,-667.42 1847,-666.26 1850.67,-665.17 1854.55,-664.17 1858.63,-663.25 1862.89,-662.41 1867.31,-661.66 1871.88,-661 1876.58,-660.43 1881.39,-659.95 1886.29,-659.56 1891.26,-659.28 1896.29,-659.08 1901.35,-658.99 1906.42,-658.99 1911.48,-659.08"/>
<text text-anchor="start" x="1874.71" y="-704.02" font-family="Times,serif" font-size="14.00">C0949415</text>
<text text-anchor="start" x="1857.42" y="-690.02" font-family="Times,serif" font-size="14.00">qualitative study</text>
<text text-anchor="start" x="1887.94" y="-676.02" font-family="Times,serif" font-size="14.00">13:14</text>
</g>
<!-- id_27473877_DOT_13 -->
<g id="node13" class="node">
<title>id_27473877_DOT_13</title>
<polygon fill="blue" stroke="blue" points="2195.17,-358.04 2206.09,-358.23 2216.89,-358.52 2227.53,-358.91 2237.98,-359.38 2248.18,-359.95 2258.1,-360.62 2267.7,-361.37 2276.94,-362.2 2285.79,-363.13 2294.22,-364.13 2302.19,-365.22 2309.69,-366.38 2316.68,-367.61 2323.15,-368.92 2329.07,-370.29 2334.44,-371.72 2339.24,-373.22 2343.47,-374.76 2347.11,-376.36 2350.17,-378.01 2352.65,-379.69 2354.55,-381.41 2355.87,-383.17 2356.63,-384.95 2356.83,-386.76 2356.49,-388.58 2355.63,-390.41 2354.26,-392.26 2352.41,-394.1 2350.08,-395.95 2347.3,-397.78 2344.11,-399.6 2340.51,-401.41 2336.53,-403.19 2332.2,-404.95 2327.54,-406.67 2322.58,-408.35 2317.33,-410 2311.83,-411.6 2306.09,-413.14 2300.14,-414.64 2294,-416.07 2287.68,-417.44 2281.22,-418.75 2274.61,-419.98 2267.89,-421.14 2261.07,-422.23 2254.15,-423.23 2247.16,-424.16 2240.1,-424.99 2232.99,-425.74 2225.83,-426.41 2218.64,-426.98 2211.41,-427.45 2204.16,-427.84 2196.9,-428.13 2189.62,-428.32 2182.33,-428.42 2175.04,-428.42 2167.76,-428.32 2160.48,-428.13 2153.21,-427.84 2145.96,-427.45 2138.74,-426.98 2131.54,-426.41 2124.39,-425.74 2117.27,-424.99 2110.22,-424.16 2103.22,-423.23 2096.31,-422.23 2089.48,-421.14 2082.76,-419.98 2076.16,-418.75 2069.69,-417.44 2063.38,-416.07 2057.23,-414.64 2051.28,-413.14 2045.55,-411.6 2040.04,-410 2034.8,-408.35 2029.83,-406.67 2025.18,-404.95 2020.85,-403.19 2016.87,-401.41 2013.27,-399.6 2010.07,-397.78 2007.3,-395.95 2004.97,-394.1 2003.11,-392.26 2001.74,-390.41 2000.88,-388.58 2000.54,-386.76 2000.75,-384.95 2001.51,-383.17 2002.83,-381.41 2004.73,-379.69 2007.2,-378.01 2010.26,-376.36 2013.91,-374.76 2018.13,-373.22 2022.93,-371.72 2028.3,-370.29 2034.23,-368.92 2040.7,-367.61 2047.69,-366.38 2055.18,-365.22 2063.16,-364.13 2071.58,-363.13 2080.43,-362.2 2089.68,-361.37 2099.28,-360.62 2109.2,-359.95 2119.4,-359.38 2129.84,-358.91 2140.49,-358.52 2151.29,-358.23 2162.2,-358.04 2173.19,-357.94 2184.19,-357.94 2195.17,-358.04"/>
<text text-anchor="start" x="2149.52" y="-402.98" font-family="Times,serif" font-size="14.00">C0949415</text>
<text text-anchor="start" x="2068.28" y="-388.98" font-family="Times,serif" font-size="14.00">qualitative phenomenological approach</text>
<text text-anchor="start" x="2162.74" y="-374.98" font-family="Times,serif" font-size="14.00">82:84</text>
</g>
<!-- id_27473877_DOT_3&#45;&#45;id_27473877_DOT_13 -->
<g id="edge11" class="edge">
<title>id_27473877_DOT_3&#45;&#45;id_27473877_DOT_13</title>
<path fill="none" stroke="black" stroke-dasharray="1,5" d="M1934.61,-660.56C1987.27,-602.88 2094.22,-485.71 2147.32,-427.54"/>
<text text-anchor="middle" x="2014.71" y="-546.85" font-family="Times,serif" font-size="14.00">0.280651</text>
</g>
<!-- id_27473877_DOT_14 -->
<g id="node14" class="node">
<title>id_27473877_DOT_14</title>
<polygon fill="crimson" stroke="crimson" points="1953.16,-1082.39 1956.59,-1082.58 1959.98,-1082.87 1963.33,-1083.25 1966.61,-1083.73 1969.81,-1084.3 1972.93,-1084.96 1975.94,-1085.71 1978.85,-1086.55 1981.63,-1087.47 1984.27,-1088.48 1986.78,-1089.56 1989.13,-1090.72 1991.33,-1091.96 1993.36,-1093.26 1995.22,-1094.63 1996.91,-1096.07 1998.42,-1097.56 1999.74,-1099.11 2000.89,-1100.71 2001.85,-1102.35 2002.63,-1104.04 2003.22,-1105.76 2003.64,-1107.51 2003.88,-1109.3 2003.94,-1111.1 2003.84,-1112.92 2003.57,-1114.76 2003.14,-1116.6 2002.55,-1118.45 2001.82,-1120.29 2000.95,-1122.13 1999.94,-1123.95 1998.81,-1125.75 1997.56,-1127.54 1996.2,-1129.29 1994.74,-1131.01 1993.18,-1132.7 1991.53,-1134.34 1989.81,-1135.94 1988,-1137.49 1986.13,-1138.98 1984.21,-1140.42 1982.22,-1141.79 1980.19,-1143.09 1978.12,-1144.33 1976.01,-1145.49 1973.86,-1146.57 1971.69,-1147.58 1969.49,-1148.5 1967.28,-1149.34 1965.04,-1150.09 1962.79,-1150.75 1960.53,-1151.32 1958.26,-1151.8 1955.99,-1152.18 1953.7,-1152.47 1951.42,-1152.66 1949.13,-1152.76 1946.84,-1152.76 1944.55,-1152.66 1942.27,-1152.47 1939.98,-1152.18 1937.71,-1151.8 1935.44,-1151.32 1933.18,-1150.75 1930.93,-1150.09 1928.69,-1149.34 1926.48,-1148.5 1924.28,-1147.58 1922.11,-1146.57 1919.97,-1145.49 1917.85,-1144.33 1915.78,-1143.09 1913.75,-1141.79 1911.76,-1140.42 1909.84,-1138.98 1907.97,-1137.49 1906.16,-1135.94 1904.44,-1134.34 1902.79,-1132.7 1901.23,-1131.01 1899.77,-1129.29 1898.41,-1127.54 1897.16,-1125.75 1896.03,-1123.95 1895.02,-1122.13 1894.15,-1120.29 1893.42,-1118.45 1892.84,-1116.6 1892.41,-1114.76 1892.13,-1112.92 1892.03,-1111.1 1892.09,-1109.3 1892.33,-1107.51 1892.75,-1105.76 1893.34,-1104.04 1894.12,-1102.35 1895.08,-1100.71 1896.23,-1099.11 1897.55,-1097.56 1899.06,-1096.07 1900.75,-1094.63 1902.61,-1093.26 1904.64,-1091.96 1906.84,-1090.72 1909.19,-1089.56 1911.7,-1088.48 1914.34,-1087.47 1917.12,-1086.55 1920.03,-1085.71 1923.04,-1084.96 1926.16,-1084.3 1929.36,-1083.73 1932.64,-1083.25 1935.99,-1082.87 1939.38,-1082.58 1942.81,-1082.39 1946.26,-1082.29 1949.71,-1082.29 1953.16,-1082.39"/>
<text text-anchor="start" x="1918.82" y="-1127.32" font-family="Times,serif" font-size="14.00">C0010995</text>
<text text-anchor="start" x="1922.72" y="-1113.32" font-family="Times,serif" font-size="14.00">collected</text>
<text text-anchor="start" x="1932.04" y="-1099.32" font-family="Times,serif" font-size="14.00">90:90</text>
</g>
<!-- id_27473877_DOT_3&#45;&#45;id_27473877_DOT_14 -->
<g id="edge12" class="edge">
<title>id_27473877_DOT_3&#45;&#45;id_27473877_DOT_14</title>
<path fill="none" stroke="black" stroke-dasharray="1,5" d="M1907.57,-729.58C1915.88,-809.36 1936.01,-1002.58 1944.31,-1082.26"/>
<text text-anchor="middle" x="1899.69" y="-908.72" font-family="Times,serif" font-size="14.00">0.854549</text>
</g>
<!-- id_27473877_DOT_19 -->
<g id="node19" class="node">
<title>id_27473877_DOT_19</title>
<polygon fill="darkmagenta" stroke="darkmagenta" points="1643.12,-352.7 1648.32,-352.89 1653.47,-353.18 1658.54,-353.57 1663.52,-354.04 1668.38,-354.61 1673.1,-355.28 1677.68,-356.03 1682.08,-356.86 1686.3,-357.79 1690.32,-358.79 1694.12,-359.88 1697.69,-361.04 1701.02,-362.27 1704.1,-363.58 1706.92,-364.95 1709.48,-366.38 1711.77,-367.88 1713.78,-369.42 1715.52,-371.02 1716.98,-372.67 1718.16,-374.35 1719.06,-376.07 1719.69,-377.83 1720.05,-379.61 1720.15,-381.42 1719.99,-383.24 1719.58,-385.08 1718.93,-386.92 1718.04,-388.76 1716.93,-390.61 1715.61,-392.44 1714.09,-394.26 1712.37,-396.07 1710.48,-397.85 1708.41,-399.61 1706.19,-401.33 1703.83,-403.02 1701.33,-404.66 1698.71,-406.26 1695.97,-407.81 1693.14,-409.3 1690.21,-410.73 1687.2,-412.1 1684.12,-413.41 1680.97,-414.64 1677.77,-415.8 1674.52,-416.89 1671.22,-417.89 1667.89,-418.82 1664.53,-419.65 1661.14,-420.41 1657.73,-421.07 1654.3,-421.64 1650.86,-422.11 1647.4,-422.5 1643.94,-422.79 1640.47,-422.98 1637,-423.08 1633.53,-423.08 1630.06,-422.98 1626.59,-422.79 1623.12,-422.5 1619.67,-422.11 1616.23,-421.64 1612.8,-421.07 1609.39,-420.41 1606,-419.65 1602.64,-418.82 1599.3,-417.89 1596.01,-416.89 1592.76,-415.8 1589.55,-414.64 1586.41,-413.41 1583.33,-412.1 1580.32,-410.73 1577.39,-409.3 1574.55,-407.81 1571.82,-406.26 1569.2,-404.66 1566.7,-403.02 1564.33,-401.33 1562.11,-399.61 1560.05,-397.85 1558.15,-396.07 1556.44,-394.26 1554.92,-392.44 1553.59,-390.61 1552.49,-388.76 1551.6,-386.92 1550.95,-385.08 1550.54,-383.24 1550.38,-381.42 1550.47,-379.61 1550.83,-377.83 1551.46,-376.07 1552.37,-374.35 1553.55,-372.67 1555.01,-371.02 1556.74,-369.42 1558.76,-367.88 1561.04,-366.38 1563.6,-364.95 1566.43,-363.58 1569.51,-362.27 1572.84,-361.04 1576.41,-359.88 1580.21,-358.79 1584.23,-357.79 1588.44,-356.86 1592.85,-356.03 1597.42,-355.28 1602.15,-354.61 1607.01,-354.04 1611.99,-353.57 1617.06,-353.18 1622.21,-352.89 1627.41,-352.7 1632.64,-352.61 1637.89,-352.61 1643.12,-352.7"/>
<text text-anchor="start" x="1606.09" y="-397.64" font-family="Times,serif" font-size="14.00">C0242481</text>
<text text-anchor="start" x="1586.86" y="-383.64" font-family="Times,serif" font-size="14.00">thematic analysis</text>
<text text-anchor="start" x="1612.32" y="-369.64" font-family="Times,serif" font-size="14.00">131:132</text>
</g>
<!-- id_27473877_DOT_3&#45;&#45;id_27473877_DOT_19 -->
<g id="edge13" class="edge">
<title>id_27473877_DOT_3&#45;&#45;id_27473877_DOT_19</title>
<path fill="none" stroke="black" stroke-dasharray="1,5" d="M1874.37,-660.56C1822.31,-601.18 1714.83,-478.59 1663.61,-420.17"/>
<text text-anchor="middle" x="1742.74" y="-543.17" font-family="Times,serif" font-size="14.00">0.472891</text>
</g>
<!-- id_27473877_DOT_16 -->
<g id="node16" class="node">
<title>id_27473877_DOT_16</title>
<polygon fill="aquamarine" stroke="aquamarine" points="80.65,-2712.72 85.17,-2712.91 89.63,-2713.2 94.04,-2713.58 98.35,-2714.06 102.57,-2714.63 106.68,-2715.29 110.65,-2716.04 114.47,-2716.88 118.13,-2717.8 121.61,-2718.81 124.91,-2719.89 128.01,-2721.05 130.9,-2722.29 133.58,-2723.59 136.03,-2724.96 138.25,-2726.4 140.23,-2727.89 141.98,-2729.44 143.49,-2731.04 144.75,-2732.68 145.78,-2734.37 146.56,-2736.09 147.11,-2737.85 147.42,-2739.63 147.51,-2741.43 147.37,-2743.26 147.01,-2745.09 146.44,-2746.93 145.68,-2748.78 144.71,-2750.62 143.57,-2752.46 142.24,-2754.28 140.76,-2756.08 139.11,-2757.87 137.32,-2759.62 135.39,-2761.34 133.34,-2763.03 131.17,-2764.67 128.9,-2766.27 126.52,-2767.82 124.06,-2769.31 121.52,-2770.75 118.91,-2772.12 116.24,-2773.42 113.51,-2774.66 110.73,-2775.82 107.9,-2776.9 105.04,-2777.91 102.15,-2778.83 99.23,-2779.67 96.29,-2780.42 93.33,-2781.08 90.36,-2781.65 87.37,-2782.13 84.37,-2782.51 81.37,-2782.8 78.36,-2782.99 75.34,-2783.09 72.33,-2783.09 69.32,-2782.99 66.31,-2782.8 63.3,-2782.51 60.3,-2782.13 57.31,-2781.65 54.34,-2781.08 51.38,-2780.42 48.44,-2779.67 45.52,-2778.83 42.63,-2777.91 39.77,-2776.9 36.94,-2775.82 34.17,-2774.66 31.43,-2773.42 28.76,-2772.12 26.15,-2770.75 23.61,-2769.31 21.15,-2767.82 18.77,-2766.27 16.5,-2764.67 14.33,-2763.03 12.28,-2761.34 10.35,-2759.62 8.56,-2757.87 6.92,-2756.08 5.43,-2754.28 4.1,-2752.46 2.96,-2750.62 1.99,-2748.78 1.23,-2746.93 0.66,-2745.09 0.3,-2743.26 0.16,-2741.43 0.25,-2739.63 0.56,-2737.85 1.11,-2736.09 1.89,-2734.37 2.92,-2732.68 4.18,-2731.04 5.69,-2729.44 7.44,-2727.89 9.42,-2726.4 11.64,-2724.96 14.09,-2723.59 16.77,-2722.29 19.66,-2721.05 22.76,-2719.89 26.06,-2718.81 29.54,-2717.8 33.2,-2716.88 37.02,-2716.04 40.99,-2715.29 45.1,-2714.63 49.32,-2714.06 53.64,-2713.58 58.04,-2713.2 62.5,-2712.91 67.02,-2712.72 71.56,-2712.62 76.11,-2712.62 80.65,-2712.72"/>
<text text-anchor="start" x="44.67" y="-2757.66" font-family="Times,serif" font-size="14.00">C0028688</text>
<text text-anchor="start" x="32.81" y="-2743.66" font-family="Times,serif" font-size="14.00">nursing homes</text>
<text text-anchor="start" x="51.66" y="-2729.66" font-family="Times,serif" font-size="14.00">110:111</text>
</g>
<!-- id_27473877_DOT_4&#45;&#45;id_27473877_DOT_16 -->
<g id="edge5" class="edge">
<title>id_27473877_DOT_4&#45;&#45;id_27473877_DOT_16</title>
<path fill="none" stroke="black" d="M389.01,-2713.69C321.14,-2721.05 217.24,-2732.31 147.48,-2739.87"/>
<text text-anchor="middle" x="242" y="-2729.58" font-family="Times,serif" font-size="14.00">0.008290</text>
</g>
<!-- id_27473877_DOT_5 -->
<g id="node5" class="node">
<title>id_27473877_DOT_5</title>
<polygon fill="blueviolet" stroke="blueviolet" points="1685.97,-1791.77 1690.57,-1791.96 1695.12,-1792.25 1699.6,-1792.64 1704,-1793.11 1708.3,-1793.68 1712.48,-1794.34 1716.52,-1795.1 1720.42,-1795.93 1724.15,-1796.86 1727.7,-1797.86 1731.06,-1798.95 1734.21,-1800.11 1737.16,-1801.34 1739.88,-1802.65 1742.38,-1804.02 1744.64,-1805.45 1746.66,-1806.94 1748.44,-1808.49 1749.98,-1810.09 1751.27,-1811.73 1752.31,-1813.42 1753.11,-1815.14 1753.67,-1816.9 1753.99,-1818.68 1754.07,-1820.49 1753.93,-1822.31 1753.57,-1824.14 1752.99,-1825.99 1752.21,-1827.83 1751.23,-1829.67 1750.06,-1831.51 1748.71,-1833.33 1747.2,-1835.14 1745.52,-1836.92 1743.7,-1838.67 1741.73,-1840.4 1739.64,-1842.08 1737.43,-1843.73 1735.12,-1845.33 1732.7,-1846.87 1730.19,-1848.37 1727.6,-1849.8 1724.94,-1851.17 1722.22,-1852.48 1719.44,-1853.71 1716.61,-1854.87 1713.73,-1855.96 1710.82,-1856.96 1707.87,-1857.89 1704.9,-1858.72 1701.9,-1859.47 1698.89,-1860.13 1695.86,-1860.7 1692.81,-1861.18 1689.76,-1861.57 1686.7,-1861.85 1683.63,-1862.05 1680.56,-1862.14 1677.49,-1862.14 1674.42,-1862.05 1671.36,-1861.85 1668.3,-1861.57 1665.24,-1861.18 1662.2,-1860.7 1659.17,-1860.13 1656.15,-1859.47 1653.16,-1858.72 1650.18,-1857.89 1647.24,-1856.96 1644.33,-1855.96 1641.45,-1854.87 1638.62,-1853.71 1635.84,-1852.48 1633.11,-1851.17 1630.45,-1849.8 1627.87,-1848.37 1625.36,-1846.87 1622.94,-1845.33 1620.62,-1843.73 1618.41,-1842.08 1616.32,-1840.4 1614.36,-1838.67 1612.54,-1836.92 1610.86,-1835.14 1609.35,-1833.33 1608,-1831.51 1606.83,-1829.67 1605.85,-1827.83 1605.07,-1825.99 1604.49,-1824.14 1604.13,-1822.31 1603.98,-1820.49 1604.07,-1818.68 1604.39,-1816.9 1604.95,-1815.14 1605.75,-1813.42 1606.79,-1811.73 1608.08,-1810.09 1609.61,-1808.49 1611.39,-1806.94 1613.42,-1805.45 1615.68,-1804.02 1618.17,-1802.65 1620.9,-1801.34 1623.84,-1800.11 1627,-1798.95 1630.36,-1797.86 1633.91,-1796.86 1637.64,-1795.93 1641.53,-1795.1 1645.58,-1794.34 1649.75,-1793.68 1654.05,-1793.11 1658.45,-1792.64 1662.94,-1792.25 1667.49,-1791.96 1672.08,-1791.77 1676.71,-1791.67 1681.35,-1791.67 1685.97,-1791.77"/>
<text text-anchor="start" x="1649.86" y="-1836.71" font-family="Times,serif" font-size="14.00">C2712041</text>
<text text-anchor="start" x="1637.05" y="-1822.71" font-family="Times,serif" font-size="14.00">lack of privacy</text>
<text text-anchor="start" x="1663.08" y="-1808.71" font-family="Times,serif" font-size="14.00">33:35</text>
</g>
<!-- id_27473877_DOT_6 -->
<g id="node6" class="node">
<title>id_27473877_DOT_6</title>
<polygon fill="brown" stroke="brown" points="1491.29,-2178.89 1494.72,-2179.08 1498.11,-2179.37 1501.46,-2179.75 1504.74,-2180.23 1507.94,-2180.8 1511.06,-2181.46 1514.07,-2182.21 1516.98,-2183.05 1519.76,-2183.97 1522.4,-2184.98 1524.91,-2186.06 1527.26,-2187.22 1529.46,-2188.46 1531.49,-2189.76 1533.35,-2191.14 1535.04,-2192.57 1536.55,-2194.06 1537.87,-2195.61 1539.02,-2197.21 1539.98,-2198.85 1540.76,-2200.54 1541.35,-2202.26 1541.77,-2204.02 1542.01,-2205.8 1542.07,-2207.6 1541.96,-2209.43 1541.69,-2211.26 1541.26,-2213.1 1540.68,-2214.95 1539.95,-2216.79 1539.08,-2218.63 1538.07,-2220.45 1536.94,-2222.26 1535.69,-2224.04 1534.33,-2225.79 1532.87,-2227.52 1531.31,-2229.2 1529.66,-2230.85 1527.93,-2232.44 1526.13,-2233.99 1524.26,-2235.48 1522.33,-2236.92 1520.35,-2238.29 1518.32,-2239.59 1516.24,-2240.83 1514.13,-2241.99 1511.99,-2243.08 1509.82,-2244.08 1507.62,-2245 1505.4,-2245.84 1503.17,-2246.59 1500.92,-2247.25 1498.66,-2247.82 1496.39,-2248.3 1494.12,-2248.68 1491.83,-2248.97 1489.55,-2249.17 1487.26,-2249.26 1484.97,-2249.26 1482.68,-2249.17 1480.39,-2248.97 1478.11,-2248.68 1475.83,-2248.3 1473.57,-2247.82 1471.3,-2247.25 1469.06,-2246.59 1466.82,-2245.84 1464.61,-2245 1462.41,-2244.08 1460.24,-2243.08 1458.09,-2241.99 1455.98,-2240.83 1453.91,-2239.59 1451.88,-2238.29 1449.89,-2236.92 1447.96,-2235.48 1446.09,-2233.99 1444.29,-2232.44 1442.56,-2230.85 1440.92,-2229.2 1439.36,-2227.52 1437.89,-2225.79 1436.53,-2224.04 1435.28,-2222.26 1434.15,-2220.45 1433.15,-2218.63 1432.28,-2216.79 1431.55,-2214.95 1430.96,-2213.1 1430.53,-2211.26 1430.26,-2209.43 1430.16,-2207.6 1430.22,-2205.8 1430.46,-2204.02 1430.87,-2202.26 1431.47,-2200.54 1432.25,-2198.85 1433.21,-2197.21 1434.35,-2195.61 1435.68,-2194.06 1437.19,-2192.57 1438.88,-2191.14 1440.74,-2189.76 1442.77,-2188.46 1444.97,-2187.22 1447.32,-2186.06 1449.82,-2184.98 1452.47,-2183.97 1455.25,-2183.05 1458.15,-2182.21 1461.17,-2181.46 1464.29,-2180.8 1467.49,-2180.23 1470.77,-2179.75 1474.11,-2179.37 1477.51,-2179.08 1480.94,-2178.89 1484.39,-2178.79 1487.84,-2178.79 1491.29,-2178.89"/>
<text text-anchor="start" x="1456.94" y="-2223.83" font-family="Times,serif" font-size="14.00">C0004271</text>
<text text-anchor="start" x="1462.4" y="-2209.83" font-family="Times,serif" font-size="14.00">attitudes</text>
<text text-anchor="start" x="1470.17" y="-2195.83" font-family="Times,serif" font-size="14.00">38:38</text>
</g>
<!-- id_27473877_DOT_5&#45;&#45;id_27473877_DOT_6 -->
<g id="edge14" class="edge">
<title>id_27473877_DOT_5&#45;&#45;id_27473877_DOT_6</title>
<path fill="none" stroke="black" stroke-dasharray="1,5" d="M1662.08,-1860.92C1625.53,-1934.26 1539.67,-2106.56 1503.09,-2179.95"/>
<text text-anchor="middle" x="1556.34" y="-2023.24" font-family="Times,serif" font-size="14.00">0.828306</text>
</g>
<!-- id_27473877_DOT_9 -->
<g id="node9" class="node">
<title>id_27473877_DOT_9</title>
<polygon fill="coral" stroke="coral" points="1325.85,-1741.35 1331.66,-1741.54 1337.41,-1741.83 1343.08,-1742.21 1348.64,-1742.69 1354.07,-1743.26 1359.35,-1743.92 1364.46,-1744.67 1369.38,-1745.51 1374.09,-1746.43 1378.57,-1747.44 1382.82,-1748.52 1386.81,-1749.69 1390.53,-1750.92 1393.97,-1752.22 1397.13,-1753.6 1399.99,-1755.03 1402.54,-1756.52 1404.79,-1758.07 1406.73,-1759.67 1408.36,-1761.31 1409.68,-1763 1410.69,-1764.72 1411.39,-1766.48 1411.8,-1768.26 1411.9,-1770.06 1411.73,-1771.89 1411.27,-1773.72 1410.54,-1775.56 1409.55,-1777.41 1408.31,-1779.25 1406.83,-1781.09 1405.13,-1782.91 1403.21,-1784.72 1401.1,-1786.5 1398.79,-1788.25 1396.31,-1789.98 1393.67,-1791.66 1390.88,-1793.31 1387.95,-1794.9 1384.89,-1796.45 1381.73,-1797.94 1378.46,-1799.38 1375.1,-1800.75 1371.65,-1802.06 1368.14,-1803.29 1364.56,-1804.45 1360.93,-1805.54 1357.25,-1806.54 1353.52,-1807.46 1349.77,-1808.3 1345.98,-1809.05 1342.17,-1809.71 1338.34,-1810.28 1334.49,-1810.76 1330.64,-1811.14 1326.77,-1811.43 1322.89,-1811.63 1319.01,-1811.72 1315.13,-1811.72 1311.26,-1811.63 1307.38,-1811.43 1303.51,-1811.14 1299.65,-1810.76 1295.81,-1810.28 1291.98,-1809.71 1288.17,-1809.05 1284.38,-1808.3 1280.63,-1807.46 1276.9,-1806.54 1273.22,-1805.54 1269.59,-1804.45 1266.01,-1803.29 1262.5,-1802.06 1259.05,-1800.75 1255.69,-1799.38 1252.42,-1797.94 1249.25,-1796.45 1246.2,-1794.9 1243.27,-1793.31 1240.48,-1791.66 1237.84,-1789.98 1235.36,-1788.25 1233.05,-1786.5 1230.93,-1784.72 1229.02,-1782.91 1227.32,-1781.09 1225.84,-1779.25 1224.6,-1777.41 1223.61,-1775.56 1222.88,-1773.72 1222.42,-1771.89 1222.24,-1770.06 1222.35,-1768.26 1222.76,-1766.48 1223.46,-1764.72 1224.47,-1763 1225.79,-1761.31 1227.42,-1759.67 1229.36,-1758.07 1231.61,-1756.52 1234.16,-1755.03 1237.02,-1753.6 1240.18,-1752.22 1243.62,-1750.92 1247.34,-1749.69 1251.33,-1748.52 1255.58,-1747.44 1260.06,-1746.43 1264.77,-1745.51 1269.69,-1744.67 1274.8,-1743.92 1280.08,-1743.26 1285.51,-1742.69 1291.07,-1742.21 1296.74,-1741.83 1302.49,-1741.54 1308.3,-1741.35 1314.15,-1741.25 1320,-1741.25 1325.85,-1741.35"/>
<text text-anchor="start" x="1287.91" y="-1786.29" font-family="Times,serif" font-size="14.00">C0243095</text>
<text text-anchor="start" x="1262.05" y="-1772.29" font-family="Times,serif" font-size="14.00">physical limitations</text>
<text text-anchor="start" x="1301.13" y="-1758.29" font-family="Times,serif" font-size="14.00">56:57</text>
</g>
<!-- id_27473877_DOT_5&#45;&#45;id_27473877_DOT_9 -->
<g id="edge15" class="edge">
<title>id_27473877_DOT_5&#45;&#45;id_27473877_DOT_9</title>
<path fill="none" stroke="black" stroke-dasharray="1,5" d="M1604.47,-1816.52C1544.77,-1808.21 1461.1,-1796.55 1399.42,-1787.96"/>
<text text-anchor="middle" x="1475.7" y="-1805.04" font-family="Times,serif" font-size="14.00">0.544140</text>
</g>
<!-- id_27473877_DOT_10 -->
<g id="node10" class="node">
<title>id_27473877_DOT_10</title>
<polygon fill="blue" stroke="blue" points="1394.25,-1489.53 1397.68,-1489.73 1401.07,-1490.02 1404.42,-1490.4 1407.7,-1490.88 1410.9,-1491.45 1414.02,-1492.11 1417.03,-1492.86 1419.94,-1493.7 1422.72,-1494.62 1425.36,-1495.62 1427.87,-1496.71 1430.22,-1497.87 1432.42,-1499.11 1434.45,-1500.41 1436.31,-1501.78 1438,-1503.22 1439.51,-1504.71 1440.83,-1506.26 1441.98,-1507.85 1442.94,-1509.5 1443.72,-1511.18 1444.31,-1512.91 1444.73,-1514.66 1444.97,-1516.44 1445.03,-1518.25 1444.93,-1520.07 1444.65,-1521.91 1444.22,-1523.75 1443.64,-1525.6 1442.91,-1527.44 1442.04,-1529.27 1441.03,-1531.1 1439.9,-1532.9 1438.65,-1534.68 1437.29,-1536.44 1435.83,-1538.16 1434.27,-1539.85 1432.62,-1541.49 1430.9,-1543.09 1429.09,-1544.64 1427.22,-1546.13 1425.3,-1547.56 1423.31,-1548.94 1421.28,-1550.24 1419.21,-1551.48 1417.09,-1552.64 1414.95,-1553.72 1412.78,-1554.73 1410.58,-1555.65 1408.37,-1556.49 1406.13,-1557.24 1403.88,-1557.9 1401.62,-1558.47 1399.35,-1558.95 1397.08,-1559.33 1394.79,-1559.62 1392.51,-1559.81 1390.22,-1559.91 1387.93,-1559.91 1385.64,-1559.81 1383.36,-1559.62 1381.07,-1559.33 1378.8,-1558.95 1376.53,-1558.47 1374.27,-1557.9 1372.02,-1557.24 1369.78,-1556.49 1367.57,-1555.65 1365.37,-1554.73 1363.2,-1553.72 1361.05,-1552.64 1358.94,-1551.48 1356.87,-1550.24 1354.84,-1548.94 1352.85,-1547.56 1350.93,-1546.13 1349.06,-1544.64 1347.25,-1543.09 1345.53,-1541.49 1343.88,-1539.85 1342.32,-1538.16 1340.86,-1536.44 1339.5,-1534.68 1338.25,-1532.9 1337.12,-1531.1 1336.11,-1529.27 1335.24,-1527.44 1334.51,-1525.6 1333.93,-1523.75 1333.49,-1521.91 1333.22,-1520.07 1333.12,-1518.25 1333.18,-1516.44 1333.42,-1514.66 1333.84,-1512.91 1334.43,-1511.18 1335.21,-1509.5 1336.17,-1507.85 1337.32,-1506.26 1338.64,-1504.71 1340.15,-1503.22 1341.84,-1501.78 1343.7,-1500.41 1345.73,-1499.11 1347.93,-1497.87 1350.28,-1496.71 1352.79,-1495.62 1355.43,-1494.62 1358.21,-1493.7 1361.12,-1492.86 1364.13,-1492.11 1367.25,-1491.45 1370.45,-1490.88 1373.73,-1490.4 1377.08,-1490.02 1380.47,-1489.73 1383.9,-1489.53 1387.35,-1489.44 1390.8,-1489.44 1394.25,-1489.53"/>
<text text-anchor="start" x="1359.91" y="-1534.47" font-family="Times,serif" font-size="14.00">C0949415</text>
<text text-anchor="start" x="1373.91" y="-1520.47" font-family="Times,serif" font-size="14.00">study</text>
<text text-anchor="start" x="1373.13" y="-1506.47" font-family="Times,serif" font-size="14.00">63:63</text>
</g>
<!-- id_27473877_DOT_5&#45;&#45;id_27473877_DOT_10 -->
<g id="edge16" class="edge">
<title>id_27473877_DOT_5&#45;&#45;id_27473877_DOT_10</title>
<path fill="none" stroke="black" stroke-dasharray="1,5" d="M1647.45,-1793.99C1590.2,-1734.32 1470.26,-1609.29 1416.34,-1553.1"/>
<text text-anchor="middle" x="1505.64" y="-1676.34" font-family="Times,serif" font-size="14.00">0.893978</text>
</g>
<!-- id_27473877_DOT_21 -->
<g id="node21" class="node">
<title>id_27473877_DOT_21</title>
<polygon fill="darkorange" stroke="darkorange" points="2044.29,-1552.57 2047.72,-1552.76 2051.11,-1553.05 2054.46,-1553.44 2057.74,-1553.91 2060.94,-1554.48 2064.06,-1555.15 2067.07,-1555.9 2069.98,-1556.73 2072.76,-1557.66 2075.4,-1558.66 2077.91,-1559.75 2080.26,-1560.91 2082.46,-1562.14 2084.49,-1563.45 2086.35,-1564.82 2088.04,-1566.25 2089.55,-1567.75 2090.87,-1569.29 2092.02,-1570.89 2092.98,-1572.54 2093.76,-1574.22 2094.35,-1575.94 2094.77,-1577.7 2095.01,-1579.48 2095.07,-1581.29 2094.96,-1583.11 2094.69,-1584.94 2094.26,-1586.79 2093.68,-1588.63 2092.95,-1590.48 2092.08,-1592.31 2091.07,-1594.13 2089.94,-1595.94 2088.69,-1597.72 2087.33,-1599.48 2085.87,-1601.2 2084.31,-1602.88 2082.66,-1604.53 2080.94,-1606.13 2079.13,-1607.67 2077.26,-1609.17 2075.33,-1610.6 2073.35,-1611.97 2071.32,-1613.28 2069.25,-1614.51 2067.13,-1615.67 2064.99,-1616.76 2062.82,-1617.76 2060.62,-1618.69 2058.4,-1619.52 2056.17,-1620.27 2053.92,-1620.94 2051.66,-1621.51 2049.39,-1621.98 2047.12,-1622.37 2044.83,-1622.66 2042.55,-1622.85 2040.26,-1622.94 2037.97,-1622.94 2035.68,-1622.85 2033.39,-1622.66 2031.11,-1622.37 2028.84,-1621.98 2026.57,-1621.51 2024.31,-1620.94 2022.06,-1620.27 2019.82,-1619.52 2017.61,-1618.69 2015.41,-1617.76 2013.24,-1616.76 2011.09,-1615.67 2008.98,-1614.51 2006.91,-1613.28 2004.88,-1611.97 2002.89,-1610.6 2000.96,-1609.17 1999.1,-1607.67 1997.29,-1606.13 1995.56,-1604.53 1993.92,-1602.88 1992.36,-1601.2 1990.89,-1599.48 1989.53,-1597.72 1988.29,-1595.94 1987.15,-1594.13 1986.15,-1592.31 1985.28,-1590.48 1984.55,-1588.63 1983.96,-1586.79 1983.53,-1584.94 1983.26,-1583.11 1983.16,-1581.29 1983.22,-1579.48 1983.46,-1577.7 1983.88,-1575.94 1984.47,-1574.22 1985.25,-1572.54 1986.21,-1570.89 1987.35,-1569.29 1988.68,-1567.75 1990.19,-1566.25 1991.88,-1564.82 1993.74,-1563.45 1995.77,-1562.14 1997.97,-1560.91 2000.32,-1559.75 2002.82,-1558.66 2005.47,-1557.66 2008.25,-1556.73 2011.15,-1555.9 2014.17,-1555.15 2017.29,-1554.48 2020.49,-1553.91 2023.77,-1553.44 2027.11,-1553.05 2030.51,-1552.76 2033.94,-1552.57 2037.39,-1552.47 2040.84,-1552.47 2044.29,-1552.57"/>
<text text-anchor="start" x="2009.95" y="-1597.51" font-family="Times,serif" font-size="14.00">C0028702</text>
<text text-anchor="start" x="2026.67" y="-1583.51" font-family="Times,serif" font-size="14.00">duty</text>
<text text-anchor="start" x="2016.17" y="-1569.51" font-family="Times,serif" font-size="14.00">157:157</text>
</g>
<!-- id_27473877_DOT_5&#45;&#45;id_27473877_DOT_21 -->
<g id="edge17" class="edge">
<title>id_27473877_DOT_5&#45;&#45;id_27473877_DOT_21</title>
<path fill="none" stroke="black" stroke-dasharray="1,5" d="M1724.27,-1796.86C1796.8,-1748.67 1937.64,-1655.12 2003.52,-1611.35"/>
<text text-anchor="middle" x="1837.64" y="-1706.91" font-family="Times,serif" font-size="14.00">0.767694</text>
</g>
<!-- id_27473877_DOT_6&#45;&#45;id_27473877_DOT_12 -->
<g id="edge18" class="edge">
<title>id_27473877_DOT_6&#45;&#45;id_27473877_DOT_12</title>
<path fill="none" stroke="black" stroke-dasharray="1,5" d="M1455.84,-2240.86C1398.97,-2291.26 1276.42,-2399.88 1215.32,-2454.03"/>
<text text-anchor="middle" x="1309.33" y="-2350.25" font-family="Times,serif" font-size="14.00">0.820676</text>
</g>
<!-- id_27473877_DOT_7 -->
<g id="node7" class="node">
<title>id_27473877_DOT_7</title>
<polygon fill="cadetblue" stroke="cadetblue" points="2255.01,-1333.95 2258.44,-1334.14 2261.84,-1334.43 2265.18,-1334.81 2268.46,-1335.29 2271.66,-1335.86 2274.78,-1336.52 2277.8,-1337.27 2280.7,-1338.11 2283.48,-1339.03 2286.13,-1340.04 2288.63,-1341.12 2290.98,-1342.29 2293.18,-1343.52 2295.21,-1344.83 2297.07,-1346.2 2298.76,-1347.63 2300.27,-1349.12 2301.6,-1350.67 2302.74,-1352.27 2303.7,-1353.91 2304.48,-1355.6 2305.08,-1357.32 2305.49,-1359.08 2305.73,-1360.86 2305.79,-1362.66 2305.69,-1364.49 2305.42,-1366.32 2304.99,-1368.17 2304.4,-1370.01 2303.67,-1371.85 2302.8,-1373.69 2301.8,-1375.51 2300.66,-1377.32 2299.42,-1379.1 2298.06,-1380.85 2296.59,-1382.58 2295.03,-1384.26 2293.39,-1385.91 2291.66,-1387.5 2289.85,-1389.05 2287.99,-1390.55 2286.06,-1391.98 2284.07,-1393.35 2282.04,-1394.66 2279.97,-1395.89 2277.86,-1397.05 2275.71,-1398.14 2273.54,-1399.14 2271.34,-1400.06 2269.13,-1400.9 2266.89,-1401.65 2264.64,-1402.31 2262.38,-1402.88 2260.12,-1403.36 2257.84,-1403.75 2255.56,-1404.03 2253.27,-1404.23 2250.98,-1404.32 2248.69,-1404.32 2246.4,-1404.23 2244.12,-1404.03 2241.83,-1403.75 2239.56,-1403.36 2237.29,-1402.88 2235.03,-1402.31 2232.78,-1401.65 2230.55,-1400.9 2228.33,-1400.06 2226.13,-1399.14 2223.96,-1398.14 2221.82,-1397.05 2219.7,-1395.89 2217.63,-1394.66 2215.6,-1393.35 2213.62,-1391.98 2211.69,-1390.55 2209.82,-1389.05 2208.02,-1387.5 2206.29,-1385.91 2204.64,-1384.26 2203.08,-1382.58 2201.62,-1380.85 2200.26,-1379.1 2199.01,-1377.32 2197.88,-1375.51 2196.87,-1373.69 2196,-1371.85 2195.27,-1370.01 2194.69,-1368.17 2194.26,-1366.32 2193.99,-1364.49 2193.88,-1362.66 2193.94,-1360.86 2194.18,-1359.08 2194.6,-1357.32 2195.19,-1355.6 2195.97,-1353.91 2196.93,-1352.27 2198.08,-1350.67 2199.4,-1349.12 2200.91,-1347.63 2202.6,-1346.2 2204.46,-1344.83 2206.49,-1343.52 2208.69,-1342.29 2211.04,-1341.12 2213.55,-1340.04 2216.19,-1339.03 2218.97,-1338.11 2221.88,-1337.27 2224.89,-1336.52 2228.01,-1335.86 2231.21,-1335.29 2234.49,-1334.81 2237.84,-1334.43 2241.23,-1334.14 2244.66,-1333.95 2248.11,-1333.85 2251.56,-1333.85 2255.01,-1333.95"/>
<text text-anchor="start" x="2220.67" y="-1378.89" font-family="Times,serif" font-size="14.00">C0028698</text>
<text text-anchor="start" x="2237.52" y="-1364.89" font-family="Times,serif" font-size="14.00">staff</text>
<text text-anchor="start" x="2233.89" y="-1350.89" font-family="Times,serif" font-size="14.00">43:43</text>
</g>
<!-- id_27473877_DOT_7&#45;&#45;id_27473877_DOT_21 -->
<g id="edge19" class="edge">
<title>id_27473877_DOT_7&#45;&#45;id_27473877_DOT_21</title>
<path fill="none" stroke="black" stroke-dasharray="1,5" d="M2222.29,-1397.67C2182.8,-1438.64 2110.35,-1513.8 2069.4,-1556.29"/>
<text text-anchor="middle" x="2119.59" y="-1479.78" font-family="Times,serif" font-size="14.00">0.764948</text>
</g>
<!-- id_27473877_DOT_8 -->
<g id="node8" class="node">
<title>id_27473877_DOT_8</title>
<polygon fill="chartreuse" stroke="chartreuse" points="3914.1,-2349.4 3918.47,-2349.59 3922.81,-2349.88 3927.07,-2350.27 3931.26,-2350.74 3935.35,-2351.31 3939.33,-2351.97 3943.18,-2352.72 3946.89,-2353.56 3950.44,-2354.49 3953.81,-2355.49 3957.01,-2356.57 3960.02,-2357.74 3962.82,-2358.97 3965.41,-2360.28 3967.79,-2361.65 3969.94,-2363.08 3971.87,-2364.57 3973.56,-2366.12 3975.03,-2367.72 3976.25,-2369.36 3977.25,-2371.05 3978.01,-2372.77 3978.54,-2374.53 3978.84,-2376.31 3978.92,-2378.12 3978.79,-2379.94 3978.44,-2381.77 3977.89,-2383.62 3977.15,-2385.46 3976.21,-2387.3 3975.1,-2389.14 3973.82,-2390.96 3972.38,-2392.77 3970.78,-2394.55 3969.05,-2396.3 3967.18,-2398.03 3965.19,-2399.71 3963.08,-2401.36 3960.88,-2402.96 3958.58,-2404.5 3956.19,-2406 3953.73,-2407.43 3951.19,-2408.8 3948.6,-2410.11 3945.95,-2411.34 3943.26,-2412.5 3940.52,-2413.59 3937.75,-2414.59 3934.94,-2415.51 3932.11,-2416.35 3929.26,-2417.1 3926.39,-2417.76 3923.51,-2418.33 3920.61,-2418.81 3917.7,-2419.2 3914.79,-2419.48 3911.87,-2419.68 3908.95,-2419.77 3906.03,-2419.77 3903.1,-2419.68 3900.19,-2419.48 3897.27,-2419.2 3894.37,-2418.81 3891.47,-2418.33 3888.58,-2417.76 3885.71,-2417.1 3882.86,-2416.35 3880.03,-2415.51 3877.23,-2414.59 3874.45,-2413.59 3871.72,-2412.5 3869.02,-2411.34 3866.37,-2410.11 3863.78,-2408.8 3861.25,-2407.43 3858.78,-2406 3856.4,-2404.5 3854.1,-2402.96 3851.89,-2401.36 3849.79,-2399.71 3847.8,-2398.03 3845.93,-2396.3 3844.19,-2394.55 3842.6,-2392.77 3841.16,-2390.96 3839.87,-2389.14 3838.76,-2387.3 3837.83,-2385.46 3837.08,-2383.62 3836.53,-2381.77 3836.19,-2379.94 3836.05,-2378.12 3836.13,-2376.31 3836.44,-2374.53 3836.97,-2372.77 3837.73,-2371.05 3838.72,-2369.36 3839.95,-2367.72 3841.41,-2366.12 3843.11,-2364.57 3845.03,-2363.08 3847.18,-2361.65 3849.56,-2360.28 3852.15,-2358.97 3854.96,-2357.74 3857.96,-2356.57 3861.16,-2355.49 3864.54,-2354.49 3868.09,-2353.56 3871.79,-2352.72 3875.64,-2351.97 3879.62,-2351.31 3883.71,-2350.74 3887.9,-2350.27 3892.17,-2349.88 3896.5,-2349.59 3900.88,-2349.4 3905.28,-2349.3 3909.69,-2349.3 3914.1,-2349.4"/>
<text text-anchor="start" x="3878.57" y="-2394.34" font-family="Times,serif" font-size="14.00">C0036911</text>
<text text-anchor="start" x="3868.03" y="-2380.34" font-family="Times,serif" font-size="14.00">sexual partner</text>
<text text-anchor="start" x="3891.54" y="-2366.34" font-family="Times,serif" font-size="14.00">52:53</text>
</g>
<!-- id_27473877_DOT_20 -->
<g id="node20" class="node">
<title>id_27473877_DOT_20</title>
<polygon fill="darkgoldenrod" stroke="darkgoldenrod" points="3559.21,-2200.96 3562.64,-2201.16 3566.03,-2201.44 3569.38,-2201.83 3572.66,-2202.31 3575.86,-2202.88 3578.98,-2203.54 3581.99,-2204.29 3584.9,-2205.13 3587.68,-2206.05 3590.32,-2207.05 3592.83,-2208.14 3595.18,-2209.3 3597.38,-2210.53 3599.41,-2211.84 3601.27,-2213.21 3602.96,-2214.64 3604.47,-2216.14 3605.79,-2217.68 3606.94,-2219.28 3607.9,-2220.93 3608.68,-2222.61 3609.27,-2224.34 3609.69,-2226.09 3609.93,-2227.87 3609.99,-2229.68 3609.89,-2231.5 3609.62,-2233.34 3609.19,-2235.18 3608.6,-2237.02 3607.87,-2238.87 3607,-2240.7 3605.99,-2242.52 3604.86,-2244.33 3603.61,-2246.11 3602.25,-2247.87 3600.79,-2249.59 3599.23,-2251.28 3597.58,-2252.92 3595.86,-2254.52 3594.05,-2256.07 3592.19,-2257.56 3590.26,-2258.99 3588.27,-2260.36 3586.24,-2261.67 3584.17,-2262.9 3582.06,-2264.07 3579.91,-2265.15 3577.74,-2266.16 3575.54,-2267.08 3573.33,-2267.92 3571.09,-2268.67 3568.84,-2269.33 3566.58,-2269.9 3564.31,-2270.38 3562.04,-2270.76 3559.75,-2271.05 3557.47,-2271.24 3555.18,-2271.34 3552.89,-2271.34 3550.6,-2271.24 3548.32,-2271.05 3546.03,-2270.76 3543.76,-2270.38 3541.49,-2269.9 3539.23,-2269.33 3536.98,-2268.67 3534.74,-2267.92 3532.53,-2267.08 3530.33,-2266.16 3528.16,-2265.15 3526.02,-2264.07 3523.9,-2262.9 3521.83,-2261.67 3519.8,-2260.36 3517.82,-2258.99 3515.89,-2257.56 3514.02,-2256.07 3512.21,-2254.52 3510.49,-2252.92 3508.84,-2251.28 3507.28,-2249.59 3505.82,-2247.87 3504.46,-2246.11 3503.21,-2244.33 3502.08,-2242.52 3501.07,-2240.7 3500.2,-2238.87 3499.47,-2237.02 3498.89,-2235.18 3498.46,-2233.34 3498.18,-2231.5 3498.08,-2229.68 3498.14,-2227.87 3498.38,-2226.09 3498.8,-2224.34 3499.39,-2222.61 3500.17,-2220.93 3501.13,-2219.28 3502.28,-2217.68 3503.6,-2216.14 3505.11,-2214.64 3506.8,-2213.21 3508.66,-2211.84 3510.69,-2210.53 3512.89,-2209.3 3515.24,-2208.14 3517.75,-2207.05 3520.39,-2206.05 3523.17,-2205.13 3526.08,-2204.29 3529.09,-2203.54 3532.21,-2202.88 3535.41,-2202.31 3538.69,-2201.83 3542.04,-2201.44 3545.43,-2201.16 3548.86,-2200.96 3552.31,-2200.87 3555.76,-2200.87 3559.21,-2200.96"/>
<text text-anchor="start" x="3524.87" y="-2245.9" font-family="Times,serif" font-size="14.00">C2347958</text>
<text text-anchor="start" x="3529.15" y="-2231.9" font-family="Times,serif" font-size="14.00">residents</text>
<text text-anchor="start" x="3531.09" y="-2217.9" font-family="Times,serif" font-size="14.00">136:136</text>
</g>
<!-- id_27473877_DOT_8&#45;&#45;id_27473877_DOT_20 -->
<g id="edge20" class="edge">
<title>id_27473877_DOT_8&#45;&#45;id_27473877_DOT_20</title>
<path fill="none" stroke="black" stroke-dasharray="1,5" d="M3849.52,-2360.19C3778.52,-2330.38 3659.94,-2280.58 3596.74,-2254.04"/>
<text text-anchor="middle" x="3696.88" y="-2309.92" font-family="Times,serif" font-size="14.00">0.552498</text>
</g>
<!-- id_27473877_DOT_15 -->
<g id="node15" class="node">
<title>id_27473877_DOT_15</title>
<polygon fill="darkgoldenrod" stroke="darkgoldenrod" points="2899.19,-1791.78 2904.43,-1791.98 2909.62,-1792.27 2914.74,-1792.65 2919.75,-1793.13 2924.66,-1793.7 2929.42,-1794.36 2934.04,-1795.11 2938.48,-1795.95 2942.73,-1796.87 2946.78,-1797.88 2950.61,-1798.96 2954.21,-1800.12 2957.57,-1801.36 2960.68,-1802.66 2963.52,-1804.03 2966.1,-1805.47 2968.41,-1806.96 2970.44,-1808.51 2972.19,-1810.11 2973.66,-1811.75 2974.85,-1813.44 2975.76,-1815.16 2976.4,-1816.91 2976.76,-1818.7 2976.86,-1820.5 2976.7,-1822.32 2976.28,-1824.16 2975.63,-1826 2974.73,-1827.85 2973.62,-1829.69 2972.28,-1831.52 2970.75,-1833.35 2969.02,-1835.15 2967.11,-1836.93 2965.03,-1838.69 2962.79,-1840.41 2960.4,-1842.1 2957.88,-1843.74 2955.24,-1845.34 2952.48,-1846.89 2949.62,-1848.38 2946.67,-1849.82 2943.64,-1851.19 2940.53,-1852.49 2937.36,-1853.73 2934.13,-1854.89 2930.85,-1855.97 2927.53,-1856.98 2924.17,-1857.9 2920.78,-1858.74 2917.36,-1859.49 2913.92,-1860.15 2910.46,-1860.72 2906.99,-1861.2 2903.51,-1861.58 2900.02,-1861.87 2896.52,-1862.06 2893.02,-1862.16 2889.52,-1862.16 2886.02,-1862.06 2882.52,-1861.87 2879.03,-1861.58 2875.55,-1861.2 2872.07,-1860.72 2868.62,-1860.15 2865.18,-1859.49 2861.76,-1858.74 2858.37,-1857.9 2855.01,-1856.98 2851.69,-1855.97 2848.41,-1854.89 2845.18,-1853.73 2842.01,-1852.49 2838.9,-1851.19 2835.86,-1849.82 2832.91,-1848.38 2830.05,-1846.89 2827.3,-1845.34 2824.65,-1843.74 2822.13,-1842.1 2819.75,-1840.41 2817.51,-1838.69 2815.43,-1836.93 2813.52,-1835.15 2811.79,-1833.35 2810.25,-1831.52 2808.92,-1829.69 2807.8,-1827.85 2806.91,-1826 2806.25,-1824.16 2805.84,-1822.32 2805.68,-1820.5 2805.77,-1818.7 2806.14,-1816.91 2806.77,-1815.16 2807.68,-1813.44 2808.87,-1811.75 2810.34,-1810.11 2812.1,-1808.51 2814.13,-1806.96 2816.43,-1805.47 2819.01,-1804.03 2821.86,-1802.66 2824.97,-1801.36 2828.33,-1800.12 2831.93,-1798.96 2835.76,-1797.88 2839.81,-1796.87 2844.06,-1795.95 2848.5,-1795.11 2853.11,-1794.36 2857.88,-1793.7 2862.78,-1793.13 2867.8,-1792.65 2872.91,-1792.27 2878.1,-1791.98 2883.35,-1791.78 2888.62,-1791.69 2893.91,-1791.69 2899.19,-1791.78"/>
<text text-anchor="start" x="2862.1" y="-1836.72" font-family="Times,serif" font-size="14.00">C2347958</text>
<text text-anchor="start" x="2842.47" y="-1822.72" font-family="Times,serif" font-size="14.00">Spanish residents</text>
<text text-anchor="start" x="2868.32" y="-1808.72" font-family="Times,serif" font-size="14.00">107:108</text>
</g>
<!-- id_27473877_DOT_11&#45;&#45;id_27473877_DOT_15 -->
<g id="edge21" class="edge">
<title>id_27473877_DOT_11&#45;&#45;id_27473877_DOT_15</title>
<path fill="none" stroke="black" stroke-dasharray="1,5" d="M3152.31,-1552.46C3096.15,-1611.5 2979.56,-1734.09 2923.18,-1793.38"/>
<text text-anchor="middle" x="3011.49" y="-1675.72" font-family="Times,serif" font-size="14.00">0.722582</text>
</g>
<!-- id_27473877_DOT_14&#45;&#45;id_27473877_DOT_21 -->
<g id="edge22" class="edge">
<title>id_27473877_DOT_14&#45;&#45;id_27473877_DOT_21</title>
<path fill="none" stroke="black" stroke-dasharray="1,5" d="M1954.76,-1152.48C1971.63,-1239.53 2015.38,-1465.23 2032.29,-1552.52"/>
<text text-anchor="middle" x="1967.28" y="-1355.3" font-family="Times,serif" font-size="14.00">0.880072</text>
</g>
<!-- id_27473877_DOT_17 -->
<g id="node17" class="node">
<title>id_27473877_DOT_17</title>
<polygon fill="darkgreen" stroke="darkgreen" points="2469.18,-1725.41 2472.61,-1725.6 2476,-1725.89 2479.34,-1726.28 2482.62,-1726.75 2485.83,-1727.32 2488.94,-1727.98 2491.96,-1728.73 2494.86,-1729.57 2497.64,-1730.5 2500.29,-1731.5 2502.79,-1732.59 2505.15,-1733.75 2507.34,-1734.98 2509.37,-1736.29 2511.24,-1737.66 2512.92,-1739.09 2514.43,-1740.58 2515.76,-1742.13 2516.9,-1743.73 2517.86,-1745.37 2518.64,-1747.06 2519.24,-1748.78 2519.65,-1750.54 2519.89,-1752.32 2519.96,-1754.13 2519.85,-1755.95 2519.58,-1757.78 2519.15,-1759.63 2518.56,-1761.47 2517.83,-1763.31 2516.96,-1765.15 2515.96,-1766.97 2514.83,-1768.78 2513.58,-1770.56 2512.22,-1772.31 2510.75,-1774.04 2509.2,-1775.72 2507.55,-1777.37 2505.82,-1778.97 2504.02,-1780.51 2502.15,-1782.01 2500.22,-1783.44 2498.24,-1784.81 2496.2,-1786.12 2494.13,-1787.35 2492.02,-1788.51 2489.87,-1789.6 2487.7,-1790.6 2485.51,-1791.52 2483.29,-1792.36 2481.06,-1793.11 2478.81,-1793.77 2476.55,-1794.34 2474.28,-1794.82 2472,-1795.21 2469.72,-1795.49 2467.43,-1795.69 2465.14,-1795.78 2462.85,-1795.78 2460.57,-1795.69 2458.28,-1795.49 2456,-1795.21 2453.72,-1794.82 2451.45,-1794.34 2449.19,-1793.77 2446.94,-1793.11 2444.71,-1792.36 2442.49,-1791.52 2440.29,-1790.6 2438.12,-1789.6 2435.98,-1788.51 2433.87,-1787.35 2431.79,-1786.12 2429.76,-1784.81 2427.78,-1783.44 2425.85,-1782.01 2423.98,-1780.51 2422.18,-1778.97 2420.45,-1777.37 2418.8,-1775.72 2417.24,-1774.04 2415.78,-1772.31 2414.42,-1770.56 2413.17,-1768.78 2412.04,-1766.97 2411.03,-1765.15 2410.16,-1763.31 2409.43,-1761.47 2408.85,-1759.63 2408.42,-1757.78 2408.15,-1755.95 2408.04,-1754.13 2408.11,-1752.32 2408.34,-1750.54 2408.76,-1748.78 2409.36,-1747.06 2410.13,-1745.37 2411.09,-1743.73 2412.24,-1742.13 2413.57,-1740.58 2415.08,-1739.09 2416.76,-1737.66 2418.62,-1736.29 2420.65,-1734.98 2422.85,-1733.75 2425.2,-1732.59 2427.71,-1731.5 2430.36,-1730.5 2433.14,-1729.57 2436.04,-1728.73 2439.05,-1727.98 2442.17,-1727.32 2445.38,-1726.75 2448.66,-1726.28 2452,-1725.89 2455.39,-1725.6 2458.82,-1725.41 2462.27,-1725.31 2465.73,-1725.31 2469.18,-1725.41"/>
<text text-anchor="start" x="2434.83" y="-1770.35" font-family="Times,serif" font-size="14.00">C0017446</text>
<text text-anchor="start" x="2443.39" y="-1756.35" font-family="Times,serif" font-size="14.00">Madrid</text>
<text text-anchor="start" x="2441.57" y="-1742.35" font-family="Times,serif" font-size="14.00">113:113</text>
</g>
<!-- id_27473877_DOT_15&#45;&#45;id_27473877_DOT_17 -->
<g id="edge23" class="edge">
<title>id_27473877_DOT_15&#45;&#45;id_27473877_DOT_17</title>
<path fill="none" stroke="black" stroke-dasharray="1,5" d="M2807.36,-1813.89C2720.48,-1800.39 2587.52,-1779.74 2515.19,-1768.5"/>
<text text-anchor="middle" x="2635.03" y="-1794" font-family="Times,serif" font-size="14.00">0.838188</text>
</g>
<!-- id_27473877_DOT_22 -->
<g id="node22" class="node">
<title>id_27473877_DOT_22</title>
<polygon fill="darkgoldenrod" stroke="darkgoldenrod" points="3156.4,-2128.57 3159.83,-2128.76 3163.22,-2129.05 3166.56,-2129.44 3169.84,-2129.91 3173.05,-2130.48 3176.16,-2131.15 3179.18,-2131.9 3182.08,-2132.73 3184.86,-2133.66 3187.51,-2134.66 3190.01,-2135.75 3192.37,-2136.91 3194.56,-2138.14 3196.6,-2139.45 3198.46,-2140.82 3200.14,-2142.25 3201.65,-2143.75 3202.98,-2145.29 3204.12,-2146.89 3205.09,-2148.54 3205.86,-2150.22 3206.46,-2151.94 3206.88,-2153.7 3207.11,-2155.48 3207.18,-2157.29 3207.07,-2159.11 3206.8,-2160.94 3206.37,-2162.79 3205.79,-2164.63 3205.06,-2166.48 3204.18,-2168.31 3203.18,-2170.13 3202.05,-2171.94 3200.8,-2173.72 3199.44,-2175.48 3197.98,-2177.2 3196.42,-2178.88 3194.77,-2180.53 3193.04,-2182.13 3191.24,-2183.67 3189.37,-2185.17 3187.44,-2186.6 3185.46,-2187.97 3183.43,-2189.28 3181.35,-2190.51 3179.24,-2191.67 3177.1,-2192.76 3174.92,-2193.76 3172.73,-2194.69 3170.51,-2195.52 3168.28,-2196.27 3166.03,-2196.94 3163.77,-2197.51 3161.5,-2197.98 3159.22,-2198.37 3156.94,-2198.66 3154.65,-2198.85 3152.37,-2198.95 3150.08,-2198.95 3147.79,-2198.85 3145.5,-2198.66 3143.22,-2198.37 3140.94,-2197.98 3138.67,-2197.51 3136.41,-2196.94 3134.16,-2196.27 3131.93,-2195.52 3129.71,-2194.69 3127.52,-2193.76 3125.34,-2192.76 3123.2,-2191.67 3121.09,-2190.51 3119.02,-2189.28 3116.98,-2187.97 3115,-2186.6 3113.07,-2185.17 3111.2,-2183.67 3109.4,-2182.13 3107.67,-2180.53 3106.02,-2178.88 3104.46,-2177.2 3103,-2175.48 3101.64,-2173.72 3100.39,-2171.94 3099.26,-2170.13 3098.26,-2168.31 3097.39,-2166.48 3096.65,-2164.63 3096.07,-2162.79 3095.64,-2160.94 3095.37,-2159.11 3095.26,-2157.29 3095.33,-2155.48 3095.57,-2153.7 3095.98,-2151.94 3096.58,-2150.22 3097.36,-2148.54 3098.32,-2146.89 3099.46,-2145.29 3100.79,-2143.75 3102.3,-2142.25 3103.98,-2140.82 3105.85,-2139.45 3107.88,-2138.14 3110.07,-2136.91 3112.43,-2135.75 3114.93,-2134.66 3117.58,-2133.66 3120.36,-2132.73 3123.26,-2131.9 3126.28,-2131.15 3129.39,-2130.48 3132.6,-2129.91 3135.88,-2129.44 3139.22,-2129.05 3142.61,-2128.76 3146.04,-2128.57 3149.49,-2128.47 3152.95,-2128.47 3156.4,-2128.57"/>
<text text-anchor="start" x="3122.05" y="-2173.51" font-family="Times,serif" font-size="14.00">C2347958</text>
<text text-anchor="start" x="3126.34" y="-2159.51" font-family="Times,serif" font-size="14.00">residents</text>
<text text-anchor="start" x="3128.28" y="-2145.51" font-family="Times,serif" font-size="14.00">165:165</text>
</g>
<!-- id_27473877_DOT_15&#45;&#45;id_27473877_DOT_22 -->
<g id="edge6" class="edge">
<title>id_27473877_DOT_15&#45;&#45;id_27473877_DOT_22</title>
<path fill="none" stroke="black" d="M2916.67,-1859.83C2966.49,-1924.38 3076.5,-2066.91 3126.1,-2131.17"/>
<text text-anchor="middle" x="2995.13" y="-1998.3" font-family="Times,serif" font-size="14.00">0.085298</text>
</g>
<!-- id_27473877_DOT_17&#45;&#45;id_27473877_DOT_21 -->
<g id="edge24" class="edge">
<title>id_27473877_DOT_17&#45;&#45;id_27473877_DOT_21</title>
<path fill="none" stroke="black" stroke-dasharray="1,5" d="M2413.59,-1740.04C2329.29,-1705.75 2161.18,-1637.37 2082.11,-1605.2"/>
<text text-anchor="middle" x="2221.6" y="-1675.42" font-family="Times,serif" font-size="14.00">0.872535</text>
</g>
<!-- id_27473877_DOT_18 -->
<g id="node18" class="node">
<title>id_27473877_DOT_18</title>
<polygon fill="darkkhaki" stroke="darkkhaki" points="1488.04,-0.23 1491.46,-0.42 1494.86,-0.71 1498.2,-1.09 1501.48,-1.57 1504.69,-2.14 1507.8,-2.8 1510.82,-3.55 1513.72,-4.39 1516.5,-5.31 1519.15,-6.32 1521.65,-7.4 1524.01,-8.57 1526.2,-9.8 1528.23,-11.1 1530.09,-12.48 1531.78,-13.91 1533.29,-15.4 1534.62,-16.95 1535.76,-18.55 1536.72,-20.19 1537.5,-21.88 1538.1,-23.6 1538.51,-25.36 1538.75,-27.14 1538.81,-28.94 1538.71,-30.77 1538.44,-32.6 1538.01,-34.44 1537.42,-36.29 1536.69,-38.13 1535.82,-39.97 1534.82,-41.79 1533.69,-43.6 1532.44,-45.38 1531.08,-47.13 1529.61,-48.86 1528.05,-50.54 1526.41,-52.19 1524.68,-53.78 1522.88,-55.33 1521.01,-56.82 1519.08,-58.26 1517.09,-59.63 1515.06,-60.94 1512.99,-62.17 1510.88,-63.33 1508.73,-64.42 1506.56,-65.42 1504.37,-66.34 1502.15,-67.18 1499.91,-67.93 1497.67,-68.59 1495.41,-69.16 1493.14,-69.64 1490.86,-70.02 1488.58,-70.31 1486.29,-70.51 1484,-70.6 1481.71,-70.6 1479.42,-70.51 1477.14,-70.31 1474.86,-70.02 1472.58,-69.64 1470.31,-69.16 1468.05,-68.59 1465.8,-67.93 1463.57,-67.18 1461.35,-66.34 1459.15,-65.42 1456.98,-64.42 1454.84,-63.33 1452.73,-62.17 1450.65,-60.94 1448.62,-59.63 1446.64,-58.26 1444.71,-56.82 1442.84,-55.33 1441.04,-53.78 1439.31,-52.19 1437.66,-50.54 1436.1,-48.86 1434.64,-47.13 1433.28,-45.38 1432.03,-43.6 1430.9,-41.79 1429.89,-39.97 1429.02,-38.13 1428.29,-36.29 1427.71,-34.44 1427.28,-32.6 1427.01,-30.77 1426.9,-28.94 1426.97,-27.14 1427.2,-25.36 1427.62,-23.6 1428.21,-21.88 1428.99,-20.19 1429.95,-18.55 1431.1,-16.95 1432.43,-15.4 1433.93,-13.91 1435.62,-12.48 1437.48,-11.1 1439.51,-9.8 1441.71,-8.57 1444.06,-7.4 1446.57,-6.32 1449.22,-5.31 1452,-4.39 1454.9,-3.55 1457.91,-2.8 1461.03,-2.14 1464.23,-1.57 1467.52,-1.09 1470.86,-0.71 1474.25,-0.42 1477.68,-0.23 1481.13,-0.13 1484.59,-0.13 1488.04,-0.23"/>
<text text-anchor="start" x="1453.69" y="-45.17" font-family="Times,serif" font-size="14.00">C0936012</text>
<text text-anchor="start" x="1457.99" y="-31.17" font-family="Times,serif" font-size="14.00">analyzed</text>
<text text-anchor="start" x="1459.91" y="-17.17" font-family="Times,serif" font-size="14.00">129:129</text>
</g>
<!-- id_27473877_DOT_18&#45;&#45;id_27473877_DOT_19 -->
<g id="edge7" class="edge">
<title>id_27473877_DOT_18&#45;&#45;id_27473877_DOT_19</title>
<path fill="none" stroke="black" d="M1497.33,-68.85C1526.2,-135.61 1590.67,-284.72 1620.1,-352.77"/>
<text text-anchor="middle" x="1532.47" y="-213.61" font-family="Times,serif" font-size="14.00">0.013404</text>
</g>
<!-- id_27473877_DOT_20&#45;&#45;id_27473877_DOT_22 -->
<g id="edge8" class="edge">
<title>id_27473877_DOT_20&#45;&#45;id_27473877_DOT_22</title>
<path fill="none" stroke="black" d="M3498.03,-2226.04C3419.34,-2211.89 3277.25,-2186.36 3201.68,-2172.78"/>
<text text-anchor="middle" x="3323.6" y="-2202.21" font-family="Times,serif" font-size="14.00">0.003167</text>
</g>
<!-- id_27473877_DOT_25 -->
<g id="node25" class="node">
<title>id_27473877_DOT_25</title>
<polygon fill="darkgoldenrod" stroke="darkgoldenrod" points="3157.05,-2528.51 3160.48,-2528.71 3163.87,-2528.99 3167.21,-2529.38 3170.5,-2529.85 3173.7,-2530.43 3176.82,-2531.09 3179.83,-2531.84 3182.73,-2532.67 3185.51,-2533.6 3188.16,-2534.6 3190.67,-2535.69 3193.02,-2536.85 3195.22,-2538.08 3197.25,-2539.39 3199.11,-2540.76 3200.8,-2542.19 3202.3,-2543.69 3203.63,-2545.23 3204.78,-2546.83 3205.74,-2548.48 3206.52,-2550.16 3207.11,-2551.89 3207.53,-2553.64 3207.76,-2555.42 3207.83,-2557.23 3207.72,-2559.05 3207.45,-2560.89 3207.02,-2562.73 3206.44,-2564.57 3205.71,-2566.42 3204.84,-2568.25 3203.83,-2570.07 3202.7,-2571.88 3201.45,-2573.66 3200.09,-2575.42 3198.63,-2577.14 3197.07,-2578.83 3195.42,-2580.47 3193.69,-2582.07 3191.89,-2583.62 3190.02,-2585.11 3188.09,-2586.54 3186.11,-2587.91 3184.08,-2589.22 3182,-2590.45 3179.89,-2591.61 3177.75,-2592.7 3175.58,-2593.7 3173.38,-2594.63 3171.16,-2595.46 3168.93,-2596.22 3166.68,-2596.88 3164.42,-2597.45 3162.15,-2597.92 3159.87,-2598.31 3157.59,-2598.6 3155.31,-2598.79 3153.02,-2598.89 3150.73,-2598.89 3148.44,-2598.79 3146.15,-2598.6 3143.87,-2598.31 3141.59,-2597.92 3139.32,-2597.45 3137.06,-2596.88 3134.82,-2596.22 3132.58,-2595.46 3130.36,-2594.63 3128.17,-2593.7 3126,-2592.7 3123.85,-2591.61 3121.74,-2590.45 3119.67,-2589.22 3117.64,-2587.91 3115.65,-2586.54 3113.72,-2585.11 3111.85,-2583.62 3110.05,-2582.07 3108.32,-2580.47 3106.68,-2578.83 3105.12,-2577.14 3103.65,-2575.42 3102.29,-2573.66 3101.04,-2571.88 3099.91,-2570.07 3098.91,-2568.25 3098.04,-2566.42 3097.31,-2564.57 3096.72,-2562.73 3096.29,-2560.89 3096.02,-2559.05 3095.92,-2557.23 3095.98,-2555.42 3096.22,-2553.64 3096.63,-2551.89 3097.23,-2550.16 3098.01,-2548.48 3098.97,-2546.83 3100.11,-2545.23 3101.44,-2543.69 3102.95,-2542.19 3104.64,-2540.76 3106.5,-2539.39 3108.53,-2538.08 3110.72,-2536.85 3113.08,-2535.69 3115.58,-2534.6 3118.23,-2533.6 3121.01,-2532.67 3123.91,-2531.84 3126.93,-2531.09 3130.04,-2530.43 3133.25,-2529.85 3136.53,-2529.38 3139.87,-2528.99 3143.27,-2528.71 3146.69,-2528.51 3150.14,-2528.42 3153.6,-2528.42 3157.05,-2528.51"/>
<text text-anchor="start" x="3122.7" y="-2573.45" font-family="Times,serif" font-size="14.00">C2347958</text>
<text text-anchor="start" x="3126.99" y="-2559.45" font-family="Times,serif" font-size="14.00">residents</text>
<text text-anchor="start" x="3128.93" y="-2545.45" font-family="Times,serif" font-size="14.00">196:196</text>
</g>
<!-- id_27473877_DOT_22&#45;&#45;id_27473877_DOT_25 -->
<g id="edge9" class="edge">
<title>id_27473877_DOT_22&#45;&#45;id_27473877_DOT_25</title>
<path fill="none" stroke="black" d="M3151.28,-2199.2C3151.4,-2275.1 3151.69,-2452.41 3151.81,-2528.24"/>
<text text-anchor="middle" x="3125.55" y="-2366.52" font-family="Times,serif" font-size="14.00">0.001174</text>
</g>
<!-- id_27473877_DOT_23 -->
<g id="node23" class="node">
<title>id_27473877_DOT_23</title>
<polygon fill="aquamarine" stroke="aquamarine" points="863.31,-3507.86 868.12,-3508.05 872.88,-3508.34 877.57,-3508.72 882.18,-3509.2 886.68,-3509.77 891.05,-3510.43 895.28,-3511.18 899.36,-3512.02 903.26,-3512.94 906.97,-3513.95 910.49,-3515.03 913.79,-3516.19 916.88,-3517.43 919.73,-3518.73 922.34,-3520.1 924.71,-3521.54 926.82,-3523.03 928.69,-3524.58 930.29,-3526.18 931.64,-3527.82 932.74,-3529.51 933.57,-3531.23 934.15,-3532.98 934.49,-3534.77 934.58,-3536.57 934.43,-3538.39 934.05,-3540.23 933.45,-3542.07 932.63,-3543.92 931.6,-3545.76 930.38,-3547.6 928.97,-3549.42 927.38,-3551.22 925.63,-3553.01 923.72,-3554.76 921.67,-3556.48 919.48,-3558.17 917.16,-3559.81 914.74,-3561.41 912.21,-3562.96 909.59,-3564.45 906.88,-3565.89 904.09,-3567.26 901.24,-3568.56 898.33,-3569.8 895.37,-3570.96 892.36,-3572.04 889.31,-3573.05 886.23,-3573.97 883.12,-3574.81 879.98,-3575.56 876.82,-3576.22 873.65,-3576.79 870.47,-3577.27 867.27,-3577.65 864.07,-3577.94 860.86,-3578.13 857.65,-3578.23 854.43,-3578.23 851.22,-3578.13 848.01,-3577.94 844.81,-3577.65 841.61,-3577.27 838.43,-3576.79 835.25,-3576.22 832.1,-3575.56 828.96,-3574.81 825.85,-3573.97 822.77,-3573.05 819.72,-3572.04 816.71,-3570.96 813.75,-3569.8 810.84,-3568.56 807.99,-3567.26 805.2,-3565.89 802.49,-3564.45 799.87,-3562.96 797.34,-3561.41 794.91,-3559.81 792.6,-3558.17 790.41,-3556.48 788.36,-3554.76 786.45,-3553.01 784.7,-3551.22 783.11,-3549.42 781.7,-3547.6 780.48,-3545.76 779.45,-3543.92 778.63,-3542.07 778.03,-3540.23 777.65,-3538.39 777.5,-3536.57 777.59,-3534.77 777.92,-3532.98 778.51,-3531.23 779.34,-3529.51 780.44,-3527.82 781.78,-3526.18 783.39,-3524.58 785.25,-3523.03 787.37,-3521.54 789.74,-3520.1 792.35,-3518.73 795.2,-3517.43 798.28,-3516.19 801.59,-3515.03 805.1,-3513.95 808.82,-3512.94 812.72,-3512.02 816.8,-3511.18 821.03,-3510.43 825.4,-3509.77 829.9,-3509.2 834.5,-3508.72 839.2,-3508.34 843.96,-3508.05 848.77,-3507.86 853.61,-3507.76 858.47,-3507.76 863.31,-3507.86"/>
<text text-anchor="start" x="826.87" y="-3552.79" font-family="Times,serif" font-size="14.00">C0028688</text>
<text text-anchor="start" x="811.9" y="-3538.79" font-family="Times,serif" font-size="14.00">Nursing Homes</text>
<text text-anchor="start" x="833.09" y="-3524.79" font-family="Times,serif" font-size="14.00">176:177</text>
</g>
<!-- id_27473877_DOT_23&#45;&#45;id_27473877_DOT_24 -->
<g id="edge10" class="edge">
<title>id_27473877_DOT_23&#45;&#45;id_27473877_DOT_24</title>
<path fill="none" stroke="black" d="M860.72,-3507.54C870.31,-3434.94 892.08,-3270.11 901.64,-3197.7"/>
<text text-anchor="middle" x="854.93" y="-3355.42" font-family="Times,serif" font-size="14.00">0.003395</text>
</g>
</g>
</svg>
