<?xml version="1.0" encoding="UTF-8" standalone="no"?>
<!DOCTYPE svg PUBLIC "-//W3C//DTD SVG 1.1//EN"
 "http://www.w3.org/Graphics/SVG/1.1/DTD/svg11.dtd">
<!-- Generated by graphviz version 2.42.3 (20191010.1750)
 -->
<!-- Title: MST Pages: 1 -->
<svg width="4586pt" height="4175pt"
 viewBox="0.00 0.00 4586.19 4175.07" xmlns="http://www.w3.org/2000/svg" xmlns:xlink="http://www.w3.org/1999/xlink">
<g id="graph0" class="graph" transform="scale(1 1) rotate(0) translate(4 4171.07)">
<title>MST</title>
<polygon fill="white" stroke="transparent" points="-4,4 -4,-4171.07 4582.19,-4171.07 4582.19,4 -4,4"/>
<!-- id_27519886_DOT_1 -->
<g id="node1" class="node">
<title>id_27519886_DOT_1</title>
<polygon fill="aquamarine" stroke="aquamarine" points="1888.18,-912.22 1893,-912.41 1897.77,-912.7 1902.47,-913.09 1907.08,-913.56 1911.58,-914.13 1915.96,-914.79 1920.19,-915.55 1924.27,-916.38 1928.18,-917.31 1931.9,-918.31 1935.42,-919.4 1938.73,-920.56 1941.81,-921.79 1944.67,-923.1 1947.28,-924.47 1949.65,-925.9 1951.77,-927.39 1953.64,-928.94 1955.25,-930.54 1956.6,-932.18 1957.69,-933.87 1958.53,-935.59 1959.11,-937.35 1959.44,-939.13 1959.53,-940.94 1959.39,-942.76 1959.01,-944.59 1958.4,-946.44 1957.58,-948.28 1956.55,-950.12 1955.33,-951.96 1953.92,-953.78 1952.33,-955.59 1950.57,-957.37 1948.66,-959.13 1946.61,-960.85 1944.42,-962.53 1942.1,-964.18 1939.67,-965.78 1937.14,-967.32 1934.51,-968.82 1931.8,-970.25 1929.02,-971.62 1926.16,-972.93 1923.25,-974.16 1920.28,-975.32 1917.27,-976.41 1914.22,-977.41 1911.13,-978.34 1908.01,-979.17 1904.88,-979.92 1901.72,-980.58 1898.54,-981.16 1895.35,-981.63 1892.15,-982.02 1888.94,-982.31 1885.73,-982.5 1882.52,-982.59 1879.3,-982.59 1876.08,-982.5 1872.87,-982.31 1869.66,-982.02 1866.46,-981.63 1863.28,-981.16 1860.1,-980.58 1856.94,-979.92 1853.8,-979.17 1850.69,-978.34 1847.6,-977.41 1844.55,-976.41 1841.54,-975.32 1838.57,-974.16 1835.66,-972.93 1832.8,-971.62 1830.01,-970.25 1827.3,-968.82 1824.68,-967.32 1822.14,-965.78 1819.72,-964.18 1817.4,-962.53 1815.21,-960.85 1813.15,-959.13 1811.24,-957.37 1809.49,-955.59 1807.9,-953.78 1806.49,-951.96 1805.26,-950.12 1804.24,-948.28 1803.41,-946.44 1802.81,-944.59 1802.43,-942.76 1802.28,-940.94 1802.37,-939.13 1802.71,-937.35 1803.29,-935.59 1804.13,-933.87 1805.22,-932.18 1806.57,-930.54 1808.18,-928.94 1810.04,-927.39 1812.16,-925.9 1814.53,-924.47 1817.15,-923.1 1820,-921.79 1823.09,-920.56 1826.4,-919.4 1829.92,-918.31 1833.64,-917.31 1837.54,-916.38 1841.62,-915.55 1845.86,-914.79 1850.24,-914.13 1854.74,-913.56 1859.35,-913.09 1864.05,-912.7 1868.82,-912.41 1873.63,-912.22 1878.48,-912.12 1883.34,-912.12 1888.18,-912.22"/>
<text text-anchor="start" x="1851.74" y="-957.16" font-family="Times,serif" font-size="14.00">C0920317</text>
<text text-anchor="start" x="1836.58" y="-943.16" font-family="Times,serif" font-size="14.00">Meta &#45; Analysis</text>
<text text-anchor="start" x="1871.96" y="-929.16" font-family="Times,serif" font-size="14.00">0:2</text>
</g>
<!-- id_27519886_DOT_10 -->
<g id="node10" class="node">
<title>id_27519886_DOT_10</title>
<polygon fill="chartreuse" stroke="chartreuse" points="1950.49,-541.6 1953.92,-541.8 1957.31,-542.08 1960.65,-542.47 1963.94,-542.95 1967.14,-543.52 1970.26,-544.18 1973.27,-544.93 1976.17,-545.77 1978.95,-546.69 1981.6,-547.69 1984.11,-548.78 1986.46,-549.94 1988.66,-551.17 1990.69,-552.48 1992.55,-553.85 1994.24,-555.28 1995.74,-556.78 1997.07,-558.32 1998.22,-559.92 1999.18,-561.57 1999.96,-563.25 2000.55,-564.98 2000.97,-566.73 2001.2,-568.51 2001.27,-570.32 2001.16,-572.14 2000.89,-573.98 2000.46,-575.82 1999.88,-577.66 1999.15,-579.51 1998.28,-581.34 1997.27,-583.16 1996.14,-584.97 1994.89,-586.75 1993.53,-588.51 1992.07,-590.23 1990.51,-591.92 1988.86,-593.56 1987.13,-595.16 1985.33,-596.71 1983.46,-598.2 1981.53,-599.63 1979.55,-601 1977.52,-602.31 1975.44,-603.54 1973.33,-604.71 1971.19,-605.79 1969.02,-606.79 1966.82,-607.72 1964.6,-608.56 1962.37,-609.31 1960.12,-609.97 1957.86,-610.54 1955.59,-611.02 1953.31,-611.4 1951.03,-611.69 1948.75,-611.88 1946.46,-611.98 1944.17,-611.98 1941.88,-611.88 1939.59,-611.69 1937.31,-611.4 1935.03,-611.02 1932.76,-610.54 1930.5,-609.97 1928.26,-609.31 1926.02,-608.56 1923.8,-607.72 1921.61,-606.79 1919.44,-605.79 1917.29,-604.71 1915.18,-603.54 1913.11,-602.31 1911.08,-601 1909.09,-599.63 1907.16,-598.2 1905.29,-596.71 1903.49,-595.16 1901.76,-593.56 1900.12,-591.92 1898.56,-590.23 1897.09,-588.51 1895.73,-586.75 1894.48,-584.97 1893.35,-583.16 1892.35,-581.34 1891.48,-579.51 1890.75,-577.66 1890.16,-575.82 1889.73,-573.98 1889.46,-572.14 1889.36,-570.32 1889.42,-568.51 1889.66,-566.73 1890.07,-564.98 1890.67,-563.25 1891.45,-561.57 1892.41,-559.92 1893.55,-558.32 1894.88,-556.78 1896.39,-555.28 1898.08,-553.85 1899.94,-552.48 1901.97,-551.17 1904.16,-549.94 1906.52,-548.78 1909.02,-547.69 1911.67,-546.69 1914.45,-545.77 1917.35,-544.93 1920.37,-544.18 1923.48,-543.52 1926.69,-542.95 1929.97,-542.47 1933.31,-542.08 1936.71,-541.8 1940.13,-541.6 1943.58,-541.51 1947.04,-541.51 1950.49,-541.6"/>
<text text-anchor="start" x="1916.14" y="-586.54" font-family="Times,serif" font-size="14.00">C0086418</text>
<text text-anchor="start" x="1923.54" y="-572.54" font-family="Times,serif" font-size="14.00">humans</text>
<text text-anchor="start" x="1929.37" y="-558.54" font-family="Times,serif" font-size="14.00">38:38</text>
</g>
<!-- id_27519886_DOT_1&#45;&#45;id_27519886_DOT_10 -->
<g id="edge11" class="edge">
<title>id_27519886_DOT_1&#45;&#45;id_27519886_DOT_10</title>
<path fill="none" stroke="black" stroke-dasharray="1,5" d="M1887.03,-912.16C1899.33,-841.33 1926.96,-682.34 1939.24,-611.71"/>
<text text-anchor="middle" x="1886.88" y="-764.73" font-family="Times,serif" font-size="14.00">0.912029</text>
</g>
<!-- id_27519886_DOT_19 -->
<g id="node19" class="node">
<title>id_27519886_DOT_19</title>
<polygon fill="aquamarine" stroke="aquamarine" points="1533.82,-668.43 1538.5,-668.62 1543.13,-668.91 1547.7,-669.29 1552.18,-669.77 1556.55,-670.34 1560.81,-671 1564.93,-671.75 1568.89,-672.59 1572.69,-673.51 1576.3,-674.52 1579.72,-675.6 1582.94,-676.76 1585.93,-678 1588.71,-679.3 1591.25,-680.67 1593.55,-682.11 1595.61,-683.6 1597.43,-685.15 1598.99,-686.75 1600.3,-688.39 1601.36,-690.08 1602.18,-691.8 1602.75,-693.55 1603.07,-695.34 1603.16,-697.14 1603.01,-698.96 1602.64,-700.8 1602.06,-702.64 1601.26,-704.49 1600.26,-706.33 1599.07,-708.16 1597.7,-709.99 1596.16,-711.79 1594.45,-713.57 1592.59,-715.33 1590.59,-717.05 1588.46,-718.74 1586.22,-720.38 1583.86,-721.98 1581.39,-723.53 1578.84,-725.02 1576.21,-726.46 1573.5,-727.83 1570.72,-729.13 1567.89,-730.37 1565.01,-731.53 1562.08,-732.61 1559.12,-733.62 1556.12,-734.54 1553.09,-735.38 1550.04,-736.13 1546.97,-736.79 1543.88,-737.36 1540.78,-737.84 1537.67,-738.22 1534.56,-738.51 1531.43,-738.7 1528.31,-738.8 1525.18,-738.8 1522.06,-738.7 1518.94,-738.51 1515.82,-738.22 1512.71,-737.84 1509.61,-737.36 1506.52,-736.79 1503.45,-736.13 1500.4,-735.38 1497.38,-734.54 1494.38,-733.62 1491.41,-732.61 1488.48,-731.53 1485.6,-730.37 1482.77,-729.13 1479.99,-727.83 1477.29,-726.46 1474.65,-725.02 1472.1,-723.53 1469.64,-721.98 1467.28,-720.38 1465.03,-718.74 1462.9,-717.05 1460.9,-715.33 1459.04,-713.57 1457.34,-711.79 1455.79,-709.99 1454.42,-708.16 1453.23,-706.33 1452.23,-704.49 1451.44,-702.64 1450.85,-700.8 1450.48,-698.96 1450.34,-697.14 1450.42,-695.34 1450.75,-693.55 1451.32,-691.8 1452.13,-690.08 1453.19,-688.39 1454.5,-686.75 1456.07,-685.15 1457.88,-683.6 1459.94,-682.11 1462.24,-680.67 1464.78,-679.3 1467.56,-678 1470.56,-676.76 1473.77,-675.6 1477.19,-674.52 1480.81,-673.51 1484.6,-672.59 1488.57,-671.75 1492.68,-671 1496.94,-670.34 1501.32,-669.77 1505.8,-669.29 1510.36,-668.91 1514.99,-668.62 1519.68,-668.43 1524.39,-668.33 1529.11,-668.33 1533.82,-668.43"/>
<text text-anchor="start" x="1497.58" y="-713.36" font-family="Times,serif" font-size="14.00">C0920317</text>
<text text-anchor="start" x="1483.98" y="-699.36" font-family="Times,serif" font-size="14.00">Meta &#45; analysis</text>
<text text-anchor="start" x="1510.8" y="-685.36" font-family="Times,serif" font-size="14.00">74:76</text>
</g>
<!-- id_27519886_DOT_1&#45;&#45;id_27519886_DOT_19 -->
<g id="edge1" class="edge">
<title>id_27519886_DOT_1&#45;&#45;id_27519886_DOT_19</title>
<path fill="none" stroke="black" d="M1836.05,-916.48C1766.35,-868.5 1633.13,-776.8 1566.61,-731"/>
<text text-anchor="middle" x="1675.08" y="-826.54" font-family="Times,serif" font-size="14.00">0.001990</text>
</g>
<!-- id_27519886_DOT_28 -->
<g id="node28" class="node">
<title>id_27519886_DOT_28</title>
<polygon fill="darkslateblue" stroke="darkslateblue" points="2219.19,-1209.9 2223.92,-1210.09 2228.6,-1210.38 2233.21,-1210.76 2237.73,-1211.24 2242.15,-1211.81 2246.45,-1212.47 2250.6,-1213.22 2254.61,-1214.06 2258.44,-1214.98 2262.09,-1215.99 2265.54,-1217.07 2268.79,-1218.23 2271.82,-1219.47 2274.62,-1220.77 2277.18,-1222.14 2279.51,-1223.58 2281.59,-1225.07 2283.42,-1226.62 2285,-1228.22 2286.32,-1229.86 2287.39,-1231.55 2288.22,-1233.27 2288.79,-1235.03 2289.12,-1236.81 2289.2,-1238.61 2289.06,-1240.44 2288.69,-1242.27 2288.09,-1244.11 2287.29,-1245.96 2286.28,-1247.8 2285.08,-1249.64 2283.69,-1251.46 2282.13,-1253.26 2280.41,-1255.05 2278.54,-1256.8 2276.52,-1258.52 2274.37,-1260.21 2272.1,-1261.85 2269.72,-1263.45 2267.23,-1265 2264.65,-1266.49 2261.99,-1267.93 2259.26,-1269.3 2256.46,-1270.6 2253.6,-1271.84 2250.69,-1273 2247.73,-1274.08 2244.74,-1275.09 2241.71,-1276.01 2238.65,-1276.85 2235.57,-1277.6 2232.47,-1278.26 2229.35,-1278.83 2226.23,-1279.31 2223.09,-1279.69 2219.94,-1279.98 2216.79,-1280.17 2213.63,-1280.27 2210.48,-1280.27 2207.32,-1280.17 2204.17,-1279.98 2201.02,-1279.69 2197.88,-1279.31 2194.75,-1278.83 2191.64,-1278.26 2188.54,-1277.6 2185.46,-1276.85 2182.4,-1276.01 2179.37,-1275.09 2176.38,-1274.08 2173.42,-1273 2170.51,-1271.84 2167.65,-1270.6 2164.85,-1269.3 2162.11,-1267.93 2159.45,-1266.49 2156.88,-1265 2154.39,-1263.45 2152.01,-1261.85 2149.74,-1260.21 2147.59,-1258.52 2145.57,-1256.8 2143.69,-1255.05 2141.97,-1253.26 2140.41,-1251.46 2139.03,-1249.64 2137.83,-1247.8 2136.82,-1245.96 2136.01,-1244.11 2135.42,-1242.27 2135.05,-1240.44 2134.9,-1238.61 2134.99,-1236.81 2135.32,-1235.03 2135.89,-1233.27 2136.71,-1231.55 2137.79,-1229.86 2139.11,-1228.22 2140.69,-1226.62 2142.52,-1225.07 2144.6,-1223.58 2146.92,-1222.14 2149.49,-1220.77 2152.29,-1219.47 2155.32,-1218.23 2158.57,-1217.07 2162.02,-1215.99 2165.67,-1214.98 2169.5,-1214.06 2173.5,-1213.22 2177.66,-1212.47 2181.96,-1211.81 2186.38,-1211.24 2190.9,-1210.76 2195.51,-1210.38 2200.19,-1210.09 2204.91,-1209.9 2209.67,-1209.8 2214.44,-1209.8 2219.19,-1209.9"/>
<text text-anchor="start" x="2182.88" y="-1254.84" font-family="Times,serif" font-size="14.00">C0033147</text>
<text text-anchor="start" x="2168.71" y="-1240.84" font-family="Times,serif" font-size="14.00">primate species</text>
<text text-anchor="start" x="2189.11" y="-1226.84" font-family="Times,serif" font-size="14.00">267:268</text>
</g>
<!-- id_27519886_DOT_1&#45;&#45;id_27519886_DOT_28 -->
<g id="edge12" class="edge">
<title>id_27519886_DOT_1&#45;&#45;id_27519886_DOT_28</title>
<path fill="none" stroke="black" stroke-dasharray="1,5" d="M1914.48,-977.54C1977.13,-1033.86 2111.32,-1154.48 2175.88,-1212.52"/>
<text text-anchor="middle" x="2018.93" y="-1097.83" font-family="Times,serif" font-size="14.00">0.833840</text>
</g>
<!-- id_27519886_DOT_2 -->
<g id="node2" class="node">
<title>id_27519886_DOT_2</title>
<polygon fill="bisque" stroke="bisque" points="2980.9,-2803.34 2984.89,-2803.53 2988.84,-2803.82 2992.74,-2804.2 2996.56,-2804.68 3000.29,-2805.25 3003.92,-2805.91 3007.43,-2806.66 3010.81,-2807.5 3014.05,-2808.42 3017.13,-2809.43 3020.05,-2810.51 3022.79,-2811.67 3025.34,-2812.91 3027.71,-2814.21 3029.88,-2815.59 3031.84,-2817.02 3033.6,-2818.51 3035.14,-2820.06 3036.48,-2821.66 3037.6,-2823.3 3038.5,-2824.99 3039.2,-2826.71 3039.68,-2828.47 3039.96,-2830.25 3040.03,-2832.05 3039.91,-2833.88 3039.59,-2835.71 3039.09,-2837.55 3038.41,-2839.4 3037.56,-2841.24 3036.55,-2843.08 3035.38,-2844.9 3034.06,-2846.7 3032.61,-2848.49 3031.02,-2850.24 3029.32,-2851.97 3027.5,-2853.65 3025.58,-2855.3 3023.57,-2856.89 3021.47,-2858.44 3019.3,-2859.93 3017.05,-2861.37 3014.74,-2862.74 3012.37,-2864.04 3009.96,-2865.28 3007.5,-2866.44 3005,-2867.52 3002.47,-2868.53 2999.91,-2869.45 2997.33,-2870.29 2994.73,-2871.04 2992.11,-2871.7 2989.48,-2872.27 2986.84,-2872.75 2984.19,-2873.13 2981.53,-2873.42 2978.87,-2873.62 2976.2,-2873.71 2973.54,-2873.71 2970.87,-2873.62 2968.21,-2873.42 2965.55,-2873.13 2962.9,-2872.75 2960.26,-2872.27 2957.62,-2871.7 2955.01,-2871.04 2952.4,-2870.29 2949.82,-2869.45 2947.26,-2868.53 2944.73,-2867.52 2942.24,-2866.44 2939.78,-2865.28 2937.36,-2864.04 2935,-2862.74 2932.69,-2861.37 2930.44,-2859.93 2928.27,-2858.44 2926.17,-2856.89 2924.15,-2855.3 2922.24,-2853.65 2920.42,-2851.97 2918.72,-2850.24 2917.13,-2848.49 2915.68,-2846.7 2914.36,-2844.9 2913.19,-2843.08 2912.18,-2841.24 2911.32,-2839.4 2910.64,-2837.55 2910.14,-2835.71 2909.83,-2833.88 2909.71,-2832.05 2909.78,-2830.25 2910.06,-2828.47 2910.54,-2826.71 2911.23,-2824.99 2912.14,-2823.3 2913.26,-2821.66 2914.59,-2820.06 2916.14,-2818.51 2917.9,-2817.02 2919.86,-2815.59 2922.03,-2814.21 2924.39,-2812.91 2926.95,-2811.67 2929.69,-2810.51 2932.61,-2809.43 2935.69,-2808.42 2938.93,-2807.5 2942.31,-2806.66 2945.82,-2805.91 2949.45,-2805.25 2953.18,-2804.68 2957,-2804.2 2960.9,-2803.82 2964.85,-2803.53 2968.84,-2803.34 2972.86,-2803.24 2976.88,-2803.24 2980.9,-2803.34"/>
<text text-anchor="start" x="2945.7" y="-2848.28" font-family="Times,serif" font-size="14.00">C0681814</text>
<text text-anchor="start" x="2939.49" y="-2834.28" font-family="Times,serif" font-size="14.00">Experiments</text>
<text text-anchor="start" x="2965.92" y="-2820.28" font-family="Times,serif" font-size="14.00">5:5</text>
</g>
<!-- id_27519886_DOT_16 -->
<g id="node16" class="node">
<title>id_27519886_DOT_16</title>
<polygon fill="darkgoldenrod" stroke="darkgoldenrod" points="2593.77,-2691.42 2597.2,-2691.61 2600.59,-2691.9 2603.93,-2692.29 2607.22,-2692.76 2610.42,-2693.33 2613.54,-2694 2616.55,-2694.75 2619.45,-2695.58 2622.23,-2696.51 2624.88,-2697.51 2627.39,-2698.6 2629.74,-2699.76 2631.94,-2700.99 2633.97,-2702.3 2635.83,-2703.67 2637.52,-2705.1 2639.02,-2706.6 2640.35,-2708.14 2641.5,-2709.74 2642.46,-2711.39 2643.24,-2713.07 2643.83,-2714.79 2644.25,-2716.55 2644.48,-2718.33 2644.55,-2720.14 2644.44,-2721.96 2644.17,-2723.79 2643.74,-2725.64 2643.16,-2727.48 2642.43,-2729.33 2641.56,-2731.16 2640.55,-2732.98 2639.42,-2734.79 2638.17,-2736.57 2636.81,-2738.33 2635.35,-2740.05 2633.79,-2741.73 2632.14,-2743.38 2630.41,-2744.98 2628.61,-2746.52 2626.74,-2748.02 2624.81,-2749.45 2622.83,-2750.82 2620.8,-2752.13 2618.72,-2753.36 2616.61,-2754.52 2614.47,-2755.61 2612.3,-2756.61 2610.1,-2757.54 2607.88,-2758.37 2605.65,-2759.12 2603.4,-2759.79 2601.14,-2760.36 2598.87,-2760.83 2596.59,-2761.22 2594.31,-2761.51 2592.03,-2761.7 2589.74,-2761.8 2587.45,-2761.8 2585.16,-2761.7 2582.87,-2761.51 2580.59,-2761.22 2578.31,-2760.83 2576.04,-2760.36 2573.78,-2759.79 2571.54,-2759.12 2569.3,-2758.37 2567.08,-2757.54 2564.89,-2756.61 2562.72,-2755.61 2560.57,-2754.52 2558.46,-2753.36 2556.39,-2752.13 2554.36,-2750.82 2552.37,-2749.45 2550.44,-2748.02 2548.57,-2746.52 2546.77,-2744.98 2545.04,-2743.38 2543.4,-2741.73 2541.84,-2740.05 2540.37,-2738.33 2539.01,-2736.57 2537.76,-2734.79 2536.63,-2732.98 2535.63,-2731.16 2534.76,-2729.33 2534.03,-2727.48 2533.44,-2725.64 2533.01,-2723.79 2532.74,-2721.96 2532.64,-2720.14 2532.7,-2718.33 2532.94,-2716.55 2533.35,-2714.79 2533.95,-2713.07 2534.73,-2711.39 2535.69,-2709.74 2536.83,-2708.14 2538.16,-2706.6 2539.67,-2705.1 2541.36,-2703.67 2543.22,-2702.3 2545.25,-2700.99 2547.44,-2699.76 2549.8,-2698.6 2552.3,-2697.51 2554.95,-2696.51 2557.73,-2695.58 2560.63,-2694.75 2563.65,-2694 2566.76,-2693.33 2569.97,-2692.76 2573.25,-2692.29 2576.59,-2691.9 2579.99,-2691.61 2583.41,-2691.42 2586.86,-2691.32 2590.32,-2691.32 2593.77,-2691.42"/>
<text text-anchor="start" x="2559.42" y="-2736.36" font-family="Times,serif" font-size="14.00">C0018017</text>
<text text-anchor="start" x="2573.82" y="-2722.36" font-family="Times,serif" font-size="14.00">goals</text>
<text text-anchor="start" x="2572.65" y="-2708.36" font-family="Times,serif" font-size="14.00">60:60</text>
</g>
<!-- id_27519886_DOT_2&#45;&#45;id_27519886_DOT_16 -->
<g id="edge13" class="edge">
<title>id_27519886_DOT_2&#45;&#45;id_27519886_DOT_16</title>
<path fill="none" stroke="black" stroke-dasharray="1,5" d="M2913.66,-2820.74C2836.44,-2798.37 2705.32,-2760.38 2635.54,-2740.16"/>
<text text-anchor="middle" x="2748.35" y="-2783.25" font-family="Times,serif" font-size="14.00">0.700203</text>
</g>
<!-- id_27519886_DOT_3 -->
<g id="node3" class="node">
<title>id_27519886_DOT_3</title>
<polygon fill="blue" stroke="blue" points="1106.81,-0.23 1110.36,-0.42 1113.87,-0.71 1117.33,-1.09 1120.73,-1.57 1124.05,-2.14 1127.27,-2.8 1130.39,-3.55 1133.4,-4.39 1136.28,-5.31 1139.02,-6.32 1141.61,-7.4 1144.05,-8.57 1146.32,-9.8 1148.43,-11.1 1150.35,-12.48 1152.1,-13.91 1153.66,-15.4 1155.04,-16.95 1156.22,-18.55 1157.22,-20.19 1158.02,-21.88 1158.64,-23.6 1159.07,-25.36 1159.32,-27.14 1159.38,-28.94 1159.27,-30.77 1158.99,-32.6 1158.55,-34.44 1157.94,-36.29 1157.19,-38.13 1156.28,-39.97 1155.24,-41.79 1154.07,-43.6 1152.78,-45.38 1151.37,-47.13 1149.86,-48.86 1148.24,-50.54 1146.54,-52.19 1144.75,-53.78 1142.88,-55.33 1140.94,-56.82 1138.95,-58.26 1136.89,-59.63 1134.79,-60.94 1132.64,-62.17 1130.46,-63.33 1128.24,-64.42 1125.99,-65.42 1123.71,-66.34 1121.42,-67.18 1119.11,-67.93 1116.78,-68.59 1114.44,-69.16 1112.09,-69.64 1109.73,-70.02 1107.37,-70.31 1105,-70.51 1102.63,-70.6 1100.26,-70.6 1097.89,-70.51 1095.52,-70.31 1093.16,-70.02 1090.8,-69.64 1088.45,-69.16 1086.11,-68.59 1083.78,-67.93 1081.47,-67.18 1079.18,-66.34 1076.9,-65.42 1074.65,-64.42 1072.43,-63.33 1070.25,-62.17 1068.1,-60.94 1066,-59.63 1063.94,-58.26 1061.94,-56.82 1060.01,-55.33 1058.14,-53.78 1056.35,-52.19 1054.65,-50.54 1053.03,-48.86 1051.52,-47.13 1050.11,-45.38 1048.82,-43.6 1047.65,-41.79 1046.61,-39.97 1045.7,-38.13 1044.95,-36.29 1044.34,-34.44 1043.9,-32.6 1043.62,-30.77 1043.51,-28.94 1043.57,-27.14 1043.82,-25.36 1044.25,-23.6 1044.87,-21.88 1045.67,-20.19 1046.67,-18.55 1047.85,-16.95 1049.23,-15.4 1050.79,-13.91 1052.54,-12.48 1054.46,-11.1 1056.57,-9.8 1058.84,-8.57 1061.28,-7.4 1063.87,-6.32 1066.61,-5.31 1069.49,-4.39 1072.5,-3.55 1075.62,-2.8 1078.84,-2.14 1082.16,-1.57 1085.56,-1.09 1089.02,-0.71 1092.53,-0.42 1096.08,-0.23 1099.66,-0.13 1103.23,-0.13 1106.81,-0.23"/>
<text text-anchor="start" x="1072.28" y="-45.17" font-family="Times,serif" font-size="14.00">C1261322</text>
<text text-anchor="start" x="1071.12" y="-31.17" font-family="Times,serif" font-size="14.00">Evaluating</text>
<text text-anchor="start" x="1092.5" y="-17.17" font-family="Times,serif" font-size="14.00">6:6</text>
</g>
<!-- id_27519886_DOT_12 -->
<g id="node12" class="node">
<title>id_27519886_DOT_12</title>
<polygon fill="cornflowerblue" stroke="cornflowerblue" points="1299.82,-333.59 1303.24,-333.79 1306.64,-334.07 1309.98,-334.46 1313.26,-334.93 1316.47,-335.51 1319.58,-336.17 1322.6,-336.92 1325.5,-337.75 1328.28,-338.68 1330.93,-339.68 1333.43,-340.77 1335.79,-341.93 1337.98,-343.16 1340.01,-344.47 1341.87,-345.84 1343.56,-347.27 1345.07,-348.77 1346.4,-350.31 1347.54,-351.91 1348.5,-353.56 1349.28,-355.24 1349.88,-356.97 1350.29,-358.72 1350.53,-360.5 1350.59,-362.31 1350.49,-364.13 1350.22,-365.97 1349.79,-367.81 1349.2,-369.65 1348.47,-371.5 1347.6,-373.33 1346.6,-375.15 1345.47,-376.96 1344.22,-378.74 1342.86,-380.5 1341.39,-382.22 1339.83,-383.91 1338.19,-385.55 1336.46,-387.15 1334.66,-388.7 1332.79,-390.19 1330.86,-391.62 1328.87,-392.99 1326.84,-394.3 1324.77,-395.53 1322.66,-396.69 1320.51,-397.78 1318.34,-398.78 1316.14,-399.71 1313.93,-400.54 1311.69,-401.3 1309.45,-401.96 1307.19,-402.53 1304.92,-403 1302.64,-403.39 1300.36,-403.68 1298.07,-403.87 1295.78,-403.97 1293.49,-403.97 1291.2,-403.87 1288.92,-403.68 1286.64,-403.39 1284.36,-403 1282.09,-402.53 1279.83,-401.96 1277.58,-401.3 1275.35,-400.54 1273.13,-399.71 1270.93,-398.78 1268.76,-397.78 1266.62,-396.69 1264.51,-395.53 1262.43,-394.3 1260.4,-392.99 1258.42,-391.62 1256.49,-390.19 1254.62,-388.7 1252.82,-387.15 1251.09,-385.55 1249.44,-383.91 1247.88,-382.22 1246.42,-380.5 1245.06,-378.74 1243.81,-376.96 1242.68,-375.15 1241.67,-373.33 1240.8,-371.5 1240.07,-369.65 1239.49,-367.81 1239.06,-365.97 1238.79,-364.13 1238.68,-362.31 1238.74,-360.5 1238.98,-358.72 1239.4,-356.97 1239.99,-355.24 1240.77,-353.56 1241.73,-351.91 1242.88,-350.31 1244.21,-348.77 1245.71,-347.27 1247.4,-345.84 1249.26,-344.47 1251.29,-343.16 1253.49,-341.93 1255.84,-340.77 1258.35,-339.68 1260.99,-338.68 1263.77,-337.75 1266.68,-336.92 1269.69,-336.17 1272.81,-335.51 1276.01,-334.93 1279.29,-334.46 1282.64,-334.07 1286.03,-333.79 1289.46,-333.59 1292.91,-333.5 1296.37,-333.5 1299.82,-333.59"/>
<text text-anchor="start" x="1265.47" y="-378.53" font-family="Times,serif" font-size="14.00">C0936012</text>
<text text-anchor="start" x="1269.76" y="-364.53" font-family="Times,serif" font-size="14.00">analyzed</text>
<text text-anchor="start" x="1278.69" y="-350.53" font-family="Times,serif" font-size="14.00">42:42</text>
</g>
<!-- id_27519886_DOT_3&#45;&#45;id_27519886_DOT_12 -->
<g id="edge14" class="edge">
<title>id_27519886_DOT_3&#45;&#45;id_27519886_DOT_12</title>
<path fill="none" stroke="black" stroke-dasharray="1,5" d="M1120.14,-67.63C1156.79,-130.87 1237.73,-270.54 1275.07,-334.96"/>
<text text-anchor="middle" x="1171.36" y="-204.1" font-family="Times,serif" font-size="14.00">0.780594</text>
</g>
<!-- id_27519886_DOT_4 -->
<g id="node4" class="node">
<title>id_27519886_DOT_4</title>
<polygon fill="blueviolet" stroke="blueviolet" points="479.42,-3333.75 483.1,-3333.95 486.75,-3334.23 490.34,-3334.62 493.86,-3335.1 497.31,-3335.67 500.65,-3336.33 503.89,-3337.08 507.01,-3337.92 510,-3338.84 512.84,-3339.84 515.54,-3340.93 518.06,-3342.09 520.42,-3343.32 522.61,-3344.63 524.61,-3346 526.42,-3347.43 528.04,-3348.93 529.47,-3350.47 530.7,-3352.07 531.73,-3353.72 532.56,-3355.4 533.2,-3357.13 533.65,-3358.88 533.91,-3360.66 533.98,-3362.47 533.86,-3364.29 533.57,-3366.13 533.11,-3367.97 532.48,-3369.81 531.7,-3371.66 530.76,-3373.49 529.68,-3375.31 528.47,-3377.12 527.12,-3378.9 525.66,-3380.66 524.09,-3382.38 522.41,-3384.07 520.64,-3385.71 518.79,-3387.31 516.85,-3388.86 514.84,-3390.35 512.77,-3391.78 510.64,-3393.15 508.46,-3394.46 506.23,-3395.69 503.96,-3396.85 501.66,-3397.94 499.32,-3398.94 496.96,-3399.87 494.58,-3400.71 492.18,-3401.46 489.77,-3402.12 487.34,-3402.69 484.9,-3403.16 482.45,-3403.55 480,-3403.84 477.54,-3404.03 475.08,-3404.13 472.62,-3404.13 470.17,-3404.03 467.71,-3403.84 465.26,-3403.55 462.81,-3403.16 460.37,-3402.69 457.94,-3402.12 455.53,-3401.46 453.13,-3400.71 450.75,-3399.87 448.39,-3398.94 446.05,-3397.94 443.75,-3396.85 441.48,-3395.69 439.25,-3394.46 437.07,-3393.15 434.94,-3391.78 432.87,-3390.35 430.86,-3388.86 428.92,-3387.31 427.06,-3385.71 425.29,-3384.07 423.62,-3382.38 422.05,-3380.66 420.59,-3378.9 419.24,-3377.12 418.03,-3375.31 416.95,-3373.49 416.01,-3371.66 415.23,-3369.81 414.6,-3367.97 414.14,-3366.13 413.85,-3364.29 413.73,-3362.47 413.8,-3360.66 414.06,-3358.88 414.51,-3357.13 415.15,-3355.4 415.98,-3353.72 417.01,-3352.07 418.24,-3350.47 419.67,-3348.93 421.29,-3347.43 423.1,-3346 425.1,-3344.63 427.29,-3343.32 429.64,-3342.09 432.17,-3340.93 434.87,-3339.84 437.71,-3338.84 440.7,-3337.92 443.81,-3337.08 447.05,-3336.33 450.4,-3335.67 453.85,-3335.1 457.37,-3334.62 460.96,-3334.23 464.61,-3333.95 468.29,-3333.75 472,-3333.66 475.71,-3333.66 479.42,-3333.75"/>
<text text-anchor="start" x="444.69" y="-3378.69" font-family="Times,serif" font-size="14.00">C0072980</text>
<text text-anchor="start" x="441.98" y="-3364.69" font-family="Times,serif" font-size="14.00">Rapamycin</text>
<text text-anchor="start" x="457.91" y="-3350.69" font-family="Times,serif" font-size="14.00">10:10</text>
</g>
<!-- id_27519886_DOT_14 -->
<g id="node14" class="node">
<title>id_27519886_DOT_14</title>
<polygon fill="blueviolet" stroke="blueviolet" points="487,-3733.95 490.47,-3734.15 493.9,-3734.44 497.28,-3734.82 500.6,-3735.3 503.84,-3735.87 506.99,-3736.53 510.04,-3737.28 512.97,-3738.12 515.78,-3739.04 518.46,-3740.05 520.99,-3741.13 523.37,-3742.29 525.59,-3743.53 527.65,-3744.83 529.53,-3746.2 531.23,-3747.64 532.76,-3749.13 534.1,-3750.68 535.26,-3752.27 536.23,-3753.92 537.02,-3755.6 537.62,-3757.33 538.04,-3759.08 538.28,-3760.87 538.34,-3762.67 538.24,-3764.49 537.96,-3766.33 537.53,-3768.17 536.94,-3770.02 536.2,-3771.86 535.32,-3773.69 534.3,-3775.52 533.16,-3777.32 531.9,-3779.1 530.52,-3780.86 529.04,-3782.58 527.46,-3784.27 525.8,-3785.91 524.05,-3787.51 522.23,-3789.06 520.34,-3790.55 518.39,-3791.98 516.38,-3793.36 514.33,-3794.66 512.23,-3795.9 510.1,-3797.06 507.93,-3798.14 505.73,-3799.15 503.51,-3800.07 501.27,-3800.91 499.01,-3801.66 496.74,-3802.32 494.45,-3802.89 492.16,-3803.37 489.86,-3803.75 487.55,-3804.04 485.24,-3804.23 482.92,-3804.33 480.61,-3804.33 478.29,-3804.23 475.98,-3804.04 473.67,-3803.75 471.37,-3803.37 469.08,-3802.89 466.79,-3802.32 464.52,-3801.66 462.26,-3800.91 460.02,-3800.07 457.8,-3799.15 455.6,-3798.14 453.43,-3797.06 451.3,-3795.9 449.2,-3794.66 447.15,-3793.36 445.14,-3791.98 443.19,-3790.55 441.3,-3789.06 439.48,-3787.51 437.73,-3785.91 436.07,-3784.27 434.49,-3782.58 433.01,-3780.86 431.63,-3779.1 430.37,-3777.32 429.23,-3775.52 428.21,-3773.69 427.33,-3771.86 426.59,-3770.02 426,-3768.17 425.57,-3766.33 425.29,-3764.49 425.19,-3762.67 425.25,-3760.87 425.49,-3759.08 425.91,-3757.33 426.51,-3755.6 427.3,-3753.92 428.27,-3752.27 429.43,-3750.68 430.77,-3749.13 432.3,-3747.64 434,-3746.2 435.89,-3744.83 437.94,-3743.53 440.16,-3742.29 442.54,-3741.13 445.07,-3740.05 447.75,-3739.04 450.56,-3738.12 453.5,-3737.28 456.54,-3736.53 459.69,-3735.87 462.94,-3735.3 466.25,-3734.82 469.63,-3734.44 473.06,-3734.15 476.53,-3733.95 480.02,-3733.86 483.51,-3733.86 487,-3733.95"/>
<text text-anchor="start" x="452.6" y="-3778.89" font-family="Times,serif" font-size="14.00">C0072980</text>
<text text-anchor="start" x="452.22" y="-3764.89" font-family="Times,serif" font-size="14.00">rapamycin</text>
<text text-anchor="start" x="465.82" y="-3750.89" font-family="Times,serif" font-size="14.00">50:50</text>
</g>
<!-- id_27519886_DOT_4&#45;&#45;id_27519886_DOT_14 -->
<g id="edge2" class="edge">
<title>id_27519886_DOT_4&#45;&#45;id_27519886_DOT_14</title>
<path fill="none" stroke="black" d="M474.56,-3404.41C476.06,-3480.35 479.57,-3657.78 481.06,-3733.66"/>
<text text-anchor="middle" x="451.56" y="-3571.83" font-family="Times,serif" font-size="14.00">0.001515</text>
</g>
<!-- id_27519886_DOT_21 -->
<g id="node21" class="node">
<title>id_27519886_DOT_21</title>
<polygon fill="blueviolet" stroke="blueviolet" points="762.34,-3044.62 766.03,-3044.82 769.67,-3045.1 773.27,-3045.49 776.79,-3045.97 780.23,-3046.54 783.58,-3047.2 786.82,-3047.95 789.94,-3048.79 792.93,-3049.71 795.77,-3050.71 798.46,-3051.8 800.99,-3052.96 803.35,-3054.19 805.53,-3055.5 807.53,-3056.87 809.35,-3058.3 810.97,-3059.8 812.39,-3061.35 813.62,-3062.94 814.65,-3064.59 815.49,-3066.27 816.13,-3068 816.58,-3069.75 816.83,-3071.53 816.9,-3073.34 816.79,-3075.16 816.5,-3077 816.04,-3078.84 815.41,-3080.68 814.62,-3082.53 813.69,-3084.36 812.61,-3086.19 811.39,-3087.99 810.05,-3089.77 808.59,-3091.53 807.02,-3093.25 805.34,-3094.94 803.57,-3096.58 801.71,-3098.18 799.78,-3099.73 797.77,-3101.22 795.7,-3102.65 793.57,-3104.02 791.38,-3105.33 789.15,-3106.56 786.89,-3107.73 784.58,-3108.81 782.25,-3109.82 779.89,-3110.74 777.51,-3111.58 775.11,-3112.33 772.69,-3112.99 770.26,-3113.56 767.83,-3114.04 765.38,-3114.42 762.93,-3114.71 760.47,-3114.9 758.01,-3115 755.55,-3115 753.09,-3114.9 750.64,-3114.71 748.18,-3114.42 745.74,-3114.04 743.3,-3113.56 740.87,-3112.99 738.46,-3112.33 736.05,-3111.58 733.67,-3110.74 731.31,-3109.82 728.98,-3108.81 726.68,-3107.73 724.41,-3106.56 722.18,-3105.33 720,-3104.02 717.87,-3102.65 715.79,-3101.22 713.78,-3099.73 711.85,-3098.18 709.99,-3096.58 708.22,-3094.94 706.55,-3093.25 704.97,-3091.53 703.51,-3089.77 702.17,-3087.99 700.96,-3086.19 699.88,-3084.36 698.94,-3082.53 698.15,-3080.68 697.53,-3078.84 697.07,-3077 696.77,-3075.16 696.66,-3073.34 696.73,-3071.53 696.99,-3069.75 697.43,-3068 698.07,-3066.27 698.91,-3064.59 699.94,-3062.94 701.17,-3061.35 702.6,-3059.8 704.22,-3058.3 706.03,-3056.87 708.03,-3055.5 710.21,-3054.19 712.57,-3052.96 715.1,-3051.8 717.79,-3050.71 720.64,-3049.71 723.62,-3048.79 726.74,-3047.95 729.98,-3047.2 733.33,-3046.54 736.77,-3045.97 740.3,-3045.49 743.89,-3045.1 747.53,-3044.82 751.22,-3044.62 754.92,-3044.53 758.64,-3044.53 762.34,-3044.62"/>
<text text-anchor="start" x="727.61" y="-3089.56" font-family="Times,serif" font-size="14.00">C0072980</text>
<text text-anchor="start" x="724.9" y="-3075.56" font-family="Times,serif" font-size="14.00">Rapamycin</text>
<text text-anchor="start" x="733.84" y="-3061.56" font-family="Times,serif" font-size="14.00">173:173</text>
</g>
<!-- id_27519886_DOT_4&#45;&#45;id_27519886_DOT_21 -->
<g id="edge3" class="edge">
<title>id_27519886_DOT_4&#45;&#45;id_27519886_DOT_21</title>
<path fill="none" stroke="black" d="M504.94,-3337.12C560.21,-3280.64 674.76,-3163.58 728.18,-3108.99"/>
<text text-anchor="middle" x="590.31" y="-3225.85" font-family="Times,serif" font-size="14.00">0.012328</text>
</g>
<!-- id_27519886_DOT_29 -->
<g id="node29" class="node">
<title>id_27519886_DOT_29</title>
<polygon fill="blueviolet" stroke="blueviolet" points="71.22,-3286.91 75.23,-3287.11 79.19,-3287.4 83.1,-3287.78 86.93,-3288.26 90.67,-3288.83 94.31,-3289.49 97.83,-3290.24 101.22,-3291.08 104.47,-3292 107.56,-3293 110.49,-3294.09 113.24,-3295.25 115.8,-3296.49 118.17,-3297.79 120.35,-3299.16 122.32,-3300.6 124.08,-3302.09 125.63,-3303.64 126.97,-3305.23 128.09,-3306.88 129,-3308.56 129.69,-3310.29 130.18,-3312.04 130.46,-3313.82 130.53,-3315.63 130.41,-3317.45 130.09,-3319.29 129.59,-3321.13 128.91,-3322.98 128.05,-3324.82 127.04,-3326.65 125.86,-3328.48 124.54,-3330.28 123.08,-3332.06 121.5,-3333.82 119.79,-3335.54 117.96,-3337.23 116.04,-3338.87 114.02,-3340.47 111.92,-3342.02 109.73,-3343.51 107.48,-3344.94 105.16,-3346.32 102.79,-3347.62 100.37,-3348.86 97.9,-3350.02 95.4,-3351.1 92.86,-3352.11 90.3,-3353.03 87.71,-3353.87 85.1,-3354.62 82.47,-3355.28 79.83,-3355.85 77.18,-3356.33 74.52,-3356.71 71.86,-3357 69.19,-3357.19 66.51,-3357.29 63.84,-3357.29 61.17,-3357.19 58.5,-3357 55.83,-3356.71 53.17,-3356.33 50.52,-3355.85 47.88,-3355.28 45.26,-3354.62 42.65,-3353.87 40.06,-3353.03 37.49,-3352.11 34.96,-3351.1 32.45,-3350.02 29.99,-3348.86 27.56,-3347.62 25.19,-3346.32 22.87,-3344.94 20.62,-3343.51 18.44,-3342.02 16.33,-3340.47 14.31,-3338.87 12.39,-3337.23 10.57,-3335.54 8.86,-3333.82 7.27,-3332.06 5.81,-3330.28 4.49,-3328.48 3.32,-3326.65 2.3,-3324.82 1.45,-3322.98 0.76,-3321.13 0.26,-3319.29 -0.05,-3317.45 -0.18,-3315.63 -0.1,-3313.82 0.18,-3312.04 0.66,-3310.29 1.36,-3308.56 2.27,-3306.88 3.39,-3305.23 4.72,-3303.64 6.27,-3302.09 8.04,-3300.6 10.01,-3299.16 12.18,-3297.79 14.55,-3296.49 17.12,-3295.25 19.87,-3294.09 22.79,-3293 25.88,-3292 29.13,-3291.08 32.52,-3290.24 36.04,-3289.49 39.68,-3288.83 43.43,-3288.26 47.26,-3287.78 51.16,-3287.4 55.13,-3287.11 59.13,-3286.91 63.16,-3286.82 67.2,-3286.82 71.22,-3286.91"/>
<text text-anchor="start" x="36.01" y="-3331.85" font-family="Times,serif" font-size="14.00">C0072980</text>
<text text-anchor="start" x="29.9" y="-3317.85" font-family="Times,serif" font-size="14.00">rapamycin &#39;s</text>
<text text-anchor="start" x="42.23" y="-3303.85" font-family="Times,serif" font-size="14.00">271:272</text>
</g>
<!-- id_27519886_DOT_4&#45;&#45;id_27519886_DOT_29 -->
<g id="edge4" class="edge">
<title>id_27519886_DOT_4&#45;&#45;id_27519886_DOT_29</title>
<path fill="none" stroke="black" d="M413.55,-3361.98C336.29,-3353.12 203.11,-3337.86 125.73,-3328.99"/>
<text text-anchor="middle" x="243.39" y="-3348.29" font-family="Times,serif" font-size="14.00">0.019858</text>
</g>
<!-- id_27519886_DOT_5 -->
<g id="node5" class="node">
<title>id_27519886_DOT_5</title>
<polygon fill="brown" stroke="brown" points="3051.66,-1047.03 3057.2,-1047.23 3062.68,-1047.51 3068.08,-1047.9 3073.39,-1048.38 3078.57,-1048.95 3083.6,-1049.61 3088.47,-1050.36 3093.17,-1051.2 3097.66,-1052.12 3101.94,-1053.12 3105.98,-1054.21 3109.79,-1055.37 3113.34,-1056.6 3116.62,-1057.91 3119.63,-1059.28 3122.35,-1060.71 3124.79,-1062.21 3126.94,-1063.76 3128.79,-1065.35 3130.34,-1067 3131.6,-1068.68 3132.56,-1070.41 3133.23,-1072.16 3133.62,-1073.94 3133.72,-1075.75 3133.55,-1077.57 3133.11,-1079.41 3132.42,-1081.25 3131.47,-1083.09 3130.29,-1084.94 3128.88,-1086.77 3127.26,-1088.6 3125.43,-1090.4 3123.41,-1092.18 3121.22,-1093.94 3118.85,-1095.66 3116.33,-1097.35 3113.67,-1098.99 3110.88,-1100.59 3107.96,-1102.14 3104.94,-1103.63 3101.82,-1105.06 3098.62,-1106.43 3095.34,-1107.74 3091.98,-1108.97 3088.57,-1110.14 3085.11,-1111.22 3081.6,-1112.23 3078.05,-1113.15 3074.47,-1113.99 3070.85,-1114.74 3067.22,-1115.4 3063.57,-1115.97 3059.9,-1116.45 3056.22,-1116.83 3052.53,-1117.12 3048.84,-1117.31 3045.14,-1117.41 3041.44,-1117.41 3037.74,-1117.31 3034.05,-1117.12 3030.36,-1116.83 3026.68,-1116.45 3023.01,-1115.97 3019.36,-1115.4 3015.72,-1114.74 3012.11,-1113.99 3008.53,-1113.15 3004.98,-1112.23 3001.47,-1111.22 2998.01,-1110.14 2994.59,-1108.97 2991.24,-1107.74 2987.96,-1106.43 2984.75,-1105.06 2981.64,-1103.63 2978.62,-1102.14 2975.7,-1100.59 2972.91,-1098.99 2970.25,-1097.35 2967.73,-1095.66 2965.36,-1093.94 2963.16,-1092.18 2961.15,-1090.4 2959.32,-1088.6 2957.7,-1086.77 2956.29,-1084.94 2955.11,-1083.09 2954.16,-1081.25 2953.47,-1079.41 2953.03,-1077.57 2952.86,-1075.75 2952.96,-1073.94 2953.35,-1072.16 2954.02,-1070.41 2954.98,-1068.68 2956.24,-1067 2957.79,-1065.35 2959.64,-1063.76 2961.79,-1062.21 2964.22,-1060.71 2966.95,-1059.28 2969.96,-1057.91 2973.24,-1056.6 2976.79,-1055.37 2980.6,-1054.21 2984.64,-1053.12 2988.92,-1052.12 2993.41,-1051.2 2998.1,-1050.36 3002.98,-1049.61 3008.01,-1048.95 3013.19,-1048.38 3018.49,-1047.9 3023.9,-1047.51 3029.38,-1047.23 3034.92,-1047.03 3040.5,-1046.94 3046.08,-1046.94 3051.66,-1047.03"/>
<text text-anchor="start" x="3014.12" y="-1091.97" font-family="Times,serif" font-size="14.00">C0025929</text>
<text text-anchor="start" x="2991.39" y="-1077.97" font-family="Times,serif" font-size="14.00">Laboratory Mouse</text>
<text text-anchor="start" x="3027.34" y="-1063.97" font-family="Times,serif" font-size="14.00">16:17</text>
</g>
<!-- id_27519886_DOT_23 -->
<g id="node23" class="node">
<title>id_27519886_DOT_23</title>
<polygon fill="darkorange" stroke="darkorange" points="2627.73,-1024.86 2631.97,-1025.05 2636.17,-1025.34 2640.31,-1025.72 2644.37,-1026.2 2648.34,-1026.77 2652.2,-1027.43 2655.93,-1028.18 2659.53,-1029.02 2662.97,-1029.94 2666.25,-1030.95 2669.35,-1032.03 2672.26,-1033.2 2674.98,-1034.43 2677.5,-1035.73 2679.8,-1037.11 2681.89,-1038.54 2683.76,-1040.03 2685.4,-1041.58 2686.82,-1043.18 2688.01,-1044.82 2688.97,-1046.51 2689.71,-1048.23 2690.22,-1049.99 2690.52,-1051.77 2690.6,-1053.57 2690.47,-1055.4 2690.13,-1057.23 2689.6,-1059.07 2688.88,-1060.92 2687.97,-1062.76 2686.89,-1064.6 2685.65,-1066.42 2684.25,-1068.23 2682.7,-1070.01 2681.02,-1071.76 2679.21,-1073.49 2677.28,-1075.17 2675.24,-1076.82 2673.1,-1078.41 2670.86,-1079.96 2668.55,-1081.45 2666.16,-1082.89 2663.71,-1084.26 2661.19,-1085.57 2658.62,-1086.8 2656.01,-1087.96 2653.35,-1089.05 2650.66,-1090.05 2647.95,-1090.97 2645.2,-1091.81 2642.43,-1092.56 2639.65,-1093.22 2636.85,-1093.79 2634.04,-1094.27 2631.22,-1094.65 2628.4,-1094.94 2625.57,-1095.14 2622.73,-1095.23 2619.9,-1095.23 2617.07,-1095.14 2614.23,-1094.94 2611.41,-1094.65 2608.59,-1094.27 2605.78,-1093.79 2602.98,-1093.22 2600.2,-1092.56 2597.43,-1091.81 2594.69,-1090.97 2591.97,-1090.05 2589.28,-1089.05 2586.62,-1087.96 2584.01,-1086.8 2581.44,-1085.57 2578.93,-1084.26 2576.47,-1082.89 2574.08,-1081.45 2571.77,-1079.96 2569.54,-1078.41 2567.4,-1076.82 2565.36,-1075.17 2563.43,-1073.49 2561.61,-1071.76 2559.93,-1070.01 2558.38,-1068.23 2556.98,-1066.42 2555.74,-1064.6 2554.66,-1062.76 2553.76,-1060.92 2553.03,-1059.07 2552.5,-1057.23 2552.16,-1055.4 2552.03,-1053.57 2552.11,-1051.77 2552.41,-1049.99 2552.92,-1048.23 2553.66,-1046.51 2554.62,-1044.82 2555.81,-1043.18 2557.23,-1041.58 2558.87,-1040.03 2560.74,-1038.54 2562.83,-1037.11 2565.13,-1035.73 2567.65,-1034.43 2570.37,-1033.2 2573.28,-1032.03 2576.38,-1030.95 2579.66,-1029.94 2583.1,-1029.02 2586.7,-1028.18 2590.43,-1027.43 2594.29,-1026.77 2598.26,-1026.2 2602.32,-1025.72 2606.46,-1025.34 2610.66,-1025.05 2614.9,-1024.86 2619.18,-1024.76 2623.46,-1024.76 2627.73,-1024.86"/>
<text text-anchor="start" x="2592.15" y="-1069.8" font-family="Times,serif" font-size="14.00">C0025927</text>
<text text-anchor="start" x="2583.41" y="-1055.8" font-family="Times,serif" font-size="14.00">inbred strains</text>
<text text-anchor="start" x="2598.37" y="-1041.8" font-family="Times,serif" font-size="14.00">207:208</text>
</g>
<!-- id_27519886_DOT_5&#45;&#45;id_27519886_DOT_23 -->
<g id="edge15" class="edge">
<title>id_27519886_DOT_5&#45;&#45;id_27519886_DOT_23</title>
<path fill="none" stroke="black" stroke-dasharray="1,5" d="M2953.02,-1077.43C2873.37,-1073.24 2759.12,-1067.24 2687.62,-1063.48"/>
<text text-anchor="middle" x="2794.07" y="-1073.26" font-family="Times,serif" font-size="14.00">0.890387</text>
</g>
<!-- id_27519886_DOT_27 -->
<g id="node27" class="node">
<title>id_27519886_DOT_27</title>
<polygon fill="brown" stroke="brown" points="3440.96,-954.46 3444.38,-954.66 3447.78,-954.95 3451.12,-955.33 3454.4,-955.81 3457.6,-956.38 3460.72,-957.04 3463.74,-957.79 3466.64,-958.63 3469.42,-959.55 3472.07,-960.55 3474.57,-961.64 3476.92,-962.8 3479.12,-964.03 3481.15,-965.34 3483.01,-966.71 3484.7,-968.14 3486.21,-969.64 3487.54,-971.19 3488.68,-972.78 3489.64,-974.43 3490.42,-976.11 3491.02,-977.84 3491.43,-979.59 3491.67,-981.37 3491.73,-983.18 3491.63,-985 3491.36,-986.84 3490.93,-988.68 3490.34,-990.52 3489.61,-992.37 3488.74,-994.2 3487.74,-996.03 3486.61,-997.83 3485.36,-999.61 3484,-1001.37 3482.53,-1003.09 3480.97,-1004.78 3479.33,-1006.42 3477.6,-1008.02 3475.8,-1009.57 3473.93,-1011.06 3472,-1012.49 3470.01,-1013.87 3467.98,-1015.17 3465.91,-1016.4 3463.8,-1017.57 3461.65,-1018.65 3459.48,-1019.66 3457.28,-1020.58 3455.07,-1021.42 3452.83,-1022.17 3450.59,-1022.83 3448.33,-1023.4 3446.06,-1023.88 3443.78,-1024.26 3441.5,-1024.55 3439.21,-1024.74 3436.92,-1024.84 3434.63,-1024.84 3432.34,-1024.74 3430.06,-1024.55 3427.78,-1024.26 3425.5,-1023.88 3423.23,-1023.4 3420.97,-1022.83 3418.72,-1022.17 3416.49,-1021.42 3414.27,-1020.58 3412.07,-1019.66 3409.9,-1018.65 3407.76,-1017.57 3405.65,-1016.4 3403.57,-1015.17 3401.54,-1013.87 3399.56,-1012.49 3397.63,-1011.06 3395.76,-1009.57 3393.96,-1008.02 3392.23,-1006.42 3390.58,-1004.78 3389.02,-1003.09 3387.56,-1001.37 3386.2,-999.61 3384.95,-997.83 3383.82,-996.03 3382.81,-994.2 3381.94,-992.37 3381.21,-990.52 3380.63,-988.68 3380.2,-986.84 3379.93,-985 3379.82,-983.18 3379.88,-981.37 3380.12,-979.59 3380.54,-977.84 3381.13,-976.11 3381.91,-974.43 3382.87,-972.78 3384.02,-971.19 3385.35,-969.64 3386.85,-968.14 3388.54,-966.71 3390.4,-965.34 3392.43,-964.03 3394.63,-962.8 3396.98,-961.64 3399.49,-960.55 3402.13,-959.55 3404.91,-958.63 3407.82,-957.79 3410.83,-957.04 3413.95,-956.38 3417.15,-955.81 3420.43,-955.33 3423.78,-954.95 3427.17,-954.66 3430.6,-954.46 3434.05,-954.37 3437.51,-954.37 3440.96,-954.46"/>
<text text-anchor="start" x="3406.61" y="-999.4" font-family="Times,serif" font-size="14.00">C0025929</text>
<text text-anchor="start" x="3417.5" y="-985.4" font-family="Times,serif" font-size="14.00">mouse</text>
<text text-anchor="start" x="3412.83" y="-971.4" font-family="Times,serif" font-size="14.00">265:265</text>
</g>
<!-- id_27519886_DOT_5&#45;&#45;id_27519886_DOT_27 -->
<g id="edge16" class="edge">
<title>id_27519886_DOT_5&#45;&#45;id_27519886_DOT_27</title>
<path fill="none" stroke="black" stroke-dasharray="1,5" d="M3125.57,-1062.77C3204.8,-1044.08 3321.98,-1016.44 3387.29,-1001.04"/>
<text text-anchor="middle" x="3230.18" y="-1034.7" font-family="Times,serif" font-size="14.00">0.516256</text>
</g>
<!-- id_27519886_DOT_6 -->
<g id="node6" class="node">
<title>id_27519886_DOT_6</title>
<polygon fill="blueviolet" stroke="blueviolet" points="380.9,-4096.57 384.59,-4096.76 388.23,-4097.05 391.82,-4097.43 395.35,-4097.91 398.79,-4098.48 402.14,-4099.14 405.38,-4099.89 408.5,-4100.73 411.49,-4101.65 414.33,-4102.66 417.02,-4103.74 419.55,-4104.9 421.91,-4106.14 424.09,-4107.44 426.09,-4108.81 427.9,-4110.25 429.52,-4111.74 430.95,-4113.29 432.18,-4114.89 433.21,-4116.53 434.05,-4118.22 434.69,-4119.94 435.14,-4121.69 435.39,-4123.48 435.46,-4125.28 435.35,-4127.1 435.06,-4128.94 434.59,-4130.78 433.97,-4132.63 433.18,-4134.47 432.24,-4136.3 431.17,-4138.13 429.95,-4139.93 428.61,-4141.72 427.15,-4143.47 425.57,-4145.19 423.9,-4146.88 422.13,-4148.52 420.27,-4150.12 418.34,-4151.67 416.33,-4153.16 414.26,-4154.6 412.12,-4155.97 409.94,-4157.27 407.71,-4158.51 405.44,-4159.67 403.14,-4160.75 400.81,-4161.76 398.45,-4162.68 396.07,-4163.52 393.67,-4164.27 391.25,-4164.93 388.82,-4165.5 386.38,-4165.98 383.94,-4166.36 381.48,-4166.65 379.03,-4166.84 376.57,-4166.94 374.11,-4166.94 371.65,-4166.84 369.19,-4166.65 366.74,-4166.36 364.3,-4165.98 361.86,-4165.5 359.43,-4164.93 357.01,-4164.27 354.61,-4163.52 352.23,-4162.68 349.87,-4161.76 347.54,-4160.75 345.23,-4159.67 342.97,-4158.51 340.74,-4157.27 338.55,-4155.97 336.42,-4154.6 334.35,-4153.16 332.34,-4151.67 330.41,-4150.12 328.55,-4148.52 326.78,-4146.88 325.1,-4145.19 323.53,-4143.47 322.07,-4141.72 320.73,-4139.93 319.51,-4138.13 318.43,-4136.3 317.5,-4134.47 316.71,-4132.63 316.09,-4130.78 315.62,-4128.94 315.33,-4127.1 315.22,-4125.28 315.29,-4123.48 315.54,-4121.69 315.99,-4119.94 316.63,-4118.22 317.47,-4116.53 318.5,-4114.89 319.73,-4113.29 321.15,-4111.74 322.78,-4110.25 324.59,-4108.81 326.59,-4107.44 328.77,-4106.14 331.13,-4104.9 333.66,-4103.74 336.35,-4102.66 339.19,-4101.65 342.18,-4100.73 345.3,-4099.89 348.54,-4099.14 351.89,-4098.48 355.33,-4097.91 358.86,-4097.43 362.45,-4097.05 366.09,-4096.76 369.78,-4096.57 373.48,-4096.47 377.2,-4096.47 380.9,-4096.57"/>
<text text-anchor="start" x="346.17" y="-4141.5" font-family="Times,serif" font-size="14.00">C0072980</text>
<text text-anchor="start" x="343.46" y="-4127.5" font-family="Times,serif" font-size="14.00">Rapamycin</text>
<text text-anchor="start" x="359.39" y="-4113.5" font-family="Times,serif" font-size="14.00">18:18</text>
</g>
<!-- id_27519886_DOT_6&#45;&#45;id_27519886_DOT_14 -->
<g id="edge5" class="edge">
<title>id_27519886_DOT_6&#45;&#45;id_27519886_DOT_14</title>
<path fill="none" stroke="black" d="M385.64,-4096.61C406.04,-4027.11 451.34,-3872.76 471.61,-3803.68"/>
<text text-anchor="middle" x="402.38" y="-3952.94" font-family="Times,serif" font-size="14.00">0.000900</text>
</g>
<!-- id_27519886_DOT_7 -->
<g id="node7" class="node">
<title>id_27519886_DOT_7</title>
<polygon fill="cadetblue" stroke="cadetblue" points="594.6,-2445.24 598.02,-2445.43 601.39,-2445.72 604.72,-2446.1 607.98,-2446.58 611.17,-2447.15 614.27,-2447.81 617.28,-2448.56 620.16,-2449.4 622.93,-2450.32 625.56,-2451.33 628.06,-2452.41 630.4,-2453.57 632.59,-2454.81 634.61,-2456.11 636.46,-2457.49 638.14,-2458.92 639.64,-2460.41 640.96,-2461.96 642.1,-2463.56 643.06,-2465.2 643.83,-2466.89 644.42,-2468.61 644.84,-2470.37 645.07,-2472.15 645.14,-2473.95 645.03,-2475.78 644.76,-2477.61 644.33,-2479.45 643.75,-2481.3 643.03,-2483.14 642.16,-2484.98 641.16,-2486.8 640.03,-2488.61 638.79,-2490.39 637.44,-2492.14 635.98,-2493.87 634.43,-2495.55 632.79,-2497.2 631.07,-2498.79 629.28,-2500.34 627.42,-2501.83 625.5,-2503.27 623.52,-2504.64 621.5,-2505.94 619.44,-2507.18 617.34,-2508.34 615.2,-2509.43 613.04,-2510.43 610.86,-2511.35 608.65,-2512.19 606.43,-2512.94 604.19,-2513.6 601.94,-2514.17 599.68,-2514.65 597.42,-2515.03 595.14,-2515.32 592.87,-2515.52 590.59,-2515.61 588.31,-2515.61 586.04,-2515.52 583.76,-2515.32 581.49,-2515.03 579.22,-2514.65 576.96,-2514.17 574.72,-2513.6 572.48,-2512.94 570.25,-2512.19 568.05,-2511.35 565.86,-2510.43 563.7,-2509.43 561.57,-2508.34 559.47,-2507.18 557.4,-2505.94 555.38,-2504.64 553.41,-2503.27 551.49,-2501.83 549.63,-2500.34 547.83,-2498.79 546.11,-2497.2 544.47,-2495.55 542.92,-2493.87 541.47,-2492.14 540.11,-2490.39 538.87,-2488.61 537.75,-2486.8 536.75,-2484.98 535.88,-2483.14 535.15,-2481.3 534.57,-2479.45 534.14,-2477.61 533.87,-2475.78 533.77,-2473.95 533.83,-2472.15 534.07,-2470.37 534.48,-2468.61 535.07,-2466.89 535.85,-2465.2 536.81,-2463.56 537.94,-2461.96 539.27,-2460.41 540.77,-2458.92 542.44,-2457.49 544.3,-2456.11 546.32,-2454.81 548.5,-2453.57 550.85,-2452.41 553.34,-2451.33 555.97,-2450.32 558.74,-2449.4 561.63,-2448.56 564.63,-2447.81 567.73,-2447.15 570.92,-2446.58 574.18,-2446.1 577.51,-2445.72 580.89,-2445.43 584.3,-2445.24 587.73,-2445.14 591.17,-2445.14 594.6,-2445.24"/>
<text text-anchor="start" x="560.54" y="-2490.18" font-family="Times,serif" font-size="14.00">C0001811</text>
<text text-anchor="start" x="573.9" y="-2476.18" font-family="Times,serif" font-size="14.00">aging</text>
<text text-anchor="start" x="573.51" y="-2462.18" font-family="Times,serif" font-size="14.00">23:23</text>
</g>
<!-- id_27519886_DOT_9 -->
<g id="node9" class="node">
<title>id_27519886_DOT_9</title>
<polygon fill="cadetblue" stroke="cadetblue" points="936.05,-2675.02 939.46,-2675.21 942.84,-2675.5 946.17,-2675.89 949.43,-2676.36 952.62,-2676.93 955.72,-2677.6 958.72,-2678.35 961.61,-2679.18 964.38,-2680.11 967.01,-2681.11 969.5,-2682.2 971.85,-2683.36 974.03,-2684.59 976.05,-2685.9 977.91,-2687.27 979.58,-2688.7 981.09,-2690.2 982.41,-2691.74 983.55,-2693.34 984.5,-2694.99 985.28,-2696.67 985.87,-2698.39 986.28,-2700.15 986.52,-2701.93 986.58,-2703.74 986.48,-2705.56 986.21,-2707.39 985.78,-2709.24 985.2,-2711.08 984.47,-2712.93 983.61,-2714.76 982.61,-2716.58 981.48,-2718.39 980.24,-2720.17 978.88,-2721.93 977.43,-2723.65 975.88,-2725.33 974.24,-2726.98 972.52,-2728.58 970.72,-2730.12 968.86,-2731.62 966.94,-2733.05 964.97,-2734.42 962.95,-2735.73 960.88,-2736.96 958.78,-2738.12 956.65,-2739.21 954.49,-2740.21 952.3,-2741.14 950.1,-2741.97 947.87,-2742.72 945.64,-2743.39 943.39,-2743.96 941.13,-2744.43 938.86,-2744.82 936.59,-2745.11 934.32,-2745.3 932.04,-2745.4 929.76,-2745.4 927.48,-2745.3 925.21,-2745.11 922.94,-2744.82 920.67,-2744.43 918.41,-2743.96 916.16,-2743.39 913.92,-2742.72 911.7,-2741.97 909.5,-2741.14 907.31,-2740.21 905.15,-2739.21 903.02,-2738.12 900.91,-2736.96 898.85,-2735.73 896.83,-2734.42 894.85,-2733.05 892.93,-2731.62 891.07,-2730.12 889.28,-2728.58 887.56,-2726.98 885.92,-2725.33 884.37,-2723.65 882.91,-2721.93 881.56,-2720.17 880.32,-2718.39 879.19,-2716.58 878.19,-2714.76 877.33,-2712.93 876.6,-2711.08 876.02,-2709.24 875.59,-2707.39 875.32,-2705.56 875.21,-2703.74 875.28,-2701.93 875.52,-2700.15 875.93,-2698.39 876.52,-2696.67 877.3,-2694.99 878.25,-2693.34 879.39,-2691.74 880.71,-2690.2 882.21,-2688.7 883.89,-2687.27 885.74,-2685.9 887.77,-2684.59 889.95,-2683.36 892.29,-2682.2 894.79,-2681.11 897.42,-2680.11 900.19,-2679.18 903.08,-2678.35 906.08,-2677.6 909.18,-2676.93 912.37,-2676.36 915.63,-2675.89 918.96,-2675.5 922.33,-2675.21 925.75,-2675.02 929.18,-2674.92 932.62,-2674.92 936.05,-2675.02"/>
<text text-anchor="start" x="901.99" y="-2719.96" font-family="Times,serif" font-size="14.00">C0001811</text>
<text text-anchor="start" x="915.35" y="-2705.96" font-family="Times,serif" font-size="14.00">aging</text>
<text text-anchor="start" x="914.95" y="-2691.96" font-family="Times,serif" font-size="14.00">35:35</text>
</g>
<!-- id_27519886_DOT_7&#45;&#45;id_27519886_DOT_9 -->
<g id="edge6" class="edge">
<title>id_27519886_DOT_7&#45;&#45;id_27519886_DOT_9</title>
<path fill="none" stroke="black" d="M624.71,-2504.1C688.6,-2547.1 823.16,-2637.65 890.59,-2683.03"/>
<text text-anchor="middle" x="731.4" y="-2596.37" font-family="Times,serif" font-size="14.00">0.001357</text>
</g>
<!-- id_27519886_DOT_8 -->
<g id="node8" class="node">
<title>id_27519886_DOT_8</title>
<polygon fill="brown" stroke="brown" points="3806.62,-827.76 3810.04,-827.95 3813.44,-828.24 3816.78,-828.62 3820.06,-829.1 3823.27,-829.67 3826.38,-830.33 3829.4,-831.08 3832.3,-831.92 3835.08,-832.84 3837.73,-833.85 3840.23,-834.93 3842.59,-836.09 3844.78,-837.33 3846.81,-838.63 3848.67,-840.01 3850.36,-841.44 3851.87,-842.93 3853.2,-844.48 3854.34,-846.08 3855.3,-847.72 3856.08,-849.41 3856.68,-851.13 3857.09,-852.89 3857.33,-854.67 3857.39,-856.47 3857.29,-858.3 3857.02,-860.13 3856.59,-861.97 3856,-863.82 3855.27,-865.66 3854.4,-867.5 3853.4,-869.32 3852.27,-871.13 3851.02,-872.91 3849.66,-874.66 3848.19,-876.39 3846.63,-878.07 3844.99,-879.72 3843.26,-881.31 3841.46,-882.86 3839.59,-884.35 3837.66,-885.79 3835.67,-887.16 3833.64,-888.46 3831.57,-889.7 3829.46,-890.86 3827.31,-891.95 3825.14,-892.95 3822.95,-893.87 3820.73,-894.71 3818.49,-895.46 3816.25,-896.12 3813.99,-896.69 3811.72,-897.17 3809.44,-897.55 3807.16,-897.84 3804.87,-898.04 3802.58,-898.13 3800.29,-898.13 3798,-898.04 3795.72,-897.84 3793.44,-897.55 3791.16,-897.17 3788.89,-896.69 3786.63,-896.12 3784.38,-895.46 3782.15,-894.71 3779.93,-893.87 3777.73,-892.95 3775.56,-891.95 3773.42,-890.86 3771.31,-889.7 3769.23,-888.46 3767.2,-887.16 3765.22,-885.79 3763.29,-884.35 3761.42,-882.86 3759.62,-881.31 3757.89,-879.72 3756.24,-878.07 3754.68,-876.39 3753.22,-874.66 3751.86,-872.91 3750.61,-871.13 3749.48,-869.32 3748.47,-867.5 3747.6,-865.66 3746.87,-863.82 3746.29,-861.97 3745.86,-860.13 3745.59,-858.3 3745.48,-856.47 3745.55,-854.67 3745.78,-852.89 3746.2,-851.13 3746.79,-849.41 3747.57,-847.72 3748.53,-846.08 3749.68,-844.48 3751.01,-842.93 3752.51,-841.44 3754.2,-840.01 3756.06,-838.63 3758.09,-837.33 3760.29,-836.09 3762.64,-834.93 3765.15,-833.85 3767.8,-832.84 3770.58,-831.92 3773.48,-831.08 3776.49,-830.33 3779.61,-829.67 3782.81,-829.1 3786.09,-828.62 3789.44,-828.24 3792.83,-827.95 3796.26,-827.76 3799.71,-827.66 3803.17,-827.66 3806.62,-827.76"/>
<text text-anchor="start" x="3772.27" y="-872.7" font-family="Times,serif" font-size="14.00">C0025929</text>
<text text-anchor="start" x="3787.83" y="-858.7" font-family="Times,serif" font-size="14.00">mice</text>
<text text-anchor="start" x="3785.49" y="-844.7" font-family="Times,serif" font-size="14.00">25:25</text>
</g>
<!-- id_27519886_DOT_15 -->
<g id="node15" class="node">
<title>id_27519886_DOT_15</title>
<polygon fill="brown" stroke="brown" points="4163.86,-709.61 4167.29,-709.8 4170.68,-710.09 4174.02,-710.48 4177.3,-710.95 4180.51,-711.52 4183.62,-712.18 4186.64,-712.94 4189.54,-713.77 4192.32,-714.7 4194.97,-715.7 4197.47,-716.79 4199.83,-717.95 4202.02,-719.18 4204.05,-720.49 4205.92,-721.86 4207.6,-723.29 4209.11,-724.78 4210.44,-726.33 4211.58,-727.93 4212.54,-729.57 4213.32,-731.26 4213.92,-732.98 4214.33,-734.74 4214.57,-736.52 4214.64,-738.33 4214.53,-740.15 4214.26,-741.98 4213.83,-743.83 4213.25,-745.67 4212.51,-747.51 4211.64,-749.35 4210.64,-751.17 4209.51,-752.98 4208.26,-754.76 4206.9,-756.52 4205.44,-758.24 4203.88,-759.92 4202.23,-761.57 4200.5,-763.17 4198.7,-764.71 4196.83,-766.21 4194.9,-767.64 4192.92,-769.01 4190.88,-770.32 4188.81,-771.55 4186.7,-772.71 4184.56,-773.8 4182.38,-774.8 4180.19,-775.73 4177.97,-776.56 4175.74,-777.31 4173.49,-777.97 4171.23,-778.55 4168.96,-779.02 4166.68,-779.41 4164.4,-779.7 4162.11,-779.89 4159.82,-779.98 4157.53,-779.98 4155.25,-779.89 4152.96,-779.7 4150.68,-779.41 4148.4,-779.02 4146.13,-778.55 4143.87,-777.97 4141.62,-777.31 4139.39,-776.56 4137.17,-775.73 4134.98,-774.8 4132.8,-773.8 4130.66,-772.71 4128.55,-771.55 4126.47,-770.32 4124.44,-769.01 4122.46,-767.64 4120.53,-766.21 4118.66,-764.71 4116.86,-763.17 4115.13,-761.57 4113.48,-759.92 4111.92,-758.24 4110.46,-756.52 4109.1,-754.76 4107.85,-752.98 4106.72,-751.17 4105.72,-749.35 4104.84,-747.51 4104.11,-745.67 4103.53,-743.83 4103.1,-741.98 4102.83,-740.15 4102.72,-738.33 4102.79,-736.52 4103.03,-734.74 4103.44,-732.98 4104.04,-731.26 4104.81,-729.57 4105.78,-727.93 4106.92,-726.33 4108.25,-724.78 4109.76,-723.29 4111.44,-721.86 4113.3,-720.49 4115.34,-719.18 4117.53,-717.95 4119.89,-716.79 4122.39,-715.7 4125.04,-714.7 4127.82,-713.77 4130.72,-712.94 4133.74,-712.18 4136.85,-711.52 4140.06,-710.95 4143.34,-710.48 4146.68,-710.09 4150.07,-709.8 4153.5,-709.61 4156.95,-709.51 4160.41,-709.51 4163.86,-709.61"/>
<text text-anchor="start" x="4129.51" y="-754.55" font-family="Times,serif" font-size="14.00">C0025929</text>
<text text-anchor="start" x="4145.08" y="-740.55" font-family="Times,serif" font-size="14.00">mice</text>
<text text-anchor="start" x="4142.73" y="-726.55" font-family="Times,serif" font-size="14.00">56:56</text>
</g>
<!-- id_27519886_DOT_8&#45;&#45;id_27519886_DOT_15 -->
<g id="edge7" class="edge">
<title>id_27519886_DOT_8&#45;&#45;id_27519886_DOT_15</title>
<path fill="none" stroke="black" d="M3854.15,-845.46C3924.22,-822.29 4046.87,-781.73 4113.12,-759.82"/>
<text text-anchor="middle" x="3957.39" y="-805.44" font-family="Times,serif" font-size="14.00">0.000571</text>
</g>
<!-- id_27519886_DOT_8&#45;&#45;id_27519886_DOT_27 -->
<g id="edge8" class="edge">
<title>id_27519886_DOT_8&#45;&#45;id_27519886_DOT_27</title>
<path fill="none" stroke="black" d="M3756.6,-878.43C3688.71,-901.96 3560.12,-946.51 3488.07,-971.48"/>
<text text-anchor="middle" x="3596.09" y="-927.76" font-family="Times,serif" font-size="14.00">0.049406</text>
</g>
<!-- id_27519886_DOT_9&#45;&#45;id_27519886_DOT_21 -->
<g id="edge17" class="edge">
<title>id_27519886_DOT_9&#45;&#45;id_27519886_DOT_21</title>
<path fill="none" stroke="black" stroke-dasharray="1,5" d="M915.29,-2743.28C882.45,-2813.01 806.46,-2974.31 773.05,-3045.24"/>
<text text-anchor="middle" x="817.92" y="-2897.06" font-family="Times,serif" font-size="14.00">0.923405</text>
</g>
<!-- id_27519886_DOT_24 -->
<g id="node24" class="node">
<title>id_27519886_DOT_24</title>
<polygon fill="darkred" stroke="darkred" points="1296.83,-2479.86 1300.42,-2480.06 1303.99,-2480.35 1307.5,-2480.73 1310.94,-2481.21 1314.3,-2481.78 1317.58,-2482.44 1320.74,-2483.19 1323.79,-2484.03 1326.71,-2484.95 1329.49,-2485.95 1332.12,-2487.04 1334.59,-2488.2 1336.89,-2489.44 1339.02,-2490.74 1340.98,-2492.11 1342.75,-2493.55 1344.33,-2495.04 1345.73,-2496.59 1346.93,-2498.18 1347.94,-2499.83 1348.75,-2501.51 1349.38,-2503.24 1349.82,-2504.99 1350.07,-2506.77 1350.13,-2508.58 1350.02,-2510.4 1349.74,-2512.24 1349.29,-2514.08 1348.67,-2515.93 1347.91,-2517.77 1346.99,-2519.6 1345.94,-2521.43 1344.75,-2523.23 1343.44,-2525.01 1342.01,-2526.77 1340.47,-2528.49 1338.84,-2530.18 1337.11,-2531.82 1335.29,-2533.42 1333.4,-2534.97 1331.44,-2536.46 1329.41,-2537.89 1327.33,-2539.27 1325.2,-2540.57 1323.02,-2541.81 1320.8,-2542.97 1318.55,-2544.05 1316.27,-2545.06 1313.97,-2545.98 1311.64,-2546.82 1309.3,-2547.57 1306.94,-2548.23 1304.56,-2548.8 1302.18,-2549.28 1299.79,-2549.66 1297.39,-2549.95 1294.99,-2550.14 1292.59,-2550.24 1290.19,-2550.24 1287.79,-2550.14 1285.39,-2549.95 1282.99,-2549.66 1280.6,-2549.28 1278.22,-2548.8 1275.84,-2548.23 1273.48,-2547.57 1271.14,-2546.82 1268.81,-2545.98 1266.51,-2545.06 1264.23,-2544.05 1261.97,-2542.97 1259.76,-2541.81 1257.58,-2540.57 1255.45,-2539.27 1253.37,-2537.89 1251.34,-2536.46 1249.38,-2534.97 1247.49,-2533.42 1245.67,-2531.82 1243.94,-2530.18 1242.31,-2528.49 1240.77,-2526.77 1239.34,-2525.01 1238.03,-2523.23 1236.84,-2521.43 1235.79,-2519.6 1234.87,-2517.77 1234.11,-2515.93 1233.49,-2514.08 1233.04,-2512.24 1232.76,-2510.4 1232.65,-2508.58 1232.71,-2506.77 1232.96,-2504.99 1233.4,-2503.24 1234.03,-2501.51 1234.84,-2499.83 1235.85,-2498.18 1237.05,-2496.59 1238.45,-2495.04 1240.03,-2493.55 1241.8,-2492.11 1243.75,-2490.74 1245.89,-2489.44 1248.19,-2488.2 1250.66,-2487.04 1253.29,-2485.95 1256.07,-2484.95 1258.99,-2484.03 1262.04,-2483.19 1265.2,-2482.44 1268.47,-2481.78 1271.84,-2481.21 1275.28,-2480.73 1278.79,-2480.35 1282.35,-2480.06 1285.95,-2479.86 1289.58,-2479.77 1293.2,-2479.77 1296.83,-2479.86"/>
<text text-anchor="start" x="1262.22" y="-2524.8" font-family="Times,serif" font-size="14.00">C0231337</text>
<text text-anchor="start" x="1260.3" y="-2510.8" font-family="Times,serif" font-size="14.00">senescence</text>
<text text-anchor="start" x="1268.44" y="-2496.8" font-family="Times,serif" font-size="14.00">241:241</text>
</g>
<!-- id_27519886_DOT_9&#45;&#45;id_27519886_DOT_24 -->
<g id="edge18" class="edge">
<title>id_27519886_DOT_9&#45;&#45;id_27519886_DOT_24</title>
<path fill="none" stroke="black" stroke-dasharray="1,5" d="M976.19,-2685.64C1047.2,-2647.2 1183.59,-2573.36 1251.27,-2536.72"/>
<text text-anchor="middle" x="1087.48" y="-2613.98" font-family="Times,serif" font-size="14.00">0.703122</text>
</g>
<!-- id_27519886_DOT_11 -->
<g id="node11" class="node">
<title>id_27519886_DOT_11</title>
<polygon fill="coral" stroke="coral" points="2676.6,-615.87 2680.02,-616.06 2683.42,-616.35 2686.76,-616.73 2690.04,-617.21 2693.25,-617.78 2696.36,-618.44 2699.38,-619.19 2702.28,-620.03 2705.06,-620.95 2707.71,-621.96 2710.21,-623.04 2712.57,-624.2 2714.76,-625.44 2716.79,-626.74 2718.65,-628.11 2720.34,-629.55 2721.85,-631.04 2723.18,-632.59 2724.32,-634.19 2725.28,-635.83 2726.06,-637.52 2726.66,-639.24 2727.07,-641 2727.31,-642.78 2727.37,-644.58 2727.27,-646.41 2727,-648.24 2726.57,-650.08 2725.98,-651.93 2725.25,-653.77 2724.38,-655.61 2723.38,-657.43 2722.25,-659.23 2721,-661.02 2719.64,-662.77 2718.17,-664.49 2716.61,-666.18 2714.97,-667.82 2713.24,-669.42 2711.44,-670.97 2709.57,-672.46 2707.64,-673.9 2705.65,-675.27 2703.62,-676.57 2701.55,-677.81 2699.44,-678.97 2697.29,-680.05 2695.12,-681.06 2692.92,-681.98 2690.71,-682.82 2688.47,-683.57 2686.23,-684.23 2683.97,-684.8 2681.7,-685.28 2679.42,-685.66 2677.14,-685.95 2674.85,-686.15 2672.56,-686.24 2670.27,-686.24 2667.98,-686.15 2665.7,-685.95 2663.42,-685.66 2661.14,-685.28 2658.87,-684.8 2656.61,-684.23 2654.36,-683.57 2652.13,-682.82 2649.91,-681.98 2647.71,-681.06 2645.54,-680.05 2643.4,-678.97 2641.29,-677.81 2639.21,-676.57 2637.18,-675.27 2635.2,-673.9 2633.27,-672.46 2631.4,-670.97 2629.6,-669.42 2627.87,-667.82 2626.22,-666.18 2624.66,-664.49 2623.2,-662.77 2621.84,-661.02 2620.59,-659.23 2619.46,-657.43 2618.45,-655.61 2617.58,-653.77 2616.85,-651.93 2616.27,-650.08 2615.84,-648.24 2615.57,-646.41 2615.46,-644.58 2615.52,-642.78 2615.76,-641 2616.18,-639.24 2616.77,-637.52 2617.55,-635.83 2618.51,-634.19 2619.66,-632.59 2620.99,-631.04 2622.49,-629.55 2624.18,-628.11 2626.04,-626.74 2628.07,-625.44 2630.27,-624.2 2632.62,-623.04 2635.13,-621.96 2637.78,-620.95 2640.56,-620.03 2643.46,-619.19 2646.47,-618.44 2649.59,-617.78 2652.79,-617.21 2656.07,-616.73 2659.42,-616.35 2662.81,-616.06 2666.24,-615.87 2669.69,-615.77 2673.15,-615.77 2676.6,-615.87"/>
<text text-anchor="start" x="2642.25" y="-660.81" font-family="Times,serif" font-size="14.00">C2603343</text>
<text text-anchor="start" x="2656.25" y="-646.81" font-family="Times,serif" font-size="14.00">study</text>
<text text-anchor="start" x="2655.47" y="-632.81" font-family="Times,serif" font-size="14.00">41:41</text>
</g>
<!-- id_27519886_DOT_20 -->
<g id="node20" class="node">
<title>id_27519886_DOT_20</title>
<polygon fill="darkmagenta" stroke="darkmagenta" points="2748.6,-218.98 2752.03,-219.17 2755.42,-219.46 2758.77,-219.85 2762.05,-220.32 2765.25,-220.89 2768.37,-221.56 2771.38,-222.31 2774.29,-223.14 2777.07,-224.07 2779.71,-225.07 2782.22,-226.16 2784.57,-227.32 2786.77,-228.55 2788.8,-229.86 2790.66,-231.23 2792.35,-232.66 2793.86,-234.16 2795.18,-235.7 2796.33,-237.3 2797.29,-238.95 2798.07,-240.63 2798.66,-242.35 2799.08,-244.11 2799.32,-245.89 2799.38,-247.7 2799.27,-249.52 2799,-251.36 2798.57,-253.2 2797.99,-255.04 2797.26,-256.89 2796.39,-258.72 2795.38,-260.54 2794.25,-262.35 2793,-264.13 2791.64,-265.89 2790.18,-267.61 2788.62,-269.3 2786.97,-270.94 2785.25,-272.54 2783.44,-274.09 2781.57,-275.58 2779.64,-277.01 2777.66,-278.38 2775.63,-279.69 2773.56,-280.92 2771.44,-282.08 2769.3,-283.17 2767.13,-284.17 2764.93,-285.1 2762.71,-285.93 2760.48,-286.69 2758.23,-287.35 2755.97,-287.92 2753.7,-288.39 2751.43,-288.78 2749.14,-289.07 2746.86,-289.26 2744.57,-289.36 2742.28,-289.36 2739.99,-289.26 2737.7,-289.07 2735.42,-288.78 2733.15,-288.39 2730.88,-287.92 2728.62,-287.35 2726.37,-286.69 2724.13,-285.93 2721.92,-285.1 2719.72,-284.17 2717.55,-283.17 2715.4,-282.08 2713.29,-280.92 2711.22,-279.69 2709.19,-278.38 2707.2,-277.01 2705.27,-275.58 2703.41,-274.09 2701.6,-272.54 2699.87,-270.94 2698.23,-269.3 2696.67,-267.61 2695.2,-265.89 2693.84,-264.13 2692.6,-262.35 2691.46,-260.54 2690.46,-258.72 2689.59,-256.89 2688.86,-255.04 2688.27,-253.2 2687.84,-251.36 2687.57,-249.52 2687.47,-247.7 2687.53,-245.89 2687.77,-244.11 2688.19,-242.35 2688.78,-240.63 2689.56,-238.95 2690.52,-237.3 2691.66,-235.7 2692.99,-234.16 2694.5,-232.66 2696.19,-231.23 2698.05,-229.86 2700.08,-228.55 2702.28,-227.32 2704.63,-226.16 2707.13,-225.07 2709.78,-224.07 2712.56,-223.14 2715.46,-222.31 2718.48,-221.56 2721.6,-220.89 2724.8,-220.32 2728.08,-219.85 2731.42,-219.46 2734.82,-219.17 2738.25,-218.98 2741.7,-218.89 2745.15,-218.89 2748.6,-218.98"/>
<text text-anchor="start" x="2714.26" y="-263.92" font-family="Times,serif" font-size="14.00">C0947630</text>
<text text-anchor="start" x="2723.98" y="-249.92" font-family="Times,serif" font-size="14.00">studies</text>
<text text-anchor="start" x="2727.48" y="-235.92" font-family="Times,serif" font-size="14.00">81:81</text>
</g>
<!-- id_27519886_DOT_11&#45;&#45;id_27519886_DOT_20 -->
<g id="edge9" class="edge">
<title>id_27519886_DOT_11&#45;&#45;id_27519886_DOT_20</title>
<path fill="none" stroke="black" d="M2677.81,-615.79C2691.47,-540.47 2723.4,-364.51 2737.05,-289.26"/>
<text text-anchor="middle" x="2681.18" y="-455.32" font-family="Times,serif" font-size="14.00">0.001610</text>
</g>
<!-- id_27519886_DOT_11&#45;&#45;id_27519886_DOT_23 -->
<g id="edge19" class="edge">
<title>id_27519886_DOT_11&#45;&#45;id_27519886_DOT_23</title>
<path fill="none" stroke="black" stroke-dasharray="1,5" d="M2667.1,-686.23C2657.63,-763.54 2635.12,-947.35 2625.64,-1024.71"/>
<text text-anchor="middle" x="2620.12" y="-858.27" font-family="Times,serif" font-size="14.00">0.913530</text>
</g>
<!-- id_27519886_DOT_12&#45;&#45;id_27519886_DOT_19 -->
<g id="edge20" class="edge">
<title>id_27519886_DOT_12&#45;&#45;id_27519886_DOT_19</title>
<path fill="none" stroke="black" stroke-dasharray="1,5" d="M1316.26,-399.93C1359.82,-462.76 1457.78,-604.08 1503.02,-669.34"/>
<text text-anchor="middle" x="1383.39" y="-537.44" font-family="Times,serif" font-size="14.00">0.903393</text>
</g>
<!-- id_27519886_DOT_13 -->
<g id="node13" class="node">
<title>id_27519886_DOT_13</title>
<polygon fill="crimson" stroke="crimson" points="1639.75,-2256.03 1644.52,-2256.22 1649.24,-2256.51 1653.9,-2256.89 1658.46,-2257.37 1662.92,-2257.94 1667.26,-2258.6 1671.45,-2259.35 1675.49,-2260.19 1679.36,-2261.11 1683.04,-2262.12 1686.53,-2263.2 1689.8,-2264.37 1692.86,-2265.6 1695.69,-2266.91 1698.28,-2268.28 1700.62,-2269.71 1702.72,-2271.2 1704.57,-2272.75 1706.16,-2274.35 1707.5,-2275.99 1708.58,-2277.68 1709.41,-2279.4 1709.99,-2281.16 1710.32,-2282.94 1710.41,-2284.74 1710.26,-2286.57 1709.89,-2288.4 1709.29,-2290.25 1708.48,-2292.09 1707.46,-2293.93 1706.25,-2295.77 1704.85,-2297.59 1703.28,-2299.4 1701.54,-2301.18 1699.64,-2302.93 1697.61,-2304.66 1695.44,-2306.34 1693.15,-2307.99 1690.74,-2309.59 1688.23,-2311.13 1685.63,-2312.63 1682.95,-2314.06 1680.19,-2315.43 1677.36,-2316.74 1674.47,-2317.97 1671.54,-2319.13 1668.55,-2320.22 1665.53,-2321.22 1662.47,-2322.14 1659.39,-2322.98 1656.28,-2323.73 1653.15,-2324.39 1650.01,-2324.96 1646.85,-2325.44 1643.68,-2325.83 1640.5,-2326.11 1637.32,-2326.31 1634.14,-2326.4 1630.95,-2326.4 1627.77,-2326.31 1624.59,-2326.11 1621.41,-2325.83 1618.24,-2325.44 1615.08,-2324.96 1611.94,-2324.39 1608.81,-2323.73 1605.7,-2322.98 1602.62,-2322.14 1599.56,-2321.22 1596.54,-2320.22 1593.55,-2319.13 1590.62,-2317.97 1587.73,-2316.74 1584.9,-2315.43 1582.14,-2314.06 1579.46,-2312.63 1576.86,-2311.13 1574.35,-2309.59 1571.94,-2307.99 1569.65,-2306.34 1567.48,-2304.66 1565.45,-2302.93 1563.55,-2301.18 1561.82,-2299.4 1560.24,-2297.59 1558.84,-2295.77 1557.63,-2293.93 1556.61,-2292.09 1555.8,-2290.25 1555.2,-2288.4 1554.83,-2286.57 1554.68,-2284.74 1554.77,-2282.94 1555.1,-2281.16 1555.68,-2279.4 1556.51,-2277.68 1557.59,-2275.99 1558.93,-2274.35 1560.52,-2272.75 1562.37,-2271.2 1564.47,-2269.71 1566.81,-2268.28 1569.4,-2266.91 1572.23,-2265.6 1575.29,-2264.37 1578.56,-2263.2 1582.05,-2262.12 1585.73,-2261.11 1589.6,-2260.19 1593.64,-2259.35 1597.83,-2258.6 1602.17,-2257.94 1606.63,-2257.37 1611.2,-2256.89 1615.85,-2256.51 1620.57,-2256.22 1625.34,-2256.03 1630.14,-2255.93 1634.95,-2255.93 1639.75,-2256.03"/>
<text text-anchor="start" x="1603.38" y="-2300.97" font-family="Times,serif" font-size="14.00">C0038953</text>
<text text-anchor="start" x="1588.8" y="-2286.97" font-family="Times,serif" font-size="14.00">survival studies</text>
<text text-anchor="start" x="1616.6" y="-2272.97" font-family="Times,serif" font-size="14.00">47:48</text>
</g>
<!-- id_27519886_DOT_18 -->
<g id="node18" class="node">
<title>id_27519886_DOT_18</title>
<polygon fill="darkkhaki" stroke="darkkhaki" points="2021.21,-2065.44 2024.63,-2065.63 2028.03,-2065.92 2031.37,-2066.3 2034.65,-2066.78 2037.86,-2067.35 2040.97,-2068.01 2043.99,-2068.76 2046.89,-2069.6 2049.67,-2070.52 2052.32,-2071.53 2054.82,-2072.61 2057.18,-2073.77 2059.37,-2075.01 2061.4,-2076.31 2063.27,-2077.68 2064.95,-2079.12 2066.46,-2080.61 2067.79,-2082.16 2068.93,-2083.76 2069.89,-2085.4 2070.67,-2087.09 2071.27,-2088.81 2071.68,-2090.56 2071.92,-2092.35 2071.99,-2094.15 2071.88,-2095.97 2071.61,-2097.81 2071.18,-2099.65 2070.59,-2101.5 2069.86,-2103.34 2068.99,-2105.18 2067.99,-2107 2066.86,-2108.8 2065.61,-2110.59 2064.25,-2112.34 2062.78,-2114.06 2061.23,-2115.75 2059.58,-2117.39 2057.85,-2118.99 2056.05,-2120.54 2054.18,-2122.03 2052.25,-2123.47 2050.27,-2124.84 2048.23,-2126.14 2046.16,-2127.38 2044.05,-2128.54 2041.9,-2129.62 2039.73,-2130.63 2037.54,-2131.55 2035.32,-2132.39 2033.09,-2133.14 2030.84,-2133.8 2028.58,-2134.37 2026.31,-2134.85 2024.03,-2135.23 2021.75,-2135.52 2019.46,-2135.71 2017.17,-2135.81 2014.88,-2135.81 2012.6,-2135.71 2010.31,-2135.52 2008.03,-2135.23 2005.75,-2134.85 2003.48,-2134.37 2001.22,-2133.8 1998.97,-2133.14 1996.74,-2132.39 1994.52,-2131.55 1992.32,-2130.63 1990.15,-2129.62 1988.01,-2128.54 1985.9,-2127.38 1983.82,-2126.14 1981.79,-2124.84 1979.81,-2123.47 1977.88,-2122.03 1976.01,-2120.54 1974.21,-2118.99 1972.48,-2117.39 1970.83,-2115.75 1969.27,-2114.06 1967.81,-2112.34 1966.45,-2110.59 1965.2,-2108.8 1964.07,-2107 1963.06,-2105.18 1962.19,-2103.34 1961.46,-2101.5 1960.88,-2099.65 1960.45,-2097.81 1960.18,-2095.97 1960.07,-2094.15 1960.14,-2092.35 1960.37,-2090.56 1960.79,-2088.81 1961.39,-2087.09 1962.16,-2085.4 1963.12,-2083.76 1964.27,-2082.16 1965.6,-2080.61 1967.11,-2079.12 1968.79,-2077.68 1970.65,-2076.31 1972.68,-2075.01 1974.88,-2073.77 1977.23,-2072.61 1979.74,-2071.53 1982.39,-2070.52 1985.17,-2069.6 1988.07,-2068.76 1991.08,-2068.01 1994.2,-2067.35 1997.41,-2066.78 2000.69,-2066.3 2004.03,-2065.92 2007.42,-2065.63 2010.85,-2065.44 2014.3,-2065.34 2017.76,-2065.34 2021.21,-2065.44"/>
<text text-anchor="start" x="1986.86" y="-2110.37" font-family="Times,serif" font-size="14.00">C0600673</text>
<text text-anchor="start" x="1991.92" y="-2096.37" font-family="Times,serif" font-size="14.00">statistics</text>
<text text-anchor="start" x="2000.08" y="-2082.37" font-family="Times,serif" font-size="14.00">64:64</text>
</g>
<!-- id_27519886_DOT_13&#45;&#45;id_27519886_DOT_18 -->
<g id="edge21" class="edge">
<title>id_27519886_DOT_13&#45;&#45;id_27519886_DOT_18</title>
<path fill="none" stroke="black" stroke-dasharray="1,5" d="M1687.9,-2263.66C1766.09,-2224.79 1907.04,-2154.74 1975.93,-2120.5"/>
<text text-anchor="middle" x="1805.66" y="-2194.88" font-family="Times,serif" font-size="14.00">0.702076</text>
</g>
<!-- id_27519886_DOT_13&#45;&#45;id_27519886_DOT_24 -->
<g id="edge22" class="edge">
<title>id_27519886_DOT_13&#45;&#45;id_27519886_DOT_24</title>
<path fill="none" stroke="black" stroke-dasharray="1,5" d="M1591.05,-2318.39C1525.62,-2361.32 1399.15,-2444.3 1333.39,-2487.44"/>
<text text-anchor="middle" x="1435.97" y="-2405.72" font-family="Times,serif" font-size="14.00">0.894348</text>
</g>
<!-- id_27519886_DOT_22 -->
<g id="node22" class="node">
<title>id_27519886_DOT_22</title>
<polygon fill="brown" stroke="brown" points="4527.39,-643.3 4530.82,-643.49 4534.21,-643.78 4537.56,-644.16 4540.84,-644.64 4544.04,-645.21 4547.16,-645.87 4550.17,-646.62 4553.08,-647.46 4555.86,-648.38 4558.5,-649.39 4561.01,-650.47 4563.36,-651.63 4565.56,-652.87 4567.59,-654.17 4569.45,-655.54 4571.14,-656.98 4572.65,-658.47 4573.97,-660.02 4575.12,-661.62 4576.08,-663.26 4576.86,-664.95 4577.45,-666.67 4577.87,-668.42 4578.11,-670.21 4578.17,-672.01 4578.07,-673.83 4577.8,-675.67 4577.37,-677.51 4576.78,-679.36 4576.05,-681.2 4575.18,-683.03 4574.17,-684.86 4573.04,-686.66 4571.79,-688.44 4570.43,-690.2 4568.97,-691.92 4567.41,-693.61 4565.76,-695.25 4564.04,-696.85 4562.23,-698.4 4560.37,-699.89 4558.44,-701.33 4556.45,-702.7 4554.42,-704 4552.35,-705.24 4550.24,-706.4 4548.09,-707.48 4545.92,-708.49 4543.72,-709.41 4541.51,-710.25 4539.27,-711 4537.02,-711.66 4534.76,-712.23 4532.49,-712.71 4530.22,-713.09 4527.93,-713.38 4525.65,-713.57 4523.36,-713.67 4521.07,-713.67 4518.78,-713.57 4516.5,-713.38 4514.21,-713.09 4511.94,-712.71 4509.67,-712.23 4507.41,-711.66 4505.16,-711 4502.92,-710.25 4500.71,-709.41 4498.51,-708.49 4496.34,-707.48 4494.2,-706.4 4492.08,-705.24 4490.01,-704 4487.98,-702.7 4486,-701.33 4484.07,-699.89 4482.2,-698.4 4480.39,-696.85 4478.67,-695.25 4477.02,-693.61 4475.46,-691.92 4474,-690.2 4472.64,-688.44 4471.39,-686.66 4470.26,-684.86 4469.25,-683.03 4468.38,-681.2 4467.65,-679.36 4467.07,-677.51 4466.64,-675.67 4466.36,-673.83 4466.26,-672.01 4466.32,-670.21 4466.56,-668.42 4466.98,-666.67 4467.57,-664.95 4468.35,-663.26 4469.31,-661.62 4470.46,-660.02 4471.78,-658.47 4473.29,-656.98 4474.98,-655.54 4476.84,-654.17 4478.87,-652.87 4481.07,-651.63 4483.42,-650.47 4485.93,-649.39 4488.57,-648.38 4491.35,-647.46 4494.26,-646.62 4497.27,-645.87 4500.39,-645.21 4503.59,-644.64 4506.87,-644.16 4510.22,-643.78 4513.61,-643.49 4517.04,-643.3 4520.49,-643.2 4523.94,-643.2 4527.39,-643.3"/>
<text text-anchor="start" x="4493.05" y="-688.23" font-family="Times,serif" font-size="14.00">C0025929</text>
<text text-anchor="start" x="4508.61" y="-674.23" font-family="Times,serif" font-size="14.00">mice</text>
<text text-anchor="start" x="4499.27" y="-660.23" font-family="Times,serif" font-size="14.00">188:188</text>
</g>
<!-- id_27519886_DOT_15&#45;&#45;id_27519886_DOT_22 -->
<g id="edge10" class="edge">
<title>id_27519886_DOT_15&#45;&#45;id_27519886_DOT_22</title>
<path fill="none" stroke="black" d="M4214.69,-734.53C4284.99,-721.71 4404.54,-699.9 4472,-687.59"/>
<text text-anchor="middle" x="4317.09" y="-713.86" font-family="Times,serif" font-size="14.00">0.005772</text>
</g>
<!-- id_27519886_DOT_25 -->
<g id="node25" class="node">
<title>id_27519886_DOT_25</title>
<polygon fill="darksalmon" stroke="darksalmon" points="2627.96,-3090.63 2631.43,-3090.82 2634.86,-3091.11 2638.24,-3091.49 2641.56,-3091.97 2644.8,-3092.54 2647.95,-3093.2 2651,-3093.95 2653.94,-3094.79 2656.75,-3095.71 2659.43,-3096.72 2661.96,-3097.8 2664.34,-3098.97 2666.57,-3100.2 2668.62,-3101.51 2670.5,-3102.88 2672.21,-3104.31 2673.74,-3105.8 2675.08,-3107.35 2676.24,-3108.95 2677.21,-3110.59 2678,-3112.28 2678.6,-3114 2679.02,-3115.76 2679.26,-3117.54 2679.32,-3119.34 2679.22,-3121.17 2678.94,-3123 2678.51,-3124.85 2677.92,-3126.69 2677.18,-3128.53 2676.3,-3130.37 2675.28,-3132.19 2674.14,-3134 2672.87,-3135.78 2671.5,-3137.53 2670.02,-3139.26 2668.44,-3140.94 2666.77,-3142.59 2665.03,-3144.18 2663.2,-3145.73 2661.31,-3147.23 2659.36,-3148.66 2657.35,-3150.03 2655.3,-3151.34 2653.2,-3152.57 2651.07,-3153.73 2648.9,-3154.82 2646.7,-3155.82 2644.48,-3156.74 2642.24,-3157.58 2639.98,-3158.33 2637.7,-3158.99 2635.42,-3159.56 2633.12,-3160.04 2630.82,-3160.43 2628.51,-3160.71 2626.2,-3160.91 2623.88,-3161 2621.57,-3161 2619.25,-3160.91 2616.94,-3160.71 2614.63,-3160.43 2612.33,-3160.04 2610.03,-3159.56 2607.75,-3158.99 2605.47,-3158.33 2603.21,-3157.58 2600.97,-3156.74 2598.75,-3155.82 2596.55,-3154.82 2594.38,-3153.73 2592.25,-3152.57 2590.15,-3151.34 2588.09,-3150.03 2586.09,-3148.66 2584.14,-3147.23 2582.25,-3145.73 2580.42,-3144.18 2578.67,-3142.59 2577.01,-3140.94 2575.43,-3139.26 2573.95,-3137.53 2572.58,-3135.78 2571.31,-3134 2570.17,-3132.19 2569.15,-3130.37 2568.27,-3128.53 2567.53,-3126.69 2566.94,-3124.85 2566.51,-3123 2566.23,-3121.17 2566.13,-3119.34 2566.19,-3117.54 2566.43,-3115.76 2566.85,-3114 2567.45,-3112.28 2568.24,-3110.59 2569.21,-3108.95 2570.37,-3107.35 2571.71,-3105.8 2573.24,-3104.31 2574.94,-3102.88 2576.83,-3101.51 2578.88,-3100.2 2581.1,-3098.97 2583.48,-3097.8 2586.02,-3096.72 2588.7,-3095.71 2591.51,-3094.79 2594.44,-3093.95 2597.49,-3093.2 2600.65,-3092.54 2603.89,-3091.97 2607.21,-3091.49 2610.59,-3091.11 2614.02,-3090.82 2617.49,-3090.63 2620.98,-3090.53 2624.47,-3090.53 2627.96,-3090.63"/>
<text text-anchor="start" x="2593.56" y="-3135.57" font-family="Times,serif" font-size="14.00">C3494164</text>
<text text-anchor="start" x="2593.18" y="-3121.57" font-family="Times,serif" font-size="14.00">translation</text>
<text text-anchor="start" x="2599.78" y="-3107.57" font-family="Times,serif" font-size="14.00">261:261</text>
</g>
<!-- id_27519886_DOT_16&#45;&#45;id_27519886_DOT_25 -->
<g id="edge23" class="edge">
<title>id_27519886_DOT_16&#45;&#45;id_27519886_DOT_25</title>
<path fill="none" stroke="black" stroke-dasharray="1,5" d="M2591.62,-2761.99C2598.1,-2837.74 2613.23,-3014.73 2619.7,-3090.42"/>
<text text-anchor="middle" x="2579.41" y="-2929" font-family="Times,serif" font-size="14.00">0.783624</text>
</g>
<!-- id_27519886_DOT_26 -->
<g id="node26" class="node">
<title>id_27519886_DOT_26</title>
<polygon fill="darkseagreen" stroke="darkseagreen" points="2322.25,-2374.83 2325.68,-2375.03 2329.07,-2375.32 2332.42,-2375.7 2335.7,-2376.18 2338.9,-2376.75 2342.02,-2377.41 2345.03,-2378.16 2347.94,-2379 2350.72,-2379.92 2353.36,-2380.92 2355.87,-2382.01 2358.22,-2383.17 2360.42,-2384.41 2362.45,-2385.71 2364.31,-2387.08 2366,-2388.52 2367.51,-2390.01 2368.83,-2391.56 2369.98,-2393.15 2370.94,-2394.8 2371.72,-2396.48 2372.31,-2398.21 2372.73,-2399.96 2372.97,-2401.74 2373.03,-2403.55 2372.93,-2405.37 2372.66,-2407.21 2372.23,-2409.05 2371.64,-2410.9 2370.91,-2412.74 2370.04,-2414.57 2369.03,-2416.4 2367.9,-2418.2 2366.66,-2419.98 2365.29,-2421.74 2363.83,-2423.46 2362.27,-2425.15 2360.62,-2426.79 2358.9,-2428.39 2357.09,-2429.94 2355.23,-2431.43 2353.3,-2432.86 2351.31,-2434.24 2349.28,-2435.54 2347.21,-2436.78 2345.1,-2437.94 2342.95,-2439.02 2340.78,-2440.03 2338.58,-2440.95 2336.37,-2441.79 2334.13,-2442.54 2331.88,-2443.2 2329.62,-2443.77 2327.35,-2444.25 2325.08,-2444.63 2322.79,-2444.92 2320.51,-2445.11 2318.22,-2445.21 2315.93,-2445.21 2313.64,-2445.11 2311.36,-2444.92 2309.07,-2444.63 2306.8,-2444.25 2304.53,-2443.77 2302.27,-2443.2 2300.02,-2442.54 2297.78,-2441.79 2295.57,-2440.95 2293.37,-2440.03 2291.2,-2439.02 2289.06,-2437.94 2286.94,-2436.78 2284.87,-2435.54 2282.84,-2434.24 2280.86,-2432.86 2278.93,-2431.43 2277.06,-2429.94 2275.25,-2428.39 2273.53,-2426.79 2271.88,-2425.15 2270.32,-2423.46 2268.86,-2421.74 2267.5,-2419.98 2266.25,-2418.2 2265.12,-2416.4 2264.11,-2414.57 2263.24,-2412.74 2262.51,-2410.9 2261.93,-2409.05 2261.5,-2407.21 2261.22,-2405.37 2261.12,-2403.55 2261.18,-2401.74 2261.42,-2399.96 2261.84,-2398.21 2262.43,-2396.48 2263.21,-2394.8 2264.17,-2393.15 2265.32,-2391.56 2266.64,-2390.01 2268.15,-2388.52 2269.84,-2387.08 2271.7,-2385.71 2273.73,-2384.41 2275.93,-2383.17 2278.28,-2382.01 2280.79,-2380.92 2283.43,-2379.92 2286.21,-2379 2289.12,-2378.16 2292.13,-2377.41 2295.25,-2376.75 2298.45,-2376.18 2301.73,-2375.7 2305.08,-2375.32 2308.47,-2375.03 2311.9,-2374.83 2315.35,-2374.74 2318.8,-2374.74 2322.25,-2374.83"/>
<text text-anchor="start" x="2287.91" y="-2419.77" font-family="Times,serif" font-size="14.00">C0243095</text>
<text text-anchor="start" x="2294.51" y="-2405.77" font-family="Times,serif" font-size="14.00">findings</text>
<text text-anchor="start" x="2294.13" y="-2391.77" font-family="Times,serif" font-size="14.00">263:263</text>
</g>
<!-- id_27519886_DOT_16&#45;&#45;id_27519886_DOT_26 -->
<g id="edge24" class="edge">
<title>id_27519886_DOT_16&#45;&#45;id_27519886_DOT_26</title>
<path fill="none" stroke="black" stroke-dasharray="1,5" d="M2561.06,-2694.46C2508.21,-2632.84 2393.27,-2498.81 2342.29,-2439.38"/>
<text text-anchor="middle" x="2425.43" y="-2569.72" font-family="Times,serif" font-size="14.00">0.550235</text>
</g>
<!-- id_27519886_DOT_17 -->
<g id="node17" class="node">
<title>id_27519886_DOT_17</title>
<polygon fill="darkgreen" stroke="darkgreen" points="2112.51,-1636.45 2115.94,-1636.64 2119.33,-1636.93 2122.67,-1637.32 2125.95,-1637.79 2129.16,-1638.36 2132.27,-1639.03 2135.29,-1639.78 2138.19,-1640.61 2140.97,-1641.54 2143.62,-1642.54 2146.12,-1643.63 2148.48,-1644.79 2150.67,-1646.02 2152.7,-1647.33 2154.57,-1648.7 2156.25,-1650.13 2157.76,-1651.63 2159.09,-1653.17 2160.23,-1654.77 2161.19,-1656.42 2161.97,-1658.1 2162.57,-1659.82 2162.98,-1661.58 2163.22,-1663.36 2163.29,-1665.17 2163.18,-1666.99 2162.91,-1668.83 2162.48,-1670.67 2161.9,-1672.51 2161.16,-1674.36 2160.29,-1676.19 2159.29,-1678.01 2158.16,-1679.82 2156.91,-1681.6 2155.55,-1683.36 2154.09,-1685.08 2152.53,-1686.77 2150.88,-1688.41 2149.15,-1690.01 2147.35,-1691.56 2145.48,-1693.05 2143.55,-1694.48 2141.57,-1695.85 2139.53,-1697.16 2137.46,-1698.39 2135.35,-1699.55 2133.2,-1700.64 2131.03,-1701.64 2128.84,-1702.57 2126.62,-1703.4 2124.39,-1704.16 2122.14,-1704.82 2119.88,-1705.39 2117.61,-1705.86 2115.33,-1706.25 2113.05,-1706.54 2110.76,-1706.73 2108.47,-1706.83 2106.18,-1706.83 2103.9,-1706.73 2101.61,-1706.54 2099.33,-1706.25 2097.05,-1705.86 2094.78,-1705.39 2092.52,-1704.82 2090.27,-1704.16 2088.04,-1703.4 2085.82,-1702.57 2083.63,-1701.64 2081.45,-1700.64 2079.31,-1699.55 2077.2,-1698.39 2075.12,-1697.16 2073.09,-1695.85 2071.11,-1694.48 2069.18,-1693.05 2067.31,-1691.56 2065.51,-1690.01 2063.78,-1688.41 2062.13,-1686.77 2060.57,-1685.08 2059.11,-1683.36 2057.75,-1681.6 2056.5,-1679.82 2055.37,-1678.01 2054.37,-1676.19 2053.49,-1674.36 2052.76,-1672.51 2052.18,-1670.67 2051.75,-1668.83 2051.48,-1666.99 2051.37,-1665.17 2051.44,-1663.36 2051.67,-1661.58 2052.09,-1659.82 2052.69,-1658.1 2053.46,-1656.42 2054.43,-1654.77 2055.57,-1653.17 2056.9,-1651.63 2058.41,-1650.13 2060.09,-1648.7 2061.95,-1647.33 2063.99,-1646.02 2066.18,-1644.79 2068.54,-1643.63 2071.04,-1642.54 2073.69,-1641.54 2076.47,-1640.61 2079.37,-1639.78 2082.39,-1639.03 2085.5,-1638.36 2088.71,-1637.79 2091.99,-1637.32 2095.33,-1636.93 2098.72,-1636.64 2102.15,-1636.45 2105.6,-1636.36 2109.06,-1636.36 2112.51,-1636.45"/>
<text text-anchor="start" x="2078.16" y="-1681.39" font-family="Times,serif" font-size="14.00">C1706244</text>
<text text-anchor="start" x="2081.28" y="-1667.39" font-family="Times,serif" font-size="14.00">summary</text>
<text text-anchor="start" x="2091.38" y="-1653.39" font-family="Times,serif" font-size="14.00">63:63</text>
</g>
<!-- id_27519886_DOT_17&#45;&#45;id_27519886_DOT_18 -->
<g id="edge25" class="edge">
<title>id_27519886_DOT_17&#45;&#45;id_27519886_DOT_18</title>
<path fill="none" stroke="black" stroke-dasharray="1,5" d="M2099.93,-1706.33C2082.83,-1786.72 2040.67,-1984.81 2023.49,-2065.51"/>
<text text-anchor="middle" x="2035.46" y="-1888.72" font-family="Times,serif" font-size="14.00">0.548376</text>
</g>
<!-- id_27519886_DOT_17&#45;&#45;id_27519886_DOT_28 -->
<g id="edge26" class="edge">
<title>id_27519886_DOT_17&#45;&#45;id_27519886_DOT_28</title>
<path fill="none" stroke="black" stroke-dasharray="1,5" d="M2115.99,-1636.32C2135.71,-1555.98 2183.79,-1360.14 2203.46,-1280.05"/>
<text text-anchor="middle" x="2133.47" y="-1460.98" font-family="Times,serif" font-size="14.00">0.753282</text>
</g>
<!-- id_27519886_DOT_18&#45;&#45;id_27519886_DOT_26 -->
<g id="edge27" class="edge">
<title>id_27519886_DOT_18&#45;&#45;id_27519886_DOT_26</title>
<path fill="none" stroke="black" stroke-dasharray="1,5" d="M2043.54,-2128.85C2099.86,-2186.73 2227.91,-2318.33 2286.62,-2378.68"/>
<text text-anchor="middle" x="2138.83" y="-2256.56" font-family="Times,serif" font-size="14.00">0.677419</text>
</g>
<!-- id_27519886_DOT_23&#45;&#45;id_27519886_DOT_28 -->
<g id="edge28" class="edge">
<title>id_27519886_DOT_23&#45;&#45;id_27519886_DOT_28</title>
<path fill="none" stroke="black" stroke-dasharray="1,5" d="M2573.97,-1081.4C2498.64,-1115.46 2351.71,-1181.89 2270.14,-1218.77"/>
<text text-anchor="middle" x="2395.8" y="-1152.89" font-family="Times,serif" font-size="14.00">0.847428</text>
</g>
</g>
</svg>
