<?xml version="1.0" encoding="UTF-8" standalone="no"?>
<!DOCTYPE svg PUBLIC "-//W3C//DTD SVG 1.1//EN"
 "http://www.w3.org/Graphics/SVG/1.1/DTD/svg11.dtd">
<!-- Generated by graphviz version 2.42.3 (20191010.1750)
 -->
<!-- Title: MST Pages: 1 -->
<svg width="3993pt" height="2995pt"
 viewBox="0.00 0.00 3993.33 2994.66" xmlns="http://www.w3.org/2000/svg" xmlns:xlink="http://www.w3.org/1999/xlink">
<g id="graph0" class="graph" transform="scale(1 1) rotate(0) translate(4 2990.66)">
<title>MST</title>
<polygon fill="white" stroke="transparent" points="-4,4 -4,-2990.66 3989.33,-2990.66 3989.33,4 -4,4"/>
<!-- id_27516254_DOT_1 -->
<g id="node1" class="node">
<title>id_27516254_DOT_1</title>
<polygon fill="aquamarine" stroke="aquamarine" points="3533.16,-2147.21 3536.59,-2147.4 3539.98,-2147.69 3543.32,-2148.07 3546.6,-2148.55 3549.81,-2149.12 3552.92,-2149.78 3555.94,-2150.53 3558.84,-2151.37 3561.62,-2152.29 3564.27,-2153.3 3566.77,-2154.38 3569.13,-2155.55 3571.32,-2156.78 3573.36,-2158.09 3575.22,-2159.46 3576.9,-2160.89 3578.41,-2162.38 3579.74,-2163.93 3580.88,-2165.53 3581.84,-2167.17 3582.62,-2168.86 3583.22,-2170.58 3583.63,-2172.34 3583.87,-2174.12 3583.94,-2175.92 3583.83,-2177.75 3583.56,-2179.58 3583.13,-2181.43 3582.55,-2183.27 3581.82,-2185.11 3580.94,-2186.95 3579.94,-2188.77 3578.81,-2190.58 3577.56,-2192.36 3576.2,-2194.11 3574.74,-2195.84 3573.18,-2197.52 3571.53,-2199.17 3569.8,-2200.77 3568,-2202.31 3566.13,-2203.81 3564.2,-2205.24 3562.22,-2206.61 3560.19,-2207.92 3558.11,-2209.15 3556,-2210.31 3553.86,-2211.4 3551.68,-2212.4 3549.49,-2213.32 3547.27,-2214.16 3545.04,-2214.91 3542.79,-2215.57 3540.53,-2216.14 3538.26,-2216.62 3535.98,-2217.01 3533.7,-2217.29 3531.41,-2217.49 3529.12,-2217.58 3526.84,-2217.58 3524.55,-2217.49 3522.26,-2217.29 3519.98,-2217.01 3517.7,-2216.62 3515.43,-2216.14 3513.17,-2215.57 3510.92,-2214.91 3508.69,-2214.16 3506.47,-2213.32 3504.28,-2212.4 3502.1,-2211.4 3499.96,-2210.31 3497.85,-2209.15 3495.77,-2207.92 3493.74,-2206.61 3491.76,-2205.24 3489.83,-2203.81 3487.96,-2202.31 3486.16,-2200.77 3484.43,-2199.17 3482.78,-2197.52 3481.22,-2195.84 3479.76,-2194.11 3478.4,-2192.36 3477.15,-2190.58 3476.02,-2188.77 3475.02,-2186.95 3474.14,-2185.11 3473.41,-2183.27 3472.83,-2181.43 3472.4,-2179.58 3472.13,-2177.75 3472.02,-2175.92 3472.09,-2174.12 3472.33,-2172.34 3472.74,-2170.58 3473.34,-2168.86 3474.11,-2167.17 3475.08,-2165.53 3476.22,-2163.93 3477.55,-2162.38 3479.06,-2160.89 3480.74,-2159.46 3482.6,-2158.09 3484.64,-2156.78 3486.83,-2155.55 3489.19,-2154.38 3491.69,-2153.3 3494.34,-2152.29 3497.12,-2151.37 3500.02,-2150.53 3503.04,-2149.78 3506.15,-2149.12 3509.36,-2148.55 3512.64,-2148.07 3515.98,-2147.69 3519.37,-2147.4 3522.8,-2147.21 3526.25,-2147.11 3529.71,-2147.11 3533.16,-2147.21"/>
<text text-anchor="start" x="3498.81" y="-2192.15" font-family="Times,serif" font-size="14.00">C0628688</text>
<text text-anchor="start" x="3508.54" y="-2178.15" font-family="Times,serif" font-size="14.00">kefiran</text>
<text text-anchor="start" x="3519.04" y="-2164.15" font-family="Times,serif" font-size="14.00">5:5</text>
</g>
<!-- id_27516254_DOT_2 -->
<g id="node2" class="node">
<title>id_27516254_DOT_2</title>
<polygon fill="aquamarine" stroke="aquamarine" points="3934.53,-2083.62 3937.96,-2083.81 3941.35,-2084.1 3944.7,-2084.48 3947.98,-2084.96 3951.18,-2085.53 3954.3,-2086.19 3957.31,-2086.94 3960.22,-2087.78 3963,-2088.7 3965.64,-2089.71 3968.15,-2090.79 3970.5,-2091.96 3972.7,-2093.19 3974.73,-2094.49 3976.59,-2095.87 3978.28,-2097.3 3979.79,-2098.79 3981.11,-2100.34 3982.26,-2101.94 3983.22,-2103.58 3984,-2105.27 3984.59,-2106.99 3985.01,-2108.75 3985.25,-2110.53 3985.31,-2112.33 3985.21,-2114.16 3984.93,-2115.99 3984.5,-2117.84 3983.92,-2119.68 3983.19,-2121.52 3982.32,-2123.36 3981.31,-2125.18 3980.18,-2126.99 3978.93,-2128.77 3977.57,-2130.52 3976.11,-2132.25 3974.55,-2133.93 3972.9,-2135.58 3971.18,-2137.17 3969.37,-2138.72 3967.5,-2140.22 3965.57,-2141.65 3963.59,-2143.02 3961.56,-2144.33 3959.49,-2145.56 3957.37,-2146.72 3955.23,-2147.81 3953.06,-2148.81 3950.86,-2149.73 3948.65,-2150.57 3946.41,-2151.32 3944.16,-2151.98 3941.9,-2152.55 3939.63,-2153.03 3937.36,-2153.42 3935.07,-2153.7 3932.79,-2153.9 3930.5,-2153.99 3928.21,-2153.99 3925.92,-2153.9 3923.64,-2153.7 3921.35,-2153.42 3919.08,-2153.03 3916.81,-2152.55 3914.55,-2151.98 3912.3,-2151.32 3910.06,-2150.57 3907.85,-2149.73 3905.65,-2148.81 3903.48,-2147.81 3901.33,-2146.72 3899.22,-2145.56 3897.15,-2144.33 3895.12,-2143.02 3893.13,-2141.65 3891.2,-2140.22 3889.34,-2138.72 3887.53,-2137.17 3885.81,-2135.58 3884.16,-2133.93 3882.6,-2132.25 3881.14,-2130.52 3879.78,-2128.77 3878.53,-2126.99 3877.4,-2125.18 3876.39,-2123.36 3875.52,-2121.52 3874.79,-2119.68 3874.2,-2117.84 3873.77,-2115.99 3873.5,-2114.16 3873.4,-2112.33 3873.46,-2110.53 3873.7,-2108.75 3874.12,-2106.99 3874.71,-2105.27 3875.49,-2103.58 3876.45,-2101.94 3877.6,-2100.34 3878.92,-2098.79 3880.43,-2097.3 3882.12,-2095.87 3883.98,-2094.49 3886.01,-2093.19 3888.21,-2091.96 3890.56,-2090.79 3893.07,-2089.71 3895.71,-2088.7 3898.49,-2087.78 3901.4,-2086.94 3904.41,-2086.19 3907.53,-2085.53 3910.73,-2084.96 3914.01,-2084.48 3917.36,-2084.1 3920.75,-2083.81 3924.18,-2083.62 3927.63,-2083.52 3931.08,-2083.52 3934.53,-2083.62"/>
<text text-anchor="start" x="3900.19" y="-2128.56" font-family="Times,serif" font-size="14.00">C0628688</text>
<text text-anchor="start" x="3908.36" y="-2114.56" font-family="Times,serif" font-size="14.00">Kefiran</text>
<text text-anchor="start" x="3920.41" y="-2100.56" font-family="Times,serif" font-size="14.00">6:6</text>
</g>
<!-- id_27516254_DOT_1&#45;&#45;id_27516254_DOT_2 -->
<g id="edge1" class="edge">
<title>id_27516254_DOT_1&#45;&#45;id_27516254_DOT_2</title>
<path fill="none" stroke="black" d="M3584.21,-2173.44C3662.42,-2161.05 3802.9,-2138.79 3878.26,-2126.85"/>
<text text-anchor="middle" x="3704.99" y="-2152.95" font-family="Times,serif" font-size="14.00">0.001840</text>
</g>
<!-- id_27516254_DOT_8 -->
<g id="node8" class="node">
<title>id_27516254_DOT_8</title>
<polygon fill="aquamarine" stroke="aquamarine" points="3261.33,-1861.23 3264.75,-1861.42 3268.15,-1861.71 3271.49,-1862.09 3274.77,-1862.57 3277.98,-1863.14 3281.09,-1863.8 3284.11,-1864.55 3287.01,-1865.39 3289.79,-1866.31 3292.44,-1867.32 3294.94,-1868.4 3297.3,-1869.57 3299.49,-1870.8 3301.52,-1872.1 3303.39,-1873.48 3305.07,-1874.91 3306.58,-1876.4 3307.91,-1877.95 3309.05,-1879.55 3310.01,-1881.19 3310.79,-1882.88 3311.39,-1884.6 3311.8,-1886.36 3312.04,-1888.14 3312.1,-1889.94 3312,-1891.77 3311.73,-1893.6 3311.3,-1895.44 3310.71,-1897.29 3309.98,-1899.13 3309.11,-1900.97 3308.11,-1902.79 3306.98,-1904.6 3305.73,-1906.38 3304.37,-1908.13 3302.9,-1909.86 3301.35,-1911.54 3299.7,-1913.19 3297.97,-1914.78 3296.17,-1916.33 3294.3,-1917.82 3292.37,-1919.26 3290.39,-1920.63 3288.35,-1921.94 3286.28,-1923.17 3284.17,-1924.33 3282.02,-1925.42 3279.85,-1926.42 3277.66,-1927.34 3275.44,-1928.18 3273.21,-1928.93 3270.96,-1929.59 3268.7,-1930.16 3266.43,-1930.64 3264.15,-1931.02 3261.87,-1931.31 3259.58,-1931.51 3257.29,-1931.6 3255,-1931.6 3252.72,-1931.51 3250.43,-1931.31 3248.15,-1931.02 3245.87,-1930.64 3243.6,-1930.16 3241.34,-1929.59 3239.09,-1928.93 3236.86,-1928.18 3234.64,-1927.34 3232.44,-1926.42 3230.27,-1925.42 3228.13,-1924.33 3226.02,-1923.17 3223.94,-1921.94 3221.91,-1920.63 3219.93,-1919.26 3218,-1917.82 3216.13,-1916.33 3214.33,-1914.78 3212.6,-1913.19 3210.95,-1911.54 3209.39,-1909.86 3207.93,-1908.13 3206.57,-1906.38 3205.32,-1904.6 3204.19,-1902.79 3203.18,-1900.97 3202.31,-1899.13 3201.58,-1897.29 3201,-1895.44 3200.57,-1893.6 3200.3,-1891.77 3200.19,-1889.94 3200.26,-1888.14 3200.49,-1886.36 3200.91,-1884.6 3201.51,-1882.88 3202.28,-1881.19 3203.24,-1879.55 3204.39,-1877.95 3205.72,-1876.4 3207.22,-1874.91 3208.91,-1873.48 3210.77,-1872.1 3212.8,-1870.8 3215,-1869.57 3217.35,-1868.4 3219.86,-1867.32 3222.51,-1866.31 3225.29,-1865.39 3228.19,-1864.55 3231.2,-1863.8 3234.32,-1863.14 3237.52,-1862.57 3240.81,-1862.09 3244.15,-1861.71 3247.54,-1861.42 3250.97,-1861.23 3254.42,-1861.13 3257.88,-1861.13 3261.33,-1861.23"/>
<text text-anchor="start" x="3226.98" y="-1906.17" font-family="Times,serif" font-size="14.00">C0628688</text>
<text text-anchor="start" x="3236.71" y="-1892.17" font-family="Times,serif" font-size="14.00">kefiran</text>
<text text-anchor="start" x="3240.2" y="-1878.17" font-family="Times,serif" font-size="14.00">45:45</text>
</g>
<!-- id_27516254_DOT_1&#45;&#45;id_27516254_DOT_8 -->
<g id="edge2" class="edge">
<title>id_27516254_DOT_1&#45;&#45;id_27516254_DOT_8</title>
<path fill="none" stroke="black" d="M3498.11,-2150.93C3444.87,-2094.92 3334.38,-1978.67 3283.22,-1924.85"/>
<text text-anchor="middle" x="3364.42" y="-2040.69" font-family="Times,serif" font-size="14.00">0.019216</text>
</g>
<!-- id_27516254_DOT_19 -->
<g id="node19" class="node">
<title>id_27516254_DOT_19</title>
<polygon fill="aquamarine" stroke="aquamarine" points="3495.62,-2544.6 3499.05,-2544.8 3502.44,-2545.08 3505.78,-2545.47 3509.06,-2545.95 3512.27,-2546.52 3515.38,-2547.18 3518.4,-2547.93 3521.3,-2548.77 3524.08,-2549.69 3526.73,-2550.69 3529.23,-2551.78 3531.59,-2552.94 3533.78,-2554.17 3535.82,-2555.48 3537.68,-2556.85 3539.36,-2558.28 3540.87,-2559.78 3542.2,-2561.33 3543.34,-2562.92 3544.31,-2564.57 3545.08,-2566.25 3545.68,-2567.98 3546.1,-2569.73 3546.33,-2571.51 3546.4,-2573.32 3546.29,-2575.14 3546.02,-2576.98 3545.59,-2578.82 3545.01,-2580.66 3544.28,-2582.51 3543.4,-2584.34 3542.4,-2586.17 3541.27,-2587.97 3540.02,-2589.75 3538.66,-2591.51 3537.2,-2593.23 3535.64,-2594.92 3533.99,-2596.56 3532.26,-2598.16 3530.46,-2599.71 3528.59,-2601.2 3526.66,-2602.63 3524.68,-2604 3522.65,-2605.31 3520.57,-2606.54 3518.46,-2607.71 3516.32,-2608.79 3514.14,-2609.8 3511.95,-2610.72 3509.73,-2611.56 3507.5,-2612.31 3505.25,-2612.97 3502.99,-2613.54 3500.72,-2614.02 3498.44,-2614.4 3496.16,-2614.69 3493.87,-2614.88 3491.59,-2614.98 3489.3,-2614.98 3487.01,-2614.88 3484.72,-2614.69 3482.44,-2614.4 3480.16,-2614.02 3477.89,-2613.54 3475.63,-2612.97 3473.38,-2612.31 3471.15,-2611.56 3468.93,-2610.72 3466.74,-2609.8 3464.57,-2608.79 3462.42,-2607.71 3460.31,-2606.54 3458.24,-2605.31 3456.2,-2604 3454.22,-2602.63 3452.29,-2601.2 3450.42,-2599.71 3448.62,-2598.16 3446.89,-2596.56 3445.24,-2594.92 3443.68,-2593.23 3442.22,-2591.51 3440.86,-2589.75 3439.61,-2587.97 3438.48,-2586.17 3437.48,-2584.34 3436.61,-2582.51 3435.87,-2580.66 3435.29,-2578.82 3434.86,-2576.98 3434.59,-2575.14 3434.48,-2573.32 3434.55,-2571.51 3434.79,-2569.73 3435.2,-2567.98 3435.8,-2566.25 3436.58,-2564.57 3437.54,-2562.92 3438.68,-2561.33 3440.01,-2559.78 3441.52,-2558.28 3443.2,-2556.85 3445.07,-2555.48 3447.1,-2554.17 3449.29,-2552.94 3451.65,-2551.78 3454.15,-2550.69 3456.8,-2549.69 3459.58,-2548.77 3462.48,-2547.93 3465.5,-2547.18 3468.61,-2546.52 3471.82,-2545.95 3475.1,-2545.47 3478.44,-2545.08 3481.83,-2544.8 3485.26,-2544.6 3488.71,-2544.51 3492.17,-2544.51 3495.62,-2544.6"/>
<text text-anchor="start" x="3461.27" y="-2589.54" font-family="Times,serif" font-size="14.00">C0628688</text>
<text text-anchor="start" x="3471" y="-2575.54" font-family="Times,serif" font-size="14.00">kefiran</text>
<text text-anchor="start" x="3467.5" y="-2561.54" font-family="Times,serif" font-size="14.00">163:163</text>
</g>
<!-- id_27516254_DOT_1&#45;&#45;id_27516254_DOT_19 -->
<g id="edge3" class="edge">
<title>id_27516254_DOT_1&#45;&#45;id_27516254_DOT_19</title>
<path fill="none" stroke="black" d="M3524.65,-2217.61C3517.53,-2292.93 3500.92,-2468.77 3493.79,-2544.27"/>
<text text-anchor="middle" x="3482.97" y="-2383.74" font-family="Times,serif" font-size="14.00">0.007441</text>
</g>
<!-- id_27516254_DOT_3 -->
<g id="node3" class="node">
<title>id_27516254_DOT_3</title>
<polygon fill="bisque" stroke="bisque" points="117.11,-0.23 123.69,-0.42 130.2,-0.71 136.61,-1.09 142.91,-1.57 149.05,-2.14 155.03,-2.8 160.82,-3.55 166.39,-4.39 171.72,-5.31 176.8,-6.32 181.6,-7.4 186.12,-8.57 190.33,-9.8 194.23,-11.1 197.8,-12.48 201.04,-13.91 203.93,-15.4 206.48,-16.95 208.67,-18.55 210.52,-20.19 212.01,-21.88 213.15,-23.6 213.95,-25.36 214.41,-27.14 214.53,-28.94 214.33,-30.77 213.81,-32.6 212.98,-34.44 211.86,-36.29 210.46,-38.13 208.79,-39.97 206.86,-41.79 204.69,-43.6 202.3,-45.38 199.69,-47.13 196.88,-48.86 193.89,-50.54 190.73,-52.19 187.41,-53.78 183.95,-55.33 180.37,-56.82 176.67,-58.26 172.86,-59.63 168.96,-60.94 164.98,-62.17 160.93,-63.33 156.82,-64.42 152.65,-65.42 148.44,-66.34 144.19,-67.18 139.9,-67.93 135.59,-68.59 131.25,-69.16 126.9,-69.64 122.53,-70.02 118.15,-70.31 113.76,-70.51 109.37,-70.6 104.98,-70.6 100.59,-70.51 96.2,-70.31 91.82,-70.02 87.46,-69.64 83.1,-69.16 78.77,-68.59 74.45,-67.93 70.17,-67.18 65.91,-66.34 61.7,-65.42 57.53,-64.42 53.42,-63.33 49.37,-62.17 45.39,-60.94 41.49,-59.63 37.69,-58.26 33.99,-56.82 30.4,-55.33 26.94,-53.78 23.63,-52.19 20.47,-50.54 17.47,-48.86 14.67,-47.13 12.06,-45.38 9.66,-43.6 7.49,-41.79 5.56,-39.97 3.89,-38.13 2.49,-36.29 1.37,-34.44 0.55,-32.6 0.03,-30.77 -0.18,-28.94 -0.05,-27.14 0.4,-25.36 1.2,-23.6 2.34,-21.88 3.84,-20.19 5.68,-18.55 7.88,-16.95 10.42,-15.4 13.32,-13.91 16.55,-12.48 20.12,-11.1 24.02,-9.8 28.23,-8.57 32.75,-7.4 37.56,-6.32 42.63,-5.31 47.97,-4.39 53.54,-3.55 59.32,-2.8 65.3,-2.14 71.45,-1.57 77.74,-1.09 84.16,-0.71 90.67,-0.42 97.24,-0.23 103.86,-0.13 110.49,-0.13 117.11,-0.23"/>
<text text-anchor="start" x="78.01" y="-45.17" font-family="Times,serif" font-size="14.00">C0032594</text>
<text text-anchor="start" x="44.01" y="-31.17" font-family="Times,serif" font-size="14.00">neutral polysaccharide</text>
<text text-anchor="start" x="94.73" y="-17.17" font-family="Times,serif" font-size="14.00">9:10</text>
</g>
<!-- id_27516254_DOT_9 -->
<g id="node9" class="node">
<title>id_27516254_DOT_9</title>
<polygon fill="chartreuse" stroke="chartreuse" points="400.96,-224.29 405.04,-224.49 409.08,-224.78 413.05,-225.16 416.96,-225.64 420.77,-226.21 424.48,-226.87 428.07,-227.62 431.53,-228.46 434.83,-229.38 437.98,-230.38 440.97,-231.47 443.77,-232.63 446.38,-233.87 448.8,-235.17 451.01,-236.54 453.02,-237.98 454.82,-239.47 456.4,-241.02 457.76,-242.61 458.9,-244.26 459.83,-245.94 460.54,-247.67 461.03,-249.42 461.32,-251.2 461.39,-253.01 461.27,-254.83 460.94,-256.67 460.43,-258.51 459.74,-260.36 458.87,-262.2 457.83,-264.03 456.63,-265.86 455.29,-267.66 453.8,-269.44 452.18,-271.2 450.44,-272.92 448.59,-274.61 446.63,-276.25 444.57,-277.85 442.42,-279.4 440.2,-280.89 437.9,-282.32 435.54,-283.7 433.12,-285 430.66,-286.24 428.14,-287.4 425.59,-288.48 423.01,-289.49 420.39,-290.41 417.75,-291.25 415.1,-292 412.42,-292.66 409.73,-293.23 407.03,-293.71 404.32,-294.09 401.6,-294.38 398.88,-294.57 396.16,-294.67 393.43,-294.67 390.71,-294.57 387.99,-294.38 385.27,-294.09 382.56,-293.71 379.86,-293.23 377.17,-292.66 374.49,-292 371.84,-291.25 369.2,-290.41 366.58,-289.49 364,-288.48 361.45,-287.4 358.93,-286.24 356.46,-285 354.05,-283.7 351.69,-282.32 349.39,-280.89 347.17,-279.4 345.02,-277.85 342.96,-276.25 341,-274.61 339.15,-272.92 337.41,-271.2 335.79,-269.44 334.3,-267.66 332.95,-265.86 331.76,-264.03 330.72,-262.2 329.85,-260.36 329.16,-258.51 328.64,-256.67 328.32,-254.83 328.2,-253.01 328.27,-251.2 328.56,-249.42 329.05,-247.67 329.76,-245.94 330.69,-244.26 331.83,-242.61 333.19,-241.02 334.77,-239.47 336.57,-237.98 338.57,-236.54 340.79,-235.17 343.21,-233.87 345.82,-232.63 348.62,-231.47 351.6,-230.38 354.75,-229.38 358.06,-228.46 361.52,-227.62 365.11,-226.87 368.82,-226.21 372.63,-225.64 376.53,-225.16 380.51,-224.78 384.55,-224.49 388.63,-224.29 392.74,-224.2 396.85,-224.2 400.96,-224.29"/>
<text text-anchor="start" x="365.63" y="-269.23" font-family="Times,serif" font-size="14.00">C0029224</text>
<text text-anchor="start" x="358.44" y="-255.23" font-family="Times,serif" font-size="14.00">neutral gums</text>
<text text-anchor="start" x="378.85" y="-241.23" font-family="Times,serif" font-size="14.00">64:65</text>
</g>
<!-- id_27516254_DOT_3&#45;&#45;id_27516254_DOT_9 -->
<g id="edge9" class="edge">
<title>id_27516254_DOT_3&#45;&#45;id_27516254_DOT_9</title>
<path fill="none" stroke="black" stroke-dasharray="1,5" d="M147.47,-66.76C202.66,-109.76 301.13,-186.47 355.69,-228.97"/>
<text text-anchor="middle" x="225.33" y="-150.67" font-family="Times,serif" font-size="14.00">0.498319</text>
</g>
<!-- id_27516254_DOT_4 -->
<g id="node4" class="node">
<title>id_27516254_DOT_4</title>
<polygon fill="blue" stroke="blue" points="1948,-1261.42 1951.43,-1261.61 1954.82,-1261.9 1958.16,-1262.29 1961.44,-1262.76 1964.65,-1263.33 1967.77,-1263.99 1970.78,-1264.75 1973.68,-1265.58 1976.46,-1266.51 1979.11,-1267.51 1981.61,-1268.6 1983.97,-1269.76 1986.17,-1270.99 1988.2,-1272.3 1990.06,-1273.67 1991.74,-1275.1 1993.25,-1276.59 1994.58,-1278.14 1995.73,-1279.74 1996.69,-1281.38 1997.46,-1283.07 1998.06,-1284.79 1998.48,-1286.55 1998.71,-1288.33 1998.78,-1290.14 1998.67,-1291.96 1998.4,-1293.79 1997.97,-1295.64 1997.39,-1297.48 1996.66,-1299.32 1995.79,-1301.16 1994.78,-1302.98 1993.65,-1304.79 1992.4,-1306.57 1991.04,-1308.32 1989.58,-1310.05 1988.02,-1311.73 1986.37,-1313.38 1984.64,-1314.98 1982.84,-1316.52 1980.97,-1318.02 1979.04,-1319.45 1977.06,-1320.82 1975.03,-1322.13 1972.95,-1323.36 1970.84,-1324.52 1968.7,-1325.61 1966.53,-1326.61 1964.33,-1327.54 1962.11,-1328.37 1959.88,-1329.12 1957.63,-1329.78 1955.37,-1330.35 1953.1,-1330.83 1950.82,-1331.22 1948.54,-1331.5 1946.25,-1331.7 1943.97,-1331.79 1941.68,-1331.79 1939.39,-1331.7 1937.1,-1331.5 1934.82,-1331.22 1932.54,-1330.83 1930.27,-1330.35 1928.01,-1329.78 1925.76,-1329.12 1923.53,-1328.37 1921.31,-1327.54 1919.12,-1326.61 1916.95,-1325.61 1914.8,-1324.52 1912.69,-1323.36 1910.62,-1322.13 1908.58,-1320.82 1906.6,-1319.45 1904.67,-1318.02 1902.8,-1316.52 1901,-1314.98 1899.27,-1313.38 1897.62,-1311.73 1896.07,-1310.05 1894.6,-1308.32 1893.24,-1306.57 1891.99,-1304.79 1890.86,-1302.98 1889.86,-1301.16 1888.99,-1299.32 1888.26,-1297.48 1887.67,-1295.64 1887.24,-1293.79 1886.97,-1291.96 1886.86,-1290.14 1886.93,-1288.33 1887.17,-1286.55 1887.58,-1284.79 1888.18,-1283.07 1888.96,-1281.38 1889.92,-1279.74 1891.06,-1278.14 1892.39,-1276.59 1893.9,-1275.1 1895.58,-1273.67 1897.45,-1272.3 1899.48,-1270.99 1901.67,-1269.76 1904.03,-1268.6 1906.53,-1267.51 1909.18,-1266.51 1911.96,-1265.58 1914.86,-1264.75 1917.88,-1263.99 1920.99,-1263.33 1924.2,-1262.76 1927.48,-1262.29 1930.82,-1261.9 1934.21,-1261.61 1937.64,-1261.42 1941.09,-1261.32 1944.55,-1261.32 1948,-1261.42"/>
<text text-anchor="start" x="1913.65" y="-1306.36" font-family="Times,serif" font-size="14.00">C0017725</text>
<text text-anchor="start" x="1921.44" y="-1292.36" font-family="Times,serif" font-size="14.00">glucose</text>
<text text-anchor="start" x="1926.88" y="-1278.36" font-family="Times,serif" font-size="14.00">13:13</text>
</g>
<!-- id_27516254_DOT_5 -->
<g id="node5" class="node">
<title>id_27516254_DOT_5</title>
<polygon fill="blueviolet" stroke="blueviolet" points="2144.73,-905.54 2148.16,-905.74 2151.56,-906.02 2154.9,-906.41 2158.18,-906.89 2161.38,-907.46 2164.5,-908.12 2167.52,-908.87 2170.42,-909.71 2173.2,-910.63 2175.85,-911.63 2178.35,-912.72 2180.7,-913.88 2182.9,-915.11 2184.93,-916.42 2186.79,-917.79 2188.48,-919.22 2189.99,-920.72 2191.32,-922.26 2192.46,-923.86 2193.42,-925.51 2194.2,-927.19 2194.8,-928.92 2195.21,-930.67 2195.45,-932.45 2195.51,-934.26 2195.41,-936.08 2195.14,-937.92 2194.71,-939.76 2194.12,-941.6 2193.39,-943.45 2192.52,-945.28 2191.52,-947.1 2190.39,-948.91 2189.14,-950.69 2187.78,-952.45 2186.31,-954.17 2184.75,-955.86 2183.11,-957.5 2181.38,-959.1 2179.58,-960.65 2177.71,-962.14 2175.78,-963.57 2173.79,-964.94 2171.76,-966.25 2169.69,-967.48 2167.58,-968.64 2165.43,-969.73 2163.26,-970.73 2161.06,-971.66 2158.85,-972.49 2156.61,-973.25 2154.37,-973.91 2152.11,-974.48 2149.84,-974.95 2147.56,-975.34 2145.28,-975.63 2142.99,-975.82 2140.7,-975.92 2138.41,-975.92 2136.12,-975.82 2133.84,-975.63 2131.55,-975.34 2129.28,-974.95 2127.01,-974.48 2124.75,-973.91 2122.5,-973.25 2120.27,-972.49 2118.05,-971.66 2115.85,-970.73 2113.68,-969.73 2111.54,-968.64 2109.43,-967.48 2107.35,-966.25 2105.32,-964.94 2103.34,-963.57 2101.41,-962.14 2099.54,-960.65 2097.74,-959.1 2096.01,-957.5 2094.36,-955.86 2092.8,-954.17 2091.34,-952.45 2089.98,-950.69 2088.73,-948.91 2087.6,-947.1 2086.59,-945.28 2085.72,-943.45 2084.99,-941.6 2084.41,-939.76 2083.98,-937.92 2083.71,-936.08 2083.6,-934.26 2083.66,-932.45 2083.9,-930.67 2084.32,-928.92 2084.91,-927.19 2085.69,-925.51 2086.65,-923.86 2087.8,-922.26 2089.12,-920.72 2090.63,-919.22 2092.32,-917.79 2094.18,-916.42 2096.21,-915.11 2098.41,-913.88 2100.76,-912.72 2103.27,-911.63 2105.91,-910.63 2108.69,-909.71 2111.6,-908.87 2114.61,-908.12 2117.73,-907.46 2120.93,-906.89 2124.21,-906.41 2127.56,-906.02 2130.95,-905.74 2134.38,-905.54 2137.83,-905.45 2141.29,-905.45 2144.73,-905.54"/>
<text text-anchor="start" x="2110.39" y="-950.48" font-family="Times,serif" font-size="14.00">C0016945</text>
<text text-anchor="start" x="2113.52" y="-936.48" font-family="Times,serif" font-size="14.00">galactose</text>
<text text-anchor="start" x="2123.61" y="-922.48" font-family="Times,serif" font-size="14.00">15:15</text>
</g>
<!-- id_27516254_DOT_4&#45;&#45;id_27516254_DOT_5 -->
<g id="edge10" class="edge">
<title>id_27516254_DOT_4&#45;&#45;id_27516254_DOT_5</title>
<path fill="none" stroke="black" stroke-dasharray="1,5" d="M1961.51,-1262.76C1999.3,-1194.4 2084.36,-1040.52 2121.57,-973.22"/>
<text text-anchor="middle" x="2015.29" y="-1120.79" font-family="Times,serif" font-size="14.00">0.568342</text>
</g>
<!-- id_27516254_DOT_12 -->
<g id="node12" class="node">
<title>id_27516254_DOT_12</title>
<polygon fill="crimson" stroke="crimson" points="2572.58,-877.1 2577.4,-877.29 2582.17,-877.58 2586.86,-877.96 2591.47,-878.44 2595.97,-879.01 2600.35,-879.67 2604.58,-880.42 2608.66,-881.26 2612.56,-882.18 2616.28,-883.19 2619.8,-884.27 2623.11,-885.43 2626.19,-886.67 2629.05,-887.97 2631.66,-889.34 2634.03,-890.78 2636.15,-892.27 2638.01,-893.82 2639.62,-895.42 2640.97,-897.06 2642.06,-898.75 2642.9,-900.47 2643.48,-902.22 2643.82,-904.01 2643.91,-905.81 2643.76,-907.64 2643.38,-909.47 2642.77,-911.31 2641.95,-913.16 2640.93,-915 2639.7,-916.84 2638.29,-918.66 2636.7,-920.46 2634.95,-922.25 2633.04,-924 2630.98,-925.72 2628.79,-927.41 2626.48,-929.05 2624.05,-930.65 2621.52,-932.2 2618.9,-933.69 2616.19,-935.13 2613.4,-936.5 2610.55,-937.8 2607.63,-939.04 2604.67,-940.2 2601.66,-941.28 2598.61,-942.29 2595.52,-943.21 2592.41,-944.05 2589.27,-944.8 2586.11,-945.46 2582.94,-946.03 2579.75,-946.51 2576.55,-946.89 2573.34,-947.18 2570.13,-947.37 2566.92,-947.47 2563.7,-947.47 2560.49,-947.37 2557.28,-947.18 2554.07,-946.89 2550.87,-946.51 2547.69,-946.03 2544.51,-945.46 2541.35,-944.8 2538.22,-944.05 2535.1,-943.21 2532.02,-942.29 2528.97,-941.28 2525.95,-940.2 2522.99,-939.04 2520.08,-937.8 2517.22,-936.5 2514.44,-935.13 2511.73,-933.69 2509.1,-932.2 2506.57,-930.65 2504.14,-929.05 2501.83,-927.41 2499.64,-925.72 2497.58,-924 2495.67,-922.25 2493.92,-920.46 2492.33,-918.66 2490.92,-916.84 2489.7,-915 2488.67,-913.16 2487.85,-911.31 2487.24,-909.47 2486.86,-907.64 2486.72,-905.81 2486.81,-904.01 2487.14,-902.22 2487.72,-900.47 2488.56,-898.75 2489.65,-897.06 2491,-895.42 2492.61,-893.82 2494.48,-892.27 2496.59,-890.78 2498.96,-889.34 2501.58,-887.97 2504.43,-886.67 2507.52,-885.43 2510.82,-884.27 2514.34,-883.19 2518.06,-882.18 2521.96,-881.26 2526.04,-880.42 2530.28,-879.67 2534.65,-879.01 2539.15,-878.44 2543.76,-877.96 2548.46,-877.58 2553.22,-877.29 2558.04,-877.1 2562.88,-877 2567.74,-877 2572.58,-877.1"/>
<text text-anchor="start" x="2536.14" y="-922.04" font-family="Times,serif" font-size="14.00">C0025729</text>
<text text-anchor="start" x="2520.99" y="-908.04" font-family="Times,serif" font-size="14.00">methylcellulose</text>
<text text-anchor="start" x="2549.37" y="-894.04" font-family="Times,serif" font-size="14.00">76:76</text>
</g>
<!-- id_27516254_DOT_5&#45;&#45;id_27516254_DOT_12 -->
<g id="edge11" class="edge">
<title>id_27516254_DOT_5&#45;&#45;id_27516254_DOT_12</title>
<path fill="none" stroke="black" stroke-dasharray="1,5" d="M2195.65,-936.93C2271.41,-931.87 2406.61,-922.84 2490.82,-917.21"/>
<text text-anchor="middle" x="2316.99" y="-929.87" font-family="Times,serif" font-size="14.00">0.746140</text>
</g>
<!-- id_27516254_DOT_13 -->
<g id="node13" class="node">
<title>id_27516254_DOT_13</title>
<polygon fill="darkgoldenrod" stroke="darkgoldenrod" points="1801.02,-695.75 1804.45,-695.94 1807.84,-696.23 1811.18,-696.61 1814.46,-697.09 1817.67,-697.66 1820.78,-698.32 1823.8,-699.07 1826.7,-699.91 1829.48,-700.83 1832.13,-701.84 1834.63,-702.92 1836.99,-704.08 1839.18,-705.32 1841.22,-706.62 1843.08,-707.99 1844.76,-709.43 1846.27,-710.92 1847.6,-712.47 1848.74,-714.07 1849.71,-715.71 1850.48,-717.4 1851.08,-719.12 1851.49,-720.88 1851.73,-722.66 1851.8,-724.46 1851.69,-726.29 1851.42,-728.12 1850.99,-729.96 1850.41,-731.81 1849.68,-733.65 1848.8,-735.49 1847.8,-737.31 1846.67,-739.11 1845.42,-740.9 1844.06,-742.65 1842.6,-744.37 1841.04,-746.06 1839.39,-747.7 1837.66,-749.3 1835.86,-750.85 1833.99,-752.34 1832.06,-753.78 1830.08,-755.15 1828.05,-756.45 1825.97,-757.69 1823.86,-758.85 1821.72,-759.93 1819.54,-760.94 1817.35,-761.86 1815.13,-762.7 1812.9,-763.45 1810.65,-764.11 1808.39,-764.68 1806.12,-765.16 1803.84,-765.54 1801.56,-765.83 1799.27,-766.02 1796.98,-766.12 1794.7,-766.12 1792.41,-766.02 1790.12,-765.83 1787.84,-765.54 1785.56,-765.16 1783.29,-764.68 1781.03,-764.11 1778.78,-763.45 1776.55,-762.7 1774.33,-761.86 1772.14,-760.94 1769.96,-759.93 1767.82,-758.85 1765.71,-757.69 1763.63,-756.45 1761.6,-755.15 1759.62,-753.78 1757.69,-752.34 1755.82,-750.85 1754.02,-749.3 1752.29,-747.7 1750.64,-746.06 1749.08,-744.37 1747.62,-742.65 1746.26,-740.9 1745.01,-739.11 1743.88,-737.31 1742.88,-735.49 1742,-733.65 1741.27,-731.81 1740.69,-729.96 1740.26,-728.12 1739.99,-726.29 1739.88,-724.46 1739.95,-722.66 1740.19,-720.88 1740.6,-719.12 1741.2,-717.4 1741.97,-715.71 1742.94,-714.07 1744.08,-712.47 1745.41,-710.92 1746.92,-709.43 1748.6,-707.99 1750.46,-706.62 1752.5,-705.32 1754.69,-704.08 1757.05,-702.92 1759.55,-701.84 1762.2,-700.83 1764.98,-699.91 1767.88,-699.07 1770.9,-698.32 1774.01,-697.66 1777.22,-697.09 1780.5,-696.61 1783.84,-696.23 1787.23,-695.94 1790.66,-695.75 1794.11,-695.65 1797.57,-695.65 1801.02,-695.75"/>
<text text-anchor="start" x="1766.67" y="-740.69" font-family="Times,serif" font-size="14.00">C0061996</text>
<text text-anchor="start" x="1769.21" y="-726.69" font-family="Times,serif" font-size="14.00">guar gum</text>
<text text-anchor="start" x="1779.9" y="-712.69" font-family="Times,serif" font-size="14.00">82:83</text>
</g>
<!-- id_27516254_DOT_5&#45;&#45;id_27516254_DOT_13 -->
<g id="edge12" class="edge">
<title>id_27516254_DOT_5&#45;&#45;id_27516254_DOT_13</title>
<path fill="none" stroke="black" stroke-dasharray="1,5" d="M2096.72,-914.53C2028.6,-872.96 1896.77,-792.49 1832.65,-753.35"/>
<text text-anchor="middle" x="1938.43" y="-836.74" font-family="Times,serif" font-size="14.00">0.485252</text>
</g>
<!-- id_27516254_DOT_6 -->
<g id="node6" class="node">
<title>id_27516254_DOT_6</title>
<polygon fill="brown" stroke="brown" points="3024.87,-1566.01 3033.19,-1566.2 3041.42,-1566.49 3049.53,-1566.88 3057.49,-1567.35 3065.26,-1567.92 3072.82,-1568.58 3080.13,-1569.34 3087.18,-1570.17 3093.92,-1571.1 3100.34,-1572.1 3106.42,-1573.19 3112.13,-1574.35 3117.45,-1575.58 3122.38,-1576.89 3126.9,-1578.26 3130.99,-1579.69 3134.65,-1581.18 3137.87,-1582.73 3140.65,-1584.33 3142.98,-1585.97 3144.86,-1587.66 3146.31,-1589.38 3147.32,-1591.14 3147.89,-1592.92 3148.05,-1594.73 3147.79,-1596.55 3147.14,-1598.38 3146.09,-1600.23 3144.68,-1602.07 3142.9,-1603.91 3140.79,-1605.75 3138.35,-1607.57 3135.61,-1609.38 3132.58,-1611.16 3129.28,-1612.92 3125.73,-1614.64 3121.95,-1616.32 3117.95,-1617.97 3113.76,-1619.57 3109.39,-1621.11 3104.85,-1622.61 3100.17,-1624.04 3095.36,-1625.41 3090.43,-1626.72 3085.4,-1627.95 3080.28,-1629.11 3075.08,-1630.2 3069.81,-1631.2 3064.48,-1632.13 3059.11,-1632.96 3053.69,-1633.71 3048.23,-1634.38 3042.75,-1634.95 3037.25,-1635.42 3031.72,-1635.81 3026.19,-1636.1 3020.64,-1636.29 3015.09,-1636.38 3009.53,-1636.38 3003.98,-1636.29 2998.44,-1636.1 2992.9,-1635.81 2987.38,-1635.42 2981.87,-1634.95 2976.39,-1634.38 2970.93,-1633.71 2965.52,-1632.96 2960.14,-1632.13 2954.81,-1631.2 2949.54,-1630.2 2944.34,-1629.11 2939.22,-1627.95 2934.19,-1626.72 2929.26,-1625.41 2924.45,-1624.04 2919.77,-1622.61 2915.23,-1621.11 2910.86,-1619.57 2906.67,-1617.97 2902.67,-1616.32 2898.89,-1614.64 2895.34,-1612.92 2892.04,-1611.16 2889.01,-1609.38 2886.27,-1607.57 2883.83,-1605.75 2881.72,-1603.91 2879.95,-1602.07 2878.53,-1600.23 2877.49,-1598.38 2876.83,-1596.55 2876.57,-1594.73 2876.73,-1592.92 2877.31,-1591.14 2878.31,-1589.38 2879.76,-1587.66 2881.65,-1585.97 2883.98,-1584.33 2886.75,-1582.73 2889.97,-1581.18 2893.63,-1579.69 2897.72,-1578.26 2902.24,-1576.89 2907.17,-1575.58 2912.49,-1574.35 2918.21,-1573.19 2924.28,-1572.1 2930.7,-1571.1 2937.45,-1570.17 2944.49,-1569.34 2951.8,-1568.58 2959.36,-1567.92 2967.14,-1567.35 2975.09,-1566.88 2983.2,-1566.49 2991.43,-1566.2 2999.75,-1566.01 3008.12,-1565.91 3016.5,-1565.91 3024.87,-1566.01"/>
<text text-anchor="start" x="2983.14" y="-1610.95" font-family="Times,serif" font-size="14.00">C0317649</text>
<text text-anchor="start" x="2930.1" y="-1596.95" font-family="Times,serif" font-size="14.00">Lactobacillus kefiranofaciens</text>
<text text-anchor="start" x="2996.37" y="-1582.95" font-family="Times,serif" font-size="14.00">18:19</text>
</g>
<!-- id_27516254_DOT_7 -->
<g id="node7" class="node">
<title>id_27516254_DOT_7</title>
<polygon fill="cadetblue" stroke="cadetblue" points="2780.45,-1252.99 2784.1,-1253.18 2787.71,-1253.47 2791.27,-1253.85 2794.76,-1254.33 2798.17,-1254.9 2801.49,-1255.56 2804.7,-1256.31 2807.78,-1257.15 2810.74,-1258.07 2813.56,-1259.08 2816.23,-1260.16 2818.73,-1261.33 2821.07,-1262.56 2823.23,-1263.86 2825.21,-1265.24 2827,-1266.67 2828.61,-1268.16 2830.02,-1269.71 2831.24,-1271.31 2832.26,-1272.95 2833.09,-1274.64 2833.72,-1276.36 2834.17,-1278.12 2834.42,-1279.9 2834.49,-1281.7 2834.38,-1283.53 2834.09,-1285.36 2833.63,-1287.2 2833.01,-1289.05 2832.23,-1290.89 2831.3,-1292.73 2830.23,-1294.55 2829.03,-1296.36 2827.7,-1298.14 2826.26,-1299.89 2824.7,-1301.62 2823.04,-1303.3 2821.29,-1304.95 2819.45,-1306.54 2817.53,-1308.09 2815.54,-1309.58 2813.49,-1311.02 2811.38,-1312.39 2809.21,-1313.7 2807.01,-1314.93 2804.76,-1316.09 2802.48,-1317.18 2800.17,-1318.18 2797.83,-1319.1 2795.47,-1319.94 2793.09,-1320.69 2790.7,-1321.35 2788.3,-1321.92 2785.88,-1322.4 2783.46,-1322.78 2781.03,-1323.07 2778.6,-1323.27 2776.16,-1323.36 2773.73,-1323.36 2771.29,-1323.27 2768.86,-1323.07 2766.43,-1322.78 2764.01,-1322.4 2761.59,-1321.92 2759.19,-1321.35 2756.79,-1320.69 2754.42,-1319.94 2752.06,-1319.1 2749.72,-1318.18 2747.41,-1317.18 2745.13,-1316.09 2742.88,-1314.93 2740.67,-1313.7 2738.51,-1312.39 2736.4,-1311.02 2734.35,-1309.58 2732.36,-1308.09 2730.44,-1306.54 2728.6,-1304.95 2726.85,-1303.3 2725.19,-1301.62 2723.63,-1299.89 2722.18,-1298.14 2720.86,-1296.36 2719.65,-1294.55 2718.58,-1292.73 2717.66,-1290.89 2716.88,-1289.05 2716.26,-1287.2 2715.8,-1285.36 2715.51,-1283.53 2715.4,-1281.7 2715.47,-1279.9 2715.72,-1278.12 2716.16,-1276.36 2716.8,-1274.64 2717.62,-1272.95 2718.65,-1271.31 2719.87,-1269.71 2721.28,-1268.16 2722.88,-1266.67 2724.68,-1265.24 2726.66,-1263.86 2728.82,-1262.56 2731.16,-1261.33 2733.66,-1260.16 2736.33,-1259.08 2739.14,-1258.07 2742.1,-1257.15 2745.19,-1256.31 2748.4,-1255.56 2751.72,-1254.9 2755.13,-1254.33 2758.62,-1253.85 2762.17,-1253.47 2765.79,-1253.18 2769.43,-1252.99 2773.1,-1252.89 2776.78,-1252.89 2780.45,-1252.99"/>
<text text-anchor="start" x="2745.77" y="-1297.93" font-family="Times,serif" font-size="14.00">C4280055</text>
<text text-anchor="start" x="2743.26" y="-1283.93" font-family="Times,serif" font-size="14.00">kefir grains</text>
<text text-anchor="start" x="2759" y="-1269.93" font-family="Times,serif" font-size="14.00">25:26</text>
</g>
<!-- id_27516254_DOT_6&#45;&#45;id_27516254_DOT_7 -->
<g id="edge13" class="edge">
<title>id_27516254_DOT_6&#45;&#45;id_27516254_DOT_7</title>
<path fill="none" stroke="black" stroke-dasharray="1,5" d="M2985.77,-1566.15C2939.08,-1504.57 2842.96,-1377.82 2798.48,-1319.17"/>
<text text-anchor="middle" x="2865.88" y="-1445.46" font-family="Times,serif" font-size="14.00">0.812564</text>
</g>
<!-- id_27516254_DOT_6&#45;&#45;id_27516254_DOT_8 -->
<g id="edge14" class="edge">
<title>id_27516254_DOT_6&#45;&#45;id_27516254_DOT_8</title>
<path fill="none" stroke="black" stroke-dasharray="1,5" d="M3040.52,-1635.3C3087.91,-1692.68 3182.85,-1807.63 3229.31,-1863.87"/>
<text text-anchor="middle" x="3108.66" y="-1752.39" font-family="Times,serif" font-size="14.00">0.721530</text>
</g>
<!-- id_27516254_DOT_7&#45;&#45;id_27516254_DOT_12 -->
<g id="edge15" class="edge">
<title>id_27516254_DOT_7&#45;&#45;id_27516254_DOT_12</title>
<path fill="none" stroke="black" stroke-dasharray="1,5" d="M2755.97,-1254.11C2716.06,-1182.54 2623.83,-1017.17 2584.09,-945.91"/>
<text text-anchor="middle" x="2643.78" y="-1102.81" font-family="Times,serif" font-size="14.00">0.844997</text>
</g>
<!-- id_27516254_DOT_15 -->
<g id="node15" class="node">
<title>id_27516254_DOT_15</title>
<polygon fill="chartreuse" stroke="chartreuse" points="726.68,-389.38 730.76,-389.57 734.8,-389.86 738.78,-390.24 742.68,-390.72 746.5,-391.29 750.2,-391.95 753.79,-392.7 757.25,-393.54 760.56,-394.46 763.71,-395.47 766.69,-396.55 769.49,-397.71 772.1,-398.95 774.52,-400.25 776.74,-401.62 778.74,-403.06 780.54,-404.55 782.12,-406.1 783.48,-407.7 784.63,-409.34 785.55,-411.03 786.26,-412.75 786.75,-414.5 787.04,-416.29 787.11,-418.09 786.99,-419.92 786.67,-421.75 786.15,-423.59 785.46,-425.44 784.59,-427.28 783.55,-429.12 782.36,-430.94 781.01,-432.74 779.52,-434.53 777.91,-436.28 776.16,-438 774.31,-439.69 772.35,-441.33 770.29,-442.93 768.15,-444.48 765.92,-445.97 763.62,-447.41 761.26,-448.78 758.85,-450.08 756.38,-451.32 753.86,-452.48 751.31,-453.56 748.73,-454.57 746.11,-455.49 743.48,-456.33 740.82,-457.08 738.14,-457.74 735.45,-458.31 732.75,-458.79 730.04,-459.17 727.32,-459.46 724.6,-459.65 721.88,-459.75 719.15,-459.75 716.43,-459.65 713.71,-459.46 710.99,-459.17 708.28,-458.79 705.58,-458.31 702.89,-457.74 700.22,-457.08 697.56,-456.33 694.92,-455.49 692.3,-454.57 689.72,-453.56 687.17,-452.48 684.66,-451.32 682.19,-450.08 679.77,-448.78 677.41,-447.41 675.11,-445.97 672.89,-444.48 670.74,-442.93 668.69,-441.33 666.72,-439.69 664.87,-438 663.13,-436.28 661.51,-434.53 660.02,-432.74 658.68,-430.94 657.48,-429.12 656.44,-427.28 655.57,-425.44 654.88,-423.59 654.37,-421.75 654.04,-419.92 653.92,-418.09 654,-416.29 654.28,-414.5 654.77,-412.75 655.48,-411.03 656.41,-409.34 657.55,-407.7 658.91,-406.1 660.49,-404.55 662.29,-403.06 664.3,-401.62 666.51,-400.25 668.93,-398.95 671.54,-397.71 674.35,-396.55 677.33,-395.47 680.48,-394.46 683.79,-393.54 687.24,-392.7 690.83,-391.95 694.54,-391.29 698.35,-390.72 702.26,-390.24 706.24,-389.86 710.27,-389.57 714.35,-389.38 718.46,-389.28 722.57,-389.28 726.68,-389.38"/>
<text text-anchor="start" x="691.35" y="-434.32" font-family="Times,serif" font-size="14.00">C0029224</text>
<text text-anchor="start" x="684.16" y="-420.32" font-family="Times,serif" font-size="14.00">neutral gums</text>
<text text-anchor="start" x="704.57" y="-406.32" font-family="Times,serif" font-size="14.00">98:99</text>
</g>
<!-- id_27516254_DOT_9&#45;&#45;id_27516254_DOT_15 -->
<g id="edge4" class="edge">
<title>id_27516254_DOT_9&#45;&#45;id_27516254_DOT_15</title>
<path fill="none" stroke="black" d="M439.06,-281.87C499.07,-312.28 606,-366.48 669.37,-398.59"/>
<text text-anchor="middle" x="527.97" y="-343.03" font-family="Times,serif" font-size="14.00">0.013360</text>
</g>
<!-- id_27516254_DOT_10 -->
<g id="node10" class="node">
<title>id_27516254_DOT_10</title>
<polygon fill="coral" stroke="coral" points="2924.92,-125.63 2928.35,-125.83 2931.74,-126.12 2935.08,-126.5 2938.36,-126.98 2941.57,-127.55 2944.69,-128.21 2947.7,-128.96 2950.6,-129.8 2953.38,-130.72 2956.03,-131.73 2958.54,-132.81 2960.89,-133.97 2963.09,-135.21 2965.12,-136.51 2966.98,-137.88 2968.67,-139.32 2970.17,-140.81 2971.5,-142.36 2972.65,-143.95 2973.61,-145.6 2974.38,-147.28 2974.98,-149.01 2975.4,-150.76 2975.63,-152.55 2975.7,-154.35 2975.59,-156.17 2975.32,-158.01 2974.89,-159.85 2974.31,-161.7 2973.58,-163.54 2972.71,-165.37 2971.7,-167.2 2970.57,-169 2969.32,-170.78 2967.96,-172.54 2966.5,-174.26 2964.94,-175.95 2963.29,-177.59 2961.56,-179.19 2959.76,-180.74 2957.89,-182.23 2955.96,-183.66 2953.98,-185.04 2951.95,-186.34 2949.87,-187.58 2947.76,-188.74 2945.62,-189.82 2943.45,-190.83 2941.25,-191.75 2939.03,-192.59 2936.8,-193.34 2934.55,-194 2932.29,-194.57 2930.02,-195.05 2927.74,-195.43 2925.46,-195.72 2923.17,-195.91 2920.89,-196.01 2918.6,-196.01 2916.31,-195.91 2914.02,-195.72 2911.74,-195.43 2909.46,-195.05 2907.19,-194.57 2904.93,-194 2902.68,-193.34 2900.45,-192.59 2898.23,-191.75 2896.04,-190.83 2893.87,-189.82 2891.72,-188.74 2889.61,-187.58 2887.54,-186.34 2885.5,-185.04 2883.52,-183.66 2881.59,-182.23 2879.72,-180.74 2877.92,-179.19 2876.19,-177.59 2874.54,-175.95 2872.99,-174.26 2871.52,-172.54 2870.16,-170.78 2868.91,-169 2867.78,-167.2 2866.78,-165.37 2865.91,-163.54 2865.18,-161.7 2864.59,-159.85 2864.16,-158.01 2863.89,-156.17 2863.79,-154.35 2863.85,-152.55 2864.09,-150.76 2864.5,-149.01 2865.1,-147.28 2865.88,-145.6 2866.84,-143.95 2867.98,-142.36 2869.31,-140.81 2870.82,-139.32 2872.5,-137.88 2874.37,-136.51 2876.4,-135.21 2878.59,-133.97 2880.95,-132.81 2883.45,-131.73 2886.1,-130.72 2888.88,-129.8 2891.78,-128.96 2894.8,-128.21 2897.91,-127.55 2901.12,-126.98 2904.4,-126.5 2907.74,-126.12 2911.14,-125.83 2914.56,-125.63 2918.01,-125.54 2921.47,-125.54 2924.92,-125.63"/>
<text text-anchor="start" x="2890.57" y="-170.57" font-family="Times,serif" font-size="14.00">C0016452</text>
<text text-anchor="start" x="2906.91" y="-156.57" font-family="Times,serif" font-size="14.00">food</text>
<text text-anchor="start" x="2903.8" y="-142.57" font-family="Times,serif" font-size="14.00">69:69</text>
</g>
<!-- id_27516254_DOT_11 -->
<g id="node11" class="node">
<title>id_27516254_DOT_11</title>
<polygon fill="cornflowerblue" stroke="cornflowerblue" points="2706.32,-458.8 2713.46,-458.99 2720.53,-459.28 2727.5,-459.66 2734.34,-460.14 2741.02,-460.71 2747.51,-461.37 2753.8,-462.12 2759.85,-462.96 2765.64,-463.88 2771.16,-464.89 2776.38,-465.97 2781.28,-467.13 2785.86,-468.37 2790.1,-469.67 2793.97,-471.04 2797.49,-472.48 2800.63,-473.97 2803.4,-475.52 2805.79,-477.12 2807.79,-478.76 2809.41,-480.45 2810.65,-482.17 2811.52,-483.93 2812.01,-485.71 2812.15,-487.51 2811.93,-489.34 2811.36,-491.17 2810.47,-493.01 2809.25,-494.86 2807.73,-496.7 2805.91,-498.54 2803.82,-500.36 2801.46,-502.16 2798.86,-503.95 2796.02,-505.7 2792.97,-507.42 2789.72,-509.11 2786.29,-510.75 2782.69,-512.35 2778.93,-513.9 2775.04,-515.39 2771.01,-516.83 2766.88,-518.2 2762.65,-519.5 2758.32,-520.74 2753.92,-521.9 2749.46,-522.98 2744.93,-523.99 2740.35,-524.91 2735.73,-525.75 2731.08,-526.5 2726.39,-527.16 2721.68,-527.73 2716.95,-528.21 2712.2,-528.59 2707.45,-528.88 2702.68,-529.07 2697.91,-529.17 2693.14,-529.17 2688.37,-529.07 2683.61,-528.88 2678.85,-528.59 2674.1,-528.21 2669.37,-527.73 2664.66,-527.16 2659.98,-526.5 2655.32,-525.75 2650.7,-524.91 2646.12,-523.99 2641.6,-522.98 2637.13,-521.9 2632.73,-520.74 2628.41,-519.5 2624.17,-518.2 2620.04,-516.83 2616.02,-515.39 2612.12,-513.9 2608.37,-512.35 2604.76,-510.75 2601.33,-509.11 2598.08,-507.42 2595.03,-505.7 2592.2,-503.95 2589.59,-502.16 2587.24,-500.36 2585.14,-498.54 2583.33,-496.7 2581.8,-494.86 2580.59,-493.01 2579.69,-491.17 2579.13,-489.34 2578.9,-487.51 2579.04,-485.71 2579.53,-483.93 2580.4,-482.17 2581.64,-480.45 2583.26,-478.76 2585.27,-477.12 2587.65,-475.52 2590.42,-473.97 2593.56,-472.48 2597.08,-471.04 2600.96,-469.67 2605.19,-468.37 2609.77,-467.13 2614.67,-465.97 2619.89,-464.89 2625.41,-463.88 2631.2,-462.96 2637.26,-462.12 2643.54,-461.37 2650.03,-460.71 2656.71,-460.14 2663.55,-459.66 2670.52,-459.28 2677.59,-458.99 2684.73,-458.8 2691.92,-458.7 2699.13,-458.7 2706.32,-458.8"/>
<text text-anchor="start" x="2666.36" y="-503.74" font-family="Times,serif" font-size="14.00">C0013185</text>
<text text-anchor="start" x="2626.13" y="-489.74" font-family="Times,serif" font-size="14.00">pharmaceutics industries</text>
<text text-anchor="start" x="2679.58" y="-475.74" font-family="Times,serif" font-size="14.00">73:74</text>
</g>
<!-- id_27516254_DOT_10&#45;&#45;id_27516254_DOT_11 -->
<g id="edge16" class="edge">
<title>id_27516254_DOT_10&#45;&#45;id_27516254_DOT_11</title>
<path fill="none" stroke="black" stroke-dasharray="1,5" d="M2898.65,-192.12C2856.62,-254.56 2762.73,-394.08 2718.9,-459.2"/>
<text text-anchor="middle" x="2782.52" y="-328.46" font-family="Times,serif" font-size="14.00">0.771902</text>
</g>
<!-- id_27516254_DOT_11&#45;&#45;id_27516254_DOT_12 -->
<g id="edge17" class="edge">
<title>id_27516254_DOT_11&#45;&#45;id_27516254_DOT_12</title>
<path fill="none" stroke="black" stroke-dasharray="1,5" d="M2684.54,-529.24C2659.95,-608.22 2600.74,-798.42 2576.23,-877.17"/>
<text text-anchor="middle" x="2604.13" y="-706.01" font-family="Times,serif" font-size="14.00">0.761492</text>
</g>
<!-- id_27516254_DOT_17 -->
<g id="node17" class="node">
<title>id_27516254_DOT_17</title>
<polygon fill="darkgreen" stroke="darkgreen" points="2919.47,-752.08 2923.54,-752.27 2927.56,-752.56 2931.53,-752.95 2935.42,-753.42 2939.23,-753.99 2942.92,-754.66 2946.5,-755.41 2949.95,-756.24 2953.24,-757.17 2956.38,-758.17 2959.36,-759.26 2962.15,-760.42 2964.76,-761.65 2967.17,-762.96 2969.37,-764.33 2971.38,-765.76 2973.16,-767.26 2974.74,-768.8 2976.1,-770.4 2977.24,-772.05 2978.16,-773.73 2978.87,-775.45 2979.36,-777.21 2979.64,-778.99 2979.72,-780.8 2979.59,-782.62 2979.27,-784.46 2978.76,-786.3 2978.07,-788.14 2977.2,-789.99 2976.17,-791.82 2974.98,-793.64 2973.64,-795.45 2972.15,-797.23 2970.54,-798.99 2968.8,-800.71 2966.95,-802.4 2965,-804.04 2962.95,-805.64 2960.81,-807.18 2958.59,-808.68 2956.3,-810.11 2953.95,-811.48 2951.54,-812.79 2949.08,-814.02 2946.57,-815.18 2944.03,-816.27 2941.45,-817.27 2938.85,-818.2 2936.22,-819.03 2933.56,-819.79 2930.9,-820.45 2928.22,-821.02 2925.52,-821.49 2922.82,-821.88 2920.11,-822.17 2917.4,-822.36 2914.68,-822.46 2911.97,-822.46 2909.25,-822.36 2906.54,-822.17 2903.83,-821.88 2901.13,-821.49 2898.44,-821.02 2895.76,-820.45 2893.09,-819.79 2890.44,-819.03 2887.81,-818.2 2885.2,-817.27 2882.62,-816.27 2880.08,-815.18 2877.58,-814.02 2875.11,-812.79 2872.7,-811.48 2870.35,-810.11 2868.06,-808.68 2865.84,-807.18 2863.71,-805.64 2861.65,-804.04 2859.7,-802.4 2857.85,-800.71 2856.11,-798.99 2854.5,-797.23 2853.02,-795.45 2851.68,-793.64 2850.48,-791.82 2849.45,-789.99 2848.58,-788.14 2847.89,-786.3 2847.38,-784.46 2847.06,-782.62 2846.93,-780.8 2847.01,-778.99 2847.29,-777.21 2847.79,-775.45 2848.49,-773.73 2849.42,-772.05 2850.56,-770.4 2851.91,-768.8 2853.49,-767.26 2855.28,-765.76 2857.28,-764.33 2859.49,-762.96 2861.9,-761.65 2864.5,-760.42 2867.3,-759.26 2870.27,-758.17 2873.41,-757.17 2876.71,-756.24 2880.15,-755.41 2883.73,-754.66 2887.43,-753.99 2891.23,-753.42 2895.12,-752.95 2899.09,-752.56 2903.12,-752.27 2907.18,-752.08 2911.28,-751.99 2915.38,-751.99 2919.47,-752.08"/>
<text text-anchor="start" x="2884.16" y="-797.02" font-family="Times,serif" font-size="14.00">C0205134</text>
<text text-anchor="start" x="2877.37" y="-783.02" font-family="Times,serif" font-size="14.00">master curve</text>
<text text-anchor="start" x="2890.38" y="-769.02" font-family="Times,serif" font-size="14.00">131:132</text>
</g>
<!-- id_27516254_DOT_12&#45;&#45;id_27516254_DOT_17 -->
<g id="edge18" class="edge">
<title>id_27516254_DOT_12&#45;&#45;id_27516254_DOT_17</title>
<path fill="none" stroke="black" stroke-dasharray="1,5" d="M2630.77,-888.72C2698.21,-864.5 2801.86,-827.26 2863.1,-805.26"/>
<text text-anchor="middle" x="2720.69" y="-849.79" font-family="Times,serif" font-size="14.00">0.834067</text>
</g>
<!-- id_27516254_DOT_16 -->
<g id="node16" class="node">
<title>id_27516254_DOT_16</title>
<polygon fill="chartreuse" stroke="chartreuse" points="1438.65,-578.73 1442.07,-578.92 1445.47,-579.21 1448.81,-579.59 1452.09,-580.07 1455.3,-580.64 1458.41,-581.3 1461.43,-582.05 1464.33,-582.89 1467.11,-583.81 1469.76,-584.82 1472.26,-585.9 1474.62,-587.07 1476.81,-588.3 1478.84,-589.61 1480.7,-590.98 1482.39,-592.41 1483.9,-593.9 1485.23,-595.45 1486.37,-597.05 1487.33,-598.69 1488.11,-600.38 1488.71,-602.1 1489.12,-603.86 1489.36,-605.64 1489.42,-607.44 1489.32,-609.27 1489.05,-611.1 1488.62,-612.95 1488.03,-614.79 1487.3,-616.63 1486.43,-618.47 1485.43,-620.29 1484.3,-622.1 1483.05,-623.88 1481.69,-625.63 1480.22,-627.36 1478.66,-629.04 1477.02,-630.69 1475.29,-632.28 1473.49,-633.83 1471.62,-635.33 1469.69,-636.76 1467.7,-638.13 1465.67,-639.44 1463.6,-640.67 1461.49,-641.83 1459.34,-642.92 1457.17,-643.92 1454.98,-644.84 1452.76,-645.68 1450.52,-646.43 1448.28,-647.09 1446.02,-647.66 1443.75,-648.14 1441.47,-648.53 1439.19,-648.81 1436.9,-649.01 1434.61,-649.1 1432.32,-649.1 1430.03,-649.01 1427.75,-648.81 1425.47,-648.53 1423.19,-648.14 1420.92,-647.66 1418.66,-647.09 1416.41,-646.43 1414.18,-645.68 1411.96,-644.84 1409.76,-643.92 1407.59,-642.92 1405.45,-641.83 1403.34,-640.67 1401.26,-639.44 1399.23,-638.13 1397.25,-636.76 1395.32,-635.33 1393.45,-633.83 1391.65,-632.28 1389.92,-630.69 1388.27,-629.04 1386.71,-627.36 1385.25,-625.63 1383.89,-623.88 1382.64,-622.1 1381.51,-620.29 1380.5,-618.47 1379.63,-616.63 1378.9,-614.79 1378.32,-612.95 1377.89,-611.1 1377.62,-609.27 1377.51,-607.44 1377.58,-605.64 1377.81,-603.86 1378.23,-602.1 1378.82,-600.38 1379.6,-598.69 1380.56,-597.05 1381.71,-595.45 1383.04,-593.9 1384.54,-592.41 1386.23,-590.98 1388.09,-589.61 1390.12,-588.3 1392.32,-587.07 1394.67,-585.9 1397.18,-584.82 1399.83,-583.81 1402.61,-582.89 1405.51,-582.05 1408.52,-581.3 1411.64,-580.64 1414.84,-580.07 1418.13,-579.59 1421.47,-579.21 1424.86,-578.92 1428.29,-578.73 1431.74,-578.63 1435.2,-578.63 1438.65,-578.73"/>
<text text-anchor="start" x="1404.3" y="-623.67" font-family="Times,serif" font-size="14.00">C0029224</text>
<text text-anchor="start" x="1421.02" y="-609.67" font-family="Times,serif" font-size="14.00">gum</text>
<text text-anchor="start" x="1411.04" y="-595.67" font-family="Times,serif" font-size="14.00">114:114</text>
</g>
<!-- id_27516254_DOT_13&#45;&#45;id_27516254_DOT_16 -->
<g id="edge5" class="edge">
<title>id_27516254_DOT_13&#45;&#45;id_27516254_DOT_16</title>
<path fill="none" stroke="black" d="M1742.76,-713.75C1671.6,-690.76 1546.45,-650.35 1479.23,-628.65"/>
<text text-anchor="middle" x="1584.74" y="-674" font-family="Times,serif" font-size="14.00">0.192095</text>
</g>
<!-- id_27516254_DOT_14 -->
<g id="node14" class="node">
<title>id_27516254_DOT_14</title>
<polygon fill="aquamarine" stroke="aquamarine" points="3547.34,-2916.16 3550.76,-2916.35 3554.16,-2916.64 3557.5,-2917.02 3560.78,-2917.5 3563.99,-2918.07 3567.1,-2918.73 3570.12,-2919.48 3573.02,-2920.32 3575.8,-2921.24 3578.45,-2922.25 3580.95,-2923.33 3583.31,-2924.49 3585.5,-2925.73 3587.53,-2927.03 3589.39,-2928.4 3591.08,-2929.84 3592.59,-2931.33 3593.92,-2932.88 3595.06,-2934.48 3596.02,-2936.12 3596.8,-2937.81 3597.4,-2939.53 3597.81,-2941.28 3598.05,-2943.07 3598.11,-2944.87 3598.01,-2946.69 3597.74,-2948.53 3597.31,-2950.37 3596.72,-2952.22 3595.99,-2954.06 3595.12,-2955.9 3594.12,-2957.72 3592.99,-2959.52 3591.74,-2961.31 3590.38,-2963.06 3588.91,-2964.78 3587.35,-2966.47 3585.71,-2968.11 3583.98,-2969.71 3582.18,-2971.26 3580.31,-2972.75 3578.38,-2974.19 3576.39,-2975.56 3574.36,-2976.86 3572.29,-2978.1 3570.18,-2979.26 3568.03,-2980.34 3565.86,-2981.35 3563.66,-2982.27 3561.45,-2983.11 3559.21,-2983.86 3556.97,-2984.52 3554.71,-2985.09 3552.44,-2985.57 3550.16,-2985.95 3547.88,-2986.24 3545.59,-2986.43 3543.3,-2986.53 3541.01,-2986.53 3538.72,-2986.43 3536.44,-2986.24 3534.16,-2985.95 3531.88,-2985.57 3529.61,-2985.09 3527.35,-2984.52 3525.1,-2983.86 3522.87,-2983.11 3520.65,-2982.27 3518.45,-2981.35 3516.28,-2980.34 3514.14,-2979.26 3512.03,-2978.1 3509.95,-2976.86 3507.92,-2975.56 3505.94,-2974.19 3504.01,-2972.75 3502.14,-2971.26 3500.34,-2969.71 3498.61,-2968.11 3496.96,-2966.47 3495.4,-2964.78 3493.94,-2963.06 3492.58,-2961.31 3491.33,-2959.52 3490.2,-2957.72 3489.19,-2955.9 3488.32,-2954.06 3487.59,-2952.22 3487.01,-2950.37 3486.58,-2948.53 3486.31,-2946.69 3486.2,-2944.87 3486.26,-2943.07 3486.5,-2941.28 3486.92,-2939.53 3487.51,-2937.81 3488.29,-2936.12 3489.25,-2934.48 3490.4,-2932.88 3491.73,-2931.33 3493.23,-2929.84 3494.92,-2928.4 3496.78,-2927.03 3498.81,-2925.73 3501.01,-2924.49 3503.36,-2923.33 3505.87,-2922.25 3508.52,-2921.24 3511.3,-2920.32 3514.2,-2919.48 3517.21,-2918.73 3520.33,-2918.07 3523.53,-2917.5 3526.81,-2917.02 3530.16,-2916.64 3533.55,-2916.35 3536.98,-2916.16 3540.43,-2916.06 3543.89,-2916.06 3547.34,-2916.16"/>
<text text-anchor="start" x="3512.99" y="-2961.1" font-family="Times,serif" font-size="14.00">C0628688</text>
<text text-anchor="start" x="3521.16" y="-2947.1" font-family="Times,serif" font-size="14.00">Kefiran</text>
<text text-anchor="start" x="3526.21" y="-2933.1" font-family="Times,serif" font-size="14.00">86:86</text>
</g>
<!-- id_27516254_DOT_14&#45;&#45;id_27516254_DOT_19 -->
<g id="edge6" class="edge">
<title>id_27516254_DOT_14&#45;&#45;id_27516254_DOT_19</title>
<path fill="none" stroke="black" d="M3537.25,-2916.01C3527.36,-2845 3505.18,-2685.61 3495.32,-2614.8"/>
<text text-anchor="middle" x="3490.03" y="-2768.2" font-family="Times,serif" font-size="14.00">0.051863</text>
</g>
<!-- id_27516254_DOT_18 -->
<g id="node18" class="node">
<title>id_27516254_DOT_18</title>
<polygon fill="chartreuse" stroke="chartreuse" points="1075.58,-500.57 1079.01,-500.76 1082.4,-501.05 1085.75,-501.43 1089.03,-501.91 1092.23,-502.48 1095.35,-503.14 1098.36,-503.89 1101.27,-504.73 1104.05,-505.65 1106.69,-506.66 1109.2,-507.74 1111.55,-508.91 1113.75,-510.14 1115.78,-511.45 1117.64,-512.82 1119.33,-514.25 1120.84,-515.74 1122.16,-517.29 1123.31,-518.89 1124.27,-520.53 1125.05,-522.22 1125.64,-523.94 1126.06,-525.7 1126.3,-527.48 1126.36,-529.28 1126.26,-531.11 1125.98,-532.94 1125.55,-534.79 1124.97,-536.63 1124.24,-538.47 1123.37,-540.31 1122.36,-542.13 1121.23,-543.94 1119.98,-545.72 1118.62,-547.47 1117.16,-549.2 1115.6,-550.88 1113.95,-552.53 1112.23,-554.12 1110.42,-555.67 1108.55,-557.17 1106.62,-558.6 1104.64,-559.97 1102.61,-561.28 1100.54,-562.51 1098.42,-563.67 1096.28,-564.76 1094.11,-565.76 1091.91,-566.68 1089.7,-567.52 1087.46,-568.27 1085.21,-568.93 1082.95,-569.5 1080.68,-569.98 1078.41,-570.37 1076.12,-570.65 1073.84,-570.85 1071.55,-570.94 1069.26,-570.94 1066.97,-570.85 1064.69,-570.65 1062.4,-570.37 1060.13,-569.98 1057.86,-569.5 1055.6,-568.93 1053.35,-568.27 1051.11,-567.52 1048.9,-566.68 1046.7,-565.76 1044.53,-564.76 1042.38,-563.67 1040.27,-562.51 1038.2,-561.28 1036.17,-559.97 1034.18,-558.6 1032.25,-557.17 1030.39,-555.67 1028.58,-554.12 1026.86,-552.53 1025.21,-550.88 1023.65,-549.2 1022.19,-547.47 1020.83,-545.72 1019.58,-543.94 1018.45,-542.13 1017.44,-540.31 1016.57,-538.47 1015.84,-536.63 1015.25,-534.79 1014.82,-532.94 1014.55,-531.11 1014.45,-529.28 1014.51,-527.48 1014.75,-525.7 1015.17,-523.94 1015.76,-522.22 1016.54,-520.53 1017.5,-518.89 1018.65,-517.29 1019.97,-515.74 1021.48,-514.25 1023.17,-512.82 1025.03,-511.45 1027.06,-510.14 1029.26,-508.91 1031.61,-507.74 1034.12,-506.66 1036.76,-505.65 1039.54,-504.73 1042.45,-503.89 1045.46,-503.14 1048.58,-502.48 1051.78,-501.91 1055.06,-501.43 1058.41,-501.05 1061.8,-500.76 1065.23,-500.57 1068.68,-500.47 1072.13,-500.47 1075.58,-500.57"/>
<text text-anchor="start" x="1041.24" y="-545.51" font-family="Times,serif" font-size="14.00">C0029224</text>
<text text-anchor="start" x="1055.24" y="-531.51" font-family="Times,serif" font-size="14.00">gums</text>
<text text-anchor="start" x="1047.46" y="-517.51" font-family="Times,serif" font-size="14.00">147:147</text>
</g>
<!-- id_27516254_DOT_15&#45;&#45;id_27516254_DOT_18 -->
<g id="edge7" class="edge">
<title>id_27516254_DOT_15&#45;&#45;id_27516254_DOT_18</title>
<path fill="none" stroke="black" d="M772.9,-441.16C838.76,-462.09 951.21,-497.83 1017.38,-518.86"/>
<text text-anchor="middle" x="868.89" y="-482.81" font-family="Times,serif" font-size="14.00">0.090396</text>
</g>
<!-- id_27516254_DOT_16&#45;&#45;id_27516254_DOT_18 -->
<g id="edge8" class="edge">
<title>id_27516254_DOT_16&#45;&#45;id_27516254_DOT_18</title>
<path fill="none" stroke="black" d="M1377.93,-601.91C1307.51,-586.75 1187.18,-560.85 1119.81,-546.34"/>
<text text-anchor="middle" x="1222.62" y="-576.93" font-family="Times,serif" font-size="14.00">0.006775</text>
</g>
</g>
</svg>
