<?xml version="1.0" encoding="UTF-8" standalone="no"?>
<!DOCTYPE svg PUBLIC "-//W3C//DTD SVG 1.1//EN"
 "http://www.w3.org/Graphics/SVG/1.1/DTD/svg11.dtd">
<!-- Generated by graphviz version 2.42.3 (20191010.1750)
 -->
<!-- Title: MST Pages: 1 -->
<svg width="3145pt" height="4770pt"
 viewBox="0.00 0.00 3144.87 4770.04" xmlns="http://www.w3.org/2000/svg" xmlns:xlink="http://www.w3.org/1999/xlink">
<g id="graph0" class="graph" transform="scale(1 1) rotate(0) translate(4 4766.04)">
<title>MST</title>
<polygon fill="white" stroke="transparent" points="-4,4 -4,-4766.04 3140.87,-4766.04 3140.87,4 -4,4"/>
<!-- id_27524875_DOT_1 -->
<g id="node1" class="node">
<title>id_27524875_DOT_1</title>
<polygon fill="aquamarine" stroke="aquamarine" points="2394.25,-2762.41 2397.68,-2762.6 2401.07,-2762.89 2404.41,-2763.28 2407.69,-2763.75 2410.9,-2764.32 2414.02,-2764.99 2417.03,-2765.74 2419.93,-2766.57 2422.71,-2767.5 2425.36,-2768.5 2427.87,-2769.59 2430.22,-2770.75 2432.42,-2771.98 2434.45,-2773.29 2436.31,-2774.66 2438,-2776.09 2439.5,-2777.59 2440.83,-2779.13 2441.98,-2780.73 2442.94,-2782.38 2443.71,-2784.06 2444.31,-2785.78 2444.73,-2787.54 2444.96,-2789.32 2445.03,-2791.13 2444.92,-2792.95 2444.65,-2794.78 2444.22,-2796.63 2443.64,-2798.47 2442.91,-2800.32 2442.04,-2802.15 2441.03,-2803.97 2439.9,-2805.78 2438.65,-2807.56 2437.29,-2809.32 2435.83,-2811.04 2434.27,-2812.72 2432.62,-2814.37 2430.89,-2815.97 2429.09,-2817.51 2427.22,-2819.01 2425.29,-2820.44 2423.31,-2821.81 2421.28,-2823.12 2419.2,-2824.35 2417.09,-2825.51 2414.95,-2826.6 2412.78,-2827.6 2410.58,-2828.53 2408.36,-2829.36 2406.13,-2830.11 2403.88,-2830.78 2401.62,-2831.35 2399.35,-2831.82 2397.07,-2832.21 2394.79,-2832.5 2392.5,-2832.69 2390.22,-2832.79 2387.93,-2832.79 2385.64,-2832.69 2383.35,-2832.5 2381.07,-2832.21 2378.79,-2831.82 2376.52,-2831.35 2374.26,-2830.78 2372.01,-2830.11 2369.78,-2829.36 2367.56,-2828.53 2365.37,-2827.6 2363.2,-2826.6 2361.05,-2825.51 2358.94,-2824.35 2356.87,-2823.12 2354.83,-2821.81 2352.85,-2820.44 2350.92,-2819.01 2349.05,-2817.51 2347.25,-2815.97 2345.52,-2814.37 2343.87,-2812.72 2342.32,-2811.04 2340.85,-2809.32 2339.49,-2807.56 2338.24,-2805.78 2337.11,-2803.97 2336.11,-2802.15 2335.24,-2800.32 2334.51,-2798.47 2333.92,-2796.63 2333.49,-2794.78 2333.22,-2792.95 2333.11,-2791.13 2333.18,-2789.32 2333.42,-2787.54 2333.83,-2785.78 2334.43,-2784.06 2335.21,-2782.38 2336.17,-2780.73 2337.31,-2779.13 2338.64,-2777.59 2340.15,-2776.09 2341.83,-2774.66 2343.7,-2773.29 2345.73,-2771.98 2347.92,-2770.75 2350.28,-2769.59 2352.78,-2768.5 2355.43,-2767.5 2358.21,-2766.57 2361.11,-2765.74 2364.13,-2764.99 2367.24,-2764.32 2370.45,-2763.75 2373.73,-2763.28 2377.07,-2762.89 2380.47,-2762.6 2383.89,-2762.41 2387.34,-2762.31 2390.8,-2762.31 2394.25,-2762.41"/>
<text text-anchor="start" x="2359.9" y="-2807.35" font-family="Times,serif" font-size="14.00">C0543467</text>
<text text-anchor="start" x="2365.87" y="-2793.35" font-family="Times,serif" font-size="14.00">Surgical</text>
<text text-anchor="start" x="2380.13" y="-2779.35" font-family="Times,serif" font-size="14.00">0:0</text>
</g>
<!-- id_27524875_DOT_10 -->
<g id="node10" class="node">
<title>id_27524875_DOT_10</title>
<polygon fill="crimson" stroke="crimson" points="2744.93,-2983.19 2748.35,-2983.39 2751.75,-2983.68 2755.09,-2984.06 2758.37,-2984.54 2761.58,-2985.11 2764.69,-2985.77 2767.71,-2986.52 2770.61,-2987.36 2773.39,-2988.28 2776.04,-2989.28 2778.54,-2990.37 2780.89,-2991.53 2783.09,-2992.77 2785.12,-2994.07 2786.98,-2995.44 2788.67,-2996.88 2790.18,-2998.37 2791.51,-2999.92 2792.65,-3001.51 2793.61,-3003.16 2794.39,-3004.84 2794.99,-3006.57 2795.4,-3008.32 2795.64,-3010.1 2795.7,-3011.91 2795.6,-3013.73 2795.33,-3015.57 2794.9,-3017.41 2794.31,-3019.26 2793.58,-3021.1 2792.71,-3022.93 2791.71,-3024.76 2790.58,-3026.56 2789.33,-3028.34 2787.97,-3030.1 2786.5,-3031.82 2784.94,-3033.51 2783.3,-3035.15 2781.57,-3036.75 2779.77,-3038.3 2777.9,-3039.79 2775.97,-3041.22 2773.98,-3042.6 2771.95,-3043.9 2769.88,-3045.14 2767.77,-3046.3 2765.62,-3047.38 2763.45,-3048.39 2761.25,-3049.31 2759.04,-3050.15 2756.8,-3050.9 2754.56,-3051.56 2752.3,-3052.13 2750.03,-3052.61 2747.75,-3052.99 2745.47,-3053.28 2743.18,-3053.47 2740.89,-3053.57 2738.6,-3053.57 2736.31,-3053.47 2734.03,-3053.28 2731.75,-3052.99 2729.47,-3052.61 2727.2,-3052.13 2724.94,-3051.56 2722.69,-3050.9 2720.46,-3050.15 2718.24,-3049.31 2716.04,-3048.39 2713.87,-3047.38 2711.73,-3046.3 2709.62,-3045.14 2707.54,-3043.9 2705.51,-3042.6 2703.53,-3041.22 2701.6,-3039.79 2699.73,-3038.3 2697.93,-3036.75 2696.2,-3035.15 2694.55,-3033.51 2692.99,-3031.82 2691.53,-3030.1 2690.17,-3028.34 2688.92,-3026.56 2687.79,-3024.76 2686.78,-3022.93 2685.91,-3021.1 2685.18,-3019.26 2684.6,-3017.41 2684.17,-3015.57 2683.9,-3013.73 2683.79,-3011.91 2683.85,-3010.1 2684.09,-3008.32 2684.51,-3006.57 2685.1,-3004.84 2685.88,-3003.16 2686.84,-3001.51 2687.99,-2999.92 2689.32,-2998.37 2690.82,-2996.88 2692.51,-2995.44 2694.37,-2994.07 2696.4,-2992.77 2698.6,-2991.53 2700.95,-2990.37 2703.46,-2989.28 2706.1,-2988.28 2708.88,-2987.36 2711.79,-2986.52 2714.8,-2985.77 2717.92,-2985.11 2721.12,-2984.54 2724.4,-2984.06 2727.75,-2983.68 2731.14,-2983.39 2734.57,-2983.19 2738.02,-2983.1 2741.48,-2983.1 2744.93,-2983.19"/>
<text text-anchor="start" x="2710.58" y="-3028.13" font-family="Times,serif" font-size="14.00">C0006826</text>
<text text-anchor="start" x="2721.49" y="-3014.13" font-family="Times,serif" font-size="14.00">cancer</text>
<text text-anchor="start" x="2723.8" y="-3000.13" font-family="Times,serif" font-size="14.00">41:41</text>
</g>
<!-- id_27524875_DOT_1&#45;&#45;id_27524875_DOT_10 -->
<g id="edge11" class="edge">
<title>id_27524875_DOT_1&#45;&#45;id_27524875_DOT_10</title>
<path fill="none" stroke="black" stroke-dasharray="1,5" d="M2425.61,-2820.55C2491.13,-2861.8 2628.23,-2948.12 2697.61,-2991.8"/>
<text text-anchor="middle" x="2535.36" y="-2908.98" font-family="Times,serif" font-size="14.00">0.856555</text>
</g>
<!-- id_27524875_DOT_28 -->
<g id="node28" class="node">
<title>id_27524875_DOT_28</title>
<polygon fill="cadetblue" stroke="cadetblue" points="1999.85,-2535.41 2005.7,-2535.6 2011.48,-2535.89 2017.19,-2536.28 2022.78,-2536.75 2028.25,-2537.32 2033.57,-2537.99 2038.71,-2538.74 2043.66,-2539.57 2048.41,-2540.5 2052.92,-2541.5 2057.2,-2542.59 2061.21,-2543.75 2064.96,-2544.98 2068.42,-2546.29 2071.6,-2547.66 2074.48,-2549.09 2077.05,-2550.59 2079.31,-2552.13 2081.27,-2553.73 2082.91,-2555.37 2084.23,-2557.06 2085.25,-2558.78 2085.96,-2560.54 2086.37,-2562.32 2086.48,-2564.13 2086.29,-2565.95 2085.83,-2567.78 2085.1,-2569.63 2084.1,-2571.47 2082.86,-2573.31 2081.37,-2575.15 2079.66,-2576.97 2077.73,-2578.78 2075.6,-2580.56 2073.28,-2582.32 2070.78,-2584.04 2068.12,-2585.72 2065.31,-2587.37 2062.36,-2588.97 2059.29,-2590.51 2056.1,-2592.01 2052.81,-2593.44 2049.42,-2594.81 2045.96,-2596.12 2042.42,-2597.35 2038.82,-2598.51 2035.16,-2599.6 2031.45,-2600.6 2027.71,-2601.53 2023.92,-2602.36 2020.11,-2603.11 2016.28,-2603.78 2012.42,-2604.35 2008.55,-2604.82 2004.66,-2605.21 2000.77,-2605.5 1996.87,-2605.69 1992.97,-2605.78 1989.06,-2605.78 1985.16,-2605.69 1981.26,-2605.5 1977.36,-2605.21 1973.48,-2604.82 1969.61,-2604.35 1965.75,-2603.78 1961.91,-2603.11 1958.1,-2602.36 1954.32,-2601.53 1950.57,-2600.6 1946.87,-2599.6 1943.21,-2598.51 1939.61,-2597.35 1936.07,-2596.12 1932.6,-2594.81 1929.22,-2593.44 1925.93,-2592.01 1922.74,-2590.51 1919.67,-2588.97 1916.72,-2587.37 1913.91,-2585.72 1911.25,-2584.04 1908.75,-2582.32 1906.43,-2580.56 1904.3,-2578.78 1902.37,-2576.97 1900.66,-2575.15 1899.17,-2573.31 1897.92,-2571.47 1896.93,-2569.63 1896.19,-2567.78 1895.73,-2565.95 1895.55,-2564.13 1895.66,-2562.32 1896.07,-2560.54 1896.78,-2558.78 1897.79,-2557.06 1899.12,-2555.37 1900.76,-2553.73 1902.71,-2552.13 1904.98,-2550.59 1907.55,-2549.09 1910.43,-2547.66 1913.6,-2546.29 1917.07,-2544.98 1920.81,-2543.75 1924.83,-2542.59 1929.1,-2541.5 1933.62,-2540.5 1938.36,-2539.57 1943.31,-2538.74 1948.46,-2537.99 1953.77,-2537.32 1959.24,-2536.75 1964.84,-2536.28 1970.54,-2535.89 1976.33,-2535.6 1982.18,-2535.41 1988.06,-2535.31 1993.96,-2535.31 1999.85,-2535.41"/>
<text text-anchor="start" x="1962.1" y="-2580.35" font-family="Times,serif" font-size="14.00">C0011923</text>
<text text-anchor="start" x="1935.61" y="-2566.35" font-family="Times,serif" font-size="14.00">ratiometric imaging</text>
<text text-anchor="start" x="1968.07" y="-2552.35" font-family="Times,serif" font-size="14.00">200:201</text>
</g>
<!-- id_27524875_DOT_1&#45;&#45;id_27524875_DOT_28 -->
<g id="edge12" class="edge">
<title>id_27524875_DOT_1&#45;&#45;id_27524875_DOT_28</title>
<path fill="none" stroke="black" stroke-dasharray="1,5" d="M2344.95,-2772.39C2269.85,-2729.56 2117.75,-2642.82 2039.67,-2598.3"/>
<text text-anchor="middle" x="2166.06" y="-2688.14" font-family="Times,serif" font-size="14.00">0.850729</text>
</g>
<!-- id_27524875_DOT_2 -->
<g id="node2" class="node">
<title>id_27524875_DOT_2</title>
<polygon fill="bisque" stroke="bisque" points="1135.58,-2215.42 1139.01,-2215.61 1142.4,-2215.9 1145.74,-2216.28 1149.02,-2216.76 1152.23,-2217.33 1155.34,-2217.99 1158.36,-2218.74 1161.26,-2219.58 1164.04,-2220.5 1166.69,-2221.51 1169.19,-2222.59 1171.55,-2223.75 1173.74,-2224.99 1175.77,-2226.29 1177.64,-2227.67 1179.32,-2229.1 1180.83,-2230.59 1182.16,-2232.14 1183.3,-2233.74 1184.26,-2235.38 1185.04,-2237.07 1185.64,-2238.79 1186.05,-2240.55 1186.29,-2242.33 1186.36,-2244.13 1186.25,-2245.96 1185.98,-2247.79 1185.55,-2249.63 1184.96,-2251.48 1184.23,-2253.32 1183.36,-2255.16 1182.36,-2256.98 1181.23,-2258.79 1179.98,-2260.57 1178.62,-2262.32 1177.15,-2264.05 1175.6,-2265.73 1173.95,-2267.38 1172.22,-2268.97 1170.42,-2270.52 1168.55,-2272.01 1166.62,-2273.45 1164.64,-2274.82 1162.6,-2276.12 1160.53,-2277.36 1158.42,-2278.52 1156.27,-2279.61 1154.1,-2280.61 1151.91,-2281.53 1149.69,-2282.37 1147.46,-2283.12 1145.21,-2283.78 1142.95,-2284.35 1140.68,-2284.83 1138.4,-2285.21 1136.12,-2285.5 1133.83,-2285.7 1131.54,-2285.79 1129.25,-2285.79 1126.97,-2285.7 1124.68,-2285.5 1122.4,-2285.21 1120.12,-2284.83 1117.85,-2284.35 1115.59,-2283.78 1113.34,-2283.12 1111.11,-2282.37 1108.89,-2281.53 1106.69,-2280.61 1104.52,-2279.61 1102.38,-2278.52 1100.27,-2277.36 1098.19,-2276.12 1096.16,-2274.82 1094.18,-2273.45 1092.25,-2272.01 1090.38,-2270.52 1088.58,-2268.97 1086.85,-2267.38 1085.2,-2265.73 1083.64,-2264.05 1082.18,-2262.32 1080.82,-2260.57 1079.57,-2258.79 1078.44,-2256.98 1077.44,-2255.16 1076.56,-2253.32 1075.83,-2251.48 1075.25,-2249.63 1074.82,-2247.79 1074.55,-2245.96 1074.44,-2244.13 1074.51,-2242.33 1074.74,-2240.55 1075.16,-2238.79 1075.76,-2237.07 1076.53,-2235.38 1077.49,-2233.74 1078.64,-2232.14 1079.97,-2230.59 1081.48,-2229.1 1083.16,-2227.67 1085.02,-2226.29 1087.05,-2224.99 1089.25,-2223.75 1091.61,-2222.59 1094.11,-2221.51 1096.76,-2220.5 1099.54,-2219.58 1102.44,-2218.74 1105.45,-2217.99 1108.57,-2217.33 1111.78,-2216.76 1115.06,-2216.28 1118.4,-2215.9 1121.79,-2215.61 1125.22,-2215.42 1128.67,-2215.32 1132.13,-2215.32 1135.58,-2215.42"/>
<text text-anchor="start" x="1101.23" y="-2260.36" font-family="Times,serif" font-size="14.00">C1959633</text>
<text text-anchor="start" x="1103.58" y="-2246.36" font-family="Times,serif" font-size="14.00">Guidance</text>
<text text-anchor="start" x="1121.45" y="-2232.36" font-family="Times,serif" font-size="14.00">1:1</text>
</g>
<!-- id_27524875_DOT_18 -->
<g id="node18" class="node">
<title>id_27524875_DOT_18</title>
<polygon fill="darkred" stroke="darkred" points="1183.96,-2586.36 1187.39,-2586.55 1190.78,-2586.84 1194.13,-2587.22 1197.41,-2587.7 1200.61,-2588.27 1203.73,-2588.93 1206.74,-2589.68 1209.65,-2590.52 1212.43,-2591.44 1215.07,-2592.45 1217.58,-2593.53 1219.93,-2594.7 1222.13,-2595.93 1224.16,-2597.24 1226.02,-2598.61 1227.71,-2600.04 1229.22,-2601.53 1230.54,-2603.08 1231.69,-2604.68 1232.65,-2606.32 1233.43,-2608.01 1234.02,-2609.73 1234.44,-2611.49 1234.68,-2613.27 1234.74,-2615.07 1234.64,-2616.9 1234.36,-2618.73 1233.93,-2620.58 1233.35,-2622.42 1232.62,-2624.26 1231.75,-2626.1 1230.74,-2627.92 1229.61,-2629.73 1228.36,-2631.51 1227,-2633.26 1225.54,-2634.99 1223.98,-2636.67 1222.33,-2638.32 1220.61,-2639.91 1218.8,-2641.46 1216.93,-2642.96 1215,-2644.39 1213.02,-2645.76 1210.99,-2647.07 1208.92,-2648.3 1206.8,-2649.46 1204.66,-2650.55 1202.49,-2651.55 1200.29,-2652.47 1198.08,-2653.31 1195.84,-2654.06 1193.59,-2654.72 1191.33,-2655.29 1189.06,-2655.77 1186.79,-2656.16 1184.5,-2656.44 1182.22,-2656.64 1179.93,-2656.73 1177.64,-2656.73 1175.35,-2656.64 1173.06,-2656.44 1170.78,-2656.16 1168.51,-2655.77 1166.24,-2655.29 1163.98,-2654.72 1161.73,-2654.06 1159.49,-2653.31 1157.28,-2652.47 1155.08,-2651.55 1152.91,-2650.55 1150.76,-2649.46 1148.65,-2648.3 1146.58,-2647.07 1144.55,-2645.76 1142.56,-2644.39 1140.63,-2642.96 1138.77,-2641.46 1136.96,-2639.91 1135.23,-2638.32 1133.59,-2636.67 1132.03,-2634.99 1130.56,-2633.26 1129.2,-2631.51 1127.96,-2629.73 1126.83,-2627.92 1125.82,-2626.1 1124.95,-2624.26 1124.22,-2622.42 1123.63,-2620.58 1123.2,-2618.73 1122.93,-2616.9 1122.83,-2615.07 1122.89,-2613.27 1123.13,-2611.49 1123.55,-2609.73 1124.14,-2608.01 1124.92,-2606.32 1125.88,-2604.68 1127.03,-2603.08 1128.35,-2601.53 1129.86,-2600.04 1131.55,-2598.61 1133.41,-2597.24 1135.44,-2595.93 1137.64,-2594.7 1139.99,-2593.53 1142.5,-2592.45 1145.14,-2591.44 1147.92,-2590.52 1150.83,-2589.68 1153.84,-2588.93 1156.96,-2588.27 1160.16,-2587.7 1163.44,-2587.22 1166.79,-2586.84 1170.18,-2586.55 1173.61,-2586.36 1177.06,-2586.26 1180.51,-2586.26 1183.96,-2586.36"/>
<text text-anchor="start" x="1149.62" y="-2631.3" font-family="Times,serif" font-size="14.00">C0282443</text>
<text text-anchor="start" x="1159.74" y="-2617.3" font-family="Times,serif" font-size="14.00">review</text>
<text text-anchor="start" x="1155.84" y="-2603.3" font-family="Times,serif" font-size="14.00">104:104</text>
</g>
<!-- id_27524875_DOT_2&#45;&#45;id_27524875_DOT_18 -->
<g id="edge13" class="edge">
<title>id_27524875_DOT_2&#45;&#45;id_27524875_DOT_18</title>
<path fill="none" stroke="black" stroke-dasharray="1,5" d="M1134.99,-2285.79C1144.23,-2356.59 1164.94,-2515.4 1174.18,-2586.23"/>
<text text-anchor="middle" x="1128.34" y="-2438.81" font-family="Times,serif" font-size="14.00">0.718695</text>
</g>
<!-- id_27524875_DOT_3 -->
<g id="node3" class="node">
<title>id_27524875_DOT_3</title>
<polygon fill="blue" stroke="blue" points="2613.05,-670.27 2622.06,-670.47 2630.98,-670.76 2639.77,-671.14 2648.4,-671.62 2656.83,-672.19 2665.02,-672.85 2672.94,-673.6 2680.58,-674.44 2687.89,-675.36 2694.84,-676.36 2701.43,-677.45 2707.62,-678.61 2713.39,-679.84 2718.73,-681.15 2723.63,-682.52 2728.06,-683.96 2732.03,-685.45 2735.52,-687 2738.53,-688.59 2741.05,-690.24 2743.1,-691.92 2744.67,-693.65 2745.76,-695.4 2746.38,-697.18 2746.55,-698.99 2746.27,-700.81 2745.56,-702.65 2744.43,-704.49 2742.9,-706.34 2740.98,-708.18 2738.68,-710.01 2736.04,-711.84 2733.07,-713.64 2729.79,-715.42 2726.21,-717.18 2722.36,-718.9 2718.26,-720.59 2713.93,-722.23 2709.39,-723.83 2704.65,-725.38 2699.74,-726.87 2694.66,-728.3 2689.45,-729.68 2684.11,-730.98 2678.66,-732.22 2673.1,-733.38 2667.47,-734.46 2661.76,-735.47 2655.98,-736.39 2650.15,-737.23 2644.28,-737.98 2638.37,-738.64 2632.43,-739.21 2626.46,-739.69 2620.47,-740.07 2614.47,-740.36 2608.46,-740.55 2602.45,-740.65 2596.43,-740.65 2590.41,-740.55 2584.4,-740.36 2578.4,-740.07 2572.41,-739.69 2566.45,-739.21 2560.5,-738.64 2554.59,-737.98 2548.72,-737.23 2542.89,-736.39 2537.12,-735.47 2531.41,-734.46 2525.77,-733.38 2520.22,-732.22 2514.77,-730.98 2509.43,-729.68 2504.21,-728.3 2499.14,-726.87 2494.22,-725.38 2489.49,-723.83 2484.94,-722.23 2480.61,-720.59 2476.51,-718.9 2472.66,-717.18 2469.09,-715.42 2465.8,-713.64 2462.83,-711.84 2460.19,-710.01 2457.9,-708.18 2455.98,-706.34 2454.44,-704.49 2453.31,-702.65 2452.6,-700.81 2452.32,-698.99 2452.49,-697.18 2453.12,-695.4 2454.21,-693.65 2455.78,-691.92 2457.82,-690.24 2460.35,-688.59 2463.36,-687 2466.85,-685.45 2470.81,-683.96 2475.25,-682.52 2480.14,-681.15 2485.48,-679.84 2491.26,-678.61 2497.44,-677.45 2504.03,-676.36 2510.99,-675.36 2518.3,-674.44 2525.93,-673.6 2533.86,-672.85 2542.05,-672.19 2550.47,-671.62 2559.1,-671.14 2567.89,-670.76 2576.81,-670.47 2585.82,-670.27 2594.89,-670.18 2603.98,-670.18 2613.05,-670.27"/>
<text text-anchor="start" x="2570.27" y="-715.21" font-family="Times,serif" font-size="14.00">C1537028</text>
<text text-anchor="start" x="2509.63" y="-701.21" font-family="Times,serif" font-size="14.00">Multiplexed Molecular Imaging</text>
<text text-anchor="start" x="2590.49" y="-687.21" font-family="Times,serif" font-size="14.00">3:5</text>
</g>
<!-- id_27524875_DOT_6 -->
<g id="node6" class="node">
<title>id_27524875_DOT_6</title>
<polygon fill="cadetblue" stroke="cadetblue" points="2472.46,-1019.59 2475.87,-1019.79 2479.25,-1020.08 2482.58,-1020.46 2485.84,-1020.94 2489.03,-1021.51 2492.13,-1022.17 2495.13,-1022.92 2498.02,-1023.76 2500.79,-1024.68 2503.42,-1025.69 2505.91,-1026.77 2508.26,-1027.93 2510.44,-1029.17 2512.46,-1030.47 2514.32,-1031.84 2515.99,-1033.28 2517.5,-1034.77 2518.82,-1036.32 2519.96,-1037.92 2520.91,-1039.56 2521.69,-1041.25 2522.28,-1042.97 2522.69,-1044.72 2522.93,-1046.51 2522.99,-1048.31 2522.89,-1050.13 2522.62,-1051.97 2522.19,-1053.81 2521.61,-1055.66 2520.88,-1057.5 2520.01,-1059.33 2519.01,-1061.16 2517.89,-1062.96 2516.65,-1064.74 2515.29,-1066.5 2513.84,-1068.22 2512.29,-1069.91 2510.65,-1071.55 2508.93,-1073.15 2507.13,-1074.7 2505.27,-1076.19 2503.35,-1077.63 2501.38,-1079 2499.36,-1080.3 2497.29,-1081.54 2495.19,-1082.7 2493.06,-1083.78 2490.9,-1084.79 2488.71,-1085.71 2486.51,-1086.55 2484.28,-1087.3 2482.04,-1087.96 2479.8,-1088.53 2477.54,-1089.01 2475.27,-1089.39 2473,-1089.68 2470.72,-1089.87 2468.45,-1089.97 2466.17,-1089.97 2463.89,-1089.87 2461.62,-1089.68 2459.35,-1089.39 2457.08,-1089.01 2454.82,-1088.53 2452.57,-1087.96 2450.33,-1087.3 2448.11,-1086.55 2445.91,-1085.71 2443.72,-1084.79 2441.56,-1083.78 2439.42,-1082.7 2437.32,-1081.54 2435.26,-1080.3 2433.24,-1079 2431.26,-1077.63 2429.34,-1076.19 2427.48,-1074.7 2425.69,-1073.15 2423.97,-1071.55 2422.33,-1069.91 2420.78,-1068.22 2419.32,-1066.5 2417.97,-1064.74 2416.73,-1062.96 2415.6,-1061.16 2414.6,-1059.33 2413.73,-1057.5 2413.01,-1055.66 2412.43,-1053.81 2412,-1051.97 2411.73,-1050.13 2411.62,-1048.31 2411.69,-1046.51 2411.92,-1044.72 2412.34,-1042.97 2412.93,-1041.25 2413.71,-1039.56 2414.66,-1037.92 2415.8,-1036.32 2417.12,-1034.77 2418.62,-1033.28 2420.3,-1031.84 2422.15,-1030.47 2424.17,-1029.17 2426.36,-1027.93 2428.7,-1026.77 2431.2,-1025.69 2433.83,-1024.68 2436.6,-1023.76 2439.49,-1022.92 2442.49,-1022.17 2445.59,-1021.51 2448.78,-1020.94 2452.04,-1020.46 2455.37,-1020.08 2458.74,-1019.79 2462.16,-1019.59 2465.59,-1019.5 2469.03,-1019.5 2472.46,-1019.59"/>
<text text-anchor="start" x="2438.4" y="-1064.53" font-family="Times,serif" font-size="14.00">C0011923</text>
<text text-anchor="start" x="2444.37" y="-1050.53" font-family="Times,serif" font-size="14.00">imaging</text>
<text text-anchor="start" x="2451.36" y="-1036.53" font-family="Times,serif" font-size="14.00">21:21</text>
</g>
<!-- id_27524875_DOT_3&#45;&#45;id_27524875_DOT_6 -->
<g id="edge1" class="edge">
<title>id_27524875_DOT_3&#45;&#45;id_27524875_DOT_6</title>
<path fill="none" stroke="black" d="M2586.16,-740.51C2560.77,-807.64 2505.61,-953.48 2480.38,-1020.18"/>
<text text-anchor="middle" x="2507.02" y="-883.14" font-family="Times,serif" font-size="14.00">0.221006</text>
</g>
<!-- id_27524875_DOT_14 -->
<g id="node14" class="node">
<title>id_27524875_DOT_14</title>
<polygon fill="blue" stroke="blue" points="2756.23,-332.87 2761.82,-333.07 2767.36,-333.35 2772.81,-333.74 2778.16,-334.22 2783.39,-334.79 2788.47,-335.45 2793.39,-336.2 2798.12,-337.04 2802.66,-337.96 2806.97,-338.96 2811.06,-340.05 2814.9,-341.21 2818.48,-342.44 2821.79,-343.75 2824.83,-345.12 2827.58,-346.55 2830.04,-348.05 2832.21,-349.59 2834.07,-351.19 2835.64,-352.84 2836.91,-354.52 2837.88,-356.25 2838.56,-358 2838.95,-359.78 2839.05,-361.59 2838.88,-363.41 2838.44,-365.25 2837.74,-367.09 2836.78,-368.93 2835.59,-370.78 2834.17,-372.61 2832.53,-374.43 2830.69,-376.24 2828.65,-378.02 2826.43,-379.78 2824.05,-381.5 2821.5,-383.19 2818.82,-384.83 2816,-386.43 2813.06,-387.98 2810.01,-389.47 2806.86,-390.9 2803.63,-392.27 2800.31,-393.58 2796.93,-394.81 2793.49,-395.97 2789.99,-397.06 2786.45,-398.06 2782.86,-398.99 2779.25,-399.83 2775.61,-400.58 2771.94,-401.24 2768.25,-401.81 2764.55,-402.28 2760.84,-402.67 2757.11,-402.96 2753.38,-403.15 2749.65,-403.25 2745.92,-403.25 2742.19,-403.15 2738.46,-402.96 2734.73,-402.67 2731.02,-402.28 2727.32,-401.81 2723.63,-401.24 2719.96,-400.58 2716.32,-399.83 2712.71,-398.99 2709.12,-398.06 2705.58,-397.06 2702.08,-395.97 2698.64,-394.81 2695.26,-393.58 2691.94,-392.27 2688.71,-390.9 2685.56,-389.47 2682.51,-387.98 2679.57,-386.43 2676.75,-384.83 2674.07,-383.19 2671.52,-381.5 2669.14,-379.78 2666.92,-378.02 2664.88,-376.24 2663.04,-374.43 2661.4,-372.61 2659.98,-370.78 2658.79,-368.93 2657.83,-367.09 2657.13,-365.25 2656.69,-363.41 2656.52,-361.59 2656.62,-359.78 2657.01,-358 2657.69,-356.25 2658.66,-354.52 2659.93,-352.84 2661.5,-351.19 2663.36,-349.59 2665.53,-348.05 2667.99,-346.55 2670.74,-345.12 2673.78,-343.75 2677.09,-342.44 2680.67,-341.21 2684.51,-340.05 2688.6,-338.96 2692.91,-337.96 2697.45,-337.04 2702.18,-336.2 2707.1,-335.45 2712.18,-334.79 2717.41,-334.22 2722.76,-333.74 2728.21,-333.35 2733.75,-333.07 2739.34,-332.87 2744.97,-332.78 2750.6,-332.78 2756.23,-332.87"/>
<text text-anchor="start" x="2718.62" y="-377.81" font-family="Times,serif" font-size="14.00">C1537028</text>
<text text-anchor="start" x="2695.11" y="-363.81" font-family="Times,serif" font-size="14.00">molecular imaging</text>
<text text-anchor="start" x="2731.84" y="-349.81" font-family="Times,serif" font-size="14.00">62:63</text>
</g>
<!-- id_27524875_DOT_3&#45;&#45;id_27524875_DOT_14 -->
<g id="edge2" class="edge">
<title>id_27524875_DOT_3&#45;&#45;id_27524875_DOT_14</title>
<path fill="none" stroke="black" d="M2614.89,-670.26C2643.46,-605.28 2704.21,-467.12 2732.59,-402.58"/>
<text text-anchor="middle" x="2647.49" y="-539.22" font-family="Times,serif" font-size="14.00">0.022912</text>
</g>
<!-- id_27524875_DOT_4 -->
<g id="node4" class="node">
<title>id_27524875_DOT_4</title>
<polygon fill="blueviolet" stroke="blueviolet" points="1237.36,-3947.69 1240.79,-3947.89 1244.19,-3948.18 1247.53,-3948.56 1250.81,-3949.04 1254.01,-3949.61 1257.13,-3950.27 1260.15,-3951.02 1263.05,-3951.86 1265.83,-3952.78 1268.48,-3953.78 1270.98,-3954.87 1273.33,-3956.03 1275.53,-3957.26 1277.56,-3958.57 1279.42,-3959.94 1281.11,-3961.38 1282.62,-3962.87 1283.95,-3964.42 1285.09,-3966.01 1286.05,-3967.66 1286.83,-3969.34 1287.43,-3971.07 1287.84,-3972.82 1288.08,-3974.6 1288.14,-3976.41 1288.04,-3978.23 1287.77,-3980.07 1287.34,-3981.91 1286.75,-3983.76 1286.02,-3985.6 1285.15,-3987.43 1284.15,-3989.26 1283.02,-3991.06 1281.77,-3992.84 1280.41,-3994.6 1278.94,-3996.32 1277.38,-3998.01 1275.74,-3999.65 1274.01,-4001.25 1272.21,-4002.8 1270.34,-4004.29 1268.41,-4005.72 1266.42,-4007.1 1264.39,-4008.4 1262.32,-4009.63 1260.21,-4010.8 1258.06,-4011.88 1255.89,-4012.89 1253.69,-4013.81 1251.48,-4014.65 1249.24,-4015.4 1247,-4016.06 1244.74,-4016.63 1242.47,-4017.11 1240.19,-4017.49 1237.91,-4017.78 1235.62,-4017.97 1233.33,-4018.07 1231.04,-4018.07 1228.75,-4017.97 1226.47,-4017.78 1224.19,-4017.49 1221.91,-4017.11 1219.64,-4016.63 1217.38,-4016.06 1215.13,-4015.4 1212.9,-4014.65 1210.68,-4013.81 1208.48,-4012.89 1206.31,-4011.88 1204.17,-4010.8 1202.06,-4009.63 1199.98,-4008.4 1197.95,-4007.1 1195.97,-4005.72 1194.04,-4004.29 1192.17,-4002.8 1190.37,-4001.25 1188.64,-3999.65 1186.99,-3998.01 1185.43,-3996.32 1183.97,-3994.6 1182.61,-3992.84 1181.36,-3991.06 1180.23,-3989.26 1179.22,-3987.43 1178.35,-3985.6 1177.62,-3983.76 1177.04,-3981.91 1176.61,-3980.07 1176.34,-3978.23 1176.23,-3976.41 1176.29,-3974.6 1176.53,-3972.82 1176.95,-3971.07 1177.54,-3969.34 1178.32,-3967.66 1179.28,-3966.01 1180.43,-3964.42 1181.75,-3962.87 1183.26,-3961.38 1184.95,-3959.94 1186.81,-3958.57 1188.84,-3957.26 1191.04,-3956.03 1193.39,-3954.87 1195.9,-3953.78 1198.54,-3952.78 1201.32,-3951.86 1204.23,-3951.02 1207.24,-3950.27 1210.36,-3949.61 1213.56,-3949.04 1216.84,-3948.56 1220.19,-3948.18 1223.58,-3947.89 1227.01,-3947.69 1230.46,-3947.6 1233.92,-3947.6 1237.36,-3947.69"/>
<text text-anchor="start" x="1203.02" y="-3992.63" font-family="Times,serif" font-size="14.00">C0040300</text>
<text text-anchor="start" x="1211.43" y="-3978.63" font-family="Times,serif" font-size="14.00">Tissues</text>
<text text-anchor="start" x="1223.24" y="-3964.63" font-family="Times,serif" font-size="14.00">8:8</text>
</g>
<!-- id_27524875_DOT_12 -->
<g id="node12" class="node">
<title>id_27524875_DOT_12</title>
<polygon fill="darkgreen" stroke="darkgreen" points="1023.62,-4294.37 1027.26,-4294.56 1030.87,-4294.85 1034.42,-4295.23 1037.9,-4295.71 1041.31,-4296.28 1044.62,-4296.94 1047.82,-4297.69 1050.91,-4298.53 1053.86,-4299.45 1056.67,-4300.46 1059.33,-4301.54 1061.83,-4302.7 1064.17,-4303.94 1066.33,-4305.24 1068.3,-4306.61 1070.1,-4308.05 1071.7,-4309.54 1073.11,-4311.09 1074.32,-4312.69 1075.34,-4314.33 1076.17,-4316.02 1076.8,-4317.74 1077.25,-4319.49 1077.5,-4321.28 1077.57,-4323.08 1077.45,-4324.9 1077.17,-4326.74 1076.71,-4328.58 1076.09,-4330.43 1075.31,-4332.27 1074.39,-4334.1 1073.32,-4335.93 1072.12,-4337.73 1070.79,-4339.51 1069.35,-4341.27 1067.79,-4342.99 1066.14,-4344.68 1064.39,-4346.32 1062.55,-4347.92 1060.63,-4349.47 1058.65,-4350.96 1056.6,-4352.4 1054.49,-4353.77 1052.33,-4355.07 1050.13,-4356.31 1047.89,-4357.47 1045.61,-4358.55 1043.3,-4359.56 1040.97,-4360.48 1038.61,-4361.32 1036.24,-4362.07 1033.85,-4362.73 1031.45,-4363.3 1029.04,-4363.78 1026.62,-4364.16 1024.2,-4364.45 1021.77,-4364.64 1019.34,-4364.74 1016.9,-4364.74 1014.47,-4364.64 1012.04,-4364.45 1009.62,-4364.16 1007.2,-4363.78 1004.79,-4363.3 1002.39,-4362.73 1000,-4362.07 997.63,-4361.32 995.27,-4360.48 992.94,-4359.56 990.63,-4358.55 988.35,-4357.47 986.11,-4356.31 983.91,-4355.07 981.75,-4353.77 979.64,-4352.4 977.59,-4350.96 975.6,-4349.47 973.69,-4347.92 971.85,-4346.32 970.1,-4344.68 968.45,-4342.99 966.89,-4341.27 965.45,-4339.51 964.12,-4337.73 962.92,-4335.93 961.85,-4334.1 960.93,-4332.27 960.15,-4330.43 959.53,-4328.58 959.07,-4326.74 958.79,-4324.9 958.67,-4323.08 958.74,-4321.28 958.99,-4319.49 959.44,-4317.74 960.07,-4316.02 960.89,-4314.33 961.92,-4312.69 963.13,-4311.09 964.54,-4309.54 966.14,-4308.05 967.94,-4306.61 969.91,-4305.24 972.07,-4303.94 974.41,-4302.7 976.91,-4301.54 979.57,-4300.46 982.38,-4299.45 985.33,-4298.53 988.42,-4297.69 991.62,-4296.94 994.93,-4296.28 998.33,-4295.71 1001.82,-4295.23 1005.37,-4294.85 1008.98,-4294.56 1012.62,-4294.37 1016.28,-4294.27 1019.96,-4294.27 1023.62,-4294.37"/>
<text text-anchor="start" x="988.95" y="-4339.3" font-family="Times,serif" font-size="14.00">C0041366</text>
<text text-anchor="start" x="986.63" y="-4325.3" font-family="Times,serif" font-size="14.00">biomarkers</text>
<text text-anchor="start" x="1002.17" y="-4311.3" font-family="Times,serif" font-size="14.00">58:58</text>
</g>
<!-- id_27524875_DOT_4&#45;&#45;id_27524875_DOT_12 -->
<g id="edge14" class="edge">
<title>id_27524875_DOT_4&#45;&#45;id_27524875_DOT_12</title>
<path fill="none" stroke="black" stroke-dasharray="1,5" d="M1212.43,-4014.82C1172.01,-4080.28 1080.22,-4228.94 1038.93,-4295.81"/>
<text text-anchor="middle" x="1099.43" y="-4158.12" font-family="Times,serif" font-size="14.00">0.938317</text>
</g>
<!-- id_27524875_DOT_23 -->
<g id="node23" class="node">
<title>id_27524875_DOT_23</title>
<polygon fill="blueviolet" stroke="blueviolet" points="1536.68,-3656.18 1540.11,-3656.37 1543.51,-3656.66 1546.85,-3657.04 1550.13,-3657.52 1553.33,-3658.09 1556.45,-3658.75 1559.47,-3659.5 1562.37,-3660.34 1565.15,-3661.26 1567.8,-3662.27 1570.3,-3663.35 1572.65,-3664.52 1574.85,-3665.75 1576.88,-3667.05 1578.74,-3668.43 1580.43,-3669.86 1581.94,-3671.35 1583.27,-3672.9 1584.41,-3674.5 1585.37,-3676.14 1586.15,-3677.83 1586.74,-3679.55 1587.16,-3681.31 1587.4,-3683.09 1587.46,-3684.89 1587.36,-3686.72 1587.09,-3688.55 1586.66,-3690.39 1586.07,-3692.24 1585.34,-3694.08 1584.47,-3695.92 1583.47,-3697.74 1582.33,-3699.55 1581.09,-3701.33 1579.73,-3703.08 1578.26,-3704.81 1576.7,-3706.49 1575.06,-3708.14 1573.33,-3709.73 1571.52,-3711.28 1569.66,-3712.77 1567.73,-3714.21 1565.74,-3715.58 1563.71,-3716.89 1561.64,-3718.12 1559.53,-3719.28 1557.38,-3720.37 1555.21,-3721.37 1553.01,-3722.29 1550.8,-3723.13 1548.56,-3723.88 1546.31,-3724.54 1544.05,-3725.11 1541.78,-3725.59 1539.51,-3725.97 1537.23,-3726.26 1534.94,-3726.46 1532.65,-3726.55 1530.36,-3726.55 1528.07,-3726.46 1525.79,-3726.26 1523.5,-3725.97 1521.23,-3725.59 1518.96,-3725.11 1516.7,-3724.54 1514.45,-3723.88 1512.21,-3723.13 1510,-3722.29 1507.8,-3721.37 1505.63,-3720.37 1503.49,-3719.28 1501.37,-3718.12 1499.3,-3716.89 1497.27,-3715.58 1495.29,-3714.21 1493.36,-3712.77 1491.49,-3711.28 1489.68,-3709.73 1487.96,-3708.14 1486.31,-3706.49 1484.75,-3704.81 1483.29,-3703.08 1481.93,-3701.33 1480.68,-3699.55 1479.55,-3697.74 1478.54,-3695.92 1477.67,-3694.08 1476.94,-3692.24 1476.36,-3690.39 1475.93,-3688.55 1475.66,-3686.72 1475.55,-3684.89 1475.61,-3683.09 1475.85,-3681.31 1476.27,-3679.55 1476.86,-3677.83 1477.64,-3676.14 1478.6,-3674.5 1479.75,-3672.9 1481.07,-3671.35 1482.58,-3669.86 1484.27,-3668.43 1486.13,-3667.05 1488.16,-3665.75 1490.36,-3664.52 1492.71,-3663.35 1495.22,-3662.27 1497.86,-3661.26 1500.64,-3660.34 1503.55,-3659.5 1506.56,-3658.75 1509.68,-3658.09 1512.88,-3657.52 1516.16,-3657.04 1519.51,-3656.66 1522.9,-3656.37 1526.33,-3656.18 1529.78,-3656.08 1533.23,-3656.08 1536.68,-3656.18"/>
<text text-anchor="start" x="1502.34" y="-3701.12" font-family="Times,serif" font-size="14.00">C0040300</text>
<text text-anchor="start" x="1515.56" y="-3687.12" font-family="Times,serif" font-size="14.00">tissue</text>
<text text-anchor="start" x="1508.56" y="-3673.12" font-family="Times,serif" font-size="14.00">163:163</text>
</g>
<!-- id_27524875_DOT_4&#45;&#45;id_27524875_DOT_23 -->
<g id="edge3" class="edge">
<title>id_27524875_DOT_4&#45;&#45;id_27524875_DOT_23</title>
<path fill="none" stroke="black" d="M1263.94,-3951.91C1322.46,-3894.91 1446.51,-3774.1 1502.73,-3719.34"/>
<text text-anchor="middle" x="1357.08" y="-3838.43" font-family="Times,serif" font-size="14.00">0.062937</text>
</g>
<!-- id_27524875_DOT_5 -->
<g id="node5" class="node">
<title>id_27524875_DOT_5</title>
<polygon fill="brown" stroke="brown" points="2677.93,-2183.43 2681.35,-2183.62 2684.75,-2183.91 2688.09,-2184.29 2691.37,-2184.77 2694.58,-2185.34 2697.69,-2186 2700.71,-2186.75 2703.61,-2187.59 2706.39,-2188.51 2709.04,-2189.52 2711.54,-2190.6 2713.9,-2191.76 2716.09,-2193 2718.12,-2194.3 2719.99,-2195.67 2721.67,-2197.11 2723.18,-2198.6 2724.51,-2200.15 2725.65,-2201.75 2726.61,-2203.39 2727.39,-2205.08 2727.99,-2206.8 2728.4,-2208.55 2728.64,-2210.34 2728.71,-2212.14 2728.6,-2213.96 2728.33,-2215.8 2727.9,-2217.64 2727.31,-2219.49 2726.58,-2221.33 2725.71,-2223.17 2724.71,-2224.99 2723.58,-2226.79 2722.33,-2228.58 2720.97,-2230.33 2719.5,-2232.05 2717.95,-2233.74 2716.3,-2235.38 2714.57,-2236.98 2712.77,-2238.53 2710.9,-2240.02 2708.97,-2241.46 2706.99,-2242.83 2704.95,-2244.13 2702.88,-2245.37 2700.77,-2246.53 2698.62,-2247.61 2696.45,-2248.62 2694.26,-2249.54 2692.04,-2250.38 2689.81,-2251.13 2687.56,-2251.79 2685.3,-2252.36 2683.03,-2252.84 2680.75,-2253.22 2678.47,-2253.51 2676.18,-2253.7 2673.89,-2253.8 2671.6,-2253.8 2669.32,-2253.7 2667.03,-2253.51 2664.75,-2253.22 2662.47,-2252.84 2660.2,-2252.36 2657.94,-2251.79 2655.69,-2251.13 2653.46,-2250.38 2651.24,-2249.54 2649.04,-2248.62 2646.87,-2247.61 2644.73,-2246.53 2642.62,-2245.37 2640.54,-2244.13 2638.51,-2242.83 2636.53,-2241.46 2634.6,-2240.02 2632.73,-2238.53 2630.93,-2236.98 2629.2,-2235.38 2627.55,-2233.74 2625.99,-2232.05 2624.53,-2230.33 2623.17,-2228.58 2621.92,-2226.79 2620.79,-2224.99 2619.78,-2223.17 2618.91,-2221.33 2618.18,-2219.49 2617.6,-2217.64 2617.17,-2215.8 2616.9,-2213.96 2616.79,-2212.14 2616.86,-2210.34 2617.09,-2208.55 2617.51,-2206.8 2618.11,-2205.08 2618.88,-2203.39 2619.84,-2201.75 2620.99,-2200.15 2622.32,-2198.6 2623.83,-2197.11 2625.51,-2195.67 2627.37,-2194.3 2629.4,-2193 2631.6,-2191.76 2633.95,-2190.6 2636.46,-2189.52 2639.11,-2188.51 2641.89,-2187.59 2644.79,-2186.75 2647.8,-2186 2650.92,-2185.34 2654.13,-2184.77 2657.41,-2184.29 2660.75,-2183.91 2664.14,-2183.62 2667.57,-2183.43 2671.02,-2183.33 2674.48,-2183.33 2677.93,-2183.43"/>
<text text-anchor="start" x="2643.58" y="-2228.36" font-family="Times,serif" font-size="14.00">C1522485</text>
<text text-anchor="start" x="2650.21" y="-2214.36" font-family="Times,serif" font-size="14.00">Labeled</text>
<text text-anchor="start" x="2663.8" y="-2200.36" font-family="Times,serif" font-size="14.00">9:9</text>
</g>
<!-- id_27524875_DOT_24 -->
<g id="node24" class="node">
<title>id_27524875_DOT_24</title>
<polygon fill="darkseagreen" stroke="darkseagreen" points="3086.07,-2202.65 3089.49,-2202.84 3092.89,-2203.13 3096.23,-2203.52 3099.51,-2203.99 3102.72,-2204.56 3105.83,-2205.22 3108.85,-2205.98 3111.75,-2206.81 3114.53,-2207.74 3117.18,-2208.74 3119.68,-2209.83 3122.04,-2210.99 3124.23,-2212.22 3126.26,-2213.53 3128.12,-2214.9 3129.81,-2216.33 3131.32,-2217.82 3132.65,-2219.37 3133.79,-2220.97 3134.75,-2222.61 3135.53,-2224.3 3136.13,-2226.02 3136.54,-2227.78 3136.78,-2229.56 3136.84,-2231.37 3136.74,-2233.19 3136.47,-2235.02 3136.04,-2236.87 3135.45,-2238.71 3134.72,-2240.55 3133.85,-2242.39 3132.85,-2244.21 3131.72,-2246.02 3130.47,-2247.8 3129.11,-2249.55 3127.64,-2251.28 3126.08,-2252.96 3124.44,-2254.61 3122.71,-2256.21 3120.91,-2257.75 3119.04,-2259.25 3117.11,-2260.68 3115.12,-2262.05 3113.09,-2263.36 3111.02,-2264.59 3108.91,-2265.75 3106.76,-2266.84 3104.59,-2267.84 3102.4,-2268.77 3100.18,-2269.6 3097.94,-2270.35 3095.7,-2271.01 3093.44,-2271.59 3091.17,-2272.06 3088.89,-2272.45 3086.61,-2272.73 3084.32,-2272.93 3082.03,-2273.02 3079.74,-2273.02 3077.45,-2272.93 3075.17,-2272.73 3072.89,-2272.45 3070.61,-2272.06 3068.34,-2271.59 3066.08,-2271.01 3063.83,-2270.35 3061.6,-2269.6 3059.38,-2268.77 3057.18,-2267.84 3055.01,-2266.84 3052.87,-2265.75 3050.76,-2264.59 3048.68,-2263.36 3046.65,-2262.05 3044.67,-2260.68 3042.74,-2259.25 3040.87,-2257.75 3039.07,-2256.21 3037.34,-2254.61 3035.69,-2252.96 3034.13,-2251.28 3032.67,-2249.55 3031.31,-2247.8 3030.06,-2246.02 3028.93,-2244.21 3027.92,-2242.39 3027.05,-2240.55 3026.32,-2238.71 3025.74,-2236.87 3025.31,-2235.02 3025.04,-2233.19 3024.93,-2231.37 3025,-2229.56 3025.23,-2227.78 3025.65,-2226.02 3026.24,-2224.3 3027.02,-2222.61 3027.98,-2220.97 3029.13,-2219.37 3030.46,-2217.82 3031.96,-2216.33 3033.65,-2214.9 3035.51,-2213.53 3037.54,-2212.22 3039.74,-2210.99 3042.09,-2209.83 3044.6,-2208.74 3047.25,-2207.74 3050.03,-2206.81 3052.93,-2205.98 3055.94,-2205.22 3059.06,-2204.56 3062.26,-2203.99 3065.55,-2203.52 3068.89,-2203.13 3072.28,-2202.84 3075.71,-2202.65 3079.16,-2202.55 3082.62,-2202.55 3086.07,-2202.65"/>
<text text-anchor="start" x="3051.72" y="-2247.59" font-family="Times,serif" font-size="14.00">C0332237</text>
<text text-anchor="start" x="3061.84" y="-2233.59" font-family="Times,serif" font-size="14.00">topical</text>
<text text-anchor="start" x="3057.94" y="-2219.59" font-family="Times,serif" font-size="14.00">165:165</text>
</g>
<!-- id_27524875_DOT_5&#45;&#45;id_27524875_DOT_24 -->
<g id="edge15" class="edge">
<title>id_27524875_DOT_5&#45;&#45;id_27524875_DOT_24</title>
<path fill="none" stroke="black" stroke-dasharray="1,5" d="M2726.95,-2221.12C2804.57,-2224.77 2946.69,-2231.47 3025.16,-2235.16"/>
<text text-anchor="middle" x="2849.8" y="-2230.94" font-family="Times,serif" font-size="14.00">0.759918</text>
</g>
<!-- id_27524875_DOT_25 -->
<g id="node25" class="node">
<title>id_27524875_DOT_25</title>
<polygon fill="cadetblue" stroke="cadetblue" points="2244.71,-2172.82 2248.12,-2173.01 2251.5,-2173.3 2254.83,-2173.68 2258.09,-2174.16 2261.28,-2174.73 2264.38,-2175.39 2267.38,-2176.14 2270.27,-2176.98 2273.04,-2177.9 2275.67,-2178.91 2278.16,-2179.99 2280.51,-2181.16 2282.69,-2182.39 2284.71,-2183.7 2286.57,-2185.07 2288.24,-2186.5 2289.75,-2187.99 2291.07,-2189.54 2292.21,-2191.14 2293.16,-2192.78 2293.94,-2194.47 2294.53,-2196.19 2294.94,-2197.95 2295.18,-2199.73 2295.24,-2201.53 2295.14,-2203.36 2294.87,-2205.19 2294.44,-2207.04 2293.86,-2208.88 2293.13,-2210.72 2292.27,-2212.56 2291.27,-2214.38 2290.14,-2216.19 2288.9,-2217.97 2287.54,-2219.72 2286.09,-2221.45 2284.54,-2223.13 2282.9,-2224.78 2281.18,-2226.37 2279.38,-2227.92 2277.52,-2229.42 2275.6,-2230.85 2273.63,-2232.22 2271.61,-2233.53 2269.54,-2234.76 2267.44,-2235.92 2265.31,-2237.01 2263.15,-2238.01 2260.96,-2238.93 2258.76,-2239.77 2256.53,-2240.52 2254.3,-2241.18 2252.05,-2241.75 2249.79,-2242.23 2247.52,-2242.62 2245.25,-2242.9 2242.98,-2243.1 2240.7,-2243.19 2238.42,-2243.19 2236.14,-2243.1 2233.87,-2242.9 2231.6,-2242.62 2229.33,-2242.23 2227.07,-2241.75 2224.82,-2241.18 2222.58,-2240.52 2220.36,-2239.77 2218.16,-2238.93 2215.97,-2238.01 2213.81,-2237.01 2211.68,-2235.92 2209.57,-2234.76 2207.51,-2233.53 2205.49,-2232.22 2203.51,-2230.85 2201.59,-2229.42 2199.73,-2227.92 2197.94,-2226.37 2196.22,-2224.78 2194.58,-2223.13 2193.03,-2221.45 2191.57,-2219.72 2190.22,-2217.97 2188.98,-2216.19 2187.85,-2214.38 2186.85,-2212.56 2185.99,-2210.72 2185.26,-2208.88 2184.68,-2207.04 2184.25,-2205.19 2183.98,-2203.36 2183.87,-2201.53 2183.94,-2199.73 2184.18,-2197.95 2184.59,-2196.19 2185.18,-2194.47 2185.96,-2192.78 2186.91,-2191.14 2188.05,-2189.54 2189.37,-2187.99 2190.87,-2186.5 2192.55,-2185.07 2194.4,-2183.7 2196.43,-2182.39 2198.61,-2181.16 2200.95,-2179.99 2203.45,-2178.91 2206.08,-2177.9 2208.85,-2176.98 2211.74,-2176.14 2214.74,-2175.39 2217.84,-2174.73 2221.03,-2174.16 2224.29,-2173.68 2227.62,-2173.3 2230.99,-2173.01 2234.41,-2172.82 2237.84,-2172.72 2241.28,-2172.72 2244.71,-2172.82"/>
<text text-anchor="start" x="2210.65" y="-2217.76" font-family="Times,serif" font-size="14.00">C0011923</text>
<text text-anchor="start" x="2216.62" y="-2203.76" font-family="Times,serif" font-size="14.00">imaging</text>
<text text-anchor="start" x="2216.61" y="-2189.76" font-family="Times,serif" font-size="14.00">174:174</text>
</g>
<!-- id_27524875_DOT_5&#45;&#45;id_27524875_DOT_25 -->
<g id="edge16" class="edge">
<title>id_27524875_DOT_5&#45;&#45;id_27524875_DOT_25</title>
<path fill="none" stroke="black" stroke-dasharray="1,5" d="M2617.44,-2217.21C2533.96,-2215.17 2376.73,-2211.32 2293.85,-2209.29"/>
<text text-anchor="middle" x="2429.4" y="-2216.05" font-family="Times,serif" font-size="14.00">0.760220</text>
</g>
<!-- id_27524875_DOT_20 -->
<g id="node20" class="node">
<title>id_27524875_DOT_20</title>
<polygon fill="cadetblue" stroke="cadetblue" points="2345.57,-1379.28 2348.98,-1379.47 2352.35,-1379.76 2355.68,-1380.14 2358.95,-1380.62 2362.13,-1381.19 2365.24,-1381.85 2368.24,-1382.6 2371.12,-1383.44 2373.89,-1384.36 2376.53,-1385.37 2379.02,-1386.45 2381.36,-1387.61 2383.55,-1388.85 2385.57,-1390.15 2387.42,-1391.52 2389.1,-1392.96 2390.6,-1394.45 2391.92,-1396 2393.06,-1397.6 2394.02,-1399.24 2394.79,-1400.93 2395.38,-1402.65 2395.8,-1404.4 2396.03,-1406.19 2396.1,-1407.99 2395.99,-1409.81 2395.72,-1411.65 2395.29,-1413.49 2394.71,-1415.34 2393.99,-1417.18 2393.12,-1419.02 2392.12,-1420.84 2390.99,-1422.64 2389.75,-1424.43 2388.4,-1426.18 2386.94,-1427.9 2385.39,-1429.59 2383.75,-1431.23 2382.03,-1432.83 2380.24,-1434.38 2378.38,-1435.87 2376.46,-1437.31 2374.48,-1438.68 2372.46,-1439.98 2370.4,-1441.22 2368.3,-1442.38 2366.16,-1443.46 2364,-1444.47 2361.82,-1445.39 2359.61,-1446.23 2357.39,-1446.98 2355.15,-1447.64 2352.9,-1448.21 2350.64,-1448.69 2348.38,-1449.07 2346.1,-1449.36 2343.83,-1449.55 2341.55,-1449.65 2339.27,-1449.65 2337,-1449.55 2334.72,-1449.36 2332.45,-1449.07 2330.18,-1448.69 2327.93,-1448.21 2325.68,-1447.64 2323.44,-1446.98 2321.22,-1446.23 2319.01,-1445.39 2316.82,-1444.47 2314.66,-1443.46 2312.53,-1442.38 2310.43,-1441.22 2308.36,-1439.98 2306.34,-1438.68 2304.37,-1437.31 2302.45,-1435.87 2300.59,-1434.38 2298.8,-1432.83 2297.08,-1431.23 2295.44,-1429.59 2293.88,-1427.9 2292.43,-1426.18 2291.07,-1424.43 2289.83,-1422.64 2288.71,-1420.84 2287.71,-1419.02 2286.84,-1417.18 2286.11,-1415.34 2285.53,-1413.49 2285.1,-1411.65 2284.83,-1409.81 2284.73,-1407.99 2284.79,-1406.19 2285.03,-1404.4 2285.44,-1402.65 2286.04,-1400.93 2286.81,-1399.24 2287.77,-1397.6 2288.91,-1396 2290.23,-1394.45 2291.73,-1392.96 2293.41,-1391.52 2295.26,-1390.15 2297.28,-1388.85 2299.46,-1387.61 2301.81,-1386.45 2304.3,-1385.37 2306.93,-1384.36 2309.7,-1383.44 2312.59,-1382.6 2315.59,-1381.85 2318.69,-1381.19 2321.88,-1380.62 2325.14,-1380.14 2328.47,-1379.76 2331.85,-1379.47 2335.26,-1379.28 2338.69,-1379.18 2342.13,-1379.18 2345.57,-1379.28"/>
<text text-anchor="start" x="2311.5" y="-1424.21" font-family="Times,serif" font-size="14.00">C0011923</text>
<text text-anchor="start" x="2317.47" y="-1410.21" font-family="Times,serif" font-size="14.00">imaging</text>
<text text-anchor="start" x="2317.98" y="-1396.21" font-family="Times,serif" font-size="14.00">115:115</text>
</g>
<!-- id_27524875_DOT_6&#45;&#45;id_27524875_DOT_20 -->
<g id="edge4" class="edge">
<title>id_27524875_DOT_6&#45;&#45;id_27524875_DOT_20</title>
<path fill="none" stroke="black" d="M2455.26,-1088.9C2431.1,-1157.37 2376.99,-1310.75 2352.66,-1379.69"/>
<text text-anchor="middle" x="2377.71" y="-1237.09" font-family="Times,serif" font-size="14.00">0.012433</text>
</g>
<!-- id_27524875_DOT_7 -->
<g id="node7" class="node">
<title>id_27524875_DOT_7</title>
<polygon fill="chartreuse" stroke="chartreuse" points="117.74,-2031.95 124.36,-2032.14 130.91,-2032.43 137.36,-2032.81 143.69,-2033.29 149.88,-2033.86 155.89,-2034.52 161.71,-2035.27 167.31,-2036.11 172.68,-2037.03 177.79,-2038.04 182.62,-2039.12 187.16,-2040.29 191.4,-2041.52 195.32,-2042.83 198.92,-2044.2 202.17,-2045.63 205.08,-2047.12 207.64,-2048.67 209.85,-2050.27 211.71,-2051.91 213.21,-2053.6 214.36,-2055.32 215.16,-2057.08 215.62,-2058.86 215.74,-2060.66 215.54,-2062.49 215.02,-2064.32 214.19,-2066.17 213.06,-2068.01 211.65,-2069.85 209.97,-2071.69 208.03,-2073.51 205.85,-2075.32 203.44,-2077.1 200.81,-2078.85 197.99,-2080.58 194.98,-2082.26 191.8,-2083.91 188.46,-2085.5 184.98,-2087.05 181.38,-2088.55 177.65,-2089.98 173.83,-2091.35 169.9,-2092.66 165.9,-2093.89 161.83,-2095.05 157.69,-2096.14 153.5,-2097.14 149.26,-2098.06 144.98,-2098.9 140.67,-2099.65 136.33,-2100.31 131.97,-2100.88 127.59,-2101.36 123.19,-2101.75 118.79,-2102.03 114.37,-2102.23 109.96,-2102.32 105.54,-2102.32 101.12,-2102.23 96.71,-2102.03 92.3,-2101.75 87.91,-2101.36 83.53,-2100.88 79.17,-2100.31 74.83,-2099.65 70.52,-2098.9 66.24,-2098.06 62,-2097.14 57.81,-2096.14 53.67,-2095.05 49.59,-2093.89 45.59,-2092.66 41.67,-2091.35 37.84,-2089.98 34.12,-2088.55 30.51,-2087.05 27.03,-2085.5 23.7,-2083.91 20.52,-2082.26 17.51,-2080.58 14.68,-2078.85 12.06,-2077.1 9.65,-2075.32 7.47,-2073.51 5.53,-2071.69 3.85,-2069.85 2.43,-2068.01 1.31,-2066.17 0.48,-2064.32 -0.04,-2062.49 -0.25,-2060.66 -0.12,-2058.86 0.33,-2057.08 1.14,-2055.32 2.29,-2053.6 3.79,-2051.91 5.64,-2050.27 7.85,-2048.67 10.41,-2047.12 13.32,-2045.63 16.58,-2044.2 20.17,-2042.83 24.09,-2041.52 28.33,-2040.29 32.88,-2039.12 37.71,-2038.04 42.82,-2037.03 48.18,-2036.11 53.79,-2035.27 59.61,-2034.52 65.62,-2033.86 71.8,-2033.29 78.14,-2032.81 84.59,-2032.43 91.14,-2032.14 97.75,-2031.95 104.41,-2031.85 111.08,-2031.85 117.74,-2031.95"/>
<text text-anchor="start" x="78.58" y="-2076.89" font-family="Times,serif" font-size="14.00">C0034800</text>
<text text-anchor="start" x="44.2" y="-2062.89" font-family="Times,serif" font-size="14.00">cell &#45; surface receptors</text>
<text text-anchor="start" x="91.8" y="-2048.89" font-family="Times,serif" font-size="14.00">24:27</text>
</g>
<!-- id_27524875_DOT_17 -->
<g id="node17" class="node">
<title>id_27524875_DOT_17</title>
<polygon fill="darkorange" stroke="darkorange" points="456.68,-2213.48 460.09,-2213.68 463.47,-2213.97 466.79,-2214.35 470.06,-2214.83 473.25,-2215.4 476.35,-2216.06 479.35,-2216.81 482.24,-2217.65 485,-2218.57 487.64,-2219.58 490.13,-2220.66 492.47,-2221.82 494.66,-2223.06 496.68,-2224.36 498.53,-2225.73 500.21,-2227.17 501.71,-2228.66 503.03,-2230.21 504.17,-2231.8 505.13,-2233.45 505.9,-2235.13 506.49,-2236.86 506.91,-2238.61 507.15,-2240.4 507.21,-2242.2 507.1,-2244.02 506.83,-2245.86 506.41,-2247.7 505.83,-2249.55 505.1,-2251.39 504.23,-2253.22 503.23,-2255.05 502.11,-2256.85 500.86,-2258.63 499.51,-2260.39 498.05,-2262.11 496.5,-2263.8 494.86,-2265.44 493.14,-2267.04 491.35,-2268.59 489.49,-2270.08 487.57,-2271.51 485.59,-2272.89 483.57,-2274.19 481.51,-2275.43 479.41,-2276.59 477.27,-2277.67 475.11,-2278.68 472.93,-2279.6 470.72,-2280.44 468.5,-2281.19 466.26,-2281.85 464.01,-2282.42 461.75,-2282.9 459.49,-2283.28 457.22,-2283.57 454.94,-2283.76 452.66,-2283.86 450.39,-2283.86 448.11,-2283.76 445.83,-2283.57 443.56,-2283.28 441.3,-2282.9 439.04,-2282.42 436.79,-2281.85 434.55,-2281.19 432.33,-2280.44 430.12,-2279.6 427.94,-2278.68 425.77,-2277.67 423.64,-2276.59 421.54,-2275.43 419.48,-2274.19 417.45,-2272.89 415.48,-2271.51 413.56,-2270.08 411.7,-2268.59 409.91,-2267.04 408.19,-2265.44 406.55,-2263.8 405,-2262.11 403.54,-2260.39 402.19,-2258.63 400.94,-2256.85 399.82,-2255.05 398.82,-2253.22 397.95,-2251.39 397.22,-2249.55 396.64,-2247.7 396.21,-2245.86 395.95,-2244.02 395.84,-2242.2 395.9,-2240.4 396.14,-2238.61 396.55,-2236.86 397.15,-2235.13 397.92,-2233.45 398.88,-2231.8 400.02,-2230.21 401.34,-2228.66 402.84,-2227.17 404.52,-2225.73 406.37,-2224.36 408.39,-2223.06 410.58,-2221.82 412.92,-2220.66 415.41,-2219.58 418.05,-2218.57 420.81,-2217.65 423.7,-2216.81 426.7,-2216.06 429.8,-2215.4 432.99,-2214.83 436.26,-2214.35 439.58,-2213.97 442.96,-2213.68 446.37,-2213.48 449.8,-2213.39 453.24,-2213.39 456.68,-2213.48"/>
<text text-anchor="start" x="422.61" y="-2258.42" font-family="Times,serif" font-size="14.00">C1511790</text>
<text text-anchor="start" x="425.87" y="-2244.42" font-family="Times,serif" font-size="14.00">detection</text>
<text text-anchor="start" x="428.58" y="-2230.42" font-family="Times,serif" font-size="14.00">100:100</text>
</g>
<!-- id_27524875_DOT_7&#45;&#45;id_27524875_DOT_17 -->
<g id="edge17" class="edge">
<title>id_27524875_DOT_7&#45;&#45;id_27524875_DOT_17</title>
<path fill="none" stroke="black" stroke-dasharray="1,5" d="M161.09,-2095.25C228.32,-2130.76 342.74,-2191.18 406.03,-2224.6"/>
<text text-anchor="middle" x="257.31" y="-2162.73" font-family="Times,serif" font-size="14.00">0.819702</text>
</g>
<!-- id_27524875_DOT_8 -->
<g id="node8" class="node">
<title>id_27524875_DOT_8</title>
<polygon fill="coral" stroke="coral" points="1101.7,-4691.53 1105.72,-4691.72 1109.71,-4692.01 1113.64,-4692.39 1117.49,-4692.87 1121.26,-4693.44 1124.92,-4694.1 1128.46,-4694.85 1131.87,-4695.69 1135.14,-4696.61 1138.25,-4697.62 1141.19,-4698.7 1143.96,-4699.87 1146.54,-4701.1 1148.92,-4702.41 1151.11,-4703.78 1153.09,-4705.21 1154.86,-4706.7 1156.42,-4708.25 1157.77,-4709.85 1158.9,-4711.49 1159.81,-4713.18 1160.51,-4714.9 1161,-4716.66 1161.28,-4718.44 1161.35,-4720.25 1161.23,-4722.07 1160.91,-4723.9 1160.41,-4725.75 1159.72,-4727.59 1158.86,-4729.43 1157.84,-4731.27 1156.66,-4733.09 1155.33,-4734.9 1153.86,-4736.68 1152.26,-4738.43 1150.54,-4740.16 1148.71,-4741.84 1146.78,-4743.49 1144.75,-4745.09 1142.63,-4746.63 1140.43,-4748.13 1138.17,-4749.56 1135.84,-4750.93 1133.45,-4752.24 1131.01,-4753.47 1128.53,-4754.63 1126.01,-4755.72 1123.46,-4756.72 1120.88,-4757.64 1118.28,-4758.48 1115.65,-4759.23 1113.01,-4759.89 1110.36,-4760.46 1107.69,-4760.94 1105.01,-4761.33 1102.33,-4761.61 1099.65,-4761.81 1096.96,-4761.9 1094.27,-4761.9 1091.58,-4761.81 1088.89,-4761.61 1086.21,-4761.33 1083.54,-4760.94 1080.87,-4760.46 1078.22,-4759.89 1075.57,-4759.23 1072.95,-4758.48 1070.35,-4757.64 1067.77,-4756.72 1065.21,-4755.72 1062.69,-4754.63 1060.21,-4753.47 1057.78,-4752.24 1055.39,-4750.93 1053.06,-4749.56 1050.79,-4748.13 1048.6,-4746.63 1046.48,-4745.09 1044.45,-4743.49 1042.51,-4741.84 1040.68,-4740.16 1038.96,-4738.43 1037.37,-4736.68 1035.9,-4734.9 1034.57,-4733.09 1033.39,-4731.27 1032.37,-4729.43 1031.51,-4727.59 1030.82,-4725.75 1030.32,-4723.9 1030,-4722.07 1029.87,-4720.25 1029.95,-4718.44 1030.23,-4716.66 1030.72,-4714.9 1031.42,-4713.18 1032.33,-4711.49 1033.46,-4709.85 1034.8,-4708.25 1036.36,-4706.7 1038.14,-4705.21 1040.12,-4703.78 1042.3,-4702.41 1044.69,-4701.1 1047.27,-4699.87 1050.04,-4698.7 1052.98,-4697.62 1056.09,-4696.61 1059.36,-4695.69 1062.77,-4694.85 1066.31,-4694.1 1069.97,-4693.44 1073.73,-4692.87 1077.59,-4692.39 1081.52,-4692.01 1085.5,-4691.72 1089.53,-4691.53 1093.58,-4691.43 1097.64,-4691.43 1101.7,-4691.53"/>
<text text-anchor="start" x="1066.44" y="-4736.47" font-family="Times,serif" font-size="14.00">C0005516</text>
<text text-anchor="start" x="1060.04" y="-4722.47" font-family="Times,serif" font-size="14.00">biomarkers )</text>
<text text-anchor="start" x="1079.67" y="-4708.47" font-family="Times,serif" font-size="14.00">30:31</text>
</g>
<!-- id_27524875_DOT_8&#45;&#45;id_27524875_DOT_12 -->
<g id="edge5" class="edge">
<title>id_27524875_DOT_8&#45;&#45;id_27524875_DOT_12</title>
<path fill="none" stroke="black" d="M1088.74,-4691.42C1074.01,-4615.96 1039.59,-4439.53 1024.93,-4364.39"/>
<text text-anchor="middle" x="1030.58" y="-4530.7" font-family="Times,serif" font-size="14.00">0.002607</text>
</g>
<!-- id_27524875_DOT_9 -->
<g id="node9" class="node">
<title>id_27524875_DOT_9</title>
<polygon fill="cornflowerblue" stroke="cornflowerblue" points="756.23,-2509.3 759.66,-2509.5 763.05,-2509.79 766.39,-2510.17 769.67,-2510.65 772.88,-2511.22 775.99,-2511.88 779.01,-2512.63 781.91,-2513.47 784.69,-2514.39 787.34,-2515.39 789.84,-2516.48 792.2,-2517.64 794.39,-2518.87 796.43,-2520.18 798.29,-2521.55 799.97,-2522.99 801.48,-2524.48 802.81,-2526.03 803.95,-2527.62 804.91,-2529.27 805.69,-2530.95 806.29,-2532.68 806.7,-2534.43 806.94,-2536.21 807.01,-2538.02 806.9,-2539.84 806.63,-2541.68 806.2,-2543.52 805.62,-2545.37 804.88,-2547.21 804.01,-2549.04 803.01,-2550.87 801.88,-2552.67 800.63,-2554.45 799.27,-2556.21 797.81,-2557.93 796.25,-2559.62 794.6,-2561.26 792.87,-2562.86 791.07,-2564.41 789.2,-2565.9 787.27,-2567.33 785.29,-2568.71 783.25,-2570.01 781.18,-2571.24 779.07,-2572.41 776.93,-2573.49 774.75,-2574.5 772.56,-2575.42 770.34,-2576.26 768.11,-2577.01 765.86,-2577.67 763.6,-2578.24 761.33,-2578.72 759.05,-2579.1 756.77,-2579.39 754.48,-2579.58 752.19,-2579.68 749.9,-2579.68 747.62,-2579.58 745.33,-2579.39 743.05,-2579.1 740.77,-2578.72 738.5,-2578.24 736.24,-2577.67 733.99,-2577.01 731.76,-2576.26 729.54,-2575.42 727.35,-2574.5 725.17,-2573.49 723.03,-2572.41 720.92,-2571.24 718.84,-2570.01 716.81,-2568.71 714.83,-2567.33 712.9,-2565.9 711.03,-2564.41 709.23,-2562.86 707.5,-2561.26 705.85,-2559.62 704.29,-2557.93 702.83,-2556.21 701.47,-2554.45 700.22,-2552.67 699.09,-2550.87 698.09,-2549.04 697.21,-2547.21 696.48,-2545.37 695.9,-2543.52 695.47,-2541.68 695.2,-2539.84 695.09,-2538.02 695.16,-2536.21 695.4,-2534.43 695.81,-2532.68 696.41,-2530.95 697.18,-2529.27 698.15,-2527.62 699.29,-2526.03 700.62,-2524.48 702.13,-2522.99 703.81,-2521.55 705.67,-2520.18 707.71,-2518.87 709.9,-2517.64 712.26,-2516.48 714.76,-2515.39 717.41,-2514.39 720.19,-2513.47 723.09,-2512.63 726.11,-2511.88 729.22,-2511.22 732.43,-2510.65 735.71,-2510.17 739.05,-2509.79 742.44,-2509.5 745.87,-2509.3 749.32,-2509.21 752.78,-2509.21 756.23,-2509.3"/>
<text text-anchor="start" x="721.88" y="-2554.24" font-family="Times,serif" font-size="14.00">C0150312</text>
<text text-anchor="start" x="726.57" y="-2540.24" font-family="Times,serif" font-size="14.00">presence</text>
<text text-anchor="start" x="735.1" y="-2526.24" font-family="Times,serif" font-size="14.00">39:39</text>
</g>
<!-- id_27524875_DOT_9&#45;&#45;id_27524875_DOT_17 -->
<g id="edge18" class="edge">
<title>id_27524875_DOT_9&#45;&#45;id_27524875_DOT_17</title>
<path fill="none" stroke="black" stroke-dasharray="1,5" d="M719.56,-2513.34C660.98,-2455.49 536.13,-2332.18 479.95,-2276.7"/>
<text text-anchor="middle" x="573.51" y="-2397.82" font-family="Times,serif" font-size="14.00">0.728328</text>
</g>
<!-- id_27524875_DOT_9&#45;&#45;id_27524875_DOT_18 -->
<g id="edge19" class="edge">
<title>id_27524875_DOT_9&#45;&#45;id_27524875_DOT_18</title>
<path fill="none" stroke="black" stroke-dasharray="1,5" d="M801.37,-2553.51C881.87,-2568.01 1039.03,-2596.32 1122.91,-2611.43"/>
<text text-anchor="middle" x="935.89" y="-2585.27" font-family="Times,serif" font-size="14.00">0.813099</text>
</g>
<!-- id_27524875_DOT_21 -->
<g id="node21" class="node">
<title>id_27524875_DOT_21</title>
<polygon fill="darksalmon" stroke="darksalmon" points="426.41,-2723.48 429.84,-2723.67 433.23,-2723.96 436.57,-2724.35 439.86,-2724.82 443.06,-2725.39 446.18,-2726.06 449.19,-2726.81 452.09,-2727.64 454.87,-2728.57 457.52,-2729.57 460.03,-2730.66 462.38,-2731.82 464.58,-2733.05 466.61,-2734.36 468.47,-2735.73 470.16,-2737.16 471.66,-2738.66 472.99,-2740.2 474.14,-2741.8 475.1,-2743.45 475.88,-2745.13 476.47,-2746.85 476.89,-2748.61 477.12,-2750.39 477.19,-2752.2 477.08,-2754.02 476.81,-2755.85 476.38,-2757.7 475.8,-2759.54 475.07,-2761.38 474.2,-2763.22 473.19,-2765.04 472.06,-2766.85 470.81,-2768.63 469.45,-2770.39 467.99,-2772.11 466.43,-2773.79 464.78,-2775.44 463.05,-2777.04 461.25,-2778.58 459.38,-2780.08 457.45,-2781.51 455.47,-2782.88 453.44,-2784.19 451.36,-2785.42 449.25,-2786.58 447.11,-2787.67 444.94,-2788.67 442.74,-2789.6 440.52,-2790.43 438.29,-2791.18 436.04,-2791.85 433.78,-2792.42 431.51,-2792.89 429.23,-2793.28 426.95,-2793.57 424.67,-2793.76 422.38,-2793.85 420.09,-2793.85 417.8,-2793.76 415.51,-2793.57 413.23,-2793.28 410.95,-2792.89 408.68,-2792.42 406.42,-2791.85 404.18,-2791.18 401.94,-2790.43 399.72,-2789.6 397.53,-2788.67 395.36,-2787.67 393.21,-2786.58 391.1,-2785.42 389.03,-2784.19 387,-2782.88 385.01,-2781.51 383.08,-2780.08 381.21,-2778.58 379.41,-2777.04 377.68,-2775.44 376.04,-2773.79 374.48,-2772.11 373.01,-2770.39 371.65,-2768.63 370.4,-2766.85 369.27,-2765.04 368.27,-2763.22 367.4,-2761.38 366.67,-2759.54 366.08,-2757.7 365.65,-2755.85 365.38,-2754.02 365.28,-2752.2 365.34,-2750.39 365.58,-2748.61 365.99,-2746.85 366.59,-2745.13 367.37,-2743.45 368.33,-2741.8 369.47,-2740.2 370.8,-2738.66 372.31,-2737.16 374,-2735.73 375.86,-2734.36 377.89,-2733.05 380.08,-2731.82 382.44,-2730.66 384.94,-2729.57 387.59,-2728.57 390.37,-2727.64 393.27,-2726.81 396.29,-2726.06 399.4,-2725.39 402.61,-2724.82 405.89,-2724.35 409.23,-2723.96 412.63,-2723.67 416.05,-2723.48 419.5,-2723.38 422.96,-2723.38 426.41,-2723.48"/>
<text text-anchor="start" x="392.06" y="-2768.42" font-family="Times,serif" font-size="14.00">C0678594</text>
<text text-anchor="start" x="396.74" y="-2754.42" font-family="Times,serif" font-size="14.00">structure</text>
<text text-anchor="start" x="398.29" y="-2740.42" font-family="Times,serif" font-size="14.00">132:132</text>
</g>
<!-- id_27524875_DOT_9&#45;&#45;id_27524875_DOT_21 -->
<g id="edge20" class="edge">
<title>id_27524875_DOT_9&#45;&#45;id_27524875_DOT_21</title>
<path fill="none" stroke="black" stroke-dasharray="1,5" d="M715.13,-2567.77C653.44,-2607.83 527.72,-2689.47 462.52,-2731.81"/>
<text text-anchor="middle" x="562.57" y="-2652.59" font-family="Times,serif" font-size="14.00">0.832956</text>
</g>
<!-- id_27524875_DOT_11 -->
<g id="node11" class="node">
<title>id_27524875_DOT_11</title>
<polygon fill="darkgoldenrod" stroke="darkgoldenrod" points="2116.28,-2814.31 2122.47,-2814.51 2128.6,-2814.79 2134.64,-2815.18 2140.57,-2815.66 2146.36,-2816.23 2151.99,-2816.89 2157.44,-2817.64 2162.69,-2818.48 2167.71,-2819.4 2172.49,-2820.4 2177.02,-2821.49 2181.27,-2822.65 2185.24,-2823.88 2188.91,-2825.19 2192.27,-2826.56 2195.32,-2827.99 2198.04,-2829.49 2200.44,-2831.04 2202.51,-2832.63 2204.25,-2834.28 2205.65,-2835.96 2206.73,-2837.69 2207.48,-2839.44 2207.91,-2841.22 2208.03,-2843.03 2207.83,-2844.85 2207.35,-2846.69 2206.57,-2848.53 2205.51,-2850.37 2204.19,-2852.22 2202.62,-2854.05 2200.8,-2855.88 2198.76,-2857.68 2196.5,-2859.46 2194.05,-2861.22 2191.4,-2862.94 2188.58,-2864.63 2185.61,-2866.27 2182.49,-2867.87 2179.23,-2869.42 2175.85,-2870.91 2172.37,-2872.34 2168.78,-2873.71 2165.11,-2875.02 2161.36,-2876.25 2157.55,-2877.42 2153.68,-2878.5 2149.75,-2879.51 2145.78,-2880.43 2141.78,-2881.27 2137.74,-2882.02 2133.68,-2882.68 2129.6,-2883.25 2125.5,-2883.73 2121.38,-2884.11 2117.26,-2884.4 2113.13,-2884.59 2108.99,-2884.69 2104.86,-2884.69 2100.72,-2884.59 2096.59,-2884.4 2092.47,-2884.11 2088.35,-2883.73 2084.25,-2883.25 2080.17,-2882.68 2076.11,-2882.02 2072.07,-2881.27 2068.06,-2880.43 2064.1,-2879.51 2060.17,-2878.5 2056.3,-2877.42 2052.48,-2876.25 2048.74,-2875.02 2045.06,-2873.71 2041.48,-2872.34 2037.99,-2870.91 2034.62,-2869.42 2031.36,-2867.87 2028.24,-2866.27 2025.26,-2864.63 2022.45,-2862.94 2019.8,-2861.22 2017.34,-2859.46 2015.09,-2857.68 2013.04,-2855.88 2011.23,-2854.05 2009.65,-2852.22 2008.33,-2850.37 2007.28,-2848.53 2006.5,-2846.69 2006.01,-2844.85 2005.82,-2843.03 2005.94,-2841.22 2006.37,-2839.44 2007.12,-2837.69 2008.19,-2835.96 2009.6,-2834.28 2011.34,-2832.63 2013.41,-2831.04 2015.8,-2829.49 2018.53,-2827.99 2021.58,-2826.56 2024.94,-2825.19 2028.61,-2823.88 2032.58,-2822.65 2036.83,-2821.49 2041.36,-2820.4 2046.14,-2819.4 2051.16,-2818.48 2056.41,-2817.64 2061.86,-2816.89 2067.48,-2816.23 2073.28,-2815.66 2079.2,-2815.18 2085.24,-2814.79 2091.37,-2814.51 2097.57,-2814.31 2103.8,-2814.22 2110.05,-2814.22 2116.28,-2814.31"/>
<text text-anchor="start" x="2078.01" y="-2859.25" font-family="Times,serif" font-size="14.00">C1171362</text>
<text text-anchor="start" x="2047.83" y="-2845.25" font-family="Times,serif" font-size="14.00">expression of protein</text>
<text text-anchor="start" x="2090.98" y="-2831.25" font-family="Times,serif" font-size="14.00">55:57</text>
</g>
<!-- id_27524875_DOT_11&#45;&#45;id_27524875_DOT_28 -->
<g id="edge21" class="edge">
<title>id_27524875_DOT_11&#45;&#45;id_27524875_DOT_28</title>
<path fill="none" stroke="black" stroke-dasharray="1,5" d="M2092.36,-2814.41C2070.05,-2760.72 2027.65,-2658.7 2005.43,-2605.23"/>
<text text-anchor="middle" x="2022.9" y="-2712.62" font-family="Times,serif" font-size="14.00">0.801142</text>
</g>
<!-- id_27524875_DOT_16 -->
<g id="node16" class="node">
<title>id_27524875_DOT_16</title>
<polygon fill="darkgreen" stroke="darkgreen" points="644.51,-4410.64 650.01,-4410.83 655.45,-4411.12 660.81,-4411.5 666.07,-4411.98 671.2,-4412.55 676.2,-4413.21 681.03,-4413.96 685.69,-4414.8 690.15,-4415.72 694.39,-4416.73 698.41,-4417.81 702.18,-4418.97 705.7,-4420.21 708.96,-4421.51 711.94,-4422.88 714.65,-4424.32 717.07,-4425.81 719.19,-4427.36 721.03,-4428.96 722.57,-4430.6 723.82,-4432.29 724.77,-4434.01 725.44,-4435.76 725.82,-4437.55 725.92,-4439.35 725.75,-4441.17 725.32,-4443.01 724.63,-4444.85 723.69,-4446.7 722.52,-4448.54 721.13,-4450.38 719.51,-4452.2 717.7,-4454 715.7,-4455.79 713.52,-4457.54 711.17,-4459.26 708.67,-4460.95 706.03,-4462.59 703.26,-4464.19 700.37,-4465.74 697.37,-4467.23 694.28,-4468.67 691.1,-4470.04 687.84,-4471.34 684.52,-4472.58 681.13,-4473.74 677.69,-4474.82 674.21,-4475.83 670.69,-4476.75 667.14,-4477.59 663.56,-4478.34 659.95,-4479 656.33,-4479.57 652.69,-4480.05 649.04,-4480.43 645.38,-4480.72 641.71,-4480.91 638.04,-4481.01 634.37,-4481.01 630.7,-4480.91 627.04,-4480.72 623.38,-4480.43 619.73,-4480.05 616.09,-4479.57 612.47,-4479 608.86,-4478.34 605.28,-4477.59 601.72,-4476.75 598.2,-4475.83 594.72,-4474.82 591.28,-4473.74 587.9,-4472.58 584.57,-4471.34 581.32,-4470.04 578.14,-4468.67 575.04,-4467.23 572.05,-4465.74 569.16,-4464.19 566.38,-4462.59 563.74,-4460.95 561.24,-4459.26 558.9,-4457.54 556.72,-4455.79 554.71,-4454 552.9,-4452.2 551.29,-4450.38 549.89,-4448.54 548.72,-4446.7 547.79,-4444.85 547.1,-4443.01 546.66,-4441.17 546.49,-4439.35 546.59,-4437.55 546.98,-4435.76 547.64,-4434.01 548.6,-4432.29 549.85,-4430.6 551.39,-4428.96 553.22,-4427.36 555.35,-4425.81 557.77,-4424.32 560.47,-4422.88 563.46,-4421.51 566.71,-4420.21 570.23,-4418.97 574.01,-4417.81 578.03,-4416.73 582.27,-4415.72 586.73,-4414.8 591.38,-4413.96 596.21,-4413.21 601.21,-4412.55 606.35,-4411.98 611.61,-4411.5 616.97,-4411.12 622.41,-4410.83 627.91,-4410.64 633.44,-4410.54 638.98,-4410.54 644.51,-4410.64"/>
<text text-anchor="start" x="607.04" y="-4455.58" font-family="Times,serif" font-size="14.00">C0041366</text>
<text text-anchor="start" x="584.71" y="-4441.58" font-family="Times,serif" font-size="14.00">cancer biomarkers</text>
<text text-anchor="start" x="620.26" y="-4427.58" font-family="Times,serif" font-size="14.00">75:76</text>
</g>
<!-- id_27524875_DOT_12&#45;&#45;id_27524875_DOT_16 -->
<g id="edge6" class="edge">
<title>id_27524875_DOT_12&#45;&#45;id_27524875_DOT_16</title>
<path fill="none" stroke="black" d="M969.36,-4344.35C904.31,-4364.15 788.46,-4399.42 711.98,-4422.71"/>
<text text-anchor="middle" x="814.42" y="-4386.33" font-family="Times,serif" font-size="14.00">0.002195</text>
</g>
<!-- id_27524875_DOT_13 -->
<g id="node13" class="node">
<title>id_27524875_DOT_13</title>
<polygon fill="darkkhaki" stroke="darkkhaki" points="2114.3,-4245.53 2117.73,-4245.73 2121.12,-4246.02 2124.47,-4246.4 2127.75,-4246.88 2130.95,-4247.45 2134.07,-4248.11 2137.08,-4248.86 2139.99,-4249.7 2142.77,-4250.62 2145.41,-4251.63 2147.92,-4252.71 2150.27,-4253.87 2152.47,-4255.11 2154.5,-4256.41 2156.36,-4257.78 2158.05,-4259.22 2159.56,-4260.71 2160.88,-4262.26 2162.03,-4263.86 2162.99,-4265.5 2163.77,-4267.19 2164.36,-4268.91 2164.78,-4270.66 2165.02,-4272.45 2165.08,-4274.25 2164.97,-4276.07 2164.7,-4277.91 2164.27,-4279.75 2163.69,-4281.6 2162.96,-4283.44 2162.09,-4285.27 2161.08,-4287.1 2159.95,-4288.9 2158.7,-4290.68 2157.34,-4292.44 2155.88,-4294.16 2154.32,-4295.85 2152.67,-4297.49 2150.94,-4299.09 2149.14,-4300.64 2147.27,-4302.13 2145.34,-4303.57 2143.36,-4304.94 2141.33,-4306.24 2139.25,-4307.48 2137.14,-4308.64 2135,-4309.72 2132.83,-4310.73 2130.63,-4311.65 2128.41,-4312.49 2126.18,-4313.24 2123.93,-4313.9 2121.67,-4314.47 2119.4,-4314.95 2117.13,-4315.33 2114.84,-4315.62 2112.56,-4315.81 2110.27,-4315.91 2107.98,-4315.91 2105.69,-4315.81 2103.4,-4315.62 2101.12,-4315.33 2098.84,-4314.95 2096.58,-4314.47 2094.32,-4313.9 2092.07,-4313.24 2089.83,-4312.49 2087.62,-4311.65 2085.42,-4310.73 2083.25,-4309.72 2081.1,-4308.64 2078.99,-4307.48 2076.92,-4306.24 2074.89,-4304.94 2072.9,-4303.57 2070.97,-4302.13 2069.1,-4300.64 2067.3,-4299.09 2065.57,-4297.49 2063.93,-4295.85 2062.37,-4294.16 2060.9,-4292.44 2059.54,-4290.68 2058.3,-4288.9 2057.16,-4287.1 2056.16,-4285.27 2055.29,-4283.44 2054.56,-4281.6 2053.97,-4279.75 2053.54,-4277.91 2053.27,-4276.07 2053.17,-4274.25 2053.23,-4272.45 2053.47,-4270.66 2053.88,-4268.91 2054.48,-4267.19 2055.26,-4265.5 2056.22,-4263.86 2057.36,-4262.26 2058.69,-4260.71 2060.2,-4259.22 2061.89,-4257.78 2063.75,-4256.41 2065.78,-4255.11 2067.98,-4253.87 2070.33,-4252.71 2072.83,-4251.63 2075.48,-4250.62 2078.26,-4249.7 2081.16,-4248.86 2084.18,-4248.11 2087.3,-4247.45 2090.5,-4246.88 2093.78,-4246.4 2097.12,-4246.02 2100.52,-4245.73 2103.95,-4245.53 2107.4,-4245.44 2110.85,-4245.44 2114.3,-4245.53"/>
<text text-anchor="start" x="2079.95" y="-4290.47" font-family="Times,serif" font-size="14.00">C0027651</text>
<text text-anchor="start" x="2089.68" y="-4276.47" font-family="Times,serif" font-size="14.00">tumors</text>
<text text-anchor="start" x="2093.18" y="-4262.47" font-family="Times,serif" font-size="14.00">60:60</text>
</g>
<!-- id_27524875_DOT_19 -->
<g id="node19" class="node">
<title>id_27524875_DOT_19</title>
<polygon fill="darkkhaki" stroke="darkkhaki" points="1857.31,-3936.11 1860.74,-3936.3 1864.13,-3936.59 1867.47,-3936.98 1870.75,-3937.45 1873.96,-3938.02 1877.07,-3938.68 1880.09,-3939.44 1882.99,-3940.27 1885.77,-3941.2 1888.42,-3942.2 1890.92,-3943.29 1893.28,-3944.45 1895.47,-3945.68 1897.5,-3946.99 1899.37,-3948.36 1901.05,-3949.79 1902.56,-3951.28 1903.89,-3952.83 1905.03,-3954.43 1905.99,-3956.07 1906.77,-3957.76 1907.37,-3959.48 1907.78,-3961.24 1908.02,-3963.02 1908.09,-3964.83 1907.98,-3966.65 1907.71,-3968.48 1907.28,-3970.33 1906.7,-3972.17 1905.96,-3974.01 1905.09,-3975.85 1904.09,-3977.67 1902.96,-3979.48 1901.71,-3981.26 1900.35,-3983.01 1898.89,-3984.74 1897.33,-3986.42 1895.68,-3988.07 1893.95,-3989.67 1892.15,-3991.21 1890.28,-3992.71 1888.35,-3994.14 1886.37,-3995.51 1884.33,-3996.82 1882.26,-3998.05 1880.15,-3999.21 1878.01,-4000.3 1875.83,-4001.3 1873.64,-4002.23 1871.42,-4003.06 1869.19,-4003.81 1866.94,-4004.47 1864.68,-4005.05 1862.41,-4005.52 1860.13,-4005.91 1857.85,-4006.19 1855.56,-4006.39 1853.27,-4006.48 1850.98,-4006.48 1848.7,-4006.39 1846.41,-4006.19 1844.13,-4005.91 1841.85,-4005.52 1839.58,-4005.05 1837.32,-4004.47 1835.07,-4003.81 1832.84,-4003.06 1830.62,-4002.23 1828.43,-4001.3 1826.25,-4000.3 1824.11,-3999.21 1822,-3998.05 1819.92,-3996.82 1817.89,-3995.51 1815.91,-3994.14 1813.98,-3992.71 1812.11,-3991.21 1810.31,-3989.67 1808.58,-3988.07 1806.93,-3986.42 1805.37,-3984.74 1803.91,-3983.01 1802.55,-3981.26 1801.3,-3979.48 1800.17,-3977.67 1799.17,-3975.85 1798.29,-3974.01 1797.56,-3972.17 1796.98,-3970.33 1796.55,-3968.48 1796.28,-3966.65 1796.17,-3964.83 1796.24,-3963.02 1796.47,-3961.24 1796.89,-3959.48 1797.49,-3957.76 1798.26,-3956.07 1799.23,-3954.43 1800.37,-3952.83 1801.7,-3951.28 1803.21,-3949.79 1804.89,-3948.36 1806.75,-3946.99 1808.79,-3945.68 1810.98,-3944.45 1813.34,-3943.29 1815.84,-3942.2 1818.49,-3941.2 1821.27,-3940.27 1824.17,-3939.44 1827.19,-3938.68 1830.3,-3938.02 1833.51,-3937.45 1836.79,-3936.98 1840.13,-3936.59 1843.52,-3936.3 1846.95,-3936.11 1850.4,-3936.01 1853.86,-3936.01 1857.31,-3936.11"/>
<text text-anchor="start" x="1822.96" y="-3981.05" font-family="Times,serif" font-size="14.00">C0027651</text>
<text text-anchor="start" x="1835.41" y="-3967.05" font-family="Times,serif" font-size="14.00">tumor</text>
<text text-anchor="start" x="1829.7" y="-3953.05" font-family="Times,serif" font-size="14.00">114:114</text>
</g>
<!-- id_27524875_DOT_13&#45;&#45;id_27524875_DOT_19 -->
<g id="edge7" class="edge">
<title>id_27524875_DOT_13&#45;&#45;id_27524875_DOT_19</title>
<path fill="none" stroke="black" d="M2082.35,-4248.44C2032.34,-4188.22 1925.43,-4059.5 1876.95,-4001.13"/>
<text text-anchor="middle" x="1953.4" y="-4127.58" font-family="Times,serif" font-size="14.00">0.013120</text>
</g>
<!-- id_27524875_DOT_26 -->
<g id="node26" class="node">
<title>id_27524875_DOT_26</title>
<polygon fill="darkslateblue" stroke="darkslateblue" points="2908.93,-0.23 2915.99,-0.42 2922.97,-0.71 2929.86,-1.09 2936.62,-1.57 2943.22,-2.14 2949.63,-2.8 2955.84,-3.55 2961.82,-4.39 2967.55,-5.31 2973,-6.32 2978.16,-7.4 2983,-8.57 2987.53,-9.8 2991.71,-11.1 2995.54,-12.48 2999.02,-13.91 3002.12,-15.4 3004.86,-16.95 3007.22,-18.55 3009.19,-20.19 3010.8,-21.88 3012.02,-23.6 3012.88,-25.36 3013.37,-27.14 3013.5,-28.94 3013.28,-30.77 3012.73,-32.6 3011.84,-34.44 3010.64,-36.29 3009.13,-38.13 3007.34,-39.97 3005.27,-41.79 3002.94,-43.6 3000.37,-45.38 2997.57,-47.13 2994.55,-48.86 2991.34,-50.54 2987.95,-52.19 2984.39,-53.78 2980.68,-55.33 2976.83,-56.82 2972.86,-58.26 2968.77,-59.63 2964.59,-60.94 2960.32,-62.17 2955.97,-63.33 2951.55,-64.42 2947.08,-65.42 2942.56,-66.34 2937.99,-67.18 2933.39,-67.93 2928.76,-68.59 2924.11,-69.16 2919.43,-69.64 2914.74,-70.02 2910.04,-70.31 2905.33,-70.51 2900.62,-70.6 2895.91,-70.6 2891.19,-70.51 2886.48,-70.31 2881.78,-70.02 2877.09,-69.64 2872.42,-69.16 2867.77,-68.59 2863.14,-67.93 2858.53,-67.18 2853.97,-66.34 2849.45,-65.42 2844.97,-64.42 2840.56,-63.33 2836.21,-62.17 2831.94,-60.94 2827.75,-59.63 2823.67,-58.26 2819.7,-56.82 2815.85,-55.33 2812.14,-53.78 2808.58,-52.19 2805.18,-50.54 2801.97,-48.86 2798.96,-47.13 2796.16,-45.38 2793.58,-43.6 2791.26,-41.79 2789.19,-39.97 2787.39,-38.13 2785.89,-36.29 2784.69,-34.44 2783.8,-32.6 2783.24,-30.77 2783.02,-28.94 2783.16,-27.14 2783.65,-25.36 2784.5,-23.6 2785.73,-21.88 2787.33,-20.19 2789.31,-18.55 2791.67,-16.95 2794.4,-15.4 2797.51,-13.91 2800.98,-12.48 2804.81,-11.1 2809,-9.8 2813.52,-8.57 2818.37,-7.4 2823.53,-6.32 2828.98,-5.31 2834.7,-4.39 2840.68,-3.55 2846.89,-2.8 2853.31,-2.14 2859.91,-1.57 2866.67,-1.09 2873.55,-0.71 2880.54,-0.42 2887.6,-0.23 2894.7,-0.13 2901.82,-0.13 2908.93,-0.23"/>
<text text-anchor="start" x="2869.09" y="-45.17" font-family="Times,serif" font-size="14.00">C1257898</text>
<text text-anchor="start" x="2829.82" y="-31.17" font-family="Times,serif" font-size="14.00">Raman imaging systems</text>
<text text-anchor="start" x="2875.32" y="-17.17" font-family="Times,serif" font-size="14.00">177:179</text>
</g>
<!-- id_27524875_DOT_14&#45;&#45;id_27524875_DOT_26 -->
<g id="edge22" class="edge">
<title>id_27524875_DOT_14&#45;&#45;id_27524875_DOT_26</title>
<path fill="none" stroke="black" stroke-dasharray="1,5" d="M2763.6,-333.04C2792.54,-269.07 2853.68,-133.93 2882.54,-70.12"/>
<text text-anchor="middle" x="2796.82" y="-204.38" font-family="Times,serif" font-size="14.00">0.426563</text>
</g>
<!-- id_27524875_DOT_15 -->
<g id="node15" class="node">
<title>id_27524875_DOT_15</title>
<polygon fill="darkmagenta" stroke="darkmagenta" points="1544.22,-3220.22 1548.21,-3220.41 1552.16,-3220.7 1556.05,-3221.08 1559.87,-3221.56 1563.6,-3222.13 1567.23,-3222.79 1570.74,-3223.54 1574.13,-3224.38 1577.36,-3225.3 1580.45,-3226.31 1583.36,-3227.39 1586.1,-3228.55 1588.66,-3229.79 1591.03,-3231.09 1593.19,-3232.46 1595.16,-3233.9 1596.92,-3235.39 1598.46,-3236.94 1599.79,-3238.54 1600.91,-3240.18 1601.82,-3241.87 1602.51,-3243.59 1603,-3245.34 1603.27,-3247.13 1603.35,-3248.93 1603.23,-3250.75 1602.91,-3252.59 1602.41,-3254.43 1601.73,-3256.28 1600.88,-3258.12 1599.86,-3259.96 1598.69,-3261.78 1597.38,-3263.58 1595.92,-3265.37 1594.34,-3267.12 1592.63,-3268.84 1590.82,-3270.53 1588.9,-3272.17 1586.89,-3273.77 1584.79,-3275.32 1582.61,-3276.81 1580.37,-3278.25 1578.06,-3279.62 1575.69,-3280.92 1573.27,-3282.16 1570.82,-3283.32 1568.32,-3284.4 1565.79,-3285.41 1563.23,-3286.33 1560.65,-3287.17 1558.05,-3287.92 1555.43,-3288.58 1552.8,-3289.15 1550.16,-3289.63 1547.5,-3290.01 1544.85,-3290.3 1542.18,-3290.49 1539.52,-3290.59 1536.85,-3290.59 1534.19,-3290.49 1531.52,-3290.3 1528.87,-3290.01 1526.22,-3289.63 1523.57,-3289.15 1520.94,-3288.58 1518.32,-3287.92 1515.72,-3287.17 1513.14,-3286.33 1510.58,-3285.41 1508.05,-3284.4 1505.56,-3283.32 1503.1,-3282.16 1500.68,-3280.92 1498.32,-3279.62 1496.01,-3278.25 1493.76,-3276.81 1491.58,-3275.32 1489.48,-3273.77 1487.47,-3272.17 1485.55,-3270.53 1483.74,-3268.84 1482.03,-3267.12 1480.45,-3265.37 1478.99,-3263.58 1477.68,-3261.78 1476.51,-3259.96 1475.49,-3258.12 1474.64,-3256.28 1473.96,-3254.43 1473.46,-3252.59 1473.15,-3250.75 1473.02,-3248.93 1473.1,-3247.13 1473.37,-3245.34 1473.86,-3243.59 1474.55,-3241.87 1475.46,-3240.18 1476.58,-3238.54 1477.91,-3236.94 1479.46,-3235.39 1481.21,-3233.9 1483.18,-3232.46 1485.34,-3231.09 1487.71,-3229.79 1490.27,-3228.55 1493.01,-3227.39 1495.93,-3226.31 1499.01,-3225.3 1502.25,-3224.38 1505.63,-3223.54 1509.14,-3222.79 1512.77,-3222.13 1516.5,-3221.56 1520.32,-3221.08 1524.21,-3220.7 1528.16,-3220.41 1532.16,-3220.22 1536.17,-3220.12 1540.2,-3220.12 1544.22,-3220.22"/>
<text text-anchor="start" x="1509.02" y="-3265.16" font-family="Times,serif" font-size="14.00">C0752188</text>
<text text-anchor="start" x="1502.81" y="-3251.16" font-family="Times,serif" font-size="14.00">technologies</text>
<text text-anchor="start" x="1522.24" y="-3237.16" font-family="Times,serif" font-size="14.00">64:64</text>
</g>
<!-- id_27524875_DOT_15&#45;&#45;id_27524875_DOT_23 -->
<g id="edge23" class="edge">
<title>id_27524875_DOT_15&#45;&#45;id_27524875_DOT_23</title>
<path fill="none" stroke="black" stroke-dasharray="1,5" d="M1537.64,-3290.66C1536.39,-3372.46 1533.3,-3574.17 1532.05,-3655.99"/>
<text text-anchor="middle" x="1508.6" y="-3476.12" font-family="Times,serif" font-size="14.00">0.630457</text>
</g>
<!-- id_27524875_DOT_27 -->
<g id="node27" class="node">
<title>id_27524875_DOT_27</title>
<polygon fill="blue" stroke="blue" points="1593.08,-2769.09 1602.26,-2769.29 1611.35,-2769.58 1620.3,-2769.96 1629.08,-2770.44 1637.66,-2771.01 1646,-2771.67 1654.07,-2772.42 1661.85,-2773.26 1669.29,-2774.18 1676.38,-2775.19 1683.08,-2776.27 1689.38,-2777.43 1695.26,-2778.67 1700.7,-2779.97 1705.69,-2781.34 1710.2,-2782.78 1714.24,-2784.27 1717.79,-2785.82 1720.86,-2787.41 1723.43,-2789.06 1725.51,-2790.74 1727.11,-2792.47 1728.22,-2794.22 1728.86,-2796.01 1729.03,-2797.81 1728.75,-2799.63 1728.02,-2801.47 1726.87,-2803.31 1725.31,-2805.16 1723.35,-2807 1721.02,-2808.83 1718.33,-2810.66 1715.3,-2812.46 1711.96,-2814.24 1708.32,-2816 1704.4,-2817.72 1700.22,-2819.41 1695.81,-2821.05 1691.19,-2822.65 1686.36,-2824.2 1681.36,-2825.69 1676.19,-2827.12 1670.88,-2828.5 1665.44,-2829.8 1659.89,-2831.04 1654.24,-2832.2 1648.5,-2833.28 1642.68,-2834.29 1636.8,-2835.21 1630.87,-2836.05 1624.89,-2836.8 1618.87,-2837.46 1612.82,-2838.03 1606.74,-2838.51 1600.64,-2838.89 1594.53,-2839.18 1588.41,-2839.37 1582.29,-2839.47 1576.16,-2839.47 1570.03,-2839.37 1563.91,-2839.18 1557.8,-2838.89 1551.7,-2838.51 1545.63,-2838.03 1539.57,-2837.46 1533.55,-2836.8 1527.57,-2836.05 1521.64,-2835.21 1515.76,-2834.29 1509.94,-2833.28 1504.2,-2832.2 1498.55,-2831.04 1493,-2829.8 1487.56,-2828.5 1482.25,-2827.12 1477.08,-2825.69 1472.08,-2824.2 1467.26,-2822.65 1462.63,-2821.05 1458.22,-2819.41 1454.04,-2817.72 1450.13,-2816 1446.48,-2814.24 1443.14,-2812.46 1440.11,-2810.66 1437.42,-2808.83 1435.09,-2807 1433.13,-2805.16 1431.57,-2803.31 1430.42,-2801.47 1429.69,-2799.63 1429.41,-2797.81 1429.58,-2796.01 1430.22,-2794.22 1431.33,-2792.47 1432.93,-2790.74 1435.01,-2789.06 1437.58,-2787.41 1440.65,-2785.82 1444.2,-2784.27 1448.24,-2782.78 1452.76,-2781.34 1457.74,-2779.97 1463.18,-2778.67 1469.06,-2777.43 1475.36,-2776.27 1482.07,-2775.19 1489.15,-2774.18 1496.59,-2773.26 1504.37,-2772.42 1512.44,-2771.67 1520.78,-2771.01 1529.36,-2770.44 1538.14,-2769.96 1547.1,-2769.58 1556.18,-2769.29 1565.36,-2769.09 1574.59,-2769 1583.85,-2769 1593.08,-2769.09"/>
<text text-anchor="start" x="1550.05" y="-2814.03" font-family="Times,serif" font-size="14.00">C1537028</text>
<text text-anchor="start" x="1487.85" y="-2800.03" font-family="Times,serif" font-size="14.00">spectral demultiplexing methods</text>
<text text-anchor="start" x="1556.28" y="-2786.03" font-family="Times,serif" font-size="14.00">181:183</text>
</g>
<!-- id_27524875_DOT_15&#45;&#45;id_27524875_DOT_27 -->
<g id="edge24" class="edge">
<title>id_27524875_DOT_15&#45;&#45;id_27524875_DOT_27</title>
<path fill="none" stroke="black" stroke-dasharray="1,5" d="M1541.41,-3219.96C1549.08,-3135.63 1568.36,-2923.63 1576.02,-2839.47"/>
<text text-anchor="middle" x="1532.72" y="-3032.51" font-family="Times,serif" font-size="14.00">0.763811</text>
</g>
<!-- id_27524875_DOT_18&#45;&#45;id_27524875_DOT_27 -->
<g id="edge25" class="edge">
<title>id_27524875_DOT_18&#45;&#45;id_27524875_DOT_27</title>
<path fill="none" stroke="black" stroke-dasharray="1,5" d="M1220.13,-2640.37C1288.27,-2671.46 1424.93,-2733.82 1508.61,-2772.01"/>
<text text-anchor="middle" x="1338.12" y="-2708.99" font-family="Times,serif" font-size="14.00">0.764586</text>
</g>
<!-- id_27524875_DOT_19&#45;&#45;id_27524875_DOT_23 -->
<g id="edge26" class="edge">
<title>id_27524875_DOT_19&#45;&#45;id_27524875_DOT_23</title>
<path fill="none" stroke="black" stroke-dasharray="1,5" d="M1817.82,-3941.29C1754.98,-3886.43 1622.35,-3770.63 1562.26,-3718.17"/>
<text text-anchor="middle" x="1663.79" y="-3832.53" font-family="Times,serif" font-size="14.00">0.802076</text>
</g>
<!-- id_27524875_DOT_22 -->
<g id="node22" class="node">
<title>id_27524875_DOT_22</title>
<polygon fill="cadetblue" stroke="cadetblue" points="2244.63,-1760.74 2248.04,-1760.94 2251.42,-1761.23 2254.74,-1761.61 2258.01,-1762.09 2261.2,-1762.66 2264.3,-1763.32 2267.3,-1764.07 2270.19,-1764.91 2272.95,-1765.83 2275.59,-1766.84 2278.08,-1767.92 2280.42,-1769.08 2282.61,-1770.32 2284.63,-1771.62 2286.48,-1772.99 2288.16,-1774.43 2289.66,-1775.92 2290.98,-1777.47 2292.12,-1779.07 2293.08,-1780.71 2293.85,-1782.4 2294.45,-1784.12 2294.86,-1785.87 2295.1,-1787.66 2295.16,-1789.46 2295.05,-1791.28 2294.78,-1793.12 2294.36,-1794.96 2293.78,-1796.81 2293.05,-1798.65 2292.18,-1800.48 2291.18,-1802.31 2290.06,-1804.11 2288.81,-1805.89 2287.46,-1807.65 2286,-1809.37 2284.45,-1811.06 2282.81,-1812.7 2281.09,-1814.3 2279.3,-1815.85 2277.44,-1817.34 2275.52,-1818.78 2273.55,-1820.15 2271.52,-1821.45 2269.46,-1822.69 2267.36,-1823.85 2265.22,-1824.93 2263.06,-1825.94 2260.88,-1826.86 2258.67,-1827.7 2256.45,-1828.45 2254.21,-1829.11 2251.96,-1829.68 2249.7,-1830.16 2247.44,-1830.54 2245.17,-1830.83 2242.89,-1831.02 2240.61,-1831.12 2238.34,-1831.12 2236.06,-1831.02 2233.78,-1830.83 2231.51,-1830.54 2229.25,-1830.16 2226.99,-1829.68 2224.74,-1829.11 2222.5,-1828.45 2220.28,-1827.7 2218.07,-1826.86 2215.89,-1825.94 2213.72,-1824.93 2211.59,-1823.85 2209.49,-1822.69 2207.43,-1821.45 2205.4,-1820.15 2203.43,-1818.78 2201.51,-1817.34 2199.65,-1815.85 2197.86,-1814.3 2196.14,-1812.7 2194.5,-1811.06 2192.95,-1809.37 2191.49,-1807.65 2190.14,-1805.89 2188.89,-1804.11 2187.77,-1802.31 2186.77,-1800.48 2185.9,-1798.65 2185.17,-1796.81 2184.59,-1794.96 2184.16,-1793.12 2183.9,-1791.28 2183.79,-1789.46 2183.85,-1787.66 2184.09,-1785.87 2184.5,-1784.12 2185.1,-1782.4 2185.87,-1780.71 2186.83,-1779.07 2187.97,-1777.47 2189.29,-1775.92 2190.79,-1774.43 2192.47,-1772.99 2194.32,-1771.62 2196.34,-1770.32 2198.53,-1769.08 2200.87,-1767.92 2203.36,-1766.84 2206,-1765.83 2208.76,-1764.91 2211.65,-1764.07 2214.65,-1763.32 2217.75,-1762.66 2220.94,-1762.09 2224.21,-1761.61 2227.53,-1761.23 2230.91,-1760.94 2234.32,-1760.74 2237.75,-1760.65 2241.19,-1760.65 2244.63,-1760.74"/>
<text text-anchor="start" x="2210.56" y="-1805.68" font-family="Times,serif" font-size="14.00">C0011923</text>
<text text-anchor="start" x="2216.53" y="-1791.68" font-family="Times,serif" font-size="14.00">imaging</text>
<text text-anchor="start" x="2216.53" y="-1777.68" font-family="Times,serif" font-size="14.00">154:154</text>
</g>
<!-- id_27524875_DOT_20&#45;&#45;id_27524875_DOT_22 -->
<g id="edge8" class="edge">
<title>id_27524875_DOT_20&#45;&#45;id_27524875_DOT_22</title>
<path fill="none" stroke="black" d="M2331.28,-1448.94C2312.13,-1521.29 2267.99,-1688.12 2248.74,-1760.89"/>
<text text-anchor="middle" x="2263.76" y="-1607.71" font-family="Times,serif" font-size="14.00">0.007919</text>
</g>
<!-- id_27524875_DOT_22&#45;&#45;id_27524875_DOT_25 -->
<g id="edge9" class="edge">
<title>id_27524875_DOT_22&#45;&#45;id_27524875_DOT_25</title>
<path fill="none" stroke="black" d="M2239.48,-1831.37C2239.5,-1909.37 2239.54,-2094.92 2239.55,-2172.7"/>
<text text-anchor="middle" x="2213.27" y="-2004.84" font-family="Times,serif" font-size="14.00">0.004092</text>
</g>
<!-- id_27524875_DOT_25&#45;&#45;id_27524875_DOT_28 -->
<g id="edge10" class="edge">
<title>id_27524875_DOT_25&#45;&#45;id_27524875_DOT_28</title>
<path fill="none" stroke="black" d="M2218.15,-2239.19C2171.94,-2306.61 2063.09,-2465.39 2014.8,-2535.84"/>
<text text-anchor="middle" x="2090.23" y="-2390.31" font-family="Times,serif" font-size="14.00">0.217630</text>
</g>
<!-- id_27524875_DOT_27&#45;&#45;id_27524875_DOT_28 -->
<g id="edge27" class="edge">
<title>id_27524875_DOT_27&#45;&#45;id_27524875_DOT_28</title>
<path fill="none" stroke="black" stroke-dasharray="1,5" d="M1637.78,-2771C1719.39,-2724.69 1865.83,-2641.59 1941.99,-2598.37"/>
<text text-anchor="middle" x="1763.64" y="-2687.49" font-family="Times,serif" font-size="14.00">0.697868</text>
</g>
</g>
</svg>
