<?xml version="1.0" encoding="UTF-8" standalone="no"?>
<!DOCTYPE svg PUBLIC "-//W3C//DTD SVG 1.1//EN"
 "http://www.w3.org/Graphics/SVG/1.1/DTD/svg11.dtd">
<!-- Generated by graphviz version 2.42.3 (20191010.1750)
 -->
<!-- Title: MST Pages: 1 -->
<svg width="5431pt" height="3926pt"
 viewBox="0.00 0.00 5431.20 3926.16" xmlns="http://www.w3.org/2000/svg" xmlns:xlink="http://www.w3.org/1999/xlink">
<g id="graph0" class="graph" transform="scale(1 1) rotate(0) translate(4 3922.16)">
<title>MST</title>
<polygon fill="white" stroke="transparent" points="-4,4 -4,-3922.16 5427.2,-3922.16 5427.2,4 -4,4"/>
<!-- id_27541815_DOT_1 -->
<g id="node1" class="node">
<title>id_27541815_DOT_1</title>
<polygon fill="aquamarine" stroke="aquamarine" points="874.77,-1088 878.2,-1088.19 881.59,-1088.48 884.94,-1088.86 888.22,-1089.34 891.42,-1089.91 894.54,-1090.57 897.56,-1091.32 900.46,-1092.16 903.24,-1093.08 905.88,-1094.09 908.39,-1095.17 910.74,-1096.33 912.94,-1097.57 914.97,-1098.87 916.83,-1100.24 918.52,-1101.68 920.03,-1103.17 921.36,-1104.72 922.5,-1106.32 923.46,-1107.96 924.24,-1109.65 924.83,-1111.37 925.25,-1113.12 925.49,-1114.91 925.55,-1116.71 925.45,-1118.53 925.18,-1120.37 924.75,-1122.21 924.16,-1124.06 923.43,-1125.9 922.56,-1127.74 921.56,-1129.56 920.42,-1131.36 919.18,-1133.15 917.82,-1134.9 916.35,-1136.62 914.79,-1138.31 913.15,-1139.95 911.42,-1141.55 909.61,-1143.1 907.75,-1144.59 905.82,-1146.03 903.83,-1147.4 901.8,-1148.7 899.73,-1149.94 897.62,-1151.1 895.47,-1152.18 893.3,-1153.19 891.1,-1154.11 888.89,-1154.95 886.65,-1155.7 884.4,-1156.36 882.14,-1156.93 879.87,-1157.41 877.6,-1157.79 875.32,-1158.08 873.03,-1158.27 870.74,-1158.37 868.45,-1158.37 866.16,-1158.27 863.88,-1158.08 861.59,-1157.79 859.32,-1157.41 857.05,-1156.93 854.79,-1156.36 852.54,-1155.7 850.3,-1154.95 848.09,-1154.11 845.89,-1153.19 843.72,-1152.18 841.58,-1151.1 839.46,-1149.94 837.39,-1148.7 835.36,-1147.4 833.38,-1146.03 831.45,-1144.59 829.58,-1143.1 827.77,-1141.55 826.05,-1139.95 824.4,-1138.31 822.84,-1136.62 821.38,-1134.9 820.02,-1133.15 818.77,-1131.36 817.64,-1129.56 816.63,-1127.74 815.76,-1125.9 815.03,-1124.06 814.45,-1122.21 814.02,-1120.37 813.75,-1118.53 813.64,-1116.71 813.7,-1114.91 813.94,-1113.12 814.36,-1111.37 814.95,-1109.65 815.73,-1107.96 816.69,-1106.32 817.84,-1104.72 819.16,-1103.17 820.67,-1101.68 822.36,-1100.24 824.22,-1098.87 826.25,-1097.57 828.45,-1096.33 830.8,-1095.17 833.31,-1094.09 835.95,-1093.08 838.73,-1092.16 841.64,-1091.32 844.65,-1090.57 847.77,-1089.91 850.97,-1089.34 854.25,-1088.86 857.6,-1088.48 860.99,-1088.19 864.42,-1088 867.87,-1087.9 871.32,-1087.9 874.77,-1088"/>
<text text-anchor="start" x="840.43" y="-1132.93" font-family="Times,serif" font-size="14.00">C1881977</text>
<text text-anchor="start" x="850.15" y="-1118.93" font-family="Times,serif" font-size="14.00">Porous</text>
<text text-anchor="start" x="860.65" y="-1104.93" font-family="Times,serif" font-size="14.00">3:3</text>
</g>
<!-- id_27541815_DOT_6 -->
<g id="node6" class="node">
<title>id_27541815_DOT_6</title>
<polygon fill="aquamarine" stroke="aquamarine" points="1268.74,-1200.48 1272.17,-1200.67 1275.56,-1200.96 1278.91,-1201.34 1282.19,-1201.82 1285.39,-1202.39 1288.51,-1203.05 1291.52,-1203.8 1294.43,-1204.64 1297.21,-1205.56 1299.85,-1206.57 1302.36,-1207.65 1304.71,-1208.81 1306.91,-1210.05 1308.94,-1211.35 1310.8,-1212.73 1312.49,-1214.16 1314,-1215.65 1315.32,-1217.2 1316.47,-1218.8 1317.43,-1220.44 1318.21,-1222.13 1318.8,-1223.85 1319.22,-1225.61 1319.46,-1227.39 1319.52,-1229.19 1319.42,-1231.02 1319.14,-1232.85 1318.71,-1234.69 1318.13,-1236.54 1317.4,-1238.38 1316.53,-1240.22 1315.52,-1242.04 1314.39,-1243.85 1313.14,-1245.63 1311.78,-1247.38 1310.32,-1249.11 1308.76,-1250.79 1307.11,-1252.44 1305.39,-1254.03 1303.58,-1255.58 1301.71,-1257.07 1299.79,-1258.51 1297.8,-1259.88 1295.77,-1261.18 1293.7,-1262.42 1291.58,-1263.58 1289.44,-1264.67 1287.27,-1265.67 1285.07,-1266.59 1282.86,-1267.43 1280.62,-1268.18 1278.37,-1268.84 1276.11,-1269.41 1273.84,-1269.89 1271.57,-1270.27 1269.28,-1270.56 1267,-1270.76 1264.71,-1270.85 1262.42,-1270.85 1260.13,-1270.76 1257.85,-1270.56 1255.56,-1270.27 1253.29,-1269.89 1251.02,-1269.41 1248.76,-1268.84 1246.51,-1268.18 1244.27,-1267.43 1242.06,-1266.59 1239.86,-1265.67 1237.69,-1264.67 1235.54,-1263.58 1233.43,-1262.42 1231.36,-1261.18 1229.33,-1259.88 1227.34,-1258.51 1225.42,-1257.07 1223.55,-1255.58 1221.74,-1254.03 1220.02,-1252.44 1218.37,-1250.79 1216.81,-1249.11 1215.35,-1247.38 1213.99,-1245.63 1212.74,-1243.85 1211.61,-1242.04 1210.6,-1240.22 1209.73,-1238.38 1209,-1236.54 1208.42,-1234.69 1207.98,-1232.85 1207.71,-1231.02 1207.61,-1229.19 1207.67,-1227.39 1207.91,-1225.61 1208.33,-1223.85 1208.92,-1222.13 1209.7,-1220.44 1210.66,-1218.8 1211.81,-1217.2 1213.13,-1215.65 1214.64,-1214.16 1216.33,-1212.73 1218.19,-1211.35 1220.22,-1210.05 1222.42,-1208.81 1224.77,-1207.65 1227.28,-1206.57 1229.92,-1205.56 1232.7,-1204.64 1235.61,-1203.8 1238.62,-1203.05 1241.74,-1202.39 1244.94,-1201.82 1248.22,-1201.34 1251.57,-1200.96 1254.96,-1200.67 1258.39,-1200.48 1261.84,-1200.38 1265.29,-1200.38 1268.74,-1200.48"/>
<text text-anchor="start" x="1234.4" y="-1245.42" font-family="Times,serif" font-size="14.00">C1881977</text>
<text text-anchor="start" x="1244.51" y="-1231.42" font-family="Times,serif" font-size="14.00">porous</text>
<text text-anchor="start" x="1247.62" y="-1217.42" font-family="Times,serif" font-size="14.00">18:18</text>
</g>
<!-- id_27541815_DOT_1&#45;&#45;id_27541815_DOT_6 -->
<g id="edge1" class="edge">
<title>id_27541815_DOT_1&#45;&#45;id_27541815_DOT_6</title>
<path fill="none" stroke="black" d="M916.73,-1136.59C990.36,-1157.61 1132.25,-1198.12 1209.77,-1220.26"/>
<text text-anchor="middle" x="1037" y="-1181.22" font-family="Times,serif" font-size="14.00">0.055950</text>
</g>
<!-- id_27541815_DOT_2 -->
<g id="node2" class="node">
<title>id_27541815_DOT_2</title>
<polygon fill="bisque" stroke="bisque" points="4452.72,-1914.36 4456.15,-1914.55 4459.54,-1914.84 4462.88,-1915.22 4466.17,-1915.7 4469.37,-1916.27 4472.49,-1916.93 4475.5,-1917.68 4478.4,-1918.52 4481.18,-1919.44 4483.83,-1920.45 4486.34,-1921.53 4488.69,-1922.69 4490.89,-1923.93 4492.92,-1925.23 4494.78,-1926.6 4496.47,-1928.04 4497.97,-1929.53 4499.3,-1931.08 4500.45,-1932.68 4501.41,-1934.32 4502.18,-1936.01 4502.78,-1937.73 4503.2,-1939.49 4503.43,-1941.27 4503.5,-1943.07 4503.39,-1944.9 4503.12,-1946.73 4502.69,-1948.57 4502.11,-1950.42 4501.38,-1952.26 4500.51,-1954.1 4499.5,-1955.92 4498.37,-1957.72 4497.12,-1959.51 4495.76,-1961.26 4494.3,-1962.98 4492.74,-1964.67 4491.09,-1966.31 4489.36,-1967.91 4487.56,-1969.46 4485.69,-1970.95 4483.76,-1972.39 4481.78,-1973.76 4479.75,-1975.06 4477.67,-1976.3 4475.56,-1977.46 4473.42,-1978.54 4471.25,-1979.55 4469.05,-1980.47 4466.83,-1981.31 4464.6,-1982.06 4462.35,-1982.72 4460.09,-1983.29 4457.82,-1983.77 4455.54,-1984.15 4453.26,-1984.44 4450.98,-1984.63 4448.69,-1984.73 4446.4,-1984.73 4444.11,-1984.63 4441.82,-1984.44 4439.54,-1984.15 4437.26,-1983.77 4434.99,-1983.29 4432.73,-1982.72 4430.49,-1982.06 4428.25,-1981.31 4426.03,-1980.47 4423.84,-1979.55 4421.67,-1978.54 4419.52,-1977.46 4417.41,-1976.3 4415.34,-1975.06 4413.31,-1973.76 4411.32,-1972.39 4409.39,-1970.95 4407.52,-1969.46 4405.72,-1967.91 4403.99,-1966.31 4402.35,-1964.67 4400.79,-1962.98 4399.32,-1961.26 4397.96,-1959.51 4396.71,-1957.72 4395.58,-1955.92 4394.58,-1954.1 4393.71,-1952.26 4392.98,-1950.42 4392.39,-1948.57 4391.96,-1946.73 4391.69,-1944.9 4391.59,-1943.07 4391.65,-1941.27 4391.89,-1939.49 4392.3,-1937.73 4392.9,-1936.01 4393.68,-1934.32 4394.64,-1932.68 4395.78,-1931.08 4397.11,-1929.53 4398.62,-1928.04 4400.3,-1926.6 4402.17,-1925.23 4404.2,-1923.93 4406.39,-1922.69 4408.75,-1921.53 4411.25,-1920.45 4413.9,-1919.44 4416.68,-1918.52 4419.58,-1917.68 4422.6,-1916.93 4425.71,-1916.27 4428.92,-1915.7 4432.2,-1915.22 4435.54,-1914.84 4438.94,-1914.55 4442.36,-1914.36 4445.81,-1914.26 4449.27,-1914.26 4452.72,-1914.36"/>
<text text-anchor="start" x="4418.37" y="-1959.3" font-family="Times,serif" font-size="14.00">C0037107</text>
<text text-anchor="start" x="4427.71" y="-1945.3" font-family="Times,serif" font-size="14.00">Silicon</text>
<text text-anchor="start" x="4438.6" y="-1931.3" font-family="Times,serif" font-size="14.00">4:4</text>
</g>
<!-- id_27541815_DOT_7 -->
<g id="node7" class="node">
<title>id_27541815_DOT_7</title>
<polygon fill="bisque" stroke="bisque" points="4290.06,-2291.84 4293.49,-2292.03 4296.88,-2292.32 4300.22,-2292.7 4303.5,-2293.18 4306.71,-2293.75 4309.82,-2294.41 4312.84,-2295.16 4315.74,-2296 4318.52,-2296.92 4321.17,-2297.93 4323.67,-2299.01 4326.03,-2300.17 4328.22,-2301.41 4330.25,-2302.71 4332.12,-2304.08 4333.8,-2305.52 4335.31,-2307.01 4336.64,-2308.56 4337.78,-2310.16 4338.74,-2311.8 4339.52,-2313.49 4340.12,-2315.21 4340.53,-2316.97 4340.77,-2318.75 4340.84,-2320.55 4340.73,-2322.38 4340.46,-2324.21 4340.03,-2326.05 4339.44,-2327.9 4338.71,-2329.74 4337.84,-2331.58 4336.84,-2333.4 4335.71,-2335.2 4334.46,-2336.99 4333.1,-2338.74 4331.63,-2340.46 4330.08,-2342.15 4328.43,-2343.79 4326.7,-2345.39 4324.9,-2346.94 4323.03,-2348.43 4321.1,-2349.87 4319.12,-2351.24 4317.08,-2352.54 4315.01,-2353.78 4312.9,-2354.94 4310.75,-2356.02 4308.58,-2357.03 4306.39,-2357.95 4304.17,-2358.79 4301.94,-2359.54 4299.69,-2360.2 4297.43,-2360.77 4295.16,-2361.25 4292.88,-2361.63 4290.6,-2361.92 4288.31,-2362.11 4286.02,-2362.21 4283.73,-2362.21 4281.45,-2362.11 4279.16,-2361.92 4276.88,-2361.63 4274.6,-2361.25 4272.33,-2360.77 4270.07,-2360.2 4267.82,-2359.54 4265.59,-2358.79 4263.37,-2357.95 4261.18,-2357.03 4259,-2356.02 4256.86,-2354.94 4254.75,-2353.78 4252.67,-2352.54 4250.64,-2351.24 4248.66,-2349.87 4246.73,-2348.43 4244.86,-2346.94 4243.06,-2345.39 4241.33,-2343.79 4239.68,-2342.15 4238.12,-2340.46 4236.66,-2338.74 4235.3,-2336.99 4234.05,-2335.2 4232.92,-2333.4 4231.92,-2331.58 4231.04,-2329.74 4230.31,-2327.9 4229.73,-2326.05 4229.3,-2324.21 4229.03,-2322.38 4228.92,-2320.55 4228.99,-2318.75 4229.22,-2316.97 4229.64,-2315.21 4230.24,-2313.49 4231.01,-2311.8 4231.98,-2310.16 4233.12,-2308.56 4234.45,-2307.01 4235.96,-2305.52 4237.64,-2304.08 4239.5,-2302.71 4241.53,-2301.41 4243.73,-2300.17 4246.09,-2299.01 4248.59,-2297.93 4251.24,-2296.92 4254.02,-2296 4256.92,-2295.16 4259.93,-2294.41 4263.05,-2293.75 4266.26,-2293.18 4269.54,-2292.7 4272.88,-2292.32 4276.27,-2292.03 4279.7,-2291.84 4283.15,-2291.74 4286.61,-2291.74 4290.06,-2291.84"/>
<text text-anchor="start" x="4255.71" y="-2336.78" font-family="Times,serif" font-size="14.00">C0037107</text>
<text text-anchor="start" x="4266.21" y="-2322.78" font-family="Times,serif" font-size="14.00">silicon</text>
<text text-anchor="start" x="4268.93" y="-2308.78" font-family="Times,serif" font-size="14.00">19:19</text>
</g>
<!-- id_27541815_DOT_2&#45;&#45;id_27541815_DOT_7 -->
<g id="edge2" class="edge">
<title>id_27541815_DOT_2&#45;&#45;id_27541815_DOT_7</title>
<path fill="none" stroke="black" d="M4433.11,-1982.99C4402.39,-2054.27 4330.85,-2220.3 4299.75,-2292.46"/>
<text text-anchor="middle" x="4340.18" y="-2140.53" font-family="Times,serif" font-size="14.00">0.002257</text>
</g>
<!-- id_27541815_DOT_3 -->
<g id="node3" class="node">
<title>id_27541815_DOT_3</title>
<polygon fill="blue" stroke="blue" points="2030.34,-2938.65 2036.07,-2938.84 2041.74,-2939.13 2047.33,-2939.51 2052.81,-2939.99 2058.17,-2940.56 2063.38,-2941.22 2068.42,-2941.97 2073.27,-2942.81 2077.92,-2943.73 2082.34,-2944.74 2086.53,-2945.82 2090.46,-2946.98 2094.13,-2948.22 2097.53,-2949.52 2100.64,-2950.89 2103.46,-2952.33 2105.98,-2953.82 2108.2,-2955.37 2110.11,-2956.97 2111.72,-2958.61 2113.02,-2960.3 2114.01,-2962.02 2114.71,-2963.78 2115.1,-2965.56 2115.21,-2967.36 2115.03,-2969.19 2114.58,-2971.02 2113.86,-2972.86 2112.89,-2974.71 2111.67,-2976.55 2110.21,-2978.39 2108.53,-2980.21 2106.64,-2982.01 2104.55,-2983.8 2102.28,-2985.55 2099.83,-2987.27 2097.23,-2988.96 2094.47,-2990.6 2091.59,-2992.2 2088.57,-2993.75 2085.45,-2995.24 2082.22,-2996.68 2078.91,-2998.05 2075.51,-2999.35 2072.05,-3000.59 2068.52,-3001.75 2064.94,-3002.83 2061.3,-3003.84 2057.63,-3004.76 2053.93,-3005.6 2050.2,-3006.35 2046.44,-3007.01 2042.66,-3007.58 2038.87,-3008.06 2035.06,-3008.44 2031.25,-3008.73 2027.42,-3008.92 2023.6,-3009.02 2019.77,-3009.02 2015.95,-3008.92 2012.13,-3008.73 2008.31,-3008.44 2004.51,-3008.06 2000.71,-3007.58 1996.94,-3007.01 1993.18,-3006.35 1989.44,-3005.6 1985.74,-3004.76 1982.07,-3003.84 1978.44,-3002.83 1974.85,-3001.75 1971.33,-3000.59 1967.86,-2999.35 1964.46,-2998.05 1961.15,-2996.68 1957.92,-2995.24 1954.8,-2993.75 1951.79,-2992.2 1948.9,-2990.6 1946.15,-2988.96 1943.54,-2987.27 1941.09,-2985.55 1938.82,-2983.8 1936.73,-2982.01 1934.84,-2980.21 1933.16,-2978.39 1931.71,-2976.55 1930.49,-2974.71 1929.51,-2972.86 1928.79,-2971.02 1928.34,-2969.19 1928.16,-2967.36 1928.27,-2965.56 1928.67,-2963.78 1929.36,-2962.02 1930.36,-2960.3 1931.66,-2958.61 1933.26,-2956.97 1935.18,-2955.37 1937.4,-2953.82 1939.92,-2952.33 1942.74,-2950.89 1945.85,-2949.52 1949.24,-2948.22 1952.91,-2946.98 1956.85,-2945.82 1961.03,-2944.74 1965.46,-2943.73 1970.1,-2942.81 1974.96,-2941.97 1980,-2941.22 1985.2,-2940.56 1990.56,-2939.99 1996.04,-2939.51 2001.63,-2939.13 2007.3,-2938.84 2013.03,-2938.65 2018.8,-2938.55 2024.58,-2938.55 2030.34,-2938.65"/>
<text text-anchor="start" x="1992.52" y="-2983.59" font-family="Times,serif" font-size="14.00">C0009361</text>
<text text-anchor="start" x="1967.43" y="-2969.59" font-family="Times,serif" font-size="14.00">Colloidal Solutions</text>
<text text-anchor="start" x="2012.74" y="-2955.59" font-family="Times,serif" font-size="14.00">7:8</text>
</g>
<!-- id_27541815_DOT_5 -->
<g id="node5" class="node">
<title>id_27541815_DOT_5</title>
<polygon fill="blue" stroke="blue" points="2130.55,-3300.13 2136.05,-3300.33 2141.5,-3300.61 2146.86,-3301 2152.13,-3301.48 2157.27,-3302.05 2162.27,-3302.71 2167.11,-3303.46 2171.77,-3304.3 2176.23,-3305.22 2180.48,-3306.22 2184.49,-3307.31 2188.27,-3308.47 2191.8,-3309.7 2195.06,-3311.01 2198.04,-3312.38 2200.75,-3313.81 2203.17,-3315.31 2205.3,-3316.85 2207.14,-3318.45 2208.68,-3320.1 2209.93,-3321.78 2210.89,-3323.51 2211.55,-3325.26 2211.93,-3327.04 2212.04,-3328.85 2211.87,-3330.67 2211.43,-3332.51 2210.74,-3334.35 2209.81,-3336.19 2208.63,-3338.04 2207.23,-3339.87 2205.62,-3341.69 2203.81,-3343.5 2201.8,-3345.28 2199.62,-3347.04 2197.27,-3348.76 2194.77,-3350.45 2192.13,-3352.09 2189.35,-3353.69 2186.46,-3355.24 2183.46,-3356.73 2180.36,-3358.16 2177.18,-3359.53 2173.92,-3360.84 2170.59,-3362.07 2167.21,-3363.24 2163.76,-3364.32 2160.28,-3365.33 2156.75,-3366.25 2153.2,-3367.09 2149.61,-3367.84 2146,-3368.5 2142.38,-3369.07 2138.73,-3369.55 2135.08,-3369.93 2131.42,-3370.22 2127.75,-3370.41 2124.08,-3370.51 2120.4,-3370.51 2116.73,-3370.41 2113.06,-3370.22 2109.4,-3369.93 2105.74,-3369.55 2102.1,-3369.07 2098.47,-3368.5 2094.87,-3367.84 2091.28,-3367.09 2087.72,-3366.25 2084.2,-3365.33 2080.71,-3364.32 2077.27,-3363.24 2073.89,-3362.07 2070.56,-3360.84 2067.3,-3359.53 2064.11,-3358.16 2061.02,-3356.73 2058.02,-3355.24 2055.13,-3353.69 2052.35,-3352.09 2049.71,-3350.45 2047.21,-3348.76 2044.86,-3347.04 2042.67,-3345.28 2040.67,-3343.5 2038.86,-3341.69 2037.24,-3339.87 2035.85,-3338.04 2034.67,-3336.19 2033.74,-3334.35 2033.05,-3332.51 2032.61,-3330.67 2032.44,-3328.85 2032.54,-3327.04 2032.93,-3325.26 2033.59,-3323.51 2034.55,-3321.78 2035.8,-3320.1 2037.34,-3318.45 2039.18,-3316.85 2041.31,-3315.31 2043.73,-3313.81 2046.43,-3312.38 2049.42,-3311.01 2052.68,-3309.7 2056.21,-3308.47 2059.98,-3307.31 2064,-3306.22 2068.25,-3305.22 2072.71,-3304.3 2077.37,-3303.46 2082.21,-3302.71 2087.21,-3302.05 2092.35,-3301.48 2097.62,-3301 2102.98,-3300.61 2108.43,-3300.33 2113.93,-3300.13 2119.47,-3300.04 2125.01,-3300.04 2130.55,-3300.13"/>
<text text-anchor="start" x="2093.07" y="-3345.07" font-family="Times,serif" font-size="14.00">C0009361</text>
<text text-anchor="start" x="2070.71" y="-3331.07" font-family="Times,serif" font-size="14.00">colloidal solutions</text>
<text text-anchor="start" x="2106.29" y="-3317.07" font-family="Times,serif" font-size="14.00">12:13</text>
</g>
<!-- id_27541815_DOT_3&#45;&#45;id_27541815_DOT_5 -->
<g id="edge3" class="edge">
<title>id_27541815_DOT_3&#45;&#45;id_27541815_DOT_5</title>
<path fill="none" stroke="black" d="M2031.42,-3008.78C2050.62,-3077.79 2093.17,-3230.75 2112.43,-3300"/>
<text text-anchor="middle" x="2045.67" y="-3157.19" font-family="Times,serif" font-size="14.00">0.018189</text>
</g>
<!-- id_27541815_DOT_9 -->
<g id="node9" class="node">
<title>id_27541815_DOT_9</title>
<polygon fill="cadetblue" stroke="cadetblue" points="2256.39,-2550.6 2259.82,-2550.79 2263.21,-2551.08 2266.55,-2551.46 2269.83,-2551.94 2273.04,-2552.51 2276.15,-2553.17 2279.17,-2553.92 2282.07,-2554.76 2284.85,-2555.68 2287.5,-2556.69 2290,-2557.77 2292.36,-2558.94 2294.55,-2560.17 2296.59,-2561.48 2298.45,-2562.85 2300.13,-2564.28 2301.64,-2565.77 2302.97,-2567.32 2304.11,-2568.92 2305.07,-2570.56 2305.85,-2572.25 2306.45,-2573.97 2306.86,-2575.73 2307.1,-2577.51 2307.17,-2579.31 2307.06,-2581.14 2306.79,-2582.97 2306.36,-2584.82 2305.78,-2586.66 2305.04,-2588.5 2304.17,-2590.34 2303.17,-2592.16 2302.04,-2593.97 2300.79,-2595.75 2299.43,-2597.5 2297.97,-2599.23 2296.41,-2600.91 2294.76,-2602.56 2293.03,-2604.16 2291.23,-2605.7 2289.36,-2607.2 2287.43,-2608.63 2285.45,-2610 2283.41,-2611.31 2281.34,-2612.54 2279.23,-2613.7 2277.09,-2614.79 2274.91,-2615.79 2272.72,-2616.71 2270.5,-2617.55 2268.27,-2618.3 2266.02,-2618.96 2263.76,-2619.53 2261.49,-2620.01 2259.21,-2620.4 2256.93,-2620.68 2254.64,-2620.88 2252.35,-2620.97 2250.06,-2620.97 2247.78,-2620.88 2245.49,-2620.68 2243.21,-2620.4 2240.93,-2620.01 2238.66,-2619.53 2236.4,-2618.96 2234.15,-2618.3 2231.92,-2617.55 2229.7,-2616.71 2227.51,-2615.79 2225.33,-2614.79 2223.19,-2613.7 2221.08,-2612.54 2219,-2611.31 2216.97,-2610 2214.99,-2608.63 2213.06,-2607.2 2211.19,-2605.7 2209.39,-2604.16 2207.66,-2602.56 2206.01,-2600.91 2204.45,-2599.23 2202.99,-2597.5 2201.63,-2595.75 2200.38,-2593.97 2199.25,-2592.16 2198.25,-2590.34 2197.37,-2588.5 2196.64,-2586.66 2196.06,-2584.82 2195.63,-2582.97 2195.36,-2581.14 2195.25,-2579.31 2195.32,-2577.51 2195.56,-2575.73 2195.97,-2573.97 2196.57,-2572.25 2197.34,-2570.56 2198.31,-2568.92 2199.45,-2567.32 2200.78,-2565.77 2202.29,-2564.28 2203.97,-2562.85 2205.83,-2561.48 2207.87,-2560.17 2210.06,-2558.94 2212.42,-2557.77 2214.92,-2556.69 2217.57,-2555.68 2220.35,-2554.76 2223.25,-2553.92 2226.27,-2553.17 2229.38,-2552.51 2232.59,-2551.94 2235.87,-2551.46 2239.21,-2551.08 2242.6,-2550.79 2246.03,-2550.6 2249.48,-2550.5 2252.94,-2550.5 2256.39,-2550.6"/>
<text text-anchor="start" x="2222.04" y="-2595.54" font-family="Times,serif" font-size="14.00">C0043047</text>
<text text-anchor="start" x="2235.66" y="-2581.54" font-family="Times,serif" font-size="14.00">water</text>
<text text-anchor="start" x="2235.26" y="-2567.54" font-family="Times,serif" font-size="14.00">24:24</text>
</g>
<!-- id_27541815_DOT_3&#45;&#45;id_27541815_DOT_9 -->
<g id="edge19" class="edge">
<title>id_27541815_DOT_3&#45;&#45;id_27541815_DOT_9</title>
<path fill="none" stroke="black" stroke-dasharray="1,5" d="M2042.26,-2939.01C2086.38,-2864.41 2189.56,-2689.96 2232.23,-2617.83"/>
<text text-anchor="middle" x="2110.99" y="-2781.22" font-family="Times,serif" font-size="14.00">0.579099</text>
</g>
<!-- id_27541815_DOT_15 -->
<g id="node15" class="node">
<title>id_27541815_DOT_15</title>
<polygon fill="cornflowerblue" stroke="cornflowerblue" points="1741.18,-3270.54 1745.73,-3270.73 1750.23,-3271.02 1754.66,-3271.41 1759.01,-3271.88 1763.26,-3272.45 1767.39,-3273.11 1771.39,-3273.87 1775.24,-3274.7 1778.92,-3275.63 1782.43,-3276.63 1785.75,-3277.72 1788.88,-3278.88 1791.79,-3280.11 1794.48,-3281.42 1796.95,-3282.79 1799.19,-3284.22 1801.19,-3285.71 1802.95,-3287.26 1804.46,-3288.86 1805.74,-3290.5 1806.77,-3292.19 1807.56,-3293.91 1808.11,-3295.67 1808.43,-3297.45 1808.51,-3299.26 1808.37,-3301.08 1808.01,-3302.91 1807.44,-3304.76 1806.67,-3306.6 1805.7,-3308.44 1804.54,-3310.28 1803.21,-3312.1 1801.71,-3313.91 1800.06,-3315.69 1798.25,-3317.45 1796.31,-3319.17 1794.25,-3320.85 1792.06,-3322.5 1789.77,-3324.1 1787.38,-3325.64 1784.9,-3327.14 1782.34,-3328.57 1779.71,-3329.94 1777.02,-3331.25 1774.27,-3332.48 1771.47,-3333.64 1768.63,-3334.73 1765.75,-3335.73 1762.83,-3336.66 1759.89,-3337.49 1756.93,-3338.24 1753.95,-3338.9 1750.95,-3339.48 1747.95,-3339.95 1744.93,-3340.34 1741.9,-3340.63 1738.87,-3340.82 1735.83,-3340.91 1732.8,-3340.91 1729.76,-3340.82 1726.73,-3340.63 1723.71,-3340.34 1720.69,-3339.95 1717.68,-3339.48 1714.68,-3338.9 1711.7,-3338.24 1708.74,-3337.49 1705.8,-3336.66 1702.89,-3335.73 1700.01,-3334.73 1697.16,-3333.64 1694.36,-3332.48 1691.61,-3331.25 1688.92,-3329.94 1686.29,-3328.57 1683.73,-3327.14 1681.25,-3325.64 1678.86,-3324.1 1676.57,-3322.5 1674.39,-3320.85 1672.32,-3319.17 1670.38,-3317.45 1668.58,-3315.69 1666.92,-3313.91 1665.42,-3312.1 1664.09,-3310.28 1662.93,-3308.44 1661.96,-3306.6 1661.19,-3304.76 1660.62,-3302.91 1660.26,-3301.08 1660.12,-3299.26 1660.21,-3297.45 1660.52,-3295.67 1661.07,-3293.91 1661.86,-3292.19 1662.89,-3290.5 1664.17,-3288.86 1665.69,-3287.26 1667.45,-3285.71 1669.45,-3284.22 1671.68,-3282.79 1674.15,-3281.42 1676.84,-3280.11 1679.76,-3278.88 1682.88,-3277.72 1686.2,-3276.63 1689.71,-3275.63 1693.39,-3274.7 1697.24,-3273.87 1701.24,-3273.11 1705.37,-3272.45 1709.62,-3271.88 1713.97,-3271.41 1718.41,-3271.02 1722.9,-3270.73 1727.45,-3270.54 1732.02,-3270.44 1736.61,-3270.44 1741.18,-3270.54"/>
<text text-anchor="start" x="1705.15" y="-3315.48" font-family="Times,serif" font-size="14.00">C0449379</text>
<text text-anchor="start" x="1693.12" y="-3301.48" font-family="Times,serif" font-size="14.00">interconnected</text>
<text text-anchor="start" x="1718.37" y="-3287.48" font-family="Times,serif" font-size="14.00">64:64</text>
</g>
<!-- id_27541815_DOT_3&#45;&#45;id_27541815_DOT_15 -->
<g id="edge20" class="edge">
<title>id_27541815_DOT_3&#45;&#45;id_27541815_DOT_15</title>
<path fill="none" stroke="black" stroke-dasharray="1,5" d="M1993.35,-3006.52C1938.55,-3069.81 1818.6,-3208.34 1763.3,-3272.21"/>
<text text-anchor="middle" x="1852.33" y="-3142.16" font-family="Times,serif" font-size="14.00">0.826211</text>
</g>
<!-- id_27541815_DOT_4 -->
<g id="node4" class="node">
<title>id_27541815_DOT_4</title>
<polygon fill="blueviolet" stroke="blueviolet" points="1745.45,-2367.47 1748.88,-2367.66 1752.28,-2367.95 1755.62,-2368.33 1758.9,-2368.81 1762.1,-2369.38 1765.22,-2370.04 1768.24,-2370.79 1771.14,-2371.63 1773.92,-2372.55 1776.57,-2373.56 1779.07,-2374.64 1781.42,-2375.81 1783.62,-2377.04 1785.65,-2378.35 1787.51,-2379.72 1789.2,-2381.15 1790.71,-2382.64 1792.04,-2384.19 1793.18,-2385.79 1794.14,-2387.43 1794.92,-2389.12 1795.52,-2390.84 1795.93,-2392.6 1796.17,-2394.38 1796.23,-2396.18 1796.13,-2398.01 1795.86,-2399.84 1795.43,-2401.69 1794.84,-2403.53 1794.11,-2405.37 1793.24,-2407.21 1792.24,-2409.03 1791.11,-2410.84 1789.86,-2412.62 1788.5,-2414.37 1787.03,-2416.1 1785.47,-2417.78 1783.83,-2419.43 1782.1,-2421.02 1780.3,-2422.57 1778.43,-2424.07 1776.5,-2425.5 1774.51,-2426.87 1772.48,-2428.18 1770.41,-2429.41 1768.3,-2430.57 1766.15,-2431.66 1763.98,-2432.66 1761.78,-2433.58 1759.57,-2434.42 1757.33,-2435.17 1755.08,-2435.83 1752.82,-2436.4 1750.56,-2436.88 1748.28,-2437.27 1746,-2437.55 1743.71,-2437.75 1741.42,-2437.84 1739.13,-2437.84 1736.84,-2437.75 1734.56,-2437.55 1732.27,-2437.27 1730,-2436.88 1727.73,-2436.4 1725.47,-2435.83 1723.22,-2435.17 1720.99,-2434.42 1718.77,-2433.58 1716.57,-2432.66 1714.4,-2431.66 1712.26,-2430.57 1710.15,-2429.41 1708.07,-2428.18 1706.04,-2426.87 1704.06,-2425.5 1702.13,-2424.07 1700.26,-2422.57 1698.46,-2421.02 1696.73,-2419.43 1695.08,-2417.78 1693.52,-2416.1 1692.06,-2414.37 1690.7,-2412.62 1689.45,-2410.84 1688.32,-2409.03 1687.31,-2407.21 1686.44,-2405.37 1685.71,-2403.53 1685.13,-2401.69 1684.7,-2399.84 1684.43,-2398.01 1684.32,-2396.18 1684.38,-2394.38 1684.62,-2392.6 1685.04,-2390.84 1685.63,-2389.12 1686.41,-2387.43 1687.37,-2385.79 1688.52,-2384.19 1689.84,-2382.64 1691.35,-2381.15 1693.04,-2379.72 1694.9,-2378.35 1696.93,-2377.04 1699.13,-2375.81 1701.48,-2374.64 1703.99,-2373.56 1706.63,-2372.55 1709.41,-2371.63 1712.32,-2370.79 1715.33,-2370.04 1718.45,-2369.38 1721.65,-2368.81 1724.93,-2368.33 1728.28,-2367.95 1731.67,-2367.66 1735.1,-2367.47 1738.55,-2367.37 1742,-2367.37 1745.45,-2367.47"/>
<text text-anchor="start" x="1711.11" y="-2412.41" font-family="Times,serif" font-size="14.00">C4082130</text>
<text text-anchor="start" x="1715.79" y="-2398.41" font-family="Times,serif" font-size="14.00">prepared</text>
<text text-anchor="start" x="1724.84" y="-2384.41" font-family="Times,serif" font-size="14.00">11:11</text>
</g>
<!-- id_27541815_DOT_10 -->
<g id="node10" class="node">
<title>id_27541815_DOT_10</title>
<polygon fill="chartreuse" stroke="chartreuse" points="2005.66,-2156.74 2009.09,-2156.93 2012.48,-2157.22 2015.83,-2157.6 2019.11,-2158.08 2022.31,-2158.65 2025.43,-2159.31 2028.44,-2160.06 2031.34,-2160.9 2034.12,-2161.82 2036.77,-2162.83 2039.28,-2163.91 2041.63,-2165.07 2043.83,-2166.31 2045.86,-2167.61 2047.72,-2168.99 2049.41,-2170.42 2050.91,-2171.91 2052.24,-2173.46 2053.39,-2175.06 2054.35,-2176.7 2055.13,-2178.39 2055.72,-2180.11 2056.14,-2181.87 2056.38,-2183.65 2056.44,-2185.45 2056.33,-2187.28 2056.06,-2189.11 2055.63,-2190.95 2055.05,-2192.8 2054.32,-2194.64 2053.45,-2196.48 2052.44,-2198.3 2051.31,-2200.11 2050.06,-2201.89 2048.7,-2203.64 2047.24,-2205.37 2045.68,-2207.05 2044.03,-2208.7 2042.3,-2210.29 2040.5,-2211.84 2038.63,-2213.33 2036.7,-2214.77 2034.72,-2216.14 2032.69,-2217.44 2030.61,-2218.68 2028.5,-2219.84 2026.36,-2220.93 2024.19,-2221.93 2021.99,-2222.85 2019.77,-2223.69 2017.54,-2224.44 2015.29,-2225.1 2013.03,-2225.67 2010.76,-2226.15 2008.48,-2226.53 2006.2,-2226.82 2003.92,-2227.02 2001.63,-2227.11 1999.34,-2227.11 1997.05,-2227.02 1994.76,-2226.82 1992.48,-2226.53 1990.2,-2226.15 1987.93,-2225.67 1985.67,-2225.1 1983.43,-2224.44 1981.19,-2223.69 1978.98,-2222.85 1976.78,-2221.93 1974.61,-2220.93 1972.46,-2219.84 1970.35,-2218.68 1968.28,-2217.44 1966.25,-2216.14 1964.26,-2214.77 1962.33,-2213.33 1960.46,-2211.84 1958.66,-2210.29 1956.93,-2208.7 1955.29,-2207.05 1953.73,-2205.37 1952.26,-2203.64 1950.9,-2201.89 1949.65,-2200.11 1948.52,-2198.3 1947.52,-2196.48 1946.65,-2194.64 1945.92,-2192.8 1945.33,-2190.95 1944.9,-2189.11 1944.63,-2187.28 1944.53,-2185.45 1944.59,-2183.65 1944.83,-2181.87 1945.24,-2180.11 1945.84,-2178.39 1946.62,-2176.7 1947.58,-2175.06 1948.72,-2173.46 1950.05,-2171.91 1951.56,-2170.42 1953.25,-2168.99 1955.11,-2167.61 1957.14,-2166.31 1959.33,-2165.07 1961.69,-2163.91 1964.19,-2162.83 1966.84,-2161.82 1969.62,-2160.9 1972.52,-2160.06 1975.54,-2159.31 1978.65,-2158.65 1981.86,-2158.08 1985.14,-2157.6 1988.48,-2157.22 1991.88,-2156.93 1995.3,-2156.74 1998.75,-2156.64 2002.21,-2156.64 2005.66,-2156.74"/>
<text text-anchor="start" x="1971.31" y="-2201.68" font-family="Times,serif" font-size="14.00">C0456389</text>
<text text-anchor="start" x="1989.6" y="-2187.68" font-family="Times,serif" font-size="14.00">size</text>
<text text-anchor="start" x="1984.54" y="-2173.68" font-family="Times,serif" font-size="14.00">34:34</text>
</g>
<!-- id_27541815_DOT_4&#45;&#45;id_27541815_DOT_10 -->
<g id="edge21" class="edge">
<title>id_27541815_DOT_4&#45;&#45;id_27541815_DOT_10</title>
<path fill="none" stroke="black" stroke-dasharray="1,5" d="M1776.46,-2373.31C1827.43,-2332.03 1919.58,-2257.4 1968.29,-2217.95"/>
<text text-anchor="middle" x="1846.12" y="-2298.43" font-family="Times,serif" font-size="14.00">0.719305</text>
</g>
<!-- id_27541815_DOT_11 -->
<g id="node11" class="node">
<title>id_27541815_DOT_11</title>
<polygon fill="aquamarine" stroke="aquamarine" points="1081.99,-888.01 1085.42,-888.2 1088.82,-888.49 1092.16,-888.87 1095.44,-889.35 1098.64,-889.92 1101.76,-890.58 1104.78,-891.33 1107.68,-892.17 1110.46,-893.09 1113.11,-894.1 1115.61,-895.18 1117.96,-896.34 1120.16,-897.58 1122.19,-898.88 1124.05,-900.25 1125.74,-901.69 1127.25,-903.18 1128.58,-904.73 1129.72,-906.33 1130.68,-907.97 1131.46,-909.66 1132.06,-911.38 1132.47,-913.13 1132.71,-914.92 1132.77,-916.72 1132.67,-918.54 1132.4,-920.38 1131.97,-922.22 1131.38,-924.07 1130.65,-925.91 1129.78,-927.75 1128.78,-929.57 1127.65,-931.37 1126.4,-933.16 1125.04,-934.91 1123.57,-936.63 1122.01,-938.32 1120.37,-939.96 1118.64,-941.56 1116.84,-943.11 1114.97,-944.6 1113.04,-946.04 1111.05,-947.41 1109.02,-948.71 1106.95,-949.95 1104.84,-951.11 1102.69,-952.19 1100.52,-953.2 1098.32,-954.12 1096.11,-954.96 1093.87,-955.71 1091.62,-956.37 1089.36,-956.94 1087.1,-957.42 1084.82,-957.8 1082.54,-958.09 1080.25,-958.28 1077.96,-958.38 1075.67,-958.38 1073.38,-958.28 1071.1,-958.09 1068.81,-957.8 1066.54,-957.42 1064.27,-956.94 1062.01,-956.37 1059.76,-955.71 1057.53,-954.96 1055.31,-954.12 1053.11,-953.2 1050.94,-952.19 1048.8,-951.11 1046.69,-949.95 1044.61,-948.71 1042.58,-947.41 1040.6,-946.04 1038.67,-944.6 1036.8,-943.11 1035,-941.56 1033.27,-939.96 1031.62,-938.32 1030.06,-936.63 1028.6,-934.91 1027.24,-933.16 1025.99,-931.37 1024.86,-929.57 1023.85,-927.75 1022.98,-925.91 1022.25,-924.07 1021.67,-922.22 1021.24,-920.38 1020.97,-918.54 1020.86,-916.72 1020.92,-914.92 1021.16,-913.13 1021.58,-911.38 1022.17,-909.66 1022.95,-907.97 1023.91,-906.33 1025.06,-904.73 1026.38,-903.18 1027.89,-901.69 1029.58,-900.25 1031.44,-898.88 1033.47,-897.58 1035.67,-896.34 1038.02,-895.18 1040.53,-894.1 1043.17,-893.09 1045.95,-892.17 1048.86,-891.33 1051.87,-890.58 1054.99,-889.92 1058.19,-889.35 1061.47,-888.87 1064.82,-888.49 1068.21,-888.2 1071.64,-888.01 1075.09,-887.91 1078.54,-887.91 1081.99,-888.01"/>
<text text-anchor="start" x="1047.65" y="-932.94" font-family="Times,serif" font-size="14.00">C1881977</text>
<text text-anchor="start" x="1057.76" y="-918.94" font-family="Times,serif" font-size="14.00">porous</text>
<text text-anchor="start" x="1060.87" y="-904.94" font-family="Times,serif" font-size="14.00">49:49</text>
</g>
<!-- id_27541815_DOT_6&#45;&#45;id_27541815_DOT_11 -->
<g id="edge4" class="edge">
<title>id_27541815_DOT_6&#45;&#45;id_27541815_DOT_11</title>
<path fill="none" stroke="black" d="M1243.4,-1201.88C1207.19,-1141.28 1131.59,-1014.79 1096.05,-955.33"/>
<text text-anchor="middle" x="1143.48" y="-1081.41" font-family="Times,serif" font-size="14.00">0.005869</text>
</g>
<!-- id_27541815_DOT_13 -->
<g id="node13" class="node">
<title>id_27541815_DOT_13</title>
<polygon fill="aquamarine" stroke="aquamarine" points="1446.21,-792.45 1449.64,-792.64 1453.03,-792.93 1456.37,-793.31 1459.65,-793.79 1462.86,-794.36 1465.97,-795.02 1468.99,-795.77 1471.89,-796.61 1474.67,-797.53 1477.32,-798.54 1479.82,-799.62 1482.18,-800.78 1484.37,-802.02 1486.41,-803.32 1488.27,-804.69 1489.95,-806.13 1491.46,-807.62 1492.79,-809.17 1493.93,-810.77 1494.9,-812.41 1495.67,-814.1 1496.27,-815.82 1496.68,-817.57 1496.92,-819.36 1496.99,-821.16 1496.88,-822.99 1496.61,-824.82 1496.18,-826.66 1495.6,-828.51 1494.87,-830.35 1493.99,-832.19 1492.99,-834.01 1491.86,-835.81 1490.61,-837.6 1489.25,-839.35 1487.79,-841.07 1486.23,-842.76 1484.58,-844.4 1482.85,-846 1481.05,-847.55 1479.18,-849.04 1477.25,-850.48 1475.27,-851.85 1473.24,-853.15 1471.16,-854.39 1469.05,-855.55 1466.91,-856.63 1464.73,-857.64 1462.54,-858.56 1460.32,-859.4 1458.09,-860.15 1455.84,-860.81 1453.58,-861.38 1451.31,-861.86 1449.03,-862.24 1446.75,-862.53 1444.46,-862.72 1442.18,-862.82 1439.89,-862.82 1437.6,-862.72 1435.31,-862.53 1433.03,-862.24 1430.75,-861.86 1428.48,-861.38 1426.22,-860.81 1423.97,-860.15 1421.74,-859.4 1419.52,-858.56 1417.33,-857.64 1415.15,-856.63 1413.01,-855.55 1410.9,-854.39 1408.83,-853.15 1406.79,-851.85 1404.81,-850.48 1402.88,-849.04 1401.01,-847.55 1399.21,-846 1397.48,-844.4 1395.83,-842.76 1394.27,-841.07 1392.81,-839.35 1391.45,-837.6 1390.2,-835.81 1389.07,-834.01 1388.07,-832.19 1387.2,-830.35 1386.46,-828.51 1385.88,-826.66 1385.45,-824.82 1385.18,-822.99 1385.07,-821.16 1385.14,-819.36 1385.38,-817.57 1385.79,-815.82 1386.39,-814.1 1387.17,-812.41 1388.13,-810.77 1389.27,-809.17 1390.6,-807.62 1392.11,-806.13 1393.79,-804.69 1395.65,-803.32 1397.69,-802.02 1399.88,-800.78 1402.24,-799.62 1404.74,-798.54 1407.39,-797.53 1410.17,-796.61 1413.07,-795.77 1416.09,-795.02 1419.2,-794.36 1422.41,-793.79 1425.69,-793.31 1429.03,-792.93 1432.42,-792.64 1435.85,-792.45 1439.3,-792.35 1442.76,-792.35 1446.21,-792.45"/>
<text text-anchor="start" x="1411.86" y="-837.39" font-family="Times,serif" font-size="14.00">C1881977</text>
<text text-anchor="start" x="1421.98" y="-823.39" font-family="Times,serif" font-size="14.00">porous</text>
<text text-anchor="start" x="1425.09" y="-809.39" font-family="Times,serif" font-size="14.00">58:58</text>
</g>
<!-- id_27541815_DOT_6&#45;&#45;id_27541815_DOT_13 -->
<g id="edge5" class="edge">
<title>id_27541815_DOT_6&#45;&#45;id_27541815_DOT_13</title>
<path fill="none" stroke="black" d="M1278.54,-1201.18C1312.18,-1123.85 1393.35,-937.22 1426.53,-860.93"/>
<text text-anchor="middle" x="1326.29" y="-1033.85" font-family="Times,serif" font-size="14.00">0.005253</text>
</g>
<!-- id_27541815_DOT_23 -->
<g id="node23" class="node">
<title>id_27541815_DOT_23</title>
<polygon fill="chartreuse" stroke="chartreuse" points="1261.72,-1650.49 1265.15,-1650.68 1268.54,-1650.97 1271.88,-1651.35 1275.16,-1651.83 1278.37,-1652.4 1281.48,-1653.06 1284.5,-1653.81 1287.4,-1654.65 1290.18,-1655.57 1292.83,-1656.58 1295.33,-1657.66 1297.69,-1658.82 1299.88,-1660.06 1301.92,-1661.36 1303.78,-1662.73 1305.46,-1664.17 1306.97,-1665.66 1308.3,-1667.21 1309.44,-1668.81 1310.41,-1670.45 1311.18,-1672.14 1311.78,-1673.86 1312.19,-1675.61 1312.43,-1677.4 1312.5,-1679.2 1312.39,-1681.02 1312.12,-1682.86 1311.69,-1684.7 1311.11,-1686.55 1310.38,-1688.39 1309.5,-1690.23 1308.5,-1692.05 1307.37,-1693.85 1306.12,-1695.64 1304.76,-1697.39 1303.3,-1699.11 1301.74,-1700.8 1300.09,-1702.44 1298.36,-1704.04 1296.56,-1705.59 1294.69,-1707.08 1292.76,-1708.52 1290.78,-1709.89 1288.75,-1711.19 1286.67,-1712.43 1284.56,-1713.59 1282.42,-1714.67 1280.24,-1715.68 1278.05,-1716.6 1275.83,-1717.44 1273.6,-1718.19 1271.35,-1718.85 1269.09,-1719.42 1266.82,-1719.9 1264.54,-1720.28 1262.26,-1720.57 1259.97,-1720.76 1257.69,-1720.86 1255.4,-1720.86 1253.11,-1720.76 1250.82,-1720.57 1248.54,-1720.28 1246.26,-1719.9 1243.99,-1719.42 1241.73,-1718.85 1239.48,-1718.19 1237.25,-1717.44 1235.03,-1716.6 1232.84,-1715.68 1230.66,-1714.67 1228.52,-1713.59 1226.41,-1712.43 1224.34,-1711.19 1222.3,-1709.89 1220.32,-1708.52 1218.39,-1707.08 1216.52,-1705.59 1214.72,-1704.04 1212.99,-1702.44 1211.34,-1700.8 1209.78,-1699.11 1208.32,-1697.39 1206.96,-1695.64 1205.71,-1693.85 1204.58,-1692.05 1203.58,-1690.23 1202.71,-1688.39 1201.97,-1686.55 1201.39,-1684.7 1200.96,-1682.86 1200.69,-1681.02 1200.58,-1679.2 1200.65,-1677.4 1200.89,-1675.61 1201.3,-1673.86 1201.9,-1672.14 1202.68,-1670.45 1203.64,-1668.81 1204.78,-1667.21 1206.11,-1665.66 1207.62,-1664.17 1209.3,-1662.73 1211.17,-1661.36 1213.2,-1660.06 1215.39,-1658.82 1217.75,-1657.66 1220.25,-1656.58 1222.9,-1655.57 1225.68,-1654.65 1228.58,-1653.81 1231.6,-1653.06 1234.71,-1652.4 1237.92,-1651.83 1241.2,-1651.35 1244.54,-1650.97 1247.93,-1650.68 1251.36,-1650.49 1254.81,-1650.39 1258.27,-1650.39 1261.72,-1650.49"/>
<text text-anchor="start" x="1227.37" y="-1695.43" font-family="Times,serif" font-size="14.00">C0456389</text>
<text text-anchor="start" x="1242.93" y="-1681.43" font-family="Times,serif" font-size="14.00">sizes</text>
<text text-anchor="start" x="1233.6" y="-1667.43" font-family="Times,serif" font-size="14.00">147:147</text>
</g>
<!-- id_27541815_DOT_6&#45;&#45;id_27541815_DOT_23 -->
<g id="edge22" class="edge">
<title>id_27541815_DOT_6&#45;&#45;id_27541815_DOT_23</title>
<path fill="none" stroke="black" stroke-dasharray="1,5" d="M1263.01,-1270.93C1261.7,-1354.95 1258.41,-1566 1257.09,-1650.17"/>
<text text-anchor="middle" x="1233.8" y="-1463.35" font-family="Times,serif" font-size="14.00">0.697135</text>
</g>
<!-- id_27541815_DOT_14 -->
<g id="node14" class="node">
<title>id_27541815_DOT_14</title>
<polygon fill="bisque" stroke="bisque" points="4631.52,-2506.9 4634.95,-2507.09 4638.35,-2507.38 4641.69,-2507.77 4644.97,-2508.24 4648.17,-2508.81 4651.29,-2509.48 4654.31,-2510.23 4657.21,-2511.06 4659.99,-2511.99 4662.64,-2512.99 4665.14,-2514.08 4667.49,-2515.24 4669.69,-2516.47 4671.72,-2517.78 4673.58,-2519.15 4675.27,-2520.58 4676.78,-2522.08 4678.11,-2523.62 4679.25,-2525.22 4680.21,-2526.87 4680.99,-2528.55 4681.58,-2530.27 4682,-2532.03 4682.24,-2533.81 4682.3,-2535.62 4682.2,-2537.44 4681.93,-2539.27 4681.5,-2541.12 4680.91,-2542.96 4680.18,-2544.81 4679.31,-2546.64 4678.31,-2548.46 4677.17,-2550.27 4675.93,-2552.05 4674.57,-2553.81 4673.1,-2555.53 4671.54,-2557.21 4669.9,-2558.86 4668.17,-2560.46 4666.36,-2562 4664.5,-2563.5 4662.57,-2564.93 4660.58,-2566.3 4658.55,-2567.61 4656.48,-2568.84 4654.37,-2570 4652.22,-2571.09 4650.05,-2572.09 4647.85,-2573.02 4645.64,-2573.85 4643.4,-2574.6 4641.15,-2575.27 4638.89,-2575.84 4636.62,-2576.31 4634.35,-2576.7 4632.07,-2576.99 4629.78,-2577.18 4627.49,-2577.28 4625.2,-2577.28 4622.91,-2577.18 4620.63,-2576.99 4618.34,-2576.7 4616.07,-2576.31 4613.8,-2575.84 4611.54,-2575.27 4609.29,-2574.6 4607.06,-2573.85 4604.84,-2573.02 4602.64,-2572.09 4600.47,-2571.09 4598.33,-2570 4596.21,-2568.84 4594.14,-2567.61 4592.11,-2566.3 4590.13,-2564.93 4588.2,-2563.5 4586.33,-2562 4584.53,-2560.46 4582.8,-2558.86 4581.15,-2557.21 4579.59,-2555.53 4578.13,-2553.81 4576.77,-2552.05 4575.52,-2550.27 4574.39,-2548.46 4573.38,-2546.64 4572.51,-2544.81 4571.78,-2542.96 4571.2,-2541.12 4570.77,-2539.27 4570.5,-2537.44 4570.39,-2535.62 4570.45,-2533.81 4570.69,-2532.03 4571.11,-2530.27 4571.7,-2528.55 4572.48,-2526.87 4573.44,-2525.22 4574.59,-2523.62 4575.91,-2522.08 4577.42,-2520.58 4579.11,-2519.15 4580.97,-2517.78 4583,-2516.47 4585.2,-2515.24 4587.55,-2514.08 4590.06,-2512.99 4592.7,-2511.99 4595.48,-2511.06 4598.39,-2510.23 4601.4,-2509.48 4604.52,-2508.81 4607.72,-2508.24 4611,-2507.77 4614.35,-2507.38 4617.74,-2507.09 4621.17,-2506.9 4624.62,-2506.8 4628.07,-2506.8 4631.52,-2506.9"/>
<text text-anchor="start" x="4597.18" y="-2551.84" font-family="Times,serif" font-size="14.00">C0037107</text>
<text text-anchor="start" x="4607.68" y="-2537.84" font-family="Times,serif" font-size="14.00">silicon</text>
<text text-anchor="start" x="4610.4" y="-2523.84" font-family="Times,serif" font-size="14.00">59:59</text>
</g>
<!-- id_27541815_DOT_7&#45;&#45;id_27541815_DOT_14 -->
<g id="edge6" class="edge">
<title>id_27541815_DOT_7&#45;&#45;id_27541815_DOT_14</title>
<path fill="none" stroke="black" d="M4321.42,-2349.99C4385.25,-2390.19 4516.68,-2472.97 4584.23,-2515.51"/>
<text text-anchor="middle" x="4426.58" y="-2435.55" font-family="Times,serif" font-size="14.00">0.004954</text>
</g>
<!-- id_27541815_DOT_21 -->
<g id="node21" class="node">
<title>id_27541815_DOT_21</title>
<polygon fill="darkgoldenrod" stroke="darkgoldenrod" points="3899.26,-2375.2 3904.85,-2375.39 3910.39,-2375.68 3915.84,-2376.07 3921.19,-2376.54 3926.42,-2377.11 3931.5,-2377.78 3936.42,-2378.53 3941.15,-2379.36 3945.69,-2380.29 3950,-2381.29 3954.09,-2382.38 3957.93,-2383.54 3961.51,-2384.77 3964.82,-2386.08 3967.86,-2387.45 3970.61,-2388.88 3973.07,-2390.38 3975.24,-2391.92 3977.1,-2393.52 3978.67,-2395.17 3979.94,-2396.85 3980.91,-2398.57 3981.59,-2400.33 3981.98,-2402.11 3982.08,-2403.92 3981.91,-2405.74 3981.47,-2407.57 3980.77,-2409.42 3979.81,-2411.26 3978.62,-2413.11 3977.2,-2414.94 3975.56,-2416.76 3973.72,-2418.57 3971.68,-2420.35 3969.46,-2422.11 3967.08,-2423.83 3964.53,-2425.51 3961.85,-2427.16 3959.03,-2428.76 3956.09,-2430.3 3953.04,-2431.8 3949.89,-2433.23 3946.66,-2434.6 3943.34,-2435.91 3939.96,-2437.14 3936.52,-2438.3 3933.02,-2439.39 3929.48,-2440.39 3925.9,-2441.32 3922.28,-2442.15 3918.64,-2442.9 3914.97,-2443.57 3911.28,-2444.14 3907.58,-2444.61 3903.87,-2445 3900.14,-2445.29 3896.41,-2445.48 3892.68,-2445.58 3888.95,-2445.58 3885.22,-2445.48 3881.49,-2445.29 3877.76,-2445 3874.05,-2444.61 3870.35,-2444.14 3866.66,-2443.57 3862.99,-2442.9 3859.35,-2442.15 3855.74,-2441.32 3852.15,-2440.39 3848.61,-2439.39 3845.11,-2438.3 3841.67,-2437.14 3838.29,-2435.91 3834.97,-2434.6 3831.74,-2433.23 3828.59,-2431.8 3825.54,-2430.3 3822.6,-2428.76 3819.78,-2427.16 3817.1,-2425.51 3814.55,-2423.83 3812.17,-2422.11 3809.95,-2420.35 3807.91,-2418.57 3806.07,-2416.76 3804.43,-2414.94 3803.01,-2413.11 3801.82,-2411.26 3800.86,-2409.42 3800.16,-2407.57 3799.72,-2405.74 3799.55,-2403.92 3799.65,-2402.11 3800.04,-2400.33 3800.72,-2398.57 3801.69,-2396.85 3802.96,-2395.17 3804.53,-2393.52 3806.39,-2391.92 3808.56,-2390.38 3811.02,-2388.88 3813.77,-2387.45 3816.81,-2386.08 3820.12,-2384.77 3823.7,-2383.54 3827.54,-2382.38 3831.63,-2381.29 3835.94,-2380.29 3840.48,-2379.36 3845.21,-2378.53 3850.13,-2377.78 3855.21,-2377.11 3860.44,-2376.54 3865.79,-2376.07 3871.24,-2375.68 3876.78,-2375.39 3882.37,-2375.2 3888,-2375.1 3893.63,-2375.1 3899.26,-2375.2"/>
<text text-anchor="start" x="3861.65" y="-2420.14" font-family="Times,serif" font-size="14.00">C0020281</text>
<text text-anchor="start" x="3838.14" y="-2406.14" font-family="Times,serif" font-size="14.00">hydrogen peroxide</text>
<text text-anchor="start" x="3867.87" y="-2392.14" font-family="Times,serif" font-size="14.00">128:129</text>
</g>
<!-- id_27541815_DOT_7&#45;&#45;id_27541815_DOT_21 -->
<g id="edge23" class="edge">
<title>id_27541815_DOT_7&#45;&#45;id_27541815_DOT_21</title>
<path fill="none" stroke="black" stroke-dasharray="1,5" d="M4235.37,-2337.45C4170.36,-2351.2 4055.21,-2375.56 3976.05,-2392.31"/>
<text text-anchor="middle" x="4079.46" y="-2367.68" font-family="Times,serif" font-size="14.00">0.639417</text>
</g>
<!-- id_27541815_DOT_8 -->
<g id="node8" class="node">
<title>id_27541815_DOT_8</title>
<polygon fill="brown" stroke="brown" points="3101.23,-2497.46 3104.66,-2497.65 3108.05,-2497.94 3111.4,-2498.32 3114.68,-2498.8 3117.88,-2499.37 3121,-2500.03 3124.01,-2500.78 3126.92,-2501.62 3129.7,-2502.54 3132.34,-2503.55 3134.85,-2504.63 3137.2,-2505.79 3139.4,-2507.03 3141.43,-2508.33 3143.29,-2509.71 3144.98,-2511.14 3146.49,-2512.63 3147.81,-2514.18 3148.96,-2515.78 3149.92,-2517.42 3150.7,-2519.11 3151.29,-2520.83 3151.71,-2522.59 3151.95,-2524.37 3152.01,-2526.17 3151.91,-2528 3151.63,-2529.83 3151.2,-2531.67 3150.62,-2533.52 3149.89,-2535.36 3149.02,-2537.2 3148.01,-2539.02 3146.88,-2540.82 3145.63,-2542.61 3144.27,-2544.36 3142.81,-2546.09 3141.25,-2547.77 3139.6,-2549.42 3137.88,-2551.01 3136.07,-2552.56 3134.2,-2554.05 3132.27,-2555.49 3130.29,-2556.86 3128.26,-2558.16 3126.19,-2559.4 3124.07,-2560.56 3121.93,-2561.64 3119.76,-2562.65 3117.56,-2563.57 3115.35,-2564.41 3113.11,-2565.16 3110.86,-2565.82 3108.6,-2566.39 3106.33,-2566.87 3104.06,-2567.25 3101.77,-2567.54 3099.49,-2567.74 3097.2,-2567.83 3094.91,-2567.83 3092.62,-2567.74 3090.34,-2567.54 3088.05,-2567.25 3085.78,-2566.87 3083.51,-2566.39 3081.25,-2565.82 3079,-2565.16 3076.76,-2564.41 3074.55,-2563.57 3072.35,-2562.65 3070.18,-2561.64 3068.03,-2560.56 3065.92,-2559.4 3063.85,-2558.16 3061.82,-2556.86 3059.83,-2555.49 3057.9,-2554.05 3056.04,-2552.56 3054.23,-2551.01 3052.51,-2549.42 3050.86,-2547.77 3049.3,-2546.09 3047.84,-2544.36 3046.47,-2542.61 3045.23,-2540.82 3044.1,-2539.02 3043.09,-2537.2 3042.22,-2535.36 3041.49,-2533.52 3040.9,-2531.67 3040.47,-2529.83 3040.2,-2528 3040.1,-2526.17 3040.16,-2524.37 3040.4,-2522.59 3040.82,-2520.83 3041.41,-2519.11 3042.19,-2517.42 3043.15,-2515.78 3044.3,-2514.18 3045.62,-2512.63 3047.13,-2511.14 3048.82,-2509.71 3050.68,-2508.33 3052.71,-2507.03 3054.91,-2505.79 3057.26,-2504.63 3059.77,-2503.55 3062.41,-2502.54 3065.19,-2501.62 3068.1,-2500.78 3071.11,-2500.03 3074.23,-2499.37 3077.43,-2498.8 3080.71,-2498.32 3084.06,-2497.94 3087.45,-2497.65 3090.88,-2497.46 3094.33,-2497.36 3097.78,-2497.36 3101.23,-2497.46"/>
<text text-anchor="start" x="3066.89" y="-2542.4" font-family="Times,serif" font-size="14.00">C0001963</text>
<text text-anchor="start" x="3070.01" y="-2528.4" font-family="Times,serif" font-size="14.00">methanol</text>
<text text-anchor="start" x="3080.11" y="-2514.4" font-family="Times,serif" font-size="14.00">22:22</text>
</g>
<!-- id_27541815_DOT_20 -->
<g id="node20" class="node">
<title>id_27541815_DOT_20</title>
<polygon fill="darkgoldenrod" stroke="darkgoldenrod" points="3506.06,-2425.73 3511.66,-2425.92 3517.19,-2426.21 3522.64,-2426.6 3527.99,-2427.07 3533.22,-2427.64 3538.3,-2428.31 3543.22,-2429.06 3547.96,-2429.89 3552.49,-2430.82 3556.81,-2431.82 3560.89,-2432.91 3564.73,-2434.07 3568.31,-2435.3 3571.63,-2436.61 3574.66,-2437.98 3577.42,-2439.41 3579.88,-2440.91 3582.04,-2442.45 3583.91,-2444.05 3585.48,-2445.7 3586.74,-2447.38 3587.72,-2449.1 3588.39,-2450.86 3588.78,-2452.64 3588.89,-2454.45 3588.71,-2456.27 3588.27,-2458.1 3587.57,-2459.95 3586.62,-2461.79 3585.43,-2463.64 3584.01,-2465.47 3582.37,-2467.29 3580.52,-2469.1 3578.49,-2470.88 3576.27,-2472.64 3573.88,-2474.36 3571.34,-2476.04 3568.65,-2477.69 3565.83,-2479.29 3562.89,-2480.83 3559.84,-2482.33 3556.7,-2483.76 3553.46,-2485.13 3550.15,-2486.44 3546.76,-2487.67 3543.32,-2488.83 3539.82,-2489.92 3536.28,-2490.92 3532.7,-2491.85 3529.08,-2492.68 3525.44,-2493.43 3521.77,-2494.1 3518.09,-2494.67 3514.38,-2495.14 3510.67,-2495.53 3506.95,-2495.82 3503.22,-2496.01 3499.49,-2496.11 3495.75,-2496.11 3492.02,-2496.01 3488.29,-2495.82 3484.57,-2495.53 3480.85,-2495.14 3477.15,-2494.67 3473.47,-2494.1 3469.8,-2493.43 3466.15,-2492.68 3462.54,-2491.85 3458.96,-2490.92 3455.41,-2489.92 3451.92,-2488.83 3448.47,-2487.67 3445.09,-2486.44 3441.78,-2485.13 3438.54,-2483.76 3435.4,-2482.33 3432.35,-2480.83 3429.41,-2479.29 3426.59,-2477.69 3423.9,-2476.04 3421.36,-2474.36 3418.97,-2472.64 3416.75,-2470.88 3414.72,-2469.1 3412.87,-2467.29 3411.23,-2465.47 3409.81,-2463.64 3408.62,-2461.79 3407.67,-2459.95 3406.97,-2458.1 3406.52,-2456.27 3406.35,-2454.45 3406.46,-2452.64 3406.84,-2450.86 3407.52,-2449.1 3408.49,-2447.38 3409.76,-2445.7 3411.33,-2444.05 3413.2,-2442.45 3415.36,-2440.91 3417.82,-2439.41 3420.57,-2437.98 3423.61,-2436.61 3426.92,-2435.3 3430.5,-2434.07 3434.34,-2432.91 3438.43,-2431.82 3442.75,-2430.82 3447.28,-2429.89 3452.02,-2429.06 3456.93,-2428.31 3462.02,-2427.64 3467.24,-2427.07 3472.59,-2426.6 3478.05,-2426.21 3483.58,-2425.92 3489.17,-2425.73 3494.8,-2425.63 3500.44,-2425.63 3506.06,-2425.73"/>
<text text-anchor="start" x="3468.45" y="-2470.67" font-family="Times,serif" font-size="14.00">C0020281</text>
<text text-anchor="start" x="3444.94" y="-2456.67" font-family="Times,serif" font-size="14.00">hydrogen peroxide</text>
<text text-anchor="start" x="3475.19" y="-2442.67" font-family="Times,serif" font-size="14.00">112:113</text>
</g>
<!-- id_27541815_DOT_8&#45;&#45;id_27541815_DOT_20 -->
<g id="edge24" class="edge">
<title>id_27541815_DOT_8&#45;&#45;id_27541815_DOT_20</title>
<path fill="none" stroke="black" stroke-dasharray="1,5" d="M3151.89,-2522.62C3222.04,-2510.09 3342.73,-2488.54 3421.34,-2474.49"/>
<text text-anchor="middle" x="3260.88" y="-2501.36" font-family="Times,serif" font-size="14.00">0.831118</text>
</g>
<!-- id_27541815_DOT_31 -->
<g id="node31" class="node">
<title>id_27541815_DOT_31</title>
<polygon fill="cadetblue" stroke="cadetblue" points="2698.68,-2648.65 2702.1,-2648.84 2705.5,-2649.13 2708.84,-2649.52 2712.12,-2649.99 2715.33,-2650.56 2718.44,-2651.23 2721.46,-2651.98 2724.36,-2652.81 2727.14,-2653.74 2729.79,-2654.74 2732.29,-2655.83 2734.65,-2656.99 2736.84,-2658.22 2738.87,-2659.53 2740.74,-2660.9 2742.42,-2662.33 2743.93,-2663.83 2745.26,-2665.37 2746.4,-2666.97 2747.36,-2668.62 2748.14,-2670.3 2748.74,-2672.02 2749.15,-2673.78 2749.39,-2675.56 2749.45,-2677.37 2749.35,-2679.19 2749.08,-2681.02 2748.65,-2682.87 2748.06,-2684.71 2747.33,-2686.56 2746.46,-2688.39 2745.46,-2690.21 2744.33,-2692.02 2743.08,-2693.8 2741.72,-2695.56 2740.25,-2697.28 2738.69,-2698.96 2737.05,-2700.61 2735.32,-2702.21 2733.52,-2703.75 2731.65,-2705.25 2729.72,-2706.68 2727.73,-2708.05 2725.7,-2709.36 2723.63,-2710.59 2721.52,-2711.75 2719.37,-2712.84 2717.2,-2713.84 2715.01,-2714.77 2712.79,-2715.6 2710.56,-2716.35 2708.31,-2717.02 2706.05,-2717.59 2703.78,-2718.06 2701.5,-2718.45 2699.22,-2718.74 2696.93,-2718.93 2694.64,-2719.03 2692.35,-2719.03 2690.06,-2718.93 2687.78,-2718.74 2685.5,-2718.45 2683.22,-2718.06 2680.95,-2717.59 2678.69,-2717.02 2676.44,-2716.35 2674.21,-2715.6 2671.99,-2714.77 2669.79,-2713.84 2667.62,-2712.84 2665.48,-2711.75 2663.37,-2710.59 2661.29,-2709.36 2659.26,-2708.05 2657.28,-2706.68 2655.35,-2705.25 2653.48,-2703.75 2651.68,-2702.21 2649.95,-2700.61 2648.3,-2698.96 2646.74,-2697.28 2645.28,-2695.56 2643.92,-2693.8 2642.67,-2692.02 2641.54,-2690.21 2640.53,-2688.39 2639.66,-2686.56 2638.93,-2684.71 2638.35,-2682.87 2637.92,-2681.02 2637.65,-2679.19 2637.54,-2677.37 2637.61,-2675.56 2637.84,-2673.78 2638.26,-2672.02 2638.86,-2670.3 2639.63,-2668.62 2640.59,-2666.97 2641.74,-2665.37 2643.07,-2663.83 2644.57,-2662.33 2646.26,-2660.9 2648.12,-2659.53 2650.15,-2658.22 2652.35,-2656.99 2654.7,-2655.83 2657.21,-2654.74 2659.86,-2653.74 2662.64,-2652.81 2665.54,-2651.98 2668.55,-2651.23 2671.67,-2650.56 2674.87,-2649.99 2678.16,-2649.52 2681.5,-2649.13 2684.89,-2648.84 2688.32,-2648.65 2691.77,-2648.56 2695.23,-2648.56 2698.68,-2648.65"/>
<text text-anchor="start" x="2664.33" y="-2693.59" font-family="Times,serif" font-size="14.00">C0043047</text>
<text text-anchor="start" x="2677.95" y="-2679.59" font-family="Times,serif" font-size="14.00">water</text>
<text text-anchor="start" x="2670.55" y="-2665.59" font-family="Times,serif" font-size="14.00">231:231</text>
</g>
<!-- id_27541815_DOT_8&#45;&#45;id_27541815_DOT_31 -->
<g id="edge25" class="edge">
<title>id_27541815_DOT_8&#45;&#45;id_27541815_DOT_31</title>
<path fill="none" stroke="black" stroke-dasharray="1,5" d="M3051.82,-2549.21C2976.66,-2577.44 2824.43,-2634.61 2744.75,-2664.54"/>
<text text-anchor="middle" x="2872.04" y="-2609.68" font-family="Times,serif" font-size="14.00">0.869598</text>
</g>
<!-- id_27541815_DOT_9&#45;&#45;id_27541815_DOT_10 -->
<g id="edge26" class="edge">
<title>id_27541815_DOT_9&#45;&#45;id_27541815_DOT_10</title>
<path fill="none" stroke="black" stroke-dasharray="1,5" d="M2229.83,-2552.16C2182.05,-2477.1 2067.14,-2296.58 2020.58,-2223.44"/>
<text text-anchor="middle" x="2098.96" y="-2390.6" font-family="Times,serif" font-size="14.00">0.729745</text>
</g>
<!-- id_27541815_DOT_9&#45;&#45;id_27541815_DOT_31 -->
<g id="edge7" class="edge">
<title>id_27541815_DOT_9&#45;&#45;id_27541815_DOT_31</title>
<path fill="none" stroke="black" d="M2300.23,-2596.61C2383.34,-2615.03 2551.31,-2652.27 2638.38,-2671.57"/>
<text text-anchor="middle" x="2443.05" y="-2636.89" font-family="Times,serif" font-size="14.00">0.018678</text>
</g>
<!-- id_27541815_DOT_16 -->
<g id="node16" class="node">
<title>id_27541815_DOT_16</title>
<polygon fill="chartreuse" stroke="chartreuse" points="1628.93,-1895.99 1632.36,-1896.18 1635.75,-1896.47 1639.1,-1896.85 1642.38,-1897.33 1645.58,-1897.9 1648.7,-1898.56 1651.71,-1899.31 1654.62,-1900.15 1657.4,-1901.07 1660.04,-1902.08 1662.55,-1903.16 1664.9,-1904.32 1667.1,-1905.56 1669.13,-1906.86 1670.99,-1908.24 1672.68,-1909.67 1674.19,-1911.16 1675.51,-1912.71 1676.66,-1914.31 1677.62,-1915.95 1678.4,-1917.64 1678.99,-1919.36 1679.41,-1921.12 1679.65,-1922.9 1679.71,-1924.7 1679.61,-1926.53 1679.34,-1928.36 1678.91,-1930.2 1678.32,-1932.05 1677.59,-1933.89 1676.72,-1935.73 1675.71,-1937.55 1674.58,-1939.36 1673.33,-1941.14 1671.97,-1942.89 1670.51,-1944.62 1668.95,-1946.3 1667.3,-1947.95 1665.58,-1949.54 1663.77,-1951.09 1661.91,-1952.58 1659.98,-1954.02 1657.99,-1955.39 1655.96,-1956.69 1653.89,-1957.93 1651.78,-1959.09 1649.63,-1960.18 1647.46,-1961.18 1645.26,-1962.1 1643.05,-1962.94 1640.81,-1963.69 1638.56,-1964.35 1636.3,-1964.92 1634.03,-1965.4 1631.76,-1965.78 1629.47,-1966.07 1627.19,-1966.27 1624.9,-1966.36 1622.61,-1966.36 1620.32,-1966.27 1618.04,-1966.07 1615.75,-1965.78 1613.48,-1965.4 1611.21,-1964.92 1608.95,-1964.35 1606.7,-1963.69 1604.46,-1962.94 1602.25,-1962.1 1600.05,-1961.18 1597.88,-1960.18 1595.74,-1959.09 1593.62,-1957.93 1591.55,-1956.69 1589.52,-1955.39 1587.54,-1954.02 1585.61,-1952.58 1583.74,-1951.09 1581.93,-1949.54 1580.21,-1947.95 1578.56,-1946.3 1577,-1944.62 1575.54,-1942.89 1574.18,-1941.14 1572.93,-1939.36 1571.8,-1937.55 1570.79,-1935.73 1569.92,-1933.89 1569.19,-1932.05 1568.61,-1930.2 1568.18,-1928.36 1567.9,-1926.53 1567.8,-1924.7 1567.86,-1922.9 1568.1,-1921.12 1568.52,-1919.36 1569.11,-1917.64 1569.89,-1915.95 1570.85,-1914.31 1572,-1912.71 1573.32,-1911.16 1574.83,-1909.67 1576.52,-1908.24 1578.38,-1906.86 1580.41,-1905.56 1582.61,-1904.32 1584.96,-1903.16 1587.47,-1902.08 1590.11,-1901.07 1592.89,-1900.15 1595.8,-1899.31 1598.81,-1898.56 1601.93,-1897.9 1605.13,-1897.33 1608.41,-1896.85 1611.76,-1896.47 1615.15,-1896.18 1618.58,-1895.99 1622.03,-1895.89 1625.48,-1895.89 1628.93,-1895.99"/>
<text text-anchor="start" x="1594.59" y="-1940.93" font-family="Times,serif" font-size="14.00">C0456389</text>
<text text-anchor="start" x="1612.87" y="-1926.93" font-family="Times,serif" font-size="14.00">size</text>
<text text-anchor="start" x="1607.81" y="-1912.93" font-family="Times,serif" font-size="14.00">71:71</text>
</g>
<!-- id_27541815_DOT_10&#45;&#45;id_27541815_DOT_16 -->
<g id="edge8" class="edge">
<title>id_27541815_DOT_10&#45;&#45;id_27541815_DOT_16</title>
<path fill="none" stroke="black" d="M1960.52,-2164.22C1886.39,-2112.91 1728.72,-2003.78 1658.62,-1955.26"/>
<text text-anchor="middle" x="1783.32" y="-2062.54" font-family="Times,serif" font-size="14.00">0.008208</text>
</g>
<!-- id_27541815_DOT_26 -->
<g id="node26" class="node">
<title>id_27541815_DOT_26</title>
<polygon fill="chartreuse" stroke="chartreuse" points="2246.26,-1850.62 2249.69,-1850.82 2253.09,-1851.1 2256.43,-1851.49 2259.71,-1851.97 2262.91,-1852.54 2266.03,-1853.2 2269.05,-1853.95 2271.95,-1854.79 2274.73,-1855.71 2277.38,-1856.71 2279.88,-1857.8 2282.23,-1858.96 2284.43,-1860.19 2286.46,-1861.5 2288.32,-1862.87 2290.01,-1864.3 2291.52,-1865.8 2292.85,-1867.35 2293.99,-1868.94 2294.95,-1870.59 2295.73,-1872.27 2296.33,-1874 2296.74,-1875.75 2296.98,-1877.53 2297.04,-1879.34 2296.94,-1881.16 2296.67,-1883 2296.24,-1884.84 2295.65,-1886.68 2294.92,-1888.53 2294.05,-1890.36 2293.05,-1892.19 2291.92,-1893.99 2290.67,-1895.77 2289.31,-1897.53 2287.84,-1899.25 2286.28,-1900.94 2284.64,-1902.58 2282.91,-1904.18 2281.11,-1905.73 2279.24,-1907.22 2277.31,-1908.65 2275.32,-1910.03 2273.29,-1911.33 2271.22,-1912.56 2269.11,-1913.73 2266.96,-1914.81 2264.79,-1915.82 2262.59,-1916.74 2260.38,-1917.58 2258.14,-1918.33 2255.9,-1918.99 2253.64,-1919.56 2251.37,-1920.04 2249.09,-1920.42 2246.81,-1920.71 2244.52,-1920.9 2242.23,-1921 2239.94,-1921 2237.65,-1920.9 2235.37,-1920.71 2233.09,-1920.42 2230.81,-1920.04 2228.54,-1919.56 2226.28,-1918.99 2224.03,-1918.33 2221.8,-1917.58 2219.58,-1916.74 2217.38,-1915.82 2215.21,-1914.81 2213.07,-1913.73 2210.96,-1912.56 2208.88,-1911.33 2206.85,-1910.03 2204.87,-1908.65 2202.94,-1907.22 2201.07,-1905.73 2199.27,-1904.18 2197.54,-1902.58 2195.89,-1900.94 2194.33,-1899.25 2192.87,-1897.53 2191.51,-1895.77 2190.26,-1893.99 2189.13,-1892.19 2188.12,-1890.36 2187.25,-1888.53 2186.52,-1886.68 2185.94,-1884.84 2185.51,-1883 2185.24,-1881.16 2185.13,-1879.34 2185.19,-1877.53 2185.43,-1875.75 2185.85,-1874 2186.44,-1872.27 2187.22,-1870.59 2188.18,-1868.94 2189.33,-1867.35 2190.65,-1865.8 2192.16,-1864.3 2193.85,-1862.87 2195.71,-1861.5 2197.74,-1860.19 2199.94,-1858.96 2202.29,-1857.8 2204.8,-1856.71 2207.44,-1855.71 2210.22,-1854.79 2213.13,-1853.95 2216.14,-1853.2 2219.26,-1852.54 2222.46,-1851.97 2225.74,-1851.49 2229.09,-1851.1 2232.48,-1850.82 2235.91,-1850.62 2239.36,-1850.53 2242.82,-1850.53 2246.26,-1850.62"/>
<text text-anchor="start" x="2211.92" y="-1895.56" font-family="Times,serif" font-size="14.00">C0456389</text>
<text text-anchor="start" x="2230.2" y="-1881.56" font-family="Times,serif" font-size="14.00">size</text>
<text text-anchor="start" x="2218.14" y="-1867.56" font-family="Times,serif" font-size="14.00">199:199</text>
</g>
<!-- id_27541815_DOT_10&#45;&#45;id_27541815_DOT_26 -->
<g id="edge9" class="edge">
<title>id_27541815_DOT_10&#45;&#45;id_27541815_DOT_26</title>
<path fill="none" stroke="black" d="M2026,-2159.41C2072.81,-2099.86 2171.74,-1973.99 2217.26,-1916.08"/>
<text text-anchor="middle" x="2095.38" y="-2040.54" font-family="Times,serif" font-size="14.00">0.008684</text>
</g>
<!-- id_27541815_DOT_12 -->
<g id="node12" class="node">
<title>id_27541815_DOT_12</title>
<polygon fill="coral" stroke="coral" points="2480.05,-1524.75 2488.47,-1524.94 2496.81,-1525.23 2505.02,-1525.61 2513.07,-1526.09 2520.94,-1526.66 2528.6,-1527.32 2536,-1528.07 2543.13,-1528.91 2549.96,-1529.83 2556.46,-1530.84 2562.61,-1531.92 2568.39,-1533.09 2573.78,-1534.32 2578.77,-1535.62 2583.34,-1537 2587.49,-1538.43 2591.19,-1539.92 2594.45,-1541.47 2597.26,-1543.07 2599.62,-1544.71 2601.53,-1546.4 2603,-1548.12 2604.02,-1549.88 2604.6,-1551.66 2604.76,-1553.46 2604.5,-1555.29 2603.83,-1557.12 2602.78,-1558.96 2601.34,-1560.81 2599.55,-1562.65 2597.41,-1564.49 2594.94,-1566.31 2592.16,-1568.12 2589.1,-1569.9 2585.76,-1571.65 2582.16,-1573.38 2578.33,-1575.06 2574.29,-1576.71 2570.04,-1578.3 2565.62,-1579.85 2561.03,-1581.34 2556.29,-1582.78 2551.42,-1584.15 2546.43,-1585.46 2541.34,-1586.69 2536.15,-1587.85 2530.89,-1588.94 2525.55,-1589.94 2520.16,-1590.86 2514.71,-1591.7 2509.23,-1592.45 2503.71,-1593.11 2498.15,-1593.68 2492.58,-1594.16 2486.99,-1594.54 2481.38,-1594.83 2475.77,-1595.03 2470.15,-1595.12 2464.53,-1595.12 2458.91,-1595.03 2453.29,-1594.83 2447.69,-1594.54 2442.09,-1594.16 2436.52,-1593.68 2430.97,-1593.11 2425.45,-1592.45 2419.96,-1591.7 2414.52,-1590.86 2409.12,-1589.94 2403.79,-1588.94 2398.53,-1587.85 2393.34,-1586.69 2388.25,-1585.46 2383.26,-1584.15 2378.39,-1582.78 2373.65,-1581.34 2369.06,-1579.85 2364.63,-1578.3 2360.39,-1576.71 2356.34,-1575.06 2352.51,-1573.38 2348.92,-1571.65 2345.58,-1569.9 2342.51,-1568.12 2339.73,-1566.31 2337.27,-1564.49 2335.13,-1562.65 2333.33,-1560.81 2331.9,-1558.96 2330.84,-1557.12 2330.18,-1555.29 2329.92,-1553.46 2330.08,-1551.66 2330.66,-1549.88 2331.68,-1548.12 2333.14,-1546.4 2335.05,-1544.71 2337.41,-1543.07 2340.23,-1541.47 2343.49,-1539.92 2347.19,-1538.43 2351.33,-1537 2355.9,-1535.62 2360.89,-1534.32 2366.29,-1533.09 2372.07,-1531.92 2378.22,-1530.84 2384.72,-1529.83 2391.55,-1528.91 2398.67,-1528.07 2406.08,-1527.32 2413.73,-1526.66 2421.6,-1526.09 2429.66,-1525.61 2437.87,-1525.23 2446.2,-1524.94 2454.62,-1524.75 2463.09,-1524.65 2471.58,-1524.65 2480.05,-1524.75"/>
<text text-anchor="start" x="2438.17" y="-1569.69" font-family="Times,serif" font-size="14.00">C0678594</text>
<text text-anchor="start" x="2384.07" y="-1555.69" font-family="Times,serif" font-size="14.00">&quot; cauliflower &quot; &#45; like structure</text>
<text text-anchor="start" x="2451.39" y="-1541.69" font-family="Times,serif" font-size="14.00">50:55</text>
</g>
<!-- id_27541815_DOT_12&#45;&#45;id_27541815_DOT_26 -->
<g id="edge27" class="edge">
<title>id_27541815_DOT_12&#45;&#45;id_27541815_DOT_26</title>
<path fill="none" stroke="black" stroke-dasharray="1,5" d="M2443.34,-1594.45C2399.55,-1657.52 2307.26,-1790.46 2264.16,-1852.52"/>
<text text-anchor="middle" x="2327.5" y="-1726.29" font-family="Times,serif" font-size="14.00">0.814994</text>
</g>
<!-- id_27541815_DOT_27 -->
<g id="node27" class="node">
<title>id_27541815_DOT_27</title>
<polygon fill="aquamarine" stroke="aquamarine" points="1419.69,-379.63 1423.12,-379.82 1426.51,-380.11 1429.85,-380.49 1433.13,-380.97 1436.34,-381.54 1439.45,-382.2 1442.47,-382.95 1445.37,-383.79 1448.15,-384.71 1450.8,-385.72 1453.3,-386.8 1455.66,-387.96 1457.85,-389.2 1459.89,-390.5 1461.75,-391.88 1463.43,-393.31 1464.94,-394.8 1466.27,-396.35 1467.41,-397.95 1468.38,-399.59 1469.15,-401.28 1469.75,-403 1470.16,-404.76 1470.4,-406.54 1470.47,-408.34 1470.36,-410.17 1470.09,-412 1469.66,-413.84 1469.08,-415.69 1468.35,-417.53 1467.47,-419.37 1466.47,-421.19 1465.34,-423 1464.09,-424.78 1462.73,-426.53 1461.27,-428.26 1459.71,-429.94 1458.06,-431.59 1456.33,-433.18 1454.53,-434.73 1452.66,-436.22 1450.73,-437.66 1448.75,-439.03 1446.72,-440.33 1444.64,-441.57 1442.53,-442.73 1440.39,-443.82 1438.21,-444.82 1436.02,-445.74 1433.8,-446.58 1431.57,-447.33 1429.32,-447.99 1427.06,-448.56 1424.79,-449.04 1422.51,-449.42 1420.23,-449.71 1417.94,-449.91 1415.65,-450 1413.37,-450 1411.08,-449.91 1408.79,-449.71 1406.51,-449.42 1404.23,-449.04 1401.96,-448.56 1399.7,-447.99 1397.45,-447.33 1395.22,-446.58 1393,-445.74 1390.81,-444.82 1388.63,-443.82 1386.49,-442.73 1384.38,-441.57 1382.3,-440.33 1380.27,-439.03 1378.29,-437.66 1376.36,-436.22 1374.49,-434.73 1372.69,-433.18 1370.96,-431.59 1369.31,-429.94 1367.75,-428.26 1366.29,-426.53 1364.93,-424.78 1363.68,-423 1362.55,-421.19 1361.55,-419.37 1360.68,-417.53 1359.94,-415.69 1359.36,-413.84 1358.93,-412 1358.66,-410.17 1358.55,-408.34 1358.62,-406.54 1358.86,-404.76 1359.27,-403 1359.87,-401.28 1360.65,-399.59 1361.61,-397.95 1362.75,-396.35 1364.08,-394.8 1365.59,-393.31 1367.27,-391.88 1369.13,-390.5 1371.17,-389.2 1373.36,-387.96 1375.72,-386.8 1378.22,-385.72 1380.87,-384.71 1383.65,-383.79 1386.55,-382.95 1389.57,-382.2 1392.68,-381.54 1395.89,-380.97 1399.17,-380.49 1402.51,-380.11 1405.9,-379.82 1409.33,-379.63 1412.78,-379.53 1416.24,-379.53 1419.69,-379.63"/>
<text text-anchor="start" x="1385.34" y="-424.57" font-family="Times,serif" font-size="14.00">C1881977</text>
<text text-anchor="start" x="1395.46" y="-410.57" font-family="Times,serif" font-size="14.00">porous</text>
<text text-anchor="start" x="1391.57" y="-396.57" font-family="Times,serif" font-size="14.00">223:223</text>
</g>
<!-- id_27541815_DOT_13&#45;&#45;id_27541815_DOT_27 -->
<g id="edge10" class="edge">
<title>id_27541815_DOT_13&#45;&#45;id_27541815_DOT_27</title>
<path fill="none" stroke="black" d="M1438.75,-792.03C1433.73,-713.9 1421.78,-528.01 1416.78,-450.09"/>
<text text-anchor="middle" x="1401.51" y="-623.86" font-family="Times,serif" font-size="14.00">0.015573</text>
</g>
<!-- id_27541815_DOT_28 -->
<g id="node28" class="node">
<title>id_27541815_DOT_28</title>
<polygon fill="bisque" stroke="bisque" points="5000.86,-2599.17 5004.29,-2599.36 5007.69,-2599.65 5011.03,-2600.03 5014.31,-2600.51 5017.51,-2601.08 5020.63,-2601.74 5023.65,-2602.49 5026.55,-2603.33 5029.33,-2604.25 5031.98,-2605.26 5034.48,-2606.34 5036.83,-2607.5 5039.03,-2608.74 5041.06,-2610.04 5042.92,-2611.41 5044.61,-2612.85 5046.12,-2614.34 5047.45,-2615.89 5048.59,-2617.49 5049.55,-2619.13 5050.33,-2620.82 5050.92,-2622.54 5051.34,-2624.29 5051.58,-2626.08 5051.64,-2627.88 5051.54,-2629.7 5051.27,-2631.54 5050.84,-2633.38 5050.25,-2635.23 5049.52,-2637.07 5048.65,-2638.9 5047.65,-2640.73 5046.51,-2642.53 5045.27,-2644.31 5043.91,-2646.07 5042.44,-2647.79 5040.88,-2649.48 5039.24,-2651.12 5037.51,-2652.72 5035.7,-2654.27 5033.84,-2655.76 5031.91,-2657.2 5029.92,-2658.57 5027.89,-2659.87 5025.82,-2661.11 5023.71,-2662.27 5021.56,-2663.35 5019.39,-2664.36 5017.19,-2665.28 5014.98,-2666.12 5012.74,-2666.87 5010.49,-2667.53 5008.23,-2668.1 5005.96,-2668.58 5003.69,-2668.96 5001.41,-2669.25 4999.12,-2669.44 4996.83,-2669.54 4994.54,-2669.54 4992.25,-2669.44 4989.97,-2669.25 4987.68,-2668.96 4985.41,-2668.58 4983.14,-2668.1 4980.88,-2667.53 4978.63,-2666.87 4976.4,-2666.12 4974.18,-2665.28 4971.98,-2664.36 4969.81,-2663.35 4967.67,-2662.27 4965.55,-2661.11 4963.48,-2659.87 4961.45,-2658.57 4959.47,-2657.2 4957.54,-2655.76 4955.67,-2654.27 4953.87,-2652.72 4952.14,-2651.12 4950.49,-2649.48 4948.93,-2647.79 4947.47,-2646.07 4946.11,-2644.31 4944.86,-2642.53 4943.73,-2640.73 4942.72,-2638.9 4941.85,-2637.07 4941.12,-2635.23 4940.54,-2633.38 4940.11,-2631.54 4939.84,-2629.7 4939.73,-2627.88 4939.79,-2626.08 4940.03,-2624.29 4940.45,-2622.54 4941.04,-2620.82 4941.82,-2619.13 4942.78,-2617.49 4943.93,-2615.89 4945.25,-2614.34 4946.76,-2612.85 4948.45,-2611.41 4950.31,-2610.04 4952.34,-2608.74 4954.54,-2607.5 4956.89,-2606.34 4959.4,-2605.26 4962.04,-2604.25 4964.82,-2603.33 4967.73,-2602.49 4970.74,-2601.74 4973.86,-2601.08 4977.06,-2600.51 4980.34,-2600.03 4983.69,-2599.65 4987.08,-2599.36 4990.51,-2599.17 4993.96,-2599.07 4997.41,-2599.07 5000.86,-2599.17"/>
<text text-anchor="start" x="4966.52" y="-2644.1" font-family="Times,serif" font-size="14.00">C0037107</text>
<text text-anchor="start" x="4977.02" y="-2630.1" font-family="Times,serif" font-size="14.00">silicon</text>
<text text-anchor="start" x="4972.74" y="-2616.1" font-family="Times,serif" font-size="14.00">224:224</text>
</g>
<!-- id_27541815_DOT_14&#45;&#45;id_27541815_DOT_28 -->
<g id="edge11" class="edge">
<title>id_27541815_DOT_14&#45;&#45;id_27541815_DOT_28</title>
<path fill="none" stroke="black" d="M4674.63,-2554.1C4743.36,-2571.27 4869.04,-2602.67 4941.08,-2620.66"/>
<text text-anchor="middle" x="4781.61" y="-2590.18" font-family="Times,serif" font-size="14.00">0.007164</text>
</g>
<!-- id_27541815_DOT_32 -->
<g id="node32" class="node">
<title>id_27541815_DOT_32</title>
<polygon fill="darkmagenta" stroke="darkmagenta" points="1587.21,-3650.54 1590.64,-3650.74 1594.03,-3651.02 1597.37,-3651.41 1600.65,-3651.89 1603.86,-3652.46 1606.97,-3653.12 1609.99,-3653.87 1612.89,-3654.71 1615.67,-3655.63 1618.32,-3656.63 1620.82,-3657.72 1623.18,-3658.88 1625.37,-3660.11 1627.4,-3661.42 1629.27,-3662.79 1630.95,-3664.22 1632.46,-3665.72 1633.79,-3667.26 1634.93,-3668.86 1635.89,-3670.51 1636.67,-3672.19 1637.27,-3673.92 1637.68,-3675.67 1637.92,-3677.45 1637.99,-3679.26 1637.88,-3681.08 1637.61,-3682.92 1637.18,-3684.76 1636.6,-3686.6 1635.86,-3688.45 1634.99,-3690.28 1633.99,-3692.11 1632.86,-3693.91 1631.61,-3695.69 1630.25,-3697.45 1628.79,-3699.17 1627.23,-3700.86 1625.58,-3702.5 1623.85,-3704.1 1622.05,-3705.65 1620.18,-3707.14 1618.25,-3708.57 1616.27,-3709.94 1614.23,-3711.25 1612.16,-3712.48 1610.05,-3713.65 1607.91,-3714.73 1605.73,-3715.74 1603.54,-3716.66 1601.32,-3717.5 1599.09,-3718.25 1596.84,-3718.91 1594.58,-3719.48 1592.31,-3719.96 1590.03,-3720.34 1587.75,-3720.63 1585.46,-3720.82 1583.17,-3720.92 1580.88,-3720.92 1578.6,-3720.82 1576.31,-3720.63 1574.03,-3720.34 1571.75,-3719.96 1569.48,-3719.48 1567.22,-3718.91 1564.97,-3718.25 1562.74,-3717.5 1560.52,-3716.66 1558.33,-3715.74 1556.15,-3714.73 1554.01,-3713.65 1551.9,-3712.48 1549.82,-3711.25 1547.79,-3709.94 1545.81,-3708.57 1543.88,-3707.14 1542.01,-3705.65 1540.21,-3704.1 1538.48,-3702.5 1536.83,-3700.86 1535.27,-3699.17 1533.81,-3697.45 1532.45,-3695.69 1531.2,-3693.91 1530.07,-3692.11 1529.07,-3690.28 1528.19,-3688.45 1527.46,-3686.6 1526.88,-3684.76 1526.45,-3682.92 1526.18,-3681.08 1526.07,-3679.26 1526.14,-3677.45 1526.37,-3675.67 1526.79,-3673.92 1527.39,-3672.19 1528.16,-3670.51 1529.13,-3668.86 1530.27,-3667.26 1531.6,-3665.72 1533.11,-3664.22 1534.79,-3662.79 1536.65,-3661.42 1538.69,-3660.11 1540.88,-3658.88 1543.24,-3657.72 1545.74,-3656.63 1548.39,-3655.63 1551.17,-3654.71 1554.07,-3653.87 1557.09,-3653.12 1560.2,-3652.46 1563.41,-3651.89 1566.69,-3651.41 1570.03,-3651.02 1573.42,-3650.74 1576.85,-3650.54 1580.3,-3650.45 1583.76,-3650.45 1587.21,-3650.54"/>
<text text-anchor="start" x="1552.86" y="-3695.48" font-family="Times,serif" font-size="14.00">C2603343</text>
<text text-anchor="start" x="1562.58" y="-3681.48" font-family="Times,serif" font-size="14.00">studies</text>
<text text-anchor="start" x="1559.08" y="-3667.48" font-family="Times,serif" font-size="14.00">244:244</text>
</g>
<!-- id_27541815_DOT_15&#45;&#45;id_27541815_DOT_32 -->
<g id="edge28" class="edge">
<title>id_27541815_DOT_15&#45;&#45;id_27541815_DOT_32</title>
<path fill="none" stroke="black" stroke-dasharray="1,5" d="M1720.53,-3340.07C1691.61,-3412.24 1624.88,-3578.76 1595.89,-3651.09"/>
<text text-anchor="middle" x="1631.96" y="-3498.38" font-family="Times,serif" font-size="14.00">0.940007</text>
</g>
<!-- id_27541815_DOT_16&#45;&#45;id_27541815_DOT_23 -->
<g id="edge12" class="edge">
<title>id_27541815_DOT_16&#45;&#45;id_27541815_DOT_23</title>
<path fill="none" stroke="black" d="M1583.05,-1903.92C1510.6,-1855.48 1360.45,-1755.09 1291.97,-1709.31"/>
<text text-anchor="middle" x="1411.26" y="-1809.41" font-family="Times,serif" font-size="14.00">0.019885</text>
</g>
<!-- id_27541815_DOT_17 -->
<g id="node17" class="node">
<title>id_27541815_DOT_17</title>
<polygon fill="crimson" stroke="crimson" points="61.16,-1574.78 64.58,-1574.97 67.98,-1575.26 71.32,-1575.65 74.6,-1576.12 77.81,-1576.7 80.92,-1577.36 83.94,-1578.11 86.84,-1578.94 89.62,-1579.87 92.27,-1580.87 94.77,-1581.96 97.13,-1583.12 99.32,-1584.35 101.35,-1585.66 103.22,-1587.03 104.9,-1588.46 106.41,-1589.96 107.74,-1591.5 108.88,-1593.1 109.84,-1594.75 110.62,-1596.43 111.22,-1598.16 111.63,-1599.91 111.87,-1601.69 111.93,-1603.5 111.83,-1605.32 111.56,-1607.16 111.13,-1609 110.54,-1610.84 109.81,-1612.69 108.94,-1614.52 107.94,-1616.34 106.81,-1618.15 105.56,-1619.93 104.2,-1621.69 102.73,-1623.41 101.18,-1625.1 99.53,-1626.74 97.8,-1628.34 96,-1629.89 94.13,-1631.38 92.2,-1632.81 90.22,-1634.18 88.18,-1635.49 86.11,-1636.72 84,-1637.88 81.85,-1638.97 79.68,-1639.97 77.49,-1640.9 75.27,-1641.73 73.04,-1642.49 70.79,-1643.15 68.53,-1643.72 66.26,-1644.19 63.98,-1644.58 61.7,-1644.87 59.41,-1645.06 57.12,-1645.16 54.83,-1645.16 52.55,-1645.06 50.26,-1644.87 47.98,-1644.58 45.7,-1644.19 43.43,-1643.72 41.17,-1643.15 38.92,-1642.49 36.69,-1641.73 34.47,-1640.9 32.27,-1639.97 30.1,-1638.97 27.96,-1637.88 25.85,-1636.72 23.77,-1635.49 21.74,-1634.18 19.76,-1632.81 17.83,-1631.38 15.96,-1629.89 14.16,-1628.34 12.43,-1626.74 10.78,-1625.1 9.22,-1623.41 7.76,-1621.69 6.4,-1619.93 5.15,-1618.15 4.02,-1616.34 3.01,-1614.52 2.14,-1612.69 1.41,-1610.84 0.83,-1609 0.4,-1607.16 0.13,-1605.32 0.02,-1603.5 0.09,-1601.69 0.32,-1599.91 0.74,-1598.16 1.34,-1596.43 2.11,-1594.75 3.07,-1593.1 4.22,-1591.5 5.55,-1589.96 7.05,-1588.46 8.74,-1587.03 10.6,-1585.66 12.63,-1584.35 14.83,-1583.12 17.18,-1581.96 19.69,-1580.87 22.34,-1579.87 25.12,-1578.94 28.02,-1578.11 31.03,-1577.36 34.15,-1576.7 37.35,-1576.12 40.64,-1575.65 43.98,-1575.26 47.37,-1574.97 50.8,-1574.78 54.25,-1574.69 57.71,-1574.69 61.16,-1574.78"/>
<text text-anchor="start" x="26.81" y="-1619.72" font-family="Times,serif" font-size="14.00">C0205147</text>
<text text-anchor="start" x="38.1" y="-1605.72" font-family="Times,serif" font-size="14.00">region</text>
<text text-anchor="start" x="40.03" y="-1591.72" font-family="Times,serif" font-size="14.00">83:83</text>
</g>
<!-- id_27541815_DOT_25 -->
<g id="node25" class="node">
<title>id_27541815_DOT_25</title>
<polygon fill="darkkhaki" stroke="darkkhaki" points="453.76,-1659.5 457.18,-1659.69 460.58,-1659.98 463.92,-1660.36 467.2,-1660.84 470.41,-1661.41 473.52,-1662.07 476.54,-1662.82 479.44,-1663.66 482.22,-1664.59 484.87,-1665.59 487.37,-1666.67 489.73,-1667.84 491.92,-1669.07 493.95,-1670.38 495.81,-1671.75 497.5,-1673.18 499.01,-1674.67 500.34,-1676.22 501.48,-1677.82 502.44,-1679.46 503.22,-1681.15 503.82,-1682.87 504.23,-1684.63 504.47,-1686.41 504.53,-1688.22 504.43,-1690.04 504.16,-1691.87 503.73,-1693.72 503.14,-1695.56 502.41,-1697.4 501.54,-1699.24 500.54,-1701.06 499.41,-1702.87 498.16,-1704.65 496.8,-1706.4 495.33,-1708.13 493.77,-1709.81 492.13,-1711.46 490.4,-1713.06 488.6,-1714.6 486.73,-1716.1 484.8,-1717.53 482.81,-1718.9 480.78,-1720.21 478.71,-1721.44 476.6,-1722.6 474.45,-1723.69 472.28,-1724.69 470.09,-1725.61 467.87,-1726.45 465.63,-1727.2 463.39,-1727.86 461.13,-1728.43 458.86,-1728.91 456.58,-1729.3 454.3,-1729.58 452.01,-1729.78 449.72,-1729.87 447.43,-1729.87 445.14,-1729.78 442.86,-1729.58 440.58,-1729.3 438.3,-1728.91 436.03,-1728.43 433.77,-1727.86 431.52,-1727.2 429.29,-1726.45 427.07,-1725.61 424.87,-1724.69 422.7,-1723.69 420.56,-1722.6 418.45,-1721.44 416.37,-1720.21 414.34,-1718.9 412.36,-1717.53 410.43,-1716.1 408.56,-1714.6 406.76,-1713.06 405.03,-1711.46 403.38,-1709.81 401.82,-1708.13 400.36,-1706.4 399,-1704.65 397.75,-1702.87 396.62,-1701.06 395.61,-1699.24 394.74,-1697.4 394.01,-1695.56 393.43,-1693.72 393,-1691.87 392.73,-1690.04 392.62,-1688.22 392.69,-1686.41 392.92,-1684.63 393.34,-1682.87 393.93,-1681.15 394.71,-1679.46 395.67,-1677.82 396.82,-1676.22 398.15,-1674.67 399.65,-1673.18 401.34,-1671.75 403.2,-1670.38 405.23,-1669.07 407.43,-1667.84 409.78,-1666.67 412.29,-1665.59 414.94,-1664.59 417.72,-1663.66 420.62,-1662.82 423.63,-1662.07 426.75,-1661.41 429.95,-1660.84 433.24,-1660.36 436.58,-1659.98 439.97,-1659.69 443.4,-1659.5 446.85,-1659.4 450.31,-1659.4 453.76,-1659.5"/>
<text text-anchor="start" x="419.41" y="-1704.44" font-family="Times,serif" font-size="14.00">C0750484</text>
<text text-anchor="start" x="420.2" y="-1690.44" font-family="Times,serif" font-size="14.00">confirmed</text>
<text text-anchor="start" x="425.63" y="-1676.44" font-family="Times,serif" font-size="14.00">178:178</text>
</g>
<!-- id_27541815_DOT_17&#45;&#45;id_27541815_DOT_25 -->
<g id="edge29" class="edge">
<title>id_27541815_DOT_17&#45;&#45;id_27541815_DOT_25</title>
<path fill="none" stroke="black" stroke-dasharray="1,5" d="M105.3,-1620.56C178.72,-1636.41 316.33,-1666.1 393.14,-1682.68"/>
<text text-anchor="middle" x="222.97" y="-1654.42" font-family="Times,serif" font-size="14.00">0.815494</text>
</g>
<!-- id_27541815_DOT_18 -->
<g id="node18" class="node">
<title>id_27541815_DOT_18</title>
<polygon fill="cadetblue" stroke="cadetblue" points="3006.51,-3847.65 3009.94,-3847.84 3013.33,-3848.13 3016.68,-3848.52 3019.96,-3848.99 3023.16,-3849.56 3026.28,-3850.23 3029.29,-3850.98 3032.2,-3851.81 3034.98,-3852.74 3037.62,-3853.74 3040.13,-3854.83 3042.48,-3855.99 3044.68,-3857.22 3046.71,-3858.53 3048.57,-3859.9 3050.26,-3861.33 3051.77,-3862.83 3053.09,-3864.37 3054.24,-3865.97 3055.2,-3867.62 3055.98,-3869.3 3056.57,-3871.02 3056.99,-3872.78 3057.23,-3874.56 3057.29,-3876.37 3057.18,-3878.19 3056.91,-3880.02 3056.48,-3881.87 3055.9,-3883.71 3055.17,-3885.56 3054.3,-3887.39 3053.29,-3889.21 3052.16,-3891.02 3050.91,-3892.8 3049.55,-3894.56 3048.09,-3896.28 3046.53,-3897.96 3044.88,-3899.61 3043.15,-3901.21 3041.35,-3902.75 3039.48,-3904.25 3037.55,-3905.68 3035.57,-3907.05 3033.54,-3908.36 3031.47,-3909.59 3029.35,-3910.75 3027.21,-3911.84 3025.04,-3912.84 3022.84,-3913.77 3020.62,-3914.6 3018.39,-3915.35 3016.14,-3916.02 3013.88,-3916.59 3011.61,-3917.06 3009.34,-3917.45 3007.05,-3917.74 3004.77,-3917.93 3002.48,-3918.03 3000.19,-3918.03 2997.9,-3917.93 2995.61,-3917.74 2993.33,-3917.45 2991.06,-3917.06 2988.79,-3916.59 2986.53,-3916.02 2984.28,-3915.35 2982.04,-3914.6 2979.83,-3913.77 2977.63,-3912.84 2975.46,-3911.84 2973.31,-3910.75 2971.2,-3909.59 2969.13,-3908.36 2967.1,-3907.05 2965.11,-3905.68 2963.18,-3904.25 2961.32,-3902.75 2959.51,-3901.21 2957.78,-3899.61 2956.14,-3897.96 2954.58,-3896.28 2953.11,-3894.56 2951.75,-3892.8 2950.51,-3891.02 2949.37,-3889.21 2948.37,-3887.39 2947.5,-3885.56 2946.77,-3883.71 2946.18,-3881.87 2945.75,-3880.02 2945.48,-3878.19 2945.38,-3876.37 2945.44,-3874.56 2945.68,-3872.78 2946.1,-3871.02 2946.69,-3869.3 2947.47,-3867.62 2948.43,-3865.97 2949.57,-3864.37 2950.9,-3862.83 2952.41,-3861.33 2954.1,-3859.9 2955.96,-3858.53 2957.99,-3857.22 2960.19,-3855.99 2962.54,-3854.83 2965.04,-3853.74 2967.69,-3852.74 2970.47,-3851.81 2973.37,-3850.98 2976.39,-3850.23 2979.51,-3849.56 2982.71,-3848.99 2985.99,-3848.52 2989.33,-3848.13 2992.73,-3847.84 2996.16,-3847.65 2999.61,-3847.55 3003.06,-3847.55 3006.51,-3847.65"/>
<text text-anchor="start" x="2972.17" y="-3892.59" font-family="Times,serif" font-size="14.00">C0043047</text>
<text text-anchor="start" x="2985.79" y="-3878.59" font-family="Times,serif" font-size="14.00">water</text>
<text text-anchor="start" x="2978.39" y="-3864.59" font-family="Times,serif" font-size="14.00">102:102</text>
</g>
<!-- id_27541815_DOT_19 -->
<g id="node19" class="node">
<title>id_27541815_DOT_19</title>
<polygon fill="cadetblue" stroke="cadetblue" points="2937.59,-3456.51 2941.02,-3456.7 2944.41,-3456.99 2947.76,-3457.37 2951.04,-3457.85 2954.24,-3458.42 2957.36,-3459.08 2960.37,-3459.83 2963.28,-3460.67 2966.06,-3461.59 2968.7,-3462.6 2971.21,-3463.68 2973.56,-3464.85 2975.76,-3466.08 2977.79,-3467.38 2979.65,-3468.76 2981.34,-3470.19 2982.85,-3471.68 2984.17,-3473.23 2985.32,-3474.83 2986.28,-3476.47 2987.06,-3478.16 2987.65,-3479.88 2988.07,-3481.64 2988.31,-3483.42 2988.37,-3485.22 2988.27,-3487.05 2987.99,-3488.88 2987.56,-3490.73 2986.98,-3492.57 2986.25,-3494.41 2985.38,-3496.25 2984.37,-3498.07 2983.24,-3499.88 2981.99,-3501.66 2980.63,-3503.41 2979.17,-3505.14 2977.61,-3506.82 2975.96,-3508.47 2974.24,-3510.06 2972.43,-3511.61 2970.56,-3513.11 2968.63,-3514.54 2966.65,-3515.91 2964.62,-3517.22 2962.55,-3518.45 2960.43,-3519.61 2958.29,-3520.7 2956.12,-3521.7 2953.92,-3522.62 2951.71,-3523.46 2949.47,-3524.21 2947.22,-3524.87 2944.96,-3525.44 2942.69,-3525.92 2940.42,-3526.31 2938.13,-3526.59 2935.85,-3526.79 2933.56,-3526.88 2931.27,-3526.88 2928.98,-3526.79 2926.69,-3526.59 2924.41,-3526.31 2922.14,-3525.92 2919.87,-3525.44 2917.61,-3524.87 2915.36,-3524.21 2913.12,-3523.46 2910.91,-3522.62 2908.71,-3521.7 2906.54,-3520.7 2904.39,-3519.61 2902.28,-3518.45 2900.21,-3517.22 2898.18,-3515.91 2896.19,-3514.54 2894.26,-3513.11 2892.4,-3511.61 2890.59,-3510.06 2888.87,-3508.47 2887.22,-3506.82 2885.66,-3505.14 2884.2,-3503.41 2882.83,-3501.66 2881.59,-3499.88 2880.46,-3498.07 2879.45,-3496.25 2878.58,-3494.41 2877.85,-3492.57 2877.26,-3490.73 2876.83,-3488.88 2876.56,-3487.05 2876.46,-3485.22 2876.52,-3483.42 2876.76,-3481.64 2877.18,-3479.88 2877.77,-3478.16 2878.55,-3476.47 2879.51,-3474.83 2880.66,-3473.23 2881.98,-3471.68 2883.49,-3470.19 2885.18,-3468.76 2887.04,-3467.38 2889.07,-3466.08 2891.27,-3464.85 2893.62,-3463.68 2896.13,-3462.6 2898.77,-3461.59 2901.55,-3460.67 2904.46,-3459.83 2907.47,-3459.08 2910.59,-3458.42 2913.79,-3457.85 2917.07,-3457.37 2920.42,-3456.99 2923.81,-3456.7 2927.24,-3456.51 2930.69,-3456.41 2934.14,-3456.41 2937.59,-3456.51"/>
<text text-anchor="start" x="2903.25" y="-3501.45" font-family="Times,serif" font-size="14.00">C0043047</text>
<text text-anchor="start" x="2916.87" y="-3487.45" font-family="Times,serif" font-size="14.00">water</text>
<text text-anchor="start" x="2909.47" y="-3473.45" font-family="Times,serif" font-size="14.00">104:104</text>
</g>
<!-- id_27541815_DOT_18&#45;&#45;id_27541815_DOT_19 -->
<g id="edge13" class="edge">
<title>id_27541815_DOT_18&#45;&#45;id_27541815_DOT_19</title>
<path fill="none" stroke="black" d="M2995.1,-3847.39C2981.97,-3772.92 2951.65,-3600.84 2938.59,-3526.69"/>
<text text-anchor="middle" x="2940.59" y="-3689.84" font-family="Times,serif" font-size="14.00">0.001237</text>
</g>
<!-- id_27541815_DOT_24 -->
<g id="node24" class="node">
<title>id_27541815_DOT_24</title>
<polygon fill="cadetblue" stroke="cadetblue" points="2826.77,-3055.37 2830.2,-3055.57 2833.59,-3055.85 2836.93,-3056.24 2840.22,-3056.72 2843.42,-3057.29 2846.54,-3057.95 2849.55,-3058.7 2852.45,-3059.54 2855.23,-3060.46 2857.88,-3061.46 2860.39,-3062.55 2862.74,-3063.71 2864.94,-3064.94 2866.97,-3066.25 2868.83,-3067.62 2870.52,-3069.05 2872.02,-3070.55 2873.35,-3072.09 2874.5,-3073.69 2875.46,-3075.34 2876.23,-3077.02 2876.83,-3078.75 2877.25,-3080.5 2877.48,-3082.28 2877.55,-3084.09 2877.44,-3085.91 2877.17,-3087.75 2876.74,-3089.59 2876.16,-3091.43 2875.43,-3093.28 2874.56,-3095.11 2873.55,-3096.93 2872.42,-3098.74 2871.17,-3100.52 2869.81,-3102.28 2868.35,-3104 2866.79,-3105.69 2865.14,-3107.33 2863.41,-3108.93 2861.61,-3110.48 2859.74,-3111.97 2857.81,-3113.4 2855.83,-3114.77 2853.8,-3116.08 2851.72,-3117.31 2849.61,-3118.48 2847.47,-3119.56 2845.3,-3120.56 2843.1,-3121.49 2840.88,-3122.33 2838.65,-3123.08 2836.4,-3123.74 2834.14,-3124.31 2831.87,-3124.79 2829.59,-3125.17 2827.31,-3125.46 2825.03,-3125.65 2822.74,-3125.75 2820.45,-3125.75 2818.16,-3125.65 2815.87,-3125.46 2813.59,-3125.17 2811.31,-3124.79 2809.04,-3124.31 2806.78,-3123.74 2804.54,-3123.08 2802.3,-3122.33 2800.08,-3121.49 2797.89,-3120.56 2795.72,-3119.56 2793.57,-3118.48 2791.46,-3117.31 2789.39,-3116.08 2787.36,-3114.77 2785.37,-3113.4 2783.44,-3111.97 2781.57,-3110.48 2779.77,-3108.93 2778.04,-3107.33 2776.4,-3105.69 2774.84,-3104 2773.37,-3102.28 2772.01,-3100.52 2770.76,-3098.74 2769.63,-3096.93 2768.63,-3095.11 2767.76,-3093.28 2767.03,-3091.43 2766.44,-3089.59 2766.01,-3087.75 2765.74,-3085.91 2765.64,-3084.09 2765.7,-3082.28 2765.94,-3080.5 2766.35,-3078.75 2766.95,-3077.02 2767.73,-3075.34 2768.69,-3073.69 2769.83,-3072.09 2771.16,-3070.55 2772.67,-3069.05 2774.35,-3067.62 2776.22,-3066.25 2778.25,-3064.94 2780.44,-3063.71 2782.8,-3062.55 2785.3,-3061.46 2787.95,-3060.46 2790.73,-3059.54 2793.63,-3058.7 2796.65,-3057.95 2799.76,-3057.29 2802.97,-3056.72 2806.25,-3056.24 2809.59,-3055.85 2812.99,-3055.57 2816.41,-3055.37 2819.86,-3055.28 2823.32,-3055.28 2826.77,-3055.37"/>
<text text-anchor="start" x="2792.42" y="-3100.31" font-family="Times,serif" font-size="14.00">C0043047</text>
<text text-anchor="start" x="2806.05" y="-3086.31" font-family="Times,serif" font-size="14.00">water</text>
<text text-anchor="start" x="2798.65" y="-3072.31" font-family="Times,serif" font-size="14.00">160:160</text>
</g>
<!-- id_27541815_DOT_19&#45;&#45;id_27541815_DOT_24 -->
<g id="edge14" class="edge">
<title>id_27541815_DOT_19&#45;&#45;id_27541815_DOT_24</title>
<path fill="none" stroke="black" d="M2922.77,-3456.75C2901.76,-3380.7 2852.05,-3200.76 2831.13,-3125.04"/>
<text text-anchor="middle" x="2850.7" y="-3293.7" font-family="Times,serif" font-size="14.00">0.005722</text>
</g>
<!-- id_27541815_DOT_20&#45;&#45;id_27541815_DOT_21 -->
<g id="edge15" class="edge">
<title>id_27541815_DOT_20&#45;&#45;id_27541815_DOT_21</title>
<path fill="none" stroke="black" d="M3587.83,-2449.28C3654.82,-2440.67 3745.41,-2429.03 3810.04,-2420.72"/>
<text text-anchor="middle" x="3672.68" y="-2437.8" font-family="Times,serif" font-size="14.00">0.003830</text>
</g>
<!-- id_27541815_DOT_22 -->
<g id="node22" class="node">
<title>id_27541815_DOT_22</title>
<polygon fill="darkgreen" stroke="darkgreen" points="559.55,-2133.28 563.84,-2133.47 568.08,-2133.76 572.26,-2134.14 576.37,-2134.62 580.37,-2135.19 584.27,-2135.85 588.04,-2136.6 591.67,-2137.44 595.15,-2138.36 598.45,-2139.37 601.59,-2140.45 604.53,-2141.61 607.28,-2142.85 609.82,-2144.15 612.14,-2145.52 614.25,-2146.96 616.14,-2148.45 617.8,-2150 619.23,-2151.6 620.43,-2153.24 621.4,-2154.93 622.15,-2156.65 622.67,-2158.4 622.97,-2160.19 623.05,-2161.99 622.91,-2163.81 622.58,-2165.65 622.04,-2167.49 621.31,-2169.34 620.39,-2171.18 619.3,-2173.02 618.05,-2174.84 616.63,-2176.64 615.07,-2178.43 613.37,-2180.18 611.54,-2181.9 609.59,-2183.59 607.53,-2185.23 605.37,-2186.83 603.12,-2188.38 600.78,-2189.87 598.37,-2191.31 595.89,-2192.68 593.35,-2193.98 590.76,-2195.22 588.12,-2196.38 585.43,-2197.46 582.72,-2198.47 579.97,-2199.39 577.2,-2200.23 574.41,-2200.98 571.6,-2201.64 568.77,-2202.21 565.93,-2202.69 563.09,-2203.07 560.23,-2203.36 557.37,-2203.55 554.51,-2203.65 551.65,-2203.65 548.79,-2203.55 545.93,-2203.36 543.07,-2203.07 540.23,-2202.69 537.39,-2202.21 534.56,-2201.64 531.75,-2200.98 528.96,-2200.23 526.19,-2199.39 523.44,-2198.47 520.73,-2197.46 518.04,-2196.38 515.4,-2195.22 512.81,-2193.98 510.27,-2192.68 507.79,-2191.31 505.38,-2189.87 503.04,-2188.38 500.79,-2186.83 498.63,-2185.23 496.57,-2183.59 494.62,-2181.9 492.79,-2180.18 491.09,-2178.43 489.53,-2176.64 488.11,-2174.84 486.86,-2173.02 485.77,-2171.18 484.85,-2169.34 484.12,-2167.49 483.58,-2165.65 483.25,-2163.81 483.11,-2161.99 483.19,-2160.19 483.49,-2158.4 484.01,-2156.65 484.76,-2154.93 485.73,-2153.24 486.93,-2151.6 488.36,-2150 490.02,-2148.45 491.91,-2146.96 494.02,-2145.52 496.34,-2144.15 498.88,-2142.85 501.63,-2141.61 504.57,-2140.45 507.71,-2139.37 511.01,-2138.36 514.49,-2137.44 518.12,-2136.6 521.89,-2135.85 525.79,-2135.19 529.79,-2134.62 533.9,-2134.14 538.08,-2133.76 542.32,-2133.47 546.61,-2133.28 550.92,-2133.18 555.24,-2133.18 559.55,-2133.28"/>
<text text-anchor="start" x="523.91" y="-2178.22" font-family="Times,serif" font-size="14.00">C0180875</text>
<text text-anchor="start" x="514.78" y="-2164.22" font-family="Times,serif" font-size="14.00">syringe filters</text>
<text text-anchor="start" x="530.14" y="-2150.22" font-family="Times,serif" font-size="14.00">138:139</text>
</g>
<!-- id_27541815_DOT_33 -->
<g id="node33" class="node">
<title>id_27541815_DOT_33</title>
<polygon fill="darkorange" stroke="darkorange" points="838.04,-1820.79 841.47,-1820.98 844.87,-1821.27 848.21,-1821.65 851.49,-1822.13 854.69,-1822.7 857.81,-1823.36 860.83,-1824.11 863.73,-1824.95 866.51,-1825.87 869.16,-1826.88 871.66,-1827.96 874.01,-1829.12 876.21,-1830.36 878.24,-1831.66 880.1,-1833.03 881.79,-1834.47 883.3,-1835.96 884.63,-1837.51 885.77,-1839.11 886.73,-1840.75 887.51,-1842.44 888.11,-1844.16 888.52,-1845.92 888.76,-1847.7 888.82,-1849.5 888.72,-1851.33 888.45,-1853.16 888.02,-1855 887.43,-1856.85 886.7,-1858.69 885.83,-1860.53 884.83,-1862.35 883.69,-1864.15 882.45,-1865.94 881.09,-1867.69 879.62,-1869.41 878.06,-1871.1 876.42,-1872.74 874.69,-1874.34 872.89,-1875.89 871.02,-1877.38 869.09,-1878.82 867.1,-1880.19 865.07,-1881.49 863,-1882.73 860.89,-1883.89 858.74,-1884.97 856.57,-1885.98 854.37,-1886.9 852.16,-1887.74 849.92,-1888.49 847.67,-1889.15 845.41,-1889.72 843.15,-1890.2 840.87,-1890.58 838.59,-1890.87 836.3,-1891.06 834.01,-1891.16 831.72,-1891.16 829.43,-1891.06 827.15,-1890.87 824.86,-1890.58 822.59,-1890.2 820.32,-1889.72 818.06,-1889.15 815.81,-1888.49 813.58,-1887.74 811.36,-1886.9 809.16,-1885.98 806.99,-1884.97 804.85,-1883.89 802.74,-1882.73 800.66,-1881.49 798.63,-1880.19 796.65,-1878.82 794.72,-1877.38 792.85,-1875.89 791.05,-1874.34 789.32,-1872.74 787.67,-1871.1 786.11,-1869.41 784.65,-1867.69 783.29,-1865.94 782.04,-1864.15 780.91,-1862.35 779.9,-1860.53 779.03,-1858.69 778.3,-1856.85 777.72,-1855 777.29,-1853.16 777.02,-1851.33 776.91,-1849.5 776.97,-1847.7 777.21,-1845.92 777.63,-1844.16 778.22,-1842.44 779,-1840.75 779.96,-1839.11 781.11,-1837.51 782.43,-1835.96 783.94,-1834.47 785.63,-1833.03 787.49,-1831.66 789.52,-1830.36 791.72,-1829.12 794.07,-1827.96 796.58,-1826.88 799.22,-1825.87 802,-1824.95 804.91,-1824.11 807.92,-1823.36 811.04,-1822.7 814.24,-1822.13 817.52,-1821.65 820.87,-1821.27 824.26,-1820.98 827.69,-1820.79 831.14,-1820.69 834.59,-1820.69 838.04,-1820.79"/>
<text text-anchor="start" x="803.7" y="-1865.73" font-family="Times,serif" font-size="14.00">C0005516</text>
<text text-anchor="start" x="810.32" y="-1851.73" font-family="Times,serif" font-size="14.00">markers</text>
<text text-anchor="start" x="809.92" y="-1837.73" font-family="Times,serif" font-size="14.00">248:248</text>
</g>
<!-- id_27541815_DOT_22&#45;&#45;id_27541815_DOT_33 -->
<g id="edge30" class="edge">
<title>id_27541815_DOT_22&#45;&#45;id_27541815_DOT_33</title>
<path fill="none" stroke="black" stroke-dasharray="1,5" d="M582.76,-2135.27C637.75,-2073.85 754.61,-1943.33 806.78,-1885.07"/>
<text text-anchor="middle" x="668.52" y="-2012.97" font-family="Times,serif" font-size="14.00">0.865144</text>
</g>
<!-- id_27541815_DOT_34 -->
<g id="node34" class="node">
<title>id_27541815_DOT_34</title>
<polygon fill="darkred" stroke="darkred" points="203.28,-2331.34 206.87,-2331.54 210.43,-2331.82 213.94,-2332.21 217.38,-2332.69 220.75,-2333.26 224.01,-2333.92 227.18,-2334.67 230.22,-2335.51 233.14,-2336.43 235.92,-2337.43 238.55,-2338.52 241.02,-2339.68 243.32,-2340.91 245.45,-2342.22 247.4,-2343.59 249.17,-2345.02 250.76,-2346.52 252.15,-2348.06 253.35,-2349.66 254.36,-2351.31 255.17,-2352.99 255.8,-2354.72 256.23,-2356.47 256.48,-2358.25 256.55,-2360.06 256.44,-2361.88 256.16,-2363.72 255.71,-2365.56 255.09,-2367.4 254.33,-2369.25 253.41,-2371.08 252.36,-2372.9 251.17,-2374.71 249.86,-2376.49 248.43,-2378.25 246.9,-2379.97 245.26,-2381.66 243.53,-2383.3 241.72,-2384.9 239.83,-2386.45 237.87,-2387.94 235.85,-2389.37 233.76,-2390.74 231.63,-2392.05 229.46,-2393.28 227.24,-2394.45 224.99,-2395.53 222.71,-2396.53 220.41,-2397.46 218.08,-2398.3 215.74,-2399.05 213.38,-2399.71 211.01,-2400.28 208.63,-2400.76 206.24,-2401.14 203.85,-2401.43 201.45,-2401.62 199.05,-2401.72 196.64,-2401.72 194.24,-2401.62 191.84,-2401.43 189.45,-2401.14 187.06,-2400.76 184.68,-2400.28 182.31,-2399.71 179.95,-2399.05 177.61,-2398.3 175.28,-2397.46 172.98,-2396.53 170.7,-2395.53 168.45,-2394.45 166.23,-2393.28 164.06,-2392.05 161.92,-2390.74 159.84,-2389.37 157.82,-2387.94 155.86,-2386.45 153.97,-2384.9 152.15,-2383.3 150.43,-2381.66 148.79,-2379.97 147.25,-2378.25 145.83,-2376.49 144.52,-2374.71 143.33,-2372.9 142.28,-2371.08 141.36,-2369.25 140.6,-2367.4 139.98,-2365.56 139.53,-2363.72 139.25,-2361.88 139.14,-2360.06 139.2,-2358.25 139.45,-2356.47 139.89,-2354.72 140.52,-2352.99 141.33,-2351.31 142.34,-2349.66 143.54,-2348.06 144.93,-2346.52 146.52,-2345.02 148.29,-2343.59 150.24,-2342.22 152.37,-2340.91 154.67,-2339.68 157.14,-2338.52 159.77,-2337.43 162.55,-2336.43 165.47,-2335.51 168.51,-2334.67 171.67,-2333.92 174.94,-2333.26 178.31,-2332.69 181.75,-2332.21 185.26,-2331.82 188.82,-2331.54 192.41,-2331.34 196.03,-2331.25 199.66,-2331.25 203.28,-2331.34"/>
<text text-anchor="start" x="168.68" y="-2376.28" font-family="Times,serif" font-size="14.00">C0007634</text>
<text text-anchor="start" x="166.93" y="-2362.28" font-family="Times,serif" font-size="14.00">living cells</text>
<text text-anchor="start" x="174.9" y="-2348.28" font-family="Times,serif" font-size="14.00">250:251</text>
</g>
<!-- id_27541815_DOT_22&#45;&#45;id_27541815_DOT_34 -->
<g id="edge31" class="edge">
<title>id_27541815_DOT_22&#45;&#45;id_27541815_DOT_34</title>
<path fill="none" stroke="black" stroke-dasharray="1,5" d="M509.88,-2192.5C442.39,-2230.13 312.54,-2302.53 243.55,-2341"/>
<text text-anchor="middle" x="350.46" y="-2269.55" font-family="Times,serif" font-size="14.00">0.856976</text>
</g>
<!-- id_27541815_DOT_23&#45;&#45;id_27541815_DOT_33 -->
<g id="edge32" class="edge">
<title>id_27541815_DOT_23&#45;&#45;id_27541815_DOT_33</title>
<path fill="none" stroke="black" stroke-dasharray="1,5" d="M1213.19,-1703.05C1134.21,-1734.8 967.29,-1801.89 883.33,-1835.64"/>
<text text-anchor="middle" x="1022.01" y="-1772.15" font-family="Times,serif" font-size="14.00">0.771016</text>
</g>
<!-- id_27541815_DOT_24&#45;&#45;id_27541815_DOT_31 -->
<g id="edge16" class="edge">
<title>id_27541815_DOT_24&#45;&#45;id_27541815_DOT_31</title>
<path fill="none" stroke="black" d="M2810.56,-3055.48C2786.26,-2978.31 2728.35,-2794.44 2704.28,-2718.02"/>
<text text-anchor="middle" x="2731.42" y="-2889.55" font-family="Times,serif" font-size="14.00">0.011645</text>
</g>
<!-- id_27541815_DOT_25&#45;&#45;id_27541815_DOT_33 -->
<g id="edge33" class="edge">
<title>id_27541815_DOT_25&#45;&#45;id_27541815_DOT_33</title>
<path fill="none" stroke="black" stroke-dasharray="1,5" d="M491.17,-1712.52C562.79,-1742.57 706.96,-1803.08 783.12,-1835.05"/>
<text text-anchor="middle" x="610.89" y="-1776.58" font-family="Times,serif" font-size="14.00">0.771865</text>
</g>
<!-- id_27541815_DOT_29 -->
<g id="node29" class="node">
<title>id_27541815_DOT_29</title>
<polygon fill="aquamarine" stroke="aquamarine" points="1353.68,-0.23 1357.11,-0.42 1360.5,-0.71 1363.85,-1.09 1367.13,-1.57 1370.33,-2.14 1373.45,-2.8 1376.46,-3.55 1379.37,-4.39 1382.15,-5.31 1384.79,-6.32 1387.3,-7.4 1389.65,-8.57 1391.85,-9.8 1393.88,-11.1 1395.74,-12.48 1397.43,-13.91 1398.94,-15.4 1400.26,-16.95 1401.41,-18.55 1402.37,-20.19 1403.15,-21.88 1403.74,-23.6 1404.16,-25.36 1404.4,-27.14 1404.46,-28.94 1404.36,-30.77 1404.08,-32.6 1403.65,-34.44 1403.07,-36.29 1402.34,-38.13 1401.47,-39.97 1400.46,-41.79 1399.33,-43.6 1398.08,-45.38 1396.72,-47.13 1395.26,-48.86 1393.7,-50.54 1392.05,-52.19 1390.33,-53.78 1388.52,-55.33 1386.65,-56.82 1384.72,-58.26 1382.74,-59.63 1380.71,-60.94 1378.64,-62.17 1376.52,-63.33 1374.38,-64.42 1372.21,-65.42 1370.01,-66.34 1367.8,-67.18 1365.56,-67.93 1363.31,-68.59 1361.05,-69.16 1358.78,-69.64 1356.51,-70.02 1354.22,-70.31 1351.94,-70.51 1349.65,-70.6 1347.36,-70.6 1345.07,-70.51 1342.79,-70.31 1340.5,-70.02 1338.23,-69.64 1335.96,-69.16 1333.7,-68.59 1331.45,-67.93 1329.21,-67.18 1327,-66.34 1324.8,-65.42 1322.63,-64.42 1320.48,-63.33 1318.37,-62.17 1316.3,-60.94 1314.27,-59.63 1312.28,-58.26 1310.35,-56.82 1308.49,-55.33 1306.68,-53.78 1304.96,-52.19 1303.31,-50.54 1301.75,-48.86 1300.29,-47.13 1298.93,-45.38 1297.68,-43.6 1296.55,-41.79 1295.54,-39.97 1294.67,-38.13 1293.94,-36.29 1293.35,-34.44 1292.92,-32.6 1292.65,-30.77 1292.55,-28.94 1292.61,-27.14 1292.85,-25.36 1293.27,-23.6 1293.86,-21.88 1294.64,-20.19 1295.6,-18.55 1296.75,-16.95 1298.07,-15.4 1299.58,-13.91 1301.27,-12.48 1303.13,-11.1 1305.16,-9.8 1307.36,-8.57 1309.71,-7.4 1312.22,-6.32 1314.86,-5.31 1317.64,-4.39 1320.55,-3.55 1323.56,-2.8 1326.68,-2.14 1329.88,-1.57 1333.16,-1.09 1336.51,-0.71 1339.9,-0.42 1343.33,-0.23 1346.78,-0.13 1350.23,-0.13 1353.68,-0.23"/>
<text text-anchor="start" x="1319.34" y="-45.17" font-family="Times,serif" font-size="14.00">C1881977</text>
<text text-anchor="start" x="1329.45" y="-31.17" font-family="Times,serif" font-size="14.00">porous</text>
<text text-anchor="start" x="1325.56" y="-17.17" font-family="Times,serif" font-size="14.00">228:228</text>
</g>
<!-- id_27541815_DOT_27&#45;&#45;id_27541815_DOT_29 -->
<g id="edge17" class="edge">
<title>id_27541815_DOT_27&#45;&#45;id_27541815_DOT_29</title>
<path fill="none" stroke="black" d="M1408.36,-379.41C1395.77,-307.03 1367.18,-142.69 1354.62,-70.49"/>
<text text-anchor="middle" x="1355.24" y="-227.75" font-family="Times,serif" font-size="14.00">0.001907</text>
</g>
<!-- id_27541815_DOT_30 -->
<g id="node30" class="node">
<title>id_27541815_DOT_30</title>
<polygon fill="bisque" stroke="bisque" points="5372.4,-2600.15 5375.83,-2600.34 5379.22,-2600.63 5382.57,-2601.01 5385.85,-2601.49 5389.05,-2602.06 5392.17,-2602.72 5395.18,-2603.47 5398.08,-2604.31 5400.86,-2605.23 5403.51,-2606.24 5406.02,-2607.32 5408.37,-2608.49 5410.57,-2609.72 5412.6,-2611.03 5414.46,-2612.4 5416.15,-2613.83 5417.65,-2615.32 5418.98,-2616.87 5420.13,-2618.47 5421.09,-2620.11 5421.87,-2621.8 5422.46,-2623.52 5422.88,-2625.28 5423.11,-2627.06 5423.18,-2628.86 5423.07,-2630.69 5422.8,-2632.52 5422.37,-2634.37 5421.79,-2636.21 5421.06,-2638.05 5420.19,-2639.89 5419.18,-2641.71 5418.05,-2643.52 5416.8,-2645.3 5415.44,-2647.05 5413.98,-2648.78 5412.42,-2650.46 5410.77,-2652.11 5409.04,-2653.71 5407.24,-2655.25 5405.37,-2656.75 5403.44,-2658.18 5401.46,-2659.55 5399.43,-2660.86 5397.35,-2662.09 5395.24,-2663.25 5393.1,-2664.34 5390.93,-2665.34 5388.73,-2666.26 5386.51,-2667.1 5384.28,-2667.85 5382.03,-2668.51 5379.77,-2669.08 5377.5,-2669.56 5375.22,-2669.95 5372.94,-2670.23 5370.66,-2670.43 5368.37,-2670.52 5366.08,-2670.52 5363.79,-2670.43 5361.5,-2670.23 5359.22,-2669.95 5356.94,-2669.56 5354.67,-2669.08 5352.41,-2668.51 5350.17,-2667.85 5347.93,-2667.1 5345.71,-2666.26 5343.52,-2665.34 5341.35,-2664.34 5339.2,-2663.25 5337.09,-2662.09 5335.02,-2660.86 5332.99,-2659.55 5331,-2658.18 5329.07,-2656.75 5327.2,-2655.25 5325.4,-2653.71 5323.67,-2652.11 5322.03,-2650.46 5320.47,-2648.78 5319,-2647.05 5317.64,-2645.3 5316.39,-2643.52 5315.26,-2641.71 5314.26,-2639.89 5313.39,-2638.05 5312.66,-2636.21 5312.07,-2634.37 5311.64,-2632.52 5311.37,-2630.69 5311.27,-2628.86 5311.33,-2627.06 5311.57,-2625.28 5311.98,-2623.52 5312.58,-2621.8 5313.36,-2620.11 5314.32,-2618.47 5315.46,-2616.87 5316.79,-2615.32 5318.3,-2613.83 5319.99,-2612.4 5321.85,-2611.03 5323.88,-2609.72 5326.07,-2608.49 5328.43,-2607.32 5330.93,-2606.24 5333.58,-2605.23 5336.36,-2604.31 5339.26,-2603.47 5342.28,-2602.72 5345.39,-2602.06 5348.6,-2601.49 5351.88,-2601.01 5355.22,-2600.63 5358.62,-2600.34 5362.04,-2600.15 5365.49,-2600.05 5368.95,-2600.05 5372.4,-2600.15"/>
<text text-anchor="start" x="5338.05" y="-2645.09" font-family="Times,serif" font-size="14.00">C0037107</text>
<text text-anchor="start" x="5348.56" y="-2631.09" font-family="Times,serif" font-size="14.00">silicon</text>
<text text-anchor="start" x="5344.28" y="-2617.09" font-family="Times,serif" font-size="14.00">229:229</text>
</g>
<!-- id_27541815_DOT_28&#45;&#45;id_27541815_DOT_30 -->
<g id="edge18" class="edge">
<title>id_27541815_DOT_28&#45;&#45;id_27541815_DOT_30</title>
<path fill="none" stroke="black" d="M5050.51,-2634.45C5120.75,-2634.64 5241.82,-2634.96 5312.18,-2635.14"/>
<text text-anchor="middle" x="5155.09" y="-2637.6" font-family="Times,serif" font-size="14.00">0.002042</text>
</g>
</g>
</svg>
