<?xml version="1.0" encoding="UTF-8" standalone="no"?>
<!DOCTYPE svg PUBLIC "-//W3C//DTD SVG 1.1//EN"
 "http://www.w3.org/Graphics/SVG/1.1/DTD/svg11.dtd">
<!-- Generated by graphviz version 2.42.3 (20191010.1750)
 -->
<!-- Title: MST Pages: 1 -->
<svg width="4878pt" height="3577pt"
 viewBox="0.00 0.00 4877.64 3576.77" xmlns="http://www.w3.org/2000/svg" xmlns:xlink="http://www.w3.org/1999/xlink">
<g id="graph0" class="graph" transform="scale(1 1) rotate(0) translate(4 3572.77)">
<title>MST</title>
<polygon fill="white" stroke="transparent" points="-4,4 -4,-3572.77 4873.64,-3572.77 4873.64,4 -4,4"/>
<!-- id_27593461_DOT_1 -->
<g id="node1" class="node">
<title>id_27593461_DOT_1</title>
<polygon fill="aquamarine" stroke="aquamarine" points="785.02,-1105.45 788.45,-1105.64 791.84,-1105.93 795.19,-1106.32 798.47,-1106.79 801.67,-1107.36 804.79,-1108.02 807.81,-1108.77 810.71,-1109.61 813.49,-1110.54 816.13,-1111.54 818.64,-1112.62 820.99,-1113.79 823.19,-1115.02 825.22,-1116.33 827.08,-1117.7 828.77,-1119.13 830.28,-1120.62 831.61,-1122.17 832.75,-1123.77 833.71,-1125.41 834.49,-1127.1 835.08,-1128.82 835.5,-1130.58 835.74,-1132.36 835.8,-1134.17 835.7,-1135.99 835.43,-1137.82 835,-1139.67 834.41,-1141.51 833.68,-1143.35 832.81,-1145.19 831.81,-1147.01 830.67,-1148.82 829.43,-1150.6 828.07,-1152.35 826.6,-1154.08 825.04,-1155.76 823.4,-1157.41 821.67,-1159.01 819.86,-1160.55 818,-1162.05 816.07,-1163.48 814.08,-1164.85 812.05,-1166.16 809.98,-1167.39 807.87,-1168.55 805.72,-1169.64 803.55,-1170.64 801.35,-1171.56 799.14,-1172.4 796.9,-1173.15 794.65,-1173.81 792.39,-1174.38 790.12,-1174.86 787.85,-1175.25 785.57,-1175.53 783.28,-1175.73 780.99,-1175.82 778.7,-1175.82 776.41,-1175.73 774.13,-1175.53 771.84,-1175.25 769.57,-1174.86 767.3,-1174.38 765.04,-1173.81 762.79,-1173.15 760.55,-1172.4 758.34,-1171.56 756.14,-1170.64 753.97,-1169.64 751.83,-1168.55 749.71,-1167.39 747.64,-1166.16 745.61,-1164.85 743.63,-1163.48 741.7,-1162.05 739.83,-1160.55 738.02,-1159.01 736.3,-1157.41 734.65,-1155.76 733.09,-1154.08 731.63,-1152.35 730.27,-1150.6 729.02,-1148.82 727.89,-1147.01 726.88,-1145.19 726.01,-1143.35 725.28,-1141.51 724.7,-1139.67 724.27,-1137.82 724,-1135.99 723.89,-1134.17 723.95,-1132.36 724.19,-1130.58 724.61,-1128.82 725.2,-1127.1 725.98,-1125.41 726.94,-1123.77 728.09,-1122.17 729.41,-1120.62 730.92,-1119.13 732.61,-1117.7 734.47,-1116.33 736.5,-1115.02 738.7,-1113.79 741.05,-1112.62 743.56,-1111.54 746.2,-1110.54 748.98,-1109.61 751.89,-1108.77 754.9,-1108.02 758.02,-1107.36 761.22,-1106.79 764.5,-1106.32 767.85,-1105.93 771.24,-1105.64 774.67,-1105.45 778.12,-1105.35 781.57,-1105.35 785.02,-1105.45"/>
<text text-anchor="start" x="750.68" y="-1150.39" font-family="Times,serif" font-size="14.00">C0043047</text>
<text text-anchor="start" x="764.3" y="-1136.39" font-family="Times,serif" font-size="14.00">water</text>
<text text-anchor="start" x="770.9" y="-1122.39" font-family="Times,serif" font-size="14.00">5:5</text>
</g>
<!-- id_27593461_DOT_6 -->
<g id="node6" class="node">
<title>id_27593461_DOT_6</title>
<polygon fill="aquamarine" stroke="aquamarine" points="430.92,-916.82 434.35,-917.01 437.74,-917.3 441.08,-917.69 444.36,-918.16 447.57,-918.73 450.68,-919.4 453.7,-920.15 456.6,-920.98 459.38,-921.91 462.03,-922.91 464.53,-924 466.89,-925.16 469.08,-926.39 471.12,-927.7 472.98,-929.07 474.66,-930.5 476.17,-932 477.5,-933.54 478.64,-935.14 479.6,-936.79 480.38,-938.47 480.98,-940.19 481.39,-941.95 481.63,-943.73 481.7,-945.54 481.59,-947.36 481.32,-949.19 480.89,-951.04 480.31,-952.88 479.58,-954.73 478.7,-956.56 477.7,-958.38 476.57,-960.19 475.32,-961.97 473.96,-963.73 472.5,-965.45 470.94,-967.13 469.29,-968.78 467.56,-970.38 465.76,-971.92 463.89,-973.42 461.96,-974.85 459.98,-976.22 457.95,-977.53 455.87,-978.76 453.76,-979.92 451.62,-981.01 449.44,-982.01 447.25,-982.94 445.03,-983.77 442.8,-984.52 440.55,-985.19 438.29,-985.76 436.02,-986.23 433.74,-986.62 431.46,-986.91 429.17,-987.1 426.88,-987.19 424.6,-987.19 422.31,-987.1 420.02,-986.91 417.74,-986.62 415.46,-986.23 413.19,-985.76 410.93,-985.19 408.68,-984.52 406.45,-983.77 404.23,-982.94 402.04,-982.01 399.86,-981.01 397.72,-979.92 395.61,-978.76 393.53,-977.53 391.5,-976.22 389.52,-974.85 387.59,-973.42 385.72,-971.92 383.92,-970.38 382.19,-968.78 380.54,-967.13 378.98,-965.45 377.52,-963.73 376.16,-961.97 374.91,-960.19 373.78,-958.38 372.78,-956.56 371.9,-954.73 371.17,-952.88 370.59,-951.04 370.16,-949.19 369.89,-947.36 369.78,-945.54 369.85,-943.73 370.09,-941.95 370.5,-940.19 371.1,-938.47 371.87,-936.79 372.84,-935.14 373.98,-933.54 375.31,-932 376.82,-930.5 378.5,-929.07 380.36,-927.7 382.4,-926.39 384.59,-925.16 386.95,-924 389.45,-922.91 392.1,-921.91 394.88,-920.98 397.78,-920.15 400.8,-919.4 403.91,-918.73 407.12,-918.16 410.4,-917.69 413.74,-917.3 417.13,-917.01 420.56,-916.82 424.01,-916.72 427.47,-916.72 430.92,-916.82"/>
<text text-anchor="start" x="396.57" y="-961.76" font-family="Times,serif" font-size="14.00">C0043047</text>
<text text-anchor="start" x="410.19" y="-947.76" font-family="Times,serif" font-size="14.00">water</text>
<text text-anchor="start" x="409.8" y="-933.76" font-family="Times,serif" font-size="14.00">33:33</text>
</g>
<!-- id_27593461_DOT_1&#45;&#45;id_27593461_DOT_6 -->
<g id="edge1" class="edge">
<title>id_27593461_DOT_1&#45;&#45;id_27593461_DOT_6</title>
<path fill="none" stroke="black" d="M734.28,-1116.31C664.14,-1078.95 530.92,-1007.99 464.88,-972.81"/>
<text text-anchor="middle" x="573.33" y="-1047.36" font-family="Times,serif" font-size="14.00">0.001074</text>
</g>
<!-- id_27593461_DOT_15 -->
<g id="node15" class="node">
<title>id_27593461_DOT_15</title>
<polygon fill="aquamarine" stroke="aquamarine" points="1173.44,-987.75 1176.87,-987.94 1180.26,-988.23 1183.6,-988.62 1186.88,-989.09 1190.09,-989.66 1193.2,-990.32 1196.22,-991.08 1199.12,-991.91 1201.9,-992.84 1204.55,-993.84 1207.05,-994.93 1209.41,-996.09 1211.61,-997.32 1213.64,-998.63 1215.5,-1000 1217.18,-1001.43 1218.69,-1002.92 1220.02,-1004.47 1221.16,-1006.07 1222.13,-1007.71 1222.9,-1009.4 1223.5,-1011.12 1223.92,-1012.88 1224.15,-1014.66 1224.22,-1016.47 1224.11,-1018.29 1223.84,-1020.12 1223.41,-1021.97 1222.83,-1023.81 1222.1,-1025.65 1221.22,-1027.49 1220.22,-1029.31 1219.09,-1031.12 1217.84,-1032.9 1216.48,-1034.65 1215.02,-1036.38 1213.46,-1038.06 1211.81,-1039.71 1210.08,-1041.31 1208.28,-1042.85 1206.41,-1044.35 1204.48,-1045.78 1202.5,-1047.15 1200.47,-1048.46 1198.39,-1049.69 1196.28,-1050.85 1194.14,-1051.94 1191.96,-1052.94 1189.77,-1053.87 1187.55,-1054.7 1185.32,-1055.45 1183.07,-1056.11 1180.81,-1056.68 1178.54,-1057.16 1176.26,-1057.55 1173.98,-1057.83 1171.69,-1058.03 1169.41,-1058.12 1167.12,-1058.12 1164.83,-1058.03 1162.54,-1057.83 1160.26,-1057.55 1157.98,-1057.16 1155.71,-1056.68 1153.45,-1056.11 1151.2,-1055.45 1148.97,-1054.7 1146.75,-1053.87 1144.56,-1052.94 1142.39,-1051.94 1140.24,-1050.85 1138.13,-1049.69 1136.06,-1048.46 1134.02,-1047.15 1132.04,-1045.78 1130.11,-1044.35 1128.24,-1042.85 1126.44,-1041.31 1124.71,-1039.71 1123.06,-1038.06 1121.51,-1036.38 1120.04,-1034.65 1118.68,-1032.9 1117.43,-1031.12 1116.3,-1029.31 1115.3,-1027.49 1114.43,-1025.65 1113.69,-1023.81 1113.11,-1021.97 1112.68,-1020.12 1112.41,-1018.29 1112.3,-1016.47 1112.37,-1014.66 1112.61,-1012.88 1113.02,-1011.12 1113.62,-1009.4 1114.4,-1007.71 1115.36,-1006.07 1116.5,-1004.47 1117.83,-1002.92 1119.34,-1001.43 1121.02,-1000 1122.89,-998.63 1124.92,-997.32 1127.11,-996.09 1129.47,-994.93 1131.97,-993.84 1134.62,-992.84 1137.4,-991.91 1140.3,-991.08 1143.32,-990.32 1146.43,-989.66 1149.64,-989.09 1152.92,-988.62 1156.26,-988.23 1159.65,-987.94 1163.08,-987.75 1166.53,-987.65 1169.99,-987.65 1173.44,-987.75"/>
<text text-anchor="start" x="1139.09" y="-1032.69" font-family="Times,serif" font-size="14.00">C0043047</text>
<text text-anchor="start" x="1152.72" y="-1018.69" font-family="Times,serif" font-size="14.00">water</text>
<text text-anchor="start" x="1145.32" y="-1004.69" font-family="Times,serif" font-size="14.00">134:134</text>
</g>
<!-- id_27593461_DOT_1&#45;&#45;id_27593461_DOT_15 -->
<g id="edge2" class="edge">
<title>id_27593461_DOT_1&#45;&#45;id_27593461_DOT_15</title>
<path fill="none" stroke="black" d="M833.45,-1124.35C910.03,-1101.14 1049.49,-1058.88 1121.88,-1036.94"/>
<text text-anchor="middle" x="951.41" y="-1083.45" font-family="Times,serif" font-size="14.00">0.003999</text>
</g>
<!-- id_27593461_DOT_23 -->
<g id="node23" class="node">
<title>id_27593461_DOT_23</title>
<polygon fill="darkgoldenrod" stroke="darkgoldenrod" points="620.11,-1474.76 623.53,-1474.95 626.93,-1475.24 630.27,-1475.62 633.55,-1476.1 636.76,-1476.67 639.87,-1477.33 642.89,-1478.08 645.79,-1478.92 648.57,-1479.84 651.22,-1480.85 653.72,-1481.93 656.08,-1483.09 658.27,-1484.33 660.3,-1485.63 662.17,-1487 663.85,-1488.44 665.36,-1489.93 666.69,-1491.48 667.83,-1493.08 668.79,-1494.72 669.57,-1496.41 670.17,-1498.13 670.58,-1499.89 670.82,-1501.67 670.88,-1503.47 670.78,-1505.3 670.51,-1507.13 670.08,-1508.97 669.49,-1510.82 668.76,-1512.66 667.89,-1514.5 666.89,-1516.32 665.76,-1518.12 664.51,-1519.91 663.15,-1521.66 661.68,-1523.38 660.13,-1525.07 658.48,-1526.71 656.75,-1528.31 654.95,-1529.86 653.08,-1531.35 651.15,-1532.79 649.17,-1534.16 647.13,-1535.46 645.06,-1536.7 642.95,-1537.86 640.8,-1538.94 638.63,-1539.95 636.44,-1540.87 634.22,-1541.71 631.99,-1542.46 629.74,-1543.12 627.48,-1543.69 625.21,-1544.17 622.93,-1544.55 620.65,-1544.84 618.36,-1545.03 616.07,-1545.13 613.78,-1545.13 611.5,-1545.03 609.21,-1544.84 606.93,-1544.55 604.65,-1544.17 602.38,-1543.69 600.12,-1543.12 597.87,-1542.46 595.64,-1541.71 593.42,-1540.87 591.22,-1539.95 589.05,-1538.94 586.91,-1537.86 584.8,-1536.7 582.72,-1535.46 580.69,-1534.16 578.71,-1532.79 576.78,-1531.35 574.91,-1529.86 573.11,-1528.31 571.38,-1526.71 569.73,-1525.07 568.17,-1523.38 566.71,-1521.66 565.35,-1519.91 564.1,-1518.12 562.97,-1516.32 561.96,-1514.5 561.09,-1512.66 560.36,-1510.82 559.78,-1508.97 559.35,-1507.13 559.08,-1505.3 558.97,-1503.47 559.04,-1501.67 559.27,-1499.89 559.69,-1498.13 560.29,-1496.41 561.06,-1494.72 562.02,-1493.08 563.17,-1491.48 564.5,-1489.93 566,-1488.44 567.69,-1487 569.55,-1485.63 571.58,-1484.33 573.78,-1483.09 576.13,-1481.93 578.64,-1480.85 581.29,-1479.84 584.07,-1478.92 586.97,-1478.08 589.98,-1477.33 593.1,-1476.67 596.3,-1476.1 599.59,-1475.62 602.93,-1475.24 606.32,-1474.95 609.75,-1474.76 613.2,-1474.66 616.66,-1474.66 620.11,-1474.76"/>
<text text-anchor="start" x="585.76" y="-1519.7" font-family="Times,serif" font-size="14.00">C0332149</text>
<text text-anchor="start" x="591.98" y="-1505.7" font-family="Times,serif" font-size="14.00">possible</text>
<text text-anchor="start" x="591.98" y="-1491.7" font-family="Times,serif" font-size="14.00">205:205</text>
</g>
<!-- id_27593461_DOT_1&#45;&#45;id_27593461_DOT_23 -->
<g id="edge15" class="edge">
<title>id_27593461_DOT_1&#45;&#45;id_27593461_DOT_23</title>
<path fill="none" stroke="black" stroke-dasharray="1,5" d="M764.92,-1174.01C733.72,-1243.88 661.88,-1404.75 630.3,-1475.48"/>
<text text-anchor="middle" x="671.36" y="-1327.54" font-family="Times,serif" font-size="14.00">0.848003</text>
</g>
<!-- id_27593461_DOT_2 -->
<g id="node2" class="node">
<title>id_27593461_DOT_2</title>
<polygon fill="bisque" stroke="bisque" points="4340.74,-710.03 4344.81,-710.22 4348.83,-710.51 4352.8,-710.89 4356.69,-711.37 4360.5,-711.94 4364.19,-712.6 4367.77,-713.35 4371.22,-714.19 4374.52,-715.11 4377.66,-716.12 4380.63,-717.2 4383.42,-718.36 4386.03,-719.6 4388.44,-720.9 4390.65,-722.27 4392.65,-723.71 4394.44,-725.2 4396.02,-726.75 4397.37,-728.35 4398.52,-729.99 4399.44,-731.68 4400.15,-733.4 4400.64,-735.15 4400.92,-736.94 4401,-738.74 4400.87,-740.56 4400.55,-742.4 4400.04,-744.24 4399.35,-746.09 4398.48,-747.93 4397.45,-749.77 4396.25,-751.59 4394.91,-753.39 4393.43,-755.18 4391.82,-756.93 4390.08,-758.65 4388.23,-760.34 4386.27,-761.98 4384.22,-763.58 4382.08,-765.13 4379.87,-766.62 4377.58,-768.06 4375.22,-769.43 4372.81,-770.73 4370.35,-771.97 4367.84,-773.13 4365.3,-774.21 4362.72,-775.22 4360.12,-776.14 4357.49,-776.98 4354.84,-777.73 4352.17,-778.39 4349.48,-778.96 4346.79,-779.44 4344.09,-779.82 4341.38,-780.11 4338.67,-780.3 4335.95,-780.4 4333.24,-780.4 4330.52,-780.3 4327.81,-780.11 4325.1,-779.82 4322.4,-779.44 4319.7,-778.96 4317.02,-778.39 4314.35,-777.73 4311.7,-776.98 4309.07,-776.14 4306.46,-775.22 4303.89,-774.21 4301.34,-773.13 4298.84,-771.97 4296.38,-770.73 4293.97,-769.43 4291.61,-768.06 4289.32,-766.62 4287.1,-765.13 4284.96,-763.58 4282.91,-761.98 4280.96,-760.34 4279.11,-758.65 4277.37,-756.93 4275.76,-755.18 4274.28,-753.39 4272.93,-751.59 4271.74,-749.77 4270.71,-747.93 4269.84,-746.09 4269.15,-744.24 4268.64,-742.4 4268.32,-740.56 4268.19,-738.74 4268.27,-736.94 4268.55,-735.15 4269.04,-733.4 4269.75,-731.68 4270.67,-729.99 4271.81,-728.35 4273.17,-726.75 4274.75,-725.2 4276.54,-723.71 4278.54,-722.27 4280.75,-720.9 4283.16,-719.6 4285.76,-718.36 4288.56,-717.2 4291.53,-716.12 4294.67,-715.11 4297.97,-714.19 4301.41,-713.35 4304.99,-712.6 4308.69,-711.94 4312.49,-711.37 4316.39,-710.89 4320.35,-710.51 4324.38,-710.22 4328.45,-710.03 4332.54,-709.93 4336.64,-709.93 4340.74,-710.03"/>
<text text-anchor="start" x="4305.42" y="-754.97" font-family="Times,serif" font-size="14.00">C0032098</text>
<text text-anchor="start" x="4298.64" y="-740.97" font-family="Times,serif" font-size="14.00">intra cultivar</text>
<text text-anchor="start" x="4318.65" y="-726.97" font-family="Times,serif" font-size="14.00">13:14</text>
</g>
<!-- id_27593461_DOT_14 -->
<g id="node14" class="node">
<title>id_27593461_DOT_14</title>
<polygon fill="bisque" stroke="bisque" points="4054.89,-974.29 4059.31,-974.49 4063.69,-974.77 4068,-975.16 4072.23,-975.64 4076.37,-976.21 4080.39,-976.87 4084.28,-977.62 4088.02,-978.46 4091.61,-979.38 4095.02,-980.38 4098.26,-981.47 4101.29,-982.63 4104.13,-983.86 4106.75,-985.17 4109.15,-986.54 4111.33,-987.97 4113.27,-989.47 4114.98,-991.01 4116.46,-992.61 4117.7,-994.26 4118.71,-995.94 4119.47,-997.67 4120.01,-999.42 4120.32,-1001.2 4120.4,-1003.01 4120.26,-1004.83 4119.91,-1006.67 4119.36,-1008.51 4118.61,-1010.35 4117.66,-1012.2 4116.54,-1014.03 4115.24,-1015.85 4113.78,-1017.66 4112.17,-1019.44 4110.42,-1021.2 4108.53,-1022.92 4106.52,-1024.61 4104.39,-1026.25 4102.16,-1027.85 4099.84,-1029.4 4097.43,-1030.89 4094.94,-1032.32 4092.38,-1033.69 4089.76,-1035 4087.08,-1036.23 4084.36,-1037.39 4081.59,-1038.48 4078.79,-1039.48 4075.95,-1040.41 4073.09,-1041.25 4070.21,-1042 4067.31,-1042.66 4064.39,-1043.23 4061.47,-1043.7 4058.53,-1044.09 4055.58,-1044.38 4052.63,-1044.57 4049.68,-1044.67 4046.73,-1044.67 4043.77,-1044.57 4040.83,-1044.38 4037.88,-1044.09 4034.94,-1043.7 4032.01,-1043.23 4029.1,-1042.66 4026.2,-1042 4023.31,-1041.25 4020.45,-1040.41 4017.62,-1039.48 4014.82,-1038.48 4012.05,-1037.39 4009.33,-1036.23 4006.65,-1035 4004.03,-1033.69 4001.47,-1032.32 3998.98,-1030.89 3996.57,-1029.4 3994.25,-1027.85 3992.02,-1026.25 3989.89,-1024.61 3987.88,-1022.92 3985.99,-1021.2 3984.24,-1019.44 3982.62,-1017.66 3981.17,-1015.85 3979.87,-1014.03 3978.75,-1012.2 3977.8,-1010.35 3977.05,-1008.51 3976.49,-1006.67 3976.15,-1004.83 3976.01,-1003.01 3976.09,-1001.2 3976.4,-999.42 3976.93,-997.67 3977.7,-995.94 3978.71,-994.26 3979.95,-992.61 3981.42,-991.01 3983.14,-989.47 3985.08,-987.97 3987.26,-986.54 3989.66,-985.17 3992.28,-983.86 3995.11,-982.63 3998.15,-981.47 4001.38,-980.38 4004.8,-979.38 4008.39,-978.46 4012.13,-977.62 4016.02,-976.87 4020.04,-976.21 4024.18,-975.64 4028.41,-975.16 4032.72,-974.77 4037.1,-974.49 4041.52,-974.29 4045.97,-974.2 4050.43,-974.2 4054.89,-974.29"/>
<text text-anchor="start" x="4019.04" y="-1019.23" font-family="Times,serif" font-size="14.00">C0032098</text>
<text text-anchor="start" x="4008.17" y="-1005.23" font-family="Times,serif" font-size="14.00">intra &#45; cultivar</text>
<text text-anchor="start" x="4025.26" y="-991.23" font-family="Times,serif" font-size="14.00">106:108</text>
</g>
<!-- id_27593461_DOT_2&#45;&#45;id_27593461_DOT_14 -->
<g id="edge3" class="edge">
<title>id_27593461_DOT_2&#45;&#45;id_27593461_DOT_14</title>
<path fill="none" stroke="black" d="M4303.13,-774.2C4249.22,-823.95 4139.59,-925.11 4083.29,-977.06"/>
<text text-anchor="middle" x="4166.96" y="-878.43" font-family="Times,serif" font-size="14.00">0.035463</text>
</g>
<!-- id_27593461_DOT_19 -->
<g id="node19" class="node">
<title>id_27593461_DOT_19</title>
<polygon fill="bisque" stroke="bisque" points="4628.9,-464.57 4633.32,-464.76 4637.7,-465.05 4642.01,-465.43 4646.25,-465.91 4650.38,-466.48 4654.4,-467.14 4658.29,-467.89 4662.04,-468.73 4665.63,-469.65 4669.04,-470.66 4672.27,-471.74 4675.31,-472.9 4678.14,-474.14 4680.76,-475.44 4683.17,-476.82 4685.34,-478.25 4687.29,-479.74 4689,-481.29 4690.48,-482.89 4691.72,-484.53 4692.72,-486.22 4693.49,-487.94 4694.03,-489.7 4694.33,-491.48 4694.42,-493.28 4694.28,-495.11 4693.93,-496.94 4693.37,-498.78 4692.62,-500.63 4691.68,-502.47 4690.55,-504.31 4689.26,-506.13 4687.8,-507.93 4686.19,-509.72 4684.43,-511.47 4682.54,-513.2 4680.53,-514.88 4678.41,-516.53 4676.18,-518.12 4673.85,-519.67 4671.44,-521.16 4668.95,-522.6 4666.39,-523.97 4663.77,-525.27 4661.1,-526.51 4658.37,-527.67 4655.61,-528.75 4652.8,-529.76 4649.97,-530.68 4647.11,-531.52 4644.23,-532.27 4641.33,-532.93 4638.41,-533.5 4635.48,-533.98 4632.54,-534.36 4629.6,-534.65 4626.65,-534.85 4623.7,-534.94 4620.74,-534.94 4617.79,-534.85 4614.84,-534.65 4611.9,-534.36 4608.96,-533.98 4606.03,-533.5 4603.11,-532.93 4600.21,-532.27 4597.33,-531.52 4594.47,-530.68 4591.64,-529.76 4588.83,-528.75 4586.07,-527.67 4583.34,-526.51 4580.67,-525.27 4578.05,-523.97 4575.49,-522.6 4573,-521.16 4570.59,-519.67 4568.26,-518.12 4566.03,-516.53 4563.91,-514.88 4561.89,-513.2 4560.01,-511.47 4558.25,-509.72 4556.64,-507.93 4555.18,-506.13 4553.89,-504.31 4552.76,-502.47 4551.82,-500.63 4551.06,-498.78 4550.51,-496.94 4550.16,-495.11 4550.02,-493.28 4550.11,-491.48 4550.41,-489.7 4550.95,-487.94 4551.72,-486.22 4552.72,-484.53 4553.96,-482.89 4555.44,-481.29 4557.15,-479.74 4559.1,-478.25 4561.27,-476.82 4563.68,-475.44 4566.3,-474.14 4569.13,-472.9 4572.17,-471.74 4575.4,-470.66 4578.81,-469.65 4582.4,-468.73 4586.15,-467.89 4590.04,-467.14 4594.06,-466.48 4598.19,-465.91 4602.42,-465.43 4606.74,-465.05 4611.12,-464.76 4615.54,-464.57 4619.99,-464.47 4624.45,-464.47 4628.9,-464.57"/>
<text text-anchor="start" x="4593.05" y="-509.51" font-family="Times,serif" font-size="14.00">C0032098</text>
<text text-anchor="start" x="4582.18" y="-495.51" font-family="Times,serif" font-size="14.00">inter &#45; cultivar</text>
<text text-anchor="start" x="4599.27" y="-481.51" font-family="Times,serif" font-size="14.00">170:172</text>
</g>
<!-- id_27593461_DOT_2&#45;&#45;id_27593461_DOT_19 -->
<g id="edge4" class="edge">
<title>id_27593461_DOT_2&#45;&#45;id_27593461_DOT_19</title>
<path fill="none" stroke="black" d="M4371.02,-714.08C4427.1,-666.22 4533.8,-575.16 4588.32,-528.64"/>
<text text-anchor="middle" x="4453.68" y="-624.16" font-family="Times,serif" font-size="14.00">0.113947</text>
</g>
<!-- id_27593461_DOT_3 -->
<g id="node3" class="node">
<title>id_27593461_DOT_3</title>
<polygon fill="blue" stroke="blue" points="2800.29,-789.06 2803.84,-789.25 2807.36,-789.54 2810.82,-789.92 2814.21,-790.4 2817.53,-790.97 2820.76,-791.63 2823.88,-792.38 2826.88,-793.22 2829.76,-794.14 2832.5,-795.15 2835.09,-796.23 2837.53,-797.39 2839.8,-798.63 2841.91,-799.93 2843.83,-801.3 2845.58,-802.74 2847.14,-804.23 2848.52,-805.78 2849.7,-807.38 2850.7,-809.02 2851.5,-810.71 2852.12,-812.43 2852.55,-814.18 2852.8,-815.97 2852.86,-817.77 2852.75,-819.59 2852.47,-821.43 2852.03,-823.27 2851.42,-825.12 2850.67,-826.96 2849.76,-828.8 2848.72,-830.62 2847.55,-832.42 2846.26,-834.21 2844.85,-835.96 2843.34,-837.68 2841.72,-839.37 2840.02,-841.01 2838.23,-842.61 2836.36,-844.16 2834.43,-845.65 2832.43,-847.09 2830.38,-848.46 2828.27,-849.76 2826.13,-851 2823.94,-852.16 2821.72,-853.24 2819.47,-854.25 2817.2,-855.17 2814.9,-856.01 2812.59,-856.76 2810.26,-857.42 2807.92,-857.99 2805.58,-858.47 2803.22,-858.85 2800.86,-859.14 2798.49,-859.33 2796.12,-859.43 2793.75,-859.43 2791.38,-859.33 2789.01,-859.14 2786.65,-858.85 2784.29,-858.47 2781.94,-857.99 2779.6,-857.42 2777.28,-856.76 2774.96,-856.01 2772.67,-855.17 2770.4,-854.25 2768.15,-853.24 2765.93,-852.16 2763.74,-851 2761.6,-849.76 2759.49,-848.46 2757.44,-847.09 2755.44,-845.65 2753.51,-844.16 2751.64,-842.61 2749.85,-841.01 2748.15,-839.37 2746.53,-837.68 2745.02,-835.96 2743.61,-834.21 2742.32,-832.42 2741.15,-830.62 2740.11,-828.8 2739.2,-826.96 2738.45,-825.12 2737.84,-823.27 2737.4,-821.43 2737.12,-819.59 2737.01,-817.77 2737.07,-815.97 2737.32,-814.18 2737.75,-812.43 2738.37,-810.71 2739.17,-809.02 2740.17,-807.38 2741.35,-805.78 2742.73,-804.23 2744.29,-802.74 2746.03,-801.3 2747.96,-799.93 2750.06,-798.63 2752.34,-797.39 2754.77,-796.23 2757.37,-795.15 2760.11,-794.14 2762.99,-793.22 2765.99,-792.38 2769.11,-791.63 2772.34,-790.97 2775.66,-790.4 2779.05,-789.92 2782.51,-789.54 2786.03,-789.25 2789.57,-789.06 2793.15,-788.96 2796.72,-788.96 2800.29,-789.06"/>
<text text-anchor="start" x="2765.77" y="-833.99" font-family="Times,serif" font-size="14.00">C0330100</text>
<text text-anchor="start" x="2764.61" y="-819.99" font-family="Times,serif" font-size="14.00">grapevines</text>
<text text-anchor="start" x="2778.99" y="-805.99" font-family="Times,serif" font-size="14.00">18:18</text>
</g>
<!-- id_27593461_DOT_7 -->
<g id="node7" class="node">
<title>id_27593461_DOT_7</title>
<polygon fill="blue" stroke="blue" points="2693.66,-1183.21 2697.21,-1183.4 2700.72,-1183.69 2704.19,-1184.07 2707.58,-1184.55 2710.9,-1185.12 2714.13,-1185.78 2717.25,-1186.53 2720.25,-1187.37 2723.13,-1188.29 2725.87,-1189.3 2728.46,-1190.38 2730.9,-1191.54 2733.17,-1192.78 2735.28,-1194.08 2737.2,-1195.45 2738.95,-1196.89 2740.51,-1198.38 2741.88,-1199.93 2743.07,-1201.53 2744.06,-1203.17 2744.87,-1204.86 2745.49,-1206.58 2745.92,-1208.33 2746.16,-1210.12 2746.23,-1211.92 2746.12,-1213.74 2745.84,-1215.58 2745.39,-1217.42 2744.79,-1219.27 2744.03,-1221.11 2743.13,-1222.95 2742.09,-1224.77 2740.92,-1226.57 2739.63,-1228.36 2738.22,-1230.11 2736.71,-1231.83 2735.09,-1233.52 2733.39,-1235.16 2731.6,-1236.76 2729.73,-1238.31 2727.8,-1239.8 2725.8,-1241.24 2723.75,-1242.61 2721.64,-1243.91 2719.5,-1245.15 2717.31,-1246.31 2715.09,-1247.39 2712.84,-1248.4 2710.57,-1249.32 2708.27,-1250.16 2705.96,-1250.91 2703.63,-1251.57 2701.29,-1252.14 2698.94,-1252.62 2696.59,-1253 2694.22,-1253.29 2691.86,-1253.48 2689.49,-1253.58 2687.12,-1253.58 2684.75,-1253.48 2682.38,-1253.29 2680.02,-1253 2677.66,-1252.62 2675.31,-1252.14 2672.97,-1251.57 2670.65,-1250.91 2668.33,-1250.16 2666.04,-1249.32 2663.76,-1248.4 2661.52,-1247.39 2659.3,-1246.31 2657.11,-1245.15 2654.96,-1243.91 2652.86,-1242.61 2650.81,-1241.24 2648.81,-1239.8 2646.88,-1238.31 2645.01,-1236.76 2643.22,-1235.16 2641.51,-1233.52 2639.9,-1231.83 2638.39,-1230.11 2636.98,-1228.36 2635.68,-1226.57 2634.51,-1224.77 2633.47,-1222.95 2632.57,-1221.11 2631.82,-1219.27 2631.21,-1217.42 2630.77,-1215.58 2630.49,-1213.74 2630.38,-1211.92 2630.44,-1210.12 2630.69,-1208.33 2631.12,-1206.58 2631.74,-1204.86 2632.54,-1203.17 2633.54,-1201.53 2634.72,-1199.93 2636.1,-1198.38 2637.66,-1196.89 2639.4,-1195.45 2641.33,-1194.08 2643.43,-1192.78 2645.71,-1191.54 2648.14,-1190.38 2650.74,-1189.3 2653.48,-1188.29 2656.35,-1187.37 2659.36,-1186.53 2662.48,-1185.78 2665.71,-1185.12 2669.02,-1184.55 2672.42,-1184.07 2675.88,-1183.69 2679.39,-1183.4 2682.94,-1183.21 2686.51,-1183.11 2690.09,-1183.11 2693.66,-1183.21"/>
<text text-anchor="start" x="2659.13" y="-1228.15" font-family="Times,serif" font-size="14.00">C0330100</text>
<text text-anchor="start" x="2657.98" y="-1214.15" font-family="Times,serif" font-size="14.00">grapevines</text>
<text text-anchor="start" x="2672.36" y="-1200.15" font-family="Times,serif" font-size="14.00">45:45</text>
</g>
<!-- id_27593461_DOT_3&#45;&#45;id_27593461_DOT_7 -->
<g id="edge5" class="edge">
<title>id_27593461_DOT_3&#45;&#45;id_27593461_DOT_7</title>
<path fill="none" stroke="black" d="M2785.57,-858.83C2765.39,-933.4 2718.03,-1108.48 2697.77,-1183.37"/>
<text text-anchor="middle" x="2715.42" y="-1023.9" font-family="Times,serif" font-size="14.00">0.003559</text>
</g>
<!-- id_27593461_DOT_4 -->
<g id="node4" class="node">
<title>id_27593461_DOT_4</title>
<polygon fill="blueviolet" stroke="blueviolet" points="4124.73,-2452.69 4128.15,-2452.88 4131.55,-2453.17 4134.89,-2453.55 4138.17,-2454.03 4141.38,-2454.6 4144.49,-2455.26 4147.51,-2456.01 4150.41,-2456.85 4153.19,-2457.77 4155.84,-2458.78 4158.34,-2459.86 4160.7,-2461.02 4162.89,-2462.26 4164.92,-2463.56 4166.78,-2464.93 4168.47,-2466.37 4169.98,-2467.86 4171.31,-2469.41 4172.45,-2471.01 4173.41,-2472.65 4174.19,-2474.34 4174.79,-2476.06 4175.2,-2477.82 4175.44,-2479.6 4175.5,-2481.4 4175.4,-2483.23 4175.13,-2485.06 4174.7,-2486.9 4174.11,-2488.75 4173.38,-2490.59 4172.51,-2492.43 4171.51,-2494.25 4170.38,-2496.05 4169.13,-2497.84 4167.77,-2499.59 4166.3,-2501.31 4164.74,-2503 4163.1,-2504.64 4161.37,-2506.24 4159.57,-2507.79 4157.7,-2509.28 4155.77,-2510.72 4153.78,-2512.09 4151.75,-2513.39 4149.68,-2514.63 4147.57,-2515.79 4145.42,-2516.87 4143.25,-2517.88 4141.06,-2518.8 4138.84,-2519.64 4136.6,-2520.39 4134.36,-2521.05 4132.1,-2521.62 4129.83,-2522.1 4127.55,-2522.48 4125.27,-2522.77 4122.98,-2522.96 4120.69,-2523.06 4118.4,-2523.06 4116.11,-2522.96 4113.83,-2522.77 4111.55,-2522.48 4109.27,-2522.1 4107,-2521.62 4104.74,-2521.05 4102.49,-2520.39 4100.26,-2519.64 4098.04,-2518.8 4095.84,-2517.88 4093.67,-2516.87 4091.53,-2515.79 4089.42,-2514.63 4087.34,-2513.39 4085.31,-2512.09 4083.33,-2510.72 4081.4,-2509.28 4079.53,-2507.79 4077.73,-2506.24 4076,-2504.64 4074.35,-2503 4072.79,-2501.31 4071.33,-2499.59 4069.97,-2497.84 4068.72,-2496.05 4067.59,-2494.25 4066.58,-2492.43 4065.71,-2490.59 4064.98,-2488.75 4064.4,-2486.9 4063.97,-2485.06 4063.7,-2483.23 4063.59,-2481.4 4063.66,-2479.6 4063.89,-2477.82 4064.31,-2476.06 4064.9,-2474.34 4065.68,-2472.65 4066.64,-2471.01 4067.79,-2469.41 4069.12,-2467.86 4070.62,-2466.37 4072.31,-2464.93 4074.17,-2463.56 4076.2,-2462.26 4078.4,-2461.02 4080.75,-2459.86 4083.26,-2458.78 4085.91,-2457.77 4088.69,-2456.85 4091.59,-2456.01 4094.6,-2455.26 4097.72,-2454.6 4100.92,-2454.03 4104.2,-2453.55 4107.55,-2453.17 4110.94,-2452.88 4114.37,-2452.69 4117.82,-2452.59 4121.28,-2452.59 4124.73,-2452.69"/>
<text text-anchor="start" x="4090.38" y="-2497.63" font-family="Times,serif" font-size="14.00">C0242775</text>
<text text-anchor="start" x="4107.11" y="-2483.63" font-family="Times,serif" font-size="14.00">crop</text>
<text text-anchor="start" x="4103.6" y="-2469.63" font-family="Times,serif" font-size="14.00">22:22</text>
</g>
<!-- id_27593461_DOT_9 -->
<g id="node9" class="node">
<title>id_27593461_DOT_9</title>
<polygon fill="bisque" stroke="bisque" points="3720.69,-2353.93 3724.12,-2354.12 3727.51,-2354.41 3730.85,-2354.8 3734.14,-2355.27 3737.34,-2355.84 3740.46,-2356.5 3743.47,-2357.26 3746.37,-2358.09 3749.15,-2359.02 3751.8,-2360.02 3754.31,-2361.11 3756.66,-2362.27 3758.86,-2363.5 3760.89,-2364.81 3762.75,-2366.18 3764.44,-2367.61 3765.94,-2369.1 3767.27,-2370.65 3768.42,-2372.25 3769.38,-2373.89 3770.16,-2375.58 3770.75,-2377.3 3771.17,-2379.06 3771.4,-2380.84 3771.47,-2382.65 3771.36,-2384.47 3771.09,-2386.3 3770.66,-2388.15 3770.08,-2389.99 3769.35,-2391.83 3768.48,-2393.67 3767.47,-2395.49 3766.34,-2397.3 3765.09,-2399.08 3763.73,-2400.83 3762.27,-2402.56 3760.71,-2404.24 3759.06,-2405.89 3757.33,-2407.49 3755.53,-2409.03 3753.66,-2410.53 3751.73,-2411.96 3749.75,-2413.33 3747.72,-2414.64 3745.64,-2415.87 3743.53,-2417.03 3741.39,-2418.12 3739.22,-2419.12 3737.02,-2420.05 3734.8,-2420.88 3732.57,-2421.63 3730.32,-2422.29 3728.06,-2422.86 3725.79,-2423.34 3723.51,-2423.73 3721.23,-2424.01 3718.95,-2424.21 3716.66,-2424.3 3714.37,-2424.3 3712.08,-2424.21 3709.79,-2424.01 3707.51,-2423.73 3705.23,-2423.34 3702.96,-2422.86 3700.7,-2422.29 3698.46,-2421.63 3696.22,-2420.88 3694,-2420.05 3691.81,-2419.12 3689.64,-2418.12 3687.49,-2417.03 3685.38,-2415.87 3683.31,-2414.64 3681.28,-2413.33 3679.29,-2411.96 3677.36,-2410.53 3675.49,-2409.03 3673.69,-2407.49 3671.96,-2405.89 3670.32,-2404.24 3668.76,-2402.56 3667.29,-2400.83 3665.93,-2399.08 3664.68,-2397.3 3663.55,-2395.49 3662.55,-2393.67 3661.68,-2391.83 3660.95,-2389.99 3660.36,-2388.15 3659.93,-2386.3 3659.66,-2384.47 3659.56,-2382.65 3659.62,-2380.84 3659.86,-2379.06 3660.27,-2377.3 3660.87,-2375.58 3661.65,-2373.89 3662.61,-2372.25 3663.75,-2370.65 3665.08,-2369.1 3666.59,-2367.61 3668.28,-2366.18 3670.14,-2364.81 3672.17,-2363.5 3674.36,-2362.27 3676.72,-2361.11 3679.22,-2360.02 3681.87,-2359.02 3684.65,-2358.09 3687.55,-2357.26 3690.57,-2356.5 3693.68,-2355.84 3696.89,-2355.27 3700.17,-2354.8 3703.51,-2354.41 3706.91,-2354.12 3710.33,-2353.93 3713.78,-2353.83 3717.24,-2353.83 3720.69,-2353.93"/>
<text text-anchor="start" x="3686.34" y="-2398.87" font-family="Times,serif" font-size="14.00">C0032098</text>
<text text-anchor="start" x="3691.41" y="-2384.87" font-family="Times,serif" font-size="14.00">cultivars</text>
<text text-anchor="start" x="3699.57" y="-2370.87" font-family="Times,serif" font-size="14.00">67:67</text>
</g>
<!-- id_27593461_DOT_4&#45;&#45;id_27593461_DOT_9 -->
<g id="edge16" class="edge">
<title>id_27593461_DOT_4&#45;&#45;id_27593461_DOT_9</title>
<path fill="none" stroke="black" stroke-dasharray="1,5" d="M4064.64,-2474.4C3985.24,-2455 3839.62,-2419.4 3763.98,-2400.92"/>
<text text-anchor="middle" x="3888.06" y="-2440.46" font-family="Times,serif" font-size="14.00">0.720203</text>
</g>
<!-- id_27593461_DOT_20 -->
<g id="node20" class="node">
<title>id_27593461_DOT_20</title>
<polygon fill="cornflowerblue" stroke="cornflowerblue" points="4484.74,-2608.18 4488.17,-2608.38 4491.56,-2608.66 4494.9,-2609.05 4498.19,-2609.53 4501.39,-2610.1 4504.51,-2610.76 4507.52,-2611.51 4510.42,-2612.35 4513.2,-2613.27 4515.85,-2614.27 4518.36,-2615.36 4520.71,-2616.52 4522.91,-2617.75 4524.94,-2619.06 4526.8,-2620.43 4528.49,-2621.86 4529.99,-2623.36 4531.32,-2624.9 4532.47,-2626.5 4533.43,-2628.15 4534.21,-2629.83 4534.8,-2631.56 4535.22,-2633.31 4535.45,-2635.09 4535.52,-2636.9 4535.41,-2638.72 4535.14,-2640.56 4534.71,-2642.4 4534.13,-2644.24 4533.4,-2646.09 4532.53,-2647.92 4531.52,-2649.74 4530.39,-2651.55 4529.14,-2653.33 4527.78,-2655.09 4526.32,-2656.81 4524.76,-2658.5 4523.11,-2660.14 4521.38,-2661.74 4519.58,-2663.29 4517.71,-2664.78 4515.78,-2666.21 4513.8,-2667.58 4511.77,-2668.89 4509.69,-2670.12 4507.58,-2671.29 4505.44,-2672.37 4503.27,-2673.37 4501.07,-2674.3 4498.85,-2675.14 4496.62,-2675.89 4494.37,-2676.55 4492.11,-2677.12 4489.84,-2677.6 4487.56,-2677.98 4485.28,-2678.27 4483,-2678.46 4480.71,-2678.56 4478.42,-2678.56 4476.13,-2678.46 4473.84,-2678.27 4471.56,-2677.98 4469.28,-2677.6 4467.01,-2677.12 4464.75,-2676.55 4462.51,-2675.89 4460.27,-2675.14 4458.05,-2674.3 4455.86,-2673.37 4453.69,-2672.37 4451.54,-2671.29 4449.43,-2670.12 4447.36,-2668.89 4445.33,-2667.58 4443.34,-2666.21 4441.41,-2664.78 4439.54,-2663.29 4437.74,-2661.74 4436.01,-2660.14 4434.37,-2658.5 4432.81,-2656.81 4431.34,-2655.09 4429.98,-2653.33 4428.73,-2651.55 4427.6,-2649.74 4426.6,-2647.92 4425.73,-2646.09 4425,-2644.24 4424.41,-2642.4 4423.98,-2640.56 4423.71,-2638.72 4423.61,-2636.9 4423.67,-2635.09 4423.91,-2633.31 4424.32,-2631.56 4424.92,-2629.83 4425.7,-2628.15 4426.66,-2626.5 4427.8,-2624.9 4429.13,-2623.36 4430.64,-2621.86 4432.33,-2620.43 4434.19,-2619.06 4436.22,-2617.75 4438.41,-2616.52 4440.77,-2615.36 4443.27,-2614.27 4445.92,-2613.27 4448.7,-2612.35 4451.6,-2611.51 4454.62,-2610.76 4457.73,-2610.1 4460.94,-2609.53 4464.22,-2609.05 4467.56,-2608.66 4470.96,-2608.38 4474.38,-2608.18 4477.83,-2608.09 4481.29,-2608.09 4484.74,-2608.18"/>
<text text-anchor="start" x="4450.39" y="-2653.12" font-family="Times,serif" font-size="14.00">C0242767</text>
<text text-anchor="start" x="4466.34" y="-2639.12" font-family="Times,serif" font-size="14.00">stem</text>
<text text-anchor="start" x="4456.62" y="-2625.12" font-family="Times,serif" font-size="14.00">197:197</text>
</g>
<!-- id_27593461_DOT_4&#45;&#45;id_27593461_DOT_20 -->
<g id="edge17" class="edge">
<title>id_27593461_DOT_4&#45;&#45;id_27593461_DOT_20</title>
<path fill="none" stroke="black" stroke-dasharray="1,5" d="M4161.9,-2506.12C4228.91,-2535.06 4359.04,-2591.27 4430.18,-2621.99"/>
<text text-anchor="middle" x="4269.79" y="-2566.86" font-family="Times,serif" font-size="14.00">0.735222</text>
</g>
<!-- id_27593461_DOT_5 -->
<g id="node5" class="node">
<title>id_27593461_DOT_5</title>
<polygon fill="aquamarine" stroke="aquamarine" points="61.16,-842.62 64.58,-842.82 67.98,-843.11 71.32,-843.49 74.6,-843.97 77.81,-844.54 80.92,-845.2 83.94,-845.95 86.84,-846.79 89.62,-847.71 92.27,-848.72 94.77,-849.8 97.13,-850.96 99.32,-852.2 101.35,-853.5 103.22,-854.87 104.9,-856.31 106.41,-857.8 107.74,-859.35 108.88,-860.94 109.84,-862.59 110.62,-864.27 111.22,-866 111.63,-867.75 111.87,-869.54 111.93,-871.34 111.83,-873.16 111.56,-875 111.13,-876.84 110.54,-878.69 109.81,-880.53 108.94,-882.36 107.94,-884.19 106.81,-885.99 105.56,-887.77 104.2,-889.53 102.73,-891.25 101.18,-892.94 99.53,-894.58 97.8,-896.18 96,-897.73 94.13,-899.22 92.2,-900.65 90.22,-902.03 88.18,-903.33 86.11,-904.57 84,-905.73 81.85,-906.81 79.68,-907.82 77.49,-908.74 75.27,-909.58 73.04,-910.33 70.79,-910.99 68.53,-911.56 66.26,-912.04 63.98,-912.42 61.7,-912.71 59.41,-912.9 57.12,-913 54.83,-913 52.55,-912.9 50.26,-912.71 47.98,-912.42 45.7,-912.04 43.43,-911.56 41.17,-910.99 38.92,-910.33 36.69,-909.58 34.47,-908.74 32.27,-907.82 30.1,-906.81 27.96,-905.73 25.85,-904.57 23.77,-903.33 21.74,-902.03 19.76,-900.65 17.83,-899.22 15.96,-897.73 14.16,-896.18 12.43,-894.58 10.78,-892.94 9.22,-891.25 7.76,-889.53 6.4,-887.77 5.15,-885.99 4.02,-884.19 3.01,-882.36 2.14,-880.53 1.41,-878.69 0.83,-876.84 0.4,-875 0.13,-873.16 0.02,-871.34 0.09,-869.54 0.32,-867.75 0.74,-866 1.34,-864.27 2.11,-862.59 3.07,-860.94 4.22,-859.35 5.55,-857.8 7.05,-856.31 8.74,-854.87 10.6,-853.5 12.63,-852.2 14.83,-850.96 17.18,-849.8 19.69,-848.72 22.34,-847.71 25.12,-846.79 28.02,-845.95 31.03,-845.2 34.15,-844.54 37.35,-843.97 40.64,-843.49 43.98,-843.11 47.37,-842.82 50.8,-842.62 54.25,-842.53 57.71,-842.53 61.16,-842.62"/>
<text text-anchor="start" x="26.81" y="-887.56" font-family="Times,serif" font-size="14.00">C0043047</text>
<text text-anchor="start" x="39.44" y="-873.56" font-family="Times,serif" font-size="14.00">Water</text>
<text text-anchor="start" x="40.03" y="-859.56" font-family="Times,serif" font-size="14.00">23:23</text>
</g>
<!-- id_27593461_DOT_5&#45;&#45;id_27593461_DOT_6 -->
<g id="edge6" class="edge">
<title>id_27593461_DOT_5&#45;&#45;id_27593461_DOT_6</title>
<path fill="none" stroke="black" d="M105.85,-887.77C174.74,-901.59 298.64,-926.46 370.34,-940.84"/>
<text text-anchor="middle" x="211.84" y="-917.11" font-family="Times,serif" font-size="14.00">0.001355</text>
</g>
<!-- id_27593461_DOT_18 -->
<g id="node18" class="node">
<title>id_27593461_DOT_18</title>
<polygon fill="bisque" stroke="bisque" points="3042.94,-1410.16 3048.95,-1410.36 3054.89,-1410.64 3060.75,-1411.03 3066.49,-1411.51 3072.11,-1412.08 3077.57,-1412.74 3082.85,-1413.49 3087.93,-1414.33 3092.8,-1415.25 3097.44,-1416.25 3101.82,-1417.34 3105.95,-1418.5 3109.79,-1419.73 3113.35,-1421.04 3116.61,-1422.41 3119.57,-1423.84 3122.21,-1425.34 3124.53,-1426.88 3126.54,-1428.48 3128.22,-1430.13 3129.59,-1431.81 3130.63,-1433.54 3131.36,-1435.29 3131.77,-1437.07 3131.89,-1438.88 3131.7,-1440.7 3131.23,-1442.54 3130.47,-1444.38 3129.45,-1446.22 3128.17,-1448.07 3126.64,-1449.9 3124.88,-1451.72 3122.9,-1453.53 3120.72,-1455.31 3118.33,-1457.07 3115.77,-1458.79 3113.04,-1460.48 3110.15,-1462.12 3107.13,-1463.72 3103.97,-1465.27 3100.7,-1466.76 3097.32,-1468.19 3093.84,-1469.56 3090.28,-1470.87 3086.65,-1472.1 3082.95,-1473.27 3079.2,-1474.35 3075.39,-1475.35 3071.55,-1476.28 3067.66,-1477.12 3063.75,-1477.87 3059.81,-1478.53 3055.85,-1479.1 3051.88,-1479.58 3047.89,-1479.96 3043.89,-1480.25 3039.89,-1480.44 3035.88,-1480.54 3031.87,-1480.54 3027.86,-1480.44 3023.86,-1480.25 3019.86,-1479.96 3015.87,-1479.58 3011.89,-1479.1 3007.94,-1478.53 3004,-1477.87 3000.08,-1477.12 2996.2,-1476.28 2992.35,-1475.35 2988.55,-1474.35 2984.79,-1473.27 2981.1,-1472.1 2977.46,-1470.87 2973.91,-1469.56 2970.43,-1468.19 2967.05,-1466.76 2963.78,-1465.27 2960.62,-1463.72 2957.59,-1462.12 2954.71,-1460.48 2951.98,-1458.79 2949.41,-1457.07 2947.03,-1455.31 2944.84,-1453.53 2942.86,-1451.72 2941.1,-1449.9 2939.58,-1448.07 2938.3,-1446.22 2937.27,-1444.38 2936.52,-1442.54 2936.05,-1440.7 2935.86,-1438.88 2935.97,-1437.07 2936.39,-1435.29 2937.12,-1433.54 2938.16,-1431.81 2939.53,-1430.13 2941.21,-1428.48 2943.21,-1426.88 2945.54,-1425.34 2948.18,-1423.84 2951.13,-1422.41 2954.4,-1421.04 2957.95,-1419.73 2961.8,-1418.5 2965.92,-1417.34 2970.31,-1416.25 2974.95,-1415.25 2979.82,-1414.33 2984.9,-1413.49 2990.18,-1412.74 2995.64,-1412.08 3001.25,-1411.51 3007,-1411.03 3012.86,-1410.64 3018.8,-1410.36 3024.8,-1410.16 3030.85,-1410.07 3036.9,-1410.07 3042.94,-1410.16"/>
<text text-anchor="start" x="3004.7" y="-1455.1" font-family="Times,serif" font-size="14.00">C0032098</text>
<text text-anchor="start" x="2976.63" y="-1441.1" font-family="Times,serif" font-size="14.00">Tempranillo cultivar</text>
<text text-anchor="start" x="3010.93" y="-1427.1" font-family="Times,serif" font-size="14.00">151:152</text>
</g>
<!-- id_27593461_DOT_7&#45;&#45;id_27593461_DOT_18 -->
<g id="edge18" class="edge">
<title>id_27593461_DOT_7&#45;&#45;id_27593461_DOT_18</title>
<path fill="none" stroke="black" stroke-dasharray="1,5" d="M2724.63,-1242.21C2787.1,-1283.23 2914.91,-1367.17 2985.08,-1413.25"/>
<text text-anchor="middle" x="2828.61" y="-1330.53" font-family="Times,serif" font-size="14.00">0.779274</text>
</g>
<!-- id_27593461_DOT_26 -->
<g id="node26" class="node">
<title>id_27593461_DOT_26</title>
<polygon fill="blue" stroke="blue" points="2285.81,-1151.64 2289.24,-1151.83 2292.63,-1152.12 2295.97,-1152.51 2299.25,-1152.98 2302.46,-1153.55 2305.57,-1154.21 2308.59,-1154.96 2311.49,-1155.8 2314.27,-1156.73 2316.92,-1157.73 2319.42,-1158.82 2321.78,-1159.98 2323.97,-1161.21 2326,-1162.52 2327.87,-1163.89 2329.55,-1165.32 2331.06,-1166.81 2332.39,-1168.36 2333.53,-1169.96 2334.49,-1171.6 2335.27,-1173.29 2335.87,-1175.01 2336.28,-1176.77 2336.52,-1178.55 2336.59,-1180.36 2336.48,-1182.18 2336.21,-1184.01 2335.78,-1185.86 2335.19,-1187.7 2334.46,-1189.54 2333.59,-1191.38 2332.59,-1193.2 2331.46,-1195.01 2330.21,-1196.79 2328.85,-1198.54 2327.38,-1200.27 2325.83,-1201.95 2324.18,-1203.6 2322.45,-1205.2 2320.65,-1206.74 2318.78,-1208.24 2316.85,-1209.67 2314.87,-1211.04 2312.83,-1212.35 2310.76,-1213.58 2308.65,-1214.74 2306.5,-1215.83 2304.33,-1216.83 2302.14,-1217.75 2299.92,-1218.59 2297.69,-1219.34 2295.44,-1220 2293.18,-1220.57 2290.91,-1221.05 2288.63,-1221.44 2286.35,-1221.72 2284.06,-1221.92 2281.77,-1222.01 2279.48,-1222.01 2277.2,-1221.92 2274.91,-1221.72 2272.63,-1221.44 2270.35,-1221.05 2268.08,-1220.57 2265.82,-1220 2263.57,-1219.34 2261.34,-1218.59 2259.12,-1217.75 2256.92,-1216.83 2254.75,-1215.83 2252.61,-1214.74 2250.5,-1213.58 2248.42,-1212.35 2246.39,-1211.04 2244.41,-1209.67 2242.48,-1208.24 2240.61,-1206.74 2238.81,-1205.2 2237.08,-1203.6 2235.43,-1201.95 2233.87,-1200.27 2232.41,-1198.54 2231.05,-1196.79 2229.8,-1195.01 2228.67,-1193.2 2227.66,-1191.38 2226.79,-1189.54 2226.06,-1187.7 2225.48,-1185.86 2225.05,-1184.01 2224.78,-1182.18 2224.67,-1180.36 2224.74,-1178.55 2224.97,-1176.77 2225.39,-1175.01 2225.99,-1173.29 2226.76,-1171.6 2227.72,-1169.96 2228.87,-1168.36 2230.2,-1166.81 2231.71,-1165.32 2233.39,-1163.89 2235.25,-1162.52 2237.28,-1161.21 2239.48,-1159.98 2241.84,-1158.82 2244.34,-1157.73 2246.99,-1156.73 2249.77,-1155.8 2252.67,-1154.96 2255.68,-1154.21 2258.8,-1153.55 2262.01,-1152.98 2265.29,-1152.51 2268.63,-1152.12 2272.02,-1151.83 2275.45,-1151.64 2278.9,-1151.54 2282.36,-1151.54 2285.81,-1151.64"/>
<text text-anchor="start" x="2251.46" y="-1196.58" font-family="Times,serif" font-size="14.00">C0330100</text>
<text text-anchor="start" x="2253.03" y="-1182.58" font-family="Times,serif" font-size="14.00">grapevine</text>
<text text-anchor="start" x="2257.68" y="-1168.58" font-family="Times,serif" font-size="14.00">244:244</text>
</g>
<!-- id_27593461_DOT_7&#45;&#45;id_27593461_DOT_26 -->
<g id="edge7" class="edge">
<title>id_27593461_DOT_7&#45;&#45;id_27593461_DOT_26</title>
<path fill="none" stroke="black" d="M2630.33,-1213.86C2551.19,-1207.73 2410.45,-1196.83 2333.87,-1190.9"/>
<text text-anchor="middle" x="2455.85" y="-1205.18" font-family="Times,serif" font-size="14.00">0.035866</text>
</g>
<!-- id_27593461_DOT_8 -->
<g id="node8" class="node">
<title>id_27593461_DOT_8</title>
<polygon fill="brown" stroke="brown" points="4818.84,-2785.2 4822.27,-2785.39 4825.66,-2785.68 4829.01,-2786.07 4832.29,-2786.54 4835.49,-2787.11 4838.61,-2787.77 4841.62,-2788.53 4844.53,-2789.36 4847.31,-2790.29 4849.95,-2791.29 4852.46,-2792.38 4854.81,-2793.54 4857.01,-2794.77 4859.04,-2796.08 4860.9,-2797.45 4862.59,-2798.88 4864.1,-2800.37 4865.42,-2801.92 4866.57,-2803.52 4867.53,-2805.16 4868.31,-2806.85 4868.9,-2808.57 4869.32,-2810.33 4869.56,-2812.11 4869.62,-2813.92 4869.51,-2815.74 4869.24,-2817.57 4868.81,-2819.42 4868.23,-2821.26 4867.5,-2823.1 4866.63,-2824.94 4865.62,-2826.76 4864.49,-2828.57 4863.24,-2830.35 4861.88,-2832.11 4860.42,-2833.83 4858.86,-2835.51 4857.21,-2837.16 4855.48,-2838.76 4853.68,-2840.3 4851.81,-2841.8 4849.88,-2843.23 4847.9,-2844.6 4845.87,-2845.91 4843.8,-2847.14 4841.68,-2848.3 4839.54,-2849.39 4837.37,-2850.39 4835.17,-2851.32 4832.95,-2852.15 4830.72,-2852.9 4828.47,-2853.57 4826.21,-2854.14 4823.94,-2854.61 4821.67,-2855 4819.38,-2855.29 4817.1,-2855.48 4814.81,-2855.57 4812.52,-2855.57 4810.23,-2855.48 4807.94,-2855.29 4805.66,-2855 4803.38,-2854.61 4801.12,-2854.14 4798.86,-2853.57 4796.61,-2852.9 4794.37,-2852.15 4792.16,-2851.32 4789.96,-2850.39 4787.79,-2849.39 4785.64,-2848.3 4783.53,-2847.14 4781.46,-2845.91 4779.43,-2844.6 4777.44,-2843.23 4775.51,-2841.8 4773.64,-2840.3 4771.84,-2838.76 4770.11,-2837.16 4768.47,-2835.51 4766.91,-2833.83 4765.44,-2832.11 4764.08,-2830.35 4762.84,-2828.57 4761.7,-2826.76 4760.7,-2824.94 4759.83,-2823.1 4759.1,-2821.26 4758.51,-2819.42 4758.08,-2817.57 4757.81,-2815.74 4757.71,-2813.92 4757.77,-2812.11 4758.01,-2810.33 4758.42,-2808.57 4759.02,-2806.85 4759.8,-2805.16 4760.76,-2803.52 4761.9,-2801.92 4763.23,-2800.37 4764.74,-2798.88 4766.43,-2797.45 4768.29,-2796.08 4770.32,-2794.77 4772.52,-2793.54 4774.87,-2792.38 4777.37,-2791.29 4780.02,-2790.29 4782.8,-2789.36 4785.7,-2788.53 4788.72,-2787.77 4791.84,-2787.11 4795.04,-2786.54 4798.32,-2786.07 4801.66,-2785.68 4805.06,-2785.39 4808.49,-2785.2 4811.94,-2785.1 4815.39,-2785.1 4818.84,-2785.2"/>
<text text-anchor="start" x="4784.49" y="-2830.14" font-family="Times,serif" font-size="14.00">C0205146</text>
<text text-anchor="start" x="4799.29" y="-2816.14" font-family="Times,serif" font-size="14.00">areas</text>
<text text-anchor="start" x="4797.72" y="-2802.14" font-family="Times,serif" font-size="14.00">64:64</text>
</g>
<!-- id_27593461_DOT_8&#45;&#45;id_27593461_DOT_20 -->
<g id="edge19" class="edge">
<title>id_27593461_DOT_8&#45;&#45;id_27593461_DOT_20</title>
<path fill="none" stroke="black" stroke-dasharray="1,5" d="M4767.91,-2796.1C4701.87,-2761.11 4580.97,-2697.05 4518.79,-2664.11"/>
<text text-anchor="middle" x="4617.1" y="-2732.9" font-family="Times,serif" font-size="14.00">0.865656</text>
</g>
<!-- id_27593461_DOT_13 -->
<g id="node13" class="node">
<title>id_27593461_DOT_13</title>
<polygon fill="bisque" stroke="bisque" points="3556.82,-1963.01 3560.25,-1963.2 3563.64,-1963.49 3566.99,-1963.87 3570.27,-1964.35 3573.47,-1964.92 3576.59,-1965.58 3579.6,-1966.33 3582.51,-1967.17 3585.29,-1968.09 3587.93,-1969.1 3590.44,-1970.18 3592.79,-1971.35 3594.99,-1972.58 3597.02,-1973.89 3598.88,-1975.26 3600.57,-1976.69 3602.08,-1978.18 3603.4,-1979.73 3604.55,-1981.33 3605.51,-1982.97 3606.29,-1984.66 3606.88,-1986.38 3607.3,-1988.14 3607.54,-1989.92 3607.6,-1991.72 3607.49,-1993.55 3607.22,-1995.38 3606.79,-1997.23 3606.21,-1999.07 3605.48,-2000.91 3604.61,-2002.75 3603.6,-2004.57 3602.47,-2006.38 3601.22,-2008.16 3599.86,-2009.91 3598.4,-2011.64 3596.84,-2013.32 3595.19,-2014.97 3593.46,-2016.56 3591.66,-2018.11 3589.79,-2019.61 3587.86,-2021.04 3585.88,-2022.41 3583.85,-2023.72 3581.77,-2024.95 3579.66,-2026.11 3577.52,-2027.2 3575.35,-2028.2 3573.15,-2029.12 3570.93,-2029.96 3568.7,-2030.71 3566.45,-2031.37 3564.19,-2031.94 3561.92,-2032.42 3559.65,-2032.81 3557.36,-2033.09 3555.08,-2033.29 3552.79,-2033.38 3550.5,-2033.38 3548.21,-2033.29 3545.92,-2033.09 3543.64,-2032.81 3541.36,-2032.42 3539.1,-2031.94 3536.84,-2031.37 3534.59,-2030.71 3532.35,-2029.96 3530.14,-2029.12 3527.94,-2028.2 3525.77,-2027.2 3523.62,-2026.11 3521.51,-2024.95 3519.44,-2023.72 3517.41,-2022.41 3515.42,-2021.04 3513.49,-2019.61 3511.62,-2018.11 3509.82,-2016.56 3508.09,-2014.97 3506.45,-2013.32 3504.89,-2011.64 3503.42,-2009.91 3502.06,-2008.16 3500.81,-2006.38 3499.68,-2004.57 3498.68,-2002.75 3497.81,-2000.91 3497.08,-1999.07 3496.49,-1997.23 3496.06,-1995.38 3495.79,-1993.55 3495.69,-1991.72 3495.75,-1989.92 3495.99,-1988.14 3496.4,-1986.38 3497,-1984.66 3497.78,-1982.97 3498.74,-1981.33 3499.88,-1979.73 3501.21,-1978.18 3502.72,-1976.69 3504.41,-1975.26 3506.27,-1973.89 3508.3,-1972.58 3510.5,-1971.35 3512.85,-1970.18 3515.35,-1969.1 3518,-1968.09 3520.78,-1967.17 3523.68,-1966.33 3526.7,-1965.58 3529.82,-1964.92 3533.02,-1964.35 3536.3,-1963.87 3539.64,-1963.49 3543.04,-1963.2 3546.47,-1963.01 3549.92,-1962.91 3553.37,-1962.91 3556.82,-1963.01"/>
<text text-anchor="start" x="3522.47" y="-2007.95" font-family="Times,serif" font-size="14.00">C0032098</text>
<text text-anchor="start" x="3527.54" y="-1993.95" font-family="Times,serif" font-size="14.00">cultivars</text>
<text text-anchor="start" x="3535.7" y="-1979.95" font-family="Times,serif" font-size="14.00">94:94</text>
</g>
<!-- id_27593461_DOT_9&#45;&#45;id_27593461_DOT_13 -->
<g id="edge8" class="edge">
<title>id_27593461_DOT_9&#45;&#45;id_27593461_DOT_13</title>
<path fill="none" stroke="black" d="M3700.97,-2354.38C3669.72,-2279.82 3596.49,-2105.13 3565.69,-2031.65"/>
<text text-anchor="middle" x="3607.08" y="-2195.81" font-family="Times,serif" font-size="14.00">0.003751</text>
</g>
<!-- id_27593461_DOT_25 -->
<g id="node25" class="node">
<title>id_27593461_DOT_25</title>
<polygon fill="coral" stroke="coral" points="3544.07,-2731.25 3547.49,-2731.44 3550.89,-2731.73 3554.23,-2732.11 3557.51,-2732.59 3560.72,-2733.16 3563.83,-2733.82 3566.85,-2734.57 3569.75,-2735.41 3572.53,-2736.33 3575.18,-2737.34 3577.68,-2738.42 3580.04,-2739.58 3582.23,-2740.82 3584.26,-2742.12 3586.13,-2743.49 3587.81,-2744.93 3589.32,-2746.42 3590.65,-2747.97 3591.79,-2749.57 3592.75,-2751.21 3593.53,-2752.9 3594.13,-2754.62 3594.54,-2756.37 3594.78,-2758.16 3594.84,-2759.96 3594.74,-2761.78 3594.47,-2763.62 3594.04,-2765.46 3593.45,-2767.31 3592.72,-2769.15 3591.85,-2770.99 3590.85,-2772.81 3589.72,-2774.61 3588.47,-2776.4 3587.11,-2778.15 3585.64,-2779.87 3584.09,-2781.56 3582.44,-2783.2 3580.71,-2784.8 3578.91,-2786.35 3577.04,-2787.84 3575.11,-2789.28 3573.13,-2790.65 3571.09,-2791.95 3569.02,-2793.19 3566.91,-2794.35 3564.76,-2795.43 3562.59,-2796.44 3560.4,-2797.36 3558.18,-2798.2 3555.95,-2798.95 3553.7,-2799.61 3551.44,-2800.18 3549.17,-2800.66 3546.89,-2801.04 3544.61,-2801.33 3542.32,-2801.52 3540.03,-2801.62 3537.74,-2801.62 3535.46,-2801.52 3533.17,-2801.33 3530.89,-2801.04 3528.61,-2800.66 3526.34,-2800.18 3524.08,-2799.61 3521.83,-2798.95 3519.6,-2798.2 3517.38,-2797.36 3515.18,-2796.44 3513.01,-2795.43 3510.87,-2794.35 3508.76,-2793.19 3506.68,-2791.95 3504.65,-2790.65 3502.67,-2789.28 3500.74,-2787.84 3498.87,-2786.35 3497.07,-2784.8 3495.34,-2783.2 3493.69,-2781.56 3492.13,-2779.87 3490.67,-2778.15 3489.31,-2776.4 3488.06,-2774.61 3486.93,-2772.81 3485.92,-2770.99 3485.05,-2769.15 3484.32,-2767.31 3483.74,-2765.46 3483.31,-2763.62 3483.04,-2761.78 3482.93,-2759.96 3483,-2758.16 3483.23,-2756.37 3483.65,-2754.62 3484.25,-2752.9 3485.02,-2751.21 3485.98,-2749.57 3487.13,-2747.97 3488.46,-2746.42 3489.96,-2744.93 3491.65,-2743.49 3493.51,-2742.12 3495.54,-2740.82 3497.74,-2739.58 3500.09,-2738.42 3502.6,-2737.34 3505.25,-2736.33 3508.03,-2735.41 3510.93,-2734.57 3513.94,-2733.82 3517.06,-2733.16 3520.27,-2732.59 3523.55,-2732.11 3526.89,-2731.73 3530.28,-2731.44 3533.71,-2731.25 3537.16,-2731.15 3540.62,-2731.15 3544.07,-2731.25"/>
<text text-anchor="start" x="3509.72" y="-2776.19" font-family="Times,serif" font-size="14.00">C1522642</text>
<text text-anchor="start" x="3521.01" y="-2762.19" font-family="Times,serif" font-size="14.00">clones</text>
<text text-anchor="start" x="3515.94" y="-2748.19" font-family="Times,serif" font-size="14.00">210:210</text>
</g>
<!-- id_27593461_DOT_9&#45;&#45;id_27593461_DOT_25 -->
<g id="edge20" class="edge">
<title>id_27593461_DOT_9&#45;&#45;id_27593461_DOT_25</title>
<path fill="none" stroke="black" stroke-dasharray="1,5" d="M3699.99,-2422.22C3666.7,-2493.34 3588.71,-2659.95 3554.94,-2732.09"/>
<text text-anchor="middle" x="3601.22" y="-2579.95" font-family="Times,serif" font-size="14.00">0.663069</text>
</g>
<!-- id_27593461_DOT_10 -->
<g id="node10" class="node">
<title>id_27593461_DOT_10</title>
<polygon fill="cadetblue" stroke="cadetblue" points="1520.35,-389.05 1523.77,-389.24 1527.17,-389.53 1530.51,-389.91 1533.79,-390.39 1537,-390.96 1540.11,-391.62 1543.13,-392.37 1546.03,-393.21 1548.81,-394.13 1551.46,-395.14 1553.96,-396.22 1556.32,-397.38 1558.51,-398.62 1560.54,-399.92 1562.4,-401.29 1564.09,-402.73 1565.6,-404.22 1566.93,-405.77 1568.07,-407.37 1569.03,-409.01 1569.81,-410.7 1570.41,-412.42 1570.82,-414.18 1571.06,-415.96 1571.12,-417.76 1571.02,-419.59 1570.75,-421.42 1570.32,-423.26 1569.73,-425.11 1569,-426.95 1568.13,-428.79 1567.13,-430.61 1566,-432.41 1564.75,-434.2 1563.39,-435.95 1561.92,-437.67 1560.36,-439.36 1558.72,-441 1556.99,-442.6 1555.19,-444.15 1553.32,-445.64 1551.39,-447.08 1549.4,-448.45 1547.37,-449.75 1545.3,-450.99 1543.19,-452.15 1541.04,-453.23 1538.87,-454.24 1536.68,-455.16 1534.46,-456 1532.22,-456.75 1529.98,-457.41 1527.72,-457.98 1525.45,-458.46 1523.17,-458.84 1520.89,-459.13 1518.6,-459.32 1516.31,-459.42 1514.02,-459.42 1511.73,-459.32 1509.45,-459.13 1507.17,-458.84 1504.89,-458.46 1502.62,-457.98 1500.36,-457.41 1498.11,-456.75 1495.88,-456 1493.66,-455.16 1491.46,-454.24 1489.29,-453.23 1487.15,-452.15 1485.04,-450.99 1482.96,-449.75 1480.93,-448.45 1478.95,-447.08 1477.02,-445.64 1475.15,-444.15 1473.35,-442.6 1471.62,-441 1469.97,-439.36 1468.41,-437.67 1466.95,-435.95 1465.59,-434.2 1464.34,-432.41 1463.21,-430.61 1462.2,-428.79 1461.33,-426.95 1460.6,-425.11 1460.02,-423.26 1459.59,-421.42 1459.32,-419.59 1459.21,-417.76 1459.28,-415.96 1459.51,-414.18 1459.93,-412.42 1460.53,-410.7 1461.3,-409.01 1462.26,-407.37 1463.41,-405.77 1464.74,-404.22 1466.24,-402.73 1467.93,-401.29 1469.79,-399.92 1471.82,-398.62 1474.02,-397.38 1476.37,-396.22 1478.88,-395.14 1481.53,-394.13 1484.31,-393.21 1487.21,-392.37 1490.22,-391.62 1493.34,-390.96 1496.54,-390.39 1499.83,-389.91 1503.17,-389.53 1506.56,-389.24 1509.99,-389.05 1513.44,-388.95 1516.9,-388.95 1520.35,-389.05"/>
<text text-anchor="start" x="1486" y="-433.99" font-family="Times,serif" font-size="14.00">C1707496</text>
<text text-anchor="start" x="1487.95" y="-419.99" font-family="Times,serif" font-size="14.00">consumer</text>
<text text-anchor="start" x="1499.22" y="-405.99" font-family="Times,serif" font-size="14.00">80:80</text>
</g>
<!-- id_27593461_DOT_21 -->
<g id="node21" class="node">
<title>id_27593461_DOT_21</title>
<polygon fill="aquamarine" stroke="aquamarine" points="1549.54,-810.12 1552.96,-810.31 1556.36,-810.6 1559.7,-810.99 1562.98,-811.46 1566.19,-812.03 1569.3,-812.7 1572.32,-813.45 1575.22,-814.28 1578,-815.21 1580.65,-816.21 1583.15,-817.3 1585.51,-818.46 1587.7,-819.69 1589.73,-821 1591.6,-822.37 1593.28,-823.8 1594.79,-825.3 1596.12,-826.84 1597.26,-828.44 1598.22,-830.09 1599,-831.77 1599.6,-833.49 1600.01,-835.25 1600.25,-837.03 1600.31,-838.84 1600.21,-840.66 1599.94,-842.49 1599.51,-844.34 1598.92,-846.18 1598.19,-848.03 1597.32,-849.86 1596.32,-851.68 1595.19,-853.49 1593.94,-855.27 1592.58,-857.03 1591.11,-858.75 1589.56,-860.43 1587.91,-862.08 1586.18,-863.68 1584.38,-865.22 1582.51,-866.72 1580.58,-868.15 1578.6,-869.52 1576.56,-870.83 1574.49,-872.06 1572.38,-873.22 1570.23,-874.31 1568.06,-875.31 1565.87,-876.24 1563.65,-877.07 1561.42,-877.82 1559.17,-878.49 1556.91,-879.06 1554.64,-879.53 1552.36,-879.92 1550.08,-880.21 1547.79,-880.4 1545.5,-880.5 1543.21,-880.5 1540.93,-880.4 1538.64,-880.21 1536.36,-879.92 1534.08,-879.53 1531.81,-879.06 1529.55,-878.49 1527.3,-877.82 1525.07,-877.07 1522.85,-876.24 1520.65,-875.31 1518.48,-874.31 1516.34,-873.22 1514.23,-872.06 1512.15,-870.83 1510.12,-869.52 1508.14,-868.15 1506.21,-866.72 1504.34,-865.22 1502.54,-863.68 1500.81,-862.08 1499.16,-860.43 1497.6,-858.75 1496.14,-857.03 1494.78,-855.27 1493.53,-853.49 1492.4,-851.68 1491.39,-849.86 1490.52,-848.03 1489.79,-846.18 1489.21,-844.34 1488.78,-842.49 1488.51,-840.66 1488.4,-838.84 1488.47,-837.03 1488.7,-835.25 1489.12,-833.49 1489.72,-831.77 1490.49,-830.09 1491.45,-828.44 1492.6,-826.84 1493.93,-825.3 1495.43,-823.8 1497.12,-822.37 1498.98,-821 1501.01,-819.69 1503.21,-818.46 1505.56,-817.3 1508.07,-816.21 1510.72,-815.21 1513.5,-814.28 1516.4,-813.45 1519.41,-812.7 1522.53,-812.03 1525.74,-811.46 1529.02,-810.99 1532.36,-810.6 1535.75,-810.31 1539.18,-810.12 1542.63,-810.02 1546.09,-810.02 1549.54,-810.12"/>
<text text-anchor="start" x="1515.19" y="-855.06" font-family="Times,serif" font-size="14.00">C0043047</text>
<text text-anchor="start" x="1528.81" y="-841.06" font-family="Times,serif" font-size="14.00">water</text>
<text text-anchor="start" x="1521.41" y="-827.06" font-family="Times,serif" font-size="14.00">198:198</text>
</g>
<!-- id_27593461_DOT_10&#45;&#45;id_27593461_DOT_21 -->
<g id="edge21" class="edge">
<title>id_27593461_DOT_10&#45;&#45;id_27593461_DOT_21</title>
<path fill="none" stroke="black" stroke-dasharray="1,5" d="M1517.63,-459.72C1523.14,-539.23 1536.42,-730.69 1541.91,-809.97"/>
<text text-anchor="middle" x="1503.52" y="-637.64" font-family="Times,serif" font-size="14.00">0.905070</text>
</g>
<!-- id_27593461_DOT_22 -->
<g id="node22" class="node">
<title>id_27593461_DOT_22</title>
<polygon fill="crimson" stroke="crimson" points="1460.77,-0.23 1467.09,-0.42 1473.35,-0.71 1479.51,-1.09 1485.56,-1.57 1491.47,-2.14 1497.22,-2.8 1502.78,-3.55 1508.13,-4.39 1513.25,-5.31 1518.13,-6.32 1522.75,-7.4 1527.09,-8.57 1531.14,-9.8 1534.89,-11.1 1538.32,-12.48 1541.43,-13.91 1544.21,-15.4 1546.66,-16.95 1548.77,-18.55 1550.54,-20.19 1551.97,-21.88 1553.07,-23.6 1553.84,-25.36 1554.28,-27.14 1554.4,-28.94 1554.2,-30.77 1553.7,-32.6 1552.91,-34.44 1551.83,-36.29 1550.48,-38.13 1548.88,-39.97 1547.03,-41.79 1544.94,-43.6 1542.64,-45.38 1540.13,-47.13 1537.43,-48.86 1534.56,-50.54 1531.52,-52.19 1528.33,-53.78 1525.01,-55.33 1521.56,-56.82 1518.01,-58.26 1514.35,-59.63 1510.6,-60.94 1506.78,-62.17 1502.89,-63.33 1498.94,-64.42 1494.93,-65.42 1490.88,-66.34 1486.79,-67.18 1482.68,-67.93 1478.53,-68.59 1474.36,-69.16 1470.18,-69.64 1465.98,-70.02 1461.77,-70.31 1457.56,-70.51 1453.34,-70.6 1449.12,-70.6 1444.9,-70.51 1440.68,-70.31 1436.47,-70.02 1432.28,-69.64 1428.09,-69.16 1423.92,-68.59 1419.78,-67.93 1415.66,-67.18 1411.57,-66.34 1407.52,-65.42 1403.52,-64.42 1399.57,-63.33 1395.67,-62.17 1391.85,-60.94 1388.1,-59.63 1384.45,-58.26 1380.89,-56.82 1377.44,-55.33 1374.12,-53.78 1370.93,-52.19 1367.9,-50.54 1365.02,-48.86 1362.32,-47.13 1359.82,-45.38 1357.51,-43.6 1355.43,-41.79 1353.58,-39.97 1351.97,-38.13 1350.62,-36.29 1349.55,-34.44 1348.75,-32.6 1348.25,-30.77 1348.06,-28.94 1348.18,-27.14 1348.62,-25.36 1349.38,-23.6 1350.48,-21.88 1351.91,-20.19 1353.69,-18.55 1355.8,-16.95 1358.24,-15.4 1361.03,-13.91 1364.13,-12.48 1367.57,-11.1 1371.31,-9.8 1375.36,-8.57 1379.7,-7.4 1384.32,-6.32 1389.2,-5.31 1394.33,-4.39 1399.68,-3.55 1405.24,-2.8 1410.98,-2.14 1416.89,-1.57 1422.94,-1.09 1429.1,-0.71 1435.36,-0.42 1441.68,-0.23 1448.04,-0.13 1454.41,-0.13 1460.77,-0.23"/>
<text text-anchor="start" x="1422.06" y="-45.17" font-family="Times,serif" font-size="14.00">C1326524</text>
<text text-anchor="start" x="1390.78" y="-31.17" font-family="Times,serif" font-size="14.00">stomatal conductance</text>
<text text-anchor="start" x="1428.28" y="-17.17" font-family="Times,serif" font-size="14.00">201:202</text>
</g>
<!-- id_27593461_DOT_10&#45;&#45;id_27593461_DOT_22 -->
<g id="edge22" class="edge">
<title>id_27593461_DOT_10&#45;&#45;id_27593461_DOT_22</title>
<path fill="none" stroke="black" stroke-dasharray="1,5" d="M1509.38,-389C1497.24,-315.16 1469.22,-144.77 1457.05,-70.76"/>
<text text-anchor="middle" x="1456.96" y="-232.68" font-family="Times,serif" font-size="14.00">0.819228</text>
</g>
<!-- id_27593461_DOT_11 -->
<g id="node11" class="node">
<title>id_27593461_DOT_11</title>
<polygon fill="chartreuse" stroke="chartreuse" points="1916,-1002.27 1919.43,-1002.47 1922.82,-1002.76 1926.16,-1003.14 1929.44,-1003.62 1932.65,-1004.19 1935.76,-1004.85 1938.78,-1005.6 1941.68,-1006.44 1944.46,-1007.36 1947.11,-1008.36 1949.61,-1009.45 1951.97,-1010.61 1954.16,-1011.84 1956.2,-1013.15 1958.06,-1014.52 1959.74,-1015.96 1961.25,-1017.45 1962.58,-1019 1963.72,-1020.59 1964.69,-1022.24 1965.46,-1023.92 1966.06,-1025.65 1966.47,-1027.4 1966.71,-1029.18 1966.78,-1030.99 1966.67,-1032.81 1966.4,-1034.65 1965.97,-1036.49 1965.39,-1038.34 1964.66,-1040.18 1963.78,-1042.01 1962.78,-1043.84 1961.65,-1045.64 1960.4,-1047.42 1959.04,-1049.18 1957.58,-1050.9 1956.02,-1052.59 1954.37,-1054.23 1952.64,-1055.83 1950.84,-1057.38 1948.97,-1058.87 1947.04,-1060.3 1945.06,-1061.68 1943.03,-1062.98 1940.95,-1064.21 1938.84,-1065.38 1936.7,-1066.46 1934.52,-1067.47 1932.33,-1068.39 1930.11,-1069.23 1927.88,-1069.98 1925.63,-1070.64 1923.37,-1071.21 1921.1,-1071.69 1918.82,-1072.07 1916.54,-1072.36 1914.25,-1072.55 1911.96,-1072.65 1909.68,-1072.65 1907.39,-1072.55 1905.1,-1072.36 1902.82,-1072.07 1900.54,-1071.69 1898.27,-1071.21 1896.01,-1070.64 1893.76,-1069.98 1891.53,-1069.23 1889.31,-1068.39 1887.12,-1067.47 1884.94,-1066.46 1882.8,-1065.38 1880.69,-1064.21 1878.62,-1062.98 1876.58,-1061.68 1874.6,-1060.3 1872.67,-1058.87 1870.8,-1057.38 1869,-1055.83 1867.27,-1054.23 1865.62,-1052.59 1864.06,-1050.9 1862.6,-1049.18 1861.24,-1047.42 1859.99,-1045.64 1858.86,-1043.84 1857.86,-1042.01 1856.99,-1040.18 1856.25,-1038.34 1855.67,-1036.49 1855.24,-1034.65 1854.97,-1032.81 1854.86,-1030.99 1854.93,-1029.18 1855.17,-1027.4 1855.58,-1025.65 1856.18,-1023.92 1856.96,-1022.24 1857.92,-1020.59 1859.06,-1019 1860.39,-1017.45 1861.9,-1015.96 1863.58,-1014.52 1865.44,-1013.15 1867.48,-1011.84 1869.67,-1010.61 1872.03,-1009.45 1874.53,-1008.36 1877.18,-1007.36 1879.96,-1006.44 1882.86,-1005.6 1885.88,-1004.85 1888.99,-1004.19 1892.2,-1003.62 1895.48,-1003.14 1898.82,-1002.76 1902.21,-1002.47 1905.64,-1002.27 1909.09,-1002.18 1912.55,-1002.18 1916,-1002.27"/>
<text text-anchor="start" x="1881.65" y="-1047.21" font-family="Times,serif" font-size="14.00">C0043188</text>
<text text-anchor="start" x="1897.21" y="-1033.21" font-family="Times,serif" font-size="14.00">wine</text>
<text text-anchor="start" x="1894.88" y="-1019.21" font-family="Times,serif" font-size="14.00">88:88</text>
</g>
<!-- id_27593461_DOT_11&#45;&#45;id_27593461_DOT_21 -->
<g id="edge23" class="edge">
<title>id_27593461_DOT_11&#45;&#45;id_27593461_DOT_21</title>
<path fill="none" stroke="black" stroke-dasharray="1,5" d="M1864.78,-1013.27C1792.11,-975.17 1652.1,-901.75 1583.78,-865.93"/>
<text text-anchor="middle" x="1698.03" y="-942.4" font-family="Times,serif" font-size="14.00">0.703876</text>
</g>
<!-- id_27593461_DOT_11&#45;&#45;id_27593461_DOT_26 -->
<g id="edge24" class="edge">
<title>id_27593461_DOT_11&#45;&#45;id_27593461_DOT_26</title>
<path fill="none" stroke="black" stroke-dasharray="1,5" d="M1953.97,-1054.84C2022.84,-1082.66 2157.3,-1136.97 2230.4,-1166.49"/>
<text text-anchor="middle" x="2065.93" y="-1113.47" font-family="Times,serif" font-size="14.00">0.738955</text>
</g>
<!-- id_27593461_DOT_12 -->
<g id="node12" class="node">
<title>id_27593461_DOT_12</title>
<polygon fill="coral" stroke="coral" points="3441,-3498.26 3444.43,-3498.46 3447.82,-3498.74 3451.16,-3499.13 3454.44,-3499.61 3457.65,-3500.18 3460.76,-3500.84 3463.78,-3501.59 3466.68,-3502.43 3469.46,-3503.35 3472.11,-3504.35 3474.61,-3505.44 3476.97,-3506.6 3479.16,-3507.83 3481.2,-3509.14 3483.06,-3510.51 3484.74,-3511.94 3486.25,-3513.44 3487.58,-3514.98 3488.72,-3516.58 3489.69,-3518.23 3490.46,-3519.91 3491.06,-3521.64 3491.48,-3523.39 3491.71,-3525.17 3491.78,-3526.98 3491.67,-3528.8 3491.4,-3530.64 3490.97,-3532.48 3490.39,-3534.32 3489.66,-3536.17 3488.78,-3538 3487.78,-3539.82 3486.65,-3541.63 3485.4,-3543.41 3484.04,-3545.17 3482.58,-3546.89 3481.02,-3548.58 3479.37,-3550.22 3477.64,-3551.82 3475.84,-3553.37 3473.97,-3554.86 3472.04,-3556.29 3470.06,-3557.66 3468.03,-3558.97 3465.95,-3560.2 3463.84,-3561.37 3461.7,-3562.45 3459.52,-3563.45 3457.33,-3564.38 3455.11,-3565.22 3452.88,-3565.97 3450.63,-3566.63 3448.37,-3567.2 3446.1,-3567.68 3443.82,-3568.06 3441.54,-3568.35 3439.25,-3568.54 3436.97,-3568.64 3434.68,-3568.64 3432.39,-3568.54 3430.1,-3568.35 3427.82,-3568.06 3425.54,-3567.68 3423.27,-3567.2 3421.01,-3566.63 3418.76,-3565.97 3416.53,-3565.22 3414.31,-3564.38 3412.12,-3563.45 3409.94,-3562.45 3407.8,-3561.37 3405.69,-3560.2 3403.62,-3558.97 3401.58,-3557.66 3399.6,-3556.29 3397.67,-3554.86 3395.8,-3553.37 3394,-3551.82 3392.27,-3550.22 3390.62,-3548.58 3389.06,-3546.89 3387.6,-3545.17 3386.24,-3543.41 3384.99,-3541.63 3383.86,-3539.82 3382.86,-3538 3381.99,-3536.17 3381.25,-3534.32 3380.67,-3532.48 3380.24,-3530.64 3379.97,-3528.8 3379.86,-3526.98 3379.93,-3525.17 3380.17,-3523.39 3380.58,-3521.64 3381.18,-3519.91 3381.96,-3518.23 3382.92,-3516.58 3384.06,-3514.98 3385.39,-3513.44 3386.9,-3511.94 3388.58,-3510.51 3390.45,-3509.14 3392.48,-3507.83 3394.67,-3506.6 3397.03,-3505.44 3399.53,-3504.35 3402.18,-3503.35 3404.96,-3502.43 3407.86,-3501.59 3410.88,-3500.84 3413.99,-3500.18 3417.2,-3499.61 3420.48,-3499.13 3423.82,-3498.74 3427.21,-3498.46 3430.64,-3498.26 3434.09,-3498.17 3437.55,-3498.17 3441,-3498.26"/>
<text text-anchor="start" x="3406.65" y="-3543.2" font-family="Times,serif" font-size="14.00">C1522642</text>
<text text-anchor="start" x="3416.38" y="-3529.2" font-family="Times,serif" font-size="14.00">Clones</text>
<text text-anchor="start" x="3419.88" y="-3515.2" font-family="Times,serif" font-size="14.00">91:91</text>
</g>
<!-- id_27593461_DOT_17 -->
<g id="node17" class="node">
<title>id_27593461_DOT_17</title>
<polygon fill="coral" stroke="coral" points="3466.69,-3118.14 3470.11,-3118.34 3473.51,-3118.63 3476.85,-3119.01 3480.13,-3119.49 3483.34,-3120.06 3486.45,-3120.72 3489.47,-3121.47 3492.37,-3122.31 3495.15,-3123.23 3497.8,-3124.23 3500.3,-3125.32 3502.66,-3126.48 3504.85,-3127.72 3506.88,-3129.02 3508.74,-3130.39 3510.43,-3131.83 3511.94,-3133.32 3513.27,-3134.87 3514.41,-3136.46 3515.37,-3138.11 3516.15,-3139.79 3516.75,-3141.52 3517.16,-3143.27 3517.4,-3145.05 3517.46,-3146.86 3517.36,-3148.68 3517.09,-3150.52 3516.66,-3152.36 3516.07,-3154.21 3515.34,-3156.05 3514.47,-3157.88 3513.47,-3159.71 3512.34,-3161.51 3511.09,-3163.29 3509.73,-3165.05 3508.26,-3166.77 3506.7,-3168.46 3505.06,-3170.1 3503.33,-3171.7 3501.53,-3173.25 3499.66,-3174.74 3497.73,-3176.17 3495.74,-3177.55 3493.71,-3178.85 3491.64,-3180.09 3489.53,-3181.25 3487.38,-3182.33 3485.21,-3183.34 3483.01,-3184.26 3480.8,-3185.1 3478.56,-3185.85 3476.32,-3186.51 3474.06,-3187.08 3471.79,-3187.56 3469.51,-3187.94 3467.23,-3188.23 3464.94,-3188.42 3462.65,-3188.52 3460.36,-3188.52 3458.07,-3188.42 3455.79,-3188.23 3453.51,-3187.94 3451.23,-3187.56 3448.96,-3187.08 3446.7,-3186.51 3444.45,-3185.85 3442.22,-3185.1 3440,-3184.26 3437.8,-3183.34 3435.63,-3182.33 3433.49,-3181.25 3431.38,-3180.09 3429.3,-3178.85 3427.27,-3177.55 3425.29,-3176.17 3423.36,-3174.74 3421.49,-3173.25 3419.69,-3171.7 3417.96,-3170.1 3416.31,-3168.46 3414.75,-3166.77 3413.29,-3165.05 3411.93,-3163.29 3410.68,-3161.51 3409.55,-3159.71 3408.54,-3157.88 3407.67,-3156.05 3406.94,-3154.21 3406.36,-3152.36 3405.93,-3150.52 3405.66,-3148.68 3405.55,-3146.86 3405.61,-3145.05 3405.85,-3143.27 3406.27,-3141.52 3406.86,-3139.79 3407.64,-3138.11 3408.6,-3136.46 3409.75,-3134.87 3411.08,-3133.32 3412.58,-3131.83 3414.27,-3130.39 3416.13,-3129.02 3418.16,-3127.72 3420.36,-3126.48 3422.71,-3125.32 3425.22,-3124.23 3427.87,-3123.23 3430.65,-3122.31 3433.55,-3121.47 3436.56,-3120.72 3439.68,-3120.06 3442.88,-3119.49 3446.16,-3119.01 3449.51,-3118.63 3452.9,-3118.34 3456.33,-3118.14 3459.78,-3118.05 3463.24,-3118.05 3466.69,-3118.14"/>
<text text-anchor="start" x="3432.34" y="-3163.08" font-family="Times,serif" font-size="14.00">C1522642</text>
<text text-anchor="start" x="3443.62" y="-3149.08" font-family="Times,serif" font-size="14.00">clones</text>
<text text-anchor="start" x="3438.56" y="-3135.08" font-family="Times,serif" font-size="14.00">149:149</text>
</g>
<!-- id_27593461_DOT_12&#45;&#45;id_27593461_DOT_17 -->
<g id="edge9" class="edge">
<title>id_27593461_DOT_12&#45;&#45;id_27593461_DOT_17</title>
<path fill="none" stroke="black" d="M3438.21,-3497.98C3443.12,-3425.46 3454.24,-3260.81 3459.13,-3188.47"/>
<text text-anchor="middle" x="3422.42" y="-3346.03" font-family="Times,serif" font-size="14.00">0.183984</text>
</g>
<!-- id_27593461_DOT_16 -->
<g id="node16" class="node">
<title>id_27593461_DOT_16</title>
<polygon fill="bisque" stroke="bisque" points="3442.71,-1549.16 3446.14,-1549.35 3449.53,-1549.64 3452.88,-1550.02 3456.16,-1550.5 3459.36,-1551.07 3462.48,-1551.73 3465.49,-1552.48 3468.4,-1553.32 3471.18,-1554.24 3473.82,-1555.25 3476.33,-1556.33 3478.68,-1557.5 3480.88,-1558.73 3482.91,-1560.04 3484.77,-1561.41 3486.46,-1562.84 3487.97,-1564.33 3489.29,-1565.88 3490.44,-1567.48 3491.4,-1569.12 3492.18,-1570.81 3492.77,-1572.53 3493.19,-1574.29 3493.43,-1576.07 3493.49,-1577.87 3493.38,-1579.7 3493.11,-1581.53 3492.68,-1583.38 3492.1,-1585.22 3491.37,-1587.06 3490.5,-1588.9 3489.49,-1590.72 3488.36,-1592.53 3487.11,-1594.31 3485.75,-1596.06 3484.29,-1597.79 3482.73,-1599.47 3481.08,-1601.12 3479.35,-1602.71 3477.55,-1604.26 3475.68,-1605.76 3473.75,-1607.19 3471.77,-1608.56 3469.74,-1609.87 3467.66,-1611.1 3465.55,-1612.26 3463.41,-1613.35 3461.24,-1614.35 3459.04,-1615.27 3456.82,-1616.11 3454.59,-1616.86 3452.34,-1617.52 3450.08,-1618.09 3447.81,-1618.57 3445.54,-1618.96 3443.25,-1619.24 3440.97,-1619.44 3438.68,-1619.53 3436.39,-1619.53 3434.1,-1619.44 3431.81,-1619.24 3429.53,-1618.96 3427.25,-1618.57 3424.98,-1618.09 3422.72,-1617.52 3420.48,-1616.86 3418.24,-1616.11 3416.03,-1615.27 3413.83,-1614.35 3411.66,-1613.35 3409.51,-1612.26 3407.4,-1611.1 3405.33,-1609.87 3403.3,-1608.56 3401.31,-1607.19 3399.38,-1605.76 3397.51,-1604.26 3395.71,-1602.71 3393.98,-1601.12 3392.34,-1599.47 3390.78,-1597.79 3389.31,-1596.06 3387.95,-1594.31 3386.7,-1592.53 3385.57,-1590.72 3384.57,-1588.9 3383.7,-1587.06 3382.97,-1585.22 3382.38,-1583.38 3381.95,-1581.53 3381.68,-1579.7 3381.58,-1577.87 3381.64,-1576.07 3381.88,-1574.29 3382.29,-1572.53 3382.89,-1570.81 3383.67,-1569.12 3384.63,-1567.48 3385.77,-1565.88 3387.1,-1564.33 3388.61,-1562.84 3390.3,-1561.41 3392.16,-1560.04 3394.19,-1558.73 3396.39,-1557.5 3398.74,-1556.33 3401.24,-1555.25 3403.89,-1554.24 3406.67,-1553.32 3409.57,-1552.48 3412.59,-1551.73 3415.71,-1551.07 3418.91,-1550.5 3422.19,-1550.02 3425.53,-1549.64 3428.93,-1549.35 3432.36,-1549.16 3435.8,-1549.06 3439.26,-1549.06 3442.71,-1549.16"/>
<text text-anchor="start" x="3408.36" y="-1594.1" font-family="Times,serif" font-size="14.00">C0032098</text>
<text text-anchor="start" x="3413.43" y="-1580.1" font-family="Times,serif" font-size="14.00">cultivars</text>
<text text-anchor="start" x="3414.59" y="-1566.1" font-family="Times,serif" font-size="14.00">142:142</text>
</g>
<!-- id_27593461_DOT_13&#45;&#45;id_27593461_DOT_16 -->
<g id="edge10" class="edge">
<title>id_27593461_DOT_13&#45;&#45;id_27593461_DOT_16</title>
<path fill="none" stroke="black" d="M3542.01,-1963.22C3520.47,-1885.08 3468.58,-1696.9 3447.1,-1618.99"/>
<text text-anchor="middle" x="3468.31" y="-1793.9" font-family="Times,serif" font-size="14.00">0.013867</text>
</g>
<!-- id_27593461_DOT_24 -->
<g id="node24" class="node">
<title>id_27593461_DOT_24</title>
<polygon fill="bisque" stroke="bisque" points="3757.82,-1252.84 3761.25,-1253.04 3764.64,-1253.33 3767.98,-1253.71 3771.26,-1254.19 3774.47,-1254.76 3777.58,-1255.42 3780.6,-1256.17 3783.5,-1257.01 3786.28,-1257.93 3788.93,-1258.94 3791.43,-1260.02 3793.79,-1261.18 3795.98,-1262.42 3798.02,-1263.72 3799.88,-1265.09 3801.56,-1266.53 3803.07,-1268.02 3804.4,-1269.57 3805.54,-1271.16 3806.51,-1272.81 3807.28,-1274.49 3807.88,-1276.22 3808.29,-1277.97 3808.53,-1279.76 3808.6,-1281.56 3808.49,-1283.38 3808.22,-1285.22 3807.79,-1287.06 3807.21,-1288.91 3806.48,-1290.75 3805.6,-1292.58 3804.6,-1294.41 3803.47,-1296.21 3802.22,-1297.99 3800.86,-1299.75 3799.4,-1301.47 3797.84,-1303.16 3796.19,-1304.8 3794.46,-1306.4 3792.66,-1307.95 3790.79,-1309.44 3788.86,-1310.87 3786.88,-1312.25 3784.85,-1313.55 3782.77,-1314.79 3780.66,-1315.95 3778.52,-1317.03 3776.34,-1318.04 3774.15,-1318.96 3771.93,-1319.8 3769.7,-1320.55 3767.45,-1321.21 3765.19,-1321.78 3762.92,-1322.26 3760.64,-1322.64 3758.36,-1322.93 3756.07,-1323.12 3753.78,-1323.22 3751.5,-1323.22 3749.21,-1323.12 3746.92,-1322.93 3744.64,-1322.64 3742.36,-1322.26 3740.09,-1321.78 3737.83,-1321.21 3735.58,-1320.55 3733.35,-1319.8 3731.13,-1318.96 3728.94,-1318.04 3726.76,-1317.03 3724.62,-1315.95 3722.51,-1314.79 3720.43,-1313.55 3718.4,-1312.25 3716.42,-1310.87 3714.49,-1309.44 3712.62,-1307.95 3710.82,-1306.4 3709.09,-1304.8 3707.44,-1303.16 3705.88,-1301.47 3704.42,-1299.75 3703.06,-1297.99 3701.81,-1296.21 3700.68,-1294.41 3699.68,-1292.58 3698.8,-1290.75 3698.07,-1288.91 3697.49,-1287.06 3697.06,-1285.22 3696.79,-1283.38 3696.68,-1281.56 3696.75,-1279.76 3696.99,-1277.97 3697.4,-1276.22 3698,-1274.49 3698.77,-1272.81 3699.74,-1271.16 3700.88,-1269.57 3702.21,-1268.02 3703.72,-1266.53 3705.4,-1265.09 3707.26,-1263.72 3709.3,-1262.42 3711.49,-1261.18 3713.85,-1260.02 3716.35,-1258.94 3719,-1257.93 3721.78,-1257.01 3724.68,-1256.17 3727.7,-1255.42 3730.81,-1254.76 3734.02,-1254.19 3737.3,-1253.71 3740.64,-1253.33 3744.03,-1253.04 3747.46,-1252.84 3750.91,-1252.75 3754.37,-1252.75 3757.82,-1252.84"/>
<text text-anchor="start" x="3723.47" y="-1297.78" font-family="Times,serif" font-size="14.00">C0032098</text>
<text text-anchor="start" x="3728.54" y="-1283.78" font-family="Times,serif" font-size="14.00">cultivars</text>
<text text-anchor="start" x="3729.7" y="-1269.78" font-family="Times,serif" font-size="14.00">208:208</text>
</g>
<!-- id_27593461_DOT_14&#45;&#45;id_27593461_DOT_24 -->
<g id="edge11" class="edge">
<title>id_27593461_DOT_14&#45;&#45;id_27593461_DOT_24</title>
<path fill="none" stroke="black" d="M4016.57,-1039.24C3960.13,-1092.43 3842.63,-1203.17 3785.39,-1257.12"/>
<text text-anchor="middle" x="3874.99" y="-1150.98" font-family="Times,serif" font-size="14.00">0.115804</text>
</g>
<!-- id_27593461_DOT_15&#45;&#45;id_27593461_DOT_21 -->
<g id="edge12" class="edge">
<title>id_27593461_DOT_15&#45;&#45;id_27593461_DOT_21</title>
<path fill="none" stroke="black" d="M1216.28,-1000.21C1290.93,-964.95 1433.53,-897.61 1503.53,-864.54"/>
<text text-anchor="middle" x="1333.91" y="-935.18" font-family="Times,serif" font-size="14.00">0.011006</text>
</g>
<!-- id_27593461_DOT_16&#45;&#45;id_27593461_DOT_18 -->
<g id="edge25" class="edge">
<title>id_27593461_DOT_16&#45;&#45;id_27593461_DOT_18</title>
<path fill="none" stroke="black" stroke-dasharray="1,5" d="M3385.18,-1566.27C3311.79,-1541 3178.44,-1495.08 3098.82,-1467.67"/>
<text text-anchor="middle" x="3215.75" y="-1519.77" font-family="Times,serif" font-size="14.00">0.479976</text>
</g>
<!-- id_27593461_DOT_16&#45;&#45;id_27593461_DOT_24 -->
<g id="edge13" class="edge">
<title>id_27593461_DOT_16&#45;&#45;id_27593461_DOT_24</title>
<path fill="none" stroke="black" d="M3470.07,-1553.7C3531.71,-1495.74 3664.6,-1370.77 3723.51,-1315.38"/>
<text text-anchor="middle" x="3570.54" y="-1437.34" font-family="Times,serif" font-size="14.00">0.028670</text>
</g>
<!-- id_27593461_DOT_17&#45;&#45;id_27593461_DOT_25 -->
<g id="edge14" class="edge">
<title>id_27593461_DOT_17&#45;&#45;id_27593461_DOT_25</title>
<path fill="none" stroke="black" d="M3468.58,-3117.92C3483.34,-3044.14 3517.25,-2874.59 3531.92,-2801.24"/>
<text text-anchor="middle" x="3474.25" y="-2962.38" font-family="Times,serif" font-size="14.00">0.011718</text>
</g>
</g>
</svg>
