<?xml version="1.0" encoding="UTF-8" standalone="no"?>
<!DOCTYPE svg PUBLIC "-//W3C//DTD SVG 1.1//EN"
 "http://www.w3.org/Graphics/SVG/1.1/DTD/svg11.dtd">
<!-- Generated by graphviz version 2.42.3 (20191010.1750)
 -->
<!-- Title: MST Pages: 1 -->
<svg width="5518pt" height="4295pt"
 viewBox="0.00 0.00 5517.51 4295.02" xmlns="http://www.w3.org/2000/svg" xmlns:xlink="http://www.w3.org/1999/xlink">
<g id="graph0" class="graph" transform="scale(1 1) rotate(0) translate(4 4291.02)">
<title>MST</title>
<polygon fill="white" stroke="transparent" points="-4,4 -4,-4291.02 5513.51,-4291.02 5513.51,4 -4,4"/>
<!-- id_27628933_DOT_1 -->
<g id="node1" class="node">
<title>id_27628933_DOT_1</title>
<polygon fill="aquamarine" stroke="aquamarine" points="340.01,-3077.59 348.06,-3077.79 356.03,-3078.08 363.88,-3078.46 371.58,-3078.94 379.11,-3079.51 386.43,-3080.17 393.51,-3080.92 400.33,-3081.76 406.86,-3082.68 413.07,-3083.68 418.95,-3084.77 424.48,-3085.93 429.64,-3087.17 434.41,-3088.47 438.78,-3089.84 442.74,-3091.28 446.29,-3092.77 449.4,-3094.32 452.09,-3095.91 454.35,-3097.56 456.18,-3099.24 457.57,-3100.97 458.55,-3102.72 459.11,-3104.5 459.26,-3106.31 459.01,-3108.13 458.38,-3109.97 457.37,-3111.81 455.99,-3113.66 454.28,-3115.5 452.23,-3117.33 449.87,-3119.16 447.22,-3120.96 444.28,-3122.74 441.09,-3124.5 437.65,-3126.22 433.99,-3127.91 430.12,-3129.55 426.06,-3131.15 421.83,-3132.7 417.44,-3134.19 412.91,-3135.62 408.25,-3137 403.48,-3138.3 398.61,-3139.54 393.65,-3140.7 388.62,-3141.78 383.52,-3142.79 378.36,-3143.71 373.15,-3144.55 367.91,-3145.3 362.63,-3145.96 357.32,-3146.53 351.99,-3147.01 346.64,-3147.39 341.28,-3147.68 335.91,-3147.87 330.54,-3147.97 325.16,-3147.97 319.79,-3147.87 314.42,-3147.68 309.06,-3147.39 303.71,-3147.01 298.38,-3146.53 293.07,-3145.96 287.79,-3145.3 282.54,-3144.55 277.34,-3143.71 272.18,-3142.79 267.08,-3141.78 262.04,-3140.7 257.09,-3139.54 252.22,-3138.3 247.44,-3137 242.79,-3135.62 238.26,-3134.19 233.87,-3132.7 229.63,-3131.15 225.57,-3129.55 221.71,-3127.91 218.04,-3126.22 214.61,-3124.5 211.41,-3122.74 208.48,-3120.96 205.82,-3119.16 203.46,-3117.33 201.42,-3115.5 199.7,-3113.66 198.33,-3111.81 197.32,-3109.97 196.68,-3108.13 196.44,-3106.31 196.59,-3104.5 197.15,-3102.72 198.12,-3100.97 199.52,-3099.24 201.35,-3097.56 203.61,-3095.91 206.29,-3094.32 209.41,-3092.77 212.95,-3091.28 216.91,-3089.84 221.29,-3088.47 226.06,-3087.17 231.21,-3085.93 236.74,-3084.77 242.62,-3083.68 248.84,-3082.68 255.37,-3081.76 262.19,-3080.92 269.27,-3080.17 276.59,-3079.51 284.11,-3078.94 291.82,-3078.46 299.67,-3078.08 307.64,-3077.79 315.69,-3077.59 323.79,-3077.5 331.91,-3077.5 340.01,-3077.59"/>
<text text-anchor="start" x="298.68" y="-3122.53" font-family="Times,serif" font-size="14.00">C0063083</text>
<text text-anchor="start" x="248.73" y="-3108.53" font-family="Times,serif" font-size="14.00">Double &#45; Network Hydrogel</text>
<text text-anchor="start" x="318.9" y="-3094.53" font-family="Times,serif" font-size="14.00">0:3</text>
</g>
<!-- id_27628933_DOT_12 -->
<g id="node12" class="node">
<title>id_27628933_DOT_12</title>
<polygon fill="aquamarine" stroke="aquamarine" points="709.54,-3244.91 712.97,-3245.11 716.37,-3245.4 719.71,-3245.78 722.99,-3246.26 726.19,-3246.83 729.31,-3247.49 732.33,-3248.24 735.23,-3249.08 738.01,-3250 740.66,-3251.01 743.16,-3252.09 745.51,-3253.25 747.71,-3254.49 749.74,-3255.79 751.6,-3257.16 753.29,-3258.6 754.8,-3260.09 756.13,-3261.64 757.27,-3263.24 758.23,-3264.88 759.01,-3266.57 759.61,-3268.29 760.02,-3270.04 760.26,-3271.83 760.32,-3273.63 760.22,-3275.45 759.95,-3277.29 759.52,-3279.13 758.93,-3280.98 758.2,-3282.82 757.33,-3284.65 756.33,-3286.48 755.2,-3288.28 753.95,-3290.06 752.59,-3291.82 751.12,-3293.54 749.56,-3295.23 747.92,-3296.87 746.19,-3298.47 744.39,-3300.02 742.52,-3301.51 740.59,-3302.95 738.6,-3304.32 736.57,-3305.62 734.5,-3306.86 732.39,-3308.02 730.24,-3309.1 728.07,-3310.11 725.87,-3311.03 723.66,-3311.87 721.42,-3312.62 719.18,-3313.28 716.92,-3313.85 714.65,-3314.33 712.37,-3314.71 710.09,-3315 707.8,-3315.19 705.51,-3315.29 703.22,-3315.29 700.93,-3315.19 698.65,-3315 696.36,-3314.71 694.09,-3314.33 691.82,-3313.85 689.56,-3313.28 687.31,-3312.62 685.08,-3311.87 682.86,-3311.03 680.66,-3310.11 678.49,-3309.1 676.35,-3308.02 674.24,-3306.86 672.16,-3305.62 670.13,-3304.32 668.15,-3302.95 666.22,-3301.51 664.35,-3300.02 662.55,-3298.47 660.82,-3296.87 659.17,-3295.23 657.61,-3293.54 656.15,-3291.82 654.79,-3290.06 653.54,-3288.28 652.41,-3286.48 651.4,-3284.65 650.53,-3282.82 649.8,-3280.98 649.22,-3279.13 648.79,-3277.29 648.52,-3275.45 648.41,-3273.63 648.47,-3271.83 648.71,-3270.04 649.13,-3268.29 649.72,-3266.57 650.5,-3264.88 651.46,-3263.24 652.61,-3261.64 653.93,-3260.09 655.44,-3258.6 657.13,-3257.16 658.99,-3255.79 661.02,-3254.49 663.22,-3253.25 665.57,-3252.09 668.08,-3251.01 670.72,-3250 673.5,-3249.08 676.41,-3248.24 679.42,-3247.49 682.54,-3246.83 685.74,-3246.26 689.02,-3245.78 692.37,-3245.4 695.76,-3245.11 699.19,-3244.91 702.64,-3244.82 706.1,-3244.82 709.54,-3244.91"/>
<text text-anchor="start" x="675.2" y="-3289.85" font-family="Times,serif" font-size="14.00">C0063083</text>
<text text-anchor="start" x="679.48" y="-3275.85" font-family="Times,serif" font-size="14.00">hydrogel</text>
<text text-anchor="start" x="688.42" y="-3261.85" font-family="Times,serif" font-size="14.00">99:99</text>
</g>
<!-- id_27628933_DOT_1&#45;&#45;id_27628933_DOT_12 -->
<g id="edge1" class="edge">
<title>id_27628933_DOT_1&#45;&#45;id_27628933_DOT_12</title>
<path fill="none" stroke="black" d="M391.72,-3141.12C466.31,-3174.26 588.04,-3228.36 655.5,-3258.34"/>
<text text-anchor="middle" x="497.36" y="-3202.53" font-family="Times,serif" font-size="14.00">0.055159</text>
</g>
<!-- id_27628933_DOT_2 -->
<g id="node2" class="node">
<title>id_27628933_DOT_2</title>
<polygon fill="bisque" stroke="bisque" points="3062.78,-3209.1 3066.46,-3209.3 3070.1,-3209.58 3073.7,-3209.97 3077.22,-3210.45 3080.66,-3211.02 3084.01,-3211.68 3087.25,-3212.43 3090.37,-3213.27 3093.36,-3214.19 3096.2,-3215.19 3098.89,-3216.28 3101.42,-3217.44 3103.78,-3218.67 3105.96,-3219.98 3107.96,-3221.35 3109.78,-3222.78 3111.4,-3224.28 3112.82,-3225.83 3114.05,-3227.42 3115.09,-3229.07 3115.92,-3230.75 3116.56,-3232.48 3117.01,-3234.23 3117.26,-3236.01 3117.33,-3237.82 3117.22,-3239.64 3116.93,-3241.48 3116.47,-3243.32 3115.84,-3245.16 3115.05,-3247.01 3114.12,-3248.84 3113.04,-3250.67 3111.82,-3252.47 3110.48,-3254.25 3109.02,-3256.01 3107.45,-3257.73 3105.77,-3259.42 3104,-3261.06 3102.15,-3262.66 3100.21,-3264.21 3098.2,-3265.7 3096.13,-3267.13 3094,-3268.51 3091.81,-3269.81 3089.59,-3271.04 3087.32,-3272.21 3085.01,-3273.29 3082.68,-3274.3 3080.32,-3275.22 3077.94,-3276.06 3075.54,-3276.81 3073.12,-3277.47 3070.69,-3278.04 3068.26,-3278.52 3065.81,-3278.9 3063.36,-3279.19 3060.9,-3279.38 3058.44,-3279.48 3055.98,-3279.48 3053.52,-3279.38 3051.07,-3279.19 3048.61,-3278.9 3046.17,-3278.52 3043.73,-3278.04 3041.3,-3277.47 3038.89,-3276.81 3036.49,-3276.06 3034.1,-3275.22 3031.74,-3274.3 3029.41,-3273.29 3027.11,-3272.21 3024.84,-3271.04 3022.61,-3269.81 3020.43,-3268.51 3018.3,-3267.13 3016.22,-3265.7 3014.21,-3264.21 3012.28,-3262.66 3010.42,-3261.06 3008.65,-3259.42 3006.98,-3257.73 3005.4,-3256.01 3003.94,-3254.25 3002.6,-3252.47 3001.39,-3250.67 3000.31,-3248.84 2999.37,-3247.01 2998.59,-3245.16 2997.96,-3243.32 2997.5,-3241.48 2997.2,-3239.64 2997.09,-3237.82 2997.16,-3236.01 2997.42,-3234.23 2997.86,-3232.48 2998.5,-3230.75 2999.34,-3229.07 3000.37,-3227.42 3001.6,-3225.83 3003.03,-3224.28 3004.65,-3222.78 3006.46,-3221.35 3008.46,-3219.98 3010.64,-3218.67 3013,-3217.44 3015.53,-3216.28 3018.22,-3215.19 3021.07,-3214.19 3024.05,-3213.27 3027.17,-3212.43 3030.41,-3211.68 3033.76,-3211.02 3037.2,-3210.45 3040.73,-3209.97 3044.32,-3209.58 3047.97,-3209.3 3051.65,-3209.1 3055.35,-3209.01 3059.07,-3209.01 3062.78,-3209.1"/>
<text text-anchor="start" x="3028.04" y="-3254.04" font-family="Times,serif" font-size="14.00">C3494260</text>
<text text-anchor="start" x="3025.33" y="-3240.04" font-family="Times,serif" font-size="14.00">Fabrication</text>
<text text-anchor="start" x="3041.27" y="-3226.04" font-family="Times,serif" font-size="14.00">12:12</text>
</g>
<!-- id_27628933_DOT_5 -->
<g id="node5" class="node">
<title>id_27628933_DOT_5</title>
<polygon fill="bisque" stroke="bisque" points="2975.23,-2804.71 2978.91,-2804.9 2982.56,-2805.19 2986.15,-2805.57 2989.67,-2806.05 2993.12,-2806.62 2996.46,-2807.28 2999.7,-2808.03 3002.82,-2808.87 3005.81,-2809.79 3008.65,-2810.8 3011.34,-2811.88 3013.87,-2813.05 3016.23,-2814.28 3018.42,-2815.59 3020.42,-2816.96 3022.23,-2818.39 3023.85,-2819.88 3025.27,-2821.43 3026.5,-2823.03 3027.54,-2824.67 3028.37,-2826.36 3029.01,-2828.08 3029.46,-2829.84 3029.72,-2831.62 3029.78,-2833.42 3029.67,-2835.25 3029.38,-2837.08 3028.92,-2838.93 3028.29,-2840.77 3027.51,-2842.61 3026.57,-2844.45 3025.49,-2846.27 3024.27,-2848.08 3022.93,-2849.86 3021.47,-2851.61 3019.9,-2853.34 3018.22,-2855.02 3016.45,-2856.67 3014.6,-2858.26 3012.66,-2859.81 3010.65,-2861.31 3008.58,-2862.74 3006.45,-2864.11 3004.27,-2865.42 3002.04,-2866.65 2999.77,-2867.81 2997.47,-2868.9 2995.13,-2869.9 2992.77,-2870.82 2990.39,-2871.66 2987.99,-2872.41 2985.57,-2873.07 2983.15,-2873.64 2980.71,-2874.12 2978.26,-2874.51 2975.81,-2874.79 2973.35,-2874.99 2970.89,-2875.08 2968.43,-2875.08 2965.98,-2874.99 2963.52,-2874.79 2961.07,-2874.51 2958.62,-2874.12 2956.18,-2873.64 2953.75,-2873.07 2951.34,-2872.41 2948.94,-2871.66 2946.56,-2870.82 2944.2,-2869.9 2941.86,-2868.9 2939.56,-2867.81 2937.29,-2866.65 2935.06,-2865.42 2932.88,-2864.11 2930.75,-2862.74 2928.67,-2861.31 2926.67,-2859.81 2924.73,-2858.26 2922.87,-2856.67 2921.1,-2855.02 2919.43,-2853.34 2917.86,-2851.61 2916.39,-2849.86 2915.05,-2848.08 2913.84,-2846.27 2912.76,-2844.45 2911.82,-2842.61 2911.04,-2840.77 2910.41,-2838.93 2909.95,-2837.08 2909.66,-2835.25 2909.54,-2833.42 2909.61,-2831.62 2909.87,-2829.84 2910.31,-2828.08 2910.95,-2826.36 2911.79,-2824.67 2912.82,-2823.03 2914.05,-2821.43 2915.48,-2819.88 2917.1,-2818.39 2918.91,-2816.96 2920.91,-2815.59 2923.09,-2814.28 2925.45,-2813.05 2927.98,-2811.88 2930.67,-2810.8 2933.52,-2809.79 2936.5,-2808.87 2939.62,-2808.03 2942.86,-2807.28 2946.21,-2806.62 2949.65,-2806.05 2953.18,-2805.57 2956.77,-2805.19 2960.42,-2804.9 2964.1,-2804.71 2967.81,-2804.61 2971.52,-2804.61 2975.23,-2804.71"/>
<text text-anchor="start" x="2940.49" y="-2849.65" font-family="Times,serif" font-size="14.00">C3494260</text>
<text text-anchor="start" x="2937.78" y="-2835.65" font-family="Times,serif" font-size="14.00">Fabrication</text>
<text text-anchor="start" x="2953.72" y="-2821.65" font-family="Times,serif" font-size="14.00">22:22</text>
</g>
<!-- id_27628933_DOT_2&#45;&#45;id_27628933_DOT_5 -->
<g id="edge2" class="edge">
<title>id_27628933_DOT_2&#45;&#45;id_27628933_DOT_5</title>
<path fill="none" stroke="black" d="M3049.6,-3209.06C3033,-3132.39 2993.73,-2950.99 2977.2,-2874.66"/>
<text text-anchor="middle" x="2987.15" y="-3044.66" font-family="Times,serif" font-size="14.00">0.009349</text>
</g>
<!-- id_27628933_DOT_32 -->
<g id="node32" class="node">
<title>id_27628933_DOT_32</title>
<polygon fill="darkslateblue" stroke="darkslateblue" points="3191.48,-3579.29 3194.87,-3579.48 3198.23,-3579.77 3201.54,-3580.15 3204.79,-3580.63 3207.96,-3581.2 3211.05,-3581.86 3214.04,-3582.61 3216.91,-3583.45 3219.66,-3584.37 3222.29,-3585.38 3224.77,-3586.46 3227.1,-3587.62 3229.27,-3588.86 3231.28,-3590.16 3233.13,-3591.54 3234.8,-3592.97 3236.29,-3594.46 3237.61,-3596.01 3238.74,-3597.61 3239.69,-3599.25 3240.46,-3600.94 3241.05,-3602.66 3241.46,-3604.42 3241.7,-3606.2 3241.76,-3608 3241.66,-3609.83 3241.39,-3611.66 3240.96,-3613.5 3240.38,-3615.35 3239.66,-3617.19 3238.8,-3619.03 3237.8,-3620.85 3236.68,-3622.66 3235.45,-3624.44 3234.1,-3626.19 3232.65,-3627.92 3231.11,-3629.6 3229.48,-3631.25 3227.76,-3632.84 3225.98,-3634.39 3224.13,-3635.88 3222.22,-3637.32 3220.25,-3638.69 3218.24,-3639.99 3216.19,-3641.23 3214.1,-3642.39 3211.97,-3643.48 3209.82,-3644.48 3207.65,-3645.4 3205.45,-3646.24 3203.24,-3646.99 3201.01,-3647.65 3198.78,-3648.22 3196.53,-3648.7 3194.27,-3649.08 3192.01,-3649.37 3189.75,-3649.57 3187.48,-3649.66 3185.22,-3649.66 3182.95,-3649.57 3180.68,-3649.37 3178.42,-3649.08 3176.17,-3648.7 3173.92,-3648.22 3171.68,-3647.65 3169.46,-3646.99 3167.25,-3646.24 3165.05,-3645.4 3162.88,-3644.48 3160.72,-3643.48 3158.6,-3642.39 3156.51,-3641.23 3154.46,-3639.99 3152.44,-3638.69 3150.48,-3637.32 3148.57,-3635.88 3146.72,-3634.39 3144.93,-3632.84 3143.22,-3631.25 3141.59,-3629.6 3140.05,-3627.92 3138.6,-3626.19 3137.25,-3624.44 3136.01,-3622.66 3134.89,-3620.85 3133.9,-3619.03 3133.04,-3617.19 3132.31,-3615.35 3131.73,-3613.5 3131.31,-3611.66 3131.04,-3609.83 3130.94,-3608 3131,-3606.2 3131.23,-3604.42 3131.65,-3602.66 3132.24,-3600.94 3133.01,-3599.25 3133.96,-3597.61 3135.09,-3596.01 3136.41,-3594.46 3137.9,-3592.97 3139.57,-3591.54 3141.41,-3590.16 3143.43,-3588.86 3145.6,-3587.62 3147.93,-3586.46 3150.41,-3585.38 3153.03,-3584.37 3155.79,-3583.45 3158.66,-3582.61 3161.65,-3581.86 3164.73,-3581.2 3167.91,-3580.63 3171.16,-3580.15 3174.47,-3579.77 3177.83,-3579.48 3181.22,-3579.29 3184.64,-3579.19 3188.06,-3579.19 3191.48,-3579.29"/>
<text text-anchor="start" x="3157.69" y="-3624.23" font-family="Times,serif" font-size="14.00">C0087111</text>
<text text-anchor="start" x="3159.92" y="-3610.23" font-family="Times,serif" font-size="14.00">treatment</text>
<text text-anchor="start" x="3163.4" y="-3596.23" font-family="Times,serif" font-size="14.00">217:217</text>
</g>
<!-- id_27628933_DOT_2&#45;&#45;id_27628933_DOT_32 -->
<g id="edge14" class="edge">
<title>id_27628933_DOT_2&#45;&#45;id_27628933_DOT_32</title>
<path fill="none" stroke="black" stroke-dasharray="1,5" d="M3069.13,-3278.4C3093.64,-3348.66 3149.46,-3508.67 3174.18,-3579.54"/>
<text text-anchor="middle" x="3095.4" y="-3431.77" font-family="Times,serif" font-size="14.00">0.770123</text>
</g>
<!-- id_27628933_DOT_3 -->
<g id="node3" class="node">
<title>id_27628933_DOT_3</title>
<polygon fill="blue" stroke="blue" points="5063.41,-1608.76 5066.97,-1608.95 5070.49,-1609.24 5073.96,-1609.63 5077.36,-1610.1 5080.69,-1610.67 5083.92,-1611.33 5087.05,-1612.09 5090.06,-1612.92 5092.94,-1613.85 5095.69,-1614.85 5098.29,-1615.94 5100.73,-1617.1 5103.01,-1618.33 5105.12,-1619.64 5107.05,-1621.01 5108.8,-1622.44 5110.36,-1623.93 5111.74,-1625.48 5112.93,-1627.08 5113.92,-1628.72 5114.73,-1630.41 5115.35,-1632.13 5115.78,-1633.89 5116.03,-1635.67 5116.09,-1637.48 5115.98,-1639.3 5115.7,-1641.13 5115.26,-1642.98 5114.65,-1644.82 5113.89,-1646.66 5112.99,-1648.5 5111.95,-1650.32 5110.77,-1652.13 5109.48,-1653.91 5108.07,-1655.66 5106.55,-1657.39 5104.93,-1659.07 5103.22,-1660.72 5101.43,-1662.32 5099.56,-1663.86 5097.62,-1665.36 5095.62,-1666.79 5093.56,-1668.16 5091.45,-1669.47 5089.3,-1670.7 5087.11,-1671.86 5084.89,-1672.95 5082.63,-1673.95 5080.35,-1674.88 5078.05,-1675.71 5075.74,-1676.46 5073.4,-1677.12 5071.06,-1677.7 5068.7,-1678.17 5066.34,-1678.56 5063.97,-1678.85 5061.6,-1679.04 5059.23,-1679.13 5056.85,-1679.13 5054.48,-1679.04 5052.11,-1678.85 5049.74,-1678.56 5047.38,-1678.17 5045.02,-1677.7 5042.68,-1677.12 5040.34,-1676.46 5038.03,-1675.71 5035.73,-1674.88 5033.45,-1673.95 5031.19,-1672.95 5028.97,-1671.86 5026.78,-1670.7 5024.63,-1669.47 5022.52,-1668.16 5020.46,-1666.79 5018.46,-1665.36 5016.52,-1663.86 5014.65,-1662.32 5012.86,-1660.72 5011.15,-1659.07 5009.53,-1657.39 5008.01,-1655.66 5006.6,-1653.91 5005.31,-1652.13 5004.13,-1650.32 5003.09,-1648.5 5002.19,-1646.66 5001.43,-1644.82 5000.82,-1642.98 5000.38,-1641.13 5000.1,-1639.3 4999.99,-1637.48 5000.05,-1635.67 5000.3,-1633.89 5000.73,-1632.13 5001.35,-1630.41 5002.16,-1628.72 5003.15,-1627.08 5004.34,-1625.48 5005.72,-1623.93 5007.28,-1622.44 5009.03,-1621.01 5010.96,-1619.64 5013.07,-1618.33 5015.35,-1617.1 5017.79,-1615.94 5020.39,-1614.85 5023.14,-1613.85 5026.02,-1612.92 5029.03,-1612.09 5032.16,-1611.33 5035.39,-1610.67 5038.72,-1610.1 5042.12,-1609.63 5045.59,-1609.24 5049.11,-1608.95 5052.67,-1608.76 5056.25,-1608.66 5059.83,-1608.66 5063.41,-1608.76"/>
<text text-anchor="start" x="5028.87" y="-1653.7" font-family="Times,serif" font-size="14.00">C0038250</text>
<text text-anchor="start" x="5027.51" y="-1639.7" font-family="Times,serif" font-size="14.00">Stem Cells</text>
<text text-anchor="start" x="5042.1" y="-1625.7" font-family="Times,serif" font-size="14.00">14:15</text>
</g>
<!-- id_27628933_DOT_6 -->
<g id="node6" class="node">
<title>id_27628933_DOT_6</title>
<polygon fill="blue" stroke="blue" points="4718.84,-1737.29 4722.26,-1737.48 4725.66,-1737.77 4729,-1738.15 4732.28,-1738.63 4735.49,-1739.2 4738.6,-1739.86 4741.62,-1740.61 4744.52,-1741.45 4747.3,-1742.37 4749.95,-1743.38 4752.45,-1744.46 4754.81,-1745.62 4757,-1746.86 4759.03,-1748.16 4760.89,-1749.53 4762.58,-1750.97 4764.09,-1752.46 4765.42,-1754.01 4766.56,-1755.61 4767.52,-1757.25 4768.3,-1758.94 4768.9,-1760.66 4769.31,-1762.42 4769.55,-1764.2 4769.61,-1766 4769.51,-1767.83 4769.24,-1769.66 4768.81,-1771.5 4768.22,-1773.35 4767.49,-1775.19 4766.62,-1777.03 4765.62,-1778.85 4764.49,-1780.65 4763.24,-1782.44 4761.88,-1784.19 4760.41,-1785.92 4758.85,-1787.6 4757.21,-1789.25 4755.48,-1790.84 4753.68,-1792.39 4751.81,-1793.88 4749.88,-1795.32 4747.89,-1796.69 4745.86,-1797.99 4743.79,-1799.23 4741.68,-1800.39 4739.53,-1801.47 4737.36,-1802.48 4735.17,-1803.4 4732.95,-1804.24 4730.71,-1804.99 4728.47,-1805.65 4726.21,-1806.22 4723.94,-1806.7 4721.66,-1807.08 4719.38,-1807.37 4717.09,-1807.57 4714.8,-1807.66 4712.51,-1807.66 4710.22,-1807.57 4707.94,-1807.37 4705.66,-1807.08 4703.38,-1806.7 4701.11,-1806.22 4698.85,-1805.65 4696.6,-1804.99 4694.37,-1804.24 4692.15,-1803.4 4689.95,-1802.48 4687.78,-1801.47 4685.64,-1800.39 4683.53,-1799.23 4681.45,-1797.99 4679.42,-1796.69 4677.44,-1795.32 4675.51,-1793.88 4673.64,-1792.39 4671.84,-1790.84 4670.11,-1789.25 4668.46,-1787.6 4666.9,-1785.92 4665.44,-1784.19 4664.08,-1782.44 4662.83,-1780.65 4661.7,-1778.85 4660.69,-1777.03 4659.82,-1775.19 4659.09,-1773.35 4658.51,-1771.5 4658.08,-1769.66 4657.81,-1767.83 4657.7,-1766 4657.77,-1764.2 4658,-1762.42 4658.42,-1760.66 4659.01,-1758.94 4659.79,-1757.25 4660.75,-1755.61 4661.9,-1754.01 4663.23,-1752.46 4664.73,-1750.97 4666.42,-1749.53 4668.28,-1748.16 4670.31,-1746.86 4672.51,-1745.62 4674.86,-1744.46 4677.37,-1743.38 4680.02,-1742.37 4682.8,-1741.45 4685.7,-1740.61 4688.71,-1739.86 4691.83,-1739.2 4695.03,-1738.63 4698.31,-1738.15 4701.66,-1737.77 4705.05,-1737.48 4708.48,-1737.29 4711.93,-1737.19 4715.39,-1737.19 4718.84,-1737.29"/>
<text text-anchor="start" x="4684.49" y="-1782.23" font-family="Times,serif" font-size="14.00">C0038250</text>
<text text-anchor="start" x="4703.55" y="-1768.23" font-family="Times,serif" font-size="14.00">cell</text>
<text text-anchor="start" x="4697.71" y="-1754.23" font-family="Times,serif" font-size="14.00">24:24</text>
</g>
<!-- id_27628933_DOT_3&#45;&#45;id_27628933_DOT_6 -->
<g id="edge3" class="edge">
<title>id_27628933_DOT_3&#45;&#45;id_27628933_DOT_6</title>
<path fill="none" stroke="black" d="M5012.66,-1660.83C4948.65,-1684.73 4832.15,-1728.2 4765.03,-1753.25"/>
<text text-anchor="middle" x="4862.6" y="-1709.84" font-family="Times,serif" font-size="14.00">0.029496</text>
</g>
<!-- id_27628933_DOT_23 -->
<g id="node23" class="node">
<title>id_27628933_DOT_23</title>
<polygon fill="darkkhaki" stroke="darkkhaki" points="5417.29,-1504.91 5423.52,-1505.1 5429.7,-1505.39 5435.78,-1505.78 5441.74,-1506.25 5447.57,-1506.82 5453.24,-1507.48 5458.72,-1508.24 5464,-1509.07 5469.06,-1510 5473.87,-1511 5478.43,-1512.09 5482.71,-1513.25 5486.7,-1514.48 5490.4,-1515.79 5493.78,-1517.16 5496.85,-1518.59 5499.59,-1520.08 5502,-1521.63 5504.09,-1523.23 5505.83,-1524.87 5507.25,-1526.56 5508.33,-1528.28 5509.09,-1530.04 5509.52,-1531.82 5509.64,-1533.63 5509.45,-1535.45 5508.95,-1537.28 5508.17,-1539.13 5507.11,-1540.97 5505.78,-1542.81 5504.2,-1544.65 5502.37,-1546.47 5500.31,-1548.28 5498.04,-1550.06 5495.57,-1551.82 5492.91,-1553.54 5490.07,-1555.22 5487.07,-1556.87 5483.93,-1558.47 5480.65,-1560.01 5477.25,-1561.51 5473.74,-1562.94 5470.14,-1564.31 5466.44,-1565.62 5462.67,-1566.85 5458.83,-1568.01 5454.93,-1569.1 5450.98,-1570.1 5446.99,-1571.03 5442.96,-1571.86 5438.89,-1572.61 5434.8,-1573.28 5430.69,-1573.85 5426.57,-1574.32 5422.43,-1574.71 5418.27,-1575 5414.12,-1575.19 5409.95,-1575.28 5405.79,-1575.28 5401.63,-1575.19 5397.47,-1575 5393.32,-1574.71 5389.18,-1574.32 5385.05,-1573.85 5380.94,-1573.28 5376.85,-1572.61 5372.79,-1571.86 5368.76,-1571.03 5364.76,-1570.1 5360.81,-1569.1 5356.91,-1568.01 5353.07,-1566.85 5349.3,-1565.62 5345.61,-1564.31 5342,-1562.94 5338.49,-1561.51 5335.09,-1560.01 5331.82,-1558.47 5328.67,-1556.87 5325.68,-1555.22 5322.84,-1553.54 5320.18,-1551.82 5317.71,-1550.06 5315.43,-1548.28 5313.38,-1546.47 5311.55,-1544.65 5309.97,-1542.81 5308.64,-1540.97 5307.57,-1539.13 5306.79,-1537.28 5306.3,-1535.45 5306.11,-1533.63 5306.22,-1531.82 5306.66,-1530.04 5307.41,-1528.28 5308.5,-1526.56 5309.91,-1524.87 5311.66,-1523.23 5313.74,-1521.63 5316.15,-1520.08 5318.9,-1518.59 5321.97,-1517.16 5325.35,-1515.79 5329.05,-1514.48 5333.04,-1513.25 5337.32,-1512.09 5341.88,-1511 5346.69,-1510 5351.75,-1509.07 5357.02,-1508.24 5362.51,-1507.48 5368.18,-1506.82 5374,-1506.25 5379.97,-1505.78 5386.05,-1505.39 5392.22,-1505.1 5398.46,-1504.91 5404.73,-1504.81 5411.02,-1504.81 5417.29,-1504.91"/>
<text text-anchor="start" x="5378.7" y="-1549.85" font-family="Times,serif" font-size="14.00">C0596508</text>
<text text-anchor="start" x="5348.39" y="-1535.85" font-family="Times,serif" font-size="14.00">embryonic stem cells</text>
<text text-anchor="start" x="5384.93" y="-1521.85" font-family="Times,serif" font-size="14.00">170:172</text>
</g>
<!-- id_27628933_DOT_3&#45;&#45;id_27628933_DOT_23 -->
<g id="edge15" class="edge">
<title>id_27628933_DOT_3&#45;&#45;id_27628933_DOT_23</title>
<path fill="none" stroke="black" stroke-dasharray="1,5" d="M5113.47,-1627.44C5174.06,-1609.46 5271.3,-1580.59 5337.3,-1561"/>
<text text-anchor="middle" x="5199.14" y="-1597.02" font-family="Times,serif" font-size="14.00">0.802098</text>
</g>
<!-- id_27628933_DOT_4 -->
<g id="node4" class="node">
<title>id_27628933_DOT_4</title>
<polygon fill="blueviolet" stroke="blueviolet" points="974.4,-0.23 980.37,-0.42 986.28,-0.71 992.11,-1.09 997.82,-1.57 1003.4,-2.14 1008.83,-2.8 1014.09,-3.55 1019.14,-4.39 1023.99,-5.31 1028.6,-6.32 1032.96,-7.4 1037.06,-8.57 1040.89,-9.8 1044.43,-11.1 1047.67,-12.48 1050.61,-13.91 1053.24,-15.4 1055.55,-16.95 1057.54,-18.55 1059.22,-20.19 1060.57,-21.88 1061.61,-23.6 1062.33,-25.36 1062.75,-27.14 1062.86,-28.94 1062.68,-30.77 1062.21,-32.6 1061.46,-34.44 1060.44,-36.29 1059.17,-38.13 1057.65,-39.97 1055.9,-41.79 1053.93,-43.6 1051.75,-45.38 1049.38,-47.13 1046.83,-48.86 1044.12,-50.54 1041.25,-52.19 1038.23,-53.78 1035.1,-55.33 1031.84,-56.82 1028.48,-58.26 1025.02,-59.63 1021.48,-60.94 1017.87,-62.17 1014.19,-63.33 1010.46,-64.42 1006.67,-65.42 1002.85,-66.34 998.98,-67.18 995.09,-67.93 991.18,-68.59 987.24,-69.16 983.28,-69.64 979.32,-70.02 975.34,-70.31 971.36,-70.51 967.37,-70.6 963.38,-70.6 959.4,-70.51 955.41,-70.31 951.44,-70.02 947.47,-69.64 943.52,-69.16 939.58,-68.59 935.66,-67.93 931.77,-67.18 927.91,-66.34 924.08,-65.42 920.3,-64.42 916.56,-63.33 912.88,-62.17 909.27,-60.94 905.73,-59.63 902.28,-58.26 898.92,-56.82 895.66,-55.33 892.52,-53.78 889.51,-52.19 886.64,-50.54 883.92,-48.86 881.37,-47.13 879,-45.38 876.83,-43.6 874.86,-41.79 873.11,-39.97 871.59,-38.13 870.32,-36.29 869.3,-34.44 868.55,-32.6 868.08,-30.77 867.89,-28.94 868,-27.14 868.42,-25.36 869.14,-23.6 870.18,-21.88 871.54,-20.19 873.21,-18.55 875.21,-16.95 877.52,-15.4 880.15,-13.91 883.08,-12.48 886.33,-11.1 889.87,-9.8 893.69,-8.57 897.79,-7.4 902.16,-6.32 906.77,-5.31 911.61,-4.39 916.67,-3.55 921.92,-2.8 927.35,-2.14 932.93,-1.57 938.65,-1.09 944.47,-0.71 950.38,-0.42 956.36,-0.23 962.37,-0.13 968.39,-0.13 974.4,-0.23"/>
<text text-anchor="start" x="936.21" y="-45.17" font-family="Times,serif" font-size="14.00">C0225326</text>
<text text-anchor="start" x="908.81" y="-31.17" font-family="Times,serif" font-size="14.00">Encapsulated Fibers</text>
<text text-anchor="start" x="949.43" y="-17.17" font-family="Times,serif" font-size="14.00">17:18</text>
</g>
<!-- id_27628933_DOT_7 -->
<g id="node7" class="node">
<title>id_27628933_DOT_7</title>
<polygon fill="blueviolet" stroke="blueviolet" points="1153.35,-324.46 1159.02,-324.66 1164.64,-324.95 1170.17,-325.33 1175.6,-325.81 1180.9,-326.38 1186.06,-327.04 1191.05,-327.79 1195.85,-328.63 1200.46,-329.55 1204.84,-330.56 1208.98,-331.64 1212.88,-332.8 1216.51,-334.04 1219.87,-335.34 1222.95,-336.71 1225.75,-338.15 1228.24,-339.64 1230.44,-341.19 1232.33,-342.78 1233.92,-344.43 1235.21,-346.11 1236.2,-347.84 1236.88,-349.59 1237.28,-351.38 1237.38,-353.18 1237.21,-355 1236.76,-356.84 1236.05,-358.68 1235.08,-360.53 1233.87,-362.37 1232.43,-364.2 1230.77,-366.03 1228.9,-367.83 1226.83,-369.61 1224.58,-371.37 1222.16,-373.09 1219.58,-374.78 1216.85,-376.42 1213.99,-378.02 1211.01,-379.57 1207.92,-381.06 1204.72,-382.49 1201.44,-383.87 1198.08,-385.17 1194.65,-386.41 1191.15,-387.57 1187.6,-388.65 1184.01,-389.66 1180.37,-390.58 1176.71,-391.42 1173.01,-392.17 1169.29,-392.83 1165.55,-393.4 1161.79,-393.88 1158.02,-394.26 1154.25,-394.55 1150.46,-394.74 1146.67,-394.84 1142.89,-394.84 1139.1,-394.74 1135.31,-394.55 1131.54,-394.26 1127.77,-393.88 1124.01,-393.4 1120.27,-392.83 1116.55,-392.17 1112.85,-391.42 1109.19,-390.58 1105.55,-389.66 1101.96,-388.65 1098.41,-387.57 1094.91,-386.41 1091.48,-385.17 1088.12,-383.87 1084.84,-382.49 1081.64,-381.06 1078.55,-379.57 1075.57,-378.02 1072.71,-376.42 1069.98,-374.78 1067.4,-373.09 1064.98,-371.37 1062.73,-369.61 1060.66,-367.83 1058.79,-366.03 1057.13,-364.2 1055.69,-362.37 1054.48,-360.53 1053.51,-358.68 1052.8,-356.84 1052.35,-355 1052.18,-353.18 1052.28,-351.38 1052.68,-349.59 1053.36,-347.84 1054.35,-346.11 1055.64,-344.43 1057.23,-342.78 1059.12,-341.19 1061.32,-339.64 1063.81,-338.15 1066.61,-336.71 1069.69,-335.34 1073.05,-334.04 1076.68,-332.8 1080.58,-331.64 1084.72,-330.56 1089.1,-329.55 1093.71,-328.63 1098.51,-327.79 1103.5,-327.04 1108.66,-326.38 1113.96,-325.81 1119.39,-325.33 1124.92,-324.95 1130.54,-324.66 1136.21,-324.46 1141.92,-324.37 1147.64,-324.37 1153.35,-324.46"/>
<text text-anchor="start" x="1115.61" y="-369.4" font-family="Times,serif" font-size="14.00">C0225326</text>
<text text-anchor="start" x="1091.33" y="-355.4" font-family="Times,serif" font-size="14.00">encapsulated fibers</text>
<text text-anchor="start" x="1128.84" y="-341.4" font-family="Times,serif" font-size="14.00">26:27</text>
</g>
<!-- id_27628933_DOT_4&#45;&#45;id_27628933_DOT_7 -->
<g id="edge4" class="edge">
<title>id_27628933_DOT_4&#45;&#45;id_27628933_DOT_7</title>
<path fill="none" stroke="black" d="M984.41,-69.76C1018.76,-131.86 1090.79,-262.03 1125.4,-324.58"/>
<text text-anchor="middle" x="1028.66" y="-199.97" font-family="Times,serif" font-size="14.00">0.004323</text>
</g>
<!-- id_27628933_DOT_8 -->
<g id="node8" class="node">
<title>id_27628933_DOT_8</title>
<polygon fill="brown" stroke="brown" points="2856.02,-2361.19 2861.43,-2361.39 2866.79,-2361.67 2872.08,-2362.06 2877.26,-2362.54 2882.33,-2363.11 2887.25,-2363.77 2892.01,-2364.52 2896.6,-2365.36 2900.99,-2366.28 2905.18,-2367.28 2909.13,-2368.37 2912.85,-2369.53 2916.32,-2370.76 2919.53,-2372.07 2922.48,-2373.44 2925.14,-2374.87 2927.52,-2376.37 2929.62,-2377.91 2931.43,-2379.51 2932.95,-2381.16 2934.18,-2382.84 2935.12,-2384.57 2935.78,-2386.32 2936.15,-2388.1 2936.25,-2389.91 2936.09,-2391.73 2935.66,-2393.57 2934.98,-2395.41 2934.06,-2397.25 2932.9,-2399.1 2931.53,-2400.93 2929.94,-2402.76 2928.15,-2404.56 2926.18,-2406.34 2924.03,-2408.1 2921.72,-2409.82 2919.25,-2411.51 2916.65,-2413.15 2913.92,-2414.75 2911.07,-2416.3 2908.12,-2417.79 2905.07,-2419.22 2901.93,-2420.59 2898.72,-2421.9 2895.45,-2423.13 2892.11,-2424.3 2888.72,-2425.38 2885.29,-2426.39 2881.82,-2427.31 2878.32,-2428.15 2874.79,-2428.9 2871.23,-2429.56 2867.66,-2430.13 2864.08,-2430.61 2860.48,-2430.99 2856.87,-2431.28 2853.26,-2431.47 2849.64,-2431.57 2846.03,-2431.57 2842.41,-2431.47 2838.8,-2431.28 2835.19,-2430.99 2831.59,-2430.61 2828.01,-2430.13 2824.43,-2429.56 2820.88,-2428.9 2817.35,-2428.15 2813.85,-2427.31 2810.38,-2426.39 2806.95,-2425.38 2803.56,-2424.3 2800.22,-2423.13 2796.95,-2421.9 2793.74,-2420.59 2790.6,-2419.22 2787.55,-2417.79 2784.6,-2416.3 2781.75,-2414.75 2779.02,-2413.15 2776.42,-2411.51 2773.95,-2409.82 2771.64,-2408.1 2769.49,-2406.34 2767.52,-2404.56 2765.73,-2402.76 2764.14,-2400.93 2762.77,-2399.1 2761.61,-2397.25 2760.69,-2395.41 2760.01,-2393.57 2759.58,-2391.73 2759.41,-2389.91 2759.52,-2388.1 2759.89,-2386.32 2760.55,-2384.57 2761.49,-2382.84 2762.72,-2381.16 2764.24,-2379.51 2766.05,-2377.91 2768.14,-2376.37 2770.53,-2374.87 2773.19,-2373.44 2776.13,-2372.07 2779.34,-2370.76 2782.81,-2369.53 2786.53,-2368.37 2790.49,-2367.28 2794.67,-2366.28 2799.07,-2365.36 2803.65,-2364.52 2808.42,-2363.77 2813.34,-2363.11 2818.41,-2362.54 2823.59,-2362.06 2828.87,-2361.67 2834.24,-2361.39 2839.65,-2361.19 2845.1,-2361.1 2850.57,-2361.1 2856.02,-2361.19"/>
<text text-anchor="start" x="2818.67" y="-2406.13" font-family="Times,serif" font-size="14.00">C0596171</text>
<text text-anchor="start" x="2797.1" y="-2392.13" font-family="Times,serif" font-size="14.00">tissue engineering</text>
<text text-anchor="start" x="2831.89" y="-2378.13" font-family="Times,serif" font-size="14.00">32:33</text>
</g>
<!-- id_27628933_DOT_5&#45;&#45;id_27628933_DOT_8 -->
<g id="edge16" class="edge">
<title>id_27628933_DOT_5&#45;&#45;id_27628933_DOT_8</title>
<path fill="none" stroke="black" stroke-dasharray="1,5" d="M2960,-2804.68C2937.21,-2721.7 2880.29,-2514.49 2857.5,-2431.51"/>
<text text-anchor="middle" x="2882.5" y="-2620.89" font-family="Times,serif" font-size="14.00">0.569670</text>
</g>
<!-- id_27628933_DOT_10 -->
<g id="node10" class="node">
<title>id_27628933_DOT_10</title>
<polygon fill="blue" stroke="blue" points="4366.01,-1858.15 4369.44,-1858.35 4372.83,-1858.64 4376.18,-1859.02 4379.46,-1859.5 4382.66,-1860.07 4385.78,-1860.73 4388.79,-1861.48 4391.7,-1862.32 4394.48,-1863.24 4397.12,-1864.24 4399.63,-1865.33 4401.98,-1866.49 4404.18,-1867.73 4406.21,-1869.03 4408.07,-1870.4 4409.76,-1871.84 4411.27,-1873.33 4412.59,-1874.88 4413.74,-1876.47 4414.7,-1878.12 4415.48,-1879.8 4416.07,-1881.53 4416.49,-1883.28 4416.73,-1885.06 4416.79,-1886.87 4416.69,-1888.69 4416.41,-1890.53 4415.98,-1892.37 4415.4,-1894.22 4414.67,-1896.06 4413.8,-1897.89 4412.79,-1899.72 4411.66,-1901.52 4410.41,-1903.3 4409.05,-1905.06 4407.59,-1906.78 4406.03,-1908.47 4404.38,-1910.11 4402.66,-1911.71 4400.85,-1913.26 4398.98,-1914.75 4397.05,-1916.18 4395.07,-1917.56 4393.04,-1918.86 4390.97,-1920.1 4388.85,-1921.26 4386.71,-1922.34 4384.54,-1923.35 4382.34,-1924.27 4380.13,-1925.11 4377.89,-1925.86 4375.64,-1926.52 4373.38,-1927.09 4371.11,-1927.57 4368.84,-1927.95 4366.55,-1928.24 4364.27,-1928.43 4361.98,-1928.53 4359.69,-1928.53 4357.4,-1928.43 4355.12,-1928.24 4352.83,-1927.95 4350.56,-1927.57 4348.29,-1927.09 4346.03,-1926.52 4343.78,-1925.86 4341.54,-1925.11 4339.33,-1924.27 4337.13,-1923.35 4334.96,-1922.34 4332.81,-1921.26 4330.7,-1920.1 4328.63,-1918.86 4326.6,-1917.56 4324.61,-1916.18 4322.68,-1914.75 4320.82,-1913.26 4319.01,-1911.71 4317.29,-1910.11 4315.64,-1908.47 4314.08,-1906.78 4312.62,-1905.06 4311.26,-1903.3 4310.01,-1901.52 4308.88,-1899.72 4307.87,-1897.89 4307,-1896.06 4306.27,-1894.22 4305.68,-1892.37 4305.25,-1890.53 4304.98,-1888.69 4304.88,-1886.87 4304.94,-1885.06 4305.18,-1883.28 4305.6,-1881.53 4306.19,-1879.8 4306.97,-1878.12 4307.93,-1876.47 4309.08,-1874.88 4310.4,-1873.33 4311.91,-1871.84 4313.6,-1870.4 4315.46,-1869.03 4317.49,-1867.73 4319.69,-1866.49 4322.04,-1865.33 4324.55,-1864.24 4327.19,-1863.24 4329.97,-1862.32 4332.88,-1861.48 4335.89,-1860.73 4339.01,-1860.07 4342.21,-1859.5 4345.49,-1859.02 4348.84,-1858.64 4352.23,-1858.35 4355.66,-1858.15 4359.11,-1858.06 4362.56,-1858.06 4366.01,-1858.15"/>
<text text-anchor="start" x="4331.67" y="-1903.09" font-family="Times,serif" font-size="14.00">C0038250</text>
<text text-anchor="start" x="4350.73" y="-1889.09" font-family="Times,serif" font-size="14.00">cell</text>
<text text-anchor="start" x="4344.89" y="-1875.09" font-family="Times,serif" font-size="14.00">80:80</text>
</g>
<!-- id_27628933_DOT_6&#45;&#45;id_27628933_DOT_10 -->
<g id="edge5" class="edge">
<title>id_27628933_DOT_6&#45;&#45;id_27628933_DOT_10</title>
<path fill="none" stroke="black" d="M4668.61,-1787.86C4603.22,-1810.26 4482.27,-1851.69 4413.06,-1875.4"/>
<text text-anchor="middle" x="4514.59" y="-1834.43" font-family="Times,serif" font-size="14.00">0.005473</text>
</g>
<!-- id_27628933_DOT_11 -->
<g id="node11" class="node">
<title>id_27628933_DOT_11</title>
<polygon fill="blueviolet" stroke="blueviolet" points="1320.66,-662.07 1326.34,-662.26 1331.95,-662.55 1337.49,-662.94 1342.92,-663.41 1348.22,-663.98 1353.38,-664.65 1358.37,-665.4 1363.17,-666.23 1367.77,-667.16 1372.15,-668.16 1376.3,-669.25 1380.19,-670.41 1383.83,-671.64 1387.19,-672.95 1390.27,-674.32 1393.06,-675.75 1395.56,-677.25 1397.75,-678.79 1399.65,-680.39 1401.24,-682.04 1402.53,-683.72 1403.51,-685.44 1404.2,-687.2 1404.59,-688.98 1404.7,-690.79 1404.52,-692.61 1404.08,-694.44 1403.36,-696.29 1402.4,-698.13 1401.19,-699.98 1399.75,-701.81 1398.08,-703.63 1396.21,-705.44 1394.15,-707.22 1391.9,-708.98 1389.47,-710.7 1386.89,-712.38 1384.17,-714.03 1381.31,-715.63 1378.32,-717.17 1375.23,-718.67 1372.04,-720.1 1368.76,-721.47 1365.39,-722.78 1361.96,-724.01 1358.47,-725.17 1354.92,-726.26 1351.32,-727.26 1347.69,-728.19 1344.02,-729.02 1340.32,-729.77 1336.6,-730.44 1332.86,-731.01 1329.11,-731.48 1325.34,-731.87 1321.56,-732.16 1317.78,-732.35 1313.99,-732.45 1310.2,-732.45 1306.41,-732.35 1302.63,-732.16 1298.85,-731.87 1295.08,-731.48 1291.33,-731.01 1287.59,-730.44 1283.87,-729.77 1280.17,-729.02 1276.5,-728.19 1272.87,-727.26 1269.27,-726.26 1265.72,-725.17 1262.23,-724.01 1258.8,-722.78 1255.44,-721.47 1252.15,-720.1 1248.96,-718.67 1245.87,-717.17 1242.88,-715.63 1240.02,-714.03 1237.3,-712.38 1234.72,-710.7 1232.3,-708.98 1230.04,-707.22 1227.98,-705.44 1226.11,-703.63 1224.44,-701.81 1223,-699.98 1221.79,-698.13 1220.83,-696.29 1220.11,-694.44 1219.67,-692.61 1219.49,-690.79 1219.6,-688.98 1219.99,-687.2 1220.68,-685.44 1221.66,-683.72 1222.95,-682.04 1224.54,-680.39 1226.44,-678.79 1228.63,-677.25 1231.13,-675.75 1233.92,-674.32 1237,-672.95 1240.36,-671.64 1244,-670.41 1247.89,-669.25 1252.04,-668.16 1256.42,-667.16 1261.02,-666.23 1265.82,-665.4 1270.81,-664.65 1275.97,-663.98 1281.28,-663.41 1286.7,-662.94 1292.24,-662.55 1297.85,-662.26 1303.53,-662.07 1309.24,-661.97 1314.96,-661.97 1320.66,-662.07"/>
<text text-anchor="start" x="1282.93" y="-707.01" font-family="Times,serif" font-size="14.00">C0225326</text>
<text text-anchor="start" x="1258.64" y="-693.01" font-family="Times,serif" font-size="14.00">encapsulated fibers</text>
<text text-anchor="start" x="1296.15" y="-679.01" font-family="Times,serif" font-size="14.00">82:83</text>
</g>
<!-- id_27628933_DOT_7&#45;&#45;id_27628933_DOT_11 -->
<g id="edge6" class="edge">
<title>id_27628933_DOT_7&#45;&#45;id_27628933_DOT_11</title>
<path fill="none" stroke="black" d="M1161.9,-394.15C1193.92,-458.76 1262.55,-597.25 1294.75,-662.21"/>
<text text-anchor="middle" x="1202.07" y="-530.98" font-family="Times,serif" font-size="14.00">0.014177</text>
</g>
<!-- id_27628933_DOT_14 -->
<g id="node14" class="node">
<title>id_27628933_DOT_14</title>
<polygon fill="chartreuse" stroke="chartreuse" points="2400.6,-2263.13 2404.03,-2263.32 2407.42,-2263.61 2410.77,-2264 2414.05,-2264.47 2417.25,-2265.04 2420.37,-2265.7 2423.38,-2266.46 2426.29,-2267.29 2429.07,-2268.22 2431.71,-2269.22 2434.22,-2270.31 2436.57,-2271.47 2438.77,-2272.7 2440.8,-2274.01 2442.66,-2275.38 2444.35,-2276.81 2445.86,-2278.3 2447.18,-2279.85 2448.33,-2281.45 2449.29,-2283.09 2450.07,-2284.78 2450.66,-2286.5 2451.08,-2288.26 2451.32,-2290.04 2451.38,-2291.85 2451.27,-2293.67 2451,-2295.5 2450.57,-2297.35 2449.99,-2299.19 2449.26,-2301.03 2448.39,-2302.87 2447.38,-2304.69 2446.25,-2306.5 2445,-2308.28 2443.64,-2310.04 2442.18,-2311.76 2440.62,-2313.44 2438.97,-2315.09 2437.24,-2316.69 2435.44,-2318.23 2433.57,-2319.73 2431.64,-2321.16 2429.66,-2322.53 2427.63,-2323.84 2425.55,-2325.07 2423.44,-2326.23 2421.3,-2327.32 2419.13,-2328.32 2416.93,-2329.25 2414.71,-2330.08 2412.48,-2330.83 2410.23,-2331.5 2407.97,-2332.07 2405.7,-2332.54 2403.42,-2332.93 2401.14,-2333.22 2398.86,-2333.41 2396.57,-2333.5 2394.28,-2333.5 2391.99,-2333.41 2389.7,-2333.22 2387.42,-2332.93 2385.14,-2332.54 2382.87,-2332.07 2380.61,-2331.5 2378.37,-2330.83 2376.13,-2330.08 2373.92,-2329.25 2371.72,-2328.32 2369.55,-2327.32 2367.4,-2326.23 2365.29,-2325.07 2363.22,-2323.84 2361.19,-2322.53 2359.2,-2321.16 2357.27,-2319.73 2355.4,-2318.23 2353.6,-2316.69 2351.87,-2315.09 2350.23,-2313.44 2348.67,-2311.76 2347.2,-2310.04 2345.84,-2308.28 2344.59,-2306.5 2343.46,-2304.69 2342.46,-2302.87 2341.59,-2301.03 2340.86,-2299.19 2340.27,-2297.35 2339.84,-2295.5 2339.57,-2293.67 2339.47,-2291.85 2339.53,-2290.04 2339.77,-2288.26 2340.18,-2286.5 2340.78,-2284.78 2341.56,-2283.09 2342.52,-2281.45 2343.66,-2279.85 2344.99,-2278.3 2346.5,-2276.81 2348.19,-2275.38 2350.05,-2274.01 2352.08,-2272.7 2354.28,-2271.47 2356.63,-2270.31 2359.13,-2269.22 2361.78,-2268.22 2364.56,-2267.29 2367.46,-2266.46 2370.48,-2265.7 2373.6,-2265.04 2376.8,-2264.47 2380.08,-2264 2383.42,-2263.61 2386.82,-2263.32 2390.25,-2263.13 2393.69,-2263.03 2397.15,-2263.03 2400.6,-2263.13"/>
<text text-anchor="start" x="2366.25" y="-2308.07" font-family="Times,serif" font-size="14.00">C0102137</text>
<text text-anchor="start" x="2373.27" y="-2294.07" font-family="Times,serif" font-size="14.00">alginate</text>
<text text-anchor="start" x="2372.48" y="-2280.07" font-family="Times,serif" font-size="14.00">107:107</text>
</g>
<!-- id_27628933_DOT_8&#45;&#45;id_27628933_DOT_14 -->
<g id="edge17" class="edge">
<title>id_27628933_DOT_8&#45;&#45;id_27628933_DOT_14</title>
<path fill="none" stroke="black" stroke-dasharray="1,5" d="M2765.38,-2378.46C2671.72,-2358.16 2521.91,-2325.69 2444.81,-2308.97"/>
<text text-anchor="middle" x="2578.85" y="-2346.52" font-family="Times,serif" font-size="14.00">0.756735</text>
</g>
<!-- id_27628933_DOT_18 -->
<g id="node18" class="node">
<title>id_27628933_DOT_18</title>
<polygon fill="crimson" stroke="crimson" points="2721.34,-2643.84 2729.35,-2644.03 2737.28,-2644.32 2745.1,-2644.7 2752.77,-2645.18 2760.26,-2645.75 2767.55,-2646.41 2774.59,-2647.16 2781.38,-2648 2787.88,-2648.92 2794.07,-2649.93 2799.92,-2651.01 2805.43,-2652.17 2810.56,-2653.41 2815.31,-2654.71 2819.66,-2656.08 2823.61,-2657.52 2827.13,-2659.01 2830.23,-2660.56 2832.91,-2662.16 2835.16,-2663.8 2836.98,-2665.49 2838.37,-2667.21 2839.34,-2668.97 2839.9,-2670.75 2840.05,-2672.55 2839.8,-2674.38 2839.17,-2676.21 2838.16,-2678.05 2836.8,-2679.9 2835.09,-2681.74 2833.05,-2683.58 2830.7,-2685.4 2828.06,-2687.2 2825.14,-2688.99 2821.96,-2690.74 2818.54,-2692.46 2814.89,-2694.15 2811.04,-2695.79 2807,-2697.39 2802.79,-2698.94 2798.42,-2700.43 2793.91,-2701.87 2789.27,-2703.24 2784.52,-2704.54 2779.67,-2705.78 2774.74,-2706.94 2769.72,-2708.02 2764.65,-2709.03 2759.51,-2709.95 2754.33,-2710.79 2749.11,-2711.54 2743.85,-2712.2 2738.57,-2712.77 2733.26,-2713.25 2727.94,-2713.63 2722.6,-2713.92 2717.26,-2714.12 2711.91,-2714.21 2706.56,-2714.21 2701.21,-2714.12 2695.86,-2713.92 2690.53,-2713.63 2685.2,-2713.25 2679.9,-2712.77 2674.61,-2712.2 2669.36,-2711.54 2664.13,-2710.79 2658.95,-2709.95 2653.82,-2709.03 2648.74,-2708.02 2643.73,-2706.94 2638.79,-2705.78 2633.94,-2704.54 2629.19,-2703.24 2624.56,-2701.87 2620.05,-2700.43 2615.68,-2698.94 2611.46,-2697.39 2607.42,-2695.79 2603.57,-2694.15 2599.93,-2692.46 2596.51,-2690.74 2593.33,-2688.99 2590.41,-2687.2 2587.76,-2685.4 2585.41,-2683.58 2583.38,-2681.74 2581.67,-2679.9 2580.3,-2678.05 2579.3,-2676.21 2578.67,-2674.38 2578.42,-2672.55 2578.57,-2670.75 2579.12,-2668.97 2580.1,-2667.21 2581.49,-2665.49 2583.31,-2663.8 2585.55,-2662.16 2588.23,-2660.56 2591.33,-2659.01 2594.86,-2657.52 2598.8,-2656.08 2603.15,-2654.71 2607.9,-2653.41 2613.04,-2652.17 2618.54,-2651.01 2624.4,-2649.93 2630.58,-2648.92 2637.08,-2648 2643.87,-2647.16 2650.92,-2646.41 2658.2,-2645.75 2665.69,-2645.18 2673.36,-2644.7 2681.18,-2644.32 2689.11,-2644.03 2697.13,-2643.84 2705.19,-2643.74 2713.27,-2643.74 2721.34,-2643.84"/>
<text text-anchor="start" x="2680.06" y="-2688.78" font-family="Times,serif" font-size="14.00">C0026377</text>
<text text-anchor="start" x="2630.31" y="-2674.78" font-family="Times,serif" font-size="14.00">three dimensional structures</text>
<text text-anchor="start" x="2686.29" y="-2660.78" font-family="Times,serif" font-size="14.00">137:139</text>
</g>
<!-- id_27628933_DOT_8&#45;&#45;id_27628933_DOT_18 -->
<g id="edge18" class="edge">
<title>id_27628933_DOT_8&#45;&#45;id_27628933_DOT_18</title>
<path fill="none" stroke="black" stroke-dasharray="1,5" d="M2830.98,-2430.71C2804.43,-2484.85 2753.15,-2589.42 2726.41,-2643.96"/>
<text text-anchor="middle" x="2752.44" y="-2540.13" font-family="Times,serif" font-size="14.00">0.819628</text>
</g>
<!-- id_27628933_DOT_24 -->
<g id="node24" class="node">
<title>id_27628933_DOT_24</title>
<polygon fill="darkmagenta" stroke="darkmagenta" points="2907.64,-1976.32 2911.07,-1976.51 2914.47,-1976.8 2917.81,-1977.18 2921.09,-1977.66 2924.29,-1978.23 2927.41,-1978.89 2930.43,-1979.64 2933.33,-1980.48 2936.11,-1981.4 2938.76,-1982.41 2941.26,-1983.49 2943.61,-1984.66 2945.81,-1985.89 2947.84,-1987.2 2949.7,-1988.57 2951.39,-1990 2952.9,-1991.49 2954.23,-1993.04 2955.37,-1994.64 2956.33,-1996.28 2957.11,-1997.97 2957.71,-1999.69 2958.12,-2001.45 2958.36,-2003.23 2958.42,-2005.03 2958.32,-2006.86 2958.05,-2008.69 2957.62,-2010.54 2957.03,-2012.38 2956.3,-2014.22 2955.43,-2016.06 2954.43,-2017.88 2953.3,-2019.69 2952.05,-2021.47 2950.69,-2023.22 2949.22,-2024.95 2947.66,-2026.63 2946.02,-2028.28 2944.29,-2029.87 2942.49,-2031.42 2940.62,-2032.92 2938.69,-2034.35 2936.7,-2035.72 2934.67,-2037.03 2932.6,-2038.26 2930.49,-2039.42 2928.34,-2040.51 2926.17,-2041.51 2923.97,-2042.43 2921.76,-2043.27 2919.52,-2044.02 2917.28,-2044.68 2915.02,-2045.25 2912.75,-2045.73 2910.47,-2046.12 2908.19,-2046.4 2905.9,-2046.6 2903.61,-2046.69 2901.32,-2046.69 2899.03,-2046.6 2896.75,-2046.4 2894.47,-2046.12 2892.19,-2045.73 2889.92,-2045.25 2887.66,-2044.68 2885.41,-2044.02 2883.18,-2043.27 2880.96,-2042.43 2878.76,-2041.51 2876.59,-2040.51 2874.45,-2039.42 2872.34,-2038.26 2870.26,-2037.03 2868.23,-2035.72 2866.25,-2034.35 2864.32,-2032.92 2862.45,-2031.42 2860.65,-2029.87 2858.92,-2028.28 2857.27,-2026.63 2855.71,-2024.95 2854.25,-2023.22 2852.89,-2021.47 2851.64,-2019.69 2850.51,-2017.88 2849.5,-2016.06 2848.63,-2014.22 2847.9,-2012.38 2847.32,-2010.54 2846.89,-2008.69 2846.62,-2006.86 2846.51,-2005.03 2846.57,-2003.23 2846.81,-2001.45 2847.23,-1999.69 2847.82,-1997.97 2848.6,-1996.28 2849.56,-1994.64 2850.71,-1993.04 2852.04,-1991.49 2853.54,-1990 2855.23,-1988.57 2857.09,-1987.2 2859.12,-1985.89 2861.32,-1984.66 2863.67,-1983.49 2866.18,-1982.41 2868.82,-1981.4 2871.6,-1980.48 2874.51,-1979.64 2877.52,-1978.89 2880.64,-1978.23 2883.84,-1977.66 2887.12,-1977.18 2890.47,-1976.8 2893.86,-1976.51 2897.29,-1976.32 2900.74,-1976.22 2904.2,-1976.22 2907.64,-1976.32"/>
<text text-anchor="start" x="2873.3" y="-2021.26" font-family="Times,serif" font-size="14.00">C0430400</text>
<text text-anchor="start" x="2883.03" y="-2007.26" font-family="Times,serif" font-size="14.00">culture</text>
<text text-anchor="start" x="2879.52" y="-1993.26" font-family="Times,serif" font-size="14.00">176:176</text>
</g>
<!-- id_27628933_DOT_8&#45;&#45;id_27628933_DOT_24 -->
<g id="edge19" class="edge">
<title>id_27628933_DOT_8&#45;&#45;id_27628933_DOT_24</title>
<path fill="none" stroke="black" stroke-dasharray="1,5" d="M2852.88,-2360.81C2863.3,-2287.4 2887.1,-2119.71 2897.48,-2046.61"/>
<text text-anchor="middle" x="2848.93" y="-2206.51" font-family="Times,serif" font-size="14.00">0.682483</text>
</g>
<!-- id_27628933_DOT_28 -->
<g id="node28" class="node">
<title>id_27628933_DOT_28</title>
<polygon fill="darksalmon" stroke="darksalmon" points="3279.25,-2298.4 3282.68,-2298.59 3286.07,-2298.88 3289.42,-2299.26 3292.7,-2299.74 3295.9,-2300.31 3299.02,-2300.97 3302.03,-2301.72 3304.94,-2302.56 3307.72,-2303.48 3310.36,-2304.49 3312.87,-2305.57 3315.22,-2306.74 3317.42,-2307.97 3319.45,-2309.28 3321.31,-2310.65 3323,-2312.08 3324.5,-2313.57 3325.83,-2315.12 3326.98,-2316.72 3327.94,-2318.36 3328.72,-2320.05 3329.31,-2321.77 3329.73,-2323.53 3329.97,-2325.31 3330.03,-2327.11 3329.92,-2328.94 3329.65,-2330.77 3329.22,-2332.62 3328.64,-2334.46 3327.91,-2336.3 3327.04,-2338.14 3326.03,-2339.96 3324.9,-2341.77 3323.65,-2343.55 3322.29,-2345.3 3320.83,-2347.03 3319.27,-2348.71 3317.62,-2350.36 3315.89,-2351.95 3314.09,-2353.5 3312.22,-2355 3310.29,-2356.43 3308.31,-2357.8 3306.28,-2359.11 3304.2,-2360.34 3302.09,-2361.5 3299.95,-2362.59 3297.78,-2363.59 3295.58,-2364.51 3293.36,-2365.35 3291.13,-2366.1 3288.88,-2366.76 3286.62,-2367.33 3284.35,-2367.81 3282.07,-2368.2 3279.79,-2368.48 3277.51,-2368.68 3275.22,-2368.77 3272.93,-2368.77 3270.64,-2368.68 3268.35,-2368.48 3266.07,-2368.2 3263.79,-2367.81 3261.52,-2367.33 3259.26,-2366.76 3257.02,-2366.1 3254.78,-2365.35 3252.57,-2364.51 3250.37,-2363.59 3248.2,-2362.59 3246.05,-2361.5 3243.94,-2360.34 3241.87,-2359.11 3239.84,-2357.8 3237.85,-2356.43 3235.92,-2355 3234.05,-2353.5 3232.25,-2351.95 3230.52,-2350.36 3228.88,-2348.71 3227.32,-2347.03 3225.85,-2345.3 3224.49,-2343.55 3223.24,-2341.77 3222.11,-2339.96 3221.11,-2338.14 3220.24,-2336.3 3219.51,-2334.46 3218.92,-2332.62 3218.49,-2330.77 3218.22,-2328.94 3218.12,-2327.11 3218.18,-2325.31 3218.42,-2323.53 3218.83,-2321.77 3219.43,-2320.05 3220.21,-2318.36 3221.17,-2316.72 3222.31,-2315.12 3223.64,-2313.57 3225.15,-2312.08 3226.84,-2310.65 3228.7,-2309.28 3230.73,-2307.97 3232.93,-2306.74 3235.28,-2305.57 3237.78,-2304.49 3240.43,-2303.48 3243.21,-2302.56 3246.11,-2301.72 3249.13,-2300.97 3252.25,-2300.31 3255.45,-2299.74 3258.73,-2299.26 3262.07,-2298.88 3265.47,-2298.59 3268.89,-2298.4 3272.34,-2298.3 3275.8,-2298.3 3279.25,-2298.4"/>
<text text-anchor="start" x="3244.9" y="-2343.34" font-family="Times,serif" font-size="14.00">C0013618</text>
<text text-anchor="start" x="3255.97" y="-2329.34" font-family="Times,serif" font-size="14.00">EDTA</text>
<text text-anchor="start" x="3251.13" y="-2315.34" font-family="Times,serif" font-size="14.00">193:193</text>
</g>
<!-- id_27628933_DOT_8&#45;&#45;id_27628933_DOT_28 -->
<g id="edge20" class="edge">
<title>id_27628933_DOT_8&#45;&#45;id_27628933_DOT_28</title>
<path fill="none" stroke="black" stroke-dasharray="1,5" d="M2934.6,-2383.55C3021.14,-2370.8 3151.16,-2351.65 3222.57,-2341.13"/>
<text text-anchor="middle" x="3052.59" y="-2365.14" font-family="Times,serif" font-size="14.00">0.571182</text>
</g>
<!-- id_27628933_DOT_9 -->
<g id="node9" class="node">
<title>id_27628933_DOT_9</title>
<polygon fill="cadetblue" stroke="cadetblue" points="3010.53,-1589.3 3016.99,-1589.49 3023.37,-1589.78 3029.67,-1590.16 3035.84,-1590.64 3041.87,-1591.21 3047.74,-1591.87 3053.41,-1592.62 3058.88,-1593.46 3064.11,-1594.38 3069.09,-1595.39 3073.81,-1596.47 3078.24,-1597.63 3082.37,-1598.87 3086.2,-1600.17 3089.7,-1601.54 3092.87,-1602.98 3095.71,-1604.47 3098.21,-1606.02 3100.37,-1607.62 3102.17,-1609.26 3103.64,-1610.95 3104.76,-1612.67 3105.54,-1614.43 3105.99,-1616.21 3106.11,-1618.01 3105.91,-1619.84 3105.4,-1621.67 3104.59,-1623.51 3103.49,-1625.36 3102.12,-1627.2 3100.48,-1629.04 3098.59,-1630.86 3096.46,-1632.66 3094.11,-1634.45 3091.55,-1636.2 3088.79,-1637.92 3085.86,-1639.61 3082.76,-1641.25 3079.5,-1642.85 3076.11,-1644.4 3072.59,-1645.89 3068.96,-1647.33 3065.23,-1648.7 3061.41,-1650 3057.5,-1651.24 3053.53,-1652.4 3049.49,-1653.48 3045.4,-1654.49 3041.27,-1655.41 3037.1,-1656.25 3032.89,-1657 3028.66,-1657.66 3024.41,-1658.23 3020.14,-1658.71 3015.85,-1659.09 3011.55,-1659.38 3007.25,-1659.57 3002.94,-1659.67 2998.63,-1659.67 2994.33,-1659.57 2990.02,-1659.38 2985.73,-1659.09 2981.44,-1658.71 2977.17,-1658.23 2972.92,-1657.66 2968.68,-1657 2964.48,-1656.25 2960.31,-1655.41 2956.17,-1654.49 2952.08,-1653.48 2948.05,-1652.4 2944.08,-1651.24 2940.17,-1650 2936.35,-1648.7 2932.61,-1647.33 2928.98,-1645.89 2925.47,-1644.4 2922.07,-1642.85 2918.82,-1641.25 2915.72,-1639.61 2912.78,-1637.92 2910.03,-1636.2 2907.47,-1634.45 2905.12,-1632.66 2902.99,-1630.86 2901.1,-1629.04 2899.46,-1627.2 2898.08,-1625.36 2896.99,-1623.51 2896.18,-1621.67 2895.67,-1619.84 2895.47,-1618.01 2895.59,-1616.21 2896.04,-1614.43 2896.82,-1612.67 2897.94,-1610.95 2899.4,-1609.26 2901.21,-1607.62 2903.37,-1606.02 2905.87,-1604.47 2908.7,-1602.98 2911.88,-1601.54 2915.38,-1600.17 2919.21,-1598.87 2923.34,-1597.63 2927.77,-1596.47 2932.49,-1595.39 2937.47,-1594.38 2942.7,-1593.46 2948.16,-1592.62 2953.84,-1591.87 2959.7,-1591.21 2965.74,-1590.64 2971.91,-1590.16 2978.2,-1589.78 2984.59,-1589.49 2991.04,-1589.3 2997.54,-1589.2 3004.04,-1589.2 3010.53,-1589.3"/>
<text text-anchor="start" x="2971.62" y="-1634.24" font-family="Times,serif" font-size="14.00">C1257974</text>
<text text-anchor="start" x="2938.8" y="-1620.24" font-family="Times,serif" font-size="14.00">regenerative medicine</text>
<text text-anchor="start" x="2984.84" y="-1606.24" font-family="Times,serif" font-size="14.00">35:36</text>
</g>
<!-- id_27628933_DOT_9&#45;&#45;id_27628933_DOT_24 -->
<g id="edge21" class="edge">
<title>id_27628933_DOT_9&#45;&#45;id_27628933_DOT_24</title>
<path fill="none" stroke="black" stroke-dasharray="1,5" d="M2991.8,-1659.81C2973.08,-1733.52 2930.07,-1902.79 2911.4,-1976.31"/>
<text text-anchor="middle" x="2925.35" y="-1820.86" font-family="Times,serif" font-size="14.00">0.780660</text>
</g>
<!-- id_27628933_DOT_30 -->
<g id="node30" class="node">
<title>id_27628933_DOT_30</title>
<polygon fill="blue" stroke="blue" points="4012.4,-2008.11 4015.83,-2008.3 4019.22,-2008.59 4022.56,-2008.97 4025.85,-2009.45 4029.05,-2010.02 4032.17,-2010.68 4035.18,-2011.43 4038.08,-2012.27 4040.86,-2013.19 4043.51,-2014.2 4046.02,-2015.28 4048.37,-2016.44 4050.57,-2017.68 4052.6,-2018.98 4054.46,-2020.35 4056.15,-2021.79 4057.65,-2023.28 4058.98,-2024.83 4060.13,-2026.43 4061.09,-2028.07 4061.87,-2029.76 4062.46,-2031.48 4062.88,-2033.23 4063.11,-2035.02 4063.18,-2036.82 4063.07,-2038.64 4062.8,-2040.48 4062.37,-2042.32 4061.79,-2044.17 4061.06,-2046.01 4060.19,-2047.85 4059.18,-2049.67 4058.05,-2051.47 4056.8,-2053.26 4055.44,-2055.01 4053.98,-2056.73 4052.42,-2058.42 4050.77,-2060.06 4049.04,-2061.66 4047.24,-2063.21 4045.37,-2064.7 4043.44,-2066.14 4041.46,-2067.51 4039.43,-2068.81 4037.35,-2070.05 4035.24,-2071.21 4033.1,-2072.29 4030.93,-2073.3 4028.73,-2074.22 4026.51,-2075.06 4024.28,-2075.81 4022.03,-2076.47 4019.77,-2077.04 4017.5,-2077.52 4015.22,-2077.9 4012.94,-2078.19 4010.66,-2078.38 4008.37,-2078.48 4006.08,-2078.48 4003.79,-2078.38 4001.5,-2078.19 3999.22,-2077.9 3996.94,-2077.52 3994.67,-2077.04 3992.41,-2076.47 3990.17,-2075.81 3987.93,-2075.06 3985.71,-2074.22 3983.52,-2073.3 3981.35,-2072.29 3979.2,-2071.21 3977.09,-2070.05 3975.02,-2068.81 3972.99,-2067.51 3971,-2066.14 3969.07,-2064.7 3967.2,-2063.21 3965.4,-2061.66 3963.67,-2060.06 3962.03,-2058.42 3960.47,-2056.73 3959,-2055.01 3957.64,-2053.26 3956.39,-2051.47 3955.26,-2049.67 3954.26,-2047.85 3953.39,-2046.01 3952.66,-2044.17 3952.07,-2042.32 3951.64,-2040.48 3951.37,-2038.64 3951.27,-2036.82 3951.33,-2035.02 3951.57,-2033.23 3951.98,-2031.48 3952.58,-2029.76 3953.36,-2028.07 3954.32,-2026.43 3955.46,-2024.83 3956.79,-2023.28 3958.3,-2021.79 3959.99,-2020.35 3961.85,-2018.98 3963.88,-2017.68 3966.07,-2016.44 3968.43,-2015.28 3970.93,-2014.2 3973.58,-2013.19 3976.36,-2012.27 3979.26,-2011.43 3982.28,-2010.68 3985.39,-2010.02 3988.6,-2009.45 3991.88,-2008.97 3995.22,-2008.59 3998.62,-2008.3 4002.04,-2008.11 4005.49,-2008.01 4008.95,-2008.01 4012.4,-2008.11"/>
<text text-anchor="start" x="3978.05" y="-2053.05" font-family="Times,serif" font-size="14.00">C0038250</text>
<text text-anchor="start" x="3994.39" y="-2039.05" font-family="Times,serif" font-size="14.00">cells</text>
<text text-anchor="start" x="3984.79" y="-2025.05" font-family="Times,serif" font-size="14.00">211:211</text>
</g>
<!-- id_27628933_DOT_10&#45;&#45;id_27628933_DOT_30 -->
<g id="edge7" class="edge">
<title>id_27628933_DOT_10&#45;&#45;id_27628933_DOT_30</title>
<path fill="none" stroke="black" d="M4318.18,-1911.38C4252.42,-1939.27 4126.59,-1992.63 4056.85,-2022.2"/>
<text text-anchor="middle" x="4161.26" y="-1969.59" font-family="Times,serif" font-size="14.00">0.008844</text>
</g>
<!-- id_27628933_DOT_13 -->
<g id="node13" class="node">
<title>id_27628933_DOT_13</title>
<polygon fill="blueviolet" stroke="blueviolet" points="1486.8,-1007.44 1490.23,-1007.63 1493.62,-1007.92 1496.96,-1008.3 1500.24,-1008.78 1503.45,-1009.35 1506.56,-1010.01 1509.58,-1010.76 1512.48,-1011.6 1515.26,-1012.52 1517.91,-1013.53 1520.41,-1014.61 1522.77,-1015.78 1524.96,-1017.01 1527,-1018.32 1528.86,-1019.69 1530.54,-1021.12 1532.05,-1022.61 1533.38,-1024.16 1534.52,-1025.76 1535.49,-1027.4 1536.26,-1029.09 1536.86,-1030.81 1537.27,-1032.57 1537.51,-1034.35 1537.58,-1036.16 1537.47,-1037.98 1537.2,-1039.81 1536.77,-1041.66 1536.19,-1043.5 1535.46,-1045.34 1534.58,-1047.18 1533.58,-1049 1532.45,-1050.81 1531.2,-1052.59 1529.84,-1054.34 1528.38,-1056.07 1526.82,-1057.75 1525.17,-1059.4 1523.44,-1061 1521.64,-1062.54 1519.77,-1064.04 1517.84,-1065.47 1515.86,-1066.84 1513.83,-1068.15 1511.75,-1069.38 1509.64,-1070.54 1507.5,-1071.63 1505.32,-1072.63 1503.13,-1073.55 1500.91,-1074.39 1498.68,-1075.14 1496.43,-1075.8 1494.17,-1076.37 1491.9,-1076.85 1489.62,-1077.24 1487.34,-1077.52 1485.05,-1077.72 1482.77,-1077.81 1480.48,-1077.81 1478.19,-1077.72 1475.9,-1077.52 1473.62,-1077.24 1471.34,-1076.85 1469.07,-1076.37 1466.81,-1075.8 1464.56,-1075.14 1462.33,-1074.39 1460.11,-1073.55 1457.92,-1072.63 1455.74,-1071.63 1453.6,-1070.54 1451.49,-1069.38 1449.42,-1068.15 1447.38,-1066.84 1445.4,-1065.47 1443.47,-1064.04 1441.6,-1062.54 1439.8,-1061 1438.07,-1059.4 1436.42,-1057.75 1434.86,-1056.07 1433.4,-1054.34 1432.04,-1052.59 1430.79,-1050.81 1429.66,-1049 1428.66,-1047.18 1427.79,-1045.34 1427.05,-1043.5 1426.47,-1041.66 1426.04,-1039.81 1425.77,-1037.98 1425.66,-1036.16 1425.73,-1034.35 1425.97,-1032.57 1426.38,-1030.81 1426.98,-1029.09 1427.76,-1027.4 1428.72,-1025.76 1429.86,-1024.16 1431.19,-1022.61 1432.7,-1021.12 1434.38,-1019.69 1436.25,-1018.32 1438.28,-1017.01 1440.47,-1015.78 1442.83,-1014.61 1445.33,-1013.53 1447.98,-1012.52 1450.76,-1011.6 1453.66,-1010.76 1456.68,-1010.01 1459.79,-1009.35 1463,-1008.78 1466.28,-1008.3 1469.62,-1007.92 1473.01,-1007.63 1476.44,-1007.44 1479.89,-1007.34 1483.35,-1007.34 1486.8,-1007.44"/>
<text text-anchor="start" x="1452.45" y="-1052.38" font-family="Times,serif" font-size="14.00">C0225326</text>
<text text-anchor="start" x="1466.07" y="-1038.38" font-family="Times,serif" font-size="14.00">fibers</text>
<text text-anchor="start" x="1458.68" y="-1024.38" font-family="Times,serif" font-size="14.00">100:100</text>
</g>
<!-- id_27628933_DOT_11&#45;&#45;id_27628933_DOT_13 -->
<g id="edge8" class="edge">
<title>id_27628933_DOT_11&#45;&#45;id_27628933_DOT_13</title>
<path fill="none" stroke="black" d="M1328.97,-731.59C1361.46,-797.79 1432.37,-942.25 1464.81,-1008.34"/>
<text text-anchor="middle" x="1370.64" y="-872.76" font-family="Times,serif" font-size="14.00">0.056339</text>
</g>
<!-- id_27628933_DOT_17 -->
<g id="node17" class="node">
<title>id_27628933_DOT_17</title>
<polygon fill="cornflowerblue" stroke="cornflowerblue" points="1059.49,-3041.38 1062.92,-3041.57 1066.31,-3041.86 1069.65,-3042.25 1072.93,-3042.72 1076.14,-3043.29 1079.25,-3043.96 1082.27,-3044.71 1085.17,-3045.54 1087.95,-3046.47 1090.6,-3047.47 1093.1,-3048.56 1095.46,-3049.72 1097.65,-3050.95 1099.69,-3052.26 1101.55,-3053.63 1103.23,-3055.06 1104.74,-3056.56 1106.07,-3058.1 1107.21,-3059.7 1108.17,-3061.35 1108.95,-3063.03 1109.55,-3064.75 1109.96,-3066.51 1110.2,-3068.29 1110.27,-3070.1 1110.16,-3071.92 1109.89,-3073.75 1109.46,-3075.6 1108.88,-3077.44 1108.14,-3079.29 1107.27,-3081.12 1106.27,-3082.94 1105.14,-3084.75 1103.89,-3086.53 1102.53,-3088.29 1101.07,-3090.01 1099.51,-3091.69 1097.86,-3093.34 1096.13,-3094.94 1094.33,-3096.48 1092.46,-3097.98 1090.53,-3099.41 1088.55,-3100.78 1086.51,-3102.09 1084.44,-3103.32 1082.33,-3104.48 1080.19,-3105.57 1078.01,-3106.57 1075.82,-3107.5 1073.6,-3108.33 1071.37,-3109.08 1069.12,-3109.75 1066.86,-3110.32 1064.59,-3110.79 1062.31,-3111.18 1060.03,-3111.47 1057.74,-3111.66 1055.45,-3111.76 1053.17,-3111.76 1050.88,-3111.66 1048.59,-3111.47 1046.31,-3111.18 1044.03,-3110.79 1041.76,-3110.32 1039.5,-3109.75 1037.25,-3109.08 1035.02,-3108.33 1032.8,-3107.5 1030.61,-3106.57 1028.43,-3105.57 1026.29,-3104.48 1024.18,-3103.32 1022.1,-3102.09 1020.07,-3100.78 1018.09,-3099.41 1016.16,-3097.98 1014.29,-3096.48 1012.49,-3094.94 1010.76,-3093.34 1009.11,-3091.69 1007.55,-3090.01 1006.09,-3088.29 1004.73,-3086.53 1003.48,-3084.75 1002.35,-3082.94 1001.35,-3081.12 1000.47,-3079.29 999.74,-3077.44 999.16,-3075.6 998.73,-3073.75 998.46,-3071.92 998.35,-3070.1 998.42,-3068.29 998.66,-3066.51 999.07,-3064.75 999.67,-3063.03 1000.44,-3061.35 1001.41,-3059.7 1002.55,-3058.1 1003.88,-3056.56 1005.39,-3055.06 1007.07,-3053.63 1008.93,-3052.26 1010.97,-3050.95 1013.16,-3049.72 1015.52,-3048.56 1018.02,-3047.47 1020.67,-3046.47 1023.45,-3045.54 1026.35,-3044.71 1029.37,-3043.96 1032.48,-3043.29 1035.69,-3042.72 1038.97,-3042.25 1042.31,-3041.86 1045.7,-3041.57 1049.13,-3041.38 1052.58,-3041.28 1056.04,-3041.28 1059.49,-3041.38"/>
<text text-anchor="start" x="1025.14" y="-3086.32" font-family="Times,serif" font-size="14.00">C0427008</text>
<text text-anchor="start" x="1031.1" y="-3072.32" font-family="Times,serif" font-size="14.00">stiffness</text>
<text text-anchor="start" x="1031.36" y="-3058.32" font-family="Times,serif" font-size="14.00">129:129</text>
</g>
<!-- id_27628933_DOT_12&#45;&#45;id_27628933_DOT_17 -->
<g id="edge22" class="edge">
<title>id_27628933_DOT_12&#45;&#45;id_27628933_DOT_17</title>
<path fill="none" stroke="black" stroke-dasharray="1,5" d="M748.33,-3254.48C817.72,-3214.12 951.43,-3136.36 1016.66,-3098.42"/>
<text text-anchor="middle" x="856.25" y="-3179.25" font-family="Times,serif" font-size="14.00">0.943965</text>
</g>
<!-- id_27628933_DOT_19 -->
<g id="node19" class="node">
<title>id_27628933_DOT_19</title>
<polygon fill="aquamarine" stroke="aquamarine" points="598.15,-3631.44 601.58,-3631.64 604.97,-3631.92 608.32,-3632.31 611.6,-3632.79 614.8,-3633.36 617.92,-3634.02 620.93,-3634.77 623.84,-3635.61 626.62,-3636.53 629.26,-3637.53 631.77,-3638.62 634.12,-3639.78 636.32,-3641.01 638.35,-3642.32 640.21,-3643.69 641.9,-3645.12 643.41,-3646.62 644.73,-3648.17 645.88,-3649.76 646.84,-3651.41 647.62,-3653.09 648.21,-3654.82 648.63,-3656.57 648.87,-3658.35 648.93,-3660.16 648.83,-3661.98 648.56,-3663.82 648.13,-3665.66 647.54,-3667.5 646.81,-3669.35 645.94,-3671.18 644.93,-3673.01 643.8,-3674.81 642.56,-3676.59 641.2,-3678.35 639.73,-3680.07 638.17,-3681.76 636.52,-3683.4 634.8,-3685 632.99,-3686.55 631.13,-3688.04 629.2,-3689.47 627.21,-3690.84 625.18,-3692.15 623.11,-3693.38 621,-3694.55 618.85,-3695.63 616.68,-3696.64 614.48,-3697.56 612.27,-3698.4 610.03,-3699.15 607.78,-3699.81 605.52,-3700.38 603.25,-3700.86 600.98,-3701.24 598.7,-3701.53 596.41,-3701.72 594.12,-3701.82 591.83,-3701.82 589.54,-3701.72 587.26,-3701.53 584.97,-3701.24 582.7,-3700.86 580.43,-3700.38 578.17,-3699.81 575.92,-3699.15 573.68,-3698.4 571.47,-3697.56 569.27,-3696.64 567.1,-3695.63 564.96,-3694.55 562.84,-3693.38 560.77,-3692.15 558.74,-3690.84 556.76,-3689.47 554.83,-3688.04 552.96,-3686.55 551.15,-3685 549.43,-3683.4 547.78,-3681.76 546.22,-3680.07 544.76,-3678.35 543.4,-3676.59 542.15,-3674.81 541.02,-3673.01 540.01,-3671.18 539.14,-3669.35 538.41,-3667.5 537.83,-3665.66 537.4,-3663.82 537.12,-3661.98 537.02,-3660.16 537.08,-3658.35 537.32,-3656.57 537.74,-3654.82 538.33,-3653.09 539.11,-3651.41 540.07,-3649.76 541.22,-3648.17 542.54,-3646.62 544.05,-3645.12 545.74,-3643.69 547.6,-3642.32 549.63,-3641.01 551.83,-3639.78 554.18,-3638.62 556.69,-3637.53 559.33,-3636.53 562.11,-3635.61 565.02,-3634.77 568.03,-3634.02 571.15,-3633.36 574.35,-3632.79 577.63,-3632.31 580.98,-3631.92 584.37,-3631.64 587.8,-3631.44 591.25,-3631.35 594.7,-3631.35 598.15,-3631.44"/>
<text text-anchor="start" x="563.81" y="-3676.38" font-family="Times,serif" font-size="14.00">C0063083</text>
<text text-anchor="start" x="568.09" y="-3662.38" font-family="Times,serif" font-size="14.00">hydrogel</text>
<text text-anchor="start" x="570.03" y="-3648.38" font-family="Times,serif" font-size="14.00">152:152</text>
</g>
<!-- id_27628933_DOT_12&#45;&#45;id_27628933_DOT_19 -->
<g id="edge9" class="edge">
<title>id_27628933_DOT_12&#45;&#45;id_27628933_DOT_19</title>
<path fill="none" stroke="black" d="M694.38,-3314.7C673.26,-3387.98 624.26,-3558.02 603.06,-3631.6"/>
<text text-anchor="middle" x="622.47" y="-3475.95" font-family="Times,serif" font-size="14.00">0.010247</text>
</g>
<!-- id_27628933_DOT_29 -->
<g id="node29" class="node">
<title>id_27628933_DOT_29</title>
<polygon fill="blueviolet" stroke="blueviolet" points="1658.5,-1364.86 1661.93,-1365.05 1665.32,-1365.34 1668.66,-1365.73 1671.94,-1366.2 1675.15,-1366.78 1678.27,-1367.44 1681.28,-1368.19 1684.18,-1369.02 1686.96,-1369.95 1689.61,-1370.95 1692.12,-1372.04 1694.47,-1373.2 1696.67,-1374.43 1698.7,-1375.74 1700.56,-1377.11 1702.24,-1378.54 1703.75,-1380.04 1705.08,-1381.58 1706.23,-1383.18 1707.19,-1384.83 1707.96,-1386.51 1708.56,-1388.23 1708.98,-1389.99 1709.21,-1391.77 1709.28,-1393.58 1709.17,-1395.4 1708.9,-1397.24 1708.47,-1399.08 1707.89,-1400.92 1707.16,-1402.77 1706.29,-1404.6 1705.28,-1406.42 1704.15,-1408.23 1702.9,-1410.01 1701.54,-1411.77 1700.08,-1413.49 1698.52,-1415.18 1696.87,-1416.82 1695.14,-1418.42 1693.34,-1419.97 1691.47,-1421.46 1689.54,-1422.89 1687.56,-1424.26 1685.53,-1425.57 1683.45,-1426.8 1681.34,-1427.96 1679.2,-1429.05 1677.03,-1430.05 1674.83,-1430.98 1672.61,-1431.81 1670.38,-1432.57 1668.13,-1433.23 1665.87,-1433.8 1663.6,-1434.27 1661.32,-1434.66 1659.04,-1434.95 1656.75,-1435.14 1654.47,-1435.24 1652.18,-1435.24 1649.89,-1435.14 1647.6,-1434.95 1645.32,-1434.66 1643.04,-1434.27 1640.77,-1433.8 1638.51,-1433.23 1636.26,-1432.57 1634.03,-1431.81 1631.81,-1430.98 1629.62,-1430.05 1627.45,-1429.05 1625.3,-1427.96 1623.19,-1426.8 1621.12,-1425.57 1619.08,-1424.26 1617.1,-1422.89 1615.17,-1421.46 1613.3,-1419.97 1611.5,-1418.42 1609.77,-1416.82 1608.12,-1415.18 1606.57,-1413.49 1605.1,-1411.77 1603.74,-1410.01 1602.49,-1408.23 1601.36,-1406.42 1600.36,-1404.6 1599.49,-1402.77 1598.76,-1400.92 1598.17,-1399.08 1597.74,-1397.24 1597.47,-1395.4 1597.36,-1393.58 1597.43,-1391.77 1597.67,-1389.99 1598.08,-1388.23 1598.68,-1386.51 1599.46,-1384.83 1600.42,-1383.18 1601.56,-1381.58 1602.89,-1380.04 1604.4,-1378.54 1606.08,-1377.11 1607.95,-1375.74 1609.98,-1374.43 1612.17,-1373.2 1614.53,-1372.04 1617.03,-1370.95 1619.68,-1369.95 1622.46,-1369.02 1625.36,-1368.19 1628.38,-1367.44 1631.49,-1366.78 1634.7,-1366.2 1637.98,-1365.73 1641.32,-1365.34 1644.72,-1365.05 1648.14,-1364.86 1651.59,-1364.77 1655.05,-1364.77 1658.5,-1364.86"/>
<text text-anchor="start" x="1624.15" y="-1409.8" font-family="Times,serif" font-size="14.00">C0225326</text>
<text text-anchor="start" x="1637.77" y="-1395.8" font-family="Times,serif" font-size="14.00">fibers</text>
<text text-anchor="start" x="1630.38" y="-1381.8" font-family="Times,serif" font-size="14.00">204:204</text>
</g>
<!-- id_27628933_DOT_13&#45;&#45;id_27628933_DOT_29 -->
<g id="edge10" class="edge">
<title>id_27628933_DOT_13&#45;&#45;id_27628933_DOT_29</title>
<path fill="none" stroke="black" d="M1497.47,-1075.56C1529.97,-1143.22 1603.89,-1297.1 1636.89,-1365.79"/>
<text text-anchor="middle" x="1540.93" y="-1223.48" font-family="Times,serif" font-size="14.00">0.018866</text>
</g>
<!-- id_27628933_DOT_31 -->
<g id="node31" class="node">
<title>id_27628933_DOT_31</title>
<polygon fill="darkseagreen" stroke="darkseagreen" points="1971.33,-2166.67 1974.76,-2166.86 1978.15,-2167.15 1981.5,-2167.53 1984.78,-2168.01 1987.98,-2168.58 1991.1,-2169.24 1994.11,-2169.99 1997.02,-2170.83 1999.8,-2171.76 2002.44,-2172.76 2004.95,-2173.84 2007.3,-2175.01 2009.5,-2176.24 2011.53,-2177.55 2013.39,-2178.92 2015.08,-2180.35 2016.59,-2181.84 2017.92,-2183.39 2019.06,-2184.99 2020.02,-2186.63 2020.8,-2188.32 2021.39,-2190.04 2021.81,-2191.8 2022.05,-2193.58 2022.11,-2195.39 2022.01,-2197.21 2021.74,-2199.04 2021.31,-2200.89 2020.72,-2202.73 2019.99,-2204.57 2019.12,-2206.41 2018.11,-2208.23 2016.98,-2210.04 2015.74,-2211.82 2014.38,-2213.57 2012.91,-2215.3 2011.35,-2216.98 2009.71,-2218.63 2007.98,-2220.23 2006.17,-2221.77 2004.31,-2223.27 2002.38,-2224.7 2000.39,-2226.07 1998.36,-2227.38 1996.29,-2228.61 1994.18,-2229.77 1992.03,-2230.86 1989.86,-2231.86 1987.66,-2232.78 1985.45,-2233.62 1983.21,-2234.37 1980.96,-2235.03 1978.7,-2235.6 1976.43,-2236.08 1974.16,-2236.47 1971.88,-2236.75 1969.59,-2236.95 1967.3,-2237.04 1965.01,-2237.04 1962.72,-2236.95 1960.44,-2236.75 1958.15,-2236.47 1955.88,-2236.08 1953.61,-2235.6 1951.35,-2235.03 1949.1,-2234.37 1946.86,-2233.62 1944.65,-2232.78 1942.45,-2231.86 1940.28,-2230.86 1938.14,-2229.77 1936.02,-2228.61 1933.95,-2227.38 1931.92,-2226.07 1929.94,-2224.7 1928.01,-2223.27 1926.14,-2221.77 1924.33,-2220.23 1922.61,-2218.63 1920.96,-2216.98 1919.4,-2215.3 1917.94,-2213.57 1916.58,-2211.82 1915.33,-2210.04 1914.2,-2208.23 1913.19,-2206.41 1912.32,-2204.57 1911.59,-2202.73 1911.01,-2200.89 1910.58,-2199.04 1910.31,-2197.21 1910.2,-2195.39 1910.26,-2193.58 1910.5,-2191.8 1910.92,-2190.04 1911.51,-2188.32 1912.29,-2186.63 1913.25,-2184.99 1914.4,-2183.39 1915.72,-2181.84 1917.23,-2180.35 1918.92,-2178.92 1920.78,-2177.55 1922.81,-2176.24 1925.01,-2175.01 1927.36,-2173.84 1929.87,-2172.76 1932.51,-2171.76 1935.29,-2170.83 1938.2,-2169.99 1941.21,-2169.24 1944.33,-2168.58 1947.53,-2168.01 1950.81,-2167.53 1954.16,-2167.15 1957.55,-2166.86 1960.98,-2166.67 1964.43,-2166.57 1967.88,-2166.57 1971.33,-2166.67"/>
<text text-anchor="start" x="1936.99" y="-2211.61" font-family="Times,serif" font-size="14.00">C1510438</text>
<text text-anchor="start" x="1950.99" y="-2197.61" font-family="Times,serif" font-size="14.00">assay</text>
<text text-anchor="start" x="1943.21" y="-2183.61" font-family="Times,serif" font-size="14.00">215:215</text>
</g>
<!-- id_27628933_DOT_14&#45;&#45;id_27628933_DOT_31 -->
<g id="edge23" class="edge">
<title>id_27628933_DOT_14&#45;&#45;id_27628933_DOT_31</title>
<path fill="none" stroke="black" stroke-dasharray="1,5" d="M2340.18,-2285.86C2255.72,-2266.88 2095.81,-2230.94 2015.21,-2212.83"/>
<text text-anchor="middle" x="2151.45" y="-2252.14" font-family="Times,serif" font-size="14.00">0.753271</text>
</g>
<!-- id_27628933_DOT_15 -->
<g id="node15" class="node">
<title>id_27628933_DOT_15</title>
<polygon fill="coral" stroke="coral" points="3715.03,-2264.7 3730.62,-2264.89 3746.04,-2265.18 3761.23,-2265.57 3776.14,-2266.04 3790.71,-2266.61 3804.87,-2267.27 3818.57,-2268.02 3831.77,-2268.86 3844.4,-2269.79 3856.43,-2270.79 3867.81,-2271.88 3878.51,-2273.04 3888.49,-2274.27 3897.73,-2275.58 3906.19,-2276.95 3913.85,-2278.38 3920.71,-2279.87 3926.74,-2281.42 3931.94,-2283.02 3936.31,-2284.66 3939.85,-2286.35 3942.55,-2288.07 3944.44,-2289.83 3945.52,-2291.61 3945.81,-2293.42 3945.33,-2295.24 3944.1,-2297.07 3942.15,-2298.92 3939.5,-2300.76 3936.17,-2302.6 3932.21,-2304.44 3927.65,-2306.26 3922.51,-2308.07 3916.83,-2309.85 3910.65,-2311.6 3904,-2313.33 3896.91,-2315.01 3889.43,-2316.66 3881.57,-2318.26 3873.38,-2319.8 3864.89,-2321.3 3856.12,-2322.73 3847.1,-2324.1 3837.87,-2325.41 3828.44,-2326.64 3818.85,-2327.8 3809.1,-2328.89 3799.23,-2329.89 3789.25,-2330.81 3779.18,-2331.65 3769.02,-2332.4 3758.8,-2333.06 3748.53,-2333.63 3738.22,-2334.11 3727.87,-2334.5 3717.5,-2334.78 3707.1,-2334.98 3696.7,-2335.07 3686.3,-2335.07 3675.9,-2334.98 3665.51,-2334.78 3655.13,-2334.5 3644.79,-2334.11 3634.47,-2333.63 3624.2,-2333.06 3613.98,-2332.4 3603.83,-2331.65 3593.75,-2330.81 3583.77,-2329.89 3573.9,-2328.89 3564.16,-2327.8 3554.56,-2326.64 3545.13,-2325.41 3535.9,-2324.1 3526.89,-2322.73 3518.12,-2321.3 3509.62,-2319.8 3501.43,-2318.26 3493.58,-2316.66 3486.09,-2315.01 3479,-2313.33 3472.35,-2311.6 3466.17,-2309.85 3460.49,-2308.07 3455.35,-2306.26 3450.79,-2304.44 3446.83,-2302.6 3443.51,-2300.76 3440.85,-2298.92 3438.9,-2297.07 3437.67,-2295.24 3437.19,-2293.42 3437.48,-2291.61 3438.56,-2289.83 3440.45,-2288.07 3443.16,-2286.35 3446.69,-2284.66 3451.06,-2283.02 3456.26,-2281.42 3462.3,-2279.87 3469.15,-2278.38 3476.82,-2276.95 3485.28,-2275.58 3494.51,-2274.27 3504.49,-2273.04 3515.19,-2271.88 3526.57,-2270.79 3538.6,-2269.79 3551.24,-2268.86 3564.43,-2268.02 3578.14,-2267.27 3592.3,-2266.61 3606.86,-2266.04 3621.77,-2265.57 3636.97,-2265.18 3652.39,-2264.89 3667.97,-2264.7 3683.65,-2264.6 3699.36,-2264.6 3715.03,-2264.7"/>
<text text-anchor="start" x="3662.33" y="-2309.64" font-family="Times,serif" font-size="14.00">C0005479</text>
<text text-anchor="start" x="3530.74" y="-2295.64" font-family="Times,serif" font-size="14.00">poly ( N&#45;iso&#45;propylacrylamide ) &#45; poly ( ethylene glycol )</text>
<text text-anchor="start" x="3668.81" y="-2281.64" font-family="Times,serif" font-size="14.00">109:118</text>
</g>
<!-- id_27628933_DOT_27 -->
<g id="node27" class="node">
<title>id_27628933_DOT_27</title>
<polygon fill="darkred" stroke="darkred" points="3937.66,-2603.15 3941.94,-2603.34 3946.18,-2603.63 3950.36,-2604.01 3954.46,-2604.49 3958.46,-2605.06 3962.36,-2605.72 3966.13,-2606.47 3969.75,-2607.31 3973.23,-2608.23 3976.54,-2609.24 3979.67,-2610.32 3982.61,-2611.48 3985.35,-2612.72 3987.89,-2614.02 3990.22,-2615.39 3992.32,-2616.83 3994.21,-2618.32 3995.87,-2619.87 3997.3,-2621.47 3998.5,-2623.11 3999.47,-2624.8 4000.22,-2626.52 4000.73,-2628.27 4001.03,-2630.06 4001.11,-2631.86 4000.98,-2633.68 4000.64,-2635.52 4000.1,-2637.36 3999.37,-2639.21 3998.46,-2641.05 3997.37,-2642.89 3996.12,-2644.71 3994.7,-2646.51 3993.14,-2648.3 3991.44,-2650.05 3989.62,-2651.77 3987.67,-2653.46 3985.61,-2655.1 3983.45,-2656.7 3981.2,-2658.25 3978.86,-2659.74 3976.45,-2661.18 3973.97,-2662.55 3971.43,-2663.85 3968.84,-2665.09 3966.2,-2666.25 3963.52,-2667.33 3960.81,-2668.34 3958.06,-2669.26 3955.29,-2670.1 3952.5,-2670.85 3949.69,-2671.51 3946.87,-2672.08 3944.03,-2672.56 3941.19,-2672.94 3938.33,-2673.23 3935.48,-2673.42 3932.62,-2673.52 3929.76,-2673.52 3926.9,-2673.42 3924.04,-2673.23 3921.19,-2672.94 3918.34,-2672.56 3915.51,-2672.08 3912.68,-2671.51 3909.87,-2670.85 3907.08,-2670.1 3904.31,-2669.26 3901.57,-2668.34 3898.85,-2667.33 3896.17,-2666.25 3893.53,-2665.09 3890.94,-2663.85 3888.4,-2662.55 3885.93,-2661.18 3883.51,-2659.74 3881.18,-2658.25 3878.93,-2656.7 3876.77,-2655.1 3874.71,-2653.46 3872.76,-2651.77 3870.93,-2650.05 3869.23,-2648.3 3867.67,-2646.51 3866.26,-2644.71 3865,-2642.89 3863.91,-2641.05 3863,-2639.21 3862.27,-2637.36 3861.73,-2635.52 3861.39,-2633.68 3861.26,-2631.86 3861.34,-2630.06 3861.64,-2628.27 3862.16,-2626.52 3862.9,-2624.8 3863.88,-2623.11 3865.08,-2621.47 3866.51,-2619.87 3868.17,-2618.32 3870.05,-2616.83 3872.16,-2615.39 3874.48,-2614.02 3877.02,-2612.72 3879.77,-2611.48 3882.71,-2610.32 3885.84,-2609.24 3889.15,-2608.23 3892.62,-2607.31 3896.25,-2606.47 3900.02,-2605.72 3903.91,-2605.06 3907.92,-2604.49 3912.01,-2604.01 3916.19,-2603.63 3920.43,-2603.34 3924.72,-2603.15 3929.03,-2603.05 3933.35,-2603.05 3937.66,-2603.15"/>
<text text-anchor="start" x="3902.27" y="-2648.08" font-family="Times,serif" font-size="14.00">C0051154</text>
<text text-anchor="start" x="3892.9" y="-2634.08" font-family="Times,serif" font-size="14.00">alginate lyase</text>
<text text-anchor="start" x="3908.24" y="-2620.08" font-family="Times,serif" font-size="14.00">190:191</text>
</g>
<!-- id_27628933_DOT_15&#45;&#45;id_27628933_DOT_27 -->
<g id="edge24" class="edge">
<title>id_27628933_DOT_15&#45;&#45;id_27628933_DOT_27</title>
<path fill="none" stroke="black" stroke-dasharray="1,5" d="M3716.47,-2335.1C3762.76,-2400.45 3861.29,-2539.59 3906.99,-2604.11"/>
<text text-anchor="middle" x="3785.48" y="-2472.41" font-family="Times,serif" font-size="14.00">0.836274</text>
</g>
<!-- id_27628933_DOT_15&#45;&#45;id_27628933_DOT_28 -->
<g id="edge25" class="edge">
<title>id_27628933_DOT_15&#45;&#45;id_27628933_DOT_28</title>
<path fill="none" stroke="black" stroke-dasharray="1,5" d="M3490.73,-2316.05C3431.84,-2320.8 3372.09,-2325.62 3330.3,-2329"/>
<text text-anchor="middle" x="3384.27" y="-2325.32" font-family="Times,serif" font-size="14.00">0.723147</text>
</g>
<!-- id_27628933_DOT_15&#45;&#45;id_27628933_DOT_30 -->
<g id="edge26" class="edge">
<title>id_27628933_DOT_15&#45;&#45;id_27628933_DOT_30</title>
<path fill="none" stroke="black" stroke-dasharray="1,5" d="M3734.74,-2264.7C3798.91,-2212.54 3917.92,-2115.82 3975.02,-2069.41"/>
<text text-anchor="middle" x="3828.63" y="-2169.86" font-family="Times,serif" font-size="14.00">0.826814</text>
</g>
<!-- id_27628933_DOT_16 -->
<g id="node16" class="node">
<title>id_27628933_DOT_16</title>
<polygon fill="aquamarine" stroke="aquamarine" points="387.15,-3943.91 394.77,-3944.1 402.31,-3944.39 409.74,-3944.77 417.03,-3945.25 424.15,-3945.82 431.08,-3946.48 437.78,-3947.23 444.23,-3948.07 450.41,-3948.99 456.29,-3950 461.86,-3951.08 467.09,-3952.24 471.97,-3953.48 476.49,-3954.78 480.62,-3956.15 484.37,-3957.59 487.72,-3959.08 490.67,-3960.63 493.22,-3962.23 495.35,-3963.87 497.08,-3965.56 498.41,-3967.28 499.33,-3969.03 499.86,-3970.82 500,-3972.62 499.77,-3974.44 499.16,-3976.28 498.21,-3978.12 496.91,-3979.97 495.29,-3981.81 493.35,-3983.64 491.12,-3985.47 488.61,-3987.27 485.83,-3989.06 482.81,-3990.81 479.55,-3992.53 476.09,-3994.22 472.43,-3995.86 468.59,-3997.46 464.58,-3999.01 460.43,-4000.5 456.14,-4001.94 451.73,-4003.31 447.22,-4004.61 442.61,-4005.85 437.91,-4007.01 433.15,-4008.09 428.32,-4009.1 423.44,-4010.02 418.52,-4010.86 413.55,-4011.61 408.55,-4012.27 403.53,-4012.84 398.49,-4013.32 393.43,-4013.7 388.35,-4013.99 383.27,-4014.18 378.19,-4014.28 373.1,-4014.28 368.01,-4014.18 362.93,-4013.99 357.86,-4013.7 352.8,-4013.32 347.76,-4012.84 342.73,-4012.27 337.74,-4011.61 332.77,-4010.86 327.84,-4010.02 322.96,-4009.1 318.14,-4008.09 313.37,-4007.01 308.68,-4005.85 304.07,-4004.61 299.55,-4003.31 295.15,-4001.94 290.86,-4000.5 286.7,-3999.01 282.7,-3997.46 278.86,-3995.86 275.2,-3994.22 271.73,-3992.53 268.48,-3990.81 265.46,-3989.06 262.68,-3987.27 260.17,-3985.47 257.94,-3983.64 256,-3981.81 254.37,-3979.97 253.08,-3978.12 252.12,-3976.28 251.52,-3974.44 251.28,-3972.62 251.43,-3970.82 251.96,-3969.03 252.88,-3967.28 254.2,-3965.56 255.93,-3963.87 258.07,-3962.23 260.61,-3960.63 263.56,-3959.08 266.91,-3957.59 270.66,-3956.15 274.8,-3954.78 279.31,-3953.48 284.2,-3952.24 289.43,-3951.08 294.99,-3950 300.88,-3948.99 307.05,-3948.07 313.51,-3947.23 320.21,-3946.48 327.13,-3945.82 334.25,-3945.25 341.55,-3944.77 348.98,-3944.39 356.52,-3944.1 364.14,-3943.91 371.8,-3943.81 379.48,-3943.81 387.15,-3943.91"/>
<text text-anchor="start" x="346.47" y="-3988.84" font-family="Times,serif" font-size="14.00">C0063083</text>
<text text-anchor="start" x="301.19" y="-3974.84" font-family="Times,serif" font-size="14.00">double &#45; network hydrogel</text>
<text text-anchor="start" x="352.7" y="-3960.84" font-family="Times,serif" font-size="14.00">122:125</text>
</g>
<!-- id_27628933_DOT_16&#45;&#45;id_27628933_DOT_19 -->
<g id="edge11" class="edge">
<title>id_27628933_DOT_16&#45;&#45;id_27628933_DOT_19</title>
<path fill="none" stroke="black" d="M399.94,-3944.11C442.7,-3882.64 530.7,-3756.12 571.43,-3697.56"/>
<text text-anchor="middle" x="459.43" y="-3823.64" font-family="Times,serif" font-size="14.00">0.024253</text>
</g>
<!-- id_27628933_DOT_25 -->
<g id="node25" class="node">
<title>id_27628933_DOT_25</title>
<polygon fill="aquamarine" stroke="aquamarine" points="135.69,-4216.52 143.31,-4216.71 150.85,-4217 158.28,-4217.38 165.57,-4217.86 172.69,-4218.43 179.61,-4219.09 186.32,-4219.84 192.77,-4220.68 198.95,-4221.6 204.83,-4222.61 210.4,-4223.69 215.63,-4224.85 220.51,-4226.09 225.02,-4227.39 229.16,-4228.76 232.91,-4230.2 236.26,-4231.69 239.21,-4233.24 241.75,-4234.84 243.89,-4236.48 245.62,-4238.17 246.94,-4239.89 247.87,-4241.64 248.4,-4243.43 248.54,-4245.23 248.3,-4247.05 247.7,-4248.89 246.74,-4250.73 245.45,-4252.58 243.82,-4254.42 241.89,-4256.26 239.65,-4258.08 237.14,-4259.88 234.37,-4261.67 231.34,-4263.42 228.09,-4265.14 224.63,-4266.83 220.96,-4268.47 217.12,-4270.07 213.12,-4271.62 208.96,-4273.11 204.68,-4274.55 200.27,-4275.92 195.75,-4277.22 191.14,-4278.46 186.45,-4279.62 181.69,-4280.7 176.86,-4281.71 171.98,-4282.63 167.05,-4283.47 162.09,-4284.22 157.09,-4284.88 152.07,-4285.45 147.02,-4285.93 141.96,-4286.31 136.89,-4286.6 131.81,-4286.79 126.72,-4286.89 121.64,-4286.89 116.55,-4286.79 111.47,-4286.6 106.4,-4286.31 101.34,-4285.93 96.29,-4285.45 91.27,-4284.88 86.27,-4284.22 81.31,-4283.47 76.38,-4282.63 71.5,-4281.71 66.67,-4280.7 61.91,-4279.62 57.21,-4278.46 52.61,-4277.22 48.09,-4275.92 43.68,-4274.55 39.39,-4273.11 35.24,-4271.62 31.24,-4270.07 27.39,-4268.47 23.73,-4266.83 20.27,-4265.14 17.02,-4263.42 13.99,-4261.67 11.22,-4259.88 8.7,-4258.08 6.47,-4256.26 4.54,-4254.42 2.91,-4252.58 1.61,-4250.73 0.66,-4248.89 0.06,-4247.05 -0.18,-4245.23 -0.04,-4243.43 0.49,-4241.64 1.42,-4239.89 2.74,-4238.17 4.47,-4236.48 6.6,-4234.84 9.15,-4233.24 12.1,-4231.69 15.45,-4230.2 19.2,-4228.76 23.34,-4227.39 27.85,-4226.09 32.73,-4224.85 37.96,-4223.69 43.53,-4222.61 49.41,-4221.6 55.59,-4220.68 62.04,-4219.84 68.74,-4219.09 75.67,-4218.43 82.79,-4217.86 90.08,-4217.38 97.51,-4217 105.05,-4216.71 112.67,-4216.52 120.34,-4216.42 128.02,-4216.42 135.69,-4216.52"/>
<text text-anchor="start" x="95.01" y="-4261.46" font-family="Times,serif" font-size="14.00">C0063083</text>
<text text-anchor="start" x="49.73" y="-4247.46" font-family="Times,serif" font-size="14.00">double &#45; network hydrogel</text>
<text text-anchor="start" x="101.23" y="-4233.46" font-family="Times,serif" font-size="14.00">179:182</text>
</g>
<!-- id_27628933_DOT_16&#45;&#45;id_27628933_DOT_25 -->
<g id="edge12" class="edge">
<title>id_27628933_DOT_16&#45;&#45;id_27628933_DOT_25</title>
<path fill="none" stroke="black" d="M344.56,-4012.75C296.46,-4064.88 204.51,-4164.56 155.99,-4217.17"/>
<text text-anchor="middle" x="224.02" y="-4117.76" font-family="Times,serif" font-size="14.00">0.007882</text>
</g>
<!-- id_27628933_DOT_22 -->
<g id="node22" class="node">
<title>id_27628933_DOT_22</title>
<polygon fill="darkgreen" stroke="darkgreen" points="1376.35,-2792.66 1379.77,-2792.85 1383.17,-2793.14 1386.51,-2793.53 1389.79,-2794 1393,-2794.57 1396.11,-2795.24 1399.13,-2795.99 1402.03,-2796.82 1404.81,-2797.75 1407.46,-2798.75 1409.96,-2799.84 1412.32,-2801 1414.51,-2802.23 1416.54,-2803.54 1418.4,-2804.91 1420.09,-2806.34 1421.6,-2807.84 1422.93,-2809.38 1424.07,-2810.98 1425.03,-2812.63 1425.81,-2814.31 1426.41,-2816.03 1426.82,-2817.79 1427.06,-2819.57 1427.12,-2821.38 1427.02,-2823.2 1426.75,-2825.04 1426.32,-2826.88 1425.73,-2828.72 1425,-2830.57 1424.13,-2832.4 1423.13,-2834.22 1422,-2836.03 1420.75,-2837.81 1419.39,-2839.57 1417.92,-2841.29 1416.36,-2842.98 1414.72,-2844.62 1412.99,-2846.22 1411.19,-2847.77 1409.32,-2849.26 1407.39,-2850.69 1405.4,-2852.06 1403.37,-2853.37 1401.3,-2854.6 1399.19,-2855.76 1397.04,-2856.85 1394.87,-2857.85 1392.68,-2858.78 1390.46,-2859.61 1388.22,-2860.37 1385.98,-2861.03 1383.72,-2861.6 1381.45,-2862.07 1379.17,-2862.46 1376.89,-2862.75 1374.6,-2862.94 1372.31,-2863.04 1370.02,-2863.04 1367.73,-2862.94 1365.45,-2862.75 1363.17,-2862.46 1360.89,-2862.07 1358.62,-2861.6 1356.36,-2861.03 1354.11,-2860.37 1351.88,-2859.61 1349.66,-2858.78 1347.46,-2857.85 1345.29,-2856.85 1343.15,-2855.76 1341.04,-2854.6 1338.96,-2853.37 1336.93,-2852.06 1334.95,-2850.69 1333.02,-2849.26 1331.15,-2847.77 1329.35,-2846.22 1327.62,-2844.62 1325.97,-2842.98 1324.41,-2841.29 1322.95,-2839.57 1321.59,-2837.81 1320.34,-2836.03 1319.21,-2834.22 1318.2,-2832.4 1317.33,-2830.57 1316.6,-2828.72 1316.02,-2826.88 1315.59,-2825.04 1315.32,-2823.2 1315.21,-2821.38 1315.28,-2819.57 1315.51,-2817.79 1315.93,-2816.03 1316.52,-2814.31 1317.3,-2812.63 1318.26,-2810.98 1319.41,-2809.38 1320.74,-2807.84 1322.24,-2806.34 1323.93,-2804.91 1325.79,-2803.54 1327.82,-2802.23 1330.02,-2801 1332.37,-2799.84 1334.88,-2798.75 1337.53,-2797.75 1340.31,-2796.82 1343.21,-2795.99 1346.22,-2795.24 1349.34,-2794.57 1352.54,-2794 1355.83,-2793.53 1359.17,-2793.14 1362.56,-2792.85 1365.99,-2792.66 1369.44,-2792.57 1372.9,-2792.57 1376.35,-2792.66"/>
<text text-anchor="start" x="1342" y="-2837.6" font-family="Times,serif" font-size="14.00">C0005516</text>
<text text-anchor="start" x="1348.62" y="-2823.6" font-family="Times,serif" font-size="14.00">markers</text>
<text text-anchor="start" x="1348.22" y="-2809.6" font-family="Times,serif" font-size="14.00">168:168</text>
</g>
<!-- id_27628933_DOT_17&#45;&#45;id_27628933_DOT_22 -->
<g id="edge27" class="edge">
<title>id_27628933_DOT_17&#45;&#45;id_27628933_DOT_22</title>
<path fill="none" stroke="black" stroke-dasharray="1,5" d="M1091.28,-3047.5C1153.8,-2998.42 1279.4,-2899.83 1338.73,-2853.27"/>
<text text-anchor="middle" x="1188.75" y="-2953.18" font-family="Times,serif" font-size="14.00">0.833931</text>
</g>
<!-- id_27628933_DOT_20 -->
<g id="node20" class="node">
<title>id_27628933_DOT_20</title>
<polygon fill="blueviolet" stroke="blueviolet" points="1827.11,-1744.89 1830.54,-1745.08 1833.93,-1745.37 1837.28,-1745.76 1840.56,-1746.23 1843.76,-1746.8 1846.88,-1747.46 1849.89,-1748.22 1852.8,-1749.05 1855.58,-1749.98 1858.22,-1750.98 1860.73,-1752.07 1863.08,-1753.23 1865.28,-1754.46 1867.31,-1755.77 1869.17,-1757.14 1870.86,-1758.57 1872.37,-1760.07 1873.69,-1761.61 1874.84,-1763.21 1875.8,-1764.85 1876.58,-1766.54 1877.17,-1768.26 1877.59,-1770.02 1877.83,-1771.8 1877.89,-1773.61 1877.78,-1775.43 1877.51,-1777.26 1877.08,-1779.11 1876.5,-1780.95 1875.77,-1782.79 1874.9,-1784.63 1873.89,-1786.45 1872.76,-1788.26 1871.51,-1790.04 1870.15,-1791.8 1868.69,-1793.52 1867.13,-1795.2 1865.48,-1796.85 1863.75,-1798.45 1861.95,-1799.99 1860.08,-1801.49 1858.15,-1802.92 1856.17,-1804.29 1854.14,-1805.6 1852.06,-1806.83 1849.95,-1807.99 1847.81,-1809.08 1845.64,-1810.08 1843.44,-1811.01 1841.22,-1811.84 1838.99,-1812.59 1836.74,-1813.26 1834.48,-1813.83 1832.21,-1814.3 1829.94,-1814.69 1827.65,-1814.98 1825.37,-1815.17 1823.08,-1815.26 1820.79,-1815.26 1818.5,-1815.17 1816.21,-1814.98 1813.93,-1814.69 1811.65,-1814.3 1809.39,-1813.83 1807.13,-1813.26 1804.88,-1812.59 1802.64,-1811.84 1800.43,-1811.01 1798.23,-1810.08 1796.06,-1809.08 1793.91,-1807.99 1791.8,-1806.83 1789.73,-1805.6 1787.7,-1804.29 1785.71,-1802.92 1783.78,-1801.49 1781.91,-1799.99 1780.11,-1798.45 1778.38,-1796.85 1776.74,-1795.2 1775.18,-1793.52 1773.71,-1791.8 1772.35,-1790.04 1771.1,-1788.26 1769.97,-1786.45 1768.97,-1784.63 1768.1,-1782.79 1767.37,-1780.95 1766.78,-1779.11 1766.35,-1777.26 1766.08,-1775.43 1765.98,-1773.61 1766.04,-1771.8 1766.28,-1770.02 1766.69,-1768.26 1767.29,-1766.54 1768.07,-1764.85 1769.03,-1763.21 1770.17,-1761.61 1771.5,-1760.07 1773.01,-1758.57 1774.7,-1757.14 1776.56,-1755.77 1778.59,-1754.46 1780.79,-1753.23 1783.14,-1752.07 1785.64,-1750.98 1788.29,-1749.98 1791.07,-1749.05 1793.97,-1748.22 1796.99,-1747.46 1800.11,-1746.8 1803.31,-1746.23 1806.59,-1745.76 1809.93,-1745.37 1813.33,-1745.08 1816.76,-1744.89 1820.21,-1744.79 1823.66,-1744.79 1827.11,-1744.89"/>
<text text-anchor="start" x="1792.76" y="-1789.83" font-family="Times,serif" font-size="14.00">C0225326</text>
<text text-anchor="start" x="1806.38" y="-1775.83" font-family="Times,serif" font-size="14.00">fibers</text>
<text text-anchor="start" x="1798.99" y="-1761.83" font-family="Times,serif" font-size="14.00">153:153</text>
</g>
<!-- id_27628933_DOT_20&#45;&#45;id_27628933_DOT_29 -->
<g id="edge13" class="edge">
<title>id_27628933_DOT_20&#45;&#45;id_27628933_DOT_29</title>
<path fill="none" stroke="black" d="M1806.67,-1745.63C1774.49,-1673.1 1700.02,-1505.24 1668.18,-1433.5"/>
<text text-anchor="middle" x="1711.18" y="-1592.37" font-family="Times,serif" font-size="14.00">0.010502</text>
</g>
<!-- id_27628933_DOT_20&#45;&#45;id_27628933_DOT_31 -->
<g id="edge28" class="edge">
<title>id_27628933_DOT_20&#45;&#45;id_27628933_DOT_31</title>
<path fill="none" stroke="black" stroke-dasharray="1,5" d="M1833.61,-1814.19C1860.61,-1893.12 1927.07,-2087.5 1954.27,-2167.04"/>
<text text-anchor="middle" x="1867.69" y="-1993.41" font-family="Times,serif" font-size="14.00">0.927275</text>
</g>
<!-- id_27628933_DOT_21 -->
<g id="node21" class="node">
<title>id_27628933_DOT_21</title>
<polygon fill="darkgoldenrod" stroke="darkgoldenrod" points="1637.81,-2458.2 1641.24,-2458.4 1644.63,-2458.69 1647.98,-2459.07 1651.26,-2459.55 1654.46,-2460.12 1657.58,-2460.78 1660.59,-2461.53 1663.49,-2462.37 1666.27,-2463.29 1668.92,-2464.3 1671.43,-2465.38 1673.78,-2466.54 1675.98,-2467.78 1678.01,-2469.08 1679.87,-2470.45 1681.56,-2471.89 1683.06,-2473.38 1684.39,-2474.93 1685.54,-2476.52 1686.5,-2478.17 1687.28,-2479.86 1687.87,-2481.58 1688.29,-2483.33 1688.52,-2485.12 1688.59,-2486.92 1688.48,-2488.74 1688.21,-2490.58 1687.78,-2492.42 1687.2,-2494.27 1686.47,-2496.11 1685.6,-2497.94 1684.59,-2499.77 1683.46,-2501.57 1682.21,-2503.35 1680.85,-2505.11 1679.39,-2506.83 1677.83,-2508.52 1676.18,-2510.16 1674.45,-2511.76 1672.65,-2513.31 1670.78,-2514.8 1668.85,-2516.24 1666.87,-2517.61 1664.84,-2518.91 1662.76,-2520.15 1660.65,-2521.31 1658.51,-2522.39 1656.34,-2523.4 1654.14,-2524.32 1651.92,-2525.16 1649.69,-2525.91 1647.44,-2526.57 1645.18,-2527.14 1642.91,-2527.62 1640.63,-2528 1638.35,-2528.29 1636.07,-2528.48 1633.78,-2528.58 1631.49,-2528.58 1629.2,-2528.48 1626.91,-2528.29 1624.63,-2528 1622.35,-2527.62 1620.08,-2527.14 1617.82,-2526.57 1615.58,-2525.91 1613.34,-2525.16 1611.12,-2524.32 1608.93,-2523.4 1606.76,-2522.39 1604.61,-2521.31 1602.5,-2520.15 1600.43,-2518.91 1598.4,-2517.61 1596.41,-2516.24 1594.48,-2514.8 1592.61,-2513.31 1590.81,-2511.76 1589.08,-2510.16 1587.44,-2508.52 1585.88,-2506.83 1584.41,-2505.11 1583.05,-2503.35 1581.8,-2501.57 1580.67,-2499.77 1579.67,-2497.94 1578.8,-2496.11 1578.07,-2494.27 1577.48,-2492.42 1577.05,-2490.58 1576.78,-2488.74 1576.68,-2486.92 1576.74,-2485.12 1576.98,-2483.33 1577.39,-2481.58 1577.99,-2479.86 1578.77,-2478.17 1579.73,-2476.52 1580.87,-2474.93 1582.2,-2473.38 1583.71,-2471.89 1585.4,-2470.45 1587.26,-2469.08 1589.29,-2467.78 1591.48,-2466.54 1593.84,-2465.38 1596.34,-2464.3 1598.99,-2463.29 1601.77,-2462.37 1604.67,-2461.53 1607.69,-2460.78 1610.8,-2460.12 1614.01,-2459.55 1617.29,-2459.07 1620.63,-2458.69 1624.03,-2458.4 1627.45,-2458.2 1630.9,-2458.11 1634.36,-2458.11 1637.81,-2458.2"/>
<text text-anchor="start" x="1603.46" y="-2503.14" font-family="Times,serif" font-size="14.00">C1444656</text>
<text text-anchor="start" x="1606.98" y="-2489.14" font-family="Times,serif" font-size="14.00">indicated</text>
<text text-anchor="start" x="1609.69" y="-2475.14" font-family="Times,serif" font-size="14.00">158:158</text>
</g>
<!-- id_27628933_DOT_21&#45;&#45;id_27628933_DOT_22 -->
<g id="edge29" class="edge">
<title>id_27628933_DOT_21&#45;&#45;id_27628933_DOT_22</title>
<path fill="none" stroke="black" stroke-dasharray="1,5" d="M1608.97,-2523.61C1559.94,-2586.33 1447.63,-2729.99 1396.89,-2794.9"/>
<text text-anchor="middle" x="1476.68" y="-2662.06" font-family="Times,serif" font-size="14.00">0.761933</text>
</g>
<!-- id_27628933_DOT_26 -->
<g id="node26" class="node">
<title>id_27628933_DOT_26</title>
<polygon fill="darkorange" stroke="darkorange" points="1313.81,-2260.4 1317.23,-2260.6 1320.63,-2260.88 1323.97,-2261.27 1327.25,-2261.75 1330.46,-2262.32 1333.57,-2262.98 1336.59,-2263.73 1339.49,-2264.56 1342.27,-2265.49 1344.92,-2266.49 1347.42,-2267.58 1349.78,-2268.74 1351.97,-2269.97 1354,-2271.28 1355.87,-2272.65 1357.55,-2274.08 1359.06,-2275.58 1360.39,-2277.12 1361.53,-2278.72 1362.49,-2280.37 1363.27,-2282.05 1363.87,-2283.78 1364.28,-2285.53 1364.52,-2287.31 1364.58,-2289.12 1364.48,-2290.94 1364.21,-2292.78 1363.78,-2294.62 1363.19,-2296.46 1362.46,-2298.31 1361.59,-2300.14 1360.59,-2301.96 1359.46,-2303.77 1358.21,-2305.55 1356.85,-2307.31 1355.38,-2309.03 1353.83,-2310.72 1352.18,-2312.36 1350.45,-2313.96 1348.65,-2315.51 1346.78,-2317 1344.85,-2318.43 1342.87,-2319.8 1340.83,-2321.11 1338.76,-2322.34 1336.65,-2323.5 1334.5,-2324.59 1332.33,-2325.59 1330.14,-2326.52 1327.92,-2327.35 1325.69,-2328.11 1323.44,-2328.77 1321.18,-2329.34 1318.91,-2329.81 1316.63,-2330.2 1314.35,-2330.49 1312.06,-2330.68 1309.77,-2330.78 1307.48,-2330.78 1305.2,-2330.68 1302.91,-2330.49 1300.63,-2330.2 1298.35,-2329.81 1296.08,-2329.34 1293.82,-2328.77 1291.57,-2328.11 1289.34,-2327.35 1287.12,-2326.52 1284.92,-2325.59 1282.75,-2324.59 1280.61,-2323.5 1278.5,-2322.34 1276.42,-2321.11 1274.39,-2319.8 1272.41,-2318.43 1270.48,-2317 1268.61,-2315.51 1266.81,-2313.96 1265.08,-2312.36 1263.43,-2310.72 1261.87,-2309.03 1260.41,-2307.31 1259.05,-2305.55 1257.8,-2303.77 1256.67,-2301.96 1255.66,-2300.14 1254.79,-2298.31 1254.06,-2296.46 1253.48,-2294.62 1253.05,-2292.78 1252.78,-2290.94 1252.67,-2289.12 1252.74,-2287.31 1252.97,-2285.53 1253.39,-2283.78 1253.99,-2282.05 1254.76,-2280.37 1255.72,-2278.72 1256.87,-2277.12 1258.2,-2275.58 1259.7,-2274.08 1261.39,-2272.65 1263.25,-2271.28 1265.28,-2269.97 1267.48,-2268.74 1269.83,-2267.58 1272.34,-2266.49 1274.99,-2265.49 1277.77,-2264.56 1280.67,-2263.73 1283.68,-2262.98 1286.8,-2262.32 1290.01,-2261.75 1293.29,-2261.27 1296.63,-2260.88 1300.02,-2260.6 1303.45,-2260.4 1306.9,-2260.31 1310.36,-2260.31 1313.81,-2260.4"/>
<text text-anchor="start" x="1279.46" y="-2305.34" font-family="Times,serif" font-size="14.00">C0850310</text>
<text text-anchor="start" x="1281.79" y="-2291.34" font-family="Times,serif" font-size="14.00">possesses</text>
<text text-anchor="start" x="1285.68" y="-2277.34" font-family="Times,serif" font-size="14.00">183:183</text>
</g>
<!-- id_27628933_DOT_21&#45;&#45;id_27628933_DOT_26 -->
<g id="edge30" class="edge">
<title>id_27628933_DOT_21&#45;&#45;id_27628933_DOT_26</title>
<path fill="none" stroke="black" stroke-dasharray="1,5" d="M1589.94,-2467.28C1526.02,-2428.26 1406.48,-2355.28 1345.89,-2318.29"/>
<text text-anchor="middle" x="1441.66" y="-2395.58" font-family="Times,serif" font-size="14.00">0.538907</text>
</g>
<!-- id_27628933_DOT_21&#45;&#45;id_27628933_DOT_31 -->
<g id="edge31" class="edge">
<title>id_27628933_DOT_21&#45;&#45;id_27628933_DOT_31</title>
<path fill="none" stroke="black" stroke-dasharray="1,5" d="M1667.07,-2463.24C1732.31,-2406.21 1872.97,-2283.26 1935.32,-2228.76"/>
<text text-anchor="middle" x="1774.94" y="-2348.8" font-family="Times,serif" font-size="14.00">0.759495</text>
</g>
</g>
</svg>
