<?xml version="1.0" encoding="UTF-8" standalone="no"?>
<!DOCTYPE svg PUBLIC "-//W3C//DTD SVG 1.1//EN"
 "http://www.w3.org/Graphics/SVG/1.1/DTD/svg11.dtd">
<!-- Generated by graphviz version 2.42.3 (20191010.1750)
 -->
<!-- Title: MST Pages: 1 -->
<svg width="3661pt" height="6723pt"
 viewBox="0.00 0.00 3661.16 6723.03" xmlns="http://www.w3.org/2000/svg" xmlns:xlink="http://www.w3.org/1999/xlink">
<g id="graph0" class="graph" transform="scale(1 1) rotate(0) translate(4 6719.03)">
<title>MST</title>
<polygon fill="white" stroke="transparent" points="-4,4 -4,-6719.03 3657.16,-6719.03 3657.16,4 -4,4"/>
<!-- id_27653736_DOT_1 -->
<g id="node1" class="node">
<title>id_27653736_DOT_1</title>
<polygon fill="aquamarine" stroke="aquamarine" points="1325.12,-0.23 1329.63,-0.42 1334.09,-0.71 1338.49,-1.09 1342.8,-1.57 1347.02,-2.14 1351.12,-2.8 1355.08,-3.55 1358.9,-4.39 1362.55,-5.31 1366.04,-6.32 1369.33,-7.4 1372.43,-8.57 1375.31,-9.8 1377.98,-11.1 1380.43,-12.48 1382.65,-13.91 1384.63,-15.4 1386.38,-16.95 1387.88,-18.55 1389.15,-20.19 1390.17,-21.88 1390.95,-23.6 1391.5,-25.36 1391.81,-27.14 1391.9,-28.94 1391.76,-30.77 1391.4,-32.6 1390.84,-34.44 1390.07,-36.29 1389.11,-38.13 1387.96,-39.97 1386.64,-41.79 1385.16,-43.6 1383.51,-45.38 1381.72,-47.13 1379.8,-48.86 1377.75,-50.54 1375.58,-52.19 1373.31,-53.78 1370.94,-55.33 1368.48,-56.82 1365.95,-58.26 1363.34,-59.63 1360.67,-60.94 1357.94,-62.17 1355.16,-63.33 1352.34,-64.42 1349.49,-65.42 1346.6,-66.34 1343.68,-67.18 1340.74,-67.93 1337.79,-68.59 1334.82,-69.16 1331.83,-69.64 1328.84,-70.02 1325.84,-70.31 1322.83,-70.51 1319.82,-70.6 1316.81,-70.6 1313.8,-70.51 1310.79,-70.31 1307.79,-70.02 1304.8,-69.64 1301.81,-69.16 1298.84,-68.59 1295.88,-67.93 1292.95,-67.18 1290.03,-66.34 1287.14,-65.42 1284.29,-64.42 1281.47,-63.33 1278.69,-62.17 1275.96,-60.94 1273.29,-59.63 1270.68,-58.26 1268.15,-56.82 1265.69,-55.33 1263.32,-53.78 1261.05,-52.19 1258.88,-50.54 1256.83,-48.86 1254.91,-47.13 1253.12,-45.38 1251.47,-43.6 1249.99,-41.79 1248.67,-39.97 1247.52,-38.13 1246.56,-36.29 1245.79,-34.44 1245.23,-32.6 1244.87,-30.77 1244.73,-28.94 1244.82,-27.14 1245.13,-25.36 1245.67,-23.6 1246.46,-21.88 1247.48,-20.19 1248.74,-18.55 1250.25,-16.95 1252,-15.4 1253.98,-13.91 1256.2,-12.48 1258.64,-11.1 1261.32,-9.8 1264.2,-8.57 1267.3,-7.4 1270.59,-6.32 1274.07,-5.31 1277.73,-4.39 1281.55,-3.55 1285.51,-2.8 1289.61,-2.14 1293.82,-1.57 1298.14,-1.09 1302.54,-0.71 1307,-0.42 1311.51,-0.23 1316.04,-0.13 1320.59,-0.13 1325.12,-0.23"/>
<text text-anchor="start" x="1289.15" y="-45.17" font-family="Times,serif" font-size="14.00">C0009566</text>
<text text-anchor="start" x="1277.48" y="-31.17" font-family="Times,serif" font-size="14.00">Complications</text>
<text text-anchor="start" x="1309.37" y="-17.17" font-family="Times,serif" font-size="14.00">0:0</text>
</g>
<!-- id_27653736_DOT_9 -->
<g id="node9" class="node">
<title>id_27653736_DOT_9</title>
<polygon fill="aquamarine" stroke="aquamarine" points="1430.91,-352.74 1435.28,-352.94 1439.61,-353.22 1443.88,-353.61 1448.06,-354.09 1452.15,-354.66 1456.12,-355.32 1459.97,-356.07 1463.67,-356.91 1467.22,-357.83 1470.6,-358.83 1473.79,-359.92 1476.79,-361.08 1479.6,-362.31 1482.19,-363.62 1484.56,-364.99 1486.71,-366.42 1488.64,-367.92 1490.33,-369.46 1491.79,-371.06 1493.02,-372.71 1494.01,-374.39 1494.77,-376.12 1495.3,-377.87 1495.6,-379.65 1495.68,-381.46 1495.55,-383.28 1495.2,-385.12 1494.65,-386.96 1493.91,-388.8 1492.98,-390.65 1491.87,-392.48 1490.58,-394.3 1489.14,-396.11 1487.55,-397.89 1485.81,-399.65 1483.95,-401.37 1481.96,-403.06 1479.86,-404.7 1477.65,-406.3 1475.35,-407.85 1472.97,-409.34 1470.51,-410.77 1467.98,-412.14 1465.39,-413.45 1462.74,-414.68 1460.05,-415.85 1457.31,-416.93 1454.54,-417.94 1451.74,-418.86 1448.91,-419.7 1446.06,-420.45 1443.19,-421.11 1440.31,-421.68 1437.42,-422.16 1434.51,-422.54 1431.6,-422.83 1428.68,-423.02 1425.76,-423.12 1422.84,-423.12 1419.92,-423.02 1417.01,-422.83 1414.1,-422.54 1411.19,-422.16 1408.3,-421.68 1405.41,-421.11 1402.55,-420.45 1399.7,-419.7 1396.87,-418.86 1394.07,-417.94 1391.3,-416.93 1388.56,-415.85 1385.87,-414.68 1383.22,-413.45 1380.63,-412.14 1378.1,-410.77 1375.64,-409.34 1373.26,-407.85 1370.96,-406.3 1368.75,-404.7 1366.65,-403.06 1364.66,-401.37 1362.79,-399.65 1361.06,-397.89 1359.47,-396.11 1358.02,-394.3 1356.74,-392.48 1355.63,-390.65 1354.7,-388.8 1353.95,-386.96 1353.41,-385.12 1353.06,-383.28 1352.92,-381.46 1353.01,-379.65 1353.31,-377.87 1353.84,-376.12 1354.6,-374.39 1355.59,-372.71 1356.82,-371.06 1358.28,-369.46 1359.97,-367.92 1361.9,-366.42 1364.05,-364.99 1366.42,-363.62 1369.01,-362.31 1371.82,-361.08 1374.82,-359.92 1378.01,-358.83 1381.39,-357.83 1384.94,-356.91 1388.64,-356.07 1392.49,-355.32 1396.46,-354.66 1400.55,-354.09 1404.73,-353.61 1409,-353.22 1413.33,-352.94 1417.7,-352.74 1422.1,-352.65 1426.51,-352.65 1430.91,-352.74"/>
<text text-anchor="start" x="1395.14" y="-397.68" font-family="Times,serif" font-size="14.00">C0009566</text>
<text text-anchor="start" x="1385.04" y="-383.68" font-family="Times,serif" font-size="14.00">complications</text>
<text text-anchor="start" x="1408.36" y="-369.68" font-family="Times,serif" font-size="14.00">36:36</text>
</g>
<!-- id_27653736_DOT_1&#45;&#45;id_27653736_DOT_9 -->
<g id="edge1" class="edge">
<title>id_27653736_DOT_1&#45;&#45;id_27653736_DOT_9</title>
<path fill="none" stroke="black" d="M1328.77,-70.13C1349.03,-137.53 1393.45,-285.25 1413.77,-352.86"/>
<text text-anchor="middle" x="1345.02" y="-214.29" font-family="Times,serif" font-size="14.00">0.003357</text>
</g>
<!-- id_27653736_DOT_2 -->
<g id="node2" class="node">
<title>id_27653736_DOT_2</title>
<polygon fill="bisque" stroke="bisque" points="2633.51,-2865.68 2637.68,-2865.88 2641.8,-2866.17 2645.86,-2866.55 2649.85,-2867.03 2653.74,-2867.6 2657.53,-2868.26 2661.19,-2869.01 2664.72,-2869.85 2668.1,-2870.77 2671.32,-2871.77 2674.36,-2872.86 2677.22,-2874.02 2679.89,-2875.26 2682.36,-2876.56 2684.62,-2877.93 2686.67,-2879.37 2688.5,-2880.86 2690.12,-2882.41 2691.51,-2884 2692.68,-2885.65 2693.62,-2887.33 2694.35,-2889.06 2694.85,-2890.81 2695.14,-2892.59 2695.22,-2894.4 2695.09,-2896.22 2694.76,-2898.06 2694.24,-2899.9 2693.53,-2901.75 2692.64,-2903.59 2691.58,-2905.42 2690.36,-2907.25 2688.99,-2909.05 2687.47,-2910.83 2685.82,-2912.59 2684.04,-2914.31 2682.14,-2916 2680.14,-2917.64 2678.04,-2919.24 2675.85,-2920.79 2673.58,-2922.28 2671.23,-2923.71 2668.82,-2925.09 2666.35,-2926.39 2663.83,-2927.63 2661.27,-2928.79 2658.66,-2929.87 2656.02,-2930.88 2653.35,-2931.8 2650.66,-2932.64 2647.94,-2933.39 2645.21,-2934.05 2642.47,-2934.62 2639.71,-2935.1 2636.94,-2935.48 2634.17,-2935.77 2631.39,-2935.96 2628.61,-2936.06 2625.83,-2936.06 2623.04,-2935.96 2620.27,-2935.77 2617.49,-2935.48 2614.73,-2935.1 2611.97,-2934.62 2609.22,-2934.05 2606.49,-2933.39 2603.77,-2932.64 2601.08,-2931.8 2598.41,-2930.88 2595.77,-2929.87 2593.17,-2928.79 2590.6,-2927.63 2588.08,-2926.39 2585.61,-2925.09 2583.2,-2923.71 2580.85,-2922.28 2578.58,-2920.79 2576.39,-2919.24 2574.29,-2917.64 2572.29,-2916 2570.4,-2914.31 2568.62,-2912.59 2566.96,-2910.83 2565.45,-2909.05 2564.07,-2907.25 2562.85,-2905.42 2561.79,-2903.59 2560.9,-2901.75 2560.2,-2899.9 2559.67,-2898.06 2559.34,-2896.22 2559.22,-2894.4 2559.29,-2892.59 2559.58,-2890.81 2560.09,-2889.06 2560.81,-2887.33 2561.76,-2885.65 2562.92,-2884 2564.32,-2882.41 2565.93,-2880.86 2567.76,-2879.37 2569.81,-2877.93 2572.07,-2876.56 2574.54,-2875.26 2577.21,-2874.02 2580.07,-2872.86 2583.12,-2871.77 2586.33,-2870.77 2589.71,-2869.85 2593.24,-2869.01 2596.9,-2868.26 2600.69,-2867.6 2604.58,-2867.03 2608.57,-2866.55 2612.63,-2866.17 2616.76,-2865.88 2620.92,-2865.68 2625.12,-2865.59 2629.32,-2865.59 2633.51,-2865.68"/>
<text text-anchor="start" x="2598.05" y="-2910.62" font-family="Times,serif" font-size="14.00">C0019144</text>
<text text-anchor="start" x="2589.9" y="-2896.62" font-family="Times,serif" font-size="14.00">Hepatectomy</text>
<text text-anchor="start" x="2618.27" y="-2882.62" font-family="Times,serif" font-size="14.00">7:7</text>
</g>
<!-- id_27653736_DOT_26 -->
<g id="node26" class="node">
<title>id_27653736_DOT_26</title>
<polygon fill="bisque" stroke="bisque" points="2980.28,-2622.05 2984.7,-2622.24 2989.08,-2622.53 2993.4,-2622.91 2997.63,-2623.39 3001.76,-2623.96 3005.78,-2624.62 3009.67,-2625.37 3013.42,-2626.21 3017.01,-2627.13 3020.42,-2628.14 3023.65,-2629.22 3026.69,-2630.38 3029.52,-2631.62 3032.14,-2632.92 3034.55,-2634.29 3036.72,-2635.73 3038.67,-2637.22 3040.38,-2638.77 3041.86,-2640.37 3043.1,-2642.01 3044.1,-2643.7 3044.87,-2645.42 3045.41,-2647.17 3045.71,-2648.96 3045.8,-2650.76 3045.66,-2652.58 3045.31,-2654.42 3044.76,-2656.26 3044,-2658.11 3043.06,-2659.95 3041.94,-2661.79 3040.64,-2663.61 3039.18,-2665.41 3037.57,-2667.2 3035.81,-2668.95 3033.93,-2670.67 3031.91,-2672.36 3029.79,-2674 3027.56,-2675.6 3025.23,-2677.15 3022.82,-2678.64 3020.33,-2680.08 3017.77,-2681.45 3015.15,-2682.75 3012.48,-2683.99 3009.75,-2685.15 3006.99,-2686.23 3004.18,-2687.24 3001.35,-2688.16 2998.49,-2689 2995.61,-2689.75 2992.71,-2690.41 2989.79,-2690.98 2986.86,-2691.46 2983.92,-2691.84 2980.98,-2692.13 2978.03,-2692.32 2975.08,-2692.42 2972.12,-2692.42 2969.17,-2692.32 2966.22,-2692.13 2963.28,-2691.84 2960.34,-2691.46 2957.41,-2690.98 2954.49,-2690.41 2951.59,-2689.75 2948.71,-2689 2945.85,-2688.16 2943.02,-2687.24 2940.22,-2686.23 2937.45,-2685.15 2934.73,-2683.99 2932.05,-2682.75 2929.43,-2681.45 2926.87,-2680.08 2924.38,-2678.64 2921.97,-2677.15 2919.64,-2675.6 2917.41,-2674 2915.29,-2672.36 2913.28,-2670.67 2911.39,-2668.95 2909.63,-2667.2 2908.02,-2665.41 2906.56,-2663.61 2905.27,-2661.79 2904.14,-2659.95 2903.2,-2658.11 2902.45,-2656.26 2901.89,-2654.42 2901.54,-2652.58 2901.41,-2650.76 2901.49,-2648.96 2901.79,-2647.17 2902.33,-2645.42 2903.1,-2643.7 2904.1,-2642.01 2905.34,-2640.37 2906.82,-2638.77 2908.53,-2637.22 2910.48,-2635.73 2912.66,-2634.29 2915.06,-2632.92 2917.68,-2631.62 2920.51,-2630.38 2923.55,-2629.22 2926.78,-2628.14 2930.2,-2627.13 2933.78,-2626.21 2937.53,-2625.37 2941.42,-2624.62 2945.44,-2623.96 2949.57,-2623.39 2953.81,-2622.91 2958.12,-2622.53 2962.5,-2622.24 2966.92,-2622.05 2971.37,-2621.95 2975.83,-2621.95 2980.28,-2622.05"/>
<text text-anchor="start" x="2944.43" y="-2666.98" font-family="Times,serif" font-size="14.00">C0019144</text>
<text text-anchor="start" x="2933.56" y="-2652.98" font-family="Times,serif" font-size="14.00">hepatectomies</text>
<text text-anchor="start" x="2950.66" y="-2638.98" font-family="Times,serif" font-size="14.00">163:163</text>
</g>
<!-- id_27653736_DOT_2&#45;&#45;id_27653736_DOT_26 -->
<g id="edge2" class="edge">
<title>id_27653736_DOT_2&#45;&#45;id_27653736_DOT_26</title>
<path fill="none" stroke="black" d="M2669.69,-2870.95C2737.62,-2823.17 2869.68,-2730.28 2935.04,-2684.31"/>
<text text-anchor="middle" x="2776.12" y="-2780.43" font-family="Times,serif" font-size="14.00">0.162792</text>
</g>
<!-- id_27653736_DOT_30 -->
<g id="node30" class="node">
<title>id_27653736_DOT_30</title>
<polygon fill="brown" stroke="brown" points="2363.49,-3187.76 2366.91,-3187.95 2370.31,-3188.24 2373.65,-3188.62 2376.93,-3189.1 2380.14,-3189.67 2383.25,-3190.33 2386.27,-3191.08 2389.17,-3191.92 2391.95,-3192.84 2394.6,-3193.85 2397.1,-3194.93 2399.46,-3196.09 2401.65,-3197.33 2403.68,-3198.63 2405.55,-3200 2407.23,-3201.44 2408.74,-3202.93 2410.07,-3204.48 2411.21,-3206.08 2412.17,-3207.72 2412.95,-3209.41 2413.55,-3211.13 2413.96,-3212.88 2414.2,-3214.67 2414.26,-3216.47 2414.16,-3218.29 2413.89,-3220.13 2413.46,-3221.97 2412.87,-3223.82 2412.14,-3225.66 2411.27,-3227.5 2410.27,-3229.32 2409.14,-3231.12 2407.89,-3232.91 2406.53,-3234.66 2405.06,-3236.38 2403.51,-3238.07 2401.86,-3239.71 2400.13,-3241.31 2398.33,-3242.86 2396.46,-3244.35 2394.53,-3245.79 2392.55,-3247.16 2390.51,-3248.46 2388.44,-3249.7 2386.33,-3250.86 2384.18,-3251.94 2382.01,-3252.95 2379.82,-3253.87 2377.6,-3254.71 2375.37,-3255.46 2373.12,-3256.12 2370.86,-3256.69 2368.59,-3257.17 2366.31,-3257.55 2364.03,-3257.84 2361.74,-3258.03 2359.45,-3258.13 2357.16,-3258.13 2354.88,-3258.03 2352.59,-3257.84 2350.31,-3257.55 2348.03,-3257.17 2345.76,-3256.69 2343.5,-3256.12 2341.25,-3255.46 2339.02,-3254.71 2336.8,-3253.87 2334.6,-3252.95 2332.43,-3251.94 2330.29,-3250.86 2328.18,-3249.7 2326.1,-3248.46 2324.07,-3247.16 2322.09,-3245.79 2320.16,-3244.35 2318.29,-3242.86 2316.49,-3241.31 2314.76,-3239.71 2313.11,-3238.07 2311.55,-3236.38 2310.09,-3234.66 2308.73,-3232.91 2307.48,-3231.12 2306.35,-3229.32 2305.34,-3227.5 2304.47,-3225.66 2303.74,-3223.82 2303.16,-3221.97 2302.73,-3220.13 2302.46,-3218.29 2302.35,-3216.47 2302.42,-3214.67 2302.65,-3212.88 2303.07,-3211.13 2303.67,-3209.41 2304.44,-3207.72 2305.4,-3206.08 2306.55,-3204.48 2307.88,-3202.93 2309.38,-3201.44 2311.07,-3200 2312.93,-3198.63 2314.96,-3197.33 2317.16,-3196.09 2319.51,-3194.93 2322.02,-3193.85 2324.67,-3192.84 2327.45,-3191.92 2330.35,-3191.08 2333.36,-3190.33 2336.48,-3189.67 2339.69,-3189.1 2342.97,-3188.62 2346.31,-3188.24 2349.7,-3187.95 2353.13,-3187.76 2356.58,-3187.66 2360.04,-3187.66 2363.49,-3187.76"/>
<text text-anchor="start" x="2329.14" y="-3232.7" font-family="Times,serif" font-size="14.00">C0475309</text>
<text text-anchor="start" x="2341.21" y="-3218.7" font-family="Times,serif" font-size="14.00">center</text>
<text text-anchor="start" x="2335.36" y="-3204.7" font-family="Times,serif" font-size="14.00">203:203</text>
</g>
<!-- id_27653736_DOT_2&#45;&#45;id_27653736_DOT_30 -->
<g id="edge17" class="edge">
<title>id_27653736_DOT_2&#45;&#45;id_27653736_DOT_30</title>
<path fill="none" stroke="black" stroke-dasharray="1,5" d="M2601.19,-2932C2550.05,-2993.25 2436.94,-3128.72 2385.15,-3190.75"/>
<text text-anchor="middle" x="2466.92" y="-3064.17" font-family="Times,serif" font-size="14.00">0.828572</text>
</g>
<!-- id_27653736_DOT_3 -->
<g id="node3" class="node">
<title>id_27653736_DOT_3</title>
<polygon fill="blue" stroke="blue" points="2283.85,-6289.39 2292.95,-6289.58 2301.95,-6289.87 2310.82,-6290.25 2319.52,-6290.73 2328.02,-6291.3 2336.29,-6291.96 2344.29,-6292.71 2351.99,-6293.55 2359.37,-6294.47 2366.39,-6295.48 2373.03,-6296.56 2379.28,-6297.72 2385.1,-6298.96 2390.49,-6300.26 2395.43,-6301.64 2399.91,-6303.07 2403.91,-6304.56 2407.43,-6306.11 2410.47,-6307.71 2413.02,-6309.35 2415.08,-6311.04 2416.66,-6312.76 2417.76,-6314.52 2418.4,-6316.3 2418.56,-6318.1 2418.28,-6319.93 2417.57,-6321.76 2416.43,-6323.6 2414.88,-6325.45 2412.94,-6327.29 2410.63,-6329.13 2407.96,-6330.95 2404.96,-6332.76 2401.65,-6334.54 2398.04,-6336.29 2394.16,-6338.02 2390.02,-6339.7 2385.65,-6341.35 2381.06,-6342.94 2376.28,-6344.49 2371.32,-6345.98 2366.21,-6347.42 2360.94,-6348.79 2355.55,-6350.09 2350.05,-6351.33 2344.45,-6352.49 2338.76,-6353.58 2333,-6354.58 2327.17,-6355.5 2321.29,-6356.34 2315.36,-6357.09 2309.4,-6357.75 2303.4,-6358.32 2297.38,-6358.8 2291.34,-6359.18 2285.29,-6359.47 2279.22,-6359.67 2273.15,-6359.76 2267.08,-6359.76 2261.01,-6359.67 2254.94,-6359.47 2248.88,-6359.18 2242.84,-6358.8 2236.82,-6358.32 2230.83,-6357.75 2224.86,-6357.09 2218.93,-6356.34 2213.05,-6355.5 2207.23,-6354.58 2201.46,-6353.58 2195.78,-6352.49 2190.18,-6351.33 2184.67,-6350.09 2179.28,-6348.79 2174.02,-6347.42 2168.9,-6345.98 2163.94,-6344.49 2159.16,-6342.94 2154.58,-6341.35 2150.21,-6339.7 2146.07,-6338.02 2142.19,-6336.29 2138.58,-6334.54 2135.27,-6332.76 2132.27,-6330.95 2129.6,-6329.13 2127.29,-6327.29 2125.35,-6325.45 2123.8,-6323.6 2122.66,-6321.76 2121.94,-6319.93 2121.66,-6318.1 2121.83,-6316.3 2122.46,-6314.52 2123.57,-6312.76 2125.15,-6311.04 2127.21,-6309.35 2129.76,-6307.71 2132.8,-6306.11 2136.32,-6304.56 2140.32,-6303.07 2144.79,-6301.64 2149.73,-6300.26 2155.12,-6298.96 2160.95,-6297.72 2167.19,-6296.56 2173.84,-6295.48 2180.86,-6294.47 2188.24,-6293.55 2195.94,-6292.71 2203.94,-6291.96 2212.2,-6291.3 2220.71,-6290.73 2229.41,-6290.25 2238.28,-6289.87 2247.28,-6289.58 2256.38,-6289.39 2265.53,-6289.29 2274.7,-6289.29 2283.85,-6289.39"/>
<text text-anchor="start" x="2240.94" y="-6334.33" font-family="Times,serif" font-size="14.00">C1318453</text>
<text text-anchor="start" x="2179.53" y="-6320.33" font-family="Times,serif" font-size="14.00">Living &#45; Related Liver Donation</text>
<text text-anchor="start" x="2257.67" y="-6306.33" font-family="Times,serif" font-size="14.00">9:13</text>
</g>
<!-- id_27653736_DOT_8 -->
<g id="node8" class="node">
<title>id_27653736_DOT_8</title>
<polygon fill="coral" stroke="coral" points="2311.68,-5924.82 2317.18,-5925.01 2322.63,-5925.3 2328,-5925.69 2333.27,-5926.16 2338.42,-5926.73 2343.42,-5927.39 2348.27,-5928.14 2352.93,-5928.98 2357.4,-5929.91 2361.65,-5930.91 2365.67,-5932 2369.45,-5933.16 2372.98,-5934.39 2376.24,-5935.7 2379.23,-5937.07 2381.94,-5938.5 2384.36,-5939.99 2386.49,-5941.54 2388.33,-5943.14 2389.88,-5944.78 2391.13,-5946.47 2392.08,-5948.19 2392.75,-5949.95 2393.13,-5951.73 2393.24,-5953.54 2393.07,-5955.36 2392.63,-5957.19 2391.94,-5959.04 2391,-5960.88 2389.83,-5962.72 2388.43,-5964.56 2386.82,-5966.38 2385,-5968.19 2382.99,-5969.97 2380.81,-5971.72 2378.46,-5973.45 2375.95,-5975.13 2373.31,-5976.78 2370.53,-5978.38 2367.64,-5979.92 2364.63,-5981.42 2361.54,-5982.85 2358.35,-5984.22 2355.09,-5985.53 2351.76,-5986.76 2348.36,-5987.92 2344.92,-5989.01 2341.43,-5990.01 2337.91,-5990.93 2334.34,-5991.77 2330.76,-5992.52 2327.15,-5993.18 2323.52,-5993.75 2319.87,-5994.23 2316.21,-5994.62 2312.55,-5994.9 2308.88,-5995.1 2305.2,-5995.19 2301.52,-5995.19 2297.85,-5995.1 2294.17,-5994.9 2290.51,-5994.62 2286.85,-5994.23 2283.21,-5993.75 2279.58,-5993.18 2275.97,-5992.52 2272.38,-5991.77 2268.82,-5990.93 2265.29,-5990.01 2261.8,-5989.01 2258.36,-5987.92 2254.97,-5986.76 2251.63,-5985.53 2248.37,-5984.22 2245.19,-5982.85 2242.09,-5981.42 2239.08,-5979.92 2236.19,-5978.38 2233.41,-5976.78 2230.77,-5975.13 2228.26,-5973.45 2225.91,-5971.72 2223.73,-5969.97 2221.72,-5968.19 2219.91,-5966.38 2218.29,-5964.56 2216.89,-5962.72 2215.72,-5960.88 2214.78,-5959.04 2214.09,-5957.19 2213.66,-5955.36 2213.49,-5953.54 2213.59,-5951.73 2213.97,-5949.95 2214.64,-5948.19 2215.6,-5946.47 2216.85,-5944.78 2218.39,-5943.14 2220.23,-5941.54 2222.36,-5939.99 2224.78,-5938.5 2227.49,-5937.07 2230.48,-5935.7 2233.74,-5934.39 2237.27,-5933.16 2241.05,-5932 2245.08,-5930.91 2249.33,-5929.91 2253.79,-5928.98 2258.45,-5928.14 2263.3,-5927.39 2268.3,-5926.73 2273.45,-5926.16 2278.72,-5925.69 2284.09,-5925.3 2289.54,-5925.01 2295.04,-5924.82 2300.58,-5924.72 2306.14,-5924.72 2311.68,-5924.82"/>
<text text-anchor="start" x="2274.19" y="-5969.76" font-family="Times,serif" font-size="14.00">C0348050</text>
<text text-anchor="start" x="2251.64" y="-5955.76" font-family="Times,serif" font-size="14.00">liver living donors</text>
<text text-anchor="start" x="2287.42" y="-5941.76" font-family="Times,serif" font-size="14.00">31:33</text>
</g>
<!-- id_27653736_DOT_3&#45;&#45;id_27653736_DOT_8 -->
<g id="edge3" class="edge">
<title>id_27653736_DOT_3&#45;&#45;id_27653736_DOT_8</title>
<path fill="none" stroke="black" d="M2273.33,-6289.24C2279.69,-6219.55 2293.78,-6064.97 2300.14,-5995.27"/>
<text text-anchor="middle" x="2260.49" y="-6145.05" font-family="Times,serif" font-size="14.00">0.021748</text>
</g>
<!-- id_27653736_DOT_20 -->
<g id="node20" class="node">
<title>id_27653736_DOT_20</title>
<polygon fill="darkkhaki" stroke="darkkhaki" points="2195.75,-6644.52 2201.68,-6644.72 2207.55,-6645.01 2213.33,-6645.39 2219.01,-6645.87 2224.55,-6646.44 2229.94,-6647.1 2235.16,-6647.85 2240.18,-6648.69 2244.99,-6649.61 2249.57,-6650.61 2253.9,-6651.7 2257.98,-6652.86 2261.78,-6654.1 2265.29,-6655.4 2268.51,-6656.77 2271.43,-6658.21 2274.04,-6659.7 2276.34,-6661.25 2278.32,-6662.84 2279.98,-6664.49 2281.32,-6666.17 2282.36,-6667.9 2283.07,-6669.65 2283.49,-6671.43 2283.6,-6673.24 2283.41,-6675.06 2282.95,-6676.9 2282.2,-6678.74 2281.19,-6680.59 2279.93,-6682.43 2278.42,-6684.26 2276.68,-6686.09 2274.73,-6687.89 2272.56,-6689.67 2270.21,-6691.43 2267.68,-6693.15 2264.98,-6694.84 2262.13,-6696.48 2259.14,-6698.08 2256.02,-6699.63 2252.79,-6701.12 2249.45,-6702.55 2246.02,-6703.93 2242.51,-6705.23 2238.92,-6706.47 2235.26,-6707.63 2231.55,-6708.71 2227.8,-6709.72 2224,-6710.64 2220.16,-6711.48 2216.3,-6712.23 2212.41,-6712.89 2208.5,-6713.46 2204.57,-6713.94 2200.63,-6714.32 2196.68,-6714.61 2192.73,-6714.8 2188.77,-6714.9 2184.81,-6714.9 2180.85,-6714.8 2176.89,-6714.61 2172.94,-6714.32 2169,-6713.94 2165.08,-6713.46 2161.17,-6712.89 2157.28,-6712.23 2153.41,-6711.48 2149.58,-6710.64 2145.78,-6709.72 2142.02,-6708.71 2138.31,-6707.63 2134.66,-6706.47 2131.07,-6705.23 2127.55,-6703.93 2124.12,-6702.55 2120.78,-6701.12 2117.55,-6699.63 2114.43,-6698.08 2111.44,-6696.48 2108.59,-6694.84 2105.89,-6693.15 2103.36,-6691.43 2101.01,-6689.67 2098.85,-6687.89 2096.89,-6686.09 2095.15,-6684.26 2093.65,-6682.43 2092.38,-6680.59 2091.37,-6678.74 2090.63,-6676.9 2090.16,-6675.06 2089.98,-6673.24 2090.09,-6671.43 2090.5,-6669.65 2091.22,-6667.9 2092.25,-6666.17 2093.6,-6664.49 2095.26,-6662.84 2097.24,-6661.25 2099.54,-6659.7 2102.14,-6658.21 2105.06,-6656.77 2108.28,-6655.4 2111.8,-6654.1 2115.6,-6652.86 2119.67,-6651.7 2124,-6650.61 2128.58,-6649.61 2133.39,-6648.69 2138.41,-6647.85 2143.63,-6647.1 2149.02,-6646.44 2154.57,-6645.87 2160.24,-6645.39 2166.03,-6645.01 2171.9,-6644.72 2177.83,-6644.52 2183.8,-6644.43 2189.78,-6644.43 2195.75,-6644.52"/>
<text text-anchor="start" x="2157.87" y="-6689.46" font-family="Times,serif" font-size="14.00">C0023911</text>
<text text-anchor="start" x="2130.61" y="-6675.46" font-family="Times,serif" font-size="14.00">liver transplantation</text>
<text text-anchor="start" x="2164.1" y="-6661.46" font-family="Times,serif" font-size="14.00">119:120</text>
</g>
<!-- id_27653736_DOT_3&#45;&#45;id_27653736_DOT_20 -->
<g id="edge18" class="edge">
<title>id_27653736_DOT_3&#45;&#45;id_27653736_DOT_20</title>
<path fill="none" stroke="black" stroke-dasharray="1,5" d="M2261.82,-6359.88C2245.85,-6427.95 2210.99,-6576.5 2195.05,-6644.46"/>
<text text-anchor="middle" x="2202.18" y="-6504.97" font-family="Times,serif" font-size="14.00">0.888260</text>
</g>
<!-- id_27653736_DOT_4 -->
<g id="node4" class="node">
<title>id_27653736_DOT_4</title>
<polygon fill="blueviolet" stroke="blueviolet" points="2777.81,-3250.46 2781.24,-3250.65 2784.63,-3250.94 2787.97,-3251.33 2791.25,-3251.8 2794.46,-3252.37 2797.58,-3253.04 2800.59,-3253.79 2803.49,-3254.62 2806.27,-3255.55 2808.92,-3256.55 2811.42,-3257.64 2813.78,-3258.8 2815.98,-3260.03 2818.01,-3261.34 2819.87,-3262.71 2821.55,-3264.14 2823.06,-3265.64 2824.39,-3267.18 2825.53,-3268.78 2826.5,-3270.43 2827.27,-3272.11 2827.87,-3273.83 2828.29,-3275.59 2828.52,-3277.37 2828.59,-3279.18 2828.48,-3281 2828.21,-3282.83 2827.78,-3284.68 2827.2,-3286.52 2826.47,-3288.37 2825.59,-3290.2 2824.59,-3292.02 2823.46,-3293.83 2822.21,-3295.61 2820.85,-3297.37 2819.39,-3299.09 2817.83,-3300.77 2816.18,-3302.42 2814.45,-3304.02 2812.65,-3305.56 2810.78,-3307.06 2808.85,-3308.49 2806.87,-3309.86 2804.84,-3311.17 2802.76,-3312.4 2800.65,-3313.56 2798.51,-3314.65 2796.33,-3315.65 2794.14,-3316.58 2791.92,-3317.41 2789.69,-3318.16 2787.44,-3318.83 2785.18,-3319.4 2782.91,-3319.87 2780.63,-3320.26 2778.35,-3320.55 2776.06,-3320.74 2773.78,-3320.84 2771.49,-3320.84 2769.2,-3320.74 2766.91,-3320.55 2764.63,-3320.26 2762.35,-3319.87 2760.08,-3319.4 2757.82,-3318.83 2755.57,-3318.16 2753.34,-3317.41 2751.12,-3316.58 2748.93,-3315.65 2746.76,-3314.65 2744.61,-3313.56 2742.5,-3312.4 2740.43,-3311.17 2738.39,-3309.86 2736.41,-3308.49 2734.48,-3307.06 2732.61,-3305.56 2730.81,-3304.02 2729.08,-3302.42 2727.43,-3300.77 2725.88,-3299.09 2724.41,-3297.37 2723.05,-3295.61 2721.8,-3293.83 2720.67,-3292.02 2719.67,-3290.2 2718.8,-3288.37 2718.07,-3286.52 2717.48,-3284.68 2717.05,-3282.83 2716.78,-3281 2716.67,-3279.18 2716.74,-3277.37 2716.98,-3275.59 2717.39,-3273.83 2717.99,-3272.11 2718.77,-3270.43 2719.73,-3268.78 2720.87,-3267.18 2722.2,-3265.64 2723.71,-3264.14 2725.39,-3262.71 2727.26,-3261.34 2729.29,-3260.03 2731.48,-3258.8 2733.84,-3257.64 2736.34,-3256.55 2738.99,-3255.55 2741.77,-3254.62 2744.67,-3253.79 2747.69,-3253.04 2750.8,-3252.37 2754.01,-3251.8 2757.29,-3251.33 2760.63,-3250.94 2764.02,-3250.65 2767.45,-3250.46 2770.9,-3250.36 2774.36,-3250.36 2777.81,-3250.46"/>
<text text-anchor="start" x="2743.46" y="-3295.4" font-family="Times,serif" font-size="14.00">C0022277</text>
<text text-anchor="start" x="2754.75" y="-3281.4" font-family="Times,serif" font-size="14.00">Italian</text>
<text text-anchor="start" x="2756.69" y="-3267.4" font-family="Times,serif" font-size="14.00">16:16</text>
</g>
<!-- id_27653736_DOT_10 -->
<g id="node10" class="node">
<title>id_27653736_DOT_10</title>
<polygon fill="cornflowerblue" stroke="cornflowerblue" points="3202.61,-3287.9 3206.04,-3288.09 3209.44,-3288.38 3212.78,-3288.76 3216.06,-3289.24 3219.26,-3289.81 3222.38,-3290.47 3225.4,-3291.22 3228.3,-3292.06 3231.08,-3292.98 3233.73,-3293.99 3236.23,-3295.07 3238.58,-3296.23 3240.78,-3297.47 3242.81,-3298.77 3244.67,-3300.14 3246.36,-3301.58 3247.87,-3303.07 3249.2,-3304.62 3250.34,-3306.22 3251.3,-3307.86 3252.08,-3309.55 3252.68,-3311.27 3253.09,-3313.03 3253.33,-3314.81 3253.39,-3316.61 3253.29,-3318.44 3253.02,-3320.27 3252.59,-3322.11 3252,-3323.96 3251.27,-3325.8 3250.4,-3327.64 3249.4,-3329.46 3248.26,-3331.26 3247.02,-3333.05 3245.66,-3334.8 3244.19,-3336.52 3242.63,-3338.21 3240.99,-3339.85 3239.26,-3341.45 3237.46,-3343 3235.59,-3344.49 3233.66,-3345.93 3231.67,-3347.3 3229.64,-3348.6 3227.57,-3349.84 3225.46,-3351 3223.31,-3352.08 3221.14,-3353.09 3218.94,-3354.01 3216.73,-3354.85 3214.49,-3355.6 3212.24,-3356.26 3209.98,-3356.83 3207.72,-3357.31 3205.44,-3357.69 3203.16,-3357.98 3200.87,-3358.17 3198.58,-3358.27 3196.29,-3358.27 3194,-3358.17 3191.72,-3357.98 3189.43,-3357.69 3187.16,-3357.31 3184.89,-3356.83 3182.63,-3356.26 3180.38,-3355.6 3178.15,-3354.85 3175.93,-3354.01 3173.73,-3353.09 3171.56,-3352.08 3169.42,-3351 3167.3,-3349.84 3165.23,-3348.6 3163.2,-3347.3 3161.22,-3345.93 3159.29,-3344.49 3157.42,-3343 3155.62,-3341.45 3153.89,-3339.85 3152.24,-3338.21 3150.68,-3336.52 3149.22,-3334.8 3147.86,-3333.05 3146.61,-3331.26 3145.48,-3329.46 3144.47,-3327.64 3143.6,-3325.8 3142.87,-3323.96 3142.29,-3322.11 3141.86,-3320.27 3141.59,-3318.44 3141.48,-3316.61 3141.54,-3314.81 3141.78,-3313.03 3142.2,-3311.27 3142.79,-3309.55 3143.57,-3307.86 3144.53,-3306.22 3145.68,-3304.62 3147,-3303.07 3148.51,-3301.58 3150.2,-3300.14 3152.06,-3298.77 3154.09,-3297.47 3156.29,-3296.23 3158.64,-3295.07 3161.15,-3293.99 3163.79,-3292.98 3166.57,-3292.06 3169.48,-3291.22 3172.49,-3290.47 3175.61,-3289.81 3178.81,-3289.24 3182.09,-3288.76 3185.44,-3288.38 3188.83,-3288.09 3192.26,-3287.9 3195.71,-3287.8 3199.16,-3287.8 3202.61,-3287.9"/>
<text text-anchor="start" x="3168.27" y="-3332.84" font-family="Times,serif" font-size="14.00">C0543467</text>
<text text-anchor="start" x="3176.57" y="-3318.84" font-family="Times,serif" font-size="14.00">surgery</text>
<text text-anchor="start" x="3181.49" y="-3304.84" font-family="Times,serif" font-size="14.00">40:40</text>
</g>
<!-- id_27653736_DOT_4&#45;&#45;id_27653736_DOT_10 -->
<g id="edge19" class="edge">
<title>id_27653736_DOT_4&#45;&#45;id_27653736_DOT_10</title>
<path fill="none" stroke="black" stroke-dasharray="1,5" d="M2825.57,-3290.27C2906.2,-3297.37 3059.06,-3310.84 3141.46,-3318.1"/>
<text text-anchor="middle" x="2957.27" y="-3306.98" font-family="Times,serif" font-size="14.00">0.863594</text>
</g>
<!-- id_27653736_DOT_4&#45;&#45;id_27653736_DOT_30 -->
<g id="edge20" class="edge">
<title>id_27653736_DOT_4&#45;&#45;id_27653736_DOT_30</title>
<path fill="none" stroke="black" stroke-dasharray="1,5" d="M2716.75,-3277.14C2636.02,-3264.92 2487.89,-3242.51 2409.72,-3230.68"/>
<text text-anchor="middle" x="2536.99" y="-3256.71" font-family="Times,serif" font-size="14.00">0.898469</text>
</g>
<!-- id_27653736_DOT_5 -->
<g id="node5" class="node">
<title>id_27653736_DOT_5</title>
<polygon fill="brown" stroke="brown" points="1632.62,-2694.91 1636.91,-2695.11 1641.15,-2695.4 1645.33,-2695.78 1649.43,-2696.26 1653.44,-2696.83 1657.34,-2697.49 1661.1,-2698.24 1664.73,-2699.08 1668.21,-2700 1671.52,-2701 1674.65,-2702.09 1677.59,-2703.25 1680.34,-2704.49 1682.88,-2705.79 1685.21,-2707.16 1687.31,-2708.6 1689.2,-2710.09 1690.86,-2711.64 1692.29,-2713.23 1693.49,-2714.88 1694.46,-2716.56 1695.21,-2718.29 1695.73,-2720.04 1696.03,-2721.82 1696.11,-2723.63 1695.97,-2725.45 1695.64,-2727.29 1695.1,-2729.13 1694.37,-2730.98 1693.45,-2732.82 1692.37,-2734.65 1691.11,-2736.48 1689.7,-2738.28 1688.13,-2740.06 1686.43,-2741.82 1684.6,-2743.54 1682.65,-2745.23 1680.6,-2746.87 1678.43,-2748.47 1676.18,-2750.02 1673.84,-2751.51 1671.43,-2752.94 1668.95,-2754.32 1666.41,-2755.62 1663.82,-2756.86 1661.18,-2758.02 1658.5,-2759.1 1655.78,-2760.11 1653.04,-2761.03 1650.27,-2761.87 1647.47,-2762.62 1644.66,-2763.28 1641.84,-2763.85 1639,-2764.33 1636.15,-2764.71 1633.3,-2765 1630.44,-2765.19 1627.58,-2765.29 1624.72,-2765.29 1621.86,-2765.19 1619,-2765 1616.15,-2764.71 1613.3,-2764.33 1610.46,-2763.85 1607.64,-2763.28 1604.83,-2762.62 1602.03,-2761.87 1599.26,-2761.03 1596.52,-2760.11 1593.8,-2759.1 1591.12,-2758.02 1588.48,-2756.86 1585.89,-2755.62 1583.35,-2754.32 1580.87,-2752.94 1578.46,-2751.51 1576.12,-2750.02 1573.87,-2748.47 1571.71,-2746.87 1569.65,-2745.23 1567.7,-2743.54 1565.87,-2741.82 1564.17,-2740.06 1562.61,-2738.28 1561.19,-2736.48 1559.94,-2734.65 1558.85,-2732.82 1557.93,-2730.98 1557.2,-2729.13 1556.67,-2727.29 1556.33,-2725.45 1556.19,-2723.63 1556.27,-2721.82 1556.57,-2720.04 1557.09,-2718.29 1557.84,-2716.56 1558.81,-2714.88 1560.01,-2713.23 1561.44,-2711.64 1563.1,-2710.09 1564.99,-2708.6 1567.1,-2707.16 1569.42,-2705.79 1571.96,-2704.49 1574.71,-2703.25 1577.65,-2702.09 1580.78,-2701 1584.09,-2700 1587.57,-2699.08 1591.2,-2698.24 1594.97,-2697.49 1598.86,-2696.83 1602.87,-2696.26 1606.97,-2695.78 1611.15,-2695.4 1615.39,-2695.11 1619.68,-2694.91 1623.99,-2694.82 1628.31,-2694.82 1632.62,-2694.91"/>
<text text-anchor="start" x="1596.98" y="-2739.85" font-family="Times,serif" font-size="14.00">C0475309</text>
<text text-anchor="start" x="1587.85" y="-2725.85" font-family="Times,serif" font-size="14.00">Single Center</text>
<text text-anchor="start" x="1610.21" y="-2711.85" font-family="Times,serif" font-size="14.00">17:18</text>
</g>
<!-- id_27653736_DOT_7 -->
<g id="node7" class="node">
<title>id_27653736_DOT_7</title>
<polygon fill="chartreuse" stroke="chartreuse" points="1599.02,-2267.58 1602.62,-2267.78 1606.18,-2268.07 1609.7,-2268.45 1613.15,-2268.93 1616.51,-2269.5 1619.79,-2270.16 1622.96,-2270.91 1626.01,-2271.75 1628.93,-2272.67 1631.71,-2273.67 1634.34,-2274.76 1636.82,-2275.92 1639.12,-2277.15 1641.26,-2278.46 1643.22,-2279.83 1644.99,-2281.26 1646.57,-2282.76 1647.97,-2284.31 1649.17,-2285.9 1650.18,-2287.55 1651,-2289.23 1651.62,-2290.96 1652.06,-2292.71 1652.31,-2294.49 1652.38,-2296.3 1652.27,-2298.12 1651.98,-2299.96 1651.53,-2301.8 1650.92,-2303.64 1650.15,-2305.49 1649.23,-2307.32 1648.18,-2309.15 1646.99,-2310.95 1645.68,-2312.73 1644.25,-2314.49 1642.71,-2316.21 1641.07,-2317.9 1639.34,-2319.54 1637.52,-2321.14 1635.63,-2322.69 1633.67,-2324.18 1631.64,-2325.61 1629.55,-2326.99 1627.42,-2328.29 1625.24,-2329.52 1623.02,-2330.69 1620.77,-2331.77 1618.48,-2332.78 1616.18,-2333.7 1613.85,-2334.54 1611.5,-2335.29 1609.14,-2335.95 1606.76,-2336.52 1604.38,-2337 1601.98,-2337.38 1599.58,-2337.67 1597.18,-2337.86 1594.78,-2337.96 1592.37,-2337.96 1589.97,-2337.86 1587.56,-2337.67 1585.17,-2337.38 1582.77,-2337 1580.39,-2336.52 1578.01,-2335.95 1575.65,-2335.29 1573.3,-2334.54 1570.97,-2333.7 1568.66,-2332.78 1566.38,-2331.77 1564.13,-2330.69 1561.91,-2329.52 1559.73,-2328.29 1557.59,-2326.99 1555.51,-2325.61 1553.48,-2324.18 1551.52,-2322.69 1549.62,-2321.14 1547.81,-2319.54 1546.08,-2317.9 1544.44,-2316.21 1542.9,-2314.49 1541.47,-2312.73 1540.16,-2310.95 1538.97,-2309.15 1537.91,-2307.32 1537,-2305.49 1536.23,-2303.64 1535.62,-2301.8 1535.17,-2299.96 1534.88,-2298.12 1534.77,-2296.3 1534.84,-2294.49 1535.09,-2292.71 1535.52,-2290.96 1536.15,-2289.23 1536.97,-2287.55 1537.98,-2285.9 1539.18,-2284.31 1540.58,-2282.76 1542.16,-2281.26 1543.93,-2279.83 1545.89,-2278.46 1548.02,-2277.15 1550.33,-2275.92 1552.81,-2274.76 1555.44,-2273.67 1558.22,-2272.67 1561.14,-2271.75 1564.19,-2270.91 1567.36,-2270.16 1570.64,-2269.5 1574,-2268.93 1577.45,-2268.45 1580.96,-2268.07 1584.53,-2267.78 1588.13,-2267.58 1591.76,-2267.49 1595.39,-2267.49 1599.02,-2267.58"/>
<text text-anchor="start" x="1564.41" y="-2312.52" font-family="Times,serif" font-size="14.00">C0237401</text>
<text text-anchor="start" x="1562.46" y="-2298.52" font-family="Times,serif" font-size="14.00">individuals</text>
<text text-anchor="start" x="1577.63" y="-2284.52" font-family="Times,serif" font-size="14.00">27:27</text>
</g>
<!-- id_27653736_DOT_5&#45;&#45;id_27653736_DOT_7 -->
<g id="edge21" class="edge">
<title>id_27653736_DOT_5&#45;&#45;id_27653736_DOT_7</title>
<path fill="none" stroke="black" stroke-dasharray="1,5" d="M1623.46,-2694.72C1617.33,-2614.33 1602.4,-2418.52 1596.27,-2338.1"/>
<text text-anchor="middle" x="1583.61" y="-2519.21" font-family="Times,serif" font-size="14.00">0.826032</text>
</g>
<!-- id_27653736_DOT_17 -->
<g id="node17" class="node">
<title>id_27653736_DOT_17</title>
<polygon fill="brown" stroke="brown" points="1990.05,-2948.39 1994.07,-2948.58 1998.06,-2948.87 2001.98,-2949.25 2005.84,-2949.73 2009.6,-2950.3 2013.26,-2950.96 2016.81,-2951.71 2020.22,-2952.55 2023.48,-2953.47 2026.59,-2954.48 2029.53,-2955.56 2032.3,-2956.72 2034.88,-2957.96 2037.26,-2959.26 2039.45,-2960.63 2041.43,-2962.07 2043.2,-2963.56 2044.76,-2965.11 2046.11,-2966.71 2047.24,-2968.35 2048.15,-2970.04 2048.85,-2971.76 2049.34,-2973.51 2049.62,-2975.3 2049.69,-2977.1 2049.57,-2978.92 2049.25,-2980.76 2048.74,-2982.6 2048.06,-2984.45 2047.2,-2986.29 2046.18,-2988.13 2045,-2989.95 2043.67,-2991.75 2042.2,-2993.54 2040.6,-2995.29 2038.88,-2997.01 2037.05,-2998.7 2035.12,-3000.34 2033.09,-3001.94 2030.97,-3003.49 2028.78,-3004.98 2026.51,-3006.42 2024.18,-3007.79 2021.79,-3009.09 2019.36,-3010.33 2016.88,-3011.49 2014.36,-3012.57 2011.81,-3013.58 2009.23,-3014.5 2006.62,-3015.34 2004,-3016.09 2001.36,-3016.75 1998.7,-3017.32 1996.04,-3017.8 1993.36,-3018.18 1990.68,-3018.47 1988,-3018.66 1985.31,-3018.76 1982.62,-3018.76 1979.93,-3018.66 1977.24,-3018.47 1974.56,-3018.18 1971.89,-3017.8 1969.22,-3017.32 1966.57,-3016.75 1963.93,-3016.09 1961.3,-3015.34 1958.7,-3014.5 1956.12,-3013.58 1953.57,-3012.57 1951.05,-3011.49 1948.57,-3010.33 1946.13,-3009.09 1943.75,-3007.79 1941.42,-3006.42 1939.15,-3004.98 1936.95,-3003.49 1934.84,-3001.94 1932.81,-3000.34 1930.87,-2998.7 1929.04,-2997.01 1927.32,-2995.29 1925.72,-2993.54 1924.26,-2991.75 1922.93,-2989.95 1921.75,-2988.13 1920.73,-2986.29 1919.87,-2984.45 1919.18,-2982.6 1918.68,-2980.76 1918.36,-2978.92 1918.23,-2977.1 1918.31,-2975.3 1918.59,-2973.51 1919.08,-2971.76 1919.78,-2970.04 1920.69,-2968.35 1921.82,-2966.71 1923.16,-2965.11 1924.72,-2963.56 1926.49,-2962.07 1928.48,-2960.63 1930.66,-2959.26 1933.05,-2957.96 1935.63,-2956.72 1938.39,-2955.56 1941.34,-2954.48 1944.44,-2953.47 1947.71,-2952.55 1951.12,-2951.71 1954.66,-2950.96 1958.32,-2950.3 1962.09,-2949.73 1965.94,-2949.25 1969.87,-2948.87 1973.85,-2948.58 1977.88,-2948.39 1981.93,-2948.29 1985.99,-2948.29 1990.05,-2948.39"/>
<text text-anchor="start" x="1954.79" y="-2993.32" font-family="Times,serif" font-size="14.00">C0475309</text>
<text text-anchor="start" x="1948.4" y="-2979.32" font-family="Times,serif" font-size="14.00">single center</text>
<text text-anchor="start" x="1961.02" y="-2965.32" font-family="Times,serif" font-size="14.00">102:103</text>
</g>
<!-- id_27653736_DOT_5&#45;&#45;id_27653736_DOT_17 -->
<g id="edge4" class="edge">
<title>id_27653736_DOT_5&#45;&#45;id_27653736_DOT_17</title>
<path fill="none" stroke="black" d="M1664.1,-2756.94C1731.64,-2804.78 1872.16,-2904.32 1942.28,-2954"/>
<text text-anchor="middle" x="1776.94" y="-2858.27" font-family="Times,serif" font-size="14.00">0.046044</text>
</g>
<!-- id_27653736_DOT_31 -->
<g id="node31" class="node">
<title>id_27653736_DOT_31</title>
<polygon fill="cadetblue" stroke="cadetblue" points="1226.92,-2839.98 1230.35,-2840.18 1233.74,-2840.46 1237.09,-2840.85 1240.37,-2841.33 1243.57,-2841.9 1246.69,-2842.56 1249.7,-2843.31 1252.61,-2844.15 1255.39,-2845.07 1258.03,-2846.07 1260.54,-2847.16 1262.89,-2848.32 1265.09,-2849.55 1267.12,-2850.86 1268.98,-2852.23 1270.67,-2853.66 1272.18,-2855.16 1273.5,-2856.71 1274.65,-2858.3 1275.61,-2859.95 1276.39,-2861.63 1276.98,-2863.36 1277.4,-2865.11 1277.64,-2866.89 1277.7,-2868.7 1277.59,-2870.52 1277.32,-2872.36 1276.89,-2874.2 1276.31,-2876.04 1275.58,-2877.89 1274.71,-2879.72 1273.7,-2881.55 1272.57,-2883.35 1271.32,-2885.13 1269.96,-2886.89 1268.5,-2888.61 1266.94,-2890.3 1265.29,-2891.94 1263.56,-2893.54 1261.76,-2895.09 1259.89,-2896.58 1257.96,-2898.01 1255.98,-2899.38 1253.95,-2900.69 1251.87,-2901.92 1249.76,-2903.09 1247.62,-2904.17 1245.45,-2905.18 1243.25,-2906.1 1241.03,-2906.94 1238.8,-2907.69 1236.55,-2908.35 1234.29,-2908.92 1232.02,-2909.4 1229.75,-2909.78 1227.46,-2910.07 1225.18,-2910.26 1222.89,-2910.36 1220.6,-2910.36 1218.31,-2910.26 1216.02,-2910.07 1213.74,-2909.78 1211.46,-2909.4 1209.2,-2908.92 1206.94,-2908.35 1204.69,-2907.69 1202.45,-2906.94 1200.24,-2906.1 1198.04,-2905.18 1195.87,-2904.17 1193.72,-2903.09 1191.61,-2901.92 1189.54,-2900.69 1187.51,-2899.38 1185.52,-2898.01 1183.59,-2896.58 1181.72,-2895.09 1179.92,-2893.54 1178.19,-2891.94 1176.55,-2890.3 1174.99,-2888.61 1173.52,-2886.89 1172.16,-2885.13 1170.91,-2883.35 1169.78,-2881.55 1168.78,-2879.72 1167.91,-2877.89 1167.18,-2876.04 1166.59,-2874.2 1166.16,-2872.36 1165.89,-2870.52 1165.79,-2868.7 1165.85,-2866.89 1166.09,-2865.11 1166.5,-2863.36 1167.1,-2861.63 1167.88,-2859.95 1168.84,-2858.3 1169.98,-2856.71 1171.31,-2855.16 1172.82,-2853.66 1174.51,-2852.23 1176.37,-2850.86 1178.4,-2849.55 1180.6,-2848.32 1182.95,-2847.16 1185.45,-2846.07 1188.1,-2845.07 1190.88,-2844.15 1193.78,-2843.31 1196.8,-2842.56 1199.92,-2841.9 1203.12,-2841.33 1206.4,-2840.85 1209.74,-2840.46 1213.14,-2840.18 1216.57,-2839.98 1220.02,-2839.89 1223.47,-2839.89 1226.92,-2839.98"/>
<text text-anchor="start" x="1192.57" y="-2884.92" font-family="Times,serif" font-size="14.00">C0684224</text>
<text text-anchor="start" x="1202.31" y="-2870.92" font-family="Times,serif" font-size="14.00">reports</text>
<text text-anchor="start" x="1198.8" y="-2856.92" font-family="Times,serif" font-size="14.00">206:206</text>
</g>
<!-- id_27653736_DOT_5&#45;&#45;id_27653736_DOT_31 -->
<g id="edge22" class="edge">
<title>id_27653736_DOT_5&#45;&#45;id_27653736_DOT_31</title>
<path fill="none" stroke="black" stroke-dasharray="1,5" d="M1574.11,-2748.72C1496.46,-2776.58 1351.12,-2828.71 1273.59,-2856.53"/>
<text text-anchor="middle" x="1397.6" y="-2805.42" font-family="Times,serif" font-size="14.00">0.674151</text>
</g>
<!-- id_27653736_DOT_6 -->
<g id="node6" class="node">
<title>id_27653736_DOT_6</title>
<polygon fill="cadetblue" stroke="cadetblue" points="830.11,-2935.79 833.54,-2935.98 836.93,-2936.27 840.27,-2936.66 843.55,-2937.13 846.76,-2937.71 849.88,-2938.37 852.89,-2939.12 855.79,-2939.95 858.57,-2940.88 861.22,-2941.88 863.72,-2942.97 866.08,-2944.13 868.28,-2945.36 870.31,-2946.67 872.17,-2948.04 873.85,-2949.47 875.36,-2950.97 876.69,-2952.51 877.83,-2954.11 878.8,-2955.76 879.57,-2957.44 880.17,-2959.17 880.59,-2960.92 880.82,-2962.7 880.89,-2964.51 880.78,-2966.33 880.51,-2968.17 880.08,-2970.01 879.5,-2971.85 878.77,-2973.7 877.89,-2975.53 876.89,-2977.35 875.76,-2979.16 874.51,-2980.94 873.15,-2982.7 871.69,-2984.42 870.13,-2986.11 868.48,-2987.75 866.75,-2989.35 864.95,-2990.9 863.08,-2992.39 861.15,-2993.82 859.17,-2995.19 857.14,-2996.5 855.06,-2997.73 852.95,-2998.89 850.81,-2999.98 848.63,-3000.98 846.44,-3001.91 844.22,-3002.74 841.99,-3003.5 839.74,-3004.16 837.48,-3004.73 835.21,-3005.2 832.93,-3005.59 830.65,-3005.88 828.36,-3006.07 826.08,-3006.17 823.79,-3006.17 821.5,-3006.07 819.21,-3005.88 816.93,-3005.59 814.65,-3005.2 812.38,-3004.73 810.12,-3004.16 807.87,-3003.5 805.64,-3002.74 803.42,-3001.91 801.23,-3000.98 799.06,-2999.98 796.91,-2998.89 794.8,-2997.73 792.73,-2996.5 790.69,-2995.19 788.71,-2993.82 786.78,-2992.39 784.91,-2990.9 783.11,-2989.35 781.38,-2987.75 779.73,-2986.11 778.18,-2984.42 776.71,-2982.7 775.35,-2980.94 774.1,-2979.16 772.97,-2977.35 771.97,-2975.53 771.1,-2973.7 770.37,-2971.85 769.78,-2970.01 769.35,-2968.17 769.08,-2966.33 768.97,-2964.51 769.04,-2962.7 769.28,-2960.92 769.69,-2959.17 770.29,-2957.44 771.07,-2955.76 772.03,-2954.11 773.17,-2952.51 774.5,-2950.97 776.01,-2949.47 777.69,-2948.04 779.56,-2946.67 781.59,-2945.36 783.78,-2944.13 786.14,-2942.97 788.64,-2941.88 791.29,-2940.88 794.07,-2939.95 796.97,-2939.12 799.99,-2938.37 803.1,-2937.71 806.31,-2937.13 809.59,-2936.66 812.93,-2936.27 816.32,-2935.98 819.75,-2935.79 823.2,-2935.7 826.66,-2935.7 830.11,-2935.79"/>
<text text-anchor="start" x="795.76" y="-2980.73" font-family="Times,serif" font-size="14.00">C0684224</text>
<text text-anchor="start" x="805.88" y="-2966.73" font-family="Times,serif" font-size="14.00">Report</text>
<text text-anchor="start" x="808.99" y="-2952.73" font-family="Times,serif" font-size="14.00">19:19</text>
</g>
<!-- id_27653736_DOT_15 -->
<g id="node15" class="node">
<title>id_27653736_DOT_15</title>
<polygon fill="darkgreen" stroke="darkgreen" points="442.47,-3006.7 445.9,-3006.89 449.29,-3007.18 452.63,-3007.57 455.91,-3008.04 459.12,-3008.61 462.24,-3009.27 465.25,-3010.02 468.15,-3010.86 470.93,-3011.79 473.58,-3012.79 476.09,-3013.88 478.44,-3015.04 480.64,-3016.27 482.67,-3017.58 484.53,-3018.95 486.22,-3020.38 487.72,-3021.87 489.05,-3023.42 490.2,-3025.02 491.16,-3026.66 491.93,-3028.35 492.53,-3030.07 492.95,-3031.83 493.18,-3033.61 493.25,-3035.42 493.14,-3037.24 492.87,-3039.07 492.44,-3040.92 491.86,-3042.76 491.13,-3044.6 490.26,-3046.44 489.25,-3048.26 488.12,-3050.07 486.87,-3051.85 485.51,-3053.6 484.05,-3055.33 482.49,-3057.01 480.84,-3058.66 479.11,-3060.26 477.31,-3061.8 475.44,-3063.3 473.51,-3064.73 471.53,-3066.1 469.5,-3067.41 467.42,-3068.64 465.31,-3069.8 463.17,-3070.89 461,-3071.89 458.8,-3072.81 456.58,-3073.65 454.35,-3074.4 452.1,-3075.06 449.84,-3075.63 447.57,-3076.11 445.29,-3076.5 443.01,-3076.78 440.72,-3076.98 438.44,-3077.07 436.15,-3077.07 433.86,-3076.98 431.57,-3076.78 429.29,-3076.5 427.01,-3076.11 424.74,-3075.63 422.48,-3075.06 420.23,-3074.4 418,-3073.65 415.78,-3072.81 413.59,-3071.89 411.42,-3070.89 409.27,-3069.8 407.16,-3068.64 405.09,-3067.41 403.05,-3066.1 401.07,-3064.73 399.14,-3063.3 397.27,-3061.8 395.47,-3060.26 393.74,-3058.66 392.09,-3057.01 390.54,-3055.33 389.07,-3053.6 387.71,-3051.85 386.46,-3050.07 385.33,-3048.26 384.33,-3046.44 383.46,-3044.6 382.73,-3042.76 382.14,-3040.92 381.71,-3039.07 381.44,-3037.24 381.34,-3035.42 381.4,-3033.61 381.64,-3031.83 382.05,-3030.07 382.65,-3028.35 383.43,-3026.66 384.39,-3025.02 385.53,-3023.42 386.86,-3021.87 388.37,-3020.38 390.05,-3018.95 391.92,-3017.58 393.95,-3016.27 396.14,-3015.04 398.5,-3013.88 401,-3012.79 403.65,-3011.79 406.43,-3010.86 409.33,-3010.02 412.35,-3009.27 415.46,-3008.61 418.67,-3008.04 421.95,-3007.57 425.29,-3007.18 428.69,-3006.89 432.11,-3006.7 435.56,-3006.6 439.02,-3006.6 442.47,-3006.7"/>
<text text-anchor="start" x="408.12" y="-3051.64" font-family="Times,serif" font-size="14.00">C0936012</text>
<text text-anchor="start" x="414.74" y="-3037.64" font-family="Times,serif" font-size="14.00">analysis</text>
<text text-anchor="start" x="421.35" y="-3023.64" font-family="Times,serif" font-size="14.00">79:79</text>
</g>
<!-- id_27653736_DOT_6&#45;&#45;id_27653736_DOT_15 -->
<g id="edge23" class="edge">
<title>id_27653736_DOT_6&#45;&#45;id_27653736_DOT_15</title>
<path fill="none" stroke="black" stroke-dasharray="1,5" d="M774.65,-2980.13C702.13,-2993.39 568.62,-3017.82 493.13,-3031.63"/>
<text text-anchor="middle" x="607.64" y="-3008.68" font-family="Times,serif" font-size="14.00">0.896397</text>
</g>
<!-- id_27653736_DOT_6&#45;&#45;id_27653736_DOT_31 -->
<g id="edge5" class="edge">
<title>id_27653736_DOT_6&#45;&#45;id_27653736_DOT_31</title>
<path fill="none" stroke="black" d="M879.69,-2957.71C957.5,-2938.92 1098.86,-2904.79 1173.15,-2886.86"/>
<text text-anchor="middle" x="1000.17" y="-2925.08" font-family="Times,serif" font-size="14.00">0.029745</text>
</g>
<!-- id_27653736_DOT_23 -->
<g id="node23" class="node">
<title>id_27653736_DOT_23</title>
<polygon fill="darkmagenta" stroke="darkmagenta" points="1520.22,-1867.94 1523.64,-1868.13 1527.04,-1868.42 1530.38,-1868.8 1533.66,-1869.28 1536.87,-1869.85 1539.98,-1870.51 1543,-1871.26 1545.9,-1872.1 1548.68,-1873.02 1551.33,-1874.03 1553.83,-1875.11 1556.19,-1876.27 1558.38,-1877.51 1560.41,-1878.81 1562.28,-1880.18 1563.96,-1881.62 1565.47,-1883.11 1566.8,-1884.66 1567.94,-1886.26 1568.9,-1887.9 1569.68,-1889.59 1570.28,-1891.31 1570.69,-1893.06 1570.93,-1894.85 1570.99,-1896.65 1570.89,-1898.47 1570.62,-1900.31 1570.19,-1902.15 1569.6,-1904 1568.87,-1905.84 1568,-1907.68 1567,-1909.5 1565.87,-1911.3 1564.62,-1913.09 1563.26,-1914.84 1561.79,-1916.56 1560.24,-1918.25 1558.59,-1919.89 1556.86,-1921.49 1555.06,-1923.04 1553.19,-1924.53 1551.26,-1925.97 1549.28,-1927.34 1547.24,-1928.64 1545.17,-1929.88 1543.06,-1931.04 1540.91,-1932.12 1538.74,-1933.13 1536.55,-1934.05 1534.33,-1934.89 1532.1,-1935.64 1529.85,-1936.3 1527.59,-1936.87 1525.32,-1937.35 1523.04,-1937.73 1520.76,-1938.02 1518.47,-1938.21 1516.18,-1938.31 1513.89,-1938.31 1511.61,-1938.21 1509.32,-1938.02 1507.04,-1937.73 1504.76,-1937.35 1502.49,-1936.87 1500.23,-1936.3 1497.98,-1935.64 1495.75,-1934.89 1493.53,-1934.05 1491.33,-1933.13 1489.16,-1932.12 1487.02,-1931.04 1484.91,-1929.88 1482.83,-1928.64 1480.8,-1927.34 1478.82,-1925.97 1476.89,-1924.53 1475.02,-1923.04 1473.22,-1921.49 1471.49,-1919.89 1469.84,-1918.25 1468.28,-1916.56 1466.82,-1914.84 1465.46,-1913.09 1464.21,-1911.3 1463.08,-1909.5 1462.07,-1907.68 1461.2,-1905.84 1460.47,-1904 1459.89,-1902.15 1459.46,-1900.31 1459.19,-1898.47 1459.08,-1896.65 1459.15,-1894.85 1459.38,-1893.06 1459.8,-1891.31 1460.4,-1889.59 1461.17,-1887.9 1462.13,-1886.26 1463.28,-1884.66 1464.61,-1883.11 1466.11,-1881.62 1467.8,-1880.18 1469.66,-1878.81 1471.69,-1877.51 1473.89,-1876.27 1476.24,-1875.11 1478.75,-1874.03 1481.4,-1873.02 1484.18,-1872.1 1487.08,-1871.26 1490.09,-1870.51 1493.21,-1869.85 1496.42,-1869.28 1499.7,-1868.8 1503.04,-1868.42 1506.43,-1868.13 1509.86,-1867.94 1513.31,-1867.84 1516.77,-1867.84 1520.22,-1867.94"/>
<text text-anchor="start" x="1485.87" y="-1912.88" font-family="Times,serif" font-size="14.00">C1513916</text>
<text text-anchor="start" x="1506.48" y="-1898.88" font-family="Times,serif" font-size="14.00">No</text>
<text text-anchor="start" x="1492.09" y="-1884.88" font-family="Times,serif" font-size="14.00">133:133</text>
</g>
<!-- id_27653736_DOT_7&#45;&#45;id_27653736_DOT_23 -->
<g id="edge24" class="edge">
<title>id_27653736_DOT_7&#45;&#45;id_27653736_DOT_23</title>
<path fill="none" stroke="black" stroke-dasharray="1,5" d="M1586.67,-2267.61C1571.78,-2191.8 1536.75,-2013.58 1521.9,-1937.97"/>
<text text-anchor="middle" x="1528.03" y="-2105.59" font-family="Times,serif" font-size="14.00">0.876498</text>
</g>
<!-- id_27653736_DOT_12 -->
<g id="node12" class="node">
<title>id_27653736_DOT_12</title>
<polygon fill="coral" stroke="coral" points="2306.95,-5557.01 2310.86,-5557.2 2314.72,-5557.49 2318.53,-5557.88 2322.27,-5558.35 2325.92,-5558.93 2329.47,-5559.59 2332.91,-5560.34 2336.22,-5561.17 2339.38,-5562.1 2342.4,-5563.1 2345.25,-5564.19 2347.94,-5565.35 2350.44,-5566.58 2352.75,-5567.89 2354.87,-5569.26 2356.8,-5570.69 2358.51,-5572.19 2360.03,-5573.73 2361.33,-5575.33 2362.43,-5576.98 2363.31,-5578.66 2363.99,-5580.39 2364.47,-5582.14 2364.74,-5583.92 2364.81,-5585.73 2364.69,-5587.55 2364.38,-5589.39 2363.89,-5591.23 2363.23,-5593.07 2362.39,-5594.92 2361.4,-5596.75 2360.25,-5598.57 2358.97,-5600.38 2357.54,-5602.16 2355.99,-5603.92 2354.33,-5605.64 2352.55,-5607.33 2350.67,-5608.97 2348.7,-5610.57 2346.65,-5612.12 2344.52,-5613.61 2342.32,-5615.04 2340.06,-5616.41 2337.75,-5617.72 2335.38,-5618.95 2332.98,-5620.11 2330.53,-5621.2 2328.06,-5622.2 2325.56,-5623.13 2323.03,-5623.96 2320.49,-5624.72 2317.92,-5625.38 2315.35,-5625.95 2312.76,-5626.42 2310.17,-5626.81 2307.57,-5627.1 2304.96,-5627.29 2302.35,-5627.39 2299.75,-5627.39 2297.14,-5627.29 2294.53,-5627.1 2291.93,-5626.81 2289.34,-5626.42 2286.75,-5625.95 2284.18,-5625.38 2281.61,-5624.72 2279.07,-5623.96 2276.54,-5623.13 2274.04,-5622.2 2271.57,-5621.2 2269.12,-5620.11 2266.72,-5618.95 2264.35,-5617.72 2262.04,-5616.41 2259.78,-5615.04 2257.58,-5613.61 2255.45,-5612.12 2253.4,-5610.57 2251.43,-5608.97 2249.55,-5607.33 2247.77,-5605.64 2246.11,-5603.92 2244.56,-5602.16 2243.13,-5600.38 2241.84,-5598.57 2240.7,-5596.75 2239.71,-5594.92 2238.87,-5593.07 2238.21,-5591.23 2237.72,-5589.39 2237.41,-5587.55 2237.29,-5585.73 2237.36,-5583.92 2237.63,-5582.14 2238.11,-5580.39 2238.79,-5578.66 2239.67,-5576.98 2240.77,-5575.33 2242.07,-5573.73 2243.58,-5572.19 2245.3,-5570.69 2247.23,-5569.26 2249.35,-5567.89 2251.66,-5566.58 2254.16,-5565.35 2256.85,-5564.19 2259.7,-5563.1 2262.72,-5562.1 2265.88,-5561.17 2269.19,-5560.34 2272.63,-5559.59 2276.18,-5558.93 2279.83,-5558.35 2283.57,-5557.88 2287.38,-5557.49 2291.24,-5557.2 2295.15,-5557.01 2299.08,-5556.92 2303.02,-5556.92 2306.95,-5557.01"/>
<text text-anchor="start" x="2271.88" y="-5601.95" font-family="Times,serif" font-size="14.00">C0348050</text>
<text text-anchor="start" x="2266.63" y="-5587.95" font-family="Times,serif" font-size="14.00">living donor</text>
<text text-anchor="start" x="2285.1" y="-5573.95" font-family="Times,serif" font-size="14.00">54:55</text>
</g>
<!-- id_27653736_DOT_8&#45;&#45;id_27653736_DOT_12 -->
<g id="edge6" class="edge">
<title>id_27653736_DOT_8&#45;&#45;id_27653736_DOT_12</title>
<path fill="none" stroke="black" d="M2303.14,-5924.69C2302.7,-5854.48 2301.71,-5697.93 2301.27,-5627.58"/>
<text text-anchor="middle" x="2275.96" y="-5778.94" font-family="Times,serif" font-size="14.00">0.005235</text>
</g>
<!-- id_27653736_DOT_11 -->
<g id="node11" class="node">
<title>id_27653736_DOT_11</title>
<polygon fill="aquamarine" stroke="aquamarine" points="1490.69,-721.47 1495.06,-721.67 1499.39,-721.95 1503.65,-722.34 1507.84,-722.82 1511.93,-723.39 1515.9,-724.05 1519.75,-724.8 1523.45,-725.64 1527,-726.56 1530.37,-727.56 1533.57,-728.65 1536.57,-729.81 1539.37,-731.04 1541.96,-732.35 1544.34,-733.72 1546.49,-735.15 1548.41,-736.65 1550.11,-738.19 1551.57,-739.79 1552.79,-741.44 1553.79,-743.12 1554.55,-744.85 1555.08,-746.6 1555.38,-748.38 1555.46,-750.19 1555.33,-752.01 1554.98,-753.85 1554.43,-755.69 1553.69,-757.53 1552.75,-759.38 1551.64,-761.21 1550.36,-763.03 1548.92,-764.84 1547.33,-766.62 1545.59,-768.38 1543.72,-770.1 1541.74,-771.79 1539.63,-773.43 1537.43,-775.03 1535.13,-776.58 1532.75,-778.07 1530.28,-779.5 1527.75,-780.87 1525.16,-782.18 1522.52,-783.41 1519.82,-784.58 1517.09,-785.66 1514.32,-786.66 1511.52,-787.59 1508.69,-788.43 1505.84,-789.18 1502.97,-789.84 1500.09,-790.41 1497.19,-790.88 1494.29,-791.27 1491.38,-791.56 1488.46,-791.75 1485.54,-791.85 1482.62,-791.85 1479.7,-791.75 1476.79,-791.56 1473.87,-791.27 1470.97,-790.88 1468.07,-790.41 1465.19,-789.84 1462.32,-789.18 1459.47,-788.43 1456.65,-787.59 1453.84,-786.66 1451.07,-785.66 1448.34,-784.58 1445.65,-783.41 1443,-782.18 1440.41,-780.87 1437.88,-779.5 1435.42,-778.07 1433.03,-776.58 1430.73,-775.03 1428.53,-773.43 1426.43,-771.79 1424.44,-770.1 1422.57,-768.38 1420.84,-766.62 1419.24,-764.84 1417.8,-763.03 1416.52,-761.21 1415.41,-759.38 1414.48,-757.53 1413.73,-755.69 1413.18,-753.85 1412.84,-752.01 1412.7,-750.19 1412.78,-748.38 1413.09,-746.6 1413.62,-744.85 1414.38,-743.12 1415.37,-741.44 1416.6,-739.79 1418.06,-738.19 1419.75,-736.65 1421.67,-735.15 1423.82,-733.72 1426.2,-732.35 1428.79,-731.04 1431.59,-729.81 1434.6,-728.65 1437.79,-727.56 1441.17,-726.56 1444.71,-725.64 1448.42,-724.8 1452.26,-724.05 1456.24,-723.39 1460.33,-722.82 1464.51,-722.34 1468.78,-721.95 1473.1,-721.67 1477.48,-721.47 1481.88,-721.38 1486.29,-721.38 1490.69,-721.47"/>
<text text-anchor="start" x="1454.91" y="-766.41" font-family="Times,serif" font-size="14.00">C0009566</text>
<text text-anchor="start" x="1444.81" y="-752.41" font-family="Times,serif" font-size="14.00">complications</text>
<text text-anchor="start" x="1468.14" y="-738.41" font-family="Times,serif" font-size="14.00">44:44</text>
</g>
<!-- id_27653736_DOT_9&#45;&#45;id_27653736_DOT_11 -->
<g id="edge7" class="edge">
<title>id_27653736_DOT_9&#45;&#45;id_27653736_DOT_11</title>
<path fill="none" stroke="black" d="M1430.04,-423.24C1441.46,-493.72 1466.96,-650.97 1478.37,-721.36"/>
<text text-anchor="middle" x="1427.95" y="-575.1" font-family="Times,serif" font-size="14.00">0.000385</text>
</g>
<!-- id_27653736_DOT_22 -->
<g id="node22" class="node">
<title>id_27653736_DOT_22</title>
<polygon fill="cornflowerblue" stroke="cornflowerblue" points="3602.36,-3298.52 3605.79,-3298.71 3609.18,-3299 3612.52,-3299.39 3615.8,-3299.86 3619.01,-3300.43 3622.12,-3301.1 3625.14,-3301.85 3628.04,-3302.68 3630.82,-3303.61 3633.47,-3304.61 3635.97,-3305.7 3638.33,-3306.86 3640.52,-3308.09 3642.55,-3309.4 3644.42,-3310.77 3646.1,-3312.2 3647.61,-3313.7 3648.94,-3315.24 3650.08,-3316.84 3651.04,-3318.49 3651.82,-3320.17 3652.42,-3321.89 3652.83,-3323.65 3653.07,-3325.43 3653.14,-3327.24 3653.03,-3329.06 3652.76,-3330.89 3652.33,-3332.74 3651.75,-3334.58 3651.01,-3336.43 3650.14,-3338.26 3649.14,-3340.08 3648.01,-3341.89 3646.76,-3343.67 3645.4,-3345.43 3643.94,-3347.15 3642.38,-3348.83 3640.73,-3350.48 3639,-3352.08 3637.2,-3353.62 3635.33,-3355.12 3633.4,-3356.55 3631.42,-3357.92 3629.38,-3359.23 3627.31,-3360.46 3625.2,-3361.62 3623.06,-3362.71 3620.88,-3363.71 3618.69,-3364.64 3616.47,-3365.47 3614.24,-3366.22 3611.99,-3366.89 3609.73,-3367.46 3607.46,-3367.93 3605.18,-3368.32 3602.9,-3368.61 3600.61,-3368.8 3598.32,-3368.9 3596.03,-3368.9 3593.75,-3368.8 3591.46,-3368.61 3589.18,-3368.32 3586.9,-3367.93 3584.63,-3367.46 3582.37,-3366.89 3580.12,-3366.22 3577.89,-3365.47 3575.67,-3364.64 3573.48,-3363.71 3571.3,-3362.71 3569.16,-3361.62 3567.05,-3360.46 3564.97,-3359.23 3562.94,-3357.92 3560.96,-3356.55 3559.03,-3355.12 3557.16,-3353.62 3555.36,-3352.08 3553.63,-3350.48 3551.98,-3348.83 3550.42,-3347.15 3548.96,-3345.43 3547.6,-3343.67 3546.35,-3341.89 3545.22,-3340.08 3544.22,-3338.26 3543.34,-3336.43 3542.61,-3334.58 3542.03,-3332.74 3541.6,-3330.89 3541.33,-3329.06 3541.22,-3327.24 3541.29,-3325.43 3541.52,-3323.65 3541.94,-3321.89 3542.54,-3320.17 3543.31,-3318.49 3544.28,-3316.84 3545.42,-3315.24 3546.75,-3313.7 3548.26,-3312.2 3549.94,-3310.77 3551.8,-3309.4 3553.84,-3308.09 3556.03,-3306.86 3558.39,-3305.7 3560.89,-3304.61 3563.54,-3303.61 3566.32,-3302.68 3569.22,-3301.85 3572.24,-3301.1 3575.35,-3300.43 3578.56,-3299.86 3581.84,-3299.39 3585.18,-3299 3588.57,-3298.71 3592,-3298.52 3595.45,-3298.42 3598.91,-3298.42 3602.36,-3298.52"/>
<text text-anchor="start" x="3568.01" y="-3343.46" font-family="Times,serif" font-size="14.00">C0543467</text>
<text text-anchor="start" x="3576.31" y="-3329.46" font-family="Times,serif" font-size="14.00">surgery</text>
<text text-anchor="start" x="3574.23" y="-3315.46" font-family="Times,serif" font-size="14.00">131:131</text>
</g>
<!-- id_27653736_DOT_10&#45;&#45;id_27653736_DOT_22 -->
<g id="edge8" class="edge">
<title>id_27653736_DOT_10&#45;&#45;id_27653736_DOT_22</title>
<path fill="none" stroke="black" d="M3252.18,-3324.49C3328.3,-3326.51 3465.36,-3330.16 3541.81,-3332.19"/>
<text text-anchor="middle" x="3370.75" y="-3331.14" font-family="Times,serif" font-size="14.00">0.016735</text>
</g>
<!-- id_27653736_DOT_16 -->
<g id="node16" class="node">
<title>id_27653736_DOT_16</title>
<polygon fill="aquamarine" stroke="aquamarine" points="1492.75,-1104.45 1497.13,-1104.65 1501.45,-1104.93 1505.72,-1105.32 1509.9,-1105.8 1513.99,-1106.37 1517.97,-1107.03 1521.81,-1107.78 1525.52,-1108.62 1529.06,-1109.54 1532.44,-1110.54 1535.63,-1111.63 1538.64,-1112.79 1541.44,-1114.02 1544.03,-1115.33 1546.4,-1116.7 1548.56,-1118.13 1550.48,-1119.63 1552.17,-1121.17 1553.63,-1122.77 1554.86,-1124.42 1555.85,-1126.1 1556.61,-1127.83 1557.14,-1129.58 1557.45,-1131.36 1557.53,-1133.17 1557.39,-1134.99 1557.05,-1136.83 1556.5,-1138.67 1555.75,-1140.51 1554.82,-1142.36 1553.71,-1144.19 1552.43,-1146.01 1550.99,-1147.82 1549.39,-1149.6 1547.66,-1151.36 1545.79,-1153.08 1543.8,-1154.77 1541.7,-1156.41 1539.5,-1158.01 1537.2,-1159.56 1534.81,-1161.05 1532.35,-1162.48 1529.82,-1163.85 1527.23,-1165.16 1524.58,-1166.39 1521.89,-1167.55 1519.16,-1168.64 1516.38,-1169.64 1513.58,-1170.57 1510.76,-1171.41 1507.91,-1172.16 1505.04,-1172.82 1502.15,-1173.39 1499.26,-1173.86 1496.35,-1174.25 1493.44,-1174.54 1490.53,-1174.73 1487.61,-1174.83 1484.69,-1174.83 1481.77,-1174.73 1478.85,-1174.54 1475.94,-1174.25 1473.04,-1173.86 1470.14,-1173.39 1467.26,-1172.82 1464.39,-1172.16 1461.54,-1171.41 1458.71,-1170.57 1455.91,-1169.64 1453.14,-1168.64 1450.4,-1167.55 1447.71,-1166.39 1445.07,-1165.16 1442.47,-1163.85 1439.94,-1162.48 1437.48,-1161.05 1435.1,-1159.56 1432.8,-1158.01 1430.59,-1156.41 1428.49,-1154.77 1426.5,-1153.08 1424.64,-1151.36 1422.9,-1149.6 1421.31,-1147.82 1419.87,-1146.01 1418.59,-1144.19 1417.47,-1142.36 1416.54,-1140.51 1415.8,-1138.67 1415.25,-1136.83 1414.9,-1134.99 1414.77,-1133.17 1414.85,-1131.36 1415.15,-1129.58 1415.68,-1127.83 1416.44,-1126.1 1417.44,-1124.42 1418.66,-1122.77 1420.12,-1121.17 1421.82,-1119.63 1423.74,-1118.13 1425.89,-1116.7 1428.27,-1115.33 1430.86,-1114.02 1433.66,-1112.79 1436.66,-1111.63 1439.86,-1110.54 1443.23,-1109.54 1446.78,-1108.62 1450.48,-1107.78 1454.33,-1107.03 1458.3,-1106.37 1462.39,-1105.8 1466.58,-1105.32 1470.84,-1104.93 1475.17,-1104.65 1479.54,-1104.45 1483.94,-1104.36 1488.35,-1104.36 1492.75,-1104.45"/>
<text text-anchor="start" x="1456.98" y="-1149.39" font-family="Times,serif" font-size="14.00">C0009566</text>
<text text-anchor="start" x="1446.88" y="-1135.39" font-family="Times,serif" font-size="14.00">complications</text>
<text text-anchor="start" x="1470.2" y="-1121.39" font-family="Times,serif" font-size="14.00">92:92</text>
</g>
<!-- id_27653736_DOT_11&#45;&#45;id_27653736_DOT_16 -->
<g id="edge9" class="edge">
<title>id_27653736_DOT_11&#45;&#45;id_27653736_DOT_16</title>
<path fill="none" stroke="black" d="M1484.27,-791.95C1484.67,-864.91 1485.56,-1031.45 1485.96,-1104.33"/>
<text text-anchor="middle" x="1458.86" y="-950.94" font-family="Times,serif" font-size="14.00">0.004849</text>
</g>
<!-- id_27653736_DOT_28 -->
<g id="node28" class="node">
<title>id_27653736_DOT_28</title>
<polygon fill="coral" stroke="coral" points="2280.28,-5187.3 2284.19,-5187.49 2288.06,-5187.78 2291.87,-5188.17 2295.6,-5188.64 2299.26,-5189.21 2302.81,-5189.88 2306.24,-5190.63 2309.55,-5191.46 2312.72,-5192.39 2315.73,-5193.39 2318.59,-5194.48 2321.27,-5195.64 2323.77,-5196.87 2326.09,-5198.18 2328.21,-5199.55 2330.13,-5200.98 2331.85,-5202.48 2333.36,-5204.02 2334.67,-5205.62 2335.76,-5207.27 2336.65,-5208.95 2337.33,-5210.67 2337.8,-5212.43 2338.07,-5214.21 2338.14,-5216.02 2338.02,-5217.84 2337.71,-5219.67 2337.22,-5221.52 2336.56,-5223.36 2335.73,-5225.21 2334.73,-5227.04 2333.59,-5228.86 2332.3,-5230.67 2330.88,-5232.45 2329.33,-5234.21 2327.66,-5235.93 2325.88,-5237.61 2324.01,-5239.26 2322.04,-5240.86 2319.98,-5242.4 2317.85,-5243.9 2315.66,-5245.33 2313.4,-5246.7 2311.08,-5248.01 2308.72,-5249.24 2306.31,-5250.4 2303.87,-5251.49 2301.39,-5252.49 2298.89,-5253.42 2296.37,-5254.25 2293.82,-5255 2291.26,-5255.67 2288.68,-5256.24 2286.1,-5256.71 2283.5,-5257.1 2280.9,-5257.39 2278.3,-5257.58 2275.69,-5257.68 2273.08,-5257.68 2270.47,-5257.58 2267.87,-5257.39 2265.27,-5257.1 2262.67,-5256.71 2260.09,-5256.24 2257.51,-5255.67 2254.95,-5255 2252.4,-5254.25 2249.88,-5253.42 2247.37,-5252.49 2244.9,-5251.49 2242.46,-5250.4 2240.05,-5249.24 2237.69,-5248.01 2235.37,-5246.7 2233.11,-5245.33 2230.91,-5243.9 2228.78,-5242.4 2226.73,-5240.86 2224.76,-5239.26 2222.88,-5237.61 2221.11,-5235.93 2219.44,-5234.21 2217.89,-5232.45 2216.47,-5230.67 2215.18,-5228.86 2214.03,-5227.04 2213.04,-5225.21 2212.21,-5223.36 2211.54,-5221.52 2211.05,-5219.67 2210.74,-5217.84 2210.62,-5216.02 2210.7,-5214.21 2210.97,-5212.43 2211.44,-5210.67 2212.12,-5208.95 2213.01,-5207.27 2214.1,-5205.62 2215.41,-5204.02 2216.92,-5202.48 2218.64,-5200.98 2220.56,-5199.55 2222.68,-5198.18 2225,-5196.87 2227.5,-5195.64 2230.18,-5194.48 2233.03,-5193.39 2236.05,-5192.39 2239.22,-5191.46 2242.53,-5190.63 2245.96,-5189.88 2249.51,-5189.21 2253.16,-5188.64 2256.9,-5188.17 2260.71,-5187.78 2264.58,-5187.49 2268.48,-5187.3 2272.41,-5187.2 2276.35,-5187.2 2280.28,-5187.3"/>
<text text-anchor="start" x="2245.22" y="-5232.24" font-family="Times,serif" font-size="14.00">C0348050</text>
<text text-anchor="start" x="2239.97" y="-5218.24" font-family="Times,serif" font-size="14.00">living donor</text>
<text text-anchor="start" x="2251.44" y="-5204.24" font-family="Times,serif" font-size="14.00">183:184</text>
</g>
<!-- id_27653736_DOT_12&#45;&#45;id_27653736_DOT_28 -->
<g id="edge10" class="edge">
<title>id_27653736_DOT_12&#45;&#45;id_27653736_DOT_28</title>
<path fill="none" stroke="black" d="M2298.49,-5556.7C2293.4,-5486.03 2282.02,-5328.36 2276.93,-5257.78"/>
<text text-anchor="middle" x="2261.46" y="-5410.04" font-family="Times,serif" font-size="14.00">0.017976</text>
</g>
<!-- id_27653736_DOT_13 -->
<g id="node13" class="node">
<title>id_27653736_DOT_13</title>
<polygon fill="crimson" stroke="crimson" points="2638.29,-3817.59 2643.92,-3817.78 2649.49,-3818.07 2654.99,-3818.45 2660.38,-3818.93 2665.64,-3819.5 2670.76,-3820.16 2675.72,-3820.91 2680.49,-3821.75 2685.06,-3822.67 2689.4,-3823.68 2693.52,-3824.76 2697.39,-3825.92 2701,-3827.16 2704.33,-3828.46 2707.39,-3829.83 2710.16,-3831.27 2712.64,-3832.76 2714.82,-3834.31 2716.7,-3835.91 2718.28,-3837.55 2719.56,-3839.24 2720.54,-3840.96 2721.22,-3842.71 2721.61,-3844.5 2721.72,-3846.3 2721.55,-3848.12 2721.1,-3849.96 2720.39,-3851.8 2719.44,-3853.65 2718.23,-3855.49 2716.8,-3857.33 2715.15,-3859.15 2713.29,-3860.95 2711.24,-3862.74 2709.01,-3864.49 2706.6,-3866.21 2704.04,-3867.9 2701.33,-3869.54 2698.49,-3871.14 2695.53,-3872.69 2692.46,-3874.18 2689.29,-3875.62 2686.03,-3876.99 2682.69,-3878.29 2679.29,-3879.53 2675.82,-3880.69 2672.3,-3881.77 2668.73,-3882.78 2665.12,-3883.7 2661.48,-3884.54 2657.8,-3885.29 2654.11,-3885.95 2650.4,-3886.52 2646.67,-3887 2642.93,-3887.38 2639.18,-3887.67 2635.42,-3887.86 2631.66,-3887.96 2627.9,-3887.96 2624.14,-3887.86 2620.38,-3887.67 2616.63,-3887.38 2612.89,-3887 2609.16,-3886.52 2605.45,-3885.95 2601.75,-3885.29 2598.08,-3884.54 2594.44,-3883.7 2590.83,-3882.78 2587.26,-3881.77 2583.74,-3880.69 2580.27,-3879.53 2576.86,-3878.29 2573.52,-3876.99 2570.27,-3875.62 2567.1,-3874.18 2564.02,-3872.69 2561.06,-3871.14 2558.22,-3869.54 2555.52,-3867.9 2552.96,-3866.21 2550.55,-3864.49 2548.32,-3862.74 2546.26,-3860.95 2544.41,-3859.15 2542.76,-3857.33 2541.32,-3855.49 2540.12,-3853.65 2539.16,-3851.8 2538.46,-3849.96 2538.01,-3848.12 2537.84,-3846.3 2537.94,-3844.5 2538.33,-3842.71 2539.02,-3840.96 2540,-3839.24 2541.27,-3837.55 2542.85,-3835.91 2544.73,-3834.31 2546.92,-3832.76 2549.39,-3831.27 2552.16,-3829.83 2555.22,-3828.46 2558.56,-3827.16 2562.17,-3825.92 2566.04,-3824.76 2570.15,-3823.68 2574.5,-3822.67 2579.07,-3821.75 2583.84,-3820.91 2588.79,-3820.16 2593.91,-3819.5 2599.18,-3818.93 2604.57,-3818.45 2610.06,-3818.07 2615.64,-3817.78 2621.27,-3817.59 2626.94,-3817.49 2632.62,-3817.49 2638.29,-3817.59"/>
<text text-anchor="start" x="2600.61" y="-3862.53" font-family="Times,serif" font-size="14.00">C0035363</text>
<text text-anchor="start" x="2576.71" y="-3848.53" font-family="Times,serif" font-size="14.00">retrospective study</text>
<text text-anchor="start" x="2613.83" y="-3834.53" font-family="Times,serif" font-size="14.00">64:65</text>
</g>
<!-- id_27653736_DOT_14 -->
<g id="node14" class="node">
<title>id_27653736_DOT_14</title>
<polygon fill="darkgoldenrod" stroke="darkgoldenrod" points="2302.42,-3626.85 2305.84,-3627.05 2309.24,-3627.34 2312.58,-3627.72 2315.86,-3628.2 2319.07,-3628.77 2322.18,-3629.43 2325.2,-3630.18 2328.1,-3631.02 2330.88,-3631.94 2333.53,-3632.94 2336.03,-3634.03 2338.39,-3635.19 2340.58,-3636.42 2342.61,-3637.73 2344.47,-3639.1 2346.16,-3640.53 2347.67,-3642.03 2349,-3643.58 2350.14,-3645.17 2351.1,-3646.82 2351.88,-3648.5 2352.48,-3650.23 2352.89,-3651.98 2353.13,-3653.76 2353.19,-3655.57 2353.09,-3657.39 2352.82,-3659.23 2352.39,-3661.07 2351.8,-3662.91 2351.07,-3664.76 2350.2,-3666.59 2349.2,-3668.42 2348.07,-3670.22 2346.82,-3672 2345.46,-3673.76 2343.99,-3675.48 2342.43,-3677.17 2340.79,-3678.81 2339.06,-3680.41 2337.26,-3681.96 2335.39,-3683.45 2333.46,-3684.88 2331.47,-3686.26 2329.44,-3687.56 2327.37,-3688.79 2325.26,-3689.96 2323.11,-3691.04 2320.94,-3692.05 2318.74,-3692.97 2316.53,-3693.81 2314.29,-3694.56 2312.05,-3695.22 2309.79,-3695.79 2307.52,-3696.27 2305.24,-3696.65 2302.96,-3696.94 2300.67,-3697.13 2298.38,-3697.23 2296.09,-3697.23 2293.8,-3697.13 2291.52,-3696.94 2289.24,-3696.65 2286.96,-3696.27 2284.69,-3695.79 2282.43,-3695.22 2280.18,-3694.56 2277.95,-3693.81 2275.73,-3692.97 2273.53,-3692.05 2271.36,-3691.04 2269.22,-3689.96 2267.11,-3688.79 2265.03,-3687.56 2263,-3686.26 2261.02,-3684.88 2259.09,-3683.45 2257.22,-3681.96 2255.42,-3680.41 2253.69,-3678.81 2252.04,-3677.17 2250.48,-3675.48 2249.02,-3673.76 2247.66,-3672 2246.41,-3670.22 2245.28,-3668.42 2244.27,-3666.59 2243.4,-3664.76 2242.67,-3662.91 2242.09,-3661.07 2241.66,-3659.23 2241.39,-3657.39 2241.28,-3655.57 2241.34,-3653.76 2241.58,-3651.98 2242,-3650.23 2242.59,-3648.5 2243.37,-3646.82 2244.33,-3645.17 2245.48,-3643.58 2246.81,-3642.03 2248.31,-3640.53 2250,-3639.1 2251.86,-3637.73 2253.89,-3636.42 2256.09,-3635.19 2258.44,-3634.03 2260.95,-3632.94 2263.6,-3631.94 2266.38,-3631.02 2269.28,-3630.18 2272.29,-3629.43 2275.41,-3628.77 2278.61,-3628.2 2281.89,-3627.72 2285.24,-3627.34 2288.63,-3627.05 2292.06,-3626.85 2295.51,-3626.76 2298.97,-3626.76 2302.42,-3626.85"/>
<text text-anchor="start" x="2268.07" y="-3671.79" font-family="Times,serif" font-size="14.00">C0242356</text>
<text text-anchor="start" x="2273.14" y="-3657.79" font-family="Times,serif" font-size="14.00">database</text>
<text text-anchor="start" x="2281.29" y="-3643.79" font-family="Times,serif" font-size="14.00">71:71</text>
</g>
<!-- id_27653736_DOT_13&#45;&#45;id_27653736_DOT_14 -->
<g id="edge25" class="edge">
<title>id_27653736_DOT_13&#45;&#45;id_27653736_DOT_14</title>
<path fill="none" stroke="black" stroke-dasharray="1,5" d="M2576.35,-3822.08C2508.97,-3783.43 2394.78,-3717.94 2335.5,-3683.94"/>
<text text-anchor="middle" x="2429.68" y="-3755.81" font-family="Times,serif" font-size="14.00">0.893600</text>
</g>
<!-- id_27653736_DOT_19 -->
<g id="node19" class="node">
<title>id_27653736_DOT_19</title>
<polygon fill="coral" stroke="coral" points="2186.14,-4032.75 2190.44,-4032.95 2194.68,-4033.23 2198.87,-4033.62 2202.98,-4034.1 2206.99,-4034.67 2210.89,-4035.33 2214.66,-4036.08 2218.3,-4036.92 2221.78,-4037.84 2225.09,-4038.84 2228.23,-4039.93 2231.17,-4041.09 2233.92,-4042.32 2236.47,-4043.63 2238.8,-4045 2240.91,-4046.43 2242.8,-4047.93 2244.46,-4049.47 2245.89,-4051.07 2247.09,-4052.72 2248.07,-4054.4 2248.81,-4056.13 2249.33,-4057.88 2249.63,-4059.66 2249.71,-4061.47 2249.58,-4063.29 2249.24,-4065.13 2248.7,-4066.97 2247.97,-4068.81 2247.06,-4070.66 2245.97,-4072.49 2244.71,-4074.31 2243.29,-4076.12 2241.73,-4077.9 2240.03,-4079.66 2238.2,-4081.38 2236.24,-4083.07 2234.18,-4084.71 2232.02,-4086.31 2229.76,-4087.86 2227.42,-4089.35 2225.01,-4090.78 2222.52,-4092.15 2219.98,-4093.46 2217.38,-4094.69 2214.74,-4095.86 2212.06,-4096.94 2209.34,-4097.95 2206.59,-4098.87 2203.81,-4099.71 2201.01,-4100.46 2198.2,-4101.12 2195.37,-4101.69 2192.53,-4102.17 2189.68,-4102.55 2186.82,-4102.84 2183.96,-4103.03 2181.09,-4103.13 2178.23,-4103.13 2175.36,-4103.03 2172.5,-4102.84 2169.64,-4102.55 2166.79,-4102.17 2163.95,-4101.69 2161.12,-4101.12 2158.31,-4100.46 2155.51,-4099.71 2152.74,-4098.87 2149.99,-4097.95 2147.27,-4096.94 2144.58,-4095.86 2141.94,-4094.69 2139.34,-4093.46 2136.8,-4092.15 2134.32,-4090.78 2131.9,-4089.35 2129.56,-4087.86 2127.31,-4086.31 2125.14,-4084.71 2123.08,-4083.07 2121.13,-4081.38 2119.29,-4079.66 2117.59,-4077.9 2116.03,-4076.12 2114.61,-4074.31 2113.36,-4072.49 2112.26,-4070.66 2111.35,-4068.81 2110.62,-4066.97 2110.08,-4065.13 2109.74,-4063.29 2109.61,-4061.47 2109.69,-4059.66 2109.99,-4057.88 2110.51,-4056.13 2111.25,-4054.4 2112.23,-4052.72 2113.43,-4051.07 2114.86,-4049.47 2116.52,-4047.93 2118.41,-4046.43 2120.52,-4045 2122.86,-4043.63 2125.4,-4042.32 2128.15,-4041.09 2131.09,-4039.93 2134.23,-4038.84 2137.54,-4037.84 2141.02,-4036.92 2144.66,-4036.08 2148.43,-4035.33 2152.33,-4034.67 2156.35,-4034.1 2160.45,-4033.62 2164.64,-4033.23 2168.89,-4032.95 2173.18,-4032.75 2177.5,-4032.66 2181.82,-4032.66 2186.14,-4032.75"/>
<text text-anchor="start" x="2150.49" y="-4077.69" font-family="Times,serif" font-size="14.00">C0348050</text>
<text text-anchor="start" x="2141.16" y="-4063.69" font-family="Times,serif" font-size="14.00">living &#45; donor</text>
<text text-anchor="start" x="2157.23" y="-4049.69" font-family="Times,serif" font-size="14.00">116:118</text>
</g>
<!-- id_27653736_DOT_14&#45;&#45;id_27653736_DOT_19 -->
<g id="edge26" class="edge">
<title>id_27653736_DOT_14&#45;&#45;id_27653736_DOT_19</title>
<path fill="none" stroke="black" stroke-dasharray="1,5" d="M2287.21,-3696.6C2265.05,-3773.09 2212.12,-3955.85 2189.83,-4032.8"/>
<text text-anchor="middle" x="2212.27" y="-3867.5" font-family="Times,serif" font-size="14.00">0.774405</text>
</g>
<!-- id_27653736_DOT_14&#45;&#45;id_27653736_DOT_30 -->
<g id="edge27" class="edge">
<title>id_27653736_DOT_14&#45;&#45;id_27653736_DOT_30</title>
<path fill="none" stroke="black" stroke-dasharray="1,5" d="M2302.13,-3626.8C2313.58,-3544.48 2342,-3340.13 2353.43,-3257.95"/>
<text text-anchor="middle" x="2301.53" y="-3445.18" font-family="Times,serif" font-size="14.00">0.873880</text>
</g>
<!-- id_27653736_DOT_27 -->
<g id="node27" class="node">
<title>id_27653736_DOT_27</title>
<polygon fill="darkorange" stroke="darkorange" points="64.34,-3062.14 67.94,-3062.33 71.5,-3062.62 75.02,-3063 78.46,-3063.48 81.83,-3064.05 85.11,-3064.71 88.27,-3065.46 91.32,-3066.3 94.25,-3067.22 97.03,-3068.23 99.66,-3069.31 102.13,-3070.47 104.44,-3071.71 106.57,-3073.01 108.53,-3074.38 110.3,-3075.82 111.89,-3077.31 113.28,-3078.86 114.48,-3080.46 115.49,-3082.1 116.31,-3083.79 116.94,-3085.51 117.37,-3087.26 117.62,-3089.05 117.69,-3090.85 117.58,-3092.67 117.3,-3094.51 116.84,-3096.35 116.23,-3098.2 115.46,-3100.04 114.55,-3101.88 113.49,-3103.7 112.3,-3105.5 110.99,-3107.29 109.56,-3109.04 108.02,-3110.76 106.39,-3112.45 104.65,-3114.09 102.84,-3115.69 100.95,-3117.24 98.98,-3118.73 96.95,-3120.17 94.87,-3121.54 92.74,-3122.84 90.56,-3124.08 88.34,-3125.24 86.09,-3126.32 83.8,-3127.33 81.5,-3128.25 79.17,-3129.09 76.82,-3129.84 74.46,-3130.5 72.08,-3131.07 69.7,-3131.55 67.3,-3131.93 64.91,-3132.22 62.5,-3132.41 60.1,-3132.51 57.69,-3132.51 55.29,-3132.41 52.89,-3132.22 50.49,-3131.93 48.1,-3131.55 45.71,-3131.07 43.34,-3130.5 40.98,-3129.84 38.63,-3129.09 36.3,-3128.25 33.99,-3127.33 31.71,-3126.32 29.46,-3125.24 27.24,-3124.08 25.06,-3122.84 22.92,-3121.54 20.84,-3120.17 18.81,-3118.73 16.85,-3117.24 14.96,-3115.69 13.14,-3114.09 11.41,-3112.45 9.77,-3110.76 8.23,-3109.04 6.8,-3107.29 5.49,-3105.5 4.3,-3103.7 3.25,-3101.88 2.33,-3100.04 1.56,-3098.2 0.95,-3096.35 0.5,-3094.51 0.21,-3092.67 0.1,-3090.85 0.17,-3089.05 0.42,-3087.26 0.86,-3085.51 1.48,-3083.79 2.3,-3082.1 3.31,-3080.46 4.51,-3078.86 5.91,-3077.31 7.49,-3075.82 9.26,-3074.38 11.22,-3073.01 13.35,-3071.71 15.66,-3070.47 18.14,-3069.31 20.77,-3068.23 23.55,-3067.22 26.47,-3066.3 29.52,-3065.46 32.69,-3064.71 35.96,-3064.05 39.33,-3063.48 42.78,-3063 46.29,-3062.62 49.85,-3062.33 53.46,-3062.14 57.08,-3062.04 60.71,-3062.04 64.34,-3062.14"/>
<text text-anchor="start" x="29.73" y="-3107.07" font-family="Times,serif" font-size="14.00">C0220825</text>
<text text-anchor="start" x="27.79" y="-3093.07" font-family="Times,serif" font-size="14.00">assessment</text>
<text text-anchor="start" x="35.95" y="-3079.07" font-family="Times,serif" font-size="14.00">181:181</text>
</g>
<!-- id_27653736_DOT_15&#45;&#45;id_27653736_DOT_27 -->
<g id="edge28" class="edge">
<title>id_27653736_DOT_15&#45;&#45;id_27653736_DOT_27</title>
<path fill="none" stroke="black" stroke-dasharray="1,5" d="M385.87,-3049.37C315.95,-3059.62 191.21,-3077.89 117.67,-3088.66"/>
<text text-anchor="middle" x="225.52" y="-3071.82" font-family="Times,serif" font-size="14.00">0.949662</text>
</g>
<!-- id_27653736_DOT_25 -->
<g id="node25" class="node">
<title>id_27653736_DOT_25</title>
<polygon fill="aquamarine" stroke="aquamarine" points="1370.42,-1489.13 1374.53,-1489.32 1378.6,-1489.61 1382.62,-1489.99 1386.56,-1490.47 1390.4,-1491.04 1394.14,-1491.7 1397.76,-1492.45 1401.25,-1493.29 1404.59,-1494.21 1407.76,-1495.22 1410.77,-1496.3 1413.6,-1497.47 1416.23,-1498.7 1418.67,-1500.01 1420.91,-1501.38 1422.93,-1502.81 1424.74,-1504.3 1426.33,-1505.85 1427.71,-1507.45 1428.86,-1509.09 1429.8,-1510.78 1430.51,-1512.5 1431.01,-1514.26 1431.3,-1516.04 1431.37,-1517.84 1431.25,-1519.67 1430.92,-1521.5 1430.4,-1523.35 1429.7,-1525.19 1428.83,-1527.03 1427.78,-1528.87 1426.57,-1530.69 1425.22,-1532.5 1423.72,-1534.28 1422.09,-1536.03 1420.33,-1537.76 1418.46,-1539.44 1416.48,-1541.09 1414.4,-1542.69 1412.24,-1544.23 1410,-1545.73 1407.68,-1547.16 1405.3,-1548.53 1402.86,-1549.84 1400.37,-1551.07 1397.84,-1552.23 1395.26,-1553.32 1392.66,-1554.32 1390.02,-1555.24 1387.36,-1556.08 1384.68,-1556.83 1381.98,-1557.49 1379.26,-1558.06 1376.54,-1558.54 1373.81,-1558.93 1371.07,-1559.21 1368.32,-1559.41 1365.57,-1559.5 1362.83,-1559.5 1360.08,-1559.41 1357.33,-1559.21 1354.59,-1558.93 1351.86,-1558.54 1349.14,-1558.06 1346.42,-1557.49 1343.72,-1556.83 1341.04,-1556.08 1338.38,-1555.24 1335.74,-1554.32 1333.14,-1553.32 1330.56,-1552.23 1328.03,-1551.07 1325.54,-1549.84 1323.1,-1548.53 1320.72,-1547.16 1318.4,-1545.73 1316.16,-1544.23 1313.99,-1542.69 1311.92,-1541.09 1309.94,-1539.44 1308.07,-1537.76 1306.31,-1536.03 1304.68,-1534.28 1303.18,-1532.5 1301.82,-1530.69 1300.62,-1528.87 1299.57,-1527.03 1298.69,-1525.19 1297.99,-1523.35 1297.48,-1521.5 1297.15,-1519.67 1297.03,-1517.84 1297.1,-1516.04 1297.39,-1514.26 1297.89,-1512.5 1298.6,-1510.78 1299.54,-1509.09 1300.69,-1507.45 1302.06,-1505.85 1303.66,-1504.3 1305.47,-1502.81 1307.49,-1501.38 1309.73,-1500.01 1312.17,-1498.7 1314.8,-1497.47 1317.63,-1496.3 1320.64,-1495.22 1323.81,-1494.21 1327.15,-1493.29 1330.64,-1492.45 1334.26,-1491.7 1338,-1491.04 1341.84,-1490.47 1345.78,-1489.99 1349.8,-1489.61 1353.87,-1489.32 1357.98,-1489.13 1362.12,-1489.03 1366.27,-1489.03 1370.42,-1489.13"/>
<text text-anchor="start" x="1335.03" y="-1534.07" font-family="Times,serif" font-size="14.00">C0009566</text>
<text text-anchor="start" x="1327.65" y="-1520.07" font-family="Times,serif" font-size="14.00">complication</text>
<text text-anchor="start" x="1341.25" y="-1506.07" font-family="Times,serif" font-size="14.00">150:150</text>
</g>
<!-- id_27653736_DOT_16&#45;&#45;id_27653736_DOT_25 -->
<g id="edge11" class="edge">
<title>id_27653736_DOT_16&#45;&#45;id_27653736_DOT_25</title>
<path fill="none" stroke="black" d="M1475.11,-1174.41C1451.95,-1247.46 1398.51,-1416.03 1375.3,-1489.25"/>
<text text-anchor="middle" x="1398.95" y="-1334.63" font-family="Times,serif" font-size="14.00">0.005555</text>
</g>
<!-- id_27653736_DOT_17&#45;&#45;id_27653736_DOT_30 -->
<g id="edge12" class="edge">
<title>id_27653736_DOT_17&#45;&#45;id_27653736_DOT_30</title>
<path fill="none" stroke="black" d="M2022.96,-3008.46C2093.94,-3053.85 2243.59,-3149.54 2316.55,-3196.19"/>
<text text-anchor="middle" x="2143.51" y="-3105.13" font-family="Times,serif" font-size="14.00">0.059740</text>
</g>
<!-- id_27653736_DOT_18 -->
<g id="node18" class="node">
<title>id_27653736_DOT_18</title>
<polygon fill="bisque" stroke="bisque" points="3337.85,-2435.64 3342.52,-2435.83 3347.15,-2436.12 3351.71,-2436.5 3356.19,-2436.98 3360.56,-2437.55 3364.81,-2438.21 3368.92,-2438.96 3372.88,-2439.8 3376.67,-2440.73 3380.28,-2441.73 3383.7,-2442.81 3386.91,-2443.98 3389.9,-2445.21 3392.67,-2446.52 3395.21,-2447.89 3397.51,-2449.32 3399.57,-2450.81 3401.38,-2452.36 3402.94,-2453.96 3404.25,-2455.6 3405.31,-2457.29 3406.12,-2459.01 3406.69,-2460.77 3407.01,-2462.55 3407.1,-2464.36 3406.96,-2466.18 3406.59,-2468.01 3406,-2469.86 3405.21,-2471.7 3404.21,-2473.54 3403.02,-2475.38 3401.65,-2477.2 3400.11,-2479.01 3398.4,-2480.79 3396.55,-2482.54 3394.55,-2484.27 3392.43,-2485.95 3390.18,-2487.6 3387.82,-2489.2 3385.37,-2490.74 3382.82,-2492.24 3380.19,-2493.67 3377.48,-2495.04 3374.71,-2496.35 3371.88,-2497.58 3369,-2498.74 3366.08,-2499.83 3363.12,-2500.83 3360.12,-2501.75 3357.1,-2502.59 3354.05,-2503.34 3350.98,-2504 3347.9,-2504.57 3344.81,-2505.05 3341.7,-2505.44 3338.59,-2505.72 3335.47,-2505.92 3332.35,-2506.01 3329.23,-2506.01 3326.11,-2505.92 3322.99,-2505.72 3319.87,-2505.44 3316.77,-2505.05 3313.67,-2504.57 3310.59,-2504 3307.53,-2503.34 3304.48,-2502.59 3301.46,-2501.75 3298.46,-2500.83 3295.5,-2499.83 3292.57,-2498.74 3289.69,-2497.58 3286.87,-2496.35 3284.09,-2495.04 3281.39,-2493.67 3278.76,-2492.24 3276.21,-2490.74 3273.75,-2489.2 3271.39,-2487.6 3269.15,-2485.95 3267.02,-2484.27 3265.03,-2482.54 3263.17,-2480.79 3261.47,-2479.01 3259.92,-2477.2 3258.55,-2475.38 3257.37,-2473.54 3256.37,-2471.7 3255.57,-2469.86 3254.99,-2468.01 3254.62,-2466.18 3254.47,-2464.36 3254.56,-2462.55 3254.89,-2460.77 3255.45,-2459.01 3256.26,-2457.29 3257.33,-2455.6 3258.64,-2453.96 3260.2,-2452.36 3262.01,-2450.81 3264.06,-2449.32 3266.37,-2447.89 3268.9,-2446.52 3271.67,-2445.21 3274.67,-2443.98 3277.88,-2442.81 3281.3,-2441.73 3284.91,-2440.73 3288.7,-2439.8 3292.66,-2438.96 3296.77,-2438.21 3301.02,-2437.55 3305.39,-2436.98 3309.86,-2436.5 3314.42,-2436.12 3319.05,-2435.83 3323.73,-2435.64 3328.43,-2435.54 3333.14,-2435.54 3337.85,-2435.64"/>
<text text-anchor="start" x="3301.62" y="-2480.58" font-family="Times,serif" font-size="14.00">C0019144</text>
<text text-anchor="start" x="3288.22" y="-2466.58" font-family="Times,serif" font-size="14.00">liver resections</text>
<text text-anchor="start" x="3307.84" y="-2452.58" font-family="Times,serif" font-size="14.00">108:109</text>
</g>
<!-- id_27653736_DOT_18&#45;&#45;id_27653736_DOT_26 -->
<g id="edge29" class="edge">
<title>id_27653736_DOT_18&#45;&#45;id_27653736_DOT_26</title>
<path fill="none" stroke="black" stroke-dasharray="1,5" d="M3284.09,-2495.15C3217.43,-2529.93 3095.39,-2593.63 3025.82,-2629.93"/>
<text text-anchor="middle" x="3128.96" y="-2565.34" font-family="Times,serif" font-size="14.00">0.701194</text>
</g>
<!-- id_27653736_DOT_21 -->
<g id="node21" class="node">
<title>id_27653736_DOT_21</title>
<polygon fill="coral" stroke="coral" points="2196.98,-4432.55 2201.14,-4432.74 2205.26,-4433.03 2209.33,-4433.42 2213.31,-4433.89 2217.2,-4434.46 2220.99,-4435.12 2224.65,-4435.88 2228.18,-4436.71 2231.55,-4437.64 2234.77,-4438.64 2237.81,-4439.73 2240.67,-4440.89 2243.34,-4442.12 2245.8,-4443.43 2248.06,-4444.8 2250.11,-4446.23 2251.95,-4447.72 2253.56,-4449.27 2254.95,-4450.87 2256.12,-4452.51 2257.06,-4454.2 2257.78,-4455.92 2258.29,-4457.68 2258.58,-4459.46 2258.66,-4461.27 2258.53,-4463.09 2258.2,-4464.92 2257.68,-4466.77 2256.97,-4468.61 2256.08,-4470.45 2255.02,-4472.29 2253.8,-4474.11 2252.43,-4475.92 2250.91,-4477.7 2249.26,-4479.45 2247.48,-4481.18 2245.59,-4482.86 2243.59,-4484.51 2241.49,-4486.11 2239.3,-4487.65 2237.03,-4489.15 2234.68,-4490.58 2232.27,-4491.95 2229.81,-4493.26 2227.29,-4494.49 2224.72,-4495.65 2222.12,-4496.74 2219.48,-4497.74 2216.81,-4498.67 2214.12,-4499.5 2211.41,-4500.25 2208.68,-4500.91 2205.93,-4501.48 2203.18,-4501.96 2200.41,-4502.35 2197.64,-4502.63 2194.86,-4502.83 2192.08,-4502.92 2189.3,-4502.92 2186.52,-4502.83 2183.74,-4502.63 2180.97,-4502.35 2178.21,-4501.96 2175.45,-4501.48 2172.7,-4500.91 2169.97,-4500.25 2167.26,-4499.5 2164.57,-4498.67 2161.9,-4497.74 2159.26,-4496.74 2156.66,-4495.65 2154.09,-4494.49 2151.57,-4493.26 2149.11,-4491.95 2146.7,-4490.58 2144.35,-4489.15 2142.08,-4487.65 2139.89,-4486.11 2137.8,-4484.51 2135.79,-4482.86 2133.9,-4481.18 2132.12,-4479.45 2130.47,-4477.7 2128.95,-4475.92 2127.58,-4474.11 2126.36,-4472.29 2125.3,-4470.45 2124.41,-4468.61 2123.71,-4466.77 2123.18,-4464.92 2122.85,-4463.09 2122.73,-4461.27 2122.8,-4459.46 2123.09,-4457.68 2123.6,-4455.92 2124.32,-4454.2 2125.27,-4452.51 2126.43,-4450.87 2127.82,-4449.27 2129.44,-4447.72 2131.27,-4446.23 2133.32,-4444.8 2135.58,-4443.43 2138.04,-4442.12 2140.71,-4440.89 2143.57,-4439.73 2146.61,-4438.64 2149.83,-4437.64 2153.21,-4436.71 2156.73,-4435.88 2160.39,-4435.12 2164.18,-4434.46 2168.07,-4433.89 2172.06,-4433.42 2176.12,-4433.03 2180.24,-4432.74 2184.4,-4432.55 2188.59,-4432.45 2192.79,-4432.45 2196.98,-4432.55"/>
<text text-anchor="start" x="2161.52" y="-4477.49" font-family="Times,serif" font-size="14.00">C0348050</text>
<text text-anchor="start" x="2153.55" y="-4463.49" font-family="Times,serif" font-size="14.00">living donors</text>
<text text-anchor="start" x="2167.75" y="-4449.49" font-family="Times,serif" font-size="14.00">128:129</text>
</g>
<!-- id_27653736_DOT_19&#45;&#45;id_27653736_DOT_21 -->
<g id="edge13" class="edge">
<title>id_27653736_DOT_19&#45;&#45;id_27653736_DOT_21</title>
<path fill="none" stroke="black" d="M2180.64,-4103.37C2182.73,-4179.24 2187.62,-4356.49 2189.71,-4432.29"/>
<text text-anchor="middle" x="2158.93" y="-4270.63" font-family="Times,serif" font-size="14.00">0.004686</text>
</g>
<!-- id_27653736_DOT_24 -->
<g id="node24" class="node">
<title>id_27653736_DOT_24</title>
<polygon fill="coral" stroke="coral" points="2238.32,-4814.18 2242.23,-4814.37 2246.09,-4814.66 2249.9,-4815.04 2253.64,-4815.52 2257.29,-4816.09 2260.84,-4816.75 2264.28,-4817.5 2267.59,-4818.34 2270.76,-4819.26 2273.77,-4820.27 2276.63,-4821.35 2279.31,-4822.51 2281.81,-4823.75 2284.13,-4825.05 2286.25,-4826.42 2288.17,-4827.86 2289.89,-4829.35 2291.4,-4830.9 2292.7,-4832.5 2293.8,-4834.14 2294.69,-4835.83 2295.36,-4837.55 2295.84,-4839.31 2296.11,-4841.09 2296.18,-4842.89 2296.06,-4844.72 2295.75,-4846.55 2295.26,-4848.39 2294.6,-4850.24 2293.76,-4852.08 2292.77,-4853.92 2291.63,-4855.74 2290.34,-4857.54 2288.92,-4859.33 2287.37,-4861.08 2285.7,-4862.8 2283.92,-4864.49 2282.04,-4866.13 2280.08,-4867.73 2278.02,-4869.28 2275.89,-4870.77 2273.69,-4872.21 2271.43,-4873.58 2269.12,-4874.88 2266.76,-4876.12 2264.35,-4877.28 2261.91,-4878.36 2259.43,-4879.37 2256.93,-4880.29 2254.4,-4881.13 2251.86,-4881.88 2249.3,-4882.54 2246.72,-4883.11 2244.13,-4883.59 2241.54,-4883.97 2238.94,-4884.26 2236.33,-4884.46 2233.73,-4884.55 2231.12,-4884.55 2228.51,-4884.46 2225.91,-4884.26 2223.3,-4883.97 2220.71,-4883.59 2218.12,-4883.11 2215.55,-4882.54 2212.99,-4881.88 2210.44,-4881.13 2207.92,-4880.29 2205.41,-4879.37 2202.94,-4878.36 2200.49,-4877.28 2198.09,-4876.12 2195.73,-4874.88 2193.41,-4873.58 2191.15,-4872.21 2188.95,-4870.77 2186.82,-4869.28 2184.77,-4867.73 2182.8,-4866.13 2180.92,-4864.49 2179.15,-4862.8 2177.48,-4861.08 2175.93,-4859.33 2174.51,-4857.54 2173.22,-4855.74 2172.07,-4853.92 2171.08,-4852.08 2170.25,-4850.24 2169.58,-4848.39 2169.09,-4846.55 2168.78,-4844.72 2168.66,-4842.89 2168.74,-4841.09 2169.01,-4839.31 2169.48,-4837.55 2170.16,-4835.83 2171.05,-4834.14 2172.14,-4832.5 2173.44,-4830.9 2174.96,-4829.35 2176.68,-4827.86 2178.6,-4826.42 2180.72,-4825.05 2183.03,-4823.75 2185.54,-4822.51 2188.22,-4821.35 2191.07,-4820.27 2194.09,-4819.26 2197.26,-4818.34 2200.56,-4817.5 2204,-4816.75 2207.55,-4816.09 2211.2,-4815.52 2214.94,-4815.04 2218.75,-4814.66 2222.62,-4814.37 2226.52,-4814.18 2230.45,-4814.08 2234.39,-4814.08 2238.32,-4814.18"/>
<text text-anchor="start" x="2203.25" y="-4859.12" font-family="Times,serif" font-size="14.00">C0348050</text>
<text text-anchor="start" x="2198.01" y="-4845.12" font-family="Times,serif" font-size="14.00">living donor</text>
<text text-anchor="start" x="2209.48" y="-4831.12" font-family="Times,serif" font-size="14.00">134:135</text>
</g>
<!-- id_27653736_DOT_21&#45;&#45;id_27653736_DOT_24 -->
<g id="edge14" class="edge">
<title>id_27653736_DOT_21&#45;&#45;id_27653736_DOT_24</title>
<path fill="none" stroke="black" d="M2194.54,-4502.91C2202.48,-4575.52 2220.59,-4741.13 2228.55,-4813.91"/>
<text text-anchor="middle" x="2185.3" y="-4661.21" font-family="Times,serif" font-size="14.00">0.001542</text>
</g>
<!-- id_27653736_DOT_23&#45;&#45;id_27653736_DOT_25 -->
<g id="edge30" class="edge">
<title>id_27653736_DOT_23&#45;&#45;id_27653736_DOT_25</title>
<path fill="none" stroke="black" stroke-dasharray="1,5" d="M1501.25,-1868.45C1472.49,-1796.22 1406.38,-1630.21 1377.79,-1558.4"/>
<text text-anchor="middle" x="1413.27" y="-1716.23" font-family="Times,serif" font-size="14.00">0.931445</text>
</g>
<!-- id_27653736_DOT_24&#45;&#45;id_27653736_DOT_28 -->
<g id="edge15" class="edge">
<title>id_27653736_DOT_24&#45;&#45;id_27653736_DOT_28</title>
<path fill="none" stroke="black" d="M2236.41,-4884.76C2244.43,-4956.06 2262.43,-5116.13 2270.43,-5187.24"/>
<text text-anchor="middle" x="2227.17" y="-5038.8" font-family="Times,serif" font-size="14.00">0.003666</text>
</g>
<!-- id_27653736_DOT_29 -->
<g id="node29" class="node">
<title>id_27653736_DOT_29</title>
<polygon fill="aquamarine" stroke="aquamarine" points="964.63,-1421.54 969,-1421.73 973.33,-1422.02 977.59,-1422.4 981.78,-1422.88 985.86,-1423.45 989.84,-1424.11 993.69,-1424.86 997.39,-1425.7 1000.94,-1426.62 1004.31,-1427.63 1007.51,-1428.71 1010.51,-1429.87 1013.31,-1431.11 1015.9,-1432.41 1018.28,-1433.78 1020.43,-1435.22 1022.35,-1436.71 1024.05,-1438.26 1025.51,-1439.86 1026.73,-1441.5 1027.72,-1443.19 1028.48,-1444.91 1029.01,-1446.67 1029.32,-1448.45 1029.4,-1450.25 1029.26,-1452.08 1028.92,-1453.91 1028.37,-1455.75 1027.63,-1457.6 1026.69,-1459.44 1025.58,-1461.28 1024.3,-1463.1 1022.86,-1464.9 1021.27,-1466.69 1019.53,-1468.44 1017.66,-1470.16 1015.67,-1471.85 1013.57,-1473.49 1011.37,-1475.09 1009.07,-1476.64 1006.68,-1478.13 1004.22,-1479.57 1001.69,-1480.94 999.1,-1482.24 996.46,-1483.48 993.76,-1484.64 991.03,-1485.72 988.26,-1486.73 985.46,-1487.65 982.63,-1488.49 979.78,-1489.24 976.91,-1489.9 974.03,-1490.47 971.13,-1490.95 968.23,-1491.33 965.32,-1491.62 962.4,-1491.81 959.48,-1491.91 956.56,-1491.91 953.64,-1491.81 950.72,-1491.62 947.81,-1491.33 944.91,-1490.95 942.01,-1490.47 939.13,-1489.9 936.26,-1489.24 933.41,-1488.49 930.58,-1487.65 927.78,-1486.73 925.01,-1485.72 922.28,-1484.64 919.58,-1483.48 916.94,-1482.24 914.35,-1480.94 911.82,-1479.57 909.36,-1478.13 906.97,-1476.64 904.67,-1475.09 902.47,-1473.49 900.37,-1471.85 898.38,-1470.16 896.51,-1468.44 894.78,-1466.69 893.18,-1464.9 891.74,-1463.1 890.46,-1461.28 889.35,-1459.44 888.41,-1457.6 887.67,-1455.75 887.12,-1453.91 886.78,-1452.08 886.64,-1450.25 886.72,-1448.45 887.03,-1446.67 887.56,-1444.91 888.32,-1443.19 889.31,-1441.5 890.53,-1439.86 891.99,-1438.26 893.69,-1436.71 895.61,-1435.22 897.76,-1433.78 900.14,-1432.41 902.73,-1431.11 905.53,-1429.87 908.53,-1428.71 911.73,-1427.63 915.11,-1426.62 918.65,-1425.7 922.35,-1424.86 926.2,-1424.11 930.18,-1423.45 934.26,-1422.88 938.45,-1422.4 942.71,-1422.02 947.04,-1421.73 951.42,-1421.54 955.82,-1421.44 960.23,-1421.44 964.63,-1421.54"/>
<text text-anchor="start" x="928.85" y="-1466.48" font-family="Times,serif" font-size="14.00">C0009566</text>
<text text-anchor="start" x="918.75" y="-1452.48" font-family="Times,serif" font-size="14.00">complications</text>
<text text-anchor="start" x="935.08" y="-1438.48" font-family="Times,serif" font-size="14.00">185:185</text>
</g>
<!-- id_27653736_DOT_25&#45;&#45;id_27653736_DOT_29 -->
<g id="edge16" class="edge">
<title>id_27653736_DOT_25&#45;&#45;id_27653736_DOT_29</title>
<path fill="none" stroke="black" d="M1297.58,-1513.18C1220.95,-1500.43 1096.06,-1479.65 1021,-1467.16"/>
<text text-anchor="middle" x="1133.04" y="-1492.97" font-family="Times,serif" font-size="14.00">0.003706</text>
</g>
</g>
</svg>
