<?xml version="1.0" encoding="UTF-8" standalone="no"?>
<!DOCTYPE svg PUBLIC "-//W3C//DTD SVG 1.1//EN"
 "http://www.w3.org/Graphics/SVG/1.1/DTD/svg11.dtd">
<!-- Generated by graphviz version 2.42.3 (20191010.1750)
 -->
<!-- Title: MST Pages: 1 -->
<svg width="3975pt" height="3032pt"
 viewBox="0.00 0.00 3974.82 3032.20" xmlns="http://www.w3.org/2000/svg" xmlns:xlink="http://www.w3.org/1999/xlink">
<g id="graph0" class="graph" transform="scale(1 1) rotate(0) translate(4 3028.2)">
<title>MST</title>
<polygon fill="white" stroke="transparent" points="-4,4 -4,-3028.2 3970.82,-3028.2 3970.82,4 -4,4"/>
<!-- id_27660855_DOT_1 -->
<g id="node1" class="node">
<title>id_27660855_DOT_1</title>
<polygon fill="aquamarine" stroke="aquamarine" points="1554.91,-1191.06 1558.34,-1191.25 1561.73,-1191.54 1565.07,-1191.92 1568.36,-1192.4 1571.56,-1192.97 1574.68,-1193.63 1577.69,-1194.38 1580.59,-1195.22 1583.37,-1196.14 1586.02,-1197.15 1588.53,-1198.23 1590.88,-1199.39 1593.08,-1200.63 1595.11,-1201.93 1596.97,-1203.3 1598.66,-1204.74 1600.16,-1206.23 1601.49,-1207.78 1602.64,-1209.38 1603.6,-1211.02 1604.37,-1212.71 1604.97,-1214.43 1605.39,-1216.18 1605.62,-1217.97 1605.69,-1219.77 1605.58,-1221.59 1605.31,-1223.43 1604.88,-1225.27 1604.3,-1227.12 1603.57,-1228.96 1602.7,-1230.79 1601.69,-1232.62 1600.56,-1234.42 1599.31,-1236.2 1597.95,-1237.96 1596.49,-1239.68 1594.93,-1241.37 1593.28,-1243.01 1591.55,-1244.61 1589.75,-1246.16 1587.88,-1247.65 1585.95,-1249.09 1583.97,-1250.46 1581.94,-1251.76 1579.86,-1253 1577.75,-1254.16 1575.61,-1255.24 1573.44,-1256.25 1571.24,-1257.17 1569.02,-1258.01 1566.79,-1258.76 1564.54,-1259.42 1562.28,-1259.99 1560.01,-1260.47 1557.73,-1260.85 1555.45,-1261.14 1553.17,-1261.33 1550.88,-1261.43 1548.59,-1261.43 1546.3,-1261.33 1544.01,-1261.14 1541.73,-1260.85 1539.45,-1260.47 1537.18,-1259.99 1534.92,-1259.42 1532.68,-1258.76 1530.44,-1258.01 1528.22,-1257.17 1526.03,-1256.25 1523.86,-1255.24 1521.71,-1254.16 1519.6,-1253 1517.53,-1251.76 1515.5,-1250.46 1513.51,-1249.09 1511.58,-1247.65 1509.71,-1246.16 1507.91,-1244.61 1506.18,-1243.01 1504.54,-1241.37 1502.98,-1239.68 1501.51,-1237.96 1500.15,-1236.2 1498.9,-1234.42 1497.77,-1232.62 1496.77,-1230.79 1495.9,-1228.96 1495.17,-1227.12 1494.58,-1225.27 1494.15,-1223.43 1493.88,-1221.59 1493.78,-1219.77 1493.84,-1217.97 1494.08,-1216.18 1494.49,-1214.43 1495.09,-1212.71 1495.87,-1211.02 1496.83,-1209.38 1497.97,-1207.78 1499.3,-1206.23 1500.81,-1204.74 1502.49,-1203.3 1504.36,-1201.93 1506.39,-1200.63 1508.58,-1199.39 1510.94,-1198.23 1513.44,-1197.15 1516.09,-1196.14 1518.87,-1195.22 1521.77,-1194.38 1524.79,-1193.63 1527.9,-1192.97 1531.11,-1192.4 1534.39,-1191.92 1537.73,-1191.54 1541.13,-1191.25 1544.55,-1191.06 1548,-1190.96 1551.46,-1190.96 1554.91,-1191.06"/>
<text text-anchor="start" x="1520.56" y="-1235.99" font-family="Times,serif" font-size="14.00">C0226896</text>
<text text-anchor="start" x="1531.85" y="-1221.99" font-family="Times,serif" font-size="14.00">Orally</text>
<text text-anchor="start" x="1540.79" y="-1207.99" font-family="Times,serif" font-size="14.00">2:2</text>
</g>
<!-- id_27660855_DOT_9 -->
<g id="node9" class="node">
<title>id_27660855_DOT_9</title>
<polygon fill="coral" stroke="coral" points="1967.64,-1268.7 1973.49,-1268.9 1979.28,-1269.19 1984.98,-1269.57 1990.58,-1270.05 1996.05,-1270.62 2001.36,-1271.28 2006.51,-1272.03 2011.46,-1272.87 2016.21,-1273.79 2020.72,-1274.79 2024.99,-1275.88 2029.01,-1277.04 2032.76,-1278.27 2036.22,-1279.58 2039.4,-1280.95 2042.28,-1282.39 2044.85,-1283.88 2047.12,-1285.43 2049.07,-1287.02 2050.71,-1288.67 2052.04,-1290.35 2053.05,-1292.08 2053.76,-1293.83 2054.17,-1295.61 2054.28,-1297.42 2054.1,-1299.24 2053.64,-1301.08 2052.9,-1302.92 2051.91,-1304.77 2050.66,-1306.61 2049.17,-1308.44 2047.46,-1310.27 2045.53,-1312.07 2043.4,-1313.85 2041.08,-1315.61 2038.58,-1317.33 2035.92,-1319.02 2033.11,-1320.66 2030.16,-1322.26 2027.08,-1323.81 2023.9,-1325.3 2020.6,-1326.73 2017.22,-1328.11 2013.75,-1329.41 2010.21,-1330.64 2006.61,-1331.81 2002.95,-1332.89 1999.25,-1333.9 1995.5,-1334.82 1991.72,-1335.66 1987.91,-1336.41 1984.07,-1337.07 1980.21,-1337.64 1976.34,-1338.12 1972.46,-1338.5 1968.56,-1338.79 1964.66,-1338.98 1960.76,-1339.08 1956.85,-1339.08 1952.95,-1338.98 1949.05,-1338.79 1945.15,-1338.5 1941.27,-1338.12 1937.4,-1337.64 1933.54,-1337.07 1929.7,-1336.41 1925.89,-1335.66 1922.11,-1334.82 1918.36,-1333.9 1914.66,-1332.89 1911,-1331.81 1907.4,-1330.64 1903.86,-1329.41 1900.39,-1328.11 1897.01,-1326.73 1893.71,-1325.3 1890.53,-1323.81 1887.45,-1322.26 1884.5,-1320.66 1881.69,-1319.02 1879.03,-1317.33 1876.53,-1315.61 1874.21,-1313.85 1872.08,-1312.07 1870.15,-1310.27 1868.44,-1308.44 1866.95,-1306.61 1865.7,-1304.77 1864.71,-1302.92 1863.97,-1301.08 1863.51,-1299.24 1863.33,-1297.42 1863.44,-1295.61 1863.85,-1293.83 1864.56,-1292.08 1865.57,-1290.35 1866.9,-1288.67 1868.54,-1287.02 1870.49,-1285.43 1872.76,-1283.88 1875.33,-1282.39 1878.21,-1280.95 1881.39,-1279.58 1884.85,-1278.27 1888.6,-1277.04 1892.62,-1275.88 1896.89,-1274.79 1901.4,-1273.79 1906.15,-1272.87 1911.1,-1272.03 1916.25,-1271.28 1921.56,-1270.62 1927.03,-1270.05 1932.63,-1269.57 1938.33,-1269.19 1944.12,-1268.9 1949.97,-1268.7 1955.86,-1268.61 1961.75,-1268.61 1967.64,-1268.7"/>
<text text-anchor="start" x="1929.64" y="-1313.64" font-family="Times,serif" font-size="14.00">C0003873</text>
<text text-anchor="start" x="1903.4" y="-1299.64" font-family="Times,serif" font-size="14.00">rheumatoid arthritis</text>
<text text-anchor="start" x="1942.86" y="-1285.64" font-family="Times,serif" font-size="14.00">26:27</text>
</g>
<!-- id_27660855_DOT_1&#45;&#45;id_27660855_DOT_9 -->
<g id="edge7" class="edge">
<title>id_27660855_DOT_1&#45;&#45;id_27660855_DOT_9</title>
<path fill="none" stroke="black" stroke-dasharray="1,5" d="M1599.89,-1235.72C1666.67,-1248.39 1785.94,-1271.03 1868.56,-1286.71"/>
<text text-anchor="middle" x="1707.97" y="-1264.01" font-family="Times,serif" font-size="14.00">0.930677</text>
</g>
<!-- id_27660855_DOT_10 -->
<g id="node10" class="node">
<title>id_27660855_DOT_10</title>
<polygon fill="cornflowerblue" stroke="cornflowerblue" points="1200.84,-1445.57 1204.27,-1445.77 1207.66,-1446.06 1211.01,-1446.44 1214.29,-1446.92 1217.49,-1447.49 1220.61,-1448.15 1223.62,-1448.9 1226.53,-1449.74 1229.31,-1450.66 1231.95,-1451.66 1234.46,-1452.75 1236.81,-1453.91 1239.01,-1455.15 1241.04,-1456.45 1242.9,-1457.82 1244.59,-1459.26 1246.1,-1460.75 1247.42,-1462.3 1248.57,-1463.89 1249.53,-1465.54 1250.31,-1467.22 1250.9,-1468.95 1251.32,-1470.7 1251.56,-1472.48 1251.62,-1474.29 1251.52,-1476.11 1251.25,-1477.95 1250.81,-1479.79 1250.23,-1481.64 1249.5,-1483.48 1248.63,-1485.31 1247.62,-1487.14 1246.49,-1488.94 1245.24,-1490.72 1243.88,-1492.48 1242.42,-1494.2 1240.86,-1495.89 1239.21,-1497.53 1237.49,-1499.13 1235.68,-1500.68 1233.81,-1502.17 1231.89,-1503.6 1229.9,-1504.98 1227.87,-1506.28 1225.8,-1507.52 1223.68,-1508.68 1221.54,-1509.76 1219.37,-1510.77 1217.17,-1511.69 1214.96,-1512.53 1212.72,-1513.28 1210.47,-1513.94 1208.21,-1514.51 1205.94,-1514.99 1203.67,-1515.37 1201.38,-1515.66 1199.1,-1515.85 1196.81,-1515.95 1194.52,-1515.95 1192.23,-1515.85 1189.95,-1515.66 1187.66,-1515.37 1185.39,-1514.99 1183.12,-1514.51 1180.86,-1513.94 1178.61,-1513.28 1176.37,-1512.53 1174.16,-1511.69 1171.96,-1510.77 1169.79,-1509.76 1167.65,-1508.68 1165.53,-1507.52 1163.46,-1506.28 1161.43,-1504.98 1159.44,-1503.6 1157.52,-1502.17 1155.65,-1500.68 1153.84,-1499.13 1152.12,-1497.53 1150.47,-1495.89 1148.91,-1494.2 1147.45,-1492.48 1146.09,-1490.72 1144.84,-1488.94 1143.71,-1487.14 1142.7,-1485.31 1141.83,-1483.48 1141.1,-1481.64 1140.52,-1479.79 1140.09,-1477.95 1139.81,-1476.11 1139.71,-1474.29 1139.77,-1472.48 1140.01,-1470.7 1140.43,-1468.95 1141.02,-1467.22 1141.8,-1465.54 1142.76,-1463.89 1143.91,-1462.3 1145.23,-1460.75 1146.74,-1459.26 1148.43,-1457.82 1150.29,-1456.45 1152.32,-1455.15 1154.52,-1453.91 1156.87,-1452.75 1159.38,-1451.66 1162.02,-1450.66 1164.8,-1449.74 1167.71,-1448.9 1170.72,-1448.15 1173.84,-1447.49 1177.04,-1446.92 1180.32,-1446.44 1183.67,-1446.06 1187.06,-1445.77 1190.49,-1445.57 1193.94,-1445.48 1197.39,-1445.48 1200.84,-1445.57"/>
<text text-anchor="start" x="1166.5" y="-1490.51" font-family="Times,serif" font-size="14.00">C1515655</text>
<text text-anchor="start" x="1176.03" y="-1476.51" font-family="Times,serif" font-size="14.00">in vivo</text>
<text text-anchor="start" x="1179.72" y="-1462.51" font-family="Times,serif" font-size="14.00">39:40</text>
</g>
<!-- id_27660855_DOT_1&#45;&#45;id_27660855_DOT_10 -->
<g id="edge8" class="edge">
<title>id_27660855_DOT_1&#45;&#45;id_27660855_DOT_10</title>
<path fill="none" stroke="black" stroke-dasharray="1,5" d="M1515.46,-1250.83C1449.34,-1298.36 1304.54,-1402.45 1234.77,-1452.6"/>
<text text-anchor="middle" x="1348.87" y="-1354.52" font-family="Times,serif" font-size="14.00">0.852157</text>
</g>
<!-- id_27660855_DOT_14 -->
<g id="node14" class="node">
<title>id_27660855_DOT_14</title>
<polygon fill="blue" stroke="blue" points="1510.51,-769.28 1513.94,-769.47 1517.33,-769.76 1520.68,-770.15 1523.96,-770.62 1527.16,-771.19 1530.28,-771.85 1533.3,-772.61 1536.2,-773.44 1538.98,-774.37 1541.62,-775.37 1544.13,-776.46 1546.48,-777.62 1548.68,-778.85 1550.71,-780.16 1552.57,-781.53 1554.26,-782.96 1555.77,-784.45 1557.1,-786 1558.24,-787.6 1559.2,-789.24 1559.98,-790.93 1560.57,-792.65 1560.99,-794.41 1561.23,-796.19 1561.29,-798 1561.19,-799.82 1560.92,-801.65 1560.49,-803.5 1559.9,-805.34 1559.17,-807.18 1558.3,-809.02 1557.3,-810.84 1556.16,-812.65 1554.92,-814.43 1553.56,-816.18 1552.09,-817.91 1550.53,-819.59 1548.89,-821.24 1547.16,-822.84 1545.35,-824.38 1543.49,-825.88 1541.56,-827.31 1539.57,-828.68 1537.54,-829.99 1535.47,-831.22 1533.36,-832.38 1531.21,-833.47 1529.04,-834.47 1526.84,-835.4 1524.63,-836.23 1522.39,-836.98 1520.14,-837.64 1517.88,-838.22 1515.61,-838.69 1513.34,-839.08 1511.06,-839.37 1508.77,-839.56 1506.48,-839.65 1504.19,-839.65 1501.9,-839.56 1499.62,-839.37 1497.33,-839.08 1495.06,-838.69 1492.79,-838.22 1490.53,-837.64 1488.28,-836.98 1486.04,-836.23 1483.83,-835.4 1481.63,-834.47 1479.46,-833.47 1477.32,-832.38 1475.2,-831.22 1473.13,-829.99 1471.1,-828.68 1469.12,-827.31 1467.19,-825.88 1465.32,-824.38 1463.51,-822.84 1461.79,-821.24 1460.14,-819.59 1458.58,-817.91 1457.12,-816.18 1455.76,-814.43 1454.51,-812.65 1453.38,-810.84 1452.37,-809.02 1451.5,-807.18 1450.77,-805.34 1450.19,-803.5 1449.76,-801.65 1449.49,-799.82 1449.38,-798 1449.44,-796.19 1449.68,-794.41 1450.1,-792.65 1450.69,-790.93 1451.47,-789.24 1452.43,-787.6 1453.58,-786 1454.9,-784.45 1456.41,-782.96 1458.1,-781.53 1459.96,-780.16 1461.99,-778.85 1464.19,-777.62 1466.54,-776.46 1469.05,-775.37 1471.69,-774.37 1474.47,-773.44 1477.38,-772.61 1480.39,-771.85 1483.51,-771.19 1486.71,-770.62 1489.99,-770.15 1493.34,-769.76 1496.73,-769.47 1500.16,-769.28 1503.61,-769.18 1507.06,-769.18 1510.51,-769.28"/>
<text text-anchor="start" x="1476.17" y="-814.22" font-family="Times,serif" font-size="14.00">C0014432</text>
<text text-anchor="start" x="1478.5" y="-800.22" font-family="Times,serif" font-size="14.00">inhibitors</text>
<text text-anchor="start" x="1489.39" y="-786.22" font-family="Times,serif" font-size="14.00">52:52</text>
</g>
<!-- id_27660855_DOT_1&#45;&#45;id_27660855_DOT_14 -->
<g id="edge9" class="edge">
<title>id_27660855_DOT_1&#45;&#45;id_27660855_DOT_14</title>
<path fill="none" stroke="black" stroke-dasharray="1,5" d="M1546.02,-1190.96C1537.66,-1111.47 1517.39,-918.95 1509.03,-839.55"/>
<text text-anchor="middle" x="1501.28" y="-1018.06" font-family="Times,serif" font-size="14.00">0.935123</text>
</g>
<!-- id_27660855_DOT_2 -->
<g id="node2" class="node">
<title>id_27660855_DOT_2</title>
<polygon fill="bisque" stroke="bisque" points="3115.92,-1303.63 3125.06,-1303.82 3134.11,-1304.11 3143.03,-1304.5 3151.78,-1304.97 3160.32,-1305.54 3168.63,-1306.21 3176.68,-1306.96 3184.42,-1307.79 3191.83,-1308.72 3198.89,-1309.72 3205.57,-1310.81 3211.85,-1311.97 3217.71,-1313.2 3223.13,-1314.51 3228.09,-1315.88 3232.59,-1317.31 3236.61,-1318.81 3240.15,-1320.35 3243.21,-1321.95 3245.77,-1323.6 3247.85,-1325.28 3249.44,-1327 3250.54,-1328.76 3251.18,-1330.54 3251.35,-1332.35 3251.07,-1334.17 3250.35,-1336 3249.2,-1337.85 3247.64,-1339.69 3245.69,-1341.54 3243.37,-1343.37 3240.69,-1345.19 3237.67,-1347 3234.34,-1348.78 3230.71,-1350.54 3226.81,-1352.26 3222.65,-1353.94 3218.26,-1355.59 3213.65,-1357.19 3208.84,-1358.73 3203.86,-1360.23 3198.71,-1361.66 3193.42,-1363.03 3188,-1364.34 3182.47,-1365.57 3176.84,-1366.73 3171.12,-1367.82 3165.33,-1368.82 3159.47,-1369.75 3153.56,-1370.58 3147.6,-1371.33 3141.6,-1372 3135.57,-1372.57 3129.52,-1373.04 3123.45,-1373.43 3117.36,-1373.72 3111.26,-1373.91 3105.16,-1374 3099.05,-1374 3092.95,-1373.91 3086.85,-1373.72 3080.76,-1373.43 3074.69,-1373.04 3068.64,-1372.57 3062.61,-1372 3056.61,-1371.33 3050.65,-1370.58 3044.74,-1369.75 3038.88,-1368.82 3033.09,-1367.82 3027.37,-1366.73 3021.74,-1365.57 3016.21,-1364.34 3010.79,-1363.03 3005.5,-1361.66 3000.36,-1360.23 2995.37,-1358.73 2990.56,-1357.19 2985.95,-1355.59 2981.56,-1353.94 2977.4,-1352.26 2973.5,-1350.54 2969.87,-1348.78 2966.54,-1347 2963.52,-1345.19 2960.84,-1343.37 2958.52,-1341.54 2956.57,-1339.69 2955.01,-1337.85 2953.87,-1336 2953.14,-1334.17 2952.86,-1332.35 2953.03,-1330.54 2953.67,-1328.76 2954.78,-1327 2956.37,-1325.28 2958.44,-1323.6 2961,-1321.95 2964.06,-1320.35 2967.6,-1318.81 2971.62,-1317.31 2976.12,-1315.88 2981.08,-1314.51 2986.5,-1313.2 2992.36,-1311.97 2998.64,-1310.81 3005.32,-1309.72 3012.38,-1308.72 3019.79,-1307.79 3027.54,-1306.96 3035.58,-1306.21 3043.89,-1305.54 3052.44,-1304.97 3061.19,-1304.5 3070.1,-1304.11 3079.15,-1303.82 3088.3,-1303.63 3097.5,-1303.53 3106.72,-1303.53 3115.92,-1303.63"/>
<text text-anchor="start" x="3073.19" y="-1348.57" font-family="Times,serif" font-size="14.00">C1450115</text>
<text text-anchor="start" x="3010.92" y="-1334.57" font-family="Times,serif" font-size="14.00">Phosphoinositide&#45;3&#45;Kinase delta</text>
<text text-anchor="start" x="3093.16" y="-1320.57" font-family="Times,serif" font-size="14.00">4:5</text>
</g>
<!-- id_27660855_DOT_6 -->
<g id="node6" class="node">
<title>id_27660855_DOT_6</title>
<polygon fill="bisque" stroke="bisque" points="2742.68,-1309.64 2751.65,-1309.83 2760.52,-1310.12 2769.27,-1310.51 2777.85,-1310.98 2786.23,-1311.55 2794.38,-1312.22 2802.27,-1312.97 2809.87,-1313.8 2817.14,-1314.73 2824.06,-1315.73 2830.61,-1316.82 2836.77,-1317.98 2842.52,-1319.21 2847.83,-1320.52 2852.7,-1321.89 2857.11,-1323.32 2861.06,-1324.82 2864.53,-1326.36 2867.52,-1327.96 2870.04,-1329.61 2872.07,-1331.29 2873.63,-1333.01 2874.72,-1334.77 2875.34,-1336.55 2875.51,-1338.36 2875.23,-1340.18 2874.52,-1342.02 2873.4,-1343.86 2871.87,-1345.7 2869.96,-1347.55 2867.68,-1349.38 2865.05,-1351.2 2862.1,-1353.01 2858.83,-1354.79 2855.27,-1356.55 2851.44,-1358.27 2847.36,-1359.95 2843.05,-1361.6 2838.53,-1363.2 2833.82,-1364.74 2828.93,-1366.24 2823.88,-1367.67 2818.69,-1369.04 2813.38,-1370.35 2807.95,-1371.58 2802.43,-1372.74 2796.82,-1373.83 2791.14,-1374.83 2785.4,-1375.76 2779.6,-1376.59 2773.75,-1377.34 2767.87,-1378.01 2761.96,-1378.58 2756.02,-1379.05 2750.07,-1379.44 2744.1,-1379.73 2738.12,-1379.92 2732.13,-1380.02 2726.14,-1380.02 2720.15,-1379.92 2714.17,-1379.73 2708.2,-1379.44 2702.25,-1379.05 2696.31,-1378.58 2690.4,-1378.01 2684.52,-1377.34 2678.67,-1376.59 2672.87,-1375.76 2667.13,-1374.83 2661.45,-1373.83 2655.84,-1372.74 2650.32,-1371.58 2644.89,-1370.35 2639.58,-1369.04 2634.39,-1367.67 2629.34,-1366.24 2624.45,-1364.74 2619.74,-1363.2 2615.22,-1361.6 2610.91,-1359.95 2606.83,-1358.27 2603,-1356.55 2599.44,-1354.79 2596.17,-1353.01 2593.22,-1351.2 2590.59,-1349.38 2588.31,-1347.55 2586.4,-1345.7 2584.87,-1343.86 2583.74,-1342.02 2583.04,-1340.18 2582.76,-1338.36 2582.93,-1336.55 2583.55,-1334.77 2584.64,-1333.01 2586.2,-1331.29 2588.23,-1329.61 2590.74,-1327.96 2593.74,-1326.36 2597.21,-1324.82 2601.16,-1323.32 2605.57,-1321.89 2610.44,-1320.52 2615.75,-1319.21 2621.5,-1317.98 2627.65,-1316.82 2634.21,-1315.73 2641.13,-1314.73 2648.4,-1313.8 2656,-1312.97 2663.88,-1312.22 2672.04,-1311.55 2680.42,-1310.98 2689,-1310.51 2697.75,-1310.12 2706.62,-1309.83 2715.59,-1309.64 2724.61,-1309.55 2733.66,-1309.55 2742.68,-1309.64"/>
<text text-anchor="start" x="2700.22" y="-1354.58" font-family="Times,serif" font-size="14.00">C1450115</text>
<text text-anchor="start" x="2639.9" y="-1340.58" font-family="Times,serif" font-size="14.00">phosphoinositide&#45;3&#45;kinase delta</text>
<text text-anchor="start" x="2713.19" y="-1326.58" font-family="Times,serif" font-size="14.00">14:15</text>
</g>
<!-- id_27660855_DOT_2&#45;&#45;id_27660855_DOT_6 -->
<g id="edge1" class="edge">
<title>id_27660855_DOT_2&#45;&#45;id_27660855_DOT_6</title>
<path fill="none" stroke="black" d="M2957.91,-1341.09C2930.54,-1341.53 2901.89,-1342 2874.49,-1342.44"/>
<text text-anchor="middle" x="2916.2" y="-1330.57" font-family="Times,serif" font-size="14.00">0.002982</text>
</g>
<!-- id_27660855_DOT_13 -->
<g id="node13" class="node">
<title>id_27660855_DOT_13</title>
<polygon fill="bisque" stroke="bisque" points="3482.25,-1264.22 3491.22,-1264.41 3500.1,-1264.7 3508.84,-1265.09 3517.43,-1265.56 3525.81,-1266.13 3533.96,-1266.8 3541.85,-1267.55 3549.44,-1268.38 3556.71,-1269.31 3563.64,-1270.31 3570.19,-1271.4 3576.35,-1272.56 3582.09,-1273.79 3587.41,-1275.1 3592.27,-1276.47 3596.69,-1277.9 3600.63,-1279.4 3604.1,-1280.94 3607.1,-1282.54 3609.61,-1284.19 3611.65,-1285.87 3613.21,-1287.59 3614.29,-1289.35 3614.92,-1291.13 3615.08,-1292.94 3614.81,-1294.76 3614.1,-1296.6 3612.97,-1298.44 3611.45,-1300.28 3609.53,-1302.13 3607.26,-1303.96 3604.63,-1305.78 3601.67,-1307.59 3598.4,-1309.37 3594.84,-1311.13 3591.02,-1312.85 3586.94,-1314.54 3582.63,-1316.18 3578.11,-1317.78 3573.39,-1319.33 3568.5,-1320.82 3563.46,-1322.25 3558.27,-1323.62 3552.95,-1324.93 3547.53,-1326.16 3542.01,-1327.32 3536.4,-1328.41 3530.72,-1329.41 3524.97,-1330.34 3519.17,-1331.17 3513.33,-1331.93 3507.45,-1332.59 3501.53,-1333.16 3495.6,-1333.63 3489.64,-1334.02 3483.67,-1334.31 3477.69,-1334.5 3471.7,-1334.6 3465.71,-1334.6 3459.73,-1334.5 3453.75,-1334.31 3447.78,-1334.02 3441.82,-1333.63 3435.88,-1333.16 3429.97,-1332.59 3424.09,-1331.93 3418.25,-1331.17 3412.45,-1330.34 3406.7,-1329.41 3401.02,-1328.41 3395.41,-1327.32 3389.89,-1326.16 3384.46,-1324.93 3379.15,-1323.62 3373.96,-1322.25 3368.91,-1320.82 3364.02,-1319.33 3359.31,-1317.78 3354.79,-1316.18 3350.48,-1314.54 3346.4,-1312.85 3342.57,-1311.13 3339.02,-1309.37 3335.75,-1307.59 3332.79,-1305.78 3330.16,-1303.96 3327.88,-1302.13 3325.97,-1300.28 3324.44,-1298.44 3323.32,-1296.6 3322.61,-1294.76 3322.33,-1292.94 3322.5,-1291.13 3323.12,-1289.35 3324.21,-1287.59 3325.77,-1285.87 3327.8,-1284.19 3330.32,-1282.54 3333.31,-1280.94 3336.79,-1279.4 3340.73,-1277.9 3345.14,-1276.47 3350.01,-1275.1 3355.33,-1273.79 3361.07,-1272.56 3367.23,-1271.4 3373.78,-1270.31 3380.71,-1269.31 3387.98,-1268.38 3395.57,-1267.55 3403.46,-1266.8 3411.61,-1266.13 3419.99,-1265.56 3428.57,-1265.09 3437.32,-1264.7 3446.2,-1264.41 3455.16,-1264.22 3464.19,-1264.13 3473.23,-1264.13 3482.25,-1264.22"/>
<text text-anchor="start" x="3439.8" y="-1309.16" font-family="Times,serif" font-size="14.00">C1450115</text>
<text text-anchor="start" x="3379.48" y="-1295.16" font-family="Times,serif" font-size="14.00">phosphoinositide&#45;3&#45;kinase delta</text>
<text text-anchor="start" x="3452.76" y="-1281.16" font-family="Times,serif" font-size="14.00">50:51</text>
</g>
<!-- id_27660855_DOT_2&#45;&#45;id_27660855_DOT_13 -->
<g id="edge2" class="edge">
<title>id_27660855_DOT_2&#45;&#45;id_27660855_DOT_13</title>
<path fill="none" stroke="black" d="M3245.42,-1323.36C3278.56,-1319.8 3313.52,-1316.04 3345.7,-1312.58"/>
<text text-anchor="middle" x="3295.56" y="-1306.77" font-family="Times,serif" font-size="14.00">0.004320</text>
</g>
<!-- id_27660855_DOT_3 -->
<g id="node3" class="node">
<title>id_27660855_DOT_3</title>
<polygon fill="blue" stroke="blue" points="1389.29,-0.23 1392.72,-0.42 1396.11,-0.71 1399.46,-1.09 1402.74,-1.57 1405.94,-2.14 1409.06,-2.8 1412.07,-3.55 1414.98,-4.39 1417.76,-5.31 1420.4,-6.32 1422.91,-7.4 1425.26,-8.57 1427.46,-9.8 1429.49,-11.1 1431.35,-12.48 1433.04,-13.91 1434.55,-15.4 1435.87,-16.95 1437.02,-18.55 1437.98,-20.19 1438.76,-21.88 1439.35,-23.6 1439.77,-25.36 1440.01,-27.14 1440.07,-28.94 1439.97,-30.77 1439.7,-32.6 1439.27,-34.44 1438.68,-36.29 1437.95,-38.13 1437.08,-39.97 1436.07,-41.79 1434.94,-43.6 1433.69,-45.38 1432.33,-47.13 1430.87,-48.86 1429.31,-50.54 1427.66,-52.19 1425.94,-53.78 1424.13,-55.33 1422.26,-56.82 1420.34,-58.26 1418.35,-59.63 1416.32,-60.94 1414.25,-62.17 1412.14,-63.33 1409.99,-64.42 1407.82,-65.42 1405.62,-66.34 1403.41,-67.18 1401.17,-67.93 1398.92,-68.59 1396.66,-69.16 1394.39,-69.64 1392.12,-70.02 1389.83,-70.31 1387.55,-70.51 1385.26,-70.6 1382.97,-70.6 1380.68,-70.51 1378.4,-70.31 1376.11,-70.02 1373.84,-69.64 1371.57,-69.16 1369.31,-68.59 1367.06,-67.93 1364.82,-67.18 1362.61,-66.34 1360.41,-65.42 1358.24,-64.42 1356.1,-63.33 1353.98,-62.17 1351.91,-60.94 1349.88,-59.63 1347.89,-58.26 1345.97,-56.82 1344.1,-55.33 1342.29,-53.78 1340.57,-52.19 1338.92,-50.54 1337.36,-48.86 1335.9,-47.13 1334.54,-45.38 1333.29,-43.6 1332.16,-41.79 1331.15,-39.97 1330.28,-38.13 1329.55,-36.29 1328.97,-34.44 1328.54,-32.6 1328.26,-30.77 1328.16,-28.94 1328.22,-27.14 1328.46,-25.36 1328.88,-23.6 1329.47,-21.88 1330.25,-20.19 1331.21,-18.55 1332.36,-16.95 1333.68,-15.4 1335.19,-13.91 1336.88,-12.48 1338.74,-11.1 1340.77,-9.8 1342.97,-8.57 1345.32,-7.4 1347.83,-6.32 1350.47,-5.31 1353.25,-4.39 1356.16,-3.55 1359.17,-2.8 1362.29,-2.14 1365.49,-1.57 1368.77,-1.09 1372.12,-0.71 1375.51,-0.42 1378.94,-0.23 1382.39,-0.13 1385.84,-0.13 1389.29,-0.23"/>
<text text-anchor="start" x="1354.95" y="-45.17" font-family="Times,serif" font-size="14.00">C0014432</text>
<text text-anchor="start" x="1356.89" y="-31.17" font-family="Times,serif" font-size="14.00">Inhibitors</text>
<text text-anchor="start" x="1375.17" y="-17.17" font-family="Times,serif" font-size="14.00">6:6</text>
</g>
<!-- id_27660855_DOT_16 -->
<g id="node16" class="node">
<title>id_27660855_DOT_16</title>
<polygon fill="blue" stroke="blue" points="1456.78,-375.17 1460.2,-375.36 1463.6,-375.65 1466.94,-376.03 1470.22,-376.51 1473.43,-377.08 1476.54,-377.74 1479.56,-378.49 1482.46,-379.33 1485.24,-380.25 1487.89,-381.26 1490.39,-382.34 1492.75,-383.5 1494.94,-384.74 1496.97,-386.04 1498.83,-387.41 1500.52,-388.85 1502.03,-390.34 1503.36,-391.89 1504.5,-393.49 1505.46,-395.13 1506.24,-396.82 1506.84,-398.54 1507.25,-400.29 1507.49,-402.08 1507.55,-403.88 1507.45,-405.7 1507.18,-407.54 1506.75,-409.38 1506.16,-411.23 1505.43,-413.07 1504.56,-414.9 1503.56,-416.73 1502.43,-418.53 1501.18,-420.31 1499.82,-422.07 1498.35,-423.79 1496.79,-425.48 1495.15,-427.12 1493.42,-428.72 1491.62,-430.27 1489.75,-431.76 1487.82,-433.2 1485.83,-434.57 1483.8,-435.87 1481.73,-437.11 1479.62,-438.27 1477.47,-439.35 1475.3,-440.36 1473.1,-441.28 1470.89,-442.12 1468.65,-442.87 1466.41,-443.53 1464.15,-444.1 1461.88,-444.58 1459.6,-444.96 1457.32,-445.25 1455.03,-445.44 1452.74,-445.54 1450.45,-445.54 1448.16,-445.44 1445.88,-445.25 1443.6,-444.96 1441.32,-444.58 1439.05,-444.1 1436.79,-443.53 1434.54,-442.87 1432.31,-442.12 1430.09,-441.28 1427.89,-440.36 1425.72,-439.35 1423.58,-438.27 1421.47,-437.11 1419.39,-435.87 1417.36,-434.57 1415.38,-433.2 1413.45,-431.76 1411.58,-430.27 1409.78,-428.72 1408.05,-427.12 1406.4,-425.48 1404.84,-423.79 1403.38,-422.07 1402.02,-420.31 1400.77,-418.53 1399.64,-416.73 1398.63,-414.9 1397.76,-413.07 1397.03,-411.23 1396.45,-409.38 1396.02,-407.54 1395.75,-405.7 1395.64,-403.88 1395.7,-402.08 1395.94,-400.29 1396.36,-398.54 1396.95,-396.82 1397.73,-395.13 1398.69,-393.49 1399.84,-391.89 1401.17,-390.34 1402.67,-388.85 1404.36,-387.41 1406.22,-386.04 1408.25,-384.74 1410.45,-383.5 1412.8,-382.34 1415.31,-381.26 1417.95,-380.25 1420.73,-379.33 1423.64,-378.49 1426.65,-377.74 1429.77,-377.08 1432.97,-376.51 1436.25,-376.03 1439.6,-375.65 1442.99,-375.36 1446.42,-375.17 1449.87,-375.07 1453.33,-375.07 1456.78,-375.17"/>
<text text-anchor="start" x="1422.43" y="-420.1" font-family="Times,serif" font-size="14.00">C0014432</text>
<text text-anchor="start" x="1427.49" y="-406.1" font-family="Times,serif" font-size="14.00">inhibitor</text>
<text text-anchor="start" x="1435.65" y="-392.1" font-family="Times,serif" font-size="14.00">66:66</text>
</g>
<!-- id_27660855_DOT_3&#45;&#45;id_27660855_DOT_16 -->
<g id="edge3" class="edge">
<title>id_27660855_DOT_3&#45;&#45;id_27660855_DOT_16</title>
<path fill="none" stroke="black" d="M1390.4,-70.3C1403.25,-141.66 1432.36,-303.42 1445.25,-375.05"/>
<text text-anchor="middle" x="1391.58" y="-225.48" font-family="Times,serif" font-size="14.00">0.007231</text>
</g>
<!-- id_27660855_DOT_4 -->
<g id="node4" class="node">
<title>id_27660855_DOT_4</title>
<polygon fill="blueviolet" stroke="blueviolet" points="1085.73,-1847.25 1089.14,-1847.44 1092.52,-1847.73 1095.84,-1848.11 1099.11,-1848.59 1102.3,-1849.16 1105.4,-1849.82 1108.4,-1850.57 1111.29,-1851.41 1114.05,-1852.33 1116.69,-1853.34 1119.18,-1854.42 1121.52,-1855.59 1123.71,-1856.82 1125.73,-1858.13 1127.58,-1859.5 1129.26,-1860.93 1130.76,-1862.42 1132.08,-1863.97 1133.22,-1865.57 1134.18,-1867.21 1134.95,-1868.9 1135.55,-1870.62 1135.96,-1872.38 1136.2,-1874.16 1136.26,-1875.96 1136.15,-1877.79 1135.88,-1879.62 1135.46,-1881.47 1134.88,-1883.31 1134.15,-1885.15 1133.28,-1886.99 1132.28,-1888.81 1131.16,-1890.62 1129.91,-1892.4 1128.56,-1894.15 1127.1,-1895.88 1125.55,-1897.56 1123.91,-1899.21 1122.19,-1900.8 1120.4,-1902.35 1118.54,-1903.85 1116.62,-1905.28 1114.65,-1906.65 1112.62,-1907.96 1110.56,-1909.19 1108.46,-1910.35 1106.33,-1911.44 1104.16,-1912.44 1101.98,-1913.36 1099.77,-1914.2 1097.55,-1914.95 1095.31,-1915.61 1093.06,-1916.18 1090.8,-1916.66 1088.54,-1917.05 1086.27,-1917.33 1083.99,-1917.53 1081.71,-1917.62 1079.44,-1917.62 1077.16,-1917.53 1074.88,-1917.33 1072.61,-1917.05 1070.35,-1916.66 1068.09,-1916.18 1065.84,-1915.61 1063.6,-1914.95 1061.38,-1914.2 1059.17,-1913.36 1056.99,-1912.44 1054.82,-1911.44 1052.69,-1910.35 1050.59,-1909.19 1048.53,-1907.96 1046.5,-1906.65 1044.53,-1905.28 1042.61,-1903.85 1040.75,-1902.35 1038.96,-1900.8 1037.24,-1899.21 1035.6,-1897.56 1034.05,-1895.88 1032.59,-1894.15 1031.24,-1892.4 1029.99,-1890.62 1028.87,-1888.81 1027.87,-1886.99 1027,-1885.15 1026.27,-1883.31 1025.69,-1881.47 1025.27,-1879.62 1025,-1877.79 1024.89,-1875.96 1024.95,-1874.16 1025.19,-1872.38 1025.6,-1870.62 1026.2,-1868.9 1026.97,-1867.21 1027.93,-1865.57 1029.07,-1863.97 1030.39,-1862.42 1031.89,-1860.93 1033.57,-1859.5 1035.42,-1858.13 1037.44,-1856.82 1039.63,-1855.59 1041.97,-1854.42 1044.46,-1853.34 1047.1,-1852.33 1049.86,-1851.41 1052.75,-1850.57 1055.75,-1849.82 1058.85,-1849.16 1062.04,-1848.59 1065.31,-1848.11 1068.63,-1847.73 1072.01,-1847.44 1075.42,-1847.25 1078.85,-1847.15 1082.29,-1847.15 1085.73,-1847.25"/>
<text text-anchor="start" x="1051.66" y="-1892.19" font-family="Times,serif" font-size="14.00">C0184511</text>
<text text-anchor="start" x="1053.36" y="-1878.19" font-family="Times,serif" font-size="14.00">Improved</text>
<text text-anchor="start" x="1071.63" y="-1864.19" font-family="Times,serif" font-size="14.00">8:8</text>
</g>
<!-- id_27660855_DOT_8 -->
<g id="node8" class="node">
<title>id_27660855_DOT_8</title>
<polygon fill="chartreuse" stroke="chartreuse" points="942.27,-2228.35 950.24,-2228.54 958.12,-2228.83 965.89,-2229.22 973.52,-2229.69 980.97,-2230.26 988.21,-2230.93 995.21,-2231.68 1001.96,-2232.51 1008.42,-2233.44 1014.57,-2234.44 1020.39,-2235.53 1025.87,-2236.69 1030.97,-2237.92 1035.69,-2239.23 1040.02,-2240.6 1043.94,-2242.03 1047.44,-2243.53 1050.53,-2245.07 1053.19,-2246.67 1055.42,-2248.32 1057.23,-2250 1058.61,-2251.72 1059.58,-2253.48 1060.13,-2255.26 1060.28,-2257.07 1060.03,-2258.89 1059.41,-2260.72 1058.41,-2262.57 1057.05,-2264.41 1055.35,-2266.26 1053.33,-2268.09 1050.99,-2269.91 1048.36,-2271.72 1045.46,-2273.5 1042.3,-2275.26 1038.9,-2276.98 1035.28,-2278.66 1031.45,-2280.31 1027.43,-2281.91 1023.24,-2283.45 1018.9,-2284.95 1014.41,-2286.38 1009.8,-2287.75 1005.08,-2289.06 1000.26,-2290.29 995.36,-2291.45 990.37,-2292.54 985.33,-2293.54 980.22,-2294.47 975.07,-2295.3 969.88,-2296.05 964.65,-2296.72 959.4,-2297.29 954.13,-2297.76 948.83,-2298.15 943.53,-2298.44 938.22,-2298.63 932.9,-2298.73 927.58,-2298.73 922.26,-2298.63 916.95,-2298.44 911.64,-2298.15 906.35,-2297.76 901.07,-2297.29 895.82,-2296.72 890.6,-2296.05 885.41,-2295.3 880.25,-2294.47 875.15,-2293.54 870.1,-2292.54 865.12,-2291.45 860.21,-2290.29 855.39,-2289.06 850.67,-2287.75 846.06,-2286.38 841.58,-2284.95 837.23,-2283.45 833.04,-2281.91 829.03,-2280.31 825.2,-2278.66 821.58,-2276.98 818.17,-2275.26 815.01,-2273.5 812.11,-2271.72 809.48,-2269.91 807.15,-2268.09 805.12,-2266.26 803.43,-2264.41 802.07,-2262.57 801.07,-2260.72 800.44,-2258.89 800.19,-2257.07 800.34,-2255.26 800.9,-2253.48 801.86,-2251.72 803.25,-2250 805.05,-2248.32 807.29,-2246.67 809.95,-2245.07 813.03,-2243.53 816.54,-2242.03 820.46,-2240.6 824.78,-2239.23 829.51,-2237.92 834.61,-2236.69 840.08,-2235.53 845.9,-2234.44 852.05,-2233.44 858.51,-2232.51 865.26,-2231.68 872.27,-2230.93 879.51,-2230.26 886.96,-2229.69 894.58,-2229.22 902.35,-2228.83 910.24,-2228.54 918.2,-2228.35 926.22,-2228.25 934.25,-2228.25 942.27,-2228.35"/>
<text text-anchor="start" x="901.07" y="-2273.29" font-family="Times,serif" font-size="14.00">C0376545</text>
<text text-anchor="start" x="851.9" y="-2259.29" font-family="Times,serif" font-size="14.00">hematological malignancies</text>
<text text-anchor="start" x="914.29" y="-2245.29" font-family="Times,serif" font-size="14.00">23:24</text>
</g>
<!-- id_27660855_DOT_4&#45;&#45;id_27660855_DOT_8 -->
<g id="edge10" class="edge">
<title>id_27660855_DOT_4&#45;&#45;id_27660855_DOT_8</title>
<path fill="none" stroke="black" stroke-dasharray="1,5" d="M1067.23,-1916.21C1038.88,-1988.07 972.89,-2155.37 944.09,-2228.37"/>
<text text-anchor="middle" x="979.41" y="-2075.09" font-family="Times,serif" font-size="14.00">0.748681</text>
</g>
<!-- id_27660855_DOT_4&#45;&#45;id_27660855_DOT_10 -->
<g id="edge11" class="edge">
<title>id_27660855_DOT_4&#45;&#45;id_27660855_DOT_10</title>
<path fill="none" stroke="black" stroke-dasharray="1,5" d="M1090.59,-1847.44C1112.41,-1771.29 1164.03,-1591.11 1185.76,-1515.29"/>
<text text-anchor="middle" x="1111.92" y="-1684.17" font-family="Times,serif" font-size="14.00">0.770567</text>
</g>
<!-- id_27660855_DOT_5 -->
<g id="node5" class="node">
<title>id_27660855_DOT_5</title>
<polygon fill="brown" stroke="brown" points="1171.64,-2561.75 1177.19,-2561.94 1182.68,-2562.23 1188.1,-2562.62 1193.41,-2563.09 1198.6,-2563.66 1203.64,-2564.33 1208.53,-2565.08 1213.23,-2565.91 1217.73,-2566.84 1222.01,-2567.84 1226.07,-2568.93 1229.88,-2570.09 1233.44,-2571.32 1236.73,-2572.63 1239.74,-2574 1242.47,-2575.43 1244.91,-2576.93 1247.06,-2578.47 1248.92,-2580.07 1250.47,-2581.72 1251.73,-2583.4 1252.7,-2585.12 1253.37,-2586.88 1253.76,-2588.66 1253.86,-2590.47 1253.69,-2592.29 1253.25,-2594.13 1252.55,-2595.97 1251.61,-2597.81 1250.42,-2599.66 1249.01,-2601.49 1247.39,-2603.31 1245.56,-2605.12 1243.53,-2606.9 1241.33,-2608.66 1238.96,-2610.38 1236.44,-2612.06 1233.77,-2613.71 1230.97,-2615.31 1228.05,-2616.85 1225.03,-2618.35 1221.9,-2619.78 1218.69,-2621.15 1215.4,-2622.46 1212.04,-2623.69 1208.62,-2624.85 1205.15,-2625.94 1201.64,-2626.94 1198.08,-2627.87 1194.49,-2628.7 1190.87,-2629.45 1187.23,-2630.12 1183.57,-2630.69 1179.9,-2631.16 1176.21,-2631.55 1172.52,-2631.84 1168.81,-2632.03 1165.11,-2632.13 1161.4,-2632.13 1157.7,-2632.03 1153.99,-2631.84 1150.3,-2631.55 1146.61,-2631.16 1142.94,-2630.69 1139.28,-2630.12 1135.64,-2629.45 1132.02,-2628.7 1128.43,-2627.87 1124.87,-2626.94 1121.36,-2625.94 1117.89,-2624.85 1114.47,-2623.69 1111.11,-2622.46 1107.82,-2621.15 1104.61,-2619.78 1101.48,-2618.35 1098.46,-2616.85 1095.54,-2615.31 1092.74,-2613.71 1090.07,-2612.06 1087.55,-2610.38 1085.18,-2608.66 1082.98,-2606.9 1080.95,-2605.12 1079.12,-2603.31 1077.5,-2601.49 1076.09,-2599.66 1074.9,-2597.81 1073.96,-2595.97 1073.26,-2594.13 1072.82,-2592.29 1072.65,-2590.47 1072.75,-2588.66 1073.14,-2586.88 1073.81,-2585.12 1074.78,-2583.4 1076.04,-2581.72 1077.59,-2580.07 1079.45,-2578.47 1081.6,-2576.93 1084.04,-2575.43 1086.77,-2574 1089.78,-2572.63 1093.07,-2571.32 1096.63,-2570.09 1100.44,-2568.93 1104.5,-2567.84 1108.78,-2566.84 1113.28,-2565.91 1117.98,-2565.08 1122.87,-2564.33 1127.91,-2563.66 1133.1,-2563.09 1138.41,-2562.62 1143.83,-2562.23 1149.32,-2561.94 1154.87,-2561.75 1160.46,-2561.66 1166.05,-2561.66 1171.64,-2561.75"/>
<text text-anchor="start" x="1134.09" y="-2606.69" font-family="Times,serif" font-size="14.00">C3537152</text>
<text text-anchor="start" x="1110.96" y="-2592.69" font-family="Times,serif" font-size="14.00">Aberrant signaling</text>
<text text-anchor="start" x="1147.57" y="-2578.69" font-family="Times,serif" font-size="14.00">11:12</text>
</g>
<!-- id_27660855_DOT_5&#45;&#45;id_27660855_DOT_8 -->
<g id="edge12" class="edge">
<title>id_27660855_DOT_5&#45;&#45;id_27660855_DOT_8</title>
<path fill="none" stroke="black" stroke-dasharray="1,5" d="M1139.2,-2562.47C1094.54,-2498.58 999.33,-2362.35 954.51,-2298.23"/>
<text text-anchor="middle" x="1020.61" y="-2433.15" font-family="Times,serif" font-size="14.00">0.671827</text>
</g>
<!-- id_27660855_DOT_19 -->
<g id="node19" class="node">
<title>id_27660855_DOT_19</title>
<polygon fill="coral" stroke="coral" points="2358.82,-1297.72 2364.67,-1297.91 2370.46,-1298.2 2376.16,-1298.58 2381.76,-1299.06 2387.23,-1299.63 2392.54,-1300.29 2397.69,-1301.04 2402.64,-1301.88 2407.38,-1302.8 2411.9,-1303.81 2416.17,-1304.89 2420.19,-1306.05 2423.94,-1307.29 2427.4,-1308.59 2430.58,-1309.96 2433.46,-1311.4 2436.03,-1312.89 2438.3,-1314.44 2440.25,-1316.04 2441.89,-1317.68 2443.22,-1319.37 2444.23,-1321.09 2444.94,-1322.84 2445.35,-1324.63 2445.46,-1326.43 2445.28,-1328.25 2444.81,-1330.09 2444.08,-1331.93 2443.08,-1333.78 2441.84,-1335.62 2440.35,-1337.46 2438.64,-1339.28 2436.71,-1341.08 2434.58,-1342.87 2432.26,-1344.62 2429.76,-1346.34 2427.1,-1348.03 2424.29,-1349.67 2421.34,-1351.27 2418.26,-1352.82 2415.07,-1354.31 2411.78,-1355.75 2408.4,-1357.12 2404.93,-1358.42 2401.39,-1359.66 2397.79,-1360.82 2394.13,-1361.9 2390.43,-1362.91 2386.68,-1363.83 2382.9,-1364.67 2379.09,-1365.42 2375.25,-1366.08 2371.39,-1366.65 2367.52,-1367.13 2363.64,-1367.51 2359.74,-1367.8 2355.84,-1367.99 2351.94,-1368.09 2348.03,-1368.09 2344.13,-1367.99 2340.23,-1367.8 2336.33,-1367.51 2332.45,-1367.13 2328.57,-1366.65 2324.72,-1366.08 2320.88,-1365.42 2317.07,-1364.67 2313.29,-1363.83 2309.54,-1362.91 2305.83,-1361.9 2302.18,-1360.82 2298.57,-1359.66 2295.04,-1358.42 2291.57,-1357.12 2288.19,-1355.75 2284.89,-1354.31 2281.7,-1352.82 2278.63,-1351.27 2275.68,-1349.67 2272.87,-1348.03 2270.21,-1346.34 2267.71,-1344.62 2265.39,-1342.87 2263.26,-1341.08 2261.33,-1339.28 2259.62,-1337.46 2258.13,-1335.62 2256.88,-1333.78 2255.89,-1331.93 2255.15,-1330.09 2254.69,-1328.25 2254.51,-1326.43 2254.62,-1324.63 2255.03,-1322.84 2255.74,-1321.09 2256.75,-1319.37 2258.08,-1317.68 2259.72,-1316.04 2261.67,-1314.44 2263.94,-1312.89 2266.51,-1311.4 2269.39,-1309.96 2272.56,-1308.59 2276.03,-1307.29 2279.78,-1306.05 2283.79,-1304.89 2288.07,-1303.81 2292.58,-1302.8 2297.33,-1301.88 2302.28,-1301.04 2307.42,-1300.29 2312.74,-1299.63 2318.21,-1299.06 2323.81,-1298.58 2329.51,-1298.2 2335.3,-1297.91 2341.15,-1297.72 2347.03,-1297.62 2352.93,-1297.62 2358.82,-1297.72"/>
<text text-anchor="start" x="2320.81" y="-1342.65" font-family="Times,serif" font-size="14.00">C0003873</text>
<text text-anchor="start" x="2294.58" y="-1328.65" font-family="Times,serif" font-size="14.00">rheumatoid arthritis</text>
<text text-anchor="start" x="2334.04" y="-1314.65" font-family="Times,serif" font-size="14.00">84:85</text>
</g>
<!-- id_27660855_DOT_6&#45;&#45;id_27660855_DOT_19 -->
<g id="edge13" class="edge">
<title>id_27660855_DOT_6&#45;&#45;id_27660855_DOT_19</title>
<path fill="none" stroke="black" stroke-dasharray="1,5" d="M2582.82,-1340.18C2535.38,-1338.69 2484.13,-1337.07 2441.82,-1335.74"/>
<text text-anchor="middle" x="2486.07" y="-1340.76" font-family="Times,serif" font-size="14.00">1.051042</text>
</g>
<!-- id_27660855_DOT_7 -->
<g id="node7" class="node">
<title>id_27660855_DOT_7</title>
<polygon fill="cadetblue" stroke="cadetblue" points="295.01,-2666.82 298.74,-2667.02 302.42,-2667.31 306.06,-2667.69 309.62,-2668.17 313.1,-2668.74 316.49,-2669.4 319.77,-2670.15 322.92,-2670.99 325.94,-2671.91 328.82,-2672.92 331.54,-2674 334.1,-2675.16 336.49,-2676.4 338.69,-2677.7 340.72,-2679.07 342.55,-2680.51 344.19,-2682 345.63,-2683.55 346.87,-2685.15 347.92,-2686.79 348.76,-2688.48 349.41,-2690.2 349.86,-2691.95 350.12,-2693.74 350.19,-2695.54 350.08,-2697.36 349.78,-2699.2 349.31,-2701.04 348.68,-2702.89 347.89,-2704.73 346.94,-2706.56 345.85,-2708.39 344.62,-2710.19 343.26,-2711.97 341.78,-2713.73 340.19,-2715.45 338.5,-2717.14 336.71,-2718.78 334.83,-2720.38 332.87,-2721.93 330.84,-2723.42 328.74,-2724.86 326.59,-2726.23 324.38,-2727.53 322.13,-2728.77 319.83,-2729.93 317.5,-2731.01 315.14,-2732.02 312.76,-2732.94 310.35,-2733.78 307.92,-2734.53 305.48,-2735.19 303.02,-2735.76 300.55,-2736.24 298.08,-2736.62 295.6,-2736.91 293.12,-2737.1 290.63,-2737.2 288.14,-2737.2 285.65,-2737.1 283.17,-2736.91 280.69,-2736.62 278.22,-2736.24 275.75,-2735.76 273.29,-2735.19 270.85,-2734.53 268.42,-2733.78 266.01,-2732.94 263.63,-2732.02 261.27,-2731.01 258.94,-2729.93 256.64,-2728.77 254.39,-2727.53 252.18,-2726.23 250.03,-2724.86 247.93,-2723.42 245.9,-2721.93 243.94,-2720.38 242.06,-2718.78 240.27,-2717.14 238.58,-2715.45 236.99,-2713.73 235.51,-2711.97 234.15,-2710.19 232.92,-2708.39 231.83,-2706.56 230.89,-2704.73 230.09,-2702.89 229.46,-2701.04 228.99,-2699.2 228.7,-2697.36 228.58,-2695.54 228.65,-2693.74 228.91,-2691.95 229.36,-2690.2 230.01,-2688.48 230.85,-2686.79 231.9,-2685.15 233.14,-2683.55 234.58,-2682 236.22,-2680.51 238.06,-2679.07 240.08,-2677.7 242.29,-2676.4 244.67,-2675.16 247.23,-2674 249.95,-2672.92 252.83,-2671.91 255.85,-2670.99 259,-2670.15 262.28,-2669.4 265.67,-2668.74 269.15,-2668.17 272.71,-2667.69 276.35,-2667.31 280.03,-2667.02 283.76,-2666.82 287.51,-2666.73 291.26,-2666.73 295.01,-2666.82"/>
<text text-anchor="start" x="260.22" y="-2711.76" font-family="Times,serif" font-size="14.00">C0677042</text>
<text text-anchor="start" x="257.11" y="-2697.76" font-family="Times,serif" font-size="14.00">pathologies</text>
<text text-anchor="start" x="273.44" y="-2683.76" font-family="Times,serif" font-size="14.00">21:21</text>
</g>
<!-- id_27660855_DOT_15 -->
<g id="node15" class="node">
<title>id_27660855_DOT_15</title>
<polygon fill="darkgreen" stroke="darkgreen" points="61.16,-2953.69 64.58,-2953.88 67.98,-2954.17 71.32,-2954.56 74.6,-2955.03 77.81,-2955.6 80.92,-2956.27 83.94,-2957.02 86.84,-2957.85 89.62,-2958.78 92.27,-2959.78 94.77,-2960.87 97.13,-2962.03 99.32,-2963.26 101.35,-2964.57 103.22,-2965.94 104.9,-2967.37 106.41,-2968.87 107.74,-2970.41 108.88,-2972.01 109.84,-2973.66 110.62,-2975.34 111.22,-2977.06 111.63,-2978.82 111.87,-2980.6 111.93,-2982.41 111.83,-2984.23 111.56,-2986.06 111.13,-2987.91 110.54,-2989.75 109.81,-2991.6 108.94,-2993.43 107.94,-2995.25 106.81,-2997.06 105.56,-2998.84 104.2,-3000.6 102.73,-3002.32 101.18,-3004 99.53,-3005.65 97.8,-3007.25 96,-3008.79 94.13,-3010.29 92.2,-3011.72 90.22,-3013.09 88.18,-3014.4 86.11,-3015.63 84,-3016.79 81.85,-3017.88 79.68,-3018.88 77.49,-3019.81 75.27,-3020.64 73.04,-3021.39 70.79,-3022.06 68.53,-3022.63 66.26,-3023.1 63.98,-3023.49 61.7,-3023.78 59.41,-3023.97 57.12,-3024.07 54.83,-3024.07 52.55,-3023.97 50.26,-3023.78 47.98,-3023.49 45.7,-3023.1 43.43,-3022.63 41.17,-3022.06 38.92,-3021.39 36.69,-3020.64 34.47,-3019.81 32.27,-3018.88 30.1,-3017.88 27.96,-3016.79 25.85,-3015.63 23.77,-3014.4 21.74,-3013.09 19.76,-3011.72 17.83,-3010.29 15.96,-3008.79 14.16,-3007.25 12.43,-3005.65 10.78,-3004 9.22,-3002.32 7.76,-3000.6 6.4,-2998.84 5.15,-2997.06 4.02,-2995.25 3.01,-2993.43 2.14,-2991.6 1.41,-2989.75 0.83,-2987.91 0.4,-2986.06 0.13,-2984.23 0.02,-2982.41 0.09,-2980.6 0.32,-2978.82 0.74,-2977.06 1.34,-2975.34 2.11,-2973.66 3.07,-2972.01 4.22,-2970.41 5.55,-2968.87 7.05,-2967.37 8.74,-2965.94 10.6,-2964.57 12.63,-2963.26 14.83,-2962.03 17.18,-2960.87 19.69,-2959.78 22.34,-2958.78 25.12,-2957.85 28.02,-2957.02 31.03,-2956.27 34.15,-2955.6 37.35,-2955.03 40.64,-2954.56 43.98,-2954.17 47.37,-2953.88 50.8,-2953.69 54.25,-2953.59 57.71,-2953.59 61.16,-2953.69"/>
<text text-anchor="start" x="26.81" y="-2998.63" font-family="Times,serif" font-size="14.00">C1254351</text>
<text text-anchor="start" x="48.98" y="-2984.63" font-family="Times,serif" font-size="14.00">35</text>
<text text-anchor="start" x="40.03" y="-2970.63" font-family="Times,serif" font-size="14.00">61:61</text>
</g>
<!-- id_27660855_DOT_7&#45;&#45;id_27660855_DOT_15 -->
<g id="edge14" class="edge">
<title>id_27660855_DOT_7&#45;&#45;id_27660855_DOT_15</title>
<path fill="none" stroke="black" stroke-dasharray="1,5" d="M264.41,-2732.66C220.07,-2787.15 128.02,-2900.29 82.56,-2956.16"/>
<text text-anchor="middle" x="147.23" y="-2847.21" font-family="Times,serif" font-size="14.00">0.970720</text>
</g>
<!-- id_27660855_DOT_18 -->
<g id="node18" class="node">
<title>id_27660855_DOT_18</title>
<polygon fill="darkkhaki" stroke="darkkhaki" points="580.05,-2415.98 584.22,-2416.18 588.33,-2416.47 592.39,-2416.85 596.38,-2417.33 600.27,-2417.9 604.05,-2418.56 607.71,-2419.31 611.24,-2420.15 614.61,-2421.07 617.82,-2422.07 620.86,-2423.16 623.72,-2424.32 626.39,-2425.56 628.86,-2426.86 631.12,-2428.23 633.16,-2429.67 634.99,-2431.16 636.61,-2432.71 638,-2434.3 639.16,-2435.95 640.11,-2437.63 640.83,-2439.36 641.33,-2441.11 641.62,-2442.89 641.7,-2444.7 641.57,-2446.52 641.24,-2448.36 640.72,-2450.2 640.01,-2452.05 639.13,-2453.89 638.07,-2455.72 636.85,-2457.55 635.48,-2459.35 633.96,-2461.13 632.31,-2462.89 630.53,-2464.61 628.64,-2466.3 626.64,-2467.94 624.54,-2469.54 622.35,-2471.09 620.08,-2472.58 617.74,-2474.01 615.33,-2475.39 612.87,-2476.69 610.35,-2477.93 607.78,-2479.09 605.18,-2480.17 602.54,-2481.18 599.88,-2482.1 597.19,-2482.94 594.47,-2483.69 591.75,-2484.35 589,-2484.92 586.25,-2485.4 583.48,-2485.78 580.71,-2486.07 577.93,-2486.26 575.16,-2486.36 572.38,-2486.36 569.6,-2486.26 566.82,-2486.07 564.05,-2485.78 561.29,-2485.4 558.53,-2484.92 555.79,-2484.35 553.06,-2483.69 550.35,-2482.94 547.66,-2482.1 544.99,-2481.18 542.35,-2480.17 539.75,-2479.09 537.19,-2477.93 534.67,-2476.69 532.2,-2475.39 529.79,-2474.01 527.45,-2472.58 525.18,-2471.09 522.99,-2469.54 520.9,-2467.94 518.9,-2466.3 517,-2464.61 515.23,-2462.89 513.57,-2461.13 512.06,-2459.35 510.69,-2457.55 509.47,-2455.72 508.41,-2453.89 507.52,-2452.05 506.81,-2450.2 506.29,-2448.36 505.96,-2446.52 505.83,-2444.7 505.91,-2442.89 506.2,-2441.11 506.7,-2439.36 507.43,-2437.63 508.37,-2435.95 509.54,-2434.3 510.93,-2432.71 512.54,-2431.16 514.37,-2429.67 516.42,-2428.23 518.68,-2426.86 521.14,-2425.56 523.81,-2424.32 526.67,-2423.16 529.71,-2422.07 532.92,-2421.07 536.3,-2420.15 539.82,-2419.31 543.48,-2418.56 547.27,-2417.9 551.16,-2417.33 555.14,-2416.85 559.2,-2416.47 563.32,-2416.18 567.48,-2415.98 571.67,-2415.89 575.87,-2415.89 580.05,-2415.98"/>
<text text-anchor="start" x="544.6" y="-2460.92" font-family="Times,serif" font-size="14.00">C1519106</text>
<text text-anchor="start" x="536.64" y="-2446.92" font-family="Times,serif" font-size="14.00">rodent model</text>
<text text-anchor="start" x="557.82" y="-2432.92" font-family="Times,serif" font-size="14.00">81:82</text>
</g>
<!-- id_27660855_DOT_7&#45;&#45;id_27660855_DOT_18 -->
<g id="edge15" class="edge">
<title>id_27660855_DOT_7&#45;&#45;id_27660855_DOT_18</title>
<path fill="none" stroke="black" stroke-dasharray="1,5" d="M324.26,-2671.21C379.73,-2622.28 487.29,-2527.4 541.25,-2479.81"/>
<text text-anchor="middle" x="406.5" y="-2578.31" font-family="Times,serif" font-size="14.00">0.826036</text>
</g>
<!-- id_27660855_DOT_8&#45;&#45;id_27660855_DOT_18 -->
<g id="edge16" class="edge">
<title>id_27660855_DOT_8&#45;&#45;id_27660855_DOT_18</title>
<path fill="none" stroke="black" stroke-dasharray="1,5" d="M873.36,-2293.43C804.66,-2329.59 690.15,-2389.86 624.39,-2424.48"/>
<text text-anchor="middle" x="722.62" y="-2361.75" font-family="Times,serif" font-size="14.00">0.785139</text>
</g>
<!-- id_27660855_DOT_9&#45;&#45;id_27660855_DOT_19 -->
<g id="edge4" class="edge">
<title>id_27660855_DOT_9&#45;&#45;id_27660855_DOT_19</title>
<path fill="none" stroke="black" d="M2047.57,-1310.43C2109.22,-1315 2191.3,-1321.09 2254.39,-1325.76"/>
<text text-anchor="middle" x="2124.73" y="-1320.9" font-family="Times,serif" font-size="14.00">0.003550</text>
</g>
<!-- id_27660855_DOT_12 -->
<g id="node12" class="node">
<title>id_27660855_DOT_12</title>
<polygon fill="darkgoldenrod" stroke="darkgoldenrod" points="838.87,-1243.33 845.02,-1243.52 851.11,-1243.81 857.11,-1244.2 863,-1244.67 868.75,-1245.25 874.34,-1245.91 879.75,-1246.66 884.96,-1247.49 889.95,-1248.42 894.7,-1249.42 899.2,-1250.51 903.42,-1251.67 907.36,-1252.9 911.01,-1254.21 914.35,-1255.58 917.38,-1257.01 920.08,-1258.51 922.47,-1260.05 924.52,-1261.65 926.25,-1263.3 927.64,-1264.98 928.71,-1266.71 929.46,-1268.46 929.89,-1270.24 930,-1272.05 929.81,-1273.87 929.32,-1275.71 928.55,-1277.55 927.5,-1279.39 926.19,-1281.24 924.63,-1283.07 922.83,-1284.89 920.8,-1286.7 918.55,-1288.48 916.11,-1290.24 913.49,-1291.96 910.69,-1293.65 907.73,-1295.29 904.63,-1296.89 901.4,-1298.44 898.04,-1299.93 894.58,-1301.36 891.02,-1302.73 887.37,-1304.04 883.65,-1305.27 879.86,-1306.43 876.01,-1307.52 872.11,-1308.52 868.17,-1309.45 864.19,-1310.28 860.18,-1311.04 856.15,-1311.7 852.09,-1312.27 848.02,-1312.74 843.93,-1313.13 839.84,-1313.42 835.73,-1313.61 831.63,-1313.71 827.52,-1313.71 823.41,-1313.61 819.31,-1313.42 815.21,-1313.13 811.12,-1312.74 807.05,-1312.27 802.99,-1311.7 798.96,-1311.04 794.95,-1310.28 790.97,-1309.45 787.03,-1308.52 783.13,-1307.52 779.28,-1306.43 775.49,-1305.27 771.77,-1304.04 768.13,-1302.73 764.57,-1301.36 761.1,-1299.93 757.75,-1298.44 754.51,-1296.89 751.41,-1295.29 748.45,-1293.65 745.66,-1291.96 743.03,-1290.24 740.59,-1288.48 738.35,-1286.7 736.32,-1284.89 734.51,-1283.07 732.95,-1281.24 731.64,-1279.39 730.59,-1277.55 729.82,-1275.71 729.33,-1273.87 729.14,-1272.05 729.26,-1270.24 729.69,-1268.46 730.43,-1266.71 731.5,-1264.98 732.9,-1263.3 734.62,-1261.65 736.68,-1260.05 739.06,-1258.51 741.77,-1257.01 744.79,-1255.58 748.13,-1254.21 751.78,-1252.9 755.72,-1251.67 759.95,-1250.51 764.44,-1249.42 769.19,-1248.42 774.18,-1247.49 779.39,-1246.66 784.8,-1245.91 790.4,-1245.25 796.15,-1244.67 802.04,-1244.2 808.04,-1243.81 814.13,-1243.52 820.28,-1243.33 826.47,-1243.24 832.67,-1243.24 838.87,-1243.33"/>
<text text-anchor="start" x="800.4" y="-1288.27" font-family="Times,serif" font-size="14.00">C0576798</text>
<text text-anchor="start" x="770.86" y="-1274.27" font-family="Times,serif" font-size="14.00">pyridine &#45; containing</text>
<text text-anchor="start" x="813.63" y="-1260.27" font-family="Times,serif" font-size="14.00">47:49</text>
</g>
<!-- id_27660855_DOT_10&#45;&#45;id_27660855_DOT_12 -->
<g id="edge17" class="edge">
<title>id_27660855_DOT_10&#45;&#45;id_27660855_DOT_12</title>
<path fill="none" stroke="black" stroke-dasharray="1,5" d="M1150.77,-1455.91C1082.23,-1418.05 951.89,-1346.04 880.12,-1306.39"/>
<text text-anchor="middle" x="989.45" y="-1383.95" font-family="Times,serif" font-size="14.00">0.711358</text>
</g>
<!-- id_27660855_DOT_11 -->
<g id="node11" class="node">
<title>id_27660855_DOT_11</title>
<polygon fill="crimson" stroke="crimson" points="488.48,-1051.47 491.9,-1051.66 495.3,-1051.95 498.64,-1052.33 501.92,-1052.81 505.12,-1053.38 508.24,-1054.04 511.26,-1054.79 514.16,-1055.63 516.94,-1056.55 519.59,-1057.56 522.09,-1058.64 524.44,-1059.81 526.64,-1061.04 528.67,-1062.34 530.53,-1063.72 532.22,-1065.15 533.73,-1066.64 535.06,-1068.19 536.2,-1069.79 537.16,-1071.43 537.94,-1073.12 538.54,-1074.84 538.95,-1076.6 539.19,-1078.38 539.25,-1080.18 539.15,-1082.01 538.88,-1083.84 538.45,-1085.68 537.86,-1087.53 537.13,-1089.37 536.26,-1091.21 535.26,-1093.03 534.13,-1094.84 532.88,-1096.62 531.52,-1098.37 530.05,-1100.1 528.49,-1101.78 526.85,-1103.43 525.12,-1105.02 523.32,-1106.57 521.45,-1108.06 519.52,-1109.5 517.53,-1110.87 515.5,-1112.18 513.43,-1113.41 511.32,-1114.57 509.17,-1115.66 507,-1116.66 504.8,-1117.58 502.59,-1118.42 500.35,-1119.17 498.11,-1119.83 495.85,-1120.4 493.58,-1120.88 491.3,-1121.26 489.02,-1121.55 486.73,-1121.75 484.44,-1121.84 482.15,-1121.84 479.86,-1121.75 477.58,-1121.55 475.3,-1121.26 473.02,-1120.88 470.75,-1120.4 468.49,-1119.83 466.24,-1119.17 464.01,-1118.42 461.79,-1117.58 459.59,-1116.66 457.42,-1115.66 455.28,-1114.57 453.17,-1113.41 451.09,-1112.18 449.06,-1110.87 447.08,-1109.5 445.15,-1108.06 443.28,-1106.57 441.48,-1105.02 439.75,-1103.43 438.1,-1101.78 436.54,-1100.1 435.08,-1098.37 433.72,-1096.62 432.47,-1094.84 431.34,-1093.03 430.33,-1091.21 429.46,-1089.37 428.73,-1087.53 428.15,-1085.68 427.72,-1083.84 427.45,-1082.01 427.34,-1080.18 427.4,-1078.38 427.64,-1076.6 428.06,-1074.84 428.65,-1073.12 429.43,-1071.43 430.39,-1069.79 431.54,-1068.19 432.87,-1066.64 434.37,-1065.15 436.06,-1063.72 437.92,-1062.34 439.95,-1061.04 442.15,-1059.81 444.5,-1058.64 447.01,-1057.56 449.65,-1056.55 452.43,-1055.63 455.34,-1054.79 458.35,-1054.04 461.47,-1053.38 464.67,-1052.81 467.95,-1052.33 471.3,-1051.95 474.69,-1051.66 478.12,-1051.47 481.57,-1051.37 485.03,-1051.37 488.48,-1051.47"/>
<text text-anchor="start" x="454.13" y="-1096.41" font-family="Times,serif" font-size="14.00">C0220825</text>
<text text-anchor="start" x="454.14" y="-1082.41" font-family="Times,serif" font-size="14.00">evaluation</text>
<text text-anchor="start" x="467.35" y="-1068.41" font-family="Times,serif" font-size="14.00">41:41</text>
</g>
<!-- id_27660855_DOT_11&#45;&#45;id_27660855_DOT_12 -->
<g id="edge18" class="edge">
<title>id_27660855_DOT_11&#45;&#45;id_27660855_DOT_12</title>
<path fill="none" stroke="black" stroke-dasharray="1,5" d="M522.01,-1108.06C583.34,-1142.04 703.1,-1208.39 773.72,-1247.52"/>
<text text-anchor="middle" x="621.62" y="-1180.59" font-family="Times,serif" font-size="14.00">0.899472</text>
</g>
<!-- id_27660855_DOT_17 -->
<g id="node17" class="node">
<title>id_27660855_DOT_17</title>
<polygon fill="bisque" stroke="bisque" points="3833.93,-1160.96 3842.9,-1161.15 3851.77,-1161.44 3860.52,-1161.82 3869.1,-1162.3 3877.49,-1162.87 3885.64,-1163.53 3893.52,-1164.28 3901.12,-1165.12 3908.39,-1166.04 3915.31,-1167.05 3921.87,-1168.13 3928.02,-1169.29 3933.77,-1170.53 3939.08,-1171.83 3943.95,-1173.2 3948.36,-1174.64 3952.31,-1176.13 3955.78,-1177.68 3958.78,-1179.28 3961.29,-1180.92 3963.33,-1182.61 3964.88,-1184.33 3965.97,-1186.08 3966.59,-1187.87 3966.76,-1189.67 3966.48,-1191.49 3965.78,-1193.33 3964.65,-1195.17 3963.12,-1197.02 3961.21,-1198.86 3958.93,-1200.69 3956.3,-1202.52 3953.35,-1204.32 3950.08,-1206.1 3946.52,-1207.86 3942.69,-1209.58 3938.62,-1211.27 3934.31,-1212.91 3929.78,-1214.51 3925.07,-1216.06 3920.18,-1217.55 3915.13,-1218.99 3909.95,-1220.36 3904.63,-1221.66 3899.21,-1222.9 3893.68,-1224.06 3888.07,-1225.14 3882.39,-1226.15 3876.65,-1227.07 3870.85,-1227.91 3865,-1228.66 3859.12,-1229.32 3853.21,-1229.89 3847.27,-1230.37 3841.32,-1230.75 3835.35,-1231.04 3829.37,-1231.23 3823.38,-1231.33 3817.39,-1231.33 3811.41,-1231.23 3805.42,-1231.04 3799.45,-1230.75 3793.5,-1230.37 3787.56,-1229.89 3781.65,-1229.32 3775.77,-1228.66 3769.92,-1227.91 3764.12,-1227.07 3758.38,-1226.15 3752.7,-1225.14 3747.09,-1224.06 3741.57,-1222.9 3736.14,-1221.66 3730.83,-1220.36 3725.64,-1218.99 3720.59,-1217.55 3715.7,-1216.06 3710.99,-1214.51 3706.47,-1212.91 3702.16,-1211.27 3698.08,-1209.58 3694.25,-1207.86 3690.69,-1206.1 3687.43,-1204.32 3684.47,-1202.52 3681.84,-1200.69 3679.56,-1198.86 3677.65,-1197.02 3676.12,-1195.17 3675,-1193.33 3674.29,-1191.49 3674.01,-1189.67 3674.18,-1187.87 3674.8,-1186.08 3675.89,-1184.33 3677.45,-1182.61 3679.48,-1180.92 3682,-1179.28 3684.99,-1177.68 3688.46,-1176.13 3692.41,-1174.64 3696.82,-1173.2 3701.69,-1171.83 3707,-1170.53 3712.75,-1169.29 3718.91,-1168.13 3725.46,-1167.05 3732.38,-1166.04 3739.65,-1165.12 3747.25,-1164.28 3755.14,-1163.53 3763.29,-1162.87 3771.67,-1162.3 3780.25,-1161.82 3789,-1161.44 3797.87,-1161.15 3806.84,-1160.96 3815.86,-1160.86 3824.91,-1160.86 3833.93,-1160.96"/>
<text text-anchor="start" x="3791.47" y="-1205.89" font-family="Times,serif" font-size="14.00">C1450115</text>
<text text-anchor="start" x="3731.15" y="-1191.89" font-family="Times,serif" font-size="14.00">phosphoinositide&#45;3&#45;kinase delta</text>
<text text-anchor="start" x="3804.44" y="-1177.89" font-family="Times,serif" font-size="14.00">68:69</text>
</g>
<!-- id_27660855_DOT_13&#45;&#45;id_27660855_DOT_17 -->
<g id="edge5" class="edge">
<title>id_27660855_DOT_13&#45;&#45;id_27660855_DOT_17</title>
<path fill="none" stroke="black" d="M3566.2,-1270.73C3618.95,-1255.24 3683.53,-1236.28 3734.39,-1221.35"/>
<text text-anchor="middle" x="3624.05" y="-1248.84" font-family="Times,serif" font-size="14.00">0.003423</text>
</g>
<!-- id_27660855_DOT_14&#45;&#45;id_27660855_DOT_16 -->
<g id="edge6" class="edge">
<title>id_27660855_DOT_14&#45;&#45;id_27660855_DOT_16</title>
<path fill="none" stroke="black" d="M1500.52,-769.1C1490.3,-694.18 1466.57,-520.12 1456.38,-445.41"/>
<text text-anchor="middle" x="1452.2" y="-610.05" font-family="Times,serif" font-size="14.00">0.004193</text>
</g>
</g>
</svg>
