<?xml version="1.0" encoding="UTF-8" standalone="no"?>
<!DOCTYPE svg PUBLIC "-//W3C//DTD SVG 1.1//EN"
 "http://www.w3.org/Graphics/SVG/1.1/DTD/svg11.dtd">
<!-- Generated by graphviz version 2.42.3 (20191010.1750)
 -->
<!-- Title: MST Pages: 1 -->
<svg width="4401pt" height="5746pt"
 viewBox="0.00 0.00 4400.64 5746.41" xmlns="http://www.w3.org/2000/svg" xmlns:xlink="http://www.w3.org/1999/xlink">
<g id="graph0" class="graph" transform="scale(1 1) rotate(0) translate(4 5742.41)">
<title>MST</title>
<polygon fill="white" stroke="transparent" points="-4,4 -4,-5742.41 4396.64,-5742.41 4396.64,4 -4,4"/>
<!-- id_27665258_DOT_1 -->
<g id="node1" class="node">
<title>id_27665258_DOT_1</title>
<polygon fill="aquamarine" stroke="aquamarine" points="2146.47,-1660.93 2152.83,-1661.12 2159.13,-1661.41 2165.33,-1661.79 2171.42,-1662.27 2177.37,-1662.84 2183.16,-1663.5 2188.75,-1664.25 2194.14,-1665.09 2199.3,-1666.01 2204.21,-1667.02 2208.86,-1668.1 2213.23,-1669.26 2217.31,-1670.5 2221.08,-1671.8 2224.53,-1673.17 2227.66,-1674.61 2230.46,-1676.1 2232.93,-1677.65 2235.05,-1679.25 2236.84,-1680.89 2238.28,-1682.58 2239.39,-1684.3 2240.16,-1686.05 2240.6,-1687.84 2240.72,-1689.64 2240.52,-1691.46 2240.02,-1693.3 2239.22,-1695.14 2238.14,-1696.99 2236.78,-1698.83 2235.16,-1700.67 2233.3,-1702.49 2231.2,-1704.29 2228.88,-1706.08 2226.36,-1707.83 2223.64,-1709.55 2220.75,-1711.24 2217.69,-1712.88 2214.48,-1714.48 2211.14,-1716.03 2207.67,-1717.52 2204.09,-1718.96 2200.4,-1720.33 2196.63,-1721.63 2192.78,-1722.87 2188.86,-1724.03 2184.89,-1725.11 2180.85,-1726.12 2176.78,-1727.04 2172.66,-1727.88 2168.52,-1728.63 2164.34,-1729.29 2160.15,-1729.86 2155.93,-1730.34 2151.71,-1730.72 2147.47,-1731.01 2143.23,-1731.2 2138.98,-1731.3 2134.73,-1731.3 2130.48,-1731.2 2126.24,-1731.01 2122,-1730.72 2117.78,-1730.34 2113.56,-1729.86 2109.37,-1729.29 2105.2,-1728.63 2101.05,-1727.88 2096.93,-1727.04 2092.86,-1726.12 2088.83,-1725.11 2084.85,-1724.03 2080.93,-1722.87 2077.08,-1721.63 2073.31,-1720.33 2069.63,-1718.96 2066.04,-1717.52 2062.58,-1716.03 2059.23,-1714.48 2056.02,-1712.88 2052.96,-1711.24 2050.07,-1709.55 2047.35,-1707.83 2044.83,-1706.08 2042.51,-1704.29 2040.41,-1702.49 2038.55,-1700.67 2036.93,-1698.83 2035.57,-1696.99 2034.49,-1695.14 2033.69,-1693.3 2033.19,-1691.46 2032.99,-1689.64 2033.11,-1687.84 2033.55,-1686.05 2034.33,-1684.3 2035.43,-1682.58 2036.87,-1680.89 2038.66,-1679.25 2040.78,-1677.65 2043.25,-1676.1 2046.05,-1674.61 2049.18,-1673.17 2052.63,-1671.8 2056.4,-1670.5 2060.48,-1669.26 2064.85,-1668.1 2069.5,-1667.02 2074.41,-1666.01 2079.57,-1665.09 2084.96,-1664.25 2090.56,-1663.5 2096.34,-1662.84 2102.29,-1662.27 2108.38,-1661.79 2114.58,-1661.41 2120.88,-1661.12 2127.24,-1660.93 2133.65,-1660.83 2140.06,-1660.83 2146.47,-1660.93"/>
<text text-anchor="start" x="2107.69" y="-1705.86" font-family="Times,serif" font-size="14.00">C0233514</text>
<text text-anchor="start" x="2076.01" y="-1691.86" font-family="Times,serif" font-size="14.00">behavioural problems</text>
<text text-anchor="start" x="2127.91" y="-1677.86" font-family="Times,serif" font-size="14.00">4:5</text>
</g>
<!-- id_27665258_DOT_5 -->
<g id="node5" class="node">
<title>id_27665258_DOT_5</title>
<polygon fill="aquamarine" stroke="aquamarine" points="2448.62,-1374.29 2454.98,-1374.49 2461.28,-1374.77 2467.49,-1375.16 2473.57,-1375.64 2479.52,-1376.21 2485.31,-1376.87 2490.9,-1377.62 2496.29,-1378.46 2501.45,-1379.38 2506.36,-1380.38 2511.01,-1381.47 2515.38,-1382.63 2519.46,-1383.86 2523.23,-1385.17 2526.69,-1386.54 2529.82,-1387.97 2532.62,-1389.47 2535.08,-1391.02 2537.2,-1392.61 2538.99,-1394.26 2540.43,-1395.94 2541.54,-1397.67 2542.31,-1399.42 2542.75,-1401.2 2542.87,-1403.01 2542.67,-1404.83 2542.17,-1406.67 2541.37,-1408.51 2540.29,-1410.35 2538.93,-1412.2 2537.32,-1414.03 2535.45,-1415.86 2533.35,-1417.66 2531.03,-1419.44 2528.51,-1421.2 2525.79,-1422.92 2522.9,-1424.61 2519.84,-1426.25 2516.63,-1427.85 2513.29,-1429.4 2509.82,-1430.89 2506.24,-1432.32 2502.56,-1433.69 2498.78,-1435 2494.94,-1436.23 2491.02,-1437.4 2487.04,-1438.48 2483,-1439.49 2478.93,-1440.41 2474.81,-1441.25 2470.67,-1442 2466.49,-1442.66 2462.3,-1443.23 2458.09,-1443.71 2453.86,-1444.09 2449.62,-1444.38 2445.38,-1444.57 2441.13,-1444.67 2436.88,-1444.67 2432.63,-1444.57 2428.39,-1444.38 2424.15,-1444.09 2419.93,-1443.71 2415.72,-1443.23 2411.52,-1442.66 2407.35,-1442 2403.2,-1441.25 2399.09,-1440.41 2395.01,-1439.49 2390.98,-1438.48 2387,-1437.4 2383.08,-1436.23 2379.23,-1435 2375.46,-1433.69 2371.78,-1432.32 2368.2,-1430.89 2364.73,-1429.4 2361.38,-1427.85 2358.17,-1426.25 2355.12,-1424.61 2352.22,-1422.92 2349.51,-1421.2 2346.98,-1419.44 2344.66,-1417.66 2342.56,-1415.86 2340.7,-1414.03 2339.08,-1412.2 2337.73,-1410.35 2336.64,-1408.51 2335.84,-1406.67 2335.34,-1404.83 2335.14,-1403.01 2335.26,-1401.2 2335.71,-1399.42 2336.48,-1397.67 2337.58,-1395.94 2339.03,-1394.26 2340.81,-1392.61 2342.93,-1391.02 2345.4,-1389.47 2348.2,-1387.97 2351.33,-1386.54 2354.78,-1385.17 2358.55,-1383.86 2362.63,-1382.63 2367,-1381.47 2371.65,-1380.38 2376.56,-1379.38 2381.72,-1378.46 2387.11,-1377.62 2392.71,-1376.87 2398.49,-1376.21 2404.44,-1375.64 2410.53,-1375.16 2416.74,-1374.77 2423.03,-1374.49 2429.4,-1374.29 2435.8,-1374.2 2442.22,-1374.2 2448.62,-1374.29"/>
<text text-anchor="start" x="2409.84" y="-1419.23" font-family="Times,serif" font-size="14.00">C0233514</text>
<text text-anchor="start" x="2378.16" y="-1405.23" font-family="Times,serif" font-size="14.00">behavioural problems</text>
<text text-anchor="start" x="2423.06" y="-1391.23" font-family="Times,serif" font-size="14.00">42:43</text>
</g>
<!-- id_27665258_DOT_1&#45;&#45;id_27665258_DOT_5 -->
<g id="edge1" class="edge">
<title>id_27665258_DOT_1&#45;&#45;id_27665258_DOT_5</title>
<path fill="none" stroke="black" d="M2172.41,-1662.34C2231.06,-1606.7 2347.35,-1496.39 2404.98,-1441.71"/>
<text text-anchor="middle" x="2262.44" y="-1554.82" font-family="Times,serif" font-size="14.00">0.000779</text>
</g>
<!-- id_27665258_DOT_8 -->
<g id="node8" class="node">
<title>id_27665258_DOT_8</title>
<polygon fill="aquamarine" stroke="aquamarine" points="1789.2,-1905.91 1795.65,-1906.1 1802.04,-1906.39 1808.34,-1906.77 1814.52,-1907.25 1820.55,-1907.82 1826.42,-1908.48 1832.1,-1909.23 1837.57,-1910.07 1842.8,-1910.99 1847.79,-1912 1852.51,-1913.08 1856.94,-1914.24 1861.07,-1915.48 1864.9,-1916.78 1868.41,-1918.15 1871.58,-1919.59 1874.42,-1921.08 1876.92,-1922.63 1879.08,-1924.23 1880.89,-1925.87 1882.35,-1927.56 1883.48,-1929.28 1884.26,-1931.03 1884.71,-1932.82 1884.83,-1934.62 1884.63,-1936.44 1884.12,-1938.28 1883.31,-1940.12 1882.21,-1941.97 1880.83,-1943.81 1879.19,-1945.65 1877.3,-1947.47 1875.17,-1949.27 1872.82,-1951.06 1870.26,-1952.81 1867.5,-1954.53 1864.56,-1956.22 1861.46,-1957.86 1858.21,-1959.46 1854.81,-1961.01 1851.29,-1962.5 1847.66,-1963.94 1843.92,-1965.31 1840.1,-1966.61 1836.19,-1967.85 1832.21,-1969.01 1828.18,-1970.09 1824.09,-1971.1 1819.95,-1972.02 1815.78,-1972.86 1811.57,-1973.61 1807.33,-1974.27 1803.08,-1974.84 1798.8,-1975.32 1794.51,-1975.7 1790.22,-1975.99 1785.91,-1976.18 1781.6,-1976.28 1777.29,-1976.28 1772.98,-1976.18 1768.67,-1975.99 1764.37,-1975.7 1760.09,-1975.32 1755.81,-1974.84 1751.56,-1974.27 1747.32,-1973.61 1743.11,-1972.86 1738.94,-1972.02 1734.8,-1971.1 1730.71,-1970.09 1726.67,-1969.01 1722.7,-1967.85 1718.79,-1966.61 1714.97,-1965.31 1711.23,-1963.94 1707.6,-1962.5 1704.08,-1961.01 1700.68,-1959.46 1697.43,-1957.86 1694.32,-1956.22 1691.39,-1954.53 1688.63,-1952.81 1686.07,-1951.06 1683.72,-1949.27 1681.59,-1947.47 1679.7,-1945.65 1678.06,-1943.81 1676.68,-1941.97 1675.58,-1940.12 1674.77,-1938.28 1674.26,-1936.44 1674.06,-1934.62 1674.18,-1932.82 1674.63,-1931.03 1675.41,-1929.28 1676.53,-1927.56 1678,-1925.87 1679.81,-1924.23 1681.97,-1922.63 1684.47,-1921.08 1687.31,-1919.59 1690.48,-1918.15 1693.99,-1916.78 1697.81,-1915.48 1701.95,-1914.24 1706.38,-1913.08 1711.1,-1912 1716.09,-1910.99 1721.32,-1910.07 1726.79,-1909.23 1732.47,-1908.48 1738.34,-1907.82 1744.37,-1907.25 1750.55,-1906.77 1756.85,-1906.39 1763.24,-1906.1 1769.69,-1905.91 1776.19,-1905.81 1782.7,-1905.81 1789.2,-1905.91"/>
<text text-anchor="start" x="1750.28" y="-1950.85" font-family="Times,serif" font-size="14.00">C0233514</text>
<text text-anchor="start" x="1717.43" y="-1936.85" font-family="Times,serif" font-size="14.00">Behavioural problems</text>
<text text-anchor="start" x="1763.5" y="-1922.85" font-family="Times,serif" font-size="14.00">73:74</text>
</g>
<!-- id_27665258_DOT_1&#45;&#45;id_27665258_DOT_8 -->
<g id="edge2" class="edge">
<title>id_27665258_DOT_1&#45;&#45;id_27665258_DOT_8</title>
<path fill="none" stroke="black" d="M2092.67,-1726.35C2025.06,-1772.69 1896.48,-1860.83 1826.94,-1908.49"/>
<text text-anchor="middle" x="1933.55" y="-1820.22" font-family="Times,serif" font-size="14.00">0.010252</text>
</g>
<!-- id_27665258_DOT_2 -->
<g id="node2" class="node">
<title>id_27665258_DOT_2</title>
<polygon fill="bisque" stroke="bisque" points="1270.86,-1252.08 1275.11,-1252.27 1279.31,-1252.56 1283.45,-1252.94 1287.52,-1253.42 1291.49,-1253.99 1295.35,-1254.65 1299.09,-1255.4 1302.68,-1256.24 1306.13,-1257.16 1309.41,-1258.17 1312.51,-1259.25 1315.43,-1260.42 1318.15,-1261.65 1320.67,-1262.96 1322.97,-1264.33 1325.06,-1265.76 1326.93,-1267.25 1328.58,-1268.8 1330,-1270.4 1331.19,-1272.04 1332.15,-1273.73 1332.89,-1275.45 1333.41,-1277.21 1333.7,-1278.99 1333.78,-1280.8 1333.65,-1282.62 1333.31,-1284.45 1332.78,-1286.3 1332.06,-1288.14 1331.15,-1289.98 1330.07,-1291.82 1328.83,-1293.64 1327.43,-1295.45 1325.88,-1297.23 1324.19,-1298.98 1322.38,-1300.71 1320.45,-1302.39 1318.41,-1304.04 1316.26,-1305.64 1314.03,-1307.18 1311.71,-1308.68 1309.32,-1310.11 1306.87,-1311.48 1304.35,-1312.79 1301.78,-1314.02 1299.16,-1315.18 1296.51,-1316.27 1293.81,-1317.27 1291.09,-1318.19 1288.35,-1319.03 1285.58,-1319.78 1282.79,-1320.44 1279.99,-1321.01 1277.18,-1321.49 1274.36,-1321.88 1271.53,-1322.16 1268.7,-1322.36 1265.86,-1322.45 1263.02,-1322.45 1260.19,-1322.36 1257.35,-1322.16 1254.53,-1321.88 1251.71,-1321.49 1248.89,-1321.01 1246.09,-1320.44 1243.31,-1319.78 1240.54,-1319.03 1237.79,-1318.19 1235.07,-1317.27 1232.38,-1316.27 1229.72,-1315.18 1227.11,-1314.02 1224.54,-1312.79 1222.02,-1311.48 1219.56,-1310.11 1217.17,-1308.68 1214.85,-1307.18 1212.62,-1305.64 1210.48,-1304.04 1208.44,-1302.39 1206.51,-1300.71 1204.69,-1298.98 1203.01,-1297.23 1201.46,-1295.45 1200.06,-1293.64 1198.81,-1291.82 1197.73,-1289.98 1196.83,-1288.14 1196.1,-1286.3 1195.57,-1284.45 1195.24,-1282.62 1195.1,-1280.8 1195.18,-1278.99 1195.48,-1277.21 1195.99,-1275.45 1196.73,-1273.73 1197.7,-1272.04 1198.89,-1270.4 1200.31,-1268.8 1201.95,-1267.25 1203.82,-1265.76 1205.91,-1264.33 1208.22,-1262.96 1210.73,-1261.65 1213.45,-1260.42 1216.37,-1259.25 1219.47,-1258.17 1222.75,-1257.16 1226.2,-1256.24 1229.8,-1255.4 1233.53,-1254.65 1237.39,-1253.99 1241.37,-1253.42 1245.43,-1252.94 1249.57,-1252.56 1253.78,-1252.27 1258.03,-1252.08 1262.3,-1251.98 1266.58,-1251.98 1270.86,-1252.08"/>
<text text-anchor="start" x="1235.27" y="-1297.02" font-family="Times,serif" font-size="14.00">C0086045</text>
<text text-anchor="start" x="1226.35" y="-1283.02" font-family="Times,serif" font-size="14.00">concentration</text>
<text text-anchor="start" x="1255.5" y="-1269.02" font-family="Times,serif" font-size="14.00">7:7</text>
</g>
<!-- id_27665258_DOT_6 -->
<g id="node6" class="node">
<title>id_27665258_DOT_6</title>
<polygon fill="bisque" stroke="bisque" points="1515.29,-1578.56 1519.53,-1578.75 1523.74,-1579.04 1527.88,-1579.42 1531.95,-1579.9 1535.92,-1580.47 1539.78,-1581.13 1543.52,-1581.88 1547.11,-1582.72 1550.56,-1583.64 1553.84,-1584.65 1556.94,-1585.73 1559.86,-1586.9 1562.58,-1588.13 1565.1,-1589.43 1567.4,-1590.81 1569.49,-1592.24 1571.36,-1593.73 1573.01,-1595.28 1574.42,-1596.88 1575.62,-1598.52 1576.58,-1600.21 1577.32,-1601.93 1577.83,-1603.69 1578.13,-1605.47 1578.21,-1607.27 1578.08,-1609.1 1577.74,-1610.93 1577.21,-1612.77 1576.48,-1614.62 1575.58,-1616.46 1574.5,-1618.3 1573.25,-1620.12 1571.85,-1621.93 1570.31,-1623.71 1568.62,-1625.46 1566.81,-1627.19 1564.87,-1628.87 1562.83,-1630.52 1560.69,-1632.11 1558.46,-1633.66 1556.14,-1635.15 1553.75,-1636.59 1551.29,-1637.96 1548.78,-1639.27 1546.21,-1640.5 1543.59,-1641.66 1540.93,-1642.75 1538.24,-1643.75 1535.52,-1644.67 1532.77,-1645.51 1530.01,-1646.26 1527.22,-1646.92 1524.42,-1647.49 1521.61,-1647.97 1518.79,-1648.35 1515.96,-1648.64 1513.12,-1648.84 1510.29,-1648.93 1507.45,-1648.93 1504.62,-1648.84 1501.78,-1648.64 1498.95,-1648.35 1496.13,-1647.97 1493.32,-1647.49 1490.52,-1646.92 1487.73,-1646.26 1484.97,-1645.51 1482.22,-1644.67 1479.5,-1643.75 1476.81,-1642.75 1474.15,-1641.66 1471.53,-1640.5 1468.96,-1639.27 1466.45,-1637.96 1463.99,-1636.59 1461.6,-1635.15 1459.28,-1633.66 1457.05,-1632.11 1454.91,-1630.52 1452.87,-1628.87 1450.93,-1627.19 1449.12,-1625.46 1447.43,-1623.71 1445.89,-1621.93 1444.49,-1620.12 1443.24,-1618.3 1442.16,-1616.46 1441.26,-1614.62 1440.53,-1612.77 1440,-1610.93 1439.66,-1609.1 1439.53,-1607.27 1439.61,-1605.47 1439.91,-1603.69 1440.42,-1601.93 1441.16,-1600.21 1442.12,-1598.52 1443.32,-1596.88 1444.73,-1595.28 1446.38,-1593.73 1448.25,-1592.24 1450.34,-1590.81 1452.64,-1589.43 1455.16,-1588.13 1457.88,-1586.9 1460.8,-1585.73 1463.9,-1584.65 1467.18,-1583.64 1470.63,-1582.72 1474.22,-1581.88 1477.96,-1581.13 1481.82,-1580.47 1485.79,-1579.9 1489.86,-1579.42 1494,-1579.04 1498.21,-1578.75 1502.45,-1578.56 1506.73,-1578.46 1511.01,-1578.46 1515.29,-1578.56"/>
<text text-anchor="start" x="1479.7" y="-1623.5" font-family="Times,serif" font-size="14.00">C0086045</text>
<text text-anchor="start" x="1470.78" y="-1609.5" font-family="Times,serif" font-size="14.00">concentration</text>
<text text-anchor="start" x="1492.93" y="-1595.5" font-family="Times,serif" font-size="14.00">45:45</text>
</g>
<!-- id_27665258_DOT_2&#45;&#45;id_27665258_DOT_6 -->
<g id="edge3" class="edge">
<title>id_27665258_DOT_2&#45;&#45;id_27665258_DOT_6</title>
<path fill="none" stroke="black" d="M1288.32,-1319.12C1334.57,-1380.89 1435.97,-1516.33 1483.43,-1579.72"/>
<text text-anchor="middle" x="1359.63" y="-1452.22" font-family="Times,serif" font-size="14.00">0.000996</text>
</g>
<!-- id_27665258_DOT_10 -->
<g id="node10" class="node">
<title>id_27665258_DOT_10</title>
<polygon fill="bisque" stroke="bisque" points="1035.59,-938.2 1039.83,-938.39 1044.04,-938.68 1048.18,-939.07 1052.25,-939.54 1056.22,-940.11 1060.08,-940.78 1063.81,-941.53 1067.41,-942.36 1070.86,-943.29 1074.14,-944.29 1077.24,-945.38 1080.16,-946.54 1082.88,-947.77 1085.4,-949.08 1087.7,-950.45 1089.79,-951.88 1091.66,-953.38 1093.31,-954.92 1094.72,-956.52 1095.92,-958.17 1096.88,-959.85 1097.62,-961.57 1098.13,-963.33 1098.43,-965.11 1098.51,-966.92 1098.38,-968.74 1098.04,-970.57 1097.51,-972.42 1096.78,-974.26 1095.88,-976.11 1094.8,-977.94 1093.55,-979.76 1092.15,-981.57 1090.6,-983.35 1088.92,-985.11 1087.11,-986.83 1085.17,-988.51 1083.13,-990.16 1080.99,-991.76 1078.76,-993.3 1076.44,-994.8 1074.05,-996.23 1071.59,-997.6 1069.08,-998.91 1066.51,-1000.14 1063.89,-1001.3 1061.23,-1002.39 1058.54,-1003.39 1055.82,-1004.32 1053.07,-1005.15 1050.31,-1005.9 1047.52,-1006.57 1044.72,-1007.14 1041.91,-1007.61 1039.08,-1008 1036.26,-1008.29 1033.42,-1008.48 1030.59,-1008.58 1027.75,-1008.58 1024.92,-1008.48 1022.08,-1008.29 1019.25,-1008 1016.43,-1007.61 1013.62,-1007.14 1010.82,-1006.57 1008.03,-1005.9 1005.27,-1005.15 1002.52,-1004.32 999.8,-1003.39 997.11,-1002.39 994.45,-1001.3 991.83,-1000.14 989.26,-998.91 986.75,-997.6 984.29,-996.23 981.9,-994.8 979.58,-993.3 977.35,-991.76 975.21,-990.16 973.16,-988.51 971.23,-986.83 969.42,-985.11 967.73,-983.35 966.19,-981.57 964.78,-979.76 963.54,-977.94 962.46,-976.11 961.55,-974.26 960.83,-972.42 960.3,-970.57 959.96,-968.74 959.83,-966.92 959.91,-965.11 960.21,-963.33 960.72,-961.57 961.46,-959.85 962.42,-958.17 963.61,-956.52 965.03,-954.92 966.68,-953.38 968.55,-951.88 970.64,-950.45 972.94,-949.08 975.46,-947.77 978.18,-946.54 981.1,-945.38 984.2,-944.29 987.48,-943.29 990.93,-942.36 994.52,-941.53 998.26,-940.78 1002.12,-940.11 1006.09,-939.54 1010.16,-939.07 1014.3,-938.68 1018.5,-938.39 1022.75,-938.2 1027.03,-938.1 1031.31,-938.1 1035.59,-938.2"/>
<text text-anchor="start" x="1000" y="-983.14" font-family="Times,serif" font-size="14.00">C0086045</text>
<text text-anchor="start" x="991.08" y="-969.14" font-family="Times,serif" font-size="14.00">concentration</text>
<text text-anchor="start" x="1013.22" y="-955.14" font-family="Times,serif" font-size="14.00">84:84</text>
</g>
<!-- id_27665258_DOT_2&#45;&#45;id_27665258_DOT_10 -->
<g id="edge4" class="edge">
<title>id_27665258_DOT_2&#45;&#45;id_27665258_DOT_10</title>
<path fill="none" stroke="black" d="M1239.26,-1253.63C1193.62,-1192.74 1097.83,-1064.94 1053.11,-1005.28"/>
<text text-anchor="middle" x="1119.94" y="-1132.25" font-family="Times,serif" font-size="14.00">0.004952</text>
</g>
<!-- id_27665258_DOT_3 -->
<g id="node3" class="node">
<title>id_27665258_DOT_3</title>
<polygon fill="blue" stroke="blue" points="2771.14,-3146.2 2776.43,-3146.4 2781.66,-3146.68 2786.81,-3147.07 2791.87,-3147.55 2796.81,-3148.12 2801.61,-3148.78 2806.26,-3149.53 2810.73,-3150.37 2815.01,-3151.29 2819.09,-3152.29 2822.95,-3153.38 2826.58,-3154.54 2829.97,-3155.77 2833.1,-3157.08 2835.97,-3158.45 2838.57,-3159.88 2840.89,-3161.38 2842.94,-3162.92 2844.7,-3164.52 2846.18,-3166.17 2847.38,-3167.85 2848.3,-3169.58 2848.94,-3171.33 2849.31,-3173.11 2849.41,-3174.92 2849.24,-3176.74 2848.83,-3178.58 2848.16,-3180.42 2847.26,-3182.26 2846.14,-3184.11 2844.8,-3185.94 2843.25,-3187.76 2841.5,-3189.57 2839.58,-3191.35 2837.48,-3193.11 2835.23,-3194.83 2832.82,-3196.52 2830.28,-3198.16 2827.62,-3199.76 2824.84,-3201.31 2821.96,-3202.8 2818.99,-3204.23 2815.93,-3205.6 2812.8,-3206.91 2809.6,-3208.14 2806.35,-3209.3 2803.04,-3210.39 2799.7,-3211.39 2796.31,-3212.32 2792.9,-3213.16 2789.45,-3213.91 2785.99,-3214.57 2782.5,-3215.14 2779,-3215.61 2775.5,-3216 2771.98,-3216.29 2768.45,-3216.48 2764.93,-3216.58 2761.4,-3216.58 2757.87,-3216.48 2754.35,-3216.29 2750.83,-3216 2747.32,-3215.61 2743.82,-3215.14 2740.34,-3214.57 2736.87,-3213.91 2733.43,-3213.16 2730.01,-3212.32 2726.63,-3211.39 2723.28,-3210.39 2719.97,-3209.3 2716.72,-3208.14 2713.52,-3206.91 2710.39,-3205.6 2707.34,-3204.23 2704.36,-3202.8 2701.48,-3201.31 2698.7,-3199.76 2696.04,-3198.16 2693.5,-3196.52 2691.1,-3194.83 2688.84,-3193.11 2686.75,-3191.35 2684.82,-3189.57 2683.08,-3187.76 2681.53,-3185.94 2680.19,-3184.11 2679.06,-3182.26 2678.16,-3180.42 2677.5,-3178.58 2677.08,-3176.74 2676.92,-3174.92 2677.02,-3173.11 2677.38,-3171.33 2678.02,-3169.58 2678.94,-3167.85 2680.14,-3166.17 2681.62,-3164.52 2683.39,-3162.92 2685.43,-3161.38 2687.76,-3159.88 2690.36,-3158.45 2693.22,-3157.08 2696.36,-3155.77 2699.74,-3154.54 2703.37,-3153.38 2707.23,-3152.29 2711.31,-3151.29 2715.59,-3150.37 2720.07,-3149.53 2724.72,-3148.78 2729.52,-3148.12 2734.46,-3147.55 2739.51,-3147.07 2744.67,-3146.68 2749.9,-3146.4 2755.18,-3146.2 2760.5,-3146.11 2765.83,-3146.11 2771.14,-3146.2"/>
<text text-anchor="start" x="2733.99" y="-3191.14" font-family="Times,serif" font-size="14.00">C0033522</text>
<text text-anchor="start" x="2713.98" y="-3177.14" font-family="Times,serif" font-size="14.00">prospective study</text>
<text text-anchor="start" x="2747.22" y="-3163.14" font-family="Times,serif" font-size="14.00">13:14</text>
</g>
<!-- id_27665258_DOT_12 -->
<g id="node12" class="node">
<title>id_27665258_DOT_12</title>
<polygon fill="coral" stroke="coral" points="2425.18,-3355.8 2430.21,-3355.99 2435.19,-3356.28 2440.1,-3356.67 2444.91,-3357.14 2449.62,-3357.71 2454.19,-3358.38 2458.62,-3359.13 2462.88,-3359.96 2466.96,-3360.89 2470.84,-3361.89 2474.52,-3362.98 2477.98,-3364.14 2481.2,-3365.37 2484.18,-3366.68 2486.91,-3368.05 2489.39,-3369.48 2491.6,-3370.98 2493.55,-3372.52 2495.23,-3374.12 2496.64,-3375.77 2497.79,-3377.45 2498.66,-3379.17 2499.27,-3380.93 2499.62,-3382.71 2499.71,-3384.52 2499.56,-3386.34 2499.16,-3388.17 2498.53,-3390.02 2497.67,-3391.86 2496.6,-3393.71 2495.32,-3395.54 2493.85,-3397.36 2492.19,-3399.17 2490.35,-3400.95 2488.36,-3402.71 2486.21,-3404.43 2483.92,-3406.11 2481.5,-3407.76 2478.96,-3409.36 2476.32,-3410.9 2473.57,-3412.4 2470.74,-3413.83 2467.83,-3415.2 2464.85,-3416.51 2461.8,-3417.74 2458.71,-3418.9 2455.56,-3419.99 2452.37,-3420.99 2449.15,-3421.92 2445.89,-3422.75 2442.61,-3423.5 2439.31,-3424.17 2436,-3424.74 2432.66,-3425.21 2429.32,-3425.6 2425.97,-3425.89 2422.61,-3426.08 2419.26,-3426.18 2415.9,-3426.18 2412.54,-3426.08 2409.18,-3425.89 2405.83,-3425.6 2402.49,-3425.21 2399.16,-3424.74 2395.84,-3424.17 2392.54,-3423.5 2389.26,-3422.75 2386,-3421.92 2382.78,-3420.99 2379.59,-3419.99 2376.45,-3418.9 2373.35,-3417.74 2370.3,-3416.51 2367.32,-3415.2 2364.41,-3413.83 2361.58,-3412.4 2358.83,-3410.9 2356.19,-3409.36 2353.65,-3407.76 2351.23,-3406.11 2348.94,-3404.43 2346.79,-3402.71 2344.8,-3400.95 2342.96,-3399.17 2341.31,-3397.36 2339.83,-3395.54 2338.55,-3393.71 2337.48,-3391.86 2336.62,-3390.02 2335.99,-3388.17 2335.59,-3386.34 2335.44,-3384.52 2335.53,-3382.71 2335.88,-3380.93 2336.49,-3379.17 2337.37,-3377.45 2338.51,-3375.77 2339.92,-3374.12 2341.6,-3372.52 2343.55,-3370.98 2345.76,-3369.48 2348.24,-3368.05 2350.97,-3366.68 2353.95,-3365.37 2357.18,-3364.14 2360.63,-3362.98 2364.31,-3361.89 2368.19,-3360.89 2372.27,-3359.96 2376.53,-3359.13 2380.96,-3358.38 2385.53,-3357.71 2390.24,-3357.14 2395.05,-3356.67 2399.96,-3356.28 2404.94,-3355.99 2409.97,-3355.8 2415.04,-3355.7 2420.11,-3355.7 2425.18,-3355.8"/>
<text text-anchor="start" x="2388.41" y="-3400.74" font-family="Times,serif" font-size="14.00">C0010362</text>
<text text-anchor="start" x="2370.92" y="-3386.74" font-family="Times,serif" font-size="14.00">Cross &#45; sectional</text>
<text text-anchor="start" x="2394.63" y="-3372.74" font-family="Times,serif" font-size="14.00">102:104</text>
</g>
<!-- id_27665258_DOT_3&#45;&#45;id_27665258_DOT_12 -->
<g id="edge19" class="edge">
<title>id_27665258_DOT_3&#45;&#45;id_27665258_DOT_12</title>
<path fill="none" stroke="black" stroke-dasharray="1,5" d="M2717.98,-3208.74C2653.21,-3248.02 2534.4,-3320.09 2467.24,-3360.82"/>
<text text-anchor="middle" x="2566.36" y="-3287.58" font-family="Times,serif" font-size="14.00">0.755249</text>
</g>
<!-- id_27665258_DOT_4 -->
<g id="node4" class="node">
<title>id_27665258_DOT_4</title>
<polygon fill="blueviolet" stroke="blueviolet" points="940.06,-2262.9 943.49,-2263.09 946.88,-2263.38 950.23,-2263.76 953.51,-2264.24 956.71,-2264.81 959.83,-2265.47 962.84,-2266.22 965.75,-2267.06 968.53,-2267.98 971.17,-2268.99 973.68,-2270.07 976.03,-2271.23 978.23,-2272.47 980.26,-2273.77 982.12,-2275.14 983.81,-2276.58 985.32,-2278.07 986.64,-2279.62 987.79,-2281.22 988.75,-2282.86 989.53,-2284.55 990.12,-2286.27 990.54,-2288.02 990.78,-2289.81 990.84,-2291.61 990.73,-2293.43 990.46,-2295.27 990.03,-2297.11 989.45,-2298.96 988.72,-2300.8 987.85,-2302.64 986.84,-2304.46 985.71,-2306.26 984.46,-2308.05 983.1,-2309.8 981.64,-2311.52 980.08,-2313.21 978.43,-2314.85 976.7,-2316.45 974.9,-2318 973.03,-2319.49 971.1,-2320.93 969.12,-2322.3 967.09,-2323.6 965.01,-2324.84 962.9,-2326 960.76,-2327.08 958.59,-2328.09 956.39,-2329.01 954.17,-2329.85 951.94,-2330.6 949.69,-2331.26 947.43,-2331.83 945.16,-2332.31 942.89,-2332.69 940.6,-2332.98 938.32,-2333.17 936.03,-2333.27 933.74,-2333.27 931.45,-2333.17 929.16,-2332.98 926.88,-2332.69 924.6,-2332.31 922.34,-2331.83 920.08,-2331.26 917.83,-2330.6 915.59,-2329.85 913.38,-2329.01 911.18,-2328.09 909.01,-2327.08 906.86,-2326 904.75,-2324.84 902.68,-2323.6 900.65,-2322.3 898.66,-2320.93 896.73,-2319.49 894.86,-2318 893.06,-2316.45 891.33,-2314.85 889.69,-2313.21 888.13,-2311.52 886.66,-2309.8 885.3,-2308.05 884.05,-2306.26 882.92,-2304.46 881.92,-2302.64 881.05,-2300.8 880.32,-2298.96 879.73,-2297.11 879.3,-2295.27 879.03,-2293.43 878.93,-2291.61 878.99,-2289.81 879.23,-2288.02 879.64,-2286.27 880.24,-2284.55 881.02,-2282.86 881.98,-2281.22 883.12,-2279.62 884.45,-2278.07 885.96,-2276.58 887.65,-2275.14 889.51,-2273.77 891.54,-2272.47 893.74,-2271.23 896.09,-2270.07 898.59,-2268.99 901.24,-2267.98 904.02,-2267.06 906.92,-2266.22 909.94,-2265.47 913.06,-2264.81 916.26,-2264.24 919.54,-2263.76 922.88,-2263.38 926.28,-2263.09 929.71,-2262.9 933.16,-2262.8 936.61,-2262.8 940.06,-2262.9"/>
<text text-anchor="start" x="905.71" y="-2307.83" font-family="Times,serif" font-size="14.00">C2603343</text>
<text text-anchor="start" x="919.71" y="-2293.83" font-family="Times,serif" font-size="14.00">study</text>
<text text-anchor="start" x="918.94" y="-2279.83" font-family="Times,serif" font-size="14.00">19:19</text>
</g>
<!-- id_27665258_DOT_7 -->
<g id="node7" class="node">
<title>id_27665258_DOT_7</title>
<polygon fill="brown" stroke="brown" points="1230.7,-2479.53 1234.12,-2479.72 1237.52,-2480.01 1240.86,-2480.39 1244.14,-2480.87 1247.35,-2481.44 1250.46,-2482.1 1253.48,-2482.85 1256.38,-2483.69 1259.16,-2484.61 1261.81,-2485.62 1264.31,-2486.7 1266.67,-2487.86 1268.86,-2489.1 1270.89,-2490.4 1272.76,-2491.77 1274.44,-2493.21 1275.95,-2494.7 1277.28,-2496.25 1278.42,-2497.85 1279.38,-2499.49 1280.16,-2501.18 1280.76,-2502.9 1281.17,-2504.65 1281.41,-2506.44 1281.47,-2508.24 1281.37,-2510.06 1281.1,-2511.9 1280.67,-2513.74 1280.08,-2515.59 1279.35,-2517.43 1278.48,-2519.27 1277.48,-2521.09 1276.35,-2522.89 1275.1,-2524.68 1273.74,-2526.43 1272.27,-2528.15 1270.72,-2529.84 1269.07,-2531.48 1267.34,-2533.08 1265.54,-2534.63 1263.67,-2536.12 1261.74,-2537.56 1259.76,-2538.93 1257.72,-2540.23 1255.65,-2541.47 1253.54,-2542.63 1251.39,-2543.71 1249.22,-2544.72 1247.03,-2545.64 1244.81,-2546.48 1242.58,-2547.23 1240.33,-2547.89 1238.07,-2548.46 1235.8,-2548.94 1233.52,-2549.32 1231.24,-2549.61 1228.95,-2549.8 1226.66,-2549.9 1224.37,-2549.9 1222.09,-2549.8 1219.8,-2549.61 1217.52,-2549.32 1215.24,-2548.94 1212.97,-2548.46 1210.71,-2547.89 1208.46,-2547.23 1206.23,-2546.48 1204.01,-2545.64 1201.81,-2544.72 1199.64,-2543.71 1197.5,-2542.63 1195.39,-2541.47 1193.31,-2540.23 1191.28,-2538.93 1189.3,-2537.56 1187.37,-2536.12 1185.5,-2534.63 1183.7,-2533.08 1181.97,-2531.48 1180.32,-2529.84 1178.76,-2528.15 1177.3,-2526.43 1175.94,-2524.68 1174.69,-2522.89 1173.56,-2521.09 1172.55,-2519.27 1171.68,-2517.43 1170.95,-2515.59 1170.37,-2513.74 1169.94,-2511.9 1169.67,-2510.06 1169.56,-2508.24 1169.63,-2506.44 1169.86,-2504.65 1170.28,-2502.9 1170.88,-2501.18 1171.65,-2499.49 1172.61,-2497.85 1173.76,-2496.25 1175.09,-2494.7 1176.59,-2493.21 1178.28,-2491.77 1180.14,-2490.4 1182.17,-2489.1 1184.37,-2487.86 1186.72,-2486.7 1189.23,-2485.62 1191.88,-2484.61 1194.66,-2483.69 1197.56,-2482.85 1200.57,-2482.1 1203.69,-2481.44 1206.9,-2480.87 1210.18,-2480.39 1213.52,-2480.01 1216.91,-2479.72 1220.34,-2479.53 1223.79,-2479.43 1227.25,-2479.43 1230.7,-2479.53"/>
<text text-anchor="start" x="1196.35" y="-2524.47" font-family="Times,serif" font-size="14.00">C0241315</text>
<text text-anchor="start" x="1209.18" y="-2510.47" font-family="Times,serif" font-size="14.00">Swiss</text>
<text text-anchor="start" x="1209.57" y="-2496.47" font-family="Times,serif" font-size="14.00">65:65</text>
</g>
<!-- id_27665258_DOT_4&#45;&#45;id_27665258_DOT_7 -->
<g id="edge20" class="edge">
<title>id_27665258_DOT_4&#45;&#45;id_27665258_DOT_7</title>
<path fill="none" stroke="black" stroke-dasharray="1,5" d="M968.22,-2322.89C1022.65,-2363.45 1130.23,-2443.64 1187.53,-2486.35"/>
<text text-anchor="middle" x="1051.63" y="-2407.42" font-family="Times,serif" font-size="14.00">0.944284</text>
</g>
<!-- id_27665258_DOT_23 -->
<g id="node23" class="node">
<title>id_27665258_DOT_23</title>
<polygon fill="aquamarine" stroke="aquamarine" points="2728.9,-1073.7 2735.27,-1073.89 2741.56,-1074.18 2747.77,-1074.56 2753.86,-1075.04 2759.81,-1075.61 2765.59,-1076.27 2771.19,-1077.02 2776.58,-1077.86 2781.74,-1078.78 2786.65,-1079.79 2791.3,-1080.87 2795.67,-1082.04 2799.74,-1083.27 2803.51,-1084.58 2806.97,-1085.95 2810.1,-1087.38 2812.9,-1088.87 2815.36,-1090.42 2817.49,-1092.02 2819.27,-1093.66 2820.72,-1095.35 2821.82,-1097.07 2822.59,-1098.83 2823.04,-1100.61 2823.15,-1102.41 2822.96,-1104.24 2822.46,-1106.07 2821.66,-1107.92 2820.57,-1109.76 2819.22,-1111.6 2817.6,-1113.44 2815.74,-1115.26 2813.64,-1117.07 2811.32,-1118.85 2808.79,-1120.6 2806.08,-1122.33 2803.18,-1124.01 2800.13,-1125.66 2796.92,-1127.25 2793.57,-1128.8 2790.1,-1130.3 2786.52,-1131.73 2782.84,-1133.1 2779.07,-1134.41 2775.22,-1135.64 2771.3,-1136.8 2767.32,-1137.89 2763.29,-1138.89 2759.21,-1139.81 2755.1,-1140.65 2750.95,-1141.4 2746.78,-1142.06 2742.58,-1142.63 2738.37,-1143.11 2734.14,-1143.5 2729.91,-1143.78 2725.66,-1143.98 2721.42,-1144.07 2717.17,-1144.07 2712.92,-1143.98 2708.68,-1143.78 2704.44,-1143.5 2700.21,-1143.11 2696,-1142.63 2691.81,-1142.06 2687.63,-1141.4 2683.49,-1140.65 2679.37,-1139.81 2675.29,-1138.89 2671.26,-1137.89 2667.28,-1136.8 2663.36,-1135.64 2659.51,-1134.41 2655.74,-1133.1 2652.06,-1131.73 2648.48,-1130.3 2645.01,-1128.8 2641.67,-1127.25 2638.46,-1125.66 2635.4,-1124.01 2632.51,-1122.33 2629.79,-1120.6 2627.27,-1118.85 2624.95,-1117.07 2622.85,-1115.26 2620.98,-1113.44 2619.37,-1111.6 2618.01,-1109.76 2616.93,-1107.92 2616.13,-1106.07 2615.63,-1104.24 2615.43,-1102.41 2615.55,-1100.61 2615.99,-1098.83 2616.76,-1097.07 2617.87,-1095.35 2619.31,-1093.66 2621.09,-1092.02 2623.22,-1090.42 2625.68,-1088.87 2628.48,-1087.38 2631.61,-1085.95 2635.07,-1084.58 2638.84,-1083.27 2642.92,-1082.04 2647.29,-1080.87 2651.93,-1079.79 2656.85,-1078.78 2662.01,-1077.86 2667.4,-1077.02 2672.99,-1076.27 2678.78,-1075.61 2684.72,-1075.04 2690.81,-1074.56 2697.02,-1074.18 2703.32,-1073.89 2709.68,-1073.7 2716.08,-1073.6 2722.5,-1073.6 2728.9,-1073.7"/>
<text text-anchor="start" x="2690.12" y="-1118.64" font-family="Times,serif" font-size="14.00">C0233514</text>
<text text-anchor="start" x="2658.45" y="-1104.64" font-family="Times,serif" font-size="14.00">behavioural problems</text>
<text text-anchor="start" x="2696.35" y="-1090.64" font-family="Times,serif" font-size="14.00">167:168</text>
</g>
<!-- id_27665258_DOT_5&#45;&#45;id_27665258_DOT_23 -->
<g id="edge5" class="edge">
<title>id_27665258_DOT_5&#45;&#45;id_27665258_DOT_23</title>
<path fill="none" stroke="black" d="M2470.89,-1375.24C2525.27,-1316.92 2635.25,-1198.97 2688.72,-1141.62"/>
<text text-anchor="middle" x="2553.55" y="-1261.23" font-family="Times,serif" font-size="14.00">0.014006</text>
</g>
<!-- id_27665258_DOT_6&#45;&#45;id_27665258_DOT_8 -->
<g id="edge21" class="edge">
<title>id_27665258_DOT_6&#45;&#45;id_27665258_DOT_8</title>
<path fill="none" stroke="black" stroke-dasharray="1,5" d="M1534.81,-1645.09C1585.61,-1706.53 1697.81,-1842.29 1750.74,-1906.32"/>
<text text-anchor="middle" x="1616.53" y="-1778.5" font-family="Times,serif" font-size="14.00">0.868717</text>
</g>
<!-- id_27665258_DOT_20 -->
<g id="node20" class="node">
<title>id_27665258_DOT_20</title>
<polygon fill="darkmagenta" stroke="darkmagenta" points="1659.94,-2347.46 1663.37,-2347.65 1666.76,-2347.94 1670.1,-2348.32 1673.38,-2348.8 1676.59,-2349.37 1679.71,-2350.03 1682.72,-2350.78 1685.62,-2351.62 1688.4,-2352.54 1691.05,-2353.55 1693.56,-2354.63 1695.91,-2355.79 1698.11,-2357.03 1700.14,-2358.33 1702,-2359.7 1703.69,-2361.14 1705.19,-2362.63 1706.52,-2364.18 1707.67,-2365.78 1708.63,-2367.42 1709.4,-2369.11 1710,-2370.83 1710.42,-2372.58 1710.65,-2374.37 1710.72,-2376.17 1710.61,-2377.99 1710.34,-2379.83 1709.91,-2381.67 1709.33,-2383.52 1708.6,-2385.36 1707.73,-2387.2 1706.72,-2389.02 1705.59,-2390.82 1704.34,-2392.61 1702.98,-2394.36 1701.52,-2396.08 1699.96,-2397.77 1698.31,-2399.41 1696.58,-2401.01 1694.78,-2402.56 1692.91,-2404.05 1690.98,-2405.49 1689,-2406.86 1686.97,-2408.16 1684.89,-2409.4 1682.78,-2410.56 1680.64,-2411.64 1678.47,-2412.65 1676.27,-2413.57 1674.05,-2414.41 1671.82,-2415.16 1669.57,-2415.82 1667.31,-2416.39 1665.04,-2416.87 1662.76,-2417.25 1660.48,-2417.54 1658.19,-2417.73 1655.91,-2417.83 1653.62,-2417.83 1651.33,-2417.73 1649.04,-2417.54 1646.76,-2417.25 1644.48,-2416.87 1642.21,-2416.39 1639.95,-2415.82 1637.7,-2415.16 1635.47,-2414.41 1633.25,-2413.57 1631.06,-2412.65 1628.89,-2411.64 1626.74,-2410.56 1624.63,-2409.4 1622.56,-2408.16 1620.52,-2406.86 1618.54,-2405.49 1616.61,-2404.05 1614.74,-2402.56 1612.94,-2401.01 1611.21,-2399.41 1609.56,-2397.77 1608.01,-2396.08 1606.54,-2394.36 1605.18,-2392.61 1603.93,-2390.82 1602.8,-2389.02 1601.8,-2387.2 1600.93,-2385.36 1600.2,-2383.52 1599.61,-2381.67 1599.18,-2379.83 1598.91,-2377.99 1598.81,-2376.17 1598.87,-2374.37 1599.11,-2372.58 1599.52,-2370.83 1600.12,-2369.11 1600.9,-2367.42 1601.86,-2365.78 1603,-2364.18 1604.33,-2362.63 1605.84,-2361.14 1607.52,-2359.7 1609.39,-2358.33 1611.42,-2357.03 1613.61,-2355.79 1615.97,-2354.63 1618.47,-2353.55 1621.12,-2352.54 1623.9,-2351.62 1626.8,-2350.78 1629.82,-2350.03 1632.93,-2349.37 1636.14,-2348.8 1639.42,-2348.32 1642.76,-2347.94 1646.16,-2347.65 1649.58,-2347.46 1653.03,-2347.36 1656.49,-2347.36 1659.94,-2347.46"/>
<text text-anchor="start" x="1625.59" y="-2392.39" font-family="Times,serif" font-size="14.00">C0006104</text>
<text text-anchor="start" x="1640.38" y="-2378.39" font-family="Times,serif" font-size="14.00">brain</text>
<text text-anchor="start" x="1631.82" y="-2364.39" font-family="Times,serif" font-size="14.00">148:148</text>
</g>
<!-- id_27665258_DOT_7&#45;&#45;id_27665258_DOT_20 -->
<g id="edge22" class="edge">
<title>id_27665258_DOT_7&#45;&#45;id_27665258_DOT_20</title>
<path fill="none" stroke="black" stroke-dasharray="1,5" d="M1279.01,-2498.21C1363.97,-2472.07 1528.29,-2421.51 1608.48,-2396.84"/>
<text text-anchor="middle" x="1417.75" y="-2450.32" font-family="Times,serif" font-size="14.00">0.812117</text>
</g>
<!-- id_27665258_DOT_25 -->
<g id="node25" class="node">
<title>id_27665258_DOT_25</title>
<polygon fill="darkkhaki" stroke="darkkhaki" points="839.82,-2681.38 843.25,-2681.58 846.64,-2681.86 849.98,-2682.25 853.26,-2682.73 856.47,-2683.3 859.58,-2683.96 862.6,-2684.71 865.5,-2685.55 868.28,-2686.47 870.93,-2687.47 873.43,-2688.56 875.79,-2689.72 877.98,-2690.95 880.01,-2692.26 881.88,-2693.63 883.56,-2695.06 885.07,-2696.56 886.4,-2698.1 887.54,-2699.7 888.5,-2701.35 889.28,-2703.03 889.88,-2704.76 890.29,-2706.51 890.53,-2708.29 890.6,-2710.1 890.49,-2711.92 890.22,-2713.76 889.79,-2715.6 889.2,-2717.44 888.47,-2719.29 887.6,-2721.12 886.6,-2722.94 885.47,-2724.75 884.22,-2726.53 882.86,-2728.29 881.39,-2730.01 879.84,-2731.7 878.19,-2733.34 876.46,-2734.94 874.66,-2736.49 872.79,-2737.98 870.86,-2739.41 868.88,-2740.78 866.84,-2742.09 864.77,-2743.32 862.66,-2744.49 860.51,-2745.57 858.34,-2746.57 856.15,-2747.5 853.93,-2748.34 851.7,-2749.09 849.45,-2749.75 847.19,-2750.32 844.92,-2750.79 842.64,-2751.18 840.36,-2751.47 838.07,-2751.66 835.78,-2751.76 833.49,-2751.76 831.21,-2751.66 828.92,-2751.47 826.64,-2751.18 824.36,-2750.79 822.09,-2750.32 819.83,-2749.75 817.58,-2749.09 815.35,-2748.34 813.13,-2747.5 810.94,-2746.57 808.76,-2745.57 806.62,-2744.49 804.51,-2743.32 802.43,-2742.09 800.4,-2740.78 798.42,-2739.41 796.49,-2737.98 794.62,-2736.49 792.82,-2734.94 791.09,-2733.34 789.44,-2731.7 787.88,-2730.01 786.42,-2728.29 785.06,-2726.53 783.81,-2724.75 782.68,-2722.94 781.68,-2721.12 780.8,-2719.29 780.07,-2717.44 779.49,-2715.6 779.06,-2713.76 778.79,-2711.92 778.68,-2710.1 778.75,-2708.29 778.98,-2706.51 779.4,-2704.76 780,-2703.03 780.77,-2701.35 781.74,-2699.7 782.88,-2698.1 784.21,-2696.56 785.72,-2695.06 787.4,-2693.63 789.26,-2692.26 791.29,-2690.95 793.49,-2689.72 795.85,-2688.56 798.35,-2687.47 801,-2686.47 803.78,-2685.55 806.68,-2684.71 809.69,-2683.96 812.81,-2683.3 816.02,-2682.73 819.3,-2682.25 822.64,-2681.86 826.03,-2681.58 829.46,-2681.38 832.91,-2681.29 836.37,-2681.29 839.82,-2681.38"/>
<text text-anchor="start" x="805.47" y="-2726.32" font-family="Times,serif" font-size="14.00">C0335223</text>
<text text-anchor="start" x="811.32" y="-2712.32" font-family="Times,serif" font-size="14.00">operator</text>
<text text-anchor="start" x="811.69" y="-2698.32" font-family="Times,serif" font-size="14.00">182:182</text>
</g>
<!-- id_27665258_DOT_7&#45;&#45;id_27665258_DOT_25 -->
<g id="edge23" class="edge">
<title>id_27665258_DOT_7&#45;&#45;id_27665258_DOT_25</title>
<path fill="none" stroke="black" stroke-dasharray="1,5" d="M1185.89,-2535.13C1113.01,-2572.77 958.1,-2652.76 880.68,-2692.74"/>
<text text-anchor="middle" x="1007.04" y="-2616.74" font-family="Times,serif" font-size="14.00">0.820270</text>
</g>
<!-- id_27665258_DOT_8&#45;&#45;id_27665258_DOT_20 -->
<g id="edge24" class="edge">
<title>id_27665258_DOT_8&#45;&#45;id_27665258_DOT_20</title>
<path fill="none" stroke="black" stroke-dasharray="1,5" d="M1769.56,-1976.06C1746.23,-2058.67 1687.98,-2264.96 1664.65,-2347.57"/>
<text text-anchor="middle" x="1690.85" y="-2164.62" font-family="Times,serif" font-size="14.00">0.835403</text>
</g>
<!-- id_27665258_DOT_9 -->
<g id="node9" class="node">
<title>id_27665258_DOT_9</title>
<polygon fill="cadetblue" stroke="cadetblue" points="2674.22,-4571.22 2685.35,-4571.42 2696.37,-4571.7 2707.22,-4572.09 2717.87,-4572.57 2728.27,-4573.14 2738.39,-4573.8 2748.18,-4574.55 2757.6,-4575.39 2766.63,-4576.31 2775.22,-4577.31 2783.35,-4578.4 2790.99,-4579.56 2798.12,-4580.79 2804.72,-4582.1 2810.76,-4583.47 2816.23,-4584.9 2821.13,-4586.4 2825.44,-4587.95 2829.15,-4589.54 2832.27,-4591.19 2834.8,-4592.87 2836.73,-4594.6 2838.08,-4596.35 2838.86,-4598.13 2839.06,-4599.94 2838.72,-4601.76 2837.84,-4603.6 2836.45,-4605.44 2834.55,-4607.28 2832.18,-4609.13 2829.35,-4610.96 2826.09,-4612.79 2822.42,-4614.59 2818.36,-4616.37 2813.95,-4618.13 2809.2,-4619.85 2804.14,-4621.54 2798.79,-4623.18 2793.18,-4624.78 2787.33,-4626.33 2781.26,-4627.82 2774.99,-4629.25 2768.56,-4630.62 2761.96,-4631.93 2755.23,-4633.16 2748.37,-4634.33 2741.41,-4635.41 2734.36,-4636.42 2727.23,-4637.34 2720.04,-4638.18 2712.79,-4638.93 2705.49,-4639.59 2698.15,-4640.16 2690.78,-4640.64 2683.39,-4641.02 2675.98,-4641.31 2668.56,-4641.5 2661.13,-4641.6 2653.7,-4641.6 2646.27,-4641.5 2638.85,-4641.31 2631.44,-4641.02 2624.05,-4640.64 2616.68,-4640.16 2609.34,-4639.59 2602.04,-4638.93 2594.79,-4638.18 2587.59,-4637.34 2580.46,-4636.42 2573.41,-4635.41 2566.45,-4634.33 2559.6,-4633.16 2552.87,-4631.93 2546.27,-4630.62 2539.83,-4629.25 2533.57,-4627.82 2527.5,-4626.33 2521.65,-4624.78 2516.04,-4623.18 2510.69,-4621.54 2505.63,-4619.85 2500.88,-4618.13 2496.46,-4616.37 2492.41,-4614.59 2488.74,-4612.79 2485.48,-4610.96 2482.65,-4609.13 2480.28,-4607.28 2478.38,-4605.44 2476.99,-4603.6 2476.11,-4601.76 2475.76,-4599.94 2475.97,-4598.13 2476.74,-4596.35 2478.09,-4594.6 2480.03,-4592.87 2482.55,-4591.19 2485.67,-4589.54 2489.39,-4587.95 2493.7,-4586.4 2498.59,-4584.9 2504.07,-4583.47 2510.11,-4582.1 2516.71,-4580.79 2523.84,-4579.56 2531.48,-4578.4 2539.61,-4577.31 2548.2,-4576.31 2557.23,-4575.39 2566.65,-4574.55 2576.44,-4573.8 2586.55,-4573.14 2596.96,-4572.57 2607.61,-4572.09 2618.46,-4571.7 2629.48,-4571.42 2640.6,-4571.22 2651.8,-4571.13 2663.02,-4571.13 2674.22,-4571.22"/>
<text text-anchor="start" x="2628.24" y="-4616.16" font-family="Times,serif" font-size="14.00">C3472494</text>
<text text-anchor="start" x="2544.85" y="-4602.16" font-family="Times,serif" font-size="14.00">Strengths and Difficulties Questionnaire</text>
<text text-anchor="start" x="2641.47" y="-4588.16" font-family="Times,serif" font-size="14.00">79:82</text>
</g>
<!-- id_27665258_DOT_27 -->
<g id="node27" class="node">
<title>id_27665258_DOT_27</title>
<polygon fill="darkgreen" stroke="darkgreen" points="2505.67,-4940.73 2510.04,-4940.92 2514.36,-4941.21 2518.63,-4941.6 2522.81,-4942.07 2526.9,-4942.64 2530.87,-4943.3 2534.71,-4944.05 2538.41,-4944.89 2541.96,-4945.82 2545.33,-4946.82 2548.53,-4947.91 2551.53,-4949.07 2554.33,-4950.3 2556.92,-4951.61 2559.29,-4952.98 2561.44,-4954.41 2563.37,-4955.9 2565.06,-4957.45 2566.52,-4959.05 2567.74,-4960.69 2568.74,-4962.38 2569.5,-4964.1 2570.03,-4965.86 2570.33,-4967.64 2570.41,-4969.45 2570.28,-4971.27 2569.93,-4973.1 2569.38,-4974.95 2568.64,-4976.79 2567.71,-4978.63 2566.6,-4980.47 2565.31,-4982.29 2563.87,-4984.1 2562.28,-4985.88 2560.55,-4987.63 2558.68,-4989.36 2556.69,-4991.04 2554.59,-4992.69 2552.39,-4994.29 2550.09,-4995.83 2547.71,-4997.33 2545.25,-4998.76 2542.72,-5000.13 2540.13,-5001.44 2537.48,-5002.67 2534.79,-5003.83 2532.06,-5004.92 2529.29,-5005.92 2526.49,-5006.84 2523.66,-5007.68 2520.81,-5008.43 2517.95,-5009.09 2515.06,-5009.66 2512.17,-5010.14 2509.27,-5010.53 2506.36,-5010.81 2503.44,-5011.01 2500.52,-5011.1 2497.6,-5011.1 2494.69,-5011.01 2491.77,-5010.81 2488.86,-5010.53 2485.96,-5010.14 2483.06,-5009.66 2480.18,-5009.09 2477.31,-5008.43 2474.47,-5007.68 2471.64,-5006.84 2468.84,-5005.92 2466.07,-5004.92 2463.34,-5003.83 2460.64,-5002.67 2458,-5001.44 2455.41,-5000.13 2452.88,-4998.76 2450.42,-4997.33 2448.04,-4995.83 2445.74,-4994.29 2443.53,-4992.69 2441.43,-4991.04 2439.45,-4989.36 2437.58,-4987.63 2435.85,-4985.88 2434.25,-4984.1 2432.81,-4982.29 2431.53,-4980.47 2430.42,-4978.63 2429.49,-4976.79 2428.74,-4974.95 2428.19,-4973.1 2427.85,-4971.27 2427.71,-4969.45 2427.8,-4967.64 2428.1,-4965.86 2428.63,-4964.1 2429.39,-4962.38 2430.38,-4960.69 2431.61,-4959.05 2433.07,-4957.45 2434.76,-4955.9 2436.68,-4954.41 2438.83,-4952.98 2441.21,-4951.61 2443.8,-4950.3 2446.6,-4949.07 2449.6,-4947.91 2452.79,-4946.82 2456.17,-4945.82 2459.71,-4944.89 2463.41,-4944.05 2467.26,-4943.3 2471.23,-4942.64 2475.32,-4942.07 2479.5,-4941.6 2483.76,-4941.21 2488.09,-4940.92 2492.46,-4940.73 2496.86,-4940.63 2501.27,-4940.63 2505.67,-4940.73"/>
<text text-anchor="start" x="2469.89" y="-4985.67" font-family="Times,serif" font-size="14.00">C2700446</text>
<text text-anchor="start" x="2459.8" y="-4971.67" font-family="Times,serif" font-size="14.00">self &#45; reported</text>
<text text-anchor="start" x="2476.12" y="-4957.67" font-family="Times,serif" font-size="14.00">196:198</text>
</g>
<!-- id_27665258_DOT_9&#45;&#45;id_27665258_DOT_27 -->
<g id="edge25" class="edge">
<title>id_27665258_DOT_9&#45;&#45;id_27665258_DOT_27</title>
<path fill="none" stroke="black" stroke-dasharray="1,5" d="M2642.37,-4641.46C2612.11,-4712.08 2544.18,-4870.59 2514,-4941.01"/>
<text text-anchor="middle" x="2551.94" y="-4794.03" font-family="Times,serif" font-size="14.00">0.603163</text>
</g>
<!-- id_27665258_DOT_29 -->
<g id="node29" class="node">
<title>id_27665258_DOT_29</title>
<polygon fill="cornflowerblue" stroke="cornflowerblue" points="2784.87,-4149.52 2791.07,-4149.71 2797.21,-4150 2803.26,-4150.38 2809.19,-4150.86 2814.98,-4151.43 2820.62,-4152.09 2826.07,-4152.84 2831.32,-4153.68 2836.35,-4154.6 2841.14,-4155.61 2845.67,-4156.69 2849.93,-4157.85 2853.9,-4159.09 2857.57,-4160.39 2860.94,-4161.77 2863.99,-4163.2 2866.72,-4164.69 2869.12,-4166.24 2871.19,-4167.84 2872.92,-4169.48 2874.33,-4171.17 2875.41,-4172.89 2876.16,-4174.65 2876.59,-4176.43 2876.71,-4178.23 2876.52,-4180.06 2876.03,-4181.89 2875.25,-4183.73 2874.19,-4185.58 2872.87,-4187.42 2871.3,-4189.26 2869.48,-4191.08 2867.43,-4192.89 2865.17,-4194.67 2862.71,-4196.42 2860.07,-4198.15 2857.25,-4199.83 2854.27,-4201.48 2851.14,-4203.07 2847.88,-4204.62 2844.5,-4206.11 2841.01,-4207.55 2837.43,-4208.92 2833.75,-4210.22 2830,-4211.46 2826.18,-4212.62 2822.31,-4213.71 2818.38,-4214.71 2814.41,-4215.63 2810.4,-4216.47 2806.36,-4217.22 2802.29,-4217.88 2798.2,-4218.45 2794.1,-4218.93 2789.98,-4219.31 2785.85,-4219.6 2781.72,-4219.8 2777.58,-4219.89 2773.44,-4219.89 2769.3,-4219.8 2765.16,-4219.6 2761.04,-4219.31 2756.92,-4218.93 2752.81,-4218.45 2748.73,-4217.88 2744.66,-4217.22 2740.62,-4216.47 2736.61,-4215.63 2732.64,-4214.71 2728.71,-4213.71 2724.83,-4212.62 2721.01,-4211.46 2717.26,-4210.22 2713.59,-4208.92 2710,-4207.55 2706.51,-4206.11 2703.13,-4204.62 2699.87,-4203.07 2696.75,-4201.48 2693.77,-4199.83 2690.95,-4198.15 2688.3,-4196.42 2685.84,-4194.67 2683.58,-4192.89 2681.54,-4191.08 2679.72,-4189.26 2678.15,-4187.42 2676.82,-4185.58 2675.77,-4183.73 2674.99,-4181.89 2674.5,-4180.06 2674.31,-4178.23 2674.43,-4176.43 2674.86,-4174.65 2675.61,-4172.89 2676.68,-4171.17 2678.09,-4169.48 2679.83,-4167.84 2681.9,-4166.24 2684.3,-4164.69 2687.03,-4163.2 2690.08,-4161.77 2693.45,-4160.39 2697.12,-4159.09 2701.09,-4157.85 2705.35,-4156.69 2709.88,-4155.61 2714.67,-4154.6 2719.69,-4153.68 2724.94,-4152.84 2730.4,-4152.09 2736.03,-4151.43 2741.83,-4150.86 2747.76,-4150.38 2753.81,-4150 2759.94,-4149.71 2766.14,-4149.52 2772.38,-4149.42 2778.63,-4149.42 2784.87,-4149.52"/>
<text text-anchor="start" x="2746.34" y="-4194.46" font-family="Times,serif" font-size="14.00">C0023981</text>
<text text-anchor="start" x="2716.21" y="-4180.46" font-family="Times,serif" font-size="14.00">longitudinal analyses</text>
<text text-anchor="start" x="2752.56" y="-4166.46" font-family="Times,serif" font-size="14.00">206:207</text>
</g>
<!-- id_27665258_DOT_9&#45;&#45;id_27665258_DOT_29 -->
<g id="edge26" class="edge">
<title>id_27665258_DOT_9&#45;&#45;id_27665258_DOT_29</title>
<path fill="none" stroke="black" stroke-dasharray="1,5" d="M2667.28,-4571.13C2689.54,-4491.65 2743.44,-4299.17 2765.67,-4219.78"/>
<text text-anchor="middle" x="2690.23" y="-4398.26" font-family="Times,serif" font-size="14.00">0.885563</text>
</g>
<!-- id_27665258_DOT_17 -->
<g id="node17" class="node">
<title>id_27665258_DOT_17</title>
<polygon fill="bisque" stroke="bisque" points="815.98,-626.35 820.22,-626.55 824.43,-626.84 828.57,-627.22 832.64,-627.7 836.61,-628.27 840.47,-628.93 844.21,-629.68 847.8,-630.52 851.25,-631.44 854.53,-632.44 857.63,-633.53 860.55,-634.69 863.27,-635.93 865.79,-637.23 868.09,-638.6 870.18,-640.04 872.05,-641.53 873.7,-643.08 875.12,-644.67 876.31,-646.32 877.27,-648 878.01,-649.73 878.52,-651.48 878.82,-653.26 878.9,-655.07 878.77,-656.89 878.43,-658.73 877.9,-660.57 877.17,-662.42 876.27,-664.26 875.19,-666.09 873.94,-667.92 872.54,-669.72 871,-671.5 869.31,-673.26 867.5,-674.98 865.57,-676.67 863.52,-678.31 861.38,-679.91 859.15,-681.46 856.83,-682.95 854.44,-684.38 851.98,-685.76 849.47,-687.06 846.9,-688.3 844.28,-689.46 841.62,-690.54 838.93,-691.55 836.21,-692.47 833.46,-693.31 830.7,-694.06 827.91,-694.72 825.11,-695.29 822.3,-695.77 819.48,-696.15 816.65,-696.44 813.81,-696.63 810.98,-696.73 808.14,-696.73 805.31,-696.63 802.47,-696.44 799.65,-696.15 796.82,-695.77 794.01,-695.29 791.21,-694.72 788.42,-694.06 785.66,-693.31 782.91,-692.47 780.19,-691.55 777.5,-690.54 774.84,-689.46 772.22,-688.3 769.65,-687.06 767.14,-685.76 764.68,-684.38 762.29,-682.95 759.97,-681.46 757.74,-679.91 755.6,-678.31 753.56,-676.67 751.62,-674.98 749.81,-673.26 748.12,-671.5 746.58,-669.72 745.18,-667.92 743.93,-666.09 742.85,-664.26 741.95,-662.42 741.22,-660.57 740.69,-658.73 740.35,-656.89 740.22,-655.07 740.3,-653.26 740.6,-651.48 741.11,-649.73 741.85,-648 742.81,-646.32 744.01,-644.67 745.42,-643.08 747.07,-641.53 748.94,-640.04 751.03,-638.6 753.33,-637.23 755.85,-635.93 758.57,-634.69 761.49,-633.53 764.59,-632.44 767.87,-631.44 771.32,-630.52 774.92,-629.68 778.65,-628.93 782.51,-628.27 786.48,-627.7 790.55,-627.22 794.69,-626.84 798.9,-626.55 803.14,-626.35 807.42,-626.26 811.7,-626.26 815.98,-626.35"/>
<text text-anchor="start" x="780.39" y="-671.29" font-family="Times,serif" font-size="14.00">C0086045</text>
<text text-anchor="start" x="771.47" y="-657.29" font-family="Times,serif" font-size="14.00">concentration</text>
<text text-anchor="start" x="786.62" y="-643.29" font-family="Times,serif" font-size="14.00">125:125</text>
</g>
<!-- id_27665258_DOT_10&#45;&#45;id_27665258_DOT_17 -->
<g id="edge6" class="edge">
<title>id_27665258_DOT_10&#45;&#45;id_27665258_DOT_17</title>
<path fill="none" stroke="black" d="M1005.25,-939.37C962.67,-878.91 874.29,-753.41 832.46,-694.01"/>
<text text-anchor="middle" x="892.6" y="-819.49" font-family="Times,serif" font-size="14.00">0.007917</text>
</g>
<!-- id_27665258_DOT_11 -->
<g id="node11" class="node">
<title>id_27665258_DOT_11</title>
<polygon fill="chartreuse" stroke="chartreuse" points="4341.84,-4502.66 4345.27,-4502.85 4348.66,-4503.14 4352,-4503.52 4355.28,-4504 4358.49,-4504.57 4361.6,-4505.23 4364.62,-4505.98 4367.52,-4506.82 4370.3,-4507.75 4372.95,-4508.75 4375.45,-4509.83 4377.81,-4511 4380,-4512.23 4382.04,-4513.54 4383.9,-4514.91 4385.58,-4516.34 4387.09,-4517.83 4388.42,-4519.38 4389.56,-4520.98 4390.53,-4522.62 4391.3,-4524.31 4391.9,-4526.03 4392.32,-4527.79 4392.55,-4529.57 4392.62,-4531.38 4392.51,-4533.2 4392.24,-4535.03 4391.81,-4536.88 4391.23,-4538.72 4390.5,-4540.56 4389.62,-4542.4 4388.62,-4544.22 4387.49,-4546.03 4386.24,-4547.81 4384.88,-4549.56 4383.42,-4551.29 4381.86,-4552.97 4380.21,-4554.62 4378.48,-4556.22 4376.68,-4557.76 4374.81,-4559.26 4372.88,-4560.69 4370.9,-4562.06 4368.87,-4563.37 4366.79,-4564.6 4364.68,-4565.76 4362.54,-4566.85 4360.36,-4567.85 4358.17,-4568.77 4355.95,-4569.61 4353.72,-4570.36 4351.47,-4571.02 4349.21,-4571.59 4346.94,-4572.07 4344.66,-4572.46 4342.38,-4572.74 4340.09,-4572.94 4337.81,-4573.03 4335.52,-4573.03 4333.23,-4572.94 4330.94,-4572.74 4328.66,-4572.46 4326.38,-4572.07 4324.11,-4571.59 4321.85,-4571.02 4319.6,-4570.36 4317.37,-4569.61 4315.15,-4568.77 4312.96,-4567.85 4310.78,-4566.85 4308.64,-4565.76 4306.53,-4564.6 4304.46,-4563.37 4302.42,-4562.06 4300.44,-4560.69 4298.51,-4559.26 4296.64,-4557.76 4294.84,-4556.22 4293.11,-4554.62 4291.46,-4552.97 4289.9,-4551.29 4288.44,-4549.56 4287.08,-4547.81 4285.83,-4546.03 4284.7,-4544.22 4283.7,-4542.4 4282.83,-4540.56 4282.09,-4538.72 4281.51,-4536.88 4281.08,-4535.03 4280.81,-4533.2 4280.7,-4531.38 4280.77,-4529.57 4281.01,-4527.79 4281.42,-4526.03 4282.02,-4524.31 4282.8,-4522.62 4283.76,-4520.98 4284.9,-4519.38 4286.23,-4517.83 4287.74,-4516.34 4289.42,-4514.91 4291.29,-4513.54 4293.32,-4512.23 4295.51,-4511 4297.87,-4509.83 4300.37,-4508.75 4303.02,-4507.75 4305.8,-4506.82 4308.7,-4505.98 4311.72,-4505.23 4314.83,-4504.57 4318.04,-4504 4321.32,-4503.52 4324.66,-4503.14 4328.05,-4502.85 4331.48,-4502.66 4334.93,-4502.56 4338.39,-4502.56 4341.84,-4502.66"/>
<text text-anchor="start" x="4307.49" y="-4547.6" font-family="Times,serif" font-size="14.00">C0282574</text>
<text text-anchor="start" x="4318.9" y="-4533.6" font-family="Times,serif" font-size="14.00">FAKT</text>
<text text-anchor="start" x="4313.72" y="-4519.6" font-family="Times,serif" font-size="14.00">100:100</text>
</g>
<!-- id_27665258_DOT_30 -->
<g id="node30" class="node">
<title>id_27665258_DOT_30</title>
<polygon fill="darksalmon" stroke="darksalmon" points="3981.19,-4406.7 3984.62,-4406.9 3988.01,-4407.18 3991.36,-4407.57 3994.64,-4408.05 3997.84,-4408.62 4000.96,-4409.28 4003.97,-4410.03 4006.88,-4410.87 4009.66,-4411.79 4012.3,-4412.79 4014.81,-4413.88 4017.16,-4415.04 4019.36,-4416.27 4021.39,-4417.58 4023.25,-4418.95 4024.94,-4420.38 4026.45,-4421.88 4027.77,-4423.42 4028.92,-4425.02 4029.88,-4426.67 4030.66,-4428.35 4031.25,-4430.08 4031.67,-4431.83 4031.91,-4433.61 4031.97,-4435.42 4031.86,-4437.24 4031.59,-4439.08 4031.16,-4440.92 4030.58,-4442.76 4029.85,-4444.61 4028.98,-4446.44 4027.97,-4448.26 4026.84,-4450.07 4025.59,-4451.85 4024.23,-4453.61 4022.77,-4455.33 4021.21,-4457.02 4019.56,-4458.66 4017.83,-4460.26 4016.03,-4461.81 4014.16,-4463.3 4012.23,-4464.73 4010.25,-4466.1 4008.22,-4467.41 4006.14,-4468.64 4004.03,-4469.8 4001.89,-4470.89 3999.72,-4471.89 3997.52,-4472.82 3995.3,-4473.66 3993.07,-4474.41 3990.82,-4475.07 3988.56,-4475.64 3986.29,-4476.11 3984.02,-4476.5 3981.73,-4476.79 3979.45,-4476.98 3977.16,-4477.08 3974.87,-4477.08 3972.58,-4476.98 3970.29,-4476.79 3968.01,-4476.5 3965.73,-4476.11 3963.46,-4475.64 3961.2,-4475.07 3958.96,-4474.41 3956.72,-4473.66 3954.51,-4472.82 3952.31,-4471.89 3950.14,-4470.89 3947.99,-4469.8 3945.88,-4468.64 3943.81,-4467.41 3941.78,-4466.1 3939.79,-4464.73 3937.86,-4463.3 3935.99,-4461.81 3934.19,-4460.26 3932.46,-4458.66 3930.82,-4457.02 3929.26,-4455.33 3927.79,-4453.61 3926.43,-4451.85 3925.18,-4450.07 3924.05,-4448.26 3923.05,-4446.44 3922.18,-4444.61 3921.45,-4442.76 3920.86,-4440.92 3920.43,-4439.08 3920.16,-4437.24 3920.06,-4435.42 3920.12,-4433.61 3920.36,-4431.83 3920.77,-4430.08 3921.37,-4428.35 3922.15,-4426.67 3923.11,-4425.02 3924.25,-4423.42 3925.58,-4421.88 3927.09,-4420.38 3928.78,-4418.95 3930.64,-4417.58 3932.67,-4416.27 3934.87,-4415.04 3937.22,-4413.88 3939.72,-4412.79 3942.37,-4411.79 3945.15,-4410.87 3948.05,-4410.03 3951.07,-4409.28 3954.19,-4408.62 3957.39,-4408.05 3960.67,-4407.57 3964.01,-4407.18 3967.41,-4406.9 3970.84,-4406.7 3974.28,-4406.61 3977.74,-4406.61 3981.19,-4406.7"/>
<text text-anchor="start" x="3946.84" y="-4451.64" font-family="Times,serif" font-size="14.00">C0449774</text>
<text text-anchor="start" x="3953.85" y="-4437.64" font-family="Times,serif" font-size="14.00">patterns</text>
<text text-anchor="start" x="3953.07" y="-4423.64" font-family="Times,serif" font-size="14.00">221:221</text>
</g>
<!-- id_27665258_DOT_11&#45;&#45;id_27665258_DOT_30 -->
<g id="edge27" class="edge">
<title>id_27665258_DOT_11&#45;&#45;id_27665258_DOT_30</title>
<path fill="none" stroke="black" stroke-dasharray="1,5" d="M4282.28,-4523.33C4211.93,-4504.61 4090.5,-4472.3 4023.63,-4454.51"/>
<text text-anchor="middle" x="4126.7" y="-4491.72" font-family="Times,serif" font-size="14.00">0.938684</text>
</g>
<!-- id_27665258_DOT_13 -->
<g id="node13" class="node">
<title>id_27665258_DOT_13</title>
<polygon fill="cornflowerblue" stroke="cornflowerblue" points="2567.74,-3754.17 2571.6,-3754.36 2575.42,-3754.65 2579.18,-3755.04 2582.87,-3755.51 2586.48,-3756.08 2589.99,-3756.75 2593.39,-3757.5 2596.65,-3758.33 2599.78,-3759.26 2602.76,-3760.26 2605.58,-3761.35 2608.23,-3762.51 2610.71,-3763.74 2612.99,-3765.05 2615.09,-3766.42 2616.99,-3767.85 2618.69,-3769.35 2620.18,-3770.89 2621.47,-3772.49 2622.55,-3774.14 2623.43,-3775.82 2624.1,-3777.54 2624.57,-3779.3 2624.83,-3781.08 2624.91,-3782.89 2624.79,-3784.71 2624.48,-3786.55 2624,-3788.39 2623.34,-3790.23 2622.52,-3792.08 2621.54,-3793.91 2620.41,-3795.73 2619.13,-3797.54 2617.73,-3799.32 2616.2,-3801.08 2614.55,-3802.8 2612.79,-3804.49 2610.94,-3806.13 2608.99,-3807.73 2606.96,-3809.28 2604.86,-3810.77 2602.69,-3812.2 2600.45,-3813.57 2598.17,-3814.88 2595.83,-3816.11 2593.45,-3817.27 2591.04,-3818.36 2588.6,-3819.36 2586.12,-3820.29 2583.63,-3821.12 2581.11,-3821.88 2578.58,-3822.54 2576.04,-3823.11 2573.48,-3823.58 2570.92,-3823.97 2568.35,-3824.26 2565.77,-3824.45 2563.2,-3824.55 2560.62,-3824.55 2558.04,-3824.45 2555.47,-3824.26 2552.9,-3823.97 2550.34,-3823.58 2547.78,-3823.11 2545.24,-3822.54 2542.7,-3821.88 2540.19,-3821.12 2537.69,-3820.29 2535.22,-3819.36 2532.78,-3818.36 2530.36,-3817.27 2527.98,-3816.11 2525.65,-3814.88 2523.36,-3813.57 2521.13,-3812.2 2518.96,-3810.77 2516.85,-3809.28 2514.82,-3807.73 2512.88,-3806.13 2511.02,-3804.49 2509.27,-3802.8 2507.62,-3801.08 2506.09,-3799.32 2504.68,-3797.54 2503.41,-3795.73 2502.28,-3793.91 2501.3,-3792.08 2500.47,-3790.23 2499.82,-3788.39 2499.33,-3786.55 2499.03,-3784.71 2498.91,-3782.89 2498.98,-3781.08 2499.25,-3779.3 2499.72,-3777.54 2500.39,-3775.82 2501.26,-3774.14 2502.35,-3772.49 2503.63,-3770.89 2505.13,-3769.35 2506.83,-3767.85 2508.73,-3766.42 2510.82,-3765.05 2513.11,-3763.74 2515.58,-3762.51 2518.23,-3761.35 2521.05,-3760.26 2524.03,-3759.26 2527.16,-3758.33 2530.43,-3757.5 2533.82,-3756.75 2537.33,-3756.08 2540.94,-3755.51 2544.63,-3755.04 2548.4,-3754.65 2552.22,-3754.36 2556.08,-3754.17 2559.96,-3754.08 2563.85,-3754.08 2567.74,-3754.17"/>
<text text-anchor="start" x="2532.74" y="-3799.11" font-family="Times,serif" font-size="14.00">C0023981</text>
<text text-anchor="start" x="2528.08" y="-3785.11" font-family="Times,serif" font-size="14.00">longitudinal</text>
<text text-anchor="start" x="2538.96" y="-3771.11" font-family="Times,serif" font-size="14.00">106:106</text>
</g>
<!-- id_27665258_DOT_12&#45;&#45;id_27665258_DOT_13 -->
<g id="edge28" class="edge">
<title>id_27665258_DOT_12&#45;&#45;id_27665258_DOT_13</title>
<path fill="none" stroke="black" stroke-dasharray="1,5" d="M2430.13,-3425.6C2457.43,-3500.94 2521.91,-3678.93 2549.28,-3754.45"/>
<text text-anchor="middle" x="2463.45" y="-3592.82" font-family="Times,serif" font-size="14.00">0.776354</text>
</g>
<!-- id_27665258_DOT_22 -->
<g id="node22" class="node">
<title>id_27665258_DOT_22</title>
<polygon fill="coral" stroke="coral" points="2100.15,-3082.53 2107.39,-3082.72 2114.55,-3083.01 2121.61,-3083.39 2128.54,-3083.87 2135.3,-3084.44 2141.88,-3085.1 2148.24,-3085.85 2154.37,-3086.69 2160.24,-3087.61 2165.83,-3088.62 2171.12,-3089.7 2176.09,-3090.86 2180.72,-3092.1 2185.01,-3093.4 2188.94,-3094.78 2192.5,-3096.21 2195.69,-3097.7 2198.49,-3099.25 2200.91,-3100.85 2202.94,-3102.49 2204.58,-3104.18 2205.84,-3105.9 2206.71,-3107.66 2207.22,-3109.44 2207.35,-3111.24 2207.13,-3113.07 2206.56,-3114.9 2205.65,-3116.74 2204.42,-3118.59 2202.87,-3120.43 2201.03,-3122.27 2198.91,-3124.09 2196.53,-3125.9 2193.89,-3127.68 2191.02,-3129.43 2187.93,-3131.16 2184.64,-3132.84 2181.16,-3134.49 2177.51,-3136.08 2173.7,-3137.63 2169.76,-3139.12 2165.68,-3140.56 2161.5,-3141.93 2157.21,-3143.23 2152.83,-3144.47 2148.37,-3145.63 2143.85,-3146.72 2139.26,-3147.72 2134.62,-3148.64 2129.94,-3149.48 2125.23,-3150.23 2120.48,-3150.89 2115.71,-3151.46 2110.92,-3151.94 2106.11,-3152.32 2101.29,-3152.61 2096.47,-3152.81 2091.64,-3152.9 2086.8,-3152.9 2081.97,-3152.81 2077.14,-3152.61 2072.33,-3152.32 2067.52,-3151.94 2062.73,-3151.46 2057.96,-3150.89 2053.21,-3150.23 2048.49,-3149.48 2043.81,-3148.64 2039.18,-3147.72 2034.59,-3146.72 2030.06,-3145.63 2025.61,-3144.47 2021.23,-3143.23 2016.94,-3141.93 2012.75,-3140.56 2008.68,-3139.12 2004.73,-3137.63 2000.93,-3136.08 1997.28,-3134.49 1993.8,-3132.84 1990.51,-3131.16 1987.42,-3129.43 1984.55,-3127.68 1981.91,-3125.9 1979.53,-3124.09 1977.4,-3122.27 1975.56,-3120.43 1974.02,-3118.59 1972.79,-3116.74 1971.88,-3114.9 1971.31,-3113.07 1971.09,-3111.24 1971.22,-3109.44 1971.72,-3107.66 1972.6,-3105.9 1973.86,-3104.18 1975.5,-3102.49 1977.53,-3100.85 1979.95,-3099.25 1982.75,-3097.7 1985.93,-3096.21 1989.49,-3094.78 1993.42,-3093.4 1997.71,-3092.1 2002.35,-3090.86 2007.32,-3089.7 2012.61,-3088.62 2018.2,-3087.61 2024.06,-3086.69 2030.19,-3085.85 2036.56,-3085.1 2043.14,-3084.44 2049.9,-3083.87 2056.83,-3083.39 2063.89,-3083.01 2071.05,-3082.72 2078.29,-3082.53 2085.57,-3082.43 2092.87,-3082.43 2100.15,-3082.53"/>
<text text-anchor="start" x="2060.05" y="-3127.47" font-family="Times,serif" font-size="14.00">C0010362</text>
<text text-anchor="start" x="2018.66" y="-3113.47" font-family="Times,serif" font-size="14.00">cross &#45; sectional analyses</text>
<text text-anchor="start" x="2066.27" y="-3099.47" font-family="Times,serif" font-size="14.00">163:166</text>
</g>
<!-- id_27665258_DOT_12&#45;&#45;id_27665258_DOT_22 -->
<g id="edge7" class="edge">
<title>id_27665258_DOT_12&#45;&#45;id_27665258_DOT_22</title>
<path fill="none" stroke="black" d="M2378.62,-3358.52C2315.34,-3305.85 2190.95,-3202.33 2127.87,-3149.83"/>
<text text-anchor="middle" x="2226.99" y="-3256.98" font-family="Times,serif" font-size="14.00">0.013591</text>
</g>
<!-- id_27665258_DOT_13&#45;&#45;id_27665258_DOT_29 -->
<g id="edge8" class="edge">
<title>id_27665258_DOT_13&#45;&#45;id_27665258_DOT_29</title>
<path fill="none" stroke="black" d="M2579.75,-3822.34C2619.66,-3896.2 2715.81,-4074.17 2756.65,-4149.75"/>
<text text-anchor="middle" x="2641.95" y="-3988.85" font-family="Times,serif" font-size="14.00">0.144247</text>
</g>
<!-- id_27665258_DOT_14 -->
<g id="node14" class="node">
<title>id_27665258_DOT_14</title>
<polygon fill="crimson" stroke="crimson" points="3072.4,-3954.59 3076,-3954.78 3079.57,-3955.07 3083.08,-3955.46 3086.53,-3955.93 3089.9,-3956.5 3093.17,-3957.17 3096.34,-3957.92 3099.39,-3958.75 3102.31,-3959.68 3105.09,-3960.68 3107.72,-3961.77 3110.2,-3962.93 3112.5,-3964.16 3114.64,-3965.47 3116.59,-3966.84 3118.37,-3968.27 3119.95,-3969.77 3121.35,-3971.31 3122.55,-3972.91 3123.56,-3974.56 3124.38,-3976.24 3125,-3977.96 3125.44,-3979.72 3125.69,-3981.5 3125.76,-3983.31 3125.64,-3985.13 3125.36,-3986.96 3124.91,-3988.81 3124.29,-3990.65 3123.53,-3992.5 3122.61,-3994.33 3121.56,-3996.15 3120.37,-3997.96 3119.05,-3999.74 3117.63,-4001.5 3116.09,-4003.22 3114.45,-4004.9 3112.72,-4006.55 3110.9,-4008.15 3109.01,-4009.69 3107.05,-4011.19 3105.02,-4012.62 3102.93,-4013.99 3100.8,-4015.3 3098.62,-4016.53 3096.4,-4017.69 3094.15,-4018.78 3091.87,-4019.78 3089.56,-4020.71 3087.23,-4021.54 3084.88,-4022.29 3082.52,-4022.96 3080.15,-4023.53 3077.76,-4024 3075.37,-4024.39 3072.97,-4024.68 3070.57,-4024.87 3068.16,-4024.97 3065.76,-4024.97 3063.35,-4024.87 3060.95,-4024.68 3058.55,-4024.39 3056.16,-4024 3053.78,-4023.53 3051.4,-4022.96 3049.04,-4022.29 3046.69,-4021.54 3044.36,-4020.71 3042.06,-4019.78 3039.77,-4018.78 3037.52,-4017.69 3035.3,-4016.53 3033.12,-4015.3 3030.99,-4013.99 3028.9,-4012.62 3026.88,-4011.19 3024.91,-4009.69 3023.02,-4008.15 3021.2,-4006.55 3019.47,-4004.9 3017.83,-4003.22 3016.3,-4001.5 3014.87,-3999.74 3013.55,-3997.96 3012.37,-3996.15 3011.31,-3994.33 3010.4,-3992.5 3009.63,-3990.65 3009.01,-3988.81 3008.56,-3986.96 3008.28,-3985.13 3008.17,-3983.31 3008.23,-3981.5 3008.48,-3979.72 3008.92,-3977.96 3009.55,-3976.24 3010.36,-3974.56 3011.37,-3972.91 3012.58,-3971.31 3013.97,-3969.77 3015.56,-3968.27 3017.33,-3966.84 3019.28,-3965.47 3021.42,-3964.16 3023.73,-3962.93 3026.2,-3961.77 3028.83,-3960.68 3031.61,-3959.68 3034.53,-3958.75 3037.58,-3957.92 3040.75,-3957.17 3044.03,-3956.5 3047.39,-3955.93 3050.84,-3955.46 3054.35,-3955.07 3057.92,-3954.78 3061.52,-3954.59 3065.15,-3954.49 3068.78,-3954.49 3072.4,-3954.59"/>
<text text-anchor="start" x="3037.79" y="-3999.53" font-family="Times,serif" font-size="14.00">C0589120</text>
<text text-anchor="start" x="3035.85" y="-3985.53" font-family="Times,serif" font-size="14.00">follow &#45; up</text>
<text text-anchor="start" x="3044.53" y="-3971.53" font-family="Times,serif" font-size="14.00">110:112</text>
</g>
<!-- id_27665258_DOT_14&#45;&#45;id_27665258_DOT_29 -->
<g id="edge29" class="edge">
<title>id_27665258_DOT_14&#45;&#45;id_27665258_DOT_29</title>
<path fill="none" stroke="black" stroke-dasharray="1,5" d="M3030.64,-4014.02C2978.37,-4048.98 2881.87,-4113.52 2823.7,-4152.43"/>
<text text-anchor="middle" x="2900.92" y="-4086.03" font-family="Times,serif" font-size="14.00">0.738022</text>
</g>
<!-- id_27665258_DOT_15 -->
<g id="node15" class="node">
<title>id_27665258_DOT_15</title>
<polygon fill="darkgoldenrod" stroke="darkgoldenrod" points="3607.72,-4323.71 3611.15,-4323.91 3614.54,-4324.19 3617.89,-4324.58 3621.17,-4325.06 3624.37,-4325.63 3627.49,-4326.29 3630.5,-4327.04 3633.41,-4327.88 3636.19,-4328.8 3638.83,-4329.8 3641.34,-4330.89 3643.69,-4332.05 3645.89,-4333.28 3647.92,-4334.59 3649.78,-4335.96 3651.47,-4337.39 3652.98,-4338.89 3654.3,-4340.43 3655.45,-4342.03 3656.41,-4343.68 3657.19,-4345.36 3657.78,-4347.09 3658.2,-4348.84 3658.44,-4350.62 3658.5,-4352.43 3658.4,-4354.25 3658.13,-4356.09 3657.69,-4357.93 3657.11,-4359.77 3656.38,-4361.62 3655.51,-4363.45 3654.5,-4365.27 3653.37,-4367.08 3652.12,-4368.86 3650.76,-4370.62 3649.3,-4372.34 3647.74,-4374.03 3646.09,-4375.67 3644.37,-4377.27 3642.56,-4378.82 3640.69,-4380.31 3638.77,-4381.74 3636.78,-4383.11 3634.75,-4384.42 3632.68,-4385.65 3630.57,-4386.82 3628.42,-4387.9 3626.25,-4388.9 3624.05,-4389.83 3621.84,-4390.67 3619.6,-4391.42 3617.35,-4392.08 3615.09,-4392.65 3612.82,-4393.12 3610.55,-4393.51 3608.26,-4393.8 3605.98,-4393.99 3603.69,-4394.09 3601.4,-4394.09 3599.11,-4393.99 3596.83,-4393.8 3594.54,-4393.51 3592.27,-4393.12 3590,-4392.65 3587.74,-4392.08 3585.49,-4391.42 3583.25,-4390.67 3581.04,-4389.83 3578.84,-4388.9 3576.67,-4387.9 3574.53,-4386.82 3572.41,-4385.65 3570.34,-4384.42 3568.31,-4383.11 3566.32,-4381.74 3564.4,-4380.31 3562.53,-4378.82 3560.72,-4377.27 3559,-4375.67 3557.35,-4374.03 3555.79,-4372.34 3554.33,-4370.62 3552.97,-4368.86 3551.72,-4367.08 3550.59,-4365.27 3549.58,-4363.45 3548.71,-4361.62 3547.98,-4359.77 3547.4,-4357.93 3546.97,-4356.09 3546.69,-4354.25 3546.59,-4352.43 3546.65,-4350.62 3546.89,-4348.84 3547.31,-4347.09 3547.9,-4345.36 3548.68,-4343.68 3549.64,-4342.03 3550.79,-4340.43 3552.11,-4338.89 3553.62,-4337.39 3555.31,-4335.96 3557.17,-4334.59 3559.2,-4333.28 3561.4,-4332.05 3563.75,-4330.89 3566.26,-4329.8 3568.9,-4328.8 3571.68,-4327.88 3574.59,-4327.04 3577.6,-4326.29 3580.72,-4325.63 3583.92,-4325.06 3587.2,-4324.58 3590.55,-4324.19 3593.94,-4323.91 3597.37,-4323.71 3600.82,-4323.62 3604.27,-4323.62 3607.72,-4323.71"/>
<text text-anchor="start" x="3573.38" y="-4368.65" font-family="Times,serif" font-size="14.00">C0936012</text>
<text text-anchor="start" x="3578.83" y="-4354.65" font-family="Times,serif" font-size="14.00">analyses</text>
<text text-anchor="start" x="3580.11" y="-4340.65" font-family="Times,serif" font-size="14.00">114:114</text>
</g>
<!-- id_27665258_DOT_15&#45;&#45;id_27665258_DOT_30 -->
<g id="edge30" class="edge">
<title>id_27665258_DOT_15&#45;&#45;id_27665258_DOT_30</title>
<path fill="none" stroke="black" stroke-dasharray="1,5" d="M3651.75,-4369.79C3721.38,-4385.26 3848.23,-4413.45 3920.92,-4429.6"/>
<text text-anchor="middle" x="3760.09" y="-4402.49" font-family="Times,serif" font-size="14.00">0.880089</text>
</g>
<!-- id_27665258_DOT_31 -->
<g id="node31" class="node">
<title>id_27665258_DOT_31</title>
<polygon fill="cornflowerblue" stroke="cornflowerblue" points="3211.84,-4270.69 3218.04,-4270.88 3224.17,-4271.17 3230.22,-4271.56 3236.15,-4272.03 3241.95,-4272.6 3247.58,-4273.27 3253.04,-4274.02 3258.29,-4274.85 3263.32,-4275.78 3268.1,-4276.78 3272.63,-4277.87 3276.89,-4279.03 3280.86,-4280.26 3284.54,-4281.57 3287.9,-4282.94 3290.95,-4284.37 3293.68,-4285.87 3296.08,-4287.41 3298.15,-4289.01 3299.89,-4290.66 3301.3,-4292.34 3302.37,-4294.06 3303.13,-4295.82 3303.56,-4297.6 3303.67,-4299.41 3303.48,-4301.23 3302.99,-4303.06 3302.21,-4304.91 3301.16,-4306.75 3299.84,-4308.6 3298.26,-4310.43 3296.44,-4312.25 3294.4,-4314.06 3292.14,-4315.84 3289.68,-4317.6 3287.03,-4319.32 3284.21,-4321 3281.23,-4322.65 3278.11,-4324.25 3274.85,-4325.79 3271.47,-4327.29 3267.98,-4328.72 3264.39,-4330.09 3260.72,-4331.4 3256.97,-4332.63 3253.15,-4333.79 3249.27,-4334.88 3245.34,-4335.88 3241.37,-4336.81 3237.36,-4337.64 3233.32,-4338.39 3229.25,-4339.06 3225.17,-4339.63 3221.06,-4340.1 3216.94,-4340.49 3212.82,-4340.78 3208.68,-4340.97 3204.54,-4341.07 3200.4,-4341.07 3196.26,-4340.97 3192.13,-4340.78 3188,-4340.49 3183.88,-4340.1 3179.78,-4339.63 3175.69,-4339.06 3171.63,-4338.39 3167.58,-4337.64 3163.58,-4336.81 3159.6,-4335.88 3155.68,-4334.88 3151.8,-4333.79 3147.98,-4332.63 3144.23,-4331.4 3140.55,-4330.09 3136.97,-4328.72 3133.48,-4327.29 3130.1,-4325.79 3126.84,-4324.25 3123.71,-4322.65 3120.73,-4321 3117.91,-4319.32 3115.27,-4317.6 3112.81,-4315.84 3110.55,-4314.06 3108.5,-4312.25 3106.69,-4310.43 3105.11,-4308.6 3103.79,-4306.75 3102.73,-4304.91 3101.95,-4303.06 3101.47,-4301.23 3101.27,-4299.41 3101.39,-4297.6 3101.82,-4295.82 3102.57,-4294.06 3103.65,-4292.34 3105.06,-4290.66 3106.79,-4289.01 3108.86,-4287.41 3111.27,-4285.87 3113.99,-4284.37 3117.04,-4282.94 3120.41,-4281.57 3124.08,-4280.26 3128.06,-4279.03 3132.31,-4277.87 3136.84,-4276.78 3141.63,-4275.78 3146.66,-4274.85 3151.91,-4274.02 3157.36,-4273.27 3163,-4272.6 3168.79,-4272.03 3174.73,-4271.56 3180.77,-4271.17 3186.91,-4270.88 3193.11,-4270.69 3199.35,-4270.59 3205.6,-4270.59 3211.84,-4270.69"/>
<text text-anchor="start" x="3173.3" y="-4315.63" font-family="Times,serif" font-size="14.00">C0023981</text>
<text text-anchor="start" x="3143.18" y="-4301.63" font-family="Times,serif" font-size="14.00">longitudinal analyses</text>
<text text-anchor="start" x="3179.53" y="-4287.63" font-family="Times,serif" font-size="14.00">224:225</text>
</g>
<!-- id_27665258_DOT_15&#45;&#45;id_27665258_DOT_31 -->
<g id="edge31" class="edge">
<title>id_27665258_DOT_15&#45;&#45;id_27665258_DOT_31</title>
<path fill="none" stroke="black" stroke-dasharray="1,5" d="M3546.5,-4351.42C3479.94,-4342.6 3368.14,-4327.79 3290.11,-4317.45"/>
<text text-anchor="middle" x="3392.05" y="-4337.23" font-family="Times,serif" font-size="14.00">0.474429</text>
</g>
<!-- id_27665258_DOT_16 -->
<g id="node16" class="node">
<title>id_27665258_DOT_16</title>
<polygon fill="aquamarine" stroke="aquamarine" points="2758.35,-671.87 2764.71,-672.06 2771.01,-672.35 2777.21,-672.74 2783.3,-673.21 2789.25,-673.78 2795.03,-674.44 2800.63,-675.2 2806.02,-676.03 2811.18,-676.96 2816.09,-677.96 2820.74,-679.05 2825.11,-680.21 2829.19,-681.44 2832.96,-682.75 2836.41,-684.12 2839.54,-685.55 2842.34,-687.04 2844.81,-688.59 2846.93,-690.19 2848.72,-691.83 2850.16,-693.52 2851.27,-695.24 2852.04,-697 2852.48,-698.78 2852.6,-700.59 2852.4,-702.41 2851.9,-704.24 2851.1,-706.09 2850.02,-707.93 2848.66,-709.77 2847.04,-711.61 2845.18,-713.43 2843.08,-715.24 2840.76,-717.02 2838.24,-718.78 2835.52,-720.5 2832.63,-722.18 2829.57,-723.83 2826.36,-725.43 2823.02,-726.97 2819.55,-728.47 2815.97,-729.9 2812.28,-731.27 2808.51,-732.58 2804.66,-733.81 2800.74,-734.97 2796.76,-736.06 2792.73,-737.06 2788.66,-737.99 2784.54,-738.82 2780.4,-739.57 2776.22,-740.24 2772.03,-740.81 2767.81,-741.28 2763.59,-741.67 2759.35,-741.96 2755.11,-742.15 2750.86,-742.24 2746.61,-742.24 2742.36,-742.15 2738.12,-741.96 2733.88,-741.67 2729.66,-741.28 2725.44,-740.81 2721.25,-740.24 2717.08,-739.57 2712.93,-738.82 2708.81,-737.99 2704.74,-737.06 2700.71,-736.06 2696.73,-734.97 2692.81,-733.81 2688.96,-732.58 2685.19,-731.27 2681.51,-729.9 2677.92,-728.47 2674.46,-726.97 2671.11,-725.43 2667.9,-723.83 2664.84,-722.18 2661.95,-720.5 2659.23,-718.78 2656.71,-717.02 2654.39,-715.24 2652.29,-713.43 2650.43,-711.61 2648.81,-709.77 2647.45,-707.93 2646.37,-706.09 2645.57,-704.24 2645.07,-702.41 2644.87,-700.59 2644.99,-698.78 2645.43,-697 2646.2,-695.24 2647.31,-693.52 2648.75,-691.83 2650.54,-690.19 2652.66,-688.59 2655.13,-687.04 2657.93,-685.55 2661.06,-684.12 2664.51,-682.75 2668.28,-681.44 2672.36,-680.21 2676.73,-679.05 2681.38,-677.96 2686.29,-676.96 2691.45,-676.03 2696.84,-675.2 2702.44,-674.44 2708.22,-673.78 2714.17,-673.21 2720.26,-672.74 2726.46,-672.35 2732.76,-672.06 2739.12,-671.87 2745.53,-671.77 2751.94,-671.77 2758.35,-671.87"/>
<text text-anchor="start" x="2719.57" y="-716.81" font-family="Times,serif" font-size="14.00">C0233514</text>
<text text-anchor="start" x="2687.89" y="-702.81" font-family="Times,serif" font-size="14.00">behavioural problems</text>
<text text-anchor="start" x="2725.79" y="-688.81" font-family="Times,serif" font-size="14.00">122:123</text>
</g>
<!-- id_27665258_DOT_16&#45;&#45;id_27665258_DOT_23 -->
<g id="edge9" class="edge">
<title>id_27665258_DOT_16&#45;&#45;id_27665258_DOT_23</title>
<path fill="none" stroke="black" d="M2746.15,-742.32C2740.57,-818.44 2727.47,-997.28 2721.88,-1073.47"/>
<text text-anchor="middle" x="2708.02" y="-910.69" font-family="Times,serif" font-size="14.00">0.011067</text>
</g>
<!-- id_27665258_DOT_26 -->
<g id="node26" class="node">
<title>id_27665258_DOT_26</title>
<polygon fill="bisque" stroke="bisque" points="614.2,-311.53 618.45,-311.73 622.65,-312.01 626.79,-312.4 630.86,-312.88 634.83,-313.45 638.69,-314.11 642.43,-314.86 646.03,-315.7 649.47,-316.62 652.75,-317.62 655.85,-318.71 658.77,-319.87 661.49,-321.1 664.01,-322.41 666.32,-323.78 668.41,-325.21 670.28,-326.71 671.92,-328.25 673.34,-329.85 674.53,-331.5 675.49,-333.18 676.23,-334.91 676.75,-336.66 677.04,-338.44 677.12,-340.25 676.99,-342.07 676.65,-343.91 676.12,-345.75 675.4,-347.59 674.49,-349.44 673.41,-351.27 672.17,-353.1 670.77,-354.9 669.22,-356.68 667.53,-358.44 665.72,-360.16 663.79,-361.85 661.75,-363.49 659.61,-365.09 657.37,-366.64 655.06,-368.13 652.67,-369.56 650.21,-370.93 647.69,-372.24 645.12,-373.47 642.5,-374.64 639.85,-375.72 637.16,-376.73 634.43,-377.65 631.69,-378.49 628.92,-379.24 626.13,-379.9 623.33,-380.47 620.52,-380.95 617.7,-381.33 614.87,-381.62 612.04,-381.81 609.2,-381.91 606.37,-381.91 603.53,-381.81 600.7,-381.62 597.87,-381.33 595.05,-380.95 592.23,-380.47 589.43,-379.9 586.65,-379.24 583.88,-378.49 581.13,-377.65 578.41,-376.73 575.72,-375.72 573.06,-374.64 570.45,-373.47 567.88,-372.24 565.36,-370.93 562.9,-369.56 560.51,-368.13 558.19,-366.64 555.96,-365.09 553.82,-363.49 551.78,-361.85 549.85,-360.16 548.03,-358.44 546.35,-356.68 544.8,-354.9 543.4,-353.1 542.15,-351.27 541.07,-349.44 540.17,-347.59 539.45,-345.75 538.91,-343.91 538.58,-342.07 538.45,-340.25 538.53,-338.44 538.82,-336.66 539.34,-334.91 540.07,-333.18 541.04,-331.5 542.23,-329.85 543.65,-328.25 545.29,-326.71 547.16,-325.21 549.25,-323.78 551.56,-322.41 554.07,-321.1 556.8,-319.87 559.71,-318.71 562.82,-317.62 566.1,-316.62 569.54,-315.7 573.14,-314.86 576.87,-314.11 580.74,-313.45 584.71,-312.88 588.77,-312.4 592.91,-312.01 597.12,-311.73 601.37,-311.53 605.64,-311.44 609.93,-311.44 614.2,-311.53"/>
<text text-anchor="start" x="578.61" y="-356.47" font-family="Times,serif" font-size="14.00">C0086045</text>
<text text-anchor="start" x="569.69" y="-342.47" font-family="Times,serif" font-size="14.00">concentration</text>
<text text-anchor="start" x="584.84" y="-328.47" font-family="Times,serif" font-size="14.00">190:190</text>
</g>
<!-- id_27665258_DOT_17&#45;&#45;id_27665258_DOT_26 -->
<g id="edge10" class="edge">
<title>id_27665258_DOT_17&#45;&#45;id_27665258_DOT_26</title>
<path fill="none" stroke="black" d="M787.78,-627.5C748.75,-566.61 667.39,-439.67 628.87,-379.57"/>
<text text-anchor="middle" x="682.07" y="-506.34" font-family="Times,serif" font-size="14.00">0.004896</text>
</g>
<!-- id_27665258_DOT_18 -->
<g id="node18" class="node">
<title>id_27665258_DOT_18</title>
<polygon fill="darkgreen" stroke="darkgreen" points="2305.8,-5667.91 2310.17,-5668.1 2314.5,-5668.39 2318.76,-5668.77 2322.94,-5669.25 2327.03,-5669.82 2331,-5670.48 2334.85,-5671.23 2338.55,-5672.07 2342.09,-5672.99 2345.47,-5674 2348.66,-5675.08 2351.66,-5676.25 2354.46,-5677.48 2357.05,-5678.78 2359.43,-5680.16 2361.58,-5681.59 2363.5,-5683.08 2365.19,-5684.63 2366.65,-5686.23 2367.88,-5687.87 2368.87,-5689.56 2369.63,-5691.28 2370.16,-5693.04 2370.46,-5694.82 2370.55,-5696.62 2370.41,-5698.45 2370.07,-5700.28 2369.52,-5702.12 2368.77,-5703.97 2367.84,-5705.81 2366.73,-5707.65 2365.45,-5709.47 2364.01,-5711.28 2362.41,-5713.06 2360.68,-5714.81 2358.81,-5716.54 2356.83,-5718.22 2354.73,-5719.87 2352.52,-5721.46 2350.22,-5723.01 2347.84,-5724.5 2345.38,-5725.94 2342.85,-5727.31 2340.26,-5728.62 2337.62,-5729.85 2334.92,-5731.01 2332.19,-5732.1 2329.42,-5733.1 2326.62,-5734.02 2323.79,-5734.86 2320.95,-5735.61 2318.08,-5736.27 2315.2,-5736.84 2312.3,-5737.32 2309.4,-5737.7 2306.49,-5737.99 2303.57,-5738.19 2300.66,-5738.28 2297.74,-5738.28 2294.82,-5738.19 2291.9,-5737.99 2288.99,-5737.7 2286.09,-5737.32 2283.2,-5736.84 2280.32,-5736.27 2277.45,-5735.61 2274.6,-5734.86 2271.77,-5734.02 2268.97,-5733.1 2266.2,-5732.1 2263.47,-5731.01 2260.78,-5729.85 2258.13,-5728.62 2255.54,-5727.31 2253.01,-5725.94 2250.55,-5724.5 2248.17,-5723.01 2245.87,-5721.46 2243.67,-5719.87 2241.57,-5718.22 2239.58,-5716.54 2237.71,-5714.81 2235.98,-5713.06 2234.39,-5711.28 2232.95,-5709.47 2231.66,-5707.65 2230.55,-5705.81 2229.62,-5703.97 2228.88,-5702.12 2228.33,-5700.28 2227.98,-5698.45 2227.85,-5696.62 2227.93,-5694.82 2228.23,-5693.04 2228.76,-5691.28 2229.52,-5689.56 2230.52,-5687.87 2231.74,-5686.23 2233.2,-5684.63 2234.89,-5683.08 2236.82,-5681.59 2238.97,-5680.16 2241.34,-5678.78 2243.93,-5677.48 2246.73,-5676.25 2249.73,-5675.08 2252.93,-5674 2256.3,-5672.99 2259.85,-5672.07 2263.55,-5671.23 2267.39,-5670.48 2271.36,-5669.82 2275.45,-5669.25 2279.63,-5668.77 2283.9,-5668.39 2288.22,-5668.1 2292.59,-5667.91 2296.99,-5667.81 2301.4,-5667.81 2305.8,-5667.91"/>
<text text-anchor="start" x="2270.03" y="-5712.85" font-family="Times,serif" font-size="14.00">C2700446</text>
<text text-anchor="start" x="2259.94" y="-5698.85" font-family="Times,serif" font-size="14.00">self &#45; reported</text>
<text text-anchor="start" x="2276.25" y="-5684.85" font-family="Times,serif" font-size="14.00">132:134</text>
</g>
<!-- id_27665258_DOT_24 -->
<g id="node24" class="node">
<title>id_27665258_DOT_24</title>
<polygon fill="darkred" stroke="darkred" points="2392.63,-5305.44 2397.01,-5305.63 2401.33,-5305.92 2405.59,-5306.3 2409.78,-5306.78 2413.86,-5307.35 2417.84,-5308.01 2421.68,-5308.76 2425.38,-5309.6 2428.93,-5310.52 2432.3,-5311.53 2435.5,-5312.61 2438.5,-5313.77 2441.3,-5315.01 2443.89,-5316.31 2446.26,-5317.69 2448.41,-5319.12 2450.34,-5320.61 2452.03,-5322.16 2453.49,-5323.76 2454.71,-5325.4 2455.71,-5327.09 2456.46,-5328.81 2456.99,-5330.57 2457.3,-5332.35 2457.38,-5334.15 2457.25,-5335.98 2456.9,-5337.81 2456.35,-5339.65 2455.61,-5341.5 2454.68,-5343.34 2453.56,-5345.18 2452.28,-5347 2450.84,-5348.8 2449.25,-5350.59 2447.51,-5352.34 2445.65,-5354.07 2443.66,-5355.75 2441.56,-5357.4 2439.36,-5358.99 2437.06,-5360.54 2434.68,-5362.03 2432.21,-5363.47 2429.69,-5364.84 2427.1,-5366.14 2424.45,-5367.38 2421.76,-5368.54 2419.03,-5369.62 2416.26,-5370.63 2413.46,-5371.55 2410.63,-5372.39 2407.78,-5373.14 2404.91,-5373.8 2402.03,-5374.37 2399.14,-5374.85 2396.23,-5375.23 2393.32,-5375.52 2390.41,-5375.72 2387.49,-5375.81 2384.57,-5375.81 2381.65,-5375.72 2378.74,-5375.52 2375.83,-5375.23 2372.93,-5374.85 2370.03,-5374.37 2367.15,-5373.8 2364.28,-5373.14 2361.43,-5372.39 2358.61,-5371.55 2355.81,-5370.63 2353.04,-5369.62 2350.3,-5368.54 2347.61,-5367.38 2344.97,-5366.14 2342.38,-5364.84 2339.85,-5363.47 2337.39,-5362.03 2335,-5360.54 2332.71,-5358.99 2330.5,-5357.4 2328.4,-5355.75 2326.41,-5354.07 2324.55,-5352.34 2322.81,-5350.59 2321.22,-5348.8 2319.78,-5347 2318.5,-5345.18 2317.39,-5343.34 2316.46,-5341.5 2315.71,-5339.65 2315.16,-5337.81 2314.82,-5335.98 2314.68,-5334.15 2314.76,-5332.35 2315.07,-5330.57 2315.6,-5328.81 2316.36,-5327.09 2317.35,-5325.4 2318.58,-5323.76 2320.03,-5322.16 2321.73,-5320.61 2323.65,-5319.12 2325.8,-5317.69 2328.17,-5316.31 2330.76,-5315.01 2333.57,-5313.77 2336.57,-5312.61 2339.76,-5311.53 2343.14,-5310.52 2346.68,-5309.6 2350.38,-5308.76 2354.23,-5308.01 2358.2,-5307.35 2362.29,-5306.78 2366.47,-5306.3 2370.73,-5305.92 2375.06,-5305.63 2379.43,-5305.44 2383.83,-5305.34 2388.24,-5305.34 2392.63,-5305.44"/>
<text text-anchor="start" x="2356.86" y="-5350.38" font-family="Times,serif" font-size="14.00">C0684224</text>
<text text-anchor="start" x="2346.77" y="-5336.38" font-family="Times,serif" font-size="14.00">self &#45; reported</text>
<text text-anchor="start" x="2363.09" y="-5322.38" font-family="Times,serif" font-size="14.00">173:175</text>
</g>
<!-- id_27665258_DOT_18&#45;&#45;id_27665258_DOT_24 -->
<g id="edge11" class="edge">
<title>id_27665258_DOT_18&#45;&#45;id_27665258_DOT_24</title>
<path fill="none" stroke="black" d="M2307.6,-5667.96C2324.2,-5598.67 2361.02,-5444.99 2377.62,-5375.68"/>
<text text-anchor="middle" x="2316.36" y="-5524.62" font-family="Times,serif" font-size="14.00">0.005708</text>
</g>
<!-- id_27665258_DOT_19 -->
<g id="node19" class="node">
<title>id_27665258_DOT_19</title>
<polygon fill="darkkhaki" stroke="darkkhaki" points="61.16,-2845.85 64.58,-2846.04 67.98,-2846.33 71.32,-2846.71 74.6,-2847.19 77.81,-2847.76 80.92,-2848.42 83.94,-2849.17 86.84,-2850.01 89.62,-2850.93 92.27,-2851.94 94.77,-2853.02 97.13,-2854.18 99.32,-2855.42 101.35,-2856.72 103.22,-2858.09 104.9,-2859.53 106.41,-2861.02 107.74,-2862.57 108.88,-2864.17 109.84,-2865.81 110.62,-2867.5 111.22,-2869.22 111.63,-2870.97 111.87,-2872.76 111.93,-2874.56 111.83,-2876.39 111.56,-2878.22 111.13,-2880.06 110.54,-2881.91 109.81,-2883.75 108.94,-2885.59 107.94,-2887.41 106.81,-2889.21 105.56,-2891 104.2,-2892.75 102.73,-2894.47 101.18,-2896.16 99.53,-2897.8 97.8,-2899.4 96,-2900.95 94.13,-2902.44 92.2,-2903.88 90.22,-2905.25 88.18,-2906.55 86.11,-2907.79 84,-2908.95 81.85,-2910.03 79.68,-2911.04 77.49,-2911.96 75.27,-2912.8 73.04,-2913.55 70.79,-2914.21 68.53,-2914.78 66.26,-2915.26 63.98,-2915.64 61.7,-2915.93 59.41,-2916.12 57.12,-2916.22 54.83,-2916.22 52.55,-2916.12 50.26,-2915.93 47.98,-2915.64 45.7,-2915.26 43.43,-2914.78 41.17,-2914.21 38.92,-2913.55 36.69,-2912.8 34.47,-2911.96 32.27,-2911.04 30.1,-2910.03 27.96,-2908.95 25.85,-2907.79 23.77,-2906.55 21.74,-2905.25 19.76,-2903.88 17.83,-2902.44 15.96,-2900.95 14.16,-2899.4 12.43,-2897.8 10.78,-2896.16 9.22,-2894.47 7.76,-2892.75 6.4,-2891 5.15,-2889.21 4.02,-2887.41 3.01,-2885.59 2.14,-2883.75 1.41,-2881.91 0.83,-2880.06 0.4,-2878.22 0.13,-2876.39 0.02,-2874.56 0.09,-2872.76 0.32,-2870.97 0.74,-2869.22 1.34,-2867.5 2.11,-2865.81 3.07,-2864.17 4.22,-2862.57 5.55,-2861.02 7.05,-2859.53 8.74,-2858.09 10.6,-2856.72 12.63,-2855.42 14.83,-2854.18 17.18,-2853.02 19.69,-2851.94 22.34,-2850.93 25.12,-2850.01 28.02,-2849.17 31.03,-2848.42 34.15,-2847.76 37.35,-2847.19 40.64,-2846.71 43.98,-2846.33 47.37,-2846.04 50.8,-2845.85 54.25,-2845.75 57.71,-2845.75 61.16,-2845.85"/>
<text text-anchor="start" x="26.81" y="-2890.79" font-family="Times,serif" font-size="14.00">C0335223</text>
<text text-anchor="start" x="32.66" y="-2876.79" font-family="Times,serif" font-size="14.00">operator</text>
<text text-anchor="start" x="33.03" y="-2862.79" font-family="Times,serif" font-size="14.00">136:136</text>
</g>
<!-- id_27665258_DOT_28 -->
<g id="node28" class="node">
<title>id_27665258_DOT_28</title>
<polygon fill="darkkhaki" stroke="darkkhaki" points="440.44,-2769.02 443.86,-2769.21 447.26,-2769.5 450.6,-2769.88 453.88,-2770.36 457.08,-2770.93 460.2,-2771.59 463.22,-2772.34 466.12,-2773.18 468.9,-2774.1 471.55,-2775.11 474.05,-2776.19 476.4,-2777.35 478.6,-2778.59 480.63,-2779.89 482.49,-2781.27 484.18,-2782.7 485.69,-2784.19 487.02,-2785.74 488.16,-2787.34 489.12,-2788.98 489.9,-2790.67 490.5,-2792.39 490.91,-2794.15 491.15,-2795.93 491.21,-2797.73 491.11,-2799.56 490.84,-2801.39 490.41,-2803.23 489.82,-2805.08 489.09,-2806.92 488.22,-2808.76 487.22,-2810.58 486.09,-2812.39 484.84,-2814.17 483.48,-2815.92 482.01,-2817.65 480.45,-2819.33 478.81,-2820.98 477.08,-2822.57 475.28,-2824.12 473.41,-2825.61 471.48,-2827.05 469.49,-2828.42 467.46,-2829.72 465.39,-2830.96 463.28,-2832.12 461.13,-2833.21 458.96,-2834.21 456.76,-2835.13 454.55,-2835.97 452.31,-2836.72 450.07,-2837.38 447.81,-2837.95 445.54,-2838.43 443.26,-2838.81 440.98,-2839.1 438.69,-2839.3 436.4,-2839.39 434.11,-2839.39 431.82,-2839.3 429.54,-2839.1 427.26,-2838.81 424.98,-2838.43 422.71,-2837.95 420.45,-2837.38 418.2,-2836.72 415.97,-2835.97 413.75,-2835.13 411.55,-2834.21 409.38,-2833.21 407.24,-2832.12 405.13,-2830.96 403.05,-2829.72 401.02,-2828.42 399.04,-2827.05 397.11,-2825.61 395.24,-2824.12 393.44,-2822.57 391.71,-2820.98 390.06,-2819.33 388.5,-2817.65 387.04,-2815.92 385.68,-2814.17 384.43,-2812.39 383.3,-2810.58 382.29,-2808.76 381.42,-2806.92 380.69,-2805.08 380.11,-2803.23 379.68,-2801.39 379.41,-2799.56 379.3,-2797.73 379.36,-2795.93 379.6,-2794.15 380.02,-2792.39 380.61,-2790.67 381.39,-2788.98 382.35,-2787.34 383.5,-2785.74 384.83,-2784.19 386.33,-2782.7 388.02,-2781.27 389.88,-2779.89 391.91,-2778.59 394.11,-2777.35 396.46,-2776.19 398.97,-2775.11 401.61,-2774.1 404.39,-2773.18 407.3,-2772.34 410.31,-2771.59 413.43,-2770.93 416.63,-2770.36 419.91,-2769.88 423.26,-2769.5 426.65,-2769.21 430.08,-2769.02 433.53,-2768.92 436.99,-2768.92 440.44,-2769.02"/>
<text text-anchor="start" x="406.09" y="-2813.96" font-family="Times,serif" font-size="14.00">C0335223</text>
<text text-anchor="start" x="411.94" y="-2799.96" font-family="Times,serif" font-size="14.00">operator</text>
<text text-anchor="start" x="412.31" y="-2785.96" font-family="Times,serif" font-size="14.00">200:200</text>
</g>
<!-- id_27665258_DOT_19&#45;&#45;id_27665258_DOT_28 -->
<g id="edge12" class="edge">
<title>id_27665258_DOT_19&#45;&#45;id_27665258_DOT_28</title>
<path fill="none" stroke="black" d="M111.53,-2869.73C185.4,-2854.77 314.84,-2828.55 385.6,-2814.22"/>
<text text-anchor="middle" x="222.32" y="-2844.77" font-family="Times,serif" font-size="14.00">0.005173</text>
</g>
<!-- id_27665258_DOT_21 -->
<g id="node21" class="node">
<title>id_27665258_DOT_21</title>
<polygon fill="darkorange" stroke="darkorange" points="1917.11,-2696.38 1920.88,-2696.57 1924.62,-2696.86 1928.29,-2697.24 1931.9,-2697.72 1935.43,-2698.29 1938.86,-2698.95 1942.18,-2699.7 1945.37,-2700.54 1948.43,-2701.46 1951.34,-2702.47 1954.1,-2703.55 1956.69,-2704.71 1959.1,-2705.95 1961.34,-2707.25 1963.39,-2708.62 1965.24,-2710.06 1966.9,-2711.55 1968.36,-2713.1 1969.62,-2714.7 1970.68,-2716.34 1971.53,-2718.03 1972.19,-2719.75 1972.65,-2721.5 1972.91,-2723.29 1972.98,-2725.09 1972.86,-2726.91 1972.56,-2728.75 1972.09,-2730.59 1971.45,-2732.44 1970.64,-2734.28 1969.69,-2736.12 1968.58,-2737.94 1967.34,-2739.74 1965.96,-2741.53 1964.47,-2743.28 1962.86,-2745 1961.14,-2746.69 1959.33,-2748.33 1957.43,-2749.93 1955.44,-2751.48 1953.39,-2752.97 1951.26,-2754.41 1949.08,-2755.78 1946.85,-2757.08 1944.56,-2758.32 1942.24,-2759.48 1939.88,-2760.56 1937.49,-2761.57 1935.08,-2762.49 1932.64,-2763.33 1930.18,-2764.08 1927.71,-2764.74 1925.22,-2765.31 1922.72,-2765.79 1920.22,-2766.17 1917.71,-2766.46 1915.19,-2766.65 1912.67,-2766.75 1910.15,-2766.75 1907.64,-2766.65 1905.12,-2766.46 1902.61,-2766.17 1900.1,-2765.79 1897.61,-2765.31 1895.12,-2764.74 1892.65,-2764.08 1890.19,-2763.33 1887.75,-2762.49 1885.33,-2761.57 1882.94,-2760.56 1880.59,-2759.48 1878.26,-2758.32 1875.98,-2757.08 1873.75,-2755.78 1871.56,-2754.41 1869.44,-2752.97 1867.38,-2751.48 1865.4,-2749.93 1863.5,-2748.33 1861.69,-2746.69 1859.97,-2745 1858.36,-2743.28 1856.86,-2741.53 1855.49,-2739.74 1854.25,-2737.94 1853.14,-2736.12 1852.18,-2734.28 1851.38,-2732.44 1850.74,-2730.59 1850.26,-2728.75 1849.96,-2726.91 1849.85,-2725.09 1849.92,-2723.29 1850.18,-2721.5 1850.64,-2719.75 1851.29,-2718.03 1852.15,-2716.34 1853.21,-2714.7 1854.47,-2713.1 1855.93,-2711.55 1857.59,-2710.06 1859.44,-2708.62 1861.49,-2707.25 1863.73,-2705.95 1866.14,-2704.71 1868.73,-2703.55 1871.49,-2702.47 1874.4,-2701.46 1877.46,-2700.54 1880.65,-2699.7 1883.97,-2698.95 1887.4,-2698.29 1890.92,-2697.72 1894.53,-2697.24 1898.21,-2696.86 1901.94,-2696.57 1905.72,-2696.38 1909.51,-2696.28 1913.32,-2696.28 1917.11,-2696.38"/>
<text text-anchor="start" x="1882.24" y="-2741.31" font-family="Times,serif" font-size="14.00">C0444584</text>
<text text-anchor="start" x="1878.56" y="-2727.31" font-family="Times,serif" font-size="14.00">whole body</text>
<text text-anchor="start" x="1888.47" y="-2713.31" font-family="Times,serif" font-size="14.00">150:151</text>
</g>
<!-- id_27665258_DOT_20&#45;&#45;id_27665258_DOT_21 -->
<g id="edge32" class="edge">
<title>id_27665258_DOT_20&#45;&#45;id_27665258_DOT_21</title>
<path fill="none" stroke="black" stroke-dasharray="1,5" d="M1677.31,-2413.25C1725.32,-2478.52 1837.3,-2630.76 1886.95,-2698.26"/>
<text text-anchor="middle" x="1755.88" y="-2558.56" font-family="Times,serif" font-size="14.00">0.579587</text>
</g>
<!-- id_27665258_DOT_21&#45;&#45;id_27665258_DOT_22 -->
<g id="edge33" class="edge">
<title>id_27665258_DOT_21&#45;&#45;id_27665258_DOT_22</title>
<path fill="none" stroke="black" stroke-dasharray="1,5" d="M1926.88,-2765.11C1960.3,-2837.68 2038.95,-3008.5 2073.02,-3082.49"/>
<text text-anchor="middle" x="1973.7" y="-2926.6" font-family="Times,serif" font-size="14.00">0.858586</text>
</g>
<!-- id_27665258_DOT_35 -->
<g id="node35" class="node">
<title>id_27665258_DOT_35</title>
<polygon fill="coral" stroke="coral" points="1786.49,-3329.52 1793.64,-3329.72 1800.72,-3330.01 1807.69,-3330.39 1814.53,-3330.87 1821.21,-3331.44 1827.7,-3332.1 1833.99,-3332.85 1840.04,-3333.69 1845.84,-3334.61 1851.36,-3335.62 1856.58,-3336.7 1861.49,-3337.86 1866.07,-3339.1 1870.3,-3340.4 1874.18,-3341.77 1877.7,-3343.21 1880.84,-3344.7 1883.61,-3346.25 1886,-3347.84 1888,-3349.49 1889.62,-3351.17 1890.86,-3352.9 1891.73,-3354.65 1892.23,-3356.44 1892.36,-3358.24 1892.14,-3360.06 1891.58,-3361.9 1890.68,-3363.74 1889.46,-3365.59 1887.94,-3367.43 1886.12,-3369.26 1884.03,-3371.09 1881.67,-3372.89 1879.07,-3374.67 1876.23,-3376.43 1873.18,-3378.15 1869.93,-3379.84 1866.49,-3381.48 1862.89,-3383.08 1859.13,-3384.63 1855.24,-3386.12 1851.21,-3387.55 1847.08,-3388.93 1842.84,-3390.23 1838.52,-3391.47 1834.12,-3392.63 1829.65,-3393.71 1825.12,-3394.72 1820.54,-3395.64 1815.92,-3396.48 1811.26,-3397.23 1806.57,-3397.89 1801.86,-3398.46 1797.13,-3398.94 1792.38,-3399.32 1787.62,-3399.61 1782.86,-3399.8 1778.08,-3399.9 1773.31,-3399.9 1768.54,-3399.8 1763.77,-3399.61 1759.02,-3399.32 1754.27,-3398.94 1749.54,-3398.46 1744.82,-3397.89 1740.14,-3397.23 1735.48,-3396.48 1730.86,-3395.64 1726.28,-3394.72 1721.75,-3393.71 1717.28,-3392.63 1712.88,-3391.47 1708.55,-3390.23 1704.32,-3388.93 1700.18,-3387.55 1696.16,-3386.12 1692.26,-3384.63 1688.51,-3383.08 1684.9,-3381.48 1681.47,-3379.84 1678.22,-3378.15 1675.17,-3376.43 1672.33,-3374.67 1669.73,-3372.89 1667.37,-3371.09 1665.28,-3369.26 1663.46,-3367.43 1661.93,-3365.59 1660.72,-3363.74 1659.82,-3361.9 1659.26,-3360.06 1659.04,-3358.24 1659.17,-3356.44 1659.67,-3354.65 1660.53,-3352.9 1661.77,-3351.17 1663.4,-3349.49 1665.4,-3347.84 1667.79,-3346.25 1670.55,-3344.7 1673.7,-3343.21 1677.22,-3341.77 1681.1,-3340.4 1685.33,-3339.1 1689.91,-3337.86 1694.82,-3336.7 1700.04,-3335.62 1705.56,-3334.61 1711.35,-3333.69 1717.41,-3332.85 1723.69,-3332.1 1730.19,-3331.44 1736.87,-3330.87 1743.71,-3330.39 1750.68,-3330.01 1757.76,-3329.72 1764.9,-3329.52 1772.09,-3329.43 1779.3,-3329.43 1786.49,-3329.52"/>
<text text-anchor="start" x="1746.53" y="-3374.46" font-family="Times,serif" font-size="14.00">C0010362</text>
<text text-anchor="start" x="1706.29" y="-3360.46" font-family="Times,serif" font-size="14.00">cross &#45; sectional findings</text>
<text text-anchor="start" x="1752.75" y="-3346.46" font-family="Times,serif" font-size="14.00">260:263</text>
</g>
<!-- id_27665258_DOT_22&#45;&#45;id_27665258_DOT_35 -->
<g id="edge13" class="edge">
<title>id_27665258_DOT_22&#45;&#45;id_27665258_DOT_35</title>
<path fill="none" stroke="black" d="M2048.55,-3149.7C1989.07,-3196.56 1878.86,-3283.39 1818.3,-3331.1"/>
<text text-anchor="middle" x="1907.18" y="-3243.2" font-family="Times,serif" font-size="14.00">0.013055</text>
</g>
<!-- id_27665258_DOT_32 -->
<g id="node32" class="node">
<title>id_27665258_DOT_32</title>
<polygon fill="aquamarine" stroke="aquamarine" points="3124.27,-1006.43 3130.63,-1006.62 3136.93,-1006.91 3143.13,-1007.29 3149.22,-1007.77 3155.17,-1008.34 3160.96,-1009 3166.55,-1009.75 3171.94,-1010.59 3177.1,-1011.51 3182.01,-1012.52 3186.66,-1013.6 3191.03,-1014.77 3195.11,-1016 3198.88,-1017.31 3202.34,-1018.68 3205.47,-1020.11 3208.27,-1021.6 3210.73,-1023.15 3212.85,-1024.75 3214.64,-1026.39 3216.08,-1028.08 3217.19,-1029.8 3217.96,-1031.56 3218.4,-1033.34 3218.52,-1035.14 3218.32,-1036.97 3217.82,-1038.8 3217.02,-1040.65 3215.94,-1042.49 3214.58,-1044.33 3212.97,-1046.17 3211.1,-1047.99 3209,-1049.8 3206.68,-1051.58 3204.16,-1053.33 3201.44,-1055.06 3198.55,-1056.74 3195.49,-1058.39 3192.28,-1059.99 3188.94,-1061.53 3185.47,-1063.03 3181.89,-1064.46 3178.21,-1065.83 3174.43,-1067.14 3170.58,-1068.37 3166.67,-1069.53 3162.69,-1070.62 3158.65,-1071.62 3154.58,-1072.54 3150.46,-1073.38 3146.32,-1074.13 3142.14,-1074.79 3137.95,-1075.36 3133.74,-1075.84 3129.51,-1076.23 3125.27,-1076.51 3121.03,-1076.71 3116.78,-1076.8 3112.53,-1076.8 3108.28,-1076.71 3104.04,-1076.51 3099.8,-1076.23 3095.58,-1075.84 3091.37,-1075.36 3087.17,-1074.79 3083,-1074.13 3078.85,-1073.38 3074.74,-1072.54 3070.66,-1071.62 3066.63,-1070.62 3062.65,-1069.53 3058.73,-1068.37 3054.88,-1067.14 3051.11,-1065.83 3047.43,-1064.46 3043.85,-1063.03 3040.38,-1061.53 3037.03,-1059.99 3033.82,-1058.39 3030.77,-1056.74 3027.87,-1055.06 3025.16,-1053.33 3022.63,-1051.58 3020.31,-1049.8 3018.21,-1047.99 3016.35,-1046.17 3014.73,-1044.33 3013.37,-1042.49 3012.29,-1040.65 3011.49,-1038.8 3010.99,-1036.97 3010.79,-1035.14 3010.91,-1033.34 3011.35,-1031.56 3012.13,-1029.8 3013.23,-1028.08 3014.68,-1026.39 3016.46,-1024.75 3018.58,-1023.15 3021.05,-1021.6 3023.85,-1020.11 3026.98,-1018.68 3030.43,-1017.31 3034.2,-1016 3038.28,-1014.77 3042.65,-1013.6 3047.3,-1012.52 3052.21,-1011.51 3057.37,-1010.59 3062.76,-1009.75 3068.36,-1009 3074.14,-1008.34 3080.09,-1007.77 3086.18,-1007.29 3092.38,-1006.91 3098.68,-1006.62 3105.05,-1006.43 3111.45,-1006.33 3117.87,-1006.33 3124.27,-1006.43"/>
<text text-anchor="start" x="3085.49" y="-1051.37" font-family="Times,serif" font-size="14.00">C0233514</text>
<text text-anchor="start" x="3053.81" y="-1037.37" font-family="Times,serif" font-size="14.00">behavioural problems</text>
<text text-anchor="start" x="3091.71" y="-1023.37" font-family="Times,serif" font-size="14.00">228:229</text>
</g>
<!-- id_27665258_DOT_23&#45;&#45;id_27665258_DOT_32 -->
<g id="edge14" class="edge">
<title>id_27665258_DOT_23&#45;&#45;id_27665258_DOT_32</title>
<path fill="none" stroke="black" d="M2817.78,-1092.08C2882.85,-1081.01 2967.27,-1066.65 3029.45,-1056.07"/>
<text text-anchor="middle" x="2897.37" y="-1076.87" font-family="Times,serif" font-size="14.00">0.008382</text>
</g>
<!-- id_27665258_DOT_24&#45;&#45;id_27665258_DOT_27 -->
<g id="edge15" class="edge">
<title>id_27665258_DOT_24&#45;&#45;id_27665258_DOT_27</title>
<path fill="none" stroke="black" d="M2396.87,-5305.61C2418.5,-5235.81 2466.8,-5079.96 2488.34,-5010.47"/>
<text text-anchor="middle" x="2416.36" y="-5160.84" font-family="Times,serif" font-size="14.00">0.002470</text>
</g>
<!-- id_27665258_DOT_25&#45;&#45;id_27665258_DOT_28 -->
<g id="edge16" class="edge">
<title>id_27665258_DOT_25&#45;&#45;id_27665258_DOT_28</title>
<path fill="none" stroke="black" d="M785.27,-2727.36C710.45,-2743.77 568.8,-2774.85 490.6,-2792.01"/>
<text text-anchor="middle" x="611.68" y="-2762.48" font-family="Times,serif" font-size="14.00">0.001857</text>
</g>
<!-- id_27665258_DOT_33 -->
<g id="node33" class="node">
<title>id_27665258_DOT_33</title>
<polygon fill="bisque" stroke="bisque" points="417.21,-0.23 421.45,-0.42 425.66,-0.71 429.8,-1.09 433.87,-1.57 437.84,-2.14 441.7,-2.8 445.44,-3.55 449.03,-4.39 452.48,-5.31 455.76,-6.32 458.86,-7.4 461.78,-8.57 464.5,-9.8 467.02,-11.1 469.32,-12.48 471.41,-13.91 473.28,-15.4 474.93,-16.95 476.35,-18.55 477.54,-20.19 478.5,-21.88 479.24,-23.6 479.75,-25.36 480.05,-27.14 480.13,-28.94 480,-30.77 479.66,-32.6 479.13,-34.44 478.41,-36.29 477.5,-38.13 476.42,-39.97 475.17,-41.79 473.77,-43.6 472.23,-45.38 470.54,-47.13 468.73,-48.86 466.8,-50.54 464.75,-52.19 462.61,-53.78 460.38,-55.33 458.06,-56.82 455.67,-58.26 453.21,-59.63 450.7,-60.94 448.13,-62.17 445.51,-63.33 442.85,-64.42 440.16,-65.42 437.44,-66.34 434.69,-67.18 431.93,-67.93 429.14,-68.59 426.34,-69.16 423.53,-69.64 420.71,-70.02 417.88,-70.31 415.04,-70.51 412.21,-70.6 409.37,-70.6 406.54,-70.51 403.7,-70.31 400.88,-70.02 398.05,-69.64 395.24,-69.16 392.44,-68.59 389.65,-67.93 386.89,-67.18 384.14,-66.34 381.42,-65.42 378.73,-64.42 376.07,-63.33 373.45,-62.17 370.88,-60.94 368.37,-59.63 365.91,-58.26 363.52,-56.82 361.2,-55.33 358.97,-53.78 356.83,-52.19 354.79,-50.54 352.85,-48.86 351.04,-47.13 349.36,-45.38 347.81,-43.6 346.41,-41.79 345.16,-39.97 344.08,-38.13 343.18,-36.29 342.45,-34.44 341.92,-32.6 341.58,-30.77 341.45,-28.94 341.53,-27.14 341.83,-25.36 342.34,-23.6 343.08,-21.88 344.04,-20.19 345.24,-18.55 346.65,-16.95 348.3,-15.4 350.17,-13.91 352.26,-12.48 354.56,-11.1 357.08,-9.8 359.8,-8.57 362.72,-7.4 365.82,-6.32 369.1,-5.31 372.55,-4.39 376.15,-3.55 379.88,-2.8 383.74,-2.14 387.71,-1.57 391.78,-1.09 395.92,-0.71 400.13,-0.42 404.37,-0.23 408.65,-0.13 412.93,-0.13 417.21,-0.23"/>
<text text-anchor="start" x="381.62" y="-45.17" font-family="Times,serif" font-size="14.00">C0086045</text>
<text text-anchor="start" x="372.7" y="-31.17" font-family="Times,serif" font-size="14.00">concentration</text>
<text text-anchor="start" x="387.85" y="-17.17" font-family="Times,serif" font-size="14.00">231:231</text>
</g>
<!-- id_27665258_DOT_26&#45;&#45;id_27665258_DOT_33 -->
<g id="edge17" class="edge">
<title>id_27665258_DOT_26&#45;&#45;id_27665258_DOT_33</title>
<path fill="none" stroke="black" d="M586.14,-312.47C547.96,-252.13 469.14,-127.58 431.58,-68.22"/>
<text text-anchor="middle" x="482.61" y="-193.14" font-family="Times,serif" font-size="14.00">0.002927</text>
</g>
<!-- id_27665258_DOT_29&#45;&#45;id_27665258_DOT_31 -->
<g id="edge18" class="edge">
<title>id_27665258_DOT_29&#45;&#45;id_27665258_DOT_31</title>
<path fill="none" stroke="black" d="M2847.45,-4205.08C2922.44,-4226.36 3039.81,-4259.67 3118.87,-4282.1"/>
<text text-anchor="middle" x="2956.91" y="-4246.39" font-family="Times,serif" font-size="14.00">0.018839</text>
</g>
<!-- id_27665258_DOT_34 -->
<g id="node34" class="node">
<title>id_27665258_DOT_34</title>
<polygon fill="darkseagreen" stroke="darkseagreen" points="2451.98,-4286.29 2455.97,-4286.48 2459.92,-4286.77 2463.82,-4287.15 2467.64,-4287.63 2471.37,-4288.2 2475,-4288.86 2478.51,-4289.61 2481.89,-4290.45 2485.13,-4291.37 2488.21,-4292.38 2491.12,-4293.46 2493.87,-4294.63 2496.42,-4295.86 2498.79,-4297.16 2500.96,-4298.54 2502.92,-4299.97 2504.68,-4301.46 2506.22,-4303.01 2507.56,-4304.61 2508.68,-4306.25 2509.58,-4307.94 2510.28,-4309.66 2510.76,-4311.42 2511.04,-4313.2 2511.11,-4315 2510.99,-4316.83 2510.67,-4318.66 2510.17,-4320.5 2509.49,-4322.35 2508.64,-4324.19 2507.63,-4326.03 2506.46,-4327.85 2505.14,-4329.66 2503.69,-4331.44 2502.1,-4333.19 2500.4,-4334.92 2498.58,-4336.6 2496.66,-4338.25 2494.65,-4339.84 2492.55,-4341.39 2490.37,-4342.88 2488.13,-4344.32 2485.82,-4345.69 2483.45,-4347 2481.04,-4348.23 2478.58,-4349.39 2476.08,-4350.48 2473.55,-4351.48 2470.99,-4352.4 2468.41,-4353.24 2465.81,-4353.99 2463.19,-4354.65 2460.56,-4355.22 2457.92,-4355.7 2455.27,-4356.08 2452.61,-4356.37 2449.95,-4356.57 2447.28,-4356.66 2444.61,-4356.66 2441.95,-4356.57 2439.29,-4356.37 2436.63,-4356.08 2433.98,-4355.7 2431.33,-4355.22 2428.7,-4354.65 2426.08,-4353.99 2423.48,-4353.24 2420.9,-4352.4 2418.34,-4351.48 2415.81,-4350.48 2413.32,-4349.39 2410.86,-4348.23 2408.44,-4347 2406.08,-4345.69 2403.77,-4344.32 2401.52,-4342.88 2399.34,-4341.39 2397.25,-4339.84 2395.23,-4338.25 2393.31,-4336.6 2391.5,-4334.92 2389.79,-4333.19 2388.21,-4331.44 2386.76,-4329.66 2385.44,-4327.85 2384.27,-4326.03 2383.25,-4324.19 2382.4,-4322.35 2381.72,-4320.5 2381.22,-4318.66 2380.91,-4316.83 2380.78,-4315 2380.86,-4313.2 2381.14,-4311.42 2381.62,-4309.66 2382.31,-4307.94 2383.22,-4306.25 2384.34,-4304.61 2385.67,-4303.01 2387.22,-4301.46 2388.97,-4299.97 2390.94,-4298.54 2393.11,-4297.16 2395.47,-4295.86 2398.03,-4294.63 2400.77,-4293.46 2403.69,-4292.38 2406.77,-4291.37 2410.01,-4290.45 2413.39,-4289.61 2416.9,-4288.86 2420.53,-4288.2 2424.26,-4287.63 2428.08,-4287.15 2431.97,-4286.77 2435.93,-4286.48 2439.92,-4286.29 2443.94,-4286.19 2447.96,-4286.19 2451.98,-4286.29"/>
<text text-anchor="start" x="2416.78" y="-4331.23" font-family="Times,serif" font-size="14.00">C0681841</text>
<text text-anchor="start" x="2410.57" y="-4317.23" font-family="Times,serif" font-size="14.00">explanations</text>
<text text-anchor="start" x="2423" y="-4303.23" font-family="Times,serif" font-size="14.00">256:256</text>
</g>
<!-- id_27665258_DOT_29&#45;&#45;id_27665258_DOT_34 -->
<g id="edge34" class="edge">
<title>id_27665258_DOT_29&#45;&#45;id_27665258_DOT_34</title>
<path fill="none" stroke="black" stroke-dasharray="1,5" d="M2715.45,-4209.58C2654.36,-4234.93 2560.5,-4273.89 2501.21,-4298.49"/>
<text text-anchor="middle" x="2582.08" y="-4256.84" font-family="Times,serif" font-size="14.00">0.757834</text>
</g>
</g>
</svg>
