<?xml version="1.0" encoding="UTF-8" standalone="no"?>
<!DOCTYPE svg PUBLIC "-//W3C//DTD SVG 1.1//EN"
 "http://www.w3.org/Graphics/SVG/1.1/DTD/svg11.dtd">
<!-- Generated by graphviz version 2.42.3 (20191010.1750)
 -->
<!-- Title: MST Pages: 1 -->
<svg width="4660pt" height="4587pt"
 viewBox="0.00 0.00 4660.24 4587.11" xmlns="http://www.w3.org/2000/svg" xmlns:xlink="http://www.w3.org/1999/xlink">
<g id="graph0" class="graph" transform="scale(1 1) rotate(0) translate(4 4583.11)">
<title>MST</title>
<polygon fill="white" stroke="transparent" points="-4,4 -4,-4583.11 4656.24,-4583.11 4656.24,4 -4,4"/>
<!-- id_27707812_DOT_1 -->
<g id="node1" class="node">
<title>id_27707812_DOT_1</title>
<polygon fill="aquamarine" stroke="aquamarine" points="109.47,-4508.61 115.62,-4508.8 121.7,-4509.09 127.7,-4509.47 133.58,-4509.95 139.33,-4510.52 144.92,-4511.18 150.33,-4511.93 155.53,-4512.77 160.52,-4513.69 165.27,-4514.7 169.76,-4515.78 173.98,-4516.94 177.92,-4518.18 181.57,-4519.48 184.9,-4520.85 187.93,-4522.29 190.63,-4523.78 193.02,-4525.33 195.07,-4526.93 196.79,-4528.57 198.19,-4530.26 199.26,-4531.98 200,-4533.73 200.43,-4535.52 200.54,-4537.32 200.35,-4539.14 199.87,-4540.98 199.1,-4542.82 198.05,-4544.67 196.74,-4546.51 195.18,-4548.34 193.37,-4550.17 191.35,-4551.97 189.11,-4553.75 186.67,-4555.51 184.04,-4557.23 181.24,-4558.92 178.29,-4560.56 175.19,-4562.16 171.96,-4563.71 168.61,-4565.2 165.14,-4566.64 161.59,-4568.01 157.94,-4569.31 154.22,-4570.55 150.44,-4571.71 146.59,-4572.79 142.7,-4573.8 138.76,-4574.72 134.78,-4575.56 130.77,-4576.31 126.74,-4576.97 122.69,-4577.54 118.62,-4578.02 114.53,-4578.4 110.44,-4578.69 106.34,-4578.88 102.23,-4578.98 98.13,-4578.98 94.02,-4578.88 89.92,-4578.69 85.83,-4578.4 81.75,-4578.02 77.67,-4577.54 73.62,-4576.97 69.59,-4576.31 65.58,-4575.56 61.61,-4574.72 57.67,-4573.8 53.77,-4572.79 49.93,-4571.71 46.14,-4570.55 42.42,-4569.31 38.77,-4568.01 35.22,-4566.64 31.76,-4565.2 28.4,-4563.71 25.17,-4562.16 22.07,-4560.56 19.12,-4558.92 16.32,-4557.23 13.7,-4555.51 11.26,-4553.75 9.02,-4551.97 6.99,-4550.17 5.19,-4548.34 3.62,-4546.51 2.31,-4544.67 1.27,-4542.82 0.49,-4540.98 0.01,-4539.14 -0.18,-4537.32 -0.07,-4535.52 0.36,-4533.73 1.11,-4531.98 2.17,-4530.26 3.57,-4528.57 5.29,-4526.93 7.35,-4525.33 9.73,-4523.78 12.43,-4522.29 15.46,-4520.85 18.8,-4519.48 22.44,-4518.18 26.38,-4516.94 30.6,-4515.78 35.09,-4514.7 39.84,-4513.69 44.83,-4512.77 50.03,-4511.93 55.44,-4511.18 61.03,-4510.52 66.78,-4509.95 72.66,-4509.47 78.66,-4509.09 84.74,-4508.8 90.89,-4508.61 97.08,-4508.51 103.28,-4508.51 109.47,-4508.61"/>
<text text-anchor="start" x="71.01" y="-4553.54" font-family="Times,serif" font-size="14.00">C0443158</text>
<text text-anchor="start" x="41.66" y="-4539.54" font-family="Times,serif" font-size="14.00">Spontaneous activity</text>
<text text-anchor="start" x="91.24" y="-4525.54" font-family="Times,serif" font-size="14.00">0:1</text>
</g>
<!-- id_27707812_DOT_4 -->
<g id="node4" class="node">
<title>id_27707812_DOT_4</title>
<polygon fill="aquamarine" stroke="aquamarine" points="406.05,-4298.14 412.07,-4298.33 418.04,-4298.62 423.91,-4299 429.68,-4299.48 435.31,-4300.05 440.79,-4300.71 446.09,-4301.46 451.19,-4302.3 456.07,-4303.22 460.73,-4304.23 465.13,-4305.31 469.26,-4306.47 473.12,-4307.71 476.69,-4309.01 479.97,-4310.38 482.93,-4311.82 485.58,-4313.31 487.91,-4314.86 489.93,-4316.46 491.61,-4318.1 492.98,-4319.79 494.03,-4321.51 494.76,-4323.26 495.18,-4325.05 495.29,-4326.85 495.1,-4328.67 494.63,-4330.51 493.87,-4332.35 492.85,-4334.2 491.56,-4336.04 490.03,-4337.88 488.26,-4339.7 486.28,-4341.5 484.08,-4343.29 481.69,-4345.04 479.12,-4346.76 476.38,-4348.45 473.48,-4350.09 470.45,-4351.69 467.28,-4353.24 464,-4354.73 460.6,-4356.17 457.12,-4357.54 453.55,-4358.84 449.9,-4360.08 446.19,-4361.24 442.42,-4362.32 438.61,-4363.33 434.75,-4364.25 430.85,-4365.09 426.93,-4365.84 422.97,-4366.5 419,-4367.07 415.01,-4367.55 411.01,-4367.93 407,-4368.22 402.98,-4368.41 398.96,-4368.51 394.94,-4368.51 390.92,-4368.41 386.9,-4368.22 382.89,-4367.93 378.88,-4367.55 374.9,-4367.07 370.92,-4366.5 366.97,-4365.84 363.05,-4365.09 359.15,-4364.25 355.29,-4363.33 351.47,-4362.32 347.71,-4361.24 343.99,-4360.08 340.35,-4358.84 336.78,-4357.54 333.29,-4356.17 329.9,-4354.73 326.62,-4353.24 323.45,-4351.69 320.41,-4350.09 317.52,-4348.45 314.78,-4346.76 312.21,-4345.04 309.82,-4343.29 307.62,-4341.5 305.63,-4339.7 303.87,-4337.88 302.34,-4336.04 301.05,-4334.2 300.03,-4332.35 299.27,-4330.51 298.79,-4328.67 298.61,-4326.85 298.72,-4325.05 299.14,-4323.26 299.87,-4321.51 300.92,-4319.79 302.28,-4318.1 303.97,-4316.46 305.98,-4314.86 308.32,-4313.31 310.97,-4311.82 313.93,-4310.38 317.2,-4309.01 320.77,-4307.71 324.63,-4306.47 328.77,-4305.31 333.17,-4304.23 337.82,-4303.22 342.71,-4302.3 347.81,-4301.46 353.11,-4300.71 358.59,-4300.05 364.22,-4299.48 369.98,-4299 375.86,-4298.62 381.82,-4298.33 387.85,-4298.14 393.91,-4298.04 399.99,-4298.04 406.05,-4298.14"/>
<text text-anchor="start" x="367.78" y="-4343.07" font-family="Times,serif" font-size="14.00">C0443158</text>
<text text-anchor="start" x="339.6" y="-4329.07" font-family="Times,serif" font-size="14.00">spontaneous activity</text>
<text text-anchor="start" x="381" y="-4315.07" font-family="Times,serif" font-size="14.00">41:42</text>
</g>
<!-- id_27707812_DOT_1&#45;&#45;id_27707812_DOT_4 -->
<g id="edge1" class="edge">
<title>id_27707812_DOT_1&#45;&#45;id_27707812_DOT_4</title>
<path fill="none" stroke="black" d="M146.23,-4511.09C203.21,-4470.68 299.45,-4402.42 354.64,-4363.28"/>
<text text-anchor="middle" x="224.19" y="-4439.98" font-family="Times,serif" font-size="14.00">0.002495</text>
</g>
<!-- id_27707812_DOT_2 -->
<g id="node2" class="node">
<title>id_27707812_DOT_2</title>
<polygon fill="bisque" stroke="bisque" points="2729.43,-1425.26 2736.31,-1425.45 2743.12,-1425.74 2749.83,-1426.13 2756.42,-1426.6 2762.85,-1427.17 2769.1,-1427.84 2775.16,-1428.59 2780.99,-1429.42 2786.57,-1430.35 2791.88,-1431.35 2796.91,-1432.44 2801.63,-1433.6 2806.04,-1434.83 2810.12,-1436.14 2813.86,-1437.51 2817.24,-1438.94 2820.27,-1440.44 2822.94,-1441.98 2825.23,-1443.58 2827.16,-1445.23 2828.72,-1446.91 2829.92,-1448.63 2830.75,-1450.39 2831.23,-1452.17 2831.36,-1453.98 2831.15,-1455.8 2830.61,-1457.63 2829.74,-1459.48 2828.57,-1461.32 2827.1,-1463.17 2825.35,-1465 2823.34,-1466.82 2821.07,-1468.63 2818.56,-1470.41 2815.83,-1472.17 2812.89,-1473.89 2809.76,-1475.57 2806.45,-1477.22 2802.98,-1478.82 2799.37,-1480.36 2795.61,-1481.86 2791.74,-1483.29 2787.76,-1484.66 2783.68,-1485.97 2779.52,-1487.2 2775.28,-1488.36 2770.98,-1489.45 2766.62,-1490.45 2762.21,-1491.38 2757.76,-1492.21 2753.27,-1492.96 2748.76,-1493.63 2744.22,-1494.2 2739.67,-1494.67 2735.09,-1495.06 2730.51,-1495.35 2725.92,-1495.54 2721.33,-1495.64 2716.73,-1495.64 2712.14,-1495.54 2707.55,-1495.35 2702.97,-1495.06 2698.4,-1494.67 2693.84,-1494.2 2689.3,-1493.63 2684.79,-1492.96 2680.31,-1492.21 2675.86,-1491.38 2671.45,-1490.45 2667.09,-1489.45 2662.78,-1488.36 2658.54,-1487.2 2654.38,-1485.97 2650.3,-1484.66 2646.32,-1483.29 2642.45,-1481.86 2638.7,-1480.36 2635.08,-1478.82 2631.61,-1477.22 2628.3,-1475.57 2625.17,-1473.89 2622.23,-1472.17 2619.5,-1470.41 2617,-1468.63 2614.73,-1466.82 2612.71,-1465 2610.96,-1463.17 2609.49,-1461.32 2608.32,-1459.48 2607.46,-1457.63 2606.91,-1455.8 2606.7,-1453.98 2606.83,-1452.17 2607.31,-1450.39 2608.14,-1448.63 2609.34,-1446.91 2610.9,-1445.23 2612.83,-1443.58 2615.13,-1441.98 2617.79,-1440.44 2620.82,-1438.94 2624.21,-1437.51 2627.94,-1436.14 2632.02,-1434.83 2636.43,-1433.6 2641.16,-1432.44 2646.18,-1431.35 2651.5,-1430.35 2657.08,-1429.42 2662.9,-1428.59 2668.96,-1427.84 2675.21,-1427.17 2681.65,-1426.6 2688.23,-1426.13 2694.94,-1425.74 2701.75,-1425.45 2708.64,-1425.26 2715.56,-1425.16 2722.5,-1425.16 2729.43,-1425.26"/>
<text text-anchor="start" x="2689.86" y="-1470.2" font-family="Times,serif" font-size="14.00">C2954070</text>
<text text-anchor="start" x="2652.56" y="-1456.2" font-family="Times,serif" font-size="14.00">primary auditory cortex</text>
<text text-anchor="start" x="2706.59" y="-1442.2" font-family="Times,serif" font-size="14.00">8:10</text>
</g>
<!-- id_27707812_DOT_11 -->
<g id="node11" class="node">
<title>id_27707812_DOT_11</title>
<polygon fill="cornflowerblue" stroke="cornflowerblue" points="3058.38,-1162.2 3062.76,-1162.4 3067.09,-1162.68 3071.36,-1163.07 3075.55,-1163.55 3079.64,-1164.12 3083.62,-1164.78 3087.47,-1165.53 3091.17,-1166.37 3094.72,-1167.29 3098.1,-1168.29 3101.3,-1169.38 3104.3,-1170.54 3107.11,-1171.77 3109.7,-1173.08 3112.08,-1174.45 3114.23,-1175.88 3116.15,-1177.38 3117.85,-1178.93 3119.31,-1180.52 3120.54,-1182.17 3121.53,-1183.85 3122.29,-1185.58 3122.82,-1187.33 3123.13,-1189.11 3123.21,-1190.92 3123.07,-1192.74 3122.73,-1194.58 3122.18,-1196.42 3121.43,-1198.26 3120.5,-1200.11 3119.39,-1201.94 3118.1,-1203.77 3116.66,-1205.57 3115.07,-1207.35 3113.33,-1209.11 3111.46,-1210.83 3109.47,-1212.52 3107.37,-1214.16 3105.16,-1215.76 3102.86,-1217.31 3100.48,-1218.8 3098.01,-1220.23 3095.48,-1221.6 3092.89,-1222.91 3090.24,-1224.14 3087.54,-1225.31 3084.81,-1226.39 3082.03,-1227.4 3079.23,-1228.32 3076.4,-1229.16 3073.55,-1229.91 3070.68,-1230.57 3067.79,-1231.14 3064.89,-1231.62 3061.99,-1232 3059.07,-1232.29 3056.16,-1232.48 3053.23,-1232.58 3050.31,-1232.58 3047.39,-1232.48 3044.47,-1232.29 3041.56,-1232 3038.65,-1231.62 3035.75,-1231.14 3032.87,-1230.57 3030,-1229.91 3027.15,-1229.16 3024.32,-1228.32 3021.51,-1227.4 3018.74,-1226.39 3016,-1225.31 3013.31,-1224.14 3010.66,-1222.91 3008.07,-1221.6 3005.53,-1220.23 3003.07,-1218.8 3000.68,-1217.31 2998.38,-1215.76 2996.18,-1214.16 2994.07,-1212.52 2992.08,-1210.83 2990.21,-1209.11 2988.48,-1207.35 2986.88,-1205.57 2985.44,-1203.77 2984.16,-1201.94 2983.05,-1200.11 2982.11,-1198.26 2981.37,-1196.42 2980.82,-1194.58 2980.47,-1192.74 2980.34,-1190.92 2980.42,-1189.11 2980.72,-1187.33 2981.25,-1185.58 2982.01,-1183.85 2983.01,-1182.17 2984.23,-1180.52 2985.7,-1178.93 2987.39,-1177.38 2989.32,-1175.88 2991.47,-1174.45 2993.85,-1173.08 2996.44,-1171.77 2999.24,-1170.54 3002.25,-1169.38 3005.45,-1168.29 3008.82,-1167.29 3012.37,-1166.37 3016.08,-1165.53 3019.93,-1164.78 3023.91,-1164.12 3028,-1163.55 3032.19,-1163.07 3036.45,-1162.68 3040.79,-1162.4 3045.16,-1162.2 3049.57,-1162.11 3053.98,-1162.11 3058.38,-1162.2"/>
<text text-anchor="start" x="3022.6" y="-1207.14" font-family="Times,serif" font-size="14.00">C0004302</text>
<text text-anchor="start" x="3012.32" y="-1193.14" font-family="Times,serif" font-size="14.00">auditory areas</text>
<text text-anchor="start" x="3028.83" y="-1179.14" font-family="Times,serif" font-size="14.00">107:108</text>
</g>
<!-- id_27707812_DOT_2&#45;&#45;id_27707812_DOT_11 -->
<g id="edge12" class="edge">
<title>id_27707812_DOT_2&#45;&#45;id_27707812_DOT_11</title>
<path fill="none" stroke="black" stroke-dasharray="1,5" d="M2761.51,-1426.82C2827.74,-1374.46 2954.39,-1274.33 3016.14,-1225.51"/>
<text text-anchor="middle" x="2862.58" y="-1328.96" font-family="Times,serif" font-size="14.00">0.736196</text>
</g>
<!-- id_27707812_DOT_14 -->
<g id="node14" class="node">
<title>id_27707812_DOT_14</title>
<polygon fill="bisque" stroke="bisque" points="2447.11,-1703.35 2454,-1703.54 2460.81,-1703.83 2467.52,-1704.21 2474.1,-1704.69 2480.54,-1705.26 2486.79,-1705.92 2492.85,-1706.67 2498.67,-1707.51 2504.25,-1708.43 2509.57,-1709.44 2514.6,-1710.52 2519.32,-1711.68 2523.73,-1712.92 2527.81,-1714.22 2531.54,-1715.59 2534.93,-1717.03 2537.96,-1718.52 2540.62,-1720.07 2542.92,-1721.67 2544.85,-1723.31 2546.41,-1725 2547.61,-1726.72 2548.44,-1728.48 2548.92,-1730.26 2549.05,-1732.06 2548.84,-1733.89 2548.29,-1735.72 2547.43,-1737.56 2546.26,-1739.41 2544.79,-1741.25 2543.04,-1743.09 2541.02,-1744.91 2538.75,-1746.71 2536.25,-1748.5 2533.52,-1750.25 2530.58,-1751.97 2527.45,-1753.66 2524.14,-1755.3 2520.67,-1756.9 2517.05,-1758.45 2513.3,-1759.94 2509.43,-1761.38 2505.45,-1762.75 2501.37,-1764.05 2497.21,-1765.29 2492.97,-1766.45 2488.66,-1767.53 2484.3,-1768.54 2479.89,-1769.46 2475.44,-1770.3 2470.96,-1771.05 2466.45,-1771.71 2461.91,-1772.28 2457.35,-1772.76 2452.78,-1773.14 2448.2,-1773.43 2443.61,-1773.62 2439.02,-1773.72 2434.42,-1773.72 2429.83,-1773.62 2425.24,-1773.43 2420.66,-1773.14 2416.08,-1772.76 2411.53,-1772.28 2406.99,-1771.71 2402.48,-1771.05 2397.99,-1770.3 2393.54,-1769.46 2389.13,-1768.54 2384.77,-1767.53 2380.47,-1766.45 2376.23,-1765.29 2372.07,-1764.05 2367.99,-1762.75 2364.01,-1761.38 2360.14,-1759.94 2356.38,-1758.45 2352.77,-1756.9 2349.3,-1755.3 2345.99,-1753.66 2342.86,-1751.97 2339.92,-1750.25 2337.19,-1748.5 2334.68,-1746.71 2332.41,-1744.91 2330.4,-1743.09 2328.65,-1741.25 2327.18,-1739.41 2326.01,-1737.56 2325.15,-1735.72 2324.6,-1733.89 2324.39,-1732.06 2324.52,-1730.26 2325,-1728.48 2325.83,-1726.72 2327.03,-1725 2328.59,-1723.31 2330.52,-1721.67 2332.82,-1720.07 2335.48,-1718.52 2338.51,-1717.03 2341.89,-1715.59 2345.63,-1714.22 2349.71,-1712.92 2354.12,-1711.68 2358.84,-1710.52 2363.87,-1709.44 2369.18,-1708.43 2374.76,-1707.51 2380.59,-1706.67 2386.65,-1705.92 2392.9,-1705.26 2399.33,-1704.69 2405.92,-1704.21 2412.63,-1703.83 2419.44,-1703.54 2426.32,-1703.35 2433.25,-1703.25 2440.19,-1703.25 2447.11,-1703.35"/>
<text text-anchor="start" x="2407.55" y="-1748.29" font-family="Times,serif" font-size="14.00">C2954070</text>
<text text-anchor="start" x="2370.24" y="-1734.29" font-family="Times,serif" font-size="14.00">primary auditory cortex</text>
<text text-anchor="start" x="2413.77" y="-1720.29" font-family="Times,serif" font-size="14.00">129:131</text>
</g>
<!-- id_27707812_DOT_2&#45;&#45;id_27707812_DOT_14 -->
<g id="edge2" class="edge">
<title>id_27707812_DOT_2&#45;&#45;id_27707812_DOT_14</title>
<path fill="none" stroke="black" d="M2685.82,-1493.12C2632.03,-1546.1 2526.39,-1650.16 2471.57,-1704.15"/>
<text text-anchor="middle" x="2552.44" y="-1601.44" font-family="Times,serif" font-size="14.00">0.029622</text>
</g>
<!-- id_27707812_DOT_3 -->
<g id="node3" class="node">
<title>id_27707812_DOT_3</title>
<polygon fill="blue" stroke="blue" points="4234.17,-918.86 4239.2,-919.05 4244.18,-919.34 4249.08,-919.73 4253.89,-920.2 4258.59,-920.77 4263.16,-921.44 4267.58,-922.19 4271.84,-923.02 4275.92,-923.95 4279.8,-924.95 4283.47,-926.04 4286.92,-927.2 4290.14,-928.43 4293.12,-929.74 4295.85,-931.11 4298.33,-932.54 4300.54,-934.04 4302.48,-935.58 4304.16,-937.18 4305.57,-938.83 4306.71,-940.51 4307.59,-942.23 4308.2,-943.99 4308.55,-945.77 4308.64,-947.58 4308.48,-949.4 4308.09,-951.23 4307.46,-953.08 4306.6,-954.92 4305.53,-956.77 4304.25,-958.6 4302.78,-960.42 4301.12,-962.23 4299.29,-964.01 4297.29,-965.77 4295.15,-967.49 4292.86,-969.17 4290.44,-970.82 4287.91,-972.42 4285.27,-973.96 4282.53,-975.46 4279.7,-976.89 4276.79,-978.26 4273.81,-979.57 4270.77,-980.8 4267.67,-981.96 4264.53,-983.05 4261.34,-984.05 4258.12,-984.98 4254.87,-985.81 4251.59,-986.56 4248.3,-987.23 4244.98,-987.8 4241.65,-988.27 4238.31,-988.66 4234.97,-988.95 4231.61,-989.14 4228.26,-989.24 4224.9,-989.24 4221.54,-989.14 4218.19,-988.95 4214.84,-988.66 4211.51,-988.27 4208.18,-987.8 4204.86,-987.23 4201.57,-986.56 4198.29,-985.81 4195.04,-984.98 4191.82,-984.05 4188.63,-983.05 4185.49,-981.96 4182.39,-980.8 4179.35,-979.57 4176.37,-978.26 4173.46,-976.89 4170.63,-975.46 4167.89,-973.96 4165.25,-972.42 4162.71,-970.82 4160.3,-969.17 4158.01,-967.49 4155.86,-965.77 4153.87,-964.01 4152.04,-962.23 4150.38,-960.42 4148.91,-958.6 4147.63,-956.77 4146.56,-954.92 4145.7,-953.08 4145.07,-951.23 4144.67,-949.4 4144.52,-947.58 4144.61,-945.77 4144.96,-943.99 4145.57,-942.23 4146.44,-940.51 4147.59,-938.83 4149,-937.18 4150.67,-935.58 4152.62,-934.04 4154.83,-932.54 4157.31,-931.11 4160.04,-929.74 4163.01,-928.43 4166.24,-927.2 4169.69,-926.04 4173.36,-924.95 4177.24,-923.95 4181.32,-923.02 4185.58,-922.19 4190,-921.44 4194.57,-920.77 4199.27,-920.2 4204.08,-919.73 4208.98,-919.34 4213.96,-919.05 4218.99,-918.86 4224.04,-918.76 4229.11,-918.76 4234.17,-918.86"/>
<text text-anchor="start" x="4197.41" y="-963.8" font-family="Times,serif" font-size="14.00">C0027883</text>
<text text-anchor="start" x="4180.11" y="-949.8" font-family="Times,serif" font-size="14.00">Sensory neurons</text>
<text text-anchor="start" x="4210.89" y="-935.8" font-family="Times,serif" font-size="14.00">11:12</text>
</g>
<!-- id_27707812_DOT_8 -->
<g id="node8" class="node">
<title>id_27707812_DOT_8</title>
<polygon fill="cadetblue" stroke="cadetblue" points="4601.44,-878.58 4604.87,-878.77 4608.26,-879.06 4611.6,-879.45 4614.88,-879.92 4618.09,-880.49 4621.2,-881.16 4624.22,-881.91 4627.12,-882.74 4629.9,-883.67 4632.55,-884.67 4635.05,-885.76 4637.41,-886.92 4639.6,-888.15 4641.63,-889.46 4643.5,-890.83 4645.18,-892.26 4646.69,-893.76 4648.02,-895.3 4649.16,-896.9 4650.12,-898.55 4650.9,-900.23 4651.5,-901.95 4651.91,-903.71 4652.15,-905.49 4652.22,-907.3 4652.11,-909.12 4651.84,-910.95 4651.41,-912.8 4650.83,-914.64 4650.09,-916.49 4649.22,-918.32 4648.22,-920.14 4647.09,-921.95 4645.84,-923.73 4644.48,-925.49 4643.02,-927.21 4641.46,-928.89 4639.81,-930.54 4638.08,-932.14 4636.28,-933.68 4634.41,-935.18 4632.48,-936.61 4630.5,-937.98 4628.46,-939.29 4626.39,-940.52 4624.28,-941.68 4622.14,-942.77 4619.96,-943.77 4617.77,-944.7 4615.55,-945.53 4613.32,-946.28 4611.07,-946.95 4608.81,-947.52 4606.54,-947.99 4604.26,-948.38 4601.98,-948.67 4599.69,-948.86 4597.4,-948.96 4595.11,-948.96 4592.83,-948.86 4590.54,-948.67 4588.26,-948.38 4585.98,-947.99 4583.71,-947.52 4581.45,-946.95 4579.2,-946.28 4576.97,-945.53 4574.75,-944.7 4572.56,-943.77 4570.38,-942.77 4568.24,-941.68 4566.13,-940.52 4564.05,-939.29 4562.02,-937.98 4560.04,-936.61 4558.11,-935.18 4556.24,-933.68 4554.44,-932.14 4552.71,-930.54 4551.06,-928.89 4549.5,-927.21 4548.04,-925.49 4546.68,-923.73 4545.43,-921.95 4544.3,-920.14 4543.3,-918.32 4542.42,-916.49 4541.69,-914.64 4541.11,-912.8 4540.68,-910.95 4540.41,-909.12 4540.3,-907.3 4540.37,-905.49 4540.6,-903.71 4541.02,-901.95 4541.62,-900.23 4542.39,-898.55 4543.36,-896.9 4544.5,-895.3 4545.83,-893.76 4547.34,-892.26 4549.02,-890.83 4550.88,-889.46 4552.92,-888.15 4555.11,-886.92 4557.47,-885.76 4559.97,-884.67 4562.62,-883.67 4565.4,-882.74 4568.3,-881.91 4571.32,-881.16 4574.43,-880.49 4577.64,-879.92 4580.92,-879.45 4584.26,-879.06 4587.65,-878.77 4591.08,-878.58 4594.53,-878.49 4597.99,-878.49 4601.44,-878.58"/>
<text text-anchor="start" x="4567.09" y="-923.52" font-family="Times,serif" font-size="14.00">C0027882</text>
<text text-anchor="start" x="4574.1" y="-909.52" font-family="Times,serif" font-size="14.00">neurons</text>
<text text-anchor="start" x="4580.31" y="-895.52" font-family="Times,serif" font-size="14.00">76:76</text>
</g>
<!-- id_27707812_DOT_3&#45;&#45;id_27707812_DOT_8 -->
<g id="edge3" class="edge">
<title>id_27707812_DOT_3&#45;&#45;id_27707812_DOT_8</title>
<path fill="none" stroke="black" d="M4308.62,-945.06C4380.41,-937.24 4482.54,-926.11 4543.82,-919.43"/>
<text text-anchor="middle" x="4399.97" y="-935.05" font-family="Times,serif" font-size="14.00">0.070306</text>
</g>
<!-- id_27707812_DOT_16 -->
<g id="node16" class="node">
<title>id_27707812_DOT_16</title>
<polygon fill="darkgreen" stroke="darkgreen" points="3851.53,-962.73 3854.96,-962.93 3858.35,-963.22 3861.7,-963.6 3864.98,-964.08 3868.18,-964.65 3871.3,-965.31 3874.31,-966.06 3877.22,-966.9 3880,-967.82 3882.64,-968.82 3885.15,-969.91 3887.5,-971.07 3889.7,-972.31 3891.73,-973.61 3893.59,-974.98 3895.28,-976.42 3896.79,-977.91 3898.11,-979.46 3899.26,-981.05 3900.22,-982.7 3901,-984.38 3901.59,-986.11 3902.01,-987.86 3902.25,-989.64 3902.31,-991.45 3902.21,-993.27 3901.94,-995.11 3901.51,-996.95 3900.92,-998.8 3900.19,-1000.64 3899.32,-1002.47 3898.31,-1004.3 3897.18,-1006.1 3895.93,-1007.88 3894.57,-1009.64 3893.11,-1011.36 3891.55,-1013.05 3889.9,-1014.69 3888.18,-1016.29 3886.37,-1017.84 3884.5,-1019.33 3882.58,-1020.76 3880.59,-1022.14 3878.56,-1023.44 3876.49,-1024.68 3874.38,-1025.84 3872.23,-1026.92 3870.06,-1027.93 3867.86,-1028.85 3865.65,-1029.69 3863.41,-1030.44 3861.16,-1031.1 3858.9,-1031.67 3856.63,-1032.15 3854.36,-1032.53 3852.07,-1032.82 3849.79,-1033.01 3847.5,-1033.11 3845.21,-1033.11 3842.92,-1033.01 3840.64,-1032.82 3838.35,-1032.53 3836.08,-1032.15 3833.81,-1031.67 3831.55,-1031.1 3829.3,-1030.44 3827.06,-1029.69 3824.85,-1028.85 3822.65,-1027.93 3820.48,-1026.92 3818.34,-1025.84 3816.22,-1024.68 3814.15,-1023.44 3812.12,-1022.14 3810.13,-1020.76 3808.21,-1019.33 3806.34,-1017.84 3804.53,-1016.29 3802.81,-1014.69 3801.16,-1013.05 3799.6,-1011.36 3798.14,-1009.64 3796.78,-1007.88 3795.53,-1006.1 3794.4,-1004.3 3793.39,-1002.47 3792.52,-1000.64 3791.79,-998.8 3791.21,-996.95 3790.78,-995.11 3790.5,-993.27 3790.4,-991.45 3790.46,-989.64 3790.7,-987.86 3791.12,-986.11 3791.71,-984.38 3792.49,-982.7 3793.45,-981.05 3794.6,-979.46 3795.92,-977.91 3797.43,-976.42 3799.12,-974.98 3800.98,-973.61 3803.01,-972.31 3805.21,-971.07 3807.56,-969.91 3810.07,-968.82 3812.71,-967.82 3815.49,-966.9 3818.4,-966.06 3821.41,-965.31 3824.53,-964.65 3827.73,-964.08 3831.01,-963.6 3834.36,-963.22 3837.75,-962.93 3841.18,-962.73 3844.63,-962.64 3848.08,-962.64 3851.53,-962.73"/>
<text text-anchor="start" x="3817.19" y="-1007.67" font-family="Times,serif" font-size="14.00">C0026447</text>
<text text-anchor="start" x="3821.08" y="-993.67" font-family="Times,serif" font-size="14.00">monkeys</text>
<text text-anchor="start" x="3823.41" y="-979.67" font-family="Times,serif" font-size="14.00">135:135</text>
</g>
<!-- id_27707812_DOT_3&#45;&#45;id_27707812_DOT_16 -->
<g id="edge13" class="edge">
<title>id_27707812_DOT_3&#45;&#45;id_27707812_DOT_16</title>
<path fill="none" stroke="black" stroke-dasharray="1,5" d="M4152.37,-962.56C4079.1,-971.02 3968.7,-983.76 3902.46,-991.4"/>
<text text-anchor="middle" x="4001.16" y="-979.78" font-family="Times,serif" font-size="14.00">0.845129</text>
</g>
<!-- id_27707812_DOT_7 -->
<g id="node7" class="node">
<title>id_27707812_DOT_7</title>
<polygon fill="aquamarine" stroke="aquamarine" points="681.68,-4058.79 687.71,-4058.99 693.67,-4059.28 699.55,-4059.66 705.31,-4060.14 710.94,-4060.71 716.42,-4061.37 721.72,-4062.12 726.82,-4062.96 731.71,-4063.88 736.36,-4064.88 740.76,-4065.97 744.9,-4067.13 748.76,-4068.37 752.33,-4069.67 755.6,-4071.04 758.56,-4072.48 761.21,-4073.97 763.55,-4075.52 765.56,-4077.11 767.25,-4078.76 768.62,-4080.44 769.66,-4082.17 770.39,-4083.92 770.81,-4085.7 770.92,-4087.51 770.74,-4089.33 770.26,-4091.17 769.51,-4093.01 768.48,-4094.86 767.2,-4096.7 765.66,-4098.53 763.9,-4100.36 761.91,-4102.16 759.72,-4103.94 757.33,-4105.7 754.75,-4107.42 752.01,-4109.11 749.12,-4110.75 746.08,-4112.35 742.91,-4113.9 739.63,-4115.39 736.24,-4116.82 732.75,-4118.2 729.18,-4119.5 725.54,-4120.74 721.83,-4121.9 718.06,-4122.98 714.24,-4123.99 710.38,-4124.91 706.49,-4125.75 702.56,-4126.5 698.61,-4127.16 694.64,-4127.73 690.65,-4128.21 686.65,-4128.59 682.63,-4128.88 678.62,-4129.07 674.59,-4129.17 670.57,-4129.17 666.55,-4129.07 662.53,-4128.88 658.52,-4128.59 654.52,-4128.21 650.53,-4127.73 646.56,-4127.16 642.61,-4126.5 638.68,-4125.75 634.78,-4124.91 630.92,-4123.99 627.11,-4122.98 623.34,-4121.9 619.63,-4120.74 615.98,-4119.5 612.41,-4118.2 608.93,-4116.82 605.54,-4115.39 602.25,-4113.9 599.08,-4112.35 596.05,-4110.75 593.15,-4109.11 590.41,-4107.42 587.84,-4105.7 585.45,-4103.94 583.25,-4102.16 581.27,-4100.36 579.5,-4098.53 577.97,-4096.7 576.69,-4094.86 575.66,-4093.01 574.9,-4091.17 574.43,-4089.33 574.24,-4087.51 574.35,-4085.7 574.77,-4083.92 575.5,-4082.17 576.55,-4080.44 577.92,-4078.76 579.61,-4077.11 581.62,-4075.52 583.95,-4073.97 586.6,-4072.48 589.57,-4071.04 592.84,-4069.67 596.41,-4068.37 600.27,-4067.13 604.4,-4065.97 608.81,-4064.88 613.46,-4063.88 618.34,-4062.96 623.45,-4062.12 628.75,-4061.37 634.22,-4060.71 639.85,-4060.14 645.62,-4059.66 651.49,-4059.28 657.46,-4058.99 663.48,-4058.79 669.55,-4058.7 675.62,-4058.7 681.68,-4058.79"/>
<text text-anchor="start" x="643.41" y="-4103.73" font-family="Times,serif" font-size="14.00">C0443158</text>
<text text-anchor="start" x="615.23" y="-4089.73" font-family="Times,serif" font-size="14.00">spontaneous activity</text>
<text text-anchor="start" x="656.64" y="-4075.73" font-family="Times,serif" font-size="14.00">61:62</text>
</g>
<!-- id_27707812_DOT_4&#45;&#45;id_27707812_DOT_7 -->
<g id="edge4" class="edge">
<title>id_27707812_DOT_4&#45;&#45;id_27707812_DOT_7</title>
<path fill="none" stroke="black" d="M435.27,-4300C488.53,-4253.75 584.21,-4170.67 636.34,-4125.41"/>
<text text-anchor="middle" x="509.56" y="-4215.5" font-family="Times,serif" font-size="14.00">0.004775</text>
</g>
<!-- id_27707812_DOT_5 -->
<g id="node5" class="node">
<title>id_27707812_DOT_5</title>
<polygon fill="blueviolet" stroke="blueviolet" points="3581.3,-1783.8 3584.73,-1783.99 3588.12,-1784.28 3591.46,-1784.67 3594.74,-1785.14 3597.95,-1785.71 3601.06,-1786.37 3604.08,-1787.13 3606.98,-1787.96 3609.76,-1788.89 3612.41,-1789.89 3614.91,-1790.98 3617.27,-1792.14 3619.46,-1793.37 3621.5,-1794.68 3623.36,-1796.05 3625.04,-1797.48 3626.55,-1798.97 3627.88,-1800.52 3629.02,-1802.12 3629.98,-1803.76 3630.76,-1805.45 3631.36,-1807.17 3631.77,-1808.93 3632.01,-1810.71 3632.08,-1812.52 3631.97,-1814.34 3631.7,-1816.17 3631.27,-1818.02 3630.69,-1819.86 3629.95,-1821.7 3629.08,-1823.54 3628.08,-1825.36 3626.95,-1827.17 3625.7,-1828.95 3624.34,-1830.7 3622.88,-1832.43 3621.32,-1834.11 3619.67,-1835.76 3617.94,-1837.36 3616.14,-1838.9 3614.27,-1840.4 3612.34,-1841.83 3610.36,-1843.2 3608.32,-1844.51 3606.25,-1845.74 3604.14,-1846.9 3602,-1847.99 3599.82,-1848.99 3597.63,-1849.92 3595.41,-1850.75 3593.18,-1851.5 3590.93,-1852.16 3588.67,-1852.74 3586.4,-1853.21 3584.12,-1853.6 3581.84,-1853.89 3579.55,-1854.08 3577.26,-1854.17 3574.97,-1854.17 3572.69,-1854.08 3570.4,-1853.89 3568.12,-1853.6 3565.84,-1853.21 3563.57,-1852.74 3561.31,-1852.16 3559.06,-1851.5 3556.83,-1850.75 3554.61,-1849.92 3552.42,-1848.99 3550.24,-1847.99 3548.1,-1846.9 3545.99,-1845.74 3543.91,-1844.51 3541.88,-1843.2 3539.9,-1841.83 3537.97,-1840.4 3536.1,-1838.9 3534.3,-1837.36 3532.57,-1835.76 3530.92,-1834.11 3529.36,-1832.43 3527.9,-1830.7 3526.54,-1828.95 3525.29,-1827.17 3524.16,-1825.36 3523.16,-1823.54 3522.28,-1821.7 3521.55,-1819.86 3520.97,-1818.02 3520.54,-1816.17 3520.27,-1814.34 3520.16,-1812.52 3520.23,-1810.71 3520.47,-1808.93 3520.88,-1807.17 3521.48,-1805.45 3522.25,-1803.76 3523.22,-1802.12 3524.36,-1800.52 3525.69,-1798.97 3527.2,-1797.48 3528.88,-1796.05 3530.74,-1794.68 3532.78,-1793.37 3534.97,-1792.14 3537.33,-1790.98 3539.83,-1789.89 3542.48,-1788.89 3545.26,-1787.96 3548.16,-1787.13 3551.18,-1786.37 3554.29,-1785.71 3557.5,-1785.14 3560.78,-1784.67 3564.12,-1784.28 3567.51,-1783.99 3570.94,-1783.8 3574.39,-1783.7 3577.85,-1783.7 3581.3,-1783.8"/>
<text text-anchor="start" x="3546.95" y="-1828.74" font-family="Times,serif" font-size="14.00">C2603343</text>
<text text-anchor="start" x="3556.67" y="-1814.74" font-family="Times,serif" font-size="14.00">studies</text>
<text text-anchor="start" x="3560.17" y="-1800.74" font-family="Times,serif" font-size="14.00">50:50</text>
</g>
<!-- id_27707812_DOT_13 -->
<g id="node13" class="node">
<title>id_27707812_DOT_13</title>
<polygon fill="blueviolet" stroke="blueviolet" points="3298.81,-1494.73 3302.24,-1494.93 3305.63,-1495.22 3308.98,-1495.6 3312.26,-1496.08 3315.46,-1496.65 3318.58,-1497.31 3321.59,-1498.06 3324.5,-1498.9 3327.28,-1499.82 3329.92,-1500.82 3332.43,-1501.91 3334.78,-1503.07 3336.98,-1504.3 3339.01,-1505.61 3340.87,-1506.98 3342.56,-1508.42 3344.07,-1509.91 3345.39,-1511.46 3346.54,-1513.05 3347.5,-1514.7 3348.28,-1516.38 3348.87,-1518.11 3349.29,-1519.86 3349.53,-1521.64 3349.59,-1523.45 3349.49,-1525.27 3349.22,-1527.11 3348.79,-1528.95 3348.2,-1530.8 3347.47,-1532.64 3346.6,-1534.47 3345.59,-1536.3 3344.46,-1538.1 3343.21,-1539.88 3341.85,-1541.64 3340.39,-1543.36 3338.83,-1545.05 3337.18,-1546.69 3335.46,-1548.29 3333.65,-1549.84 3331.79,-1551.33 3329.86,-1552.76 3327.87,-1554.14 3325.84,-1555.44 3323.77,-1556.67 3321.66,-1557.84 3319.51,-1558.92 3317.34,-1559.93 3315.14,-1560.85 3312.93,-1561.69 3310.69,-1562.44 3308.44,-1563.1 3306.18,-1563.67 3303.91,-1564.15 3301.64,-1564.53 3299.35,-1564.82 3297.07,-1565.01 3294.78,-1565.11 3292.49,-1565.11 3290.2,-1565.01 3287.92,-1564.82 3285.63,-1564.53 3283.36,-1564.15 3281.09,-1563.67 3278.83,-1563.1 3276.58,-1562.44 3274.34,-1561.69 3272.13,-1560.85 3269.93,-1559.93 3267.76,-1558.92 3265.62,-1557.84 3263.5,-1556.67 3261.43,-1555.44 3259.4,-1554.14 3257.42,-1552.76 3255.49,-1551.33 3253.62,-1549.84 3251.81,-1548.29 3250.09,-1546.69 3248.44,-1545.05 3246.88,-1543.36 3245.42,-1541.64 3244.06,-1539.88 3242.81,-1538.1 3241.68,-1536.3 3240.67,-1534.47 3239.8,-1532.64 3239.07,-1530.8 3238.49,-1528.95 3238.06,-1527.11 3237.78,-1525.27 3237.68,-1523.45 3237.74,-1521.64 3237.98,-1519.86 3238.4,-1518.11 3238.99,-1516.38 3239.77,-1514.7 3240.73,-1513.05 3241.88,-1511.46 3243.2,-1509.91 3244.71,-1508.42 3246.4,-1506.98 3248.26,-1505.61 3250.29,-1504.3 3252.49,-1503.07 3254.84,-1501.91 3257.35,-1500.82 3259.99,-1499.82 3262.77,-1498.9 3265.68,-1498.06 3268.69,-1497.31 3271.81,-1496.65 3275.01,-1496.08 3278.29,-1495.6 3281.64,-1495.22 3285.03,-1494.93 3288.46,-1494.73 3291.91,-1494.64 3295.36,-1494.64 3298.81,-1494.73"/>
<text text-anchor="start" x="3264.47" y="-1539.67" font-family="Times,serif" font-size="14.00">C2603343</text>
<text text-anchor="start" x="3278.47" y="-1525.67" font-family="Times,serif" font-size="14.00">study</text>
<text text-anchor="start" x="3270.69" y="-1511.67" font-family="Times,serif" font-size="14.00">120:120</text>
</g>
<!-- id_27707812_DOT_5&#45;&#45;id_27707812_DOT_13 -->
<g id="edge5" class="edge">
<title>id_27707812_DOT_5&#45;&#45;id_27707812_DOT_13</title>
<path fill="none" stroke="black" d="M3545.62,-1787.73C3490.41,-1731.23 3374.7,-1612.82 3321.49,-1558.37"/>
<text text-anchor="middle" x="3407.3" y="-1675.85" font-family="Times,serif" font-size="14.00">0.002102</text>
</g>
<!-- id_27707812_DOT_6 -->
<g id="node6" class="node">
<title>id_27707812_DOT_6</title>
<polygon fill="brown" stroke="brown" points="3458.26,-1032.29 3463.11,-1032.48 3467.92,-1032.77 3472.65,-1033.16 3477.29,-1033.63 3481.83,-1034.2 3486.24,-1034.87 3490.51,-1035.62 3494.62,-1036.45 3498.55,-1037.38 3502.3,-1038.38 3505.84,-1039.47 3509.17,-1040.63 3512.28,-1041.86 3515.16,-1043.17 3517.79,-1044.54 3520.18,-1045.97 3522.32,-1047.47 3524.19,-1049.01 3525.81,-1050.61 3527.17,-1052.26 3528.28,-1053.94 3529.12,-1055.66 3529.71,-1057.42 3530.04,-1059.2 3530.13,-1061.01 3529.99,-1062.83 3529.6,-1064.66 3528.99,-1066.51 3528.17,-1068.35 3527.13,-1070.2 3525.9,-1072.03 3524.48,-1073.85 3522.88,-1075.66 3521.11,-1077.44 3519.18,-1079.2 3517.11,-1080.92 3514.91,-1082.6 3512.57,-1084.25 3510.13,-1085.85 3507.58,-1087.39 3504.93,-1088.89 3502.2,-1090.32 3499.39,-1091.69 3496.52,-1093 3493.58,-1094.23 3490.59,-1095.39 3487.56,-1096.48 3484.48,-1097.48 3481.37,-1098.41 3478.24,-1099.24 3475.07,-1099.99 3471.89,-1100.66 3468.69,-1101.23 3465.48,-1101.7 3462.26,-1102.09 3459.03,-1102.38 3455.79,-1102.57 3452.55,-1102.67 3449.31,-1102.67 3446.07,-1102.57 3442.84,-1102.38 3439.61,-1102.09 3436.38,-1101.7 3433.17,-1101.23 3429.97,-1100.66 3426.79,-1099.99 3423.63,-1099.24 3420.49,-1098.41 3417.38,-1097.48 3414.31,-1096.48 3411.27,-1095.39 3408.28,-1094.23 3405.35,-1093 3402.47,-1091.69 3399.66,-1090.32 3396.93,-1088.89 3394.29,-1087.39 3391.74,-1085.85 3389.29,-1084.25 3386.96,-1082.6 3384.75,-1080.92 3382.68,-1079.2 3380.76,-1077.44 3378.99,-1075.66 3377.39,-1073.85 3375.97,-1072.03 3374.73,-1070.2 3373.7,-1068.35 3372.87,-1066.51 3372.26,-1064.66 3371.88,-1062.83 3371.73,-1061.01 3371.82,-1059.2 3372.16,-1057.42 3372.74,-1055.66 3373.59,-1053.94 3374.69,-1052.26 3376.05,-1050.61 3377.67,-1049.01 3379.55,-1047.47 3381.68,-1045.97 3384.07,-1044.54 3386.71,-1043.17 3389.58,-1041.86 3392.69,-1040.63 3396.02,-1039.47 3399.57,-1038.38 3403.31,-1037.38 3407.25,-1036.45 3411.36,-1035.62 3415.63,-1034.87 3420.04,-1034.2 3424.57,-1033.63 3429.22,-1033.16 3433.95,-1032.77 3438.75,-1032.48 3443.6,-1032.29 3448.49,-1032.19 3453.38,-1032.19 3458.26,-1032.29"/>
<text text-anchor="start" x="3421.76" y="-1077.23" font-family="Times,serif" font-size="14.00">C0587901</text>
<text text-anchor="start" x="3406.41" y="-1063.23" font-family="Times,serif" font-size="14.00">auditory system</text>
<text text-anchor="start" x="3434.99" y="-1049.23" font-family="Times,serif" font-size="14.00">53:54</text>
</g>
<!-- id_27707812_DOT_6&#45;&#45;id_27707812_DOT_11 -->
<g id="edge14" class="edge">
<title>id_27707812_DOT_6&#45;&#45;id_27707812_DOT_11</title>
<path fill="none" stroke="black" stroke-dasharray="1,5" d="M3392.46,-1086.46C3318.51,-1110.53 3191.65,-1151.82 3115.35,-1176.65"/>
<text text-anchor="middle" x="3227.66" y="-1134.35" font-family="Times,serif" font-size="14.00">0.336796</text>
</g>
<!-- id_27707812_DOT_6&#45;&#45;id_27707812_DOT_16 -->
<g id="edge15" class="edge">
<title>id_27707812_DOT_6&#45;&#45;id_27707812_DOT_16</title>
<path fill="none" stroke="black" stroke-dasharray="1,5" d="M3528.58,-1053.77C3607.75,-1039.84 3728.26,-1018.65 3795.85,-1006.76"/>
<text text-anchor="middle" x="3635.97" y="-1033.06" font-family="Times,serif" font-size="14.00">0.858762</text>
</g>
<!-- id_27707812_DOT_19 -->
<g id="node19" class="node">
<title>id_27707812_DOT_19</title>
<polygon fill="aquamarine" stroke="aquamarine" points="934.07,-3793.14 940.1,-3793.33 946.06,-3793.62 951.94,-3794 957.7,-3794.48 963.33,-3795.05 968.81,-3795.71 974.11,-3796.46 979.21,-3797.3 984.1,-3798.22 988.75,-3799.23 993.15,-3800.31 997.29,-3801.47 1001.15,-3802.71 1004.72,-3804.01 1007.99,-3805.38 1010.95,-3806.82 1013.6,-3808.31 1015.94,-3809.86 1017.95,-3811.46 1019.64,-3813.1 1021,-3814.79 1022.05,-3816.51 1022.78,-3818.26 1023.2,-3820.05 1023.31,-3821.85 1023.13,-3823.67 1022.65,-3825.51 1021.9,-3827.35 1020.87,-3829.2 1019.59,-3831.04 1018.05,-3832.87 1016.29,-3834.7 1014.3,-3836.5 1012.11,-3838.29 1009.72,-3840.04 1007.14,-3841.76 1004.4,-3843.45 1001.51,-3845.09 998.47,-3846.69 995.3,-3848.24 992.02,-3849.73 988.63,-3851.17 985.14,-3852.54 981.57,-3853.84 977.93,-3855.08 974.22,-3856.24 970.45,-3857.32 966.63,-3858.33 962.77,-3859.25 958.88,-3860.09 954.95,-3860.84 951,-3861.5 947.03,-3862.07 943.04,-3862.55 939.04,-3862.93 935.02,-3863.22 931.01,-3863.41 926.98,-3863.51 922.96,-3863.51 918.94,-3863.41 914.92,-3863.22 910.91,-3862.93 906.91,-3862.55 902.92,-3862.07 898.95,-3861.5 895,-3860.84 891.07,-3860.09 887.17,-3859.25 883.31,-3858.33 879.5,-3857.32 875.73,-3856.24 872.02,-3855.08 868.37,-3853.84 864.8,-3852.54 861.32,-3851.17 857.93,-3849.73 854.64,-3848.24 851.47,-3846.69 848.44,-3845.09 845.54,-3843.45 842.8,-3841.76 840.23,-3840.04 837.84,-3838.29 835.64,-3836.5 833.66,-3834.7 831.89,-3832.87 830.36,-3831.04 829.08,-3829.2 828.05,-3827.35 827.29,-3825.51 826.82,-3823.67 826.63,-3821.85 826.74,-3820.05 827.16,-3818.26 827.89,-3816.51 828.94,-3814.79 830.31,-3813.1 832,-3811.46 834.01,-3809.86 836.34,-3808.31 838.99,-3806.82 841.96,-3805.38 845.23,-3804.01 848.8,-3802.71 852.66,-3801.47 856.79,-3800.31 861.2,-3799.23 865.85,-3798.22 870.73,-3797.3 875.84,-3796.46 881.13,-3795.71 886.61,-3795.05 892.24,-3794.48 898.01,-3794 903.88,-3793.62 909.85,-3793.33 915.87,-3793.14 921.93,-3793.04 928.01,-3793.04 934.07,-3793.14"/>
<text text-anchor="start" x="895.8" y="-3838.07" font-family="Times,serif" font-size="14.00">C0443158</text>
<text text-anchor="start" x="867.62" y="-3824.07" font-family="Times,serif" font-size="14.00">spontaneous activity</text>
<text text-anchor="start" x="902.03" y="-3810.07" font-family="Times,serif" font-size="14.00">167:168</text>
</g>
<!-- id_27707812_DOT_7&#45;&#45;id_27707812_DOT_19 -->
<g id="edge6" class="edge">
<title>id_27707812_DOT_7&#45;&#45;id_27707812_DOT_19</title>
<path fill="none" stroke="black" d="M704.8,-4060.02C753.71,-4008.54 846.05,-3911.34 894.13,-3860.74"/>
<text text-anchor="middle" x="773.22" y="-3963.18" font-family="Times,serif" font-size="14.00">0.029147</text>
</g>
<!-- id_27707812_DOT_9 -->
<g id="node9" class="node">
<title>id_27707812_DOT_9</title>
<polygon fill="chartreuse" stroke="chartreuse" points="2890.49,-764.38 2895.34,-764.57 2900.15,-764.86 2904.88,-765.24 2909.52,-765.72 2914.06,-766.29 2918.47,-766.95 2922.74,-767.7 2926.85,-768.54 2930.79,-769.46 2934.53,-770.47 2938.08,-771.55 2941.41,-772.71 2944.52,-773.95 2947.4,-775.25 2950.03,-776.62 2952.42,-778.06 2954.55,-779.55 2956.43,-781.1 2958.05,-782.7 2959.41,-784.34 2960.51,-786.03 2961.36,-787.75 2961.95,-789.5 2962.28,-791.29 2962.37,-793.09 2962.22,-794.91 2961.84,-796.75 2961.23,-798.59 2960.41,-800.44 2959.37,-802.28 2958.14,-804.12 2956.72,-805.94 2955.11,-807.74 2953.35,-809.53 2951.42,-811.28 2949.35,-813 2947.14,-814.69 2944.81,-816.33 2942.36,-817.93 2939.81,-819.48 2937.17,-820.97 2934.43,-822.41 2931.63,-823.78 2928.75,-825.08 2925.82,-826.32 2922.83,-827.48 2919.79,-828.56 2916.72,-829.57 2913.61,-830.49 2910.47,-831.33 2907.31,-832.08 2904.12,-832.74 2900.92,-833.31 2897.71,-833.79 2894.49,-834.17 2891.26,-834.46 2888.02,-834.65 2884.78,-834.75 2881.54,-834.75 2878.3,-834.65 2875.06,-834.46 2871.83,-834.17 2868.61,-833.79 2865.4,-833.31 2862.2,-832.74 2859.01,-832.08 2855.85,-831.33 2852.71,-830.49 2849.61,-829.57 2846.53,-828.56 2843.5,-827.48 2840.51,-826.32 2837.57,-825.08 2834.69,-823.78 2831.89,-822.41 2829.16,-820.97 2826.51,-819.48 2823.96,-817.93 2821.51,-816.33 2819.18,-814.69 2816.97,-813 2814.9,-811.28 2812.98,-809.53 2811.21,-807.74 2809.61,-805.94 2808.18,-804.12 2806.95,-802.28 2805.92,-800.44 2805.09,-798.59 2804.48,-796.75 2804.1,-794.91 2803.95,-793.09 2804.04,-791.29 2804.38,-789.5 2804.96,-787.75 2805.81,-786.03 2806.91,-784.34 2808.27,-782.7 2809.89,-781.1 2811.77,-779.55 2813.9,-778.06 2816.29,-776.62 2818.93,-775.25 2821.8,-773.95 2824.91,-772.71 2828.24,-771.55 2831.79,-770.47 2835.54,-769.46 2839.47,-768.54 2843.58,-767.7 2847.85,-766.95 2852.26,-766.29 2856.8,-765.72 2861.44,-765.24 2866.17,-764.86 2870.98,-764.57 2875.83,-764.38 2880.71,-764.28 2885.61,-764.28 2890.49,-764.38"/>
<text text-anchor="start" x="2853.99" y="-809.32" font-family="Times,serif" font-size="14.00">C0178490</text>
<text text-anchor="start" x="2838.63" y="-795.32" font-family="Times,serif" font-size="14.00">auditory stimuli</text>
<text text-anchor="start" x="2867.22" y="-781.32" font-family="Times,serif" font-size="14.00">89:90</text>
</g>
<!-- id_27707812_DOT_9&#45;&#45;id_27707812_DOT_11 -->
<g id="edge16" class="edge">
<title>id_27707812_DOT_9&#45;&#45;id_27707812_DOT_11</title>
<path fill="none" stroke="black" stroke-dasharray="1,5" d="M2897.83,-834.12C2929.72,-909.36 3005.05,-1087.11 3037.02,-1162.53"/>
<text text-anchor="middle" x="2941.17" y="-1001.13" font-family="Times,serif" font-size="14.00">0.775602</text>
</g>
<!-- id_27707812_DOT_21 -->
<g id="node21" class="node">
<title>id_27707812_DOT_21</title>
<polygon fill="darkkhaki" stroke="darkkhaki" points="2770.66,-369.1 2776.9,-369.29 2783.07,-369.58 2789.15,-369.96 2795.12,-370.44 2800.95,-371.01 2806.62,-371.67 2812.1,-372.42 2817.38,-373.26 2822.44,-374.18 2827.26,-375.19 2831.81,-376.27 2836.09,-377.43 2840.09,-378.67 2843.78,-379.97 2847.17,-381.34 2850.24,-382.78 2852.98,-384.27 2855.4,-385.82 2857.48,-387.42 2859.23,-389.06 2860.64,-390.75 2861.73,-392.47 2862.48,-394.22 2862.91,-396.01 2863.03,-397.81 2862.84,-399.63 2862.35,-401.47 2861.56,-403.31 2860.5,-405.16 2859.17,-407 2857.59,-408.83 2855.76,-410.66 2853.7,-412.46 2851.43,-414.25 2848.96,-416 2846.29,-417.72 2843.46,-419.41 2840.46,-421.05 2837.32,-422.65 2834.04,-424.2 2830.64,-425.69 2827.13,-427.13 2823.52,-428.5 2819.83,-429.8 2816.05,-431.04 2812.21,-432.2 2808.31,-433.28 2804.36,-434.29 2800.37,-435.21 2796.34,-436.05 2792.27,-436.8 2788.18,-437.46 2784.07,-438.03 2779.94,-438.51 2775.8,-438.89 2771.65,-439.18 2767.49,-439.37 2763.33,-439.47 2759.16,-439.47 2755,-439.37 2750.84,-439.18 2746.69,-438.89 2742.55,-438.51 2738.42,-438.03 2734.31,-437.46 2730.22,-436.8 2726.15,-436.05 2722.12,-435.21 2718.13,-434.29 2714.18,-433.28 2710.28,-432.2 2706.44,-431.04 2702.66,-429.8 2698.97,-428.5 2695.36,-427.13 2691.85,-425.69 2688.45,-424.2 2685.17,-422.65 2682.03,-421.05 2679.03,-419.41 2676.19,-417.72 2673.53,-416 2671.06,-414.25 2668.79,-412.46 2666.73,-410.66 2664.9,-408.83 2663.32,-407 2661.99,-405.16 2660.93,-403.31 2660.14,-401.47 2659.65,-399.63 2659.46,-397.81 2659.58,-396.01 2660.01,-394.22 2660.76,-392.47 2661.85,-390.75 2663.26,-389.06 2665.01,-387.42 2667.09,-385.82 2669.51,-384.27 2672.25,-382.78 2675.32,-381.34 2678.71,-379.97 2682.4,-378.67 2686.4,-377.43 2690.68,-376.27 2695.23,-375.19 2700.05,-374.18 2705.11,-373.26 2710.39,-372.42 2715.87,-371.67 2721.54,-371.01 2727.37,-370.44 2733.34,-369.96 2739.42,-369.58 2745.59,-369.29 2751.83,-369.1 2758.1,-369 2764.39,-369 2770.66,-369.1"/>
<text text-anchor="start" x="2732.08" y="-414.03" font-family="Times,serif" font-size="14.00">C3161035</text>
<text text-anchor="start" x="2701.76" y="-400.03" font-family="Times,serif" font-size="14.00">white Gaussian noise</text>
<text text-anchor="start" x="2738.3" y="-386.03" font-family="Times,serif" font-size="14.00">204:206</text>
</g>
<!-- id_27707812_DOT_9&#45;&#45;id_27707812_DOT_21 -->
<g id="edge17" class="edge">
<title>id_27707812_DOT_9&#45;&#45;id_27707812_DOT_21</title>
<path fill="none" stroke="black" stroke-dasharray="1,5" d="M2872.34,-764.44C2849.21,-689.43 2795.15,-514.18 2772.04,-439.23"/>
<text text-anchor="middle" x="2795.94" y="-604.64" font-family="Times,serif" font-size="14.00">0.865676</text>
</g>
<!-- id_27707812_DOT_10 -->
<g id="node10" class="node">
<title>id_27707812_DOT_10</title>
<polygon fill="coral" stroke="coral" points="1187.76,-2214.07 1191.19,-2214.26 1194.58,-2214.55 1197.92,-2214.94 1201.21,-2215.41 1204.41,-2215.98 1207.53,-2216.64 1210.54,-2217.4 1213.44,-2218.23 1216.22,-2219.16 1218.87,-2220.16 1221.38,-2221.25 1223.73,-2222.41 1225.93,-2223.64 1227.96,-2224.95 1229.82,-2226.32 1231.51,-2227.75 1233.01,-2229.24 1234.34,-2230.79 1235.49,-2232.39 1236.45,-2234.03 1237.23,-2235.72 1237.82,-2237.44 1238.24,-2239.2 1238.47,-2240.98 1238.54,-2242.79 1238.43,-2244.61 1238.16,-2246.44 1237.73,-2248.29 1237.15,-2250.13 1236.42,-2251.97 1235.55,-2253.81 1234.54,-2255.63 1233.41,-2257.44 1232.16,-2259.22 1230.8,-2260.97 1229.34,-2262.7 1227.78,-2264.38 1226.13,-2266.03 1224.4,-2267.63 1222.6,-2269.17 1220.73,-2270.67 1218.8,-2272.1 1216.82,-2273.47 1214.79,-2274.78 1212.71,-2276.01 1210.6,-2277.17 1208.46,-2278.26 1206.29,-2279.26 1204.09,-2280.19 1201.87,-2281.02 1199.64,-2281.77 1197.39,-2282.43 1195.13,-2283 1192.86,-2283.48 1190.58,-2283.87 1188.3,-2284.15 1186.02,-2284.35 1183.73,-2284.44 1181.44,-2284.44 1179.15,-2284.35 1176.86,-2284.15 1174.58,-2283.87 1172.3,-2283.48 1170.03,-2283 1167.77,-2282.43 1165.53,-2281.77 1163.29,-2281.02 1161.07,-2280.19 1158.88,-2279.26 1156.71,-2278.26 1154.56,-2277.17 1152.45,-2276.01 1150.38,-2274.78 1148.35,-2273.47 1146.36,-2272.1 1144.43,-2270.67 1142.56,-2269.17 1140.76,-2267.63 1139.03,-2266.03 1137.39,-2264.38 1135.83,-2262.7 1134.36,-2260.97 1133,-2259.22 1131.75,-2257.44 1130.62,-2255.63 1129.62,-2253.81 1128.75,-2251.97 1128.02,-2250.13 1127.43,-2248.29 1127,-2246.44 1126.73,-2244.61 1126.63,-2242.79 1126.69,-2240.98 1126.93,-2239.2 1127.34,-2237.44 1127.94,-2235.72 1128.72,-2234.03 1129.68,-2232.39 1130.82,-2230.79 1132.15,-2229.24 1133.66,-2227.75 1135.35,-2226.32 1137.21,-2224.95 1139.24,-2223.64 1141.43,-2222.41 1143.79,-2221.25 1146.29,-2220.16 1148.94,-2219.16 1151.72,-2218.23 1154.62,-2217.4 1157.64,-2216.64 1160.75,-2215.98 1163.96,-2215.41 1167.24,-2214.94 1170.58,-2214.55 1173.98,-2214.26 1177.4,-2214.07 1180.85,-2213.97 1184.31,-2213.97 1187.76,-2214.07"/>
<text text-anchor="start" x="1153.41" y="-2259.01" font-family="Times,serif" font-size="14.00">C0040264</text>
<text text-anchor="start" x="1161.58" y="-2245.01" font-family="Times,serif" font-size="14.00">tinnitus</text>
<text text-anchor="start" x="1159.64" y="-2231.01" font-family="Times,serif" font-size="14.00">102:102</text>
</g>
<!-- id_27707812_DOT_24 -->
<g id="node24" class="node">
<title>id_27707812_DOT_24</title>
<polygon fill="coral" stroke="coral" points="1540.59,-2429.52 1544.02,-2429.71 1547.41,-2430 1550.75,-2430.39 1554.03,-2430.86 1557.24,-2431.43 1560.35,-2432.09 1563.37,-2432.84 1566.27,-2433.68 1569.05,-2434.61 1571.7,-2435.61 1574.2,-2436.69 1576.56,-2437.86 1578.75,-2439.09 1580.79,-2440.4 1582.65,-2441.77 1584.33,-2443.2 1585.84,-2444.69 1587.17,-2446.24 1588.31,-2447.84 1589.28,-2449.48 1590.05,-2451.17 1590.65,-2452.89 1591.07,-2454.65 1591.3,-2456.43 1591.37,-2458.24 1591.26,-2460.06 1590.99,-2461.89 1590.56,-2463.74 1589.98,-2465.58 1589.25,-2467.42 1588.37,-2469.26 1587.37,-2471.08 1586.24,-2472.89 1584.99,-2474.67 1583.63,-2476.42 1582.17,-2478.15 1580.61,-2479.83 1578.96,-2481.48 1577.23,-2483.08 1575.43,-2484.62 1573.56,-2486.12 1571.63,-2487.55 1569.65,-2488.92 1567.62,-2490.23 1565.54,-2491.46 1563.43,-2492.62 1561.29,-2493.71 1559.11,-2494.71 1556.92,-2495.63 1554.7,-2496.47 1552.47,-2497.22 1550.22,-2497.88 1547.96,-2498.45 1545.69,-2498.93 1543.41,-2499.32 1541.13,-2499.6 1538.84,-2499.8 1536.56,-2499.89 1534.27,-2499.89 1531.98,-2499.8 1529.69,-2499.6 1527.41,-2499.32 1525.13,-2498.93 1522.86,-2498.45 1520.6,-2497.88 1518.35,-2497.22 1516.12,-2496.47 1513.9,-2495.63 1511.71,-2494.71 1509.54,-2493.71 1507.39,-2492.62 1505.28,-2491.46 1503.21,-2490.23 1501.17,-2488.92 1499.19,-2487.55 1497.26,-2486.12 1495.39,-2484.62 1493.59,-2483.08 1491.86,-2481.48 1490.21,-2479.83 1488.65,-2478.15 1487.19,-2476.42 1485.83,-2474.67 1484.58,-2472.89 1483.45,-2471.08 1482.45,-2469.26 1481.58,-2467.42 1480.84,-2465.58 1480.26,-2463.74 1479.83,-2461.89 1479.56,-2460.06 1479.45,-2458.24 1479.52,-2456.43 1479.76,-2454.65 1480.17,-2452.89 1480.77,-2451.17 1481.55,-2449.48 1482.51,-2447.84 1483.65,-2446.24 1484.98,-2444.69 1486.49,-2443.2 1488.17,-2441.77 1490.04,-2440.4 1492.07,-2439.09 1494.26,-2437.86 1496.62,-2436.69 1499.12,-2435.61 1501.77,-2434.61 1504.55,-2433.68 1507.45,-2432.84 1510.47,-2432.09 1513.58,-2431.43 1516.79,-2430.86 1520.07,-2430.39 1523.41,-2430 1526.8,-2429.71 1530.23,-2429.52 1533.68,-2429.42 1537.14,-2429.42 1540.59,-2429.52"/>
<text text-anchor="start" x="1506.24" y="-2474.46" font-family="Times,serif" font-size="14.00">C0040264</text>
<text text-anchor="start" x="1514.41" y="-2460.46" font-family="Times,serif" font-size="14.00">tinnitus</text>
<text text-anchor="start" x="1512.47" y="-2446.46" font-family="Times,serif" font-size="14.00">253:253</text>
</g>
<!-- id_27707812_DOT_10&#45;&#45;id_27707812_DOT_24 -->
<g id="edge7" class="edge">
<title>id_27707812_DOT_10&#45;&#45;id_27707812_DOT_24</title>
<path fill="none" stroke="black" d="M1219.67,-2271.86C1285.67,-2312.16 1423.08,-2396.07 1492.83,-2438.65"/>
<text text-anchor="middle" x="1330" y="-2358.06" font-family="Times,serif" font-size="14.00">0.042465</text>
</g>
<!-- id_27707812_DOT_11&#45;&#45;id_27707812_DOT_13 -->
<g id="edge18" class="edge">
<title>id_27707812_DOT_11&#45;&#45;id_27707812_DOT_13</title>
<path fill="none" stroke="black" stroke-dasharray="1,5" d="M3075.18,-1229.53C3121.18,-1292.77 3222.92,-1432.64 3269.5,-1496.68"/>
<text text-anchor="middle" x="3146.09" y="-1365.91" font-family="Times,serif" font-size="14.00">0.950085</text>
</g>
<!-- id_27707812_DOT_12 -->
<g id="node12" class="node">
<title>id_27707812_DOT_12</title>
<polygon fill="crimson" stroke="crimson" points="1470.91,-2823.24 1474.34,-2823.43 1477.73,-2823.72 1481.07,-2824.11 1484.35,-2824.58 1487.56,-2825.15 1490.67,-2825.81 1493.69,-2826.56 1496.59,-2827.4 1499.37,-2828.33 1502.02,-2829.33 1504.52,-2830.42 1506.88,-2831.58 1509.07,-2832.81 1511.11,-2834.12 1512.97,-2835.49 1514.65,-2836.92 1516.16,-2838.41 1517.49,-2839.96 1518.63,-2841.56 1519.6,-2843.2 1520.37,-2844.89 1520.97,-2846.61 1521.38,-2848.37 1521.62,-2850.15 1521.69,-2851.96 1521.58,-2853.78 1521.31,-2855.61 1520.88,-2857.46 1520.3,-2859.3 1519.57,-2861.14 1518.69,-2862.98 1517.69,-2864.8 1516.56,-2866.61 1515.31,-2868.39 1513.95,-2870.14 1512.49,-2871.87 1510.93,-2873.55 1509.28,-2875.2 1507.55,-2876.8 1505.75,-2878.34 1503.88,-2879.84 1501.95,-2881.27 1499.97,-2882.64 1497.94,-2883.95 1495.86,-2885.18 1493.75,-2886.34 1491.61,-2887.43 1489.43,-2888.43 1487.24,-2889.35 1485.02,-2890.19 1482.79,-2890.94 1480.54,-2891.6 1478.28,-2892.17 1476.01,-2892.65 1473.73,-2893.04 1471.45,-2893.32 1469.16,-2893.52 1466.88,-2893.61 1464.59,-2893.61 1462.3,-2893.52 1460.01,-2893.32 1457.73,-2893.04 1455.45,-2892.65 1453.18,-2892.17 1450.92,-2891.6 1448.67,-2890.94 1446.44,-2890.19 1444.22,-2889.35 1442.03,-2888.43 1439.85,-2887.43 1437.71,-2886.34 1435.6,-2885.18 1433.53,-2883.95 1431.49,-2882.64 1429.51,-2881.27 1427.58,-2879.84 1425.71,-2878.34 1423.91,-2876.8 1422.18,-2875.2 1420.53,-2873.55 1418.97,-2871.87 1417.51,-2870.14 1416.15,-2868.39 1414.9,-2866.61 1413.77,-2864.8 1412.77,-2862.98 1411.9,-2861.14 1411.16,-2859.3 1410.58,-2857.46 1410.15,-2855.61 1409.88,-2853.78 1409.77,-2851.96 1409.84,-2850.15 1410.08,-2848.37 1410.49,-2846.61 1411.09,-2844.89 1411.87,-2843.2 1412.83,-2841.56 1413.97,-2839.96 1415.3,-2838.41 1416.81,-2836.92 1418.49,-2835.49 1420.35,-2834.12 1422.39,-2832.81 1424.58,-2831.58 1426.94,-2830.42 1429.44,-2829.33 1432.09,-2828.33 1434.87,-2827.4 1437.77,-2826.56 1440.79,-2825.81 1443.9,-2825.15 1447.11,-2824.58 1450.39,-2824.11 1453.73,-2823.72 1457.12,-2823.43 1460.55,-2823.24 1464,-2823.14 1467.46,-2823.14 1470.91,-2823.24"/>
<text text-anchor="start" x="1436.56" y="-2868.18" font-family="Times,serif" font-size="14.00">C3714660</text>
<text text-anchor="start" x="1446.3" y="-2854.18" font-family="Times,serif" font-size="14.00">trauma</text>
<text text-anchor="start" x="1443.3" y="-2840.18" font-family="Times,serif" font-size="14.00">116:116</text>
</g>
<!-- id_27707812_DOT_18 -->
<g id="node18" class="node">
<title>id_27707812_DOT_18</title>
<polygon fill="darkmagenta" stroke="darkmagenta" points="1334.49,-3175.57 1338.31,-3175.76 1342.1,-3176.05 1345.82,-3176.43 1349.48,-3176.91 1353.06,-3177.48 1356.53,-3178.14 1359.9,-3178.89 1363.14,-3179.73 1366.24,-3180.65 1369.19,-3181.66 1371.98,-3182.74 1374.61,-3183.9 1377.06,-3185.14 1379.32,-3186.44 1381.4,-3187.81 1383.28,-3189.25 1384.96,-3190.74 1386.44,-3192.29 1387.72,-3193.89 1388.79,-3195.53 1389.66,-3197.22 1390.33,-3198.94 1390.79,-3200.69 1391.05,-3202.48 1391.13,-3204.28 1391.01,-3206.1 1390.71,-3207.94 1390.23,-3209.78 1389.57,-3211.63 1388.76,-3213.47 1387.79,-3215.3 1386.67,-3217.13 1385.41,-3218.93 1384.01,-3220.71 1382.5,-3222.47 1380.86,-3224.19 1379.12,-3225.88 1377.29,-3227.52 1375.36,-3229.12 1373.35,-3230.67 1371.26,-3232.16 1369.11,-3233.6 1366.9,-3234.97 1364.63,-3236.27 1362.32,-3237.51 1359.97,-3238.67 1357.57,-3239.75 1355.15,-3240.76 1352.7,-3241.68 1350.23,-3242.52 1347.74,-3243.27 1345.23,-3243.93 1342.71,-3244.5 1340.18,-3244.98 1337.64,-3245.36 1335.09,-3245.65 1332.54,-3245.84 1329.99,-3245.94 1327.43,-3245.94 1324.88,-3245.84 1322.33,-3245.65 1319.79,-3245.36 1317.25,-3244.98 1314.71,-3244.5 1312.19,-3243.93 1309.69,-3243.27 1307.19,-3242.52 1304.72,-3241.68 1302.27,-3240.76 1299.85,-3239.75 1297.46,-3238.67 1295.1,-3237.51 1292.79,-3236.27 1290.52,-3234.97 1288.31,-3233.6 1286.16,-3232.16 1284.07,-3230.67 1282.06,-3229.12 1280.14,-3227.52 1278.3,-3225.88 1276.56,-3224.19 1274.93,-3222.47 1273.41,-3220.71 1272.02,-3218.93 1270.76,-3217.13 1269.64,-3215.3 1268.66,-3213.47 1267.85,-3211.63 1267.2,-3209.78 1266.72,-3207.94 1266.42,-3206.1 1266.3,-3204.28 1266.37,-3202.48 1266.63,-3200.69 1267.1,-3198.94 1267.76,-3197.22 1268.63,-3195.53 1269.7,-3193.89 1270.98,-3192.29 1272.46,-3190.74 1274.14,-3189.25 1276.02,-3187.81 1278.1,-3186.44 1280.37,-3185.14 1282.81,-3183.9 1285.44,-3182.74 1288.23,-3181.66 1291.19,-3180.65 1294.29,-3179.73 1297.53,-3178.89 1300.89,-3178.14 1304.36,-3177.48 1307.94,-3176.91 1311.6,-3176.43 1315.33,-3176.05 1319.11,-3175.76 1322.94,-3175.57 1326.78,-3175.47 1330.64,-3175.47 1334.49,-3175.57"/>
<text text-anchor="start" x="1299.54" y="-3220.5" font-family="Times,serif" font-size="14.00">C0443204</text>
<text text-anchor="start" x="1295.41" y="-3206.5" font-family="Times,serif" font-size="14.00">divergences</text>
<text text-anchor="start" x="1305.77" y="-3192.5" font-family="Times,serif" font-size="14.00">152:152</text>
</g>
<!-- id_27707812_DOT_12&#45;&#45;id_27707812_DOT_18 -->
<g id="edge19" class="edge">
<title>id_27707812_DOT_12&#45;&#45;id_27707812_DOT_18</title>
<path fill="none" stroke="black" stroke-dasharray="1,5" d="M1452.59,-2892.16C1426.54,-2959.16 1368.56,-3108.23 1342.21,-3175.99"/>
<text text-anchor="middle" x="1371.15" y="-3036.87" font-family="Times,serif" font-size="14.00">0.822286</text>
</g>
<!-- id_27707812_DOT_12&#45;&#45;id_27707812_DOT_24 -->
<g id="edge20" class="edge">
<title>id_27707812_DOT_12&#45;&#45;id_27707812_DOT_24</title>
<path fill="none" stroke="black" stroke-dasharray="1,5" d="M1471.98,-2823.09C1485.22,-2748.25 1515.99,-2574.37 1529.2,-2499.72"/>
<text text-anchor="middle" x="1474.34" y="-2664.21" font-family="Times,serif" font-size="14.00">0.824267</text>
</g>
<!-- id_27707812_DOT_23 -->
<g id="node23" class="node">
<title>id_27707812_DOT_23</title>
<polygon fill="bisque" stroke="bisque" points="2181.14,-1980.39 2188.02,-1980.58 2194.84,-1980.87 2201.55,-1981.25 2208.13,-1981.73 2214.57,-1982.3 2220.82,-1982.96 2226.87,-1983.71 2232.7,-1984.55 2238.28,-1985.47 2243.6,-1986.48 2248.62,-1987.56 2253.35,-1988.72 2257.76,-1989.96 2261.84,-1991.26 2265.57,-1992.64 2268.96,-1994.07 2271.99,-1995.56 2274.65,-1997.11 2276.95,-1998.71 2278.88,-2000.35 2280.44,-2002.04 2281.64,-2003.76 2282.47,-2005.52 2282.95,-2007.3 2283.08,-2009.1 2282.87,-2010.93 2282.32,-2012.76 2281.46,-2014.6 2280.29,-2016.45 2278.82,-2018.29 2277.07,-2020.13 2275.05,-2021.95 2272.78,-2023.76 2270.28,-2025.54 2267.55,-2027.29 2264.61,-2029.02 2261.48,-2030.7 2258.17,-2032.35 2254.7,-2033.94 2251.08,-2035.49 2247.33,-2036.98 2243.46,-2038.42 2239.48,-2039.79 2235.4,-2041.09 2231.24,-2042.33 2227,-2043.49 2222.69,-2044.58 2218.33,-2045.58 2213.92,-2046.5 2209.47,-2047.34 2204.99,-2048.09 2200.48,-2048.75 2195.94,-2049.32 2191.38,-2049.8 2186.81,-2050.18 2182.23,-2050.47 2177.64,-2050.67 2173.05,-2050.76 2168.45,-2050.76 2163.86,-2050.67 2159.27,-2050.47 2154.69,-2050.18 2150.11,-2049.8 2145.56,-2049.32 2141.02,-2048.75 2136.51,-2048.09 2132.02,-2047.34 2127.57,-2046.5 2123.16,-2045.58 2118.8,-2044.58 2114.5,-2043.49 2110.26,-2042.33 2106.1,-2041.09 2102.02,-2039.79 2098.04,-2038.42 2094.17,-2036.98 2090.41,-2035.49 2086.8,-2033.94 2083.33,-2032.35 2080.02,-2030.7 2076.89,-2029.02 2073.95,-2027.29 2071.22,-2025.54 2068.71,-2023.76 2066.44,-2021.95 2064.43,-2020.13 2062.68,-2018.29 2061.21,-2016.45 2060.04,-2014.6 2059.17,-2012.76 2058.63,-2010.93 2058.42,-2009.1 2058.55,-2007.3 2059.03,-2005.52 2059.86,-2003.76 2061.06,-2002.04 2062.62,-2000.35 2064.55,-1998.71 2066.84,-1997.11 2069.51,-1995.56 2072.54,-1994.07 2075.92,-1992.64 2079.66,-1991.26 2083.74,-1989.96 2088.15,-1988.72 2092.87,-1987.56 2097.9,-1986.48 2103.21,-1985.47 2108.79,-1984.55 2114.62,-1983.71 2120.67,-1982.96 2126.93,-1982.3 2133.36,-1981.73 2139.95,-1981.25 2146.66,-1980.87 2153.47,-1980.58 2160.35,-1980.39 2167.28,-1980.29 2174.22,-1980.29 2181.14,-1980.39"/>
<text text-anchor="start" x="2141.58" y="-2025.33" font-family="Times,serif" font-size="14.00">C2954070</text>
<text text-anchor="start" x="2104.27" y="-2011.33" font-family="Times,serif" font-size="14.00">primary auditory cortex</text>
<text text-anchor="start" x="2147.8" y="-1997.33" font-family="Times,serif" font-size="14.00">242:244</text>
</g>
<!-- id_27707812_DOT_14&#45;&#45;id_27707812_DOT_23 -->
<g id="edge8" class="edge">
<title>id_27707812_DOT_14&#45;&#45;id_27707812_DOT_23</title>
<path fill="none" stroke="black" d="M2404.9,-1771.63C2354.16,-1824.48 2255.4,-1927.36 2203.85,-1981.04"/>
<text text-anchor="middle" x="2278.13" y="-1879.14" font-family="Times,serif" font-size="14.00">0.047308</text>
</g>
<!-- id_27707812_DOT_15 -->
<g id="node15" class="node">
<title>id_27707812_DOT_15</title>
<polygon fill="darkgoldenrod" stroke="darkgoldenrod" points="1885.72,-2229.55 1889.15,-2229.75 1892.54,-2230.04 1895.89,-2230.42 1899.17,-2230.9 1902.37,-2231.47 1905.49,-2232.13 1908.5,-2232.88 1911.41,-2233.72 1914.19,-2234.64 1916.83,-2235.64 1919.34,-2236.73 1921.69,-2237.89 1923.89,-2239.12 1925.92,-2240.43 1927.78,-2241.8 1929.47,-2243.24 1930.98,-2244.73 1932.3,-2246.28 1933.45,-2247.87 1934.41,-2249.52 1935.19,-2251.2 1935.78,-2252.93 1936.2,-2254.68 1936.44,-2256.46 1936.5,-2258.27 1936.4,-2260.09 1936.13,-2261.93 1935.69,-2263.77 1935.11,-2265.62 1934.38,-2267.46 1933.51,-2269.29 1932.5,-2271.12 1931.37,-2272.92 1930.12,-2274.7 1928.76,-2276.46 1927.3,-2278.18 1925.74,-2279.87 1924.09,-2281.51 1922.37,-2283.11 1920.56,-2284.66 1918.69,-2286.15 1916.77,-2287.58 1914.78,-2288.96 1912.75,-2290.26 1910.68,-2291.49 1908.57,-2292.66 1906.42,-2293.74 1904.25,-2294.75 1902.05,-2295.67 1899.84,-2296.51 1897.6,-2297.26 1895.35,-2297.92 1893.09,-2298.49 1890.82,-2298.97 1888.55,-2299.35 1886.26,-2299.64 1883.98,-2299.83 1881.69,-2299.93 1879.4,-2299.93 1877.11,-2299.83 1874.83,-2299.64 1872.54,-2299.35 1870.27,-2298.97 1868,-2298.49 1865.74,-2297.92 1863.49,-2297.26 1861.25,-2296.51 1859.04,-2295.67 1856.84,-2294.75 1854.67,-2293.74 1852.53,-2292.66 1850.41,-2291.49 1848.34,-2290.26 1846.31,-2288.96 1844.32,-2287.58 1842.4,-2286.15 1840.53,-2284.66 1838.72,-2283.11 1837,-2281.51 1835.35,-2279.87 1833.79,-2278.18 1832.33,-2276.46 1830.97,-2274.7 1829.72,-2272.92 1828.59,-2271.12 1827.58,-2269.29 1826.71,-2267.46 1825.98,-2265.62 1825.4,-2263.77 1824.97,-2261.93 1824.69,-2260.09 1824.59,-2258.27 1824.65,-2256.46 1824.89,-2254.68 1825.31,-2252.93 1825.9,-2251.2 1826.68,-2249.52 1827.64,-2247.87 1828.79,-2246.28 1830.11,-2244.73 1831.62,-2243.24 1833.31,-2241.8 1835.17,-2240.43 1837.2,-2239.12 1839.4,-2237.89 1841.75,-2236.73 1844.26,-2235.64 1846.9,-2234.64 1849.68,-2233.72 1852.59,-2232.88 1855.6,-2232.13 1858.72,-2231.47 1861.92,-2230.9 1865.2,-2230.42 1868.55,-2230.04 1871.94,-2229.75 1875.37,-2229.55 1878.82,-2229.46 1882.27,-2229.46 1885.72,-2229.55"/>
<text text-anchor="start" x="1851.38" y="-2274.49" font-family="Times,serif" font-size="14.00">C0006764</text>
<text text-anchor="start" x="1852.94" y="-2260.49" font-family="Times,serif" font-size="14.00">marmoset</text>
<text text-anchor="start" x="1857.6" y="-2246.49" font-family="Times,serif" font-size="14.00">134:134</text>
</g>
<!-- id_27707812_DOT_15&#45;&#45;id_27707812_DOT_23 -->
<g id="edge21" class="edge">
<title>id_27707812_DOT_15&#45;&#45;id_27707812_DOT_23</title>
<path fill="none" stroke="black" stroke-dasharray="1,5" d="M1915.26,-2234.88C1970.18,-2187.74 2076.64,-2096.33 2133.24,-2047.73"/>
<text text-anchor="middle" x="1998" y="-2144.11" font-family="Times,serif" font-size="14.00">0.730829</text>
</g>
<!-- id_27707812_DOT_15&#45;&#45;id_27707812_DOT_24 -->
<g id="edge22" class="edge">
<title>id_27707812_DOT_15&#45;&#45;id_27707812_DOT_24</title>
<path fill="none" stroke="black" stroke-dasharray="1,5" d="M1842.62,-2286.66C1778.18,-2324 1647.67,-2399.62 1579.35,-2439.2"/>
<text text-anchor="middle" x="1684.74" y="-2365.73" font-family="Times,serif" font-size="14.00">0.771510</text>
</g>
<!-- id_27707812_DOT_17 -->
<g id="node17" class="node">
<title>id_27707812_DOT_17</title>
<polygon fill="darkkhaki" stroke="darkkhaki" points="2930.28,-0.23 2936.51,-0.42 2942.69,-0.71 2948.77,-1.09 2954.74,-1.57 2960.56,-2.14 2966.23,-2.8 2971.72,-3.55 2977,-4.39 2982.06,-5.31 2986.87,-6.32 2991.43,-7.4 2995.71,-8.57 2999.7,-9.8 3003.4,-11.1 3006.78,-12.48 3009.85,-13.91 3012.6,-15.4 3015.01,-16.95 3017.09,-18.55 3018.84,-20.19 3020.26,-21.88 3021.34,-23.6 3022.1,-25.36 3022.53,-27.14 3022.65,-28.94 3022.45,-30.77 3021.96,-32.6 3021.18,-34.44 3020.12,-36.29 3018.79,-38.13 3017.2,-39.97 3015.37,-41.79 3013.32,-43.6 3011.05,-45.38 3008.57,-47.13 3005.91,-48.86 3003.07,-50.54 3000.08,-52.19 2996.93,-53.78 2993.65,-55.33 2990.25,-56.82 2986.74,-58.26 2983.14,-59.63 2979.44,-60.94 2975.67,-62.17 2971.83,-63.33 2967.93,-64.42 2963.98,-65.42 2959.98,-66.34 2955.95,-67.18 2951.89,-67.93 2947.8,-68.59 2943.69,-69.16 2939.56,-69.64 2935.41,-70.02 2931.26,-70.31 2927.1,-70.51 2922.94,-70.6 2918.78,-70.6 2914.61,-70.51 2910.46,-70.31 2906.3,-70.02 2902.16,-69.64 2898.03,-69.16 2893.92,-68.59 2889.83,-67.93 2885.77,-67.18 2881.74,-66.34 2877.74,-65.42 2873.79,-64.42 2869.89,-63.33 2866.05,-62.17 2862.28,-60.94 2858.58,-59.63 2854.97,-58.26 2851.46,-56.82 2848.06,-55.33 2844.79,-53.78 2841.64,-52.19 2838.65,-50.54 2835.81,-48.86 2833.15,-47.13 2830.67,-45.38 2828.4,-43.6 2826.34,-41.79 2824.52,-39.97 2822.93,-38.13 2821.6,-36.29 2820.54,-34.44 2819.76,-32.6 2819.27,-30.77 2819.07,-28.94 2819.19,-27.14 2819.62,-25.36 2820.38,-23.6 2821.46,-21.88 2822.88,-20.19 2824.63,-18.55 2826.71,-16.95 2829.12,-15.4 2831.87,-13.91 2834.93,-12.48 2838.32,-11.1 2842.02,-9.8 2846.01,-8.57 2850.29,-7.4 2854.85,-6.32 2859.66,-5.31 2864.72,-4.39 2870,-3.55 2875.49,-2.8 2881.15,-2.14 2886.98,-1.57 2892.95,-1.09 2899.03,-0.71 2905.2,-0.42 2911.44,-0.23 2917.72,-0.13 2924,-0.13 2930.28,-0.23"/>
<text text-anchor="start" x="2891.69" y="-45.17" font-family="Times,serif" font-size="14.00">C3161035</text>
<text text-anchor="start" x="2861.37" y="-31.17" font-family="Times,serif" font-size="14.00">white Gaussian noise</text>
<text text-anchor="start" x="2897.91" y="-17.17" font-family="Times,serif" font-size="14.00">146:148</text>
</g>
<!-- id_27707812_DOT_17&#45;&#45;id_27707812_DOT_21 -->
<g id="edge9" class="edge">
<title>id_27707812_DOT_17&#45;&#45;id_27707812_DOT_21</title>
<path fill="none" stroke="black" d="M2905.84,-70.07C2875.46,-140.28 2807,-298.5 2776.45,-369.09"/>
<text text-anchor="middle" x="2814.9" y="-222.38" font-family="Times,serif" font-size="14.00">0.007650</text>
</g>
<!-- id_27707812_DOT_22 -->
<g id="node22" class="node">
<title>id_27707812_DOT_22</title>
<polygon fill="aquamarine" stroke="aquamarine" points="1154.76,-3498.47 1160.75,-3498.66 1166.67,-3498.95 1172.51,-3499.33 1178.24,-3499.81 1183.83,-3500.38 1189.27,-3501.04 1194.54,-3501.79 1199.61,-3502.63 1204.46,-3503.55 1209.08,-3504.56 1213.45,-3505.64 1217.56,-3506.8 1221.4,-3508.04 1224.95,-3509.34 1228.2,-3510.71 1231.14,-3512.15 1233.77,-3513.64 1236.09,-3515.19 1238.09,-3516.79 1239.77,-3518.43 1241.13,-3520.12 1242.17,-3521.84 1242.89,-3523.59 1243.31,-3525.38 1243.42,-3527.18 1243.24,-3529 1242.76,-3530.84 1242.01,-3532.68 1240.99,-3534.53 1239.72,-3536.37 1238.2,-3538.21 1236.44,-3540.03 1234.47,-3541.83 1232.29,-3543.62 1229.91,-3545.37 1227.36,-3547.09 1224.63,-3548.78 1221.76,-3550.42 1218.74,-3552.02 1215.59,-3553.57 1212.33,-3555.06 1208.96,-3556.5 1205.5,-3557.87 1201.95,-3559.17 1198.33,-3560.41 1194.64,-3561.57 1190.9,-3562.65 1187.11,-3563.66 1183.27,-3564.58 1179.4,-3565.42 1175.5,-3566.17 1171.58,-3566.83 1167.63,-3567.4 1163.67,-3567.88 1159.69,-3568.26 1155.71,-3568.55 1151.72,-3568.74 1147.72,-3568.84 1143.72,-3568.84 1139.73,-3568.74 1135.74,-3568.55 1131.75,-3568.26 1127.78,-3567.88 1123.81,-3567.4 1119.87,-3566.83 1115.94,-3566.17 1112.04,-3565.42 1108.17,-3564.58 1104.34,-3563.66 1100.54,-3562.65 1096.8,-3561.57 1093.11,-3560.41 1089.49,-3559.17 1085.95,-3557.87 1082.48,-3556.5 1079.11,-3555.06 1075.85,-3553.57 1072.7,-3552.02 1069.69,-3550.42 1066.81,-3548.78 1064.09,-3547.09 1061.53,-3545.37 1059.16,-3543.62 1056.98,-3541.83 1055,-3540.03 1053.25,-3538.21 1051.73,-3536.37 1050.45,-3534.53 1049.43,-3532.68 1048.68,-3530.84 1048.21,-3529 1048.02,-3527.18 1048.14,-3525.38 1048.55,-3523.59 1049.28,-3521.84 1050.32,-3520.12 1051.67,-3518.43 1053.35,-3516.79 1055.35,-3515.19 1057.67,-3513.64 1060.3,-3512.15 1063.25,-3510.71 1066.5,-3509.34 1070.04,-3508.04 1073.88,-3506.8 1077.99,-3505.64 1082.36,-3504.56 1086.98,-3503.55 1091.84,-3502.63 1096.91,-3501.79 1102.17,-3501.04 1107.61,-3500.38 1113.21,-3499.81 1118.93,-3499.33 1124.77,-3498.95 1130.7,-3498.66 1136.68,-3498.47 1142.7,-3498.37 1148.74,-3498.37 1154.76,-3498.47"/>
<text text-anchor="start" x="1116.55" y="-3543.4" font-family="Times,serif" font-size="14.00">C0443158</text>
<text text-anchor="start" x="1088.75" y="-3529.4" font-family="Times,serif" font-size="14.00">spontaneous spiking</text>
<text text-anchor="start" x="1122.78" y="-3515.4" font-family="Times,serif" font-size="14.00">233:234</text>
</g>
<!-- id_27707812_DOT_18&#45;&#45;id_27707812_DOT_22 -->
<g id="edge23" class="edge">
<title>id_27707812_DOT_18&#45;&#45;id_27707812_DOT_22</title>
<path fill="none" stroke="black" stroke-dasharray="1,5" d="M1310.16,-3243.44C1275.45,-3304.69 1201,-3436.07 1165.43,-3498.83"/>
<text text-anchor="middle" x="1211.8" y="-3373.94" font-family="Times,serif" font-size="14.00">0.860114</text>
</g>
<!-- id_27707812_DOT_19&#45;&#45;id_27707812_DOT_22 -->
<g id="edge10" class="edge">
<title>id_27707812_DOT_19&#45;&#45;id_27707812_DOT_22</title>
<path fill="none" stroke="black" d="M950.73,-3793.9C993.38,-3736.96 1078.15,-3623.8 1120.47,-3567.31"/>
<text text-anchor="middle" x="1009.35" y="-3683.4" font-family="Times,serif" font-size="14.00">0.084475</text>
</g>
<!-- id_27707812_DOT_20 -->
<g id="node20" class="node">
<title>id_27707812_DOT_20</title>
<polygon fill="darkkhaki" stroke="darkkhaki" points="2447.19,-134.44 2453.42,-134.63 2459.59,-134.92 2465.68,-135.31 2471.64,-135.78 2477.47,-136.35 2483.14,-137.02 2488.62,-137.77 2493.91,-138.6 2498.96,-139.53 2503.78,-140.53 2508.33,-141.62 2512.62,-142.78 2516.61,-144.01 2520.31,-145.32 2523.69,-146.69 2526.76,-148.12 2529.5,-149.62 2531.92,-151.16 2534,-152.76 2535.75,-154.41 2537.16,-156.09 2538.25,-157.81 2539,-159.57 2539.44,-161.35 2539.55,-163.16 2539.36,-164.98 2538.87,-166.81 2538.09,-168.66 2537.02,-170.5 2535.69,-172.34 2534.11,-174.18 2532.28,-176 2530.22,-177.81 2527.95,-179.59 2525.48,-181.35 2522.82,-183.07 2519.98,-184.75 2516.98,-186.4 2513.84,-188 2510.56,-189.54 2507.16,-191.04 2503.65,-192.47 2500.04,-193.84 2496.35,-195.15 2492.58,-196.38 2488.74,-197.54 2484.84,-198.63 2480.88,-199.63 2476.89,-200.56 2472.86,-201.39 2468.79,-202.14 2464.7,-202.81 2460.59,-203.38 2456.46,-203.85 2452.32,-204.24 2448.17,-204.53 2444.01,-204.72 2439.85,-204.81 2435.68,-204.81 2431.52,-204.72 2427.36,-204.53 2423.21,-204.24 2419.07,-203.85 2414.94,-203.38 2410.83,-202.81 2406.74,-202.14 2402.68,-201.39 2398.64,-200.56 2394.65,-199.63 2390.7,-198.63 2386.8,-197.54 2382.96,-196.38 2379.18,-195.15 2375.49,-193.84 2371.88,-192.47 2368.37,-191.04 2364.97,-189.54 2361.69,-188 2358.55,-186.4 2355.55,-184.75 2352.72,-183.07 2350.05,-181.35 2347.58,-179.59 2345.31,-177.81 2343.25,-176 2341.42,-174.18 2339.84,-172.34 2338.51,-170.5 2337.45,-168.66 2336.67,-166.81 2336.17,-164.98 2335.98,-163.16 2336.1,-161.35 2336.53,-159.57 2337.29,-157.81 2338.37,-156.09 2339.79,-154.41 2341.53,-152.76 2343.62,-151.16 2346.03,-149.62 2348.77,-148.12 2351.84,-146.69 2355.23,-145.32 2358.92,-144.01 2362.92,-142.78 2367.2,-141.62 2371.76,-140.53 2376.57,-139.53 2381.63,-138.6 2386.91,-137.77 2392.39,-137.02 2398.06,-136.35 2403.89,-135.78 2409.86,-135.31 2415.94,-134.92 2422.11,-134.63 2428.35,-134.44 2434.62,-134.34 2440.91,-134.34 2447.19,-134.44"/>
<text text-anchor="start" x="2408.6" y="-179.38" font-family="Times,serif" font-size="14.00">C3161035</text>
<text text-anchor="start" x="2378.28" y="-165.38" font-family="Times,serif" font-size="14.00">white Gaussian noise</text>
<text text-anchor="start" x="2414.82" y="-151.38" font-family="Times,serif" font-size="14.00">195:197</text>
</g>
<!-- id_27707812_DOT_20&#45;&#45;id_27707812_DOT_21 -->
<g id="edge11" class="edge">
<title>id_27707812_DOT_20&#45;&#45;id_27707812_DOT_21</title>
<path fill="none" stroke="black" d="M2479.72,-200.02C2540.75,-244.29 2653.54,-326.11 2716.24,-371.59"/>
<text text-anchor="middle" x="2571.73" y="-288.6" font-family="Times,serif" font-size="14.00">0.008316</text>
</g>
</g>
</svg>
