<?xml version="1.0" encoding="UTF-8" standalone="no"?>
<!DOCTYPE svg PUBLIC "-//W3C//DTD SVG 1.1//EN"
 "http://www.w3.org/Graphics/SVG/1.1/DTD/svg11.dtd">
<!-- Generated by graphviz version 2.42.3 (20191010.1750)
 -->
<!-- Title: MST Pages: 1 -->
<svg width="1935pt" height="4187pt"
 viewBox="0.00 0.00 1935.22 4187.04" xmlns="http://www.w3.org/2000/svg" xmlns:xlink="http://www.w3.org/1999/xlink">
<g id="graph0" class="graph" transform="scale(1 1) rotate(0) translate(4 4183.04)">
<title>MST</title>
<polygon fill="white" stroke="transparent" points="-4,4 -4,-4183.04 1931.22,-4183.04 1931.22,4 -4,4"/>
<!-- id_27706588_DOT_1 -->
<g id="node1" class="node">
<title>id_27706588_DOT_1</title>
<polygon fill="aquamarine" stroke="aquamarine" points="1160.47,-957.64 1165.06,-957.83 1169.61,-958.12 1174.08,-958.51 1178.48,-958.98 1182.77,-959.55 1186.94,-960.22 1190.98,-960.97 1194.86,-961.8 1198.59,-962.73 1202.13,-963.73 1205.48,-964.82 1208.64,-965.98 1211.58,-967.21 1214.3,-968.52 1216.79,-969.89 1219.05,-971.32 1221.07,-972.82 1222.84,-974.36 1224.38,-975.96 1225.66,-977.61 1226.7,-979.29 1227.5,-981.01 1228.06,-982.77 1228.38,-984.55 1228.46,-986.36 1228.32,-988.18 1227.96,-990.02 1227.38,-991.86 1226.6,-993.7 1225.62,-995.55 1224.46,-997.38 1223.11,-999.2 1221.6,-1001.01 1219.92,-1002.79 1218.1,-1004.55 1216.14,-1006.27 1214.06,-1007.96 1211.85,-1009.6 1209.54,-1011.2 1207.12,-1012.74 1204.62,-1014.24 1202.04,-1015.67 1199.38,-1017.04 1196.66,-1018.35 1193.89,-1019.58 1191.06,-1020.74 1188.19,-1021.83 1185.28,-1022.83 1182.34,-1023.76 1179.37,-1024.59 1176.38,-1025.35 1173.37,-1026.01 1170.34,-1026.58 1167.3,-1027.05 1164.26,-1027.44 1161.2,-1027.73 1158.14,-1027.92 1155.07,-1028.02 1152.01,-1028.02 1148.94,-1027.92 1145.88,-1027.73 1142.83,-1027.44 1139.78,-1027.05 1136.74,-1026.58 1133.71,-1026.01 1130.7,-1025.35 1127.71,-1024.59 1124.74,-1023.76 1121.8,-1022.83 1118.9,-1021.83 1116.03,-1020.74 1113.2,-1019.58 1110.42,-1018.35 1107.7,-1017.04 1105.05,-1015.67 1102.46,-1014.24 1099.96,-1012.74 1097.55,-1011.2 1095.23,-1009.6 1093.03,-1007.96 1090.94,-1006.27 1088.98,-1004.55 1087.16,-1002.79 1085.49,-1001.01 1083.97,-999.2 1082.63,-997.38 1081.46,-995.55 1080.48,-993.7 1079.7,-991.86 1079.12,-990.02 1078.76,-988.18 1078.62,-986.36 1078.71,-984.55 1079.02,-982.77 1079.58,-981.01 1080.38,-979.29 1081.42,-977.61 1082.71,-975.96 1084.24,-974.36 1086.02,-972.82 1088.04,-971.32 1090.29,-969.89 1092.79,-968.52 1095.51,-967.21 1098.45,-965.98 1101.6,-964.82 1104.95,-963.73 1108.5,-962.73 1112.22,-961.8 1116.11,-960.97 1120.14,-960.22 1124.32,-959.55 1128.61,-958.98 1133,-958.51 1137.48,-958.12 1142.02,-957.83 1146.61,-957.64 1151.23,-957.55 1155.86,-957.55 1160.47,-957.64"/>
<text text-anchor="start" x="1124.37" y="-1002.58" font-family="Times,serif" font-size="14.00">C0330429</text>
<text text-anchor="start" x="1111.93" y="-988.58" font-family="Times,serif" font-size="14.00">Rhododendron</text>
<text text-anchor="start" x="1144.6" y="-974.58" font-family="Times,serif" font-size="14.00">5:5</text>
</g>
<!-- id_27706588_DOT_4 -->
<g id="node4" class="node">
<title>id_27706588_DOT_4</title>
<polygon fill="aquamarine" stroke="aquamarine" points="1522.58,-802.63 1527.17,-802.83 1531.71,-803.12 1536.19,-803.5 1540.58,-803.98 1544.87,-804.55 1549.04,-805.21 1553.08,-805.96 1556.97,-806.8 1560.69,-807.72 1564.23,-808.72 1567.59,-809.81 1570.74,-810.97 1573.68,-812.21 1576.4,-813.51 1578.89,-814.88 1581.15,-816.32 1583.17,-817.81 1584.95,-819.36 1586.48,-820.95 1587.77,-822.6 1588.81,-824.28 1589.61,-826.01 1590.16,-827.76 1590.48,-829.54 1590.57,-831.35 1590.43,-833.17 1590.06,-835.01 1589.49,-836.85 1588.71,-838.7 1587.73,-840.54 1586.56,-842.37 1585.22,-844.2 1583.7,-846 1582.03,-847.78 1580.21,-849.54 1578.25,-851.26 1576.16,-852.95 1573.96,-854.59 1571.64,-856.19 1569.23,-857.74 1566.73,-859.23 1564.14,-860.66 1561.49,-862.04 1558.77,-863.34 1555.99,-864.58 1553.16,-865.74 1550.29,-866.82 1547.38,-867.83 1544.44,-868.75 1541.48,-869.59 1538.48,-870.34 1535.47,-871 1532.45,-871.57 1529.41,-872.05 1526.36,-872.43 1523.3,-872.72 1520.24,-872.91 1517.18,-873.01 1514.11,-873.01 1511.05,-872.91 1507.99,-872.72 1504.93,-872.43 1501.88,-872.05 1498.84,-871.57 1495.82,-871 1492.81,-870.34 1489.82,-869.59 1486.85,-868.75 1483.91,-867.83 1481,-866.82 1478.13,-865.74 1475.3,-864.58 1472.53,-863.34 1469.81,-862.04 1467.15,-860.66 1464.57,-859.23 1462.06,-857.74 1459.65,-856.19 1457.34,-854.59 1455.13,-852.95 1453.04,-851.26 1451.08,-849.54 1449.26,-847.78 1447.59,-846 1446.08,-844.2 1444.73,-842.37 1443.56,-840.54 1442.59,-838.7 1441.8,-836.85 1441.23,-835.01 1440.87,-833.17 1440.72,-831.35 1440.81,-829.54 1441.13,-827.76 1441.69,-826.01 1442.48,-824.28 1443.52,-822.6 1444.81,-820.95 1446.34,-819.36 1448.12,-817.81 1450.14,-816.32 1452.4,-814.88 1454.89,-813.51 1457.61,-812.21 1460.55,-810.97 1463.7,-809.81 1467.06,-808.72 1470.6,-807.72 1474.32,-806.8 1478.21,-805.96 1482.25,-805.21 1486.42,-804.55 1490.71,-803.98 1495.1,-803.5 1499.58,-803.12 1504.12,-802.83 1508.71,-802.63 1513.33,-802.54 1517.96,-802.54 1522.58,-802.63"/>
<text text-anchor="start" x="1486.48" y="-847.57" font-family="Times,serif" font-size="14.00">C0330429</text>
<text text-anchor="start" x="1474.04" y="-833.57" font-family="Times,serif" font-size="14.00">Rhododendron</text>
<text text-anchor="start" x="1499.7" y="-819.57" font-family="Times,serif" font-size="14.00">23:23</text>
</g>
<!-- id_27706588_DOT_1&#45;&#45;id_27706588_DOT_4 -->
<g id="edge1" class="edge">
<title>id_27706588_DOT_1&#45;&#45;id_27706588_DOT_4</title>
<path fill="none" stroke="black" d="M1212.53,-967.53C1282.67,-937.51 1398.56,-887.89 1464.88,-859.51"/>
<text text-anchor="middle" x="1312.45" y="-916.32" font-family="Times,serif" font-size="14.00">0.001972</text>
</g>
<!-- id_27706588_DOT_13 -->
<g id="node13" class="node">
<title>id_27706588_DOT_13</title>
<polygon fill="chartreuse" stroke="chartreuse" points="759.06,-1080.15 763.56,-1080.35 768.03,-1080.64 772.42,-1081.02 776.73,-1081.5 780.95,-1082.07 785.04,-1082.73 789.01,-1083.48 792.82,-1084.32 796.48,-1085.24 799.96,-1086.24 803.25,-1087.33 806.35,-1088.49 809.23,-1089.73 811.9,-1091.03 814.35,-1092.4 816.57,-1093.84 818.55,-1095.33 820.3,-1096.88 821.8,-1098.47 823.06,-1100.12 824.09,-1101.8 824.87,-1103.53 825.42,-1105.28 825.73,-1107.06 825.81,-1108.87 825.67,-1110.69 825.32,-1112.53 824.75,-1114.37 823.99,-1116.22 823.03,-1118.06 821.88,-1119.89 820.56,-1121.72 819.07,-1123.52 817.43,-1125.3 815.64,-1127.06 813.72,-1128.78 811.67,-1130.47 809.5,-1132.11 807.23,-1133.71 804.86,-1135.26 802.4,-1136.75 799.87,-1138.18 797.26,-1139.56 794.59,-1140.86 791.86,-1142.1 789.09,-1143.26 786.27,-1144.34 783.41,-1145.35 780.53,-1146.27 777.61,-1147.11 774.67,-1147.86 771.72,-1148.52 768.75,-1149.09 765.76,-1149.57 762.77,-1149.95 759.77,-1150.24 756.76,-1150.43 753.76,-1150.53 750.75,-1150.53 747.74,-1150.43 744.73,-1150.24 741.73,-1149.95 738.74,-1149.57 735.75,-1149.09 732.78,-1148.52 729.83,-1147.86 726.89,-1147.11 723.98,-1146.27 721.09,-1145.35 718.23,-1144.34 715.41,-1143.26 712.64,-1142.1 709.91,-1140.86 707.24,-1139.56 704.63,-1138.18 702.1,-1136.75 699.64,-1135.26 697.27,-1133.71 695,-1132.11 692.83,-1130.47 690.78,-1128.78 688.86,-1127.06 687.07,-1125.3 685.43,-1123.52 683.94,-1121.72 682.62,-1119.89 681.48,-1118.06 680.52,-1116.22 679.75,-1114.37 679.18,-1112.53 678.83,-1110.69 678.69,-1108.87 678.77,-1107.06 679.08,-1105.28 679.63,-1103.53 680.41,-1101.8 681.44,-1100.12 682.7,-1098.47 684.21,-1096.88 685.95,-1095.33 687.93,-1093.84 690.15,-1092.4 692.6,-1091.03 695.27,-1089.73 698.16,-1088.49 701.25,-1087.33 704.54,-1086.24 708.02,-1085.24 711.68,-1084.32 715.49,-1083.48 719.46,-1082.73 723.55,-1082.07 727.77,-1081.5 732.08,-1081.02 736.48,-1080.64 740.94,-1080.35 745.44,-1080.15 749.98,-1080.06 754.52,-1080.06 759.06,-1080.15"/>
<text text-anchor="start" x="723.08" y="-1125.09" font-family="Times,serif" font-size="14.00">C0543482</text>
<text text-anchor="start" x="711.43" y="-1111.09" font-family="Times,serif" font-size="14.00">morphological</text>
<text text-anchor="start" x="729.31" y="-1097.09" font-family="Times,serif" font-size="14.00">170:170</text>
</g>
<!-- id_27706588_DOT_1&#45;&#45;id_27706588_DOT_13 -->
<g id="edge9" class="edge">
<title>id_27706588_DOT_1&#45;&#45;id_27706588_DOT_13</title>
<path fill="none" stroke="black" stroke-dasharray="1,5" d="M1096.05,-1010.33C1022.58,-1032.76 895.68,-1071.5 818.32,-1095.12"/>
<text text-anchor="middle" x="930.93" y="-1055.53" font-family="Times,serif" font-size="14.00">0.895914</text>
</g>
<!-- id_27706588_DOT_2 -->
<g id="node2" class="node">
<title>id_27706588_DOT_2</title>
<polygon fill="bisque" stroke="bisque" points="641.17,-1488.52 652.55,-1488.71 663.82,-1489 674.93,-1489.38 685.82,-1489.86 696.47,-1490.43 706.82,-1491.09 716.83,-1491.84 726.47,-1492.68 735.71,-1493.6 744.5,-1494.61 752.82,-1495.69 760.64,-1496.85 767.93,-1498.09 774.68,-1499.39 780.86,-1500.76 786.46,-1502.2 791.47,-1503.69 795.88,-1505.24 799.68,-1506.84 802.88,-1508.48 805.46,-1510.17 807.44,-1511.89 808.82,-1513.65 809.61,-1515.43 809.82,-1517.23 809.47,-1519.06 808.57,-1520.89 807.14,-1522.73 805.2,-1524.58 802.78,-1526.42 799.88,-1528.26 796.55,-1530.08 792.79,-1531.88 788.64,-1533.67 784.12,-1535.42 779.26,-1537.14 774.09,-1538.83 768.61,-1540.47 762.87,-1542.07 756.89,-1543.62 750.68,-1545.11 744.27,-1546.55 737.68,-1547.92 730.93,-1549.22 724.05,-1550.46 717.03,-1551.62 709.91,-1552.7 702.7,-1553.71 695.4,-1554.63 688.04,-1555.47 680.62,-1556.22 673.15,-1556.88 665.65,-1557.45 658.11,-1557.93 650.54,-1558.31 642.96,-1558.6 635.37,-1558.79 627.77,-1558.89 620.17,-1558.89 612.56,-1558.79 604.97,-1558.6 597.39,-1558.31 589.83,-1557.93 582.29,-1557.45 574.78,-1556.88 567.31,-1556.22 559.89,-1555.47 552.53,-1554.63 545.24,-1553.71 538.02,-1552.7 530.9,-1551.62 523.89,-1550.46 517,-1549.22 510.25,-1547.92 503.66,-1546.55 497.26,-1545.11 491.05,-1543.62 485.06,-1542.07 479.32,-1540.47 473.85,-1538.83 468.67,-1537.14 463.81,-1535.42 459.29,-1533.67 455.14,-1531.88 451.39,-1530.08 448.05,-1528.26 445.16,-1526.42 442.73,-1524.58 440.79,-1522.73 439.36,-1520.89 438.46,-1519.06 438.11,-1517.23 438.32,-1515.43 439.11,-1513.65 440.49,-1511.89 442.47,-1510.17 445.06,-1508.48 448.25,-1506.84 452.05,-1505.24 456.46,-1503.69 461.47,-1502.2 467.07,-1500.76 473.25,-1499.39 480,-1498.09 487.3,-1496.85 495.12,-1495.69 503.43,-1494.61 512.23,-1493.6 521.46,-1492.68 531.1,-1491.84 541.12,-1491.09 551.47,-1490.43 562.11,-1489.86 573.01,-1489.38 584.11,-1489 595.38,-1488.71 606.77,-1488.52 618.23,-1488.42 629.71,-1488.42 641.17,-1488.52"/>
<text text-anchor="start" x="594.8" y="-1533.46" font-family="Times,serif" font-size="14.00">C1955927</text>
<text text-anchor="start" x="508.68" y="-1519.46" font-family="Times,serif" font-size="14.00">amplified fragment length polymorphism</text>
<text text-anchor="start" x="611.78" y="-1505.46" font-family="Times,serif" font-size="14.00">8:11</text>
</g>
<!-- id_27706588_DOT_6 -->
<g id="node6" class="node">
<title>id_27706588_DOT_6</title>
<polygon fill="bisque" stroke="bisque" points="742.93,-1878.04 754.31,-1878.24 765.58,-1878.53 776.69,-1878.91 787.58,-1879.39 798.23,-1879.96 808.58,-1880.62 818.59,-1881.37 828.24,-1882.21 837.47,-1883.13 846.26,-1884.13 854.58,-1885.22 862.4,-1886.38 869.69,-1887.62 876.44,-1888.92 882.62,-1890.29 888.23,-1891.73 893.24,-1893.22 897.64,-1894.77 901.45,-1896.36 904.64,-1898.01 907.22,-1899.69 909.2,-1901.42 910.58,-1903.17 911.37,-1904.95 911.58,-1906.76 911.23,-1908.58 910.33,-1910.42 908.91,-1912.26 906.97,-1914.11 904.54,-1915.95 901.64,-1917.78 898.31,-1919.61 894.55,-1921.41 890.4,-1923.19 885.89,-1924.95 881.03,-1926.67 875.85,-1928.36 870.38,-1930 864.63,-1931.6 858.65,-1933.15 852.44,-1934.64 846.03,-1936.07 839.44,-1937.45 832.7,-1938.75 825.81,-1939.99 818.79,-1941.15 811.67,-1942.23 804.46,-1943.24 797.16,-1944.16 789.8,-1945 782.38,-1945.75 774.91,-1946.41 767.41,-1946.98 759.87,-1947.46 752.31,-1947.84 744.73,-1948.13 737.13,-1948.32 729.53,-1948.42 721.93,-1948.42 714.33,-1948.32 706.73,-1948.13 699.15,-1947.84 691.59,-1947.46 684.05,-1946.98 676.54,-1946.41 669.08,-1945.75 661.66,-1945 654.29,-1944.16 647,-1943.24 639.78,-1942.23 632.66,-1941.15 625.65,-1939.99 618.76,-1938.75 612.01,-1937.45 605.43,-1936.07 599.02,-1934.64 592.81,-1933.15 586.82,-1931.6 581.08,-1930 575.61,-1928.36 570.43,-1926.67 565.57,-1924.95 561.05,-1923.19 556.9,-1921.41 553.15,-1919.61 549.81,-1917.78 546.92,-1915.95 544.49,-1914.11 542.55,-1912.26 541.12,-1910.42 540.22,-1908.58 539.87,-1906.76 540.09,-1904.95 540.88,-1903.17 542.26,-1901.42 544.24,-1899.69 546.82,-1898.01 550.01,-1896.36 553.81,-1894.77 558.22,-1893.22 563.23,-1891.73 568.83,-1890.29 575.02,-1888.92 581.76,-1887.62 589.06,-1886.38 596.88,-1885.22 605.2,-1884.13 613.99,-1883.13 623.22,-1882.21 632.86,-1881.37 642.88,-1880.62 653.23,-1879.96 663.87,-1879.39 674.77,-1878.91 685.87,-1878.53 697.14,-1878.24 708.53,-1878.04 719.99,-1877.95 731.47,-1877.95 742.93,-1878.04"/>
<text text-anchor="start" x="696.56" y="-1922.98" font-family="Times,serif" font-size="14.00">C1955927</text>
<text text-anchor="start" x="610.44" y="-1908.98" font-family="Times,serif" font-size="14.00">amplified fragment length polymorphism</text>
<text text-anchor="start" x="709.78" y="-1894.98" font-family="Times,serif" font-size="14.00">37:40</text>
</g>
<!-- id_27706588_DOT_2&#45;&#45;id_27706588_DOT_6 -->
<g id="edge2" class="edge">
<title>id_27706588_DOT_2&#45;&#45;id_27706588_DOT_6</title>
<path fill="none" stroke="black" d="M633.18,-1558.91C652.5,-1632.89 697.09,-1803.58 716.47,-1877.73"/>
<text text-anchor="middle" x="648.57" y="-1721.12" font-family="Times,serif" font-size="14.00">0.006075</text>
</g>
<!-- id_27706588_DOT_12 -->
<g id="node12" class="node">
<title>id_27706588_DOT_12</title>
<polygon fill="bisque" stroke="bisque" points="232.67,-1535.65 244.05,-1535.84 255.32,-1536.13 266.43,-1536.51 277.32,-1536.99 287.97,-1537.56 298.32,-1538.22 308.33,-1538.97 317.98,-1539.81 327.21,-1540.73 336,-1541.74 344.32,-1542.82 352.14,-1543.98 359.43,-1545.22 366.18,-1546.52 372.36,-1547.89 377.97,-1549.33 382.98,-1550.82 387.38,-1552.37 391.19,-1553.97 394.38,-1555.61 396.96,-1557.3 398.94,-1559.02 400.32,-1560.77 401.11,-1562.56 401.32,-1564.36 400.97,-1566.18 400.07,-1568.02 398.65,-1569.86 396.71,-1571.71 394.28,-1573.55 391.38,-1575.39 388.05,-1577.21 384.29,-1579.01 380.14,-1580.8 375.63,-1582.55 370.77,-1584.27 365.59,-1585.96 360.12,-1587.6 354.37,-1589.2 348.39,-1590.75 342.18,-1592.24 335.77,-1593.68 329.18,-1595.05 322.44,-1596.35 315.55,-1597.59 308.54,-1598.75 301.41,-1599.83 294.2,-1600.84 286.91,-1601.76 279.54,-1602.6 272.12,-1603.35 264.65,-1604.01 257.15,-1604.58 249.61,-1605.06 242.05,-1605.44 234.47,-1605.73 226.87,-1605.92 219.27,-1606.02 211.67,-1606.02 204.07,-1605.92 196.47,-1605.73 188.89,-1605.44 181.33,-1605.06 173.79,-1604.58 166.28,-1604.01 158.82,-1603.35 151.4,-1602.6 144.03,-1601.76 136.74,-1600.84 129.52,-1599.83 122.4,-1598.75 115.39,-1597.59 108.5,-1596.35 101.75,-1595.05 95.17,-1593.68 88.76,-1592.24 82.55,-1590.75 76.56,-1589.2 70.82,-1587.6 65.35,-1585.96 60.17,-1584.27 55.31,-1582.55 50.79,-1580.8 46.64,-1579.01 42.89,-1577.21 39.55,-1575.39 36.66,-1573.55 34.23,-1571.71 32.29,-1569.86 30.86,-1568.02 29.96,-1566.18 29.61,-1564.36 29.83,-1562.56 30.62,-1560.77 32,-1559.02 33.98,-1557.3 36.56,-1555.61 39.75,-1553.97 43.55,-1552.37 47.96,-1550.82 52.97,-1549.33 58.57,-1547.89 64.76,-1546.52 71.5,-1545.22 78.8,-1543.98 86.62,-1542.82 94.94,-1541.74 103.73,-1540.73 112.96,-1539.81 122.6,-1538.97 132.62,-1538.22 142.97,-1537.56 153.61,-1536.99 164.51,-1536.51 175.61,-1536.13 186.88,-1535.84 198.27,-1535.65 209.73,-1535.55 221.21,-1535.55 232.67,-1535.65"/>
<text text-anchor="start" x="186.3" y="-1580.59" font-family="Times,serif" font-size="14.00">C1955927</text>
<text text-anchor="start" x="100.18" y="-1566.59" font-family="Times,serif" font-size="14.00">amplified fragment length polymorphism</text>
<text text-anchor="start" x="193.04" y="-1552.59" font-family="Times,serif" font-size="14.00">115:118</text>
</g>
<!-- id_27706588_DOT_2&#45;&#45;id_27706588_DOT_12 -->
<g id="edge3" class="edge">
<title>id_27706588_DOT_2&#45;&#45;id_27706588_DOT_12</title>
<path fill="none" stroke="black" d="M478.8,-1540.4C448.3,-1543.92 415.87,-1547.66 384.58,-1551.27"/>
<text text-anchor="middle" x="418.56" y="-1534.64" font-family="Times,serif" font-size="14.00">0.013300</text>
</g>
<!-- id_27706588_DOT_2&#45;&#45;id_27706588_DOT_13 -->
<g id="edge10" class="edge">
<title>id_27706588_DOT_2&#45;&#45;id_27706588_DOT_13</title>
<path fill="none" stroke="black" stroke-dasharray="1,5" d="M635.13,-1488.13C659.48,-1410.61 717.14,-1227.07 741.3,-1150.16"/>
<text text-anchor="middle" x="661.96" y="-1321.94" font-family="Times,serif" font-size="14.00">0.929834</text>
</g>
<!-- id_27706588_DOT_3 -->
<g id="node3" class="node">
<title>id_27706588_DOT_3</title>
<polygon fill="blue" stroke="blue" points="61.16,-721.98 64.58,-722.18 67.98,-722.46 71.32,-722.85 74.6,-723.33 77.81,-723.9 80.92,-724.56 83.94,-725.31 86.84,-726.15 89.62,-727.07 92.27,-728.07 94.77,-729.16 97.13,-730.32 99.32,-731.55 101.35,-732.86 103.22,-734.23 104.9,-735.66 106.41,-737.16 107.74,-738.71 108.88,-740.3 109.84,-741.95 110.62,-743.63 111.22,-745.36 111.63,-747.11 111.87,-748.89 111.93,-750.7 111.83,-752.52 111.56,-754.36 111.13,-756.2 110.54,-758.04 109.81,-759.89 108.94,-761.72 107.94,-763.55 106.81,-765.35 105.56,-767.13 104.2,-768.89 102.73,-770.61 101.18,-772.3 99.53,-773.94 97.8,-775.54 96,-777.09 94.13,-778.58 92.2,-780.01 90.22,-781.38 88.18,-782.69 86.11,-783.92 84,-785.09 81.85,-786.17 79.68,-787.18 77.49,-788.1 75.27,-788.94 73.04,-789.69 70.79,-790.35 68.53,-790.92 66.26,-791.4 63.98,-791.78 61.7,-792.07 59.41,-792.26 57.12,-792.36 54.83,-792.36 52.55,-792.26 50.26,-792.07 47.98,-791.78 45.7,-791.4 43.43,-790.92 41.17,-790.35 38.92,-789.69 36.69,-788.94 34.47,-788.1 32.27,-787.18 30.1,-786.17 27.96,-785.09 25.85,-783.92 23.77,-782.69 21.74,-781.38 19.76,-780.01 17.83,-778.58 15.96,-777.09 14.16,-775.54 12.43,-773.94 10.78,-772.3 9.22,-770.61 7.76,-768.89 6.4,-767.13 5.15,-765.35 4.02,-763.55 3.01,-761.72 2.14,-759.89 1.41,-758.04 0.83,-756.2 0.4,-754.36 0.13,-752.52 0.02,-750.7 0.09,-748.89 0.32,-747.11 0.74,-745.36 1.34,-743.63 2.11,-741.95 3.07,-740.3 4.22,-738.71 5.55,-737.16 7.05,-735.66 8.74,-734.23 10.6,-732.86 12.63,-731.55 14.83,-730.32 17.18,-729.16 19.69,-728.07 22.34,-727.07 25.12,-726.15 28.02,-725.31 31.03,-724.56 34.15,-723.9 37.35,-723.33 40.64,-722.85 43.98,-722.46 47.37,-722.18 50.8,-721.98 54.25,-721.89 57.71,-721.89 61.16,-721.98"/>
<text text-anchor="start" x="26.81" y="-766.92" font-family="Times,serif" font-size="14.00">C0012872</text>
<text text-anchor="start" x="33.43" y="-752.92" font-family="Times,serif" font-size="14.00">markers</text>
<text text-anchor="start" x="40.03" y="-738.92" font-family="Times,serif" font-size="14.00">18:18</text>
</g>
<!-- id_27706588_DOT_7 -->
<g id="node7" class="node">
<title>id_27706588_DOT_7</title>
<polygon fill="blue" stroke="blue" points="470.89,-757.35 474.32,-757.54 477.71,-757.83 481.06,-758.21 484.34,-758.69 487.54,-759.26 490.66,-759.92 493.67,-760.67 496.58,-761.51 499.36,-762.43 502,-763.44 504.51,-764.52 506.86,-765.68 509.06,-766.92 511.09,-768.22 512.95,-769.59 514.64,-771.03 516.15,-772.52 517.47,-774.07 518.62,-775.67 519.58,-777.31 520.36,-779 520.95,-780.72 521.37,-782.47 521.61,-784.26 521.67,-786.06 521.56,-787.88 521.29,-789.72 520.86,-791.56 520.28,-793.41 519.55,-795.25 518.68,-797.09 517.67,-798.91 516.54,-800.71 515.29,-802.5 513.93,-804.25 512.47,-805.97 510.91,-807.66 509.26,-809.3 507.54,-810.9 505.73,-812.45 503.86,-813.94 501.93,-815.38 499.95,-816.75 497.92,-818.05 495.85,-819.29 493.73,-820.45 491.59,-821.53 489.42,-822.54 487.22,-823.46 485.01,-824.3 482.77,-825.05 480.52,-825.71 478.26,-826.28 475.99,-826.76 473.72,-827.14 471.43,-827.43 469.15,-827.62 466.86,-827.72 464.57,-827.72 462.28,-827.62 459.99,-827.43 457.71,-827.14 455.44,-826.76 453.17,-826.28 450.91,-825.71 448.66,-825.05 446.42,-824.3 444.21,-823.46 442.01,-822.54 439.84,-821.53 437.69,-820.45 435.58,-819.29 433.51,-818.05 431.48,-816.75 429.49,-815.38 427.56,-813.94 425.7,-812.45 423.89,-810.9 422.16,-809.3 420.52,-807.66 418.96,-805.97 417.49,-804.25 416.13,-802.5 414.89,-800.71 413.75,-798.91 412.75,-797.09 411.88,-795.25 411.15,-793.41 410.56,-791.56 410.13,-789.72 409.86,-787.88 409.76,-786.06 409.82,-784.26 410.06,-782.47 410.48,-780.72 411.07,-779 411.85,-777.31 412.81,-775.67 413.95,-774.07 415.28,-772.52 416.79,-771.03 418.48,-769.59 420.34,-768.22 422.37,-766.92 424.57,-765.68 426.92,-764.52 429.43,-763.44 432.07,-762.43 434.85,-761.51 437.75,-760.67 440.77,-759.92 443.89,-759.26 447.09,-758.69 450.37,-758.21 453.72,-757.83 457.11,-757.54 460.54,-757.35 463.99,-757.25 467.44,-757.25 470.89,-757.35"/>
<text text-anchor="start" x="436.55" y="-802.29" font-family="Times,serif" font-size="14.00">C0012872</text>
<text text-anchor="start" x="443.17" y="-788.29" font-family="Times,serif" font-size="14.00">markers</text>
<text text-anchor="start" x="449.77" y="-774.29" font-family="Times,serif" font-size="14.00">41:41</text>
</g>
<!-- id_27706588_DOT_3&#45;&#45;id_27706588_DOT_7 -->
<g id="edge4" class="edge">
<title>id_27706588_DOT_3&#45;&#45;id_27706588_DOT_7</title>
<path fill="none" stroke="black" d="M109.12,-761.71C186.75,-768.41 330.5,-780.82 409.71,-787.65"/>
<text text-anchor="middle" x="233.17" y="-777.48" font-family="Times,serif" font-size="14.00">0.001057</text>
</g>
<!-- id_27706588_DOT_17 -->
<g id="node17" class="node">
<title>id_27706588_DOT_17</title>
<polygon fill="aquamarine" stroke="aquamarine" points="1859.45,-629.32 1864.04,-629.52 1868.58,-629.81 1873.06,-630.19 1877.45,-630.67 1881.74,-631.24 1885.91,-631.9 1889.95,-632.65 1893.84,-633.49 1897.56,-634.41 1901.1,-635.42 1904.46,-636.5 1907.61,-637.66 1910.55,-638.9 1913.27,-640.2 1915.76,-641.57 1918.02,-643.01 1920.04,-644.5 1921.82,-646.05 1923.35,-647.65 1924.64,-649.29 1925.68,-650.98 1926.47,-652.7 1927.03,-654.45 1927.35,-656.24 1927.44,-658.04 1927.29,-659.86 1926.93,-661.7 1926.36,-663.54 1925.57,-665.39 1924.6,-667.23 1923.43,-669.06 1922.08,-670.89 1920.57,-672.69 1918.9,-674.47 1917.08,-676.23 1915.12,-677.95 1913.03,-679.64 1910.82,-681.28 1908.51,-682.88 1906.1,-684.43 1903.59,-685.92 1901.01,-687.36 1898.35,-688.73 1895.63,-690.03 1892.86,-691.27 1890.03,-692.43 1887.16,-693.51 1884.25,-694.52 1881.31,-695.44 1878.34,-696.28 1875.35,-697.03 1872.34,-697.69 1869.32,-698.26 1866.28,-698.74 1863.23,-699.12 1860.17,-699.41 1857.11,-699.6 1854.05,-699.7 1850.98,-699.7 1847.92,-699.6 1844.86,-699.41 1841.8,-699.12 1838.75,-698.74 1835.71,-698.26 1832.69,-697.69 1829.68,-697.03 1826.68,-696.28 1823.72,-695.44 1820.78,-694.52 1817.87,-693.51 1815,-692.43 1812.17,-691.27 1809.39,-690.03 1806.67,-688.73 1804.02,-687.36 1801.43,-685.92 1798.93,-684.43 1796.52,-682.88 1794.2,-681.28 1792,-679.64 1789.91,-677.95 1787.95,-676.23 1786.13,-674.47 1784.46,-672.69 1782.94,-670.89 1781.6,-669.06 1780.43,-667.23 1779.45,-665.39 1778.67,-663.54 1778.1,-661.7 1777.73,-659.86 1777.59,-658.04 1777.68,-656.24 1778,-654.45 1778.55,-652.7 1779.35,-650.98 1780.39,-649.29 1781.68,-647.65 1783.21,-646.05 1784.99,-644.5 1787.01,-643.01 1789.27,-641.57 1791.76,-640.2 1794.48,-638.9 1797.42,-637.66 1800.57,-636.5 1803.93,-635.42 1807.47,-634.41 1811.19,-633.49 1815.08,-632.65 1819.12,-631.9 1823.29,-631.24 1827.58,-630.67 1831.97,-630.19 1836.45,-629.81 1840.99,-629.52 1845.58,-629.32 1850.2,-629.23 1854.83,-629.23 1859.45,-629.32"/>
<text text-anchor="start" x="1823.35" y="-674.26" font-family="Times,serif" font-size="14.00">C0330429</text>
<text text-anchor="start" x="1810.91" y="-660.26" font-family="Times,serif" font-size="14.00">Rhododendron</text>
<text text-anchor="start" x="1829.57" y="-646.26" font-family="Times,serif" font-size="14.00">189:189</text>
</g>
<!-- id_27706588_DOT_4&#45;&#45;id_27706588_DOT_17 -->
<g id="edge5" class="edge">
<title>id_27706588_DOT_4&#45;&#45;id_27706588_DOT_17</title>
<path fill="none" stroke="black" d="M1569.02,-810.31C1634.33,-776.71 1743.83,-720.38 1805.9,-688.45"/>
<text text-anchor="middle" x="1661.21" y="-752.18" font-family="Times,serif" font-size="14.00">0.012281</text>
</g>
<!-- id_27706588_DOT_5 -->
<g id="node5" class="node">
<title>id_27706588_DOT_5</title>
<polygon fill="blueviolet" stroke="blueviolet" points="299.04,-3556.67 302.45,-3556.86 305.83,-3557.15 309.16,-3557.54 312.42,-3558.01 315.61,-3558.58 318.71,-3559.25 321.71,-3560 324.6,-3560.83 327.37,-3561.76 330,-3562.76 332.49,-3563.85 334.84,-3565.01 337.02,-3566.24 339.04,-3567.55 340.89,-3568.92 342.57,-3570.35 344.07,-3571.85 345.39,-3573.39 346.53,-3574.99 347.49,-3576.64 348.26,-3578.32 348.86,-3580.04 349.27,-3581.8 349.51,-3583.58 349.57,-3585.39 349.47,-3587.21 349.2,-3589.05 348.77,-3590.89 348.19,-3592.73 347.46,-3594.58 346.59,-3596.41 345.59,-3598.23 344.47,-3600.04 343.23,-3601.82 341.87,-3603.58 340.42,-3605.3 338.86,-3606.99 337.22,-3608.63 335.5,-3610.23 333.71,-3611.78 331.85,-3613.27 329.93,-3614.7 327.96,-3616.07 325.94,-3617.38 323.87,-3618.61 321.77,-3619.77 319.64,-3620.86 317.48,-3621.86 315.29,-3622.79 313.08,-3623.62 310.86,-3624.38 308.62,-3625.04 306.37,-3625.61 304.12,-3626.08 301.85,-3626.47 299.58,-3626.76 297.3,-3626.95 295.03,-3627.05 292.75,-3627.05 290.47,-3626.95 288.2,-3626.76 285.92,-3626.47 283.66,-3626.08 281.4,-3625.61 279.15,-3625.04 276.91,-3624.38 274.69,-3623.62 272.48,-3622.79 270.3,-3621.86 268.14,-3620.86 266,-3619.77 263.9,-3618.61 261.84,-3617.38 259.82,-3616.07 257.84,-3614.7 255.92,-3613.27 254.06,-3611.78 252.27,-3610.23 250.55,-3608.63 248.91,-3606.99 247.36,-3605.3 245.9,-3603.58 244.55,-3601.82 243.31,-3600.04 242.18,-3598.23 241.18,-3596.41 240.31,-3594.58 239.59,-3592.73 239.01,-3590.89 238.58,-3589.05 238.31,-3587.21 238.2,-3585.39 238.27,-3583.58 238.5,-3581.8 238.92,-3580.04 239.51,-3578.32 240.28,-3576.64 241.24,-3574.99 242.38,-3573.39 243.7,-3571.85 245.2,-3570.35 246.88,-3568.92 248.73,-3567.55 250.75,-3566.24 252.94,-3565.01 255.28,-3563.85 257.77,-3562.76 260.41,-3561.76 263.17,-3560.83 266.06,-3560 269.06,-3559.25 272.17,-3558.58 275.35,-3558.01 278.62,-3557.54 281.95,-3557.15 285.32,-3556.86 288.73,-3556.67 292.17,-3556.58 295.61,-3556.58 299.04,-3556.67"/>
<text text-anchor="start" x="264.97" y="-3601.61" font-family="Times,serif" font-size="14.00">C0008115</text>
<text text-anchor="start" x="277.17" y="-3587.61" font-family="Times,serif" font-size="14.00">China</text>
<text text-anchor="start" x="277.94" y="-3573.61" font-family="Times,serif" font-size="14.00">26:26</text>
</g>
<!-- id_27706588_DOT_19 -->
<g id="node19" class="node">
<title>id_27706588_DOT_19</title>
<polygon fill="darkgoldenrod" stroke="darkgoldenrod" points="684.83,-3408.89 688.26,-3409.08 691.65,-3409.37 694.99,-3409.76 698.27,-3410.23 701.48,-3410.8 704.59,-3411.47 707.61,-3412.22 710.51,-3413.05 713.29,-3413.98 715.94,-3414.98 718.44,-3416.07 720.8,-3417.23 722.99,-3418.46 725.03,-3419.77 726.89,-3421.14 728.57,-3422.57 730.08,-3424.07 731.41,-3425.61 732.55,-3427.21 733.52,-3428.86 734.29,-3430.54 734.89,-3432.26 735.3,-3434.02 735.54,-3435.8 735.61,-3437.61 735.5,-3439.43 735.23,-3441.26 734.8,-3443.11 734.22,-3444.95 733.49,-3446.8 732.61,-3448.63 731.61,-3450.45 730.48,-3452.26 729.23,-3454.04 727.87,-3455.8 726.41,-3457.52 724.85,-3459.2 723.2,-3460.85 721.47,-3462.45 719.67,-3463.99 717.8,-3465.49 715.87,-3466.92 713.89,-3468.29 711.86,-3469.6 709.78,-3470.83 707.67,-3471.99 705.53,-3473.08 703.35,-3474.08 701.16,-3475.01 698.94,-3475.84 696.71,-3476.59 694.46,-3477.26 692.2,-3477.83 689.93,-3478.3 687.65,-3478.69 685.37,-3478.98 683.08,-3479.17 680.79,-3479.27 678.51,-3479.27 676.22,-3479.17 673.93,-3478.98 671.65,-3478.69 669.37,-3478.3 667.1,-3477.83 664.84,-3477.26 662.59,-3476.59 660.36,-3475.84 658.14,-3475.01 655.95,-3474.08 653.77,-3473.08 651.63,-3471.99 649.52,-3470.83 647.44,-3469.6 645.41,-3468.29 643.43,-3466.92 641.5,-3465.49 639.63,-3463.99 637.83,-3462.45 636.1,-3460.85 634.45,-3459.2 632.89,-3457.52 631.43,-3455.8 630.07,-3454.04 628.82,-3452.26 627.69,-3450.45 626.69,-3448.63 625.82,-3446.8 625.08,-3444.95 624.5,-3443.11 624.07,-3441.26 623.8,-3439.43 623.69,-3437.61 623.76,-3435.8 624,-3434.02 624.41,-3432.26 625.01,-3430.54 625.79,-3428.86 626.75,-3427.21 627.89,-3425.61 629.22,-3424.07 630.73,-3422.57 632.41,-3421.14 634.27,-3419.77 636.31,-3418.46 638.5,-3417.23 640.86,-3416.07 643.36,-3414.98 646.01,-3413.98 648.79,-3413.05 651.69,-3412.22 654.71,-3411.47 657.82,-3410.8 661.03,-3410.23 664.31,-3409.76 667.65,-3409.37 671.04,-3409.08 674.47,-3408.89 677.92,-3408.79 681.38,-3408.79 684.83,-3408.89"/>
<text text-anchor="start" x="650.48" y="-3453.83" font-family="Times,serif" font-size="14.00">C0006159</text>
<text text-anchor="start" x="655.16" y="-3439.83" font-family="Times,serif" font-size="14.00">breeding</text>
<text text-anchor="start" x="656.71" y="-3425.83" font-family="Times,serif" font-size="14.00">210:210</text>
</g>
<!-- id_27706588_DOT_5&#45;&#45;id_27706588_DOT_19 -->
<g id="edge11" class="edge">
<title>id_27706588_DOT_5&#45;&#45;id_27706588_DOT_19</title>
<path fill="none" stroke="black" stroke-dasharray="1,5" d="M344.72,-3572.34C421.03,-3543.1 563.91,-3488.37 635.87,-3460.8"/>
<text text-anchor="middle" x="464.04" y="-3519.37" font-family="Times,serif" font-size="14.00">0.878260</text>
</g>
<!-- id_27706588_DOT_9 -->
<g id="node9" class="node">
<title>id_27706588_DOT_9</title>
<polygon fill="bisque" stroke="bisque" points="750.25,-2261.36 761.64,-2261.55 772.91,-2261.84 784.02,-2262.22 794.91,-2262.7 805.56,-2263.27 815.91,-2263.93 825.92,-2264.68 835.56,-2265.52 844.8,-2266.44 853.59,-2267.45 861.91,-2268.53 869.73,-2269.69 877.02,-2270.93 883.77,-2272.23 889.95,-2273.6 895.55,-2275.04 900.56,-2276.53 904.97,-2278.08 908.77,-2279.68 911.97,-2281.32 914.55,-2283.01 916.53,-2284.73 917.91,-2286.48 918.7,-2288.27 918.91,-2290.07 918.56,-2291.89 917.66,-2293.73 916.23,-2295.57 914.29,-2297.42 911.87,-2299.26 908.97,-2301.1 905.63,-2302.92 901.88,-2304.72 897.73,-2306.51 893.21,-2308.26 888.35,-2309.98 883.17,-2311.67 877.7,-2313.31 871.96,-2314.91 865.98,-2316.46 859.77,-2317.95 853.36,-2319.39 846.77,-2320.76 840.02,-2322.06 833.13,-2323.3 826.12,-2324.46 819,-2325.54 811.79,-2326.55 804.49,-2327.47 797.13,-2328.31 789.71,-2329.06 782.24,-2329.72 774.73,-2330.29 767.2,-2330.77 759.63,-2331.15 752.05,-2331.44 744.46,-2331.63 736.86,-2331.73 729.25,-2331.73 721.65,-2331.63 714.06,-2331.44 706.48,-2331.15 698.92,-2330.77 691.38,-2330.29 683.87,-2329.72 676.4,-2329.06 668.98,-2328.31 661.62,-2327.47 654.32,-2326.55 647.11,-2325.54 639.99,-2324.46 632.98,-2323.3 626.09,-2322.06 619.34,-2320.76 612.75,-2319.39 606.34,-2317.95 600.14,-2316.46 594.15,-2314.91 588.41,-2313.31 582.94,-2311.67 577.76,-2309.98 572.9,-2308.26 568.38,-2306.51 564.23,-2304.72 560.48,-2302.92 557.14,-2301.1 554.25,-2299.26 551.82,-2297.42 549.88,-2295.57 548.45,-2293.73 547.55,-2291.89 547.2,-2290.07 547.41,-2288.27 548.2,-2286.48 549.58,-2284.73 551.56,-2283.01 554.15,-2281.32 557.34,-2279.68 561.14,-2278.08 565.55,-2276.53 570.56,-2275.04 576.16,-2273.6 582.34,-2272.23 589.09,-2270.93 596.39,-2269.69 604.2,-2268.53 612.52,-2267.45 621.32,-2266.44 630.55,-2265.52 640.19,-2264.68 650.21,-2263.93 660.56,-2263.27 671.2,-2262.7 682.1,-2262.22 693.2,-2261.84 704.47,-2261.55 715.86,-2261.36 727.31,-2261.26 738.8,-2261.26 750.25,-2261.36"/>
<text text-anchor="start" x="703.89" y="-2306.29" font-family="Times,serif" font-size="14.00">C1955927</text>
<text text-anchor="start" x="617.77" y="-2292.29" font-family="Times,serif" font-size="14.00">amplified fragment length polymorphism</text>
<text text-anchor="start" x="717.11" y="-2278.29" font-family="Times,serif" font-size="14.00">76:79</text>
</g>
<!-- id_27706588_DOT_6&#45;&#45;id_27706588_DOT_9 -->
<g id="edge6" class="edge">
<title>id_27706588_DOT_6&#45;&#45;id_27706588_DOT_9</title>
<path fill="none" stroke="black" d="M726.4,-1948.56C727.8,-2021.58 730.99,-2188.26 732.38,-2261.21"/>
<text text-anchor="middle" x="703.14" y="-2107.68" font-family="Times,serif" font-size="14.00">0.022662</text>
</g>
<!-- id_27706588_DOT_10 -->
<g id="node10" class="node">
<title>id_27706588_DOT_10</title>
<polygon fill="brown" stroke="brown" points="451.28,-357.4 455.14,-357.59 458.96,-357.88 462.73,-358.26 466.43,-358.74 470.04,-359.31 473.55,-359.97 476.95,-360.72 480.22,-361.56 483.35,-362.48 486.34,-363.49 489.16,-364.57 491.81,-365.73 494.29,-366.97 496.58,-368.27 498.67,-369.64 500.57,-371.08 502.27,-372.57 503.77,-374.12 505.06,-375.72 506.14,-377.36 507.02,-379.05 507.69,-380.77 508.16,-382.53 508.43,-384.31 508.5,-386.11 508.38,-387.94 508.07,-389.77 507.59,-391.61 506.93,-393.46 506.11,-395.3 505.13,-397.14 503.99,-398.96 502.72,-400.76 501.31,-402.55 499.78,-404.3 498.13,-406.02 496.37,-407.71 494.52,-409.35 492.57,-410.95 490.54,-412.5 488.43,-413.99 486.26,-415.43 484.02,-416.8 481.73,-418.1 479.4,-419.34 477.02,-420.5 474.6,-421.58 472.15,-422.59 469.68,-423.51 467.18,-424.35 464.66,-425.1 462.13,-425.76 459.58,-426.33 457.03,-426.81 454.46,-427.19 451.89,-427.48 449.31,-427.67 446.73,-427.77 444.15,-427.77 441.57,-427.67 439,-427.48 436.43,-427.19 433.86,-426.81 431.3,-426.33 428.76,-425.76 426.22,-425.1 423.7,-424.35 421.21,-423.51 418.73,-422.59 416.28,-421.58 413.87,-420.5 411.49,-419.34 409.15,-418.1 406.86,-416.8 404.63,-415.43 402.45,-413.99 400.35,-412.5 398.32,-410.95 396.37,-409.35 394.51,-407.71 392.75,-406.02 391.11,-404.3 389.57,-402.55 388.17,-400.76 386.89,-398.96 385.76,-397.14 384.78,-395.3 383.95,-393.46 383.3,-391.61 382.81,-389.77 382.51,-387.94 382.39,-386.11 382.46,-384.31 382.73,-382.53 383.2,-380.77 383.87,-379.05 384.74,-377.36 385.83,-375.72 387.12,-374.12 388.61,-372.57 390.31,-371.08 392.21,-369.64 394.31,-368.27 396.6,-366.97 399.07,-365.73 401.73,-364.57 404.55,-363.49 407.53,-362.48 410.66,-361.56 413.94,-360.72 417.33,-359.97 420.85,-359.31 424.46,-358.74 428.15,-358.26 431.92,-357.88 435.74,-357.59 439.61,-357.4 443.49,-357.3 447.39,-357.3 451.28,-357.4"/>
<text text-anchor="start" x="416.27" y="-402.34" font-family="Times,serif" font-size="14.00">C0206416</text>
<text text-anchor="start" x="411.43" y="-388.34" font-family="Times,serif" font-size="14.00">primer pairs</text>
<text text-anchor="start" x="429.5" y="-374.34" font-family="Times,serif" font-size="14.00">80:81</text>
</g>
<!-- id_27706588_DOT_7&#45;&#45;id_27706588_DOT_10 -->
<g id="edge12" class="edge">
<title>id_27706588_DOT_7&#45;&#45;id_27706588_DOT_10</title>
<path fill="none" stroke="black" stroke-dasharray="1,5" d="M463.92,-756.99C460.07,-681.1 451.08,-503.78 447.24,-427.95"/>
<text text-anchor="middle" x="429.33" y="-595.27" font-family="Times,serif" font-size="14.00">0.822160</text>
</g>
<!-- id_27706588_DOT_7&#45;&#45;id_27706588_DOT_13 -->
<g id="edge13" class="edge">
<title>id_27706588_DOT_7&#45;&#45;id_27706588_DOT_13</title>
<path fill="none" stroke="black" stroke-dasharray="1,5" d="M491.65,-821.7C544.96,-881.76 666.57,-1018.76 722.77,-1082.08"/>
<text text-anchor="middle" x="580.96" y="-954.69" font-family="Times,serif" font-size="14.00">0.909333</text>
</g>
<!-- id_27706588_DOT_8 -->
<g id="node8" class="node">
<title>id_27706588_DOT_8</title>
<polygon fill="brown" stroke="brown" points="319.89,-0.23 323.32,-0.42 326.72,-0.71 330.06,-1.09 333.34,-1.57 336.54,-2.14 339.66,-2.8 342.68,-3.55 345.58,-4.39 348.36,-5.31 351.01,-6.32 353.51,-7.4 355.86,-8.57 358.06,-9.8 360.09,-11.1 361.95,-12.48 363.64,-13.91 365.15,-15.4 366.48,-16.95 367.62,-18.55 368.58,-20.19 369.36,-21.88 369.96,-23.6 370.37,-25.36 370.61,-27.14 370.67,-28.94 370.57,-30.77 370.3,-32.6 369.87,-34.44 369.28,-36.29 368.55,-38.13 367.68,-39.97 366.68,-41.79 365.54,-43.6 364.3,-45.38 362.94,-47.13 361.47,-48.86 359.91,-50.54 358.27,-52.19 356.54,-53.78 354.74,-55.33 352.87,-56.82 350.94,-58.26 348.95,-59.63 346.92,-60.94 344.85,-62.17 342.74,-63.33 340.59,-64.42 338.42,-65.42 336.22,-66.34 334.01,-67.18 331.77,-67.93 329.52,-68.59 327.26,-69.16 325,-69.64 322.72,-70.02 320.44,-70.31 318.15,-70.51 315.86,-70.6 313.57,-70.6 311.28,-70.51 309,-70.31 306.71,-70.02 304.44,-69.64 302.17,-69.16 299.91,-68.59 297.66,-67.93 295.43,-67.18 293.21,-66.34 291.01,-65.42 288.84,-64.42 286.7,-63.33 284.59,-62.17 282.51,-60.94 280.48,-59.63 278.5,-58.26 276.57,-56.82 274.7,-55.33 272.9,-53.78 271.17,-52.19 269.52,-50.54 267.96,-48.86 266.5,-47.13 265.14,-45.38 263.89,-43.6 262.76,-41.79 261.75,-39.97 260.88,-38.13 260.15,-36.29 259.57,-34.44 259.14,-32.6 258.87,-30.77 258.76,-28.94 258.82,-27.14 259.06,-25.36 259.48,-23.6 260.07,-21.88 260.85,-20.19 261.81,-18.55 262.96,-16.95 264.28,-15.4 265.79,-13.91 267.48,-12.48 269.34,-11.1 271.37,-9.8 273.57,-8.57 275.92,-7.4 278.43,-6.32 281.07,-5.31 283.85,-4.39 286.76,-3.55 289.77,-2.8 292.89,-2.14 296.09,-1.57 299.37,-1.09 302.72,-0.71 306.11,-0.42 309.54,-0.23 312.99,-0.13 316.44,-0.13 319.89,-0.23"/>
<text text-anchor="start" x="285.55" y="-45.17" font-family="Times,serif" font-size="14.00">C0206416</text>
<text text-anchor="start" x="293.33" y="-31.17" font-family="Times,serif" font-size="14.00">primers</text>
<text text-anchor="start" x="298.77" y="-17.17" font-family="Times,serif" font-size="14.00">58:58</text>
</g>
<!-- id_27706588_DOT_8&#45;&#45;id_27706588_DOT_10 -->
<g id="edge7" class="edge">
<title>id_27706588_DOT_8&#45;&#45;id_27706588_DOT_10</title>
<path fill="none" stroke="black" d="M327.13,-69.29C351.99,-137.2 407.62,-289.21 432.73,-357.79"/>
<text text-anchor="middle" x="353.68" y="-216.34" font-family="Times,serif" font-size="14.00">0.032259</text>
</g>
<!-- id_27706588_DOT_18 -->
<g id="node18" class="node">
<title>id_27706588_DOT_18</title>
<polygon fill="coral" stroke="coral" points="727.23,-2637.14 730.66,-2637.34 734.05,-2637.63 737.4,-2638.01 740.68,-2638.49 743.88,-2639.06 747,-2639.72 750.01,-2640.47 752.92,-2641.31 755.7,-2642.23 758.34,-2643.23 760.85,-2644.32 763.2,-2645.48 765.4,-2646.72 767.43,-2648.02 769.29,-2649.39 770.98,-2650.83 772.49,-2652.32 773.81,-2653.87 774.96,-2655.46 775.92,-2657.11 776.7,-2658.79 777.29,-2660.52 777.71,-2662.27 777.95,-2664.05 778.01,-2665.86 777.91,-2667.68 777.63,-2669.52 777.2,-2671.36 776.62,-2673.21 775.89,-2675.05 775.02,-2676.88 774.01,-2678.71 772.88,-2680.51 771.63,-2682.29 770.27,-2684.05 768.81,-2685.77 767.25,-2687.46 765.6,-2689.1 763.88,-2690.7 762.07,-2692.25 760.2,-2693.74 758.27,-2695.17 756.29,-2696.55 754.26,-2697.85 752.19,-2699.09 750.07,-2700.25 747.93,-2701.33 745.76,-2702.34 743.56,-2703.26 741.35,-2704.1 739.11,-2704.85 736.86,-2705.51 734.6,-2706.08 732.33,-2706.56 730.06,-2706.94 727.77,-2707.23 725.49,-2707.42 723.2,-2707.52 720.91,-2707.52 718.62,-2707.42 716.33,-2707.23 714.05,-2706.94 711.78,-2706.56 709.51,-2706.08 707.25,-2705.51 705,-2704.85 702.76,-2704.1 700.55,-2703.26 698.35,-2702.34 696.18,-2701.33 694.03,-2700.25 691.92,-2699.09 689.85,-2697.85 687.82,-2696.55 685.83,-2695.17 683.9,-2693.74 682.04,-2692.25 680.23,-2690.7 678.5,-2689.1 676.86,-2687.46 675.3,-2685.77 673.83,-2684.05 672.47,-2682.29 671.23,-2680.51 670.1,-2678.71 669.09,-2676.88 668.22,-2675.05 667.49,-2673.21 666.9,-2671.36 666.47,-2669.52 666.2,-2667.68 666.1,-2665.86 666.16,-2664.05 666.4,-2662.27 666.82,-2660.52 667.41,-2658.79 668.19,-2657.11 669.15,-2655.46 670.3,-2653.87 671.62,-2652.32 673.13,-2650.83 674.82,-2649.39 676.68,-2648.02 678.71,-2646.72 680.91,-2645.48 683.26,-2644.32 685.77,-2643.23 688.41,-2642.23 691.19,-2641.31 694.1,-2640.47 697.11,-2639.72 700.23,-2639.06 703.43,-2638.49 706.71,-2638.01 710.06,-2637.63 713.45,-2637.34 716.88,-2637.14 720.33,-2637.05 723.78,-2637.05 727.23,-2637.14"/>
<text text-anchor="start" x="692.89" y="-2682.08" font-family="Times,serif" font-size="14.00">C1820370</text>
<text text-anchor="start" x="695.22" y="-2668.08" font-family="Times,serif" font-size="14.00">flowering</text>
<text text-anchor="start" x="699.11" y="-2654.08" font-family="Times,serif" font-size="14.00">193:193</text>
</g>
<!-- id_27706588_DOT_9&#45;&#45;id_27706588_DOT_18 -->
<g id="edge14" class="edge">
<title>id_27706588_DOT_9&#45;&#45;id_27706588_DOT_18</title>
<path fill="none" stroke="black" stroke-dasharray="1,5" d="M732.02,-2331.85C729.92,-2403.56 725.18,-2565.39 723.09,-2637.02"/>
<text text-anchor="middle" x="701.3" y="-2487.24" font-family="Times,serif" font-size="14.00">0.788663</text>
</g>
<!-- id_27706588_DOT_11 -->
<g id="node11" class="node">
<title>id_27706588_DOT_11</title>
<polygon fill="cadetblue" stroke="cadetblue" points="950.33,-3726.11 955.04,-3726.31 959.71,-3726.59 964.31,-3726.98 968.83,-3727.46 973.24,-3728.03 977.52,-3728.69 981.67,-3729.44 985.67,-3730.28 989.49,-3731.2 993.14,-3732.2 996.58,-3733.29 999.82,-3734.45 1002.84,-3735.68 1005.64,-3736.99 1008.2,-3738.36 1010.52,-3739.79 1012.6,-3741.29 1014.42,-3742.84 1016,-3744.43 1017.32,-3746.08 1018.39,-3747.76 1019.21,-3749.49 1019.78,-3751.24 1020.11,-3753.02 1020.2,-3754.83 1020.05,-3756.65 1019.68,-3758.49 1019.09,-3760.33 1018.29,-3762.17 1017.28,-3764.02 1016.08,-3765.85 1014.7,-3767.68 1013.14,-3769.48 1011.42,-3771.26 1009.55,-3773.02 1007.54,-3774.74 1005.39,-3776.43 1003.13,-3778.07 1000.75,-3779.67 998.27,-3781.22 995.7,-3782.71 993.04,-3784.14 990.31,-3785.51 987.52,-3786.82 984.66,-3788.05 981.76,-3789.22 978.81,-3790.3 975.82,-3791.31 972.8,-3792.23 969.75,-3793.07 966.67,-3793.82 963.58,-3794.48 960.47,-3795.05 957.35,-3795.53 954.21,-3795.91 951.07,-3796.2 947.93,-3796.39 944.78,-3796.49 941.63,-3796.49 938.48,-3796.39 935.33,-3796.2 932.19,-3795.91 929.06,-3795.53 925.93,-3795.05 922.82,-3794.48 919.73,-3793.82 916.66,-3793.07 913.61,-3792.23 910.58,-3791.31 907.59,-3790.3 904.64,-3789.22 901.74,-3788.05 898.89,-3786.82 896.09,-3785.51 893.36,-3784.14 890.71,-3782.71 888.13,-3781.22 885.65,-3779.67 883.28,-3778.07 881.01,-3776.43 878.86,-3774.74 876.85,-3773.02 874.98,-3771.26 873.26,-3769.48 871.7,-3767.68 870.32,-3765.85 869.12,-3764.02 868.12,-3762.17 867.31,-3760.33 866.72,-3758.49 866.35,-3756.65 866.2,-3754.83 866.29,-3753.02 866.62,-3751.24 867.19,-3749.49 868.01,-3747.76 869.08,-3746.08 870.4,-3744.43 871.98,-3742.84 873.8,-3741.29 875.88,-3739.79 878.2,-3738.36 880.76,-3736.99 883.56,-3735.68 886.58,-3734.45 889.82,-3733.29 893.27,-3732.2 896.91,-3731.2 900.73,-3730.28 904.73,-3729.44 908.88,-3728.69 913.16,-3728.03 917.57,-3727.46 922.09,-3726.98 926.69,-3726.59 931.36,-3726.31 936.08,-3726.11 940.82,-3726.02 945.58,-3726.02 950.33,-3726.11"/>
<text text-anchor="start" x="914.03" y="-3771.05" font-family="Times,serif" font-size="14.00">C0009085</text>
<text text-anchor="start" x="900.24" y="-3757.05" font-family="Times,serif" font-size="14.00">cluster analysis</text>
<text text-anchor="start" x="920.26" y="-3743.05" font-family="Times,serif" font-size="14.00">100:101</text>
</g>
<!-- id_27706588_DOT_15 -->
<g id="node15" class="node">
<title>id_27706588_DOT_15</title>
<polygon fill="cornflowerblue" stroke="cornflowerblue" points="833.76,-4108.54 837.18,-4108.73 840.58,-4109.02 843.92,-4109.4 847.2,-4109.88 850.41,-4110.45 853.52,-4111.11 856.54,-4111.86 859.44,-4112.7 862.22,-4113.62 864.87,-4114.63 867.37,-4115.71 869.73,-4116.87 871.92,-4118.11 873.95,-4119.41 875.82,-4120.78 877.5,-4122.22 879.01,-4123.71 880.34,-4125.26 881.48,-4126.86 882.44,-4128.5 883.22,-4130.19 883.82,-4131.91 884.23,-4133.66 884.47,-4135.45 884.54,-4137.25 884.43,-4139.07 884.16,-4140.91 883.73,-4142.75 883.14,-4144.6 882.41,-4146.44 881.54,-4148.28 880.54,-4150.1 879.41,-4151.9 878.16,-4153.69 876.8,-4155.44 875.33,-4157.16 873.78,-4158.85 872.13,-4160.49 870.4,-4162.09 868.6,-4163.64 866.73,-4165.13 864.8,-4166.57 862.82,-4167.94 860.78,-4169.24 858.71,-4170.48 856.6,-4171.64 854.45,-4172.72 852.28,-4173.73 850.09,-4174.65 847.87,-4175.49 845.64,-4176.24 843.39,-4176.9 841.13,-4177.47 838.86,-4177.95 836.58,-4178.33 834.3,-4178.62 832.01,-4178.81 829.72,-4178.91 827.43,-4178.91 825.15,-4178.81 822.86,-4178.62 820.58,-4178.33 818.3,-4177.95 816.03,-4177.47 813.77,-4176.9 811.52,-4176.24 809.29,-4175.49 807.07,-4174.65 804.87,-4173.73 802.7,-4172.72 800.56,-4171.64 798.45,-4170.48 796.37,-4169.24 794.34,-4167.94 792.36,-4166.57 790.43,-4165.13 788.56,-4163.64 786.76,-4162.09 785.03,-4160.49 783.38,-4158.85 781.82,-4157.16 780.36,-4155.44 779,-4153.69 777.75,-4151.9 776.62,-4150.1 775.61,-4148.28 774.74,-4146.44 774.01,-4144.6 773.43,-4142.75 773,-4140.91 772.73,-4139.07 772.62,-4137.25 772.69,-4135.45 772.92,-4133.66 773.34,-4131.91 773.94,-4130.19 774.71,-4128.5 775.67,-4126.86 776.82,-4125.26 778.15,-4123.71 779.65,-4122.22 781.34,-4120.78 783.2,-4119.41 785.23,-4118.11 787.43,-4116.87 789.78,-4115.71 792.29,-4114.63 794.94,-4113.62 797.72,-4112.7 800.62,-4111.86 803.63,-4111.11 806.75,-4110.45 809.96,-4109.88 813.24,-4109.4 816.58,-4109.02 819.97,-4108.73 823.4,-4108.54 826.85,-4108.44 830.31,-4108.44 833.76,-4108.54"/>
<text text-anchor="start" x="799.41" y="-4153.48" font-family="Times,serif" font-size="14.00">C2603343</text>
<text text-anchor="start" x="813.41" y="-4139.48" font-family="Times,serif" font-size="14.00">study</text>
<text text-anchor="start" x="805.63" y="-4125.48" font-family="Times,serif" font-size="14.00">184:184</text>
</g>
<!-- id_27706588_DOT_11&#45;&#45;id_27706588_DOT_15 -->
<g id="edge15" class="edge">
<title>id_27706588_DOT_11&#45;&#45;id_27706588_DOT_15</title>
<path fill="none" stroke="black" stroke-dasharray="1,5" d="M932.73,-3796.2C910.92,-3868.94 860.89,-4035.88 839.07,-4108.67"/>
<text text-anchor="middle" x="859.65" y="-3955.24" font-family="Times,serif" font-size="14.00">0.937793</text>
</g>
<!-- id_27706588_DOT_16 -->
<g id="node16" class="node">
<title>id_27706588_DOT_16</title>
<polygon fill="crimson" stroke="crimson" points="1328.48,-3848.58 1332.59,-3848.77 1336.67,-3849.06 1340.68,-3849.44 1344.62,-3849.92 1348.47,-3850.49 1352.21,-3851.15 1355.83,-3851.9 1359.31,-3852.74 1362.65,-3853.66 1365.83,-3854.67 1368.84,-3855.75 1371.66,-3856.91 1374.3,-3858.15 1376.74,-3859.45 1378.97,-3860.82 1381,-3862.26 1382.81,-3863.75 1384.4,-3865.3 1385.78,-3866.9 1386.93,-3868.54 1387.87,-3870.23 1388.58,-3871.95 1389.08,-3873.7 1389.37,-3875.49 1389.44,-3877.29 1389.32,-3879.11 1388.99,-3880.95 1388.47,-3882.79 1387.77,-3884.64 1386.9,-3886.48 1385.85,-3888.31 1384.64,-3890.14 1383.29,-3891.94 1381.79,-3893.72 1380.15,-3895.48 1378.4,-3897.2 1376.52,-3898.89 1374.55,-3900.53 1372.47,-3902.13 1370.31,-3903.68 1368.06,-3905.17 1365.75,-3906.61 1363.37,-3907.98 1360.93,-3909.28 1358.44,-3910.52 1355.9,-3911.68 1353.33,-3912.76 1350.72,-3913.77 1348.08,-3914.69 1345.42,-3915.53 1342.74,-3916.28 1340.04,-3916.94 1337.33,-3917.51 1334.6,-3917.99 1331.87,-3918.37 1329.13,-3918.66 1326.38,-3918.85 1323.63,-3918.95 1320.88,-3918.95 1318.14,-3918.85 1315.39,-3918.66 1312.65,-3918.37 1309.92,-3917.99 1307.19,-3917.51 1304.48,-3916.94 1301.78,-3916.28 1299.1,-3915.53 1296.44,-3914.69 1293.8,-3913.77 1291.19,-3912.76 1288.62,-3911.68 1286.08,-3910.52 1283.59,-3909.28 1281.15,-3907.98 1278.77,-3906.61 1276.45,-3905.17 1274.21,-3903.68 1272.05,-3902.13 1269.97,-3900.53 1267.99,-3898.89 1266.12,-3897.2 1264.36,-3895.48 1262.73,-3893.72 1261.23,-3891.94 1259.87,-3890.14 1258.67,-3888.31 1257.62,-3886.48 1256.74,-3884.64 1256.04,-3882.79 1255.53,-3880.95 1255.2,-3879.11 1255.08,-3877.29 1255.15,-3875.49 1255.44,-3873.7 1255.94,-3871.95 1256.65,-3870.23 1257.59,-3868.54 1258.74,-3866.9 1260.11,-3865.3 1261.71,-3863.75 1263.52,-3862.26 1265.54,-3860.82 1267.78,-3859.45 1270.22,-3858.15 1272.86,-3856.91 1275.68,-3855.75 1278.69,-3854.67 1281.87,-3853.66 1285.2,-3852.74 1288.69,-3851.9 1292.31,-3851.15 1296.05,-3850.49 1299.9,-3849.92 1303.84,-3849.44 1307.85,-3849.06 1311.93,-3848.77 1316.04,-3848.58 1320.18,-3848.48 1324.33,-3848.48 1328.48,-3848.58"/>
<text text-anchor="start" x="1293.09" y="-3893.51" font-family="Times,serif" font-size="14.00">C0008902</text>
<text text-anchor="start" x="1285.71" y="-3879.51" font-family="Times,serif" font-size="14.00">classification</text>
<text text-anchor="start" x="1299.31" y="-3865.51" font-family="Times,serif" font-size="14.00">187:187</text>
</g>
<!-- id_27706588_DOT_11&#45;&#45;id_27706588_DOT_16 -->
<g id="edge16" class="edge">
<title>id_27706588_DOT_11&#45;&#45;id_27706588_DOT_16</title>
<path fill="none" stroke="black" stroke-dasharray="1,5" d="M1000.77,-3779.85C1071.09,-3802.57 1189.5,-3840.82 1261.32,-3864.03"/>
<text text-anchor="middle" x="1104.79" y="-3824.74" font-family="Times,serif" font-size="14.00">0.798024</text>
</g>
<!-- id_27706588_DOT_11&#45;&#45;id_27706588_DOT_19 -->
<g id="edge17" class="edge">
<title>id_27706588_DOT_11&#45;&#45;id_27706588_DOT_19</title>
<path fill="none" stroke="black" stroke-dasharray="1,5" d="M915.25,-3727.6C863.58,-3665.42 753.93,-3533.43 704.6,-3474.07"/>
<text text-anchor="middle" x="783.68" y="-3603.64" font-family="Times,serif" font-size="14.00">0.815420</text>
</g>
<!-- id_27706588_DOT_14 -->
<g id="node14" class="node">
<title>id_27706588_DOT_14</title>
<polygon fill="coral" stroke="coral" points="722.34,-3015.42 725.77,-3015.62 729.16,-3015.9 732.51,-3016.29 735.79,-3016.77 738.99,-3017.34 742.11,-3018 745.12,-3018.75 748.02,-3019.59 750.8,-3020.51 753.45,-3021.51 755.96,-3022.6 758.31,-3023.76 760.51,-3024.99 762.54,-3026.3 764.4,-3027.67 766.09,-3029.1 767.59,-3030.6 768.92,-3032.14 770.07,-3033.74 771.03,-3035.39 771.81,-3037.07 772.4,-3038.8 772.82,-3040.55 773.06,-3042.33 773.12,-3044.14 773.01,-3045.96 772.74,-3047.8 772.31,-3049.64 771.73,-3051.48 771,-3053.33 770.13,-3055.16 769.12,-3056.98 767.99,-3058.79 766.74,-3060.57 765.38,-3062.33 763.92,-3064.05 762.36,-3065.74 760.71,-3067.38 758.98,-3068.98 757.18,-3070.53 755.31,-3072.02 753.38,-3073.45 751.4,-3074.82 749.37,-3076.13 747.29,-3077.36 745.18,-3078.53 743.04,-3079.61 740.87,-3080.61 738.67,-3081.54 736.45,-3082.38 734.22,-3083.13 731.97,-3083.79 729.71,-3084.36 727.44,-3084.83 725.16,-3085.22 722.88,-3085.51 720.6,-3085.7 718.31,-3085.8 716.02,-3085.8 713.73,-3085.7 711.44,-3085.51 709.16,-3085.22 706.88,-3084.83 704.61,-3084.36 702.35,-3083.79 700.11,-3083.13 697.87,-3082.38 695.66,-3081.54 693.46,-3080.61 691.29,-3079.61 689.14,-3078.53 687.03,-3077.36 684.96,-3076.13 682.93,-3074.82 680.94,-3073.45 679.01,-3072.02 677.14,-3070.53 675.34,-3068.98 673.61,-3067.38 671.97,-3065.74 670.41,-3064.05 668.94,-3062.33 667.58,-3060.57 666.33,-3058.79 665.2,-3056.98 664.2,-3055.16 663.33,-3053.33 662.6,-3051.48 662.01,-3049.64 661.58,-3047.8 661.31,-3045.96 661.21,-3044.14 661.27,-3042.33 661.51,-3040.55 661.92,-3038.8 662.52,-3037.07 663.3,-3035.39 664.26,-3033.74 665.4,-3032.14 666.73,-3030.6 668.24,-3029.1 669.93,-3027.67 671.79,-3026.3 673.82,-3024.99 676.01,-3023.76 678.37,-3022.6 680.87,-3021.51 683.52,-3020.51 686.3,-3019.59 689.2,-3018.75 692.22,-3018 695.33,-3017.34 698.54,-3016.77 701.82,-3016.29 705.16,-3015.9 708.56,-3015.62 711.98,-3015.42 715.43,-3015.33 718.89,-3015.33 722.34,-3015.42"/>
<text text-anchor="start" x="687.99" y="-3060.36" font-family="Times,serif" font-size="14.00">C1820370</text>
<text text-anchor="start" x="690.33" y="-3046.36" font-family="Times,serif" font-size="14.00">flowering</text>
<text text-anchor="start" x="694.22" y="-3032.36" font-family="Times,serif" font-size="14.00">175:175</text>
</g>
<!-- id_27706588_DOT_14&#45;&#45;id_27706588_DOT_18 -->
<g id="edge8" class="edge">
<title>id_27706588_DOT_14&#45;&#45;id_27706588_DOT_18</title>
<path fill="none" stroke="black" d="M717.62,-3015.31C718.55,-2943.23 720.67,-2779.7 721.6,-2707.58"/>
<text text-anchor="middle" x="693.36" y="-2864.25" font-family="Times,serif" font-size="14.00">0.002756</text>
</g>
<!-- id_27706588_DOT_14&#45;&#45;id_27706588_DOT_19 -->
<g id="edge18" class="edge">
<title>id_27706588_DOT_14&#45;&#45;id_27706588_DOT_19</title>
<path fill="none" stroke="black" stroke-dasharray="1,5" d="M713.8,-3085.83C706.68,-3160.52 690.14,-3333.95 683.02,-3408.7"/>
<text text-anchor="middle" x="672.16" y="-3250.06" font-family="Times,serif" font-size="14.00">0.647759</text>
</g>
</g>
</svg>
