<?xml version="1.0" encoding="UTF-8" standalone="no"?>
<!DOCTYPE svg PUBLIC "-//W3C//DTD SVG 1.1//EN"
 "http://www.w3.org/Graphics/SVG/1.1/DTD/svg11.dtd">
<!-- Generated by graphviz version 2.42.3 (20191010.1750)
 -->
<!-- Title: MST Pages: 1 -->
<svg width="5279pt" height="2685pt"
 viewBox="0.00 0.00 5279.40 2685.18" xmlns="http://www.w3.org/2000/svg" xmlns:xlink="http://www.w3.org/1999/xlink">
<g id="graph0" class="graph" transform="scale(1 1) rotate(0) translate(4 2681.18)">
<title>MST</title>
<polygon fill="white" stroke="transparent" points="-4,4 -4,-2681.18 5275.4,-2681.18 5275.4,4 -4,4"/>
<!-- id_27716187_DOT_1 -->
<g id="node1" class="node">
<title>id_27716187_DOT_1</title>
<polygon fill="aquamarine" stroke="aquamarine" points="4640.84,-2110.95 4646.09,-2111.14 4651.27,-2111.43 4656.39,-2111.81 4661.4,-2112.29 4666.3,-2112.86 4671.07,-2113.52 4675.68,-2114.27 4680.12,-2115.11 4684.37,-2116.03 4688.41,-2117.04 4692.24,-2118.12 4695.84,-2119.28 4699.2,-2120.52 4702.31,-2121.82 4705.15,-2123.19 4707.73,-2124.63 4710.04,-2126.12 4712.07,-2127.67 4713.82,-2129.27 4715.29,-2130.91 4716.48,-2132.6 4717.39,-2134.32 4718.03,-2136.07 4718.39,-2137.86 4718.49,-2139.66 4718.33,-2141.48 4717.91,-2143.32 4717.25,-2145.16 4716.36,-2147.01 4715.24,-2148.85 4713.91,-2150.69 4712.38,-2152.51 4710.65,-2154.31 4708.74,-2156.1 4706.66,-2157.85 4704.42,-2159.57 4702.03,-2161.26 4699.52,-2162.9 4696.87,-2164.5 4694.12,-2166.05 4691.26,-2167.54 4688.31,-2168.98 4685.28,-2170.35 4682.17,-2171.65 4679,-2172.89 4675.77,-2174.05 4672.49,-2175.13 4669.17,-2176.14 4665.81,-2177.06 4662.42,-2177.9 4659.01,-2178.65 4655.57,-2179.31 4652.11,-2179.88 4648.64,-2180.36 4645.16,-2180.74 4641.67,-2181.03 4638.18,-2181.22 4634.68,-2181.32 4631.18,-2181.32 4627.68,-2181.22 4624.18,-2181.03 4620.69,-2180.74 4617.21,-2180.36 4613.74,-2179.88 4610.28,-2179.31 4606.84,-2178.65 4603.43,-2177.9 4600.04,-2177.06 4596.68,-2176.14 4593.36,-2175.13 4590.08,-2174.05 4586.85,-2172.89 4583.68,-2171.65 4580.58,-2170.35 4577.54,-2168.98 4574.59,-2167.54 4571.73,-2166.05 4568.98,-2164.5 4566.34,-2162.9 4563.82,-2161.26 4561.43,-2159.57 4559.19,-2157.85 4557.12,-2156.1 4555.21,-2154.31 4553.48,-2152.51 4551.94,-2150.69 4550.61,-2148.85 4549.49,-2147.01 4548.6,-2145.16 4547.94,-2143.32 4547.53,-2141.48 4547.36,-2139.66 4547.46,-2137.86 4547.83,-2136.07 4548.46,-2134.32 4549.37,-2132.6 4550.56,-2130.91 4552.03,-2129.27 4553.78,-2127.67 4555.81,-2126.12 4558.12,-2124.63 4560.7,-2123.19 4563.54,-2121.82 4566.65,-2120.52 4570.01,-2119.28 4573.61,-2118.12 4577.44,-2117.04 4581.48,-2116.03 4585.74,-2115.11 4590.17,-2114.27 4594.78,-2113.52 4599.55,-2112.86 4604.45,-2112.29 4609.47,-2111.81 4614.58,-2111.43 4619.77,-2111.14 4625.01,-2110.95 4630.28,-2110.85 4635.57,-2110.85 4640.84,-2110.95"/>
<text text-anchor="start" x="4603.76" y="-2155.89" font-family="Times,serif" font-size="14.00">C2603343</text>
<text text-anchor="start" x="4584.13" y="-2141.89" font-family="Times,serif" font-size="14.00">perspective study</text>
<text text-anchor="start" x="4623.98" y="-2127.89" font-family="Times,serif" font-size="14.00">2:3</text>
</g>
<!-- id_27716187_DOT_6 -->
<g id="node6" class="node">
<title>id_27716187_DOT_6</title>
<polygon fill="aquamarine" stroke="aquamarine" points="4925.09,-2374.91 4928.52,-2375.1 4931.91,-2375.39 4935.25,-2375.77 4938.53,-2376.25 4941.74,-2376.82 4944.85,-2377.48 4947.87,-2378.23 4950.77,-2379.07 4953.55,-2379.99 4956.2,-2381 4958.7,-2382.08 4961.06,-2383.24 4963.25,-2384.48 4965.29,-2385.78 4967.15,-2387.15 4968.83,-2388.59 4970.34,-2390.08 4971.67,-2391.63 4972.81,-2393.23 4973.78,-2394.87 4974.55,-2396.56 4975.15,-2398.28 4975.56,-2400.04 4975.8,-2401.82 4975.87,-2403.62 4975.76,-2405.45 4975.49,-2407.28 4975.06,-2409.12 4974.48,-2410.97 4973.75,-2412.81 4972.87,-2414.65 4971.87,-2416.47 4970.74,-2418.27 4969.49,-2420.06 4968.13,-2421.81 4966.67,-2423.53 4965.11,-2425.22 4963.46,-2426.86 4961.73,-2428.46 4959.93,-2430.01 4958.06,-2431.5 4956.13,-2432.94 4954.15,-2434.31 4952.12,-2435.61 4950.04,-2436.85 4947.93,-2438.01 4945.79,-2439.09 4943.61,-2440.1 4941.42,-2441.02 4939.2,-2441.86 4936.97,-2442.61 4934.72,-2443.27 4932.46,-2443.84 4930.19,-2444.32 4927.91,-2444.7 4925.63,-2444.99 4923.34,-2445.18 4921.05,-2445.28 4918.77,-2445.28 4916.48,-2445.18 4914.19,-2444.99 4911.91,-2444.7 4909.63,-2444.32 4907.36,-2443.84 4905.1,-2443.27 4902.85,-2442.61 4900.62,-2441.86 4898.4,-2441.02 4896.21,-2440.1 4894.03,-2439.09 4891.89,-2438.01 4889.78,-2436.85 4887.7,-2435.61 4885.67,-2434.31 4883.69,-2432.94 4881.76,-2431.5 4879.89,-2430.01 4878.09,-2428.46 4876.36,-2426.86 4874.71,-2425.22 4873.15,-2423.53 4871.69,-2421.81 4870.33,-2420.06 4869.08,-2418.27 4867.95,-2416.47 4866.95,-2414.65 4866.07,-2412.81 4865.34,-2410.97 4864.76,-2409.12 4864.33,-2407.28 4864.06,-2405.45 4863.95,-2403.62 4864.02,-2401.82 4864.26,-2400.04 4864.67,-2398.28 4865.27,-2396.56 4866.04,-2394.87 4867.01,-2393.23 4868.15,-2391.63 4869.48,-2390.08 4870.99,-2388.59 4872.67,-2387.15 4874.53,-2385.78 4876.57,-2384.48 4878.76,-2383.24 4881.12,-2382.08 4883.62,-2381 4886.27,-2379.99 4889.05,-2379.07 4891.95,-2378.23 4894.97,-2377.48 4898.08,-2376.82 4901.29,-2376.25 4904.57,-2375.77 4907.91,-2375.39 4911.3,-2375.1 4914.73,-2374.91 4918.18,-2374.81 4921.64,-2374.81 4925.09,-2374.91"/>
<text text-anchor="start" x="4890.74" y="-2419.85" font-family="Times,serif" font-size="14.00">C2603343</text>
<text text-anchor="start" x="4904.74" y="-2405.85" font-family="Times,serif" font-size="14.00">study</text>
<text text-anchor="start" x="4903.97" y="-2391.85" font-family="Times,serif" font-size="14.00">48:48</text>
</g>
<!-- id_27716187_DOT_1&#45;&#45;id_27716187_DOT_6 -->
<g id="edge1" class="edge">
<title>id_27716187_DOT_1&#45;&#45;id_27716187_DOT_6</title>
<path fill="none" stroke="black" d="M4666.69,-2177.14C4722.11,-2228.11 4831.68,-2328.89 4886.72,-2379.52"/>
<text text-anchor="middle" x="4750.45" y="-2281.13" font-family="Times,serif" font-size="14.00">0.106579</text>
</g>
<!-- id_27716187_DOT_14 -->
<g id="node14" class="node">
<title>id_27716187_DOT_14</title>
<polygon fill="coral" stroke="coral" points="4447.95,-1748.55 4452.98,-1748.74 4457.95,-1749.03 4462.85,-1749.42 4467.66,-1749.89 4472.36,-1750.46 4476.93,-1751.12 4481.35,-1751.87 4485.61,-1752.71 4489.69,-1753.64 4493.57,-1754.64 4497.24,-1755.72 4500.69,-1756.89 4503.91,-1758.12 4506.89,-1759.43 4509.62,-1760.8 4512.09,-1762.23 4514.31,-1763.72 4516.25,-1765.27 4517.93,-1766.87 4519.34,-1768.51 4520.48,-1770.2 4521.35,-1771.92 4521.96,-1773.68 4522.31,-1775.46 4522.41,-1777.27 4522.25,-1779.09 4521.86,-1780.92 4521.22,-1782.77 4520.37,-1784.61 4519.3,-1786.45 4518.02,-1788.29 4516.55,-1790.11 4514.89,-1791.92 4513.06,-1793.7 4511.06,-1795.45 4508.92,-1797.18 4506.63,-1798.86 4504.21,-1800.51 4501.68,-1802.11 4499.04,-1803.65 4496.3,-1805.15 4493.47,-1806.58 4490.56,-1807.95 4487.58,-1809.26 4484.54,-1810.49 4481.44,-1811.65 4478.3,-1812.74 4475.11,-1813.74 4471.89,-1814.66 4468.64,-1815.5 4465.37,-1816.25 4462.07,-1816.91 4458.76,-1817.48 4455.43,-1817.96 4452.09,-1818.35 4448.74,-1818.63 4445.39,-1818.83 4442.03,-1818.92 4438.68,-1818.92 4435.32,-1818.83 4431.97,-1818.63 4428.62,-1818.35 4425.28,-1817.96 4421.96,-1817.48 4418.64,-1816.91 4415.35,-1816.25 4412.07,-1815.5 4408.82,-1814.66 4405.6,-1813.74 4402.41,-1812.74 4399.27,-1811.65 4396.17,-1810.49 4393.13,-1809.26 4390.15,-1807.95 4387.25,-1806.58 4384.42,-1805.15 4381.68,-1803.65 4379.03,-1802.11 4376.5,-1800.51 4374.08,-1798.86 4371.8,-1797.18 4369.65,-1795.45 4367.66,-1793.7 4365.83,-1791.92 4364.17,-1790.11 4362.69,-1788.29 4361.42,-1786.45 4360.34,-1784.61 4359.49,-1782.77 4358.86,-1780.92 4358.46,-1779.09 4358.31,-1777.27 4358.4,-1775.46 4358.75,-1773.68 4359.36,-1771.92 4360.23,-1770.2 4361.37,-1768.51 4362.78,-1766.87 4364.46,-1765.27 4366.41,-1763.72 4368.62,-1762.23 4371.09,-1760.8 4373.82,-1759.43 4376.8,-1758.12 4380.02,-1756.89 4383.47,-1755.72 4387.14,-1754.64 4391.03,-1753.64 4395.1,-1752.71 4399.36,-1751.87 4403.78,-1751.12 4408.35,-1750.46 4413.05,-1749.89 4417.86,-1749.42 4422.76,-1749.03 4427.74,-1748.74 4432.76,-1748.55 4437.82,-1748.45 4442.89,-1748.45 4447.95,-1748.55"/>
<text text-anchor="start" x="4411.19" y="-1793.49" font-family="Times,serif" font-size="14.00">C0949415</text>
<text text-anchor="start" x="4393.89" y="-1779.49" font-family="Times,serif" font-size="14.00">qualitative study</text>
<text text-anchor="start" x="4418.18" y="-1765.49" font-family="Times,serif" font-size="14.00">110:111</text>
</g>
<!-- id_27716187_DOT_1&#45;&#45;id_27716187_DOT_14 -->
<g id="edge15" class="edge">
<title>id_27716187_DOT_1&#45;&#45;id_27716187_DOT_14</title>
<path fill="none" stroke="black" stroke-dasharray="1,5" d="M4614.46,-2111.34C4577.56,-2041.89 4495.11,-1886.72 4458.48,-1817.8"/>
<text text-anchor="middle" x="4510.22" y="-1967.37" font-family="Times,serif" font-size="14.00">0.708132</text>
</g>
<!-- id_27716187_DOT_2 -->
<g id="node2" class="node">
<title>id_27716187_DOT_2</title>
<polygon fill="bisque" stroke="bisque" points="1095.35,-2565.32 1098.78,-2565.51 1102.17,-2565.8 1105.51,-2566.19 1108.79,-2566.66 1112,-2567.23 1115.12,-2567.89 1118.13,-2568.64 1121.03,-2569.48 1123.81,-2570.41 1126.46,-2571.41 1128.97,-2572.49 1131.32,-2573.66 1133.52,-2574.89 1135.55,-2576.2 1137.41,-2577.57 1139.1,-2579 1140.6,-2580.49 1141.93,-2582.04 1143.08,-2583.64 1144.04,-2585.28 1144.81,-2586.97 1145.41,-2588.69 1145.83,-2590.45 1146.06,-2592.23 1146.13,-2594.04 1146.02,-2595.86 1145.75,-2597.69 1145.32,-2599.54 1144.74,-2601.38 1144.01,-2603.22 1143.14,-2605.06 1142.13,-2606.88 1141,-2608.69 1139.75,-2610.47 1138.39,-2612.22 1136.93,-2613.95 1135.37,-2615.63 1133.72,-2617.28 1131.99,-2618.88 1130.19,-2620.42 1128.32,-2621.92 1126.39,-2623.35 1124.41,-2624.72 1122.38,-2626.03 1120.3,-2627.26 1118.19,-2628.42 1116.05,-2629.51 1113.88,-2630.51 1111.68,-2631.43 1109.46,-2632.27 1107.23,-2633.02 1104.98,-2633.68 1102.72,-2634.25 1100.45,-2634.73 1098.17,-2635.12 1095.89,-2635.4 1093.6,-2635.6 1091.32,-2635.69 1089.03,-2635.69 1086.74,-2635.6 1084.45,-2635.4 1082.17,-2635.12 1079.89,-2634.73 1077.62,-2634.25 1075.36,-2633.68 1073.11,-2633.02 1070.88,-2632.27 1068.66,-2631.43 1066.47,-2630.51 1064.3,-2629.51 1062.15,-2628.42 1060.04,-2627.26 1057.97,-2626.03 1055.93,-2624.72 1053.95,-2623.35 1052.02,-2621.92 1050.15,-2620.42 1048.35,-2618.88 1046.62,-2617.28 1044.97,-2615.63 1043.42,-2613.95 1041.95,-2612.22 1040.59,-2610.47 1039.34,-2608.69 1038.21,-2606.88 1037.21,-2605.06 1036.34,-2603.22 1035.61,-2601.38 1035.02,-2599.54 1034.59,-2597.69 1034.32,-2595.86 1034.21,-2594.04 1034.28,-2592.23 1034.52,-2590.45 1034.93,-2588.69 1035.53,-2586.97 1036.31,-2585.28 1037.27,-2583.64 1038.41,-2582.04 1039.74,-2580.49 1041.25,-2579 1042.93,-2577.57 1044.8,-2576.2 1046.83,-2574.89 1049.02,-2573.66 1051.38,-2572.49 1053.88,-2571.41 1056.53,-2570.41 1059.31,-2569.48 1062.21,-2568.64 1065.23,-2567.89 1068.34,-2567.23 1071.55,-2566.66 1074.83,-2566.19 1078.17,-2565.8 1081.57,-2565.51 1084.99,-2565.32 1088.44,-2565.22 1091.9,-2565.22 1095.35,-2565.32"/>
<text text-anchor="start" x="1061" y="-2610.26" font-family="Times,serif" font-size="14.00">C0442519</text>
<text text-anchor="start" x="1074.62" y="-2596.26" font-family="Times,serif" font-size="14.00">home</text>
<text text-anchor="start" x="1081.23" y="-2582.26" font-family="Times,serif" font-size="14.00">8:8</text>
</g>
<!-- id_27716187_DOT_4 -->
<g id="node4" class="node">
<title>id_27716187_DOT_4</title>
<polygon fill="bisque" stroke="bisque" points="1160.87,-2158.66 1164.29,-2158.86 1167.69,-2159.14 1171.03,-2159.53 1174.31,-2160.01 1177.52,-2160.58 1180.63,-2161.24 1183.65,-2161.99 1186.55,-2162.82 1189.33,-2163.75 1191.98,-2164.75 1194.48,-2165.84 1196.84,-2167 1199.03,-2168.23 1201.06,-2169.54 1202.92,-2170.91 1204.61,-2172.34 1206.12,-2173.84 1207.45,-2175.38 1208.59,-2176.98 1209.55,-2178.63 1210.33,-2180.31 1210.93,-2182.04 1211.34,-2183.79 1211.58,-2185.57 1211.64,-2187.38 1211.54,-2189.2 1211.27,-2191.04 1210.84,-2192.88 1210.25,-2194.72 1209.52,-2196.57 1208.65,-2198.4 1207.65,-2200.22 1206.52,-2202.03 1205.27,-2203.81 1203.91,-2205.57 1202.44,-2207.29 1200.88,-2208.98 1199.24,-2210.62 1197.51,-2212.22 1195.71,-2213.77 1193.84,-2215.26 1191.91,-2216.69 1189.92,-2218.06 1187.89,-2219.37 1185.82,-2220.6 1183.71,-2221.76 1181.56,-2222.85 1179.39,-2223.85 1177.19,-2224.78 1174.98,-2225.61 1172.74,-2226.37 1170.5,-2227.03 1168.24,-2227.6 1165.97,-2228.07 1163.69,-2228.46 1161.41,-2228.75 1159.12,-2228.94 1156.83,-2229.04 1154.54,-2229.04 1152.25,-2228.94 1149.97,-2228.75 1147.69,-2228.46 1145.41,-2228.07 1143.14,-2227.6 1140.88,-2227.03 1138.63,-2226.37 1136.4,-2225.61 1134.18,-2224.78 1131.98,-2223.85 1129.81,-2222.85 1127.67,-2221.76 1125.56,-2220.6 1123.48,-2219.37 1121.45,-2218.06 1119.47,-2216.69 1117.54,-2215.26 1115.67,-2213.77 1113.87,-2212.22 1112.14,-2210.62 1110.49,-2208.98 1108.93,-2207.29 1107.47,-2205.57 1106.11,-2203.81 1104.86,-2202.03 1103.73,-2200.22 1102.72,-2198.4 1101.85,-2196.57 1101.12,-2194.72 1100.54,-2192.88 1100.11,-2191.04 1099.84,-2189.2 1099.73,-2187.38 1099.79,-2185.57 1100.03,-2183.79 1100.45,-2182.04 1101.04,-2180.31 1101.82,-2178.63 1102.78,-2176.98 1103.93,-2175.38 1105.26,-2173.84 1106.76,-2172.34 1108.45,-2170.91 1110.31,-2169.54 1112.34,-2168.23 1114.54,-2167 1116.89,-2165.84 1119.4,-2164.75 1122.04,-2163.75 1124.82,-2162.82 1127.73,-2161.99 1130.74,-2161.24 1133.86,-2160.58 1137.06,-2160.01 1140.34,-2159.53 1143.69,-2159.14 1147.08,-2158.86 1150.51,-2158.66 1153.96,-2158.57 1157.42,-2158.57 1160.87,-2158.66"/>
<text text-anchor="start" x="1126.52" y="-2203.6" font-family="Times,serif" font-size="14.00">C0442519</text>
<text text-anchor="start" x="1140.14" y="-2189.6" font-family="Times,serif" font-size="14.00">home</text>
<text text-anchor="start" x="1139.74" y="-2175.6" font-family="Times,serif" font-size="14.00">26:26</text>
</g>
<!-- id_27716187_DOT_2&#45;&#45;id_27716187_DOT_4 -->
<g id="edge2" class="edge">
<title>id_27716187_DOT_2&#45;&#45;id_27716187_DOT_4</title>
<path fill="none" stroke="black" d="M1095.87,-2565.08C1108.29,-2487.98 1137.68,-2305.57 1150.05,-2228.81"/>
<text text-anchor="middle" x="1096.71" y="-2399.74" font-family="Times,serif" font-size="14.00">0.000442</text>
</g>
<!-- id_27716187_DOT_3 -->
<g id="node3" class="node">
<title>id_27716187_DOT_3</title>
<polygon fill="blue" stroke="blue" points="3738.52,-0.23 3743.89,-0.42 3749.21,-0.71 3754.45,-1.09 3759.59,-1.57 3764.62,-2.14 3769.5,-2.8 3774.23,-3.55 3778.78,-4.39 3783.14,-5.31 3787.29,-6.32 3791.22,-7.4 3794.91,-8.57 3798.35,-9.8 3801.54,-11.1 3804.45,-12.48 3807.1,-13.91 3809.46,-15.4 3811.54,-16.95 3813.34,-18.55 3814.84,-20.19 3816.06,-21.88 3817,-23.6 3817.65,-25.36 3818.02,-27.14 3818.12,-28.94 3817.96,-30.77 3817.53,-32.6 3816.86,-34.44 3815.94,-36.29 3814.8,-38.13 3813.43,-39.97 3811.86,-41.79 3810.08,-43.6 3808.13,-45.38 3805.99,-47.13 3803.7,-48.86 3801.25,-50.54 3798.67,-52.19 3795.96,-53.78 3793.14,-55.33 3790.21,-56.82 3787.18,-58.26 3784.07,-59.63 3780.89,-60.94 3777.64,-62.17 3774.33,-63.33 3770.96,-64.42 3767.56,-65.42 3764.12,-66.34 3760.64,-67.18 3757.14,-67.93 3753.61,-68.59 3750.07,-69.16 3746.51,-69.64 3742.94,-70.02 3739.36,-70.31 3735.78,-70.51 3732.19,-70.6 3728.6,-70.6 3725.02,-70.51 3721.43,-70.31 3717.85,-70.02 3714.28,-69.64 3710.73,-69.16 3707.18,-68.59 3703.66,-67.93 3700.15,-67.18 3696.68,-66.34 3693.24,-65.42 3689.83,-64.42 3686.47,-63.33 3683.16,-62.17 3679.91,-60.94 3676.72,-59.63 3673.61,-58.26 3670.59,-56.82 3667.66,-55.33 3664.83,-53.78 3662.12,-52.19 3659.54,-50.54 3657.1,-48.86 3654.8,-47.13 3652.67,-45.38 3650.71,-43.6 3648.94,-41.79 3647.36,-39.97 3646,-38.13 3644.85,-36.29 3643.94,-34.44 3643.26,-32.6 3642.84,-30.77 3642.67,-28.94 3642.77,-27.14 3643.15,-25.36 3643.8,-23.6 3644.73,-21.88 3645.95,-20.19 3647.46,-18.55 3649.25,-16.95 3651.33,-15.4 3653.7,-13.91 3656.34,-12.48 3659.26,-11.1 3662.45,-9.8 3665.89,-8.57 3669.58,-7.4 3673.51,-6.32 3677.66,-5.31 3682.01,-4.39 3686.56,-3.55 3691.29,-2.8 3696.18,-2.14 3701.2,-1.57 3706.34,-1.09 3711.59,-0.71 3716.91,-0.42 3722.28,-0.23 3727.69,-0.13 3733.11,-0.13 3738.52,-0.23"/>
<text text-anchor="start" x="3701.23" y="-45.17" font-family="Times,serif" font-size="14.00">C0018724</text>
<text text-anchor="start" x="3680.06" y="-31.17" font-family="Times,serif" font-size="14.00">care professionals</text>
<text text-anchor="start" x="3714.45" y="-17.17" font-family="Times,serif" font-size="14.00">19:20</text>
</g>
<!-- id_27716187_DOT_11 -->
<g id="node11" class="node">
<title>id_27716187_DOT_11</title>
<polygon fill="blue" stroke="blue" points="3549.17,-367.45 3554.54,-367.64 3559.86,-367.93 3565.11,-368.31 3570.25,-368.79 3575.27,-369.36 3580.16,-370.02 3584.89,-370.77 3589.44,-371.61 3593.79,-372.53 3597.94,-373.54 3601.87,-374.62 3605.56,-375.78 3609,-377.02 3612.19,-378.32 3615.11,-379.7 3617.75,-381.13 3620.12,-382.62 3622.2,-384.17 3623.99,-385.77 3625.5,-387.41 3626.72,-389.1 3627.65,-390.82 3628.3,-392.58 3628.68,-394.36 3628.78,-396.16 3628.61,-397.99 3628.19,-399.82 3627.51,-401.66 3626.6,-403.51 3625.45,-405.35 3624.09,-407.19 3622.51,-409.01 3620.74,-410.82 3618.78,-412.6 3616.65,-414.35 3614.35,-416.08 3611.91,-417.76 3609.33,-419.41 3606.62,-421 3603.79,-422.55 3600.86,-424.04 3597.84,-425.48 3594.73,-426.85 3591.54,-428.15 3588.29,-429.39 3584.98,-430.55 3581.62,-431.64 3578.21,-432.64 3574.77,-433.56 3571.3,-434.4 3567.79,-435.15 3564.27,-435.81 3560.73,-436.38 3557.17,-436.86 3553.6,-437.24 3550.02,-437.53 3546.43,-437.73 3542.85,-437.82 3539.26,-437.82 3535.67,-437.73 3532.09,-437.53 3528.51,-437.24 3524.94,-436.86 3521.38,-436.38 3517.84,-435.81 3514.31,-435.15 3510.81,-434.4 3507.33,-433.56 3503.89,-432.64 3500.49,-431.64 3497.12,-430.55 3493.81,-429.39 3490.56,-428.15 3487.38,-426.85 3484.27,-425.48 3481.24,-424.04 3478.31,-422.55 3475.49,-421 3472.78,-419.41 3470.2,-417.76 3467.75,-416.08 3465.46,-414.35 3463.32,-412.6 3461.37,-410.82 3459.59,-409.01 3458.02,-407.19 3456.65,-405.35 3455.51,-403.51 3454.59,-401.66 3453.92,-399.82 3453.49,-397.99 3453.33,-396.16 3453.43,-394.36 3453.8,-392.58 3454.45,-390.82 3455.39,-389.1 3456.61,-387.41 3458.11,-385.77 3459.91,-384.17 3461.99,-382.62 3464.35,-381.13 3467,-379.7 3469.92,-378.32 3473.1,-377.02 3476.54,-375.78 3480.23,-374.62 3484.16,-373.54 3488.31,-372.53 3492.67,-371.61 3497.22,-370.77 3501.95,-370.02 3506.83,-369.36 3511.86,-368.79 3517,-368.31 3522.24,-367.93 3527.56,-367.64 3532.93,-367.45 3538.34,-367.35 3543.76,-367.35 3549.17,-367.45"/>
<text text-anchor="start" x="3511.88" y="-412.39" font-family="Times,serif" font-size="14.00">C0018724</text>
<text text-anchor="start" x="3490.71" y="-398.39" font-family="Times,serif" font-size="14.00">care professionals</text>
<text text-anchor="start" x="3525.11" y="-384.39" font-family="Times,serif" font-size="14.00">97:98</text>
</g>
<!-- id_27716187_DOT_3&#45;&#45;id_27716187_DOT_11 -->
<g id="edge3" class="edge">
<title>id_27716187_DOT_3&#45;&#45;id_27716187_DOT_11</title>
<path fill="none" stroke="black" d="M3712.75,-69.58C3676.77,-139.38 3595.24,-297.5 3559,-367.79"/>
<text text-anchor="middle" x="3609.63" y="-221.49" font-family="Times,serif" font-size="14.00">0.002056</text>
</g>
<!-- id_27716187_DOT_7 -->
<g id="node7" class="node">
<title>id_27716187_DOT_7</title>
<polygon fill="bisque" stroke="bisque" points="1514.36,-1975.59 1517.79,-1975.78 1521.18,-1976.07 1524.52,-1976.46 1527.8,-1976.93 1531.01,-1977.5 1534.12,-1978.17 1537.14,-1978.92 1540.04,-1979.75 1542.82,-1980.68 1545.47,-1981.68 1547.97,-1982.77 1550.33,-1983.93 1552.53,-1985.16 1554.56,-1986.47 1556.42,-1987.84 1558.1,-1989.27 1559.61,-1990.77 1560.94,-1992.31 1562.08,-1993.91 1563.05,-1995.56 1563.82,-1997.24 1564.42,-1998.96 1564.84,-2000.72 1565.07,-2002.5 1565.14,-2004.31 1565.03,-2006.13 1564.76,-2007.96 1564.33,-2009.81 1563.75,-2011.65 1563.02,-2013.5 1562.14,-2015.33 1561.14,-2017.15 1560.01,-2018.96 1558.76,-2020.74 1557.4,-2022.5 1555.94,-2024.22 1554.38,-2025.9 1552.73,-2027.55 1551,-2029.15 1549.2,-2030.69 1547.33,-2032.19 1545.4,-2033.62 1543.42,-2034.99 1541.39,-2036.3 1539.31,-2037.53 1537.2,-2038.69 1535.06,-2039.78 1532.88,-2040.78 1530.69,-2041.71 1528.47,-2042.54 1526.24,-2043.29 1523.99,-2043.96 1521.73,-2044.53 1519.46,-2045 1517.18,-2045.39 1514.9,-2045.68 1512.61,-2045.87 1510.33,-2045.97 1508.04,-2045.97 1505.75,-2045.87 1503.46,-2045.68 1501.18,-2045.39 1498.9,-2045 1496.63,-2044.53 1494.37,-2043.96 1492.12,-2043.29 1489.89,-2042.54 1487.67,-2041.71 1485.48,-2040.78 1483.31,-2039.78 1481.16,-2038.69 1479.05,-2037.53 1476.98,-2036.3 1474.94,-2034.99 1472.96,-2033.62 1471.03,-2032.19 1469.16,-2030.69 1467.36,-2029.15 1465.63,-2027.55 1463.98,-2025.9 1462.43,-2024.22 1460.96,-2022.5 1459.6,-2020.74 1458.35,-2018.96 1457.22,-2017.15 1456.22,-2015.33 1455.35,-2013.5 1454.61,-2011.65 1454.03,-2009.81 1453.6,-2007.96 1453.33,-2006.13 1453.22,-2004.31 1453.29,-2002.5 1453.53,-2000.72 1453.94,-1998.96 1454.54,-1997.24 1455.32,-1995.56 1456.28,-1993.91 1457.42,-1992.31 1458.75,-1990.77 1460.26,-1989.27 1461.94,-1987.84 1463.81,-1986.47 1465.84,-1985.16 1468.03,-1983.93 1470.39,-1982.77 1472.89,-1981.68 1475.54,-1980.68 1478.32,-1979.75 1481.22,-1978.92 1484.24,-1978.17 1487.35,-1977.5 1490.56,-1976.93 1493.84,-1976.46 1497.18,-1976.07 1500.57,-1975.78 1504,-1975.59 1507.45,-1975.5 1510.91,-1975.5 1514.36,-1975.59"/>
<text text-anchor="start" x="1480.01" y="-2020.53" font-family="Times,serif" font-size="14.00">C0442519</text>
<text text-anchor="start" x="1493.63" y="-2006.53" font-family="Times,serif" font-size="14.00">home</text>
<text text-anchor="start" x="1493.24" y="-1992.53" font-family="Times,serif" font-size="14.00">58:58</text>
</g>
<!-- id_27716187_DOT_4&#45;&#45;id_27716187_DOT_7 -->
<g id="edge4" class="edge">
<title>id_27716187_DOT_4&#45;&#45;id_27716187_DOT_7</title>
<path fill="none" stroke="black" d="M1201.9,-2169.87C1271.89,-2133.62 1403.59,-2065.41 1469.5,-2031.28"/>
<text text-anchor="middle" x="1309.45" y="-2103.37" font-family="Times,serif" font-size="14.00">0.000509</text>
</g>
<!-- id_27716187_DOT_20 -->
<g id="node20" class="node">
<title>id_27716187_DOT_20</title>
<polygon fill="bisque" stroke="bisque" points="796.07,-1996.44 799.5,-1996.64 802.89,-1996.93 806.24,-1997.31 809.52,-1997.79 812.72,-1998.36 815.84,-1999.02 818.85,-1999.77 821.76,-2000.61 824.54,-2001.53 827.18,-2002.53 829.69,-2003.62 832.04,-2004.78 834.24,-2006.02 836.27,-2007.32 838.13,-2008.69 839.82,-2010.13 841.33,-2011.62 842.65,-2013.17 843.8,-2014.76 844.76,-2016.41 845.54,-2018.09 846.13,-2019.82 846.55,-2021.57 846.79,-2023.35 846.85,-2025.16 846.74,-2026.98 846.47,-2028.82 846.04,-2030.66 845.46,-2032.51 844.73,-2034.35 843.86,-2036.18 842.85,-2038.01 841.72,-2039.81 840.47,-2041.59 839.11,-2043.35 837.65,-2045.07 836.09,-2046.76 834.44,-2048.4 832.71,-2050 830.91,-2051.55 829.04,-2053.04 827.11,-2054.47 825.13,-2055.85 823.1,-2057.15 821.02,-2058.39 818.91,-2059.55 816.77,-2060.63 814.6,-2061.64 812.4,-2062.56 810.18,-2063.4 807.95,-2064.15 805.7,-2064.81 803.44,-2065.38 801.17,-2065.86 798.9,-2066.24 796.61,-2066.53 794.33,-2066.72 792.04,-2066.82 789.75,-2066.82 787.46,-2066.72 785.17,-2066.53 782.89,-2066.24 780.61,-2065.86 778.34,-2065.38 776.08,-2064.81 773.84,-2064.15 771.6,-2063.4 769.39,-2062.56 767.19,-2061.64 765.02,-2060.63 762.87,-2059.55 760.76,-2058.39 758.69,-2057.15 756.66,-2055.85 754.67,-2054.47 752.74,-2053.04 750.87,-2051.55 749.07,-2050 747.34,-2048.4 745.7,-2046.76 744.14,-2045.07 742.67,-2043.35 741.31,-2041.59 740.06,-2039.81 738.93,-2038.01 737.93,-2036.18 737.06,-2034.35 736.33,-2032.51 735.74,-2030.66 735.31,-2028.82 735.04,-2026.98 734.94,-2025.16 735,-2023.35 735.24,-2021.57 735.65,-2019.82 736.25,-2018.09 737.03,-2016.41 737.99,-2014.76 739.13,-2013.17 740.46,-2011.62 741.97,-2010.13 743.66,-2008.69 745.52,-2007.32 747.55,-2006.02 749.75,-2004.78 752.1,-2003.62 754.6,-2002.53 757.25,-2001.53 760.03,-2000.61 762.93,-1999.77 765.95,-1999.02 769.07,-1998.36 772.27,-1997.79 775.55,-1997.31 778.89,-1996.93 782.29,-1996.64 785.72,-1996.44 789.16,-1996.35 792.62,-1996.35 796.07,-1996.44"/>
<text text-anchor="start" x="761.72" y="-2041.38" font-family="Times,serif" font-size="14.00">C0442519</text>
<text text-anchor="start" x="775.34" y="-2027.38" font-family="Times,serif" font-size="14.00">home</text>
<text text-anchor="start" x="767.95" y="-2013.38" font-family="Times,serif" font-size="14.00">245:245</text>
</g>
<!-- id_27716187_DOT_4&#45;&#45;id_27716187_DOT_20 -->
<g id="edge5" class="edge">
<title>id_27716187_DOT_4&#45;&#45;id_27716187_DOT_20</title>
<path fill="none" stroke="black" d="M1106.87,-2172.09C1034.65,-2139.98 900.57,-2080.35 832.65,-2050.15"/>
<text text-anchor="middle" x="943.51" y="-2113.92" font-family="Times,serif" font-size="14.00">0.006552</text>
</g>
<!-- id_27716187_DOT_5 -->
<g id="node5" class="node">
<title>id_27716187_DOT_5</title>
<polygon fill="blueviolet" stroke="blueviolet" points="4073.41,-958.73 4077.65,-958.92 4081.86,-959.21 4086,-959.59 4090.07,-960.07 4094.04,-960.64 4097.9,-961.3 4101.64,-962.05 4105.24,-962.89 4108.68,-963.81 4111.96,-964.82 4115.07,-965.9 4117.98,-967.06 4120.71,-968.3 4123.22,-969.6 4125.53,-970.97 4127.62,-972.41 4129.49,-973.9 4131.13,-975.45 4132.55,-977.05 4133.74,-978.69 4134.71,-980.38 4135.45,-982.1 4135.96,-983.85 4136.26,-985.64 4136.34,-987.44 4136.21,-989.26 4135.87,-991.1 4135.34,-992.94 4134.61,-994.79 4133.71,-996.63 4132.63,-998.47 4131.38,-1000.29 4129.98,-1002.09 4128.43,-1003.88 4126.75,-1005.63 4124.93,-1007.35 4123,-1009.04 4120.96,-1010.68 4118.82,-1012.28 4116.58,-1013.83 4114.27,-1015.32 4111.88,-1016.76 4109.42,-1018.13 4106.9,-1019.43 4104.33,-1020.67 4101.71,-1021.83 4099.06,-1022.91 4096.37,-1023.92 4093.64,-1024.84 4090.9,-1025.68 4088.13,-1026.43 4085.34,-1027.09 4082.54,-1027.66 4079.73,-1028.14 4076.91,-1028.52 4074.08,-1028.81 4071.24,-1029 4068.41,-1029.1 4065.57,-1029.1 4062.73,-1029 4059.9,-1028.81 4057.07,-1028.52 4054.25,-1028.14 4051.44,-1027.66 4048.64,-1027.09 4045.85,-1026.43 4043.08,-1025.68 4040.33,-1024.84 4037.61,-1023.92 4034.92,-1022.91 4032.26,-1021.83 4029.65,-1020.67 4027.08,-1019.43 4024.56,-1018.13 4022.1,-1016.76 4019.71,-1015.32 4017.39,-1013.83 4015.16,-1012.28 4013.02,-1010.68 4010.98,-1009.04 4009.04,-1007.35 4007.23,-1005.63 4005.54,-1003.88 4004,-1002.09 4002.59,-1000.29 4001.35,-998.47 4000.27,-996.63 3999.36,-994.79 3998.64,-992.94 3998.11,-991.1 3997.77,-989.26 3997.64,-987.44 3997.72,-985.64 3998.02,-983.85 3998.53,-982.1 3999.27,-980.38 4000.23,-978.69 4001.42,-977.05 4002.84,-975.45 4004.49,-973.9 4006.36,-972.41 4008.45,-970.97 4010.75,-969.6 4013.27,-968.3 4015.99,-967.06 4018.91,-965.9 4022.01,-964.82 4025.3,-963.81 4028.74,-962.89 4032.34,-962.05 4036.08,-961.3 4039.94,-960.64 4043.91,-960.07 4047.97,-959.59 4052.12,-959.21 4056.32,-958.92 4060.57,-958.73 4064.85,-958.63 4069.13,-958.63 4073.41,-958.73"/>
<text text-anchor="start" x="4037.82" y="-1003.67" font-family="Times,serif" font-size="14.00">C1837655</text>
<text text-anchor="start" x="4028.89" y="-989.67" font-family="Times,serif" font-size="14.00">multifactorial</text>
<text text-anchor="start" x="4051.04" y="-975.67" font-family="Times,serif" font-size="14.00">33:33</text>
</g>
<!-- id_27716187_DOT_17 -->
<g id="node17" class="node">
<title>id_27716187_DOT_17</title>
<polygon fill="crimson" stroke="crimson" points="4380.97,-686.96 4384.39,-687.15 4387.79,-687.44 4391.13,-687.82 4394.41,-688.3 4397.62,-688.87 4400.73,-689.53 4403.75,-690.28 4406.65,-691.12 4409.43,-692.04 4412.08,-693.05 4414.58,-694.13 4416.94,-695.29 4419.13,-696.53 4421.16,-697.83 4423.02,-699.2 4424.71,-700.64 4426.22,-702.13 4427.55,-703.68 4428.69,-705.28 4429.65,-706.92 4430.43,-708.61 4431.03,-710.33 4431.44,-712.08 4431.68,-713.87 4431.74,-715.67 4431.64,-717.49 4431.37,-719.33 4430.94,-721.17 4430.35,-723.02 4429.62,-724.86 4428.75,-726.69 4427.75,-728.52 4426.62,-730.32 4425.37,-732.11 4424.01,-733.86 4422.54,-735.58 4420.98,-737.27 4419.34,-738.91 4417.61,-740.51 4415.81,-742.06 4413.94,-743.55 4412.01,-744.99 4410.02,-746.36 4407.99,-747.66 4405.92,-748.9 4403.81,-750.06 4401.66,-751.14 4399.49,-752.15 4397.3,-753.07 4395.08,-753.91 4392.84,-754.66 4390.6,-755.32 4388.34,-755.89 4386.07,-756.37 4383.79,-756.75 4381.51,-757.04 4379.22,-757.23 4376.93,-757.33 4374.64,-757.33 4372.35,-757.23 4370.07,-757.04 4367.79,-756.75 4365.51,-756.37 4363.24,-755.89 4360.98,-755.32 4358.73,-754.66 4356.5,-753.91 4354.28,-753.07 4352.08,-752.15 4349.91,-751.14 4347.77,-750.06 4345.66,-748.9 4343.58,-747.66 4341.55,-746.36 4339.57,-744.99 4337.64,-743.55 4335.77,-742.06 4333.97,-740.51 4332.24,-738.91 4330.59,-737.27 4329.03,-735.58 4327.57,-733.86 4326.21,-732.11 4324.96,-730.32 4323.83,-728.52 4322.82,-726.69 4321.95,-724.86 4321.22,-723.02 4320.64,-721.17 4320.21,-719.33 4319.94,-717.49 4319.83,-715.67 4319.9,-713.87 4320.13,-712.08 4320.55,-710.33 4321.14,-708.61 4321.92,-706.92 4322.88,-705.28 4324.03,-703.68 4325.36,-702.13 4326.86,-700.64 4328.55,-699.2 4330.41,-697.83 4332.44,-696.53 4334.64,-695.29 4336.99,-694.13 4339.5,-693.05 4342.15,-692.04 4344.93,-691.12 4347.83,-690.28 4350.84,-689.53 4353.96,-688.87 4357.16,-688.3 4360.45,-687.82 4363.79,-687.44 4367.18,-687.15 4370.61,-686.96 4374.06,-686.86 4377.52,-686.86 4380.97,-686.96"/>
<text text-anchor="start" x="4346.62" y="-731.89" font-family="Times,serif" font-size="14.00">C1709359</text>
<text text-anchor="start" x="4351.29" y="-717.89" font-family="Times,serif" font-size="14.00">outdoors</text>
<text text-anchor="start" x="4352.84" y="-703.89" font-family="Times,serif" font-size="14.00">208:208</text>
</g>
<!-- id_27716187_DOT_5&#45;&#45;id_27716187_DOT_17 -->
<g id="edge16" class="edge">
<title>id_27716187_DOT_5&#45;&#45;id_27716187_DOT_17</title>
<path fill="none" stroke="black" stroke-dasharray="1,5" d="M4103.02,-962.16C4164.27,-908.25 4287.64,-799.67 4345.07,-749.13"/>
<text text-anchor="middle" x="4197.79" y="-858.44" font-family="Times,serif" font-size="14.00">0.736307</text>
</g>
<!-- id_27716187_DOT_19 -->
<g id="node19" class="node">
<title>id_27716187_DOT_19</title>
<polygon fill="darkgoldenrod" stroke="darkgoldenrod" points="3761.83,-1204.83 3765.79,-1205.02 3769.7,-1205.31 3773.56,-1205.7 3777.35,-1206.17 3781.05,-1206.74 3784.65,-1207.41 3788.13,-1208.16 3791.48,-1208.99 3794.69,-1209.92 3797.75,-1210.92 3800.64,-1212.01 3803.36,-1213.17 3805.89,-1214.4 3808.24,-1215.71 3810.39,-1217.08 3812.34,-1218.51 3814.08,-1220.01 3815.61,-1221.55 3816.93,-1223.15 3818.04,-1224.8 3818.94,-1226.48 3819.63,-1228.2 3820.11,-1229.96 3820.38,-1231.74 3820.46,-1233.55 3820.33,-1235.37 3820.02,-1237.2 3819.53,-1239.05 3818.85,-1240.89 3818.01,-1242.74 3817,-1244.57 3815.84,-1246.39 3814.54,-1248.2 3813.09,-1249.98 3811.52,-1251.74 3809.83,-1253.46 3808.03,-1255.14 3806.13,-1256.79 3804.14,-1258.39 3802.05,-1259.93 3799.9,-1261.43 3797.67,-1262.86 3795.38,-1264.23 3793.03,-1265.54 3790.64,-1266.77 3788.2,-1267.93 3785.73,-1269.02 3783.22,-1270.02 3780.68,-1270.95 3778.12,-1271.78 3775.54,-1272.53 3772.95,-1273.2 3770.34,-1273.77 3767.72,-1274.24 3765.09,-1274.63 3762.45,-1274.92 3759.81,-1275.11 3757.17,-1275.2 3754.53,-1275.2 3751.88,-1275.11 3749.24,-1274.92 3746.61,-1274.63 3743.98,-1274.24 3741.36,-1273.77 3738.75,-1273.2 3736.15,-1272.53 3733.57,-1271.78 3731.01,-1270.95 3728.48,-1270.02 3725.97,-1269.02 3723.5,-1267.93 3721.06,-1266.77 3718.66,-1265.54 3716.32,-1264.23 3714.03,-1262.86 3711.8,-1261.43 3709.64,-1259.93 3707.56,-1258.39 3705.57,-1256.79 3703.66,-1255.14 3701.86,-1253.46 3700.17,-1251.74 3698.6,-1249.98 3697.16,-1248.2 3695.86,-1246.39 3694.7,-1244.57 3693.69,-1242.74 3692.85,-1240.89 3692.17,-1239.05 3691.67,-1237.2 3691.36,-1235.37 3691.24,-1233.55 3691.31,-1231.74 3691.59,-1229.96 3692.07,-1228.2 3692.76,-1226.48 3693.65,-1224.8 3694.76,-1223.15 3696.09,-1221.55 3697.62,-1220.01 3699.36,-1218.51 3701.31,-1217.08 3703.46,-1215.71 3705.8,-1214.4 3708.34,-1213.17 3711.06,-1212.01 3713.95,-1210.92 3717,-1209.92 3720.21,-1208.99 3723.57,-1208.16 3727.05,-1207.41 3730.65,-1206.74 3734.35,-1206.17 3738.13,-1205.7 3741.99,-1205.31 3745.91,-1205.02 3749.87,-1204.83 3753.85,-1204.73 3757.84,-1204.73 3761.83,-1204.83"/>
<text text-anchor="start" x="3726.68" y="-1249.77" font-family="Times,serif" font-size="14.00">C0029246</text>
<text text-anchor="start" x="3720.98" y="-1235.77" font-family="Times,serif" font-size="14.00">organization</text>
<text text-anchor="start" x="3732.9" y="-1221.77" font-family="Times,serif" font-size="14.00">224:224</text>
</g>
<!-- id_27716187_DOT_5&#45;&#45;id_27716187_DOT_19 -->
<g id="edge17" class="edge">
<title>id_27716187_DOT_5&#45;&#45;id_27716187_DOT_19</title>
<path fill="none" stroke="black" stroke-dasharray="1,5" d="M4031.6,-1021.86C3972.67,-1068.47 3854.9,-1161.62 3794.12,-1209.7"/>
<text text-anchor="middle" x="3886.61" y="-1118.58" font-family="Times,serif" font-size="14.00">0.830336</text>
</g>
<!-- id_27716187_DOT_23 -->
<g id="node23" class="node">
<title>id_27716187_DOT_23</title>
<polygon fill="coral" stroke="coral" points="5220.6,-2606.68 5224.03,-2606.87 5227.42,-2607.16 5230.77,-2607.54 5234.05,-2608.02 5237.25,-2608.59 5240.37,-2609.25 5243.38,-2610 5246.29,-2610.84 5249.07,-2611.76 5251.71,-2612.77 5254.22,-2613.85 5256.57,-2615.01 5258.77,-2616.25 5260.8,-2617.55 5262.66,-2618.92 5264.35,-2620.36 5265.86,-2621.85 5267.18,-2623.4 5268.33,-2625 5269.29,-2626.64 5270.07,-2628.33 5270.66,-2630.05 5271.08,-2631.8 5271.32,-2633.59 5271.38,-2635.39 5271.28,-2637.21 5271,-2639.05 5270.57,-2640.89 5269.99,-2642.74 5269.26,-2644.58 5268.39,-2646.42 5267.38,-2648.24 5266.25,-2650.04 5265,-2651.83 5263.64,-2653.58 5262.18,-2655.3 5260.62,-2656.99 5258.97,-2658.63 5257.25,-2660.23 5255.44,-2661.78 5253.57,-2663.27 5251.64,-2664.71 5249.66,-2666.08 5247.63,-2667.38 5245.56,-2668.62 5243.44,-2669.78 5241.3,-2670.86 5239.13,-2671.87 5236.93,-2672.79 5234.72,-2673.63 5232.48,-2674.38 5230.23,-2675.04 5227.97,-2675.61 5225.7,-2676.09 5223.43,-2676.47 5221.14,-2676.76 5218.86,-2676.95 5216.57,-2677.05 5214.28,-2677.05 5211.99,-2676.95 5209.71,-2676.76 5207.42,-2676.47 5205.15,-2676.09 5202.88,-2675.61 5200.62,-2675.04 5198.37,-2674.38 5196.13,-2673.63 5193.92,-2672.79 5191.72,-2671.87 5189.55,-2670.86 5187.4,-2669.78 5185.29,-2668.62 5183.22,-2667.38 5181.19,-2666.08 5179.2,-2664.71 5177.27,-2663.27 5175.41,-2661.78 5173.6,-2660.23 5171.88,-2658.63 5170.23,-2656.99 5168.67,-2655.3 5167.21,-2653.58 5165.85,-2651.83 5164.6,-2650.04 5163.47,-2648.24 5162.46,-2646.42 5161.59,-2644.58 5160.86,-2642.74 5160.27,-2640.89 5159.84,-2639.05 5159.57,-2637.21 5159.47,-2635.39 5159.53,-2633.59 5159.77,-2631.8 5160.19,-2630.05 5160.78,-2628.33 5161.56,-2626.64 5162.52,-2625 5163.67,-2623.4 5164.99,-2621.85 5166.5,-2620.36 5168.19,-2618.92 5170.05,-2617.55 5172.08,-2616.25 5174.28,-2615.01 5176.63,-2613.85 5179.14,-2612.77 5181.78,-2611.76 5184.56,-2610.84 5187.47,-2610 5190.48,-2609.25 5193.6,-2608.59 5196.8,-2608.02 5200.08,-2607.54 5203.43,-2607.16 5206.82,-2606.87 5210.25,-2606.68 5213.7,-2606.58 5217.15,-2606.58 5220.6,-2606.68"/>
<text text-anchor="start" x="5186.26" y="-2651.62" font-family="Times,serif" font-size="14.00">C0949415</text>
<text text-anchor="start" x="5200.26" y="-2637.62" font-family="Times,serif" font-size="14.00">study</text>
<text text-anchor="start" x="5192.48" y="-2623.62" font-family="Times,serif" font-size="14.00">298:298</text>
</g>
<!-- id_27716187_DOT_6&#45;&#45;id_27716187_DOT_23 -->
<g id="edge6" class="edge">
<title>id_27716187_DOT_6&#45;&#45;id_27716187_DOT_23</title>
<path fill="none" stroke="black" d="M4952.38,-2435.51C5007.71,-2478.9 5119.91,-2566.91 5178.28,-2612.68"/>
<text text-anchor="middle" x="5039.08" y="-2526.9" font-family="Times,serif" font-size="14.00">0.003705</text>
</g>
<!-- id_27716187_DOT_15 -->
<g id="node15" class="node">
<title>id_27716187_DOT_15</title>
<polygon fill="bisque" stroke="bisque" points="1869.77,-1827.84 1873.2,-1828.03 1876.59,-1828.32 1879.93,-1828.71 1883.21,-1829.18 1886.42,-1829.75 1889.53,-1830.42 1892.55,-1831.17 1895.45,-1832 1898.23,-1832.93 1900.88,-1833.93 1903.38,-1835.02 1905.74,-1836.18 1907.93,-1837.41 1909.97,-1838.72 1911.83,-1840.09 1913.51,-1841.52 1915.02,-1843.02 1916.35,-1844.56 1917.49,-1846.16 1918.46,-1847.81 1919.23,-1849.49 1919.83,-1851.21 1920.24,-1852.97 1920.48,-1854.75 1920.55,-1856.56 1920.44,-1858.38 1920.17,-1860.21 1919.74,-1862.06 1919.16,-1863.9 1918.43,-1865.75 1917.55,-1867.58 1916.55,-1869.4 1915.42,-1871.21 1914.17,-1872.99 1912.81,-1874.75 1911.35,-1876.47 1909.79,-1878.15 1908.14,-1879.8 1906.41,-1881.4 1904.61,-1882.94 1902.74,-1884.44 1900.81,-1885.87 1898.83,-1887.24 1896.8,-1888.55 1894.72,-1889.78 1892.61,-1890.94 1890.47,-1892.03 1888.29,-1893.03 1886.1,-1893.96 1883.88,-1894.79 1881.65,-1895.54 1879.4,-1896.21 1877.14,-1896.78 1874.87,-1897.25 1872.59,-1897.64 1870.31,-1897.93 1868.02,-1898.12 1865.74,-1898.22 1863.45,-1898.22 1861.16,-1898.12 1858.87,-1897.93 1856.59,-1897.64 1854.31,-1897.25 1852.04,-1896.78 1849.78,-1896.21 1847.53,-1895.54 1845.3,-1894.79 1843.08,-1893.96 1840.89,-1893.03 1838.71,-1892.03 1836.57,-1890.94 1834.46,-1889.78 1832.39,-1888.55 1830.35,-1887.24 1828.37,-1885.87 1826.44,-1884.44 1824.57,-1882.94 1822.77,-1881.4 1821.04,-1879.8 1819.39,-1878.15 1817.83,-1876.47 1816.37,-1874.75 1815.01,-1872.99 1813.76,-1871.21 1812.63,-1869.4 1811.63,-1867.58 1810.76,-1865.75 1810.02,-1863.9 1809.44,-1862.06 1809.01,-1860.21 1808.74,-1858.38 1808.63,-1856.56 1808.7,-1854.75 1808.94,-1852.97 1809.35,-1851.21 1809.95,-1849.49 1810.73,-1847.81 1811.69,-1846.16 1812.83,-1844.56 1814.16,-1843.02 1815.67,-1841.52 1817.35,-1840.09 1819.21,-1838.72 1821.25,-1837.41 1823.44,-1836.18 1825.8,-1835.02 1828.3,-1833.93 1830.95,-1832.93 1833.73,-1832 1836.63,-1831.17 1839.65,-1830.42 1842.76,-1829.75 1845.97,-1829.18 1849.25,-1828.71 1852.59,-1828.32 1855.98,-1828.03 1859.41,-1827.84 1862.86,-1827.74 1866.32,-1827.74 1869.77,-1827.84"/>
<text text-anchor="start" x="1835.42" y="-1872.78" font-family="Times,serif" font-size="14.00">C0442519</text>
<text text-anchor="start" x="1849.04" y="-1858.78" font-family="Times,serif" font-size="14.00">home</text>
<text text-anchor="start" x="1841.65" y="-1844.78" font-family="Times,serif" font-size="14.00">147:147</text>
</g>
<!-- id_27716187_DOT_7&#45;&#45;id_27716187_DOT_15 -->
<g id="edge7" class="edge">
<title>id_27716187_DOT_7&#45;&#45;id_27716187_DOT_15</title>
<path fill="none" stroke="black" d="M1558.97,-1990.03C1629.09,-1960.88 1755.71,-1908.24 1821.81,-1880.76"/>
<text text-anchor="middle" x="1664.14" y="-1938.2" font-family="Times,serif" font-size="14.00">0.008469</text>
</g>
<!-- id_27716187_DOT_8 -->
<g id="node8" class="node">
<title>id_27716187_DOT_8</title>
<polygon fill="brown" stroke="brown" points="2646.68,-2214.24 2650.96,-2214.43 2655.2,-2214.72 2659.39,-2215.1 2663.49,-2215.58 2667.49,-2216.15 2671.39,-2216.81 2675.16,-2217.56 2678.79,-2218.4 2682.27,-2219.32 2685.58,-2220.33 2688.71,-2221.41 2691.65,-2222.57 2694.4,-2223.81 2696.94,-2225.11 2699.27,-2226.48 2701.37,-2227.92 2703.26,-2229.41 2704.92,-2230.96 2706.35,-2232.56 2707.55,-2234.2 2708.53,-2235.89 2709.27,-2237.61 2709.79,-2239.36 2710.09,-2241.15 2710.17,-2242.95 2710.04,-2244.77 2709.7,-2246.61 2709.16,-2248.45 2708.43,-2250.3 2707.52,-2252.14 2706.43,-2253.98 2705.17,-2255.8 2703.76,-2257.6 2702.19,-2259.39 2700.49,-2261.14 2698.66,-2262.86 2696.71,-2264.55 2694.65,-2266.19 2692.49,-2267.79 2690.24,-2269.34 2687.9,-2270.83 2685.49,-2272.27 2683.01,-2273.64 2680.47,-2274.94 2677.88,-2276.18 2675.24,-2277.34 2672.56,-2278.42 2669.84,-2279.43 2667.09,-2280.35 2664.32,-2281.19 2661.53,-2281.94 2658.72,-2282.6 2655.89,-2283.17 2653.05,-2283.65 2650.21,-2284.03 2647.35,-2284.32 2644.49,-2284.51 2641.63,-2284.61 2638.77,-2284.61 2635.91,-2284.51 2633.05,-2284.32 2630.2,-2284.03 2627.35,-2283.65 2624.51,-2283.17 2621.69,-2282.6 2618.87,-2281.94 2616.08,-2281.19 2613.31,-2280.35 2610.56,-2279.43 2607.85,-2278.42 2605.17,-2277.34 2602.53,-2276.18 2599.93,-2274.94 2597.39,-2273.64 2594.91,-2272.27 2592.5,-2270.83 2590.16,-2269.34 2587.91,-2267.79 2585.75,-2266.19 2583.69,-2264.55 2581.74,-2262.86 2579.91,-2261.14 2578.21,-2259.39 2576.65,-2257.6 2575.23,-2255.8 2573.98,-2253.98 2572.89,-2252.14 2571.97,-2250.3 2571.24,-2248.45 2570.71,-2246.61 2570.37,-2244.77 2570.24,-2242.95 2570.32,-2241.15 2570.61,-2239.36 2571.13,-2237.61 2571.88,-2235.89 2572.85,-2234.2 2574.05,-2232.56 2575.48,-2230.96 2577.14,-2229.41 2579.03,-2227.92 2581.14,-2226.48 2583.47,-2225.11 2586.01,-2223.81 2588.75,-2222.57 2591.7,-2221.41 2594.83,-2220.33 2598.14,-2219.32 2601.61,-2218.4 2605.24,-2217.56 2609.01,-2216.81 2612.91,-2216.15 2616.92,-2215.58 2621.02,-2215.1 2625.2,-2214.72 2629.44,-2214.43 2633.73,-2214.24 2638.04,-2214.14 2642.36,-2214.14 2646.68,-2214.24"/>
<text text-anchor="start" x="2611.03" y="-2259.17" font-family="Times,serif" font-size="14.00">C0028688</text>
<text text-anchor="start" x="2601.9" y="-2245.17" font-family="Times,serif" font-size="14.00">nursing home</text>
<text text-anchor="start" x="2624.26" y="-2231.17" font-family="Times,serif" font-size="14.00">65:66</text>
</g>
<!-- id_27716187_DOT_12 -->
<g id="node12" class="node">
<title>id_27716187_DOT_12</title>
<polygon fill="brown" stroke="brown" points="2649.96,-1792.01 2654.47,-1792.21 2658.94,-1792.5 2663.34,-1792.88 2667.66,-1793.36 2671.88,-1793.93 2675.98,-1794.59 2679.95,-1795.34 2683.77,-1796.18 2687.43,-1797.1 2690.92,-1798.11 2694.22,-1799.19 2697.31,-1800.35 2700.21,-1801.59 2702.88,-1802.89 2705.33,-1804.26 2707.55,-1805.7 2709.54,-1807.19 2711.29,-1808.74 2712.79,-1810.34 2714.06,-1811.98 2715.08,-1813.67 2715.87,-1815.39 2716.41,-1817.14 2716.73,-1818.93 2716.81,-1820.73 2716.67,-1822.55 2716.32,-1824.39 2715.75,-1826.23 2714.98,-1828.08 2714.02,-1829.92 2712.87,-1831.75 2711.55,-1833.58 2710.06,-1835.38 2708.42,-1837.16 2706.63,-1838.92 2704.7,-1840.64 2702.65,-1842.33 2700.48,-1843.97 2698.2,-1845.57 2695.83,-1847.12 2693.37,-1848.61 2690.83,-1850.05 2688.22,-1851.42 2685.54,-1852.72 2682.81,-1853.96 2680.03,-1855.12 2677.21,-1856.2 2674.35,-1857.21 2671.46,-1858.13 2668.54,-1858.97 2665.6,-1859.72 2662.64,-1860.38 2659.66,-1860.95 2656.67,-1861.43 2653.68,-1861.81 2650.67,-1862.1 2647.66,-1862.29 2644.65,-1862.39 2641.63,-1862.39 2638.62,-1862.29 2635.61,-1862.1 2632.61,-1861.81 2629.61,-1861.43 2626.62,-1860.95 2623.64,-1860.38 2620.68,-1859.72 2617.74,-1858.97 2614.82,-1858.13 2611.93,-1857.21 2609.07,-1856.2 2606.25,-1855.12 2603.47,-1853.96 2600.74,-1852.72 2598.07,-1851.42 2595.45,-1850.05 2592.91,-1848.61 2590.45,-1847.12 2588.08,-1845.57 2585.8,-1843.97 2583.64,-1842.33 2581.58,-1840.64 2579.66,-1838.92 2577.87,-1837.16 2576.22,-1835.38 2574.73,-1833.58 2573.41,-1831.75 2572.26,-1829.92 2571.3,-1828.08 2570.53,-1826.23 2569.97,-1824.39 2569.61,-1822.55 2569.47,-1820.73 2569.55,-1818.93 2569.87,-1817.14 2570.41,-1815.39 2571.2,-1813.67 2572.22,-1811.98 2573.49,-1810.34 2575,-1808.74 2576.74,-1807.19 2578.73,-1805.7 2580.95,-1804.26 2583.4,-1802.89 2586.07,-1801.59 2588.97,-1800.35 2592.07,-1799.19 2595.36,-1798.11 2598.85,-1797.1 2602.51,-1796.18 2606.33,-1795.34 2610.3,-1794.59 2614.4,-1793.93 2618.62,-1793.36 2622.94,-1792.88 2627.34,-1792.5 2631.81,-1792.21 2636.32,-1792.01 2640.86,-1791.92 2645.42,-1791.92 2649.96,-1792.01"/>
<text text-anchor="start" x="2613.97" y="-1836.95" font-family="Times,serif" font-size="14.00">C0028688</text>
<text text-anchor="start" x="2602.11" y="-1822.95" font-family="Times,serif" font-size="14.00">nursing homes</text>
<text text-anchor="start" x="2620.2" y="-1808.95" font-family="Times,serif" font-size="14.00">102:103</text>
</g>
<!-- id_27716187_DOT_8&#45;&#45;id_27716187_DOT_12 -->
<g id="edge8" class="edge">
<title>id_27716187_DOT_8&#45;&#45;id_27716187_DOT_12</title>
<path fill="none" stroke="black" d="M2640.45,-2214.1C2641,-2134.63 2642.34,-1942.28 2642.89,-1862.62"/>
<text text-anchor="middle" x="2615.42" y="-2041.16" font-family="Times,serif" font-size="14.00">0.003290</text>
</g>
<!-- id_27716187_DOT_9 -->
<g id="node9" class="node">
<title>id_27716187_DOT_9</title>
<polygon fill="blue" stroke="blue" points="3277.57,-76.36 3282.94,-76.55 3288.26,-76.84 3293.5,-77.23 3298.65,-77.7 3303.67,-78.27 3308.56,-78.93 3313.28,-79.69 3317.83,-80.52 3322.19,-81.45 3326.34,-82.45 3330.27,-83.54 3333.96,-84.7 3337.4,-85.93 3340.59,-87.24 3343.5,-88.61 3346.15,-90.04 3348.51,-91.53 3350.59,-93.08 3352.39,-94.68 3353.9,-96.32 3355.12,-98.01 3356.05,-99.73 3356.7,-101.49 3357.07,-103.27 3357.17,-105.08 3357.01,-106.9 3356.58,-108.73 3355.91,-110.58 3355,-112.42 3353.85,-114.26 3352.48,-116.1 3350.91,-117.92 3349.14,-119.73 3347.18,-121.51 3345.05,-123.26 3342.75,-124.99 3340.31,-126.67 3337.72,-128.32 3335.01,-129.92 3332.19,-131.46 3329.26,-132.96 3326.23,-134.39 3323.12,-135.76 3319.94,-137.07 3316.69,-138.3 3313.38,-139.46 3310.02,-140.55 3306.61,-141.55 3303.17,-142.48 3299.69,-143.31 3296.19,-144.06 3292.67,-144.72 3289.12,-145.29 3285.56,-145.77 3281.99,-146.16 3278.42,-146.44 3274.83,-146.64 3271.24,-146.73 3267.65,-146.73 3264.07,-146.64 3260.48,-146.44 3256.9,-146.16 3253.33,-145.77 3249.78,-145.29 3246.23,-144.72 3242.71,-144.06 3239.21,-143.31 3235.73,-142.48 3232.29,-141.55 3228.88,-140.55 3225.52,-139.46 3222.21,-138.3 3218.96,-137.07 3215.77,-135.76 3212.67,-134.39 3209.64,-132.96 3206.71,-131.46 3203.88,-129.92 3201.18,-128.32 3198.59,-126.67 3196.15,-124.99 3193.85,-123.26 3191.72,-121.51 3189.76,-119.73 3187.99,-117.92 3186.42,-116.1 3185.05,-114.26 3183.9,-112.42 3182.99,-110.58 3182.31,-108.73 3181.89,-106.9 3181.72,-105.08 3181.82,-103.27 3182.2,-101.49 3182.85,-99.73 3183.78,-98.01 3185,-96.32 3186.51,-94.68 3188.3,-93.08 3190.39,-91.53 3192.75,-90.04 3195.39,-88.61 3198.31,-87.24 3201.5,-85.93 3204.94,-84.7 3208.63,-83.54 3212.56,-82.45 3216.71,-81.45 3221.07,-80.52 3225.62,-79.69 3230.34,-78.93 3235.23,-78.27 3240.25,-77.7 3245.4,-77.23 3250.64,-76.84 3255.96,-76.55 3261.33,-76.36 3266.74,-76.26 3272.16,-76.26 3277.57,-76.36"/>
<text text-anchor="start" x="3240.28" y="-121.3" font-family="Times,serif" font-size="14.00">C0018724</text>
<text text-anchor="start" x="3219.11" y="-107.3" font-family="Times,serif" font-size="14.00">care professionals</text>
<text text-anchor="start" x="3253.5" y="-93.3" font-family="Times,serif" font-size="14.00">75:76</text>
</g>
<!-- id_27716187_DOT_9&#45;&#45;id_27716187_DOT_11 -->
<g id="edge9" class="edge">
<title>id_27716187_DOT_9&#45;&#45;id_27716187_DOT_11</title>
<path fill="none" stroke="black" d="M3299.29,-143.48C3350.97,-198.87 3456.64,-312.12 3509.49,-368.76"/>
<text text-anchor="middle" x="3378.14" y="-258.92" font-family="Times,serif" font-size="14.00">0.002520</text>
</g>
<!-- id_27716187_DOT_10 -->
<g id="node10" class="node">
<title>id_27716187_DOT_10</title>
<polygon fill="cadetblue" stroke="cadetblue" points="3385.21,-1414.16 3388.97,-1414.35 3392.7,-1414.64 3396.37,-1415.03 3399.98,-1415.5 3403.5,-1416.08 3406.92,-1416.74 3410.23,-1417.49 3413.42,-1418.32 3416.47,-1419.25 3419.38,-1420.25 3422.13,-1421.34 3424.72,-1422.5 3427.13,-1423.73 3429.36,-1425.04 3431.4,-1426.41 3433.26,-1427.84 3434.91,-1429.34 3436.37,-1430.88 3437.63,-1432.48 3438.68,-1434.13 3439.54,-1435.81 3440.19,-1437.53 3440.65,-1439.29 3440.91,-1441.07 3440.98,-1442.88 3440.86,-1444.7 3440.57,-1446.54 3440.09,-1448.38 3439.45,-1450.22 3438.65,-1452.07 3437.69,-1453.9 3436.59,-1455.72 3435.35,-1457.53 3433.98,-1459.31 3432.48,-1461.07 3430.87,-1462.79 3429.16,-1464.48 3427.35,-1466.12 3425.45,-1467.72 3423.48,-1469.27 3421.42,-1470.76 3419.3,-1472.19 3417.12,-1473.56 3414.89,-1474.87 3412.62,-1476.1 3410.3,-1477.26 3407.94,-1478.35 3405.56,-1479.35 3403.14,-1480.28 3400.71,-1481.11 3398.26,-1481.87 3395.79,-1482.53 3393.3,-1483.1 3390.81,-1483.57 3388.31,-1483.96 3385.8,-1484.25 3383.29,-1484.44 3380.78,-1484.54 3378.26,-1484.54 3375.75,-1484.44 3373.24,-1484.25 3370.73,-1483.96 3368.23,-1483.57 3365.74,-1483.1 3363.26,-1482.53 3360.79,-1481.87 3358.33,-1481.11 3355.9,-1480.28 3353.49,-1479.35 3351.1,-1478.35 3348.75,-1477.26 3346.43,-1476.1 3344.15,-1474.87 3341.92,-1473.56 3339.74,-1472.19 3337.62,-1470.76 3335.57,-1469.27 3333.59,-1467.72 3331.69,-1466.12 3329.88,-1464.48 3328.17,-1462.79 3326.56,-1461.07 3325.07,-1459.31 3323.7,-1457.53 3322.45,-1455.72 3321.35,-1453.9 3320.39,-1452.07 3319.59,-1450.22 3318.95,-1448.38 3318.48,-1446.54 3318.18,-1444.7 3318.06,-1442.88 3318.13,-1441.07 3318.39,-1439.29 3318.85,-1437.53 3319.51,-1435.81 3320.36,-1434.13 3321.42,-1432.48 3322.67,-1430.88 3324.13,-1429.34 3325.79,-1427.84 3327.64,-1426.41 3329.68,-1425.04 3331.92,-1423.73 3334.33,-1422.5 3336.91,-1421.34 3339.66,-1420.25 3342.57,-1419.25 3345.62,-1418.32 3348.81,-1417.49 3352.12,-1416.74 3355.55,-1416.08 3359.07,-1415.5 3362.67,-1415.03 3366.34,-1414.64 3370.07,-1414.35 3373.83,-1414.16 3377.62,-1414.07 3381.42,-1414.07 3385.21,-1414.16"/>
<text text-anchor="start" x="3350.35" y="-1459.1" font-family="Times,serif" font-size="14.00">C0679646</text>
<text text-anchor="start" x="3346.87" y="-1445.1" font-family="Times,serif" font-size="14.00">participants</text>
<text text-anchor="start" x="3363.58" y="-1431.1" font-family="Times,serif" font-size="14.00">82:82</text>
</g>
<!-- id_27716187_DOT_10&#45;&#45;id_27716187_DOT_19 -->
<g id="edge18" class="edge">
<title>id_27716187_DOT_10&#45;&#45;id_27716187_DOT_19</title>
<path fill="none" stroke="black" stroke-dasharray="1,5" d="M3426.42,-1423.21C3500.51,-1382 3643.44,-1302.5 3714.15,-1263.17"/>
<text text-anchor="middle" x="3544.04" y="-1345.99" font-family="Times,serif" font-size="14.00">0.880522</text>
</g>
<!-- id_27716187_DOT_26 -->
<g id="node26" class="node">
<title>id_27716187_DOT_26</title>
<polygon fill="darkkhaki" stroke="darkkhaki" points="3044.06,-1658.06 3047.48,-1658.25 3050.88,-1658.54 3054.22,-1658.93 3057.5,-1659.4 3060.71,-1659.97 3063.82,-1660.64 3066.84,-1661.39 3069.74,-1662.22 3072.52,-1663.15 3075.17,-1664.15 3077.67,-1665.24 3080.03,-1666.4 3082.22,-1667.63 3084.25,-1668.94 3086.11,-1670.31 3087.8,-1671.74 3089.31,-1673.24 3090.64,-1674.78 3091.78,-1676.38 3092.74,-1678.03 3093.52,-1679.71 3094.12,-1681.43 3094.53,-1683.19 3094.77,-1684.97 3094.83,-1686.78 3094.73,-1688.6 3094.46,-1690.43 3094.03,-1692.28 3093.44,-1694.12 3092.71,-1695.97 3091.84,-1697.8 3090.84,-1699.62 3089.71,-1701.43 3088.46,-1703.21 3087.1,-1704.97 3085.63,-1706.69 3084.07,-1708.37 3082.43,-1710.02 3080.7,-1711.62 3078.9,-1713.16 3077.03,-1714.66 3075.1,-1716.09 3073.11,-1717.46 3071.08,-1718.77 3069.01,-1720 3066.9,-1721.16 3064.75,-1722.25 3062.58,-1723.25 3060.39,-1724.18 3058.17,-1725.01 3055.93,-1725.76 3053.69,-1726.43 3051.43,-1727 3049.16,-1727.47 3046.88,-1727.86 3044.6,-1728.15 3042.31,-1728.34 3040.02,-1728.44 3037.73,-1728.44 3035.44,-1728.34 3033.16,-1728.15 3030.88,-1727.86 3028.6,-1727.47 3026.33,-1727 3024.07,-1726.43 3021.82,-1725.76 3019.59,-1725.01 3017.37,-1724.18 3015.17,-1723.25 3013,-1722.25 3010.86,-1721.16 3008.75,-1720 3006.67,-1718.77 3004.64,-1717.46 3002.66,-1716.09 3000.73,-1714.66 2998.86,-1713.16 2997.06,-1711.62 2995.33,-1710.02 2993.68,-1708.37 2992.12,-1706.69 2990.66,-1704.97 2989.3,-1703.21 2988.05,-1701.43 2986.92,-1699.62 2985.91,-1697.8 2985.04,-1695.97 2984.31,-1694.12 2983.73,-1692.28 2983.3,-1690.43 2983.03,-1688.6 2982.92,-1686.78 2982.99,-1684.97 2983.22,-1683.19 2983.64,-1681.43 2984.23,-1679.71 2985.01,-1678.03 2985.97,-1676.38 2987.12,-1674.78 2988.45,-1673.24 2989.95,-1671.74 2991.64,-1670.31 2993.5,-1668.94 2995.53,-1667.63 2997.73,-1666.4 3000.08,-1665.24 3002.59,-1664.15 3005.24,-1663.15 3008.02,-1662.22 3010.92,-1661.39 3013.93,-1660.64 3017.05,-1659.97 3020.25,-1659.4 3023.54,-1658.93 3026.88,-1658.54 3030.27,-1658.25 3033.7,-1658.06 3037.15,-1657.96 3040.61,-1657.96 3044.06,-1658.06"/>
<text text-anchor="start" x="3009.71" y="-1703" font-family="Times,serif" font-size="14.00">C0442504</text>
<text text-anchor="start" x="3024.11" y="-1689" font-family="Times,serif" font-size="14.00">place</text>
<text text-anchor="start" x="3015.93" y="-1675" font-family="Times,serif" font-size="14.00">316:316</text>
</g>
<!-- id_27716187_DOT_10&#45;&#45;id_27716187_DOT_26 -->
<g id="edge19" class="edge">
<title>id_27716187_DOT_10&#45;&#45;id_27716187_DOT_26</title>
<path fill="none" stroke="black" stroke-dasharray="1,5" d="M3343.71,-1474.94C3279.31,-1521.05 3144.48,-1617.59 3077.85,-1665.3"/>
<text text-anchor="middle" x="3184.53" y="-1572.92" font-family="Times,serif" font-size="14.00">0.847853</text>
</g>
<!-- id_27716187_DOT_18 -->
<g id="node18" class="node">
<title>id_27716187_DOT_18</title>
<polygon fill="blue" stroke="blue" points="3610.44,-789.86 3615.82,-790.06 3621.13,-790.35 3626.38,-790.73 3631.52,-791.21 3636.54,-791.78 3641.43,-792.44 3646.16,-793.19 3650.71,-794.03 3655.07,-794.95 3659.22,-795.95 3663.14,-797.04 3666.83,-798.2 3670.28,-799.43 3673.46,-800.74 3676.38,-802.11 3679.02,-803.55 3681.39,-805.04 3683.47,-806.59 3685.26,-808.18 3686.77,-809.83 3687.99,-811.51 3688.92,-813.24 3689.57,-814.99 3689.95,-816.77 3690.05,-818.58 3689.88,-820.4 3689.46,-822.24 3688.78,-824.08 3687.87,-825.93 3686.72,-827.77 3685.36,-829.6 3683.78,-831.43 3682.01,-833.23 3680.05,-835.01 3677.92,-836.77 3675.62,-838.49 3673.18,-840.18 3670.6,-841.82 3667.89,-843.42 3665.06,-844.97 3662.13,-846.46 3659.11,-847.89 3656,-849.27 3652.81,-850.57 3649.56,-851.8 3646.25,-852.97 3642.89,-854.05 3639.48,-855.06 3636.04,-855.98 3632.57,-856.82 3629.06,-857.57 3625.54,-858.23 3622,-858.8 3618.44,-859.28 3614.87,-859.66 3611.29,-859.95 3607.71,-860.14 3604.12,-860.24 3600.53,-860.24 3596.94,-860.14 3593.36,-859.95 3589.78,-859.66 3586.21,-859.28 3582.65,-858.8 3579.11,-858.23 3575.58,-857.57 3572.08,-856.82 3568.6,-855.98 3565.16,-855.06 3561.76,-854.05 3558.39,-852.97 3555.08,-851.8 3551.83,-850.57 3548.65,-849.27 3545.54,-847.89 3542.51,-846.46 3539.58,-844.97 3536.76,-843.42 3534.05,-841.82 3531.47,-840.18 3529.02,-838.49 3526.73,-836.77 3524.59,-835.01 3522.64,-833.23 3520.86,-831.43 3519.29,-829.6 3517.92,-827.77 3516.78,-825.93 3515.86,-824.08 3515.19,-822.24 3514.76,-820.4 3514.6,-818.58 3514.7,-816.77 3515.07,-814.99 3515.72,-813.24 3516.66,-811.51 3517.88,-809.83 3519.38,-808.18 3521.18,-806.59 3523.26,-805.04 3525.62,-803.55 3528.27,-802.11 3531.19,-800.74 3534.37,-799.43 3537.81,-798.2 3541.5,-797.04 3545.43,-795.95 3549.58,-794.95 3553.94,-794.03 3558.49,-793.19 3563.22,-792.44 3568.1,-791.78 3573.13,-791.21 3578.27,-790.73 3583.51,-790.35 3588.83,-790.06 3594.21,-789.86 3599.61,-789.77 3605.03,-789.77 3610.44,-789.86"/>
<text text-anchor="start" x="3573.15" y="-834.8" font-family="Times,serif" font-size="14.00">C0018724</text>
<text text-anchor="start" x="3551.98" y="-820.8" font-family="Times,serif" font-size="14.00">care professionals</text>
<text text-anchor="start" x="3579.38" y="-806.8" font-family="Times,serif" font-size="14.00">218:219</text>
</g>
<!-- id_27716187_DOT_11&#45;&#45;id_27716187_DOT_18 -->
<g id="edge10" class="edge">
<title>id_27716187_DOT_11&#45;&#45;id_27716187_DOT_18</title>
<path fill="none" stroke="black" d="M3546.17,-437.88C3557.7,-517.39 3585.62,-709.82 3597.18,-789.52"/>
<text text-anchor="middle" x="3545.42" y="-616.5" font-family="Times,serif" font-size="14.00">0.026618</text>
</g>
<!-- id_27716187_DOT_24 -->
<g id="node24" class="node">
<title>id_27716187_DOT_24</title>
<polygon fill="brown" stroke="brown" points="2249.43,-1736.7 2253.72,-1736.89 2257.96,-1737.18 2262.14,-1737.56 2266.24,-1738.04 2270.25,-1738.61 2274.15,-1739.27 2277.92,-1740.02 2281.55,-1740.86 2285.02,-1741.78 2288.33,-1742.79 2291.46,-1743.87 2294.41,-1745.03 2297.15,-1746.27 2299.69,-1747.57 2302.02,-1748.94 2304.13,-1750.38 2306.02,-1751.87 2307.68,-1753.42 2309.11,-1755.02 2310.31,-1756.66 2311.28,-1758.35 2312.03,-1760.07 2312.55,-1761.82 2312.84,-1763.61 2312.92,-1765.41 2312.79,-1767.23 2312.45,-1769.07 2311.92,-1770.91 2311.19,-1772.76 2310.27,-1774.6 2309.18,-1776.44 2307.93,-1778.26 2306.51,-1780.06 2304.95,-1781.85 2303.25,-1783.6 2301.42,-1785.32 2299.47,-1787.01 2297.41,-1788.65 2295.25,-1790.25 2293,-1791.8 2290.66,-1793.29 2288.25,-1794.73 2285.77,-1796.1 2283.23,-1797.4 2280.63,-1798.64 2277.99,-1799.8 2275.31,-1800.88 2272.6,-1801.89 2269.85,-1802.81 2267.08,-1803.65 2264.29,-1804.4 2261.47,-1805.06 2258.65,-1805.63 2255.81,-1806.11 2252.96,-1806.49 2250.11,-1806.78 2247.25,-1806.97 2244.39,-1807.07 2241.53,-1807.07 2238.66,-1806.97 2235.81,-1806.78 2232.95,-1806.49 2230.11,-1806.11 2227.27,-1805.63 2224.44,-1805.06 2221.63,-1804.4 2218.84,-1803.65 2216.07,-1802.81 2213.32,-1801.89 2210.6,-1800.88 2207.92,-1799.8 2205.28,-1798.64 2202.69,-1797.4 2200.15,-1796.1 2197.67,-1794.73 2195.26,-1793.29 2192.92,-1791.8 2190.67,-1790.25 2188.5,-1788.65 2186.44,-1787.01 2184.5,-1785.32 2182.67,-1783.6 2180.97,-1781.85 2179.4,-1780.06 2177.99,-1778.26 2176.73,-1776.44 2175.64,-1774.6 2174.73,-1772.76 2174,-1770.91 2173.46,-1769.07 2173.12,-1767.23 2172.99,-1765.41 2173.07,-1763.61 2173.37,-1761.82 2173.89,-1760.07 2174.63,-1758.35 2175.61,-1756.66 2176.81,-1755.02 2178.24,-1753.42 2179.9,-1751.87 2181.79,-1750.38 2183.89,-1748.94 2186.22,-1747.57 2188.76,-1746.27 2191.51,-1745.03 2194.45,-1743.87 2197.58,-1742.79 2200.89,-1741.78 2204.37,-1740.86 2208,-1740.02 2211.77,-1739.27 2215.66,-1738.61 2219.67,-1738.04 2223.77,-1737.56 2227.95,-1737.18 2232.2,-1736.89 2236.48,-1736.7 2240.8,-1736.6 2245.12,-1736.6 2249.43,-1736.7"/>
<text text-anchor="start" x="2213.79" y="-1781.64" font-family="Times,serif" font-size="14.00">C0028688</text>
<text text-anchor="start" x="2204.66" y="-1767.64" font-family="Times,serif" font-size="14.00">nursing home</text>
<text text-anchor="start" x="2220.01" y="-1753.64" font-family="Times,serif" font-size="14.00">303:304</text>
</g>
<!-- id_27716187_DOT_12&#45;&#45;id_27716187_DOT_24 -->
<g id="edge11" class="edge">
<title>id_27716187_DOT_12&#45;&#45;id_27716187_DOT_24</title>
<path fill="none" stroke="black" d="M2569.74,-1817.01C2494.26,-1806.57 2377.93,-1790.49 2306.34,-1780.6"/>
<text text-anchor="middle" x="2411.79" y="-1801.6" font-family="Times,serif" font-size="14.00">0.010841</text>
</g>
<!-- id_27716187_DOT_12&#45;&#45;id_27716187_DOT_26 -->
<g id="edge20" class="edge">
<title>id_27716187_DOT_12&#45;&#45;id_27716187_DOT_26</title>
<path fill="none" stroke="black" stroke-dasharray="1,5" d="M2707.6,-1805.33C2787.98,-1778.13 2923.34,-1732.31 2993.56,-1708.54"/>
<text text-anchor="middle" x="2824.33" y="-1759.74" font-family="Times,serif" font-size="14.00">0.799901</text>
</g>
<!-- id_27716187_DOT_13 -->
<g id="node13" class="node">
<title>id_27716187_DOT_13</title>
<polygon fill="chartreuse" stroke="chartreuse" points="4670.24,-419.28 4674.1,-419.48 4677.92,-419.77 4681.68,-420.15 4685.37,-420.63 4688.98,-421.2 4692.48,-421.86 4695.88,-422.61 4699.14,-423.45 4702.27,-424.37 4705.25,-425.37 4708.07,-426.46 4710.72,-427.62 4713.19,-428.85 4715.47,-430.16 4717.57,-431.53 4719.47,-432.97 4721.16,-434.46 4722.66,-436.01 4723.95,-437.6 4725.03,-439.25 4725.9,-440.93 4726.57,-442.66 4727.04,-444.41 4727.31,-446.19 4727.38,-448 4727.26,-449.82 4726.96,-451.66 4726.47,-453.5 4725.82,-455.35 4724.99,-457.19 4724.01,-459.02 4722.88,-460.85 4721.61,-462.65 4720.2,-464.43 4718.67,-466.19 4717.03,-467.91 4715.27,-469.6 4713.42,-471.24 4711.47,-472.84 4709.45,-474.39 4707.34,-475.88 4705.17,-477.31 4702.94,-478.69 4700.65,-479.99 4698.32,-481.22 4695.94,-482.39 4693.53,-483.47 4691.09,-484.48 4688.62,-485.4 4686.12,-486.24 4683.61,-486.99 4681.08,-487.65 4678.53,-488.22 4675.98,-488.7 4673.42,-489.08 4670.85,-489.37 4668.28,-489.56 4665.7,-489.66 4663.12,-489.66 4660.55,-489.56 4657.98,-489.37 4655.41,-489.08 4652.85,-488.7 4650.29,-488.22 4647.75,-487.65 4645.22,-486.99 4642.7,-486.24 4640.21,-485.4 4637.74,-484.48 4635.29,-483.47 4632.88,-482.39 4630.51,-481.22 4628.17,-479.99 4625.89,-478.69 4623.65,-477.31 4621.48,-475.88 4619.38,-474.39 4617.35,-472.84 4615.41,-471.24 4613.55,-469.6 4611.8,-467.91 4610.15,-466.19 4608.62,-464.43 4607.21,-462.65 4605.94,-460.85 4604.81,-459.02 4603.83,-457.19 4603.01,-455.35 4602.35,-453.5 4601.87,-451.66 4601.56,-449.82 4601.44,-448 4601.52,-446.19 4601.78,-444.41 4602.25,-442.66 4602.92,-440.93 4603.8,-439.25 4604.88,-437.6 4606.17,-436.01 4607.66,-434.46 4609.36,-432.97 4611.26,-431.53 4613.35,-430.16 4615.64,-428.85 4618.11,-427.62 4620.76,-426.46 4623.58,-425.37 4626.55,-424.37 4629.68,-423.45 4632.95,-422.61 4636.34,-421.86 4639.85,-421.2 4643.46,-420.63 4647.15,-420.15 4650.91,-419.77 4654.73,-419.48 4658.59,-419.28 4662.47,-419.19 4666.36,-419.19 4670.24,-419.28"/>
<text text-anchor="start" x="4635.24" y="-464.22" font-family="Times,serif" font-size="14.00">C0027778</text>
<text text-anchor="start" x="4630.59" y="-450.22" font-family="Times,serif" font-size="14.00">Netherlands</text>
<text text-anchor="start" x="4641.47" y="-436.22" font-family="Times,serif" font-size="14.00">106:106</text>
</g>
<!-- id_27716187_DOT_13&#45;&#45;id_27716187_DOT_17 -->
<g id="edge21" class="edge">
<title>id_27716187_DOT_13&#45;&#45;id_27716187_DOT_17</title>
<path fill="none" stroke="black" stroke-dasharray="1,5" d="M4633.8,-482.81C4579.1,-533.54 4465.07,-639.3 4408.73,-691.54"/>
<text text-anchor="middle" x="4495.02" y="-589.98" font-family="Times,serif" font-size="14.00">0.801751</text>
</g>
<!-- id_27716187_DOT_16 -->
<g id="node16" class="node">
<title>id_27716187_DOT_16</title>
<polygon fill="cornflowerblue" stroke="cornflowerblue" points="4089.15,-1513.8 4093.61,-1513.99 4098.03,-1514.28 4102.38,-1514.66 4106.65,-1515.14 4110.83,-1515.71 4114.88,-1516.37 4118.81,-1517.12 4122.59,-1517.96 4126.21,-1518.88 4129.66,-1519.89 4132.92,-1520.97 4135.98,-1522.13 4138.84,-1523.37 4141.49,-1524.67 4143.91,-1526.04 4146.11,-1527.48 4148.07,-1528.97 4149.8,-1530.52 4151.29,-1532.12 4152.54,-1533.76 4153.55,-1535.45 4154.33,-1537.17 4154.87,-1538.93 4155.18,-1540.71 4155.26,-1542.51 4155.13,-1544.34 4154.77,-1546.17 4154.21,-1548.01 4153.45,-1549.86 4152.5,-1551.7 4151.37,-1553.54 4150.06,-1555.36 4148.59,-1557.16 4146.96,-1558.95 4145.19,-1560.7 4143.28,-1562.43 4141.25,-1564.11 4139.11,-1565.76 4136.86,-1567.35 4134.51,-1568.9 4132.08,-1570.39 4129.57,-1571.83 4126.98,-1573.2 4124.34,-1574.5 4121.64,-1575.74 4118.89,-1576.9 4116.1,-1577.98 4113.27,-1578.99 4110.41,-1579.91 4107.52,-1580.75 4104.61,-1581.5 4101.69,-1582.16 4098.74,-1582.73 4095.79,-1583.21 4092.82,-1583.59 4089.85,-1583.88 4086.87,-1584.08 4083.9,-1584.17 4080.91,-1584.17 4077.93,-1584.08 4074.96,-1583.88 4071.99,-1583.59 4069.02,-1583.21 4066.07,-1582.73 4063.12,-1582.16 4060.2,-1581.5 4057.29,-1580.75 4054.4,-1579.91 4051.54,-1578.99 4048.71,-1577.98 4045.92,-1576.9 4043.17,-1575.74 4040.47,-1574.5 4037.83,-1573.2 4035.24,-1571.83 4032.73,-1570.39 4030.3,-1568.9 4027.95,-1567.35 4025.7,-1565.76 4023.56,-1564.11 4021.53,-1562.43 4019.62,-1560.7 4017.85,-1558.95 4016.22,-1557.16 4014.75,-1555.36 4013.44,-1553.54 4012.31,-1551.7 4011.36,-1549.86 4010.6,-1548.01 4010.04,-1546.17 4009.68,-1544.34 4009.55,-1542.51 4009.63,-1540.71 4009.94,-1538.93 4010.48,-1537.17 4011.26,-1535.45 4012.27,-1533.76 4013.52,-1532.12 4015.01,-1530.52 4016.74,-1528.97 4018.7,-1527.48 4020.9,-1526.04 4023.32,-1524.67 4025.97,-1523.37 4028.83,-1522.13 4031.89,-1520.97 4035.15,-1519.89 4038.6,-1518.88 4042.22,-1517.96 4046,-1517.12 4049.93,-1516.37 4053.98,-1515.71 4058.16,-1515.14 4062.43,-1514.66 4066.78,-1514.28 4071.2,-1513.99 4075.66,-1513.8 4080.15,-1513.7 4084.66,-1513.7 4089.15,-1513.8"/>
<text text-anchor="start" x="4053.24" y="-1558.74" font-family="Times,serif" font-size="14.00">C0034379</text>
<text text-anchor="start" x="4041.98" y="-1544.74" font-family="Times,serif" font-size="14.00">quality of care</text>
<text text-anchor="start" x="4059.46" y="-1530.74" font-family="Times,serif" font-size="14.00">187:189</text>
</g>
<!-- id_27716187_DOT_14&#45;&#45;id_27716187_DOT_16 -->
<g id="edge22" class="edge">
<title>id_27716187_DOT_14&#45;&#45;id_27716187_DOT_16</title>
<path fill="none" stroke="black" stroke-dasharray="1,5" d="M4393.56,-1753C4322.78,-1706.58 4189.68,-1619.29 4122.85,-1575.46"/>
<text text-anchor="middle" x="4231.96" y="-1667.03" font-family="Times,serif" font-size="14.00">0.388026</text>
</g>
<!-- id_27716187_DOT_27 -->
<g id="node27" class="node">
<title>id_27716187_DOT_27</title>
<polygon fill="darkmagenta" stroke="darkmagenta" points="4823.51,-1591.93 4826.93,-1592.12 4830.33,-1592.41 4833.67,-1592.79 4836.95,-1593.27 4840.16,-1593.84 4843.27,-1594.5 4846.29,-1595.25 4849.19,-1596.09 4851.97,-1597.01 4854.62,-1598.02 4857.12,-1599.1 4859.48,-1600.26 4861.67,-1601.5 4863.7,-1602.8 4865.56,-1604.17 4867.25,-1605.61 4868.76,-1607.1 4870.09,-1608.65 4871.23,-1610.25 4872.19,-1611.89 4872.97,-1613.58 4873.57,-1615.3 4873.98,-1617.05 4874.22,-1618.84 4874.28,-1620.64 4874.18,-1622.46 4873.91,-1624.3 4873.48,-1626.14 4872.89,-1627.99 4872.16,-1629.83 4871.29,-1631.67 4870.29,-1633.49 4869.16,-1635.29 4867.91,-1637.08 4866.55,-1638.83 4865.08,-1640.55 4863.52,-1642.24 4861.88,-1643.88 4860.15,-1645.48 4858.35,-1647.03 4856.48,-1648.52 4854.55,-1649.96 4852.56,-1651.33 4850.53,-1652.63 4848.46,-1653.87 4846.35,-1655.03 4844.2,-1656.11 4842.03,-1657.12 4839.84,-1658.04 4837.62,-1658.88 4835.38,-1659.63 4833.14,-1660.29 4830.88,-1660.86 4828.61,-1661.34 4826.33,-1661.72 4824.05,-1662.01 4821.76,-1662.2 4819.47,-1662.3 4817.18,-1662.3 4814.89,-1662.2 4812.61,-1662.01 4810.33,-1661.72 4808.05,-1661.34 4805.78,-1660.86 4803.52,-1660.29 4801.27,-1659.63 4799.04,-1658.88 4796.82,-1658.04 4794.62,-1657.12 4792.45,-1656.11 4790.31,-1655.03 4788.2,-1653.87 4786.12,-1652.63 4784.09,-1651.33 4782.11,-1649.96 4780.18,-1648.52 4778.31,-1647.03 4776.51,-1645.48 4774.78,-1643.88 4773.13,-1642.24 4771.57,-1640.55 4770.11,-1638.83 4768.75,-1637.08 4767.5,-1635.29 4766.37,-1633.49 4765.36,-1631.67 4764.49,-1629.83 4763.76,-1627.99 4763.18,-1626.14 4762.75,-1624.3 4762.48,-1622.46 4762.37,-1620.64 4762.44,-1618.84 4762.67,-1617.05 4763.09,-1615.3 4763.68,-1613.58 4764.46,-1611.89 4765.42,-1610.25 4766.57,-1608.65 4767.9,-1607.1 4769.4,-1605.61 4771.09,-1604.17 4772.95,-1602.8 4774.98,-1601.5 4777.18,-1600.26 4779.53,-1599.1 4782.04,-1598.02 4784.69,-1597.01 4787.47,-1596.09 4790.37,-1595.25 4793.38,-1594.5 4796.5,-1593.84 4799.7,-1593.27 4802.98,-1592.79 4806.33,-1592.41 4809.72,-1592.12 4813.15,-1591.93 4816.6,-1591.83 4820.06,-1591.83 4823.51,-1591.93"/>
<text text-anchor="start" x="4789.16" y="-1636.86" font-family="Times,serif" font-size="14.00">C0027361</text>
<text text-anchor="start" x="4799.67" y="-1622.86" font-family="Times,serif" font-size="14.00">people</text>
<text text-anchor="start" x="4795.38" y="-1608.86" font-family="Times,serif" font-size="14.00">318:318</text>
</g>
<!-- id_27716187_DOT_14&#45;&#45;id_27716187_DOT_27 -->
<g id="edge23" class="edge">
<title>id_27716187_DOT_14&#45;&#45;id_27716187_DOT_27</title>
<path fill="none" stroke="black" stroke-dasharray="1,5" d="M4503.2,-1757.65C4580.34,-1725.68 4709.1,-1672.33 4775.63,-1644.76"/>
<text text-anchor="middle" x="4613.16" y="-1704" font-family="Times,serif" font-size="14.00">0.888708</text>
</g>
<!-- id_27716187_DOT_15&#45;&#45;id_27716187_DOT_24 -->
<g id="edge12" class="edge">
<title>id_27716187_DOT_15&#45;&#45;id_27716187_DOT_24</title>
<path fill="none" stroke="black" d="M1919.61,-1849.73C1990.32,-1832.69 2112.55,-1803.25 2184.77,-1785.85"/>
<text text-anchor="middle" x="2025.94" y="-1820.59" font-family="Times,serif" font-size="14.00">0.061910</text>
</g>
<!-- id_27716187_DOT_16&#45;&#45;id_27716187_DOT_19 -->
<g id="edge24" class="edge">
<title>id_27716187_DOT_16&#45;&#45;id_27716187_DOT_19</title>
<path fill="none" stroke="black" stroke-dasharray="1,5" d="M4048.07,-1516.46C3984.05,-1455.88 3847.39,-1326.58 3786.37,-1268.85"/>
<text text-anchor="middle" x="3890.97" y="-1395.45" font-family="Times,serif" font-size="14.00">0.686545</text>
</g>
<!-- id_27716187_DOT_18&#45;&#45;id_27716187_DOT_19 -->
<g id="edge25" class="edge">
<title>id_27716187_DOT_18&#45;&#45;id_27716187_DOT_19</title>
<path fill="none" stroke="black" stroke-dasharray="1,5" d="M3615.15,-859.67C3644.05,-937.78 3713.98,-1126.82 3742.95,-1205.11"/>
<text text-anchor="middle" x="3652.8" y="-1035.19" font-family="Times,serif" font-size="14.00">0.862539</text>
</g>
<!-- id_27716187_DOT_21 -->
<g id="node21" class="node">
<title>id_27716187_DOT_21</title>
<polygon fill="bisque" stroke="bisque" points="426.13,-1932.11 429.56,-1932.3 432.95,-1932.59 436.29,-1932.98 439.57,-1933.45 442.78,-1934.02 445.9,-1934.68 448.91,-1935.43 451.81,-1936.27 454.59,-1937.2 457.24,-1938.2 459.74,-1939.29 462.1,-1940.45 464.3,-1941.68 466.33,-1942.99 468.19,-1944.36 469.87,-1945.79 471.38,-1947.28 472.71,-1948.83 473.86,-1950.43 474.82,-1952.07 475.59,-1953.76 476.19,-1955.48 476.61,-1957.24 476.84,-1959.02 476.91,-1960.83 476.8,-1962.65 476.53,-1964.48 476.1,-1966.33 475.52,-1968.17 474.79,-1970.01 473.92,-1971.85 472.91,-1973.67 471.78,-1975.48 470.53,-1977.26 469.17,-1979.01 467.71,-1980.74 466.15,-1982.42 464.5,-1984.07 462.77,-1985.67 460.97,-1987.21 459.1,-1988.71 457.17,-1990.14 455.19,-1991.51 453.16,-1992.82 451.08,-1994.05 448.97,-1995.21 446.83,-1996.3 444.66,-1997.3 442.46,-1998.22 440.24,-1999.06 438.01,-1999.81 435.76,-2000.47 433.5,-2001.04 431.23,-2001.52 428.95,-2001.91 426.67,-2002.19 424.38,-2002.39 422.1,-2002.48 419.81,-2002.48 417.52,-2002.39 415.23,-2002.19 412.95,-2001.91 410.67,-2001.52 408.4,-2001.04 406.14,-2000.47 403.89,-1999.81 401.66,-1999.06 399.44,-1998.22 397.25,-1997.3 395.08,-1996.3 392.93,-1995.21 390.82,-1994.05 388.75,-1992.82 386.71,-1991.51 384.73,-1990.14 382.8,-1988.71 380.93,-1987.21 379.13,-1985.67 377.4,-1984.07 375.75,-1982.42 374.2,-1980.74 372.73,-1979.01 371.37,-1977.26 370.12,-1975.48 368.99,-1973.67 367.99,-1971.85 367.12,-1970.01 366.39,-1968.17 365.8,-1966.33 365.37,-1964.48 365.1,-1962.65 364.99,-1960.83 365.06,-1959.02 365.3,-1957.24 365.71,-1955.48 366.31,-1953.76 367.09,-1952.07 368.05,-1950.43 369.19,-1948.83 370.52,-1947.28 372.03,-1945.79 373.71,-1944.36 375.58,-1942.99 377.61,-1941.68 379.8,-1940.45 382.16,-1939.29 384.66,-1938.2 387.31,-1937.2 390.09,-1936.27 392.99,-1935.43 396.01,-1934.68 399.12,-1934.02 402.33,-1933.45 405.61,-1932.98 408.95,-1932.59 412.34,-1932.3 415.77,-1932.11 419.22,-1932.01 422.68,-1932.01 426.13,-1932.11"/>
<text text-anchor="start" x="391.78" y="-1977.05" font-family="Times,serif" font-size="14.00">C0442519</text>
<text text-anchor="start" x="405.4" y="-1963.05" font-family="Times,serif" font-size="14.00">home</text>
<text text-anchor="start" x="398.01" y="-1949.05" font-family="Times,serif" font-size="14.00">283:283</text>
</g>
<!-- id_27716187_DOT_20&#45;&#45;id_27716187_DOT_21 -->
<g id="edge13" class="edge">
<title>id_27716187_DOT_20&#45;&#45;id_27716187_DOT_21</title>
<path fill="none" stroke="black" d="M735.11,-2021.88C663.55,-2009.44 540.48,-1988.04 471.53,-1976.05"/>
<text text-anchor="middle" x="577.33" y="-2001.76" font-family="Times,serif" font-size="14.00">0.001148</text>
</g>
<!-- id_27716187_DOT_22 -->
<g id="node22" class="node">
<title>id_27716187_DOT_22</title>
<polygon fill="bisque" stroke="bisque" points="61.16,-1891.57 64.58,-1891.76 67.98,-1892.05 71.32,-1892.44 74.6,-1892.91 77.81,-1893.49 80.92,-1894.15 83.94,-1894.9 86.84,-1895.73 89.62,-1896.66 92.27,-1897.66 94.77,-1898.75 97.13,-1899.91 99.32,-1901.14 101.35,-1902.45 103.22,-1903.82 104.9,-1905.25 106.41,-1906.75 107.74,-1908.29 108.88,-1909.89 109.84,-1911.54 110.62,-1913.22 111.22,-1914.94 111.63,-1916.7 111.87,-1918.48 111.93,-1920.29 111.83,-1922.11 111.56,-1923.95 111.13,-1925.79 110.54,-1927.63 109.81,-1929.48 108.94,-1931.31 107.94,-1933.13 106.81,-1934.94 105.56,-1936.72 104.2,-1938.48 102.73,-1940.2 101.18,-1941.89 99.53,-1943.53 97.8,-1945.13 96,-1946.68 94.13,-1948.17 92.2,-1949.6 90.22,-1950.97 88.18,-1952.28 86.11,-1953.51 84,-1954.67 81.85,-1955.76 79.68,-1956.76 77.49,-1957.69 75.27,-1958.52 73.04,-1959.28 70.79,-1959.94 68.53,-1960.51 66.26,-1960.98 63.98,-1961.37 61.7,-1961.66 59.41,-1961.85 57.12,-1961.95 54.83,-1961.95 52.55,-1961.85 50.26,-1961.66 47.98,-1961.37 45.7,-1960.98 43.43,-1960.51 41.17,-1959.94 38.92,-1959.28 36.69,-1958.52 34.47,-1957.69 32.27,-1956.76 30.1,-1955.76 27.96,-1954.67 25.85,-1953.51 23.77,-1952.28 21.74,-1950.97 19.76,-1949.6 17.83,-1948.17 15.96,-1946.68 14.16,-1945.13 12.43,-1943.53 10.78,-1941.89 9.22,-1940.2 7.76,-1938.48 6.4,-1936.72 5.15,-1934.94 4.02,-1933.13 3.01,-1931.31 2.14,-1929.48 1.41,-1927.63 0.83,-1925.79 0.4,-1923.95 0.13,-1922.11 0.02,-1920.29 0.09,-1918.48 0.32,-1916.7 0.74,-1914.94 1.34,-1913.22 2.11,-1911.54 3.07,-1909.89 4.22,-1908.29 5.55,-1906.75 7.05,-1905.25 8.74,-1903.82 10.6,-1902.45 12.63,-1901.14 14.83,-1899.91 17.18,-1898.75 19.69,-1897.66 22.34,-1896.66 25.12,-1895.73 28.02,-1894.9 31.03,-1894.15 34.15,-1893.49 37.35,-1892.91 40.64,-1892.44 43.98,-1892.05 47.37,-1891.76 50.8,-1891.57 54.25,-1891.48 57.71,-1891.48 61.16,-1891.57"/>
<text text-anchor="start" x="26.81" y="-1936.51" font-family="Times,serif" font-size="14.00">C0442519</text>
<text text-anchor="start" x="40.43" y="-1922.51" font-family="Times,serif" font-size="14.00">home</text>
<text text-anchor="start" x="33.03" y="-1908.51" font-family="Times,serif" font-size="14.00">295:295</text>
</g>
<!-- id_27716187_DOT_21&#45;&#45;id_27716187_DOT_22 -->
<g id="edge14" class="edge">
<title>id_27716187_DOT_21&#45;&#45;id_27716187_DOT_22</title>
<path fill="none" stroke="black" d="M364.72,-1961C294.84,-1953.24 176.5,-1940.1 108.42,-1932.54"/>
<text text-anchor="middle" x="210.32" y="-1949.57" font-family="Times,serif" font-size="14.00">0.000706</text>
</g>
<!-- id_27716187_DOT_25 -->
<g id="node25" class="node">
<title>id_27716187_DOT_25</title>
<polygon fill="darkgreen" stroke="darkgreen" points="3177.25,-2045.49 3180.68,-2045.68 3184.07,-2045.97 3187.42,-2046.35 3190.7,-2046.83 3193.9,-2047.4 3197.02,-2048.06 3200.03,-2048.81 3202.94,-2049.65 3205.72,-2050.57 3208.36,-2051.58 3210.87,-2052.66 3213.22,-2053.83 3215.42,-2055.06 3217.45,-2056.37 3219.31,-2057.74 3221,-2059.17 3222.51,-2060.66 3223.83,-2062.21 3224.98,-2063.81 3225.94,-2065.45 3226.72,-2067.14 3227.31,-2068.86 3227.73,-2070.62 3227.97,-2072.4 3228.03,-2074.2 3227.92,-2076.03 3227.65,-2077.86 3227.22,-2079.71 3226.64,-2081.55 3225.91,-2083.39 3225.04,-2085.23 3224.03,-2087.05 3222.9,-2088.86 3221.65,-2090.64 3220.29,-2092.39 3218.83,-2094.12 3217.27,-2095.8 3215.62,-2097.45 3213.89,-2099.05 3212.09,-2100.59 3210.22,-2102.09 3208.29,-2103.52 3206.31,-2104.89 3204.28,-2106.2 3202.21,-2107.43 3200.09,-2108.59 3197.95,-2109.68 3195.78,-2110.68 3193.58,-2111.6 3191.36,-2112.44 3189.13,-2113.19 3186.88,-2113.85 3184.62,-2114.42 3182.35,-2114.9 3180.08,-2115.29 3177.79,-2115.57 3175.51,-2115.77 3173.22,-2115.86 3170.93,-2115.86 3168.64,-2115.77 3166.35,-2115.57 3164.07,-2115.29 3161.8,-2114.9 3159.53,-2114.42 3157.27,-2113.85 3155.02,-2113.19 3152.78,-2112.44 3150.57,-2111.6 3148.37,-2110.68 3146.2,-2109.68 3144.05,-2108.59 3141.94,-2107.43 3139.87,-2106.2 3137.84,-2104.89 3135.85,-2103.52 3133.92,-2102.09 3132.06,-2100.59 3130.25,-2099.05 3128.52,-2097.45 3126.88,-2095.8 3125.32,-2094.12 3123.85,-2092.39 3122.49,-2090.64 3121.25,-2088.86 3120.11,-2087.05 3119.11,-2085.23 3118.24,-2083.39 3117.51,-2081.55 3116.92,-2079.71 3116.49,-2077.86 3116.22,-2076.03 3116.12,-2074.2 3116.18,-2072.4 3116.42,-2070.62 3116.84,-2068.86 3117.43,-2067.14 3118.21,-2065.45 3119.17,-2063.81 3120.31,-2062.21 3121.64,-2060.66 3123.15,-2059.17 3124.84,-2057.74 3126.7,-2056.37 3128.73,-2055.06 3130.93,-2053.83 3133.28,-2052.66 3135.78,-2051.58 3138.43,-2050.57 3141.21,-2049.65 3144.11,-2048.81 3147.13,-2048.06 3150.25,-2047.4 3153.45,-2046.83 3156.73,-2046.35 3160.07,-2045.97 3163.47,-2045.68 3166.9,-2045.49 3170.35,-2045.39 3173.8,-2045.39 3177.25,-2045.49"/>
<text text-anchor="start" x="3142.9" y="-2090.43" font-family="Times,serif" font-size="14.00">C0237096</text>
<text text-anchor="start" x="3145.65" y="-2076.43" font-family="Times,serif" font-size="14.00">residence</text>
<text text-anchor="start" x="3149.13" y="-2062.43" font-family="Times,serif" font-size="14.00">313:313</text>
</g>
<!-- id_27716187_DOT_25&#45;&#45;id_27716187_DOT_26 -->
<g id="edge26" class="edge">
<title>id_27716187_DOT_25&#45;&#45;id_27716187_DOT_26</title>
<path fill="none" stroke="black" stroke-dasharray="1,5" d="M3160.14,-2045.91C3134.79,-1972.17 3075.84,-1800.72 3050.65,-1727.43"/>
<text text-anchor="middle" x="3079.14" y="-1889.47" font-family="Times,serif" font-size="14.00">0.793687</text>
</g>
</g>
</svg>
