<?xml version="1.0" encoding="UTF-8" standalone="no"?>
<!DOCTYPE svg PUBLIC "-//W3C//DTD SVG 1.1//EN"
 "http://www.w3.org/Graphics/SVG/1.1/DTD/svg11.dtd">
<!-- Generated by graphviz version 2.42.3 (20191010.1750)
 -->
<!-- Title: MST Pages: 1 -->
<svg width="3328pt" height="4804pt"
 viewBox="0.00 0.00 3328.29 4803.91" xmlns="http://www.w3.org/2000/svg" xmlns:xlink="http://www.w3.org/1999/xlink">
<g id="graph0" class="graph" transform="scale(1 1) rotate(0) translate(4 4799.91)">
<title>MST</title>
<polygon fill="white" stroke="transparent" points="-4,4 -4,-4799.91 3324.29,-4799.91 3324.29,4 -4,4"/>
<!-- id_27733749_DOT_1 -->
<g id="node1" class="node">
<title>id_27733749_DOT_1</title>
<polygon fill="aquamarine" stroke="aquamarine" points="1733.34,-2170.32 1738.41,-2170.51 1743.43,-2170.8 1748.37,-2171.18 1753.22,-2171.66 1757.96,-2172.23 1762.57,-2172.89 1767.03,-2173.64 1771.32,-2174.48 1775.43,-2175.4 1779.34,-2176.41 1783.05,-2177.49 1786.53,-2178.65 1789.77,-2179.89 1792.78,-2181.19 1795.53,-2182.56 1798.02,-2184 1800.25,-2185.49 1802.22,-2187.04 1803.91,-2188.64 1805.33,-2190.28 1806.48,-2191.97 1807.36,-2193.69 1807.98,-2195.45 1808.33,-2197.23 1808.42,-2199.03 1808.27,-2200.86 1807.87,-2202.69 1807.23,-2204.53 1806.37,-2206.38 1805.29,-2208.22 1804,-2210.06 1802.51,-2211.88 1800.84,-2213.68 1798.99,-2215.47 1796.98,-2217.22 1794.82,-2218.94 1792.51,-2220.63 1790.08,-2222.27 1787.52,-2223.87 1784.86,-2225.42 1782.09,-2226.91 1779.24,-2228.35 1776.31,-2229.72 1773.3,-2231.02 1770.24,-2232.26 1767.12,-2233.42 1763.95,-2234.5 1760.74,-2235.51 1757.49,-2236.43 1754.21,-2237.27 1750.91,-2238.02 1747.58,-2238.68 1744.24,-2239.25 1740.89,-2239.73 1737.52,-2240.11 1734.14,-2240.4 1730.76,-2240.59 1727.38,-2240.69 1724,-2240.69 1720.61,-2240.59 1717.23,-2240.4 1713.86,-2240.11 1710.49,-2239.73 1707.13,-2239.25 1703.79,-2238.68 1700.47,-2238.02 1697.17,-2237.27 1693.89,-2236.43 1690.64,-2235.51 1687.43,-2234.5 1684.26,-2233.42 1681.14,-2232.26 1678.07,-2231.02 1675.07,-2229.72 1672.13,-2228.35 1669.28,-2226.91 1666.52,-2225.42 1663.85,-2223.87 1661.3,-2222.27 1658.86,-2220.63 1656.56,-2218.94 1654.39,-2217.22 1652.38,-2215.47 1650.53,-2213.68 1648.86,-2211.88 1647.38,-2210.06 1646.09,-2208.22 1645.01,-2206.38 1644.15,-2204.53 1643.51,-2202.69 1643.11,-2200.86 1642.95,-2199.03 1643.05,-2197.23 1643.4,-2195.45 1644.01,-2193.69 1644.9,-2191.97 1646.05,-2190.28 1647.47,-2188.64 1649.16,-2187.04 1651.12,-2185.49 1653.35,-2184 1655.85,-2182.56 1658.6,-2181.19 1661.6,-2179.89 1664.85,-2178.65 1668.33,-2177.49 1672.03,-2176.41 1675.95,-2175.4 1680.06,-2174.48 1684.35,-2173.64 1688.81,-2172.89 1693.41,-2172.23 1698.15,-2171.66 1703,-2171.18 1707.95,-2170.8 1712.96,-2170.51 1718.03,-2170.32 1723.13,-2170.22 1728.24,-2170.22 1733.34,-2170.32"/>
<text text-anchor="start" x="1696.52" y="-2215.26" font-family="Times,serif" font-size="14.00">C0392209</text>
<text text-anchor="start" x="1678.83" y="-2201.26" font-family="Times,serif" font-size="14.00">nutritional status</text>
<text text-anchor="start" x="1716.74" y="-2187.26" font-family="Times,serif" font-size="14.00">4:5</text>
</g>
<!-- id_27733749_DOT_2 -->
<g id="node2" class="node">
<title>id_27733749_DOT_2</title>
<polygon fill="aquamarine" stroke="aquamarine" points="1558.4,-2589.67 1563.47,-2589.86 1568.48,-2590.15 1573.43,-2590.54 1578.28,-2591.01 1583.01,-2591.58 1587.62,-2592.25 1592.08,-2593 1596.37,-2593.83 1600.48,-2594.76 1604.4,-2595.76 1608.1,-2596.85 1611.58,-2598.01 1614.83,-2599.24 1617.83,-2600.55 1620.58,-2601.92 1623.08,-2603.35 1625.31,-2604.85 1627.27,-2606.39 1628.96,-2607.99 1630.38,-2609.64 1631.53,-2611.32 1632.41,-2613.04 1633.03,-2614.8 1633.38,-2616.58 1633.48,-2618.39 1633.32,-2620.21 1632.92,-2622.04 1632.28,-2623.89 1631.42,-2625.73 1630.34,-2627.58 1629.05,-2629.41 1627.57,-2631.23 1625.89,-2633.04 1624.05,-2634.82 1622.04,-2636.58 1619.87,-2638.3 1617.57,-2639.98 1615.13,-2641.63 1612.58,-2643.23 1609.91,-2644.77 1607.15,-2646.27 1604.29,-2647.7 1601.36,-2649.07 1598.36,-2650.38 1595.29,-2651.61 1592.17,-2652.77 1589,-2653.86 1585.79,-2654.86 1582.54,-2655.79 1579.26,-2656.62 1575.96,-2657.37 1572.64,-2658.04 1569.29,-2658.61 1565.94,-2659.08 1562.57,-2659.47 1559.2,-2659.76 1555.82,-2659.95 1552.43,-2660.05 1549.05,-2660.05 1545.67,-2659.95 1542.28,-2659.76 1538.91,-2659.47 1535.54,-2659.08 1532.19,-2658.61 1528.85,-2658.04 1525.52,-2657.37 1522.22,-2656.62 1518.94,-2655.79 1515.69,-2654.86 1512.48,-2653.86 1509.31,-2652.77 1506.19,-2651.61 1503.12,-2650.38 1500.12,-2649.07 1497.19,-2647.7 1494.33,-2646.27 1491.57,-2644.77 1488.91,-2643.23 1486.35,-2641.63 1483.92,-2639.98 1481.61,-2638.3 1479.45,-2636.58 1477.44,-2634.82 1475.59,-2633.04 1473.92,-2631.23 1472.43,-2629.41 1471.14,-2627.58 1470.06,-2625.73 1469.2,-2623.89 1468.56,-2622.04 1468.16,-2620.21 1468.01,-2618.39 1468.1,-2616.58 1468.45,-2614.8 1469.07,-2613.04 1469.95,-2611.32 1471.1,-2609.64 1472.52,-2607.99 1474.21,-2606.39 1476.17,-2604.85 1478.4,-2603.35 1480.9,-2601.92 1483.65,-2600.55 1486.65,-2599.24 1489.9,-2598.01 1493.38,-2596.85 1497.09,-2595.76 1501,-2594.76 1505.11,-2593.83 1509.4,-2593 1513.86,-2592.25 1518.47,-2591.58 1523.21,-2591.01 1528.06,-2590.54 1533,-2590.15 1538.02,-2589.86 1543.09,-2589.67 1548.19,-2589.58 1553.3,-2589.58 1558.4,-2589.67"/>
<text text-anchor="start" x="1521.57" y="-2634.61" font-family="Times,serif" font-size="14.00">C0392209</text>
<text text-anchor="start" x="1503.88" y="-2620.61" font-family="Times,serif" font-size="14.00">nutritional status</text>
<text text-anchor="start" x="1534.8" y="-2606.61" font-family="Times,serif" font-size="14.00">22:23</text>
</g>
<!-- id_27733749_DOT_1&#45;&#45;id_27733749_DOT_2 -->
<g id="edge1" class="edge">
<title>id_27733749_DOT_1&#45;&#45;id_27733749_DOT_2</title>
<path fill="none" stroke="black" d="M1711.22,-2240.13C1678.35,-2318.92 1598.35,-2510.69 1565.35,-2589.8"/>
<text text-anchor="middle" x="1612.03" y="-2417.77" font-family="Times,serif" font-size="14.00">0.000443</text>
</g>
<!-- id_27733749_DOT_9 -->
<g id="node9" class="node">
<title>id_27733749_DOT_9</title>
<polygon fill="aquamarine" stroke="aquamarine" points="1432.03,-1853.73 1437.09,-1853.92 1442.11,-1854.21 1447.05,-1854.6 1451.91,-1855.07 1456.64,-1855.64 1461.25,-1856.3 1465.71,-1857.06 1470,-1857.89 1474.11,-1858.82 1478.03,-1859.82 1481.73,-1860.91 1485.21,-1862.07 1488.46,-1863.3 1491.46,-1864.61 1494.21,-1865.98 1496.71,-1867.41 1498.94,-1868.9 1500.9,-1870.45 1502.59,-1872.05 1504.01,-1873.69 1505.16,-1875.38 1506.04,-1877.1 1506.66,-1878.86 1507.01,-1880.64 1507.1,-1882.45 1506.95,-1884.27 1506.55,-1886.1 1505.91,-1887.95 1505.05,-1889.79 1503.97,-1891.63 1502.68,-1893.47 1501.19,-1895.29 1499.52,-1897.1 1497.68,-1898.88 1495.66,-1900.64 1493.5,-1902.36 1491.2,-1904.04 1488.76,-1905.69 1486.2,-1907.29 1483.54,-1908.83 1480.78,-1910.33 1477.92,-1911.76 1474.99,-1913.13 1471.99,-1914.44 1468.92,-1915.67 1465.8,-1916.83 1462.63,-1917.92 1459.42,-1918.92 1456.17,-1919.85 1452.89,-1920.68 1449.59,-1921.43 1446.27,-1922.09 1442.92,-1922.67 1439.57,-1923.14 1436.2,-1923.53 1432.83,-1923.82 1429.45,-1924.01 1426.06,-1924.1 1422.68,-1924.1 1419.29,-1924.01 1415.91,-1923.82 1412.54,-1923.53 1409.17,-1923.14 1405.82,-1922.67 1402.47,-1922.09 1399.15,-1921.43 1395.85,-1920.68 1392.57,-1919.85 1389.32,-1918.92 1386.11,-1917.92 1382.94,-1916.83 1379.82,-1915.67 1376.75,-1914.44 1373.75,-1913.13 1370.82,-1911.76 1367.96,-1910.33 1365.2,-1908.83 1362.54,-1907.29 1359.98,-1905.69 1357.54,-1904.04 1355.24,-1902.36 1353.08,-1900.64 1351.06,-1898.88 1349.22,-1897.1 1347.55,-1895.29 1346.06,-1893.47 1344.77,-1891.63 1343.69,-1889.79 1342.83,-1887.95 1342.19,-1886.1 1341.79,-1884.27 1341.64,-1882.45 1341.73,-1880.64 1342.08,-1878.86 1342.7,-1877.1 1343.58,-1875.38 1344.73,-1873.69 1346.15,-1872.05 1347.84,-1870.45 1349.8,-1868.9 1352.03,-1867.41 1354.53,-1865.98 1357.28,-1864.61 1360.28,-1863.3 1363.53,-1862.07 1367.01,-1860.91 1370.71,-1859.82 1374.63,-1858.82 1378.74,-1857.89 1383.03,-1857.06 1387.49,-1856.3 1392.1,-1855.64 1396.83,-1855.07 1401.69,-1854.6 1406.63,-1854.21 1411.65,-1853.92 1416.71,-1853.73 1421.81,-1853.63 1426.93,-1853.63 1432.03,-1853.73"/>
<text text-anchor="start" x="1395.2" y="-1898.67" font-family="Times,serif" font-size="14.00">C0392209</text>
<text text-anchor="start" x="1377.51" y="-1884.67" font-family="Times,serif" font-size="14.00">nutritional status</text>
<text text-anchor="start" x="1408.43" y="-1870.67" font-family="Times,serif" font-size="14.00">95:96</text>
</g>
<!-- id_27733749_DOT_1&#45;&#45;id_27733749_DOT_9 -->
<g id="edge2" class="edge">
<title>id_27733749_DOT_1&#45;&#45;id_27733749_DOT_9</title>
<path fill="none" stroke="black" d="M1693.73,-2171.88C1635.26,-2110.45 1511.86,-1980.79 1454.66,-1920.69"/>
<text text-anchor="middle" x="1547.94" y="-2049.08" font-family="Times,serif" font-size="14.00">0.018754</text>
</g>
<!-- id_27733749_DOT_15 -->
<g id="node15" class="node">
<title>id_27733749_DOT_15</title>
<polygon fill="crimson" stroke="crimson" points="2055,-2358.78 2058.43,-2358.97 2061.82,-2359.26 2065.16,-2359.65 2068.44,-2360.12 2071.65,-2360.7 2074.76,-2361.36 2077.78,-2362.11 2080.68,-2362.94 2083.46,-2363.87 2086.11,-2364.87 2088.61,-2365.96 2090.97,-2367.12 2093.16,-2368.35 2095.19,-2369.66 2097.06,-2371.03 2098.74,-2372.46 2100.25,-2373.96 2101.58,-2375.5 2102.72,-2377.1 2103.68,-2378.75 2104.46,-2380.43 2105.06,-2382.15 2105.47,-2383.91 2105.71,-2385.69 2105.78,-2387.5 2105.67,-2389.32 2105.4,-2391.16 2104.97,-2393 2104.39,-2394.84 2103.65,-2396.69 2102.78,-2398.52 2101.78,-2400.34 2100.65,-2402.15 2099.4,-2403.93 2098.04,-2405.69 2096.58,-2407.41 2095.02,-2409.1 2093.37,-2410.74 2091.64,-2412.34 2089.84,-2413.89 2087.97,-2415.38 2086.04,-2416.81 2084.06,-2418.18 2082.02,-2419.49 2079.95,-2420.72 2077.84,-2421.88 2075.7,-2422.97 2073.52,-2423.97 2071.33,-2424.9 2069.11,-2425.73 2066.88,-2426.49 2064.63,-2427.15 2062.37,-2427.72 2060.1,-2428.19 2057.82,-2428.58 2055.54,-2428.87 2053.25,-2429.06 2050.96,-2429.16 2048.67,-2429.16 2046.39,-2429.06 2044.1,-2428.87 2041.82,-2428.58 2039.54,-2428.19 2037.27,-2427.72 2035.01,-2427.15 2032.76,-2426.49 2030.53,-2425.73 2028.31,-2424.9 2026.12,-2423.97 2023.94,-2422.97 2021.8,-2421.88 2019.69,-2420.72 2017.61,-2419.49 2015.58,-2418.18 2013.6,-2416.81 2011.67,-2415.38 2009.8,-2413.89 2008,-2412.34 2006.27,-2410.74 2004.62,-2409.1 2003.06,-2407.41 2001.6,-2405.69 2000.24,-2403.93 1998.99,-2402.15 1997.86,-2400.34 1996.86,-2398.52 1995.98,-2396.69 1995.25,-2394.84 1994.67,-2393 1994.24,-2391.16 1993.97,-2389.32 1993.86,-2387.5 1993.93,-2385.69 1994.16,-2383.91 1994.58,-2382.15 1995.18,-2380.43 1995.95,-2378.75 1996.92,-2377.1 1998.06,-2375.5 1999.39,-2373.96 2000.9,-2372.46 2002.58,-2371.03 2004.44,-2369.66 2006.48,-2368.35 2008.67,-2367.12 2011.03,-2365.96 2013.53,-2364.87 2016.18,-2363.87 2018.96,-2362.94 2021.86,-2362.11 2024.88,-2361.36 2027.99,-2360.7 2031.2,-2360.12 2034.48,-2359.65 2037.82,-2359.26 2041.21,-2358.97 2044.64,-2358.78 2048.09,-2358.69 2051.55,-2358.69 2055,-2358.78"/>
<text text-anchor="start" x="2020.65" y="-2403.72" font-family="Times,serif" font-size="14.00">C1305855</text>
<text text-anchor="start" x="2036.6" y="-2389.72" font-family="Times,serif" font-size="14.00">BMI</text>
<text text-anchor="start" x="2026.87" y="-2375.72" font-family="Times,serif" font-size="14.00">146:146</text>
</g>
<!-- id_27733749_DOT_1&#45;&#45;id_27733749_DOT_15 -->
<g id="edge8" class="edge">
<title>id_27733749_DOT_1&#45;&#45;id_27733749_DOT_15</title>
<path fill="none" stroke="black" stroke-dasharray="1,5" d="M1771.44,-2232.06C1833.83,-2268.33 1944.81,-2332.87 2006.11,-2368.51"/>
<text text-anchor="middle" x="1862.53" y="-2303.08" font-family="Times,serif" font-size="14.00">0.760058</text>
</g>
<!-- id_27733749_DOT_19 -->
<g id="node19" class="node">
<title>id_27733749_DOT_19</title>
<polygon fill="darkgoldenrod" stroke="darkgoldenrod" points="2115.82,-1927.21 2120.32,-1927.4 2124.78,-1927.69 2129.17,-1928.07 2133.47,-1928.55 2137.68,-1929.12 2141.77,-1929.78 2145.73,-1930.53 2149.54,-1931.37 2153.19,-1932.29 2156.67,-1933.3 2159.96,-1934.38 2163.05,-1935.55 2165.93,-1936.78 2168.6,-1938.09 2171.04,-1939.46 2173.26,-1940.89 2175.24,-1942.38 2176.98,-1943.93 2178.48,-1945.53 2179.74,-1947.17 2180.77,-1948.86 2181.55,-1950.58 2182.09,-1952.34 2182.41,-1954.12 2182.49,-1955.92 2182.35,-1957.75 2182,-1959.58 2181.43,-1961.43 2180.66,-1963.27 2179.71,-1965.11 2178.56,-1966.95 2177.24,-1968.77 2175.76,-1970.58 2174.12,-1972.36 2172.33,-1974.11 2170.41,-1975.84 2168.36,-1977.52 2166.2,-1979.17 2163.93,-1980.76 2161.57,-1982.31 2159.11,-1983.81 2156.58,-1985.24 2153.97,-1986.61 2151.31,-1987.92 2148.58,-1989.15 2145.81,-1990.31 2143,-1991.4 2140.14,-1992.4 2137.26,-1993.32 2134.35,-1994.16 2131.42,-1994.91 2128.47,-1995.57 2125.5,-1996.14 2122.52,-1996.62 2119.53,-1997.01 2116.53,-1997.29 2113.53,-1997.49 2110.53,-1997.58 2107.52,-1997.58 2104.52,-1997.49 2101.51,-1997.29 2098.52,-1997.01 2095.53,-1996.62 2092.55,-1996.14 2089.58,-1995.57 2086.63,-1994.91 2083.7,-1994.16 2080.79,-1993.32 2077.9,-1992.4 2075.05,-1991.4 2072.24,-1990.31 2069.46,-1989.15 2066.74,-1987.92 2064.07,-1986.61 2061.47,-1985.24 2058.94,-1983.81 2056.48,-1982.31 2054.12,-1980.76 2051.85,-1979.17 2049.68,-1977.52 2047.64,-1975.84 2045.71,-1974.11 2043.93,-1972.36 2042.29,-1970.58 2040.8,-1968.77 2039.49,-1966.95 2038.34,-1965.11 2037.38,-1963.27 2036.62,-1961.43 2036.05,-1959.58 2035.7,-1957.75 2035.56,-1955.92 2035.64,-1954.12 2035.95,-1952.34 2036.5,-1950.58 2037.28,-1948.86 2038.3,-1947.17 2039.56,-1945.53 2041.07,-1943.93 2042.81,-1942.38 2044.79,-1940.89 2047,-1939.46 2049.45,-1938.09 2052.12,-1936.78 2055,-1935.55 2058.09,-1934.38 2061.38,-1933.3 2064.85,-1932.29 2068.5,-1931.37 2072.31,-1930.53 2076.27,-1929.78 2080.36,-1929.12 2084.57,-1928.55 2088.88,-1928.07 2093.27,-1927.69 2097.72,-1927.4 2102.22,-1927.21 2106.75,-1927.11 2111.29,-1927.11 2115.82,-1927.21"/>
<text text-anchor="start" x="2079.85" y="-1972.15" font-family="Times,serif" font-size="14.00">C0243095</text>
<text text-anchor="start" x="2068.4" y="-1958.15" font-family="Times,serif" font-size="14.00">nearly optimal</text>
<text text-anchor="start" x="2086.08" y="-1944.15" font-family="Times,serif" font-size="14.00">183:184</text>
</g>
<!-- id_27733749_DOT_1&#45;&#45;id_27733749_DOT_19 -->
<g id="edge9" class="edge">
<title>id_27733749_DOT_1&#45;&#45;id_27733749_DOT_19</title>
<path fill="none" stroke="black" stroke-dasharray="1,5" d="M1773.85,-2174.91C1849.86,-2126.71 1996.33,-2033.82 2067.79,-1988.5"/>
<text text-anchor="middle" x="1894.57" y="-2084.51" font-family="Times,serif" font-size="14.00">0.783286</text>
</g>
<!-- id_27733749_DOT_17 -->
<g id="node17" class="node">
<title>id_27733749_DOT_17</title>
<polygon fill="aquamarine" stroke="aquamarine" points="1414.84,-3020.2 1420.47,-3020.39 1426.05,-3020.68 1431.54,-3021.06 1436.93,-3021.54 1442.2,-3022.11 1447.32,-3022.77 1452.27,-3023.52 1457.04,-3024.36 1461.61,-3025.28 1465.96,-3026.29 1470.08,-3027.37 1473.95,-3028.53 1477.55,-3029.77 1480.89,-3031.07 1483.95,-3032.45 1486.72,-3033.88 1489.2,-3035.37 1491.38,-3036.92 1493.26,-3038.52 1494.84,-3040.16 1496.12,-3041.85 1497.1,-3043.57 1497.78,-3045.33 1498.18,-3047.11 1498.28,-3048.91 1498.11,-3050.74 1497.66,-3052.57 1496.95,-3054.41 1496,-3056.26 1494.79,-3058.1 1493.36,-3059.94 1491.71,-3061.76 1489.85,-3063.57 1487.8,-3065.35 1485.57,-3067.1 1483.16,-3068.83 1480.6,-3070.51 1477.89,-3072.16 1475.05,-3073.75 1472.09,-3075.3 1469.02,-3076.79 1465.85,-3078.23 1462.59,-3079.6 1459.25,-3080.9 1455.84,-3082.14 1452.37,-3083.3 1448.85,-3084.39 1445.28,-3085.39 1441.67,-3086.31 1438.03,-3087.15 1434.36,-3087.9 1430.66,-3088.56 1426.95,-3089.13 1423.22,-3089.61 1419.48,-3089.99 1415.73,-3090.28 1411.97,-3090.48 1408.21,-3090.57 1404.45,-3090.57 1400.69,-3090.48 1396.93,-3090.28 1393.18,-3089.99 1389.44,-3089.61 1385.71,-3089.13 1381.99,-3088.56 1378.3,-3087.9 1374.63,-3087.15 1370.99,-3086.31 1367.38,-3085.39 1363.81,-3084.39 1360.29,-3083.3 1356.82,-3082.14 1353.41,-3080.9 1350.07,-3079.6 1346.81,-3078.23 1343.64,-3076.79 1340.57,-3075.3 1337.61,-3073.75 1334.77,-3072.16 1332.06,-3070.51 1329.5,-3068.83 1327.09,-3067.1 1324.86,-3065.35 1322.8,-3063.57 1320.95,-3061.76 1319.3,-3059.94 1317.86,-3058.1 1316.66,-3056.26 1315.7,-3054.41 1315,-3052.57 1314.55,-3050.74 1314.38,-3048.91 1314.48,-3047.11 1314.87,-3045.33 1315.56,-3043.57 1316.54,-3041.85 1317.81,-3040.16 1319.39,-3038.52 1321.28,-3036.92 1323.46,-3035.37 1325.93,-3033.88 1328.71,-3032.45 1331.77,-3031.07 1335.1,-3029.77 1338.71,-3028.53 1342.58,-3027.37 1346.7,-3026.29 1351.05,-3025.28 1355.61,-3024.36 1360.38,-3023.52 1365.34,-3022.77 1370.46,-3022.11 1375.73,-3021.54 1381.12,-3021.06 1386.61,-3020.68 1392.19,-3020.39 1397.82,-3020.2 1403.49,-3020.1 1409.17,-3020.1 1414.84,-3020.2"/>
<text text-anchor="start" x="1377.16" y="-3065.14" font-family="Times,serif" font-size="14.00">C0392209</text>
<text text-anchor="start" x="1353.26" y="-3051.14" font-family="Times,serif" font-size="14.00">calorie distribution</text>
<text text-anchor="start" x="1383.38" y="-3037.14" font-family="Times,serif" font-size="14.00">175:176</text>
</g>
<!-- id_27733749_DOT_2&#45;&#45;id_27733749_DOT_17 -->
<g id="edge10" class="edge">
<title>id_27733749_DOT_2&#45;&#45;id_27733749_DOT_17</title>
<path fill="none" stroke="black" stroke-dasharray="1,5" d="M1539.05,-2659.68C1511.99,-2740.35 1445.3,-2939.15 1418.13,-3020.14"/>
<text text-anchor="middle" x="1452.34" y="-2842.71" font-family="Times,serif" font-size="14.00">0.765507</text>
</g>
<!-- id_27733749_DOT_3 -->
<g id="node3" class="node">
<title>id_27733749_DOT_3</title>
<polygon fill="bisque" stroke="bisque" points="610.14,-976.76 614.01,-976.95 617.83,-977.24 621.6,-977.63 625.3,-978.1 628.91,-978.67 632.43,-979.33 635.82,-980.09 639.1,-980.92 642.23,-981.85 645.21,-982.85 648.04,-983.94 650.69,-985.1 653.17,-986.33 655.46,-987.64 657.56,-989.01 659.46,-990.44 661.16,-991.93 662.65,-993.48 663.94,-995.08 665.03,-996.72 665.9,-998.41 666.58,-1000.13 667.04,-1001.89 667.31,-1003.67 667.38,-1005.48 667.27,-1007.3 666.96,-1009.13 666.48,-1010.98 665.82,-1012.82 664.99,-1014.66 664.01,-1016.5 662.88,-1018.32 661.6,-1020.13 660.2,-1021.91 658.66,-1023.67 657.01,-1025.39 655.26,-1027.07 653.4,-1028.72 651.45,-1030.32 649.42,-1031.86 647.31,-1033.36 645.14,-1034.79 642.9,-1036.16 640.61,-1037.47 638.27,-1038.7 635.89,-1039.86 633.48,-1040.95 631.03,-1041.95 628.55,-1042.88 626.05,-1043.71 623.54,-1044.46 621,-1045.13 618.45,-1045.7 615.89,-1046.17 613.33,-1046.56 610.76,-1046.85 608.18,-1047.04 605.6,-1047.13 603.02,-1047.13 600.44,-1047.04 597.86,-1046.85 595.29,-1046.56 592.72,-1046.17 590.16,-1045.7 587.62,-1045.13 585.08,-1044.46 582.56,-1043.71 580.06,-1042.88 577.59,-1041.95 575.14,-1040.95 572.72,-1039.86 570.34,-1038.7 568,-1037.47 565.71,-1036.16 563.48,-1034.79 561.3,-1033.36 559.2,-1031.86 557.17,-1030.32 555.22,-1028.72 553.36,-1027.07 551.6,-1025.39 549.95,-1023.67 548.42,-1021.91 547.01,-1020.13 545.74,-1018.32 544.6,-1016.5 543.62,-1014.66 542.8,-1012.82 542.14,-1010.98 541.66,-1009.13 541.35,-1007.3 541.23,-1005.48 541.3,-1003.67 541.57,-1001.89 542.04,-1000.13 542.71,-998.41 543.59,-996.72 544.67,-995.08 545.96,-993.48 547.46,-991.93 549.16,-990.44 551.06,-989.01 553.16,-987.64 555.45,-986.33 557.92,-985.1 560.58,-983.94 563.4,-982.85 566.39,-981.85 569.52,-980.92 572.79,-980.09 576.19,-979.33 579.7,-978.67 583.32,-978.1 587.01,-977.63 590.78,-977.24 594.61,-976.95 598.47,-976.76 602.36,-976.66 606.26,-976.66 610.14,-976.76"/>
<text text-anchor="start" x="575.14" y="-1021.7" font-family="Times,serif" font-size="14.00">C0016452</text>
<text text-anchor="start" x="570.29" y="-1007.7" font-family="Times,serif" font-size="14.00">daily menus</text>
<text text-anchor="start" x="588.36" y="-993.7" font-family="Times,serif" font-size="14.00">31:32</text>
</g>
<!-- id_27733749_DOT_10 -->
<g id="node10" class="node">
<title>id_27733749_DOT_10</title>
<polygon fill="aquamarine" stroke="aquamarine" points="852.02,-1282.88 855.44,-1283.07 858.84,-1283.36 862.18,-1283.74 865.46,-1284.22 868.67,-1284.79 871.78,-1285.45 874.8,-1286.2 877.7,-1287.04 880.48,-1287.96 883.13,-1288.97 885.63,-1290.05 887.99,-1291.21 890.18,-1292.45 892.21,-1293.75 894.07,-1295.13 895.76,-1296.56 897.27,-1298.05 898.6,-1299.6 899.74,-1301.2 900.7,-1302.84 901.48,-1304.53 902.08,-1306.25 902.49,-1308.01 902.73,-1309.79 902.79,-1311.59 902.69,-1313.42 902.42,-1315.25 901.99,-1317.09 901.4,-1318.94 900.67,-1320.78 899.8,-1322.62 898.8,-1324.44 897.67,-1326.25 896.42,-1328.03 895.06,-1329.78 893.59,-1331.51 892.03,-1333.19 890.39,-1334.84 888.66,-1336.43 886.86,-1337.98 884.99,-1339.47 883.06,-1340.91 881.07,-1342.28 879.04,-1343.58 876.97,-1344.82 874.86,-1345.98 872.71,-1347.07 870.54,-1348.07 868.35,-1348.99 866.13,-1349.83 863.89,-1350.58 861.65,-1351.24 859.39,-1351.81 857.12,-1352.29 854.84,-1352.67 852.56,-1352.96 850.27,-1353.16 847.98,-1353.25 845.69,-1353.25 843.4,-1353.16 841.12,-1352.96 838.84,-1352.67 836.56,-1352.29 834.29,-1351.81 832.03,-1351.24 829.78,-1350.58 827.55,-1349.83 825.33,-1348.99 823.13,-1348.07 820.96,-1347.07 818.82,-1345.98 816.71,-1344.82 814.63,-1343.58 812.6,-1342.28 810.62,-1340.91 808.69,-1339.47 806.82,-1337.98 805.02,-1336.43 803.29,-1334.84 801.64,-1333.19 800.08,-1331.51 798.62,-1329.78 797.26,-1328.03 796.01,-1326.25 794.88,-1324.44 793.87,-1322.62 793,-1320.78 792.27,-1318.94 791.69,-1317.09 791.26,-1315.25 790.99,-1313.42 790.88,-1311.59 790.95,-1309.79 791.18,-1308.01 791.6,-1306.25 792.19,-1304.53 792.97,-1302.84 793.93,-1301.2 795.08,-1299.6 796.41,-1298.05 797.91,-1296.56 799.6,-1295.13 801.46,-1293.75 803.49,-1292.45 805.69,-1291.21 808.04,-1290.05 810.55,-1288.97 813.2,-1287.96 815.98,-1287.04 818.88,-1286.2 821.89,-1285.45 825.01,-1284.79 828.21,-1284.22 831.49,-1283.74 834.84,-1283.36 838.23,-1283.07 841.66,-1282.88 845.11,-1282.78 848.57,-1282.78 852.02,-1282.88"/>
<text text-anchor="start" x="817.67" y="-1327.82" font-family="Times,serif" font-size="14.00">C0392209</text>
<text text-anchor="start" x="817.68" y="-1313.82" font-family="Times,serif" font-size="14.00">nutritional</text>
<text text-anchor="start" x="824.41" y="-1299.82" font-family="Times,serif" font-size="14.00">115:115</text>
</g>
<!-- id_27733749_DOT_3&#45;&#45;id_27733749_DOT_10 -->
<g id="edge11" class="edge">
<title>id_27733749_DOT_3&#45;&#45;id_27733749_DOT_10</title>
<path fill="none" stroke="black" stroke-dasharray="1,5" d="M628.9,-1042.94C675.02,-1101.15 774.09,-1226.2 821.09,-1285.52"/>
<text text-anchor="middle" x="698.74" y="-1167.03" font-family="Times,serif" font-size="14.00">0.782765</text>
</g>
<!-- id_27733749_DOT_22 -->
<g id="node22" class="node">
<title>id_27733749_DOT_22</title>
<polygon fill="darkmagenta" stroke="darkmagenta" points="400.77,-661.11 404.2,-661.3 407.6,-661.59 410.94,-661.98 414.23,-662.45 417.44,-663.02 420.56,-663.68 423.57,-664.44 426.48,-665.27 429.26,-666.2 431.91,-667.2 434.42,-668.29 436.78,-669.45 438.97,-670.68 441.01,-671.99 442.87,-673.36 444.56,-674.79 446.07,-676.28 447.4,-677.83 448.54,-679.43 449.51,-681.07 450.28,-682.76 450.88,-684.48 451.3,-686.24 451.54,-688.02 451.6,-689.83 451.49,-691.65 451.22,-693.48 450.79,-695.33 450.21,-697.17 449.48,-699.01 448.6,-700.85 447.6,-702.67 446.47,-704.48 445.22,-706.26 443.85,-708.01 442.39,-709.74 440.83,-711.42 439.18,-713.07 437.45,-714.67 435.65,-716.21 433.77,-717.71 431.84,-719.14 429.86,-720.51 427.82,-721.82 425.75,-723.05 423.63,-724.21 421.49,-725.3 419.31,-726.3 417.12,-727.23 414.9,-728.06 412.66,-728.81 410.41,-729.47 408.15,-730.05 405.88,-730.52 403.6,-730.91 401.31,-731.2 399.02,-731.39 396.73,-731.48 394.44,-731.48 392.15,-731.39 389.86,-731.2 387.58,-730.91 385.3,-730.52 383.02,-730.05 380.76,-729.47 378.51,-728.81 376.28,-728.06 374.06,-727.23 371.86,-726.3 369.68,-725.3 367.54,-724.21 365.42,-723.05 363.35,-721.82 361.31,-720.51 359.33,-719.14 357.4,-717.71 355.53,-716.21 353.72,-714.67 351.99,-713.07 350.34,-711.42 348.78,-709.74 347.32,-708.01 345.96,-706.26 344.71,-704.48 343.57,-702.67 342.57,-700.85 341.7,-699.01 340.96,-697.17 340.38,-695.33 339.95,-693.48 339.68,-691.65 339.57,-689.83 339.64,-688.02 339.87,-686.24 340.29,-684.48 340.89,-682.76 341.67,-681.07 342.63,-679.43 343.77,-677.83 345.1,-676.28 346.61,-674.79 348.3,-673.36 350.16,-671.99 352.2,-670.68 354.4,-669.45 356.75,-668.29 359.26,-667.2 361.91,-666.2 364.69,-665.27 367.6,-664.44 370.62,-663.68 373.74,-663.02 376.94,-662.45 380.23,-661.98 383.57,-661.59 386.97,-661.3 390.4,-661.11 393.86,-661.01 397.32,-661.01 400.77,-661.11"/>
<text text-anchor="start" x="366.42" y="-706.05" font-family="Times,serif" font-size="14.00">C0231353</text>
<text text-anchor="start" x="366.23" y="-692.05" font-family="Times,serif" font-size="14.00">low intake</text>
<text text-anchor="start" x="372.64" y="-678.05" font-family="Times,serif" font-size="14.00">204:205</text>
</g>
<!-- id_27733749_DOT_3&#45;&#45;id_27733749_DOT_22 -->
<g id="edge12" class="edge">
<title>id_27733749_DOT_3&#45;&#45;id_27733749_DOT_22</title>
<path fill="none" stroke="black" stroke-dasharray="1,5" d="M581.97,-978.12C541.38,-916.73 456.05,-787.7 416.52,-727.91"/>
<text text-anchor="middle" x="472.99" y="-855.81" font-family="Times,serif" font-size="14.00">0.830001</text>
</g>
<!-- id_27733749_DOT_4 -->
<g id="node4" class="node">
<title>id_27733749_DOT_4</title>
<polygon fill="blue" stroke="blue" points="595.5,-3286.55 599.58,-3286.75 603.62,-3287.04 607.6,-3287.42 611.5,-3287.9 615.32,-3288.47 619.03,-3289.13 622.62,-3289.88 626.07,-3290.72 629.38,-3291.64 632.53,-3292.64 635.51,-3293.73 638.32,-3294.89 640.93,-3296.12 643.35,-3297.43 645.56,-3298.8 647.57,-3300.24 649.37,-3301.73 650.95,-3303.28 652.31,-3304.87 653.45,-3306.52 654.38,-3308.2 655.09,-3309.93 655.58,-3311.68 655.87,-3313.46 655.94,-3315.27 655.82,-3317.09 655.5,-3318.93 654.98,-3320.77 654.29,-3322.62 653.42,-3324.46 652.38,-3326.29 651.19,-3328.12 649.84,-3329.92 648.35,-3331.7 646.73,-3333.46 644.99,-3335.18 643.14,-3336.87 641.17,-3338.51 639.12,-3340.11 636.97,-3341.66 634.75,-3343.15 632.45,-3344.58 630.09,-3345.96 627.67,-3347.26 625.2,-3348.49 622.69,-3349.66 620.14,-3350.74 617.55,-3351.75 614.94,-3352.67 612.3,-3353.51 609.64,-3354.26 606.96,-3354.92 604.27,-3355.49 601.57,-3355.97 598.86,-3356.35 596.14,-3356.64 593.42,-3356.83 590.7,-3356.93 587.97,-3356.93 585.25,-3356.83 582.53,-3356.64 579.81,-3356.35 577.1,-3355.97 574.4,-3355.49 571.71,-3354.92 569.03,-3354.26 566.37,-3353.51 563.73,-3352.67 561.12,-3351.75 558.53,-3350.74 555.98,-3349.66 553.47,-3348.49 551,-3347.26 548.58,-3345.96 546.22,-3344.58 543.92,-3343.15 541.7,-3341.66 539.55,-3340.11 537.5,-3338.51 535.54,-3336.87 533.68,-3335.18 531.94,-3333.46 530.32,-3331.7 528.83,-3329.92 527.49,-3328.12 526.29,-3326.29 525.25,-3324.46 524.38,-3322.62 523.69,-3320.77 523.18,-3318.93 522.85,-3317.09 522.73,-3315.27 522.8,-3313.46 523.09,-3311.68 523.58,-3309.93 524.29,-3308.2 525.22,-3306.52 526.36,-3304.87 527.72,-3303.28 529.3,-3301.73 531.1,-3300.24 533.11,-3298.8 535.32,-3297.43 537.74,-3296.12 540.35,-3294.89 543.16,-3293.73 546.14,-3292.64 549.29,-3291.64 552.6,-3290.72 556.05,-3289.88 559.64,-3289.13 563.35,-3288.47 567.17,-3287.9 571.07,-3287.42 575.05,-3287.04 579.09,-3286.75 583.17,-3286.55 587.28,-3286.46 591.39,-3286.46 595.5,-3286.55"/>
<text text-anchor="start" x="560.17" y="-3331.49" font-family="Times,serif" font-size="14.00">C0018257</text>
<text text-anchor="start" x="552.98" y="-3317.49" font-family="Times,serif" font-size="14.00">group homes</text>
<text text-anchor="start" x="573.39" y="-3303.49" font-family="Times,serif" font-size="14.00">34:35</text>
</g>
<!-- id_27733749_DOT_7 -->
<g id="node7" class="node">
<title>id_27733749_DOT_7</title>
<polygon fill="blue" stroke="blue" points="242.81,-3457.94 246.89,-3458.13 250.93,-3458.42 254.91,-3458.8 258.81,-3459.28 262.63,-3459.85 266.34,-3460.51 269.93,-3461.26 273.38,-3462.1 276.69,-3463.02 279.84,-3464.03 282.82,-3465.11 285.63,-3466.27 288.24,-3467.51 290.66,-3468.81 292.87,-3470.19 294.88,-3471.62 296.68,-3473.11 298.26,-3474.66 299.62,-3476.26 300.76,-3477.9 301.69,-3479.59 302.4,-3481.31 302.89,-3483.07 303.18,-3484.85 303.25,-3486.65 303.13,-3488.48 302.81,-3490.31 302.29,-3492.15 301.6,-3494 300.73,-3495.84 299.69,-3497.68 298.5,-3499.5 297.15,-3501.3 295.66,-3503.09 294.04,-3504.84 292.3,-3506.57 290.45,-3508.25 288.48,-3509.9 286.43,-3511.49 284.28,-3513.04 282.06,-3514.53 279.76,-3515.97 277.4,-3517.34 274.98,-3518.64 272.51,-3519.88 270,-3521.04 267.45,-3522.12 264.86,-3523.13 262.25,-3524.05 259.61,-3524.89 256.95,-3525.64 254.27,-3526.3 251.58,-3526.87 248.88,-3527.35 246.17,-3527.73 243.45,-3528.02 240.73,-3528.22 238.01,-3528.31 235.28,-3528.31 232.56,-3528.22 229.84,-3528.02 227.12,-3527.73 224.41,-3527.35 221.71,-3526.87 219.02,-3526.3 216.34,-3525.64 213.68,-3524.89 211.04,-3524.05 208.43,-3523.13 205.84,-3522.12 203.29,-3521.04 200.78,-3519.88 198.31,-3518.64 195.89,-3517.34 193.53,-3515.97 191.23,-3514.53 189.01,-3513.04 186.86,-3511.49 184.81,-3509.9 182.85,-3508.25 180.99,-3506.57 179.25,-3504.84 177.63,-3503.09 176.14,-3501.3 174.8,-3499.5 173.6,-3497.68 172.56,-3495.84 171.69,-3494 171,-3492.15 170.49,-3490.31 170.16,-3488.48 170.04,-3486.65 170.11,-3484.85 170.4,-3483.07 170.89,-3481.31 171.6,-3479.59 172.53,-3477.9 173.67,-3476.26 175.03,-3474.66 176.61,-3473.11 178.41,-3471.62 180.42,-3470.19 182.63,-3468.81 185.05,-3467.51 187.66,-3466.27 190.47,-3465.11 193.45,-3464.03 196.6,-3463.02 199.91,-3462.1 203.36,-3461.26 206.95,-3460.51 210.66,-3459.85 214.48,-3459.28 218.38,-3458.8 222.36,-3458.42 226.4,-3458.13 230.48,-3457.94 234.59,-3457.84 238.7,-3457.84 242.81,-3457.94"/>
<text text-anchor="start" x="207.48" y="-3502.88" font-family="Times,serif" font-size="14.00">C0018257</text>
<text text-anchor="start" x="200.29" y="-3488.88" font-family="Times,serif" font-size="14.00">group homes</text>
<text text-anchor="start" x="220.7" y="-3474.88" font-family="Times,serif" font-size="14.00">72:73</text>
</g>
<!-- id_27733749_DOT_4&#45;&#45;id_27733749_DOT_7 -->
<g id="edge3" class="edge">
<title>id_27733749_DOT_4&#45;&#45;id_27733749_DOT_7</title>
<path fill="none" stroke="black" d="M544.31,-3343.57C478.94,-3375.34 358.03,-3434.09 288.85,-3467.71"/>
<text text-anchor="middle" x="390.33" y="-3408.44" font-family="Times,serif" font-size="14.00">0.019490</text>
</g>
<!-- id_27733749_DOT_18 -->
<g id="node18" class="node">
<title>id_27733749_DOT_18</title>
<polygon fill="blue" stroke="blue" points="1017.99,-3246.84 1022.07,-3247.03 1026.11,-3247.32 1030.09,-3247.7 1034,-3248.18 1037.81,-3248.75 1041.52,-3249.41 1045.11,-3250.16 1048.57,-3251 1051.87,-3251.92 1055.03,-3252.93 1058.01,-3254.01 1060.81,-3255.17 1063.42,-3256.41 1065.84,-3257.71 1068.06,-3259.08 1070.06,-3260.52 1071.86,-3262.01 1073.44,-3263.56 1074.8,-3265.16 1075.95,-3266.8 1076.87,-3268.49 1077.58,-3270.21 1078.08,-3271.96 1078.36,-3273.75 1078.44,-3275.55 1078.31,-3277.37 1077.99,-3279.21 1077.48,-3281.05 1076.78,-3282.9 1075.91,-3284.74 1074.87,-3286.58 1073.68,-3288.4 1072.33,-3290.2 1070.85,-3291.99 1069.23,-3293.74 1067.48,-3295.46 1065.63,-3297.15 1063.67,-3298.79 1061.61,-3300.39 1059.46,-3301.94 1057.24,-3303.43 1054.94,-3304.87 1052.58,-3306.24 1050.16,-3307.54 1047.7,-3308.78 1045.18,-3309.94 1042.63,-3311.02 1040.04,-3312.03 1037.43,-3312.95 1034.79,-3313.79 1032.13,-3314.54 1029.46,-3315.2 1026.77,-3315.77 1024.06,-3316.25 1021.35,-3316.63 1018.64,-3316.92 1015.91,-3317.11 1013.19,-3317.21 1010.47,-3317.21 1007.74,-3317.11 1005.02,-3316.92 1002.3,-3316.63 999.59,-3316.25 996.89,-3315.77 994.2,-3315.2 991.52,-3314.54 988.87,-3313.79 986.23,-3312.95 983.61,-3312.03 981.03,-3311.02 978.47,-3309.94 975.96,-3308.78 973.49,-3307.54 971.07,-3306.24 968.71,-3304.87 966.42,-3303.43 964.19,-3301.94 962.05,-3300.39 959.99,-3298.79 958.03,-3297.15 956.17,-3295.46 954.43,-3293.74 952.81,-3291.99 951.32,-3290.2 949.98,-3288.4 948.78,-3286.58 947.75,-3284.74 946.88,-3282.9 946.18,-3281.05 945.67,-3279.21 945.35,-3277.37 945.22,-3275.55 945.3,-3273.75 945.58,-3271.96 946.07,-3270.21 946.78,-3268.49 947.71,-3266.8 948.85,-3265.16 950.22,-3263.56 951.8,-3262.01 953.59,-3260.52 955.6,-3259.08 957.82,-3257.71 960.23,-3256.41 962.85,-3255.17 965.65,-3254.01 968.63,-3252.93 971.78,-3251.92 975.09,-3251 978.55,-3250.16 982.14,-3249.41 985.85,-3248.75 989.66,-3248.18 993.57,-3247.7 997.55,-3247.32 1001.58,-3247.03 1005.66,-3246.84 1009.77,-3246.74 1013.89,-3246.74 1017.99,-3246.84"/>
<text text-anchor="start" x="982.66" y="-3291.78" font-family="Times,serif" font-size="14.00">C0018257</text>
<text text-anchor="start" x="975.47" y="-3277.78" font-family="Times,serif" font-size="14.00">group homes</text>
<text text-anchor="start" x="988.88" y="-3263.78" font-family="Times,serif" font-size="14.00">178:179</text>
</g>
<!-- id_27733749_DOT_4&#45;&#45;id_27733749_DOT_18 -->
<g id="edge4" class="edge">
<title>id_27733749_DOT_4&#45;&#45;id_27733749_DOT_18</title>
<path fill="none" stroke="black" d="M656.28,-3315.4C736.79,-3307.83 870.86,-3295.23 949.33,-3287.85"/>
<text text-anchor="middle" x="776.55" y="-3304.42" font-family="Times,serif" font-size="14.00">0.057675</text>
</g>
<!-- id_27733749_DOT_5 -->
<g id="node5" class="node">
<title>id_27733749_DOT_5</title>
<polygon fill="blueviolet" stroke="blueviolet" points="2044.83,-4063.23 2049.05,-4063.42 2053.22,-4063.71 2057.33,-4064.09 2061.37,-4064.57 2065.31,-4065.14 2069.14,-4065.8 2072.85,-4066.55 2076.42,-4067.39 2079.84,-4068.31 2083.09,-4069.32 2086.17,-4070.4 2089.07,-4071.56 2091.77,-4072.8 2094.27,-4074.1 2096.56,-4075.48 2098.63,-4076.91 2100.49,-4078.4 2102.12,-4079.95 2103.53,-4081.55 2104.71,-4083.19 2105.67,-4084.88 2106.4,-4086.6 2106.91,-4088.36 2107.2,-4090.14 2107.28,-4091.94 2107.15,-4093.77 2106.82,-4095.6 2106.29,-4097.44 2105.57,-4099.29 2104.67,-4101.13 2103.6,-4102.97 2102.37,-4104.79 2100.97,-4106.6 2099.44,-4108.38 2097.77,-4110.13 2095.97,-4111.86 2094.05,-4113.54 2092.02,-4115.19 2089.9,-4116.78 2087.68,-4118.33 2085.38,-4119.82 2083.01,-4121.26 2080.57,-4122.63 2078.07,-4123.93 2075.52,-4125.17 2072.93,-4126.33 2070.29,-4127.42 2067.62,-4128.42 2064.92,-4129.34 2062.19,-4130.18 2059.44,-4130.93 2056.68,-4131.59 2053.9,-4132.16 2051.11,-4132.64 2048.31,-4133.02 2045.5,-4133.31 2042.69,-4133.51 2039.87,-4133.6 2037.06,-4133.6 2034.24,-4133.51 2031.43,-4133.31 2028.63,-4133.02 2025.83,-4132.64 2023.04,-4132.16 2020.26,-4131.59 2017.49,-4130.93 2014.74,-4130.18 2012.02,-4129.34 2009.32,-4128.42 2006.65,-4127.42 2004.01,-4126.33 2001.41,-4125.17 1998.86,-4123.93 1996.36,-4122.63 1993.92,-4121.26 1991.55,-4119.82 1989.25,-4118.33 1987.04,-4116.78 1984.91,-4115.19 1982.88,-4113.54 1980.97,-4111.86 1979.17,-4110.13 1977.5,-4108.38 1975.96,-4106.6 1974.57,-4104.79 1973.33,-4102.97 1972.26,-4101.13 1971.36,-4099.29 1970.64,-4097.44 1970.12,-4095.6 1969.78,-4093.77 1969.65,-4091.94 1969.73,-4090.14 1970.02,-4088.36 1970.54,-4086.6 1971.27,-4084.88 1972.22,-4083.19 1973.41,-4081.55 1974.81,-4079.95 1976.45,-4078.4 1978.3,-4076.91 1980.38,-4075.48 1982.67,-4074.1 1985.16,-4072.8 1987.86,-4071.56 1990.76,-4070.4 1993.84,-4069.32 1997.09,-4068.31 2000.51,-4067.39 2004.08,-4066.55 2007.79,-4065.8 2011.62,-4065.14 2015.56,-4064.57 2019.6,-4064.09 2023.71,-4063.71 2027.88,-4063.42 2032.1,-4063.23 2036.34,-4063.13 2040.59,-4063.13 2044.83,-4063.23"/>
<text text-anchor="start" x="2009.3" y="-4108.17" font-family="Times,serif" font-size="14.00">C1561598</text>
<text text-anchor="start" x="2000.88" y="-4094.17" font-family="Times,serif" font-size="14.00">organizations</text>
<text text-anchor="start" x="2022.52" y="-4080.17" font-family="Times,serif" font-size="14.00">42:42</text>
</g>
<!-- id_27733749_DOT_21 -->
<g id="node21" class="node">
<title>id_27733749_DOT_21</title>
<polygon fill="darkkhaki" stroke="darkkhaki" points="2199.65,-4407.05 2203.08,-4407.25 2206.47,-4407.53 2209.81,-4407.92 2213.1,-4408.4 2216.3,-4408.97 2219.42,-4409.63 2222.43,-4410.38 2225.33,-4411.22 2228.11,-4412.14 2230.76,-4413.14 2233.27,-4414.23 2235.62,-4415.39 2237.82,-4416.62 2239.85,-4417.93 2241.71,-4419.3 2243.4,-4420.73 2244.9,-4422.23 2246.23,-4423.77 2247.38,-4425.37 2248.34,-4427.02 2249.12,-4428.7 2249.71,-4430.43 2250.13,-4432.18 2250.36,-4433.96 2250.43,-4435.77 2250.32,-4437.59 2250.05,-4439.43 2249.62,-4441.27 2249.04,-4443.11 2248.31,-4444.96 2247.44,-4446.79 2246.43,-4448.61 2245.3,-4450.42 2244.05,-4452.2 2242.69,-4453.96 2241.23,-4455.68 2239.67,-4457.37 2238.02,-4459.01 2236.29,-4460.61 2234.49,-4462.16 2232.62,-4463.65 2230.69,-4465.08 2228.71,-4466.45 2226.68,-4467.76 2224.6,-4468.99 2222.49,-4470.16 2220.35,-4471.24 2218.18,-4472.24 2215.98,-4473.17 2213.76,-4474.01 2211.53,-4474.76 2209.28,-4475.42 2207.02,-4475.99 2204.75,-4476.46 2202.47,-4476.85 2200.19,-4477.14 2197.91,-4477.33 2195.62,-4477.43 2193.33,-4477.43 2191.04,-4477.33 2188.75,-4477.14 2186.47,-4476.85 2184.19,-4476.46 2181.92,-4475.99 2179.66,-4475.42 2177.42,-4474.76 2175.18,-4474.01 2172.96,-4473.17 2170.77,-4472.24 2168.6,-4471.24 2166.45,-4470.16 2164.34,-4468.99 2162.27,-4467.76 2160.24,-4466.45 2158.25,-4465.08 2156.32,-4463.65 2154.45,-4462.16 2152.65,-4460.61 2150.92,-4459.01 2149.28,-4457.37 2147.72,-4455.68 2146.25,-4453.96 2144.89,-4452.2 2143.64,-4450.42 2142.51,-4448.61 2141.51,-4446.79 2140.64,-4444.96 2139.91,-4443.11 2139.32,-4441.27 2138.89,-4439.43 2138.62,-4437.59 2138.52,-4435.77 2138.58,-4433.96 2138.82,-4432.18 2139.23,-4430.43 2139.83,-4428.7 2140.61,-4427.02 2141.57,-4425.37 2142.71,-4423.77 2144.04,-4422.23 2145.55,-4420.73 2147.24,-4419.3 2149.1,-4417.93 2151.13,-4416.62 2153.32,-4415.39 2155.68,-4414.23 2158.18,-4413.14 2160.83,-4412.14 2163.61,-4411.22 2166.51,-4410.38 2169.53,-4409.63 2172.64,-4408.97 2175.85,-4408.4 2179.13,-4407.92 2182.47,-4407.53 2185.87,-4407.25 2189.29,-4407.05 2192.74,-4406.96 2196.2,-4406.96 2199.65,-4407.05"/>
<text text-anchor="start" x="2165.3" y="-4451.99" font-family="Times,serif" font-size="14.00">C0032615</text>
<text text-anchor="start" x="2174.37" y="-4437.99" font-family="Times,serif" font-size="14.00">PUFAs</text>
<text text-anchor="start" x="2171.53" y="-4423.99" font-family="Times,serif" font-size="14.00">199:199</text>
</g>
<!-- id_27733749_DOT_5&#45;&#45;id_27733749_DOT_21 -->
<g id="edge13" class="edge">
<title>id_27733749_DOT_5&#45;&#45;id_27733749_DOT_21</title>
<path fill="none" stroke="black" stroke-dasharray="1,5" d="M2053.85,-4132.27C2083.64,-4197.92 2148.89,-4341.72 2178.86,-4407.77"/>
<text text-anchor="middle" x="2090.1" y="-4272.82" font-family="Times,serif" font-size="14.00">0.803895</text>
</g>
<!-- id_27733749_DOT_25 -->
<g id="node25" class="node">
<title>id_27733749_DOT_25</title>
<polygon fill="blueviolet" stroke="blueviolet" points="1875.99,-3712.82 1880.21,-3713.01 1884.38,-3713.3 1888.49,-3713.68 1892.53,-3714.16 1896.47,-3714.73 1900.3,-3715.39 1904.01,-3716.14 1907.58,-3716.98 1911,-3717.9 1914.25,-3718.91 1917.33,-3719.99 1920.23,-3721.15 1922.93,-3722.39 1925.43,-3723.69 1927.72,-3725.07 1929.79,-3726.5 1931.65,-3727.99 1933.28,-3729.54 1934.69,-3731.14 1935.87,-3732.78 1936.82,-3734.47 1937.56,-3736.19 1938.07,-3737.95 1938.36,-3739.73 1938.44,-3741.53 1938.31,-3743.36 1937.98,-3745.19 1937.45,-3747.03 1936.73,-3748.88 1935.83,-3750.72 1934.76,-3752.56 1933.52,-3754.38 1932.13,-3756.18 1930.6,-3757.97 1928.92,-3759.72 1927.12,-3761.45 1925.21,-3763.13 1923.18,-3764.78 1921.06,-3766.37 1918.84,-3767.92 1916.54,-3769.41 1914.17,-3770.85 1911.73,-3772.22 1909.23,-3773.52 1906.68,-3774.76 1904.08,-3775.92 1901.45,-3777 1898.78,-3778.01 1896.07,-3778.93 1893.35,-3779.77 1890.6,-3780.52 1887.84,-3781.18 1885.06,-3781.75 1882.27,-3782.23 1879.47,-3782.61 1876.66,-3782.9 1873.85,-3783.1 1871.03,-3783.19 1868.22,-3783.19 1865.4,-3783.1 1862.59,-3782.9 1859.78,-3782.61 1856.98,-3782.23 1854.19,-3781.75 1851.41,-3781.18 1848.65,-3780.52 1845.9,-3779.77 1843.18,-3778.93 1840.47,-3778.01 1837.8,-3777 1835.17,-3775.92 1832.57,-3774.76 1830.02,-3773.52 1827.52,-3772.22 1825.08,-3770.85 1822.71,-3769.41 1820.41,-3767.92 1818.19,-3766.37 1816.07,-3764.78 1814.04,-3763.13 1812.13,-3761.45 1810.33,-3759.72 1808.65,-3757.97 1807.12,-3756.18 1805.73,-3754.38 1804.49,-3752.56 1803.42,-3750.72 1802.52,-3748.88 1801.8,-3747.03 1801.27,-3745.19 1800.94,-3743.36 1800.81,-3741.53 1800.89,-3739.73 1801.18,-3737.95 1801.69,-3736.19 1802.43,-3734.47 1803.38,-3732.78 1804.57,-3731.14 1805.97,-3729.54 1807.61,-3727.99 1809.46,-3726.5 1811.53,-3725.07 1813.82,-3723.69 1816.32,-3722.39 1819.02,-3721.15 1821.92,-3719.99 1825,-3718.91 1828.25,-3717.9 1831.67,-3716.98 1835.24,-3716.14 1838.95,-3715.39 1842.78,-3714.73 1846.72,-3714.16 1850.76,-3713.68 1854.87,-3713.3 1859.04,-3713.01 1863.26,-3712.82 1867.5,-3712.72 1871.75,-3712.72 1875.99,-3712.82"/>
<text text-anchor="start" x="1840.46" y="-3757.76" font-family="Times,serif" font-size="14.00">C1561598</text>
<text text-anchor="start" x="1832.04" y="-3743.76" font-family="Times,serif" font-size="14.00">organizations</text>
<text text-anchor="start" x="1846.68" y="-3729.76" font-family="Times,serif" font-size="14.00">214:214</text>
</g>
<!-- id_27733749_DOT_5&#45;&#45;id_27733749_DOT_25 -->
<g id="edge5" class="edge">
<title>id_27733749_DOT_5&#45;&#45;id_27733749_DOT_25</title>
<path fill="none" stroke="black" d="M2021.82,-4063.81C1989.37,-3996.47 1918.05,-3848.46 1885.9,-3781.74"/>
<text text-anchor="middle" x="1927.61" y="-3925.57" font-family="Times,serif" font-size="14.00">0.024929</text>
</g>
<!-- id_27733749_DOT_6 -->
<g id="node6" class="node">
<title>id_27733749_DOT_6</title>
<polygon fill="brown" stroke="brown" points="1097.82,-2877.69 1101.24,-2877.88 1104.64,-2878.17 1107.98,-2878.56 1111.26,-2879.03 1114.47,-2879.6 1117.58,-2880.26 1120.6,-2881.02 1123.5,-2881.85 1126.28,-2882.78 1128.93,-2883.78 1131.43,-2884.87 1133.79,-2886.03 1135.98,-2887.26 1138.01,-2888.57 1139.87,-2889.94 1141.56,-2891.37 1143.07,-2892.86 1144.4,-2894.41 1145.54,-2896.01 1146.5,-2897.65 1147.28,-2899.34 1147.88,-2901.06 1148.29,-2902.82 1148.53,-2904.6 1148.59,-2906.41 1148.49,-2908.23 1148.22,-2910.06 1147.79,-2911.91 1147.2,-2913.75 1146.47,-2915.59 1145.6,-2917.43 1144.6,-2919.25 1143.47,-2921.06 1142.22,-2922.84 1140.86,-2924.59 1139.39,-2926.32 1137.83,-2928 1136.19,-2929.65 1134.46,-2931.25 1132.66,-2932.79 1130.79,-2934.29 1128.86,-2935.72 1126.87,-2937.09 1124.84,-2938.4 1122.77,-2939.63 1120.66,-2940.79 1118.51,-2941.88 1116.34,-2942.88 1114.14,-2943.81 1111.93,-2944.64 1109.69,-2945.39 1107.45,-2946.05 1105.19,-2946.63 1102.92,-2947.1 1100.64,-2947.49 1098.36,-2947.78 1096.07,-2947.97 1093.78,-2948.06 1091.49,-2948.06 1089.2,-2947.97 1086.92,-2947.78 1084.64,-2947.49 1082.36,-2947.1 1080.09,-2946.63 1077.83,-2946.05 1075.58,-2945.39 1073.35,-2944.64 1071.13,-2943.81 1068.93,-2942.88 1066.76,-2941.88 1064.62,-2940.79 1062.51,-2939.63 1060.43,-2938.4 1058.4,-2937.09 1056.42,-2935.72 1054.49,-2934.29 1052.62,-2932.79 1050.82,-2931.25 1049.09,-2929.65 1047.44,-2928 1045.88,-2926.32 1044.42,-2924.59 1043.06,-2922.84 1041.81,-2921.06 1040.68,-2919.25 1039.67,-2917.43 1038.8,-2915.59 1038.07,-2913.75 1037.49,-2911.91 1037.06,-2910.06 1036.79,-2908.23 1036.68,-2906.41 1036.74,-2904.6 1036.98,-2902.82 1037.4,-2901.06 1037.99,-2899.34 1038.77,-2897.65 1039.73,-2896.01 1040.88,-2894.41 1042.21,-2892.86 1043.71,-2891.37 1045.4,-2889.94 1047.26,-2888.57 1049.29,-2887.26 1051.49,-2886.03 1053.84,-2884.87 1056.35,-2883.78 1059,-2882.78 1061.78,-2881.85 1064.68,-2881.02 1067.69,-2880.26 1070.81,-2879.6 1074.01,-2879.03 1077.29,-2878.56 1080.64,-2878.17 1084.03,-2877.88 1087.46,-2877.69 1090.91,-2877.59 1094.37,-2877.59 1097.82,-2877.69"/>
<text text-anchor="start" x="1063.47" y="-2922.63" font-family="Times,serif" font-size="14.00">C2603343</text>
<text text-anchor="start" x="1077.47" y="-2908.63" font-family="Times,serif" font-size="14.00">study</text>
<text text-anchor="start" x="1076.69" y="-2894.63" font-family="Times,serif" font-size="14.00">49:49</text>
</g>
<!-- id_27733749_DOT_6&#45;&#45;id_27733749_DOT_17 -->
<g id="edge14" class="edge">
<title>id_27733749_DOT_6&#45;&#45;id_27733749_DOT_17</title>
<path fill="none" stroke="black" stroke-dasharray="1,5" d="M1134.29,-2931.75C1187.96,-2956.13 1281.72,-2998.73 1343.92,-3026.98"/>
<text text-anchor="middle" x="1212.86" y="-2982.17" font-family="Times,serif" font-size="14.00">0.939886</text>
</g>
<!-- id_27733749_DOT_8 -->
<g id="node8" class="node">
<title>id_27733749_DOT_8</title>
<polygon fill="cadetblue" stroke="cadetblue" points="2923.15,-1708.99 2928.7,-1709.19 2934.2,-1709.47 2939.61,-1709.86 2944.92,-1710.34 2950.11,-1710.91 2955.16,-1711.57 2960.04,-1712.32 2964.74,-1713.15 2969.24,-1714.08 2973.52,-1715.08 2977.58,-1716.17 2981.39,-1717.33 2984.95,-1718.56 2988.23,-1719.87 2991.25,-1721.24 2993.98,-1722.67 2996.42,-1724.17 2998.57,-1725.71 3000.42,-1727.31 3001.98,-1728.96 3003.24,-1730.64 3004.2,-1732.37 3004.88,-1734.12 3005.26,-1735.9 3005.37,-1737.71 3005.19,-1739.53 3004.76,-1741.37 3004.06,-1743.21 3003.11,-1745.05 3001.93,-1746.9 3000.52,-1748.73 2998.89,-1750.55 2997.06,-1752.36 2995.04,-1754.14 2992.84,-1755.9 2990.47,-1757.62 2987.95,-1759.31 2985.28,-1760.95 2982.48,-1762.55 2979.56,-1764.1 2976.54,-1765.59 2973.41,-1767.02 2970.2,-1768.39 2966.91,-1769.7 2963.55,-1770.93 2960.14,-1772.09 2956.66,-1773.18 2953.15,-1774.18 2949.59,-1775.11 2946,-1775.94 2942.39,-1776.7 2938.75,-1777.36 2935.09,-1777.93 2931.41,-1778.4 2927.73,-1778.79 2924.03,-1779.08 2920.33,-1779.27 2916.62,-1779.37 2912.92,-1779.37 2909.21,-1779.27 2905.51,-1779.08 2901.82,-1778.79 2898.13,-1778.4 2894.46,-1777.93 2890.8,-1777.36 2887.16,-1776.7 2883.54,-1775.94 2879.95,-1775.11 2876.39,-1774.18 2872.88,-1773.18 2869.41,-1772.09 2865.99,-1770.93 2862.63,-1769.7 2859.34,-1768.39 2856.13,-1767.02 2853.01,-1765.59 2849.98,-1764.1 2847.06,-1762.55 2844.26,-1760.95 2841.6,-1759.31 2839.07,-1757.62 2836.7,-1755.9 2834.5,-1754.14 2832.48,-1752.36 2830.65,-1750.55 2829.02,-1748.73 2827.61,-1746.9 2826.43,-1745.05 2825.48,-1743.21 2824.79,-1741.37 2824.35,-1739.53 2824.18,-1737.71 2824.28,-1735.9 2824.67,-1734.12 2825.34,-1732.37 2826.3,-1730.64 2827.56,-1728.96 2829.12,-1727.31 2830.97,-1725.71 2833.12,-1724.17 2835.56,-1722.67 2838.29,-1721.24 2841.31,-1719.87 2844.6,-1718.56 2848.15,-1717.33 2851.96,-1716.17 2856.02,-1715.08 2860.3,-1714.08 2864.81,-1713.15 2869.51,-1712.32 2874.39,-1711.57 2879.43,-1710.91 2884.62,-1710.34 2889.93,-1709.86 2895.34,-1709.47 2900.84,-1709.19 2906.39,-1708.99 2911.97,-1708.9 2917.57,-1708.9 2923.15,-1708.99"/>
<text text-anchor="start" x="2885.6" y="-1753.93" font-family="Times,serif" font-size="14.00">C0683971</text>
<text text-anchor="start" x="2862.48" y="-1739.93" font-family="Times,serif" font-size="14.00">general population</text>
<text text-anchor="start" x="2898.83" y="-1725.93" font-family="Times,serif" font-size="14.00">85:86</text>
</g>
<!-- id_27733749_DOT_27 -->
<g id="node27" class="node">
<title>id_27733749_DOT_27</title>
<polygon fill="cadetblue" stroke="cadetblue" points="2549.61,-1850.65 2555.16,-1850.84 2560.65,-1851.13 2566.06,-1851.52 2571.38,-1851.99 2576.56,-1852.56 2581.61,-1853.23 2586.49,-1853.98 2591.19,-1854.81 2595.69,-1855.74 2599.98,-1856.74 2604.03,-1857.83 2607.84,-1858.99 2611.4,-1860.22 2614.69,-1861.53 2617.7,-1862.9 2620.43,-1864.33 2622.87,-1865.83 2625.02,-1867.37 2626.88,-1868.97 2628.43,-1870.62 2629.69,-1872.3 2630.66,-1874.02 2631.33,-1875.78 2631.71,-1877.56 2631.82,-1879.37 2631.65,-1881.19 2631.21,-1883.03 2630.51,-1884.87 2629.57,-1886.71 2628.38,-1888.56 2626.97,-1890.39 2625.35,-1892.21 2623.52,-1894.02 2621.49,-1895.8 2619.29,-1897.56 2616.92,-1899.28 2614.4,-1900.96 2611.73,-1902.61 2608.93,-1904.21 2606.01,-1905.75 2602.99,-1907.25 2599.86,-1908.68 2596.65,-1910.05 2593.36,-1911.36 2590.01,-1912.59 2586.59,-1913.75 2583.12,-1914.84 2579.6,-1915.84 2576.04,-1916.77 2572.46,-1917.6 2568.84,-1918.35 2565.2,-1919.02 2561.54,-1919.59 2557.87,-1920.06 2554.18,-1920.45 2550.48,-1920.74 2546.78,-1920.93 2543.08,-1921.03 2539.37,-1921.03 2535.67,-1920.93 2531.96,-1920.74 2528.27,-1920.45 2524.58,-1920.06 2520.91,-1919.59 2517.25,-1919.02 2513.61,-1918.35 2509.99,-1917.6 2506.4,-1916.77 2502.85,-1915.84 2499.33,-1914.84 2495.86,-1913.75 2492.44,-1912.59 2489.08,-1911.36 2485.79,-1910.05 2482.58,-1908.68 2479.46,-1907.25 2476.43,-1905.75 2473.52,-1904.21 2470.72,-1902.61 2468.05,-1900.96 2465.53,-1899.28 2463.16,-1897.56 2460.95,-1895.8 2458.93,-1894.02 2457.1,-1892.21 2455.47,-1890.39 2454.06,-1888.56 2452.88,-1886.71 2451.94,-1884.87 2451.24,-1883.03 2450.8,-1881.19 2450.63,-1879.37 2450.73,-1877.56 2451.12,-1875.78 2451.79,-1874.02 2452.76,-1872.3 2454.02,-1870.62 2455.57,-1868.97 2457.43,-1867.37 2459.57,-1865.83 2462.02,-1864.33 2464.75,-1862.9 2467.76,-1861.53 2471.05,-1860.22 2474.61,-1858.99 2478.42,-1857.83 2482.47,-1856.74 2486.76,-1855.74 2491.26,-1854.81 2495.96,-1853.98 2500.84,-1853.23 2505.88,-1852.56 2511.07,-1851.99 2516.38,-1851.52 2521.8,-1851.13 2527.29,-1850.84 2532.84,-1850.65 2538.43,-1850.56 2544.02,-1850.56 2549.61,-1850.65"/>
<text text-anchor="start" x="2512.05" y="-1895.59" font-family="Times,serif" font-size="14.00">C0683971</text>
<text text-anchor="start" x="2488.94" y="-1881.59" font-family="Times,serif" font-size="14.00">general population</text>
<text text-anchor="start" x="2518.28" y="-1867.59" font-family="Times,serif" font-size="14.00">238:239</text>
</g>
<!-- id_27733749_DOT_8&#45;&#45;id_27733749_DOT_27 -->
<g id="edge6" class="edge">
<title>id_27733749_DOT_8&#45;&#45;id_27733749_DOT_27</title>
<path fill="none" stroke="black" d="M2855.17,-1766.73C2788.43,-1792.04 2680.44,-1833 2610.13,-1859.66"/>
<text text-anchor="middle" x="2706.4" y="-1816" font-family="Times,serif" font-size="14.00">0.009616</text>
</g>
<!-- id_27733749_DOT_28 -->
<g id="node28" class="node">
<title>id_27733749_DOT_28</title>
<polygon fill="darksalmon" stroke="darksalmon" points="3269.49,-1562.35 3272.92,-1562.54 3276.31,-1562.83 3279.65,-1563.22 3282.94,-1563.69 3286.14,-1564.26 3289.26,-1564.92 3292.27,-1565.68 3295.17,-1566.51 3297.95,-1567.44 3300.6,-1568.44 3303.11,-1569.53 3305.46,-1570.69 3307.66,-1571.92 3309.69,-1573.23 3311.55,-1574.6 3313.24,-1576.03 3314.74,-1577.52 3316.07,-1579.07 3317.22,-1580.67 3318.18,-1582.31 3318.95,-1584 3319.55,-1585.72 3319.97,-1587.48 3320.2,-1589.26 3320.27,-1591.07 3320.16,-1592.89 3319.89,-1594.72 3319.46,-1596.57 3318.88,-1598.41 3318.15,-1600.25 3317.28,-1602.09 3316.27,-1603.91 3315.14,-1605.72 3313.89,-1607.5 3312.53,-1609.26 3311.07,-1610.98 3309.51,-1612.66 3307.86,-1614.31 3306.13,-1615.91 3304.33,-1617.45 3302.46,-1618.95 3300.53,-1620.38 3298.55,-1621.75 3296.52,-1623.06 3294.44,-1624.29 3292.33,-1625.45 3290.19,-1626.54 3288.02,-1627.54 3285.82,-1628.47 3283.6,-1629.3 3281.37,-1630.05 3279.12,-1630.71 3276.86,-1631.29 3274.59,-1631.76 3272.31,-1632.15 3270.03,-1632.44 3267.74,-1632.63 3265.46,-1632.72 3263.17,-1632.72 3260.88,-1632.63 3258.59,-1632.44 3256.31,-1632.15 3254.03,-1631.76 3251.76,-1631.29 3249.5,-1630.71 3247.25,-1630.05 3245.02,-1629.3 3242.8,-1628.47 3240.61,-1627.54 3238.44,-1626.54 3236.29,-1625.45 3234.18,-1624.29 3232.11,-1623.06 3230.07,-1621.75 3228.09,-1620.38 3226.16,-1618.95 3224.29,-1617.45 3222.49,-1615.91 3220.76,-1614.31 3219.11,-1612.66 3217.56,-1610.98 3216.09,-1609.26 3214.73,-1607.5 3213.48,-1605.72 3212.35,-1603.91 3211.35,-1602.09 3210.48,-1600.25 3209.75,-1598.41 3209.16,-1596.57 3208.73,-1594.72 3208.46,-1592.89 3208.36,-1591.07 3208.42,-1589.26 3208.66,-1587.48 3209.07,-1585.72 3209.67,-1584 3210.45,-1582.31 3211.41,-1580.67 3212.55,-1579.07 3213.88,-1577.52 3215.39,-1576.03 3217.07,-1574.6 3218.94,-1573.23 3220.97,-1571.92 3223.16,-1570.69 3225.52,-1569.53 3228.02,-1568.44 3230.67,-1567.44 3233.45,-1566.51 3236.35,-1565.68 3239.37,-1564.92 3242.48,-1564.26 3245.69,-1563.69 3248.97,-1563.22 3252.31,-1562.83 3255.71,-1562.54 3259.13,-1562.35 3262.58,-1562.25 3266.04,-1562.25 3269.49,-1562.35"/>
<text text-anchor="start" x="3235.14" y="-1607.29" font-family="Times,serif" font-size="14.00">C0018270</text>
<text text-anchor="start" x="3244.48" y="-1593.29" font-family="Times,serif" font-size="14.00">growth</text>
<text text-anchor="start" x="3241.37" y="-1579.29" font-family="Times,serif" font-size="14.00">250:250</text>
</g>
<!-- id_27733749_DOT_8&#45;&#45;id_27733749_DOT_28 -->
<g id="edge15" class="edge">
<title>id_27733749_DOT_8&#45;&#45;id_27733749_DOT_28</title>
<path fill="none" stroke="black" stroke-dasharray="1,5" d="M2980.11,-1716.72C3050.75,-1687.08 3161.3,-1640.7 3221.59,-1615.41"/>
<text text-anchor="middle" x="3074.6" y="-1668.87" font-family="Times,serif" font-size="14.00">0.742562</text>
</g>
<!-- id_27733749_DOT_26 -->
<g id="node26" class="node">
<title>id_27733749_DOT_26</title>
<polygon fill="aquamarine" stroke="aquamarine" points="1206.64,-1495.61 1213.06,-1495.81 1219.41,-1496.1 1225.67,-1496.48 1231.81,-1496.96 1237.81,-1497.53 1243.64,-1498.19 1249.29,-1498.94 1254.72,-1499.78 1259.92,-1500.7 1264.88,-1501.71 1269.57,-1502.79 1273.97,-1503.95 1278.08,-1505.19 1281.89,-1506.49 1285.37,-1507.86 1288.53,-1509.3 1291.35,-1510.79 1293.84,-1512.34 1295.98,-1513.94 1297.78,-1515.58 1299.23,-1517.27 1300.35,-1518.99 1301.13,-1520.74 1301.57,-1522.53 1301.69,-1524.33 1301.49,-1526.15 1300.99,-1527.99 1300.18,-1529.83 1299.09,-1531.68 1297.72,-1533.52 1296.09,-1535.35 1294.21,-1537.18 1292.09,-1538.98 1289.76,-1540.76 1287.21,-1542.52 1284.47,-1544.24 1281.55,-1545.93 1278.47,-1547.57 1275.23,-1549.17 1271.86,-1550.72 1268.36,-1552.21 1264.75,-1553.65 1261.04,-1555.02 1257.23,-1556.32 1253.35,-1557.56 1249.4,-1558.72 1245.39,-1559.8 1241.32,-1560.81 1237.21,-1561.73 1233.06,-1562.57 1228.88,-1563.32 1224.67,-1563.98 1220.44,-1564.55 1216.19,-1565.03 1211.93,-1565.41 1207.66,-1565.7 1203.38,-1565.89 1199.09,-1565.99 1194.81,-1565.99 1190.53,-1565.89 1186.25,-1565.7 1181.97,-1565.41 1177.71,-1565.03 1173.46,-1564.55 1169.23,-1563.98 1165.02,-1563.32 1160.84,-1562.57 1156.69,-1561.73 1152.58,-1560.81 1148.52,-1559.8 1144.5,-1558.72 1140.55,-1557.56 1136.67,-1556.32 1132.87,-1555.02 1129.15,-1553.65 1125.54,-1552.21 1122.04,-1550.72 1118.67,-1549.17 1115.43,-1547.57 1112.35,-1545.93 1109.43,-1544.24 1106.69,-1542.52 1104.15,-1540.76 1101.81,-1538.98 1099.69,-1537.18 1097.81,-1535.35 1096.18,-1533.52 1094.81,-1531.68 1093.72,-1529.83 1092.92,-1527.99 1092.41,-1526.15 1092.21,-1524.33 1092.33,-1522.53 1092.78,-1520.74 1093.55,-1518.99 1094.67,-1517.27 1096.13,-1515.58 1097.92,-1513.94 1100.07,-1512.34 1102.55,-1510.79 1105.38,-1509.3 1108.53,-1507.86 1112.02,-1506.49 1115.82,-1505.19 1119.93,-1503.95 1124.34,-1502.79 1129.02,-1501.71 1133.98,-1500.7 1139.18,-1499.78 1144.62,-1498.94 1150.26,-1498.19 1156.09,-1497.53 1162.09,-1496.96 1168.23,-1496.48 1174.49,-1496.1 1180.84,-1495.81 1187.26,-1495.61 1193.72,-1495.52 1200.19,-1495.52 1206.64,-1495.61"/>
<text text-anchor="start" x="1167.78" y="-1540.55" font-family="Times,serif" font-size="14.00">C0392209</text>
<text text-anchor="start" x="1135.32" y="-1526.55" font-family="Times,serif" font-size="14.00">Nutritional conditions</text>
<text text-anchor="start" x="1174.01" y="-1512.55" font-family="Times,serif" font-size="14.00">224:225</text>
</g>
<!-- id_27733749_DOT_9&#45;&#45;id_27733749_DOT_26 -->
<g id="edge16" class="edge">
<title>id_27733749_DOT_9&#45;&#45;id_27733749_DOT_26</title>
<path fill="none" stroke="black" stroke-dasharray="1,5" d="M1402.36,-1854.21C1358.77,-1785.57 1261.97,-1633.13 1218.64,-1564.91"/>
<text text-anchor="middle" x="1284.25" y="-1712.36" font-family="Times,serif" font-size="14.00">0.380683</text>
</g>
<!-- id_27733749_DOT_10&#45;&#45;id_27733749_DOT_26 -->
<g id="edge17" class="edge">
<title>id_27733749_DOT_10&#45;&#45;id_27733749_DOT_26</title>
<path fill="none" stroke="black" stroke-dasharray="1,5" d="M883.97,-1340.58C946.45,-1378.54 1072.75,-1455.29 1144.34,-1498.78"/>
<text text-anchor="middle" x="987.91" y="-1422.48" font-family="Times,serif" font-size="14.00">0.307850</text>
</g>
<!-- id_27733749_DOT_11 -->
<g id="node11" class="node">
<title>id_27733749_DOT_11</title>
<polygon fill="blueviolet" stroke="blueviolet" points="1675.79,-3358.12 1679.74,-3358.32 1683.66,-3358.61 1687.52,-3358.99 1691.31,-3359.47 1695.01,-3360.04 1698.61,-3360.7 1702.09,-3361.45 1705.44,-3362.29 1708.65,-3363.21 1711.71,-3364.21 1714.6,-3365.3 1717.32,-3366.46 1719.85,-3367.69 1722.2,-3369 1724.35,-3370.37 1726.3,-3371.81 1728.04,-3373.3 1729.57,-3374.85 1730.89,-3376.44 1732,-3378.09 1732.9,-3379.77 1733.59,-3381.5 1734.07,-3383.25 1734.34,-3385.03 1734.42,-3386.84 1734.29,-3388.66 1733.98,-3390.5 1733.48,-3392.34 1732.81,-3394.19 1731.97,-3396.03 1730.96,-3397.86 1729.8,-3399.69 1728.5,-3401.49 1727.05,-3403.27 1725.48,-3405.03 1723.79,-3406.75 1721.99,-3408.44 1720.09,-3410.08 1718.09,-3411.68 1716.01,-3413.23 1713.86,-3414.72 1711.63,-3416.15 1709.34,-3417.53 1706.99,-3418.83 1704.6,-3420.06 1702.16,-3421.23 1699.68,-3422.31 1697.18,-3423.32 1694.64,-3424.24 1692.08,-3425.08 1689.5,-3425.83 1686.91,-3426.49 1684.3,-3427.06 1681.68,-3427.54 1679.05,-3427.92 1676.41,-3428.21 1673.77,-3428.4 1671.13,-3428.5 1668.49,-3428.5 1665.84,-3428.4 1663.2,-3428.21 1660.57,-3427.92 1657.94,-3427.54 1655.32,-3427.06 1652.71,-3426.49 1650.11,-3425.83 1647.53,-3425.08 1644.97,-3424.24 1642.44,-3423.32 1639.93,-3422.31 1637.46,-3421.23 1635.02,-3420.06 1632.62,-3418.83 1630.28,-3417.53 1627.99,-3416.15 1625.76,-3414.72 1623.6,-3413.23 1621.52,-3411.68 1619.52,-3410.08 1617.62,-3408.44 1615.82,-3406.75 1614.13,-3405.03 1612.56,-3403.27 1611.12,-3401.49 1609.81,-3399.69 1608.65,-3397.86 1607.65,-3396.03 1606.8,-3394.19 1606.13,-3392.34 1605.63,-3390.5 1605.32,-3388.66 1605.2,-3386.84 1605.27,-3385.03 1605.55,-3383.25 1606.03,-3381.5 1606.72,-3379.77 1607.61,-3378.09 1608.72,-3376.44 1610.05,-3374.85 1611.58,-3373.3 1613.32,-3371.81 1615.27,-3370.37 1617.42,-3369 1619.76,-3367.69 1622.3,-3366.46 1625.02,-3365.3 1627.91,-3364.21 1630.96,-3363.21 1634.17,-3362.29 1637.53,-3361.45 1641.01,-3360.7 1644.6,-3360.04 1648.3,-3359.47 1652.09,-3358.99 1655.95,-3358.61 1659.87,-3358.32 1663.83,-3358.12 1667.81,-3358.03 1671.8,-3358.03 1675.79,-3358.12"/>
<text text-anchor="start" x="1640.64" y="-3403.06" font-family="Times,serif" font-size="14.00">C1561598</text>
<text text-anchor="start" x="1634.94" y="-3389.06" font-family="Times,serif" font-size="14.00">organization</text>
<text text-anchor="start" x="1646.86" y="-3375.06" font-family="Times,serif" font-size="14.00">122:122</text>
</g>
<!-- id_27733749_DOT_11&#45;&#45;id_27733749_DOT_17 -->
<g id="edge18" class="edge">
<title>id_27733749_DOT_11&#45;&#45;id_27733749_DOT_17</title>
<path fill="none" stroke="black" stroke-dasharray="1,5" d="M1643.82,-3359.94C1593.32,-3295.16 1482.47,-3152.99 1432.12,-3088.41"/>
<text text-anchor="middle" x="1511.72" y="-3226.98" font-family="Times,serif" font-size="14.00">0.573322</text>
</g>
<!-- id_27733749_DOT_11&#45;&#45;id_27733749_DOT_25 -->
<g id="edge7" class="edge">
<title>id_27733749_DOT_11&#45;&#45;id_27733749_DOT_25</title>
<path fill="none" stroke="black" d="M1688.43,-3426.31C1726.26,-3493.47 1811.79,-3645.29 1850.25,-3713.56"/>
<text text-anchor="middle" x="1743.09" y="-3572.74" font-family="Times,serif" font-size="14.00">0.140914</text>
</g>
<!-- id_27733749_DOT_12 -->
<g id="node12" class="node">
<title>id_27733749_DOT_12</title>
<polygon fill="chartreuse" stroke="chartreuse" points="206.02,-344.72 210.3,-344.91 214.54,-345.2 218.72,-345.58 222.82,-346.06 226.83,-346.63 230.72,-347.29 234.49,-348.04 238.11,-348.88 241.59,-349.8 244.9,-350.81 248.03,-351.89 250.97,-353.06 253.71,-354.29 256.25,-355.6 258.58,-356.97 260.69,-358.4 262.57,-359.89 264.23,-361.44 265.66,-363.04 266.86,-364.68 267.83,-366.37 268.58,-368.09 269.1,-369.85 269.39,-371.63 269.47,-373.43 269.34,-375.26 269,-377.09 268.47,-378.94 267.74,-380.78 266.82,-382.62 265.73,-384.46 264.48,-386.28 263.07,-388.09 261.5,-389.87 259.81,-391.62 257.98,-393.35 256.03,-395.03 253.97,-396.68 251.81,-398.28 249.56,-399.82 247.22,-401.32 244.81,-402.75 242.33,-404.12 239.79,-405.43 237.2,-406.66 234.56,-407.82 231.88,-408.91 229.17,-409.91 226.43,-410.83 223.66,-411.67 220.86,-412.42 218.05,-413.08 215.23,-413.65 212.39,-414.13 209.55,-414.52 206.7,-414.8 203.84,-415 200.98,-415.09 198.12,-415.09 195.26,-415 192.4,-414.8 189.55,-414.52 186.7,-414.13 183.87,-413.65 181.04,-413.08 178.23,-412.42 175.44,-411.67 172.67,-410.83 169.93,-409.91 167.21,-408.91 164.53,-407.82 161.9,-406.66 159.3,-405.43 156.77,-404.12 154.29,-402.75 151.88,-401.32 149.54,-399.82 147.29,-398.28 145.13,-396.68 143.07,-395.03 141.12,-393.35 139.29,-391.62 137.59,-389.87 136.03,-388.09 134.62,-386.28 133.36,-384.46 132.27,-382.62 131.36,-380.78 130.63,-378.94 130.09,-377.09 129.76,-375.26 129.62,-373.43 129.7,-371.63 130,-369.85 130.52,-368.09 131.27,-366.37 132.24,-364.68 133.44,-363.04 134.87,-361.44 136.53,-359.89 138.41,-358.4 140.52,-356.97 142.85,-355.6 145.38,-354.29 148.13,-353.06 151.07,-351.89 154.2,-350.81 157.51,-349.8 160.98,-348.88 164.61,-348.04 168.38,-347.29 172.27,-346.63 176.28,-346.06 180.38,-345.58 184.55,-345.2 188.79,-344.91 193.08,-344.72 197.39,-344.62 201.71,-344.62 206.02,-344.72"/>
<text text-anchor="start" x="170.38" y="-389.66" font-family="Times,serif" font-size="14.00">C0025663</text>
<text text-anchor="start" x="161.26" y="-375.66" font-family="Times,serif" font-size="14.00">recall method</text>
<text text-anchor="start" x="176.6" y="-361.66" font-family="Times,serif" font-size="14.00">128:129</text>
</g>
<!-- id_27733749_DOT_13 -->
<g id="node13" class="node">
<title>id_27733749_DOT_13</title>
<polygon fill="coral" stroke="coral" points="75.2,-0.23 79.41,-0.42 83.57,-0.71 87.67,-1.09 91.7,-1.57 95.64,-2.14 99.46,-2.8 103.16,-3.55 106.72,-4.39 110.14,-5.31 113.39,-6.32 116.46,-7.4 119.35,-8.57 122.05,-9.8 124.54,-11.1 126.82,-12.48 128.89,-13.91 130.75,-15.4 132.37,-16.95 133.78,-18.55 134.96,-20.19 135.91,-21.88 136.65,-23.6 137.16,-25.36 137.45,-27.14 137.53,-28.94 137.4,-30.77 137.06,-32.6 136.54,-34.44 135.82,-36.29 134.92,-38.13 133.85,-39.97 132.62,-41.79 131.23,-43.6 129.7,-45.38 128.03,-47.13 126.23,-48.86 124.32,-50.54 122.3,-52.19 120.18,-53.78 117.96,-55.33 115.67,-56.82 113.3,-58.26 110.87,-59.63 108.37,-60.94 105.83,-62.17 103.24,-63.33 100.6,-64.42 97.94,-65.42 95.24,-66.34 92.52,-67.18 89.78,-67.93 87.02,-68.59 84.24,-69.16 81.46,-69.64 78.66,-70.02 75.86,-70.31 73.06,-70.51 70.25,-70.6 67.44,-70.6 64.63,-70.51 61.82,-70.31 59.02,-70.02 56.23,-69.64 53.44,-69.16 50.67,-68.59 47.91,-67.93 45.16,-67.18 42.44,-66.34 39.75,-65.42 37.08,-64.42 34.45,-63.33 31.86,-62.17 29.31,-60.94 26.82,-59.63 24.38,-58.26 22.01,-56.82 19.72,-55.33 17.51,-53.78 15.39,-52.19 13.36,-50.54 11.45,-48.86 9.65,-47.13 7.99,-45.38 6.45,-43.6 5.06,-41.79 3.83,-39.97 2.76,-38.13 1.86,-36.29 1.15,-34.44 0.62,-32.6 0.29,-30.77 0.16,-28.94 0.24,-27.14 0.53,-25.36 1.04,-23.6 1.77,-21.88 2.72,-20.19 3.9,-18.55 5.31,-16.95 6.94,-15.4 8.79,-13.91 10.86,-12.48 13.15,-11.1 15.64,-9.8 18.33,-8.57 21.22,-7.4 24.3,-6.32 27.55,-5.31 30.96,-4.39 34.52,-3.55 38.22,-2.8 42.05,-2.14 45.98,-1.57 50.01,-1.09 54.11,-0.71 58.28,-0.42 62.49,-0.23 66.72,-0.13 70.96,-0.13 75.2,-0.23"/>
<text text-anchor="start" x="39.67" y="-45.17" font-family="Times,serif" font-size="14.00">C0034394</text>
<text text-anchor="start" x="31.13" y="-31.17" font-family="Times,serif" font-size="14.00">questionnaire</text>
<text text-anchor="start" x="45.9" y="-17.17" font-family="Times,serif" font-size="14.00">133:133</text>
</g>
<!-- id_27733749_DOT_12&#45;&#45;id_27733749_DOT_13 -->
<g id="edge19" class="edge">
<title>id_27733749_DOT_12&#45;&#45;id_27733749_DOT_13</title>
<path fill="none" stroke="black" stroke-dasharray="1,5" d="M186.3,-344.93C161.15,-278.65 106.79,-135.38 81.84,-69.62"/>
<text text-anchor="middle" x="107.82" y="-210.08" font-family="Times,serif" font-size="14.00">0.784743</text>
</g>
<!-- id_27733749_DOT_12&#45;&#45;id_27733749_DOT_22 -->
<g id="edge20" class="edge">
<title>id_27733749_DOT_12&#45;&#45;id_27733749_DOT_22</title>
<path fill="none" stroke="black" stroke-dasharray="1,5" d="M219.97,-412.82C257.43,-473.28 336.75,-601.3 374.62,-662.4"/>
<text text-anchor="middle" x="271.04" y="-540.41" font-family="Times,serif" font-size="14.00">0.753621</text>
</g>
<!-- id_27733749_DOT_14 -->
<g id="node14" class="node">
<title>id_27733749_DOT_14</title>
<polygon fill="cornflowerblue" stroke="cornflowerblue" points="2389.6,-4725.4 2393.03,-4725.59 2396.42,-4725.88 2399.76,-4726.27 2403.04,-4726.74 2406.25,-4727.31 2409.36,-4727.97 2412.38,-4728.73 2415.28,-4729.56 2418.06,-4730.49 2420.71,-4731.49 2423.21,-4732.58 2425.57,-4733.74 2427.76,-4734.97 2429.8,-4736.28 2431.66,-4737.65 2433.34,-4739.08 2434.85,-4740.57 2436.18,-4742.12 2437.32,-4743.72 2438.29,-4745.36 2439.06,-4747.05 2439.66,-4748.77 2440.07,-4750.53 2440.31,-4752.31 2440.38,-4754.12 2440.27,-4755.94 2440,-4757.77 2439.57,-4759.62 2438.99,-4761.46 2438.26,-4763.3 2437.38,-4765.14 2436.38,-4766.96 2435.25,-4768.77 2434,-4770.55 2432.64,-4772.3 2431.18,-4774.03 2429.62,-4775.71 2427.97,-4777.36 2426.24,-4778.96 2424.44,-4780.5 2422.57,-4782 2420.64,-4783.43 2418.66,-4784.8 2416.63,-4786.11 2414.55,-4787.34 2412.44,-4788.5 2410.3,-4789.59 2408.12,-4790.59 2405.93,-4791.52 2403.71,-4792.35 2401.48,-4793.1 2399.23,-4793.76 2396.97,-4794.34 2394.7,-4794.81 2392.42,-4795.2 2390.14,-4795.49 2387.85,-4795.68 2385.56,-4795.77 2383.28,-4795.77 2380.99,-4795.68 2378.7,-4795.49 2376.42,-4795.2 2374.14,-4794.81 2371.87,-4794.34 2369.61,-4793.76 2367.36,-4793.1 2365.13,-4792.35 2362.91,-4791.52 2360.72,-4790.59 2358.54,-4789.59 2356.4,-4788.5 2354.29,-4787.34 2352.21,-4786.11 2350.18,-4784.8 2348.2,-4783.43 2346.27,-4782 2344.4,-4780.5 2342.6,-4778.96 2340.87,-4777.36 2339.22,-4775.71 2337.66,-4774.03 2336.2,-4772.3 2334.84,-4770.55 2333.59,-4768.77 2332.46,-4766.96 2331.46,-4765.14 2330.58,-4763.3 2329.85,-4761.46 2329.27,-4759.62 2328.84,-4757.77 2328.57,-4755.94 2328.46,-4754.12 2328.53,-4752.31 2328.77,-4750.53 2329.18,-4748.77 2329.78,-4747.05 2330.56,-4745.36 2331.52,-4743.72 2332.66,-4742.12 2333.99,-4740.57 2335.5,-4739.08 2337.18,-4737.65 2339.04,-4736.28 2341.08,-4734.97 2343.27,-4733.74 2345.63,-4732.58 2348.13,-4731.49 2350.78,-4730.49 2353.56,-4729.56 2356.46,-4728.73 2359.48,-4727.97 2362.59,-4727.31 2365.8,-4726.74 2369.08,-4726.27 2372.42,-4725.88 2375.81,-4725.59 2379.24,-4725.4 2382.69,-4725.3 2386.15,-4725.3 2389.6,-4725.4"/>
<text text-anchor="start" x="2355.25" y="-4770.34" font-family="Times,serif" font-size="14.00">C0936012</text>
<text text-anchor="start" x="2361.87" y="-4756.34" font-family="Times,serif" font-size="14.00">analysis</text>
<text text-anchor="start" x="2361.48" y="-4742.34" font-family="Times,serif" font-size="14.00">143:143</text>
</g>
<!-- id_27733749_DOT_14&#45;&#45;id_27733749_DOT_21 -->
<g id="edge21" class="edge">
<title>id_27733749_DOT_14&#45;&#45;id_27733749_DOT_21</title>
<path fill="none" stroke="black" stroke-dasharray="1,5" d="M2364.27,-4726.77C2327.42,-4665 2249.62,-4534.62 2213.56,-4474.19"/>
<text text-anchor="middle" x="2262.92" y="-4603.28" font-family="Times,serif" font-size="14.00">0.894114</text>
</g>
<!-- id_27733749_DOT_23 -->
<g id="node23" class="node">
<title>id_27733749_DOT_23</title>
<polygon fill="darkorange" stroke="darkorange" points="2435.86,-2507.46 2439.29,-2507.65 2442.68,-2507.94 2446.03,-2508.33 2449.31,-2508.8 2452.51,-2509.38 2455.63,-2510.04 2458.64,-2510.79 2461.54,-2511.62 2464.32,-2512.55 2466.97,-2513.55 2469.48,-2514.64 2471.83,-2515.8 2474.03,-2517.03 2476.06,-2518.34 2477.92,-2519.71 2479.61,-2521.14 2481.11,-2522.64 2482.44,-2524.18 2483.59,-2525.78 2484.55,-2527.43 2485.33,-2529.11 2485.92,-2530.84 2486.34,-2532.59 2486.57,-2534.37 2486.64,-2536.18 2486.53,-2538 2486.26,-2539.84 2485.83,-2541.68 2485.25,-2543.52 2484.52,-2545.37 2483.65,-2547.2 2482.64,-2549.02 2481.51,-2550.83 2480.26,-2552.61 2478.9,-2554.37 2477.44,-2556.09 2475.88,-2557.78 2474.23,-2559.42 2472.5,-2561.02 2470.7,-2562.57 2468.83,-2564.06 2466.9,-2565.49 2464.92,-2566.86 2462.89,-2568.17 2460.81,-2569.4 2458.7,-2570.56 2456.56,-2571.65 2454.39,-2572.65 2452.19,-2573.58 2449.97,-2574.41 2447.74,-2575.17 2445.49,-2575.83 2443.23,-2576.4 2440.96,-2576.87 2438.68,-2577.26 2436.4,-2577.55 2434.12,-2577.74 2431.83,-2577.84 2429.54,-2577.84 2427.25,-2577.74 2424.96,-2577.55 2422.68,-2577.26 2420.4,-2576.87 2418.13,-2576.4 2415.87,-2575.83 2413.63,-2575.17 2411.39,-2574.41 2409.17,-2573.58 2406.98,-2572.65 2404.81,-2571.65 2402.66,-2570.56 2400.55,-2569.4 2398.48,-2568.17 2396.45,-2566.86 2394.46,-2565.49 2392.53,-2564.06 2390.66,-2562.57 2388.86,-2561.02 2387.13,-2559.42 2385.49,-2557.78 2383.93,-2556.09 2382.46,-2554.37 2381.1,-2552.61 2379.85,-2550.83 2378.72,-2549.02 2377.72,-2547.2 2376.85,-2545.37 2376.12,-2543.52 2375.53,-2541.68 2375.1,-2539.84 2374.83,-2538 2374.73,-2536.18 2374.79,-2534.37 2375.03,-2532.59 2375.44,-2530.84 2376.04,-2529.11 2376.82,-2527.43 2377.78,-2525.78 2378.92,-2524.18 2380.25,-2522.64 2381.76,-2521.14 2383.45,-2519.71 2385.31,-2518.34 2387.34,-2517.03 2389.53,-2515.8 2391.89,-2514.64 2394.39,-2513.55 2397.04,-2512.55 2399.82,-2511.62 2402.72,-2510.79 2405.74,-2510.04 2408.85,-2509.38 2412.06,-2508.8 2415.34,-2508.33 2418.68,-2507.94 2422.08,-2507.65 2425.5,-2507.46 2428.95,-2507.37 2432.41,-2507.37 2435.86,-2507.46"/>
<text text-anchor="start" x="2401.51" y="-2552.4" font-family="Times,serif" font-size="14.00">C0518043</text>
<text text-anchor="start" x="2419.41" y="-2538.4" font-family="Times,serif" font-size="14.00">iron</text>
<text text-anchor="start" x="2407.74" y="-2524.4" font-family="Times,serif" font-size="14.00">207:207</text>
</g>
<!-- id_27733749_DOT_15&#45;&#45;id_27733749_DOT_23 -->
<g id="edge22" class="edge">
<title>id_27733749_DOT_15&#45;&#45;id_27733749_DOT_23</title>
<path fill="none" stroke="black" stroke-dasharray="1,5" d="M2093.51,-2410.98C2164.53,-2438.7 2304.66,-2493.4 2379.97,-2522.8"/>
<text text-anchor="middle" x="2210.49" y="-2469.69" font-family="Times,serif" font-size="14.00">0.747960</text>
</g>
<!-- id_27733749_DOT_16 -->
<g id="node16" class="node">
<title>id_27733749_DOT_16</title>
<polygon fill="aquamarine" stroke="aquamarine" points="1397.02,-1137.14 1400.45,-1137.33 1403.84,-1137.62 1407.19,-1138 1410.47,-1138.48 1413.67,-1139.05 1416.79,-1139.71 1419.8,-1140.46 1422.71,-1141.3 1425.49,-1142.22 1428.13,-1143.23 1430.64,-1144.31 1432.99,-1145.48 1435.19,-1146.71 1437.22,-1148.01 1439.08,-1149.39 1440.77,-1150.82 1442.28,-1152.31 1443.6,-1153.86 1444.75,-1155.46 1445.71,-1157.1 1446.49,-1158.79 1447.08,-1160.51 1447.5,-1162.27 1447.74,-1164.05 1447.8,-1165.85 1447.69,-1167.68 1447.42,-1169.51 1446.99,-1171.35 1446.41,-1173.2 1445.68,-1175.04 1444.81,-1176.88 1443.8,-1178.7 1442.67,-1180.51 1441.42,-1182.29 1440.06,-1184.04 1438.6,-1185.77 1437.04,-1187.45 1435.39,-1189.1 1433.66,-1190.69 1431.86,-1192.24 1429.99,-1193.73 1428.06,-1195.17 1426.08,-1196.54 1424.05,-1197.85 1421.97,-1199.08 1419.86,-1200.24 1417.72,-1201.33 1415.55,-1202.33 1413.35,-1203.25 1411.13,-1204.09 1408.9,-1204.84 1406.65,-1205.5 1404.39,-1206.07 1402.12,-1206.55 1399.85,-1206.93 1397.56,-1207.22 1395.28,-1207.42 1392.99,-1207.51 1390.7,-1207.51 1388.41,-1207.42 1386.12,-1207.22 1383.84,-1206.93 1381.56,-1206.55 1379.29,-1206.07 1377.03,-1205.5 1374.79,-1204.84 1372.55,-1204.09 1370.34,-1203.25 1368.14,-1202.33 1365.97,-1201.33 1363.82,-1200.24 1361.71,-1199.08 1359.64,-1197.85 1357.61,-1196.54 1355.62,-1195.17 1353.69,-1193.73 1351.82,-1192.24 1350.02,-1190.69 1348.29,-1189.1 1346.65,-1187.45 1345.09,-1185.77 1343.62,-1184.04 1342.26,-1182.29 1341.01,-1180.51 1339.88,-1178.7 1338.88,-1176.88 1338.01,-1175.04 1337.28,-1173.2 1336.69,-1171.35 1336.26,-1169.51 1335.99,-1167.68 1335.89,-1165.85 1335.95,-1164.05 1336.19,-1162.27 1336.6,-1160.51 1337.2,-1158.79 1337.98,-1157.1 1338.94,-1155.46 1340.08,-1153.86 1341.41,-1152.31 1342.92,-1150.82 1344.61,-1149.39 1346.47,-1148.01 1348.5,-1146.71 1350.7,-1145.48 1353.05,-1144.31 1355.55,-1143.23 1358.2,-1142.22 1360.98,-1141.3 1363.88,-1140.46 1366.9,-1139.71 1370.02,-1139.05 1373.22,-1138.48 1376.5,-1138 1379.84,-1137.62 1383.24,-1137.33 1386.67,-1137.14 1390.11,-1137.04 1393.57,-1137.04 1397.02,-1137.14"/>
<text text-anchor="start" x="1362.67" y="-1182.08" font-family="Times,serif" font-size="14.00">C0392209</text>
<text text-anchor="start" x="1370.07" y="-1168.08" font-family="Times,serif" font-size="14.00">nutrient</text>
<text text-anchor="start" x="1368.9" y="-1154.08" font-family="Times,serif" font-size="14.00">173:173</text>
</g>
<!-- id_27733749_DOT_16&#45;&#45;id_27733749_DOT_26 -->
<g id="edge23" class="edge">
<title>id_27733749_DOT_16&#45;&#45;id_27733749_DOT_26</title>
<path fill="none" stroke="black" stroke-dasharray="1,5" d="M1374.2,-1204.72C1337.61,-1272.02 1253.73,-1426.32 1215.98,-1495.76"/>
<text text-anchor="middle" x="1268.84" y="-1353.04" font-family="Times,serif" font-size="14.00">0.449449</text>
</g>
<!-- id_27733749_DOT_17&#45;&#45;id_27733749_DOT_18 -->
<g id="edge24" class="edge">
<title>id_27733749_DOT_17&#45;&#45;id_27733749_DOT_18</title>
<path fill="none" stroke="black" stroke-dasharray="1,5" d="M1358.35,-3082.9C1282.37,-3126.55 1135.24,-3211.08 1059.47,-3254.6"/>
<text text-anchor="middle" x="1182.66" y="-3171.55" font-family="Times,serif" font-size="14.00">0.752588</text>
</g>
<!-- id_27733749_DOT_24 -->
<g id="node24" class="node">
<title>id_27733749_DOT_24</title>
<polygon fill="darkred" stroke="darkred" points="941.83,-3627.59 945.26,-3627.79 948.65,-3628.07 952,-3628.46 955.28,-3628.94 958.48,-3629.51 961.6,-3630.17 964.62,-3630.92 967.52,-3631.76 970.3,-3632.68 972.94,-3633.68 975.45,-3634.77 977.8,-3635.93 980,-3637.16 982.03,-3638.47 983.89,-3639.84 985.58,-3641.27 987.09,-3642.77 988.42,-3644.31 989.56,-3645.91 990.52,-3647.56 991.3,-3649.24 991.89,-3650.97 992.31,-3652.72 992.55,-3654.5 992.61,-3656.31 992.51,-3658.13 992.24,-3659.97 991.81,-3661.81 991.22,-3663.65 990.49,-3665.5 989.62,-3667.33 988.62,-3669.16 987.48,-3670.96 986.24,-3672.74 984.88,-3674.5 983.41,-3676.22 981.85,-3677.91 980.21,-3679.55 978.48,-3681.15 976.67,-3682.7 974.81,-3684.19 972.88,-3685.62 970.89,-3686.99 968.86,-3688.3 966.79,-3689.53 964.68,-3690.7 962.53,-3691.78 960.36,-3692.79 958.16,-3693.71 955.95,-3694.55 953.71,-3695.3 951.46,-3695.96 949.2,-3696.53 946.93,-3697.01 944.66,-3697.39 942.38,-3697.68 940.09,-3697.87 937.8,-3697.97 935.51,-3697.97 933.22,-3697.87 930.94,-3697.68 928.65,-3697.39 926.38,-3697.01 924.11,-3696.53 921.85,-3695.96 919.6,-3695.3 917.36,-3694.55 915.15,-3693.71 912.95,-3692.79 910.78,-3691.78 908.64,-3690.7 906.52,-3689.53 904.45,-3688.3 902.42,-3686.99 900.44,-3685.62 898.51,-3684.19 896.64,-3682.7 894.83,-3681.15 893.11,-3679.55 891.46,-3677.91 889.9,-3676.22 888.44,-3674.5 887.08,-3672.74 885.83,-3670.96 884.7,-3669.16 883.69,-3667.33 882.82,-3665.5 882.09,-3663.65 881.51,-3661.81 881.08,-3659.97 880.81,-3658.13 880.7,-3656.31 880.76,-3654.5 881,-3652.72 881.42,-3650.97 882.01,-3649.24 882.79,-3647.56 883.75,-3645.91 884.9,-3644.31 886.22,-3642.77 887.73,-3641.27 889.42,-3639.84 891.28,-3638.47 893.31,-3637.16 895.51,-3635.93 897.86,-3634.77 900.37,-3633.68 903.01,-3632.68 905.79,-3631.76 908.7,-3630.92 911.71,-3630.17 914.83,-3629.51 918.03,-3628.94 921.31,-3628.46 924.66,-3628.07 928.05,-3627.79 931.48,-3627.59 934.93,-3627.5 938.38,-3627.5 941.83,-3627.59"/>
<text text-anchor="start" x="907.49" y="-3672.53" font-family="Times,serif" font-size="14.00">C0489458</text>
<text text-anchor="start" x="914.5" y="-3658.53" font-family="Times,serif" font-size="14.00">calcium</text>
<text text-anchor="start" x="913.71" y="-3644.53" font-family="Times,serif" font-size="14.00">209:209</text>
</g>
<!-- id_27733749_DOT_18&#45;&#45;id_27733749_DOT_24 -->
<g id="edge25" class="edge">
<title>id_27733749_DOT_18&#45;&#45;id_27733749_DOT_24</title>
<path fill="none" stroke="black" stroke-dasharray="1,5" d="M1004.89,-3317.11C990.57,-3389.65 957.88,-3555.22 943.58,-3627.68"/>
<text text-anchor="middle" x="947.98" y="-3475.2" font-family="Times,serif" font-size="14.00">0.848022</text>
</g>
<!-- id_27733749_DOT_20 -->
<g id="node20" class="node">
<title>id_27733749_DOT_20</title>
<polygon fill="darkgreen" stroke="darkgreen" points="2174.55,-1552.75 2177.98,-1552.94 2181.37,-1553.23 2184.72,-1553.61 2188,-1554.09 2191.2,-1554.66 2194.32,-1555.32 2197.33,-1556.07 2200.23,-1556.91 2203.01,-1557.83 2205.66,-1558.84 2208.17,-1559.92 2210.52,-1561.09 2212.72,-1562.32 2214.75,-1563.62 2216.61,-1565 2218.3,-1566.43 2219.8,-1567.92 2221.13,-1569.47 2222.28,-1571.07 2223.24,-1572.71 2224.02,-1574.4 2224.61,-1576.12 2225.03,-1577.88 2225.26,-1579.66 2225.33,-1581.46 2225.22,-1583.29 2224.95,-1585.12 2224.52,-1586.96 2223.94,-1588.81 2223.21,-1590.65 2222.34,-1592.49 2221.33,-1594.31 2220.2,-1596.12 2218.95,-1597.9 2217.59,-1599.65 2216.13,-1601.38 2214.57,-1603.06 2212.92,-1604.71 2211.19,-1606.3 2209.39,-1607.85 2207.52,-1609.34 2205.59,-1610.78 2203.61,-1612.15 2201.58,-1613.46 2199.5,-1614.69 2197.39,-1615.85 2195.25,-1616.94 2193.08,-1617.94 2190.88,-1618.86 2188.66,-1619.7 2186.43,-1620.45 2184.18,-1621.11 2181.92,-1621.68 2179.65,-1622.16 2177.37,-1622.54 2175.09,-1622.83 2172.81,-1623.03 2170.52,-1623.12 2168.23,-1623.12 2165.94,-1623.03 2163.65,-1622.83 2161.37,-1622.54 2159.09,-1622.16 2156.82,-1621.68 2154.56,-1621.11 2152.32,-1620.45 2150.08,-1619.7 2147.86,-1618.86 2145.67,-1617.94 2143.5,-1616.94 2141.35,-1615.85 2139.24,-1614.69 2137.17,-1613.46 2135.14,-1612.15 2133.15,-1610.78 2131.22,-1609.34 2129.35,-1607.85 2127.55,-1606.3 2125.82,-1604.71 2124.18,-1603.06 2122.62,-1601.38 2121.15,-1599.65 2119.79,-1597.9 2118.54,-1596.12 2117.41,-1594.31 2116.41,-1592.49 2115.54,-1590.65 2114.81,-1588.81 2114.22,-1586.96 2113.79,-1585.12 2113.52,-1583.29 2113.42,-1581.46 2113.48,-1579.66 2113.72,-1577.88 2114.13,-1576.12 2114.73,-1574.4 2115.51,-1572.71 2116.47,-1571.07 2117.61,-1569.47 2118.94,-1567.92 2120.45,-1566.43 2122.14,-1565 2124,-1563.62 2126.03,-1562.32 2128.22,-1561.09 2130.58,-1559.92 2133.08,-1558.84 2135.73,-1557.83 2138.51,-1556.91 2141.41,-1556.07 2144.43,-1555.32 2147.54,-1554.66 2150.75,-1554.09 2154.03,-1553.61 2157.37,-1553.23 2160.77,-1552.94 2164.19,-1552.75 2167.64,-1552.65 2171.1,-1552.65 2174.55,-1552.75"/>
<text text-anchor="start" x="2140.2" y="-1597.69" font-family="Times,serif" font-size="14.00">C0453858</text>
<text text-anchor="start" x="2146.82" y="-1583.69" font-family="Times,serif" font-size="14.00">proteins</text>
<text text-anchor="start" x="2146.43" y="-1569.69" font-family="Times,serif" font-size="14.00">193:193</text>
</g>
<!-- id_27733749_DOT_19&#45;&#45;id_27733749_DOT_20 -->
<g id="edge26" class="edge">
<title>id_27733749_DOT_19&#45;&#45;id_27733749_DOT_20</title>
<path fill="none" stroke="black" stroke-dasharray="1,5" d="M2114.7,-1927.12C2126.22,-1855.66 2152.21,-1694.4 2163.71,-1623.02"/>
<text text-anchor="middle" x="2112.96" y="-1777.87" font-family="Times,serif" font-size="14.00">0.854941</text>
</g>
<!-- id_27733749_DOT_19&#45;&#45;id_27733749_DOT_27 -->
<g id="edge27" class="edge">
<title>id_27733749_DOT_19&#45;&#45;id_27733749_DOT_27</title>
<path fill="none" stroke="black" stroke-dasharray="1,5" d="M2181.36,-1949.53C2260.06,-1935.59 2385.32,-1913.41 2465.37,-1899.23"/>
<text text-anchor="middle" x="2297.12" y="-1927.18" font-family="Times,serif" font-size="14.00">0.760636</text>
</g>
</g>
</svg>
