<?xml version="1.0" encoding="UTF-8" standalone="no"?>
<!DOCTYPE svg PUBLIC "-//W3C//DTD SVG 1.1//EN"
 "http://www.w3.org/Graphics/SVG/1.1/DTD/svg11.dtd">
<!-- Generated by graphviz version 2.42.3 (20191010.1750)
 -->
<!-- Title: MST Pages: 1 -->
<svg width="4970pt" height="2959pt"
 viewBox="0.00 0.00 4970.49 2959.09" xmlns="http://www.w3.org/2000/svg" xmlns:xlink="http://www.w3.org/1999/xlink">
<g id="graph0" class="graph" transform="scale(1 1) rotate(0) translate(4 2955.09)">
<title>MST</title>
<polygon fill="white" stroke="transparent" points="-4,4 -4,-2955.09 4966.49,-2955.09 4966.49,4 -4,4"/>
<!-- id_27743356_DOT_1 -->
<g id="node1" class="node">
<title>id_27743356_DOT_1</title>
<polygon fill="aquamarine" stroke="aquamarine" points="1442.85,-1304.51 1451.73,-1304.7 1460.52,-1304.99 1469.18,-1305.38 1477.68,-1305.85 1485.98,-1306.42 1494.06,-1307.09 1501.87,-1307.84 1509.39,-1308.67 1516.59,-1309.6 1523.45,-1310.6 1529.94,-1311.69 1536.04,-1312.85 1541.73,-1314.08 1546.99,-1315.39 1551.81,-1316.76 1556.18,-1318.19 1560.09,-1319.69 1563.53,-1321.23 1566.49,-1322.83 1568.99,-1324.48 1571,-1326.16 1572.54,-1327.88 1573.62,-1329.64 1574.24,-1331.42 1574.4,-1333.23 1574.13,-1335.05 1573.43,-1336.89 1572.31,-1338.73 1570.8,-1340.57 1568.91,-1342.42 1566.65,-1344.25 1564.05,-1346.07 1561.12,-1347.88 1557.88,-1349.66 1554.36,-1351.42 1550.57,-1353.14 1546.53,-1354.83 1542.26,-1356.47 1537.78,-1358.07 1533.11,-1359.62 1528.27,-1361.11 1523.27,-1362.54 1518.13,-1363.91 1512.87,-1365.22 1507.5,-1366.45 1502.03,-1367.61 1496.47,-1368.7 1490.84,-1369.7 1485.15,-1370.63 1479.41,-1371.46 1473.62,-1372.22 1467.8,-1372.88 1461.94,-1373.45 1456.06,-1373.92 1450.16,-1374.31 1444.25,-1374.6 1438.33,-1374.79 1432.4,-1374.89 1426.47,-1374.89 1420.54,-1374.79 1414.61,-1374.6 1408.7,-1374.31 1402.8,-1373.92 1396.92,-1373.45 1391.07,-1372.88 1385.24,-1372.22 1379.45,-1371.46 1373.71,-1370.63 1368.02,-1369.7 1362.39,-1368.7 1356.84,-1367.61 1351.37,-1366.45 1345.99,-1365.22 1340.73,-1363.91 1335.59,-1362.54 1330.59,-1361.11 1325.75,-1359.62 1321.08,-1358.07 1316.6,-1356.47 1312.34,-1354.83 1308.3,-1353.14 1304.51,-1351.42 1300.98,-1349.66 1297.75,-1347.88 1294.82,-1346.07 1292.21,-1344.25 1289.96,-1342.42 1288.06,-1340.57 1286.55,-1338.73 1285.44,-1336.89 1284.73,-1335.05 1284.46,-1333.23 1284.63,-1331.42 1285.24,-1329.64 1286.32,-1327.88 1287.86,-1326.16 1289.88,-1324.48 1292.37,-1322.83 1295.33,-1321.23 1298.77,-1319.69 1302.68,-1318.19 1307.05,-1316.76 1311.87,-1315.39 1317.14,-1314.08 1322.83,-1312.85 1328.93,-1311.69 1335.41,-1310.6 1342.27,-1309.6 1349.47,-1308.67 1357,-1307.84 1364.81,-1307.09 1372.88,-1306.42 1381.18,-1305.85 1389.68,-1305.38 1398.34,-1304.99 1407.13,-1304.7 1416.02,-1304.51 1424.95,-1304.42 1433.91,-1304.42 1442.85,-1304.51"/>
<text text-anchor="start" x="1400.26" y="-1349.45" font-family="Times,serif" font-size="14.00">C0208205</text>
<text text-anchor="start" x="1341.16" y="-1335.45" font-family="Times,serif" font-size="14.00">immunoglobulin G N&#45;Glycome</text>
<text text-anchor="start" x="1420.49" y="-1321.45" font-family="Times,serif" font-size="14.00">6:8</text>
</g>
<!-- id_27743356_DOT_9 -->
<g id="node9" class="node">
<title>id_27743356_DOT_9</title>
<polygon fill="cadetblue" stroke="cadetblue" points="1084.6,-1209.88 1090.28,-1210.07 1095.9,-1210.36 1101.44,-1210.75 1106.87,-1211.22 1112.18,-1211.79 1117.34,-1212.46 1122.33,-1213.21 1127.14,-1214.04 1131.74,-1214.97 1136.12,-1215.97 1140.27,-1217.06 1144.17,-1218.22 1147.81,-1219.45 1151.17,-1220.76 1154.25,-1222.13 1157.05,-1223.56 1159.55,-1225.06 1161.74,-1226.6 1163.64,-1228.2 1165.23,-1229.85 1166.52,-1231.53 1167.51,-1233.25 1168.19,-1235.01 1168.59,-1236.79 1168.69,-1238.6 1168.52,-1240.42 1168.07,-1242.26 1167.36,-1244.1 1166.39,-1245.94 1165.18,-1247.79 1163.74,-1249.62 1162.08,-1251.44 1160.2,-1253.25 1158.13,-1255.03 1155.88,-1256.79 1153.46,-1258.51 1150.88,-1260.2 1148.15,-1261.84 1145.29,-1263.44 1142.3,-1264.98 1139.21,-1266.48 1136.01,-1267.91 1132.73,-1269.28 1129.36,-1270.59 1125.93,-1271.82 1122.43,-1272.98 1118.88,-1274.07 1115.28,-1275.07 1111.65,-1276 1107.98,-1276.83 1104.28,-1277.59 1100.55,-1278.25 1096.81,-1278.82 1093.05,-1279.29 1089.28,-1279.68 1085.5,-1279.97 1081.71,-1280.16 1077.92,-1280.26 1074.13,-1280.26 1070.34,-1280.16 1066.56,-1279.97 1062.78,-1279.68 1059.01,-1279.29 1055.25,-1278.82 1051.51,-1278.25 1047.78,-1277.59 1044.08,-1276.83 1040.41,-1276 1036.77,-1275.07 1033.18,-1274.07 1029.63,-1272.98 1026.13,-1271.82 1022.7,-1270.59 1019.33,-1269.28 1016.05,-1267.91 1012.85,-1266.48 1009.76,-1264.98 1006.77,-1263.44 1003.91,-1261.84 1001.18,-1260.2 998.6,-1258.51 996.18,-1256.79 993.92,-1255.03 991.85,-1253.25 989.98,-1251.44 988.32,-1249.62 986.88,-1247.79 985.67,-1245.94 984.7,-1244.1 983.99,-1242.26 983.54,-1240.42 983.36,-1238.6 983.47,-1236.79 983.86,-1235.01 984.55,-1233.25 985.54,-1231.53 986.83,-1229.85 988.42,-1228.2 990.31,-1226.6 992.51,-1225.06 995.01,-1223.56 997.8,-1222.13 1000.88,-1220.76 1004.25,-1219.45 1007.89,-1218.22 1011.78,-1217.06 1015.93,-1215.97 1020.32,-1214.97 1024.92,-1214.04 1029.73,-1213.21 1034.72,-1212.46 1039.88,-1211.79 1045.19,-1211.22 1050.62,-1210.75 1056.16,-1210.36 1061.78,-1210.07 1067.45,-1209.88 1073.17,-1209.79 1078.89,-1209.79 1084.6,-1209.88"/>
<text text-anchor="start" x="1046.86" y="-1254.82" font-family="Times,serif" font-size="14.00">C0020852</text>
<text text-anchor="start" x="1022.55" y="-1240.82" font-family="Times,serif" font-size="14.00">immunoglobulin G</text>
<text text-anchor="start" x="1060.08" y="-1226.82" font-family="Times,serif" font-size="14.00">65:66</text>
</g>
<!-- id_27743356_DOT_1&#45;&#45;id_27743356_DOT_9 -->
<g id="edge1" class="edge">
<title>id_27743356_DOT_1&#45;&#45;id_27743356_DOT_9</title>
<path fill="none" stroke="black" d="M1326.26,-1312.03C1267.99,-1296.42 1196.74,-1277.34 1145.19,-1263.54"/>
<text text-anchor="middle" x="1209.48" y="-1290.58" font-family="Times,serif" font-size="14.00">0.009356</text>
</g>
<!-- id_27743356_DOT_21 -->
<g id="node21" class="node">
<title>id_27743356_DOT_21</title>
<polygon fill="aquamarine" stroke="aquamarine" points="1803.06,-1370.92 1811.55,-1371.11 1819.96,-1371.4 1828.24,-1371.78 1836.36,-1372.26 1844.3,-1372.83 1852.02,-1373.49 1859.49,-1374.24 1866.68,-1375.08 1873.56,-1376 1880.12,-1377.01 1886.32,-1378.09 1892.15,-1379.26 1897.59,-1380.49 1902.62,-1381.8 1907.23,-1383.17 1911.41,-1384.6 1915.15,-1386.09 1918.43,-1387.64 1921.27,-1389.24 1923.65,-1390.88 1925.58,-1392.57 1927.05,-1394.29 1928.08,-1396.05 1928.67,-1397.83 1928.83,-1399.63 1928.57,-1401.46 1927.9,-1403.29 1926.83,-1405.14 1925.39,-1406.98 1923.58,-1408.82 1921.42,-1410.66 1918.93,-1412.48 1916.13,-1414.29 1913.04,-1416.07 1909.67,-1417.82 1906.04,-1419.55 1902.18,-1421.23 1898.1,-1422.88 1893.82,-1424.47 1889.36,-1426.02 1884.73,-1427.52 1879.95,-1428.95 1875.04,-1430.32 1870,-1431.63 1864.87,-1432.86 1859.64,-1434.02 1854.33,-1435.11 1848.95,-1436.11 1843.51,-1437.03 1838.02,-1437.87 1832.48,-1438.62 1826.92,-1439.28 1821.32,-1439.85 1815.7,-1440.33 1810.06,-1440.72 1804.4,-1441 1798.74,-1441.2 1793.07,-1441.29 1787.4,-1441.29 1781.73,-1441.2 1776.07,-1441 1770.42,-1440.72 1764.78,-1440.33 1759.16,-1439.85 1753.56,-1439.28 1747.99,-1438.62 1742.46,-1437.87 1736.97,-1437.03 1731.53,-1436.11 1726.15,-1435.11 1720.84,-1434.02 1715.61,-1432.86 1710.47,-1431.63 1705.44,-1430.32 1700.53,-1428.95 1695.75,-1427.52 1691.12,-1426.02 1686.66,-1424.47 1682.38,-1422.88 1678.3,-1421.23 1674.43,-1419.55 1670.81,-1417.82 1667.44,-1416.07 1664.35,-1414.29 1661.55,-1412.48 1659.06,-1410.66 1656.9,-1408.82 1655.09,-1406.98 1653.64,-1405.14 1652.58,-1403.29 1651.91,-1401.46 1651.65,-1399.63 1651.8,-1397.83 1652.39,-1396.05 1653.42,-1394.29 1654.9,-1392.57 1656.83,-1390.88 1659.21,-1389.24 1662.04,-1387.64 1665.33,-1386.09 1669.06,-1384.6 1673.24,-1383.17 1677.85,-1381.8 1682.88,-1380.49 1688.32,-1379.26 1694.15,-1378.09 1700.36,-1377.01 1706.91,-1376 1713.8,-1375.08 1720.99,-1374.24 1728.46,-1373.49 1736.17,-1372.83 1744.11,-1372.26 1752.24,-1371.78 1760.52,-1371.4 1768.92,-1371.11 1777.41,-1370.92 1785.96,-1370.82 1794.52,-1370.82 1803.06,-1370.92"/>
<text text-anchor="start" x="1761.07" y="-1415.86" font-family="Times,serif" font-size="14.00">C0208205</text>
<text text-anchor="start" x="1706.24" y="-1401.86" font-family="Times,serif" font-size="14.00">immunoglobulin G N&#45;glycans</text>
<text text-anchor="start" x="1767.29" y="-1387.86" font-family="Times,serif" font-size="14.00">148:150</text>
</g>
<!-- id_27743356_DOT_1&#45;&#45;id_27743356_DOT_21 -->
<g id="edge2" class="edge">
<title>id_27743356_DOT_1&#45;&#45;id_27743356_DOT_21</title>
<path fill="none" stroke="black" d="M1535.25,-1359.13C1577.67,-1366.93 1626.76,-1375.97 1670.48,-1384.02"/>
<text text-anchor="middle" x="1615.99" y="-1360.37" font-family="Times,serif" font-size="14.00">0.035213</text>
</g>
<!-- id_27743356_DOT_2 -->
<g id="node2" class="node">
<title>id_27743356_DOT_2</title>
<polygon fill="bisque" stroke="bisque" points="3866.01,-2499.47 3877.43,-2499.67 3888.73,-2499.96 3899.87,-2500.34 3910.8,-2500.82 3921.48,-2501.39 3931.87,-2502.05 3941.91,-2502.8 3951.59,-2503.64 3960.85,-2504.56 3969.67,-2505.56 3978.01,-2506.65 3985.86,-2507.81 3993.17,-2509.04 3999.94,-2510.35 4006.15,-2511.72 4011.77,-2513.16 4016.79,-2514.65 4021.21,-2516.2 4025.03,-2517.79 4028.23,-2519.44 4030.82,-2521.12 4032.81,-2522.85 4034.19,-2524.6 4034.99,-2526.38 4035.2,-2528.19 4034.85,-2530.01 4033.94,-2531.85 4032.51,-2533.69 4030.57,-2535.54 4028.13,-2537.38 4025.23,-2539.21 4021.88,-2541.04 4018.11,-2542.84 4013.95,-2544.62 4009.42,-2546.38 4004.54,-2548.1 3999.35,-2549.79 3993.86,-2551.43 3988.1,-2553.03 3982.09,-2554.58 3975.87,-2556.07 3969.44,-2557.5 3962.83,-2558.88 3956.06,-2560.18 3949.15,-2561.41 3942.11,-2562.58 3934.97,-2563.66 3927.73,-2564.67 3920.42,-2565.59 3913.03,-2566.43 3905.59,-2567.18 3898.09,-2567.84 3890.56,-2568.41 3883,-2568.89 3875.41,-2569.27 3867.81,-2569.56 3860.19,-2569.75 3852.57,-2569.85 3844.94,-2569.85 3837.31,-2569.75 3829.69,-2569.56 3822.09,-2569.27 3814.5,-2568.89 3806.94,-2568.41 3799.41,-2567.84 3791.92,-2567.18 3784.47,-2566.43 3777.09,-2565.59 3769.77,-2564.67 3762.53,-2563.66 3755.39,-2562.58 3748.35,-2561.41 3741.44,-2560.18 3734.67,-2558.88 3728.07,-2557.5 3721.64,-2556.07 3715.41,-2554.58 3709.4,-2553.03 3703.65,-2551.43 3698.16,-2549.79 3692.96,-2548.1 3688.08,-2546.38 3683.55,-2544.62 3679.39,-2542.84 3675.62,-2541.04 3672.28,-2539.21 3669.37,-2537.38 3666.94,-2535.54 3664.99,-2533.69 3663.56,-2531.85 3662.66,-2530.01 3662.3,-2528.19 3662.52,-2526.38 3663.31,-2524.6 3664.7,-2522.85 3666.68,-2521.12 3669.27,-2519.44 3672.48,-2517.79 3676.29,-2516.2 3680.71,-2514.65 3685.74,-2513.16 3691.36,-2511.72 3697.56,-2510.35 3704.33,-2509.04 3711.65,-2507.81 3719.49,-2506.65 3727.84,-2505.56 3736.66,-2504.56 3745.92,-2503.64 3755.59,-2502.8 3765.64,-2502.05 3776.02,-2501.39 3786.7,-2500.82 3797.63,-2500.34 3808.77,-2499.96 3820.08,-2499.67 3831.5,-2499.47 3842.99,-2499.38 3854.51,-2499.38 3866.01,-2499.47"/>
<text text-anchor="start" x="3819.58" y="-2544.41" font-family="Times,serif" font-size="14.00">C0008565</text>
<text text-anchor="start" x="3733.1" y="-2530.41" font-family="Times,serif" font-size="14.00">ultra performance liquid chromatography</text>
<text text-anchor="start" x="3832.81" y="-2516.41" font-family="Times,serif" font-size="14.00">10:13</text>
</g>
<!-- id_27743356_DOT_14 -->
<g id="node14" class="node">
<title>id_27743356_DOT_14</title>
<polygon fill="darkgoldenrod" stroke="darkgoldenrod" points="3907.75,-2880.58 3913.31,-2880.77 3918.8,-2881.06 3924.21,-2881.44 3929.52,-2881.92 3934.71,-2882.49 3939.76,-2883.15 3944.64,-2883.9 3949.34,-2884.74 3953.84,-2885.66 3958.13,-2886.67 3962.18,-2887.75 3966,-2888.92 3969.55,-2890.15 3972.84,-2891.46 3975.86,-2892.83 3978.59,-2894.26 3981.03,-2895.75 3983.18,-2897.3 3985.03,-2898.9 3986.59,-2900.54 3987.85,-2902.23 3988.81,-2903.95 3989.49,-2905.71 3989.87,-2907.49 3989.97,-2909.29 3989.8,-2911.12 3989.36,-2912.95 3988.67,-2914.8 3987.72,-2916.64 3986.54,-2918.48 3985.13,-2920.32 3983.5,-2922.14 3981.67,-2923.95 3979.65,-2925.73 3977.45,-2927.48 3975.08,-2929.21 3972.55,-2930.89 3969.88,-2932.54 3967.09,-2934.14 3964.17,-2935.68 3961.14,-2937.18 3958.02,-2938.61 3954.81,-2939.98 3951.52,-2941.29 3948.16,-2942.52 3944.74,-2943.68 3941.27,-2944.77 3937.75,-2945.77 3934.2,-2946.69 3930.61,-2947.53 3926.99,-2948.28 3923.35,-2948.94 3919.69,-2949.51 3916.01,-2949.99 3912.33,-2950.38 3908.63,-2950.66 3904.93,-2950.86 3901.22,-2950.95 3897.52,-2950.95 3893.81,-2950.86 3890.11,-2950.66 3886.41,-2950.38 3882.73,-2949.99 3879.05,-2949.51 3875.39,-2948.94 3871.75,-2948.28 3868.13,-2947.53 3864.55,-2946.69 3860.99,-2945.77 3857.47,-2944.77 3854,-2943.68 3850.58,-2942.52 3847.22,-2941.29 3843.93,-2939.98 3840.72,-2938.61 3837.6,-2937.18 3834.57,-2935.68 3831.65,-2934.14 3828.86,-2932.54 3826.19,-2930.89 3823.66,-2929.21 3821.29,-2927.48 3819.09,-2925.73 3817.07,-2923.95 3815.24,-2922.14 3813.61,-2920.32 3812.2,-2918.48 3811.02,-2916.64 3810.07,-2914.8 3809.38,-2912.95 3808.94,-2911.12 3808.77,-2909.29 3808.87,-2907.49 3809.26,-2905.71 3809.93,-2903.95 3810.89,-2902.23 3812.15,-2900.54 3813.71,-2898.9 3815.56,-2897.3 3817.71,-2895.75 3820.15,-2894.26 3822.88,-2892.83 3825.9,-2891.46 3829.19,-2890.15 3832.74,-2888.92 3836.56,-2887.75 3840.61,-2886.67 3844.9,-2885.66 3849.4,-2884.74 3854.1,-2883.9 3858.98,-2883.15 3864.03,-2882.49 3869.22,-2881.92 3874.53,-2881.44 3879.94,-2881.06 3885.43,-2880.77 3890.99,-2880.58 3896.57,-2880.48 3902.17,-2880.48 3907.75,-2880.58"/>
<text text-anchor="start" x="3870.2" y="-2925.52" font-family="Times,serif" font-size="14.00">C0037813</text>
<text text-anchor="start" x="3847.08" y="-2911.52" font-family="Times,serif" font-size="14.00">mass spectrometry</text>
<text text-anchor="start" x="3883.43" y="-2897.52" font-family="Times,serif" font-size="14.00">85:86</text>
</g>
<!-- id_27743356_DOT_2&#45;&#45;id_27743356_DOT_14 -->
<g id="edge11" class="edge">
<title>id_27743356_DOT_2&#45;&#45;id_27743356_DOT_14</title>
<path fill="none" stroke="black" stroke-dasharray="1,5" d="M3853.47,-2570.12C3863.13,-2642.84 3885.05,-2807.92 3894.68,-2880.44"/>
<text text-anchor="middle" x="3847.83" y="-2728.08" font-family="Times,serif" font-size="14.00">0.761554</text>
</g>
<!-- id_27743356_DOT_23 -->
<g id="node23" class="node">
<title>id_27743356_DOT_23</title>
<polygon fill="bisque" stroke="bisque" points="3851.69,-2090.34 3863.11,-2090.53 3874.42,-2090.82 3885.56,-2091.2 3896.49,-2091.68 3907.17,-2092.25 3917.55,-2092.91 3927.6,-2093.66 3937.27,-2094.5 3946.53,-2095.42 3955.35,-2096.43 3963.7,-2097.51 3971.54,-2098.68 3978.86,-2099.91 3985.63,-2101.22 3991.83,-2102.59 3997.45,-2104.02 4002.48,-2105.51 4006.9,-2107.06 4010.71,-2108.66 4013.92,-2110.3 4016.51,-2111.99 4018.49,-2113.71 4019.88,-2115.47 4020.67,-2117.25 4020.89,-2119.05 4020.53,-2120.88 4019.63,-2122.71 4018.2,-2124.56 4016.25,-2126.4 4013.82,-2128.24 4010.91,-2130.08 4007.57,-2131.9 4003.8,-2133.71 3999.64,-2135.49 3995.11,-2137.24 3990.23,-2138.97 3985.03,-2140.65 3979.54,-2142.3 3973.79,-2143.89 3967.78,-2145.44 3961.55,-2146.94 3955.12,-2148.37 3948.52,-2149.74 3941.75,-2151.05 3934.84,-2152.28 3927.8,-2153.44 3920.66,-2154.53 3913.42,-2155.53 3906.1,-2156.45 3898.72,-2157.29 3891.27,-2158.04 3883.78,-2158.7 3876.25,-2159.27 3868.69,-2159.75 3861.1,-2160.14 3853.5,-2160.42 3845.88,-2160.62 3838.25,-2160.71 3830.62,-2160.71 3823,-2160.62 3815.38,-2160.42 3807.78,-2160.14 3800.19,-2159.75 3792.63,-2159.27 3785.1,-2158.7 3777.6,-2158.04 3770.16,-2157.29 3762.77,-2156.45 3755.46,-2155.53 3748.22,-2154.53 3741.08,-2153.44 3734.04,-2152.28 3727.13,-2151.05 3720.36,-2149.74 3713.75,-2148.37 3707.32,-2146.94 3701.1,-2145.44 3695.09,-2143.89 3689.33,-2142.3 3683.84,-2140.65 3678.65,-2138.97 3673.77,-2137.24 3669.24,-2135.49 3665.08,-2133.71 3661.31,-2131.9 3657.96,-2130.08 3655.06,-2128.24 3652.62,-2126.4 3650.68,-2124.56 3649.25,-2122.71 3648.34,-2120.88 3647.99,-2119.05 3648.2,-2117.25 3649,-2115.47 3650.38,-2113.71 3652.37,-2111.99 3654.96,-2110.3 3658.16,-2108.66 3661.98,-2107.06 3666.4,-2105.51 3671.42,-2104.02 3677.04,-2102.59 3683.25,-2101.22 3690.02,-2099.91 3697.33,-2098.68 3705.18,-2097.51 3713.52,-2096.43 3722.34,-2095.42 3731.61,-2094.5 3741.28,-2093.66 3751.32,-2092.91 3761.71,-2092.25 3772.39,-2091.68 3783.32,-2091.2 3794.46,-2090.82 3805.76,-2090.53 3817.18,-2090.34 3828.68,-2090.24 3840.2,-2090.24 3851.69,-2090.34"/>
<text text-anchor="start" x="3805.27" y="-2135.28" font-family="Times,serif" font-size="14.00">C0008565</text>
<text text-anchor="start" x="3718.79" y="-2121.28" font-family="Times,serif" font-size="14.00">ultra performance liquid chromatography</text>
<text text-anchor="start" x="3811.49" y="-2107.28" font-family="Times,serif" font-size="14.00">158:161</text>
</g>
<!-- id_27743356_DOT_2&#45;&#45;id_27743356_DOT_23 -->
<g id="edge3" class="edge">
<title>id_27743356_DOT_2&#45;&#45;id_27743356_DOT_23</title>
<path fill="none" stroke="black" d="M3847.52,-2499.38C3844.81,-2422.04 3838.38,-2238.17 3835.67,-2160.77"/>
<text text-anchor="middle" x="3815.35" y="-2332.88" font-family="Times,serif" font-size="14.00">0.038246</text>
</g>
<!-- id_27743356_DOT_3 -->
<g id="node3" class="node">
<title>id_27743356_DOT_3</title>
<polygon fill="blue" stroke="blue" points="4597.41,-309.29 4602.83,-309.49 4608.21,-309.77 4613.5,-310.16 4618.7,-310.64 4623.77,-311.21 4628.71,-311.87 4633.48,-312.62 4638.08,-313.46 4642.48,-314.38 4646.67,-315.38 4650.64,-316.47 4654.37,-317.63 4657.85,-318.86 4661.06,-320.17 4664.01,-321.54 4666.68,-322.97 4669.07,-324.47 4671.17,-326.01 4672.99,-327.61 4674.51,-329.26 4675.74,-330.94 4676.68,-332.67 4677.34,-334.42 4677.72,-336.2 4677.82,-338.01 4677.65,-339.83 4677.22,-341.67 4676.54,-343.51 4675.62,-345.35 4674.46,-347.2 4673.08,-349.03 4671.49,-350.85 4669.7,-352.66 4667.72,-354.44 4665.57,-356.2 4663.25,-357.92 4660.78,-359.61 4658.17,-361.25 4655.43,-362.85 4652.58,-364.4 4649.62,-365.89 4646.57,-367.32 4643.42,-368.69 4640.21,-370 4636.92,-371.23 4633.58,-372.39 4630.18,-373.48 4626.74,-374.48 4623.27,-375.41 4619.76,-376.24 4616.22,-377 4612.66,-377.66 4609.08,-378.23 4605.48,-378.7 4601.88,-379.09 4598.26,-379.38 4594.64,-379.57 4591.02,-379.67 4587.39,-379.67 4583.77,-379.57 4580.15,-379.38 4576.53,-379.09 4572.93,-378.7 4569.33,-378.23 4565.75,-377.66 4562.19,-377 4558.66,-376.24 4555.14,-375.41 4551.67,-374.48 4548.23,-373.48 4544.83,-372.39 4541.49,-371.23 4538.2,-370 4534.99,-368.69 4531.85,-367.32 4528.79,-365.89 4525.83,-364.4 4522.98,-362.85 4520.24,-361.25 4517.63,-359.61 4515.16,-357.92 4512.84,-356.2 4510.69,-354.44 4508.71,-352.66 4506.92,-350.85 4505.33,-349.03 4503.95,-347.2 4502.79,-345.35 4501.87,-343.51 4501.19,-341.67 4500.76,-339.83 4500.59,-338.01 4500.69,-336.2 4501.07,-334.42 4501.73,-332.67 4502.67,-330.94 4503.9,-329.26 4505.42,-327.61 4507.24,-326.01 4509.34,-324.47 4511.73,-322.97 4514.4,-321.54 4517.35,-320.17 4520.56,-318.86 4524.04,-317.63 4527.77,-316.47 4531.74,-315.38 4535.93,-314.38 4540.33,-313.46 4544.93,-312.62 4549.7,-311.87 4554.64,-311.21 4559.71,-310.64 4564.91,-310.16 4570.2,-309.77 4575.58,-309.49 4581,-309.29 4586.47,-309.2 4591.94,-309.2 4597.41,-309.29"/>
<text text-anchor="start" x="4560.04" y="-354.23" font-family="Times,serif" font-size="14.00">C2603343</text>
<text text-anchor="start" x="4538.4" y="-340.23" font-family="Times,serif" font-size="14.00">large scale studies</text>
<text text-anchor="start" x="4573.26" y="-326.23" font-family="Times,serif" font-size="14.00">30:32</text>
</g>
<!-- id_27743356_DOT_11 -->
<g id="node11" class="node">
<title>id_27743356_DOT_11</title>
<polygon fill="cornflowerblue" stroke="cornflowerblue" points="4402.76,-641.07 4406.4,-641.27 4410.01,-641.56 4413.56,-641.94 4417.04,-642.42 4420.45,-642.99 4423.76,-643.65 4426.96,-644.4 4430.04,-645.24 4432.99,-646.16 4435.8,-647.16 4438.46,-648.25 4440.96,-649.41 4443.3,-650.64 4445.45,-651.95 4447.43,-653.32 4449.22,-654.76 4450.82,-656.25 4452.23,-657.8 4453.45,-659.39 4454.47,-661.04 4455.3,-662.72 4455.93,-664.45 4456.37,-666.2 4456.62,-667.98 4456.69,-669.79 4456.58,-671.61 4456.29,-673.45 4455.83,-675.29 4455.21,-677.14 4454.44,-678.98 4453.51,-680.81 4452.45,-682.64 4451.25,-684.44 4449.92,-686.22 4448.47,-687.98 4446.92,-689.7 4445.26,-691.39 4443.51,-693.03 4441.68,-694.63 4439.77,-696.18 4437.78,-697.67 4435.73,-699.1 4433.62,-700.48 4431.47,-701.78 4429.26,-703.01 4427.02,-704.18 4424.75,-705.26 4422.44,-706.27 4420.11,-707.19 4417.75,-708.03 4415.38,-708.78 4412.99,-709.44 4410.59,-710.01 4408.18,-710.49 4405.76,-710.87 4403.34,-711.16 4400.91,-711.35 4398.48,-711.45 4396.05,-711.45 4393.62,-711.35 4391.19,-711.16 4388.77,-710.87 4386.35,-710.49 4383.94,-710.01 4381.54,-709.44 4379.15,-708.78 4376.78,-708.03 4374.42,-707.19 4372.09,-706.27 4369.78,-705.26 4367.51,-704.18 4365.26,-703.01 4363.06,-701.78 4360.9,-700.48 4358.8,-699.1 4356.75,-697.67 4354.76,-696.18 4352.85,-694.63 4351.01,-693.03 4349.27,-691.39 4347.61,-689.7 4346.06,-687.98 4344.61,-686.22 4343.28,-684.44 4342.08,-682.64 4341.02,-680.81 4340.09,-678.98 4339.31,-677.14 4338.69,-675.29 4338.24,-673.45 4337.95,-671.61 4337.84,-669.79 4337.91,-667.98 4338.16,-666.2 4338.6,-664.45 4339.23,-662.72 4340.06,-661.04 4341.08,-659.39 4342.3,-657.8 4343.71,-656.25 4345.31,-654.76 4347.1,-653.32 4349.08,-651.95 4351.23,-650.64 4353.57,-649.41 4356.07,-648.25 4358.73,-647.16 4361.54,-646.16 4364.49,-645.24 4367.57,-644.4 4370.77,-643.65 4374.08,-642.99 4377.49,-642.42 4380.97,-641.94 4384.52,-641.56 4388.12,-641.27 4391.77,-641.07 4395.43,-640.98 4399.1,-640.98 4402.76,-641.07"/>
<text text-anchor="start" x="4368.1" y="-686.01" font-family="Times,serif" font-size="14.00">C0449445</text>
<text text-anchor="start" x="4365.78" y="-672.01" font-family="Times,serif" font-size="14.00">approaches</text>
<text text-anchor="start" x="4381.32" y="-658.01" font-family="Times,serif" font-size="14.00">75:75</text>
</g>
<!-- id_27743356_DOT_3&#45;&#45;id_27743356_DOT_11 -->
<g id="edge12" class="edge">
<title>id_27743356_DOT_3&#45;&#45;id_27743356_DOT_11</title>
<path fill="none" stroke="black" stroke-dasharray="1,5" d="M4569.57,-378.38C4532.78,-441.96 4453.89,-578.33 4417.02,-642.07"/>
<text text-anchor="middle" x="4467.04" y="-513.02" font-family="Times,serif" font-size="14.00">0.864101</text>
</g>
<!-- id_27743356_DOT_15 -->
<g id="node15" class="node">
<title>id_27743356_DOT_15</title>
<polygon fill="blue" stroke="blue" points="4804.06,-0.23 4807.49,-0.42 4810.88,-0.71 4814.22,-1.09 4817.5,-1.57 4820.71,-2.14 4823.83,-2.8 4826.84,-3.55 4829.74,-4.39 4832.52,-5.31 4835.17,-6.32 4837.68,-7.4 4840.03,-8.57 4842.23,-9.8 4844.26,-11.1 4846.12,-12.48 4847.81,-13.91 4849.31,-15.4 4850.64,-16.95 4851.79,-18.55 4852.75,-20.19 4853.52,-21.88 4854.12,-23.6 4854.54,-25.36 4854.77,-27.14 4854.84,-28.94 4854.73,-30.77 4854.46,-32.6 4854.03,-34.44 4853.45,-36.29 4852.72,-38.13 4851.85,-39.97 4850.84,-41.79 4849.71,-43.6 4848.46,-45.38 4847.1,-47.13 4845.64,-48.86 4844.08,-50.54 4842.43,-52.19 4840.7,-53.78 4838.9,-55.33 4837.03,-56.82 4835.1,-58.26 4833.12,-59.63 4831.09,-60.94 4829.01,-62.17 4826.9,-63.33 4824.76,-64.42 4822.59,-65.42 4820.39,-66.34 4818.17,-67.18 4815.94,-67.93 4813.69,-68.59 4811.43,-69.16 4809.16,-69.64 4806.88,-70.02 4804.6,-70.31 4802.31,-70.51 4800.03,-70.6 4797.74,-70.6 4795.45,-70.51 4793.16,-70.31 4790.88,-70.02 4788.6,-69.64 4786.33,-69.16 4784.07,-68.59 4781.82,-67.93 4779.59,-67.18 4777.37,-66.34 4775.18,-65.42 4773.01,-64.42 4770.86,-63.33 4768.75,-62.17 4766.68,-60.94 4764.64,-59.63 4762.66,-58.26 4760.73,-56.82 4758.86,-55.33 4757.06,-53.78 4755.33,-52.19 4753.68,-50.54 4752.13,-48.86 4750.66,-47.13 4749.3,-45.38 4748.05,-43.6 4746.92,-41.79 4745.92,-39.97 4745.05,-38.13 4744.32,-36.29 4743.73,-34.44 4743.3,-32.6 4743.03,-30.77 4742.93,-28.94 4742.99,-27.14 4743.23,-25.36 4743.64,-23.6 4744.24,-21.88 4745.02,-20.19 4745.98,-18.55 4747.12,-16.95 4748.45,-15.4 4749.96,-13.91 4751.64,-12.48 4753.51,-11.1 4755.54,-9.8 4757.73,-8.57 4760.09,-7.4 4762.59,-6.32 4765.24,-5.31 4768.02,-4.39 4770.92,-3.55 4773.94,-2.8 4777.05,-2.14 4780.26,-1.57 4783.54,-1.09 4786.88,-0.71 4790.28,-0.42 4793.7,-0.23 4797.15,-0.13 4800.61,-0.13 4804.06,-0.23"/>
<text text-anchor="start" x="4769.71" y="-45.17" font-family="Times,serif" font-size="14.00">C2603343</text>
<text text-anchor="start" x="4783.71" y="-31.17" font-family="Times,serif" font-size="14.00">study</text>
<text text-anchor="start" x="4782.94" y="-17.17" font-family="Times,serif" font-size="14.00">90:90</text>
</g>
<!-- id_27743356_DOT_3&#45;&#45;id_27743356_DOT_15 -->
<g id="edge4" class="edge">
<title>id_27743356_DOT_3&#45;&#45;id_27743356_DOT_15</title>
<path fill="none" stroke="black" d="M4612.65,-309.88C4653.68,-249.39 4737.92,-125.22 4777.48,-66.92"/>
<text text-anchor="middle" x="4668.81" y="-191.2" font-family="Times,serif" font-size="14.00">0.204870</text>
</g>
<!-- id_27743356_DOT_4 -->
<g id="node4" class="node">
<title>id_27743356_DOT_4</title>
<polygon fill="blueviolet" stroke="blueviolet" points="2908.21,-1492.11 2911.64,-1492.3 2915.03,-1492.59 2918.37,-1492.97 2921.65,-1493.45 2924.86,-1494.02 2927.98,-1494.68 2930.99,-1495.43 2933.89,-1496.27 2936.67,-1497.19 2939.32,-1498.2 2941.82,-1499.28 2944.18,-1500.44 2946.38,-1501.68 2948.41,-1502.98 2950.27,-1504.36 2951.95,-1505.79 2953.46,-1507.28 2954.79,-1508.83 2955.94,-1510.43 2956.9,-1512.07 2957.67,-1513.76 2958.27,-1515.48 2958.69,-1517.24 2958.92,-1519.02 2958.99,-1520.82 2958.88,-1522.65 2958.61,-1524.48 2958.18,-1526.32 2957.6,-1528.17 2956.87,-1530.01 2955.99,-1531.85 2954.99,-1533.67 2953.86,-1535.48 2952.61,-1537.26 2951.25,-1539.01 2949.79,-1540.74 2948.23,-1542.42 2946.58,-1544.07 2944.85,-1545.66 2943.05,-1547.21 2941.18,-1548.7 2939.25,-1550.14 2937.27,-1551.51 2935.24,-1552.81 2933.16,-1554.05 2931.05,-1555.21 2928.91,-1556.3 2926.74,-1557.3 2924.54,-1558.22 2922.32,-1559.06 2920.09,-1559.81 2917.84,-1560.47 2915.58,-1561.04 2913.31,-1561.52 2911.03,-1561.9 2908.75,-1562.19 2906.46,-1562.39 2904.18,-1562.48 2901.89,-1562.48 2899.6,-1562.39 2897.31,-1562.19 2895.03,-1561.9 2892.75,-1561.52 2890.48,-1561.04 2888.22,-1560.47 2885.97,-1559.81 2883.74,-1559.06 2881.52,-1558.22 2879.33,-1557.3 2877.16,-1556.3 2875.01,-1555.21 2872.9,-1554.05 2870.83,-1552.81 2868.79,-1551.51 2866.81,-1550.14 2864.88,-1548.7 2863.01,-1547.21 2861.21,-1545.66 2859.48,-1544.07 2857.83,-1542.42 2856.28,-1540.74 2854.81,-1539.01 2853.45,-1537.26 2852.2,-1535.48 2851.07,-1533.67 2850.07,-1531.85 2849.2,-1530.01 2848.47,-1528.17 2847.88,-1526.32 2847.45,-1524.48 2847.18,-1522.65 2847.07,-1520.82 2847.14,-1519.02 2847.38,-1517.24 2847.79,-1515.48 2848.39,-1513.76 2849.17,-1512.07 2850.13,-1510.43 2851.27,-1508.83 2852.6,-1507.28 2854.11,-1505.79 2855.79,-1504.36 2857.66,-1502.98 2859.69,-1501.68 2861.88,-1500.44 2864.24,-1499.28 2866.74,-1498.2 2869.39,-1497.19 2872.17,-1496.27 2875.07,-1495.43 2878.09,-1494.68 2881.2,-1494.02 2884.41,-1493.45 2887.69,-1492.97 2891.03,-1492.59 2894.42,-1492.3 2897.85,-1492.11 2901.3,-1492.01 2904.76,-1492.01 2908.21,-1492.11"/>
<text text-anchor="start" x="2873.86" y="-1537.05" font-family="Times,serif" font-size="14.00">C2348869</text>
<text text-anchor="start" x="2878.93" y="-1523.05" font-family="Times,serif" font-size="14.00">glycome</text>
<text text-anchor="start" x="2887.09" y="-1509.05" font-family="Times,serif" font-size="14.00">35:35</text>
</g>
<!-- id_27743356_DOT_5 -->
<g id="node5" class="node">
<title>id_27743356_DOT_5</title>
<polygon fill="brown" stroke="brown" points="2531.85,-1449.71 2535.28,-1449.9 2538.67,-1450.19 2542.01,-1450.57 2545.29,-1451.05 2548.5,-1451.62 2551.61,-1452.28 2554.63,-1453.03 2557.53,-1453.87 2560.31,-1454.79 2562.96,-1455.8 2565.46,-1456.88 2567.82,-1458.05 2570.01,-1459.28 2572.05,-1460.59 2573.91,-1461.96 2575.59,-1463.39 2577.1,-1464.88 2578.43,-1466.43 2579.57,-1468.03 2580.54,-1469.67 2581.31,-1471.36 2581.91,-1473.08 2582.32,-1474.84 2582.56,-1476.62 2582.63,-1478.42 2582.52,-1480.25 2582.25,-1482.08 2581.82,-1483.93 2581.24,-1485.77 2580.51,-1487.61 2579.63,-1489.45 2578.63,-1491.27 2577.5,-1493.08 2576.25,-1494.86 2574.89,-1496.61 2573.43,-1498.34 2571.87,-1500.02 2570.22,-1501.67 2568.49,-1503.27 2566.69,-1504.81 2564.82,-1506.31 2562.89,-1507.74 2560.91,-1509.11 2558.88,-1510.42 2556.8,-1511.65 2554.69,-1512.81 2552.55,-1513.9 2550.37,-1514.9 2548.18,-1515.82 2545.96,-1516.66 2543.73,-1517.41 2541.48,-1518.07 2539.22,-1518.64 2536.95,-1519.12 2534.67,-1519.51 2532.39,-1519.79 2530.1,-1519.99 2527.82,-1520.08 2525.53,-1520.08 2523.24,-1519.99 2520.95,-1519.79 2518.67,-1519.51 2516.39,-1519.12 2514.12,-1518.64 2511.86,-1518.07 2509.61,-1517.41 2507.38,-1516.66 2505.16,-1515.82 2502.97,-1514.9 2500.79,-1513.9 2498.65,-1512.81 2496.54,-1511.65 2494.47,-1510.42 2492.43,-1509.11 2490.45,-1507.74 2488.52,-1506.31 2486.65,-1504.81 2484.85,-1503.27 2483.12,-1501.67 2481.47,-1500.02 2479.91,-1498.34 2478.45,-1496.61 2477.09,-1494.86 2475.84,-1493.08 2474.71,-1491.27 2473.71,-1489.45 2472.84,-1487.61 2472.1,-1485.77 2471.52,-1483.93 2471.09,-1482.08 2470.82,-1480.25 2470.71,-1478.42 2470.78,-1476.62 2471.02,-1474.84 2471.43,-1473.08 2472.03,-1471.36 2472.81,-1469.67 2473.77,-1468.03 2474.91,-1466.43 2476.24,-1464.88 2477.75,-1463.39 2479.43,-1461.96 2481.29,-1460.59 2483.33,-1459.28 2485.52,-1458.05 2487.88,-1456.88 2490.38,-1455.8 2493.03,-1454.79 2495.81,-1453.87 2498.71,-1453.03 2501.73,-1452.28 2504.84,-1451.62 2508.05,-1451.05 2511.33,-1450.57 2514.67,-1450.19 2518.06,-1449.9 2521.49,-1449.71 2524.94,-1449.61 2528.4,-1449.61 2531.85,-1449.71"/>
<text text-anchor="start" x="2497.5" y="-1494.65" font-family="Times,serif" font-size="14.00">C0032594</text>
<text text-anchor="start" x="2503.73" y="-1480.65" font-family="Times,serif" font-size="14.00">Glycans</text>
<text text-anchor="start" x="2510.73" y="-1466.65" font-family="Times,serif" font-size="14.00">39:39</text>
</g>
<!-- id_27743356_DOT_4&#45;&#45;id_27743356_DOT_5 -->
<g id="edge13" class="edge">
<title>id_27743356_DOT_4&#45;&#45;id_27743356_DOT_5</title>
<path fill="none" stroke="black" stroke-dasharray="1,5" d="M2846.69,-1520.9C2774.3,-1512.74 2649.61,-1498.7 2579.15,-1490.76"/>
<text text-anchor="middle" x="2686.67" y="-1508.63" font-family="Times,serif" font-size="14.00">0.495492</text>
</g>
<!-- id_27743356_DOT_10 -->
<g id="node10" class="node">
<title>id_27743356_DOT_10</title>
<polygon fill="coral" stroke="coral" points="3300.8,-1556.63 3305.05,-1556.82 3309.26,-1557.11 3313.4,-1557.5 3317.47,-1557.97 3321.44,-1558.54 3325.31,-1559.2 3329.04,-1559.95 3332.64,-1560.79 3336.09,-1561.72 3339.37,-1562.72 3342.47,-1563.81 3345.39,-1564.97 3348.12,-1566.2 3350.63,-1567.51 3352.94,-1568.88 3355.03,-1570.31 3356.9,-1571.8 3358.55,-1573.35 3359.97,-1574.95 3361.16,-1576.59 3362.12,-1578.28 3362.86,-1580 3363.38,-1581.76 3363.67,-1583.54 3363.75,-1585.35 3363.62,-1587.17 3363.28,-1589 3362.75,-1590.85 3362.03,-1592.69 3361.12,-1594.53 3360.04,-1596.37 3358.8,-1598.19 3357.39,-1600 3355.85,-1601.78 3354.16,-1603.53 3352.35,-1605.26 3350.41,-1606.94 3348.37,-1608.59 3346.23,-1610.19 3343.99,-1611.73 3341.68,-1613.23 3339.28,-1614.66 3336.83,-1616.03 3334.31,-1617.34 3331.74,-1618.57 3329.12,-1619.73 3326.46,-1620.82 3323.77,-1621.82 3321.05,-1622.74 3318.3,-1623.58 3315.53,-1624.33 3312.74,-1624.99 3309.94,-1625.56 3307.12,-1626.04 3304.3,-1626.43 3301.47,-1626.71 3298.64,-1626.91 3295.8,-1627 3292.96,-1627 3290.13,-1626.91 3287.29,-1626.71 3284.46,-1626.43 3281.64,-1626.04 3278.83,-1625.56 3276.02,-1624.99 3273.24,-1624.33 3270.47,-1623.58 3267.72,-1622.74 3265,-1621.82 3262.3,-1620.82 3259.65,-1619.73 3257.03,-1618.57 3254.46,-1617.34 3251.94,-1616.03 3249.48,-1614.66 3247.09,-1613.23 3244.77,-1611.73 3242.54,-1610.19 3240.4,-1608.59 3238.35,-1606.94 3236.42,-1605.26 3234.61,-1603.53 3232.92,-1601.78 3231.37,-1600 3229.97,-1598.19 3228.72,-1596.37 3227.64,-1594.53 3226.74,-1592.69 3226.01,-1590.85 3225.48,-1589 3225.15,-1587.17 3225.01,-1585.35 3225.09,-1583.54 3225.39,-1581.76 3225.9,-1580 3226.64,-1578.28 3227.61,-1576.59 3228.8,-1574.95 3230.22,-1573.35 3231.86,-1571.8 3233.73,-1570.31 3235.82,-1568.88 3238.13,-1567.51 3240.65,-1566.2 3243.37,-1564.97 3246.29,-1563.81 3249.4,-1562.72 3252.68,-1561.72 3256.12,-1560.79 3259.72,-1559.95 3263.46,-1559.2 3267.32,-1558.54 3271.3,-1557.97 3275.36,-1557.5 3279.51,-1557.11 3283.71,-1556.82 3287.96,-1556.63 3292.24,-1556.53 3296.53,-1556.53 3300.8,-1556.63"/>
<text text-anchor="start" x="3265.21" y="-1601.57" font-family="Times,serif" font-size="14.00">C0017968</text>
<text text-anchor="start" x="3256.28" y="-1587.57" font-family="Times,serif" font-size="14.00">glycoproteins</text>
<text text-anchor="start" x="3278.44" y="-1573.57" font-family="Times,serif" font-size="14.00">72:72</text>
</g>
<!-- id_27743356_DOT_4&#45;&#45;id_27743356_DOT_10 -->
<g id="edge14" class="edge">
<title>id_27743356_DOT_4&#45;&#45;id_27743356_DOT_10</title>
<path fill="none" stroke="black" stroke-dasharray="1,5" d="M2953.79,-1535.62C3023.18,-1547.06 3147.88,-1567.61 3225.6,-1580.43"/>
<text text-anchor="middle" x="3063.45" y="-1560.82" font-family="Times,serif" font-size="14.00">0.673648</text>
</g>
<!-- id_27743356_DOT_18 -->
<g id="node18" class="node">
<title>id_27743356_DOT_18</title>
<polygon fill="aquamarine" stroke="aquamarine" points="2168.68,-1415.25 2176.92,-1415.44 2185.06,-1415.73 2193.09,-1416.11 2200.97,-1416.59 2208.67,-1417.16 2216.15,-1417.82 2223.39,-1418.57 2230.37,-1419.41 2237.04,-1420.33 2243.4,-1421.34 2249.41,-1422.42 2255.07,-1423.58 2260.34,-1424.82 2265.22,-1426.12 2269.69,-1427.5 2273.74,-1428.93 2277.37,-1430.42 2280.55,-1431.97 2283.3,-1433.57 2285.61,-1435.21 2287.48,-1436.9 2288.91,-1438.62 2289.91,-1440.38 2290.48,-1442.16 2290.63,-1443.96 2290.38,-1445.79 2289.73,-1447.62 2288.7,-1449.46 2287.29,-1451.31 2285.54,-1453.15 2283.45,-1454.99 2281.03,-1456.81 2278.32,-1458.61 2275.32,-1460.4 2272.05,-1462.15 2268.54,-1463.88 2264.79,-1465.56 2260.84,-1467.21 2256.68,-1468.8 2252.36,-1470.35 2247.87,-1471.84 2243.23,-1473.28 2238.47,-1474.65 2233.59,-1475.95 2228.61,-1477.19 2223.54,-1478.35 2218.39,-1479.43 2213.17,-1480.44 2207.9,-1481.36 2202.58,-1482.2 2197.21,-1482.95 2191.81,-1483.61 2186.38,-1484.18 2180.93,-1484.66 2175.46,-1485.04 2169.98,-1485.33 2164.49,-1485.53 2159,-1485.62 2153.5,-1485.62 2148,-1485.53 2142.51,-1485.33 2137.03,-1485.04 2131.56,-1484.66 2126.11,-1484.18 2120.68,-1483.61 2115.28,-1482.95 2109.92,-1482.2 2104.59,-1481.36 2099.32,-1480.44 2094.1,-1479.43 2088.95,-1478.35 2083.88,-1477.19 2078.9,-1475.95 2074.02,-1474.65 2069.26,-1473.28 2064.62,-1471.84 2060.14,-1470.35 2055.81,-1468.8 2051.66,-1467.21 2047.7,-1465.56 2043.96,-1463.88 2040.44,-1462.15 2037.17,-1460.4 2034.17,-1458.61 2031.46,-1456.81 2029.05,-1454.99 2026.95,-1453.15 2025.2,-1451.31 2023.8,-1449.46 2022.76,-1447.62 2022.11,-1445.79 2021.86,-1443.96 2022.01,-1442.16 2022.58,-1440.38 2023.58,-1438.62 2025.01,-1436.9 2026.88,-1435.21 2029.19,-1433.57 2031.94,-1431.97 2035.13,-1430.42 2038.75,-1428.93 2042.8,-1427.5 2047.27,-1426.12 2052.15,-1424.82 2057.42,-1423.58 2063.08,-1422.42 2069.09,-1421.34 2075.45,-1420.33 2082.13,-1419.41 2089.1,-1418.57 2096.34,-1417.82 2103.82,-1417.16 2111.52,-1416.59 2119.4,-1416.11 2127.43,-1415.73 2135.58,-1415.44 2143.81,-1415.25 2152.1,-1415.15 2160.4,-1415.15 2168.68,-1415.25"/>
<text text-anchor="start" x="2127.08" y="-1460.19" font-family="Times,serif" font-size="14.00">C0208205</text>
<text text-anchor="start" x="2074.98" y="-1446.19" font-family="Times,serif" font-size="14.00">immunoglobulin G N&#45;glycan</text>
<text text-anchor="start" x="2133.3" y="-1432.19" font-family="Times,serif" font-size="14.00">133:135</text>
</g>
<!-- id_27743356_DOT_5&#45;&#45;id_27743356_DOT_18 -->
<g id="edge15" class="edge">
<title>id_27743356_DOT_5&#45;&#45;id_27743356_DOT_18</title>
<path fill="none" stroke="black" stroke-dasharray="1,5" d="M2470.41,-1479.61C2418.4,-1474.78 2339.44,-1467.43 2273.7,-1461.31"/>
<text text-anchor="middle" x="2345.81" y="-1473.26" font-family="Times,serif" font-size="14.00">0.726833</text>
</g>
<!-- id_27743356_DOT_6 -->
<g id="node6" class="node">
<title>id_27743356_DOT_6</title>
<polygon fill="cadetblue" stroke="cadetblue" points="741.51,-1084.69 747.19,-1084.88 752.81,-1085.17 758.34,-1085.55 763.78,-1086.03 769.08,-1086.6 774.24,-1087.26 779.24,-1088.01 784.05,-1088.85 788.65,-1089.78 793.03,-1090.78 797.18,-1091.86 801.08,-1093.03 804.72,-1094.26 808.08,-1095.57 811.16,-1096.94 813.96,-1098.37 816.45,-1099.86 818.65,-1101.41 820.55,-1103.01 822.14,-1104.65 823.43,-1106.34 824.41,-1108.06 825.1,-1109.82 825.5,-1111.6 825.6,-1113.41 825.43,-1115.23 824.98,-1117.06 824.27,-1118.91 823.3,-1120.75 822.09,-1122.59 820.65,-1124.43 818.98,-1126.25 817.11,-1128.06 815.04,-1129.84 812.79,-1131.59 810.37,-1133.32 807.78,-1135 805.06,-1136.65 802.19,-1138.25 799.21,-1139.79 796.11,-1141.29 792.92,-1142.72 789.63,-1144.09 786.27,-1145.4 782.84,-1146.63 779.34,-1147.79 775.79,-1148.88 772.19,-1149.88 768.55,-1150.8 764.88,-1151.64 761.18,-1152.39 757.46,-1153.05 753.72,-1153.62 749.96,-1154.1 746.19,-1154.49 742.41,-1154.77 738.62,-1154.97 734.83,-1155.06 731.04,-1155.06 727.25,-1154.97 723.47,-1154.77 719.69,-1154.49 715.91,-1154.1 712.16,-1153.62 708.41,-1153.05 704.69,-1152.39 700.99,-1151.64 697.32,-1150.8 693.68,-1149.88 690.09,-1148.88 686.53,-1147.79 683.04,-1146.63 679.6,-1145.4 676.24,-1144.09 672.95,-1142.72 669.76,-1141.29 666.66,-1139.79 663.68,-1138.25 660.82,-1136.65 658.09,-1135 655.51,-1133.32 653.08,-1131.59 650.83,-1129.84 648.76,-1128.06 646.89,-1126.25 645.23,-1124.43 643.78,-1122.59 642.57,-1120.75 641.61,-1118.91 640.89,-1117.06 640.45,-1115.23 640.27,-1113.41 640.38,-1111.6 640.77,-1109.82 641.46,-1108.06 642.45,-1106.34 643.73,-1104.65 645.33,-1103.01 647.22,-1101.41 649.42,-1099.86 651.92,-1098.37 654.71,-1096.94 657.79,-1095.57 661.16,-1094.26 664.79,-1093.03 668.69,-1091.86 672.84,-1090.78 677.22,-1089.78 681.83,-1088.85 686.64,-1088.01 691.63,-1087.26 696.79,-1086.6 702.1,-1086.03 707.53,-1085.55 713.07,-1085.17 718.68,-1084.88 724.36,-1084.69 730.07,-1084.59 735.8,-1084.59 741.51,-1084.69"/>
<text text-anchor="start" x="703.77" y="-1129.63" font-family="Times,serif" font-size="14.00">C0020852</text>
<text text-anchor="start" x="679.46" y="-1115.63" font-family="Times,serif" font-size="14.00">immunoglobulin G</text>
<text text-anchor="start" x="716.99" y="-1101.63" font-family="Times,serif" font-size="14.00">42:43</text>
</g>
<!-- id_27743356_DOT_8 -->
<g id="node8" class="node">
<title>id_27743356_DOT_8</title>
<polygon fill="cadetblue" stroke="cadetblue" points="412.49,-927.46 418.17,-927.65 423.79,-927.94 429.32,-928.32 434.76,-928.8 440.06,-929.37 445.23,-930.03 450.22,-930.78 455.03,-931.62 459.63,-932.54 464.01,-933.55 468.16,-934.63 472.06,-935.8 475.7,-937.03 479.06,-938.33 482.14,-939.71 484.94,-941.14 487.43,-942.63 489.63,-944.18 491.53,-945.78 493.12,-947.42 494.41,-949.11 495.39,-950.83 496.08,-952.59 496.48,-954.37 496.58,-956.17 496.41,-958 495.96,-959.83 495.25,-961.67 494.28,-963.52 493.07,-965.36 491.63,-967.2 489.96,-969.02 488.09,-970.83 486.02,-972.61 483.77,-974.36 481.35,-976.09 478.76,-977.77 476.04,-979.42 473.17,-981.01 470.19,-982.56 467.09,-984.05 463.9,-985.49 460.61,-986.86 457.25,-988.17 453.82,-989.4 450.32,-990.56 446.77,-991.65 443.17,-992.65 439.53,-993.57 435.86,-994.41 432.16,-995.16 428.44,-995.82 424.7,-996.39 420.94,-996.87 417.17,-997.25 413.39,-997.54 409.6,-997.74 405.81,-997.83 402.02,-997.83 398.23,-997.74 394.45,-997.54 390.67,-997.25 386.89,-996.87 383.14,-996.39 379.39,-995.82 375.67,-995.16 371.97,-994.41 368.3,-993.57 364.66,-992.65 361.07,-991.65 357.51,-990.56 354.02,-989.4 350.58,-988.17 347.22,-986.86 343.93,-985.49 340.74,-984.05 337.64,-982.56 334.66,-981.01 331.8,-979.42 329.07,-977.77 326.49,-976.09 324.06,-974.36 321.81,-972.61 319.74,-970.83 317.87,-969.02 316.21,-967.2 314.76,-965.36 313.55,-963.52 312.59,-961.67 311.87,-959.83 311.43,-958 311.25,-956.17 311.36,-954.37 311.75,-952.59 312.44,-950.83 313.43,-949.11 314.71,-947.42 316.31,-945.78 318.2,-944.18 320.4,-942.63 322.9,-941.14 325.69,-939.71 328.77,-938.33 332.14,-937.03 335.77,-935.8 339.67,-934.63 343.82,-933.55 348.2,-932.54 352.81,-931.62 357.62,-930.78 362.61,-930.03 367.77,-929.37 373.08,-928.8 378.51,-928.32 384.05,-927.94 389.66,-927.65 395.34,-927.46 401.05,-927.36 406.78,-927.36 412.49,-927.46"/>
<text text-anchor="start" x="374.75" y="-972.4" font-family="Times,serif" font-size="14.00">C0020852</text>
<text text-anchor="start" x="350.44" y="-958.4" font-family="Times,serif" font-size="14.00">immunoglobulin G</text>
<text text-anchor="start" x="387.97" y="-944.4" font-family="Times,serif" font-size="14.00">53:54</text>
</g>
<!-- id_27743356_DOT_6&#45;&#45;id_27743356_DOT_8 -->
<g id="edge5" class="edge">
<title>id_27743356_DOT_6&#45;&#45;id_27743356_DOT_8</title>
<path fill="none" stroke="black" d="M672.21,-1090.81C610.65,-1061.39 516.34,-1016.32 457.49,-988.2"/>
<text text-anchor="middle" x="538.6" y="-1042.3" font-family="Times,serif" font-size="14.00">0.000956</text>
</g>
<!-- id_27743356_DOT_6&#45;&#45;id_27743356_DOT_9 -->
<g id="edge6" class="edge">
<title>id_27743356_DOT_6&#45;&#45;id_27743356_DOT_9</title>
<path fill="none" stroke="black" d="M794.27,-1142.21C853.35,-1163.77 942.67,-1196.36 1004.85,-1219.05"/>
<text text-anchor="middle" x="873.31" y="-1183.43" font-family="Times,serif" font-size="14.00">0.001719</text>
</g>
<!-- id_27743356_DOT_7 -->
<g id="node7" class="node">
<title>id_27743356_DOT_7</title>
<polygon fill="chartreuse" stroke="chartreuse" points="4911.69,-1488.82 4915.12,-1489.01 4918.51,-1489.3 4921.85,-1489.68 4925.13,-1490.16 4928.34,-1490.73 4931.45,-1491.39 4934.47,-1492.14 4937.37,-1492.98 4940.15,-1493.9 4942.8,-1494.91 4945.3,-1495.99 4947.66,-1497.15 4949.85,-1498.39 4951.89,-1499.69 4953.75,-1501.07 4955.43,-1502.5 4956.94,-1503.99 4958.27,-1505.54 4959.41,-1507.14 4960.38,-1508.78 4961.15,-1510.47 4961.75,-1512.19 4962.17,-1513.95 4962.4,-1515.73 4962.47,-1517.53 4962.36,-1519.36 4962.09,-1521.19 4961.66,-1523.03 4961.08,-1524.88 4960.35,-1526.72 4959.47,-1528.56 4958.47,-1530.38 4957.34,-1532.19 4956.09,-1533.97 4954.73,-1535.72 4953.27,-1537.45 4951.71,-1539.13 4950.06,-1540.78 4948.33,-1542.37 4946.53,-1543.92 4944.66,-1545.41 4942.73,-1546.85 4940.75,-1548.22 4938.72,-1549.52 4936.64,-1550.76 4934.53,-1551.92 4932.39,-1553.01 4930.21,-1554.01 4928.02,-1554.93 4925.8,-1555.77 4923.57,-1556.52 4921.32,-1557.18 4919.06,-1557.75 4916.79,-1558.23 4914.51,-1558.61 4912.23,-1558.9 4909.94,-1559.1 4907.66,-1559.19 4905.37,-1559.19 4903.08,-1559.1 4900.79,-1558.9 4898.51,-1558.61 4896.23,-1558.23 4893.96,-1557.75 4891.7,-1557.18 4889.45,-1556.52 4887.22,-1555.77 4885,-1554.93 4882.81,-1554.01 4880.63,-1553.01 4878.49,-1551.92 4876.38,-1550.76 4874.31,-1549.52 4872.27,-1548.22 4870.29,-1546.85 4868.36,-1545.41 4866.49,-1543.92 4864.69,-1542.37 4862.96,-1540.78 4861.31,-1539.13 4859.75,-1537.45 4858.29,-1535.72 4856.93,-1533.97 4855.68,-1532.19 4854.55,-1530.38 4853.55,-1528.56 4852.68,-1526.72 4851.94,-1524.88 4851.36,-1523.03 4850.93,-1521.19 4850.66,-1519.36 4850.55,-1517.53 4850.62,-1515.73 4850.86,-1513.95 4851.27,-1512.19 4851.87,-1510.47 4852.65,-1508.78 4853.61,-1507.14 4854.75,-1505.54 4856.08,-1503.99 4857.59,-1502.5 4859.27,-1501.07 4861.14,-1499.69 4863.17,-1498.39 4865.36,-1497.15 4867.72,-1495.99 4870.22,-1494.91 4872.87,-1493.9 4875.65,-1492.98 4878.55,-1492.14 4881.57,-1491.39 4884.68,-1490.73 4887.89,-1490.16 4891.17,-1489.68 4894.51,-1489.3 4897.9,-1489.01 4901.33,-1488.82 4904.78,-1488.72 4908.24,-1488.72 4911.69,-1488.82"/>
<text text-anchor="start" x="4877.34" y="-1533.76" font-family="Times,serif" font-size="14.00">C0031843</text>
<text text-anchor="start" x="4883.18" y="-1519.76" font-family="Times,serif" font-size="14.00">function</text>
<text text-anchor="start" x="4890.57" y="-1505.76" font-family="Times,serif" font-size="14.00">51:51</text>
</g>
<!-- id_27743356_DOT_17 -->
<g id="node17" class="node">
<title>id_27743356_DOT_17</title>
<polygon fill="darkgreen" stroke="darkgreen" points="4529.7,-1599.23 4533.12,-1599.42 4536.52,-1599.71 4539.86,-1600.09 4543.14,-1600.57 4546.35,-1601.14 4549.46,-1601.8 4552.48,-1602.55 4555.38,-1603.39 4558.16,-1604.31 4560.81,-1605.32 4563.31,-1606.4 4565.67,-1607.56 4567.86,-1608.8 4569.89,-1610.1 4571.75,-1611.47 4573.44,-1612.91 4574.95,-1614.4 4576.28,-1615.95 4577.42,-1617.55 4578.38,-1619.19 4579.16,-1620.88 4579.76,-1622.6 4580.17,-1624.35 4580.41,-1626.14 4580.47,-1627.94 4580.37,-1629.76 4580.1,-1631.6 4579.67,-1633.44 4579.08,-1635.29 4578.35,-1637.13 4577.48,-1638.97 4576.48,-1640.79 4575.35,-1642.59 4574.1,-1644.38 4572.74,-1646.13 4571.27,-1647.85 4569.71,-1649.54 4568.07,-1651.18 4566.34,-1652.78 4564.54,-1654.33 4562.67,-1655.82 4560.74,-1657.26 4558.75,-1658.63 4556.72,-1659.93 4554.65,-1661.17 4552.54,-1662.33 4550.39,-1663.41 4548.22,-1664.42 4546.03,-1665.34 4543.81,-1666.18 4541.57,-1666.93 4539.33,-1667.59 4537.07,-1668.16 4534.8,-1668.64 4532.52,-1669.02 4530.24,-1669.31 4527.95,-1669.5 4525.66,-1669.6 4523.37,-1669.6 4521.08,-1669.5 4518.8,-1669.31 4516.52,-1669.02 4514.24,-1668.64 4511.97,-1668.16 4509.71,-1667.59 4507.46,-1666.93 4505.23,-1666.18 4503.01,-1665.34 4500.81,-1664.42 4498.64,-1663.41 4496.5,-1662.33 4494.39,-1661.17 4492.31,-1659.93 4490.28,-1658.63 4488.3,-1657.26 4486.37,-1655.82 4484.5,-1654.33 4482.7,-1652.78 4480.97,-1651.18 4479.32,-1649.54 4477.76,-1647.85 4476.3,-1646.13 4474.94,-1644.38 4473.69,-1642.59 4472.56,-1640.79 4471.55,-1638.97 4470.68,-1637.13 4469.95,-1635.29 4469.37,-1633.44 4468.94,-1631.6 4468.67,-1629.76 4468.56,-1627.94 4468.63,-1626.14 4468.86,-1624.35 4469.28,-1622.6 4469.87,-1620.88 4470.65,-1619.19 4471.61,-1617.55 4472.76,-1615.95 4474.09,-1614.4 4475.59,-1612.91 4477.28,-1611.47 4479.14,-1610.1 4481.17,-1608.8 4483.37,-1607.56 4485.72,-1606.4 4488.23,-1605.32 4490.88,-1604.31 4493.66,-1603.39 4496.56,-1602.55 4499.57,-1601.8 4502.69,-1601.14 4505.89,-1600.57 4509.18,-1600.09 4512.52,-1599.71 4515.91,-1599.42 4519.34,-1599.23 4522.79,-1599.13 4526.25,-1599.13 4529.7,-1599.23"/>
<text text-anchor="start" x="4495.35" y="-1644.16" font-family="Times,serif" font-size="14.00">C2348563</text>
<text text-anchor="start" x="4501.19" y="-1630.16" font-family="Times,serif" font-size="14.00">protocol</text>
<text text-anchor="start" x="4501.57" y="-1616.16" font-family="Times,serif" font-size="14.00">125:125</text>
</g>
<!-- id_27743356_DOT_7&#45;&#45;id_27743356_DOT_17 -->
<g id="edge16" class="edge">
<title>id_27743356_DOT_7&#45;&#45;id_27743356_DOT_17</title>
<path fill="none" stroke="black" stroke-dasharray="1,5" d="M4859.67,-1537.5C4788.45,-1558.08 4653.29,-1597.15 4578.2,-1618.85"/>
<text text-anchor="middle" x="4692.68" y="-1580.97" font-family="Times,serif" font-size="14.00">0.847576</text>
</g>
<!-- id_27743356_DOT_16 -->
<g id="node16" class="node">
<title>id_27743356_DOT_16</title>
<polygon fill="cadetblue" stroke="cadetblue" points="101.16,-739.03 106.84,-739.22 112.45,-739.51 117.99,-739.89 123.42,-740.37 128.73,-740.94 133.89,-741.6 138.88,-742.35 143.69,-743.19 148.3,-744.11 152.68,-745.12 156.83,-746.2 160.73,-747.36 164.36,-748.6 167.73,-749.9 170.81,-751.28 173.6,-752.71 176.1,-754.2 178.3,-755.75 180.19,-757.35 181.79,-758.99 183.07,-760.68 184.06,-762.4 184.75,-764.16 185.14,-765.94 185.25,-767.74 185.07,-769.57 184.63,-771.4 183.91,-773.24 182.95,-775.09 181.74,-776.93 180.29,-778.77 178.63,-780.59 176.76,-782.39 174.69,-784.18 172.44,-785.93 170.01,-787.66 167.43,-789.34 164.7,-790.99 161.84,-792.58 158.86,-794.13 155.76,-795.62 152.57,-797.06 149.28,-798.43 145.92,-799.73 142.48,-800.97 138.99,-802.13 135.43,-803.21 131.84,-804.22 128.2,-805.14 124.53,-805.98 120.83,-806.73 117.11,-807.39 113.36,-807.96 109.61,-808.44 105.83,-808.82 102.05,-809.11 98.27,-809.31 94.48,-809.4 90.69,-809.4 86.9,-809.31 83.11,-809.11 79.33,-808.82 75.56,-808.44 71.8,-807.96 68.06,-807.39 64.34,-806.73 60.64,-805.98 56.97,-805.14 53.33,-804.22 49.73,-803.21 46.18,-802.13 42.68,-800.97 39.25,-799.73 35.89,-798.43 32.6,-797.06 29.41,-795.62 26.31,-794.13 23.33,-792.58 20.46,-790.99 17.74,-789.34 15.15,-787.66 12.73,-785.93 10.48,-784.18 8.41,-782.39 6.54,-780.59 4.87,-778.77 3.43,-776.93 2.22,-775.09 1.25,-773.24 0.54,-771.4 0.09,-769.57 -0.08,-767.74 0.02,-765.94 0.42,-764.16 1.11,-762.4 2.09,-760.68 3.38,-758.99 4.97,-757.35 6.87,-755.75 9.07,-754.2 11.56,-752.71 14.36,-751.28 17.44,-749.9 20.8,-748.6 24.44,-747.36 28.34,-746.2 32.49,-745.12 36.87,-744.11 41.47,-743.19 46.28,-742.35 51.27,-741.6 56.44,-740.94 61.74,-740.37 67.18,-739.89 72.71,-739.51 78.33,-739.22 84.01,-739.03 89.72,-738.93 95.45,-738.93 101.16,-739.03"/>
<text text-anchor="start" x="63.41" y="-783.97" font-family="Times,serif" font-size="14.00">C0020852</text>
<text text-anchor="start" x="39.11" y="-769.97" font-family="Times,serif" font-size="14.00">immunoglobulin G</text>
<text text-anchor="start" x="76.64" y="-755.97" font-family="Times,serif" font-size="14.00">91:92</text>
</g>
<!-- id_27743356_DOT_8&#45;&#45;id_27743356_DOT_16 -->
<g id="edge7" class="edge">
<title>id_27743356_DOT_8&#45;&#45;id_27743356_DOT_16</title>
<path fill="none" stroke="black" d="M352.51,-931.48C293.09,-895.52 196.18,-836.87 138.98,-802.25"/>
<text text-anchor="middle" x="219.49" y="-869.67" font-family="Times,serif" font-size="14.00">0.002221</text>
</g>
<!-- id_27743356_DOT_12 -->
<g id="node12" class="node">
<title>id_27743356_DOT_12</title>
<polygon fill="bisque" stroke="bisque" points="3751.56,-1650.95 3758.19,-1651.14 3764.76,-1651.43 3771.22,-1651.82 3777.57,-1652.29 3783.77,-1652.86 3789.8,-1653.53 3795.63,-1654.28 3801.24,-1655.11 3806.62,-1656.04 3811.74,-1657.04 3816.59,-1658.13 3821.14,-1659.29 3825.39,-1660.52 3829.32,-1661.83 3832.92,-1663.2 3836.18,-1664.63 3839.1,-1666.13 3841.67,-1667.67 3843.88,-1669.27 3845.74,-1670.92 3847.25,-1672.6 3848.4,-1674.32 3849.2,-1676.08 3849.66,-1677.86 3849.79,-1679.67 3849.58,-1681.49 3849.06,-1683.33 3848.23,-1685.17 3847.1,-1687.01 3845.68,-1688.86 3844,-1690.69 3842.05,-1692.51 3839.87,-1694.32 3837.45,-1696.1 3834.82,-1697.86 3831.99,-1699.58 3828.97,-1701.27 3825.79,-1702.91 3822.44,-1704.51 3818.96,-1706.06 3815.34,-1707.55 3811.61,-1708.98 3807.77,-1710.35 3803.84,-1711.66 3799.83,-1712.89 3795.75,-1714.05 3791.6,-1715.14 3787.4,-1716.14 3783.15,-1717.07 3778.86,-1717.9 3774.54,-1718.66 3770.19,-1719.32 3765.82,-1719.89 3761.43,-1720.36 3757.02,-1720.75 3752.61,-1721.04 3748.19,-1721.23 3743.76,-1721.33 3739.33,-1721.33 3734.9,-1721.23 3730.48,-1721.04 3726.07,-1720.75 3721.66,-1720.36 3717.27,-1719.89 3712.9,-1719.32 3708.55,-1718.66 3704.23,-1717.9 3699.94,-1717.07 3695.69,-1716.14 3691.49,-1715.14 3687.34,-1714.05 3683.26,-1712.89 3679.25,-1711.66 3675.32,-1710.35 3671.48,-1708.98 3667.75,-1707.55 3664.13,-1706.06 3660.65,-1704.51 3657.3,-1702.91 3654.12,-1701.27 3651.1,-1699.58 3648.27,-1697.86 3645.64,-1696.1 3643.22,-1694.32 3641.04,-1692.51 3639.09,-1690.69 3637.41,-1688.86 3635.99,-1687.01 3634.86,-1685.17 3634.03,-1683.33 3633.51,-1681.49 3633.3,-1679.67 3633.43,-1677.86 3633.89,-1676.08 3634.69,-1674.32 3635.84,-1672.6 3637.35,-1670.92 3639.21,-1669.27 3641.42,-1667.67 3643.99,-1666.13 3646.91,-1664.63 3650.17,-1663.2 3653.77,-1661.83 3657.7,-1660.52 3661.95,-1659.29 3666.5,-1658.13 3671.35,-1657.04 3676.47,-1656.04 3681.85,-1655.11 3687.46,-1654.28 3693.29,-1653.53 3699.32,-1652.86 3705.52,-1652.29 3711.87,-1651.82 3718.33,-1651.43 3724.9,-1651.14 3731.53,-1650.95 3738.2,-1650.86 3744.89,-1650.86 3751.56,-1650.95"/>
<text text-anchor="start" x="3712.38" y="-1695.89" font-family="Times,serif" font-size="14.00">C0008565</text>
<text text-anchor="start" x="3677.59" y="-1681.89" font-family="Times,serif" font-size="14.00">liquid chromatography</text>
<text text-anchor="start" x="3725.6" y="-1667.89" font-family="Times,serif" font-size="14.00">77:78</text>
</g>
<!-- id_27743356_DOT_10&#45;&#45;id_27743356_DOT_12 -->
<g id="edge17" class="edge">
<title>id_27743356_DOT_10&#45;&#45;id_27743356_DOT_12</title>
<path fill="none" stroke="black" stroke-dasharray="1,5" d="M3353.76,-1604.29C3428,-1619.95 3556.08,-1646.97 3644.62,-1665.64"/>
<text text-anchor="middle" x="3472.94" y="-1637.77" font-family="Times,serif" font-size="14.00">0.844382</text>
</g>
<!-- id_27743356_DOT_19 -->
<g id="node19" class="node">
<title>id_27743356_DOT_19</title>
<polygon fill="darkkhaki" stroke="darkkhaki" points="4249.86,-1009.52 4255.67,-1009.72 4261.42,-1010.01 4267.08,-1010.39 4272.64,-1010.87 4278.07,-1011.44 4283.35,-1012.1 4288.46,-1012.85 4293.37,-1013.69 4298.08,-1014.61 4302.57,-1015.61 4306.81,-1016.7 4310.8,-1017.86 4314.52,-1019.09 4317.96,-1020.4 4321.12,-1021.77 4323.97,-1023.21 4326.53,-1024.7 4328.78,-1026.25 4330.72,-1027.84 4332.34,-1029.49 4333.66,-1031.17 4334.67,-1032.9 4335.38,-1034.65 4335.78,-1036.43 4335.89,-1038.24 4335.71,-1040.06 4335.25,-1041.9 4334.52,-1043.74 4333.53,-1045.59 4332.29,-1047.43 4330.82,-1049.26 4329.12,-1051.09 4327.2,-1052.89 4325.08,-1054.67 4322.78,-1056.43 4320.3,-1058.15 4317.66,-1059.84 4314.87,-1061.48 4311.94,-1063.08 4308.89,-1064.63 4305.72,-1066.12 4302.45,-1067.55 4299.09,-1068.93 4295.65,-1070.23 4292.14,-1071.46 4288.56,-1072.63 4284.93,-1073.71 4281.25,-1074.72 4277.53,-1075.64 4273.77,-1076.48 4269.99,-1077.23 4266.18,-1077.89 4262.35,-1078.46 4258.5,-1078.94 4254.65,-1079.32 4250.78,-1079.61 4246.9,-1079.8 4243.03,-1079.9 4239.15,-1079.9 4235.27,-1079.8 4231.4,-1079.61 4227.53,-1079.32 4223.67,-1078.94 4219.83,-1078.46 4216,-1077.89 4212.19,-1077.23 4208.41,-1076.48 4204.65,-1075.64 4200.93,-1074.72 4197.25,-1073.71 4193.62,-1072.63 4190.04,-1071.46 4186.53,-1070.23 4183.09,-1068.93 4179.73,-1067.55 4176.46,-1066.12 4173.29,-1064.63 4170.24,-1063.08 4167.31,-1061.48 4164.52,-1059.84 4161.88,-1058.15 4159.4,-1056.43 4157.09,-1054.67 4154.98,-1052.89 4153.06,-1051.09 4151.36,-1049.26 4149.88,-1047.43 4148.65,-1045.59 4147.66,-1043.74 4146.93,-1041.9 4146.47,-1040.06 4146.29,-1038.24 4146.4,-1036.43 4146.8,-1034.65 4147.51,-1032.9 4148.51,-1031.17 4149.83,-1029.49 4151.46,-1027.84 4153.4,-1026.25 4155.65,-1024.7 4158.2,-1023.21 4161.06,-1021.77 4164.22,-1020.4 4167.66,-1019.09 4171.38,-1017.86 4175.37,-1016.7 4179.61,-1015.61 4184.09,-1014.61 4188.8,-1013.69 4193.72,-1012.85 4198.83,-1012.1 4204.11,-1011.44 4209.54,-1010.87 4215.1,-1010.39 4220.76,-1010.01 4226.51,-1009.72 4232.32,-1009.52 4238.16,-1009.43 4244.02,-1009.43 4249.86,-1009.52"/>
<text text-anchor="start" x="4211.92" y="-1054.46" font-family="Times,serif" font-size="14.00">C0022885</text>
<text text-anchor="start" x="4186.08" y="-1040.46" font-family="Times,serif" font-size="14.00">fluorescent labeling</text>
<text text-anchor="start" x="4218.14" y="-1026.46" font-family="Times,serif" font-size="14.00">138:139</text>
</g>
<!-- id_27743356_DOT_11&#45;&#45;id_27743356_DOT_19 -->
<g id="edge18" class="edge">
<title>id_27743356_DOT_11&#45;&#45;id_27743356_DOT_19</title>
<path fill="none" stroke="black" stroke-dasharray="1,5" d="M4382.99,-709.89C4353.47,-779.52 4285.97,-938.77 4255.96,-1009.59"/>
<text text-anchor="middle" x="4293.22" y="-862.54" font-family="Times,serif" font-size="14.00">0.709789</text>
</g>
<!-- id_27743356_DOT_13 -->
<g id="node13" class="node">
<title>id_27743356_DOT_13</title>
<polygon fill="crimson" stroke="crimson" points="4147.79,-1429.13 4155.81,-1429.32 4163.74,-1429.61 4171.55,-1429.99 4179.22,-1430.47 4186.71,-1431.04 4193.99,-1431.7 4201.04,-1432.45 4207.82,-1433.29 4214.32,-1434.21 4220.51,-1435.22 4226.36,-1436.3 4231.86,-1437.46 4237,-1438.7 4241.75,-1440 4246.1,-1441.37 4250.04,-1442.81 4253.56,-1444.3 4256.67,-1445.85 4259.34,-1447.45 4261.59,-1449.09 4263.41,-1450.78 4264.8,-1452.5 4265.77,-1454.25 4266.33,-1456.04 4266.48,-1457.84 4266.23,-1459.66 4265.6,-1461.5 4264.59,-1463.34 4263.23,-1465.19 4261.52,-1467.03 4259.48,-1468.86 4257.13,-1470.69 4254.49,-1472.49 4251.57,-1474.27 4248.39,-1476.03 4244.97,-1477.75 4241.33,-1479.44 4237.48,-1481.08 4233.44,-1482.68 4229.23,-1484.23 4224.86,-1485.72 4220.35,-1487.16 4215.71,-1488.53 4210.96,-1489.83 4206.12,-1491.07 4201.18,-1492.23 4196.17,-1493.31 4191.09,-1494.32 4185.96,-1495.24 4180.78,-1496.08 4175.56,-1496.83 4170.3,-1497.49 4165.02,-1498.06 4159.72,-1498.54 4154.39,-1498.92 4149.06,-1499.21 4143.72,-1499.4 4138.37,-1499.5 4133.02,-1499.5 4127.67,-1499.4 4122.32,-1499.21 4116.99,-1498.92 4111.67,-1498.54 4106.36,-1498.06 4101.08,-1497.49 4095.83,-1496.83 4090.6,-1496.08 4085.42,-1495.24 4080.29,-1494.32 4075.21,-1493.31 4070.2,-1492.23 4065.27,-1491.07 4060.42,-1489.83 4055.67,-1488.53 4051.04,-1487.16 4046.53,-1485.72 4042.16,-1484.23 4037.95,-1482.68 4033.91,-1481.08 4030.06,-1479.44 4026.41,-1477.75 4022.99,-1476.03 4019.81,-1474.27 4016.89,-1472.49 4014.25,-1470.69 4011.9,-1468.86 4009.87,-1467.03 4008.16,-1465.19 4006.79,-1463.34 4005.79,-1461.5 4005.16,-1459.66 4004.91,-1457.84 4005.06,-1456.04 4005.61,-1454.25 4006.59,-1452.5 4007.98,-1450.78 4009.8,-1449.09 4012.04,-1447.45 4014.72,-1445.85 4017.82,-1444.3 4021.35,-1442.81 4025.29,-1441.37 4029.64,-1440 4034.39,-1438.7 4039.52,-1437.46 4045.02,-1436.3 4050.88,-1435.22 4057.06,-1434.21 4063.56,-1433.29 4070.34,-1432.45 4077.39,-1431.7 4084.68,-1431.04 4092.17,-1430.47 4099.83,-1429.99 4107.65,-1429.61 4115.58,-1429.32 4123.59,-1429.13 4131.65,-1429.03 4139.73,-1429.03 4147.79,-1429.13"/>
<text text-anchor="start" x="4106.52" y="-1474.06" font-family="Times,serif" font-size="14.00">C0596607</text>
<text text-anchor="start" x="4056.78" y="-1460.06" font-family="Times,serif" font-size="14.00">capillary gel electrophoresis</text>
<text text-anchor="start" x="4119.75" y="-1446.06" font-family="Times,serif" font-size="14.00">80:82</text>
</g>
<!-- id_27743356_DOT_12&#45;&#45;id_27743356_DOT_13 -->
<g id="edge19" class="edge">
<title>id_27743356_DOT_12&#45;&#45;id_27743356_DOT_13</title>
<path fill="none" stroke="black" stroke-dasharray="1,5" d="M3797.6,-1654.54C3873.26,-1611.96 4007.16,-1536.6 4081.73,-1494.63"/>
<text text-anchor="middle" x="3913.41" y="-1577.39" font-family="Times,serif" font-size="14.00">0.543238</text>
</g>
<!-- id_27743356_DOT_20 -->
<g id="node20" class="node">
<title>id_27743356_DOT_20</title>
<polygon fill="darkmagenta" stroke="darkmagenta" points="3547.5,-1924.62 3550.93,-1924.82 3554.32,-1925.11 3557.67,-1925.49 3560.95,-1925.97 3564.15,-1926.54 3567.27,-1927.2 3570.28,-1927.95 3573.19,-1928.79 3575.97,-1929.71 3578.61,-1930.72 3581.12,-1931.8 3583.47,-1932.96 3585.67,-1934.2 3587.7,-1935.5 3589.56,-1936.87 3591.25,-1938.31 3592.76,-1939.8 3594.08,-1941.35 3595.23,-1942.95 3596.19,-1944.59 3596.97,-1946.28 3597.56,-1948 3597.98,-1949.75 3598.22,-1951.54 3598.28,-1953.34 3598.18,-1955.16 3597.9,-1957 3597.47,-1958.84 3596.89,-1960.69 3596.16,-1962.53 3595.29,-1964.36 3594.28,-1966.19 3593.15,-1967.99 3591.9,-1969.77 3590.54,-1971.53 3589.08,-1973.25 3587.52,-1974.94 3585.87,-1976.58 3584.15,-1978.18 3582.34,-1979.73 3580.47,-1981.22 3578.55,-1982.66 3576.56,-1984.03 3574.53,-1985.33 3572.46,-1986.57 3570.34,-1987.73 3568.2,-1988.81 3566.03,-1989.82 3563.83,-1990.74 3561.62,-1991.58 3559.38,-1992.33 3557.13,-1992.99 3554.87,-1993.56 3552.6,-1994.04 3550.33,-1994.42 3548.04,-1994.71 3545.76,-1994.9 3543.47,-1995 3541.18,-1995 3538.89,-1994.9 3536.61,-1994.71 3534.32,-1994.42 3532.05,-1994.04 3529.78,-1993.56 3527.52,-1992.99 3525.27,-1992.33 3523.03,-1991.58 3520.82,-1990.74 3518.62,-1989.82 3516.45,-1988.81 3514.31,-1987.73 3512.19,-1986.57 3510.12,-1985.33 3508.09,-1984.03 3506.1,-1982.66 3504.18,-1981.22 3502.31,-1979.73 3500.5,-1978.18 3498.78,-1976.58 3497.13,-1974.94 3495.57,-1973.25 3494.11,-1971.53 3492.75,-1969.77 3491.5,-1967.99 3490.37,-1966.19 3489.36,-1964.36 3488.49,-1962.53 3487.76,-1960.69 3487.18,-1958.84 3486.74,-1957 3486.47,-1955.16 3486.37,-1953.34 3486.43,-1951.54 3486.67,-1949.75 3487.09,-1948 3487.68,-1946.28 3488.46,-1944.59 3489.42,-1942.95 3490.57,-1941.35 3491.89,-1939.8 3493.4,-1938.31 3495.09,-1936.87 3496.95,-1935.5 3498.98,-1934.2 3501.18,-1932.96 3503.53,-1931.8 3506.04,-1930.72 3508.68,-1929.71 3511.46,-1928.79 3514.37,-1927.95 3517.38,-1927.2 3520.5,-1926.54 3523.7,-1925.97 3526.98,-1925.49 3530.33,-1925.11 3533.72,-1924.82 3537.15,-1924.62 3540.6,-1924.53 3544.05,-1924.53 3547.5,-1924.62"/>
<text text-anchor="start" x="3513.16" y="-1969.56" font-family="Times,serif" font-size="14.00">C0936012</text>
<text text-anchor="start" x="3519.77" y="-1955.56" font-family="Times,serif" font-size="14.00">analysis</text>
<text text-anchor="start" x="3519.38" y="-1941.56" font-family="Times,serif" font-size="14.00">144:144</text>
</g>
<!-- id_27743356_DOT_12&#45;&#45;id_27743356_DOT_20 -->
<g id="edge20" class="edge">
<title>id_27743356_DOT_12&#45;&#45;id_27743356_DOT_20</title>
<path fill="none" stroke="black" stroke-dasharray="1,5" d="M3716.92,-1719.92C3678.4,-1772.84 3604.37,-1874.53 3566.28,-1926.86"/>
<text text-anchor="middle" x="3615.35" y="-1826.19" font-family="Times,serif" font-size="14.00">0.810370</text>
</g>
<!-- id_27743356_DOT_22 -->
<g id="node22" class="node">
<title>id_27743356_DOT_22</title>
<polygon fill="bisque" stroke="bisque" points="3662.28,-1308.43 3674.98,-1308.62 3687.54,-1308.91 3699.91,-1309.29 3712.06,-1309.77 3723.92,-1310.34 3735.46,-1311 3746.62,-1311.75 3757.37,-1312.59 3767.66,-1313.51 3777.46,-1314.52 3786.73,-1315.6 3795.44,-1316.76 3803.57,-1318 3811.09,-1319.3 3817.98,-1320.67 3824.23,-1322.11 3829.81,-1323.6 3834.73,-1325.15 3838.96,-1326.75 3842.52,-1328.39 3845.4,-1330.08 3847.61,-1331.8 3849.14,-1333.55 3850.03,-1335.34 3850.26,-1337.14 3849.87,-1338.96 3848.87,-1340.8 3847.28,-1342.64 3845.12,-1344.49 3842.41,-1346.33 3839.18,-1348.17 3835.47,-1349.99 3831.28,-1351.79 3826.66,-1353.58 3821.62,-1355.33 3816.2,-1357.05 3810.43,-1358.74 3804.33,-1360.38 3797.93,-1361.98 3791.26,-1363.53 3784.34,-1365.02 3777.2,-1366.46 3769.86,-1367.83 3762.34,-1369.13 3754.66,-1370.37 3746.84,-1371.53 3738.91,-1372.61 3730.87,-1373.62 3722.74,-1374.54 3714.53,-1375.38 3706.26,-1376.13 3697.94,-1376.79 3689.57,-1377.36 3681.17,-1377.84 3672.74,-1378.22 3664.29,-1378.51 3655.83,-1378.7 3647.35,-1378.8 3638.88,-1378.8 3630.41,-1378.7 3621.94,-1378.51 3613.49,-1378.22 3605.06,-1377.84 3596.66,-1377.36 3588.3,-1376.79 3579.97,-1376.13 3571.7,-1375.38 3563.5,-1374.54 3555.37,-1373.62 3547.32,-1372.61 3539.39,-1371.53 3531.57,-1370.37 3523.89,-1369.13 3516.37,-1367.83 3509.03,-1366.46 3501.89,-1365.02 3494.97,-1363.53 3488.3,-1361.98 3481.9,-1360.38 3475.8,-1358.74 3470.03,-1357.05 3464.61,-1355.33 3459.58,-1353.58 3454.95,-1351.79 3450.77,-1349.99 3447.05,-1348.17 3443.82,-1346.33 3441.12,-1344.49 3438.95,-1342.64 3437.36,-1340.8 3436.36,-1338.96 3435.97,-1337.14 3436.21,-1335.34 3437.09,-1333.55 3438.63,-1331.8 3440.83,-1330.08 3443.71,-1328.39 3447.27,-1326.75 3451.51,-1325.15 3456.42,-1323.6 3462,-1322.11 3468.25,-1320.67 3475.14,-1319.3 3482.66,-1318 3490.79,-1316.76 3499.5,-1315.6 3508.78,-1314.52 3518.57,-1313.51 3528.87,-1312.59 3539.61,-1311.75 3550.77,-1311 3562.31,-1310.34 3574.17,-1309.77 3586.32,-1309.29 3598.7,-1308.91 3611.26,-1308.62 3623.95,-1308.43 3636.72,-1308.33 3649.51,-1308.33 3662.28,-1308.43"/>
<text text-anchor="start" x="3613.95" y="-1353.37" font-family="Times,serif" font-size="14.00">C0008565</text>
<text text-anchor="start" x="3513.46" y="-1339.37" font-family="Times,serif" font-size="14.00">hydrophilic interaction liquid chromatography</text>
<text text-anchor="start" x="3620.17" y="-1325.37" font-family="Times,serif" font-size="14.00">152:155</text>
</g>
<!-- id_27743356_DOT_12&#45;&#45;id_27743356_DOT_22 -->
<g id="edge8" class="edge">
<title>id_27743356_DOT_12&#45;&#45;id_27743356_DOT_22</title>
<path fill="none" stroke="black" d="M3731.38,-1650.72C3712.47,-1584.92 3672.09,-1444.4 3653.22,-1378.74"/>
<text text-anchor="middle" x="3666.05" y="-1517.53" font-family="Times,serif" font-size="14.00">0.099632</text>
</g>
<!-- id_27743356_DOT_12&#45;&#45;id_27743356_DOT_23 -->
<g id="edge9" class="edge">
<title>id_27743356_DOT_12&#45;&#45;id_27743356_DOT_23</title>
<path fill="none" stroke="black" d="M3748.99,-1721.3C3766.38,-1803.58 3809.53,-2007.66 3826.96,-2090.1"/>
<text text-anchor="middle" x="3761.72" y="-1908.5" font-family="Times,serif" font-size="14.00">0.124109</text>
</g>
<!-- id_27743356_DOT_13&#45;&#45;id_27743356_DOT_17 -->
<g id="edge21" class="edge">
<title>id_27743356_DOT_13&#45;&#45;id_27743356_DOT_17</title>
<path fill="none" stroke="black" stroke-dasharray="1,5" d="M4200.34,-1492.54C4277.75,-1526.41 4405.69,-1582.38 4475.45,-1612.9"/>
<text text-anchor="middle" x="4311.64" y="-1555.52" font-family="Times,serif" font-size="14.00">0.747955</text>
</g>
<!-- id_27743356_DOT_13&#45;&#45;id_27743356_DOT_19 -->
<g id="edge22" class="edge">
<title>id_27743356_DOT_13&#45;&#45;id_27743356_DOT_19</title>
<path fill="none" stroke="black" stroke-dasharray="1,5" d="M4144.59,-1428.85C4164.49,-1349.62 4212.41,-1158.83 4232.25,-1079.83"/>
<text text-anchor="middle" x="4162.17" y="-1257.14" font-family="Times,serif" font-size="14.00">0.726330</text>
</g>
<!-- id_27743356_DOT_24 -->
<g id="node24" class="node">
<title>id_27743356_DOT_24</title>
<polygon fill="darkorange" stroke="darkorange" points="4788.83,-1913.69 4792.24,-1913.88 4795.62,-1914.17 4798.95,-1914.56 4802.21,-1915.03 4805.4,-1915.6 4808.5,-1916.26 4811.5,-1917.02 4814.39,-1917.85 4817.16,-1918.78 4819.79,-1919.78 4822.28,-1920.87 4824.63,-1922.03 4826.81,-1923.26 4828.83,-1924.57 4830.68,-1925.94 4832.36,-1927.37 4833.86,-1928.86 4835.18,-1930.41 4836.32,-1932.01 4837.28,-1933.65 4838.05,-1935.34 4838.65,-1937.06 4839.06,-1938.82 4839.3,-1940.6 4839.36,-1942.41 4839.26,-1944.23 4838.99,-1946.06 4838.56,-1947.91 4837.98,-1949.75 4837.25,-1951.59 4836.38,-1953.43 4835.38,-1955.25 4834.26,-1957.06 4833.02,-1958.84 4831.66,-1960.6 4830.21,-1962.32 4828.65,-1964 4827.01,-1965.65 4825.29,-1967.25 4823.5,-1968.79 4821.64,-1970.29 4819.72,-1971.72 4817.75,-1973.09 4815.73,-1974.4 4813.66,-1975.63 4811.56,-1976.79 4809.43,-1977.88 4807.27,-1978.88 4805.08,-1979.81 4802.87,-1980.64 4800.65,-1981.39 4798.41,-1982.06 4796.16,-1982.63 4793.91,-1983.1 4791.64,-1983.49 4789.37,-1983.78 4787.09,-1983.97 4784.82,-1984.06 4782.54,-1984.06 4780.26,-1983.97 4777.99,-1983.78 4775.71,-1983.49 4773.45,-1983.1 4771.19,-1982.63 4768.94,-1982.06 4766.7,-1981.39 4764.48,-1980.64 4762.27,-1979.81 4760.09,-1978.88 4757.93,-1977.88 4755.79,-1976.79 4753.69,-1975.63 4751.63,-1974.4 4749.61,-1973.09 4747.63,-1971.72 4745.71,-1970.29 4743.85,-1968.79 4742.06,-1967.25 4740.34,-1965.65 4738.7,-1964 4737.15,-1962.32 4735.69,-1960.6 4734.34,-1958.84 4733.1,-1957.06 4731.97,-1955.25 4730.97,-1953.43 4730.1,-1951.59 4729.38,-1949.75 4728.8,-1947.91 4728.37,-1946.06 4728.1,-1944.23 4727.99,-1942.41 4728.06,-1940.6 4728.29,-1938.82 4728.71,-1937.06 4729.3,-1935.34 4730.07,-1933.65 4731.03,-1932.01 4732.17,-1930.41 4733.49,-1928.86 4734.99,-1927.37 4736.67,-1925.94 4738.52,-1924.57 4740.54,-1923.26 4742.73,-1922.03 4745.07,-1920.87 4747.56,-1919.78 4750.2,-1918.78 4752.97,-1917.85 4755.85,-1917.02 4758.85,-1916.26 4761.96,-1915.6 4765.14,-1915.03 4768.41,-1914.56 4771.74,-1914.17 4775.11,-1913.88 4778.52,-1913.69 4781.96,-1913.59 4785.4,-1913.59 4788.83,-1913.69"/>
<text text-anchor="start" x="4754.76" y="-1958.63" font-family="Times,serif" font-size="14.00">C1511790</text>
<text text-anchor="start" x="4758.02" y="-1944.63" font-family="Times,serif" font-size="14.00">detection</text>
<text text-anchor="start" x="4760.73" y="-1930.63" font-family="Times,serif" font-size="14.00">165:165</text>
</g>
<!-- id_27743356_DOT_17&#45;&#45;id_27743356_DOT_24 -->
<g id="edge23" class="edge">
<title>id_27743356_DOT_17&#45;&#45;id_27743356_DOT_24</title>
<path fill="none" stroke="black" stroke-dasharray="1,5" d="M4549.13,-1664.23C4597.9,-1723.41 4706.45,-1855.12 4756.92,-1916.36"/>
<text text-anchor="middle" x="4626.77" y="-1793.09" font-family="Times,serif" font-size="14.00">0.741380</text>
</g>
<!-- id_27743356_DOT_18&#45;&#45;id_27743356_DOT_21 -->
<g id="edge10" class="edge">
<title>id_27743356_DOT_18&#45;&#45;id_27743356_DOT_21</title>
<path fill="none" stroke="black" d="M2027.46,-1434.79C1987.62,-1429.96 1944.01,-1424.68 1905.17,-1419.98"/>
<text text-anchor="middle" x="1992.57" y="-1430.18" font-family="Times,serif" font-size="14.00">0.002331</text>
</g>
</g>
</svg>
