<?xml version="1.0" encoding="UTF-8" standalone="no"?>
<!DOCTYPE svg PUBLIC "-//W3C//DTD SVG 1.1//EN"
 "http://www.w3.org/Graphics/SVG/1.1/DTD/svg11.dtd">
<!-- Generated by graphviz version 2.42.3 (20191010.1750)
 -->
<!-- Title: MST Pages: 1 -->
<svg width="3933pt" height="3372pt"
 viewBox="0.00 0.00 3933.30 3372.08" xmlns="http://www.w3.org/2000/svg" xmlns:xlink="http://www.w3.org/1999/xlink">
<g id="graph0" class="graph" transform="scale(1 1) rotate(0) translate(4 3368.08)">
<title>MST</title>
<polygon fill="white" stroke="transparent" points="-4,4 -4,-3368.08 3929.3,-3368.08 3929.3,4 -4,4"/>
<!-- id_27755168_DOT_1 -->
<g id="node1" class="node">
<title>id_27755168_DOT_1</title>
<polygon fill="aquamarine" stroke="aquamarine" points="1126.66,-1141.43 1134.46,-1141.62 1142.18,-1141.91 1149.79,-1142.3 1157.25,-1142.77 1164.54,-1143.34 1171.63,-1144 1178.49,-1144.76 1185.09,-1145.59 1191.41,-1146.52 1197.44,-1147.52 1203.13,-1148.61 1208.49,-1149.77 1213.48,-1151 1218.11,-1152.31 1222.34,-1153.68 1226.18,-1155.11 1229.61,-1156.6 1232.63,-1158.15 1235.23,-1159.75 1237.42,-1161.39 1239.19,-1163.08 1240.54,-1164.8 1241.49,-1166.56 1242.03,-1168.34 1242.18,-1170.15 1241.94,-1171.97 1241.32,-1173.8 1240.34,-1175.65 1239.01,-1177.49 1237.35,-1179.33 1235.37,-1181.17 1233.08,-1182.99 1230.51,-1184.8 1227.67,-1186.58 1224.57,-1188.33 1221.25,-1190.06 1217.7,-1191.74 1213.95,-1193.39 1210.02,-1194.99 1205.92,-1196.53 1201.67,-1198.03 1197.28,-1199.46 1192.77,-1200.83 1188.15,-1202.14 1183.43,-1203.37 1178.62,-1204.53 1173.75,-1205.62 1168.81,-1206.62 1163.81,-1207.55 1158.77,-1208.38 1153.68,-1209.13 1148.57,-1209.79 1143.43,-1210.36 1138.27,-1210.84 1133.09,-1211.23 1127.89,-1211.51 1122.69,-1211.71 1117.49,-1211.8 1112.28,-1211.8 1107.07,-1211.71 1101.87,-1211.51 1096.68,-1211.23 1091.5,-1210.84 1086.34,-1210.36 1081.2,-1209.79 1076.08,-1209.13 1071,-1208.38 1065.96,-1207.55 1060.96,-1206.62 1056.02,-1205.62 1051.14,-1204.53 1046.34,-1203.37 1041.62,-1202.14 1037,-1200.83 1032.49,-1199.46 1028.1,-1198.03 1023.85,-1196.53 1019.75,-1194.99 1015.81,-1193.39 1012.07,-1191.74 1008.52,-1190.06 1005.19,-1188.33 1002.1,-1186.58 999.26,-1184.8 996.68,-1182.99 994.4,-1181.17 992.42,-1179.33 990.75,-1177.49 989.42,-1175.65 988.45,-1173.8 987.83,-1171.97 987.59,-1170.15 987.74,-1168.34 988.28,-1166.56 989.22,-1164.8 990.58,-1163.08 992.35,-1161.39 994.53,-1159.75 997.14,-1158.15 1000.16,-1156.6 1003.59,-1155.11 1007.43,-1153.68 1011.66,-1152.31 1016.28,-1151 1021.28,-1149.77 1026.63,-1148.61 1032.33,-1147.52 1038.35,-1146.52 1044.68,-1145.59 1051.28,-1144.76 1058.14,-1144 1065.23,-1143.34 1072.52,-1142.77 1079.98,-1142.3 1087.59,-1141.91 1095.3,-1141.62 1103.1,-1141.43 1110.95,-1141.33 1118.81,-1141.33 1126.66,-1141.43"/>
<text text-anchor="start" x="1085.71" y="-1186.37" font-family="Times,serif" font-size="14.00">C3178844</text>
<text text-anchor="start" x="1038.29" y="-1172.37" font-family="Times,serif" font-size="14.00">Mesenchymal stromal cells</text>
<text text-anchor="start" x="1105.94" y="-1158.37" font-family="Times,serif" font-size="14.00">0:2</text>
</g>
<!-- id_27755168_DOT_6 -->
<g id="node6" class="node">
<title>id_27755168_DOT_6</title>
<polygon fill="aquamarine" stroke="aquamarine" points="777.95,-917.12 785.7,-917.31 793.37,-917.6 800.92,-917.98 808.34,-918.46 815.58,-919.03 822.62,-919.69 829.43,-920.44 835.99,-921.28 842.27,-922.2 848.26,-923.21 853.92,-924.29 859.24,-925.45 864.2,-926.69 868.79,-927.99 873,-929.36 876.81,-930.8 880.21,-932.29 883.21,-933.84 885.8,-935.44 887.97,-937.08 889.73,-938.77 891.08,-940.49 892.02,-942.24 892.55,-944.03 892.7,-945.83 892.46,-947.65 891.85,-949.49 890.88,-951.33 889.56,-953.18 887.91,-955.02 885.94,-956.85 883.67,-958.68 881.11,-960.48 878.29,-962.27 875.22,-964.02 871.91,-965.74 868.38,-967.43 864.66,-969.07 860.76,-970.67 856.68,-972.22 852.46,-973.71 848.1,-975.15 843.62,-976.52 839.03,-977.82 834.34,-979.06 829.57,-980.22 824.73,-981.3 819.82,-982.31 814.85,-983.23 809.84,-984.07 804.8,-984.82 799.72,-985.48 794.61,-986.05 789.48,-986.53 784.33,-986.91 779.18,-987.2 774.01,-987.39 768.84,-987.49 763.67,-987.49 758.49,-987.39 753.33,-987.2 748.17,-986.91 743.03,-986.53 737.9,-986.05 732.79,-985.48 727.71,-984.82 722.66,-984.07 717.65,-983.23 712.69,-982.31 707.78,-981.3 702.94,-980.22 698.16,-979.06 693.48,-977.82 688.89,-976.52 684.41,-975.15 680.05,-973.71 675.82,-972.22 671.75,-970.67 667.84,-969.07 664.12,-967.43 660.6,-965.74 657.29,-964.02 654.22,-962.27 651.39,-960.48 648.84,-958.68 646.57,-956.85 644.6,-955.02 642.95,-953.18 641.63,-951.33 640.66,-949.49 640.05,-947.65 639.81,-945.83 639.95,-944.03 640.49,-942.24 641.43,-940.49 642.77,-938.77 644.53,-937.08 646.7,-935.44 649.29,-933.84 652.29,-932.29 655.7,-930.8 659.51,-929.36 663.72,-927.99 668.31,-926.69 673.27,-925.45 678.59,-924.29 684.25,-923.21 690.23,-922.2 696.51,-921.28 703.07,-920.44 709.89,-919.69 716.93,-919.03 724.17,-918.46 731.58,-917.98 739.14,-917.6 746.81,-917.31 754.55,-917.12 762.35,-917.02 770.16,-917.02 777.95,-917.12"/>
<text text-anchor="start" x="737.08" y="-962.05" font-family="Times,serif" font-size="14.00">C3178844</text>
<text text-anchor="start" x="690.44" y="-948.05" font-family="Times,serif" font-size="14.00">mesenchymal stromal cells</text>
<text text-anchor="start" x="750.31" y="-934.05" font-family="Times,serif" font-size="14.00">64:66</text>
</g>
<!-- id_27755168_DOT_1&#45;&#45;id_27755168_DOT_6 -->
<g id="edge1" class="edge">
<title>id_27755168_DOT_1&#45;&#45;id_27755168_DOT_6</title>
<path fill="none" stroke="black" d="M1063.44,-1143.47C996.39,-1100.33 879.99,-1025.43 814.53,-983.32"/>
<text text-anchor="middle" x="912.74" y="-1066.19" font-family="Times,serif" font-size="14.00">0.004471</text>
</g>
<!-- id_27755168_DOT_19 -->
<g id="node19" class="node">
<title>id_27755168_DOT_19</title>
<polygon fill="darkgreen" stroke="darkgreen" points="1478.09,-1399.94 1484.93,-1400.13 1491.7,-1400.42 1498.38,-1400.8 1504.92,-1401.28 1511.32,-1401.85 1517.54,-1402.51 1523.55,-1403.26 1529.35,-1404.1 1534.89,-1405.03 1540.18,-1406.03 1545.18,-1407.11 1549.87,-1408.28 1554.26,-1409.51 1558.31,-1410.82 1562.02,-1412.19 1565.39,-1413.62 1568.4,-1415.11 1571.05,-1416.66 1573.33,-1418.26 1575.25,-1419.9 1576.8,-1421.59 1577.99,-1423.31 1578.82,-1425.07 1579.3,-1426.85 1579.42,-1428.66 1579.21,-1430.48 1578.67,-1432.31 1577.81,-1434.16 1576.65,-1436 1575.19,-1437.84 1573.45,-1439.68 1571.45,-1441.5 1569.19,-1443.31 1566.7,-1445.09 1563.98,-1446.84 1561.06,-1448.57 1557.95,-1450.25 1554.67,-1451.9 1551.22,-1453.5 1547.62,-1455.04 1543.89,-1456.54 1540.04,-1457.97 1536.08,-1459.34 1532.03,-1460.65 1527.89,-1461.88 1523.67,-1463.04 1519.4,-1464.13 1515.06,-1465.13 1510.68,-1466.05 1506.26,-1466.89 1501.8,-1467.64 1497.31,-1468.3 1492.8,-1468.87 1488.27,-1469.35 1483.73,-1469.74 1479.17,-1470.02 1474.61,-1470.22 1470.04,-1470.31 1465.47,-1470.31 1460.91,-1470.22 1456.35,-1470.02 1451.79,-1469.74 1447.25,-1469.35 1442.72,-1468.87 1438.21,-1468.3 1433.72,-1467.64 1429.26,-1466.89 1424.84,-1466.05 1420.46,-1465.13 1416.12,-1464.13 1411.84,-1463.04 1407.63,-1461.88 1403.49,-1460.65 1399.44,-1459.34 1395.48,-1457.97 1391.63,-1456.54 1387.9,-1455.04 1384.3,-1453.5 1380.85,-1451.9 1377.56,-1450.25 1374.45,-1448.57 1371.53,-1446.84 1368.82,-1445.09 1366.33,-1443.31 1364.07,-1441.5 1362.07,-1439.68 1360.33,-1437.84 1358.87,-1436 1357.7,-1434.16 1356.84,-1432.31 1356.3,-1430.48 1356.09,-1428.66 1356.22,-1426.85 1356.7,-1425.07 1357.53,-1423.31 1358.71,-1421.59 1360.27,-1419.9 1362.18,-1418.26 1364.47,-1416.66 1367.12,-1415.11 1370.13,-1413.62 1373.49,-1412.19 1377.21,-1410.82 1381.26,-1409.51 1385.64,-1408.28 1390.34,-1407.11 1395.34,-1406.03 1400.62,-1405.03 1406.17,-1404.1 1411.96,-1403.26 1417.98,-1402.51 1424.2,-1401.85 1430.59,-1401.28 1437.14,-1400.8 1443.81,-1400.42 1450.58,-1400.13 1457.43,-1399.94 1464.31,-1399.84 1471.21,-1399.84 1478.09,-1399.94"/>
<text text-anchor="start" x="1438.59" y="-1444.88" font-family="Times,serif" font-size="14.00">C0003315</text>
<text text-anchor="start" x="1401.67" y="-1430.88" font-family="Times,serif" font-size="14.00">antigen presenting cells</text>
<text text-anchor="start" x="1444.81" y="-1416.88" font-family="Times,serif" font-size="14.00">164:166</text>
</g>
<!-- id_27755168_DOT_1&#45;&#45;id_27755168_DOT_19 -->
<g id="edge12" class="edge">
<title>id_27755168_DOT_1&#45;&#45;id_27755168_DOT_19</title>
<path fill="none" stroke="black" stroke-dasharray="1,5" d="M1158.51,-1208.53C1225.81,-1257.83 1354.32,-1351.98 1422.56,-1401.97"/>
<text text-anchor="middle" x="1264.29" y="-1308.05" font-family="Times,serif" font-size="14.00">0.897325</text>
</g>
<!-- id_27755168_DOT_2 -->
<g id="node2" class="node">
<title>id_27755168_DOT_2</title>
<polygon fill="bisque" stroke="bisque" points="3112.03,-1576.37 3118.52,-1576.57 3124.95,-1576.86 3131.29,-1577.24 3137.51,-1577.72 3143.58,-1578.29 3149.49,-1578.95 3155.2,-1579.7 3160.71,-1580.54 3165.98,-1581.46 3170.99,-1582.46 3175.74,-1583.55 3180.2,-1584.71 3184.36,-1585.95 3188.21,-1587.25 3191.74,-1588.62 3194.94,-1590.06 3197.8,-1591.55 3200.31,-1593.1 3202.48,-1594.69 3204.3,-1596.34 3205.78,-1598.02 3206.91,-1599.75 3207.7,-1601.5 3208.15,-1603.28 3208.27,-1605.09 3208.07,-1606.91 3207.56,-1608.75 3206.74,-1610.59 3205.63,-1612.44 3204.25,-1614.28 3202.6,-1616.11 3200.69,-1617.94 3198.55,-1619.74 3196.18,-1621.52 3193.6,-1623.28 3190.83,-1625 3187.88,-1626.69 3184.75,-1628.33 3181.48,-1629.93 3178.06,-1631.48 3174.52,-1632.97 3170.86,-1634.4 3167.1,-1635.78 3163.25,-1637.08 3159.32,-1638.32 3155.32,-1639.48 3151.26,-1640.56 3147.14,-1641.57 3142.98,-1642.49 3138.77,-1643.33 3134.54,-1644.08 3130.28,-1644.74 3126,-1645.31 3121.69,-1645.79 3117.38,-1646.17 3113.05,-1646.46 3108.72,-1646.65 3104.38,-1646.75 3100.04,-1646.75 3095.7,-1646.65 3091.37,-1646.46 3087.05,-1646.17 3082.73,-1645.79 3078.43,-1645.31 3074.14,-1644.74 3069.88,-1644.08 3065.65,-1643.33 3061.45,-1642.49 3057.28,-1641.57 3053.17,-1640.56 3049.1,-1639.48 3045.1,-1638.32 3041.17,-1637.08 3037.32,-1635.78 3033.56,-1634.4 3029.9,-1632.97 3026.36,-1631.48 3022.95,-1629.93 3019.67,-1628.33 3016.55,-1626.69 3013.59,-1625 3010.82,-1623.28 3008.24,-1621.52 3005.87,-1619.74 3003.73,-1617.94 3001.83,-1616.11 3000.17,-1614.28 2998.79,-1612.44 2997.68,-1610.59 2996.87,-1608.75 2996.35,-1606.91 2996.15,-1605.09 2996.28,-1603.28 2996.73,-1601.5 2997.51,-1599.75 2998.64,-1598.02 3000.12,-1596.34 3001.94,-1594.69 3004.11,-1593.1 3006.63,-1591.55 3009.48,-1590.06 3012.68,-1588.62 3016.21,-1587.25 3020.06,-1585.95 3024.22,-1584.71 3028.68,-1583.55 3033.43,-1582.46 3038.45,-1581.46 3043.72,-1580.54 3049.22,-1579.7 3054.93,-1578.95 3060.84,-1578.29 3066.91,-1577.72 3073.13,-1577.24 3079.47,-1576.86 3085.9,-1576.57 3092.4,-1576.37 3098.94,-1576.28 3105.49,-1576.28 3112.03,-1576.37"/>
<text text-anchor="start" x="3073.04" y="-1621.31" font-family="Times,serif" font-size="14.00">C0022671</text>
<text text-anchor="start" x="3039.81" y="-1607.31" font-family="Times,serif" font-size="14.00">kidney transplantation</text>
<text text-anchor="start" x="3093.27" y="-1593.31" font-family="Times,serif" font-size="14.00">5:6</text>
</g>
<!-- id_27755168_DOT_3 -->
<g id="node3" class="node">
<title>id_27755168_DOT_3</title>
<polygon fill="bisque" stroke="bisque" points="3495.68,-1670.83 3502.18,-1671.02 3508.61,-1671.31 3514.95,-1671.69 3521.16,-1672.17 3527.24,-1672.74 3533.14,-1673.4 3538.86,-1674.15 3544.36,-1674.99 3549.63,-1675.91 3554.65,-1676.92 3559.39,-1678 3563.86,-1679.16 3568.02,-1680.4 3571.87,-1681.7 3575.4,-1683.07 3578.59,-1684.51 3581.45,-1686 3583.97,-1687.55 3586.14,-1689.15 3587.96,-1690.79 3589.43,-1692.48 3590.56,-1694.2 3591.35,-1695.95 3591.8,-1697.74 3591.92,-1699.54 3591.72,-1701.36 3591.21,-1703.2 3590.39,-1705.04 3589.29,-1706.89 3587.9,-1708.73 3586.25,-1710.56 3584.35,-1712.39 3582.2,-1714.19 3579.84,-1715.97 3577.26,-1717.73 3574.49,-1719.45 3571.53,-1721.14 3568.41,-1722.78 3565.13,-1724.38 3561.72,-1725.93 3558.17,-1727.42 3554.52,-1728.86 3550.76,-1730.23 3546.91,-1731.53 3542.98,-1732.77 3538.97,-1733.93 3534.91,-1735.01 3530.79,-1736.02 3526.63,-1736.94 3522.43,-1737.78 3518.19,-1738.53 3513.93,-1739.19 3509.65,-1739.76 3505.35,-1740.24 3501.03,-1740.62 3496.71,-1740.91 3492.37,-1741.1 3488.04,-1741.2 3483.7,-1741.2 3479.36,-1741.1 3475.03,-1740.91 3470.7,-1740.62 3466.38,-1740.24 3462.08,-1739.76 3457.8,-1739.19 3453.54,-1738.53 3449.3,-1737.78 3445.1,-1736.94 3440.94,-1736.02 3436.82,-1735.01 3432.76,-1733.93 3428.76,-1732.77 3424.83,-1731.53 3420.98,-1730.23 3417.22,-1728.86 3413.56,-1727.42 3410.02,-1725.93 3406.6,-1724.38 3403.32,-1722.78 3400.2,-1721.14 3397.25,-1719.45 3394.47,-1717.73 3391.9,-1715.97 3389.53,-1714.19 3387.39,-1712.39 3385.48,-1710.56 3383.83,-1708.73 3382.44,-1706.89 3381.34,-1705.04 3380.52,-1703.2 3380.01,-1701.36 3379.81,-1699.54 3379.93,-1697.74 3380.38,-1695.95 3381.17,-1694.2 3382.3,-1692.48 3383.77,-1690.79 3385.59,-1689.15 3387.76,-1687.55 3390.28,-1686 3393.14,-1684.51 3396.34,-1683.07 3399.86,-1681.7 3403.71,-1680.4 3407.88,-1679.16 3412.34,-1678 3417.09,-1676.92 3422.1,-1675.91 3427.37,-1674.99 3432.87,-1674.15 3438.59,-1673.4 3444.49,-1672.74 3450.57,-1672.17 3456.79,-1671.69 3463.12,-1671.31 3469.55,-1671.02 3476.05,-1670.83 3482.59,-1670.73 3489.14,-1670.73 3495.68,-1670.83"/>
<text text-anchor="start" x="3456.7" y="-1715.76" font-family="Times,serif" font-size="14.00">C0022671</text>
<text text-anchor="start" x="3423.46" y="-1701.76" font-family="Times,serif" font-size="14.00">kidney transplantation</text>
<text text-anchor="start" x="3469.92" y="-1687.76" font-family="Times,serif" font-size="14.00">28:29</text>
</g>
<!-- id_27755168_DOT_2&#45;&#45;id_27755168_DOT_3 -->
<g id="edge2" class="edge">
<title>id_27755168_DOT_2&#45;&#45;id_27755168_DOT_3</title>
<path fill="none" stroke="black" d="M3180.31,-1630.74C3242.53,-1646.06 3329.74,-1667.53 3395.07,-1683.61"/>
<text text-anchor="middle" x="3261.44" y="-1659.98" font-family="Times,serif" font-size="14.00">0.001617</text>
</g>
<!-- id_27755168_DOT_23 -->
<g id="node23" class="node">
<title>id_27755168_DOT_23</title>
<polygon fill="bisque" stroke="bisque" points="2723.7,-1491.6 2730.19,-1491.8 2736.63,-1492.09 2742.96,-1492.47 2749.18,-1492.95 2755.25,-1493.52 2761.16,-1494.18 2766.88,-1494.93 2772.38,-1495.77 2777.65,-1496.69 2782.66,-1497.69 2787.41,-1498.78 2791.87,-1499.94 2796.03,-1501.17 2799.89,-1502.48 2803.41,-1503.85 2806.61,-1505.29 2809.47,-1506.78 2811.98,-1508.33 2814.15,-1509.92 2815.98,-1511.57 2817.45,-1513.25 2818.58,-1514.98 2819.37,-1516.73 2819.82,-1518.51 2819.94,-1520.32 2819.74,-1522.14 2819.23,-1523.98 2818.41,-1525.82 2817.3,-1527.67 2815.92,-1529.51 2814.27,-1531.34 2812.36,-1533.17 2810.22,-1534.97 2807.85,-1536.75 2805.28,-1538.51 2802.5,-1540.23 2799.55,-1541.92 2796.42,-1543.56 2793.15,-1545.16 2789.73,-1546.71 2786.19,-1548.2 2782.53,-1549.63 2778.77,-1551.01 2774.92,-1552.31 2770.99,-1553.54 2766.99,-1554.71 2762.93,-1555.79 2758.81,-1556.8 2754.65,-1557.72 2750.45,-1558.56 2746.21,-1559.31 2741.95,-1559.97 2737.67,-1560.54 2733.36,-1561.02 2729.05,-1561.4 2724.72,-1561.69 2720.39,-1561.88 2716.05,-1561.98 2711.71,-1561.98 2707.38,-1561.88 2703.04,-1561.69 2698.72,-1561.4 2694.4,-1561.02 2690.1,-1560.54 2685.82,-1559.97 2681.55,-1559.31 2677.32,-1558.56 2673.12,-1557.72 2668.96,-1556.8 2664.84,-1555.79 2660.78,-1554.71 2656.77,-1553.54 2652.84,-1552.31 2648.99,-1551.01 2645.23,-1549.63 2641.58,-1548.2 2638.03,-1546.71 2634.62,-1545.16 2631.34,-1543.56 2628.22,-1541.92 2625.26,-1540.23 2622.49,-1538.51 2619.91,-1536.75 2617.54,-1534.97 2615.4,-1533.17 2613.5,-1531.34 2611.85,-1529.51 2610.46,-1527.67 2609.35,-1525.82 2608.54,-1523.98 2608.03,-1522.14 2607.83,-1520.32 2607.95,-1518.51 2608.4,-1516.73 2609.19,-1514.98 2610.31,-1513.25 2611.79,-1511.57 2613.61,-1509.92 2615.78,-1508.33 2618.3,-1506.78 2621.16,-1505.29 2624.35,-1503.85 2627.88,-1502.48 2631.73,-1501.17 2635.89,-1499.94 2640.35,-1498.78 2645.1,-1497.69 2650.12,-1496.69 2655.39,-1495.77 2660.89,-1494.93 2666.61,-1494.18 2672.51,-1493.52 2678.59,-1492.95 2684.8,-1492.47 2691.14,-1492.09 2697.57,-1491.8 2704.07,-1491.6 2710.61,-1491.51 2717.16,-1491.51 2723.7,-1491.6"/>
<text text-anchor="start" x="2684.71" y="-1536.54" font-family="Times,serif" font-size="14.00">C0022671</text>
<text text-anchor="start" x="2651.48" y="-1522.54" font-family="Times,serif" font-size="14.00">kidney transplantation</text>
<text text-anchor="start" x="2690.94" y="-1508.54" font-family="Times,serif" font-size="14.00">193:194</text>
</g>
<!-- id_27755168_DOT_2&#45;&#45;id_27755168_DOT_23 -->
<g id="edge3" class="edge">
<title>id_27755168_DOT_2&#45;&#45;id_27755168_DOT_23</title>
<path fill="none" stroke="black" d="M3007.71,-1590.88C2942.61,-1576.67 2856.99,-1557.98 2794.98,-1544.45"/>
<text text-anchor="middle" x="2875.1" y="-1570.47" font-family="Times,serif" font-size="14.00">0.083232</text>
</g>
<!-- id_27755168_DOT_21 -->
<g id="node21" class="node">
<title>id_27755168_DOT_21</title>
<polygon fill="darkmagenta" stroke="darkmagenta" points="3694.83,-2015.34 3698.91,-2015.53 3702.95,-2015.82 3706.93,-2016.2 3710.83,-2016.68 3714.64,-2017.25 3718.35,-2017.91 3721.94,-2018.66 3725.39,-2019.5 3728.7,-2020.42 3731.85,-2021.43 3734.83,-2022.51 3737.63,-2023.67 3740.24,-2024.91 3742.66,-2026.21 3744.87,-2027.58 3746.88,-2029.02 3748.68,-2030.51 3750.26,-2032.06 3751.62,-2033.66 3752.76,-2035.3 3753.69,-2036.99 3754.4,-2038.71 3754.89,-2040.46 3755.17,-2042.25 3755.25,-2044.05 3755.12,-2045.87 3754.8,-2047.71 3754.29,-2049.55 3753.59,-2051.4 3752.73,-2053.24 3751.69,-2055.08 3750.49,-2056.9 3749.15,-2058.7 3747.66,-2060.49 3746.04,-2062.24 3744.3,-2063.96 3742.45,-2065.65 3740.49,-2067.29 3738.43,-2068.89 3736.29,-2070.44 3734.06,-2071.93 3731.77,-2073.37 3729.41,-2074.74 3726.99,-2076.04 3724.52,-2077.28 3722.01,-2078.44 3719.46,-2079.52 3716.87,-2080.53 3714.26,-2081.45 3711.62,-2082.29 3708.97,-2083.04 3706.29,-2083.7 3703.6,-2084.27 3700.9,-2084.75 3698.19,-2085.13 3695.48,-2085.42 3692.76,-2085.61 3690.03,-2085.71 3687.31,-2085.71 3684.59,-2085.61 3681.87,-2085.42 3679.15,-2085.13 3676.44,-2084.75 3673.74,-2084.27 3671.05,-2083.7 3668.38,-2083.04 3665.72,-2082.29 3663.08,-2081.45 3660.47,-2080.53 3657.88,-2079.52 3655.33,-2078.44 3652.82,-2077.28 3650.35,-2076.04 3647.94,-2074.74 3645.58,-2073.37 3643.28,-2071.93 3641.06,-2070.44 3638.91,-2068.89 3636.86,-2067.29 3634.9,-2065.65 3633.04,-2063.96 3631.3,-2062.24 3629.68,-2060.49 3628.2,-2058.7 3626.85,-2056.9 3625.66,-2055.08 3624.62,-2053.24 3623.75,-2051.4 3623.05,-2049.55 3622.54,-2047.71 3622.22,-2045.87 3622.09,-2044.05 3622.17,-2042.25 3622.45,-2040.46 3622.95,-2038.71 3623.66,-2036.99 3624.58,-2035.3 3625.73,-2033.66 3627.09,-2032.06 3628.67,-2030.51 3630.46,-2029.02 3632.47,-2027.58 3634.68,-2026.21 3637.1,-2024.91 3639.71,-2023.67 3642.51,-2022.51 3645.49,-2021.43 3648.64,-2020.42 3651.95,-2019.5 3655.41,-2018.66 3658.99,-2017.91 3662.7,-2017.25 3666.51,-2016.68 3670.42,-2016.2 3674.4,-2015.82 3678.43,-2015.53 3682.51,-2015.34 3686.62,-2015.24 3690.73,-2015.24 3694.83,-2015.34"/>
<text text-anchor="start" x="3659.5" y="-2060.27" font-family="Times,serif" font-size="14.00">C0008976</text>
<text text-anchor="start" x="3652.33" y="-2046.27" font-family="Times,serif" font-size="14.00">clinical trials</text>
<text text-anchor="start" x="3665.73" y="-2032.27" font-family="Times,serif" font-size="14.00">186:187</text>
</g>
<!-- id_27755168_DOT_3&#45;&#45;id_27755168_DOT_21 -->
<g id="edge13" class="edge">
<title>id_27755168_DOT_3&#45;&#45;id_27755168_DOT_21</title>
<path fill="none" stroke="black" stroke-dasharray="1,5" d="M3506.05,-1740.26C3544.93,-1806.29 3629.76,-1950.39 3668.57,-2016.32"/>
<text text-anchor="middle" x="3561.06" y="-1881.09" font-family="Times,serif" font-size="14.00">0.878243</text>
</g>
<!-- id_27755168_DOT_25 -->
<g id="node25" class="node">
<title>id_27755168_DOT_25</title>
<polygon fill="darkorange" stroke="darkorange" points="3833.52,-1456.23 3839.73,-1456.42 3845.87,-1456.71 3851.92,-1457.09 3857.86,-1457.57 3863.66,-1458.14 3869.3,-1458.8 3874.76,-1459.55 3880.02,-1460.39 3885.05,-1461.31 3889.84,-1462.32 3894.38,-1463.4 3898.64,-1464.57 3902.62,-1465.8 3906.3,-1467.1 3909.67,-1468.48 3912.72,-1469.91 3915.45,-1471.4 3917.85,-1472.95 3919.93,-1474.55 3921.67,-1476.19 3923.07,-1477.88 3924.15,-1479.6 3924.91,-1481.36 3925.34,-1483.14 3925.45,-1484.94 3925.26,-1486.77 3924.77,-1488.6 3923.99,-1490.44 3922.93,-1492.29 3921.61,-1494.13 3920.03,-1495.97 3918.22,-1497.79 3916.17,-1499.6 3913.91,-1501.38 3911.44,-1503.13 3908.79,-1504.86 3905.97,-1506.54 3902.99,-1508.19 3899.86,-1509.78 3896.6,-1511.33 3893.21,-1512.82 3889.72,-1514.26 3886.13,-1515.63 3882.45,-1516.94 3878.7,-1518.17 3874.87,-1519.33 3870.99,-1520.42 3867.06,-1521.42 3863.08,-1522.34 3859.07,-1523.18 3855.03,-1523.93 3850.95,-1524.59 3846.86,-1525.16 3842.75,-1525.64 3838.63,-1526.02 3834.5,-1526.31 3830.36,-1526.51 3826.22,-1526.6 3822.07,-1526.6 3817.93,-1526.51 3813.79,-1526.31 3809.66,-1526.02 3805.53,-1525.64 3801.43,-1525.16 3797.33,-1524.59 3793.26,-1523.93 3789.22,-1523.18 3785.21,-1522.34 3781.23,-1521.42 3777.3,-1520.42 3773.42,-1519.33 3769.59,-1518.17 3765.84,-1516.94 3762.16,-1515.63 3758.57,-1514.26 3755.08,-1512.82 3751.69,-1511.33 3748.43,-1509.78 3745.3,-1508.19 3742.32,-1506.54 3739.49,-1504.86 3736.84,-1503.13 3734.38,-1501.38 3732.12,-1499.6 3730.07,-1497.79 3728.25,-1495.97 3726.68,-1494.13 3725.35,-1492.29 3724.3,-1490.44 3723.52,-1488.6 3723.03,-1486.77 3722.84,-1484.94 3722.95,-1483.14 3723.38,-1481.36 3724.14,-1479.6 3725.21,-1477.88 3726.62,-1476.19 3728.36,-1474.55 3730.44,-1472.95 3732.84,-1471.4 3735.57,-1469.91 3738.62,-1468.48 3741.99,-1467.1 3745.67,-1465.8 3749.65,-1464.57 3753.91,-1463.4 3758.44,-1462.32 3763.24,-1461.31 3768.27,-1460.39 3773.52,-1459.55 3778.98,-1458.8 3784.63,-1458.14 3790.43,-1457.57 3796.37,-1457.09 3802.42,-1456.71 3808.56,-1456.42 3814.77,-1456.23 3821.02,-1456.13 3827.27,-1456.13 3833.52,-1456.23"/>
<text text-anchor="start" x="3794.98" y="-1501.17" font-family="Times,serif" font-size="14.00">C0029216</text>
<text text-anchor="start" x="3764.98" y="-1487.17" font-family="Times,serif" font-size="14.00">organ transplantation</text>
<text text-anchor="start" x="3801.2" y="-1473.17" font-family="Times,serif" font-size="14.00">220:221</text>
</g>
<!-- id_27755168_DOT_3&#45;&#45;id_27755168_DOT_25 -->
<g id="edge4" class="edge">
<title>id_27755168_DOT_3&#45;&#45;id_27755168_DOT_25</title>
<path fill="none" stroke="black" d="M3536.51,-1673.84C3601.85,-1632.39 3714.6,-1560.86 3777.78,-1520.78"/>
<text text-anchor="middle" x="3630.9" y="-1600.11" font-family="Times,serif" font-size="14.00">0.205824</text>
</g>
<!-- id_27755168_DOT_4 -->
<g id="node4" class="node">
<title>id_27755168_DOT_4</title>
<polygon fill="blue" stroke="blue" points="828.38,-2913.91 835.88,-2914.1 843.3,-2914.39 850.61,-2914.77 857.79,-2915.25 864.79,-2915.82 871.61,-2916.48 878.2,-2917.23 884.55,-2918.07 890.63,-2918.99 896.42,-2920 901.9,-2921.08 907.05,-2922.25 911.85,-2923.48 916.3,-2924.79 920.37,-2926.16 924.06,-2927.59 927.36,-2929.08 930.26,-2930.63 932.76,-2932.23 934.87,-2933.87 936.57,-2935.56 937.87,-2937.28 938.78,-2939.04 939.3,-2940.82 939.44,-2942.62 939.21,-2944.45 938.62,-2946.28 937.68,-2948.13 936.4,-2949.97 934.8,-2951.81 932.9,-2953.65 930.7,-2955.47 928.23,-2957.28 925.49,-2959.06 922.52,-2960.81 919.32,-2962.54 915.91,-2964.22 912.3,-2965.87 908.52,-2967.47 904.58,-2969.01 900.49,-2970.51 896.27,-2971.94 891.94,-2973.31 887.49,-2974.62 882.96,-2975.85 878.34,-2977.01 873.65,-2978.1 868.9,-2979.1 864.09,-2980.02 859.25,-2980.86 854.36,-2981.61 849.44,-2982.27 844.5,-2982.84 839.53,-2983.32 834.55,-2983.71 829.56,-2983.99 824.56,-2984.19 819.56,-2984.28 814.55,-2984.28 809.54,-2984.19 804.54,-2983.99 799.55,-2983.71 794.57,-2983.32 789.61,-2982.84 784.66,-2982.27 779.75,-2981.61 774.86,-2980.86 770.01,-2980.02 765.21,-2979.1 760.46,-2978.1 755.77,-2977.01 751.15,-2975.85 746.61,-2974.62 742.17,-2973.31 737.83,-2971.94 733.61,-2970.51 729.52,-2969.01 725.58,-2967.47 721.8,-2965.87 718.2,-2964.22 714.79,-2962.54 711.59,-2960.81 708.61,-2959.06 705.88,-2957.28 703.41,-2955.47 701.21,-2953.65 699.3,-2951.81 697.7,-2949.97 696.43,-2948.13 695.49,-2946.28 694.89,-2944.45 694.66,-2942.62 694.8,-2940.82 695.32,-2939.04 696.23,-2937.28 697.54,-2935.56 699.24,-2933.87 701.34,-2932.23 703.84,-2930.63 706.75,-2929.08 710.05,-2927.59 713.73,-2926.16 717.81,-2924.79 722.25,-2923.48 727.05,-2922.25 732.2,-2921.08 737.68,-2920 743.47,-2918.99 749.55,-2918.07 755.9,-2917.23 762.49,-2916.48 769.31,-2915.82 776.32,-2915.25 783.49,-2914.77 790.81,-2914.39 798.23,-2914.1 805.73,-2913.91 813.27,-2913.81 820.83,-2913.81 828.38,-2913.91"/>
<text text-anchor="start" x="787.88" y="-2958.85" font-family="Times,serif" font-size="14.00">C0021081</text>
<text text-anchor="start" x="743.75" y="-2944.85" font-family="Times,serif" font-size="14.00">immunosuppressive drugs</text>
<text text-anchor="start" x="801.11" y="-2930.85" font-family="Times,serif" font-size="14.00">47:48</text>
</g>
<!-- id_27755168_DOT_10 -->
<g id="node10" class="node">
<title>id_27755168_DOT_10</title>
<polygon fill="blue" stroke="blue" points="953.74,-3293.58 962.66,-3293.77 971.5,-3294.06 980.21,-3294.44 988.75,-3294.92 997.09,-3295.49 1005.21,-3296.15 1013.06,-3296.9 1020.62,-3297.74 1027.86,-3298.66 1034.75,-3299.67 1041.27,-3300.75 1047.4,-3301.91 1053.12,-3303.15 1058.41,-3304.45 1063.26,-3305.82 1067.65,-3307.26 1071.58,-3308.75 1075.04,-3310.3 1078.02,-3311.9 1080.52,-3313.54 1082.55,-3315.23 1084.1,-3316.95 1085.18,-3318.7 1085.8,-3320.49 1085.97,-3322.29 1085.69,-3324.11 1084.99,-3325.95 1083.87,-3327.79 1082.34,-3329.64 1080.44,-3331.48 1078.17,-3333.32 1075.56,-3335.14 1072.61,-3336.94 1069.36,-3338.73 1065.82,-3340.48 1062.01,-3342.2 1057.95,-3343.89 1053.66,-3345.53 1049.16,-3347.13 1044.46,-3348.68 1039.6,-3350.17 1034.57,-3351.61 1029.41,-3352.98 1024.12,-3354.28 1018.72,-3355.52 1013.22,-3356.68 1007.64,-3357.76 1001.98,-3358.77 996.26,-3359.69 990.49,-3360.53 984.67,-3361.28 978.82,-3361.94 972.93,-3362.51 967.02,-3362.99 961.09,-3363.37 955.15,-3363.66 949.19,-3363.85 943.23,-3363.95 937.27,-3363.95 931.31,-3363.85 925.36,-3363.66 919.42,-3363.37 913.49,-3362.99 907.58,-3362.51 901.69,-3361.94 895.84,-3361.28 890.02,-3360.53 884.25,-3359.69 878.53,-3358.77 872.87,-3357.76 867.29,-3356.68 861.79,-3355.52 856.39,-3354.28 851.1,-3352.98 845.94,-3351.61 840.91,-3350.17 836.04,-3348.68 831.35,-3347.13 826.85,-3345.53 822.56,-3343.89 818.5,-3342.2 814.69,-3340.48 811.15,-3338.73 807.9,-3336.94 804.95,-3335.14 802.33,-3333.32 800.07,-3331.48 798.16,-3329.64 796.64,-3327.79 795.52,-3325.95 794.82,-3324.11 794.54,-3322.29 794.71,-3320.49 795.33,-3318.7 796.41,-3316.95 797.96,-3315.23 799.99,-3313.54 802.49,-3311.9 805.47,-3310.3 808.93,-3308.75 812.86,-3307.26 817.25,-3305.82 822.1,-3304.45 827.39,-3303.15 833.1,-3301.91 839.23,-3300.75 845.76,-3299.67 852.65,-3298.66 859.89,-3297.74 867.45,-3296.9 875.3,-3296.15 883.41,-3295.49 891.76,-3294.92 900.3,-3294.44 909.01,-3294.06 917.84,-3293.77 926.77,-3293.58 935.75,-3293.48 944.75,-3293.48 953.74,-3293.58"/>
<text text-anchor="start" x="911.08" y="-3338.52" font-family="Times,serif" font-size="14.00">C0021081</text>
<text text-anchor="start" x="851.41" y="-3324.52" font-family="Times,serif" font-size="14.00">immunosuppressive medication</text>
<text text-anchor="start" x="924.31" y="-3310.52" font-family="Times,serif" font-size="14.00">94:95</text>
</g>
<!-- id_27755168_DOT_4&#45;&#45;id_27755168_DOT_10 -->
<g id="edge5" class="edge">
<title>id_27755168_DOT_4&#45;&#45;id_27755168_DOT_10</title>
<path fill="none" stroke="black" d="M828.42,-2984.09C851.86,-3056.32 905.33,-3221.09 928.82,-3293.49"/>
<text text-anchor="middle" x="852.37" y="-3141.59" font-family="Times,serif" font-size="14.00">0.048252</text>
</g>
<!-- id_27755168_DOT_14 -->
<g id="node14" class="node">
<title>id_27755168_DOT_14</title>
<polygon fill="crimson" stroke="crimson" points="1017.73,-2566.71 1021.33,-2566.91 1024.9,-2567.2 1028.41,-2567.58 1031.85,-2568.06 1035.22,-2568.63 1038.49,-2569.29 1041.66,-2570.04 1044.71,-2570.88 1047.63,-2571.8 1050.41,-2572.81 1053.04,-2573.89 1055.51,-2575.05 1057.82,-2576.29 1059.95,-2577.59 1061.91,-2578.96 1063.68,-2580.4 1065.26,-2581.89 1066.66,-2583.44 1067.86,-2585.04 1068.87,-2586.68 1069.69,-2588.37 1070.31,-2590.09 1070.75,-2591.84 1071,-2593.63 1071.07,-2595.43 1070.95,-2597.25 1070.67,-2599.09 1070.22,-2600.93 1069.61,-2602.78 1068.84,-2604.62 1067.92,-2606.45 1066.87,-2608.28 1065.68,-2610.08 1064.37,-2611.86 1062.94,-2613.62 1061.4,-2615.34 1059.76,-2617.03 1058.03,-2618.67 1056.22,-2620.27 1054.33,-2621.82 1052.36,-2623.31 1050.34,-2624.75 1048.25,-2626.12 1046.12,-2627.42 1043.94,-2628.66 1041.72,-2629.82 1039.47,-2630.9 1037.19,-2631.91 1034.88,-2632.83 1032.55,-2633.67 1030.21,-2634.42 1027.85,-2635.08 1025.47,-2635.65 1023.09,-2636.13 1020.7,-2636.51 1018.3,-2636.8 1015.9,-2636.99 1013.49,-2637.09 1011.09,-2637.09 1008.69,-2636.99 1006.28,-2636.8 1003.89,-2636.51 1001.5,-2636.13 999.11,-2635.65 996.74,-2635.08 994.38,-2634.42 992.03,-2633.67 989.7,-2632.83 987.4,-2631.91 985.11,-2630.9 982.86,-2629.82 980.64,-2628.66 978.47,-2627.42 976.33,-2626.12 974.25,-2624.75 972.22,-2623.31 970.26,-2621.82 968.37,-2620.27 966.55,-2618.67 964.82,-2617.03 963.18,-2615.34 961.65,-2613.62 960.22,-2611.86 958.9,-2610.08 957.72,-2608.28 956.66,-2606.45 955.75,-2604.62 954.98,-2602.78 954.37,-2600.93 953.91,-2599.09 953.63,-2597.25 953.52,-2595.43 953.59,-2593.63 953.84,-2591.84 954.27,-2590.09 954.9,-2588.37 955.72,-2586.68 956.73,-2585.04 957.93,-2583.44 959.32,-2581.89 960.91,-2580.4 962.68,-2578.96 964.63,-2577.59 966.77,-2576.29 969.07,-2575.05 971.55,-2573.89 974.18,-2572.81 976.96,-2571.8 979.88,-2570.88 982.93,-2570.04 986.09,-2569.29 989.37,-2568.63 992.73,-2568.06 996.18,-2567.58 999.69,-2567.2 1003.25,-2566.91 1006.85,-2566.71 1010.48,-2566.62 1014.11,-2566.62 1017.73,-2566.71"/>
<text text-anchor="start" x="983.12" y="-2611.65" font-family="Times,serif" font-size="14.00">C0002131</text>
<text text-anchor="start" x="981.19" y="-2597.65" font-family="Times,serif" font-size="14.00">alloantigen</text>
<text text-anchor="start" x="989.35" y="-2583.65" font-family="Times,serif" font-size="14.00">129:129</text>
</g>
<!-- id_27755168_DOT_4&#45;&#45;id_27755168_DOT_14 -->
<g id="edge14" class="edge">
<title>id_27755168_DOT_4&#45;&#45;id_27755168_DOT_14</title>
<path fill="none" stroke="black" stroke-dasharray="1,5" d="M836.85,-2913.85C874.8,-2846.35 957.29,-2699.66 994.02,-2634.35"/>
<text text-anchor="middle" x="889.18" y="-2776.9" font-family="Times,serif" font-size="14.00">0.821899</text>
</g>
<!-- id_27755168_DOT_18 -->
<g id="node18" class="node">
<title>id_27755168_DOT_18</title>
<polygon fill="darkgoldenrod" stroke="darkgoldenrod" points="440.08,-3036.13 443.59,-3036.32 447.06,-3036.61 450.48,-3037 453.84,-3037.47 457.12,-3038.04 460.31,-3038.7 463.39,-3039.46 466.36,-3040.29 469.21,-3041.22 471.92,-3042.22 474.48,-3043.31 476.89,-3044.47 479.13,-3045.7 481.21,-3047.01 483.12,-3048.38 484.84,-3049.81 486.39,-3051.3 487.74,-3052.85 488.92,-3054.45 489.9,-3056.09 490.69,-3057.78 491.3,-3059.5 491.73,-3061.26 491.97,-3063.04 492.04,-3064.85 491.93,-3066.67 491.65,-3068.5 491.21,-3070.35 490.62,-3072.19 489.87,-3074.03 488.98,-3075.87 487.95,-3077.69 486.79,-3079.5 485.51,-3081.28 484.12,-3083.04 482.62,-3084.76 481.03,-3086.44 479.34,-3088.09 477.58,-3089.69 475.73,-3091.23 473.82,-3092.73 471.85,-3094.16 469.82,-3095.53 467.74,-3096.84 465.62,-3098.07 463.45,-3099.23 461.26,-3100.32 459.04,-3101.32 456.79,-3102.25 454.52,-3103.08 452.24,-3103.83 449.94,-3104.5 447.63,-3105.07 445.3,-3105.54 442.97,-3105.93 440.64,-3106.22 438.3,-3106.41 435.96,-3106.5 433.61,-3106.5 431.27,-3106.41 428.93,-3106.22 426.6,-3105.93 424.27,-3105.54 421.95,-3105.07 419.63,-3104.5 417.33,-3103.83 415.05,-3103.08 412.78,-3102.25 410.53,-3101.32 408.31,-3100.32 406.12,-3099.23 403.96,-3098.07 401.83,-3096.84 399.76,-3095.53 397.73,-3094.16 395.75,-3092.73 393.84,-3091.23 392,-3089.69 390.23,-3088.09 388.54,-3086.44 386.95,-3084.76 385.45,-3083.04 384.06,-3081.28 382.78,-3079.5 381.62,-3077.69 380.6,-3075.87 379.7,-3074.03 378.96,-3072.19 378.36,-3070.35 377.92,-3068.5 377.64,-3066.67 377.53,-3064.85 377.6,-3063.04 377.84,-3061.26 378.27,-3059.5 378.88,-3057.78 379.67,-3056.09 380.66,-3054.45 381.83,-3052.85 383.19,-3051.3 384.73,-3049.81 386.45,-3048.38 388.36,-3047.01 390.44,-3045.7 392.68,-3044.47 395.09,-3043.31 397.66,-3042.22 400.36,-3041.22 403.21,-3040.29 406.18,-3039.46 409.26,-3038.7 412.45,-3038.04 415.73,-3037.47 419.09,-3037 422.51,-3036.61 425.98,-3036.32 429.49,-3036.13 433.02,-3036.03 436.55,-3036.03 440.08,-3036.13"/>
<text text-anchor="start" x="405.62" y="-3081.07" font-family="Times,serif" font-size="14.00">C0007582</text>
<text text-anchor="start" x="404.85" y="-3067.07" font-family="Times,serif" font-size="14.00">interaction</text>
<text text-anchor="start" x="411.84" y="-3053.07" font-family="Times,serif" font-size="14.00">161:161</text>
</g>
<!-- id_27755168_DOT_4&#45;&#45;id_27755168_DOT_18 -->
<g id="edge15" class="edge">
<title>id_27755168_DOT_4&#45;&#45;id_27755168_DOT_18</title>
<path fill="none" stroke="black" stroke-dasharray="1,5" d="M741.53,-2973.2C667.01,-2997.02 554.92,-3032.86 488.88,-3053.97"/>
<text text-anchor="middle" x="588.95" y="-3016.38" font-family="Times,serif" font-size="14.00">0.942015</text>
</g>
<!-- id_27755168_DOT_5 -->
<g id="node5" class="node">
<title>id_27755168_DOT_5</title>
<polygon fill="blueviolet" stroke="blueviolet" points="1886.89,-1210.09 1890.66,-1210.28 1894.39,-1210.57 1898.06,-1210.95 1901.67,-1211.43 1905.19,-1212 1908.62,-1212.66 1911.94,-1213.41 1915.13,-1214.25 1918.18,-1215.17 1921.09,-1216.18 1923.85,-1217.26 1926.44,-1218.42 1928.85,-1219.66 1931.09,-1220.96 1933.13,-1222.34 1934.99,-1223.77 1936.64,-1225.26 1938.1,-1226.81 1939.36,-1228.41 1940.42,-1230.05 1941.27,-1231.74 1941.93,-1233.46 1942.39,-1235.22 1942.65,-1237 1942.72,-1238.8 1942.6,-1240.63 1942.3,-1242.46 1941.83,-1244.3 1941.19,-1246.15 1940.39,-1247.99 1939.43,-1249.83 1938.32,-1251.65 1937.08,-1253.45 1935.71,-1255.24 1934.21,-1256.99 1932.6,-1258.72 1930.89,-1260.4 1929.08,-1262.05 1927.18,-1263.64 1925.2,-1265.19 1923.14,-1266.68 1921.02,-1268.12 1918.84,-1269.49 1916.6,-1270.79 1914.32,-1272.03 1912,-1273.19 1909.65,-1274.27 1907.26,-1275.28 1904.84,-1276.2 1902.41,-1277.04 1899.95,-1277.79 1897.48,-1278.45 1894.99,-1279.02 1892.5,-1279.5 1889.99,-1279.88 1887.48,-1280.17 1884.97,-1280.37 1882.45,-1280.46 1879.94,-1280.46 1877.42,-1280.37 1874.91,-1280.17 1872.4,-1279.88 1869.89,-1279.5 1867.4,-1279.02 1864.91,-1278.45 1862.44,-1277.79 1859.98,-1277.04 1857.55,-1276.2 1855.13,-1275.28 1852.74,-1274.27 1850.39,-1273.19 1848.07,-1272.03 1845.79,-1270.79 1843.55,-1269.49 1841.37,-1268.12 1839.25,-1266.68 1837.19,-1265.19 1835.21,-1263.64 1833.31,-1262.05 1831.5,-1260.4 1829.79,-1258.72 1828.18,-1256.99 1826.68,-1255.24 1825.31,-1253.45 1824.07,-1251.65 1822.96,-1249.83 1822,-1247.99 1821.2,-1246.15 1820.56,-1244.3 1820.09,-1242.46 1819.79,-1240.63 1819.67,-1238.8 1819.74,-1237 1820,-1235.22 1820.46,-1233.46 1821.12,-1231.74 1821.97,-1230.05 1823.03,-1228.41 1824.29,-1226.81 1825.75,-1225.26 1827.4,-1223.77 1829.26,-1222.34 1831.3,-1220.96 1833.54,-1219.66 1835.95,-1218.42 1838.54,-1217.26 1841.3,-1216.18 1844.21,-1215.17 1847.26,-1214.25 1850.45,-1213.41 1853.77,-1212.66 1857.2,-1212 1860.72,-1211.43 1864.33,-1210.95 1868,-1210.57 1871.73,-1210.28 1875.5,-1210.09 1879.29,-1209.99 1883.1,-1209.99 1886.89,-1210.09"/>
<text text-anchor="start" x="1852.03" y="-1255.03" font-family="Times,serif" font-size="14.00">C0302189</text>
<text text-anchor="start" x="1848.35" y="-1241.03" font-family="Times,serif" font-size="14.00">cell therapy</text>
<text text-anchor="start" x="1865.25" y="-1227.03" font-family="Times,serif" font-size="14.00">57:58</text>
</g>
<!-- id_27755168_DOT_8 -->
<g id="node8" class="node">
<title>id_27755168_DOT_8</title>
<polygon fill="brown" stroke="brown" points="2303.15,-1372.09 2306.54,-1372.28 2309.9,-1372.57 2313.21,-1372.95 2316.46,-1373.43 2319.64,-1374 2322.72,-1374.66 2325.71,-1375.41 2328.58,-1376.25 2331.33,-1377.17 2333.96,-1378.18 2336.44,-1379.26 2338.77,-1380.43 2340.94,-1381.66 2342.95,-1382.97 2344.8,-1384.34 2346.47,-1385.77 2347.96,-1387.26 2349.28,-1388.81 2350.41,-1390.41 2351.36,-1392.05 2352.13,-1393.74 2352.72,-1395.46 2353.13,-1397.22 2353.37,-1399 2353.43,-1400.8 2353.33,-1402.63 2353.06,-1404.46 2352.63,-1406.31 2352.06,-1408.15 2351.33,-1409.99 2350.47,-1411.83 2349.47,-1413.65 2348.35,-1415.46 2347.12,-1417.24 2345.77,-1418.99 2344.32,-1420.72 2342.78,-1422.4 2341.15,-1424.05 2339.43,-1425.64 2337.65,-1427.19 2335.8,-1428.69 2333.89,-1430.12 2331.92,-1431.49 2329.91,-1432.8 2327.86,-1434.03 2325.77,-1435.19 2323.64,-1436.28 2321.49,-1437.28 2319.32,-1438.2 2317.12,-1439.04 2314.91,-1439.79 2312.68,-1440.45 2310.45,-1441.02 2308.2,-1441.5 2305.94,-1441.89 2303.68,-1442.17 2301.42,-1442.37 2299.15,-1442.46 2296.89,-1442.46 2294.62,-1442.37 2292.36,-1442.17 2290.1,-1441.89 2287.84,-1441.5 2285.59,-1441.02 2283.35,-1440.45 2281.13,-1439.79 2278.92,-1439.04 2276.72,-1438.2 2274.55,-1437.28 2272.39,-1436.28 2270.27,-1435.19 2268.18,-1434.03 2266.13,-1432.8 2264.12,-1431.49 2262.15,-1430.12 2260.24,-1428.69 2258.39,-1427.19 2256.6,-1425.64 2254.89,-1424.05 2253.26,-1422.4 2251.72,-1420.72 2250.27,-1418.99 2248.92,-1417.24 2247.68,-1415.46 2246.56,-1413.65 2245.57,-1411.83 2244.71,-1409.99 2243.98,-1408.15 2243.41,-1406.31 2242.98,-1404.46 2242.71,-1402.63 2242.61,-1400.8 2242.67,-1399 2242.91,-1397.22 2243.32,-1395.46 2243.91,-1393.74 2244.68,-1392.05 2245.63,-1390.41 2246.76,-1388.81 2248.08,-1387.26 2249.57,-1385.77 2251.24,-1384.34 2253.08,-1382.97 2255.1,-1381.66 2257.27,-1380.43 2259.6,-1379.26 2262.08,-1378.18 2264.7,-1377.17 2267.46,-1376.25 2270.33,-1375.41 2273.32,-1374.66 2276.4,-1374 2279.58,-1373.43 2282.83,-1372.95 2286.14,-1372.57 2289.5,-1372.28 2292.89,-1372.09 2296.31,-1371.99 2299.73,-1371.99 2303.15,-1372.09"/>
<text text-anchor="start" x="2269.36" y="-1417.03" font-family="Times,serif" font-size="14.00">C0087111</text>
<text text-anchor="start" x="2272.75" y="-1403.03" font-family="Times,serif" font-size="14.00">therapies</text>
<text text-anchor="start" x="2282.07" y="-1389.03" font-family="Times,serif" font-size="14.00">86:86</text>
</g>
<!-- id_27755168_DOT_5&#45;&#45;id_27755168_DOT_8 -->
<g id="edge16" class="edge">
<title>id_27755168_DOT_5&#45;&#45;id_27755168_DOT_8</title>
<path fill="none" stroke="black" stroke-dasharray="1,5" d="M1927.8,-1263.34C2006.72,-1294.01 2166.02,-1355.93 2247.51,-1387.6"/>
<text text-anchor="middle" x="2061.66" y="-1328.27" font-family="Times,serif" font-size="14.00">0.592511</text>
</g>
<!-- id_27755168_DOT_16 -->
<g id="node16" class="node">
<title>id_27755168_DOT_16</title>
<polygon fill="coral" stroke="coral" points="1924.08,-767.48 1929.71,-767.68 1935.28,-767.97 1940.78,-768.35 1946.17,-768.83 1951.44,-769.4 1956.56,-770.06 1961.51,-770.81 1966.28,-771.65 1970.85,-772.57 1975.2,-773.58 1979.32,-774.66 1983.18,-775.82 1986.79,-777.06 1990.13,-778.36 1993.19,-779.73 1995.96,-781.17 1998.44,-782.66 2000.62,-784.21 2002.5,-785.81 2004.08,-787.45 2005.36,-789.14 2006.34,-790.86 2007.02,-792.61 2007.41,-794.4 2007.52,-796.2 2007.34,-798.02 2006.9,-799.86 2006.19,-801.7 2005.23,-803.55 2004.03,-805.39 2002.6,-807.22 2000.95,-809.05 1999.09,-810.85 1997.04,-812.63 1994.8,-814.39 1992.4,-816.11 1989.84,-817.8 1987.13,-819.44 1984.29,-821.04 1981.33,-822.59 1978.26,-824.08 1975.09,-825.52 1971.83,-826.89 1968.49,-828.19 1965.08,-829.43 1961.61,-830.59 1958.09,-831.67 1954.52,-832.68 1950.91,-833.6 1947.27,-834.44 1943.6,-835.19 1939.9,-835.85 1936.19,-836.42 1932.46,-836.9 1928.72,-837.28 1924.97,-837.57 1921.21,-837.76 1917.45,-837.86 1913.69,-837.86 1909.93,-837.76 1906.17,-837.57 1902.42,-837.28 1898.68,-836.9 1894.95,-836.42 1891.23,-835.85 1887.54,-835.19 1883.87,-834.44 1880.22,-833.6 1876.62,-832.68 1873.05,-831.67 1869.52,-830.59 1866.05,-829.43 1862.65,-828.19 1859.31,-826.89 1856.05,-825.52 1852.88,-824.08 1849.81,-822.59 1846.84,-821.04 1844,-819.44 1841.3,-817.8 1838.73,-816.11 1836.33,-814.39 1834.1,-812.63 1832.04,-810.85 1830.18,-809.05 1828.53,-807.22 1827.1,-805.39 1825.9,-803.55 1824.94,-801.7 1824.23,-799.86 1823.79,-798.02 1823.62,-796.2 1823.72,-794.4 1824.11,-792.61 1824.8,-790.86 1825.77,-789.14 1827.05,-787.45 1828.63,-785.81 1830.51,-784.21 1832.69,-782.66 1835.17,-781.17 1837.94,-779.73 1841,-778.36 1844.34,-777.06 1847.95,-775.82 1851.82,-774.66 1855.93,-773.58 1860.28,-772.57 1864.85,-771.65 1869.62,-770.81 1874.58,-770.06 1879.7,-769.4 1884.96,-768.83 1890.36,-768.35 1895.85,-767.97 1901.42,-767.68 1907.06,-767.48 1912.73,-767.39 1918.41,-767.39 1924.08,-767.48"/>
<text text-anchor="start" x="1886.4" y="-812.42" font-family="Times,serif" font-size="14.00">C1327458</text>
<text text-anchor="start" x="1862.5" y="-798.42" font-family="Times,serif" font-size="14.00">immune regulation</text>
<text text-anchor="start" x="1892.62" y="-784.42" font-family="Times,serif" font-size="14.00">139:140</text>
</g>
<!-- id_27755168_DOT_5&#45;&#45;id_27755168_DOT_16 -->
<g id="edge17" class="edge">
<title>id_27755168_DOT_5&#45;&#45;id_27755168_DOT_16</title>
<path fill="none" stroke="black" stroke-dasharray="1,5" d="M1883.95,-1209.75C1890.39,-1126.78 1906.39,-920.8 1912.82,-837.96"/>
<text text-anchor="middle" x="1872.14" y="-1026.66" font-family="Times,serif" font-size="14.00">0.784230</text>
</g>
<!-- id_27755168_DOT_5&#45;&#45;id_27755168_DOT_19 -->
<g id="edge18" class="edge">
<title>id_27755168_DOT_5&#45;&#45;id_27755168_DOT_19</title>
<path fill="none" stroke="black" stroke-dasharray="1,5" d="M1837.34,-1265.36C1764.71,-1298.72 1619.02,-1365.62 1533.86,-1404.72"/>
<text text-anchor="middle" x="1659.35" y="-1337.84" font-family="Times,serif" font-size="14.00">0.582551</text>
</g>
<!-- id_27755168_DOT_17 -->
<g id="node17" class="node">
<title>id_27755168_DOT_17</title>
<polygon fill="aquamarine" stroke="aquamarine" points="449.61,-702.2 457.36,-702.39 465.02,-702.68 472.58,-703.07 479.99,-703.54 487.23,-704.11 494.28,-704.77 501.09,-705.53 507.65,-706.36 513.93,-707.29 519.91,-708.29 525.57,-709.38 530.89,-710.54 535.85,-711.77 540.45,-713.08 544.65,-714.45 548.46,-715.88 551.87,-717.37 554.87,-718.92 557.46,-720.52 559.63,-722.16 561.39,-723.85 562.73,-725.57 563.67,-727.33 564.21,-729.11 564.36,-730.92 564.12,-732.74 563.5,-734.57 562.53,-736.42 561.21,-738.26 559.56,-740.1 557.59,-741.94 555.32,-743.76 552.77,-745.57 549.94,-747.35 546.87,-749.1 543.56,-750.83 540.04,-752.51 536.32,-754.16 532.41,-755.76 528.34,-757.3 524.12,-758.8 519.76,-760.23 515.27,-761.6 510.68,-762.91 506,-764.14 501.23,-765.3 496.38,-766.39 491.47,-767.39 486.51,-768.32 481.5,-769.15 476.45,-769.9 471.37,-770.56 466.27,-771.13 461.14,-771.61 455.99,-772 450.83,-772.28 445.67,-772.48 440.5,-772.57 435.32,-772.57 430.15,-772.48 424.98,-772.28 419.83,-772 414.68,-771.61 409.55,-771.13 404.45,-770.56 399.37,-769.9 394.32,-769.15 389.31,-768.32 384.35,-767.39 379.44,-766.39 374.59,-765.3 369.82,-764.14 365.13,-762.91 360.54,-761.6 356.06,-760.23 351.7,-758.8 347.48,-757.3 343.41,-755.76 339.5,-754.16 335.78,-752.51 332.25,-750.83 328.95,-749.1 325.87,-747.35 323.05,-745.57 320.5,-743.76 318.23,-741.94 316.26,-740.1 314.61,-738.26 313.29,-736.42 312.31,-734.57 311.7,-732.74 311.46,-730.92 311.61,-729.11 312.15,-727.33 313.09,-725.57 314.43,-723.85 316.19,-722.16 318.36,-720.52 320.95,-718.92 323.95,-717.37 327.36,-715.88 331.17,-714.45 335.37,-713.08 339.96,-711.77 344.93,-710.54 350.25,-709.38 355.91,-708.29 361.89,-707.29 368.17,-706.36 374.73,-705.53 381.54,-704.77 388.58,-704.11 395.83,-703.54 403.24,-703.07 410.79,-702.68 418.46,-702.39 426.21,-702.2 434,-702.1 441.81,-702.1 449.61,-702.2"/>
<text text-anchor="start" x="408.74" y="-747.14" font-family="Times,serif" font-size="14.00">C3178844</text>
<text text-anchor="start" x="362.1" y="-733.14" font-family="Times,serif" font-size="14.00">mesenchymal stromal cells</text>
<text text-anchor="start" x="414.96" y="-719.14" font-family="Times,serif" font-size="14.00">151:153</text>
</g>
<!-- id_27755168_DOT_6&#45;&#45;id_27755168_DOT_17 -->
<g id="edge6" class="edge">
<title>id_27755168_DOT_6&#45;&#45;id_27755168_DOT_17</title>
<path fill="none" stroke="black" d="M715.67,-919.14C652.98,-878.11 546.94,-808.71 485.61,-768.56"/>
<text text-anchor="middle" x="574.39" y="-846.65" font-family="Times,serif" font-size="14.00">0.007728</text>
</g>
<!-- id_27755168_DOT_7 -->
<g id="node7" class="node">
<title>id_27755168_DOT_7</title>
<polygon fill="brown" stroke="brown" points="2533.99,-1066.48 2537.39,-1066.67 2540.75,-1066.96 2544.06,-1067.35 2547.31,-1067.82 2550.48,-1068.39 2553.57,-1069.05 2556.55,-1069.81 2559.43,-1070.64 2562.18,-1071.57 2564.8,-1072.57 2567.28,-1073.66 2569.61,-1074.82 2571.79,-1076.05 2573.8,-1077.36 2575.64,-1078.73 2577.31,-1080.16 2578.81,-1081.65 2580.12,-1083.2 2581.25,-1084.8 2582.21,-1086.44 2582.98,-1088.13 2583.57,-1089.85 2583.98,-1091.61 2584.21,-1093.39 2584.28,-1095.2 2584.17,-1097.02 2583.9,-1098.85 2583.48,-1100.7 2582.9,-1102.54 2582.18,-1104.38 2581.31,-1106.22 2580.32,-1108.04 2579.2,-1109.85 2577.96,-1111.63 2576.62,-1113.39 2575.17,-1115.11 2573.62,-1116.79 2571.99,-1118.44 2570.28,-1120.04 2568.49,-1121.58 2566.64,-1123.08 2564.73,-1124.51 2562.77,-1125.88 2560.76,-1127.19 2558.7,-1128.42 2556.61,-1129.58 2554.49,-1130.67 2552.34,-1131.67 2550.16,-1132.6 2547.97,-1133.43 2545.76,-1134.18 2543.53,-1134.85 2541.29,-1135.42 2539.04,-1135.89 2536.79,-1136.28 2534.53,-1136.57 2532.26,-1136.76 2530,-1136.85 2527.73,-1136.85 2525.46,-1136.76 2523.2,-1136.57 2520.94,-1136.28 2518.69,-1135.89 2516.44,-1135.42 2514.2,-1134.85 2511.97,-1134.18 2509.76,-1133.43 2507.57,-1132.6 2505.39,-1131.67 2503.24,-1130.67 2501.12,-1129.58 2499.03,-1128.42 2496.97,-1127.19 2494.96,-1125.88 2493,-1124.51 2491.09,-1123.08 2489.23,-1121.58 2487.45,-1120.04 2485.74,-1118.44 2484.11,-1116.79 2482.56,-1115.11 2481.11,-1113.39 2479.77,-1111.63 2478.53,-1109.85 2477.41,-1108.04 2476.42,-1106.22 2475.55,-1104.38 2474.83,-1102.54 2474.25,-1100.7 2473.82,-1098.85 2473.56,-1097.02 2473.45,-1095.2 2473.52,-1093.39 2473.75,-1091.61 2474.16,-1089.85 2474.75,-1088.13 2475.52,-1086.44 2476.47,-1084.8 2477.61,-1083.2 2478.92,-1081.65 2480.42,-1080.16 2482.09,-1078.73 2483.93,-1077.36 2485.94,-1076.05 2488.12,-1074.82 2490.45,-1073.66 2492.93,-1072.57 2495.55,-1071.57 2498.3,-1070.64 2501.18,-1069.81 2504.16,-1069.05 2507.25,-1068.39 2510.42,-1067.82 2513.67,-1067.35 2516.98,-1066.96 2520.34,-1066.67 2523.74,-1066.48 2527.15,-1066.38 2530.58,-1066.38 2533.99,-1066.48"/>
<text text-anchor="start" x="2500.21" y="-1111.42" font-family="Times,serif" font-size="14.00">C0087111</text>
<text text-anchor="start" x="2507.88" y="-1097.42" font-family="Times,serif" font-size="14.00">therapy</text>
<text text-anchor="start" x="2512.92" y="-1083.42" font-family="Times,serif" font-size="14.00">79:79</text>
</g>
<!-- id_27755168_DOT_7&#45;&#45;id_27755168_DOT_8 -->
<g id="edge7" class="edge">
<title>id_27755168_DOT_7&#45;&#45;id_27755168_DOT_8</title>
<path fill="none" stroke="black" d="M2505.89,-1132.04C2462.21,-1189.86 2367.56,-1315.17 2322.64,-1374.64"/>
<text text-anchor="middle" x="2388.27" y="-1256.14" font-family="Times,serif" font-size="14.00">0.005011</text>
</g>
<!-- id_27755168_DOT_8&#45;&#45;id_27755168_DOT_23 -->
<g id="edge19" class="edge">
<title>id_27755168_DOT_8&#45;&#45;id_27755168_DOT_23</title>
<path fill="none" stroke="black" stroke-dasharray="1,5" d="M2344.51,-1420.59C2413.08,-1440.29 2542.46,-1477.48 2628.43,-1502.18"/>
<text text-anchor="middle" x="2460.22" y="-1464.19" font-family="Times,serif" font-size="14.00">0.866872</text>
</g>
<!-- id_27755168_DOT_24 -->
<g id="node24" class="node">
<title>id_27755168_DOT_24</title>
<polygon fill="brown" stroke="brown" points="2332.93,-1751.58 2339.13,-1751.77 2345.26,-1752.06 2351.31,-1752.44 2357.24,-1752.92 2363.03,-1753.49 2368.66,-1754.15 2374.11,-1754.9 2379.36,-1755.74 2384.39,-1756.66 2389.17,-1757.67 2393.7,-1758.75 2397.95,-1759.91 2401.92,-1761.15 2405.6,-1762.45 2408.96,-1763.82 2412.01,-1765.26 2414.74,-1766.75 2417.14,-1768.3 2419.2,-1769.9 2420.94,-1771.54 2422.35,-1773.23 2423.43,-1774.95 2424.18,-1776.7 2424.61,-1778.49 2424.72,-1780.29 2424.53,-1782.11 2424.04,-1783.95 2423.26,-1785.79 2422.21,-1787.64 2420.89,-1789.48 2419.31,-1791.31 2417.5,-1793.14 2415.45,-1794.94 2413.2,-1796.72 2410.74,-1798.48 2408.09,-1800.2 2405.27,-1801.89 2402.3,-1803.53 2399.17,-1805.13 2395.91,-1806.68 2392.53,-1808.17 2389.05,-1809.61 2385.46,-1810.98 2381.79,-1812.28 2378.04,-1813.52 2374.22,-1814.68 2370.35,-1815.76 2366.42,-1816.77 2362.45,-1817.69 2358.45,-1818.53 2354.41,-1819.28 2350.34,-1819.94 2346.26,-1820.51 2342.16,-1820.99 2338.04,-1821.37 2333.91,-1821.66 2329.78,-1821.85 2325.64,-1821.95 2321.51,-1821.95 2317.37,-1821.85 2313.24,-1821.66 2309.11,-1821.37 2304.99,-1820.99 2300.89,-1820.51 2296.81,-1819.94 2292.74,-1819.28 2288.7,-1818.53 2284.7,-1817.69 2280.73,-1816.77 2276.8,-1815.76 2272.93,-1814.68 2269.11,-1813.52 2265.36,-1812.28 2261.69,-1810.98 2258.1,-1809.61 2254.62,-1808.17 2251.24,-1806.68 2247.98,-1805.13 2244.85,-1803.53 2241.88,-1801.89 2239.06,-1800.2 2236.41,-1798.48 2233.95,-1796.72 2231.7,-1794.94 2229.65,-1793.14 2227.84,-1791.31 2226.26,-1789.48 2224.94,-1787.64 2223.89,-1785.79 2223.11,-1783.95 2222.62,-1782.11 2222.43,-1780.29 2222.54,-1778.49 2222.97,-1776.7 2223.72,-1774.95 2224.8,-1773.23 2226.21,-1771.54 2227.95,-1769.9 2230.01,-1768.3 2232.41,-1766.75 2235.14,-1765.26 2238.19,-1763.82 2241.55,-1762.45 2245.23,-1761.15 2249.2,-1759.91 2253.45,-1758.75 2257.98,-1757.67 2262.76,-1756.66 2267.79,-1755.74 2273.04,-1754.9 2278.49,-1754.15 2284.12,-1753.49 2289.91,-1752.92 2295.84,-1752.44 2301.89,-1752.06 2308.02,-1751.77 2314.22,-1751.58 2320.45,-1751.48 2326.7,-1751.48 2332.93,-1751.58"/>
<text text-anchor="start" x="2294.92" y="-1796.51" font-family="Times,serif" font-size="14.00">C0087111</text>
<text text-anchor="start" x="2264.3" y="-1782.51" font-family="Times,serif" font-size="14.00">therapeutic strategies</text>
<text text-anchor="start" x="2300.63" y="-1768.51" font-family="Times,serif" font-size="14.00">206:207</text>
</g>
<!-- id_27755168_DOT_8&#45;&#45;id_27755168_DOT_24 -->
<g id="edge8" class="edge">
<title>id_27755168_DOT_8&#45;&#45;id_27755168_DOT_24</title>
<path fill="none" stroke="black" d="M2300.4,-1442.59C2305.27,-1514.9 2316.32,-1678.95 2321.19,-1751.31"/>
<text text-anchor="middle" x="2284.55" y="-1599.75" font-family="Times,serif" font-size="14.00">0.151242</text>
</g>
<!-- id_27755168_DOT_9 -->
<g id="node9" class="node">
<title>id_27755168_DOT_9</title>
<polygon fill="cadetblue" stroke="cadetblue" points="2118.83,-389.29 2122.26,-389.48 2125.66,-389.77 2129,-390.16 2132.28,-390.63 2135.48,-391.2 2138.6,-391.87 2141.62,-392.62 2144.52,-393.45 2147.3,-394.38 2149.95,-395.38 2152.45,-396.47 2154.8,-397.63 2157,-398.86 2159.03,-400.17 2160.89,-401.54 2162.58,-402.97 2164.09,-404.47 2165.42,-406.01 2166.56,-407.61 2167.52,-409.26 2168.3,-410.94 2168.9,-412.66 2169.31,-414.42 2169.55,-416.2 2169.61,-418.01 2169.51,-419.83 2169.24,-421.66 2168.81,-423.51 2168.22,-425.35 2167.49,-427.2 2166.62,-429.03 2165.62,-430.85 2164.49,-432.66 2163.24,-434.44 2161.88,-436.2 2160.41,-437.92 2158.85,-439.6 2157.21,-441.25 2155.48,-442.85 2153.68,-444.39 2151.81,-445.89 2149.88,-447.32 2147.89,-448.69 2145.86,-450 2143.79,-451.23 2141.68,-452.39 2139.53,-453.48 2137.36,-454.48 2135.16,-455.41 2132.95,-456.24 2130.71,-456.99 2128.47,-457.66 2126.21,-458.23 2123.94,-458.7 2121.66,-459.09 2119.38,-459.38 2117.09,-459.57 2114.8,-459.67 2112.51,-459.67 2110.22,-459.57 2107.94,-459.38 2105.65,-459.09 2103.38,-458.7 2101.11,-458.23 2098.85,-457.66 2096.6,-456.99 2094.37,-456.24 2092.15,-455.41 2089.95,-454.48 2087.78,-453.48 2085.64,-452.39 2083.53,-451.23 2081.45,-450 2079.42,-448.69 2077.44,-447.32 2075.51,-445.89 2073.64,-444.39 2071.84,-442.85 2070.11,-441.25 2068.46,-439.6 2066.9,-437.92 2065.44,-436.2 2064.08,-434.44 2062.83,-432.66 2061.7,-430.85 2060.69,-429.03 2059.82,-427.2 2059.09,-425.35 2058.51,-423.51 2058.08,-421.66 2057.81,-419.83 2057.7,-418.01 2057.76,-416.2 2058,-414.42 2058.42,-412.66 2059.01,-410.94 2059.79,-409.26 2060.75,-407.61 2061.9,-406.01 2063.22,-404.47 2064.73,-402.97 2066.42,-401.54 2068.28,-400.17 2070.31,-398.86 2072.51,-397.63 2074.86,-396.47 2077.37,-395.38 2080.01,-394.38 2082.79,-393.45 2085.7,-392.62 2088.71,-391.87 2091.83,-391.2 2095.03,-390.63 2098.31,-390.16 2101.66,-389.77 2105.05,-389.48 2108.48,-389.29 2111.93,-389.19 2115.39,-389.19 2118.83,-389.29"/>
<text text-anchor="start" x="2084.49" y="-434.23" font-family="Times,serif" font-size="14.00">C0441640</text>
<text text-anchor="start" x="2090.72" y="-420.23" font-family="Times,serif" font-size="14.00">tapering</text>
<text text-anchor="start" x="2097.71" y="-406.23" font-family="Times,serif" font-size="14.00">92:92</text>
</g>
<!-- id_27755168_DOT_13 -->
<g id="node13" class="node">
<title>id_27755168_DOT_13</title>
<polygon fill="cornflowerblue" stroke="cornflowerblue" points="2199.9,-0.23 2203.33,-0.42 2206.72,-0.71 2210.07,-1.09 2213.35,-1.57 2216.55,-2.14 2219.67,-2.8 2222.68,-3.55 2225.59,-4.39 2228.37,-5.31 2231.01,-6.32 2233.52,-7.4 2235.87,-8.57 2238.07,-9.8 2240.1,-11.1 2241.96,-12.48 2243.65,-13.91 2245.16,-15.4 2246.48,-16.95 2247.63,-18.55 2248.59,-20.19 2249.37,-21.88 2249.96,-23.6 2250.38,-25.36 2250.62,-27.14 2250.68,-28.94 2250.57,-30.77 2250.3,-32.6 2249.87,-34.44 2249.29,-36.29 2248.56,-38.13 2247.69,-39.97 2246.68,-41.79 2245.55,-43.6 2244.3,-45.38 2242.94,-47.13 2241.48,-48.86 2239.92,-50.54 2238.27,-52.19 2236.54,-53.78 2234.74,-55.33 2232.87,-56.82 2230.94,-58.26 2228.96,-59.63 2226.93,-60.94 2224.85,-62.17 2222.74,-63.33 2220.6,-64.42 2218.43,-65.42 2216.23,-66.34 2214.01,-67.18 2211.78,-67.93 2209.53,-68.59 2207.27,-69.16 2205,-69.64 2202.73,-70.02 2200.44,-70.31 2198.16,-70.51 2195.87,-70.6 2193.58,-70.6 2191.29,-70.51 2189,-70.31 2186.72,-70.02 2184.44,-69.64 2182.18,-69.16 2179.92,-68.59 2177.67,-67.93 2175.43,-67.18 2173.22,-66.34 2171.02,-65.42 2168.85,-64.42 2166.7,-63.33 2164.59,-62.17 2162.52,-60.94 2160.49,-59.63 2158.5,-58.26 2156.57,-56.82 2154.7,-55.33 2152.9,-53.78 2151.17,-52.19 2149.53,-50.54 2147.97,-48.86 2146.5,-47.13 2145.14,-45.38 2143.89,-43.6 2142.76,-41.79 2141.76,-39.97 2140.89,-38.13 2140.16,-36.29 2139.57,-34.44 2139.14,-32.6 2138.87,-30.77 2138.77,-28.94 2138.83,-27.14 2139.07,-25.36 2139.48,-23.6 2140.08,-21.88 2140.86,-20.19 2141.82,-18.55 2142.96,-16.95 2144.29,-15.4 2145.8,-13.91 2147.49,-12.48 2149.35,-11.1 2151.38,-9.8 2153.58,-8.57 2155.93,-7.4 2158.43,-6.32 2161.08,-5.31 2163.86,-4.39 2166.76,-3.55 2169.78,-2.8 2172.9,-2.14 2176.1,-1.57 2179.38,-1.09 2182.72,-0.71 2186.12,-0.42 2189.55,-0.23 2193,-0.13 2196.45,-0.13 2199.9,-0.23"/>
<text text-anchor="start" x="2165.55" y="-45.17" font-family="Times,serif" font-size="14.00">C0020963</text>
<text text-anchor="start" x="2169.08" y="-31.17" font-family="Times,serif" font-size="14.00">tolerance</text>
<text text-anchor="start" x="2172.29" y="-17.17" font-family="Times,serif" font-size="14.00">114:114</text>
</g>
<!-- id_27755168_DOT_9&#45;&#45;id_27755168_DOT_13 -->
<g id="edge20" class="edge">
<title>id_27755168_DOT_9&#45;&#45;id_27755168_DOT_13</title>
<path fill="none" stroke="black" stroke-dasharray="1,5" d="M2120.99,-389.22C2136.43,-315.14 2172.09,-143.98 2187.46,-70.22"/>
<text text-anchor="middle" x="2127.98" y="-232.52" font-family="Times,serif" font-size="14.00">0.887196</text>
</g>
<!-- id_27755168_DOT_9&#45;&#45;id_27755168_DOT_16 -->
<g id="edge21" class="edge">
<title>id_27755168_DOT_9&#45;&#45;id_27755168_DOT_16</title>
<path fill="none" stroke="black" stroke-dasharray="1,5" d="M2096.6,-457C2059.53,-527.77 1971.91,-695.06 1933.8,-767.81"/>
<text text-anchor="middle" x="1988.95" y="-615.21" font-family="Times,serif" font-size="14.00">0.816278</text>
</g>
<!-- id_27755168_DOT_11 -->
<g id="node11" class="node">
<title>id_27755168_DOT_11</title>
<polygon fill="chartreuse" stroke="chartreuse" points="1291.43,-1800.01 1294.86,-1800.2 1298.25,-1800.49 1301.59,-1800.88 1304.87,-1801.35 1308.08,-1801.92 1311.2,-1802.59 1314.21,-1803.34 1317.11,-1804.17 1319.89,-1805.1 1322.54,-1806.1 1325.05,-1807.19 1327.4,-1808.35 1329.6,-1809.58 1331.63,-1810.89 1333.49,-1812.26 1335.17,-1813.69 1336.68,-1815.19 1338.01,-1816.73 1339.16,-1818.33 1340.12,-1819.98 1340.89,-1821.66 1341.49,-1823.38 1341.91,-1825.14 1342.14,-1826.92 1342.21,-1828.73 1342.1,-1830.55 1341.83,-1832.38 1341.4,-1834.23 1340.82,-1836.07 1340.09,-1837.92 1339.22,-1839.75 1338.21,-1841.57 1337.08,-1843.38 1335.83,-1845.16 1334.47,-1846.92 1333.01,-1848.64 1331.45,-1850.32 1329.8,-1851.97 1328.07,-1853.57 1326.27,-1855.11 1324.4,-1856.61 1322.47,-1858.04 1320.49,-1859.41 1318.46,-1860.72 1316.38,-1861.95 1314.27,-1863.11 1312.13,-1864.2 1309.96,-1865.2 1307.76,-1866.13 1305.54,-1866.96 1303.31,-1867.71 1301.06,-1868.38 1298.8,-1868.95 1296.53,-1869.42 1294.25,-1869.81 1291.97,-1870.1 1289.68,-1870.29 1287.4,-1870.39 1285.11,-1870.39 1282.82,-1870.29 1280.53,-1870.1 1278.25,-1869.81 1275.97,-1869.42 1273.7,-1868.95 1271.44,-1868.38 1269.19,-1867.71 1266.96,-1866.96 1264.74,-1866.13 1262.55,-1865.2 1260.38,-1864.2 1258.23,-1863.11 1256.12,-1861.95 1254.05,-1860.72 1252.01,-1859.41 1250.03,-1858.04 1248.1,-1856.61 1246.23,-1855.11 1244.43,-1853.57 1242.7,-1851.97 1241.05,-1850.32 1239.5,-1848.64 1238.03,-1846.92 1236.67,-1845.16 1235.42,-1843.38 1234.29,-1841.57 1233.29,-1839.75 1232.42,-1837.92 1231.69,-1836.07 1231.1,-1834.23 1230.67,-1832.38 1230.4,-1830.55 1230.29,-1828.73 1230.36,-1826.92 1230.6,-1825.14 1231.01,-1823.38 1231.61,-1821.66 1232.39,-1819.98 1233.35,-1818.33 1234.49,-1816.73 1235.82,-1815.19 1237.33,-1813.69 1239.01,-1812.26 1240.88,-1810.89 1242.91,-1809.58 1245.1,-1808.35 1247.46,-1807.19 1249.96,-1806.1 1252.61,-1805.1 1255.39,-1804.17 1258.29,-1803.34 1261.31,-1802.59 1264.42,-1801.92 1267.63,-1801.35 1270.91,-1800.88 1274.25,-1800.49 1277.64,-1800.2 1281.07,-1800.01 1284.52,-1799.92 1287.98,-1799.92 1291.43,-1800.01"/>
<text text-anchor="start" x="1257.08" y="-1844.95" font-family="Times,serif" font-size="14.00">C0013018</text>
<text text-anchor="start" x="1269.92" y="-1830.95" font-family="Times,serif" font-size="14.00">donor</text>
<text text-anchor="start" x="1263.31" y="-1816.95" font-family="Times,serif" font-size="14.00">108:108</text>
</g>
<!-- id_27755168_DOT_15 -->
<g id="node15" class="node">
<title>id_27755168_DOT_15</title>
<polygon fill="chartreuse" stroke="chartreuse" points="1204.72,-2212.5 1208.15,-2212.69 1211.54,-2212.98 1214.88,-2213.36 1218.16,-2213.84 1221.37,-2214.41 1224.48,-2215.07 1227.5,-2215.82 1230.4,-2216.66 1233.18,-2217.58 1235.83,-2218.59 1238.33,-2219.67 1240.69,-2220.83 1242.88,-2222.07 1244.92,-2223.37 1246.78,-2224.75 1248.46,-2226.18 1249.97,-2227.67 1251.3,-2229.22 1252.44,-2230.82 1253.4,-2232.46 1254.18,-2234.15 1254.78,-2235.87 1255.19,-2237.63 1255.43,-2239.41 1255.5,-2241.21 1255.39,-2243.04 1255.12,-2244.87 1254.69,-2246.71 1254.11,-2248.56 1253.37,-2250.4 1252.5,-2252.24 1251.5,-2254.06 1250.37,-2255.87 1249.12,-2257.65 1247.76,-2259.4 1246.3,-2261.13 1244.74,-2262.81 1243.09,-2264.46 1241.36,-2266.05 1239.56,-2267.6 1237.69,-2269.09 1235.76,-2270.53 1233.78,-2271.9 1231.74,-2273.2 1229.67,-2274.44 1227.56,-2275.6 1225.42,-2276.69 1223.24,-2277.69 1221.05,-2278.61 1218.83,-2279.45 1216.6,-2280.2 1214.35,-2280.86 1212.09,-2281.43 1209.82,-2281.91 1207.54,-2282.29 1205.26,-2282.58 1202.97,-2282.78 1200.68,-2282.87 1198.39,-2282.87 1196.11,-2282.78 1193.82,-2282.58 1191.54,-2282.29 1189.26,-2281.91 1186.99,-2281.43 1184.73,-2280.86 1182.48,-2280.2 1180.25,-2279.45 1178.03,-2278.61 1175.84,-2277.69 1173.66,-2276.69 1171.52,-2275.6 1169.41,-2274.44 1167.33,-2273.2 1165.3,-2271.9 1163.32,-2270.53 1161.39,-2269.09 1159.52,-2267.6 1157.72,-2266.05 1155.99,-2264.46 1154.34,-2262.81 1152.78,-2261.13 1151.32,-2259.4 1149.96,-2257.65 1148.71,-2255.87 1147.58,-2254.06 1146.58,-2252.24 1145.7,-2250.4 1144.97,-2248.56 1144.39,-2246.71 1143.96,-2244.87 1143.69,-2243.04 1143.58,-2241.21 1143.65,-2239.41 1143.89,-2237.63 1144.3,-2235.87 1144.9,-2234.15 1145.67,-2232.46 1146.64,-2230.82 1147.78,-2229.22 1149.11,-2227.67 1150.62,-2226.18 1152.3,-2224.75 1154.16,-2223.37 1156.2,-2222.07 1158.39,-2220.83 1160.75,-2219.67 1163.25,-2218.59 1165.9,-2217.58 1168.68,-2216.66 1171.58,-2215.82 1174.6,-2215.07 1177.71,-2214.41 1180.92,-2213.84 1184.2,-2213.36 1187.54,-2212.98 1190.93,-2212.69 1194.36,-2212.5 1197.81,-2212.4 1201.27,-2212.4 1204.72,-2212.5"/>
<text text-anchor="start" x="1170.37" y="-2257.44" font-family="Times,serif" font-size="14.00">C0013018</text>
<text text-anchor="start" x="1183.21" y="-2243.44" font-family="Times,serif" font-size="14.00">donor</text>
<text text-anchor="start" x="1176.59" y="-2229.44" font-family="Times,serif" font-size="14.00">136:136</text>
</g>
<!-- id_27755168_DOT_11&#45;&#45;id_27755168_DOT_15 -->
<g id="edge9" class="edge">
<title>id_27755168_DOT_11&#45;&#45;id_27755168_DOT_15</title>
<path fill="none" stroke="black" d="M1278.93,-1869.96C1262.6,-1947.65 1223.33,-2134.47 1206.93,-2212.48"/>
<text text-anchor="middle" x="1216.68" y="-2044.02" font-family="Times,serif" font-size="14.00">0.001815</text>
</g>
<!-- id_27755168_DOT_11&#45;&#45;id_27755168_DOT_19 -->
<g id="edge22" class="edge">
<title>id_27755168_DOT_11&#45;&#45;id_27755168_DOT_19</title>
<path fill="none" stroke="black" stroke-dasharray="1,5" d="M1301.88,-1800.69C1336.15,-1725.16 1417.56,-1545.72 1451.97,-1469.88"/>
<text text-anchor="middle" x="1350.68" y="-1638.09" font-family="Times,serif" font-size="14.00">0.742622</text>
</g>
<!-- id_27755168_DOT_20 -->
<g id="node20" class="node">
<title>id_27755168_DOT_20</title>
<polygon fill="darkkhaki" stroke="darkkhaki" points="903.95,-1789.01 908.32,-1789.2 912.66,-1789.49 916.92,-1789.88 921.11,-1790.35 925.2,-1790.92 929.18,-1791.59 933.03,-1792.34 936.74,-1793.17 940.29,-1794.1 943.67,-1795.1 946.87,-1796.19 949.87,-1797.35 952.68,-1798.58 955.27,-1799.89 957.65,-1801.26 959.8,-1802.69 961.73,-1804.19 963.42,-1805.73 964.88,-1807.33 966.11,-1808.98 967.1,-1810.66 967.86,-1812.38 968.39,-1814.14 968.7,-1815.92 968.78,-1817.73 968.65,-1819.55 968.3,-1821.38 967.75,-1823.23 967,-1825.07 966.07,-1826.91 964.96,-1828.75 963.68,-1830.57 962.23,-1832.38 960.64,-1834.16 958.9,-1835.92 957.03,-1837.64 955.04,-1839.32 952.94,-1840.97 950.73,-1842.57 948.43,-1844.11 946.04,-1845.61 943.58,-1847.04 941.05,-1848.41 938.45,-1849.72 935.81,-1850.95 933.11,-1852.11 930.37,-1853.2 927.6,-1854.2 924.8,-1855.13 921.97,-1855.96 919.11,-1856.71 916.24,-1857.38 913.36,-1857.95 910.46,-1858.42 907.55,-1858.81 904.64,-1859.1 901.72,-1859.29 898.8,-1859.38 895.87,-1859.38 892.95,-1859.29 890.03,-1859.1 887.12,-1858.81 884.21,-1858.42 881.31,-1857.95 878.43,-1857.38 875.56,-1856.71 872.7,-1855.96 869.87,-1855.13 867.07,-1854.2 864.3,-1853.2 861.56,-1852.11 858.86,-1850.95 856.22,-1849.72 853.62,-1848.41 851.09,-1847.04 848.63,-1845.61 846.24,-1844.11 843.94,-1842.57 841.73,-1840.97 839.63,-1839.32 837.64,-1837.64 835.77,-1835.92 834.03,-1834.16 832.44,-1832.38 830.99,-1830.57 829.71,-1828.75 828.6,-1826.91 827.66,-1825.07 826.92,-1823.23 826.37,-1821.38 826.02,-1819.55 825.89,-1817.73 825.97,-1815.92 826.28,-1814.14 826.81,-1812.38 827.57,-1810.66 828.56,-1808.98 829.79,-1807.33 831.25,-1805.73 832.94,-1804.19 834.87,-1802.69 837.02,-1801.26 839.4,-1799.89 841.99,-1798.58 844.8,-1797.35 847.8,-1796.19 851,-1795.1 854.38,-1794.1 857.93,-1793.17 861.64,-1792.34 865.49,-1791.59 869.46,-1790.92 873.56,-1790.35 877.75,-1789.88 882.01,-1789.49 886.35,-1789.2 890.72,-1789.01 895.13,-1788.91 899.54,-1788.91 903.95,-1789.01"/>
<text text-anchor="start" x="868.42" y="-1833.95" font-family="Times,serif" font-size="14.00">C0011306</text>
<text text-anchor="start" x="857.88" y="-1819.95" font-family="Times,serif" font-size="14.00">dendritic cells</text>
<text text-anchor="start" x="874.39" y="-1805.95" font-family="Times,serif" font-size="14.00">169:170</text>
</g>
<!-- id_27755168_DOT_11&#45;&#45;id_27755168_DOT_20 -->
<g id="edge23" class="edge">
<title>id_27755168_DOT_11&#45;&#45;id_27755168_DOT_20</title>
<path fill="none" stroke="black" stroke-dasharray="1,5" d="M1230.94,-1833.59C1161.42,-1831.62 1042.08,-1828.24 966.57,-1826.11"/>
<text text-anchor="middle" x="1072.5" y="-1832.65" font-family="Times,serif" font-size="14.00">0.657536</text>
</g>
<!-- id_27755168_DOT_12 -->
<g id="node12" class="node">
<title>id_27755168_DOT_12</title>
<polygon fill="coral" stroke="coral" points="1689.7,-457.39 1695.33,-457.58 1700.91,-457.87 1706.4,-458.25 1711.79,-458.73 1717.06,-459.3 1722.18,-459.96 1727.13,-460.71 1731.91,-461.55 1736.47,-462.47 1740.82,-463.48 1744.94,-464.56 1748.81,-465.73 1752.42,-466.96 1755.75,-468.26 1758.81,-469.64 1761.58,-471.07 1764.06,-472.56 1766.24,-474.11 1768.13,-475.71 1769.71,-477.35 1770.98,-479.04 1771.96,-480.76 1772.65,-482.52 1773.04,-484.3 1773.14,-486.1 1772.97,-487.93 1772.52,-489.76 1771.82,-491.6 1770.86,-493.45 1769.66,-495.29 1768.22,-497.13 1766.57,-498.95 1764.72,-500.76 1762.66,-502.54 1760.43,-504.29 1758.02,-506.02 1755.46,-507.7 1752.75,-509.35 1749.91,-510.94 1746.95,-512.49 1743.88,-513.98 1740.71,-515.42 1737.45,-516.79 1734.11,-518.1 1730.7,-519.33 1727.23,-520.49 1723.71,-521.58 1720.14,-522.58 1716.53,-523.5 1712.89,-524.34 1709.22,-525.09 1705.52,-525.75 1701.81,-526.32 1698.08,-526.8 1694.34,-527.18 1690.59,-527.47 1686.83,-527.67 1683.07,-527.76 1679.31,-527.76 1675.55,-527.67 1671.79,-527.47 1668.04,-527.18 1664.3,-526.8 1660.57,-526.32 1656.86,-525.75 1653.16,-525.09 1649.49,-524.34 1645.85,-523.5 1642.24,-522.58 1638.67,-521.58 1635.15,-520.49 1631.68,-519.33 1628.27,-518.1 1624.93,-516.79 1621.67,-515.42 1618.5,-513.98 1615.43,-512.49 1612.47,-510.94 1609.63,-509.35 1606.92,-507.7 1604.36,-506.02 1601.95,-504.29 1599.72,-502.54 1597.67,-500.76 1595.81,-498.95 1594.16,-497.13 1592.73,-495.29 1591.52,-493.45 1590.56,-491.6 1589.86,-489.76 1589.41,-487.93 1589.24,-486.1 1589.34,-484.3 1589.74,-482.52 1590.42,-480.76 1591.4,-479.04 1592.68,-477.35 1594.26,-475.71 1596.14,-474.11 1598.32,-472.56 1600.8,-471.07 1603.57,-469.64 1606.63,-468.26 1609.97,-466.96 1613.57,-465.73 1617.44,-464.56 1621.56,-463.48 1625.91,-462.47 1630.48,-461.55 1635.25,-460.71 1640.2,-459.96 1645.32,-459.3 1650.59,-458.73 1655.98,-458.25 1661.47,-457.87 1667.05,-457.58 1672.68,-457.39 1678.35,-457.29 1684.03,-457.29 1689.7,-457.39"/>
<text text-anchor="start" x="1652.02" y="-502.33" font-family="Times,serif" font-size="14.00">C1327458</text>
<text text-anchor="start" x="1628.12" y="-488.33" font-family="Times,serif" font-size="14.00">immune regulation</text>
<text text-anchor="start" x="1659.01" y="-474.33" font-family="Times,serif" font-size="14.00">111:112</text>
</g>
<!-- id_27755168_DOT_12&#45;&#45;id_27755168_DOT_16 -->
<g id="edge10" class="edge">
<title>id_27755168_DOT_12&#45;&#45;id_27755168_DOT_16</title>
<path fill="none" stroke="black" d="M1706.27,-525.71C1751.03,-584.93 1844.21,-708.21 1889.6,-768.26"/>
<text text-anchor="middle" x="1771.68" y="-649.79" font-family="Times,serif" font-size="14.00">0.002160</text>
</g>
<!-- id_27755168_DOT_14&#45;&#45;id_27755168_DOT_15 -->
<g id="edge24" class="edge">
<title>id_27755168_DOT_14&#45;&#45;id_27755168_DOT_15</title>
<path fill="none" stroke="black" stroke-dasharray="1,5" d="M1030.42,-2567.57C1066.49,-2499.33 1146.83,-2347.35 1182.22,-2280.39"/>
<text text-anchor="middle" x="1080.07" y="-2426.78" font-family="Times,serif" font-size="14.00">0.786910</text>
</g>
<!-- id_27755168_DOT_22 -->
<g id="node22" class="node">
<title>id_27755168_DOT_22</title>
<polygon fill="aquamarine" stroke="aquamarine" points="137.92,-487.92 145.67,-488.11 153.34,-488.4 160.89,-488.78 168.31,-489.26 175.55,-489.83 182.59,-490.49 189.4,-491.24 195.96,-492.08 202.24,-493.01 208.23,-494.01 213.89,-495.09 219.21,-496.26 224.17,-497.49 228.76,-498.8 232.96,-500.17 236.78,-501.6 240.18,-503.09 243.18,-504.64 245.77,-506.24 247.94,-507.88 249.7,-509.57 251.05,-511.29 251.99,-513.05 252.52,-514.83 252.67,-516.64 252.43,-518.46 251.82,-520.29 250.85,-522.14 249.53,-523.98 247.88,-525.82 245.91,-527.66 243.64,-529.48 241.08,-531.29 238.26,-533.07 235.18,-534.82 231.88,-536.55 228.35,-538.23 224.63,-539.88 220.73,-541.48 216.65,-543.02 212.43,-544.52 208.07,-545.95 203.59,-547.32 199,-548.63 194.31,-549.86 189.54,-551.02 184.7,-552.11 179.79,-553.11 174.82,-554.03 169.81,-554.87 164.77,-555.62 159.69,-556.28 154.58,-556.85 149.45,-557.33 144.3,-557.72 139.15,-558 133.98,-558.2 128.81,-558.29 123.64,-558.29 118.46,-558.2 113.3,-558 108.14,-557.72 103,-557.33 97.87,-556.85 92.76,-556.28 87.68,-555.62 82.63,-554.87 77.62,-554.03 72.66,-553.11 67.75,-552.11 62.91,-551.02 58.13,-549.86 53.45,-548.63 48.86,-547.32 44.38,-545.95 40.02,-544.52 35.79,-543.02 31.72,-541.48 27.81,-539.88 24.09,-538.23 20.57,-536.55 17.26,-534.82 14.19,-533.07 11.36,-531.29 8.81,-529.48 6.54,-527.66 4.57,-525.82 2.92,-523.98 1.6,-522.14 0.63,-520.29 0.02,-518.46 -0.22,-516.64 -0.08,-514.83 0.46,-513.05 1.4,-511.29 2.74,-509.57 4.5,-507.88 6.67,-506.24 9.26,-504.64 12.26,-503.09 15.67,-501.6 19.48,-500.17 23.69,-498.8 28.28,-497.49 33.24,-496.26 38.56,-495.09 44.22,-494.01 50.2,-493.01 56.48,-492.08 63.04,-491.24 69.86,-490.49 76.9,-489.83 84.14,-489.26 91.55,-488.78 99.11,-488.4 106.77,-488.11 114.52,-487.92 122.32,-487.82 130.13,-487.82 137.92,-487.92"/>
<text text-anchor="start" x="97.05" y="-532.86" font-family="Times,serif" font-size="14.00">C3178844</text>
<text text-anchor="start" x="50.41" y="-518.86" font-family="Times,serif" font-size="14.00">mesenchymal stromal cells</text>
<text text-anchor="start" x="103.28" y="-504.86" font-family="Times,serif" font-size="14.00">189:191</text>
</g>
<!-- id_27755168_DOT_17&#45;&#45;id_27755168_DOT_22 -->
<g id="edge11" class="edge">
<title>id_27755168_DOT_17&#45;&#45;id_27755168_DOT_22</title>
<path fill="none" stroke="black" d="M389.21,-703.86C329.8,-663.01 230.12,-594.49 172.05,-554.56"/>
<text text-anchor="middle" x="254.38" y="-632.01" font-family="Times,serif" font-size="14.00">0.001381</text>
</g>
</g>
</svg>
