<?xml version="1.0" encoding="UTF-8" standalone="no"?>
<!DOCTYPE svg PUBLIC "-//W3C//DTD SVG 1.1//EN"
 "http://www.w3.org/Graphics/SVG/1.1/DTD/svg11.dtd">
<!-- Generated by graphviz version 2.42.3 (20191010.1750)
 -->
<!-- Title: MST Pages: 1 -->
<svg width="5049pt" height="4176pt"
 viewBox="0.00 0.00 5048.94 4175.74" xmlns="http://www.w3.org/2000/svg" xmlns:xlink="http://www.w3.org/1999/xlink">
<g id="graph0" class="graph" transform="scale(1 1) rotate(0) translate(4 4171.74)">
<title>MST</title>
<polygon fill="white" stroke="transparent" points="-4,4 -4,-4171.74 5044.94,-4171.74 5044.94,4 -4,4"/>
<!-- id_27765805_DOT_1 -->
<g id="node1" class="node">
<title>id_27765805_DOT_1</title>
<polygon fill="aquamarine" stroke="aquamarine" points="707.3,-3316.09 710.73,-3316.28 714.12,-3316.57 717.46,-3316.96 720.75,-3317.43 723.95,-3318 727.07,-3318.67 730.08,-3319.42 732.98,-3320.25 735.76,-3321.18 738.41,-3322.18 740.92,-3323.27 743.27,-3324.43 745.47,-3325.66 747.5,-3326.97 749.36,-3328.34 751.05,-3329.77 752.55,-3331.27 753.88,-3332.81 755.03,-3334.41 755.99,-3336.06 756.77,-3337.74 757.36,-3339.46 757.78,-3341.22 758.01,-3343 758.08,-3344.81 757.97,-3346.63 757.7,-3348.47 757.27,-3350.31 756.69,-3352.15 755.96,-3354 755.09,-3355.83 754.08,-3357.65 752.95,-3359.46 751.7,-3361.24 750.34,-3363 748.88,-3364.72 747.32,-3366.4 745.67,-3368.05 743.94,-3369.65 742.14,-3371.19 740.27,-3372.69 738.34,-3374.12 736.36,-3375.49 734.33,-3376.8 732.25,-3378.03 730.14,-3379.19 728,-3380.28 725.83,-3381.28 723.63,-3382.21 721.41,-3383.04 719.18,-3383.79 716.93,-3384.46 714.67,-3385.03 712.4,-3385.5 710.12,-3385.89 707.84,-3386.18 705.56,-3386.37 703.27,-3386.47 700.98,-3386.47 698.69,-3386.37 696.4,-3386.18 694.12,-3385.89 691.84,-3385.5 689.57,-3385.03 687.31,-3384.46 685.07,-3383.79 682.83,-3383.04 680.61,-3382.21 678.42,-3381.28 676.25,-3380.28 674.1,-3379.19 671.99,-3378.03 669.92,-3376.8 667.89,-3375.49 665.9,-3374.12 663.97,-3372.69 662.1,-3371.19 660.3,-3369.65 658.57,-3368.05 656.93,-3366.4 655.37,-3364.72 653.9,-3363 652.54,-3361.24 651.29,-3359.46 650.16,-3357.65 649.16,-3355.83 648.29,-3354 647.56,-3352.15 646.97,-3350.31 646.54,-3348.47 646.27,-3346.63 646.17,-3344.81 646.23,-3343 646.47,-3341.22 646.88,-3339.46 647.48,-3337.74 648.26,-3336.06 649.22,-3334.41 650.36,-3332.81 651.69,-3331.27 653.2,-3329.77 654.89,-3328.34 656.75,-3326.97 658.78,-3325.66 660.97,-3324.43 663.33,-3323.27 665.83,-3322.18 668.48,-3321.18 671.26,-3320.25 674.16,-3319.42 677.18,-3318.67 680.29,-3318 683.5,-3317.43 686.78,-3316.96 690.12,-3316.57 693.52,-3316.28 696.94,-3316.09 700.39,-3316 703.85,-3316 707.3,-3316.09"/>
<text text-anchor="start" x="672.95" y="-3361.03" font-family="Times,serif" font-size="14.00">C0009274</text>
<text text-anchor="start" x="672.97" y="-3347.03" font-family="Times,serif" font-size="14.00">colectomy</text>
<text text-anchor="start" x="693.18" y="-3333.03" font-family="Times,serif" font-size="14.00">1:1</text>
</g>
<!-- id_27765805_DOT_12 -->
<g id="node12" class="node">
<title>id_27765805_DOT_12</title>
<polygon fill="darkgoldenrod" stroke="darkgoldenrod" points="381.03,-3509.39 384.45,-3509.59 387.85,-3509.88 391.19,-3510.26 394.47,-3510.74 397.68,-3511.31 400.79,-3511.97 403.81,-3512.72 406.71,-3513.56 409.49,-3514.48 412.14,-3515.48 414.64,-3516.57 417,-3517.73 419.19,-3518.96 421.22,-3520.27 423.08,-3521.64 424.77,-3523.08 426.28,-3524.57 427.61,-3526.12 428.75,-3527.71 429.71,-3529.36 430.49,-3531.04 431.09,-3532.77 431.5,-3534.52 431.74,-3536.3 431.8,-3538.11 431.7,-3539.93 431.43,-3541.77 431,-3543.61 430.41,-3545.46 429.68,-3547.3 428.81,-3549.13 427.81,-3550.96 426.68,-3552.76 425.43,-3554.54 424.07,-3556.3 422.6,-3558.02 421.04,-3559.71 419.4,-3561.35 417.67,-3562.95 415.87,-3564.5 414,-3565.99 412.07,-3567.42 410.08,-3568.8 408.05,-3570.1 405.98,-3571.33 403.87,-3572.5 401.72,-3573.58 399.55,-3574.59 397.36,-3575.51 395.14,-3576.35 392.9,-3577.1 390.66,-3577.76 388.4,-3578.33 386.13,-3578.81 383.85,-3579.19 381.57,-3579.48 379.28,-3579.67 376.99,-3579.77 374.7,-3579.77 372.41,-3579.67 370.13,-3579.48 367.85,-3579.19 365.57,-3578.81 363.3,-3578.33 361.04,-3577.76 358.79,-3577.1 356.56,-3576.35 354.34,-3575.51 352.14,-3574.59 349.97,-3573.58 347.83,-3572.5 345.72,-3571.33 343.64,-3570.1 341.61,-3568.8 339.63,-3567.42 337.7,-3565.99 335.83,-3564.5 334.03,-3562.95 332.3,-3561.35 330.65,-3559.71 329.09,-3558.02 327.63,-3556.3 326.27,-3554.54 325.02,-3552.76 323.89,-3550.96 322.88,-3549.13 322.01,-3547.3 321.28,-3545.46 320.7,-3543.61 320.27,-3541.77 320,-3539.93 319.89,-3538.11 319.96,-3536.3 320.19,-3534.52 320.61,-3532.77 321.2,-3531.04 321.98,-3529.36 322.94,-3527.71 324.09,-3526.12 325.42,-3524.57 326.92,-3523.08 328.61,-3521.64 330.47,-3520.27 332.5,-3518.96 334.7,-3517.73 337.05,-3516.57 339.56,-3515.48 342.21,-3514.48 344.99,-3513.56 347.89,-3512.72 350.9,-3511.97 354.02,-3511.31 357.22,-3510.74 360.5,-3510.26 363.85,-3509.88 367.24,-3509.59 370.67,-3509.39 374.12,-3509.3 377.58,-3509.3 381.03,-3509.39"/>
<text text-anchor="start" x="346.68" y="-3554.33" font-family="Times,serif" font-size="14.00">C0027540</text>
<text text-anchor="start" x="352.91" y="-3540.33" font-family="Times,serif" font-size="14.00">necrosis</text>
<text text-anchor="start" x="359.9" y="-3526.33" font-family="Times,serif" font-size="14.00">39:39</text>
</g>
<!-- id_27765805_DOT_1&#45;&#45;id_27765805_DOT_12 -->
<g id="edge14" class="edge">
<title>id_27765805_DOT_1&#45;&#45;id_27765805_DOT_12</title>
<path fill="none" stroke="black" stroke-dasharray="1,5" d="M664.69,-3373.4C603.85,-3409.45 483.81,-3480.57 419.29,-3518.79"/>
<text text-anchor="middle" x="515.74" y="-3448.9" font-family="Times,serif" font-size="14.00">0.847941</text>
</g>
<!-- id_27765805_DOT_24 -->
<g id="node24" class="node">
<title>id_27765805_DOT_24</title>
<polygon fill="aquamarine" stroke="aquamarine" points="1022.18,-3083.04 1025.61,-3083.23 1029,-3083.52 1032.34,-3083.9 1035.62,-3084.38 1038.83,-3084.95 1041.94,-3085.61 1044.96,-3086.36 1047.86,-3087.2 1050.64,-3088.12 1053.29,-3089.13 1055.79,-3090.21 1058.15,-3091.37 1060.34,-3092.61 1062.37,-3093.91 1064.24,-3095.29 1065.92,-3096.72 1067.43,-3098.21 1068.76,-3099.76 1069.9,-3101.36 1070.86,-3103 1071.64,-3104.69 1072.24,-3106.41 1072.65,-3108.17 1072.89,-3109.95 1072.96,-3111.75 1072.85,-3113.58 1072.58,-3115.41 1072.15,-3117.25 1071.56,-3119.1 1070.83,-3120.94 1069.96,-3122.78 1068.96,-3124.6 1067.83,-3126.41 1066.58,-3128.19 1065.22,-3129.94 1063.75,-3131.67 1062.2,-3133.35 1060.55,-3135 1058.82,-3136.59 1057.02,-3138.14 1055.15,-3139.63 1053.22,-3141.07 1051.24,-3142.44 1049.2,-3143.74 1047.13,-3144.98 1045.02,-3146.14 1042.87,-3147.23 1040.7,-3148.23 1038.51,-3149.15 1036.29,-3149.99 1034.06,-3150.74 1031.81,-3151.4 1029.55,-3151.97 1027.28,-3152.45 1025,-3152.83 1022.72,-3153.12 1020.43,-3153.32 1018.14,-3153.41 1015.85,-3153.41 1013.57,-3153.32 1011.28,-3153.12 1009,-3152.83 1006.72,-3152.45 1004.45,-3151.97 1002.19,-3151.4 999.94,-3150.74 997.71,-3149.99 995.49,-3149.15 993.29,-3148.23 991.12,-3147.23 988.98,-3146.14 986.87,-3144.98 984.79,-3143.74 982.76,-3142.44 980.78,-3141.07 978.85,-3139.63 976.98,-3138.14 975.18,-3136.59 973.45,-3135 971.8,-3133.35 970.24,-3131.67 968.78,-3129.94 967.42,-3128.19 966.17,-3126.41 965.04,-3124.6 964.03,-3122.78 963.16,-3120.94 962.43,-3119.1 961.85,-3117.25 961.42,-3115.41 961.15,-3113.58 961.04,-3111.75 961.11,-3109.95 961.34,-3108.17 961.76,-3106.41 962.36,-3104.69 963.13,-3103 964.09,-3101.36 965.24,-3099.76 966.57,-3098.21 968.08,-3096.72 969.76,-3095.29 971.62,-3093.91 973.65,-3092.61 975.85,-3091.37 978.21,-3090.21 980.71,-3089.13 983.36,-3088.12 986.14,-3087.2 989.04,-3086.36 992.05,-3085.61 995.17,-3084.95 998.38,-3084.38 1001.66,-3083.9 1005,-3083.52 1008.39,-3083.23 1011.82,-3083.04 1015.27,-3082.94 1018.73,-3082.94 1022.18,-3083.04"/>
<text text-anchor="start" x="987.83" y="-3127.98" font-family="Times,serif" font-size="14.00">C0009274</text>
<text text-anchor="start" x="987.84" y="-3113.98" font-family="Times,serif" font-size="14.00">colectomy</text>
<text text-anchor="start" x="1001.05" y="-3099.98" font-family="Times,serif" font-size="14.00">91:91</text>
</g>
<!-- id_27765805_DOT_1&#45;&#45;id_27765805_DOT_24 -->
<g id="edge1" class="edge">
<title>id_27765805_DOT_1&#45;&#45;id_27765805_DOT_24</title>
<path fill="none" stroke="black" d="M740.42,-3322.89C802.53,-3276.91 924.24,-3186.83 983.28,-3143.13"/>
<text text-anchor="middle" x="835.6" y="-3235.81" font-family="Times,serif" font-size="14.00">0.009573</text>
</g>
<!-- id_27765805_DOT_2 -->
<g id="node2" class="node">
<title>id_27765805_DOT_2</title>
<polygon fill="bisque" stroke="bisque" points="3916.87,-4097.24 3922.07,-4097.43 3927.22,-4097.72 3932.29,-4098.1 3937.26,-4098.58 3942.13,-4099.15 3946.85,-4099.81 3951.43,-4100.56 3955.83,-4101.4 3960.05,-4102.32 3964.06,-4103.33 3967.86,-4104.41 3971.43,-4105.57 3974.76,-4106.81 3977.84,-4108.11 3980.67,-4109.49 3983.23,-4110.92 3985.51,-4112.41 3987.53,-4113.96 3989.26,-4115.56 3990.72,-4117.2 3991.9,-4118.89 3992.8,-4120.61 3993.44,-4122.37 3993.8,-4124.15 3993.89,-4125.95 3993.73,-4127.78 3993.32,-4129.61 3992.67,-4131.45 3991.78,-4133.3 3990.68,-4135.14 3989.35,-4136.98 3987.83,-4138.8 3986.12,-4140.61 3984.22,-4142.39 3982.16,-4144.14 3979.94,-4145.87 3977.57,-4147.55 3975.07,-4149.2 3972.45,-4150.79 3969.72,-4152.34 3966.88,-4153.83 3963.96,-4155.27 3960.95,-4156.64 3957.87,-4157.94 3954.72,-4159.18 3951.52,-4160.34 3948.27,-4161.43 3944.97,-4162.43 3941.64,-4163.35 3938.28,-4164.19 3934.89,-4164.94 3931.48,-4165.6 3928.05,-4166.17 3924.61,-4166.65 3921.15,-4167.03 3917.69,-4167.32 3914.22,-4167.52 3910.75,-4167.61 3907.28,-4167.61 3903.81,-4167.52 3900.34,-4167.32 3896.88,-4167.03 3893.42,-4166.65 3889.98,-4166.17 3886.55,-4165.6 3883.14,-4164.94 3879.75,-4164.19 3876.39,-4163.35 3873.06,-4162.43 3869.77,-4161.43 3866.51,-4160.34 3863.31,-4159.18 3860.17,-4157.94 3857.08,-4156.64 3854.08,-4155.27 3851.15,-4153.83 3848.31,-4152.34 3845.58,-4150.79 3842.96,-4149.2 3840.46,-4147.55 3838.09,-4145.87 3835.87,-4144.14 3833.81,-4142.39 3831.92,-4140.61 3830.2,-4138.8 3828.68,-4136.98 3827.36,-4135.14 3826.25,-4133.3 3825.36,-4131.45 3824.71,-4129.61 3824.3,-4127.78 3824.14,-4125.95 3824.24,-4124.15 3824.6,-4122.37 3825.23,-4120.61 3826.13,-4118.89 3827.31,-4117.2 3828.77,-4115.56 3830.5,-4113.96 3832.52,-4112.41 3834.81,-4110.92 3837.36,-4109.49 3840.19,-4108.11 3843.27,-4106.81 3846.6,-4105.57 3850.17,-4104.41 3853.97,-4103.33 3857.99,-4102.32 3862.2,-4101.4 3866.61,-4100.56 3871.18,-4099.81 3875.91,-4099.15 3880.77,-4098.58 3885.74,-4098.1 3890.81,-4097.72 3895.96,-4097.43 3901.16,-4097.24 3906.39,-4097.14 3911.64,-4097.14 3916.87,-4097.24"/>
<text text-anchor="start" x="3879.85" y="-4142.18" font-family="Times,serif" font-size="14.00">C0347646</text>
<text text-anchor="start" x="3860.62" y="-4128.18" font-family="Times,serif" font-size="14.00">colon perforation</text>
<text text-anchor="start" x="3900.07" y="-4114.18" font-family="Times,serif" font-size="14.00">3:4</text>
</g>
<!-- id_27765805_DOT_16 -->
<g id="node16" class="node">
<title>id_27765805_DOT_16</title>
<polygon fill="blueviolet" stroke="blueviolet" points="3693.72,-3781.14 3698.19,-3781.33 3702.61,-3781.62 3706.96,-3782 3711.24,-3782.48 3715.41,-3783.05 3719.47,-3783.71 3723.4,-3784.46 3727.18,-3785.3 3730.8,-3786.22 3734.25,-3787.23 3737.51,-3788.31 3740.58,-3789.47 3743.44,-3790.71 3746.09,-3792.01 3748.51,-3793.39 3750.71,-3794.82 3752.68,-3796.31 3754.41,-3797.86 3755.9,-3799.46 3757.15,-3801.1 3758.16,-3802.79 3758.94,-3804.51 3759.48,-3806.27 3759.79,-3808.05 3759.87,-3809.85 3759.74,-3811.68 3759.38,-3813.51 3758.82,-3815.35 3758.06,-3817.2 3757.11,-3819.04 3755.98,-3820.88 3754.67,-3822.7 3753.19,-3824.51 3751.57,-3826.29 3749.79,-3828.04 3747.89,-3829.77 3745.86,-3831.45 3743.71,-3833.1 3741.46,-3834.69 3739.11,-3836.24 3736.68,-3837.73 3734.16,-3839.17 3731.58,-3840.54 3728.93,-3841.84 3726.23,-3843.08 3723.48,-3844.24 3720.69,-3845.33 3717.86,-3846.33 3714.99,-3847.25 3712.11,-3848.09 3709.2,-3848.84 3706.27,-3849.5 3703.32,-3850.07 3700.37,-3850.55 3697.4,-3850.93 3694.43,-3851.22 3691.45,-3851.42 3688.47,-3851.51 3685.48,-3851.51 3682.5,-3851.42 3679.52,-3851.22 3676.55,-3850.93 3673.58,-3850.55 3670.63,-3850.07 3667.68,-3849.5 3664.75,-3848.84 3661.84,-3848.09 3658.95,-3847.25 3656.09,-3846.33 3653.26,-3845.33 3650.47,-3844.24 3647.72,-3843.08 3645.02,-3841.84 3642.37,-3840.54 3639.79,-3839.17 3637.27,-3837.73 3634.84,-3836.24 3632.49,-3834.69 3630.24,-3833.1 3628.09,-3831.45 3626.06,-3829.77 3624.15,-3828.04 3622.38,-3826.29 3620.75,-3824.51 3619.28,-3822.7 3617.97,-3820.88 3616.84,-3819.04 3615.89,-3817.2 3615.13,-3815.35 3614.56,-3813.51 3614.21,-3811.68 3614.07,-3809.85 3614.16,-3808.05 3614.47,-3806.27 3615.01,-3804.51 3615.79,-3802.79 3616.8,-3801.1 3618.05,-3799.46 3619.54,-3797.86 3621.27,-3796.31 3623.24,-3794.82 3625.43,-3793.39 3627.86,-3792.01 3630.51,-3790.71 3633.37,-3789.47 3636.43,-3788.31 3639.7,-3787.23 3643.15,-3786.22 3646.77,-3785.3 3650.55,-3784.46 3654.48,-3783.71 3658.54,-3783.05 3662.71,-3782.48 3666.99,-3782 3671.34,-3781.62 3675.76,-3781.33 3680.23,-3781.14 3684.72,-3781.04 3689.23,-3781.04 3693.72,-3781.14"/>
<text text-anchor="start" x="3657.81" y="-3826.08" font-family="Times,serif" font-size="14.00">C1533734</text>
<text text-anchor="start" x="3646.54" y="-3812.08" font-family="Times,serif" font-size="14.00">administration</text>
<text text-anchor="start" x="3671.03" y="-3798.08" font-family="Times,serif" font-size="14.00">55:55</text>
</g>
<!-- id_27765805_DOT_2&#45;&#45;id_27765805_DOT_16 -->
<g id="edge15" class="edge">
<title>id_27765805_DOT_2&#45;&#45;id_27765805_DOT_16</title>
<path fill="none" stroke="black" stroke-dasharray="1,5" d="M3884.83,-4097.95C3841.67,-4036.5 3751.96,-3908.79 3709.8,-3848.77"/>
<text text-anchor="middle" x="3771.06" y="-3976.16" font-family="Times,serif" font-size="14.00">0.706179</text>
</g>
<!-- id_27765805_DOT_3 -->
<g id="node3" class="node">
<title>id_27765805_DOT_3</title>
<polygon fill="blue" stroke="blue" points="1391.8,-0.23 1395.31,-0.42 1398.78,-0.71 1402.2,-1.09 1405.55,-1.57 1408.83,-2.14 1412.02,-2.8 1415.1,-3.55 1418.07,-4.39 1420.91,-5.31 1423.62,-6.32 1426.18,-7.4 1428.59,-8.57 1430.84,-9.8 1432.91,-11.1 1434.82,-12.48 1436.54,-13.91 1438.09,-15.4 1439.44,-16.95 1440.61,-18.55 1441.6,-20.19 1442.39,-21.88 1443,-23.6 1443.43,-25.36 1443.67,-27.14 1443.74,-28.94 1443.63,-30.77 1443.35,-32.6 1442.91,-34.44 1442.31,-36.29 1441.57,-38.13 1440.68,-39.97 1439.65,-41.79 1438.49,-43.6 1437.21,-45.38 1435.82,-47.13 1434.33,-48.86 1432.73,-50.54 1431.05,-52.19 1429.28,-53.78 1427.44,-55.33 1425.52,-56.82 1423.55,-58.26 1421.52,-59.63 1419.44,-60.94 1417.32,-62.17 1415.16,-63.33 1412.97,-64.42 1410.75,-65.42 1408.5,-66.34 1406.24,-67.18 1403.95,-67.93 1401.65,-68.59 1399.34,-69.16 1397.02,-69.64 1394.69,-70.02 1392.35,-70.31 1390.02,-70.51 1387.68,-70.6 1385.33,-70.6 1382.99,-70.51 1380.65,-70.31 1378.32,-70.02 1375.99,-69.64 1373.67,-69.16 1371.36,-68.59 1369.06,-67.93 1366.77,-67.18 1364.51,-66.34 1362.26,-65.42 1360.04,-64.42 1357.85,-63.33 1355.69,-62.17 1353.56,-60.94 1351.49,-59.63 1349.46,-58.26 1347.49,-56.82 1345.57,-55.33 1343.73,-53.78 1341.96,-52.19 1340.28,-50.54 1338.68,-48.86 1337.19,-47.13 1335.79,-45.38 1334.52,-43.6 1333.36,-41.79 1332.33,-39.97 1331.44,-38.13 1330.69,-36.29 1330.1,-34.44 1329.66,-32.6 1329.38,-30.77 1329.27,-28.94 1329.34,-27.14 1329.58,-25.36 1330.01,-23.6 1330.62,-21.88 1331.41,-20.19 1332.39,-18.55 1333.57,-16.95 1334.92,-15.4 1336.47,-13.91 1338.19,-12.48 1340.09,-11.1 1342.17,-9.8 1344.42,-8.57 1346.83,-7.4 1349.39,-6.32 1352.1,-5.31 1354.94,-4.39 1357.91,-3.55 1360.99,-2.8 1364.18,-2.14 1367.46,-1.57 1370.81,-1.09 1374.23,-0.71 1377.7,-0.42 1381.21,-0.23 1384.74,-0.13 1388.27,-0.13 1391.8,-0.23"/>
<text text-anchor="start" x="1357.34" y="-45.17" font-family="Times,serif" font-size="14.00">C0124498</text>
<text text-anchor="start" x="1356.58" y="-31.17" font-family="Times,serif" font-size="14.00">kayexalate</text>
<text text-anchor="start" x="1377.56" y="-17.17" font-family="Times,serif" font-size="14.00">6:6</text>
</g>
<!-- id_27765805_DOT_14 -->
<g id="node14" class="node">
<title>id_27765805_DOT_14</title>
<polygon fill="blue" stroke="blue" points="1243.26,-370.45 1246.76,-370.64 1250.23,-370.93 1253.65,-371.31 1257.01,-371.79 1260.29,-372.36 1263.47,-373.02 1266.56,-373.77 1269.53,-374.61 1272.37,-375.53 1275.08,-376.54 1277.64,-377.62 1280.05,-378.79 1282.29,-380.02 1284.37,-381.33 1286.28,-382.7 1288,-384.13 1289.54,-385.62 1290.9,-387.17 1292.07,-388.77 1293.05,-390.41 1293.85,-392.1 1294.46,-393.82 1294.88,-395.58 1295.13,-397.36 1295.19,-399.16 1295.09,-400.99 1294.81,-402.82 1294.37,-404.67 1293.77,-406.51 1293.02,-408.35 1292.13,-410.19 1291.11,-412.01 1289.95,-413.82 1288.67,-415.6 1287.28,-417.35 1285.78,-419.08 1284.19,-420.76 1282.5,-422.41 1280.74,-424 1278.89,-425.55 1276.98,-427.05 1275.01,-428.48 1272.98,-429.85 1270.9,-431.16 1268.78,-432.39 1266.62,-433.55 1264.43,-434.64 1262.21,-435.64 1259.96,-436.56 1257.69,-437.4 1255.41,-438.15 1253.11,-438.81 1250.8,-439.38 1248.48,-439.86 1246.15,-440.25 1243.81,-440.53 1241.47,-440.73 1239.13,-440.82 1236.79,-440.82 1234.45,-440.73 1232.11,-440.53 1229.78,-440.25 1227.45,-439.86 1225.13,-439.38 1222.82,-438.81 1220.52,-438.15 1218.23,-437.4 1215.96,-436.56 1213.72,-435.64 1211.5,-434.64 1209.3,-433.55 1207.14,-432.39 1205.02,-431.16 1202.94,-429.85 1200.92,-428.48 1198.94,-427.05 1197.03,-425.55 1195.19,-424 1193.42,-422.41 1191.73,-420.76 1190.14,-419.08 1188.64,-417.35 1187.25,-415.6 1185.97,-413.82 1184.82,-412.01 1183.79,-410.19 1182.9,-408.35 1182.15,-406.51 1181.56,-404.67 1181.12,-402.82 1180.84,-400.99 1180.73,-399.16 1180.8,-397.36 1181.04,-395.58 1181.46,-393.82 1182.07,-392.1 1182.87,-390.41 1183.85,-388.77 1185.02,-387.17 1186.38,-385.62 1187.92,-384.13 1189.65,-382.7 1191.55,-381.33 1193.63,-380.02 1195.88,-378.79 1198.28,-377.62 1200.85,-376.54 1203.55,-375.53 1206.4,-374.61 1209.37,-373.77 1212.45,-373.02 1215.64,-372.36 1218.91,-371.79 1222.27,-371.31 1225.69,-370.93 1229.16,-370.64 1232.67,-370.45 1236.19,-370.35 1239.73,-370.35 1243.26,-370.45"/>
<text text-anchor="start" x="1208.79" y="-415.39" font-family="Times,serif" font-size="14.00">C0124498</text>
<text text-anchor="start" x="1208.04" y="-401.39" font-family="Times,serif" font-size="14.00">kayexalate</text>
<text text-anchor="start" x="1222.02" y="-387.39" font-family="Times,serif" font-size="14.00">48:48</text>
</g>
<!-- id_27765805_DOT_3&#45;&#45;id_27765805_DOT_14 -->
<g id="edge2" class="edge">
<title>id_27765805_DOT_3&#45;&#45;id_27765805_DOT_14</title>
<path fill="none" stroke="black" d="M1372.93,-69.2C1344.78,-139.35 1280.33,-300 1251.88,-370.89"/>
<text text-anchor="middle" x="1286.41" y="-222.85" font-family="Times,serif" font-size="14.00">0.001144</text>
</g>
<!-- id_27765805_DOT_4 -->
<g id="node4" class="node">
<title>id_27765805_DOT_4</title>
<polygon fill="blueviolet" stroke="blueviolet" points="3174.75,-3830.06 3179.21,-3830.26 3183.63,-3830.54 3187.99,-3830.93 3192.26,-3831.41 3196.44,-3831.98 3200.5,-3832.64 3204.43,-3833.39 3208.21,-3834.23 3211.83,-3835.15 3215.28,-3836.15 3218.54,-3837.24 3221.61,-3838.4 3224.47,-3839.63 3227.12,-3840.94 3229.54,-3842.31 3231.74,-3843.74 3233.7,-3845.24 3235.43,-3846.78 3236.92,-3848.38 3238.18,-3850.03 3239.19,-3851.71 3239.96,-3853.44 3240.51,-3855.19 3240.82,-3856.97 3240.9,-3858.78 3240.76,-3860.6 3240.41,-3862.44 3239.85,-3864.28 3239.09,-3866.12 3238.14,-3867.97 3237,-3869.8 3235.69,-3871.62 3234.22,-3873.43 3232.59,-3875.21 3230.82,-3876.97 3228.91,-3878.69 3226.88,-3880.38 3224.74,-3882.02 3222.48,-3883.62 3220.14,-3885.17 3217.7,-3886.66 3215.19,-3888.09 3212.6,-3889.46 3209.96,-3890.77 3207.25,-3892 3204.5,-3893.16 3201.71,-3894.25 3198.88,-3895.25 3196.02,-3896.18 3193.13,-3897.02 3190.22,-3897.77 3187.29,-3898.43 3184.35,-3899 3181.39,-3899.47 3178.42,-3899.86 3175.45,-3900.15 3172.47,-3900.34 3169.49,-3900.44 3166.51,-3900.44 3163.53,-3900.34 3160.55,-3900.15 3157.58,-3899.86 3154.61,-3899.47 3151.65,-3899 3148.71,-3898.43 3145.78,-3897.77 3142.87,-3897.02 3139.98,-3896.18 3137.12,-3895.25 3134.29,-3894.25 3131.5,-3893.16 3128.74,-3892 3126.04,-3890.77 3123.4,-3889.46 3120.81,-3888.09 3118.3,-3886.66 3115.86,-3885.17 3113.52,-3883.62 3111.26,-3882.02 3109.12,-3880.38 3107.09,-3878.69 3105.18,-3876.97 3103.41,-3875.21 3101.78,-3873.43 3100.31,-3871.62 3099,-3869.8 3097.86,-3867.97 3096.91,-3866.12 3096.15,-3864.28 3095.59,-3862.44 3095.24,-3860.6 3095.1,-3858.78 3095.18,-3856.97 3095.49,-3855.19 3096.03,-3853.44 3096.81,-3851.71 3097.82,-3850.03 3099.08,-3848.38 3100.57,-3846.78 3102.3,-3845.24 3104.26,-3843.74 3106.46,-3842.31 3108.88,-3840.94 3111.53,-3839.63 3114.39,-3838.4 3117.46,-3837.24 3120.72,-3836.15 3124.17,-3835.15 3127.79,-3834.23 3131.57,-3833.39 3135.5,-3832.64 3139.56,-3831.98 3143.74,-3831.41 3148.01,-3830.93 3152.37,-3830.54 3156.79,-3830.26 3161.25,-3830.06 3165.75,-3829.97 3170.25,-3829.97 3174.75,-3830.06"/>
<text text-anchor="start" x="3138.83" y="-3875" font-family="Times,serif" font-size="14.00">C1533734</text>
<text text-anchor="start" x="3127.56" y="-3861" font-family="Times,serif" font-size="14.00">administration</text>
<text text-anchor="start" x="3159.06" y="-3847" font-family="Times,serif" font-size="14.00">7:7</text>
</g>
<!-- id_27765805_DOT_15 -->
<g id="node15" class="node">
<title>id_27765805_DOT_15</title>
<polygon fill="blueviolet" stroke="blueviolet" points="3384.49,-3498.48 3388.96,-3498.68 3393.38,-3498.97 3397.74,-3499.35 3402.01,-3499.83 3406.19,-3500.4 3410.24,-3501.06 3414.17,-3501.81 3417.96,-3502.65 3421.58,-3503.57 3425.03,-3504.57 3428.29,-3505.66 3431.36,-3506.82 3434.22,-3508.06 3436.86,-3509.36 3439.29,-3510.73 3441.49,-3512.17 3443.45,-3513.66 3445.18,-3515.21 3446.67,-3516.8 3447.92,-3518.45 3448.94,-3520.13 3449.71,-3521.86 3450.25,-3523.61 3450.56,-3525.39 3450.65,-3527.2 3450.51,-3529.02 3450.16,-3530.86 3449.6,-3532.7 3448.84,-3534.55 3447.88,-3536.39 3446.75,-3538.22 3445.44,-3540.05 3443.97,-3541.85 3442.34,-3543.63 3440.57,-3545.39 3438.66,-3547.11 3436.63,-3548.8 3434.48,-3550.44 3432.23,-3552.04 3429.88,-3553.59 3427.45,-3555.08 3424.94,-3556.51 3422.35,-3557.89 3419.7,-3559.19 3417,-3560.43 3414.25,-3561.59 3411.46,-3562.67 3408.63,-3563.68 3405.77,-3564.6 3402.88,-3565.44 3399.97,-3566.19 3397.04,-3566.85 3394.1,-3567.42 3391.14,-3567.9 3388.17,-3568.28 3385.2,-3568.57 3382.22,-3568.76 3379.24,-3568.86 3376.26,-3568.86 3373.28,-3568.76 3370.3,-3568.57 3367.32,-3568.28 3364.36,-3567.9 3361.4,-3567.42 3358.46,-3566.85 3355.53,-3566.19 3352.62,-3565.44 3349.73,-3564.6 3346.87,-3563.68 3344.04,-3562.67 3341.24,-3561.59 3338.49,-3560.43 3335.79,-3559.19 3333.14,-3557.89 3330.56,-3556.51 3328.05,-3555.08 3325.61,-3553.59 3323.26,-3552.04 3321.01,-3550.44 3318.87,-3548.8 3316.83,-3547.11 3314.93,-3545.39 3313.16,-3543.63 3311.53,-3541.85 3310.06,-3540.05 3308.75,-3538.22 3307.61,-3536.39 3306.66,-3534.55 3305.9,-3532.7 3305.34,-3530.86 3304.99,-3529.02 3304.85,-3527.2 3304.93,-3525.39 3305.24,-3523.61 3305.78,-3521.86 3306.56,-3520.13 3307.57,-3518.45 3308.82,-3516.8 3310.32,-3515.21 3312.05,-3513.66 3314.01,-3512.17 3316.21,-3510.73 3318.63,-3509.36 3321.28,-3508.06 3324.14,-3506.82 3327.21,-3505.66 3330.47,-3504.57 3333.92,-3503.57 3337.54,-3502.65 3341.32,-3501.81 3345.25,-3501.06 3349.31,-3500.4 3353.49,-3499.83 3357.76,-3499.35 3362.12,-3498.97 3366.54,-3498.68 3371,-3498.48 3375.5,-3498.39 3380,-3498.39 3384.49,-3498.48"/>
<text text-anchor="start" x="3348.58" y="-3543.42" font-family="Times,serif" font-size="14.00">C1533734</text>
<text text-anchor="start" x="3337.31" y="-3529.42" font-family="Times,serif" font-size="14.00">administration</text>
<text text-anchor="start" x="3361.8" y="-3515.42" font-family="Times,serif" font-size="14.00">49:49</text>
</g>
<!-- id_27765805_DOT_4&#45;&#45;id_27765805_DOT_15 -->
<g id="edge3" class="edge">
<title>id_27765805_DOT_4&#45;&#45;id_27765805_DOT_15</title>
<path fill="none" stroke="black" d="M3189.66,-3830.97C3230.16,-3766.93 3316.9,-3629.82 3356.83,-3566.69"/>
<text text-anchor="middle" x="3246.99" y="-3701.63" font-family="Times,serif" font-size="14.00">0.001429</text>
</g>
<!-- id_27765805_DOT_5 -->
<g id="node5" class="node">
<title>id_27765805_DOT_5</title>
<polygon fill="brown" stroke="brown" points="3858.26,-2115.53 3863.24,-2115.72 3868.17,-2116.01 3873.03,-2116.39 3877.8,-2116.87 3882.46,-2117.44 3886.99,-2118.1 3891.37,-2118.85 3895.59,-2119.69 3899.63,-2120.61 3903.48,-2121.62 3907.12,-2122.7 3910.54,-2123.86 3913.73,-2125.1 3916.68,-2126.4 3919.39,-2127.78 3921.84,-2129.21 3924.03,-2130.7 3925.96,-2132.25 3927.62,-2133.85 3929.02,-2135.49 3930.15,-2137.18 3931.02,-2138.9 3931.62,-2140.66 3931.97,-2142.44 3932.06,-2144.24 3931.91,-2146.07 3931.51,-2147.9 3930.89,-2149.74 3930.04,-2151.59 3928.98,-2153.43 3927.71,-2155.27 3926.25,-2157.09 3924.61,-2158.9 3922.79,-2160.68 3920.81,-2162.43 3918.69,-2164.16 3916.42,-2165.84 3914.03,-2167.49 3911.52,-2169.08 3908.9,-2170.63 3906.18,-2172.12 3903.38,-2173.56 3900.49,-2174.93 3897.54,-2176.23 3894.53,-2177.47 3891.46,-2178.63 3888.34,-2179.72 3885.18,-2180.72 3881.99,-2181.64 3878.77,-2182.48 3875.52,-2183.23 3872.26,-2183.89 3868.97,-2184.46 3865.67,-2184.94 3862.36,-2185.32 3859.05,-2185.61 3855.72,-2185.81 3852.4,-2185.9 3849.07,-2185.9 3845.74,-2185.81 3842.42,-2185.61 3839.1,-2185.32 3835.8,-2184.94 3832.5,-2184.46 3829.21,-2183.89 3825.94,-2183.23 3822.7,-2182.48 3819.48,-2181.64 3816.28,-2180.72 3813.13,-2179.72 3810.01,-2178.63 3806.94,-2177.47 3803.93,-2176.23 3800.98,-2174.93 3798.09,-2173.56 3795.29,-2172.12 3792.57,-2170.63 3789.95,-2169.08 3787.44,-2167.49 3785.05,-2165.84 3782.78,-2164.16 3780.65,-2162.43 3778.68,-2160.68 3776.86,-2158.9 3775.22,-2157.09 3773.76,-2155.27 3772.49,-2153.43 3771.43,-2151.59 3770.58,-2149.74 3769.96,-2147.9 3769.56,-2146.07 3769.41,-2144.24 3769.5,-2142.44 3769.85,-2140.66 3770.45,-2138.9 3771.32,-2137.18 3772.45,-2135.49 3773.85,-2133.85 3775.51,-2132.25 3777.44,-2130.7 3779.63,-2129.21 3782.08,-2127.78 3784.79,-2126.4 3787.74,-2125.1 3790.93,-2123.86 3794.35,-2122.7 3797.99,-2121.62 3801.84,-2120.61 3805.88,-2119.69 3810.1,-2118.85 3814.48,-2118.1 3819.01,-2117.44 3823.67,-2116.87 3828.44,-2116.39 3833.3,-2116.01 3838.23,-2115.72 3843.21,-2115.53 3848.22,-2115.43 3853.25,-2115.43 3858.26,-2115.53"/>
<text text-anchor="start" x="3821.57" y="-2160.47" font-family="Times,serif" font-size="14.00">C0282441</text>
<text text-anchor="start" x="3804.68" y="-2146.47" font-family="Times,serif" font-size="14.00">literature review</text>
<text text-anchor="start" x="3834.79" y="-2132.47" font-family="Times,serif" font-size="14.00">13:14</text>
</g>
<!-- id_27765805_DOT_23 -->
<g id="node23" class="node">
<title>id_27765805_DOT_23</title>
<polygon fill="darkorange" stroke="darkorange" points="4266.28,-2081.02 4270.01,-2081.21 4273.7,-2081.5 4277.34,-2081.88 4280.91,-2082.36 4284.39,-2082.93 4287.78,-2083.59 4291.06,-2084.34 4294.22,-2085.18 4297.24,-2086.1 4300.12,-2087.11 4302.85,-2088.19 4305.41,-2089.35 4307.8,-2090.59 4310.01,-2091.89 4312.03,-2093.27 4313.87,-2094.7 4315.51,-2096.19 4316.95,-2097.74 4318.2,-2099.34 4319.24,-2100.98 4320.09,-2102.67 4320.74,-2104.39 4321.19,-2106.15 4321.45,-2107.93 4321.52,-2109.73 4321.4,-2111.56 4321.11,-2113.39 4320.64,-2115.23 4320.01,-2117.08 4319.21,-2118.92 4318.26,-2120.76 4317.17,-2122.58 4315.94,-2124.39 4314.58,-2126.17 4313.1,-2127.92 4311.51,-2129.65 4309.81,-2131.33 4308.02,-2132.98 4306.14,-2134.57 4304.18,-2136.12 4302.15,-2137.61 4300.05,-2139.05 4297.89,-2140.42 4295.68,-2141.72 4293.42,-2142.96 4291.13,-2144.12 4288.8,-2145.21 4286.43,-2146.21 4284.04,-2147.13 4281.63,-2147.97 4279.2,-2148.72 4276.76,-2149.38 4274.3,-2149.95 4271.83,-2150.43 4269.35,-2150.81 4266.87,-2151.1 4264.38,-2151.3 4261.89,-2151.39 4259.4,-2151.39 4256.91,-2151.3 4254.43,-2151.1 4251.94,-2150.81 4249.47,-2150.43 4247,-2149.95 4244.54,-2149.38 4242.09,-2148.72 4239.66,-2147.97 4237.25,-2147.13 4234.86,-2146.21 4232.5,-2145.21 4230.17,-2144.12 4227.87,-2142.96 4225.61,-2141.72 4223.4,-2140.42 4221.25,-2139.05 4219.15,-2137.61 4217.11,-2136.12 4215.15,-2134.57 4213.27,-2132.98 4211.48,-2131.33 4209.79,-2129.65 4208.19,-2127.92 4206.71,-2126.17 4205.35,-2124.39 4204.12,-2122.58 4203.03,-2120.76 4202.08,-2118.92 4201.29,-2117.08 4200.65,-2115.23 4200.19,-2113.39 4199.89,-2111.56 4199.78,-2109.73 4199.85,-2107.93 4200.11,-2106.15 4200.56,-2104.39 4201.21,-2102.67 4202.05,-2100.98 4203.1,-2099.34 4204.34,-2097.74 4205.79,-2096.19 4207.43,-2094.7 4209.26,-2093.27 4211.29,-2091.89 4213.5,-2090.59 4215.89,-2089.35 4218.45,-2088.19 4221.17,-2087.11 4224.05,-2086.1 4227.07,-2085.18 4230.23,-2084.34 4233.51,-2083.59 4236.9,-2082.93 4240.39,-2082.36 4243.96,-2081.88 4247.59,-2081.5 4251.29,-2081.21 4255.01,-2081.02 4258.77,-2080.92 4262.53,-2080.92 4266.28,-2081.02"/>
<text text-anchor="start" x="4231.48" y="-2125.96" font-family="Times,serif" font-size="14.00">C0010340</text>
<text text-anchor="start" x="4228.19" y="-2111.96" font-family="Times,serif" font-size="14.00">critically ill</text>
<text text-anchor="start" x="4244.7" y="-2097.96" font-family="Times,serif" font-size="14.00">85:86</text>
</g>
<!-- id_27765805_DOT_5&#45;&#45;id_27765805_DOT_23 -->
<g id="edge16" class="edge">
<title>id_27765805_DOT_5&#45;&#45;id_27765805_DOT_23</title>
<path fill="none" stroke="black" stroke-dasharray="1,5" d="M3932.21,-2143.81C4012.29,-2137.07 4132.48,-2126.95 4203.09,-2121"/>
<text text-anchor="middle" x="4041.4" y="-2135.2" font-family="Times,serif" font-size="14.00">0.782830</text>
</g>
<!-- id_27765805_DOT_28 -->
<g id="node28" class="node">
<title>id_27765805_DOT_28</title>
<polygon fill="darksalmon" stroke="darksalmon" points="3512.51,-2357.47 3518.06,-2357.66 3523.55,-2357.95 3528.97,-2358.33 3534.28,-2358.81 3539.47,-2359.38 3544.51,-2360.04 3549.39,-2360.79 3554.09,-2361.63 3558.6,-2362.55 3562.88,-2363.56 3566.94,-2364.64 3570.75,-2365.8 3574.31,-2367.04 3577.59,-2368.34 3580.61,-2369.72 3583.34,-2371.15 3585.78,-2372.64 3587.93,-2374.19 3589.78,-2375.79 3591.34,-2377.43 3592.6,-2379.12 3593.57,-2380.84 3594.24,-2382.6 3594.62,-2384.38 3594.73,-2386.18 3594.56,-2388.01 3594.12,-2389.84 3593.42,-2391.68 3592.48,-2393.53 3591.29,-2395.37 3589.88,-2397.21 3588.25,-2399.03 3586.42,-2400.83 3584.4,-2402.62 3582.2,-2404.37 3579.83,-2406.1 3577.31,-2407.78 3574.64,-2409.43 3571.84,-2411.02 3568.92,-2412.57 3565.89,-2414.06 3562.77,-2415.5 3559.56,-2416.87 3556.27,-2418.17 3552.91,-2419.41 3549.49,-2420.57 3546.02,-2421.65 3542.5,-2422.66 3538.95,-2423.58 3535.36,-2424.42 3531.74,-2425.17 3528.1,-2425.83 3524.44,-2426.4 3520.77,-2426.88 3517.08,-2427.26 3513.38,-2427.55 3509.68,-2427.75 3505.98,-2427.84 3502.27,-2427.84 3498.56,-2427.75 3494.86,-2427.55 3491.17,-2427.26 3487.48,-2426.88 3483.8,-2426.4 3480.15,-2425.83 3476.5,-2425.17 3472.89,-2424.42 3469.3,-2423.58 3465.74,-2422.66 3462.22,-2421.65 3458.75,-2420.57 3455.33,-2419.41 3451.98,-2418.17 3448.69,-2416.87 3445.48,-2415.5 3442.35,-2414.06 3439.32,-2412.57 3436.41,-2411.02 3433.61,-2409.43 3430.94,-2407.78 3428.42,-2406.1 3426.05,-2404.37 3423.84,-2402.62 3421.82,-2400.83 3419.99,-2399.03 3418.36,-2397.21 3416.95,-2395.37 3415.77,-2393.53 3414.82,-2391.68 3414.13,-2389.84 3413.69,-2388.01 3413.52,-2386.18 3413.62,-2384.38 3414.01,-2382.6 3414.68,-2380.84 3415.65,-2379.12 3416.9,-2377.43 3418.46,-2375.79 3420.31,-2374.19 3422.46,-2372.64 3424.91,-2371.15 3427.64,-2369.72 3430.65,-2368.34 3433.94,-2367.04 3437.5,-2365.8 3441.31,-2364.64 3445.36,-2363.56 3449.65,-2362.55 3454.15,-2361.63 3458.85,-2360.79 3463.73,-2360.04 3468.78,-2359.38 3473.97,-2358.81 3479.28,-2358.33 3484.69,-2357.95 3490.19,-2357.66 3495.74,-2357.47 3501.32,-2357.37 3506.92,-2357.37 3512.51,-2357.47"/>
<text text-anchor="start" x="3474.95" y="-2402.41" font-family="Times,serif" font-size="14.00">C0030660</text>
<text text-anchor="start" x="3451.83" y="-2388.41" font-family="Times,serif" font-size="14.00">pathologic process</text>
<text text-anchor="start" x="3481.18" y="-2374.41" font-family="Times,serif" font-size="14.00">108:109</text>
</g>
<!-- id_27765805_DOT_5&#45;&#45;id_27765805_DOT_28 -->
<g id="edge17" class="edge">
<title>id_27765805_DOT_5&#45;&#45;id_27765805_DOT_28</title>
<path fill="none" stroke="black" stroke-dasharray="1,5" d="M3810.3,-2178.89C3745.29,-2224.27 3617.97,-2313.14 3549.79,-2360.73"/>
<text text-anchor="middle" x="3653.79" y="-2272.61" font-family="Times,serif" font-size="14.00">0.745670</text>
</g>
<!-- id_27765805_DOT_29 -->
<g id="node29" class="node">
<title>id_27765805_DOT_29</title>
<polygon fill="brown" stroke="brown" points="3855.88,-1717.16 3861.82,-1717.35 3867.69,-1717.64 3873.48,-1718.03 3879.16,-1718.5 3884.7,-1719.08 3890.1,-1719.74 3895.31,-1720.49 3900.34,-1721.32 3905.15,-1722.25 3909.73,-1723.25 3914.07,-1724.34 3918.14,-1725.5 3921.94,-1726.73 3925.46,-1728.04 3928.68,-1729.41 3931.6,-1730.84 3934.21,-1732.34 3936.51,-1733.88 3938.49,-1735.48 3940.16,-1737.13 3941.5,-1738.81 3942.53,-1740.54 3943.25,-1742.29 3943.66,-1744.07 3943.78,-1745.88 3943.59,-1747.7 3943.12,-1749.54 3942.38,-1751.38 3941.37,-1753.22 3940.1,-1755.07 3938.6,-1756.9 3936.86,-1758.72 3934.9,-1760.53 3932.74,-1762.31 3930.38,-1764.07 3927.85,-1765.79 3925.15,-1767.48 3922.3,-1769.12 3919.31,-1770.72 3916.19,-1772.27 3912.95,-1773.76 3909.61,-1775.19 3906.18,-1776.56 3902.66,-1777.87 3899.07,-1779.1 3895.42,-1780.26 3891.71,-1781.35 3887.95,-1782.35 3884.15,-1783.28 3880.31,-1784.11 3876.44,-1784.87 3872.55,-1785.53 3868.64,-1786.1 3864.71,-1786.57 3860.77,-1786.96 3856.82,-1787.25 3852.86,-1787.44 3848.9,-1787.54 3844.94,-1787.54 3840.98,-1787.44 3837.02,-1787.25 3833.07,-1786.96 3829.13,-1786.57 3825.2,-1786.1 3821.29,-1785.53 3817.4,-1784.87 3813.53,-1784.11 3809.69,-1783.28 3805.89,-1782.35 3802.13,-1781.35 3798.42,-1780.26 3794.77,-1779.1 3791.18,-1777.87 3787.66,-1776.56 3784.23,-1775.19 3780.89,-1773.76 3777.65,-1772.27 3774.53,-1770.72 3771.54,-1769.12 3768.69,-1767.48 3765.99,-1765.79 3763.46,-1764.07 3761.1,-1762.31 3758.94,-1760.53 3756.98,-1758.72 3755.24,-1756.9 3753.74,-1755.07 3752.47,-1753.22 3751.46,-1751.38 3750.72,-1749.54 3750.25,-1747.7 3750.07,-1745.88 3750.18,-1744.07 3750.59,-1742.29 3751.31,-1740.54 3752.34,-1738.81 3753.68,-1737.13 3755.35,-1735.48 3757.33,-1733.88 3759.63,-1732.34 3762.24,-1730.84 3765.16,-1729.41 3768.38,-1728.04 3771.9,-1726.73 3775.7,-1725.5 3779.77,-1724.34 3784.11,-1723.25 3788.69,-1722.25 3793.5,-1721.32 3798.53,-1720.49 3803.74,-1719.74 3809.14,-1719.08 3814.69,-1718.5 3820.36,-1718.03 3826.15,-1717.64 3832.02,-1717.35 3837.96,-1717.16 3843.93,-1717.07 3849.91,-1717.07 3855.88,-1717.16"/>
<text text-anchor="start" x="3817.75" y="-1762.1" font-family="Times,serif" font-size="14.00">C0282441</text>
<text text-anchor="start" x="3790.56" y="-1748.1" font-family="Times,serif" font-size="14.00">review the literature</text>
<text text-anchor="start" x="3824.49" y="-1734.1" font-family="Times,serif" font-size="14.00">113:115</text>
</g>
<!-- id_27765805_DOT_5&#45;&#45;id_27765805_DOT_29 -->
<g id="edge4" class="edge">
<title>id_27765805_DOT_5&#45;&#45;id_27765805_DOT_29</title>
<path fill="none" stroke="black" d="M3850.4,-2115.31C3849.67,-2039.72 3847.98,-1863.1 3847.26,-1787.57"/>
<text text-anchor="middle" x="3822.58" y="-1954.24" font-family="Times,serif" font-size="14.00">0.081919</text>
</g>
<!-- id_27765805_DOT_6 -->
<g id="node6" class="node">
<title>id_27765805_DOT_6</title>
<polygon fill="cadetblue" stroke="cadetblue" points="2366.76,-2392.22 2370.88,-2392.41 2374.95,-2392.7 2378.96,-2393.09 2382.9,-2393.56 2386.75,-2394.13 2390.49,-2394.8 2394.11,-2395.55 2397.6,-2396.38 2400.93,-2397.31 2404.11,-2398.31 2407.12,-2399.4 2409.94,-2400.56 2412.58,-2401.79 2415.02,-2403.1 2417.25,-2404.47 2419.28,-2405.9 2421.09,-2407.4 2422.68,-2408.94 2424.06,-2410.54 2425.21,-2412.19 2426.14,-2413.87 2426.86,-2415.59 2427.36,-2417.35 2427.64,-2419.13 2427.72,-2420.94 2427.59,-2422.76 2427.27,-2424.59 2426.75,-2426.44 2426.05,-2428.28 2425.17,-2430.13 2424.13,-2431.96 2422.92,-2433.78 2421.56,-2435.59 2420.06,-2437.37 2418.43,-2439.13 2416.68,-2440.85 2414.8,-2442.53 2412.83,-2444.18 2410.75,-2445.78 2408.59,-2447.32 2406.34,-2448.82 2404.03,-2450.25 2401.65,-2451.62 2399.21,-2452.93 2396.72,-2454.16 2394.18,-2455.32 2391.61,-2456.41 2389,-2457.41 2386.37,-2458.34 2383.7,-2459.17 2381.02,-2459.92 2378.32,-2460.59 2375.61,-2461.16 2372.89,-2461.63 2370.15,-2462.02 2367.41,-2462.31 2364.67,-2462.5 2361.92,-2462.6 2359.17,-2462.6 2356.42,-2462.5 2353.68,-2462.31 2350.94,-2462.02 2348.21,-2461.63 2345.48,-2461.16 2342.77,-2460.59 2340.07,-2459.92 2337.39,-2459.17 2334.73,-2458.34 2332.09,-2457.41 2329.48,-2456.41 2326.91,-2455.32 2324.37,-2454.16 2321.88,-2452.93 2319.45,-2451.62 2317.07,-2450.25 2314.75,-2448.82 2312.51,-2447.32 2310.34,-2445.78 2308.27,-2444.18 2306.29,-2442.53 2304.42,-2440.85 2302.66,-2439.13 2301.03,-2437.37 2299.53,-2435.59 2298.17,-2433.78 2296.97,-2431.96 2295.92,-2430.13 2295.04,-2428.28 2294.34,-2426.44 2293.82,-2424.59 2293.5,-2422.76 2293.37,-2420.94 2293.45,-2419.13 2293.74,-2417.35 2294.23,-2415.59 2294.95,-2413.87 2295.88,-2412.19 2297.04,-2410.54 2298.41,-2408.94 2300,-2407.4 2301.82,-2405.9 2303.84,-2404.47 2306.07,-2403.1 2308.51,-2401.79 2311.15,-2400.56 2313.98,-2399.4 2316.98,-2398.31 2320.16,-2397.31 2323.5,-2396.38 2326.98,-2395.55 2330.6,-2394.8 2334.34,-2394.13 2338.19,-2393.56 2342.13,-2393.09 2346.14,-2392.7 2350.21,-2392.41 2354.33,-2392.22 2358.47,-2392.12 2362.62,-2392.12 2366.76,-2392.22"/>
<text text-anchor="start" x="2331.38" y="-2437.16" font-family="Times,serif" font-size="14.00">C0009566</text>
<text text-anchor="start" x="2324" y="-2423.16" font-family="Times,serif" font-size="14.00">complication</text>
<text text-anchor="start" x="2344.6" y="-2409.16" font-family="Times,serif" font-size="14.00">18:18</text>
</g>
<!-- id_27765805_DOT_13 -->
<g id="node13" class="node">
<title>id_27765805_DOT_13</title>
<polygon fill="cadetblue" stroke="cadetblue" points="2767.12,-2519.94 2771.24,-2520.14 2775.31,-2520.42 2779.33,-2520.81 2783.26,-2521.29 2787.11,-2521.86 2790.85,-2522.52 2794.47,-2523.27 2797.96,-2524.11 2801.29,-2525.03 2804.47,-2526.03 2807.48,-2527.12 2810.3,-2528.28 2812.94,-2529.51 2815.38,-2530.82 2817.61,-2532.19 2819.64,-2533.62 2821.45,-2535.12 2823.04,-2536.66 2824.42,-2538.26 2825.57,-2539.91 2826.5,-2541.59 2827.22,-2543.32 2827.72,-2545.07 2828,-2546.85 2828.08,-2548.66 2827.95,-2550.48 2827.63,-2552.32 2827.11,-2554.16 2826.41,-2556 2825.53,-2557.85 2824.49,-2559.68 2823.28,-2561.51 2821.93,-2563.31 2820.43,-2565.09 2818.79,-2566.85 2817.04,-2568.57 2815.16,-2570.26 2813.19,-2571.9 2811.11,-2573.5 2808.95,-2575.05 2806.7,-2576.54 2804.39,-2577.97 2802.01,-2579.34 2799.57,-2580.65 2797.08,-2581.88 2794.54,-2583.05 2791.97,-2584.13 2789.36,-2585.14 2786.73,-2586.06 2784.07,-2586.9 2781.38,-2587.65 2778.68,-2588.31 2775.97,-2588.88 2773.25,-2589.36 2770.51,-2589.74 2767.77,-2590.03 2765.03,-2590.22 2762.28,-2590.32 2759.53,-2590.32 2756.79,-2590.22 2754.04,-2590.03 2751.3,-2589.74 2748.57,-2589.36 2745.84,-2588.88 2743.13,-2588.31 2740.43,-2587.65 2737.75,-2586.9 2735.09,-2586.06 2732.45,-2585.14 2729.84,-2584.13 2727.27,-2583.05 2724.74,-2581.88 2722.25,-2580.65 2719.81,-2579.34 2717.43,-2577.97 2715.11,-2576.54 2712.87,-2575.05 2710.7,-2573.5 2708.63,-2571.9 2706.65,-2570.26 2704.78,-2568.57 2703.02,-2566.85 2701.39,-2565.09 2699.89,-2563.31 2698.53,-2561.51 2697.33,-2559.68 2696.28,-2557.85 2695.4,-2556 2694.7,-2554.16 2694.19,-2552.32 2693.86,-2550.48 2693.73,-2548.66 2693.81,-2546.85 2694.1,-2545.07 2694.6,-2543.32 2695.31,-2541.59 2696.24,-2539.91 2697.4,-2538.26 2698.77,-2536.66 2700.37,-2535.12 2702.18,-2533.62 2704.2,-2532.19 2706.44,-2530.82 2708.87,-2529.51 2711.51,-2528.28 2714.34,-2527.12 2717.34,-2526.03 2720.52,-2525.03 2723.86,-2524.11 2727.34,-2523.27 2730.96,-2522.52 2734.7,-2521.86 2738.55,-2521.29 2742.49,-2520.81 2746.5,-2520.42 2750.58,-2520.14 2754.69,-2519.94 2758.83,-2519.85 2762.98,-2519.85 2767.12,-2519.94"/>
<text text-anchor="start" x="2731.74" y="-2564.88" font-family="Times,serif" font-size="14.00">C0009566</text>
<text text-anchor="start" x="2724.36" y="-2550.88" font-family="Times,serif" font-size="14.00">complication</text>
<text text-anchor="start" x="2744.96" y="-2536.88" font-family="Times,serif" font-size="14.00">46:46</text>
</g>
<!-- id_27765805_DOT_6&#45;&#45;id_27765805_DOT_13 -->
<g id="edge5" class="edge">
<title>id_27765805_DOT_6&#45;&#45;id_27765805_DOT_13</title>
<path fill="none" stroke="black" d="M2413.3,-2444.19C2487.3,-2467.8 2621.61,-2510.64 2699.84,-2535.6"/>
<text text-anchor="middle" x="2530.32" y="-2492.69" font-family="Times,serif" font-size="14.00">0.001520</text>
</g>
<!-- id_27765805_DOT_25 -->
<g id="node25" class="node">
<title>id_27765805_DOT_25</title>
<polygon fill="darkred" stroke="darkred" points="1952.65,-2260.16 1956.08,-2260.35 1959.47,-2260.64 1962.82,-2261.03 1966.1,-2261.5 1969.3,-2262.07 1972.42,-2262.74 1975.43,-2263.49 1978.34,-2264.32 1981.12,-2265.25 1983.76,-2266.25 1986.27,-2267.34 1988.62,-2268.5 1990.82,-2269.73 1992.85,-2271.04 1994.71,-2272.41 1996.4,-2273.84 1997.91,-2275.34 1999.23,-2276.88 2000.38,-2278.48 2001.34,-2280.13 2002.12,-2281.81 2002.71,-2283.53 2003.13,-2285.29 2003.37,-2287.07 2003.43,-2288.88 2003.33,-2290.7 2003.05,-2292.53 2002.62,-2294.38 2002.04,-2296.22 2001.31,-2298.07 2000.44,-2299.9 1999.43,-2301.72 1998.3,-2303.53 1997.05,-2305.31 1995.69,-2307.07 1994.23,-2308.79 1992.67,-2310.47 1991.02,-2312.12 1989.3,-2313.72 1987.49,-2315.26 1985.62,-2316.76 1983.69,-2318.19 1981.71,-2319.56 1979.68,-2320.87 1977.61,-2322.1 1975.49,-2323.26 1973.35,-2324.35 1971.18,-2325.35 1968.98,-2326.28 1966.77,-2327.11 1964.53,-2327.86 1962.28,-2328.53 1960.02,-2329.1 1957.75,-2329.57 1955.48,-2329.96 1953.19,-2330.25 1950.91,-2330.44 1948.62,-2330.54 1946.33,-2330.54 1944.04,-2330.44 1941.76,-2330.25 1939.47,-2329.96 1937.2,-2329.57 1934.93,-2329.1 1932.67,-2328.53 1930.42,-2327.86 1928.18,-2327.11 1925.97,-2326.28 1923.77,-2325.35 1921.6,-2324.35 1919.45,-2323.26 1917.34,-2322.1 1915.27,-2320.87 1913.24,-2319.56 1911.25,-2318.19 1909.32,-2316.76 1907.46,-2315.26 1905.65,-2313.72 1903.93,-2312.12 1902.28,-2310.47 1900.72,-2308.79 1899.26,-2307.07 1897.89,-2305.31 1896.65,-2303.53 1895.52,-2301.72 1894.51,-2299.9 1893.64,-2298.07 1892.91,-2296.22 1892.32,-2294.38 1891.89,-2292.53 1891.62,-2290.7 1891.52,-2288.88 1891.58,-2287.07 1891.82,-2285.29 1892.24,-2283.53 1892.83,-2281.81 1893.61,-2280.13 1894.57,-2278.48 1895.72,-2276.88 1897.04,-2275.34 1898.55,-2273.84 1900.24,-2272.41 1902.1,-2271.04 1904.13,-2269.73 1906.33,-2268.5 1908.68,-2267.34 1911.19,-2266.25 1913.83,-2265.25 1916.61,-2264.32 1919.52,-2263.49 1922.53,-2262.74 1925.65,-2262.07 1928.85,-2261.5 1932.13,-2261.03 1935.48,-2260.64 1938.87,-2260.35 1942.3,-2260.16 1945.75,-2260.06 1949.2,-2260.06 1952.65,-2260.16"/>
<text text-anchor="start" x="1918.31" y="-2305.1" font-family="Times,serif" font-size="14.00">C0442027</text>
<text text-anchor="start" x="1936.59" y="-2291.1" font-family="Times,serif" font-size="14.00">oral</text>
<text text-anchor="start" x="1931.53" y="-2277.1" font-family="Times,serif" font-size="14.00">97:97</text>
</g>
<!-- id_27765805_DOT_6&#45;&#45;id_27765805_DOT_25 -->
<g id="edge18" class="edge">
<title>id_27765805_DOT_6&#45;&#45;id_27765805_DOT_25</title>
<path fill="none" stroke="black" stroke-dasharray="1,5" d="M2299.15,-2407.73C2215.55,-2381 2067.78,-2333.76 1993.22,-2309.93"/>
<text text-anchor="middle" x="2119.94" y="-2361.63" font-family="Times,serif" font-size="14.00">0.834496</text>
</g>
<!-- id_27765805_DOT_7 -->
<g id="node7" class="node">
<title>id_27765805_DOT_7</title>
<polygon fill="blue" stroke="blue" points="869.79,-230.48 873.43,-230.67 877.04,-230.96 880.59,-231.34 884.07,-231.82 887.47,-232.39 890.78,-233.05 893.98,-233.8 897.07,-234.64 900.02,-235.56 902.83,-236.57 905.49,-237.65 907.99,-238.81 910.32,-240.05 912.48,-241.35 914.45,-242.72 916.24,-244.16 917.85,-245.65 919.26,-247.2 920.47,-248.8 921.49,-250.44 922.32,-252.13 922.95,-253.85 923.39,-255.6 923.64,-257.39 923.71,-259.19 923.6,-261.01 923.31,-262.85 922.86,-264.69 922.24,-266.54 921.46,-268.38 920.53,-270.22 919.47,-272.04 918.27,-273.84 916.94,-275.63 915.5,-277.38 913.94,-279.1 912.29,-280.79 910.54,-282.43 908.7,-284.03 906.79,-285.58 904.8,-287.07 902.76,-288.51 900.65,-289.88 898.49,-291.18 896.29,-292.42 894.05,-293.58 891.77,-294.66 889.47,-295.67 887.13,-296.59 884.78,-297.43 882.41,-298.18 880.02,-298.84 877.62,-299.41 875.21,-299.89 872.79,-300.27 870.37,-300.56 867.94,-300.75 865.51,-300.85 863.08,-300.85 860.65,-300.75 858.22,-300.56 855.8,-300.27 853.38,-299.89 850.97,-299.41 848.57,-298.84 846.19,-298.18 843.81,-297.43 841.46,-296.59 839.13,-295.67 836.82,-294.66 834.54,-293.58 832.3,-292.42 830.1,-291.18 827.94,-289.88 825.84,-288.51 823.79,-287.07 821.8,-285.58 819.89,-284.03 818.05,-282.43 816.31,-280.79 814.65,-279.1 813.1,-277.38 811.65,-275.63 810.33,-273.84 809.12,-272.04 808.06,-270.22 807.13,-268.38 806.36,-266.54 805.74,-264.69 805.28,-262.85 804.99,-261.01 804.88,-259.19 804.95,-257.39 805.2,-255.6 805.64,-253.85 806.28,-252.13 807.1,-250.44 808.12,-248.8 809.34,-247.2 810.75,-245.65 812.35,-244.16 814.14,-242.72 816.12,-241.35 818.27,-240.05 820.6,-238.81 823.1,-237.65 825.76,-236.57 828.57,-235.56 831.53,-234.64 834.61,-233.8 837.81,-233.05 841.12,-232.39 844.52,-231.82 848.01,-231.34 851.56,-230.96 855.16,-230.67 858.8,-230.48 862.46,-230.38 866.13,-230.38 869.79,-230.48"/>
<text text-anchor="start" x="835.13" y="-275.41" font-family="Times,serif" font-size="14.00">C0124498</text>
<text text-anchor="start" x="832.82" y="-261.41" font-family="Times,serif" font-size="14.00">Kayexalate</text>
<text text-anchor="start" x="848.35" y="-247.41" font-family="Times,serif" font-size="14.00">19:19</text>
</g>
<!-- id_27765805_DOT_7&#45;&#45;id_27765805_DOT_14 -->
<g id="edge6" class="edge">
<title>id_27765805_DOT_7&#45;&#45;id_27765805_DOT_14</title>
<path fill="none" stroke="black" d="M910.49,-282.92C980.39,-309.1 1112.64,-358.64 1185.88,-386.08"/>
<text text-anchor="middle" x="1021.93" y="-337.3" font-family="Times,serif" font-size="14.00">0.014260</text>
</g>
<!-- id_27765805_DOT_8 -->
<g id="node8" class="node">
<title>id_27765805_DOT_8</title>
<polygon fill="chartreuse" stroke="chartreuse" points="1258.23,-2745.57 1263.81,-2745.76 1269.34,-2746.05 1274.79,-2746.43 1280.13,-2746.91 1285.35,-2747.48 1290.43,-2748.14 1295.34,-2748.89 1300.07,-2749.73 1304.6,-2750.65 1308.92,-2751.66 1313,-2752.74 1316.83,-2753.9 1320.41,-2755.14 1323.72,-2756.44 1326.75,-2757.81 1329.5,-2759.25 1331.96,-2760.74 1334.12,-2762.29 1335.99,-2763.89 1337.55,-2765.53 1338.82,-2767.22 1339.79,-2768.94 1340.47,-2770.69 1340.86,-2772.48 1340.96,-2774.28 1340.79,-2776.1 1340.35,-2777.94 1339.65,-2779.78 1338.7,-2781.63 1337.5,-2783.47 1336.08,-2785.3 1334.45,-2787.13 1332.61,-2788.93 1330.57,-2790.72 1328.35,-2792.47 1325.97,-2794.19 1323.43,-2795.88 1320.75,-2797.52 1317.93,-2799.12 1314.99,-2800.67 1311.95,-2802.16 1308.8,-2803.6 1305.57,-2804.97 1302.26,-2806.27 1298.88,-2807.51 1295.44,-2808.67 1291.95,-2809.75 1288.41,-2810.76 1284.83,-2811.68 1281.22,-2812.52 1277.58,-2813.27 1273.92,-2813.93 1270.24,-2814.5 1266.54,-2814.98 1262.83,-2815.36 1259.11,-2815.65 1255.38,-2815.84 1251.66,-2815.94 1247.93,-2815.94 1244.2,-2815.84 1240.47,-2815.65 1236.75,-2815.36 1233.04,-2814.98 1229.35,-2814.5 1225.66,-2813.93 1222,-2813.27 1218.36,-2812.52 1214.75,-2811.68 1211.17,-2810.76 1207.63,-2809.75 1204.14,-2808.67 1200.7,-2807.51 1197.32,-2806.27 1194.01,-2804.97 1190.78,-2803.6 1187.63,-2802.16 1184.59,-2800.67 1181.65,-2799.12 1178.84,-2797.52 1176.15,-2795.88 1173.61,-2794.19 1171.23,-2792.47 1169.01,-2790.72 1166.98,-2788.93 1165.13,-2787.13 1163.5,-2785.3 1162.08,-2783.47 1160.89,-2781.63 1159.93,-2779.78 1159.23,-2777.94 1158.79,-2776.1 1158.62,-2774.28 1158.72,-2772.48 1159.11,-2770.69 1159.79,-2768.94 1160.76,-2767.22 1162.03,-2765.53 1163.59,-2763.89 1165.46,-2762.29 1167.62,-2760.74 1170.08,-2759.25 1172.83,-2757.81 1175.86,-2756.44 1179.17,-2755.14 1182.75,-2753.9 1186.58,-2752.74 1190.66,-2751.66 1194.98,-2750.65 1199.51,-2749.73 1204.24,-2748.89 1209.15,-2748.14 1214.23,-2747.48 1219.45,-2746.91 1224.79,-2746.43 1230.24,-2746.05 1235.77,-2745.76 1241.35,-2745.57 1246.97,-2745.47 1252.61,-2745.47 1258.23,-2745.57"/>
<text text-anchor="start" x="1220.62" y="-2790.5" font-family="Times,serif" font-size="14.00">C0022014</text>
<text text-anchor="start" x="1197.31" y="-2776.5" font-family="Times,serif" font-size="14.00">ion exchange resin</text>
<text text-anchor="start" x="1233.85" y="-2762.5" font-family="Times,serif" font-size="14.00">22:24</text>
</g>
<!-- id_27765805_DOT_9 -->
<g id="node9" class="node">
<title>id_27765805_DOT_9</title>
<polygon fill="coral" stroke="coral" points="918.51,-2531.43 921.9,-2531.62 925.26,-2531.91 928.57,-2532.29 931.82,-2532.77 934.99,-2533.34 938.08,-2534 941.07,-2534.75 943.94,-2535.59 946.69,-2536.51 949.32,-2537.52 951.8,-2538.6 954.13,-2539.76 956.3,-2541 958.31,-2542.3 960.16,-2543.67 961.83,-2545.11 963.32,-2546.6 964.64,-2548.15 965.77,-2549.75 966.72,-2551.39 967.49,-2553.08 968.08,-2554.8 968.49,-2556.55 968.73,-2558.34 968.79,-2560.14 968.69,-2561.97 968.42,-2563.8 967.99,-2565.64 967.41,-2567.49 966.69,-2569.33 965.83,-2571.17 964.83,-2572.99 963.71,-2574.79 962.48,-2576.58 961.13,-2578.33 959.68,-2580.05 958.14,-2581.74 956.51,-2583.38 954.79,-2584.98 953.01,-2586.53 951.16,-2588.02 949.25,-2589.46 947.28,-2590.83 945.27,-2592.13 943.22,-2593.37 941.13,-2594.53 939,-2595.61 936.85,-2596.62 934.68,-2597.54 932.48,-2598.38 930.27,-2599.13 928.04,-2599.79 925.81,-2600.36 923.56,-2600.84 921.3,-2601.22 919.04,-2601.51 916.78,-2601.7 914.51,-2601.8 912.25,-2601.8 909.98,-2601.7 907.71,-2601.51 905.45,-2601.22 903.2,-2600.84 900.95,-2600.36 898.71,-2599.79 896.49,-2599.13 894.28,-2598.38 892.08,-2597.54 889.91,-2596.62 887.75,-2595.61 885.63,-2594.53 883.54,-2593.37 881.49,-2592.13 879.47,-2590.83 877.51,-2589.46 875.6,-2588.02 873.75,-2586.53 871.96,-2584.98 870.25,-2583.38 868.62,-2581.74 867.08,-2580.05 865.63,-2578.33 864.28,-2576.58 863.04,-2574.79 861.92,-2572.99 860.93,-2571.17 860.07,-2569.33 859.34,-2567.49 858.76,-2565.64 858.34,-2563.8 858.07,-2561.97 857.97,-2560.14 858.03,-2558.34 858.27,-2556.55 858.68,-2554.8 859.27,-2553.08 860.04,-2551.39 860.99,-2549.75 862.12,-2548.15 863.44,-2546.6 864.93,-2545.11 866.6,-2543.67 868.44,-2542.3 870.46,-2541 872.63,-2539.76 874.96,-2538.6 877.44,-2537.52 880.06,-2536.51 882.82,-2535.59 885.69,-2534.75 888.68,-2534 891.76,-2533.34 894.94,-2532.77 898.19,-2532.29 901.5,-2531.91 904.86,-2531.62 908.25,-2531.43 911.67,-2531.33 915.09,-2531.33 918.51,-2531.43"/>
<text text-anchor="start" x="884.72" y="-2576.37" font-family="Times,serif" font-size="14.00">C0087111</text>
<text text-anchor="start" x="900.94" y="-2562.37" font-family="Times,serif" font-size="14.00">treat</text>
<text text-anchor="start" x="897.43" y="-2548.37" font-family="Times,serif" font-size="14.00">31:31</text>
</g>
<!-- id_27765805_DOT_8&#45;&#45;id_27765805_DOT_9 -->
<g id="edge19" class="edge">
<title>id_27765805_DOT_8&#45;&#45;id_27765805_DOT_9</title>
<path fill="none" stroke="black" stroke-dasharray="1,5" d="M1200.51,-2749.34C1132.07,-2705.77 1009.86,-2627.98 949.35,-2589.46"/>
<text text-anchor="middle" x="1048.68" y="-2672.2" font-family="Times,serif" font-size="14.00">0.849442</text>
</g>
<!-- id_27765805_DOT_18 -->
<g id="node18" class="node">
<title>id_27765805_DOT_18</title>
<polygon fill="darkkhaki" stroke="darkkhaki" points="1615.7,-2532.86 1619.13,-2533.05 1622.52,-2533.34 1625.86,-2533.72 1629.15,-2534.2 1632.35,-2534.77 1635.47,-2535.43 1638.48,-2536.18 1641.38,-2537.02 1644.16,-2537.94 1646.81,-2538.95 1649.32,-2540.03 1651.67,-2541.19 1653.87,-2542.43 1655.9,-2543.73 1657.76,-2545.1 1659.45,-2546.54 1660.95,-2548.03 1662.28,-2549.58 1663.43,-2551.18 1664.39,-2552.82 1665.17,-2554.51 1665.76,-2556.23 1666.18,-2557.98 1666.41,-2559.77 1666.48,-2561.57 1666.37,-2563.4 1666.1,-2565.23 1665.67,-2567.07 1665.09,-2568.92 1664.36,-2570.76 1663.49,-2572.6 1662.48,-2574.42 1661.35,-2576.22 1660.1,-2578.01 1658.74,-2579.76 1657.28,-2581.48 1655.72,-2583.17 1654.07,-2584.81 1652.34,-2586.41 1650.54,-2587.96 1648.67,-2589.45 1646.74,-2590.89 1644.76,-2592.26 1642.73,-2593.56 1640.65,-2594.8 1638.54,-2595.96 1636.4,-2597.04 1634.23,-2598.05 1632.03,-2598.97 1629.81,-2599.81 1627.58,-2600.56 1625.33,-2601.22 1623.07,-2601.79 1620.8,-2602.27 1618.52,-2602.65 1616.24,-2602.94 1613.96,-2603.13 1611.67,-2603.23 1609.38,-2603.23 1607.09,-2603.13 1604.8,-2602.94 1602.52,-2602.65 1600.24,-2602.27 1597.97,-2601.79 1595.71,-2601.22 1593.47,-2600.56 1591.23,-2599.81 1589.01,-2598.97 1586.82,-2598.05 1584.65,-2597.04 1582.5,-2595.96 1580.39,-2594.8 1578.32,-2593.56 1576.29,-2592.26 1574.3,-2590.89 1572.37,-2589.45 1570.5,-2587.96 1568.7,-2586.41 1566.97,-2584.81 1565.33,-2583.17 1563.77,-2581.48 1562.3,-2579.76 1560.94,-2578.01 1559.69,-2576.22 1558.56,-2574.42 1557.56,-2572.6 1556.69,-2570.76 1555.96,-2568.92 1555.37,-2567.07 1554.94,-2565.23 1554.67,-2563.4 1554.57,-2561.57 1554.63,-2559.77 1554.87,-2557.98 1555.28,-2556.23 1555.88,-2554.51 1556.66,-2552.82 1557.62,-2551.18 1558.76,-2549.58 1560.09,-2548.03 1561.6,-2546.54 1563.29,-2545.1 1565.15,-2543.73 1567.18,-2542.43 1569.37,-2541.19 1571.73,-2540.03 1574.23,-2538.95 1576.88,-2537.94 1579.66,-2537.02 1582.56,-2536.18 1585.58,-2535.43 1588.69,-2534.77 1591.9,-2534.2 1595.18,-2533.72 1598.52,-2533.34 1601.92,-2533.05 1605.34,-2532.86 1608.79,-2532.76 1612.25,-2532.76 1615.7,-2532.86"/>
<text text-anchor="start" x="1581.35" y="-2577.8" font-family="Times,serif" font-size="14.00">C0021853</text>
<text text-anchor="start" x="1593.42" y="-2563.8" font-family="Times,serif" font-size="14.00">bowel</text>
<text text-anchor="start" x="1594.58" y="-2549.8" font-family="Times,serif" font-size="14.00">63:63</text>
</g>
<!-- id_27765805_DOT_8&#45;&#45;id_27765805_DOT_18 -->
<g id="edge20" class="edge">
<title>id_27765805_DOT_8&#45;&#45;id_27765805_DOT_18</title>
<path fill="none" stroke="black" stroke-dasharray="1,5" d="M1301.86,-2750C1375.51,-2706.57 1508.35,-2628.24 1573.06,-2590.09"/>
<text text-anchor="middle" x="1411.21" y="-2672.84" font-family="Times,serif" font-size="14.00">0.838023</text>
</g>
<!-- id_27765805_DOT_8&#45;&#45;id_27765805_DOT_24 -->
<g id="edge21" class="edge">
<title>id_27765805_DOT_8&#45;&#45;id_27765805_DOT_24</title>
<path fill="none" stroke="black" stroke-dasharray="1,5" d="M1226.62,-2814.3C1182,-2878.98 1084.62,-3020.14 1040.08,-3084.72"/>
<text text-anchor="middle" x="1107.1" y="-2952.31" font-family="Times,serif" font-size="14.00">0.827447</text>
</g>
<!-- id_27765805_DOT_10 -->
<g id="node10" class="node">
<title>id_27765805_DOT_10</title>
<polygon fill="cornflowerblue" stroke="cornflowerblue" points="4630.48,-1944.71 4634.73,-1944.9 4638.93,-1945.19 4643.07,-1945.58 4647.14,-1946.05 4651.11,-1946.62 4654.97,-1947.29 4658.71,-1948.04 4662.3,-1948.87 4665.75,-1949.8 4669.03,-1950.8 4672.13,-1951.89 4675.05,-1953.05 4677.77,-1954.28 4680.29,-1955.59 4682.59,-1956.96 4684.68,-1958.39 4686.55,-1959.89 4688.2,-1961.43 4689.62,-1963.03 4690.81,-1964.68 4691.77,-1966.36 4692.51,-1968.08 4693.02,-1969.84 4693.32,-1971.62 4693.4,-1973.43 4693.27,-1975.25 4692.93,-1977.09 4692.4,-1978.93 4691.68,-1980.77 4690.77,-1982.62 4689.69,-1984.45 4688.45,-1986.27 4687.04,-1988.08 4685.5,-1989.86 4683.81,-1991.62 4682,-1993.34 4680.07,-1995.02 4678.02,-1996.67 4675.88,-1998.27 4673.65,-1999.81 4671.33,-2001.31 4668.94,-2002.74 4666.49,-2004.11 4663.97,-2005.42 4661.4,-2006.65 4658.78,-2007.81 4656.12,-2008.9 4653.43,-2009.9 4650.71,-2010.83 4647.97,-2011.66 4645.2,-2012.41 4642.41,-2013.08 4639.61,-2013.65 4636.8,-2014.12 4633.98,-2014.51 4631.15,-2014.8 4628.32,-2014.99 4625.48,-2015.09 4622.64,-2015.09 4619.81,-2014.99 4616.97,-2014.8 4614.15,-2014.51 4611.32,-2014.12 4608.51,-2013.65 4605.71,-2013.08 4602.93,-2012.41 4600.16,-2011.66 4597.41,-2010.83 4594.69,-2009.9 4592,-2008.9 4589.34,-2007.81 4586.72,-2006.65 4584.15,-2005.42 4581.64,-2004.11 4579.18,-2002.74 4576.79,-2001.31 4574.47,-1999.81 4572.24,-1998.27 4570.1,-1996.67 4568.06,-1995.02 4566.12,-1993.34 4564.31,-1991.62 4562.63,-1989.86 4561.08,-1988.08 4559.68,-1986.27 4558.43,-1984.45 4557.35,-1982.62 4556.45,-1980.77 4555.72,-1978.93 4555.19,-1977.09 4554.85,-1975.25 4554.72,-1973.43 4554.8,-1971.62 4555.1,-1969.84 4555.61,-1968.08 4556.35,-1966.36 4557.32,-1964.68 4558.51,-1963.03 4559.92,-1961.43 4561.57,-1959.89 4563.44,-1958.39 4565.53,-1956.96 4567.83,-1955.59 4570.35,-1954.28 4573.07,-1953.05 4575.99,-1951.89 4579.09,-1950.8 4582.37,-1949.8 4585.82,-1948.87 4589.42,-1948.04 4593.15,-1947.29 4597.01,-1946.62 4600.98,-1946.05 4605.05,-1945.58 4609.19,-1945.19 4613.4,-1944.9 4617.64,-1944.71 4621.92,-1944.62 4626.2,-1944.62 4630.48,-1944.71"/>
<text text-anchor="start" x="4594.89" y="-1989.65" font-family="Times,serif" font-size="14.00">C0020461</text>
<text text-anchor="start" x="4585.97" y="-1975.65" font-family="Times,serif" font-size="14.00">hyperkalemia</text>
<text text-anchor="start" x="4608.12" y="-1961.65" font-family="Times,serif" font-size="14.00">34:34</text>
</g>
<!-- id_27765805_DOT_11 -->
<g id="node11" class="node">
<title>id_27765805_DOT_11</title>
<polygon fill="crimson" stroke="crimson" points="4964.38,-1772.89 4969.54,-1773.08 4974.64,-1773.37 4979.67,-1773.76 4984.61,-1774.23 4989.43,-1774.8 4994.12,-1775.47 4998.66,-1776.22 5003.03,-1777.05 5007.21,-1777.98 5011.2,-1778.98 5014.97,-1780.07 5018.51,-1781.23 5021.82,-1782.46 5024.87,-1783.77 5027.67,-1785.14 5030.21,-1786.57 5032.48,-1788.07 5034.48,-1789.61 5036.2,-1791.21 5037.65,-1792.86 5038.82,-1794.54 5039.72,-1796.26 5040.34,-1798.02 5040.7,-1799.8 5040.8,-1801.61 5040.64,-1803.43 5040.23,-1805.26 5039.58,-1807.11 5038.71,-1808.95 5037.61,-1810.8 5036.29,-1812.63 5034.78,-1814.45 5033.08,-1816.26 5031.2,-1818.04 5029.15,-1819.8 5026.95,-1821.52 5024.6,-1823.2 5022.13,-1824.85 5019.52,-1826.45 5016.81,-1827.99 5014,-1829.49 5011.09,-1830.92 5008.11,-1832.29 5005.05,-1833.6 5001.93,-1834.83 4998.75,-1835.99 4995.53,-1837.08 4992.26,-1838.08 4988.95,-1839.01 4985.62,-1839.84 4982.25,-1840.59 4978.87,-1841.26 4975.47,-1841.83 4972.05,-1842.3 4968.63,-1842.69 4965.19,-1842.98 4961.75,-1843.17 4958.31,-1843.27 4954.86,-1843.27 4951.42,-1843.17 4947.98,-1842.98 4944.54,-1842.69 4941.11,-1842.3 4937.7,-1841.83 4934.3,-1841.26 4930.91,-1840.59 4927.55,-1839.84 4924.21,-1839.01 4920.91,-1838.08 4917.64,-1837.08 4914.41,-1835.99 4911.24,-1834.83 4908.11,-1833.6 4905.06,-1832.29 4902.07,-1830.92 4899.17,-1829.49 4896.36,-1827.99 4893.64,-1826.45 4891.04,-1824.85 4888.56,-1823.2 4886.22,-1821.52 4884.01,-1819.8 4881.97,-1818.04 4880.09,-1816.26 4878.38,-1814.45 4876.87,-1812.63 4875.56,-1810.8 4874.46,-1808.95 4873.58,-1807.11 4872.94,-1805.26 4872.53,-1803.43 4872.37,-1801.61 4872.47,-1799.8 4872.82,-1798.02 4873.45,-1796.26 4874.35,-1794.54 4875.52,-1792.86 4876.96,-1791.21 4878.69,-1789.61 4880.68,-1788.07 4882.95,-1786.57 4885.49,-1785.14 4888.29,-1783.77 4891.35,-1782.46 4894.66,-1781.23 4898.2,-1780.07 4901.97,-1778.98 4905.95,-1777.98 4910.14,-1777.05 4914.5,-1776.22 4919.04,-1775.47 4923.73,-1774.8 4928.56,-1774.23 4933.49,-1773.76 4938.52,-1773.37 4943.63,-1773.08 4948.79,-1772.89 4953.98,-1772.79 4959.18,-1772.79 4964.38,-1772.89"/>
<text text-anchor="start" x="4927.41" y="-1817.83" font-family="Times,serif" font-size="14.00">C0009324</text>
<text text-anchor="start" x="4908.57" y="-1803.83" font-family="Times,serif" font-size="14.00">Bowel ulceration</text>
<text text-anchor="start" x="4940.64" y="-1789.83" font-family="Times,serif" font-size="14.00">36:37</text>
</g>
<!-- id_27765805_DOT_10&#45;&#45;id_27765805_DOT_11 -->
<g id="edge22" class="edge">
<title>id_27765805_DOT_10&#45;&#45;id_27765805_DOT_11</title>
<path fill="none" stroke="black" stroke-dasharray="1,5" d="M4675.65,-1953.19C4738.86,-1920.53 4845.18,-1865.59 4907.31,-1833.49"/>
<text text-anchor="middle" x="4765.23" y="-1896.14" font-family="Times,serif" font-size="14.00">0.773694</text>
</g>
<!-- id_27765805_DOT_10&#45;&#45;id_27765805_DOT_23 -->
<g id="edge23" class="edge">
<title>id_27765805_DOT_10&#45;&#45;id_27765805_DOT_23</title>
<path fill="none" stroke="black" stroke-dasharray="1,5" d="M4573.15,-1998.95C4505.07,-2024.48 4384.89,-2069.56 4315.07,-2095.74"/>
<text text-anchor="middle" x="4417.86" y="-2050.15" font-family="Times,serif" font-size="14.00">0.676267</text>
</g>
<!-- id_27765805_DOT_21 -->
<g id="node21" class="node">
<title>id_27765805_DOT_21</title>
<polygon fill="darkmagenta" stroke="darkmagenta" points="81.93,-3724.75 86.53,-3724.95 91.07,-3725.24 95.55,-3725.62 99.95,-3726.1 104.25,-3726.67 108.42,-3727.33 112.46,-3728.08 116.35,-3728.92 120.08,-3729.84 123.62,-3730.85 126.98,-3731.93 130.14,-3733.09 133.08,-3734.33 135.8,-3735.63 138.3,-3737 140.56,-3738.44 142.58,-3739.93 144.36,-3741.48 145.89,-3743.08 147.18,-3744.72 148.22,-3746.41 149.02,-3748.13 149.58,-3749.88 149.89,-3751.67 149.98,-3753.47 149.84,-3755.29 149.48,-3757.13 148.9,-3758.97 148.12,-3760.82 147.14,-3762.66 145.97,-3764.49 144.62,-3766.32 143.11,-3768.12 141.43,-3769.9 139.61,-3771.66 137.65,-3773.38 135.56,-3775.07 133.35,-3776.71 131.04,-3778.31 128.62,-3779.86 126.12,-3781.35 123.53,-3782.79 120.87,-3784.16 118.15,-3785.46 115.37,-3786.7 112.54,-3787.86 109.67,-3788.94 106.76,-3789.95 103.82,-3790.87 100.85,-3791.71 97.85,-3792.46 94.84,-3793.12 91.81,-3793.69 88.77,-3794.17 85.72,-3794.55 82.66,-3794.84 79.59,-3795.03 76.53,-3795.13 73.46,-3795.13 70.39,-3795.03 67.33,-3794.84 64.27,-3794.55 61.22,-3794.17 58.18,-3793.69 55.15,-3793.12 52.14,-3792.46 49.14,-3791.71 46.17,-3790.87 43.23,-3789.95 40.32,-3788.94 37.44,-3787.86 34.61,-3786.7 31.84,-3785.46 29.11,-3784.16 26.45,-3782.79 23.87,-3781.35 21.36,-3779.86 18.95,-3778.31 16.63,-3776.71 14.43,-3775.07 12.34,-3773.38 10.37,-3771.66 8.55,-3769.9 6.88,-3768.12 5.36,-3766.32 4.02,-3764.49 2.85,-3762.66 1.87,-3760.82 1.09,-3758.97 0.51,-3757.13 0.15,-3755.29 0.01,-3753.47 0.09,-3751.67 0.41,-3749.88 0.97,-3748.13 1.77,-3746.41 2.81,-3744.72 4.1,-3743.08 5.63,-3741.48 7.41,-3739.93 9.43,-3738.44 11.69,-3737 14.19,-3735.63 16.91,-3734.33 19.85,-3733.09 23.01,-3731.93 26.36,-3730.85 29.91,-3729.84 33.64,-3728.92 37.53,-3728.08 41.57,-3727.33 45.74,-3726.67 50.04,-3726.1 54.43,-3725.62 58.91,-3725.24 63.46,-3724.95 68.05,-3724.75 72.68,-3724.66 77.31,-3724.66 81.93,-3724.75"/>
<text text-anchor="start" x="45.82" y="-3769.69" font-family="Times,serif" font-size="14.00">C2243080</text>
<text text-anchor="start" x="33.2" y="-3755.69" font-family="Times,serif" font-size="14.00">bowel necrosis</text>
<text text-anchor="start" x="59.05" y="-3741.69" font-family="Times,serif" font-size="14.00">74:75</text>
</g>
<!-- id_27765805_DOT_12&#45;&#45;id_27765805_DOT_21 -->
<g id="edge7" class="edge">
<title>id_27765805_DOT_12&#45;&#45;id_27765805_DOT_21</title>
<path fill="none" stroke="black" d="M341.63,-3569.03C286.49,-3608.5 178.1,-3686.09 117.89,-3729.19"/>
<text text-anchor="middle" x="203.51" y="-3651.91" font-family="Times,serif" font-size="14.00">0.049106</text>
</g>
<!-- id_27765805_DOT_30 -->
<g id="node30" class="node">
<title>id_27765805_DOT_30</title>
<polygon fill="darkseagreen" stroke="darkseagreen" points="3181.33,-2648.85 3185.1,-2649.05 3188.82,-2649.34 3192.5,-2649.72 3196.1,-2650.2 3199.62,-2650.77 3203.05,-2651.43 3206.36,-2652.18 3209.55,-2653.02 3212.6,-2653.94 3215.51,-2654.95 3218.26,-2656.03 3220.85,-2657.19 3223.26,-2658.43 3225.49,-2659.73 3227.54,-2661.1 3229.39,-2662.54 3231.05,-2664.03 3232.51,-2665.58 3233.76,-2667.18 3234.82,-2668.82 3235.68,-2670.51 3236.33,-2672.23 3236.79,-2673.98 3237.05,-2675.77 3237.12,-2677.57 3237,-2679.39 3236.7,-2681.23 3236.23,-2683.07 3235.59,-2684.92 3234.79,-2686.76 3233.83,-2688.59 3232.73,-2690.42 3231.48,-2692.22 3230.11,-2694 3228.62,-2695.76 3227.01,-2697.48 3225.3,-2699.17 3223.49,-2700.81 3221.59,-2702.41 3219.61,-2703.96 3217.55,-2705.45 3215.43,-2706.89 3213.26,-2708.26 3211.02,-2709.56 3208.74,-2710.8 3206.42,-2711.96 3204.07,-2713.04 3201.68,-2714.05 3199.27,-2714.97 3196.83,-2715.81 3194.38,-2716.56 3191.91,-2717.22 3189.43,-2717.79 3186.93,-2718.27 3184.43,-2718.65 3181.92,-2718.94 3179.41,-2719.13 3176.9,-2719.23 3174.38,-2719.23 3171.87,-2719.13 3169.36,-2718.94 3166.85,-2718.65 3164.35,-2718.27 3161.85,-2717.79 3159.37,-2717.22 3156.9,-2716.56 3154.44,-2715.81 3152.01,-2714.97 3149.6,-2714.05 3147.21,-2713.04 3144.85,-2711.96 3142.53,-2710.8 3140.26,-2709.56 3138.02,-2708.26 3135.84,-2706.89 3133.72,-2705.45 3131.67,-2703.96 3129.69,-2702.41 3127.79,-2700.81 3125.98,-2699.17 3124.27,-2697.48 3122.66,-2695.76 3121.17,-2694 3119.79,-2692.22 3118.55,-2690.42 3117.45,-2688.59 3116.49,-2686.76 3115.69,-2684.92 3115.05,-2683.07 3114.57,-2681.23 3114.28,-2679.39 3114.16,-2677.57 3114.23,-2675.77 3114.49,-2673.98 3114.95,-2672.23 3115.6,-2670.51 3116.46,-2668.82 3117.51,-2667.18 3118.77,-2665.58 3120.23,-2664.03 3121.89,-2662.54 3123.74,-2661.1 3125.79,-2659.73 3128.02,-2658.43 3130.43,-2657.19 3133.02,-2656.03 3135.77,-2654.95 3138.68,-2653.94 3141.73,-2653.02 3144.92,-2652.18 3148.23,-2651.43 3151.66,-2650.77 3155.18,-2650.2 3158.78,-2649.72 3162.46,-2649.34 3166.18,-2649.05 3169.95,-2648.85 3173.74,-2648.76 3177.54,-2648.76 3181.33,-2648.85"/>
<text text-anchor="start" x="3146.47" y="-2693.79" font-family="Times,serif" font-size="14.00">C0242656</text>
<text text-anchor="start" x="3142.98" y="-2679.79" font-family="Times,serif" font-size="14.00">progression</text>
<text text-anchor="start" x="3152.69" y="-2665.79" font-family="Times,serif" font-size="14.00">120:120</text>
</g>
<!-- id_27765805_DOT_13&#45;&#45;id_27765805_DOT_30 -->
<g id="edge24" class="edge">
<title>id_27765805_DOT_13&#45;&#45;id_27765805_DOT_30</title>
<path fill="none" stroke="black" stroke-dasharray="1,5" d="M2813.85,-2571.54C2891.92,-2595.81 3037.36,-2641.01 3118.02,-2666.08"/>
<text text-anchor="middle" x="2939.69" y="-2621.61" font-family="Times,serif" font-size="14.00">0.771884</text>
</g>
<!-- id_27765805_DOT_26 -->
<g id="node26" class="node">
<title>id_27765805_DOT_26</title>
<polygon fill="blue" stroke="blue" points="1403.25,-731.93 1406.76,-732.12 1410.23,-732.41 1413.65,-732.8 1417.01,-733.27 1420.28,-733.85 1423.47,-734.51 1426.56,-735.26 1429.52,-736.09 1432.37,-737.02 1435.08,-738.02 1437.64,-739.11 1440.04,-740.27 1442.29,-741.5 1444.37,-742.81 1446.27,-744.18 1448,-745.61 1449.54,-747.11 1450.9,-748.65 1452.07,-750.25 1453.05,-751.9 1453.85,-753.58 1454.46,-755.31 1454.88,-757.06 1455.13,-758.84 1455.19,-760.65 1455.08,-762.47 1454.81,-764.31 1454.37,-766.15 1453.77,-767.99 1453.02,-769.84 1452.13,-771.67 1451.1,-773.49 1449.95,-775.3 1448.67,-777.08 1447.28,-778.84 1445.78,-780.56 1444.19,-782.25 1442.5,-783.89 1440.73,-785.49 1438.89,-787.04 1436.98,-788.53 1435,-789.96 1432.98,-791.33 1430.9,-792.64 1428.78,-793.87 1426.62,-795.03 1424.42,-796.12 1422.2,-797.12 1419.96,-798.05 1417.69,-798.88 1415.4,-799.64 1413.1,-800.3 1410.79,-800.87 1408.47,-801.34 1406.14,-801.73 1403.81,-802.02 1401.47,-802.21 1399.13,-802.31 1396.79,-802.31 1394.45,-802.21 1392.11,-802.02 1389.77,-801.73 1387.45,-801.34 1385.12,-800.87 1382.81,-800.3 1380.51,-799.64 1378.23,-798.88 1375.96,-798.05 1373.71,-797.12 1371.49,-796.12 1369.3,-795.03 1367.14,-793.87 1365.02,-792.64 1362.94,-791.33 1360.91,-789.96 1358.94,-788.53 1357.03,-787.04 1355.18,-785.49 1353.42,-783.89 1351.73,-782.25 1350.14,-780.56 1348.64,-778.84 1347.25,-777.08 1345.97,-775.3 1344.82,-773.49 1343.79,-771.67 1342.9,-769.84 1342.15,-767.99 1341.55,-766.15 1341.11,-764.31 1340.84,-762.47 1340.73,-760.65 1340.79,-758.84 1341.04,-757.06 1341.46,-755.31 1342.07,-753.58 1342.87,-751.9 1343.85,-750.25 1345.02,-748.65 1346.38,-747.11 1347.92,-745.61 1349.65,-744.18 1351.55,-742.81 1353.63,-741.5 1355.87,-740.27 1358.28,-739.11 1360.84,-738.02 1363.55,-737.02 1366.39,-736.09 1369.36,-735.26 1372.45,-734.51 1375.63,-733.85 1378.91,-733.27 1382.27,-732.8 1385.69,-732.41 1389.16,-732.12 1392.66,-731.93 1396.19,-731.84 1399.73,-731.84 1403.25,-731.93"/>
<text text-anchor="start" x="1368.79" y="-776.87" font-family="Times,serif" font-size="14.00">C0124498</text>
<text text-anchor="start" x="1368.03" y="-762.87" font-family="Times,serif" font-size="14.00">kayexalate</text>
<text text-anchor="start" x="1382.01" y="-748.87" font-family="Times,serif" font-size="14.00">98:98</text>
</g>
<!-- id_27765805_DOT_14&#45;&#45;id_27765805_DOT_26 -->
<g id="edge8" class="edge">
<title>id_27765805_DOT_14&#45;&#45;id_27765805_DOT_26</title>
<path fill="none" stroke="black" d="M1252.73,-438.95C1283.05,-507.46 1352.07,-663.4 1382.76,-732.74"/>
<text text-anchor="middle" x="1291.49" y="-588.64" font-family="Times,serif" font-size="14.00">0.003375</text>
</g>
<!-- id_27765805_DOT_15&#45;&#45;id_27765805_DOT_16 -->
<g id="edge9" class="edge">
<title>id_27765805_DOT_15&#45;&#45;id_27765805_DOT_16</title>
<path fill="none" stroke="black" d="M3410.26,-3563.34C3468.72,-3616.77 3591.11,-3728.65 3651.6,-3783.94"/>
<text text-anchor="middle" x="3504.68" y="-3676.44" font-family="Times,serif" font-size="14.00">0.001610</text>
</g>
<!-- id_27765805_DOT_20 -->
<g id="node20" class="node">
<title>id_27765805_DOT_20</title>
<polygon fill="blueviolet" stroke="blueviolet" points="3310.83,-3072.65 3315.3,-3072.84 3319.72,-3073.13 3324.07,-3073.51 3328.35,-3073.99 3332.52,-3074.56 3336.58,-3075.22 3340.51,-3075.97 3344.29,-3076.81 3347.91,-3077.74 3351.36,-3078.74 3354.62,-3079.82 3357.69,-3080.99 3360.55,-3082.22 3363.2,-3083.53 3365.62,-3084.9 3367.82,-3086.33 3369.79,-3087.82 3371.52,-3089.37 3373.01,-3090.97 3374.26,-3092.61 3375.27,-3094.3 3376.05,-3096.02 3376.59,-3097.78 3376.9,-3099.56 3376.98,-3101.37 3376.85,-3103.19 3376.49,-3105.02 3375.93,-3106.87 3375.17,-3108.71 3374.22,-3110.55 3373.08,-3112.39 3371.78,-3114.21 3370.3,-3116.02 3368.68,-3117.8 3366.9,-3119.55 3365,-3121.28 3362.97,-3122.96 3360.82,-3124.61 3358.57,-3126.21 3356.22,-3127.75 3353.78,-3129.25 3351.27,-3130.68 3348.69,-3132.05 3346.04,-3133.36 3343.34,-3134.59 3340.59,-3135.75 3337.79,-3136.84 3334.96,-3137.84 3332.1,-3138.76 3329.22,-3139.6 3326.31,-3140.35 3323.38,-3141.01 3320.43,-3141.58 3317.47,-3142.06 3314.51,-3142.45 3311.53,-3142.73 3308.56,-3142.93 3305.57,-3143.02 3302.59,-3143.02 3299.61,-3142.93 3296.63,-3142.73 3293.66,-3142.45 3290.69,-3142.06 3287.74,-3141.58 3284.79,-3141.01 3281.86,-3140.35 3278.95,-3139.6 3276.06,-3138.76 3273.2,-3137.84 3270.37,-3136.84 3267.58,-3135.75 3264.83,-3134.59 3262.13,-3133.36 3259.48,-3132.05 3256.9,-3130.68 3254.38,-3129.25 3251.95,-3127.75 3249.6,-3126.21 3247.35,-3124.61 3245.2,-3122.96 3243.17,-3121.28 3241.26,-3119.55 3239.49,-3117.8 3237.86,-3116.02 3236.39,-3114.21 3235.08,-3112.39 3233.95,-3110.55 3233,-3108.71 3232.23,-3106.87 3231.67,-3105.02 3231.32,-3103.19 3231.18,-3101.37 3231.27,-3099.56 3231.58,-3097.78 3232.12,-3096.02 3232.89,-3094.3 3233.91,-3092.61 3235.16,-3090.97 3236.65,-3089.37 3238.38,-3087.82 3240.35,-3086.33 3242.54,-3084.9 3244.97,-3083.53 3247.62,-3082.22 3250.48,-3080.99 3253.54,-3079.82 3256.81,-3078.74 3260.25,-3077.74 3263.88,-3076.81 3267.66,-3075.97 3271.59,-3075.22 3275.65,-3074.56 3279.82,-3073.99 3284.1,-3073.51 3288.45,-3073.13 3292.87,-3072.84 3297.34,-3072.65 3301.83,-3072.55 3306.34,-3072.55 3310.83,-3072.65"/>
<text text-anchor="start" x="3274.91" y="-3117.59" font-family="Times,serif" font-size="14.00">C1533734</text>
<text text-anchor="start" x="3263.65" y="-3103.59" font-family="Times,serif" font-size="14.00">administration</text>
<text text-anchor="start" x="3288.14" y="-3089.59" font-family="Times,serif" font-size="14.00">72:72</text>
</g>
<!-- id_27765805_DOT_15&#45;&#45;id_27765805_DOT_20 -->
<g id="edge10" class="edge">
<title>id_27765805_DOT_15&#45;&#45;id_27765805_DOT_20</title>
<path fill="none" stroke="black" d="M3371.66,-3498.41C3357.8,-3418.31 3324.05,-3223.18 3310.18,-3143.04"/>
<text text-anchor="middle" x="3314.67" y="-3323.53" font-family="Times,serif" font-size="14.00">0.001483</text>
</g>
<!-- id_27765805_DOT_17 -->
<g id="node17" class="node">
<title>id_27765805_DOT_17</title>
<polygon fill="darkgreen" stroke="darkgreen" points="1844.6,-1840.53 1848.02,-1840.72 1851.42,-1841.01 1854.76,-1841.39 1858.04,-1841.87 1861.25,-1842.44 1864.36,-1843.1 1867.38,-1843.85 1870.28,-1844.69 1873.06,-1845.61 1875.71,-1846.62 1878.21,-1847.7 1880.57,-1848.86 1882.76,-1850.1 1884.79,-1851.4 1886.66,-1852.78 1888.34,-1854.21 1889.85,-1855.7 1891.18,-1857.25 1892.32,-1858.85 1893.28,-1860.49 1894.06,-1862.18 1894.66,-1863.9 1895.07,-1865.66 1895.31,-1867.44 1895.38,-1869.24 1895.27,-1871.07 1895,-1872.9 1894.57,-1874.74 1893.98,-1876.59 1893.25,-1878.43 1892.38,-1880.27 1891.38,-1882.09 1890.25,-1883.9 1889,-1885.68 1887.64,-1887.43 1886.17,-1889.16 1884.62,-1890.84 1882.97,-1892.49 1881.24,-1894.08 1879.44,-1895.63 1877.57,-1897.12 1875.64,-1898.56 1873.66,-1899.93 1871.62,-1901.23 1869.55,-1902.47 1867.44,-1903.63 1865.29,-1904.72 1863.12,-1905.72 1860.93,-1906.64 1858.71,-1907.48 1856.48,-1908.23 1854.23,-1908.89 1851.97,-1909.46 1849.7,-1909.94 1847.42,-1910.32 1845.14,-1910.61 1842.85,-1910.81 1840.56,-1910.9 1838.27,-1910.9 1835.99,-1910.81 1833.7,-1910.61 1831.42,-1910.32 1829.14,-1909.94 1826.87,-1909.46 1824.61,-1908.89 1822.36,-1908.23 1820.13,-1907.48 1817.91,-1906.64 1815.71,-1905.72 1813.54,-1904.72 1811.4,-1903.63 1809.29,-1902.47 1807.21,-1901.23 1805.18,-1899.93 1803.2,-1898.56 1801.27,-1897.12 1799.4,-1895.63 1797.6,-1894.08 1795.87,-1892.49 1794.22,-1890.84 1792.66,-1889.16 1791.2,-1887.43 1789.84,-1885.68 1788.59,-1883.9 1787.46,-1882.09 1786.45,-1880.27 1785.58,-1878.43 1784.85,-1876.59 1784.27,-1874.74 1783.84,-1872.9 1783.57,-1871.07 1783.46,-1869.24 1783.53,-1867.44 1783.76,-1865.66 1784.18,-1863.9 1784.78,-1862.18 1785.55,-1860.49 1786.51,-1858.85 1787.66,-1857.25 1788.99,-1855.7 1790.49,-1854.21 1792.18,-1852.78 1794.04,-1851.4 1796.07,-1850.1 1798.27,-1848.86 1800.62,-1847.7 1803.13,-1846.62 1805.78,-1845.61 1808.56,-1844.69 1811.46,-1843.85 1814.47,-1843.1 1817.59,-1842.44 1820.8,-1841.87 1824.08,-1841.39 1827.42,-1841.01 1830.81,-1840.72 1834.24,-1840.53 1837.69,-1840.43 1841.15,-1840.43 1844.6,-1840.53"/>
<text text-anchor="start" x="1810.25" y="-1885.47" font-family="Times,serif" font-size="14.00">C0037688</text>
<text text-anchor="start" x="1818.03" y="-1871.47" font-family="Times,serif" font-size="14.00">sorbitol</text>
<text text-anchor="start" x="1823.47" y="-1857.47" font-family="Times,serif" font-size="14.00">57:57</text>
</g>
<!-- id_27765805_DOT_22 -->
<g id="node22" class="node">
<title>id_27765805_DOT_22</title>
<polygon fill="darkgreen" stroke="darkgreen" points="1709.21,-1454.78 1712.64,-1454.98 1716.03,-1455.27 1719.38,-1455.65 1722.66,-1456.13 1725.86,-1456.7 1728.98,-1457.36 1731.99,-1458.11 1734.9,-1458.95 1737.68,-1459.87 1740.32,-1460.87 1742.83,-1461.96 1745.18,-1463.12 1747.38,-1464.35 1749.41,-1465.66 1751.27,-1467.03 1752.96,-1468.47 1754.47,-1469.96 1755.79,-1471.51 1756.94,-1473.1 1757.9,-1474.75 1758.68,-1476.43 1759.27,-1478.16 1759.69,-1479.91 1759.93,-1481.69 1759.99,-1483.5 1759.89,-1485.32 1759.62,-1487.16 1759.19,-1489 1758.6,-1490.85 1757.87,-1492.69 1757,-1494.52 1755.99,-1496.35 1754.86,-1498.15 1753.62,-1499.93 1752.26,-1501.69 1750.79,-1503.41 1749.23,-1505.1 1747.59,-1506.74 1745.86,-1508.34 1744.05,-1509.89 1742.19,-1511.38 1740.26,-1512.81 1738.27,-1514.19 1736.24,-1515.49 1734.17,-1516.72 1732.06,-1517.89 1729.91,-1518.97 1727.74,-1519.98 1725.54,-1520.9 1723.33,-1521.74 1721.09,-1522.49 1718.84,-1523.15 1716.58,-1523.72 1714.31,-1524.2 1712.04,-1524.58 1709.76,-1524.87 1707.47,-1525.06 1705.18,-1525.16 1702.89,-1525.16 1700.6,-1525.06 1698.32,-1524.87 1696.03,-1524.58 1693.76,-1524.2 1691.49,-1523.72 1689.23,-1523.15 1686.98,-1522.49 1684.74,-1521.74 1682.53,-1520.9 1680.33,-1519.98 1678.16,-1518.97 1676.02,-1517.89 1673.9,-1516.72 1671.83,-1515.49 1669.8,-1514.19 1667.82,-1512.81 1665.89,-1511.38 1664.02,-1509.89 1662.21,-1508.34 1660.49,-1506.74 1658.84,-1505.1 1657.28,-1503.41 1655.82,-1501.69 1654.46,-1499.93 1653.21,-1498.15 1652.08,-1496.35 1651.07,-1494.52 1650.2,-1492.69 1649.47,-1490.85 1648.89,-1489 1648.46,-1487.16 1648.18,-1485.32 1648.08,-1483.5 1648.14,-1481.69 1648.38,-1479.91 1648.8,-1478.16 1649.39,-1476.43 1650.17,-1474.75 1651.13,-1473.1 1652.28,-1471.51 1653.6,-1469.96 1655.11,-1468.47 1656.8,-1467.03 1658.66,-1465.66 1660.69,-1464.35 1662.89,-1463.12 1665.24,-1461.96 1667.75,-1460.87 1670.39,-1459.87 1673.17,-1458.95 1676.08,-1458.11 1679.09,-1457.36 1682.21,-1456.7 1685.41,-1456.13 1688.69,-1455.65 1692.04,-1455.27 1695.43,-1454.98 1698.86,-1454.78 1702.31,-1454.69 1705.76,-1454.69 1709.21,-1454.78"/>
<text text-anchor="start" x="1674.87" y="-1499.72" font-family="Times,serif" font-size="14.00">C0037688</text>
<text text-anchor="start" x="1682.65" y="-1485.72" font-family="Times,serif" font-size="14.00">sorbitol</text>
<text text-anchor="start" x="1688.09" y="-1471.72" font-family="Times,serif" font-size="14.00">77:77</text>
</g>
<!-- id_27765805_DOT_17&#45;&#45;id_27765805_DOT_22 -->
<g id="edge11" class="edge">
<title>id_27765805_DOT_17&#45;&#45;id_27765805_DOT_22</title>
<path fill="none" stroke="black" d="M1827.17,-1840.75C1801.33,-1767.13 1741.53,-1596.75 1715.97,-1523.93"/>
<text text-anchor="middle" x="1745.32" y="-1685.14" font-family="Times,serif" font-size="14.00">0.009761</text>
</g>
<!-- id_27765805_DOT_17&#45;&#45;id_27765805_DOT_25 -->
<g id="edge25" class="edge">
<title>id_27765805_DOT_17&#45;&#45;id_27765805_DOT_25</title>
<path fill="none" stroke="black" stroke-dasharray="1,5" d="M1848.35,-1910.36C1868.65,-1989.2 1918.07,-2181.11 1938.45,-2260.27"/>
<text text-anchor="middle" x="1867.15" y="-2088.12" font-family="Times,serif" font-size="14.00">0.831587</text>
</g>
<!-- id_27765805_DOT_18&#45;&#45;id_27765805_DOT_25 -->
<g id="edge26" class="edge">
<title>id_27765805_DOT_18&#45;&#45;id_27765805_DOT_25</title>
<path fill="none" stroke="black" stroke-dasharray="1,5" d="M1646.58,-2538.81C1712.62,-2485.36 1852,-2372.57 1915.16,-2321.45"/>
<text text-anchor="middle" x="1754.62" y="-2432.93" font-family="Times,serif" font-size="14.00">0.740177</text>
</g>
<!-- id_27765805_DOT_19 -->
<g id="node19" class="node">
<title>id_27765805_DOT_19</title>
<polygon fill="blue" stroke="blue" points="1558.83,-1088.71 1562.33,-1088.9 1565.8,-1089.19 1569.22,-1089.57 1572.58,-1090.05 1575.86,-1090.62 1579.04,-1091.28 1582.13,-1092.03 1585.1,-1092.87 1587.94,-1093.79 1590.65,-1094.8 1593.21,-1095.88 1595.62,-1097.04 1597.86,-1098.28 1599.94,-1099.58 1601.85,-1100.95 1603.57,-1102.39 1605.11,-1103.88 1606.47,-1105.43 1607.64,-1107.03 1608.63,-1108.67 1609.42,-1110.36 1610.03,-1112.08 1610.46,-1113.83 1610.7,-1115.62 1610.76,-1117.42 1610.66,-1119.24 1610.38,-1121.08 1609.94,-1122.92 1609.34,-1124.77 1608.59,-1126.61 1607.7,-1128.45 1606.68,-1130.27 1605.52,-1132.07 1604.24,-1133.86 1602.85,-1135.61 1601.35,-1137.33 1599.76,-1139.02 1598.07,-1140.66 1596.31,-1142.26 1594.46,-1143.81 1592.55,-1145.3 1590.58,-1146.74 1588.55,-1148.11 1586.47,-1149.41 1584.35,-1150.65 1582.19,-1151.81 1580,-1152.89 1577.78,-1153.9 1575.53,-1154.82 1573.26,-1155.66 1570.98,-1156.41 1568.68,-1157.07 1566.37,-1157.64 1564.05,-1158.12 1561.72,-1158.5 1559.38,-1158.79 1557.04,-1158.98 1554.7,-1159.08 1552.36,-1159.08 1550.02,-1158.98 1547.68,-1158.79 1545.35,-1158.5 1543.02,-1158.12 1540.7,-1157.64 1538.39,-1157.07 1536.09,-1156.41 1533.8,-1155.66 1531.53,-1154.82 1529.29,-1153.9 1527.07,-1152.89 1524.87,-1151.81 1522.71,-1150.65 1520.59,-1149.41 1518.51,-1148.11 1516.49,-1146.74 1514.51,-1145.3 1512.6,-1143.81 1510.76,-1142.26 1508.99,-1140.66 1507.31,-1139.02 1505.71,-1137.33 1504.21,-1135.61 1502.82,-1133.86 1501.54,-1132.07 1500.39,-1130.27 1499.36,-1128.45 1498.47,-1126.61 1497.72,-1124.77 1497.13,-1122.92 1496.69,-1121.08 1496.41,-1119.24 1496.3,-1117.42 1496.37,-1115.62 1496.61,-1113.83 1497.03,-1112.08 1497.64,-1110.36 1498.44,-1108.67 1499.42,-1107.03 1500.59,-1105.43 1501.95,-1103.88 1503.49,-1102.39 1505.22,-1100.95 1507.12,-1099.58 1509.2,-1098.28 1511.45,-1097.04 1513.85,-1095.88 1516.42,-1094.8 1519.12,-1093.79 1521.97,-1092.87 1524.94,-1092.03 1528.02,-1091.28 1531.21,-1090.62 1534.48,-1090.05 1537.84,-1089.57 1541.26,-1089.19 1544.73,-1088.9 1548.24,-1088.71 1551.76,-1088.61 1555.3,-1088.61 1558.83,-1088.71"/>
<text text-anchor="start" x="1524.36" y="-1133.64" font-family="Times,serif" font-size="14.00">C0124498</text>
<text text-anchor="start" x="1523.61" y="-1119.64" font-family="Times,serif" font-size="14.00">kayexalate</text>
<text text-anchor="start" x="1537.59" y="-1105.64" font-family="Times,serif" font-size="14.00">71:71</text>
</g>
<!-- id_27765805_DOT_19&#45;&#45;id_27765805_DOT_22 -->
<g id="edge27" class="edge">
<title>id_27765805_DOT_19&#45;&#45;id_27765805_DOT_22</title>
<path fill="none" stroke="black" stroke-dasharray="1,5" d="M1567.42,-1157.63C1595.98,-1227.1 1661.04,-1385.34 1689.85,-1455.42"/>
<text text-anchor="middle" x="1602.39" y="-1309.32" font-family="Times,serif" font-size="14.00">0.928592</text>
</g>
<!-- id_27765805_DOT_19&#45;&#45;id_27765805_DOT_26 -->
<g id="edge12" class="edge">
<title>id_27765805_DOT_19&#45;&#45;id_27765805_DOT_26</title>
<path fill="none" stroke="black" d="M1538.47,-1089.31C1508.58,-1020.76 1442.09,-868.29 1412.57,-800.58"/>
<text text-anchor="middle" x="1449.27" y="-947.75" font-family="Times,serif" font-size="14.00">0.000743</text>
</g>
<!-- id_27765805_DOT_27 -->
<g id="node27" class="node">
<title>id_27765805_DOT_27</title>
<polygon fill="blueviolet" stroke="blueviolet" points="3687.51,-3090.04 3691.98,-3090.24 3696.4,-3090.53 3700.75,-3090.91 3705.03,-3091.39 3709.2,-3091.96 3713.26,-3092.62 3717.19,-3093.37 3720.97,-3094.21 3724.59,-3095.13 3728.04,-3096.14 3731.31,-3097.22 3734.37,-3098.38 3737.23,-3099.62 3739.88,-3100.92 3742.31,-3102.29 3744.5,-3103.73 3746.47,-3105.22 3748.2,-3106.77 3749.69,-3108.37 3750.94,-3110.01 3751.95,-3111.7 3752.73,-3113.42 3753.27,-3115.17 3753.58,-3116.96 3753.67,-3118.76 3753.53,-3120.58 3753.18,-3122.42 3752.62,-3124.26 3751.85,-3126.11 3750.9,-3127.95 3749.77,-3129.78 3748.46,-3131.61 3746.99,-3133.41 3745.36,-3135.19 3743.59,-3136.95 3741.68,-3138.67 3739.65,-3140.36 3737.5,-3142 3735.25,-3143.6 3732.9,-3145.15 3730.47,-3146.64 3727.95,-3148.08 3725.37,-3149.45 3722.72,-3150.75 3720.02,-3151.99 3717.27,-3153.15 3714.48,-3154.23 3711.65,-3155.24 3708.79,-3156.16 3705.9,-3157 3702.99,-3157.75 3700.06,-3158.41 3697.11,-3158.98 3694.16,-3159.46 3691.19,-3159.84 3688.22,-3160.13 3685.24,-3160.32 3682.26,-3160.42 3679.27,-3160.42 3676.29,-3160.32 3673.31,-3160.13 3670.34,-3159.84 3667.37,-3159.46 3664.42,-3158.98 3661.47,-3158.41 3658.54,-3157.75 3655.63,-3157 3652.75,-3156.16 3649.88,-3155.24 3647.05,-3154.23 3644.26,-3153.15 3641.51,-3151.99 3638.81,-3150.75 3636.16,-3149.45 3633.58,-3148.08 3631.06,-3146.64 3628.63,-3145.15 3626.28,-3143.6 3624.03,-3142 3621.88,-3140.36 3619.85,-3138.67 3617.95,-3136.95 3616.17,-3135.19 3614.55,-3133.41 3613.07,-3131.61 3611.76,-3129.78 3610.63,-3127.95 3609.68,-3126.11 3608.92,-3124.26 3608.36,-3122.42 3608,-3120.58 3607.87,-3118.76 3607.95,-3116.96 3608.26,-3115.17 3608.8,-3113.42 3609.58,-3111.7 3610.59,-3110.01 3611.84,-3108.37 3613.33,-3106.77 3615.06,-3105.22 3617.03,-3103.73 3619.23,-3102.29 3621.65,-3100.92 3624.3,-3099.62 3627.16,-3098.38 3630.23,-3097.22 3633.49,-3096.14 3636.94,-3095.13 3640.56,-3094.21 3644.34,-3093.37 3648.27,-3092.62 3652.33,-3091.96 3656.5,-3091.39 3660.78,-3090.91 3665.13,-3090.53 3669.55,-3090.24 3674.02,-3090.04 3678.51,-3089.95 3683.02,-3089.95 3687.51,-3090.04"/>
<text text-anchor="start" x="3651.6" y="-3134.98" font-family="Times,serif" font-size="14.00">C1533734</text>
<text text-anchor="start" x="3640.33" y="-3120.98" font-family="Times,serif" font-size="14.00">administration</text>
<text text-anchor="start" x="3664.82" y="-3106.98" font-family="Times,serif" font-size="14.00">99:99</text>
</g>
<!-- id_27765805_DOT_20&#45;&#45;id_27765805_DOT_27 -->
<g id="edge13" class="edge">
<title>id_27765805_DOT_20&#45;&#45;id_27765805_DOT_27</title>
<path fill="none" stroke="black" d="M3374.05,-3111.02C3440.65,-3114.09 3540.44,-3118.7 3607.96,-3121.82"/>
<text text-anchor="middle" x="3464.76" y="-3119.22" font-family="Times,serif" font-size="14.00">0.000659</text>
</g>
<!-- id_27765805_DOT_20&#45;&#45;id_27765805_DOT_30 -->
<g id="edge28" class="edge">
<title>id_27765805_DOT_20&#45;&#45;id_27765805_DOT_30</title>
<path fill="none" stroke="black" stroke-dasharray="1,5" d="M3293.46,-3072.75C3269.24,-2992.83 3210.15,-2797.87 3186.09,-2718.48"/>
<text text-anchor="middle" x="3213.53" y="-2898.42" font-family="Times,serif" font-size="14.00">0.726824</text>
</g>
<!-- id_27765805_DOT_28&#45;&#45;id_27765805_DOT_30 -->
<g id="edge29" class="edge">
<title>id_27765805_DOT_28&#45;&#45;id_27765805_DOT_30</title>
<path fill="none" stroke="black" stroke-dasharray="1,5" d="M3468.97,-2423.79C3405.75,-2479.87 3273.58,-2597.11 3210.54,-2653.03"/>
<text text-anchor="middle" x="3313.5" y="-2541.21" font-family="Times,serif" font-size="14.00">0.822015</text>
</g>
</g>
</svg>
