<?xml version="1.0" encoding="UTF-8" standalone="no"?>
<!DOCTYPE svg PUBLIC "-//W3C//DTD SVG 1.1//EN"
 "http://www.w3.org/Graphics/SVG/1.1/DTD/svg11.dtd">
<!-- Generated by graphviz version 2.42.3 (20191010.1750)
 -->
<!-- Title: MST Pages: 1 -->
<svg width="2691pt" height="3922pt"
 viewBox="0.00 0.00 2691.14 3922.16" xmlns="http://www.w3.org/2000/svg" xmlns:xlink="http://www.w3.org/1999/xlink">
<g id="graph0" class="graph" transform="scale(1 1) rotate(0) translate(4 3918.16)">
<title>MST</title>
<polygon fill="white" stroke="transparent" points="-4,4 -4,-3918.16 2687.14,-3918.16 2687.14,4 -4,4"/>
<!-- id_27822189_DOT_1 -->
<g id="node1" class="node">
<title>id_27822189_DOT_1</title>
<polygon fill="aquamarine" stroke="aquamarine" points="1147.72,-3446.06 1151.15,-3446.26 1154.55,-3446.54 1157.89,-3446.93 1161.17,-3447.41 1164.37,-3447.98 1167.49,-3448.64 1170.51,-3449.39 1173.41,-3450.23 1176.19,-3451.15 1178.84,-3452.15 1181.34,-3453.24 1183.69,-3454.4 1185.89,-3455.63 1187.92,-3456.94 1189.78,-3458.31 1191.47,-3459.74 1192.98,-3461.24 1194.31,-3462.79 1195.45,-3464.38 1196.41,-3466.03 1197.19,-3467.71 1197.79,-3469.44 1198.2,-3471.19 1198.44,-3472.97 1198.5,-3474.78 1198.4,-3476.6 1198.13,-3478.44 1197.7,-3480.28 1197.11,-3482.12 1196.38,-3483.97 1195.51,-3485.8 1194.51,-3487.63 1193.37,-3489.43 1192.13,-3491.21 1190.77,-3492.97 1189.3,-3494.69 1187.74,-3496.38 1186.1,-3498.02 1184.37,-3499.62 1182.57,-3501.17 1180.7,-3502.66 1178.77,-3504.09 1176.78,-3505.46 1174.75,-3506.77 1172.68,-3508 1170.57,-3509.17 1168.42,-3510.25 1166.25,-3511.26 1164.05,-3512.18 1161.84,-3513.02 1159.6,-3513.77 1157.35,-3514.43 1155.09,-3515 1152.83,-3515.48 1150.55,-3515.86 1148.27,-3516.15 1145.98,-3516.34 1143.69,-3516.44 1141.4,-3516.44 1139.11,-3516.34 1136.83,-3516.15 1134.54,-3515.86 1132.27,-3515.48 1130,-3515 1127.74,-3514.43 1125.49,-3513.77 1123.26,-3513.02 1121.04,-3512.18 1118.84,-3511.26 1116.67,-3510.25 1114.53,-3509.17 1112.42,-3508 1110.34,-3506.77 1108.31,-3505.46 1106.33,-3504.09 1104.4,-3502.66 1102.53,-3501.17 1100.73,-3499.62 1099,-3498.02 1097.35,-3496.38 1095.79,-3494.69 1094.33,-3492.97 1092.97,-3491.21 1091.72,-3489.43 1090.59,-3487.63 1089.58,-3485.8 1088.71,-3483.97 1087.98,-3482.12 1087.4,-3480.28 1086.97,-3478.44 1086.7,-3476.6 1086.59,-3474.78 1086.65,-3472.97 1086.89,-3471.19 1087.31,-3469.44 1087.9,-3467.71 1088.68,-3466.03 1089.64,-3464.38 1090.79,-3462.79 1092.11,-3461.24 1093.62,-3459.74 1095.31,-3458.31 1097.17,-3456.94 1099.2,-3455.63 1101.4,-3454.4 1103.75,-3453.24 1106.26,-3452.15 1108.9,-3451.15 1111.68,-3450.23 1114.59,-3449.39 1117.6,-3448.64 1120.72,-3447.98 1123.92,-3447.41 1127.2,-3446.93 1130.55,-3446.54 1133.94,-3446.26 1137.37,-3446.06 1140.82,-3445.97 1144.27,-3445.97 1147.72,-3446.06"/>
<text text-anchor="start" x="1113.38" y="-3491" font-family="Times,serif" font-size="14.00">C0553544</text>
<text text-anchor="start" x="1128.17" y="-3477" font-family="Times,serif" font-size="14.00">Gaze</text>
<text text-anchor="start" x="1133.6" y="-3463" font-family="Times,serif" font-size="14.00">8:8</text>
</g>
<!-- id_27822189_DOT_2 -->
<g id="node2" class="node">
<title>id_27822189_DOT_2</title>
<polygon fill="aquamarine" stroke="aquamarine" points="1114.65,-3843.65 1118.08,-3843.84 1121.47,-3844.13 1124.81,-3844.52 1128.09,-3844.99 1131.3,-3845.56 1134.41,-3846.23 1137.43,-3846.98 1140.33,-3847.81 1143.11,-3848.74 1145.76,-3849.74 1148.26,-3850.83 1150.62,-3851.99 1152.81,-3853.22 1154.85,-3854.53 1156.71,-3855.9 1158.39,-3857.33 1159.9,-3858.83 1161.23,-3860.37 1162.37,-3861.97 1163.33,-3863.62 1164.11,-3865.3 1164.71,-3867.02 1165.12,-3868.78 1165.36,-3870.56 1165.43,-3872.37 1165.32,-3874.19 1165.05,-3876.02 1164.62,-3877.87 1164.04,-3879.71 1163.3,-3881.56 1162.43,-3883.39 1161.43,-3885.21 1160.3,-3887.02 1159.05,-3888.8 1157.69,-3890.56 1156.23,-3892.28 1154.67,-3893.96 1153.02,-3895.61 1151.29,-3897.21 1149.49,-3898.75 1147.62,-3900.25 1145.69,-3901.68 1143.71,-3903.05 1141.67,-3904.36 1139.6,-3905.59 1137.49,-3906.75 1135.35,-3907.84 1133.17,-3908.84 1130.98,-3909.77 1128.76,-3910.6 1126.53,-3911.35 1124.28,-3912.02 1122.02,-3912.59 1119.75,-3913.06 1117.47,-3913.45 1115.19,-3913.74 1112.9,-3913.93 1110.61,-3914.03 1108.32,-3914.03 1106.04,-3913.93 1103.75,-3913.74 1101.47,-3913.45 1099.19,-3913.06 1096.92,-3912.59 1094.66,-3912.02 1092.41,-3911.35 1090.18,-3910.6 1087.96,-3909.77 1085.77,-3908.84 1083.59,-3907.84 1081.45,-3906.75 1079.34,-3905.59 1077.26,-3904.36 1075.23,-3903.05 1073.25,-3901.68 1071.32,-3900.25 1069.45,-3898.75 1067.65,-3897.21 1065.92,-3895.61 1064.27,-3893.96 1062.71,-3892.28 1061.25,-3890.56 1059.89,-3888.8 1058.64,-3887.02 1057.51,-3885.21 1056.51,-3883.39 1055.63,-3881.56 1054.9,-3879.71 1054.32,-3877.87 1053.89,-3876.02 1053.62,-3874.19 1053.51,-3872.37 1053.58,-3870.56 1053.82,-3868.78 1054.23,-3867.02 1054.83,-3865.3 1055.6,-3863.62 1056.57,-3861.97 1057.71,-3860.37 1059.04,-3858.83 1060.55,-3857.33 1062.23,-3855.9 1064.09,-3854.53 1066.13,-3853.22 1068.32,-3851.99 1070.68,-3850.83 1073.18,-3849.74 1075.83,-3848.74 1078.61,-3847.81 1081.51,-3846.98 1084.53,-3846.23 1087.64,-3845.56 1090.85,-3844.99 1094.13,-3844.52 1097.47,-3844.13 1100.86,-3843.84 1104.29,-3843.65 1107.74,-3843.55 1111.2,-3843.55 1114.65,-3843.65"/>
<text text-anchor="start" x="1080.3" y="-3888.59" font-family="Times,serif" font-size="14.00">C0553544</text>
<text text-anchor="start" x="1095.09" y="-3874.59" font-family="Times,serif" font-size="14.00">Gaze</text>
<text text-anchor="start" x="1093.52" y="-3860.59" font-family="Times,serif" font-size="14.00">16:16</text>
</g>
<!-- id_27822189_DOT_1&#45;&#45;id_27822189_DOT_2 -->
<g id="edge1" class="edge">
<title>id_27822189_DOT_1&#45;&#45;id_27822189_DOT_2</title>
<path fill="none" stroke="black" d="M1139.61,-3516.49C1133.33,-3591.93 1118.67,-3768.21 1112.4,-3843.59"/>
<text text-anchor="middle" x="1099.75" y="-3682.84" font-family="Times,serif" font-size="14.00">0.000501</text>
</g>
<!-- id_27822189_DOT_4 -->
<g id="node4" class="node">
<title>id_27822189_DOT_4</title>
<polygon fill="aquamarine" stroke="aquamarine" points="1474.79,-3173.91 1478.22,-3174.1 1481.61,-3174.39 1484.96,-3174.78 1488.24,-3175.25 1491.44,-3175.82 1494.56,-3176.49 1497.57,-3177.24 1500.48,-3178.07 1503.26,-3179 1505.9,-3180 1508.41,-3181.09 1510.76,-3182.25 1512.96,-3183.48 1514.99,-3184.79 1516.85,-3186.16 1518.54,-3187.59 1520.05,-3189.09 1521.37,-3190.63 1522.52,-3192.23 1523.48,-3193.88 1524.26,-3195.56 1524.85,-3197.28 1525.27,-3199.04 1525.51,-3200.82 1525.57,-3202.63 1525.47,-3204.45 1525.19,-3206.29 1524.76,-3208.13 1524.18,-3209.97 1523.45,-3211.82 1522.58,-3213.65 1521.57,-3215.47 1520.44,-3217.28 1519.19,-3219.06 1517.83,-3220.82 1516.37,-3222.54 1514.81,-3224.22 1513.16,-3225.87 1511.44,-3227.47 1509.63,-3229.01 1507.76,-3230.51 1505.83,-3231.94 1503.85,-3233.31 1501.82,-3234.62 1499.75,-3235.85 1497.63,-3237.01 1495.49,-3238.1 1493.32,-3239.1 1491.12,-3240.03 1488.91,-3240.86 1486.67,-3241.61 1484.42,-3242.28 1482.16,-3242.85 1479.89,-3243.32 1477.62,-3243.71 1475.33,-3244 1473.05,-3244.19 1470.76,-3244.29 1468.47,-3244.29 1466.18,-3244.19 1463.9,-3244 1461.61,-3243.71 1459.34,-3243.32 1457.07,-3242.85 1454.81,-3242.28 1452.56,-3241.61 1450.32,-3240.86 1448.11,-3240.03 1445.91,-3239.1 1443.74,-3238.1 1441.59,-3237.01 1439.48,-3235.85 1437.41,-3234.62 1435.38,-3233.31 1433.39,-3231.94 1431.46,-3230.51 1429.6,-3229.01 1427.79,-3227.47 1426.07,-3225.87 1424.42,-3224.22 1422.86,-3222.54 1421.4,-3220.82 1420.04,-3219.06 1418.79,-3217.28 1417.66,-3215.47 1416.65,-3213.65 1415.78,-3211.82 1415.05,-3209.97 1414.46,-3208.13 1414.03,-3206.29 1413.76,-3204.45 1413.66,-3202.63 1413.72,-3200.82 1413.96,-3199.04 1414.38,-3197.28 1414.97,-3195.56 1415.75,-3193.88 1416.71,-3192.23 1417.86,-3190.63 1419.18,-3189.09 1420.69,-3187.59 1422.38,-3186.16 1424.24,-3184.79 1426.27,-3183.48 1428.47,-3182.25 1430.82,-3181.09 1433.33,-3180 1435.97,-3179 1438.75,-3178.07 1441.66,-3177.24 1444.67,-3176.49 1447.79,-3175.82 1450.99,-3175.25 1454.27,-3174.78 1457.62,-3174.39 1461.01,-3174.1 1464.44,-3173.91 1467.89,-3173.82 1471.34,-3173.82 1474.79,-3173.91"/>
<text text-anchor="start" x="1440.45" y="-3218.85" font-family="Times,serif" font-size="14.00">C0553544</text>
<text text-anchor="start" x="1456.79" y="-3204.85" font-family="Times,serif" font-size="14.00">gaze</text>
<text text-anchor="start" x="1453.67" y="-3190.85" font-family="Times,serif" font-size="14.00">34:34</text>
</g>
<!-- id_27822189_DOT_1&#45;&#45;id_27822189_DOT_4 -->
<g id="edge2" class="edge">
<title>id_27822189_DOT_1&#45;&#45;id_27822189_DOT_4</title>
<path fill="none" stroke="black" d="M1178.17,-3451.56C1242.41,-3398.11 1376.66,-3286.4 1437.91,-3235.43"/>
<text text-anchor="middle" x="1281.79" y="-3346.29" font-family="Times,serif" font-size="14.00">0.012926</text>
</g>
<!-- id_27822189_DOT_18 -->
<g id="node18" class="node">
<title>id_27822189_DOT_18</title>
<polygon fill="aquamarine" stroke="aquamarine" points="754.97,-3528.9 758.39,-3529.1 761.79,-3529.39 765.13,-3529.77 768.41,-3530.25 771.62,-3530.82 774.73,-3531.48 777.75,-3532.23 780.65,-3533.07 783.43,-3533.99 786.08,-3535 788.58,-3536.08 790.94,-3537.24 793.13,-3538.48 795.16,-3539.78 797.03,-3541.15 798.71,-3542.59 800.22,-3544.08 801.55,-3545.63 802.69,-3547.23 803.65,-3548.87 804.43,-3550.56 805.03,-3552.28 805.44,-3554.03 805.68,-3555.82 805.74,-3557.62 805.64,-3559.44 805.37,-3561.28 804.94,-3563.12 804.35,-3564.97 803.62,-3566.81 802.75,-3568.64 801.75,-3570.47 800.62,-3572.27 799.37,-3574.05 798.01,-3575.81 796.54,-3577.53 794.99,-3579.22 793.34,-3580.86 791.61,-3582.46 789.81,-3584.01 787.94,-3585.5 786.01,-3586.94 784.03,-3588.31 781.99,-3589.61 779.92,-3590.85 777.81,-3592.01 775.66,-3593.09 773.49,-3594.1 771.3,-3595.02 769.08,-3595.86 766.85,-3596.61 764.6,-3597.27 762.34,-3597.84 760.07,-3598.32 757.79,-3598.7 755.51,-3598.99 753.22,-3599.18 750.93,-3599.28 748.64,-3599.28 746.36,-3599.18 744.07,-3598.99 741.79,-3598.7 739.51,-3598.32 737.24,-3597.84 734.98,-3597.27 732.73,-3596.61 730.5,-3595.86 728.28,-3595.02 726.08,-3594.1 723.91,-3593.09 721.77,-3592.01 719.66,-3590.85 717.58,-3589.61 715.55,-3588.31 713.57,-3586.94 711.64,-3585.5 709.77,-3584.01 707.97,-3582.46 706.24,-3580.86 704.59,-3579.22 703.03,-3577.53 701.57,-3575.81 700.21,-3574.05 698.96,-3572.27 697.83,-3570.47 696.82,-3568.64 695.95,-3566.81 695.22,-3564.97 694.64,-3563.12 694.21,-3561.28 693.94,-3559.44 693.83,-3557.62 693.9,-3555.82 694.13,-3554.03 694.55,-3552.28 695.15,-3550.56 695.92,-3548.87 696.88,-3547.23 698.03,-3545.63 699.36,-3544.08 700.86,-3542.59 702.55,-3541.15 704.41,-3539.78 706.44,-3538.48 708.64,-3537.24 710.99,-3536.08 713.5,-3535 716.15,-3533.99 718.93,-3533.07 721.83,-3532.23 724.84,-3531.48 727.96,-3530.82 731.16,-3530.25 734.45,-3529.77 737.79,-3529.39 741.18,-3529.1 744.61,-3528.9 748.06,-3528.81 751.52,-3528.81 754.97,-3528.9"/>
<text text-anchor="start" x="720.62" y="-3573.84" font-family="Times,serif" font-size="14.00">C0553544</text>
<text text-anchor="start" x="735.41" y="-3559.84" font-family="Times,serif" font-size="14.00">Gaze</text>
<text text-anchor="start" x="726.84" y="-3545.84" font-family="Times,serif" font-size="14.00">142:142</text>
</g>
<!-- id_27822189_DOT_1&#45;&#45;id_27822189_DOT_18 -->
<g id="edge3" class="edge">
<title>id_27822189_DOT_1&#45;&#45;id_27822189_DOT_18</title>
<path fill="none" stroke="black" d="M1093.2,-3491.61C1019.75,-3507.1 882.09,-3536.14 805.25,-3552.35"/>
<text text-anchor="middle" x="922.98" y="-3524.78" font-family="Times,serif" font-size="14.00">0.009780</text>
</g>
<!-- id_27822189_DOT_3 -->
<g id="node3" class="node">
<title>id_27822189_DOT_3</title>
<polygon fill="bisque" stroke="bisque" points="2262.88,-0.23 2268.3,-0.42 2273.66,-0.71 2278.94,-1.09 2284.13,-1.57 2289.19,-2.14 2294.11,-2.8 2298.88,-3.55 2303.46,-4.39 2307.85,-5.31 2312.04,-6.32 2315.99,-7.4 2319.71,-8.57 2323.18,-9.8 2326.39,-11.1 2329.33,-12.48 2332,-13.91 2334.38,-15.4 2336.48,-16.95 2338.29,-18.55 2339.81,-20.19 2341.04,-21.88 2341.98,-23.6 2342.63,-25.36 2343.01,-27.14 2343.11,-28.94 2342.94,-30.77 2342.52,-32.6 2341.84,-34.44 2340.91,-36.29 2339.76,-38.13 2338.38,-39.97 2336.79,-41.79 2335.01,-43.6 2333.04,-45.38 2330.89,-47.13 2328.57,-48.86 2326.11,-50.54 2323.51,-52.19 2320.78,-53.78 2317.93,-55.33 2314.98,-56.82 2311.93,-58.26 2308.79,-59.63 2305.58,-60.94 2302.31,-62.17 2298.97,-63.33 2295.58,-64.42 2292.15,-65.42 2288.68,-66.34 2285.18,-67.18 2281.65,-67.93 2278.1,-68.59 2274.53,-69.16 2270.94,-69.64 2267.34,-70.02 2263.74,-70.31 2260.13,-70.51 2256.51,-70.6 2252.89,-70.6 2249.28,-70.51 2245.66,-70.31 2242.06,-70.02 2238.46,-69.64 2234.88,-69.16 2231.3,-68.59 2227.75,-67.93 2224.22,-67.18 2220.72,-66.34 2217.25,-65.42 2213.82,-64.42 2210.43,-63.33 2207.09,-62.17 2203.82,-60.94 2200.61,-59.63 2197.47,-58.26 2194.43,-56.82 2191.47,-55.33 2188.63,-53.78 2185.89,-52.19 2183.29,-50.54 2180.83,-48.86 2178.52,-47.13 2176.37,-45.38 2174.39,-43.6 2172.61,-41.79 2171.02,-39.97 2169.64,-38.13 2168.49,-36.29 2167.57,-34.44 2166.89,-32.6 2166.46,-30.77 2166.29,-28.94 2166.39,-27.14 2166.77,-25.36 2167.43,-23.6 2168.37,-21.88 2169.6,-20.19 2171.11,-18.55 2172.92,-16.95 2175.02,-15.4 2177.4,-13.91 2180.07,-12.48 2183.01,-11.1 2186.22,-9.8 2189.69,-8.57 2193.41,-7.4 2197.37,-6.32 2201.55,-5.31 2205.94,-4.39 2210.53,-3.55 2215.29,-2.8 2220.21,-2.14 2225.28,-1.57 2230.46,-1.09 2235.74,-0.71 2241.1,-0.42 2246.52,-0.23 2251.97,-0.13 2257.43,-0.13 2262.88,-0.23"/>
<text text-anchor="start" x="2225.53" y="-45.17" font-family="Times,serif" font-size="14.00">C0037420</text>
<text text-anchor="start" x="2203.97" y="-31.17" font-family="Times,serif" font-size="14.00">social interactions</text>
<text text-anchor="start" x="2238.76" y="-17.17" font-family="Times,serif" font-size="14.00">26:27</text>
</g>
<!-- id_27822189_DOT_5 -->
<g id="node5" class="node">
<title>id_27822189_DOT_5</title>
<polygon fill="bisque" stroke="bisque" points="2239.63,-404.49 2245.04,-404.68 2250.4,-404.97 2255.69,-405.35 2260.87,-405.83 2265.93,-406.4 2270.86,-407.06 2275.62,-407.81 2280.21,-408.65 2284.6,-409.57 2288.78,-410.58 2292.74,-411.66 2296.46,-412.83 2299.93,-414.06 2303.14,-415.37 2306.08,-416.74 2308.74,-418.17 2311.13,-419.66 2313.22,-421.21 2315.03,-422.81 2316.55,-424.45 2317.78,-426.14 2318.72,-427.86 2319.38,-429.62 2319.75,-431.4 2319.85,-433.2 2319.69,-435.03 2319.26,-436.86 2318.58,-438.71 2317.66,-440.55 2316.5,-442.39 2315.13,-444.23 2313.54,-446.05 2311.75,-447.86 2309.78,-449.64 2307.63,-451.39 2305.32,-453.12 2302.85,-454.8 2300.25,-456.45 2297.52,-458.04 2294.67,-459.59 2291.72,-461.09 2288.67,-462.52 2285.54,-463.89 2282.33,-465.2 2279.05,-466.43 2275.72,-467.59 2272.33,-468.68 2268.9,-469.68 2265.43,-470.6 2261.92,-471.44 2258.39,-472.19 2254.84,-472.85 2251.27,-473.42 2247.69,-473.9 2244.09,-474.29 2240.48,-474.57 2236.87,-474.77 2233.25,-474.86 2229.64,-474.86 2226.02,-474.77 2222.41,-474.57 2218.8,-474.29 2215.21,-473.9 2211.62,-473.42 2208.05,-472.85 2204.5,-472.19 2200.97,-471.44 2197.46,-470.6 2193.99,-469.68 2190.56,-468.68 2187.17,-467.59 2183.84,-466.43 2180.56,-465.2 2177.35,-463.89 2174.22,-462.52 2171.17,-461.09 2168.22,-459.59 2165.37,-458.04 2162.64,-456.45 2160.04,-454.8 2157.57,-453.12 2155.26,-451.39 2153.11,-449.64 2151.14,-447.86 2149.35,-446.05 2147.76,-444.23 2146.39,-442.39 2145.23,-440.55 2144.31,-438.71 2143.63,-436.86 2143.2,-435.03 2143.04,-433.2 2143.14,-431.4 2143.51,-429.62 2144.17,-427.86 2145.11,-426.14 2146.34,-424.45 2147.86,-422.81 2149.67,-421.21 2151.76,-419.66 2154.15,-418.17 2156.81,-416.74 2159.75,-415.37 2162.96,-414.06 2166.43,-412.83 2170.15,-411.66 2174.11,-410.58 2178.29,-409.57 2182.68,-408.65 2187.27,-407.81 2192.03,-407.06 2196.96,-406.4 2202.02,-405.83 2207.2,-405.35 2212.49,-404.97 2217.85,-404.68 2223.26,-404.49 2228.71,-404.39 2234.18,-404.39 2239.63,-404.49"/>
<text text-anchor="start" x="2202.28" y="-449.43" font-family="Times,serif" font-size="14.00">C0037420</text>
<text text-anchor="start" x="2180.71" y="-435.43" font-family="Times,serif" font-size="14.00">social interactions</text>
<text text-anchor="start" x="2215.5" y="-421.43" font-family="Times,serif" font-size="14.00">37:38</text>
</g>
<!-- id_27822189_DOT_3&#45;&#45;id_27822189_DOT_5 -->
<g id="edge4" class="edge">
<title>id_27822189_DOT_3&#45;&#45;id_27822189_DOT_5</title>
<path fill="none" stroke="black" d="M2252.66,-70.89C2248.25,-147.57 2237.88,-327.85 2233.48,-404.33"/>
<text text-anchor="middle" x="2216.82" y="-240.41" font-family="Times,serif" font-size="14.00">0.003519</text>
</g>
<!-- id_27822189_DOT_6 -->
<g id="node6" class="node">
<title>id_27822189_DOT_6</title>
<polygon fill="aquamarine" stroke="aquamarine" points="1847.78,-3363.47 1851.21,-3363.66 1854.61,-3363.95 1857.95,-3364.33 1861.23,-3364.81 1864.43,-3365.38 1867.55,-3366.04 1870.57,-3366.79 1873.47,-3367.63 1876.25,-3368.55 1878.9,-3369.56 1881.4,-3370.64 1883.75,-3371.8 1885.95,-3373.04 1887.98,-3374.34 1889.84,-3375.72 1891.53,-3377.15 1893.04,-3378.64 1894.37,-3380.19 1895.51,-3381.79 1896.47,-3383.43 1897.25,-3385.12 1897.84,-3386.84 1898.26,-3388.6 1898.5,-3390.38 1898.56,-3392.18 1898.46,-3394.01 1898.19,-3395.84 1897.76,-3397.68 1897.17,-3399.53 1896.44,-3401.37 1895.57,-3403.21 1894.57,-3405.03 1893.43,-3406.83 1892.19,-3408.62 1890.83,-3410.37 1889.36,-3412.1 1887.8,-3413.78 1886.16,-3415.43 1884.43,-3417.02 1882.62,-3418.57 1880.76,-3420.06 1878.83,-3421.5 1876.84,-3422.87 1874.81,-3424.17 1872.74,-3425.41 1870.63,-3426.57 1868.48,-3427.65 1866.31,-3428.66 1864.11,-3429.58 1861.9,-3430.42 1859.66,-3431.17 1857.41,-3431.83 1855.15,-3432.4 1852.88,-3432.88 1850.61,-3433.26 1848.33,-3433.55 1846.04,-3433.75 1843.75,-3433.84 1841.46,-3433.84 1839.17,-3433.75 1836.89,-3433.55 1834.6,-3433.26 1832.33,-3432.88 1830.06,-3432.4 1827.8,-3431.83 1825.55,-3431.17 1823.32,-3430.42 1821.1,-3429.58 1818.9,-3428.66 1816.73,-3427.65 1814.59,-3426.57 1812.47,-3425.41 1810.4,-3424.17 1808.37,-3422.87 1806.39,-3421.5 1804.46,-3420.06 1802.59,-3418.57 1800.78,-3417.02 1799.06,-3415.43 1797.41,-3413.78 1795.85,-3412.1 1794.39,-3410.37 1793.03,-3408.62 1791.78,-3406.83 1790.65,-3405.03 1789.64,-3403.21 1788.77,-3401.37 1788.04,-3399.53 1787.46,-3397.68 1787.03,-3395.84 1786.76,-3394.01 1786.65,-3392.18 1786.71,-3390.38 1786.95,-3388.6 1787.37,-3386.84 1787.96,-3385.12 1788.74,-3383.43 1789.7,-3381.79 1790.85,-3380.19 1792.17,-3378.64 1793.68,-3377.15 1795.37,-3375.72 1797.23,-3374.34 1799.26,-3373.04 1801.46,-3371.8 1803.81,-3370.64 1806.32,-3369.56 1808.96,-3368.55 1811.74,-3367.63 1814.65,-3366.79 1817.66,-3366.04 1820.78,-3365.38 1823.98,-3364.81 1827.26,-3364.33 1830.61,-3363.95 1834,-3363.66 1837.43,-3363.47 1840.88,-3363.37 1844.33,-3363.37 1847.78,-3363.47"/>
<text text-anchor="start" x="1813.44" y="-3408.41" font-family="Times,serif" font-size="14.00">C0553544</text>
<text text-anchor="start" x="1829.79" y="-3394.41" font-family="Times,serif" font-size="14.00">gaze</text>
<text text-anchor="start" x="1826.66" y="-3380.41" font-family="Times,serif" font-size="14.00">59:59</text>
</g>
<!-- id_27822189_DOT_4&#45;&#45;id_27822189_DOT_6 -->
<g id="edge5" class="edge">
<title>id_27822189_DOT_4&#45;&#45;id_27822189_DOT_6</title>
<path fill="none" stroke="black" d="M1509.53,-3229.34C1579.07,-3264.67 1722.04,-3337.34 1796,-3374.92"/>
<text text-anchor="middle" x="1626.52" y="-3304.93" font-family="Times,serif" font-size="14.00">0.004072</text>
</g>
<!-- id_27822189_DOT_20 -->
<g id="node20" class="node">
<title>id_27822189_DOT_20</title>
<polygon fill="aquamarine" stroke="aquamarine" points="1451.91,-2762.79 1455.34,-2762.99 1458.73,-2763.28 1462.07,-2763.66 1465.35,-2764.14 1468.56,-2764.71 1471.67,-2765.37 1474.69,-2766.12 1477.59,-2766.96 1480.37,-2767.88 1483.02,-2768.88 1485.52,-2769.97 1487.88,-2771.13 1490.07,-2772.37 1492.11,-2773.67 1493.97,-2775.04 1495.65,-2776.48 1497.16,-2777.97 1498.49,-2779.52 1499.63,-2781.11 1500.59,-2782.76 1501.37,-2784.44 1501.97,-2786.17 1502.38,-2787.92 1502.62,-2789.7 1502.69,-2791.51 1502.58,-2793.33 1502.31,-2795.17 1501.88,-2797.01 1501.3,-2798.86 1500.56,-2800.7 1499.69,-2802.53 1498.69,-2804.36 1497.56,-2806.16 1496.31,-2807.94 1494.95,-2809.7 1493.49,-2811.42 1491.93,-2813.11 1490.28,-2814.75 1488.55,-2816.35 1486.75,-2817.9 1484.88,-2819.39 1482.95,-2820.82 1480.97,-2822.2 1478.93,-2823.5 1476.86,-2824.74 1474.75,-2825.9 1472.61,-2826.98 1470.43,-2827.99 1468.24,-2828.91 1466.02,-2829.75 1463.79,-2830.5 1461.54,-2831.16 1459.28,-2831.73 1457.01,-2832.21 1454.73,-2832.59 1452.45,-2832.88 1450.16,-2833.07 1447.87,-2833.17 1445.58,-2833.17 1443.3,-2833.07 1441.01,-2832.88 1438.73,-2832.59 1436.45,-2832.21 1434.18,-2831.73 1431.92,-2831.16 1429.67,-2830.5 1427.44,-2829.75 1425.22,-2828.91 1423.03,-2827.99 1420.85,-2826.98 1418.71,-2825.9 1416.6,-2824.74 1414.52,-2823.5 1412.49,-2822.2 1410.51,-2820.82 1408.58,-2819.39 1406.71,-2817.9 1404.91,-2816.35 1403.18,-2814.75 1401.53,-2813.11 1399.97,-2811.42 1398.51,-2809.7 1397.15,-2807.94 1395.9,-2806.16 1394.77,-2804.36 1393.77,-2802.53 1392.89,-2800.7 1392.16,-2798.86 1391.58,-2797.01 1391.15,-2795.17 1390.88,-2793.33 1390.77,-2791.51 1390.84,-2789.7 1391.08,-2787.92 1391.49,-2786.17 1392.09,-2784.44 1392.86,-2782.76 1393.83,-2781.11 1394.97,-2779.52 1396.3,-2777.97 1397.81,-2776.48 1399.49,-2775.04 1401.35,-2773.67 1403.39,-2772.37 1405.58,-2771.13 1407.94,-2769.97 1410.44,-2768.88 1413.09,-2767.88 1415.87,-2766.96 1418.77,-2766.12 1421.79,-2765.37 1424.9,-2764.71 1428.11,-2764.14 1431.39,-2763.66 1434.73,-2763.28 1438.12,-2762.99 1441.55,-2762.79 1445,-2762.7 1448.46,-2762.7 1451.91,-2762.79"/>
<text text-anchor="start" x="1417.56" y="-2807.73" font-family="Times,serif" font-size="14.00">C0553544</text>
<text text-anchor="start" x="1433.91" y="-2793.73" font-family="Times,serif" font-size="14.00">gaze</text>
<text text-anchor="start" x="1423.78" y="-2779.73" font-family="Times,serif" font-size="14.00">153:153</text>
</g>
<!-- id_27822189_DOT_4&#45;&#45;id_27822189_DOT_20 -->
<g id="edge6" class="edge">
<title>id_27822189_DOT_4&#45;&#45;id_27822189_DOT_20</title>
<path fill="none" stroke="black" d="M1467.64,-3173.64C1463.32,-3095.93 1453.03,-2911.17 1448.7,-2833.4"/>
<text text-anchor="middle" x="1431.92" y="-3006.32" font-family="Times,serif" font-size="14.00">0.025236</text>
</g>
<!-- id_27822189_DOT_14 -->
<g id="node14" class="node">
<title>id_27822189_DOT_14</title>
<polygon fill="cadetblue" stroke="cadetblue" points="2632.34,-412.06 2635.77,-412.25 2639.16,-412.54 2642.51,-412.92 2645.79,-413.4 2648.99,-413.97 2652.11,-414.63 2655.12,-415.38 2658.03,-416.22 2660.81,-417.14 2663.45,-418.15 2665.96,-419.23 2668.31,-420.39 2670.51,-421.63 2672.54,-422.93 2674.4,-424.31 2676.09,-425.74 2677.59,-427.23 2678.92,-428.78 2680.07,-430.38 2681.03,-432.02 2681.81,-433.71 2682.4,-435.43 2682.82,-437.19 2683.06,-438.97 2683.12,-440.77 2683.01,-442.6 2682.74,-444.43 2682.31,-446.27 2681.73,-448.12 2681,-449.96 2680.13,-451.8 2679.12,-453.62 2677.99,-455.43 2676.74,-457.21 2675.38,-458.96 2673.92,-460.69 2672.36,-462.37 2670.71,-464.02 2668.98,-465.61 2667.18,-467.16 2665.31,-468.65 2663.38,-470.09 2661.4,-471.46 2659.37,-472.76 2657.29,-474 2655.18,-475.16 2653.04,-476.25 2650.87,-477.25 2648.67,-478.17 2646.45,-479.01 2644.22,-479.76 2641.97,-480.42 2639.71,-480.99 2637.44,-481.47 2635.16,-481.85 2632.88,-482.14 2630.6,-482.34 2628.31,-482.43 2626.02,-482.43 2623.73,-482.34 2621.44,-482.14 2619.16,-481.85 2616.88,-481.47 2614.61,-480.99 2612.35,-480.42 2610.11,-479.76 2607.87,-479.01 2605.66,-478.17 2603.46,-477.25 2601.29,-476.25 2599.14,-475.16 2597.03,-474 2594.96,-472.76 2592.93,-471.46 2590.94,-470.09 2589.01,-468.65 2587.14,-467.16 2585.34,-465.61 2583.61,-464.02 2581.97,-462.37 2580.41,-460.69 2578.94,-458.96 2577.58,-457.21 2576.33,-455.43 2575.2,-453.62 2574.2,-451.8 2573.33,-449.96 2572.6,-448.12 2572.01,-446.27 2571.58,-444.43 2571.31,-442.6 2571.21,-440.77 2571.27,-438.97 2571.51,-437.19 2571.92,-435.43 2572.52,-433.71 2573.3,-432.02 2574.26,-430.38 2575.4,-428.78 2576.73,-427.23 2578.24,-425.74 2579.93,-424.31 2581.79,-422.93 2583.82,-421.63 2586.02,-420.39 2588.37,-419.23 2590.87,-418.15 2593.52,-417.14 2596.3,-416.22 2599.2,-415.38 2602.22,-414.63 2605.34,-413.97 2608.54,-413.4 2611.82,-412.92 2615.16,-412.54 2618.56,-412.25 2621.99,-412.06 2625.43,-411.96 2628.89,-411.96 2632.34,-412.06"/>
<text text-anchor="start" x="2597.99" y="-457" font-family="Times,serif" font-size="14.00">C0425245</text>
<text text-anchor="start" x="2603.44" y="-443" font-family="Times,serif" font-size="14.00">mobility</text>
<text text-anchor="start" x="2604.22" y="-429" font-family="Times,serif" font-size="14.00">107:107</text>
</g>
<!-- id_27822189_DOT_5&#45;&#45;id_27822189_DOT_14 -->
<g id="edge11" class="edge">
<title>id_27822189_DOT_5&#45;&#45;id_27822189_DOT_14</title>
<path fill="none" stroke="black" stroke-dasharray="1,5" d="M2317.31,-441.27C2394.6,-442.75 2505.88,-444.88 2571.92,-446.14"/>
<text text-anchor="middle" x="2418.88" y="-446.51" font-family="Times,serif" font-size="14.00">0.578111</text>
</g>
<!-- id_27822189_DOT_19 -->
<g id="node19" class="node">
<title>id_27822189_DOT_19</title>
<polygon fill="crimson" stroke="crimson" points="1951.9,-695.41 1955.33,-695.61 1958.72,-695.9 1962.07,-696.28 1965.35,-696.76 1968.55,-697.33 1971.67,-697.99 1974.68,-698.74 1977.59,-699.58 1980.37,-700.5 1983.01,-701.51 1985.52,-702.59 1987.87,-703.75 1990.07,-704.99 1992.1,-706.29 1993.96,-707.66 1995.65,-709.1 1997.16,-710.59 1998.48,-712.14 1999.63,-713.74 2000.59,-715.38 2001.37,-717.07 2001.96,-718.79 2002.38,-720.54 2002.62,-722.33 2002.68,-724.13 2002.58,-725.95 2002.3,-727.79 2001.87,-729.63 2001.29,-731.48 2000.56,-733.32 1999.69,-735.15 1998.68,-736.98 1997.55,-738.78 1996.3,-740.56 1994.94,-742.32 1993.48,-744.04 1991.92,-745.73 1990.27,-747.37 1988.55,-748.97 1986.74,-750.52 1984.87,-752.01 1982.95,-753.45 1980.96,-754.82 1978.93,-756.12 1976.86,-757.36 1974.74,-758.52 1972.6,-759.6 1970.43,-760.61 1968.23,-761.53 1966.02,-762.37 1963.78,-763.12 1961.53,-763.78 1959.27,-764.35 1957,-764.83 1954.73,-765.21 1952.44,-765.5 1950.16,-765.69 1947.87,-765.79 1945.58,-765.79 1943.29,-765.69 1941.01,-765.5 1938.72,-765.21 1936.45,-764.83 1934.18,-764.35 1931.92,-763.78 1929.67,-763.12 1927.43,-762.37 1925.22,-761.53 1923.02,-760.61 1920.85,-759.6 1918.71,-758.52 1916.59,-757.36 1914.52,-756.12 1912.49,-754.82 1910.5,-753.45 1908.58,-752.01 1906.71,-750.52 1904.9,-748.97 1903.18,-747.37 1901.53,-745.73 1899.97,-744.04 1898.51,-742.32 1897.15,-740.56 1895.9,-738.78 1894.77,-736.98 1893.76,-735.15 1892.89,-733.32 1892.16,-731.48 1891.58,-729.63 1891.14,-727.79 1890.87,-725.95 1890.77,-724.13 1890.83,-722.33 1891.07,-720.54 1891.49,-718.79 1892.08,-717.07 1892.86,-715.38 1893.82,-713.74 1894.97,-712.14 1896.29,-710.59 1897.8,-709.1 1899.49,-707.66 1901.35,-706.29 1903.38,-704.99 1905.58,-703.75 1907.93,-702.59 1910.44,-701.51 1913.08,-700.5 1915.86,-699.58 1918.77,-698.74 1921.78,-697.99 1924.9,-697.33 1928.1,-696.76 1931.38,-696.28 1934.73,-695.9 1938.12,-695.61 1941.55,-695.41 1945,-695.32 1948.45,-695.32 1951.9,-695.41"/>
<text text-anchor="start" x="1917.56" y="-740.35" font-family="Times,serif" font-size="14.00">C0026767</text>
<text text-anchor="start" x="1924.18" y="-726.35" font-family="Times,serif" font-size="14.00">partners</text>
<text text-anchor="start" x="1923.78" y="-712.35" font-family="Times,serif" font-size="14.00">144:144</text>
</g>
<!-- id_27822189_DOT_5&#45;&#45;id_27822189_DOT_19 -->
<g id="edge12" class="edge">
<title>id_27822189_DOT_5&#45;&#45;id_27822189_DOT_19</title>
<path fill="none" stroke="black" stroke-dasharray="1,5" d="M2200.43,-471.32C2145.52,-527.43 2031.84,-643.58 1977.27,-699.35"/>
<text text-anchor="middle" x="2062.6" y="-588.13" font-family="Times,serif" font-size="14.00">0.901692</text>
</g>
<!-- id_27822189_DOT_8 -->
<g id="node8" class="node">
<title>id_27822189_DOT_8</title>
<polygon fill="aquamarine" stroke="aquamarine" points="2162.03,-3594.84 2165.46,-3595.03 2168.86,-3595.32 2172.2,-3595.7 2175.48,-3596.18 2178.68,-3596.75 2181.8,-3597.41 2184.82,-3598.16 2187.72,-3599 2190.5,-3599.92 2193.15,-3600.93 2195.65,-3602.01 2198,-3603.18 2200.2,-3604.41 2202.23,-3605.72 2204.09,-3607.09 2205.78,-3608.52 2207.29,-3610.01 2208.62,-3611.56 2209.76,-3613.16 2210.72,-3614.8 2211.5,-3616.49 2212.1,-3618.21 2212.51,-3619.97 2212.75,-3621.75 2212.81,-3623.55 2212.71,-3625.38 2212.44,-3627.21 2212.01,-3629.06 2211.42,-3630.9 2210.69,-3632.74 2209.82,-3634.58 2208.82,-3636.4 2207.69,-3638.21 2206.44,-3639.99 2205.08,-3641.74 2203.61,-3643.47 2202.05,-3645.15 2200.41,-3646.8 2198.68,-3648.39 2196.88,-3649.94 2195.01,-3651.44 2193.08,-3652.87 2191.09,-3654.24 2189.06,-3655.55 2186.99,-3656.78 2184.88,-3657.94 2182.73,-3659.03 2180.56,-3660.03 2178.36,-3660.95 2176.15,-3661.79 2173.91,-3662.54 2171.67,-3663.2 2169.41,-3663.77 2167.14,-3664.25 2164.86,-3664.64 2162.58,-3664.92 2160.29,-3665.12 2158,-3665.21 2155.71,-3665.21 2153.42,-3665.12 2151.14,-3664.92 2148.86,-3664.64 2146.58,-3664.25 2144.31,-3663.77 2142.05,-3663.2 2139.8,-3662.54 2137.57,-3661.79 2135.35,-3660.95 2133.15,-3660.03 2130.98,-3659.03 2128.84,-3657.94 2126.73,-3656.78 2124.65,-3655.55 2122.62,-3654.24 2120.64,-3652.87 2118.71,-3651.44 2116.84,-3649.94 2115.04,-3648.39 2113.31,-3646.8 2111.66,-3645.15 2110.1,-3643.47 2108.64,-3641.74 2107.28,-3639.99 2106.03,-3638.21 2104.9,-3636.4 2103.89,-3634.58 2103.02,-3632.74 2102.29,-3630.9 2101.71,-3629.06 2101.28,-3627.21 2101.01,-3625.38 2100.9,-3623.55 2100.96,-3621.75 2101.2,-3619.97 2101.62,-3618.21 2102.21,-3616.49 2102.99,-3614.8 2103.95,-3613.16 2105.1,-3611.56 2106.42,-3610.01 2107.93,-3608.52 2109.62,-3607.09 2111.48,-3605.72 2113.51,-3604.41 2115.71,-3603.18 2118.06,-3602.01 2120.57,-3600.93 2123.21,-3599.92 2125.99,-3599 2128.9,-3598.16 2131.91,-3597.41 2135.03,-3596.75 2138.23,-3596.18 2141.51,-3595.7 2144.86,-3595.32 2148.25,-3595.03 2151.68,-3594.84 2155.13,-3594.74 2158.59,-3594.74 2162.03,-3594.84"/>
<text text-anchor="start" x="2127.69" y="-3639.78" font-family="Times,serif" font-size="14.00">C0553544</text>
<text text-anchor="start" x="2144.04" y="-3625.78" font-family="Times,serif" font-size="14.00">gaze</text>
<text text-anchor="start" x="2140.91" y="-3611.78" font-family="Times,serif" font-size="14.00">72:72</text>
</g>
<!-- id_27822189_DOT_6&#45;&#45;id_27822189_DOT_8 -->
<g id="edge7" class="edge">
<title>id_27822189_DOT_6&#45;&#45;id_27822189_DOT_8</title>
<path fill="none" stroke="black" d="M1876.24,-3423.37C1935.06,-3466.68 2056.26,-3555.91 2118.35,-3601.63"/>
<text text-anchor="middle" x="1971.04" y="-3515.3" font-family="Times,serif" font-size="14.00">0.002243</text>
</g>
<!-- id_27822189_DOT_7 -->
<g id="node7" class="node">
<title>id_27822189_DOT_7</title>
<polygon fill="blue" stroke="blue" points="1437.18,-512.66 1440.61,-512.85 1444,-513.14 1447.35,-513.53 1450.63,-514 1453.83,-514.57 1456.95,-515.24 1459.96,-515.99 1462.87,-516.82 1465.65,-517.75 1468.29,-518.75 1470.8,-519.84 1473.15,-521 1475.35,-522.23 1477.38,-523.54 1479.24,-524.91 1480.93,-526.34 1482.44,-527.84 1483.76,-529.38 1484.91,-530.98 1485.87,-532.63 1486.65,-534.31 1487.24,-536.03 1487.66,-537.79 1487.9,-539.57 1487.96,-541.38 1487.85,-543.2 1487.58,-545.03 1487.15,-546.88 1486.57,-548.72 1485.84,-550.56 1484.97,-552.4 1483.96,-554.22 1482.83,-556.03 1481.58,-557.81 1480.22,-559.57 1478.76,-561.29 1477.2,-562.97 1475.55,-564.62 1473.82,-566.22 1472.02,-567.76 1470.15,-569.26 1468.22,-570.69 1466.24,-572.06 1464.21,-573.37 1462.13,-574.6 1460.02,-575.76 1457.88,-576.85 1455.71,-577.85 1453.51,-578.78 1451.29,-579.61 1449.06,-580.36 1446.81,-581.03 1444.55,-581.6 1442.28,-582.07 1440,-582.46 1437.72,-582.75 1435.44,-582.94 1433.15,-583.03 1430.86,-583.03 1428.57,-582.94 1426.28,-582.75 1424,-582.46 1421.72,-582.07 1419.45,-581.6 1417.19,-581.03 1414.95,-580.36 1412.71,-579.61 1410.5,-578.78 1408.3,-577.85 1406.13,-576.85 1403.98,-575.76 1401.87,-574.6 1399.8,-573.37 1397.77,-572.06 1395.78,-570.69 1393.85,-569.26 1391.98,-567.76 1390.18,-566.22 1388.45,-564.62 1386.81,-562.97 1385.25,-561.29 1383.78,-559.57 1382.42,-557.81 1381.17,-556.03 1380.04,-554.22 1379.04,-552.4 1378.17,-550.56 1377.44,-548.72 1376.85,-546.88 1376.42,-545.03 1376.15,-543.2 1376.05,-541.38 1376.11,-539.57 1376.35,-537.79 1376.76,-536.03 1377.36,-534.31 1378.14,-532.63 1379.1,-530.98 1380.24,-529.38 1381.57,-527.84 1383.08,-526.34 1384.77,-524.91 1386.63,-523.54 1388.66,-522.23 1390.86,-521 1393.21,-519.84 1395.71,-518.75 1398.36,-517.75 1401.14,-516.82 1404.04,-515.99 1407.06,-515.24 1410.18,-514.57 1413.38,-514 1416.66,-513.53 1420,-513.14 1423.4,-512.85 1426.83,-512.66 1430.27,-512.56 1433.73,-512.56 1437.18,-512.66"/>
<text text-anchor="start" x="1402.83" y="-557.6" font-family="Times,serif" font-size="14.00">C0039309</text>
<text text-anchor="start" x="1413.47" y="-543.6" font-family="Times,serif" font-size="14.00">targets</text>
<text text-anchor="start" x="1416.06" y="-529.6" font-family="Times,serif" font-size="14.00">64:64</text>
</g>
<!-- id_27822189_DOT_9 -->
<g id="node9" class="node">
<title>id_27822189_DOT_9</title>
<polygon fill="blue" stroke="blue" points="1581.09,-883.04 1584.52,-883.23 1587.91,-883.52 1591.25,-883.9 1594.53,-884.38 1597.74,-884.95 1600.85,-885.61 1603.87,-886.36 1606.77,-887.2 1609.55,-888.12 1612.2,-889.13 1614.7,-890.21 1617.06,-891.37 1619.25,-892.61 1621.28,-893.91 1623.15,-895.28 1624.83,-896.72 1626.34,-898.21 1627.67,-899.76 1628.81,-901.36 1629.77,-903 1630.55,-904.69 1631.15,-906.41 1631.56,-908.16 1631.8,-909.95 1631.87,-911.75 1631.76,-913.57 1631.49,-915.41 1631.06,-917.25 1630.48,-919.1 1629.74,-920.94 1628.87,-922.78 1627.87,-924.6 1626.74,-926.4 1625.49,-928.19 1624.13,-929.94 1622.67,-931.66 1621.11,-933.35 1619.46,-934.99 1617.73,-936.59 1615.93,-938.14 1614.06,-939.63 1612.13,-941.07 1610.15,-942.44 1608.11,-943.74 1606.04,-944.98 1603.93,-946.14 1601.79,-947.22 1599.61,-948.23 1597.42,-949.15 1595.2,-949.99 1592.97,-950.74 1590.72,-951.4 1588.46,-951.97 1586.19,-952.45 1583.91,-952.83 1581.63,-953.12 1579.34,-953.31 1577.05,-953.41 1574.76,-953.41 1572.48,-953.31 1570.19,-953.12 1567.91,-952.83 1565.63,-952.45 1563.36,-951.97 1561.1,-951.4 1558.85,-950.74 1556.62,-949.99 1554.4,-949.15 1552.21,-948.23 1550.03,-947.22 1547.89,-946.14 1545.78,-944.98 1543.7,-943.74 1541.67,-942.44 1539.69,-941.07 1537.76,-939.63 1535.89,-938.14 1534.09,-936.59 1532.36,-934.99 1530.71,-933.35 1529.15,-931.66 1527.69,-929.94 1526.33,-928.19 1525.08,-926.4 1523.95,-924.6 1522.95,-922.78 1522.07,-920.94 1521.34,-919.1 1520.76,-917.25 1520.33,-915.41 1520.06,-913.57 1519.95,-911.75 1520.02,-909.95 1520.25,-908.16 1520.67,-906.41 1521.27,-904.69 1522.04,-903 1523.01,-901.36 1524.15,-899.76 1525.48,-898.21 1526.99,-896.72 1528.67,-895.28 1530.53,-893.91 1532.57,-892.61 1534.76,-891.37 1537.12,-890.21 1539.62,-889.13 1542.27,-888.12 1545.05,-887.2 1547.95,-886.36 1550.97,-885.61 1554.08,-884.95 1557.29,-884.38 1560.57,-883.9 1563.91,-883.52 1567.3,-883.23 1570.73,-883.04 1574.18,-882.94 1577.64,-882.94 1581.09,-883.04"/>
<text text-anchor="start" x="1546.74" y="-927.98" font-family="Times,serif" font-size="14.00">C0039309</text>
<text text-anchor="start" x="1557.37" y="-913.98" font-family="Times,serif" font-size="14.00">targets</text>
<text text-anchor="start" x="1559.96" y="-899.98" font-family="Times,serif" font-size="14.00">75:75</text>
</g>
<!-- id_27822189_DOT_7&#45;&#45;id_27822189_DOT_9 -->
<g id="edge8" class="edge">
<title>id_27822189_DOT_7&#45;&#45;id_27822189_DOT_9</title>
<path fill="none" stroke="black" d="M1445.16,-581.65C1472.42,-651.83 1534.87,-812.55 1562.42,-883.46"/>
<text text-anchor="middle" x="1477.54" y="-735.36" font-family="Times,serif" font-size="14.00">0.001883</text>
</g>
<!-- id_27822189_DOT_11 -->
<g id="node11" class="node">
<title>id_27822189_DOT_11</title>
<polygon fill="aquamarine" stroke="aquamarine" points="2456.17,-3829.45 2459.6,-3829.64 2462.99,-3829.93 2466.34,-3830.31 2469.62,-3830.79 2472.82,-3831.36 2475.94,-3832.02 2478.95,-3832.77 2481.86,-3833.61 2484.64,-3834.53 2487.28,-3835.54 2489.79,-3836.62 2492.14,-3837.78 2494.34,-3839.02 2496.37,-3840.32 2498.23,-3841.7 2499.92,-3843.13 2501.43,-3844.62 2502.75,-3846.17 2503.9,-3847.77 2504.86,-3849.41 2505.64,-3851.1 2506.23,-3852.82 2506.65,-3854.58 2506.89,-3856.36 2506.95,-3858.16 2506.84,-3859.99 2506.57,-3861.82 2506.14,-3863.66 2505.56,-3865.51 2504.83,-3867.35 2503.96,-3869.19 2502.95,-3871.01 2501.82,-3872.81 2500.57,-3874.6 2499.21,-3876.35 2497.75,-3878.08 2496.19,-3879.76 2494.54,-3881.41 2492.81,-3883 2491.01,-3884.55 2489.14,-3886.04 2487.21,-3887.48 2485.23,-3888.85 2483.2,-3890.15 2481.12,-3891.39 2479.01,-3892.55 2476.87,-3893.63 2474.7,-3894.64 2472.5,-3895.56 2470.28,-3896.4 2468.05,-3897.15 2465.8,-3897.81 2463.54,-3898.38 2461.27,-3898.86 2459,-3899.24 2456.71,-3899.53 2454.43,-3899.73 2452.14,-3899.82 2449.85,-3899.82 2447.56,-3899.73 2445.27,-3899.53 2442.99,-3899.24 2440.71,-3898.86 2438.44,-3898.38 2436.18,-3897.81 2433.94,-3897.15 2431.7,-3896.4 2429.49,-3895.56 2427.29,-3894.64 2425.12,-3893.63 2422.97,-3892.55 2420.86,-3891.39 2418.79,-3890.15 2416.76,-3888.85 2414.77,-3887.48 2412.84,-3886.04 2410.97,-3884.55 2409.17,-3883 2407.44,-3881.41 2405.8,-3879.76 2404.24,-3878.08 2402.77,-3876.35 2401.41,-3874.6 2400.16,-3872.81 2399.03,-3871.01 2398.03,-3869.19 2397.16,-3867.35 2396.43,-3865.51 2395.84,-3863.66 2395.41,-3861.82 2395.14,-3859.99 2395.04,-3858.16 2395.1,-3856.36 2395.34,-3854.58 2395.75,-3852.82 2396.35,-3851.1 2397.13,-3849.41 2398.09,-3847.77 2399.23,-3846.17 2400.56,-3844.62 2402.07,-3843.13 2403.76,-3841.7 2405.62,-3840.32 2407.65,-3839.02 2409.85,-3837.78 2412.2,-3836.62 2414.7,-3835.54 2417.35,-3834.53 2420.13,-3833.61 2423.03,-3832.77 2426.05,-3832.02 2429.17,-3831.36 2432.37,-3830.79 2435.65,-3830.31 2438.99,-3829.93 2442.39,-3829.64 2445.82,-3829.45 2449.26,-3829.35 2452.72,-3829.35 2456.17,-3829.45"/>
<text text-anchor="start" x="2421.82" y="-3874.39" font-family="Times,serif" font-size="14.00">C0553544</text>
<text text-anchor="start" x="2438.17" y="-3860.39" font-family="Times,serif" font-size="14.00">gaze</text>
<text text-anchor="start" x="2435.05" y="-3846.39" font-family="Times,serif" font-size="14.00">85:85</text>
</g>
<!-- id_27822189_DOT_8&#45;&#45;id_27822189_DOT_11 -->
<g id="edge9" class="edge">
<title>id_27822189_DOT_8&#45;&#45;id_27822189_DOT_11</title>
<path fill="none" stroke="black" d="M2189.18,-3655.76C2244.39,-3699.8 2356.53,-3789.24 2414.49,-3835.47"/>
<text text-anchor="middle" x="2275.58" y="-3748.41" font-family="Times,serif" font-size="14.00">0.002741</text>
</g>
<!-- id_27822189_DOT_9&#45;&#45;id_27822189_DOT_19 -->
<g id="edge13" class="edge">
<title>id_27822189_DOT_9&#45;&#45;id_27822189_DOT_19</title>
<path fill="none" stroke="black" stroke-dasharray="1,5" d="M1622.5,-894.6C1696.03,-857.4 1837.71,-785.71 1906.83,-750.74"/>
<text text-anchor="middle" x="1738.42" y="-825.47" font-family="Times,serif" font-size="14.00">0.764610</text>
</g>
<!-- id_27822189_DOT_22 -->
<g id="node22" class="node">
<title>id_27822189_DOT_22</title>
<polygon fill="darkgreen" stroke="darkgreen" points="1260.58,-1179.74 1264.01,-1179.93 1267.4,-1180.22 1270.75,-1180.6 1274.03,-1181.08 1277.23,-1181.65 1280.35,-1182.31 1283.36,-1183.06 1286.27,-1183.9 1289.05,-1184.83 1291.69,-1185.83 1294.2,-1186.91 1296.55,-1188.08 1298.75,-1189.31 1300.78,-1190.62 1302.64,-1191.99 1304.33,-1193.42 1305.84,-1194.91 1307.16,-1196.46 1308.31,-1198.06 1309.27,-1199.7 1310.05,-1201.39 1310.64,-1203.11 1311.06,-1204.87 1311.3,-1206.65 1311.36,-1208.46 1311.26,-1210.28 1310.99,-1212.11 1310.55,-1213.96 1309.97,-1215.8 1309.24,-1217.64 1308.37,-1219.48 1307.36,-1221.3 1306.23,-1223.11 1304.98,-1224.89 1303.62,-1226.64 1302.16,-1228.37 1300.6,-1230.05 1298.95,-1231.7 1297.23,-1233.3 1295.42,-1234.84 1293.55,-1236.34 1291.63,-1237.77 1289.64,-1239.14 1287.61,-1240.45 1285.54,-1241.68 1283.42,-1242.84 1281.28,-1243.93 1279.11,-1244.93 1276.91,-1245.85 1274.7,-1246.69 1272.46,-1247.44 1270.21,-1248.1 1267.95,-1248.67 1265.68,-1249.15 1263.41,-1249.54 1261.12,-1249.82 1258.84,-1250.02 1256.55,-1250.11 1254.26,-1250.11 1251.97,-1250.02 1249.69,-1249.82 1247.4,-1249.54 1245.13,-1249.15 1242.86,-1248.67 1240.6,-1248.1 1238.35,-1247.44 1236.11,-1246.69 1233.9,-1245.85 1231.7,-1244.93 1229.53,-1243.93 1227.39,-1242.84 1225.27,-1241.68 1223.2,-1240.45 1221.17,-1239.14 1219.18,-1237.77 1217.26,-1236.34 1215.39,-1234.84 1213.58,-1233.3 1211.86,-1231.7 1210.21,-1230.05 1208.65,-1228.37 1207.19,-1226.64 1205.83,-1224.89 1204.58,-1223.11 1203.45,-1221.3 1202.44,-1219.48 1201.57,-1217.64 1200.84,-1215.8 1200.26,-1213.96 1199.83,-1212.11 1199.55,-1210.28 1199.45,-1208.46 1199.51,-1206.65 1199.75,-1204.87 1200.17,-1203.11 1200.76,-1201.39 1201.54,-1199.7 1202.5,-1198.06 1203.65,-1196.46 1204.97,-1194.91 1206.48,-1193.42 1208.17,-1191.99 1210.03,-1190.62 1212.06,-1189.31 1214.26,-1188.08 1216.61,-1186.91 1219.12,-1185.83 1221.76,-1184.83 1224.54,-1183.9 1227.45,-1183.06 1230.46,-1182.31 1233.58,-1181.65 1236.78,-1181.08 1240.06,-1180.6 1243.41,-1180.22 1246.8,-1179.93 1250.23,-1179.74 1253.68,-1179.64 1257.13,-1179.64 1260.58,-1179.74"/>
<text text-anchor="start" x="1226.24" y="-1224.68" font-family="Times,serif" font-size="14.00">C0456984</text>
<text text-anchor="start" x="1234.79" y="-1210.68" font-family="Times,serif" font-size="14.00">Results</text>
<text text-anchor="start" x="1232.46" y="-1196.68" font-family="Times,serif" font-size="14.00">180:180</text>
</g>
<!-- id_27822189_DOT_9&#45;&#45;id_27822189_DOT_22 -->
<g id="edge14" class="edge">
<title>id_27822189_DOT_9&#45;&#45;id_27822189_DOT_22</title>
<path fill="none" stroke="black" stroke-dasharray="1,5" d="M1546.33,-945.56C1486.36,-1001.08 1350.83,-1126.54 1288.24,-1184.49"/>
<text text-anchor="middle" x="1391.03" y="-1067.82" font-family="Times,serif" font-size="14.00">0.790888</text>
</g>
<!-- id_27822189_DOT_10 -->
<g id="node10" class="node">
<title>id_27822189_DOT_10</title>
<polygon fill="blueviolet" stroke="blueviolet" points="843.13,-1041.64 846.56,-1041.83 849.95,-1042.12 853.29,-1042.51 856.58,-1042.98 859.78,-1043.55 862.9,-1044.22 865.91,-1044.97 868.81,-1045.8 871.59,-1046.73 874.24,-1047.73 876.75,-1048.82 879.1,-1049.98 881.3,-1051.21 883.33,-1052.52 885.19,-1053.89 886.88,-1055.32 888.38,-1056.82 889.71,-1058.36 890.86,-1059.96 891.82,-1061.61 892.6,-1063.29 893.19,-1065.01 893.61,-1066.77 893.84,-1068.55 893.91,-1070.36 893.8,-1072.18 893.53,-1074.01 893.1,-1075.86 892.52,-1077.7 891.79,-1079.54 890.92,-1081.38 889.91,-1083.2 888.78,-1085.01 887.53,-1086.79 886.17,-1088.55 884.71,-1090.27 883.15,-1091.95 881.5,-1093.6 879.77,-1095.2 877.97,-1096.74 876.1,-1098.24 874.17,-1099.67 872.19,-1101.04 870.16,-1102.35 868.08,-1103.58 865.97,-1104.74 863.83,-1105.83 861.66,-1106.83 859.46,-1107.76 857.24,-1108.59 855.01,-1109.34 852.76,-1110.01 850.5,-1110.58 848.23,-1111.05 845.95,-1111.44 843.67,-1111.73 841.39,-1111.92 839.1,-1112.01 836.81,-1112.01 834.52,-1111.92 832.23,-1111.73 829.95,-1111.44 827.67,-1111.05 825.4,-1110.58 823.14,-1110.01 820.9,-1109.34 818.66,-1108.59 816.44,-1107.76 814.25,-1106.83 812.08,-1105.83 809.93,-1104.74 807.82,-1103.58 805.75,-1102.35 803.72,-1101.04 801.73,-1099.67 799.8,-1098.24 797.93,-1096.74 796.13,-1095.2 794.4,-1093.6 792.76,-1091.95 791.2,-1090.27 789.73,-1088.55 788.37,-1086.79 787.12,-1085.01 785.99,-1083.2 784.99,-1081.38 784.12,-1079.54 783.39,-1077.7 782.8,-1075.86 782.37,-1074.01 782.1,-1072.18 782,-1070.36 782.06,-1068.55 782.3,-1066.77 782.71,-1065.01 783.31,-1063.29 784.09,-1061.61 785.05,-1059.96 786.19,-1058.36 787.52,-1056.82 789.03,-1055.32 790.72,-1053.89 792.58,-1052.52 794.61,-1051.21 796.8,-1049.98 799.16,-1048.82 801.66,-1047.73 804.31,-1046.73 807.09,-1045.8 809.99,-1044.97 813.01,-1044.22 816.12,-1043.55 819.33,-1042.98 822.61,-1042.51 825.95,-1042.12 829.35,-1041.83 832.77,-1041.64 836.22,-1041.54 839.68,-1041.54 843.13,-1041.64"/>
<text text-anchor="start" x="808.78" y="-1086.58" font-family="Times,serif" font-size="14.00">C0001721</text>
<text text-anchor="start" x="819.42" y="-1072.58" font-family="Times,serif" font-size="14.00">affects</text>
<text text-anchor="start" x="822.01" y="-1058.58" font-family="Times,serif" font-size="14.00">76:76</text>
</g>
<!-- id_27822189_DOT_12 -->
<g id="node12" class="node">
<title>id_27822189_DOT_12</title>
<polygon fill="blueviolet" stroke="blueviolet" points="432.08,-1059.31 435.51,-1059.5 438.9,-1059.79 442.24,-1060.17 445.52,-1060.65 448.73,-1061.22 451.84,-1061.88 454.86,-1062.63 457.76,-1063.47 460.54,-1064.39 463.19,-1065.4 465.69,-1066.48 468.05,-1067.65 470.24,-1068.88 472.27,-1070.19 474.14,-1071.56 475.82,-1072.99 477.33,-1074.48 478.66,-1076.03 479.8,-1077.63 480.76,-1079.27 481.54,-1080.96 482.14,-1082.68 482.55,-1084.44 482.79,-1086.22 482.86,-1088.02 482.75,-1089.85 482.48,-1091.68 482.05,-1093.53 481.47,-1095.37 480.73,-1097.21 479.86,-1099.05 478.86,-1100.87 477.73,-1102.68 476.48,-1104.46 475.12,-1106.21 473.66,-1107.94 472.1,-1109.62 470.45,-1111.27 468.72,-1112.86 466.92,-1114.41 465.05,-1115.91 463.12,-1117.34 461.14,-1118.71 459.1,-1120.02 457.03,-1121.25 454.92,-1122.41 452.78,-1123.5 450.6,-1124.5 448.41,-1125.42 446.19,-1126.26 443.96,-1127.01 441.71,-1127.67 439.45,-1128.24 437.18,-1128.72 434.9,-1129.11 432.62,-1129.39 430.33,-1129.59 428.04,-1129.68 425.75,-1129.68 423.47,-1129.59 421.18,-1129.39 418.9,-1129.11 416.62,-1128.72 414.35,-1128.24 412.09,-1127.67 409.84,-1127.01 407.61,-1126.26 405.39,-1125.42 403.2,-1124.5 401.02,-1123.5 398.88,-1122.41 396.77,-1121.25 394.69,-1120.02 392.66,-1118.71 390.68,-1117.34 388.75,-1115.91 386.88,-1114.41 385.08,-1112.86 383.35,-1111.27 381.7,-1109.62 380.14,-1107.94 378.68,-1106.21 377.32,-1104.46 376.07,-1102.68 374.94,-1100.87 373.94,-1099.05 373.06,-1097.21 372.33,-1095.37 371.75,-1093.53 371.32,-1091.68 371.05,-1089.85 370.94,-1088.02 371.01,-1086.22 371.25,-1084.44 371.66,-1082.68 372.26,-1080.96 373.03,-1079.27 374,-1077.63 375.14,-1076.03 376.47,-1074.48 377.98,-1072.99 379.66,-1071.56 381.52,-1070.19 383.56,-1068.88 385.75,-1067.65 388.11,-1066.48 390.61,-1065.4 393.26,-1064.39 396.04,-1063.47 398.94,-1062.63 401.96,-1061.88 405.07,-1061.22 408.28,-1060.65 411.56,-1060.17 414.9,-1059.79 418.29,-1059.5 421.72,-1059.31 425.17,-1059.21 428.63,-1059.21 432.08,-1059.31"/>
<text text-anchor="start" x="397.73" y="-1104.25" font-family="Times,serif" font-size="14.00">C0001721</text>
<text text-anchor="start" x="408.37" y="-1090.25" font-family="Times,serif" font-size="14.00">affects</text>
<text text-anchor="start" x="410.95" y="-1076.25" font-family="Times,serif" font-size="14.00">89:89</text>
</g>
<!-- id_27822189_DOT_10&#45;&#45;id_27822189_DOT_12 -->
<g id="edge10" class="edge">
<title>id_27822189_DOT_10&#45;&#45;id_27822189_DOT_12</title>
<path fill="none" stroke="black" d="M783.79,-1079.11C705.53,-1082.47 561.55,-1088.66 482.5,-1092.06"/>
<text text-anchor="middle" x="606.89" y="-1088.38" font-family="Times,serif" font-size="14.00">0.003787</text>
</g>
<!-- id_27822189_DOT_13 -->
<g id="node13" class="node">
<title>id_27822189_DOT_13</title>
<polygon fill="brown" stroke="brown" points="710.52,-664.07 716.19,-664.26 721.81,-664.55 727.34,-664.94 732.77,-665.41 738.08,-665.98 743.24,-666.65 748.23,-667.4 753.03,-668.23 757.63,-669.16 762.01,-670.16 766.16,-671.25 770.05,-672.41 773.69,-673.64 777.05,-674.95 780.13,-676.32 782.92,-677.75 785.42,-679.25 787.62,-680.79 789.51,-682.39 791.1,-684.04 792.39,-685.72 793.38,-687.44 794.06,-689.2 794.46,-690.98 794.56,-692.79 794.39,-694.61 793.94,-696.45 793.23,-698.29 792.26,-700.13 791.05,-701.98 789.61,-703.81 787.95,-705.63 786.08,-707.44 784.01,-709.22 781.76,-710.98 779.34,-712.7 776.76,-714.39 774.03,-716.03 771.17,-717.63 768.19,-719.18 765.09,-720.67 761.9,-722.1 758.62,-723.47 755.25,-724.78 751.82,-726.01 748.33,-727.17 744.78,-728.26 741.18,-729.26 737.55,-730.19 733.88,-731.02 730.18,-731.78 726.46,-732.44 722.72,-733.01 718.96,-733.48 715.19,-733.87 711.42,-734.16 707.63,-734.35 703.84,-734.45 700.06,-734.45 696.27,-734.35 692.48,-734.16 688.71,-733.87 684.94,-733.48 681.18,-733.01 677.44,-732.44 673.72,-731.78 670.02,-731.02 666.35,-730.19 662.72,-729.26 659.12,-728.26 655.57,-727.17 652.08,-726.01 648.65,-724.78 645.28,-723.47 642,-722.1 638.81,-720.67 635.71,-719.18 632.73,-717.63 629.87,-716.03 627.14,-714.39 624.56,-712.7 622.14,-710.98 619.89,-709.22 617.82,-707.44 615.95,-705.63 614.29,-703.81 612.85,-701.98 611.64,-700.13 610.67,-698.29 609.96,-696.45 609.51,-694.61 609.34,-692.79 609.44,-690.98 609.84,-689.2 610.52,-687.44 611.51,-685.72 612.8,-684.04 614.39,-682.39 616.28,-680.79 618.48,-679.25 620.98,-677.75 623.77,-676.32 626.85,-674.95 630.21,-673.64 633.85,-672.41 637.74,-671.25 641.89,-670.16 646.27,-669.16 650.87,-668.23 655.67,-667.4 660.67,-666.65 665.82,-665.98 671.13,-665.41 676.56,-664.94 682.09,-664.55 687.71,-664.26 693.38,-664.07 699.09,-663.98 704.81,-663.98 710.52,-664.07"/>
<text text-anchor="start" x="672.78" y="-709.01" font-family="Times,serif" font-size="14.00">C0681814</text>
<text text-anchor="start" x="648.49" y="-695.01" font-family="Times,serif" font-size="14.00">experimental study</text>
<text text-anchor="start" x="686.01" y="-681.01" font-family="Times,serif" font-size="14.00">97:98</text>
</g>
<!-- id_27822189_DOT_10&#45;&#45;id_27822189_DOT_13 -->
<g id="edge15" class="edge">
<title>id_27822189_DOT_10&#45;&#45;id_27822189_DOT_13</title>
<path fill="none" stroke="black" stroke-dasharray="1,5" d="M825.4,-1041.94C799.49,-970.01 740.35,-805.83 714.47,-733.97"/>
<text text-anchor="middle" x="743.69" y="-890.75" font-family="Times,serif" font-size="14.00">0.940731</text>
</g>
<!-- id_27822189_DOT_10&#45;&#45;id_27822189_DOT_22 -->
<g id="edge16" class="edge">
<title>id_27822189_DOT_10&#45;&#45;id_27822189_DOT_22</title>
<path fill="none" stroke="black" stroke-dasharray="1,5" d="M883.42,-1091.82C961.4,-1117.62 1120.19,-1170.15 1202.81,-1197.48"/>
<text text-anchor="middle" x="1016.87" y="-1147.45" font-family="Times,serif" font-size="14.00">0.652182</text>
</g>
<!-- id_27822189_DOT_21 -->
<g id="node21" class="node">
<title>id_27822189_DOT_21</title>
<polygon fill="darkgoldenrod" stroke="darkgoldenrod" points="63.08,-924.26 66.63,-924.45 70.14,-924.74 73.6,-925.12 77,-925.6 80.32,-926.17 83.54,-926.83 86.67,-927.58 89.67,-928.42 92.55,-929.34 95.29,-930.35 97.89,-931.43 100.32,-932.59 102.6,-933.83 104.7,-935.13 106.63,-936.5 108.37,-937.94 109.94,-939.43 111.31,-940.98 112.49,-942.58 113.49,-944.22 114.3,-945.91 114.91,-947.63 115.34,-949.38 115.59,-951.17 115.66,-952.97 115.55,-954.79 115.27,-956.63 114.82,-958.47 114.22,-960.32 113.46,-962.16 112.56,-964 111.52,-965.82 110.35,-967.62 109.05,-969.41 107.64,-971.16 106.13,-972.88 104.51,-974.57 102.81,-976.21 101.02,-977.81 99.15,-979.36 97.22,-980.85 95.22,-982.29 93.17,-983.66 91.06,-984.96 88.92,-986.2 86.73,-987.36 84.51,-988.44 82.26,-989.45 79.99,-990.37 77.69,-991.21 75.38,-991.96 73.05,-992.62 70.71,-993.19 68.36,-993.67 66,-994.05 63.64,-994.34 61.27,-994.53 58.9,-994.63 56.53,-994.63 54.16,-994.53 51.8,-994.34 49.43,-994.05 47.08,-993.67 44.73,-993.19 42.39,-992.62 40.06,-991.96 37.74,-991.21 35.45,-990.37 33.18,-989.45 30.93,-988.44 28.71,-987.36 26.52,-986.2 24.37,-984.96 22.27,-983.66 20.22,-982.29 18.22,-980.85 16.28,-979.36 14.42,-977.81 12.63,-976.21 10.92,-974.57 9.31,-972.88 7.79,-971.16 6.38,-969.41 5.09,-967.62 3.92,-965.82 2.88,-964 1.98,-962.16 1.22,-960.32 0.62,-958.47 0.17,-956.63 -0.11,-954.79 -0.22,-952.97 -0.15,-951.17 0.09,-949.38 0.52,-947.63 1.14,-945.91 1.95,-944.22 2.94,-942.58 4.13,-940.98 5.5,-939.43 7.06,-937.94 8.81,-936.5 10.74,-935.13 12.84,-933.83 15.11,-932.59 17.55,-931.43 20.14,-930.35 22.89,-929.34 25.76,-928.42 28.77,-927.58 31.89,-926.83 35.12,-926.17 38.44,-925.6 41.83,-925.12 45.29,-924.74 48.81,-924.45 52.36,-924.26 55.93,-924.16 59.51,-924.16 63.08,-924.26"/>
<text text-anchor="start" x="28.55" y="-969.2" font-family="Times,serif" font-size="14.00">C1704322</text>
<text text-anchor="start" x="27.39" y="-955.2" font-family="Times,serif" font-size="14.00">orientation</text>
<text text-anchor="start" x="34.77" y="-941.2" font-family="Times,serif" font-size="14.00">164:164</text>
</g>
<!-- id_27822189_DOT_12&#45;&#45;id_27822189_DOT_21 -->
<g id="edge17" class="edge">
<title>id_27822189_DOT_12&#45;&#45;id_27822189_DOT_21</title>
<path fill="none" stroke="black" stroke-dasharray="1,5" d="M375.18,-1075.53C302.75,-1049.03 172.25,-1001.29 103.29,-976.06"/>
<text text-anchor="middle" x="212.98" y="-1028.6" font-family="Times,serif" font-size="14.00">0.812846</text>
</g>
<!-- id_27822189_DOT_15 -->
<g id="node15" class="node">
<title>id_27822189_DOT_15</title>
<polygon fill="chartreuse" stroke="chartreuse" points="1396.71,-1984.43 1400.78,-1984.62 1404.81,-1984.91 1408.78,-1985.3 1412.67,-1985.77 1416.48,-1986.34 1420.18,-1987 1423.76,-1987.76 1427.21,-1988.59 1430.51,-1989.52 1433.65,-1990.52 1436.63,-1991.61 1439.42,-1992.77 1442.03,-1994 1444.44,-1995.31 1446.66,-1996.68 1448.66,-1998.11 1450.45,-1999.6 1452.03,-2001.15 1453.39,-2002.75 1454.53,-2004.39 1455.45,-2006.08 1456.16,-2007.8 1456.65,-2009.56 1456.93,-2011.34 1457.01,-2013.15 1456.89,-2014.97 1456.56,-2016.8 1456.05,-2018.65 1455.36,-2020.49 1454.49,-2022.33 1453.46,-2024.17 1452.26,-2025.99 1450.92,-2027.8 1449.44,-2029.58 1447.82,-2031.33 1446.08,-2033.06 1444.23,-2034.74 1442.28,-2036.39 1440.22,-2037.99 1438.08,-2039.53 1435.86,-2041.03 1433.57,-2042.46 1431.22,-2043.83 1428.8,-2045.14 1426.34,-2046.37 1423.83,-2047.53 1421.29,-2048.62 1418.71,-2049.62 1416.1,-2050.55 1413.47,-2051.38 1410.81,-2052.13 1408.14,-2052.79 1405.46,-2053.37 1402.76,-2053.84 1400.06,-2054.23 1397.35,-2054.52 1394.63,-2054.71 1391.92,-2054.8 1389.2,-2054.8 1386.48,-2054.71 1383.76,-2054.52 1381.05,-2054.23 1378.35,-2053.84 1375.65,-2053.37 1372.97,-2052.79 1370.3,-2052.13 1367.65,-2051.38 1365.01,-2050.55 1362.4,-2049.62 1359.82,-2048.62 1357.28,-2047.53 1354.77,-2046.37 1352.31,-2045.14 1349.9,-2043.83 1347.54,-2042.46 1345.25,-2041.03 1343.03,-2039.53 1340.89,-2037.99 1338.84,-2036.39 1336.88,-2034.74 1335.03,-2033.06 1333.29,-2031.33 1331.67,-2029.58 1330.19,-2027.8 1328.85,-2025.99 1327.65,-2024.17 1326.62,-2022.33 1325.75,-2020.49 1325.06,-2018.65 1324.55,-2016.8 1324.23,-2014.97 1324.1,-2013.15 1324.18,-2011.34 1324.46,-2009.56 1324.95,-2007.8 1325.66,-2006.08 1326.58,-2004.39 1327.73,-2002.75 1329.09,-2001.15 1330.66,-1999.6 1332.45,-1998.11 1334.46,-1996.68 1336.67,-1995.31 1339.08,-1994 1341.69,-1992.77 1344.48,-1991.61 1347.46,-1990.52 1350.6,-1989.52 1353.9,-1988.59 1357.35,-1987.76 1360.93,-1987 1364.63,-1986.34 1368.44,-1985.77 1372.33,-1985.3 1376.31,-1984.91 1380.33,-1984.62 1384.41,-1984.43 1388.5,-1984.33 1392.61,-1984.33 1396.71,-1984.43"/>
<text text-anchor="start" x="1361.39" y="-2029.37" font-family="Times,serif" font-size="14.00">C0231472</text>
<text text-anchor="start" x="1354.58" y="-2015.37" font-family="Times,serif" font-size="14.00">standing still</text>
<text text-anchor="start" x="1367.87" y="-2001.37" font-family="Times,serif" font-size="14.00">109:110</text>
</g>
<!-- id_27822189_DOT_16 -->
<g id="node16" class="node">
<title>id_27822189_DOT_16</title>
<polygon fill="coral" stroke="coral" points="1439.63,-2372.04 1450.45,-2372.23 1461.16,-2372.52 1471.71,-2372.91 1482.07,-2373.38 1492.19,-2373.95 1502.03,-2374.61 1511.55,-2375.37 1520.71,-2376.2 1529.49,-2377.13 1537.84,-2378.13 1545.75,-2379.22 1553.18,-2380.38 1560.11,-2381.61 1566.53,-2382.92 1572.4,-2384.29 1577.73,-2385.72 1582.49,-2387.21 1586.68,-2388.76 1590.3,-2390.36 1593.33,-2392 1595.79,-2393.69 1597.67,-2395.41 1598.98,-2397.17 1599.73,-2398.95 1599.93,-2400.76 1599.6,-2402.58 1598.74,-2404.41 1597.39,-2406.26 1595.54,-2408.1 1593.24,-2409.94 1590.48,-2411.78 1587.31,-2413.6 1583.74,-2415.41 1579.8,-2417.19 1575.51,-2418.95 1570.89,-2420.67 1565.96,-2422.35 1560.76,-2424 1555.31,-2425.6 1549.62,-2427.14 1543.72,-2428.64 1537.63,-2430.07 1531.36,-2431.44 1524.95,-2432.75 1518.4,-2433.98 1511.74,-2435.14 1504.97,-2436.23 1498.11,-2437.23 1491.18,-2438.16 1484.18,-2438.99 1477.13,-2439.74 1470.03,-2440.41 1462.89,-2440.98 1455.73,-2441.45 1448.54,-2441.84 1441.33,-2442.13 1434.12,-2442.32 1426.89,-2442.41 1419.66,-2442.41 1412.44,-2442.32 1405.22,-2442.13 1398.02,-2441.84 1390.83,-2441.45 1383.66,-2440.98 1376.53,-2440.41 1369.43,-2439.74 1362.38,-2438.99 1355.38,-2438.16 1348.45,-2437.23 1341.59,-2436.23 1334.82,-2435.14 1328.15,-2433.98 1321.61,-2432.75 1315.19,-2431.44 1308.93,-2430.07 1302.84,-2428.64 1296.94,-2427.14 1291.25,-2425.6 1285.79,-2424 1280.59,-2422.35 1275.67,-2420.67 1271.05,-2418.95 1266.76,-2417.19 1262.81,-2415.41 1259.24,-2413.6 1256.07,-2411.78 1253.32,-2409.94 1251.01,-2408.1 1249.17,-2406.26 1247.81,-2404.41 1246.96,-2402.58 1246.62,-2400.76 1246.83,-2398.95 1247.58,-2397.17 1248.89,-2395.41 1250.77,-2393.69 1253.23,-2392 1256.26,-2390.36 1259.88,-2388.76 1264.07,-2387.21 1268.83,-2385.72 1274.15,-2384.29 1280.03,-2382.92 1286.44,-2381.61 1293.38,-2380.38 1300.81,-2379.22 1308.71,-2378.13 1317.07,-2377.13 1325.85,-2376.2 1335.01,-2375.37 1344.53,-2374.61 1354.37,-2373.95 1364.48,-2373.38 1374.84,-2372.91 1385.4,-2372.52 1396.11,-2372.23 1406.93,-2372.04 1417.82,-2371.94 1428.73,-2371.94 1439.63,-2372.04"/>
<text text-anchor="start" x="1394.11" y="-2416.98" font-family="Times,serif" font-size="14.00">C0522230</text>
<text text-anchor="start" x="1314.03" y="-2402.98" font-family="Times,serif" font-size="14.00">walking along a straight &#45; line itinerary</text>
<text text-anchor="start" x="1400.59" y="-2388.98" font-family="Times,serif" font-size="14.00">114:120</text>
</g>
<!-- id_27822189_DOT_15&#45;&#45;id_27822189_DOT_16 -->
<g id="edge18" class="edge">
<title>id_27822189_DOT_15&#45;&#45;id_27822189_DOT_16</title>
<path fill="none" stroke="black" stroke-dasharray="1,5" d="M1393.55,-2054.99C1399.77,-2128.72 1414.05,-2297.92 1420.28,-2371.7"/>
<text text-anchor="middle" x="1380.66" y="-2216.15" font-family="Times,serif" font-size="14.00">0.846807</text>
</g>
<!-- id_27822189_DOT_17 -->
<g id="node17" class="node">
<title>id_27822189_DOT_17</title>
<polygon fill="cornflowerblue" stroke="cornflowerblue" points="1342.25,-1592.13 1347.58,-1592.32 1352.84,-1592.61 1358.04,-1593 1363.13,-1593.47 1368.11,-1594.04 1372.95,-1594.71 1377.63,-1595.46 1382.14,-1596.29 1386.46,-1597.22 1390.57,-1598.22 1394.46,-1599.31 1398.11,-1600.47 1401.52,-1601.7 1404.68,-1603.01 1407.57,-1604.38 1410.19,-1605.81 1412.53,-1607.31 1414.59,-1608.85 1416.37,-1610.45 1417.86,-1612.1 1419.07,-1613.78 1420,-1615.5 1420.64,-1617.26 1421.01,-1619.04 1421.11,-1620.85 1420.95,-1622.67 1420.52,-1624.5 1419.86,-1626.35 1418.95,-1628.19 1417.82,-1630.04 1416.46,-1631.87 1414.9,-1633.69 1413.15,-1635.5 1411.21,-1637.28 1409.09,-1639.04 1406.82,-1640.76 1404.4,-1642.44 1401.84,-1644.09 1399.16,-1645.69 1396.36,-1647.23 1393.46,-1648.73 1390.46,-1650.16 1387.38,-1651.53 1384.22,-1652.84 1381,-1654.07 1377.72,-1655.23 1374.4,-1656.32 1371.02,-1657.32 1367.61,-1658.25 1364.17,-1659.08 1360.7,-1659.83 1357.21,-1660.5 1353.7,-1661.07 1350.17,-1661.54 1346.64,-1661.93 1343.09,-1662.22 1339.54,-1662.41 1335.99,-1662.51 1332.43,-1662.51 1328.88,-1662.41 1325.33,-1662.22 1321.78,-1661.93 1318.25,-1661.54 1314.72,-1661.07 1311.21,-1660.5 1307.72,-1659.83 1304.25,-1659.08 1300.81,-1658.25 1297.4,-1657.32 1294.03,-1656.32 1290.7,-1655.23 1287.42,-1654.07 1284.2,-1652.84 1281.04,-1651.53 1277.96,-1650.16 1274.96,-1648.73 1272.06,-1647.23 1269.26,-1645.69 1266.58,-1644.09 1264.02,-1642.44 1261.6,-1640.76 1259.33,-1639.04 1257.21,-1637.28 1255.27,-1635.5 1253.52,-1633.69 1251.96,-1631.87 1250.61,-1630.04 1249.47,-1628.19 1248.56,-1626.35 1247.9,-1624.5 1247.48,-1622.67 1247.31,-1620.85 1247.41,-1619.04 1247.78,-1617.26 1248.43,-1615.5 1249.35,-1613.78 1250.56,-1612.1 1252.05,-1610.45 1253.83,-1608.85 1255.89,-1607.31 1258.23,-1605.81 1260.85,-1604.38 1263.74,-1603.01 1266.9,-1601.7 1270.31,-1600.47 1273.96,-1599.31 1277.85,-1598.22 1281.97,-1597.22 1286.28,-1596.29 1290.79,-1595.46 1295.47,-1594.71 1300.31,-1594.04 1305.29,-1593.47 1310.38,-1593 1315.58,-1592.61 1320.85,-1592.32 1326.17,-1592.13 1331.53,-1592.03 1336.89,-1592.03 1342.25,-1592.13"/>
<text text-anchor="start" x="1305.04" y="-1637.07" font-family="Times,serif" font-size="14.00">C0243095</text>
<text text-anchor="start" x="1284.64" y="-1623.07" font-family="Times,serif" font-size="14.00">no conversational</text>
<text text-anchor="start" x="1311.27" y="-1609.07" font-family="Times,serif" font-size="14.00">137:138</text>
</g>
<!-- id_27822189_DOT_15&#45;&#45;id_27822189_DOT_17 -->
<g id="edge19" class="edge">
<title>id_27822189_DOT_15&#45;&#45;id_27822189_DOT_17</title>
<path fill="none" stroke="black" stroke-dasharray="1,5" d="M1385.46,-1984.06C1374.74,-1909.47 1350,-1737.22 1339.3,-1662.69"/>
<text text-anchor="middle" x="1336.13" y="-1826.18" font-family="Times,serif" font-size="14.00">0.749479</text>
</g>
<!-- id_27822189_DOT_16&#45;&#45;id_27822189_DOT_20 -->
<g id="edge20" class="edge">
<title>id_27822189_DOT_16&#45;&#45;id_27822189_DOT_20</title>
<path fill="none" stroke="black" stroke-dasharray="1,5" d="M1425.4,-2442.55C1429.86,-2516.85 1440.16,-2688.42 1444.61,-2762.65"/>
<text text-anchor="middle" x="1408.76" y="-2605.4" font-family="Times,serif" font-size="14.00">0.873629</text>
</g>
<!-- id_27822189_DOT_17&#45;&#45;id_27822189_DOT_22 -->
<g id="edge21" class="edge">
<title>id_27822189_DOT_17&#45;&#45;id_27822189_DOT_22</title>
<path fill="none" stroke="black" stroke-dasharray="1,5" d="M1327.42,-1591.75C1312.49,-1513.6 1276.93,-1327.54 1262.09,-1249.87"/>
<text text-anchor="middle" x="1268.51" y="-1423.61" font-family="Times,serif" font-size="14.00">0.832537</text>
</g>
</g>
</svg>
