<?xml version="1.0" encoding="UTF-8" standalone="no"?>
<!DOCTYPE svg PUBLIC "-//W3C//DTD SVG 1.1//EN"
 "http://www.w3.org/Graphics/SVG/1.1/DTD/svg11.dtd">
<!-- Generated by graphviz version 2.42.3 (20191010.1750)
 -->
<!-- Title: MST Pages: 1 -->
<svg width="6507pt" height="4526pt"
 viewBox="0.00 0.00 6507.08 4525.52" xmlns="http://www.w3.org/2000/svg" xmlns:xlink="http://www.w3.org/1999/xlink">
<g id="graph0" class="graph" transform="scale(1 1) rotate(0) translate(4 4521.52)">
<title>MST</title>
<polygon fill="white" stroke="transparent" points="-4,4 -4,-4521.52 6503.08,-4521.52 6503.08,4 -4,4"/>
<!-- id_27828958_DOT_1 -->
<g id="node1" class="node">
<title>id_27828958_DOT_1</title>
<polygon fill="aquamarine" stroke="aquamarine" points="3867.4,-2331.45 3871.51,-2331.64 3875.59,-2331.93 3879.6,-2332.31 3883.54,-2332.79 3887.39,-2333.36 3891.13,-2334.02 3894.75,-2334.77 3898.23,-2335.61 3901.57,-2336.53 3904.75,-2337.54 3907.76,-2338.62 3910.58,-2339.78 3913.22,-2341.02 3915.66,-2342.32 3917.9,-2343.69 3919.92,-2345.13 3921.73,-2346.62 3923.32,-2348.17 3924.7,-2349.77 3925.85,-2351.41 3926.79,-2353.1 3927.5,-2354.82 3928,-2356.58 3928.29,-2358.36 3928.36,-2360.16 3928.24,-2361.99 3927.91,-2363.82 3927.4,-2365.66 3926.69,-2367.51 3925.82,-2369.35 3924.77,-2371.19 3923.56,-2373.01 3922.21,-2374.81 3920.71,-2376.6 3919.07,-2378.35 3917.32,-2380.07 3915.45,-2381.76 3913.47,-2383.4 3911.39,-2385 3909.23,-2386.55 3906.98,-2388.04 3904.67,-2389.48 3902.29,-2390.85 3899.85,-2392.15 3897.36,-2393.39 3894.82,-2394.55 3892.25,-2395.63 3889.64,-2396.64 3887,-2397.56 3884.34,-2398.4 3881.66,-2399.15 3878.96,-2399.81 3876.25,-2400.38 3873.52,-2400.86 3870.79,-2401.24 3868.05,-2401.53 3865.3,-2401.72 3862.55,-2401.82 3859.81,-2401.82 3857.06,-2401.72 3854.31,-2401.53 3851.57,-2401.24 3848.84,-2400.86 3846.11,-2400.38 3843.4,-2399.81 3840.7,-2399.15 3838.02,-2398.4 3835.36,-2397.56 3832.72,-2396.64 3830.11,-2395.63 3827.54,-2394.55 3825,-2393.39 3822.51,-2392.15 3820.07,-2390.85 3817.69,-2389.48 3815.38,-2388.04 3813.13,-2386.55 3810.97,-2385 3808.89,-2383.4 3806.91,-2381.76 3805.04,-2380.07 3803.29,-2378.35 3801.65,-2376.6 3800.15,-2374.81 3798.8,-2373.01 3797.59,-2371.19 3796.54,-2369.35 3795.67,-2367.51 3794.96,-2365.66 3794.45,-2363.82 3794.12,-2361.99 3794,-2360.16 3794.07,-2358.36 3794.36,-2356.58 3794.86,-2354.82 3795.57,-2353.1 3796.51,-2351.41 3797.66,-2349.77 3799.04,-2348.17 3800.63,-2346.62 3802.44,-2345.13 3804.47,-2343.69 3806.7,-2342.32 3809.14,-2341.02 3811.78,-2339.78 3814.6,-2338.62 3817.61,-2337.54 3820.79,-2336.53 3824.13,-2335.61 3827.61,-2334.77 3831.23,-2334.02 3834.97,-2333.36 3838.82,-2332.79 3842.76,-2332.31 3846.77,-2331.93 3850.85,-2331.64 3854.96,-2331.45 3859.11,-2331.35 3863.26,-2331.35 3867.4,-2331.45"/>
<text text-anchor="start" x="3832.01" y="-2376.39" font-family="Times,serif" font-size="14.00">C0014406</text>
<text text-anchor="start" x="3824.63" y="-2362.39" font-family="Times,serif" font-size="14.00">Environment</text>
<text text-anchor="start" x="3852.24" y="-2348.39" font-family="Times,serif" font-size="14.00">1:1</text>
</g>
<!-- id_27828958_DOT_9 -->
<g id="node9" class="node">
<title>id_27828958_DOT_9</title>
<polygon fill="coral" stroke="coral" points="3519.56,-2027.14 3524.12,-2027.34 3528.64,-2027.63 3533.1,-2028.01 3537.47,-2028.49 3541.74,-2029.06 3545.89,-2029.72 3549.91,-2030.47 3553.78,-2031.31 3557.49,-2032.23 3561.01,-2033.24 3564.35,-2034.32 3567.49,-2035.48 3570.41,-2036.72 3573.12,-2038.02 3575.6,-2039.39 3577.85,-2040.83 3579.86,-2042.32 3581.63,-2043.87 3583.15,-2045.47 3584.43,-2047.11 3585.47,-2048.8 3586.26,-2050.52 3586.82,-2052.27 3587.14,-2054.06 3587.22,-2055.86 3587.08,-2057.68 3586.72,-2059.52 3586.15,-2061.36 3585.37,-2063.21 3584.39,-2065.05 3583.23,-2066.88 3581.89,-2068.71 3580.39,-2070.51 3578.72,-2072.29 3576.91,-2074.05 3574.96,-2075.77 3572.88,-2077.46 3570.69,-2079.1 3568.38,-2080.7 3565.98,-2082.25 3563.49,-2083.74 3560.92,-2085.18 3558.28,-2086.55 3555.57,-2087.85 3552.81,-2089.09 3549.99,-2090.25 3547.14,-2091.33 3544.24,-2092.34 3541.32,-2093.26 3538.36,-2094.1 3535.38,-2094.85 3532.39,-2095.51 3529.38,-2096.08 3526.35,-2096.56 3523.32,-2096.94 3520.28,-2097.23 3517.23,-2097.42 3514.18,-2097.52 3511.13,-2097.52 3508.08,-2097.42 3505.03,-2097.23 3501.99,-2096.94 3498.96,-2096.56 3495.93,-2096.08 3492.92,-2095.51 3489.93,-2094.85 3486.95,-2094.1 3483.99,-2093.26 3481.07,-2092.34 3478.17,-2091.33 3475.32,-2090.25 3472.5,-2089.09 3469.74,-2087.85 3467.03,-2086.55 3464.39,-2085.18 3461.82,-2083.74 3459.33,-2082.25 3456.93,-2080.7 3454.62,-2079.1 3452.43,-2077.46 3450.35,-2075.77 3448.4,-2074.05 3446.59,-2072.29 3444.92,-2070.51 3443.42,-2068.71 3442.08,-2066.88 3440.92,-2065.05 3439.94,-2063.21 3439.16,-2061.36 3438.59,-2059.52 3438.23,-2057.68 3438.09,-2055.86 3438.17,-2054.06 3438.49,-2052.27 3439.05,-2050.52 3439.84,-2048.8 3440.88,-2047.11 3442.16,-2045.47 3443.68,-2043.87 3445.45,-2042.32 3447.46,-2040.83 3449.71,-2039.39 3452.19,-2038.02 3454.9,-2036.72 3457.82,-2035.48 3460.96,-2034.32 3464.3,-2033.24 3467.82,-2032.23 3471.53,-2031.31 3475.4,-2030.47 3479.42,-2029.72 3483.57,-2029.06 3487.84,-2028.49 3492.21,-2028.01 3496.67,-2027.63 3501.19,-2027.34 3505.76,-2027.14 3510.35,-2027.05 3514.96,-2027.05 3519.56,-2027.14"/>
<text text-anchor="start" x="3483.49" y="-2072.08" font-family="Times,serif" font-size="14.00">C0879626</text>
<text text-anchor="start" x="3471" y="-2058.08" font-family="Times,serif" font-size="14.00">adverse effects</text>
<text text-anchor="start" x="3496.71" y="-2044.08" font-family="Times,serif" font-size="14.00">62:63</text>
</g>
<!-- id_27828958_DOT_1&#45;&#45;id_27828958_DOT_9 -->
<g id="edge8" class="edge">
<title>id_27828958_DOT_1&#45;&#45;id_27828958_DOT_9</title>
<path fill="none" stroke="black" stroke-dasharray="1,5" d="M3825.19,-2335.17C3757.54,-2276.1 3612.28,-2149.26 3546.39,-2091.74"/>
<text text-anchor="middle" x="3659.54" y="-2216.25" font-family="Times,serif" font-size="14.00">0.587763</text>
</g>
<!-- id_27828958_DOT_11 -->
<g id="node11" class="node">
<title>id_27828958_DOT_11</title>
<polygon fill="crimson" stroke="crimson" points="4250.51,-2531.07 4253.94,-2531.26 4257.33,-2531.55 4260.67,-2531.93 4263.96,-2532.41 4267.16,-2532.98 4270.28,-2533.64 4273.29,-2534.39 4276.19,-2535.23 4278.97,-2536.15 4281.62,-2537.16 4284.13,-2538.24 4286.48,-2539.4 4288.68,-2540.64 4290.71,-2541.94 4292.57,-2543.31 4294.26,-2544.75 4295.76,-2546.24 4297.09,-2547.79 4298.24,-2549.39 4299.2,-2551.03 4299.98,-2552.72 4300.57,-2554.44 4300.99,-2556.19 4301.22,-2557.98 4301.29,-2559.78 4301.18,-2561.6 4300.91,-2563.44 4300.48,-2565.28 4299.9,-2567.13 4299.17,-2568.97 4298.3,-2570.8 4297.29,-2572.63 4296.16,-2574.43 4294.91,-2576.22 4293.55,-2577.97 4292.09,-2579.69 4290.53,-2581.38 4288.88,-2583.02 4287.15,-2584.62 4285.35,-2586.17 4283.48,-2587.66 4281.55,-2589.1 4279.57,-2590.47 4277.54,-2591.77 4275.46,-2593.01 4273.35,-2594.17 4271.21,-2595.25 4269.04,-2596.26 4266.84,-2597.18 4264.62,-2598.02 4262.39,-2598.77 4260.14,-2599.43 4257.88,-2600 4255.61,-2600.48 4253.33,-2600.86 4251.05,-2601.15 4248.77,-2601.34 4246.48,-2601.44 4244.19,-2601.44 4241.9,-2601.34 4239.61,-2601.15 4237.33,-2600.86 4235.05,-2600.48 4232.78,-2600 4230.52,-2599.43 4228.28,-2598.77 4226.04,-2598.02 4223.82,-2597.18 4221.63,-2596.26 4219.46,-2595.25 4217.31,-2594.17 4215.2,-2593.01 4213.13,-2591.77 4211.1,-2590.47 4209.11,-2589.1 4207.18,-2587.66 4205.31,-2586.17 4203.51,-2584.62 4201.78,-2583.02 4200.14,-2581.38 4198.58,-2579.69 4197.11,-2577.97 4195.75,-2576.22 4194.5,-2574.43 4193.37,-2572.63 4192.37,-2570.8 4191.5,-2568.97 4190.77,-2567.13 4190.18,-2565.28 4189.75,-2563.44 4189.48,-2561.6 4189.38,-2559.78 4189.44,-2557.98 4189.68,-2556.19 4190.09,-2554.44 4190.69,-2552.72 4191.47,-2551.03 4192.43,-2549.39 4193.57,-2547.79 4194.9,-2546.24 4196.41,-2544.75 4198.1,-2543.31 4199.96,-2541.94 4201.99,-2540.64 4204.18,-2539.4 4206.54,-2538.24 4209.04,-2537.16 4211.69,-2536.15 4214.47,-2535.23 4217.37,-2534.39 4220.39,-2533.64 4223.5,-2532.98 4226.71,-2532.41 4229.99,-2531.93 4233.33,-2531.55 4236.73,-2531.26 4240.15,-2531.07 4243.6,-2530.97 4247.06,-2530.97 4250.51,-2531.07"/>
<text text-anchor="start" x="4216.16" y="-2576" font-family="Times,serif" font-size="14.00">C0871648</text>
<text text-anchor="start" x="4226.28" y="-2562" font-family="Times,serif" font-size="14.00">habitat</text>
<text text-anchor="start" x="4229.39" y="-2548" font-family="Times,serif" font-size="14.00">68:68</text>
</g>
<!-- id_27828958_DOT_1&#45;&#45;id_27828958_DOT_11 -->
<g id="edge9" class="edge">
<title>id_27828958_DOT_1&#45;&#45;id_27828958_DOT_11</title>
<path fill="none" stroke="black" stroke-dasharray="1,5" d="M3905.25,-2389.48C3978.56,-2427.58 4124.87,-2503.61 4199.4,-2542.34"/>
<text text-anchor="middle" x="4026.07" y="-2468.71" font-family="Times,serif" font-size="14.00">0.368079</text>
</g>
<!-- id_27828958_DOT_20 -->
<g id="node20" class="node">
<title>id_27828958_DOT_20</title>
<polygon fill="darkorange" stroke="darkorange" points="3729.39,-2684.43 3732.82,-2684.62 3736.21,-2684.91 3739.56,-2685.29 3742.84,-2685.77 3746.04,-2686.34 3749.16,-2687 3752.17,-2687.75 3755.07,-2688.59 3757.85,-2689.51 3760.5,-2690.52 3763.01,-2691.6 3765.36,-2692.76 3767.56,-2694 3769.59,-2695.3 3771.45,-2696.67 3773.14,-2698.11 3774.64,-2699.6 3775.97,-2701.15 3777.12,-2702.75 3778.08,-2704.39 3778.86,-2706.08 3779.45,-2707.8 3779.87,-2709.55 3780.1,-2711.34 3780.17,-2713.14 3780.06,-2714.96 3779.79,-2716.8 3779.36,-2718.64 3778.78,-2720.49 3778.05,-2722.33 3777.18,-2724.17 3776.17,-2725.99 3775.04,-2727.79 3773.79,-2729.58 3772.43,-2731.33 3770.97,-2733.05 3769.41,-2734.74 3767.76,-2736.38 3766.03,-2737.98 3764.23,-2739.53 3762.36,-2741.02 3760.43,-2742.46 3758.45,-2743.83 3756.42,-2745.13 3754.34,-2746.37 3752.23,-2747.53 3750.09,-2748.61 3747.92,-2749.62 3745.72,-2750.54 3743.5,-2751.38 3741.27,-2752.13 3739.02,-2752.79 3736.76,-2753.36 3734.49,-2753.84 3732.21,-2754.22 3729.93,-2754.51 3727.65,-2754.7 3725.36,-2754.8 3723.07,-2754.8 3720.78,-2754.7 3718.49,-2754.51 3716.21,-2754.22 3713.93,-2753.84 3711.66,-2753.36 3709.4,-2752.79 3707.16,-2752.13 3704.92,-2751.38 3702.7,-2750.54 3700.51,-2749.62 3698.34,-2748.61 3696.19,-2747.53 3694.08,-2746.37 3692.01,-2745.13 3689.98,-2743.83 3687.99,-2742.46 3686.06,-2741.02 3684.19,-2739.53 3682.39,-2737.98 3680.66,-2736.38 3679.02,-2734.74 3677.46,-2733.05 3675.99,-2731.33 3674.63,-2729.58 3673.38,-2727.79 3672.25,-2725.99 3671.25,-2724.17 3670.38,-2722.33 3669.65,-2720.49 3669.06,-2718.64 3668.63,-2716.8 3668.36,-2714.96 3668.26,-2713.14 3668.32,-2711.34 3668.56,-2709.55 3668.97,-2707.8 3669.57,-2706.08 3670.35,-2704.39 3671.31,-2702.75 3672.45,-2701.15 3673.78,-2699.6 3675.29,-2698.11 3676.98,-2696.67 3678.84,-2695.3 3680.87,-2694 3683.06,-2692.76 3685.42,-2691.6 3687.92,-2690.52 3690.57,-2689.51 3693.35,-2688.59 3696.25,-2687.75 3699.27,-2687 3702.38,-2686.34 3705.59,-2685.77 3708.87,-2685.29 3712.21,-2684.91 3715.61,-2684.62 3719.03,-2684.43 3722.48,-2684.33 3725.94,-2684.33 3729.39,-2684.43"/>
<text text-anchor="start" x="3695.04" y="-2729.37" font-family="Times,serif" font-size="14.00">C0006754</text>
<text text-anchor="start" x="3695.83" y="-2715.37" font-family="Times,serif" font-size="14.00">California</text>
<text text-anchor="start" x="3701.78" y="-2701.37" font-family="Times,serif" font-size="14.00">110:110</text>
</g>
<!-- id_27828958_DOT_1&#45;&#45;id_27828958_DOT_20 -->
<g id="edge10" class="edge">
<title>id_27828958_DOT_1&#45;&#45;id_27828958_DOT_20</title>
<path fill="none" stroke="black" stroke-dasharray="1,5" d="M3847.92,-2400.75C3821.81,-2468.06 3763.96,-2617.12 3737.68,-2684.86"/>
<text text-anchor="middle" x="3766.55" y="-2545.61" font-family="Times,serif" font-size="14.00">0.837585</text>
</g>
<!-- id_27828958_DOT_2 -->
<g id="node2" class="node">
<title>id_27828958_DOT_2</title>
<polygon fill="bisque" stroke="bisque" points="2059.5,-2676.21 2062.93,-2676.41 2066.32,-2676.69 2069.66,-2677.08 2072.94,-2677.56 2076.15,-2678.13 2079.27,-2678.79 2082.28,-2679.54 2085.18,-2680.38 2087.96,-2681.3 2090.61,-2682.3 2093.12,-2683.39 2095.47,-2684.55 2097.67,-2685.78 2099.7,-2687.09 2101.56,-2688.46 2103.25,-2689.89 2104.75,-2691.39 2106.08,-2692.94 2107.23,-2694.53 2108.19,-2696.18 2108.96,-2697.86 2109.56,-2699.59 2109.98,-2701.34 2110.21,-2703.12 2110.28,-2704.93 2110.17,-2706.75 2109.9,-2708.59 2109.47,-2710.43 2108.89,-2712.27 2108.16,-2714.12 2107.29,-2715.95 2106.28,-2717.78 2105.15,-2719.58 2103.9,-2721.36 2102.54,-2723.12 2101.08,-2724.84 2099.52,-2726.53 2097.87,-2728.17 2096.14,-2729.77 2094.34,-2731.32 2092.47,-2732.81 2090.54,-2734.24 2088.56,-2735.61 2086.53,-2736.92 2084.45,-2738.15 2082.34,-2739.32 2080.2,-2740.4 2078.03,-2741.41 2075.83,-2742.33 2073.61,-2743.17 2071.38,-2743.92 2069.13,-2744.58 2066.87,-2745.15 2064.6,-2745.63 2062.32,-2746.01 2060.04,-2746.3 2057.75,-2746.49 2055.47,-2746.59 2053.18,-2746.59 2050.89,-2746.49 2048.6,-2746.3 2046.32,-2746.01 2044.04,-2745.63 2041.77,-2745.15 2039.51,-2744.58 2037.26,-2743.92 2035.03,-2743.17 2032.81,-2742.33 2030.62,-2741.41 2028.45,-2740.4 2026.3,-2739.32 2024.19,-2738.15 2022.12,-2736.92 2020.08,-2735.61 2018.1,-2734.24 2016.17,-2732.81 2014.3,-2731.32 2012.5,-2729.77 2010.77,-2728.17 2009.12,-2726.53 2007.57,-2724.84 2006.1,-2723.12 2004.74,-2721.36 2003.49,-2719.58 2002.36,-2717.78 2001.36,-2715.95 2000.49,-2714.12 1999.76,-2712.27 1999.17,-2710.43 1998.74,-2708.59 1998.47,-2706.75 1998.37,-2704.93 1998.43,-2703.12 1998.67,-2701.34 1999.08,-2699.59 1999.68,-2697.86 2000.46,-2696.18 2001.42,-2694.53 2002.56,-2692.94 2003.89,-2691.39 2005.4,-2689.89 2007.08,-2688.46 2008.95,-2687.09 2010.98,-2685.78 2013.17,-2684.55 2015.53,-2683.39 2018.03,-2682.3 2020.68,-2681.3 2023.46,-2680.38 2026.36,-2679.54 2029.38,-2678.79 2032.49,-2678.13 2035.7,-2677.56 2038.98,-2677.08 2042.32,-2676.69 2045.72,-2676.41 2049.14,-2676.21 2052.59,-2676.12 2056.05,-2676.12 2059.5,-2676.21"/>
<text text-anchor="start" x="2025.15" y="-2721.15" font-family="Times,serif" font-size="14.00">C0022130</text>
<text text-anchor="start" x="2037.21" y="-2707.15" font-family="Times,serif" font-size="14.00">Island</text>
<text text-anchor="start" x="2038.38" y="-2693.15" font-family="Times,serif" font-size="14.00">12:12</text>
</g>
<!-- id_27828958_DOT_5 -->
<g id="node5" class="node">
<title>id_27828958_DOT_5</title>
<polygon fill="bisque" stroke="bisque" points="1788.58,-2970.02 1792.01,-2970.21 1795.4,-2970.5 1798.75,-2970.88 1802.03,-2971.36 1805.23,-2971.93 1808.35,-2972.59 1811.36,-2973.34 1814.27,-2974.18 1817.05,-2975.1 1819.69,-2976.11 1822.2,-2977.19 1824.55,-2978.35 1826.75,-2979.59 1828.78,-2980.89 1830.64,-2982.26 1832.33,-2983.7 1833.84,-2985.19 1835.16,-2986.74 1836.31,-2988.34 1837.27,-2989.98 1838.05,-2991.67 1838.64,-2993.39 1839.06,-2995.15 1839.3,-2996.93 1839.36,-2998.73 1839.26,-3000.56 1838.99,-3002.39 1838.56,-3004.23 1837.97,-3006.08 1837.24,-3007.92 1836.37,-3009.76 1835.36,-3011.58 1834.23,-3013.38 1832.99,-3015.17 1831.63,-3016.92 1830.16,-3018.64 1828.6,-3020.33 1826.96,-3021.97 1825.23,-3023.57 1823.42,-3025.12 1821.56,-3026.61 1819.63,-3028.05 1817.64,-3029.42 1815.61,-3030.72 1813.54,-3031.96 1811.43,-3033.12 1809.28,-3034.2 1807.11,-3035.21 1804.91,-3036.13 1802.7,-3036.97 1800.46,-3037.72 1798.21,-3038.38 1795.95,-3038.95 1793.68,-3039.43 1791.41,-3039.81 1789.13,-3040.1 1786.84,-3040.3 1784.55,-3040.39 1782.26,-3040.39 1779.97,-3040.3 1777.69,-3040.1 1775.4,-3039.81 1773.13,-3039.43 1770.86,-3038.95 1768.6,-3038.38 1766.35,-3037.72 1764.11,-3036.97 1761.9,-3036.13 1759.7,-3035.21 1757.53,-3034.2 1755.39,-3033.12 1753.27,-3031.96 1751.2,-3030.72 1749.17,-3029.42 1747.19,-3028.05 1745.26,-3026.61 1743.39,-3025.12 1741.58,-3023.57 1739.86,-3021.97 1738.21,-3020.33 1736.65,-3018.64 1735.19,-3016.92 1733.83,-3015.17 1732.58,-3013.38 1731.45,-3011.58 1730.44,-3009.76 1729.57,-3007.92 1728.84,-3006.08 1728.26,-3004.23 1727.83,-3002.39 1727.56,-3000.56 1727.45,-2998.73 1727.51,-2996.93 1727.75,-2995.15 1728.17,-2993.39 1728.76,-2991.67 1729.54,-2989.98 1730.5,-2988.34 1731.65,-2986.74 1732.97,-2985.19 1734.48,-2983.7 1736.17,-2982.26 1738.03,-2980.89 1740.06,-2979.59 1742.26,-2978.35 1744.61,-2977.19 1747.12,-2976.11 1749.76,-2975.1 1752.54,-2974.18 1755.45,-2973.34 1758.46,-2972.59 1761.58,-2971.93 1764.78,-2971.36 1768.06,-2970.88 1771.41,-2970.5 1774.8,-2970.21 1778.23,-2970.02 1781.68,-2969.92 1785.13,-2969.92 1788.58,-2970.02"/>
<text text-anchor="start" x="1754.24" y="-3014.96" font-family="Times,serif" font-size="14.00">C0022130</text>
<text text-anchor="start" x="1766.69" y="-3000.96" font-family="Times,serif" font-size="14.00">island</text>
<text text-anchor="start" x="1767.46" y="-2986.96" font-family="Times,serif" font-size="14.00">26:26</text>
</g>
<!-- id_27828958_DOT_2&#45;&#45;id_27828958_DOT_5 -->
<g id="edge1" class="edge">
<title>id_27828958_DOT_2&#45;&#45;id_27828958_DOT_5</title>
<path fill="none" stroke="black" d="M2027.6,-2740.33C1976.61,-2795.63 1865.77,-2915.83 1812.78,-2973.3"/>
<text text-anchor="middle" x="1893.94" y="-2859.61" font-family="Times,serif" font-size="14.00">0.022822</text>
</g>
<!-- id_27828958_DOT_19 -->
<g id="node19" class="node">
<title>id_27828958_DOT_19</title>
<polygon fill="bisque" stroke="bisque" points="2290.1,-2319.17 2296.17,-2319.36 2302.18,-2319.65 2308.1,-2320.03 2313.91,-2320.51 2319.59,-2321.08 2325.11,-2321.74 2330.45,-2322.49 2335.59,-2323.33 2340.51,-2324.25 2345.2,-2325.26 2349.63,-2326.34 2353.8,-2327.5 2357.69,-2328.74 2361.29,-2330.04 2364.58,-2331.42 2367.57,-2332.85 2370.24,-2334.34 2372.59,-2335.89 2374.62,-2337.49 2376.32,-2339.13 2377.7,-2340.82 2378.75,-2342.54 2379.49,-2344.3 2379.91,-2346.08 2380.03,-2347.88 2379.84,-2349.71 2379.36,-2351.54 2378.6,-2353.38 2377.56,-2355.23 2376.27,-2357.07 2374.73,-2358.91 2372.95,-2360.73 2370.94,-2362.53 2368.73,-2364.32 2366.32,-2366.07 2363.73,-2367.8 2360.97,-2369.48 2358.05,-2371.13 2354.99,-2372.72 2351.8,-2374.27 2348.49,-2375.76 2345.08,-2377.2 2341.56,-2378.57 2337.97,-2379.87 2334.29,-2381.11 2330.55,-2382.27 2326.76,-2383.35 2322.91,-2384.36 2319.02,-2385.28 2315.1,-2386.12 2311.14,-2386.87 2307.16,-2387.53 2303.16,-2388.1 2299.14,-2388.58 2295.1,-2388.96 2291.06,-2389.25 2287.01,-2389.45 2282.96,-2389.54 2278.91,-2389.54 2274.85,-2389.45 2270.81,-2389.25 2266.76,-2388.96 2262.73,-2388.58 2258.71,-2388.1 2254.71,-2387.53 2250.73,-2386.87 2246.77,-2386.12 2242.85,-2385.28 2238.96,-2384.36 2235.11,-2383.35 2231.31,-2382.27 2227.58,-2381.11 2223.9,-2379.87 2220.31,-2378.57 2216.79,-2377.2 2213.38,-2375.76 2210.07,-2374.27 2206.87,-2372.72 2203.81,-2371.13 2200.9,-2369.48 2198.14,-2367.8 2195.54,-2366.07 2193.14,-2364.32 2190.92,-2362.53 2188.92,-2360.73 2187.14,-2358.91 2185.6,-2357.07 2184.3,-2355.23 2183.27,-2353.38 2182.51,-2351.54 2182.03,-2349.71 2181.84,-2347.88 2181.96,-2346.08 2182.38,-2344.3 2183.11,-2342.54 2184.17,-2340.82 2185.55,-2339.13 2187.25,-2337.49 2189.28,-2335.89 2191.63,-2334.34 2194.3,-2332.85 2197.28,-2331.42 2200.58,-2330.04 2204.18,-2328.74 2208.07,-2327.5 2212.24,-2326.34 2216.67,-2325.26 2221.36,-2324.25 2226.28,-2323.33 2231.42,-2322.49 2236.76,-2321.74 2242.28,-2321.08 2247.95,-2320.51 2253.76,-2320.03 2259.69,-2319.65 2265.69,-2319.36 2271.76,-2319.17 2277.87,-2319.07 2283.99,-2319.07 2290.1,-2319.17"/>
<text text-anchor="start" x="2251.77" y="-2364.11" font-family="Times,serif" font-size="14.00">C0022130</text>
<text text-anchor="start" x="2223" y="-2350.11" font-family="Times,serif" font-size="14.00">San Clemente Island</text>
<text text-anchor="start" x="2257.99" y="-2336.11" font-family="Times,serif" font-size="14.00">106:108</text>
</g>
<!-- id_27828958_DOT_2&#45;&#45;id_27828958_DOT_19 -->
<g id="edge2" class="edge">
<title>id_27828958_DOT_2&#45;&#45;id_27828958_DOT_19</title>
<path fill="none" stroke="black" d="M2075.64,-2677.76C2118.78,-2609.8 2215.98,-2456.65 2259.34,-2388.33"/>
<text text-anchor="middle" x="2141.24" y="-2535.85" font-family="Times,serif" font-size="14.00">0.147320</text>
</g>
<!-- id_27828958_DOT_3 -->
<g id="node3" class="node">
<title>id_27828958_DOT_3</title>
<polygon fill="blue" stroke="blue" points="444.19,-3548.28 447.62,-3548.47 451.01,-3548.76 454.35,-3549.14 457.63,-3549.62 460.84,-3550.19 463.95,-3550.85 466.97,-3551.6 469.87,-3552.44 472.65,-3553.36 475.3,-3554.37 477.8,-3555.45 480.16,-3556.61 482.35,-3557.85 484.38,-3559.15 486.25,-3560.52 487.93,-3561.96 489.44,-3563.45 490.77,-3565 491.91,-3566.6 492.87,-3568.24 493.65,-3569.93 494.25,-3571.65 494.66,-3573.4 494.9,-3575.19 494.97,-3576.99 494.86,-3578.81 494.59,-3580.65 494.16,-3582.49 493.58,-3584.34 492.84,-3586.18 491.97,-3588.02 490.97,-3589.84 489.84,-3591.64 488.59,-3593.43 487.23,-3595.18 485.77,-3596.9 484.21,-3598.59 482.56,-3600.23 480.83,-3601.83 479.03,-3603.38 477.16,-3604.87 475.23,-3606.31 473.25,-3607.68 471.21,-3608.98 469.14,-3610.22 467.03,-3611.38 464.89,-3612.46 462.71,-3613.47 460.52,-3614.39 458.3,-3615.23 456.07,-3615.98 453.82,-3616.64 451.56,-3617.21 449.29,-3617.69 447.01,-3618.07 444.73,-3618.36 442.44,-3618.55 440.15,-3618.65 437.86,-3618.65 435.58,-3618.55 433.29,-3618.36 431.01,-3618.07 428.73,-3617.69 426.46,-3617.21 424.2,-3616.64 421.95,-3615.98 419.72,-3615.23 417.5,-3614.39 415.31,-3613.47 413.13,-3612.46 410.99,-3611.38 408.88,-3610.22 406.8,-3608.98 404.77,-3607.68 402.79,-3606.31 400.86,-3604.87 398.99,-3603.38 397.19,-3601.83 395.46,-3600.23 393.81,-3598.59 392.25,-3596.9 390.79,-3595.18 389.43,-3593.43 388.18,-3591.64 387.05,-3589.84 386.05,-3588.02 385.17,-3586.18 384.44,-3584.34 383.86,-3582.49 383.43,-3580.65 383.16,-3578.81 383.05,-3576.99 383.12,-3575.19 383.35,-3573.4 383.77,-3571.65 384.37,-3569.93 385.14,-3568.24 386.11,-3566.6 387.25,-3565 388.58,-3563.45 390.09,-3561.96 391.77,-3560.52 393.63,-3559.15 395.67,-3557.85 397.86,-3556.61 400.22,-3555.45 402.72,-3554.37 405.37,-3553.36 408.15,-3552.44 411.05,-3551.6 414.07,-3550.85 417.18,-3550.19 420.39,-3549.62 423.67,-3549.14 427.01,-3548.76 430.4,-3548.47 433.83,-3548.28 437.28,-3548.18 440.74,-3548.18 444.19,-3548.28"/>
<text text-anchor="start" x="409.84" y="-3593.21" font-family="Times,serif" font-size="14.00">C0023916</text>
<text text-anchor="start" x="420.74" y="-3579.21" font-family="Times,serif" font-size="14.00">Lizard</text>
<text text-anchor="start" x="423.06" y="-3565.21" font-family="Times,serif" font-size="14.00">14:14</text>
</g>
<!-- id_27828958_DOT_18 -->
<g id="node18" class="node">
<title>id_27828958_DOT_18</title>
<polygon fill="blue" stroke="blue" points="840.39,-3670.9 846.19,-3671.1 851.93,-3671.39 857.59,-3671.77 863.15,-3672.25 868.57,-3672.82 873.84,-3673.48 878.95,-3674.23 883.86,-3675.07 888.57,-3675.99 893.05,-3676.99 897.29,-3678.08 901.27,-3679.24 904.99,-3680.47 908.43,-3681.78 911.58,-3683.15 914.43,-3684.59 916.99,-3686.08 919.23,-3687.63 921.17,-3689.22 922.8,-3690.87 924.11,-3692.55 925.12,-3694.28 925.83,-3696.03 926.23,-3697.81 926.34,-3699.62 926.16,-3701.44 925.7,-3703.28 924.97,-3705.12 923.98,-3706.97 922.75,-3708.81 921.27,-3710.64 919.57,-3712.47 917.66,-3714.27 915.54,-3716.05 913.24,-3717.81 910.76,-3719.53 908.12,-3721.22 905.34,-3722.86 902.41,-3724.46 899.36,-3726.01 896.2,-3727.5 892.93,-3728.93 889.57,-3730.31 886.14,-3731.61 882.62,-3732.84 879.05,-3734.01 875.42,-3735.09 871.75,-3736.1 868.03,-3737.02 864.28,-3737.86 860.5,-3738.61 856.69,-3739.27 852.86,-3739.84 849.02,-3740.32 845.17,-3740.7 841.31,-3740.99 837.44,-3741.18 833.56,-3741.28 829.69,-3741.28 825.81,-3741.18 821.94,-3740.99 818.08,-3740.7 814.23,-3740.32 810.39,-3739.84 806.56,-3739.27 802.75,-3738.61 798.97,-3737.86 795.22,-3737.02 791.5,-3736.1 787.83,-3735.09 784.2,-3734.01 780.62,-3732.84 777.11,-3731.61 773.68,-3730.31 770.32,-3728.93 767.05,-3727.5 763.89,-3726.01 760.84,-3724.46 757.91,-3722.86 755.12,-3721.22 752.49,-3719.53 750.01,-3717.81 747.71,-3716.05 745.59,-3714.27 743.68,-3712.47 741.98,-3710.64 740.5,-3708.81 739.27,-3706.97 738.28,-3705.12 737.55,-3703.28 737.09,-3701.44 736.91,-3699.62 737.02,-3697.81 737.42,-3696.03 738.13,-3694.28 739.14,-3692.55 740.45,-3690.87 742.08,-3689.22 744.02,-3687.63 746.26,-3686.08 748.82,-3684.59 751.67,-3683.15 754.82,-3681.78 758.26,-3680.47 761.98,-3679.24 765.96,-3678.08 770.2,-3676.99 774.68,-3675.99 779.39,-3675.07 784.3,-3674.23 789.4,-3673.48 794.68,-3672.82 800.1,-3672.25 805.66,-3671.77 811.31,-3671.39 817.06,-3671.1 822.86,-3670.9 828.7,-3670.81 834.55,-3670.81 840.39,-3670.9"/>
<text text-anchor="start" x="802.46" y="-3715.84" font-family="Times,serif" font-size="14.00">C0023916</text>
<text text-anchor="start" x="776.81" y="-3701.84" font-family="Times,serif" font-size="14.00">Island Night Lizard</text>
<text text-anchor="start" x="808.68" y="-3687.84" font-family="Times,serif" font-size="14.00">101:103</text>
</g>
<!-- id_27828958_DOT_3&#45;&#45;id_27828958_DOT_18 -->
<g id="edge11" class="edge">
<title>id_27828958_DOT_3&#45;&#45;id_27828958_DOT_18</title>
<path fill="none" stroke="black" stroke-dasharray="1,5" d="M485.2,-3597.84C551.38,-3618.51 674.03,-3656.82 754.22,-3681.87"/>
<text text-anchor="middle" x="593.46" y="-3642.65" font-family="Times,serif" font-size="14.00">0.279094</text>
</g>
<!-- id_27828958_DOT_21 -->
<g id="node21" class="node">
<title>id_27828958_DOT_21</title>
<polygon fill="darkred" stroke="darkred" points="61.47,-3510.38 64.93,-3510.58 68.36,-3510.86 71.74,-3511.25 75.05,-3511.73 78.28,-3512.3 81.43,-3512.96 84.47,-3513.71 87.4,-3514.55 90.21,-3515.47 92.88,-3516.47 95.41,-3517.56 97.79,-3518.72 100.01,-3519.95 102.06,-3521.26 103.94,-3522.63 105.64,-3524.06 107.16,-3525.56 108.5,-3527.1 109.66,-3528.7 110.63,-3530.35 111.41,-3532.03 112.01,-3533.76 112.43,-3535.51 112.67,-3537.29 112.74,-3539.1 112.63,-3540.92 112.36,-3542.76 111.92,-3544.6 111.34,-3546.44 110.6,-3548.29 109.72,-3550.12 108.7,-3551.94 107.56,-3553.75 106.3,-3555.53 104.93,-3557.29 103.45,-3559.01 101.88,-3560.7 100.21,-3562.34 98.47,-3563.94 96.65,-3565.49 94.76,-3566.98 92.81,-3568.41 90.81,-3569.78 88.76,-3571.09 86.67,-3572.32 84.53,-3573.48 82.37,-3574.57 80.18,-3575.57 77.96,-3576.5 75.72,-3577.34 73.47,-3578.09 71.2,-3578.75 68.91,-3579.32 66.62,-3579.79 64.32,-3580.18 62.02,-3580.47 59.71,-3580.66 57.4,-3580.76 55.09,-3580.76 52.78,-3580.66 50.47,-3580.47 48.17,-3580.18 45.87,-3579.79 43.58,-3579.32 41.3,-3578.75 39.03,-3578.09 36.77,-3577.34 34.53,-3576.5 32.31,-3575.57 30.12,-3574.57 27.96,-3573.48 25.83,-3572.32 23.73,-3571.09 21.68,-3569.78 19.68,-3568.41 17.73,-3566.98 15.84,-3565.49 14.02,-3563.94 12.28,-3562.34 10.62,-3560.7 9.04,-3559.01 7.56,-3557.29 6.19,-3555.53 4.93,-3553.75 3.79,-3551.94 2.77,-3550.12 1.89,-3548.29 1.16,-3546.44 0.57,-3544.6 0.13,-3542.76 -0.14,-3540.92 -0.25,-3539.1 -0.18,-3537.29 0.06,-3535.51 0.48,-3533.76 1.08,-3532.03 1.86,-3530.35 2.83,-3528.7 3.99,-3527.1 5.33,-3525.56 6.85,-3524.06 8.56,-3522.63 10.44,-3521.26 12.49,-3519.95 14.7,-3518.72 17.08,-3517.56 19.61,-3516.47 22.28,-3515.47 25.09,-3514.55 28.02,-3513.71 31.06,-3512.96 34.21,-3512.3 37.44,-3511.73 40.76,-3511.25 44.13,-3510.86 47.56,-3510.58 51.02,-3510.38 54.5,-3510.29 57.99,-3510.29 61.47,-3510.38"/>
<text text-anchor="start" x="27.08" y="-3555.32" font-family="Times,serif" font-size="14.00">C1510458</text>
<text text-anchor="start" x="26.9" y="-3541.32" font-family="Times,serif" font-size="14.00">feral goats</text>
<text text-anchor="start" x="33.81" y="-3527.32" font-family="Times,serif" font-size="14.00">115:116</text>
</g>
<!-- id_27828958_DOT_3&#45;&#45;id_27828958_DOT_21 -->
<g id="edge12" class="edge">
<title>id_27828958_DOT_3&#45;&#45;id_27828958_DOT_21</title>
<path fill="none" stroke="black" stroke-dasharray="1,5" d="M382.94,-3577.86C309.43,-3570.59 181.4,-3557.91 109.38,-3550.78"/>
<text text-anchor="middle" x="219.91" y="-3567.12" font-family="Times,serif" font-size="14.00">0.663719</text>
</g>
<!-- id_27828958_DOT_4 -->
<g id="node4" class="node">
<title>id_27828958_DOT_4</title>
<polygon fill="blueviolet" stroke="blueviolet" points="829.17,-4080.28 837.48,-4080.47 845.7,-4080.76 853.81,-4081.15 861.76,-4081.62 869.53,-4082.19 877.08,-4082.86 884.39,-4083.61 891.43,-4084.44 898.17,-4085.37 904.58,-4086.37 910.65,-4087.46 916.36,-4088.62 921.68,-4089.85 926.61,-4091.16 931.12,-4092.53 935.21,-4093.96 938.87,-4095.46 942.08,-4097 944.86,-4098.6 947.19,-4100.25 949.07,-4101.93 950.52,-4103.65 951.52,-4105.41 952.1,-4107.19 952.26,-4109 952,-4110.82 951.34,-4112.65 950.3,-4114.5 948.89,-4116.34 947.11,-4118.19 945,-4120.02 942.57,-4121.84 939.83,-4123.65 936.8,-4125.43 933.5,-4127.19 929.95,-4128.91 926.18,-4130.59 922.18,-4132.24 917.99,-4133.84 913.62,-4135.38 909.09,-4136.88 904.42,-4138.31 899.61,-4139.68 894.68,-4140.99 889.66,-4142.22 884.54,-4143.38 879.34,-4144.47 874.08,-4145.47 868.75,-4146.4 863.38,-4147.23 857.96,-4147.98 852.51,-4148.65 847.03,-4149.22 841.53,-4149.69 836.01,-4150.08 830.48,-4150.37 824.94,-4150.56 819.39,-4150.66 813.84,-4150.66 808.29,-4150.56 802.75,-4150.37 797.22,-4150.08 791.7,-4149.69 786.2,-4149.22 780.72,-4148.65 775.27,-4147.98 769.85,-4147.23 764.48,-4146.4 759.16,-4145.47 753.89,-4144.47 748.69,-4143.38 743.58,-4142.22 738.55,-4140.99 733.62,-4139.68 728.82,-4138.31 724.14,-4136.88 719.61,-4135.38 715.24,-4133.84 711.05,-4132.24 707.06,-4130.59 703.28,-4128.91 699.73,-4127.19 696.43,-4125.43 693.4,-4123.65 690.66,-4121.84 688.23,-4120.02 686.12,-4118.19 684.34,-4116.34 682.93,-4114.5 681.89,-4112.65 681.23,-4110.82 680.97,-4109 681.13,-4107.19 681.71,-4105.41 682.71,-4103.65 684.16,-4101.93 686.04,-4100.25 688.37,-4098.6 691.15,-4097 694.37,-4095.46 698.02,-4093.96 702.11,-4092.53 706.62,-4091.16 711.55,-4089.85 716.87,-4088.62 722.58,-4087.46 728.65,-4086.37 735.06,-4085.37 741.8,-4084.44 748.84,-4083.61 756.15,-4082.86 763.7,-4082.19 771.47,-4081.62 779.42,-4081.15 787.53,-4080.76 795.75,-4080.47 804.06,-4080.28 812.43,-4080.18 820.81,-4080.18 829.17,-4080.28"/>
<text text-anchor="start" x="787.45" y="-4125.22" font-family="Times,serif" font-size="14.00">C0999100</text>
<text text-anchor="start" x="734.6" y="-4111.22" font-family="Times,serif" font-size="14.00">Xantusia riversiana reticulata</text>
<text text-anchor="start" x="800.67" y="-4097.22" font-family="Times,serif" font-size="14.00">16:18</text>
</g>
<!-- id_27828958_DOT_17 -->
<g id="node17" class="node">
<title>id_27828958_DOT_17</title>
<polygon fill="blueviolet" stroke="blueviolet" points="715.4,-4447.01 721.16,-4447.2 726.86,-4447.49 732.47,-4447.88 737.98,-4448.35 743.36,-4448.92 748.59,-4449.59 753.65,-4450.34 758.52,-4451.17 763.19,-4452.1 767.63,-4453.1 771.84,-4454.19 775.79,-4455.35 779.48,-4456.58 782.89,-4457.89 786.01,-4459.26 788.85,-4460.69 791.38,-4462.19 793.61,-4463.73 795.53,-4465.33 797.14,-4466.98 798.45,-4468.66 799.45,-4470.38 800.15,-4472.14 800.54,-4473.92 800.65,-4475.73 800.47,-4477.55 800.02,-4479.38 799.3,-4481.23 798.32,-4483.07 797.09,-4484.92 795.63,-4486.75 793.94,-4488.57 792.04,-4490.38 789.95,-4492.16 787.66,-4493.92 785.21,-4495.64 782.59,-4497.32 779.82,-4498.97 776.92,-4500.57 773.9,-4502.11 770.76,-4503.61 767.52,-4505.04 764.19,-4506.41 760.78,-4507.72 757.3,-4508.95 753.75,-4510.11 750.15,-4511.2 746.51,-4512.2 742.82,-4513.13 739.1,-4513.96 735.35,-4514.71 731.57,-4515.38 727.78,-4515.95 723.97,-4516.42 720.14,-4516.81 716.31,-4517.1 712.47,-4517.29 708.63,-4517.39 704.79,-4517.39 700.95,-4517.29 697.11,-4517.1 693.28,-4516.81 689.45,-4516.42 685.64,-4515.95 681.85,-4515.38 678.07,-4514.71 674.32,-4513.96 670.6,-4513.13 666.92,-4512.2 663.27,-4511.2 659.67,-4510.11 656.13,-4508.95 652.64,-4507.72 649.23,-4506.41 645.9,-4505.04 642.66,-4503.61 639.53,-4502.11 636.5,-4500.57 633.6,-4498.97 630.83,-4497.32 628.22,-4495.64 625.76,-4493.92 623.47,-4492.16 621.38,-4490.38 619.48,-4488.57 617.79,-4486.75 616.33,-4484.92 615.1,-4483.07 614.12,-4481.23 613.4,-4479.38 612.95,-4477.55 612.77,-4475.73 612.88,-4473.92 613.28,-4472.14 613.97,-4470.38 614.97,-4468.66 616.28,-4466.98 617.89,-4465.33 619.82,-4463.73 622.04,-4462.19 624.58,-4460.69 627.41,-4459.26 630.53,-4457.89 633.94,-4456.58 637.63,-4455.35 641.58,-4454.19 645.79,-4453.1 650.23,-4452.1 654.9,-4451.17 659.77,-4450.34 664.83,-4449.59 670.07,-4448.92 675.45,-4448.35 680.95,-4447.88 686.57,-4447.49 692.26,-4447.2 698.02,-4447.01 703.81,-4446.91 709.61,-4446.91 715.4,-4447.01"/>
<text text-anchor="start" x="677.54" y="-4491.95" font-family="Times,serif" font-size="14.00">C0999100</text>
<text text-anchor="start" x="652.48" y="-4477.95" font-family="Times,serif" font-size="14.00">Xantusia riversiana</text>
<text text-anchor="start" x="690.77" y="-4463.95" font-family="Times,serif" font-size="14.00">97:98</text>
</g>
<!-- id_27828958_DOT_4&#45;&#45;id_27828958_DOT_17 -->
<g id="edge3" class="edge">
<title>id_27828958_DOT_4&#45;&#45;id_27828958_DOT_17</title>
<path fill="none" stroke="black" d="M806.08,-4150.58C785.1,-4220.59 738.32,-4376.68 717.3,-4446.82"/>
<text text-anchor="middle" x="735.44" y="-4301.5" font-family="Times,serif" font-size="14.00">0.198536</text>
</g>
<!-- id_27828958_DOT_4&#45;&#45;id_27828958_DOT_18 -->
<g id="edge13" class="edge">
<title>id_27828958_DOT_4&#45;&#45;id_27828958_DOT_18</title>
<path fill="none" stroke="black" stroke-dasharray="1,5" d="M817.91,-4080.16C820.75,-4002.78 827.49,-3818.8 830.33,-3741.36"/>
<text text-anchor="middle" x="797.87" y="-3913.56" font-family="Times,serif" font-size="14.00">0.358441</text>
</g>
<!-- id_27828958_DOT_31 -->
<g id="node31" class="node">
<title>id_27828958_DOT_31</title>
<polygon fill="bisque" stroke="bisque" points="1491.72,-3223.59 1495.15,-3223.78 1498.54,-3224.07 1501.88,-3224.45 1505.17,-3224.93 1508.37,-3225.5 1511.49,-3226.16 1514.5,-3226.91 1517.4,-3227.75 1520.18,-3228.68 1522.83,-3229.68 1525.34,-3230.76 1527.69,-3231.93 1529.89,-3233.16 1531.92,-3234.47 1533.78,-3235.84 1535.47,-3237.27 1536.97,-3238.76 1538.3,-3240.31 1539.45,-3241.91 1540.41,-3243.55 1541.18,-3245.24 1541.78,-3246.96 1542.2,-3248.72 1542.43,-3250.5 1542.5,-3252.31 1542.39,-3254.13 1542.12,-3255.96 1541.69,-3257.81 1541.11,-3259.65 1540.38,-3261.49 1539.51,-3263.33 1538.5,-3265.15 1537.37,-3266.96 1536.12,-3268.74 1534.76,-3270.49 1533.3,-3272.22 1531.74,-3273.9 1530.09,-3275.55 1528.36,-3277.15 1526.56,-3278.69 1524.69,-3280.19 1522.76,-3281.62 1520.78,-3282.99 1518.75,-3284.3 1516.67,-3285.53 1514.56,-3286.69 1512.42,-3287.78 1510.25,-3288.78 1508.05,-3289.7 1505.83,-3290.54 1503.6,-3291.29 1501.35,-3291.95 1499.09,-3292.52 1496.82,-3293 1494.54,-3293.39 1492.26,-3293.67 1489.98,-3293.87 1487.69,-3293.96 1485.4,-3293.96 1483.11,-3293.87 1480.82,-3293.67 1478.54,-3293.39 1476.26,-3293 1473.99,-3292.52 1471.73,-3291.95 1469.49,-3291.29 1467.25,-3290.54 1465.03,-3289.7 1462.84,-3288.78 1460.67,-3287.78 1458.52,-3286.69 1456.41,-3285.53 1454.34,-3284.3 1452.31,-3282.99 1450.32,-3281.62 1448.39,-3280.19 1446.52,-3278.69 1444.72,-3277.15 1442.99,-3275.55 1441.35,-3273.9 1439.79,-3272.22 1438.32,-3270.49 1436.96,-3268.74 1435.71,-3266.96 1434.58,-3265.15 1433.58,-3263.33 1432.71,-3261.49 1431.98,-3259.65 1431.39,-3257.81 1430.96,-3255.96 1430.69,-3254.13 1430.59,-3252.31 1430.65,-3250.5 1430.89,-3248.72 1431.3,-3246.96 1431.9,-3245.24 1432.68,-3243.55 1433.64,-3241.91 1434.78,-3240.31 1436.11,-3238.76 1437.62,-3237.27 1439.31,-3235.84 1441.17,-3234.47 1443.2,-3233.16 1445.39,-3231.93 1447.75,-3230.76 1450.25,-3229.68 1452.9,-3228.68 1455.68,-3227.75 1458.58,-3226.91 1461.6,-3226.16 1464.71,-3225.5 1467.92,-3224.93 1471.2,-3224.45 1474.54,-3224.07 1477.94,-3223.78 1481.36,-3223.59 1484.81,-3223.49 1488.27,-3223.49 1491.72,-3223.59"/>
<text text-anchor="start" x="1457.37" y="-3268.53" font-family="Times,serif" font-size="14.00">C0022130</text>
<text text-anchor="start" x="1469.82" y="-3254.53" font-family="Times,serif" font-size="14.00">island</text>
<text text-anchor="start" x="1463.6" y="-3240.53" font-family="Times,serif" font-size="14.00">185:185</text>
</g>
<!-- id_27828958_DOT_5&#45;&#45;id_27828958_DOT_31 -->
<g id="edge4" class="edge">
<title>id_27828958_DOT_5&#45;&#45;id_27828958_DOT_31</title>
<path fill="none" stroke="black" d="M1752.48,-3031.58C1696.79,-3079.14 1580.02,-3178.89 1521.51,-3228.86"/>
<text text-anchor="middle" x="1610.74" y="-3133.02" font-family="Times,serif" font-size="14.00">0.085005</text>
</g>
<!-- id_27828958_DOT_6 -->
<g id="node6" class="node">
<title>id_27828958_DOT_6</title>
<polygon fill="brown" stroke="brown" points="3559.72,-1560.97 3563.15,-1561.16 3566.54,-1561.45 3569.89,-1561.84 3573.17,-1562.31 3576.37,-1562.88 3579.49,-1563.55 3582.5,-1564.3 3585.41,-1565.13 3588.19,-1566.06 3590.83,-1567.06 3593.34,-1568.15 3595.69,-1569.31 3597.89,-1570.54 3599.92,-1571.85 3601.78,-1573.22 3603.47,-1574.65 3604.98,-1576.15 3606.3,-1577.69 3607.45,-1579.29 3608.41,-1580.94 3609.19,-1582.62 3609.78,-1584.34 3610.2,-1586.1 3610.44,-1587.88 3610.5,-1589.69 3610.39,-1591.51 3610.12,-1593.34 3609.69,-1595.19 3609.11,-1597.03 3608.38,-1598.88 3607.51,-1600.71 3606.5,-1602.53 3605.37,-1604.34 3604.12,-1606.12 3602.76,-1607.88 3601.3,-1609.6 3599.74,-1611.28 3598.09,-1612.93 3596.36,-1614.53 3594.56,-1616.07 3592.69,-1617.57 3590.76,-1619 3588.78,-1620.37 3586.75,-1621.68 3584.67,-1622.91 3582.56,-1624.07 3580.42,-1625.16 3578.25,-1626.16 3576.05,-1627.09 3573.83,-1627.92 3571.6,-1628.67 3569.35,-1629.34 3567.09,-1629.91 3564.82,-1630.38 3562.55,-1630.77 3560.26,-1631.06 3557.98,-1631.25 3555.69,-1631.35 3553.4,-1631.35 3551.11,-1631.25 3548.82,-1631.06 3546.54,-1630.77 3544.26,-1630.38 3542,-1629.91 3539.74,-1629.34 3537.49,-1628.67 3535.25,-1627.92 3533.04,-1627.09 3530.84,-1626.16 3528.67,-1625.16 3526.52,-1624.07 3524.41,-1622.91 3522.34,-1621.68 3520.31,-1620.37 3518.32,-1619 3516.39,-1617.57 3514.52,-1616.07 3512.72,-1614.53 3510.99,-1612.93 3509.35,-1611.28 3507.79,-1609.6 3506.32,-1607.88 3504.96,-1606.12 3503.71,-1604.34 3502.58,-1602.53 3501.58,-1600.71 3500.71,-1598.88 3499.98,-1597.03 3499.39,-1595.19 3498.96,-1593.34 3498.69,-1591.51 3498.59,-1589.69 3498.65,-1587.88 3498.89,-1586.1 3499.3,-1584.34 3499.9,-1582.62 3500.68,-1580.94 3501.64,-1579.29 3502.78,-1577.69 3504.11,-1576.15 3505.62,-1574.65 3507.31,-1573.22 3509.17,-1571.85 3511.2,-1570.54 3513.4,-1569.31 3515.75,-1568.15 3518.25,-1567.06 3520.9,-1566.06 3523.68,-1565.13 3526.58,-1564.3 3529.6,-1563.55 3532.72,-1562.88 3535.92,-1562.31 3539.2,-1561.84 3542.54,-1561.45 3545.94,-1561.16 3549.37,-1560.97 3552.82,-1560.87 3556.27,-1560.87 3559.72,-1560.97"/>
<text text-anchor="start" x="3525.37" y="-1605.91" font-family="Times,serif" font-size="14.00">C0237463</text>
<text text-anchor="start" x="3530.45" y="-1591.91" font-family="Times,serif" font-size="14.00">agencies</text>
<text text-anchor="start" x="3538.6" y="-1577.91" font-family="Times,serif" font-size="14.00">40:40</text>
</g>
<!-- id_27828958_DOT_6&#45;&#45;id_27828958_DOT_9 -->
<g id="edge14" class="edge">
<title>id_27828958_DOT_6&#45;&#45;id_27828958_DOT_9</title>
<path fill="none" stroke="black" stroke-dasharray="1,5" d="M3551.36,-1631.53C3543.57,-1718.22 3523.62,-1940.28 3515.83,-2026.92"/>
<text text-anchor="middle" x="3507.35" y="-1832.02" font-family="Times,serif" font-size="14.00">0.702238</text>
</g>
<!-- id_27828958_DOT_12 -->
<g id="node12" class="node">
<title>id_27828958_DOT_12</title>
<polygon fill="darkgoldenrod" stroke="darkgoldenrod" points="3669.59,-1157.38 3675.58,-1157.57 3681.5,-1157.86 3687.33,-1158.24 3693.06,-1158.72 3698.65,-1159.29 3704.09,-1159.95 3709.35,-1160.7 3714.42,-1161.54 3719.27,-1162.46 3723.89,-1163.47 3728.26,-1164.55 3732.37,-1165.72 3736.2,-1166.95 3739.75,-1168.25 3743,-1169.63 3745.94,-1171.06 3748.57,-1172.55 3750.89,-1174.1 3752.89,-1175.7 3754.56,-1177.34 3755.92,-1179.03 3756.96,-1180.75 3757.69,-1182.51 3758.1,-1184.29 3758.21,-1186.09 3758.03,-1187.92 3757.56,-1189.75 3756.81,-1191.59 3755.79,-1193.44 3754.51,-1195.28 3752.99,-1197.12 3751.24,-1198.94 3749.26,-1200.75 3747.08,-1202.53 3744.71,-1204.28 3742.16,-1206.01 3739.44,-1207.69 3736.56,-1209.34 3733.54,-1210.93 3730.4,-1212.48 3727.14,-1213.97 3723.77,-1215.41 3720.31,-1216.78 3716.76,-1218.09 3713.14,-1219.32 3709.46,-1220.48 3705.72,-1221.57 3701.93,-1222.57 3698.09,-1223.49 3694.22,-1224.33 3690.32,-1225.08 3686.4,-1225.74 3682.46,-1226.31 3678.5,-1226.79 3674.52,-1227.17 3670.54,-1227.46 3666.55,-1227.66 3662.55,-1227.75 3658.56,-1227.75 3654.56,-1227.66 3650.57,-1227.46 3646.59,-1227.17 3642.62,-1226.79 3638.66,-1226.31 3634.71,-1225.74 3630.79,-1225.08 3626.89,-1224.33 3623.02,-1223.49 3619.19,-1222.57 3615.4,-1221.57 3611.66,-1220.48 3607.97,-1219.32 3604.35,-1218.09 3600.81,-1216.78 3597.34,-1215.41 3593.98,-1213.97 3590.71,-1212.48 3587.57,-1210.93 3584.55,-1209.34 3581.68,-1207.69 3578.96,-1206.01 3576.4,-1204.28 3574.03,-1202.53 3571.85,-1200.75 3569.88,-1198.94 3568.12,-1197.12 3566.6,-1195.28 3565.33,-1193.44 3564.31,-1191.59 3563.56,-1189.75 3563.08,-1187.92 3562.9,-1186.09 3563.01,-1184.29 3563.43,-1182.51 3564.15,-1180.75 3565.19,-1179.03 3566.55,-1177.34 3568.23,-1175.7 3570.22,-1174.1 3572.54,-1172.55 3575.17,-1171.06 3578.12,-1169.63 3581.37,-1168.25 3584.91,-1166.95 3588.74,-1165.72 3592.85,-1164.55 3597.22,-1163.47 3601.84,-1162.46 3606.69,-1161.54 3611.76,-1160.7 3617.02,-1159.95 3622.46,-1159.29 3628.05,-1158.72 3633.78,-1158.24 3639.62,-1157.86 3645.54,-1157.57 3651.52,-1157.38 3657.54,-1157.28 3663.57,-1157.28 3669.59,-1157.38"/>
<text text-anchor="start" x="3631.39" y="-1202.32" font-family="Times,serif" font-size="14.00">C0003070</text>
<text text-anchor="start" x="3603.6" y="-1188.32" font-family="Times,serif" font-size="14.00">non &#45; native wildlife</text>
<text text-anchor="start" x="3644.61" y="-1174.32" font-family="Times,serif" font-size="14.00">71:74</text>
</g>
<!-- id_27828958_DOT_6&#45;&#45;id_27828958_DOT_12 -->
<g id="edge15" class="edge">
<title>id_27828958_DOT_6&#45;&#45;id_27828958_DOT_12</title>
<path fill="none" stroke="black" stroke-dasharray="1,5" d="M3563.77,-1561C3583.84,-1484.58 3631.3,-1303.9 3651.36,-1227.55"/>
<text text-anchor="middle" x="3581.31" y="-1397.07" font-family="Times,serif" font-size="14.00">0.738481</text>
</g>
<!-- id_27828958_DOT_7 -->
<g id="node7" class="node">
<title>id_27828958_DOT_7</title>
<polygon fill="cadetblue" stroke="cadetblue" points="1486.28,-1402.76 1489.7,-1402.95 1493.1,-1403.24 1496.44,-1403.62 1499.72,-1404.1 1502.93,-1404.67 1506.04,-1405.33 1509.06,-1406.08 1511.96,-1406.92 1514.74,-1407.84 1517.39,-1408.85 1519.89,-1409.93 1522.25,-1411.09 1524.44,-1412.33 1526.47,-1413.63 1528.33,-1415.01 1530.02,-1416.44 1531.53,-1417.93 1532.86,-1419.48 1534,-1421.08 1534.96,-1422.72 1535.74,-1424.41 1536.34,-1426.13 1536.75,-1427.89 1536.99,-1429.67 1537.05,-1431.47 1536.95,-1433.3 1536.68,-1435.13 1536.25,-1436.97 1535.66,-1438.82 1534.93,-1440.66 1534.06,-1442.5 1533.06,-1444.32 1531.93,-1446.13 1530.68,-1447.91 1529.32,-1449.66 1527.85,-1451.39 1526.29,-1453.07 1524.65,-1454.72 1522.92,-1456.31 1521.12,-1457.86 1519.25,-1459.35 1517.32,-1460.79 1515.33,-1462.16 1513.3,-1463.46 1511.23,-1464.7 1509.12,-1465.86 1506.97,-1466.95 1504.8,-1467.95 1502.61,-1468.87 1500.39,-1469.71 1498.15,-1470.46 1495.91,-1471.12 1493.65,-1471.69 1491.38,-1472.17 1489.1,-1472.55 1486.82,-1472.84 1484.53,-1473.04 1482.24,-1473.13 1479.95,-1473.13 1477.66,-1473.04 1475.38,-1472.84 1473.1,-1472.55 1470.82,-1472.17 1468.55,-1471.69 1466.29,-1471.12 1464.04,-1470.46 1461.81,-1469.71 1459.59,-1468.87 1457.39,-1467.95 1455.22,-1466.95 1453.08,-1465.86 1450.97,-1464.7 1448.89,-1463.46 1446.86,-1462.16 1444.88,-1460.79 1442.95,-1459.35 1441.08,-1457.86 1439.28,-1456.31 1437.55,-1454.72 1435.9,-1453.07 1434.34,-1451.39 1432.88,-1449.66 1431.52,-1447.91 1430.27,-1446.13 1429.14,-1444.32 1428.13,-1442.5 1427.26,-1440.66 1426.53,-1438.82 1425.95,-1436.97 1425.52,-1435.13 1425.25,-1433.3 1425.14,-1431.47 1425.21,-1429.67 1425.44,-1427.89 1425.86,-1426.13 1426.45,-1424.41 1427.23,-1422.72 1428.19,-1421.08 1429.34,-1419.48 1430.67,-1417.93 1432.17,-1416.44 1433.86,-1415.01 1435.72,-1413.63 1437.75,-1412.33 1439.95,-1411.09 1442.3,-1409.93 1444.81,-1408.85 1447.46,-1407.84 1450.24,-1406.92 1453.14,-1406.08 1456.15,-1405.33 1459.27,-1404.67 1462.47,-1404.1 1465.76,-1403.62 1469.1,-1403.24 1472.49,-1402.95 1475.92,-1402.76 1479.37,-1402.66 1482.83,-1402.66 1486.28,-1402.76"/>
<text text-anchor="start" x="1451.93" y="-1447.7" font-family="Times,serif" font-size="14.00">C1705920</text>
<text text-anchor="start" x="1460.88" y="-1433.7" font-family="Times,serif" font-size="14.00">species</text>
<text text-anchor="start" x="1465.15" y="-1419.7" font-family="Times,serif" font-size="14.00">46:46</text>
</g>
<!-- id_27828958_DOT_22 -->
<g id="node22" class="node">
<title>id_27828958_DOT_22</title>
<polygon fill="darksalmon" stroke="darksalmon" points="1751.89,-1686.11 1755.32,-1686.3 1758.71,-1686.59 1762.06,-1686.98 1765.34,-1687.45 1768.54,-1688.02 1771.66,-1688.69 1774.67,-1689.44 1777.58,-1690.27 1780.36,-1691.2 1783,-1692.2 1785.51,-1693.29 1787.86,-1694.45 1790.06,-1695.68 1792.09,-1696.99 1793.95,-1698.36 1795.64,-1699.79 1797.15,-1701.29 1798.47,-1702.83 1799.62,-1704.43 1800.58,-1706.08 1801.36,-1707.76 1801.95,-1709.48 1802.37,-1711.24 1802.61,-1713.02 1802.67,-1714.83 1802.57,-1716.65 1802.3,-1718.48 1801.87,-1720.33 1801.28,-1722.17 1800.55,-1724.02 1799.68,-1725.85 1798.67,-1727.67 1797.54,-1729.48 1796.29,-1731.26 1794.93,-1733.02 1793.47,-1734.74 1791.91,-1736.42 1790.26,-1738.07 1788.54,-1739.67 1786.73,-1741.21 1784.87,-1742.71 1782.94,-1744.14 1780.95,-1745.51 1778.92,-1746.82 1776.85,-1748.05 1774.74,-1749.21 1772.59,-1750.3 1770.42,-1751.3 1768.22,-1752.23 1766.01,-1753.06 1763.77,-1753.81 1761.52,-1754.48 1759.26,-1755.05 1756.99,-1755.52 1754.72,-1755.91 1752.43,-1756.2 1750.15,-1756.39 1747.86,-1756.48 1745.57,-1756.48 1743.28,-1756.39 1741,-1756.2 1738.71,-1755.91 1736.44,-1755.52 1734.17,-1755.05 1731.91,-1754.48 1729.66,-1753.81 1727.42,-1753.06 1725.21,-1752.23 1723.01,-1751.3 1720.84,-1750.3 1718.7,-1749.21 1716.58,-1748.05 1714.51,-1746.82 1712.48,-1745.51 1710.5,-1744.14 1708.57,-1742.71 1706.7,-1741.21 1704.89,-1739.67 1703.17,-1738.07 1701.52,-1736.42 1699.96,-1734.74 1698.5,-1733.02 1697.14,-1731.26 1695.89,-1729.48 1694.76,-1727.67 1693.75,-1725.85 1692.88,-1724.02 1692.15,-1722.17 1691.57,-1720.33 1691.14,-1718.48 1690.86,-1716.65 1690.76,-1714.83 1690.82,-1713.02 1691.06,-1711.24 1691.48,-1709.48 1692.07,-1707.76 1692.85,-1706.08 1693.81,-1704.43 1694.96,-1702.83 1696.28,-1701.29 1697.79,-1699.79 1699.48,-1698.36 1701.34,-1696.99 1703.37,-1695.68 1705.57,-1694.45 1707.92,-1693.29 1710.43,-1692.2 1713.07,-1691.2 1715.85,-1690.27 1718.76,-1689.44 1721.77,-1688.69 1724.89,-1688.02 1728.09,-1687.45 1731.37,-1686.98 1734.72,-1686.59 1738.11,-1686.3 1741.54,-1686.11 1744.99,-1686.01 1748.44,-1686.01 1751.89,-1686.11"/>
<text text-anchor="start" x="1717.55" y="-1731.05" font-family="Times,serif" font-size="14.00">C0012854</text>
<text text-anchor="start" x="1731.55" y="-1717.05" font-family="Times,serif" font-size="14.00">DNA</text>
<text text-anchor="start" x="1724.28" y="-1703.05" font-family="Times,serif" font-size="14.00">119:119</text>
</g>
<!-- id_27828958_DOT_7&#45;&#45;id_27828958_DOT_22 -->
<g id="edge16" class="edge">
<title>id_27828958_DOT_7&#45;&#45;id_27828958_DOT_22</title>
<path fill="none" stroke="black" stroke-dasharray="1,5" d="M1508.03,-1466.63C1558.01,-1519.95 1664.79,-1633.85 1716.88,-1689.43"/>
<text text-anchor="middle" x="1586.21" y="-1580.83" font-family="Times,serif" font-size="14.00">0.866201</text>
</g>
<!-- id_27828958_DOT_8 -->
<g id="node8" class="node">
<title>id_27828958_DOT_8</title>
<polygon fill="chartreuse" stroke="chartreuse" points="4147.64,-595.05 4151.07,-595.24 4154.46,-595.53 4157.81,-595.91 4161.09,-596.39 4164.29,-596.96 4167.41,-597.62 4170.42,-598.37 4173.33,-599.21 4176.11,-600.13 4178.75,-601.14 4181.26,-602.22 4183.61,-603.38 4185.81,-604.62 4187.84,-605.92 4189.7,-607.29 4191.39,-608.73 4192.89,-610.22 4194.22,-611.77 4195.37,-613.37 4196.33,-615.01 4197.11,-616.7 4197.7,-618.42 4198.12,-620.17 4198.36,-621.96 4198.42,-623.76 4198.31,-625.58 4198.04,-627.42 4197.61,-629.26 4197.03,-631.11 4196.3,-632.95 4195.43,-634.78 4194.42,-636.61 4193.29,-638.41 4192.04,-640.19 4190.68,-641.95 4189.22,-643.67 4187.66,-645.36 4186.01,-647 4184.28,-648.6 4182.48,-650.15 4180.61,-651.64 4178.68,-653.08 4176.7,-654.45 4174.67,-655.75 4172.59,-656.99 4170.48,-658.15 4168.34,-659.23 4166.17,-660.24 4163.97,-661.16 4161.75,-662 4159.52,-662.75 4157.27,-663.41 4155.01,-663.98 4152.74,-664.46 4150.46,-664.84 4148.18,-665.13 4145.9,-665.32 4143.61,-665.42 4141.32,-665.42 4139.03,-665.32 4136.74,-665.13 4134.46,-664.84 4132.18,-664.46 4129.91,-663.98 4127.65,-663.41 4125.41,-662.75 4123.17,-662 4120.96,-661.16 4118.76,-660.24 4116.59,-659.23 4114.44,-658.15 4112.33,-656.99 4110.26,-655.75 4108.23,-654.45 4106.24,-653.08 4104.31,-651.64 4102.44,-650.15 4100.64,-648.6 4098.91,-647 4097.27,-645.36 4095.71,-643.67 4094.24,-641.95 4092.88,-640.19 4091.63,-638.41 4090.5,-636.61 4089.5,-634.78 4088.63,-632.95 4087.9,-631.11 4087.31,-629.26 4086.88,-627.42 4086.61,-625.58 4086.51,-623.76 4086.57,-621.96 4086.81,-620.17 4087.22,-618.42 4087.82,-616.7 4088.6,-615.01 4089.56,-613.37 4090.7,-611.77 4092.03,-610.22 4093.54,-608.73 4095.23,-607.29 4097.09,-605.92 4099.12,-604.62 4101.32,-603.38 4103.67,-602.22 4106.17,-601.14 4108.82,-600.13 4111.6,-599.21 4114.5,-598.37 4117.52,-597.62 4120.64,-596.96 4123.84,-596.39 4127.12,-595.91 4130.46,-595.53 4133.86,-595.24 4137.29,-595.05 4140.73,-594.95 4144.19,-594.95 4147.64,-595.05"/>
<text text-anchor="start" x="4113.29" y="-639.98" font-family="Times,serif" font-size="14.00">C0332167</text>
<text text-anchor="start" x="4117.77" y="-625.98" font-family="Times,serif" font-size="14.00">high risk</text>
<text text-anchor="start" x="4126.52" y="-611.98" font-family="Times,serif" font-size="14.00">58:59</text>
</g>
<!-- id_27828958_DOT_28 -->
<g id="node28" class="node">
<title>id_27828958_DOT_28</title>
<polygon fill="darkviolet" stroke="darkviolet" points="3779.77,-763.06 3783.92,-763.25 3788.04,-763.54 3792.09,-763.93 3796.07,-764.4 3799.96,-764.97 3803.73,-765.64 3807.39,-766.39 3810.91,-767.22 3814.28,-768.15 3817.49,-769.15 3820.53,-770.24 3823.38,-771.4 3826.04,-772.63 3828.51,-773.94 3830.76,-775.31 3832.81,-776.74 3834.64,-778.24 3836.25,-779.78 3837.63,-781.38 3838.8,-783.03 3839.74,-784.71 3840.47,-786.43 3840.97,-788.19 3841.26,-789.97 3841.34,-791.78 3841.21,-793.6 3840.88,-795.43 3840.36,-797.28 3839.65,-799.12 3838.76,-800.97 3837.71,-802.8 3836.49,-804.62 3835.12,-806.43 3833.6,-808.21 3831.95,-809.97 3830.18,-811.69 3828.29,-813.37 3826.29,-815.02 3824.2,-816.62 3822.01,-818.16 3819.75,-819.66 3817.41,-821.09 3815,-822.46 3812.54,-823.77 3810.02,-825 3807.46,-826.16 3804.86,-827.25 3802.23,-828.25 3799.57,-829.18 3796.88,-830.01 3794.17,-830.76 3791.44,-831.43 3788.7,-832 3785.95,-832.47 3783.19,-832.86 3780.42,-833.15 3777.65,-833.34 3774.88,-833.44 3772.1,-833.44 3769.33,-833.34 3766.55,-833.15 3763.79,-832.86 3761.03,-832.47 3758.27,-832 3755.53,-831.43 3752.81,-830.76 3750.1,-830.01 3747.41,-829.18 3744.75,-828.25 3742.11,-827.25 3739.51,-826.16 3736.95,-825 3734.44,-823.77 3731.98,-822.46 3729.57,-821.09 3727.23,-819.66 3724.97,-818.16 3722.78,-816.62 3720.68,-815.02 3718.69,-813.37 3716.8,-811.69 3715.02,-809.97 3713.37,-808.21 3711.86,-806.43 3710.49,-804.62 3709.27,-802.8 3708.21,-800.97 3707.33,-799.12 3706.62,-797.28 3706.1,-795.43 3705.77,-793.6 3705.64,-791.78 3705.72,-789.97 3706.01,-788.19 3706.51,-786.43 3707.23,-784.71 3708.18,-783.03 3709.34,-781.38 3710.73,-779.78 3712.34,-778.24 3714.17,-776.74 3716.21,-775.31 3718.47,-773.94 3720.93,-772.63 3723.6,-771.4 3726.45,-770.24 3729.49,-769.15 3732.7,-768.15 3736.07,-767.22 3739.59,-766.39 3743.24,-765.64 3747.02,-764.97 3750.91,-764.4 3754.89,-763.93 3758.94,-763.54 3763.05,-763.25 3767.21,-763.06 3771.39,-762.96 3775.58,-762.96 3779.77,-763.06"/>
<text text-anchor="start" x="3744.32" y="-808" font-family="Times,serif" font-size="14.00">C0449604</text>
<text text-anchor="start" x="3736.55" y="-794" font-family="Times,serif" font-size="14.00">site &#45; specific</text>
<text text-anchor="start" x="3750.54" y="-780" font-family="Times,serif" font-size="14.00">163:165</text>
</g>
<!-- id_27828958_DOT_8&#45;&#45;id_27828958_DOT_28 -->
<g id="edge17" class="edge">
<title>id_27828958_DOT_8&#45;&#45;id_27828958_DOT_28</title>
<path fill="none" stroke="black" stroke-dasharray="1,5" d="M4100.85,-649.13C4033.85,-679.64 3902.07,-739.65 3827.77,-773.48"/>
<text text-anchor="middle" x="3938.06" y="-714.11" font-family="Times,serif" font-size="14.00">0.776923</text>
</g>
<!-- id_27828958_DOT_10 -->
<g id="node10" class="node">
<title>id_27828958_DOT_10</title>
<polygon fill="cornflowerblue" stroke="cornflowerblue" points="3772.76,-1859.95 3776.63,-1860.14 3780.45,-1860.43 3784.22,-1860.81 3787.91,-1861.29 3791.52,-1861.86 3795.03,-1862.52 3798.43,-1863.27 3801.7,-1864.11 3804.83,-1865.03 3807.82,-1866.04 3810.64,-1867.12 3813.29,-1868.28 3815.76,-1869.52 3818.05,-1870.82 3820.15,-1872.19 3822.05,-1873.63 3823.75,-1875.12 3825.25,-1876.67 3826.54,-1878.27 3827.62,-1879.91 3828.49,-1881.6 3829.17,-1883.32 3829.63,-1885.07 3829.9,-1886.86 3829.97,-1888.66 3829.86,-1890.48 3829.55,-1892.32 3829.07,-1894.16 3828.41,-1896.01 3827.58,-1897.85 3826.6,-1899.69 3825.47,-1901.51 3824.2,-1903.31 3822.79,-1905.1 3821.26,-1906.85 3819.61,-1908.57 3817.85,-1910.26 3816,-1911.9 3814.05,-1913.5 3812.02,-1915.05 3809.91,-1916.54 3807.74,-1917.98 3805.5,-1919.35 3803.21,-1920.65 3800.88,-1921.89 3798.5,-1923.05 3796.08,-1924.13 3793.64,-1925.14 3791.16,-1926.06 3788.66,-1926.9 3786.15,-1927.65 3783.61,-1928.31 3781.07,-1928.88 3778.51,-1929.36 3775.94,-1929.74 3773.37,-1930.03 3770.8,-1930.22 3768.22,-1930.32 3765.64,-1930.32 3763.06,-1930.22 3760.48,-1930.03 3757.91,-1929.74 3755.35,-1929.36 3752.79,-1928.88 3750.24,-1928.31 3747.71,-1927.65 3745.19,-1926.9 3742.7,-1926.06 3740.22,-1925.14 3737.77,-1924.13 3735.36,-1923.05 3732.98,-1921.89 3730.64,-1920.65 3728.35,-1919.35 3726.12,-1917.98 3723.95,-1916.54 3721.84,-1915.05 3719.81,-1913.5 3717.86,-1911.9 3716.01,-1910.26 3714.25,-1908.57 3712.6,-1906.85 3711.07,-1905.1 3709.66,-1903.31 3708.39,-1901.51 3707.25,-1899.69 3706.27,-1897.85 3705.45,-1896.01 3704.79,-1894.16 3704.31,-1892.32 3704,-1890.48 3703.88,-1888.66 3703.96,-1886.86 3704.22,-1885.07 3704.69,-1883.32 3705.36,-1881.6 3706.24,-1879.91 3707.32,-1878.27 3708.61,-1876.67 3710.11,-1875.12 3711.81,-1873.63 3713.71,-1872.19 3715.8,-1870.82 3718.09,-1869.52 3720.57,-1868.28 3723.22,-1867.12 3726.04,-1866.04 3729.02,-1865.03 3732.16,-1864.11 3735.43,-1863.27 3738.82,-1862.52 3742.34,-1861.86 3745.95,-1861.29 3749.64,-1860.81 3753.41,-1860.43 3757.23,-1860.14 3761.09,-1859.95 3764.98,-1859.85 3768.88,-1859.85 3772.76,-1859.95"/>
<text text-anchor="start" x="3737.76" y="-1904.89" font-family="Times,serif" font-size="14.00">C0917892</text>
<text text-anchor="start" x="3732.92" y="-1890.89" font-family="Times,serif" font-size="14.00">genetic drift</text>
<text text-anchor="start" x="3750.98" y="-1876.89" font-family="Times,serif" font-size="14.00">65:66</text>
</g>
<!-- id_27828958_DOT_9&#45;&#45;id_27828958_DOT_10 -->
<g id="edge18" class="edge">
<title>id_27828958_DOT_9&#45;&#45;id_27828958_DOT_10</title>
<path fill="none" stroke="black" stroke-dasharray="1,5" d="M3558.11,-2032.39C3606.83,-2000.36 3683.28,-1950.09 3728.91,-1920.08"/>
<text text-anchor="middle" x="3617.26" y="-1979.04" font-family="Times,serif" font-size="14.00">0.714208</text>
</g>
<!-- id_27828958_DOT_25 -->
<g id="node25" class="node">
<title>id_27828958_DOT_25</title>
<polygon fill="darkslateblue" stroke="darkslateblue" points="3106.59,-2146.43 3110.02,-2146.62 3113.41,-2146.91 3116.76,-2147.3 3120.04,-2147.77 3123.24,-2148.34 3126.36,-2149.01 3129.37,-2149.76 3132.28,-2150.59 3135.06,-2151.52 3137.7,-2152.52 3140.21,-2153.61 3142.56,-2154.77 3144.76,-2156 3146.79,-2157.31 3148.65,-2158.68 3150.34,-2160.11 3151.85,-2161.61 3153.17,-2163.15 3154.32,-2164.75 3155.28,-2166.4 3156.06,-2168.08 3156.65,-2169.8 3157.07,-2171.56 3157.31,-2173.34 3157.37,-2175.15 3157.26,-2176.97 3156.99,-2178.8 3156.56,-2180.65 3155.98,-2182.49 3155.25,-2184.34 3154.38,-2186.17 3153.37,-2187.99 3152.24,-2189.8 3150.99,-2191.58 3149.63,-2193.34 3148.17,-2195.06 3146.61,-2196.74 3144.96,-2198.39 3143.23,-2199.99 3141.43,-2201.53 3139.56,-2203.03 3137.63,-2204.46 3135.65,-2205.83 3133.62,-2207.14 3131.54,-2208.37 3129.43,-2209.53 3127.29,-2210.62 3125.12,-2211.62 3122.92,-2212.55 3120.7,-2213.38 3118.47,-2214.13 3116.22,-2214.8 3113.96,-2215.37 3111.69,-2215.84 3109.42,-2216.23 3107.13,-2216.52 3104.85,-2216.71 3102.56,-2216.81 3100.27,-2216.81 3097.98,-2216.71 3095.69,-2216.52 3093.41,-2216.23 3091.13,-2215.84 3088.86,-2215.37 3086.6,-2214.8 3084.36,-2214.13 3082.12,-2213.38 3079.91,-2212.55 3077.71,-2211.62 3075.54,-2210.62 3073.39,-2209.53 3071.28,-2208.37 3069.21,-2207.14 3067.18,-2205.83 3065.19,-2204.46 3063.26,-2203.03 3061.39,-2201.53 3059.59,-2199.99 3057.86,-2198.39 3056.22,-2196.74 3054.66,-2195.06 3053.19,-2193.34 3051.83,-2191.58 3050.58,-2189.8 3049.45,-2187.99 3048.45,-2186.17 3047.58,-2184.34 3046.85,-2182.49 3046.26,-2180.65 3045.83,-2178.8 3045.56,-2176.97 3045.46,-2175.15 3045.52,-2173.34 3045.76,-2171.56 3046.17,-2169.8 3046.77,-2168.08 3047.55,-2166.4 3048.51,-2164.75 3049.65,-2163.15 3050.98,-2161.61 3052.49,-2160.11 3054.18,-2158.68 3056.04,-2157.31 3058.07,-2156 3060.27,-2154.77 3062.62,-2153.61 3065.12,-2152.52 3067.77,-2151.52 3070.55,-2150.59 3073.45,-2149.76 3076.47,-2149.01 3079.59,-2148.34 3082.79,-2147.77 3086.07,-2147.3 3089.41,-2146.91 3092.81,-2146.62 3096.24,-2146.43 3099.68,-2146.34 3103.14,-2146.34 3106.59,-2146.43"/>
<text text-anchor="start" x="3072.24" y="-2191.37" font-family="Times,serif" font-size="14.00">C3178952</text>
<text text-anchor="start" x="3080.42" y="-2177.37" font-family="Times,serif" font-size="14.00">grazing</text>
<text text-anchor="start" x="3078.47" y="-2163.37" font-family="Times,serif" font-size="14.00">133:133</text>
</g>
<!-- id_27828958_DOT_9&#45;&#45;id_27828958_DOT_25 -->
<g id="edge19" class="edge">
<title>id_27828958_DOT_9&#45;&#45;id_27828958_DOT_25</title>
<path fill="none" stroke="black" stroke-dasharray="1,5" d="M3454.61,-2079.12C3374.9,-2102.24 3232.67,-2143.5 3155.24,-2165.96"/>
<text text-anchor="middle" x="3278.67" y="-2125.34" font-family="Times,serif" font-size="14.00">0.655768</text>
</g>
<!-- id_27828958_DOT_26 -->
<g id="node26" class="node">
<title>id_27828958_DOT_26</title>
<polygon fill="darkslategrey" stroke="darkslategrey" points="4656.2,-2568.73 4659.63,-2568.92 4663.02,-2569.21 4666.37,-2569.59 4669.65,-2570.07 4672.85,-2570.64 4675.97,-2571.3 4678.98,-2572.05 4681.88,-2572.89 4684.66,-2573.81 4687.31,-2574.82 4689.82,-2575.9 4692.17,-2577.06 4694.37,-2578.3 4696.4,-2579.6 4698.26,-2580.97 4699.95,-2582.41 4701.45,-2583.9 4702.78,-2585.45 4703.93,-2587.05 4704.89,-2588.69 4705.67,-2590.38 4706.26,-2592.1 4706.68,-2593.85 4706.92,-2595.64 4706.98,-2597.44 4706.87,-2599.26 4706.6,-2601.1 4706.17,-2602.94 4705.59,-2604.79 4704.86,-2606.63 4703.99,-2608.46 4702.98,-2610.29 4701.85,-2612.09 4700.6,-2613.87 4699.24,-2615.63 4697.78,-2617.35 4696.22,-2619.04 4694.57,-2620.68 4692.84,-2622.28 4691.04,-2623.83 4689.17,-2625.32 4687.24,-2626.76 4685.26,-2628.13 4683.23,-2629.43 4681.15,-2630.67 4679.04,-2631.83 4676.9,-2632.91 4674.73,-2633.92 4672.53,-2634.84 4670.31,-2635.68 4668.08,-2636.43 4665.83,-2637.09 4663.57,-2637.66 4661.3,-2638.14 4659.02,-2638.52 4656.74,-2638.81 4654.46,-2639 4652.17,-2639.1 4649.88,-2639.1 4647.59,-2639 4645.3,-2638.81 4643.02,-2638.52 4640.74,-2638.14 4638.47,-2637.66 4636.21,-2637.09 4633.97,-2636.43 4631.73,-2635.68 4629.52,-2634.84 4627.32,-2633.92 4625.15,-2632.91 4623,-2631.83 4620.89,-2630.67 4618.82,-2629.43 4616.79,-2628.13 4614.8,-2626.76 4612.87,-2625.32 4611,-2623.83 4609.2,-2622.28 4607.47,-2620.68 4605.83,-2619.04 4604.27,-2617.35 4602.8,-2615.63 4601.44,-2613.87 4600.19,-2612.09 4599.06,-2610.29 4598.06,-2608.46 4597.19,-2606.63 4596.46,-2604.79 4595.87,-2602.94 4595.44,-2601.1 4595.17,-2599.26 4595.07,-2597.44 4595.13,-2595.64 4595.37,-2593.85 4595.78,-2592.1 4596.38,-2590.38 4597.16,-2588.69 4598.12,-2587.05 4599.26,-2585.45 4600.59,-2583.9 4602.1,-2582.41 4603.79,-2580.97 4605.65,-2579.6 4607.68,-2578.3 4609.87,-2577.06 4612.23,-2575.9 4614.73,-2574.82 4617.38,-2573.81 4620.16,-2572.89 4623.06,-2572.05 4626.08,-2571.3 4629.19,-2570.64 4632.4,-2570.07 4635.68,-2569.59 4639.02,-2569.21 4642.42,-2568.92 4645.84,-2568.73 4649.29,-2568.63 4652.75,-2568.63 4656.2,-2568.73"/>
<text text-anchor="start" x="4621.85" y="-2613.66" font-family="Times,serif" font-size="14.00">C0017446</text>
<text text-anchor="start" x="4625.75" y="-2599.66" font-family="Times,serif" font-size="14.00">locations</text>
<text text-anchor="start" x="4628.08" y="-2585.66" font-family="Times,serif" font-size="14.00">147:147</text>
</g>
<!-- id_27828958_DOT_11&#45;&#45;id_27828958_DOT_26 -->
<g id="edge20" class="edge">
<title>id_27828958_DOT_11&#45;&#45;id_27828958_DOT_26</title>
<path fill="none" stroke="black" stroke-dasharray="1,5" d="M4298.37,-2571.13C4375.15,-2578.26 4516.64,-2591.39 4595.04,-2598.67"/>
<text text-anchor="middle" x="4420.46" y="-2587.7" font-family="Times,serif" font-size="14.00">0.547343</text>
</g>
<!-- id_27828958_DOT_27 -->
<g id="node27" class="node">
<title>id_27828958_DOT_27</title>
<polygon fill="crimson" stroke="crimson" points="4221.9,-2944.54 4225.33,-2944.73 4228.72,-2945.02 4232.07,-2945.4 4235.35,-2945.88 4238.55,-2946.45 4241.67,-2947.11 4244.68,-2947.86 4247.59,-2948.7 4250.37,-2949.62 4253.01,-2950.63 4255.52,-2951.71 4257.87,-2952.87 4260.07,-2954.11 4262.1,-2955.41 4263.96,-2956.78 4265.65,-2958.22 4267.16,-2959.71 4268.48,-2961.26 4269.63,-2962.86 4270.59,-2964.5 4271.37,-2966.19 4271.96,-2967.91 4272.38,-2969.66 4272.62,-2971.45 4272.68,-2973.25 4272.58,-2975.07 4272.3,-2976.91 4271.87,-2978.75 4271.29,-2980.6 4270.56,-2982.44 4269.69,-2984.27 4268.68,-2986.1 4267.55,-2987.9 4266.3,-2989.68 4264.94,-2991.44 4263.48,-2993.16 4261.92,-2994.85 4260.27,-2996.49 4258.55,-2998.09 4256.74,-2999.64 4254.87,-3001.13 4252.94,-3002.57 4250.96,-3003.94 4248.93,-3005.24 4246.86,-3006.48 4244.74,-3007.64 4242.6,-3008.72 4240.43,-3009.73 4238.23,-3010.65 4236.02,-3011.49 4233.78,-3012.24 4231.53,-3012.9 4229.27,-3013.47 4227,-3013.95 4224.73,-3014.33 4222.44,-3014.62 4220.16,-3014.81 4217.87,-3014.91 4215.58,-3014.91 4213.29,-3014.81 4211,-3014.62 4208.72,-3014.33 4206.45,-3013.95 4204.18,-3013.47 4201.92,-3012.9 4199.67,-3012.24 4197.43,-3011.49 4195.22,-3010.65 4193.02,-3009.73 4190.85,-3008.72 4188.7,-3007.64 4186.59,-3006.48 4184.52,-3005.24 4182.49,-3003.94 4180.5,-3002.57 4178.57,-3001.13 4176.71,-2999.64 4174.9,-2998.09 4173.17,-2996.49 4171.53,-2994.85 4169.97,-2993.16 4168.5,-2991.44 4167.14,-2989.68 4165.9,-2987.9 4164.77,-2986.1 4163.76,-2984.27 4162.89,-2982.44 4162.16,-2980.6 4161.57,-2978.75 4161.14,-2976.91 4160.87,-2975.07 4160.77,-2973.25 4160.83,-2971.45 4161.07,-2969.66 4161.49,-2967.91 4162.08,-2966.19 4162.86,-2964.5 4163.82,-2962.86 4164.97,-2961.26 4166.29,-2959.71 4167.8,-2958.22 4169.49,-2956.78 4171.35,-2955.41 4173.38,-2954.11 4175.58,-2952.87 4177.93,-2951.71 4180.44,-2950.63 4183.08,-2949.62 4185.86,-2948.7 4188.77,-2947.86 4191.78,-2947.11 4194.9,-2946.45 4198.1,-2945.88 4201.38,-2945.4 4204.73,-2945.02 4208.12,-2944.73 4211.55,-2944.54 4215,-2944.44 4218.45,-2944.44 4221.9,-2944.54"/>
<text text-anchor="start" x="4187.56" y="-2989.47" font-family="Times,serif" font-size="14.00">C0871648</text>
<text text-anchor="start" x="4197.68" y="-2975.47" font-family="Times,serif" font-size="14.00">habitat</text>
<text text-anchor="start" x="4193.78" y="-2961.47" font-family="Times,serif" font-size="14.00">150:150</text>
</g>
<!-- id_27828958_DOT_11&#45;&#45;id_27828958_DOT_27 -->
<g id="edge5" class="edge">
<title>id_27828958_DOT_11&#45;&#45;id_27828958_DOT_27</title>
<path fill="none" stroke="black" d="M4242.89,-2601.46C4237.5,-2679.47 4224.59,-2866.01 4219.18,-2944.22"/>
<text text-anchor="middle" x="4204.79" y="-2775.64" font-family="Times,serif" font-size="14.00">0.010489</text>
</g>
<!-- id_27828958_DOT_12&#45;&#45;id_27828958_DOT_28 -->
<g id="edge21" class="edge">
<title>id_27828958_DOT_12&#45;&#45;id_27828958_DOT_28</title>
<path fill="none" stroke="black" stroke-dasharray="1,5" d="M3670.68,-1157.18C3692.17,-1082.13 3742.15,-907.64 3763.51,-833.04"/>
<text text-anchor="middle" x="3690.84" y="-997.91" font-family="Times,serif" font-size="14.00">0.737869</text>
</g>
<!-- id_27828958_DOT_13 -->
<g id="node13" class="node">
<title>id_27828958_DOT_13</title>
<polygon fill="darkgreen" stroke="darkgreen" points="3641.07,-0.23 3644.5,-0.42 3647.89,-0.71 3651.23,-1.09 3654.52,-1.57 3657.72,-2.14 3660.84,-2.8 3663.85,-3.55 3666.75,-4.39 3669.53,-5.31 3672.18,-6.32 3674.69,-7.4 3677.04,-8.57 3679.24,-9.8 3681.27,-11.1 3683.13,-12.48 3684.82,-13.91 3686.32,-15.4 3687.65,-16.95 3688.8,-18.55 3689.76,-20.19 3690.54,-21.88 3691.13,-23.6 3691.55,-25.36 3691.78,-27.14 3691.85,-28.94 3691.74,-30.77 3691.47,-32.6 3691.04,-34.44 3690.46,-36.29 3689.73,-38.13 3688.86,-39.97 3687.85,-41.79 3686.72,-43.6 3685.47,-45.38 3684.11,-47.13 3682.65,-48.86 3681.09,-50.54 3679.44,-52.19 3677.71,-53.78 3675.91,-55.33 3674.04,-56.82 3672.11,-58.26 3670.13,-59.63 3668.1,-60.94 3666.02,-62.17 3663.91,-63.33 3661.77,-64.42 3659.6,-65.42 3657.4,-66.34 3655.18,-67.18 3652.95,-67.93 3650.7,-68.59 3648.44,-69.16 3646.17,-69.64 3643.89,-70.02 3641.61,-70.31 3639.33,-70.51 3637.04,-70.6 3634.75,-70.6 3632.46,-70.51 3630.17,-70.31 3627.89,-70.02 3625.61,-69.64 3623.34,-69.16 3621.08,-68.59 3618.84,-67.93 3616.6,-67.18 3614.38,-66.34 3612.19,-65.42 3610.02,-64.42 3607.87,-63.33 3605.76,-62.17 3603.69,-60.94 3601.66,-59.63 3599.67,-58.26 3597.74,-56.82 3595.87,-55.33 3594.07,-53.78 3592.34,-52.19 3590.7,-50.54 3589.14,-48.86 3587.67,-47.13 3586.31,-45.38 3585.06,-43.6 3583.93,-41.79 3582.93,-39.97 3582.06,-38.13 3581.33,-36.29 3580.74,-34.44 3580.31,-32.6 3580.04,-30.77 3579.94,-28.94 3580,-27.14 3580.24,-25.36 3580.65,-23.6 3581.25,-21.88 3582.03,-20.19 3582.99,-18.55 3584.13,-16.95 3585.46,-15.4 3586.97,-13.91 3588.66,-12.48 3590.52,-11.1 3592.55,-9.8 3594.74,-8.57 3597.1,-7.4 3599.6,-6.32 3602.25,-5.31 3605.03,-4.39 3607.93,-3.55 3610.95,-2.8 3614.06,-2.14 3617.27,-1.57 3620.55,-1.09 3623.89,-0.71 3627.29,-0.42 3630.71,-0.23 3634.16,-0.13 3637.62,-0.13 3641.07,-0.23"/>
<text text-anchor="start" x="3606.72" y="-45.17" font-family="Times,serif" font-size="14.00">C2603343</text>
<text text-anchor="start" x="3620.72" y="-31.17" font-family="Times,serif" font-size="14.00">study</text>
<text text-anchor="start" x="3619.95" y="-17.17" font-family="Times,serif" font-size="14.00">79:79</text>
</g>
<!-- id_27828958_DOT_33 -->
<g id="node33" class="node">
<title>id_27828958_DOT_33</title>
<polygon fill="forestgreen" stroke="forestgreen" points="3635.03,-385.11 3638.46,-385.3 3641.85,-385.59 3645.2,-385.97 3648.48,-386.45 3651.68,-387.02 3654.8,-387.68 3657.81,-388.43 3660.72,-389.27 3663.5,-390.19 3666.14,-391.2 3668.65,-392.28 3671,-393.44 3673.2,-394.68 3675.23,-395.98 3677.09,-397.35 3678.78,-398.79 3680.29,-400.28 3681.61,-401.83 3682.76,-403.43 3683.72,-405.07 3684.5,-406.76 3685.09,-408.48 3685.51,-410.23 3685.75,-412.02 3685.81,-413.82 3685.71,-415.64 3685.44,-417.48 3685.01,-419.32 3684.42,-421.17 3683.69,-423.01 3682.82,-424.84 3681.81,-426.67 3680.68,-428.47 3679.43,-430.26 3678.07,-432.01 3676.61,-433.73 3675.05,-435.42 3673.4,-437.06 3671.68,-438.66 3669.87,-440.21 3668,-441.7 3666.08,-443.14 3664.09,-444.51 3662.06,-445.81 3659.99,-447.05 3657.88,-448.21 3655.73,-449.29 3653.56,-450.3 3651.36,-451.22 3649.15,-452.06 3646.91,-452.81 3644.66,-453.47 3642.4,-454.04 3640.13,-454.52 3637.86,-454.9 3635.57,-455.19 3633.29,-455.38 3631,-455.48 3628.71,-455.48 3626.42,-455.38 3624.14,-455.19 3621.85,-454.9 3619.58,-454.52 3617.31,-454.04 3615.05,-453.47 3612.8,-452.81 3610.56,-452.06 3608.35,-451.22 3606.15,-450.3 3603.98,-449.29 3601.84,-448.21 3599.72,-447.05 3597.65,-445.81 3595.62,-444.51 3593.63,-443.14 3591.71,-441.7 3589.84,-440.21 3588.03,-438.66 3586.31,-437.06 3584.66,-435.42 3583.1,-433.73 3581.64,-432.01 3580.28,-430.26 3579.03,-428.47 3577.9,-426.67 3576.89,-424.84 3576.02,-423.01 3575.29,-421.17 3574.71,-419.32 3574.28,-417.48 3574,-415.64 3573.9,-413.82 3573.96,-412.02 3574.2,-410.23 3574.62,-408.48 3575.21,-406.76 3575.99,-405.07 3576.95,-403.43 3578.1,-401.83 3579.42,-400.28 3580.93,-398.79 3582.62,-397.35 3584.48,-395.98 3586.51,-394.68 3588.71,-393.44 3591.06,-392.28 3593.57,-391.2 3596.21,-390.19 3598.99,-389.27 3601.9,-388.43 3604.91,-387.68 3608.03,-387.02 3611.23,-386.45 3614.51,-385.97 3617.86,-385.59 3621.25,-385.3 3624.68,-385.11 3628.13,-385.01 3631.58,-385.01 3635.03,-385.11"/>
<text text-anchor="start" x="3600.69" y="-430.04" font-family="Times,serif" font-size="14.00">C0085973</text>
<text text-anchor="start" x="3600.89" y="-416.04" font-family="Times,serif" font-size="14.00">case study</text>
<text text-anchor="start" x="3606.91" y="-402.04" font-family="Times,serif" font-size="14.00">206:207</text>
</g>
<!-- id_27828958_DOT_13&#45;&#45;id_27828958_DOT_33 -->
<g id="edge22" class="edge">
<title>id_27828958_DOT_13&#45;&#45;id_27828958_DOT_33</title>
<path fill="none" stroke="black" stroke-dasharray="1,5" d="M3635.34,-70.89C3634.18,-144.21 3631.56,-311.56 3630.41,-384.81"/>
<text text-anchor="middle" x="3606.62" y="-230.65" font-family="Times,serif" font-size="14.00">0.836215</text>
</g>
<!-- id_27828958_DOT_14 -->
<g id="node14" class="node">
<title>id_27828958_DOT_14</title>
<polygon fill="darkkhaki" stroke="darkkhaki" points="6071.28,-2992.04 6074.79,-2992.24 6078.26,-2992.52 6081.68,-2992.91 6085.04,-2993.39 6088.32,-2993.96 6091.51,-2994.62 6094.6,-2995.37 6097.57,-2996.21 6100.42,-2997.13 6103.13,-2998.13 6105.69,-2999.22 6108.1,-3000.38 6110.35,-3001.61 6112.43,-3002.92 6114.33,-3004.29 6116.06,-3005.72 6117.6,-3007.22 6118.96,-3008.76 6120.14,-3010.36 6121.12,-3012.01 6121.92,-3013.69 6122.53,-3015.42 6122.95,-3017.17 6123.19,-3018.95 6123.26,-3020.76 6123.15,-3022.58 6122.88,-3024.42 6122.43,-3026.26 6121.84,-3028.1 6121.09,-3029.95 6120.2,-3031.78 6119.17,-3033.6 6118.01,-3035.41 6116.73,-3037.19 6115.34,-3038.95 6113.84,-3040.67 6112.25,-3042.36 6110.56,-3044 6108.79,-3045.6 6106.94,-3047.15 6105.03,-3048.64 6103.06,-3050.07 6101.03,-3051.44 6098.95,-3052.75 6096.82,-3053.98 6094.66,-3055.15 6092.47,-3056.23 6090.24,-3057.24 6087.99,-3058.16 6085.73,-3059 6083.44,-3059.75 6081.14,-3060.41 6078.82,-3060.98 6076.5,-3061.46 6074.17,-3061.84 6071.83,-3062.13 6069.49,-3062.32 6067.15,-3062.42 6064.81,-3062.42 6062.46,-3062.32 6060.12,-3062.13 6057.79,-3061.84 6055.45,-3061.46 6053.13,-3060.98 6050.82,-3060.41 6048.52,-3059.75 6046.23,-3059 6043.96,-3058.16 6041.71,-3057.24 6039.49,-3056.23 6037.29,-3055.15 6035.13,-3053.98 6033.01,-3052.75 6030.93,-3051.44 6028.9,-3050.07 6026.92,-3048.64 6025.01,-3047.15 6023.16,-3045.6 6021.39,-3044 6019.71,-3042.36 6018.11,-3040.67 6016.61,-3038.95 6015.22,-3037.19 6013.94,-3035.41 6012.79,-3033.6 6011.76,-3031.78 6010.87,-3029.95 6010.12,-3028.1 6009.52,-3026.26 6009.08,-3024.42 6008.8,-3022.58 6008.69,-3020.76 6008.76,-3018.95 6009,-3017.17 6009.43,-3015.42 6010.04,-3013.69 6010.83,-3012.01 6011.82,-3010.36 6012.99,-3008.76 6014.35,-3007.22 6015.89,-3005.72 6017.62,-3004.29 6019.53,-3002.92 6021.6,-3001.61 6023.85,-3000.38 6026.26,-2999.22 6028.83,-2998.13 6031.54,-2997.13 6034.38,-2996.21 6037.35,-2995.37 6040.44,-2994.62 6043.63,-2993.96 6046.91,-2993.39 6050.27,-2992.91 6053.69,-2992.52 6057.17,-2992.24 6060.68,-2992.04 6064.21,-2991.95 6067.75,-2991.95 6071.28,-2992.04"/>
<text text-anchor="start" x="6036.81" y="-3036.98" font-family="Times,serif" font-size="14.00">C1257890</text>
<text text-anchor="start" x="6036.04" y="-3022.98" font-family="Times,serif" font-size="14.00">population</text>
<text text-anchor="start" x="6050.03" y="-3008.98" font-family="Times,serif" font-size="14.00">81:81</text>
</g>
<!-- id_27828958_DOT_24 -->
<g id="node24" class="node">
<title>id_27828958_DOT_24</title>
<polygon fill="darkkhaki" stroke="darkkhaki" points="6447.24,-2996.42 6450.75,-2996.61 6454.22,-2996.9 6457.65,-2997.29 6461,-2997.76 6464.28,-2998.34 6467.47,-2999 6470.56,-2999.75 6473.53,-3000.58 6476.38,-3001.51 6479.09,-3002.51 6481.65,-3003.6 6484.06,-3004.76 6486.31,-3005.99 6488.39,-3007.3 6490.3,-3008.67 6492.02,-3010.1 6493.57,-3011.6 6494.93,-3013.14 6496.1,-3014.74 6497.08,-3016.39 6497.88,-3018.07 6498.49,-3019.79 6498.91,-3021.55 6499.16,-3023.33 6499.22,-3025.14 6499.11,-3026.96 6498.84,-3028.8 6498.4,-3030.64 6497.8,-3032.48 6497.05,-3034.33 6496.16,-3036.16 6495.13,-3037.98 6493.97,-3039.79 6492.69,-3041.57 6491.3,-3043.33 6489.8,-3045.05 6488.21,-3046.74 6486.52,-3048.38 6484.75,-3049.98 6482.91,-3051.53 6480.99,-3053.02 6479.02,-3054.45 6476.99,-3055.82 6474.91,-3057.13 6472.78,-3058.36 6470.62,-3059.52 6468.43,-3060.61 6466.21,-3061.61 6463.96,-3062.54 6461.69,-3063.37 6459.4,-3064.13 6457.1,-3064.79 6454.78,-3065.36 6452.46,-3065.83 6450.13,-3066.22 6447.79,-3066.51 6445.45,-3066.7 6443.11,-3066.8 6440.77,-3066.8 6438.42,-3066.7 6436.08,-3066.51 6433.75,-3066.22 6431.42,-3065.83 6429.09,-3065.36 6426.78,-3064.79 6424.48,-3064.13 6422.19,-3063.37 6419.92,-3062.54 6417.67,-3061.61 6415.45,-3060.61 6413.25,-3059.52 6411.09,-3058.36 6408.97,-3057.13 6406.89,-3055.82 6404.86,-3054.45 6402.88,-3053.02 6400.97,-3051.53 6399.13,-3049.98 6397.36,-3048.38 6395.67,-3046.74 6394.07,-3045.05 6392.58,-3043.33 6391.18,-3041.57 6389.9,-3039.79 6388.75,-3037.98 6387.72,-3036.16 6386.83,-3034.33 6386.08,-3032.48 6385.48,-3030.64 6385.04,-3028.8 6384.76,-3026.96 6384.66,-3025.14 6384.72,-3023.33 6384.96,-3021.55 6385.39,-3019.79 6386,-3018.07 6386.8,-3016.39 6387.78,-3014.74 6388.95,-3013.14 6390.31,-3011.6 6391.86,-3010.1 6393.58,-3008.67 6395.49,-3007.3 6397.57,-3005.99 6399.82,-3004.76 6402.23,-3003.6 6404.79,-3002.51 6407.5,-3001.51 6410.34,-3000.58 6413.32,-2999.75 6416.4,-2999 6419.59,-2998.34 6422.87,-2997.76 6426.23,-2997.29 6429.66,-2996.9 6433.13,-2996.61 6436.64,-2996.42 6440.17,-2996.33 6443.71,-2996.33 6447.24,-2996.42"/>
<text text-anchor="start" x="6412.77" y="-3041.36" font-family="Times,serif" font-size="14.00">C1257890</text>
<text text-anchor="start" x="6412" y="-3027.36" font-family="Times,serif" font-size="14.00">population</text>
<text text-anchor="start" x="6418.99" y="-3013.36" font-family="Times,serif" font-size="14.00">126:126</text>
</g>
<!-- id_27828958_DOT_14&#45;&#45;id_27828958_DOT_24 -->
<g id="edge6" class="edge">
<title>id_27828958_DOT_14&#45;&#45;id_27828958_DOT_24</title>
<path fill="none" stroke="black" d="M6122.26,-3027.84C6193.14,-3028.66 6314.21,-3030.07 6385.27,-3030.9"/>
<text text-anchor="middle" x="6227.52" y="-3032.17" font-family="Times,serif" font-size="14.00">0.004787</text>
</g>
<!-- id_27828958_DOT_30 -->
<g id="node30" class="node">
<title>id_27828958_DOT_30</title>
<polygon fill="dodgerblue" stroke="dodgerblue" points="5695.22,-3118.82 5701.15,-3119.01 5707.02,-3119.3 5712.8,-3119.68 5718.47,-3120.16 5724.02,-3120.73 5729.41,-3121.39 5734.63,-3122.14 5739.65,-3122.98 5744.46,-3123.9 5749.04,-3124.91 5753.37,-3125.99 5757.44,-3127.15 5761.24,-3128.39 5764.75,-3129.69 5767.97,-3131.07 5770.89,-3132.5 5773.5,-3133.99 5775.8,-3135.54 5777.78,-3137.14 5779.44,-3138.78 5780.79,-3140.47 5781.82,-3142.19 5782.54,-3143.95 5782.95,-3145.73 5783.06,-3147.53 5782.87,-3149.36 5782.41,-3151.19 5781.66,-3153.03 5780.65,-3154.88 5779.39,-3156.72 5777.88,-3158.56 5776.14,-3160.38 5774.19,-3162.19 5772.03,-3163.97 5769.67,-3165.72 5767.14,-3167.45 5764.44,-3169.13 5761.59,-3170.78 5758.6,-3172.37 5755.49,-3173.92 5752.25,-3175.41 5748.92,-3176.85 5745.48,-3178.22 5741.97,-3179.52 5738.38,-3180.76 5734.73,-3181.92 5731.02,-3183.01 5727.26,-3184.01 5723.46,-3184.93 5719.63,-3185.77 5715.77,-3186.52 5711.88,-3187.18 5707.97,-3187.75 5704.04,-3188.23 5700.1,-3188.61 5696.15,-3188.9 5692.2,-3189.1 5688.24,-3189.19 5684.28,-3189.19 5680.32,-3189.1 5676.36,-3188.9 5672.42,-3188.61 5668.48,-3188.23 5664.55,-3187.75 5660.64,-3187.18 5656.75,-3186.52 5652.89,-3185.77 5649.05,-3184.93 5645.25,-3184.01 5641.5,-3183.01 5637.79,-3181.92 5634.13,-3180.76 5630.55,-3179.52 5627.03,-3178.22 5623.6,-3176.85 5620.26,-3175.41 5617.03,-3173.92 5613.91,-3172.37 5610.92,-3170.78 5608.07,-3169.13 5605.37,-3167.45 5602.84,-3165.72 5600.49,-3163.97 5598.33,-3162.19 5596.37,-3160.38 5594.64,-3158.56 5593.13,-3156.72 5591.86,-3154.88 5590.85,-3153.03 5590.11,-3151.19 5589.64,-3149.36 5589.46,-3147.53 5589.57,-3145.73 5589.98,-3143.95 5590.7,-3142.19 5591.73,-3140.47 5593.08,-3138.78 5594.74,-3137.14 5596.72,-3135.54 5599.02,-3133.99 5601.63,-3132.5 5604.54,-3131.07 5607.76,-3129.69 5611.28,-3128.39 5615.08,-3127.15 5619.15,-3125.99 5623.48,-3124.91 5628.06,-3123.9 5632.87,-3122.98 5637.89,-3122.14 5643.11,-3121.39 5648.5,-3120.73 5654.04,-3120.16 5659.72,-3119.68 5665.5,-3119.3 5671.37,-3119.01 5677.3,-3118.82 5683.27,-3118.72 5689.25,-3118.72 5695.22,-3118.82"/>
<text text-anchor="start" x="5657.09" y="-3163.76" font-family="Times,serif" font-size="14.00">C0035161</text>
<text text-anchor="start" x="5630.08" y="-3149.76" font-family="Times,serif" font-size="14.00">mainland congeners</text>
<text text-anchor="start" x="5663.31" y="-3135.76" font-family="Times,serif" font-size="14.00">176:177</text>
</g>
<!-- id_27828958_DOT_14&#45;&#45;id_27828958_DOT_30 -->
<g id="edge23" class="edge">
<title>id_27828958_DOT_14&#45;&#45;id_27828958_DOT_30</title>
<path fill="none" stroke="black" stroke-dasharray="1,5" d="M6019.8,-3042.6C5955.76,-3063.98 5839.2,-3102.89 5762.24,-3128.59"/>
<text text-anchor="middle" x="5864.77" y="-3088.39" font-family="Times,serif" font-size="14.00">0.870888</text>
</g>
<!-- id_27828958_DOT_15 -->
<g id="node15" class="node">
<title>id_27828958_DOT_15</title>
<polygon fill="darkmagenta" stroke="darkmagenta" points="5014.77,-2727.1 5018.2,-2727.3 5021.59,-2727.59 5024.93,-2727.97 5028.21,-2728.45 5031.42,-2729.02 5034.53,-2729.68 5037.55,-2730.43 5040.45,-2731.27 5043.23,-2732.19 5045.88,-2733.19 5048.38,-2734.28 5050.74,-2735.44 5052.93,-2736.68 5054.96,-2737.98 5056.83,-2739.35 5058.51,-2740.79 5060.02,-2742.28 5061.35,-2743.83 5062.49,-2745.42 5063.45,-2747.07 5064.23,-2748.75 5064.83,-2750.48 5065.24,-2752.23 5065.48,-2754.01 5065.55,-2755.82 5065.44,-2757.64 5065.17,-2759.48 5064.74,-2761.32 5064.16,-2763.17 5063.42,-2765.01 5062.55,-2766.84 5061.55,-2768.67 5060.42,-2770.47 5059.17,-2772.25 5057.81,-2774.01 5056.35,-2775.73 5054.79,-2777.42 5053.14,-2779.06 5051.41,-2780.66 5049.61,-2782.21 5047.74,-2783.7 5045.81,-2785.13 5043.83,-2786.51 5041.79,-2787.81 5039.72,-2789.05 5037.61,-2790.21 5035.47,-2791.29 5033.29,-2792.3 5031.1,-2793.22 5028.88,-2794.06 5026.65,-2794.81 5024.4,-2795.47 5022.14,-2796.04 5019.87,-2796.52 5017.59,-2796.9 5015.31,-2797.19 5013.02,-2797.38 5010.73,-2797.48 5008.44,-2797.48 5006.16,-2797.38 5003.87,-2797.19 5001.59,-2796.9 4999.31,-2796.52 4997.04,-2796.04 4994.78,-2795.47 4992.53,-2794.81 4990.3,-2794.06 4988.08,-2793.22 4985.89,-2792.3 4983.71,-2791.29 4981.57,-2790.21 4979.46,-2789.05 4977.38,-2787.81 4975.35,-2786.51 4973.37,-2785.13 4971.44,-2783.7 4969.57,-2782.21 4967.77,-2780.66 4966.04,-2779.06 4964.39,-2777.42 4962.83,-2775.73 4961.37,-2774.01 4960.01,-2772.25 4958.76,-2770.47 4957.63,-2768.67 4956.63,-2766.84 4955.75,-2765.01 4955.02,-2763.17 4954.44,-2761.32 4954.01,-2759.48 4953.74,-2757.64 4953.63,-2755.82 4953.7,-2754.01 4953.94,-2752.23 4954.35,-2750.48 4954.95,-2748.75 4955.72,-2747.07 4956.69,-2745.42 4957.83,-2743.83 4959.16,-2742.28 4960.67,-2740.79 4962.35,-2739.35 4964.21,-2737.98 4966.25,-2736.68 4968.44,-2735.44 4970.8,-2734.28 4973.3,-2733.19 4975.95,-2732.19 4978.73,-2731.27 4981.63,-2730.43 4984.65,-2729.68 4987.76,-2729.02 4990.97,-2728.45 4994.25,-2727.97 4997.59,-2727.59 5000.98,-2727.3 5004.41,-2727.1 5007.86,-2727.01 5011.32,-2727.01 5014.77,-2727.1"/>
<text text-anchor="start" x="4980.42" y="-2772.04" font-family="Times,serif" font-size="14.00">C0678594</text>
<text text-anchor="start" x="4985.1" y="-2758.04" font-family="Times,serif" font-size="14.00">structure</text>
<text text-anchor="start" x="4993.64" y="-2744.04" font-family="Times,serif" font-size="14.00">85:85</text>
</g>
<!-- id_27828958_DOT_15&#45;&#45;id_27828958_DOT_26 -->
<g id="edge24" class="edge">
<title>id_27828958_DOT_15&#45;&#45;id_27828958_DOT_26</title>
<path fill="none" stroke="black" stroke-dasharray="1,5" d="M4960.48,-2740.55C4889.52,-2709.21 4759.51,-2651.78 4692.85,-2622.34"/>
<text text-anchor="middle" x="4800.42" y="-2684.25" font-family="Times,serif" font-size="14.00">0.801494</text>
</g>
<!-- id_27828958_DOT_29 -->
<g id="node29" class="node">
<title>id_27828958_DOT_29</title>
<polygon fill="deepskyblue" stroke="deepskyblue" points="5352.11,-2913.88 5355.54,-2914.07 5358.93,-2914.36 5362.28,-2914.75 5365.56,-2915.22 5368.76,-2915.8 5371.88,-2916.46 5374.89,-2917.21 5377.8,-2918.04 5380.58,-2918.97 5383.22,-2919.97 5385.73,-2921.06 5388.08,-2922.22 5390.28,-2923.45 5392.31,-2924.76 5394.17,-2926.13 5395.86,-2927.56 5397.36,-2929.06 5398.69,-2930.6 5399.84,-2932.2 5400.8,-2933.85 5401.58,-2935.53 5402.17,-2937.25 5402.59,-2939.01 5402.83,-2940.79 5402.89,-2942.6 5402.78,-2944.42 5402.51,-2946.26 5402.08,-2948.1 5401.5,-2949.94 5400.77,-2951.79 5399.9,-2953.62 5398.89,-2955.44 5397.76,-2957.25 5396.51,-2959.03 5395.15,-2960.79 5393.69,-2962.51 5392.13,-2964.2 5390.48,-2965.84 5388.75,-2967.44 5386.95,-2968.99 5385.08,-2970.48 5383.15,-2971.91 5381.17,-2973.28 5379.14,-2974.59 5377.06,-2975.82 5374.95,-2976.98 5372.81,-2978.07 5370.64,-2979.07 5368.44,-2980 5366.22,-2980.83 5363.99,-2981.59 5361.74,-2982.25 5359.48,-2982.82 5357.21,-2983.29 5354.93,-2983.68 5352.65,-2983.97 5350.37,-2984.16 5348.08,-2984.26 5345.79,-2984.26 5343.5,-2984.16 5341.21,-2983.97 5338.93,-2983.68 5336.65,-2983.29 5334.38,-2982.82 5332.12,-2982.25 5329.88,-2981.59 5327.64,-2980.83 5325.43,-2980 5323.23,-2979.07 5321.06,-2978.07 5318.91,-2976.98 5316.8,-2975.82 5314.73,-2974.59 5312.7,-2973.28 5310.71,-2971.91 5308.78,-2970.48 5306.91,-2968.99 5305.11,-2967.44 5303.38,-2965.84 5301.74,-2964.2 5300.18,-2962.51 5298.71,-2960.79 5297.35,-2959.03 5296.1,-2957.25 5294.97,-2955.44 5293.97,-2953.62 5293.1,-2951.79 5292.37,-2949.94 5291.78,-2948.1 5291.35,-2946.26 5291.08,-2944.42 5290.98,-2942.6 5291.04,-2940.79 5291.28,-2939.01 5291.69,-2937.25 5292.29,-2935.53 5293.07,-2933.85 5294.03,-2932.2 5295.17,-2930.6 5296.5,-2929.06 5298.01,-2927.56 5299.7,-2926.13 5301.56,-2924.76 5303.59,-2923.45 5305.79,-2922.22 5308.14,-2921.06 5310.64,-2919.97 5313.29,-2918.97 5316.07,-2918.04 5318.97,-2917.21 5321.99,-2916.46 5325.11,-2915.8 5328.31,-2915.22 5331.59,-2914.75 5334.93,-2914.36 5338.33,-2914.07 5341.76,-2913.88 5345.2,-2913.79 5348.66,-2913.79 5352.11,-2913.88"/>
<text text-anchor="start" x="5317.76" y="-2958.82" font-family="Times,serif" font-size="14.00">C0449774</text>
<text text-anchor="start" x="5324.77" y="-2944.82" font-family="Times,serif" font-size="14.00">patterns</text>
<text text-anchor="start" x="5323.99" y="-2930.82" font-family="Times,serif" font-size="14.00">166:166</text>
</g>
<!-- id_27828958_DOT_15&#45;&#45;id_27828958_DOT_29 -->
<g id="edge25" class="edge">
<title>id_27828958_DOT_15&#45;&#45;id_27828958_DOT_29</title>
<path fill="none" stroke="black" stroke-dasharray="1,5" d="M5048.29,-2783.67C5111.2,-2818.5 5235.31,-2887.22 5302.01,-2924.15"/>
<text text-anchor="middle" x="5148.9" y="-2856.71" font-family="Times,serif" font-size="14.00">0.608618</text>
</g>
<!-- id_27828958_DOT_16 -->
<g id="node16" class="node">
<title>id_27828958_DOT_16</title>
<polygon fill="blue" stroke="blue" points="1173.46,-3446.98 1177.19,-3447.17 1180.88,-3447.46 1184.52,-3447.84 1188.09,-3448.32 1191.58,-3448.89 1194.97,-3449.55 1198.25,-3450.3 1201.41,-3451.14 1204.43,-3452.06 1207.31,-3453.07 1210.04,-3454.15 1212.6,-3455.32 1214.99,-3456.55 1217.2,-3457.86 1219.23,-3459.23 1221.06,-3460.66 1222.7,-3462.15 1224.15,-3463.7 1225.39,-3465.3 1226.44,-3466.94 1227.29,-3468.63 1227.93,-3470.35 1228.39,-3472.11 1228.64,-3473.89 1228.71,-3475.7 1228.6,-3477.52 1228.3,-3479.35 1227.84,-3481.2 1227.2,-3483.04 1226.41,-3484.88 1225.46,-3486.72 1224.36,-3488.54 1223.13,-3490.35 1221.77,-3492.13 1220.29,-3493.88 1218.7,-3495.61 1217.01,-3497.29 1215.21,-3498.94 1213.33,-3500.54 1211.37,-3502.08 1209.34,-3503.58 1207.24,-3505.01 1205.08,-3506.38 1202.87,-3507.69 1200.61,-3508.92 1198.31,-3510.08 1195.98,-3511.17 1193.62,-3512.17 1191.23,-3513.09 1188.82,-3513.93 1186.38,-3514.68 1183.94,-3515.34 1181.48,-3515.91 1179.01,-3516.39 1176.53,-3516.78 1174.05,-3517.06 1171.56,-3517.26 1169.07,-3517.35 1166.58,-3517.35 1164.09,-3517.26 1161.6,-3517.06 1159.12,-3516.78 1156.64,-3516.39 1154.17,-3515.91 1151.71,-3515.34 1149.26,-3514.68 1146.83,-3513.93 1144.42,-3513.09 1142.03,-3512.17 1139.66,-3511.17 1137.33,-3510.08 1135.03,-3508.92 1132.78,-3507.69 1130.57,-3506.38 1128.41,-3505.01 1126.31,-3503.58 1124.27,-3502.08 1122.31,-3500.54 1120.43,-3498.94 1118.64,-3497.29 1116.94,-3495.61 1115.35,-3493.88 1113.87,-3492.13 1112.51,-3490.35 1111.28,-3488.54 1110.19,-3486.72 1109.24,-3484.88 1108.44,-3483.04 1107.81,-3481.2 1107.34,-3479.35 1107.05,-3477.52 1106.93,-3475.7 1107,-3473.89 1107.26,-3472.11 1107.71,-3470.35 1108.36,-3468.63 1109.21,-3466.94 1110.25,-3465.3 1111.5,-3463.7 1112.94,-3462.15 1114.58,-3460.66 1116.42,-3459.23 1118.45,-3457.86 1120.66,-3456.55 1123.05,-3455.32 1125.61,-3454.15 1128.33,-3453.07 1131.21,-3452.06 1134.24,-3451.14 1137.4,-3450.3 1140.68,-3449.55 1144.07,-3448.89 1147.56,-3448.32 1151.13,-3447.84 1154.77,-3447.46 1158.46,-3447.17 1162.19,-3446.98 1165.94,-3446.88 1169.7,-3446.88 1173.46,-3446.98"/>
<text text-anchor="start" x="1138.65" y="-3491.92" font-family="Times,serif" font-size="14.00">C0023916</text>
<text text-anchor="start" x="1135.36" y="-3477.92" font-family="Times,serif" font-size="14.00">island giant</text>
<text text-anchor="start" x="1151.88" y="-3463.92" font-family="Times,serif" font-size="14.00">93:94</text>
</g>
<!-- id_27828958_DOT_16&#45;&#45;id_27828958_DOT_18 -->
<g id="edge7" class="edge">
<title>id_27828958_DOT_16&#45;&#45;id_27828958_DOT_18</title>
<path fill="none" stroke="black" d="M1130.88,-3506.72C1069.65,-3547.51 947.16,-3629.09 879.42,-3674.21"/>
<text text-anchor="middle" x="978.9" y="-3593.27" font-family="Times,serif" font-size="14.00">0.135367</text>
</g>
<!-- id_27828958_DOT_16&#45;&#45;id_27828958_DOT_31 -->
<g id="edge26" class="edge">
<title>id_27828958_DOT_16&#45;&#45;id_27828958_DOT_31</title>
<path fill="none" stroke="black" stroke-dasharray="1,5" d="M1208.84,-3453.37C1272.22,-3408.95 1392.83,-3324.41 1452.02,-3282.92"/>
<text text-anchor="middle" x="1304.18" y="-3370.95" font-family="Times,serif" font-size="14.00">0.520480</text>
</g>
<!-- id_27828958_DOT_32 -->
<g id="node32" class="node">
<title>id_27828958_DOT_32</title>
<polygon fill="firebrick" stroke="firebrick" points="2708.61,-2260.26 2713.2,-2260.45 2717.75,-2260.74 2722.23,-2261.13 2726.62,-2261.6 2730.91,-2262.17 2735.09,-2262.84 2739.13,-2263.59 2743.01,-2264.42 2746.74,-2265.35 2750.28,-2266.35 2753.64,-2267.44 2756.79,-2268.6 2759.73,-2269.83 2762.45,-2271.14 2764.95,-2272.51 2767.2,-2273.94 2769.22,-2275.44 2771,-2276.98 2772.54,-2278.58 2773.82,-2280.23 2774.86,-2281.91 2775.66,-2283.63 2776.22,-2285.39 2776.54,-2287.17 2776.62,-2288.98 2776.48,-2290.8 2776.12,-2292.63 2775.54,-2294.48 2774.76,-2296.32 2773.78,-2298.17 2772.62,-2300 2771.27,-2301.82 2769.76,-2303.63 2768.08,-2305.41 2766.26,-2307.17 2764.3,-2308.89 2762.21,-2310.57 2760.01,-2312.22 2757.69,-2313.82 2755.28,-2315.36 2752.77,-2316.86 2750.19,-2318.29 2747.53,-2319.66 2744.81,-2320.97 2742.03,-2322.2 2739.21,-2323.36 2736.34,-2324.45 2733.43,-2325.45 2730.48,-2326.38 2727.52,-2327.21 2724.52,-2327.96 2721.51,-2328.63 2718.48,-2329.2 2715.44,-2329.67 2712.4,-2330.06 2709.34,-2330.35 2706.28,-2330.54 2703.21,-2330.64 2700.14,-2330.64 2697.08,-2330.54 2694.02,-2330.35 2690.96,-2330.06 2687.91,-2329.67 2684.87,-2329.2 2681.84,-2328.63 2678.83,-2327.96 2675.84,-2327.21 2672.87,-2326.38 2669.93,-2325.45 2667.02,-2324.45 2664.15,-2323.36 2661.32,-2322.2 2658.54,-2320.97 2655.82,-2319.66 2653.17,-2318.29 2650.58,-2316.86 2648.08,-2315.36 2645.66,-2313.82 2643.35,-2312.22 2641.14,-2310.57 2639.05,-2308.89 2637.09,-2307.17 2635.27,-2305.41 2633.6,-2303.63 2632.09,-2301.82 2630.74,-2300 2629.57,-2298.17 2628.59,-2296.32 2627.81,-2294.48 2627.24,-2292.63 2626.87,-2290.8 2626.73,-2288.98 2626.82,-2287.17 2627.14,-2285.39 2627.69,-2283.63 2628.49,-2281.91 2629.53,-2280.23 2630.82,-2278.58 2632.35,-2276.98 2634.13,-2275.44 2636.15,-2273.94 2638.41,-2272.51 2640.9,-2271.14 2643.62,-2269.83 2646.57,-2268.6 2649.72,-2267.44 2653.07,-2266.35 2656.62,-2265.35 2660.34,-2264.42 2664.23,-2263.59 2668.27,-2262.84 2672.44,-2262.17 2676.73,-2261.6 2681.13,-2261.13 2685.61,-2260.74 2690.15,-2260.45 2694.74,-2260.26 2699.36,-2260.16 2703.99,-2260.16 2708.61,-2260.26"/>
<text text-anchor="start" x="2672.51" y="-2305.2" font-family="Times,serif" font-size="14.00">C0702240</text>
<text text-anchor="start" x="2659.9" y="-2291.2" font-family="Times,serif" font-size="14.00">elevation areas</text>
<text text-anchor="start" x="2678.73" y="-2277.2" font-family="Times,serif" font-size="14.00">194:195</text>
</g>
<!-- id_27828958_DOT_19&#45;&#45;id_27828958_DOT_32 -->
<g id="edge27" class="edge">
<title>id_27828958_DOT_19&#45;&#45;id_27828958_DOT_32</title>
<path fill="none" stroke="black" stroke-dasharray="1,5" d="M2377.73,-2340.76C2456.34,-2329.75 2565.19,-2314.51 2634.52,-2304.8"/>
<text text-anchor="middle" x="2479.87" y="-2325.58" font-family="Times,serif" font-size="14.00">0.740681</text>
</g>
<!-- id_27828958_DOT_34 -->
<g id="node34" class="node">
<title>id_27828958_DOT_34</title>
<polygon fill="gainsboro" stroke="gainsboro" points="2021.13,-1985.99 2024.55,-1986.19 2027.95,-1986.48 2031.29,-1986.86 2034.57,-1987.34 2037.78,-1987.91 2040.89,-1988.57 2043.91,-1989.32 2046.81,-1990.16 2049.59,-1991.08 2052.24,-1992.08 2054.74,-1993.17 2057.1,-1994.33 2059.29,-1995.57 2061.32,-1996.87 2063.18,-1998.24 2064.87,-1999.68 2066.38,-2001.17 2067.71,-2002.72 2068.85,-2004.31 2069.81,-2005.96 2070.59,-2007.64 2071.19,-2009.37 2071.6,-2011.12 2071.84,-2012.9 2071.9,-2014.71 2071.8,-2016.53 2071.53,-2018.37 2071.1,-2020.21 2070.51,-2022.06 2069.78,-2023.9 2068.91,-2025.73 2067.91,-2027.56 2066.78,-2029.36 2065.53,-2031.14 2064.17,-2032.9 2062.7,-2034.62 2061.14,-2036.31 2059.5,-2037.95 2057.77,-2039.55 2055.97,-2041.1 2054.1,-2042.59 2052.17,-2044.02 2050.18,-2045.4 2048.15,-2046.7 2046.08,-2047.94 2043.97,-2049.1 2041.82,-2050.18 2039.65,-2051.19 2037.45,-2052.11 2035.24,-2052.95 2033,-2053.7 2030.76,-2054.36 2028.5,-2054.93 2026.23,-2055.41 2023.95,-2055.79 2021.67,-2056.08 2019.38,-2056.27 2017.09,-2056.37 2014.8,-2056.37 2012.51,-2056.27 2010.23,-2056.08 2007.95,-2055.79 2005.67,-2055.41 2003.4,-2054.93 2001.14,-2054.36 1998.89,-2053.7 1996.66,-2052.95 1994.44,-2052.11 1992.24,-2051.19 1990.07,-2050.18 1987.93,-2049.1 1985.82,-2047.94 1983.74,-2046.7 1981.71,-2045.4 1979.73,-2044.02 1977.8,-2042.59 1975.93,-2041.1 1974.13,-2039.55 1972.4,-2037.95 1970.75,-2036.31 1969.19,-2034.62 1967.73,-2032.9 1966.37,-2031.14 1965.12,-2029.36 1963.99,-2027.56 1962.98,-2025.73 1962.11,-2023.9 1961.38,-2022.06 1960.8,-2020.21 1960.37,-2018.37 1960.1,-2016.53 1959.99,-2014.71 1960.05,-2012.9 1960.29,-2011.12 1960.71,-2009.37 1961.3,-2007.64 1962.08,-2005.96 1963.04,-2004.31 1964.19,-2002.72 1965.52,-2001.17 1967.02,-1999.68 1968.71,-1998.24 1970.57,-1996.87 1972.6,-1995.57 1974.8,-1994.33 1977.15,-1993.17 1979.66,-1992.08 1982.31,-1991.08 1985.09,-1990.16 1987.99,-1989.32 1991,-1988.57 1994.12,-1987.91 1997.32,-1987.34 2000.6,-1986.86 2003.95,-1986.48 2007.34,-1986.19 2010.77,-1985.99 2014.22,-1985.9 2017.68,-1985.9 2021.13,-1985.99"/>
<text text-anchor="start" x="1986.78" y="-2030.93" font-family="Times,serif" font-size="14.00">C0557760</text>
<text text-anchor="start" x="1996.51" y="-2016.93" font-family="Times,serif" font-size="14.00">coastal</text>
<text text-anchor="start" x="1993" y="-2002.93" font-family="Times,serif" font-size="14.00">213:213</text>
</g>
<!-- id_27828958_DOT_19&#45;&#45;id_27828958_DOT_34 -->
<g id="edge28" class="edge">
<title>id_27828958_DOT_19&#45;&#45;id_27828958_DOT_34</title>
<path fill="none" stroke="black" stroke-dasharray="1,5" d="M2253.57,-2319.91C2201.61,-2254.57 2089.41,-2113.5 2040.07,-2051.46"/>
<text text-anchor="middle" x="2120.57" y="-2188.48" font-family="Times,serif" font-size="14.00">0.730785</text>
</g>
<!-- id_27828958_DOT_22&#45;&#45;id_27828958_DOT_34 -->
<g id="edge29" class="edge">
<title>id_27828958_DOT_22&#45;&#45;id_27828958_DOT_34</title>
<path fill="none" stroke="black" stroke-dasharray="1,5" d="M1772.78,-1750.28C1823.45,-1806.72 1934.9,-1930.86 1987.45,-1989.39"/>
<text text-anchor="middle" x="1853.86" y="-1872.64" font-family="Times,serif" font-size="14.00">0.843848</text>
</g>
<!-- id_27828958_DOT_23 -->
<g id="node23" class="node">
<title>id_27828958_DOT_23</title>
<polygon fill="darkseagreen" stroke="darkseagreen" points="5752.55,-3522.29 5757.06,-3522.48 5761.52,-3522.77 5765.91,-3523.15 5770.22,-3523.63 5774.44,-3524.2 5778.53,-3524.86 5782.5,-3525.61 5786.31,-3526.45 5789.97,-3527.37 5793.45,-3528.38 5796.74,-3529.46 5799.83,-3530.62 5802.72,-3531.86 5805.39,-3533.16 5807.84,-3534.53 5810.05,-3535.97 5812.04,-3537.46 5813.78,-3539.01 5815.28,-3540.61 5816.55,-3542.25 5817.57,-3543.94 5818.35,-3545.66 5818.9,-3547.41 5819.21,-3549.2 5819.3,-3551 5819.16,-3552.82 5818.8,-3554.66 5818.24,-3556.5 5817.47,-3558.35 5816.51,-3560.19 5815.36,-3562.03 5814.04,-3563.85 5812.56,-3565.65 5810.92,-3567.44 5809.13,-3569.19 5807.2,-3570.91 5805.15,-3572.6 5802.99,-3574.24 5800.72,-3575.84 5798.35,-3577.39 5795.89,-3578.88 5793.35,-3580.32 5790.75,-3581.69 5788.08,-3582.99 5785.35,-3584.23 5782.58,-3585.39 5779.76,-3586.47 5776.9,-3587.48 5774.02,-3588.4 5771.1,-3589.24 5768.17,-3589.99 5765.21,-3590.65 5762.24,-3591.22 5759.26,-3591.7 5756.26,-3592.08 5753.26,-3592.37 5750.26,-3592.56 5747.25,-3592.66 5744.24,-3592.66 5741.23,-3592.56 5738.23,-3592.37 5735.23,-3592.08 5732.23,-3591.7 5729.25,-3591.22 5726.28,-3590.65 5723.32,-3589.99 5720.39,-3589.24 5717.47,-3588.4 5714.59,-3587.48 5711.73,-3586.47 5708.91,-3585.39 5706.14,-3584.23 5703.41,-3582.99 5700.74,-3581.69 5698.13,-3580.32 5695.6,-3578.88 5693.14,-3577.39 5690.77,-3575.84 5688.5,-3574.24 5686.33,-3572.6 5684.29,-3570.91 5682.36,-3569.19 5680.57,-3567.44 5678.93,-3565.65 5677.45,-3563.85 5676.13,-3562.03 5674.98,-3560.19 5674.02,-3558.35 5673.25,-3556.5 5672.69,-3554.66 5672.33,-3552.82 5672.19,-3551 5672.28,-3549.2 5672.59,-3547.41 5673.13,-3545.66 5673.92,-3543.94 5674.94,-3542.25 5676.2,-3540.61 5677.71,-3539.01 5679.45,-3537.46 5681.44,-3535.97 5683.65,-3534.53 5686.1,-3533.16 5688.77,-3531.86 5691.66,-3530.62 5694.75,-3529.46 5698.04,-3528.38 5701.52,-3527.37 5705.18,-3526.45 5708.99,-3525.61 5712.96,-3524.86 5717.05,-3524.2 5721.26,-3523.63 5725.58,-3523.15 5729.97,-3522.77 5734.43,-3522.48 5738.94,-3522.29 5743.47,-3522.19 5748.02,-3522.19 5752.55,-3522.29"/>
<text text-anchor="start" x="5716.58" y="-3567.23" font-family="Times,serif" font-size="14.00">C1519302</text>
<text text-anchor="start" x="5704.92" y="-3553.23" font-family="Times,serif" font-size="14.00">microsatellites</text>
<text text-anchor="start" x="5722.8" y="-3539.23" font-family="Times,serif" font-size="14.00">120:120</text>
</g>
<!-- id_27828958_DOT_23&#45;&#45;id_27828958_DOT_30 -->
<g id="edge30" class="edge">
<title>id_27828958_DOT_23&#45;&#45;id_27828958_DOT_30</title>
<path fill="none" stroke="black" stroke-dasharray="1,5" d="M5740.52,-3521.97C5729.23,-3445.44 5702.71,-3265.51 5691.45,-3189.18"/>
<text text-anchor="middle" x="5689.99" y="-3358.38" font-family="Times,serif" font-size="14.00">0.798311</text>
</g>
<!-- id_27828958_DOT_25&#45;&#45;id_27828958_DOT_32 -->
<g id="edge31" class="edge">
<title>id_27828958_DOT_25&#45;&#45;id_27828958_DOT_32</title>
<path fill="none" stroke="black" stroke-dasharray="1,5" d="M3054.38,-2194.96C2984.01,-2215 2850.92,-2252.9 2769.88,-2275.98"/>
<text text-anchor="middle" x="2885.88" y="-2238.27" font-family="Times,serif" font-size="14.00">0.798864</text>
</g>
<!-- id_27828958_DOT_28&#45;&#45;id_27828958_DOT_33 -->
<g id="edge32" class="edge">
<title>id_27828958_DOT_28&#45;&#45;id_27828958_DOT_33</title>
<path fill="none" stroke="black" stroke-dasharray="1,5" d="M3760.23,-763.32C3732.77,-691.04 3669.94,-525.72 3642.77,-454.22"/>
<text text-anchor="middle" x="3675.25" y="-611.57" font-family="Times,serif" font-size="14.00">0.693524</text>
</g>
<!-- id_27828958_DOT_29&#45;&#45;id_27828958_DOT_30 -->
<g id="edge33" class="edge">
<title>id_27828958_DOT_29&#45;&#45;id_27828958_DOT_30</title>
<path fill="none" stroke="black" stroke-dasharray="1,5" d="M5384.22,-2971.54C5444.9,-3008.19 5565.2,-3080.84 5634.25,-3122.55"/>
<text text-anchor="middle" x="5482.99" y="-3049.84" font-family="Times,serif" font-size="14.00">0.807041</text>
</g>
</g>
</svg>
