<?xml version="1.0" encoding="UTF-8" standalone="no"?>
<!DOCTYPE svg PUBLIC "-//W3C//DTD SVG 1.1//EN"
 "http://www.w3.org/Graphics/SVG/1.1/DTD/svg11.dtd">
<!-- Generated by graphviz version 2.42.3 (20191010.1750)
 -->
<!-- Title: MST Pages: 1 -->
<svg width="5158pt" height="2934pt"
 viewBox="0.00 0.00 5157.60 2934.42" xmlns="http://www.w3.org/2000/svg" xmlns:xlink="http://www.w3.org/1999/xlink">
<g id="graph0" class="graph" transform="scale(1 1) rotate(0) translate(4 2930.42)">
<title>MST</title>
<polygon fill="white" stroke="transparent" points="-4,4 -4,-2930.42 5153.6,-2930.42 5153.6,4 -4,4"/>
<!-- id_27824066_DOT_1 -->
<g id="node1" class="node">
<title>id_27824066_DOT_1</title>
<polygon fill="aquamarine" stroke="aquamarine" points="2564.76,-1700.93 2568.19,-1701.12 2571.58,-1701.41 2574.93,-1701.79 2578.21,-1702.27 2581.41,-1702.84 2584.53,-1703.5 2587.54,-1704.25 2590.45,-1705.09 2593.23,-1706.01 2595.87,-1707.02 2598.38,-1708.1 2600.73,-1709.26 2602.93,-1710.5 2604.96,-1711.8 2606.82,-1713.18 2608.51,-1714.61 2610.01,-1716.1 2611.34,-1717.65 2612.49,-1719.25 2613.45,-1720.89 2614.23,-1722.58 2614.82,-1724.3 2615.24,-1726.06 2615.48,-1727.84 2615.54,-1729.64 2615.43,-1731.47 2615.16,-1733.3 2614.73,-1735.14 2614.15,-1736.99 2613.42,-1738.83 2612.55,-1740.67 2611.54,-1742.49 2610.41,-1744.3 2609.16,-1746.08 2607.8,-1747.83 2606.34,-1749.56 2604.78,-1751.24 2603.13,-1752.89 2601.4,-1754.48 2599.6,-1756.03 2597.73,-1757.52 2595.8,-1758.96 2593.82,-1760.33 2591.79,-1761.63 2589.71,-1762.87 2587.6,-1764.03 2585.46,-1765.12 2583.29,-1766.12 2581.09,-1767.04 2578.87,-1767.88 2576.64,-1768.63 2574.39,-1769.29 2572.13,-1769.86 2569.86,-1770.34 2567.58,-1770.72 2565.3,-1771.01 2563.02,-1771.21 2560.73,-1771.3 2558.44,-1771.3 2556.15,-1771.21 2553.86,-1771.01 2551.58,-1770.72 2549.3,-1770.34 2547.03,-1769.86 2544.77,-1769.29 2542.53,-1768.63 2540.29,-1767.88 2538.08,-1767.04 2535.88,-1766.12 2533.71,-1765.12 2531.56,-1764.03 2529.45,-1762.87 2527.38,-1761.63 2525.35,-1760.33 2523.36,-1758.96 2521.43,-1757.52 2519.56,-1756.03 2517.76,-1754.48 2516.03,-1752.89 2514.39,-1751.24 2512.83,-1749.56 2511.36,-1747.83 2510,-1746.08 2508.75,-1744.3 2507.62,-1742.49 2506.62,-1740.67 2505.75,-1738.83 2505.02,-1736.99 2504.43,-1735.14 2504,-1733.3 2503.73,-1731.47 2503.63,-1729.64 2503.69,-1727.84 2503.93,-1726.06 2504.34,-1724.3 2504.94,-1722.58 2505.72,-1720.89 2506.68,-1719.25 2507.82,-1717.65 2509.15,-1716.1 2510.66,-1714.61 2512.35,-1713.18 2514.21,-1711.8 2516.24,-1710.5 2518.44,-1709.26 2520.79,-1708.1 2523.29,-1707.02 2525.94,-1706.01 2528.72,-1705.09 2531.62,-1704.25 2534.64,-1703.5 2537.76,-1702.84 2540.96,-1702.27 2544.24,-1701.79 2547.58,-1701.41 2550.98,-1701.12 2554.4,-1700.93 2557.85,-1700.83 2561.31,-1700.83 2564.76,-1700.93"/>
<text text-anchor="start" x="2530.41" y="-1745.87" font-family="Times,serif" font-size="14.00">C3161035</text>
<text text-anchor="start" x="2541.31" y="-1731.87" font-family="Times,serif" font-size="14.00">Model</text>
<text text-anchor="start" x="2550.64" y="-1717.87" font-family="Times,serif" font-size="14.00">3:3</text>
</g>
<!-- id_27824066_DOT_9 -->
<g id="node9" class="node">
<title>id_27824066_DOT_9</title>
<polygon fill="aquamarine" stroke="aquamarine" points="2855.19,-1968.1 2859.87,-1968.3 2864.49,-1968.58 2869.06,-1968.97 2873.53,-1969.45 2877.9,-1970.02 2882.16,-1970.68 2886.27,-1971.43 2890.23,-1972.27 2894.02,-1973.19 2897.63,-1974.19 2901.05,-1975.28 2904.26,-1976.44 2907.26,-1977.67 2910.03,-1978.98 2912.57,-1980.35 2914.87,-1981.78 2916.93,-1983.28 2918.74,-1984.82 2920.3,-1986.42 2921.61,-1988.07 2922.68,-1989.75 2923.49,-1991.48 2924.06,-1993.23 2924.38,-1995.01 2924.47,-1996.82 2924.32,-1998.64 2923.95,-2000.48 2923.37,-2002.32 2922.57,-2004.16 2921.57,-2006.01 2920.39,-2007.84 2919.01,-2009.66 2917.47,-2011.47 2915.77,-2013.25 2913.91,-2015.01 2911.92,-2016.73 2909.79,-2018.42 2907.54,-2020.06 2905.18,-2021.66 2902.72,-2023.21 2900.17,-2024.7 2897.54,-2026.13 2894.83,-2027.5 2892.06,-2028.81 2889.23,-2030.04 2886.35,-2031.21 2883.43,-2032.29 2880.46,-2033.29 2877.47,-2034.22 2874.44,-2035.06 2871.4,-2035.81 2868.33,-2036.47 2865.24,-2037.04 2862.15,-2037.52 2859.04,-2037.9 2855.93,-2038.19 2852.81,-2038.38 2849.68,-2038.48 2846.56,-2038.48 2843.44,-2038.38 2840.32,-2038.19 2837.21,-2037.9 2834.1,-2037.52 2831,-2037.04 2827.92,-2036.47 2824.85,-2035.81 2821.8,-2035.06 2818.78,-2034.22 2815.78,-2033.29 2812.82,-2032.29 2809.89,-2031.21 2807.01,-2030.04 2804.18,-2028.81 2801.41,-2027.5 2798.71,-2026.13 2796.07,-2024.7 2793.52,-2023.21 2791.06,-2021.66 2788.71,-2020.06 2786.46,-2018.42 2784.33,-2016.73 2782.33,-2015.01 2780.48,-2013.25 2778.77,-2011.47 2777.23,-2009.66 2775.86,-2007.84 2774.67,-2006.01 2773.68,-2004.16 2772.88,-2002.32 2772.29,-2000.48 2771.92,-1998.64 2771.78,-1996.82 2771.87,-1995.01 2772.19,-1993.23 2772.76,-1991.48 2773.57,-1989.75 2774.63,-1988.07 2775.94,-1986.42 2777.5,-1984.82 2779.32,-1983.28 2781.37,-1981.78 2783.67,-1980.35 2786.21,-1978.98 2788.99,-1977.67 2791.98,-1976.44 2795.19,-1975.28 2798.61,-1974.19 2802.22,-1973.19 2806.02,-1972.27 2809.98,-1971.43 2814.09,-1970.68 2818.34,-1970.02 2822.71,-1969.45 2827.19,-1968.97 2831.75,-1968.58 2836.38,-1968.3 2841.06,-1968.1 2845.77,-1968.01 2850.48,-1968.01 2855.19,-1968.1"/>
<text text-anchor="start" x="2818.95" y="-2013.04" font-family="Times,serif" font-size="14.00">C3161035</text>
<text text-anchor="start" x="2805.55" y="-1999.04" font-family="Times,serif" font-size="14.00">minimal model</text>
<text text-anchor="start" x="2832.18" y="-1985.04" font-family="Times,serif" font-size="14.00">55:56</text>
</g>
<!-- id_27824066_DOT_1&#45;&#45;id_27824066_DOT_9 -->
<g id="edge1" class="edge">
<title>id_27824066_DOT_1&#45;&#45;id_27824066_DOT_9</title>
<path fill="none" stroke="black" d="M2589.11,-1763.4C2642.68,-1813.01 2755.66,-1917.63 2813.06,-1970.78"/>
<text text-anchor="middle" x="2674.83" y="-1869.89" font-family="Times,serif" font-size="14.00">0.164122</text>
</g>
<!-- id_27824066_DOT_22 -->
<g id="node22" class="node">
<title>id_27824066_DOT_22</title>
<polygon fill="aquamarine" stroke="aquamarine" points="2258.42,-1444.66 2261.85,-1444.86 2265.24,-1445.15 2268.59,-1445.53 2271.87,-1446.01 2275.07,-1446.58 2278.19,-1447.24 2281.2,-1447.99 2284.11,-1448.83 2286.89,-1449.75 2289.53,-1450.75 2292.04,-1451.84 2294.39,-1453 2296.59,-1454.23 2298.62,-1455.54 2300.48,-1456.91 2302.17,-1458.35 2303.68,-1459.84 2305,-1461.39 2306.15,-1462.98 2307.11,-1464.63 2307.89,-1466.31 2308.48,-1468.04 2308.9,-1469.79 2309.14,-1471.57 2309.2,-1473.38 2309.09,-1475.2 2308.82,-1477.04 2308.39,-1478.88 2307.81,-1480.73 2307.08,-1482.57 2306.21,-1484.4 2305.2,-1486.23 2304.07,-1488.03 2302.82,-1489.81 2301.46,-1491.57 2300,-1493.29 2298.44,-1494.98 2296.79,-1496.62 2295.06,-1498.22 2293.26,-1499.77 2291.39,-1501.26 2289.46,-1502.69 2287.48,-1504.07 2285.45,-1505.37 2283.37,-1506.6 2281.26,-1507.77 2279.12,-1508.85 2276.95,-1509.86 2274.75,-1510.78 2272.53,-1511.62 2270.3,-1512.37 2268.05,-1513.03 2265.79,-1513.6 2263.52,-1514.08 2261.25,-1514.46 2258.96,-1514.75 2256.68,-1514.94 2254.39,-1515.04 2252.1,-1515.04 2249.81,-1514.94 2247.52,-1514.75 2245.24,-1514.46 2242.96,-1514.08 2240.69,-1513.6 2238.43,-1513.03 2236.19,-1512.37 2233.95,-1511.62 2231.74,-1510.78 2229.54,-1509.86 2227.37,-1508.85 2225.22,-1507.77 2223.11,-1506.6 2221.04,-1505.37 2219.01,-1504.07 2217.02,-1502.69 2215.09,-1501.26 2213.22,-1499.77 2211.42,-1498.22 2209.69,-1496.62 2208.05,-1494.98 2206.49,-1493.29 2205.02,-1491.57 2203.66,-1489.81 2202.41,-1488.03 2201.28,-1486.23 2200.28,-1484.4 2199.41,-1482.57 2198.68,-1480.73 2198.09,-1478.88 2197.66,-1477.04 2197.39,-1475.2 2197.29,-1473.38 2197.35,-1471.57 2197.59,-1469.79 2198,-1468.04 2198.6,-1466.31 2199.38,-1464.63 2200.34,-1462.98 2201.48,-1461.39 2202.81,-1459.84 2204.32,-1458.35 2206.01,-1456.91 2207.87,-1455.54 2209.9,-1454.23 2212.1,-1453 2214.45,-1451.84 2216.95,-1450.75 2219.6,-1449.75 2222.38,-1448.83 2225.28,-1447.99 2228.3,-1447.24 2231.42,-1446.58 2234.62,-1446.01 2237.9,-1445.53 2241.24,-1445.15 2244.64,-1444.86 2248.07,-1444.66 2251.51,-1444.57 2254.97,-1444.57 2258.42,-1444.66"/>
<text text-anchor="start" x="2224.07" y="-1489.6" font-family="Times,serif" font-size="14.00">C3161035</text>
<text text-anchor="start" x="2235.75" y="-1475.6" font-family="Times,serif" font-size="14.00">model</text>
<text text-anchor="start" x="2230.3" y="-1461.6" font-family="Times,serif" font-size="14.00">146:146</text>
</g>
<!-- id_27824066_DOT_1&#45;&#45;id_27824066_DOT_22 -->
<g id="edge2" class="edge">
<title>id_27824066_DOT_1&#45;&#45;id_27824066_DOT_22</title>
<path fill="none" stroke="black" d="M2524.14,-1706.42C2463.82,-1655.96 2342.16,-1554.18 2284.68,-1506.1"/>
<text text-anchor="middle" x="2378.16" y="-1609.06" font-family="Times,serif" font-size="14.00">0.022253</text>
</g>
<!-- id_27824066_DOT_2 -->
<g id="node2" class="node">
<title>id_27824066_DOT_2</title>
<polygon fill="bisque" stroke="bisque" points="1513.29,-852.47 1518.79,-852.67 1524.23,-852.95 1529.59,-853.34 1534.85,-853.82 1539.99,-854.39 1544.99,-855.05 1549.83,-855.8 1554.49,-856.64 1558.95,-857.56 1563.19,-858.56 1567.21,-859.65 1570.99,-860.81 1574.51,-862.04 1577.77,-863.35 1580.75,-864.72 1583.46,-866.15 1585.88,-867.65 1588.01,-869.19 1589.84,-870.79 1591.39,-872.44 1592.63,-874.12 1593.59,-875.85 1594.26,-877.6 1594.64,-879.38 1594.74,-881.19 1594.57,-883.01 1594.14,-884.85 1593.45,-886.69 1592.51,-888.53 1591.34,-890.38 1589.94,-892.21 1588.33,-894.03 1586.52,-895.84 1584.51,-897.62 1582.33,-899.38 1579.98,-901.1 1577.48,-902.79 1574.84,-904.43 1572.07,-906.03 1569.18,-907.58 1566.18,-909.07 1563.08,-910.5 1559.9,-911.87 1556.64,-913.18 1553.31,-914.41 1549.93,-915.58 1546.49,-916.66 1543,-917.66 1539.48,-918.59 1535.93,-919.43 1532.34,-920.18 1528.73,-920.84 1525.11,-921.41 1521.47,-921.89 1517.82,-922.27 1514.15,-922.56 1510.49,-922.75 1506.82,-922.85 1503.14,-922.85 1499.47,-922.75 1495.81,-922.56 1492.14,-922.27 1488.49,-921.89 1484.85,-921.41 1481.23,-920.84 1477.62,-920.18 1474.04,-919.43 1470.48,-918.59 1466.96,-917.66 1463.47,-916.66 1460.03,-915.58 1456.65,-914.41 1453.32,-913.18 1450.06,-911.87 1446.88,-910.5 1443.78,-909.07 1440.78,-907.58 1437.89,-906.03 1435.12,-904.43 1432.48,-902.79 1429.98,-901.1 1427.63,-899.38 1425.45,-897.62 1423.44,-895.84 1421.63,-894.03 1420.02,-892.21 1418.62,-890.38 1417.45,-888.53 1416.51,-886.69 1415.82,-884.85 1415.39,-883.01 1415.22,-881.19 1415.32,-879.38 1415.7,-877.6 1416.37,-875.85 1417.33,-874.12 1418.57,-872.44 1420.12,-870.79 1421.95,-869.19 1424.08,-867.65 1426.5,-866.15 1429.21,-864.72 1432.19,-863.35 1435.45,-862.04 1438.97,-860.81 1442.75,-859.65 1446.77,-858.56 1451.01,-857.56 1455.47,-856.64 1460.13,-855.8 1464.97,-855.05 1469.97,-854.39 1475.11,-853.82 1480.37,-853.34 1485.73,-852.95 1491.17,-852.67 1496.67,-852.47 1502.21,-852.38 1507.75,-852.38 1513.29,-852.47"/>
<text text-anchor="start" x="1475.81" y="-897.41" font-family="Times,serif" font-size="14.00">C0202098</text>
<text text-anchor="start" x="1453.3" y="-883.41" font-family="Times,serif" font-size="14.00">Mixed &#45; Meal Test</text>
<text text-anchor="start" x="1496.04" y="-869.41" font-family="Times,serif" font-size="14.00">6:9</text>
</g>
<!-- id_27824066_DOT_11 -->
<g id="node11" class="node">
<title>id_27824066_DOT_11</title>
<polygon fill="bisque" stroke="bisque" points="1488.26,-1199.84 1493.34,-1200.04 1498.36,-1200.33 1503.3,-1200.71 1508.16,-1201.19 1512.9,-1201.76 1517.51,-1202.42 1521.97,-1203.17 1526.27,-1204.01 1530.38,-1204.93 1534.3,-1205.93 1538.01,-1207.02 1541.49,-1208.18 1544.74,-1209.41 1547.74,-1210.72 1550.5,-1212.09 1553,-1213.53 1555.23,-1215.02 1557.19,-1216.57 1558.88,-1218.16 1560.31,-1219.81 1561.46,-1221.49 1562.34,-1223.22 1562.95,-1224.97 1563.31,-1226.75 1563.4,-1228.56 1563.25,-1230.38 1562.84,-1232.22 1562.21,-1234.06 1561.34,-1235.91 1560.26,-1237.75 1558.97,-1239.58 1557.49,-1241.41 1555.81,-1243.21 1553.97,-1244.99 1551.95,-1246.75 1549.79,-1248.47 1547.48,-1250.16 1545.04,-1251.8 1542.49,-1253.4 1539.82,-1254.95 1537.05,-1256.44 1534.2,-1257.87 1531.26,-1259.25 1528.26,-1260.55 1525.19,-1261.78 1522.06,-1262.95 1518.89,-1264.03 1515.68,-1265.04 1512.43,-1265.96 1509.15,-1266.8 1505.84,-1267.55 1502.51,-1268.21 1499.17,-1268.78 1495.81,-1269.26 1492.44,-1269.64 1489.06,-1269.93 1485.68,-1270.12 1482.29,-1270.22 1478.91,-1270.22 1475.52,-1270.12 1472.14,-1269.93 1468.76,-1269.64 1465.39,-1269.26 1462.03,-1268.78 1458.69,-1268.21 1455.36,-1267.55 1452.06,-1266.8 1448.78,-1265.96 1445.53,-1265.04 1442.31,-1264.03 1439.14,-1262.95 1436.01,-1261.78 1432.95,-1260.55 1429.94,-1259.25 1427,-1257.87 1424.15,-1256.44 1421.38,-1254.95 1418.72,-1253.4 1416.16,-1251.8 1413.72,-1250.16 1411.41,-1248.47 1409.25,-1246.75 1407.24,-1244.99 1405.39,-1243.21 1403.72,-1241.41 1402.23,-1239.58 1400.94,-1237.75 1399.86,-1235.91 1398.99,-1234.06 1398.36,-1232.22 1397.96,-1230.38 1397.8,-1228.56 1397.9,-1226.75 1398.25,-1224.97 1398.86,-1223.22 1399.74,-1221.49 1400.89,-1219.81 1402.32,-1218.16 1404.01,-1216.57 1405.98,-1215.02 1408.21,-1213.53 1410.7,-1212.09 1413.46,-1210.72 1416.46,-1209.41 1419.71,-1208.18 1423.2,-1207.02 1426.9,-1205.93 1430.82,-1204.93 1434.93,-1204.01 1439.23,-1203.17 1443.69,-1202.42 1448.3,-1201.76 1453.04,-1201.19 1457.9,-1200.71 1462.85,-1200.33 1467.87,-1200.04 1472.94,-1199.84 1478.04,-1199.75 1483.16,-1199.75 1488.26,-1199.84"/>
<text text-anchor="start" x="1451.43" y="-1244.78" font-family="Times,serif" font-size="14.00">C0202098</text>
<text text-anchor="start" x="1433.56" y="-1230.78" font-family="Times,serif" font-size="14.00">mixed meal tests</text>
<text text-anchor="start" x="1464.66" y="-1216.78" font-family="Times,serif" font-size="14.00">76:78</text>
</g>
<!-- id_27824066_DOT_2&#45;&#45;id_27824066_DOT_11 -->
<g id="edge3" class="edge">
<title>id_27824066_DOT_2&#45;&#45;id_27824066_DOT_11</title>
<path fill="none" stroke="black" d="M1502.51,-922.83C1497.84,-989.41 1487.76,-1133.02 1483.08,-1199.67"/>
<text text-anchor="middle" x="1466.54" y="-1064.05" font-family="Times,serif" font-size="14.00">0.057182</text>
</g>
<!-- id_27824066_DOT_3 -->
<g id="node3" class="node">
<title>id_27824066_DOT_3</title>
<polygon fill="blue" stroke="blue" points="2525.29,-0.23 2530.21,-0.42 2535.08,-0.71 2539.88,-1.09 2544.59,-1.57 2549.19,-2.14 2553.66,-2.8 2557.98,-3.55 2562.15,-4.39 2566.14,-5.31 2569.94,-6.32 2573.53,-7.4 2576.91,-8.57 2580.06,-9.8 2582.98,-11.1 2585.65,-12.48 2588.07,-13.91 2590.23,-15.4 2592.14,-16.95 2593.78,-18.55 2595.16,-20.19 2596.28,-21.88 2597.13,-23.6 2597.73,-25.36 2598.07,-27.14 2598.16,-28.94 2598.01,-30.77 2597.62,-32.6 2597,-34.44 2596.17,-36.29 2595.12,-38.13 2593.87,-39.97 2592.42,-41.79 2590.8,-43.6 2589.01,-45.38 2587.06,-47.13 2584.96,-48.86 2582.72,-50.54 2580.36,-52.19 2577.88,-53.78 2575.29,-55.33 2572.61,-56.82 2569.84,-58.26 2566.99,-59.63 2564.08,-60.94 2561.1,-62.17 2558.07,-63.33 2555,-64.42 2551.88,-65.42 2548.73,-66.34 2545.55,-67.18 2542.34,-67.93 2539.11,-68.59 2535.87,-69.16 2532.61,-69.64 2529.35,-70.02 2526.07,-70.31 2522.79,-70.51 2519.51,-70.6 2516.22,-70.6 2512.94,-70.51 2509.66,-70.31 2506.38,-70.02 2503.11,-69.64 2499.86,-69.16 2496.61,-68.59 2493.39,-67.93 2490.18,-67.18 2487,-66.34 2483.85,-65.42 2480.73,-64.42 2477.66,-63.33 2474.63,-62.17 2471.65,-60.94 2468.73,-59.63 2465.89,-58.26 2463.12,-56.82 2460.44,-55.33 2457.85,-53.78 2455.37,-52.19 2453.01,-50.54 2450.77,-48.86 2448.67,-47.13 2446.72,-45.38 2444.92,-43.6 2443.3,-41.79 2441.86,-39.97 2440.61,-38.13 2439.56,-36.29 2438.72,-34.44 2438.11,-32.6 2437.72,-30.77 2437.57,-28.94 2437.66,-27.14 2438,-25.36 2438.6,-23.6 2439.45,-21.88 2440.57,-20.19 2441.95,-18.55 2443.59,-16.95 2445.49,-15.4 2447.66,-13.91 2450.08,-12.48 2452.75,-11.1 2455.67,-9.8 2458.82,-8.57 2462.19,-7.4 2465.79,-6.32 2469.59,-5.31 2473.58,-4.39 2477.74,-3.55 2482.07,-2.8 2486.54,-2.14 2491.14,-1.57 2495.85,-1.09 2500.65,-0.71 2505.51,-0.42 2510.43,-0.23 2515.38,-0.13 2520.34,-0.13 2525.29,-0.23"/>
<text text-anchor="start" x="2488.95" y="-45.17" font-family="Times,serif" font-size="14.00">C0011854</text>
<text text-anchor="start" x="2472.48" y="-31.17" font-family="Times,serif" font-size="14.00">Type 1 Diabetes</text>
<text text-anchor="start" x="2501.92" y="-17.17" font-family="Times,serif" font-size="14.00">13:15</text>
</g>
<!-- id_27824066_DOT_13 -->
<g id="node13" class="node">
<title>id_27824066_DOT_13</title>
<polygon fill="blue" stroke="blue" points="2391.61,-365.29 2396.2,-365.48 2400.76,-365.77 2405.24,-366.16 2409.64,-366.63 2413.94,-367.2 2418.12,-367.87 2422.17,-368.62 2426.06,-369.45 2429.79,-370.38 2433.34,-371.38 2436.7,-372.47 2439.86,-373.63 2442.8,-374.86 2445.53,-376.17 2448.03,-377.54 2450.29,-378.97 2452.31,-380.47 2454.09,-382.01 2455.63,-383.61 2456.92,-385.26 2457.96,-386.94 2458.76,-388.66 2459.32,-390.42 2459.64,-392.2 2459.72,-394.01 2459.58,-395.83 2459.22,-397.66 2458.64,-399.51 2457.86,-401.35 2456.88,-403.2 2455.71,-405.03 2454.36,-406.85 2452.84,-408.66 2451.17,-410.44 2449.34,-412.2 2447.38,-413.92 2445.29,-415.6 2443.08,-417.25 2440.76,-418.85 2438.34,-420.39 2435.84,-421.89 2433.25,-423.32 2430.59,-424.69 2427.86,-426 2425.08,-427.23 2422.25,-428.39 2419.37,-429.48 2416.46,-430.48 2413.51,-431.41 2410.54,-432.24 2407.54,-432.99 2404.52,-433.66 2401.49,-434.23 2398.45,-434.7 2395.39,-435.09 2392.33,-435.38 2389.26,-435.57 2386.19,-435.67 2383.12,-435.67 2380.05,-435.57 2376.99,-435.38 2373.93,-435.09 2370.87,-434.7 2367.83,-434.23 2364.79,-433.66 2361.78,-432.99 2358.78,-432.24 2355.81,-431.41 2352.86,-430.48 2349.95,-429.48 2347.07,-428.39 2344.24,-427.23 2341.46,-426 2338.73,-424.69 2336.07,-423.32 2333.48,-421.89 2330.98,-420.39 2328.56,-418.85 2326.24,-417.25 2324.03,-415.6 2321.94,-413.92 2319.97,-412.2 2318.15,-410.44 2316.47,-408.66 2314.96,-406.85 2313.61,-405.03 2312.44,-403.2 2311.46,-401.35 2310.68,-399.51 2310.1,-397.66 2309.74,-395.83 2309.6,-394.01 2309.68,-392.2 2310,-390.42 2310.56,-388.66 2311.36,-386.94 2312.4,-385.26 2313.69,-383.61 2315.23,-382.01 2317.01,-380.47 2319.03,-378.97 2321.29,-377.54 2323.79,-376.17 2326.51,-374.86 2329.46,-373.63 2332.62,-372.47 2335.98,-371.38 2339.53,-370.38 2343.26,-369.45 2347.15,-368.62 2351.2,-367.87 2355.38,-367.2 2359.68,-366.63 2364.08,-366.16 2368.56,-365.77 2373.11,-365.48 2377.71,-365.29 2382.34,-365.19 2386.98,-365.19 2391.61,-365.29"/>
<text text-anchor="start" x="2355.75" y="-410.23" font-family="Times,serif" font-size="14.00">C0011854</text>
<text text-anchor="start" x="2342.67" y="-396.23" font-family="Times,serif" font-size="14.00">type 1 diabetes</text>
<text text-anchor="start" x="2368.71" y="-382.23" font-family="Times,serif" font-size="14.00">85:87</text>
</g>
<!-- id_27824066_DOT_3&#45;&#45;id_27824066_DOT_13 -->
<g id="edge4" class="edge">
<title>id_27824066_DOT_3&#45;&#45;id_27824066_DOT_13</title>
<path fill="none" stroke="black" d="M2505.21,-70.04C2479.82,-139.63 2422.9,-295.61 2397.42,-365.45"/>
<text text-anchor="middle" x="2425.32" y="-220.55" font-family="Times,serif" font-size="14.00">0.001149</text>
</g>
<!-- id_27824066_DOT_4 -->
<g id="node4" class="node">
<title>id_27824066_DOT_4</title>
<polygon fill="blueviolet" stroke="blueviolet" points="3482.16,-2435.11 3486.37,-2435.31 3490.53,-2435.6 3494.63,-2435.98 3498.66,-2436.46 3502.59,-2437.03 3506.41,-2437.69 3510.11,-2438.44 3513.67,-2439.28 3517.08,-2440.2 3520.33,-2441.21 3523.4,-2442.29 3526.29,-2443.45 3528.99,-2444.69 3531.48,-2445.99 3533.76,-2447.36 3535.83,-2448.8 3537.68,-2450.29 3539.31,-2451.84 3540.71,-2453.44 3541.89,-2455.08 3542.85,-2456.77 3543.58,-2458.49 3544.09,-2460.24 3544.38,-2462.03 3544.46,-2463.83 3544.33,-2465.65 3544,-2467.49 3543.47,-2469.33 3542.75,-2471.18 3541.86,-2473.02 3540.79,-2474.85 3539.56,-2476.68 3538.17,-2478.48 3536.64,-2480.26 3534.97,-2482.02 3533.17,-2483.74 3531.26,-2485.43 3529.24,-2487.07 3527.12,-2488.67 3524.91,-2490.22 3522.61,-2491.71 3520.25,-2493.15 3517.81,-2494.52 3515.32,-2495.82 3512.78,-2497.06 3510.19,-2498.22 3507.56,-2499.3 3504.89,-2500.31 3502.2,-2501.23 3499.48,-2502.07 3496.74,-2502.82 3493.98,-2503.48 3491.21,-2504.05 3488.42,-2504.53 3485.63,-2504.91 3482.83,-2505.2 3480.02,-2505.39 3477.22,-2505.49 3474.41,-2505.49 3471.6,-2505.39 3468.79,-2505.2 3465.99,-2504.91 3463.2,-2504.53 3460.42,-2504.05 3457.64,-2503.48 3454.88,-2502.82 3452.14,-2502.07 3449.42,-2501.23 3446.73,-2500.31 3444.07,-2499.3 3441.44,-2498.22 3438.84,-2497.06 3436.3,-2495.82 3433.81,-2494.52 3431.37,-2493.15 3429.01,-2491.71 3426.71,-2490.22 3424.5,-2488.67 3422.38,-2487.07 3420.36,-2485.43 3418.45,-2483.74 3416.65,-2482.02 3414.99,-2480.26 3413.45,-2478.48 3412.07,-2476.68 3410.83,-2474.85 3409.76,-2473.02 3408.87,-2471.18 3408.15,-2469.33 3407.62,-2467.49 3407.29,-2465.65 3407.16,-2463.83 3407.24,-2462.03 3407.53,-2460.24 3408.04,-2458.49 3408.77,-2456.77 3409.73,-2455.08 3410.91,-2453.44 3412.31,-2451.84 3413.94,-2450.29 3415.79,-2448.8 3417.86,-2447.36 3420.14,-2445.99 3422.64,-2444.69 3425.33,-2443.45 3428.22,-2442.29 3431.29,-2441.21 3434.54,-2440.2 3437.95,-2439.28 3441.51,-2438.44 3445.21,-2437.69 3449.03,-2437.03 3452.96,-2436.46 3456.99,-2435.98 3461.09,-2435.6 3465.25,-2435.31 3469.46,-2435.11 3473.69,-2435.02 3477.93,-2435.02 3482.16,-2435.11"/>
<text text-anchor="start" x="3446.9" y="-2480.05" font-family="Times,serif" font-size="14.00">C1140609</text>
<text text-anchor="start" x="3438.28" y="-2466.05" font-family="Times,serif" font-size="14.00">Insulin Pump</text>
<text text-anchor="start" x="3459.87" y="-2452.05" font-family="Times,serif" font-size="14.00">17:18</text>
</g>
<!-- id_27824066_DOT_10 -->
<g id="node10" class="node">
<title>id_27824066_DOT_10</title>
<polygon fill="aquamarine" stroke="aquamarine" points="3097.65,-2293.78 3103.84,-2293.97 3109.97,-2294.26 3116,-2294.65 3121.93,-2295.12 3127.72,-2295.7 3133.34,-2296.36 3138.79,-2297.11 3144.03,-2297.94 3149.05,-2298.87 3153.83,-2299.87 3158.35,-2300.96 3162.6,-2302.12 3166.57,-2303.35 3170.24,-2304.66 3173.6,-2306.03 3176.64,-2307.46 3179.37,-2308.96 3181.77,-2310.5 3183.83,-2312.1 3185.57,-2313.75 3186.97,-2315.43 3188.05,-2317.16 3188.8,-2318.91 3189.23,-2320.69 3189.34,-2322.5 3189.15,-2324.32 3188.66,-2326.16 3187.89,-2328 3186.83,-2329.84 3185.51,-2331.69 3183.94,-2333.52 3182.13,-2335.34 3180.08,-2337.15 3177.83,-2338.93 3175.37,-2340.69 3172.73,-2342.41 3169.91,-2344.1 3166.94,-2345.74 3163.82,-2347.34 3160.56,-2348.89 3157.19,-2350.38 3153.71,-2351.81 3150.12,-2353.18 3146.46,-2354.49 3142.71,-2355.72 3138.9,-2356.88 3135.03,-2357.97 3131.1,-2358.97 3127.14,-2359.9 3123.13,-2360.73 3119.1,-2361.49 3115.04,-2362.15 3110.96,-2362.72 3106.86,-2363.19 3102.75,-2363.58 3098.63,-2363.87 3094.5,-2364.06 3090.37,-2364.16 3086.23,-2364.16 3082.1,-2364.06 3077.97,-2363.87 3073.85,-2363.58 3069.74,-2363.19 3065.64,-2362.72 3061.56,-2362.15 3057.5,-2361.49 3053.46,-2360.73 3049.46,-2359.9 3045.5,-2358.97 3041.57,-2357.97 3037.7,-2356.88 3033.89,-2355.72 3030.14,-2354.49 3026.48,-2353.18 3022.89,-2351.81 3019.41,-2350.38 3016.03,-2348.89 3012.78,-2347.34 3009.66,-2345.74 3006.68,-2344.1 3003.87,-2342.41 3001.23,-2340.69 2998.77,-2338.93 2996.51,-2337.15 2994.47,-2335.34 2992.66,-2333.52 2991.09,-2331.69 2989.77,-2329.84 2988.71,-2328 2987.93,-2326.16 2987.45,-2324.32 2987.25,-2322.5 2987.37,-2320.69 2987.8,-2318.91 2988.55,-2317.16 2989.63,-2315.43 2991.03,-2313.75 2992.77,-2312.1 2994.83,-2310.5 2997.23,-2308.96 2999.95,-2307.46 3003,-2306.03 3006.36,-2304.66 3010.03,-2303.35 3014,-2302.12 3018.25,-2300.96 3022.77,-2299.87 3027.55,-2298.87 3032.57,-2297.94 3037.81,-2297.11 3043.26,-2296.36 3048.88,-2295.7 3054.67,-2295.12 3060.59,-2294.65 3066.63,-2294.26 3072.76,-2293.97 3078.95,-2293.78 3085.18,-2293.69 3091.42,-2293.69 3097.65,-2293.78"/>
<text text-anchor="start" x="3059.13" y="-2338.72" font-family="Times,serif" font-size="14.00">C3161035</text>
<text text-anchor="start" x="3029.06" y="-2324.72" font-family="Times,serif" font-size="14.00">GLUKINSLOOP 2.0</text>
<text text-anchor="start" x="3072.35" y="-2310.72" font-family="Times,serif" font-size="14.00">58:59</text>
</g>
<!-- id_27824066_DOT_4&#45;&#45;id_27824066_DOT_10 -->
<g id="edge13" class="edge">
<title>id_27824066_DOT_4&#45;&#45;id_27824066_DOT_10</title>
<path fill="none" stroke="black" stroke-dasharray="1,5" d="M3416.11,-2448.48C3344.78,-2422.46 3225.89,-2379.1 3152.59,-2352.37"/>
<text text-anchor="middle" x="3258.1" y="-2403.22" font-family="Times,serif" font-size="14.00">0.893887</text>
</g>
<!-- id_27824066_DOT_14 -->
<g id="node14" class="node">
<title>id_27824066_DOT_14</title>
<polygon fill="blueviolet" stroke="blueviolet" points="3491.8,-2855.92 3495.93,-2856.11 3500.01,-2856.4 3504.03,-2856.78 3507.97,-2857.26 3511.83,-2857.83 3515.58,-2858.49 3519.2,-2859.24 3522.7,-2860.08 3526.04,-2861 3529.22,-2862.01 3532.23,-2863.09 3535.07,-2864.25 3537.71,-2865.49 3540.15,-2866.79 3542.39,-2868.17 3544.42,-2869.6 3546.23,-2871.09 3547.83,-2872.64 3549.21,-2874.24 3550.36,-2875.88 3551.3,-2877.57 3552.01,-2879.29 3552.51,-2881.05 3552.8,-2882.83 3552.88,-2884.63 3552.75,-2886.46 3552.42,-2888.29 3551.91,-2890.13 3551.2,-2891.98 3550.33,-2893.82 3549.28,-2895.66 3548.07,-2897.48 3546.71,-2899.29 3545.21,-2901.07 3543.57,-2902.82 3541.81,-2904.55 3539.94,-2906.23 3537.95,-2907.88 3535.88,-2909.47 3533.71,-2911.02 3531.46,-2912.51 3529.14,-2913.95 3526.75,-2915.32 3524.31,-2916.62 3521.82,-2917.86 3519.28,-2919.02 3516.7,-2920.11 3514.09,-2921.11 3511.44,-2922.03 3508.78,-2922.87 3506.09,-2923.62 3503.39,-2924.28 3500.67,-2924.85 3497.94,-2925.33 3495.2,-2925.71 3492.45,-2926 3489.7,-2926.2 3486.95,-2926.29 3484.2,-2926.29 3481.45,-2926.2 3478.7,-2926 3475.95,-2925.71 3473.21,-2925.33 3470.48,-2924.85 3467.76,-2924.28 3465.06,-2923.62 3462.37,-2922.87 3459.71,-2922.03 3457.07,-2921.11 3454.45,-2920.11 3451.87,-2919.02 3449.34,-2917.86 3446.84,-2916.62 3444.4,-2915.32 3442.01,-2913.95 3439.69,-2912.51 3437.44,-2911.02 3435.28,-2909.47 3433.2,-2907.88 3431.21,-2906.23 3429.34,-2904.55 3427.58,-2902.82 3425.94,-2901.07 3424.44,-2899.29 3423.08,-2897.48 3421.87,-2895.66 3420.83,-2893.82 3419.95,-2891.98 3419.24,-2890.13 3418.73,-2888.29 3418.4,-2886.46 3418.27,-2884.63 3418.35,-2882.83 3418.64,-2881.05 3419.14,-2879.29 3419.85,-2877.57 3420.79,-2875.88 3421.95,-2874.24 3423.32,-2872.64 3424.92,-2871.09 3426.73,-2869.6 3428.76,-2868.17 3431,-2866.79 3433.44,-2865.49 3436.08,-2864.25 3438.92,-2863.09 3441.93,-2862.01 3445.11,-2861 3448.46,-2860.08 3451.95,-2859.24 3455.57,-2858.49 3459.32,-2857.83 3463.18,-2857.26 3467.12,-2856.78 3471.14,-2856.4 3475.22,-2856.11 3479.35,-2855.92 3483.5,-2855.82 3487.65,-2855.82 3491.8,-2855.92"/>
<text text-anchor="start" x="3456.66" y="-2900.86" font-family="Times,serif" font-size="14.00">C1140609</text>
<text text-anchor="start" x="3448.82" y="-2886.86" font-family="Times,serif" font-size="14.00">insulin pump</text>
<text text-anchor="start" x="3469.63" y="-2872.86" font-family="Times,serif" font-size="14.00">89:90</text>
</g>
<!-- id_27824066_DOT_4&#45;&#45;id_27824066_DOT_14 -->
<g id="edge5" class="edge">
<title>id_27824066_DOT_4&#45;&#45;id_27824066_DOT_14</title>
<path fill="none" stroke="black" d="M3476.63,-2505.77C3478.48,-2585.22 3482.92,-2776.56 3484.76,-2855.79"/>
<text text-anchor="middle" x="3454.45" y="-2683.58" font-family="Times,serif" font-size="14.00">0.051927</text>
</g>
<!-- id_27824066_DOT_25 -->
<g id="node25" class="node">
<title>id_27824066_DOT_25</title>
<polygon fill="crimson" stroke="crimson" points="3874.25,-2357.02 3877.68,-2357.21 3881.07,-2357.5 3884.41,-2357.88 3887.69,-2358.36 3890.9,-2358.93 3894.01,-2359.59 3897.03,-2360.34 3899.93,-2361.18 3902.71,-2362.1 3905.36,-2363.11 3907.86,-2364.19 3910.22,-2365.35 3912.41,-2366.59 3914.45,-2367.89 3916.31,-2369.26 3917.99,-2370.7 3919.5,-2372.19 3920.83,-2373.74 3921.97,-2375.34 3922.94,-2376.98 3923.71,-2378.67 3924.31,-2380.39 3924.72,-2382.14 3924.96,-2383.93 3925.03,-2385.73 3924.92,-2387.55 3924.65,-2389.39 3924.22,-2391.23 3923.64,-2393.08 3922.91,-2394.92 3922.03,-2396.76 3921.03,-2398.58 3919.9,-2400.38 3918.65,-2402.17 3917.29,-2403.92 3915.83,-2405.64 3914.27,-2407.33 3912.62,-2408.97 3910.89,-2410.57 3909.09,-2412.12 3907.22,-2413.61 3905.29,-2415.05 3903.31,-2416.42 3901.28,-2417.72 3899.2,-2418.96 3897.09,-2420.12 3894.95,-2421.2 3892.77,-2422.21 3890.58,-2423.13 3888.36,-2423.97 3886.13,-2424.72 3883.88,-2425.38 3881.62,-2425.95 3879.35,-2426.43 3877.07,-2426.81 3874.79,-2427.1 3872.5,-2427.29 3870.21,-2427.39 3867.93,-2427.39 3865.64,-2427.29 3863.35,-2427.1 3861.07,-2426.81 3858.79,-2426.43 3856.52,-2425.95 3854.26,-2425.38 3852.01,-2424.72 3849.78,-2423.97 3847.56,-2423.13 3845.37,-2422.21 3843.19,-2421.2 3841.05,-2420.12 3838.94,-2418.96 3836.86,-2417.72 3834.83,-2416.42 3832.85,-2415.05 3830.92,-2413.61 3829.05,-2412.12 3827.25,-2410.57 3825.52,-2408.97 3823.87,-2407.33 3822.31,-2405.64 3820.85,-2403.92 3819.49,-2402.17 3818.24,-2400.38 3817.11,-2398.58 3816.11,-2396.76 3815.23,-2394.92 3814.5,-2393.08 3813.92,-2391.23 3813.49,-2389.39 3813.22,-2387.55 3813.11,-2385.73 3813.18,-2383.93 3813.42,-2382.14 3813.83,-2380.39 3814.43,-2378.67 3815.2,-2376.98 3816.17,-2375.34 3817.31,-2373.74 3818.64,-2372.19 3820.15,-2370.7 3821.83,-2369.26 3823.69,-2367.89 3825.73,-2366.59 3827.92,-2365.35 3830.28,-2364.19 3832.78,-2363.11 3835.43,-2362.1 3838.21,-2361.18 3841.11,-2360.34 3844.13,-2359.59 3847.24,-2358.93 3850.45,-2358.36 3853.73,-2357.88 3857.07,-2357.5 3860.46,-2357.21 3863.89,-2357.02 3867.34,-2356.92 3870.8,-2356.92 3874.25,-2357.02"/>
<text text-anchor="start" x="3839.9" y="-2401.96" font-family="Times,serif" font-size="14.00">C0393124</text>
<text text-anchor="start" x="3855.85" y="-2387.96" font-family="Times,serif" font-size="14.00">CSII</text>
<text text-anchor="start" x="3846.13" y="-2373.96" font-family="Times,serif" font-size="14.00">167:167</text>
</g>
<!-- id_27824066_DOT_4&#45;&#45;id_27824066_DOT_25 -->
<g id="edge14" class="edge">
<title>id_27824066_DOT_4&#45;&#45;id_27824066_DOT_25</title>
<path fill="none" stroke="black" stroke-dasharray="1,5" d="M3542.97,-2456.92C3621.39,-2441.34 3749.29,-2415.94 3819.33,-2402.03"/>
<text text-anchor="middle" x="3654.9" y="-2432.27" font-family="Times,serif" font-size="14.00">0.800018</text>
</g>
<!-- id_27824066_DOT_5 -->
<g id="node5" class="node">
<title>id_27824066_DOT_5</title>
<polygon fill="brown" stroke="brown" points="1278.11,-1972.15 1281.5,-1972.34 1284.86,-1972.63 1288.17,-1973.02 1291.42,-1973.49 1294.6,-1974.06 1297.68,-1974.73 1300.67,-1975.48 1303.54,-1976.31 1306.3,-1977.24 1308.92,-1978.24 1311.4,-1979.33 1313.73,-1980.49 1315.9,-1981.72 1317.92,-1983.03 1319.76,-1984.4 1321.43,-1985.83 1322.92,-1987.33 1324.24,-1988.87 1325.37,-1990.47 1326.32,-1992.12 1327.09,-1993.8 1327.68,-1995.52 1328.09,-1997.28 1328.33,-1999.06 1328.39,-2000.87 1328.29,-2002.69 1328.02,-2004.52 1327.59,-2006.37 1327.02,-2008.21 1326.29,-2010.06 1325.43,-2011.89 1324.44,-2013.71 1323.32,-2015.52 1322.08,-2017.3 1320.73,-2019.06 1319.28,-2020.78 1317.74,-2022.46 1316.11,-2024.11 1314.4,-2025.71 1312.61,-2027.25 1310.76,-2028.75 1308.85,-2030.18 1306.88,-2031.55 1304.87,-2032.86 1302.82,-2034.09 1300.73,-2035.25 1298.61,-2036.34 1296.45,-2037.34 1294.28,-2038.27 1292.08,-2039.1 1289.87,-2039.85 1287.65,-2040.52 1285.41,-2041.09 1283.16,-2041.56 1280.9,-2041.95 1278.64,-2042.24 1276.38,-2042.43 1274.11,-2042.53 1271.85,-2042.53 1269.58,-2042.43 1267.32,-2042.24 1265.06,-2041.95 1262.8,-2041.56 1260.55,-2041.09 1258.32,-2040.52 1256.09,-2039.85 1253.88,-2039.1 1251.68,-2038.27 1249.51,-2037.34 1247.36,-2036.34 1245.23,-2035.25 1243.14,-2034.09 1241.09,-2032.86 1239.08,-2031.55 1237.11,-2030.18 1235.2,-2028.75 1233.35,-2027.25 1231.57,-2025.71 1229.85,-2024.11 1228.22,-2022.46 1226.68,-2020.78 1225.23,-2019.06 1223.88,-2017.3 1222.65,-2015.52 1221.53,-2013.71 1220.53,-2011.89 1219.67,-2010.06 1218.94,-2008.21 1218.37,-2006.37 1217.94,-2004.52 1217.67,-2002.69 1217.57,-2000.87 1217.63,-1999.06 1217.87,-1997.28 1218.28,-1995.52 1218.87,-1993.8 1219.64,-1992.12 1220.59,-1990.47 1221.72,-1988.87 1223.04,-1987.33 1224.53,-1985.83 1226.2,-1984.4 1228.05,-1983.03 1230.06,-1981.72 1232.23,-1980.49 1234.56,-1979.33 1237.04,-1978.24 1239.67,-1977.24 1242.42,-1976.31 1245.29,-1975.48 1248.28,-1974.73 1251.36,-1974.06 1254.54,-1973.49 1257.79,-1973.02 1261.1,-1972.63 1264.46,-1972.34 1267.85,-1972.15 1271.27,-1972.05 1274.69,-1972.05 1278.11,-1972.15"/>
<text text-anchor="start" x="1244.32" y="-2017.09" font-family="Times,serif" font-size="14.00">C0087111</text>
<text text-anchor="start" x="1249.66" y="-2003.09" font-family="Times,serif" font-size="14.00">Therapy</text>
<text text-anchor="start" x="1257.04" y="-1989.09" font-family="Times,serif" font-size="14.00">19:19</text>
</g>
<!-- id_27824066_DOT_15 -->
<g id="node15" class="node">
<title>id_27824066_DOT_15</title>
<polygon fill="brown" stroke="brown" points="1406.45,-1591.63 1409.84,-1591.83 1413.2,-1592.12 1416.51,-1592.5 1419.76,-1592.98 1422.93,-1593.55 1426.02,-1594.21 1429.01,-1594.96 1431.88,-1595.8 1434.63,-1596.72 1437.26,-1597.73 1439.74,-1598.81 1442.07,-1599.97 1444.24,-1601.21 1446.25,-1602.51 1448.1,-1603.88 1449.77,-1605.32 1451.26,-1606.81 1452.58,-1608.36 1453.71,-1609.96 1454.66,-1611.6 1455.43,-1613.29 1456.02,-1615.01 1456.43,-1616.76 1456.67,-1618.55 1456.73,-1620.35 1456.63,-1622.17 1456.36,-1624.01 1455.93,-1625.85 1455.36,-1627.7 1454.63,-1629.54 1453.77,-1631.37 1452.77,-1633.2 1451.65,-1635 1450.42,-1636.78 1449.07,-1638.54 1447.62,-1640.26 1446.08,-1641.95 1444.45,-1643.59 1442.73,-1645.19 1440.95,-1646.74 1439.1,-1648.23 1437.19,-1649.67 1435.22,-1651.04 1433.21,-1652.34 1431.16,-1653.58 1429.07,-1654.74 1426.94,-1655.82 1424.79,-1656.83 1422.62,-1657.75 1420.42,-1658.59 1418.21,-1659.34 1415.98,-1660 1413.75,-1660.57 1411.5,-1661.05 1409.24,-1661.43 1406.98,-1661.72 1404.72,-1661.91 1402.45,-1662.01 1400.19,-1662.01 1397.92,-1661.91 1395.66,-1661.72 1393.39,-1661.43 1391.14,-1661.05 1388.89,-1660.57 1386.65,-1660 1384.43,-1659.34 1382.22,-1658.59 1380.02,-1657.75 1377.85,-1656.83 1375.69,-1655.82 1373.57,-1654.74 1371.48,-1653.58 1369.43,-1652.34 1367.41,-1651.04 1365.45,-1649.67 1363.54,-1648.23 1361.69,-1646.74 1359.9,-1645.19 1358.19,-1643.59 1356.56,-1641.95 1355.02,-1640.26 1353.57,-1638.54 1352.22,-1636.78 1350.98,-1635 1349.86,-1633.2 1348.87,-1631.37 1348.01,-1629.54 1347.28,-1627.7 1346.7,-1625.85 1346.28,-1624.01 1346.01,-1622.17 1345.91,-1620.35 1345.97,-1618.55 1346.21,-1616.76 1346.62,-1615.01 1347.21,-1613.29 1347.98,-1611.6 1348.93,-1609.96 1350.06,-1608.36 1351.38,-1606.81 1352.87,-1605.32 1354.54,-1603.88 1356.38,-1602.51 1358.4,-1601.21 1360.57,-1599.97 1362.9,-1598.81 1365.38,-1597.73 1368,-1596.72 1370.76,-1595.8 1373.63,-1594.96 1376.62,-1594.21 1379.7,-1593.55 1382.88,-1592.98 1386.13,-1592.5 1389.44,-1592.12 1392.8,-1591.83 1396.19,-1591.63 1399.61,-1591.54 1403.03,-1591.54 1406.45,-1591.63"/>
<text text-anchor="start" x="1372.66" y="-1636.57" font-family="Times,serif" font-size="14.00">C0087111</text>
<text text-anchor="start" x="1380.33" y="-1622.57" font-family="Times,serif" font-size="14.00">therapy</text>
<text text-anchor="start" x="1385.37" y="-1608.57" font-family="Times,serif" font-size="14.00">91:91</text>
</g>
<!-- id_27824066_DOT_5&#45;&#45;id_27824066_DOT_15 -->
<g id="edge6" class="edge">
<title>id_27824066_DOT_5&#45;&#45;id_27824066_DOT_15</title>
<path fill="none" stroke="black" d="M1284.71,-1972.51C1309.21,-1899.86 1365.57,-1732.77 1389.85,-1660.79"/>
<text text-anchor="middle" x="1311.03" y="-1819.45" font-family="Times,serif" font-size="14.00">0.002444</text>
</g>
<!-- id_27824066_DOT_6 -->
<g id="node6" class="node">
<title>id_27824066_DOT_6</title>
<polygon fill="cadetblue" stroke="cadetblue" points="676.77,-1264.41 687.38,-1264.6 697.89,-1264.89 708.24,-1265.27 718.4,-1265.75 728.32,-1266.32 737.97,-1266.98 747.31,-1267.73 756.3,-1268.57 764.9,-1269.49 773.1,-1270.5 780.86,-1271.58 788.14,-1272.75 794.94,-1273.98 801.24,-1275.29 807,-1276.66 812.22,-1278.09 816.89,-1279.58 821,-1281.13 824.55,-1282.73 827.52,-1284.37 829.93,-1286.06 831.78,-1287.78 833.06,-1289.54 833.8,-1291.32 834,-1293.12 833.67,-1294.95 832.83,-1296.78 831.5,-1298.63 829.69,-1300.47 827.43,-1302.31 824.73,-1304.15 821.62,-1305.97 818.12,-1307.78 814.25,-1309.56 810.04,-1311.31 805.51,-1313.04 800.68,-1314.72 795.58,-1316.37 790.23,-1317.96 784.65,-1319.51 778.86,-1321.01 772.89,-1322.44 766.75,-1323.81 760.46,-1325.12 754.03,-1326.35 747.5,-1327.51 740.86,-1328.6 734.13,-1329.6 727.33,-1330.52 720.47,-1331.36 713.55,-1332.11 706.59,-1332.77 699.59,-1333.34 692.56,-1333.82 685.51,-1334.21 678.45,-1334.49 671.37,-1334.69 664.28,-1334.78 657.19,-1334.78 650.11,-1334.69 643.03,-1334.49 635.96,-1334.21 628.91,-1333.82 621.88,-1333.34 614.88,-1332.77 607.92,-1332.11 601.01,-1331.36 594.14,-1330.52 587.34,-1329.6 580.62,-1328.6 573.98,-1327.51 567.44,-1326.35 561.02,-1325.12 554.73,-1323.81 548.59,-1322.44 542.61,-1321.01 536.83,-1319.51 531.24,-1317.96 525.89,-1316.37 520.79,-1314.72 515.96,-1313.04 511.43,-1311.31 507.22,-1309.56 503.35,-1307.78 499.85,-1305.97 496.74,-1304.15 494.04,-1302.31 491.78,-1300.47 489.97,-1298.63 488.64,-1296.78 487.8,-1294.95 487.48,-1293.12 487.67,-1291.32 488.41,-1289.54 489.7,-1287.78 491.54,-1286.06 493.95,-1284.37 496.93,-1282.73 500.47,-1281.13 504.58,-1279.58 509.25,-1278.09 514.48,-1276.66 520.24,-1275.29 526.53,-1273.98 533.33,-1272.75 540.62,-1271.58 548.37,-1270.5 556.57,-1269.49 565.18,-1268.57 574.17,-1267.73 583.5,-1266.98 593.15,-1266.32 603.07,-1265.75 613.23,-1265.27 623.58,-1264.89 634.09,-1264.6 644.7,-1264.41 655.39,-1264.31 666.09,-1264.31 676.77,-1264.41"/>
<text text-anchor="start" x="631.57" y="-1309.35" font-family="Times,serif" font-size="14.00">C0181334</text>
<text text-anchor="start" x="553.61" y="-1295.35" font-family="Times,serif" font-size="14.00">closed &#45; loop insulin delivery methods</text>
<text text-anchor="start" x="644.79" y="-1281.35" font-family="Times,serif" font-size="14.00">21:26</text>
</g>
<!-- id_27824066_DOT_12 -->
<g id="node12" class="node">
<title>id_27824066_DOT_12</title>
<polygon fill="cornflowerblue" stroke="cornflowerblue" points="296.36,-1086.55 299.78,-1086.75 303.18,-1087.04 306.52,-1087.42 309.8,-1087.9 313,-1088.47 316.12,-1089.13 319.14,-1089.88 322.04,-1090.72 324.82,-1091.64 327.47,-1092.64 329.97,-1093.73 332.32,-1094.89 334.52,-1096.12 336.55,-1097.43 338.41,-1098.8 340.1,-1100.24 341.61,-1101.73 342.94,-1103.28 344.08,-1104.87 345.04,-1106.52 345.82,-1108.2 346.42,-1109.93 346.83,-1111.68 347.07,-1113.46 347.13,-1115.27 347.03,-1117.09 346.76,-1118.93 346.33,-1120.77 345.74,-1122.62 345.01,-1124.46 344.14,-1126.29 343.14,-1128.12 342.01,-1129.92 340.76,-1131.7 339.4,-1133.46 337.93,-1135.18 336.37,-1136.87 334.73,-1138.51 333,-1140.11 331.2,-1141.66 329.33,-1143.15 327.4,-1144.58 325.41,-1145.96 323.38,-1147.26 321.31,-1148.49 319.2,-1149.66 317.05,-1150.74 314.88,-1151.75 312.68,-1152.67 310.47,-1153.51 308.23,-1154.26 305.99,-1154.92 303.73,-1155.49 301.46,-1155.97 299.18,-1156.35 296.9,-1156.64 294.61,-1156.83 292.32,-1156.93 290.03,-1156.93 287.74,-1156.83 285.46,-1156.64 283.18,-1156.35 280.9,-1155.97 278.63,-1155.49 276.37,-1154.92 274.12,-1154.26 271.89,-1153.51 269.67,-1152.67 267.47,-1151.75 265.3,-1150.74 263.16,-1149.66 261.05,-1148.49 258.97,-1147.26 256.94,-1145.96 254.96,-1144.58 253.03,-1143.15 251.16,-1141.66 249.36,-1140.11 247.63,-1138.51 245.98,-1136.87 244.42,-1135.18 242.96,-1133.46 241.6,-1131.7 240.35,-1129.92 239.22,-1128.12 238.21,-1126.29 237.34,-1124.46 236.61,-1122.62 236.03,-1120.77 235.6,-1118.93 235.33,-1117.09 235.22,-1115.27 235.28,-1113.46 235.52,-1111.68 235.94,-1109.93 236.53,-1108.2 237.31,-1106.52 238.27,-1104.87 239.42,-1103.28 240.75,-1101.73 242.25,-1100.24 243.94,-1098.8 245.8,-1097.43 247.83,-1096.12 250.03,-1094.89 252.38,-1093.73 254.89,-1092.64 257.53,-1091.64 260.31,-1090.72 263.22,-1089.88 266.23,-1089.13 269.35,-1088.47 272.55,-1087.9 275.83,-1087.42 279.18,-1087.04 282.57,-1086.75 286,-1086.55 289.45,-1086.46 292.91,-1086.46 296.36,-1086.55"/>
<text text-anchor="start" x="262.01" y="-1131.49" font-family="Times,serif" font-size="14.00">C0456389</text>
<text text-anchor="start" x="277.57" y="-1117.49" font-family="Times,serif" font-size="14.00">sizes</text>
<text text-anchor="start" x="275.23" y="-1103.49" font-family="Times,serif" font-size="14.00">81:81</text>
</g>
<!-- id_27824066_DOT_6&#45;&#45;id_27824066_DOT_12 -->
<g id="edge15" class="edge">
<title>id_27824066_DOT_6&#45;&#45;id_27824066_DOT_12</title>
<path fill="none" stroke="black" stroke-dasharray="1,5" d="M591.66,-1266.3C515.2,-1229.5 394.5,-1171.42 331.89,-1141.29"/>
<text text-anchor="middle" x="435.52" y="-1206.59" font-family="Times,serif" font-size="14.00">0.909153</text>
</g>
<!-- id_27824066_DOT_23 -->
<g id="node23" class="node">
<title>id_27824066_DOT_23</title>
<polygon fill="darkgreen" stroke="darkgreen" points="1043,-1048.04 1046.6,-1048.23 1050.17,-1048.52 1053.68,-1048.91 1057.12,-1049.38 1060.49,-1049.95 1063.76,-1050.62 1066.93,-1051.37 1069.98,-1052.2 1072.9,-1053.13 1075.68,-1054.13 1078.31,-1055.22 1080.79,-1056.38 1083.09,-1057.61 1085.23,-1058.92 1087.18,-1060.29 1088.96,-1061.72 1090.54,-1063.22 1091.93,-1064.76 1093.14,-1066.36 1094.15,-1068.01 1094.96,-1069.69 1095.59,-1071.41 1096.03,-1073.17 1096.28,-1074.95 1096.34,-1076.76 1096.23,-1078.58 1095.95,-1080.41 1095.5,-1082.26 1094.88,-1084.1 1094.12,-1085.95 1093.2,-1087.78 1092.14,-1089.6 1090.96,-1091.41 1089.64,-1093.19 1088.22,-1094.95 1086.68,-1096.67 1085.04,-1098.35 1083.31,-1100 1081.49,-1101.6 1079.6,-1103.14 1077.64,-1104.64 1075.61,-1106.07 1073.53,-1107.44 1071.39,-1108.75 1069.21,-1109.98 1067,-1111.14 1064.74,-1112.23 1062.46,-1113.23 1060.15,-1114.16 1057.83,-1114.99 1055.48,-1115.74 1053.12,-1116.41 1050.74,-1116.98 1048.36,-1117.45 1045.97,-1117.84 1043.57,-1118.13 1041.17,-1118.32 1038.76,-1118.42 1036.36,-1118.42 1033.95,-1118.32 1031.55,-1118.13 1029.15,-1117.84 1026.76,-1117.45 1024.38,-1116.98 1022,-1116.41 1019.64,-1115.74 1017.29,-1114.99 1014.97,-1114.16 1012.66,-1113.23 1010.38,-1112.23 1008.12,-1111.14 1005.91,-1109.98 1003.73,-1108.75 1001.59,-1107.44 999.51,-1106.07 997.48,-1104.64 995.52,-1103.14 993.63,-1101.6 991.81,-1100 990.08,-1098.35 988.44,-1096.67 986.9,-1094.95 985.48,-1093.19 984.16,-1091.41 982.98,-1089.6 981.92,-1087.78 981.01,-1085.95 980.24,-1084.1 979.62,-1082.26 979.17,-1080.41 978.89,-1078.58 978.78,-1076.76 978.84,-1074.95 979.09,-1073.17 979.53,-1071.41 980.16,-1069.69 980.97,-1068.01 981.98,-1066.36 983.19,-1064.76 984.58,-1063.22 986.16,-1061.72 987.94,-1060.29 989.89,-1058.92 992.03,-1057.61 994.33,-1056.38 996.81,-1055.22 999.44,-1054.13 1002.22,-1053.13 1005.14,-1052.2 1008.19,-1051.37 1011.36,-1050.62 1014.63,-1049.95 1018,-1049.38 1021.44,-1048.91 1024.96,-1048.52 1028.52,-1048.23 1032.12,-1048.04 1035.74,-1047.94 1039.38,-1047.94 1043,-1048.04"/>
<text text-anchor="start" x="1008.39" y="-1092.98" font-family="Times,serif" font-size="14.00">C0678257</text>
<text text-anchor="start" x="1006.46" y="-1078.98" font-family="Times,serif" font-size="14.00">description</text>
<text text-anchor="start" x="1014.62" y="-1064.98" font-family="Times,serif" font-size="14.00">154:154</text>
</g>
<!-- id_27824066_DOT_6&#45;&#45;id_27824066_DOT_23 -->
<g id="edge16" class="edge">
<title>id_27824066_DOT_6&#45;&#45;id_27824066_DOT_23</title>
<path fill="none" stroke="black" stroke-dasharray="1,5" d="M719.62,-1265.74C797.45,-1221.05 932.43,-1143.54 998.65,-1105.52"/>
<text text-anchor="middle" x="832.88" y="-1188.43" font-family="Times,serif" font-size="14.00">0.744043</text>
</g>
<!-- id_27824066_DOT_27 -->
<g id="node27" class="node">
<title>id_27824066_DOT_27</title>
<polygon fill="darkmagenta" stroke="darkmagenta" points="397.79,-1577.11 401.22,-1577.3 404.61,-1577.59 407.96,-1577.97 411.24,-1578.45 414.44,-1579.02 417.56,-1579.68 420.57,-1580.43 423.47,-1581.27 426.25,-1582.19 428.9,-1583.2 431.41,-1584.28 433.76,-1585.44 435.96,-1586.68 437.99,-1587.98 439.85,-1589.35 441.54,-1590.79 443.04,-1592.28 444.37,-1593.83 445.52,-1595.43 446.48,-1597.07 447.26,-1598.76 447.85,-1600.48 448.27,-1602.24 448.5,-1604.02 448.57,-1605.82 448.46,-1607.65 448.19,-1609.48 447.76,-1611.32 447.18,-1613.17 446.45,-1615.01 445.58,-1616.85 444.57,-1618.67 443.44,-1620.47 442.19,-1622.26 440.83,-1624.01 439.37,-1625.73 437.81,-1627.42 436.16,-1629.06 434.43,-1630.66 432.63,-1632.21 430.76,-1633.7 428.83,-1635.14 426.85,-1636.51 424.82,-1637.81 422.74,-1639.05 420.63,-1640.21 418.49,-1641.29 416.32,-1642.3 414.12,-1643.22 411.9,-1644.06 409.67,-1644.81 407.42,-1645.47 405.16,-1646.04 402.89,-1646.52 400.61,-1646.9 398.33,-1647.19 396.05,-1647.39 393.76,-1647.48 391.47,-1647.48 389.18,-1647.39 386.89,-1647.19 384.61,-1646.9 382.33,-1646.52 380.06,-1646.04 377.8,-1645.47 375.56,-1644.81 373.32,-1644.06 371.1,-1643.22 368.91,-1642.3 366.74,-1641.29 364.59,-1640.21 362.48,-1639.05 360.41,-1637.81 358.38,-1636.51 356.39,-1635.14 354.46,-1633.7 352.59,-1632.21 350.79,-1630.66 349.06,-1629.06 347.42,-1627.42 345.86,-1625.73 344.39,-1624.01 343.03,-1622.26 341.78,-1620.47 340.65,-1618.67 339.65,-1616.85 338.78,-1615.01 338.05,-1613.17 337.46,-1611.32 337.03,-1609.48 336.76,-1607.65 336.66,-1605.82 336.72,-1604.02 336.96,-1602.24 337.37,-1600.48 337.97,-1598.76 338.75,-1597.07 339.71,-1595.43 340.85,-1593.83 342.18,-1592.28 343.69,-1590.79 345.38,-1589.35 347.24,-1587.98 349.27,-1586.68 351.46,-1585.44 353.82,-1584.28 356.32,-1583.2 358.97,-1582.19 361.75,-1581.27 364.65,-1580.43 367.67,-1579.68 370.78,-1579.02 373.99,-1578.45 377.27,-1577.97 380.61,-1577.59 384.01,-1577.3 387.43,-1577.11 390.88,-1577.01 394.34,-1577.01 397.79,-1577.11"/>
<text text-anchor="start" x="363.44" y="-1622.05" font-family="Times,serif" font-size="14.00">C0456984</text>
<text text-anchor="start" x="374.34" y="-1608.05" font-family="Times,serif" font-size="14.00">results</text>
<text text-anchor="start" x="369.67" y="-1594.05" font-family="Times,serif" font-size="14.00">185:185</text>
</g>
<!-- id_27824066_DOT_6&#45;&#45;id_27824066_DOT_27 -->
<g id="edge17" class="edge">
<title>id_27824066_DOT_6&#45;&#45;id_27824066_DOT_27</title>
<path fill="none" stroke="black" stroke-dasharray="1,5" d="M631.02,-1334.21C578.66,-1395.27 470.74,-1521.13 420.05,-1580.25"/>
<text text-anchor="middle" x="499.54" y="-1460.03" font-family="Times,serif" font-size="14.00">0.811265</text>
</g>
<!-- id_27824066_DOT_7 -->
<g id="node7" class="node">
<title>id_27824066_DOT_7</title>
<polygon fill="chartreuse" stroke="chartreuse" points="625.28,-308.38 628.71,-308.57 632.1,-308.86 635.45,-309.24 638.73,-309.72 641.93,-310.29 645.05,-310.95 648.06,-311.7 650.97,-312.54 653.75,-313.46 656.39,-314.47 658.9,-315.55 661.25,-316.71 663.45,-317.95 665.48,-319.25 667.34,-320.62 669.03,-322.06 670.54,-323.55 671.86,-325.1 673.01,-326.7 673.97,-328.34 674.75,-330.03 675.34,-331.75 675.76,-333.5 676,-335.29 676.06,-337.09 675.95,-338.91 675.68,-340.75 675.25,-342.59 674.67,-344.44 673.94,-346.28 673.07,-348.12 672.06,-349.94 670.93,-351.74 669.68,-353.53 668.32,-355.28 666.86,-357 665.3,-358.69 663.65,-360.33 661.92,-361.93 660.12,-363.48 658.25,-364.97 656.32,-366.41 654.34,-367.78 652.31,-369.08 650.23,-370.32 648.12,-371.48 645.98,-372.56 643.81,-373.57 641.61,-374.49 639.39,-375.33 637.16,-376.08 634.91,-376.74 632.65,-377.31 630.38,-377.79 628.11,-378.17 625.82,-378.46 623.54,-378.65 621.25,-378.75 618.96,-378.75 616.67,-378.65 614.38,-378.46 612.1,-378.17 609.82,-377.79 607.56,-377.31 605.29,-376.74 603.05,-376.08 600.81,-375.33 598.6,-374.49 596.4,-373.57 594.23,-372.56 592.08,-371.48 589.97,-370.32 587.9,-369.08 585.87,-367.78 583.88,-366.41 581.95,-364.97 580.08,-363.48 578.28,-361.93 576.55,-360.33 574.91,-358.69 573.35,-357 571.88,-355.28 570.52,-353.53 569.27,-351.74 568.14,-349.94 567.14,-348.12 566.27,-346.28 565.54,-344.44 564.95,-342.59 564.52,-340.75 564.25,-338.91 564.15,-337.09 564.21,-335.29 564.45,-333.5 564.86,-331.75 565.46,-330.03 566.24,-328.34 567.2,-326.7 568.34,-325.1 569.67,-323.55 571.18,-322.06 572.87,-320.62 574.73,-319.25 576.76,-317.95 578.96,-316.71 581.31,-315.55 583.81,-314.47 586.46,-313.46 589.24,-312.54 592.14,-311.7 595.16,-310.95 598.28,-310.29 601.48,-309.72 604.76,-309.24 608.1,-308.86 611.5,-308.57 614.93,-308.38 618.38,-308.28 621.83,-308.28 625.28,-308.38"/>
<text text-anchor="start" x="590.93" y="-353.31" font-family="Times,serif" font-size="14.00">C0008972</text>
<text text-anchor="start" x="600.66" y="-339.31" font-family="Times,serif" font-size="14.00">studies</text>
<text text-anchor="start" x="604.16" y="-325.31" font-family="Times,serif" font-size="14.00">42:42</text>
</g>
<!-- id_27824066_DOT_20 -->
<g id="node20" class="node">
<title>id_27824066_DOT_20</title>
<polygon fill="chartreuse" stroke="chartreuse" points="792.43,-683.45 795.86,-683.64 799.25,-683.93 802.6,-684.31 805.88,-684.79 809.08,-685.36 812.2,-686.02 815.21,-686.77 818.12,-687.61 820.9,-688.53 823.54,-689.54 826.05,-690.62 828.4,-691.78 830.6,-693.02 832.63,-694.32 834.49,-695.7 836.18,-697.13 837.69,-698.62 839.01,-700.17 840.16,-701.77 841.12,-703.41 841.9,-705.1 842.49,-706.82 842.91,-708.58 843.15,-710.36 843.21,-712.16 843.1,-713.99 842.83,-715.82 842.4,-717.66 841.82,-719.51 841.09,-721.35 840.22,-723.19 839.21,-725.01 838.08,-726.81 836.83,-728.6 835.47,-730.35 834.01,-732.08 832.45,-733.76 830.8,-735.41 829.07,-737 827.27,-738.55 825.4,-740.04 823.47,-741.48 821.49,-742.85 819.46,-744.15 817.38,-745.39 815.27,-746.55 813.13,-747.63 810.96,-748.64 808.76,-749.56 806.54,-750.4 804.31,-751.15 802.06,-751.81 799.8,-752.38 797.53,-752.86 795.26,-753.24 792.97,-753.53 790.69,-753.73 788.4,-753.82 786.11,-753.82 783.82,-753.73 781.53,-753.53 779.25,-753.24 776.97,-752.86 774.71,-752.38 772.45,-751.81 770.2,-751.15 767.96,-750.4 765.75,-749.56 763.55,-748.64 761.38,-747.63 759.23,-746.55 757.12,-745.39 755.05,-744.15 753.02,-742.85 751.03,-741.48 749.1,-740.04 747.23,-738.55 745.43,-737 743.7,-735.41 742.06,-733.76 740.5,-732.08 739.03,-730.35 737.67,-728.6 736.43,-726.81 735.29,-725.01 734.29,-723.19 733.42,-721.35 732.69,-719.51 732.1,-717.66 731.67,-715.82 731.4,-713.99 731.3,-712.16 731.36,-710.36 731.6,-708.58 732.01,-706.82 732.61,-705.1 733.39,-703.41 734.35,-701.77 735.49,-700.17 736.82,-698.62 738.33,-697.13 740.02,-695.7 741.88,-694.32 743.91,-693.02 746.11,-691.78 748.46,-690.62 750.96,-689.54 753.61,-688.53 756.39,-687.61 759.29,-686.77 762.31,-686.02 765.43,-685.36 768.63,-684.79 771.91,-684.31 775.25,-683.93 778.65,-683.64 782.08,-683.45 785.53,-683.35 788.98,-683.35 792.43,-683.45"/>
<text text-anchor="start" x="758.08" y="-728.39" font-family="Times,serif" font-size="14.00">C0008972</text>
<text text-anchor="start" x="767.81" y="-714.39" font-family="Times,serif" font-size="14.00">studies</text>
<text text-anchor="start" x="764.31" y="-700.39" font-family="Times,serif" font-size="14.00">136:136</text>
</g>
<!-- id_27824066_DOT_7&#45;&#45;id_27824066_DOT_20 -->
<g id="edge7" class="edge">
<title>id_27824066_DOT_7&#45;&#45;id_27824066_DOT_20</title>
<path fill="none" stroke="black" d="M634.94,-376.8C666.5,-447.62 740.02,-612.59 771.97,-684.29"/>
<text text-anchor="middle" x="677.2" y="-533.35" font-family="Times,serif" font-size="14.00">0.004101</text>
</g>
<!-- id_27824066_DOT_8 -->
<g id="node8" class="node">
<title>id_27824066_DOT_8</title>
<polygon fill="coral" stroke="coral" points="1079.11,-662.69 1082.62,-662.89 1086.09,-663.17 1089.52,-663.56 1092.88,-664.04 1096.16,-664.61 1099.35,-665.27 1102.43,-666.02 1105.41,-666.86 1108.25,-667.78 1110.96,-668.78 1113.53,-669.87 1115.94,-671.03 1118.18,-672.26 1120.26,-673.57 1122.17,-674.94 1123.9,-676.37 1125.44,-677.87 1126.8,-679.42 1127.97,-681.01 1128.95,-682.66 1129.75,-684.34 1130.36,-686.07 1130.79,-687.82 1131.03,-689.6 1131.09,-691.41 1130.99,-693.23 1130.71,-695.07 1130.27,-696.91 1129.67,-698.75 1128.92,-700.6 1128.03,-702.43 1127,-704.26 1125.85,-706.06 1124.57,-707.84 1123.17,-709.6 1121.68,-711.32 1120.08,-713.01 1118.39,-714.65 1116.62,-716.25 1114.78,-717.8 1112.87,-719.29 1110.89,-720.72 1108.86,-722.09 1106.78,-723.4 1104.66,-724.63 1102.5,-725.8 1100.3,-726.88 1098.08,-727.89 1095.83,-728.81 1093.56,-729.65 1091.27,-730.4 1088.97,-731.06 1086.66,-731.63 1084.33,-732.11 1082,-732.49 1079.67,-732.78 1077.33,-732.97 1074.98,-733.07 1072.64,-733.07 1070.3,-732.97 1067.96,-732.78 1065.62,-732.49 1063.29,-732.11 1060.97,-731.63 1058.65,-731.06 1056.35,-730.4 1054.06,-729.65 1051.79,-728.81 1049.55,-727.89 1047.32,-726.88 1045.13,-725.8 1042.97,-724.63 1040.84,-723.4 1038.76,-722.09 1036.73,-720.72 1034.76,-719.29 1032.84,-717.8 1031,-716.25 1029.23,-714.65 1027.54,-713.01 1025.95,-711.32 1024.45,-709.6 1023.06,-707.84 1021.78,-706.06 1020.62,-704.26 1019.59,-702.43 1018.7,-700.6 1017.95,-698.75 1017.35,-696.91 1016.91,-695.07 1016.64,-693.23 1016.53,-691.41 1016.59,-689.6 1016.84,-687.82 1017.26,-686.07 1017.87,-684.34 1018.67,-682.66 1019.65,-681.01 1020.82,-679.42 1022.18,-677.87 1023.73,-676.37 1025.45,-674.94 1027.36,-673.57 1029.44,-672.26 1031.69,-671.03 1034.1,-669.87 1036.66,-668.78 1039.37,-667.78 1042.22,-666.86 1045.19,-666.02 1048.28,-665.27 1051.47,-664.61 1054.75,-664.04 1058.1,-663.56 1061.53,-663.17 1065,-662.89 1068.51,-662.69 1072.04,-662.6 1075.58,-662.6 1079.11,-662.69"/>
<text text-anchor="start" x="1044.64" y="-707.63" font-family="Times,serif" font-size="14.00">C0557351</text>
<text text-anchor="start" x="1043.87" y="-693.63" font-family="Times,serif" font-size="14.00">employing</text>
<text text-anchor="start" x="1057.87" y="-679.63" font-family="Times,serif" font-size="14.00">43:43</text>
</g>
<!-- id_27824066_DOT_8&#45;&#45;id_27824066_DOT_23 -->
<g id="edge18" class="edge">
<title>id_27824066_DOT_8&#45;&#45;id_27824066_DOT_23</title>
<path fill="none" stroke="black" stroke-dasharray="1,5" d="M1070.5,-733.05C1063.6,-806.35 1047.78,-974.56 1040.88,-1047.9"/>
<text text-anchor="middle" x="1029.44" y="-893.28" font-family="Times,serif" font-size="14.00">0.755457</text>
</g>
<!-- id_27824066_DOT_9&#45;&#45;id_27824066_DOT_10 -->
<g id="edge19" class="edge">
<title>id_27824066_DOT_9&#45;&#45;id_27824066_DOT_10</title>
<path fill="none" stroke="black" stroke-dasharray="1,5" d="M2872.03,-2035.66C2917.47,-2097.28 3015.95,-2230.81 3062.69,-2294.19"/>
<text text-anchor="middle" x="2941.11" y="-2167.72" font-family="Times,serif" font-size="14.00">0.460741</text>
</g>
<!-- id_27824066_DOT_18 -->
<g id="node18" class="node">
<title>id_27824066_DOT_18</title>
<polygon fill="aquamarine" stroke="aquamarine" points="2905.1,-2667.64 2911.29,-2667.83 2917.42,-2668.12 2923.46,-2668.5 2929.38,-2668.98 2935.17,-2669.55 2940.79,-2670.21 2946.24,-2670.96 2951.48,-2671.8 2956.5,-2672.72 2961.28,-2673.73 2965.8,-2674.81 2970.05,-2675.97 2974.02,-2677.21 2977.69,-2678.51 2981.05,-2679.88 2984.09,-2681.32 2986.82,-2682.81 2989.22,-2684.36 2991.28,-2685.96 2993.02,-2687.6 2994.42,-2689.29 2995.5,-2691.01 2996.25,-2692.76 2996.68,-2694.55 2996.79,-2696.35 2996.6,-2698.17 2996.11,-2700.01 2995.34,-2701.85 2994.28,-2703.7 2992.96,-2705.54 2991.39,-2707.37 2989.58,-2709.2 2987.53,-2711 2985.28,-2712.79 2982.82,-2714.54 2980.18,-2716.26 2977.37,-2717.95 2974.39,-2719.59 2971.27,-2721.19 2968.01,-2722.74 2964.64,-2724.23 2961.16,-2725.67 2957.57,-2727.04 2953.91,-2728.34 2950.16,-2729.58 2946.35,-2730.74 2942.48,-2731.82 2938.55,-2732.83 2934.59,-2733.75 2930.58,-2734.59 2926.55,-2735.34 2922.49,-2736 2918.41,-2736.57 2914.31,-2737.05 2910.2,-2737.43 2906.08,-2737.72 2901.95,-2737.91 2897.82,-2738.01 2893.68,-2738.01 2889.55,-2737.91 2885.42,-2737.72 2881.3,-2737.43 2877.19,-2737.05 2873.09,-2736.57 2869.01,-2736 2864.95,-2735.34 2860.91,-2734.59 2856.91,-2733.75 2852.95,-2732.83 2849.02,-2731.82 2845.15,-2730.74 2841.34,-2729.58 2837.59,-2728.34 2833.93,-2727.04 2830.34,-2725.67 2826.86,-2724.23 2823.48,-2722.74 2820.23,-2721.19 2817.11,-2719.59 2814.13,-2717.95 2811.32,-2716.26 2808.68,-2714.54 2806.22,-2712.79 2803.96,-2711 2801.92,-2709.2 2800.11,-2707.37 2798.54,-2705.54 2797.22,-2703.7 2796.16,-2701.85 2795.38,-2700.01 2794.9,-2698.17 2794.7,-2696.35 2794.82,-2694.55 2795.25,-2692.76 2796,-2691.01 2797.08,-2689.29 2798.48,-2687.6 2800.22,-2685.96 2802.28,-2684.36 2804.68,-2682.81 2807.4,-2681.32 2810.45,-2679.88 2813.81,-2678.51 2817.48,-2677.21 2821.45,-2675.97 2825.7,-2674.81 2830.22,-2673.73 2835,-2672.72 2840.02,-2671.8 2845.26,-2670.96 2850.71,-2670.21 2856.33,-2669.55 2862.12,-2668.98 2868.04,-2668.5 2874.08,-2668.12 2880.21,-2667.83 2886.4,-2667.64 2892.63,-2667.54 2898.87,-2667.54 2905.1,-2667.64"/>
<text text-anchor="start" x="2866.58" y="-2712.57" font-family="Times,serif" font-size="14.00">C3161035</text>
<text text-anchor="start" x="2836.51" y="-2698.57" font-family="Times,serif" font-size="14.00">GLUKINSLOOP 2.0</text>
<text text-anchor="start" x="2872.8" y="-2684.57" font-family="Times,serif" font-size="14.00">102:103</text>
</g>
<!-- id_27824066_DOT_10&#45;&#45;id_27824066_DOT_18 -->
<g id="edge8" class="edge">
<title>id_27824066_DOT_10&#45;&#45;id_27824066_DOT_18</title>
<path fill="none" stroke="black" d="M3070.53,-2363.42C3033.94,-2434.46 2950.55,-2596.38 2913.76,-2667.81"/>
<text text-anchor="middle" x="2965.89" y="-2518.42" font-family="Times,serif" font-size="14.00">0.007825</text>
</g>
<!-- id_27824066_DOT_11&#45;&#45;id_27824066_DOT_15 -->
<g id="edge20" class="edge">
<title>id_27824066_DOT_11&#45;&#45;id_27824066_DOT_15</title>
<path fill="none" stroke="black" stroke-dasharray="1,5" d="M1473.5,-1270.1C1458.44,-1344.47 1423.5,-1517.17 1408.44,-1591.6"/>
<text text-anchor="middle" x="1414.72" y="-1433.65" font-family="Times,serif" font-size="14.00">0.898553</text>
</g>
<!-- id_27824066_DOT_21 -->
<g id="node21" class="node">
<title>id_27824066_DOT_21</title>
<polygon fill="bisque" stroke="bisque" points="1957.19,-1150.88 1960.61,-1151.07 1964.01,-1151.36 1967.35,-1151.74 1970.63,-1152.22 1973.84,-1152.79 1976.95,-1153.45 1979.97,-1154.2 1982.87,-1155.04 1985.65,-1155.96 1988.3,-1156.97 1990.8,-1158.05 1993.16,-1159.22 1995.35,-1160.45 1997.38,-1161.76 1999.25,-1163.13 2000.93,-1164.56 2002.44,-1166.05 2003.77,-1167.6 2004.91,-1169.2 2005.87,-1170.84 2006.65,-1172.53 2007.25,-1174.25 2007.66,-1176.01 2007.9,-1177.79 2007.97,-1179.59 2007.86,-1181.42 2007.59,-1183.25 2007.16,-1185.1 2006.57,-1186.94 2005.84,-1188.78 2004.97,-1190.62 2003.97,-1192.44 2002.84,-1194.25 2001.59,-1196.03 2000.23,-1197.78 1998.76,-1199.51 1997.21,-1201.19 1995.56,-1202.84 1993.83,-1204.43 1992.03,-1205.98 1990.16,-1207.48 1988.23,-1208.91 1986.25,-1210.28 1984.21,-1211.59 1982.14,-1212.82 1980.03,-1213.98 1977.88,-1215.07 1975.71,-1216.07 1973.52,-1216.99 1971.3,-1217.83 1969.07,-1218.58 1966.82,-1219.24 1964.56,-1219.81 1962.29,-1220.29 1960.01,-1220.68 1957.73,-1220.96 1955.44,-1221.16 1953.15,-1221.25 1950.86,-1221.25 1948.58,-1221.16 1946.29,-1220.96 1944.01,-1220.68 1941.73,-1220.29 1939.46,-1219.81 1937.2,-1219.24 1934.95,-1218.58 1932.72,-1217.83 1930.5,-1216.99 1928.3,-1216.07 1926.13,-1215.07 1923.99,-1213.98 1921.88,-1212.82 1919.8,-1211.59 1917.77,-1210.28 1915.79,-1208.91 1913.86,-1207.48 1911.99,-1205.98 1910.19,-1204.43 1908.46,-1202.84 1906.81,-1201.19 1905.25,-1199.51 1903.79,-1197.78 1902.43,-1196.03 1901.18,-1194.25 1900.05,-1192.44 1899.04,-1190.62 1898.17,-1188.78 1897.44,-1186.94 1896.86,-1185.1 1896.43,-1183.25 1896.16,-1181.42 1896.05,-1179.59 1896.12,-1177.79 1896.35,-1176.01 1896.77,-1174.25 1897.37,-1172.53 1898.14,-1170.84 1899.1,-1169.2 1900.25,-1167.6 1901.58,-1166.05 1903.09,-1164.56 1904.77,-1163.13 1906.63,-1161.76 1908.66,-1160.45 1910.86,-1159.22 1913.21,-1158.05 1915.72,-1156.97 1918.37,-1155.96 1921.15,-1155.04 1924.05,-1154.2 1927.06,-1153.45 1930.18,-1152.79 1933.39,-1152.22 1936.67,-1151.74 1940.01,-1151.36 1943.4,-1151.07 1946.83,-1150.88 1950.28,-1150.78 1953.74,-1150.78 1957.19,-1150.88"/>
<text text-anchor="start" x="1922.84" y="-1195.82" font-family="Times,serif" font-size="14.00">C0202098</text>
<text text-anchor="start" x="1933.05" y="-1181.82" font-family="Times,serif" font-size="14.00">MMTs</text>
<text text-anchor="start" x="1929.06" y="-1167.82" font-family="Times,serif" font-size="14.00">143:143</text>
</g>
<!-- id_27824066_DOT_11&#45;&#45;id_27824066_DOT_21 -->
<g id="edge21" class="edge">
<title>id_27824066_DOT_11&#45;&#45;id_27824066_DOT_21</title>
<path fill="none" stroke="black" stroke-dasharray="1,5" d="M1563.25,-1226.4C1660.16,-1216.33 1817.89,-1199.95 1899.45,-1191.48"/>
<text text-anchor="middle" x="1705.1" y="-1211.74" font-family="Times,serif" font-size="14.00">0.612504</text>
</g>
<!-- id_27824066_DOT_11&#45;&#45;id_27824066_DOT_23 -->
<g id="edge22" class="edge">
<title>id_27824066_DOT_11&#45;&#45;id_27824066_DOT_23</title>
<path fill="none" stroke="black" stroke-dasharray="1,5" d="M1411.86,-1211.43C1320.84,-1180.24 1162.72,-1126.06 1084.35,-1099.21"/>
<text text-anchor="middle" x="1221.86" y="-1158.12" font-family="Times,serif" font-size="14.00">0.772496</text>
</g>
<!-- id_27824066_DOT_24 -->
<g id="node24" class="node">
<title>id_27824066_DOT_24</title>
<polygon fill="blue" stroke="blue" points="2244.68,-754.26 2249.28,-754.45 2253.83,-754.74 2258.31,-755.12 2262.72,-755.6 2267.01,-756.17 2271.19,-756.83 2275.24,-757.58 2279.13,-758.42 2282.86,-759.34 2286.41,-760.35 2289.77,-761.43 2292.93,-762.59 2295.88,-763.83 2298.6,-765.13 2301.1,-766.51 2303.36,-767.94 2305.39,-769.43 2307.17,-770.98 2308.7,-772.58 2309.99,-774.22 2311.04,-775.91 2311.83,-777.63 2312.39,-779.39 2312.71,-781.17 2312.8,-782.97 2312.66,-784.8 2312.29,-786.63 2311.71,-788.47 2310.93,-790.32 2309.95,-792.16 2308.78,-794 2307.43,-795.82 2305.92,-797.63 2304.24,-799.41 2302.42,-801.16 2300.45,-802.89 2298.36,-804.57 2296.15,-806.22 2293.83,-807.81 2291.42,-809.36 2288.91,-810.85 2286.32,-812.29 2283.66,-813.66 2280.94,-814.96 2278.15,-816.2 2275.32,-817.36 2272.44,-818.45 2269.53,-819.45 2266.58,-820.37 2263.61,-821.21 2260.61,-821.96 2257.6,-822.62 2254.57,-823.19 2251.52,-823.67 2248.47,-824.05 2245.41,-824.34 2242.34,-824.54 2239.27,-824.63 2236.2,-824.63 2233.13,-824.54 2230.06,-824.34 2227,-824.05 2223.94,-823.67 2220.9,-823.19 2217.87,-822.62 2214.85,-821.96 2211.85,-821.21 2208.88,-820.37 2205.93,-819.45 2203.02,-818.45 2200.14,-817.36 2197.31,-816.2 2194.53,-814.96 2191.8,-813.66 2189.14,-812.29 2186.56,-810.85 2184.05,-809.36 2181.63,-807.81 2179.31,-806.22 2177.1,-804.57 2175.01,-802.89 2173.05,-801.16 2171.22,-799.41 2169.55,-797.63 2168.03,-795.82 2166.68,-794 2165.51,-792.16 2164.53,-790.32 2163.75,-788.47 2163.17,-786.63 2162.81,-784.8 2162.67,-782.97 2162.75,-781.17 2163.07,-779.39 2163.63,-777.63 2164.43,-775.91 2165.47,-774.22 2166.76,-772.58 2168.3,-770.98 2170.08,-769.43 2172.1,-767.94 2174.37,-766.51 2176.86,-765.13 2179.59,-763.83 2182.53,-762.59 2185.69,-761.43 2189.05,-760.35 2192.6,-759.34 2196.33,-758.42 2200.23,-757.58 2204.27,-756.83 2208.45,-756.17 2212.75,-755.6 2217.15,-755.12 2221.64,-754.74 2226.19,-754.45 2230.79,-754.26 2235.41,-754.16 2240.05,-754.16 2244.68,-754.26"/>
<text text-anchor="start" x="2208.82" y="-799.2" font-family="Times,serif" font-size="14.00">C0011854</text>
<text text-anchor="start" x="2195.75" y="-785.2" font-family="Times,serif" font-size="14.00">type 1 diabetes</text>
<text text-anchor="start" x="2214.79" y="-771.2" font-family="Times,serif" font-size="14.00">162:164</text>
</g>
<!-- id_27824066_DOT_13&#45;&#45;id_27824066_DOT_24 -->
<g id="edge9" class="edge">
<title>id_27824066_DOT_13&#45;&#45;id_27824066_DOT_24</title>
<path fill="none" stroke="black" d="M2371.62,-434.95C2343.81,-508.58 2278.93,-680.34 2250.95,-754.4"/>
<text text-anchor="middle" x="2285.04" y="-597.47" font-family="Times,serif" font-size="14.00">0.000892</text>
</g>
<!-- id_27824066_DOT_16 -->
<g id="node16" class="node">
<title>id_27824066_DOT_16</title>
<polygon fill="crimson" stroke="crimson" points="4980.54,-2573.06 4991.94,-2573.25 5003.22,-2573.54 5014.34,-2573.93 5025.24,-2574.4 5035.9,-2574.97 5046.26,-2575.63 5056.29,-2576.39 5065.94,-2577.22 5075.18,-2578.15 5083.98,-2579.15 5092.31,-2580.24 5100.14,-2581.4 5107.44,-2582.63 5114.2,-2583.94 5120.39,-2585.31 5126,-2586.74 5131.01,-2588.24 5135.42,-2589.78 5139.23,-2591.38 5142.43,-2593.02 5145.01,-2594.71 5146.99,-2596.43 5148.38,-2598.19 5149.17,-2599.97 5149.38,-2601.78 5149.03,-2603.6 5148.13,-2605.43 5146.7,-2607.28 5144.76,-2609.12 5142.33,-2610.96 5139.43,-2612.8 5136.09,-2614.62 5132.33,-2616.43 5128.18,-2618.21 5123.65,-2619.97 5118.79,-2621.69 5113.6,-2623.37 5108.13,-2625.02 5102.38,-2626.62 5096.39,-2628.16 5090.17,-2629.66 5083.76,-2631.09 5077.16,-2632.46 5070.41,-2633.77 5063.51,-2635 5056.49,-2636.16 5049.36,-2637.25 5042.14,-2638.25 5034.84,-2639.18 5027.46,-2640.01 5020.04,-2640.76 5012.56,-2641.43 5005.04,-2642 4997.5,-2642.47 4989.93,-2642.86 4982.34,-2643.15 4974.74,-2643.34 4967.13,-2643.43 4959.51,-2643.43 4951.9,-2643.34 4944.3,-2643.15 4936.71,-2642.86 4929.14,-2642.47 4921.6,-2642 4914.08,-2641.43 4906.6,-2640.76 4899.18,-2640.01 4891.81,-2639.18 4884.5,-2638.25 4877.28,-2637.25 4870.15,-2636.16 4863.13,-2635 4856.23,-2633.77 4849.48,-2632.46 4842.88,-2631.09 4836.47,-2629.66 4830.25,-2628.16 4824.26,-2626.62 4818.51,-2625.02 4813.04,-2623.37 4807.85,-2621.69 4802.99,-2619.97 4798.46,-2618.21 4794.31,-2616.43 4790.55,-2614.62 4787.21,-2612.8 4784.31,-2610.96 4781.88,-2609.12 4779.94,-2607.28 4778.51,-2605.43 4777.61,-2603.6 4777.26,-2601.78 4777.47,-2599.97 4778.26,-2598.19 4779.65,-2596.43 4781.63,-2594.71 4784.21,-2593.02 4787.41,-2591.38 4791.22,-2589.78 4795.63,-2588.24 4800.64,-2586.74 4806.25,-2585.31 4812.44,-2583.94 4819.2,-2582.63 4826.5,-2581.4 4834.33,-2580.24 4842.66,-2579.15 4851.46,-2578.15 4860.7,-2577.22 4870.35,-2576.39 4880.38,-2575.63 4890.74,-2574.97 4901.4,-2574.4 4912.3,-2573.93 4923.42,-2573.54 4934.7,-2573.25 4946.1,-2573.06 4957.57,-2572.96 4969.07,-2572.96 4980.54,-2573.06"/>
<text text-anchor="start" x="4934.15" y="-2618" font-family="Times,serif" font-size="14.00">C0393124</text>
<text text-anchor="start" x="4847.63" y="-2604" font-family="Times,serif" font-size="14.00">continuous subcutaneous insulin infusion</text>
<text text-anchor="start" x="4947.38" y="-2590" font-family="Times,serif" font-size="14.00">93:96</text>
</g>
<!-- id_27824066_DOT_17 -->
<g id="node17" class="node">
<title>id_27824066_DOT_17</title>
<polygon fill="crimson" stroke="crimson" points="4608.94,-2507.23 4612.37,-2507.42 4615.76,-2507.71 4619.11,-2508.09 4622.39,-2508.57 4625.59,-2509.14 4628.71,-2509.8 4631.72,-2510.55 4634.63,-2511.39 4637.41,-2512.31 4640.05,-2513.32 4642.56,-2514.4 4644.91,-2515.56 4647.11,-2516.8 4649.14,-2518.1 4651,-2519.47 4652.69,-2520.91 4654.19,-2522.4 4655.52,-2523.95 4656.67,-2525.55 4657.63,-2527.19 4658.41,-2528.88 4659,-2530.6 4659.42,-2532.35 4659.66,-2534.14 4659.72,-2535.94 4659.61,-2537.76 4659.34,-2539.6 4658.91,-2541.44 4658.33,-2543.29 4657.6,-2545.13 4656.73,-2546.97 4655.72,-2548.79 4654.59,-2550.59 4653.34,-2552.38 4651.98,-2554.13 4650.52,-2555.85 4648.96,-2557.54 4647.31,-2559.18 4645.58,-2560.78 4643.78,-2562.33 4641.91,-2563.82 4639.98,-2565.26 4638,-2566.63 4635.97,-2567.93 4633.89,-2569.17 4631.78,-2570.33 4629.64,-2571.41 4627.47,-2572.42 4625.27,-2573.34 4623.05,-2574.18 4620.82,-2574.93 4618.57,-2575.59 4616.31,-2576.16 4614.04,-2576.64 4611.76,-2577.02 4609.48,-2577.31 4607.2,-2577.5 4604.91,-2577.6 4602.62,-2577.6 4600.33,-2577.5 4598.04,-2577.31 4595.76,-2577.02 4593.48,-2576.64 4591.21,-2576.16 4588.95,-2575.59 4586.71,-2574.93 4584.47,-2574.18 4582.26,-2573.34 4580.06,-2572.42 4577.89,-2571.41 4575.74,-2570.33 4573.63,-2569.17 4571.56,-2567.93 4569.53,-2566.63 4567.54,-2565.26 4565.61,-2563.82 4563.74,-2562.33 4561.94,-2560.78 4560.21,-2559.18 4558.57,-2557.54 4557.01,-2555.85 4555.54,-2554.13 4554.18,-2552.38 4552.93,-2550.59 4551.8,-2548.79 4550.8,-2546.97 4549.93,-2545.13 4549.2,-2543.29 4548.61,-2541.44 4548.18,-2539.6 4547.91,-2537.76 4547.81,-2535.94 4547.87,-2534.14 4548.11,-2532.35 4548.52,-2530.6 4549.12,-2528.88 4549.9,-2527.19 4550.86,-2525.55 4552,-2523.95 4553.33,-2522.4 4554.84,-2520.91 4556.53,-2519.47 4558.39,-2518.1 4560.42,-2516.8 4562.62,-2515.56 4564.97,-2514.4 4567.47,-2513.32 4570.12,-2512.31 4572.9,-2511.39 4575.8,-2510.55 4578.82,-2509.8 4581.94,-2509.14 4585.14,-2508.57 4588.42,-2508.09 4591.76,-2507.71 4595.16,-2507.42 4598.59,-2507.23 4602.03,-2507.13 4605.49,-2507.13 4608.94,-2507.23"/>
<text text-anchor="start" x="4574.59" y="-2552.17" font-family="Times,serif" font-size="14.00">C0393124</text>
<text text-anchor="start" x="4590.54" y="-2538.17" font-family="Times,serif" font-size="14.00">CSII</text>
<text text-anchor="start" x="4587.82" y="-2524.17" font-family="Times,serif" font-size="14.00">98:98</text>
</g>
<!-- id_27824066_DOT_16&#45;&#45;id_27824066_DOT_17 -->
<g id="edge10" class="edge">
<title>id_27824066_DOT_16&#45;&#45;id_27824066_DOT_17</title>
<path fill="none" stroke="black" d="M4821.47,-2582.23C4762.35,-2571.4 4697.5,-2559.53 4654.09,-2551.58"/>
<text text-anchor="middle" x="4711.53" y="-2569.7" font-family="Times,serif" font-size="14.00">0.008870</text>
</g>
<!-- id_27824066_DOT_28 -->
<g id="node28" class="node">
<title>id_27824066_DOT_28</title>
<polygon fill="crimson" stroke="crimson" points="4251.71,-2406.58 4255.14,-2406.78 4258.53,-2407.07 4261.88,-2407.45 4265.16,-2407.93 4268.36,-2408.5 4271.48,-2409.16 4274.49,-2409.91 4277.4,-2410.75 4280.18,-2411.67 4282.82,-2412.67 4285.33,-2413.76 4287.68,-2414.92 4289.88,-2416.15 4291.91,-2417.46 4293.77,-2418.83 4295.46,-2420.27 4296.97,-2421.76 4298.29,-2423.31 4299.44,-2424.9 4300.4,-2426.55 4301.18,-2428.23 4301.77,-2429.96 4302.19,-2431.71 4302.43,-2433.49 4302.49,-2435.3 4302.38,-2437.12 4302.11,-2438.96 4301.68,-2440.8 4301.1,-2442.65 4300.37,-2444.49 4299.5,-2446.32 4298.49,-2448.15 4297.36,-2449.95 4296.11,-2451.73 4294.75,-2453.49 4293.29,-2455.21 4291.73,-2456.9 4290.08,-2458.54 4288.36,-2460.14 4286.55,-2461.69 4284.68,-2463.18 4282.75,-2464.61 4280.77,-2465.99 4278.74,-2467.29 4276.67,-2468.52 4274.55,-2469.69 4272.41,-2470.77 4270.24,-2471.78 4268.04,-2472.7 4265.82,-2473.54 4263.59,-2474.29 4261.34,-2474.95 4259.08,-2475.52 4256.81,-2476 4254.54,-2476.38 4252.25,-2476.67 4249.97,-2476.86 4247.68,-2476.96 4245.39,-2476.96 4243.1,-2476.86 4240.81,-2476.67 4238.53,-2476.38 4236.26,-2476 4233.99,-2475.52 4231.73,-2474.95 4229.48,-2474.29 4227.24,-2473.54 4225.03,-2472.7 4222.83,-2471.78 4220.66,-2470.77 4218.51,-2469.69 4216.4,-2468.52 4214.33,-2467.29 4212.3,-2465.99 4210.31,-2464.61 4208.38,-2463.18 4206.52,-2461.69 4204.71,-2460.14 4202.98,-2458.54 4201.34,-2456.9 4199.78,-2455.21 4198.31,-2453.49 4196.95,-2451.73 4195.71,-2449.95 4194.57,-2448.15 4193.57,-2446.32 4192.7,-2444.49 4191.97,-2442.65 4191.38,-2440.8 4190.95,-2438.96 4190.68,-2437.12 4190.58,-2435.3 4190.64,-2433.49 4190.88,-2431.71 4191.3,-2429.96 4191.89,-2428.23 4192.67,-2426.55 4193.63,-2424.9 4194.77,-2423.31 4196.1,-2421.76 4197.61,-2420.27 4199.3,-2418.83 4201.16,-2417.46 4203.19,-2416.15 4205.39,-2414.92 4207.74,-2413.76 4210.24,-2412.67 4212.89,-2411.67 4215.67,-2410.75 4218.57,-2409.91 4221.59,-2409.16 4224.71,-2408.5 4227.91,-2407.93 4231.19,-2407.45 4234.53,-2407.07 4237.93,-2406.78 4241.36,-2406.58 4244.81,-2406.49 4248.26,-2406.49 4251.71,-2406.58"/>
<text text-anchor="start" x="4217.37" y="-2451.52" font-family="Times,serif" font-size="14.00">C0393124</text>
<text text-anchor="start" x="4233.31" y="-2437.52" font-family="Times,serif" font-size="14.00">CSII</text>
<text text-anchor="start" x="4223.59" y="-2423.52" font-family="Times,serif" font-size="14.00">198:198</text>
</g>
<!-- id_27824066_DOT_17&#45;&#45;id_27824066_DOT_28 -->
<g id="edge11" class="edge">
<title>id_27824066_DOT_17&#45;&#45;id_27824066_DOT_28</title>
<path fill="none" stroke="black" d="M4549.9,-2527.19C4480.21,-2507.56 4359.94,-2473.67 4293.7,-2455.01"/>
<text text-anchor="middle" x="4395.55" y="-2493.9" font-family="Times,serif" font-size="14.00">0.080489</text>
</g>
<!-- id_27824066_DOT_19 -->
<g id="node19" class="node">
<title>id_27824066_DOT_19</title>
<polygon fill="darkgoldenrod" stroke="darkgoldenrod" points="63.66,-1777.14 67.22,-1777.33 70.74,-1777.62 74.21,-1778 77.62,-1778.48 80.95,-1779.05 84.18,-1779.71 87.31,-1780.46 90.32,-1781.3 93.21,-1782.22 95.96,-1783.23 98.56,-1784.31 101,-1785.47 103.28,-1786.71 105.39,-1788.01 107.32,-1789.38 109.07,-1790.82 110.64,-1792.31 112.01,-1793.86 113.2,-1795.46 114.2,-1797.1 115.01,-1798.79 115.62,-1800.51 116.06,-1802.26 116.3,-1804.05 116.37,-1805.85 116.26,-1807.67 115.98,-1809.51 115.53,-1811.35 114.93,-1813.2 114.17,-1815.04 113.26,-1816.88 112.22,-1818.7 111.05,-1820.5 109.75,-1822.29 108.34,-1824.04 106.82,-1825.76 105.2,-1827.45 103.49,-1829.09 101.7,-1830.69 99.83,-1832.24 97.89,-1833.73 95.88,-1835.17 93.83,-1836.54 91.72,-1837.84 89.56,-1839.08 87.37,-1840.24 85.15,-1841.32 82.89,-1842.33 80.61,-1843.25 78.31,-1844.09 75.99,-1844.84 73.66,-1845.5 71.31,-1846.07 68.96,-1846.55 66.6,-1846.93 64.23,-1847.22 61.85,-1847.41 59.48,-1847.51 57.1,-1847.51 54.73,-1847.41 52.35,-1847.22 49.98,-1846.93 47.62,-1846.55 45.26,-1846.07 42.92,-1845.5 40.59,-1844.84 38.27,-1844.09 35.97,-1843.25 33.69,-1842.33 31.43,-1841.32 29.21,-1840.24 27.01,-1839.08 24.86,-1837.84 22.75,-1836.54 20.69,-1835.17 18.69,-1833.73 16.75,-1832.24 14.88,-1830.69 13.09,-1829.09 11.38,-1827.45 9.76,-1825.76 8.24,-1824.04 6.83,-1822.29 5.53,-1820.5 4.36,-1818.7 3.32,-1816.88 2.41,-1815.04 1.65,-1813.2 1.05,-1811.35 0.6,-1809.51 0.32,-1807.67 0.21,-1805.85 0.28,-1804.05 0.52,-1802.26 0.95,-1800.51 1.57,-1798.79 2.38,-1797.1 3.38,-1795.46 4.57,-1793.86 5.94,-1792.31 7.51,-1790.82 9.26,-1789.38 11.19,-1788.01 13.3,-1786.71 15.58,-1785.47 18.02,-1784.31 20.62,-1783.23 23.37,-1782.22 26.26,-1781.3 29.27,-1780.46 32.4,-1779.71 35.63,-1779.05 38.96,-1778.48 42.36,-1778 45.84,-1777.62 49.36,-1777.33 52.92,-1777.14 56.5,-1777.04 60.08,-1777.04 63.66,-1777.14"/>
<text text-anchor="start" x="29.12" y="-1822.08" font-family="Times,serif" font-size="14.00">C0449381</text>
<text text-anchor="start" x="27.59" y="-1808.08" font-family="Times,serif" font-size="14.00">parameters</text>
<text text-anchor="start" x="35.34" y="-1794.08" font-family="Times,serif" font-size="14.00">133:133</text>
</g>
<!-- id_27824066_DOT_19&#45;&#45;id_27824066_DOT_27 -->
<g id="edge23" class="edge">
<title>id_27824066_DOT_19&#45;&#45;id_27824066_DOT_27</title>
<path fill="none" stroke="black" stroke-dasharray="1,5" d="M102.34,-1785.92C168.65,-1746.24 292.97,-1671.86 355.17,-1634.65"/>
<text text-anchor="middle" x="202.76" y="-1713.08" font-family="Times,serif" font-size="14.00">0.811765</text>
</g>
<!-- id_27824066_DOT_20&#45;&#45;id_27824066_DOT_23 -->
<g id="edge24" class="edge">
<title>id_27824066_DOT_20&#45;&#45;id_27824066_DOT_23</title>
<path fill="none" stroke="black" stroke-dasharray="1,5" d="M808.59,-749.67C855.35,-817.78 966.5,-979.67 1014.65,-1049.82"/>
<text text-anchor="middle" x="885.37" y="-902.54" font-family="Times,serif" font-size="14.00">0.897088</text>
</g>
<!-- id_27824066_DOT_21&#45;&#45;id_27824066_DOT_22 -->
<g id="edge25" class="edge">
<title>id_27824066_DOT_21&#45;&#45;id_27824066_DOT_22</title>
<path fill="none" stroke="black" stroke-dasharray="1,5" d="M1980.62,-1213.92C2037.16,-1269.06 2162.82,-1391.62 2221.68,-1449.02"/>
<text text-anchor="middle" x="2074.9" y="-1334.27" font-family="Times,serif" font-size="14.00">0.763944</text>
</g>
<!-- id_27824066_DOT_21&#45;&#45;id_27824066_DOT_24 -->
<g id="edge26" class="edge">
<title>id_27824066_DOT_21&#45;&#45;id_27824066_DOT_24</title>
<path fill="none" stroke="black" stroke-dasharray="1,5" d="M1975.88,-1152.88C2029.86,-1077.95 2160.8,-896.19 2214.33,-821.88"/>
<text text-anchor="middle" x="2068.86" y="-990.18" font-family="Times,serif" font-size="14.00">0.784632</text>
</g>
<!-- id_27824066_DOT_26 -->
<g id="node26" class="node">
<title>id_27824066_DOT_26</title>
<polygon fill="darkkhaki" stroke="darkkhaki" points="2008.32,-846.64 2013.76,-846.83 2019.14,-847.12 2024.44,-847.5 2029.64,-847.98 2034.72,-848.55 2039.67,-849.21 2044.45,-849.96 2049.05,-850.8 2053.46,-851.72 2057.66,-852.73 2061.63,-853.81 2065.36,-854.98 2068.85,-856.21 2072.07,-857.52 2075.02,-858.89 2077.7,-860.32 2080.09,-861.81 2082.19,-863.36 2084.01,-864.96 2085.53,-866.6 2086.77,-868.29 2087.71,-870.01 2088.37,-871.77 2088.75,-873.55 2088.85,-875.35 2088.68,-877.18 2088.25,-879.01 2087.57,-880.86 2086.64,-882.7 2085.49,-884.54 2084.1,-886.38 2082.51,-888.2 2080.72,-890.01 2078.74,-891.79 2076.58,-893.54 2074.26,-895.27 2071.79,-896.95 2069.17,-898.6 2066.43,-900.19 2063.57,-901.74 2060.61,-903.24 2057.55,-904.67 2054.4,-906.04 2051.18,-907.35 2047.89,-908.58 2044.54,-909.74 2041.14,-910.83 2037.7,-911.83 2034.22,-912.75 2030.7,-913.59 2027.16,-914.34 2023.59,-915 2020.01,-915.57 2016.41,-916.05 2012.8,-916.44 2009.18,-916.72 2005.55,-916.92 2001.92,-917.01 1998.29,-917.01 1994.66,-916.92 1991.04,-916.72 1987.42,-916.44 1983.8,-916.05 1980.21,-915.57 1976.62,-915 1973.06,-914.34 1969.51,-913.59 1966,-912.75 1962.51,-911.83 1959.07,-910.83 1955.67,-909.74 1952.32,-908.58 1949.03,-907.35 1945.81,-906.04 1942.66,-904.67 1939.6,-903.24 1936.64,-901.74 1933.78,-900.19 1931.04,-898.6 1928.43,-896.95 1925.95,-895.27 1923.63,-893.54 1921.48,-891.79 1919.5,-890.01 1917.7,-888.2 1916.11,-886.38 1914.73,-884.54 1913.57,-882.7 1912.64,-880.86 1911.96,-879.01 1911.53,-877.18 1911.36,-875.35 1911.46,-873.55 1911.84,-871.77 1912.5,-870.01 1913.45,-868.29 1914.68,-866.6 1916.2,-864.96 1918.02,-863.36 1920.12,-861.81 1922.52,-860.32 1925.19,-858.89 1928.14,-857.52 1931.37,-856.21 1934.85,-854.98 1938.58,-853.81 1942.55,-852.73 1946.75,-851.72 1951.16,-850.8 1955.77,-849.96 1960.55,-849.21 1965.49,-848.55 1970.57,-847.98 1975.77,-847.5 1981.08,-847.12 1986.46,-846.83 1991.89,-846.64 1997.37,-846.54 2002.85,-846.54 2008.32,-846.64"/>
<text text-anchor="start" x="1970.94" y="-891.58" font-family="Times,serif" font-size="14.00">C1553497</text>
<text text-anchor="start" x="1949.1" y="-877.58" font-family="Times,serif" font-size="14.00">&quot; virtual &quot; patients</text>
<text text-anchor="start" x="1977.16" y="-863.58" font-family="Times,serif" font-size="14.00">179:182</text>
</g>
<!-- id_27824066_DOT_21&#45;&#45;id_27824066_DOT_26 -->
<g id="edge27" class="edge">
<title>id_27824066_DOT_21&#45;&#45;id_27824066_DOT_26</title>
<path fill="none" stroke="black" stroke-dasharray="1,5" d="M1957.57,-1150.82C1966.82,-1092.32 1985.25,-975.73 1994.52,-917.13"/>
<text text-anchor="middle" x="1949.8" y="-1036.77" font-family="Times,serif" font-size="14.00">0.861202</text>
</g>
<!-- id_27824066_DOT_25&#45;&#45;id_27824066_DOT_28 -->
<g id="edge12" class="edge">
<title>id_27824066_DOT_25&#45;&#45;id_27824066_DOT_28</title>
<path fill="none" stroke="black" d="M3921.16,-2399C3991.84,-2408.28 4117.64,-2424.8 4190.37,-2434.35"/>
<text text-anchor="middle" x="4029.52" y="-2419.47" font-family="Times,serif" font-size="14.00">0.004657</text>
</g>
</g>
</svg>
