<?xml version="1.0" encoding="UTF-8" standalone="no"?>
<!DOCTYPE svg PUBLIC "-//W3C//DTD SVG 1.1//EN"
 "http://www.w3.org/Graphics/SVG/1.1/DTD/svg11.dtd">
<!-- Generated by graphviz version 2.42.3 (20191010.1750)
 -->
<!-- Title: MST Pages: 1 -->
<svg width="5380pt" height="2975pt"
 viewBox="0.00 0.00 5379.93 2975.29" xmlns="http://www.w3.org/2000/svg" xmlns:xlink="http://www.w3.org/1999/xlink">
<g id="graph0" class="graph" transform="scale(1 1) rotate(0) translate(4 2971.29)">
<title>MST</title>
<polygon fill="white" stroke="transparent" points="-4,4 -4,-2971.29 5375.93,-2971.29 5375.93,4 -4,4"/>
<!-- id_27849409_DOT_1 -->
<g id="node1" class="node">
<title>id_27849409_DOT_1</title>
<polygon fill="aquamarine" stroke="aquamarine" points="767.11,-1306.44 770.54,-1306.63 773.93,-1306.92 777.27,-1307.3 780.55,-1307.78 783.76,-1308.35 786.87,-1309.01 789.89,-1309.76 792.79,-1310.6 795.57,-1311.52 798.22,-1312.53 800.72,-1313.61 803.08,-1314.77 805.27,-1316.01 807.3,-1317.31 809.17,-1318.68 810.85,-1320.12 812.36,-1321.61 813.69,-1323.16 814.83,-1324.76 815.79,-1326.4 816.57,-1328.09 817.17,-1329.81 817.58,-1331.57 817.82,-1333.35 817.89,-1335.15 817.78,-1336.98 817.51,-1338.81 817.08,-1340.65 816.5,-1342.5 815.76,-1344.34 814.89,-1346.18 813.89,-1348 812.76,-1349.8 811.51,-1351.59 810.15,-1353.34 808.69,-1355.06 807.13,-1356.75 805.48,-1358.39 803.75,-1359.99 801.95,-1361.54 800.08,-1363.03 798.15,-1364.47 796.17,-1365.84 794.13,-1367.14 792.06,-1368.38 789.95,-1369.54 787.81,-1370.62 785.63,-1371.63 783.44,-1372.55 781.22,-1373.39 778.99,-1374.14 776.74,-1374.8 774.48,-1375.37 772.21,-1375.85 769.93,-1376.23 767.65,-1376.52 765.36,-1376.71 763.07,-1376.81 760.78,-1376.81 758.5,-1376.71 756.21,-1376.52 753.93,-1376.23 751.65,-1375.85 749.38,-1375.37 747.12,-1374.8 744.87,-1374.14 742.64,-1373.39 740.42,-1372.55 738.23,-1371.63 736.05,-1370.62 733.91,-1369.54 731.8,-1368.38 729.72,-1367.14 727.69,-1365.84 725.71,-1364.47 723.78,-1363.03 721.91,-1361.54 720.11,-1359.99 718.38,-1358.39 716.73,-1356.75 715.17,-1355.06 713.71,-1353.34 712.35,-1351.59 711.1,-1349.8 709.97,-1348 708.97,-1346.18 708.09,-1344.34 707.36,-1342.5 706.78,-1340.65 706.35,-1338.81 706.08,-1336.98 705.97,-1335.15 706.04,-1333.35 706.27,-1331.57 706.69,-1329.81 707.29,-1328.09 708.06,-1326.4 709.03,-1324.76 710.17,-1323.16 711.5,-1321.61 713.01,-1320.12 714.69,-1318.68 716.55,-1317.31 718.59,-1316.01 720.78,-1314.77 723.14,-1313.61 725.64,-1312.53 728.29,-1311.52 731.07,-1310.6 733.97,-1309.76 736.99,-1309.01 740.1,-1308.35 743.31,-1307.78 746.59,-1307.3 749.93,-1306.92 753.32,-1306.63 756.75,-1306.44 760.2,-1306.34 763.66,-1306.34 767.11,-1306.44"/>
<text text-anchor="start" x="732.76" y="-1351.38" font-family="Times,serif" font-size="14.00">C0449738</text>
<text text-anchor="start" x="735.49" y="-1337.38" font-family="Times,serif" font-size="14.00">Direction</text>
<text text-anchor="start" x="752.98" y="-1323.38" font-family="Times,serif" font-size="14.00">2:2</text>
</g>
<!-- id_27849409_DOT_18 -->
<g id="node18" class="node">
<title>id_27849409_DOT_18</title>
<polygon fill="aquamarine" stroke="aquamarine" points="1147.23,-1311.82 1150.66,-1312.01 1154.05,-1312.3 1157.39,-1312.68 1160.67,-1313.16 1163.88,-1313.73 1166.99,-1314.39 1170.01,-1315.14 1172.91,-1315.98 1175.69,-1316.9 1178.34,-1317.91 1180.84,-1318.99 1183.2,-1320.15 1185.39,-1321.39 1187.43,-1322.69 1189.29,-1324.06 1190.97,-1325.5 1192.48,-1326.99 1193.81,-1328.54 1194.95,-1330.14 1195.91,-1331.78 1196.69,-1333.47 1197.29,-1335.19 1197.7,-1336.95 1197.94,-1338.73 1198.01,-1340.53 1197.9,-1342.36 1197.63,-1344.19 1197.2,-1346.03 1196.62,-1347.88 1195.88,-1349.72 1195.01,-1351.56 1194.01,-1353.38 1192.88,-1355.18 1191.63,-1356.97 1190.27,-1358.72 1188.81,-1360.44 1187.25,-1362.13 1185.6,-1363.77 1183.87,-1365.37 1182.07,-1366.92 1180.2,-1368.41 1178.27,-1369.85 1176.29,-1371.22 1174.25,-1372.52 1172.18,-1373.76 1170.07,-1374.92 1167.93,-1376 1165.75,-1377.01 1163.56,-1377.93 1161.34,-1378.77 1159.11,-1379.52 1156.86,-1380.18 1154.6,-1380.75 1152.33,-1381.23 1150.05,-1381.61 1147.77,-1381.9 1145.48,-1382.1 1143.19,-1382.19 1140.9,-1382.19 1138.62,-1382.1 1136.33,-1381.9 1134.05,-1381.61 1131.77,-1381.23 1129.5,-1380.75 1127.24,-1380.18 1124.99,-1379.52 1122.76,-1378.77 1120.54,-1377.93 1118.35,-1377.01 1116.17,-1376 1114.03,-1374.92 1111.92,-1373.76 1109.84,-1372.52 1107.81,-1371.22 1105.83,-1369.85 1103.9,-1368.41 1102.03,-1366.92 1100.23,-1365.37 1098.5,-1363.77 1096.85,-1362.13 1095.29,-1360.44 1093.83,-1358.72 1092.47,-1356.97 1091.22,-1355.18 1090.09,-1353.38 1089.09,-1351.56 1088.21,-1349.72 1087.48,-1347.88 1086.9,-1346.03 1086.47,-1344.19 1086.2,-1342.36 1086.09,-1340.53 1086.16,-1338.73 1086.4,-1336.95 1086.81,-1335.19 1087.41,-1333.47 1088.18,-1331.78 1089.15,-1330.14 1090.29,-1328.54 1091.62,-1326.99 1093.13,-1325.5 1094.81,-1324.06 1096.67,-1322.69 1098.71,-1321.39 1100.9,-1320.15 1103.26,-1318.99 1105.76,-1317.91 1108.41,-1316.9 1111.19,-1315.98 1114.09,-1315.14 1117.11,-1314.39 1120.22,-1313.73 1123.43,-1313.16 1126.71,-1312.68 1130.05,-1312.3 1133.44,-1312.01 1136.87,-1311.82 1140.32,-1311.72 1143.78,-1311.72 1147.23,-1311.82"/>
<text text-anchor="start" x="1112.88" y="-1356.76" font-family="Times,serif" font-size="14.00">C0449738</text>
<text text-anchor="start" x="1117.17" y="-1342.76" font-family="Times,serif" font-size="14.00">direction</text>
<text text-anchor="start" x="1119.1" y="-1328.76" font-family="Times,serif" font-size="14.00">160:160</text>
</g>
<!-- id_27849409_DOT_1&#45;&#45;id_27849409_DOT_18 -->
<g id="edge1" class="edge">
<title>id_27849409_DOT_1&#45;&#45;id_27849409_DOT_18</title>
<path fill="none" stroke="black" d="M816.8,-1342.35C888.86,-1343.37 1014.68,-1345.15 1086.89,-1346.18"/>
<text text-anchor="middle" x="925.85" y="-1347.06" font-family="Times,serif" font-size="14.00">0.021122</text>
</g>
<!-- id_27849409_DOT_2 -->
<g id="node2" class="node">
<title>id_27849409_DOT_2</title>
<polygon fill="bisque" stroke="bisque" points="5291.64,-238.67 5297.06,-238.86 5302.42,-239.15 5307.71,-239.53 5312.89,-240.01 5317.96,-240.58 5322.88,-241.24 5327.65,-241.99 5332.24,-242.83 5336.63,-243.75 5340.82,-244.76 5344.78,-245.84 5348.5,-247 5351.97,-248.24 5355.18,-249.54 5358.12,-250.91 5360.79,-252.35 5363.17,-253.84 5365.27,-255.39 5367.08,-256.99 5368.6,-258.63 5369.83,-260.32 5370.77,-262.04 5371.43,-263.79 5371.8,-265.58 5371.9,-267.38 5371.74,-269.2 5371.31,-271.04 5370.63,-272.88 5369.71,-274.73 5368.55,-276.57 5367.17,-278.41 5365.59,-280.23 5363.8,-282.03 5361.82,-283.82 5359.67,-285.57 5357.36,-287.29 5354.9,-288.98 5352.29,-290.62 5349.56,-292.22 5346.71,-293.77 5343.76,-295.26 5340.71,-296.7 5337.57,-298.07 5334.36,-299.37 5331.08,-300.61 5327.74,-301.77 5324.36,-302.85 5320.92,-303.86 5317.45,-304.78 5313.95,-305.62 5310.42,-306.37 5306.86,-307.03 5303.29,-307.6 5299.7,-308.08 5296.1,-308.46 5292.49,-308.75 5288.88,-308.94 5285.26,-309.04 5281.64,-309.04 5278.03,-308.94 5274.41,-308.75 5270.81,-308.46 5267.21,-308.08 5263.62,-307.6 5260.05,-307.03 5256.49,-306.37 5252.96,-305.62 5249.46,-304.78 5245.98,-303.86 5242.55,-302.85 5239.16,-301.77 5235.83,-300.61 5232.55,-299.37 5229.34,-298.07 5226.2,-296.7 5223.15,-295.26 5220.2,-293.77 5217.35,-292.22 5214.62,-290.62 5212.01,-288.98 5209.55,-287.29 5207.23,-285.57 5205.08,-283.82 5203.11,-282.03 5201.32,-280.23 5199.73,-278.41 5198.36,-276.57 5197.2,-274.73 5196.28,-272.88 5195.6,-271.04 5195.17,-269.2 5195,-267.38 5195.1,-265.58 5195.48,-263.79 5196.14,-262.04 5197.08,-260.32 5198.31,-258.63 5199.83,-256.99 5201.64,-255.39 5203.74,-253.84 5206.12,-252.35 5208.79,-250.91 5211.73,-249.54 5214.94,-248.24 5218.41,-247 5222.13,-245.84 5226.09,-244.76 5230.28,-243.75 5234.67,-242.83 5239.26,-241.99 5244.02,-241.24 5248.95,-240.58 5254.02,-240.01 5259.2,-239.53 5264.49,-239.15 5269.85,-238.86 5275.27,-238.67 5280.72,-238.57 5286.19,-238.57 5291.64,-238.67"/>
<text text-anchor="start" x="5254.28" y="-283.6" font-family="Times,serif" font-size="14.00">C0549393</text>
<text text-anchor="start" x="5232.71" y="-269.6" font-family="Times,serif" font-size="14.00">Alcohol Problems</text>
<text text-anchor="start" x="5274.51" y="-255.6" font-family="Times,serif" font-size="14.00">6:7</text>
</g>
<!-- id_27849409_DOT_5 -->
<g id="node5" class="node">
<title>id_27849409_DOT_5</title>
<polygon fill="bisque" stroke="bisque" points="5001.01,-471.86 5006.39,-472.05 5011.71,-472.34 5016.95,-472.73 5022.1,-473.2 5027.12,-473.78 5032.01,-474.44 5036.74,-475.19 5041.29,-476.02 5045.65,-476.95 5049.81,-477.95 5053.73,-479.04 5057.43,-480.2 5060.87,-481.43 5064.06,-482.74 5066.98,-484.11 5069.62,-485.54 5071.99,-487.04 5074.07,-488.58 5075.87,-490.18 5077.37,-491.83 5078.59,-493.51 5079.53,-495.23 5080.18,-496.99 5080.55,-498.77 5080.65,-500.58 5080.49,-502.4 5080.06,-504.24 5079.39,-506.08 5078.47,-507.92 5077.33,-509.77 5075.96,-511.6 5074.38,-513.42 5072.61,-515.23 5070.65,-517.01 5068.52,-518.77 5066.22,-520.49 5063.78,-522.18 5061.19,-523.82 5058.48,-525.42 5055.66,-526.97 5052.72,-528.46 5049.7,-529.89 5046.59,-531.26 5043.4,-532.57 5040.15,-533.8 5036.84,-534.96 5033.47,-536.05 5030.07,-537.05 5026.62,-537.98 5023.14,-538.81 5019.64,-539.57 5016.11,-540.23 5012.57,-540.8 5009.01,-541.27 5005.44,-541.66 5001.86,-541.95 4998.27,-542.14 4994.68,-542.24 4991.09,-542.24 4987.5,-542.14 4983.92,-541.95 4980.34,-541.66 4976.77,-541.27 4973.21,-540.8 4969.66,-540.23 4966.13,-539.57 4962.63,-538.81 4959.15,-537.98 4955.71,-537.05 4952.3,-536.05 4948.94,-534.96 4945.63,-533.8 4942.37,-532.57 4939.19,-531.26 4936.08,-529.89 4933.05,-528.46 4930.12,-526.97 4927.29,-525.42 4924.58,-523.82 4922,-522.18 4919.55,-520.49 4917.26,-518.77 4915.12,-517.01 4913.16,-515.23 4911.39,-513.42 4909.81,-511.6 4908.45,-509.77 4907.3,-507.92 4906.39,-506.08 4905.71,-504.24 4905.29,-502.4 4905.12,-500.58 4905.22,-498.77 4905.59,-496.99 4906.25,-495.23 4907.18,-493.51 4908.4,-491.83 4909.91,-490.18 4911.7,-488.58 4913.79,-487.04 4916.15,-485.54 4918.8,-484.11 4921.72,-482.74 4924.9,-481.43 4928.35,-480.2 4932.04,-479.04 4935.97,-477.95 4940.12,-476.95 4944.48,-476.02 4949.03,-475.19 4953.76,-474.44 4958.65,-473.78 4963.68,-473.2 4968.82,-472.73 4974.07,-472.34 4979.39,-472.05 4984.77,-471.86 4990.18,-471.77 4995.6,-471.77 5001.01,-471.86"/>
<text text-anchor="start" x="4963.72" y="-516.8" font-family="Times,serif" font-size="14.00">C0549393</text>
<text text-anchor="start" x="4942.53" y="-502.8" font-family="Times,serif" font-size="14.00">Alcohol problems</text>
<text text-anchor="start" x="4976.94" y="-488.8" font-family="Times,serif" font-size="14.00">18:19</text>
</g>
<!-- id_27849409_DOT_2&#45;&#45;id_27849409_DOT_5 -->
<g id="edge2" class="edge">
<title>id_27849409_DOT_2&#45;&#45;id_27849409_DOT_5</title>
<path fill="none" stroke="black" d="M5245.77,-304.05C5190.95,-348.05 5089.63,-429.36 5033.31,-474.56"/>
<text text-anchor="middle" x="5113.8" y="-392.11" font-family="Times,serif" font-size="14.00">0.011162</text>
</g>
<!-- id_27849409_DOT_3 -->
<g id="node3" class="node">
<title>id_27849409_DOT_3</title>
<polygon fill="blue" stroke="blue" points="309.56,-0.23 315.72,-0.42 321.82,-0.71 327.83,-1.09 333.72,-1.57 339.48,-2.14 345.08,-2.8 350.5,-3.55 355.71,-4.39 360.71,-5.31 365.46,-6.32 369.96,-7.4 374.19,-8.57 378.14,-9.8 381.79,-11.1 385.13,-12.48 388.16,-13.91 390.87,-15.4 393.26,-16.95 395.31,-18.55 397.04,-20.19 398.44,-21.88 399.51,-23.6 400.25,-25.36 400.68,-27.14 400.8,-28.94 400.61,-30.77 400.12,-32.6 399.35,-34.44 398.3,-36.29 396.99,-38.13 395.42,-39.97 393.62,-41.79 391.58,-43.6 389.34,-45.38 386.9,-47.13 384.27,-48.86 381.47,-50.54 378.51,-52.19 375.4,-53.78 372.16,-55.33 368.8,-56.82 365.34,-58.26 361.77,-59.63 358.12,-60.94 354.4,-62.17 350.6,-63.33 346.75,-64.42 342.85,-65.42 338.9,-66.34 334.92,-67.18 330.91,-67.93 326.87,-68.59 322.81,-69.16 318.73,-69.64 314.64,-70.02 310.54,-70.31 306.43,-70.51 302.32,-70.6 298.21,-70.6 294.09,-70.51 289.99,-70.31 285.88,-70.02 281.79,-69.64 277.72,-69.16 273.66,-68.59 269.62,-67.93 265.6,-67.18 261.62,-66.34 257.67,-65.42 253.77,-64.42 249.92,-63.33 246.13,-62.17 242.4,-60.94 238.75,-59.63 235.19,-58.26 231.72,-56.82 228.36,-55.33 225.12,-53.78 222.02,-52.19 219.06,-50.54 216.26,-48.86 213.63,-47.13 211.18,-45.38 208.94,-43.6 206.91,-41.79 205.1,-39.97 203.54,-38.13 202.22,-36.29 201.18,-34.44 200.4,-32.6 199.92,-30.77 199.73,-28.94 199.84,-27.14 200.27,-25.36 201.02,-23.6 202.09,-21.88 203.48,-20.19 205.21,-18.55 207.27,-16.95 209.65,-15.4 212.36,-13.91 215.39,-12.48 218.74,-11.1 222.39,-9.8 226.33,-8.57 230.56,-7.4 235.06,-6.32 239.82,-5.31 244.81,-4.39 250.03,-3.55 255.45,-2.8 261.04,-2.14 266.8,-1.57 272.7,-1.09 278.7,-0.71 284.8,-0.42 290.96,-0.23 297.16,-0.13 303.37,-0.13 309.56,-0.23"/>
<text text-anchor="start" x="271.09" y="-45.17" font-family="Times,serif" font-size="14.00">C0023981</text>
<text text-anchor="start" x="241.35" y="-31.17" font-family="Times,serif" font-size="14.00">Longitudinal Sample</text>
<text text-anchor="start" x="284.32" y="-17.17" font-family="Times,serif" font-size="14.00">13:14</text>
</g>
<!-- id_27849409_DOT_11 -->
<g id="node11" class="node">
<title>id_27849409_DOT_11</title>
<polygon fill="blue" stroke="blue" points="554.22,-281.27 559.64,-281.46 565,-281.75 570.29,-282.13 575.47,-282.61 580.54,-283.18 585.47,-283.84 590.23,-284.59 594.82,-285.43 599.22,-286.35 603.4,-287.36 607.36,-288.44 611.08,-289.61 614.55,-290.84 617.77,-292.14 620.71,-293.52 623.38,-294.95 625.76,-296.44 627.86,-297.99 629.67,-299.59 631.19,-301.23 632.42,-302.92 633.36,-304.64 634.02,-306.4 634.39,-308.18 634.49,-309.98 634.33,-311.81 633.9,-313.64 633.22,-315.49 632.3,-317.33 631.14,-319.17 629.76,-321.01 628.17,-322.83 626.39,-324.64 624.41,-326.42 622.26,-328.17 619.95,-329.9 617.48,-331.58 614.88,-333.23 612.15,-334.82 609.3,-336.37 606.34,-337.87 603.29,-339.3 600.16,-340.67 596.95,-341.98 593.67,-343.21 590.33,-344.37 586.94,-345.46 583.51,-346.46 580.03,-347.38 576.53,-348.22 573,-348.97 569.44,-349.63 565.87,-350.2 562.28,-350.68 558.68,-351.07 555.07,-351.35 551.46,-351.55 547.84,-351.64 544.22,-351.64 540.61,-351.55 536.99,-351.35 533.38,-351.07 529.78,-350.68 526.2,-350.2 522.62,-349.63 519.07,-348.97 515.54,-348.22 512.03,-347.38 508.56,-346.46 505.13,-345.46 501.74,-344.37 498.4,-343.21 495.12,-341.98 491.91,-340.67 488.77,-339.3 485.72,-337.87 482.77,-336.37 479.92,-334.82 477.19,-333.23 474.58,-331.58 472.12,-329.9 469.8,-328.17 467.65,-326.42 465.68,-324.64 463.89,-322.83 462.3,-321.01 460.93,-319.17 459.77,-317.33 458.85,-315.49 458.17,-313.64 457.74,-311.81 457.57,-309.98 457.67,-308.18 458.05,-306.4 458.71,-304.64 459.65,-302.92 460.88,-301.23 462.4,-299.59 464.21,-297.99 466.31,-296.44 468.69,-294.95 471.36,-293.52 474.3,-292.14 477.51,-290.84 480.98,-289.61 484.7,-288.44 488.66,-287.36 492.85,-286.35 497.24,-285.43 501.83,-284.59 506.6,-283.84 511.53,-283.18 516.59,-282.61 521.78,-282.13 527.06,-281.75 532.43,-281.46 537.85,-281.27 543.3,-281.17 548.77,-281.17 554.22,-281.27"/>
<text text-anchor="start" x="516.86" y="-326.21" font-family="Times,serif" font-size="14.00">C0023981</text>
<text text-anchor="start" x="495.28" y="-312.21" font-family="Times,serif" font-size="14.00">longitudinal study</text>
<text text-anchor="start" x="530.09" y="-298.21" font-family="Times,serif" font-size="14.00">80:81</text>
</g>
<!-- id_27849409_DOT_3&#45;&#45;id_27849409_DOT_11 -->
<g id="edge3" class="edge">
<title>id_27849409_DOT_3&#45;&#45;id_27849409_DOT_11</title>
<path fill="none" stroke="black" d="M329.18,-68.43C376.25,-122.26 468.97,-228.28 516.46,-282.59"/>
<text text-anchor="middle" x="396.57" y="-178.31" font-family="Times,serif" font-size="14.00">0.045199</text>
</g>
<!-- id_27849409_DOT_4 -->
<g id="node4" class="node">
<title>id_27849409_DOT_4</title>
<polygon fill="blueviolet" stroke="blueviolet" points="91.53,-2470.58 96.65,-2470.77 101.71,-2471.06 106.71,-2471.44 111.61,-2471.92 116.4,-2472.49 121.05,-2473.15 125.55,-2473.9 129.89,-2474.74 134.04,-2475.66 138,-2476.67 141.74,-2477.75 145.25,-2478.92 148.53,-2480.15 151.57,-2481.45 154.35,-2482.83 156.87,-2484.26 159.12,-2485.75 161.1,-2487.3 162.81,-2488.9 164.25,-2490.54 165.41,-2492.23 166.3,-2493.95 166.92,-2495.71 167.28,-2497.49 167.37,-2499.29 167.22,-2501.12 166.81,-2502.95 166.17,-2504.79 165.3,-2506.64 164.2,-2508.48 162.9,-2510.32 161.4,-2512.14 159.71,-2513.95 157.85,-2515.73 155.82,-2517.48 153.63,-2519.21 151.3,-2520.89 148.84,-2522.54 146.26,-2524.13 143.57,-2525.68 140.78,-2527.17 137.89,-2528.61 134.93,-2529.98 131.9,-2531.29 128.8,-2532.52 125.64,-2533.68 122.44,-2534.77 119.2,-2535.77 115.92,-2536.69 112.61,-2537.53 109.27,-2538.28 105.91,-2538.94 102.53,-2539.51 99.14,-2539.99 95.74,-2540.37 92.33,-2540.66 88.92,-2540.86 85.5,-2540.95 82.08,-2540.95 78.66,-2540.86 75.25,-2540.66 71.84,-2540.37 68.44,-2539.99 65.05,-2539.51 61.67,-2538.94 58.31,-2538.28 54.98,-2537.53 51.66,-2536.69 48.38,-2535.77 45.14,-2534.77 41.94,-2533.68 38.78,-2532.52 35.69,-2531.29 32.65,-2529.98 29.69,-2528.61 26.81,-2527.17 24.01,-2525.68 21.32,-2524.13 18.74,-2522.54 16.28,-2520.89 13.95,-2519.21 11.77,-2517.48 9.73,-2515.73 7.87,-2513.95 6.18,-2512.14 4.68,-2510.32 3.38,-2508.48 2.29,-2506.64 1.41,-2504.79 0.77,-2502.95 0.37,-2501.12 0.21,-2499.29 0.3,-2497.49 0.66,-2495.71 1.28,-2493.95 2.17,-2492.23 3.33,-2490.54 4.77,-2488.9 6.48,-2487.3 8.46,-2485.75 10.71,-2484.26 13.23,-2482.83 16.01,-2481.45 19.05,-2480.15 22.33,-2478.92 25.84,-2477.75 29.59,-2476.67 33.54,-2475.66 37.69,-2474.74 42.03,-2473.9 46.53,-2473.15 51.19,-2472.49 55.97,-2471.92 60.87,-2471.44 65.87,-2471.06 70.94,-2470.77 76.06,-2470.58 81.21,-2470.48 86.37,-2470.48 91.53,-2470.58"/>
<text text-anchor="start" x="54.62" y="-2515.52" font-family="Times,serif" font-size="14.00">C0682177</text>
<text text-anchor="start" x="36.15" y="-2501.52" font-family="Times,serif" font-size="14.00">College Students</text>
<text text-anchor="start" x="67.85" y="-2487.52" font-family="Times,serif" font-size="14.00">16:17</text>
</g>
<!-- id_27849409_DOT_10 -->
<g id="node10" class="node">
<title>id_27849409_DOT_10</title>
<polygon fill="blueviolet" stroke="blueviolet" points="434.68,-2284.12 439.57,-2284.32 444.41,-2284.61 449.19,-2284.99 453.87,-2285.47 458.44,-2286.04 462.89,-2286.7 467.19,-2287.45 471.33,-2288.29 475.3,-2289.21 479.08,-2290.21 482.65,-2291.3 486.01,-2292.46 489.15,-2293.7 492.05,-2295 494.7,-2296.37 497.11,-2297.81 499.26,-2299.3 501.16,-2300.85 502.79,-2302.44 504.16,-2304.09 505.27,-2305.77 506.12,-2307.5 506.71,-2309.25 507.05,-2311.03 507.15,-2312.84 507,-2314.66 506.61,-2316.5 505.99,-2318.34 505.16,-2320.19 504.12,-2322.03 502.88,-2323.86 501.44,-2325.69 499.83,-2327.49 498.05,-2329.27 496.1,-2331.03 494.02,-2332.75 491.79,-2334.44 489.44,-2336.08 486.97,-2337.68 484.4,-2339.23 481.73,-2340.72 478.98,-2342.15 476.15,-2343.53 473.25,-2344.83 470.29,-2346.07 467.28,-2347.23 464.22,-2348.31 461.12,-2349.32 457.98,-2350.24 454.82,-2351.08 451.63,-2351.83 448.42,-2352.49 445.2,-2353.06 441.96,-2353.54 438.71,-2353.92 435.45,-2354.21 432.19,-2354.4 428.92,-2354.5 425.66,-2354.5 422.39,-2354.4 419.13,-2354.21 415.87,-2353.92 412.62,-2353.54 409.38,-2353.06 406.16,-2352.49 402.95,-2351.83 399.76,-2351.08 396.6,-2350.24 393.46,-2349.32 390.36,-2348.31 387.3,-2347.23 384.29,-2346.07 381.33,-2344.83 378.43,-2343.53 375.6,-2342.15 372.85,-2340.72 370.18,-2339.23 367.61,-2337.68 365.14,-2336.08 362.79,-2334.44 360.56,-2332.75 358.48,-2331.03 356.53,-2329.27 354.75,-2327.49 353.14,-2325.69 351.7,-2323.86 350.46,-2322.03 349.42,-2320.19 348.58,-2318.34 347.97,-2316.5 347.58,-2314.66 347.43,-2312.84 347.53,-2311.03 347.86,-2309.25 348.46,-2307.5 349.31,-2305.77 350.42,-2304.09 351.79,-2302.44 353.42,-2300.85 355.32,-2299.3 357.47,-2297.81 359.88,-2296.37 362.53,-2295 365.43,-2293.7 368.57,-2292.46 371.93,-2291.3 375.5,-2290.21 379.28,-2289.21 383.25,-2288.29 387.39,-2287.45 391.69,-2286.7 396.14,-2286.04 400.71,-2285.47 405.39,-2284.99 410.17,-2284.61 415.01,-2284.32 419.9,-2284.12 424.82,-2284.03 429.76,-2284.03 434.68,-2284.12"/>
<text text-anchor="start" x="398.12" y="-2329.06" font-family="Times,serif" font-size="14.00">C0682177</text>
<text text-anchor="start" x="382.38" y="-2315.06" font-family="Times,serif" font-size="14.00">college students</text>
<text text-anchor="start" x="411.35" y="-2301.06" font-family="Times,serif" font-size="14.00">71:72</text>
</g>
<!-- id_27849409_DOT_4&#45;&#45;id_27849409_DOT_10 -->
<g id="edge4" class="edge">
<title>id_27849409_DOT_4&#45;&#45;id_27849409_DOT_10</title>
<path fill="none" stroke="black" d="M137.84,-2476.38C204.63,-2440.13 317.17,-2379.04 380.45,-2344.69"/>
<text text-anchor="middle" x="232.89" y="-2413.33" font-family="Times,serif" font-size="14.00">0.007410</text>
</g>
<!-- id_27849409_DOT_8 -->
<g id="node8" class="node">
<title>id_27849409_DOT_8</title>
<polygon fill="bisque" stroke="bisque" points="4753.02,-764.91 4758.22,-765.1 4763.37,-765.39 4768.44,-765.77 4773.42,-766.25 4778.28,-766.82 4783.01,-767.48 4787.58,-768.23 4791.99,-769.07 4796.21,-769.99 4800.22,-771 4804.02,-772.08 4807.59,-773.24 4810.93,-774.48 4814.01,-775.78 4816.83,-777.16 4819.39,-778.59 4821.68,-780.08 4823.69,-781.63 4825.43,-783.23 4826.89,-784.87 4828.07,-786.56 4828.97,-788.28 4829.6,-790.04 4829.96,-791.82 4830.06,-793.62 4829.9,-795.45 4829.49,-797.28 4828.84,-799.12 4827.95,-800.97 4826.84,-802.81 4825.52,-804.65 4824,-806.47 4822.28,-808.28 4820.39,-810.06 4818.32,-811.81 4816.1,-813.54 4813.74,-815.22 4811.24,-816.87 4808.61,-818.46 4805.88,-820.01 4803.04,-821.5 4800.12,-822.94 4797.11,-824.31 4794.03,-825.61 4790.88,-826.85 4787.68,-828.01 4784.42,-829.1 4781.13,-830.1 4777.79,-831.02 4774.43,-831.86 4771.04,-832.61 4767.63,-833.27 4764.2,-833.84 4760.76,-834.32 4757.3,-834.7 4753.84,-834.99 4750.37,-835.19 4746.9,-835.28 4743.43,-835.28 4739.95,-835.19 4736.49,-834.99 4733.02,-834.7 4729.57,-834.32 4726.12,-833.84 4722.7,-833.27 4719.28,-832.61 4715.89,-831.86 4712.53,-831.02 4709.2,-830.1 4705.9,-829.1 4702.65,-828.01 4699.45,-826.85 4696.3,-825.61 4693.22,-824.31 4690.21,-822.94 4687.28,-821.5 4684.45,-820.01 4681.71,-818.46 4679.09,-816.87 4676.59,-815.22 4674.22,-813.54 4672,-811.81 4669.94,-810.06 4668.04,-808.28 4666.33,-806.47 4664.81,-804.65 4663.48,-802.81 4662.37,-800.97 4661.49,-799.12 4660.84,-797.28 4660.43,-795.45 4660.26,-793.62 4660.36,-791.82 4660.72,-790.04 4661.35,-788.28 4662.26,-786.56 4663.44,-784.87 4664.9,-783.23 4666.63,-781.63 4668.65,-780.08 4670.94,-778.59 4673.49,-777.16 4676.32,-775.78 4679.4,-774.48 4682.73,-773.24 4686.3,-772.08 4690.1,-771 4694.12,-769.99 4698.34,-769.07 4702.74,-768.23 4707.32,-767.48 4712.05,-766.82 4716.91,-766.25 4721.88,-765.77 4726.96,-765.39 4732.11,-765.1 4737.31,-764.91 4742.54,-764.81 4747.79,-764.81 4753.02,-764.91"/>
<text text-anchor="start" x="4715.99" y="-809.85" font-family="Times,serif" font-size="14.00">C0549393</text>
<text text-anchor="start" x="4696.76" y="-795.85" font-family="Times,serif" font-size="14.00">alcohol problems</text>
<text text-anchor="start" x="4729.22" y="-781.85" font-family="Times,serif" font-size="14.00">52:53</text>
</g>
<!-- id_27849409_DOT_5&#45;&#45;id_27849409_DOT_8 -->
<g id="edge5" class="edge">
<title>id_27849409_DOT_5&#45;&#45;id_27849409_DOT_8</title>
<path fill="none" stroke="black" d="M4965.43,-539.48C4918.19,-595.36 4821.99,-709.17 4773.89,-766.07"/>
<text text-anchor="middle" x="4843.41" y="-655.57" font-family="Times,serif" font-size="14.00">0.013647</text>
</g>
<!-- id_27849409_DOT_6 -->
<g id="node6" class="node">
<title>id_27849409_DOT_6</title>
<polygon fill="brown" stroke="brown" points="915.48,-2828.28 918.91,-2828.47 922.3,-2828.76 925.64,-2829.14 928.92,-2829.62 932.13,-2830.19 935.25,-2830.85 938.26,-2831.6 941.16,-2832.44 943.94,-2833.37 946.59,-2834.37 949.1,-2835.45 951.45,-2836.62 953.65,-2837.85 955.68,-2839.16 957.54,-2840.53 959.22,-2841.96 960.73,-2843.45 962.06,-2845 963.21,-2846.6 964.17,-2848.24 964.94,-2849.93 965.54,-2851.65 965.96,-2853.41 966.19,-2855.19 966.26,-2857 966.15,-2858.82 965.88,-2860.65 965.45,-2862.5 964.87,-2864.34 964.14,-2866.18 963.27,-2868.02 962.26,-2869.84 961.13,-2871.65 959.88,-2873.43 958.52,-2875.18 957.06,-2876.91 955.5,-2878.59 953.85,-2880.24 952.12,-2881.84 950.32,-2883.38 948.45,-2884.88 946.52,-2886.31 944.54,-2887.68 942.51,-2888.99 940.43,-2890.22 938.32,-2891.38 936.18,-2892.47 934.01,-2893.47 931.81,-2894.39 929.59,-2895.23 927.36,-2895.98 925.11,-2896.64 922.85,-2897.21 920.58,-2897.69 918.3,-2898.08 916.02,-2898.36 913.73,-2898.56 911.45,-2898.65 909.16,-2898.65 906.87,-2898.56 904.58,-2898.36 902.3,-2898.08 900.02,-2897.69 897.75,-2897.21 895.49,-2896.64 893.24,-2895.98 891.01,-2895.23 888.79,-2894.39 886.6,-2893.47 884.43,-2892.47 882.28,-2891.38 880.17,-2890.22 878.1,-2888.99 876.06,-2887.68 874.08,-2886.31 872.15,-2884.88 870.28,-2883.38 868.48,-2881.84 866.75,-2880.24 865.1,-2878.59 863.55,-2876.91 862.08,-2875.18 860.72,-2873.43 859.47,-2871.65 858.34,-2869.84 857.34,-2868.02 856.47,-2866.18 855.74,-2864.34 855.15,-2862.5 854.72,-2860.65 854.45,-2858.82 854.34,-2857 854.41,-2855.19 854.65,-2853.41 855.06,-2851.65 855.66,-2849.93 856.44,-2848.24 857.4,-2846.6 858.54,-2845 859.87,-2843.45 861.38,-2841.96 863.06,-2840.53 864.93,-2839.16 866.96,-2837.85 869.15,-2836.62 871.51,-2835.45 874.01,-2834.37 876.66,-2833.37 879.44,-2832.44 882.34,-2831.6 885.36,-2830.85 888.47,-2830.19 891.68,-2829.62 894.96,-2829.14 898.3,-2828.76 901.69,-2828.47 905.12,-2828.28 908.57,-2828.18 912.03,-2828.18 915.48,-2828.28"/>
<text text-anchor="start" x="881.13" y="-2873.22" font-family="Times,serif" font-size="14.00">C2603343</text>
<text text-anchor="start" x="895.13" y="-2859.22" font-family="Times,serif" font-size="14.00">study</text>
<text text-anchor="start" x="894.36" y="-2845.22" font-family="Times,serif" font-size="14.00">41:41</text>
</g>
<!-- id_27849409_DOT_25 -->
<g id="node25" class="node">
<title>id_27849409_DOT_25</title>
<polygon fill="brown" stroke="brown" points="1089.41,-2447.78 1092.83,-2447.97 1096.23,-2448.26 1099.57,-2448.65 1102.85,-2449.12 1106.06,-2449.69 1109.17,-2450.36 1112.19,-2451.11 1115.09,-2451.94 1117.87,-2452.87 1120.52,-2453.87 1123.02,-2454.96 1125.38,-2456.12 1127.57,-2457.35 1129.6,-2458.66 1131.46,-2460.03 1133.15,-2461.46 1134.66,-2462.96 1135.99,-2464.5 1137.13,-2466.1 1138.09,-2467.75 1138.87,-2469.43 1139.47,-2471.15 1139.88,-2472.91 1140.12,-2474.69 1140.18,-2476.5 1140.08,-2478.32 1139.81,-2480.15 1139.38,-2482 1138.79,-2483.84 1138.06,-2485.69 1137.19,-2487.52 1136.19,-2489.34 1135.06,-2491.15 1133.81,-2492.93 1132.45,-2494.69 1130.98,-2496.41 1129.42,-2498.09 1127.78,-2499.74 1126.05,-2501.34 1124.25,-2502.88 1122.38,-2504.38 1120.45,-2505.81 1118.46,-2507.18 1116.43,-2508.49 1114.36,-2509.72 1112.25,-2510.88 1110.1,-2511.97 1107.93,-2512.97 1105.73,-2513.9 1103.52,-2514.73 1101.28,-2515.48 1099.04,-2516.15 1096.78,-2516.72 1094.51,-2517.19 1092.23,-2517.58 1089.95,-2517.87 1087.66,-2518.06 1085.37,-2518.16 1083.08,-2518.16 1080.79,-2518.06 1078.51,-2517.87 1076.23,-2517.58 1073.95,-2517.19 1071.68,-2516.72 1069.42,-2516.15 1067.17,-2515.48 1064.94,-2514.73 1062.72,-2513.9 1060.52,-2512.97 1058.35,-2511.97 1056.21,-2510.88 1054.1,-2509.72 1052.02,-2508.49 1049.99,-2507.18 1048.01,-2505.81 1046.08,-2504.38 1044.21,-2502.88 1042.41,-2501.34 1040.68,-2499.74 1039.03,-2498.09 1037.47,-2496.41 1036.01,-2494.69 1034.65,-2492.93 1033.4,-2491.15 1032.27,-2489.34 1031.26,-2487.52 1030.39,-2485.69 1029.66,-2483.84 1029.08,-2482 1028.65,-2480.15 1028.38,-2478.32 1028.27,-2476.5 1028.33,-2474.69 1028.57,-2472.91 1028.99,-2471.15 1029.58,-2469.43 1030.36,-2467.75 1031.32,-2466.1 1032.47,-2464.5 1033.8,-2462.96 1035.3,-2461.46 1036.99,-2460.03 1038.85,-2458.66 1040.88,-2457.35 1043.08,-2456.12 1045.43,-2454.96 1047.94,-2453.87 1050.59,-2452.87 1053.36,-2451.94 1056.27,-2451.11 1059.28,-2450.36 1062.4,-2449.69 1065.6,-2449.12 1068.88,-2448.65 1072.23,-2448.26 1075.62,-2447.97 1079.05,-2447.78 1082.5,-2447.68 1085.96,-2447.68 1089.41,-2447.78"/>
<text text-anchor="start" x="1055.06" y="-2492.72" font-family="Times,serif" font-size="14.00">C2603343</text>
<text text-anchor="start" x="1069.06" y="-2478.72" font-family="Times,serif" font-size="14.00">study</text>
<text text-anchor="start" x="1061.28" y="-2464.72" font-family="Times,serif" font-size="14.00">260:260</text>
</g>
<!-- id_27849409_DOT_6&#45;&#45;id_27849409_DOT_25 -->
<g id="edge6" class="edge">
<title>id_27849409_DOT_6&#45;&#45;id_27849409_DOT_25</title>
<path fill="none" stroke="black" d="M926.04,-2828.98C959.28,-2756.26 1036.25,-2587.87 1069.02,-2516.19"/>
<text text-anchor="middle" x="971.28" y="-2675.39" font-family="Times,serif" font-size="14.00">0.001666</text>
</g>
<!-- id_27849409_DOT_7 -->
<g id="node7" class="node">
<title>id_27849409_DOT_7</title>
<polygon fill="cadetblue" stroke="cadetblue" points="1542.06,-1408.65 1545.49,-1408.84 1548.89,-1409.13 1552.23,-1409.51 1555.51,-1409.99 1558.71,-1410.56 1561.83,-1411.22 1564.85,-1411.97 1567.75,-1412.81 1570.53,-1413.73 1573.18,-1414.74 1575.68,-1415.82 1578.03,-1416.98 1580.23,-1418.22 1582.26,-1419.52 1584.12,-1420.89 1585.81,-1422.33 1587.32,-1423.82 1588.65,-1425.37 1589.79,-1426.97 1590.75,-1428.61 1591.53,-1430.3 1592.13,-1432.02 1592.54,-1433.77 1592.78,-1435.56 1592.84,-1437.36 1592.74,-1439.18 1592.47,-1441.02 1592.04,-1442.86 1591.45,-1444.71 1590.72,-1446.55 1589.85,-1448.39 1588.85,-1450.21 1587.72,-1452.01 1586.47,-1453.8 1585.11,-1455.55 1583.64,-1457.27 1582.08,-1458.96 1580.44,-1460.6 1578.71,-1462.2 1576.91,-1463.75 1575.04,-1465.24 1573.11,-1466.68 1571.12,-1468.05 1569.09,-1469.35 1567.02,-1470.59 1564.91,-1471.75 1562.76,-1472.83 1560.59,-1473.84 1558.39,-1474.76 1556.18,-1475.6 1553.94,-1476.35 1551.7,-1477.01 1549.44,-1477.58 1547.17,-1478.06 1544.89,-1478.44 1542.61,-1478.73 1540.32,-1478.92 1538.03,-1479.02 1535.74,-1479.02 1533.45,-1478.92 1531.17,-1478.73 1528.88,-1478.44 1526.61,-1478.06 1524.34,-1477.58 1522.08,-1477.01 1519.83,-1476.35 1517.6,-1475.6 1515.38,-1474.76 1513.18,-1473.84 1511.01,-1472.83 1508.87,-1471.75 1506.76,-1470.59 1504.68,-1469.35 1502.65,-1468.05 1500.67,-1466.68 1498.74,-1465.24 1496.87,-1463.75 1495.07,-1462.2 1493.34,-1460.6 1491.69,-1458.96 1490.13,-1457.27 1488.67,-1455.55 1487.31,-1453.8 1486.06,-1452.01 1484.93,-1450.21 1483.92,-1448.39 1483.05,-1446.55 1482.32,-1444.71 1481.74,-1442.86 1481.31,-1441.02 1481.04,-1439.18 1480.93,-1437.36 1480.99,-1435.56 1481.23,-1433.77 1481.65,-1432.02 1482.24,-1430.3 1483.02,-1428.61 1483.98,-1426.97 1485.13,-1425.37 1486.45,-1423.82 1487.96,-1422.33 1489.65,-1420.89 1491.51,-1419.52 1493.54,-1418.22 1495.74,-1416.98 1498.09,-1415.82 1500.6,-1414.74 1503.24,-1413.73 1506.02,-1412.81 1508.93,-1411.97 1511.94,-1411.22 1515.06,-1410.56 1518.26,-1409.99 1521.54,-1409.51 1524.89,-1409.13 1528.28,-1408.84 1531.71,-1408.65 1535.16,-1408.55 1538.61,-1408.55 1542.06,-1408.65"/>
<text text-anchor="start" x="1507.72" y="-1453.58" font-family="Times,serif" font-size="14.00">C0023866</text>
<text text-anchor="start" x="1511.62" y="-1439.58" font-family="Times,serif" font-size="14.00">literature</text>
<text text-anchor="start" x="1520.94" y="-1425.58" font-family="Times,serif" font-size="14.00">48:48</text>
</g>
<!-- id_27849409_DOT_13 -->
<g id="node13" class="node">
<title>id_27849409_DOT_13</title>
<polygon fill="chartreuse" stroke="chartreuse" points="1424.29,-1693.23 1428.49,-1693.42 1432.65,-1693.71 1436.75,-1694.09 1440.78,-1694.57 1444.71,-1695.14 1448.53,-1695.8 1452.22,-1696.55 1455.78,-1697.39 1459.19,-1698.31 1462.44,-1699.32 1465.51,-1700.4 1468.4,-1701.56 1471.09,-1702.8 1473.58,-1704.1 1475.86,-1705.47 1477.93,-1706.91 1479.78,-1708.4 1481.41,-1709.95 1482.81,-1711.55 1483.99,-1713.19 1484.95,-1714.88 1485.68,-1716.6 1486.19,-1718.36 1486.48,-1720.14 1486.56,-1721.94 1486.43,-1723.77 1486.09,-1725.6 1485.57,-1727.44 1484.85,-1729.29 1483.95,-1731.13 1482.89,-1732.97 1481.65,-1734.79 1480.27,-1736.59 1478.74,-1738.38 1477.07,-1740.13 1475.27,-1741.85 1473.36,-1743.54 1471.34,-1745.18 1469.22,-1746.78 1467.01,-1748.33 1464.72,-1749.82 1462.35,-1751.26 1459.92,-1752.63 1457.43,-1753.93 1454.89,-1755.17 1452.3,-1756.33 1449.67,-1757.41 1447.01,-1758.42 1444.31,-1759.34 1441.59,-1760.18 1438.85,-1760.93 1436.1,-1761.59 1433.33,-1762.16 1430.54,-1762.64 1427.75,-1763.02 1424.95,-1763.31 1422.15,-1763.51 1419.34,-1763.6 1416.53,-1763.6 1413.73,-1763.51 1410.92,-1763.31 1408.13,-1763.02 1405.33,-1762.64 1402.55,-1762.16 1399.78,-1761.59 1397.02,-1760.93 1394.28,-1760.18 1391.56,-1759.34 1388.87,-1758.42 1386.21,-1757.41 1383.58,-1756.33 1380.99,-1755.17 1378.45,-1753.93 1375.95,-1752.63 1373.52,-1751.26 1371.16,-1749.82 1368.86,-1748.33 1366.65,-1746.78 1364.53,-1745.18 1362.51,-1743.54 1360.6,-1741.85 1358.81,-1740.13 1357.14,-1738.38 1355.61,-1736.59 1354.22,-1734.79 1352.99,-1732.97 1351.92,-1731.13 1351.03,-1729.29 1350.31,-1727.44 1349.78,-1725.6 1349.45,-1723.77 1349.32,-1721.94 1349.4,-1720.14 1349.69,-1718.36 1350.2,-1716.6 1350.93,-1714.88 1351.88,-1713.19 1353.06,-1711.55 1354.47,-1709.95 1356.09,-1708.4 1357.94,-1706.91 1360.01,-1705.47 1362.3,-1704.1 1364.79,-1702.8 1367.48,-1701.56 1370.37,-1700.4 1373.44,-1699.32 1376.68,-1698.31 1380.09,-1697.39 1383.65,-1696.55 1387.35,-1695.8 1391.17,-1695.14 1395.1,-1694.57 1399.12,-1694.09 1403.22,-1693.71 1407.38,-1693.42 1411.59,-1693.23 1415.82,-1693.13 1420.06,-1693.13 1424.29,-1693.23"/>
<text text-anchor="start" x="1388.77" y="-1738.17" font-family="Times,serif" font-size="14.00">C0041703</text>
<text text-anchor="start" x="1380.42" y="-1724.17" font-family="Times,serif" font-size="14.00">United States</text>
<text text-anchor="start" x="1401.99" y="-1710.17" font-family="Times,serif" font-size="14.00">87:88</text>
</g>
<!-- id_27849409_DOT_7&#45;&#45;id_27849409_DOT_13 -->
<g id="edge19" class="edge">
<title>id_27849409_DOT_7&#45;&#45;id_27849409_DOT_13</title>
<path fill="none" stroke="black" stroke-dasharray="1,5" d="M1522.89,-1477.27C1500.17,-1531.63 1455.48,-1638.55 1432.44,-1693.68"/>
<text text-anchor="middle" x="1451.41" y="-1588.27" font-family="Times,serif" font-size="14.00">0.804868</text>
</g>
<!-- id_27849409_DOT_23 -->
<g id="node23" class="node">
<title>id_27849409_DOT_23</title>
<polygon fill="bisque" stroke="bisque" points="4547.65,-1119.85 4552.85,-1120.04 4558,-1120.33 4563.07,-1120.72 4568.05,-1121.19 4572.91,-1121.76 4577.64,-1122.42 4582.21,-1123.17 4586.62,-1124.01 4590.83,-1124.94 4594.85,-1125.94 4598.65,-1127.03 4602.22,-1128.19 4605.55,-1129.42 4608.64,-1130.73 4611.46,-1132.1 4614.02,-1133.53 4616.31,-1135.02 4618.32,-1136.57 4620.06,-1138.17 4621.52,-1139.81 4622.7,-1141.5 4623.6,-1143.22 4624.23,-1144.98 4624.59,-1146.76 4624.69,-1148.57 4624.53,-1150.39 4624.12,-1152.22 4623.47,-1154.07 4622.58,-1155.91 4621.47,-1157.75 4620.15,-1159.59 4618.63,-1161.41 4616.91,-1163.22 4615.01,-1165 4612.95,-1166.75 4610.73,-1168.48 4608.37,-1170.16 4605.87,-1171.81 4603.24,-1173.41 4600.51,-1174.95 4597.67,-1176.45 4594.75,-1177.88 4591.74,-1179.25 4588.65,-1180.56 4585.51,-1181.79 4582.3,-1182.95 4579.05,-1184.04 4575.76,-1185.04 4572.42,-1185.96 4569.06,-1186.8 4565.67,-1187.55 4562.26,-1188.21 4558.83,-1188.78 4555.39,-1189.26 4551.93,-1189.65 4548.47,-1189.93 4545,-1190.13 4541.53,-1190.22 4538.06,-1190.22 4534.58,-1190.13 4531.11,-1189.93 4527.65,-1189.65 4524.2,-1189.26 4520.75,-1188.78 4517.32,-1188.21 4513.91,-1187.55 4510.52,-1186.8 4507.16,-1185.96 4503.83,-1185.04 4500.53,-1184.04 4497.28,-1182.95 4494.08,-1181.79 4490.93,-1180.56 4487.85,-1179.25 4484.84,-1177.88 4481.91,-1176.45 4479.07,-1174.95 4476.34,-1173.41 4473.72,-1171.81 4471.22,-1170.16 4468.85,-1168.48 4466.63,-1166.75 4464.57,-1165 4462.67,-1163.22 4460.96,-1161.41 4459.43,-1159.59 4458.11,-1157.75 4457,-1155.91 4456.12,-1154.07 4455.46,-1152.22 4455.05,-1150.39 4454.89,-1148.57 4454.99,-1146.76 4455.35,-1144.98 4455.98,-1143.22 4456.89,-1141.5 4458.07,-1139.81 4459.52,-1138.17 4461.26,-1136.57 4463.28,-1135.02 4465.56,-1133.53 4468.12,-1132.1 4470.95,-1130.73 4474.03,-1129.42 4477.36,-1128.19 4480.93,-1127.03 4484.73,-1125.94 4488.75,-1124.94 4492.97,-1124.01 4497.37,-1123.17 4501.95,-1122.42 4506.67,-1121.76 4511.54,-1121.19 4516.51,-1120.72 4521.59,-1120.33 4526.73,-1120.04 4531.94,-1119.85 4537.17,-1119.75 4542.41,-1119.75 4547.65,-1119.85"/>
<text text-anchor="start" x="4510.62" y="-1164.79" font-family="Times,serif" font-size="14.00">C0549393</text>
<text text-anchor="start" x="4491.39" y="-1150.79" font-family="Times,serif" font-size="14.00">alcohol problems</text>
<text text-anchor="start" x="4516.85" y="-1136.79" font-family="Times,serif" font-size="14.00">223:224</text>
</g>
<!-- id_27849409_DOT_8&#45;&#45;id_27849409_DOT_23 -->
<g id="edge7" class="edge">
<title>id_27849409_DOT_8&#45;&#45;id_27849409_DOT_23</title>
<path fill="none" stroke="black" d="M4725.47,-834.08C4686.37,-901.66 4599.3,-1052.14 4559.88,-1120.27"/>
<text text-anchor="middle" x="4616.42" y="-979.98" font-family="Times,serif" font-size="14.00">0.025416</text>
</g>
<!-- id_27849409_DOT_9 -->
<g id="node9" class="node">
<title>id_27849409_DOT_9</title>
<polygon fill="aquamarine" stroke="aquamarine" points="800.05,-572.41 803.48,-572.61 806.88,-572.9 810.22,-573.28 813.5,-573.76 816.7,-574.33 819.82,-574.99 822.84,-575.74 825.74,-576.58 828.52,-577.5 831.17,-578.5 833.67,-579.59 836.02,-580.75 838.22,-581.99 840.25,-583.29 842.11,-584.66 843.8,-586.1 845.31,-587.59 846.64,-589.14 847.78,-590.73 848.74,-592.38 849.52,-594.06 850.12,-595.79 850.53,-597.54 850.77,-599.32 850.83,-601.13 850.73,-602.95 850.46,-604.79 850.03,-606.63 849.44,-608.48 848.71,-610.32 847.84,-612.15 846.84,-613.98 845.7,-615.78 844.46,-617.56 843.1,-619.32 841.63,-621.04 840.07,-622.73 838.43,-624.37 836.7,-625.97 834.9,-627.52 833.03,-629.01 831.1,-630.44 829.11,-631.82 827.08,-633.12 825.01,-634.36 822.9,-635.52 820.75,-636.6 818.58,-637.61 816.38,-638.53 814.17,-639.37 811.93,-640.12 809.68,-640.78 807.42,-641.35 805.16,-641.83 802.88,-642.21 800.6,-642.5 798.31,-642.69 796.02,-642.79 793.73,-642.79 791.44,-642.69 789.16,-642.5 786.87,-642.21 784.6,-641.83 782.33,-641.35 780.07,-640.78 777.82,-640.12 775.59,-639.37 773.37,-638.53 771.17,-637.61 769,-636.6 766.86,-635.52 764.74,-634.36 762.67,-633.12 760.64,-631.82 758.66,-630.44 756.73,-629.01 754.86,-627.52 753.06,-625.97 751.33,-624.37 749.68,-622.73 748.12,-621.04 746.66,-619.32 745.3,-617.56 744.05,-615.78 742.92,-613.98 741.91,-612.15 741.04,-610.32 740.31,-608.48 739.73,-606.63 739.3,-604.79 739.03,-602.95 738.92,-601.13 738.98,-599.32 739.22,-597.54 739.64,-595.79 740.23,-594.06 741.01,-592.38 741.97,-590.73 743.12,-589.14 744.44,-587.59 745.95,-586.1 747.64,-584.66 749.5,-583.29 751.53,-581.99 753.73,-580.75 756.08,-579.59 758.59,-578.5 761.23,-577.5 764.01,-576.58 766.92,-575.74 769.93,-574.99 773.05,-574.33 776.25,-573.76 779.53,-573.28 782.88,-572.9 786.27,-572.61 789.7,-572.41 793.15,-572.32 796.6,-572.32 800.05,-572.41"/>
<text text-anchor="start" x="765.71" y="-617.35" font-family="Times,serif" font-size="14.00">C0449738</text>
<text text-anchor="start" x="770" y="-603.35" font-family="Times,serif" font-size="14.00">direction</text>
<text text-anchor="start" x="778.93" y="-589.35" font-family="Times,serif" font-size="14.00">60:60</text>
</g>
<!-- id_27849409_DOT_9&#45;&#45;id_27849409_DOT_11 -->
<g id="edge20" class="edge">
<title>id_27849409_DOT_9&#45;&#45;id_27849409_DOT_11</title>
<path fill="none" stroke="black" stroke-dasharray="1,5" d="M767.53,-575.56C719.81,-519.72 621.82,-405.08 573.8,-348.9"/>
<text text-anchor="middle" x="644.42" y="-465.03" font-family="Times,serif" font-size="14.00">0.862528</text>
</g>
<!-- id_27849409_DOT_15 -->
<g id="node15" class="node">
<title>id_27849409_DOT_15</title>
<polygon fill="aquamarine" stroke="aquamarine" points="1030.06,-899.27 1033.49,-899.46 1036.89,-899.75 1040.23,-900.13 1043.51,-900.61 1046.71,-901.18 1049.83,-901.84 1052.85,-902.59 1055.75,-903.43 1058.53,-904.35 1061.18,-905.36 1063.68,-906.44 1066.03,-907.6 1068.23,-908.84 1070.26,-910.14 1072.12,-911.51 1073.81,-912.95 1075.32,-914.44 1076.65,-915.99 1077.79,-917.59 1078.75,-919.23 1079.53,-920.92 1080.13,-922.64 1080.54,-924.39 1080.78,-926.18 1080.84,-927.98 1080.74,-929.8 1080.47,-931.64 1080.04,-933.48 1079.45,-935.33 1078.72,-937.17 1077.85,-939.01 1076.85,-940.83 1075.72,-942.63 1074.47,-944.42 1073.11,-946.17 1071.64,-947.89 1070.08,-949.58 1068.44,-951.22 1066.71,-952.82 1064.91,-954.37 1063.04,-955.86 1061.11,-957.3 1059.12,-958.67 1057.09,-959.97 1055.02,-961.21 1052.91,-962.37 1050.76,-963.45 1048.59,-964.46 1046.39,-965.38 1044.18,-966.22 1041.94,-966.97 1039.7,-967.63 1037.44,-968.2 1035.17,-968.68 1032.89,-969.06 1030.61,-969.35 1028.32,-969.54 1026.03,-969.64 1023.74,-969.64 1021.45,-969.54 1019.17,-969.35 1016.88,-969.06 1014.61,-968.68 1012.34,-968.2 1010.08,-967.63 1007.83,-966.97 1005.6,-966.22 1003.38,-965.38 1001.18,-964.46 999.01,-963.45 996.87,-962.37 994.76,-961.21 992.68,-959.97 990.65,-958.67 988.67,-957.3 986.74,-955.86 984.87,-954.37 983.07,-952.82 981.34,-951.22 979.69,-949.58 978.13,-947.89 976.67,-946.17 975.31,-944.42 974.06,-942.63 972.93,-940.83 971.92,-939.01 971.05,-937.17 970.32,-935.33 969.74,-933.48 969.31,-931.64 969.04,-929.8 968.93,-927.98 968.99,-926.18 969.23,-924.39 969.65,-922.64 970.24,-920.92 971.02,-919.23 971.98,-917.59 973.13,-915.99 974.45,-914.44 975.96,-912.95 977.65,-911.51 979.51,-910.14 981.54,-908.84 983.74,-907.6 986.09,-906.44 988.6,-905.36 991.24,-904.35 994.02,-903.43 996.93,-902.59 999.94,-901.84 1003.06,-901.18 1006.26,-900.61 1009.54,-900.13 1012.89,-899.75 1016.28,-899.46 1019.71,-899.27 1023.16,-899.17 1026.62,-899.17 1030.06,-899.27"/>
<text text-anchor="start" x="995.72" y="-944.21" font-family="Times,serif" font-size="14.00">C0449738</text>
<text text-anchor="start" x="1000.01" y="-930.21" font-family="Times,serif" font-size="14.00">direction</text>
<text text-anchor="start" x="1001.94" y="-916.21" font-family="Times,serif" font-size="14.00">128:128</text>
</g>
<!-- id_27849409_DOT_9&#45;&#45;id_27849409_DOT_15 -->
<g id="edge8" class="edge">
<title>id_27849409_DOT_9&#45;&#45;id_27849409_DOT_15</title>
<path fill="none" stroke="black" d="M816.72,-638.6C860.12,-700.27 956.84,-837.71 1001.48,-901.15"/>
<text text-anchor="middle" x="882.85" y="-772.67" font-family="Times,serif" font-size="14.00">0.013925</text>
</g>
<!-- id_27849409_DOT_12 -->
<g id="node12" class="node">
<title>id_27849409_DOT_12</title>
<polygon fill="blueviolet" stroke="blueviolet" points="826.94,-2138.43 831.83,-2138.63 836.67,-2138.91 841.45,-2139.3 846.13,-2139.78 850.7,-2140.35 855.15,-2141.01 859.45,-2141.76 863.59,-2142.59 867.56,-2143.52 871.34,-2144.52 874.91,-2145.61 878.27,-2146.77 881.41,-2148 884.31,-2149.31 886.96,-2150.68 889.37,-2152.11 891.52,-2153.61 893.42,-2155.15 895.05,-2156.75 896.42,-2158.4 897.53,-2160.08 898.38,-2161.81 898.97,-2163.56 899.31,-2165.34 899.41,-2167.15 899.26,-2168.97 898.87,-2170.81 898.25,-2172.65 897.42,-2174.49 896.38,-2176.34 895.14,-2178.17 893.7,-2179.99 892.09,-2181.8 890.31,-2183.58 888.36,-2185.34 886.28,-2187.06 884.05,-2188.75 881.7,-2190.39 879.23,-2191.99 876.66,-2193.54 873.99,-2195.03 871.24,-2196.46 868.41,-2197.83 865.51,-2199.14 862.55,-2200.37 859.54,-2201.53 856.48,-2202.62 853.38,-2203.62 850.24,-2204.55 847.08,-2205.38 843.89,-2206.14 840.68,-2206.8 837.46,-2207.37 834.22,-2207.84 830.97,-2208.23 827.71,-2208.52 824.45,-2208.71 821.18,-2208.81 817.92,-2208.81 814.65,-2208.71 811.39,-2208.52 808.13,-2208.23 804.88,-2207.84 801.64,-2207.37 798.42,-2206.8 795.21,-2206.14 792.02,-2205.38 788.86,-2204.55 785.72,-2203.62 782.62,-2202.62 779.56,-2201.53 776.55,-2200.37 773.59,-2199.14 770.69,-2197.83 767.86,-2196.46 765.11,-2195.03 762.44,-2193.54 759.87,-2191.99 757.4,-2190.39 755.05,-2188.75 752.82,-2187.06 750.74,-2185.34 748.79,-2183.58 747.01,-2181.8 745.4,-2179.99 743.96,-2178.17 742.72,-2176.34 741.68,-2174.49 740.84,-2172.65 740.23,-2170.81 739.84,-2168.97 739.69,-2167.15 739.78,-2165.34 740.12,-2163.56 740.72,-2161.81 741.57,-2160.08 742.68,-2158.4 744.05,-2156.75 745.68,-2155.15 747.58,-2153.61 749.73,-2152.11 752.14,-2150.68 754.79,-2149.31 757.69,-2148 760.83,-2146.77 764.19,-2145.61 767.76,-2144.52 771.54,-2143.52 775.51,-2142.59 779.65,-2141.76 783.95,-2141.01 788.4,-2140.35 792.97,-2139.78 797.65,-2139.3 802.43,-2138.91 807.27,-2138.63 812.16,-2138.43 817.08,-2138.34 822.02,-2138.34 826.94,-2138.43"/>
<text text-anchor="start" x="790.38" y="-2183.37" font-family="Times,serif" font-size="14.00">C0682177</text>
<text text-anchor="start" x="774.64" y="-2169.37" font-family="Times,serif" font-size="14.00">college students</text>
<text text-anchor="start" x="803.6" y="-2155.37" font-family="Times,serif" font-size="14.00">83:84</text>
</g>
<!-- id_27849409_DOT_10&#45;&#45;id_27849409_DOT_12 -->
<g id="edge9" class="edge">
<title>id_27849409_DOT_10&#45;&#45;id_27849409_DOT_12</title>
<path fill="none" stroke="black" d="M492.5,-2295.04C568.32,-2266.88 692.16,-2220.89 763.72,-2194.31"/>
<text text-anchor="middle" x="601.86" y="-2247.47" font-family="Times,serif" font-size="14.00">0.001739</text>
</g>
<!-- id_27849409_DOT_14 -->
<g id="node14" class="node">
<title>id_27849409_DOT_14</title>
<polygon fill="coral" stroke="coral" points="1267.03,-2109 1273.26,-2109.19 1279.43,-2109.48 1285.51,-2109.87 1291.48,-2110.34 1297.3,-2110.91 1302.97,-2111.58 1308.45,-2112.33 1313.73,-2113.16 1318.79,-2114.09 1323.6,-2115.09 1328.16,-2116.18 1332.44,-2117.34 1336.43,-2118.57 1340.13,-2119.88 1343.51,-2121.25 1346.58,-2122.68 1349.32,-2124.18 1351.73,-2125.72 1353.82,-2127.32 1355.56,-2128.97 1356.98,-2130.65 1358.06,-2132.37 1358.82,-2134.13 1359.25,-2135.91 1359.37,-2137.72 1359.17,-2139.54 1358.68,-2141.37 1357.9,-2143.22 1356.84,-2145.06 1355.51,-2146.91 1353.92,-2148.74 1352.1,-2150.56 1350.04,-2152.37 1347.77,-2154.15 1345.3,-2155.91 1342.64,-2157.63 1339.8,-2159.31 1336.8,-2160.96 1333.66,-2162.56 1330.38,-2164.1 1326.99,-2165.6 1323.48,-2167.03 1319.87,-2168.4 1316.18,-2169.71 1312.4,-2170.94 1308.56,-2172.1 1304.67,-2173.19 1300.72,-2174.19 1296.72,-2175.12 1292.69,-2175.95 1288.63,-2176.7 1284.54,-2177.37 1280.43,-2177.94 1276.3,-2178.41 1272.16,-2178.8 1268.01,-2179.09 1263.85,-2179.28 1259.69,-2179.37 1255.53,-2179.37 1251.37,-2179.28 1247.21,-2179.09 1243.06,-2178.8 1238.92,-2178.41 1234.79,-2177.94 1230.68,-2177.37 1226.59,-2176.7 1222.53,-2175.95 1218.5,-2175.12 1214.51,-2174.19 1210.56,-2173.19 1206.66,-2172.1 1202.82,-2170.94 1199.05,-2169.71 1195.35,-2168.4 1191.75,-2167.03 1188.24,-2165.6 1184.84,-2164.1 1181.56,-2162.56 1178.42,-2160.96 1175.42,-2159.31 1172.59,-2157.63 1169.93,-2155.91 1167.45,-2154.15 1165.18,-2152.37 1163.13,-2150.56 1161.3,-2148.74 1159.71,-2146.91 1158.38,-2145.06 1157.32,-2143.22 1156.54,-2141.37 1156.05,-2139.54 1155.86,-2137.72 1155.97,-2135.91 1156.41,-2134.13 1157.16,-2132.37 1158.24,-2130.65 1159.66,-2128.97 1161.41,-2127.32 1163.49,-2125.72 1165.9,-2124.18 1168.65,-2122.68 1171.71,-2121.25 1175.1,-2119.88 1178.79,-2118.57 1182.79,-2117.34 1187.07,-2116.18 1191.62,-2115.09 1196.43,-2114.09 1201.49,-2113.16 1206.77,-2112.33 1212.25,-2111.58 1217.92,-2110.91 1223.75,-2110.34 1229.71,-2109.87 1235.79,-2109.48 1241.96,-2109.19 1248.2,-2109 1254.47,-2108.9 1260.75,-2108.9 1267.03,-2109"/>
<text text-anchor="start" x="1228.44" y="-2153.94" font-family="Times,serif" font-size="14.00">C0034394</text>
<text text-anchor="start" x="1198.13" y="-2139.94" font-family="Times,serif" font-size="14.00">questionnaire &#45; based</text>
<text text-anchor="start" x="1238.17" y="-2125.94" font-family="Times,serif" font-size="14.00">98:100</text>
</g>
<!-- id_27849409_DOT_12&#45;&#45;id_27849409_DOT_14 -->
<g id="edge21" class="edge">
<title>id_27849409_DOT_12&#45;&#45;id_27849409_DOT_14</title>
<path fill="none" stroke="black" stroke-dasharray="1,5" d="M899.39,-2168.21C973.55,-2163.22 1084.05,-2155.8 1162.69,-2150.52"/>
<text text-anchor="middle" x="1004.79" y="-2162.16" font-family="Times,serif" font-size="14.00">0.975324</text>
</g>
<!-- id_27849409_DOT_13&#45;&#45;id_27849409_DOT_14 -->
<g id="edge22" class="edge">
<title>id_27849409_DOT_13&#45;&#45;id_27849409_DOT_14</title>
<path fill="none" stroke="black" stroke-dasharray="1,5" d="M1404.68,-1762.74C1374.63,-1840.67 1301.61,-2030.05 1271.22,-2108.84"/>
<text text-anchor="middle" x="1311.7" y="-1938.59" font-family="Times,serif" font-size="14.00">0.787507</text>
</g>
<!-- id_27849409_DOT_13&#45;&#45;id_27849409_DOT_18 -->
<g id="edge23" class="edge">
<title>id_27849409_DOT_13&#45;&#45;id_27849409_DOT_18</title>
<path fill="none" stroke="black" stroke-dasharray="1,5" d="M1393.45,-1694.52C1340.37,-1621.14 1215.38,-1448.34 1164.34,-1377.78"/>
<text text-anchor="middle" x="1252.65" y="-1538.95" font-family="Times,serif" font-size="14.00">0.822657</text>
</g>
<!-- id_27849409_DOT_30 -->
<g id="node30" class="node">
<title>id_27849409_DOT_30</title>
<polygon fill="darkgreen" stroke="darkgreen" points="1882.28,-1617.76 1889.12,-1617.95 1895.89,-1618.24 1902.57,-1618.63 1909.11,-1619.1 1915.51,-1619.67 1921.73,-1620.34 1927.75,-1621.09 1933.54,-1621.92 1939.09,-1622.85 1944.37,-1623.85 1949.37,-1624.94 1954.07,-1626.1 1958.46,-1627.33 1962.51,-1628.64 1966.23,-1630.01 1969.59,-1631.44 1972.6,-1632.94 1975.25,-1634.48 1977.54,-1636.08 1979.46,-1637.73 1981.01,-1639.41 1982.2,-1641.13 1983.03,-1642.89 1983.5,-1644.67 1983.63,-1646.48 1983.42,-1648.3 1982.88,-1650.13 1982.02,-1651.98 1980.85,-1653.82 1979.4,-1655.67 1977.66,-1657.5 1975.65,-1659.32 1973.39,-1661.13 1970.9,-1662.91 1968.19,-1664.67 1965.27,-1666.39 1962.15,-1668.07 1958.87,-1669.72 1955.42,-1671.32 1951.82,-1672.86 1948.09,-1674.36 1944.24,-1675.79 1940.28,-1677.16 1936.22,-1678.47 1932.08,-1679.7 1927.87,-1680.86 1923.59,-1681.95 1919.25,-1682.95 1914.87,-1683.88 1910.45,-1684.71 1905.99,-1685.46 1901.5,-1686.13 1896.99,-1686.7 1892.46,-1687.17 1887.91,-1687.56 1883.36,-1687.85 1878.8,-1688.04 1874.23,-1688.14 1869.66,-1688.14 1865.09,-1688.04 1860.53,-1687.85 1855.97,-1687.56 1851.43,-1687.17 1846.9,-1686.7 1842.39,-1686.13 1837.9,-1685.46 1833.44,-1684.71 1829.01,-1683.88 1824.63,-1682.95 1820.3,-1681.95 1816.02,-1680.86 1811.8,-1679.7 1807.66,-1678.47 1803.61,-1677.16 1799.65,-1675.79 1795.8,-1674.36 1792.07,-1672.86 1788.47,-1671.32 1785.02,-1669.72 1781.73,-1668.07 1778.62,-1666.39 1775.7,-1664.67 1772.98,-1662.91 1770.49,-1661.13 1768.23,-1659.32 1766.23,-1657.5 1764.49,-1655.67 1763.03,-1653.82 1761.87,-1651.98 1761.01,-1650.13 1760.47,-1648.3 1760.26,-1646.48 1760.38,-1644.67 1760.86,-1642.89 1761.69,-1641.13 1762.88,-1639.41 1764.43,-1637.73 1766.35,-1636.08 1768.63,-1634.48 1771.28,-1632.94 1774.29,-1631.44 1777.66,-1630.01 1781.38,-1628.64 1785.43,-1627.33 1789.81,-1626.1 1794.51,-1624.94 1799.51,-1623.85 1804.79,-1622.85 1810.34,-1621.92 1816.14,-1621.09 1822.16,-1620.34 1828.38,-1619.67 1834.77,-1619.1 1841.32,-1618.63 1847.99,-1618.24 1854.77,-1617.95 1861.61,-1617.76 1868.49,-1617.66 1875.39,-1617.66 1882.28,-1617.76"/>
<text text-anchor="start" x="1842.77" y="-1662.7" font-family="Times,serif" font-size="14.00">C0740858</text>
<text text-anchor="start" x="1805.85" y="-1648.7" font-family="Times,serif" font-size="14.00">substance use problems</text>
<text text-anchor="start" x="1849" y="-1634.7" font-family="Times,serif" font-size="14.00">290:292</text>
</g>
<!-- id_27849409_DOT_13&#45;&#45;id_27849409_DOT_30 -->
<g id="edge24" class="edge">
<title>id_27849409_DOT_13&#45;&#45;id_27849409_DOT_30</title>
<path fill="none" stroke="black" stroke-dasharray="1,5" d="M1485.91,-1717.07C1564.45,-1704.01 1694.03,-1682.47 1781.14,-1667.99"/>
<text text-anchor="middle" x="1607.28" y="-1695.33" font-family="Times,serif" font-size="14.00">0.739862</text>
</g>
<!-- id_27849409_DOT_14&#45;&#45;id_27849409_DOT_25 -->
<g id="edge25" class="edge">
<title>id_27849409_DOT_14&#45;&#45;id_27849409_DOT_25</title>
<path fill="none" stroke="black" stroke-dasharray="1,5" d="M1239.87,-2178.8C1206.51,-2243.98 1134.82,-2384.06 1101.68,-2448.81"/>
<text text-anchor="middle" x="1144.53" y="-2316.61" font-family="Times,serif" font-size="14.00">0.946442</text>
</g>
<!-- id_27849409_DOT_29 -->
<g id="node29" class="node">
<title>id_27849409_DOT_29</title>
<polygon fill="darkgoldenrod" stroke="darkgoldenrod" points="1516.66,-2468.47 1520.91,-2468.67 1525.11,-2468.95 1529.24,-2469.34 1533.31,-2469.82 1537.27,-2470.39 1541.13,-2471.05 1544.86,-2471.8 1548.45,-2472.64 1551.9,-2473.56 1555.17,-2474.56 1558.27,-2475.65 1561.19,-2476.81 1563.9,-2478.04 1566.42,-2479.35 1568.72,-2480.72 1570.81,-2482.15 1572.68,-2483.65 1574.32,-2485.2 1575.74,-2486.79 1576.93,-2488.44 1577.89,-2490.12 1578.63,-2491.85 1579.14,-2493.6 1579.44,-2495.38 1579.52,-2497.19 1579.38,-2499.01 1579.05,-2500.85 1578.52,-2502.69 1577.79,-2504.53 1576.89,-2506.38 1575.81,-2508.21 1574.57,-2510.04 1573.17,-2511.84 1571.62,-2513.62 1569.94,-2515.38 1568.13,-2517.1 1566.2,-2518.79 1564.16,-2520.43 1562.02,-2522.03 1559.79,-2523.58 1557.47,-2525.07 1555.09,-2526.5 1552.63,-2527.87 1550.12,-2529.18 1547.55,-2530.41 1544.94,-2531.58 1542.28,-2532.66 1539.59,-2533.67 1536.88,-2534.59 1534.13,-2535.43 1531.37,-2536.18 1528.58,-2536.84 1525.79,-2537.41 1522.98,-2537.89 1520.16,-2538.27 1517.33,-2538.56 1514.5,-2538.75 1511.67,-2538.85 1508.84,-2538.85 1506,-2538.75 1503.17,-2538.56 1500.35,-2538.27 1497.53,-2537.89 1494.72,-2537.41 1491.92,-2536.84 1489.14,-2536.18 1486.38,-2535.43 1483.63,-2534.59 1480.91,-2533.67 1478.23,-2532.66 1475.57,-2531.58 1472.96,-2530.41 1470.39,-2529.18 1467.88,-2527.87 1465.42,-2526.5 1463.03,-2525.07 1460.72,-2523.58 1458.49,-2522.03 1456.35,-2520.43 1454.31,-2518.79 1452.38,-2517.1 1450.57,-2515.38 1448.89,-2513.62 1447.34,-2511.84 1445.94,-2510.04 1444.7,-2508.21 1443.62,-2506.38 1442.71,-2504.53 1441.99,-2502.69 1441.46,-2500.85 1441.12,-2499.01 1440.99,-2497.19 1441.07,-2495.38 1441.37,-2493.6 1441.88,-2491.85 1442.62,-2490.12 1443.58,-2488.44 1444.77,-2486.79 1446.19,-2485.2 1447.83,-2483.65 1449.7,-2482.15 1451.79,-2480.72 1454.09,-2479.35 1456.6,-2478.04 1459.32,-2476.81 1462.24,-2475.65 1465.34,-2474.56 1468.61,-2473.56 1472.05,-2472.64 1475.65,-2471.8 1479.38,-2471.05 1483.24,-2470.39 1487.2,-2469.82 1491.26,-2469.34 1495.4,-2468.95 1499.6,-2468.67 1503.85,-2468.47 1508.11,-2468.38 1512.39,-2468.38 1516.66,-2468.47"/>
<text text-anchor="start" x="1481.09" y="-2513.41" font-family="Times,serif" font-size="14.00">C0025353</text>
<text text-anchor="start" x="1472.35" y="-2499.41" font-family="Times,serif" font-size="14.00">mental health</text>
<text text-anchor="start" x="1487.31" y="-2485.41" font-family="Times,serif" font-size="14.00">287:288</text>
</g>
<!-- id_27849409_DOT_14&#45;&#45;id_27849409_DOT_29 -->
<g id="edge26" class="edge">
<title>id_27849409_DOT_14&#45;&#45;id_27849409_DOT_29</title>
<path fill="none" stroke="black" stroke-dasharray="1,5" d="M1281.38,-2177.96C1329.59,-2246.56 1438.39,-2401.36 1486.55,-2469.88"/>
<text text-anchor="middle" x="1357.71" y="-2326.72" font-family="Times,serif" font-size="14.00">0.853915</text>
</g>
<!-- id_27849409_DOT_15&#45;&#45;id_27849409_DOT_18 -->
<g id="edge10" class="edge">
<title>id_27849409_DOT_15&#45;&#45;id_27849409_DOT_18</title>
<path fill="none" stroke="black" d="M1034.67,-968.87C1056.7,-1046.43 1109.97,-1233.99 1132.12,-1312.01"/>
<text text-anchor="middle" x="1057.15" y="-1143.24" font-family="Times,serif" font-size="14.00">0.004742</text>
</g>
<!-- id_27849409_DOT_16 -->
<g id="node16" class="node">
<title>id_27849409_DOT_16</title>
<polygon fill="bisque" stroke="bisque" points="2268.75,-1490.41 2273.95,-1490.61 2279.1,-1490.89 2284.17,-1491.28 2289.15,-1491.76 2294.01,-1492.33 2298.74,-1492.99 2303.31,-1493.74 2307.72,-1494.58 2311.94,-1495.5 2315.95,-1496.5 2319.75,-1497.59 2323.32,-1498.75 2326.65,-1499.98 2329.74,-1501.29 2332.56,-1502.66 2335.12,-1504.09 2337.41,-1505.59 2339.42,-1507.14 2341.16,-1508.73 2342.62,-1510.38 2343.8,-1512.06 2344.7,-1513.79 2345.33,-1515.54 2345.69,-1517.32 2345.79,-1519.13 2345.63,-1520.95 2345.22,-1522.79 2344.57,-1524.63 2343.68,-1526.47 2342.57,-1528.32 2341.25,-1530.15 2339.73,-1531.98 2338.01,-1533.78 2336.12,-1535.56 2334.05,-1537.32 2331.83,-1539.04 2329.47,-1540.73 2326.97,-1542.37 2324.34,-1543.97 2321.61,-1545.52 2318.77,-1547.01 2315.85,-1548.44 2312.84,-1549.81 2309.76,-1551.12 2306.61,-1552.35 2303.4,-1553.52 2300.15,-1554.6 2296.86,-1555.61 2293.52,-1556.53 2290.16,-1557.37 2286.77,-1558.12 2283.36,-1558.78 2279.93,-1559.35 2276.49,-1559.83 2273.03,-1560.21 2269.57,-1560.5 2266.1,-1560.69 2262.63,-1560.79 2259.16,-1560.79 2255.68,-1560.69 2252.21,-1560.5 2248.75,-1560.21 2245.3,-1559.83 2241.85,-1559.35 2238.42,-1558.78 2235.01,-1558.12 2231.62,-1557.37 2228.26,-1556.53 2224.93,-1555.61 2221.63,-1554.6 2218.38,-1553.52 2215.18,-1552.35 2212.03,-1551.12 2208.95,-1549.81 2205.94,-1548.44 2203.01,-1547.01 2200.18,-1545.52 2197.44,-1543.97 2194.82,-1542.37 2192.32,-1540.73 2189.95,-1539.04 2187.73,-1537.32 2185.67,-1535.56 2183.77,-1533.78 2182.06,-1531.98 2180.53,-1530.15 2179.21,-1528.32 2178.1,-1526.47 2177.22,-1524.63 2176.57,-1522.79 2176.15,-1520.95 2175.99,-1519.13 2176.09,-1517.32 2176.45,-1515.54 2177.08,-1513.79 2177.99,-1512.06 2179.17,-1510.38 2180.63,-1508.73 2182.36,-1507.14 2184.38,-1505.59 2186.66,-1504.09 2189.22,-1502.66 2192.05,-1501.29 2195.13,-1499.98 2198.46,-1498.75 2202.03,-1497.59 2205.83,-1496.5 2209.85,-1495.5 2214.07,-1494.58 2218.47,-1493.74 2223.05,-1492.99 2227.77,-1492.33 2232.64,-1491.76 2237.61,-1491.28 2242.69,-1490.89 2247.83,-1490.61 2253.04,-1490.41 2258.27,-1490.32 2263.51,-1490.32 2268.75,-1490.41"/>
<text text-anchor="start" x="2231.72" y="-1535.35" font-family="Times,serif" font-size="14.00">C0549393</text>
<text text-anchor="start" x="2212.49" y="-1521.35" font-family="Times,serif" font-size="14.00">alcohol problems</text>
<text text-anchor="start" x="2237.95" y="-1507.35" font-family="Times,serif" font-size="14.00">135:136</text>
</g>
<!-- id_27849409_DOT_17 -->
<g id="node17" class="node">
<title>id_27849409_DOT_17</title>
<polygon fill="bisque" stroke="bisque" points="2643.7,-1382.77 2648.9,-1382.96 2654.05,-1383.25 2659.12,-1383.64 2664.1,-1384.11 2668.96,-1384.68 2673.69,-1385.35 2678.26,-1386.1 2682.67,-1386.93 2686.89,-1387.86 2690.9,-1388.86 2694.7,-1389.95 2698.27,-1391.11 2701.61,-1392.34 2704.69,-1393.65 2707.51,-1395.02 2710.07,-1396.45 2712.36,-1397.95 2714.37,-1399.49 2716.11,-1401.09 2717.57,-1402.74 2718.75,-1404.42 2719.65,-1406.14 2720.28,-1407.9 2720.64,-1409.68 2720.74,-1411.49 2720.58,-1413.31 2720.17,-1415.14 2719.52,-1416.99 2718.63,-1418.83 2717.52,-1420.68 2716.2,-1422.51 2714.68,-1424.33 2712.96,-1426.14 2711.07,-1427.92 2709,-1429.68 2706.78,-1431.4 2704.42,-1433.08 2701.92,-1434.73 2699.3,-1436.33 2696.56,-1437.87 2693.73,-1439.37 2690.8,-1440.8 2687.79,-1442.17 2684.71,-1443.48 2681.56,-1444.71 2678.36,-1445.87 2675.1,-1446.96 2671.81,-1447.96 2668.48,-1448.89 2665.11,-1449.72 2661.72,-1450.47 2658.31,-1451.14 2654.88,-1451.71 2651.44,-1452.18 2647.98,-1452.57 2644.52,-1452.86 2641.05,-1453.05 2637.58,-1453.15 2634.11,-1453.15 2630.63,-1453.05 2627.17,-1452.86 2623.7,-1452.57 2620.25,-1452.18 2616.81,-1451.71 2613.38,-1451.14 2609.96,-1450.47 2606.58,-1449.72 2603.21,-1448.89 2599.88,-1447.96 2596.58,-1446.96 2593.33,-1445.87 2590.13,-1444.71 2586.98,-1443.48 2583.9,-1442.17 2580.89,-1440.8 2577.96,-1439.37 2575.13,-1437.87 2572.39,-1436.33 2569.77,-1434.73 2567.27,-1433.08 2564.9,-1431.4 2562.68,-1429.68 2560.62,-1427.92 2558.73,-1426.14 2557.01,-1424.33 2555.49,-1422.51 2554.16,-1420.68 2553.06,-1418.83 2552.17,-1416.99 2551.52,-1415.14 2551.11,-1413.31 2550.95,-1411.49 2551.04,-1409.68 2551.4,-1407.9 2552.03,-1406.14 2552.94,-1404.42 2554.12,-1402.74 2555.58,-1401.09 2557.31,-1399.49 2559.33,-1397.95 2561.62,-1396.45 2564.18,-1395.02 2567,-1393.65 2570.08,-1392.34 2573.41,-1391.11 2576.99,-1389.95 2580.79,-1388.86 2584.8,-1387.86 2589.02,-1386.93 2593.42,-1386.1 2598,-1385.35 2602.73,-1384.68 2607.59,-1384.11 2612.57,-1383.64 2617.64,-1383.25 2622.79,-1382.96 2627.99,-1382.77 2633.22,-1382.67 2638.47,-1382.67 2643.7,-1382.77"/>
<text text-anchor="start" x="2606.67" y="-1427.71" font-family="Times,serif" font-size="14.00">C0549393</text>
<text text-anchor="start" x="2587.44" y="-1413.71" font-family="Times,serif" font-size="14.00">alcohol problems</text>
<text text-anchor="start" x="2612.9" y="-1399.71" font-family="Times,serif" font-size="14.00">153:154</text>
</g>
<!-- id_27849409_DOT_16&#45;&#45;id_27849409_DOT_17 -->
<g id="edge11" class="edge">
<title>id_27849409_DOT_16&#45;&#45;id_27849409_DOT_17</title>
<path fill="none" stroke="black" d="M2335.42,-1504.16C2404.62,-1484.29 2506.54,-1455.03 2572.06,-1436.22"/>
<text text-anchor="middle" x="2427.75" y="-1472.99" font-family="Times,serif" font-size="14.00">0.005119</text>
</g>
<!-- id_27849409_DOT_16&#45;&#45;id_27849409_DOT_30 -->
<g id="edge27" class="edge">
<title>id_27849409_DOT_16&#45;&#45;id_27849409_DOT_30</title>
<path fill="none" stroke="black" stroke-dasharray="1,5" d="M2199.69,-1545.59C2133.48,-1567.27 2027.55,-1601.95 1954.12,-1625.99"/>
<text text-anchor="middle" x="2050.66" y="-1588.59" font-family="Times,serif" font-size="14.00">0.730135</text>
</g>
<!-- id_27849409_DOT_19 -->
<g id="node19" class="node">
<title>id_27849409_DOT_19</title>
<polygon fill="bisque" stroke="bisque" points="3016.08,-1297.6 3021.28,-1297.79 3026.43,-1298.08 3031.5,-1298.47 3036.48,-1298.94 3041.34,-1299.51 3046.07,-1300.18 3050.64,-1300.93 3055.05,-1301.76 3059.27,-1302.69 3063.28,-1303.69 3067.08,-1304.78 3070.66,-1305.94 3073.99,-1307.17 3077.07,-1308.48 3079.89,-1309.85 3082.45,-1311.28 3084.74,-1312.78 3086.75,-1314.32 3088.49,-1315.92 3089.95,-1317.57 3091.13,-1319.25 3092.03,-1320.97 3092.66,-1322.73 3093.03,-1324.51 3093.12,-1326.32 3092.96,-1328.14 3092.55,-1329.97 3091.9,-1331.82 3091.01,-1333.66 3089.9,-1335.51 3088.58,-1337.34 3087.06,-1339.16 3085.34,-1340.97 3083.45,-1342.75 3081.38,-1344.51 3079.16,-1346.23 3076.8,-1347.91 3074.3,-1349.56 3071.68,-1351.16 3068.94,-1352.7 3066.11,-1354.2 3063.18,-1355.63 3060.17,-1357 3057.09,-1358.31 3053.94,-1359.54 3050.74,-1360.7 3047.48,-1361.79 3044.19,-1362.79 3040.86,-1363.72 3037.49,-1364.55 3034.1,-1365.3 3030.69,-1365.97 3027.26,-1366.54 3023.82,-1367.01 3020.37,-1367.4 3016.9,-1367.69 3013.43,-1367.88 3009.96,-1367.98 3006.49,-1367.98 3003.02,-1367.88 2999.55,-1367.69 2996.08,-1367.4 2992.63,-1367.01 2989.19,-1366.54 2985.76,-1365.97 2982.35,-1365.3 2978.96,-1364.55 2975.59,-1363.72 2972.26,-1362.79 2968.97,-1361.79 2965.71,-1360.7 2962.51,-1359.54 2959.36,-1358.31 2956.28,-1357 2953.27,-1355.63 2950.34,-1354.2 2947.51,-1352.7 2944.77,-1351.16 2942.15,-1349.56 2939.65,-1347.91 2937.29,-1346.23 2935.07,-1344.51 2933,-1342.75 2931.11,-1340.97 2929.39,-1339.16 2927.87,-1337.34 2926.55,-1335.51 2925.44,-1333.66 2924.55,-1331.82 2923.9,-1329.97 2923.49,-1328.14 2923.33,-1326.32 2923.42,-1324.51 2923.78,-1322.73 2924.42,-1320.97 2925.32,-1319.25 2926.5,-1317.57 2927.96,-1315.92 2929.69,-1314.32 2931.71,-1312.78 2934,-1311.28 2936.56,-1309.85 2939.38,-1308.48 2942.46,-1307.17 2945.79,-1305.94 2949.37,-1304.78 2953.17,-1303.69 2957.18,-1302.69 2961.4,-1301.76 2965.8,-1300.93 2970.38,-1300.18 2975.11,-1299.51 2979.97,-1298.94 2984.95,-1298.47 2990.02,-1298.08 2995.17,-1297.79 3000.37,-1297.6 3005.6,-1297.5 3010.85,-1297.5 3016.08,-1297.6"/>
<text text-anchor="start" x="2979.06" y="-1342.54" font-family="Times,serif" font-size="14.00">C0549393</text>
<text text-anchor="start" x="2959.82" y="-1328.54" font-family="Times,serif" font-size="14.00">alcohol problems</text>
<text text-anchor="start" x="2985.28" y="-1314.54" font-family="Times,serif" font-size="14.00">166:167</text>
</g>
<!-- id_27849409_DOT_17&#45;&#45;id_27849409_DOT_19 -->
<g id="edge12" class="edge">
<title>id_27849409_DOT_17&#45;&#45;id_27849409_DOT_19</title>
<path fill="none" stroke="black" d="M2714.82,-1399.85C2781.64,-1384.56 2876.41,-1362.89 2939.99,-1348.35"/>
<text text-anchor="middle" x="2801.15" y="-1376.9" font-family="Times,serif" font-size="14.00">0.000855</text>
</g>
<!-- id_27849409_DOT_20 -->
<g id="node20" class="node">
<title>id_27849409_DOT_20</title>
<polygon fill="bisque" stroke="bisque" points="3389.41,-1235.97 3394.62,-1236.17 3399.76,-1236.46 3404.84,-1236.84 3409.81,-1237.32 3414.68,-1237.89 3419.4,-1238.55 3423.98,-1239.3 3428.38,-1240.14 3432.6,-1241.06 3436.62,-1242.06 3440.42,-1243.15 3443.99,-1244.31 3447.32,-1245.54 3450.4,-1246.85 3453.23,-1248.22 3455.79,-1249.66 3458.07,-1251.15 3460.09,-1252.7 3461.82,-1254.29 3463.28,-1255.94 3464.46,-1257.62 3465.37,-1259.35 3466,-1261.1 3466.36,-1262.88 3466.46,-1264.69 3466.3,-1266.51 3465.88,-1268.35 3465.23,-1270.19 3464.35,-1272.04 3463.24,-1273.88 3461.92,-1275.71 3460.39,-1277.54 3458.68,-1279.34 3456.78,-1281.12 3454.72,-1282.88 3452.5,-1284.6 3450.13,-1286.29 3447.63,-1287.93 3445.01,-1289.53 3442.28,-1291.08 3439.44,-1292.57 3436.51,-1294 3433.5,-1295.38 3430.42,-1296.68 3427.27,-1297.91 3424.07,-1299.08 3420.82,-1300.16 3417.52,-1301.17 3414.19,-1302.09 3410.83,-1302.93 3407.44,-1303.68 3404.03,-1304.34 3400.6,-1304.91 3397.15,-1305.39 3393.7,-1305.77 3390.24,-1306.06 3386.77,-1306.25 3383.29,-1306.35 3379.82,-1306.35 3376.35,-1306.25 3372.88,-1306.06 3369.42,-1305.77 3365.96,-1305.39 3362.52,-1304.91 3359.09,-1304.34 3355.68,-1303.68 3352.29,-1302.93 3348.93,-1302.09 3345.59,-1301.17 3342.3,-1300.16 3339.05,-1299.08 3335.84,-1297.91 3332.7,-1296.68 3329.61,-1295.38 3326.6,-1294 3323.68,-1292.57 3320.84,-1291.08 3318.11,-1289.53 3315.48,-1287.93 3312.98,-1286.29 3310.62,-1284.6 3308.4,-1282.88 3306.34,-1281.12 3304.44,-1279.34 3302.72,-1277.54 3301.2,-1275.71 3299.88,-1273.88 3298.77,-1272.04 3297.88,-1270.19 3297.23,-1268.35 3296.82,-1266.51 3296.66,-1264.69 3296.76,-1262.88 3297.12,-1261.1 3297.75,-1259.35 3298.65,-1257.62 3299.83,-1255.94 3301.29,-1254.29 3303.03,-1252.7 3305.04,-1251.15 3307.33,-1249.66 3309.89,-1248.22 3312.71,-1246.85 3315.8,-1245.54 3319.13,-1244.31 3322.7,-1243.15 3326.5,-1242.06 3330.52,-1241.06 3334.73,-1240.14 3339.14,-1239.3 3343.71,-1238.55 3348.44,-1237.89 3353.3,-1237.32 3358.28,-1236.84 3363.35,-1236.46 3368.5,-1236.17 3373.7,-1235.97 3378.94,-1235.88 3384.18,-1235.88 3389.41,-1235.97"/>
<text text-anchor="start" x="3352.39" y="-1280.91" font-family="Times,serif" font-size="14.00">C0549393</text>
<text text-anchor="start" x="3333.15" y="-1266.91" font-family="Times,serif" font-size="14.00">alcohol problems</text>
<text text-anchor="start" x="3358.61" y="-1252.91" font-family="Times,serif" font-size="14.00">187:188</text>
</g>
<!-- id_27849409_DOT_19&#45;&#45;id_27849409_DOT_20 -->
<g id="edge13" class="edge">
<title>id_27849409_DOT_19&#45;&#45;id_27849409_DOT_20</title>
<path fill="none" stroke="black" d="M3091.08,-1319.06C3156.28,-1308.3 3246.25,-1293.45 3308.71,-1283.14"/>
<text text-anchor="middle" x="3173.65" y="-1303.9" font-family="Times,serif" font-size="14.00">0.001301</text>
</g>
<!-- id_27849409_DOT_21 -->
<g id="node21" class="node">
<title>id_27849409_DOT_21</title>
<polygon fill="bisque" stroke="bisque" points="3764.23,-1186.13 3769.43,-1186.32 3774.58,-1186.61 3779.65,-1187 3784.63,-1187.47 3789.49,-1188.04 3794.22,-1188.71 3798.8,-1189.46 3803.2,-1190.29 3807.42,-1191.22 3811.43,-1192.22 3815.23,-1193.31 3818.81,-1194.47 3822.14,-1195.7 3825.22,-1197.01 3828.04,-1198.38 3830.6,-1199.81 3832.89,-1201.31 3834.91,-1202.85 3836.64,-1204.45 3838.1,-1206.1 3839.28,-1207.78 3840.18,-1209.5 3840.82,-1211.26 3841.18,-1213.04 3841.27,-1214.85 3841.11,-1216.67 3840.7,-1218.5 3840.05,-1220.35 3839.16,-1222.19 3838.06,-1224.04 3836.73,-1225.87 3835.21,-1227.69 3833.49,-1229.5 3831.6,-1231.28 3829.53,-1233.04 3827.31,-1234.76 3824.95,-1236.44 3822.45,-1238.09 3819.83,-1239.69 3817.09,-1241.23 3814.26,-1242.73 3811.33,-1244.16 3808.32,-1245.53 3805.24,-1246.84 3802.09,-1248.07 3798.89,-1249.23 3795.64,-1250.32 3792.34,-1251.32 3789.01,-1252.25 3785.64,-1253.08 3782.25,-1253.83 3778.84,-1254.5 3775.41,-1255.07 3771.97,-1255.54 3768.52,-1255.93 3765.05,-1256.22 3761.58,-1256.41 3758.11,-1256.51 3754.64,-1256.51 3751.17,-1256.41 3747.7,-1256.22 3744.23,-1255.93 3740.78,-1255.54 3737.34,-1255.07 3733.91,-1254.5 3730.5,-1253.83 3727.11,-1253.08 3723.74,-1252.25 3720.41,-1251.32 3717.12,-1250.32 3713.86,-1249.23 3710.66,-1248.07 3707.51,-1246.84 3704.43,-1245.53 3701.42,-1244.16 3698.49,-1242.73 3695.66,-1241.23 3692.92,-1239.69 3690.3,-1238.09 3687.8,-1236.44 3685.44,-1234.76 3683.22,-1233.04 3681.15,-1231.28 3679.26,-1229.5 3677.54,-1227.69 3676.02,-1225.87 3674.7,-1224.04 3673.59,-1222.19 3672.7,-1220.35 3672.05,-1218.5 3671.64,-1216.67 3671.48,-1214.85 3671.57,-1213.04 3671.94,-1211.26 3672.57,-1209.5 3673.47,-1207.78 3674.65,-1206.1 3676.11,-1204.45 3677.85,-1202.85 3679.86,-1201.31 3682.15,-1199.81 3684.71,-1198.38 3687.53,-1197.01 3690.61,-1195.7 3693.95,-1194.47 3697.52,-1193.31 3701.32,-1192.22 3705.33,-1191.22 3709.55,-1190.29 3713.96,-1189.46 3718.53,-1188.71 3723.26,-1188.04 3728.12,-1187.47 3733.1,-1187 3738.17,-1186.61 3743.32,-1186.32 3748.52,-1186.13 3753.75,-1186.03 3759,-1186.03 3764.23,-1186.13"/>
<text text-anchor="start" x="3727.21" y="-1231.07" font-family="Times,serif" font-size="14.00">C0549393</text>
<text text-anchor="start" x="3707.97" y="-1217.07" font-family="Times,serif" font-size="14.00">alcohol problems</text>
<text text-anchor="start" x="3733.43" y="-1203.07" font-family="Times,serif" font-size="14.00">198:199</text>
</g>
<!-- id_27849409_DOT_20&#45;&#45;id_27849409_DOT_21 -->
<g id="edge14" class="edge">
<title>id_27849409_DOT_20&#45;&#45;id_27849409_DOT_21</title>
<path fill="none" stroke="black" d="M3465.67,-1259.93C3530.32,-1251.33 3618.81,-1239.56 3681.12,-1231.28"/>
<text text-anchor="middle" x="3547.15" y="-1248.4" font-family="Times,serif" font-size="14.00">0.001422</text>
</g>
<!-- id_27849409_DOT_22 -->
<g id="node22" class="node">
<title>id_27849409_DOT_22</title>
<polygon fill="bisque" stroke="bisque" points="4145.48,-1149.91 4150.68,-1150.1 4155.83,-1150.39 4160.9,-1150.78 4165.88,-1151.25 4170.74,-1151.83 4175.47,-1152.49 4180.04,-1153.24 4184.45,-1154.07 4188.66,-1155 4192.68,-1156 4196.48,-1157.09 4200.05,-1158.25 4203.38,-1159.48 4206.47,-1160.79 4209.29,-1162.16 4211.85,-1163.59 4214.14,-1165.09 4216.15,-1166.63 4217.89,-1168.23 4219.35,-1169.88 4220.53,-1171.56 4221.43,-1173.28 4222.06,-1175.04 4222.42,-1176.82 4222.52,-1178.63 4222.36,-1180.45 4221.95,-1182.29 4221.3,-1184.13 4220.41,-1185.97 4219.3,-1187.82 4217.98,-1189.65 4216.45,-1191.47 4214.74,-1193.28 4212.84,-1195.06 4210.78,-1196.82 4208.56,-1198.54 4206.19,-1200.23 4203.69,-1201.87 4201.07,-1203.47 4198.34,-1205.02 4195.5,-1206.51 4192.58,-1207.94 4189.57,-1209.31 4186.48,-1210.62 4183.34,-1211.85 4180.13,-1213.01 4176.88,-1214.1 4173.58,-1215.1 4170.25,-1216.03 4166.89,-1216.86 4163.5,-1217.62 4160.09,-1218.28 4156.66,-1218.85 4153.22,-1219.32 4149.76,-1219.71 4146.3,-1220 4142.83,-1220.19 4139.36,-1220.29 4135.88,-1220.29 4132.41,-1220.19 4128.94,-1220 4125.48,-1219.71 4122.03,-1219.32 4118.58,-1218.85 4115.15,-1218.28 4111.74,-1217.62 4108.35,-1216.86 4104.99,-1216.03 4101.66,-1215.1 4098.36,-1214.1 4095.11,-1213.01 4091.91,-1211.85 4088.76,-1210.62 4085.68,-1209.31 4082.67,-1207.94 4079.74,-1206.51 4076.9,-1205.02 4074.17,-1203.47 4071.55,-1201.87 4069.05,-1200.23 4066.68,-1198.54 4064.46,-1196.82 4062.4,-1195.06 4060.5,-1193.28 4058.79,-1191.47 4057.26,-1189.65 4055.94,-1187.82 4054.83,-1185.97 4053.95,-1184.13 4053.29,-1182.29 4052.88,-1180.45 4052.72,-1178.63 4052.82,-1176.82 4053.18,-1175.04 4053.81,-1173.28 4054.72,-1171.56 4055.9,-1169.88 4057.35,-1168.23 4059.09,-1166.63 4061.1,-1165.09 4063.39,-1163.59 4065.95,-1162.16 4068.78,-1160.79 4071.86,-1159.48 4075.19,-1158.25 4078.76,-1157.09 4082.56,-1156 4086.58,-1155 4090.8,-1154.07 4095.2,-1153.24 4099.78,-1152.49 4104.5,-1151.83 4109.37,-1151.25 4114.34,-1150.78 4119.42,-1150.39 4124.56,-1150.1 4129.76,-1149.91 4135,-1149.82 4140.24,-1149.82 4145.48,-1149.91"/>
<text text-anchor="start" x="4108.45" y="-1194.85" font-family="Times,serif" font-size="14.00">C0549393</text>
<text text-anchor="start" x="4089.22" y="-1180.85" font-family="Times,serif" font-size="14.00">alcohol problems</text>
<text text-anchor="start" x="4114.68" y="-1166.85" font-family="Times,serif" font-size="14.00">209:210</text>
</g>
<!-- id_27849409_DOT_21&#45;&#45;id_27849409_DOT_22 -->
<g id="edge15" class="edge">
<title>id_27849409_DOT_21&#45;&#45;id_27849409_DOT_22</title>
<path fill="none" stroke="black" d="M3841.46,-1213.19C3906.75,-1206.98 3996.16,-1198.49 4059.61,-1192.46"/>
<text text-anchor="middle" x="3924.29" y="-1205.62" font-family="Times,serif" font-size="14.00">0.000982</text>
</g>
<!-- id_27849409_DOT_22&#45;&#45;id_27849409_DOT_23 -->
<g id="edge16" class="edge">
<title>id_27849409_DOT_22&#45;&#45;id_27849409_DOT_23</title>
<path fill="none" stroke="black" d="M4222.91,-1178.68C4293.12,-1173.43 4391.9,-1166.04 4460.43,-1160.92"/>
<text text-anchor="middle" x="4315.42" y="-1172.6" font-family="Times,serif" font-size="14.00">0.001555</text>
</g>
<!-- id_27849409_DOT_24 -->
<g id="node24" class="node">
<title>id_27849409_DOT_24</title>
<polygon fill="bisque" stroke="bisque" points="4808.28,-1441.7 4813.48,-1441.9 4818.63,-1442.18 4823.7,-1442.57 4828.68,-1443.05 4833.54,-1443.62 4838.27,-1444.28 4842.84,-1445.03 4847.25,-1445.87 4851.47,-1446.79 4855.48,-1447.79 4859.28,-1448.88 4862.85,-1450.04 4866.19,-1451.27 4869.27,-1452.58 4872.09,-1453.95 4874.65,-1455.38 4876.94,-1456.88 4878.95,-1458.42 4880.69,-1460.02 4882.15,-1461.67 4883.33,-1463.35 4884.23,-1465.08 4884.86,-1466.83 4885.23,-1468.61 4885.32,-1470.42 4885.16,-1472.24 4884.75,-1474.08 4884.1,-1475.92 4883.21,-1477.76 4882.1,-1479.61 4880.78,-1481.44 4879.26,-1483.26 4877.54,-1485.07 4875.65,-1486.85 4873.58,-1488.61 4871.36,-1490.33 4869,-1492.02 4866.5,-1493.66 4863.88,-1495.26 4861.14,-1496.81 4858.31,-1498.3 4855.38,-1499.73 4852.37,-1501.1 4849.29,-1502.41 4846.14,-1503.64 4842.94,-1504.81 4839.68,-1505.89 4836.39,-1506.9 4833.06,-1507.82 4829.69,-1508.66 4826.3,-1509.41 4822.89,-1510.07 4819.46,-1510.64 4816.02,-1511.12 4812.56,-1511.5 4809.1,-1511.79 4805.63,-1511.98 4802.16,-1512.08 4798.69,-1512.08 4795.22,-1511.98 4791.75,-1511.79 4788.28,-1511.5 4784.83,-1511.12 4781.39,-1510.64 4777.96,-1510.07 4774.55,-1509.41 4771.16,-1508.66 4767.79,-1507.82 4764.46,-1506.9 4761.16,-1505.89 4757.91,-1504.81 4754.71,-1503.64 4751.56,-1502.41 4748.48,-1501.1 4745.47,-1499.73 4742.54,-1498.3 4739.71,-1496.81 4736.97,-1495.26 4734.35,-1493.66 4731.85,-1492.02 4729.49,-1490.33 4727.27,-1488.61 4725.2,-1486.85 4723.31,-1485.07 4721.59,-1483.26 4720.07,-1481.44 4718.74,-1479.61 4717.64,-1477.76 4716.75,-1475.92 4716.1,-1474.08 4715.69,-1472.24 4715.53,-1470.42 4715.62,-1468.61 4715.98,-1466.83 4716.61,-1465.08 4717.52,-1463.35 4718.7,-1461.67 4720.16,-1460.02 4721.89,-1458.42 4723.91,-1456.88 4726.2,-1455.38 4728.76,-1453.95 4731.58,-1452.58 4734.66,-1451.27 4737.99,-1450.04 4741.57,-1448.88 4745.37,-1447.79 4749.38,-1446.79 4753.6,-1445.87 4758,-1445.03 4762.58,-1444.28 4767.31,-1443.62 4772.17,-1443.05 4777.15,-1442.57 4782.22,-1442.18 4787.37,-1441.9 4792.57,-1441.7 4797.8,-1441.61 4803.05,-1441.61 4808.28,-1441.7"/>
<text text-anchor="start" x="4771.26" y="-1486.64" font-family="Times,serif" font-size="14.00">C0549393</text>
<text text-anchor="start" x="4752.02" y="-1472.64" font-family="Times,serif" font-size="14.00">alcohol problems</text>
<text text-anchor="start" x="4777.48" y="-1458.64" font-family="Times,serif" font-size="14.00">254:255</text>
</g>
<!-- id_27849409_DOT_23&#45;&#45;id_27849409_DOT_24 -->
<g id="edge17" class="edge">
<title>id_27849409_DOT_23&#45;&#45;id_27849409_DOT_24</title>
<path fill="none" stroke="black" d="M4566.22,-1187.62C4615.78,-1248.83 4722.25,-1380.3 4772.75,-1442.67"/>
<text text-anchor="middle" x="4643.23" y="-1317.95" font-family="Times,serif" font-size="14.00">0.001885</text>
</g>
<!-- id_27849409_DOT_26 -->
<g id="node26" class="node">
<title>id_27849409_DOT_26</title>
<polygon fill="bisque" stroke="bisque" points="5096.55,-1699.31 5101.75,-1699.5 5106.9,-1699.79 5111.97,-1700.17 5116.95,-1700.65 5121.81,-1701.22 5126.54,-1701.88 5131.11,-1702.63 5135.52,-1703.47 5139.73,-1704.39 5143.75,-1705.4 5147.55,-1706.48 5151.12,-1707.64 5154.45,-1708.88 5157.54,-1710.18 5160.36,-1711.55 5162.92,-1712.99 5165.21,-1714.48 5167.22,-1716.03 5168.96,-1717.63 5170.42,-1719.27 5171.6,-1720.96 5172.5,-1722.68 5173.13,-1724.43 5173.49,-1726.22 5173.59,-1728.02 5173.43,-1729.84 5173.02,-1731.68 5172.37,-1733.52 5171.48,-1735.37 5170.37,-1737.21 5169.05,-1739.05 5167.53,-1740.87 5165.81,-1742.67 5163.92,-1744.46 5161.85,-1746.21 5159.63,-1747.93 5157.27,-1749.62 5154.77,-1751.26 5152.14,-1752.86 5149.41,-1754.41 5146.57,-1755.9 5143.65,-1757.34 5140.64,-1758.71 5137.55,-1760.01 5134.41,-1761.25 5131.2,-1762.41 5127.95,-1763.49 5124.66,-1764.5 5121.32,-1765.42 5117.96,-1766.26 5114.57,-1767.01 5111.16,-1767.67 5107.73,-1768.24 5104.29,-1768.72 5100.83,-1769.1 5097.37,-1769.39 5093.9,-1769.58 5090.43,-1769.68 5086.96,-1769.68 5083.48,-1769.58 5080.01,-1769.39 5076.55,-1769.1 5073.1,-1768.72 5069.65,-1768.24 5066.22,-1767.67 5062.81,-1767.01 5059.42,-1766.26 5056.06,-1765.42 5052.73,-1764.5 5049.43,-1763.49 5046.18,-1762.41 5042.98,-1761.25 5039.83,-1760.01 5036.75,-1758.71 5033.74,-1757.34 5030.81,-1755.9 5027.97,-1754.41 5025.24,-1752.86 5022.62,-1751.26 5020.12,-1749.62 5017.75,-1747.93 5015.53,-1746.21 5013.47,-1744.46 5011.57,-1742.67 5009.86,-1740.87 5008.33,-1739.05 5007.01,-1737.21 5005.9,-1735.37 5005.02,-1733.52 5004.37,-1731.68 5003.95,-1729.84 5003.79,-1728.02 5003.89,-1726.22 5004.25,-1724.43 5004.88,-1722.68 5005.79,-1720.96 5006.97,-1719.27 5008.43,-1717.63 5010.16,-1716.03 5012.18,-1714.48 5014.46,-1712.99 5017.02,-1711.55 5019.85,-1710.18 5022.93,-1708.88 5026.26,-1707.64 5029.83,-1706.48 5033.63,-1705.4 5037.65,-1704.39 5041.87,-1703.47 5046.27,-1702.63 5050.85,-1701.88 5055.57,-1701.22 5060.44,-1700.65 5065.41,-1700.17 5070.49,-1699.79 5075.63,-1699.5 5080.84,-1699.31 5086.07,-1699.21 5091.31,-1699.21 5096.55,-1699.31"/>
<text text-anchor="start" x="5059.52" y="-1744.25" font-family="Times,serif" font-size="14.00">C0549393</text>
<text text-anchor="start" x="5040.29" y="-1730.25" font-family="Times,serif" font-size="14.00">alcohol problems</text>
<text text-anchor="start" x="5065.75" y="-1716.25" font-family="Times,serif" font-size="14.00">274:275</text>
</g>
<!-- id_27849409_DOT_24&#45;&#45;id_27849409_DOT_26 -->
<g id="edge18" class="edge">
<title>id_27849409_DOT_24&#45;&#45;id_27849409_DOT_26</title>
<path fill="none" stroke="black" d="M4834.62,-1507.4C4889.21,-1556.18 4995.58,-1651.24 5051.81,-1701.49"/>
<text text-anchor="middle" x="4916.97" y="-1607.25" font-family="Times,serif" font-size="14.00">0.000607</text>
</g>
<!-- id_27849409_DOT_27 -->
<g id="node27" class="node">
<title>id_27849409_DOT_27</title>
<polygon fill="cornflowerblue" stroke="cornflowerblue" points="1817.24,-2722.82 1820.84,-2723.01 1824.41,-2723.3 1827.92,-2723.69 1831.37,-2724.16 1834.74,-2724.73 1838.01,-2725.4 1841.18,-2726.15 1844.23,-2726.98 1847.15,-2727.91 1849.94,-2728.91 1852.57,-2730 1855.04,-2731.16 1857.35,-2732.39 1859.48,-2733.7 1861.44,-2735.07 1863.21,-2736.5 1864.8,-2738 1866.19,-2739.54 1867.4,-2741.14 1868.41,-2742.79 1869.22,-2744.47 1869.85,-2746.19 1870.29,-2747.95 1870.54,-2749.73 1870.6,-2751.54 1870.49,-2753.36 1870.21,-2755.2 1869.76,-2757.04 1869.14,-2758.88 1868.38,-2760.73 1867.46,-2762.56 1866.4,-2764.38 1865.22,-2766.19 1863.9,-2767.97 1862.47,-2769.73 1860.94,-2771.45 1859.3,-2773.14 1857.57,-2774.78 1855.75,-2776.38 1853.86,-2777.92 1851.89,-2779.42 1849.86,-2780.85 1847.78,-2782.22 1845.64,-2783.53 1843.46,-2784.76 1841.25,-2785.92 1838.99,-2787.01 1836.71,-2788.01 1834.4,-2788.94 1832.07,-2789.77 1829.72,-2790.53 1827.36,-2791.19 1824.99,-2791.76 1822.6,-2792.23 1820.21,-2792.62 1817.81,-2792.91 1815.41,-2793.1 1813,-2793.2 1810.6,-2793.2 1808.19,-2793.1 1805.79,-2792.91 1803.39,-2792.62 1801,-2792.23 1798.61,-2791.76 1796.24,-2791.19 1793.88,-2790.53 1791.53,-2789.77 1789.2,-2788.94 1786.89,-2788.01 1784.61,-2787.01 1782.35,-2785.92 1780.14,-2784.76 1777.96,-2783.53 1775.82,-2782.22 1773.74,-2780.85 1771.71,-2779.42 1769.74,-2777.92 1767.85,-2776.38 1766.03,-2774.78 1764.3,-2773.14 1762.66,-2771.45 1761.13,-2769.73 1759.7,-2767.97 1758.38,-2766.19 1757.2,-2764.38 1756.14,-2762.56 1755.22,-2760.73 1754.46,-2758.88 1753.84,-2757.04 1753.39,-2755.2 1753.11,-2753.36 1753,-2751.54 1753.06,-2749.73 1753.31,-2747.95 1753.75,-2746.19 1754.38,-2744.47 1755.19,-2742.79 1756.2,-2741.14 1757.41,-2739.54 1758.8,-2738 1760.39,-2736.5 1762.16,-2735.07 1764.12,-2733.7 1766.25,-2732.39 1768.56,-2731.16 1771.03,-2730 1773.66,-2728.91 1776.45,-2727.91 1779.37,-2726.98 1782.42,-2726.15 1785.59,-2725.4 1788.86,-2724.73 1792.23,-2724.16 1795.68,-2723.69 1799.19,-2723.3 1802.76,-2723.01 1806.36,-2722.82 1809.98,-2722.73 1813.62,-2722.73 1817.24,-2722.82"/>
<text text-anchor="start" x="1782.63" y="-2767.76" font-family="Times,serif" font-size="14.00">C0027361</text>
<text text-anchor="start" x="1780.69" y="-2753.76" font-family="Times,serif" font-size="14.00">individuals</text>
<text text-anchor="start" x="1788.86" y="-2739.76" font-family="Times,serif" font-size="14.00">283:283</text>
</g>
<!-- id_27849409_DOT_27&#45;&#45;id_27849409_DOT_29 -->
<g id="edge28" class="edge">
<title>id_27849409_DOT_27&#45;&#45;id_27849409_DOT_29</title>
<path fill="none" stroke="black" stroke-dasharray="1,5" d="M1776.02,-2727.78C1717.37,-2678.31 1601.53,-2580.6 1544.13,-2532.19"/>
<text text-anchor="middle" x="1633.83" y="-2632.79" font-family="Times,serif" font-size="14.00">0.883632</text>
</g>
<!-- id_27849409_DOT_28 -->
<g id="node28" class="node">
<title>id_27849409_DOT_28</title>
<polygon fill="crimson" stroke="crimson" points="1472.23,-2896.79 1478.16,-2896.98 1484.03,-2897.27 1489.82,-2897.65 1495.49,-2898.13 1501.04,-2898.7 1506.43,-2899.36 1511.65,-2900.11 1516.67,-2900.95 1521.48,-2901.87 1526.06,-2902.88 1530.39,-2903.96 1534.46,-2905.12 1538.26,-2906.36 1541.78,-2907.66 1545,-2909.03 1547.92,-2910.47 1550.53,-2911.96 1552.82,-2913.51 1554.8,-2915.11 1556.47,-2916.75 1557.81,-2918.44 1558.84,-2920.16 1559.56,-2921.91 1559.97,-2923.7 1560.08,-2925.5 1559.9,-2927.32 1559.43,-2929.16 1558.69,-2931 1557.68,-2932.85 1556.41,-2934.69 1554.91,-2936.53 1553.17,-2938.35 1551.21,-2940.15 1549.05,-2941.94 1546.7,-2943.69 1544.17,-2945.41 1541.47,-2947.1 1538.62,-2948.74 1535.63,-2950.34 1532.51,-2951.89 1529.28,-2953.38 1525.94,-2954.82 1522.51,-2956.19 1518.99,-2957.49 1515.4,-2958.73 1511.75,-2959.89 1508.04,-2960.97 1504.28,-2961.98 1500.48,-2962.9 1496.65,-2963.74 1492.78,-2964.49 1488.89,-2965.15 1484.98,-2965.72 1481.06,-2966.2 1477.12,-2966.58 1473.17,-2966.87 1469.21,-2967.06 1465.25,-2967.16 1461.29,-2967.16 1457.33,-2967.06 1453.38,-2966.87 1449.43,-2966.58 1445.49,-2966.2 1441.56,-2965.72 1437.65,-2965.15 1433.76,-2964.49 1429.9,-2963.74 1426.06,-2962.9 1422.26,-2961.98 1418.51,-2960.97 1414.8,-2959.89 1411.14,-2958.73 1407.56,-2957.49 1404.04,-2956.19 1400.61,-2954.82 1397.27,-2953.38 1394.04,-2951.89 1390.92,-2950.34 1387.93,-2948.74 1385.08,-2947.1 1382.38,-2945.41 1379.85,-2943.69 1377.5,-2941.94 1375.34,-2940.15 1373.38,-2938.35 1371.64,-2936.53 1370.13,-2934.69 1368.87,-2932.85 1367.86,-2931 1367.12,-2929.16 1366.65,-2927.32 1366.46,-2925.5 1366.57,-2923.7 1366.99,-2921.91 1367.71,-2920.16 1368.74,-2918.44 1370.08,-2916.75 1371.75,-2915.11 1373.73,-2913.51 1376.02,-2911.96 1378.63,-2910.47 1381.55,-2909.03 1384.77,-2907.66 1388.28,-2906.36 1392.08,-2905.12 1396.16,-2903.96 1400.49,-2902.88 1405.07,-2901.87 1409.88,-2900.95 1414.9,-2900.11 1420.12,-2899.36 1425.51,-2898.7 1431.05,-2898.13 1436.73,-2897.65 1442.51,-2897.27 1448.38,-2896.98 1454.32,-2896.79 1460.28,-2896.69 1466.26,-2896.69 1472.23,-2896.79"/>
<text text-anchor="start" x="1434.11" y="-2941.73" font-family="Times,serif" font-size="14.00">C0332140</text>
<text text-anchor="start" x="1407.1" y="-2927.73" font-family="Times,serif" font-size="14.00">clinically diagnosed</text>
<text text-anchor="start" x="1440.33" y="-2913.73" font-family="Times,serif" font-size="14.00">285:286</text>
</g>
<!-- id_27849409_DOT_28&#45;&#45;id_27849409_DOT_29 -->
<g id="edge29" class="edge">
<title>id_27849409_DOT_28&#45;&#45;id_27849409_DOT_29</title>
<path fill="none" stroke="black" stroke-dasharray="1,5" d="M1467.16,-2896.51C1476.01,-2815.84 1497.58,-2619.19 1506.4,-2538.77"/>
<text text-anchor="middle" x="1460.53" y="-2720.44" font-family="Times,serif" font-size="14.00">0.893519</text>
</g>
</g>
</svg>
