<?xml version="1.0" encoding="UTF-8" standalone="no"?>
<!DOCTYPE svg PUBLIC "-//W3C//DTD SVG 1.1//EN"
 "http://www.w3.org/Graphics/SVG/1.1/DTD/svg11.dtd">
<!-- Generated by graphviz version 2.42.3 (20191010.1750)
 -->
<!-- Title: MST Pages: 1 -->
<svg width="2074pt" height="2869pt"
 viewBox="0.00 0.00 2074.15 2869.26" xmlns="http://www.w3.org/2000/svg" xmlns:xlink="http://www.w3.org/1999/xlink">
<g id="graph0" class="graph" transform="scale(1 1) rotate(0) translate(4 2865.26)">
<title>MST</title>
<polygon fill="white" stroke="transparent" points="-4,4 -4,-2865.26 2070.15,-2865.26 2070.15,4 -4,4"/>
<!-- id_27848238_DOT_1 -->
<g id="node1" class="node">
<title>id_27848238_DOT_1</title>
<polygon fill="aquamarine" stroke="aquamarine" points="1001.57,-2421.9 1005,-2422.09 1008.39,-2422.38 1011.73,-2422.76 1015.01,-2423.24 1018.22,-2423.81 1021.34,-2424.47 1024.35,-2425.22 1027.25,-2426.06 1030.03,-2426.98 1032.68,-2427.99 1035.19,-2429.07 1037.54,-2430.24 1039.74,-2431.47 1041.77,-2432.78 1043.63,-2434.15 1045.31,-2435.58 1046.82,-2437.07 1048.15,-2438.62 1049.3,-2440.22 1050.26,-2441.86 1051.03,-2443.55 1051.63,-2445.27 1052.05,-2447.03 1052.28,-2448.81 1052.35,-2450.62 1052.24,-2452.44 1051.97,-2454.27 1051.54,-2456.12 1050.96,-2457.96 1050.23,-2459.8 1049.36,-2461.64 1048.35,-2463.46 1047.22,-2465.27 1045.97,-2467.05 1044.61,-2468.8 1043.15,-2470.53 1041.59,-2472.21 1039.94,-2473.86 1038.21,-2475.46 1036.41,-2477 1034.54,-2478.5 1032.61,-2479.93 1030.63,-2481.3 1028.6,-2482.61 1026.52,-2483.84 1024.41,-2485 1022.27,-2486.09 1020.1,-2487.09 1017.9,-2488.01 1015.68,-2488.85 1013.45,-2489.6 1011.2,-2490.26 1008.94,-2490.83 1006.67,-2491.31 1004.39,-2491.7 1002.11,-2491.98 999.82,-2492.18 997.54,-2492.27 995.25,-2492.27 992.96,-2492.18 990.67,-2491.98 988.39,-2491.7 986.11,-2491.31 983.84,-2490.83 981.58,-2490.26 979.33,-2489.6 977.1,-2488.85 974.88,-2488.01 972.69,-2487.09 970.52,-2486.09 968.37,-2485 966.26,-2483.84 964.19,-2482.61 962.15,-2481.3 960.17,-2479.93 958.24,-2478.5 956.37,-2477 954.57,-2475.46 952.84,-2473.86 951.19,-2472.21 949.64,-2470.53 948.17,-2468.8 946.81,-2467.05 945.56,-2465.27 944.43,-2463.46 943.43,-2461.64 942.56,-2459.8 941.83,-2457.96 941.24,-2456.12 940.81,-2454.27 940.54,-2452.44 940.43,-2450.62 940.5,-2448.81 940.74,-2447.03 941.15,-2445.27 941.75,-2443.55 942.53,-2441.86 943.49,-2440.22 944.63,-2438.62 945.96,-2437.07 947.47,-2435.58 949.15,-2434.15 951.02,-2432.78 953.05,-2431.47 955.24,-2430.24 957.6,-2429.07 960.1,-2427.99 962.75,-2426.98 965.53,-2426.06 968.43,-2425.22 971.45,-2424.47 974.56,-2423.81 977.77,-2423.24 981.05,-2422.76 984.39,-2422.38 987.79,-2422.09 991.21,-2421.9 994.66,-2421.8 998.12,-2421.8 1001.57,-2421.9"/>
<text text-anchor="start" x="967.22" y="-2466.84" font-family="Times,serif" font-size="14.00">C0025663</text>
<text text-anchor="start" x="974.62" y="-2452.84" font-family="Times,serif" font-size="14.00">Method</text>
<text text-anchor="start" x="987.45" y="-2438.84" font-family="Times,serif" font-size="14.00">2:2</text>
</g>
<!-- id_27848238_DOT_4 -->
<g id="node4" class="node">
<title>id_27848238_DOT_4</title>
<polygon fill="blueviolet" stroke="blueviolet" points="1083.27,-2790.76 1086.7,-2790.95 1090.09,-2791.24 1093.44,-2791.62 1096.72,-2792.1 1099.92,-2792.67 1103.04,-2793.33 1106.05,-2794.08 1108.96,-2794.92 1111.74,-2795.84 1114.38,-2796.85 1116.89,-2797.93 1119.24,-2799.09 1121.44,-2800.33 1123.47,-2801.63 1125.33,-2803 1127.02,-2804.44 1128.53,-2805.93 1129.85,-2807.48 1131,-2809.08 1131.96,-2810.72 1132.74,-2812.41 1133.33,-2814.13 1133.75,-2815.88 1133.99,-2817.67 1134.05,-2819.47 1133.95,-2821.29 1133.68,-2823.13 1133.25,-2824.97 1132.66,-2826.82 1131.93,-2828.66 1131.06,-2830.5 1130.05,-2832.32 1128.92,-2834.12 1127.67,-2835.91 1126.31,-2837.66 1124.85,-2839.38 1123.29,-2841.07 1121.64,-2842.71 1119.92,-2844.31 1118.11,-2845.86 1116.25,-2847.35 1114.32,-2848.79 1112.33,-2850.16 1110.3,-2851.46 1108.23,-2852.7 1106.12,-2853.86 1103.97,-2854.94 1101.8,-2855.95 1099.6,-2856.87 1097.39,-2857.71 1095.15,-2858.46 1092.9,-2859.12 1090.64,-2859.69 1088.37,-2860.17 1086.1,-2860.55 1083.81,-2860.84 1081.53,-2861.03 1079.24,-2861.13 1076.95,-2861.13 1074.66,-2861.03 1072.38,-2860.84 1070.09,-2860.55 1067.82,-2860.17 1065.55,-2859.69 1063.29,-2859.12 1061.04,-2858.46 1058.8,-2857.71 1056.59,-2856.87 1054.39,-2855.95 1052.22,-2854.94 1050.08,-2853.86 1047.96,-2852.7 1045.89,-2851.46 1043.86,-2850.16 1041.88,-2848.79 1039.95,-2847.35 1038.08,-2845.86 1036.27,-2844.31 1034.55,-2842.71 1032.9,-2841.07 1031.34,-2839.38 1029.88,-2837.66 1028.52,-2835.91 1027.27,-2834.12 1026.14,-2832.32 1025.13,-2830.5 1024.26,-2828.66 1023.53,-2826.82 1022.95,-2824.97 1022.52,-2823.13 1022.24,-2821.29 1022.14,-2819.47 1022.2,-2817.67 1022.44,-2815.88 1022.86,-2814.13 1023.45,-2812.41 1024.23,-2810.72 1025.19,-2809.08 1026.34,-2807.48 1027.66,-2805.93 1029.17,-2804.44 1030.86,-2803 1032.72,-2801.63 1034.75,-2800.33 1036.95,-2799.09 1039.3,-2797.93 1041.81,-2796.85 1044.45,-2795.84 1047.23,-2794.92 1050.14,-2794.08 1053.15,-2793.33 1056.27,-2792.67 1059.47,-2792.1 1062.75,-2791.62 1066.1,-2791.24 1069.49,-2790.95 1072.92,-2790.76 1076.37,-2790.66 1079.82,-2790.66 1083.27,-2790.76"/>
<text text-anchor="start" x="1048.93" y="-2835.69" font-family="Times,serif" font-size="14.00">C0086418</text>
<text text-anchor="start" x="1059.04" y="-2821.69" font-family="Times,serif" font-size="14.00">human</text>
<text text-anchor="start" x="1062.15" y="-2807.69" font-family="Times,serif" font-size="14.00">28:28</text>
</g>
<!-- id_27848238_DOT_1&#45;&#45;id_27848238_DOT_4 -->
<g id="edge3" class="edge">
<title>id_27848238_DOT_1&#45;&#45;id_27848238_DOT_4</title>
<path fill="none" stroke="black" stroke-dasharray="1,5" d="M1004.08,-2491.74C1019.63,-2561.95 1054.68,-2720.16 1070.31,-2790.75"/>
<text text-anchor="middle" x="1010.94" y="-2644.04" font-family="Times,serif" font-size="14.00">0.913486</text>
</g>
<!-- id_27848238_DOT_5 -->
<g id="node5" class="node">
<title>id_27848238_DOT_5</title>
<polygon fill="brown" stroke="brown" points="869.9,-2039.29 874.02,-2039.48 878.09,-2039.77 882.11,-2040.15 886.04,-2040.63 889.89,-2041.2 893.63,-2041.86 897.25,-2042.61 900.74,-2043.45 904.07,-2044.37 907.25,-2045.38 910.26,-2046.46 913.08,-2047.62 915.72,-2048.86 918.16,-2050.16 920.39,-2051.53 922.42,-2052.97 924.23,-2054.46 925.82,-2056.01 927.2,-2057.61 928.35,-2059.25 929.29,-2060.94 930,-2062.66 930.5,-2064.41 930.78,-2066.2 930.86,-2068 930.73,-2069.82 930.41,-2071.66 929.89,-2073.5 929.19,-2075.35 928.32,-2077.19 927.27,-2079.02 926.06,-2080.85 924.71,-2082.65 923.21,-2084.44 921.57,-2086.19 919.82,-2087.91 917.95,-2089.6 915.97,-2091.24 913.89,-2092.84 911.73,-2094.39 909.49,-2095.88 907.17,-2097.32 904.79,-2098.69 902.35,-2099.99 899.86,-2101.23 897.32,-2102.39 894.75,-2103.47 892.14,-2104.48 889.51,-2105.4 886.85,-2106.24 884.16,-2106.99 881.47,-2107.65 878.75,-2108.22 876.03,-2108.7 873.29,-2109.08 870.55,-2109.37 867.81,-2109.56 865.06,-2109.66 862.31,-2109.66 859.57,-2109.56 856.82,-2109.37 854.08,-2109.08 851.35,-2108.7 848.62,-2108.22 845.91,-2107.65 843.21,-2106.99 840.53,-2106.24 837.87,-2105.4 835.23,-2104.48 832.62,-2103.47 830.05,-2102.39 827.52,-2101.23 825.03,-2099.99 822.59,-2098.69 820.21,-2097.32 817.89,-2095.88 815.65,-2094.39 813.48,-2092.84 811.41,-2091.24 809.43,-2089.6 807.56,-2087.91 805.8,-2086.19 804.17,-2084.44 802.67,-2082.65 801.31,-2080.85 800.11,-2079.02 799.06,-2077.19 798.18,-2075.35 797.48,-2073.5 796.97,-2071.66 796.64,-2069.82 796.51,-2068 796.59,-2066.2 796.88,-2064.41 797.38,-2062.66 798.09,-2060.94 799.03,-2059.25 800.18,-2057.61 801.55,-2056.01 803.15,-2054.46 804.96,-2052.97 806.98,-2051.53 809.22,-2050.16 811.66,-2048.86 814.29,-2047.62 817.12,-2046.46 820.12,-2045.38 823.3,-2044.37 826.64,-2043.45 830.12,-2042.61 833.74,-2041.86 837.48,-2041.2 841.33,-2040.63 845.27,-2040.15 849.28,-2039.77 853.36,-2039.48 857.47,-2039.29 861.61,-2039.19 865.76,-2039.19 869.9,-2039.29"/>
<text text-anchor="start" x="834.52" y="-2084.22" font-family="Times,serif" font-size="14.00">C4042799</text>
<text text-anchor="start" x="827.14" y="-2070.22" font-family="Times,serif" font-size="14.00">toxicological</text>
<text text-anchor="start" x="847.74" y="-2056.22" font-family="Times,serif" font-size="14.00">54:54</text>
</g>
<!-- id_27848238_DOT_1&#45;&#45;id_27848238_DOT_5 -->
<g id="edge4" class="edge">
<title>id_27848238_DOT_1&#45;&#45;id_27848238_DOT_5</title>
<path fill="none" stroke="black" stroke-dasharray="1,5" d="M984.26,-2422.07C958.96,-2349.11 900.8,-2181.43 875.64,-2108.9"/>
<text text-anchor="middle" x="903.7" y="-2268.28" font-family="Times,serif" font-size="14.00">0.930313</text>
</g>
<!-- id_27848238_DOT_2 -->
<g id="node2" class="node">
<title>id_27848238_DOT_2</title>
<polygon fill="bisque" stroke="bisque" points="1352.4,-1419.84 1358.17,-1420.03 1363.87,-1420.32 1369.5,-1420.71 1375.02,-1421.18 1380.41,-1421.75 1385.65,-1422.41 1390.72,-1423.16 1395.61,-1424 1400.28,-1424.93 1404.74,-1425.93 1408.95,-1427.02 1412.91,-1428.18 1416.6,-1429.41 1420.02,-1430.72 1423.15,-1432.09 1425.99,-1433.52 1428.53,-1435.01 1430.76,-1436.56 1432.69,-1438.16 1434.3,-1439.8 1435.61,-1441.49 1436.62,-1443.21 1437.31,-1444.97 1437.71,-1446.75 1437.82,-1448.56 1437.64,-1450.38 1437.19,-1452.21 1436.47,-1454.06 1435.48,-1455.9 1434.25,-1457.74 1432.79,-1459.58 1431.1,-1461.4 1429.2,-1463.21 1427.09,-1464.99 1424.81,-1466.74 1422.34,-1468.47 1419.72,-1470.15 1416.95,-1471.8 1414.04,-1473.4 1411.01,-1474.94 1407.87,-1476.44 1404.62,-1477.87 1401.28,-1479.24 1397.87,-1480.55 1394.38,-1481.78 1390.82,-1482.94 1387.22,-1484.03 1383.56,-1485.03 1379.87,-1485.95 1376.14,-1486.79 1372.38,-1487.54 1368.6,-1488.2 1364.8,-1488.77 1360.98,-1489.25 1357.15,-1489.64 1353.31,-1489.92 1349.46,-1490.12 1345.61,-1490.21 1341.76,-1490.21 1337.91,-1490.12 1334.06,-1489.92 1330.23,-1489.64 1326.39,-1489.25 1322.58,-1488.77 1318.77,-1488.2 1314.99,-1487.54 1311.23,-1486.79 1307.5,-1485.95 1303.81,-1485.03 1300.16,-1484.03 1296.55,-1482.94 1293,-1481.78 1289.51,-1480.55 1286.09,-1479.24 1282.75,-1477.87 1279.51,-1476.44 1276.36,-1474.94 1273.33,-1473.4 1270.42,-1471.8 1267.65,-1470.15 1265.03,-1468.47 1262.57,-1466.74 1260.28,-1464.99 1258.18,-1463.21 1256.28,-1461.4 1254.59,-1459.58 1253.12,-1457.74 1251.89,-1455.9 1250.91,-1454.06 1250.18,-1452.21 1249.73,-1450.38 1249.55,-1448.56 1249.66,-1446.75 1250.06,-1444.97 1250.76,-1443.21 1251.76,-1441.49 1253.07,-1439.8 1254.69,-1438.16 1256.61,-1436.56 1258.84,-1435.01 1261.38,-1433.52 1264.22,-1432.09 1267.35,-1430.72 1270.77,-1429.41 1274.46,-1428.18 1278.42,-1427.02 1282.64,-1425.93 1287.09,-1424.93 1291.77,-1424 1296.65,-1423.16 1301.72,-1422.41 1306.97,-1421.75 1312.36,-1421.18 1317.88,-1420.71 1323.5,-1420.32 1329.21,-1420.03 1334.98,-1419.84 1340.78,-1419.74 1346.59,-1419.74 1352.4,-1419.84"/>
<text text-anchor="start" x="1314.52" y="-1464.78" font-family="Times,serif" font-size="14.00">C3161035</text>
<text text-anchor="start" x="1289.06" y="-1450.78" font-family="Times,serif" font-size="14.00">Bayesian Networks</text>
<text text-anchor="start" x="1334.74" y="-1436.78" font-family="Times,serif" font-size="14.00">8:9</text>
</g>
<!-- id_27848238_DOT_6 -->
<g id="node6" class="node">
<title>id_27848238_DOT_6</title>
<polygon fill="bisque" stroke="bisque" points="1621.77,-1129.1 1627.4,-1129.3 1632.98,-1129.58 1638.47,-1129.97 1643.86,-1130.45 1649.13,-1131.02 1654.25,-1131.68 1659.2,-1132.43 1663.97,-1133.27 1668.54,-1134.19 1672.89,-1135.19 1677.01,-1136.28 1680.88,-1137.44 1684.48,-1138.67 1687.82,-1139.98 1690.88,-1141.35 1693.65,-1142.78 1696.13,-1144.28 1698.31,-1145.83 1700.19,-1147.42 1701.77,-1149.07 1703.05,-1150.75 1704.03,-1152.48 1704.71,-1154.23 1705.11,-1156.01 1705.21,-1157.82 1705.04,-1159.64 1704.59,-1161.48 1703.88,-1163.32 1702.93,-1165.16 1701.72,-1167.01 1700.29,-1168.84 1698.64,-1170.67 1696.78,-1172.47 1694.73,-1174.25 1692.5,-1176.01 1690.09,-1177.73 1687.53,-1179.42 1684.82,-1181.06 1681.98,-1182.66 1679.02,-1184.21 1675.95,-1185.7 1672.78,-1187.13 1669.52,-1188.5 1666.18,-1189.81 1662.77,-1191.04 1659.3,-1192.21 1655.78,-1193.29 1652.21,-1194.3 1648.6,-1195.22 1644.96,-1196.06 1641.29,-1196.81 1637.59,-1197.47 1633.88,-1198.04 1630.15,-1198.52 1626.41,-1198.9 1622.66,-1199.19 1618.9,-1199.38 1615.14,-1199.48 1611.38,-1199.48 1607.62,-1199.38 1603.86,-1199.19 1600.11,-1198.9 1596.37,-1198.52 1592.64,-1198.04 1588.93,-1197.47 1585.23,-1196.81 1581.56,-1196.06 1577.92,-1195.22 1574.31,-1194.3 1570.74,-1193.29 1567.22,-1192.21 1563.75,-1191.04 1560.34,-1189.81 1557,-1188.5 1553.74,-1187.13 1550.57,-1185.7 1547.5,-1184.21 1544.54,-1182.66 1541.7,-1181.06 1538.99,-1179.42 1536.43,-1177.73 1534.02,-1176.01 1531.79,-1174.25 1529.73,-1172.47 1527.88,-1170.67 1526.23,-1168.84 1524.79,-1167.01 1523.59,-1165.16 1522.63,-1163.32 1521.93,-1161.48 1521.48,-1159.64 1521.31,-1157.82 1521.41,-1156.01 1521.8,-1154.23 1522.49,-1152.48 1523.47,-1150.75 1524.74,-1149.07 1526.32,-1147.42 1528.21,-1145.83 1530.39,-1144.28 1532.86,-1142.78 1535.64,-1141.35 1538.7,-1139.98 1542.03,-1138.67 1545.64,-1137.44 1549.51,-1136.28 1553.63,-1135.19 1557.98,-1134.19 1562.54,-1133.27 1567.32,-1132.43 1572.27,-1131.68 1577.39,-1131.02 1582.66,-1130.45 1588.05,-1129.97 1593.54,-1129.58 1599.12,-1129.3 1604.75,-1129.1 1610.42,-1129.01 1616.1,-1129.01 1621.77,-1129.1"/>
<text text-anchor="start" x="1584.09" y="-1174.04" font-family="Times,serif" font-size="14.00">C3161035</text>
<text text-anchor="start" x="1560.19" y="-1160.04" font-family="Times,serif" font-size="14.00">Bayesian networks</text>
<text text-anchor="start" x="1597.31" y="-1146.04" font-family="Times,serif" font-size="14.00">87:88</text>
</g>
<!-- id_27848238_DOT_2&#45;&#45;id_27848238_DOT_6 -->
<g id="edge1" class="edge">
<title>id_27848238_DOT_2&#45;&#45;id_27848238_DOT_6</title>
<path fill="none" stroke="black" d="M1375.14,-1421.06C1427.5,-1364.59 1531.85,-1252.04 1583.25,-1196.61"/>
<text text-anchor="middle" x="1452.94" y="-1311.64" font-family="Times,serif" font-size="14.00">0.015794</text>
</g>
<!-- id_27848238_DOT_10 -->
<g id="node10" class="node">
<title>id_27848238_DOT_10</title>
<polygon fill="coral" stroke="coral" points="1111.11,-1720.95 1114.54,-1721.15 1117.94,-1721.44 1121.28,-1721.82 1124.56,-1722.3 1127.76,-1722.87 1130.88,-1723.53 1133.9,-1724.28 1136.8,-1725.12 1139.58,-1726.04 1142.23,-1727.05 1144.73,-1728.13 1147.08,-1729.29 1149.28,-1730.53 1151.31,-1731.83 1153.17,-1733.2 1154.86,-1734.64 1156.37,-1736.13 1157.7,-1737.68 1158.84,-1739.27 1159.8,-1740.92 1160.58,-1742.61 1161.18,-1744.33 1161.59,-1746.08 1161.83,-1747.87 1161.89,-1749.67 1161.79,-1751.49 1161.52,-1753.33 1161.09,-1755.17 1160.5,-1757.02 1159.77,-1758.86 1158.9,-1760.69 1157.9,-1762.52 1156.76,-1764.32 1155.52,-1766.1 1154.16,-1767.86 1152.69,-1769.58 1151.13,-1771.27 1149.49,-1772.91 1147.76,-1774.51 1145.96,-1776.06 1144.09,-1777.55 1142.16,-1778.99 1140.17,-1780.36 1138.14,-1781.66 1136.07,-1782.9 1133.96,-1784.06 1131.81,-1785.14 1129.64,-1786.15 1127.44,-1787.07 1125.23,-1787.91 1122.99,-1788.66 1120.74,-1789.32 1118.48,-1789.89 1116.22,-1790.37 1113.94,-1790.75 1111.66,-1791.04 1109.37,-1791.23 1107.08,-1791.33 1104.79,-1791.33 1102.5,-1791.23 1100.22,-1791.04 1097.93,-1790.75 1095.66,-1790.37 1093.39,-1789.89 1091.13,-1789.32 1088.88,-1788.66 1086.65,-1787.91 1084.43,-1787.07 1082.23,-1786.15 1080.06,-1785.14 1077.92,-1784.06 1075.81,-1782.9 1073.73,-1781.66 1071.7,-1780.36 1069.72,-1778.99 1067.79,-1777.55 1065.92,-1776.06 1064.12,-1774.51 1062.39,-1772.91 1060.74,-1771.27 1059.18,-1769.58 1057.72,-1767.86 1056.36,-1766.1 1055.11,-1764.32 1053.98,-1762.52 1052.97,-1760.69 1052.1,-1758.86 1051.37,-1757.02 1050.79,-1755.17 1050.36,-1753.33 1050.09,-1751.49 1049.98,-1749.67 1050.04,-1747.87 1050.28,-1746.08 1050.7,-1744.33 1051.29,-1742.61 1052.07,-1740.92 1053.03,-1739.27 1054.18,-1737.68 1055.5,-1736.13 1057.01,-1734.64 1058.7,-1733.2 1060.56,-1731.83 1062.59,-1730.53 1064.79,-1729.29 1067.14,-1728.13 1069.65,-1727.05 1072.29,-1726.04 1075.07,-1725.12 1077.98,-1724.28 1080.99,-1723.53 1084.11,-1722.87 1087.31,-1722.3 1090.59,-1721.82 1093.94,-1721.44 1097.33,-1721.15 1100.76,-1720.95 1104.21,-1720.86 1107.66,-1720.86 1111.11,-1720.95"/>
<text text-anchor="start" x="1076.77" y="-1765.89" font-family="Times,serif" font-size="14.00">C0037125</text>
<text text-anchor="start" x="1090.38" y="-1751.89" font-family="Times,serif" font-size="14.00">silver</text>
<text text-anchor="start" x="1082.99" y="-1737.89" font-family="Times,serif" font-size="14.00">187:187</text>
</g>
<!-- id_27848238_DOT_2&#45;&#45;id_27848238_DOT_10 -->
<g id="edge5" class="edge">
<title>id_27848238_DOT_2&#45;&#45;id_27848238_DOT_10</title>
<path fill="none" stroke="black" stroke-dasharray="1,5" d="M1317.56,-1488.06C1271.72,-1546.12 1177.35,-1665.64 1131.74,-1723.41"/>
<text text-anchor="middle" x="1198.4" y="-1608.54" font-family="Times,serif" font-size="14.00">0.902422</text>
</g>
<!-- id_27848238_DOT_3 -->
<g id="node3" class="node">
<title>id_27848238_DOT_3</title>
<polygon fill="blue" stroke="blue" points="2015.35,-1217.27 2018.78,-1217.47 2022.17,-1217.76 2025.52,-1218.14 2028.8,-1218.62 2032,-1219.19 2035.12,-1219.85 2038.13,-1220.6 2041.03,-1221.44 2043.81,-1222.36 2046.46,-1223.36 2048.97,-1224.45 2051.32,-1225.61 2053.52,-1226.84 2055.55,-1228.15 2057.41,-1229.52 2059.1,-1230.96 2060.6,-1232.45 2061.93,-1234 2063.08,-1235.59 2064.04,-1237.24 2064.82,-1238.92 2065.41,-1240.65 2065.83,-1242.4 2066.06,-1244.18 2066.13,-1245.99 2066.02,-1247.81 2065.75,-1249.65 2065.32,-1251.49 2064.74,-1253.34 2064.01,-1255.18 2063.14,-1257.01 2062.13,-1258.84 2061,-1260.64 2059.75,-1262.42 2058.39,-1264.18 2056.93,-1265.9 2055.37,-1267.59 2053.72,-1269.23 2051.99,-1270.83 2050.19,-1272.38 2048.32,-1273.87 2046.39,-1275.3 2044.41,-1276.68 2042.38,-1277.98 2040.3,-1279.21 2038.19,-1280.38 2036.05,-1281.46 2033.88,-1282.47 2031.68,-1283.39 2029.46,-1284.23 2027.23,-1284.98 2024.98,-1285.64 2022.72,-1286.21 2020.45,-1286.69 2018.17,-1287.07 2015.89,-1287.36 2013.61,-1287.55 2011.32,-1287.65 2009.03,-1287.65 2006.74,-1287.55 2004.45,-1287.36 2002.17,-1287.07 1999.89,-1286.69 1997.62,-1286.21 1995.36,-1285.64 1993.12,-1284.98 1990.88,-1284.23 1988.66,-1283.39 1986.47,-1282.47 1984.3,-1281.46 1982.15,-1280.38 1980.04,-1279.21 1977.97,-1277.98 1975.94,-1276.68 1973.95,-1275.3 1972.02,-1273.87 1970.15,-1272.38 1968.35,-1270.83 1966.62,-1269.23 1964.98,-1267.59 1963.42,-1265.9 1961.95,-1264.18 1960.59,-1262.42 1959.34,-1260.64 1958.21,-1258.84 1957.21,-1257.01 1956.34,-1255.18 1955.61,-1253.34 1955.02,-1251.49 1954.59,-1249.65 1954.32,-1247.81 1954.22,-1245.99 1954.28,-1244.18 1954.52,-1242.4 1954.93,-1240.65 1955.53,-1238.92 1956.31,-1237.24 1957.27,-1235.59 1958.41,-1234 1959.74,-1232.45 1961.25,-1230.96 1962.94,-1229.52 1964.8,-1228.15 1966.83,-1226.84 1969.02,-1225.61 1971.38,-1224.45 1973.88,-1223.36 1976.53,-1222.36 1979.31,-1221.44 1982.21,-1220.6 1985.23,-1219.85 1988.34,-1219.19 1991.55,-1218.62 1994.83,-1218.14 1998.17,-1217.76 2001.57,-1217.47 2004.99,-1217.27 2008.44,-1217.18 2011.9,-1217.18 2015.35,-1217.27"/>
<text text-anchor="start" x="1981" y="-1262.21" font-family="Times,serif" font-size="14.00">C0185014</text>
<text text-anchor="start" x="1987.62" y="-1248.21" font-family="Times,serif" font-size="14.00">banding</text>
<text text-anchor="start" x="1994.23" y="-1234.21" font-family="Times,serif" font-size="14.00">12:12</text>
</g>
<!-- id_27848238_DOT_3&#45;&#45;id_27848238_DOT_6 -->
<g id="edge6" class="edge">
<title>id_27848238_DOT_3&#45;&#45;id_27848238_DOT_6</title>
<path fill="none" stroke="black" stroke-dasharray="1,5" d="M1954.98,-1240.15C1884.9,-1224.59 1763.79,-1197.68 1686.16,-1180.44"/>
<text text-anchor="middle" x="1794.32" y="-1213.09" font-family="Times,serif" font-size="14.00">0.626036</text>
</g>
<!-- id_27848238_DOT_5&#45;&#45;id_27848238_DOT_10 -->
<g id="edge7" class="edge">
<title>id_27848238_DOT_5&#45;&#45;id_27848238_DOT_10</title>
<path fill="none" stroke="black" stroke-dasharray="1,5" d="M889.16,-2040.96C936.41,-1978.86 1037,-1846.69 1082.6,-1786.76"/>
<text text-anchor="middle" x="959.63" y="-1916.66" font-family="Times,serif" font-size="14.00">0.864419</text>
</g>
<!-- id_27848238_DOT_12 -->
<g id="node12" class="node">
<title>id_27848238_DOT_12</title>
<polygon fill="crimson" stroke="crimson" points="465.33,-2017.73 469.44,-2017.92 473.51,-2018.21 477.53,-2018.59 481.47,-2019.07 485.31,-2019.64 489.05,-2020.3 492.67,-2021.05 496.16,-2021.89 499.5,-2022.81 502.67,-2023.82 505.68,-2024.9 508.51,-2026.07 511.14,-2027.3 513.58,-2028.6 515.82,-2029.98 517.84,-2031.41 519.65,-2032.9 521.25,-2034.45 522.62,-2036.05 523.77,-2037.69 524.71,-2039.38 525.42,-2041.1 525.92,-2042.86 526.21,-2044.64 526.28,-2046.44 526.16,-2048.27 525.83,-2050.1 525.32,-2051.94 524.62,-2053.79 523.74,-2055.63 522.69,-2057.47 521.49,-2059.29 520.13,-2061.1 518.63,-2062.88 517,-2064.63 515.24,-2066.36 513.37,-2068.04 511.39,-2069.69 509.32,-2071.28 507.15,-2072.83 504.91,-2074.32 502.59,-2075.76 500.21,-2077.13 497.77,-2078.44 495.28,-2079.67 492.75,-2080.83 490.17,-2081.92 487.57,-2082.92 484.93,-2083.84 482.27,-2084.68 479.59,-2085.43 476.89,-2086.09 474.17,-2086.66 471.45,-2087.14 468.72,-2087.52 465.98,-2087.81 463.23,-2088.01 460.48,-2088.1 457.74,-2088.1 454.99,-2088.01 452.24,-2087.81 449.5,-2087.52 446.77,-2087.14 444.05,-2086.66 441.33,-2086.09 438.63,-2085.43 435.95,-2084.68 433.29,-2083.84 430.65,-2082.92 428.05,-2081.92 425.47,-2080.83 422.94,-2079.67 420.45,-2078.44 418.01,-2077.13 415.63,-2075.76 413.31,-2074.32 411.07,-2072.83 408.91,-2071.28 406.83,-2069.69 404.85,-2068.04 402.98,-2066.36 401.22,-2064.63 399.59,-2062.88 398.09,-2061.1 396.74,-2059.29 395.53,-2057.47 394.48,-2055.63 393.61,-2053.79 392.91,-2051.94 392.39,-2050.1 392.06,-2048.27 391.94,-2046.44 392.01,-2044.64 392.3,-2042.86 392.8,-2041.1 393.51,-2039.38 394.45,-2037.69 395.6,-2036.05 396.98,-2034.45 398.57,-2032.9 400.38,-2031.41 402.4,-2029.98 404.64,-2028.6 407.08,-2027.3 409.71,-2026.07 412.54,-2024.9 415.55,-2023.82 418.72,-2022.81 422.06,-2021.89 425.55,-2021.05 429.17,-2020.3 432.91,-2019.64 436.75,-2019.07 440.69,-2018.59 444.71,-2018.21 448.78,-2017.92 452.89,-2017.73 457.04,-2017.63 461.19,-2017.63 465.33,-2017.73"/>
<text text-anchor="start" x="429.94" y="-2062.67" font-family="Times,serif" font-size="14.00">C0027361</text>
<text text-anchor="start" x="422.57" y="-2048.67" font-family="Times,serif" font-size="14.00">non &#45; experts</text>
<text text-anchor="start" x="436.17" y="-2034.67" font-family="Times,serif" font-size="14.00">196:198</text>
</g>
<!-- id_27848238_DOT_5&#45;&#45;id_27848238_DOT_12 -->
<g id="edge8" class="edge">
<title>id_27848238_DOT_5&#45;&#45;id_27848238_DOT_12</title>
<path fill="none" stroke="black" stroke-dasharray="1,5" d="M796.43,-2070.84C720.59,-2066.8 598.16,-2060.28 523.52,-2056.3"/>
<text text-anchor="middle" x="633.72" y="-2066.37" font-family="Times,serif" font-size="14.00">0.920306</text>
</g>
<!-- id_27848238_DOT_9 -->
<g id="node9" class="node">
<title>id_27848238_DOT_9</title>
<polygon fill="chartreuse" stroke="chartreuse" points="1571.76,-735.22 1577.04,-735.41 1582.27,-735.7 1587.42,-736.09 1592.48,-736.56 1597.42,-737.13 1602.22,-737.8 1606.86,-738.55 1611.34,-739.38 1615.62,-740.31 1619.7,-741.31 1623.56,-742.4 1627.19,-743.56 1630.57,-744.79 1633.7,-746.1 1636.57,-747.47 1639.17,-748.9 1641.49,-750.4 1643.54,-751.94 1645.3,-753.54 1646.78,-755.19 1647.98,-756.87 1648.9,-758.59 1649.54,-760.35 1649.91,-762.13 1650.01,-763.94 1649.84,-765.76 1649.43,-767.59 1648.76,-769.44 1647.86,-771.28 1646.74,-773.13 1645.39,-774.96 1643.85,-776.78 1642.1,-778.59 1640.18,-780.37 1638.08,-782.13 1635.83,-783.85 1633.43,-785.53 1630.89,-787.18 1628.22,-788.78 1625.45,-790.32 1622.57,-791.82 1619.59,-793.25 1616.54,-794.62 1613.41,-795.93 1610.21,-797.16 1606.96,-798.32 1603.65,-799.41 1600.31,-800.41 1596.92,-801.34 1593.51,-802.17 1590.06,-802.92 1586.6,-803.59 1583.12,-804.16 1579.62,-804.63 1576.11,-805.02 1572.59,-805.31 1569.07,-805.5 1565.54,-805.6 1562.02,-805.6 1558.49,-805.5 1554.97,-805.31 1551.45,-805.02 1547.94,-804.63 1544.44,-804.16 1540.96,-803.59 1537.5,-802.92 1534.05,-802.17 1530.64,-801.34 1527.25,-800.41 1523.91,-799.41 1520.6,-798.32 1517.35,-797.16 1514.15,-795.93 1511.02,-794.62 1507.97,-793.25 1504.99,-791.82 1502.11,-790.32 1499.34,-788.78 1496.67,-787.18 1494.14,-785.53 1491.73,-783.85 1489.48,-782.13 1487.38,-780.37 1485.46,-778.59 1483.72,-776.78 1482.17,-774.96 1480.82,-773.13 1479.7,-771.28 1478.8,-769.44 1478.14,-767.59 1477.72,-765.76 1477.56,-763.94 1477.65,-762.13 1478.02,-760.35 1478.66,-758.59 1479.58,-756.87 1480.78,-755.19 1482.26,-753.54 1484.02,-751.94 1486.07,-750.4 1488.39,-748.9 1490.99,-747.47 1493.86,-746.1 1496.99,-744.79 1500.37,-743.56 1504,-742.4 1507.86,-741.31 1511.94,-740.31 1516.22,-739.38 1520.7,-738.55 1525.34,-737.8 1530.15,-737.13 1535.08,-736.56 1540.14,-736.09 1545.29,-735.7 1550.52,-735.41 1555.8,-735.22 1561.12,-735.12 1566.44,-735.12 1571.76,-735.22"/>
<text text-anchor="start" x="1534.87" y="-780.16" font-family="Times,serif" font-size="14.00">C1138408</text>
<text text-anchor="start" x="1514.6" y="-766.16" font-family="Times,serif" font-size="14.00">carbon nanotubes</text>
<text text-anchor="start" x="1540.84" y="-752.16" font-family="Times,serif" font-size="14.00">184:185</text>
</g>
<!-- id_27848238_DOT_6&#45;&#45;id_27848238_DOT_9 -->
<g id="edge9" class="edge">
<title>id_27848238_DOT_6&#45;&#45;id_27848238_DOT_9</title>
<path fill="none" stroke="black" stroke-dasharray="1,5" d="M1608.82,-1128.94C1599.43,-1054.17 1577.62,-880.55 1568.22,-805.72"/>
<text text-anchor="middle" x="1562.27" y="-970.13" font-family="Times,serif" font-size="14.00">0.941391</text>
</g>
<!-- id_27848238_DOT_7 -->
<g id="node7" class="node">
<title>id_27848238_DOT_7</title>
<polygon fill="cadetblue" stroke="cadetblue" points="1577.5,-361.05 1580.92,-361.25 1584.32,-361.53 1587.66,-361.92 1590.94,-362.4 1594.15,-362.97 1597.26,-363.63 1600.28,-364.38 1603.18,-365.22 1605.96,-366.14 1608.61,-367.14 1611.11,-368.23 1613.47,-369.39 1615.66,-370.62 1617.69,-371.93 1619.56,-373.3 1621.24,-374.73 1622.75,-376.23 1624.08,-377.78 1625.22,-379.37 1626.18,-381.02 1626.96,-382.7 1627.56,-384.43 1627.97,-386.18 1628.21,-387.96 1628.27,-389.77 1628.17,-391.59 1627.9,-393.43 1627.47,-395.27 1626.88,-397.11 1626.15,-398.96 1625.28,-400.79 1624.28,-402.62 1623.15,-404.42 1621.9,-406.2 1620.54,-407.96 1619.07,-409.68 1617.52,-411.37 1615.87,-413.01 1614.14,-414.61 1612.34,-416.16 1610.47,-417.65 1608.54,-419.08 1606.56,-420.45 1604.52,-421.76 1602.45,-422.99 1600.34,-424.16 1598.19,-425.24 1596.02,-426.25 1593.83,-427.17 1591.61,-428.01 1589.38,-428.76 1587.13,-429.42 1584.87,-429.99 1582.6,-430.47 1580.32,-430.85 1578.04,-431.14 1575.75,-431.33 1573.46,-431.43 1571.17,-431.43 1568.89,-431.33 1566.6,-431.14 1564.32,-430.85 1562.04,-430.47 1559.77,-429.99 1557.51,-429.42 1555.26,-428.76 1553.03,-428.01 1550.81,-427.17 1548.61,-426.25 1546.44,-425.24 1544.3,-424.16 1542.19,-422.99 1540.11,-421.76 1538.08,-420.45 1536.1,-419.08 1534.17,-417.65 1532.3,-416.16 1530.5,-414.61 1528.77,-413.01 1527.12,-411.37 1525.56,-409.68 1524.1,-407.96 1522.74,-406.2 1521.49,-404.42 1520.36,-402.62 1519.35,-400.79 1518.48,-398.96 1517.75,-397.11 1517.17,-395.27 1516.74,-393.43 1516.47,-391.59 1516.36,-389.77 1516.43,-387.96 1516.66,-386.18 1517.08,-384.43 1517.68,-382.7 1518.45,-381.02 1519.41,-379.37 1520.56,-377.78 1521.89,-376.23 1523.39,-374.73 1525.08,-373.3 1526.94,-371.93 1528.97,-370.62 1531.17,-369.39 1533.52,-368.23 1536.03,-367.14 1538.68,-366.14 1541.46,-365.22 1544.36,-364.38 1547.37,-363.63 1550.49,-362.97 1553.69,-362.4 1556.98,-361.92 1560.32,-361.53 1563.71,-361.25 1567.14,-361.05 1570.59,-360.96 1574.05,-360.96 1577.5,-361.05"/>
<text text-anchor="start" x="1543.15" y="-405.99" font-family="Times,serif" font-size="14.00">C0150098</text>
<text text-anchor="start" x="1548.41" y="-391.99" font-family="Times,serif" font-size="14.00">data sets</text>
<text text-anchor="start" x="1549.37" y="-377.99" font-family="Times,serif" font-size="14.00">124:125</text>
</g>
<!-- id_27848238_DOT_8 -->
<g id="node8" class="node">
<title>id_27848238_DOT_8</title>
<polygon fill="cadetblue" stroke="cadetblue" points="1642.94,-0.23 1646.37,-0.42 1649.76,-0.71 1653.11,-1.09 1656.39,-1.57 1659.59,-2.14 1662.71,-2.8 1665.72,-3.55 1668.63,-4.39 1671.41,-5.31 1674.05,-6.32 1676.56,-7.4 1678.91,-8.57 1681.11,-9.8 1683.14,-11.1 1685,-12.48 1686.69,-13.91 1688.2,-15.4 1689.52,-16.95 1690.67,-18.55 1691.63,-20.19 1692.41,-21.88 1693,-23.6 1693.42,-25.36 1693.66,-27.14 1693.72,-28.94 1693.62,-30.77 1693.35,-32.6 1692.92,-34.44 1692.33,-36.29 1691.6,-38.13 1690.73,-39.97 1689.72,-41.79 1688.59,-43.6 1687.35,-45.38 1685.99,-47.13 1684.52,-48.86 1682.96,-50.54 1681.32,-52.19 1679.59,-53.78 1677.78,-55.33 1675.92,-56.82 1673.99,-58.26 1672,-59.63 1669.97,-60.94 1667.9,-62.17 1665.79,-63.33 1663.64,-64.42 1661.47,-65.42 1659.27,-66.34 1657.06,-67.18 1654.82,-67.93 1652.57,-68.59 1650.31,-69.16 1648.04,-69.64 1645.77,-70.02 1643.49,-70.31 1641.2,-70.51 1638.91,-70.6 1636.62,-70.6 1634.33,-70.51 1632.05,-70.31 1629.76,-70.02 1627.49,-69.64 1625.22,-69.16 1622.96,-68.59 1620.71,-67.93 1618.47,-67.18 1616.26,-66.34 1614.06,-65.42 1611.89,-64.42 1609.75,-63.33 1607.63,-62.17 1605.56,-60.94 1603.53,-59.63 1601.55,-58.26 1599.62,-56.82 1597.75,-55.33 1595.94,-53.78 1594.22,-52.19 1592.57,-50.54 1591.01,-48.86 1589.55,-47.13 1588.19,-45.38 1586.94,-43.6 1585.81,-41.79 1584.8,-39.97 1583.93,-38.13 1583.2,-36.29 1582.62,-34.44 1582.19,-32.6 1581.91,-30.77 1581.81,-28.94 1581.87,-27.14 1582.11,-25.36 1582.53,-23.6 1583.12,-21.88 1583.9,-20.19 1584.86,-18.55 1586.01,-16.95 1587.33,-15.4 1588.84,-13.91 1590.53,-12.48 1592.39,-11.1 1594.42,-9.8 1596.62,-8.57 1598.97,-7.4 1601.48,-6.32 1604.12,-5.31 1606.9,-4.39 1609.81,-3.55 1612.82,-2.8 1615.94,-2.14 1619.14,-1.57 1622.42,-1.09 1625.77,-0.71 1629.16,-0.42 1632.59,-0.23 1636.04,-0.13 1639.49,-0.13 1642.94,-0.23"/>
<text text-anchor="start" x="1608.6" y="-45.17" font-family="Times,serif" font-size="14.00">C0150098</text>
<text text-anchor="start" x="1613.86" y="-31.17" font-family="Times,serif" font-size="14.00">data sets</text>
<text text-anchor="start" x="1614.82" y="-17.17" font-family="Times,serif" font-size="14.00">128:129</text>
</g>
<!-- id_27848238_DOT_7&#45;&#45;id_27848238_DOT_8 -->
<g id="edge2" class="edge">
<title>id_27848238_DOT_7&#45;&#45;id_27848238_DOT_8</title>
<path fill="none" stroke="black" d="M1578.71,-360.94C1591.24,-291.87 1618.88,-139.47 1631.39,-70.5"/>
<text text-anchor="middle" x="1578.8" y="-218.52" font-family="Times,serif" font-size="14.00">0.007037</text>
</g>
<!-- id_27848238_DOT_7&#45;&#45;id_27848238_DOT_9 -->
<g id="edge10" class="edge">
<title>id_27848238_DOT_7&#45;&#45;id_27848238_DOT_9</title>
<path fill="none" stroke="black" stroke-dasharray="1,5" d="M1571.51,-431.73C1569.88,-503.24 1566.21,-663.75 1564.59,-735.06"/>
<text text-anchor="middle" x="1541.8" y="-586.19" font-family="Times,serif" font-size="14.00">0.871649</text>
</g>
<!-- id_27848238_DOT_11 -->
<g id="node11" class="node">
<title>id_27848238_DOT_11</title>
<polygon fill="cornflowerblue" stroke="cornflowerblue" points="88.97,-2039.23 93.96,-2039.42 98.9,-2039.71 103.76,-2040.09 108.53,-2040.57 113.19,-2041.14 117.72,-2041.8 122.11,-2042.55 126.33,-2043.39 130.38,-2044.31 134.23,-2045.32 137.87,-2046.4 141.29,-2047.57 144.49,-2048.8 147.44,-2050.11 150.15,-2051.48 152.6,-2052.91 154.8,-2054.4 156.73,-2055.95 158.39,-2057.55 159.79,-2059.19 160.92,-2060.88 161.79,-2062.6 162.39,-2064.36 162.74,-2066.14 162.83,-2067.94 162.68,-2069.77 162.28,-2071.6 161.66,-2073.45 160.81,-2075.29 159.75,-2077.13 158.48,-2078.97 157.02,-2080.79 155.37,-2082.6 153.56,-2084.38 151.58,-2086.13 149.45,-2087.86 147.18,-2089.54 144.78,-2091.19 142.27,-2092.79 139.65,-2094.33 136.93,-2095.83 134.12,-2097.26 131.24,-2098.63 128.29,-2099.94 125.27,-2101.17 122.2,-2102.33 119.08,-2103.42 115.92,-2104.42 112.73,-2105.34 109.5,-2106.18 106.25,-2106.93 102.98,-2107.59 99.69,-2108.16 96.39,-2108.64 93.08,-2109.03 89.76,-2109.31 86.44,-2109.51 83.11,-2109.6 79.78,-2109.6 76.45,-2109.51 73.12,-2109.31 69.81,-2109.03 66.49,-2108.64 63.19,-2108.16 59.9,-2107.59 56.63,-2106.93 53.39,-2106.18 50.16,-2105.34 46.97,-2104.42 43.81,-2103.42 40.69,-2102.33 37.62,-2101.17 34.6,-2099.94 31.65,-2098.63 28.76,-2097.26 25.96,-2095.83 23.24,-2094.33 20.62,-2092.79 18.1,-2091.19 15.71,-2089.54 13.44,-2087.86 11.31,-2086.13 9.33,-2084.38 7.51,-2082.6 5.87,-2080.79 4.41,-2078.97 3.14,-2077.13 2.08,-2075.29 1.23,-2073.45 0.6,-2071.6 0.21,-2069.77 0.06,-2067.94 0.15,-2066.14 0.5,-2064.36 1.1,-2062.6 1.97,-2060.88 3.1,-2059.19 4.5,-2057.55 6.16,-2055.95 8.09,-2054.4 10.29,-2052.91 12.74,-2051.48 15.45,-2050.11 18.4,-2048.8 21.6,-2047.57 25.02,-2046.4 28.66,-2045.32 32.51,-2044.31 36.56,-2043.39 40.78,-2042.55 45.16,-2041.8 49.7,-2041.14 54.36,-2040.57 59.13,-2040.09 63.99,-2039.71 68.93,-2039.42 73.91,-2039.23 78.93,-2039.13 83.96,-2039.13 88.97,-2039.23"/>
<text text-anchor="start" x="52.27" y="-2084.17" font-family="Times,serif" font-size="14.00">C0076733</text>
<text text-anchor="start" x="35.37" y="-2070.17" font-family="Times,serif" font-size="14.00">titanium dioxide</text>
<text text-anchor="start" x="58.5" y="-2056.17" font-family="Times,serif" font-size="14.00">189:190</text>
</g>
<!-- id_27848238_DOT_11&#45;&#45;id_27848238_DOT_12 -->
<g id="edge11" class="edge">
<title>id_27848238_DOT_11&#45;&#45;id_27848238_DOT_12</title>
<path fill="none" stroke="black" stroke-dasharray="1,5" d="M162.93,-2069.73C232.42,-2065.77 330.97,-2060.16 394.97,-2056.52"/>
<text text-anchor="middle" x="252.7" y="-2065.92" font-family="Times,serif" font-size="14.00">0.805952</text>
</g>
</g>
</svg>
