<?xml version="1.0" encoding="UTF-8" standalone="no"?>
<!DOCTYPE svg PUBLIC "-//W3C//DTD SVG 1.1//EN"
 "http://www.w3.org/Graphics/SVG/1.1/DTD/svg11.dtd">
<!-- Generated by graphviz version 2.42.3 (20191010.1750)
 -->
<!-- Title: MST Pages: 1 -->
<svg width="3828pt" height="5114pt"
 viewBox="0.00 0.00 3828.40 5113.93" xmlns="http://www.w3.org/2000/svg" xmlns:xlink="http://www.w3.org/1999/xlink">
<g id="graph0" class="graph" transform="scale(1 1) rotate(0) translate(4 5109.93)">
<title>MST</title>
<polygon fill="white" stroke="transparent" points="-4,4 -4,-5109.93 3824.4,-5109.93 3824.4,4 -4,4"/>
<!-- id_27872609_DOT_1 -->
<g id="node1" class="node">
<title>id_27872609_DOT_1</title>
<polygon fill="aquamarine" stroke="aquamarine" points="431.73,-996.26 436.07,-996.45 440.35,-996.74 444.58,-997.12 448.73,-997.6 452.78,-998.17 456.72,-998.83 460.53,-999.58 464.2,-1000.42 467.71,-1001.34 471.06,-1002.35 474.22,-1003.43 477.2,-1004.59 479.97,-1005.83 482.54,-1007.13 484.89,-1008.5 487.02,-1009.94 488.93,-1011.43 490.61,-1012.98 492.06,-1014.58 493.27,-1016.22 494.25,-1017.91 495.01,-1019.63 495.53,-1021.39 495.83,-1023.17 495.91,-1024.97 495.78,-1026.8 495.44,-1028.63 494.89,-1030.47 494.16,-1032.32 493.23,-1034.16 492.13,-1036 490.86,-1037.82 489.43,-1039.62 487.85,-1041.41 486.13,-1043.16 484.29,-1044.88 482.31,-1046.57 480.23,-1048.21 478.05,-1049.81 475.77,-1051.36 473.41,-1052.85 470.97,-1054.29 468.46,-1055.66 465.89,-1056.96 463.27,-1058.2 460.6,-1059.36 457.89,-1060.44 455.15,-1061.45 452.37,-1062.37 449.57,-1063.21 446.75,-1063.96 443.91,-1064.62 441.05,-1065.19 438.18,-1065.67 435.3,-1066.05 432.42,-1066.34 429.53,-1066.54 426.63,-1066.63 423.74,-1066.63 420.85,-1066.54 417.96,-1066.34 415.07,-1066.05 412.2,-1065.67 409.33,-1065.19 406.47,-1064.62 403.63,-1063.96 400.81,-1063.21 398,-1062.37 395.23,-1061.45 392.48,-1060.44 389.77,-1059.36 387.1,-1058.2 384.48,-1056.96 381.91,-1055.66 379.41,-1054.29 376.97,-1052.85 374.61,-1051.36 372.33,-1049.81 370.14,-1048.21 368.06,-1046.57 366.09,-1044.88 364.24,-1043.16 362.52,-1041.41 360.94,-1039.62 359.51,-1037.82 358.24,-1036 357.14,-1034.16 356.22,-1032.32 355.48,-1030.47 354.94,-1028.63 354.6,-1026.8 354.46,-1024.97 354.54,-1023.17 354.84,-1021.39 355.37,-1019.63 356.12,-1017.91 357.11,-1016.22 358.32,-1014.58 359.77,-1012.98 361.44,-1011.43 363.35,-1009.94 365.48,-1008.5 367.84,-1007.13 370.4,-1005.83 373.18,-1004.59 376.15,-1003.43 379.32,-1002.35 382.67,-1001.34 386.18,-1000.42 389.85,-999.58 393.66,-998.83 397.6,-998.17 401.65,-997.6 405.8,-997.12 410.02,-996.74 414.31,-996.45 418.64,-996.26 423,-996.16 427.37,-996.16 431.73,-996.26"/>
<text text-anchor="start" x="396.02" y="-1041.2" font-family="Times,serif" font-size="14.00">C0879427</text>
<text text-anchor="start" x="386.3" y="-1027.2" font-family="Times,serif" font-size="14.00">Panitumumab</text>
<text text-anchor="start" x="416.24" y="-1013.2" font-family="Times,serif" font-size="14.00">0:0</text>
</g>
<!-- id_27872609_DOT_12 -->
<g id="node12" class="node">
<title>id_27872609_DOT_12</title>
<polygon fill="aquamarine" stroke="aquamarine" points="817.91,-1126.9 822.2,-1127.09 826.45,-1127.38 830.63,-1127.76 834.74,-1128.24 838.75,-1128.81 842.65,-1129.47 846.43,-1130.22 850.06,-1131.06 853.54,-1131.98 856.85,-1132.99 859.99,-1134.07 862.94,-1135.23 865.68,-1136.47 868.23,-1137.77 870.56,-1139.14 872.67,-1140.58 874.56,-1142.07 876.22,-1143.62 877.65,-1145.22 878.85,-1146.86 879.83,-1148.55 880.57,-1150.27 881.09,-1152.03 881.39,-1153.81 881.47,-1155.61 881.34,-1157.44 881,-1159.27 880.46,-1161.11 879.73,-1162.96 878.82,-1164.8 877.73,-1166.64 876.47,-1168.46 875.05,-1170.26 873.49,-1172.05 871.79,-1173.8 869.96,-1175.52 868,-1177.21 865.94,-1178.85 863.78,-1180.45 861.52,-1182 859.18,-1183.49 856.77,-1184.93 854.28,-1186.3 851.74,-1187.6 849.15,-1188.84 846.5,-1190 843.82,-1191.08 841.1,-1192.09 838.35,-1193.01 835.58,-1193.85 832.78,-1194.6 829.97,-1195.26 827.14,-1195.83 824.3,-1196.31 821.45,-1196.69 818.59,-1196.98 815.73,-1197.17 812.86,-1197.27 810,-1197.27 807.13,-1197.17 804.27,-1196.98 801.41,-1196.69 798.56,-1196.31 795.72,-1195.83 792.89,-1195.26 790.08,-1194.6 787.28,-1193.85 784.51,-1193.01 781.76,-1192.09 779.04,-1191.08 776.36,-1190 773.71,-1188.84 771.12,-1187.6 768.57,-1186.3 766.09,-1184.93 763.68,-1183.49 761.34,-1182 759.08,-1180.45 756.92,-1178.85 754.86,-1177.21 752.9,-1175.52 751.07,-1173.8 749.37,-1172.05 747.81,-1170.26 746.39,-1168.46 745.13,-1166.64 744.04,-1164.8 743.13,-1162.96 742.4,-1161.11 741.86,-1159.27 741.52,-1157.44 741.39,-1155.61 741.47,-1153.81 741.77,-1152.03 742.29,-1150.27 743.03,-1148.55 744.01,-1146.86 745.21,-1145.22 746.64,-1143.62 748.3,-1142.07 750.19,-1140.58 752.3,-1139.14 754.63,-1137.77 757.18,-1136.47 759.92,-1135.23 762.87,-1134.07 766.01,-1132.99 769.32,-1131.98 772.8,-1131.06 776.43,-1130.22 780.21,-1129.47 784.11,-1128.81 788.12,-1128.24 792.23,-1127.76 796.41,-1127.38 800.66,-1127.09 804.95,-1126.9 809.27,-1126.8 813.59,-1126.8 817.91,-1126.9"/>
<text text-anchor="start" x="782.26" y="-1171.84" font-family="Times,serif" font-size="14.00">C0879427</text>
<text text-anchor="start" x="772.94" y="-1157.84" font-family="Times,serif" font-size="14.00">panitumumab</text>
<text text-anchor="start" x="795.48" y="-1143.84" font-family="Times,serif" font-size="14.00">62:62</text>
</g>
<!-- id_27872609_DOT_1&#45;&#45;id_27872609_DOT_12 -->
<g id="edge1" class="edge">
<title>id_27872609_DOT_1&#45;&#45;id_27872609_DOT_12</title>
<path fill="none" stroke="black" d="M478.89,-1049.56C549.78,-1073.54 674.34,-1115.67 749.24,-1141"/>
<text text-anchor="middle" x="587.82" y="-1098.08" font-family="Times,serif" font-size="14.00">0.003061</text>
</g>
<!-- id_27872609_DOT_28 -->
<g id="node28" class="node">
<title>id_27872609_DOT_28</title>
<polygon fill="aquamarine" stroke="aquamarine" points="76.5,-852.45 80.79,-852.64 85.04,-852.93 89.23,-853.31 93.33,-853.79 97.34,-854.36 101.24,-855.02 105.02,-855.77 108.65,-856.61 112.13,-857.53 115.44,-858.54 118.58,-859.62 121.53,-860.78 124.28,-862.02 126.82,-863.32 129.15,-864.69 131.26,-866.13 133.15,-867.62 134.81,-869.17 136.24,-870.77 137.45,-872.41 138.42,-874.1 139.16,-875.82 139.68,-877.57 139.98,-879.36 140.06,-881.16 139.93,-882.98 139.59,-884.82 139.05,-886.66 138.32,-888.51 137.41,-890.35 136.32,-892.18 135.06,-894.01 133.64,-895.81 132.08,-897.59 130.38,-899.35 128.55,-901.07 126.59,-902.76 124.53,-904.4 122.37,-906 120.11,-907.55 117.77,-909.04 115.36,-910.48 112.88,-911.85 110.33,-913.15 107.74,-914.39 105.09,-915.55 102.41,-916.63 99.69,-917.64 96.94,-918.56 94.17,-919.4 91.37,-920.15 88.56,-920.81 85.73,-921.38 82.89,-921.86 80.04,-922.24 77.18,-922.53 74.32,-922.72 71.45,-922.82 68.59,-922.82 65.72,-922.72 62.86,-922.53 60,-922.24 57.15,-921.86 54.31,-921.38 51.48,-920.81 48.67,-920.15 45.87,-919.4 43.1,-918.56 40.35,-917.64 37.63,-916.63 34.95,-915.55 32.3,-914.39 29.71,-913.15 27.17,-911.85 24.68,-910.48 22.27,-909.04 19.93,-907.55 17.67,-906 15.51,-904.4 13.45,-902.76 11.5,-901.07 9.66,-899.35 7.96,-897.59 6.4,-895.81 4.98,-894.01 3.72,-892.18 2.63,-890.35 1.72,-888.51 0.99,-886.66 0.45,-884.82 0.11,-882.98 -0.02,-881.16 0.06,-879.36 0.36,-877.57 0.88,-875.82 1.62,-874.1 2.6,-872.41 3.8,-870.77 5.23,-869.17 6.89,-867.62 8.78,-866.13 10.89,-864.69 13.22,-863.32 15.77,-862.02 18.52,-860.78 21.46,-859.62 24.6,-858.54 27.91,-857.53 31.39,-856.61 35.02,-855.77 38.8,-855.02 42.7,-854.36 46.71,-853.79 50.82,-853.31 55,-852.93 59.25,-852.64 63.54,-852.45 67.86,-852.35 72.18,-852.35 76.5,-852.45"/>
<text text-anchor="start" x="40.85" y="-897.38" font-family="Times,serif" font-size="14.00">C0879427</text>
<text text-anchor="start" x="31.53" y="-883.38" font-family="Times,serif" font-size="14.00">panitumumab</text>
<text text-anchor="start" x="47.08" y="-869.38" font-family="Times,serif" font-size="14.00">160:160</text>
</g>
<!-- id_27872609_DOT_1&#45;&#45;id_27872609_DOT_28 -->
<g id="edge2" class="edge">
<title>id_27872609_DOT_1&#45;&#45;id_27872609_DOT_28</title>
<path fill="none" stroke="black" d="M366.54,-1007.65C297.68,-979.77 184.66,-934 119.86,-907.76"/>
<text text-anchor="middle" x="216.95" y="-960.51" font-family="Times,serif" font-size="14.00">0.002638</text>
</g>
<!-- id_27872609_DOT_2 -->
<g id="node2" class="node">
<title>id_27872609_DOT_2</title>
<polygon fill="bisque" stroke="bisque" points="1555.21,-2315.98 1560.11,-2316.18 1564.96,-2316.47 1569.73,-2316.85 1574.42,-2317.33 1579,-2317.9 1583.45,-2318.56 1587.75,-2319.31 1591.9,-2320.15 1595.87,-2321.07 1599.65,-2322.08 1603.23,-2323.16 1606.59,-2324.32 1609.73,-2325.56 1612.63,-2326.86 1615.29,-2328.23 1617.7,-2329.67 1619.85,-2331.16 1621.75,-2332.71 1623.38,-2334.3 1624.75,-2335.95 1625.86,-2337.63 1626.72,-2339.36 1627.31,-2341.11 1627.65,-2342.9 1627.74,-2344.7 1627.59,-2346.52 1627.2,-2348.36 1626.59,-2350.2 1625.75,-2352.05 1624.71,-2353.89 1623.47,-2355.72 1622.03,-2357.55 1620.42,-2359.35 1618.63,-2361.13 1616.69,-2362.89 1614.6,-2364.61 1612.37,-2366.3 1610.02,-2367.94 1607.55,-2369.54 1604.98,-2371.09 1602.31,-2372.58 1599.55,-2374.02 1596.72,-2375.39 1593.82,-2376.69 1590.85,-2377.93 1587.84,-2379.09 1584.78,-2380.17 1581.67,-2381.18 1578.54,-2382.1 1575.37,-2382.94 1572.18,-2383.69 1568.97,-2384.35 1565.74,-2384.92 1562.5,-2385.4 1559.25,-2385.78 1555.99,-2386.07 1552.72,-2386.26 1549.45,-2386.36 1546.18,-2386.36 1542.92,-2386.26 1539.65,-2386.07 1536.39,-2385.78 1533.14,-2385.4 1529.9,-2384.92 1526.67,-2384.35 1523.46,-2383.69 1520.27,-2382.94 1517.1,-2382.1 1513.96,-2381.18 1510.86,-2380.17 1507.8,-2379.09 1504.78,-2377.93 1501.82,-2376.69 1498.92,-2375.39 1496.09,-2374.02 1493.33,-2372.58 1490.66,-2371.09 1488.09,-2369.54 1485.62,-2367.94 1483.26,-2366.3 1481.04,-2364.61 1478.95,-2362.89 1477,-2361.13 1475.22,-2359.35 1473.61,-2357.55 1472.17,-2355.72 1470.93,-2353.89 1469.88,-2352.05 1469.05,-2350.2 1468.43,-2348.36 1468.05,-2346.52 1467.9,-2344.7 1467.99,-2342.9 1468.33,-2341.11 1468.92,-2339.36 1469.77,-2337.63 1470.88,-2335.95 1472.26,-2334.3 1473.89,-2332.71 1475.79,-2331.16 1477.94,-2329.67 1480.35,-2328.23 1483.01,-2326.86 1485.91,-2325.56 1489.05,-2324.32 1492.41,-2323.16 1495.99,-2322.08 1499.77,-2321.07 1503.74,-2320.15 1507.88,-2319.31 1512.19,-2318.56 1516.64,-2317.9 1521.22,-2317.33 1525.9,-2316.85 1530.68,-2316.47 1535.53,-2316.18 1540.42,-2315.98 1545.35,-2315.89 1550.29,-2315.89 1555.21,-2315.98"/>
<text text-anchor="start" x="1518.65" y="-2360.92" font-family="Times,serif" font-size="14.00">C0085584</text>
<text text-anchor="start" x="1502.73" y="-2346.92" font-family="Times,serif" font-size="14.00">Encephalopathy</text>
<text text-anchor="start" x="1538.87" y="-2332.92" font-family="Times,serif" font-size="14.00">3:3</text>
</g>
<!-- id_27872609_DOT_10 -->
<g id="node10" class="node">
<title>id_27872609_DOT_10</title>
<polygon fill="crimson" stroke="crimson" points="1792.11,-2651.76 1800.33,-2651.96 1808.47,-2652.24 1816.49,-2652.63 1824.36,-2653.11 1832.04,-2653.68 1839.52,-2654.34 1846.75,-2655.09 1853.71,-2655.93 1860.38,-2656.85 1866.73,-2657.85 1872.74,-2658.94 1878.39,-2660.1 1883.65,-2661.33 1888.53,-2662.64 1892.99,-2664.01 1897.04,-2665.44 1900.65,-2666.94 1903.84,-2668.48 1906.58,-2670.08 1908.89,-2671.73 1910.76,-2673.41 1912.18,-2675.14 1913.18,-2676.89 1913.75,-2678.67 1913.91,-2680.48 1913.65,-2682.3 1913,-2684.14 1911.97,-2685.98 1910.57,-2687.82 1908.82,-2689.67 1906.73,-2691.5 1904.32,-2693.32 1901.61,-2695.13 1898.61,-2696.91 1895.35,-2698.67 1891.84,-2700.39 1888.1,-2702.08 1884.15,-2703.72 1880,-2705.32 1875.68,-2706.87 1871.19,-2708.36 1866.57,-2709.79 1861.81,-2711.16 1856.94,-2712.47 1851.96,-2713.7 1846.9,-2714.87 1841.75,-2715.95 1836.54,-2716.95 1831.28,-2717.88 1825.96,-2718.72 1820.6,-2719.47 1815.21,-2720.13 1809.79,-2720.7 1804.34,-2721.17 1798.88,-2721.56 1793.41,-2721.85 1787.92,-2722.04 1782.43,-2722.14 1776.94,-2722.14 1771.45,-2722.04 1765.97,-2721.85 1760.49,-2721.56 1755.03,-2721.17 1749.59,-2720.7 1744.17,-2720.13 1738.77,-2719.47 1733.42,-2718.72 1728.1,-2717.88 1722.83,-2716.95 1717.62,-2715.95 1712.48,-2714.87 1707.41,-2713.7 1702.44,-2712.47 1697.57,-2711.16 1692.81,-2709.79 1688.18,-2708.36 1683.7,-2706.87 1679.38,-2705.32 1675.23,-2703.72 1671.28,-2702.08 1667.54,-2700.39 1664.03,-2698.67 1660.77,-2696.91 1657.77,-2695.13 1655.06,-2693.32 1652.65,-2691.5 1650.56,-2689.67 1648.8,-2687.82 1647.4,-2685.98 1646.37,-2684.14 1645.72,-2682.3 1645.47,-2680.48 1645.62,-2678.67 1646.19,-2676.89 1647.19,-2675.14 1648.62,-2673.41 1650.49,-2671.73 1652.79,-2670.08 1655.54,-2668.48 1658.72,-2666.94 1662.34,-2665.44 1666.38,-2664.01 1670.85,-2662.64 1675.72,-2661.33 1680.99,-2660.1 1686.64,-2658.94 1692.64,-2657.85 1698.99,-2656.85 1705.66,-2655.93 1712.62,-2655.09 1719.86,-2654.34 1727.33,-2653.68 1735.02,-2653.11 1742.89,-2652.63 1750.91,-2652.24 1759.04,-2651.96 1767.27,-2651.76 1775.54,-2651.67 1783.83,-2651.67 1792.11,-2651.76"/>
<text text-anchor="start" x="1750.52" y="-2696.7" font-family="Times,serif" font-size="14.00">C4014441</text>
<text text-anchor="start" x="1698.64" y="-2682.7" font-family="Times,serif" font-size="14.00">acute &#45; onset encephalopathy</text>
<text text-anchor="start" x="1763.74" y="-2668.7" font-family="Times,serif" font-size="14.00">49:52</text>
</g>
<!-- id_27872609_DOT_2&#45;&#45;id_27872609_DOT_10 -->
<g id="edge3" class="edge">
<title>id_27872609_DOT_2&#45;&#45;id_27872609_DOT_10</title>
<path fill="none" stroke="black" d="M1570.69,-2384.24C1614.67,-2447.94 1710.68,-2586.97 1755.61,-2652.03"/>
<text text-anchor="middle" x="1636.9" y="-2520.93" font-family="Times,serif" font-size="14.00">0.125550</text>
</g>
<!-- id_27872609_DOT_20 -->
<g id="node20" class="node">
<title>id_27872609_DOT_20</title>
<polygon fill="darkseagreen" stroke="darkseagreen" points="1155.51,-2420.74 1162.44,-2420.93 1169.3,-2421.22 1176.05,-2421.6 1182.68,-2422.08 1189.16,-2422.65 1195.46,-2423.31 1201.55,-2424.06 1207.42,-2424.9 1213.04,-2425.82 1218.39,-2426.83 1223.45,-2427.91 1228.21,-2429.08 1232.65,-2430.31 1236.75,-2431.62 1240.51,-2432.99 1243.92,-2434.42 1246.97,-2435.91 1249.65,-2437.46 1251.97,-2439.06 1253.91,-2440.7 1255.48,-2442.39 1256.68,-2444.11 1257.52,-2445.87 1258.01,-2447.65 1258.14,-2449.45 1257.92,-2451.28 1257.37,-2453.11 1256.51,-2454.96 1255.33,-2456.8 1253.85,-2458.64 1252.09,-2460.48 1250.06,-2462.3 1247.77,-2464.11 1245.25,-2465.89 1242.5,-2467.64 1239.54,-2469.37 1236.39,-2471.05 1233.06,-2472.7 1229.57,-2474.29 1225.92,-2475.84 1222.15,-2477.34 1218.25,-2478.77 1214.24,-2480.14 1210.13,-2481.45 1205.94,-2482.68 1201.67,-2483.84 1197.34,-2484.93 1192.95,-2485.93 1188.51,-2486.85 1184.03,-2487.69 1179.52,-2488.44 1174.97,-2489.1 1170.41,-2489.67 1165.82,-2490.15 1161.22,-2490.54 1156.6,-2490.82 1151.98,-2491.02 1147.36,-2491.11 1142.73,-2491.11 1138.11,-2491.02 1133.49,-2490.82 1128.87,-2490.54 1124.27,-2490.15 1119.69,-2489.67 1115.12,-2489.1 1110.57,-2488.44 1106.06,-2487.69 1101.58,-2486.85 1097.14,-2485.93 1092.75,-2484.93 1088.42,-2483.84 1084.15,-2482.68 1079.96,-2481.45 1075.85,-2480.14 1071.84,-2478.77 1067.94,-2477.34 1064.17,-2475.84 1060.52,-2474.29 1057.03,-2472.7 1053.7,-2471.05 1050.55,-2469.37 1047.59,-2467.64 1044.84,-2465.89 1042.32,-2464.11 1040.03,-2462.3 1038,-2460.48 1036.24,-2458.64 1034.77,-2456.8 1033.59,-2454.96 1032.72,-2453.11 1032.17,-2451.28 1031.96,-2449.45 1032.09,-2447.65 1032.57,-2445.87 1033.41,-2444.11 1034.61,-2442.39 1036.18,-2440.7 1038.13,-2439.06 1040.44,-2437.46 1043.12,-2435.91 1046.17,-2434.42 1049.58,-2432.99 1053.34,-2431.62 1057.45,-2430.31 1061.88,-2429.08 1066.64,-2427.91 1071.7,-2426.83 1077.05,-2425.82 1082.67,-2424.9 1088.54,-2424.06 1094.63,-2423.31 1100.93,-2422.65 1107.41,-2422.08 1114.04,-2421.6 1120.8,-2421.22 1127.65,-2420.93 1134.58,-2420.74 1141.55,-2420.64 1148.54,-2420.64 1155.51,-2420.74"/>
<text text-anchor="start" x="1115.88" y="-2465.68" font-family="Times,serif" font-size="14.00">C3149362</text>
<text text-anchor="start" x="1077.99" y="-2451.68" font-family="Times,serif" font-size="14.00">cortical hyperintensities</text>
<text text-anchor="start" x="1125.6" y="-2437.68" font-family="Times,serif" font-size="14.00">99:100</text>
</g>
<!-- id_27872609_DOT_2&#45;&#45;id_27872609_DOT_20 -->
<g id="edge8" class="edge">
<title>id_27872609_DOT_2&#45;&#45;id_27872609_DOT_20</title>
<path fill="none" stroke="black" stroke-dasharray="1,5" d="M1484.89,-2367.49C1418.51,-2384.75 1313.24,-2412.13 1237.45,-2431.85"/>
<text text-anchor="middle" x="1334.92" y="-2402.47" font-family="Times,serif" font-size="14.00">0.731986</text>
</g>
<!-- id_27872609_DOT_26 -->
<g id="node26" class="node">
<title>id_27872609_DOT_26</title>
<polygon fill="firebrick" stroke="firebrick" points="1555.91,-1907.89 1562.33,-1908.09 1568.69,-1908.37 1574.96,-1908.76 1581.11,-1909.24 1587.12,-1909.81 1592.96,-1910.47 1598.61,-1911.22 1604.05,-1912.06 1609.26,-1912.98 1614.22,-1913.98 1618.91,-1915.07 1623.33,-1916.23 1627.44,-1917.46 1631.25,-1918.77 1634.74,-1920.14 1637.9,-1921.57 1640.73,-1923.07 1643.22,-1924.62 1645.36,-1926.21 1647.16,-1927.86 1648.62,-1929.54 1649.74,-1931.27 1650.52,-1933.02 1650.96,-1934.8 1651.08,-1936.61 1650.88,-1938.43 1650.38,-1940.27 1649.57,-1942.11 1648.48,-1943.95 1647.11,-1945.8 1645.47,-1947.63 1643.59,-1949.46 1641.47,-1951.26 1639.13,-1953.04 1636.58,-1954.8 1633.84,-1956.52 1630.92,-1958.21 1627.83,-1959.85 1624.59,-1961.45 1621.21,-1963 1617.71,-1964.49 1614.09,-1965.92 1610.37,-1967.29 1606.57,-1968.6 1602.68,-1969.83 1598.72,-1971 1594.7,-1972.08 1590.63,-1973.09 1586.51,-1974.01 1582.36,-1974.85 1578.17,-1975.6 1573.96,-1976.26 1569.72,-1976.83 1565.47,-1977.31 1561.2,-1977.69 1556.92,-1977.98 1552.64,-1978.17 1548.35,-1978.27 1544.06,-1978.27 1539.77,-1978.17 1535.48,-1977.98 1531.2,-1977.69 1526.94,-1977.31 1522.68,-1976.83 1518.45,-1976.26 1514.23,-1975.6 1510.04,-1974.85 1505.89,-1974.01 1501.77,-1973.09 1497.7,-1972.08 1493.68,-1971 1489.73,-1969.83 1485.84,-1968.6 1482.03,-1967.29 1478.31,-1965.92 1474.7,-1964.49 1471.19,-1963 1467.82,-1961.45 1464.58,-1959.85 1461.49,-1958.21 1458.57,-1956.52 1455.82,-1954.8 1453.27,-1953.04 1450.93,-1951.26 1448.81,-1949.46 1446.93,-1947.63 1445.3,-1945.8 1443.93,-1943.95 1442.83,-1942.11 1442.03,-1940.27 1441.52,-1938.43 1441.32,-1936.61 1441.44,-1934.8 1441.89,-1933.02 1442.67,-1931.27 1443.78,-1929.54 1445.24,-1927.86 1447.04,-1926.21 1449.19,-1924.62 1451.68,-1923.07 1454.5,-1921.57 1457.66,-1920.14 1461.15,-1918.77 1464.96,-1917.46 1469.08,-1916.23 1473.49,-1915.07 1478.18,-1913.98 1483.15,-1912.98 1488.36,-1912.06 1493.8,-1911.22 1499.45,-1910.47 1505.29,-1909.81 1511.3,-1909.24 1517.45,-1908.76 1523.71,-1908.37 1530.07,-1908.09 1536.5,-1907.89 1542.96,-1907.8 1549.44,-1907.8 1555.91,-1907.89"/>
<text text-anchor="start" x="1517.03" y="-1952.83" font-family="Times,serif" font-size="14.00">C0149504</text>
<text text-anchor="start" x="1484.69" y="-1938.83" font-family="Times,serif" font-size="14.00">Toxic encephalopathy</text>
<text text-anchor="start" x="1523.26" y="-1924.83" font-family="Times,serif" font-size="14.00">151:152</text>
</g>
<!-- id_27872609_DOT_2&#45;&#45;id_27872609_DOT_26 -->
<g id="edge4" class="edge">
<title>id_27872609_DOT_2&#45;&#45;id_27872609_DOT_26</title>
<path fill="none" stroke="black" d="M1547.68,-2315.62C1547.37,-2238.35 1546.65,-2055.65 1546.34,-1978.45"/>
<text text-anchor="middle" x="1520.76" y="-2149.84" font-family="Times,serif" font-size="14.00">0.158539</text>
</g>
<!-- id_27872609_DOT_3 -->
<g id="node3" class="node">
<title>id_27872609_DOT_3</title>
<polygon fill="blue" stroke="blue" points="1094.44,-868.31 1098.22,-868.5 1101.96,-868.79 1105.64,-869.17 1109.25,-869.65 1112.78,-870.22 1116.22,-870.88 1119.54,-871.63 1122.74,-872.47 1125.8,-873.39 1128.71,-874.4 1131.47,-875.48 1134.07,-876.64 1136.49,-877.88 1138.72,-879.18 1140.77,-880.55 1142.63,-881.99 1144.29,-883.48 1145.76,-885.03 1147.02,-886.63 1148.08,-888.27 1148.93,-889.96 1149.59,-891.68 1150.05,-893.44 1150.31,-895.22 1150.38,-897.02 1150.26,-898.85 1149.97,-900.68 1149.49,-902.52 1148.85,-904.37 1148.04,-906.21 1147.08,-908.05 1145.98,-909.87 1144.73,-911.67 1143.36,-913.46 1141.86,-915.21 1140.24,-916.93 1138.53,-918.62 1136.71,-920.26 1134.81,-921.86 1132.82,-923.41 1130.76,-924.9 1128.64,-926.34 1126.45,-927.71 1124.22,-929.01 1121.93,-930.25 1119.6,-931.41 1117.24,-932.49 1114.85,-933.5 1112.43,-934.42 1109.99,-935.26 1107.53,-936.01 1105.05,-936.67 1102.56,-937.24 1100.06,-937.72 1097.55,-938.1 1095.04,-938.39 1092.52,-938.58 1090,-938.68 1087.48,-938.68 1084.96,-938.58 1082.44,-938.39 1079.92,-938.1 1077.41,-937.72 1074.91,-937.24 1072.42,-936.67 1069.95,-936.01 1067.49,-935.26 1065.04,-934.42 1062.63,-933.5 1060.23,-932.49 1057.87,-931.41 1055.55,-930.25 1053.26,-929.01 1051.02,-927.71 1048.84,-926.34 1046.71,-924.9 1044.65,-923.41 1042.67,-921.86 1040.76,-920.26 1038.95,-918.62 1037.23,-916.93 1035.62,-915.21 1034.12,-913.46 1032.74,-911.67 1031.5,-909.87 1030.39,-908.05 1029.43,-906.21 1028.63,-904.37 1027.98,-902.52 1027.51,-900.68 1027.21,-898.85 1027.1,-897.02 1027.17,-895.22 1027.43,-893.44 1027.89,-891.68 1028.54,-889.96 1029.4,-888.27 1030.46,-886.63 1031.72,-885.03 1033.18,-883.48 1034.84,-881.99 1036.7,-880.55 1038.75,-879.18 1040.99,-877.88 1043.41,-876.64 1046,-875.48 1048.76,-874.4 1051.68,-873.39 1054.74,-872.47 1057.94,-871.63 1061.26,-870.88 1064.69,-870.22 1068.22,-869.65 1071.84,-869.17 1075.52,-868.79 1079.26,-868.5 1083.03,-868.31 1086.83,-868.21 1090.64,-868.21 1094.44,-868.31"/>
<text text-anchor="start" x="1059.57" y="-913.25" font-family="Times,serif" font-size="14.00">C0185125</text>
<text text-anchor="start" x="1055.69" y="-899.25" font-family="Times,serif" font-size="14.00">Application</text>
<text text-anchor="start" x="1079.79" y="-885.25" font-family="Times,serif" font-size="14.00">9:9</text>
</g>
<!-- id_27872609_DOT_25 -->
<g id="node25" class="node">
<title>id_27872609_DOT_25</title>
<polygon fill="dodgerblue" stroke="dodgerblue" points="1276.23,-1143.86 1279.66,-1144.05 1283.05,-1144.34 1286.4,-1144.73 1289.68,-1145.2 1292.88,-1145.77 1296,-1146.43 1299.01,-1147.19 1301.92,-1148.02 1304.7,-1148.95 1307.34,-1149.95 1309.85,-1151.04 1312.2,-1152.2 1314.4,-1153.43 1316.43,-1154.74 1318.29,-1156.11 1319.98,-1157.54 1321.49,-1159.03 1322.81,-1160.58 1323.96,-1162.18 1324.92,-1163.82 1325.7,-1165.51 1326.29,-1167.23 1326.71,-1168.99 1326.95,-1170.77 1327.01,-1172.58 1326.9,-1174.4 1326.63,-1176.23 1326.2,-1178.08 1325.62,-1179.92 1324.89,-1181.76 1324.02,-1183.6 1323.01,-1185.42 1321.88,-1187.23 1320.63,-1189.01 1319.27,-1190.76 1317.81,-1192.49 1316.25,-1194.17 1314.6,-1195.82 1312.87,-1197.42 1311.07,-1198.96 1309.2,-1200.46 1307.27,-1201.89 1305.29,-1203.26 1303.26,-1204.57 1301.19,-1205.8 1299.07,-1206.96 1296.93,-1208.05 1294.76,-1209.05 1292.56,-1209.98 1290.34,-1210.81 1288.11,-1211.56 1285.86,-1212.22 1283.6,-1212.8 1281.33,-1213.27 1279.06,-1213.66 1276.77,-1213.94 1274.49,-1214.14 1272.2,-1214.23 1269.91,-1214.23 1267.62,-1214.14 1265.33,-1213.94 1263.05,-1213.66 1260.78,-1213.27 1258.51,-1212.8 1256.25,-1212.22 1254,-1211.56 1251.76,-1210.81 1249.55,-1209.98 1247.35,-1209.05 1245.18,-1208.05 1243.03,-1206.96 1240.92,-1205.8 1238.85,-1204.57 1236.82,-1203.26 1234.83,-1201.89 1232.9,-1200.46 1231.04,-1198.96 1229.23,-1197.42 1227.5,-1195.82 1225.86,-1194.17 1224.3,-1192.49 1222.83,-1190.76 1221.47,-1189.01 1220.23,-1187.23 1219.09,-1185.42 1218.09,-1183.6 1217.22,-1181.76 1216.49,-1179.92 1215.9,-1178.08 1215.47,-1176.23 1215.2,-1174.4 1215.1,-1172.58 1215.16,-1170.77 1215.4,-1168.99 1215.82,-1167.23 1216.41,-1165.51 1217.19,-1163.82 1218.15,-1162.18 1219.29,-1160.58 1220.62,-1159.03 1222.13,-1157.54 1223.82,-1156.11 1225.68,-1154.74 1227.71,-1153.43 1229.91,-1152.2 1232.26,-1151.04 1234.76,-1149.95 1237.41,-1148.95 1240.19,-1148.02 1243.09,-1147.19 1246.11,-1146.43 1249.23,-1145.77 1252.43,-1145.2 1255.71,-1144.73 1259.05,-1144.34 1262.45,-1144.05 1265.88,-1143.86 1269.33,-1143.76 1272.78,-1143.76 1276.23,-1143.86"/>
<text text-anchor="start" x="1241.89" y="-1188.8" font-family="Times,serif" font-size="14.00">C0012634</text>
<text text-anchor="start" x="1244.61" y="-1174.8" font-family="Times,serif" font-size="14.00">condition</text>
<text text-anchor="start" x="1248.11" y="-1160.8" font-family="Times,serif" font-size="14.00">149:149</text>
</g>
<!-- id_27872609_DOT_3&#45;&#45;id_27872609_DOT_25 -->
<g id="edge9" class="edge">
<title>id_27872609_DOT_3&#45;&#45;id_27872609_DOT_25</title>
<path fill="none" stroke="black" stroke-dasharray="1,5" d="M1109.83,-935.32C1144.6,-987.88 1213.64,-1092.22 1249.02,-1145.7"/>
<text text-anchor="middle" x="1153.17" y="-1043.31" font-family="Times,serif" font-size="14.00">0.818289</text>
</g>
<!-- id_27872609_DOT_4 -->
<g id="node4" class="node">
<title>id_27872609_DOT_4</title>
<polygon fill="blueviolet" stroke="blueviolet" points="3649.19,-4122.63 3660.76,-4122.82 3672.21,-4123.11 3683.5,-4123.49 3694.57,-4123.97 3705.39,-4124.54 3715.91,-4125.2 3726.09,-4125.95 3735.89,-4126.79 3745.27,-4127.71 3754.2,-4128.72 3762.66,-4129.8 3770.6,-4130.96 3778.02,-4132.2 3784.87,-4133.5 3791.16,-4134.87 3796.85,-4136.31 3801.94,-4137.8 3806.42,-4139.35 3810.29,-4140.95 3813.53,-4142.59 3816.16,-4144.28 3818.17,-4146 3819.57,-4147.75 3820.37,-4149.54 3820.59,-4151.34 3820.23,-4153.16 3819.32,-4155 3817.87,-4156.84 3815.9,-4158.69 3813.43,-4160.53 3810.49,-4162.37 3807.1,-4164.19 3803.28,-4165.99 3799.06,-4167.78 3794.47,-4169.53 3789.53,-4171.25 3784.27,-4172.94 3778.71,-4174.58 3772.88,-4176.18 3766.79,-4177.73 3760.48,-4179.22 3753.97,-4180.66 3747.28,-4182.03 3740.42,-4183.33 3733.42,-4184.57 3726.29,-4185.73 3719.05,-4186.81 3711.72,-4187.82 3704.31,-4188.74 3696.83,-4189.58 3689.29,-4190.33 3681.7,-4190.99 3674.07,-4191.56 3666.41,-4192.04 3658.72,-4192.42 3651.02,-4192.71 3643.3,-4192.9 3635.58,-4193 3627.85,-4193 3620.12,-4192.9 3612.41,-4192.71 3604.7,-4192.42 3597.02,-4192.04 3589.35,-4191.56 3581.73,-4190.99 3574.14,-4190.33 3566.6,-4189.58 3559.11,-4188.74 3551.7,-4187.82 3544.37,-4186.81 3537.13,-4185.73 3530,-4184.57 3523,-4183.33 3516.15,-4182.03 3509.45,-4180.66 3502.94,-4179.22 3496.63,-4177.73 3490.55,-4176.18 3484.71,-4174.58 3479.15,-4172.94 3473.89,-4171.25 3468.95,-4169.53 3464.36,-4167.78 3460.14,-4165.99 3456.33,-4164.19 3452.93,-4162.37 3449.99,-4160.53 3447.53,-4158.69 3445.56,-4156.84 3444.1,-4155 3443.19,-4153.16 3442.83,-4151.34 3443.05,-4149.54 3443.85,-4147.75 3445.26,-4146 3447.27,-4144.28 3449.89,-4142.59 3453.14,-4140.95 3457,-4139.35 3461.48,-4137.8 3466.57,-4136.31 3472.27,-4134.87 3478.55,-4133.5 3485.41,-4132.2 3492.82,-4130.96 3500.76,-4129.8 3509.22,-4128.72 3518.15,-4127.71 3527.54,-4126.79 3537.34,-4125.95 3547.51,-4125.2 3558.03,-4124.54 3568.85,-4123.97 3579.92,-4123.49 3591.21,-4123.11 3602.66,-4122.82 3614.23,-4122.63 3625.88,-4122.53 3637.55,-4122.53 3649.19,-4122.63"/>
<text text-anchor="start" x="3602.54" y="-4167.57" font-family="Times,serif" font-size="14.00">C0025080</text>
<text text-anchor="start" x="3514.42" y="-4153.57" font-family="Times,serif" font-size="14.00">Dislocated Central Venous Access Device</text>
<text text-anchor="start" x="3616.02" y="-4139.57" font-family="Times,serif" font-size="14.00">11:15</text>
</g>
<!-- id_27872609_DOT_16 -->
<g id="node16" class="node">
<title>id_27872609_DOT_16</title>
<polygon fill="darkorange" stroke="darkorange" points="3251.59,-3995.6 3255.02,-3995.79 3258.41,-3996.08 3261.76,-3996.46 3265.04,-3996.94 3268.24,-3997.51 3271.36,-3998.17 3274.37,-3998.92 3277.27,-3999.76 3280.05,-4000.68 3282.7,-4001.69 3285.21,-4002.77 3287.56,-4003.94 3289.76,-4005.17 3291.79,-4006.48 3293.65,-4007.85 3295.34,-4009.28 3296.84,-4010.77 3298.17,-4012.32 3299.32,-4013.92 3300.28,-4015.56 3301.06,-4017.25 3301.65,-4018.97 3302.07,-4020.73 3302.3,-4022.51 3302.37,-4024.31 3302.26,-4026.14 3301.99,-4027.97 3301.56,-4029.82 3300.98,-4031.66 3300.25,-4033.5 3299.38,-4035.34 3298.37,-4037.16 3297.24,-4038.97 3295.99,-4040.75 3294.63,-4042.5 3293.17,-4044.23 3291.61,-4045.91 3289.96,-4047.56 3288.23,-4049.15 3286.43,-4050.7 3284.56,-4052.2 3282.63,-4053.63 3280.65,-4055 3278.62,-4056.31 3276.54,-4057.54 3274.43,-4058.7 3272.29,-4059.79 3270.12,-4060.79 3267.92,-4061.71 3265.7,-4062.55 3263.47,-4063.3 3261.22,-4063.96 3258.96,-4064.53 3256.69,-4065.01 3254.41,-4065.4 3252.13,-4065.68 3249.85,-4065.88 3247.56,-4065.97 3245.27,-4065.97 3242.98,-4065.88 3240.69,-4065.68 3238.41,-4065.4 3236.13,-4065.01 3233.86,-4064.53 3231.6,-4063.96 3229.36,-4063.3 3227.12,-4062.55 3224.9,-4061.71 3222.71,-4060.79 3220.54,-4059.79 3218.39,-4058.7 3216.28,-4057.54 3214.21,-4056.31 3212.18,-4055 3210.19,-4053.63 3208.26,-4052.2 3206.39,-4050.7 3204.59,-4049.15 3202.86,-4047.56 3201.22,-4045.91 3199.66,-4044.23 3198.19,-4042.5 3196.83,-4040.75 3195.58,-4038.97 3194.45,-4037.16 3193.45,-4035.34 3192.58,-4033.5 3191.85,-4031.66 3191.26,-4029.82 3190.83,-4027.97 3190.56,-4026.14 3190.46,-4024.31 3190.52,-4022.51 3190.76,-4020.73 3191.17,-4018.97 3191.77,-4017.25 3192.55,-4015.56 3193.51,-4013.92 3194.65,-4012.32 3195.98,-4010.77 3197.49,-4009.28 3199.18,-4007.85 3201.04,-4006.48 3203.07,-4005.17 3205.26,-4003.94 3207.62,-4002.77 3210.12,-4001.69 3212.77,-4000.68 3215.55,-3999.76 3218.45,-3998.92 3221.47,-3998.17 3224.58,-3997.51 3227.79,-3996.94 3231.07,-3996.46 3234.41,-3996.08 3237.81,-3995.79 3241.23,-3995.6 3244.68,-3995.5 3248.14,-3995.5 3251.59,-3995.6"/>
<text text-anchor="start" x="3217.24" y="-4040.54" font-family="Times,serif" font-size="14.00">C0013227</text>
<text text-anchor="start" x="3233.58" y="-4026.54" font-family="Times,serif" font-size="14.00">drug</text>
<text text-anchor="start" x="3230.47" y="-4012.54" font-family="Times,serif" font-size="14.00">75:75</text>
</g>
<!-- id_27872609_DOT_4&#45;&#45;id_27872609_DOT_16 -->
<g id="edge10" class="edge">
<title>id_27872609_DOT_4&#45;&#45;id_27872609_DOT_16</title>
<path fill="none" stroke="black" stroke-dasharray="1,5" d="M3535.48,-4126.04C3457.69,-4100.39 3351.64,-4065.43 3292,-4045.77"/>
<text text-anchor="middle" x="3387.49" y="-4088.7" font-family="Times,serif" font-size="14.00">0.797515</text>
</g>
<!-- id_27872609_DOT_5 -->
<g id="node5" class="node">
<title>id_27872609_DOT_5</title>
<polygon fill="brown" stroke="brown" points="2276.29,-3210.03 2282.96,-3210.22 2289.56,-3210.51 2296.06,-3210.89 2302.44,-3211.37 2308.67,-3211.94 2314.73,-3212.6 2320.59,-3213.35 2326.24,-3214.19 2331.64,-3215.11 2336.79,-3216.12 2341.66,-3217.2 2346.24,-3218.37 2350.51,-3219.6 2354.46,-3220.91 2358.08,-3222.28 2361.36,-3223.71 2364.3,-3225.2 2366.88,-3226.75 2369.1,-3228.35 2370.97,-3229.99 2372.49,-3231.68 2373.64,-3233.4 2374.45,-3235.16 2374.91,-3236.94 2375.04,-3238.74 2374.83,-3240.57 2374.31,-3242.4 2373.47,-3244.25 2372.34,-3246.09 2370.91,-3247.93 2369.22,-3249.77 2367.27,-3251.59 2365.07,-3253.4 2362.64,-3255.18 2359.99,-3256.93 2357.15,-3258.66 2354.12,-3260.34 2350.91,-3261.99 2347.55,-3263.58 2344.05,-3265.13 2340.41,-3266.63 2336.66,-3268.06 2332.8,-3269.43 2328.85,-3270.74 2324.82,-3271.97 2320.71,-3273.13 2316.54,-3274.22 2312.32,-3275.22 2308.05,-3276.14 2303.74,-3276.98 2299.39,-3277.73 2295.02,-3278.39 2290.62,-3278.96 2286.21,-3279.44 2281.78,-3279.83 2277.34,-3280.11 2272.9,-3280.31 2268.45,-3280.4 2264,-3280.4 2259.54,-3280.31 2255.1,-3280.11 2250.66,-3279.83 2246.23,-3279.44 2241.82,-3278.96 2237.42,-3278.39 2233.05,-3277.73 2228.71,-3276.98 2224.4,-3276.14 2220.12,-3275.22 2215.9,-3274.22 2211.73,-3273.13 2207.63,-3271.97 2203.59,-3270.74 2199.64,-3269.43 2195.78,-3268.06 2192.03,-3266.63 2188.4,-3265.13 2184.89,-3263.58 2181.53,-3261.99 2178.33,-3260.34 2175.3,-3258.66 2172.45,-3256.93 2169.8,-3255.18 2167.38,-3253.4 2165.18,-3251.59 2163.22,-3249.77 2161.53,-3247.93 2160.11,-3246.09 2158.97,-3244.25 2158.13,-3242.4 2157.61,-3240.57 2157.4,-3238.74 2157.53,-3236.94 2157.99,-3235.16 2158.8,-3233.4 2159.96,-3231.68 2161.47,-3229.99 2163.34,-3228.35 2165.57,-3226.75 2168.15,-3225.2 2171.08,-3223.71 2174.36,-3222.28 2177.98,-3220.91 2181.93,-3219.6 2186.2,-3218.37 2190.78,-3217.2 2195.65,-3216.12 2200.8,-3215.11 2206.2,-3214.19 2211.85,-3213.35 2217.71,-3212.6 2223.77,-3211.94 2230,-3211.37 2236.38,-3210.89 2242.89,-3210.51 2249.48,-3210.22 2256.15,-3210.03 2262.86,-3209.93 2269.58,-3209.93 2276.29,-3210.03"/>
<text text-anchor="start" x="2237.05" y="-3254.97" font-family="Times,serif" font-size="14.00">C3714787</text>
<text text-anchor="start" x="2202.07" y="-3240.97" font-family="Times,serif" font-size="14.00">central nervous system</text>
<text text-anchor="start" x="2250.28" y="-3226.97" font-family="Times,serif" font-size="14.00">17:19</text>
</g>
<!-- id_27872609_DOT_30 -->
<g id="node30" class="node">
<title>id_27872609_DOT_30</title>
<polygon fill="brown" stroke="brown" points="2057.7,-3469.2 2064.37,-3469.39 2070.97,-3469.68 2077.47,-3470.07 2083.85,-3470.54 2090.08,-3471.11 2096.14,-3471.78 2102.01,-3472.53 2107.65,-3473.36 2113.06,-3474.29 2118.2,-3475.29 2123.08,-3476.38 2127.65,-3477.54 2131.92,-3478.77 2135.88,-3480.08 2139.5,-3481.45 2142.78,-3482.88 2145.71,-3484.38 2148.29,-3485.92 2150.52,-3487.52 2152.38,-3489.17 2153.9,-3490.85 2155.06,-3492.57 2155.86,-3494.33 2156.33,-3496.11 2156.45,-3497.92 2156.25,-3499.74 2155.72,-3501.57 2154.88,-3503.42 2153.75,-3505.26 2152.33,-3507.11 2150.63,-3508.94 2148.68,-3510.76 2146.48,-3512.57 2144.05,-3514.35 2141.41,-3516.11 2138.56,-3517.83 2135.53,-3519.51 2132.32,-3521.16 2128.96,-3522.76 2125.46,-3524.3 2121.82,-3525.8 2118.07,-3527.23 2114.21,-3528.6 2110.26,-3529.91 2106.23,-3531.14 2102.12,-3532.3 2097.95,-3533.39 2093.73,-3534.39 2089.46,-3535.32 2085.15,-3536.15 2080.8,-3536.9 2076.43,-3537.57 2072.04,-3538.14 2067.62,-3538.61 2063.19,-3539 2058.76,-3539.29 2054.31,-3539.48 2049.86,-3539.58 2045.41,-3539.58 2040.96,-3539.48 2036.51,-3539.29 2032.07,-3539 2027.64,-3538.61 2023.23,-3538.14 2018.84,-3537.57 2014.46,-3536.9 2010.12,-3536.15 2005.81,-3535.32 2001.54,-3534.39 1997.31,-3533.39 1993.14,-3532.3 1989.04,-3531.14 1985,-3529.91 1981.05,-3528.6 1977.2,-3527.23 1973.44,-3525.8 1969.81,-3524.3 1966.3,-3522.76 1962.94,-3521.16 1959.74,-3519.51 1956.71,-3517.83 1953.86,-3516.11 1951.22,-3514.35 1948.79,-3512.57 1946.59,-3510.76 1944.64,-3508.94 1942.94,-3507.11 1941.52,-3505.26 1940.38,-3503.42 1939.55,-3501.57 1939.02,-3499.74 1938.82,-3497.92 1938.94,-3496.11 1939.4,-3494.33 1940.21,-3492.57 1941.37,-3490.85 1942.88,-3489.17 1944.75,-3487.52 1946.98,-3485.92 1949.56,-3484.38 1952.49,-3482.88 1955.77,-3481.45 1959.39,-3480.08 1963.34,-3478.77 1967.61,-3477.54 1972.19,-3476.38 1977.06,-3475.29 1982.21,-3474.29 1987.62,-3473.36 1993.26,-3472.53 1999.13,-3471.78 2005.18,-3471.11 2011.42,-3470.54 2017.8,-3470.07 2024.3,-3469.68 2030.9,-3469.39 2037.56,-3469.2 2044.27,-3469.1 2050.99,-3469.1 2057.7,-3469.2"/>
<text text-anchor="start" x="2018.46" y="-3514.14" font-family="Times,serif" font-size="14.00">C3714787</text>
<text text-anchor="start" x="1983.49" y="-3500.14" font-family="Times,serif" font-size="14.00">central nervous system</text>
<text text-anchor="start" x="2024.69" y="-3486.14" font-family="Times,serif" font-size="14.00">171:173</text>
</g>
<!-- id_27872609_DOT_5&#45;&#45;id_27872609_DOT_30 -->
<g id="edge5" class="edge">
<title>id_27872609_DOT_5&#45;&#45;id_27872609_DOT_30</title>
<path fill="none" stroke="black" d="M2238.09,-3278.52C2196.47,-3327.87 2118.86,-3419.89 2076.7,-3469.88"/>
<text text-anchor="middle" x="2131.15" y="-3377" font-family="Times,serif" font-size="14.00">0.054349</text>
</g>
<!-- id_27872609_DOT_6 -->
<g id="node6" class="node">
<title>id_27872609_DOT_6</title>
<polygon fill="cadetblue" stroke="cadetblue" points="2896.48,-4259.63 2899.91,-4259.82 2903.31,-4260.11 2906.65,-4260.5 2909.93,-4260.97 2913.13,-4261.54 2916.25,-4262.2 2919.27,-4262.96 2922.17,-4263.79 2924.95,-4264.72 2927.6,-4265.72 2930.1,-4266.81 2932.45,-4267.97 2934.65,-4269.2 2936.68,-4270.51 2938.54,-4271.88 2940.23,-4273.31 2941.74,-4274.8 2943.07,-4276.35 2944.21,-4277.95 2945.17,-4279.59 2945.95,-4281.28 2946.54,-4283 2946.96,-4284.76 2947.2,-4286.54 2947.26,-4288.35 2947.16,-4290.17 2946.89,-4292 2946.46,-4293.85 2945.87,-4295.69 2945.14,-4297.53 2944.27,-4299.37 2943.27,-4301.19 2942.13,-4303 2940.89,-4304.78 2939.53,-4306.54 2938.06,-4308.26 2936.5,-4309.94 2934.86,-4311.59 2933.13,-4313.19 2931.32,-4314.73 2929.46,-4316.23 2927.53,-4317.66 2925.54,-4319.03 2923.51,-4320.34 2921.44,-4321.57 2919.33,-4322.73 2917.18,-4323.82 2915.01,-4324.82 2912.81,-4325.75 2910.6,-4326.58 2908.36,-4327.33 2906.11,-4327.99 2903.85,-4328.57 2901.58,-4329.04 2899.31,-4329.43 2897.03,-4329.72 2894.74,-4329.91 2892.45,-4330 2890.16,-4330 2887.87,-4329.91 2885.59,-4329.72 2883.3,-4329.43 2881.03,-4329.04 2878.76,-4328.57 2876.5,-4327.99 2874.25,-4327.33 2872.02,-4326.58 2869.8,-4325.75 2867.6,-4324.82 2865.43,-4323.82 2863.29,-4322.73 2861.17,-4321.57 2859.1,-4320.34 2857.07,-4319.03 2855.09,-4317.66 2853.16,-4316.23 2851.29,-4314.73 2849.49,-4313.19 2847.76,-4311.59 2846.11,-4309.94 2844.55,-4308.26 2843.09,-4306.54 2841.73,-4304.78 2840.48,-4303 2839.35,-4301.19 2838.34,-4299.37 2837.47,-4297.53 2836.74,-4295.69 2836.16,-4293.85 2835.73,-4292 2835.46,-4290.17 2835.35,-4288.35 2835.41,-4286.54 2835.65,-4284.76 2836.07,-4283 2836.66,-4281.28 2837.44,-4279.59 2838.4,-4277.95 2839.55,-4276.35 2840.87,-4274.8 2842.38,-4273.31 2844.07,-4271.88 2845.93,-4270.51 2847.96,-4269.2 2850.16,-4267.97 2852.51,-4266.81 2855.02,-4265.72 2857.66,-4264.72 2860.44,-4263.79 2863.35,-4262.96 2866.36,-4262.2 2869.48,-4261.54 2872.68,-4260.97 2875.96,-4260.5 2879.31,-4260.11 2882.7,-4259.82 2886.13,-4259.63 2889.58,-4259.53 2893.03,-4259.53 2896.48,-4259.63"/>
<text text-anchor="start" x="2862.14" y="-4304.57" font-family="Times,serif" font-size="14.00">C3160947</text>
<text text-anchor="start" x="2869.92" y="-4290.57" font-family="Times,serif" font-size="14.00">toxicity</text>
<text text-anchor="start" x="2875.36" y="-4276.57" font-family="Times,serif" font-size="14.00">20:20</text>
</g>
<!-- id_27872609_DOT_7 -->
<g id="node7" class="node">
<title>id_27872609_DOT_7</title>
<polygon fill="chartreuse" stroke="chartreuse" points="2969.87,-4663.13 2973.53,-4663.32 2977.14,-4663.61 2980.71,-4663.99 2984.2,-4664.47 2987.62,-4665.04 2990.94,-4665.7 2994.15,-4666.45 2997.25,-4667.29 3000.21,-4668.21 3003.03,-4669.22 3005.7,-4670.3 3008.21,-4671.46 3010.55,-4672.7 3012.72,-4674 3014.7,-4675.38 3016.5,-4676.81 3018.11,-4678.3 3019.52,-4679.85 3020.74,-4681.45 3021.77,-4683.09 3022.6,-4684.78 3023.23,-4686.5 3023.67,-4688.26 3023.93,-4690.04 3024,-4691.84 3023.88,-4693.67 3023.59,-4695.5 3023.14,-4697.34 3022.51,-4699.19 3021.73,-4701.03 3020.81,-4702.87 3019.73,-4704.69 3018.53,-4706.49 3017.2,-4708.28 3015.75,-4710.03 3014.19,-4711.76 3012.53,-4713.44 3010.77,-4715.09 3008.93,-4716.68 3007.01,-4718.23 3005.02,-4719.72 3002.96,-4721.16 3000.84,-4722.53 2998.68,-4723.83 2996.47,-4725.07 2994.22,-4726.23 2991.93,-4727.31 2989.62,-4728.32 2987.28,-4729.24 2984.91,-4730.08 2982.53,-4730.83 2980.14,-4731.49 2977.73,-4732.06 2975.31,-4732.54 2972.88,-4732.92 2970.45,-4733.21 2968.01,-4733.41 2965.57,-4733.5 2963.13,-4733.5 2960.69,-4733.41 2958.26,-4733.21 2955.82,-4732.92 2953.4,-4732.54 2950.98,-4732.06 2948.57,-4731.49 2946.17,-4730.83 2943.79,-4730.08 2941.43,-4729.24 2939.09,-4728.32 2936.77,-4727.31 2934.49,-4726.23 2932.24,-4725.07 2930.03,-4723.83 2927.86,-4722.53 2925.75,-4721.16 2923.69,-4719.72 2921.7,-4718.23 2919.78,-4716.68 2917.93,-4715.09 2916.18,-4713.44 2914.52,-4711.76 2912.96,-4710.03 2911.51,-4708.28 2910.18,-4706.49 2908.97,-4704.69 2907.9,-4702.87 2906.97,-4701.03 2906.19,-4699.19 2905.57,-4697.34 2905.11,-4695.5 2904.82,-4693.67 2904.71,-4691.84 2904.78,-4690.04 2905.03,-4688.26 2905.47,-4686.5 2906.11,-4684.78 2906.94,-4683.09 2907.96,-4681.45 2909.18,-4679.85 2910.6,-4678.3 2912.21,-4676.81 2914,-4675.38 2915.99,-4674 2918.15,-4672.7 2920.49,-4671.46 2923,-4670.3 2925.67,-4669.22 2928.49,-4668.21 2931.46,-4667.29 2934.55,-4666.45 2937.77,-4665.7 2941.09,-4665.04 2944.5,-4664.47 2948,-4663.99 2951.56,-4663.61 2955.18,-4663.32 2958.83,-4663.13 2962.51,-4663.03 2966.19,-4663.03 2969.87,-4663.13"/>
<text text-anchor="start" x="2935.18" y="-4708.07" font-family="Times,serif" font-size="14.00">C0879626</text>
<text text-anchor="start" x="2932.8" y="-4694.07" font-family="Times,serif" font-size="14.00">side effects</text>
<text text-anchor="start" x="2948.41" y="-4680.07" font-family="Times,serif" font-size="14.00">25:26</text>
</g>
<!-- id_27872609_DOT_6&#45;&#45;id_27872609_DOT_7 -->
<g id="edge11" class="edge">
<title>id_27872609_DOT_6&#45;&#45;id_27872609_DOT_7</title>
<path fill="none" stroke="black" stroke-dasharray="1,5" d="M2897.66,-4329.87C2911.48,-4406.18 2944.11,-4586.46 2957.96,-4662.96"/>
<text text-anchor="middle" x="2901.56" y="-4499.21" font-family="Times,serif" font-size="14.00">0.321066</text>
</g>
<!-- id_27872609_DOT_31 -->
<g id="node31" class="node">
<title>id_27872609_DOT_31</title>
<polygon fill="gainsboro" stroke="gainsboro" points="2899.09,-3819.63 2902.52,-3819.82 2905.91,-3820.11 2909.25,-3820.49 2912.53,-3820.97 2915.74,-3821.54 2918.85,-3822.2 2921.87,-3822.95 2924.77,-3823.79 2927.55,-3824.71 2930.2,-3825.72 2932.7,-3826.8 2935.06,-3827.96 2937.25,-3829.2 2939.29,-3830.5 2941.15,-3831.88 2942.83,-3833.31 2944.34,-3834.8 2945.67,-3836.35 2946.81,-3837.95 2947.78,-3839.59 2948.55,-3841.28 2949.15,-3843 2949.56,-3844.76 2949.8,-3846.54 2949.87,-3848.34 2949.76,-3850.17 2949.49,-3852 2949.06,-3853.84 2948.48,-3855.69 2947.75,-3857.53 2946.87,-3859.37 2945.87,-3861.19 2944.74,-3863 2943.49,-3864.78 2942.13,-3866.53 2940.67,-3868.26 2939.11,-3869.94 2937.46,-3871.59 2935.73,-3873.18 2933.93,-3874.73 2932.06,-3876.22 2930.13,-3877.66 2928.15,-3879.03 2926.12,-3880.33 2924.04,-3881.57 2921.93,-3882.73 2919.79,-3883.82 2917.61,-3884.82 2915.42,-3885.74 2913.2,-3886.58 2910.97,-3887.33 2908.72,-3887.99 2906.46,-3888.56 2904.19,-3889.04 2901.91,-3889.42 2899.63,-3889.71 2897.34,-3889.91 2895.06,-3890 2892.77,-3890 2890.48,-3889.91 2888.19,-3889.71 2885.91,-3889.42 2883.63,-3889.04 2881.36,-3888.56 2879.1,-3887.99 2876.85,-3887.33 2874.62,-3886.58 2872.4,-3885.74 2870.21,-3884.82 2868.03,-3883.82 2865.89,-3882.73 2863.78,-3881.57 2861.71,-3880.33 2859.67,-3879.03 2857.69,-3877.66 2855.76,-3876.22 2853.89,-3874.73 2852.09,-3873.18 2850.36,-3871.59 2848.71,-3869.94 2847.15,-3868.26 2845.69,-3866.53 2844.33,-3864.78 2843.08,-3863 2841.95,-3861.19 2840.95,-3859.37 2840.08,-3857.53 2839.34,-3855.69 2838.76,-3853.84 2838.33,-3852 2838.06,-3850.17 2837.95,-3848.34 2838.02,-3846.54 2838.26,-3844.76 2838.67,-3843 2839.27,-3841.28 2840.05,-3839.59 2841.01,-3837.95 2842.15,-3836.35 2843.48,-3834.8 2844.99,-3833.31 2846.67,-3831.88 2848.53,-3830.5 2850.57,-3829.2 2852.76,-3827.96 2855.12,-3826.8 2857.62,-3825.72 2860.27,-3824.71 2863.05,-3823.79 2865.95,-3822.95 2868.97,-3822.2 2872.08,-3821.54 2875.29,-3820.97 2878.57,-3820.49 2881.91,-3820.11 2885.3,-3819.82 2888.73,-3819.63 2892.18,-3819.53 2895.64,-3819.53 2899.09,-3819.63"/>
<text text-anchor="start" x="2864.74" y="-3864.57" font-family="Times,serif" font-size="14.00">C1457887</text>
<text text-anchor="start" x="2865.13" y="-3850.57" font-family="Times,serif" font-size="14.00">symptoms</text>
<text text-anchor="start" x="2870.97" y="-3836.57" font-family="Times,serif" font-size="14.00">174:174</text>
</g>
<!-- id_27872609_DOT_6&#45;&#45;id_27872609_DOT_31 -->
<g id="edge12" class="edge">
<title>id_27872609_DOT_6&#45;&#45;id_27872609_DOT_31</title>
<path fill="none" stroke="black" stroke-dasharray="1,5" d="M2891.51,-4259.51C2892,-4177.12 2893.21,-3972.75 2893.7,-3890.2"/>
<text text-anchor="middle" x="2866.36" y="-4077.65" font-family="Times,serif" font-size="14.00">0.802940</text>
</g>
<!-- id_27872609_DOT_27 -->
<g id="node27" class="node">
<title>id_27872609_DOT_27</title>
<polygon fill="forestgreen" stroke="forestgreen" points="3064.93,-5035.42 3069.05,-5035.61 3073.12,-5035.9 3077.13,-5036.29 3081.07,-5036.76 3084.92,-5037.33 3088.66,-5038 3092.28,-5038.75 3095.76,-5039.58 3099.1,-5040.51 3102.28,-5041.51 3105.28,-5042.6 3108.11,-5043.76 3110.75,-5044.99 3113.19,-5046.3 3115.42,-5047.67 3117.45,-5049.1 3119.26,-5050.6 3120.85,-5052.14 3122.22,-5053.74 3123.38,-5055.39 3124.31,-5057.07 3125.03,-5058.79 3125.53,-5060.55 3125.81,-5062.33 3125.89,-5064.14 3125.76,-5065.96 3125.44,-5067.79 3124.92,-5069.64 3124.22,-5071.48 3123.34,-5073.33 3122.3,-5075.16 3121.09,-5076.98 3119.73,-5078.79 3118.23,-5080.57 3116.6,-5082.33 3114.84,-5084.05 3112.97,-5085.73 3110.99,-5087.38 3108.92,-5088.98 3106.76,-5090.52 3104.51,-5092.02 3102.2,-5093.45 3099.81,-5094.82 3097.38,-5096.13 3094.89,-5097.36 3092.35,-5098.52 3089.78,-5099.61 3087.17,-5100.61 3084.53,-5101.54 3081.87,-5102.37 3079.19,-5103.12 3076.49,-5103.79 3073.78,-5104.36 3071.05,-5104.83 3068.32,-5105.22 3065.58,-5105.51 3062.84,-5105.7 3060.09,-5105.79 3057.34,-5105.79 3054.59,-5105.7 3051.85,-5105.51 3049.11,-5105.22 3046.38,-5104.83 3043.65,-5104.36 3040.94,-5103.79 3038.24,-5103.12 3035.56,-5102.37 3032.9,-5101.54 3030.26,-5100.61 3027.65,-5099.61 3025.08,-5098.52 3022.54,-5097.36 3020.05,-5096.13 3017.61,-5094.82 3015.23,-5093.45 3012.92,-5092.02 3010.67,-5090.52 3008.51,-5088.98 3006.43,-5087.38 3004.46,-5085.73 3002.59,-5084.05 3000.83,-5082.33 2999.2,-5080.57 2997.7,-5078.79 2996.34,-5076.98 2995.13,-5075.16 2994.09,-5073.33 2993.21,-5071.48 2992.51,-5069.64 2991.99,-5067.79 2991.67,-5065.96 2991.54,-5064.14 2991.62,-5062.33 2991.9,-5060.55 2992.4,-5058.79 2993.12,-5057.07 2994.05,-5055.39 2995.21,-5053.74 2996.58,-5052.14 2998.17,-5050.6 2999.98,-5049.1 3002.01,-5047.67 3004.24,-5046.3 3006.68,-5044.99 3009.32,-5043.76 3012.14,-5042.6 3015.15,-5041.51 3018.33,-5040.51 3021.67,-5039.58 3025.15,-5038.75 3028.77,-5038 3032.51,-5037.33 3036.36,-5036.76 3040.3,-5036.29 3044.31,-5035.9 3048.38,-5035.61 3052.5,-5035.42 3056.64,-5035.32 3060.79,-5035.32 3064.93,-5035.42"/>
<text text-anchor="start" x="3029.55" y="-5080.36" font-family="Times,serif" font-size="14.00">C0009566</text>
<text text-anchor="start" x="3022.17" y="-5066.36" font-family="Times,serif" font-size="14.00">complication</text>
<text text-anchor="start" x="3035.77" y="-5052.36" font-family="Times,serif" font-size="14.00">158:158</text>
</g>
<!-- id_27872609_DOT_7&#45;&#45;id_27872609_DOT_27 -->
<g id="edge13" class="edge">
<title>id_27872609_DOT_7&#45;&#45;id_27872609_DOT_27</title>
<path fill="none" stroke="black" stroke-dasharray="1,5" d="M2973.15,-4732.96C2991.08,-4803.72 3031.71,-4964.02 3049.77,-5035.28"/>
<text text-anchor="middle" x="2985.98" y="-4886.92" font-family="Times,serif" font-size="14.00">0.431111</text>
</g>
<!-- id_27872609_DOT_8 -->
<g id="node8" class="node">
<title>id_27872609_DOT_8</title>
<polygon fill="coral" stroke="coral" points="3023.95,-3480.01 3030.55,-3480.2 3037.07,-3480.49 3043.5,-3480.87 3049.8,-3481.35 3055.97,-3481.92 3061.96,-3482.58 3067.75,-3483.33 3073.33,-3484.17 3078.68,-3485.09 3083.77,-3486.1 3088.58,-3487.18 3093.11,-3488.34 3097.33,-3489.58 3101.24,-3490.88 3104.81,-3492.25 3108.06,-3493.69 3110.96,-3495.18 3113.51,-3496.73 3115.71,-3498.33 3117.56,-3499.97 3119.05,-3501.66 3120.2,-3503.38 3121,-3505.13 3121.46,-3506.92 3121.58,-3508.72 3121.38,-3510.54 3120.85,-3512.38 3120.03,-3514.22 3118.91,-3516.07 3117.5,-3517.91 3115.83,-3519.75 3113.89,-3521.57 3111.72,-3523.37 3109.32,-3525.16 3106.7,-3526.91 3103.89,-3528.63 3100.89,-3530.32 3097.73,-3531.96 3094.4,-3533.56 3090.94,-3535.11 3087.34,-3536.6 3083.63,-3538.04 3079.82,-3539.41 3075.92,-3540.71 3071.93,-3541.95 3067.87,-3543.11 3063.75,-3544.19 3059.57,-3545.2 3055.35,-3546.12 3051.09,-3546.96 3046.79,-3547.71 3042.47,-3548.37 3038.12,-3548.94 3033.76,-3549.42 3029.38,-3549.8 3025,-3550.09 3020.6,-3550.28 3016.2,-3550.38 3011.8,-3550.38 3007.4,-3550.28 3003,-3550.09 2998.62,-3549.8 2994.24,-3549.42 2989.88,-3548.94 2985.53,-3548.37 2981.21,-3547.71 2976.91,-3546.96 2972.65,-3546.12 2968.43,-3545.2 2964.25,-3544.19 2960.13,-3543.11 2956.07,-3541.95 2952.08,-3540.71 2948.18,-3539.41 2944.37,-3538.04 2940.66,-3536.6 2937.06,-3535.11 2933.6,-3533.56 2930.27,-3531.96 2927.11,-3530.32 2924.11,-3528.63 2921.3,-3526.91 2918.68,-3525.16 2916.28,-3523.37 2914.11,-3521.57 2912.17,-3519.75 2910.5,-3517.91 2909.09,-3516.07 2907.97,-3514.22 2907.15,-3512.38 2906.62,-3510.54 2906.42,-3508.72 2906.54,-3506.92 2907,-3505.13 2907.8,-3503.38 2908.95,-3501.66 2910.44,-3499.97 2912.29,-3498.33 2914.49,-3496.73 2917.04,-3495.18 2919.94,-3493.69 2923.19,-3492.25 2926.76,-3490.88 2930.67,-3489.58 2934.89,-3488.34 2939.42,-3487.18 2944.23,-3486.1 2949.32,-3485.09 2954.67,-3484.17 2960.25,-3483.33 2966.04,-3482.58 2972.03,-3481.92 2978.2,-3481.35 2984.5,-3480.87 2990.93,-3480.49 2997.45,-3480.2 3004.05,-3480.01 3010.68,-3479.91 3017.32,-3479.91 3023.95,-3480.01"/>
<text text-anchor="start" x="2984.83" y="-3524.95" font-family="Times,serif" font-size="14.00">C0003250</text>
<text text-anchor="start" x="2950.43" y="-3510.95" font-family="Times,serif" font-size="14.00">monoclonal antibodies</text>
<text text-anchor="start" x="2998.06" y="-3496.95" font-family="Times,serif" font-size="14.00">34:35</text>
</g>
<!-- id_27872609_DOT_8&#45;&#45;id_27872609_DOT_31 -->
<g id="edge14" class="edge">
<title>id_27872609_DOT_8&#45;&#45;id_27872609_DOT_31</title>
<path fill="none" stroke="black" stroke-dasharray="1,5" d="M3001.6,-3550.21C2978.53,-3615.46 2929.26,-3754.79 2906.24,-3819.89"/>
<text text-anchor="middle" x="2927.67" y="-3687.85" font-family="Times,serif" font-size="14.00">0.806904</text>
</g>
<!-- id_27872609_DOT_9 -->
<g id="node9" class="node">
<title>id_27872609_DOT_9</title>
<polygon fill="cornflowerblue" stroke="cornflowerblue" points="1945.79,-677.96 1950.3,-678.15 1954.76,-678.44 1959.16,-678.83 1963.47,-679.3 1967.69,-679.87 1971.79,-680.54 1975.75,-681.29 1979.57,-682.12 1983.22,-683.05 1986.71,-684.05 1990,-685.14 1993.1,-686.3 1995.98,-687.53 1998.66,-688.84 2001.1,-690.21 2003.32,-691.64 2005.31,-693.14 2007.05,-694.68 2008.56,-696.28 2009.82,-697.93 2010.84,-699.61 2011.63,-701.33 2012.17,-703.09 2012.49,-704.87 2012.57,-706.68 2012.43,-708.5 2012.08,-710.33 2011.51,-712.18 2010.74,-714.02 2009.78,-715.87 2008.63,-717.7 2007.31,-719.52 2005.83,-721.33 2004.18,-723.11 2002.4,-724.87 2000.47,-726.59 1998.42,-728.27 1996.25,-729.92 1993.98,-731.52 1991.61,-733.06 1989.15,-734.56 1986.62,-735.99 1984.01,-737.36 1981.34,-738.67 1978.61,-739.9 1975.83,-741.06 1973.01,-742.15 1970.15,-743.15 1967.27,-744.08 1964.35,-744.91 1961.41,-745.66 1958.46,-746.33 1955.48,-746.9 1952.5,-747.37 1949.5,-747.76 1946.5,-748.05 1943.5,-748.24 1940.49,-748.34 1937.48,-748.34 1934.47,-748.24 1931.46,-748.05 1928.46,-747.76 1925.46,-747.37 1922.48,-746.9 1919.51,-746.33 1916.55,-745.66 1913.61,-744.91 1910.7,-744.08 1907.81,-743.15 1904.95,-742.15 1902.13,-741.06 1899.36,-739.9 1896.63,-738.67 1893.96,-737.36 1891.35,-735.99 1888.81,-734.56 1886.35,-733.06 1883.98,-731.52 1881.71,-729.92 1879.54,-728.27 1877.49,-726.59 1875.57,-724.87 1873.78,-723.11 1872.14,-721.33 1870.65,-719.52 1869.33,-717.7 1868.18,-715.87 1867.22,-714.02 1866.45,-712.18 1865.89,-710.33 1865.53,-708.5 1865.39,-706.68 1865.48,-704.87 1865.79,-703.09 1866.34,-701.33 1867.12,-699.61 1868.14,-697.93 1869.41,-696.28 1870.91,-694.68 1872.66,-693.14 1874.64,-691.64 1876.86,-690.21 1879.31,-688.84 1881.98,-687.53 1884.87,-686.3 1887.96,-685.14 1891.26,-684.05 1894.74,-683.05 1898.39,-682.12 1902.21,-681.29 1906.18,-680.54 1910.28,-679.87 1914.49,-679.3 1918.8,-678.83 1923.2,-678.44 1927.66,-678.15 1932.17,-677.96 1936.71,-677.86 1941.25,-677.86 1945.79,-677.96"/>
<text text-anchor="start" x="1909.81" y="-722.9" font-family="Times,serif" font-size="14.00">C0920425</text>
<text text-anchor="start" x="1897.98" y="-708.9" font-family="Times,serif" font-size="14.00">cancer therapy</text>
<text text-anchor="start" x="1923.04" y="-694.9" font-family="Times,serif" font-size="14.00">37:38</text>
</g>
<!-- id_27872609_DOT_13 -->
<g id="node13" class="node">
<title>id_27872609_DOT_13</title>
<polygon fill="darkgreen" stroke="darkgreen" points="1562.23,-791.82 1565.62,-792.01 1568.98,-792.3 1572.29,-792.69 1575.54,-793.16 1578.71,-793.73 1581.8,-794.4 1584.79,-795.15 1587.66,-795.98 1590.41,-796.91 1593.04,-797.91 1595.52,-799 1597.85,-800.16 1600.02,-801.39 1602.03,-802.7 1603.88,-804.07 1605.55,-805.5 1607.04,-807 1608.35,-808.54 1609.49,-810.14 1610.44,-811.79 1611.21,-813.47 1611.8,-815.19 1612.21,-816.95 1612.45,-818.73 1612.51,-820.54 1612.41,-822.36 1612.14,-824.19 1611.71,-826.04 1611.13,-827.88 1610.41,-829.73 1609.55,-831.56 1608.55,-833.38 1607.43,-835.19 1606.2,-836.97 1604.85,-838.73 1603.4,-840.45 1601.86,-842.13 1600.22,-843.78 1598.51,-845.38 1596.73,-846.92 1594.88,-848.42 1592.97,-849.85 1591,-851.22 1588.99,-852.53 1586.94,-853.76 1584.85,-854.92 1582.72,-856.01 1580.57,-857.01 1578.4,-857.94 1576.2,-858.77 1573.99,-859.52 1571.76,-860.19 1569.52,-860.76 1567.28,-861.23 1565.02,-861.62 1562.76,-861.91 1560.5,-862.1 1558.23,-862.2 1555.96,-862.2 1553.7,-862.1 1551.43,-861.91 1549.17,-861.62 1546.92,-861.23 1544.67,-860.76 1542.43,-860.19 1540.21,-859.52 1537.99,-858.77 1535.8,-857.94 1533.62,-857.01 1531.47,-856.01 1529.35,-854.92 1527.26,-853.76 1525.21,-852.53 1523.19,-851.22 1521.23,-849.85 1519.32,-848.42 1517.47,-846.92 1515.68,-845.38 1513.97,-843.78 1512.34,-842.13 1510.8,-840.45 1509.35,-838.73 1508,-836.97 1506.76,-835.19 1505.64,-833.38 1504.65,-831.56 1503.79,-829.73 1503.06,-827.88 1502.48,-826.04 1502.06,-824.19 1501.79,-822.36 1501.69,-820.54 1501.75,-818.73 1501.98,-816.95 1502.4,-815.19 1502.99,-813.47 1503.76,-811.79 1504.71,-810.14 1505.84,-808.54 1507.16,-807 1508.65,-805.5 1510.32,-804.07 1512.16,-802.7 1514.18,-801.39 1516.35,-800.16 1518.68,-799 1521.16,-797.91 1523.78,-796.91 1526.54,-795.98 1529.41,-795.15 1532.4,-794.4 1535.48,-793.73 1538.66,-793.16 1541.9,-792.69 1545.22,-792.3 1548.58,-792.01 1551.97,-791.82 1555.39,-791.72 1558.81,-791.72 1562.23,-791.82"/>
<text text-anchor="start" x="1528.44" y="-836.76" font-family="Times,serif" font-size="14.00">C0087111</text>
<text text-anchor="start" x="1530.67" y="-822.76" font-family="Times,serif" font-size="14.00">treatment</text>
<text text-anchor="start" x="1541.15" y="-808.76" font-family="Times,serif" font-size="14.00">65:65</text>
</g>
<!-- id_27872609_DOT_9&#45;&#45;id_27872609_DOT_13 -->
<g id="edge15" class="edge">
<title>id_27872609_DOT_9&#45;&#45;id_27872609_DOT_13</title>
<path fill="none" stroke="black" stroke-dasharray="1,5" d="M1881.81,-730.15C1808.36,-752.05 1681.84,-789.77 1610.34,-811.08"/>
<text text-anchor="middle" x="1719.83" y="-773.42" font-family="Times,serif" font-size="14.00">0.696416</text>
</g>
<!-- id_27872609_DOT_18 -->
<g id="node18" class="node">
<title>id_27872609_DOT_18</title>
<polygon fill="blueviolet" stroke="blueviolet" points="1906.7,-3046.8 1915.1,-3046.99 1923.41,-3047.28 1931.6,-3047.66 1939.64,-3048.14 1947.49,-3048.71 1955.13,-3049.37 1962.52,-3050.12 1969.63,-3050.96 1976.44,-3051.88 1982.92,-3052.89 1989.06,-3053.97 1994.83,-3055.14 2000.21,-3056.37 2005.19,-3057.68 2009.75,-3059.05 2013.88,-3060.48 2017.57,-3061.97 2020.83,-3063.52 2023.63,-3065.12 2025.99,-3066.76 2027.89,-3068.45 2029.35,-3070.17 2030.37,-3071.93 2030.95,-3073.71 2031.11,-3075.51 2030.85,-3077.34 2030.19,-3079.17 2029.13,-3081.02 2027.7,-3082.86 2025.91,-3084.7 2023.78,-3086.54 2021.32,-3088.36 2018.55,-3090.17 2015.49,-3091.95 2012.15,-3093.7 2008.57,-3095.43 2004.75,-3097.11 2000.71,-3098.76 1996.48,-3100.35 1992.06,-3101.9 1987.48,-3103.4 1982.76,-3104.83 1977.9,-3106.2 1972.92,-3107.51 1967.84,-3108.74 1962.66,-3109.9 1957.41,-3110.99 1952.09,-3111.99 1946.71,-3112.91 1941.28,-3113.75 1935.8,-3114.5 1930.3,-3115.16 1924.76,-3115.73 1919.2,-3116.21 1913.62,-3116.6 1908.03,-3116.88 1902.43,-3117.08 1896.82,-3117.17 1891.21,-3117.17 1885.6,-3117.08 1880,-3116.88 1874.41,-3116.6 1868.83,-3116.21 1863.27,-3115.73 1857.73,-3115.16 1852.22,-3114.5 1846.75,-3113.75 1841.32,-3112.91 1835.94,-3111.99 1830.62,-3110.99 1825.36,-3109.9 1820.19,-3108.74 1815.11,-3107.51 1810.13,-3106.2 1805.27,-3104.83 1800.54,-3103.4 1795.97,-3101.9 1791.55,-3100.35 1787.32,-3098.76 1783.28,-3097.11 1779.46,-3095.43 1775.87,-3093.7 1772.54,-3091.95 1769.48,-3090.17 1766.71,-3088.36 1764.25,-3086.54 1762.11,-3084.7 1760.32,-3082.86 1758.89,-3081.02 1757.84,-3079.17 1757.18,-3077.34 1756.92,-3075.51 1757.07,-3073.71 1757.66,-3071.93 1758.68,-3070.17 1760.14,-3068.45 1762.04,-3066.76 1764.4,-3065.12 1767.2,-3063.52 1770.45,-3061.97 1774.15,-3060.48 1778.28,-3059.05 1782.84,-3057.68 1787.82,-3056.37 1793.2,-3055.14 1798.97,-3053.97 1805.1,-3052.89 1811.59,-3051.88 1818.4,-3050.96 1825.51,-3050.12 1832.9,-3049.37 1840.53,-3048.71 1848.39,-3048.14 1856.42,-3047.66 1864.62,-3047.28 1872.93,-3046.99 1881.33,-3046.8 1889.78,-3046.7 1898.25,-3046.7 1906.7,-3046.8"/>
<text text-anchor="start" x="1864.84" y="-3091.74" font-family="Times,serif" font-size="14.00">C0025080</text>
<text text-anchor="start" x="1811.02" y="-3077.74" font-family="Times,serif" font-size="14.00">dislocated central venous line</text>
<text text-anchor="start" x="1878.07" y="-3063.74" font-family="Times,serif" font-size="14.00">86:89</text>
</g>
<!-- id_27872609_DOT_10&#45;&#45;id_27872609_DOT_18 -->
<g id="edge16" class="edge">
<title>id_27872609_DOT_10&#45;&#45;id_27872609_DOT_18</title>
<path fill="none" stroke="black" stroke-dasharray="1,5" d="M1789.93,-2722.31C1811.67,-2797.39 1862.16,-2971.86 1883.83,-3046.75"/>
<text text-anchor="middle" x="1810.63" y="-2887.33" font-family="Times,serif" font-size="14.00">0.730238</text>
</g>
<!-- id_27872609_DOT_11 -->
<g id="node11" class="node">
<title>id_27872609_DOT_11</title>
<polygon fill="darkgoldenrod" stroke="darkgoldenrod" points="3661.38,-3419.55 3664.81,-3419.74 3668.2,-3420.03 3671.54,-3420.41 3674.82,-3420.89 3678.03,-3421.46 3681.14,-3422.12 3684.16,-3422.87 3687.06,-3423.71 3689.84,-3424.63 3692.49,-3425.64 3694.99,-3426.72 3697.35,-3427.88 3699.54,-3429.12 3701.58,-3430.42 3703.44,-3431.79 3705.12,-3433.23 3706.63,-3434.72 3707.96,-3436.27 3709.1,-3437.87 3710.06,-3439.51 3710.84,-3441.2 3711.44,-3442.92 3711.85,-3444.67 3712.09,-3446.46 3712.16,-3448.26 3712.05,-3450.08 3711.78,-3451.92 3711.35,-3453.76 3710.77,-3455.61 3710.04,-3457.45 3709.16,-3459.29 3708.16,-3461.11 3707.03,-3462.91 3705.78,-3464.7 3704.42,-3466.45 3702.96,-3468.17 3701.4,-3469.86 3699.75,-3471.5 3698.02,-3473.1 3696.22,-3474.65 3694.35,-3476.14 3692.42,-3477.58 3690.44,-3478.95 3688.41,-3480.25 3686.33,-3481.49 3684.22,-3482.65 3682.08,-3483.73 3679.9,-3484.74 3677.71,-3485.66 3675.49,-3486.5 3673.26,-3487.25 3671.01,-3487.91 3668.75,-3488.48 3666.48,-3488.96 3664.2,-3489.34 3661.92,-3489.63 3659.63,-3489.82 3657.34,-3489.92 3655.06,-3489.92 3652.77,-3489.82 3650.48,-3489.63 3648.2,-3489.34 3645.92,-3488.96 3643.65,-3488.48 3641.39,-3487.91 3639.14,-3487.25 3636.91,-3486.5 3634.69,-3485.66 3632.5,-3484.74 3630.32,-3483.73 3628.18,-3482.65 3626.07,-3481.49 3623.99,-3480.25 3621.96,-3478.95 3619.98,-3477.58 3618.05,-3476.14 3616.18,-3474.65 3614.38,-3473.1 3612.65,-3471.5 3611,-3469.86 3609.44,-3468.17 3607.98,-3466.45 3606.62,-3464.7 3605.37,-3462.91 3604.24,-3461.11 3603.24,-3459.29 3602.36,-3457.45 3601.63,-3455.61 3601.05,-3453.76 3600.62,-3451.92 3600.35,-3450.08 3600.24,-3448.26 3600.31,-3446.46 3600.55,-3444.67 3600.96,-3442.92 3601.56,-3441.2 3602.33,-3439.51 3603.3,-3437.87 3604.44,-3436.27 3605.77,-3434.72 3607.28,-3433.23 3608.96,-3431.79 3610.82,-3430.42 3612.86,-3429.12 3615.05,-3427.88 3617.41,-3426.72 3619.91,-3425.64 3622.56,-3424.63 3625.34,-3423.71 3628.24,-3422.87 3631.26,-3422.12 3634.37,-3421.46 3637.58,-3420.89 3640.86,-3420.41 3644.2,-3420.03 3647.59,-3419.74 3651.02,-3419.55 3654.47,-3419.45 3657.93,-3419.45 3661.38,-3419.55"/>
<text text-anchor="start" x="3627.03" y="-3464.49" font-family="Times,serif" font-size="14.00">C0009421</text>
<text text-anchor="start" x="3641.04" y="-3450.49" font-family="Times,serif" font-size="14.00">coma</text>
<text text-anchor="start" x="3640.26" y="-3436.49" font-family="Times,serif" font-size="14.00">54:54</text>
</g>
<!-- id_27872609_DOT_24 -->
<g id="node24" class="node">
<title>id_27872609_DOT_24</title>
<polygon fill="deepskyblue" stroke="deepskyblue" points="3289.6,-3588.65 3293.03,-3588.84 3296.43,-3589.13 3299.77,-3589.52 3303.05,-3589.99 3306.25,-3590.57 3309.37,-3591.23 3312.39,-3591.98 3315.29,-3592.81 3318.07,-3593.74 3320.72,-3594.74 3323.22,-3595.83 3325.57,-3596.99 3327.77,-3598.22 3329.8,-3599.53 3331.66,-3600.9 3333.35,-3602.33 3334.86,-3603.83 3336.19,-3605.37 3337.33,-3606.97 3338.29,-3608.62 3339.07,-3610.3 3339.67,-3612.03 3340.08,-3613.78 3340.32,-3615.56 3340.38,-3617.37 3340.28,-3619.19 3340.01,-3621.03 3339.58,-3622.87 3338.99,-3624.71 3338.26,-3626.56 3337.39,-3628.39 3336.39,-3630.21 3335.26,-3632.02 3334.01,-3633.8 3332.65,-3635.56 3331.18,-3637.28 3329.62,-3638.97 3327.98,-3640.61 3326.25,-3642.21 3324.45,-3643.76 3322.58,-3645.25 3320.65,-3646.68 3318.66,-3648.05 3316.63,-3649.36 3314.56,-3650.59 3312.45,-3651.75 3310.3,-3652.84 3308.13,-3653.84 3305.93,-3654.77 3303.72,-3655.6 3301.48,-3656.36 3299.24,-3657.02 3296.98,-3657.59 3294.71,-3658.06 3292.43,-3658.45 3290.15,-3658.74 3287.86,-3658.93 3285.57,-3659.03 3283.28,-3659.03 3280.99,-3658.93 3278.71,-3658.74 3276.43,-3658.45 3274.15,-3658.06 3271.88,-3657.59 3269.62,-3657.02 3267.37,-3656.36 3265.14,-3655.6 3262.92,-3654.77 3260.72,-3653.84 3258.55,-3652.84 3256.41,-3651.75 3254.3,-3650.59 3252.22,-3649.36 3250.19,-3648.05 3248.21,-3646.68 3246.28,-3645.25 3244.41,-3643.76 3242.61,-3642.21 3240.88,-3640.61 3239.23,-3638.97 3237.67,-3637.28 3236.21,-3635.56 3234.85,-3633.8 3233.6,-3632.02 3232.47,-3630.21 3231.46,-3628.39 3230.59,-3626.56 3229.86,-3624.71 3229.28,-3622.87 3228.85,-3621.03 3228.58,-3619.19 3228.47,-3617.37 3228.53,-3615.56 3228.77,-3613.78 3229.19,-3612.03 3229.78,-3610.3 3230.56,-3608.62 3231.52,-3606.97 3232.67,-3605.37 3233.99,-3603.83 3235.5,-3602.33 3237.19,-3600.9 3239.05,-3599.53 3241.08,-3598.22 3243.28,-3596.99 3245.63,-3595.83 3248.14,-3594.74 3250.78,-3593.74 3253.56,-3592.81 3256.47,-3591.98 3259.48,-3591.23 3262.6,-3590.57 3265.8,-3589.99 3269.08,-3589.52 3272.43,-3589.13 3275.82,-3588.84 3279.25,-3588.65 3282.7,-3588.56 3286.16,-3588.56 3289.6,-3588.65"/>
<text text-anchor="start" x="3255.26" y="-3633.59" font-family="Times,serif" font-size="14.00">C0003241</text>
<text text-anchor="start" x="3259.93" y="-3619.59" font-family="Times,serif" font-size="14.00">antibody</text>
<text text-anchor="start" x="3261.48" y="-3605.59" font-family="Times,serif" font-size="14.00">136:136</text>
</g>
<!-- id_27872609_DOT_11&#45;&#45;id_27872609_DOT_24 -->
<g id="edge17" class="edge">
<title>id_27872609_DOT_11&#45;&#45;id_27872609_DOT_24</title>
<path fill="none" stroke="black" stroke-dasharray="1,5" d="M3614.63,-3473.59C3545.29,-3505.14 3406.35,-3568.33 3332.75,-3601.81"/>
<text text-anchor="middle" x="3447.44" y="-3540.5" font-family="Times,serif" font-size="14.00">0.728470</text>
</g>
<!-- id_27872609_DOT_12&#45;&#45;id_27872609_DOT_25 -->
<g id="edge18" class="edge">
<title>id_27872609_DOT_12&#45;&#45;id_27872609_DOT_25</title>
<path fill="none" stroke="black" stroke-dasharray="1,5" d="M879.25,-1164.54C970.52,-1167.91 1131.15,-1173.84 1215.59,-1176.95"/>
<text text-anchor="middle" x="1021.43" y="-1173.55" font-family="Times,serif" font-size="14.00">0.921311</text>
</g>
<!-- id_27872609_DOT_13&#45;&#45;id_27872609_DOT_25 -->
<g id="edge19" class="edge">
<title>id_27872609_DOT_13&#45;&#45;id_27872609_DOT_25</title>
<path fill="none" stroke="black" stroke-dasharray="1,5" d="M1532.71,-856.97C1479.34,-922.65 1352.59,-1078.66 1297.44,-1146.53"/>
<text text-anchor="middle" x="1388.83" y="-1004.55" font-family="Times,serif" font-size="14.00">0.841053</text>
</g>
<!-- id_27872609_DOT_29 -->
<g id="node29" class="node">
<title>id_27872609_DOT_29</title>
<polygon fill="darkgreen" stroke="darkgreen" points="1551.76,-376.78 1555.16,-376.97 1558.52,-377.26 1561.83,-377.65 1565.08,-378.12 1568.25,-378.69 1571.34,-379.36 1574.32,-380.11 1577.2,-380.94 1579.95,-381.87 1582.57,-382.87 1585.05,-383.96 1587.38,-385.12 1589.56,-386.35 1591.57,-387.66 1593.41,-389.03 1595.08,-390.46 1596.58,-391.96 1597.89,-393.5 1599.03,-395.1 1599.98,-396.75 1600.75,-398.43 1601.34,-400.15 1601.75,-401.91 1601.99,-403.69 1602.05,-405.5 1601.94,-407.32 1601.68,-409.16 1601.25,-411 1600.67,-412.84 1599.95,-414.69 1599.08,-416.52 1598.09,-418.34 1596.97,-420.15 1595.73,-421.93 1594.39,-423.69 1592.94,-425.41 1591.39,-427.09 1589.76,-428.74 1588.05,-430.34 1586.27,-431.88 1584.41,-433.38 1582.5,-434.81 1580.54,-436.18 1578.53,-437.49 1576.47,-438.72 1574.38,-439.88 1572.26,-440.97 1570.11,-441.97 1567.93,-442.9 1565.74,-443.73 1563.53,-444.48 1561.3,-445.15 1559.06,-445.72 1556.81,-446.19 1554.56,-446.58 1552.3,-446.87 1550.04,-447.06 1547.77,-447.16 1545.5,-447.16 1543.24,-447.06 1540.97,-446.87 1538.71,-446.58 1536.46,-446.19 1534.21,-445.72 1531.97,-445.15 1529.74,-444.48 1527.53,-443.73 1525.34,-442.9 1523.16,-441.97 1521.01,-440.97 1518.89,-439.88 1516.8,-438.72 1514.74,-437.49 1512.73,-436.18 1510.77,-434.81 1508.86,-433.38 1507.01,-431.88 1505.22,-430.34 1503.51,-428.74 1501.88,-427.09 1500.33,-425.41 1498.88,-423.69 1497.54,-421.93 1496.3,-420.15 1495.18,-418.34 1494.19,-416.52 1493.32,-414.69 1492.6,-412.84 1492.02,-411 1491.6,-409.16 1491.33,-407.32 1491.22,-405.5 1491.29,-403.69 1491.52,-401.91 1491.93,-400.15 1492.52,-398.43 1493.29,-396.75 1494.25,-395.1 1495.38,-393.5 1496.69,-391.96 1498.19,-390.46 1499.86,-389.03 1501.7,-387.66 1503.71,-386.35 1505.89,-385.12 1508.22,-383.96 1510.7,-382.87 1513.32,-381.87 1516.07,-380.94 1518.95,-380.11 1521.93,-379.36 1525.02,-378.69 1528.19,-378.12 1531.44,-377.65 1534.75,-377.26 1538.11,-376.97 1541.51,-376.78 1544.92,-376.69 1548.35,-376.69 1551.76,-376.78"/>
<text text-anchor="start" x="1517.98" y="-421.72" font-family="Times,serif" font-size="14.00">C0087111</text>
<text text-anchor="start" x="1520.2" y="-407.72" font-family="Times,serif" font-size="14.00">treatment</text>
<text text-anchor="start" x="1523.69" y="-393.72" font-family="Times,serif" font-size="14.00">161:161</text>
</g>
<!-- id_27872609_DOT_13&#45;&#45;id_27872609_DOT_29 -->
<g id="edge6" class="edge">
<title>id_27872609_DOT_13&#45;&#45;id_27872609_DOT_29</title>
<path fill="none" stroke="black" d="M1556.21,-791.57C1554.23,-713.16 1549.5,-525.55 1547.53,-447.22"/>
<text text-anchor="middle" x="1525.62" y="-622.2" font-family="Times,serif" font-size="14.00">0.002425</text>
</g>
<!-- id_27872609_DOT_14 -->
<g id="node14" class="node">
<title>id_27872609_DOT_14</title>
<polygon fill="darkkhaki" stroke="darkkhaki" points="1430.99,-1529.07 1438.91,-1529.26 1446.75,-1529.55 1454.47,-1529.93 1462.04,-1530.41 1469.44,-1530.98 1476.64,-1531.64 1483.6,-1532.39 1490.31,-1533.23 1496.73,-1534.15 1502.84,-1535.16 1508.62,-1536.24 1514.06,-1537.4 1519.13,-1538.64 1523.82,-1539.94 1528.12,-1541.31 1532.02,-1542.75 1535.5,-1544.24 1538.56,-1545.79 1541.21,-1547.39 1543.43,-1549.03 1545.22,-1550.72 1546.6,-1552.44 1547.56,-1554.19 1548.11,-1555.98 1548.26,-1557.78 1548.01,-1559.6 1547.39,-1561.44 1546.39,-1563.28 1545.05,-1565.13 1543.36,-1566.97 1541.35,-1568.8 1539.03,-1570.63 1536.41,-1572.43 1533.53,-1574.21 1530.39,-1575.97 1527.01,-1577.69 1523.41,-1579.38 1519.6,-1581.02 1515.61,-1582.62 1511.45,-1584.17 1507.14,-1585.66 1502.68,-1587.1 1498.1,-1588.47 1493.41,-1589.77 1488.62,-1591.01 1483.74,-1592.17 1478.79,-1593.25 1473.78,-1594.26 1468.7,-1595.18 1463.58,-1596.02 1458.43,-1596.77 1453.23,-1597.43 1448.01,-1598 1442.77,-1598.48 1437.51,-1598.86 1432.24,-1599.15 1426.96,-1599.34 1421.68,-1599.44 1416.39,-1599.44 1411.11,-1599.34 1405.83,-1599.15 1400.56,-1598.86 1395.3,-1598.48 1390.06,-1598 1384.84,-1597.43 1379.65,-1596.77 1374.49,-1596.02 1369.37,-1595.18 1364.3,-1594.26 1359.28,-1593.25 1354.33,-1592.17 1349.45,-1591.01 1344.66,-1589.77 1339.97,-1588.47 1335.39,-1587.1 1330.94,-1585.66 1326.62,-1584.17 1322.46,-1582.62 1318.47,-1581.02 1314.66,-1579.38 1311.06,-1577.69 1307.68,-1575.97 1304.54,-1574.21 1301.66,-1572.43 1299.05,-1570.63 1296.73,-1568.8 1294.71,-1566.97 1293.02,-1565.13 1291.68,-1563.28 1290.68,-1561.44 1290.06,-1559.6 1289.81,-1557.78 1289.96,-1555.98 1290.51,-1554.19 1291.47,-1552.44 1292.85,-1550.72 1294.64,-1549.03 1296.86,-1547.39 1299.51,-1545.79 1302.57,-1544.24 1306.06,-1542.75 1309.95,-1541.31 1314.25,-1539.94 1318.94,-1538.64 1324.01,-1537.4 1329.45,-1536.24 1335.23,-1535.16 1341.34,-1534.15 1347.76,-1533.23 1354.47,-1532.39 1361.43,-1531.64 1368.63,-1530.98 1376.03,-1530.41 1383.6,-1529.93 1391.33,-1529.55 1399.16,-1529.26 1407.08,-1529.07 1415.04,-1528.97 1423.03,-1528.97 1430.99,-1529.07"/>
<text text-anchor="start" x="1389.87" y="-1574" font-family="Times,serif" font-size="14.00">C0948380</text>
<text text-anchor="start" x="1341.31" y="-1560" font-family="Times,serif" font-size="14.00">metastatic colorectal cancer</text>
<text text-anchor="start" x="1403.09" y="-1546" font-family="Times,serif" font-size="14.00">67:69</text>
</g>
<!-- id_27872609_DOT_14&#45;&#45;id_27872609_DOT_25 -->
<g id="edge20" class="edge">
<title>id_27872609_DOT_14&#45;&#45;id_27872609_DOT_25</title>
<path fill="none" stroke="black" stroke-dasharray="1,5" d="M1405.51,-1529C1377.18,-1455.26 1311.95,-1285.45 1284.07,-1212.88"/>
<text text-anchor="middle" x="1318.54" y="-1373.74" font-family="Times,serif" font-size="14.00">0.753373</text>
</g>
<!-- id_27872609_DOT_14&#45;&#45;id_27872609_DOT_26 -->
<g id="edge21" class="edge">
<title>id_27872609_DOT_14&#45;&#45;id_27872609_DOT_26</title>
<path fill="none" stroke="black" stroke-dasharray="1,5" d="M1430.88,-1599.5C1455.12,-1671.69 1510.09,-1835.46 1534.34,-1907.68"/>
<text text-anchor="middle" x="1456.36" y="-1756.39" font-family="Times,serif" font-size="14.00">0.683554</text>
</g>
<!-- id_27872609_DOT_15 -->
<g id="node15" class="node">
<title>id_27872609_DOT_15</title>
<polygon fill="darkmagenta" stroke="darkmagenta" points="2313.54,-4031.35 2319,-4031.54 2324.4,-4031.83 2329.73,-4032.22 2334.96,-4032.69 2340.06,-4033.26 2345.03,-4033.93 2349.83,-4034.68 2354.46,-4035.51 2358.88,-4036.44 2363.1,-4037.44 2367.09,-4038.53 2370.84,-4039.69 2374.34,-4040.92 2377.58,-4042.23 2380.54,-4043.6 2383.23,-4045.03 2385.63,-4046.53 2387.75,-4048.07 2389.57,-4049.67 2391.1,-4051.32 2392.34,-4053 2393.29,-4054.72 2393.95,-4056.48 2394.33,-4058.26 2394.44,-4060.07 2394.27,-4061.89 2393.84,-4063.72 2393.15,-4065.57 2392.22,-4067.41 2391.06,-4069.26 2389.67,-4071.09 2388.07,-4072.91 2386.27,-4074.72 2384.28,-4076.5 2382.11,-4078.26 2379.78,-4079.98 2377.29,-4081.66 2374.67,-4083.31 2371.92,-4084.91 2369.04,-4086.45 2366.07,-4087.95 2362.99,-4089.38 2359.83,-4090.75 2356.6,-4092.06 2353.29,-4093.29 2349.93,-4094.45 2346.51,-4095.54 2343.05,-4096.54 2339.55,-4097.47 2336.02,-4098.3 2332.46,-4099.05 2328.88,-4099.72 2325.28,-4100.29 2321.66,-4100.76 2318.03,-4101.15 2314.4,-4101.44 2310.76,-4101.63 2307.11,-4101.73 2303.46,-4101.73 2299.82,-4101.63 2296.17,-4101.44 2292.54,-4101.15 2288.91,-4100.76 2285.29,-4100.29 2281.69,-4099.72 2278.11,-4099.05 2274.55,-4098.3 2271.02,-4097.47 2267.52,-4096.54 2264.06,-4095.54 2260.65,-4094.45 2257.28,-4093.29 2253.98,-4092.06 2250.74,-4090.75 2247.58,-4089.38 2244.51,-4087.95 2241.53,-4086.45 2238.66,-4084.91 2235.9,-4083.31 2233.28,-4081.66 2230.79,-4079.98 2228.46,-4078.26 2226.3,-4076.5 2224.31,-4074.72 2222.51,-4072.91 2220.9,-4071.09 2219.52,-4069.26 2218.35,-4067.41 2217.42,-4065.57 2216.74,-4063.72 2216.31,-4061.89 2216.14,-4060.07 2216.24,-4058.26 2216.62,-4056.48 2217.28,-4054.72 2218.23,-4053 2219.47,-4051.32 2221,-4049.67 2222.82,-4048.07 2224.94,-4046.53 2227.34,-4045.03 2230.03,-4043.6 2232.99,-4042.23 2236.23,-4040.92 2239.73,-4039.69 2243.48,-4038.53 2247.47,-4037.44 2251.69,-4036.44 2256.12,-4035.51 2260.74,-4034.68 2265.55,-4033.93 2270.51,-4033.26 2275.62,-4032.69 2280.84,-4032.22 2286.17,-4031.83 2291.57,-4031.54 2297.04,-4031.35 2302.53,-4031.25 2308.04,-4031.25 2313.54,-4031.35"/>
<text text-anchor="start" x="2276.12" y="-4076.29" font-family="Times,serif" font-size="14.00">C0013516</text>
<text text-anchor="start" x="2253.98" y="-4062.29" font-family="Times,serif" font-size="14.00">Echocardiography</text>
<text text-anchor="start" x="2289.34" y="-4048.29" font-family="Times,serif" font-size="14.00">71:71</text>
</g>
<!-- id_27872609_DOT_22 -->
<g id="node22" class="node">
<title>id_27872609_DOT_22</title>
<polygon fill="darkslategrey" stroke="darkslategrey" points="2469.29,-3682.12 2475.87,-3682.31 2482.38,-3682.6 2488.8,-3682.98 2495.1,-3683.46 2501.25,-3684.03 2507.23,-3684.69 2513.01,-3685.44 2518.58,-3686.28 2523.92,-3687.2 2529,-3688.21 2533.81,-3689.29 2538.33,-3690.45 2542.54,-3691.69 2546.44,-3692.99 2550.01,-3694.36 2553.25,-3695.8 2556.14,-3697.29 2558.69,-3698.84 2560.89,-3700.44 2562.73,-3702.08 2564.23,-3703.77 2565.37,-3705.49 2566.17,-3707.24 2566.62,-3709.03 2566.75,-3710.83 2566.54,-3712.66 2566.02,-3714.49 2565.2,-3716.33 2564.08,-3718.18 2562.68,-3720.02 2561,-3721.86 2559.08,-3723.68 2556.91,-3725.48 2554.51,-3727.27 2551.9,-3729.02 2549.09,-3730.74 2546.1,-3732.43 2542.93,-3734.07 2539.62,-3735.67 2536.16,-3737.22 2532.57,-3738.71 2528.87,-3740.15 2525.06,-3741.52 2521.16,-3742.82 2517.18,-3744.06 2513.13,-3745.22 2509.01,-3746.3 2504.85,-3747.31 2500.63,-3748.23 2496.38,-3749.07 2492.09,-3749.82 2487.77,-3750.48 2483.44,-3751.05 2479.08,-3751.53 2474.71,-3751.91 2470.33,-3752.2 2465.94,-3752.39 2461.55,-3752.49 2457.16,-3752.49 2452.76,-3752.39 2448.38,-3752.2 2443.99,-3751.91 2439.62,-3751.53 2435.27,-3751.05 2430.93,-3750.48 2426.62,-3749.82 2422.33,-3749.07 2418.07,-3748.23 2413.86,-3747.31 2409.69,-3746.3 2405.58,-3745.22 2401.52,-3744.06 2397.54,-3742.82 2393.64,-3741.52 2389.84,-3740.15 2386.13,-3738.71 2382.55,-3737.22 2379.09,-3735.67 2375.77,-3734.07 2372.61,-3732.43 2369.62,-3730.74 2366.81,-3729.02 2364.2,-3727.27 2361.8,-3725.48 2359.63,-3723.68 2357.7,-3721.86 2356.03,-3720.02 2354.63,-3718.18 2353.51,-3716.33 2352.68,-3714.49 2352.16,-3712.66 2351.96,-3710.83 2352.08,-3709.03 2352.54,-3707.24 2353.34,-3705.49 2354.48,-3703.77 2355.97,-3702.08 2357.82,-3700.44 2360.01,-3698.84 2362.56,-3697.29 2365.46,-3695.8 2368.69,-3694.36 2372.27,-3692.99 2376.16,-3691.69 2380.38,-3690.45 2384.9,-3689.29 2389.7,-3688.21 2394.78,-3687.2 2400.12,-3686.28 2405.69,-3685.44 2411.48,-3684.69 2417.46,-3684.03 2423.61,-3683.46 2429.91,-3682.98 2436.32,-3682.6 2442.83,-3682.31 2449.41,-3682.12 2456.04,-3682.02 2462.67,-3682.02 2469.29,-3682.12"/>
<text text-anchor="start" x="2430.18" y="-3727.06" font-family="Times,serif" font-size="14.00">C0027765</text>
<text text-anchor="start" x="2396.17" y="-3713.06" font-family="Times,serif" font-size="14.00">neurological condition</text>
<text text-anchor="start" x="2436.92" y="-3699.06" font-family="Times,serif" font-size="14.00">113:114</text>
</g>
<!-- id_27872609_DOT_15&#45;&#45;id_27872609_DOT_22 -->
<g id="edge22" class="edge">
<title>id_27872609_DOT_15&#45;&#45;id_27872609_DOT_22</title>
<path fill="none" stroke="black" stroke-dasharray="1,5" d="M2320.76,-4031.41C2350.33,-3964.38 2414.53,-3818.86 2444,-3752.06"/>
<text text-anchor="middle" x="2356.13" y="-3894.53" font-family="Times,serif" font-size="14.00">0.720089</text>
</g>
<!-- id_27872609_DOT_16&#45;&#45;id_27872609_DOT_31 -->
<g id="edge23" class="edge">
<title>id_27872609_DOT_16&#45;&#45;id_27872609_DOT_31</title>
<path fill="none" stroke="black" stroke-dasharray="1,5" d="M3199.6,-4007.37C3129.84,-3972.54 2999.78,-3907.62 2934.09,-3874.82"/>
<text text-anchor="middle" x="3040.6" y="-3943.9" font-family="Times,serif" font-size="14.00">0.810815</text>
</g>
<!-- id_27872609_DOT_17 -->
<g id="node17" class="node">
<title>id_27872609_DOT_17</title>
<polygon fill="darkred" stroke="darkred" points="1702.35,-3733.8 1708.41,-3734 1714.4,-3734.28 1720.31,-3734.67 1726.1,-3735.15 1731.76,-3735.72 1737.27,-3736.38 1742.59,-3737.13 1747.72,-3737.97 1752.63,-3738.89 1757.31,-3739.89 1761.73,-3740.98 1765.89,-3742.14 1769.77,-3743.37 1773.36,-3744.68 1776.65,-3746.05 1779.63,-3747.48 1782.29,-3748.98 1784.64,-3750.52 1786.66,-3752.12 1788.36,-3753.77 1789.73,-3755.45 1790.78,-3757.18 1791.52,-3758.93 1791.94,-3760.71 1792.05,-3762.52 1791.86,-3764.34 1791.38,-3766.18 1790.62,-3768.02 1789.59,-3769.86 1788.3,-3771.71 1786.76,-3773.54 1784.99,-3775.36 1782.99,-3777.17 1780.78,-3778.95 1778.38,-3780.71 1775.8,-3782.43 1773.04,-3784.12 1770.13,-3785.76 1767.08,-3787.36 1763.9,-3788.91 1760.59,-3790.4 1757.19,-3791.83 1753.68,-3793.2 1750.09,-3794.51 1746.43,-3795.74 1742.7,-3796.91 1738.91,-3797.99 1735.08,-3798.99 1731.2,-3799.92 1727.28,-3800.76 1723.33,-3801.51 1719.36,-3802.17 1715.37,-3802.74 1711.36,-3803.22 1707.34,-3803.6 1703.31,-3803.89 1699.27,-3804.08 1695.23,-3804.18 1691.18,-3804.18 1687.14,-3804.08 1683.1,-3803.89 1679.07,-3803.6 1675.05,-3803.22 1671.04,-3802.74 1667.05,-3802.17 1663.07,-3801.51 1659.13,-3800.76 1655.21,-3799.92 1651.33,-3798.99 1647.49,-3797.99 1643.71,-3796.91 1639.98,-3795.74 1636.31,-3794.51 1632.73,-3793.2 1629.22,-3791.83 1625.81,-3790.4 1622.51,-3788.91 1619.33,-3787.36 1616.28,-3785.76 1613.37,-3784.12 1610.61,-3782.43 1608.03,-3780.71 1605.62,-3778.95 1603.42,-3777.17 1601.42,-3775.36 1599.64,-3773.54 1598.11,-3771.71 1596.81,-3769.86 1595.78,-3768.02 1595.02,-3766.18 1594.55,-3764.34 1594.36,-3762.52 1594.47,-3760.71 1594.89,-3758.93 1595.63,-3757.18 1596.68,-3755.45 1598.05,-3753.77 1599.75,-3752.12 1601.77,-3750.52 1604.12,-3748.98 1606.78,-3747.48 1609.76,-3746.05 1613.05,-3744.68 1616.64,-3743.37 1620.52,-3742.14 1624.68,-3740.98 1629.1,-3739.89 1633.78,-3738.89 1638.69,-3737.97 1643.81,-3737.13 1649.14,-3736.38 1654.65,-3735.72 1660.31,-3735.15 1666.1,-3734.67 1672.01,-3734.28 1678,-3734 1684.06,-3733.8 1690.15,-3733.71 1696.26,-3733.71 1702.35,-3733.8"/>
<text text-anchor="start" x="1664.04" y="-3778.74" font-family="Times,serif" font-size="14.00">C0225897</text>
<text text-anchor="start" x="1635.69" y="-3764.74" font-family="Times,serif" font-size="14.00">left cardiac ventricle</text>
<text text-anchor="start" x="1677.26" y="-3750.74" font-family="Times,serif" font-size="14.00">81:83</text>
</g>
<!-- id_27872609_DOT_21 -->
<g id="node21" class="node">
<title>id_27872609_DOT_21</title>
<polygon fill="darkslateblue" stroke="darkslateblue" points="1469,-4096.18 1472.99,-4096.38 1476.93,-4096.66 1480.82,-4097.05 1484.64,-4097.53 1488.36,-4098.1 1491.99,-4098.76 1495.49,-4099.51 1498.87,-4100.35 1502.1,-4101.27 1505.18,-4102.27 1508.09,-4103.36 1510.83,-4104.52 1513.39,-4105.75 1515.75,-4107.06 1517.91,-4108.43 1519.88,-4109.86 1521.63,-4111.36 1523.17,-4112.9 1524.5,-4114.5 1525.62,-4116.15 1526.53,-4117.83 1527.22,-4119.56 1527.7,-4121.31 1527.98,-4123.09 1528.05,-4124.9 1527.93,-4126.72 1527.62,-4128.56 1527.12,-4130.4 1526.44,-4132.24 1525.59,-4134.09 1524.57,-4135.92 1523.41,-4137.75 1522.09,-4139.55 1520.64,-4141.33 1519.06,-4143.09 1517.35,-4144.81 1515.54,-4146.5 1513.63,-4148.14 1511.62,-4149.74 1509.52,-4151.29 1507.35,-4152.78 1505.1,-4154.21 1502.8,-4155.58 1500.43,-4156.89 1498.02,-4158.12 1495.56,-4159.29 1493.07,-4160.37 1490.55,-4161.38 1487.99,-4162.3 1485.41,-4163.14 1482.82,-4163.89 1480.2,-4164.55 1477.57,-4165.12 1474.93,-4165.6 1472.28,-4165.98 1469.63,-4166.27 1466.97,-4166.46 1464.31,-4166.56 1461.65,-4166.56 1458.99,-4166.46 1456.33,-4166.27 1453.67,-4165.98 1451.02,-4165.6 1448.38,-4165.12 1445.76,-4164.55 1443.14,-4163.89 1440.54,-4163.14 1437.97,-4162.3 1435.41,-4161.38 1432.89,-4160.37 1430.39,-4159.29 1427.94,-4158.12 1425.52,-4156.89 1423.16,-4155.58 1420.86,-4154.21 1418.61,-4152.78 1416.44,-4151.29 1414.34,-4149.74 1412.33,-4148.14 1410.42,-4146.5 1408.6,-4144.81 1406.9,-4143.09 1405.32,-4141.33 1403.87,-4139.55 1402.55,-4137.75 1401.38,-4135.92 1400.37,-4134.09 1399.52,-4132.24 1398.84,-4130.4 1398.34,-4128.56 1398.03,-4126.72 1397.9,-4124.9 1397.98,-4123.09 1398.25,-4121.31 1398.74,-4119.56 1399.43,-4117.83 1400.33,-4116.15 1401.45,-4114.5 1402.78,-4112.9 1404.33,-4111.36 1406.08,-4109.86 1408.04,-4108.43 1410.21,-4107.06 1412.57,-4105.75 1415.12,-4104.52 1417.86,-4103.36 1420.77,-4102.27 1423.85,-4101.27 1427.09,-4100.35 1430.46,-4099.51 1433.97,-4098.76 1437.59,-4098.1 1441.32,-4097.53 1445.14,-4097.05 1449.02,-4096.66 1452.97,-4096.38 1456.96,-4096.18 1460.97,-4096.09 1464.99,-4096.09 1469,-4096.18"/>
<text text-anchor="start" x="1433.81" y="-4141.12" font-family="Times,serif" font-size="14.00">C0016733</text>
<text text-anchor="start" x="1427.79" y="-4127.12" font-family="Times,serif" font-size="14.00">frontal lobes</text>
<text text-anchor="start" x="1440.03" y="-4113.12" font-family="Times,serif" font-size="14.00">108:109</text>
</g>
<!-- id_27872609_DOT_17&#45;&#45;id_27872609_DOT_21 -->
<g id="edge24" class="edge">
<title>id_27872609_DOT_17&#45;&#45;id_27872609_DOT_21</title>
<path fill="none" stroke="black" stroke-dasharray="1,5" d="M1671.54,-3803.03C1627.61,-3872.19 1528.47,-4028.24 1484.58,-4097.32"/>
<text text-anchor="middle" x="1551.81" y="-3952.98" font-family="Times,serif" font-size="14.00">0.769412</text>
</g>
<!-- id_27872609_DOT_23 -->
<g id="node23" class="node">
<title>id_27872609_DOT_23</title>
<polygon fill="darkviolet" stroke="darkviolet" points="1315.66,-3705.85 1319.07,-3706.04 1322.45,-3706.33 1325.78,-3706.72 1329.04,-3707.19 1332.23,-3707.76 1335.33,-3708.42 1338.33,-3709.18 1341.22,-3710.01 1343.99,-3710.94 1346.62,-3711.94 1349.11,-3713.03 1351.45,-3714.19 1353.64,-3715.42 1355.66,-3716.73 1357.51,-3718.1 1359.19,-3719.53 1360.69,-3721.02 1362.01,-3722.57 1363.15,-3724.17 1364.11,-3725.81 1364.88,-3727.5 1365.48,-3729.22 1365.89,-3730.98 1366.13,-3732.76 1366.19,-3734.57 1366.09,-3736.39 1365.82,-3738.22 1365.39,-3740.07 1364.81,-3741.91 1364.08,-3743.75 1363.21,-3745.59 1362.21,-3747.41 1361.09,-3749.22 1359.85,-3751 1358.49,-3752.75 1357.04,-3754.48 1355.48,-3756.16 1353.84,-3757.81 1352.12,-3759.41 1350.33,-3760.95 1348.47,-3762.45 1346.55,-3763.88 1344.58,-3765.25 1342.56,-3766.56 1340.49,-3767.79 1338.39,-3768.95 1336.26,-3770.04 1334.1,-3771.04 1331.91,-3771.97 1329.7,-3772.8 1327.48,-3773.55 1325.24,-3774.21 1322.99,-3774.79 1320.74,-3775.26 1318.47,-3775.65 1316.2,-3775.93 1313.92,-3776.13 1311.65,-3776.22 1309.37,-3776.22 1307.09,-3776.13 1304.82,-3775.93 1302.54,-3775.65 1300.28,-3775.26 1298.02,-3774.79 1295.77,-3774.21 1293.53,-3773.55 1291.31,-3772.8 1289.1,-3771.97 1286.92,-3771.04 1284.76,-3770.04 1282.62,-3768.95 1280.52,-3767.79 1278.46,-3766.56 1276.44,-3765.25 1274.46,-3763.88 1272.54,-3762.45 1270.68,-3760.95 1268.89,-3759.41 1267.17,-3757.81 1265.53,-3756.16 1263.98,-3754.48 1262.52,-3752.75 1261.17,-3751 1259.93,-3749.22 1258.8,-3747.41 1257.8,-3745.59 1256.93,-3743.75 1256.21,-3741.91 1255.63,-3740.07 1255.2,-3738.22 1254.93,-3736.39 1254.82,-3734.57 1254.89,-3732.76 1255.12,-3730.98 1255.54,-3729.22 1256.13,-3727.5 1256.9,-3725.81 1257.86,-3724.17 1259,-3722.57 1260.32,-3721.02 1261.82,-3719.53 1263.5,-3718.1 1265.35,-3716.73 1267.37,-3715.42 1269.56,-3714.19 1271.9,-3713.03 1274.39,-3711.94 1277.03,-3710.94 1279.79,-3710.01 1282.68,-3709.18 1285.68,-3708.42 1288.79,-3707.76 1291.97,-3707.19 1295.24,-3706.72 1298.57,-3706.33 1301.94,-3706.04 1305.35,-3705.85 1308.79,-3705.75 1312.23,-3705.75 1315.66,-3705.85"/>
<text text-anchor="start" x="1281.59" y="-3750.79" font-family="Times,serif" font-size="14.00">C0011065</text>
<text text-anchor="start" x="1298.46" y="-3736.79" font-family="Times,serif" font-size="14.00">died</text>
<text text-anchor="start" x="1287.56" y="-3722.79" font-family="Times,serif" font-size="14.00">123:123</text>
</g>
<!-- id_27872609_DOT_17&#45;&#45;id_27872609_DOT_23 -->
<g id="edge25" class="edge">
<title>id_27872609_DOT_17&#45;&#45;id_27872609_DOT_23</title>
<path fill="none" stroke="black" stroke-dasharray="1,5" d="M1594.15,-3761.71C1520.62,-3756.34 1423.19,-3749.22 1363.77,-3744.88"/>
<text text-anchor="middle" x="1452.71" y="-3756.09" font-family="Times,serif" font-size="14.00">0.741897</text>
</g>
<!-- id_27872609_DOT_17&#45;&#45;id_27872609_DOT_30 -->
<g id="edge26" class="edge">
<title>id_27872609_DOT_17&#45;&#45;id_27872609_DOT_30</title>
<path fill="none" stroke="black" stroke-dasharray="1,5" d="M1737.02,-3736.23C1805.83,-3684.86 1938.31,-3585.95 2005.84,-3535.54"/>
<text text-anchor="middle" x="1845.18" y="-3638.68" font-family="Times,serif" font-size="14.00">0.765561</text>
</g>
<!-- id_27872609_DOT_18&#45;&#45;id_27872609_DOT_30 -->
<g id="edge27" class="edge">
<title>id_27872609_DOT_18&#45;&#45;id_27872609_DOT_30</title>
<path fill="none" stroke="black" stroke-dasharray="1,5" d="M1906.85,-3117.23C1935.8,-3196.84 2005.92,-3389.64 2034.84,-3469.15"/>
<text text-anchor="middle" x="1944.59" y="-3295.99" font-family="Times,serif" font-size="14.00">0.794596</text>
</g>
<!-- id_27872609_DOT_19 -->
<g id="node19" class="node">
<title>id_27872609_DOT_19</title>
<polygon fill="darksalmon" stroke="darksalmon" points="1186.27,-4363.47 1199.93,-4363.66 1213.44,-4363.95 1226.76,-4364.33 1239.83,-4364.81 1252.59,-4365.38 1265,-4366.04 1277.01,-4366.79 1288.57,-4367.63 1299.65,-4368.55 1310.19,-4369.56 1320.17,-4370.64 1329.54,-4371.8 1338.29,-4373.04 1346.38,-4374.34 1353.79,-4375.71 1360.51,-4377.15 1366.52,-4378.64 1371.81,-4380.19 1376.37,-4381.79 1380.19,-4383.43 1383.29,-4385.12 1385.67,-4386.84 1387.32,-4388.6 1388.27,-4390.38 1388.52,-4392.18 1388.1,-4394.01 1387.02,-4395.84 1385.31,-4397.68 1382.99,-4399.53 1380.07,-4401.37 1376.6,-4403.21 1372.6,-4405.03 1368.1,-4406.83 1363.12,-4408.62 1357.71,-4410.37 1351.88,-4412.09 1345.67,-4413.78 1339.11,-4415.42 1332.22,-4417.02 1325.04,-4418.57 1317.6,-4420.06 1309.91,-4421.5 1302.01,-4422.87 1293.92,-4424.17 1285.66,-4425.41 1277.25,-4426.57 1268.71,-4427.65 1260.06,-4428.66 1251.31,-4429.58 1242.49,-4430.42 1233.59,-4431.17 1224.63,-4431.83 1215.63,-4432.4 1206.59,-4432.88 1197.52,-4433.26 1188.43,-4433.55 1179.32,-4433.74 1170.21,-4433.84 1161.09,-4433.84 1151.98,-4433.74 1142.87,-4433.55 1133.78,-4433.26 1124.71,-4432.88 1115.67,-4432.4 1106.67,-4431.83 1097.71,-4431.17 1088.82,-4430.42 1079.99,-4429.58 1071.24,-4428.66 1062.59,-4427.65 1054.05,-4426.57 1045.64,-4425.41 1037.38,-4424.17 1029.29,-4422.87 1021.39,-4421.5 1013.7,-4420.06 1006.26,-4418.57 999.08,-4417.02 992.2,-4415.42 985.63,-4413.78 979.42,-4412.09 973.59,-4410.37 968.18,-4408.62 963.2,-4406.83 958.7,-4405.03 954.7,-4403.21 951.23,-4401.37 948.32,-4399.53 945.99,-4397.68 944.28,-4395.84 943.2,-4394.01 942.78,-4392.18 943.03,-4390.38 943.98,-4388.6 945.64,-4386.84 948.01,-4385.12 951.11,-4383.43 954.94,-4381.79 959.5,-4380.19 964.78,-4378.64 970.79,-4377.15 977.51,-4375.71 984.92,-4374.34 993.01,-4373.04 1001.76,-4371.8 1011.14,-4370.64 1021.11,-4369.56 1031.66,-4368.55 1042.73,-4367.63 1054.29,-4366.79 1066.3,-4366.04 1078.71,-4365.38 1091.47,-4364.81 1104.54,-4364.33 1117.86,-4363.95 1131.37,-4363.66 1145.03,-4363.47 1158.77,-4363.37 1172.53,-4363.37 1186.27,-4363.47"/>
<text text-anchor="start" x="1136.48" y="-4408.41" font-family="Times,serif" font-size="14.00">C0598801</text>
<text text-anchor="start" x="1025.62" y="-4394.41" font-family="Times,serif" font-size="14.00">Diffusion &#45; weighted magnetic resonance imaging</text>
<text text-anchor="start" x="1149.71" y="-4380.41" font-family="Times,serif" font-size="14.00">91:96</text>
</g>
<!-- id_27872609_DOT_19&#45;&#45;id_27872609_DOT_21 -->
<g id="edge28" class="edge">
<title>id_27872609_DOT_19&#45;&#45;id_27872609_DOT_21</title>
<path fill="none" stroke="black" stroke-dasharray="1,5" d="M1204.52,-4363.66C1264.02,-4310.17 1376.54,-4209.03 1431.36,-4159.74"/>
<text text-anchor="middle" x="1291.95" y="-4264.5" font-family="Times,serif" font-size="14.00">0.741121</text>
</g>
<!-- id_27872609_DOT_22&#45;&#45;id_27872609_DOT_30 -->
<g id="edge29" class="edge">
<title>id_27872609_DOT_22&#45;&#45;id_27872609_DOT_30</title>
<path fill="none" stroke="black" stroke-dasharray="1,5" d="M2399.48,-3686.3C2319.53,-3644.95 2179.04,-3572.3 2101.99,-3532.45"/>
<text text-anchor="middle" x="2224.49" y="-3612.17" font-family="Times,serif" font-size="14.00">0.719297</text>
</g>
<!-- id_27872609_DOT_22&#45;&#45;id_27872609_DOT_31 -->
<g id="edge30" class="edge">
<title>id_27872609_DOT_22&#45;&#45;id_27872609_DOT_31</title>
<path fill="none" stroke="black" stroke-dasharray="1,5" d="M2530.14,-3739.66C2617.2,-3767.21 2763,-3813.34 2840.95,-3838.01"/>
<text text-anchor="middle" x="2659.3" y="-3791.63" font-family="Times,serif" font-size="14.00">0.814777</text>
</g>
<!-- id_27872609_DOT_24&#45;&#45;id_27872609_DOT_31 -->
<g id="edge31" class="edge">
<title>id_27872609_DOT_24&#45;&#45;id_27872609_DOT_31</title>
<path fill="none" stroke="black" stroke-dasharray="1,5" d="M3246.98,-3645.94C3174.34,-3688.9 3014.67,-3783.34 2937.44,-3829.02"/>
<text text-anchor="middle" x="3065.96" y="-3740.28" font-family="Times,serif" font-size="14.00">0.743697</text>
</g>
<!-- id_27872609_DOT_32 -->
<g id="node32" class="node">
<title>id_27872609_DOT_32</title>
<polygon fill="darkgreen" stroke="darkgreen" points="1626.21,-0.23 1629.6,-0.42 1632.96,-0.71 1636.27,-1.09 1639.52,-1.57 1642.69,-2.14 1645.78,-2.8 1648.77,-3.55 1651.64,-4.39 1654.39,-5.31 1657.01,-6.32 1659.49,-7.4 1661.83,-8.57 1664,-9.8 1666.01,-11.1 1667.86,-12.48 1669.53,-13.91 1671.02,-15.4 1672.33,-16.95 1673.47,-18.55 1674.42,-20.19 1675.19,-21.88 1675.78,-23.6 1676.19,-25.36 1676.43,-27.14 1676.49,-28.94 1676.39,-30.77 1676.12,-32.6 1675.69,-34.44 1675.11,-36.29 1674.39,-38.13 1673.53,-39.97 1672.53,-41.79 1671.41,-43.6 1670.18,-45.38 1668.83,-47.13 1667.38,-48.86 1665.84,-50.54 1664.2,-52.19 1662.49,-53.78 1660.71,-55.33 1658.86,-56.82 1656.95,-58.26 1654.98,-59.63 1652.97,-60.94 1650.92,-62.17 1648.83,-63.33 1646.7,-64.42 1644.55,-65.42 1642.38,-66.34 1640.18,-67.18 1637.97,-67.93 1635.74,-68.59 1633.5,-69.16 1631.26,-69.64 1629,-70.02 1626.74,-70.31 1624.48,-70.51 1622.21,-70.6 1619.94,-70.6 1617.68,-70.51 1615.41,-70.31 1613.15,-70.02 1610.9,-69.64 1608.65,-69.16 1606.41,-68.59 1604.19,-67.93 1601.97,-67.18 1599.78,-66.34 1597.6,-65.42 1595.45,-64.42 1593.33,-63.33 1591.24,-62.17 1589.18,-60.94 1587.17,-59.63 1585.21,-58.26 1583.3,-56.82 1581.45,-55.33 1579.66,-53.78 1577.95,-52.19 1576.32,-50.54 1574.78,-48.86 1573.33,-47.13 1571.98,-45.38 1570.74,-43.6 1569.62,-41.79 1568.63,-39.97 1567.77,-38.13 1567.04,-36.29 1566.46,-34.44 1566.04,-32.6 1565.77,-30.77 1565.66,-28.94 1565.73,-27.14 1565.96,-25.36 1566.38,-23.6 1566.97,-21.88 1567.74,-20.19 1568.69,-18.55 1569.82,-16.95 1571.14,-15.4 1572.63,-13.91 1574.3,-12.48 1576.14,-11.1 1578.15,-9.8 1580.33,-8.57 1582.66,-7.4 1585.14,-6.32 1587.76,-5.31 1590.52,-4.39 1593.39,-3.55 1596.38,-2.8 1599.46,-2.14 1602.64,-1.57 1605.88,-1.09 1609.19,-0.71 1612.55,-0.42 1615.95,-0.23 1619.37,-0.13 1622.79,-0.13 1626.21,-0.23"/>
<text text-anchor="start" x="1592.42" y="-45.17" font-family="Times,serif" font-size="14.00">C0087111</text>
<text text-anchor="start" x="1600.09" y="-31.17" font-family="Times,serif" font-size="14.00">therapy</text>
<text text-anchor="start" x="1598.13" y="-17.17" font-family="Times,serif" font-size="14.00">177:177</text>
</g>
<!-- id_27872609_DOT_29&#45;&#45;id_27872609_DOT_32 -->
<g id="edge7" class="edge">
<title>id_27872609_DOT_29&#45;&#45;id_27872609_DOT_32</title>
<path fill="none" stroke="black" d="M1553.57,-376.83C1567.78,-304.99 1600.02,-141.88 1614.19,-70.23"/>
<text text-anchor="middle" x="1557.89" y="-226.33" font-family="Times,serif" font-size="14.00">0.001193</text>
</g>
</g>
</svg>
