<?xml version="1.0" encoding="UTF-8" standalone="no"?>
<!DOCTYPE svg PUBLIC "-//W3C//DTD SVG 1.1//EN"
 "http://www.w3.org/Graphics/SVG/1.1/DTD/svg11.dtd">
<!-- Generated by graphviz version 2.42.3 (20191010.1750)
 -->
<!-- Title: MST Pages: 1 -->
<svg width="4249pt" height="5049pt"
 viewBox="0.00 0.00 4248.57 5048.79" xmlns="http://www.w3.org/2000/svg" xmlns:xlink="http://www.w3.org/1999/xlink">
<g id="graph0" class="graph" transform="scale(1 1) rotate(0) translate(4 5044.79)">
<title>MST</title>
<polygon fill="white" stroke="transparent" points="-4,4 -4,-5044.79 4244.57,-5044.79 4244.57,4 -4,4"/>
<!-- id_27882066_DOT_1 -->
<g id="node1" class="node">
<title>id_27882066_DOT_1</title>
<polygon fill="aquamarine" stroke="aquamarine" points="1651.09,-3601.45 1655.46,-3601.64 1659.79,-3601.93 1664.05,-3602.31 1668.24,-3602.79 1672.32,-3603.36 1676.3,-3604.02 1680.15,-3604.77 1683.85,-3605.61 1687.39,-3606.53 1690.77,-3607.54 1693.97,-3608.62 1696.97,-3609.78 1699.77,-3611.02 1702.36,-3612.32 1704.74,-3613.69 1706.89,-3615.13 1708.81,-3616.62 1710.51,-3618.17 1711.97,-3619.77 1713.19,-3621.41 1714.18,-3623.1 1714.94,-3624.82 1715.47,-3626.57 1715.78,-3628.36 1715.86,-3630.16 1715.72,-3631.98 1715.38,-3633.82 1714.83,-3635.66 1714.09,-3637.51 1713.15,-3639.35 1712.04,-3641.19 1710.76,-3643.01 1709.32,-3644.81 1707.72,-3646.6 1705.99,-3648.35 1704.12,-3650.07 1702.13,-3651.76 1700.03,-3653.4 1697.83,-3655 1695.53,-3656.55 1693.14,-3658.04 1690.68,-3659.48 1688.15,-3660.85 1685.56,-3662.15 1682.92,-3663.39 1680.22,-3664.55 1677.49,-3665.63 1674.72,-3666.64 1671.92,-3667.56 1669.09,-3668.4 1666.24,-3669.15 1663.37,-3669.81 1660.49,-3670.38 1657.59,-3670.86 1654.69,-3671.24 1651.78,-3671.53 1648.86,-3671.72 1645.94,-3671.82 1643.02,-3671.82 1640.1,-3671.72 1637.18,-3671.53 1634.27,-3671.24 1631.37,-3670.86 1628.47,-3670.38 1625.59,-3669.81 1622.72,-3669.15 1619.87,-3668.4 1617.04,-3667.56 1614.24,-3666.64 1611.47,-3665.63 1608.74,-3664.55 1606.04,-3663.39 1603.4,-3662.15 1600.81,-3660.85 1598.28,-3659.48 1595.82,-3658.04 1593.43,-3656.55 1591.13,-3655 1588.93,-3653.4 1586.83,-3651.76 1584.84,-3650.07 1582.97,-3648.35 1581.24,-3646.6 1579.64,-3644.81 1578.2,-3643.01 1576.92,-3641.19 1575.81,-3639.35 1574.87,-3637.51 1574.13,-3635.66 1573.58,-3633.82 1573.24,-3631.98 1573.1,-3630.16 1573.18,-3628.36 1573.49,-3626.57 1574.02,-3624.82 1574.78,-3623.1 1575.77,-3621.41 1576.99,-3619.77 1578.45,-3618.17 1580.15,-3616.62 1582.07,-3615.13 1584.22,-3613.69 1586.6,-3612.32 1589.19,-3611.02 1591.99,-3609.78 1594.99,-3608.62 1598.19,-3607.54 1601.57,-3606.53 1605.11,-3605.61 1608.81,-3604.77 1612.66,-3604.02 1616.64,-3603.36 1620.72,-3602.79 1624.91,-3602.31 1629.17,-3601.93 1633.5,-3601.64 1637.87,-3601.45 1642.28,-3601.35 1646.68,-3601.35 1651.09,-3601.45"/>
<text text-anchor="start" x="1615.57" y="-3646.38" font-family="Times,serif" font-size="14.00">C1140694</text>
<text text-anchor="start" x="1605.21" y="-3632.38" font-family="Times,serif" font-size="14.00">Bioinformatic</text>
<text text-anchor="start" x="1635.54" y="-3618.38" font-family="Times,serif" font-size="14.00">0:0</text>
</g>
<!-- id_27882066_DOT_11 -->
<g id="node11" class="node">
<title>id_27882066_DOT_11</title>
<polygon fill="coral" stroke="coral" points="1337.89,-3931.01 1344,-3931.21 1350.04,-3931.5 1356,-3931.88 1361.84,-3932.36 1367.55,-3932.93 1373.1,-3933.59 1378.47,-3934.34 1383.64,-3935.18 1388.59,-3936.1 1393.31,-3937.11 1397.77,-3938.19 1401.96,-3939.35 1405.87,-3940.59 1409.49,-3941.89 1412.81,-3943.26 1415.81,-3944.7 1418.5,-3946.19 1420.86,-3947.74 1422.9,-3949.34 1424.61,-3950.98 1426,-3952.67 1427.06,-3954.39 1427.8,-3956.14 1428.22,-3957.93 1428.34,-3959.73 1428.15,-3961.55 1427.67,-3963.39 1426.9,-3965.23 1425.86,-3967.08 1424.56,-3968.92 1423.01,-3970.75 1421.22,-3972.58 1419.2,-3974.38 1416.98,-3976.16 1414.56,-3977.92 1411.95,-3979.64 1409.17,-3981.33 1406.24,-3982.97 1403.16,-3984.57 1399.95,-3986.12 1396.62,-3987.61 1393.18,-3989.05 1389.65,-3990.42 1386.03,-3991.72 1382.34,-3992.96 1378.58,-3994.12 1374.76,-3995.2 1370.89,-3996.21 1366.98,-3997.13 1363.03,-3997.97 1359.05,-3998.72 1355.05,-3999.38 1351.02,-3999.95 1346.98,-4000.43 1342.92,-4000.81 1338.86,-4001.1 1334.78,-4001.29 1330.71,-4001.39 1326.63,-4001.39 1322.55,-4001.29 1318.48,-4001.1 1314.42,-4000.81 1310.36,-4000.43 1306.32,-3999.95 1302.29,-3999.38 1298.29,-3998.72 1294.31,-3997.97 1290.36,-3997.13 1286.45,-3996.21 1282.58,-3995.2 1278.76,-3994.12 1275,-3992.96 1271.31,-3991.72 1267.69,-3990.42 1264.16,-3989.05 1260.72,-3987.61 1257.39,-3986.12 1254.18,-3984.57 1251.1,-3982.97 1248.17,-3981.33 1245.39,-3979.64 1242.78,-3977.92 1240.36,-3976.16 1238.14,-3974.38 1236.12,-3972.58 1234.33,-3970.75 1232.78,-3968.92 1231.48,-3967.08 1230.44,-3965.23 1229.67,-3963.39 1229.19,-3961.55 1229,-3959.73 1229.12,-3957.93 1229.54,-3956.14 1230.28,-3954.39 1231.34,-3952.67 1232.73,-3950.98 1234.44,-3949.34 1236.48,-3947.74 1238.84,-3946.19 1241.53,-3944.7 1244.53,-3943.26 1247.85,-3941.89 1251.47,-3940.59 1255.38,-3939.35 1259.57,-3938.19 1264.03,-3937.11 1268.75,-3936.1 1273.7,-3935.18 1278.87,-3934.34 1284.24,-3933.59 1289.79,-3932.93 1295.5,-3932.36 1301.34,-3931.88 1307.3,-3931.5 1313.34,-3931.21 1319.45,-3931.01 1325.59,-3930.92 1331.75,-3930.92 1337.89,-3931.01"/>
<text text-anchor="start" x="1299.5" y="-3975.95" font-family="Times,serif" font-size="14.00">C2717802</text>
<text text-anchor="start" x="1270.55" y="-3961.95" font-family="Times,serif" font-size="14.00">structure of the virus</text>
<text text-anchor="start" x="1312.72" y="-3947.95" font-family="Times,serif" font-size="14.00">56:59</text>
</g>
<!-- id_27882066_DOT_1&#45;&#45;id_27882066_DOT_11 -->
<g id="edge21" class="edge">
<title>id_27882066_DOT_1&#45;&#45;id_27882066_DOT_11</title>
<path fill="none" stroke="black" stroke-dasharray="1,5" d="M1615.34,-3667C1556.32,-3728.59 1423.05,-3867.66 1361.26,-3932.14"/>
<text text-anchor="middle" x="1462.05" y="-3802.37" font-family="Times,serif" font-size="14.00">0.825160</text>
</g>
<!-- id_27882066_DOT_20 -->
<g id="node20" class="node">
<title>id_27882066_DOT_20</title>
<polygon fill="darkgreen" stroke="darkgreen" points="2069.43,-3733.82 2074.9,-3734.02 2080.3,-3734.3 2085.63,-3734.69 2090.86,-3735.17 2095.97,-3735.74 2100.94,-3736.4 2105.75,-3737.15 2110.37,-3737.99 2114.81,-3738.91 2119.03,-3739.91 2123.02,-3741 2126.77,-3742.16 2130.27,-3743.39 2133.51,-3744.7 2136.48,-3746.07 2139.17,-3747.5 2141.57,-3749 2143.69,-3750.54 2145.51,-3752.14 2147.04,-3753.79 2148.28,-3755.47 2149.23,-3757.2 2149.9,-3758.95 2150.28,-3760.73 2150.38,-3762.54 2150.21,-3764.36 2149.78,-3766.2 2149.09,-3768.04 2148.16,-3769.88 2147,-3771.73 2145.61,-3773.56 2144.01,-3775.38 2142.2,-3777.19 2140.21,-3778.97 2138.04,-3780.73 2135.71,-3782.45 2133.23,-3784.14 2130.6,-3785.78 2127.84,-3787.38 2124.97,-3788.93 2121.99,-3790.42 2118.92,-3791.85 2115.75,-3793.22 2112.52,-3794.53 2109.21,-3795.76 2105.84,-3796.92 2102.43,-3798.01 2098.96,-3799.01 2095.46,-3799.94 2091.93,-3800.78 2088.37,-3801.53 2084.78,-3802.19 2081.18,-3802.76 2077.56,-3803.23 2073.93,-3803.62 2070.29,-3803.91 2066.65,-3804.1 2063,-3804.2 2059.35,-3804.2 2055.7,-3804.1 2052.06,-3803.91 2048.42,-3803.62 2044.79,-3803.23 2041.17,-3802.76 2037.57,-3802.19 2033.99,-3801.53 2030.42,-3800.78 2026.89,-3799.94 2023.39,-3799.01 2019.93,-3798.01 2016.51,-3796.92 2013.14,-3795.76 2009.84,-3794.53 2006.6,-3793.22 2003.44,-3791.85 2000.36,-3790.42 1997.38,-3788.93 1994.51,-3787.38 1991.75,-3785.78 1989.13,-3784.14 1986.64,-3782.45 1984.31,-3780.73 1982.14,-3778.97 1980.15,-3777.19 1978.35,-3775.38 1976.75,-3773.56 1975.36,-3771.73 1974.19,-3769.88 1973.26,-3768.04 1972.58,-3766.2 1972.14,-3764.36 1971.98,-3762.54 1972.08,-3760.73 1972.46,-3758.95 1973.12,-3757.2 1974.07,-3755.47 1975.31,-3753.79 1976.84,-3752.14 1978.67,-3750.54 1980.78,-3749 1983.19,-3747.5 1985.88,-3746.07 1988.84,-3744.7 1992.08,-3743.39 1995.58,-3742.16 1999.34,-3741 2003.33,-3739.91 2007.55,-3738.91 2011.98,-3737.99 2016.61,-3737.15 2021.41,-3736.4 2026.38,-3735.74 2031.49,-3735.17 2036.72,-3734.69 2042.05,-3734.3 2047.46,-3734.02 2052.92,-3733.82 2058.42,-3733.73 2063.93,-3733.73 2069.43,-3733.82"/>
<text text-anchor="start" x="2032.01" y="-3778.76" font-family="Times,serif" font-size="14.00">C0037585</text>
<text text-anchor="start" x="2009.85" y="-3764.76" font-family="Times,serif" font-size="14.00">MEGA 7 software</text>
<text text-anchor="start" x="2038.74" y="-3750.76" font-family="Times,serif" font-size="14.00">113:115</text>
</g>
<!-- id_27882066_DOT_1&#45;&#45;id_27882066_DOT_20 -->
<g id="edge22" class="edge">
<title>id_27882066_DOT_1&#45;&#45;id_27882066_DOT_20</title>
<path fill="none" stroke="black" stroke-dasharray="1,5" d="M1699.38,-3654.03C1773.2,-3677.48 1904.67,-3719.24 1987.16,-3745.45"/>
<text text-anchor="middle" x="1817.02" y="-3702.54" font-family="Times,serif" font-size="14.00">0.708561</text>
</g>
<!-- id_27882066_DOT_25 -->
<g id="node25" class="node">
<title>id_27882066_DOT_25</title>
<polygon fill="cadetblue" stroke="cadetblue" points="1526,-3170.85 1532.32,-3171.04 1538.58,-3171.33 1544.74,-3171.71 1550.79,-3172.19 1556.7,-3172.76 1562.45,-3173.42 1568.01,-3174.17 1573.36,-3175.01 1578.49,-3175.93 1583.37,-3176.94 1587.99,-3178.02 1592.33,-3179.18 1596.38,-3180.42 1600.13,-3181.72 1603.56,-3183.09 1606.67,-3184.53 1609.46,-3186.02 1611.9,-3187.57 1614.02,-3189.17 1615.79,-3190.81 1617.22,-3192.5 1618.32,-3194.22 1619.09,-3195.98 1619.53,-3197.76 1619.65,-3199.56 1619.45,-3201.39 1618.95,-3203.22 1618.16,-3205.06 1617.08,-3206.91 1615.73,-3208.75 1614.13,-3210.59 1612.27,-3212.41 1610.19,-3214.21 1607.88,-3216 1605.38,-3217.75 1602.68,-3219.48 1599.8,-3221.16 1596.76,-3222.81 1593.58,-3224.4 1590.25,-3225.95 1586.8,-3227.44 1583.25,-3228.88 1579.59,-3230.25 1575.84,-3231.55 1572.02,-3232.79 1568.12,-3233.95 1564.17,-3235.03 1560.16,-3236.04 1556.11,-3236.96 1552.02,-3237.8 1547.9,-3238.55 1543.76,-3239.21 1539.59,-3239.78 1535.4,-3240.26 1531.2,-3240.64 1526.99,-3240.93 1522.78,-3241.13 1518.56,-3241.22 1514.33,-3241.22 1510.11,-3241.13 1505.9,-3240.93 1501.69,-3240.64 1497.49,-3240.26 1493.3,-3239.78 1489.13,-3239.21 1484.99,-3238.55 1480.87,-3237.8 1476.78,-3236.96 1472.73,-3236.04 1468.72,-3235.03 1464.77,-3233.95 1460.88,-3232.79 1457.05,-3231.55 1453.3,-3230.25 1449.65,-3228.88 1446.09,-3227.44 1442.64,-3225.95 1439.32,-3224.4 1436.13,-3222.81 1433.09,-3221.16 1430.21,-3219.48 1427.52,-3217.75 1425.01,-3216 1422.7,-3214.21 1420.62,-3212.41 1418.77,-3210.59 1417.16,-3208.75 1415.81,-3206.91 1414.73,-3205.06 1413.94,-3203.22 1413.44,-3201.39 1413.25,-3199.56 1413.36,-3197.76 1413.8,-3195.98 1414.57,-3194.22 1415.67,-3192.5 1417.1,-3190.81 1418.88,-3189.17 1420.99,-3187.57 1423.44,-3186.02 1426.22,-3184.53 1429.33,-3183.09 1432.76,-3181.72 1436.51,-3180.42 1440.56,-3179.18 1444.9,-3178.02 1449.52,-3176.94 1454.4,-3175.93 1459.53,-3175.01 1464.88,-3174.17 1470.44,-3173.42 1476.19,-3172.76 1482.1,-3172.19 1488.15,-3171.71 1494.32,-3171.33 1500.57,-3171.04 1506.9,-3170.85 1513.26,-3170.75 1519.63,-3170.75 1526,-3170.85"/>
<text text-anchor="start" x="1487.28" y="-3215.79" font-family="Times,serif" font-size="14.00">C1519068</text>
<text text-anchor="start" x="1455.99" y="-3201.79" font-family="Times,serif" font-size="14.00">phylogenetic analysis</text>
<text text-anchor="start" x="1493.5" y="-3187.79" font-family="Times,serif" font-size="14.00">191:192</text>
</g>
<!-- id_27882066_DOT_1&#45;&#45;id_27882066_DOT_25 -->
<g id="edge23" class="edge">
<title>id_27882066_DOT_1&#45;&#45;id_27882066_DOT_25</title>
<path fill="none" stroke="black" stroke-dasharray="1,5" d="M1634,-3601.35C1609.93,-3520.4 1550.92,-3321.94 1526.89,-3241.11"/>
<text text-anchor="middle" x="1554.2" y="-3424.03" font-family="Times,serif" font-size="14.00">0.767437</text>
</g>
<!-- id_27882066_DOT_2 -->
<g id="node2" class="node">
<title>id_27882066_DOT_2</title>
<polygon fill="bisque" stroke="bisque" points="378.02,-2235.77 381.45,-2235.96 384.85,-2236.25 388.19,-2236.64 391.47,-2237.11 394.67,-2237.68 397.79,-2238.35 400.81,-2239.1 403.71,-2239.93 406.49,-2240.86 409.14,-2241.86 411.64,-2242.95 413.99,-2244.11 416.19,-2245.34 418.22,-2246.65 420.08,-2248.02 421.77,-2249.45 423.28,-2250.95 424.61,-2252.49 425.75,-2254.09 426.71,-2255.74 427.49,-2257.42 428.08,-2259.14 428.5,-2260.9 428.74,-2262.68 428.8,-2264.49 428.7,-2266.31 428.43,-2268.14 428,-2269.99 427.41,-2271.83 426.68,-2273.68 425.81,-2275.51 424.81,-2277.33 423.67,-2279.14 422.43,-2280.92 421.07,-2282.68 419.6,-2284.4 418.04,-2286.08 416.4,-2287.73 414.67,-2289.33 412.86,-2290.87 411,-2292.37 409.07,-2293.8 407.08,-2295.17 405.05,-2296.48 402.98,-2297.71 400.87,-2298.87 398.72,-2299.96 396.55,-2300.96 394.35,-2301.89 392.14,-2302.72 389.9,-2303.47 387.65,-2304.14 385.39,-2304.71 383.12,-2305.18 380.85,-2305.57 378.57,-2305.86 376.28,-2306.05 373.99,-2306.15 371.7,-2306.15 369.41,-2306.05 367.13,-2305.86 364.84,-2305.57 362.57,-2305.18 360.3,-2304.71 358.04,-2304.14 355.79,-2303.47 353.56,-2302.72 351.34,-2301.89 349.14,-2300.96 346.97,-2299.96 344.83,-2298.87 342.71,-2297.71 340.64,-2296.48 338.61,-2295.17 336.63,-2293.8 334.7,-2292.37 332.83,-2290.87 331.03,-2289.33 329.3,-2287.73 327.65,-2286.08 326.09,-2284.4 324.63,-2282.68 323.27,-2280.92 322.02,-2279.14 320.89,-2277.33 319.88,-2275.51 319.01,-2273.68 318.28,-2271.83 317.7,-2269.99 317.27,-2268.14 317,-2266.31 316.89,-2264.49 316.95,-2262.68 317.19,-2260.9 317.61,-2259.14 318.2,-2257.42 318.98,-2255.74 319.94,-2254.09 321.09,-2252.49 322.41,-2250.95 323.92,-2249.45 325.61,-2248.02 327.47,-2246.65 329.5,-2245.34 331.7,-2244.11 334.05,-2242.95 336.56,-2241.86 339.2,-2240.86 341.98,-2239.93 344.89,-2239.1 347.9,-2238.35 351.02,-2237.68 354.22,-2237.11 357.5,-2236.64 360.85,-2236.25 364.24,-2235.96 367.67,-2235.77 371.12,-2235.67 374.57,-2235.67 378.02,-2235.77"/>
<text text-anchor="start" x="343.68" y="-2280.71" font-family="Times,serif" font-size="14.00">C0936012</text>
<text text-anchor="start" x="348.35" y="-2266.71" font-family="Times,serif" font-size="14.00">Analysis</text>
<text text-anchor="start" x="363.9" y="-2252.71" font-family="Times,serif" font-size="14.00">1:1</text>
</g>
<!-- id_27882066_DOT_19 -->
<g id="node19" class="node">
<title>id_27882066_DOT_19</title>
<polygon fill="bisque" stroke="bisque" points="809.85,-2264.4 813.27,-2264.59 816.67,-2264.88 820.01,-2265.26 823.29,-2265.74 826.5,-2266.31 829.61,-2266.97 832.63,-2267.72 835.53,-2268.56 838.31,-2269.48 840.96,-2270.49 843.46,-2271.57 845.82,-2272.74 848.01,-2273.97 850.04,-2275.28 851.9,-2276.65 853.59,-2278.08 855.1,-2279.57 856.43,-2281.12 857.57,-2282.72 858.53,-2284.36 859.31,-2286.05 859.91,-2287.77 860.32,-2289.53 860.56,-2291.31 860.62,-2293.11 860.52,-2294.94 860.25,-2296.77 859.82,-2298.62 859.23,-2300.46 858.5,-2302.3 857.63,-2304.14 856.63,-2305.96 855.5,-2307.77 854.25,-2309.55 852.89,-2311.3 851.42,-2313.03 849.86,-2314.71 848.22,-2316.36 846.49,-2317.95 844.69,-2319.5 842.82,-2321 840.89,-2322.43 838.9,-2323.8 836.87,-2325.11 834.8,-2326.34 832.69,-2327.5 830.54,-2328.59 828.37,-2329.59 826.18,-2330.51 823.96,-2331.35 821.72,-2332.1 819.48,-2332.76 817.22,-2333.33 814.95,-2333.81 812.67,-2334.2 810.39,-2334.48 808.1,-2334.68 805.81,-2334.77 803.52,-2334.77 801.23,-2334.68 798.95,-2334.48 796.67,-2334.2 794.39,-2333.81 792.12,-2333.33 789.86,-2332.76 787.61,-2332.1 785.38,-2331.35 783.16,-2330.51 780.96,-2329.59 778.79,-2328.59 776.65,-2327.5 774.54,-2326.34 772.46,-2325.11 770.43,-2323.8 768.45,-2322.43 766.52,-2321 764.65,-2319.5 762.85,-2317.95 761.12,-2316.36 759.47,-2314.71 757.91,-2313.03 756.45,-2311.3 755.09,-2309.55 753.84,-2307.77 752.71,-2305.96 751.7,-2304.14 750.83,-2302.3 750.1,-2300.46 749.52,-2298.62 749.09,-2296.77 748.82,-2294.94 748.71,-2293.11 748.78,-2291.31 749.01,-2289.53 749.43,-2287.77 750.02,-2286.05 750.8,-2284.36 751.76,-2282.72 752.91,-2281.12 754.24,-2279.57 755.74,-2278.08 757.43,-2276.65 759.29,-2275.28 761.32,-2273.97 763.52,-2272.74 765.87,-2271.57 768.38,-2270.49 771.03,-2269.48 773.81,-2268.56 776.71,-2267.72 779.72,-2266.97 782.84,-2266.31 786.04,-2265.74 789.32,-2265.26 792.67,-2264.88 796.06,-2264.59 799.49,-2264.4 802.94,-2264.3 806.4,-2264.3 809.85,-2264.4"/>
<text text-anchor="start" x="775.5" y="-2309.34" font-family="Times,serif" font-size="14.00">C0936012</text>
<text text-anchor="start" x="779.79" y="-2295.34" font-family="Times,serif" font-size="14.00">analyzed</text>
<text text-anchor="start" x="782.75" y="-2281.34" font-family="Times,serif" font-size="14.00">111:111</text>
</g>
<!-- id_27882066_DOT_2&#45;&#45;id_27882066_DOT_19 -->
<g id="edge1" class="edge">
<title>id_27882066_DOT_2&#45;&#45;id_27882066_DOT_19</title>
<path fill="none" stroke="black" d="M426.66,-2274.48C508.96,-2279.93 665.3,-2290.3 748.8,-2295.83"/>
<text text-anchor="middle" x="561.48" y="-2287.96" font-family="Times,serif" font-size="14.00">0.006740</text>
</g>
<!-- id_27882066_DOT_3 -->
<g id="node3" class="node">
<title>id_27882066_DOT_3</title>
<polygon fill="blue" stroke="blue" points="2570.94,-0.23 2574.37,-0.42 2577.76,-0.71 2581.1,-1.09 2584.38,-1.57 2587.59,-2.14 2590.71,-2.8 2593.72,-3.55 2596.62,-4.39 2599.4,-5.31 2602.05,-6.32 2604.56,-7.4 2606.91,-8.57 2609.11,-9.8 2611.14,-11.1 2613,-12.48 2614.69,-13.91 2616.19,-15.4 2617.52,-16.95 2618.67,-18.55 2619.63,-20.19 2620.4,-21.88 2621,-23.6 2621.42,-25.36 2621.65,-27.14 2621.72,-28.94 2621.61,-30.77 2621.34,-32.6 2620.91,-34.44 2620.33,-36.29 2619.6,-38.13 2618.73,-39.97 2617.72,-41.79 2616.59,-43.6 2615.34,-45.38 2613.98,-47.13 2612.52,-48.86 2610.96,-50.54 2609.31,-52.19 2607.58,-53.78 2605.78,-55.33 2603.91,-56.82 2601.98,-58.26 2600,-59.63 2597.97,-60.94 2595.89,-62.17 2593.78,-63.33 2591.64,-64.42 2589.47,-65.42 2587.27,-66.34 2585.05,-67.18 2582.82,-67.93 2580.57,-68.59 2578.31,-69.16 2576.04,-69.64 2573.76,-70.02 2571.48,-70.31 2569.19,-70.51 2566.91,-70.6 2564.62,-70.6 2562.33,-70.51 2560.04,-70.31 2557.76,-70.02 2555.48,-69.64 2553.21,-69.16 2550.95,-68.59 2548.7,-67.93 2546.47,-67.18 2544.25,-66.34 2542.06,-65.42 2539.89,-64.42 2537.74,-63.33 2535.63,-62.17 2533.56,-60.94 2531.52,-59.63 2529.54,-58.26 2527.61,-56.82 2525.74,-55.33 2523.94,-53.78 2522.21,-52.19 2520.56,-50.54 2519.01,-48.86 2517.54,-47.13 2516.18,-45.38 2514.93,-43.6 2513.8,-41.79 2512.8,-39.97 2511.93,-38.13 2511.2,-36.29 2510.61,-34.44 2510.18,-32.6 2509.91,-30.77 2509.81,-28.94 2509.87,-27.14 2510.11,-25.36 2510.52,-23.6 2511.12,-21.88 2511.9,-20.19 2512.86,-18.55 2514,-16.95 2515.33,-15.4 2516.84,-13.91 2518.52,-12.48 2520.39,-11.1 2522.42,-9.8 2524.61,-8.57 2526.97,-7.4 2529.47,-6.32 2532.12,-5.31 2534.9,-4.39 2537.8,-3.55 2540.82,-2.8 2543.93,-2.14 2547.14,-1.57 2550.42,-1.09 2553.76,-0.71 2557.16,-0.42 2560.58,-0.23 2564.03,-0.13 2567.49,-0.13 2570.94,-0.23"/>
<text text-anchor="start" x="2536.59" y="-45.17" font-family="Times,serif" font-size="14.00">C0009221</text>
<text text-anchor="start" x="2547.09" y="-31.17" font-family="Times,serif" font-size="14.00">Codon</text>
<text text-anchor="start" x="2556.82" y="-17.17" font-family="Times,serif" font-size="14.00">3:3</text>
</g>
<!-- id_27882066_DOT_10 -->
<g id="node10" class="node">
<title>id_27882066_DOT_10</title>
<polygon fill="blue" stroke="blue" points="2442.55,-348.53 2445.98,-348.72 2449.37,-349.01 2452.72,-349.39 2456,-349.87 2459.2,-350.44 2462.32,-351.1 2465.33,-351.85 2468.24,-352.69 2471.02,-353.61 2473.66,-354.62 2476.17,-355.7 2478.52,-356.86 2480.72,-358.1 2482.75,-359.4 2484.61,-360.78 2486.3,-362.21 2487.81,-363.7 2489.13,-365.25 2490.28,-366.85 2491.24,-368.49 2492.02,-370.18 2492.61,-371.9 2493.03,-373.66 2493.27,-375.44 2493.33,-377.24 2493.22,-379.07 2492.95,-380.9 2492.52,-382.74 2491.94,-384.59 2491.21,-386.43 2490.34,-388.27 2489.33,-390.09 2488.2,-391.9 2486.95,-393.68 2485.59,-395.43 2484.13,-397.16 2482.57,-398.84 2480.92,-400.49 2479.2,-402.08 2477.39,-403.63 2475.52,-405.12 2473.59,-406.56 2471.61,-407.93 2469.58,-409.23 2467.51,-410.47 2465.39,-411.63 2463.25,-412.72 2461.08,-413.72 2458.88,-414.64 2456.67,-415.48 2454.43,-416.23 2452.18,-416.89 2449.92,-417.46 2447.65,-417.94 2445.38,-418.32 2443.09,-418.61 2440.81,-418.81 2438.52,-418.9 2436.23,-418.9 2433.94,-418.81 2431.65,-418.61 2429.37,-418.32 2427.1,-417.94 2424.83,-417.46 2422.57,-416.89 2420.32,-416.23 2418.08,-415.48 2415.87,-414.64 2413.67,-413.72 2411.5,-412.72 2409.35,-411.63 2407.24,-410.47 2405.17,-409.23 2403.14,-407.93 2401.15,-406.56 2399.22,-405.12 2397.36,-403.63 2395.55,-402.08 2393.82,-400.49 2392.18,-398.84 2390.62,-397.16 2389.15,-395.43 2387.79,-393.68 2386.55,-391.9 2385.41,-390.09 2384.41,-388.27 2383.54,-386.43 2382.81,-384.59 2382.22,-382.74 2381.79,-380.9 2381.52,-379.07 2381.42,-377.24 2381.48,-375.44 2381.72,-373.66 2382.14,-371.9 2382.73,-370.18 2383.51,-368.49 2384.47,-366.85 2385.61,-365.25 2386.94,-363.7 2388.45,-362.21 2390.14,-360.78 2392,-359.4 2394.03,-358.1 2396.23,-356.86 2398.58,-355.7 2401.09,-354.62 2403.73,-353.61 2406.51,-352.69 2409.41,-351.85 2412.43,-351.1 2415.55,-350.44 2418.75,-349.87 2422.03,-349.39 2425.38,-349.01 2428.77,-348.72 2432.2,-348.53 2435.65,-348.43 2439.1,-348.43 2442.55,-348.53"/>
<text text-anchor="start" x="2408.21" y="-393.47" font-family="Times,serif" font-size="14.00">C0009221</text>
<text text-anchor="start" x="2420.27" y="-379.47" font-family="Times,serif" font-size="14.00">codon</text>
<text text-anchor="start" x="2421.43" y="-365.47" font-family="Times,serif" font-size="14.00">52:52</text>
</g>
<!-- id_27882066_DOT_3&#45;&#45;id_27882066_DOT_10 -->
<g id="edge2" class="edge">
<title>id_27882066_DOT_3&#45;&#45;id_27882066_DOT_10</title>
<path fill="none" stroke="black" d="M2553.22,-69.4C2528.74,-135.81 2474.83,-282.05 2450.16,-348.98"/>
<text text-anchor="middle" x="2475.44" y="-211.99" font-family="Times,serif" font-size="14.00">0.012468</text>
</g>
<!-- id_27882066_DOT_4 -->
<g id="node4" class="node">
<title>id_27882066_DOT_4</title>
<polygon fill="blueviolet" stroke="blueviolet" points="3583.12,-4955.4 3588.34,-4955.6 3593.49,-4955.88 3598.57,-4956.27 3603.56,-4956.75 3608.43,-4957.32 3613.17,-4957.98 3617.75,-4958.73 3622.16,-4959.57 3626.39,-4960.49 3630.41,-4961.49 3634.22,-4962.58 3637.8,-4963.74 3641.14,-4964.97 3644.22,-4966.28 3647.05,-4967.65 3649.62,-4969.08 3651.91,-4970.58 3653.93,-4972.12 3655.67,-4973.72 3657.13,-4975.37 3658.31,-4977.05 3659.22,-4978.78 3659.85,-4980.53 3660.21,-4982.31 3660.31,-4984.12 3660.15,-4985.94 3659.73,-4987.78 3659.08,-4989.62 3658.19,-4991.46 3657.08,-4993.31 3655.76,-4995.14 3654.23,-4996.96 3652.51,-4998.77 3650.61,-5000.55 3648.55,-5002.31 3646.32,-5004.03 3643.95,-5005.72 3641.45,-5007.36 3638.82,-5008.96 3636.08,-5010.51 3633.24,-5012 3630.31,-5013.43 3627.29,-5014.8 3624.21,-5016.11 3621.05,-5017.34 3617.84,-5018.51 3614.58,-5019.59 3611.28,-5020.59 3607.95,-5021.52 3604.58,-5022.36 3601.18,-5023.11 3597.76,-5023.77 3594.33,-5024.34 3590.88,-5024.82 3587.42,-5025.2 3583.95,-5025.49 3580.47,-5025.68 3576.99,-5025.78 3573.51,-5025.78 3570.04,-5025.68 3566.56,-5025.49 3563.09,-5025.2 3559.63,-5024.82 3556.18,-5024.34 3552.75,-5023.77 3549.33,-5023.11 3545.93,-5022.36 3542.56,-5021.52 3539.22,-5020.59 3535.92,-5019.59 3532.66,-5018.51 3529.46,-5017.34 3526.3,-5016.11 3523.21,-5014.8 3520.2,-5013.43 3517.27,-5012 3514.43,-5010.51 3511.69,-5008.96 3509.06,-5007.36 3506.56,-5005.72 3504.19,-5004.03 3501.96,-5002.31 3499.89,-5000.55 3498,-4998.77 3496.28,-4996.96 3494.75,-4995.14 3493.43,-4993.31 3492.31,-4991.46 3491.43,-4989.62 3490.77,-4987.78 3490.36,-4985.94 3490.2,-4984.12 3490.3,-4982.31 3490.66,-4980.53 3491.29,-4978.78 3492.2,-4977.05 3493.38,-4975.37 3494.84,-4973.72 3496.58,-4972.12 3498.6,-4970.58 3500.89,-4969.08 3503.45,-4967.65 3506.28,-4966.28 3509.37,-4964.97 3512.71,-4963.74 3516.29,-4962.58 3520.1,-4961.49 3524.12,-4960.49 3528.34,-4959.57 3532.76,-4958.73 3537.34,-4957.98 3542.08,-4957.32 3546.95,-4956.75 3551.93,-4956.27 3557.02,-4955.88 3562.17,-4955.6 3567.38,-4955.4 3572.63,-4955.31 3577.88,-4955.31 3583.12,-4955.4"/>
<text text-anchor="start" x="3546.09" y="-5000.34" font-family="Times,serif" font-size="14.00">C0220847</text>
<text text-anchor="start" x="3526.8" y="-4986.34" font-family="Times,serif" font-size="14.00">Hepatitis C Virus</text>
<text text-anchor="start" x="3559.31" y="-4972.34" font-family="Times,serif" font-size="14.00">13:15</text>
</g>
<!-- id_27882066_DOT_5 -->
<g id="node5" class="node">
<title>id_27882066_DOT_5</title>
<polygon fill="blueviolet" stroke="blueviolet" points="3399.74,-4579.58 3404.72,-4579.78 3409.65,-4580.06 3414.51,-4580.45 3419.28,-4580.93 3423.93,-4581.5 3428.46,-4582.16 3432.84,-4582.91 3437.06,-4583.75 3441.1,-4584.67 3444.95,-4585.67 3448.59,-4586.76 3452.01,-4587.92 3455.2,-4589.15 3458.15,-4590.46 3460.86,-4591.83 3463.31,-4593.26 3465.5,-4594.76 3467.43,-4596.3 3469.09,-4597.9 3470.49,-4599.55 3471.62,-4601.23 3472.48,-4602.96 3473.09,-4604.71 3473.43,-4606.49 3473.53,-4608.3 3473.37,-4610.12 3472.98,-4611.96 3472.35,-4613.8 3471.51,-4615.64 3470.44,-4617.49 3469.18,-4619.32 3467.72,-4621.15 3466.07,-4622.95 3464.26,-4624.73 3462.28,-4626.49 3460.16,-4628.21 3457.89,-4629.9 3455.5,-4631.54 3452.99,-4633.14 3450.37,-4634.69 3447.65,-4636.18 3444.85,-4637.61 3441.96,-4638.98 3439.01,-4640.29 3436,-4641.52 3432.93,-4642.69 3429.82,-4643.77 3426.66,-4644.78 3423.47,-4645.7 3420.25,-4646.54 3417,-4647.29 3413.73,-4647.95 3410.45,-4648.52 3407.15,-4649 3403.84,-4649.38 3400.53,-4649.67 3397.2,-4649.86 3393.88,-4649.96 3390.55,-4649.96 3387.23,-4649.86 3383.9,-4649.67 3380.59,-4649.38 3377.28,-4649 3373.98,-4648.52 3370.7,-4647.95 3367.43,-4647.29 3364.18,-4646.54 3360.96,-4645.7 3357.77,-4644.78 3354.61,-4643.77 3351.5,-4642.69 3348.43,-4641.52 3345.42,-4640.29 3342.46,-4638.98 3339.58,-4637.61 3336.78,-4636.18 3334.06,-4634.69 3331.44,-4633.14 3328.93,-4631.54 3326.54,-4629.9 3324.27,-4628.21 3322.15,-4626.49 3320.17,-4624.73 3318.36,-4622.95 3316.71,-4621.15 3315.25,-4619.32 3313.99,-4617.49 3312.92,-4615.64 3312.08,-4613.8 3311.45,-4611.96 3311.06,-4610.12 3310.9,-4608.3 3311,-4606.49 3311.34,-4604.71 3311.95,-4602.96 3312.81,-4601.23 3313.94,-4599.55 3315.34,-4597.9 3317,-4596.3 3318.93,-4594.76 3321.12,-4593.26 3323.57,-4591.83 3326.28,-4590.46 3329.23,-4589.15 3332.42,-4587.92 3335.84,-4586.76 3339.48,-4585.67 3343.33,-4584.67 3347.37,-4583.75 3351.59,-4582.91 3355.97,-4582.16 3360.5,-4581.5 3365.15,-4580.93 3369.92,-4580.45 3374.78,-4580.06 3379.71,-4579.78 3384.69,-4579.58 3389.7,-4579.49 3394.73,-4579.49 3399.74,-4579.58"/>
<text text-anchor="start" x="3363.05" y="-4624.52" font-family="Times,serif" font-size="14.00">C0220847</text>
<text text-anchor="start" x="3346.33" y="-4610.52" font-family="Times,serif" font-size="14.00">hepatitis C virus</text>
<text text-anchor="start" x="3376.27" y="-4596.52" font-family="Times,serif" font-size="14.00">17:19</text>
</g>
<!-- id_27882066_DOT_4&#45;&#45;id_27882066_DOT_5 -->
<g id="edge3" class="edge">
<title>id_27882066_DOT_4&#45;&#45;id_27882066_DOT_5</title>
<path fill="none" stroke="black" d="M3558.2,-4955.52C3523.19,-4883.64 3443.59,-4720.2 3408.9,-4648.97"/>
<text text-anchor="middle" x="3457.3" y="-4805.05" font-family="Times,serif" font-size="14.00">0.001776</text>
</g>
<!-- id_27882066_DOT_8 -->
<g id="node8" class="node">
<title>id_27882066_DOT_8</title>
<polygon fill="blueviolet" stroke="blueviolet" points="3781.42,-4448.23 3786.4,-4448.42 3791.33,-4448.71 3796.19,-4449.09 3800.96,-4449.57 3805.62,-4450.14 3810.14,-4450.8 3814.53,-4451.55 3818.74,-4452.39 3822.78,-4453.31 3826.63,-4454.32 3830.27,-4455.4 3833.69,-4456.56 3836.88,-4457.8 3839.83,-4459.1 3842.54,-4460.48 3844.99,-4461.91 3847.18,-4463.4 3849.11,-4464.95 3850.77,-4466.55 3852.17,-4468.19 3853.3,-4469.88 3854.17,-4471.6 3854.77,-4473.36 3855.12,-4475.14 3855.21,-4476.94 3855.05,-4478.77 3854.66,-4480.6 3854.04,-4482.44 3853.19,-4484.29 3852.13,-4486.13 3850.86,-4487.97 3849.4,-4489.79 3847.76,-4491.6 3845.94,-4493.38 3843.97,-4495.13 3841.84,-4496.86 3839.57,-4498.54 3837.18,-4500.19 3834.67,-4501.78 3832.05,-4503.33 3829.33,-4504.82 3826.53,-4506.26 3823.65,-4507.63 3820.7,-4508.93 3817.68,-4510.17 3814.61,-4511.33 3811.5,-4512.42 3808.34,-4513.42 3805.15,-4514.34 3801.93,-4515.18 3798.68,-4515.93 3795.42,-4516.59 3792.13,-4517.16 3788.83,-4517.64 3785.52,-4518.02 3782.21,-4518.31 3778.89,-4518.51 3775.56,-4518.6 3772.23,-4518.6 3768.91,-4518.51 3765.59,-4518.31 3762.27,-4518.02 3758.96,-4517.64 3755.66,-4517.16 3752.38,-4516.59 3749.11,-4515.93 3745.87,-4515.18 3742.64,-4514.34 3739.45,-4513.42 3736.3,-4512.42 3733.18,-4511.33 3730.11,-4510.17 3727.1,-4508.93 3724.15,-4507.63 3721.27,-4506.26 3718.46,-4504.82 3715.75,-4503.33 3713.13,-4501.78 3710.62,-4500.19 3708.22,-4498.54 3705.96,-4496.86 3703.83,-4495.13 3701.85,-4493.38 3700.04,-4491.6 3698.39,-4489.79 3696.94,-4487.97 3695.67,-4486.13 3694.61,-4484.29 3693.76,-4482.44 3693.13,-4480.6 3692.74,-4478.77 3692.59,-4476.94 3692.68,-4475.14 3693.03,-4473.36 3693.63,-4471.6 3694.5,-4469.88 3695.63,-4468.19 3697.02,-4466.55 3698.69,-4464.95 3700.61,-4463.4 3702.81,-4461.91 3705.26,-4460.48 3707.96,-4459.1 3710.91,-4457.8 3714.1,-4456.56 3717.53,-4455.4 3721.17,-4454.32 3725.01,-4453.31 3729.05,-4452.39 3733.27,-4451.55 3737.65,-4450.8 3742.18,-4450.14 3746.84,-4449.57 3751.6,-4449.09 3756.46,-4448.71 3761.39,-4448.42 3766.37,-4448.23 3771.39,-4448.13 3776.41,-4448.13 3781.42,-4448.23"/>
<text text-anchor="start" x="3744.73" y="-4493.17" font-family="Times,serif" font-size="14.00">C0220847</text>
<text text-anchor="start" x="3728.01" y="-4479.17" font-family="Times,serif" font-size="14.00">hepatitis C virus</text>
<text text-anchor="start" x="3757.95" y="-4465.17" font-family="Times,serif" font-size="14.00">40:42</text>
</g>
<!-- id_27882066_DOT_5&#45;&#45;id_27882066_DOT_8 -->
<g id="edge4" class="edge">
<title>id_27882066_DOT_5&#45;&#45;id_27882066_DOT_8</title>
<path fill="none" stroke="black" d="M3460.01,-4591.39C3532.74,-4566.36 3647.03,-4527.03 3715.78,-4503.37"/>
<text text-anchor="middle" x="3561.9" y="-4550.18" font-family="Times,serif" font-size="14.00">0.001161</text>
</g>
<!-- id_27882066_DOT_18 -->
<g id="node18" class="node">
<title>id_27882066_DOT_18</title>
<polygon fill="blueviolet" stroke="blueviolet" points="2968.28,-4575.79 2973.26,-4575.98 2978.19,-4576.27 2983.05,-4576.65 2987.82,-4577.13 2992.48,-4577.7 2997,-4578.36 3001.38,-4579.11 3005.6,-4579.95 3009.64,-4580.87 3013.49,-4581.88 3017.13,-4582.96 3020.55,-4584.12 3023.74,-4585.36 3026.69,-4586.66 3029.4,-4588.03 3031.85,-4589.47 3034.04,-4590.96 3035.97,-4592.51 3037.63,-4594.11 3039.03,-4595.75 3040.16,-4597.44 3041.02,-4599.16 3041.63,-4600.91 3041.97,-4602.7 3042.07,-4604.5 3041.91,-4606.32 3041.52,-4608.16 3040.9,-4610 3040.05,-4611.85 3038.98,-4613.69 3037.72,-4615.53 3036.26,-4617.35 3034.62,-4619.15 3032.8,-4620.94 3030.82,-4622.69 3028.7,-4624.41 3026.43,-4626.1 3024.04,-4627.74 3021.53,-4629.34 3018.91,-4630.89 3016.19,-4632.38 3013.39,-4633.82 3010.51,-4635.19 3007.55,-4636.49 3004.54,-4637.73 3001.47,-4638.89 2998.36,-4639.97 2995.2,-4640.98 2992.01,-4641.9 2988.79,-4642.74 2985.54,-4643.49 2982.28,-4644.15 2978.99,-4644.72 2975.69,-4645.2 2972.38,-4645.58 2969.07,-4645.87 2965.75,-4646.06 2962.42,-4646.16 2959.09,-4646.16 2955.77,-4646.06 2952.45,-4645.87 2949.13,-4645.58 2945.82,-4645.2 2942.52,-4644.72 2939.24,-4644.15 2935.97,-4643.49 2932.72,-4642.74 2929.5,-4641.9 2926.31,-4640.98 2923.16,-4639.97 2920.04,-4638.89 2916.97,-4637.73 2913.96,-4636.49 2911.01,-4635.19 2908.12,-4633.82 2905.32,-4632.38 2902.6,-4630.89 2899.99,-4629.34 2897.47,-4627.74 2895.08,-4626.1 2892.82,-4624.41 2890.69,-4622.69 2888.71,-4620.94 2886.9,-4619.15 2885.25,-4617.35 2883.79,-4615.53 2882.53,-4613.69 2881.47,-4611.85 2880.62,-4610 2879.99,-4608.16 2879.6,-4606.32 2879.45,-4604.5 2879.54,-4602.7 2879.88,-4600.91 2880.49,-4599.16 2881.35,-4597.44 2882.48,-4595.75 2883.88,-4594.11 2885.54,-4592.51 2887.47,-4590.96 2889.67,-4589.47 2892.12,-4588.03 2894.82,-4586.66 2897.77,-4585.36 2900.96,-4584.12 2904.38,-4582.96 2908.02,-4581.88 2911.87,-4580.87 2915.91,-4579.95 2920.13,-4579.11 2924.51,-4578.36 2929.04,-4577.7 2933.69,-4577.13 2938.46,-4576.65 2943.32,-4576.27 2948.25,-4575.98 2953.23,-4575.79 2958.25,-4575.69 2963.27,-4575.69 2968.28,-4575.79"/>
<text text-anchor="start" x="2931.59" y="-4620.73" font-family="Times,serif" font-size="14.00">C0220847</text>
<text text-anchor="start" x="2914.87" y="-4606.73" font-family="Times,serif" font-size="14.00">hepatitis C virus</text>
<text text-anchor="start" x="2937.81" y="-4592.73" font-family="Times,serif" font-size="14.00">106:108</text>
</g>
<!-- id_27882066_DOT_5&#45;&#45;id_27882066_DOT_18 -->
<g id="edge5" class="edge">
<title>id_27882066_DOT_5&#45;&#45;id_27882066_DOT_18</title>
<path fill="none" stroke="black" d="M3312.07,-4614.02C3234.58,-4613.33 3117.82,-4612.31 3040.47,-4611.63"/>
<text text-anchor="middle" x="3150.02" y="-4615.62" font-family="Times,serif" font-size="14.00">0.001514</text>
</g>
<!-- id_27882066_DOT_6 -->
<g id="node6" class="node">
<title>id_27882066_DOT_6</title>
<polygon fill="brown" stroke="brown" points="383.23,-2667.21 386.66,-2667.4 390.05,-2667.69 393.4,-2668.08 396.68,-2668.55 399.88,-2669.12 403,-2669.79 406.01,-2670.54 408.92,-2671.37 411.7,-2672.3 414.34,-2673.3 416.85,-2674.39 419.2,-2675.55 421.4,-2676.78 423.43,-2678.09 425.29,-2679.46 426.98,-2680.89 428.49,-2682.39 429.81,-2683.93 430.96,-2685.53 431.92,-2687.18 432.7,-2688.86 433.29,-2690.58 433.71,-2692.34 433.95,-2694.12 434.01,-2695.93 433.91,-2697.75 433.64,-2699.58 433.21,-2701.43 432.62,-2703.27 431.89,-2705.12 431.02,-2706.95 430.01,-2708.77 428.88,-2710.58 427.63,-2712.36 426.27,-2714.12 424.81,-2715.84 423.25,-2717.52 421.6,-2719.17 419.88,-2720.77 418.07,-2722.31 416.21,-2723.81 414.28,-2725.24 412.29,-2726.61 410.26,-2727.92 408.19,-2729.15 406.08,-2730.31 403.93,-2731.4 401.76,-2732.4 399.56,-2733.33 397.35,-2734.16 395.11,-2734.91 392.86,-2735.58 390.6,-2736.15 388.33,-2736.62 386.06,-2737.01 383.77,-2737.3 381.49,-2737.49 379.2,-2737.59 376.91,-2737.59 374.62,-2737.49 372.34,-2737.3 370.05,-2737.01 367.78,-2736.62 365.51,-2736.15 363.25,-2735.58 361,-2734.91 358.76,-2734.16 356.55,-2733.33 354.35,-2732.4 352.18,-2731.4 350.04,-2730.31 347.92,-2729.15 345.85,-2727.92 343.82,-2726.61 341.84,-2725.24 339.91,-2723.81 338.04,-2722.31 336.23,-2720.77 334.51,-2719.17 332.86,-2717.52 331.3,-2715.84 329.84,-2714.12 328.48,-2712.36 327.23,-2710.58 326.1,-2708.77 325.09,-2706.95 324.22,-2705.12 323.49,-2703.27 322.91,-2701.43 322.48,-2699.58 322.2,-2697.75 322.1,-2695.93 322.16,-2694.12 322.4,-2692.34 322.82,-2690.58 323.41,-2688.86 324.19,-2687.18 325.15,-2685.53 326.3,-2683.93 327.62,-2682.39 329.13,-2680.89 330.82,-2679.46 332.68,-2678.09 334.71,-2676.78 336.91,-2675.55 339.26,-2674.39 341.77,-2673.3 344.41,-2672.3 347.19,-2671.37 350.1,-2670.54 353.11,-2669.79 356.23,-2669.12 359.43,-2668.55 362.71,-2668.08 366.06,-2667.69 369.45,-2667.4 372.88,-2667.21 376.33,-2667.11 379.78,-2667.11 383.23,-2667.21"/>
<text text-anchor="start" x="348.89" y="-2712.15" font-family="Times,serif" font-size="14.00">C2603343</text>
<text text-anchor="start" x="362.89" y="-2698.15" font-family="Times,serif" font-size="14.00">study</text>
<text text-anchor="start" x="362.11" y="-2684.15" font-family="Times,serif" font-size="14.00">29:29</text>
</g>
<!-- id_27882066_DOT_33 -->
<g id="node33" class="node">
<title>id_27882066_DOT_33</title>
<polygon fill="brown" stroke="brown" points="810.68,-2568.63 814.11,-2568.82 817.5,-2569.11 820.85,-2569.5 824.13,-2569.97 827.33,-2570.54 830.45,-2571.2 833.46,-2571.96 836.37,-2572.79 839.15,-2573.72 841.79,-2574.72 844.3,-2575.81 846.65,-2576.97 848.85,-2578.2 850.88,-2579.51 852.74,-2580.88 854.43,-2582.31 855.94,-2583.8 857.26,-2585.35 858.41,-2586.95 859.37,-2588.59 860.15,-2590.28 860.74,-2592 861.16,-2593.76 861.4,-2595.54 861.46,-2597.35 861.35,-2599.17 861.08,-2601 860.65,-2602.85 860.07,-2604.69 859.34,-2606.53 858.47,-2608.37 857.46,-2610.19 856.33,-2612 855.08,-2613.78 853.72,-2615.54 852.26,-2617.26 850.7,-2618.94 849.05,-2620.59 847.32,-2622.19 845.52,-2623.73 843.65,-2625.23 841.72,-2626.66 839.74,-2628.03 837.71,-2629.34 835.63,-2630.57 833.52,-2631.73 831.38,-2632.82 829.21,-2633.82 827.01,-2634.75 824.79,-2635.58 822.56,-2636.33 820.31,-2636.99 818.05,-2637.57 815.78,-2638.04 813.5,-2638.43 811.22,-2638.72 808.94,-2638.91 806.65,-2639 804.36,-2639 802.07,-2638.91 799.78,-2638.72 797.5,-2638.43 795.22,-2638.04 792.95,-2637.57 790.69,-2636.99 788.45,-2636.33 786.21,-2635.58 784,-2634.75 781.8,-2633.82 779.63,-2632.82 777.48,-2631.73 775.37,-2630.57 773.3,-2629.34 771.27,-2628.03 769.28,-2626.66 767.35,-2625.23 765.48,-2623.73 763.68,-2622.19 761.95,-2620.59 760.31,-2618.94 758.75,-2617.26 757.28,-2615.54 755.92,-2613.78 754.67,-2612 753.54,-2610.19 752.54,-2608.37 751.67,-2606.53 750.94,-2604.69 750.35,-2602.85 749.92,-2601 749.65,-2599.17 749.55,-2597.35 749.61,-2595.54 749.85,-2593.76 750.26,-2592 750.86,-2590.28 751.64,-2588.59 752.6,-2586.95 753.74,-2585.35 755.07,-2583.8 756.58,-2582.31 758.27,-2580.88 760.13,-2579.51 762.16,-2578.2 764.36,-2576.97 766.71,-2575.81 769.21,-2574.72 771.86,-2573.72 774.64,-2572.79 777.54,-2571.96 780.56,-2571.2 783.68,-2570.54 786.88,-2569.97 790.16,-2569.5 793.5,-2569.11 796.9,-2568.82 800.33,-2568.63 803.77,-2568.53 807.23,-2568.53 810.68,-2568.63"/>
<text text-anchor="start" x="776.33" y="-2613.57" font-family="Times,serif" font-size="14.00">C2603343</text>
<text text-anchor="start" x="786.06" y="-2599.57" font-family="Times,serif" font-size="14.00">studies</text>
<text text-anchor="start" x="782.56" y="-2585.57" font-family="Times,serif" font-size="14.00">266:266</text>
</g>
<!-- id_27882066_DOT_6&#45;&#45;id_27882066_DOT_33 -->
<g id="edge6" class="edge">
<title>id_27882066_DOT_6&#45;&#45;id_27882066_DOT_33</title>
<path fill="none" stroke="black" d="M433.06,-2689.66C517.17,-2670.27 676.4,-2633.54 756.65,-2615.04"/>
<text text-anchor="middle" x="568.61" y="-2655.15" font-family="Times,serif" font-size="14.00">0.003141</text>
</g>
<!-- id_27882066_DOT_7 -->
<g id="node7" class="node">
<title>id_27882066_DOT_7</title>
<polygon fill="cadetblue" stroke="cadetblue" points="1193.96,-2373.39 1201.97,-2373.58 1209.89,-2373.87 1217.71,-2374.25 1225.37,-2374.73 1232.86,-2375.3 1240.14,-2375.96 1247.18,-2376.71 1253.96,-2377.55 1260.46,-2378.47 1266.64,-2379.48 1272.49,-2380.56 1277.99,-2381.72 1283.12,-2382.96 1287.87,-2384.26 1292.22,-2385.64 1296.16,-2387.07 1299.68,-2388.56 1302.78,-2390.11 1305.46,-2391.71 1307.7,-2393.35 1309.52,-2395.04 1310.91,-2396.76 1311.88,-2398.52 1312.44,-2400.3 1312.59,-2402.1 1312.34,-2403.93 1311.71,-2405.76 1310.7,-2407.6 1309.34,-2409.45 1307.63,-2411.29 1305.6,-2413.13 1303.25,-2414.95 1300.61,-2416.76 1297.69,-2418.54 1294.51,-2420.29 1291.09,-2422.02 1287.45,-2423.7 1283.6,-2425.35 1279.57,-2426.94 1275.36,-2428.49 1270.99,-2429.98 1266.48,-2431.42 1261.85,-2432.79 1257.1,-2434.09 1252.26,-2435.33 1247.32,-2436.49 1242.31,-2437.58 1237.24,-2438.58 1232.11,-2439.5 1226.93,-2440.34 1221.71,-2441.09 1216.46,-2441.75 1211.18,-2442.32 1205.88,-2442.8 1200.56,-2443.18 1195.22,-2443.47 1189.88,-2443.67 1184.54,-2443.76 1179.19,-2443.76 1173.84,-2443.67 1168.5,-2443.47 1163.17,-2443.18 1157.85,-2442.8 1152.55,-2442.32 1147.27,-2441.75 1142.01,-2441.09 1136.79,-2440.34 1131.62,-2439.5 1126.48,-2438.58 1121.41,-2437.58 1116.4,-2436.49 1111.47,-2435.33 1106.62,-2434.09 1101.88,-2432.79 1097.24,-2431.42 1092.74,-2429.98 1088.37,-2428.49 1084.16,-2426.94 1080.12,-2425.35 1076.27,-2423.7 1072.63,-2422.02 1069.21,-2420.29 1066.03,-2418.54 1063.11,-2416.76 1060.47,-2414.95 1058.13,-2413.13 1056.09,-2411.29 1054.38,-2409.45 1053.02,-2407.6 1052.01,-2405.76 1051.38,-2403.93 1051.13,-2402.1 1051.28,-2400.3 1051.84,-2398.52 1052.81,-2396.76 1054.2,-2395.04 1056.02,-2393.35 1058.27,-2391.71 1060.94,-2390.11 1064.04,-2388.56 1067.56,-2387.07 1071.51,-2385.64 1075.85,-2384.26 1080.6,-2382.96 1085.73,-2381.72 1091.23,-2380.56 1097.08,-2379.48 1103.27,-2378.47 1109.76,-2377.55 1116.54,-2376.71 1123.59,-2375.96 1130.87,-2375.3 1138.35,-2374.73 1146.02,-2374.25 1153.83,-2373.87 1161.76,-2373.58 1169.76,-2373.39 1177.82,-2373.29 1185.9,-2373.29 1193.96,-2373.39"/>
<text text-anchor="start" x="1152.69" y="-2418.33" font-family="Times,serif" font-size="14.00">C1519068</text>
<text text-anchor="start" x="1103.14" y="-2404.33" font-family="Times,serif" font-size="14.00">phylogenetically investigate</text>
<text text-anchor="start" x="1165.92" y="-2390.33" font-family="Times,serif" font-size="14.00">32:33</text>
</g>
<!-- id_27882066_DOT_17 -->
<g id="node17" class="node">
<title>id_27882066_DOT_17</title>
<polygon fill="cadetblue" stroke="cadetblue" points="1425.44,-2745.82 1431.77,-2746.01 1438.02,-2746.3 1444.19,-2746.69 1450.24,-2747.16 1456.15,-2747.73 1461.9,-2748.4 1467.46,-2749.15 1472.81,-2749.98 1477.94,-2750.91 1482.82,-2751.91 1487.44,-2753 1491.78,-2754.16 1495.83,-2755.39 1499.58,-2756.7 1503.01,-2758.07 1506.12,-2759.5 1508.91,-2761 1511.35,-2762.54 1513.46,-2764.14 1515.24,-2765.79 1516.67,-2767.47 1517.77,-2769.19 1518.54,-2770.95 1518.98,-2772.73 1519.09,-2774.54 1518.9,-2776.36 1518.4,-2778.19 1517.61,-2780.04 1516.53,-2781.88 1515.18,-2783.73 1513.58,-2785.56 1511.72,-2787.38 1509.64,-2789.19 1507.33,-2790.97 1504.82,-2792.73 1502.13,-2794.45 1499.25,-2796.13 1496.21,-2797.78 1493.02,-2799.38 1489.7,-2800.92 1486.25,-2802.42 1482.7,-2803.85 1479.04,-2805.22 1475.29,-2806.53 1471.47,-2807.76 1467.57,-2808.92 1463.62,-2810.01 1459.61,-2811.01 1455.56,-2811.94 1451.47,-2812.77 1447.35,-2813.52 1443.21,-2814.19 1439.04,-2814.76 1434.85,-2815.23 1430.65,-2815.62 1426.44,-2815.91 1422.23,-2816.1 1418.01,-2816.2 1413.78,-2816.2 1409.56,-2816.1 1405.35,-2815.91 1401.14,-2815.62 1396.94,-2815.23 1392.75,-2814.76 1388.58,-2814.19 1384.44,-2813.52 1380.32,-2812.77 1376.23,-2811.94 1372.18,-2811.01 1368.17,-2810.01 1364.22,-2808.92 1360.32,-2807.76 1356.5,-2806.53 1352.75,-2805.22 1349.09,-2803.85 1345.54,-2802.42 1342.09,-2800.92 1338.77,-2799.38 1335.58,-2797.78 1332.54,-2796.13 1329.66,-2794.45 1326.97,-2792.73 1324.46,-2790.97 1322.15,-2789.19 1320.07,-2787.38 1318.21,-2785.56 1316.61,-2783.73 1315.26,-2781.88 1314.18,-2780.04 1313.39,-2778.19 1312.89,-2776.36 1312.7,-2774.54 1312.81,-2772.73 1313.25,-2770.95 1314.02,-2769.19 1315.12,-2767.47 1316.55,-2765.79 1318.33,-2764.14 1320.44,-2762.54 1322.88,-2761 1325.67,-2759.5 1328.78,-2758.07 1332.21,-2756.7 1335.96,-2755.39 1340.01,-2754.16 1344.35,-2753 1348.97,-2751.91 1353.85,-2750.91 1358.98,-2749.98 1364.33,-2749.15 1369.89,-2748.4 1375.64,-2747.73 1381.55,-2747.16 1387.6,-2746.69 1393.77,-2746.3 1400.02,-2746.01 1406.35,-2745.82 1412.71,-2745.72 1419.08,-2745.72 1425.44,-2745.82"/>
<text text-anchor="start" x="1386.73" y="-2790.76" font-family="Times,serif" font-size="14.00">C1519068</text>
<text text-anchor="start" x="1355.44" y="-2776.76" font-family="Times,serif" font-size="14.00">phylogenetic analysis</text>
<text text-anchor="start" x="1396.45" y="-2762.76" font-family="Times,serif" font-size="14.00">99:100</text>
</g>
<!-- id_27882066_DOT_7&#45;&#45;id_27882066_DOT_17 -->
<g id="edge7" class="edge">
<title>id_27882066_DOT_7&#45;&#45;id_27882066_DOT_17</title>
<path fill="none" stroke="black" d="M1203.67,-2443.23C1248.26,-2514.2 1349.44,-2675.2 1394.06,-2746.21"/>
<text text-anchor="middle" x="1272.61" y="-2597.52" font-family="Times,serif" font-size="14.00">0.062223</text>
</g>
<!-- id_27882066_DOT_7&#45;&#45;id_27882066_DOT_19 -->
<g id="edge24" class="edge">
<title>id_27882066_DOT_7&#45;&#45;id_27882066_DOT_19</title>
<path fill="none" stroke="black" stroke-dasharray="1,5" d="M1087.65,-2381.31C1012.48,-2359.58 910.35,-2330.08 851.58,-2313.09"/>
<text text-anchor="middle" x="943.36" y="-2350" font-family="Times,serif" font-size="14.00">0.749268</text>
</g>
<!-- id_27882066_DOT_7&#45;&#45;id_27882066_DOT_33 -->
<g id="edge25" class="edge">
<title>id_27882066_DOT_7&#45;&#45;id_27882066_DOT_33</title>
<path fill="none" stroke="black" stroke-dasharray="1,5" d="M1124.29,-2438.39C1049.44,-2477.22 920.19,-2544.27 851.51,-2579.9"/>
<text text-anchor="middle" x="961.65" y="-2511.95" font-family="Times,serif" font-size="14.00">0.937905</text>
</g>
<!-- id_27882066_DOT_35 -->
<g id="node35" class="node">
<title>id_27882066_DOT_35</title>
<polygon fill="blue" stroke="blue" points="1297.86,-1932.41 1301.29,-1932.61 1304.68,-1932.89 1308.02,-1933.28 1311.3,-1933.76 1314.51,-1934.33 1317.62,-1934.99 1320.64,-1935.74 1323.54,-1936.58 1326.32,-1937.5 1328.97,-1938.5 1331.47,-1939.59 1333.83,-1940.75 1336.02,-1941.98 1338.05,-1943.29 1339.92,-1944.66 1341.6,-1946.09 1343.11,-1947.59 1344.44,-1949.13 1345.58,-1950.73 1346.54,-1952.38 1347.32,-1954.06 1347.92,-1955.79 1348.33,-1957.54 1348.57,-1959.32 1348.64,-1961.13 1348.53,-1962.95 1348.26,-1964.79 1347.83,-1966.63 1347.24,-1968.47 1346.51,-1970.32 1345.64,-1972.15 1344.64,-1973.97 1343.51,-1975.78 1342.26,-1977.56 1340.9,-1979.32 1339.43,-1981.04 1337.88,-1982.73 1336.23,-1984.37 1334.5,-1985.97 1332.7,-1987.52 1330.83,-1989.01 1328.9,-1990.44 1326.92,-1991.81 1324.88,-1993.12 1322.81,-1994.35 1320.7,-1995.52 1318.55,-1996.6 1316.38,-1997.6 1314.19,-1998.53 1311.97,-1999.37 1309.74,-2000.12 1307.49,-2000.78 1305.23,-2001.35 1302.96,-2001.83 1300.68,-2002.21 1298.4,-2002.5 1296.11,-2002.69 1293.82,-2002.79 1291.53,-2002.79 1289.25,-2002.69 1286.96,-2002.5 1284.68,-2002.21 1282.4,-2001.83 1280.13,-2001.35 1277.87,-2000.78 1275.62,-2000.12 1273.39,-1999.37 1271.17,-1998.53 1268.98,-1997.6 1266.8,-1996.6 1264.66,-1995.52 1262.55,-1994.35 1260.47,-1993.12 1258.44,-1991.81 1256.46,-1990.44 1254.53,-1989.01 1252.66,-1987.52 1250.86,-1985.97 1249.13,-1984.37 1247.48,-1982.73 1245.92,-1981.04 1244.46,-1979.32 1243.1,-1977.56 1241.85,-1975.78 1240.72,-1973.97 1239.72,-1972.15 1238.84,-1970.32 1238.11,-1968.47 1237.53,-1966.63 1237.1,-1964.79 1236.83,-1962.95 1236.72,-1961.13 1236.79,-1959.32 1237.02,-1957.54 1237.44,-1955.79 1238.04,-1954.06 1238.81,-1952.38 1239.78,-1950.73 1240.92,-1949.13 1242.25,-1947.59 1243.76,-1946.09 1245.44,-1944.66 1247.3,-1943.29 1249.33,-1941.98 1251.53,-1940.75 1253.89,-1939.59 1256.39,-1938.5 1259.04,-1937.5 1261.82,-1936.58 1264.72,-1935.74 1267.73,-1934.99 1270.85,-1934.33 1274.06,-1933.76 1277.34,-1933.28 1280.68,-1932.89 1284.07,-1932.61 1287.5,-1932.41 1290.95,-1932.32 1294.41,-1932.32 1297.86,-1932.41"/>
<text text-anchor="start" x="1263.51" y="-1977.35" font-family="Times,serif" font-size="14.00">C0009221</text>
<text text-anchor="start" x="1275.57" y="-1963.35" font-family="Times,serif" font-size="14.00">codon</text>
<text text-anchor="start" x="1269.73" y="-1949.35" font-family="Times,serif" font-size="14.00">287:287</text>
</g>
<!-- id_27882066_DOT_7&#45;&#45;id_27882066_DOT_35 -->
<g id="edge26" class="edge">
<title>id_27882066_DOT_7&#45;&#45;id_27882066_DOT_35</title>
<path fill="none" stroke="black" stroke-dasharray="1,5" d="M1190.74,-2373.19C1211.57,-2290.31 1263.35,-2084.27 1283.99,-2002.14"/>
<text text-anchor="middle" x="1211.11" y="-2190.47" font-family="Times,serif" font-size="14.00">0.778276</text>
</g>
<!-- id_27882066_DOT_26 -->
<g id="node26" class="node">
<title>id_27882066_DOT_26</title>
<polygon fill="blueviolet" stroke="blueviolet" points="4166.94,-4474.21 4171.92,-4474.4 4176.85,-4474.69 4181.71,-4475.08 4186.48,-4475.55 4191.13,-4476.12 4195.66,-4476.79 4200.04,-4477.54 4204.26,-4478.37 4208.3,-4479.3 4212.15,-4480.3 4215.79,-4481.39 4219.21,-4482.55 4222.4,-4483.78 4225.35,-4485.09 4228.05,-4486.46 4230.51,-4487.89 4232.7,-4489.39 4234.63,-4490.93 4236.29,-4492.53 4237.69,-4494.18 4238.82,-4495.86 4239.68,-4497.58 4240.29,-4499.34 4240.63,-4501.12 4240.73,-4502.93 4240.57,-4504.75 4240.18,-4506.59 4239.55,-4508.43 4238.7,-4510.27 4237.64,-4512.12 4236.38,-4513.95 4234.92,-4515.77 4233.27,-4517.58 4231.46,-4519.36 4229.48,-4521.12 4227.36,-4522.84 4225.09,-4524.53 4222.7,-4526.17 4220.18,-4527.77 4217.57,-4529.31 4214.85,-4530.81 4212.05,-4532.24 4209.16,-4533.61 4206.21,-4534.92 4203.2,-4536.15 4200.13,-4537.31 4197.01,-4538.4 4193.86,-4539.4 4190.67,-4540.33 4187.45,-4541.16 4184.2,-4541.92 4180.93,-4542.58 4177.65,-4543.15 4174.35,-4543.62 4171.04,-4544.01 4167.73,-4544.3 4164.4,-4544.49 4161.08,-4544.59 4157.75,-4544.59 4154.43,-4544.49 4151.1,-4544.3 4147.79,-4544.01 4144.48,-4543.62 4141.18,-4543.15 4137.9,-4542.58 4134.63,-4541.92 4131.38,-4541.16 4128.16,-4540.33 4124.97,-4539.4 4121.81,-4538.4 4118.7,-4537.31 4115.63,-4536.15 4112.62,-4534.92 4109.66,-4533.61 4106.78,-4532.24 4103.98,-4530.81 4101.26,-4529.31 4098.64,-4527.77 4096.13,-4526.17 4093.74,-4524.53 4091.47,-4522.84 4089.35,-4521.12 4087.37,-4519.36 4085.55,-4517.58 4083.91,-4515.77 4082.45,-4513.95 4081.19,-4512.12 4080.12,-4510.27 4079.28,-4508.43 4078.65,-4506.59 4078.26,-4504.75 4078.1,-4502.93 4078.2,-4501.12 4078.54,-4499.34 4079.15,-4497.58 4080.01,-4495.86 4081.14,-4494.18 4082.54,-4492.53 4084.2,-4490.93 4086.13,-4489.39 4088.32,-4487.89 4090.77,-4486.46 4093.48,-4485.09 4096.43,-4483.78 4099.62,-4482.55 4103.04,-4481.39 4106.68,-4480.3 4110.53,-4479.3 4114.57,-4478.37 4118.79,-4477.54 4123.17,-4476.79 4127.7,-4476.12 4132.35,-4475.55 4137.12,-4475.08 4141.98,-4474.69 4146.91,-4474.4 4151.89,-4474.21 4156.9,-4474.12 4161.93,-4474.12 4166.94,-4474.21"/>
<text text-anchor="start" x="4130.25" y="-4519.15" font-family="Times,serif" font-size="14.00">C0220847</text>
<text text-anchor="start" x="4113.53" y="-4505.15" font-family="Times,serif" font-size="14.00">hepatitis C virus</text>
<text text-anchor="start" x="4136.47" y="-4491.15" font-family="Times,serif" font-size="14.00">210:212</text>
</g>
<!-- id_27882066_DOT_8&#45;&#45;id_27882066_DOT_26 -->
<g id="edge8" class="edge">
<title>id_27882066_DOT_8&#45;&#45;id_27882066_DOT_26</title>
<path fill="none" stroke="black" d="M3850.52,-4488.53C3916.29,-4492.96 4010.81,-4499.33 4077.94,-4503.86"/>
<text text-anchor="middle" x="3937.98" y="-4499" font-family="Times,serif" font-size="14.00">0.013286</text>
</g>
<!-- id_27882066_DOT_9 -->
<g id="node9" class="node">
<title>id_27882066_DOT_9</title>
<polygon fill="chartreuse" stroke="chartreuse" points="64.02,-871.6 67.62,-871.8 71.18,-872.09 74.68,-872.47 78.13,-872.95 81.49,-873.52 84.75,-874.18 87.92,-874.93 90.96,-875.77 93.88,-876.69 96.65,-877.69 99.28,-878.78 101.75,-879.94 104.05,-881.17 106.18,-882.48 108.13,-883.85 109.9,-885.29 111.49,-886.78 112.88,-888.33 114.08,-889.92 115.09,-891.57 115.9,-893.25 116.53,-894.98 116.96,-896.73 117.21,-898.51 117.28,-900.32 117.17,-902.14 116.88,-903.98 116.43,-905.82 115.82,-907.67 115.05,-909.51 114.14,-911.34 113.09,-913.17 111.9,-914.97 110.59,-916.75 109.17,-918.51 107.63,-920.23 106,-921.92 104.27,-923.56 102.45,-925.16 100.56,-926.71 98.6,-928.2 96.58,-929.63 94.5,-931.01 92.37,-932.31 90.19,-933.54 87.98,-934.71 85.73,-935.79 83.45,-936.8 81.15,-937.72 78.83,-938.56 76.48,-939.31 74.12,-939.97 71.75,-940.54 69.37,-941.02 66.99,-941.4 64.59,-941.69 62.19,-941.88 59.79,-941.98 57.39,-941.98 54.99,-941.88 52.59,-941.69 50.2,-941.4 47.81,-941.02 45.43,-940.54 43.06,-939.97 40.7,-939.31 38.36,-938.56 36.04,-937.72 33.73,-936.8 31.45,-935.79 29.21,-934.71 26.99,-933.54 24.82,-932.31 22.69,-931.01 20.61,-929.63 18.58,-928.2 16.62,-926.71 14.73,-925.16 12.92,-923.56 11.19,-921.92 9.56,-920.23 8.02,-918.51 6.59,-916.75 5.28,-914.97 4.1,-913.17 3.05,-911.34 2.13,-909.51 1.36,-907.67 0.75,-905.82 0.3,-903.98 0.02,-902.14 -0.09,-900.32 -0.03,-898.51 0.22,-896.73 0.66,-894.98 1.28,-893.25 2.1,-891.57 3.11,-889.92 4.31,-888.33 5.7,-886.78 7.28,-885.29 9.05,-883.85 11,-882.48 13.13,-881.17 15.44,-879.94 17.91,-878.78 20.53,-877.69 23.31,-876.69 26.23,-875.77 29.27,-874.93 32.43,-874.18 35.7,-873.52 39.06,-872.95 42.5,-872.47 46.01,-872.09 49.57,-871.8 53.16,-871.6 56.78,-871.51 60.41,-871.51 64.02,-871.6"/>
<text text-anchor="start" x="29.42" y="-916.54" font-family="Times,serif" font-size="14.00">C0002520</text>
<text text-anchor="start" x="27.69" y="-902.54" font-family="Times,serif" font-size="14.00">amino acid</text>
<text text-anchor="start" x="42.65" y="-888.54" font-family="Times,serif" font-size="14.00">50:51</text>
</g>
<!-- id_27882066_DOT_34 -->
<g id="node34" class="node">
<title>id_27882066_DOT_34</title>
<polygon fill="darksalmon" stroke="darksalmon" points="368.11,-1100.19 371.54,-1100.38 374.93,-1100.67 378.27,-1101.05 381.55,-1101.53 384.76,-1102.1 387.88,-1102.76 390.89,-1103.51 393.79,-1104.35 396.57,-1105.27 399.22,-1106.28 401.73,-1107.36 404.08,-1108.52 406.28,-1109.76 408.31,-1111.06 410.17,-1112.43 411.86,-1113.87 413.36,-1115.36 414.69,-1116.91 415.84,-1118.51 416.8,-1120.15 417.57,-1121.84 418.17,-1123.56 418.59,-1125.32 418.82,-1127.1 418.89,-1128.9 418.78,-1130.73 418.51,-1132.56 418.08,-1134.4 417.5,-1136.25 416.77,-1138.09 415.9,-1139.93 414.89,-1141.75 413.76,-1143.55 412.51,-1145.34 411.15,-1147.09 409.69,-1148.81 408.13,-1150.5 406.48,-1152.14 404.75,-1153.74 402.95,-1155.29 401.08,-1156.78 399.15,-1158.22 397.17,-1159.59 395.14,-1160.89 393.06,-1162.13 390.95,-1163.29 388.81,-1164.37 386.64,-1165.38 384.44,-1166.3 382.22,-1167.14 379.99,-1167.89 377.74,-1168.55 375.48,-1169.12 373.21,-1169.6 370.93,-1169.98 368.65,-1170.27 366.36,-1170.46 364.08,-1170.56 361.79,-1170.56 359.5,-1170.46 357.21,-1170.27 354.93,-1169.98 352.65,-1169.6 350.38,-1169.12 348.12,-1168.55 345.87,-1167.89 343.64,-1167.14 341.42,-1166.3 339.23,-1165.38 337.06,-1164.37 334.91,-1163.29 332.8,-1162.13 330.73,-1160.89 328.69,-1159.59 326.71,-1158.22 324.78,-1156.78 322.91,-1155.29 321.11,-1153.74 319.38,-1152.14 317.73,-1150.5 316.18,-1148.81 314.71,-1147.09 313.35,-1145.34 312.1,-1143.55 310.97,-1141.75 309.97,-1139.93 309.1,-1138.09 308.37,-1136.25 307.78,-1134.4 307.35,-1132.56 307.08,-1130.73 306.97,-1128.9 307.04,-1127.1 307.28,-1125.32 307.69,-1123.56 308.29,-1121.84 309.07,-1120.15 310.03,-1118.51 311.17,-1116.91 312.5,-1115.36 314.01,-1113.87 315.69,-1112.43 317.56,-1111.06 319.59,-1109.76 321.78,-1108.52 324.14,-1107.36 326.64,-1106.28 329.29,-1105.27 332.07,-1104.35 334.97,-1103.51 337.99,-1102.76 341.1,-1102.1 344.31,-1101.53 347.59,-1101.05 350.93,-1100.67 354.33,-1100.38 357.75,-1100.19 361.2,-1100.09 364.66,-1100.09 368.11,-1100.19"/>
<text text-anchor="start" x="333.76" y="-1145.13" font-family="Times,serif" font-size="14.00">C0449445</text>
<text text-anchor="start" x="337.28" y="-1131.13" font-family="Times,serif" font-size="14.00">approach</text>
<text text-anchor="start" x="339.99" y="-1117.13" font-family="Times,serif" font-size="14.00">278:278</text>
</g>
<!-- id_27882066_DOT_9&#45;&#45;id_27882066_DOT_34 -->
<g id="edge27" class="edge">
<title>id_27882066_DOT_9&#45;&#45;id_27882066_DOT_34</title>
<path fill="none" stroke="black" stroke-dasharray="1,5" d="M92.62,-932.3C149.85,-975.29 264.99,-1061.77 324.85,-1106.72"/>
<text text-anchor="middle" x="182.48" y="-1022.31" font-family="Times,serif" font-size="14.00">0.878979</text>
</g>
<!-- id_27882066_DOT_13 -->
<g id="node13" class="node">
<title>id_27882066_DOT_13</title>
<polygon fill="blue" stroke="blue" points="2279.48,-688.12 2282.9,-688.31 2286.3,-688.6 2289.64,-688.98 2292.92,-689.46 2296.13,-690.03 2299.24,-690.69 2302.26,-691.44 2305.16,-692.28 2307.94,-693.2 2310.59,-694.21 2313.09,-695.29 2315.45,-696.45 2317.64,-697.69 2319.67,-698.99 2321.53,-700.37 2323.22,-701.8 2324.73,-703.29 2326.06,-704.84 2327.2,-706.44 2328.16,-708.08 2328.94,-709.77 2329.54,-711.49 2329.95,-713.25 2330.19,-715.03 2330.25,-716.83 2330.15,-718.66 2329.88,-720.49 2329.45,-722.33 2328.86,-724.18 2328.13,-726.02 2327.26,-727.86 2326.26,-729.68 2325.13,-731.48 2323.88,-733.27 2322.52,-735.02 2321.05,-736.75 2319.49,-738.43 2317.85,-740.08 2316.12,-741.67 2314.32,-743.22 2312.45,-744.71 2310.52,-746.15 2308.53,-747.52 2306.5,-748.82 2304.43,-750.06 2302.32,-751.22 2300.17,-752.3 2298,-753.31 2295.81,-754.23 2293.59,-755.07 2291.35,-755.82 2289.11,-756.48 2286.85,-757.05 2284.58,-757.53 2282.3,-757.91 2280.02,-758.2 2277.73,-758.4 2275.44,-758.49 2273.15,-758.49 2270.86,-758.4 2268.58,-758.2 2266.3,-757.91 2264.02,-757.53 2261.75,-757.05 2259.49,-756.48 2257.24,-755.82 2255.01,-755.07 2252.79,-754.23 2250.59,-753.31 2248.42,-752.3 2246.28,-751.22 2244.17,-750.06 2242.09,-748.82 2240.06,-747.52 2238.08,-746.15 2236.15,-744.71 2234.28,-743.22 2232.48,-741.67 2230.75,-740.08 2229.1,-738.43 2227.54,-736.75 2226.08,-735.02 2224.72,-733.27 2223.47,-731.48 2222.34,-729.68 2221.33,-727.86 2220.46,-726.02 2219.73,-724.18 2219.15,-722.33 2218.72,-720.49 2218.45,-718.66 2218.34,-716.83 2218.41,-715.03 2218.64,-713.25 2219.06,-711.49 2219.65,-709.77 2220.43,-708.08 2221.39,-706.44 2222.54,-704.84 2223.87,-703.29 2225.37,-701.8 2227.06,-700.37 2228.92,-698.99 2230.95,-697.69 2233.15,-696.45 2235.5,-695.29 2238.01,-694.21 2240.66,-693.2 2243.44,-692.28 2246.34,-691.44 2249.35,-690.69 2252.47,-690.03 2255.67,-689.46 2258.96,-688.98 2262.3,-688.6 2265.69,-688.31 2269.12,-688.12 2272.57,-688.02 2276.03,-688.02 2279.48,-688.12"/>
<text text-anchor="start" x="2245.13" y="-733.06" font-family="Times,serif" font-size="14.00">C0009221</text>
<text text-anchor="start" x="2257.19" y="-719.06" font-family="Times,serif" font-size="14.00">codon</text>
<text text-anchor="start" x="2258.35" y="-705.06" font-family="Times,serif" font-size="14.00">71:71</text>
</g>
<!-- id_27882066_DOT_10&#45;&#45;id_27882066_DOT_13 -->
<g id="edge9" class="edge">
<title>id_27882066_DOT_10&#45;&#45;id_27882066_DOT_13</title>
<path fill="none" stroke="black" d="M2421.44,-416.85C2390.42,-481.43 2322.23,-623.44 2290.78,-688.93"/>
<text text-anchor="middle" x="2329.86" y="-555.69" font-family="Times,serif" font-size="14.00">0.003816</text>
</g>
<!-- id_27882066_DOT_28 -->
<g id="node28" class="node">
<title>id_27882066_DOT_28</title>
<polygon fill="darkmagenta" stroke="darkmagenta" points="955.89,-4145.31 961.09,-4145.5 966.24,-4145.79 971.31,-4146.18 976.28,-4146.65 981.14,-4147.22 985.87,-4147.88 990.44,-4148.63 994.85,-4149.47 999.06,-4150.4 1003.08,-4151.4 1006.88,-4152.49 1010.45,-4153.65 1013.78,-4154.88 1016.86,-4156.19 1019.69,-4157.56 1022.24,-4158.99 1024.53,-4160.48 1026.55,-4162.03 1028.28,-4163.63 1029.74,-4165.27 1030.92,-4166.96 1031.82,-4168.68 1032.45,-4170.44 1032.81,-4172.22 1032.91,-4174.03 1032.75,-4175.85 1032.34,-4177.68 1031.69,-4179.53 1030.8,-4181.37 1029.69,-4183.21 1028.37,-4185.05 1026.85,-4186.87 1025.13,-4188.68 1023.24,-4190.46 1021.18,-4192.21 1018.96,-4193.94 1016.59,-4195.62 1014.09,-4197.27 1011.47,-4198.87 1008.74,-4200.41 1005.9,-4201.91 1002.98,-4203.34 999.97,-4204.71 996.89,-4206.02 993.74,-4207.25 990.54,-4208.41 987.28,-4209.5 983.99,-4210.5 980.66,-4211.42 977.3,-4212.26 973.91,-4213.01 970.5,-4213.67 967.07,-4214.24 963.63,-4214.72 960.17,-4215.11 956.71,-4215.39 953.24,-4215.59 949.77,-4215.68 946.3,-4215.68 942.83,-4215.59 939.36,-4215.39 935.9,-4215.11 932.44,-4214.72 929,-4214.24 925.57,-4213.67 922.16,-4213.01 918.77,-4212.26 915.41,-4211.42 912.08,-4210.5 908.78,-4209.5 905.53,-4208.41 902.33,-4207.25 899.18,-4206.02 896.1,-4204.71 893.09,-4203.34 890.17,-4201.91 887.33,-4200.41 884.6,-4198.87 881.98,-4197.27 879.48,-4195.62 877.11,-4193.94 874.89,-4192.21 872.83,-4190.46 870.94,-4188.68 869.22,-4186.87 867.7,-4185.05 866.37,-4183.21 865.27,-4181.37 864.38,-4179.53 863.73,-4177.68 863.32,-4175.85 863.16,-4174.03 863.25,-4172.22 863.62,-4170.44 864.25,-4168.68 865.15,-4166.96 866.33,-4165.27 867.79,-4163.63 869.52,-4162.03 871.54,-4160.48 873.82,-4158.99 876.38,-4157.56 879.21,-4156.19 882.29,-4154.88 885.62,-4153.65 889.19,-4152.49 892.99,-4151.4 897,-4150.4 901.22,-4149.47 905.62,-4148.63 910.2,-4147.88 914.92,-4147.22 919.79,-4146.65 924.76,-4146.18 929.83,-4145.79 934.98,-4145.5 940.18,-4145.31 945.41,-4145.21 950.66,-4145.21 955.89,-4145.31"/>
<text text-anchor="start" x="918.87" y="-4190.25" font-family="Times,serif" font-size="14.00">C0017428</text>
<text text-anchor="start" x="899.64" y="-4176.25" font-family="Times,serif" font-size="14.00">genome structure</text>
<text text-anchor="start" x="925.09" y="-4162.25" font-family="Times,serif" font-size="14.00">219:220</text>
</g>
<!-- id_27882066_DOT_11&#45;&#45;id_27882066_DOT_28 -->
<g id="edge10" class="edge">
<title>id_27882066_DOT_11&#45;&#45;id_27882066_DOT_28</title>
<path fill="none" stroke="black" d="M1278.91,-3994.17C1206.97,-4034.67 1074.49,-4109.26 1000.87,-4150.7"/>
<text text-anchor="middle" x="1113.64" y="-4075.24" font-family="Times,serif" font-size="14.00">0.176196</text>
</g>
<!-- id_27882066_DOT_32 -->
<g id="node32" class="node">
<title>id_27882066_DOT_32</title>
<polygon fill="darkred" stroke="darkred" points="1341.06,-4308.46 1345.95,-4308.65 1350.79,-4308.94 1355.56,-4309.32 1360.24,-4309.8 1364.82,-4310.37 1369.26,-4311.03 1373.56,-4311.78 1377.71,-4312.62 1381.67,-4313.54 1385.45,-4314.55 1389.02,-4315.63 1392.38,-4316.79 1395.52,-4318.03 1398.42,-4319.33 1401.07,-4320.7 1403.48,-4322.14 1405.63,-4323.63 1407.53,-4325.18 1409.16,-4326.78 1410.53,-4328.42 1411.64,-4330.11 1412.49,-4331.83 1413.08,-4333.59 1413.42,-4335.37 1413.51,-4337.17 1413.36,-4339 1412.98,-4340.83 1412.36,-4342.67 1411.53,-4344.52 1410.49,-4346.36 1409.24,-4348.2 1407.81,-4350.02 1406.2,-4351.82 1404.41,-4353.61 1402.47,-4355.36 1400.39,-4357.08 1398.16,-4358.77 1395.81,-4360.41 1393.34,-4362.01 1390.77,-4363.56 1388.11,-4365.05 1385.35,-4366.49 1382.52,-4367.86 1379.62,-4369.16 1376.66,-4370.4 1373.65,-4371.56 1370.59,-4372.64 1367.49,-4373.65 1364.36,-4374.57 1361.2,-4375.41 1358.01,-4376.16 1354.8,-4376.82 1351.57,-4377.39 1348.34,-4377.87 1345.09,-4378.25 1341.83,-4378.54 1338.57,-4378.74 1335.3,-4378.83 1332.04,-4378.83 1328.77,-4378.74 1325.51,-4378.54 1322.25,-4378.25 1319,-4377.87 1315.76,-4377.39 1312.54,-4376.82 1309.33,-4376.16 1306.14,-4375.41 1302.98,-4374.57 1299.84,-4373.65 1296.75,-4372.64 1293.69,-4371.56 1290.67,-4370.4 1287.71,-4369.16 1284.82,-4367.86 1281.98,-4366.49 1279.23,-4365.05 1276.56,-4363.56 1273.99,-4362.01 1271.53,-4360.41 1269.18,-4358.77 1266.95,-4357.08 1264.86,-4355.36 1262.92,-4353.61 1261.14,-4351.82 1259.53,-4350.02 1258.09,-4348.2 1256.85,-4346.36 1255.81,-4344.52 1254.97,-4342.67 1254.36,-4340.83 1253.97,-4339 1253.82,-4337.17 1253.91,-4335.37 1254.25,-4333.59 1254.85,-4331.83 1255.7,-4330.11 1256.81,-4328.42 1258.18,-4326.78 1259.81,-4325.18 1261.71,-4323.63 1263.86,-4322.14 1266.26,-4320.7 1268.92,-4319.33 1271.82,-4318.03 1274.95,-4316.79 1278.31,-4315.63 1281.89,-4314.55 1285.66,-4313.54 1289.63,-4312.62 1293.77,-4311.78 1298.08,-4311.03 1302.52,-4310.37 1307.09,-4309.8 1311.78,-4309.32 1316.55,-4308.94 1321.39,-4308.65 1326.28,-4308.46 1331.2,-4308.36 1336.13,-4308.36 1341.06,-4308.46"/>
<text text-anchor="start" x="1304.5" y="-4353.4" font-family="Times,serif" font-size="14.00">C0017262</text>
<text text-anchor="start" x="1288.77" y="-4339.4" font-family="Times,serif" font-size="14.00">gene expression</text>
<text text-anchor="start" x="1310.72" y="-4325.4" font-family="Times,serif" font-size="14.00">256:257</text>
</g>
<!-- id_27882066_DOT_11&#45;&#45;id_27882066_DOT_32 -->
<g id="edge28" class="edge">
<title>id_27882066_DOT_11&#45;&#45;id_27882066_DOT_32</title>
<path fill="none" stroke="black" stroke-dasharray="1,5" d="M1329.14,-4001.66C1330.09,-4073.69 1332.25,-4236.23 1333.2,-4308.18"/>
<text text-anchor="middle" x="1304.92" y="-4157.72" font-family="Times,serif" font-size="14.00">0.902766</text>
</g>
<!-- id_27882066_DOT_12 -->
<g id="node12" class="node">
<title>id_27882066_DOT_12</title>
<polygon fill="cornflowerblue" stroke="cornflowerblue" points="1175.19,-3298.13 1180.57,-3298.32 1185.88,-3298.61 1191.13,-3298.99 1196.27,-3299.47 1201.29,-3300.04 1206.18,-3300.7 1210.91,-3301.45 1215.46,-3302.29 1219.82,-3303.21 1223.97,-3304.22 1227.89,-3305.3 1231.58,-3306.46 1235.03,-3307.7 1238.21,-3309 1241.13,-3310.37 1243.77,-3311.81 1246.14,-3313.3 1248.22,-3314.85 1250.01,-3316.45 1251.52,-3318.09 1252.74,-3319.78 1253.67,-3321.5 1254.32,-3323.25 1254.7,-3325.04 1254.8,-3326.84 1254.63,-3328.66 1254.21,-3330.5 1253.53,-3332.34 1252.62,-3334.19 1251.47,-3336.03 1250.11,-3337.87 1248.53,-3339.69 1246.76,-3341.49 1244.8,-3343.28 1242.67,-3345.03 1240.37,-3346.75 1237.93,-3348.44 1235.35,-3350.08 1232.64,-3351.68 1229.81,-3353.23 1226.88,-3354.72 1223.86,-3356.16 1220.75,-3357.53 1217.56,-3358.83 1214.31,-3360.07 1211,-3361.23 1207.64,-3362.31 1204.23,-3363.32 1200.79,-3364.24 1197.32,-3365.08 1193.81,-3365.83 1190.29,-3366.49 1186.75,-3367.06 1183.19,-3367.54 1179.62,-3367.92 1176.04,-3368.21 1172.46,-3368.4 1168.87,-3368.5 1165.28,-3368.5 1161.69,-3368.4 1158.11,-3368.21 1154.53,-3367.92 1150.96,-3367.54 1147.4,-3367.06 1143.86,-3366.49 1140.33,-3365.83 1136.83,-3365.08 1133.35,-3364.24 1129.91,-3363.32 1126.51,-3362.31 1123.14,-3361.23 1119.83,-3360.07 1116.58,-3358.83 1113.4,-3357.53 1110.29,-3356.16 1107.26,-3354.72 1104.33,-3353.23 1101.51,-3351.68 1098.8,-3350.08 1096.22,-3348.44 1093.77,-3346.75 1091.48,-3345.03 1089.35,-3343.28 1087.39,-3341.49 1085.61,-3339.69 1084.04,-3337.87 1082.67,-3336.03 1081.53,-3334.19 1080.61,-3332.34 1079.94,-3330.5 1079.51,-3328.66 1079.35,-3326.84 1079.45,-3325.04 1079.82,-3323.25 1080.47,-3321.5 1081.41,-3319.78 1082.63,-3318.09 1084.13,-3316.45 1085.93,-3314.85 1088.01,-3313.3 1090.37,-3311.81 1093.02,-3310.37 1095.94,-3309 1099.12,-3307.7 1102.56,-3306.46 1106.25,-3305.3 1110.18,-3304.22 1114.33,-3303.21 1118.69,-3302.29 1123.24,-3301.45 1127.97,-3300.7 1132.85,-3300.04 1137.88,-3299.47 1143.02,-3298.99 1148.26,-3298.61 1153.58,-3298.32 1158.96,-3298.13 1164.36,-3298.03 1169.78,-3298.03 1175.19,-3298.13"/>
<text text-anchor="start" x="1137.9" y="-3343.07" font-family="Times,serif" font-size="14.00">C0418956</text>
<text text-anchor="start" x="1116.73" y="-3329.07" font-family="Times,serif" font-size="14.00">treatment regimes</text>
<text text-anchor="start" x="1151.13" y="-3315.07" font-family="Times,serif" font-size="14.00">67:68</text>
</g>
<!-- id_27882066_DOT_12&#45;&#45;id_27882066_DOT_25 -->
<g id="edge29" class="edge">
<title>id_27882066_DOT_12&#45;&#45;id_27882066_DOT_25</title>
<path fill="none" stroke="black" stroke-dasharray="1,5" d="M1236.1,-3308.12C1298.64,-3285.33 1390.13,-3252.01 1451.4,-3229.68"/>
<text text-anchor="middle" x="1317.5" y="-3271.7" font-family="Times,serif" font-size="14.00">0.773968</text>
</g>
<!-- id_27882066_DOT_22 -->
<g id="node22" class="node">
<title>id_27882066_DOT_22</title>
<polygon fill="blue" stroke="blue" points="2092.7,-1023 2096.13,-1023.2 2099.52,-1023.49 2102.86,-1023.87 2106.14,-1024.35 2109.35,-1024.92 2112.46,-1025.58 2115.48,-1026.33 2118.38,-1027.17 2121.16,-1028.09 2123.81,-1029.09 2126.31,-1030.18 2128.67,-1031.34 2130.86,-1032.57 2132.9,-1033.88 2134.76,-1035.25 2136.44,-1036.68 2137.95,-1038.18 2139.28,-1039.73 2140.42,-1041.32 2141.39,-1042.97 2142.16,-1044.65 2142.76,-1046.38 2143.17,-1048.13 2143.41,-1049.91 2143.48,-1051.72 2143.37,-1053.54 2143.1,-1055.38 2142.67,-1057.22 2142.09,-1059.06 2141.36,-1060.91 2140.48,-1062.74 2139.48,-1064.57 2138.35,-1066.37 2137.1,-1068.15 2135.74,-1069.91 2134.28,-1071.63 2132.72,-1073.32 2131.07,-1074.96 2129.34,-1076.56 2127.54,-1078.11 2125.67,-1079.6 2123.74,-1081.03 2121.76,-1082.41 2119.73,-1083.71 2117.65,-1084.94 2115.54,-1086.11 2113.4,-1087.19 2111.22,-1088.2 2109.03,-1089.12 2106.81,-1089.96 2104.58,-1090.71 2102.33,-1091.37 2100.07,-1091.94 2097.8,-1092.42 2095.52,-1092.8 2093.24,-1093.09 2090.95,-1093.28 2088.66,-1093.38 2086.38,-1093.38 2084.09,-1093.28 2081.8,-1093.09 2079.52,-1092.8 2077.24,-1092.42 2074.97,-1091.94 2072.71,-1091.37 2070.46,-1090.71 2068.23,-1089.96 2066.01,-1089.12 2063.82,-1088.2 2061.64,-1087.19 2059.5,-1086.11 2057.39,-1084.94 2055.32,-1083.71 2053.28,-1082.41 2051.3,-1081.03 2049.37,-1079.6 2047.5,-1078.11 2045.7,-1076.56 2043.97,-1074.96 2042.32,-1073.32 2040.76,-1071.63 2039.3,-1069.91 2037.94,-1068.15 2036.69,-1066.37 2035.56,-1064.57 2034.56,-1062.74 2033.69,-1060.91 2032.95,-1059.06 2032.37,-1057.22 2031.94,-1055.38 2031.67,-1053.54 2031.56,-1051.72 2031.63,-1049.91 2031.87,-1048.13 2032.28,-1046.38 2032.88,-1044.65 2033.66,-1042.97 2034.62,-1041.32 2035.76,-1039.73 2037.09,-1038.18 2038.6,-1036.68 2040.28,-1035.25 2042.14,-1033.88 2044.18,-1032.57 2046.37,-1031.34 2048.73,-1030.18 2051.23,-1029.09 2053.88,-1028.09 2056.66,-1027.17 2059.56,-1026.33 2062.58,-1025.58 2065.69,-1024.92 2068.9,-1024.35 2072.18,-1023.87 2075.52,-1023.49 2078.91,-1023.2 2082.34,-1023 2085.79,-1022.91 2089.25,-1022.91 2092.7,-1023"/>
<text text-anchor="start" x="2058.35" y="-1067.94" font-family="Times,serif" font-size="14.00">C0009221</text>
<text text-anchor="start" x="2070.41" y="-1053.94" font-family="Times,serif" font-size="14.00">codon</text>
<text text-anchor="start" x="2064.58" y="-1039.94" font-family="Times,serif" font-size="14.00">132:132</text>
</g>
<!-- id_27882066_DOT_13&#45;&#45;id_27882066_DOT_22 -->
<g id="edge11" class="edge">
<title>id_27882066_DOT_13&#45;&#45;id_27882066_DOT_22</title>
<path fill="none" stroke="black" d="M2256.22,-755.67C2220.79,-819.2 2142.54,-959.5 2106.44,-1024.22"/>
<text text-anchor="middle" x="2155.08" y="-892.74" font-family="Times,serif" font-size="14.00">0.016849</text>
</g>
<!-- id_27882066_DOT_14 -->
<g id="node14" class="node">
<title>id_27882066_DOT_14</title>
<polygon fill="blueviolet" stroke="blueviolet" points="3004.59,-4970.28 3009.57,-4970.47 3014.5,-4970.76 3019.36,-4971.15 3024.12,-4971.62 3028.78,-4972.2 3033.31,-4972.86 3037.69,-4973.61 3041.91,-4974.44 3045.95,-4975.37 3049.8,-4976.37 3053.43,-4977.46 3056.86,-4978.62 3060.05,-4979.85 3063,-4981.16 3065.7,-4982.53 3068.15,-4983.96 3070.35,-4985.46 3072.27,-4987 3073.94,-4988.6 3075.33,-4990.25 3076.47,-4991.93 3077.33,-4993.66 3077.93,-4995.41 3078.28,-4997.19 3078.37,-4999 3078.22,-5000.82 3077.83,-5002.66 3077.2,-5004.5 3076.35,-5006.34 3075.29,-5008.19 3074.03,-5010.02 3072.57,-5011.84 3070.92,-5013.65 3069.11,-5015.43 3067.13,-5017.19 3065,-5018.91 3062.74,-5020.6 3060.35,-5022.24 3057.83,-5023.84 3055.21,-5025.39 3052.5,-5026.88 3049.7,-5028.31 3046.81,-5029.68 3043.86,-5030.99 3040.85,-5032.22 3037.78,-5033.38 3034.66,-5034.47 3031.51,-5035.47 3028.32,-5036.4 3025.09,-5037.23 3021.85,-5037.99 3018.58,-5038.65 3015.3,-5039.22 3012,-5039.69 3008.69,-5040.08 3005.37,-5040.37 3002.05,-5040.56 2998.73,-5040.66 2995.4,-5040.66 2992.07,-5040.56 2988.75,-5040.37 2985.44,-5040.08 2982.13,-5039.69 2978.83,-5039.22 2975.54,-5038.65 2972.28,-5037.99 2969.03,-5037.23 2965.81,-5036.4 2962.62,-5035.47 2959.46,-5034.47 2956.35,-5033.38 2953.28,-5032.22 2950.27,-5030.99 2947.31,-5029.68 2944.43,-5028.31 2941.63,-5026.88 2938.91,-5025.39 2936.29,-5023.84 2933.78,-5022.24 2931.39,-5020.6 2929.12,-5018.91 2927,-5017.19 2925.02,-5015.43 2923.2,-5013.65 2921.56,-5011.84 2920.1,-5010.02 2918.83,-5008.19 2917.77,-5006.34 2916.92,-5004.5 2916.3,-5002.66 2915.91,-5000.82 2915.75,-4999 2915.85,-4997.19 2916.19,-4995.41 2916.8,-4993.66 2917.66,-4991.93 2918.79,-4990.25 2920.19,-4988.6 2921.85,-4987 2923.78,-4985.46 2925.97,-4983.96 2928.42,-4982.53 2931.13,-4981.16 2934.08,-4979.85 2937.27,-4978.62 2940.69,-4977.46 2944.33,-4976.37 2948.18,-4975.37 2952.22,-4974.44 2956.44,-4973.61 2960.82,-4972.86 2965.34,-4972.2 2970,-4971.62 2974.77,-4971.15 2979.63,-4970.76 2984.56,-4970.47 2989.54,-4970.28 2994.55,-4970.19 2999.57,-4970.19 3004.59,-4970.28"/>
<text text-anchor="start" x="2967.89" y="-5015.22" font-family="Times,serif" font-size="14.00">C0220847</text>
<text text-anchor="start" x="2951.18" y="-5001.22" font-family="Times,serif" font-size="14.00">hepatitis C virus</text>
<text text-anchor="start" x="2981.12" y="-4987.22" font-family="Times,serif" font-size="14.00">79:81</text>
</g>
<!-- id_27882066_DOT_14&#45;&#45;id_27882066_DOT_18 -->
<g id="edge12" class="edge">
<title>id_27882066_DOT_14&#45;&#45;id_27882066_DOT_18</title>
<path fill="none" stroke="black" d="M2993.81,-4970.06C2986.92,-4895.17 2970.91,-4721.29 2964.02,-4646.34"/>
<text text-anchor="middle" x="2952.66" y="-4811" font-family="Times,serif" font-size="14.00">0.000617</text>
</g>
<!-- id_27882066_DOT_15 -->
<g id="node15" class="node">
<title>id_27882066_DOT_15</title>
<polygon fill="crimson" stroke="crimson" points="674.58,-4433.48 680.55,-4433.67 686.46,-4433.96 692.28,-4434.34 697.99,-4434.82 703.57,-4435.39 709,-4436.05 714.25,-4436.8 719.31,-4437.64 724.15,-4438.56 728.76,-4439.57 733.12,-4440.65 737.22,-4441.82 741.05,-4443.05 744.59,-4444.35 747.83,-4445.73 750.76,-4447.16 753.39,-4448.65 755.7,-4450.2 757.7,-4451.8 759.37,-4453.44 760.73,-4455.13 761.76,-4456.85 762.49,-4458.61 762.9,-4460.39 763.01,-4462.19 762.83,-4464.02 762.36,-4465.85 761.61,-4467.69 760.59,-4469.54 759.32,-4471.38 757.8,-4473.22 756.05,-4475.04 754.08,-4476.85 751.91,-4478.63 749.54,-4480.38 746.99,-4482.11 744.27,-4483.79 741.4,-4485.44 738.39,-4487.03 735.26,-4488.58 732,-4490.07 728.64,-4491.51 725.19,-4492.88 721.65,-4494.19 718.04,-4495.42 714.36,-4496.58 710.62,-4497.67 706.84,-4498.67 703.02,-4499.59 699.16,-4500.43 695.27,-4501.18 691.35,-4501.84 687.41,-4502.41 683.46,-4502.89 679.5,-4503.27 675.52,-4503.56 671.54,-4503.76 667.55,-4503.85 663.57,-4503.85 659.58,-4503.76 655.6,-4503.56 651.62,-4503.27 647.66,-4502.89 643.71,-4502.41 639.77,-4501.84 635.85,-4501.18 631.96,-4500.43 628.1,-4499.59 624.28,-4498.67 620.49,-4497.67 616.76,-4496.58 613.08,-4495.42 609.47,-4494.19 605.93,-4492.88 602.48,-4491.51 599.12,-4490.07 595.86,-4488.58 592.73,-4487.03 589.71,-4485.44 586.85,-4483.79 584.13,-4482.11 581.58,-4480.38 579.21,-4478.63 577.04,-4476.85 575.07,-4475.04 573.32,-4473.22 571.8,-4471.38 570.53,-4469.54 569.51,-4467.69 568.76,-4465.85 568.29,-4464.02 568.11,-4462.19 568.22,-4460.39 568.63,-4458.61 569.36,-4456.85 570.39,-4455.13 571.75,-4453.44 573.42,-4451.8 575.42,-4450.2 577.73,-4448.65 580.36,-4447.16 583.29,-4445.73 586.53,-4444.35 590.07,-4443.05 593.9,-4441.82 598,-4440.65 602.36,-4439.57 606.97,-4438.56 611.81,-4437.64 616.87,-4436.8 622.12,-4436.05 627.54,-4435.39 633.13,-4434.82 638.84,-4434.34 644.66,-4433.96 650.57,-4433.67 656.54,-4433.48 662.55,-4433.38 668.57,-4433.38 674.58,-4433.48"/>
<text text-anchor="start" x="636.39" y="-4478.42" font-family="Times,serif" font-size="14.00">C0004793</text>
<text text-anchor="start" x="609" y="-4464.42" font-family="Times,serif" font-size="14.00">nucleotide sequence</text>
<text text-anchor="start" x="649.61" y="-4450.42" font-family="Times,serif" font-size="14.00">82:83</text>
</g>
<!-- id_27882066_DOT_15&#45;&#45;id_27882066_DOT_28 -->
<g id="edge30" class="edge">
<title>id_27882066_DOT_15&#45;&#45;id_27882066_DOT_28</title>
<path fill="none" stroke="black" stroke-dasharray="1,5" d="M698.79,-4434.71C753.92,-4378.47 863.5,-4266.69 917.08,-4212.02"/>
<text text-anchor="middle" x="781.69" y="-4326.17" font-family="Times,serif" font-size="14.00">0.645841</text>
</g>
<!-- id_27882066_DOT_16 -->
<g id="node16" class="node">
<title>id_27882066_DOT_16</title>
<polygon fill="darkgoldenrod" stroke="darkgoldenrod" points="2370.46,-3483.18 2376.75,-3483.37 2382.97,-3483.66 2389.1,-3484.04 2395.12,-3484.52 2400.99,-3485.09 2406.71,-3485.75 2412.24,-3486.5 2417.56,-3487.34 2422.66,-3488.26 2427.52,-3489.27 2432.11,-3490.35 2436.43,-3491.52 2440.45,-3492.75 2444.18,-3494.05 2447.59,-3495.43 2450.69,-3496.86 2453.45,-3498.35 2455.89,-3499.9 2457.99,-3501.5 2459.75,-3503.14 2461.18,-3504.83 2462.27,-3506.55 2463.03,-3508.31 2463.47,-3510.09 2463.58,-3511.89 2463.39,-3513.72 2462.89,-3515.55 2462.11,-3517.39 2461.03,-3519.24 2459.69,-3521.08 2458.1,-3522.92 2456.25,-3524.74 2454.18,-3526.55 2451.89,-3528.33 2449.4,-3530.08 2446.71,-3531.81 2443.85,-3533.49 2440.83,-3535.14 2437.66,-3536.73 2434.36,-3538.28 2430.93,-3539.77 2427.39,-3541.21 2423.75,-3542.58 2420.03,-3543.89 2416.22,-3545.12 2412.35,-3546.28 2408.42,-3547.37 2404.43,-3548.37 2400.41,-3549.29 2396.34,-3550.13 2392.24,-3550.88 2388.12,-3551.54 2383.98,-3552.11 2379.81,-3552.59 2375.64,-3552.97 2371.45,-3553.26 2367.26,-3553.46 2363.06,-3553.55 2358.86,-3553.55 2354.67,-3553.46 2350.47,-3553.26 2346.29,-3552.97 2342.11,-3552.59 2337.95,-3552.11 2333.8,-3551.54 2329.68,-3550.88 2325.58,-3550.13 2321.52,-3549.29 2317.49,-3548.37 2313.51,-3547.37 2309.57,-3546.28 2305.7,-3545.12 2301.9,-3543.89 2298.17,-3542.58 2294.53,-3541.21 2291,-3539.77 2287.57,-3538.28 2284.26,-3536.73 2281.09,-3535.14 2278.07,-3533.49 2275.21,-3531.81 2272.53,-3530.08 2270.03,-3528.33 2267.74,-3526.55 2265.67,-3524.74 2263.83,-3522.92 2262.23,-3521.08 2260.89,-3519.24 2259.82,-3517.39 2259.03,-3515.55 2258.53,-3513.72 2258.34,-3511.89 2258.46,-3510.09 2258.89,-3508.31 2259.65,-3506.55 2260.75,-3504.83 2262.17,-3503.14 2263.94,-3501.5 2266.04,-3499.9 2268.47,-3498.35 2271.24,-3496.86 2274.33,-3495.43 2277.74,-3494.05 2281.47,-3492.75 2285.5,-3491.52 2289.81,-3490.35 2294.41,-3489.27 2299.26,-3488.26 2304.36,-3487.34 2309.69,-3486.5 2315.22,-3485.75 2320.93,-3485.09 2326.81,-3484.52 2332.82,-3484.04 2338.96,-3483.66 2345.18,-3483.37 2351.47,-3483.18 2357.79,-3483.08 2364.13,-3483.08 2370.46,-3483.18"/>
<text text-anchor="start" x="2331.79" y="-3528.12" font-family="Times,serif" font-size="14.00">C2349146</text>
<text text-anchor="start" x="2300.7" y="-3514.12" font-family="Times,serif" font-size="14.00">website Gene Infinity</text>
<text text-anchor="start" x="2345.02" y="-3500.12" font-family="Times,serif" font-size="14.00">93:95</text>
</g>
<!-- id_27882066_DOT_16&#45;&#45;id_27882066_DOT_20 -->
<g id="edge13" class="edge">
<title>id_27882066_DOT_16&#45;&#45;id_27882066_DOT_20</title>
<path fill="none" stroke="black" d="M2323.3,-3549.81C2266.21,-3597.54 2158.32,-3687.75 2100.35,-3736.21"/>
<text text-anchor="middle" x="2185.83" y="-3645.81" font-family="Times,serif" font-size="14.00">0.113857</text>
</g>
<!-- id_27882066_DOT_17&#45;&#45;id_27882066_DOT_25 -->
<g id="edge14" class="edge">
<title>id_27882066_DOT_17&#45;&#45;id_27882066_DOT_25</title>
<path fill="none" stroke="black" d="M1424.21,-2816.1C1443.12,-2896.06 1489.2,-3090.81 1508.12,-3170.8"/>
<text text-anchor="middle" x="1439.92" y="-2996.25" font-family="Times,serif" font-size="14.00">0.024780</text>
</g>
<!-- id_27882066_DOT_21 -->
<g id="node21" class="node">
<title>id_27882066_DOT_21</title>
<polygon fill="blueviolet" stroke="blueviolet" points="2723.8,-4927.14 2728.79,-4927.33 2733.72,-4927.62 2738.58,-4928 2743.34,-4928.48 2748,-4929.05 2752.53,-4929.71 2756.91,-4930.46 2761.13,-4931.3 2765.17,-4932.22 2769.01,-4933.23 2772.65,-4934.31 2776.07,-4935.47 2779.26,-4936.71 2782.22,-4938.01 2784.92,-4939.39 2787.37,-4940.82 2789.56,-4942.31 2791.49,-4943.86 2793.16,-4945.46 2794.55,-4947.1 2795.68,-4948.79 2796.55,-4950.51 2797.15,-4952.27 2797.5,-4954.05 2797.59,-4955.85 2797.44,-4957.68 2797.04,-4959.51 2796.42,-4961.35 2795.57,-4963.2 2794.51,-4965.04 2793.24,-4966.88 2791.78,-4968.7 2790.14,-4970.51 2788.33,-4972.29 2786.35,-4974.04 2784.22,-4975.77 2781.96,-4977.45 2779.56,-4979.1 2777.05,-4980.69 2774.43,-4982.24 2771.72,-4983.73 2768.91,-4985.17 2766.03,-4986.54 2763.08,-4987.84 2760.06,-4989.08 2757,-4990.24 2753.88,-4991.33 2750.73,-4992.33 2747.53,-4993.25 2744.31,-4994.09 2741.07,-4994.84 2737.8,-4995.5 2734.51,-4996.07 2731.22,-4996.55 2727.91,-4996.93 2724.59,-4997.22 2721.27,-4997.42 2717.94,-4997.51 2714.62,-4997.51 2711.29,-4997.42 2707.97,-4997.22 2704.65,-4996.93 2701.34,-4996.55 2698.05,-4996.07 2694.76,-4995.5 2691.5,-4994.84 2688.25,-4994.09 2685.03,-4993.25 2681.84,-4992.33 2678.68,-4991.33 2675.56,-4990.24 2672.5,-4989.08 2669.48,-4987.84 2666.53,-4986.54 2663.65,-4985.17 2660.85,-4983.73 2658.13,-4982.24 2655.51,-4980.69 2653,-4979.1 2650.6,-4977.45 2648.34,-4975.77 2646.21,-4974.04 2644.24,-4972.29 2642.42,-4970.51 2640.78,-4968.7 2639.32,-4966.88 2638.05,-4965.04 2636.99,-4963.2 2636.14,-4961.35 2635.52,-4959.51 2635.12,-4957.68 2634.97,-4955.85 2635.06,-4954.05 2635.41,-4952.27 2636.01,-4950.51 2636.88,-4948.79 2638.01,-4947.1 2639.41,-4945.46 2641.07,-4943.86 2643,-4942.31 2645.19,-4940.82 2647.64,-4939.39 2650.35,-4938.01 2653.3,-4936.71 2656.49,-4935.47 2659.91,-4934.31 2663.55,-4933.23 2667.4,-4932.22 2671.43,-4931.3 2675.65,-4930.46 2680.03,-4929.71 2684.56,-4929.05 2689.22,-4928.48 2693.99,-4928 2698.84,-4927.62 2703.77,-4927.33 2708.76,-4927.14 2713.77,-4927.04 2718.79,-4927.04 2723.8,-4927.14"/>
<text text-anchor="start" x="2687.11" y="-4972.08" font-family="Times,serif" font-size="14.00">C0220847</text>
<text text-anchor="start" x="2670.39" y="-4958.08" font-family="Times,serif" font-size="14.00">hepatitis C virus</text>
<text text-anchor="start" x="2693.34" y="-4944.08" font-family="Times,serif" font-size="14.00">121:123</text>
</g>
<!-- id_27882066_DOT_18&#45;&#45;id_27882066_DOT_21 -->
<g id="edge15" class="edge">
<title>id_27882066_DOT_18&#45;&#45;id_27882066_DOT_21</title>
<path fill="none" stroke="black" d="M2937.76,-4643.98C2891.4,-4710.6 2787.16,-4860.41 2740.12,-4928.02"/>
<text text-anchor="middle" x="2812.69" y="-4788.8" font-family="Times,serif" font-size="14.00">0.001830</text>
</g>
<!-- id_27882066_DOT_27 -->
<g id="node27" class="node">
<title>id_27882066_DOT_27</title>
<polygon fill="darkkhaki" stroke="darkkhaki" points="2697.36,-4261.25 2702.82,-4261.44 2708.23,-4261.73 2713.56,-4262.12 2718.79,-4262.59 2723.89,-4263.16 2728.86,-4263.83 2733.66,-4264.58 2738.29,-4265.41 2742.72,-4266.34 2746.94,-4267.34 2750.93,-4268.43 2754.68,-4269.59 2758.18,-4270.82 2761.42,-4272.13 2764.38,-4273.5 2767.07,-4274.93 2769.48,-4276.43 2771.59,-4277.97 2773.41,-4279.57 2774.95,-4281.22 2776.19,-4282.9 2777.14,-4284.62 2777.8,-4286.38 2778.18,-4288.16 2778.28,-4289.97 2778.11,-4291.79 2777.68,-4293.62 2776.99,-4295.47 2776.06,-4297.31 2774.9,-4299.16 2773.51,-4300.99 2771.91,-4302.81 2770.11,-4304.62 2768.12,-4306.4 2765.95,-4308.16 2763.62,-4309.88 2761.13,-4311.56 2758.51,-4313.21 2755.75,-4314.81 2752.88,-4316.35 2749.9,-4317.85 2746.83,-4319.28 2743.67,-4320.65 2740.43,-4321.96 2737.13,-4323.19 2733.76,-4324.35 2730.34,-4325.44 2726.88,-4326.44 2723.38,-4327.37 2719.85,-4328.2 2716.29,-4328.95 2712.71,-4329.62 2709.11,-4330.19 2705.49,-4330.66 2701.86,-4331.05 2698.22,-4331.34 2694.58,-4331.53 2690.93,-4331.63 2687.29,-4331.63 2683.64,-4331.53 2680,-4331.34 2676.36,-4331.05 2672.73,-4330.66 2669.11,-4330.19 2665.51,-4329.62 2661.93,-4328.95 2658.37,-4328.2 2654.84,-4327.37 2651.34,-4326.44 2647.87,-4325.44 2644.46,-4324.35 2641.09,-4323.19 2637.79,-4321.96 2634.55,-4320.65 2631.39,-4319.28 2628.32,-4317.85 2625.34,-4316.35 2622.47,-4314.81 2619.71,-4313.21 2617.09,-4311.56 2614.6,-4309.88 2612.27,-4308.16 2610.1,-4306.4 2608.11,-4304.62 2606.31,-4302.81 2604.71,-4300.99 2603.32,-4299.16 2602.15,-4297.31 2601.22,-4295.47 2600.54,-4293.62 2600.11,-4291.79 2599.94,-4289.97 2600.04,-4288.16 2600.42,-4286.38 2601.08,-4284.62 2602.03,-4282.9 2603.27,-4281.22 2604.8,-4279.57 2606.63,-4277.97 2608.74,-4276.43 2611.15,-4274.93 2613.83,-4273.5 2616.8,-4272.13 2620.04,-4270.82 2623.54,-4269.59 2627.29,-4268.43 2631.28,-4267.34 2635.5,-4266.34 2639.93,-4265.41 2644.55,-4264.58 2649.36,-4263.83 2654.33,-4263.16 2659.43,-4262.59 2664.66,-4262.12 2669.99,-4261.73 2675.39,-4261.44 2680.86,-4261.25 2686.36,-4261.15 2691.86,-4261.15 2697.36,-4261.25"/>
<text text-anchor="start" x="2659.94" y="-4306.19" font-family="Times,serif" font-size="14.00">C0028630</text>
<text text-anchor="start" x="2637.79" y="-4292.19" font-family="Times,serif" font-size="14.00">guanine &#45; cytosine</text>
<text text-anchor="start" x="2666.16" y="-4278.19" font-family="Times,serif" font-size="14.00">215:217</text>
</g>
<!-- id_27882066_DOT_18&#45;&#45;id_27882066_DOT_27 -->
<g id="edge31" class="edge">
<title>id_27882066_DOT_18&#45;&#45;id_27882066_DOT_27</title>
<path fill="none" stroke="black" stroke-dasharray="1,5" d="M2931.69,-4577.26C2879.13,-4516.41 2768.96,-4388.84 2717.16,-4328.87"/>
<text text-anchor="middle" x="2798.17" y="-4455.87" font-family="Times,serif" font-size="14.00">0.767402</text>
</g>
<!-- id_27882066_DOT_30 -->
<g id="node30" class="node">
<title>id_27882066_DOT_30</title>
<polygon fill="darkorange" stroke="darkorange" points="2370.39,-4020.21 2373.82,-4020.4 2377.21,-4020.69 2380.55,-4021.08 2383.84,-4021.55 2387.04,-4022.12 2390.16,-4022.79 2393.17,-4023.54 2396.07,-4024.37 2398.85,-4025.3 2401.5,-4026.3 2404.01,-4027.39 2406.36,-4028.55 2408.56,-4029.78 2410.59,-4031.09 2412.45,-4032.46 2414.14,-4033.89 2415.64,-4035.39 2416.97,-4036.93 2418.12,-4038.53 2419.08,-4040.18 2419.86,-4041.86 2420.45,-4043.58 2420.87,-4045.34 2421.1,-4047.12 2421.17,-4048.93 2421.06,-4050.75 2420.79,-4052.58 2420.36,-4054.43 2419.78,-4056.27 2419.05,-4058.12 2418.18,-4059.95 2417.17,-4061.77 2416.04,-4063.58 2414.79,-4065.36 2413.43,-4067.12 2411.97,-4068.84 2410.41,-4070.52 2408.76,-4072.17 2407.03,-4073.77 2405.23,-4075.31 2403.36,-4076.81 2401.43,-4078.24 2399.45,-4079.61 2397.42,-4080.92 2395.34,-4082.15 2393.23,-4083.31 2391.09,-4084.4 2388.92,-4085.4 2386.72,-4086.33 2384.5,-4087.16 2382.27,-4087.91 2380.02,-4088.58 2377.76,-4089.15 2375.49,-4089.62 2373.21,-4090.01 2370.93,-4090.3 2368.65,-4090.49 2366.36,-4090.59 2364.07,-4090.59 2361.78,-4090.49 2359.49,-4090.3 2357.21,-4090.01 2354.93,-4089.62 2352.66,-4089.15 2350.4,-4088.58 2348.16,-4087.91 2345.92,-4087.16 2343.7,-4086.33 2341.51,-4085.4 2339.34,-4084.4 2337.19,-4083.31 2335.08,-4082.15 2333.01,-4080.92 2330.98,-4079.61 2328.99,-4078.24 2327.06,-4076.81 2325.19,-4075.31 2323.39,-4073.77 2321.66,-4072.17 2320.02,-4070.52 2318.46,-4068.84 2316.99,-4067.12 2315.63,-4065.36 2314.38,-4063.58 2313.25,-4061.77 2312.25,-4059.95 2311.38,-4058.12 2310.65,-4056.27 2310.06,-4054.43 2309.63,-4052.58 2309.36,-4050.75 2309.26,-4048.93 2309.32,-4047.12 2309.56,-4045.34 2309.97,-4043.58 2310.57,-4041.86 2311.35,-4040.18 2312.31,-4038.53 2313.45,-4036.93 2314.78,-4035.39 2316.29,-4033.89 2317.98,-4032.46 2319.84,-4031.09 2321.87,-4029.78 2324.06,-4028.55 2326.42,-4027.39 2328.92,-4026.3 2331.57,-4025.3 2334.35,-4024.37 2337.25,-4023.54 2340.27,-4022.79 2343.38,-4022.12 2346.59,-4021.55 2349.87,-4021.08 2353.21,-4020.69 2356.61,-4020.4 2360.03,-4020.21 2363.48,-4020.11 2366.94,-4020.11 2370.39,-4020.21"/>
<text text-anchor="start" x="2336.04" y="-4065.15" font-family="Times,serif" font-size="14.00">C0033684</text>
<text text-anchor="start" x="2342.66" y="-4051.15" font-family="Times,serif" font-size="14.00">proteins</text>
<text text-anchor="start" x="2342.27" y="-4037.15" font-family="Times,serif" font-size="14.00">244:244</text>
</g>
<!-- id_27882066_DOT_20&#45;&#45;id_27882066_DOT_30 -->
<g id="edge32" class="edge">
<title>id_27882066_DOT_20&#45;&#45;id_27882066_DOT_30</title>
<path fill="none" stroke="black" stroke-dasharray="1,5" d="M2094.58,-3800.43C2153.36,-3855.79 2274.52,-3969.92 2332.67,-4024.7"/>
<text text-anchor="middle" x="2187.38" y="-3915.36" font-family="Times,serif" font-size="14.00">0.812997</text>
</g>
<!-- id_27882066_DOT_23 -->
<g id="node23" class="node">
<title>id_27882066_DOT_23</title>
<polygon fill="blue" stroke="blue" points="1882.44,-1354.39 1885.87,-1354.58 1889.26,-1354.87 1892.61,-1355.25 1895.89,-1355.73 1899.09,-1356.3 1902.21,-1356.96 1905.22,-1357.71 1908.13,-1358.55 1910.91,-1359.47 1913.55,-1360.48 1916.06,-1361.56 1918.41,-1362.73 1920.61,-1363.96 1922.64,-1365.26 1924.5,-1366.64 1926.19,-1368.07 1927.7,-1369.56 1929.02,-1371.11 1930.17,-1372.71 1931.13,-1374.35 1931.91,-1376.04 1932.5,-1377.76 1932.92,-1379.52 1933.16,-1381.3 1933.22,-1383.1 1933.11,-1384.93 1932.84,-1386.76 1932.41,-1388.6 1931.83,-1390.45 1931.1,-1392.29 1930.23,-1394.13 1929.22,-1395.95 1928.09,-1397.76 1926.84,-1399.54 1925.48,-1401.29 1924.02,-1403.02 1922.46,-1404.7 1920.81,-1406.35 1919.09,-1407.94 1917.28,-1409.49 1915.41,-1410.98 1913.48,-1412.42 1911.5,-1413.79 1909.47,-1415.1 1907.4,-1416.33 1905.28,-1417.49 1903.14,-1418.58 1900.97,-1419.58 1898.77,-1420.5 1896.56,-1421.34 1894.32,-1422.09 1892.07,-1422.75 1889.81,-1423.32 1887.54,-1423.8 1885.27,-1424.18 1882.98,-1424.47 1880.7,-1424.67 1878.41,-1424.76 1876.12,-1424.76 1873.83,-1424.67 1871.54,-1424.47 1869.26,-1424.18 1866.99,-1423.8 1864.72,-1423.32 1862.46,-1422.75 1860.21,-1422.09 1857.97,-1421.34 1855.76,-1420.5 1853.56,-1419.58 1851.39,-1418.58 1849.24,-1417.49 1847.13,-1416.33 1845.06,-1415.1 1843.03,-1413.79 1841.04,-1412.42 1839.11,-1410.98 1837.25,-1409.49 1835.44,-1407.94 1833.71,-1406.35 1832.07,-1404.7 1830.51,-1403.02 1829.04,-1401.29 1827.68,-1399.54 1826.44,-1397.76 1825.3,-1395.95 1824.3,-1394.13 1823.43,-1392.29 1822.7,-1390.45 1822.11,-1388.6 1821.68,-1386.76 1821.41,-1384.93 1821.31,-1383.1 1821.37,-1381.3 1821.61,-1379.52 1822.03,-1377.76 1822.62,-1376.04 1823.4,-1374.35 1824.36,-1372.71 1825.5,-1371.11 1826.83,-1369.56 1828.34,-1368.07 1830.03,-1366.64 1831.89,-1365.26 1833.92,-1363.96 1836.12,-1362.73 1838.47,-1361.56 1840.97,-1360.48 1843.62,-1359.47 1846.4,-1358.55 1849.3,-1357.71 1852.32,-1356.96 1855.44,-1356.3 1858.64,-1355.73 1861.92,-1355.25 1865.26,-1354.87 1868.66,-1354.58 1872.09,-1354.39 1875.54,-1354.29 1878.99,-1354.29 1882.44,-1354.39"/>
<text text-anchor="start" x="1848.1" y="-1399.33" font-family="Times,serif" font-size="14.00">C0009221</text>
<text text-anchor="start" x="1860.16" y="-1385.33" font-family="Times,serif" font-size="14.00">codon</text>
<text text-anchor="start" x="1854.32" y="-1371.33" font-family="Times,serif" font-size="14.00">174:174</text>
</g>
<!-- id_27882066_DOT_22&#45;&#45;id_27882066_DOT_23 -->
<g id="edge16" class="edge">
<title>id_27882066_DOT_22&#45;&#45;id_27882066_DOT_23</title>
<path fill="none" stroke="black" d="M2067.36,-1089.92C2027.58,-1152.61 1939.33,-1291.7 1898.61,-1355.88"/>
<text text-anchor="middle" x="1956.74" y="-1225.7" font-family="Times,serif" font-size="14.00">0.012294</text>
</g>
<!-- id_27882066_DOT_24 -->
<g id="node24" class="node">
<title>id_27882066_DOT_24</title>
<polygon fill="blue" stroke="blue" points="1629.47,-1670.68 1632.9,-1670.87 1636.29,-1671.16 1639.64,-1671.55 1642.92,-1672.02 1646.12,-1672.59 1649.24,-1673.26 1652.25,-1674.01 1655.16,-1674.84 1657.94,-1675.77 1660.58,-1676.77 1663.09,-1677.86 1665.44,-1679.02 1667.64,-1680.25 1669.67,-1681.56 1671.53,-1682.93 1673.22,-1684.36 1674.73,-1685.86 1676.05,-1687.4 1677.2,-1689 1678.16,-1690.65 1678.94,-1692.33 1679.53,-1694.05 1679.95,-1695.81 1680.19,-1697.59 1680.25,-1699.4 1680.15,-1701.22 1679.87,-1703.05 1679.44,-1704.9 1678.86,-1706.74 1678.13,-1708.59 1677.26,-1710.42 1676.25,-1712.24 1675.12,-1714.05 1673.87,-1715.83 1672.51,-1717.59 1671.05,-1719.31 1669.49,-1720.99 1667.84,-1722.64 1666.12,-1724.24 1664.31,-1725.78 1662.44,-1727.28 1660.51,-1728.71 1658.53,-1730.08 1656.5,-1731.39 1654.43,-1732.62 1652.31,-1733.78 1650.17,-1734.87 1648,-1735.87 1645.8,-1736.8 1643.59,-1737.63 1641.35,-1738.38 1639.1,-1739.05 1636.84,-1739.62 1634.57,-1740.09 1632.3,-1740.48 1630.01,-1740.77 1627.73,-1740.96 1625.44,-1741.06 1623.15,-1741.06 1620.86,-1740.96 1618.57,-1740.77 1616.29,-1740.48 1614.02,-1740.09 1611.75,-1739.62 1609.49,-1739.05 1607.24,-1738.38 1605,-1737.63 1602.79,-1736.8 1600.59,-1735.87 1598.42,-1734.87 1596.27,-1733.78 1594.16,-1732.62 1592.09,-1731.39 1590.06,-1730.08 1588.07,-1728.71 1586.14,-1727.28 1584.28,-1725.78 1582.47,-1724.24 1580.74,-1722.64 1579.1,-1720.99 1577.54,-1719.31 1576.07,-1717.59 1574.71,-1715.83 1573.47,-1714.05 1572.34,-1712.24 1571.33,-1710.42 1570.46,-1708.59 1569.73,-1706.74 1569.14,-1704.9 1568.71,-1703.05 1568.44,-1701.22 1568.34,-1699.4 1568.4,-1697.59 1568.64,-1695.81 1569.06,-1694.05 1569.65,-1692.33 1570.43,-1690.65 1571.39,-1689 1572.54,-1687.4 1573.86,-1685.86 1575.37,-1684.36 1577.06,-1682.93 1578.92,-1681.56 1580.95,-1680.25 1583.15,-1679.02 1585.5,-1677.86 1588.01,-1676.77 1590.65,-1675.77 1593.43,-1674.84 1596.34,-1674.01 1599.35,-1673.26 1602.47,-1672.59 1605.67,-1672.02 1608.95,-1671.55 1612.3,-1671.16 1615.69,-1670.87 1619.12,-1670.68 1622.57,-1670.58 1626.02,-1670.58 1629.47,-1670.68"/>
<text text-anchor="start" x="1595.13" y="-1715.62" font-family="Times,serif" font-size="14.00">C0009221</text>
<text text-anchor="start" x="1607.19" y="-1701.62" font-family="Times,serif" font-size="14.00">codon</text>
<text text-anchor="start" x="1601.35" y="-1687.62" font-family="Times,serif" font-size="14.00">187:187</text>
</g>
<!-- id_27882066_DOT_23&#45;&#45;id_27882066_DOT_24 -->
<g id="edge17" class="edge">
<title>id_27882066_DOT_23&#45;&#45;id_27882066_DOT_24</title>
<path fill="none" stroke="black" d="M1853.24,-1419.57C1805.63,-1479.09 1699.68,-1611.56 1650.42,-1673.16"/>
<text text-anchor="middle" x="1725.58" y="-1549.16" font-family="Times,serif" font-size="14.00">0.003837</text>
</g>
<!-- id_27882066_DOT_24&#45;&#45;id_27882066_DOT_35 -->
<g id="edge18" class="edge">
<title>id_27882066_DOT_24&#45;&#45;id_27882066_DOT_35</title>
<path fill="none" stroke="black" d="M1591.89,-1731.39C1529.88,-1780.34 1394.79,-1886.96 1329.48,-1938.5"/>
<text text-anchor="middle" x="1434.44" y="-1837.75" font-family="Times,serif" font-size="14.00">0.013349</text>
</g>
<!-- id_27882066_DOT_27&#45;&#45;id_27882066_DOT_30 -->
<g id="edge33" class="edge">
<title>id_27882066_DOT_27&#45;&#45;id_27882066_DOT_30</title>
<path fill="none" stroke="black" stroke-dasharray="1,5" d="M2645.76,-4264.13C2580.43,-4215.51 2458.09,-4124.47 2398.94,-4080.45"/>
<text text-anchor="middle" x="2496.1" y="-4175.09" font-family="Times,serif" font-size="14.00">0.872219</text>
</g>
<!-- id_27882066_DOT_29 -->
<g id="node29" class="node">
<title>id_27882066_DOT_29</title>
<polygon fill="blue" stroke="blue" points="682.77,-1340.31 686.19,-1340.5 689.59,-1340.79 692.93,-1341.17 696.21,-1341.65 699.42,-1342.22 702.53,-1342.88 705.55,-1343.63 708.45,-1344.47 711.23,-1345.39 713.88,-1346.4 716.38,-1347.48 718.74,-1348.64 720.93,-1349.88 722.96,-1351.18 724.82,-1352.56 726.51,-1353.99 728.02,-1355.48 729.35,-1357.03 730.49,-1358.63 731.45,-1360.27 732.23,-1361.96 732.83,-1363.68 733.24,-1365.44 733.48,-1367.22 733.54,-1369.02 733.44,-1370.85 733.17,-1372.68 732.74,-1374.52 732.15,-1376.37 731.42,-1378.21 730.55,-1380.05 729.55,-1381.87 728.42,-1383.68 727.17,-1385.46 725.81,-1387.21 724.34,-1388.94 722.78,-1390.62 721.14,-1392.27 719.41,-1393.86 717.61,-1395.41 715.74,-1396.9 713.81,-1398.34 711.82,-1399.71 709.79,-1401.01 707.72,-1402.25 705.61,-1403.41 703.46,-1404.5 701.29,-1405.5 699.1,-1406.42 696.88,-1407.26 694.64,-1408.01 692.4,-1408.67 690.14,-1409.24 687.87,-1409.72 685.59,-1410.1 683.31,-1410.39 681.02,-1410.59 678.73,-1410.68 676.44,-1410.68 674.15,-1410.59 671.87,-1410.39 669.59,-1410.1 667.31,-1409.72 665.04,-1409.24 662.78,-1408.67 660.53,-1408.01 658.3,-1407.26 656.08,-1406.42 653.88,-1405.5 651.71,-1404.5 649.57,-1403.41 647.46,-1402.25 645.38,-1401.01 643.35,-1399.71 641.37,-1398.34 639.44,-1396.9 637.57,-1395.41 635.77,-1393.86 634.04,-1392.27 632.39,-1390.62 630.83,-1388.94 629.37,-1387.21 628.01,-1385.46 626.76,-1383.68 625.63,-1381.87 624.62,-1380.05 623.75,-1378.21 623.02,-1376.37 622.44,-1374.52 622.01,-1372.68 621.74,-1370.85 621.63,-1369.02 621.7,-1367.22 621.93,-1365.44 622.35,-1363.68 622.94,-1361.96 623.72,-1360.27 624.68,-1358.63 625.83,-1357.03 627.16,-1355.48 628.66,-1353.99 630.35,-1352.56 632.21,-1351.18 634.24,-1349.88 636.44,-1348.64 638.79,-1347.48 641.3,-1346.4 643.95,-1345.39 646.73,-1344.47 649.63,-1343.63 652.64,-1342.88 655.76,-1342.22 658.96,-1341.65 662.25,-1341.17 665.59,-1340.79 668.98,-1340.5 672.41,-1340.31 675.86,-1340.21 679.32,-1340.21 682.77,-1340.31"/>
<text text-anchor="start" x="648.42" y="-1385.25" font-family="Times,serif" font-size="14.00">C0009221</text>
<text text-anchor="start" x="657.76" y="-1371.25" font-family="Times,serif" font-size="14.00">codons</text>
<text text-anchor="start" x="654.64" y="-1357.25" font-family="Times,serif" font-size="14.00">223:223</text>
</g>
<!-- id_27882066_DOT_31 -->
<g id="node31" class="node">
<title>id_27882066_DOT_31</title>
<polygon fill="blue" stroke="blue" points="992.78,-1617.67 996.21,-1617.86 999.6,-1618.15 1002.94,-1618.53 1006.22,-1619.01 1009.43,-1619.58 1012.54,-1620.24 1015.56,-1620.99 1018.46,-1621.83 1021.24,-1622.75 1023.89,-1623.76 1026.39,-1624.84 1028.75,-1626 1030.94,-1627.24 1032.98,-1628.54 1034.84,-1629.92 1036.52,-1631.35 1038.03,-1632.84 1039.36,-1634.39 1040.5,-1635.99 1041.46,-1637.63 1042.24,-1639.32 1042.84,-1641.04 1043.25,-1642.8 1043.49,-1644.58 1043.56,-1646.38 1043.45,-1648.21 1043.18,-1650.04 1042.75,-1651.88 1042.17,-1653.73 1041.43,-1655.57 1040.56,-1657.41 1039.56,-1659.23 1038.43,-1661.04 1037.18,-1662.82 1035.82,-1664.57 1034.36,-1666.3 1032.8,-1667.98 1031.15,-1669.63 1029.42,-1671.22 1027.62,-1672.77 1025.75,-1674.26 1023.82,-1675.7 1021.84,-1677.07 1019.8,-1678.37 1017.73,-1679.61 1015.62,-1680.77 1013.48,-1681.86 1011.3,-1682.86 1009.11,-1683.78 1006.89,-1684.62 1004.66,-1685.37 1002.41,-1686.03 1000.15,-1686.6 997.88,-1687.08 995.6,-1687.46 993.32,-1687.75 991.03,-1687.95 988.74,-1688.04 986.45,-1688.04 984.17,-1687.95 981.88,-1687.75 979.6,-1687.46 977.32,-1687.08 975.05,-1686.6 972.79,-1686.03 970.54,-1685.37 968.31,-1684.62 966.09,-1683.78 963.9,-1682.86 961.72,-1681.86 959.58,-1680.77 957.47,-1679.61 955.39,-1678.37 953.36,-1677.07 951.38,-1675.7 949.45,-1674.26 947.58,-1672.77 945.78,-1671.22 944.05,-1669.63 942.4,-1667.98 940.84,-1666.3 939.38,-1664.57 938.02,-1662.82 936.77,-1661.04 935.64,-1659.23 934.64,-1657.41 933.76,-1655.57 933.03,-1653.73 932.45,-1651.88 932.02,-1650.04 931.75,-1648.21 931.64,-1646.38 931.71,-1644.58 931.95,-1642.8 932.36,-1641.04 932.96,-1639.32 933.73,-1637.63 934.7,-1635.99 935.84,-1634.39 937.17,-1632.84 938.68,-1631.35 940.36,-1629.92 942.22,-1628.54 944.26,-1627.24 946.45,-1626 948.81,-1624.84 951.31,-1623.76 953.96,-1622.75 956.74,-1621.83 959.64,-1620.99 962.66,-1620.24 965.77,-1619.58 968.98,-1619.01 972.26,-1618.53 975.6,-1618.15 978.99,-1617.86 982.42,-1617.67 985.87,-1617.57 989.33,-1617.57 992.78,-1617.67"/>
<text text-anchor="start" x="958.43" y="-1662.61" font-family="Times,serif" font-size="14.00">C0009221</text>
<text text-anchor="start" x="967.77" y="-1648.61" font-family="Times,serif" font-size="14.00">codons</text>
<text text-anchor="start" x="964.65" y="-1634.61" font-family="Times,serif" font-size="14.00">254:254</text>
</g>
<!-- id_27882066_DOT_29&#45;&#45;id_27882066_DOT_31 -->
<g id="edge19" class="edge">
<title>id_27882066_DOT_29&#45;&#45;id_27882066_DOT_31</title>
<path fill="none" stroke="black" d="M707.88,-1402.55C766.08,-1454.62 893.14,-1568.3 953.91,-1622.67"/>
<text text-anchor="middle" x="804.65" y="-1515.41" font-family="Times,serif" font-size="14.00">0.005445</text>
</g>
<!-- id_27882066_DOT_29&#45;&#45;id_27882066_DOT_34 -->
<g id="edge34" class="edge">
<title>id_27882066_DOT_29&#45;&#45;id_27882066_DOT_34</title>
<path fill="none" stroke="black" stroke-dasharray="1,5" d="M639.95,-1346.72C577.79,-1299.29 454.75,-1205.39 395.85,-1160.45"/>
<text text-anchor="middle" x="491.65" y="-1256.38" font-family="Times,serif" font-size="14.00">0.779208</text>
</g>
<!-- id_27882066_DOT_31&#45;&#45;id_27882066_DOT_35 -->
<g id="edge20" class="edge">
<title>id_27882066_DOT_31&#45;&#45;id_27882066_DOT_35</title>
<path fill="none" stroke="black" d="M1015.21,-1681.29C1072.27,-1740.16 1202.79,-1874.82 1262.21,-1936.12"/>
<text text-anchor="middle" x="1112.46" y="-1811.51" font-family="Times,serif" font-size="14.00">0.004777</text>
</g>
</g>
</svg>
