<?xml version="1.0" encoding="UTF-8" standalone="no"?>
<!DOCTYPE svg PUBLIC "-//W3C//DTD SVG 1.1//EN"
 "http://www.w3.org/Graphics/SVG/1.1/DTD/svg11.dtd">
<!-- Generated by graphviz version 2.42.3 (20191010.1750)
 -->
<!-- Title: MST Pages: 1 -->
<svg width="2626pt" height="2211pt"
 viewBox="0.00 0.00 2626.16 2210.71" xmlns="http://www.w3.org/2000/svg" xmlns:xlink="http://www.w3.org/1999/xlink">
<g id="graph0" class="graph" transform="scale(1 1) rotate(0) translate(4 2206.71)">
<title>MST</title>
<polygon fill="white" stroke="transparent" points="-4,4 -4,-2206.71 2622.16,-2206.71 2622.16,4 -4,4"/>
<!-- id_27892236_DOT_1 -->
<g id="node1" class="node">
<title>id_27892236_DOT_1</title>
<polygon fill="aquamarine" stroke="aquamarine" points="156.12,-2132.21 164.86,-2132.4 173.52,-2132.69 182.06,-2133.07 190.43,-2133.55 198.61,-2134.12 206.56,-2134.78 214.25,-2135.53 221.66,-2136.37 228.76,-2137.29 235.51,-2138.3 241.9,-2139.38 247.91,-2140.54 253.52,-2141.78 258.7,-2143.08 263.45,-2144.45 267.76,-2145.89 271.6,-2147.38 274.99,-2148.93 277.91,-2150.53 280.37,-2152.17 282.35,-2153.86 283.87,-2155.58 284.93,-2157.33 285.54,-2159.12 285.7,-2160.92 285.43,-2162.74 284.74,-2164.58 283.64,-2166.42 282.15,-2168.27 280.29,-2170.11 278.07,-2171.95 275.5,-2173.77 272.62,-2175.57 269.43,-2177.36 265.96,-2179.11 262.22,-2180.83 258.24,-2182.52 254.04,-2184.16 249.63,-2185.76 245.03,-2187.31 240.26,-2188.8 235.34,-2190.24 230.27,-2191.61 225.09,-2192.91 219.8,-2194.15 214.41,-2195.31 208.94,-2196.39 203.39,-2197.4 197.79,-2198.32 192.13,-2199.16 186.43,-2199.91 180.69,-2200.57 174.92,-2201.14 169.13,-2201.62 163.32,-2202 157.5,-2202.29 151.66,-2202.48 145.82,-2202.58 139.98,-2202.58 134.14,-2202.48 128.3,-2202.29 122.48,-2202 116.67,-2201.62 110.88,-2201.14 105.11,-2200.57 99.37,-2199.91 93.67,-2199.16 88.01,-2198.32 82.41,-2197.4 76.86,-2196.39 71.39,-2195.31 66.01,-2194.15 60.71,-2192.91 55.53,-2191.61 50.47,-2190.24 45.54,-2188.8 40.77,-2187.31 36.17,-2185.76 31.76,-2184.16 27.56,-2182.52 23.58,-2180.83 19.84,-2179.11 16.37,-2177.36 13.19,-2175.57 10.3,-2173.77 7.74,-2171.95 5.51,-2170.11 3.65,-2168.27 2.16,-2166.42 1.06,-2164.58 0.37,-2162.74 0.1,-2160.92 0.26,-2159.12 0.87,-2157.33 1.93,-2155.58 3.45,-2153.86 5.44,-2152.17 7.89,-2150.53 10.81,-2148.93 14.2,-2147.38 18.05,-2145.89 22.35,-2144.45 27.1,-2143.08 32.29,-2141.78 37.89,-2140.54 43.9,-2139.38 50.29,-2138.3 57.05,-2137.29 64.14,-2136.37 71.55,-2135.53 79.24,-2134.78 87.2,-2134.12 95.37,-2133.55 103.75,-2133.07 112.28,-2132.69 120.94,-2132.4 129.69,-2132.21 138.49,-2132.11 147.31,-2132.11 156.12,-2132.21"/>
<text text-anchor="start" x="113.73" y="-2177.14" font-family="Times,serif" font-size="14.00">C2985290</text>
<text text-anchor="start" x="56.02" y="-2163.14" font-family="Times,serif" font-size="14.00">fetal alcohol spectrum disorder</text>
<text text-anchor="start" x="133.96" y="-2149.14" font-family="Times,serif" font-size="14.00">6:9</text>
</g>
<!-- id_27892236_DOT_9 -->
<g id="node9" class="node">
<title>id_27892236_DOT_9</title>
<polygon fill="aquamarine" stroke="aquamarine" points="445.22,-1911.23 454.36,-1911.43 463.41,-1911.71 472.32,-1912.1 481.07,-1912.58 489.62,-1913.15 497.93,-1913.81 505.97,-1914.56 513.71,-1915.4 521.12,-1916.32 528.18,-1917.32 534.86,-1918.41 541.13,-1919.57 546.99,-1920.8 552.41,-1922.11 557.37,-1923.48 561.87,-1924.91 565.89,-1926.41 569.43,-1927.95 572.48,-1929.55 575.05,-1931.2 577.12,-1932.88 578.71,-1934.61 579.82,-1936.36 580.45,-1938.14 580.62,-1939.95 580.34,-1941.77 579.62,-1943.61 578.47,-1945.45 576.91,-1947.29 574.97,-1949.14 572.64,-1950.97 569.96,-1952.79 566.95,-1954.6 563.62,-1956.38 559.99,-1958.14 556.09,-1959.86 551.93,-1961.55 547.54,-1963.19 542.93,-1964.79 538.12,-1966.34 533.14,-1967.83 527.99,-1969.26 522.71,-1970.63 517.29,-1971.94 511.76,-1973.17 506.13,-1974.34 500.41,-1975.42 494.62,-1976.42 488.76,-1977.35 482.85,-1978.19 476.89,-1978.94 470.9,-1979.6 464.87,-1980.17 458.82,-1980.64 452.75,-1981.03 446.66,-1981.32 440.56,-1981.51 434.46,-1981.61 428.36,-1981.61 422.26,-1981.51 416.16,-1981.32 410.07,-1981.03 404,-1980.64 397.95,-1980.17 391.92,-1979.6 385.93,-1978.94 379.97,-1978.19 374.06,-1977.35 368.2,-1976.42 362.41,-1975.42 356.69,-1974.34 351.06,-1973.17 345.53,-1971.94 340.11,-1970.63 334.83,-1969.26 329.68,-1967.83 324.7,-1966.34 319.89,-1964.79 315.28,-1963.19 310.89,-1961.55 306.73,-1959.86 302.83,-1958.14 299.2,-1956.38 295.87,-1954.6 292.86,-1952.79 290.18,-1950.97 287.85,-1949.14 285.91,-1947.29 284.35,-1945.45 283.2,-1943.61 282.48,-1941.77 282.2,-1939.95 282.37,-1938.14 283,-1936.36 284.11,-1934.61 285.7,-1932.88 287.77,-1931.2 290.34,-1929.55 293.39,-1927.95 296.93,-1926.41 300.95,-1924.91 305.45,-1923.48 310.41,-1922.11 315.83,-1920.8 321.69,-1919.57 327.96,-1918.41 334.64,-1917.32 341.7,-1916.32 349.11,-1915.4 356.85,-1914.56 364.89,-1913.81 373.2,-1913.15 381.75,-1912.58 390.5,-1912.1 399.41,-1911.71 408.46,-1911.43 417.6,-1911.23 426.8,-1911.14 436.02,-1911.14 445.22,-1911.23"/>
<text text-anchor="start" x="402.24" y="-1956.17" font-family="Times,serif" font-size="14.00">C2985290</text>
<text text-anchor="start" x="340.24" y="-1942.17" font-family="Times,serif" font-size="14.00">Fetal alcohol spectrum disorders</text>
<text text-anchor="start" x="415.47" y="-1928.17" font-family="Times,serif" font-size="14.00">51:54</text>
</g>
<!-- id_27892236_DOT_1&#45;&#45;id_27892236_DOT_9 -->
<g id="edge1" class="edge">
<title>id_27892236_DOT_1&#45;&#45;id_27892236_DOT_9</title>
<path fill="none" stroke="black" d="M187.35,-2133.3C242.04,-2091.41 334.27,-2020.77 388.33,-1979.37"/>
<text text-anchor="middle" x="261.59" y="-2059.14" font-family="Times,serif" font-size="14.00">0.000128</text>
</g>
<!-- id_27892236_DOT_2 -->
<g id="node2" class="node">
<title>id_27892236_DOT_2</title>
<polygon fill="bisque" stroke="bisque" points="913.15,-1354.75 916.58,-1354.94 919.97,-1355.23 923.32,-1355.62 926.6,-1356.09 929.8,-1356.66 932.92,-1357.33 935.93,-1358.08 938.83,-1358.91 941.61,-1359.84 944.26,-1360.84 946.77,-1361.93 949.12,-1363.09 951.32,-1364.32 953.35,-1365.63 955.21,-1367 956.9,-1368.43 958.4,-1369.93 959.73,-1371.47 960.88,-1373.07 961.84,-1374.72 962.62,-1376.4 963.21,-1378.12 963.63,-1379.88 963.86,-1381.66 963.93,-1383.47 963.82,-1385.29 963.55,-1387.12 963.12,-1388.97 962.54,-1390.81 961.81,-1392.66 960.94,-1394.49 959.93,-1396.31 958.8,-1398.12 957.55,-1399.9 956.19,-1401.66 954.73,-1403.38 953.17,-1405.06 951.52,-1406.71 949.79,-1408.31 947.99,-1409.85 946.12,-1411.35 944.19,-1412.78 942.21,-1414.15 940.18,-1415.46 938.1,-1416.69 935.99,-1417.85 933.85,-1418.94 931.68,-1419.94 929.48,-1420.87 927.26,-1421.7 925.03,-1422.45 922.78,-1423.12 920.52,-1423.69 918.25,-1424.16 915.97,-1424.55 913.69,-1424.84 911.41,-1425.03 909.12,-1425.13 906.83,-1425.13 904.54,-1425.03 902.25,-1424.84 899.97,-1424.55 897.69,-1424.16 895.42,-1423.69 893.16,-1423.12 890.92,-1422.45 888.68,-1421.7 886.46,-1420.87 884.27,-1419.94 882.1,-1418.94 879.95,-1417.85 877.84,-1416.69 875.77,-1415.46 873.74,-1414.15 871.75,-1412.78 869.82,-1411.35 867.95,-1409.85 866.15,-1408.31 864.42,-1406.71 862.78,-1405.06 861.22,-1403.38 859.75,-1401.66 858.39,-1399.9 857.14,-1398.12 856.01,-1396.31 855.01,-1394.49 854.14,-1392.66 853.41,-1390.81 852.82,-1388.97 852.39,-1387.12 852.12,-1385.29 852.02,-1383.47 852.08,-1381.66 852.32,-1379.88 852.73,-1378.12 853.33,-1376.4 854.11,-1374.72 855.07,-1373.07 856.21,-1371.47 857.54,-1369.93 859.05,-1368.43 860.74,-1367 862.6,-1365.63 864.63,-1364.32 866.82,-1363.09 869.18,-1361.93 871.68,-1360.84 874.33,-1359.84 877.11,-1358.91 880.01,-1358.08 883.03,-1357.33 886.14,-1356.66 889.35,-1356.09 892.63,-1355.62 895.97,-1355.23 899.37,-1354.94 902.79,-1354.75 906.24,-1354.65 909.7,-1354.65 913.15,-1354.75"/>
<text text-anchor="start" x="878.8" y="-1399.69" font-family="Times,serif" font-size="14.00">C0001967</text>
<text text-anchor="start" x="885.42" y="-1385.69" font-family="Times,serif" font-size="14.00">Alcohol</text>
<text text-anchor="start" x="892.54" y="-1371.69" font-family="Times,serif" font-size="14.00">11:11</text>
</g>
<!-- id_27892236_DOT_4 -->
<g id="node4" class="node">
<title>id_27892236_DOT_4</title>
<polygon fill="blueviolet" stroke="blueviolet" points="695.54,-1647.63 703.04,-1647.83 710.45,-1648.12 717.77,-1648.5 724.94,-1648.98 731.95,-1649.55 738.76,-1650.21 745.35,-1650.96 751.7,-1651.8 757.78,-1652.72 763.56,-1653.72 769.04,-1654.81 774.19,-1655.97 778.99,-1657.2 783.43,-1658.51 787.5,-1659.88 791.19,-1661.32 794.49,-1662.81 797.39,-1664.36 799.89,-1665.95 801.99,-1667.6 803.69,-1669.28 805,-1671.01 805.91,-1672.76 806.43,-1674.54 806.57,-1676.35 806.34,-1678.17 805.74,-1680.01 804.8,-1681.85 803.53,-1683.7 801.93,-1685.54 800.02,-1687.37 797.83,-1689.2 795.35,-1691 792.62,-1692.78 789.65,-1694.54 786.45,-1696.26 783.04,-1697.95 779.44,-1699.59 775.66,-1701.19 771.72,-1702.74 767.63,-1704.23 763.41,-1705.66 759.08,-1707.04 754.64,-1708.34 750.1,-1709.57 745.48,-1710.74 740.8,-1711.82 736.05,-1712.83 731.24,-1713.75 726.4,-1714.59 721.51,-1715.34 716.6,-1716 711.66,-1716.57 706.69,-1717.05 701.71,-1717.43 696.72,-1717.72 691.73,-1717.91 686.72,-1718.01 681.72,-1718.01 676.71,-1717.91 671.71,-1717.72 666.72,-1717.43 661.74,-1717.05 656.78,-1716.57 651.84,-1716 646.92,-1715.34 642.04,-1714.59 637.19,-1713.75 632.39,-1712.83 627.64,-1711.82 622.95,-1710.74 618.34,-1709.57 613.8,-1708.34 609.36,-1707.04 605.02,-1705.66 600.81,-1704.23 596.72,-1702.74 592.78,-1701.19 589,-1699.59 585.4,-1697.95 581.99,-1696.26 578.79,-1694.54 575.81,-1692.78 573.08,-1691 570.61,-1689.2 568.41,-1687.37 566.51,-1685.54 564.91,-1683.7 563.63,-1681.85 562.69,-1680.01 562.1,-1678.17 561.87,-1676.35 562.01,-1674.54 562.53,-1672.76 563.44,-1671.01 564.74,-1669.28 566.44,-1667.6 568.55,-1665.95 571.05,-1664.36 573.95,-1662.81 577.25,-1661.32 580.94,-1659.88 585.01,-1658.51 589.45,-1657.2 594.25,-1655.97 599.4,-1654.81 604.87,-1653.72 610.66,-1652.72 616.74,-1651.8 623.09,-1650.96 629.68,-1650.21 636.49,-1649.55 643.5,-1648.98 650.67,-1648.5 657.98,-1648.12 665.4,-1647.83 672.9,-1647.63 680.44,-1647.54 688,-1647.54 695.54,-1647.63"/>
<text text-anchor="start" x="655.05" y="-1692.57" font-family="Times,serif" font-size="14.00">C0008073</text>
<text text-anchor="start" x="610.93" y="-1678.57" font-family="Times,serif" font-size="14.00">developmental disabilities</text>
<text text-anchor="start" x="668.27" y="-1664.57" font-family="Times,serif" font-size="14.00">23:24</text>
</g>
<!-- id_27892236_DOT_2&#45;&#45;id_27892236_DOT_4 -->
<g id="edge2" class="edge">
<title>id_27892236_DOT_2&#45;&#45;id_27892236_DOT_4</title>
<path fill="none" stroke="black" stroke-dasharray="1,5" d="M884.66,-1420.4C842.8,-1475.2 755.14,-1589.94 710.93,-1647.81"/>
<text text-anchor="middle" x="771.55" y="-1536.91" font-family="Times,serif" font-size="14.00">0.920036</text>
</g>
<!-- id_27892236_DOT_10 -->
<g id="node10" class="node">
<title>id_27892236_DOT_10</title>
<polygon fill="cornflowerblue" stroke="cornflowerblue" points="1129.23,-1046.73 1132.66,-1046.92 1136.05,-1047.21 1139.4,-1047.6 1142.68,-1048.07 1145.88,-1048.64 1149,-1049.31 1152.01,-1050.06 1154.92,-1050.89 1157.7,-1051.82 1160.34,-1052.82 1162.85,-1053.91 1165.2,-1055.07 1167.4,-1056.3 1169.43,-1057.61 1171.29,-1058.98 1172.98,-1060.41 1174.49,-1061.91 1175.81,-1063.45 1176.96,-1065.05 1177.92,-1066.7 1178.7,-1068.38 1179.29,-1070.1 1179.71,-1071.86 1179.95,-1073.64 1180.01,-1075.45 1179.91,-1077.27 1179.63,-1079.11 1179.2,-1080.95 1178.62,-1082.79 1177.89,-1084.64 1177.02,-1086.47 1176.01,-1088.29 1174.88,-1090.1 1173.63,-1091.88 1172.27,-1093.64 1170.81,-1095.36 1169.25,-1097.05 1167.6,-1098.69 1165.88,-1100.29 1164.07,-1101.83 1162.2,-1103.33 1160.28,-1104.76 1158.29,-1106.13 1156.26,-1107.44 1154.19,-1108.67 1152.07,-1109.83 1149.93,-1110.92 1147.76,-1111.92 1145.56,-1112.85 1143.35,-1113.68 1141.11,-1114.44 1138.86,-1115.1 1136.6,-1115.67 1134.33,-1116.14 1132.06,-1116.53 1129.77,-1116.82 1127.49,-1117.01 1125.2,-1117.11 1122.91,-1117.11 1120.62,-1117.01 1118.34,-1116.82 1116.05,-1116.53 1113.78,-1116.14 1111.51,-1115.67 1109.25,-1115.1 1107,-1114.44 1104.76,-1113.68 1102.55,-1112.85 1100.35,-1111.92 1098.18,-1110.92 1096.03,-1109.83 1093.92,-1108.67 1091.85,-1107.44 1089.82,-1106.13 1087.83,-1104.76 1085.91,-1103.33 1084.04,-1101.83 1082.23,-1100.29 1080.51,-1098.69 1078.86,-1097.05 1077.3,-1095.36 1075.84,-1093.64 1074.48,-1091.88 1073.23,-1090.1 1072.1,-1088.29 1071.09,-1086.47 1070.22,-1084.64 1069.49,-1082.79 1068.9,-1080.95 1068.47,-1079.11 1068.2,-1077.27 1068.1,-1075.45 1068.16,-1073.64 1068.4,-1071.86 1068.82,-1070.1 1069.41,-1068.38 1070.19,-1066.7 1071.15,-1065.05 1072.3,-1063.45 1073.62,-1061.91 1075.13,-1060.41 1076.82,-1058.98 1078.68,-1057.61 1080.71,-1056.3 1082.91,-1055.07 1085.26,-1053.91 1087.77,-1052.82 1090.41,-1051.82 1093.19,-1050.89 1096.1,-1050.06 1099.11,-1049.31 1102.23,-1048.64 1105.43,-1048.07 1108.71,-1047.6 1112.06,-1047.21 1115.45,-1046.92 1118.88,-1046.73 1122.33,-1046.64 1125.78,-1046.64 1129.23,-1046.73"/>
<text text-anchor="start" x="1094.89" y="-1091.67" font-family="Times,serif" font-size="14.00">C0004352</text>
<text text-anchor="start" x="1105.39" y="-1077.67" font-family="Times,serif" font-size="14.00">autism</text>
<text text-anchor="start" x="1108.11" y="-1063.67" font-family="Times,serif" font-size="14.00">59:59</text>
</g>
<!-- id_27892236_DOT_2&#45;&#45;id_27892236_DOT_10 -->
<g id="edge3" class="edge">
<title>id_27892236_DOT_2&#45;&#45;id_27892236_DOT_10</title>
<path fill="none" stroke="black" stroke-dasharray="1,5" d="M931.1,-1356.93C973.01,-1297.18 1061,-1171.76 1102.06,-1113.22"/>
<text text-anchor="middle" x="990.33" y="-1237.87" font-family="Times,serif" font-size="14.00">0.540385</text>
</g>
<!-- id_27892236_DOT_3 -->
<g id="node3" class="node">
<title>id_27892236_DOT_3</title>
<polygon fill="blue" stroke="blue" points="1025.61,-0.23 1029.04,-0.42 1032.43,-0.71 1035.78,-1.09 1039.06,-1.57 1042.26,-2.14 1045.38,-2.8 1048.39,-3.55 1051.3,-4.39 1054.08,-5.31 1056.72,-6.32 1059.23,-7.4 1061.58,-8.57 1063.78,-9.8 1065.81,-11.1 1067.67,-12.48 1069.36,-13.91 1070.87,-15.4 1072.19,-16.95 1073.34,-18.55 1074.3,-20.19 1075.08,-21.88 1075.67,-23.6 1076.09,-25.36 1076.33,-27.14 1076.39,-28.94 1076.28,-30.77 1076.01,-32.6 1075.58,-34.44 1075,-36.29 1074.27,-38.13 1073.4,-39.97 1072.39,-41.79 1071.26,-43.6 1070.01,-45.38 1068.65,-47.13 1067.19,-48.86 1065.63,-50.54 1063.98,-52.19 1062.25,-53.78 1060.45,-55.33 1058.58,-56.82 1056.65,-58.26 1054.67,-59.63 1052.64,-60.94 1050.56,-62.17 1048.45,-63.33 1046.31,-64.42 1044.14,-65.42 1041.94,-66.34 1039.72,-67.18 1037.49,-67.93 1035.24,-68.59 1032.98,-69.16 1030.71,-69.64 1028.44,-70.02 1026.15,-70.31 1023.87,-70.51 1021.58,-70.6 1019.29,-70.6 1017,-70.51 1014.71,-70.31 1012.43,-70.02 1010.15,-69.64 1007.88,-69.16 1005.62,-68.59 1003.38,-67.93 1001.14,-67.18 998.93,-66.34 996.73,-65.42 994.56,-64.42 992.41,-63.33 990.3,-62.17 988.23,-60.94 986.2,-59.63 984.21,-58.26 982.28,-56.82 980.41,-55.33 978.61,-53.78 976.88,-52.19 975.24,-50.54 973.68,-48.86 972.21,-47.13 970.85,-45.38 969.6,-43.6 968.47,-41.79 967.47,-39.97 966.6,-38.13 965.87,-36.29 965.28,-34.44 964.85,-32.6 964.58,-30.77 964.48,-28.94 964.54,-27.14 964.78,-25.36 965.19,-23.6 965.79,-21.88 966.57,-20.19 967.53,-18.55 968.67,-16.95 970,-15.4 971.51,-13.91 973.2,-12.48 975.06,-11.1 977.09,-9.8 979.29,-8.57 981.64,-7.4 984.14,-6.32 986.79,-5.31 989.57,-4.39 992.47,-3.55 995.49,-2.8 998.61,-2.14 1001.81,-1.57 1005.09,-1.09 1008.43,-0.71 1011.83,-0.42 1015.26,-0.23 1018.7,-0.13 1022.16,-0.13 1025.61,-0.23"/>
<text text-anchor="start" x="991.26" y="-45.17" font-family="Times,serif" font-size="14.00">C0032961</text>
<text text-anchor="start" x="991.28" y="-31.17" font-family="Times,serif" font-size="14.00">pregnancy</text>
<text text-anchor="start" x="1004.49" y="-17.17" font-family="Times,serif" font-size="14.00">14:14</text>
</g>
<!-- id_27892236_DOT_5 -->
<g id="node5" class="node">
<title>id_27892236_DOT_5</title>
<polygon fill="brown" stroke="brown" points="1176.66,-348.03 1180.61,-348.22 1184.51,-348.51 1188.36,-348.89 1192.13,-349.37 1195.82,-349.94 1199.41,-350.6 1202.88,-351.35 1206.22,-352.19 1209.42,-353.11 1212.46,-354.12 1215.34,-355.2 1218.05,-356.36 1220.58,-357.6 1222.92,-358.9 1225.06,-360.27 1227,-361.71 1228.74,-363.2 1230.26,-364.75 1231.58,-366.35 1232.69,-367.99 1233.58,-369.68 1234.27,-371.4 1234.75,-373.15 1235.02,-374.94 1235.09,-376.74 1234.97,-378.56 1234.66,-380.4 1234.17,-382.24 1233.49,-384.09 1232.65,-385.93 1231.65,-387.77 1230.49,-389.59 1229.19,-391.39 1227.76,-393.18 1226.19,-394.93 1224.51,-396.65 1222.71,-398.34 1220.82,-399.98 1218.83,-401.58 1216.75,-403.13 1214.6,-404.62 1212.38,-406.06 1210.1,-407.43 1207.76,-408.73 1205.38,-409.97 1202.95,-411.13 1200.48,-412.21 1197.98,-413.22 1195.45,-414.14 1192.9,-414.98 1190.33,-415.73 1187.74,-416.39 1185.14,-416.96 1182.53,-417.44 1179.91,-417.82 1177.28,-418.11 1174.65,-418.3 1172.02,-418.4 1169.38,-418.4 1166.75,-418.3 1164.12,-418.11 1161.49,-417.82 1158.87,-417.44 1156.26,-416.96 1153.66,-416.39 1151.07,-415.73 1148.5,-414.98 1145.95,-414.14 1143.42,-413.22 1140.92,-412.21 1138.46,-411.13 1136.03,-409.97 1133.64,-408.73 1131.3,-407.43 1129.02,-406.06 1126.8,-404.62 1124.65,-403.13 1122.58,-401.58 1120.59,-399.98 1118.69,-398.34 1116.9,-396.65 1115.21,-394.93 1113.65,-393.18 1112.21,-391.39 1110.91,-389.59 1109.75,-387.77 1108.75,-385.93 1107.91,-384.09 1107.24,-382.24 1106.74,-380.4 1106.43,-378.56 1106.31,-376.74 1106.38,-374.94 1106.66,-373.15 1107.14,-371.4 1107.82,-369.68 1108.72,-367.99 1109.82,-366.35 1111.14,-364.75 1112.67,-363.2 1114.4,-361.71 1116.34,-360.27 1118.49,-358.9 1120.82,-357.6 1123.35,-356.36 1126.06,-355.2 1128.94,-354.12 1131.99,-353.11 1135.19,-352.19 1138.53,-351.35 1142,-350.6 1145.58,-349.94 1149.27,-349.37 1153.05,-348.89 1156.89,-348.51 1160.8,-348.22 1164.74,-348.03 1168.71,-347.93 1172.69,-347.93 1176.66,-348.03"/>
<text text-anchor="start" x="1141.53" y="-392.97" font-family="Times,serif" font-size="14.00">C0220810</text>
<text text-anchor="start" x="1135.91" y="-378.97" font-family="Times,serif" font-size="14.00">birth defects</text>
<text text-anchor="start" x="1154.76" y="-364.97" font-family="Times,serif" font-size="14.00">26:27</text>
</g>
<!-- id_27892236_DOT_3&#45;&#45;id_27892236_DOT_5 -->
<g id="edge4" class="edge">
<title>id_27892236_DOT_3&#45;&#45;id_27892236_DOT_5</title>
<path fill="none" stroke="black" stroke-dasharray="1,5" d="M1034.84,-68.72C1063.34,-134.68 1126.67,-281.25 1155.67,-348.38"/>
<text text-anchor="middle" x="1069.01" y="-211.35" font-family="Times,serif" font-size="14.00">0.948052</text>
</g>
<!-- id_27892236_DOT_4&#45;&#45;id_27892236_DOT_9 -->
<g id="edge5" class="edge">
<title>id_27892236_DOT_4&#45;&#45;id_27892236_DOT_9</title>
<path fill="none" stroke="black" stroke-dasharray="1,5" d="M652.2,-1716.16C604.1,-1766.31 513.65,-1860.62 464.77,-1911.58"/>
<text text-anchor="middle" x="532.49" y="-1816.67" font-family="Times,serif" font-size="14.00">1.011585</text>
</g>
<!-- id_27892236_DOT_7 -->
<g id="node7" class="node">
<title>id_27892236_DOT_7</title>
<polygon fill="chartreuse" stroke="chartreuse" points="1357.46,-714.32 1364.56,-714.51 1371.58,-714.8 1378.51,-715.19 1385.31,-715.66 1391.94,-716.24 1398.4,-716.9 1404.64,-717.65 1410.66,-718.48 1416.41,-719.41 1421.9,-720.41 1427.09,-721.5 1431.96,-722.66 1436.51,-723.89 1440.72,-725.2 1444.57,-726.57 1448.07,-728 1451.19,-729.5 1453.94,-731.04 1456.31,-732.64 1458.3,-734.29 1459.92,-735.97 1461.15,-737.7 1462.01,-739.45 1462.5,-741.23 1462.64,-743.04 1462.42,-744.86 1461.86,-746.7 1460.97,-748.54 1459.76,-750.38 1458.24,-752.23 1456.44,-754.06 1454.36,-755.88 1452.01,-757.69 1449.43,-759.47 1446.61,-761.23 1443.58,-762.95 1440.35,-764.64 1436.94,-766.28 1433.36,-767.88 1429.62,-769.43 1425.75,-770.92 1421.76,-772.35 1417.65,-773.72 1413.44,-775.03 1409.14,-776.26 1404.77,-777.42 1400.33,-778.51 1395.83,-779.51 1391.28,-780.44 1386.69,-781.27 1382.06,-782.03 1377.4,-782.69 1372.72,-783.26 1368.02,-783.73 1363.3,-784.12 1358.58,-784.41 1353.84,-784.6 1349.1,-784.7 1344.36,-784.7 1339.62,-784.6 1334.88,-784.41 1330.15,-784.12 1325.44,-783.73 1320.74,-783.26 1316.06,-782.69 1311.4,-782.03 1306.77,-781.27 1302.18,-780.44 1297.63,-779.51 1293.13,-778.51 1288.69,-777.42 1284.32,-776.26 1280.02,-775.03 1275.81,-773.72 1271.7,-772.35 1267.71,-770.92 1263.84,-769.43 1260.1,-767.88 1256.52,-766.28 1253.11,-764.64 1249.88,-762.95 1246.85,-761.23 1244.03,-759.47 1241.44,-757.69 1239.1,-755.88 1237.02,-754.06 1235.22,-752.23 1233.7,-750.38 1232.49,-748.54 1231.6,-746.7 1231.04,-744.86 1230.82,-743.04 1230.96,-741.23 1231.45,-739.45 1232.31,-737.7 1233.54,-735.97 1235.16,-734.29 1237.15,-732.64 1239.52,-731.04 1242.27,-729.5 1245.39,-728 1248.88,-726.57 1252.74,-725.2 1256.95,-723.89 1261.5,-722.66 1266.37,-721.5 1271.56,-720.41 1277.04,-719.41 1282.8,-718.48 1288.82,-717.65 1295.06,-716.9 1301.52,-716.24 1308.15,-715.66 1314.95,-715.19 1321.87,-714.8 1328.9,-714.51 1336,-714.32 1343.15,-714.23 1350.31,-714.23 1357.46,-714.32"/>
<text text-anchor="start" x="1317.56" y="-759.26" font-family="Times,serif" font-size="14.00">C3146244</text>
<text text-anchor="start" x="1277.74" y="-745.26" font-family="Times,serif" font-size="14.00">alcohol &#45; related damage</text>
<text text-anchor="start" x="1330.78" y="-731.26" font-family="Times,serif" font-size="14.00">39:42</text>
</g>
<!-- id_27892236_DOT_5&#45;&#45;id_27892236_DOT_7 -->
<g id="edge6" class="edge">
<title>id_27892236_DOT_5&#45;&#45;id_27892236_DOT_7</title>
<path fill="none" stroke="black" stroke-dasharray="1,5" d="M1186.79,-416.64C1220.02,-485.79 1295.94,-643.78 1329.84,-714.32"/>
<text text-anchor="middle" x="1232.07" y="-568.28" font-family="Times,serif" font-size="14.00">0.724899</text>
</g>
<!-- id_27892236_DOT_6 -->
<g id="node6" class="node">
<title>id_27892236_DOT_6</title>
<polygon fill="cadetblue" stroke="cadetblue" points="1754.45,-723.01 1757.88,-723.21 1761.27,-723.5 1764.61,-723.88 1767.89,-724.36 1771.1,-724.93 1774.21,-725.59 1777.23,-726.34 1780.13,-727.18 1782.91,-728.1 1785.56,-729.1 1788.06,-730.19 1790.42,-731.35 1792.61,-732.58 1794.65,-733.89 1796.51,-735.26 1798.19,-736.7 1799.7,-738.19 1801.03,-739.74 1802.17,-741.33 1803.14,-742.98 1803.91,-744.66 1804.51,-746.39 1804.92,-748.14 1805.16,-749.92 1805.23,-751.73 1805.12,-753.55 1804.85,-755.39 1804.42,-757.23 1803.84,-759.08 1803.11,-760.92 1802.23,-762.75 1801.23,-764.58 1800.1,-766.38 1798.85,-768.16 1797.49,-769.92 1796.03,-771.64 1794.47,-773.33 1792.82,-774.97 1791.09,-776.57 1789.29,-778.12 1787.42,-779.61 1785.49,-781.04 1783.51,-782.42 1781.48,-783.72 1779.4,-784.95 1777.29,-786.12 1775.15,-787.2 1772.97,-788.21 1770.78,-789.13 1768.56,-789.97 1766.33,-790.72 1764.08,-791.38 1761.82,-791.95 1759.55,-792.43 1757.27,-792.81 1754.99,-793.1 1752.7,-793.29 1750.42,-793.39 1748.13,-793.39 1745.84,-793.29 1743.55,-793.1 1741.27,-792.81 1738.99,-792.43 1736.72,-791.95 1734.46,-791.38 1732.21,-790.72 1729.98,-789.97 1727.76,-789.13 1725.57,-788.21 1723.39,-787.2 1721.25,-786.12 1719.14,-784.95 1717.07,-783.72 1715.03,-782.42 1713.05,-781.04 1711.12,-779.61 1709.25,-778.12 1707.45,-776.57 1705.72,-774.97 1704.07,-773.33 1702.51,-771.64 1701.05,-769.92 1699.69,-768.16 1698.44,-766.38 1697.31,-764.58 1696.31,-762.75 1695.44,-760.92 1694.7,-759.08 1694.12,-757.23 1693.69,-755.39 1693.42,-753.55 1693.31,-751.73 1693.38,-749.92 1693.62,-748.14 1694.03,-746.39 1694.63,-744.66 1695.41,-742.98 1696.37,-741.33 1697.51,-739.74 1698.84,-738.19 1700.35,-736.7 1702.03,-735.26 1703.9,-733.89 1705.93,-732.58 1708.12,-731.35 1710.48,-730.19 1712.98,-729.1 1715.63,-728.1 1718.41,-727.18 1721.31,-726.34 1724.33,-725.59 1727.44,-724.93 1730.65,-724.36 1733.93,-723.88 1737.27,-723.5 1740.66,-723.21 1744.09,-723.01 1747.54,-722.92 1751,-722.92 1754.45,-723.01"/>
<text text-anchor="start" x="1720.1" y="-767.95" font-family="Times,serif" font-size="14.00">C0005615</text>
<text text-anchor="start" x="1736.44" y="-753.95" font-family="Times,serif" font-size="14.00">born</text>
<text text-anchor="start" x="1733.33" y="-739.95" font-family="Times,serif" font-size="14.00">37:37</text>
</g>
<!-- id_27892236_DOT_6&#45;&#45;id_27892236_DOT_7 -->
<g id="edge7" class="edge">
<title>id_27892236_DOT_6&#45;&#45;id_27892236_DOT_7</title>
<path fill="none" stroke="black" stroke-dasharray="1,5" d="M1693.72,-756.95C1633.33,-755.65 1535.22,-753.53 1458.7,-751.88"/>
<text text-anchor="middle" x="1549.96" y="-757.22" font-family="Times,serif" font-size="14.00">0.931003</text>
</g>
<!-- id_27892236_DOT_11 -->
<g id="node11" class="node">
<title>id_27892236_DOT_11</title>
<polygon fill="crimson" stroke="crimson" points="2131.53,-704.27 2134.94,-704.46 2138.32,-704.75 2141.64,-705.13 2144.91,-705.61 2148.1,-706.18 2151.2,-706.84 2154.2,-707.59 2157.09,-708.43 2159.85,-709.35 2162.49,-710.36 2164.98,-711.44 2167.32,-712.6 2169.51,-713.84 2171.53,-715.14 2173.38,-716.51 2175.06,-717.95 2176.56,-719.44 2177.88,-720.99 2179.02,-722.59 2179.98,-724.23 2180.75,-725.92 2181.35,-727.64 2181.76,-729.39 2182,-731.18 2182.06,-732.98 2181.95,-734.8 2181.69,-736.64 2181.26,-738.48 2180.68,-740.33 2179.95,-742.17 2179.08,-744.01 2178.08,-745.83 2176.96,-747.63 2175.71,-749.42 2174.36,-751.17 2172.9,-752.89 2171.35,-754.58 2169.71,-756.22 2167.99,-757.82 2166.2,-759.37 2164.34,-760.86 2162.42,-762.3 2160.45,-763.67 2158.42,-764.97 2156.36,-766.21 2154.26,-767.37 2152.13,-768.45 2149.96,-769.46 2147.78,-770.38 2145.57,-771.22 2143.35,-771.97 2141.11,-772.63 2138.86,-773.2 2136.6,-773.68 2134.34,-774.06 2132.07,-774.35 2129.79,-774.54 2127.51,-774.64 2125.24,-774.64 2122.96,-774.54 2120.68,-774.35 2118.41,-774.06 2116.15,-773.68 2113.89,-773.2 2111.64,-772.63 2109.4,-771.97 2107.18,-771.22 2104.97,-770.38 2102.79,-769.46 2100.63,-768.45 2098.49,-767.37 2096.39,-766.21 2094.33,-764.97 2092.31,-763.67 2090.33,-762.3 2088.41,-760.86 2086.55,-759.37 2084.76,-757.82 2083.04,-756.22 2081.4,-754.58 2079.85,-752.89 2078.39,-751.17 2077.04,-749.42 2075.79,-747.63 2074.67,-745.83 2073.67,-744.01 2072.8,-742.17 2072.07,-740.33 2071.49,-738.48 2071.07,-736.64 2070.8,-734.8 2070.69,-732.98 2070.76,-731.18 2070.99,-729.39 2071.41,-727.64 2072,-725.92 2072.77,-724.23 2073.73,-722.59 2074.87,-720.99 2076.19,-719.44 2077.69,-717.95 2079.37,-716.51 2081.22,-715.14 2083.24,-713.84 2085.43,-712.6 2087.77,-711.44 2090.26,-710.36 2092.9,-709.35 2095.66,-708.43 2098.55,-707.59 2101.55,-706.84 2104.65,-706.18 2107.84,-705.61 2111.11,-705.13 2114.43,-704.75 2117.81,-704.46 2121.22,-704.27 2124.66,-704.17 2128.1,-704.17 2131.53,-704.27"/>
<text text-anchor="start" x="2097.46" y="-749.21" font-family="Times,serif" font-size="14.00">C0011900</text>
<text text-anchor="start" x="2097.99" y="-735.21" font-family="Times,serif" font-size="14.00">diagnosed</text>
<text text-anchor="start" x="2110.43" y="-721.21" font-family="Times,serif" font-size="14.00">64:64</text>
</g>
<!-- id_27892236_DOT_6&#45;&#45;id_27892236_DOT_11 -->
<g id="edge8" class="edge">
<title>id_27892236_DOT_6&#45;&#45;id_27892236_DOT_11</title>
<path fill="none" stroke="black" stroke-dasharray="1,5" d="M1804.91,-755.39C1876.93,-751.81 2001.57,-745.61 2072.64,-742.08"/>
<text text-anchor="middle" x="1912.53" y="-751.53" font-family="Times,serif" font-size="14.00">0.913292</text>
</g>
<!-- id_27892236_DOT_7&#45;&#45;id_27892236_DOT_10 -->
<g id="edge9" class="edge">
<title>id_27892236_DOT_7&#45;&#45;id_27892236_DOT_10</title>
<path fill="none" stroke="black" stroke-dasharray="1,5" d="M1323.74,-783.78C1280.74,-847.98 1188.66,-985.43 1146.26,-1048.72"/>
<text text-anchor="middle" x="1208.75" y="-919.05" font-family="Times,serif" font-size="14.00">0.971933</text>
</g>
<!-- id_27892236_DOT_8 -->
<g id="node8" class="node">
<title>id_27892236_DOT_8</title>
<polygon fill="coral" stroke="coral" points="2503.48,-662.05 2511.21,-662.24 2518.86,-662.53 2526.4,-662.91 2533.81,-663.39 2541.03,-663.96 2548.06,-664.62 2554.86,-665.37 2561.41,-666.21 2567.68,-667.13 2573.65,-668.14 2579.3,-669.22 2584.61,-670.39 2589.57,-671.62 2594.15,-672.92 2598.35,-674.3 2602.15,-675.73 2605.56,-677.22 2608.55,-678.77 2611.13,-680.37 2613.3,-682.01 2615.06,-683.7 2616.4,-685.42 2617.34,-687.18 2617.87,-688.96 2618.02,-690.76 2617.78,-692.59 2617.17,-694.42 2616.2,-696.26 2614.88,-698.11 2613.23,-699.95 2611.27,-701.79 2609,-703.61 2606.45,-705.42 2603.63,-707.2 2600.57,-708.95 2597.27,-710.68 2593.75,-712.36 2590.03,-714.01 2586.13,-715.6 2582.07,-717.15 2577.85,-718.64 2573.5,-720.08 2569.03,-721.45 2564.44,-722.76 2559.76,-723.99 2555,-725.15 2550.17,-726.24 2545.27,-727.24 2540.31,-728.16 2535.31,-729 2530.27,-729.75 2525.2,-730.41 2520.1,-730.98 2514.98,-731.46 2509.85,-731.84 2504.7,-732.13 2499.54,-732.33 2494.38,-732.42 2489.21,-732.42 2484.05,-732.33 2478.89,-732.13 2473.75,-731.84 2468.61,-731.46 2463.49,-730.98 2458.39,-730.41 2453.32,-729.75 2448.28,-729 2443.28,-728.16 2438.33,-727.24 2433.43,-726.24 2428.59,-725.15 2423.83,-723.99 2419.15,-722.76 2414.57,-721.45 2410.09,-720.08 2405.74,-718.64 2401.52,-717.15 2397.46,-715.6 2393.56,-714.01 2389.84,-712.36 2386.33,-710.68 2383.02,-708.95 2379.96,-707.2 2377.14,-705.42 2374.59,-703.61 2372.32,-701.79 2370.36,-699.95 2368.71,-698.11 2367.39,-696.26 2366.42,-694.42 2365.81,-692.59 2365.57,-690.76 2365.72,-688.96 2366.25,-687.18 2367.19,-685.42 2368.53,-683.7 2370.29,-682.01 2372.46,-680.37 2375.04,-678.77 2378.03,-677.22 2381.44,-675.73 2385.24,-674.3 2389.44,-672.92 2394.02,-671.62 2398.98,-670.39 2404.29,-669.22 2409.94,-668.14 2415.91,-667.13 2422.18,-666.21 2428.73,-665.37 2435.53,-664.62 2442.56,-663.96 2449.79,-663.39 2457.19,-662.91 2464.73,-662.53 2472.38,-662.24 2480.12,-662.05 2487.9,-661.95 2495.69,-661.95 2503.48,-662.05"/>
<text text-anchor="start" x="2462.63" y="-706.99" font-family="Times,serif" font-size="14.00">C0043237</text>
<text text-anchor="start" x="2415.89" y="-692.99" font-family="Times,serif" font-size="14.00">World Health Organization</text>
<text text-anchor="start" x="2475.85" y="-678.99" font-family="Times,serif" font-size="14.00">47:49</text>
</g>
<!-- id_27892236_DOT_8&#45;&#45;id_27892236_DOT_11 -->
<g id="edge10" class="edge">
<title>id_27892236_DOT_8&#45;&#45;id_27892236_DOT_11</title>
<path fill="none" stroke="black" stroke-dasharray="1,5" d="M2384.13,-709.63C2317.82,-717.29 2235.54,-726.79 2182.04,-732.97"/>
<text text-anchor="middle" x="2256.84" y="-724.1" font-family="Times,serif" font-size="14.00">0.968806</text>
</g>
</g>
</svg>
