<?xml version="1.0" encoding="UTF-8" standalone="no"?>
<!DOCTYPE svg PUBLIC "-//W3C//DTD SVG 1.1//EN"
 "http://www.w3.org/Graphics/SVG/1.1/DTD/svg11.dtd">
<!-- Generated by graphviz version 2.42.3 (20191010.1750)
 -->
<!-- Title: MST Pages: 1 -->
<svg width="3872pt" height="2330pt"
 viewBox="0.00 0.00 3871.66 2330.05" xmlns="http://www.w3.org/2000/svg" xmlns:xlink="http://www.w3.org/1999/xlink">
<g id="graph0" class="graph" transform="scale(1 1) rotate(0) translate(4 2326.05)">
<title>MST</title>
<polygon fill="white" stroke="transparent" points="-4,4 -4,-2326.05 3867.66,-2326.05 3867.66,4 -4,4"/>
<!-- id_28027163_DOT_1 -->
<g id="node1" class="node">
<title>id_28027163_DOT_1</title>
<polygon fill="aquamarine" stroke="aquamarine" points="1032.81,-1676.85 1037.41,-1677.04 1041.95,-1677.33 1046.44,-1677.71 1050.83,-1678.19 1055.13,-1678.76 1059.31,-1679.42 1063.35,-1680.17 1067.24,-1681.01 1070.97,-1681.93 1074.51,-1682.94 1077.87,-1684.02 1081.03,-1685.18 1083.97,-1686.42 1086.69,-1687.72 1089.19,-1689.09 1091.45,-1690.53 1093.47,-1692.02 1095.25,-1693.57 1096.78,-1695.17 1098.07,-1696.81 1099.12,-1698.5 1099.91,-1700.22 1100.47,-1701.97 1100.79,-1703.76 1100.88,-1705.56 1100.73,-1707.38 1100.37,-1709.22 1099.8,-1711.06 1099.01,-1712.91 1098.03,-1714.75 1096.87,-1716.59 1095.52,-1718.41 1094,-1720.21 1092.33,-1722 1090.51,-1723.75 1088.54,-1725.47 1086.45,-1727.16 1084.25,-1728.8 1081.93,-1730.4 1079.51,-1731.95 1077.01,-1733.44 1074.42,-1734.88 1071.76,-1736.25 1069.04,-1737.55 1066.26,-1738.79 1063.43,-1739.95 1060.55,-1741.03 1057.64,-1742.04 1054.7,-1742.96 1051.73,-1743.8 1048.73,-1744.55 1045.72,-1745.21 1042.69,-1745.78 1039.65,-1746.26 1036.6,-1746.64 1033.54,-1746.93 1030.47,-1747.12 1027.4,-1747.22 1024.33,-1747.22 1021.27,-1747.12 1018.2,-1746.93 1015.14,-1746.64 1012.09,-1746.26 1009.05,-1745.78 1006.02,-1745.21 1003,-1744.55 1000.01,-1743.8 997.04,-1742.96 994.09,-1742.04 991.18,-1741.03 988.31,-1739.95 985.48,-1738.79 982.7,-1737.55 979.98,-1736.25 977.32,-1734.88 974.73,-1733.44 972.23,-1731.95 969.81,-1730.4 967.49,-1728.8 965.28,-1727.16 963.19,-1725.47 961.23,-1723.75 959.41,-1722 957.74,-1720.21 956.22,-1718.41 954.87,-1716.59 953.7,-1714.75 952.73,-1712.91 951.94,-1711.06 951.37,-1709.22 951,-1707.38 950.86,-1705.56 950.95,-1703.76 951.27,-1701.97 951.82,-1700.22 952.62,-1698.5 953.66,-1696.81 954.95,-1695.17 956.49,-1693.57 958.27,-1692.02 960.29,-1690.53 962.55,-1689.09 965.04,-1687.72 967.77,-1686.42 970.71,-1685.18 973.87,-1684.02 977.22,-1682.94 980.77,-1681.93 984.5,-1681.01 988.39,-1680.17 992.43,-1679.42 996.61,-1678.76 1000.91,-1678.19 1005.3,-1677.71 1009.78,-1677.33 1014.33,-1677.04 1018.93,-1676.85 1023.55,-1676.75 1028.19,-1676.75 1032.81,-1676.85"/>
<text text-anchor="start" x="996.7" y="-1721.79" font-family="Times,serif" font-size="14.00">C0018725</text>
<text text-anchor="start" x="984.07" y="-1707.79" font-family="Times,serif" font-size="14.00">Health Physics</text>
<text text-anchor="start" x="1016.92" y="-1693.79" font-family="Times,serif" font-size="14.00">3:4</text>
</g>
<!-- id_28027163_DOT_2 -->
<g id="node2" class="node">
<title>id_28027163_DOT_2</title>
<polygon fill="aquamarine" stroke="aquamarine" points="1310.87,-1418.09 1315.29,-1418.28 1319.66,-1418.57 1323.97,-1418.96 1328.2,-1419.43 1332.33,-1420 1336.35,-1420.67 1340.24,-1421.42 1343.98,-1422.25 1347.56,-1423.18 1350.97,-1424.18 1354.2,-1425.27 1357.24,-1426.43 1360.07,-1427.66 1362.69,-1428.97 1365.09,-1430.34 1367.26,-1431.77 1369.21,-1433.27 1370.92,-1434.81 1372.39,-1436.41 1373.63,-1438.06 1374.64,-1439.74 1375.4,-1441.46 1375.94,-1443.22 1376.25,-1445 1376.33,-1446.81 1376.19,-1448.63 1375.84,-1450.46 1375.29,-1452.31 1374.54,-1454.15 1373.59,-1456 1372.47,-1457.83 1371.18,-1459.65 1369.72,-1461.46 1368.11,-1463.24 1366.35,-1465 1364.47,-1466.72 1362.46,-1468.4 1360.33,-1470.05 1358.11,-1471.65 1355.78,-1473.19 1353.37,-1474.69 1350.89,-1476.12 1348.33,-1477.49 1345.71,-1478.8 1343.04,-1480.03 1340.31,-1481.19 1337.55,-1482.28 1334.75,-1483.28 1331.92,-1484.21 1329.06,-1485.04 1326.18,-1485.79 1323.28,-1486.46 1320.37,-1487.03 1317.44,-1487.5 1314.51,-1487.89 1311.56,-1488.18 1308.62,-1488.37 1305.67,-1488.47 1302.71,-1488.47 1299.76,-1488.37 1296.82,-1488.18 1293.87,-1487.89 1290.94,-1487.5 1288.01,-1487.03 1285.1,-1486.46 1282.2,-1485.79 1279.32,-1485.04 1276.46,-1484.21 1273.63,-1483.28 1270.83,-1482.28 1268.07,-1481.19 1265.34,-1480.03 1262.67,-1478.8 1260.05,-1477.49 1257.49,-1476.12 1255.01,-1474.69 1252.6,-1473.19 1250.27,-1471.65 1248.05,-1470.05 1245.92,-1468.4 1243.91,-1466.72 1242.03,-1465 1240.27,-1463.24 1238.66,-1461.46 1237.2,-1459.65 1235.91,-1457.83 1234.79,-1456 1233.84,-1454.15 1233.09,-1452.31 1232.54,-1450.46 1232.19,-1448.63 1232.05,-1446.81 1232.13,-1445 1232.44,-1443.22 1232.98,-1441.46 1233.74,-1439.74 1234.75,-1438.06 1235.99,-1436.41 1237.46,-1434.81 1239.17,-1433.27 1241.12,-1431.77 1243.29,-1430.34 1245.69,-1428.97 1248.31,-1427.66 1251.14,-1426.43 1254.18,-1425.27 1257.41,-1424.18 1260.82,-1423.18 1264.4,-1422.25 1268.14,-1421.42 1272.03,-1420.67 1276.05,-1420 1280.18,-1419.43 1284.41,-1418.96 1288.72,-1418.57 1293.09,-1418.28 1297.51,-1418.09 1301.96,-1417.99 1306.42,-1417.99 1310.87,-1418.09"/>
<text text-anchor="start" x="1275.02" y="-1463.03" font-family="Times,serif" font-size="14.00">C0018725</text>
<text text-anchor="start" x="1264.34" y="-1449.03" font-family="Times,serif" font-size="14.00">health physics</text>
<text text-anchor="start" x="1288.25" y="-1435.03" font-family="Times,serif" font-size="14.00">12:13</text>
</g>
<!-- id_28027163_DOT_1&#45;&#45;id_28027163_DOT_2 -->
<g id="edge1" class="edge">
<title>id_28027163_DOT_1&#45;&#45;id_28027163_DOT_2</title>
<path fill="none" stroke="black" d="M1060.84,-1679.48C1115.29,-1628.85 1219.56,-1531.91 1272.16,-1483.01"/>
<text text-anchor="middle" x="1140.25" y="-1584.04" font-family="Times,serif" font-size="14.00">0.017501</text>
</g>
<!-- id_28027163_DOT_6 -->
<g id="node6" class="node">
<title>id_28027163_DOT_6</title>
<polygon fill="brown" stroke="brown" points="744.31,-1913.2 749.34,-1913.39 754.31,-1913.68 759.22,-1914.06 764.03,-1914.54 768.73,-1915.11 773.3,-1915.77 777.72,-1916.52 781.98,-1917.36 786.05,-1918.28 789.93,-1919.29 793.61,-1920.37 797.06,-1921.53 800.28,-1922.77 803.26,-1924.07 805.99,-1925.44 808.46,-1926.88 810.68,-1928.37 812.62,-1929.92 814.3,-1931.52 815.71,-1933.16 816.85,-1934.85 817.72,-1936.57 818.33,-1938.32 818.68,-1940.11 818.78,-1941.91 818.62,-1943.74 818.22,-1945.57 817.59,-1947.41 816.74,-1949.26 815.67,-1951.1 814.39,-1952.94 812.91,-1954.76 811.26,-1956.56 809.42,-1958.35 807.43,-1960.1 805.28,-1961.82 803,-1963.51 800.58,-1965.15 798.05,-1966.75 795.4,-1968.3 792.66,-1969.79 789.83,-1971.23 786.92,-1972.6 783.95,-1973.9 780.9,-1975.14 777.81,-1976.3 774.66,-1977.38 771.48,-1978.39 768.26,-1979.31 765.01,-1980.15 761.73,-1980.9 758.43,-1981.56 755.12,-1982.13 751.79,-1982.61 748.45,-1982.99 745.1,-1983.28 741.75,-1983.47 738.39,-1983.57 735.04,-1983.57 731.68,-1983.47 728.33,-1983.28 724.98,-1982.99 721.64,-1982.61 718.31,-1982.13 715,-1981.56 711.7,-1980.9 708.43,-1980.15 705.17,-1979.31 701.95,-1978.39 698.77,-1977.38 695.62,-1976.3 692.53,-1975.14 689.49,-1973.9 686.51,-1972.6 683.6,-1971.23 680.77,-1969.79 678.03,-1968.3 675.39,-1966.75 672.85,-1965.15 670.43,-1963.51 668.15,-1961.82 666,-1960.1 664.01,-1958.35 662.18,-1956.56 660.52,-1954.76 659.04,-1952.94 657.77,-1951.1 656.69,-1949.26 655.84,-1947.41 655.21,-1945.57 654.81,-1943.74 654.66,-1941.91 654.75,-1940.11 655.1,-1938.32 655.71,-1936.57 656.58,-1934.85 657.72,-1933.16 659.13,-1931.52 660.81,-1929.92 662.76,-1928.37 664.97,-1926.88 667.44,-1925.44 670.17,-1924.07 673.15,-1922.77 676.37,-1921.53 679.82,-1920.37 683.5,-1919.29 687.38,-1918.28 691.46,-1917.36 695.71,-1916.52 700.14,-1915.77 704.71,-1915.11 709.4,-1914.54 714.22,-1914.06 719.12,-1913.68 724.09,-1913.39 729.12,-1913.2 734.18,-1913.1 739.25,-1913.1 744.31,-1913.2"/>
<text text-anchor="start" x="707.55" y="-1958.14" font-family="Times,serif" font-size="14.00">C0334722</text>
<text text-anchor="start" x="690.25" y="-1944.14" font-family="Times,serif" font-size="14.00">health physicists</text>
<text text-anchor="start" x="720.77" y="-1930.14" font-family="Times,serif" font-size="14.00">67:68</text>
</g>
<!-- id_28027163_DOT_1&#45;&#45;id_28027163_DOT_6 -->
<g id="edge5" class="edge">
<title>id_28027163_DOT_1&#45;&#45;id_28027163_DOT_6</title>
<path fill="none" stroke="black" stroke-dasharray="1,5" d="M990.41,-1740.97C936.12,-1785.34 832.75,-1869.84 776.16,-1916.09"/>
<text text-anchor="middle" x="857.04" y="-1831.33" font-family="Times,serif" font-size="14.00">0.571983</text>
</g>
<!-- id_28027163_DOT_16 -->
<g id="node16" class="node">
<title>id_28027163_DOT_16</title>
<polygon fill="aquamarine" stroke="aquamarine" points="1571.84,-1124.59 1576.26,-1124.79 1580.64,-1125.07 1584.95,-1125.46 1589.17,-1125.94 1593.31,-1126.51 1597.32,-1127.17 1601.21,-1127.92 1604.95,-1128.76 1608.54,-1129.68 1611.95,-1130.68 1615.18,-1131.77 1618.21,-1132.93 1621.05,-1134.16 1623.66,-1135.47 1626.06,-1136.84 1628.24,-1138.27 1630.18,-1139.77 1631.89,-1141.31 1633.37,-1142.91 1634.61,-1144.56 1635.61,-1146.24 1636.38,-1147.97 1636.92,-1149.72 1637.22,-1151.5 1637.31,-1153.31 1637.17,-1155.13 1636.82,-1156.97 1636.27,-1158.81 1635.51,-1160.65 1634.57,-1162.5 1633.45,-1164.33 1632.15,-1166.15 1630.69,-1167.96 1629.08,-1169.74 1627.33,-1171.5 1625.44,-1173.22 1623.43,-1174.91 1621.31,-1176.55 1619.08,-1178.15 1616.76,-1179.7 1614.35,-1181.19 1611.86,-1182.62 1609.3,-1183.99 1606.68,-1185.3 1604.01,-1186.53 1601.29,-1187.7 1598.53,-1188.78 1595.72,-1189.78 1592.89,-1190.71 1590.04,-1191.55 1587.16,-1192.3 1584.26,-1192.96 1581.34,-1193.53 1578.42,-1194 1575.48,-1194.39 1572.54,-1194.68 1569.59,-1194.87 1566.64,-1194.97 1563.69,-1194.97 1560.74,-1194.87 1557.79,-1194.68 1554.85,-1194.39 1551.91,-1194 1548.99,-1193.53 1546.07,-1192.96 1543.18,-1192.3 1540.3,-1191.55 1537.44,-1190.71 1534.61,-1189.78 1531.81,-1188.78 1529.04,-1187.7 1526.32,-1186.53 1523.65,-1185.3 1521.03,-1183.99 1518.47,-1182.62 1515.98,-1181.19 1513.57,-1179.7 1511.25,-1178.15 1509.02,-1176.55 1506.9,-1174.91 1504.89,-1173.22 1503,-1171.5 1501.25,-1169.74 1499.64,-1167.96 1498.18,-1166.15 1496.88,-1164.33 1495.76,-1162.5 1494.82,-1160.65 1494.07,-1158.81 1493.51,-1156.97 1493.16,-1155.13 1493.03,-1153.31 1493.11,-1151.5 1493.42,-1149.72 1493.95,-1147.97 1494.72,-1146.24 1495.72,-1144.56 1496.96,-1142.91 1498.44,-1141.31 1500.15,-1139.77 1502.09,-1138.27 1504.27,-1136.84 1506.67,-1135.47 1509.29,-1134.16 1512.12,-1132.93 1515.15,-1131.77 1518.38,-1130.68 1521.79,-1129.68 1525.38,-1128.76 1529.12,-1127.92 1533.01,-1127.17 1537.02,-1126.51 1541.16,-1125.94 1545.39,-1125.46 1549.7,-1125.07 1554.07,-1124.79 1558.49,-1124.59 1562.94,-1124.5 1567.39,-1124.5 1571.84,-1124.59"/>
<text text-anchor="start" x="1536" y="-1169.53" font-family="Times,serif" font-size="14.00">C0018725</text>
<text text-anchor="start" x="1525.31" y="-1155.53" font-family="Times,serif" font-size="14.00">health physics</text>
<text text-anchor="start" x="1542.22" y="-1141.53" font-family="Times,serif" font-size="14.00">199:200</text>
</g>
<!-- id_28027163_DOT_2&#45;&#45;id_28027163_DOT_16 -->
<g id="edge2" class="edge">
<title>id_28027163_DOT_2&#45;&#45;id_28027163_DOT_16</title>
<path fill="none" stroke="black" d="M1333.62,-1420.13C1384.41,-1363.01 1487.83,-1246.71 1537.42,-1190.93"/>
<text text-anchor="middle" x="1409.27" y="-1308.33" font-family="Times,serif" font-size="14.00">0.065456</text>
</g>
<!-- id_28027163_DOT_3 -->
<g id="node3" class="node">
<title>id_28027163_DOT_3</title>
<polygon fill="bisque" stroke="bisque" points="1564.05,-411.4 1570.19,-411.6 1576.28,-411.88 1582.27,-412.27 1588.15,-412.75 1593.89,-413.32 1599.48,-413.98 1604.88,-414.73 1610.09,-415.57 1615.07,-416.49 1619.81,-417.49 1624.3,-418.58 1628.52,-419.74 1632.46,-420.97 1636.1,-422.28 1639.44,-423.65 1642.46,-425.08 1645.17,-426.58 1647.54,-428.12 1649.6,-429.72 1651.32,-431.37 1652.71,-433.05 1653.78,-434.78 1654.53,-436.53 1654.95,-438.31 1655.07,-440.12 1654.88,-441.94 1654.39,-443.78 1653.62,-445.62 1652.58,-447.46 1651.27,-449.31 1649.7,-451.14 1647.9,-452.96 1645.88,-454.77 1643.64,-456.55 1641.2,-458.31 1638.58,-460.03 1635.78,-461.72 1632.83,-463.36 1629.73,-464.96 1626.5,-466.51 1623.15,-468 1619.69,-469.43 1616.14,-470.8 1612.49,-472.11 1608.78,-473.34 1604.99,-474.51 1601.15,-475.59 1597.26,-476.59 1593.32,-477.52 1589.35,-478.36 1585.34,-479.11 1581.31,-479.77 1577.26,-480.34 1573.19,-480.81 1569.11,-481.2 1565.02,-481.49 1560.92,-481.68 1556.82,-481.78 1552.72,-481.78 1548.61,-481.68 1544.52,-481.49 1540.42,-481.2 1536.34,-480.81 1532.27,-480.34 1528.22,-479.77 1524.19,-479.11 1520.19,-478.36 1516.22,-477.52 1512.28,-476.59 1508.39,-475.59 1504.54,-474.51 1500.76,-473.34 1497.04,-472.11 1493.4,-470.8 1489.84,-469.43 1486.39,-468 1483.04,-466.51 1479.8,-464.96 1476.71,-463.36 1473.75,-461.72 1470.96,-460.03 1468.34,-458.31 1465.9,-456.55 1463.66,-454.77 1461.63,-452.96 1459.83,-451.14 1458.27,-449.31 1456.96,-447.46 1455.91,-445.62 1455.14,-443.78 1454.66,-441.94 1454.47,-440.12 1454.58,-438.31 1455.01,-436.53 1455.75,-434.78 1456.82,-433.05 1458.22,-431.37 1459.94,-429.72 1461.99,-428.12 1464.37,-426.58 1467.07,-425.08 1470.1,-423.65 1473.43,-422.28 1477.07,-420.97 1481.01,-419.74 1485.23,-418.58 1489.72,-417.49 1494.46,-416.49 1499.45,-415.57 1504.65,-414.73 1510.06,-413.98 1515.64,-413.32 1521.39,-412.75 1527.27,-412.27 1533.26,-411.88 1539.34,-411.6 1545.49,-411.4 1551.67,-411.31 1557.87,-411.31 1564.05,-411.4"/>
<text text-anchor="start" x="1525.6" y="-456.34" font-family="Times,serif" font-size="14.00">C0182598</text>
<text text-anchor="start" x="1496.27" y="-442.34" font-family="Times,serif" font-size="14.00">radioactive materials</text>
<text text-anchor="start" x="1538.82" y="-428.34" font-family="Times,serif" font-size="14.00">23:24</text>
</g>
<!-- id_28027163_DOT_12 -->
<g id="node12" class="node">
<title>id_28027163_DOT_12</title>
<polygon fill="darkgoldenrod" stroke="darkgoldenrod" points="1800.74,-777.23 1804.15,-777.42 1807.53,-777.71 1810.85,-778.1 1814.12,-778.57 1817.31,-779.14 1820.41,-779.81 1823.41,-780.56 1826.3,-781.39 1829.07,-782.32 1831.7,-783.32 1834.19,-784.41 1836.53,-785.57 1838.72,-786.8 1840.74,-788.11 1842.59,-789.48 1844.27,-790.91 1845.77,-792.41 1847.09,-793.95 1848.23,-795.55 1849.19,-797.2 1849.96,-798.88 1850.56,-800.6 1850.97,-802.36 1851.21,-804.14 1851.27,-805.95 1851.17,-807.77 1850.9,-809.6 1850.47,-811.45 1849.89,-813.29 1849.16,-815.13 1848.29,-816.97 1847.29,-818.79 1846.17,-820.6 1844.92,-822.38 1843.57,-824.14 1842.12,-825.86 1840.56,-827.54 1838.92,-829.19 1837.2,-830.79 1835.41,-832.33 1833.55,-833.83 1831.63,-835.26 1829.66,-836.63 1827.64,-837.94 1825.57,-839.17 1823.47,-840.33 1821.34,-841.42 1819.18,-842.42 1816.99,-843.35 1814.78,-844.18 1812.56,-844.93 1810.32,-845.6 1808.07,-846.17 1805.82,-846.64 1803.55,-847.03 1801.28,-847.32 1799,-847.51 1796.73,-847.6 1794.45,-847.6 1792.17,-847.51 1789.89,-847.32 1787.62,-847.03 1785.36,-846.64 1783.1,-846.17 1780.85,-845.6 1778.61,-844.93 1776.39,-844.18 1774.18,-843.35 1772,-842.42 1769.84,-841.42 1767.7,-840.33 1765.6,-839.17 1763.54,-837.94 1761.52,-836.63 1759.54,-835.26 1757.62,-833.83 1755.76,-832.33 1753.97,-830.79 1752.25,-829.19 1750.61,-827.54 1749.06,-825.86 1747.6,-824.14 1746.25,-822.38 1745,-820.6 1743.88,-818.79 1742.88,-816.97 1742.01,-815.13 1741.29,-813.29 1740.7,-811.45 1740.28,-809.6 1740.01,-807.77 1739.9,-805.95 1739.97,-804.14 1740.2,-802.36 1740.62,-800.6 1741.21,-798.88 1741.98,-797.2 1742.94,-795.55 1744.08,-793.95 1745.4,-792.41 1746.9,-790.91 1748.58,-789.48 1750.43,-788.11 1752.45,-786.8 1754.64,-785.57 1756.98,-784.41 1759.47,-783.32 1762.11,-782.32 1764.87,-781.39 1767.76,-780.56 1770.76,-779.81 1773.86,-779.14 1777.05,-778.57 1780.32,-778.1 1783.65,-777.71 1787.02,-777.42 1790.43,-777.23 1793.87,-777.13 1797.31,-777.13 1800.74,-777.23"/>
<text text-anchor="start" x="1766.67" y="-822.17" font-family="Times,serif" font-size="14.00">C0025118</text>
<text text-anchor="start" x="1769.93" y="-808.17" font-family="Times,serif" font-size="14.00">medicine</text>
<text text-anchor="start" x="1772.64" y="-794.17" font-family="Times,serif" font-size="14.00">134:134</text>
</g>
<!-- id_28027163_DOT_3&#45;&#45;id_28027163_DOT_12 -->
<g id="edge6" class="edge">
<title>id_28027163_DOT_3&#45;&#45;id_28027163_DOT_12</title>
<path fill="none" stroke="black" stroke-dasharray="1,5" d="M1577.21,-480.63C1623.27,-550.6 1728,-709.69 1773.64,-779.03"/>
<text text-anchor="middle" x="1649.17" y="-632.63" font-family="Times,serif" font-size="14.00">0.475845</text>
</g>
<!-- id_28027163_DOT_18 -->
<g id="node18" class="node">
<title>id_28027163_DOT_18</title>
<polygon fill="bisque" stroke="bisque" points="1543.59,-0.23 1549.73,-0.42 1555.81,-0.71 1561.8,-1.09 1567.69,-1.57 1573.43,-2.14 1579.01,-2.8 1584.42,-3.55 1589.62,-4.39 1594.61,-5.31 1599.35,-6.32 1603.84,-7.4 1608.06,-8.57 1612,-9.8 1615.64,-11.1 1618.97,-12.48 1622,-13.91 1624.7,-15.4 1627.08,-16.95 1629.13,-18.55 1630.86,-20.19 1632.25,-21.88 1633.32,-23.6 1634.06,-25.36 1634.49,-27.14 1634.6,-28.94 1634.41,-30.77 1633.93,-32.6 1633.16,-34.44 1632.11,-36.29 1630.8,-38.13 1629.24,-39.97 1627.44,-41.79 1625.41,-43.6 1623.17,-45.38 1620.74,-47.13 1618.11,-48.86 1615.32,-50.54 1612.36,-52.19 1609.27,-53.78 1606.04,-55.33 1602.69,-56.82 1599.23,-58.26 1595.67,-59.63 1592.03,-60.94 1588.31,-62.17 1584.53,-63.33 1580.69,-64.42 1576.79,-65.42 1572.86,-66.34 1568.88,-67.18 1564.88,-67.93 1560.85,-68.59 1556.8,-69.16 1552.73,-69.64 1548.65,-70.02 1544.56,-70.31 1540.46,-70.51 1536.36,-70.6 1532.25,-70.6 1528.15,-70.51 1524.05,-70.31 1519.96,-70.02 1515.88,-69.64 1511.81,-69.16 1507.76,-68.59 1503.73,-67.93 1499.73,-67.18 1495.75,-66.34 1491.82,-65.42 1487.92,-64.42 1484.08,-63.33 1480.29,-62.17 1476.58,-60.94 1472.94,-59.63 1469.38,-58.26 1465.92,-56.82 1462.57,-55.33 1459.34,-53.78 1456.24,-52.19 1453.29,-50.54 1450.5,-48.86 1447.87,-47.13 1445.43,-45.38 1443.19,-43.6 1441.17,-41.79 1439.37,-39.97 1437.81,-38.13 1436.5,-36.29 1435.45,-34.44 1434.68,-32.6 1434.19,-30.77 1434,-28.94 1434.12,-27.14 1434.54,-25.36 1435.29,-23.6 1436.36,-21.88 1437.75,-20.19 1439.48,-18.55 1441.53,-16.95 1443.91,-15.4 1446.61,-13.91 1449.63,-12.48 1452.97,-11.1 1456.61,-9.8 1460.55,-8.57 1464.77,-7.4 1469.26,-6.32 1474,-5.31 1478.98,-4.39 1484.19,-3.55 1489.59,-2.8 1495.18,-2.14 1500.92,-1.57 1506.8,-1.09 1512.8,-0.71 1518.88,-0.42 1525.02,-0.23 1531.21,-0.13 1537.4,-0.13 1543.59,-0.23"/>
<text text-anchor="start" x="1505.13" y="-45.17" font-family="Times,serif" font-size="14.00">C0182598</text>
<text text-anchor="start" x="1475.81" y="-31.17" font-family="Times,serif" font-size="14.00">radioactive materials</text>
<text text-anchor="start" x="1511.36" y="-17.17" font-family="Times,serif" font-size="14.00">214:215</text>
</g>
<!-- id_28027163_DOT_3&#45;&#45;id_28027163_DOT_18 -->
<g id="edge3" class="edge">
<title>id_28027163_DOT_3&#45;&#45;id_28027163_DOT_18</title>
<path fill="none" stroke="black" d="M1553.01,-411.13C1549.14,-333.41 1539.94,-148.62 1536.07,-70.84"/>
<text text-anchor="middle" x="1518.29" y="-243.78" font-family="Times,serif" font-size="14.00">0.034602</text>
</g>
<!-- id_28027163_DOT_20 -->
<g id="node20" class="node">
<title>id_28027163_DOT_20</title>
<polygon fill="darksalmon" stroke="darksalmon" points="1194.56,-271.76 1201.45,-271.96 1208.27,-272.24 1214.98,-272.63 1221.57,-273.11 1228.01,-273.68 1234.27,-274.34 1240.33,-275.09 1246.16,-275.93 1251.75,-276.85 1257.06,-277.85 1262.1,-278.94 1266.83,-280.1 1271.24,-281.33 1275.32,-282.64 1279.06,-284.01 1282.45,-285.44 1285.48,-286.94 1288.14,-288.48 1290.44,-290.08 1292.37,-291.73 1293.94,-293.41 1295.13,-295.14 1295.97,-296.89 1296.45,-298.67 1296.58,-300.48 1296.36,-302.3 1295.82,-304.14 1294.96,-305.98 1293.78,-307.82 1292.31,-309.67 1290.56,-311.5 1288.55,-313.32 1286.27,-315.13 1283.76,-316.91 1281.03,-318.67 1278.09,-320.39 1274.96,-322.08 1271.65,-323.72 1268.18,-325.32 1264.56,-326.87 1260.8,-328.36 1256.93,-329.79 1252.94,-331.16 1248.86,-332.47 1244.69,-333.7 1240.45,-334.87 1236.14,-335.95 1231.78,-336.95 1227.37,-337.88 1222.91,-338.72 1218.43,-339.47 1213.91,-340.13 1209.37,-340.7 1204.81,-341.18 1200.24,-341.56 1195.65,-341.85 1191.06,-342.04 1186.46,-342.14 1181.86,-342.14 1177.26,-342.04 1172.67,-341.85 1168.08,-341.56 1163.51,-341.18 1158.95,-340.7 1154.41,-340.13 1149.89,-339.47 1145.4,-338.72 1140.95,-337.88 1136.54,-336.95 1132.18,-335.95 1127.87,-334.87 1123.63,-333.7 1119.46,-332.47 1115.38,-331.16 1111.39,-329.79 1107.52,-328.36 1103.76,-326.87 1100.14,-325.32 1096.67,-323.72 1093.36,-322.08 1090.23,-320.39 1087.29,-318.67 1084.55,-316.91 1082.05,-315.13 1079.77,-313.32 1077.76,-311.5 1076.01,-309.67 1074.54,-307.82 1073.36,-305.98 1072.5,-304.14 1071.96,-302.3 1071.74,-300.48 1071.87,-298.67 1072.35,-296.89 1073.19,-295.14 1074.38,-293.41 1075.95,-291.73 1077.88,-290.08 1080.18,-288.48 1082.84,-286.94 1085.87,-285.44 1089.26,-284.01 1093,-282.64 1097.08,-281.33 1101.49,-280.1 1106.22,-278.94 1111.26,-277.85 1116.57,-276.85 1122.16,-275.93 1127.99,-275.09 1134.05,-274.34 1140.31,-273.68 1146.75,-273.11 1153.34,-272.63 1160.05,-272.24 1166.87,-271.96 1173.76,-271.76 1180.69,-271.67 1187.63,-271.67 1194.56,-271.76"/>
<text text-anchor="start" x="1154.99" y="-316.7" font-family="Times,serif" font-size="14.00">C1273796</text>
<text text-anchor="start" x="1117.49" y="-302.7" font-family="Times,serif" font-size="14.00">disappearing specialties</text>
<text text-anchor="start" x="1161.21" y="-288.7" font-family="Times,serif" font-size="14.00">254:255</text>
</g>
<!-- id_28027163_DOT_3&#45;&#45;id_28027163_DOT_20 -->
<g id="edge7" class="edge">
<title>id_28027163_DOT_3&#45;&#45;id_28027163_DOT_20</title>
<path fill="none" stroke="black" stroke-dasharray="1,5" d="M1482.43,-419.29C1415.23,-393.97 1315.98,-356.57 1250.71,-331.98"/>
<text text-anchor="middle" x="1340.32" y="-378.43" font-family="Times,serif" font-size="14.00">0.795907</text>
</g>
<!-- id_28027163_DOT_4 -->
<g id="node4" class="node">
<title>id_28027163_DOT_4</title>
<polygon fill="blue" stroke="blue" points="3775.46,-1809.52 3781.43,-1809.71 3787.34,-1810 3793.16,-1810.39 3798.87,-1810.86 3804.45,-1811.43 3809.88,-1812.1 3815.13,-1812.85 3820.19,-1813.68 3825.03,-1814.61 3829.63,-1815.61 3834,-1816.7 3838.1,-1817.86 3841.92,-1819.09 3845.46,-1820.4 3848.7,-1821.77 3851.63,-1823.2 3854.26,-1824.7 3856.57,-1826.24 3858.56,-1827.84 3860.24,-1829.49 3861.59,-1831.17 3862.63,-1832.89 3863.35,-1834.65 3863.77,-1836.43 3863.88,-1838.24 3863.7,-1840.06 3863.22,-1841.89 3862.48,-1843.74 3861.46,-1845.58 3860.19,-1847.43 3858.67,-1849.26 3856.92,-1851.08 3854.95,-1852.89 3852.78,-1854.67 3850.41,-1856.43 3847.86,-1858.15 3845.15,-1859.83 3842.28,-1861.48 3839.27,-1863.08 3836.13,-1864.62 3832.87,-1866.12 3829.51,-1867.55 3826.06,-1868.92 3822.52,-1870.23 3818.91,-1871.46 3815.24,-1872.62 3811.5,-1873.71 3807.72,-1874.71 3803.9,-1875.64 3800.04,-1876.47 3796.15,-1877.22 3792.23,-1877.89 3788.3,-1878.46 3784.35,-1878.93 3780.38,-1879.32 3776.41,-1879.61 3772.43,-1879.8 3768.44,-1879.9 3764.45,-1879.9 3760.47,-1879.8 3756.49,-1879.61 3752.51,-1879.32 3748.55,-1878.93 3744.6,-1878.46 3740.66,-1877.89 3736.75,-1877.22 3732.86,-1876.47 3729,-1875.64 3725.17,-1874.71 3721.39,-1873.71 3717.66,-1872.62 3713.98,-1871.46 3710.37,-1870.23 3706.83,-1868.92 3703.38,-1867.55 3700.02,-1866.12 3696.77,-1864.62 3693.63,-1863.08 3690.62,-1861.48 3687.75,-1859.83 3685.04,-1858.15 3682.49,-1856.43 3680.12,-1854.67 3677.94,-1852.89 3675.98,-1851.08 3674.23,-1849.26 3672.71,-1847.43 3671.44,-1845.58 3670.42,-1843.74 3669.67,-1841.89 3669.2,-1840.06 3669.02,-1838.24 3669.13,-1836.43 3669.54,-1834.65 3670.27,-1832.89 3671.3,-1831.17 3672.66,-1829.49 3674.33,-1827.84 3676.32,-1826.24 3678.63,-1824.7 3681.26,-1823.2 3684.2,-1821.77 3687.44,-1820.4 3690.98,-1819.09 3694.8,-1817.86 3698.9,-1816.7 3703.26,-1815.61 3707.87,-1814.61 3712.71,-1813.68 3717.76,-1812.85 3723.01,-1812.1 3728.44,-1811.43 3734.02,-1810.86 3739.73,-1810.39 3745.55,-1810 3751.46,-1809.71 3757.43,-1809.52 3763.44,-1809.42 3769.46,-1809.42 3775.46,-1809.52"/>
<text text-anchor="start" x="3737.28" y="-1854.46" font-family="Times,serif" font-size="14.00">C0349674</text>
<text text-anchor="start" x="3709.9" y="-1840.46" font-family="Times,serif" font-size="14.00">unprecedented scale</text>
<text text-anchor="start" x="3750.5" y="-1826.46" font-family="Times,serif" font-size="14.00">46:47</text>
</g>
<!-- id_28027163_DOT_10 -->
<g id="node10" class="node">
<title>id_28027163_DOT_10</title>
<polygon fill="cornflowerblue" stroke="cornflowerblue" points="3505.54,-1544.3 3510.26,-1544.5 3514.94,-1544.78 3519.55,-1545.17 3524.08,-1545.65 3528.49,-1546.22 3532.79,-1546.88 3536.95,-1547.63 3540.95,-1548.47 3544.78,-1549.39 3548.43,-1550.39 3551.89,-1551.48 3555.13,-1552.64 3558.16,-1553.87 3560.96,-1555.18 3563.53,-1556.55 3565.85,-1557.98 3567.93,-1559.48 3569.76,-1561.03 3571.34,-1562.62 3572.67,-1564.27 3573.74,-1565.95 3574.56,-1567.68 3575.13,-1569.43 3575.46,-1571.21 3575.55,-1573.02 3575.4,-1574.84 3575.03,-1576.68 3574.44,-1578.52 3573.63,-1580.36 3572.63,-1582.21 3571.42,-1584.04 3570.04,-1585.87 3568.48,-1587.67 3566.76,-1589.45 3564.88,-1591.21 3562.86,-1592.93 3560.71,-1594.62 3558.44,-1596.26 3556.06,-1597.86 3553.58,-1599.41 3551,-1600.9 3548.34,-1602.33 3545.6,-1603.71 3542.8,-1605.01 3539.94,-1606.24 3537.03,-1607.41 3534.08,-1608.49 3531.08,-1609.5 3528.05,-1610.42 3525,-1611.26 3521.92,-1612.01 3518.82,-1612.67 3515.7,-1613.24 3512.57,-1613.72 3509.43,-1614.1 3506.28,-1614.39 3503.13,-1614.58 3499.98,-1614.68 3496.82,-1614.68 3493.67,-1614.58 3490.51,-1614.39 3487.37,-1614.1 3484.23,-1613.72 3481.1,-1613.24 3477.98,-1612.67 3474.88,-1612.01 3471.8,-1611.26 3468.74,-1610.42 3465.72,-1609.5 3462.72,-1608.49 3459.77,-1607.41 3456.85,-1606.24 3453.99,-1605.01 3451.19,-1603.71 3448.46,-1602.33 3445.8,-1600.9 3443.22,-1599.41 3440.74,-1597.86 3438.35,-1596.26 3436.08,-1594.62 3433.93,-1592.93 3431.92,-1591.21 3430.04,-1589.45 3428.32,-1587.67 3426.76,-1585.87 3425.37,-1584.04 3424.17,-1582.21 3423.16,-1580.36 3422.36,-1578.52 3421.77,-1576.68 3421.39,-1574.84 3421.25,-1573.02 3421.34,-1571.21 3421.66,-1569.43 3422.24,-1567.68 3423.06,-1565.95 3424.13,-1564.27 3425.46,-1562.62 3427.03,-1561.03 3428.86,-1559.48 3430.94,-1557.98 3433.27,-1556.55 3435.84,-1555.18 3438.64,-1553.87 3441.66,-1552.64 3444.91,-1551.48 3448.36,-1550.39 3452.01,-1549.39 3455.85,-1548.47 3459.85,-1547.63 3464.01,-1546.88 3468.3,-1546.22 3472.72,-1545.65 3477.24,-1545.17 3481.85,-1544.78 3486.53,-1544.5 3491.26,-1544.3 3496.02,-1544.21 3500.78,-1544.21 3505.54,-1544.3"/>
<text text-anchor="start" x="3469.23" y="-1589.24" font-family="Times,serif" font-size="14.00">C0205391</text>
<text text-anchor="start" x="3455.06" y="-1575.24" font-family="Times,serif" font-size="14.00">prevalent today</text>
<text text-anchor="start" x="3475.45" y="-1561.24" font-family="Times,serif" font-size="14.00">100:101</text>
</g>
<!-- id_28027163_DOT_4&#45;&#45;id_28027163_DOT_10 -->
<g id="edge8" class="edge">
<title>id_28027163_DOT_4&#45;&#45;id_28027163_DOT_10</title>
<path fill="none" stroke="black" stroke-dasharray="1,5" d="M3732.23,-1810.8C3679.72,-1758.85 3580.08,-1660.26 3529.51,-1610.22"/>
<text text-anchor="middle" x="3604.62" y="-1713.31" font-family="Times,serif" font-size="14.00">0.674257</text>
</g>
<!-- id_28027163_DOT_5 -->
<g id="node5" class="node">
<title>id_28027163_DOT_5</title>
<polygon fill="blueviolet" stroke="blueviolet" points="3740.06,-524.87 3743.84,-525.06 3747.57,-525.35 3751.26,-525.73 3754.87,-526.21 3758.4,-526.78 3761.83,-527.44 3765.15,-528.19 3768.35,-529.03 3771.41,-529.95 3774.32,-530.96 3777.08,-532.04 3779.67,-533.2 3782.09,-534.44 3784.33,-535.74 3786.38,-537.11 3788.24,-538.55 3789.9,-540.04 3791.36,-541.59 3792.62,-543.19 3793.68,-544.83 3794.53,-546.52 3795.19,-548.24 3795.65,-549.99 3795.91,-551.78 3795.98,-553.58 3795.86,-555.4 3795.57,-557.24 3795.09,-559.08 3794.45,-560.93 3793.65,-562.77 3792.69,-564.6 3791.58,-566.43 3790.33,-568.23 3788.96,-570.01 3787.46,-571.77 3785.85,-573.49 3784.13,-575.18 3782.32,-576.82 3780.41,-578.42 3778.43,-579.97 3776.37,-581.46 3774.25,-582.9 3772.06,-584.27 3769.83,-585.57 3767.54,-586.81 3765.22,-587.97 3762.86,-589.05 3760.46,-590.06 3758.04,-590.98 3755.6,-591.82 3753.14,-592.57 3750.67,-593.23 3748.18,-593.8 3745.68,-594.28 3743.17,-594.66 3740.66,-594.95 3738.14,-595.14 3735.62,-595.24 3733.1,-595.24 3730.58,-595.14 3728.06,-594.95 3725.55,-594.66 3723.04,-594.28 3720.54,-593.8 3718.05,-593.23 3715.58,-592.57 3713.12,-591.82 3710.67,-590.98 3708.26,-590.06 3705.86,-589.05 3703.5,-587.97 3701.18,-586.81 3698.89,-585.57 3696.66,-584.27 3694.47,-582.9 3692.35,-581.46 3690.29,-579.97 3688.3,-578.42 3686.4,-576.82 3684.59,-575.18 3682.87,-573.49 3681.26,-571.77 3679.76,-570.01 3678.39,-568.23 3677.14,-566.43 3676.03,-564.6 3675.07,-562.77 3674.27,-560.93 3673.63,-559.08 3673.15,-557.24 3672.85,-555.4 3672.74,-553.58 3672.81,-551.78 3673.07,-549.99 3673.53,-548.24 3674.18,-546.52 3675.04,-544.83 3676.1,-543.19 3677.36,-541.59 3678.82,-540.04 3680.48,-538.55 3682.34,-537.11 3684.39,-535.74 3686.63,-534.44 3689.05,-533.2 3691.64,-532.04 3694.4,-530.96 3697.31,-529.95 3700.37,-529.03 3703.57,-528.19 3706.89,-527.44 3710.32,-526.78 3713.85,-526.21 3717.46,-525.73 3721.15,-525.35 3724.88,-525.06 3728.66,-524.87 3732.46,-524.77 3736.26,-524.77 3740.06,-524.87"/>
<text text-anchor="start" x="3705.19" y="-569.8" font-family="Times,serif" font-size="14.00">C0022877</text>
<text text-anchor="start" x="3701.32" y="-555.8" font-family="Times,serif" font-size="14.00">laboratories</text>
<text text-anchor="start" x="3718.41" y="-541.8" font-family="Times,serif" font-size="14.00">60:60</text>
</g>
<!-- id_28027163_DOT_19 -->
<g id="node19" class="node">
<title>id_28027163_DOT_19</title>
<polygon fill="darkred" stroke="darkred" points="3345.71,-552.56 3351.7,-552.75 3357.62,-553.04 3363.46,-553.43 3369.19,-553.9 3374.79,-554.48 3380.23,-555.14 3385.5,-555.89 3390.57,-556.72 3395.42,-557.65 3400.05,-558.65 3404.42,-559.74 3408.53,-560.9 3412.37,-562.13 3415.92,-563.44 3419.17,-564.81 3422.12,-566.24 3424.75,-567.74 3427.07,-569.28 3429.07,-570.88 3430.75,-572.53 3432.11,-574.21 3433.15,-575.93 3433.87,-577.69 3434.29,-579.47 3434.4,-581.28 3434.21,-583.1 3433.74,-584.94 3432.99,-586.78 3431.97,-588.62 3430.69,-590.47 3429.17,-592.3 3427.42,-594.12 3425.44,-595.93 3423.26,-597.71 3420.89,-599.47 3418.33,-601.19 3415.61,-602.88 3412.73,-604.52 3409.71,-606.12 3406.56,-607.67 3403.3,-609.16 3399.93,-610.59 3396.46,-611.96 3392.92,-613.27 3389.29,-614.5 3385.6,-615.66 3381.86,-616.75 3378.07,-617.75 3374.23,-618.68 3370.36,-619.51 3366.46,-620.27 3362.53,-620.93 3358.58,-621.5 3354.62,-621.97 3350.64,-622.36 3346.65,-622.65 3342.66,-622.84 3338.66,-622.94 3334.67,-622.94 3330.67,-622.84 3326.68,-622.65 3322.69,-622.36 3318.71,-621.97 3314.75,-621.5 3310.8,-620.93 3306.87,-620.27 3302.97,-619.51 3299.1,-618.68 3295.26,-617.75 3291.47,-616.75 3287.72,-615.66 3284.04,-614.5 3280.41,-613.27 3276.87,-611.96 3273.4,-610.59 3270.03,-609.16 3266.77,-607.67 3263.62,-606.12 3260.6,-604.52 3257.72,-602.88 3255,-601.19 3252.44,-599.47 3250.07,-597.71 3247.89,-595.93 3245.91,-594.12 3244.16,-592.3 3242.64,-590.47 3241.36,-588.62 3240.34,-586.78 3239.59,-584.94 3239.11,-583.1 3238.93,-581.28 3239.04,-579.47 3239.46,-577.69 3240.18,-575.93 3241.22,-574.21 3242.58,-572.53 3244.26,-570.88 3246.26,-569.28 3248.58,-567.74 3251.21,-566.24 3254.16,-564.81 3257.41,-563.44 3260.96,-562.13 3264.79,-560.9 3268.91,-559.74 3273.28,-558.65 3277.9,-557.65 3282.76,-556.72 3287.83,-555.89 3293.1,-555.14 3298.54,-554.48 3304.14,-553.9 3309.87,-553.43 3315.71,-553.04 3321.63,-552.75 3327.62,-552.56 3333.65,-552.47 3339.68,-552.47 3345.71,-552.56"/>
<text text-anchor="start" x="3307.5" y="-597.5" font-family="Times,serif" font-size="14.00">C0024679</text>
<text text-anchor="start" x="3279.85" y="-583.5" font-family="Times,serif" font-size="14.00">effectively managed</text>
<text text-anchor="start" x="3313.72" y="-569.5" font-family="Times,serif" font-size="14.00">218:219</text>
</g>
<!-- id_28027163_DOT_5&#45;&#45;id_28027163_DOT_19 -->
<g id="edge9" class="edge">
<title>id_28027163_DOT_5&#45;&#45;id_28027163_DOT_19</title>
<path fill="none" stroke="black" stroke-dasharray="1,5" d="M3675.68,-564.09C3612.26,-568.51 3510.15,-575.62 3434.54,-580.88"/>
<text text-anchor="middle" x="3528.86" y="-575.29" font-family="Times,serif" font-size="14.00">0.899428</text>
</g>
<!-- id_28027163_DOT_15 -->
<g id="node15" class="node">
<title>id_28027163_DOT_15</title>
<polygon fill="darkmagenta" stroke="darkmagenta" points="450.24,-2113.6 466.26,-2113.79 482.12,-2114.08 497.74,-2114.46 513.07,-2114.94 528.05,-2115.51 542.62,-2116.17 556.71,-2116.92 570.27,-2117.76 583.27,-2118.68 595.64,-2119.69 607.34,-2120.77 618.35,-2121.93 628.61,-2123.17 638.1,-2124.47 646.8,-2125.84 654.69,-2127.28 661.74,-2128.77 667.94,-2130.32 673.29,-2131.92 677.78,-2133.56 681.42,-2135.25 684.2,-2136.97 686.14,-2138.72 687.26,-2140.51 687.56,-2142.31 687.06,-2144.13 685.8,-2145.97 683.79,-2147.81 681.06,-2149.66 677.64,-2151.5 673.57,-2153.33 668.87,-2155.16 663.59,-2156.96 657.75,-2158.74 651.4,-2160.5 644.56,-2162.22 637.27,-2163.91 629.57,-2165.55 621.49,-2167.15 613.07,-2168.7 604.33,-2170.19 595.32,-2171.63 586.05,-2173 576.55,-2174.3 566.86,-2175.54 556.99,-2176.7 546.97,-2177.78 536.82,-2178.79 526.56,-2179.71 516.19,-2180.55 505.75,-2181.3 495.25,-2181.96 484.68,-2182.53 474.08,-2183.01 463.43,-2183.39 452.77,-2183.68 442.08,-2183.87 431.39,-2183.97 420.69,-2183.97 409.99,-2183.87 399.31,-2183.68 388.64,-2183.39 378,-2183.01 367.39,-2182.53 356.83,-2181.96 346.32,-2181.3 335.88,-2180.55 325.52,-2179.71 315.25,-2178.79 305.1,-2177.78 295.08,-2176.7 285.21,-2175.54 275.52,-2174.3 266.03,-2173 256.76,-2171.63 247.74,-2170.19 239,-2168.7 230.58,-2167.15 222.5,-2165.55 214.8,-2163.91 207.52,-2162.22 200.68,-2160.5 194.32,-2158.74 188.48,-2156.96 183.2,-2155.16 178.5,-2153.33 174.43,-2151.5 171.01,-2149.66 168.29,-2147.81 166.28,-2145.97 165.01,-2144.13 164.52,-2142.31 164.82,-2140.51 165.93,-2138.72 167.87,-2136.97 170.66,-2135.25 174.29,-2133.56 178.78,-2131.92 184.13,-2130.32 190.34,-2128.77 197.39,-2127.28 205.27,-2125.84 213.97,-2124.47 223.46,-2123.17 233.73,-2121.93 244.73,-2120.77 256.43,-2119.69 268.81,-2118.68 281.8,-2117.76 295.37,-2116.92 309.46,-2116.17 324.02,-2115.51 339,-2114.94 354.33,-2114.46 369.96,-2114.08 385.81,-2113.79 401.84,-2113.6 417.96,-2113.5 434.11,-2113.5 450.24,-2113.6"/>
<text text-anchor="start" x="396.87" y="-2158.53" font-family="Times,serif" font-size="14.00">C3873809</text>
<text text-anchor="start" x="260.23" y="-2144.53" font-family="Times,serif" font-size="14.00">Instruments for the detection and measurement of radiation</text>
<text text-anchor="start" x="403.09" y="-2130.53" font-family="Times,serif" font-size="14.00">179:186</text>
</g>
<!-- id_28027163_DOT_6&#45;&#45;id_28027163_DOT_15 -->
<g id="edge10" class="edge">
<title>id_28027163_DOT_6&#45;&#45;id_28027163_DOT_15</title>
<path fill="none" stroke="black" stroke-dasharray="1,5" d="M694.17,-1975.78C638.5,-2011.69 540.89,-2074.65 480.05,-2113.89"/>
<text text-anchor="middle" x="560.86" y="-2047.64" font-family="Times,serif" font-size="14.00">0.828033</text>
</g>
<!-- id_28027163_DOT_7 -->
<g id="node7" class="node">
<title>id_28027163_DOT_7</title>
<polygon fill="cadetblue" stroke="cadetblue" points="93.44,-2251.54 98.68,-2251.73 103.87,-2252.02 108.98,-2252.41 114,-2252.88 118.9,-2253.45 123.66,-2254.12 128.27,-2254.87 132.71,-2255.7 136.96,-2256.63 141.01,-2257.63 144.84,-2258.72 148.44,-2259.88 151.79,-2261.11 154.9,-2262.42 157.75,-2263.79 160.32,-2265.22 162.63,-2266.72 164.66,-2268.26 166.41,-2269.86 167.88,-2271.51 169.07,-2273.19 169.98,-2274.91 170.61,-2276.67 170.98,-2278.45 171.08,-2280.26 170.92,-2282.08 170.5,-2283.91 169.84,-2285.76 168.95,-2287.6 167.83,-2289.45 166.5,-2291.28 164.97,-2293.1 163.24,-2294.91 161.33,-2296.69 159.25,-2298.45 157.01,-2300.17 154.63,-2301.85 152.11,-2303.5 149.47,-2305.1 146.71,-2306.64 143.85,-2308.14 140.9,-2309.57 137.87,-2310.94 134.76,-2312.25 131.59,-2313.48 128.36,-2314.64 125.09,-2315.73 121.77,-2316.73 118.41,-2317.66 115.02,-2318.49 111.6,-2319.24 108.17,-2319.91 104.71,-2320.48 101.24,-2320.95 97.76,-2321.34 94.27,-2321.63 90.77,-2321.82 87.28,-2321.92 83.78,-2321.92 80.28,-2321.82 76.78,-2321.63 73.29,-2321.34 69.81,-2320.95 66.34,-2320.48 62.89,-2319.91 59.45,-2319.24 56.03,-2318.49 52.64,-2317.66 49.28,-2316.73 45.96,-2315.73 42.69,-2314.64 39.46,-2313.48 36.29,-2312.25 33.18,-2310.94 30.15,-2309.57 27.2,-2308.14 24.34,-2306.64 21.59,-2305.1 18.94,-2303.5 16.42,-2301.85 14.04,-2300.17 11.8,-2298.45 9.72,-2296.69 7.81,-2294.91 6.09,-2293.1 4.55,-2291.28 3.22,-2289.45 2.1,-2287.6 1.21,-2285.76 0.55,-2283.91 0.14,-2282.08 -0.03,-2280.26 0.07,-2278.45 0.44,-2276.67 1.07,-2274.91 1.98,-2273.19 3.17,-2271.51 4.64,-2269.86 6.39,-2268.26 8.42,-2266.72 10.73,-2265.22 13.31,-2263.79 16.15,-2262.42 19.26,-2261.11 22.61,-2259.88 26.21,-2258.72 30.04,-2257.63 34.09,-2256.63 38.34,-2255.7 42.78,-2254.87 47.39,-2254.12 52.15,-2253.45 57.05,-2252.88 62.07,-2252.41 67.18,-2252.02 72.37,-2251.73 77.61,-2251.54 82.88,-2251.44 88.17,-2251.44 93.44,-2251.54"/>
<text text-anchor="start" x="56.36" y="-2296.48" font-family="Times,serif" font-size="14.00">C0034533</text>
<text text-anchor="start" x="36.74" y="-2282.48" font-family="Times,serif" font-size="14.00">protecting people</text>
<text text-anchor="start" x="69.58" y="-2268.48" font-family="Times,serif" font-size="14.00">70:71</text>
</g>
<!-- id_28027163_DOT_7&#45;&#45;id_28027163_DOT_15 -->
<g id="edge11" class="edge">
<title>id_28027163_DOT_7&#45;&#45;id_28027163_DOT_15</title>
<path fill="none" stroke="black" stroke-dasharray="1,5" d="M150.37,-2260.41C205.85,-2237.93 285.94,-2205.49 345.51,-2181.35"/>
<text text-anchor="middle" x="221.69" y="-2223.68" font-family="Times,serif" font-size="14.00">0.835057</text>
</g>
<!-- id_28027163_DOT_8 -->
<g id="node8" class="node">
<title>id_28027163_DOT_8</title>
<polygon fill="chartreuse" stroke="chartreuse" points="2232.09,-755.86 2235.52,-756.05 2238.91,-756.34 2242.25,-756.72 2245.54,-757.2 2248.74,-757.77 2251.86,-758.43 2254.87,-759.18 2257.77,-760.02 2260.55,-760.95 2263.2,-761.95 2265.71,-763.03 2268.06,-764.2 2270.26,-765.43 2272.29,-766.74 2274.15,-768.11 2275.84,-769.54 2277.34,-771.03 2278.67,-772.58 2279.82,-774.18 2280.78,-775.82 2281.56,-777.51 2282.15,-779.23 2282.57,-780.99 2282.8,-782.77 2282.87,-784.58 2282.76,-786.4 2282.49,-788.23 2282.06,-790.08 2281.48,-791.92 2280.75,-793.76 2279.88,-795.6 2278.87,-797.42 2277.74,-799.23 2276.49,-801.01 2275.13,-802.76 2273.67,-804.49 2272.11,-806.17 2270.46,-807.82 2268.73,-809.42 2266.93,-810.96 2265.06,-812.46 2263.13,-813.89 2261.15,-815.26 2259.12,-816.57 2257.04,-817.8 2254.93,-818.96 2252.79,-820.05 2250.62,-821.05 2248.42,-821.97 2246.2,-822.81 2243.97,-823.56 2241.72,-824.22 2239.46,-824.79 2237.19,-825.27 2234.91,-825.66 2232.63,-825.94 2230.35,-826.14 2228.06,-826.23 2225.77,-826.23 2223.48,-826.14 2221.19,-825.94 2218.91,-825.66 2216.63,-825.27 2214.36,-824.79 2212.1,-824.22 2209.86,-823.56 2207.62,-822.81 2205.4,-821.97 2203.21,-821.05 2201.04,-820.05 2198.89,-818.96 2196.78,-817.8 2194.71,-816.57 2192.68,-815.26 2190.69,-813.89 2188.76,-812.46 2186.89,-810.96 2185.09,-809.42 2183.36,-807.82 2181.72,-806.17 2180.16,-804.49 2178.69,-802.76 2177.33,-801.01 2176.08,-799.23 2174.95,-797.42 2173.95,-795.6 2173.08,-793.76 2172.35,-791.92 2171.76,-790.08 2171.33,-788.23 2171.06,-786.4 2170.96,-784.58 2171.02,-782.77 2171.26,-780.99 2171.67,-779.23 2172.27,-777.51 2173.05,-775.82 2174.01,-774.18 2175.15,-772.58 2176.48,-771.03 2177.99,-769.54 2179.68,-768.11 2181.54,-766.74 2183.57,-765.43 2185.76,-764.2 2188.12,-763.03 2190.62,-761.95 2193.27,-760.95 2196.05,-760.02 2198.95,-759.18 2201.97,-758.43 2205.08,-757.77 2208.29,-757.2 2211.57,-756.72 2214.91,-756.34 2218.31,-756.05 2221.73,-755.86 2225.18,-755.76 2228.64,-755.76 2232.09,-755.86"/>
<text text-anchor="start" x="2197.74" y="-800.8" font-family="Times,serif" font-size="14.00">C0199168</text>
<text text-anchor="start" x="2204.76" y="-786.8" font-family="Times,serif" font-size="14.00">medical</text>
<text text-anchor="start" x="2210.97" y="-772.8" font-family="Times,serif" font-size="14.00">82:82</text>
</g>
<!-- id_28027163_DOT_9 -->
<g id="node9" class="node">
<title>id_28027163_DOT_9</title>
<polygon fill="coral" stroke="coral" points="2290.03,-358.19 2293.46,-358.39 2296.85,-358.67 2300.19,-359.06 2303.47,-359.54 2306.68,-360.11 2309.79,-360.77 2312.81,-361.52 2315.71,-362.36 2318.49,-363.28 2321.14,-364.28 2323.64,-365.37 2326,-366.53 2328.19,-367.76 2330.22,-369.07 2332.09,-370.44 2333.77,-371.87 2335.28,-373.37 2336.61,-374.92 2337.75,-376.51 2338.71,-378.16 2339.49,-379.84 2340.09,-381.57 2340.5,-383.32 2340.74,-385.1 2340.81,-386.91 2340.7,-388.73 2340.43,-390.57 2340,-392.41 2339.41,-394.25 2338.68,-396.1 2337.81,-397.93 2336.81,-399.76 2335.68,-401.56 2334.43,-403.34 2333.07,-405.1 2331.6,-406.82 2330.05,-408.51 2328.4,-410.15 2326.67,-411.75 2324.87,-413.3 2323,-414.79 2321.07,-416.22 2319.09,-417.59 2317.05,-418.9 2314.98,-420.13 2312.87,-421.3 2310.72,-422.38 2308.55,-423.39 2306.36,-424.31 2304.14,-425.15 2301.91,-425.9 2299.66,-426.56 2297.4,-427.13 2295.13,-427.61 2292.85,-427.99 2290.57,-428.28 2288.28,-428.47 2285.99,-428.57 2283.7,-428.57 2281.42,-428.47 2279.13,-428.28 2276.85,-427.99 2274.57,-427.61 2272.3,-427.13 2270.04,-426.56 2267.79,-425.9 2265.56,-425.15 2263.34,-424.31 2261.15,-423.39 2258.97,-422.38 2256.83,-421.3 2254.72,-420.13 2252.64,-418.9 2250.61,-417.59 2248.63,-416.22 2246.7,-414.79 2244.83,-413.3 2243.03,-411.75 2241.3,-410.15 2239.65,-408.51 2238.09,-406.82 2236.63,-405.1 2235.27,-403.34 2234.02,-401.56 2232.89,-399.76 2231.89,-397.93 2231.01,-396.1 2230.28,-394.25 2229.7,-392.41 2229.27,-390.57 2229,-388.73 2228.89,-386.91 2228.96,-385.1 2229.19,-383.32 2229.61,-381.57 2230.21,-379.84 2230.98,-378.16 2231.94,-376.51 2233.09,-374.92 2234.42,-373.37 2235.93,-371.87 2237.61,-370.44 2239.47,-369.07 2241.5,-367.76 2243.7,-366.53 2246.06,-365.37 2248.56,-364.28 2251.21,-363.28 2253.99,-362.36 2256.89,-361.52 2259.9,-360.77 2263.02,-360.11 2266.23,-359.54 2269.51,-359.06 2272.85,-358.67 2276.24,-358.39 2279.67,-358.19 2283.12,-358.1 2286.58,-358.1 2290.03,-358.19"/>
<text text-anchor="start" x="2255.68" y="-403.13" font-family="Times,serif" font-size="14.00">C0035168</text>
<text text-anchor="start" x="2261.53" y="-389.13" font-family="Times,serif" font-size="14.00">research</text>
<text text-anchor="start" x="2268.9" y="-375.13" font-family="Times,serif" font-size="14.00">84:84</text>
</g>
<!-- id_28027163_DOT_8&#45;&#45;id_28027163_DOT_9 -->
<g id="edge12" class="edge">
<title>id_28027163_DOT_8&#45;&#45;id_28027163_DOT_9</title>
<path fill="none" stroke="black" stroke-dasharray="1,5" d="M2232.05,-755.71C2243.05,-680.24 2268.73,-503.94 2279.72,-428.54"/>
<text text-anchor="middle" x="2229.64" y="-594.93" font-family="Times,serif" font-size="14.00">0.832913</text>
</g>
<!-- id_28027163_DOT_11 -->
<g id="node11" class="node">
<title>id_28027163_DOT_11</title>
<polygon fill="crimson" stroke="crimson" points="2638.97,-861.62 2644.74,-861.81 2650.44,-862.1 2656.06,-862.48 2661.58,-862.96 2666.97,-863.53 2672.21,-864.19 2677.28,-864.94 2682.16,-865.78 2686.84,-866.7 2691.29,-867.71 2695.5,-868.79 2699.46,-869.95 2703.15,-871.19 2706.57,-872.49 2709.7,-873.87 2712.53,-875.3 2715.07,-876.79 2717.3,-878.34 2719.23,-879.94 2720.84,-881.58 2722.15,-883.27 2723.15,-884.99 2723.85,-886.75 2724.25,-888.53 2724.36,-890.33 2724.18,-892.16 2723.73,-893.99 2723,-895.83 2722.02,-897.68 2720.79,-899.52 2719.33,-901.36 2717.64,-903.18 2715.74,-904.98 2713.64,-906.77 2711.35,-908.52 2708.89,-910.25 2706.27,-911.93 2703.5,-913.58 2700.59,-915.17 2697.56,-916.72 2694.42,-918.21 2691.17,-919.65 2687.84,-921.02 2684.42,-922.32 2680.93,-923.56 2677.38,-924.72 2673.78,-925.8 2670.12,-926.81 2666.43,-927.73 2662.7,-928.57 2658.95,-929.32 2655.17,-929.98 2651.37,-930.55 2647.55,-931.03 2643.72,-931.41 2639.88,-931.7 2636.04,-931.9 2632.19,-931.99 2628.34,-931.99 2624.49,-931.9 2620.65,-931.7 2616.81,-931.41 2612.98,-931.03 2609.16,-930.55 2605.36,-929.98 2601.58,-929.32 2597.83,-928.57 2594.1,-927.73 2590.4,-926.81 2586.75,-925.8 2583.15,-924.72 2579.6,-923.56 2576.11,-922.32 2572.69,-921.02 2569.36,-919.65 2566.11,-918.21 2562.97,-916.72 2559.94,-915.17 2557.03,-913.58 2554.26,-911.93 2551.64,-910.25 2549.18,-908.52 2546.89,-906.77 2544.79,-904.98 2542.89,-903.18 2541.2,-901.36 2539.74,-899.52 2538.51,-897.68 2537.53,-895.83 2536.8,-893.99 2536.35,-892.16 2536.17,-890.33 2536.28,-888.53 2536.68,-886.75 2537.38,-884.99 2538.38,-883.27 2539.69,-881.58 2541.3,-879.94 2543.23,-878.34 2545.46,-876.79 2548,-875.3 2550.83,-873.87 2553.96,-872.49 2557.38,-871.19 2561.07,-869.95 2565.03,-868.79 2569.24,-867.71 2573.69,-866.7 2578.37,-865.78 2583.25,-864.94 2588.32,-864.19 2593.56,-863.53 2598.95,-862.96 2604.46,-862.48 2610.09,-862.1 2615.79,-861.81 2621.56,-861.62 2627.36,-861.52 2633.17,-861.52 2638.97,-861.62"/>
<text text-anchor="start" x="2601.1" y="-906.56" font-family="Times,serif" font-size="14.00">C0199171</text>
<text text-anchor="start" x="2575.65" y="-892.56" font-family="Times,serif" font-size="14.00">medical procedures</text>
<text text-anchor="start" x="2607.83" y="-878.56" font-family="Times,serif" font-size="14.00">117:118</text>
</g>
<!-- id_28027163_DOT_8&#45;&#45;id_28027163_DOT_11 -->
<g id="edge13" class="edge">
<title>id_28027163_DOT_8&#45;&#45;id_28027163_DOT_11</title>
<path fill="none" stroke="black" stroke-dasharray="1,5" d="M2274.77,-803.55C2342.06,-821.19 2465.63,-853.59 2547.87,-875.15"/>
<text text-anchor="middle" x="2385.07" y="-842.15" font-family="Times,serif" font-size="14.00">0.607054</text>
</g>
<!-- id_28027163_DOT_8&#45;&#45;id_28027163_DOT_12 -->
<g id="edge4" class="edge">
<title>id_28027163_DOT_8&#45;&#45;id_28027163_DOT_12</title>
<path fill="none" stroke="black" d="M2172.72,-793.68C2090.25,-797.77 1934.06,-805.51 1850.92,-809.63"/>
<text text-anchor="middle" x="1985.57" y="-804.46" font-family="Times,serif" font-size="14.00">0.072540</text>
</g>
<!-- id_28027163_DOT_13 -->
<g id="node13" class="node">
<title>id_28027163_DOT_13</title>
<polygon fill="darkgreen" stroke="darkgreen" points="3256.32,-1241.09 3259.73,-1241.28 3263.1,-1241.57 3266.43,-1241.95 3269.7,-1242.43 3272.89,-1243 3275.99,-1243.66 3278.99,-1244.41 3281.88,-1245.25 3284.64,-1246.17 3287.28,-1247.18 3289.77,-1248.26 3292.11,-1249.43 3294.3,-1250.66 3296.32,-1251.97 3298.17,-1253.34 3299.85,-1254.77 3301.35,-1256.26 3302.67,-1257.81 3303.81,-1259.41 3304.77,-1261.05 3305.54,-1262.74 3306.13,-1264.46 3306.55,-1266.22 3306.78,-1268 3306.85,-1269.8 3306.74,-1271.63 3306.47,-1273.46 3306.04,-1275.31 3305.46,-1277.15 3304.74,-1278.99 3303.87,-1280.83 3302.87,-1282.65 3301.74,-1284.46 3300.5,-1286.24 3299.15,-1287.99 3297.69,-1289.72 3296.14,-1291.4 3294.5,-1293.05 3292.78,-1294.64 3290.99,-1296.19 3289.13,-1297.69 3287.21,-1299.12 3285.23,-1300.49 3283.21,-1301.8 3281.15,-1303.03 3279.05,-1304.19 3276.91,-1305.28 3274.75,-1306.28 3272.57,-1307.2 3270.36,-1308.04 3268.14,-1308.79 3265.9,-1309.45 3263.65,-1310.02 3261.39,-1310.5 3259.13,-1310.89 3256.85,-1311.17 3254.58,-1311.37 3252.3,-1311.46 3250.02,-1311.46 3247.75,-1311.37 3245.47,-1311.17 3243.2,-1310.89 3240.93,-1310.5 3238.68,-1310.02 3236.43,-1309.45 3234.19,-1308.79 3231.97,-1308.04 3229.76,-1307.2 3227.57,-1306.28 3225.41,-1305.28 3223.28,-1304.19 3221.18,-1303.03 3219.11,-1301.8 3217.09,-1300.49 3215.12,-1299.12 3213.2,-1297.69 3211.34,-1296.19 3209.55,-1294.64 3207.83,-1293.05 3206.19,-1291.4 3204.63,-1289.72 3203.18,-1287.99 3201.82,-1286.24 3200.58,-1284.46 3199.46,-1282.65 3198.46,-1280.83 3197.59,-1278.99 3196.86,-1277.15 3196.28,-1275.31 3195.85,-1273.46 3195.58,-1271.63 3195.48,-1269.8 3195.54,-1268 3195.78,-1266.22 3196.19,-1264.46 3196.79,-1262.74 3197.56,-1261.05 3198.52,-1259.41 3199.66,-1257.81 3200.98,-1256.26 3202.48,-1254.77 3204.16,-1253.34 3206.01,-1251.97 3208.03,-1250.66 3210.22,-1249.43 3212.56,-1248.26 3215.05,-1247.18 3217.68,-1246.17 3220.45,-1245.25 3223.34,-1244.41 3226.34,-1243.66 3229.44,-1243 3232.63,-1242.43 3235.9,-1241.95 3239.22,-1241.57 3242.6,-1241.28 3246.01,-1241.09 3249.44,-1240.99 3252.88,-1240.99 3256.32,-1241.09"/>
<text text-anchor="start" x="3222.25" y="-1286.03" font-family="Times,serif" font-size="14.00">C0011438</text>
<text text-anchor="start" x="3226.67" y="-1272.03" font-family="Times,serif" font-size="14.00">dentistry</text>
<text text-anchor="start" x="3228.22" y="-1258.03" font-family="Times,serif" font-size="14.00">136:136</text>
</g>
<!-- id_28027163_DOT_10&#45;&#45;id_28027163_DOT_13 -->
<g id="edge14" class="edge">
<title>id_28027163_DOT_10&#45;&#45;id_28027163_DOT_13</title>
<path fill="none" stroke="black" stroke-dasharray="1,5" d="M3471,-1545.83C3422.47,-1486.32 3322.16,-1363.3 3275.73,-1306.36"/>
<text text-anchor="middle" x="3347.11" y="-1428.9" font-family="Times,serif" font-size="14.00">0.824241</text>
</g>
<!-- id_28027163_DOT_14 -->
<g id="node14" class="node">
<title>id_28027163_DOT_14</title>
<polygon fill="darkkhaki" stroke="darkkhaki" points="3056.75,-874.05 3060.17,-874.25 3063.57,-874.54 3066.91,-874.92 3070.19,-875.4 3073.4,-875.97 3076.51,-876.63 3079.53,-877.38 3082.43,-878.22 3085.21,-879.14 3087.86,-880.14 3090.36,-881.23 3092.72,-882.39 3094.91,-883.63 3096.94,-884.93 3098.8,-886.3 3100.49,-887.74 3102,-889.23 3103.33,-890.78 3104.47,-892.37 3105.43,-894.02 3106.21,-895.7 3106.81,-897.43 3107.22,-899.18 3107.46,-900.96 3107.52,-902.77 3107.42,-904.59 3107.15,-906.43 3106.72,-908.27 3106.13,-910.12 3105.4,-911.96 3104.53,-913.79 3103.53,-915.62 3102.4,-917.42 3101.15,-919.2 3099.79,-920.96 3098.32,-922.68 3096.76,-924.37 3095.12,-926.01 3093.39,-927.61 3091.59,-929.16 3089.72,-930.65 3087.79,-932.08 3085.8,-933.46 3083.77,-934.76 3081.7,-936 3079.59,-937.16 3077.44,-938.24 3075.27,-939.25 3073.08,-940.17 3070.86,-941.01 3068.62,-941.76 3066.38,-942.42 3064.12,-942.99 3061.85,-943.47 3059.57,-943.85 3057.29,-944.14 3055,-944.33 3052.71,-944.43 3050.42,-944.43 3048.13,-944.33 3045.85,-944.14 3043.57,-943.85 3041.29,-943.47 3039.02,-942.99 3036.76,-942.42 3034.51,-941.76 3032.28,-941.01 3030.06,-940.17 3027.86,-939.25 3025.69,-938.24 3023.55,-937.16 3021.44,-936 3019.36,-934.76 3017.33,-933.46 3015.35,-932.08 3013.42,-930.65 3011.55,-929.16 3009.75,-927.61 3008.02,-926.01 3006.37,-924.37 3004.81,-922.68 3003.35,-920.96 3001.99,-919.2 3000.74,-917.42 2999.61,-915.62 2998.6,-913.79 2997.73,-911.96 2997,-910.12 2996.42,-908.27 2995.99,-906.43 2995.72,-904.59 2995.61,-902.77 2995.68,-900.96 2995.91,-899.18 2996.33,-897.43 2996.92,-895.7 2997.7,-894.02 2998.66,-892.37 2999.81,-890.78 3001.14,-889.23 3002.64,-887.74 3004.33,-886.3 3006.19,-884.93 3008.22,-883.63 3010.42,-882.39 3012.77,-881.23 3015.28,-880.14 3017.93,-879.14 3020.71,-878.22 3023.61,-877.38 3026.62,-876.63 3029.74,-875.97 3032.94,-875.4 3036.23,-874.92 3039.57,-874.54 3042.96,-874.25 3046.39,-874.05 3049.84,-873.96 3053.3,-873.96 3056.75,-874.05"/>
<text text-anchor="start" x="3022.4" y="-918.99" font-family="Times,serif" font-size="14.00">C0871893</text>
<text text-anchor="start" x="3029.41" y="-904.99" font-family="Times,serif" font-size="14.00">scripted</text>
<text text-anchor="start" x="3028.62" y="-890.99" font-family="Times,serif" font-size="14.00">166:166</text>
</g>
<!-- id_28027163_DOT_11&#45;&#45;id_28027163_DOT_14 -->
<g id="edge15" class="edge">
<title>id_28027163_DOT_11&#45;&#45;id_28027163_DOT_14</title>
<path fill="none" stroke="black" stroke-dasharray="1,5" d="M2720.9,-899.43C2804.58,-901.9 2926.17,-905.49 2996.22,-907.56"/>
<text text-anchor="middle" x="2832.31" y="-906.3" font-family="Times,serif" font-size="14.00">0.614412</text>
</g>
<!-- id_28027163_DOT_12&#45;&#45;id_28027163_DOT_16 -->
<g id="edge16" class="edge">
<title>id_28027163_DOT_12&#45;&#45;id_28027163_DOT_16</title>
<path fill="none" stroke="black" stroke-dasharray="1,5" d="M1774.73,-843.81C1731.53,-908.94 1632.55,-1058.15 1587.83,-1125.56"/>
<text text-anchor="middle" x="1655.03" y="-987.48" font-family="Times,serif" font-size="14.00">0.823689</text>
</g>
<!-- id_28027163_DOT_13&#45;&#45;id_28027163_DOT_14 -->
<g id="edge17" class="edge">
<title>id_28027163_DOT_13&#45;&#45;id_28027163_DOT_14</title>
<path fill="none" stroke="black" stroke-dasharray="1,5" d="M3232.74,-1242.36C3194.48,-1171.99 3106.83,-1010.81 3069.23,-941.66"/>
<text text-anchor="middle" x="3124.73" y="-1094.81" font-family="Times,serif" font-size="14.00">0.784024</text>
</g>
<!-- id_28027163_DOT_14&#45;&#45;id_28027163_DOT_19 -->
<g id="edge18" class="edge">
<title>id_28027163_DOT_14&#45;&#45;id_28027163_DOT_19</title>
<path fill="none" stroke="black" stroke-dasharray="1,5" d="M3079.95,-877.19C3134.31,-815.89 3252.62,-682.48 3307.55,-620.53"/>
<text text-anchor="middle" x="3167.5" y="-751.66" font-family="Times,serif" font-size="14.00">0.780266</text>
</g>
<!-- id_28027163_DOT_17 -->
<g id="node17" class="node">
<title>id_28027163_DOT_17</title>
<polygon fill="darkorange" stroke="darkorange" points="3442.72,-158.64 3449.17,-158.83 3455.56,-159.12 3461.85,-159.51 3468.02,-159.98 3474.05,-160.56 3479.92,-161.22 3485.59,-161.97 3491.05,-162.8 3496.29,-163.73 3501.27,-164.73 3505.98,-165.82 3510.41,-166.98 3514.54,-168.21 3518.36,-169.52 3521.87,-170.89 3525.04,-172.32 3527.88,-173.82 3530.38,-175.36 3532.53,-176.96 3534.34,-178.61 3535.8,-180.29 3536.93,-182.01 3537.71,-183.77 3538.16,-185.55 3538.28,-187.36 3538.08,-189.18 3537.57,-191.02 3536.76,-192.86 3535.66,-194.7 3534.28,-196.55 3532.64,-198.38 3530.75,-200.2 3528.63,-202.01 3526.28,-203.79 3523.72,-205.55 3520.96,-207.27 3518.03,-208.96 3514.93,-210.6 3511.68,-212.2 3508.28,-213.75 3504.77,-215.24 3501.14,-216.67 3497.4,-218.04 3493.58,-219.35 3489.68,-220.58 3485.71,-221.74 3481.67,-222.83 3477.58,-223.83 3473.45,-224.76 3469.28,-225.59 3465.08,-226.35 3460.85,-227.01 3456.59,-227.58 3452.32,-228.05 3448.04,-228.44 3443.74,-228.73 3439.44,-228.92 3435.13,-229.02 3430.82,-229.02 3426.52,-228.92 3422.22,-228.73 3417.92,-228.44 3413.64,-228.05 3409.37,-227.58 3405.11,-227.01 3400.88,-226.35 3396.68,-225.59 3392.51,-224.76 3388.37,-223.83 3384.29,-222.83 3380.25,-221.74 3376.28,-220.58 3372.38,-219.35 3368.55,-218.04 3364.82,-216.67 3361.19,-215.24 3357.67,-213.75 3354.28,-212.2 3351.03,-210.6 3347.93,-208.96 3345,-207.27 3342.24,-205.55 3339.68,-203.79 3337.33,-202.01 3335.2,-200.2 3333.31,-198.38 3331.67,-196.55 3330.3,-194.7 3329.2,-192.86 3328.39,-191.02 3327.88,-189.18 3327.68,-187.36 3327.8,-185.55 3328.25,-183.77 3329.03,-182.01 3330.15,-180.29 3331.62,-178.61 3333.43,-176.96 3335.58,-175.36 3338.08,-173.82 3340.92,-172.32 3344.09,-170.89 3347.59,-169.52 3351.42,-168.21 3355.55,-166.98 3359.98,-165.82 3364.69,-164.73 3369.67,-163.73 3374.9,-162.8 3380.37,-161.97 3386.04,-161.22 3391.9,-160.56 3397.93,-159.98 3404.11,-159.51 3410.4,-159.12 3416.78,-158.83 3423.24,-158.64 3429.73,-158.55 3436.23,-158.55 3442.72,-158.64"/>
<text text-anchor="start" x="3403.81" y="-203.58" font-family="Times,serif" font-size="14.00">C0015333</text>
<text text-anchor="start" x="3371.16" y="-189.58" font-family="Times,serif" font-size="14.00">exposures to radiation</text>
<text text-anchor="start" x="3410.29" y="-175.58" font-family="Times,serif" font-size="14.00">209:211</text>
</g>
<!-- id_28027163_DOT_17&#45;&#45;id_28027163_DOT_19 -->
<g id="edge19" class="edge">
<title>id_28027163_DOT_17&#45;&#45;id_28027163_DOT_19</title>
<path fill="none" stroke="black" stroke-dasharray="1,5" d="M3424.35,-229.09C3406.06,-303.87 3363.61,-477.5 3345.31,-552.33"/>
<text text-anchor="middle" x="3358.58" y="-393.51" font-family="Times,serif" font-size="14.00">0.944998</text>
</g>
</g>
</svg>
