<?xml version="1.0" encoding="UTF-8" standalone="no"?>
<!DOCTYPE svg PUBLIC "-//W3C//DTD SVG 1.1//EN"
 "http://www.w3.org/Graphics/SVG/1.1/DTD/svg11.dtd">
<!-- Generated by graphviz version 2.42.3 (20191010.1750)
 -->
<!-- Title: MST Pages: 1 -->
<svg width="3300pt" height="3785pt"
 viewBox="0.00 0.00 3299.92 3784.58" xmlns="http://www.w3.org/2000/svg" xmlns:xlink="http://www.w3.org/1999/xlink">
<g id="graph0" class="graph" transform="scale(1 1) rotate(0) translate(4 3780.58)">
<title>MST</title>
<polygon fill="white" stroke="transparent" points="-4,4 -4,-3780.58 3295.92,-3780.58 3295.92,4 -4,4"/>
<!-- id_28033725_DOT_1 -->
<g id="node1" class="node">
<title>id_28033725_DOT_1</title>
<polygon fill="aquamarine" stroke="aquamarine" points="88.68,-3237.7 93.66,-3237.89 98.59,-3238.18 103.45,-3238.56 108.22,-3239.04 112.87,-3239.61 117.4,-3240.27 121.78,-3241.02 126,-3241.86 130.04,-3242.79 133.89,-3243.79 137.53,-3244.87 140.95,-3246.04 144.14,-3247.27 147.09,-3248.58 149.8,-3249.95 152.25,-3251.38 154.44,-3252.87 156.37,-3254.42 158.03,-3256.02 159.43,-3257.66 160.56,-3259.35 161.42,-3261.07 162.03,-3262.83 162.37,-3264.61 162.47,-3266.42 162.31,-3268.24 161.92,-3270.07 161.29,-3271.92 160.45,-3273.76 159.38,-3275.6 158.12,-3277.44 156.66,-3279.26 155.01,-3281.07 153.2,-3282.85 151.22,-3284.6 149.1,-3286.33 146.83,-3288.01 144.44,-3289.66 141.93,-3291.26 139.31,-3292.8 136.59,-3294.3 133.79,-3295.73 130.91,-3297.1 127.95,-3298.41 124.94,-3299.64 121.87,-3300.8 118.76,-3301.89 115.6,-3302.89 112.41,-3303.81 109.19,-3304.65 105.94,-3305.4 102.67,-3306.06 99.39,-3306.63 96.09,-3307.11 92.78,-3307.5 89.47,-3307.78 86.14,-3307.98 82.82,-3308.07 79.49,-3308.07 76.17,-3307.98 72.84,-3307.78 69.53,-3307.5 66.22,-3307.11 62.92,-3306.63 59.64,-3306.06 56.37,-3305.4 53.12,-3304.65 49.9,-3303.81 46.71,-3302.89 43.55,-3301.89 40.44,-3300.8 37.37,-3299.64 34.36,-3298.41 31.41,-3297.1 28.52,-3295.73 25.72,-3294.3 23,-3292.8 20.38,-3291.26 17.87,-3289.66 15.48,-3288.01 13.21,-3286.33 11.09,-3284.6 9.11,-3282.85 7.3,-3281.07 5.65,-3279.26 4.19,-3277.44 2.93,-3275.6 1.86,-3273.76 1.02,-3271.92 0.39,-3270.07 -0,-3268.24 -0.16,-3266.42 -0.06,-3264.61 0.28,-3262.83 0.89,-3261.07 1.75,-3259.35 2.88,-3257.66 4.28,-3256.02 5.94,-3254.42 7.87,-3252.87 10.06,-3251.38 12.51,-3249.95 15.22,-3248.58 18.17,-3247.27 21.36,-3246.04 24.78,-3244.87 28.42,-3243.79 32.27,-3242.79 36.31,-3241.86 40.53,-3241.02 44.91,-3240.27 49.44,-3239.61 54.09,-3239.04 58.86,-3238.56 63.72,-3238.18 68.65,-3237.89 73.63,-3237.7 78.64,-3237.6 83.67,-3237.6 88.68,-3237.7"/>
<text text-anchor="start" x="51.99" y="-3282.64" font-family="Times,serif" font-size="14.00">C0220847</text>
<text text-anchor="start" x="35.27" y="-3268.64" font-family="Times,serif" font-size="14.00">hepatitis C virus</text>
<text text-anchor="start" x="72.21" y="-3254.64" font-family="Times,serif" font-size="14.00">1:3</text>
</g>
<!-- id_28033725_DOT_5 -->
<g id="node5" class="node">
<title>id_28033725_DOT_5</title>
<polygon fill="aquamarine" stroke="aquamarine" points="462.98,-3224.41 467.97,-3224.6 472.9,-3224.89 477.75,-3225.27 482.52,-3225.75 487.18,-3226.32 491.71,-3226.98 496.09,-3227.73 500.31,-3228.57 504.35,-3229.49 508.19,-3230.5 511.83,-3231.58 515.25,-3232.74 518.44,-3233.98 521.39,-3235.28 524.1,-3236.65 526.55,-3238.09 528.74,-3239.58 530.67,-3241.13 532.33,-3242.73 533.73,-3244.37 534.86,-3246.06 535.73,-3247.78 536.33,-3249.54 536.68,-3251.32 536.77,-3253.12 536.62,-3254.95 536.22,-3256.78 535.6,-3258.62 534.75,-3260.47 533.69,-3262.31 532.42,-3264.15 530.96,-3265.97 529.32,-3267.77 527.5,-3269.56 525.53,-3271.31 523.4,-3273.03 521.14,-3274.72 518.74,-3276.36 516.23,-3277.96 513.61,-3279.51 510.89,-3281 508.09,-3282.44 505.21,-3283.81 502.26,-3285.11 499.24,-3286.35 496.18,-3287.51 493.06,-3288.59 489.9,-3289.6 486.71,-3290.52 483.49,-3291.36 480.24,-3292.11 476.98,-3292.77 473.69,-3293.34 470.4,-3293.82 467.09,-3294.2 463.77,-3294.49 460.45,-3294.68 457.12,-3294.78 453.8,-3294.78 450.47,-3294.68 447.15,-3294.49 443.83,-3294.2 440.52,-3293.82 437.23,-3293.34 433.94,-3292.77 430.67,-3292.11 427.43,-3291.36 424.21,-3290.52 421.01,-3289.6 417.86,-3288.59 414.74,-3287.51 411.68,-3286.35 408.66,-3285.11 405.71,-3283.81 402.83,-3282.44 400.02,-3281 397.31,-3279.51 394.69,-3277.96 392.18,-3276.36 389.78,-3274.72 387.52,-3273.03 385.39,-3271.31 383.41,-3269.56 381.6,-3267.77 379.96,-3265.97 378.5,-3264.15 377.23,-3262.31 376.17,-3260.47 375.32,-3258.62 374.7,-3256.78 374.3,-3254.95 374.15,-3253.12 374.24,-3251.32 374.59,-3249.54 375.19,-3247.78 376.06,-3246.06 377.19,-3244.37 378.58,-3242.73 380.25,-3241.13 382.18,-3239.58 384.37,-3238.09 386.82,-3236.65 389.52,-3235.28 392.48,-3233.98 395.67,-3232.74 399.09,-3231.58 402.73,-3230.5 406.57,-3229.49 410.61,-3228.57 414.83,-3227.73 419.21,-3226.98 423.74,-3226.32 428.4,-3225.75 433.16,-3225.27 438.02,-3224.89 442.95,-3224.6 447.94,-3224.41 452.95,-3224.31 457.97,-3224.31 462.98,-3224.41"/>
<text text-anchor="start" x="426.29" y="-3269.35" font-family="Times,serif" font-size="14.00">C0220847</text>
<text text-anchor="start" x="409.57" y="-3255.35" font-family="Times,serif" font-size="14.00">hepatitis C virus</text>
<text text-anchor="start" x="439.51" y="-3241.35" font-family="Times,serif" font-size="14.00">19:21</text>
</g>
<!-- id_28033725_DOT_1&#45;&#45;id_28033725_DOT_5 -->
<g id="edge1" class="edge">
<title>id_28033725_DOT_1&#45;&#45;id_28033725_DOT_5</title>
<path fill="none" stroke="black" d="M162.37,-3269.95C226.02,-3267.69 314.03,-3264.57 376.96,-3262.33"/>
<text text-anchor="middle" x="243.42" y="-3268.94" font-family="Times,serif" font-size="14.00">0.000614</text>
</g>
<!-- id_28033725_DOT_2 -->
<g id="node2" class="node">
<title>id_28033725_DOT_2</title>
<polygon fill="bisque" stroke="bisque" points="2891.96,-2412.67 2895.39,-2412.87 2898.79,-2413.15 2902.13,-2413.54 2905.41,-2414.01 2908.61,-2414.59 2911.73,-2415.25 2914.75,-2416 2917.65,-2416.83 2920.43,-2417.76 2923.08,-2418.76 2925.58,-2419.85 2927.93,-2421.01 2930.13,-2422.24 2932.16,-2423.55 2934.02,-2424.92 2935.71,-2426.35 2937.22,-2427.85 2938.55,-2429.39 2939.69,-2430.99 2940.65,-2432.64 2941.43,-2434.32 2942.02,-2436.05 2942.44,-2437.8 2942.68,-2439.58 2942.74,-2441.39 2942.64,-2443.21 2942.37,-2445.05 2941.94,-2446.89 2941.35,-2448.73 2940.62,-2450.58 2939.75,-2452.41 2938.75,-2454.23 2937.61,-2456.04 2936.37,-2457.82 2935.01,-2459.58 2933.54,-2461.3 2931.98,-2462.99 2930.34,-2464.63 2928.61,-2466.23 2926.8,-2467.78 2924.94,-2469.27 2923.01,-2470.7 2921.02,-2472.07 2918.99,-2473.38 2916.92,-2474.61 2914.81,-2475.77 2912.66,-2476.86 2910.49,-2477.86 2908.29,-2478.79 2906.08,-2479.62 2903.84,-2480.38 2901.59,-2481.04 2899.33,-2481.61 2897.06,-2482.08 2894.79,-2482.47 2892.51,-2482.76 2890.22,-2482.95 2887.93,-2483.05 2885.64,-2483.05 2883.35,-2482.95 2881.07,-2482.76 2878.78,-2482.47 2876.51,-2482.08 2874.24,-2481.61 2871.98,-2481.04 2869.73,-2480.38 2867.5,-2479.62 2865.28,-2478.79 2863.08,-2477.86 2860.91,-2476.86 2858.77,-2475.77 2856.65,-2474.61 2854.58,-2473.38 2852.55,-2472.07 2850.57,-2470.7 2848.64,-2469.27 2846.77,-2467.78 2844.96,-2466.23 2843.24,-2464.63 2841.59,-2462.99 2840.03,-2461.3 2838.57,-2459.58 2837.21,-2457.82 2835.96,-2456.04 2834.83,-2454.23 2833.82,-2452.41 2832.95,-2450.58 2832.22,-2448.73 2831.64,-2446.89 2831.21,-2445.05 2830.94,-2443.21 2830.83,-2441.39 2830.89,-2439.58 2831.13,-2437.8 2831.55,-2436.05 2832.14,-2434.32 2832.92,-2432.64 2833.88,-2430.99 2835.03,-2429.39 2836.35,-2427.85 2837.86,-2426.35 2839.55,-2424.92 2841.41,-2423.55 2843.44,-2422.24 2845.64,-2421.01 2847.99,-2419.85 2850.5,-2418.76 2853.14,-2417.76 2855.92,-2416.83 2858.83,-2416 2861.84,-2415.25 2864.96,-2414.59 2868.16,-2414.01 2871.44,-2413.54 2874.79,-2413.15 2878.18,-2412.87 2881.61,-2412.67 2885.06,-2412.58 2888.51,-2412.58 2891.96,-2412.67"/>
<text text-anchor="start" x="2857.62" y="-2457.61" font-family="Times,serif" font-size="14.00">C0449560</text>
<text text-anchor="start" x="2862.29" y="-2443.61" font-family="Times,serif" font-size="14.00">subtypes</text>
<text text-anchor="start" x="2877.84" y="-2429.61" font-family="Times,serif" font-size="14.00">4:4</text>
</g>
<!-- id_28033725_DOT_4 -->
<g id="node4" class="node">
<title>id_28033725_DOT_4</title>
<polygon fill="bisque" stroke="bisque" points="3241.12,-2594.96 3244.55,-2595.15 3247.94,-2595.44 3251.29,-2595.83 3254.57,-2596.3 3257.77,-2596.87 3260.89,-2597.53 3263.9,-2598.29 3266.81,-2599.12 3269.59,-2600.05 3272.23,-2601.05 3274.74,-2602.14 3277.09,-2603.3 3279.29,-2604.53 3281.32,-2605.84 3283.18,-2607.21 3284.87,-2608.64 3286.38,-2610.13 3287.7,-2611.68 3288.85,-2613.28 3289.81,-2614.92 3290.59,-2616.61 3291.18,-2618.33 3291.6,-2620.09 3291.84,-2621.87 3291.9,-2623.68 3291.8,-2625.5 3291.52,-2627.33 3291.09,-2629.18 3290.51,-2631.02 3289.78,-2632.86 3288.91,-2634.7 3287.9,-2636.52 3286.77,-2638.33 3285.52,-2640.11 3284.16,-2641.86 3282.7,-2643.59 3281.14,-2645.27 3279.49,-2646.92 3277.77,-2648.52 3275.96,-2650.06 3274.09,-2651.56 3272.16,-2652.99 3270.18,-2654.36 3268.15,-2655.67 3266.08,-2656.9 3263.96,-2658.06 3261.82,-2659.15 3259.65,-2660.15 3257.45,-2661.08 3255.24,-2661.91 3253,-2662.66 3250.75,-2663.32 3248.49,-2663.9 3246.22,-2664.37 3243.95,-2664.76 3241.66,-2665.05 3239.38,-2665.24 3237.09,-2665.33 3234.8,-2665.33 3232.51,-2665.24 3230.23,-2665.05 3227.94,-2664.76 3225.67,-2664.37 3223.4,-2663.9 3221.14,-2663.32 3218.89,-2662.66 3216.65,-2661.91 3214.44,-2661.08 3212.24,-2660.15 3210.07,-2659.15 3207.92,-2658.06 3205.81,-2656.9 3203.74,-2655.67 3201.71,-2654.36 3199.72,-2652.99 3197.79,-2651.56 3195.93,-2650.06 3194.12,-2648.52 3192.4,-2646.92 3190.75,-2645.27 3189.19,-2643.59 3187.73,-2641.86 3186.37,-2640.11 3185.12,-2638.33 3183.99,-2636.52 3182.98,-2634.7 3182.11,-2632.86 3181.38,-2631.02 3180.79,-2629.18 3180.36,-2627.33 3180.09,-2625.5 3179.99,-2623.68 3180.05,-2621.87 3180.29,-2620.09 3180.71,-2618.33 3181.3,-2616.61 3182.08,-2614.92 3183.04,-2613.28 3184.19,-2611.68 3185.51,-2610.13 3187.02,-2608.64 3188.71,-2607.21 3190.57,-2605.84 3192.6,-2604.53 3194.8,-2603.3 3197.15,-2602.14 3199.66,-2601.05 3202.3,-2600.05 3205.08,-2599.12 3207.99,-2598.29 3211,-2597.53 3214.12,-2596.87 3217.32,-2596.3 3220.6,-2595.83 3223.95,-2595.44 3227.34,-2595.15 3230.77,-2594.96 3234.22,-2594.86 3237.67,-2594.86 3241.12,-2594.96"/>
<text text-anchor="start" x="3206.78" y="-2639.9" font-family="Times,serif" font-size="14.00">C0449560</text>
<text text-anchor="start" x="3211.44" y="-2625.9" font-family="Times,serif" font-size="14.00">subtypes</text>
<text text-anchor="start" x="3220" y="-2611.9" font-family="Times,serif" font-size="14.00">13:13</text>
</g>
<!-- id_28033725_DOT_2&#45;&#45;id_28033725_DOT_4 -->
<g id="edge2" class="edge">
<title>id_28033725_DOT_2&#45;&#45;id_28033725_DOT_4</title>
<path fill="none" stroke="black" d="M2926.16,-2468.37C2991.26,-2502.35 3120.98,-2570.08 3190.1,-2606.16"/>
<text text-anchor="middle" x="3031.88" y="-2540.07" font-family="Times,serif" font-size="14.00">0.001897</text>
</g>
<!-- id_28033725_DOT_6 -->
<g id="node6" class="node">
<title>id_28033725_DOT_6</title>
<polygon fill="bisque" stroke="bisque" points="2500.91,-2246.61 2504.34,-2246.8 2507.73,-2247.09 2511.08,-2247.48 2514.36,-2247.95 2517.56,-2248.52 2520.68,-2249.19 2523.69,-2249.94 2526.6,-2250.77 2529.38,-2251.7 2532.02,-2252.7 2534.53,-2253.79 2536.88,-2254.95 2539.08,-2256.18 2541.11,-2257.49 2542.97,-2258.86 2544.66,-2260.29 2546.17,-2261.79 2547.49,-2263.33 2548.64,-2264.93 2549.6,-2266.58 2550.38,-2268.26 2550.97,-2269.98 2551.39,-2271.74 2551.63,-2273.52 2551.69,-2275.33 2551.58,-2277.15 2551.31,-2278.98 2550.88,-2280.83 2550.3,-2282.67 2549.57,-2284.52 2548.7,-2286.35 2547.69,-2288.17 2546.56,-2289.98 2545.31,-2291.76 2543.95,-2293.52 2542.49,-2295.24 2540.93,-2296.92 2539.28,-2298.57 2537.55,-2300.17 2535.75,-2301.71 2533.88,-2303.21 2531.95,-2304.64 2529.97,-2306.01 2527.94,-2307.32 2525.87,-2308.55 2523.75,-2309.71 2521.61,-2310.8 2519.44,-2311.8 2517.24,-2312.73 2515.02,-2313.56 2512.79,-2314.31 2510.54,-2314.98 2508.28,-2315.55 2506.01,-2316.02 2503.74,-2316.41 2501.45,-2316.7 2499.17,-2316.89 2496.88,-2316.99 2494.59,-2316.99 2492.3,-2316.89 2490.01,-2316.7 2487.73,-2316.41 2485.46,-2316.02 2483.19,-2315.55 2480.93,-2314.98 2478.68,-2314.31 2476.44,-2313.56 2474.23,-2312.73 2472.03,-2311.8 2469.86,-2310.8 2467.71,-2309.71 2465.6,-2308.55 2463.53,-2307.32 2461.5,-2306.01 2459.51,-2304.64 2457.58,-2303.21 2455.72,-2301.71 2453.91,-2300.17 2452.18,-2298.57 2450.54,-2296.92 2448.98,-2295.24 2447.51,-2293.52 2446.15,-2291.76 2444.91,-2289.98 2443.77,-2288.17 2442.77,-2286.35 2441.9,-2284.52 2441.17,-2282.67 2440.58,-2280.83 2440.15,-2278.98 2439.88,-2277.15 2439.78,-2275.33 2439.84,-2273.52 2440.08,-2271.74 2440.5,-2269.98 2441.09,-2268.26 2441.87,-2266.58 2442.83,-2264.93 2443.97,-2263.33 2445.3,-2261.79 2446.81,-2260.29 2448.5,-2258.86 2450.36,-2257.49 2452.39,-2256.18 2454.59,-2254.95 2456.94,-2253.79 2459.44,-2252.7 2462.09,-2251.7 2464.87,-2250.77 2467.77,-2249.94 2470.79,-2249.19 2473.91,-2248.52 2477.11,-2247.95 2480.39,-2247.48 2483.73,-2247.09 2487.13,-2246.8 2490.56,-2246.61 2494.01,-2246.51 2497.46,-2246.51 2500.91,-2246.61"/>
<text text-anchor="start" x="2466.56" y="-2291.55" font-family="Times,serif" font-size="14.00">C0449560</text>
<text text-anchor="start" x="2471.23" y="-2277.55" font-family="Times,serif" font-size="14.00">subtypes</text>
<text text-anchor="start" x="2479.79" y="-2263.55" font-family="Times,serif" font-size="14.00">22:22</text>
</g>
<!-- id_28033725_DOT_2&#45;&#45;id_28033725_DOT_6 -->
<g id="edge3" class="edge">
<title>id_28033725_DOT_2&#45;&#45;id_28033725_DOT_6</title>
<path fill="none" stroke="black" d="M2837.26,-2426.78C2759.78,-2393.88 2611.23,-2330.8 2538.28,-2299.82"/>
<text text-anchor="middle" x="2661.52" y="-2366.1" font-family="Times,serif" font-size="14.00">0.001084</text>
</g>
<!-- id_28033725_DOT_3 -->
<g id="node3" class="node">
<title>id_28033725_DOT_3</title>
<polygon fill="blue" stroke="blue" points="2571.25,-1453.75 2574.67,-1453.95 2578.04,-1454.24 2581.37,-1454.62 2584.63,-1455.1 2587.82,-1455.67 2590.92,-1456.33 2593.93,-1457.08 2596.81,-1457.92 2599.58,-1458.84 2602.21,-1459.84 2604.71,-1460.93 2607.05,-1462.09 2609.24,-1463.32 2611.26,-1464.63 2613.11,-1466 2614.79,-1467.44 2616.29,-1468.93 2617.61,-1470.48 2618.75,-1472.07 2619.71,-1473.72 2620.48,-1475.4 2621.07,-1477.13 2621.49,-1478.88 2621.72,-1480.66 2621.79,-1482.47 2621.68,-1484.29 2621.41,-1486.13 2620.98,-1487.97 2620.4,-1489.81 2619.68,-1491.66 2618.81,-1493.49 2617.81,-1495.32 2616.68,-1497.12 2615.44,-1498.9 2614.09,-1500.66 2612.63,-1502.38 2611.08,-1504.07 2609.44,-1505.71 2607.72,-1507.31 2605.93,-1508.86 2604.07,-1510.35 2602.15,-1511.78 2600.17,-1513.16 2598.15,-1514.46 2596.09,-1515.69 2593.99,-1516.86 2591.85,-1517.94 2589.69,-1518.95 2587.5,-1519.87 2585.3,-1520.71 2583.08,-1521.46 2580.84,-1522.12 2578.59,-1522.69 2576.33,-1523.17 2574.06,-1523.55 2571.79,-1523.84 2569.52,-1524.03 2567.24,-1524.13 2564.96,-1524.13 2562.69,-1524.03 2560.41,-1523.84 2558.14,-1523.55 2555.87,-1523.17 2553.61,-1522.69 2551.37,-1522.12 2549.13,-1521.46 2546.9,-1520.71 2544.7,-1519.87 2542.51,-1518.95 2540.35,-1517.94 2538.22,-1516.86 2536.12,-1515.69 2534.05,-1514.46 2532.03,-1513.16 2530.06,-1511.78 2528.14,-1510.35 2526.28,-1508.86 2524.48,-1507.31 2522.76,-1505.71 2521.12,-1504.07 2519.57,-1502.38 2518.12,-1500.66 2516.76,-1498.9 2515.52,-1497.12 2514.4,-1495.32 2513.4,-1493.49 2512.53,-1491.66 2511.8,-1489.81 2511.22,-1487.97 2510.79,-1486.13 2510.52,-1484.29 2510.42,-1482.47 2510.48,-1480.66 2510.72,-1478.88 2511.13,-1477.13 2511.72,-1475.4 2512.5,-1473.72 2513.46,-1472.07 2514.59,-1470.48 2515.92,-1468.93 2517.42,-1467.44 2519.09,-1466 2520.95,-1464.63 2522.97,-1463.32 2525.15,-1462.09 2527.5,-1460.93 2529.99,-1459.84 2532.62,-1458.84 2535.39,-1457.92 2538.28,-1457.08 2541.28,-1456.33 2544.38,-1455.67 2547.57,-1455.1 2550.83,-1454.62 2554.16,-1454.24 2557.54,-1453.95 2560.95,-1453.75 2564.38,-1453.66 2567.82,-1453.66 2571.25,-1453.75"/>
<text text-anchor="start" x="2537.19" y="-1498.69" font-family="Times,serif" font-size="14.00">C0030211</text>
<text text-anchor="start" x="2542.38" y="-1484.69" font-family="Times,serif" font-size="14.00">Pakistan</text>
<text text-anchor="start" x="2557.16" y="-1470.69" font-family="Times,serif" font-size="14.00">6:6</text>
</g>
<!-- id_28033725_DOT_7 -->
<g id="node7" class="node">
<title>id_28033725_DOT_7</title>
<polygon fill="blue" stroke="blue" points="2669.48,-1083.55 2672.89,-1083.75 2676.27,-1084.04 2679.6,-1084.42 2682.86,-1084.9 2686.05,-1085.47 2689.15,-1086.13 2692.15,-1086.88 2695.04,-1087.72 2697.81,-1088.64 2700.44,-1089.65 2702.93,-1090.73 2705.28,-1091.89 2707.46,-1093.13 2709.48,-1094.43 2711.34,-1095.8 2713.01,-1097.24 2714.52,-1098.73 2715.84,-1100.28 2716.98,-1101.87 2717.93,-1103.52 2718.71,-1105.2 2719.3,-1106.93 2719.71,-1108.68 2719.95,-1110.47 2720.01,-1112.27 2719.91,-1114.09 2719.64,-1115.93 2719.21,-1117.77 2718.63,-1119.62 2717.9,-1121.46 2717.03,-1123.29 2716.04,-1125.12 2714.91,-1126.92 2713.67,-1128.7 2712.31,-1130.46 2710.86,-1132.18 2709.31,-1133.87 2707.67,-1135.51 2705.95,-1137.11 2704.15,-1138.66 2702.29,-1140.15 2700.37,-1141.58 2698.4,-1142.96 2696.38,-1144.26 2694.31,-1145.5 2692.21,-1146.66 2690.08,-1147.74 2687.92,-1148.75 2685.73,-1149.67 2683.53,-1150.51 2681.3,-1151.26 2679.06,-1151.92 2676.82,-1152.49 2674.56,-1152.97 2672.29,-1153.35 2670.02,-1153.64 2667.74,-1153.83 2665.47,-1153.93 2663.19,-1153.93 2660.91,-1153.83 2658.64,-1153.64 2656.37,-1153.35 2654.1,-1152.97 2651.84,-1152.49 2649.59,-1151.92 2647.35,-1151.26 2645.13,-1150.51 2642.93,-1149.67 2640.74,-1148.75 2638.58,-1147.74 2636.44,-1146.66 2634.34,-1145.5 2632.28,-1144.26 2630.26,-1142.96 2628.28,-1141.58 2626.36,-1140.15 2624.5,-1138.66 2622.71,-1137.11 2620.99,-1135.51 2619.35,-1133.87 2617.8,-1132.18 2616.34,-1130.46 2614.99,-1128.7 2613.75,-1126.92 2612.62,-1125.12 2611.62,-1123.29 2610.75,-1121.46 2610.03,-1119.62 2609.45,-1117.77 2609.02,-1115.93 2608.75,-1114.09 2608.64,-1112.27 2608.71,-1110.47 2608.94,-1108.68 2609.36,-1106.93 2609.95,-1105.2 2610.73,-1103.52 2611.68,-1101.87 2612.82,-1100.28 2614.14,-1098.73 2615.64,-1097.24 2617.32,-1095.8 2619.17,-1094.43 2621.2,-1093.13 2623.38,-1091.89 2625.72,-1090.73 2628.22,-1089.65 2630.85,-1088.64 2633.62,-1087.72 2636.51,-1086.88 2639.51,-1086.13 2642.61,-1085.47 2645.8,-1084.9 2649.06,-1084.42 2652.39,-1084.04 2655.76,-1083.75 2659.18,-1083.55 2662.61,-1083.46 2666.05,-1083.46 2669.48,-1083.55"/>
<text text-anchor="start" x="2635.42" y="-1128.49" font-family="Times,serif" font-size="14.00">C0030211</text>
<text text-anchor="start" x="2640.61" y="-1114.49" font-family="Times,serif" font-size="14.00">Pakistan</text>
<text text-anchor="start" x="2648.38" y="-1100.49" font-family="Times,serif" font-size="14.00">24:24</text>
</g>
<!-- id_28033725_DOT_3&#45;&#45;id_28033725_DOT_7 -->
<g id="edge4" class="edge">
<title>id_28033725_DOT_3&#45;&#45;id_28033725_DOT_7</title>
<path fill="none" stroke="black" d="M2575.43,-1453.73C2594.23,-1382.89 2636.45,-1223.77 2655.13,-1153.35"/>
<text text-anchor="middle" x="2589.29" y="-1306.34" font-family="Times,serif" font-size="14.00">0.001192</text>
</g>
<!-- id_28033725_DOT_16 -->
<g id="node16" class="node">
<title>id_28033725_DOT_16</title>
<polygon fill="coral" stroke="coral" points="2507.4,-1836.45 2510.83,-1836.65 2514.22,-1836.94 2517.57,-1837.32 2520.85,-1837.8 2524.05,-1838.37 2527.17,-1839.03 2530.18,-1839.78 2533.09,-1840.62 2535.87,-1841.54 2538.51,-1842.55 2541.02,-1843.63 2543.37,-1844.79 2545.57,-1846.03 2547.6,-1847.33 2549.46,-1848.7 2551.15,-1850.14 2552.66,-1851.63 2553.98,-1853.18 2555.13,-1854.78 2556.09,-1856.42 2556.87,-1858.11 2557.46,-1859.83 2557.88,-1861.58 2558.12,-1863.37 2558.18,-1865.17 2558.08,-1866.99 2557.81,-1868.83 2557.38,-1870.67 2556.79,-1872.52 2556.06,-1874.36 2555.19,-1876.19 2554.18,-1878.02 2553.05,-1879.82 2551.8,-1881.6 2550.44,-1883.36 2548.98,-1885.08 2547.42,-1886.77 2545.77,-1888.41 2544.05,-1890.01 2542.24,-1891.56 2540.38,-1893.05 2538.45,-1894.49 2536.46,-1895.86 2534.43,-1897.16 2532.36,-1898.4 2530.25,-1899.56 2528.1,-1900.64 2525.93,-1901.65 2523.73,-1902.57 2521.52,-1903.41 2519.28,-1904.16 2517.03,-1904.82 2514.77,-1905.39 2512.5,-1905.87 2510.23,-1906.25 2507.94,-1906.54 2505.66,-1906.73 2503.37,-1906.83 2501.08,-1906.83 2498.79,-1906.73 2496.51,-1906.54 2494.22,-1906.25 2491.95,-1905.87 2489.68,-1905.39 2487.42,-1904.82 2485.17,-1904.16 2482.93,-1903.41 2480.72,-1902.57 2478.52,-1901.65 2476.35,-1900.64 2474.21,-1899.56 2472.09,-1898.4 2470.02,-1897.16 2467.99,-1895.86 2466.01,-1894.49 2464.08,-1893.05 2462.21,-1891.56 2460.4,-1890.01 2458.68,-1888.41 2457.03,-1886.77 2455.47,-1885.08 2454.01,-1883.36 2452.65,-1881.6 2451.4,-1879.82 2450.27,-1878.02 2449.26,-1876.19 2448.39,-1874.36 2447.66,-1872.52 2447.08,-1870.67 2446.65,-1868.83 2446.37,-1866.99 2446.27,-1865.17 2446.33,-1863.37 2446.57,-1861.58 2446.99,-1859.83 2447.58,-1858.11 2448.36,-1856.42 2449.32,-1854.78 2450.47,-1853.18 2451.79,-1851.63 2453.3,-1850.14 2454.99,-1848.7 2456.85,-1847.33 2458.88,-1846.03 2461.08,-1844.79 2463.43,-1843.63 2465.94,-1842.55 2468.58,-1841.54 2471.36,-1840.62 2474.27,-1839.78 2477.28,-1839.03 2480.4,-1838.37 2483.6,-1837.8 2486.88,-1837.32 2490.23,-1836.94 2493.62,-1836.65 2497.05,-1836.45 2500.5,-1836.36 2503.95,-1836.36 2507.4,-1836.45"/>
<text text-anchor="start" x="2473.06" y="-1881.39" font-family="Times,serif" font-size="14.00">C0206416</text>
<text text-anchor="start" x="2480.84" y="-1867.39" font-family="Times,serif" font-size="14.00">primers</text>
<text text-anchor="start" x="2479.28" y="-1853.39" font-family="Times,serif" font-size="14.00">100:100</text>
</g>
<!-- id_28033725_DOT_3&#45;&#45;id_28033725_DOT_16 -->
<g id="edge12" class="edge">
<title>id_28033725_DOT_3&#45;&#45;id_28033725_DOT_16</title>
<path fill="none" stroke="black" stroke-dasharray="1,5" d="M2560.26,-1523.87C2548.13,-1596.57 2520.3,-1763.29 2508.12,-1836.28"/>
<text text-anchor="middle" x="2507.94" y="-1682.88" font-family="Times,serif" font-size="14.00">0.746949</text>
</g>
<!-- id_28033725_DOT_10 -->
<g id="node10" class="node">
<title>id_28033725_DOT_10</title>
<polygon fill="aquamarine" stroke="aquamarine" points="854.27,-3300.87 859.25,-3301.06 864.18,-3301.35 869.04,-3301.73 873.81,-3302.21 878.47,-3302.78 882.99,-3303.44 887.38,-3304.19 891.59,-3305.03 895.63,-3305.95 899.48,-3306.96 903.12,-3308.04 906.54,-3309.2 909.73,-3310.44 912.68,-3311.74 915.39,-3313.12 917.84,-3314.55 920.03,-3316.04 921.96,-3317.59 923.62,-3319.19 925.02,-3320.83 926.15,-3322.52 927.02,-3324.24 927.62,-3326 927.97,-3327.78 928.06,-3329.58 927.9,-3331.41 927.51,-3333.24 926.89,-3335.08 926.04,-3336.93 924.98,-3338.77 923.71,-3340.61 922.25,-3342.43 920.61,-3344.24 918.79,-3346.02 916.82,-3347.77 914.69,-3349.5 912.42,-3351.18 910.03,-3352.83 907.52,-3354.42 904.9,-3355.97 902.18,-3357.46 899.38,-3358.9 896.5,-3360.27 893.55,-3361.57 890.53,-3362.81 887.46,-3363.97 884.35,-3365.06 881.19,-3366.06 878,-3366.98 874.78,-3367.82 871.53,-3368.57 868.27,-3369.23 864.98,-3369.8 861.68,-3370.28 858.38,-3370.66 855.06,-3370.95 851.74,-3371.15 848.41,-3371.24 845.08,-3371.24 841.76,-3371.15 838.44,-3370.95 835.12,-3370.66 831.81,-3370.28 828.51,-3369.8 825.23,-3369.23 821.96,-3368.57 818.72,-3367.82 815.49,-3366.98 812.3,-3366.06 809.15,-3365.06 806.03,-3363.97 802.96,-3362.81 799.95,-3361.57 797,-3360.27 794.12,-3358.9 791.31,-3357.46 788.6,-3355.97 785.98,-3354.42 783.47,-3352.83 781.07,-3351.18 778.81,-3349.5 776.68,-3347.77 774.7,-3346.02 772.89,-3344.24 771.25,-3342.43 769.79,-3340.61 768.52,-3338.77 767.46,-3336.93 766.61,-3335.08 765.98,-3333.24 765.59,-3331.41 765.44,-3329.58 765.53,-3327.78 765.88,-3326 766.48,-3324.24 767.35,-3322.52 768.48,-3320.83 769.87,-3319.19 771.54,-3317.59 773.46,-3316.04 775.66,-3314.55 778.11,-3313.12 780.81,-3311.74 783.76,-3310.44 786.96,-3309.2 790.38,-3308.04 794.02,-3306.96 797.86,-3305.95 801.9,-3305.03 806.12,-3304.19 810.5,-3303.44 815.03,-3302.78 819.69,-3302.21 824.45,-3301.73 829.31,-3301.35 834.24,-3301.06 839.22,-3300.87 844.24,-3300.77 849.26,-3300.77 854.27,-3300.87"/>
<text text-anchor="start" x="817.58" y="-3345.81" font-family="Times,serif" font-size="14.00">C0220847</text>
<text text-anchor="start" x="800.86" y="-3331.81" font-family="Times,serif" font-size="14.00">hepatitis C virus</text>
<text text-anchor="start" x="830.8" y="-3317.81" font-family="Times,serif" font-size="14.00">33:35</text>
</g>
<!-- id_28033725_DOT_5&#45;&#45;id_28033725_DOT_10 -->
<g id="edge5" class="edge">
<title>id_28033725_DOT_5&#45;&#45;id_28033725_DOT_10</title>
<path fill="none" stroke="black" d="M523.62,-3272.86C591.82,-3286.19 696.64,-3306.68 768.28,-3320.67"/>
<text text-anchor="middle" x="619.7" y="-3299.57" font-family="Times,serif" font-size="14.00">0.001690</text>
</g>
<!-- id_28033725_DOT_14 -->
<g id="node14" class="node">
<title>id_28033725_DOT_14</title>
<polygon fill="bisque" stroke="bisque" points="2192.56,-2534.47 2195.99,-2534.66 2199.38,-2534.95 2202.73,-2535.34 2206.01,-2535.81 2209.21,-2536.38 2212.33,-2537.05 2215.34,-2537.8 2218.25,-2538.63 2221.03,-2539.56 2223.67,-2540.56 2226.18,-2541.65 2228.53,-2542.81 2230.73,-2544.04 2232.76,-2545.35 2234.62,-2546.72 2236.31,-2548.15 2237.82,-2549.65 2239.14,-2551.19 2240.29,-2552.79 2241.25,-2554.44 2242.03,-2556.12 2242.62,-2557.84 2243.04,-2559.6 2243.28,-2561.38 2243.34,-2563.19 2243.24,-2565.01 2242.97,-2566.84 2242.54,-2568.69 2241.95,-2570.53 2241.22,-2572.38 2240.35,-2574.21 2239.34,-2576.03 2238.21,-2577.84 2236.96,-2579.62 2235.6,-2581.38 2234.14,-2583.1 2232.58,-2584.78 2230.93,-2586.43 2229.21,-2588.03 2227.4,-2589.57 2225.54,-2591.07 2223.61,-2592.5 2221.62,-2593.87 2219.59,-2595.18 2217.52,-2596.41 2215.41,-2597.57 2213.26,-2598.66 2211.09,-2599.66 2208.89,-2600.59 2206.68,-2601.42 2204.44,-2602.17 2202.19,-2602.84 2199.93,-2603.41 2197.66,-2603.88 2195.39,-2604.27 2193.1,-2604.56 2190.82,-2604.75 2188.53,-2604.85 2186.24,-2604.85 2183.95,-2604.75 2181.67,-2604.56 2179.38,-2604.27 2177.11,-2603.88 2174.84,-2603.41 2172.58,-2602.84 2170.33,-2602.17 2168.09,-2601.42 2165.88,-2600.59 2163.68,-2599.66 2161.51,-2598.66 2159.37,-2597.57 2157.25,-2596.41 2155.18,-2595.18 2153.15,-2593.87 2151.17,-2592.5 2149.24,-2591.07 2147.37,-2589.57 2145.56,-2588.03 2143.84,-2586.43 2142.19,-2584.78 2140.63,-2583.1 2139.17,-2581.38 2137.81,-2579.62 2136.56,-2577.84 2135.43,-2576.03 2134.42,-2574.21 2133.55,-2572.38 2132.82,-2570.53 2132.24,-2568.69 2131.81,-2566.84 2131.53,-2565.01 2131.43,-2563.19 2131.49,-2561.38 2131.73,-2559.6 2132.15,-2557.84 2132.74,-2556.12 2133.52,-2554.44 2134.48,-2552.79 2135.63,-2551.19 2136.95,-2549.65 2138.46,-2548.15 2140.15,-2546.72 2142.01,-2545.35 2144.04,-2544.04 2146.24,-2542.81 2148.59,-2541.65 2151.1,-2540.56 2153.74,-2539.56 2156.52,-2538.63 2159.43,-2537.8 2162.44,-2537.05 2165.56,-2536.38 2168.76,-2535.81 2172.04,-2535.34 2175.39,-2534.95 2178.78,-2534.66 2182.21,-2534.47 2185.66,-2534.37 2189.11,-2534.37 2192.56,-2534.47"/>
<text text-anchor="start" x="2158.22" y="-2579.41" font-family="Times,serif" font-size="14.00">C0449560</text>
<text text-anchor="start" x="2162.89" y="-2565.41" font-family="Times,serif" font-size="14.00">subtypes</text>
<text text-anchor="start" x="2171.44" y="-2551.41" font-family="Times,serif" font-size="14.00">85:85</text>
</g>
<!-- id_28033725_DOT_6&#45;&#45;id_28033725_DOT_14 -->
<g id="edge6" class="edge">
<title>id_28033725_DOT_6&#45;&#45;id_28033725_DOT_14</title>
<path fill="none" stroke="black" d="M2466.45,-2309.09C2408.72,-2362.98 2280.61,-2482.58 2220.17,-2539.01"/>
<text text-anchor="middle" x="2317.06" y="-2426.85" font-family="Times,serif" font-size="14.00">0.003236</text>
</g>
<!-- id_28033725_DOT_6&#45;&#45;id_28033725_DOT_16 -->
<g id="edge13" class="edge">
<title>id_28033725_DOT_6&#45;&#45;id_28033725_DOT_16</title>
<path fill="none" stroke="black" stroke-dasharray="1,5" d="M2496.29,-2246.43C2497.52,-2168.89 2500.44,-1984.57 2501.67,-1906.98"/>
<text text-anchor="middle" x="2472.73" y="-2079.5" font-family="Times,serif" font-size="14.00">0.906398</text>
</g>
<!-- id_28033725_DOT_11 -->
<g id="node11" class="node">
<title>id_28033725_DOT_11</title>
<polygon fill="cadetblue" stroke="cadetblue" points="2805.48,-712.36 2808.91,-712.56 2812.3,-712.85 2815.64,-713.23 2818.92,-713.71 2822.13,-714.28 2825.24,-714.94 2828.26,-715.69 2831.16,-716.53 2833.94,-717.45 2836.59,-718.45 2839.09,-719.54 2841.45,-720.7 2843.64,-721.94 2845.68,-723.24 2847.54,-724.61 2849.22,-726.05 2850.73,-727.54 2852.06,-729.09 2853.2,-730.68 2854.17,-732.33 2854.94,-734.01 2855.54,-735.74 2855.96,-737.49 2856.19,-739.27 2856.26,-741.08 2856.15,-742.9 2855.88,-744.74 2855.45,-746.58 2854.87,-748.43 2854.14,-750.27 2853.26,-752.1 2852.26,-753.93 2851.13,-755.73 2849.88,-757.51 2848.52,-759.27 2847.06,-760.99 2845.5,-762.68 2843.85,-764.32 2842.12,-765.92 2840.32,-767.47 2838.45,-768.96 2836.52,-770.39 2834.54,-771.77 2832.51,-773.07 2830.43,-774.31 2828.32,-775.47 2826.18,-776.55 2824,-777.56 2821.81,-778.48 2819.59,-779.32 2817.36,-780.07 2815.11,-780.73 2812.85,-781.3 2810.58,-781.78 2808.3,-782.16 2806.02,-782.45 2803.73,-782.64 2801.45,-782.74 2799.16,-782.74 2796.87,-782.64 2794.58,-782.45 2792.3,-782.16 2790.02,-781.78 2787.75,-781.3 2785.49,-780.73 2783.24,-780.07 2781.01,-779.32 2778.79,-778.48 2776.6,-777.56 2774.42,-776.55 2772.28,-775.47 2770.17,-774.31 2768.1,-773.07 2766.06,-771.77 2764.08,-770.39 2762.15,-768.96 2760.28,-767.47 2758.48,-765.92 2756.75,-764.32 2755.1,-762.68 2753.54,-760.99 2752.08,-759.27 2750.72,-757.51 2749.47,-755.73 2748.34,-753.93 2747.34,-752.1 2746.47,-750.27 2745.73,-748.43 2745.15,-746.58 2744.72,-744.74 2744.45,-742.9 2744.34,-741.08 2744.41,-739.27 2744.65,-737.49 2745.06,-735.74 2745.66,-734.01 2746.44,-732.33 2747.4,-730.68 2748.54,-729.09 2749.87,-727.54 2751.38,-726.05 2753.06,-724.61 2754.93,-723.24 2756.96,-721.94 2759.15,-720.7 2761.51,-719.54 2764.01,-718.45 2766.66,-717.45 2769.44,-716.53 2772.34,-715.69 2775.36,-714.94 2778.47,-714.28 2781.68,-713.71 2784.96,-713.23 2788.3,-712.85 2791.69,-712.56 2795.12,-712.36 2798.57,-712.27 2802.03,-712.27 2805.48,-712.36"/>
<text text-anchor="start" x="2771.13" y="-757.3" font-family="Times,serif" font-size="14.00">C0042749</text>
<text text-anchor="start" x="2778.92" y="-743.3" font-family="Times,serif" font-size="14.00">viremia</text>
<text text-anchor="start" x="2784.36" y="-729.3" font-family="Times,serif" font-size="14.00">39:39</text>
</g>
<!-- id_28033725_DOT_7&#45;&#45;id_28033725_DOT_11 -->
<g id="edge14" class="edge">
<title>id_28033725_DOT_7&#45;&#45;id_28033725_DOT_11</title>
<path fill="none" stroke="black" stroke-dasharray="1,5" d="M2677,-1084.11C2702.97,-1013.2 2761.99,-852.09 2787.81,-781.6"/>
<text text-anchor="middle" x="2706.15" y="-935.65" font-family="Times,serif" font-size="14.00">0.925485</text>
</g>
<!-- id_28033725_DOT_8 -->
<g id="node8" class="node">
<title>id_28033725_DOT_8</title>
<polygon fill="blueviolet" stroke="blueviolet" points="3197.69,-606.98 3201.12,-607.17 3204.51,-607.46 3207.85,-607.85 3211.13,-608.32 3214.34,-608.89 3217.45,-609.55 3220.47,-610.31 3223.37,-611.14 3226.15,-612.07 3228.8,-613.07 3231.3,-614.16 3233.66,-615.32 3235.85,-616.55 3237.88,-617.86 3239.75,-619.23 3241.43,-620.66 3242.94,-622.15 3244.27,-623.7 3245.41,-625.3 3246.37,-626.94 3247.15,-628.63 3247.75,-630.35 3248.16,-632.11 3248.4,-633.89 3248.47,-635.7 3248.36,-637.52 3248.09,-639.35 3247.66,-641.2 3247.08,-643.04 3246.34,-644.88 3245.47,-646.72 3244.47,-648.54 3243.34,-650.35 3242.09,-652.13 3240.73,-653.89 3239.27,-655.61 3237.71,-657.29 3236.06,-658.94 3234.33,-660.54 3232.53,-662.08 3230.66,-663.58 3228.73,-665.01 3226.75,-666.38 3224.71,-667.69 3222.64,-668.92 3220.53,-670.08 3218.39,-671.17 3216.21,-672.17 3214.02,-673.1 3211.8,-673.93 3209.57,-674.68 3207.32,-675.34 3205.06,-675.92 3202.79,-676.39 3200.51,-676.78 3198.23,-677.07 3195.94,-677.26 3193.65,-677.35 3191.36,-677.35 3189.08,-677.26 3186.79,-677.07 3184.51,-676.78 3182.23,-676.39 3179.96,-675.92 3177.7,-675.34 3175.45,-674.68 3173.22,-673.93 3171,-673.1 3168.81,-672.17 3166.63,-671.17 3164.49,-670.08 3162.38,-668.92 3160.3,-667.69 3158.27,-666.38 3156.29,-665.01 3154.36,-663.58 3152.49,-662.08 3150.69,-660.54 3148.96,-658.94 3147.31,-657.29 3145.75,-655.61 3144.29,-653.89 3142.93,-652.13 3141.68,-650.35 3140.55,-648.54 3139.55,-646.72 3138.67,-644.88 3137.94,-643.04 3137.36,-641.2 3136.93,-639.35 3136.66,-637.52 3136.55,-635.7 3136.62,-633.89 3136.85,-632.11 3137.27,-630.35 3137.87,-628.63 3138.64,-626.94 3139.61,-625.3 3140.75,-623.7 3142.08,-622.15 3143.59,-620.66 3145.27,-619.23 3147.13,-617.86 3149.17,-616.55 3151.36,-615.32 3153.72,-614.16 3156.22,-613.07 3158.87,-612.07 3161.65,-611.14 3164.55,-610.31 3167.57,-609.55 3170.68,-608.89 3173.89,-608.32 3177.17,-607.85 3180.51,-607.46 3183.9,-607.17 3187.33,-606.98 3190.78,-606.88 3194.24,-606.88 3197.69,-606.98"/>
<text text-anchor="start" x="3163.34" y="-651.92" font-family="Times,serif" font-size="14.00">C2603343</text>
<text text-anchor="start" x="3177.34" y="-637.92" font-family="Times,serif" font-size="14.00">study</text>
<text text-anchor="start" x="3176.56" y="-623.92" font-family="Times,serif" font-size="14.00">29:29</text>
</g>
<!-- id_28033725_DOT_8&#45;&#45;id_28033725_DOT_11 -->
<g id="edge15" class="edge">
<title>id_28033725_DOT_8&#45;&#45;id_28033725_DOT_11</title>
<path fill="none" stroke="black" stroke-dasharray="1,5" d="M3144.81,-654.94C3071.52,-674.63 2931.63,-712.22 2854.57,-732.92"/>
<text text-anchor="middle" x="2973.44" y="-696.73" font-family="Times,serif" font-size="14.00">0.920882</text>
</g>
<!-- id_28033725_DOT_9 -->
<g id="node9" class="node">
<title>id_28033725_DOT_9</title>
<polygon fill="brown" stroke="brown" points="2522.78,-0.23 2528.67,-0.42 2534.5,-0.71 2540.24,-1.09 2545.87,-1.57 2551.38,-2.14 2556.73,-2.8 2561.91,-3.55 2566.89,-4.39 2571.67,-5.31 2576.21,-6.32 2580.52,-7.4 2584.56,-8.57 2588.33,-9.8 2591.82,-11.1 2595.02,-12.48 2597.91,-13.91 2600.51,-15.4 2602.78,-16.95 2604.75,-18.55 2606.4,-20.19 2607.74,-21.88 2608.76,-23.6 2609.47,-25.36 2609.88,-27.14 2609.99,-28.94 2609.81,-30.77 2609.35,-32.6 2608.61,-34.44 2607.61,-36.29 2606.35,-38.13 2604.85,-39.97 2603.13,-41.79 2601.19,-43.6 2599.04,-45.38 2596.71,-47.13 2594.19,-48.86 2591.51,-50.54 2588.68,-52.19 2585.72,-53.78 2582.62,-55.33 2579.41,-56.82 2576.1,-58.26 2572.69,-59.63 2569.2,-60.94 2565.64,-62.17 2562.01,-63.33 2558.33,-64.42 2554.6,-65.42 2550.83,-66.34 2547.02,-67.18 2543.18,-67.93 2539.32,-68.59 2535.44,-69.16 2531.54,-69.64 2527.63,-70.02 2523.71,-70.31 2519.78,-70.51 2515.85,-70.6 2511.92,-70.6 2507.99,-70.51 2504.07,-70.31 2500.15,-70.02 2496.23,-69.64 2492.34,-69.16 2488.45,-68.59 2484.59,-67.93 2480.76,-67.18 2476.95,-66.34 2473.18,-65.42 2469.45,-64.42 2465.76,-63.33 2462.14,-62.17 2458.58,-60.94 2455.09,-59.63 2451.68,-58.26 2448.37,-56.82 2445.16,-55.33 2442.06,-53.78 2439.09,-52.19 2436.26,-50.54 2433.59,-48.86 2431.07,-47.13 2428.74,-45.38 2426.59,-43.6 2424.65,-41.79 2422.92,-39.97 2421.43,-38.13 2420.17,-36.29 2419.17,-34.44 2418.43,-32.6 2417.97,-30.77 2417.78,-28.94 2417.89,-27.14 2418.3,-25.36 2419.02,-23.6 2420.04,-21.88 2421.38,-20.19 2423.03,-18.55 2424.99,-16.95 2427.27,-15.4 2429.86,-13.91 2432.76,-12.48 2435.96,-11.1 2439.45,-9.8 2443.22,-8.57 2447.26,-7.4 2451.56,-6.32 2456.11,-5.31 2460.88,-4.39 2465.87,-3.55 2471.05,-2.8 2476.4,-2.14 2481.9,-1.57 2487.54,-1.09 2493.28,-0.71 2499.11,-0.42 2505,-0.23 2510.92,-0.13 2516.86,-0.13 2522.78,-0.23"/>
<text text-anchor="start" x="2484.72" y="-45.17" font-family="Times,serif" font-size="14.00">C0151317</text>
<text text-anchor="start" x="2458.11" y="-31.17" font-family="Times,serif" font-size="14.00">chronically infected</text>
<text text-anchor="start" x="2497.94" y="-17.17" font-family="Times,serif" font-size="14.00">31:32</text>
</g>
<!-- id_28033725_DOT_15 -->
<g id="node15" class="node">
<title>id_28033725_DOT_15</title>
<polygon fill="chartreuse" stroke="chartreuse" points="2613.83,-363.19 2617.26,-363.38 2620.65,-363.67 2623.99,-364.05 2627.27,-364.53 2630.48,-365.1 2633.59,-365.76 2636.61,-366.51 2639.51,-367.35 2642.29,-368.27 2644.94,-369.28 2647.44,-370.36 2649.8,-371.52 2651.99,-372.76 2654.02,-374.06 2655.89,-375.43 2657.57,-376.87 2659.08,-378.36 2660.41,-379.91 2661.55,-381.51 2662.51,-383.15 2663.29,-384.84 2663.89,-386.56 2664.3,-388.31 2664.54,-390.1 2664.61,-391.9 2664.5,-393.72 2664.23,-395.56 2663.8,-397.4 2663.22,-399.25 2662.48,-401.09 2661.61,-402.93 2660.61,-404.75 2659.48,-406.55 2658.23,-408.34 2656.87,-410.09 2655.41,-411.81 2653.85,-413.5 2652.2,-415.14 2650.47,-416.74 2648.67,-418.29 2646.8,-419.78 2644.87,-421.22 2642.89,-422.59 2640.85,-423.89 2638.78,-425.13 2636.67,-426.29 2634.53,-427.37 2632.35,-428.38 2630.16,-429.3 2627.94,-430.14 2625.71,-430.89 2623.46,-431.55 2621.2,-432.12 2618.93,-432.6 2616.65,-432.98 2614.37,-433.27 2612.08,-433.46 2609.79,-433.56 2607.5,-433.56 2605.22,-433.46 2602.93,-433.27 2600.65,-432.98 2598.37,-432.6 2596.1,-432.12 2593.84,-431.55 2591.59,-430.89 2589.36,-430.14 2587.14,-429.3 2584.95,-428.38 2582.77,-427.37 2580.63,-426.29 2578.52,-425.13 2576.44,-423.89 2574.41,-422.59 2572.43,-421.22 2570.5,-419.78 2568.63,-418.29 2566.83,-416.74 2565.1,-415.14 2563.45,-413.5 2561.89,-411.81 2560.43,-410.09 2559.07,-408.34 2557.82,-406.55 2556.69,-404.75 2555.69,-402.93 2554.81,-401.09 2554.08,-399.25 2553.5,-397.4 2553.07,-395.56 2552.8,-393.72 2552.69,-391.9 2552.76,-390.1 2552.99,-388.31 2553.41,-386.56 2554.01,-384.84 2554.78,-383.15 2555.75,-381.51 2556.89,-379.91 2558.22,-378.36 2559.73,-376.87 2561.41,-375.43 2563.27,-374.06 2565.31,-372.76 2567.5,-371.52 2569.86,-370.36 2572.36,-369.28 2575.01,-368.27 2577.79,-367.35 2580.69,-366.51 2583.71,-365.76 2586.82,-365.1 2590.03,-364.53 2593.31,-364.05 2596.65,-363.67 2600.04,-363.38 2603.47,-363.19 2606.92,-363.09 2610.38,-363.09 2613.83,-363.19"/>
<text text-anchor="start" x="2579.48" y="-408.13" font-family="Times,serif" font-size="14.00">C0005507</text>
<text text-anchor="start" x="2593.49" y="-394.13" font-family="Times,serif" font-size="14.00">assay</text>
<text text-anchor="start" x="2592.7" y="-380.13" font-family="Times,serif" font-size="14.00">96:96</text>
</g>
<!-- id_28033725_DOT_9&#45;&#45;id_28033725_DOT_15 -->
<g id="edge16" class="edge">
<title>id_28033725_DOT_9&#45;&#45;id_28033725_DOT_15</title>
<path fill="none" stroke="black" stroke-dasharray="1,5" d="M2523.06,-70.5C2541.18,-139.88 2581.35,-293.77 2599.47,-363.17"/>
<text text-anchor="middle" x="2535.02" y="-219.64" font-family="Times,serif" font-size="14.00">0.916347</text>
</g>
<!-- id_28033725_DOT_12 -->
<g id="node12" class="node">
<title>id_28033725_DOT_12</title>
<polygon fill="aquamarine" stroke="aquamarine" points="880.19,-3706.08 885.17,-3706.27 890.1,-3706.56 894.96,-3706.94 899.73,-3707.42 904.39,-3707.99 908.91,-3708.65 913.29,-3709.4 917.51,-3710.24 921.55,-3711.16 925.4,-3712.17 929.04,-3713.25 932.46,-3714.41 935.65,-3715.65 938.6,-3716.95 941.31,-3718.33 943.76,-3719.76 945.95,-3721.25 947.88,-3722.8 949.54,-3724.4 950.94,-3726.04 952.07,-3727.73 952.94,-3729.45 953.54,-3731.21 953.88,-3732.99 953.98,-3734.79 953.82,-3736.62 953.43,-3738.45 952.81,-3740.29 951.96,-3742.14 950.9,-3743.98 949.63,-3745.82 948.17,-3747.64 946.53,-3749.45 944.71,-3751.23 942.74,-3752.98 940.61,-3754.71 938.34,-3756.39 935.95,-3758.04 933.44,-3759.63 930.82,-3761.18 928.1,-3762.67 925.3,-3764.11 922.42,-3765.48 919.47,-3766.78 916.45,-3768.02 913.38,-3769.18 910.27,-3770.27 907.11,-3771.27 903.92,-3772.19 900.7,-3773.03 897.45,-3773.78 894.19,-3774.44 890.9,-3775.01 887.6,-3775.49 884.29,-3775.87 880.98,-3776.16 877.66,-3776.36 874.33,-3776.45 871,-3776.45 867.68,-3776.36 864.36,-3776.16 861.04,-3775.87 857.73,-3775.49 854.43,-3775.01 851.15,-3774.44 847.88,-3773.78 844.64,-3773.03 841.41,-3772.19 838.22,-3771.27 835.07,-3770.27 831.95,-3769.18 828.88,-3768.02 825.87,-3766.78 822.92,-3765.48 820.04,-3764.11 817.23,-3762.67 814.52,-3761.18 811.9,-3759.63 809.39,-3758.04 806.99,-3756.39 804.73,-3754.71 802.6,-3752.98 800.62,-3751.23 798.81,-3749.45 797.16,-3747.64 795.7,-3745.82 794.44,-3743.98 793.38,-3742.14 792.53,-3740.29 791.9,-3738.45 791.51,-3736.62 791.36,-3734.79 791.45,-3732.99 791.8,-3731.21 792.4,-3729.45 793.26,-3727.73 794.4,-3726.04 795.79,-3724.4 797.46,-3722.8 799.38,-3721.25 801.58,-3719.76 804.03,-3718.33 806.73,-3716.95 809.68,-3715.65 812.87,-3714.41 816.3,-3713.25 819.94,-3712.17 823.78,-3711.16 827.82,-3710.24 832.04,-3709.4 836.42,-3708.65 840.95,-3707.99 845.61,-3707.42 850.37,-3706.94 855.23,-3706.56 860.16,-3706.27 865.14,-3706.08 870.16,-3705.98 875.18,-3705.98 880.19,-3706.08"/>
<text text-anchor="start" x="843.5" y="-3751.02" font-family="Times,serif" font-size="14.00">C0220847</text>
<text text-anchor="start" x="826.78" y="-3737.02" font-family="Times,serif" font-size="14.00">hepatitis C virus</text>
<text text-anchor="start" x="856.72" y="-3723.02" font-family="Times,serif" font-size="14.00">43:45</text>
</g>
<!-- id_28033725_DOT_10&#45;&#45;id_28033725_DOT_12 -->
<g id="edge7" class="edge">
<title>id_28033725_DOT_10&#45;&#45;id_28033725_DOT_12</title>
<path fill="none" stroke="black" d="M849,-3371.26C853.9,-3447.89 865.49,-3628.94 870.4,-3705.76"/>
<text text-anchor="middle" x="833.45" y="-3541.31" font-family="Times,serif" font-size="14.00">0.000967</text>
</g>
<!-- id_28033725_DOT_13 -->
<g id="node13" class="node">
<title>id_28033725_DOT_13</title>
<polygon fill="aquamarine" stroke="aquamarine" points="1160.03,-3052.85 1165.02,-3053.04 1169.95,-3053.33 1174.8,-3053.72 1179.57,-3054.19 1184.23,-3054.76 1188.76,-3055.42 1193.14,-3056.18 1197.36,-3057.01 1201.4,-3057.94 1205.24,-3058.94 1208.88,-3060.03 1212.3,-3061.19 1215.49,-3062.42 1218.45,-3063.73 1221.15,-3065.1 1223.6,-3066.53 1225.79,-3068.02 1227.72,-3069.57 1229.39,-3071.17 1230.78,-3072.81 1231.91,-3074.5 1232.78,-3076.22 1233.38,-3077.98 1233.73,-3079.76 1233.82,-3081.57 1233.67,-3083.39 1233.27,-3085.22 1232.65,-3087.07 1231.8,-3088.91 1230.74,-3090.75 1229.47,-3092.59 1228.01,-3094.41 1226.37,-3096.22 1224.55,-3098 1222.58,-3099.76 1220.45,-3101.48 1218.19,-3103.16 1215.79,-3104.81 1213.28,-3106.41 1210.66,-3107.95 1207.95,-3109.45 1205.14,-3110.88 1202.26,-3112.25 1199.31,-3113.56 1196.29,-3114.79 1193.23,-3115.95 1190.11,-3117.04 1186.95,-3118.04 1183.76,-3118.97 1180.54,-3119.8 1177.3,-3120.55 1174.03,-3121.21 1170.74,-3121.79 1167.45,-3122.26 1164.14,-3122.65 1160.82,-3122.94 1157.5,-3123.13 1154.17,-3123.22 1150.85,-3123.22 1147.52,-3123.13 1144.2,-3122.94 1140.88,-3122.65 1137.57,-3122.26 1134.28,-3121.79 1130.99,-3121.21 1127.72,-3120.55 1124.48,-3119.8 1121.26,-3118.97 1118.07,-3118.04 1114.91,-3117.04 1111.79,-3115.95 1108.73,-3114.79 1105.71,-3113.56 1102.76,-3112.25 1099.88,-3110.88 1097.07,-3109.45 1094.36,-3107.95 1091.74,-3106.41 1089.23,-3104.81 1086.83,-3103.16 1084.57,-3101.48 1082.44,-3099.76 1080.47,-3098 1078.65,-3096.22 1077.01,-3094.41 1075.55,-3092.59 1074.28,-3090.75 1073.22,-3088.91 1072.37,-3087.07 1071.75,-3085.22 1071.35,-3083.39 1071.2,-3081.57 1071.29,-3079.76 1071.64,-3077.98 1072.24,-3076.22 1073.11,-3074.5 1074.24,-3072.81 1075.64,-3071.17 1077.3,-3069.57 1079.23,-3068.02 1081.42,-3066.53 1083.87,-3065.1 1086.57,-3063.73 1089.53,-3062.42 1092.72,-3061.19 1096.14,-3060.03 1099.78,-3058.94 1103.62,-3057.94 1107.66,-3057.01 1111.88,-3056.18 1116.26,-3055.42 1120.79,-3054.76 1125.45,-3054.19 1130.22,-3053.72 1135.07,-3053.33 1140,-3053.04 1144.99,-3052.85 1150,-3052.75 1155.02,-3052.75 1160.03,-3052.85"/>
<text text-anchor="start" x="1123.34" y="-3097.79" font-family="Times,serif" font-size="14.00">C0220847</text>
<text text-anchor="start" x="1106.62" y="-3083.79" font-family="Times,serif" font-size="14.00">hepatitis C virus</text>
<text text-anchor="start" x="1136.57" y="-3069.79" font-family="Times,serif" font-size="14.00">82:84</text>
</g>
<!-- id_28033725_DOT_10&#45;&#45;id_28033725_DOT_13 -->
<g id="edge8" class="edge">
<title>id_28033725_DOT_10&#45;&#45;id_28033725_DOT_13</title>
<path fill="none" stroke="black" d="M886.41,-3303.84C946.03,-3255.47 1057.93,-3164.71 1115.79,-3117.78"/>
<text text-anchor="middle" x="974.85" y="-3213.61" font-family="Times,serif" font-size="14.00">0.001710</text>
</g>
<!-- id_28033725_DOT_11&#45;&#45;id_28033725_DOT_15 -->
<g id="edge17" class="edge">
<title>id_28033725_DOT_11&#45;&#45;id_28033725_DOT_15</title>
<path fill="none" stroke="black" stroke-dasharray="1,5" d="M2781.58,-713.39C2744.61,-646.03 2662.69,-496.79 2626.47,-430.8"/>
<text text-anchor="middle" x="2677.77" y="-574.89" font-family="Times,serif" font-size="14.00">0.876387</text>
</g>
<!-- id_28033725_DOT_18 -->
<g id="node18" class="node">
<title>id_28033725_DOT_18</title>
<polygon fill="aquamarine" stroke="aquamarine" points="1469.79,-2830.62 1474.77,-2830.81 1479.7,-2831.1 1484.56,-2831.48 1489.33,-2831.96 1493.98,-2832.53 1498.51,-2833.19 1502.89,-2833.94 1507.11,-2834.78 1511.15,-2835.7 1515,-2836.71 1518.64,-2837.79 1522.06,-2838.95 1525.25,-2840.19 1528.2,-2841.49 1530.9,-2842.87 1533.36,-2844.3 1535.55,-2845.79 1537.48,-2847.34 1539.14,-2848.94 1540.54,-2850.58 1541.67,-2852.27 1542.53,-2853.99 1543.14,-2855.75 1543.48,-2857.53 1543.57,-2859.33 1543.42,-2861.16 1543.03,-2862.99 1542.4,-2864.83 1541.55,-2866.68 1540.49,-2868.52 1539.23,-2870.36 1537.77,-2872.18 1536.12,-2873.99 1534.31,-2875.77 1532.33,-2877.52 1530.21,-2879.25 1527.94,-2880.93 1525.55,-2882.58 1523.03,-2884.17 1520.42,-2885.72 1517.7,-2887.21 1514.9,-2888.65 1512.01,-2890.02 1509.06,-2891.33 1506.05,-2892.56 1502.98,-2893.72 1499.86,-2894.81 1496.71,-2895.81 1493.52,-2896.73 1490.3,-2897.57 1487.05,-2898.32 1483.78,-2898.98 1480.5,-2899.55 1477.2,-2900.03 1473.89,-2900.41 1470.58,-2900.7 1467.25,-2900.9 1463.93,-2900.99 1460.6,-2900.99 1457.28,-2900.9 1453.95,-2900.7 1450.64,-2900.41 1447.33,-2900.03 1444.03,-2899.55 1440.75,-2898.98 1437.48,-2898.32 1434.23,-2897.57 1431.01,-2896.73 1427.82,-2895.81 1424.66,-2894.81 1421.55,-2893.72 1418.48,-2892.56 1415.47,-2891.33 1412.51,-2890.02 1409.63,-2888.65 1406.83,-2887.21 1404.11,-2885.72 1401.49,-2884.17 1398.98,-2882.58 1396.59,-2880.93 1394.32,-2879.25 1392.2,-2877.52 1390.22,-2875.77 1388.4,-2873.99 1386.76,-2872.18 1385.3,-2870.36 1384.04,-2868.52 1382.97,-2866.68 1382.13,-2864.83 1381.5,-2862.99 1381.11,-2861.16 1380.95,-2859.33 1381.05,-2857.53 1381.39,-2855.75 1382,-2853.99 1382.86,-2852.27 1383.99,-2850.58 1385.39,-2848.94 1387.05,-2847.34 1388.98,-2845.79 1391.17,-2844.3 1393.62,-2842.87 1396.33,-2841.49 1399.28,-2840.19 1402.47,-2838.95 1405.89,-2837.79 1409.53,-2836.71 1413.38,-2835.7 1417.42,-2834.78 1421.64,-2833.94 1426.02,-2833.19 1430.55,-2832.53 1435.2,-2831.96 1439.97,-2831.48 1444.83,-2831.1 1449.76,-2830.81 1454.74,-2830.62 1459.75,-2830.52 1464.78,-2830.52 1469.79,-2830.62"/>
<text text-anchor="start" x="1433.1" y="-2875.56" font-family="Times,serif" font-size="14.00">C0220847</text>
<text text-anchor="start" x="1416.38" y="-2861.56" font-family="Times,serif" font-size="14.00">hepatitis C virus</text>
<text text-anchor="start" x="1440.09" y="-2847.56" font-family="Times,serif" font-size="14.00">111:113</text>
</g>
<!-- id_28033725_DOT_13&#45;&#45;id_28033725_DOT_18 -->
<g id="edge9" class="edge">
<title>id_28033725_DOT_13&#45;&#45;id_28033725_DOT_18</title>
<path fill="none" stroke="black" d="M1196.23,-3056.62C1256.6,-3013.31 1364.59,-2935.83 1422.69,-2894.15"/>
<text text-anchor="middle" x="1283.21" y="-2978.19" font-family="Times,serif" font-size="14.00">0.000260</text>
</g>
<!-- id_28033725_DOT_17 -->
<g id="node17" class="node">
<title>id_28033725_DOT_17</title>
<polygon fill="bisque" stroke="bisque" points="1801.86,-2639.18 1805.29,-2639.37 1808.68,-2639.66 1812.02,-2640.04 1815.3,-2640.52 1818.51,-2641.09 1821.62,-2641.75 1824.64,-2642.5 1827.54,-2643.34 1830.32,-2644.26 1832.97,-2645.27 1835.47,-2646.35 1837.83,-2647.51 1840.02,-2648.75 1842.06,-2650.05 1843.92,-2651.42 1845.6,-2652.86 1847.11,-2654.35 1848.44,-2655.9 1849.58,-2657.5 1850.55,-2659.14 1851.32,-2660.83 1851.92,-2662.55 1852.33,-2664.31 1852.57,-2666.09 1852.64,-2667.89 1852.53,-2669.72 1852.26,-2671.55 1851.83,-2673.39 1851.25,-2675.24 1850.52,-2677.08 1849.64,-2678.92 1848.64,-2680.74 1847.51,-2682.54 1846.26,-2684.33 1844.9,-2686.08 1843.44,-2687.8 1841.88,-2689.49 1840.23,-2691.13 1838.5,-2692.73 1836.7,-2694.28 1834.83,-2695.77 1832.9,-2697.21 1830.92,-2698.58 1828.89,-2699.88 1826.81,-2701.12 1824.7,-2702.28 1822.56,-2703.36 1820.38,-2704.37 1818.19,-2705.29 1815.97,-2706.13 1813.74,-2706.88 1811.49,-2707.54 1809.23,-2708.11 1806.96,-2708.59 1804.68,-2708.97 1802.4,-2709.26 1800.11,-2709.45 1797.82,-2709.55 1795.54,-2709.55 1793.25,-2709.45 1790.96,-2709.26 1788.68,-2708.97 1786.4,-2708.59 1784.13,-2708.11 1781.87,-2707.54 1779.62,-2706.88 1777.39,-2706.13 1775.17,-2705.29 1772.98,-2704.37 1770.8,-2703.36 1768.66,-2702.28 1766.55,-2701.12 1764.47,-2699.88 1762.44,-2698.58 1760.46,-2697.21 1758.53,-2695.77 1756.66,-2694.28 1754.86,-2692.73 1753.13,-2691.13 1751.48,-2689.49 1749.92,-2687.8 1748.46,-2686.08 1747.1,-2684.33 1745.85,-2682.54 1744.72,-2680.74 1743.72,-2678.92 1742.84,-2677.08 1742.11,-2675.24 1741.53,-2673.39 1741.1,-2671.55 1740.83,-2669.72 1740.72,-2667.89 1740.79,-2666.09 1741.03,-2664.31 1741.44,-2662.55 1742.04,-2660.83 1742.81,-2659.14 1743.78,-2657.5 1744.92,-2655.9 1746.25,-2654.35 1747.76,-2652.86 1749.44,-2651.42 1751.3,-2650.05 1753.34,-2648.75 1755.53,-2647.51 1757.89,-2646.35 1760.39,-2645.27 1763.04,-2644.26 1765.82,-2643.34 1768.72,-2642.5 1771.74,-2641.75 1774.85,-2641.09 1778.06,-2640.52 1781.34,-2640.04 1784.68,-2639.66 1788.07,-2639.37 1791.5,-2639.18 1794.95,-2639.08 1798.41,-2639.08 1801.86,-2639.18"/>
<text text-anchor="start" x="1767.51" y="-2684.12" font-family="Times,serif" font-size="14.00">C0449560</text>
<text text-anchor="start" x="1772.18" y="-2670.12" font-family="Times,serif" font-size="14.00">subtypes</text>
<text text-anchor="start" x="1773.74" y="-2656.12" font-family="Times,serif" font-size="14.00">104:104</text>
</g>
<!-- id_28033725_DOT_14&#45;&#45;id_28033725_DOT_17 -->
<g id="edge10" class="edge">
<title>id_28033725_DOT_14&#45;&#45;id_28033725_DOT_17</title>
<path fill="none" stroke="black" d="M2139.87,-2582.34C2066.96,-2601.88 1927.9,-2639.15 1851.06,-2659.74"/>
<text text-anchor="middle" x="1969.22" y="-2623.84" font-family="Times,serif" font-size="14.00">0.001848</text>
</g>
<!-- id_28033725_DOT_19 -->
<g id="node19" class="node">
<title>id_28033725_DOT_19</title>
<polygon fill="bisque" stroke="bisque" points="2372.07,-2904.64 2375.5,-2904.84 2378.89,-2905.13 2382.23,-2905.51 2385.51,-2905.99 2388.72,-2906.56 2391.83,-2907.22 2394.85,-2907.97 2397.75,-2908.81 2400.53,-2909.73 2403.18,-2910.74 2405.68,-2911.82 2408.04,-2912.98 2410.23,-2914.22 2412.27,-2915.52 2414.13,-2916.89 2415.81,-2918.33 2417.32,-2919.82 2418.65,-2921.37 2419.79,-2922.97 2420.76,-2924.61 2421.53,-2926.3 2422.13,-2928.02 2422.54,-2929.77 2422.78,-2931.56 2422.85,-2933.36 2422.74,-2935.18 2422.47,-2937.02 2422.04,-2938.86 2421.46,-2940.71 2420.73,-2942.55 2419.85,-2944.38 2418.85,-2946.21 2417.72,-2948.01 2416.47,-2949.79 2415.11,-2951.55 2413.65,-2953.27 2412.09,-2954.96 2410.44,-2956.6 2408.71,-2958.2 2406.91,-2959.75 2405.04,-2961.24 2403.11,-2962.68 2401.13,-2964.05 2399.1,-2965.35 2397.02,-2966.59 2394.91,-2967.75 2392.77,-2968.83 2390.59,-2969.84 2388.4,-2970.76 2386.18,-2971.6 2383.95,-2972.35 2381.7,-2973.01 2379.44,-2973.58 2377.17,-2974.06 2374.89,-2974.44 2372.61,-2974.73 2370.32,-2974.92 2368.03,-2975.02 2365.75,-2975.02 2363.46,-2974.92 2361.17,-2974.73 2358.89,-2974.44 2356.61,-2974.06 2354.34,-2973.58 2352.08,-2973.01 2349.83,-2972.35 2347.6,-2971.6 2345.38,-2970.76 2343.19,-2969.84 2341.01,-2968.83 2338.87,-2967.75 2336.76,-2966.59 2334.68,-2965.35 2332.65,-2964.05 2330.67,-2962.68 2328.74,-2961.24 2326.87,-2959.75 2325.07,-2958.2 2323.34,-2956.6 2321.69,-2954.96 2320.13,-2953.27 2318.67,-2951.55 2317.31,-2949.79 2316.06,-2948.01 2314.93,-2946.21 2313.93,-2944.38 2313.06,-2942.55 2312.32,-2940.71 2311.74,-2938.86 2311.31,-2937.02 2311.04,-2935.18 2310.93,-2933.36 2311,-2931.56 2311.24,-2929.77 2311.65,-2928.02 2312.25,-2926.3 2313.03,-2924.61 2313.99,-2922.97 2315.13,-2921.37 2316.46,-2919.82 2317.97,-2918.33 2319.65,-2916.89 2321.51,-2915.52 2323.55,-2914.22 2325.74,-2912.98 2328.1,-2911.82 2330.6,-2910.74 2333.25,-2909.73 2336.03,-2908.81 2338.93,-2907.97 2341.95,-2907.22 2345.06,-2906.56 2348.27,-2905.99 2351.55,-2905.51 2354.89,-2905.13 2358.28,-2904.84 2361.71,-2904.64 2365.16,-2904.55 2368.62,-2904.55 2372.07,-2904.64"/>
<text text-anchor="start" x="2337.72" y="-2949.58" font-family="Times,serif" font-size="14.00">C0449560</text>
<text text-anchor="start" x="2342.39" y="-2935.58" font-family="Times,serif" font-size="14.00">subtypes</text>
<text text-anchor="start" x="2344.46" y="-2921.58" font-family="Times,serif" font-size="14.00">114:114</text>
</g>
<!-- id_28033725_DOT_14&#45;&#45;id_28033725_DOT_19 -->
<g id="edge11" class="edge">
<title>id_28033725_DOT_14&#45;&#45;id_28033725_DOT_19</title>
<path fill="none" stroke="black" d="M2203.47,-2602.79C2237.38,-2672.71 2315.87,-2834.58 2350.25,-2905.48"/>
<text text-anchor="middle" x="2250.61" y="-2756.93" font-family="Times,serif" font-size="14.00">0.000675</text>
</g>
<!-- id_28033725_DOT_17&#45;&#45;id_28033725_DOT_18 -->
<g id="edge18" class="edge">
<title>id_28033725_DOT_17&#45;&#45;id_28033725_DOT_18</title>
<path fill="none" stroke="black" stroke-dasharray="1,5" d="M1758.64,-2696.09C1698.47,-2730.54 1581.23,-2797.65 1513.64,-2836.35"/>
<text text-anchor="middle" x="1609.89" y="-2769.02" font-family="Times,serif" font-size="14.00">1.044719</text>
</g>
</g>
</svg>
