<?xml version="1.0" encoding="UTF-8" standalone="no"?>
<!DOCTYPE svg PUBLIC "-//W3C//DTD SVG 1.1//EN"
 "http://www.w3.org/Graphics/SVG/1.1/DTD/svg11.dtd">
<!-- Generated by graphviz version 2.42.3 (20191010.1750)
 -->
<!-- Title: MST Pages: 1 -->
<svg width="2239pt" height="7429pt"
 viewBox="0.00 0.00 2238.51 7428.89" xmlns="http://www.w3.org/2000/svg" xmlns:xlink="http://www.w3.org/1999/xlink">
<g id="graph0" class="graph" transform="scale(1 1) rotate(0) translate(4 7424.89)">
<title>MST</title>
<polygon fill="white" stroke="transparent" points="-4,4 -4,-7424.89 2234.51,-7424.89 2234.51,4 -4,4"/>
<!-- id_28058375_DOT_1 -->
<g id="node1" class="node">
<title>id_28058375_DOT_1</title>
<polygon fill="aquamarine" stroke="aquamarine" points="873.28,-4677.06 878.83,-4677.25 884.31,-4677.54 889.71,-4677.93 895.02,-4678.4 900.19,-4678.97 905.23,-4679.64 910.1,-4680.39 914.8,-4681.22 919.29,-4682.15 923.57,-4683.15 927.62,-4684.24 931.42,-4685.4 934.97,-4686.63 938.25,-4687.94 941.26,-4689.31 943.99,-4690.74 946.43,-4692.24 948.57,-4693.78 950.42,-4695.38 951.98,-4697.03 953.23,-4698.71 954.2,-4700.43 954.87,-4702.19 955.25,-4703.97 955.36,-4705.78 955.18,-4707.6 954.75,-4709.43 954.05,-4711.28 953.11,-4713.12 951.93,-4714.97 950.52,-4716.8 948.9,-4718.62 947.07,-4720.43 945.05,-4722.21 942.85,-4723.97 940.49,-4725.69 937.97,-4727.37 935.3,-4729.02 932.51,-4730.62 929.6,-4732.16 926.58,-4733.66 923.46,-4735.09 920.25,-4736.46 916.97,-4737.77 913.62,-4739 910.2,-4740.16 906.74,-4741.25 903.23,-4742.25 899.68,-4743.18 896.09,-4744.01 892.48,-4744.76 888.85,-4745.43 885.2,-4746 881.53,-4746.47 877.85,-4746.86 874.16,-4747.15 870.46,-4747.34 866.76,-4747.44 863.06,-4747.44 859.37,-4747.34 855.67,-4747.15 851.98,-4746.86 848.3,-4746.47 844.63,-4746 840.98,-4745.43 837.35,-4744.76 833.74,-4744.01 830.15,-4743.18 826.6,-4742.25 823.09,-4741.25 819.63,-4740.16 816.21,-4739 812.86,-4737.77 809.58,-4736.46 806.37,-4735.09 803.25,-4733.66 800.23,-4732.16 797.32,-4730.62 794.53,-4729.02 791.86,-4727.37 789.34,-4725.69 786.98,-4723.97 784.78,-4722.21 782.76,-4720.43 780.93,-4718.62 779.31,-4716.8 777.9,-4714.97 776.72,-4713.12 775.78,-4711.28 775.08,-4709.43 774.64,-4707.6 774.47,-4705.78 774.58,-4703.97 774.96,-4702.19 775.63,-4700.43 776.6,-4698.71 777.85,-4697.03 779.41,-4695.38 781.26,-4693.78 783.4,-4692.24 785.84,-4690.74 788.57,-4689.31 791.58,-4687.94 794.86,-4686.63 798.41,-4685.4 802.21,-4684.24 806.26,-4683.15 810.54,-4682.15 815.03,-4681.22 819.73,-4680.39 824.6,-4679.64 829.63,-4678.97 834.81,-4678.4 840.12,-4677.93 845.52,-4677.54 851,-4677.25 856.55,-4677.06 862.12,-4676.96 867.71,-4676.96 873.28,-4677.06"/>
<text text-anchor="start" x="835.75" y="-4722" font-family="Times,serif" font-size="14.00">C0149700</text>
<text text-anchor="start" x="813.01" y="-4708" font-family="Times,serif" font-size="14.00">gastric obstruction</text>
<text text-anchor="start" x="855.97" y="-4694" font-family="Times,serif" font-size="14.00">4:5</text>
</g>
<!-- id_28058375_DOT_11 -->
<g id="node11" class="node">
<title>id_28058375_DOT_11</title>
<polygon fill="coral" stroke="coral" points="767.99,-4259.6 771.63,-4259.79 775.24,-4260.08 778.79,-4260.47 782.28,-4260.94 785.68,-4261.51 788.99,-4262.18 792.2,-4262.93 795.28,-4263.76 798.24,-4264.69 801.05,-4265.69 803.71,-4266.78 806.21,-4267.94 808.55,-4269.17 810.71,-4270.48 812.69,-4271.85 814.48,-4273.28 816.08,-4274.78 817.49,-4276.32 818.71,-4277.92 819.73,-4279.57 820.56,-4281.25 821.19,-4282.97 821.63,-4284.73 821.88,-4286.51 821.95,-4288.32 821.84,-4290.14 821.55,-4291.97 821.1,-4293.82 820.47,-4295.66 819.7,-4297.51 818.77,-4299.34 817.7,-4301.16 816.5,-4302.97 815.18,-4304.75 813.73,-4306.51 812.17,-4308.23 810.52,-4309.91 808.77,-4311.56 806.93,-4313.16 805.01,-4314.7 803.03,-4316.2 800.98,-4317.63 798.87,-4319 796.71,-4320.31 794.51,-4321.54 792.26,-4322.7 789.98,-4323.79 787.68,-4324.79 785.34,-4325.72 782.99,-4326.55 780.61,-4327.3 778.22,-4327.97 775.82,-4328.54 773.41,-4329.01 770.99,-4329.4 768.56,-4329.69 766.13,-4329.88 763.7,-4329.98 761.27,-4329.98 758.84,-4329.88 756.41,-4329.69 753.98,-4329.4 751.56,-4329.01 749.15,-4328.54 746.75,-4327.97 744.36,-4327.3 741.98,-4326.55 739.63,-4325.72 737.29,-4324.79 734.99,-4323.79 732.71,-4322.7 730.46,-4321.54 728.26,-4320.31 726.1,-4319 723.99,-4317.63 721.94,-4316.2 719.96,-4314.7 718.04,-4313.16 716.2,-4311.56 714.45,-4309.91 712.8,-4308.23 711.24,-4306.51 709.79,-4304.75 708.47,-4302.97 707.27,-4301.16 706.2,-4299.34 705.27,-4297.51 704.5,-4295.66 703.87,-4293.82 703.42,-4291.97 703.13,-4290.14 703.02,-4288.32 703.09,-4286.51 703.34,-4284.73 703.78,-4282.97 704.41,-4281.25 705.24,-4279.57 706.26,-4277.92 707.48,-4276.32 708.89,-4274.78 710.49,-4273.28 712.28,-4271.85 714.26,-4270.48 716.42,-4269.17 718.76,-4267.94 721.26,-4266.78 723.92,-4265.69 726.73,-4264.69 729.69,-4263.76 732.77,-4262.93 735.98,-4262.18 739.29,-4261.51 742.69,-4260.94 746.18,-4260.47 749.73,-4260.08 753.34,-4259.79 756.98,-4259.6 760.65,-4259.5 764.32,-4259.5 767.99,-4259.6"/>
<text text-anchor="start" x="733.32" y="-4304.54" font-family="Times,serif" font-size="14.00">C0028778</text>
<text text-anchor="start" x="730.99" y="-4290.54" font-family="Times,serif" font-size="14.00">obstruction</text>
<text text-anchor="start" x="746.54" y="-4276.54" font-family="Times,serif" font-size="14.00">60:60</text>
</g>
<!-- id_28058375_DOT_1&#45;&#45;id_28058375_DOT_11 -->
<g id="edge1" class="edge">
<title>id_28058375_DOT_1&#45;&#45;id_28058375_DOT_11</title>
<path fill="none" stroke="black" d="M856.27,-4676.97C836.91,-4598.04 790.24,-4407.86 771,-4329.44"/>
<text text-anchor="middle" x="787.38" y="-4506" font-family="Times,serif" font-size="14.00">0.087740</text>
</g>
<!-- id_28058375_DOT_21 -->
<g id="node21" class="node">
<title>id_28058375_DOT_21</title>
<polygon fill="darksalmon" stroke="darksalmon" points="466.13,-4835.77 473.28,-4835.96 480.36,-4836.25 487.33,-4836.63 494.17,-4837.11 500.86,-4837.68 507.36,-4838.34 513.65,-4839.09 519.71,-4839.93 525.5,-4840.85 531.03,-4841.86 536.25,-4842.94 541.16,-4844.1 545.74,-4845.34 549.98,-4846.64 553.86,-4848.01 557.38,-4849.45 560.53,-4850.94 563.3,-4852.49 565.69,-4854.09 567.69,-4855.73 569.31,-4857.42 570.56,-4859.14 571.42,-4860.9 571.92,-4862.68 572.05,-4864.48 571.83,-4866.31 571.27,-4868.14 570.37,-4869.98 569.15,-4871.83 567.63,-4873.67 565.81,-4875.51 563.71,-4877.33 561.36,-4879.13 558.75,-4880.92 555.91,-4882.67 552.86,-4884.39 549.61,-4886.08 546.17,-4887.72 542.57,-4889.32 538.81,-4890.87 534.91,-4892.36 530.88,-4893.8 526.74,-4895.17 522.51,-4896.47 518.18,-4897.71 513.78,-4898.87 509.3,-4899.95 504.77,-4900.96 500.19,-4901.88 495.57,-4902.72 490.91,-4903.47 486.22,-4904.13 481.5,-4904.7 476.77,-4905.18 472.02,-4905.56 467.26,-4905.85 462.49,-4906.04 457.71,-4906.14 452.94,-4906.14 448.16,-4906.04 443.39,-4905.85 438.63,-4905.56 433.88,-4905.18 429.15,-4904.7 424.43,-4904.13 419.74,-4903.47 415.08,-4902.72 410.46,-4901.88 405.88,-4900.96 401.35,-4899.95 396.87,-4898.87 392.47,-4897.71 388.14,-4896.47 383.9,-4895.17 379.77,-4893.8 375.74,-4892.36 371.84,-4890.87 368.08,-4889.32 364.48,-4887.72 361.04,-4886.08 357.79,-4884.39 354.74,-4882.67 351.9,-4880.92 349.29,-4879.13 346.93,-4877.33 344.84,-4875.51 343.02,-4873.67 341.5,-4871.83 340.28,-4869.98 339.38,-4868.14 338.82,-4866.31 338.6,-4864.48 338.73,-4862.68 339.23,-4860.9 340.09,-4859.14 341.34,-4857.42 342.96,-4855.73 344.96,-4854.09 347.35,-4852.49 350.12,-4850.94 353.27,-4849.45 356.79,-4848.01 360.67,-4846.64 364.91,-4845.34 369.49,-4844.1 374.4,-4842.94 379.62,-4841.86 385.14,-4840.85 390.94,-4839.93 397,-4839.09 403.29,-4838.34 409.79,-4837.68 416.48,-4837.11 423.32,-4836.63 430.29,-4836.25 437.37,-4835.96 444.52,-4835.77 451.72,-4835.67 458.93,-4835.67 466.13,-4835.77"/>
<text text-anchor="start" x="426.16" y="-4880.71" font-family="Times,serif" font-size="14.00">C0162651</text>
<text text-anchor="start" x="385.73" y="-4866.71" font-family="Times,serif" font-size="14.00">gastric outlet obstruction</text>
<text text-anchor="start" x="432.38" y="-4852.71" font-family="Times,serif" font-size="14.00">100:102</text>
</g>
<!-- id_28058375_DOT_1&#45;&#45;id_28058375_DOT_21 -->
<g id="edge2" class="edge">
<title>id_28058375_DOT_1&#45;&#45;id_28058375_DOT_21</title>
<path fill="none" stroke="black" d="M805.79,-4735.11C733.24,-4763.22 610.11,-4810.93 530.79,-4841.66"/>
<text text-anchor="middle" x="642.3" y="-4791.19" font-family="Times,serif" font-size="14.00">0.113290</text>
</g>
<!-- id_28058375_DOT_24 -->
<g id="node24" class="node">
<title>id_28058375_DOT_24</title>
<polygon fill="darkslateblue" stroke="darkslateblue" points="1294.46,-4647.61 1298.1,-4647.8 1301.71,-4648.09 1305.26,-4648.47 1308.75,-4648.95 1312.15,-4649.52 1315.46,-4650.18 1318.67,-4650.93 1321.75,-4651.77 1324.71,-4652.69 1327.52,-4653.7 1330.18,-4654.78 1332.68,-4655.94 1335.02,-4657.18 1337.18,-4658.48 1339.16,-4659.85 1340.95,-4661.29 1342.55,-4662.78 1343.96,-4664.33 1345.18,-4665.93 1346.2,-4667.57 1347.03,-4669.26 1347.66,-4670.98 1348.1,-4672.73 1348.35,-4674.52 1348.42,-4676.32 1348.31,-4678.14 1348.02,-4679.98 1347.57,-4681.82 1346.94,-4683.67 1346.17,-4685.51 1345.24,-4687.35 1344.17,-4689.17 1342.97,-4690.97 1341.65,-4692.76 1340.2,-4694.51 1338.64,-4696.23 1336.99,-4697.92 1335.24,-4699.56 1333.4,-4701.16 1331.48,-4702.71 1329.5,-4704.2 1327.45,-4705.64 1325.34,-4707.01 1323.18,-4708.31 1320.98,-4709.55 1318.73,-4710.71 1316.45,-4711.79 1314.15,-4712.8 1311.81,-4713.72 1309.46,-4714.56 1307.08,-4715.31 1304.69,-4715.97 1302.29,-4716.54 1299.88,-4717.02 1297.46,-4717.4 1295.03,-4717.69 1292.6,-4717.88 1290.17,-4717.98 1287.74,-4717.98 1285.31,-4717.88 1282.88,-4717.69 1280.45,-4717.4 1278.03,-4717.02 1275.62,-4716.54 1273.22,-4715.97 1270.83,-4715.31 1268.45,-4714.56 1266.1,-4713.72 1263.76,-4712.8 1261.46,-4711.79 1259.18,-4710.71 1256.93,-4709.55 1254.73,-4708.31 1252.57,-4707.01 1250.46,-4705.64 1248.41,-4704.2 1246.43,-4702.71 1244.51,-4701.16 1242.67,-4699.56 1240.92,-4697.92 1239.27,-4696.23 1237.71,-4694.51 1236.26,-4692.76 1234.94,-4690.97 1233.74,-4689.17 1232.67,-4687.35 1231.74,-4685.51 1230.96,-4683.67 1230.34,-4681.82 1229.89,-4679.98 1229.6,-4678.14 1229.49,-4676.32 1229.56,-4674.52 1229.81,-4672.73 1230.25,-4670.98 1230.88,-4669.26 1231.71,-4667.57 1232.73,-4665.93 1233.95,-4664.33 1235.36,-4662.78 1236.96,-4661.29 1238.75,-4659.85 1240.73,-4658.48 1242.89,-4657.18 1245.23,-4655.94 1247.73,-4654.78 1250.39,-4653.7 1253.2,-4652.69 1256.16,-4651.77 1259.24,-4650.93 1262.45,-4650.18 1265.76,-4649.52 1269.16,-4648.95 1272.65,-4648.47 1276.2,-4648.09 1279.81,-4647.8 1283.45,-4647.61 1287.12,-4647.51 1290.79,-4647.51 1294.46,-4647.61"/>
<text text-anchor="start" x="1259.79" y="-4692.54" font-family="Times,serif" font-size="14.00">C0192401</text>
<text text-anchor="start" x="1257.46" y="-4678.54" font-family="Times,serif" font-size="14.00">gastrotomy</text>
<text text-anchor="start" x="1266.52" y="-4664.54" font-family="Times,serif" font-size="14.00">118:118</text>
</g>
<!-- id_28058375_DOT_1&#45;&#45;id_28058375_DOT_24 -->
<g id="edge12" class="edge">
<title>id_28058375_DOT_1&#45;&#45;id_28058375_DOT_24</title>
<path fill="none" stroke="black" stroke-dasharray="1,5" d="M955.36,-4705.92C1039.16,-4700.1 1161.22,-4691.62 1232.11,-4686.69"/>
<text text-anchor="middle" x="1067.49" y="-4699.11" font-family="Times,serif" font-size="14.00">0.783068</text>
</g>
<!-- id_28058375_DOT_28 -->
<g id="node28" class="node">
<title>id_28058375_DOT_28</title>
<polygon fill="dodgerblue" stroke="dodgerblue" points="969.97,-5072.86 973.48,-5073.05 976.95,-5073.34 980.38,-5073.73 983.73,-5074.2 987.02,-5074.77 990.21,-5075.43 993.29,-5076.18 996.26,-5077.02 999.11,-5077.95 1001.82,-5078.95 1004.38,-5080.04 1006.79,-5081.2 1009.04,-5082.43 1011.12,-5083.74 1013.03,-5085.11 1014.75,-5086.54 1016.3,-5088.03 1017.66,-5089.58 1018.83,-5091.18 1019.81,-5092.82 1020.61,-5094.51 1021.22,-5096.23 1021.64,-5097.99 1021.89,-5099.77 1021.95,-5101.58 1021.85,-5103.4 1021.57,-5105.23 1021.13,-5107.08 1020.53,-5108.92 1019.78,-5110.76 1018.89,-5112.6 1017.86,-5114.42 1016.7,-5116.23 1015.43,-5118.01 1014.03,-5119.76 1012.53,-5121.49 1010.94,-5123.17 1009.25,-5124.82 1007.48,-5126.42 1005.64,-5127.96 1003.72,-5129.46 1001.75,-5130.89 999.72,-5132.26 997.64,-5133.57 995.52,-5134.8 993.35,-5135.96 991.16,-5137.05 988.94,-5138.05 986.69,-5138.97 984.42,-5139.81 982.13,-5140.56 979.83,-5141.22 977.52,-5141.79 975.19,-5142.27 972.86,-5142.66 970.52,-5142.94 968.18,-5143.14 965.84,-5143.23 963.5,-5143.23 961.16,-5143.14 958.81,-5142.94 956.48,-5142.66 954.15,-5142.27 951.82,-5141.79 949.51,-5141.22 947.21,-5140.56 944.92,-5139.81 942.65,-5138.97 940.4,-5138.05 938.18,-5137.05 935.99,-5135.96 933.82,-5134.8 931.7,-5133.57 929.62,-5132.26 927.59,-5130.89 925.62,-5129.46 923.7,-5127.96 921.86,-5126.42 920.09,-5124.82 918.4,-5123.17 916.81,-5121.49 915.31,-5119.76 913.91,-5118.01 912.64,-5116.23 911.48,-5114.42 910.45,-5112.6 909.56,-5110.76 908.81,-5108.92 908.21,-5107.08 907.77,-5105.23 907.49,-5103.4 907.39,-5101.58 907.45,-5099.77 907.7,-5097.99 908.12,-5096.23 908.73,-5094.51 909.53,-5092.82 910.51,-5091.18 911.68,-5089.58 913.04,-5088.03 914.59,-5086.54 916.31,-5085.11 918.22,-5083.74 920.3,-5082.43 922.55,-5081.2 924.96,-5080.04 927.52,-5078.95 930.23,-5077.95 933.08,-5077.02 936.05,-5076.18 939.13,-5075.43 942.32,-5074.77 945.6,-5074.2 948.96,-5073.73 952.39,-5073.34 955.86,-5073.05 959.37,-5072.86 962.9,-5072.76 966.44,-5072.76 969.97,-5072.86"/>
<text text-anchor="start" x="935.5" y="-5117.8" font-family="Times,serif" font-size="14.00">C0033213</text>
<text text-anchor="start" x="934.73" y="-5103.8" font-family="Times,serif" font-size="14.00">difficulties</text>
<text text-anchor="start" x="941.73" y="-5089.8" font-family="Times,serif" font-size="14.00">144:144</text>
</g>
<!-- id_28058375_DOT_1&#45;&#45;id_28058375_DOT_28 -->
<g id="edge13" class="edge">
<title>id_28058375_DOT_1&#45;&#45;id_28058375_DOT_28</title>
<path fill="none" stroke="black" stroke-dasharray="1,5" d="M873.77,-4747.32C892.7,-4822.43 936.92,-4997.91 955.84,-5072.95"/>
<text text-anchor="middle" x="888.55" y="-4912.94" font-family="Times,serif" font-size="14.00">0.679094</text>
</g>
<!-- id_28058375_DOT_2 -->
<g id="node2" class="node">
<title>id_28058375_DOT_2</title>
<polygon fill="bisque" stroke="bisque" points="558.28,-1219.66 562,-1219.85 565.69,-1220.14 569.32,-1220.52 572.89,-1221 576.37,-1221.57 579.76,-1222.23 583.03,-1222.98 586.19,-1223.82 589.21,-1224.74 592.09,-1225.75 594.81,-1226.83 597.37,-1227.99 599.76,-1229.23 601.96,-1230.53 603.99,-1231.9 605.82,-1233.34 607.46,-1234.83 608.9,-1236.38 610.15,-1237.98 611.19,-1239.62 612.04,-1241.31 612.68,-1243.03 613.13,-1244.78 613.39,-1246.57 613.46,-1248.37 613.35,-1250.19 613.05,-1252.03 612.59,-1253.87 611.95,-1255.72 611.16,-1257.56 610.21,-1259.39 609.12,-1261.22 607.89,-1263.02 606.53,-1264.8 605.05,-1266.56 603.46,-1268.28 601.77,-1269.97 599.98,-1271.61 598.1,-1273.21 596.14,-1274.76 594.11,-1276.25 592.01,-1277.69 589.86,-1279.06 587.65,-1280.36 585.4,-1281.6 583.1,-1282.76 580.77,-1283.84 578.41,-1284.85 576.02,-1285.77 573.61,-1286.61 571.19,-1287.36 568.74,-1288.02 566.29,-1288.59 563.82,-1289.07 561.34,-1289.45 558.86,-1289.74 556.38,-1289.93 553.89,-1290.03 551.4,-1290.03 548.92,-1289.93 546.43,-1289.74 543.95,-1289.45 541.48,-1289.07 539.01,-1288.59 536.55,-1288.02 534.11,-1287.36 531.68,-1286.61 529.27,-1285.77 526.89,-1284.85 524.53,-1283.84 522.2,-1282.76 519.9,-1281.6 517.65,-1280.36 515.44,-1279.06 513.28,-1277.69 511.19,-1276.25 509.15,-1274.76 507.2,-1273.21 505.32,-1271.61 503.53,-1269.97 501.83,-1268.28 500.24,-1266.56 498.76,-1264.8 497.41,-1263.02 496.18,-1261.22 495.09,-1259.39 494.14,-1257.56 493.34,-1255.72 492.71,-1253.87 492.24,-1252.03 491.95,-1250.19 491.83,-1248.37 491.9,-1246.57 492.16,-1244.78 492.61,-1243.03 493.26,-1241.31 494.11,-1239.62 495.15,-1237.98 496.39,-1236.38 497.84,-1234.83 499.48,-1233.34 501.31,-1231.9 503.33,-1230.53 505.54,-1229.23 507.93,-1227.99 510.49,-1226.83 513.21,-1225.75 516.08,-1224.74 519.11,-1223.82 522.26,-1222.98 525.54,-1222.23 528.92,-1221.57 532.41,-1221 535.97,-1220.52 539.61,-1220.14 543.29,-1219.85 547.02,-1219.66 550.77,-1219.56 554.53,-1219.56 558.28,-1219.66"/>
<text text-anchor="start" x="523.99" y="-1264.59" font-family="Times,serif" font-size="14.00">C0011167</text>
<text text-anchor="start" x="520.37" y="-1250.59" font-family="Times,serif" font-size="14.00">swallowing</text>
<text text-anchor="start" x="543.7" y="-1236.59" font-family="Times,serif" font-size="14.00">8:8</text>
</g>
<!-- id_28058375_DOT_7 -->
<g id="node7" class="node">
<title>id_28058375_DOT_7</title>
<polygon fill="bisque" stroke="bisque" points="643.52,-1616.63 647.03,-1616.83 650.5,-1617.12 653.93,-1617.5 657.28,-1617.98 660.56,-1618.55 663.75,-1619.21 666.84,-1619.96 669.81,-1620.8 672.66,-1621.72 675.36,-1622.72 677.93,-1623.81 680.34,-1624.97 682.59,-1626.2 684.67,-1627.51 686.57,-1628.88 688.3,-1630.32 689.84,-1631.81 691.2,-1633.36 692.37,-1634.95 693.35,-1636.6 694.15,-1638.28 694.76,-1640.01 695.19,-1641.76 695.43,-1643.54 695.49,-1645.35 695.39,-1647.17 695.11,-1649.01 694.67,-1650.85 694.07,-1652.7 693.32,-1654.54 692.43,-1656.37 691.4,-1658.2 690.25,-1660 688.97,-1661.78 687.58,-1663.54 686.08,-1665.26 684.48,-1666.95 682.8,-1668.59 681.03,-1670.19 679.18,-1671.74 677.27,-1673.23 675.29,-1674.66 673.26,-1676.04 671.18,-1677.34 669.06,-1678.57 666.9,-1679.74 664.71,-1680.82 662.48,-1681.83 660.24,-1682.75 657.97,-1683.59 655.68,-1684.34 653.38,-1685 651.07,-1685.57 648.74,-1686.05 646.41,-1686.43 644.08,-1686.72 641.74,-1686.91 639.39,-1687.01 637.05,-1687.01 634.71,-1686.91 632.37,-1686.72 630.03,-1686.43 627.7,-1686.05 625.38,-1685.57 623.06,-1685 620.76,-1684.34 618.48,-1683.59 616.21,-1682.75 613.96,-1681.83 611.74,-1680.82 609.54,-1679.74 607.38,-1678.57 605.26,-1677.34 603.18,-1676.04 601.15,-1674.66 599.17,-1673.23 597.26,-1671.74 595.42,-1670.19 593.65,-1668.59 591.96,-1666.95 590.37,-1665.26 588.87,-1663.54 587.48,-1661.78 586.2,-1660 585.04,-1658.2 584.01,-1656.37 583.12,-1654.54 582.37,-1652.7 581.77,-1650.85 581.33,-1649.01 581.06,-1647.17 580.95,-1645.35 581.01,-1643.54 581.26,-1641.76 581.68,-1640.01 582.29,-1638.28 583.09,-1636.6 584.07,-1634.95 585.24,-1633.36 586.6,-1631.81 588.15,-1630.32 589.87,-1628.88 591.78,-1627.51 593.86,-1626.2 596.11,-1624.97 598.52,-1623.81 601.08,-1622.72 603.79,-1621.72 606.63,-1620.8 609.6,-1619.96 612.69,-1619.21 615.88,-1618.55 619.16,-1617.98 622.52,-1617.5 625.94,-1617.12 629.41,-1616.83 632.92,-1616.63 636.45,-1616.54 639.99,-1616.54 643.52,-1616.63"/>
<text text-anchor="start" x="609.57" y="-1661.57" font-family="Times,serif" font-size="14.00">C0011167</text>
<text text-anchor="start" x="608.28" y="-1647.57" font-family="Times,serif" font-size="14.00">swallowed</text>
<text text-anchor="start" x="622.28" y="-1633.57" font-family="Times,serif" font-size="14.00">33:33</text>
</g>
<!-- id_28058375_DOT_2&#45;&#45;id_28058375_DOT_7 -->
<g id="edge3" class="edge">
<title>id_28058375_DOT_2&#45;&#45;id_28058375_DOT_7</title>
<path fill="none" stroke="black" d="M560.17,-1289.68C576.36,-1364.79 614.37,-1541.12 630.63,-1616.54"/>
<text text-anchor="middle" x="569.15" y="-1455.91" font-family="Times,serif" font-size="14.00">0.056651</text>
</g>
<!-- id_28058375_DOT_22 -->
<g id="node22" class="node">
<title>id_28058375_DOT_22</title>
<polygon fill="bisque" stroke="bisque" points="881.29,-953.18 885.02,-953.37 888.71,-953.66 892.34,-954.04 895.91,-954.52 899.39,-955.09 902.78,-955.75 906.05,-956.5 909.21,-957.34 912.23,-958.26 915.11,-959.27 917.83,-960.35 920.39,-961.51 922.77,-962.75 924.98,-964.05 927,-965.42 928.84,-966.86 930.48,-968.35 931.92,-969.9 933.16,-971.5 934.21,-973.14 935.05,-974.83 935.7,-976.55 936.15,-978.3 936.41,-980.09 936.48,-981.89 936.37,-983.71 936.07,-985.55 935.6,-987.39 934.97,-989.24 934.18,-991.08 933.23,-992.92 932.14,-994.74 930.91,-996.54 929.55,-998.33 928.07,-1000.08 926.48,-1001.8 924.79,-1003.49 923,-1005.13 921.12,-1006.73 919.16,-1008.28 917.13,-1009.77 915.03,-1011.21 912.88,-1012.58 910.67,-1013.88 908.41,-1015.12 906.12,-1016.28 903.79,-1017.36 901.43,-1018.37 899.04,-1019.29 896.63,-1020.13 894.2,-1020.88 891.76,-1021.54 889.3,-1022.11 886.84,-1022.59 884.36,-1022.97 881.88,-1023.26 879.4,-1023.45 876.91,-1023.55 874.42,-1023.55 871.93,-1023.45 869.45,-1023.26 866.97,-1022.97 864.49,-1022.59 862.03,-1022.11 859.57,-1021.54 857.13,-1020.88 854.7,-1020.13 852.29,-1019.29 849.9,-1018.37 847.54,-1017.36 845.21,-1016.28 842.92,-1015.12 840.66,-1013.88 838.46,-1012.58 836.3,-1011.21 834.2,-1009.77 832.17,-1008.28 830.21,-1006.73 828.33,-1005.13 826.54,-1003.49 824.85,-1001.8 823.26,-1000.08 821.78,-998.33 820.42,-996.54 819.19,-994.74 818.1,-992.92 817.16,-991.08 816.36,-989.24 815.73,-987.39 815.26,-985.55 814.97,-983.71 814.85,-981.89 814.92,-980.09 815.18,-978.3 815.63,-976.55 816.28,-974.83 817.12,-973.14 818.17,-971.5 819.41,-969.9 820.85,-968.35 822.49,-966.86 824.33,-965.42 826.35,-964.05 828.56,-962.75 830.94,-961.51 833.5,-960.35 836.23,-959.27 839.1,-958.26 842.12,-957.34 845.28,-956.5 848.56,-955.75 851.94,-955.09 855.43,-954.52 858.99,-954.04 862.62,-953.66 866.31,-953.37 870.04,-953.18 873.79,-953.08 877.54,-953.08 881.29,-953.18"/>
<text text-anchor="start" x="847.01" y="-998.11" font-family="Times,serif" font-size="14.00">C0011167</text>
<text text-anchor="start" x="843.39" y="-984.11" font-family="Times,serif" font-size="14.00">swallowing</text>
<text text-anchor="start" x="852.72" y="-970.11" font-family="Times,serif" font-size="14.00">108:108</text>
</g>
<!-- id_28058375_DOT_2&#45;&#45;id_28058375_DOT_22 -->
<g id="edge4" class="edge">
<title>id_28058375_DOT_2&#45;&#45;id_28058375_DOT_22</title>
<path fill="none" stroke="black" d="M589.39,-1224.48C652.88,-1172.1 782.17,-1065.45 842.84,-1015.39"/>
<text text-anchor="middle" x="689.86" y="-1122.74" font-family="Times,serif" font-size="14.00">0.058422</text>
</g>
<!-- id_28058375_DOT_26 -->
<g id="node26" class="node">
<title>id_28058375_DOT_26</title>
<polygon fill="darkviolet" stroke="darkviolet" points="301.98,-917.12 305.39,-917.32 308.77,-917.6 312.1,-917.99 315.36,-918.47 318.55,-919.04 321.65,-919.7 324.65,-920.45 327.54,-921.29 330.31,-922.21 332.94,-923.21 335.43,-924.3 337.78,-925.46 339.96,-926.69 341.98,-928 343.84,-929.37 345.51,-930.8 347.02,-932.3 348.34,-933.85 349.48,-935.44 350.43,-937.09 351.21,-938.77 351.8,-940.5 352.21,-942.25 352.45,-944.03 352.51,-945.84 352.41,-947.66 352.14,-949.5 351.71,-951.34 351.13,-953.18 350.4,-955.03 349.54,-956.86 348.54,-958.69 347.41,-960.49 346.17,-962.27 344.81,-964.03 343.36,-965.75 341.81,-967.44 340.17,-969.08 338.45,-970.68 336.65,-972.23 334.79,-973.72 332.87,-975.15 330.9,-976.53 328.88,-977.83 326.81,-979.06 324.71,-980.23 322.58,-981.31 320.42,-982.32 318.23,-983.24 316.03,-984.08 313.8,-984.83 311.57,-985.49 309.32,-986.06 307.06,-986.54 304.79,-986.92 302.52,-987.21 300.25,-987.4 297.97,-987.5 295.69,-987.5 293.41,-987.4 291.14,-987.21 288.87,-986.92 286.6,-986.54 284.34,-986.06 282.09,-985.49 279.85,-984.83 277.63,-984.08 275.43,-983.24 273.24,-982.32 271.08,-981.31 268.95,-980.23 266.84,-979.06 264.78,-977.83 262.76,-976.53 260.78,-975.15 258.86,-973.72 257,-972.23 255.21,-970.68 253.49,-969.08 251.85,-967.44 250.3,-965.75 248.84,-964.03 247.49,-962.27 246.25,-960.49 245.12,-958.69 244.12,-956.86 243.26,-955.03 242.53,-953.18 241.95,-951.34 241.52,-949.5 241.25,-947.66 241.14,-945.84 241.21,-944.03 241.45,-942.25 241.86,-940.5 242.45,-938.77 243.23,-937.09 244.18,-935.44 245.32,-933.85 246.64,-932.3 248.14,-930.8 249.82,-929.37 251.67,-928 253.7,-926.69 255.88,-925.46 258.22,-924.3 260.72,-923.21 263.35,-922.21 266.12,-921.29 269.01,-920.45 272.01,-919.7 275.11,-919.04 278.3,-918.47 281.56,-917.99 284.89,-917.6 288.26,-917.32 291.68,-917.12 295.11,-917.03 298.55,-917.03 301.98,-917.12"/>
<text text-anchor="start" x="267.92" y="-962.06" font-family="Times,serif" font-size="14.00">C0185115</text>
<text text-anchor="start" x="275.05" y="-948.06" font-family="Times,serif" font-size="14.00">milking</text>
<text text-anchor="start" x="273.88" y="-934.06" font-family="Times,serif" font-size="14.00">130:130</text>
</g>
<!-- id_28058375_DOT_2&#45;&#45;id_28058375_DOT_26 -->
<g id="edge14" class="edge">
<title>id_28058375_DOT_2&#45;&#45;id_28058375_DOT_26</title>
<path fill="none" stroke="black" stroke-dasharray="1,5" d="M525.03,-1222.13C475.03,-1163 370.24,-1039.08 322.05,-982.09"/>
<text text-anchor="middle" x="397.29" y="-1104.91" font-family="Times,serif" font-size="14.00">0.728794</text>
</g>
<!-- id_28058375_DOT_29 -->
<g id="node29" class="node">
<title>id_28058375_DOT_29</title>
<polygon fill="firebrick" stroke="firebrick" points="136.93,-1211.3 140.36,-1211.49 143.75,-1211.78 147.09,-1212.17 150.37,-1212.64 153.58,-1213.21 156.7,-1213.87 159.71,-1214.63 162.61,-1215.46 165.39,-1216.39 168.04,-1217.39 170.55,-1218.48 172.9,-1219.64 175.1,-1220.87 177.13,-1222.18 178.99,-1223.55 180.67,-1224.98 182.18,-1226.47 183.51,-1228.02 184.66,-1229.62 185.62,-1231.26 186.39,-1232.95 186.99,-1234.67 187.41,-1236.43 187.64,-1238.21 187.71,-1240.02 187.6,-1241.84 187.33,-1243.67 186.9,-1245.52 186.32,-1247.36 185.59,-1249.2 184.72,-1251.04 183.71,-1252.86 182.58,-1254.67 181.33,-1256.45 179.97,-1258.2 178.51,-1259.93 176.95,-1261.61 175.3,-1263.26 173.57,-1264.86 171.77,-1266.4 169.9,-1267.9 167.97,-1269.33 165.99,-1270.7 163.96,-1272.01 161.88,-1273.24 159.77,-1274.4 157.63,-1275.49 155.46,-1276.49 153.26,-1277.42 151.04,-1278.25 148.81,-1279 146.56,-1279.66 144.3,-1280.24 142.03,-1280.71 139.75,-1281.1 137.47,-1281.38 135.18,-1281.58 132.9,-1281.67 130.61,-1281.67 128.32,-1281.58 126.03,-1281.38 123.75,-1281.1 121.47,-1280.71 119.2,-1280.24 116.94,-1279.66 114.69,-1279 112.46,-1278.25 110.24,-1277.42 108.05,-1276.49 105.88,-1275.49 103.73,-1274.4 101.62,-1273.24 99.55,-1272.01 97.51,-1270.7 95.53,-1269.33 93.6,-1267.9 91.73,-1266.4 89.93,-1264.86 88.2,-1263.26 86.55,-1261.61 85,-1259.93 83.53,-1258.2 82.17,-1256.45 80.92,-1254.67 79.79,-1252.86 78.79,-1251.04 77.92,-1249.2 77.19,-1247.36 76.6,-1245.52 76.17,-1243.67 75.9,-1241.84 75.79,-1240.02 75.86,-1238.21 76.1,-1236.43 76.51,-1234.67 77.11,-1232.95 77.89,-1231.26 78.85,-1229.62 79.99,-1228.02 81.32,-1226.47 82.83,-1224.98 84.51,-1223.55 86.38,-1222.18 88.41,-1220.87 90.6,-1219.64 92.96,-1218.48 95.46,-1217.39 98.11,-1216.39 100.89,-1215.46 103.79,-1214.63 106.81,-1213.87 109.92,-1213.21 113.13,-1212.64 116.41,-1212.17 119.75,-1211.78 123.15,-1211.49 126.57,-1211.3 130.02,-1211.2 133.48,-1211.2 136.93,-1211.3"/>
<text text-anchor="start" x="102.58" y="-1256.24" font-family="Times,serif" font-size="14.00">C0543467</text>
<text text-anchor="start" x="110.88" y="-1242.24" font-family="Times,serif" font-size="14.00">surgery</text>
<text text-anchor="start" x="108.81" y="-1228.24" font-family="Times,serif" font-size="14.00">150:150</text>
</g>
<!-- id_28058375_DOT_2&#45;&#45;id_28058375_DOT_29 -->
<g id="edge15" class="edge">
<title>id_28058375_DOT_2&#45;&#45;id_28058375_DOT_29</title>
<path fill="none" stroke="black" stroke-dasharray="1,5" d="M492.34,-1253.6C410.4,-1251.97 265.08,-1249.09 186.26,-1247.52"/>
<text text-anchor="middle" x="313.05" y="-1253.36" font-family="Times,serif" font-size="14.00">0.830183</text>
</g>
<!-- id_28058375_DOT_3 -->
<g id="node3" class="node">
<title>id_28058375_DOT_3</title>
<polygon fill="blue" stroke="blue" points="678.61,-1996.35 685.98,-1996.54 693.27,-1996.83 700.45,-1997.22 707.5,-1997.69 714.39,-1998.26 721.09,-1998.92 727.56,-1999.67 733.8,-2000.51 739.78,-2001.44 745.47,-2002.44 750.85,-2003.53 755.91,-2004.69 760.63,-2005.92 764.99,-2007.23 768.99,-2008.6 772.62,-2010.03 775.86,-2011.52 778.71,-2013.07 781.17,-2014.67 783.24,-2016.31 784.91,-2018 786.19,-2019.72 787.08,-2021.48 787.59,-2023.26 787.73,-2025.07 787.5,-2026.89 786.92,-2028.72 786,-2030.57 784.74,-2032.41 783.17,-2034.25 781.3,-2036.09 779.14,-2037.91 776.71,-2039.72 774.03,-2041.5 771.1,-2043.25 767.96,-2044.98 764.61,-2046.66 761.07,-2048.31 757.35,-2049.91 753.48,-2051.45 749.46,-2052.95 745.32,-2054.38 741.06,-2055.75 736.69,-2057.06 732.23,-2058.29 727.7,-2059.45 723.09,-2060.54 718.42,-2061.54 713.7,-2062.46 708.94,-2063.3 704.14,-2064.05 699.3,-2064.71 694.45,-2065.28 689.57,-2065.76 684.68,-2066.15 679.77,-2066.43 674.86,-2066.63 669.94,-2066.72 665.02,-2066.72 660.1,-2066.63 655.19,-2066.43 650.28,-2066.15 645.39,-2065.76 640.51,-2065.28 635.66,-2064.71 630.83,-2064.05 626.02,-2063.3 621.26,-2062.46 616.54,-2061.54 611.87,-2060.54 607.27,-2059.45 602.73,-2058.29 598.27,-2057.06 593.91,-2055.75 589.64,-2054.38 585.5,-2052.95 581.48,-2051.45 577.61,-2049.91 573.89,-2048.31 570.35,-2046.66 567,-2044.98 563.86,-2043.25 560.93,-2041.5 558.25,-2039.72 555.82,-2037.91 553.66,-2036.09 551.79,-2034.25 550.22,-2032.41 548.96,-2030.57 548.04,-2028.72 547.46,-2026.89 547.23,-2025.07 547.37,-2023.26 547.88,-2021.48 548.77,-2019.72 550.05,-2018 551.72,-2016.31 553.79,-2014.67 556.25,-2013.07 559.1,-2011.52 562.34,-2010.03 565.97,-2008.6 569.97,-2007.23 574.33,-2005.92 579.05,-2004.69 584.11,-2003.53 589.5,-2002.44 595.18,-2001.44 601.16,-2000.51 607.4,-1999.67 613.88,-1998.92 620.57,-1998.26 627.46,-1997.69 634.51,-1997.22 641.69,-1996.83 648.99,-1996.54 656.35,-1996.35 663.77,-1996.25 671.2,-1996.25 678.61,-1996.35"/>
<text text-anchor="start" x="638.31" y="-2041.29" font-family="Times,serif" font-size="14.00">C0520753</text>
<text text-anchor="start" x="595.55" y="-2027.29" font-family="Times,serif" font-size="14.00">swallowed foreign bodies</text>
<text text-anchor="start" x="651.54" y="-2013.29" font-family="Times,serif" font-size="14.00">12:14</text>
</g>
<!-- id_28058375_DOT_6 -->
<g id="node6" class="node">
<title>id_28058375_DOT_6</title>
<polygon fill="cadetblue" stroke="cadetblue" points="668.63,-2369.37 673.09,-2369.56 677.51,-2369.85 681.86,-2370.23 686.13,-2370.71 690.3,-2371.28 694.35,-2371.94 698.27,-2372.69 702.05,-2373.53 705.67,-2374.45 709.11,-2375.46 712.37,-2376.54 715.43,-2377.71 718.29,-2378.94 720.93,-2380.25 723.36,-2381.62 725.55,-2383.05 727.51,-2384.54 729.24,-2386.09 730.73,-2387.69 731.98,-2389.33 732.99,-2391.02 733.77,-2392.74 734.31,-2394.5 734.62,-2396.28 734.7,-2398.08 734.56,-2399.91 734.21,-2401.74 733.65,-2403.59 732.89,-2405.43 731.94,-2407.27 730.81,-2409.11 729.5,-2410.93 728.03,-2412.74 726.4,-2414.52 724.63,-2416.27 722.73,-2418 720.7,-2419.68 718.56,-2421.33 716.31,-2422.92 713.96,-2424.47 711.53,-2425.97 709.02,-2427.4 706.44,-2428.77 703.8,-2430.08 701.1,-2431.31 698.35,-2432.47 695.56,-2433.56 692.74,-2434.56 689.88,-2435.48 687,-2436.32 684.09,-2437.07 681.16,-2437.73 678.22,-2438.3 675.27,-2438.78 672.31,-2439.17 669.34,-2439.45 666.36,-2439.65 663.39,-2439.74 660.41,-2439.74 657.43,-2439.65 654.46,-2439.45 651.49,-2439.17 648.52,-2438.78 645.57,-2438.3 642.63,-2437.73 639.7,-2437.07 636.8,-2436.32 633.91,-2435.48 631.06,-2434.56 628.23,-2433.56 625.44,-2432.47 622.69,-2431.31 620,-2430.08 617.35,-2428.77 614.77,-2427.4 612.26,-2425.97 609.83,-2424.47 607.49,-2422.92 605.24,-2421.33 603.09,-2419.68 601.06,-2418 599.16,-2416.27 597.39,-2414.52 595.77,-2412.74 594.29,-2410.93 592.99,-2409.11 591.85,-2407.27 590.9,-2405.43 590.14,-2403.59 589.58,-2401.74 589.23,-2399.91 589.09,-2398.08 589.18,-2396.28 589.49,-2394.5 590.03,-2392.74 590.8,-2391.02 591.82,-2389.33 593.07,-2387.69 594.55,-2386.09 596.28,-2384.54 598.24,-2383.05 600.44,-2381.62 602.86,-2380.25 605.5,-2378.94 608.36,-2377.71 611.42,-2376.54 614.68,-2375.46 618.13,-2374.45 621.74,-2373.53 625.52,-2372.69 629.44,-2371.94 633.5,-2371.28 637.67,-2370.71 641.94,-2370.23 646.29,-2369.85 650.7,-2369.56 655.16,-2369.37 659.65,-2369.27 664.15,-2369.27 668.63,-2369.37"/>
<text text-anchor="start" x="632.73" y="-2414.31" font-family="Times,serif" font-size="14.00">C0016542</text>
<text text-anchor="start" x="621.66" y="-2400.31" font-family="Times,serif" font-size="14.00">foreign bodies</text>
<text text-anchor="start" x="645.95" y="-2386.31" font-family="Times,serif" font-size="14.00">29:30</text>
</g>
<!-- id_28058375_DOT_3&#45;&#45;id_28058375_DOT_6 -->
<g id="edge5" class="edge">
<title>id_28058375_DOT_3&#45;&#45;id_28058375_DOT_6</title>
<path fill="none" stroke="black" d="M666.95,-2066.92C665.88,-2138.12 663.49,-2297.82 662.43,-2369.04"/>
<text text-anchor="middle" x="638.44" y="-2220.78" font-family="Times,serif" font-size="14.00">0.007769</text>
</g>
<!-- id_28058375_DOT_3&#45;&#45;id_28058375_DOT_7 -->
<g id="edge16" class="edge">
<title>id_28058375_DOT_3&#45;&#45;id_28058375_DOT_7</title>
<path fill="none" stroke="black" stroke-dasharray="1,5" d="M664.75,-1996.11C659.18,-1923.75 646.53,-1759.6 640.95,-1687.2"/>
<text text-anchor="middle" x="626.6" y="-1844.45" font-family="Times,serif" font-size="14.00">0.768944</text>
</g>
<!-- id_28058375_DOT_4 -->
<g id="node4" class="node">
<title>id_28058375_DOT_4</title>
<polygon fill="blueviolet" stroke="blueviolet" points="1216.76,-5798.34 1221.14,-5798.53 1225.47,-5798.82 1229.73,-5799.21 1233.92,-5799.68 1238,-5800.25 1241.98,-5800.91 1245.82,-5801.66 1249.53,-5802.5 1253.07,-5803.43 1256.45,-5804.43 1259.65,-5805.51 1262.65,-5806.68 1265.45,-5807.91 1268.04,-5809.22 1270.42,-5810.59 1272.57,-5812.02 1274.49,-5813.51 1276.18,-5815.06 1277.64,-5816.66 1278.87,-5818.3 1279.86,-5819.99 1280.62,-5821.71 1281.15,-5823.47 1281.46,-5825.25 1281.54,-5827.06 1281.4,-5828.88 1281.06,-5830.71 1280.51,-5832.56 1279.76,-5834.4 1278.83,-5836.24 1277.72,-5838.08 1276.44,-5839.9 1275,-5841.71 1273.4,-5843.49 1271.67,-5845.24 1269.8,-5846.97 1267.81,-5848.65 1265.71,-5850.3 1263.51,-5851.9 1261.21,-5853.44 1258.82,-5854.94 1256.36,-5856.37 1253.83,-5857.74 1251.24,-5859.05 1248.6,-5860.28 1245.9,-5861.44 1243.17,-5862.53 1240.4,-5863.53 1237.59,-5864.45 1234.77,-5865.29 1231.92,-5866.04 1229.05,-5866.7 1226.17,-5867.27 1223.27,-5867.75 1220.37,-5868.14 1217.45,-5868.42 1214.54,-5868.62 1211.62,-5868.71 1208.7,-5868.71 1205.78,-5868.62 1202.86,-5868.42 1199.95,-5868.14 1197.05,-5867.75 1194.15,-5867.27 1191.27,-5866.7 1188.4,-5866.04 1185.55,-5865.29 1182.72,-5864.45 1179.92,-5863.53 1177.15,-5862.53 1174.42,-5861.44 1171.72,-5860.28 1169.08,-5859.05 1166.49,-5857.74 1163.96,-5856.37 1161.49,-5854.94 1159.11,-5853.44 1156.81,-5851.9 1154.61,-5850.3 1152.5,-5848.65 1150.52,-5846.97 1148.65,-5845.24 1146.91,-5843.49 1145.32,-5841.71 1143.88,-5839.9 1142.6,-5838.08 1141.49,-5836.24 1140.55,-5834.4 1139.81,-5832.56 1139.26,-5830.71 1138.91,-5828.88 1138.78,-5827.06 1138.86,-5825.25 1139.16,-5823.47 1139.69,-5821.71 1140.45,-5819.99 1141.45,-5818.3 1142.67,-5816.66 1144.13,-5815.06 1145.83,-5813.51 1147.75,-5812.02 1149.9,-5810.59 1152.28,-5809.22 1154.87,-5807.91 1157.67,-5806.68 1160.67,-5805.51 1163.87,-5804.43 1167.24,-5803.43 1170.79,-5802.5 1174.49,-5801.66 1178.34,-5800.91 1182.31,-5800.25 1186.4,-5799.68 1190.59,-5799.21 1194.85,-5798.82 1199.18,-5798.53 1203.55,-5798.34 1207.95,-5798.24 1212.36,-5798.24 1216.76,-5798.34"/>
<text text-anchor="start" x="1180.99" y="-5843.28" font-family="Times,serif" font-size="14.00">C0009566</text>
<text text-anchor="start" x="1170.89" y="-5829.28" font-family="Times,serif" font-size="14.00">complications</text>
<text text-anchor="start" x="1194.21" y="-5815.28" font-family="Times,serif" font-size="14.00">20:20</text>
</g>
<!-- id_28058375_DOT_8 -->
<g id="node8" class="node">
<title>id_28058375_DOT_8</title>
<polygon fill="blueviolet" stroke="blueviolet" points="1083.36,-5446.36 1087.48,-5446.55 1091.55,-5446.84 1095.56,-5447.22 1099.5,-5447.7 1103.35,-5448.27 1107.09,-5448.93 1110.71,-5449.68 1114.19,-5450.52 1117.53,-5451.45 1120.71,-5452.45 1123.71,-5453.53 1126.54,-5454.7 1129.18,-5455.93 1131.62,-5457.24 1133.85,-5458.61 1135.88,-5460.04 1137.69,-5461.53 1139.28,-5463.08 1140.65,-5464.68 1141.81,-5466.32 1142.74,-5468.01 1143.46,-5469.73 1143.96,-5471.49 1144.24,-5473.27 1144.32,-5475.08 1144.19,-5476.9 1143.87,-5478.73 1143.35,-5480.58 1142.65,-5482.42 1141.77,-5484.26 1140.73,-5486.1 1139.52,-5487.92 1138.16,-5489.73 1136.66,-5491.51 1135.03,-5493.26 1133.27,-5494.99 1131.4,-5496.67 1129.42,-5498.32 1127.35,-5499.92 1125.19,-5501.46 1122.94,-5502.96 1120.63,-5504.39 1118.24,-5505.76 1115.81,-5507.07 1113.32,-5508.3 1110.78,-5509.46 1108.21,-5510.55 1105.6,-5511.55 1102.96,-5512.47 1100.3,-5513.31 1097.62,-5514.06 1094.92,-5514.72 1092.21,-5515.29 1089.48,-5515.77 1086.75,-5516.16 1084.01,-5516.44 1081.27,-5516.64 1078.52,-5516.73 1075.77,-5516.73 1073.02,-5516.64 1070.28,-5516.44 1067.54,-5516.16 1064.8,-5515.77 1062.08,-5515.29 1059.37,-5514.72 1056.67,-5514.06 1053.99,-5513.31 1051.32,-5512.47 1048.69,-5511.55 1046.08,-5510.55 1043.51,-5509.46 1040.97,-5508.3 1038.48,-5507.07 1036.04,-5505.76 1033.66,-5504.39 1031.35,-5502.96 1029.1,-5501.46 1026.94,-5499.92 1024.86,-5498.32 1022.89,-5496.67 1021.02,-5494.99 1019.26,-5493.26 1017.63,-5491.51 1016.13,-5489.73 1014.77,-5487.92 1013.56,-5486.1 1012.52,-5484.26 1011.64,-5482.42 1010.94,-5480.58 1010.42,-5478.73 1010.1,-5476.9 1009.97,-5475.08 1010.05,-5473.27 1010.33,-5471.49 1010.83,-5469.73 1011.55,-5468.01 1012.48,-5466.32 1013.63,-5464.68 1015.01,-5463.08 1016.6,-5461.53 1018.41,-5460.04 1020.44,-5458.61 1022.67,-5457.24 1025.11,-5455.93 1027.75,-5454.7 1030.57,-5453.53 1033.58,-5452.45 1036.76,-5451.45 1040.1,-5450.52 1043.58,-5449.68 1047.2,-5448.93 1050.94,-5448.27 1054.79,-5447.7 1058.73,-5447.22 1062.74,-5446.84 1066.81,-5446.55 1070.93,-5446.36 1075.07,-5446.26 1079.22,-5446.26 1083.36,-5446.36"/>
<text text-anchor="start" x="1047.98" y="-5491.3" font-family="Times,serif" font-size="14.00">C0009566</text>
<text text-anchor="start" x="1040.6" y="-5477.3" font-family="Times,serif" font-size="14.00">complication</text>
<text text-anchor="start" x="1061.2" y="-5463.3" font-family="Times,serif" font-size="14.00">43:43</text>
</g>
<!-- id_28058375_DOT_4&#45;&#45;id_28058375_DOT_8 -->
<g id="edge6" class="edge">
<title>id_28058375_DOT_4&#45;&#45;id_28058375_DOT_8</title>
<path fill="none" stroke="black" d="M1196.92,-5798.44C1171.36,-5730.8 1115.5,-5582.99 1090.13,-5515.87"/>
<text text-anchor="middle" x="1117.28" y="-5659.96" font-family="Times,serif" font-size="14.00">0.002138</text>
</g>
<!-- id_28058375_DOT_25 -->
<g id="node25" class="node">
<title>id_28058375_DOT_25</title>
<polygon fill="darkslategrey" stroke="darkslategrey" points="1375.93,-6133.43 1381.17,-6133.62 1386.36,-6133.91 1391.47,-6134.29 1396.49,-6134.77 1401.39,-6135.34 1406.16,-6136 1410.77,-6136.75 1415.2,-6137.59 1419.46,-6138.51 1423.5,-6139.52 1427.33,-6140.6 1430.93,-6141.76 1434.29,-6143 1437.4,-6144.3 1440.24,-6145.67 1442.82,-6147.11 1445.13,-6148.6 1447.16,-6150.15 1448.91,-6151.75 1450.38,-6153.39 1451.57,-6155.08 1452.48,-6156.8 1453.11,-6158.55 1453.48,-6160.34 1453.58,-6162.14 1453.41,-6163.96 1453,-6165.8 1452.34,-6167.64 1451.45,-6169.49 1450.33,-6171.33 1449,-6173.17 1447.46,-6174.99 1445.73,-6176.79 1443.82,-6178.58 1441.75,-6180.33 1439.51,-6182.05 1437.12,-6183.74 1434.6,-6185.38 1431.96,-6186.98 1429.21,-6188.53 1426.35,-6190.02 1423.4,-6191.46 1420.36,-6192.83 1417.26,-6194.13 1414.09,-6195.37 1410.86,-6196.53 1407.58,-6197.61 1404.26,-6198.62 1400.9,-6199.54 1397.51,-6200.38 1394.1,-6201.13 1390.66,-6201.79 1387.2,-6202.36 1383.73,-6202.84 1380.25,-6203.22 1376.76,-6203.51 1373.26,-6203.7 1369.76,-6203.8 1366.26,-6203.8 1362.76,-6203.7 1359.27,-6203.51 1355.78,-6203.22 1352.3,-6202.84 1348.83,-6202.36 1345.37,-6201.79 1341.93,-6201.13 1338.52,-6200.38 1335.13,-6199.54 1331.77,-6198.62 1328.45,-6197.61 1325.17,-6196.53 1321.94,-6195.37 1318.77,-6194.13 1315.66,-6192.83 1312.63,-6191.46 1309.68,-6190.02 1306.82,-6188.53 1304.07,-6186.98 1301.42,-6185.38 1298.9,-6183.74 1296.52,-6182.05 1294.28,-6180.33 1292.2,-6178.58 1290.29,-6176.79 1288.56,-6174.99 1287.03,-6173.17 1285.7,-6171.33 1284.58,-6169.49 1283.69,-6167.64 1283.03,-6165.8 1282.61,-6163.96 1282.45,-6162.14 1282.55,-6160.34 1282.91,-6158.55 1283.55,-6156.8 1284.46,-6155.08 1285.65,-6153.39 1287.12,-6151.75 1288.87,-6150.15 1290.9,-6148.6 1293.21,-6147.11 1295.79,-6145.67 1298.63,-6144.3 1301.74,-6143 1305.1,-6141.76 1308.7,-6140.6 1312.53,-6139.52 1316.57,-6138.51 1320.82,-6137.59 1325.26,-6136.75 1329.87,-6136 1334.64,-6135.34 1339.54,-6134.77 1344.55,-6134.29 1349.67,-6133.91 1354.85,-6133.62 1360.1,-6133.43 1365.37,-6133.33 1370.66,-6133.33 1375.93,-6133.43"/>
<text text-anchor="start" x="1338.85" y="-6178.37" font-family="Times,serif" font-size="14.00">C0227389</text>
<text text-anchor="start" x="1319.22" y="-6164.37" font-family="Times,serif" font-size="14.00">descending colon</text>
<text text-anchor="start" x="1345.07" y="-6150.37" font-family="Times,serif" font-size="14.00">127:128</text>
</g>
<!-- id_28058375_DOT_4&#45;&#45;id_28058375_DOT_25 -->
<g id="edge17" class="edge">
<title>id_28058375_DOT_4&#45;&#45;id_28058375_DOT_25</title>
<path fill="none" stroke="black" stroke-dasharray="1,5" d="M1226.16,-5867.45C1256.3,-5931.43 1321.17,-6069.13 1351.61,-6133.75"/>
<text text-anchor="middle" x="1262.64" y="-6003.4" font-family="Times,serif" font-size="14.00">0.744060</text>
</g>
<!-- id_28058375_DOT_5 -->
<g id="node5" class="node">
<title>id_28058375_DOT_5</title>
<polygon fill="brown" stroke="brown" points="1557.77,-6452.55 1562.8,-6452.75 1567.78,-6453.04 1572.68,-6453.42 1577.49,-6453.9 1582.19,-6454.47 1586.76,-6455.13 1591.18,-6455.88 1595.44,-6456.72 1599.52,-6457.64 1603.4,-6458.64 1607.07,-6459.73 1610.52,-6460.89 1613.74,-6462.13 1616.72,-6463.43 1619.45,-6464.8 1621.93,-6466.24 1624.14,-6467.73 1626.08,-6469.28 1627.76,-6470.87 1629.17,-6472.52 1630.31,-6474.2 1631.19,-6475.93 1631.8,-6477.68 1632.15,-6479.46 1632.24,-6481.27 1632.08,-6483.09 1631.69,-6484.93 1631.06,-6486.77 1630.2,-6488.62 1629.13,-6490.46 1627.85,-6492.29 1626.38,-6494.12 1624.72,-6495.92 1622.89,-6497.7 1620.89,-6499.46 1618.75,-6501.18 1616.46,-6502.87 1614.04,-6504.51 1611.51,-6506.11 1608.87,-6507.66 1606.13,-6509.15 1603.3,-6510.58 1600.39,-6511.96 1597.41,-6513.26 1594.37,-6514.5 1591.27,-6515.66 1588.13,-6516.74 1584.94,-6517.75 1581.72,-6518.67 1578.47,-6519.51 1575.19,-6520.26 1571.9,-6520.92 1568.58,-6521.49 1565.25,-6521.97 1561.91,-6522.35 1558.57,-6522.64 1555.21,-6522.83 1551.86,-6522.93 1548.5,-6522.93 1545.14,-6522.83 1541.79,-6522.64 1538.44,-6522.35 1535.11,-6521.97 1531.78,-6521.49 1528.46,-6520.92 1525.17,-6520.26 1521.89,-6519.51 1518.64,-6518.67 1515.42,-6517.75 1512.23,-6516.74 1509.09,-6515.66 1505.99,-6514.5 1502.95,-6513.26 1499.97,-6511.96 1497.06,-6510.58 1494.23,-6509.15 1491.49,-6507.66 1488.85,-6506.11 1486.31,-6504.51 1483.9,-6502.87 1481.61,-6501.18 1479.46,-6499.46 1477.47,-6497.7 1475.64,-6495.92 1473.98,-6494.12 1472.51,-6492.29 1471.23,-6490.46 1470.16,-6488.62 1469.3,-6486.77 1468.67,-6484.93 1468.27,-6483.09 1468.12,-6481.27 1468.21,-6479.46 1468.56,-6477.68 1469.17,-6475.93 1470.04,-6474.2 1471.19,-6472.52 1472.6,-6470.87 1474.27,-6469.28 1476.22,-6467.73 1478.43,-6466.24 1480.91,-6464.8 1483.64,-6463.43 1486.61,-6462.13 1489.84,-6460.89 1493.29,-6459.73 1496.96,-6458.64 1500.84,-6457.64 1504.92,-6456.72 1509.18,-6455.88 1513.6,-6455.13 1518.17,-6454.47 1522.87,-6453.9 1527.68,-6453.42 1532.58,-6453.04 1537.56,-6452.75 1542.59,-6452.55 1547.64,-6452.46 1552.71,-6452.46 1557.77,-6452.55"/>
<text text-anchor="start" x="1521.01" y="-6497.49" font-family="Times,serif" font-size="14.00">C0012240</text>
<text text-anchor="start" x="1503.71" y="-6483.49" font-family="Times,serif" font-size="14.00">digestive system</text>
<text text-anchor="start" x="1534.23" y="-6469.49" font-family="Times,serif" font-size="14.00">23:24</text>
</g>
<!-- id_28058375_DOT_23 -->
<g id="node23" class="node">
<title>id_28058375_DOT_23</title>
<polygon fill="darkseagreen" stroke="darkseagreen" points="1752.99,-6760.14 1756.42,-6760.33 1759.81,-6760.62 1763.16,-6761.01 1766.44,-6761.48 1769.64,-6762.05 1772.76,-6762.72 1775.77,-6763.47 1778.68,-6764.3 1781.46,-6765.23 1784.1,-6766.23 1786.61,-6767.32 1788.96,-6768.48 1791.16,-6769.71 1793.19,-6771.02 1795.05,-6772.39 1796.74,-6773.82 1798.25,-6775.32 1799.57,-6776.86 1800.72,-6778.46 1801.68,-6780.11 1802.46,-6781.79 1803.05,-6783.51 1803.47,-6785.27 1803.71,-6787.05 1803.77,-6788.86 1803.66,-6790.68 1803.39,-6792.51 1802.96,-6794.36 1802.38,-6796.2 1801.65,-6798.05 1800.78,-6799.88 1799.77,-6801.7 1798.64,-6803.51 1797.39,-6805.29 1796.03,-6807.05 1794.57,-6808.77 1793.01,-6810.45 1791.36,-6812.1 1789.63,-6813.7 1787.83,-6815.24 1785.96,-6816.74 1784.03,-6818.17 1782.05,-6819.54 1780.02,-6820.85 1777.94,-6822.08 1775.83,-6823.24 1773.69,-6824.33 1771.52,-6825.33 1769.32,-6826.26 1767.1,-6827.09 1764.87,-6827.84 1762.62,-6828.51 1760.36,-6829.08 1758.09,-6829.55 1755.82,-6829.94 1753.53,-6830.23 1751.25,-6830.42 1748.96,-6830.52 1746.67,-6830.52 1744.38,-6830.42 1742.09,-6830.23 1739.81,-6829.94 1737.53,-6829.55 1735.26,-6829.08 1733,-6828.51 1730.76,-6827.84 1728.52,-6827.09 1726.31,-6826.26 1724.11,-6825.33 1721.94,-6824.33 1719.79,-6823.24 1717.68,-6822.08 1715.61,-6820.85 1713.58,-6819.54 1711.59,-6818.17 1709.66,-6816.74 1707.79,-6815.24 1705.99,-6813.7 1704.26,-6812.1 1702.62,-6810.45 1701.06,-6808.77 1699.59,-6807.05 1698.23,-6805.29 1696.98,-6803.51 1695.85,-6801.7 1694.85,-6799.88 1693.98,-6798.05 1693.25,-6796.2 1692.66,-6794.36 1692.23,-6792.51 1691.96,-6790.68 1691.86,-6788.86 1691.92,-6787.05 1692.16,-6785.27 1692.57,-6783.51 1693.17,-6781.79 1693.95,-6780.11 1694.91,-6778.46 1696.05,-6776.86 1697.38,-6775.32 1698.89,-6773.82 1700.58,-6772.39 1702.44,-6771.02 1704.47,-6769.71 1706.67,-6768.48 1709.02,-6767.32 1711.52,-6766.23 1714.17,-6765.23 1716.95,-6764.3 1719.85,-6763.47 1722.87,-6762.72 1725.99,-6762.05 1729.19,-6761.48 1732.47,-6761.01 1735.81,-6760.62 1739.21,-6760.33 1742.64,-6760.14 1746.08,-6760.04 1749.54,-6760.04 1752.99,-6760.14"/>
<text text-anchor="start" x="1718.64" y="-6805.08" font-family="Times,serif" font-size="14.00">C0038351</text>
<text text-anchor="start" x="1724.49" y="-6791.08" font-family="Times,serif" font-size="14.00">stomach</text>
<text text-anchor="start" x="1725.38" y="-6777.08" font-family="Times,serif" font-size="14.00">116:116</text>
</g>
<!-- id_28058375_DOT_5&#45;&#45;id_28058375_DOT_23 -->
<g id="edge18" class="edge">
<title>id_28058375_DOT_5&#45;&#45;id_28058375_DOT_23</title>
<path fill="none" stroke="black" stroke-dasharray="1,5" d="M1571.71,-6521.2C1609.72,-6580.36 1688.32,-6702.68 1726.31,-6761.82"/>
<text text-anchor="middle" x="1623.02" y="-6644.31" font-family="Times,serif" font-size="14.00">0.691151</text>
</g>
<!-- id_28058375_DOT_5&#45;&#45;id_28058375_DOT_25 -->
<g id="edge19" class="edge">
<title>id_28058375_DOT_5&#45;&#45;id_28058375_DOT_25</title>
<path fill="none" stroke="black" stroke-dasharray="1,5" d="M1530.34,-6452.93C1495.2,-6391.38 1422.47,-6263.97 1387.56,-6202.8"/>
<text text-anchor="middle" x="1432.7" y="-6330.67" font-family="Times,serif" font-size="14.00">0.462992</text>
</g>
<!-- id_28058375_DOT_30 -->
<g id="node30" class="node">
<title>id_28058375_DOT_30</title>
<polygon fill="cadetblue" stroke="cadetblue" points="661.14,-2740.37 665.6,-2740.57 670.01,-2740.85 674.36,-2741.24 678.63,-2741.72 682.8,-2742.29 686.85,-2742.95 690.78,-2743.7 694.55,-2744.54 698.17,-2745.46 701.62,-2746.46 704.87,-2747.55 707.94,-2748.71 710.79,-2749.94 713.44,-2751.25 715.86,-2752.62 718.05,-2754.05 720.02,-2755.55 721.74,-2757.1 723.23,-2758.69 724.48,-2760.34 725.5,-2762.02 726.27,-2763.75 726.81,-2765.5 727.12,-2767.28 727.2,-2769.09 727.07,-2770.91 726.71,-2772.75 726.15,-2774.59 725.39,-2776.43 724.44,-2778.28 723.31,-2780.11 722,-2781.94 720.53,-2783.74 718.91,-2785.52 717.14,-2787.28 715.23,-2789 713.2,-2790.69 711.06,-2792.33 708.81,-2793.93 706.47,-2795.48 704.04,-2796.97 701.53,-2798.4 698.95,-2799.77 696.3,-2801.08 693.6,-2802.31 690.86,-2803.48 688.07,-2804.56 685.24,-2805.57 682.38,-2806.49 679.5,-2807.33 676.59,-2808.08 673.67,-2808.74 670.73,-2809.31 667.77,-2809.79 664.81,-2810.17 661.84,-2810.46 658.87,-2810.65 655.89,-2810.75 652.91,-2810.75 649.93,-2810.65 646.96,-2810.46 643.99,-2810.17 641.03,-2809.79 638.07,-2809.31 635.13,-2808.74 632.21,-2808.08 629.3,-2807.33 626.42,-2806.49 623.56,-2805.57 620.73,-2804.56 617.95,-2803.48 615.2,-2802.31 612.5,-2801.08 609.86,-2799.77 607.28,-2798.4 604.77,-2796.97 602.33,-2795.48 599.99,-2793.93 597.74,-2792.33 595.6,-2790.69 593.57,-2789 591.66,-2787.28 589.89,-2785.52 588.27,-2783.74 586.8,-2781.94 585.49,-2780.11 584.36,-2778.28 583.41,-2776.43 582.65,-2774.59 582.09,-2772.75 581.74,-2770.91 581.6,-2769.09 581.68,-2767.28 581.99,-2765.5 582.53,-2763.75 583.31,-2762.02 584.32,-2760.34 585.57,-2758.69 587.06,-2757.1 588.79,-2755.55 590.75,-2754.05 592.94,-2752.62 595.36,-2751.25 598.01,-2749.94 600.86,-2748.71 603.93,-2747.55 607.19,-2746.46 610.63,-2745.46 614.25,-2744.54 618.02,-2743.7 621.95,-2742.95 626,-2742.29 630.17,-2741.72 634.44,-2741.24 638.79,-2740.85 643.2,-2740.57 647.66,-2740.37 652.15,-2740.28 656.65,-2740.28 661.14,-2740.37"/>
<text text-anchor="start" x="625.23" y="-2785.31" font-family="Times,serif" font-size="14.00">C0016542</text>
<text text-anchor="start" x="614.16" y="-2771.31" font-family="Times,serif" font-size="14.00">foreign bodies</text>
<text text-anchor="start" x="631.46" y="-2757.31" font-family="Times,serif" font-size="14.00">155:156</text>
</g>
<!-- id_28058375_DOT_6&#45;&#45;id_28058375_DOT_30 -->
<g id="edge7" class="edge">
<title>id_28058375_DOT_6&#45;&#45;id_28058375_DOT_30</title>
<path fill="none" stroke="black" d="M661.19,-2439.75C659.75,-2510.56 656.54,-2669.4 655.11,-2740.24"/>
<text text-anchor="middle" x="631.9" y="-2592.79" font-family="Times,serif" font-size="14.00">0.020219</text>
</g>
<!-- id_28058375_DOT_8&#45;&#45;id_28058375_DOT_28 -->
<g id="edge20" class="edge">
<title>id_28058375_DOT_8&#45;&#45;id_28058375_DOT_28</title>
<path fill="none" stroke="black" stroke-dasharray="1,5" d="M1066.56,-5446.36C1045.04,-5374.9 996.42,-5213.42 975.06,-5142.5"/>
<text text-anchor="middle" x="994.56" y="-5297.23" font-family="Times,serif" font-size="14.00">0.789306</text>
</g>
<!-- id_28058375_DOT_9 -->
<g id="node9" class="node">
<title>id_28058375_DOT_9</title>
<polygon fill="cadetblue" stroke="cadetblue" points="750.94,-3485.65 754.37,-3485.84 757.76,-3486.13 761.1,-3486.52 764.38,-3486.99 767.59,-3487.56 770.7,-3488.22 773.72,-3488.98 776.62,-3489.81 779.4,-3490.74 782.05,-3491.74 784.55,-3492.83 786.91,-3493.99 789.1,-3495.22 791.14,-3496.53 793,-3497.9 794.68,-3499.33 796.19,-3500.82 797.52,-3502.37 798.66,-3503.97 799.63,-3505.61 800.4,-3507.3 801,-3509.02 801.41,-3510.78 801.65,-3512.56 801.72,-3514.37 801.61,-3516.19 801.34,-3518.02 800.91,-3519.87 800.33,-3521.71 799.6,-3523.55 798.72,-3525.39 797.72,-3527.21 796.59,-3529.02 795.34,-3530.8 793.98,-3532.56 792.52,-3534.28 790.96,-3535.96 789.31,-3537.61 787.58,-3539.21 785.78,-3540.75 783.91,-3542.25 781.98,-3543.68 780,-3545.05 777.97,-3546.36 775.89,-3547.59 773.78,-3548.75 771.64,-3549.84 769.46,-3550.84 767.27,-3551.77 765.05,-3552.6 762.82,-3553.35 760.57,-3554.01 758.31,-3554.59 756.04,-3555.06 753.76,-3555.45 751.48,-3555.74 749.19,-3555.93 746.91,-3556.02 744.62,-3556.02 742.33,-3555.93 740.04,-3555.74 737.76,-3555.45 735.48,-3555.06 733.21,-3554.59 730.95,-3554.01 728.7,-3553.35 726.47,-3552.6 724.25,-3551.77 722.06,-3550.84 719.88,-3549.84 717.74,-3548.75 715.63,-3547.59 713.56,-3546.36 711.52,-3545.05 709.54,-3543.68 707.61,-3542.25 705.74,-3540.75 703.94,-3539.21 702.21,-3537.61 700.56,-3535.96 699,-3534.28 697.54,-3532.56 696.18,-3530.8 694.93,-3529.02 693.8,-3527.21 692.8,-3525.39 691.93,-3523.55 691.19,-3521.71 690.61,-3519.87 690.18,-3518.02 689.91,-3516.19 689.8,-3514.37 689.87,-3512.56 690.11,-3510.78 690.52,-3509.02 691.12,-3507.3 691.9,-3505.61 692.86,-3503.97 694,-3502.37 695.33,-3500.82 696.84,-3499.33 698.52,-3497.9 700.38,-3496.53 702.42,-3495.22 704.61,-3493.99 706.97,-3492.83 709.47,-3491.74 712.12,-3490.74 714.9,-3489.81 717.8,-3488.98 720.82,-3488.22 723.93,-3487.56 727.14,-3486.99 730.42,-3486.52 733.76,-3486.13 737.15,-3485.84 740.58,-3485.65 744.03,-3485.55 747.49,-3485.55 750.94,-3485.65"/>
<text text-anchor="start" x="716.59" y="-3530.59" font-family="Times,serif" font-size="14.00">C0016542</text>
<text text-anchor="start" x="725.93" y="-3516.59" font-family="Times,serif" font-size="14.00">objects</text>
<text text-anchor="start" x="729.82" y="-3502.59" font-family="Times,serif" font-size="14.00">49:49</text>
</g>
<!-- id_28058375_DOT_18 -->
<g id="node18" class="node">
<title>id_28058375_DOT_18</title>
<polygon fill="cadetblue" stroke="cadetblue" points="680.07,-3112.59 684.4,-3112.79 688.7,-3113.08 692.92,-3113.46 697.07,-3113.94 701.13,-3114.51 705.07,-3115.17 708.88,-3115.92 712.55,-3116.76 716.07,-3117.68 719.42,-3118.68 722.58,-3119.77 725.56,-3120.93 728.34,-3122.17 730.91,-3123.47 733.26,-3124.84 735.4,-3126.28 737.3,-3127.77 738.98,-3129.32 740.43,-3130.91 741.65,-3132.56 742.63,-3134.24 743.38,-3135.97 743.91,-3137.72 744.21,-3139.5 744.29,-3141.31 744.16,-3143.13 743.81,-3144.97 743.27,-3146.81 742.53,-3148.66 741.61,-3150.5 740.51,-3152.33 739.24,-3154.16 737.81,-3155.96 736.23,-3157.74 734.51,-3159.5 732.65,-3161.22 730.68,-3162.91 728.6,-3164.55 726.41,-3166.15 724.13,-3167.7 721.77,-3169.19 719.33,-3170.62 716.82,-3172 714.25,-3173.3 711.63,-3174.54 708.96,-3175.7 706.25,-3176.78 703.5,-3177.79 700.72,-3178.71 697.92,-3179.55 695.09,-3180.3 692.25,-3180.96 689.39,-3181.53 686.52,-3182.01 683.64,-3182.39 680.75,-3182.68 677.86,-3182.87 674.97,-3182.97 672.07,-3182.97 669.18,-3182.87 666.29,-3182.68 663.4,-3182.39 660.52,-3182.01 657.65,-3181.53 654.79,-3180.96 651.95,-3180.3 649.12,-3179.55 646.32,-3178.71 643.54,-3177.79 640.79,-3176.78 638.08,-3175.7 635.41,-3174.54 632.79,-3173.3 630.22,-3172 627.71,-3170.62 625.27,-3169.19 622.9,-3167.7 620.63,-3166.15 618.44,-3164.55 616.36,-3162.91 614.38,-3161.22 612.53,-3159.5 610.81,-3157.74 609.23,-3155.96 607.8,-3154.16 606.53,-3152.33 605.43,-3150.5 604.51,-3148.66 603.77,-3146.81 603.22,-3144.97 602.88,-3143.13 602.75,-3141.31 602.83,-3139.5 603.13,-3137.72 603.65,-3135.97 604.41,-3134.24 605.39,-3132.56 606.61,-3130.91 608.06,-3129.32 609.73,-3127.77 611.64,-3126.28 613.78,-3124.84 616.13,-3123.47 618.7,-3122.17 621.48,-3120.93 624.45,-3119.77 627.62,-3118.68 630.97,-3117.68 634.49,-3116.76 638.16,-3115.92 641.97,-3115.17 645.91,-3114.51 649.96,-3113.94 654.11,-3113.46 658.34,-3113.08 662.63,-3112.79 666.97,-3112.59 671.33,-3112.5 675.71,-3112.5 680.07,-3112.59"/>
<text text-anchor="start" x="644.35" y="-3157.53" font-family="Times,serif" font-size="14.00">C0016542</text>
<text text-anchor="start" x="634.45" y="-3143.53" font-family="Times,serif" font-size="14.00">foreign object</text>
<text text-anchor="start" x="657.57" y="-3129.53" font-family="Times,serif" font-size="14.00">87:88</text>
</g>
<!-- id_28058375_DOT_9&#45;&#45;id_28058375_DOT_18 -->
<g id="edge8" class="edge">
<title>id_28058375_DOT_9&#45;&#45;id_28058375_DOT_18</title>
<path fill="none" stroke="black" d="M738.96,-3485.69C725.18,-3414.5 694.07,-3253.85 680.3,-3182.74"/>
<text text-anchor="middle" x="683.38" y="-3337.01" font-family="Times,serif" font-size="14.00">0.136631</text>
</g>
<!-- id_28058375_DOT_27 -->
<g id="node27" class="node">
<title>id_28058375_DOT_27</title>
<polygon fill="deepskyblue" stroke="deepskyblue" points="905.09,-3857.85 908.52,-3858.05 911.91,-3858.34 915.25,-3858.72 918.54,-3859.2 921.74,-3859.77 924.86,-3860.43 927.87,-3861.18 930.77,-3862.02 933.55,-3862.94 936.2,-3863.94 938.71,-3865.03 941.06,-3866.19 943.26,-3867.43 945.29,-3868.73 947.15,-3870.1 948.84,-3871.54 950.34,-3873.03 951.67,-3874.58 952.82,-3876.17 953.78,-3877.82 954.56,-3879.5 955.15,-3881.23 955.57,-3882.98 955.8,-3884.76 955.87,-3886.57 955.76,-3888.39 955.49,-3890.23 955.06,-3892.07 954.48,-3893.92 953.75,-3895.76 952.88,-3897.59 951.87,-3899.42 950.74,-3901.22 949.49,-3903 948.13,-3904.76 946.67,-3906.48 945.11,-3908.17 943.46,-3909.81 941.73,-3911.41 939.93,-3912.96 938.06,-3914.45 936.13,-3915.88 934.15,-3917.26 932.12,-3918.56 930.04,-3919.8 927.93,-3920.96 925.79,-3922.04 923.62,-3923.05 921.42,-3923.97 919.2,-3924.81 916.97,-3925.56 914.72,-3926.22 912.46,-3926.79 910.19,-3927.27 907.91,-3927.65 905.63,-3927.94 903.35,-3928.13 901.06,-3928.23 898.77,-3928.23 896.48,-3928.13 894.19,-3927.94 891.91,-3927.65 889.63,-3927.27 887.36,-3926.79 885.1,-3926.22 882.86,-3925.56 880.62,-3924.81 878.4,-3923.97 876.21,-3923.05 874.04,-3922.04 871.89,-3920.96 869.78,-3919.8 867.71,-3918.56 865.68,-3917.26 863.69,-3915.88 861.76,-3914.45 859.89,-3912.96 858.09,-3911.41 856.36,-3909.81 854.72,-3908.17 853.16,-3906.48 851.69,-3904.76 850.33,-3903 849.08,-3901.22 847.95,-3899.42 846.95,-3897.59 846.08,-3895.76 845.35,-3893.92 844.76,-3892.07 844.33,-3890.23 844.06,-3888.39 843.96,-3886.57 844.02,-3884.76 844.26,-3882.98 844.67,-3881.23 845.27,-3879.5 846.05,-3877.82 847.01,-3876.17 848.15,-3874.58 849.48,-3873.03 850.99,-3871.54 852.68,-3870.1 854.54,-3868.73 856.57,-3867.43 858.76,-3866.19 861.12,-3865.03 863.62,-3863.94 866.27,-3862.94 869.05,-3862.02 871.95,-3861.18 874.97,-3860.43 878.08,-3859.77 881.29,-3859.2 884.57,-3858.72 887.91,-3858.34 891.31,-3858.05 894.73,-3857.85 898.18,-3857.76 901.64,-3857.76 905.09,-3857.85"/>
<text text-anchor="start" x="870.74" y="-3902.79" font-family="Times,serif" font-size="14.00">C0003461</text>
<text text-anchor="start" x="887.08" y="-3888.79" font-family="Times,serif" font-size="14.00">anus</text>
<text text-anchor="start" x="876.97" y="-3874.79" font-family="Times,serif" font-size="14.00">133:133</text>
</g>
<!-- id_28058375_DOT_9&#45;&#45;id_28058375_DOT_27 -->
<g id="edge21" class="edge">
<title>id_28058375_DOT_9&#45;&#45;id_28058375_DOT_27</title>
<path fill="none" stroke="black" stroke-dasharray="1,5" d="M759.71,-3554.48C788.91,-3624.98 856.2,-3787.44 885.66,-3858.57"/>
<text text-anchor="middle" x="796.43" y="-3709.33" font-family="Times,serif" font-size="14.00">0.772901</text>
</g>
<!-- id_28058375_DOT_10 -->
<g id="node10" class="node">
<title>id_28058375_DOT_10</title>
<polygon fill="chartreuse" stroke="chartreuse" points="1306.09,-3761.29 1309.52,-3761.49 1312.91,-3761.78 1316.25,-3762.16 1319.53,-3762.64 1322.74,-3763.21 1325.85,-3763.87 1328.87,-3764.62 1331.77,-3765.46 1334.55,-3766.38 1337.2,-3767.39 1339.7,-3768.47 1342.06,-3769.63 1344.25,-3770.87 1346.28,-3772.17 1348.15,-3773.54 1349.83,-3774.98 1351.34,-3776.47 1352.67,-3778.02 1353.81,-3779.62 1354.77,-3781.26 1355.55,-3782.95 1356.15,-3784.67 1356.56,-3786.42 1356.8,-3788.21 1356.87,-3790.01 1356.76,-3791.83 1356.49,-3793.67 1356.06,-3795.51 1355.47,-3797.36 1354.74,-3799.2 1353.87,-3801.03 1352.87,-3802.86 1351.74,-3804.66 1350.49,-3806.44 1349.13,-3808.2 1347.66,-3809.92 1346.11,-3811.61 1344.46,-3813.25 1342.73,-3814.85 1340.93,-3816.4 1339.06,-3817.89 1337.13,-3819.33 1335.15,-3820.7 1333.11,-3822 1331.04,-3823.24 1328.93,-3824.4 1326.78,-3825.48 1324.61,-3826.49 1322.42,-3827.41 1320.2,-3828.25 1317.97,-3829 1315.72,-3829.66 1313.46,-3830.23 1311.19,-3830.71 1308.91,-3831.09 1306.63,-3831.38 1304.34,-3831.57 1302.05,-3831.67 1299.76,-3831.67 1297.48,-3831.57 1295.19,-3831.38 1292.91,-3831.09 1290.63,-3830.71 1288.36,-3830.23 1286.1,-3829.66 1283.85,-3829 1281.62,-3828.25 1279.4,-3827.41 1277.21,-3826.49 1275.03,-3825.48 1272.89,-3824.4 1270.78,-3823.24 1268.7,-3822 1266.67,-3820.7 1264.69,-3819.33 1262.76,-3817.89 1260.89,-3816.4 1259.09,-3814.85 1257.36,-3813.25 1255.71,-3811.61 1254.15,-3809.92 1252.69,-3808.2 1251.33,-3806.44 1250.08,-3804.66 1248.95,-3802.86 1247.95,-3801.03 1247.07,-3799.2 1246.34,-3797.36 1245.76,-3795.51 1245.33,-3793.67 1245.06,-3791.83 1244.95,-3790.01 1245.02,-3788.21 1245.25,-3786.42 1245.67,-3784.67 1246.27,-3782.95 1247.04,-3781.26 1248,-3779.62 1249.15,-3778.02 1250.48,-3776.47 1251.99,-3774.98 1253.67,-3773.54 1255.53,-3772.17 1257.56,-3770.87 1259.76,-3769.63 1262.12,-3768.47 1264.62,-3767.39 1267.27,-3766.38 1270.05,-3765.46 1272.95,-3764.62 1275.96,-3763.87 1279.08,-3763.21 1282.29,-3762.64 1285.57,-3762.16 1288.91,-3761.78 1292.3,-3761.49 1295.73,-3761.29 1299.18,-3761.2 1302.64,-3761.2 1306.09,-3761.29"/>
<text text-anchor="start" x="1271.74" y="-3806.23" font-family="Times,serif" font-size="14.00">C0034196</text>
<text text-anchor="start" x="1279.91" y="-3792.23" font-family="Times,serif" font-size="14.00">pylorus</text>
<text text-anchor="start" x="1284.96" y="-3778.23" font-family="Times,serif" font-size="14.00">55:55</text>
</g>
<!-- id_28058375_DOT_10&#45;&#45;id_28058375_DOT_27 -->
<g id="edge22" class="edge">
<title>id_28058375_DOT_10&#45;&#45;id_28058375_DOT_27</title>
<path fill="none" stroke="black" stroke-dasharray="1,5" d="M1252.54,-3808.08C1177.55,-3826.14 1033.68,-3860.78 954.87,-3879.76"/>
<text text-anchor="middle" x="1077.45" y="-3846.72" font-family="Times,serif" font-size="14.00">0.632753</text>
</g>
<!-- id_28058375_DOT_19 -->
<g id="node19" class="node">
<title>id_28058375_DOT_19</title>
<polygon fill="darkorange" stroke="darkorange" points="357.36,-4228.68 360.79,-4228.87 364.18,-4229.16 367.53,-4229.54 370.81,-4230.02 374.01,-4230.59 377.13,-4231.25 380.14,-4232 383.05,-4232.84 385.83,-4233.76 388.47,-4234.77 390.98,-4235.85 393.33,-4237.01 395.53,-4238.25 397.56,-4239.55 399.42,-4240.93 401.11,-4242.36 402.61,-4243.85 403.94,-4245.4 405.09,-4247 406.05,-4248.64 406.83,-4250.33 407.42,-4252.05 407.84,-4253.81 408.08,-4255.59 408.14,-4257.39 408.03,-4259.22 407.76,-4261.05 407.33,-4262.89 406.75,-4264.74 406.02,-4266.58 405.15,-4268.42 404.14,-4270.24 403.01,-4272.04 401.76,-4273.83 400.4,-4275.58 398.94,-4277.31 397.38,-4278.99 395.73,-4280.64 394,-4282.23 392.2,-4283.78 390.33,-4285.27 388.4,-4286.71 386.42,-4288.08 384.39,-4289.38 382.31,-4290.62 380.2,-4291.78 378.06,-4292.86 375.89,-4293.87 373.69,-4294.79 371.47,-4295.63 369.24,-4296.38 366.99,-4297.04 364.73,-4297.61 362.46,-4298.09 360.18,-4298.47 357.9,-4298.76 355.62,-4298.96 353.33,-4299.05 351.04,-4299.05 348.75,-4298.96 346.46,-4298.76 344.18,-4298.47 341.9,-4298.09 339.63,-4297.61 337.37,-4297.04 335.13,-4296.38 332.89,-4295.63 330.68,-4294.79 328.48,-4293.87 326.31,-4292.86 324.16,-4291.78 322.05,-4290.62 319.98,-4289.38 317.95,-4288.08 315.96,-4286.71 314.03,-4285.27 312.16,-4283.78 310.36,-4282.23 308.63,-4280.64 306.99,-4278.99 305.43,-4277.31 303.96,-4275.58 302.6,-4273.83 301.35,-4272.04 300.22,-4270.24 299.22,-4268.42 298.35,-4266.58 297.62,-4264.74 297.03,-4262.89 296.6,-4261.05 296.33,-4259.22 296.23,-4257.39 296.29,-4255.59 296.53,-4253.81 296.94,-4252.05 297.54,-4250.33 298.32,-4248.64 299.28,-4247 300.42,-4245.4 301.75,-4243.85 303.26,-4242.36 304.95,-4240.93 306.81,-4239.55 308.84,-4238.25 311.03,-4237.01 313.39,-4235.85 315.89,-4234.77 318.54,-4233.76 321.32,-4232.84 324.22,-4232 327.24,-4231.25 330.35,-4230.59 333.56,-4230.02 336.84,-4229.54 340.18,-4229.16 343.58,-4228.87 347,-4228.68 350.45,-4228.58 353.91,-4228.58 357.36,-4228.68"/>
<text text-anchor="start" x="323.01" y="-4273.62" font-family="Times,serif" font-size="14.00">C0015252</text>
<text text-anchor="start" x="329.25" y="-4259.62" font-family="Times,serif" font-size="14.00">removal</text>
<text text-anchor="start" x="336.24" y="-4245.62" font-family="Times,serif" font-size="14.00">89:89</text>
</g>
<!-- id_28058375_DOT_11&#45;&#45;id_28058375_DOT_19 -->
<g id="edge23" class="edge">
<title>id_28058375_DOT_11&#45;&#45;id_28058375_DOT_19</title>
<path fill="none" stroke="black" stroke-dasharray="1,5" d="M702.82,-4290.24C622.92,-4284.22 482.36,-4273.63 405.71,-4267.85"/>
<text text-anchor="middle" x="528.02" y="-4281.85" font-family="Times,serif" font-size="14.00">0.850206</text>
</g>
<!-- id_28058375_DOT_11&#45;&#45;id_28058375_DOT_27 -->
<g id="edge24" class="edge">
<title>id_28058375_DOT_11&#45;&#45;id_28058375_DOT_27</title>
<path fill="none" stroke="black" stroke-dasharray="1,5" d="M774.44,-4259.79C800.56,-4183.43 862.45,-4002.51 888.28,-3927.01"/>
<text text-anchor="middle" x="805.11" y="-4096.2" font-family="Times,serif" font-size="14.00">0.797696</text>
</g>
<!-- id_28058375_DOT_12 -->
<g id="node12" class="node">
<title>id_28058375_DOT_12</title>
<polygon fill="cornflowerblue" stroke="cornflowerblue" points="1305.53,-324 1308.96,-324.19 1312.35,-324.48 1315.7,-324.87 1318.98,-325.34 1322.18,-325.91 1325.3,-326.58 1328.31,-327.33 1331.21,-328.16 1333.99,-329.09 1336.64,-330.09 1339.15,-331.18 1341.5,-332.34 1343.7,-333.57 1345.73,-334.88 1347.59,-336.25 1349.28,-337.68 1350.78,-339.18 1352.11,-340.72 1353.26,-342.32 1354.22,-343.97 1355,-345.65 1355.59,-347.37 1356.01,-349.13 1356.24,-350.91 1356.31,-352.72 1356.2,-354.54 1355.93,-356.37 1355.5,-358.22 1354.92,-360.06 1354.19,-361.91 1353.32,-363.74 1352.31,-365.56 1351.18,-367.37 1349.93,-369.15 1348.57,-370.91 1347.11,-372.63 1345.55,-374.31 1343.9,-375.96 1342.17,-377.56 1340.37,-379.1 1338.5,-380.6 1336.57,-382.03 1334.59,-383.4 1332.56,-384.71 1330.48,-385.94 1328.37,-387.1 1326.23,-388.19 1324.06,-389.19 1321.86,-390.12 1319.64,-390.95 1317.41,-391.7 1315.16,-392.37 1312.9,-392.94 1310.63,-393.41 1308.35,-393.8 1306.07,-394.09 1303.79,-394.28 1301.5,-394.38 1299.21,-394.38 1296.92,-394.28 1294.63,-394.09 1292.35,-393.8 1290.07,-393.41 1287.8,-392.94 1285.54,-392.37 1283.3,-391.7 1281.06,-390.95 1278.84,-390.12 1276.65,-389.19 1274.48,-388.19 1272.33,-387.1 1270.22,-385.94 1268.15,-384.71 1266.12,-383.4 1264.13,-382.03 1262.2,-380.6 1260.33,-379.1 1258.53,-377.56 1256.8,-375.96 1255.16,-374.31 1253.6,-372.63 1252.13,-370.91 1250.77,-369.15 1249.52,-367.37 1248.39,-365.56 1247.39,-363.74 1246.52,-361.91 1245.79,-360.06 1245.2,-358.22 1244.77,-356.37 1244.5,-354.54 1244.4,-352.72 1244.46,-350.91 1244.7,-349.13 1245.11,-347.37 1245.71,-345.65 1246.49,-343.97 1247.45,-342.32 1248.59,-340.72 1249.92,-339.18 1251.43,-337.68 1253.12,-336.25 1254.98,-334.88 1257.01,-333.57 1259.2,-332.34 1261.56,-331.18 1264.06,-330.09 1266.71,-329.09 1269.49,-328.16 1272.39,-327.33 1275.41,-326.58 1278.52,-325.91 1281.73,-325.34 1285.01,-324.87 1288.35,-324.48 1291.75,-324.19 1295.17,-324 1298.62,-323.9 1302.08,-323.9 1305.53,-324"/>
<text text-anchor="start" x="1271.18" y="-368.94" font-family="Times,serif" font-size="14.00">C3887532</text>
<text text-anchor="start" x="1272.37" y="-354.94" font-family="Times,serif" font-size="14.00">ulceration</text>
<text text-anchor="start" x="1284.41" y="-340.94" font-family="Times,serif" font-size="14.00">62:62</text>
</g>
<!-- id_28058375_DOT_13 -->
<g id="node13" class="node">
<title>id_28058375_DOT_13</title>
<polygon fill="crimson" stroke="crimson" points="1115.02,-645.7 1118.45,-645.89 1121.84,-646.18 1125.19,-646.57 1128.47,-647.04 1131.67,-647.61 1134.79,-648.27 1137.8,-649.03 1140.71,-649.86 1143.49,-650.79 1146.13,-651.79 1148.64,-652.88 1150.99,-654.04 1153.19,-655.27 1155.22,-656.58 1157.08,-657.95 1158.77,-659.38 1160.28,-660.87 1161.6,-662.42 1162.75,-664.02 1163.71,-665.66 1164.49,-667.35 1165.08,-669.07 1165.5,-670.83 1165.74,-672.61 1165.8,-674.42 1165.7,-676.24 1165.42,-678.07 1164.99,-679.92 1164.41,-681.76 1163.68,-683.6 1162.81,-685.44 1161.8,-687.26 1160.67,-689.07 1159.42,-690.85 1158.06,-692.61 1156.6,-694.33 1155.04,-696.01 1153.39,-697.66 1151.67,-699.26 1149.86,-700.8 1147.99,-702.3 1146.07,-703.73 1144.08,-705.1 1142.05,-706.41 1139.98,-707.64 1137.86,-708.8 1135.72,-709.89 1133.55,-710.89 1131.35,-711.82 1129.14,-712.65 1126.9,-713.4 1124.65,-714.06 1122.39,-714.64 1120.12,-715.11 1117.85,-715.5 1115.56,-715.79 1113.28,-715.98 1110.99,-716.07 1108.7,-716.07 1106.41,-715.98 1104.13,-715.79 1101.84,-715.5 1099.57,-715.11 1097.3,-714.64 1095.04,-714.06 1092.79,-713.4 1090.55,-712.65 1088.34,-711.82 1086.14,-710.89 1083.97,-709.89 1081.83,-708.8 1079.71,-707.64 1077.64,-706.41 1075.61,-705.1 1073.62,-703.73 1071.7,-702.3 1069.83,-700.8 1068.02,-699.26 1066.3,-697.66 1064.65,-696.01 1063.09,-694.33 1061.63,-692.61 1060.27,-690.85 1059.02,-689.07 1057.89,-687.26 1056.88,-685.44 1056.01,-683.6 1055.28,-681.76 1054.7,-679.92 1054.26,-678.07 1053.99,-676.24 1053.89,-674.42 1053.95,-672.61 1054.19,-670.83 1054.61,-669.07 1055.2,-667.35 1055.98,-665.66 1056.94,-664.02 1058.09,-662.42 1059.41,-660.87 1060.92,-659.38 1062.61,-657.95 1064.47,-656.58 1066.5,-655.27 1068.7,-654.04 1071.05,-652.88 1073.56,-651.79 1076.2,-650.79 1078.98,-649.86 1081.89,-649.03 1084.9,-648.27 1088.02,-647.61 1091.22,-647.04 1094.5,-646.57 1097.85,-646.18 1101.24,-645.89 1104.67,-645.7 1108.12,-645.6 1111.57,-645.6 1115.02,-645.7"/>
<text text-anchor="start" x="1080.68" y="-690.64" font-family="Times,serif" font-size="14.00">C0019080</text>
<text text-anchor="start" x="1085.74" y="-676.64" font-family="Times,serif" font-size="14.00">bleeding</text>
<text text-anchor="start" x="1093.9" y="-662.64" font-family="Times,serif" font-size="14.00">64:64</text>
</g>
<!-- id_28058375_DOT_12&#45;&#45;id_28058375_DOT_13 -->
<g id="edge25" class="edge">
<title>id_28058375_DOT_12&#45;&#45;id_28058375_DOT_13</title>
<path fill="none" stroke="black" stroke-dasharray="1,5" d="M1281.39,-391.16C1245.25,-452.19 1166.83,-584.62 1129.87,-647.02"/>
<text text-anchor="middle" x="1179.38" y="-521.89" font-family="Times,serif" font-size="14.00">0.750188</text>
</g>
<!-- id_28058375_DOT_14 -->
<g id="node14" class="node">
<title>id_28058375_DOT_14</title>
<polygon fill="darkgoldenrod" stroke="darkgoldenrod" points="1479.37,-0.23 1482.97,-0.42 1486.54,-0.71 1490.05,-1.09 1493.49,-1.57 1496.86,-2.14 1500.13,-2.8 1503.3,-3.55 1506.35,-4.39 1509.27,-5.31 1512.04,-6.32 1514.68,-7.4 1517.15,-8.57 1519.45,-9.8 1521.59,-11.1 1523.54,-12.48 1525.31,-13.91 1526.9,-15.4 1528.29,-16.95 1529.49,-18.55 1530.5,-20.19 1531.32,-21.88 1531.95,-23.6 1532.38,-25.36 1532.63,-27.14 1532.7,-28.94 1532.59,-30.77 1532.3,-32.6 1531.85,-34.44 1531.24,-36.29 1530.47,-38.13 1529.56,-39.97 1528.5,-41.79 1527.31,-43.6 1526,-45.38 1524.57,-47.13 1523.04,-48.86 1521.4,-50.54 1519.67,-52.19 1517.85,-53.78 1515.96,-55.33 1514,-56.82 1511.97,-58.26 1509.89,-59.63 1507.76,-60.94 1505.58,-62.17 1503.36,-63.33 1501.11,-64.42 1498.83,-65.42 1496.52,-66.34 1494.19,-67.18 1491.85,-67.93 1489.49,-68.59 1487.11,-69.16 1484.73,-69.64 1482.34,-70.02 1479.94,-70.31 1477.54,-70.51 1475.14,-70.6 1472.73,-70.6 1470.33,-70.51 1467.93,-70.31 1465.53,-70.02 1463.14,-69.64 1460.76,-69.16 1458.38,-68.59 1456.02,-67.93 1453.68,-67.18 1451.35,-66.34 1449.04,-65.42 1446.76,-64.42 1444.51,-63.33 1442.29,-62.17 1440.11,-60.94 1437.98,-59.63 1435.9,-58.26 1433.87,-56.82 1431.91,-55.33 1430.02,-53.78 1428.2,-52.19 1426.47,-50.54 1424.83,-48.86 1423.3,-47.13 1421.87,-45.38 1420.56,-43.6 1419.37,-41.79 1418.32,-39.97 1417.4,-38.13 1416.63,-36.29 1416.02,-34.44 1415.57,-32.6 1415.28,-30.77 1415.17,-28.94 1415.24,-27.14 1415.49,-25.36 1415.93,-23.6 1416.55,-21.88 1417.37,-20.19 1418.38,-18.55 1419.58,-16.95 1420.97,-15.4 1422.56,-13.91 1424.33,-12.48 1426.28,-11.1 1428.42,-9.8 1430.72,-8.57 1433.2,-7.4 1435.83,-6.32 1438.61,-5.31 1441.53,-4.39 1444.57,-3.55 1447.74,-2.8 1451.01,-2.14 1454.38,-1.57 1457.82,-1.09 1461.33,-0.71 1464.9,-0.42 1468.5,-0.23 1472.12,-0.13 1475.75,-0.13 1479.37,-0.23"/>
<text text-anchor="start" x="1444.77" y="-45.17" font-family="Times,serif" font-size="14.00">C0549099</text>
<text text-anchor="start" x="1442.84" y="-31.17" font-family="Times,serif" font-size="14.00">perforation</text>
<text text-anchor="start" x="1457.99" y="-17.17" font-family="Times,serif" font-size="14.00">66:66</text>
</g>
<!-- id_28058375_DOT_12&#45;&#45;id_28058375_DOT_14 -->
<g id="edge26" class="edge">
<title>id_28058375_DOT_12&#45;&#45;id_28058375_DOT_14</title>
<path fill="none" stroke="black" stroke-dasharray="1,5" d="M1318.6,-325.1C1352.11,-262.59 1423.06,-130.27 1456.19,-68.47"/>
<text text-anchor="middle" x="1361.15" y="-199.58" font-family="Times,serif" font-size="14.00">0.727598</text>
</g>
<!-- id_28058375_DOT_13&#45;&#45;id_28058375_DOT_22 -->
<g id="edge27" class="edge">
<title>id_28058375_DOT_13&#45;&#45;id_28058375_DOT_22</title>
<path fill="none" stroke="black" stroke-dasharray="1,5" d="M1086.75,-711.16C1042.67,-769.04 946.86,-894.83 901.05,-954.98"/>
<text text-anchor="middle" x="967.65" y="-835.87" font-family="Times,serif" font-size="14.00">0.684686</text>
</g>
<!-- id_28058375_DOT_15 -->
<g id="node15" class="node">
<title>id_28058375_DOT_15</title>
<polygon fill="darkgreen" stroke="darkgreen" points="2177.05,-7350.38 2180.66,-7350.57 2184.22,-7350.86 2187.73,-7351.25 2191.18,-7351.72 2194.55,-7352.29 2197.82,-7352.96 2200.99,-7353.71 2204.04,-7354.54 2206.96,-7355.47 2209.74,-7356.47 2212.37,-7357.56 2214.85,-7358.72 2217.16,-7359.95 2219.29,-7361.26 2221.25,-7362.63 2223.02,-7364.06 2224.6,-7365.56 2226,-7367.1 2227.2,-7368.7 2228.21,-7370.35 2229.03,-7372.03 2229.65,-7373.75 2230.09,-7375.51 2230.34,-7377.29 2230.41,-7379.1 2230.3,-7380.92 2230.01,-7382.75 2229.56,-7384.6 2228.95,-7386.44 2228.18,-7388.29 2227.26,-7390.12 2226.21,-7391.94 2225.02,-7393.75 2223.71,-7395.53 2222.28,-7397.29 2220.74,-7399.01 2219.1,-7400.69 2217.37,-7402.34 2215.56,-7403.94 2213.66,-7405.48 2211.7,-7406.98 2209.67,-7408.41 2207.59,-7409.78 2205.45,-7411.09 2203.27,-7412.32 2201.05,-7413.48 2198.8,-7414.57 2196.52,-7415.57 2194.21,-7416.5 2191.88,-7417.33 2189.54,-7418.08 2187.17,-7418.75 2184.8,-7419.32 2182.41,-7419.79 2180.02,-7420.18 2177.62,-7420.47 2175.22,-7420.66 2172.82,-7420.76 2170.41,-7420.76 2168.01,-7420.66 2165.6,-7420.47 2163.21,-7420.18 2160.81,-7419.79 2158.43,-7419.32 2156.05,-7418.75 2153.69,-7418.08 2151.34,-7417.33 2149.02,-7416.5 2146.71,-7415.57 2144.43,-7414.57 2142.17,-7413.48 2139.95,-7412.32 2137.78,-7411.09 2135.64,-7409.78 2133.56,-7408.41 2131.53,-7406.98 2129.57,-7405.48 2127.67,-7403.94 2125.86,-7402.34 2124.12,-7400.69 2122.49,-7399.01 2120.95,-7397.29 2119.52,-7395.53 2118.21,-7393.75 2117.02,-7391.94 2115.96,-7390.12 2115.05,-7388.29 2114.28,-7386.44 2113.67,-7384.6 2113.21,-7382.75 2112.93,-7380.92 2112.82,-7379.1 2112.89,-7377.29 2113.14,-7375.51 2113.57,-7373.75 2114.2,-7372.03 2115.02,-7370.35 2116.03,-7368.7 2117.23,-7367.1 2118.62,-7365.56 2120.21,-7364.06 2121.98,-7362.63 2123.94,-7361.26 2126.07,-7359.95 2128.38,-7358.72 2130.85,-7357.56 2133.48,-7356.47 2136.27,-7355.47 2139.19,-7354.54 2142.24,-7353.71 2145.4,-7352.96 2148.68,-7352.29 2152.05,-7351.72 2155.49,-7351.25 2159.01,-7350.86 2162.57,-7350.57 2166.17,-7350.38 2169.8,-7350.28 2173.43,-7350.28 2177.05,-7350.38"/>
<text text-anchor="start" x="2142.44" y="-7395.32" font-family="Times,serif" font-size="14.00">C0014245</text>
<text text-anchor="start" x="2140.51" y="-7381.32" font-family="Times,serif" font-size="14.00">Endoscopy</text>
<text text-anchor="start" x="2155.67" y="-7367.32" font-family="Times,serif" font-size="14.00">68:68</text>
</g>
<!-- id_28058375_DOT_17 -->
<g id="node17" class="node">
<title>id_28058375_DOT_17</title>
<polygon fill="darkmagenta" stroke="darkmagenta" points="1973.82,-7049.97 1977.47,-7050.16 1981.07,-7050.45 1984.62,-7050.83 1988.11,-7051.31 1991.51,-7051.88 1994.82,-7052.54 1998.03,-7053.29 2001.11,-7054.13 2004.06,-7055.05 2006.88,-7056.06 2009.54,-7057.14 2012.04,-7058.31 2014.37,-7059.54 2016.53,-7060.85 2018.51,-7062.22 2020.3,-7063.65 2021.9,-7065.14 2023.31,-7066.69 2024.53,-7068.29 2025.55,-7069.93 2026.37,-7071.62 2027.01,-7073.34 2027.45,-7075.1 2027.7,-7076.88 2027.77,-7078.68 2027.66,-7080.51 2027.37,-7082.34 2026.91,-7084.19 2026.29,-7086.03 2025.52,-7087.87 2024.59,-7089.71 2023.52,-7091.53 2022.32,-7093.34 2021,-7095.12 2019.55,-7096.87 2018,-7098.6 2016.34,-7100.28 2014.59,-7101.93 2012.75,-7103.52 2010.84,-7105.07 2008.85,-7106.57 2006.8,-7108 2004.7,-7109.37 2002.54,-7110.68 2000.33,-7111.91 1998.09,-7113.07 1995.81,-7114.16 1993.51,-7115.16 1991.17,-7116.08 1988.82,-7116.92 1986.44,-7117.67 1984.06,-7118.33 1981.65,-7118.9 1979.24,-7119.38 1976.82,-7119.77 1974.4,-7120.05 1971.97,-7120.25 1969.54,-7120.34 1967.11,-7120.34 1964.68,-7120.25 1962.25,-7120.05 1959.82,-7119.77 1957.4,-7119.38 1954.99,-7118.9 1952.59,-7118.33 1950.2,-7117.67 1947.83,-7116.92 1945.47,-7116.08 1943.14,-7115.16 1940.83,-7114.16 1938.56,-7113.07 1936.31,-7111.91 1934.11,-7110.68 1931.95,-7109.37 1929.84,-7108 1927.79,-7106.57 1925.81,-7105.07 1923.89,-7103.52 1922.06,-7101.93 1920.31,-7100.28 1918.65,-7098.6 1917.1,-7096.87 1915.65,-7095.12 1914.32,-7093.34 1913.12,-7091.53 1912.06,-7089.71 1911.13,-7087.87 1910.35,-7086.03 1909.73,-7084.19 1909.28,-7082.34 1908.99,-7080.51 1908.88,-7078.68 1908.94,-7076.88 1909.2,-7075.1 1909.64,-7073.34 1910.27,-7071.62 1911.1,-7069.93 1912.12,-7068.29 1913.34,-7066.69 1914.75,-7065.14 1916.35,-7063.65 1918.14,-7062.22 1920.12,-7060.85 1922.28,-7059.54 1924.61,-7058.31 1927.11,-7057.14 1929.77,-7056.06 1932.58,-7055.05 1935.54,-7054.13 1938.62,-7053.29 1941.82,-7052.54 1945.13,-7051.88 1948.54,-7051.31 1952.02,-7050.83 1955.58,-7050.45 1959.18,-7050.16 1962.82,-7049.97 1966.49,-7049.87 1970.16,-7049.87 1973.82,-7049.97"/>
<text text-anchor="start" x="1939.15" y="-7094.91" font-family="Times,serif" font-size="14.00">C0442418</text>
<text text-anchor="start" x="1936.83" y="-7080.91" font-family="Times,serif" font-size="14.00">endoscopic</text>
<text text-anchor="start" x="1952.38" y="-7066.91" font-family="Times,serif" font-size="14.00">86:86</text>
</g>
<!-- id_28058375_DOT_15&#45;&#45;id_28058375_DOT_17 -->
<g id="edge9" class="edge">
<title>id_28058375_DOT_15&#45;&#45;id_28058375_DOT_17</title>
<path fill="none" stroke="black" d="M2149.08,-7352.22C2109.59,-7293.87 2028.41,-7173.9 1989.73,-7116.74"/>
<text text-anchor="middle" x="2043.15" y="-7237.28" font-family="Times,serif" font-size="14.00">0.014473</text>
</g>
<!-- id_28058375_DOT_16 -->
<g id="node16" class="node">
<title>id_28058375_DOT_16</title>
<polygon fill="darkkhaki" stroke="darkkhaki" points="1708.91,-4640.11 1715.71,-4640.3 1722.43,-4640.59 1729.06,-4640.98 1735.56,-4641.45 1741.91,-4642.02 1748.09,-4642.68 1754.06,-4643.44 1759.81,-4644.27 1765.32,-4645.2 1770.57,-4646.2 1775.53,-4647.29 1780.2,-4648.45 1784.55,-4649.68 1788.58,-4650.99 1792.27,-4652.36 1795.61,-4653.79 1798.6,-4655.28 1801.23,-4656.83 1803.5,-4658.43 1805.4,-4660.07 1806.94,-4661.76 1808.12,-4663.48 1808.95,-4665.24 1809.42,-4667.02 1809.55,-4668.83 1809.34,-4670.65 1808.8,-4672.48 1807.95,-4674.33 1806.79,-4676.17 1805.34,-4678.01 1803.62,-4679.85 1801.62,-4681.67 1799.38,-4683.48 1796.91,-4685.26 1794.21,-4687.02 1791.31,-4688.74 1788.22,-4690.42 1784.96,-4692.07 1781.53,-4693.67 1777.96,-4695.21 1774.26,-4696.71 1770.43,-4698.14 1766.5,-4699.51 1762.48,-4700.82 1758.37,-4702.05 1754.18,-4703.21 1749.93,-4704.3 1745.63,-4705.3 1741.27,-4706.23 1736.88,-4707.06 1732.45,-4707.81 1728,-4708.48 1723.52,-4709.05 1719.02,-4709.52 1714.51,-4709.91 1709.99,-4710.2 1705.45,-4710.39 1700.92,-4710.48 1696.38,-4710.48 1691.85,-4710.39 1687.32,-4710.2 1682.79,-4709.91 1678.28,-4709.52 1673.78,-4709.05 1669.3,-4708.48 1664.85,-4707.81 1660.42,-4707.06 1656.03,-4706.23 1651.67,-4705.3 1647.37,-4704.3 1643.12,-4703.21 1638.94,-4702.05 1634.83,-4700.82 1630.8,-4699.51 1626.87,-4698.14 1623.05,-4696.71 1619.34,-4695.21 1615.77,-4693.67 1612.34,-4692.07 1609.08,-4690.42 1605.99,-4688.74 1603.09,-4687.02 1600.39,-4685.26 1597.92,-4683.48 1595.68,-4681.67 1593.69,-4679.85 1591.96,-4678.01 1590.51,-4676.17 1589.35,-4674.33 1588.5,-4672.48 1587.96,-4670.65 1587.76,-4668.83 1587.88,-4667.02 1588.35,-4665.24 1589.18,-4663.48 1590.36,-4661.76 1591.9,-4660.07 1593.81,-4658.43 1596.07,-4656.83 1598.7,-4655.28 1601.69,-4653.79 1605.04,-4652.36 1608.72,-4650.99 1612.75,-4649.68 1617.1,-4648.45 1621.77,-4647.29 1626.73,-4646.2 1631.98,-4645.2 1637.49,-4644.27 1643.24,-4643.44 1649.22,-4642.68 1655.39,-4642.02 1661.74,-4641.45 1668.24,-4640.98 1674.87,-4640.59 1681.59,-4640.3 1688.39,-4640.11 1695.23,-4640.01 1702.08,-4640.01 1708.91,-4640.11"/>
<text text-anchor="start" x="1669.48" y="-4685.05" font-family="Times,serif" font-size="14.00">C0085704</text>
<text text-anchor="start" x="1633.15" y="-4671.05" font-family="Times,serif" font-size="14.00">exploratory laparatomy</text>
<text text-anchor="start" x="1682.71" y="-4657.05" font-family="Times,serif" font-size="14.00">80:81</text>
</g>
<!-- id_28058375_DOT_16&#45;&#45;id_28058375_DOT_24 -->
<g id="edge10" class="edge">
<title>id_28058375_DOT_16&#45;&#45;id_28058375_DOT_24</title>
<path fill="none" stroke="black" d="M1591.28,-4677.21C1513.39,-4678.64 1411,-4680.51 1347.61,-4681.67"/>
<text text-anchor="middle" x="1443.19" y="-4682.24" font-family="Times,serif" font-size="14.00">0.071508</text>
</g>
<!-- id_28058375_DOT_17&#45;&#45;id_28058375_DOT_23 -->
<g id="edge28" class="edge">
<title>id_28058375_DOT_17&#45;&#45;id_28058375_DOT_23</title>
<path fill="none" stroke="black" stroke-dasharray="1,5" d="M1943.24,-7052.14C1900.23,-6995.62 1813.02,-6880.98 1771.2,-6826.02"/>
<text text-anchor="middle" x="1830.97" y="-6941.88" font-family="Times,serif" font-size="14.00">0.879071</text>
</g>
<!-- id_28058375_DOT_18&#45;&#45;id_28058375_DOT_30 -->
<g id="edge11" class="edge">
<title>id_28058375_DOT_18&#45;&#45;id_28058375_DOT_30</title>
<path fill="none" stroke="black" d="M671.7,-3112.38C668.05,-3041.33 659.87,-2881.98 656.22,-2810.9"/>
<text text-anchor="middle" x="637.71" y="-2964.44" font-family="Times,serif" font-size="14.00">0.234000</text>
</g>
<!-- id_28058375_DOT_20 -->
<g id="node20" class="node">
<title>id_28058375_DOT_20</title>
<polygon fill="darkred" stroke="darkred" points="77.13,-4979.09 81.46,-4979.28 85.75,-4979.57 89.97,-4979.96 94.12,-4980.43 98.17,-4981 102.1,-4981.67 105.91,-4982.42 109.58,-4983.25 113.09,-4984.18 116.43,-4985.18 119.6,-4986.27 122.57,-4987.43 125.34,-4988.66 127.91,-4989.97 130.26,-4991.34 132.39,-4992.77 134.3,-4994.27 135.98,-4995.81 137.42,-4997.41 138.64,-4999.06 139.62,-5000.74 140.37,-5002.46 140.9,-5004.22 141.2,-5006 141.28,-5007.81 141.14,-5009.63 140.8,-5011.46 140.26,-5013.31 139.52,-5015.15 138.6,-5017 137.5,-5018.83 136.23,-5020.65 134.8,-5022.46 133.22,-5024.24 131.5,-5026 129.65,-5027.72 127.69,-5029.4 125.6,-5031.05 123.42,-5032.65 121.14,-5034.19 118.78,-5035.69 116.35,-5037.12 113.84,-5038.49 111.27,-5039.8 108.65,-5041.03 105.99,-5042.19 103.28,-5043.28 100.54,-5044.28 97.76,-5045.21 94.96,-5046.04 92.14,-5046.79 89.3,-5047.46 86.44,-5048.03 83.58,-5048.5 80.7,-5048.89 77.82,-5049.18 74.93,-5049.37 72.04,-5049.47 69.15,-5049.47 66.26,-5049.37 63.37,-5049.18 60.48,-5048.89 57.61,-5048.5 54.74,-5048.03 51.89,-5047.46 49.05,-5046.79 46.22,-5046.04 43.42,-5045.21 40.65,-5044.28 37.91,-5043.28 35.2,-5042.19 32.53,-5041.03 29.91,-5039.8 27.34,-5038.49 24.84,-5037.12 22.4,-5035.69 20.04,-5034.19 17.76,-5032.65 15.58,-5031.05 13.5,-5029.4 11.53,-5027.72 9.68,-5026 7.96,-5024.24 6.39,-5022.46 4.96,-5020.65 3.69,-5018.83 2.59,-5017 1.66,-5015.15 0.93,-5013.31 0.38,-5011.46 0.04,-5009.63 -0.09,-5007.81 -0.01,-5006 0.29,-5004.22 0.81,-5002.46 1.57,-5000.74 2.55,-4999.06 3.76,-4997.41 5.21,-4995.81 6.89,-4994.27 8.79,-4992.77 10.92,-4991.34 13.27,-4989.97 15.84,-4988.66 18.61,-4987.43 21.59,-4986.27 24.75,-4985.18 28.1,-4984.18 31.61,-4983.25 35.27,-4982.42 39.08,-4981.67 43.02,-4981 47.07,-4980.43 51.21,-4979.96 55.43,-4979.57 59.72,-4979.28 64.05,-4979.09 68.41,-4978.99 72.78,-4978.99 77.13,-4979.09"/>
<text text-anchor="start" x="41.42" y="-5024.03" font-family="Times,serif" font-size="14.00">C0036341</text>
<text text-anchor="start" x="31.72" y="-5010.03" font-family="Times,serif" font-size="14.00">schizophrenic</text>
<text text-anchor="start" x="54.65" y="-4996.03" font-family="Times,serif" font-size="14.00">97:97</text>
</g>
<!-- id_28058375_DOT_20&#45;&#45;id_28058375_DOT_21 -->
<g id="edge29" class="edge">
<title>id_28058375_DOT_20&#45;&#45;id_28058375_DOT_21</title>
<path fill="none" stroke="black" stroke-dasharray="1,5" d="M131.13,-4991.68C200.64,-4965.78 314.41,-4923.4 387.03,-4896.35"/>
<text text-anchor="middle" x="232.83" y="-4946.81" font-family="Times,serif" font-size="14.00">0.882637</text>
</g>
</g>
</svg>
