<?xml version="1.0" encoding="UTF-8" standalone="no"?>
<!DOCTYPE svg PUBLIC "-//W3C//DTD SVG 1.1//EN"
 "http://www.w3.org/Graphics/SVG/1.1/DTD/svg11.dtd">
<!-- Generated by graphviz version 2.42.3 (20191010.1750)
 -->
<!-- Title: MST Pages: 1 -->
<svg width="4329pt" height="4360pt"
 viewBox="0.00 0.00 4329.20 4360.49" xmlns="http://www.w3.org/2000/svg" xmlns:xlink="http://www.w3.org/1999/xlink">
<g id="graph0" class="graph" transform="scale(1 1) rotate(0) translate(4 4356.49)">
<title>MST</title>
<polygon fill="white" stroke="transparent" points="-4,4 -4,-4356.49 4325.2,-4356.49 4325.2,4 -4,4"/>
<!-- id_28087131_DOT_1 -->
<g id="node1" class="node">
<title>id_28087131_DOT_1</title>
<polygon fill="aquamarine" stroke="aquamarine" points="1739.97,-2046.34 1743.4,-2046.53 1746.8,-2046.82 1750.14,-2047.2 1753.42,-2047.68 1756.62,-2048.25 1759.74,-2048.91 1762.76,-2049.66 1765.66,-2050.5 1768.44,-2051.42 1771.09,-2052.43 1773.59,-2053.51 1775.94,-2054.67 1778.14,-2055.91 1780.17,-2057.21 1782.03,-2058.58 1783.72,-2060.02 1785.23,-2061.51 1786.56,-2063.06 1787.7,-2064.66 1788.66,-2066.3 1789.44,-2067.99 1790.04,-2069.71 1790.45,-2071.46 1790.69,-2073.25 1790.75,-2075.05 1790.65,-2076.87 1790.38,-2078.71 1789.95,-2080.55 1789.36,-2082.4 1788.63,-2084.24 1787.76,-2086.08 1786.76,-2087.9 1785.63,-2089.7 1784.38,-2091.49 1783.02,-2093.24 1781.55,-2094.96 1779.99,-2096.65 1778.35,-2098.29 1776.62,-2099.89 1774.82,-2101.44 1772.95,-2102.93 1771.02,-2104.37 1769.03,-2105.74 1767,-2107.04 1764.93,-2108.28 1762.82,-2109.44 1760.67,-2110.52 1758.5,-2111.53 1756.3,-2112.45 1754.09,-2113.29 1751.85,-2114.04 1749.61,-2114.7 1747.35,-2115.27 1745.08,-2115.75 1742.8,-2116.13 1740.52,-2116.42 1738.23,-2116.61 1735.94,-2116.71 1733.65,-2116.71 1731.36,-2116.61 1729.08,-2116.42 1726.8,-2116.13 1724.52,-2115.75 1722.25,-2115.27 1719.99,-2114.7 1717.74,-2114.04 1715.51,-2113.29 1713.29,-2112.45 1711.09,-2111.53 1708.92,-2110.52 1706.78,-2109.44 1704.67,-2108.28 1702.59,-2107.04 1700.56,-2105.74 1698.58,-2104.37 1696.65,-2102.93 1694.78,-2101.44 1692.98,-2099.89 1691.25,-2098.29 1689.6,-2096.65 1688.04,-2094.96 1686.58,-2093.24 1685.22,-2091.49 1683.97,-2089.7 1682.84,-2087.9 1681.83,-2086.08 1680.96,-2084.24 1680.23,-2082.4 1679.65,-2080.55 1679.22,-2078.71 1678.95,-2076.87 1678.84,-2075.05 1678.9,-2073.25 1679.14,-2071.46 1679.56,-2069.71 1680.15,-2067.99 1680.93,-2066.3 1681.89,-2064.66 1683.04,-2063.06 1684.36,-2061.51 1685.87,-2060.02 1687.56,-2058.58 1689.42,-2057.21 1691.45,-2055.91 1693.65,-2054.67 1696,-2053.51 1698.51,-2052.43 1701.15,-2051.42 1703.93,-2050.5 1706.84,-2049.66 1709.85,-2048.91 1712.97,-2048.25 1716.17,-2047.68 1719.45,-2047.2 1722.8,-2046.82 1726.19,-2046.53 1729.62,-2046.34 1733.07,-2046.24 1736.53,-2046.24 1739.97,-2046.34"/>
<text text-anchor="start" x="1705.63" y="-2091.28" font-family="Times,serif" font-size="14.00">C0019638</text>
<text text-anchor="start" x="1708.74" y="-2077.28" font-family="Times,serif" font-size="14.00">histology</text>
<text text-anchor="start" x="1725.85" y="-2063.28" font-family="Times,serif" font-size="14.00">5:5</text>
</g>
<!-- id_28087131_DOT_11 -->
<g id="node11" class="node">
<title>id_28087131_DOT_11</title>
<polygon fill="cadetblue" stroke="cadetblue" points="2055.45,-1773.91 2060.17,-1774.1 2064.85,-1774.39 2069.45,-1774.77 2073.98,-1775.25 2078.39,-1775.82 2082.69,-1776.48 2086.84,-1777.23 2090.84,-1778.07 2094.67,-1778.99 2098.32,-1780 2101.77,-1781.08 2105.02,-1782.25 2108.04,-1783.48 2110.84,-1784.79 2113.41,-1786.16 2115.73,-1787.59 2117.81,-1789.08 2119.64,-1790.63 2121.22,-1792.23 2122.54,-1793.87 2123.62,-1795.56 2124.44,-1797.28 2125.01,-1799.04 2125.34,-1800.82 2125.43,-1802.62 2125.28,-1804.45 2124.91,-1806.28 2124.31,-1808.13 2123.51,-1809.97 2122.5,-1811.81 2121.3,-1813.65 2119.92,-1815.47 2118.36,-1817.28 2116.64,-1819.06 2114.76,-1820.81 2112.75,-1822.54 2110.6,-1824.22 2108.33,-1825.87 2105.95,-1827.46 2103.46,-1829.01 2100.89,-1830.51 2098.23,-1831.94 2095.49,-1833.31 2092.69,-1834.62 2089.84,-1835.85 2086.93,-1837.01 2083.97,-1838.1 2080.98,-1839.1 2077.95,-1840.02 2074.9,-1840.86 2071.82,-1841.61 2068.72,-1842.27 2065.6,-1842.84 2062.48,-1843.32 2059.34,-1843.71 2056.19,-1843.99 2053.04,-1844.19 2049.89,-1844.28 2046.73,-1844.28 2043.58,-1844.19 2040.43,-1843.99 2037.28,-1843.71 2034.14,-1843.32 2031.02,-1842.84 2027.9,-1842.27 2024.8,-1841.61 2021.72,-1840.86 2018.67,-1840.02 2015.64,-1839.1 2012.65,-1838.1 2009.69,-1837.01 2006.79,-1835.85 2003.93,-1834.62 2001.13,-1833.31 1998.39,-1831.94 1995.73,-1830.51 1993.16,-1829.01 1990.68,-1827.46 1988.29,-1825.87 1986.02,-1824.22 1983.87,-1822.54 1981.86,-1820.81 1979.98,-1819.06 1978.26,-1817.28 1976.7,-1815.47 1975.32,-1813.65 1974.12,-1811.81 1973.11,-1809.97 1972.31,-1808.13 1971.71,-1806.28 1971.34,-1804.45 1971.19,-1802.62 1971.28,-1800.82 1971.61,-1799.04 1972.18,-1797.28 1973,-1795.56 1974.08,-1793.87 1975.4,-1792.23 1976.98,-1790.63 1978.81,-1789.08 1980.89,-1787.59 1983.21,-1786.16 1985.78,-1784.79 1988.58,-1783.48 1991.6,-1782.25 1994.85,-1781.08 1998.3,-1780 2001.95,-1778.99 2005.78,-1778.07 2009.78,-1777.23 2013.93,-1776.48 2018.23,-1775.82 2022.64,-1775.25 2027.17,-1774.77 2031.77,-1774.39 2036.45,-1774.1 2041.17,-1773.91 2045.93,-1773.81 2050.69,-1773.81 2055.45,-1773.91"/>
<text text-anchor="start" x="2019.14" y="-1818.85" font-family="Times,serif" font-size="14.00">C1522486</text>
<text text-anchor="start" x="2005.14" y="-1804.85" font-family="Times,serif" font-size="14.00">uropathologists</text>
<text text-anchor="start" x="2032.37" y="-1790.85" font-family="Times,serif" font-size="14.00">77:77</text>
</g>
<!-- id_28087131_DOT_1&#45;&#45;id_28087131_DOT_11 -->
<g id="edge10" class="edge">
<title>id_28087131_DOT_1&#45;&#45;id_28087131_DOT_11</title>
<path fill="none" stroke="black" stroke-dasharray="1,5" d="M1769.25,-2051.54C1829.53,-1999.16 1953.48,-1891.45 2013.81,-1839.03"/>
<text text-anchor="middle" x="1865.28" y="-1948.09" font-family="Times,serif" font-size="14.00">0.699303</text>
</g>
<!-- id_28087131_DOT_18 -->
<g id="node18" class="node">
<title>id_28087131_DOT_18</title>
<polygon fill="darkkhaki" stroke="darkkhaki" points="1416.93,-2335.21 1421.48,-2335.4 1425.98,-2335.69 1430.41,-2336.08 1434.76,-2336.55 1439.02,-2337.12 1443.15,-2337.78 1447.15,-2338.53 1451,-2339.37 1454.68,-2340.3 1458.2,-2341.3 1461.52,-2342.38 1464.64,-2343.55 1467.55,-2344.78 1470.25,-2346.09 1472.72,-2347.46 1474.95,-2348.89 1476.95,-2350.38 1478.71,-2351.93 1480.23,-2353.53 1481.51,-2355.17 1482.54,-2356.86 1483.33,-2358.58 1483.88,-2360.34 1484.2,-2362.12 1484.28,-2363.93 1484.14,-2365.75 1483.78,-2367.58 1483.21,-2369.43 1482.44,-2371.27 1481.47,-2373.11 1480.31,-2374.95 1478.98,-2376.77 1477.48,-2378.58 1475.82,-2380.36 1474.02,-2382.11 1472.08,-2383.84 1470.01,-2385.52 1467.82,-2387.17 1465.53,-2388.77 1463.14,-2390.31 1460.66,-2391.81 1458.1,-2393.24 1455.47,-2394.61 1452.78,-2395.92 1450.03,-2397.15 1447.23,-2398.31 1444.38,-2399.4 1441.5,-2400.4 1438.59,-2401.32 1435.65,-2402.16 1432.69,-2402.91 1429.7,-2403.57 1426.71,-2404.14 1423.7,-2404.62 1420.68,-2405.01 1417.65,-2405.29 1414.62,-2405.49 1411.58,-2405.58 1408.55,-2405.58 1405.51,-2405.49 1402.48,-2405.29 1399.45,-2405.01 1396.43,-2404.62 1393.42,-2404.14 1390.42,-2403.57 1387.44,-2402.91 1384.48,-2402.16 1381.54,-2401.32 1378.62,-2400.4 1375.74,-2399.4 1372.9,-2398.31 1370.1,-2397.15 1367.35,-2395.92 1364.65,-2394.61 1362.02,-2393.24 1359.47,-2391.81 1356.99,-2390.31 1354.6,-2388.77 1352.3,-2387.17 1350.12,-2385.52 1348.05,-2383.84 1346.11,-2382.11 1344.31,-2380.36 1342.65,-2378.58 1341.15,-2376.77 1339.82,-2374.95 1338.66,-2373.11 1337.69,-2371.27 1336.92,-2369.43 1336.35,-2367.58 1335.99,-2365.75 1335.85,-2363.93 1335.93,-2362.12 1336.25,-2360.34 1336.8,-2358.58 1337.59,-2356.86 1338.62,-2355.17 1339.9,-2353.53 1341.41,-2351.93 1343.17,-2350.38 1345.18,-2348.89 1347.41,-2347.46 1349.88,-2346.09 1352.58,-2344.78 1355.49,-2343.55 1358.61,-2342.38 1361.93,-2341.3 1365.44,-2340.3 1369.13,-2339.37 1372.98,-2338.53 1376.98,-2337.78 1381.11,-2337.12 1385.36,-2336.55 1389.71,-2336.08 1394.15,-2335.69 1398.65,-2335.4 1403.2,-2335.21 1407.77,-2335.11 1412.36,-2335.11 1416.93,-2335.21"/>
<text text-anchor="start" x="1380.9" y="-2380.15" font-family="Times,serif" font-size="14.00">C3472608</text>
<text text-anchor="start" x="1368.86" y="-2366.15" font-family="Times,serif" font-size="14.00">micropapillary</text>
<text text-anchor="start" x="1387.12" y="-2352.15" font-family="Times,serif" font-size="14.00">176:176</text>
</g>
<!-- id_28087131_DOT_1&#45;&#45;id_28087131_DOT_18 -->
<g id="edge11" class="edge">
<title>id_28087131_DOT_1&#45;&#45;id_28087131_DOT_18</title>
<path fill="none" stroke="black" stroke-dasharray="1,5" d="M1704.54,-2108.39C1644.55,-2161.76 1510.78,-2280.76 1446.25,-2338.16"/>
<text text-anchor="middle" x="1549.14" y="-2226.08" font-family="Times,serif" font-size="14.00">0.798659</text>
</g>
<!-- id_28087131_DOT_2 -->
<g id="node2" class="node">
<title>id_28087131_DOT_2</title>
<polygon fill="bisque" stroke="bisque" points="2499.12,-384.86 2503.63,-385.06 2508.09,-385.34 2512.49,-385.73 2516.8,-386.21 2521.02,-386.78 2525.11,-387.44 2529.08,-388.19 2532.9,-389.03 2536.55,-389.95 2540.03,-390.95 2543.33,-392.04 2546.42,-393.2 2549.31,-394.43 2551.98,-395.74 2554.43,-397.11 2556.65,-398.54 2558.63,-400.04 2560.38,-401.58 2561.89,-403.18 2563.15,-404.83 2564.17,-406.51 2564.96,-408.24 2565.5,-409.99 2565.82,-411.77 2565.9,-413.58 2565.76,-415.4 2565.4,-417.24 2564.84,-419.08 2564.07,-420.92 2563.11,-422.77 2561.96,-424.6 2560.64,-426.42 2559.16,-428.23 2557.51,-430.01 2555.72,-431.77 2553.8,-433.49 2551.75,-435.18 2549.58,-436.82 2547.31,-438.42 2544.94,-439.97 2542.48,-441.46 2539.94,-442.89 2537.34,-444.26 2534.66,-445.57 2531.94,-446.8 2529.16,-447.96 2526.34,-449.05 2523.48,-450.05 2520.6,-450.98 2517.68,-451.82 2514.74,-452.57 2511.79,-453.23 2508.81,-453.8 2505.83,-454.27 2502.83,-454.66 2499.83,-454.95 2496.83,-455.14 2493.82,-455.24 2490.81,-455.24 2487.8,-455.14 2484.79,-454.95 2481.79,-454.66 2478.79,-454.27 2475.81,-453.8 2472.84,-453.23 2469.88,-452.57 2466.94,-451.82 2464.03,-450.98 2461.14,-450.05 2458.28,-449.05 2455.46,-447.96 2452.68,-446.8 2449.96,-445.57 2447.29,-444.26 2444.68,-442.89 2442.14,-441.46 2439.68,-439.97 2437.31,-438.42 2435.04,-436.82 2432.87,-435.18 2430.82,-433.49 2428.9,-431.77 2427.11,-430.01 2425.47,-428.23 2423.98,-426.42 2422.66,-424.6 2421.51,-422.77 2420.55,-420.92 2419.78,-419.08 2419.22,-417.24 2418.86,-415.4 2418.72,-413.58 2418.81,-411.77 2419.12,-409.99 2419.67,-408.24 2420.45,-406.51 2421.47,-404.83 2422.74,-403.18 2424.24,-401.58 2425.99,-400.04 2427.97,-398.54 2430.19,-397.11 2432.64,-395.74 2435.31,-394.43 2438.2,-393.2 2441.29,-392.04 2444.59,-390.95 2448.07,-389.95 2451.72,-389.03 2455.54,-388.19 2459.51,-387.44 2463.6,-386.78 2467.82,-386.21 2472.13,-385.73 2476.53,-385.34 2480.99,-385.06 2485.5,-384.86 2490.04,-384.77 2494.58,-384.77 2499.12,-384.86"/>
<text text-anchor="start" x="2463.14" y="-429.8" font-family="Times,serif" font-size="14.00">C0005684</text>
<text text-anchor="start" x="2451.31" y="-415.8" font-family="Times,serif" font-size="14.00">bladder cancer</text>
<text text-anchor="start" x="2476.37" y="-401.8" font-family="Times,serif" font-size="14.00">12:13</text>
</g>
<!-- id_28087131_DOT_5 -->
<g id="node5" class="node">
<title>id_28087131_DOT_5</title>
<polygon fill="bisque" stroke="bisque" points="2540.53,-786.06 2545.04,-786.25 2549.5,-786.54 2553.89,-786.92 2558.21,-787.4 2562.42,-787.97 2566.52,-788.63 2570.49,-789.38 2574.3,-790.22 2577.96,-791.14 2581.44,-792.15 2584.74,-793.23 2587.83,-794.39 2590.72,-795.63 2593.39,-796.93 2595.84,-798.3 2598.06,-799.74 2600.04,-801.23 2601.79,-802.78 2603.29,-804.38 2604.56,-806.02 2605.58,-807.71 2606.36,-809.43 2606.91,-811.19 2607.22,-812.97 2607.31,-814.77 2607.17,-816.6 2606.81,-818.43 2606.25,-820.27 2605.48,-822.12 2604.52,-823.96 2603.37,-825.8 2602.05,-827.62 2600.56,-829.42 2598.92,-831.21 2597.13,-832.96 2595.21,-834.68 2593.16,-836.37 2590.99,-838.01 2588.72,-839.61 2586.35,-841.16 2583.89,-842.65 2581.35,-844.09 2578.74,-845.46 2576.07,-846.76 2573.34,-848 2570.57,-849.16 2567.75,-850.24 2564.89,-851.25 2562,-852.17 2559.09,-853.01 2556.15,-853.76 2553.19,-854.42 2550.22,-854.99 2547.24,-855.47 2544.24,-855.85 2541.24,-856.14 2538.23,-856.33 2535.22,-856.43 2532.21,-856.43 2529.2,-856.33 2526.2,-856.14 2523.19,-855.85 2520.2,-855.47 2517.21,-854.99 2514.24,-854.42 2511.29,-853.76 2508.35,-853.01 2505.43,-852.17 2502.54,-851.25 2499.69,-850.24 2496.87,-849.16 2494.09,-848 2491.36,-846.76 2488.69,-845.46 2486.08,-844.09 2483.55,-842.65 2481.09,-841.16 2478.72,-839.61 2476.45,-838.01 2474.28,-836.37 2472.23,-834.68 2470.3,-832.96 2468.51,-831.21 2466.87,-829.42 2465.39,-827.62 2464.06,-825.8 2462.92,-823.96 2461.96,-822.12 2461.19,-820.27 2460.62,-818.43 2460.27,-816.6 2460.13,-814.77 2460.21,-812.97 2460.53,-811.19 2461.07,-809.43 2461.86,-807.71 2462.88,-806.02 2464.14,-804.38 2465.65,-802.78 2467.39,-801.23 2469.38,-799.74 2471.6,-798.3 2474.04,-796.93 2476.72,-795.63 2479.6,-794.39 2482.7,-793.23 2485.99,-792.15 2489.47,-791.14 2493.13,-790.22 2496.95,-789.38 2500.91,-788.63 2505.01,-787.97 2509.23,-787.4 2513.54,-786.92 2517.94,-786.54 2522.4,-786.25 2526.91,-786.06 2531.44,-785.96 2535.99,-785.96 2540.53,-786.06"/>
<text text-anchor="start" x="2504.55" y="-831" font-family="Times,serif" font-size="14.00">C0005684</text>
<text text-anchor="start" x="2492.72" y="-817" font-family="Times,serif" font-size="14.00">bladder cancer</text>
<text text-anchor="start" x="2517.77" y="-803" font-family="Times,serif" font-size="14.00">31:32</text>
</g>
<!-- id_28087131_DOT_2&#45;&#45;id_28087131_DOT_5 -->
<g id="edge1" class="edge">
<title>id_28087131_DOT_2&#45;&#45;id_28087131_DOT_5</title>
<path fill="none" stroke="black" d="M2495.95,-455.25C2503.79,-531.26 2522.22,-709.82 2530.07,-785.88"/>
<text text-anchor="middle" x="2486.76" y="-623.37" font-family="Times,serif" font-size="14.00">0.000596</text>
</g>
<!-- id_28087131_DOT_7 -->
<g id="node7" class="node">
<title>id_28087131_DOT_7</title>
<polygon fill="bisque" stroke="bisque" points="2497.86,-0.23 2502.37,-0.42 2506.83,-0.71 2511.23,-1.09 2515.54,-1.57 2519.75,-2.14 2523.85,-2.8 2527.82,-3.55 2531.64,-4.39 2535.29,-5.31 2538.77,-6.32 2542.07,-7.4 2545.16,-8.57 2548.05,-9.8 2550.72,-11.1 2553.17,-12.48 2555.39,-13.91 2557.37,-15.4 2559.12,-16.95 2560.62,-18.55 2561.89,-20.19 2562.91,-21.88 2563.69,-23.6 2564.24,-25.36 2564.55,-27.14 2564.64,-28.94 2564.5,-30.77 2564.14,-32.6 2563.58,-34.44 2562.81,-36.29 2561.85,-38.13 2560.7,-39.97 2559.38,-41.79 2557.89,-43.6 2556.25,-45.38 2554.46,-47.13 2552.54,-48.86 2550.49,-50.54 2548.32,-52.19 2546.05,-53.78 2543.68,-55.33 2541.22,-56.82 2538.68,-58.26 2536.07,-59.63 2533.4,-60.94 2530.67,-62.17 2527.9,-63.33 2525.08,-64.42 2522.22,-65.42 2519.33,-66.34 2516.42,-67.18 2513.48,-67.93 2510.52,-68.59 2507.55,-69.16 2504.57,-69.64 2501.57,-70.02 2498.57,-70.31 2495.56,-70.51 2492.55,-70.6 2489.54,-70.6 2486.53,-70.51 2483.53,-70.31 2480.53,-70.02 2477.53,-69.64 2474.55,-69.16 2471.57,-68.59 2468.62,-67.93 2465.68,-67.18 2462.76,-66.34 2459.88,-65.42 2457.02,-64.42 2454.2,-63.33 2451.42,-62.17 2448.7,-60.94 2446.02,-59.63 2443.41,-58.26 2440.88,-56.82 2438.42,-55.33 2436.05,-53.78 2433.78,-52.19 2431.61,-50.54 2429.56,-48.86 2427.63,-47.13 2425.85,-45.38 2424.2,-43.6 2422.72,-41.79 2421.4,-39.97 2420.25,-38.13 2419.29,-36.29 2418.52,-34.44 2417.95,-32.6 2417.6,-30.77 2417.46,-28.94 2417.54,-27.14 2417.86,-25.36 2418.4,-23.6 2419.19,-21.88 2420.21,-20.19 2421.47,-18.55 2422.98,-16.95 2424.73,-15.4 2426.71,-13.91 2428.93,-12.48 2431.37,-11.1 2434.05,-9.8 2436.93,-8.57 2440.03,-7.4 2443.32,-6.32 2446.81,-5.31 2450.46,-4.39 2454.28,-3.55 2458.24,-2.8 2462.34,-2.14 2466.56,-1.57 2470.87,-1.09 2475.27,-0.71 2479.73,-0.42 2484.24,-0.23 2488.78,-0.13 2493.32,-0.13 2497.86,-0.23"/>
<text text-anchor="start" x="2461.88" y="-45.17" font-family="Times,serif" font-size="14.00">C0005684</text>
<text text-anchor="start" x="2450.05" y="-31.17" font-family="Times,serif" font-size="14.00">bladder cancer</text>
<text text-anchor="start" x="2475.1" y="-17.17" font-family="Times,serif" font-size="14.00">53:54</text>
</g>
<!-- id_28087131_DOT_2&#45;&#45;id_28087131_DOT_7 -->
<g id="edge2" class="edge">
<title>id_28087131_DOT_2&#45;&#45;id_28087131_DOT_7</title>
<path fill="none" stroke="black" d="M2492.19,-384.51C2491.95,-311.23 2491.4,-143.98 2491.16,-70.78"/>
<text text-anchor="middle" x="2465.43" y="-230.44" font-family="Times,serif" font-size="14.00">0.000474</text>
</g>
<!-- id_28087131_DOT_3 -->
<g id="node3" class="node">
<title>id_28087131_DOT_3</title>
<polygon fill="blue" stroke="blue" points="3279.45,-889.52 3285.04,-889.71 3290.58,-890 3296.03,-890.39 3301.38,-890.86 3306.6,-891.43 3311.69,-892.1 3316.6,-892.85 3321.34,-893.68 3325.87,-894.61 3330.19,-895.61 3334.27,-896.7 3338.11,-897.86 3341.69,-899.09 3345,-900.4 3348.04,-901.77 3350.79,-903.2 3353.25,-904.7 3355.41,-906.24 3357.28,-907.84 3358.85,-909.49 3360.12,-911.17 3361.09,-912.89 3361.76,-914.65 3362.15,-916.43 3362.26,-918.24 3362.08,-920.06 3361.64,-921.89 3360.94,-923.74 3359.99,-925.58 3358.8,-927.42 3357.38,-929.26 3355.74,-931.08 3353.9,-932.89 3351.86,-934.67 3349.64,-936.43 3347.25,-938.15 3344.71,-939.83 3342.02,-941.48 3339.21,-943.08 3336.27,-944.62 3333.22,-946.12 3330.07,-947.55 3326.84,-948.92 3323.53,-950.23 3320.14,-951.46 3316.7,-952.62 3313.21,-953.71 3309.66,-954.71 3306.08,-955.64 3302.47,-956.47 3298.82,-957.22 3295.16,-957.89 3291.47,-958.46 3287.77,-958.93 3284.06,-959.32 3280.34,-959.61 3276.61,-959.8 3272.88,-959.89 3269.14,-959.89 3265.41,-959.8 3261.68,-959.61 3257.96,-959.32 3254.25,-958.93 3250.55,-958.46 3246.86,-957.89 3243.2,-957.22 3239.55,-956.47 3235.94,-955.64 3232.36,-954.71 3228.81,-953.71 3225.32,-952.62 3221.88,-951.46 3218.49,-950.23 3215.18,-948.92 3211.95,-947.55 3208.8,-946.12 3205.75,-944.62 3202.81,-943.08 3200,-941.48 3197.31,-939.83 3194.77,-938.15 3192.38,-936.43 3190.16,-934.67 3188.13,-932.89 3186.28,-931.08 3184.64,-929.26 3183.22,-927.42 3182.03,-925.58 3181.08,-923.74 3180.38,-921.89 3179.94,-920.06 3179.76,-918.24 3179.87,-916.43 3180.26,-914.65 3180.93,-912.89 3181.91,-911.17 3183.17,-909.49 3184.74,-907.84 3186.61,-906.24 3188.77,-904.7 3191.23,-903.2 3193.98,-901.77 3197.02,-900.4 3200.33,-899.09 3203.91,-897.86 3207.75,-896.7 3211.83,-895.61 3216.15,-894.61 3220.68,-893.68 3225.42,-892.85 3230.33,-892.1 3235.42,-891.43 3240.64,-890.86 3245.99,-890.39 3251.44,-890 3256.98,-889.71 3262.57,-889.52 3268.19,-889.42 3273.83,-889.42 3279.45,-889.52"/>
<text text-anchor="start" x="3241.84" y="-934.46" font-family="Times,serif" font-size="14.00">C0194401</text>
<text text-anchor="start" x="3218.34" y="-920.46" font-family="Times,serif" font-size="14.00">radical cystectomy</text>
<text text-anchor="start" x="3255.07" y="-906.46" font-family="Times,serif" font-size="14.00">16:17</text>
</g>
<!-- id_28087131_DOT_4 -->
<g id="node4" class="node">
<title>id_28087131_DOT_4</title>
<polygon fill="blue" stroke="blue" points="3087.82,-1239.24 3093.41,-1239.44 3098.94,-1239.72 3104.39,-1240.11 3109.74,-1240.59 3114.97,-1241.16 3120.05,-1241.82 3124.97,-1242.57 3129.7,-1243.41 3134.23,-1244.33 3138.55,-1245.33 3142.63,-1246.42 3146.47,-1247.58 3150.05,-1248.81 3153.37,-1250.12 3156.4,-1251.49 3159.15,-1252.92 3161.61,-1254.42 3163.78,-1255.96 3165.64,-1257.56 3167.21,-1259.21 3168.48,-1260.89 3169.45,-1262.62 3170.13,-1264.37 3170.52,-1266.15 3170.62,-1267.96 3170.45,-1269.78 3170.01,-1271.62 3169.31,-1273.46 3168.35,-1275.3 3167.16,-1277.15 3165.74,-1278.98 3164.1,-1280.8 3162.26,-1282.61 3160.22,-1284.39 3158.01,-1286.15 3155.62,-1287.87 3153.08,-1289.56 3150.39,-1291.2 3147.57,-1292.8 3144.63,-1294.35 3141.58,-1295.84 3138.44,-1297.27 3135.2,-1298.64 3131.89,-1299.95 3128.51,-1301.18 3125.07,-1302.34 3121.57,-1303.43 3118.03,-1304.43 3114.45,-1305.36 3110.83,-1306.2 3107.19,-1306.95 3103.52,-1307.61 3099.84,-1308.18 3096.14,-1308.65 3092.42,-1309.04 3088.7,-1309.33 3084.97,-1309.52 3081.24,-1309.62 3077.51,-1309.62 3073.78,-1309.52 3070.05,-1309.33 3066.33,-1309.04 3062.61,-1308.65 3058.91,-1308.18 3055.23,-1307.61 3051.56,-1306.95 3047.92,-1306.2 3044.3,-1305.36 3040.72,-1304.43 3037.18,-1303.43 3033.68,-1302.34 3030.24,-1301.18 3026.86,-1299.95 3023.55,-1298.64 3020.31,-1297.27 3017.17,-1295.84 3014.12,-1294.35 3011.18,-1292.8 3008.36,-1291.2 3005.67,-1289.56 3003.13,-1287.87 3000.74,-1286.15 2998.53,-1284.39 2996.49,-1282.61 2994.65,-1280.8 2993.01,-1278.98 2991.59,-1277.15 2990.4,-1275.3 2989.44,-1273.46 2988.74,-1271.62 2988.3,-1269.78 2988.13,-1267.96 2988.23,-1266.15 2988.62,-1264.37 2989.3,-1262.62 2990.27,-1260.89 2991.54,-1259.21 2993.11,-1257.56 2994.97,-1255.96 2997.14,-1254.42 2999.6,-1252.92 3002.35,-1251.49 3005.38,-1250.12 3008.69,-1248.81 3012.28,-1247.58 3016.11,-1246.42 3020.2,-1245.33 3024.52,-1244.33 3029.05,-1243.41 3033.78,-1242.57 3038.7,-1241.82 3043.78,-1241.16 3049.01,-1240.59 3054.36,-1240.11 3059.81,-1239.72 3065.34,-1239.44 3070.93,-1239.24 3076.56,-1239.15 3082.19,-1239.15 3087.82,-1239.24"/>
<text text-anchor="start" x="3050.21" y="-1284.18" font-family="Times,serif" font-size="14.00">C0194401</text>
<text text-anchor="start" x="3026.7" y="-1270.18" font-family="Times,serif" font-size="14.00">radical cystectomy</text>
<text text-anchor="start" x="3063.43" y="-1256.18" font-family="Times,serif" font-size="14.00">27:28</text>
</g>
<!-- id_28087131_DOT_3&#45;&#45;id_28087131_DOT_4 -->
<g id="edge3" class="edge">
<title>id_28087131_DOT_3&#45;&#45;id_28087131_DOT_4</title>
<path fill="none" stroke="black" d="M3252.29,-958.83C3215.74,-1025.52 3135.29,-1172.35 3098.46,-1239.55"/>
<text text-anchor="middle" x="3149.38" y="-1101.99" font-family="Times,serif" font-size="14.00">0.001199</text>
</g>
<!-- id_28087131_DOT_8 -->
<g id="node8" class="node">
<title>id_28087131_DOT_8</title>
<polygon fill="blue" stroke="blue" points="3471.23,-1391.89 3476.82,-1392.08 3482.36,-1392.37 3487.81,-1392.75 3493.16,-1393.23 3498.38,-1393.8 3503.47,-1394.46 3508.38,-1395.21 3513.12,-1396.05 3517.65,-1396.97 3521.97,-1397.98 3526.05,-1399.06 3529.89,-1400.22 3533.47,-1401.46 3536.78,-1402.76 3539.82,-1404.14 3542.57,-1405.57 3545.03,-1407.06 3547.19,-1408.61 3549.06,-1410.21 3550.63,-1411.85 3551.9,-1413.54 3552.87,-1415.26 3553.54,-1417.02 3553.93,-1418.8 3554.04,-1420.6 3553.86,-1422.43 3553.42,-1424.26 3552.72,-1426.1 3551.77,-1427.95 3550.58,-1429.79 3549.16,-1431.63 3547.52,-1433.45 3545.68,-1435.26 3543.64,-1437.04 3541.42,-1438.79 3539.03,-1440.52 3536.49,-1442.2 3533.81,-1443.85 3530.99,-1445.44 3528.05,-1446.99 3525,-1448.48 3521.85,-1449.92 3518.62,-1451.29 3515.31,-1452.59 3511.92,-1453.83 3508.48,-1454.99 3504.99,-1456.08 3501.44,-1457.08 3497.86,-1458 3494.25,-1458.84 3490.6,-1459.59 3486.94,-1460.25 3483.25,-1460.82 3479.55,-1461.3 3475.84,-1461.68 3472.12,-1461.97 3468.39,-1462.17 3464.66,-1462.26 3460.92,-1462.26 3457.19,-1462.17 3453.46,-1461.97 3449.74,-1461.68 3446.03,-1461.3 3442.33,-1460.82 3438.64,-1460.25 3434.98,-1459.59 3431.33,-1458.84 3427.72,-1458 3424.14,-1457.08 3420.6,-1456.08 3417.1,-1454.99 3413.66,-1453.83 3410.27,-1452.59 3406.96,-1451.29 3403.73,-1449.92 3400.58,-1448.48 3397.53,-1446.99 3394.59,-1445.44 3391.78,-1443.85 3389.09,-1442.2 3386.55,-1440.52 3384.16,-1438.79 3381.94,-1437.04 3379.91,-1435.26 3378.06,-1433.45 3376.42,-1431.63 3375,-1429.79 3373.81,-1427.95 3372.86,-1426.1 3372.16,-1424.26 3371.72,-1422.43 3371.54,-1420.6 3371.65,-1418.8 3372.04,-1417.02 3372.71,-1415.26 3373.69,-1413.54 3374.95,-1411.85 3376.52,-1410.21 3378.39,-1408.61 3380.55,-1407.06 3383.01,-1405.57 3385.76,-1404.14 3388.8,-1402.76 3392.11,-1401.46 3395.69,-1400.22 3399.53,-1399.06 3403.61,-1397.98 3407.93,-1396.97 3412.46,-1396.05 3417.2,-1395.21 3422.12,-1394.46 3427.2,-1393.8 3432.42,-1393.23 3437.77,-1392.75 3443.22,-1392.37 3448.76,-1392.08 3454.35,-1391.89 3459.97,-1391.79 3465.61,-1391.79 3471.23,-1391.89"/>
<text text-anchor="start" x="3433.62" y="-1436.83" font-family="Times,serif" font-size="14.00">C0194401</text>
<text text-anchor="start" x="3410.12" y="-1422.83" font-family="Times,serif" font-size="14.00">radical cystectomy</text>
<text text-anchor="start" x="3446.85" y="-1408.83" font-family="Times,serif" font-size="14.00">57:58</text>
</g>
<!-- id_28087131_DOT_4&#45;&#45;id_28087131_DOT_8 -->
<g id="edge4" class="edge">
<title>id_28087131_DOT_4&#45;&#45;id_28087131_DOT_8</title>
<path fill="none" stroke="black" d="M3138.02,-1297.73C3207.36,-1325.33 3322.5,-1371.18 3395.43,-1400.21"/>
<text text-anchor="middle" x="3240.48" y="-1351.77" font-family="Times,serif" font-size="14.00">0.001731</text>
</g>
<!-- id_28087131_DOT_13 -->
<g id="node13" class="node">
<title>id_28087131_DOT_13</title>
<polygon fill="coral" stroke="coral" points="2661.57,-1202.51 2670.05,-1202.7 2678.44,-1202.99 2686.71,-1203.37 2694.82,-1203.85 2702.75,-1204.42 2710.45,-1205.08 2717.91,-1205.83 2725.09,-1206.67 2731.97,-1207.59 2738.51,-1208.6 2744.71,-1209.68 2750.53,-1210.84 2755.96,-1212.08 2760.99,-1213.38 2765.59,-1214.75 2769.76,-1216.19 2773.49,-1217.68 2776.77,-1219.23 2779.6,-1220.83 2781.98,-1222.47 2783.91,-1224.16 2785.38,-1225.88 2786.41,-1227.63 2787,-1229.42 2787.15,-1231.22 2786.89,-1233.04 2786.22,-1234.88 2785.16,-1236.72 2783.72,-1238.57 2781.91,-1240.41 2779.75,-1242.25 2777.27,-1244.07 2774.47,-1245.87 2771.38,-1247.66 2768.02,-1249.41 2764.4,-1251.13 2760.54,-1252.82 2756.47,-1254.46 2752.19,-1256.06 2747.74,-1257.61 2743.11,-1259.1 2738.34,-1260.54 2733.44,-1261.91 2728.41,-1263.21 2723.28,-1264.45 2718.06,-1265.61 2712.76,-1266.69 2707.39,-1267.7 2701.95,-1268.62 2696.47,-1269.46 2690.95,-1270.21 2685.39,-1270.87 2679.8,-1271.44 2674.18,-1271.92 2668.55,-1272.3 2662.91,-1272.59 2657.25,-1272.78 2651.59,-1272.88 2645.93,-1272.88 2640.27,-1272.78 2634.62,-1272.59 2628.97,-1272.3 2623.34,-1271.92 2617.73,-1271.44 2612.14,-1270.87 2606.58,-1270.21 2601.05,-1269.46 2595.57,-1268.62 2590.14,-1267.7 2584.76,-1266.69 2579.46,-1265.61 2574.24,-1264.45 2569.11,-1263.21 2564.09,-1261.91 2559.18,-1260.54 2554.41,-1259.1 2549.79,-1257.61 2545.33,-1256.06 2541.05,-1254.46 2536.98,-1252.82 2533.12,-1251.13 2529.5,-1249.41 2526.14,-1247.66 2523.05,-1245.87 2520.26,-1244.07 2517.77,-1242.25 2515.62,-1240.41 2513.81,-1238.57 2512.36,-1236.72 2511.3,-1234.88 2510.63,-1233.04 2510.37,-1231.22 2510.53,-1229.42 2511.12,-1227.63 2512.14,-1225.88 2513.62,-1224.16 2515.54,-1222.47 2517.92,-1220.83 2520.75,-1219.23 2524.03,-1217.68 2527.76,-1216.19 2531.93,-1214.75 2536.54,-1213.38 2541.56,-1212.08 2546.99,-1210.84 2552.82,-1209.68 2559.01,-1208.6 2565.56,-1207.59 2572.43,-1206.67 2579.61,-1205.83 2587.07,-1205.08 2594.78,-1204.42 2602.7,-1203.85 2610.82,-1203.37 2619.09,-1202.99 2627.48,-1202.7 2635.96,-1202.51 2644.49,-1202.41 2653.04,-1202.41 2661.57,-1202.51"/>
<text text-anchor="start" x="2619.59" y="-1247.45" font-family="Times,serif" font-size="14.00">C0751571</text>
<text text-anchor="start" x="2565" y="-1233.45" font-family="Times,serif" font-size="14.00">pure urothelial bladder cancer</text>
<text text-anchor="start" x="2625.82" y="-1219.45" font-family="Times,serif" font-size="14.00">120:123</text>
</g>
<!-- id_28087131_DOT_4&#45;&#45;id_28087131_DOT_13 -->
<g id="edge12" class="edge">
<title>id_28087131_DOT_4&#45;&#45;id_28087131_DOT_13</title>
<path fill="none" stroke="black" stroke-dasharray="1,5" d="M2988.05,-1266.59C2924.85,-1261.2 2840.03,-1253.96 2771.01,-1248.07"/>
<text text-anchor="middle" x="2853.28" y="-1260.13" font-family="Times,serif" font-size="14.00">0.771939</text>
</g>
<!-- id_28087131_DOT_5&#45;&#45;id_28087131_DOT_13 -->
<g id="edge13" class="edge">
<title>id_28087131_DOT_5&#45;&#45;id_28087131_DOT_13</title>
<path fill="none" stroke="black" stroke-dasharray="1,5" d="M2543.33,-855.99C2564.96,-934.28 2617.26,-1123.62 2639.02,-1202.37"/>
<text text-anchor="middle" x="2564.92" y="-1031.98" font-family="Times,serif" font-size="14.00">0.374297</text>
</g>
<!-- id_28087131_DOT_6 -->
<g id="node6" class="node">
<title>id_28087131_DOT_6</title>
<polygon fill="blueviolet" stroke="blueviolet" points="252.81,-3941.59 256.24,-3941.78 259.63,-3942.07 262.97,-3942.45 266.25,-3942.93 269.46,-3943.5 272.57,-3944.16 275.59,-3944.91 278.49,-3945.75 281.27,-3946.67 283.92,-3947.68 286.42,-3948.76 288.78,-3949.92 290.97,-3951.16 293.01,-3952.46 294.87,-3953.84 296.55,-3955.27 298.06,-3956.76 299.39,-3958.31 300.53,-3959.91 301.5,-3961.55 302.27,-3963.24 302.87,-3964.96 303.28,-3966.72 303.52,-3968.5 303.59,-3970.3 303.48,-3972.13 303.21,-3973.96 302.78,-3975.8 302.2,-3977.65 301.47,-3979.49 300.59,-3981.33 299.59,-3983.15 298.46,-3984.96 297.21,-3986.74 295.85,-3988.49 294.39,-3990.22 292.83,-3991.9 291.18,-3993.55 289.45,-3995.14 287.65,-3996.69 285.78,-3998.18 283.85,-3999.62 281.87,-4000.99 279.84,-4002.29 277.76,-4003.53 275.65,-4004.69 273.51,-4005.78 271.33,-4006.78 269.14,-4007.7 266.92,-4008.54 264.69,-4009.29 262.44,-4009.95 260.18,-4010.52 257.91,-4011 255.63,-4011.38 253.35,-4011.67 251.06,-4011.87 248.78,-4011.96 246.49,-4011.96 244.2,-4011.87 241.91,-4011.67 239.63,-4011.38 237.35,-4011 235.08,-4010.52 232.82,-4009.95 230.57,-4009.29 228.34,-4008.54 226.12,-4007.7 223.93,-4006.78 221.75,-4005.78 219.61,-4004.69 217.5,-4003.53 215.43,-4002.29 213.39,-4000.99 211.41,-3999.62 209.48,-3998.18 207.61,-3996.69 205.81,-3995.14 204.08,-3993.55 202.43,-3991.9 200.87,-3990.22 199.41,-3988.49 198.05,-3986.74 196.8,-3984.96 195.67,-3983.15 194.67,-3981.33 193.8,-3979.49 193.06,-3977.65 192.48,-3975.8 192.05,-3973.96 191.78,-3972.13 191.67,-3970.3 191.74,-3968.5 191.98,-3966.72 192.39,-3964.96 192.99,-3963.24 193.77,-3961.55 194.73,-3959.91 195.87,-3958.31 197.2,-3956.76 198.71,-3955.27 200.39,-3953.84 202.25,-3952.46 204.29,-3951.16 206.48,-3949.92 208.84,-3948.76 211.34,-3947.68 213.99,-3946.67 216.77,-3945.75 219.67,-3944.91 222.69,-3944.16 225.8,-3943.5 229.01,-3942.93 232.29,-3942.45 235.63,-3942.07 239.02,-3941.78 242.45,-3941.59 245.9,-3941.49 249.36,-3941.49 252.81,-3941.59"/>
<text text-anchor="start" x="218.46" y="-3986.53" font-family="Times,serif" font-size="14.00">C0220825</text>
<text text-anchor="start" x="220.81" y="-3972.53" font-family="Times,serif" font-size="14.00">evaluated</text>
<text text-anchor="start" x="231.69" y="-3958.53" font-family="Times,serif" font-size="14.00">47:47</text>
</g>
<!-- id_28087131_DOT_10 -->
<g id="node10" class="node">
<title>id_28087131_DOT_10</title>
<polygon fill="blueviolet" stroke="blueviolet" points="109.92,-4281.98 113.34,-4282.18 116.74,-4282.46 120.08,-4282.85 123.36,-4283.33 126.57,-4283.9 129.68,-4284.56 132.7,-4285.31 135.6,-4286.15 138.38,-4287.07 141.03,-4288.07 143.53,-4289.16 145.89,-4290.32 148.08,-4291.55 150.11,-4292.86 151.98,-4294.23 153.66,-4295.66 155.17,-4297.16 156.5,-4298.7 157.64,-4300.3 158.6,-4301.95 159.38,-4303.63 159.98,-4305.36 160.39,-4307.11 160.63,-4308.89 160.69,-4310.7 160.59,-4312.52 160.32,-4314.36 159.89,-4316.2 159.3,-4318.04 158.57,-4319.89 157.7,-4321.72 156.7,-4323.54 155.57,-4325.35 154.32,-4327.13 152.96,-4328.89 151.49,-4330.61 149.94,-4332.3 148.29,-4333.94 146.56,-4335.54 144.76,-4337.09 142.89,-4338.58 140.96,-4340.01 138.98,-4341.38 136.94,-4342.69 134.87,-4343.92 132.76,-4345.09 130.61,-4346.17 128.44,-4347.17 126.25,-4348.1 124.03,-4348.94 121.8,-4349.69 119.55,-4350.35 117.29,-4350.92 115.02,-4351.39 112.74,-4351.78 110.46,-4352.07 108.17,-4352.26 105.88,-4352.36 103.59,-4352.36 101.31,-4352.26 99.02,-4352.07 96.74,-4351.78 94.46,-4351.39 92.19,-4350.92 89.93,-4350.35 87.68,-4349.69 85.45,-4348.94 83.23,-4348.1 81.03,-4347.17 78.86,-4346.17 76.72,-4345.09 74.61,-4343.92 72.53,-4342.69 70.5,-4341.38 68.52,-4340.01 66.59,-4338.58 64.72,-4337.09 62.92,-4335.54 61.19,-4333.94 59.54,-4332.3 57.98,-4330.61 56.52,-4328.89 55.16,-4327.13 53.91,-4325.35 52.78,-4323.54 51.77,-4321.72 50.9,-4319.89 50.17,-4318.04 49.59,-4316.2 49.16,-4314.36 48.89,-4312.52 48.78,-4310.7 48.85,-4308.89 49.08,-4307.11 49.5,-4305.36 50.1,-4303.63 50.87,-4301.95 51.83,-4300.3 52.98,-4298.7 54.31,-4297.16 55.81,-4295.66 57.5,-4294.23 59.36,-4292.86 61.39,-4291.55 63.59,-4290.32 65.94,-4289.16 68.45,-4288.07 71.1,-4287.07 73.88,-4286.15 76.78,-4285.31 79.79,-4284.56 82.91,-4283.9 86.12,-4283.33 89.4,-4282.85 92.74,-4282.46 96.13,-4282.18 99.56,-4281.98 103.01,-4281.89 106.47,-4281.89 109.92,-4281.98"/>
<text text-anchor="start" x="75.57" y="-4326.92" font-family="Times,serif" font-size="14.00">C0220825</text>
<text text-anchor="start" x="77.92" y="-4312.92" font-family="Times,serif" font-size="14.00">evaluated</text>
<text text-anchor="start" x="88.79" y="-4298.92" font-family="Times,serif" font-size="14.00">74:74</text>
</g>
<!-- id_28087131_DOT_6&#45;&#45;id_28087131_DOT_10 -->
<g id="edge5" class="edge">
<title>id_28087131_DOT_6&#45;&#45;id_28087131_DOT_10</title>
<path fill="none" stroke="black" d="M233.54,-4010.3C206.33,-4075.12 146.8,-4216.92 119.26,-4282.54"/>
<text text-anchor="middle" x="150.15" y="-4149.22" font-family="Times,serif" font-size="14.00">0.001207</text>
</g>
<!-- id_28087131_DOT_15 -->
<g id="node15" class="node">
<title>id_28087131_DOT_15</title>
<polygon fill="crimson" stroke="crimson" points="448.71,-3621.88 453.51,-3622.08 458.27,-3622.37 462.96,-3622.75 467.56,-3623.23 472.05,-3623.8 476.41,-3624.46 480.64,-3625.21 484.71,-3626.05 488.61,-3626.97 492.32,-3627.98 495.83,-3629.06 499.13,-3630.22 502.21,-3631.46 505.05,-3632.76 507.66,-3634.13 510.03,-3635.57 512.14,-3637.06 514,-3638.61 515.61,-3640.2 516.95,-3641.85 518.04,-3643.53 518.88,-3645.26 519.46,-3647.01 519.79,-3648.8 519.88,-3650.6 519.74,-3652.42 519.36,-3654.26 518.75,-3656.1 517.94,-3657.95 516.91,-3659.79 515.69,-3661.62 514.28,-3663.45 512.7,-3665.25 510.95,-3667.03 509.04,-3668.79 506.99,-3670.51 504.8,-3672.2 502.49,-3673.84 500.07,-3675.44 497.54,-3676.99 494.93,-3678.48 492.22,-3679.91 489.44,-3681.29 486.59,-3682.59 483.69,-3683.83 480.73,-3684.99 477.72,-3686.07 474.68,-3687.08 471.6,-3688 468.49,-3688.84 465.36,-3689.59 462.21,-3690.25 459.04,-3690.82 455.86,-3691.3 452.67,-3691.68 449.47,-3691.97 446.26,-3692.16 443.06,-3692.26 439.85,-3692.26 436.64,-3692.16 433.44,-3691.97 430.24,-3691.68 427.04,-3691.3 423.86,-3690.82 420.7,-3690.25 417.54,-3689.59 414.41,-3688.84 411.31,-3688 408.23,-3687.08 405.18,-3686.07 402.18,-3684.99 399.22,-3683.83 396.31,-3682.59 393.46,-3681.29 390.68,-3679.91 387.98,-3678.48 385.36,-3676.99 382.83,-3675.44 380.41,-3673.84 378.1,-3672.2 375.92,-3670.51 373.86,-3668.79 371.96,-3667.03 370.21,-3665.25 368.62,-3663.45 367.21,-3661.62 365.99,-3659.79 364.97,-3657.95 364.15,-3656.1 363.55,-3654.26 363.17,-3652.42 363.02,-3650.6 363.11,-3648.8 363.44,-3647.01 364.03,-3645.26 364.86,-3643.53 365.95,-3641.85 367.3,-3640.2 368.9,-3638.61 370.76,-3637.06 372.88,-3635.57 375.24,-3634.13 377.85,-3632.76 380.7,-3631.46 383.78,-3630.22 387.08,-3629.06 390.59,-3627.98 394.3,-3626.97 398.19,-3626.05 402.26,-3625.21 406.49,-3624.46 410.86,-3623.8 415.35,-3623.23 419.95,-3622.75 424.63,-3622.37 429.39,-3622.08 434.19,-3621.88 439.03,-3621.79 443.87,-3621.79 448.71,-3621.88"/>
<text text-anchor="start" x="412.28" y="-3666.82" font-family="Times,serif" font-size="14.00">C0334254</text>
<text text-anchor="start" x="397.52" y="-3652.82" font-family="Times,serif" font-size="14.00">lymphoepitelial</text>
<text text-anchor="start" x="418.51" y="-3638.82" font-family="Times,serif" font-size="14.00">154:154</text>
</g>
<!-- id_28087131_DOT_6&#45;&#45;id_28087131_DOT_15 -->
<g id="edge14" class="edge">
<title>id_28087131_DOT_6&#45;&#45;id_28087131_DOT_15</title>
<path fill="none" stroke="black" stroke-dasharray="1,5" d="M268.01,-3943.12C305.23,-3881.72 383.82,-3752.09 421.06,-3690.66"/>
<text text-anchor="middle" x="318.28" y="-3819.69" font-family="Times,serif" font-size="14.00">0.875657</text>
</g>
<!-- id_28087131_DOT_24 -->
<g id="node24" class="node">
<title>id_28087131_DOT_24</title>
<polygon fill="blue" stroke="blue" points="3862.31,-1409.87 3867.9,-1410.07 3873.43,-1410.35 3878.88,-1410.74 3884.23,-1411.22 3889.46,-1411.79 3894.54,-1412.45 3899.45,-1413.2 3904.19,-1414.04 3908.72,-1414.96 3913.04,-1415.96 3917.12,-1417.05 3920.96,-1418.21 3924.54,-1419.44 3927.85,-1420.75 3930.89,-1422.12 3933.64,-1423.55 3936.1,-1425.05 3938.26,-1426.59 3940.13,-1428.19 3941.7,-1429.84 3942.97,-1431.52 3943.94,-1433.25 3944.62,-1435 3945,-1436.78 3945.11,-1438.59 3944.94,-1440.41 3944.49,-1442.25 3943.79,-1444.09 3942.84,-1445.93 3941.65,-1447.78 3940.23,-1449.61 3938.59,-1451.43 3936.75,-1453.24 3934.71,-1455.02 3932.49,-1456.78 3930.11,-1458.5 3927.56,-1460.19 3924.88,-1461.83 3922.06,-1463.43 3919.12,-1464.98 3916.07,-1466.47 3912.93,-1467.9 3909.69,-1469.27 3906.38,-1470.58 3903,-1471.81 3899.55,-1472.98 3896.06,-1474.06 3892.52,-1475.07 3888.93,-1475.99 3885.32,-1476.83 3881.68,-1477.58 3878.01,-1478.24 3874.32,-1478.81 3870.62,-1479.29 3866.91,-1479.67 3863.19,-1479.96 3859.46,-1480.15 3855.73,-1480.25 3852,-1480.25 3848.26,-1480.15 3844.54,-1479.96 3840.81,-1479.67 3837.1,-1479.29 3833.4,-1478.81 3829.71,-1478.24 3826.05,-1477.58 3822.4,-1476.83 3818.79,-1475.99 3815.21,-1475.07 3811.67,-1474.06 3808.17,-1472.98 3804.73,-1471.81 3801.35,-1470.58 3798.03,-1469.27 3794.8,-1467.9 3791.65,-1466.47 3788.6,-1464.98 3785.67,-1463.43 3782.85,-1461.83 3780.16,-1460.19 3777.62,-1458.5 3775.23,-1456.78 3773.01,-1455.02 3770.98,-1453.24 3769.13,-1451.43 3767.5,-1449.61 3766.07,-1447.78 3764.88,-1445.93 3763.93,-1444.09 3763.23,-1442.25 3762.79,-1440.41 3762.62,-1438.59 3762.72,-1436.78 3763.11,-1435 3763.79,-1433.25 3764.76,-1431.52 3766.03,-1429.84 3767.59,-1428.19 3769.46,-1426.59 3771.62,-1425.05 3774.08,-1423.55 3776.83,-1422.12 3779.87,-1420.75 3783.18,-1419.44 3786.76,-1418.21 3790.6,-1417.05 3794.69,-1415.96 3799,-1414.96 3803.54,-1414.04 3808.27,-1413.2 3813.19,-1412.45 3818.27,-1411.79 3823.49,-1411.22 3828.84,-1410.74 3834.3,-1410.35 3839.83,-1410.07 3845.42,-1409.87 3851.04,-1409.78 3856.68,-1409.78 3862.31,-1409.87"/>
<text text-anchor="start" x="3824.69" y="-1454.81" font-family="Times,serif" font-size="14.00">C0194401</text>
<text text-anchor="start" x="3801.19" y="-1440.81" font-family="Times,serif" font-size="14.00">radical cystectomy</text>
<text text-anchor="start" x="3830.92" y="-1426.81" font-family="Times,serif" font-size="14.00">331:332</text>
</g>
<!-- id_28087131_DOT_8&#45;&#45;id_28087131_DOT_24 -->
<g id="edge6" class="edge">
<title>id_28087131_DOT_8&#45;&#45;id_28087131_DOT_24</title>
<path fill="none" stroke="black" d="M3550.07,-1431.04C3613.32,-1433.95 3698.65,-1437.87 3762.77,-1440.82"/>
<text text-anchor="middle" x="3630.17" y="-1438.73" font-family="Times,serif" font-size="14.00">0.005333</text>
</g>
<!-- id_28087131_DOT_9 -->
<g id="node9" class="node">
<title>id_28087131_DOT_9</title>
<polygon fill="brown" stroke="brown" points="677.88,-3311.9 687.23,-3312.09 696.48,-3312.38 705.59,-3312.76 714.53,-3313.24 723.27,-3313.81 731.76,-3314.47 739.98,-3315.22 747.9,-3316.06 755.47,-3316.98 762.69,-3317.99 769.52,-3319.07 775.93,-3320.23 781.92,-3321.47 787.46,-3322.77 792.53,-3324.15 797.13,-3325.58 801.24,-3327.07 804.86,-3328.62 807.98,-3330.22 810.6,-3331.86 812.72,-3333.55 814.35,-3335.27 815.48,-3337.03 816.13,-3338.81 816.3,-3340.61 816.01,-3342.44 815.28,-3344.27 814.1,-3346.11 812.51,-3347.96 810.52,-3349.8 808.14,-3351.64 805.41,-3353.46 802.32,-3355.26 798.92,-3357.05 795.21,-3358.8 791.22,-3360.53 786.97,-3362.21 782.48,-3363.86 777.77,-3365.45 772.86,-3367 767.76,-3368.49 762.5,-3369.93 757.1,-3371.3 751.56,-3372.6 745.9,-3373.84 740.15,-3375 734.3,-3376.08 728.38,-3377.09 722.4,-3378.01 716.35,-3378.85 710.26,-3379.6 704.13,-3380.26 697.97,-3380.83 691.79,-3381.31 685.58,-3381.69 679.36,-3381.98 673.13,-3382.18 666.89,-3382.27 660.65,-3382.27 654.41,-3382.18 648.18,-3381.98 641.96,-3381.69 635.75,-3381.31 629.56,-3380.83 623.4,-3380.26 617.27,-3379.6 611.18,-3378.85 605.14,-3378.01 599.15,-3377.09 593.23,-3376.08 587.39,-3375 581.63,-3373.84 575.98,-3372.6 570.44,-3371.3 565.03,-3369.93 559.77,-3368.49 554.68,-3367 549.77,-3365.45 545.06,-3363.86 540.56,-3362.21 536.31,-3360.53 532.32,-3358.8 528.62,-3357.05 525.21,-3355.26 522.13,-3353.46 519.39,-3351.64 517.02,-3349.8 515.02,-3347.96 513.43,-3346.11 512.26,-3344.27 511.52,-3342.44 511.23,-3340.61 511.41,-3338.81 512.06,-3337.03 513.19,-3335.27 514.81,-3333.55 516.94,-3331.86 519.56,-3330.22 522.68,-3328.62 526.29,-3327.07 530.41,-3325.58 535,-3324.15 540.08,-3322.77 545.61,-3321.47 551.6,-3320.23 558.02,-3319.07 564.85,-3317.99 572.06,-3316.98 579.64,-3316.06 587.55,-3315.22 595.77,-3314.47 604.27,-3313.81 613,-3313.24 621.94,-3312.76 631.06,-3312.38 640.31,-3312.09 649.65,-3311.9 659.06,-3311.8 668.48,-3311.8 677.88,-3311.9"/>
<text text-anchor="start" x="634.6" y="-3356.84" font-family="Times,serif" font-size="14.00">C0587437</text>
<text text-anchor="start" x="570.5" y="-3342.84" font-family="Times,serif" font-size="14.00">single tertiary care referral center</text>
<text text-anchor="start" x="647.82" y="-3328.84" font-family="Times,serif" font-size="14.00">65:69</text>
</g>
<!-- id_28087131_DOT_9&#45;&#45;id_28087131_DOT_15 -->
<g id="edge15" class="edge">
<title>id_28087131_DOT_9&#45;&#45;id_28087131_DOT_15</title>
<path fill="none" stroke="black" stroke-dasharray="1,5" d="M638.91,-3381.69C596.08,-3441.41 508.87,-3563.02 466.15,-3622.59"/>
<text text-anchor="middle" x="526.28" y="-3504.94" font-family="Times,serif" font-size="14.00">0.785236</text>
</g>
<!-- id_28087131_DOT_25 -->
<g id="node25" class="node">
<title>id_28087131_DOT_25</title>
<polygon fill="darkred" stroke="darkred" points="912.19,-2998.66 918.21,-2998.85 924.17,-2999.14 930.05,-2999.52 935.81,-3000 941.44,-3000.57 946.91,-3001.23 952.21,-3001.98 957.31,-3002.82 962.2,-3003.74 966.85,-3004.75 971.25,-3005.83 975.38,-3006.99 979.24,-3008.23 982.81,-3009.53 986.08,-3010.9 989.04,-3012.34 991.69,-3013.83 994.02,-3015.38 996.03,-3016.98 997.72,-3018.62 999.09,-3020.31 1000.13,-3022.03 1000.86,-3023.79 1001.28,-3025.57 1001.4,-3027.37 1001.21,-3029.2 1000.73,-3031.03 999.98,-3032.87 998.95,-3034.72 997.67,-3036.56 996.14,-3038.4 994.37,-3040.22 992.39,-3042.02 990.19,-3043.81 987.8,-3045.56 985.23,-3047.28 982.49,-3048.97 979.6,-3050.61 976.56,-3052.21 973.4,-3053.76 970.11,-3055.25 966.72,-3056.69 963.24,-3058.06 959.67,-3059.36 956.03,-3060.6 952.32,-3061.76 948.55,-3062.84 944.74,-3063.85 940.88,-3064.77 936.98,-3065.61 933.06,-3066.36 929.11,-3067.02 925.14,-3067.59 921.15,-3068.07 917.15,-3068.45 913.14,-3068.74 909.13,-3068.93 905.11,-3069.03 901.08,-3069.03 897.06,-3068.93 893.05,-3068.74 889.04,-3068.45 885.04,-3068.07 881.05,-3067.59 877.08,-3067.02 873.13,-3066.36 869.21,-3065.61 865.31,-3064.77 861.45,-3063.85 857.64,-3062.84 853.87,-3061.76 850.16,-3060.6 846.52,-3059.36 842.95,-3058.06 839.47,-3056.69 836.08,-3055.25 832.79,-3053.76 829.63,-3052.21 826.59,-3050.61 823.7,-3048.97 820.96,-3047.28 818.39,-3045.56 816,-3043.81 813.8,-3042.02 811.82,-3040.22 810.05,-3038.4 808.52,-3036.56 807.24,-3034.72 806.21,-3032.87 805.46,-3031.03 804.98,-3029.2 804.8,-3027.37 804.91,-3025.57 805.33,-3023.79 806.06,-3022.03 807.1,-3020.31 808.47,-3018.62 810.16,-3016.98 812.17,-3015.38 814.5,-3013.83 817.15,-3012.34 820.11,-3010.9 823.38,-3009.53 826.95,-3008.23 830.81,-3006.99 834.95,-3005.83 839.35,-3004.75 844,-3003.74 848.88,-3002.82 853.98,-3001.98 859.28,-3001.23 864.75,-3000.57 870.38,-3000 876.14,-2999.52 882.02,-2999.14 887.98,-2998.85 894,-2998.66 900.06,-2998.56 906.13,-2998.56 912.19,-2998.66"/>
<text text-anchor="start" x="873.93" y="-3043.6" font-family="Times,serif" font-size="14.00">C1708333</text>
<text text-anchor="start" x="845.76" y="-3029.6" font-family="Times,serif" font-size="14.00">single &#45; center series</text>
<text text-anchor="start" x="880.15" y="-3015.6" font-family="Times,serif" font-size="14.00">339:342</text>
</g>
<!-- id_28087131_DOT_9&#45;&#45;id_28087131_DOT_25 -->
<g id="edge16" class="edge">
<title>id_28087131_DOT_9&#45;&#45;id_28087131_DOT_25</title>
<path fill="none" stroke="black" stroke-dasharray="1,5" d="M690.53,-3312.02C737,-3251.19 832.02,-3126.83 877.6,-3067.17"/>
<text text-anchor="middle" x="757.81" y="-3192.39" font-family="Times,serif" font-size="14.00">0.686274</text>
</g>
<!-- id_28087131_DOT_23 -->
<g id="node23" class="node">
<title>id_28087131_DOT_23</title>
<polygon fill="coral" stroke="coral" points="2359.17,-1501.19 2364.23,-1501.38 2369.24,-1501.67 2374.18,-1502.05 2379.03,-1502.53 2383.76,-1503.1 2388.37,-1503.76 2392.82,-1504.51 2397.11,-1505.35 2401.22,-1506.27 2405.13,-1507.28 2408.83,-1508.36 2412.3,-1509.53 2415.55,-1510.76 2418.55,-1512.06 2421.3,-1513.44 2423.79,-1514.87 2426.02,-1516.36 2427.98,-1517.91 2429.67,-1519.51 2431.09,-1521.15 2432.24,-1522.84 2433.12,-1524.56 2433.73,-1526.32 2434.09,-1528.1 2434.18,-1529.9 2434.02,-1531.73 2433.62,-1533.56 2432.99,-1535.4 2432.13,-1537.25 2431.05,-1539.09 2429.76,-1540.93 2428.28,-1542.75 2426.61,-1544.56 2424.76,-1546.34 2422.75,-1548.09 2420.59,-1549.82 2418.29,-1551.5 2415.85,-1553.15 2413.3,-1554.74 2410.64,-1556.29 2407.88,-1557.78 2405.03,-1559.22 2402.1,-1560.59 2399.09,-1561.9 2396.03,-1563.13 2392.91,-1564.29 2389.74,-1565.38 2386.54,-1566.38 2383.29,-1567.3 2380.02,-1568.14 2376.72,-1568.89 2373.39,-1569.55 2370.06,-1570.12 2366.7,-1570.6 2363.34,-1570.98 2359.97,-1571.27 2356.59,-1571.47 2353.21,-1571.56 2349.83,-1571.56 2346.45,-1571.47 2343.07,-1571.27 2339.7,-1570.98 2336.33,-1570.6 2332.98,-1570.12 2329.64,-1569.55 2326.32,-1568.89 2323.02,-1568.14 2319.75,-1567.3 2316.5,-1566.38 2313.29,-1565.38 2310.13,-1564.29 2307.01,-1563.13 2303.94,-1561.9 2300.94,-1560.59 2298.01,-1559.22 2295.16,-1557.78 2292.4,-1556.29 2289.74,-1554.74 2287.18,-1553.15 2284.75,-1551.5 2282.45,-1549.82 2280.29,-1548.09 2278.28,-1546.34 2276.43,-1544.56 2274.76,-1542.75 2273.28,-1540.93 2271.99,-1539.09 2270.91,-1537.25 2270.05,-1535.4 2269.41,-1533.56 2269.01,-1531.73 2268.86,-1529.9 2268.95,-1528.1 2269.3,-1526.32 2269.92,-1524.56 2270.8,-1522.84 2271.95,-1521.15 2273.37,-1519.51 2275.06,-1517.91 2277.02,-1516.36 2279.25,-1514.87 2281.74,-1513.44 2284.49,-1512.06 2287.49,-1510.76 2290.73,-1509.53 2294.21,-1508.36 2297.91,-1507.28 2301.82,-1506.27 2305.93,-1505.35 2310.22,-1504.51 2314.67,-1503.76 2319.27,-1503.1 2324.01,-1502.53 2328.85,-1502.05 2333.79,-1501.67 2338.8,-1501.38 2343.87,-1501.19 2348.97,-1501.09 2354.07,-1501.09 2359.17,-1501.19"/>
<text text-anchor="start" x="2322.35" y="-1546.13" font-family="Times,serif" font-size="14.00">C0751571</text>
<text text-anchor="start" x="2304.69" y="-1532.13" font-family="Times,serif" font-size="14.00">urothelial cancer</text>
<text text-anchor="start" x="2328.57" y="-1518.13" font-family="Times,serif" font-size="14.00">298:299</text>
</g>
<!-- id_28087131_DOT_11&#45;&#45;id_28087131_DOT_23 -->
<g id="edge17" class="edge">
<title>id_28087131_DOT_11&#45;&#45;id_28087131_DOT_23</title>
<path fill="none" stroke="black" stroke-dasharray="1,5" d="M2084.28,-1776.69C2143.27,-1723.64 2259.74,-1618.88 2317.45,-1566.97"/>
<text text-anchor="middle" x="2174.62" y="-1674.63" font-family="Times,serif" font-size="14.00">0.737749</text>
</g>
<!-- id_28087131_DOT_12 -->
<g id="node12" class="node">
<title>id_28087131_DOT_12</title>
<polygon fill="chartreuse" stroke="chartreuse" points="265.53,-1980.39 280.42,-1980.58 295.15,-1980.87 309.68,-1981.26 323.93,-1981.73 337.85,-1982.3 351.38,-1982.96 364.48,-1983.72 377.09,-1984.55 389.17,-1985.48 400.67,-1986.48 411.55,-1987.57 421.77,-1988.73 431.31,-1989.96 440.14,-1991.27 448.22,-1992.64 455.55,-1994.07 462.1,-1995.56 467.87,-1997.11 472.84,-1998.71 477.01,-2000.35 480.39,-2002.04 482.98,-2003.76 484.79,-2005.52 485.82,-2007.3 486.1,-2009.11 485.64,-2010.93 484.46,-2012.76 482.59,-2014.61 480.06,-2016.45 476.88,-2018.29 473.1,-2020.13 468.73,-2021.95 463.82,-2023.76 458.4,-2025.54 452.49,-2027.3 446.13,-2029.02 439.36,-2030.7 432.2,-2032.35 424.7,-2033.95 416.87,-2035.49 408.75,-2036.99 400.37,-2038.42 391.75,-2039.79 382.93,-2041.1 373.92,-2042.33 364.75,-2043.49 355.43,-2044.58 346,-2045.58 336.46,-2046.51 326.83,-2047.34 317.12,-2048.09 307.36,-2048.76 297.54,-2049.33 287.68,-2049.8 277.79,-2050.19 267.88,-2050.48 257.95,-2050.67 248,-2050.76 238.06,-2050.76 228.12,-2050.67 218.19,-2050.48 208.27,-2050.19 198.38,-2049.8 188.52,-2049.33 178.71,-2048.76 168.94,-2048.09 159.24,-2047.34 149.61,-2046.51 140.07,-2045.58 130.63,-2044.58 121.32,-2043.49 112.15,-2042.33 103.14,-2041.1 94.31,-2039.79 85.7,-2038.42 77.32,-2036.99 69.2,-2035.49 61.37,-2033.95 53.86,-2032.35 46.71,-2030.7 39.93,-2029.02 33.58,-2027.3 27.67,-2025.54 22.24,-2023.76 17.33,-2021.95 12.97,-2020.13 9.18,-2018.29 6.01,-2016.45 3.47,-2014.61 1.6,-2012.76 0.43,-2010.93 -0.03,-2009.11 0.25,-2007.3 1.28,-2005.52 3.08,-2003.76 5.67,-2002.04 9.05,-2000.35 13.23,-1998.71 18.2,-1997.11 23.96,-1995.56 30.52,-1994.07 37.84,-1992.64 45.93,-1991.27 54.75,-1989.96 64.29,-1988.73 74.52,-1987.57 85.4,-1986.48 96.9,-1985.48 108.97,-1984.55 121.58,-1983.72 134.68,-1982.96 148.22,-1982.3 162.14,-1981.73 176.39,-1981.26 190.91,-1980.87 205.65,-1980.58 220.54,-1980.39 235.52,-1980.29 250.54,-1980.29 265.53,-1980.39"/>
<text text-anchor="start" x="213.86" y="-2025.33" font-family="Times,serif" font-size="14.00">C0034980</text>
<text text-anchor="start" x="89.66" y="-2011.33" font-family="Times,serif" font-size="14.00">Univariable and multivariable Cox regression analyses</text>
<text text-anchor="start" x="227.09" y="-1997.33" font-family="Times,serif" font-size="14.00">79:84</text>
</g>
<!-- id_28087131_DOT_21 -->
<g id="node21" class="node">
<title>id_28087131_DOT_21</title>
<polygon fill="chartreuse" stroke="chartreuse" points="652.1,-2081.08 662.67,-2081.27 673.13,-2081.56 683.44,-2081.95 693.56,-2082.42 703.44,-2082.99 713.05,-2083.65 722.35,-2084.41 731.3,-2085.24 739.87,-2086.17 748.04,-2087.17 755.76,-2088.26 763.02,-2089.42 769.79,-2090.65 776.06,-2091.96 781.8,-2093.33 787,-2094.76 791.65,-2096.25 795.74,-2097.8 799.27,-2099.4 802.24,-2101.04 804.63,-2102.73 806.47,-2104.45 807.75,-2106.21 808.49,-2107.99 808.68,-2109.8 808.36,-2111.62 807.52,-2113.45 806.2,-2115.3 804.4,-2117.14 802.14,-2118.98 799.46,-2120.82 796.36,-2122.64 792.87,-2124.45 789.02,-2126.23 784.83,-2127.99 780.31,-2129.71 775.5,-2131.39 770.42,-2133.04 765.09,-2134.64 759.54,-2136.18 753.77,-2137.68 747.82,-2139.11 741.71,-2140.48 735.44,-2141.79 729.05,-2143.02 722.53,-2144.18 715.92,-2145.27 709.23,-2146.27 702.45,-2147.2 695.62,-2148.03 688.73,-2148.78 681.79,-2149.45 674.82,-2150.02 667.83,-2150.49 660.8,-2150.88 653.77,-2151.17 646.72,-2151.36 639.66,-2151.45 632.6,-2151.45 625.54,-2151.36 618.49,-2151.17 611.45,-2150.88 604.43,-2150.49 597.43,-2150.02 590.46,-2149.45 583.53,-2148.78 576.64,-2148.03 569.8,-2147.2 563.03,-2146.27 556.33,-2145.27 549.72,-2144.18 543.21,-2143.02 536.82,-2141.79 530.55,-2140.48 524.43,-2139.11 518.48,-2137.68 512.72,-2136.18 507.16,-2134.64 501.83,-2133.04 496.75,-2131.39 491.94,-2129.71 487.43,-2127.99 483.24,-2126.23 479.39,-2124.45 475.9,-2122.64 472.8,-2120.82 470.11,-2118.98 467.86,-2117.14 466.06,-2115.3 464.73,-2113.45 463.9,-2111.62 463.57,-2109.8 463.77,-2107.99 464.5,-2106.21 465.79,-2104.45 467.62,-2102.73 470.02,-2101.04 472.99,-2099.4 476.52,-2097.8 480.61,-2096.25 485.26,-2094.76 490.46,-2093.33 496.2,-2091.96 502.47,-2090.65 509.24,-2089.42 516.5,-2088.26 524.22,-2087.17 532.38,-2086.17 540.96,-2085.24 549.91,-2084.41 559.21,-2083.65 568.82,-2082.99 578.7,-2082.42 588.82,-2081.95 599.13,-2081.56 609.59,-2081.27 620.16,-2081.08 630.8,-2080.98 641.46,-2080.98 652.1,-2081.08"/>
<text text-anchor="start" x="606.96" y="-2126.02" font-family="Times,serif" font-size="14.00">C0034980</text>
<text text-anchor="start" x="529.41" y="-2112.02" font-family="Times,serif" font-size="14.00">multivariable Cox regression analyses</text>
<text text-anchor="start" x="613.18" y="-2098.02" font-family="Times,serif" font-size="14.00">236:239</text>
</g>
<!-- id_28087131_DOT_12&#45;&#45;id_28087131_DOT_21 -->
<g id="edge7" class="edge">
<title>id_28087131_DOT_12&#45;&#45;id_28087131_DOT_21</title>
<path fill="none" stroke="black" d="M356.2,-2044.52C408.6,-2057.94 470.7,-2073.84 523.07,-2087.26"/>
<text text-anchor="middle" x="413.39" y="-2068.69" font-family="Times,serif" font-size="14.00">0.017014</text>
</g>
<!-- id_28087131_DOT_13&#45;&#45;id_28087131_DOT_23 -->
<g id="edge18" class="edge">
<title>id_28087131_DOT_13&#45;&#45;id_28087131_DOT_23</title>
<path fill="none" stroke="black" stroke-dasharray="1,5" d="M2615.24,-1271.33C2558,-1328.84 2442.07,-1445.34 2384.92,-1502.77"/>
<text text-anchor="middle" x="2473.83" y="-1389.85" font-family="Times,serif" font-size="14.00">0.314507</text>
</g>
<!-- id_28087131_DOT_14 -->
<g id="node14" class="node">
<title>id_28087131_DOT_14</title>
<polygon fill="cornflowerblue" stroke="cornflowerblue" points="2311.93,-3168.63 2315.83,-3168.83 2319.69,-3169.12 2323.49,-3169.5 2327.23,-3169.98 2330.87,-3170.55 2334.41,-3171.21 2337.84,-3171.96 2341.15,-3172.8 2344.31,-3173.72 2347.32,-3174.72 2350.17,-3175.81 2352.84,-3176.97 2355.34,-3178.21 2357.65,-3179.51 2359.77,-3180.88 2361.69,-3182.32 2363.4,-3183.81 2364.91,-3185.36 2366.21,-3186.95 2367.31,-3188.6 2368.19,-3190.28 2368.87,-3192.01 2369.34,-3193.76 2369.61,-3195.54 2369.69,-3197.35 2369.57,-3199.17 2369.26,-3201.01 2368.77,-3202.85 2368.11,-3204.7 2367.27,-3206.54 2366.28,-3208.37 2365.14,-3210.2 2363.85,-3212 2362.43,-3213.78 2360.89,-3215.54 2359.22,-3217.26 2357.45,-3218.95 2355.58,-3220.59 2353.61,-3222.19 2351.56,-3223.74 2349.43,-3225.23 2347.24,-3226.66 2344.98,-3228.04 2342.67,-3229.34 2340.31,-3230.58 2337.91,-3231.74 2335.47,-3232.82 2333,-3233.83 2330.51,-3234.75 2327.98,-3235.59 2325.44,-3236.34 2322.89,-3237 2320.32,-3237.57 2317.74,-3238.05 2315.15,-3238.43 2312.55,-3238.72 2309.95,-3238.91 2307.35,-3239.01 2304.74,-3239.01 2302.14,-3238.91 2299.54,-3238.72 2296.94,-3238.43 2294.35,-3238.05 2291.77,-3237.57 2289.2,-3237 2286.64,-3236.34 2284.1,-3235.59 2281.58,-3234.75 2279.08,-3233.83 2276.61,-3232.82 2274.18,-3231.74 2271.77,-3230.58 2269.42,-3229.34 2267.11,-3228.04 2264.85,-3226.66 2262.65,-3225.23 2260.53,-3223.74 2258.48,-3222.19 2256.51,-3220.59 2254.64,-3218.95 2252.87,-3217.26 2251.2,-3215.54 2249.66,-3213.78 2248.23,-3212 2246.95,-3210.2 2245.81,-3208.37 2244.82,-3206.54 2243.98,-3204.7 2243.32,-3202.85 2242.83,-3201.01 2242.52,-3199.17 2242.4,-3197.35 2242.48,-3195.54 2242.75,-3193.76 2243.22,-3192.01 2243.9,-3190.28 2244.78,-3188.6 2245.87,-3186.95 2247.18,-3185.36 2248.69,-3183.81 2250.4,-3182.32 2252.32,-3180.88 2254.44,-3179.51 2256.75,-3178.21 2259.24,-3176.97 2261.92,-3175.81 2264.77,-3174.72 2267.78,-3173.72 2270.94,-3172.8 2274.25,-3171.96 2277.67,-3171.21 2281.22,-3170.55 2284.86,-3169.98 2288.59,-3169.5 2292.4,-3169.12 2296.26,-3168.83 2300.16,-3168.63 2304.08,-3168.54 2308.01,-3168.54 2311.93,-3168.63"/>
<text text-anchor="start" x="2276.88" y="-3213.57" font-family="Times,serif" font-size="14.00">C0205697</text>
<text text-anchor="start" x="2271.83" y="-3199.57" font-family="Times,serif" font-size="14.00">sarcomatoid</text>
<text text-anchor="start" x="2283.1" y="-3185.57" font-family="Times,serif" font-size="14.00">147:147</text>
</g>
<!-- id_28087131_DOT_17 -->
<g id="node17" class="node">
<title>id_28087131_DOT_17</title>
<polygon fill="darkgreen" stroke="darkgreen" points="1941.44,-3011.05 1944.87,-3011.25 1948.27,-3011.54 1951.61,-3011.92 1954.89,-3012.4 1958.09,-3012.97 1961.21,-3013.63 1964.23,-3014.38 1967.13,-3015.22 1969.91,-3016.14 1972.56,-3017.14 1975.06,-3018.23 1977.41,-3019.39 1979.61,-3020.62 1981.64,-3021.93 1983.5,-3023.3 1985.19,-3024.73 1986.7,-3026.23 1988.03,-3027.78 1989.17,-3029.37 1990.13,-3031.02 1990.91,-3032.7 1991.5,-3034.43 1991.92,-3036.18 1992.16,-3037.96 1992.22,-3039.77 1992.12,-3041.59 1991.85,-3043.43 1991.42,-3045.27 1990.83,-3047.11 1990.1,-3048.96 1989.23,-3050.79 1988.23,-3052.62 1987.09,-3054.42 1985.85,-3056.2 1984.49,-3057.96 1983.02,-3059.68 1981.46,-3061.37 1979.82,-3063.01 1978.09,-3064.61 1976.28,-3066.16 1974.42,-3067.65 1972.49,-3069.08 1970.5,-3070.46 1968.47,-3071.76 1966.4,-3072.99 1964.29,-3074.16 1962.14,-3075.24 1959.97,-3076.25 1957.77,-3077.17 1955.56,-3078.01 1953.32,-3078.76 1951.07,-3079.42 1948.81,-3079.99 1946.54,-3080.47 1944.27,-3080.85 1941.99,-3081.14 1939.7,-3081.33 1937.41,-3081.43 1935.12,-3081.43 1932.83,-3081.33 1930.55,-3081.14 1928.26,-3080.85 1925.99,-3080.47 1923.72,-3079.99 1921.46,-3079.42 1919.21,-3078.76 1916.98,-3078.01 1914.76,-3077.17 1912.56,-3076.25 1910.39,-3075.24 1908.25,-3074.16 1906.13,-3072.99 1904.06,-3071.76 1902.03,-3070.46 1900.05,-3069.08 1898.12,-3067.65 1896.25,-3066.16 1894.45,-3064.61 1892.72,-3063.01 1891.07,-3061.37 1889.51,-3059.68 1888.05,-3057.96 1886.69,-3056.2 1885.44,-3054.42 1884.31,-3052.62 1883.3,-3050.79 1882.43,-3048.96 1881.7,-3047.11 1881.12,-3045.27 1880.69,-3043.43 1880.42,-3041.59 1880.31,-3039.77 1880.37,-3037.96 1880.61,-3036.18 1881.03,-3034.43 1881.62,-3032.7 1882.4,-3031.02 1883.36,-3029.37 1884.51,-3027.78 1885.83,-3026.23 1887.34,-3024.73 1889.03,-3023.3 1890.89,-3021.93 1892.92,-3020.62 1895.12,-3019.39 1897.47,-3018.23 1899.98,-3017.14 1902.62,-3016.14 1905.4,-3015.22 1908.31,-3014.38 1911.32,-3013.63 1914.44,-3012.97 1917.64,-3012.4 1920.92,-3011.92 1924.27,-3011.54 1927.66,-3011.25 1931.09,-3011.05 1934.54,-3010.96 1937.99,-3010.96 1941.44,-3011.05"/>
<text text-anchor="start" x="1907.1" y="-3055.99" font-family="Times,serif" font-size="14.00">C0007137</text>
<text text-anchor="start" x="1908.27" y="-3041.99" font-family="Times,serif" font-size="14.00">squamous</text>
<text text-anchor="start" x="1913.32" y="-3027.99" font-family="Times,serif" font-size="14.00">169:169</text>
</g>
<!-- id_28087131_DOT_14&#45;&#45;id_28087131_DOT_17 -->
<g id="edge19" class="edge">
<title>id_28087131_DOT_14&#45;&#45;id_28087131_DOT_17</title>
<path fill="none" stroke="black" stroke-dasharray="1,5" d="M2252.28,-3180.86C2178.16,-3149.28 2046.14,-3093.01 1978.6,-3064.23"/>
<text text-anchor="middle" x="2089.19" y="-3125.35" font-family="Times,serif" font-size="14.00">0.674099</text>
</g>
<!-- id_28087131_DOT_16 -->
<g id="node16" class="node">
<title>id_28087131_DOT_16</title>
<polygon fill="darkgoldenrod" stroke="darkgoldenrod" points="1056.69,-2067.92 1060.11,-2068.11 1063.51,-2068.4 1066.85,-2068.78 1070.13,-2069.26 1073.34,-2069.83 1076.45,-2070.49 1079.47,-2071.24 1082.37,-2072.08 1085.15,-2073 1087.8,-2074.01 1090.3,-2075.09 1092.66,-2076.25 1094.85,-2077.49 1096.88,-2078.79 1098.75,-2080.16 1100.43,-2081.6 1101.94,-2083.09 1103.27,-2084.64 1104.41,-2086.24 1105.37,-2087.88 1106.15,-2089.57 1106.75,-2091.29 1107.16,-2093.05 1107.4,-2094.83 1107.46,-2096.63 1107.36,-2098.46 1107.09,-2100.29 1106.66,-2102.13 1106.07,-2103.98 1105.34,-2105.82 1104.47,-2107.66 1103.47,-2109.48 1102.34,-2111.28 1101.09,-2113.07 1099.73,-2114.82 1098.26,-2116.54 1096.7,-2118.23 1095.06,-2119.87 1093.33,-2121.47 1091.53,-2123.02 1089.66,-2124.51 1087.73,-2125.95 1085.74,-2127.32 1083.71,-2128.62 1081.64,-2129.86 1079.53,-2131.02 1077.38,-2132.1 1075.21,-2133.11 1073.02,-2134.03 1070.8,-2134.87 1068.56,-2135.62 1066.32,-2136.28 1064.06,-2136.85 1061.79,-2137.33 1059.51,-2137.71 1057.23,-2138 1054.94,-2138.19 1052.65,-2138.29 1050.36,-2138.29 1048.07,-2138.19 1045.79,-2138 1043.51,-2137.71 1041.23,-2137.33 1038.96,-2136.85 1036.7,-2136.28 1034.45,-2135.62 1032.22,-2134.87 1030,-2134.03 1027.8,-2133.11 1025.63,-2132.1 1023.49,-2131.02 1021.38,-2129.86 1019.3,-2128.62 1017.27,-2127.32 1015.29,-2125.95 1013.36,-2124.51 1011.49,-2123.02 1009.69,-2121.47 1007.96,-2119.87 1006.31,-2118.23 1004.75,-2116.54 1003.29,-2114.82 1001.93,-2113.07 1000.68,-2111.28 999.55,-2109.48 998.54,-2107.66 997.67,-2105.82 996.94,-2103.98 996.36,-2102.13 995.93,-2100.29 995.66,-2098.46 995.55,-2096.63 995.62,-2094.83 995.85,-2093.05 996.27,-2091.29 996.87,-2089.57 997.64,-2087.88 998.6,-2086.24 999.75,-2084.64 1001.08,-2083.09 1002.58,-2081.6 1004.27,-2080.16 1006.13,-2078.79 1008.16,-2077.49 1010.36,-2076.25 1012.71,-2075.09 1015.22,-2074.01 1017.87,-2073 1020.65,-2072.08 1023.55,-2071.24 1026.56,-2070.49 1029.68,-2069.83 1032.88,-2069.26 1036.17,-2068.78 1039.51,-2068.4 1042.9,-2068.11 1046.33,-2067.92 1049.78,-2067.82 1053.24,-2067.82 1056.69,-2067.92"/>
<text text-anchor="start" x="1022.34" y="-2112.86" font-family="Times,serif" font-size="14.00">C0262584</text>
<text text-anchor="start" x="1024.49" y="-2098.86" font-family="Times,serif" font-size="14.00">small cell</text>
<text text-anchor="start" x="1028.56" y="-2084.86" font-family="Times,serif" font-size="14.00">161:162</text>
</g>
<!-- id_28087131_DOT_16&#45;&#45;id_28087131_DOT_18 -->
<g id="edge20" class="edge">
<title>id_28087131_DOT_16&#45;&#45;id_28087131_DOT_18</title>
<path fill="none" stroke="black" stroke-dasharray="1,5" d="M1084.92,-2127.96C1150.63,-2176.95 1296.54,-2285.72 1368.41,-2339.3"/>
<text text-anchor="middle" x="1200.41" y="-2236.43" font-family="Times,serif" font-size="14.00">0.706833</text>
</g>
<!-- id_28087131_DOT_16&#45;&#45;id_28087131_DOT_21 -->
<g id="edge21" class="edge">
<title>id_28087131_DOT_16&#45;&#45;id_28087131_DOT_21</title>
<path fill="none" stroke="black" stroke-dasharray="1,5" d="M997.2,-2104.78C949.15,-2106.3 876.36,-2108.61 808.68,-2110.75"/>
<text text-anchor="middle" x="876.69" y="-2110.56" font-family="Times,serif" font-size="14.00">0.837380</text>
</g>
<!-- id_28087131_DOT_26 -->
<g id="node26" class="node">
<title>id_28087131_DOT_26</title>
<polygon fill="darkgoldenrod" stroke="darkgoldenrod" points="906.64,-1684.89 911.83,-1685.09 916.97,-1685.38 922.04,-1685.76 927.01,-1686.24 931.86,-1686.81 936.59,-1687.47 941.16,-1688.22 945.55,-1689.06 949.77,-1689.98 953.78,-1690.99 957.57,-1692.07 961.14,-1693.23 964.47,-1694.47 967.55,-1695.77 970.37,-1697.14 972.92,-1698.58 975.21,-1700.07 977.22,-1701.62 978.95,-1703.21 980.41,-1704.86 981.59,-1706.54 982.49,-1708.27 983.12,-1710.02 983.48,-1711.81 983.58,-1713.61 983.42,-1715.43 983.01,-1717.27 982.36,-1719.11 981.47,-1720.96 980.37,-1722.8 979.05,-1724.63 977.52,-1726.46 975.81,-1728.26 973.92,-1730.04 971.86,-1731.8 969.64,-1733.52 967.28,-1735.21 964.78,-1736.85 962.16,-1738.45 959.43,-1740 956.6,-1741.49 953.67,-1742.92 950.67,-1744.3 947.59,-1745.6 944.45,-1746.84 941.25,-1748 938,-1749.08 934.71,-1750.09 931.38,-1751.01 928.02,-1751.85 924.64,-1752.6 921.23,-1753.26 917.8,-1753.83 914.36,-1754.31 910.91,-1754.69 907.46,-1754.98 903.99,-1755.17 900.52,-1755.27 897.05,-1755.27 893.59,-1755.17 890.12,-1754.98 886.66,-1754.69 883.21,-1754.31 879.77,-1753.83 876.35,-1753.26 872.94,-1752.6 869.56,-1751.85 866.2,-1751.01 862.87,-1750.09 859.58,-1749.08 856.33,-1748 853.13,-1746.84 849.99,-1745.6 846.91,-1744.3 843.9,-1742.92 840.98,-1741.49 838.15,-1740 835.42,-1738.45 832.8,-1736.85 830.3,-1735.21 827.94,-1733.52 825.72,-1731.8 823.66,-1730.04 821.77,-1728.26 820.06,-1726.46 818.53,-1724.63 817.21,-1722.8 816.1,-1720.96 815.22,-1719.11 814.57,-1717.27 814.16,-1715.43 814,-1713.61 814.1,-1711.81 814.46,-1710.02 815.09,-1708.27 815.99,-1706.54 817.17,-1704.86 818.62,-1703.21 820.36,-1701.62 822.37,-1700.07 824.65,-1698.58 827.21,-1697.14 830.03,-1695.77 833.11,-1694.47 836.44,-1693.23 840,-1692.07 843.8,-1690.99 847.81,-1689.98 852.02,-1689.06 856.42,-1688.22 860.99,-1687.47 865.71,-1686.81 870.57,-1686.24 875.54,-1685.76 880.61,-1685.38 885.75,-1685.09 890.94,-1684.89 896.17,-1684.8 901.41,-1684.8 906.64,-1684.89"/>
<text text-anchor="start" x="869.62" y="-1729.83" font-family="Times,serif" font-size="14.00">C0262584</text>
<text text-anchor="start" x="850.59" y="-1715.83" font-family="Times,serif" font-size="14.00">small cell variant</text>
<text text-anchor="start" x="875.84" y="-1701.83" font-family="Times,serif" font-size="14.00">348:350</text>
</g>
<!-- id_28087131_DOT_16&#45;&#45;id_28087131_DOT_26 -->
<g id="edge22" class="edge">
<title>id_28087131_DOT_16&#45;&#45;id_28087131_DOT_26</title>
<path fill="none" stroke="black" stroke-dasharray="1,5" d="M1037.69,-2068.39C1008.65,-1995.56 941.59,-1827.38 912.58,-1754.62"/>
<text text-anchor="middle" x="948.88" y="-1914.31" font-family="Times,serif" font-size="14.00">0.858864</text>
</g>
<!-- id_28087131_DOT_20 -->
<g id="node20" class="node">
<title>id_28087131_DOT_20</title>
<polygon fill="darkorange" stroke="darkorange" points="1950.86,-3418.44 1954.47,-3418.64 1958.03,-3418.93 1961.54,-3419.31 1964.99,-3419.79 1968.36,-3420.36 1971.63,-3421.02 1974.8,-3421.77 1977.85,-3422.61 1980.77,-3423.53 1983.55,-3424.54 1986.18,-3425.62 1988.66,-3426.78 1990.97,-3428.02 1993.1,-3429.32 1995.06,-3430.69 1996.83,-3432.13 1998.41,-3433.62 1999.81,-3435.17 2001.01,-3436.76 2002.02,-3438.41 2002.84,-3440.09 2003.46,-3441.82 2003.9,-3443.57 2004.15,-3445.36 2004.22,-3447.16 2004.11,-3448.98 2003.82,-3450.82 2003.37,-3452.66 2002.76,-3454.51 2001.99,-3456.35 2001.07,-3458.18 2000.02,-3460.01 1998.83,-3461.81 1997.52,-3463.59 1996.09,-3465.35 1994.55,-3467.07 1992.91,-3468.76 1991.18,-3470.4 1989.37,-3472 1987.47,-3473.55 1985.51,-3475.04 1983.48,-3476.47 1981.4,-3477.85 1979.26,-3479.15 1977.08,-3480.39 1974.86,-3481.55 1972.61,-3482.63 1970.33,-3483.64 1968.02,-3484.56 1965.69,-3485.4 1963.35,-3486.15 1960.98,-3486.81 1958.61,-3487.38 1956.22,-3487.86 1953.83,-3488.24 1951.43,-3488.53 1949.03,-3488.72 1946.63,-3488.82 1944.22,-3488.82 1941.82,-3488.72 1939.41,-3488.53 1937.02,-3488.24 1934.62,-3487.86 1932.24,-3487.38 1929.86,-3486.81 1927.5,-3486.15 1925.15,-3485.4 1922.83,-3484.56 1920.52,-3483.64 1918.24,-3482.63 1915.98,-3481.55 1913.76,-3480.39 1911.59,-3479.15 1909.45,-3477.85 1907.37,-3476.47 1905.34,-3475.04 1903.38,-3473.55 1901.48,-3472 1899.67,-3470.4 1897.93,-3468.76 1896.3,-3467.07 1894.76,-3465.35 1893.33,-3463.59 1892.02,-3461.81 1890.83,-3460.01 1889.77,-3458.18 1888.86,-3456.35 1888.09,-3454.51 1887.48,-3452.66 1887.03,-3450.82 1886.74,-3448.98 1886.63,-3447.16 1886.7,-3445.36 1886.95,-3443.57 1887.38,-3441.82 1888.01,-3440.09 1888.83,-3438.41 1889.84,-3436.76 1891.04,-3435.17 1892.43,-3433.62 1894.02,-3432.13 1895.79,-3430.69 1897.75,-3429.32 1899.88,-3428.02 1902.19,-3426.78 1904.66,-3425.62 1907.29,-3424.54 1910.08,-3423.53 1913,-3422.61 1916.05,-3421.77 1919.21,-3421.02 1922.49,-3420.36 1925.86,-3419.79 1929.3,-3419.31 1932.82,-3418.93 1936.38,-3418.64 1939.98,-3418.44 1943.61,-3418.35 1947.24,-3418.35 1950.86,-3418.44"/>
<text text-anchor="start" x="1916.25" y="-3463.38" font-family="Times,serif" font-size="14.00">C1522577</text>
<text text-anchor="start" x="1914.32" y="-3449.38" font-family="Times,serif" font-size="14.00">follow &#45; up</text>
<text text-anchor="start" x="1922.48" y="-3435.38" font-family="Times,serif" font-size="14.00">210:212</text>
</g>
<!-- id_28087131_DOT_17&#45;&#45;id_28087131_DOT_20 -->
<g id="edge23" class="edge">
<title>id_28087131_DOT_17&#45;&#45;id_28087131_DOT_20</title>
<path fill="none" stroke="black" stroke-dasharray="1,5" d="M1937.06,-3081.63C1938.8,-3158.78 1942.9,-3341.16 1944.63,-3418.23"/>
<text text-anchor="middle" x="1914.6" y="-3252.73" font-family="Times,serif" font-size="14.00">0.831276</text>
</g>
<!-- id_28087131_DOT_27 -->
<g id="node27" class="node">
<title>id_28087131_DOT_27</title>
<polygon fill="darksalmon" stroke="darksalmon" points="1697.38,-2662.78 1700.81,-2662.97 1704.21,-2663.26 1707.55,-2663.64 1710.83,-2664.12 1714.03,-2664.69 1717.15,-2665.35 1720.17,-2666.1 1723.07,-2666.94 1725.85,-2667.86 1728.5,-2668.87 1731,-2669.95 1733.35,-2671.11 1735.55,-2672.35 1737.58,-2673.65 1739.44,-2675.02 1741.13,-2676.46 1742.64,-2677.95 1743.97,-2679.5 1745.11,-2681.1 1746.07,-2682.74 1746.85,-2684.43 1747.45,-2686.15 1747.86,-2687.9 1748.1,-2689.69 1748.16,-2691.49 1748.06,-2693.31 1747.79,-2695.15 1747.36,-2696.99 1746.77,-2698.84 1746.04,-2700.68 1745.17,-2702.51 1744.17,-2704.34 1743.03,-2706.14 1741.79,-2707.93 1740.43,-2709.68 1738.96,-2711.4 1737.4,-2713.09 1735.76,-2714.73 1734.03,-2716.33 1732.23,-2717.88 1730.36,-2719.37 1728.43,-2720.81 1726.44,-2722.18 1724.41,-2723.48 1722.34,-2724.72 1720.23,-2725.88 1718.08,-2726.96 1715.91,-2727.97 1713.71,-2728.89 1711.5,-2729.73 1709.26,-2730.48 1707.01,-2731.14 1704.75,-2731.71 1702.49,-2732.19 1700.21,-2732.57 1697.93,-2732.86 1695.64,-2733.05 1693.35,-2733.15 1691.06,-2733.15 1688.77,-2733.05 1686.49,-2732.86 1684.2,-2732.57 1681.93,-2732.19 1679.66,-2731.71 1677.4,-2731.14 1675.15,-2730.48 1672.92,-2729.73 1670.7,-2728.89 1668.5,-2727.97 1666.33,-2726.96 1664.19,-2725.88 1662.08,-2724.72 1660,-2723.48 1657.97,-2722.18 1655.99,-2720.81 1654.06,-2719.37 1652.19,-2717.88 1650.39,-2716.33 1648.66,-2714.73 1647.01,-2713.09 1645.45,-2711.4 1643.99,-2709.68 1642.63,-2707.93 1641.38,-2706.14 1640.25,-2704.34 1639.24,-2702.51 1638.37,-2700.68 1637.64,-2698.84 1637.06,-2696.99 1636.63,-2695.15 1636.36,-2693.31 1636.25,-2691.49 1636.31,-2689.69 1636.55,-2687.9 1636.97,-2686.15 1637.56,-2684.43 1638.34,-2682.74 1639.3,-2681.1 1640.45,-2679.5 1641.77,-2677.95 1643.28,-2676.46 1644.97,-2675.02 1646.83,-2673.65 1648.86,-2672.35 1651.06,-2671.11 1653.41,-2669.95 1655.92,-2668.87 1658.56,-2667.86 1661.34,-2666.94 1664.25,-2666.1 1667.26,-2665.35 1670.38,-2664.69 1673.58,-2664.12 1676.86,-2663.64 1680.21,-2663.26 1683.6,-2662.97 1687.03,-2662.78 1690.48,-2662.68 1693.93,-2662.68 1697.38,-2662.78"/>
<text text-anchor="start" x="1663.04" y="-2707.71" font-family="Times,serif" font-size="14.00">C0205160</text>
<text text-anchor="start" x="1668.5" y="-2693.71" font-family="Times,serif" font-size="14.00">negative</text>
<text text-anchor="start" x="1669.26" y="-2679.71" font-family="Times,serif" font-size="14.00">355:355</text>
</g>
<!-- id_28087131_DOT_17&#45;&#45;id_28087131_DOT_27 -->
<g id="edge24" class="edge">
<title>id_28087131_DOT_17&#45;&#45;id_28087131_DOT_27</title>
<path fill="none" stroke="black" stroke-dasharray="1,5" d="M1913.09,-3013.11C1866.09,-2946.04 1760.14,-2794.86 1714.17,-2729.26"/>
<text text-anchor="middle" x="1787.38" y="-2873.99" font-family="Times,serif" font-size="14.00">0.842229</text>
</g>
<!-- id_28087131_DOT_19 -->
<g id="node19" class="node">
<title>id_28087131_DOT_19</title>
<polygon fill="darkmagenta" stroke="darkmagenta" points="1158.91,-2669.59 1162.33,-2669.78 1165.73,-2670.07 1169.07,-2670.45 1172.35,-2670.93 1175.56,-2671.5 1178.67,-2672.16 1181.69,-2672.91 1184.59,-2673.75 1187.37,-2674.67 1190.02,-2675.68 1192.52,-2676.76 1194.88,-2677.92 1197.07,-2679.16 1199.1,-2680.46 1200.96,-2681.83 1202.65,-2683.27 1204.16,-2684.76 1205.49,-2686.31 1206.63,-2687.91 1207.59,-2689.55 1208.37,-2691.24 1208.97,-2692.96 1209.38,-2694.71 1209.62,-2696.5 1209.68,-2698.3 1209.58,-2700.12 1209.31,-2701.96 1208.88,-2703.8 1208.29,-2705.65 1207.56,-2707.49 1206.69,-2709.33 1205.69,-2711.15 1204.56,-2712.95 1203.31,-2714.74 1201.95,-2716.49 1200.48,-2718.21 1198.92,-2719.9 1197.28,-2721.54 1195.55,-2723.14 1193.75,-2724.69 1191.88,-2726.18 1189.95,-2727.62 1187.96,-2728.99 1185.93,-2730.29 1183.86,-2731.53 1181.75,-2732.69 1179.6,-2733.77 1177.43,-2734.78 1175.24,-2735.7 1173.02,-2736.54 1170.78,-2737.29 1168.54,-2737.95 1166.28,-2738.52 1164.01,-2739 1161.73,-2739.38 1159.45,-2739.67 1157.16,-2739.86 1154.87,-2739.96 1152.58,-2739.96 1150.29,-2739.86 1148.01,-2739.67 1145.73,-2739.38 1143.45,-2739 1141.18,-2738.52 1138.92,-2737.95 1136.67,-2737.29 1134.44,-2736.54 1132.22,-2735.7 1130.02,-2734.78 1127.85,-2733.77 1125.71,-2732.69 1123.6,-2731.53 1121.52,-2730.29 1119.49,-2728.99 1117.51,-2727.62 1115.58,-2726.18 1113.71,-2724.69 1111.91,-2723.14 1110.18,-2721.54 1108.53,-2719.9 1106.97,-2718.21 1105.51,-2716.49 1104.15,-2714.74 1102.9,-2712.95 1101.77,-2711.15 1100.76,-2709.33 1099.89,-2707.49 1099.16,-2705.65 1098.58,-2703.8 1098.15,-2701.96 1097.88,-2700.12 1097.77,-2698.3 1097.84,-2696.5 1098.07,-2694.71 1098.49,-2692.96 1099.08,-2691.24 1099.86,-2689.55 1100.82,-2687.91 1101.97,-2686.31 1103.3,-2684.76 1104.8,-2683.27 1106.49,-2681.83 1108.35,-2680.46 1110.38,-2679.16 1112.58,-2677.92 1114.93,-2676.76 1117.44,-2675.68 1120.09,-2674.67 1122.87,-2673.75 1125.77,-2672.91 1128.78,-2672.16 1131.9,-2671.5 1135.1,-2670.93 1138.39,-2670.45 1141.73,-2670.07 1145.12,-2669.78 1148.55,-2669.59 1152,-2669.49 1155.46,-2669.49 1158.91,-2669.59"/>
<text text-anchor="start" x="1124.56" y="-2714.53" font-family="Times,serif" font-size="14.00">C0205854</text>
<text text-anchor="start" x="1127.29" y="-2700.53" font-family="Times,serif" font-size="14.00">glandular</text>
<text text-anchor="start" x="1130.78" y="-2686.53" font-family="Times,serif" font-size="14.00">183:183</text>
</g>
<!-- id_28087131_DOT_18&#45;&#45;id_28087131_DOT_19 -->
<g id="edge25" class="edge">
<title>id_28087131_DOT_18&#45;&#45;id_28087131_DOT_19</title>
<path fill="none" stroke="black" stroke-dasharray="1,5" d="M1385.25,-2402.71C1336.38,-2466.47 1228.12,-2607.68 1178.93,-2671.85"/>
<text text-anchor="middle" x="1255.84" y="-2540.08" font-family="Times,serif" font-size="14.00">0.769289</text>
</g>
<!-- id_28087131_DOT_18&#45;&#45;id_28087131_DOT_27 -->
<g id="edge26" class="edge">
<title>id_28087131_DOT_18&#45;&#45;id_28087131_DOT_27</title>
<path fill="none" stroke="black" stroke-dasharray="1,5" d="M1437.12,-2401.76C1490.77,-2464.05 1610.14,-2602.64 1664.4,-2665.64"/>
<text text-anchor="middle" x="1524.51" y="-2536.5" font-family="Times,serif" font-size="14.00">0.795671</text>
</g>
<!-- id_28087131_DOT_19&#45;&#45;id_28087131_DOT_25 -->
<g id="edge27" class="edge">
<title>id_28087131_DOT_19&#45;&#45;id_28087131_DOT_25</title>
<path fill="none" stroke="black" stroke-dasharray="1,5" d="M1130.6,-2735.09C1083.88,-2796.43 978.54,-2934.74 929.34,-2999.34"/>
<text text-anchor="middle" x="1003.72" y="-2870.02" font-family="Times,serif" font-size="14.00">0.785963</text>
</g>
<!-- id_28087131_DOT_22 -->
<g id="node22" class="node">
<title>id_28087131_DOT_22</title>
<polygon fill="darkgoldenrod" stroke="darkgoldenrod" points="633.59,-1382.55 638.78,-1382.75 643.92,-1383.03 648.99,-1383.42 653.96,-1383.9 658.81,-1384.47 663.54,-1385.13 668.11,-1385.88 672.5,-1386.72 676.72,-1387.64 680.73,-1388.64 684.52,-1389.73 688.09,-1390.89 691.42,-1392.12 694.5,-1393.43 697.32,-1394.8 699.87,-1396.23 702.16,-1397.73 704.17,-1399.27 705.9,-1400.87 707.36,-1402.52 708.54,-1404.2 709.44,-1405.93 710.07,-1407.68 710.43,-1409.46 710.53,-1411.27 710.37,-1413.09 709.96,-1414.93 709.31,-1416.77 708.42,-1418.61 707.32,-1420.46 706,-1422.29 704.47,-1424.11 702.76,-1425.92 700.87,-1427.7 698.81,-1429.46 696.59,-1431.18 694.23,-1432.87 691.73,-1434.51 689.11,-1436.11 686.38,-1437.66 683.55,-1439.15 680.62,-1440.58 677.62,-1441.95 674.54,-1443.26 671.4,-1444.49 668.2,-1445.66 664.95,-1446.74 661.66,-1447.74 658.33,-1448.67 654.97,-1449.51 651.59,-1450.26 648.18,-1450.92 644.75,-1451.49 641.31,-1451.97 637.86,-1452.35 634.41,-1452.64 630.94,-1452.83 627.47,-1452.93 624,-1452.93 620.54,-1452.83 617.07,-1452.64 613.61,-1452.35 610.16,-1451.97 606.72,-1451.49 603.3,-1450.92 599.89,-1450.26 596.51,-1449.51 593.15,-1448.67 589.82,-1447.74 586.53,-1446.74 583.28,-1445.66 580.08,-1444.49 576.94,-1443.26 573.86,-1441.95 570.85,-1440.58 567.93,-1439.15 565.1,-1437.66 562.37,-1436.11 559.75,-1434.51 557.25,-1432.87 554.89,-1431.18 552.67,-1429.46 550.61,-1427.7 548.72,-1425.92 547.01,-1424.11 545.48,-1422.29 544.16,-1420.46 543.05,-1418.61 542.17,-1416.77 541.52,-1414.93 541.11,-1413.09 540.95,-1411.27 541.05,-1409.46 541.41,-1407.68 542.04,-1405.93 542.94,-1404.2 544.12,-1402.52 545.57,-1400.87 547.31,-1399.27 549.32,-1397.73 551.6,-1396.23 554.16,-1394.8 556.98,-1393.43 560.06,-1392.12 563.39,-1390.89 566.95,-1389.73 570.75,-1388.64 574.76,-1387.64 578.97,-1386.72 583.37,-1385.88 587.94,-1385.13 592.66,-1384.47 597.52,-1383.9 602.49,-1383.42 607.56,-1383.03 612.7,-1382.75 617.89,-1382.55 623.12,-1382.46 628.36,-1382.46 633.59,-1382.55"/>
<text text-anchor="start" x="596.57" y="-1427.49" font-family="Times,serif" font-size="14.00">C0262584</text>
<text text-anchor="start" x="577.54" y="-1413.49" font-family="Times,serif" font-size="14.00">small cell variant</text>
<text text-anchor="start" x="602.79" y="-1399.49" font-family="Times,serif" font-size="14.00">244:246</text>
</g>
<!-- id_28087131_DOT_22&#45;&#45;id_28087131_DOT_26 -->
<g id="edge8" class="edge">
<title>id_28087131_DOT_22&#45;&#45;id_28087131_DOT_26</title>
<path fill="none" stroke="black" d="M654.7,-1449.76C706.72,-1507.36 815.47,-1627.78 868.46,-1686.46"/>
<text text-anchor="middle" x="735.33" y="-1570.91" font-family="Times,serif" font-size="14.00">0.024605</text>
</g>
<!-- id_28087131_DOT_28 -->
<g id="node28" class="node">
<title>id_28087131_DOT_28</title>
<polygon fill="blue" stroke="blue" points="4238.27,-1396.07 4243.86,-1396.26 4249.39,-1396.55 4254.84,-1396.93 4260.19,-1397.41 4265.42,-1397.98 4270.5,-1398.64 4275.42,-1399.39 4280.15,-1400.23 4284.68,-1401.15 4289,-1402.16 4293.08,-1403.24 4296.92,-1404.4 4300.5,-1405.64 4303.82,-1406.94 4306.85,-1408.32 4309.6,-1409.75 4312.06,-1411.24 4314.23,-1412.79 4316.09,-1414.39 4317.66,-1416.03 4318.93,-1417.72 4319.9,-1419.44 4320.58,-1421.2 4320.97,-1422.98 4321.07,-1424.78 4320.9,-1426.61 4320.46,-1428.44 4319.76,-1430.28 4318.8,-1432.13 4317.61,-1433.97 4316.19,-1435.81 4314.55,-1437.63 4312.71,-1439.44 4310.67,-1441.22 4308.45,-1442.97 4306.07,-1444.7 4303.53,-1446.38 4300.84,-1448.03 4298.02,-1449.62 4295.08,-1451.17 4292.03,-1452.66 4288.89,-1454.1 4285.65,-1455.47 4282.34,-1456.77 4278.96,-1458.01 4275.52,-1459.17 4272.02,-1460.26 4268.48,-1461.26 4264.9,-1462.18 4261.28,-1463.02 4257.64,-1463.77 4253.97,-1464.43 4250.29,-1465 4246.59,-1465.48 4242.87,-1465.86 4239.15,-1466.15 4235.42,-1466.35 4231.69,-1466.44 4227.96,-1466.44 4224.23,-1466.35 4220.5,-1466.15 4216.78,-1465.86 4213.06,-1465.48 4209.36,-1465 4205.68,-1464.43 4202.01,-1463.77 4198.37,-1463.02 4194.75,-1462.18 4191.17,-1461.26 4187.63,-1460.26 4184.13,-1459.17 4180.69,-1458.01 4177.31,-1456.77 4173.99,-1455.47 4170.76,-1454.1 4167.61,-1452.66 4164.57,-1451.17 4161.63,-1449.62 4158.81,-1448.03 4156.12,-1446.38 4153.58,-1444.7 4151.19,-1442.97 4148.98,-1441.22 4146.94,-1439.44 4145.1,-1437.63 4143.46,-1435.81 4142.04,-1433.97 4140.84,-1432.13 4139.89,-1430.28 4139.19,-1428.44 4138.75,-1426.61 4138.58,-1424.78 4138.68,-1422.98 4139.07,-1421.2 4139.75,-1419.44 4140.72,-1417.72 4141.99,-1416.03 4143.55,-1414.39 4145.42,-1412.79 4147.59,-1411.24 4150.05,-1409.75 4152.8,-1408.32 4155.83,-1406.94 4159.14,-1405.64 4162.73,-1404.4 4166.56,-1403.24 4170.65,-1402.16 4174.96,-1401.15 4179.5,-1400.23 4184.23,-1399.39 4189.15,-1398.64 4194.23,-1397.98 4199.46,-1397.41 4204.81,-1396.93 4210.26,-1396.55 4215.79,-1396.26 4221.38,-1396.07 4227.01,-1395.97 4232.64,-1395.97 4238.27,-1396.07"/>
<text text-anchor="start" x="4200.65" y="-1441.01" font-family="Times,serif" font-size="14.00">C0194401</text>
<text text-anchor="start" x="4177.15" y="-1427.01" font-family="Times,serif" font-size="14.00">radical cystectomy</text>
<text text-anchor="start" x="4206.88" y="-1413.01" font-family="Times,serif" font-size="14.00">360:361</text>
</g>
<!-- id_28087131_DOT_24&#45;&#45;id_28087131_DOT_28 -->
<g id="edge9" class="edge">
<title>id_28087131_DOT_24&#45;&#45;id_28087131_DOT_28</title>
<path fill="none" stroke="black" d="M3944.87,-1441.67C4004.85,-1439.47 4082.97,-1436.6 4142.24,-1434.42"/>
<text text-anchor="middle" x="4017.31" y="-1440.85" font-family="Times,serif" font-size="14.00">0.001809</text>
</g>
</g>
</svg>
