<?xml version="1.0" encoding="UTF-8" standalone="no"?>
<!DOCTYPE svg PUBLIC "-//W3C//DTD SVG 1.1//EN"
 "http://www.w3.org/Graphics/SVG/1.1/DTD/svg11.dtd">
<!-- Generated by graphviz version 2.42.3 (20191010.1750)
 -->
<!-- Title: MST Pages: 1 -->
<svg width="7213pt" height="3317pt"
 viewBox="0.00 0.00 7213.26 3316.74" xmlns="http://www.w3.org/2000/svg" xmlns:xlink="http://www.w3.org/1999/xlink">
<g id="graph0" class="graph" transform="scale(1 1) rotate(0) translate(4 3312.74)">
<title>MST</title>
<polygon fill="white" stroke="transparent" points="-4,4 -4,-3312.74 7209.26,-3312.74 7209.26,4 -4,4"/>
<!-- id_28118752_DOT_1 -->
<g id="node1" class="node">
<title>id_28118752_DOT_1</title>
<polygon fill="aquamarine" stroke="aquamarine" points="6256.54,-1844.82 6259.97,-1845.02 6263.36,-1845.3 6266.7,-1845.69 6269.98,-1846.17 6273.19,-1846.74 6276.3,-1847.4 6279.32,-1848.15 6282.22,-1848.99 6285,-1849.91 6287.65,-1850.91 6290.15,-1852 6292.51,-1853.16 6294.7,-1854.39 6296.74,-1855.7 6298.6,-1857.07 6300.28,-1858.5 6301.79,-1860 6303.12,-1861.54 6304.26,-1863.14 6305.23,-1864.79 6306,-1866.47 6306.6,-1868.2 6307.02,-1869.95 6307.25,-1871.73 6307.32,-1873.54 6307.21,-1875.36 6306.94,-1877.2 6306.51,-1879.04 6305.93,-1880.88 6305.2,-1882.73 6304.32,-1884.56 6303.32,-1886.39 6302.19,-1888.19 6300.94,-1889.97 6299.58,-1891.73 6298.12,-1893.45 6296.56,-1895.14 6294.91,-1896.78 6293.18,-1898.38 6291.38,-1899.93 6289.51,-1901.42 6287.58,-1902.85 6285.6,-1904.22 6283.57,-1905.53 6281.49,-1906.76 6279.38,-1907.93 6277.24,-1909.01 6275.06,-1910.02 6272.87,-1910.94 6270.65,-1911.78 6268.42,-1912.53 6266.17,-1913.19 6263.91,-1913.76 6261.64,-1914.24 6259.36,-1914.62 6257.08,-1914.91 6254.79,-1915.1 6252.51,-1915.2 6250.22,-1915.2 6247.93,-1915.1 6245.64,-1914.91 6243.36,-1914.62 6241.08,-1914.24 6238.81,-1913.76 6236.55,-1913.19 6234.3,-1912.53 6232.07,-1911.78 6229.85,-1910.94 6227.66,-1910.02 6225.48,-1909.01 6223.34,-1907.93 6221.23,-1906.76 6219.16,-1905.53 6217.12,-1904.22 6215.14,-1902.85 6213.21,-1901.42 6211.34,-1899.93 6209.54,-1898.38 6207.81,-1896.78 6206.16,-1895.14 6204.6,-1893.45 6203.14,-1891.73 6201.78,-1889.97 6200.53,-1888.19 6199.4,-1886.39 6198.4,-1884.56 6197.53,-1882.73 6196.79,-1880.88 6196.21,-1879.04 6195.78,-1877.2 6195.51,-1875.36 6195.4,-1873.54 6195.47,-1871.73 6195.71,-1869.95 6196.12,-1868.2 6196.72,-1866.47 6197.5,-1864.79 6198.46,-1863.14 6199.6,-1861.54 6200.93,-1860 6202.44,-1858.5 6204.12,-1857.07 6205.99,-1855.7 6208.02,-1854.39 6210.21,-1853.16 6212.57,-1852 6215.07,-1850.91 6217.72,-1849.91 6220.5,-1848.99 6223.4,-1848.15 6226.42,-1847.4 6229.53,-1846.74 6232.74,-1846.17 6236.02,-1845.69 6239.36,-1845.3 6242.75,-1845.02 6246.18,-1844.82 6249.63,-1844.73 6253.09,-1844.73 6256.54,-1844.82"/>
<text text-anchor="start" x="6222.19" y="-1889.76" font-family="Times,serif" font-size="14.00">C0677850</text>
<text text-anchor="start" x="6222.21" y="-1875.76" font-family="Times,serif" font-size="14.00">adjunctive</text>
<text text-anchor="start" x="6242.42" y="-1861.76" font-family="Times,serif" font-size="14.00">3:3</text>
</g>
<!-- id_28118752_DOT_17 -->
<g id="node17" class="node">
<title>id_28118752_DOT_17</title>
<polygon fill="cornflowerblue" stroke="cornflowerblue" points="6109.47,-2228.85 6113.72,-2229.04 6117.93,-2229.33 6122.07,-2229.72 6126.14,-2230.19 6130.11,-2230.76 6133.97,-2231.42 6137.71,-2232.17 6141.31,-2233.01 6144.76,-2233.94 6148.04,-2234.94 6151.14,-2236.03 6154.06,-2237.19 6156.78,-2238.42 6159.3,-2239.73 6161.61,-2241.1 6163.7,-2242.53 6165.57,-2244.02 6167.21,-2245.57 6168.63,-2247.17 6169.82,-2248.81 6170.79,-2250.5 6171.52,-2252.22 6172.04,-2253.98 6172.33,-2255.76 6172.41,-2257.57 6172.28,-2259.39 6171.95,-2261.22 6171.41,-2263.07 6170.69,-2264.91 6169.78,-2266.75 6168.7,-2268.59 6167.46,-2270.41 6166.06,-2272.22 6164.51,-2274 6162.82,-2275.75 6161.01,-2277.48 6159.08,-2279.16 6157.04,-2280.81 6154.89,-2282.41 6152.66,-2283.95 6150.34,-2285.45 6147.95,-2286.88 6145.49,-2288.25 6142.97,-2289.56 6140.4,-2290.79 6137.79,-2291.95 6135.13,-2293.04 6132.44,-2294.04 6129.71,-2294.96 6126.97,-2295.8 6124.2,-2296.55 6121.41,-2297.21 6118.61,-2297.78 6115.8,-2298.26 6112.97,-2298.65 6110.15,-2298.93 6107.31,-2299.13 6104.47,-2299.22 6101.64,-2299.22 6098.8,-2299.13 6095.97,-2298.93 6093.14,-2298.65 6090.32,-2298.26 6087.5,-2297.78 6084.7,-2297.21 6081.91,-2296.55 6079.15,-2295.8 6076.4,-2294.96 6073.68,-2294.04 6070.98,-2293.04 6068.33,-2291.95 6065.71,-2290.79 6063.14,-2289.56 6060.62,-2288.25 6058.16,-2286.88 6055.77,-2285.45 6053.45,-2283.95 6051.22,-2282.41 6049.08,-2280.81 6047.03,-2279.16 6045.1,-2277.48 6043.29,-2275.75 6041.6,-2274 6040.05,-2272.22 6038.65,-2270.41 6037.41,-2268.59 6036.33,-2266.75 6035.42,-2264.91 6034.7,-2263.07 6034.16,-2261.22 6033.83,-2259.39 6033.7,-2257.57 6033.78,-2255.76 6034.07,-2253.98 6034.59,-2252.22 6035.33,-2250.5 6036.29,-2248.81 6037.48,-2247.17 6038.9,-2245.57 6040.55,-2244.02 6042.42,-2242.53 6044.51,-2241.1 6046.81,-2239.73 6049.33,-2238.42 6052.05,-2237.19 6054.97,-2236.03 6058.08,-2234.94 6061.36,-2233.94 6064.8,-2233.01 6068.4,-2232.17 6072.14,-2231.42 6076,-2230.76 6079.97,-2230.19 6084.04,-2229.72 6088.18,-2229.33 6092.39,-2229.04 6096.64,-2228.85 6100.91,-2228.75 6105.2,-2228.75 6109.47,-2228.85"/>
<text text-anchor="start" x="6073.89" y="-2273.79" font-family="Times,serif" font-size="14.00">C1293122</text>
<text text-anchor="start" x="6064.96" y="-2259.79" font-family="Times,serif" font-size="14.00">augmentation</text>
<text text-anchor="start" x="6087.11" y="-2245.79" font-family="Times,serif" font-size="14.00">77:77</text>
</g>
<!-- id_28118752_DOT_1&#45;&#45;id_28118752_DOT_17 -->
<g id="edge19" class="edge">
<title>id_28118752_DOT_1&#45;&#45;id_28118752_DOT_17</title>
<path fill="none" stroke="black" stroke-dasharray="1,5" d="M6238.33,-1913.7C6210.38,-1986.09 6144.89,-2155.66 6116.54,-2229.08"/>
<text text-anchor="middle" x="6151.18" y="-2074.19" font-family="Times,serif" font-size="14.00">0.655656</text>
</g>
<!-- id_28118752_DOT_2 -->
<g id="node2" class="node">
<title>id_28118752_DOT_2</title>
<polygon fill="bisque" stroke="bisque" points="7152.35,-2434.95 7155.9,-2435.14 7159.43,-2435.43 7162.9,-2435.82 7166.3,-2436.29 7169.63,-2436.86 7172.86,-2437.52 7175.99,-2438.28 7179.01,-2439.11 7181.89,-2440.04 7184.64,-2441.04 7187.24,-2442.13 7189.68,-2443.29 7191.96,-2444.52 7194.07,-2445.83 7196,-2447.2 7197.75,-2448.63 7199.32,-2450.12 7200.7,-2451.67 7201.88,-2453.27 7202.88,-2454.91 7203.69,-2456.6 7204.31,-2458.32 7204.74,-2460.08 7204.99,-2461.86 7205.05,-2463.67 7204.94,-2465.49 7204.66,-2467.32 7204.21,-2469.17 7203.61,-2471.01 7202.85,-2472.85 7201.95,-2474.69 7200.9,-2476.51 7199.73,-2478.32 7198.43,-2480.1 7197.02,-2481.86 7195.5,-2483.58 7193.88,-2485.26 7192.17,-2486.91 7190.38,-2488.51 7188.51,-2490.05 7186.57,-2491.55 7184.57,-2492.98 7182.51,-2494.35 7180.4,-2495.66 7178.25,-2496.89 7176.06,-2498.05 7173.83,-2499.14 7171.58,-2500.14 7169.3,-2501.07 7167,-2501.9 7164.68,-2502.65 7162.34,-2503.31 7160,-2503.89 7157.64,-2504.36 7155.28,-2504.75 7152.91,-2505.04 7150.54,-2505.23 7148.16,-2505.32 7145.78,-2505.32 7143.41,-2505.23 7141.04,-2505.04 7138.67,-2504.75 7136.3,-2504.36 7133.95,-2503.89 7131.6,-2503.31 7129.27,-2502.65 7126.95,-2501.9 7124.65,-2501.07 7122.37,-2500.14 7120.11,-2499.14 7117.89,-2498.05 7115.7,-2496.89 7113.54,-2495.66 7111.44,-2494.35 7109.38,-2492.98 7107.37,-2491.55 7105.43,-2490.05 7103.56,-2488.51 7101.77,-2486.91 7100.06,-2485.26 7098.44,-2483.58 7096.92,-2481.86 7095.51,-2480.1 7094.21,-2478.32 7093.04,-2476.51 7092,-2474.69 7091.09,-2472.85 7090.34,-2471.01 7089.73,-2469.17 7089.28,-2467.32 7089,-2465.49 7088.89,-2463.67 7088.96,-2461.86 7089.21,-2460.08 7089.64,-2458.32 7090.26,-2456.6 7091.06,-2454.91 7092.06,-2453.27 7093.25,-2451.67 7094.63,-2450.12 7096.19,-2448.63 7097.94,-2447.2 7099.87,-2445.83 7101.98,-2444.52 7104.26,-2443.29 7106.71,-2442.13 7109.31,-2441.04 7112.05,-2440.04 7114.94,-2439.11 7117.95,-2438.28 7121.08,-2437.52 7124.32,-2436.86 7127.64,-2436.29 7131.05,-2435.82 7134.52,-2435.43 7138.04,-2435.14 7141.6,-2434.95 7145.18,-2434.85 7148.77,-2434.85 7152.35,-2434.95"/>
<text text-anchor="start" x="7117.8" y="-2479.89" font-family="Times,serif" font-size="14.00">C0079466</text>
<text text-anchor="start" x="7116.27" y="-2465.89" font-family="Times,serif" font-size="14.00">guanfacine</text>
<text text-anchor="start" x="7138.03" y="-2451.89" font-family="Times,serif" font-size="14.00">4:4</text>
</g>
<!-- id_28118752_DOT_23 -->
<g id="node23" class="node">
<title>id_28118752_DOT_23</title>
<polygon fill="cornflowerblue" stroke="cornflowerblue" points="6797.59,-2619.04 6801.84,-2619.23 6806.05,-2619.52 6810.19,-2619.9 6814.26,-2620.38 6818.23,-2620.95 6822.09,-2621.61 6825.83,-2622.36 6829.43,-2623.2 6832.87,-2624.12 6836.15,-2625.13 6839.26,-2626.21 6842.18,-2627.38 6844.9,-2628.61 6847.42,-2629.91 6849.72,-2631.29 6851.81,-2632.72 6853.68,-2634.21 6855.33,-2635.76 6856.75,-2637.36 6857.94,-2639 6858.9,-2640.69 6859.64,-2642.41 6860.16,-2644.17 6860.45,-2645.95 6860.53,-2647.75 6860.4,-2649.58 6860.06,-2651.41 6859.53,-2653.25 6858.81,-2655.1 6857.9,-2656.94 6856.82,-2658.78 6855.58,-2660.6 6854.18,-2662.41 6852.63,-2664.19 6850.94,-2665.94 6849.13,-2667.67 6847.2,-2669.35 6845.15,-2671 6843.01,-2672.59 6840.78,-2674.14 6838.46,-2675.63 6836.07,-2677.07 6833.61,-2678.44 6831.09,-2679.75 6828.52,-2680.98 6825.9,-2682.14 6823.25,-2683.23 6820.55,-2684.23 6817.83,-2685.15 6815.08,-2685.99 6812.32,-2686.74 6809.53,-2687.4 6806.73,-2687.97 6803.91,-2688.45 6801.09,-2688.83 6798.26,-2689.12 6795.43,-2689.32 6792.59,-2689.41 6789.75,-2689.41 6786.92,-2689.32 6784.08,-2689.12 6781.26,-2688.83 6778.43,-2688.45 6775.62,-2687.97 6772.82,-2687.4 6770.03,-2686.74 6767.26,-2685.99 6764.51,-2685.15 6761.79,-2684.23 6759.1,-2683.23 6756.44,-2682.14 6753.83,-2680.98 6751.26,-2679.75 6748.74,-2678.44 6746.28,-2677.07 6743.89,-2675.63 6741.57,-2674.14 6739.34,-2672.59 6737.19,-2671 6735.15,-2669.35 6733.22,-2667.67 6731.41,-2665.94 6729.72,-2664.19 6728.17,-2662.41 6726.77,-2660.6 6725.52,-2658.78 6724.44,-2656.94 6723.54,-2655.1 6722.82,-2653.25 6722.28,-2651.41 6721.95,-2649.58 6721.82,-2647.75 6721.89,-2645.95 6722.19,-2644.17 6722.71,-2642.41 6723.44,-2640.69 6724.41,-2639 6725.6,-2637.36 6727.02,-2635.76 6728.66,-2634.21 6730.53,-2632.72 6732.62,-2631.29 6734.93,-2629.91 6737.45,-2628.61 6740.17,-2627.38 6743.09,-2626.21 6746.19,-2625.13 6749.47,-2624.12 6752.92,-2623.2 6756.52,-2622.36 6760.26,-2621.61 6764.12,-2620.95 6768.09,-2620.38 6772.16,-2619.9 6776.3,-2619.52 6780.51,-2619.23 6784.76,-2619.04 6789.03,-2618.94 6793.32,-2618.94 6797.59,-2619.04"/>
<text text-anchor="start" x="6762" y="-2663.98" font-family="Times,serif" font-size="14.00">C1293122</text>
<text text-anchor="start" x="6753.07" y="-2649.98" font-family="Times,serif" font-size="14.00">augmentation</text>
<text text-anchor="start" x="6768.23" y="-2635.98" font-family="Times,serif" font-size="14.00">126:126</text>
</g>
<!-- id_28118752_DOT_2&#45;&#45;id_28118752_DOT_23 -->
<g id="edge20" class="edge">
<title>id_28118752_DOT_2&#45;&#45;id_28118752_DOT_23</title>
<path fill="none" stroke="black" stroke-dasharray="1,5" d="M7106.5,-2491.03C7041.57,-2524.62 6914.18,-2590.53 6842.8,-2627.47"/>
<text text-anchor="middle" x="6948.4" y="-2562.05" font-family="Times,serif" font-size="14.00">0.786200</text>
</g>
<!-- id_28118752_DOT_3 -->
<g id="node3" class="node">
<title>id_28118752_DOT_3</title>
<polygon fill="blue" stroke="blue" points="2398.28,-763.97 2403.3,-764.16 2408.27,-764.45 2413.17,-764.83 2417.98,-765.31 2422.67,-765.88 2427.24,-766.54 2431.66,-767.29 2435.91,-768.13 2439.99,-769.05 2443.86,-770.06 2447.53,-771.14 2450.98,-772.31 2454.2,-773.54 2457.18,-774.84 2459.9,-776.22 2462.38,-777.65 2464.59,-779.14 2466.53,-780.69 2468.21,-782.29 2469.62,-783.93 2470.76,-785.62 2471.63,-787.34 2472.24,-789.1 2472.59,-790.88 2472.68,-792.68 2472.53,-794.51 2472.13,-796.34 2471.5,-798.18 2470.64,-800.03 2469.57,-801.87 2468.3,-803.71 2466.82,-805.53 2465.17,-807.34 2463.34,-809.12 2461.34,-810.87 2459.2,-812.6 2456.92,-814.28 2454.5,-815.93 2451.97,-817.52 2449.33,-819.07 2446.59,-820.56 2443.76,-822 2440.86,-823.37 2437.88,-824.68 2434.84,-825.91 2431.75,-827.07 2428.61,-828.16 2425.42,-829.16 2422.21,-830.08 2418.96,-830.92 2415.68,-831.67 2412.39,-832.33 2409.08,-832.9 2405.75,-833.38 2402.42,-833.76 2399.07,-834.05 2395.72,-834.25 2392.37,-834.34 2389.01,-834.34 2385.66,-834.25 2382.31,-834.05 2378.97,-833.76 2375.63,-833.38 2372.31,-832.9 2368.99,-832.33 2365.7,-831.67 2362.43,-830.92 2359.18,-830.08 2355.96,-829.16 2352.78,-828.16 2349.64,-827.07 2346.54,-825.91 2343.5,-824.68 2340.53,-823.37 2337.62,-822 2334.79,-820.56 2332.06,-819.07 2329.42,-817.52 2326.88,-815.93 2324.47,-814.28 2322.18,-812.6 2320.04,-810.87 2318.05,-809.12 2316.22,-807.34 2314.56,-805.53 2313.09,-803.71 2311.81,-801.87 2310.74,-800.03 2309.89,-798.18 2309.26,-796.34 2308.86,-794.51 2308.7,-792.68 2308.8,-790.88 2309.15,-789.1 2309.75,-787.34 2310.63,-785.62 2311.77,-783.93 2313.18,-782.29 2314.85,-780.69 2316.8,-779.14 2319.01,-777.65 2321.48,-776.22 2324.21,-774.84 2327.18,-773.54 2330.4,-772.31 2333.85,-771.14 2337.52,-770.06 2341.4,-769.05 2345.47,-768.13 2349.73,-767.29 2354.14,-766.54 2358.71,-765.88 2363.4,-765.31 2368.21,-764.83 2373.11,-764.45 2378.08,-764.16 2383.11,-763.97 2388.16,-763.87 2393.22,-763.87 2398.28,-763.97"/>
<text text-anchor="start" x="2361.52" y="-808.91" font-family="Times,serif" font-size="14.00">C1707968</text>
<text text-anchor="start" x="2344.25" y="-794.91" font-family="Times,serif" font-size="14.00">extended release</text>
<text text-anchor="start" x="2381.75" y="-780.91" font-family="Times,serif" font-size="14.00">5:6</text>
</g>
<!-- id_28118752_DOT_11 -->
<g id="node11" class="node">
<title>id_28118752_DOT_11</title>
<polygon fill="blue" stroke="blue" points="1983.95,-683.11 1992.35,-683.31 2000.65,-683.59 2008.84,-683.98 2016.88,-684.46 2024.72,-685.03 2032.36,-685.69 2039.74,-686.44 2046.85,-687.28 2053.66,-688.2 2060.14,-689.2 2066.27,-690.29 2072.04,-691.45 2077.42,-692.68 2082.39,-693.99 2086.95,-695.36 2091.08,-696.79 2094.77,-698.29 2098.02,-699.83 2100.83,-701.43 2103.18,-703.08 2105.09,-704.76 2106.55,-706.49 2107.56,-708.24 2108.15,-710.02 2108.3,-711.83 2108.04,-713.65 2107.38,-715.49 2106.33,-717.33 2104.9,-719.17 2103.11,-721.02 2100.97,-722.85 2098.51,-724.67 2095.75,-726.48 2092.69,-728.26 2089.36,-730.02 2085.77,-731.74 2081.95,-733.43 2077.92,-735.07 2073.69,-736.67 2069.27,-738.22 2064.7,-739.71 2059.97,-741.14 2055.11,-742.51 2050.14,-743.82 2045.06,-745.05 2039.89,-746.21 2034.64,-747.3 2029.32,-748.3 2023.94,-749.23 2018.51,-750.06 2013.04,-750.82 2007.53,-751.48 2002,-752.05 1996.44,-752.52 1990.86,-752.91 1985.28,-753.2 1979.68,-753.39 1974.07,-753.49 1968.47,-753.49 1962.86,-753.39 1957.26,-753.2 1951.67,-752.91 1946.1,-752.52 1940.54,-752.05 1935,-751.48 1929.5,-750.82 1924.03,-750.06 1918.6,-749.23 1913.22,-748.3 1907.9,-747.3 1902.65,-746.21 1897.48,-745.05 1892.4,-743.82 1887.42,-742.51 1882.57,-741.14 1877.84,-739.71 1873.26,-738.22 1868.85,-736.67 1864.62,-735.07 1860.58,-733.43 1856.77,-731.74 1853.18,-730.02 1849.85,-728.26 1846.79,-726.48 1844.02,-724.67 1841.56,-722.85 1839.43,-721.02 1837.64,-719.17 1836.21,-717.33 1835.16,-715.49 1834.49,-713.65 1834.23,-711.83 1834.39,-710.02 1834.97,-708.24 1835.99,-706.49 1837.45,-704.76 1839.36,-703.08 1841.71,-701.43 1844.51,-699.83 1847.76,-698.29 1851.46,-696.79 1855.59,-695.36 1860.15,-693.99 1865.12,-692.68 1870.5,-691.45 1876.26,-690.29 1882.4,-689.2 1888.88,-688.2 1895.69,-687.28 1902.8,-686.44 1910.18,-685.69 1917.81,-685.03 1925.66,-684.46 1933.7,-683.98 1941.88,-683.59 1950.19,-683.31 1958.59,-683.11 1967.04,-683.02 1975.5,-683.02 1983.95,-683.11"/>
<text text-anchor="start" x="1942.1" y="-728.05" font-family="Times,serif" font-size="14.00">C1707968</text>
<text text-anchor="start" x="1888.29" y="-714.05" font-family="Times,serif" font-size="14.00">guanfacine extended &#45; release</text>
<text text-anchor="start" x="1955.32" y="-700.05" font-family="Times,serif" font-size="14.00">39:42</text>
</g>
<!-- id_28118752_DOT_3&#45;&#45;id_28118752_DOT_11 -->
<g id="edge1" class="edge">
<title>id_28118752_DOT_3&#45;&#45;id_28118752_DOT_11</title>
<path fill="none" stroke="black" d="M2311.31,-783.8C2243.27,-770.69 2144.9,-751.72 2071.45,-737.56"/>
<text text-anchor="middle" x="2165.13" y="-763.48" font-family="Times,serif" font-size="14.00">0.041087</text>
</g>
<!-- id_28118752_DOT_19 -->
<g id="node19" class="node">
<title>id_28118752_DOT_19</title>
<polygon fill="crimson" stroke="crimson" points="2616.61,-1129.1 2620.21,-1129.29 2623.77,-1129.58 2627.29,-1129.97 2630.73,-1130.44 2634.1,-1131.02 2637.37,-1131.68 2640.54,-1132.43 2643.59,-1133.26 2646.51,-1134.19 2649.29,-1135.19 2651.92,-1136.28 2654.39,-1137.44 2656.7,-1138.67 2658.83,-1139.98 2660.79,-1141.35 2662.56,-1142.78 2664.14,-1144.28 2665.54,-1145.82 2666.74,-1147.42 2667.75,-1149.07 2668.57,-1150.75 2669.19,-1152.47 2669.63,-1154.23 2669.88,-1156.01 2669.95,-1157.82 2669.83,-1159.64 2669.55,-1161.48 2669.1,-1163.32 2668.48,-1165.16 2667.72,-1167.01 2666.8,-1168.84 2665.75,-1170.66 2664.56,-1172.47 2663.25,-1174.25 2661.82,-1176.01 2660.28,-1177.73 2658.64,-1179.42 2656.91,-1181.06 2655.1,-1182.66 2653.2,-1184.21 2651.24,-1185.7 2649.22,-1187.13 2647.13,-1188.5 2645,-1189.81 2642.82,-1191.04 2640.6,-1192.2 2638.35,-1193.29 2636.07,-1194.29 2633.76,-1195.22 2631.43,-1196.05 2629.09,-1196.81 2626.73,-1197.47 2624.35,-1198.04 2621.97,-1198.51 2619.58,-1198.9 2617.18,-1199.19 2614.78,-1199.38 2612.37,-1199.48 2609.97,-1199.48 2607.57,-1199.38 2605.16,-1199.19 2602.77,-1198.9 2600.38,-1198.51 2597.99,-1198.04 2595.62,-1197.47 2593.26,-1196.81 2590.91,-1196.05 2588.58,-1195.22 2586.27,-1194.29 2583.99,-1193.29 2581.74,-1192.2 2579.52,-1191.04 2577.34,-1189.81 2575.21,-1188.5 2573.13,-1187.13 2571.1,-1185.7 2569.14,-1184.21 2567.25,-1182.66 2565.43,-1181.06 2563.7,-1179.42 2562.06,-1177.73 2560.52,-1176.01 2559.1,-1174.25 2557.78,-1172.47 2556.6,-1170.66 2555.54,-1168.84 2554.63,-1167.01 2553.86,-1165.16 2553.25,-1163.32 2552.79,-1161.48 2552.51,-1159.64 2552.4,-1157.82 2552.47,-1156.01 2552.72,-1154.23 2553.15,-1152.47 2553.78,-1150.75 2554.59,-1149.07 2555.6,-1147.42 2556.81,-1145.82 2558.2,-1144.28 2559.78,-1142.78 2561.56,-1141.35 2563.51,-1139.98 2565.65,-1138.67 2567.95,-1137.44 2570.42,-1136.28 2573.06,-1135.19 2575.84,-1134.19 2578.76,-1133.26 2581.8,-1132.43 2584.97,-1131.68 2588.24,-1131.02 2591.61,-1130.44 2595.06,-1129.97 2598.57,-1129.58 2602.13,-1129.29 2605.73,-1129.1 2609.36,-1129.01 2612.99,-1129.01 2616.61,-1129.1"/>
<text text-anchor="start" x="2582" y="-1174.04" font-family="Times,serif" font-size="14.00">C2081612</text>
<text text-anchor="start" x="2580.07" y="-1160.04" font-family="Times,serif" font-size="14.00">medication</text>
<text text-anchor="start" x="2595.23" y="-1146.04" font-family="Times,serif" font-size="14.00">95:95</text>
</g>
<!-- id_28118752_DOT_3&#45;&#45;id_28118752_DOT_19 -->
<g id="edge21" class="edge">
<title>id_28118752_DOT_3&#45;&#45;id_28118752_DOT_19</title>
<path fill="none" stroke="black" stroke-dasharray="1,5" d="M2411.04,-832.8C2452.99,-902.27 2548.67,-1060.73 2590.71,-1130.36"/>
<text text-anchor="middle" x="2474.63" y="-984.38" font-family="Times,serif" font-size="14.00">0.894069</text>
</g>
<!-- id_28118752_DOT_21 -->
<g id="node21" class="node">
<title>id_28118752_DOT_21</title>
<polygon fill="darkgreen" stroke="darkgreen" points="2596.66,-384.18 2600.09,-384.37 2603.48,-384.66 2606.83,-385.05 2610.11,-385.52 2613.31,-386.09 2616.43,-386.76 2619.44,-387.51 2622.35,-388.34 2625.13,-389.27 2627.77,-390.27 2630.28,-391.36 2632.63,-392.52 2634.83,-393.75 2636.86,-395.06 2638.72,-396.43 2640.41,-397.86 2641.92,-399.36 2643.24,-400.9 2644.39,-402.5 2645.35,-404.15 2646.13,-405.83 2646.72,-407.55 2647.14,-409.31 2647.38,-411.09 2647.44,-412.9 2647.33,-414.72 2647.06,-416.55 2646.63,-418.4 2646.05,-420.24 2645.32,-422.09 2644.45,-423.92 2643.44,-425.74 2642.31,-427.55 2641.06,-429.33 2639.7,-431.09 2638.24,-432.81 2636.68,-434.49 2635.03,-436.14 2633.3,-437.74 2631.5,-439.28 2629.63,-440.78 2627.7,-442.21 2625.72,-443.58 2623.69,-444.89 2621.62,-446.12 2619.5,-447.28 2617.36,-448.37 2615.19,-449.37 2612.99,-450.3 2610.77,-451.13 2608.54,-451.88 2606.29,-452.55 2604.03,-453.12 2601.76,-453.59 2599.49,-453.98 2597.2,-454.27 2594.92,-454.46 2592.63,-454.56 2590.34,-454.56 2588.05,-454.46 2585.76,-454.27 2583.48,-453.98 2581.21,-453.59 2578.94,-453.12 2576.68,-452.55 2574.43,-451.88 2572.19,-451.13 2569.98,-450.3 2567.78,-449.37 2565.61,-448.37 2563.46,-447.28 2561.35,-446.12 2559.28,-444.89 2557.25,-443.58 2555.26,-442.21 2553.33,-440.78 2551.47,-439.28 2549.66,-437.74 2547.93,-436.14 2546.29,-434.49 2544.73,-432.81 2543.26,-431.09 2541.9,-429.33 2540.66,-427.55 2539.52,-425.74 2538.52,-423.92 2537.65,-422.09 2536.92,-420.24 2536.33,-418.4 2535.9,-416.55 2535.63,-414.72 2535.53,-412.9 2535.59,-411.09 2535.83,-409.31 2536.25,-407.55 2536.84,-405.83 2537.62,-404.15 2538.58,-402.5 2539.72,-400.9 2541.05,-399.36 2542.56,-397.86 2544.25,-396.43 2546.11,-395.06 2548.14,-393.75 2550.34,-392.52 2552.69,-391.36 2555.19,-390.27 2557.84,-389.27 2560.62,-388.34 2563.52,-387.51 2566.54,-386.76 2569.66,-386.09 2572.86,-385.52 2576.14,-385.05 2579.48,-384.66 2582.88,-384.37 2586.31,-384.18 2589.76,-384.08 2593.21,-384.08 2596.66,-384.18"/>
<text text-anchor="start" x="2562.32" y="-429.12" font-family="Times,serif" font-size="14.00">C3161035</text>
<text text-anchor="start" x="2571.26" y="-415.12" font-family="Times,serif" font-size="14.00">models</text>
<text text-anchor="start" x="2568.54" y="-401.12" font-family="Times,serif" font-size="14.00">107:107</text>
</g>
<!-- id_28118752_DOT_3&#45;&#45;id_28118752_DOT_21 -->
<g id="edge22" class="edge">
<title>id_28118752_DOT_3&#45;&#45;id_28118752_DOT_21</title>
<path fill="none" stroke="black" stroke-dasharray="1,5" d="M2409.04,-764.4C2447.62,-691.43 2536.67,-523 2574.25,-451.92"/>
<text text-anchor="middle" x="2465.4" y="-610.96" font-family="Times,serif" font-size="14.00">0.897723</text>
</g>
<!-- id_28118752_DOT_4 -->
<g id="node4" class="node">
<title>id_28118752_DOT_4</title>
<polygon fill="blueviolet" stroke="blueviolet" points="5328.93,-2313.13 5332.36,-2313.32 5335.75,-2313.61 5339.09,-2313.99 5342.37,-2314.47 5345.58,-2315.04 5348.7,-2315.7 5351.71,-2316.45 5354.61,-2317.29 5357.39,-2318.21 5360.04,-2319.22 5362.55,-2320.3 5364.9,-2321.47 5367.1,-2322.7 5369.13,-2324 5370.99,-2325.38 5372.68,-2326.81 5374.18,-2328.3 5375.51,-2329.85 5376.66,-2331.45 5377.62,-2333.09 5378.39,-2334.78 5378.99,-2336.5 5379.41,-2338.26 5379.64,-2340.04 5379.71,-2341.84 5379.6,-2343.67 5379.33,-2345.5 5378.9,-2347.34 5378.32,-2349.19 5377.59,-2351.03 5376.72,-2352.87 5375.71,-2354.69 5374.58,-2356.5 5373.33,-2358.28 5371.97,-2360.03 5370.51,-2361.76 5368.95,-2363.44 5367.3,-2365.09 5365.57,-2366.68 5363.77,-2368.23 5361.9,-2369.72 5359.97,-2371.16 5357.99,-2372.53 5355.96,-2373.84 5353.88,-2375.07 5351.77,-2376.23 5349.63,-2377.32 5347.46,-2378.32 5345.26,-2379.24 5343.04,-2380.08 5340.81,-2380.83 5338.56,-2381.49 5336.3,-2382.06 5334.03,-2382.54 5331.75,-2382.92 5329.47,-2383.21 5327.18,-2383.41 5324.9,-2383.5 5322.61,-2383.5 5320.32,-2383.41 5318.03,-2383.21 5315.75,-2382.92 5313.47,-2382.54 5311.2,-2382.06 5308.94,-2381.49 5306.69,-2380.83 5304.46,-2380.08 5302.24,-2379.24 5300.05,-2378.32 5297.88,-2377.32 5295.73,-2376.23 5293.62,-2375.07 5291.55,-2373.84 5289.51,-2372.53 5287.53,-2371.16 5285.6,-2369.72 5283.73,-2368.23 5281.93,-2366.68 5280.2,-2365.09 5278.55,-2363.44 5277,-2361.76 5275.53,-2360.03 5274.17,-2358.28 5272.92,-2356.5 5271.79,-2354.69 5270.79,-2352.87 5269.92,-2351.03 5269.19,-2349.19 5268.6,-2347.34 5268.17,-2345.5 5267.9,-2343.67 5267.8,-2341.84 5267.86,-2340.04 5268.1,-2338.26 5268.51,-2336.5 5269.11,-2334.78 5269.89,-2333.09 5270.85,-2331.45 5271.99,-2329.85 5273.32,-2328.3 5274.83,-2326.81 5276.51,-2325.38 5278.38,-2324 5280.41,-2322.7 5282.6,-2321.47 5284.96,-2320.3 5287.46,-2319.22 5290.11,-2318.21 5292.89,-2317.29 5295.79,-2316.45 5298.81,-2315.7 5301.92,-2315.04 5305.13,-2314.47 5308.41,-2313.99 5311.75,-2313.61 5315.15,-2313.32 5318.57,-2313.13 5322.02,-2313.03 5325.48,-2313.03 5328.93,-2313.13"/>
<text text-anchor="start" x="5294.58" y="-2358.07" font-family="Times,serif" font-size="14.00">C0304402</text>
<text text-anchor="start" x="5297.7" y="-2344.07" font-family="Times,serif" font-size="14.00">stimulant</text>
<text text-anchor="start" x="5314.81" y="-2330.07" font-family="Times,serif" font-size="14.00">8:8</text>
</g>
<!-- id_28118752_DOT_7 -->
<g id="node7" class="node">
<title>id_28118752_DOT_7</title>
<polygon fill="blueviolet" stroke="blueviolet" points="4941.22,-2351.45 4944.65,-2351.64 4948.04,-2351.93 4951.38,-2352.31 4954.66,-2352.79 4957.87,-2353.36 4960.99,-2354.02 4964,-2354.77 4966.9,-2355.61 4969.68,-2356.53 4972.33,-2357.54 4974.84,-2358.62 4977.19,-2359.78 4979.39,-2361.02 4981.42,-2362.32 4983.28,-2363.69 4984.97,-2365.13 4986.47,-2366.62 4987.8,-2368.17 4988.95,-2369.77 4989.91,-2371.41 4990.68,-2373.1 4991.28,-2374.82 4991.7,-2376.57 4991.93,-2378.36 4992,-2380.16 4991.89,-2381.98 4991.62,-2383.82 4991.19,-2385.66 4990.61,-2387.51 4989.88,-2389.35 4989.01,-2391.19 4988,-2393.01 4986.87,-2394.81 4985.62,-2396.6 4984.26,-2398.35 4982.8,-2400.07 4981.24,-2401.76 4979.59,-2403.4 4977.86,-2405 4976.06,-2406.55 4974.19,-2408.04 4972.26,-2409.48 4970.28,-2410.85 4968.25,-2412.15 4966.17,-2413.39 4964.06,-2414.55 4961.92,-2415.63 4959.75,-2416.64 4957.55,-2417.56 4955.33,-2418.4 4953.1,-2419.15 4950.85,-2419.81 4948.59,-2420.38 4946.32,-2420.86 4944.04,-2421.24 4941.76,-2421.53 4939.47,-2421.72 4937.19,-2421.82 4934.9,-2421.82 4932.61,-2421.72 4930.32,-2421.53 4928.04,-2421.24 4925.76,-2420.86 4923.49,-2420.38 4921.23,-2419.81 4918.98,-2419.15 4916.75,-2418.4 4914.53,-2417.56 4912.34,-2416.64 4910.17,-2415.63 4908.02,-2414.55 4905.91,-2413.39 4903.84,-2412.15 4901.8,-2410.85 4899.82,-2409.48 4897.89,-2408.04 4896.02,-2406.55 4894.22,-2405 4892.49,-2403.4 4890.84,-2401.76 4889.29,-2400.07 4887.82,-2398.35 4886.46,-2396.6 4885.21,-2394.81 4884.08,-2393.01 4883.08,-2391.19 4882.21,-2389.35 4881.48,-2387.51 4880.89,-2385.66 4880.46,-2383.82 4880.19,-2381.98 4880.09,-2380.16 4880.15,-2378.36 4880.39,-2376.57 4880.8,-2374.82 4881.4,-2373.1 4882.18,-2371.41 4883.14,-2369.77 4884.28,-2368.17 4885.61,-2366.62 4887.12,-2365.13 4888.8,-2363.69 4890.67,-2362.32 4892.7,-2361.02 4894.89,-2359.78 4897.25,-2358.62 4899.75,-2357.54 4902.4,-2356.53 4905.18,-2355.61 4908.08,-2354.77 4911.1,-2354.02 4914.21,-2353.36 4917.42,-2352.79 4920.7,-2352.31 4924.04,-2351.93 4927.44,-2351.64 4930.86,-2351.45 4934.31,-2351.35 4937.77,-2351.35 4941.22,-2351.45"/>
<text text-anchor="start" x="4906.87" y="-2396.39" font-family="Times,serif" font-size="14.00">C0304402</text>
<text text-anchor="start" x="4909.99" y="-2382.39" font-family="Times,serif" font-size="14.00">stimulant</text>
<text text-anchor="start" x="4920.1" y="-2368.39" font-family="Times,serif" font-size="14.00">23:23</text>
</g>
<!-- id_28118752_DOT_4&#45;&#45;id_28118752_DOT_7 -->
<g id="edge2" class="edge">
<title>id_28118752_DOT_4&#45;&#45;id_28118752_DOT_7</title>
<path fill="none" stroke="black" d="M5271.06,-2353.48C5198.08,-2360.69 5066.79,-2373.66 4992.07,-2381.05"/>
<text text-anchor="middle" x="5105.32" y="-2370.06" font-family="Times,serif" font-size="14.00">0.000323</text>
</g>
<!-- id_28118752_DOT_10 -->
<g id="node10" class="node">
<title>id_28118752_DOT_10</title>
<polygon fill="chartreuse" stroke="chartreuse" points="5718.62,-2290.72 5725.21,-2290.92 5731.74,-2291.2 5738.17,-2291.59 5744.47,-2292.07 5750.64,-2292.64 5756.63,-2293.3 5762.43,-2294.05 5768.01,-2294.88 5773.35,-2295.81 5778.44,-2296.81 5783.26,-2297.9 5787.79,-2299.06 5792.01,-2300.29 5795.92,-2301.6 5799.5,-2302.97 5802.74,-2304.4 5805.64,-2305.9 5808.19,-2307.44 5810.39,-2309.04 5812.24,-2310.69 5813.74,-2312.37 5814.88,-2314.1 5815.68,-2315.85 5816.14,-2317.63 5816.26,-2319.44 5816.06,-2321.26 5815.54,-2323.1 5814.71,-2324.94 5813.59,-2326.78 5812.18,-2328.63 5810.51,-2330.46 5808.58,-2332.28 5806.4,-2334.09 5804,-2335.87 5801.39,-2337.63 5798.57,-2339.35 5795.57,-2341.04 5792.41,-2342.68 5789.08,-2344.28 5785.62,-2345.83 5782.02,-2347.32 5778.31,-2348.75 5774.5,-2350.12 5770.59,-2351.43 5766.6,-2352.66 5762.54,-2353.82 5758.42,-2354.91 5754.24,-2355.91 5750.02,-2356.84 5745.76,-2357.67 5741.46,-2358.43 5737.14,-2359.09 5732.79,-2359.66 5728.43,-2360.13 5724.05,-2360.52 5719.66,-2360.81 5715.27,-2361 5710.86,-2361.1 5706.46,-2361.1 5702.06,-2361 5697.67,-2360.81 5693.28,-2360.52 5688.9,-2360.13 5684.53,-2359.66 5680.19,-2359.09 5675.86,-2358.43 5671.57,-2357.67 5667.31,-2356.84 5663.08,-2355.91 5658.91,-2354.91 5654.78,-2353.82 5650.72,-2352.66 5646.74,-2351.43 5642.83,-2350.12 5639.02,-2348.75 5635.31,-2347.32 5631.71,-2345.83 5628.25,-2344.28 5624.92,-2342.68 5621.75,-2341.04 5618.76,-2339.35 5615.94,-2337.63 5613.33,-2335.87 5610.92,-2334.09 5608.75,-2332.28 5606.82,-2330.46 5605.14,-2328.63 5603.74,-2326.78 5602.62,-2324.94 5601.79,-2323.1 5601.27,-2321.26 5601.06,-2319.44 5601.19,-2317.63 5601.65,-2315.85 5602.44,-2314.1 5603.59,-2312.37 5605.09,-2310.69 5606.93,-2309.04 5609.14,-2307.44 5611.69,-2305.9 5614.59,-2304.4 5617.83,-2302.97 5621.41,-2301.6 5625.32,-2300.29 5629.54,-2299.06 5634.07,-2297.9 5638.88,-2296.81 5643.97,-2295.81 5649.32,-2294.88 5654.9,-2294.05 5660.7,-2293.3 5666.69,-2292.64 5672.85,-2292.07 5679.16,-2291.59 5685.59,-2291.2 5692.11,-2290.92 5698.71,-2290.72 5705.34,-2290.63 5711.99,-2290.63 5718.62,-2290.72"/>
<text text-anchor="start" x="5679.49" y="-2335.66" font-family="Times,serif" font-size="14.00">C0449986</text>
<text text-anchor="start" x="5645.09" y="-2321.66" font-family="Times,serif" font-size="14.00">augmenting stimulants</text>
<text text-anchor="start" x="5692.72" y="-2307.66" font-family="Times,serif" font-size="14.00">36:37</text>
</g>
<!-- id_28118752_DOT_4&#45;&#45;id_28118752_DOT_10 -->
<g id="edge3" class="edge">
<title>id_28118752_DOT_4&#45;&#45;id_28118752_DOT_10</title>
<path fill="none" stroke="black" d="M5379.72,-2345.01C5439.35,-2341.54 5535,-2335.97 5607.83,-2331.73"/>
<text text-anchor="middle" x="5467.52" y="-2341.17" font-family="Times,serif" font-size="14.00">0.036873</text>
</g>
<!-- id_28118752_DOT_5 -->
<g id="node5" class="node">
<title>id_28118752_DOT_5</title>
<polygon fill="brown" stroke="brown" points="1010.45,-316.73 1015.61,-316.92 1020.71,-317.21 1025.74,-317.6 1030.67,-318.07 1035.49,-318.64 1040.18,-319.3 1044.71,-320.06 1049.07,-320.89 1053.25,-321.82 1057.23,-322.82 1061,-323.91 1064.54,-325.07 1067.84,-326.3 1070.9,-327.61 1073.7,-328.98 1076.23,-330.41 1078.5,-331.9 1080.5,-333.45 1082.22,-335.05 1083.66,-336.69 1084.83,-338.38 1085.73,-340.1 1086.35,-341.86 1086.71,-343.64 1086.81,-345.45 1086.65,-347.27 1086.24,-349.1 1085.59,-350.95 1084.72,-352.79 1083.62,-354.63 1082.31,-356.47 1080.8,-358.29 1079.1,-360.1 1077.22,-361.88 1075.17,-363.63 1072.97,-365.36 1070.63,-367.04 1068.15,-368.69 1065.55,-370.29 1062.84,-371.83 1060.03,-373.33 1057.13,-374.76 1054.15,-376.13 1051.09,-377.44 1047.98,-378.67 1044.8,-379.83 1041.58,-380.92 1038.31,-381.92 1035.01,-382.85 1031.68,-383.68 1028.32,-384.43 1024.94,-385.09 1021.54,-385.67 1018.12,-386.14 1014.7,-386.53 1011.27,-386.81 1007.83,-387.01 1004.39,-387.1 1000.95,-387.1 997.51,-387.01 994.07,-386.81 990.64,-386.53 987.21,-386.14 983.8,-385.67 980.4,-385.09 977.02,-384.43 973.66,-383.68 970.33,-382.85 967.03,-381.92 963.76,-380.92 960.54,-379.83 957.36,-378.67 954.24,-377.44 951.19,-376.13 948.21,-374.76 945.31,-373.33 942.5,-371.83 939.79,-370.29 937.19,-368.69 934.71,-367.04 932.37,-365.36 930.16,-363.63 928.12,-361.88 926.24,-360.1 924.54,-358.29 923.03,-356.47 921.72,-354.63 920.62,-352.79 919.74,-350.95 919.1,-349.1 918.69,-347.27 918.53,-345.45 918.63,-343.64 918.99,-341.86 919.61,-340.1 920.51,-338.38 921.68,-336.69 923.12,-335.05 924.84,-333.45 926.84,-331.9 929.11,-330.41 931.64,-328.98 934.44,-327.61 937.5,-326.3 940.8,-325.07 944.34,-323.91 948.1,-322.82 952.08,-321.82 956.26,-320.89 960.63,-320.06 965.16,-319.3 969.85,-318.64 974.67,-318.07 979.6,-317.6 984.63,-317.21 989.73,-316.92 994.88,-316.73 1000.07,-316.63 1005.27,-316.63 1010.45,-316.73"/>
<text text-anchor="start" x="973.5" y="-361.67" font-family="Times,serif" font-size="14.00">C0041671</text>
<text text-anchor="start" x="954.85" y="-347.67" font-family="Times,serif" font-size="14.00">attention &#45; deficit</text>
<text text-anchor="start" x="986.72" y="-333.67" font-family="Times,serif" font-size="14.00">15:17</text>
</g>
<!-- id_28118752_DOT_8 -->
<g id="node8" class="node">
<title>id_28118752_DOT_8</title>
<polygon fill="brown" stroke="brown" points="1175.17,-698.15 1180.32,-698.34 1185.43,-698.63 1190.45,-699.01 1195.39,-699.49 1200.2,-700.06 1204.89,-700.72 1209.42,-701.47 1213.79,-702.31 1217.97,-703.23 1221.95,-704.24 1225.72,-705.32 1229.25,-706.48 1232.56,-707.72 1235.61,-709.02 1238.41,-710.39 1240.95,-711.83 1243.21,-713.32 1245.21,-714.87 1246.93,-716.47 1248.38,-718.11 1249.55,-719.8 1250.44,-721.52 1251.07,-723.27 1251.43,-725.06 1251.52,-726.86 1251.36,-728.68 1250.96,-730.52 1250.31,-732.36 1249.43,-734.21 1248.33,-736.05 1247.02,-737.88 1245.51,-739.71 1243.81,-741.51 1241.93,-743.29 1239.89,-745.05 1237.69,-746.77 1235.34,-748.46 1232.87,-750.1 1230.27,-751.7 1227.56,-753.25 1224.75,-754.74 1221.85,-756.18 1218.86,-757.55 1215.81,-758.85 1212.69,-760.09 1209.52,-761.25 1206.29,-762.33 1203.03,-763.34 1199.72,-764.26 1196.39,-765.1 1193.03,-765.85 1189.65,-766.51 1186.25,-767.08 1182.84,-767.56 1179.42,-767.94 1175.98,-768.23 1172.55,-768.42 1169.1,-768.52 1165.66,-768.52 1162.22,-768.42 1158.78,-768.23 1155.35,-767.94 1151.93,-767.56 1148.52,-767.08 1145.12,-766.51 1141.74,-765.85 1138.38,-765.1 1135.04,-764.26 1131.74,-763.34 1128.48,-762.33 1125.25,-761.25 1122.08,-760.09 1118.96,-758.85 1115.9,-757.55 1112.92,-756.18 1110.02,-754.74 1107.21,-753.25 1104.5,-751.7 1101.9,-750.1 1099.42,-748.46 1097.08,-746.77 1094.88,-745.05 1092.83,-743.29 1090.96,-741.51 1089.26,-739.71 1087.75,-737.88 1086.44,-736.05 1085.34,-734.21 1084.46,-732.36 1083.81,-730.52 1083.41,-728.68 1083.25,-726.86 1083.34,-725.06 1083.7,-723.27 1084.33,-721.52 1085.22,-719.8 1086.39,-718.11 1087.84,-716.47 1089.56,-714.87 1091.55,-713.32 1093.82,-711.83 1096.36,-710.39 1099.16,-709.02 1102.21,-707.72 1105.51,-706.48 1109.05,-705.32 1112.82,-704.24 1116.8,-703.23 1120.98,-702.31 1125.34,-701.47 1129.88,-700.72 1134.56,-700.06 1139.38,-699.49 1144.31,-699.01 1149.34,-698.63 1154.44,-698.34 1159.6,-698.15 1164.78,-698.05 1169.98,-698.05 1175.17,-698.15"/>
<text text-anchor="start" x="1138.21" y="-743.08" font-family="Times,serif" font-size="14.00">C0041671</text>
<text text-anchor="start" x="1119.56" y="-729.08" font-family="Times,serif" font-size="14.00">attention &#45; deficit</text>
<text text-anchor="start" x="1151.44" y="-715.08" font-family="Times,serif" font-size="14.00">30:32</text>
</g>
<!-- id_28118752_DOT_5&#45;&#45;id_28118752_DOT_8 -->
<g id="edge4" class="edge">
<title>id_28118752_DOT_5&#45;&#45;id_28118752_DOT_8</title>
<path fill="none" stroke="black" d="M1017.58,-386.39C1048.82,-458.73 1120.85,-625.54 1152.27,-698.29"/>
<text text-anchor="middle" x="1058.67" y="-545.14" font-family="Times,serif" font-size="14.00">0.004750</text>
</g>
<!-- id_28118752_DOT_6 -->
<g id="node6" class="node">
<title>id_28118752_DOT_6</title>
<polygon fill="cadetblue" stroke="cadetblue" points="482.51,-1031.69 488.92,-1031.88 495.27,-1032.17 501.53,-1032.56 507.66,-1033.03 513.66,-1033.6 519.49,-1034.27 525.13,-1035.02 530.56,-1035.85 535.77,-1036.78 540.72,-1037.78 545.4,-1038.87 549.81,-1040.03 553.92,-1041.26 557.72,-1042.57 561.2,-1043.94 564.36,-1045.37 567.18,-1046.87 569.66,-1048.41 571.81,-1050.01 573.6,-1051.66 575.06,-1053.34 576.17,-1055.06 576.95,-1056.82 577.4,-1058.6 577.52,-1060.41 577.32,-1062.23 576.81,-1064.06 576.01,-1065.91 574.92,-1067.75 573.55,-1069.6 571.92,-1071.43 570.04,-1073.25 567.92,-1075.06 565.59,-1076.84 563.04,-1078.6 560.3,-1080.32 557.39,-1082 554.3,-1083.65 551.07,-1085.25 547.7,-1086.79 544.2,-1088.29 540.59,-1089.72 536.88,-1091.09 533.08,-1092.4 529.2,-1093.63 525.25,-1094.79 521.23,-1095.88 517.17,-1096.88 513.06,-1097.81 508.91,-1098.64 504.73,-1099.39 500.53,-1100.06 496.3,-1100.63 492.05,-1101.1 487.79,-1101.49 483.52,-1101.78 479.24,-1101.97 474.96,-1102.07 470.68,-1102.07 466.39,-1101.97 462.12,-1101.78 457.85,-1101.49 453.59,-1101.1 449.34,-1100.63 445.11,-1100.06 440.9,-1099.39 436.72,-1098.64 432.58,-1097.81 428.47,-1096.88 424.4,-1095.88 420.39,-1094.79 416.44,-1093.63 412.56,-1092.4 408.76,-1091.09 405.05,-1089.72 401.44,-1088.29 397.94,-1086.79 394.57,-1085.25 391.33,-1083.65 388.25,-1082 385.33,-1080.32 382.59,-1078.6 380.05,-1076.84 377.71,-1075.06 375.6,-1073.25 373.72,-1071.43 372.09,-1069.6 370.72,-1067.75 369.63,-1065.91 368.82,-1064.06 368.32,-1062.23 368.12,-1060.41 368.24,-1058.6 368.68,-1056.82 369.46,-1055.06 370.58,-1053.34 372.03,-1051.66 373.83,-1050.01 375.97,-1048.41 378.45,-1046.87 381.28,-1045.37 384.43,-1043.94 387.92,-1042.57 391.72,-1041.26 395.83,-1040.03 400.23,-1038.87 404.92,-1037.78 409.87,-1036.78 415.07,-1035.85 420.5,-1035.02 426.15,-1034.27 431.98,-1033.6 437.97,-1033.03 444.11,-1032.56 450.37,-1032.17 456.71,-1031.88 463.13,-1031.69 469.58,-1031.59 476.05,-1031.59 482.51,-1031.69"/>
<text text-anchor="start" x="443.65" y="-1076.63" font-family="Times,serif" font-size="14.00">C1263846</text>
<text text-anchor="start" x="411.2" y="-1062.63" font-family="Times,serif" font-size="14.00">hyperactivity disorder</text>
<text text-anchor="start" x="456.87" y="-1048.63" font-family="Times,serif" font-size="14.00">19:20</text>
</g>
<!-- id_28118752_DOT_9 -->
<g id="node9" class="node">
<title>id_28118752_DOT_9</title>
<polygon fill="cadetblue" stroke="cadetblue" points="114.54,-1072.32 120.95,-1072.51 127.3,-1072.8 133.56,-1073.18 139.7,-1073.66 145.69,-1074.23 151.52,-1074.89 157.16,-1075.64 162.6,-1076.48 167.8,-1077.4 172.75,-1078.41 177.44,-1079.49 181.84,-1080.65 185.95,-1081.89 189.75,-1083.19 193.23,-1084.56 196.39,-1086 199.21,-1087.49 201.7,-1089.04 203.84,-1090.64 205.64,-1092.28 207.09,-1093.97 208.21,-1095.69 208.98,-1097.44 209.43,-1099.23 209.55,-1101.03 209.35,-1102.85 208.85,-1104.69 208.04,-1106.53 206.95,-1108.38 205.58,-1110.22 203.95,-1112.06 202.07,-1113.88 199.95,-1115.68 197.62,-1117.47 195.07,-1119.22 192.33,-1120.94 189.42,-1122.63 186.33,-1124.27 183.1,-1125.87 179.73,-1127.42 176.23,-1128.91 172.62,-1130.35 168.91,-1131.72 165.11,-1133.02 161.23,-1134.26 157.28,-1135.42 153.27,-1136.5 149.2,-1137.51 145.09,-1138.43 140.94,-1139.27 136.76,-1140.02 132.56,-1140.68 128.33,-1141.25 124.08,-1141.73 119.82,-1142.11 115.55,-1142.4 111.27,-1142.59 106.99,-1142.69 102.71,-1142.69 98.43,-1142.59 94.15,-1142.4 89.88,-1142.11 85.62,-1141.73 81.37,-1141.25 77.14,-1140.68 72.93,-1140.02 68.75,-1139.27 64.61,-1138.43 60.5,-1137.51 56.43,-1136.5 52.42,-1135.42 48.47,-1134.26 44.59,-1133.02 40.79,-1131.72 37.08,-1130.35 33.47,-1128.91 29.97,-1127.42 26.6,-1125.87 23.36,-1124.27 20.28,-1122.63 17.36,-1120.94 14.63,-1119.22 12.08,-1117.47 9.74,-1115.68 7.63,-1113.88 5.75,-1112.06 4.12,-1110.22 2.75,-1108.38 1.66,-1106.53 0.85,-1104.69 0.35,-1102.85 0.15,-1101.03 0.27,-1099.23 0.72,-1097.44 1.49,-1095.69 2.61,-1093.97 4.06,-1092.28 5.86,-1090.64 8,-1089.04 10.49,-1087.49 13.31,-1086 16.47,-1084.56 19.95,-1083.19 23.75,-1081.89 27.86,-1080.65 32.26,-1079.49 36.95,-1078.41 41.9,-1077.4 47.1,-1076.48 52.54,-1075.64 58.18,-1074.89 64.01,-1074.23 70,-1073.66 76.14,-1073.18 82.4,-1072.8 88.75,-1072.51 95.16,-1072.32 101.62,-1072.22 108.08,-1072.22 114.54,-1072.32"/>
<text text-anchor="start" x="75.68" y="-1117.26" font-family="Times,serif" font-size="14.00">C1263846</text>
<text text-anchor="start" x="43.23" y="-1103.26" font-family="Times,serif" font-size="14.00">hyperactivity disorder</text>
<text text-anchor="start" x="88.9" y="-1089.26" font-family="Times,serif" font-size="14.00">34:35</text>
</g>
<!-- id_28118752_DOT_6&#45;&#45;id_28118752_DOT_9 -->
<g id="edge5" class="edge">
<title>id_28118752_DOT_6&#45;&#45;id_28118752_DOT_9</title>
<path fill="none" stroke="black" d="M379.96,-1077.08C327.7,-1082.85 262.3,-1090.07 208.38,-1096.03"/>
<text text-anchor="middle" x="267.92" y="-1089.35" font-family="Times,serif" font-size="14.00">0.005329</text>
</g>
<!-- id_28118752_DOT_12 -->
<g id="node12" class="node">
<title>id_28118752_DOT_12</title>
<polygon fill="cadetblue" stroke="cadetblue" points="853.34,-923.19 864.68,-923.39 875.91,-923.68 886.97,-924.06 897.83,-924.54 908.43,-925.11 918.74,-925.77 928.72,-926.52 938.32,-927.36 947.52,-928.28 956.28,-929.28 964.56,-930.37 972.35,-931.53 979.62,-932.77 986.34,-934.07 992.5,-935.44 998.08,-936.88 1003.07,-938.37 1007.46,-939.92 1011.25,-941.51 1014.43,-943.16 1017,-944.84 1018.98,-946.57 1020.35,-948.32 1021.14,-950.1 1021.35,-951.91 1021,-953.73 1020.1,-955.57 1018.68,-957.41 1016.75,-959.26 1014.33,-961.1 1011.45,-962.93 1008.12,-964.76 1004.38,-966.56 1000.25,-968.34 995.75,-970.1 990.91,-971.82 985.75,-973.51 980.3,-975.15 974.58,-976.75 968.62,-978.3 962.43,-979.79 956.05,-981.22 949.49,-982.6 942.77,-983.9 935.9,-985.14 928.92,-986.3 921.82,-987.38 914.64,-988.39 907.37,-989.31 900.04,-990.15 892.64,-990.9 885.21,-991.56 877.73,-992.13 870.22,-992.61 862.68,-992.99 855.13,-993.28 847.57,-993.47 840,-993.57 832.42,-993.57 824.85,-993.47 817.29,-993.28 809.73,-992.99 802.2,-992.61 794.69,-992.13 787.21,-991.56 779.77,-990.9 772.38,-990.15 765.05,-989.31 757.78,-988.39 750.59,-987.38 743.5,-986.3 736.52,-985.14 729.65,-983.9 722.93,-982.6 716.37,-981.22 709.98,-979.79 703.8,-978.3 697.84,-976.75 692.12,-975.15 686.67,-973.51 681.51,-971.82 676.67,-970.1 672.17,-968.34 668.03,-966.56 664.29,-964.76 660.97,-962.93 658.09,-961.1 655.67,-959.26 653.74,-957.41 652.31,-955.57 651.42,-953.73 651.07,-951.91 651.28,-950.1 652.07,-948.32 653.44,-946.57 655.41,-944.84 657.99,-943.16 661.17,-941.51 664.96,-939.92 669.35,-938.37 674.34,-936.88 679.92,-935.44 686.08,-934.07 692.8,-932.77 700.06,-931.53 707.85,-930.37 716.14,-929.28 724.9,-928.28 734.1,-927.36 743.7,-926.52 753.68,-925.77 763.99,-925.11 774.59,-924.54 785.45,-924.06 796.51,-923.68 807.73,-923.39 819.08,-923.19 830.49,-923.1 841.93,-923.1 853.34,-923.19"/>
<text text-anchor="start" x="807.04" y="-968.13" font-family="Times,serif" font-size="14.00">C1263846</text>
<text text-anchor="start" x="721.32" y="-954.13" font-family="Times,serif" font-size="14.00">attention &#45; deficit / hyperactivity disorder</text>
<text text-anchor="start" x="820.26" y="-940.13" font-family="Times,serif" font-size="14.00">54:59</text>
</g>
<!-- id_28118752_DOT_6&#45;&#45;id_28118752_DOT_12 -->
<g id="edge6" class="edge">
<title>id_28118752_DOT_6&#45;&#45;id_28118752_DOT_12</title>
<path fill="none" stroke="black" d="M556.19,-1041.94C611.82,-1025.33 685.05,-1003.46 742.67,-986.26"/>
<text text-anchor="middle" x="623.18" y="-1016.9" font-family="Times,serif" font-size="14.00">0.215079</text>
</g>
<!-- id_28118752_DOT_27 -->
<g id="node27" class="node">
<title>id_28118752_DOT_27</title>
<polygon fill="blueviolet" stroke="blueviolet" points="4539.28,-2442.7 4542.71,-2442.89 4546.1,-2443.18 4549.45,-2443.56 4552.73,-2444.04 4555.93,-2444.61 4559.05,-2445.27 4562.06,-2446.02 4564.97,-2446.86 4567.75,-2447.78 4570.39,-2448.79 4572.9,-2449.87 4575.25,-2451.03 4577.45,-2452.27 4579.48,-2453.57 4581.34,-2454.94 4583.03,-2456.38 4584.54,-2457.87 4585.86,-2459.42 4587.01,-2461.02 4587.97,-2462.66 4588.75,-2464.35 4589.34,-2466.07 4589.76,-2467.82 4590,-2469.61 4590.06,-2471.41 4589.95,-2473.23 4589.68,-2475.07 4589.25,-2476.91 4588.67,-2478.76 4587.94,-2480.6 4587.07,-2482.44 4586.06,-2484.26 4584.93,-2486.06 4583.68,-2487.85 4582.32,-2489.6 4580.86,-2491.32 4579.3,-2493.01 4577.65,-2494.65 4575.92,-2496.25 4574.12,-2497.8 4572.25,-2499.29 4570.32,-2500.73 4568.34,-2502.1 4566.31,-2503.4 4564.24,-2504.64 4562.12,-2505.8 4559.98,-2506.88 4557.81,-2507.89 4555.61,-2508.81 4553.39,-2509.65 4551.16,-2510.4 4548.91,-2511.06 4546.65,-2511.63 4544.38,-2512.11 4542.11,-2512.49 4539.82,-2512.78 4537.54,-2512.97 4535.25,-2513.07 4532.96,-2513.07 4530.67,-2512.97 4528.38,-2512.78 4526.1,-2512.49 4523.83,-2512.11 4521.56,-2511.63 4519.3,-2511.06 4517.05,-2510.4 4514.81,-2509.65 4512.6,-2508.81 4510.4,-2507.89 4508.23,-2506.88 4506.08,-2505.8 4503.97,-2504.64 4501.9,-2503.4 4499.87,-2502.1 4497.88,-2500.73 4495.95,-2499.29 4494.09,-2497.8 4492.28,-2496.25 4490.55,-2494.65 4488.91,-2493.01 4487.35,-2491.32 4485.88,-2489.6 4484.52,-2487.85 4483.28,-2486.06 4482.14,-2484.26 4481.14,-2482.44 4480.27,-2480.6 4479.54,-2478.76 4478.95,-2476.91 4478.52,-2475.07 4478.25,-2473.23 4478.15,-2471.41 4478.21,-2469.61 4478.45,-2467.82 4478.87,-2466.07 4479.46,-2464.35 4480.24,-2462.66 4481.2,-2461.02 4482.34,-2459.42 4483.67,-2457.87 4485.18,-2456.38 4486.87,-2454.94 4488.73,-2453.57 4490.76,-2452.27 4492.96,-2451.03 4495.31,-2449.87 4497.81,-2448.79 4500.46,-2447.78 4503.24,-2446.86 4506.14,-2446.02 4509.16,-2445.27 4512.28,-2444.61 4515.48,-2444.04 4518.76,-2443.56 4522.1,-2443.18 4525.5,-2442.89 4528.93,-2442.7 4532.38,-2442.6 4535.83,-2442.6 4539.28,-2442.7"/>
<text text-anchor="start" x="4504.93" y="-2487.63" font-family="Times,serif" font-size="14.00">C0304402</text>
<text text-anchor="start" x="4505.32" y="-2473.63" font-family="Times,serif" font-size="14.00">stimulants</text>
<text text-anchor="start" x="4511.16" y="-2459.63" font-family="Times,serif" font-size="14.00">184:184</text>
</g>
<!-- id_28118752_DOT_7&#45;&#45;id_28118752_DOT_27 -->
<g id="edge7" class="edge">
<title>id_28118752_DOT_7&#45;&#45;id_28118752_DOT_27</title>
<path fill="none" stroke="black" d="M4887.16,-2397.68C4811.95,-2414.76 4668.29,-2447.37 4589.39,-2465.28"/>
<text text-anchor="middle" x="4712.03" y="-2434.28" font-family="Times,serif" font-size="14.00">0.006712</text>
</g>
<!-- id_28118752_DOT_8&#45;&#45;id_28118752_DOT_12 -->
<g id="edge23" class="edge">
<title>id_28118752_DOT_8&#45;&#45;id_28118752_DOT_12</title>
<path fill="none" stroke="black" stroke-dasharray="1,5" d="M1125.78,-761.56C1065.06,-802.82 952.31,-879.44 886.85,-923.92"/>
<text text-anchor="middle" x="980.06" y="-845.54" font-family="Times,serif" font-size="14.00">0.882195</text>
</g>
<!-- id_28118752_DOT_28 -->
<g id="node28" class="node">
<title>id_28118752_DOT_28</title>
<polygon fill="blue" stroke="blue" points="1580.67,-767.93 1589.07,-768.13 1597.38,-768.42 1605.57,-768.8 1613.6,-769.28 1621.45,-769.85 1629.08,-770.51 1636.46,-771.26 1643.57,-772.1 1650.38,-773.02 1656.86,-774.02 1663,-775.11 1668.76,-776.27 1674.14,-777.51 1679.12,-778.81 1683.67,-780.18 1687.8,-781.62 1691.5,-783.11 1694.75,-784.66 1697.55,-786.25 1699.91,-787.9 1701.81,-789.58 1703.27,-791.31 1704.29,-793.06 1704.87,-794.84 1705.03,-796.65 1704.77,-798.47 1704.11,-800.31 1703.05,-802.15 1701.62,-804 1699.83,-805.84 1697.7,-807.67 1695.24,-809.5 1692.47,-811.3 1689.41,-813.08 1686.08,-814.84 1682.5,-816.56 1678.68,-818.25 1674.64,-819.89 1670.41,-821.49 1666,-823.04 1661.42,-824.53 1656.69,-825.96 1651.84,-827.34 1646.86,-828.64 1641.78,-829.88 1636.61,-831.04 1631.36,-832.12 1626.04,-833.13 1620.66,-834.05 1615.24,-834.89 1609.76,-835.64 1604.26,-836.3 1598.72,-836.87 1593.17,-837.35 1587.59,-837.73 1582,-838.02 1576.4,-838.21 1570.8,-838.31 1565.19,-838.31 1559.59,-838.21 1553.99,-838.02 1548.4,-837.73 1542.82,-837.35 1537.26,-836.87 1531.73,-836.3 1526.22,-835.64 1520.75,-834.89 1515.32,-834.05 1509.94,-833.13 1504.62,-832.12 1499.37,-831.04 1494.2,-829.88 1489.12,-828.64 1484.15,-827.34 1479.29,-825.96 1474.57,-824.53 1469.99,-823.04 1465.58,-821.49 1461.34,-819.89 1457.31,-818.25 1453.49,-816.56 1449.91,-814.84 1446.58,-813.08 1443.52,-811.3 1440.75,-809.5 1438.29,-807.67 1436.15,-805.84 1434.36,-804 1432.93,-802.15 1431.88,-800.31 1431.22,-798.47 1430.96,-796.65 1431.12,-794.84 1431.7,-793.06 1432.72,-791.31 1434.18,-789.58 1436.08,-787.9 1438.43,-786.25 1441.24,-784.66 1444.49,-783.11 1448.18,-781.62 1452.31,-780.18 1456.87,-778.81 1461.85,-777.51 1467.22,-776.27 1472.99,-775.11 1479.12,-774.02 1485.61,-773.02 1492.41,-772.1 1499.52,-771.26 1506.91,-770.51 1514.54,-769.85 1522.39,-769.28 1530.42,-768.8 1538.61,-768.42 1546.92,-768.13 1555.31,-767.93 1563.76,-767.84 1572.23,-767.84 1580.67,-767.93"/>
<text text-anchor="start" x="1538.82" y="-812.87" font-family="Times,serif" font-size="14.00">C1707968</text>
<text text-anchor="start" x="1485.02" y="-798.87" font-family="Times,serif" font-size="14.00">guanfacine extended &#45; release</text>
<text text-anchor="start" x="1545.05" y="-784.87" font-family="Times,serif" font-size="14.00">186:189</text>
</g>
<!-- id_28118752_DOT_8&#45;&#45;id_28118752_DOT_28 -->
<g id="edge24" class="edge">
<title>id_28118752_DOT_8&#45;&#45;id_28118752_DOT_28</title>
<path fill="none" stroke="black" stroke-dasharray="1,5" d="M1239,-745.76C1296.73,-755.82 1379.19,-770.18 1447.11,-782.01"/>
<text text-anchor="middle" x="1316.81" y="-766.69" font-family="Times,serif" font-size="14.00">0.916832</text>
</g>
<!-- id_28118752_DOT_10&#45;&#45;id_28118752_DOT_17 -->
<g id="edge25" class="edge">
<title>id_28118752_DOT_10&#45;&#45;id_28118752_DOT_17</title>
<path fill="none" stroke="black" stroke-dasharray="1,5" d="M5811.26,-2309.77C5884.18,-2298.33 5979.72,-2283.34 6041.25,-2273.68"/>
<text text-anchor="middle" x="5900" y="-2294.53" font-family="Times,serif" font-size="14.00">0.762482</text>
</g>
<!-- id_28118752_DOT_16 -->
<g id="node16" class="node">
<title>id_28118752_DOT_16</title>
<polygon fill="blue" stroke="blue" points="1948.99,-273.34 1957.39,-273.53 1965.7,-273.82 1973.89,-274.2 1981.92,-274.68 1989.77,-275.25 1997.4,-275.91 2004.78,-276.66 2011.89,-277.5 2018.7,-278.42 2025.18,-279.43 2031.32,-280.51 2037.08,-281.67 2042.46,-282.91 2047.44,-284.21 2051.99,-285.59 2056.12,-287.02 2059.82,-288.51 2063.07,-290.06 2065.87,-291.66 2068.23,-293.3 2070.13,-294.99 2071.59,-296.71 2072.61,-298.47 2073.19,-300.25 2073.35,-302.05 2073.09,-303.88 2072.43,-305.71 2071.37,-307.55 2069.94,-309.4 2068.15,-311.24 2066.02,-313.08 2063.56,-314.9 2060.79,-316.71 2057.73,-318.49 2054.4,-320.24 2050.82,-321.97 2047,-323.65 2042.96,-325.3 2038.73,-326.89 2034.32,-328.44 2029.74,-329.93 2025.01,-331.37 2020.16,-332.74 2015.18,-334.04 2010.1,-335.28 2004.93,-336.44 1999.68,-337.53 1994.36,-338.53 1988.98,-339.45 1983.56,-340.29 1978.08,-341.04 1972.58,-341.7 1967.04,-342.27 1961.49,-342.75 1955.91,-343.13 1950.32,-343.42 1944.72,-343.62 1939.12,-343.71 1933.51,-343.71 1927.91,-343.62 1922.31,-343.42 1916.72,-343.13 1911.14,-342.75 1905.58,-342.27 1900.05,-341.7 1894.54,-341.04 1889.07,-340.29 1883.64,-339.45 1878.26,-338.53 1872.94,-337.53 1867.69,-336.44 1862.52,-335.28 1857.44,-334.04 1852.47,-332.74 1847.61,-331.37 1842.89,-329.93 1838.31,-328.44 1833.9,-326.89 1829.66,-325.3 1825.63,-323.65 1821.81,-321.97 1818.23,-320.24 1814.9,-318.49 1811.84,-316.71 1809.07,-314.9 1806.61,-313.08 1804.47,-311.24 1802.68,-309.4 1801.25,-307.55 1800.2,-305.71 1799.54,-303.88 1799.28,-302.05 1799.44,-300.25 1800.02,-298.47 1801.04,-296.71 1802.49,-294.99 1804.4,-293.3 1806.75,-291.66 1809.56,-290.06 1812.81,-288.51 1816.5,-287.02 1820.63,-285.59 1825.19,-284.21 1830.17,-282.91 1835.54,-281.67 1841.31,-280.51 1847.44,-279.43 1853.92,-278.42 1860.73,-277.5 1867.84,-276.66 1875.23,-275.91 1882.86,-275.25 1890.71,-274.68 1898.74,-274.2 1906.93,-273.82 1915.24,-273.53 1923.63,-273.34 1932.08,-273.24 1940.55,-273.24 1948.99,-273.34"/>
<text text-anchor="start" x="1907.14" y="-318.28" font-family="Times,serif" font-size="14.00">C1707968</text>
<text text-anchor="start" x="1853.33" y="-304.28" font-family="Times,serif" font-size="14.00">guanfacine extended &#45; release</text>
<text text-anchor="start" x="1920.37" y="-290.28" font-family="Times,serif" font-size="14.00">73:76</text>
</g>
<!-- id_28118752_DOT_11&#45;&#45;id_28118752_DOT_16 -->
<g id="edge8" class="edge">
<title>id_28118752_DOT_11&#45;&#45;id_28118752_DOT_16</title>
<path fill="none" stroke="black" d="M1968.26,-682.96C1961.65,-605.5 1945.94,-421.34 1939.33,-343.83"/>
<text text-anchor="middle" x="1927.54" y="-516.19" font-family="Times,serif" font-size="14.00">0.006159</text>
</g>
<!-- id_28118752_DOT_11&#45;&#45;id_28118752_DOT_28 -->
<g id="edge9" class="edge">
<title>id_28118752_DOT_11&#45;&#45;id_28118752_DOT_28</title>
<path fill="none" stroke="black" d="M1874.42,-738.62C1816.27,-750.85 1742.03,-766.47 1681.19,-779.26"/>
<text text-anchor="middle" x="1751.55" y="-761.74" font-family="Times,serif" font-size="14.00">0.012279</text>
</g>
<!-- id_28118752_DOT_13 -->
<g id="node13" class="node">
<title>id_28118752_DOT_13</title>
<polygon fill="coral" stroke="coral" points="2718.01,-0.23 2721.42,-0.42 2724.8,-0.71 2728.12,-1.09 2731.39,-1.57 2734.58,-2.14 2737.68,-2.8 2740.68,-3.55 2743.57,-4.39 2746.33,-5.31 2748.97,-6.32 2751.46,-7.4 2753.8,-8.57 2755.99,-9.8 2758.01,-11.1 2759.86,-12.48 2761.54,-13.91 2763.04,-15.4 2764.36,-16.95 2765.5,-18.55 2766.46,-20.19 2767.23,-21.88 2767.83,-23.6 2768.24,-25.36 2768.48,-27.14 2768.54,-28.94 2768.43,-30.77 2768.17,-32.6 2767.74,-34.44 2767.16,-36.29 2766.43,-38.13 2765.56,-39.97 2764.56,-41.79 2763.44,-43.6 2762.19,-45.38 2760.84,-47.13 2759.38,-48.86 2757.83,-50.54 2756.19,-52.19 2754.47,-53.78 2752.68,-55.33 2750.82,-56.82 2748.9,-58.26 2746.93,-59.63 2744.9,-60.94 2742.84,-62.17 2740.74,-63.33 2738.61,-64.42 2736.44,-65.42 2734.26,-66.34 2732.05,-67.18 2729.83,-67.93 2727.59,-68.59 2725.34,-69.16 2723.08,-69.64 2720.82,-70.02 2718.55,-70.31 2716.27,-70.51 2713.99,-70.6 2711.72,-70.6 2709.44,-70.51 2707.16,-70.31 2704.89,-70.02 2702.63,-69.64 2700.37,-69.16 2698.12,-68.59 2695.88,-67.93 2693.66,-67.18 2691.45,-66.34 2689.27,-65.42 2687.11,-64.42 2684.97,-63.33 2682.87,-62.17 2680.81,-60.94 2678.78,-59.63 2676.81,-58.26 2674.89,-56.82 2673.03,-55.33 2671.24,-53.78 2669.52,-52.19 2667.88,-50.54 2666.33,-48.86 2664.87,-47.13 2663.52,-45.38 2662.27,-43.6 2661.15,-41.79 2660.15,-39.97 2659.28,-38.13 2658.55,-36.29 2657.97,-34.44 2657.55,-32.6 2657.28,-30.77 2657.17,-28.94 2657.23,-27.14 2657.47,-25.36 2657.89,-23.6 2658.48,-21.88 2659.25,-20.19 2660.21,-18.55 2661.35,-16.95 2662.67,-15.4 2664.17,-13.91 2665.85,-12.48 2667.7,-11.1 2669.72,-9.8 2671.91,-8.57 2674.25,-7.4 2676.74,-6.32 2679.38,-5.31 2682.14,-4.39 2685.03,-3.55 2688.03,-2.8 2691.13,-2.14 2694.32,-1.57 2697.59,-1.09 2700.91,-0.71 2704.29,-0.42 2707.7,-0.23 2711.14,-0.13 2714.58,-0.13 2718.01,-0.23"/>
<text text-anchor="start" x="2683.94" y="-45.17" font-family="Times,serif" font-size="14.00">C0011900</text>
<text text-anchor="start" x="2686.41" y="-31.17" font-family="Times,serif" font-size="14.00">diagnosis</text>
<text text-anchor="start" x="2696.91" y="-17.17" font-family="Times,serif" font-size="14.00">60:60</text>
</g>
<!-- id_28118752_DOT_13&#45;&#45;id_28118752_DOT_21 -->
<g id="edge26" class="edge">
<title>id_28118752_DOT_13&#45;&#45;id_28118752_DOT_21</title>
<path fill="none" stroke="black" stroke-dasharray="1,5" d="M2701.98,-69.78C2678.97,-142.58 2625.57,-311.48 2602.47,-384.57"/>
<text text-anchor="middle" x="2625.97" y="-229.97" font-family="Times,serif" font-size="14.00">0.798666</text>
</g>
<!-- id_28118752_DOT_14 -->
<g id="node14" class="node">
<title>id_28118752_DOT_14</title>
<polygon fill="blueviolet" stroke="blueviolet" points="3304.92,-1505.58 3308.91,-1505.78 3312.86,-1506.07 3316.75,-1506.45 3320.57,-1506.93 3324.31,-1507.5 3327.93,-1508.16 3331.45,-1508.91 3334.83,-1509.75 3338.06,-1510.67 3341.15,-1511.67 3344.06,-1512.76 3346.8,-1513.92 3349.36,-1515.16 3351.73,-1516.46 3353.9,-1517.83 3355.86,-1519.27 3357.62,-1520.76 3359.16,-1522.31 3360.49,-1523.9 3361.61,-1525.55 3362.52,-1527.23 3363.21,-1528.96 3363.7,-1530.71 3363.97,-1532.49 3364.05,-1534.3 3363.93,-1536.12 3363.61,-1537.96 3363.11,-1539.8 3362.43,-1541.65 3361.58,-1543.49 3360.56,-1545.32 3359.39,-1547.15 3358.08,-1548.95 3356.62,-1550.73 3355.04,-1552.49 3353.33,-1554.21 3351.52,-1555.9 3349.6,-1557.54 3347.59,-1559.14 3345.49,-1560.69 3343.31,-1562.18 3341.07,-1563.61 3338.76,-1564.99 3336.39,-1566.29 3333.97,-1567.53 3331.52,-1568.69 3329.02,-1569.77 3326.49,-1570.78 3323.93,-1571.7 3321.35,-1572.54 3318.75,-1573.29 3316.13,-1573.95 3313.5,-1574.52 3310.86,-1575 3308.2,-1575.38 3305.55,-1575.67 3302.88,-1575.86 3300.22,-1575.96 3297.55,-1575.96 3294.89,-1575.86 3292.23,-1575.67 3289.57,-1575.38 3286.92,-1575 3284.27,-1574.52 3281.64,-1573.95 3279.02,-1573.29 3276.42,-1572.54 3273.84,-1571.7 3271.28,-1570.78 3268.75,-1569.77 3266.26,-1568.69 3263.8,-1567.53 3261.38,-1566.29 3259.02,-1564.99 3256.71,-1563.61 3254.46,-1562.18 3252.28,-1560.69 3250.18,-1559.14 3248.17,-1557.54 3246.25,-1555.9 3244.44,-1554.21 3242.73,-1552.49 3241.15,-1550.73 3239.69,-1548.95 3238.38,-1547.15 3237.21,-1545.32 3236.19,-1543.49 3235.34,-1541.65 3234.66,-1539.8 3234.16,-1537.96 3233.85,-1536.12 3233.72,-1534.3 3233.8,-1532.49 3234.07,-1530.71 3234.56,-1528.96 3235.25,-1527.23 3236.16,-1525.55 3237.28,-1523.9 3238.61,-1522.31 3240.16,-1520.76 3241.91,-1519.27 3243.88,-1517.83 3246.04,-1516.46 3248.41,-1515.16 3250.97,-1513.92 3253.71,-1512.76 3256.63,-1511.67 3259.71,-1510.67 3262.95,-1509.75 3266.33,-1508.91 3269.84,-1508.16 3273.47,-1507.5 3277.2,-1506.93 3281.02,-1506.45 3284.91,-1506.07 3288.86,-1505.78 3292.86,-1505.58 3296.87,-1505.49 3300.9,-1505.49 3304.92,-1505.58"/>
<text text-anchor="start" x="3269.72" y="-1550.52" font-family="Times,serif" font-size="14.00">C0304402</text>
<text text-anchor="start" x="3263.51" y="-1536.52" font-family="Times,serif" font-size="14.00">long &#45; acting</text>
<text text-anchor="start" x="3282.94" y="-1522.52" font-family="Times,serif" font-size="14.00">64:66</text>
</g>
<!-- id_28118752_DOT_25 -->
<g id="node25" class="node">
<title>id_28118752_DOT_25</title>
<polygon fill="blueviolet" stroke="blueviolet" points="2988.22,-1287.97 2992.21,-1288.16 2996.16,-1288.45 3000.06,-1288.83 3003.88,-1289.31 3007.61,-1289.88 3011.24,-1290.54 3014.75,-1291.29 3018.13,-1292.13 3021.37,-1293.05 3024.45,-1294.06 3027.37,-1295.14 3030.11,-1296.3 3032.66,-1297.54 3035.03,-1298.84 3037.2,-1300.21 3039.16,-1301.65 3040.92,-1303.14 3042.46,-1304.69 3043.8,-1306.29 3044.92,-1307.93 3045.82,-1309.62 3046.52,-1311.34 3047,-1313.1 3047.28,-1314.88 3047.35,-1316.68 3047.23,-1318.51 3046.91,-1320.34 3046.41,-1322.18 3045.73,-1324.03 3044.88,-1325.87 3043.87,-1327.71 3042.7,-1329.53 3041.38,-1331.33 3039.93,-1333.12 3038.34,-1334.87 3036.64,-1336.59 3034.82,-1338.28 3032.9,-1339.92 3030.89,-1341.52 3028.79,-1343.07 3026.62,-1344.56 3024.37,-1346 3022.06,-1347.37 3019.69,-1348.67 3017.28,-1349.91 3014.82,-1351.07 3012.32,-1352.15 3009.79,-1353.16 3007.23,-1354.08 3004.65,-1354.92 3002.05,-1355.67 2999.43,-1356.33 2996.8,-1356.9 2994.16,-1357.38 2991.51,-1357.76 2988.85,-1358.05 2986.19,-1358.24 2983.52,-1358.34 2980.86,-1358.34 2978.19,-1358.24 2975.53,-1358.05 2972.87,-1357.76 2970.22,-1357.38 2967.58,-1356.9 2964.94,-1356.33 2962.32,-1355.67 2959.72,-1354.92 2957.14,-1354.08 2954.58,-1353.16 2952.05,-1352.15 2949.56,-1351.07 2947.1,-1349.91 2944.68,-1348.67 2942.32,-1347.37 2940.01,-1346 2937.76,-1344.56 2935.58,-1343.07 2933.49,-1341.52 2931.47,-1339.92 2929.55,-1338.28 2927.74,-1336.59 2926.04,-1334.87 2924.45,-1333.12 2923,-1331.33 2921.68,-1329.53 2920.51,-1327.71 2919.5,-1325.87 2918.64,-1324.03 2917.96,-1322.18 2917.46,-1320.34 2917.15,-1318.51 2917.02,-1316.68 2917.1,-1314.88 2917.38,-1313.1 2917.86,-1311.34 2918.55,-1309.62 2919.46,-1307.93 2920.58,-1306.29 2921.91,-1304.69 2923.46,-1303.14 2925.21,-1301.65 2927.18,-1300.21 2929.35,-1298.84 2931.71,-1297.54 2934.27,-1296.3 2937.01,-1295.14 2939.93,-1294.06 2943.01,-1293.05 2946.25,-1292.13 2949.63,-1291.29 2953.14,-1290.54 2956.77,-1289.88 2960.5,-1289.31 2964.32,-1288.83 2968.21,-1288.45 2972.17,-1288.16 2976.16,-1287.97 2980.18,-1287.87 2984.2,-1287.87 2988.22,-1287.97"/>
<text text-anchor="start" x="2953.02" y="-1332.91" font-family="Times,serif" font-size="14.00">C0304402</text>
<text text-anchor="start" x="2946.81" y="-1318.91" font-family="Times,serif" font-size="14.00">long &#45; acting</text>
<text text-anchor="start" x="2959.24" y="-1304.91" font-family="Times,serif" font-size="14.00">164:166</text>
</g>
<!-- id_28118752_DOT_14&#45;&#45;id_28118752_DOT_25 -->
<g id="edge10" class="edge">
<title>id_28118752_DOT_14&#45;&#45;id_28118752_DOT_25</title>
<path fill="none" stroke="black" d="M3256.5,-1511.6C3194.31,-1468.86 3079.28,-1389.82 3019.88,-1349"/>
<text text-anchor="middle" x="3111.94" y="-1433.1" font-family="Times,serif" font-size="14.00">0.018816</text>
</g>
<!-- id_28118752_DOT_26 -->
<g id="node26" class="node">
<title>id_28118752_DOT_26</title>
<polygon fill="blueviolet" stroke="blueviolet" points="3617.16,-1725.44 3624.13,-1725.63 3631.03,-1725.92 3637.83,-1726.3 3644.5,-1726.78 3651.02,-1727.35 3657.36,-1728.01 3663.49,-1728.76 3669.39,-1729.6 3675.05,-1730.52 3680.43,-1731.53 3685.53,-1732.61 3690.31,-1733.78 3694.78,-1735.01 3698.91,-1736.32 3702.7,-1737.69 3706.13,-1739.12 3709.2,-1740.61 3711.89,-1742.16 3714.22,-1743.76 3716.18,-1745.4 3717.76,-1747.09 3718.97,-1748.81 3719.82,-1750.57 3720.3,-1752.35 3720.43,-1754.15 3720.22,-1755.98 3719.67,-1757.81 3718.79,-1759.66 3717.6,-1761.5 3716.12,-1763.34 3714.34,-1765.18 3712.3,-1767 3710,-1768.81 3707.46,-1770.59 3704.7,-1772.34 3701.72,-1774.07 3698.55,-1775.75 3695.2,-1777.4 3691.68,-1778.99 3688.02,-1780.54 3684.22,-1782.04 3680.29,-1783.47 3676.26,-1784.84 3672.13,-1786.15 3667.91,-1787.38 3663.61,-1788.54 3659.25,-1789.63 3654.84,-1790.63 3650.37,-1791.55 3645.86,-1792.39 3641.32,-1793.14 3636.74,-1793.8 3632.15,-1794.37 3627.53,-1794.85 3622.9,-1795.24 3618.26,-1795.52 3613.61,-1795.72 3608.95,-1795.81 3604.3,-1795.81 3599.64,-1795.72 3594.99,-1795.52 3590.35,-1795.24 3585.72,-1794.85 3581.11,-1794.37 3576.51,-1793.8 3571.94,-1793.14 3567.39,-1792.39 3562.88,-1791.55 3558.42,-1790.63 3554,-1789.63 3549.64,-1788.54 3545.35,-1787.38 3541.13,-1786.15 3537,-1784.84 3532.96,-1783.47 3529.04,-1782.04 3525.24,-1780.54 3521.57,-1778.99 3518.06,-1777.4 3514.7,-1775.75 3511.53,-1774.07 3508.56,-1772.34 3505.79,-1770.59 3503.25,-1768.81 3500.95,-1767 3498.91,-1765.18 3497.14,-1763.34 3495.65,-1761.5 3494.46,-1759.66 3493.59,-1757.81 3493.04,-1755.98 3492.82,-1754.15 3492.95,-1752.35 3493.44,-1750.57 3494.28,-1748.81 3495.49,-1747.09 3497.08,-1745.4 3499.03,-1743.76 3501.36,-1742.16 3504.06,-1740.61 3507.13,-1739.12 3510.56,-1737.69 3514.34,-1736.32 3518.47,-1735.01 3522.94,-1733.78 3527.73,-1732.61 3532.82,-1731.53 3538.2,-1730.52 3543.86,-1729.6 3549.76,-1728.76 3555.9,-1728.01 3562.23,-1727.35 3568.75,-1726.78 3575.42,-1726.3 3582.22,-1725.92 3589.12,-1725.63 3596.1,-1725.44 3603.11,-1725.34 3610.14,-1725.34 3617.16,-1725.44"/>
<text text-anchor="start" x="3577.46" y="-1770.38" font-family="Times,serif" font-size="14.00">C0304402</text>
<text text-anchor="start" x="3539.16" y="-1756.38" font-family="Times,serif" font-size="14.00">short &#45; acting stimulants</text>
<text text-anchor="start" x="3583.68" y="-1742.38" font-family="Times,serif" font-size="14.00">170:173</text>
</g>
<!-- id_28118752_DOT_14&#45;&#45;id_28118752_DOT_26 -->
<g id="edge27" class="edge">
<title>id_28118752_DOT_14&#45;&#45;id_28118752_DOT_26</title>
<path fill="none" stroke="black" stroke-dasharray="1,5" d="M3335.4,-1566.81C3391.44,-1606.84 3498.62,-1683.42 3560.14,-1727.37"/>
<text text-anchor="middle" x="3421.52" y="-1649.89" font-family="Times,serif" font-size="14.00">0.643088</text>
</g>
<!-- id_28118752_DOT_15 -->
<g id="node15" class="node">
<title>id_28118752_DOT_15</title>
<polygon fill="blueviolet" stroke="blueviolet" points="3928.23,-1941.1 3934.95,-1941.29 3941.59,-1941.58 3948.14,-1941.97 3954.57,-1942.44 3960.84,-1943.01 3966.95,-1943.68 3972.85,-1944.43 3978.54,-1945.26 3983.98,-1946.19 3989.17,-1947.19 3994.07,-1948.28 3998.69,-1949.44 4002.99,-1950.67 4006.97,-1951.98 4010.61,-1953.35 4013.92,-1954.78 4016.87,-1956.28 4019.47,-1957.82 4021.71,-1959.42 4023.59,-1961.07 4025.12,-1962.75 4026.29,-1964.47 4027.1,-1966.23 4027.57,-1968.01 4027.69,-1969.82 4027.48,-1971.64 4026.95,-1973.47 4026.11,-1975.32 4024.97,-1977.16 4023.54,-1979.01 4021.83,-1980.84 4019.86,-1982.66 4017.65,-1984.47 4015.2,-1986.25 4012.54,-1988.01 4009.67,-1989.73 4006.62,-1991.41 4003.39,-1993.06 4000,-1994.66 3996.47,-1996.2 3992.81,-1997.7 3989.03,-1999.13 3985.15,-2000.5 3981.17,-2001.81 3977.11,-2003.04 3972.97,-2004.2 3968.77,-2005.29 3964.52,-2006.29 3960.22,-2007.22 3955.88,-2008.05 3951.5,-2008.8 3947.1,-2009.47 3942.67,-2010.04 3938.22,-2010.51 3933.76,-2010.9 3929.29,-2011.19 3924.82,-2011.38 3920.33,-2011.48 3915.85,-2011.48 3911.37,-2011.38 3906.89,-2011.19 3902.42,-2010.9 3897.96,-2010.51 3893.51,-2010.04 3889.09,-2009.47 3884.68,-2008.8 3880.31,-2008.05 3875.97,-2007.22 3871.66,-2006.29 3867.41,-2005.29 3863.21,-2004.2 3859.07,-2003.04 3855.01,-2001.81 3851.03,-2000.5 3847.15,-1999.13 3843.37,-1997.7 3839.71,-1996.2 3836.18,-1994.66 3832.79,-1993.06 3829.57,-1991.41 3826.51,-1989.73 3823.65,-1988.01 3820.98,-1986.25 3818.54,-1984.47 3816.32,-1982.66 3814.35,-1980.84 3812.65,-1979.01 3811.22,-1977.16 3810.07,-1975.32 3809.23,-1973.47 3808.7,-1971.64 3808.49,-1969.82 3808.62,-1968.01 3809.08,-1966.23 3809.9,-1964.47 3811.06,-1962.75 3812.59,-1961.07 3814.47,-1959.42 3816.71,-1957.82 3819.31,-1956.28 3822.27,-1954.78 3825.57,-1953.35 3829.22,-1951.98 3833.2,-1950.67 3837.5,-1949.44 3842.11,-1948.28 3847.01,-1947.19 3852.2,-1946.19 3857.64,-1945.26 3863.33,-1944.43 3869.23,-1943.68 3875.34,-1943.01 3881.61,-1942.44 3888.04,-1941.97 3894.59,-1941.58 3901.23,-1941.29 3907.95,-1941.1 3914.71,-1941 3921.48,-1941 3928.23,-1941.1"/>
<text text-anchor="start" x="3888.92" y="-1986.04" font-family="Times,serif" font-size="14.00">C0304402</text>
<text text-anchor="start" x="3853.35" y="-1972.04" font-family="Times,serif" font-size="14.00">short &#45; acting stimulant</text>
<text text-anchor="start" x="3902.15" y="-1958.04" font-family="Times,serif" font-size="14.00">68:71</text>
</g>
<!-- id_28118752_DOT_15&#45;&#45;id_28118752_DOT_26 -->
<g id="edge11" class="edge">
<title>id_28118752_DOT_15&#45;&#45;id_28118752_DOT_26</title>
<path fill="none" stroke="black" d="M3870.79,-1943.49C3811.22,-1902.24 3709.65,-1831.91 3651.34,-1791.54"/>
<text text-anchor="middle" x="3734.81" y="-1870.31" font-family="Times,serif" font-size="14.00">0.060595</text>
</g>
<!-- id_28118752_DOT_30 -->
<g id="node30" class="node">
<title>id_28118752_DOT_30</title>
<polygon fill="blueviolet" stroke="blueviolet" points="4233.12,-2171.16 4236.55,-2171.35 4239.94,-2171.64 4243.28,-2172.03 4246.56,-2172.5 4249.77,-2173.07 4252.88,-2173.74 4255.9,-2174.49 4258.8,-2175.32 4261.58,-2176.25 4264.23,-2177.25 4266.73,-2178.34 4269.09,-2179.5 4271.28,-2180.73 4273.32,-2182.04 4275.18,-2183.41 4276.86,-2184.84 4278.37,-2186.34 4279.7,-2187.88 4280.84,-2189.48 4281.81,-2191.13 4282.58,-2192.81 4283.18,-2194.53 4283.59,-2196.29 4283.83,-2198.07 4283.9,-2199.88 4283.79,-2201.7 4283.52,-2203.53 4283.09,-2205.38 4282.51,-2207.22 4281.78,-2209.07 4280.9,-2210.9 4279.9,-2212.72 4278.77,-2214.53 4277.52,-2216.31 4276.16,-2218.07 4274.7,-2219.79 4273.14,-2221.47 4271.49,-2223.12 4269.76,-2224.72 4267.96,-2226.26 4266.09,-2227.76 4264.16,-2229.19 4262.18,-2230.56 4260.15,-2231.87 4258.07,-2233.1 4255.96,-2234.26 4253.82,-2235.35 4251.64,-2236.35 4249.45,-2237.28 4247.23,-2238.11 4245,-2238.86 4242.75,-2239.53 4240.49,-2240.1 4238.22,-2240.57 4235.94,-2240.96 4233.66,-2241.25 4231.37,-2241.44 4229.08,-2241.54 4226.8,-2241.54 4224.51,-2241.44 4222.22,-2241.25 4219.94,-2240.96 4217.66,-2240.57 4215.39,-2240.1 4213.13,-2239.53 4210.88,-2238.86 4208.65,-2238.11 4206.43,-2237.28 4204.24,-2236.35 4202.06,-2235.35 4199.92,-2234.26 4197.81,-2233.1 4195.73,-2231.87 4193.7,-2230.56 4191.72,-2229.19 4189.79,-2227.76 4187.92,-2226.26 4186.12,-2224.72 4184.39,-2223.12 4182.74,-2221.47 4181.18,-2219.79 4179.72,-2218.07 4178.36,-2216.31 4177.11,-2214.53 4175.98,-2212.72 4174.98,-2210.9 4174.11,-2209.07 4173.37,-2207.22 4172.79,-2205.38 4172.36,-2203.53 4172.09,-2201.7 4171.98,-2199.88 4172.05,-2198.07 4172.29,-2196.29 4172.7,-2194.53 4173.3,-2192.81 4174.08,-2191.13 4175.04,-2189.48 4176.18,-2187.88 4177.51,-2186.34 4179.02,-2184.84 4180.7,-2183.41 4182.56,-2182.04 4184.6,-2180.73 4186.79,-2179.5 4189.15,-2178.34 4191.65,-2177.25 4194.3,-2176.25 4197.08,-2175.32 4199.98,-2174.49 4203,-2173.74 4206.11,-2173.07 4209.32,-2172.5 4212.6,-2172.03 4215.94,-2171.64 4219.33,-2171.35 4222.76,-2171.16 4226.21,-2171.06 4229.67,-2171.06 4233.12,-2171.16"/>
<text text-anchor="start" x="4198.77" y="-2216.1" font-family="Times,serif" font-size="14.00">C0304402</text>
<text text-anchor="start" x="4201.89" y="-2202.1" font-family="Times,serif" font-size="14.00">stimulant</text>
<text text-anchor="start" x="4205" y="-2188.1" font-family="Times,serif" font-size="14.00">195:195</text>
</g>
<!-- id_28118752_DOT_15&#45;&#45;id_28118752_DOT_30 -->
<g id="edge12" class="edge">
<title>id_28118752_DOT_15&#45;&#45;id_28118752_DOT_30</title>
<path fill="none" stroke="black" d="M3960.2,-2007.51C4020.76,-2052.47 4131.55,-2134.73 4189.82,-2177.99"/>
<text text-anchor="middle" x="4048.76" y="-2095.55" font-family="Times,serif" font-size="14.00">0.131629</text>
</g>
<!-- id_28118752_DOT_29 -->
<g id="node29" class="node">
<title>id_28118752_DOT_29</title>
<polygon fill="cornflowerblue" stroke="cornflowerblue" points="6430.04,-2473.38 6434.28,-2473.57 6438.49,-2473.86 6442.63,-2474.25 6446.7,-2474.72 6450.67,-2475.29 6454.54,-2475.96 6458.27,-2476.71 6461.87,-2477.54 6465.32,-2478.47 6468.6,-2479.47 6471.7,-2480.56 6474.62,-2481.72 6477.34,-2482.95 6479.86,-2484.26 6482.17,-2485.63 6484.26,-2487.06 6486.13,-2488.56 6487.77,-2490.1 6489.19,-2491.7 6490.38,-2493.35 6491.35,-2495.03 6492.09,-2496.75 6492.6,-2498.51 6492.9,-2500.29 6492.98,-2502.1 6492.84,-2503.92 6492.51,-2505.75 6491.98,-2507.6 6491.25,-2509.44 6490.35,-2511.29 6489.27,-2513.12 6488.02,-2514.94 6486.62,-2516.75 6485.07,-2518.53 6483.39,-2520.29 6481.57,-2522.01 6479.64,-2523.69 6477.6,-2525.34 6475.45,-2526.94 6473.22,-2528.48 6470.9,-2529.98 6468.51,-2531.41 6466.05,-2532.78 6463.54,-2534.09 6460.97,-2535.32 6458.35,-2536.48 6455.69,-2537.57 6453,-2538.57 6450.28,-2539.5 6447.53,-2540.33 6444.76,-2541.08 6441.97,-2541.75 6439.17,-2542.32 6436.36,-2542.79 6433.54,-2543.18 6430.71,-2543.47 6427.87,-2543.66 6425.04,-2543.76 6422.2,-2543.76 6419.36,-2543.66 6416.53,-2543.47 6413.7,-2543.18 6410.88,-2542.79 6408.06,-2542.32 6405.26,-2541.75 6402.48,-2541.08 6399.71,-2540.33 6396.96,-2539.5 6394.24,-2538.57 6391.54,-2537.57 6388.89,-2536.48 6386.27,-2535.32 6383.7,-2534.09 6381.18,-2532.78 6378.72,-2531.41 6376.33,-2529.98 6374.01,-2528.48 6371.78,-2526.94 6369.64,-2525.34 6367.6,-2523.69 6365.66,-2522.01 6363.85,-2520.29 6362.16,-2518.53 6360.62,-2516.75 6359.21,-2514.94 6357.97,-2513.12 6356.89,-2511.29 6355.98,-2509.44 6355.26,-2507.6 6354.73,-2505.75 6354.39,-2503.92 6354.26,-2502.1 6354.34,-2500.29 6354.63,-2498.51 6355.15,-2496.75 6355.89,-2495.03 6356.85,-2493.35 6358.04,-2491.7 6359.46,-2490.1 6361.11,-2488.56 6362.98,-2487.06 6365.07,-2485.63 6367.37,-2484.26 6369.89,-2482.95 6372.61,-2481.72 6375.53,-2480.56 6378.64,-2479.47 6381.92,-2478.47 6385.36,-2477.54 6388.96,-2476.71 6392.7,-2475.96 6396.56,-2475.29 6400.53,-2474.72 6404.6,-2474.25 6408.74,-2473.86 6412.95,-2473.57 6417.2,-2473.38 6421.48,-2473.28 6425.76,-2473.28 6430.04,-2473.38"/>
<text text-anchor="start" x="6394.45" y="-2518.32" font-family="Times,serif" font-size="14.00">C1293122</text>
<text text-anchor="start" x="6385.52" y="-2504.32" font-family="Times,serif" font-size="14.00">augmentation</text>
<text text-anchor="start" x="6400.67" y="-2490.32" font-family="Times,serif" font-size="14.00">190:190</text>
</g>
<!-- id_28118752_DOT_17&#45;&#45;id_28118752_DOT_29 -->
<g id="edge13" class="edge">
<title>id_28118752_DOT_17&#45;&#45;id_28118752_DOT_29</title>
<path fill="none" stroke="black" d="M6139.21,-2291.56C6199.63,-2337.65 6320.68,-2430 6383.59,-2477.99"/>
<text text-anchor="middle" x="6235.15" y="-2387.58" font-family="Times,serif" font-size="14.00">0.016697</text>
</g>
<!-- id_28118752_DOT_18 -->
<g id="node18" class="node">
<title>id_28118752_DOT_18</title>
<polygon fill="crimson" stroke="crimson" points="2408.81,-1480.41 2412.41,-1480.6 2415.97,-1480.89 2419.48,-1481.27 2422.93,-1481.75 2426.29,-1482.32 2429.57,-1482.98 2432.73,-1483.73 2435.78,-1484.57 2438.7,-1485.49 2441.48,-1486.5 2444.11,-1487.58 2446.59,-1488.74 2448.89,-1489.98 2451.03,-1491.28 2452.98,-1492.65 2454.75,-1494.09 2456.34,-1495.58 2457.73,-1497.13 2458.93,-1498.73 2459.94,-1500.37 2460.76,-1502.06 2461.39,-1503.78 2461.82,-1505.54 2462.07,-1507.32 2462.14,-1509.12 2462.03,-1510.95 2461.75,-1512.78 2461.29,-1514.62 2460.68,-1516.47 2459.91,-1518.31 2459,-1520.15 2457.94,-1521.97 2456.75,-1523.77 2455.44,-1525.56 2454.01,-1527.31 2452.48,-1529.03 2450.84,-1530.72 2449.11,-1532.36 2447.29,-1533.96 2445.4,-1535.51 2443.44,-1537 2441.41,-1538.44 2439.33,-1539.81 2437.19,-1541.11 2435.02,-1542.35 2432.8,-1543.51 2430.55,-1544.59 2428.26,-1545.6 2425.96,-1546.52 2423.63,-1547.36 2421.28,-1548.11 2418.92,-1548.77 2416.55,-1549.34 2414.16,-1549.82 2411.77,-1550.2 2409.37,-1550.49 2406.97,-1550.68 2404.57,-1550.78 2402.16,-1550.78 2399.76,-1550.68 2397.36,-1550.49 2394.96,-1550.2 2392.57,-1549.82 2390.19,-1549.34 2387.81,-1548.77 2385.45,-1548.11 2383.1,-1547.36 2380.78,-1546.52 2378.47,-1545.6 2376.19,-1544.59 2373.94,-1543.51 2371.72,-1542.35 2369.54,-1541.11 2367.41,-1539.81 2365.32,-1538.44 2363.3,-1537 2361.33,-1535.51 2359.44,-1533.96 2357.63,-1532.36 2355.89,-1530.72 2354.26,-1529.03 2352.72,-1527.31 2351.29,-1525.56 2349.98,-1523.77 2348.79,-1521.97 2347.74,-1520.15 2346.82,-1518.31 2346.05,-1516.47 2345.44,-1514.62 2344.99,-1512.78 2344.7,-1510.95 2344.59,-1509.12 2344.66,-1507.32 2344.91,-1505.54 2345.35,-1503.78 2345.97,-1502.06 2346.79,-1500.37 2347.8,-1498.73 2349,-1497.13 2350.4,-1495.58 2351.98,-1494.09 2353.75,-1492.65 2355.71,-1491.28 2357.84,-1489.98 2360.15,-1488.74 2362.62,-1487.58 2365.25,-1486.5 2368.03,-1485.49 2370.95,-1484.57 2374,-1483.73 2377.17,-1482.98 2380.44,-1482.32 2383.81,-1481.75 2387.25,-1481.27 2390.76,-1480.89 2394.33,-1480.6 2397.93,-1480.41 2401.55,-1480.31 2405.18,-1480.31 2408.81,-1480.41"/>
<text text-anchor="start" x="2374.2" y="-1525.35" font-family="Times,serif" font-size="14.00">C2081612</text>
<text text-anchor="start" x="2372.27" y="-1511.35" font-family="Times,serif" font-size="14.00">medication</text>
<text text-anchor="start" x="2387.42" y="-1497.35" font-family="Times,serif" font-size="14.00">87:87</text>
</g>
<!-- id_28118752_DOT_18&#45;&#45;id_28118752_DOT_19 -->
<g id="edge14" class="edge">
<title>id_28118752_DOT_18&#45;&#45;id_28118752_DOT_19</title>
<path fill="none" stroke="black" d="M2423.48,-1481.54C2463.56,-1413.78 2552.9,-1262.75 2592.1,-1196.47"/>
<text text-anchor="middle" x="2481.54" y="-1341.81" font-family="Times,serif" font-size="14.00">0.000734</text>
</g>
<!-- id_28118752_DOT_19&#45;&#45;id_28118752_DOT_25 -->
<g id="edge28" class="edge">
<title>id_28118752_DOT_19&#45;&#45;id_28118752_DOT_25</title>
<path fill="none" stroke="black" stroke-dasharray="1,5" d="M2654.82,-1182.93C2722.73,-1212.01 2853.54,-1268.02 2927.59,-1299.73"/>
<text text-anchor="middle" x="2764.96" y="-1244.13" font-family="Times,serif" font-size="14.00">0.899307</text>
</g>
<!-- id_28118752_DOT_20 -->
<g id="node20" class="node">
<title>id_28118752_DOT_20</title>
<polygon fill="darkgoldenrod" stroke="darkgoldenrod" points="6945,-2987.16 6948.61,-2987.36 6952.17,-2987.65 6955.68,-2988.03 6959.13,-2988.51 6962.5,-2989.08 6965.77,-2989.74 6968.94,-2990.49 6971.99,-2991.33 6974.91,-2992.25 6977.69,-2993.26 6980.33,-2994.34 6982.8,-2995.5 6985.11,-2996.74 6987.24,-2998.04 6989.2,-2999.41 6990.97,-3000.85 6992.55,-3002.34 6993.95,-3003.89 6995.15,-3005.48 6996.16,-3007.13 6996.98,-3008.81 6997.6,-3010.54 6998.04,-3012.29 6998.29,-3014.08 6998.36,-3015.88 6998.25,-3017.7 6997.96,-3019.54 6997.51,-3021.38 6996.9,-3023.23 6996.13,-3025.07 6995.21,-3026.9 6994.16,-3028.73 6992.97,-3030.53 6991.66,-3032.31 6990.23,-3034.07 6988.69,-3035.79 6987.05,-3037.48 6985.32,-3039.12 6983.51,-3040.72 6981.61,-3042.27 6979.65,-3043.76 6977.62,-3045.19 6975.54,-3046.57 6973.4,-3047.87 6971.22,-3049.11 6969,-3050.27 6966.75,-3051.35 6964.47,-3052.36 6962.16,-3053.28 6959.83,-3054.12 6957.49,-3054.87 6955.12,-3055.53 6952.75,-3056.1 6950.36,-3056.58 6947.97,-3056.96 6945.57,-3057.25 6943.17,-3057.44 6940.77,-3057.54 6938.36,-3057.54 6935.96,-3057.44 6933.55,-3057.25 6931.16,-3056.96 6928.76,-3056.58 6926.38,-3056.1 6924,-3055.53 6921.64,-3054.87 6919.29,-3054.12 6916.97,-3053.28 6914.66,-3052.36 6912.38,-3051.35 6910.12,-3050.27 6907.9,-3049.11 6905.73,-3047.87 6903.59,-3046.57 6901.51,-3045.19 6899.48,-3043.76 6897.52,-3042.27 6895.62,-3040.72 6893.81,-3039.12 6892.08,-3037.48 6890.44,-3035.79 6888.9,-3034.07 6887.47,-3032.31 6886.16,-3030.53 6884.97,-3028.73 6883.91,-3026.9 6883,-3025.07 6882.23,-3023.23 6881.62,-3021.38 6881.17,-3019.54 6880.88,-3017.7 6880.77,-3015.88 6880.84,-3014.08 6881.09,-3012.29 6881.52,-3010.54 6882.15,-3008.81 6882.97,-3007.13 6883.98,-3005.48 6885.18,-3003.89 6886.57,-3002.34 6888.16,-3000.85 6889.93,-2999.41 6891.89,-2998.04 6894.02,-2996.74 6896.33,-2995.5 6898.8,-2994.34 6901.43,-2993.26 6904.22,-2992.25 6907.14,-2991.33 6910.19,-2990.49 6913.36,-2989.74 6916.63,-2989.08 6920,-2988.51 6923.44,-2988.03 6926.96,-2987.65 6930.52,-2987.36 6934.12,-2987.16 6937.75,-2987.07 6941.38,-2987.07 6945,-2987.16"/>
<text text-anchor="start" x="6910.4" y="-3032.1" font-family="Times,serif" font-size="14.00">C0034980</text>
<text text-anchor="start" x="6908.46" y="-3018.1" font-family="Times,serif" font-size="14.00">Regression</text>
<text text-anchor="start" x="6916.62" y="-3004.1" font-family="Times,serif" font-size="14.00">106:106</text>
</g>
<!-- id_28118752_DOT_20&#45;&#45;id_28118752_DOT_23 -->
<g id="edge29" class="edge">
<title>id_28118752_DOT_20&#45;&#45;id_28118752_DOT_23</title>
<path fill="none" stroke="black" stroke-dasharray="1,5" d="M6925.6,-2987.67C6897.25,-2917.33 6833.22,-2758.49 6804.99,-2688.45"/>
<text text-anchor="middle" x="6839.05" y="-2840.86" font-family="Times,serif" font-size="14.00">0.845849</text>
</g>
<!-- id_28118752_DOT_22 -->
<g id="node22" class="node">
<title>id_28118752_DOT_22</title>
<polygon fill="blueviolet" stroke="blueviolet" points="4367.12,-3238.23 4370.55,-3238.42 4373.94,-3238.71 4377.29,-3239.1 4380.57,-3239.57 4383.77,-3240.14 4386.89,-3240.8 4389.9,-3241.56 4392.81,-3242.39 4395.59,-3243.32 4398.23,-3244.32 4400.74,-3245.41 4403.09,-3246.57 4405.29,-3247.8 4407.32,-3249.11 4409.18,-3250.48 4410.87,-3251.91 4412.38,-3253.4 4413.7,-3254.95 4414.85,-3256.55 4415.81,-3258.19 4416.59,-3259.88 4417.18,-3261.6 4417.6,-3263.36 4417.84,-3265.14 4417.9,-3266.95 4417.79,-3268.77 4417.52,-3270.6 4417.09,-3272.45 4416.51,-3274.29 4415.78,-3276.13 4414.91,-3277.97 4413.9,-3279.79 4412.77,-3281.6 4411.52,-3283.38 4410.16,-3285.13 4408.7,-3286.86 4407.14,-3288.54 4405.49,-3290.19 4403.76,-3291.79 4401.96,-3293.33 4400.09,-3294.83 4398.16,-3296.26 4396.18,-3297.63 4394.15,-3298.94 4392.07,-3300.17 4389.96,-3301.33 4387.82,-3302.42 4385.65,-3303.42 4383.45,-3304.35 4381.23,-3305.18 4379,-3305.93 4376.75,-3306.59 4374.49,-3307.17 4372.22,-3307.64 4369.95,-3308.03 4367.66,-3308.31 4365.38,-3308.51 4363.09,-3308.6 4360.8,-3308.6 4358.51,-3308.51 4356.22,-3308.31 4353.94,-3308.03 4351.66,-3307.64 4349.4,-3307.17 4347.14,-3306.59 4344.89,-3305.93 4342.65,-3305.18 4340.44,-3304.35 4338.24,-3303.42 4336.07,-3302.42 4333.92,-3301.33 4331.81,-3300.17 4329.74,-3298.94 4327.71,-3297.63 4325.72,-3296.26 4323.79,-3294.83 4321.92,-3293.33 4320.12,-3291.79 4318.39,-3290.19 4316.75,-3288.54 4315.19,-3286.86 4313.72,-3285.13 4312.36,-3283.38 4311.12,-3281.6 4309.98,-3279.79 4308.98,-3277.97 4308.11,-3276.13 4307.38,-3274.29 4306.79,-3272.45 4306.36,-3270.6 4306.09,-3268.77 4305.99,-3266.95 4306.05,-3265.14 4306.29,-3263.36 4306.7,-3261.6 4307.3,-3259.88 4308.08,-3258.19 4309.04,-3256.55 4310.18,-3254.95 4311.51,-3253.4 4313.02,-3251.91 4314.71,-3250.48 4316.57,-3249.11 4318.6,-3247.8 4320.8,-3246.57 4323.15,-3245.41 4325.65,-3244.32 4328.3,-3243.32 4331.08,-3242.39 4333.98,-3241.56 4337,-3240.8 4340.12,-3240.14 4343.32,-3239.57 4346.6,-3239.1 4349.94,-3238.71 4353.34,-3238.42 4356.77,-3238.23 4360.22,-3238.13 4363.67,-3238.13 4367.12,-3238.23"/>
<text text-anchor="start" x="4332.77" y="-3283.17" font-family="Times,serif" font-size="14.00">C0304402</text>
<text text-anchor="start" x="4333.16" y="-3269.17" font-family="Times,serif" font-size="14.00">stimulants</text>
<text text-anchor="start" x="4339" y="-3255.17" font-family="Times,serif" font-size="14.00">123:123</text>
</g>
<!-- id_28118752_DOT_24 -->
<g id="node24" class="node">
<title>id_28118752_DOT_24</title>
<polygon fill="blueviolet" stroke="blueviolet" points="4441.95,-2852.44 4445.38,-2852.64 4448.78,-2852.93 4452.12,-2853.31 4455.4,-2853.79 4458.6,-2854.36 4461.72,-2855.02 4464.74,-2855.77 4467.64,-2856.61 4470.42,-2857.53 4473.07,-2858.53 4475.57,-2859.62 4477.92,-2860.78 4480.12,-2862.01 4482.15,-2863.32 4484.01,-2864.69 4485.7,-2866.13 4487.21,-2867.62 4488.54,-2869.17 4489.68,-2870.76 4490.64,-2872.41 4491.42,-2874.09 4492.02,-2875.82 4492.43,-2877.57 4492.67,-2879.35 4492.73,-2881.16 4492.63,-2882.98 4492.36,-2884.82 4491.93,-2886.66 4491.34,-2888.51 4490.61,-2890.35 4489.74,-2892.18 4488.74,-2894.01 4487.61,-2895.81 4486.36,-2897.59 4485,-2899.35 4483.53,-2901.07 4481.97,-2902.76 4480.33,-2904.4 4478.6,-2906 4476.8,-2907.55 4474.93,-2909.04 4473,-2910.47 4471.01,-2911.85 4468.98,-2913.15 4466.91,-2914.38 4464.8,-2915.55 4462.65,-2916.63 4460.48,-2917.64 4458.28,-2918.56 4456.07,-2919.4 4453.83,-2920.15 4451.59,-2920.81 4449.33,-2921.38 4447.06,-2921.86 4444.78,-2922.24 4442.5,-2922.53 4440.21,-2922.72 4437.92,-2922.82 4435.63,-2922.82 4433.34,-2922.72 4431.06,-2922.53 4428.78,-2922.24 4426.5,-2921.86 4424.23,-2921.38 4421.97,-2920.81 4419.72,-2920.15 4417.49,-2919.4 4415.27,-2918.56 4413.07,-2917.64 4410.9,-2916.63 4408.76,-2915.55 4406.65,-2914.38 4404.57,-2913.15 4402.54,-2911.85 4400.56,-2910.47 4398.63,-2909.04 4396.76,-2907.55 4394.96,-2906 4393.23,-2904.4 4391.58,-2902.76 4390.02,-2901.07 4388.56,-2899.35 4387.2,-2897.59 4385.95,-2895.81 4384.82,-2894.01 4383.81,-2892.18 4382.94,-2890.35 4382.21,-2888.51 4381.63,-2886.66 4381.2,-2884.82 4380.93,-2882.98 4380.82,-2881.16 4380.88,-2879.35 4381.12,-2877.57 4381.54,-2875.82 4382.13,-2874.09 4382.91,-2872.41 4383.87,-2870.76 4385.02,-2869.17 4386.35,-2867.62 4387.85,-2866.13 4389.54,-2864.69 4391.4,-2863.32 4393.43,-2862.01 4395.63,-2860.78 4397.98,-2859.62 4400.49,-2858.53 4403.13,-2857.53 4405.91,-2856.61 4408.82,-2855.77 4411.83,-2855.02 4414.95,-2854.36 4418.15,-2853.79 4421.43,-2853.31 4424.78,-2852.93 4428.17,-2852.64 4431.6,-2852.44 4435.05,-2852.35 4438.51,-2852.35 4441.95,-2852.44"/>
<text text-anchor="start" x="4407.61" y="-2897.38" font-family="Times,serif" font-size="14.00">C0304402</text>
<text text-anchor="start" x="4410.72" y="-2883.38" font-family="Times,serif" font-size="14.00">stimulant</text>
<text text-anchor="start" x="4413.83" y="-2869.38" font-family="Times,serif" font-size="14.00">143:143</text>
</g>
<!-- id_28118752_DOT_22&#45;&#45;id_28118752_DOT_24 -->
<g id="edge15" class="edge">
<title>id_28118752_DOT_22&#45;&#45;id_28118752_DOT_24</title>
<path fill="none" stroke="black" d="M4368.78,-3238.11C4383.04,-3164.64 4415.77,-2995.9 4429.98,-2922.62"/>
<text text-anchor="middle" x="4373.13" y="-3083.16" font-family="Times,serif" font-size="14.00">0.004560</text>
</g>
<!-- id_28118752_DOT_23&#45;&#45;id_28118752_DOT_29 -->
<g id="edge16" class="edge">
<title>id_28118752_DOT_23&#45;&#45;id_28118752_DOT_29</title>
<path fill="none" stroke="black" d="M6732.93,-2631.1C6661.38,-2602.74 6541.18,-2555.11 6473.62,-2528.34"/>
<text text-anchor="middle" x="6577.03" y="-2582.52" font-family="Times,serif" font-size="14.00">0.009618</text>
</g>
<!-- id_28118752_DOT_24&#45;&#45;id_28118752_DOT_27 -->
<g id="edge17" class="edge">
<title>id_28118752_DOT_24&#45;&#45;id_28118752_DOT_27</title>
<path fill="none" stroke="black" d="M4445.16,-2852.29C4463.6,-2774.64 4507.52,-2589.77 4525.85,-2512.6"/>
<text text-anchor="middle" x="4459.25" y="-2685.25" font-family="Times,serif" font-size="14.00">0.004045</text>
</g>
<!-- id_28118752_DOT_27&#45;&#45;id_28118752_DOT_30 -->
<g id="edge18" class="edge">
<title>id_28118752_DOT_27&#45;&#45;id_28118752_DOT_30</title>
<path fill="none" stroke="black" d="M4500.17,-2447.74C4440.07,-2394.44 4315.86,-2284.28 4258.37,-2233.29"/>
<text text-anchor="middle" x="4353.02" y="-2343.31" font-family="Times,serif" font-size="14.00">0.000602</text>
</g>
</g>
</svg>
