<?xml version="1.0" encoding="UTF-8" standalone="no"?>
<!DOCTYPE svg PUBLIC "-//W3C//DTD SVG 1.1//EN"
 "http://www.w3.org/Graphics/SVG/1.1/DTD/svg11.dtd">
<!-- Generated by graphviz version 2.42.3 (20191010.1750)
 -->
<!-- Title: MST Pages: 1 -->
<svg width="4867pt" height="6091pt"
 viewBox="0.00 0.00 4866.86 6091.31" xmlns="http://www.w3.org/2000/svg" xmlns:xlink="http://www.w3.org/1999/xlink">
<g id="graph0" class="graph" transform="scale(1 1) rotate(0) translate(4 6087.31)">
<title>MST</title>
<polygon fill="white" stroke="transparent" points="-4,4 -4,-6087.31 4862.86,-6087.31 4862.86,4 -4,4"/>
<!-- id_28118200_DOT_1 -->
<g id="node1" class="node">
<title>id_28118200_DOT_1</title>
<polygon fill="aquamarine" stroke="aquamarine" points="2500.82,-2874.07 2506.93,-2874.27 2512.97,-2874.55 2518.93,-2874.94 2524.77,-2875.42 2530.48,-2875.99 2536.03,-2876.65 2541.4,-2877.4 2546.57,-2878.23 2551.52,-2879.16 2556.24,-2880.16 2560.7,-2881.25 2564.89,-2882.41 2568.81,-2883.64 2572.43,-2884.95 2575.74,-2886.32 2578.75,-2887.75 2581.43,-2889.25 2583.8,-2890.79 2585.84,-2892.39 2587.55,-2894.04 2588.93,-2895.72 2590,-2897.45 2590.74,-2899.2 2591.16,-2900.98 2591.27,-2902.79 2591.09,-2904.61 2590.6,-2906.45 2589.84,-2908.29 2588.8,-2910.13 2587.5,-2911.98 2585.94,-2913.81 2584.15,-2915.63 2582.14,-2917.44 2579.91,-2919.22 2577.49,-2920.98 2574.88,-2922.7 2572.11,-2924.39 2569.17,-2926.03 2566.09,-2927.63 2562.88,-2929.18 2559.55,-2930.67 2556.12,-2932.1 2552.58,-2933.47 2548.96,-2934.78 2545.27,-2936.01 2541.51,-2937.17 2537.69,-2938.26 2533.82,-2939.26 2529.91,-2940.19 2525.96,-2941.02 2521.98,-2941.78 2517.98,-2942.44 2513.95,-2943.01 2509.91,-2943.48 2505.85,-2943.87 2501.78,-2944.16 2497.71,-2944.35 2493.63,-2944.45 2489.56,-2944.45 2485.48,-2944.35 2481.41,-2944.16 2477.34,-2943.87 2473.29,-2943.48 2469.24,-2943.01 2465.22,-2942.44 2461.21,-2941.78 2457.23,-2941.02 2453.28,-2940.19 2449.37,-2939.26 2445.5,-2938.26 2441.68,-2937.17 2437.92,-2936.01 2434.23,-2934.78 2430.61,-2933.47 2427.08,-2932.1 2423.64,-2930.67 2420.31,-2929.18 2417.1,-2927.63 2414.02,-2926.03 2411.08,-2924.39 2408.31,-2922.7 2405.7,-2920.98 2403.28,-2919.22 2401.05,-2917.44 2399.04,-2915.63 2397.25,-2913.81 2395.7,-2911.98 2394.39,-2910.13 2393.35,-2908.29 2392.59,-2906.45 2392.11,-2904.61 2391.92,-2902.79 2392.03,-2900.98 2392.46,-2899.2 2393.2,-2897.45 2394.26,-2895.72 2395.64,-2894.04 2397.36,-2892.39 2399.39,-2890.79 2401.76,-2889.25 2404.45,-2887.75 2407.45,-2886.32 2410.77,-2884.95 2414.39,-2883.64 2418.3,-2882.41 2422.49,-2881.25 2426.95,-2880.16 2431.67,-2879.16 2436.62,-2878.23 2441.79,-2877.4 2447.16,-2876.65 2452.71,-2875.99 2458.42,-2875.42 2464.27,-2874.94 2470.22,-2874.55 2476.27,-2874.27 2482.37,-2874.07 2488.52,-2873.98 2494.67,-2873.98 2500.82,-2874.07"/>
<text text-anchor="start" x="2462.43" y="-2919.01" font-family="Times,serif" font-size="14.00">C3889687</text>
<text text-anchor="start" x="2433.47" y="-2905.01" font-family="Times,serif" font-size="14.00">Clinical Observation</text>
<text text-anchor="start" x="2482.65" y="-2891.01" font-family="Times,serif" font-size="14.00">0:1</text>
</g>
<!-- id_28118200_DOT_8 -->
<g id="node8" class="node">
<title>id_28118200_DOT_8</title>
<polygon fill="cadetblue" stroke="cadetblue" points="2887.55,-3034.88 2891.41,-3035.08 2895.23,-3035.37 2899,-3035.75 2902.69,-3036.23 2906.3,-3036.8 2909.81,-3037.46 2913.21,-3038.21 2916.48,-3039.05 2919.61,-3039.97 2922.59,-3040.97 2925.42,-3042.06 2928.07,-3043.22 2930.54,-3044.46 2932.83,-3045.76 2934.93,-3047.13 2936.83,-3048.57 2938.53,-3050.06 2940.02,-3051.61 2941.31,-3053.2 2942.39,-3054.85 2943.27,-3056.53 2943.94,-3058.26 2944.41,-3060.01 2944.68,-3061.79 2944.75,-3063.6 2944.63,-3065.42 2944.33,-3067.26 2943.84,-3069.1 2943.18,-3070.95 2942.36,-3072.79 2941.38,-3074.62 2940.25,-3076.45 2938.97,-3078.25 2937.57,-3080.03 2936.03,-3081.79 2934.39,-3083.51 2932.63,-3085.2 2930.77,-3086.84 2928.83,-3088.44 2926.8,-3089.99 2924.69,-3091.48 2922.52,-3092.91 2920.28,-3094.29 2917.99,-3095.59 2915.66,-3096.83 2913.28,-3097.99 2910.86,-3099.07 2908.42,-3100.08 2905.94,-3101 2903.45,-3101.84 2900.93,-3102.59 2898.4,-3103.25 2895.85,-3103.82 2893.29,-3104.3 2890.73,-3104.68 2888.16,-3104.97 2885.58,-3105.16 2883,-3105.26 2880.42,-3105.26 2877.85,-3105.16 2875.27,-3104.97 2872.7,-3104.68 2870.13,-3104.3 2867.58,-3103.82 2865.03,-3103.25 2862.5,-3102.59 2859.98,-3101.84 2857.49,-3101 2855.01,-3100.08 2852.56,-3099.07 2850.15,-3097.99 2847.77,-3096.83 2845.43,-3095.59 2843.15,-3094.29 2840.91,-3092.91 2838.74,-3091.48 2836.63,-3089.99 2834.6,-3088.44 2832.66,-3086.84 2830.8,-3085.2 2829.04,-3083.51 2827.39,-3081.79 2825.86,-3080.03 2824.46,-3078.25 2823.18,-3076.45 2822.05,-3074.62 2821.07,-3072.79 2820.25,-3070.95 2819.59,-3069.1 2819.1,-3067.26 2818.8,-3065.42 2818.68,-3063.6 2818.75,-3061.79 2819.02,-3060.01 2819.49,-3058.26 2820.16,-3056.53 2821.03,-3054.85 2822.12,-3053.2 2823.41,-3051.61 2824.9,-3050.06 2826.6,-3048.57 2828.5,-3047.13 2830.6,-3045.76 2832.89,-3044.46 2835.36,-3043.22 2838.01,-3042.06 2840.83,-3040.97 2843.82,-3039.97 2846.95,-3039.05 2850.22,-3038.21 2853.61,-3037.46 2857.12,-3036.8 2860.73,-3036.23 2864.43,-3035.75 2868.2,-3035.37 2872.02,-3035.08 2875.88,-3034.88 2879.77,-3034.79 2883.66,-3034.79 2887.55,-3034.88"/>
<text text-anchor="start" x="2852.55" y="-3079.82" font-family="Times,serif" font-size="14.00">C1516606</text>
<text text-anchor="start" x="2847.71" y="-3065.82" font-family="Times,serif" font-size="14.00">clinical data</text>
<text text-anchor="start" x="2865.77" y="-3051.82" font-family="Times,serif" font-size="14.00">48:49</text>
</g>
<!-- id_28118200_DOT_1&#45;&#45;id_28118200_DOT_8 -->
<g id="edge17" class="edge">
<title>id_28118200_DOT_1&#45;&#45;id_28118200_DOT_8</title>
<path fill="none" stroke="black" stroke-dasharray="1,5" d="M2551.7,-2933.99C2627.04,-2965.04 2755.07,-3017.82 2827.52,-3047.68"/>
<text text-anchor="middle" x="2663.36" y="-2993.63" font-family="Times,serif" font-size="14.00">0.527133</text>
</g>
<!-- id_28118200_DOT_23 -->
<g id="node23" class="node">
<title>id_28118200_DOT_23</title>
<polygon fill="darkkhaki" stroke="darkkhaki" points="2162.28,-2643.04 2165.7,-2643.23 2169.1,-2643.52 2172.44,-2643.9 2175.72,-2644.38 2178.93,-2644.95 2182.04,-2645.61 2185.06,-2646.36 2187.96,-2647.2 2190.74,-2648.12 2193.39,-2649.13 2195.89,-2650.21 2198.25,-2651.37 2200.44,-2652.61 2202.47,-2653.91 2204.33,-2655.28 2206.02,-2656.72 2207.53,-2658.21 2208.86,-2659.76 2210,-2661.36 2210.96,-2663 2211.74,-2664.69 2212.34,-2666.41 2212.75,-2668.16 2212.99,-2669.95 2213.05,-2671.75 2212.95,-2673.57 2212.68,-2675.41 2212.25,-2677.25 2211.66,-2679.1 2210.93,-2680.94 2210.06,-2682.78 2209.06,-2684.6 2207.93,-2686.4 2206.68,-2688.19 2205.32,-2689.94 2203.85,-2691.66 2202.29,-2693.35 2200.65,-2694.99 2198.92,-2696.59 2197.12,-2698.14 2195.25,-2699.63 2193.32,-2701.07 2191.33,-2702.44 2189.3,-2703.74 2187.23,-2704.98 2185.12,-2706.14 2182.97,-2707.22 2180.8,-2708.23 2178.61,-2709.15 2176.39,-2709.99 2174.15,-2710.74 2171.91,-2711.4 2169.65,-2711.97 2167.38,-2712.45 2165.1,-2712.83 2162.82,-2713.12 2160.53,-2713.31 2158.24,-2713.41 2155.95,-2713.41 2153.66,-2713.31 2151.38,-2713.12 2149.1,-2712.83 2146.82,-2712.45 2144.55,-2711.97 2142.29,-2711.4 2140.04,-2710.74 2137.81,-2709.99 2135.59,-2709.15 2133.39,-2708.23 2131.22,-2707.22 2129.08,-2706.14 2126.97,-2704.98 2124.89,-2703.74 2122.86,-2702.44 2120.88,-2701.07 2118.95,-2699.63 2117.08,-2698.14 2115.28,-2696.59 2113.55,-2694.99 2111.9,-2693.35 2110.34,-2691.66 2108.88,-2689.94 2107.52,-2688.19 2106.27,-2686.4 2105.14,-2684.6 2104.13,-2682.78 2103.26,-2680.94 2102.53,-2679.1 2101.95,-2677.25 2101.52,-2675.41 2101.25,-2673.57 2101.14,-2671.75 2101.21,-2669.95 2101.44,-2668.16 2101.86,-2666.41 2102.45,-2664.69 2103.23,-2663 2104.19,-2661.36 2105.34,-2659.76 2106.67,-2658.21 2108.17,-2656.72 2109.86,-2655.28 2111.72,-2653.91 2113.75,-2652.61 2115.95,-2651.37 2118.3,-2650.21 2120.81,-2649.13 2123.46,-2648.12 2126.24,-2647.2 2129.14,-2646.36 2132.15,-2645.61 2135.27,-2644.95 2138.47,-2644.38 2141.76,-2643.9 2145.1,-2643.52 2148.49,-2643.23 2151.92,-2643.04 2155.37,-2642.94 2158.83,-2642.94 2162.28,-2643.04"/>
<text text-anchor="start" x="2127.93" y="-2687.98" font-family="Times,serif" font-size="14.00">C0543467</text>
<text text-anchor="start" x="2130.66" y="-2673.98" font-family="Times,serif" font-size="14.00">operation</text>
<text text-anchor="start" x="2134.15" y="-2659.98" font-family="Times,serif" font-size="14.00">134:134</text>
</g>
<!-- id_28118200_DOT_1&#45;&#45;id_28118200_DOT_23 -->
<g id="edge18" class="edge">
<title>id_28118200_DOT_1&#45;&#45;id_28118200_DOT_23</title>
<path fill="none" stroke="black" stroke-dasharray="1,5" d="M2444.73,-2876.84C2376.77,-2829.9 2252.38,-2743.99 2191.93,-2702.23"/>
<text text-anchor="middle" x="2292.08" y="-2792.34" font-family="Times,serif" font-size="14.00">0.916176</text>
</g>
<!-- id_28118200_DOT_2 -->
<g id="node2" class="node">
<title>id_28118200_DOT_2</title>
<polygon fill="bisque" stroke="bisque" points="4735.82,-3076.27 4744.13,-3076.46 4752.36,-3076.75 4760.47,-3077.13 4768.43,-3077.61 4776.2,-3078.18 4783.76,-3078.84 4791.07,-3079.59 4798.11,-3080.43 4804.85,-3081.35 4811.27,-3082.36 4817.34,-3083.44 4823.05,-3084.6 4828.38,-3085.84 4833.31,-3087.14 4837.82,-3088.52 4841.91,-3089.95 4845.57,-3091.44 4848.79,-3092.99 4851.56,-3094.59 4853.89,-3096.23 4855.78,-3097.92 4857.23,-3099.64 4858.23,-3101.4 4858.81,-3103.18 4858.97,-3104.98 4858.71,-3106.81 4858.05,-3108.64 4857.01,-3110.48 4855.59,-3112.33 4853.82,-3114.17 4851.71,-3116.01 4849.27,-3117.83 4846.53,-3119.64 4843.5,-3121.42 4840.2,-3123.17 4836.65,-3124.9 4832.87,-3126.58 4828.88,-3128.23 4824.69,-3129.82 4820.31,-3131.37 4815.78,-3132.86 4811.1,-3134.3 4806.29,-3135.67 4801.37,-3136.97 4796.34,-3138.21 4791.22,-3139.37 4786.02,-3140.46 4780.75,-3141.46 4775.42,-3142.38 4770.05,-3143.22 4764.63,-3143.97 4759.18,-3144.63 4753.69,-3145.2 4748.19,-3145.68 4742.67,-3146.06 4737.13,-3146.35 4731.59,-3146.55 4726.04,-3146.64 4720.49,-3146.64 4714.94,-3146.55 4709.39,-3146.35 4703.86,-3146.06 4698.34,-3145.68 4692.83,-3145.2 4687.35,-3144.63 4681.9,-3143.97 4676.48,-3143.22 4671.1,-3142.38 4665.78,-3141.46 4660.51,-3140.46 4655.31,-3139.37 4650.19,-3138.21 4645.16,-3136.97 4640.23,-3135.67 4635.42,-3134.3 4630.74,-3132.86 4626.21,-3131.37 4621.84,-3129.82 4617.65,-3128.23 4613.65,-3126.58 4609.87,-3124.9 4606.32,-3123.17 4603.02,-3121.42 4600,-3119.64 4597.25,-3117.83 4594.82,-3116.01 4592.7,-3114.17 4590.93,-3112.33 4589.52,-3110.48 4588.47,-3108.64 4587.82,-3106.81 4587.56,-3104.98 4587.71,-3103.18 4588.29,-3101.4 4589.3,-3099.64 4590.74,-3097.92 4592.63,-3096.23 4594.96,-3094.59 4597.74,-3092.99 4600.96,-3091.44 4604.62,-3089.95 4608.71,-3088.52 4613.22,-3087.14 4618.15,-3085.84 4623.47,-3084.6 4629.18,-3083.44 4635.26,-3082.36 4641.68,-3081.35 4648.42,-3080.43 4655.46,-3079.59 4662.77,-3078.84 4670.33,-3078.18 4678.1,-3077.61 4686.05,-3077.13 4694.16,-3076.75 4702.39,-3076.46 4710.71,-3076.27 4719.07,-3076.17 4727.45,-3076.17 4735.82,-3076.27"/>
<text text-anchor="start" x="4694.09" y="-3121.21" font-family="Times,serif" font-size="14.00">C0749095</text>
<text text-anchor="start" x="4641.22" y="-3107.21" font-family="Times,serif" font-size="14.00">Chronic Subdural Hematoma</text>
<text text-anchor="start" x="4714.32" y="-3093.21" font-family="Times,serif" font-size="14.00">5:7</text>
</g>
<!-- id_28118200_DOT_6 -->
<g id="node6" class="node">
<title>id_28118200_DOT_6</title>
<polygon fill="bisque" stroke="bisque" points="4367.98,-3174.2 4375.9,-3174.4 4383.74,-3174.69 4391.46,-3175.07 4399.04,-3175.55 4406.45,-3176.12 4413.65,-3176.78 4420.62,-3177.53 4427.32,-3178.37 4433.75,-3179.29 4439.86,-3180.29 4445.65,-3181.38 4451.09,-3182.54 4456.16,-3183.77 4460.86,-3185.08 4465.16,-3186.45 4469.06,-3187.89 4472.54,-3189.38 4475.61,-3190.93 4478.25,-3192.52 4480.47,-3194.17 4482.27,-3195.85 4483.65,-3197.58 4484.61,-3199.33 4485.16,-3201.11 4485.31,-3202.92 4485.06,-3204.74 4484.44,-3206.58 4483.44,-3208.42 4482.09,-3210.27 4480.4,-3212.11 4478.39,-3213.94 4476.07,-3215.77 4473.46,-3217.57 4470.57,-3219.35 4467.43,-3221.11 4464.05,-3222.83 4460.44,-3224.52 4456.64,-3226.16 4452.64,-3227.76 4448.48,-3229.31 4444.16,-3230.8 4439.7,-3232.23 4435.12,-3233.61 4430.43,-3234.91 4425.63,-3236.14 4420.76,-3237.31 4415.8,-3238.39 4410.78,-3239.4 4405.71,-3240.32 4400.59,-3241.16 4395.42,-3241.91 4390.23,-3242.57 4385.01,-3243.14 4379.76,-3243.62 4374.5,-3244 4369.23,-3244.29 4363.95,-3244.48 4358.66,-3244.58 4353.37,-3244.58 4348.08,-3244.48 4342.8,-3244.29 4337.52,-3244 4332.26,-3243.62 4327.02,-3243.14 4321.8,-3242.57 4316.6,-3241.91 4311.44,-3241.16 4306.32,-3240.32 4301.24,-3239.4 4296.22,-3238.39 4291.27,-3237.31 4286.39,-3236.14 4281.6,-3234.91 4276.9,-3233.61 4272.32,-3232.23 4267.86,-3230.8 4263.55,-3229.31 4259.38,-3227.76 4255.39,-3226.16 4251.58,-3224.52 4247.98,-3222.83 4244.6,-3221.11 4241.45,-3219.35 4238.57,-3217.57 4235.96,-3215.77 4233.63,-3213.94 4231.62,-3212.11 4229.93,-3210.27 4228.58,-3208.42 4227.59,-3206.58 4226.96,-3204.74 4226.72,-3202.92 4226.87,-3201.11 4227.42,-3199.33 4228.38,-3197.58 4229.75,-3195.85 4231.55,-3194.17 4233.77,-3192.52 4236.42,-3190.93 4239.48,-3189.38 4242.97,-3187.89 4246.87,-3186.45 4251.17,-3185.08 4255.86,-3183.77 4260.94,-3182.54 4266.38,-3181.38 4272.16,-3180.29 4278.28,-3179.29 4284.7,-3178.37 4291.41,-3177.53 4298.38,-3176.78 4305.58,-3176.12 4312.98,-3175.55 4320.56,-3175.07 4328.29,-3174.69 4336.13,-3174.4 4344.05,-3174.2 4352.02,-3174.11 4360.01,-3174.11 4367.98,-3174.2"/>
<text text-anchor="start" x="4326.84" y="-3219.14" font-family="Times,serif" font-size="14.00">C0749095</text>
<text text-anchor="start" x="4278.26" y="-3205.14" font-family="Times,serif" font-size="14.00">chronic subdural hematoma</text>
<text text-anchor="start" x="4340.07" y="-3191.14" font-family="Times,serif" font-size="14.00">39:41</text>
</g>
<!-- id_28118200_DOT_2&#45;&#45;id_28118200_DOT_6 -->
<g id="edge1" class="edge">
<title>id_28118200_DOT_2&#45;&#45;id_28118200_DOT_6</title>
<path fill="none" stroke="black" d="M4636.23,-3134.62C4581.51,-3149.21 4510.78,-3168.07 4454.07,-3183.19"/>
<text text-anchor="middle" x="4518.9" y="-3161.7" font-family="Times,serif" font-size="14.00">0.000144</text>
</g>
<!-- id_28118200_DOT_3 -->
<g id="node3" class="node">
<title>id_28118200_DOT_3</title>
<polygon fill="blue" stroke="blue" points="980.68,-1145.17 998.33,-1145.36 1015.81,-1145.65 1033.03,-1146.03 1049.92,-1146.51 1066.43,-1147.08 1082.48,-1147.74 1098.01,-1148.49 1112.96,-1149.33 1127.28,-1150.25 1140.91,-1151.26 1153.81,-1152.34 1165.94,-1153.5 1177.25,-1154.74 1187.71,-1156.04 1197.3,-1157.42 1205.98,-1158.85 1213.75,-1160.34 1220.59,-1161.89 1226.48,-1163.49 1231.43,-1165.13 1235.44,-1166.82 1238.51,-1168.54 1240.65,-1170.3 1241.88,-1172.08 1242.21,-1173.88 1241.66,-1175.71 1240.27,-1177.54 1238.05,-1179.38 1235.05,-1181.23 1231.28,-1183.07 1226.79,-1184.91 1221.62,-1186.73 1215.8,-1188.53 1209.36,-1190.32 1202.36,-1192.07 1194.82,-1193.8 1186.79,-1195.48 1178.3,-1197.13 1169.4,-1198.72 1160.12,-1200.27 1150.49,-1201.76 1140.56,-1203.2 1130.34,-1204.57 1119.88,-1205.87 1109.2,-1207.11 1098.32,-1208.27 1087.28,-1209.35 1076.09,-1210.36 1064.78,-1211.28 1053.36,-1212.12 1041.86,-1212.87 1030.28,-1213.53 1018.64,-1214.1 1006.95,-1214.58 995.22,-1214.96 983.46,-1215.25 971.69,-1215.45 959.9,-1215.54 948.11,-1215.54 936.32,-1215.45 924.55,-1215.25 912.79,-1214.96 901.07,-1214.58 889.38,-1214.1 877.74,-1213.53 866.16,-1212.87 854.65,-1212.12 843.23,-1211.28 831.92,-1210.36 820.73,-1209.35 809.69,-1208.27 798.82,-1207.11 788.13,-1205.87 777.67,-1204.57 767.46,-1203.2 757.52,-1201.76 747.89,-1200.27 738.61,-1198.72 729.71,-1197.13 721.22,-1195.48 713.19,-1193.8 705.66,-1192.07 698.65,-1190.32 692.22,-1188.53 686.39,-1186.73 681.22,-1184.91 676.73,-1183.07 672.97,-1181.23 669.96,-1179.38 667.74,-1177.54 666.35,-1175.71 665.81,-1173.88 666.14,-1172.08 667.36,-1170.3 669.5,-1168.54 672.57,-1166.82 676.58,-1165.13 681.53,-1163.49 687.42,-1161.89 694.26,-1160.34 702.03,-1158.85 710.72,-1157.42 720.3,-1156.04 730.77,-1154.74 742.08,-1153.5 754.2,-1152.34 767.1,-1151.26 780.73,-1150.25 795.05,-1149.33 810,-1148.49 825.53,-1147.74 841.58,-1147.08 858.09,-1146.51 874.98,-1146.03 892.21,-1145.65 909.68,-1145.36 927.34,-1145.17 945.1,-1145.07 962.91,-1145.07 980.68,-1145.17"/>
<text text-anchor="start" x="924.84" y="-1190.11" font-family="Times,serif" font-size="14.00">C0025080</text>
<text text-anchor="start" x="770.71" y="-1176.11" font-family="Times,serif" font-size="14.00">Novel Double Needle Minimally Invasive Aspiration Technology</text>
<text text-anchor="start" x="941.56" y="-1162.11" font-family="Times,serif" font-size="14.00">9:15</text>
</g>
<!-- id_28118200_DOT_7 -->
<g id="node7" class="node">
<title>id_28118200_DOT_7</title>
<polygon fill="blue" stroke="blue" points="1104.96,-1532.53 1112.02,-1532.73 1119,-1533.02 1125.89,-1533.4 1132.64,-1533.88 1139.24,-1534.45 1145.65,-1535.11 1151.86,-1535.86 1157.83,-1536.7 1163.56,-1537.62 1169.01,-1538.63 1174.16,-1539.71 1179.01,-1540.87 1183.53,-1542.11 1187.71,-1543.41 1191.54,-1544.78 1195.01,-1546.22 1198.12,-1547.71 1200.85,-1549.26 1203.21,-1550.85 1205.19,-1552.5 1206.79,-1554.18 1208.01,-1555.91 1208.87,-1557.66 1209.36,-1559.45 1209.49,-1561.25 1209.27,-1563.07 1208.72,-1564.91 1207.83,-1566.75 1206.63,-1568.6 1205.12,-1570.44 1203.33,-1572.27 1201.26,-1574.1 1198.94,-1575.9 1196.36,-1577.68 1193.56,-1579.44 1190.55,-1581.16 1187.34,-1582.85 1183.95,-1584.49 1180.39,-1586.09 1176.68,-1587.64 1172.84,-1589.13 1168.86,-1590.57 1164.78,-1591.94 1160.6,-1593.24 1156.33,-1594.48 1151.98,-1595.64 1147.57,-1596.72 1143.1,-1597.73 1138.58,-1598.65 1134.01,-1599.49 1129.42,-1600.24 1124.79,-1600.9 1120.14,-1601.47 1115.46,-1601.95 1110.78,-1602.33 1106.08,-1602.62 1101.37,-1602.81 1096.66,-1602.91 1091.95,-1602.91 1087.24,-1602.81 1082.53,-1602.62 1077.83,-1602.33 1073.15,-1601.95 1068.47,-1601.47 1063.82,-1600.9 1059.19,-1600.24 1054.59,-1599.49 1050.03,-1598.65 1045.51,-1597.73 1041.04,-1596.72 1036.62,-1595.64 1032.28,-1594.48 1028.01,-1593.24 1023.83,-1591.94 1019.74,-1590.57 1015.77,-1589.13 1011.92,-1587.64 1008.22,-1586.09 1004.66,-1584.49 1001.27,-1582.85 998.06,-1581.16 995.04,-1579.44 992.24,-1577.68 989.67,-1575.9 987.35,-1574.1 985.28,-1572.27 983.48,-1570.44 981.98,-1568.6 980.78,-1566.75 979.89,-1564.91 979.33,-1563.07 979.12,-1561.25 979.25,-1559.45 979.74,-1557.66 980.59,-1555.91 981.82,-1554.18 983.42,-1552.5 985.4,-1550.85 987.76,-1549.26 990.49,-1547.71 993.59,-1546.22 997.07,-1544.78 1000.9,-1543.41 1005.08,-1542.11 1009.6,-1540.87 1014.45,-1539.71 1019.6,-1538.63 1025.05,-1537.62 1030.77,-1536.7 1036.75,-1535.86 1042.96,-1535.11 1049.37,-1534.45 1055.97,-1533.88 1062.72,-1533.4 1069.6,-1533.02 1076.59,-1532.73 1083.65,-1532.53 1090.75,-1532.44 1097.86,-1532.44 1104.96,-1532.53"/>
<text text-anchor="start" x="1065.14" y="-1577.47" font-family="Times,serif" font-size="14.00">C0025080</text>
<text text-anchor="start" x="1025.88" y="-1563.47" font-family="Times,serif" font-size="14.00">double needle aspiration</text>
<text text-anchor="start" x="1078.36" y="-1549.47" font-family="Times,serif" font-size="14.00">43:45</text>
</g>
<!-- id_28118200_DOT_3&#45;&#45;id_28118200_DOT_7 -->
<g id="edge2" class="edge">
<title>id_28118200_DOT_3&#45;&#45;id_28118200_DOT_7</title>
<path fill="none" stroke="black" d="M966.83,-1215.71C993.55,-1289.48 1054.91,-1458.91 1081.56,-1532.49"/>
<text text-anchor="middle" x="997.95" y="-1376.9" font-family="Times,serif" font-size="14.00">0.229182</text>
</g>
<!-- id_28118200_DOT_25 -->
<g id="node25" class="node">
<title>id_28118200_DOT_25</title>
<polygon fill="darkmagenta" stroke="darkmagenta" points="555.56,-1078.32 558.98,-1078.51 562.38,-1078.8 565.72,-1079.19 569,-1079.66 572.21,-1080.23 575.32,-1080.89 578.34,-1081.64 581.24,-1082.48 584.02,-1083.41 586.67,-1084.41 589.17,-1085.5 591.53,-1086.66 593.72,-1087.89 595.75,-1089.2 597.62,-1090.57 599.3,-1092 600.81,-1093.49 602.14,-1095.04 603.28,-1096.64 604.24,-1098.28 605.02,-1099.97 605.62,-1101.69 606.03,-1103.45 606.27,-1105.23 606.33,-1107.04 606.23,-1108.86 605.96,-1110.69 605.53,-1112.54 604.94,-1114.38 604.21,-1116.22 603.34,-1118.06 602.34,-1119.88 601.21,-1121.69 599.96,-1123.47 598.6,-1125.22 597.13,-1126.95 595.58,-1128.63 593.93,-1130.28 592.2,-1131.88 590.4,-1133.42 588.53,-1134.92 586.6,-1136.35 584.62,-1137.72 582.58,-1139.03 580.51,-1140.26 578.4,-1141.42 576.25,-1142.51 574.08,-1143.51 571.89,-1144.43 569.67,-1145.27 567.44,-1146.02 565.19,-1146.68 562.93,-1147.25 560.66,-1147.73 558.38,-1148.12 556.1,-1148.4 553.81,-1148.6 551.52,-1148.69 549.23,-1148.69 546.95,-1148.6 544.66,-1148.4 542.38,-1148.12 540.1,-1147.73 537.83,-1147.25 535.57,-1146.68 533.32,-1146.02 531.09,-1145.27 528.87,-1144.43 526.67,-1143.51 524.5,-1142.51 522.36,-1141.42 520.25,-1140.26 518.17,-1139.03 516.14,-1137.72 514.16,-1136.35 512.23,-1134.92 510.36,-1133.42 508.56,-1131.88 506.83,-1130.28 505.18,-1128.63 503.62,-1126.95 502.16,-1125.22 500.8,-1123.47 499.55,-1121.69 498.42,-1119.88 497.41,-1118.06 496.54,-1116.22 495.81,-1114.38 495.23,-1112.54 494.8,-1110.69 494.53,-1108.86 494.42,-1107.04 494.49,-1105.23 494.72,-1103.45 495.14,-1101.69 495.74,-1099.97 496.51,-1098.28 497.47,-1096.64 498.62,-1095.04 499.95,-1093.49 501.45,-1092 503.14,-1090.57 505,-1089.2 507.03,-1087.89 509.23,-1086.66 511.58,-1085.5 514.09,-1084.41 516.74,-1083.41 519.52,-1082.48 522.42,-1081.64 525.43,-1080.89 528.55,-1080.23 531.75,-1079.66 535.04,-1079.19 538.38,-1078.8 541.77,-1078.51 545.2,-1078.32 548.65,-1078.22 552.11,-1078.22 555.56,-1078.32"/>
<text text-anchor="start" x="521.21" y="-1123.26" font-family="Times,serif" font-size="14.00">C0025663</text>
<text text-anchor="start" x="529.38" y="-1109.26" font-family="Times,serif" font-size="14.00">method</text>
<text text-anchor="start" x="527.43" y="-1095.26" font-family="Times,serif" font-size="14.00">145:145</text>
</g>
<!-- id_28118200_DOT_3&#45;&#45;id_28118200_DOT_25 -->
<g id="edge19" class="edge">
<title>id_28118200_DOT_3&#45;&#45;id_28118200_DOT_25</title>
<path fill="none" stroke="black" stroke-dasharray="1,5" d="M774.91,-1150.65C711.7,-1140.18 645.48,-1129.21 601.47,-1121.92"/>
<text text-anchor="middle" x="661.94" y="-1125.08" font-family="Times,serif" font-size="14.00">0.769784</text>
</g>
<!-- id_28118200_DOT_26 -->
<g id="node26" class="node">
<title>id_28118200_DOT_26</title>
<polygon fill="blue" stroke="blue" points="1057.95,-751.72 1063.83,-751.91 1069.65,-752.2 1075.38,-752.58 1081,-753.06 1086.5,-753.63 1091.84,-754.29 1097.01,-755.04 1101.99,-755.88 1106.75,-756.8 1111.29,-757.81 1115.59,-758.89 1119.62,-760.05 1123.39,-761.29 1126.87,-762.59 1130.06,-763.96 1132.95,-765.4 1135.54,-766.89 1137.82,-768.44 1139.78,-770.04 1141.43,-771.68 1142.76,-773.37 1143.78,-775.09 1144.49,-776.84 1144.9,-778.63 1145.01,-780.43 1144.83,-782.25 1144.37,-784.09 1143.63,-785.93 1142.63,-787.78 1141.38,-789.62 1139.88,-791.45 1138.16,-793.28 1136.22,-795.08 1134.08,-796.86 1131.75,-798.62 1129.24,-800.34 1126.56,-802.03 1123.74,-803.67 1120.78,-805.27 1117.69,-806.82 1114.48,-808.31 1111.17,-809.75 1107.77,-811.12 1104.29,-812.42 1100.73,-813.66 1097.11,-814.82 1093.44,-815.9 1089.71,-816.91 1085.95,-817.83 1082.15,-818.67 1078.32,-819.42 1074.46,-820.08 1070.59,-820.65 1066.7,-821.13 1062.79,-821.51 1058.88,-821.8 1054.96,-821.99 1051.03,-822.09 1047.11,-822.09 1043.19,-821.99 1039.27,-821.8 1035.35,-821.51 1031.45,-821.13 1027.56,-820.65 1023.68,-820.08 1019.83,-819.42 1016,-818.67 1012.2,-817.83 1008.43,-816.91 1004.71,-815.9 1001.03,-814.82 997.41,-813.66 993.85,-812.42 990.37,-811.12 986.97,-809.75 983.66,-808.31 980.46,-806.82 977.37,-805.27 974.4,-803.67 971.58,-802.03 968.91,-800.34 966.4,-798.62 964.07,-796.86 961.92,-795.08 959.99,-793.28 958.26,-791.45 956.77,-789.62 955.52,-787.78 954.51,-785.93 953.78,-784.09 953.31,-782.25 953.13,-780.43 953.24,-778.63 953.65,-776.84 954.36,-775.09 955.38,-773.37 956.72,-771.68 958.37,-770.04 960.33,-768.44 962.6,-766.89 965.19,-765.4 968.08,-763.96 971.27,-762.59 974.76,-761.29 978.52,-760.05 982.56,-758.89 986.85,-757.81 991.39,-756.8 996.16,-755.88 1001.13,-755.04 1006.3,-754.29 1011.65,-753.63 1017.14,-753.06 1022.77,-752.58 1028.5,-752.2 1034.32,-751.91 1040.19,-751.72 1046.11,-751.62 1052.04,-751.62 1057.95,-751.72"/>
<text text-anchor="start" x="1019.9" y="-796.65" font-family="Times,serif" font-size="14.00">C0025080</text>
<text text-anchor="start" x="993.35" y="-782.65" font-family="Times,serif" font-size="14.00">double YL&#45;1 needle</text>
<text text-anchor="start" x="1026.13" y="-768.65" font-family="Times,serif" font-size="14.00">147:149</text>
</g>
<!-- id_28118200_DOT_3&#45;&#45;id_28118200_DOT_26 -->
<g id="edge20" class="edge">
<title>id_28118200_DOT_3&#45;&#45;id_28118200_DOT_26</title>
<path fill="none" stroke="black" stroke-dasharray="1,5" d="M962.53,-1145.04C980.6,-1070.26 1022.58,-896.49 1040.61,-821.9"/>
<text text-anchor="middle" x="975.32" y="-986.27" font-family="Times,serif" font-size="14.00">0.365262</text>
</g>
<!-- id_28118200_DOT_4 -->
<g id="node4" class="node">
<title>id_28118200_DOT_4</title>
<polygon fill="blueviolet" stroke="blueviolet" points="2654.86,-5204.81 2658.29,-5205 2661.68,-5205.29 2665.03,-5205.67 2668.31,-5206.15 2671.51,-5206.72 2674.63,-5207.38 2677.64,-5208.13 2680.55,-5208.97 2683.33,-5209.89 2685.97,-5210.9 2688.48,-5211.98 2690.83,-5213.14 2693.03,-5214.38 2695.06,-5215.68 2696.92,-5217.05 2698.61,-5218.49 2700.12,-5219.98 2701.44,-5221.53 2702.59,-5223.13 2703.55,-5224.77 2704.33,-5226.46 2704.92,-5228.18 2705.34,-5229.93 2705.58,-5231.72 2705.64,-5233.52 2705.54,-5235.34 2705.26,-5237.18 2704.83,-5239.02 2704.25,-5240.87 2703.52,-5242.71 2702.65,-5244.54 2701.64,-5246.37 2700.51,-5248.17 2699.26,-5249.95 2697.9,-5251.71 2696.44,-5253.43 2694.88,-5255.12 2693.23,-5256.76 2691.51,-5258.36 2689.7,-5259.91 2687.83,-5261.4 2685.9,-5262.84 2683.92,-5264.21 2681.89,-5265.51 2679.82,-5266.75 2677.7,-5267.91 2675.56,-5268.99 2673.39,-5270 2671.19,-5270.92 2668.98,-5271.76 2666.74,-5272.51 2664.49,-5273.17 2662.23,-5273.74 2659.96,-5274.22 2657.69,-5274.6 2655.4,-5274.89 2653.12,-5275.08 2650.83,-5275.18 2648.54,-5275.18 2646.25,-5275.08 2643.97,-5274.89 2641.68,-5274.6 2639.41,-5274.22 2637.14,-5273.74 2634.88,-5273.17 2632.63,-5272.51 2630.39,-5271.76 2628.18,-5270.92 2625.98,-5270 2623.81,-5268.99 2621.66,-5267.91 2619.55,-5266.75 2617.48,-5265.51 2615.45,-5264.21 2613.46,-5262.84 2611.53,-5261.4 2609.67,-5259.91 2607.86,-5258.36 2606.14,-5256.76 2604.49,-5255.12 2602.93,-5253.43 2601.47,-5251.71 2600.11,-5249.95 2598.86,-5248.17 2597.73,-5246.37 2596.72,-5244.54 2595.85,-5242.71 2595.12,-5240.87 2594.53,-5239.02 2594.1,-5237.18 2593.83,-5235.34 2593.73,-5233.52 2593.79,-5231.72 2594.03,-5229.93 2594.45,-5228.18 2595.04,-5226.46 2595.82,-5224.77 2596.78,-5223.13 2597.93,-5221.53 2599.25,-5219.98 2600.76,-5218.49 2602.45,-5217.05 2604.31,-5215.68 2606.34,-5214.38 2608.54,-5213.14 2610.89,-5211.98 2613.4,-5210.9 2616.04,-5209.89 2618.82,-5208.97 2621.73,-5208.13 2624.74,-5207.38 2627.86,-5206.72 2631.06,-5206.15 2634.34,-5205.67 2637.69,-5205.29 2641.08,-5205 2644.51,-5204.81 2647.96,-5204.71 2651.41,-5204.71 2654.86,-5204.81"/>
<text text-anchor="start" x="2620.52" y="-5249.74" font-family="Times,serif" font-size="14.00">C2603343</text>
<text text-anchor="start" x="2634.52" y="-5235.74" font-family="Times,serif" font-size="14.00">study</text>
<text text-anchor="start" x="2633.74" y="-5221.74" font-family="Times,serif" font-size="14.00">21:21</text>
</g>
<!-- id_28118200_DOT_22 -->
<g id="node22" class="node">
<title>id_28118200_DOT_22</title>
<polygon fill="crimson" stroke="crimson" points="3007.81,-4998.88 3011.27,-4999.07 3014.7,-4999.36 3018.08,-4999.74 3021.4,-5000.22 3024.63,-5000.79 3027.78,-5001.45 3030.83,-5002.2 3033.76,-5003.04 3036.57,-5003.96 3039.25,-5004.97 3041.78,-5006.05 3044.15,-5007.21 3046.37,-5008.45 3048.43,-5009.75 3050.31,-5011.12 3052.01,-5012.56 3053.53,-5014.05 3054.88,-5015.6 3056.03,-5017.2 3057,-5018.84 3057.79,-5020.53 3058.39,-5022.25 3058.81,-5024 3059.05,-5025.79 3059.12,-5027.59 3059.01,-5029.41 3058.74,-5031.25 3058.3,-5033.09 3057.71,-5034.94 3056.97,-5036.78 3056.09,-5038.61 3055.08,-5040.44 3053.94,-5042.24 3052.67,-5044.03 3051.3,-5045.78 3049.82,-5047.5 3048.25,-5049.19 3046.58,-5050.83 3044.83,-5052.43 3043.01,-5053.98 3041.13,-5055.47 3039.18,-5056.91 3037.17,-5058.28 3035.12,-5059.58 3033.02,-5060.82 3030.89,-5061.98 3028.72,-5063.06 3026.53,-5064.07 3024.31,-5064.99 3022.07,-5065.83 3019.81,-5066.58 3017.54,-5067.24 3015.26,-5067.81 3012.96,-5068.29 3010.66,-5068.67 3008.36,-5068.96 3006.05,-5069.15 3003.74,-5069.25 3001.42,-5069.25 2999.11,-5069.15 2996.8,-5068.96 2994.49,-5068.67 2992.19,-5068.29 2989.9,-5067.81 2987.62,-5067.24 2985.35,-5066.58 2983.09,-5065.83 2980.85,-5064.99 2978.63,-5064.07 2976.43,-5063.06 2974.27,-5061.98 2972.14,-5060.82 2970.04,-5059.58 2967.99,-5058.28 2965.98,-5056.91 2964.03,-5055.47 2962.15,-5053.98 2960.32,-5052.43 2958.58,-5050.83 2956.91,-5049.19 2955.34,-5047.5 2953.86,-5045.78 2952.49,-5044.03 2951.22,-5042.24 2950.08,-5040.44 2949.07,-5038.61 2948.19,-5036.78 2947.45,-5034.94 2946.86,-5033.09 2946.42,-5031.25 2946.15,-5029.41 2946.04,-5027.59 2946.11,-5025.79 2946.35,-5024 2946.77,-5022.25 2947.37,-5020.53 2948.15,-5018.84 2949.13,-5017.2 2950.28,-5015.6 2951.62,-5014.05 2953.15,-5012.56 2954.85,-5011.12 2956.73,-5009.75 2958.79,-5008.45 2961,-5007.21 2963.38,-5006.05 2965.91,-5004.97 2968.59,-5003.96 2971.4,-5003.04 2974.33,-5002.2 2977.38,-5001.45 2980.52,-5000.79 2983.76,-5000.22 2987.08,-4999.74 2990.46,-4999.36 2993.88,-4999.07 2997.35,-4998.88 3000.83,-4998.78 3004.33,-4998.78 3007.81,-4998.88"/>
<text text-anchor="start" x="2973.41" y="-5043.81" font-family="Times,serif" font-size="14.00">C2825055</text>
<text text-anchor="start" x="2973.05" y="-5029.81" font-family="Times,serif" font-size="14.00">recurrence</text>
<text text-anchor="start" x="2979.63" y="-5015.81" font-family="Times,serif" font-size="14.00">128:128</text>
</g>
<!-- id_28118200_DOT_4&#45;&#45;id_28118200_DOT_22 -->
<g id="edge21" class="edge">
<title>id_28118200_DOT_4&#45;&#45;id_28118200_DOT_22</title>
<path fill="none" stroke="black" stroke-dasharray="1,5" d="M2693.31,-5214.49C2763.11,-5173.76 2898.73,-5094.62 2964.7,-5056.12"/>
<text text-anchor="middle" x="2802.76" y="-5138.1" font-family="Times,serif" font-size="14.00">0.956795</text>
</g>
<!-- id_28118200_DOT_5 -->
<g id="node5" class="node">
<title>id_28118200_DOT_5</title>
<polygon fill="brown" stroke="brown" points="3036.96,-4205.25 3041.33,-4205.44 3045.66,-4205.73 3049.92,-4206.11 3054.11,-4206.59 3058.2,-4207.16 3062.17,-4207.82 3066.02,-4208.57 3069.72,-4209.41 3073.27,-4210.33 3076.64,-4211.34 3079.84,-4212.42 3082.84,-4213.58 3085.64,-4214.82 3088.23,-4216.12 3090.61,-4217.49 3092.76,-4218.93 3094.68,-4220.42 3096.38,-4221.97 3097.84,-4223.57 3099.06,-4225.21 3100.06,-4226.9 3100.82,-4228.62 3101.35,-4230.37 3101.65,-4232.16 3101.73,-4233.96 3101.6,-4235.78 3101.25,-4237.62 3100.7,-4239.46 3099.96,-4241.31 3099.03,-4243.15 3097.91,-4244.98 3096.63,-4246.81 3095.19,-4248.61 3093.6,-4250.39 3091.86,-4252.15 3090,-4253.87 3088.01,-4255.56 3085.9,-4257.2 3083.7,-4258.8 3081.4,-4260.35 3079.02,-4261.84 3076.56,-4263.28 3074.03,-4264.65 3071.43,-4265.95 3068.79,-4267.19 3066.09,-4268.35 3063.36,-4269.43 3060.59,-4270.44 3057.79,-4271.36 3054.96,-4272.2 3052.11,-4272.95 3049.24,-4273.61 3046.36,-4274.18 3043.46,-4274.66 3040.56,-4275.04 3037.65,-4275.33 3034.73,-4275.52 3031.81,-4275.62 3028.89,-4275.62 3025.97,-4275.52 3023.06,-4275.33 3020.14,-4275.04 3017.24,-4274.66 3014.35,-4274.18 3011.46,-4273.61 3008.59,-4272.95 3005.74,-4272.2 3002.92,-4271.36 3000.11,-4270.44 2997.34,-4269.43 2994.61,-4268.35 2991.92,-4267.19 2989.27,-4265.95 2986.68,-4264.65 2984.15,-4263.28 2981.69,-4261.84 2979.3,-4260.35 2977,-4258.8 2974.8,-4257.2 2972.7,-4255.56 2970.71,-4253.87 2968.84,-4252.15 2967.11,-4250.39 2965.51,-4248.61 2964.07,-4246.81 2962.79,-4244.98 2961.68,-4243.15 2960.75,-4241.31 2960,-4239.46 2959.45,-4237.62 2959.11,-4235.78 2958.97,-4233.96 2959.05,-4232.16 2959.36,-4230.37 2959.89,-4228.62 2960.65,-4226.9 2961.64,-4225.21 2962.87,-4223.57 2964.33,-4221.97 2966.02,-4220.42 2967.94,-4218.93 2970.1,-4217.49 2972.47,-4216.12 2975.06,-4214.82 2977.86,-4213.58 2980.87,-4212.42 2984.06,-4211.34 2987.44,-4210.33 2990.98,-4209.41 2994.69,-4208.57 2998.53,-4207.82 3002.51,-4207.16 3006.6,-4206.59 3010.78,-4206.11 3015.05,-4205.73 3019.37,-4205.44 3023.75,-4205.25 3028.15,-4205.15 3032.56,-4205.15 3036.96,-4205.25"/>
<text text-anchor="start" x="3001.18" y="-4250.18" font-family="Times,serif" font-size="14.00">C0009566</text>
<text text-anchor="start" x="2991.08" y="-4236.18" font-family="Times,serif" font-size="14.00">complications</text>
<text text-anchor="start" x="3014.41" y="-4222.18" font-family="Times,serif" font-size="14.00">33:33</text>
</g>
<!-- id_28118200_DOT_16 -->
<g id="node16" class="node">
<title>id_28118200_DOT_16</title>
<polygon fill="crimson" stroke="crimson" points="3035.72,-4598.38 3039.18,-4598.57 3042.61,-4598.86 3045.99,-4599.24 3049.3,-4599.72 3052.54,-4600.29 3055.69,-4600.95 3058.74,-4601.7 3061.67,-4602.54 3064.48,-4603.46 3067.15,-4604.47 3069.68,-4605.55 3072.06,-4606.71 3074.28,-4607.95 3076.33,-4609.25 3078.21,-4610.62 3079.92,-4612.06 3081.44,-4613.55 3082.78,-4615.1 3083.94,-4616.7 3084.91,-4618.34 3085.7,-4620.03 3086.3,-4621.75 3086.72,-4623.5 3086.96,-4625.29 3087.02,-4627.09 3086.92,-4628.92 3086.64,-4630.75 3086.21,-4632.59 3085.62,-4634.44 3084.88,-4636.28 3084,-4638.12 3082.99,-4639.94 3081.84,-4641.74 3080.58,-4643.53 3079.21,-4645.28 3077.73,-4647 3076.15,-4648.69 3074.49,-4650.33 3072.74,-4651.93 3070.92,-4653.48 3069.03,-4654.97 3067.08,-4656.41 3065.08,-4657.78 3063.03,-4659.08 3060.93,-4660.32 3058.8,-4661.48 3056.63,-4662.56 3054.44,-4663.57 3052.22,-4664.49 3049.98,-4665.33 3047.72,-4666.08 3045.45,-4666.74 3043.17,-4667.31 3040.87,-4667.79 3038.57,-4668.17 3036.27,-4668.46 3033.96,-4668.65 3031.64,-4668.75 3029.33,-4668.75 3027.02,-4668.65 3024.71,-4668.46 3022.4,-4668.17 3020.1,-4667.79 3017.81,-4667.31 3015.52,-4666.74 3013.25,-4666.08 3011,-4665.33 3008.76,-4664.49 3006.54,-4663.57 3004.34,-4662.56 3002.18,-4661.48 3000.04,-4660.32 2997.95,-4659.08 2995.89,-4657.78 2993.89,-4656.41 2991.94,-4654.97 2990.05,-4653.48 2988.23,-4651.93 2986.48,-4650.33 2984.82,-4648.69 2983.25,-4647 2981.77,-4645.28 2980.39,-4643.53 2979.13,-4641.74 2977.99,-4639.94 2976.97,-4638.12 2976.09,-4636.28 2975.35,-4634.44 2974.76,-4632.59 2974.33,-4630.75 2974.06,-4628.92 2973.95,-4627.09 2974.01,-4625.29 2974.25,-4623.5 2974.67,-4621.75 2975.28,-4620.03 2976.06,-4618.34 2977.03,-4616.7 2978.19,-4615.1 2979.53,-4613.55 2981.05,-4612.06 2982.76,-4610.62 2984.64,-4609.25 2986.69,-4607.95 2988.91,-4606.71 2991.29,-4605.55 2993.82,-4604.47 2996.49,-4603.46 2999.3,-4602.54 3002.24,-4601.7 3005.28,-4600.95 3008.43,-4600.29 3011.67,-4599.72 3014.98,-4599.24 3018.36,-4598.86 3021.79,-4598.57 3025.25,-4598.38 3028.74,-4598.28 3032.23,-4598.28 3035.72,-4598.38"/>
<text text-anchor="start" x="3001.32" y="-4643.32" font-family="Times,serif" font-size="14.00">C2825055</text>
<text text-anchor="start" x="3000.96" y="-4629.32" font-family="Times,serif" font-size="14.00">recurrence</text>
<text text-anchor="start" x="3014.54" y="-4615.32" font-family="Times,serif" font-size="14.00">90:90</text>
</g>
<!-- id_28118200_DOT_5&#45;&#45;id_28118200_DOT_16 -->
<g id="edge22" class="edge">
<title>id_28118200_DOT_5&#45;&#45;id_28118200_DOT_16</title>
<path fill="none" stroke="black" stroke-dasharray="1,5" d="M3030.36,-4275.97C3030.39,-4350.72 3030.45,-4523.33 3030.47,-4598.02"/>
<text text-anchor="middle" x="3004.17" y="-4439.79" font-family="Times,serif" font-size="14.00">0.844703</text>
</g>
<!-- id_28118200_DOT_31 -->
<g id="node31" class="node">
<title>id_28118200_DOT_31</title>
<polygon fill="brown" stroke="brown" points="3059.48,-3805.24 3063.85,-3805.44 3068.18,-3805.72 3072.44,-3806.11 3076.63,-3806.59 3080.72,-3807.16 3084.69,-3807.82 3088.54,-3808.57 3092.24,-3809.41 3095.79,-3810.33 3099.16,-3811.33 3102.36,-3812.42 3105.36,-3813.58 3108.16,-3814.81 3110.75,-3816.12 3113.13,-3817.49 3115.28,-3818.92 3117.2,-3820.42 3118.9,-3821.96 3120.36,-3823.56 3121.58,-3825.21 3122.58,-3826.89 3123.34,-3828.62 3123.87,-3830.37 3124.17,-3832.15 3124.25,-3833.96 3124.12,-3835.78 3123.77,-3837.62 3123.22,-3839.46 3122.48,-3841.3 3121.55,-3843.15 3120.43,-3844.98 3119.15,-3846.8 3117.71,-3848.61 3116.12,-3850.39 3114.38,-3852.15 3112.52,-3853.87 3110.53,-3855.56 3108.43,-3857.2 3106.22,-3858.8 3103.92,-3860.35 3101.54,-3861.84 3099.08,-3863.27 3096.55,-3864.64 3093.95,-3865.95 3091.31,-3867.18 3088.62,-3868.35 3085.88,-3869.43 3083.11,-3870.43 3080.31,-3871.36 3077.48,-3872.2 3074.63,-3872.95 3071.76,-3873.61 3068.88,-3874.18 3065.98,-3874.66 3063.08,-3875.04 3060.17,-3875.33 3057.25,-3875.52 3054.33,-3875.62 3051.41,-3875.62 3048.49,-3875.52 3045.58,-3875.33 3042.67,-3875.04 3039.76,-3874.66 3036.87,-3874.18 3033.98,-3873.61 3031.11,-3872.95 3028.26,-3872.2 3025.44,-3871.36 3022.64,-3870.43 3019.86,-3869.43 3017.13,-3868.35 3014.44,-3867.18 3011.79,-3865.95 3009.2,-3864.64 3006.67,-3863.27 3004.21,-3861.84 3001.82,-3860.35 2999.52,-3858.8 2997.32,-3857.2 2995.22,-3855.56 2993.23,-3853.87 2991.36,-3852.15 2989.63,-3850.39 2988.03,-3848.61 2986.59,-3846.8 2985.31,-3844.98 2984.2,-3843.15 2983.27,-3841.3 2982.52,-3839.46 2981.97,-3837.62 2981.63,-3835.78 2981.49,-3833.96 2981.57,-3832.15 2981.88,-3830.37 2982.41,-3828.62 2983.17,-3826.89 2984.16,-3825.21 2985.39,-3823.56 2986.85,-3821.96 2988.54,-3820.42 2990.46,-3818.92 2992.62,-3817.49 2994.99,-3816.12 2997.58,-3814.81 3000.38,-3813.58 3003.39,-3812.42 3006.58,-3811.33 3009.96,-3810.33 3013.5,-3809.41 3017.21,-3808.57 3021.05,-3807.82 3025.03,-3807.16 3029.12,-3806.59 3033.3,-3806.11 3037.57,-3805.72 3041.89,-3805.44 3046.27,-3805.24 3050.67,-3805.15 3055.08,-3805.15 3059.48,-3805.24"/>
<text text-anchor="start" x="3023.7" y="-3850.18" font-family="Times,serif" font-size="14.00">C0009566</text>
<text text-anchor="start" x="3013.6" y="-3836.18" font-family="Times,serif" font-size="14.00">complications</text>
<text text-anchor="start" x="3029.93" y="-3822.18" font-family="Times,serif" font-size="14.00">174:174</text>
</g>
<!-- id_28118200_DOT_5&#45;&#45;id_28118200_DOT_31 -->
<g id="edge3" class="edge">
<title>id_28118200_DOT_5&#45;&#45;id_28118200_DOT_31</title>
<path fill="none" stroke="black" d="M3032.35,-4204.89C3036.62,-4128.98 3046.61,-3951.64 3050.88,-3875.8"/>
<text text-anchor="middle" x="3015.36" y="-4043.14" font-family="Times,serif" font-size="14.00">0.013512</text>
</g>
<!-- id_28118200_DOT_9 -->
<g id="node9" class="node">
<title>id_28118200_DOT_9</title>
<polygon fill="bisque" stroke="bisque" points="3985.66,-3265.23 3993.58,-3265.43 4001.42,-3265.71 4009.15,-3266.1 4016.73,-3266.58 4024.13,-3267.15 4031.33,-3267.81 4038.3,-3268.56 4045.01,-3269.4 4051.43,-3270.32 4057.55,-3271.32 4063.33,-3272.41 4068.77,-3273.57 4073.85,-3274.8 4078.54,-3276.11 4082.84,-3277.48 4086.74,-3278.91 4090.23,-3280.41 4093.29,-3281.95 4095.94,-3283.55 4098.16,-3285.2 4099.96,-3286.88 4101.33,-3288.61 4102.29,-3290.36 4102.84,-3292.14 4102.99,-3293.95 4102.75,-3295.77 4102.12,-3297.61 4101.13,-3299.45 4099.78,-3301.29 4098.09,-3303.14 4096.08,-3304.97 4093.75,-3306.79 4091.14,-3308.6 4088.26,-3310.38 4085.11,-3312.14 4081.73,-3313.86 4078.13,-3315.55 4074.32,-3317.19 4070.33,-3318.79 4066.16,-3320.34 4061.85,-3321.83 4057.39,-3323.26 4052.8,-3324.63 4048.11,-3325.94 4043.32,-3327.17 4038.44,-3328.34 4033.49,-3329.42 4028.47,-3330.43 4023.39,-3331.35 4018.27,-3332.19 4013.11,-3332.94 4007.91,-3333.6 4002.69,-3334.17 3997.45,-3334.65 3992.19,-3335.03 3986.91,-3335.32 3981.63,-3335.51 3976.34,-3335.61 3971.05,-3335.61 3965.76,-3335.51 3960.48,-3335.32 3955.21,-3335.03 3949.95,-3334.65 3944.7,-3334.17 3939.48,-3333.6 3934.29,-3332.94 3929.12,-3332.19 3924,-3331.35 3918.93,-3330.43 3913.91,-3329.42 3908.95,-3328.34 3904.08,-3327.17 3899.28,-3325.94 3894.59,-3324.63 3890.01,-3323.26 3885.55,-3321.83 3881.23,-3320.34 3877.07,-3318.79 3873.07,-3317.19 3869.26,-3315.55 3865.66,-3313.86 3862.28,-3312.14 3859.14,-3310.38 3856.25,-3308.6 3853.64,-3306.79 3851.32,-3304.97 3849.31,-3303.14 3847.62,-3301.29 3846.27,-3299.45 3845.27,-3297.61 3844.65,-3295.77 3844.4,-3293.95 3844.55,-3292.14 3845.1,-3290.36 3846.06,-3288.61 3847.44,-3286.88 3849.24,-3285.2 3851.46,-3283.55 3854.1,-3281.95 3857.17,-3280.41 3860.65,-3278.91 3864.55,-3277.48 3868.85,-3276.11 3873.55,-3274.8 3878.62,-3273.57 3884.06,-3272.41 3889.85,-3271.32 3895.96,-3270.32 3902.39,-3269.4 3909.09,-3268.56 3916.06,-3267.81 3923.26,-3267.15 3930.67,-3266.58 3938.25,-3266.1 3945.97,-3265.71 3953.81,-3265.43 3961.73,-3265.23 3969.7,-3265.14 3977.69,-3265.14 3985.66,-3265.23"/>
<text text-anchor="start" x="3944.53" y="-3310.17" font-family="Times,serif" font-size="14.00">C0749095</text>
<text text-anchor="start" x="3895.94" y="-3296.17" font-family="Times,serif" font-size="14.00">chronic subdural hematoma</text>
<text text-anchor="start" x="3957.75" y="-3282.17" font-family="Times,serif" font-size="14.00">54:56</text>
</g>
<!-- id_28118200_DOT_6&#45;&#45;id_28118200_DOT_9 -->
<g id="edge4" class="edge">
<title>id_28118200_DOT_6&#45;&#45;id_28118200_DOT_9</title>
<path fill="none" stroke="black" d="M4266.86,-3230.57C4210.15,-3244.07 4136.51,-3261.61 4077.22,-3275.72"/>
<text text-anchor="middle" x="4145.79" y="-3255.95" font-family="Times,serif" font-size="14.00">0.000375</text>
</g>
<!-- id_28118200_DOT_19 -->
<g id="node19" class="node">
<title>id_28118200_DOT_19</title>
<polygon fill="chartreuse" stroke="chartreuse" points="1159.43,-1955.8 1164.89,-1955.99 1170.3,-1956.28 1175.62,-1956.66 1180.84,-1957.14 1185.95,-1957.71 1190.91,-1958.37 1195.71,-1959.12 1200.33,-1959.96 1204.76,-1960.88 1208.97,-1961.89 1212.96,-1962.97 1216.71,-1964.13 1220.21,-1965.37 1223.44,-1966.67 1226.41,-1968.04 1229.09,-1969.48 1231.49,-1970.97 1233.61,-1972.52 1235.43,-1974.12 1236.96,-1975.76 1238.2,-1977.45 1239.15,-1979.17 1239.81,-1980.92 1240.19,-1982.71 1240.29,-1984.51 1240.12,-1986.33 1239.69,-1988.17 1239.01,-1990.01 1238.08,-1991.86 1236.91,-1993.7 1235.53,-1995.53 1233.93,-1997.36 1232.13,-1999.16 1230.14,-2000.95 1227.97,-2002.7 1225.64,-2004.42 1223.16,-2006.11 1220.54,-2007.75 1217.78,-2009.35 1214.91,-2010.9 1211.94,-2012.39 1208.86,-2013.83 1205.71,-2015.2 1202.47,-2016.5 1199.17,-2017.74 1195.81,-2018.9 1192.39,-2019.98 1188.93,-2020.99 1185.44,-2021.91 1181.91,-2022.75 1178.35,-2023.5 1174.77,-2024.16 1171.17,-2024.73 1167.56,-2025.21 1163.93,-2025.59 1160.3,-2025.88 1156.66,-2026.07 1153.01,-2026.17 1149.37,-2026.17 1145.72,-2026.07 1142.08,-2025.88 1138.45,-2025.59 1134.82,-2025.21 1131.21,-2024.73 1127.61,-2024.16 1124.03,-2023.5 1120.47,-2022.75 1116.94,-2021.91 1113.44,-2020.99 1109.98,-2019.98 1106.57,-2018.9 1103.21,-2017.74 1099.91,-2016.5 1096.67,-2015.2 1093.51,-2013.83 1090.44,-2012.39 1087.46,-2010.9 1084.59,-2009.35 1081.84,-2007.75 1079.22,-2006.11 1076.74,-2004.42 1074.41,-2002.7 1072.24,-2000.95 1070.25,-1999.16 1068.45,-1997.36 1066.85,-1995.53 1065.46,-1993.7 1064.3,-1991.86 1063.37,-1990.01 1062.68,-1988.17 1062.25,-1986.33 1062.08,-1984.51 1062.19,-1982.71 1062.57,-1980.92 1063.23,-1979.17 1064.18,-1977.45 1065.42,-1975.76 1066.95,-1974.12 1068.77,-1972.52 1070.88,-1970.97 1073.28,-1969.48 1075.97,-1968.04 1078.93,-1966.67 1082.17,-1965.37 1085.67,-1964.13 1089.41,-1962.97 1093.4,-1961.89 1097.62,-1960.88 1102.04,-1959.96 1106.67,-1959.12 1111.47,-1958.37 1116.43,-1957.71 1121.53,-1957.14 1126.76,-1956.66 1132.08,-1956.28 1137.48,-1955.99 1142.94,-1955.8 1148.44,-1955.7 1153.94,-1955.7 1159.43,-1955.8"/>
<text text-anchor="start" x="1122.02" y="-2000.73" font-family="Times,serif" font-size="14.00">C0185154</text>
<text text-anchor="start" x="1100.06" y="-1986.73" font-family="Times,serif" font-size="14.00">traditional drilling</text>
<text text-anchor="start" x="1128.76" y="-1972.73" font-family="Times,serif" font-size="14.00">117:118</text>
</g>
<!-- id_28118200_DOT_7&#45;&#45;id_28118200_DOT_19 -->
<g id="edge23" class="edge">
<title>id_28118200_DOT_7&#45;&#45;id_28118200_DOT_19</title>
<path fill="none" stroke="black" stroke-dasharray="1,5" d="M1099.06,-1603.03C1109.78,-1682.8 1135.74,-1876 1146.45,-1955.68"/>
<text text-anchor="middle" x="1096.5" y="-1782.15" font-family="Times,serif" font-size="14.00">0.789024</text>
</g>
<!-- id_28118200_DOT_17 -->
<g id="node17" class="node">
<title>id_28118200_DOT_17</title>
<polygon fill="darkgoldenrod" stroke="darkgoldenrod" points="3143.61,-2702.64 3151.79,-2702.84 3159.89,-2703.13 3167.87,-2703.51 3175.7,-2703.99 3183.35,-2704.56 3190.78,-2705.22 3197.98,-2705.97 3204.91,-2706.81 3211.54,-2707.73 3217.86,-2708.73 3223.84,-2709.82 3229.46,-2710.98 3234.7,-2712.22 3239.55,-2713.52 3243.99,-2714.89 3248.02,-2716.33 3251.62,-2717.82 3254.78,-2719.37 3257.52,-2720.96 3259.81,-2722.61 3261.67,-2724.29 3263.09,-2726.02 3264.08,-2727.77 3264.65,-2729.55 3264.8,-2731.36 3264.55,-2733.18 3263.9,-2735.02 3262.88,-2736.86 3261.48,-2738.71 3259.74,-2740.55 3257.66,-2742.38 3255.26,-2744.21 3252.56,-2746.01 3249.58,-2747.79 3246.34,-2749.55 3242.84,-2751.27 3239.12,-2752.96 3235.19,-2754.6 3231.06,-2756.2 3226.76,-2757.75 3222.3,-2759.24 3217.7,-2760.67 3212.96,-2762.05 3208.11,-2763.35 3203.16,-2764.59 3198.12,-2765.75 3193.01,-2766.83 3187.82,-2767.84 3182.58,-2768.76 3177.29,-2769.6 3171.96,-2770.35 3166.59,-2771.01 3161.2,-2771.58 3155.78,-2772.06 3150.35,-2772.44 3144.9,-2772.73 3139.44,-2772.92 3133.98,-2773.02 3128.52,-2773.02 3123.05,-2772.92 3117.6,-2772.73 3112.15,-2772.44 3106.71,-2772.06 3101.3,-2771.58 3095.9,-2771.01 3090.54,-2770.35 3085.2,-2769.6 3079.91,-2768.76 3074.67,-2767.84 3069.49,-2766.83 3064.37,-2765.75 3059.33,-2764.59 3054.38,-2763.35 3049.53,-2762.05 3044.8,-2760.67 3040.19,-2759.24 3035.73,-2757.75 3031.43,-2756.2 3027.31,-2754.6 3023.37,-2752.96 3019.65,-2751.27 3016.16,-2749.55 3012.91,-2747.79 3009.93,-2746.01 3007.23,-2744.21 3004.84,-2742.38 3002.76,-2740.55 3001.01,-2738.71 2999.62,-2736.86 2998.59,-2735.02 2997.95,-2733.18 2997.69,-2731.36 2997.85,-2729.55 2998.41,-2727.77 2999.41,-2726.02 3000.83,-2724.29 3002.68,-2722.61 3004.98,-2720.96 3007.71,-2719.37 3010.88,-2717.82 3014.48,-2716.33 3018.5,-2714.89 3022.95,-2713.52 3027.8,-2712.22 3033.04,-2710.98 3038.66,-2709.82 3044.63,-2708.73 3050.95,-2707.73 3057.59,-2706.81 3064.52,-2705.97 3071.71,-2705.22 3079.15,-2704.56 3086.8,-2703.99 3094.63,-2703.51 3102.61,-2703.13 3110.71,-2702.84 3118.89,-2702.64 3127.12,-2702.55 3135.37,-2702.55 3143.61,-2702.64"/>
<text text-anchor="start" x="3102.08" y="-2747.58" font-family="Times,serif" font-size="14.00">C0238376</text>
<text text-anchor="start" x="3050.59" y="-2733.58" font-family="Times,serif" font-size="14.00">intracranial pneumocephalus</text>
<text text-anchor="start" x="3115.3" y="-2719.58" font-family="Times,serif" font-size="14.00">96:97</text>
</g>
<!-- id_28118200_DOT_8&#45;&#45;id_28118200_DOT_17 -->
<g id="edge24" class="edge">
<title>id_28118200_DOT_8&#45;&#45;id_28118200_DOT_17</title>
<path fill="none" stroke="black" stroke-dasharray="1,5" d="M2906.78,-3036.65C2954.37,-2973.29 3057.31,-2836.23 3105.45,-2772.13"/>
<text text-anchor="middle" x="2979.87" y="-2907.19" font-family="Times,serif" font-size="14.00">0.695655</text>
</g>
<!-- id_28118200_DOT_18 -->
<g id="node18" class="node">
<title>id_28118200_DOT_18</title>
<polygon fill="darkgreen" stroke="darkgreen" points="3143.67,-3391.83 3147.57,-3392.02 3151.43,-3392.31 3155.24,-3392.69 3158.97,-3393.17 3162.62,-3393.74 3166.17,-3394.4 3169.6,-3395.15 3172.9,-3395.99 3176.07,-3396.91 3179.08,-3397.92 3181.93,-3399 3184.61,-3400.17 3187.11,-3401.4 3189.43,-3402.7 3191.54,-3404.08 3193.46,-3405.51 3195.18,-3407 3196.69,-3408.55 3198,-3410.15 3199.09,-3411.79 3199.98,-3413.48 3200.65,-3415.2 3201.13,-3416.96 3201.4,-3418.74 3201.47,-3420.54 3201.35,-3422.37 3201.04,-3424.2 3200.55,-3426.05 3199.89,-3427.89 3199.06,-3429.73 3198.06,-3431.57 3196.92,-3433.39 3195.63,-3435.2 3194.21,-3436.98 3192.66,-3438.73 3191,-3440.46 3189.22,-3442.14 3187.35,-3443.79 3185.38,-3445.38 3183.33,-3446.93 3181.2,-3448.43 3179,-3449.86 3176.75,-3451.23 3174.43,-3452.54 3172.07,-3453.77 3169.67,-3454.93 3167.23,-3456.02 3164.76,-3457.02 3162.26,-3457.94 3159.73,-3458.78 3157.19,-3459.53 3154.63,-3460.19 3152.06,-3460.76 3149.47,-3461.24 3146.88,-3461.62 3144.28,-3461.91 3141.68,-3462.11 3139.08,-3462.2 3136.47,-3462.2 3133.86,-3462.11 3131.26,-3461.91 3128.66,-3461.62 3126.07,-3461.24 3123.49,-3460.76 3120.92,-3460.19 3118.36,-3459.53 3115.81,-3458.78 3113.29,-3457.94 3110.79,-3457.02 3108.32,-3456.02 3105.88,-3454.93 3103.47,-3453.77 3101.11,-3452.54 3098.8,-3451.23 3096.54,-3449.86 3094.34,-3448.43 3092.22,-3446.93 3090.17,-3445.38 3088.2,-3443.79 3086.32,-3442.14 3084.55,-3440.46 3082.88,-3438.73 3081.33,-3436.98 3079.91,-3435.2 3078.62,-3433.39 3077.48,-3431.57 3076.49,-3429.73 3075.66,-3427.89 3074.99,-3426.05 3074.5,-3424.2 3074.19,-3422.37 3074.07,-3420.54 3074.15,-3418.74 3074.42,-3416.96 3074.89,-3415.2 3075.57,-3413.48 3076.45,-3411.79 3077.55,-3410.15 3078.85,-3408.55 3080.36,-3407 3082.08,-3405.51 3084,-3404.08 3086.12,-3402.7 3088.43,-3401.4 3090.93,-3400.17 3093.61,-3399 3096.46,-3397.92 3099.48,-3396.91 3102.64,-3395.99 3105.95,-3395.15 3109.38,-3394.4 3112.92,-3393.74 3116.57,-3393.17 3120.31,-3392.69 3124.11,-3392.31 3127.98,-3392.02 3131.88,-3391.83 3135.8,-3391.73 3139.74,-3391.73 3143.67,-3391.83"/>
<text text-anchor="start" x="3108.6" y="-3436.77" font-family="Times,serif" font-size="14.00">C3640840</text>
<text text-anchor="start" x="3103.38" y="-3422.77" font-family="Times,serif" font-size="14.00">clinical cure</text>
<text text-anchor="start" x="3115.34" y="-3408.77" font-family="Times,serif" font-size="14.00">112:113</text>
</g>
<!-- id_28118200_DOT_8&#45;&#45;id_28118200_DOT_18 -->
<g id="edge25" class="edge">
<title>id_28118200_DOT_8&#45;&#45;id_28118200_DOT_18</title>
<path fill="none" stroke="black" stroke-dasharray="1,5" d="M2904.44,-3101.7C2952.6,-3168.84 3064.56,-3324.91 3113.8,-3393.55"/>
<text text-anchor="middle" x="2982.87" y="-3250.43" font-family="Times,serif" font-size="14.00">0.900438</text>
</g>
<!-- id_28118200_DOT_29 -->
<g id="node29" class="node">
<title>id_28118200_DOT_29</title>
<polygon fill="bisque" stroke="bisque" points="3581.65,-3339.03 3589.57,-3339.22 3597.41,-3339.51 3605.14,-3339.89 3612.72,-3340.37 3620.12,-3340.94 3627.32,-3341.6 3634.29,-3342.35 3641,-3343.19 3647.42,-3344.11 3653.54,-3345.12 3659.33,-3346.2 3664.76,-3347.36 3669.84,-3348.6 3674.53,-3349.9 3678.83,-3351.27 3682.73,-3352.71 3686.22,-3354.2 3689.28,-3355.75 3691.93,-3357.35 3694.15,-3358.99 3695.95,-3360.68 3697.32,-3362.4 3698.28,-3364.15 3698.83,-3365.94 3698.98,-3367.74 3698.74,-3369.56 3698.11,-3371.4 3697.12,-3373.24 3695.77,-3375.09 3694.08,-3376.93 3692.07,-3378.77 3689.75,-3380.59 3687.13,-3382.39 3684.25,-3384.18 3681.1,-3385.93 3677.72,-3387.65 3674.12,-3389.34 3670.31,-3390.98 3666.32,-3392.58 3662.16,-3394.13 3657.84,-3395.62 3653.38,-3397.06 3648.8,-3398.43 3644.1,-3399.73 3639.31,-3400.97 3634.43,-3402.13 3629.48,-3403.21 3624.46,-3404.22 3619.38,-3405.14 3614.26,-3405.98 3609.1,-3406.73 3603.9,-3407.39 3598.68,-3407.96 3593.44,-3408.44 3588.18,-3408.82 3582.9,-3409.11 3577.62,-3409.3 3572.33,-3409.4 3567.04,-3409.4 3561.76,-3409.3 3556.47,-3409.11 3551.2,-3408.82 3545.94,-3408.44 3540.69,-3407.96 3535.47,-3407.39 3530.28,-3406.73 3525.11,-3405.98 3519.99,-3405.14 3514.92,-3404.22 3509.9,-3403.21 3504.94,-3402.13 3500.07,-3400.97 3495.27,-3399.73 3490.58,-3398.43 3486,-3397.06 3481.54,-3395.62 3477.22,-3394.13 3473.06,-3392.58 3469.06,-3390.98 3465.26,-3389.34 3461.65,-3387.65 3458.27,-3385.93 3455.13,-3384.18 3452.24,-3382.39 3449.63,-3380.59 3447.31,-3378.77 3445.3,-3376.93 3443.61,-3375.09 3442.26,-3373.24 3441.26,-3371.4 3440.64,-3369.56 3440.39,-3367.74 3440.54,-3365.94 3441.09,-3364.15 3442.05,-3362.4 3443.43,-3360.68 3445.23,-3358.99 3447.45,-3357.35 3450.09,-3355.75 3453.16,-3354.2 3456.64,-3352.71 3460.54,-3351.27 3464.84,-3349.9 3469.54,-3348.6 3474.61,-3347.36 3480.05,-3346.2 3485.84,-3345.12 3491.95,-3344.11 3498.38,-3343.19 3505.09,-3342.35 3512.05,-3341.6 3519.25,-3340.94 3526.66,-3340.37 3534.24,-3339.89 3541.96,-3339.51 3549.8,-3339.22 3557.72,-3339.03 3565.69,-3338.93 3573.68,-3338.93 3581.65,-3339.03"/>
<text text-anchor="start" x="3540.52" y="-3383.97" font-family="Times,serif" font-size="14.00">C0749095</text>
<text text-anchor="start" x="3491.94" y="-3369.97" font-family="Times,serif" font-size="14.00">chronic subdural hematoma</text>
<text text-anchor="start" x="3546.74" y="-3355.97" font-family="Times,serif" font-size="14.00">163:165</text>
</g>
<!-- id_28118200_DOT_9&#45;&#45;id_28118200_DOT_29 -->
<g id="edge5" class="edge">
<title>id_28118200_DOT_9&#45;&#45;id_28118200_DOT_29</title>
<path fill="none" stroke="black" d="M3875.64,-3318.28C3817.95,-3328.82 3744.72,-3342.2 3684.37,-3353.22"/>
<text text-anchor="middle" x="3753.75" y="-3338.55" font-family="Times,serif" font-size="14.00">0.000599</text>
</g>
<!-- id_28118200_DOT_10 -->
<g id="node10" class="node">
<title>id_28118200_DOT_10</title>
<polygon fill="blue" stroke="blue" points="1024.8,-369.03 1030.67,-369.22 1036.49,-369.51 1042.22,-369.89 1047.85,-370.37 1053.34,-370.94 1058.69,-371.6 1063.86,-372.35 1068.83,-373.19 1073.6,-374.11 1078.14,-375.12 1082.43,-376.2 1086.47,-377.36 1090.23,-378.6 1093.72,-379.9 1096.91,-381.27 1099.8,-382.71 1102.39,-384.2 1104.66,-385.75 1106.62,-387.35 1108.27,-388.99 1109.61,-390.68 1110.63,-392.4 1111.34,-394.15 1111.75,-395.94 1111.86,-397.74 1111.68,-399.56 1111.21,-401.4 1110.48,-403.24 1109.47,-405.09 1108.22,-406.93 1106.73,-408.77 1105,-410.59 1103.07,-412.39 1100.92,-414.18 1098.59,-415.93 1096.08,-417.65 1093.41,-419.34 1090.59,-420.98 1087.62,-422.58 1084.53,-424.13 1081.33,-425.62 1078.02,-427.06 1074.62,-428.43 1071.14,-429.73 1067.58,-430.97 1063.96,-432.13 1060.28,-433.21 1056.56,-434.22 1052.79,-435.14 1048.99,-435.98 1045.16,-436.73 1041.31,-437.39 1037.43,-437.96 1033.54,-438.44 1029.64,-438.82 1025.72,-439.11 1021.8,-439.3 1017.88,-439.4 1013.96,-439.4 1010.03,-439.3 1006.11,-439.11 1002.2,-438.82 998.29,-438.44 994.4,-437.96 990.53,-437.39 986.67,-436.73 982.84,-435.98 979.04,-435.14 975.28,-434.22 971.55,-433.21 967.88,-432.13 964.26,-430.97 960.7,-429.73 957.22,-428.43 953.82,-427.06 950.51,-425.62 947.3,-424.13 944.21,-422.58 941.25,-420.98 938.43,-419.34 935.75,-417.65 933.24,-415.93 930.91,-414.18 928.77,-412.39 926.83,-410.59 925.11,-408.77 923.61,-406.93 922.36,-405.09 921.36,-403.24 920.62,-401.4 920.16,-399.56 919.98,-397.74 920.09,-395.94 920.5,-394.15 921.21,-392.4 922.23,-390.68 923.56,-388.99 925.21,-387.35 927.17,-385.75 929.45,-384.2 932.04,-382.71 934.93,-381.27 938.12,-379.9 941.6,-378.6 945.37,-377.36 949.4,-376.2 953.7,-375.12 958.24,-374.11 963,-373.19 967.98,-372.35 973.15,-371.6 978.49,-370.94 983.99,-370.37 989.61,-369.89 995.34,-369.51 1001.16,-369.22 1007.04,-369.03 1012.95,-368.93 1018.88,-368.93 1024.8,-369.03"/>
<text text-anchor="start" x="986.75" y="-413.96" font-family="Times,serif" font-size="14.00">C0025080</text>
<text text-anchor="start" x="960.19" y="-399.96" font-family="Times,serif" font-size="14.00">double YL&#45;1 needle</text>
<text text-anchor="start" x="999.97" y="-385.96" font-family="Times,serif" font-size="14.00">59:61</text>
</g>
<!-- id_28118200_DOT_14 -->
<g id="node14" class="node">
<title>id_28118200_DOT_14</title>
<polygon fill="blue" stroke="blue" points="972.52,-0.23 976.51,-0.42 980.45,-0.71 984.34,-1.09 988.16,-1.57 991.88,-2.14 995.5,-2.8 999.01,-3.55 1002.39,-4.39 1005.62,-5.31 1008.69,-6.32 1011.61,-7.4 1014.34,-8.57 1016.9,-9.8 1019.26,-11.1 1021.42,-12.48 1023.38,-13.91 1025.14,-15.4 1026.68,-16.95 1028.01,-18.55 1029.13,-20.19 1030.03,-21.88 1030.73,-23.6 1031.21,-25.36 1031.49,-27.14 1031.56,-28.94 1031.44,-30.77 1031.12,-32.6 1030.62,-34.44 1029.94,-36.29 1029.09,-38.13 1028.08,-39.97 1026.91,-41.79 1025.6,-43.6 1024.15,-45.38 1022.56,-47.13 1020.86,-48.86 1019.05,-50.54 1017.14,-52.19 1015.13,-53.78 1013.03,-55.33 1010.86,-56.82 1008.61,-58.26 1006.31,-59.63 1003.95,-60.94 1001.54,-62.17 999.08,-63.33 996.59,-64.42 994.06,-65.42 991.51,-66.34 988.93,-67.18 986.34,-67.93 983.72,-68.59 981.09,-69.16 978.45,-69.64 975.81,-70.02 973.15,-70.31 970.5,-70.51 967.84,-70.6 965.17,-70.6 962.51,-70.51 959.86,-70.31 957.2,-70.02 954.55,-69.64 951.92,-69.16 949.29,-68.59 946.67,-67.93 944.08,-67.18 941.5,-66.34 938.95,-65.42 936.42,-64.42 933.93,-63.33 931.47,-62.17 929.06,-60.94 926.7,-59.63 924.39,-58.26 922.15,-56.82 919.98,-55.33 917.88,-53.78 915.87,-52.19 913.96,-50.54 912.15,-48.86 910.44,-47.13 908.86,-45.38 907.41,-43.6 906.1,-41.79 904.93,-39.97 903.92,-38.13 903.07,-36.29 902.39,-34.44 901.89,-32.6 901.57,-30.77 901.45,-28.94 901.52,-27.14 901.8,-25.36 902.28,-23.6 902.98,-21.88 903.88,-20.19 905,-18.55 906.33,-16.95 907.87,-15.4 909.63,-13.91 911.59,-12.48 913.75,-11.1 916.11,-9.8 918.67,-8.57 921.4,-7.4 924.31,-6.32 927.39,-5.31 930.62,-4.39 934,-3.55 937.5,-2.8 941.13,-2.14 944.85,-1.57 948.67,-1.09 952.55,-0.71 956.5,-0.42 960.48,-0.23 964.5,-0.13 968.51,-0.13 972.52,-0.23"/>
<text text-anchor="start" x="937.34" y="-45.17" font-family="Times,serif" font-size="14.00">C0025080</text>
<text text-anchor="start" x="931.33" y="-31.17" font-family="Times,serif" font-size="14.00">YL&#45;1 needle</text>
<text text-anchor="start" x="950.56" y="-17.17" font-family="Times,serif" font-size="14.00">80:81</text>
</g>
<!-- id_28118200_DOT_10&#45;&#45;id_28118200_DOT_14 -->
<g id="edge6" class="edge">
<title>id_28118200_DOT_10&#45;&#45;id_28118200_DOT_14</title>
<path fill="none" stroke="black" d="M1011.18,-368.8C1001.74,-298.31 980.66,-141.03 971.23,-70.62"/>
<text text-anchor="middle" x="964.95" y="-222.51" font-family="Times,serif" font-size="14.00">0.004660</text>
</g>
<!-- id_28118200_DOT_10&#45;&#45;id_28118200_DOT_26 -->
<g id="edge7" class="edge">
<title>id_28118200_DOT_10&#45;&#45;id_28118200_DOT_26</title>
<path fill="none" stroke="black" d="M1018.98,-439.48C1025.29,-512.29 1039.67,-678.37 1046,-751.35"/>
<text text-anchor="middle" x="1006.24" y="-598.21" font-family="Times,serif" font-size="14.00">0.014336</text>
</g>
<!-- id_28118200_DOT_11 -->
<g id="node11" class="node">
<title>id_28118200_DOT_11</title>
<polygon fill="chartreuse" stroke="chartreuse" points="2124.61,-1988.78 2128.68,-1988.97 2132.71,-1989.26 2136.68,-1989.65 2140.58,-1990.12 2144.39,-1990.69 2148.09,-1991.35 2151.67,-1992.1 2155.12,-1992.94 2158.42,-1993.87 2161.56,-1994.87 2164.54,-1995.95 2167.33,-1997.12 2169.94,-1998.35 2172.35,-1999.66 2174.56,-2001.03 2176.57,-2002.46 2178.36,-2003.95 2179.93,-2005.5 2181.29,-2007.1 2182.43,-2008.74 2183.36,-2010.43 2184.07,-2012.15 2184.56,-2013.91 2184.84,-2015.69 2184.92,-2017.5 2184.79,-2019.32 2184.47,-2021.15 2183.96,-2023 2183.27,-2024.84 2182.4,-2026.68 2181.36,-2028.52 2180.17,-2030.34 2178.83,-2032.15 2177.34,-2033.93 2175.73,-2035.68 2173.99,-2037.41 2172.14,-2039.09 2170.18,-2040.74 2168.13,-2042.34 2165.99,-2043.88 2163.77,-2045.38 2161.48,-2046.81 2159.12,-2048.18 2156.71,-2049.49 2154.25,-2050.72 2151.74,-2051.88 2149.19,-2052.97 2146.61,-2053.97 2144.01,-2054.89 2141.37,-2055.73 2138.72,-2056.48 2136.05,-2057.14 2133.37,-2057.71 2130.67,-2058.19 2127.97,-2058.58 2125.26,-2058.86 2122.54,-2059.06 2119.82,-2059.15 2117.1,-2059.15 2114.39,-2059.06 2111.67,-2058.86 2108.96,-2058.58 2106.26,-2058.19 2103.56,-2057.71 2100.88,-2057.14 2098.21,-2056.48 2095.55,-2055.73 2092.92,-2054.89 2090.31,-2053.97 2087.73,-2052.97 2085.19,-2051.88 2082.68,-2050.72 2080.22,-2049.49 2077.8,-2048.18 2075.45,-2046.81 2073.16,-2045.38 2070.94,-2043.88 2068.8,-2042.34 2066.74,-2040.74 2064.79,-2039.09 2062.93,-2037.41 2061.2,-2035.68 2059.58,-2033.93 2058.1,-2032.15 2056.75,-2030.34 2055.56,-2028.52 2054.53,-2026.68 2053.66,-2024.84 2052.97,-2023 2052.45,-2021.15 2052.13,-2019.32 2052.01,-2017.5 2052.08,-2015.69 2052.37,-2013.91 2052.86,-2012.15 2053.57,-2010.43 2054.49,-2008.74 2055.63,-2007.1 2056.99,-2005.5 2058.57,-2003.95 2060.36,-2002.46 2062.36,-2001.03 2064.57,-1999.66 2066.99,-1998.35 2069.59,-1997.12 2072.39,-1995.95 2075.37,-1994.87 2078.51,-1993.87 2081.81,-1992.94 2085.26,-1992.1 2088.84,-1991.35 2092.54,-1990.69 2096.35,-1990.12 2100.24,-1989.65 2104.21,-1989.26 2108.24,-1988.97 2112.31,-1988.78 2116.41,-1988.68 2120.52,-1988.68 2124.61,-1988.78"/>
<text text-anchor="start" x="2089.29" y="-2033.72" font-family="Times,serif" font-size="14.00">C0185154</text>
<text text-anchor="start" x="2082.49" y="-2019.72" font-family="Times,serif" font-size="14.00">skull drilling</text>
<text text-anchor="start" x="2102.52" y="-2005.72" font-family="Times,serif" font-size="14.00">63:64</text>
</g>
<!-- id_28118200_DOT_12 -->
<g id="node12" class="node">
<title>id_28118200_DOT_12</title>
<polygon fill="chartreuse" stroke="chartreuse" points="1899.11,-2326.71 1902.54,-2326.9 1905.93,-2327.19 1909.28,-2327.57 1912.56,-2328.05 1915.76,-2328.62 1918.88,-2329.28 1921.89,-2330.03 1924.8,-2330.87 1927.58,-2331.79 1930.22,-2332.8 1932.73,-2333.88 1935.08,-2335.04 1937.28,-2336.28 1939.31,-2337.58 1941.17,-2338.95 1942.86,-2340.39 1944.37,-2341.88 1945.69,-2343.43 1946.84,-2345.03 1947.8,-2346.67 1948.58,-2348.36 1949.17,-2350.08 1949.59,-2351.84 1949.83,-2353.62 1949.89,-2355.42 1949.79,-2357.25 1949.52,-2359.08 1949.08,-2360.92 1948.5,-2362.77 1947.77,-2364.61 1946.9,-2366.45 1945.89,-2368.27 1944.76,-2370.07 1943.51,-2371.86 1942.15,-2373.61 1940.69,-2375.34 1939.13,-2377.02 1937.48,-2378.67 1935.76,-2380.26 1933.95,-2381.81 1932.08,-2383.3 1930.16,-2384.74 1928.17,-2386.11 1926.14,-2387.41 1924.07,-2388.65 1921.96,-2389.81 1919.81,-2390.89 1917.64,-2391.9 1915.44,-2392.82 1913.23,-2393.66 1910.99,-2394.41 1908.74,-2395.07 1906.48,-2395.64 1904.21,-2396.12 1901.94,-2396.5 1899.65,-2396.79 1897.37,-2396.99 1895.08,-2397.08 1892.79,-2397.08 1890.5,-2396.99 1888.22,-2396.79 1885.93,-2396.5 1883.66,-2396.12 1881.39,-2395.64 1879.13,-2395.07 1876.88,-2394.41 1874.64,-2393.66 1872.43,-2392.82 1870.23,-2391.9 1868.06,-2390.89 1865.92,-2389.81 1863.8,-2388.65 1861.73,-2387.41 1859.7,-2386.11 1857.71,-2384.74 1855.79,-2383.3 1853.92,-2381.81 1852.11,-2380.26 1850.39,-2378.67 1848.74,-2377.02 1847.18,-2375.34 1845.72,-2373.61 1844.36,-2371.86 1843.11,-2370.07 1841.98,-2368.27 1840.97,-2366.45 1840.1,-2364.61 1839.37,-2362.77 1838.79,-2360.92 1838.36,-2359.08 1838.08,-2357.25 1837.98,-2355.42 1838.04,-2353.62 1838.28,-2351.84 1838.7,-2350.08 1839.29,-2348.36 1840.07,-2346.67 1841.03,-2345.03 1842.18,-2343.43 1843.5,-2341.88 1845.01,-2340.39 1846.7,-2338.95 1848.56,-2337.58 1850.59,-2336.28 1852.79,-2335.04 1855.14,-2333.88 1857.65,-2332.8 1860.29,-2331.79 1863.07,-2330.87 1865.98,-2330.03 1868.99,-2329.28 1872.11,-2328.62 1875.31,-2328.05 1878.59,-2327.57 1881.94,-2327.19 1885.33,-2326.9 1888.76,-2326.71 1892.21,-2326.61 1895.66,-2326.61 1899.11,-2326.71"/>
<text text-anchor="start" x="1864.77" y="-2371.65" font-family="Times,serif" font-size="14.00">C0185154</text>
<text text-anchor="start" x="1873.32" y="-2357.65" font-family="Times,serif" font-size="14.00">drilling</text>
<text text-anchor="start" x="1877.99" y="-2343.65" font-family="Times,serif" font-size="14.00">71:71</text>
</g>
<!-- id_28118200_DOT_11&#45;&#45;id_28118200_DOT_12 -->
<g id="edge8" class="edge">
<title>id_28118200_DOT_11&#45;&#45;id_28118200_DOT_12</title>
<path fill="none" stroke="black" d="M2096.93,-2056.32C2054.24,-2120.58 1959.24,-2263.56 1916.06,-2328.55"/>
<text text-anchor="middle" x="1980.25" y="-2195.23" font-family="Times,serif" font-size="14.00">0.022073</text>
</g>
<!-- id_28118200_DOT_12&#45;&#45;id_28118200_DOT_23 -->
<g id="edge26" class="edge">
<title>id_28118200_DOT_12&#45;&#45;id_28118200_DOT_23</title>
<path fill="none" stroke="black" stroke-dasharray="1,5" d="M1918.69,-2391.61C1968.21,-2451.13 2079.08,-2584.39 2130.26,-2645.92"/>
<text text-anchor="middle" x="1998.23" y="-2521.56" font-family="Times,serif" font-size="14.00">0.813549</text>
</g>
<!-- id_28118200_DOT_27 -->
<g id="node27" class="node">
<title>id_28118200_DOT_27</title>
<polygon fill="chartreuse" stroke="chartreuse" points="1519.24,-2174.3 1524.7,-2174.5 1530.1,-2174.79 1535.43,-2175.17 1540.65,-2175.65 1545.75,-2176.22 1550.72,-2176.88 1555.52,-2177.63 1560.14,-2178.47 1564.57,-2179.39 1568.78,-2180.39 1572.77,-2181.48 1576.52,-2182.64 1580.02,-2183.88 1583.25,-2185.18 1586.22,-2186.55 1588.9,-2187.99 1591.3,-2189.48 1593.42,-2191.03 1595.24,-2192.62 1596.77,-2194.27 1598.01,-2195.95 1598.96,-2197.68 1599.62,-2199.43 1600,-2201.21 1600.1,-2203.02 1599.93,-2204.84 1599.5,-2206.68 1598.82,-2208.52 1597.89,-2210.37 1596.72,-2212.21 1595.33,-2214.04 1593.74,-2215.87 1591.93,-2217.67 1589.95,-2219.45 1587.78,-2221.21 1585.45,-2222.93 1582.97,-2224.62 1580.34,-2226.26 1577.59,-2227.86 1574.72,-2229.41 1571.75,-2230.9 1568.67,-2232.33 1565.51,-2233.71 1562.28,-2235.01 1558.98,-2236.25 1555.61,-2237.41 1552.2,-2238.49 1548.74,-2239.5 1545.24,-2240.42 1541.72,-2241.26 1538.16,-2242.01 1534.58,-2242.67 1530.98,-2243.24 1527.36,-2243.72 1523.74,-2244.1 1520.1,-2244.39 1516.46,-2244.58 1512.82,-2244.68 1509.17,-2244.68 1505.53,-2244.58 1501.89,-2244.39 1498.25,-2244.1 1494.63,-2243.72 1491.02,-2243.24 1487.42,-2242.67 1483.84,-2242.01 1480.28,-2241.26 1476.75,-2240.42 1473.25,-2239.5 1469.79,-2238.49 1466.38,-2237.41 1463.02,-2236.25 1459.71,-2235.01 1456.48,-2233.71 1453.32,-2232.33 1450.25,-2230.9 1447.27,-2229.41 1444.4,-2227.86 1441.65,-2226.26 1439.03,-2224.62 1436.54,-2222.93 1434.21,-2221.21 1432.05,-2219.45 1430.06,-2217.67 1428.26,-2215.87 1426.66,-2214.04 1425.27,-2212.21 1424.11,-2210.37 1423.18,-2208.52 1422.49,-2206.68 1422.06,-2204.84 1421.89,-2203.02 1422,-2201.21 1422.37,-2199.43 1423.04,-2197.68 1423.98,-2195.95 1425.22,-2194.27 1426.75,-2192.62 1428.58,-2191.03 1430.69,-2189.48 1433.09,-2187.99 1435.78,-2186.55 1438.74,-2185.18 1441.98,-2183.88 1445.47,-2182.64 1449.22,-2181.48 1453.21,-2180.39 1457.43,-2179.39 1461.85,-2178.47 1466.48,-2177.63 1471.28,-2176.88 1476.24,-2176.22 1481.34,-2175.65 1486.57,-2175.17 1491.89,-2174.79 1497.29,-2174.5 1502.75,-2174.3 1508.24,-2174.21 1513.75,-2174.21 1519.24,-2174.3"/>
<text text-anchor="start" x="1481.83" y="-2219.24" font-family="Times,serif" font-size="14.00">C0185154</text>
<text text-anchor="start" x="1459.87" y="-2205.24" font-family="Times,serif" font-size="14.00">traditional drilling</text>
<text text-anchor="start" x="1488.05" y="-2191.24" font-family="Times,serif" font-size="14.00">154:155</text>
</g>
<!-- id_28118200_DOT_12&#45;&#45;id_28118200_DOT_27 -->
<g id="edge9" class="edge">
<title>id_28118200_DOT_12&#45;&#45;id_28118200_DOT_27</title>
<path fill="none" stroke="black" d="M1843.48,-2341.77C1772.5,-2313.52 1643.5,-2262.18 1568.76,-2232.43"/>
<text text-anchor="middle" x="1679.87" y="-2289.9" font-family="Times,serif" font-size="14.00">0.028879</text>
</g>
<!-- id_28118200_DOT_13 -->
<g id="node13" class="node">
<title>id_28118200_DOT_13</title>
<polygon fill="coral" stroke="coral" points="61.16,-2450.37 64.58,-2450.56 67.98,-2450.85 71.32,-2451.23 74.6,-2451.71 77.81,-2452.28 80.92,-2452.94 83.94,-2453.69 86.84,-2454.53 89.62,-2455.45 92.27,-2456.46 94.77,-2457.54 97.13,-2458.7 99.32,-2459.94 101.35,-2461.24 103.22,-2462.62 104.9,-2464.05 106.41,-2465.54 107.74,-2467.09 108.88,-2468.69 109.84,-2470.33 110.62,-2472.02 111.22,-2473.74 111.63,-2475.5 111.87,-2477.28 111.93,-2479.08 111.83,-2480.91 111.56,-2482.74 111.13,-2484.58 110.54,-2486.43 109.81,-2488.27 108.94,-2490.11 107.94,-2491.93 106.81,-2493.74 105.56,-2495.52 104.2,-2497.27 102.73,-2499 101.18,-2500.68 99.53,-2502.33 97.8,-2503.92 96,-2505.47 94.13,-2506.96 92.2,-2508.4 90.22,-2509.77 88.18,-2511.07 86.11,-2512.31 84,-2513.47 81.85,-2514.56 79.68,-2515.56 77.49,-2516.48 75.27,-2517.32 73.04,-2518.07 70.79,-2518.73 68.53,-2519.3 66.26,-2519.78 63.98,-2520.16 61.7,-2520.45 59.41,-2520.65 57.12,-2520.74 54.83,-2520.74 52.55,-2520.65 50.26,-2520.45 47.98,-2520.16 45.7,-2519.78 43.43,-2519.3 41.17,-2518.73 38.92,-2518.07 36.69,-2517.32 34.47,-2516.48 32.27,-2515.56 30.1,-2514.56 27.96,-2513.47 25.85,-2512.31 23.77,-2511.07 21.74,-2509.77 19.76,-2508.4 17.83,-2506.96 15.96,-2505.47 14.16,-2503.92 12.43,-2502.33 10.78,-2500.68 9.22,-2499 7.76,-2497.27 6.4,-2495.52 5.15,-2493.74 4.02,-2491.93 3.01,-2490.11 2.14,-2488.27 1.41,-2486.43 0.83,-2484.58 0.4,-2482.74 0.13,-2480.91 0.02,-2479.08 0.09,-2477.28 0.32,-2475.5 0.74,-2473.74 1.34,-2472.02 2.11,-2470.33 3.07,-2468.69 4.22,-2467.09 5.55,-2465.54 7.05,-2464.05 8.74,-2462.62 10.6,-2461.24 12.63,-2459.94 14.83,-2458.7 17.18,-2457.54 19.69,-2456.46 22.34,-2455.45 25.12,-2454.53 28.02,-2453.69 31.03,-2452.94 34.15,-2452.28 37.35,-2451.71 40.64,-2451.23 43.98,-2450.85 47.37,-2450.56 50.8,-2450.37 54.25,-2450.27 57.71,-2450.27 61.16,-2450.37"/>
<text text-anchor="start" x="26.81" y="-2495.31" font-family="Times,serif" font-size="14.00">C0013103</text>
<text text-anchor="start" x="31.88" y="-2481.31" font-family="Times,serif" font-size="14.00">drainage</text>
<text text-anchor="start" x="40.03" y="-2467.31" font-family="Times,serif" font-size="14.00">73:73</text>
</g>
<!-- id_28118200_DOT_20 -->
<g id="node20" class="node">
<title>id_28118200_DOT_20</title>
<polygon fill="coral" stroke="coral" points="426.64,-2333.63 430.07,-2333.82 433.46,-2334.11 436.8,-2334.5 440.08,-2334.97 443.29,-2335.54 446.41,-2336.2 449.42,-2336.95 452.32,-2337.79 455.1,-2338.72 457.75,-2339.72 460.26,-2340.8 462.61,-2341.97 464.81,-2343.2 466.84,-2344.51 468.7,-2345.88 470.38,-2347.31 471.89,-2348.8 473.22,-2350.35 474.37,-2351.95 475.33,-2353.59 476.1,-2355.28 476.7,-2357 477.12,-2358.76 477.35,-2360.54 477.42,-2362.35 477.31,-2364.17 477.04,-2366 476.61,-2367.85 476.03,-2369.69 475.3,-2371.53 474.43,-2373.37 473.42,-2375.19 472.29,-2377 471.04,-2378.78 469.68,-2380.53 468.22,-2382.26 466.66,-2383.94 465.01,-2385.59 463.28,-2387.19 461.48,-2388.73 459.61,-2390.23 457.68,-2391.66 455.7,-2393.03 453.67,-2394.34 451.59,-2395.57 449.48,-2396.73 447.34,-2397.82 445.17,-2398.82 442.97,-2399.74 440.75,-2400.58 438.52,-2401.33 436.27,-2401.99 434.01,-2402.56 431.74,-2403.04 429.46,-2403.43 427.18,-2403.71 424.89,-2403.91 422.61,-2404 420.32,-2404 418.03,-2403.91 415.74,-2403.71 413.46,-2403.43 411.18,-2403.04 408.91,-2402.56 406.65,-2401.99 404.4,-2401.33 402.17,-2400.58 399.95,-2399.74 397.76,-2398.82 395.59,-2397.82 393.44,-2396.73 391.33,-2395.57 389.26,-2394.34 387.22,-2393.03 385.24,-2391.66 383.31,-2390.23 381.44,-2388.73 379.64,-2387.19 377.91,-2385.59 376.26,-2383.94 374.71,-2382.26 373.24,-2380.53 371.88,-2378.78 370.63,-2377 369.5,-2375.19 368.5,-2373.37 367.63,-2371.53 366.9,-2369.69 366.31,-2367.85 365.88,-2366 365.61,-2364.17 365.5,-2362.35 365.57,-2360.54 365.81,-2358.76 366.22,-2357 366.82,-2355.28 367.6,-2353.59 368.56,-2351.95 369.7,-2350.35 371.03,-2348.8 372.54,-2347.31 374.22,-2345.88 376.09,-2344.51 378.12,-2343.2 380.31,-2341.97 382.67,-2340.8 385.17,-2339.72 387.82,-2338.72 390.6,-2337.79 393.5,-2336.95 396.52,-2336.2 399.63,-2335.54 402.84,-2334.97 406.12,-2334.5 409.46,-2334.11 412.86,-2333.82 416.28,-2333.63 419.73,-2333.53 423.19,-2333.53 426.64,-2333.63"/>
<text text-anchor="start" x="392.29" y="-2378.57" font-family="Times,serif" font-size="14.00">C0013103</text>
<text text-anchor="start" x="397.36" y="-2364.57" font-family="Times,serif" font-size="14.00">drainage</text>
<text text-anchor="start" x="398.52" y="-2350.57" font-family="Times,serif" font-size="14.00">120:120</text>
</g>
<!-- id_28118200_DOT_13&#45;&#45;id_28118200_DOT_20 -->
<g id="edge10" class="edge">
<title>id_28118200_DOT_13&#45;&#45;id_28118200_DOT_20</title>
<path fill="none" stroke="black" d="M109.12,-2468.53C180.89,-2445.61 307.6,-2405.14 375.48,-2383.46"/>
<text text-anchor="middle" x="216.05" y="-2428.79" font-family="Times,serif" font-size="14.00">0.046809</text>
</g>
<!-- id_28118200_DOT_15 -->
<g id="node15" class="node">
<title>id_28118200_DOT_15</title>
<polygon fill="cornflowerblue" stroke="cornflowerblue" points="3508.76,-6012.81 3512.19,-6013 3515.58,-6013.29 3518.92,-6013.67 3522.2,-6014.15 3525.41,-6014.72 3528.53,-6015.38 3531.54,-6016.13 3534.44,-6016.97 3537.22,-6017.89 3539.87,-6018.9 3542.37,-6019.98 3544.73,-6021.14 3546.93,-6022.38 3548.96,-6023.68 3550.82,-6025.06 3552.5,-6026.49 3554.01,-6027.98 3555.34,-6029.53 3556.48,-6031.13 3557.45,-6032.77 3558.22,-6034.46 3558.82,-6036.18 3559.24,-6037.94 3559.47,-6039.72 3559.54,-6041.52 3559.43,-6043.35 3559.16,-6045.18 3558.73,-6047.02 3558.15,-6048.87 3557.42,-6050.71 3556.54,-6052.55 3555.54,-6054.37 3554.41,-6056.18 3553.16,-6057.96 3551.8,-6059.71 3550.34,-6061.44 3548.78,-6063.12 3547.13,-6064.77 3545.4,-6066.36 3543.6,-6067.91 3541.73,-6069.4 3539.8,-6070.84 3537.82,-6072.21 3535.79,-6073.51 3533.71,-6074.75 3531.6,-6075.91 3529.46,-6077 3527.28,-6078 3525.09,-6078.92 3522.87,-6079.76 3520.64,-6080.51 3518.39,-6081.17 3516.13,-6081.74 3513.86,-6082.22 3511.58,-6082.6 3509.3,-6082.89 3507.01,-6083.09 3504.73,-6083.18 3502.44,-6083.18 3500.15,-6083.09 3497.86,-6082.89 3495.58,-6082.6 3493.3,-6082.22 3491.03,-6081.74 3488.77,-6081.17 3486.52,-6080.51 3484.29,-6079.76 3482.07,-6078.92 3479.88,-6078 3477.71,-6077 3475.56,-6075.91 3473.45,-6074.75 3471.38,-6073.51 3469.34,-6072.21 3467.36,-6070.84 3465.43,-6069.4 3463.56,-6067.91 3461.76,-6066.36 3460.03,-6064.77 3458.38,-6063.12 3456.83,-6061.44 3455.36,-6059.71 3454,-6057.96 3452.75,-6056.18 3451.62,-6054.37 3450.62,-6052.55 3449.75,-6050.71 3449.02,-6048.87 3448.43,-6047.02 3448,-6045.18 3447.73,-6043.35 3447.62,-6041.52 3447.69,-6039.72 3447.93,-6037.94 3448.34,-6036.18 3448.94,-6034.46 3449.72,-6032.77 3450.68,-6031.13 3451.82,-6029.53 3453.15,-6027.98 3454.66,-6026.49 3456.34,-6025.06 3458.21,-6023.68 3460.24,-6022.38 3462.43,-6021.14 3464.79,-6019.98 3467.29,-6018.9 3469.94,-6017.89 3472.72,-6016.97 3475.62,-6016.13 3478.64,-6015.38 3481.75,-6014.72 3484.96,-6014.15 3488.24,-6013.67 3491.58,-6013.29 3494.97,-6013 3498.4,-6012.81 3501.85,-6012.71 3505.31,-6012.71 3508.76,-6012.81"/>
<text text-anchor="start" x="3474.41" y="-6057.75" font-family="Times,serif" font-size="14.00">C0018944</text>
<text text-anchor="start" x="3474.43" y="-6043.75" font-family="Times,serif" font-size="14.00">hematoma</text>
<text text-anchor="start" x="3487.64" y="-6029.75" font-family="Times,serif" font-size="14.00">89:89</text>
</g>
<!-- id_28118200_DOT_21 -->
<g id="node21" class="node">
<title>id_28118200_DOT_21</title>
<polygon fill="cornflowerblue" stroke="cornflowerblue" points="3418.89,-5653.78 3422.32,-5653.97 3425.71,-5654.26 3429.05,-5654.64 3432.33,-5655.12 3435.54,-5655.69 3438.65,-5656.35 3441.67,-5657.1 3444.57,-5657.94 3447.35,-5658.86 3450,-5659.87 3452.5,-5660.95 3454.86,-5662.11 3457.05,-5663.35 3459.09,-5664.65 3460.95,-5666.02 3462.63,-5667.46 3464.14,-5668.95 3465.47,-5670.5 3466.61,-5672.1 3467.58,-5673.74 3468.35,-5675.43 3468.95,-5677.15 3469.36,-5678.9 3469.6,-5680.69 3469.67,-5682.49 3469.56,-5684.31 3469.29,-5686.15 3468.86,-5687.99 3468.28,-5689.84 3467.55,-5691.68 3466.67,-5693.52 3465.67,-5695.34 3464.54,-5697.14 3463.29,-5698.93 3461.93,-5700.68 3460.47,-5702.4 3458.91,-5704.09 3457.26,-5705.73 3455.53,-5707.33 3453.73,-5708.88 3451.86,-5710.37 3449.93,-5711.81 3447.95,-5713.18 3445.92,-5714.48 3443.84,-5715.72 3441.73,-5716.88 3439.59,-5717.96 3437.41,-5718.97 3435.22,-5719.89 3433,-5720.73 3430.77,-5721.48 3428.52,-5722.14 3426.26,-5722.71 3423.99,-5723.19 3421.71,-5723.57 3419.43,-5723.86 3417.14,-5724.05 3414.85,-5724.15 3412.57,-5724.15 3410.28,-5724.05 3407.99,-5723.86 3405.71,-5723.57 3403.43,-5723.19 3401.16,-5722.71 3398.9,-5722.14 3396.65,-5721.48 3394.42,-5720.73 3392.2,-5719.89 3390.01,-5718.97 3387.83,-5717.96 3385.69,-5716.88 3383.58,-5715.72 3381.5,-5714.48 3379.47,-5713.18 3377.49,-5711.81 3375.56,-5710.37 3373.69,-5708.88 3371.89,-5707.33 3370.16,-5705.73 3368.51,-5704.09 3366.95,-5702.4 3365.49,-5700.68 3364.13,-5698.93 3362.88,-5697.14 3361.75,-5695.34 3360.75,-5693.52 3359.88,-5691.68 3359.14,-5689.84 3358.56,-5687.99 3358.13,-5686.15 3357.86,-5684.31 3357.75,-5682.49 3357.82,-5680.69 3358.06,-5678.9 3358.47,-5677.15 3359.07,-5675.43 3359.85,-5673.74 3360.81,-5672.1 3361.95,-5670.5 3363.28,-5668.95 3364.79,-5667.46 3366.47,-5666.02 3368.33,-5664.65 3370.37,-5663.35 3372.56,-5662.11 3374.92,-5660.95 3377.42,-5659.87 3380.07,-5658.86 3382.85,-5657.94 3385.75,-5657.1 3388.77,-5656.35 3391.88,-5655.69 3395.09,-5655.12 3398.37,-5654.64 3401.71,-5654.26 3405.1,-5653.97 3408.53,-5653.78 3411.98,-5653.68 3415.44,-5653.68 3418.89,-5653.78"/>
<text text-anchor="start" x="3384.54" y="-5698.72" font-family="Times,serif" font-size="14.00">C0018944</text>
<text text-anchor="start" x="3384.55" y="-5684.72" font-family="Times,serif" font-size="14.00">hematoma</text>
<text text-anchor="start" x="3390.77" y="-5670.72" font-family="Times,serif" font-size="14.00">127:127</text>
</g>
<!-- id_28118200_DOT_15&#45;&#45;id_28118200_DOT_21 -->
<g id="edge11" class="edge">
<title>id_28118200_DOT_15&#45;&#45;id_28118200_DOT_21</title>
<path fill="none" stroke="black" d="M3494.8,-6012.87C3477.57,-5944.05 3439.54,-5792.11 3422.39,-5723.61"/>
<text text-anchor="middle" x="3432.35" y="-5871.04" font-family="Times,serif" font-size="14.00">0.008035</text>
</g>
<!-- id_28118200_DOT_16&#45;&#45;id_28118200_DOT_22 -->
<g id="edge12" class="edge">
<title>id_28118200_DOT_16&#45;&#45;id_28118200_DOT_22</title>
<path fill="none" stroke="black" d="M3028.03,-4668.71C3022.75,-4744.58 3010.33,-4922.83 3005.04,-4998.76"/>
<text text-anchor="middle" x="2990.29" y="-4836.53" font-family="Times,serif" font-size="14.00">0.003038</text>
</g>
<!-- id_28118200_DOT_24 -->
<g id="node24" class="node">
<title>id_28118200_DOT_24</title>
<polygon fill="darkgoldenrod" stroke="darkgoldenrod" points="3403.97,-2394.4 3412.15,-2394.6 3420.25,-2394.89 3428.23,-2395.27 3436.06,-2395.75 3443.71,-2396.32 3451.14,-2396.98 3458.34,-2397.73 3465.27,-2398.57 3471.9,-2399.49 3478.22,-2400.49 3484.2,-2401.58 3489.82,-2402.74 3495.06,-2403.98 3499.91,-2405.28 3504.35,-2406.65 3508.38,-2408.09 3511.98,-2409.58 3515.14,-2411.13 3517.88,-2412.72 3520.17,-2414.37 3522.03,-2416.05 3523.45,-2417.78 3524.44,-2419.53 3525.01,-2421.31 3525.16,-2423.12 3524.91,-2424.94 3524.26,-2426.78 3523.24,-2428.62 3521.84,-2430.47 3520.1,-2432.31 3518.02,-2434.14 3515.62,-2435.97 3512.92,-2437.77 3509.94,-2439.55 3506.7,-2441.31 3503.2,-2443.03 3499.48,-2444.72 3495.55,-2446.36 3491.42,-2447.96 3487.12,-2449.51 3482.66,-2451 3478.06,-2452.43 3473.32,-2453.81 3468.47,-2455.11 3463.52,-2456.35 3458.48,-2457.51 3453.37,-2458.59 3448.18,-2459.6 3442.94,-2460.52 3437.65,-2461.36 3432.32,-2462.11 3426.95,-2462.77 3421.56,-2463.34 3416.14,-2463.82 3410.71,-2464.2 3405.26,-2464.49 3399.8,-2464.68 3394.34,-2464.78 3388.88,-2464.78 3383.41,-2464.68 3377.96,-2464.49 3372.51,-2464.2 3367.07,-2463.82 3361.66,-2463.34 3356.26,-2462.77 3350.9,-2462.11 3345.56,-2461.36 3340.27,-2460.52 3335.03,-2459.6 3329.85,-2458.59 3324.73,-2457.51 3319.69,-2456.35 3314.74,-2455.11 3309.89,-2453.81 3305.16,-2452.43 3300.55,-2451 3296.09,-2449.51 3291.79,-2447.96 3287.67,-2446.36 3283.73,-2444.72 3280.01,-2443.03 3276.52,-2441.31 3273.27,-2439.55 3270.29,-2437.77 3267.59,-2435.97 3265.2,-2434.14 3263.12,-2432.31 3261.37,-2430.47 3259.98,-2428.62 3258.95,-2426.78 3258.31,-2424.94 3258.05,-2423.12 3258.21,-2421.31 3258.77,-2419.53 3259.77,-2417.78 3261.19,-2416.05 3263.04,-2414.37 3265.34,-2412.72 3268.07,-2411.13 3271.24,-2409.58 3274.84,-2408.09 3278.86,-2406.65 3283.31,-2405.28 3288.16,-2403.98 3293.4,-2402.74 3299.02,-2401.58 3304.99,-2400.49 3311.31,-2399.49 3317.95,-2398.57 3324.88,-2397.73 3332.07,-2396.98 3339.51,-2396.32 3347.16,-2395.75 3354.99,-2395.27 3362.97,-2394.89 3371.07,-2394.6 3379.25,-2394.4 3387.48,-2394.31 3395.73,-2394.31 3403.97,-2394.4"/>
<text text-anchor="start" x="3362.44" y="-2439.34" font-family="Times,serif" font-size="14.00">C0238376</text>
<text text-anchor="start" x="3310.95" y="-2425.34" font-family="Times,serif" font-size="14.00">intracranial pneumocephalus</text>
<text text-anchor="start" x="3368.66" y="-2411.34" font-family="Times,serif" font-size="14.00">141:142</text>
</g>
<!-- id_28118200_DOT_17&#45;&#45;id_28118200_DOT_24 -->
<g id="edge13" class="edge">
<title>id_28118200_DOT_17&#45;&#45;id_28118200_DOT_24</title>
<path fill="none" stroke="black" d="M3160.61,-2703.02C3210.88,-2643.51 3312.83,-2522.81 3362.75,-2463.71"/>
<text text-anchor="middle" x="3235.43" y="-2586.16" font-family="Times,serif" font-size="14.00">0.035095</text>
</g>
<!-- id_28118200_DOT_18&#45;&#45;id_28118200_DOT_29 -->
<g id="edge27" class="edge">
<title>id_28118200_DOT_18&#45;&#45;id_28118200_DOT_29</title>
<path fill="none" stroke="black" stroke-dasharray="1,5" d="M3201.5,-3419.18C3269.67,-3410.84 3379.01,-3397.48 3460.86,-3387.47"/>
<text text-anchor="middle" x="3304.93" y="-3406.12" font-family="Times,serif" font-size="14.00">0.937070</text>
</g>
<!-- id_28118200_DOT_18&#45;&#45;id_28118200_DOT_31 -->
<g id="edge28" class="edge">
<title>id_28118200_DOT_18&#45;&#45;id_28118200_DOT_31</title>
<path fill="none" stroke="black" stroke-dasharray="1,5" d="M3130.61,-3461.86C3114.62,-3539.72 3076.17,-3726.96 3060.11,-3805.15"/>
<text text-anchor="middle" x="3069.11" y="-3636.3" font-family="Times,serif" font-size="14.00">0.809263</text>
</g>
<!-- id_28118200_DOT_19&#45;&#45;id_28118200_DOT_27 -->
<g id="edge14" class="edge">
<title>id_28118200_DOT_19&#45;&#45;id_28118200_DOT_27</title>
<path fill="none" stroke="black" d="M1196.76,-2018.61C1264.17,-2059.55 1390.06,-2136 1460.3,-2178.66"/>
<text text-anchor="middle" x="1302.28" y="-2101.43" font-family="Times,serif" font-size="14.00">0.007260</text>
</g>
<!-- id_28118200_DOT_28 -->
<g id="node28" class="node">
<title>id_28118200_DOT_28</title>
<polygon fill="coral" stroke="coral" points="794.41,-2174.1 799.48,-2174.29 804.49,-2174.58 809.43,-2174.97 814.28,-2175.44 819.02,-2176.01 823.62,-2176.68 828.08,-2177.43 832.37,-2178.26 836.48,-2179.19 840.39,-2180.19 844.09,-2181.28 847.57,-2182.44 850.81,-2183.67 853.82,-2184.98 856.57,-2186.35 859.06,-2187.78 861.29,-2189.28 863.25,-2190.82 864.94,-2192.42 866.36,-2194.07 867.51,-2195.75 868.39,-2197.47 869.01,-2199.23 869.36,-2201.01 869.45,-2202.82 869.3,-2204.64 868.9,-2206.47 868.26,-2208.32 867.4,-2210.16 866.32,-2212.01 865.03,-2213.84 863.55,-2215.66 861.88,-2217.47 860.03,-2219.25 858.02,-2221.01 855.86,-2222.73 853.55,-2224.41 851.12,-2226.06 848.56,-2227.66 845.9,-2229.2 843.14,-2230.7 840.29,-2232.13 837.36,-2233.5 834.35,-2234.81 831.29,-2236.04 828.17,-2237.2 825,-2238.29 821.79,-2239.29 818.54,-2240.22 815.27,-2241.05 811.97,-2241.8 808.64,-2242.47 805.3,-2243.04 801.95,-2243.51 798.59,-2243.9 795.21,-2244.19 791.83,-2244.38 788.45,-2244.48 785.07,-2244.48 781.69,-2244.38 778.31,-2244.19 774.94,-2243.9 771.57,-2243.51 768.22,-2243.04 764.88,-2242.47 761.55,-2241.8 758.25,-2241.05 754.98,-2240.22 751.73,-2239.29 748.52,-2238.29 745.35,-2237.2 742.23,-2236.04 739.17,-2234.81 736.16,-2233.5 733.23,-2232.13 730.38,-2230.7 727.62,-2229.2 724.96,-2227.66 722.4,-2226.06 719.97,-2224.41 717.66,-2222.73 715.5,-2221.01 713.49,-2219.25 711.65,-2217.47 709.97,-2215.66 708.49,-2213.84 707.2,-2212.01 706.12,-2210.16 705.26,-2208.32 704.62,-2206.47 704.22,-2204.64 704.07,-2202.82 704.16,-2201.01 704.51,-2199.23 705.13,-2197.47 706.01,-2195.75 707.16,-2194.07 708.58,-2192.42 710.27,-2190.82 712.23,-2189.28 714.46,-2187.78 716.95,-2186.35 719.7,-2184.98 722.71,-2183.67 725.95,-2182.44 729.43,-2181.28 733.13,-2180.19 737.04,-2179.19 741.15,-2178.26 745.44,-2177.43 749.9,-2176.68 754.5,-2176.01 759.24,-2175.44 764.09,-2174.97 769.03,-2174.58 774.04,-2174.29 779.11,-2174.1 784.21,-2174 789.31,-2174 794.41,-2174.1"/>
<text text-anchor="start" x="757.59" y="-2219.04" font-family="Times,serif" font-size="14.00">C0013103</text>
<text text-anchor="start" x="739.92" y="-2205.04" font-family="Times,serif" font-size="14.00">drainage method</text>
<text text-anchor="start" x="763.82" y="-2191.04" font-family="Times,serif" font-size="14.00">157:158</text>
</g>
<!-- id_28118200_DOT_19&#45;&#45;id_28118200_DOT_28 -->
<g id="edge29" class="edge">
<title>id_28118200_DOT_19&#45;&#45;id_28118200_DOT_28</title>
<path fill="none" stroke="black" stroke-dasharray="1,5" d="M1105.03,-2018.58C1036.37,-2059.71 907.82,-2136.72 836.91,-2179.2"/>
<text text-anchor="middle" x="944.72" y="-2101.69" font-family="Times,serif" font-size="14.00">0.557163</text>
</g>
<!-- id_28118200_DOT_20&#45;&#45;id_28118200_DOT_28 -->
<g id="edge15" class="edge">
<title>id_28118200_DOT_20&#45;&#45;id_28118200_DOT_28</title>
<path fill="none" stroke="black" d="M470.73,-2347.25C539.28,-2317.32 662.95,-2263.31 733.55,-2232.48"/>
<text text-anchor="middle" x="575.89" y="-2292.67" font-family="Times,serif" font-size="14.00">0.024587</text>
</g>
<!-- id_28118200_DOT_30 -->
<g id="node30" class="node">
<title>id_28118200_DOT_30</title>
<polygon fill="crimson" stroke="crimson" points="3266.12,-5306.46 3269.59,-5306.65 3273.02,-5306.94 3276.39,-5307.33 3279.71,-5307.8 3282.95,-5308.37 3286.1,-5309.04 3289.14,-5309.79 3292.07,-5310.62 3294.88,-5311.55 3297.56,-5312.55 3300.09,-5313.64 3302.47,-5314.8 3304.69,-5316.03 3306.74,-5317.34 3308.62,-5318.71 3310.32,-5320.14 3311.85,-5321.64 3313.19,-5323.18 3314.35,-5324.78 3315.32,-5326.43 3316.1,-5328.11 3316.7,-5329.83 3317.12,-5331.59 3317.36,-5333.37 3317.43,-5335.18 3317.32,-5337 3317.05,-5338.83 3316.61,-5340.68 3316.02,-5342.52 3315.29,-5344.37 3314.41,-5346.2 3313.39,-5348.02 3312.25,-5349.83 3310.99,-5351.61 3309.61,-5353.37 3308.13,-5355.09 3306.56,-5356.77 3304.89,-5358.42 3303.15,-5360.02 3301.33,-5361.56 3299.44,-5363.06 3297.49,-5364.49 3295.48,-5365.86 3293.43,-5367.17 3291.34,-5368.4 3289.2,-5369.56 3287.04,-5370.65 3284.84,-5371.65 3282.62,-5372.58 3280.38,-5373.41 3278.13,-5374.16 3275.85,-5374.83 3273.57,-5375.4 3271.28,-5375.87 3268.98,-5376.26 3266.67,-5376.55 3264.36,-5376.74 3262.05,-5376.84 3259.74,-5376.84 3257.42,-5376.74 3255.11,-5376.55 3252.81,-5376.26 3250.51,-5375.87 3248.21,-5375.4 3245.93,-5374.83 3243.66,-5374.16 3241.4,-5373.41 3239.16,-5372.58 3236.94,-5371.65 3234.75,-5370.65 3232.58,-5369.56 3230.45,-5368.4 3228.35,-5367.17 3226.3,-5365.86 3224.3,-5364.49 3222.35,-5363.06 3220.46,-5361.56 3218.64,-5360.02 3216.89,-5358.42 3215.23,-5356.77 3213.65,-5355.09 3212.17,-5353.37 3210.8,-5351.61 3209.54,-5349.83 3208.39,-5348.02 3207.38,-5346.2 3206.5,-5344.37 3205.76,-5342.52 3205.17,-5340.68 3204.74,-5338.83 3204.46,-5337 3204.35,-5335.18 3204.42,-5333.37 3204.66,-5331.59 3205.08,-5329.83 3205.68,-5328.11 3206.47,-5326.43 3207.44,-5324.78 3208.6,-5323.18 3209.94,-5321.64 3211.46,-5320.14 3213.16,-5318.71 3215.05,-5317.34 3217.1,-5316.03 3219.32,-5314.8 3221.7,-5313.64 3224.23,-5312.55 3226.9,-5311.55 3229.71,-5310.62 3232.64,-5309.79 3235.69,-5309.04 3238.84,-5308.37 3242.08,-5307.8 3245.39,-5307.33 3248.77,-5306.94 3252.2,-5306.65 3255.66,-5306.46 3259.15,-5306.36 3262.64,-5306.36 3266.12,-5306.46"/>
<text text-anchor="start" x="3231.72" y="-5351.4" font-family="Times,serif" font-size="14.00">C2825055</text>
<text text-anchor="start" x="3231.36" y="-5337.4" font-family="Times,serif" font-size="14.00">recurrence</text>
<text text-anchor="start" x="3237.95" y="-5323.4" font-family="Times,serif" font-size="14.00">171:171</text>
</g>
<!-- id_28118200_DOT_21&#45;&#45;id_28118200_DOT_30 -->
<g id="edge30" class="edge">
<title>id_28118200_DOT_21&#45;&#45;id_28118200_DOT_30</title>
<path fill="none" stroke="black" stroke-dasharray="1,5" d="M3398.5,-5654.34C3369.06,-5587.43 3304.63,-5440.99 3275.59,-5375.01"/>
<text text-anchor="middle" x="3310.8" y="-5517.48" font-family="Times,serif" font-size="14.00">0.885045</text>
</g>
<!-- id_28118200_DOT_22&#45;&#45;id_28118200_DOT_30 -->
<g id="edge16" class="edge">
<title>id_28118200_DOT_22&#45;&#45;id_28118200_DOT_30</title>
<path fill="none" stroke="black" d="M3027.58,-5063.79C3076.2,-5121.68 3183.13,-5249 3233.55,-5309.05"/>
<text text-anchor="middle" x="3104.32" y="-5189.22" font-family="Times,serif" font-size="14.00">0.002521</text>
</g>
</g>
</svg>
