<?xml version="1.0" encoding="UTF-8" standalone="no"?>
<!DOCTYPE svg PUBLIC "-//W3C//DTD SVG 1.1//EN"
 "http://www.w3.org/Graphics/SVG/1.1/DTD/svg11.dtd">
<!-- Generated by graphviz version 2.42.3 (20191010.1750)
 -->
<!-- Title: MST Pages: 1 -->
<svg width="2488pt" height="2325pt"
 viewBox="0.00 0.00 2487.87 2324.76" xmlns="http://www.w3.org/2000/svg" xmlns:xlink="http://www.w3.org/1999/xlink">
<g id="graph0" class="graph" transform="scale(1 1) rotate(0) translate(4 2320.76)">
<title>MST</title>
<polygon fill="white" stroke="transparent" points="-4,4 -4,-2320.76 2483.87,-2320.76 2483.87,4 -4,4"/>
<!-- id_28129043_DOT_1 -->
<g id="node1" class="node">
<title>id_28129043_DOT_1</title>
<polygon fill="aquamarine" stroke="aquamarine" points="1585.21,-1451.88 1592.45,-1452.08 1599.61,-1452.36 1606.67,-1452.75 1613.6,-1453.23 1620.36,-1453.8 1626.94,-1454.46 1633.31,-1455.21 1639.44,-1456.05 1645.31,-1456.97 1650.89,-1457.97 1656.18,-1459.06 1661.15,-1460.22 1665.79,-1461.45 1670.08,-1462.76 1674.01,-1464.13 1677.57,-1465.56 1680.75,-1467.06 1683.56,-1468.6 1685.97,-1470.2 1688,-1471.85 1689.65,-1473.53 1690.9,-1475.26 1691.78,-1477.01 1692.28,-1478.79 1692.42,-1480.6 1692.2,-1482.42 1691.62,-1484.26 1690.72,-1486.1 1689.48,-1487.94 1687.94,-1489.79 1686.1,-1491.62 1683.98,-1493.45 1681.59,-1495.25 1678.95,-1497.03 1676.08,-1498.79 1672.99,-1500.51 1669.7,-1502.2 1666.22,-1503.84 1662.57,-1505.44 1658.77,-1506.99 1654.82,-1508.48 1650.75,-1509.91 1646.56,-1511.28 1642.27,-1512.59 1637.89,-1513.82 1633.44,-1514.99 1628.91,-1516.07 1624.32,-1517.08 1619.69,-1518 1615.01,-1518.84 1610.29,-1519.59 1605.54,-1520.25 1600.77,-1520.82 1595.98,-1521.3 1591.17,-1521.68 1586.35,-1521.97 1581.52,-1522.16 1576.69,-1522.26 1571.86,-1522.26 1567.03,-1522.16 1562.2,-1521.97 1557.38,-1521.68 1552.57,-1521.3 1547.78,-1520.82 1543.01,-1520.25 1538.26,-1519.59 1533.55,-1518.84 1528.87,-1518 1524.23,-1517.08 1519.64,-1516.07 1515.12,-1514.99 1510.66,-1513.82 1506.28,-1512.59 1501.99,-1511.28 1497.8,-1509.91 1493.73,-1508.48 1489.78,-1506.99 1485.98,-1505.44 1482.33,-1503.84 1478.85,-1502.2 1475.56,-1500.51 1472.47,-1498.79 1469.6,-1497.03 1466.96,-1495.25 1464.57,-1493.45 1462.45,-1491.62 1460.61,-1489.79 1459.07,-1487.94 1457.84,-1486.1 1456.93,-1484.26 1456.36,-1482.42 1456.13,-1480.6 1456.27,-1478.79 1456.77,-1477.01 1457.65,-1475.26 1458.91,-1473.53 1460.55,-1471.85 1462.58,-1470.2 1465,-1468.6 1467.8,-1467.06 1470.98,-1465.56 1474.54,-1464.13 1478.47,-1462.76 1482.76,-1461.45 1487.4,-1460.22 1492.37,-1459.06 1497.66,-1457.97 1503.25,-1456.97 1509.12,-1456.05 1515.25,-1455.21 1521.61,-1454.46 1528.19,-1453.8 1534.96,-1453.23 1541.88,-1452.75 1548.94,-1452.36 1556.11,-1452.08 1563.34,-1451.88 1570.63,-1451.79 1577.93,-1451.79 1585.21,-1451.88"/>
<text text-anchor="start" x="1545.11" y="-1496.82" font-family="Times,serif" font-size="14.00">C0314627</text>
<text text-anchor="start" x="1503.71" y="-1482.82" font-family="Times,serif" font-size="14.00">Directing traffic on DNA</text>
<text text-anchor="start" x="1565.33" y="-1468.82" font-family="Times,serif" font-size="14.00">0:3</text>
</g>
<!-- id_28129043_DOT_6 -->
<g id="node6" class="node">
<title>id_28129043_DOT_6</title>
<polygon fill="brown" stroke="brown" points="1192.15,-1571.86 1196.09,-1572.05 1200,-1572.34 1203.85,-1572.73 1207.62,-1573.2 1211.31,-1573.77 1214.89,-1574.43 1218.36,-1575.19 1221.71,-1576.02 1224.9,-1576.95 1227.95,-1577.95 1230.83,-1579.04 1233.54,-1580.2 1236.07,-1581.43 1238.41,-1582.74 1240.55,-1584.11 1242.49,-1585.54 1244.23,-1587.03 1245.75,-1588.58 1247.07,-1590.18 1248.18,-1591.82 1249.07,-1593.51 1249.76,-1595.23 1250.23,-1596.99 1250.51,-1598.77 1250.58,-1600.58 1250.46,-1602.4 1250.15,-1604.23 1249.65,-1606.08 1248.98,-1607.92 1248.14,-1609.76 1247.14,-1611.6 1245.98,-1613.42 1244.68,-1615.23 1243.24,-1617.01 1241.68,-1618.77 1239.99,-1620.49 1238.2,-1622.17 1236.3,-1623.82 1234.32,-1625.42 1232.24,-1626.96 1230.09,-1628.46 1227.87,-1629.89 1225.59,-1631.26 1223.25,-1632.57 1220.86,-1633.8 1218.43,-1634.96 1215.97,-1636.05 1213.47,-1637.05 1210.94,-1637.98 1208.39,-1638.81 1205.82,-1639.56 1203.23,-1640.23 1200.63,-1640.8 1198.02,-1641.27 1195.4,-1641.66 1192.77,-1641.95 1190.14,-1642.14 1187.51,-1642.23 1184.87,-1642.23 1182.24,-1642.14 1179.61,-1641.95 1176.98,-1641.66 1174.36,-1641.27 1171.75,-1640.8 1169.15,-1640.23 1166.56,-1639.56 1163.99,-1638.81 1161.44,-1637.98 1158.91,-1637.05 1156.41,-1636.05 1153.95,-1634.96 1151.52,-1633.8 1149.13,-1632.57 1146.79,-1631.26 1144.51,-1629.89 1142.29,-1628.46 1140.14,-1626.96 1138.06,-1625.42 1136.08,-1623.82 1134.18,-1622.17 1132.39,-1620.49 1130.7,-1618.77 1129.14,-1617.01 1127.7,-1615.23 1126.4,-1613.42 1125.24,-1611.6 1124.24,-1609.76 1123.4,-1607.92 1122.73,-1606.08 1122.23,-1604.23 1121.92,-1602.4 1121.8,-1600.58 1121.87,-1598.77 1122.15,-1596.99 1122.62,-1595.23 1123.31,-1593.51 1124.2,-1591.82 1125.31,-1590.18 1126.63,-1588.58 1128.16,-1587.03 1129.89,-1585.54 1131.83,-1584.11 1133.97,-1582.74 1136.31,-1581.43 1138.84,-1580.2 1141.55,-1579.04 1144.43,-1577.95 1147.48,-1576.95 1150.68,-1576.02 1154.02,-1575.19 1157.49,-1574.43 1161.07,-1573.77 1164.76,-1573.2 1168.53,-1572.73 1172.38,-1572.34 1176.29,-1572.05 1180.23,-1571.86 1184.2,-1571.76 1188.18,-1571.76 1192.15,-1571.86"/>
<text text-anchor="start" x="1157.02" y="-1616.8" font-family="Times,serif" font-size="14.00">C0017263</text>
<text text-anchor="start" x="1151.4" y="-1602.8" font-family="Times,serif" font-size="14.00">gene control</text>
<text text-anchor="start" x="1170.25" y="-1588.8" font-family="Times,serif" font-size="14.00">23:24</text>
</g>
<!-- id_28129043_DOT_1&#45;&#45;id_28129043_DOT_6 -->
<g id="edge5" class="edge">
<title>id_28129043_DOT_1&#45;&#45;id_28129043_DOT_6</title>
<path fill="none" stroke="black" stroke-dasharray="1,5" d="M1498.53,-1510.44C1424.63,-1533.28 1313.72,-1567.57 1245.87,-1588.55"/>
<text text-anchor="middle" x="1345.95" y="-1552.29" font-family="Times,serif" font-size="14.00">0.926564</text>
</g>
<!-- id_28129043_DOT_7 -->
<g id="node7" class="node">
<title>id_28129043_DOT_7</title>
<polygon fill="cadetblue" stroke="cadetblue" points="1676.83,-1057.31 1680.82,-1057.5 1684.78,-1057.79 1688.67,-1058.18 1692.49,-1058.65 1696.22,-1059.22 1699.85,-1059.89 1703.36,-1060.64 1706.74,-1061.47 1709.98,-1062.4 1713.06,-1063.4 1715.98,-1064.49 1718.72,-1065.65 1721.28,-1066.88 1723.64,-1068.19 1725.81,-1069.56 1727.78,-1070.99 1729.53,-1072.49 1731.08,-1074.03 1732.41,-1075.63 1733.53,-1077.28 1734.44,-1078.96 1735.13,-1080.68 1735.61,-1082.44 1735.89,-1084.22 1735.97,-1086.03 1735.84,-1087.85 1735.53,-1089.68 1735.03,-1091.53 1734.35,-1093.37 1733.5,-1095.22 1732.48,-1097.05 1731.31,-1098.87 1729.99,-1100.68 1728.54,-1102.46 1726.96,-1104.22 1725.25,-1105.94 1723.44,-1107.62 1721.52,-1109.27 1719.5,-1110.87 1717.41,-1112.41 1715.23,-1113.91 1712.98,-1115.34 1710.67,-1116.71 1708.31,-1118.02 1705.89,-1119.25 1703.43,-1120.41 1700.94,-1121.5 1698.41,-1122.5 1695.85,-1123.43 1693.27,-1124.26 1690.67,-1125.01 1688.05,-1125.68 1685.42,-1126.25 1682.77,-1126.72 1680.12,-1127.11 1677.46,-1127.4 1674.8,-1127.59 1672.14,-1127.69 1669.47,-1127.69 1666.8,-1127.59 1664.14,-1127.4 1661.48,-1127.11 1658.83,-1126.72 1656.19,-1126.25 1653.56,-1125.68 1650.94,-1125.01 1648.34,-1124.26 1645.76,-1123.43 1643.2,-1122.5 1640.67,-1121.5 1638.17,-1120.41 1635.71,-1119.25 1633.3,-1118.02 1630.93,-1116.71 1628.62,-1115.34 1626.38,-1113.91 1624.2,-1112.41 1622.1,-1110.87 1620.09,-1109.27 1618.17,-1107.62 1616.35,-1105.94 1614.65,-1104.22 1613.06,-1102.46 1611.61,-1100.68 1610.29,-1098.87 1609.12,-1097.05 1608.11,-1095.22 1607.26,-1093.37 1606.58,-1091.53 1606.08,-1089.68 1605.76,-1087.85 1605.64,-1086.03 1605.71,-1084.22 1605.99,-1082.44 1606.47,-1080.68 1607.17,-1078.96 1608.07,-1077.28 1609.19,-1075.63 1610.53,-1074.03 1612.07,-1072.49 1613.83,-1070.99 1615.79,-1069.56 1617.96,-1068.19 1620.33,-1066.88 1622.88,-1065.65 1625.63,-1064.49 1628.54,-1063.4 1631.62,-1062.4 1634.86,-1061.47 1638.24,-1060.64 1641.75,-1059.89 1645.38,-1059.22 1649.11,-1058.65 1652.93,-1058.18 1656.83,-1057.79 1660.78,-1057.5 1664.77,-1057.31 1668.79,-1057.21 1672.81,-1057.21 1676.83,-1057.31"/>
<text text-anchor="start" x="1641.63" y="-1102.25" font-family="Times,serif" font-size="14.00">C0040649</text>
<text text-anchor="start" x="1635.42" y="-1088.25" font-family="Times,serif" font-size="14.00">transcription</text>
<text text-anchor="start" x="1654.86" y="-1074.25" font-family="Times,serif" font-size="14.00">32:32</text>
</g>
<!-- id_28129043_DOT_1&#45;&#45;id_28129043_DOT_7 -->
<g id="edge6" class="edge">
<title>id_28129043_DOT_1&#45;&#45;id_28129043_DOT_7</title>
<path fill="none" stroke="black" stroke-dasharray="1,5" d="M1582.93,-1451.66C1601.3,-1376.56 1644.01,-1201.96 1662.27,-1127.31"/>
<text text-anchor="middle" x="1596.35" y="-1292.28" font-family="Times,serif" font-size="14.00">0.930046</text>
</g>
<!-- id_28129043_DOT_8 -->
<g id="node8" class="node">
<title>id_28129043_DOT_8</title>
<polygon fill="chartreuse" stroke="chartreuse" points="1876.25,-1732.13 1879.67,-1732.32 1883.07,-1732.61 1886.41,-1733 1889.69,-1733.47 1892.9,-1734.04 1896.01,-1734.71 1899.03,-1735.46 1901.93,-1736.29 1904.71,-1737.22 1907.36,-1738.22 1909.86,-1739.31 1912.22,-1740.47 1914.41,-1741.7 1916.44,-1743.01 1918.31,-1744.38 1919.99,-1745.81 1921.5,-1747.31 1922.83,-1748.85 1923.97,-1750.45 1924.93,-1752.1 1925.71,-1753.78 1926.31,-1755.5 1926.72,-1757.26 1926.96,-1759.04 1927.02,-1760.85 1926.92,-1762.67 1926.65,-1764.5 1926.22,-1766.35 1925.63,-1768.19 1924.9,-1770.04 1924.03,-1771.87 1923.03,-1773.69 1921.9,-1775.5 1920.65,-1777.28 1919.29,-1779.04 1917.82,-1780.76 1916.27,-1782.44 1914.62,-1784.09 1912.89,-1785.69 1911.09,-1787.23 1909.22,-1788.73 1907.29,-1790.16 1905.31,-1791.53 1903.27,-1792.84 1901.2,-1794.07 1899.09,-1795.23 1896.94,-1796.32 1894.77,-1797.32 1892.58,-1798.25 1890.36,-1799.08 1888.13,-1799.83 1885.88,-1800.5 1883.62,-1801.07 1881.35,-1801.54 1879.07,-1801.93 1876.79,-1802.22 1874.5,-1802.41 1872.21,-1802.51 1869.92,-1802.51 1867.64,-1802.41 1865.35,-1802.22 1863.07,-1801.93 1860.79,-1801.54 1858.52,-1801.07 1856.26,-1800.5 1854.01,-1799.83 1851.78,-1799.08 1849.56,-1798.25 1847.36,-1797.32 1845.19,-1796.32 1843.05,-1795.23 1840.94,-1794.07 1838.86,-1792.84 1836.83,-1791.53 1834.85,-1790.16 1832.92,-1788.73 1831.05,-1787.23 1829.25,-1785.69 1827.52,-1784.09 1825.87,-1782.44 1824.31,-1780.76 1822.85,-1779.04 1821.49,-1777.28 1820.24,-1775.5 1819.11,-1773.69 1818.1,-1771.87 1817.23,-1770.04 1816.5,-1768.19 1815.92,-1766.35 1815.49,-1764.5 1815.22,-1762.67 1815.11,-1760.85 1815.18,-1759.04 1815.41,-1757.26 1815.83,-1755.5 1816.43,-1753.78 1817.2,-1752.1 1818.16,-1750.45 1819.31,-1748.85 1820.64,-1747.31 1822.14,-1745.81 1823.83,-1744.38 1825.69,-1743.01 1827.72,-1741.7 1829.92,-1740.47 1832.27,-1739.31 1834.78,-1738.22 1837.43,-1737.22 1840.21,-1736.29 1843.11,-1735.46 1846.12,-1734.71 1849.24,-1734.04 1852.44,-1733.47 1855.73,-1733 1859.07,-1732.61 1862.46,-1732.32 1865.89,-1732.13 1869.34,-1732.03 1872.8,-1732.03 1876.25,-1732.13"/>
<text text-anchor="start" x="1841.9" y="-1777.07" font-family="Times,serif" font-size="14.00">C0079249</text>
<text text-anchor="start" x="1845.41" y="-1763.07" font-family="Times,serif" font-size="14.00">antisense</text>
<text text-anchor="start" x="1855.12" y="-1749.07" font-family="Times,serif" font-size="14.00">37:37</text>
</g>
<!-- id_28129043_DOT_1&#45;&#45;id_28129043_DOT_8 -->
<g id="edge7" class="edge">
<title>id_28129043_DOT_1&#45;&#45;id_28129043_DOT_8</title>
<path fill="none" stroke="black" stroke-dasharray="1,5" d="M1609.19,-1519.99C1667.12,-1574.69 1782.25,-1683.4 1838.55,-1736.56"/>
<text text-anchor="middle" x="1697.62" y="-1631.08" font-family="Times,serif" font-size="14.00">0.762886</text>
</g>
<!-- id_28129043_DOT_2 -->
<g id="node2" class="node">
<title>id_28129043_DOT_2</title>
<polygon fill="bisque" stroke="bisque" points="1777.42,-689.68 1783.35,-689.87 1789.22,-690.16 1795,-690.55 1800.68,-691.02 1806.22,-691.6 1811.61,-692.26 1816.83,-693.01 1821.85,-693.84 1826.66,-694.77 1831.24,-695.77 1835.57,-696.86 1839.64,-698.02 1843.44,-699.25 1846.96,-700.56 1850.18,-701.93 1853.1,-703.36 1855.7,-704.86 1858,-706.4 1859.98,-708 1861.64,-709.65 1862.99,-711.33 1864.02,-713.06 1864.74,-714.81 1865.15,-716.59 1865.26,-718.4 1865.08,-720.22 1864.61,-722.06 1863.87,-723.9 1862.86,-725.74 1861.59,-727.59 1860.08,-729.42 1858.35,-731.24 1856.39,-733.05 1854.23,-734.83 1851.88,-736.59 1849.35,-738.31 1846.65,-740 1843.8,-741.64 1840.81,-743.24 1837.69,-744.79 1834.46,-746.28 1831.12,-747.71 1827.69,-749.08 1824.17,-750.39 1820.59,-751.62 1816.93,-752.78 1813.22,-753.87 1809.47,-754.87 1805.67,-755.8 1801.83,-756.63 1797.97,-757.39 1794.08,-758.05 1790.17,-758.62 1786.24,-759.09 1782.3,-759.48 1778.36,-759.77 1774.4,-759.96 1770.44,-760.06 1766.48,-760.06 1762.52,-759.96 1758.57,-759.77 1754.62,-759.48 1750.68,-759.09 1746.75,-758.62 1742.84,-758.05 1738.96,-757.39 1735.09,-756.63 1731.26,-755.8 1727.46,-754.87 1723.7,-753.87 1719.99,-752.78 1716.34,-751.62 1712.75,-750.39 1709.24,-749.08 1705.8,-747.71 1702.47,-746.28 1699.23,-744.79 1696.12,-743.24 1693.13,-741.64 1690.28,-740 1687.58,-738.31 1685.05,-736.59 1682.69,-734.83 1680.53,-733.05 1678.58,-731.24 1676.84,-729.42 1675.33,-727.59 1674.07,-725.74 1673.06,-723.9 1672.31,-722.06 1671.85,-720.22 1671.66,-718.4 1671.77,-716.59 1672.19,-714.81 1672.9,-713.06 1673.93,-711.33 1675.28,-709.65 1676.94,-708 1678.92,-706.4 1681.22,-704.86 1683.83,-703.36 1686.75,-701.93 1689.97,-700.56 1693.48,-699.25 1697.28,-698.02 1701.35,-696.86 1705.69,-695.77 1710.26,-694.77 1715.07,-693.84 1720.1,-693.01 1725.31,-692.26 1730.7,-691.6 1736.25,-691.02 1741.92,-690.55 1747.7,-690.16 1753.57,-689.87 1759.5,-689.68 1765.47,-689.59 1771.45,-689.59 1777.42,-689.68"/>
<text text-anchor="start" x="1739.29" y="-734.62" font-family="Times,serif" font-size="14.00">C0040648</text>
<text text-anchor="start" x="1712.29" y="-720.62" font-family="Times,serif" font-size="14.00">transcription factors</text>
<text text-anchor="start" x="1759.52" y="-706.62" font-family="Times,serif" font-size="14.00">6:7</text>
</g>
<!-- id_28129043_DOT_2&#45;&#45;id_28129043_DOT_7 -->
<g id="edge8" class="edge">
<title>id_28129043_DOT_2&#45;&#45;id_28129043_DOT_7</title>
<path fill="none" stroke="black" stroke-dasharray="1,5" d="M1759.1,-760.07C1740.43,-830.34 1698.78,-987.13 1680.14,-1057.31"/>
<text text-anchor="middle" x="1693.37" y="-911.49" font-family="Times,serif" font-size="14.00">0.766967</text>
</g>
<!-- id_28129043_DOT_11 -->
<g id="node11" class="node">
<title>id_28129043_DOT_11</title>
<polygon fill="bisque" stroke="bisque" points="1883.92,-334.72 1889.59,-334.92 1895.2,-335.2 1900.74,-335.59 1906.17,-336.07 1911.47,-336.64 1916.62,-337.3 1921.61,-338.05 1926.42,-338.89 1931.02,-339.81 1935.4,-340.81 1939.54,-341.9 1943.44,-343.06 1947.07,-344.29 1950.43,-345.6 1953.51,-346.97 1956.31,-348.4 1958.8,-349.9 1961,-351.45 1962.89,-353.04 1964.48,-354.69 1965.77,-356.37 1966.76,-358.1 1967.44,-359.85 1967.84,-361.63 1967.94,-363.44 1967.77,-365.26 1967.32,-367.1 1966.61,-368.94 1965.64,-370.78 1964.43,-372.63 1962.99,-374.46 1961.33,-376.29 1959.46,-378.09 1957.39,-379.87 1955.14,-381.63 1952.72,-383.35 1950.14,-385.04 1947.41,-386.68 1944.55,-388.28 1941.57,-389.83 1938.48,-391.32 1935.28,-392.75 1932,-394.12 1928.64,-395.43 1925.21,-396.66 1921.71,-397.83 1918.17,-398.91 1914.57,-399.92 1910.94,-400.84 1907.27,-401.68 1903.57,-402.43 1899.85,-403.09 1896.11,-403.66 1892.36,-404.14 1888.59,-404.52 1884.81,-404.81 1881.03,-405 1877.24,-405.1 1873.45,-405.1 1869.67,-405 1865.88,-404.81 1862.11,-404.52 1858.34,-404.14 1854.58,-403.66 1850.84,-403.09 1847.12,-402.43 1843.43,-401.68 1839.76,-400.84 1836.12,-399.92 1832.53,-398.91 1828.98,-397.83 1825.49,-396.66 1822.06,-395.43 1818.7,-394.12 1815.41,-392.75 1812.22,-391.32 1809.13,-389.83 1806.15,-388.28 1803.29,-386.68 1800.56,-385.04 1797.98,-383.35 1795.56,-381.63 1793.31,-379.87 1791.24,-378.09 1789.37,-376.29 1787.71,-374.46 1786.27,-372.63 1785.06,-370.78 1784.09,-368.94 1783.38,-367.1 1782.93,-365.26 1782.75,-363.44 1782.86,-361.63 1783.25,-359.85 1783.94,-358.1 1784.93,-356.37 1786.22,-354.69 1787.81,-353.04 1789.7,-351.45 1791.9,-349.9 1794.39,-348.4 1797.18,-346.97 1800.26,-345.6 1803.63,-344.29 1807.26,-343.06 1811.15,-341.9 1815.3,-340.81 1819.68,-339.81 1824.28,-338.89 1829.08,-338.05 1834.07,-337.3 1839.23,-336.64 1844.53,-336.07 1849.96,-335.59 1855.49,-335.2 1861.11,-334.92 1866.78,-334.72 1872.49,-334.63 1878.21,-334.63 1883.92,-334.72"/>
<text text-anchor="start" x="1846.18" y="-379.66" font-family="Times,serif" font-size="14.00">C0040648</text>
<text text-anchor="start" x="1821.9" y="-365.66" font-family="Times,serif" font-size="14.00">transcription factor</text>
<text text-anchor="start" x="1859.4" y="-351.66" font-family="Times,serif" font-size="14.00">60:61</text>
</g>
<!-- id_28129043_DOT_2&#45;&#45;id_28129043_DOT_11 -->
<g id="edge1" class="edge">
<title>id_28129043_DOT_2&#45;&#45;id_28129043_DOT_11</title>
<path fill="none" stroke="black" d="M1779.1,-689.49C1799.62,-621.36 1844.41,-472.59 1864.83,-404.79"/>
<text text-anchor="middle" x="1795.72" y="-549.94" font-family="Times,serif" font-size="14.00">0.001412</text>
</g>
<!-- id_28129043_DOT_3 -->
<g id="node3" class="node">
<title>id_28129043_DOT_3</title>
<polygon fill="blue" stroke="blue" points="137.55,-1919.03 145.25,-1919.22 152.88,-1919.51 160.4,-1919.9 167.77,-1920.37 174.98,-1920.94 181.99,-1921.61 188.76,-1922.36 195.29,-1923.19 201.54,-1924.12 207.49,-1925.12 213.12,-1926.21 218.42,-1927.37 223.35,-1928.6 227.92,-1929.91 232.11,-1931.28 235.9,-1932.71 239.29,-1934.21 242.27,-1935.75 244.85,-1937.35 247.01,-1939 248.76,-1940.68 250.1,-1942.4 251.03,-1944.16 251.57,-1945.94 251.71,-1947.75 251.47,-1949.57 250.86,-1951.41 249.9,-1953.25 248.58,-1955.09 246.94,-1956.94 244.98,-1958.77 242.72,-1960.59 240.18,-1962.4 237.37,-1964.18 234.32,-1965.94 231.03,-1967.66 227.52,-1969.34 223.82,-1970.99 219.93,-1972.59 215.88,-1974.13 211.68,-1975.63 207.34,-1977.06 202.88,-1978.43 198.31,-1979.74 193.65,-1980.97 188.9,-1982.13 184.08,-1983.22 179.2,-1984.22 174.26,-1985.15 169.28,-1985.98 164.25,-1986.73 159.2,-1987.4 154.12,-1987.97 149.01,-1988.44 143.89,-1988.83 138.76,-1989.12 133.62,-1989.31 128.48,-1989.41 123.33,-1989.41 118.18,-1989.31 113.04,-1989.12 107.91,-1988.83 102.79,-1988.44 97.69,-1987.97 92.61,-1987.4 87.55,-1986.73 82.53,-1985.98 77.55,-1985.15 72.61,-1984.22 67.73,-1983.22 62.91,-1982.13 58.16,-1980.97 53.5,-1979.74 48.93,-1978.43 44.47,-1977.06 40.13,-1975.63 35.93,-1974.13 31.88,-1972.59 27.99,-1970.99 24.29,-1969.34 20.78,-1967.66 17.49,-1965.94 14.43,-1964.18 11.63,-1962.4 9.08,-1960.59 6.82,-1958.77 4.87,-1956.94 3.22,-1955.09 1.91,-1953.25 0.94,-1951.41 0.33,-1949.57 0.1,-1947.75 0.24,-1945.94 0.78,-1944.16 1.71,-1942.4 3.05,-1940.68 4.8,-1939 6.96,-1937.35 9.53,-1935.75 12.52,-1934.21 15.91,-1932.71 19.7,-1931.28 23.89,-1929.91 28.45,-1928.6 33.39,-1927.37 38.68,-1926.21 44.31,-1925.12 50.27,-1924.12 56.52,-1923.19 63.04,-1922.36 69.82,-1921.61 76.83,-1920.94 84.03,-1920.37 91.41,-1919.9 98.93,-1919.51 106.55,-1919.22 114.26,-1919.03 122.02,-1918.94 129.79,-1918.94 137.55,-1919.03"/>
<text text-anchor="start" x="96.73" y="-1963.97" font-family="Times,serif" font-size="14.00">C0598496</text>
<text text-anchor="start" x="50.3" y="-1949.97" font-family="Times,serif" font-size="14.00">transcriptional interference</text>
<text text-anchor="start" x="110.22" y="-1935.97" font-family="Times,serif" font-size="14.00">11:12</text>
</g>
<!-- id_28129043_DOT_4 -->
<g id="node4" class="node">
<title>id_28129043_DOT_4</title>
<polygon fill="blue" stroke="blue" points="491.05,-1824.75 498.96,-1824.94 506.79,-1825.23 514.5,-1825.61 522.07,-1826.09 529.46,-1826.66 536.65,-1827.32 543.61,-1828.07 550.31,-1828.91 556.72,-1829.83 562.83,-1830.84 568.61,-1831.92 574.04,-1833.08 579.1,-1834.32 583.79,-1835.62 588.08,-1836.99 591.98,-1838.43 595.46,-1839.92 598.52,-1841.47 601.16,-1843.07 603.38,-1844.71 605.17,-1846.4 606.55,-1848.12 607.5,-1849.87 608.05,-1851.66 608.2,-1853.46 607.96,-1855.28 607.33,-1857.12 606.34,-1858.96 604.99,-1860.81 603.31,-1862.65 601.3,-1864.49 598.98,-1866.31 596.37,-1868.11 593.49,-1869.9 590.35,-1871.65 586.97,-1873.37 583.38,-1875.06 579.58,-1876.7 575.59,-1878.3 571.43,-1879.85 567.12,-1881.34 562.67,-1882.78 558.09,-1884.15 553.4,-1885.45 548.62,-1886.69 543.75,-1887.85 538.8,-1888.93 533.79,-1889.94 528.72,-1890.86 523.61,-1891.7 518.46,-1892.45 513.27,-1893.11 508.05,-1893.68 502.82,-1894.16 497.56,-1894.54 492.3,-1894.83 487.02,-1895.02 481.74,-1895.12 476.46,-1895.12 471.18,-1895.02 465.91,-1894.83 460.64,-1894.54 455.39,-1894.16 450.15,-1893.68 444.94,-1893.11 439.75,-1892.45 434.6,-1891.7 429.48,-1890.86 424.42,-1889.94 419.4,-1888.93 414.46,-1887.85 409.59,-1886.69 404.8,-1885.45 400.12,-1884.15 395.54,-1882.78 391.09,-1881.34 386.78,-1879.85 382.62,-1878.3 378.63,-1876.7 374.83,-1875.06 371.23,-1873.37 367.86,-1871.65 364.72,-1869.9 361.84,-1868.11 359.23,-1866.31 356.91,-1864.49 354.9,-1862.65 353.21,-1860.81 351.87,-1858.96 350.87,-1857.12 350.25,-1855.28 350.01,-1853.46 350.15,-1851.66 350.7,-1849.87 351.66,-1848.12 353.04,-1846.4 354.83,-1844.71 357.05,-1843.07 359.69,-1841.47 362.75,-1839.92 366.23,-1838.43 370.12,-1836.99 374.42,-1835.62 379.1,-1834.32 384.17,-1833.08 389.6,-1831.92 395.38,-1830.84 401.49,-1829.83 407.9,-1828.91 414.6,-1828.07 421.56,-1827.32 428.74,-1826.66 436.14,-1826.09 443.71,-1825.61 451.42,-1825.23 459.25,-1824.94 467.16,-1824.75 475.12,-1824.65 483.09,-1824.65 491.05,-1824.75"/>
<text text-anchor="start" x="449.93" y="-1869.68" font-family="Times,serif" font-size="14.00">C0598496</text>
<text text-anchor="start" x="401.42" y="-1855.68" font-family="Times,serif" font-size="14.00">Transcriptional interference</text>
<text text-anchor="start" x="463.16" y="-1841.68" font-family="Times,serif" font-size="14.00">13:14</text>
</g>
<!-- id_28129043_DOT_3&#45;&#45;id_28129043_DOT_4 -->
<g id="edge2" class="edge">
<title>id_28129043_DOT_3&#45;&#45;id_28129043_DOT_4</title>
<path fill="none" stroke="black" d="M222.88,-1928.28C276.59,-1913.94 342.73,-1896.29 394.36,-1882.51"/>
<text text-anchor="middle" x="282.37" y="-1908.19" font-family="Times,serif" font-size="14.00">0.001965</text>
</g>
<!-- id_28129043_DOT_12 -->
<g id="node12" class="node">
<title>id_28129043_DOT_12</title>
<polygon fill="blue" stroke="blue" points="837.86,-1693.65 845.77,-1693.84 853.59,-1694.13 861.31,-1694.51 868.88,-1694.99 876.27,-1695.56 883.46,-1696.22 890.41,-1696.97 897.11,-1697.81 903.53,-1698.73 909.63,-1699.74 915.41,-1700.82 920.84,-1701.98 925.91,-1703.22 930.6,-1704.52 934.89,-1705.89 938.78,-1707.33 942.26,-1708.82 945.32,-1710.37 947.96,-1711.97 950.18,-1713.61 951.98,-1715.3 953.35,-1717.02 954.31,-1718.78 954.86,-1720.56 955.01,-1722.36 954.76,-1724.19 954.14,-1726.02 953.15,-1727.86 951.8,-1729.71 950.11,-1731.55 948.1,-1733.39 945.79,-1735.21 943.18,-1737.01 940.29,-1738.8 937.16,-1740.55 933.78,-1742.27 930.18,-1743.96 926.38,-1745.6 922.4,-1747.2 918.24,-1748.75 913.93,-1750.24 909.47,-1751.68 904.9,-1753.05 900.21,-1754.35 895.43,-1755.59 890.55,-1756.75 885.61,-1757.83 880.6,-1758.84 875.53,-1759.76 870.42,-1760.6 865.26,-1761.35 860.07,-1762.01 854.86,-1762.58 849.62,-1763.06 844.37,-1763.44 839.11,-1763.73 833.83,-1763.93 828.55,-1764.02 823.27,-1764.02 817.99,-1763.93 812.71,-1763.73 807.45,-1763.44 802.2,-1763.06 796.96,-1762.58 791.74,-1762.01 786.56,-1761.35 781.4,-1760.6 776.29,-1759.76 771.22,-1758.84 766.21,-1757.83 761.26,-1756.75 756.39,-1755.59 751.61,-1754.35 746.92,-1753.05 742.35,-1751.68 737.89,-1750.24 733.58,-1748.75 729.42,-1747.2 725.44,-1745.6 721.64,-1743.96 718.04,-1742.27 714.66,-1740.55 711.52,-1738.8 708.64,-1737.01 706.03,-1735.21 703.72,-1733.39 701.71,-1731.55 700.02,-1729.71 698.67,-1727.86 697.68,-1726.02 697.06,-1724.19 696.81,-1722.36 696.96,-1720.56 697.51,-1718.78 698.47,-1717.02 699.84,-1715.3 701.64,-1713.61 703.85,-1711.97 706.5,-1710.37 709.56,-1708.82 713.04,-1707.33 716.93,-1705.89 721.22,-1704.52 725.91,-1703.22 730.98,-1701.98 736.41,-1700.82 742.19,-1699.74 748.29,-1698.73 754.71,-1697.81 761.4,-1696.97 768.36,-1696.22 775.55,-1695.56 782.94,-1694.99 790.51,-1694.51 798.23,-1694.13 806.05,-1693.84 813.96,-1693.65 821.92,-1693.55 829.9,-1693.55 837.86,-1693.65"/>
<text text-anchor="start" x="796.74" y="-1738.59" font-family="Times,serif" font-size="14.00">C0598496</text>
<text text-anchor="start" x="748.22" y="-1724.59" font-family="Times,serif" font-size="14.00">Transcriptional interference</text>
<text text-anchor="start" x="809.96" y="-1710.59" font-family="Times,serif" font-size="14.00">66:67</text>
</g>
<!-- id_28129043_DOT_4&#45;&#45;id_28129043_DOT_12 -->
<g id="edge3" class="edge">
<title>id_28129043_DOT_4&#45;&#45;id_28129043_DOT_12</title>
<path fill="none" stroke="black" d="M558.23,-1829.97C617.61,-1807.53 698.17,-1777.07 755.36,-1755.46"/>
<text text-anchor="middle" x="630.55" y="-1795.51" font-family="Times,serif" font-size="14.00">0.002601</text>
</g>
<!-- id_28129043_DOT_5 -->
<g id="node5" class="node">
<title>id_28129043_DOT_5</title>
<polygon fill="blueviolet" stroke="blueviolet" points="2425.38,-2246.26 2429.06,-2246.45 2432.7,-2246.74 2436.3,-2247.12 2439.82,-2247.6 2443.26,-2248.17 2446.61,-2248.83 2449.85,-2249.58 2452.97,-2250.42 2455.95,-2251.34 2458.8,-2252.35 2461.49,-2253.43 2464.02,-2254.59 2466.38,-2255.83 2468.56,-2257.13 2470.56,-2258.5 2472.37,-2259.94 2473.99,-2261.43 2475.42,-2262.98 2476.65,-2264.58 2477.68,-2266.22 2478.51,-2267.91 2479.15,-2269.63 2479.6,-2271.38 2479.86,-2273.17 2479.92,-2274.97 2479.81,-2276.79 2479.52,-2278.63 2479.06,-2280.47 2478.43,-2282.32 2477.65,-2284.16 2476.71,-2285.99 2475.63,-2287.82 2474.42,-2289.62 2473.07,-2291.4 2471.61,-2293.16 2470.04,-2294.88 2468.37,-2296.57 2466.6,-2298.21 2464.74,-2299.81 2462.8,-2301.36 2460.8,-2302.85 2458.72,-2304.29 2456.59,-2305.66 2454.41,-2306.96 2452.18,-2308.2 2449.91,-2309.36 2447.61,-2310.44 2445.28,-2311.45 2442.92,-2312.37 2440.54,-2313.21 2438.14,-2313.96 2435.72,-2314.62 2433.29,-2315.19 2430.86,-2315.67 2428.41,-2316.05 2425.96,-2316.34 2423.5,-2316.53 2421.04,-2316.63 2418.58,-2316.63 2416.13,-2316.53 2413.67,-2316.34 2411.22,-2316.05 2408.77,-2315.67 2406.33,-2315.19 2403.91,-2314.62 2401.49,-2313.96 2399.09,-2313.21 2396.71,-2312.37 2394.35,-2311.45 2392.02,-2310.44 2389.71,-2309.36 2387.45,-2308.2 2385.22,-2306.96 2383.04,-2305.66 2380.91,-2304.29 2378.83,-2302.85 2376.82,-2301.36 2374.89,-2299.81 2373.03,-2298.21 2371.26,-2296.57 2369.59,-2294.88 2368.02,-2293.16 2366.55,-2291.4 2365.21,-2289.62 2364,-2287.82 2362.92,-2285.99 2361.98,-2284.16 2361.2,-2282.32 2360.57,-2280.47 2360.11,-2278.63 2359.82,-2276.79 2359.7,-2274.97 2359.77,-2273.17 2360.03,-2271.38 2360.47,-2269.63 2361.11,-2267.91 2361.95,-2266.22 2362.98,-2264.58 2364.21,-2262.98 2365.64,-2261.43 2367.26,-2259.94 2369.07,-2258.5 2371.07,-2257.13 2373.25,-2255.83 2375.61,-2254.59 2378.14,-2253.43 2380.83,-2252.35 2383.67,-2251.34 2386.66,-2250.42 2389.78,-2249.58 2393.02,-2248.83 2396.37,-2248.17 2399.81,-2247.6 2403.33,-2247.12 2406.92,-2246.74 2410.57,-2246.45 2414.25,-2246.26 2417.96,-2246.16 2421.67,-2246.16 2425.38,-2246.26"/>
<text text-anchor="start" x="2390.65" y="-2291.19" font-family="Times,serif" font-size="14.00">C0205391</text>
<text text-anchor="start" x="2387.94" y="-2277.19" font-family="Times,serif" font-size="14.00">widespread</text>
<text text-anchor="start" x="2403.87" y="-2263.19" font-family="Times,serif" font-size="14.00">20:20</text>
</g>
<!-- id_28129043_DOT_9 -->
<g id="node9" class="node">
<title>id_28129043_DOT_9</title>
<polygon fill="coral" stroke="coral" points="2153.79,-1993.77 2157.21,-1993.96 2160.58,-1994.25 2163.91,-1994.63 2167.17,-1995.11 2170.36,-1995.68 2173.46,-1996.34 2176.46,-1997.09 2179.35,-1997.93 2182.12,-1998.85 2184.75,-1999.86 2187.25,-2000.94 2189.59,-2002.1 2191.77,-2003.34 2193.8,-2004.64 2195.65,-2006.01 2197.33,-2007.45 2198.83,-2008.94 2200.15,-2010.49 2201.29,-2012.09 2202.24,-2013.73 2203.02,-2015.42 2203.61,-2017.14 2204.02,-2018.89 2204.26,-2020.68 2204.33,-2022.48 2204.22,-2024.3 2203.95,-2026.14 2203.52,-2027.98 2202.94,-2029.83 2202.21,-2031.67 2201.35,-2033.51 2200.35,-2035.33 2199.22,-2037.13 2197.98,-2038.92 2196.63,-2040.67 2195.17,-2042.39 2193.62,-2044.08 2191.98,-2045.72 2190.26,-2047.32 2188.47,-2048.87 2186.61,-2050.36 2184.69,-2051.8 2182.71,-2053.17 2180.69,-2054.47 2178.63,-2055.71 2176.52,-2056.87 2174.39,-2057.95 2172.23,-2058.96 2170.04,-2059.88 2167.84,-2060.72 2165.61,-2061.47 2163.38,-2062.13 2161.13,-2062.7 2158.87,-2063.18 2156.6,-2063.56 2154.33,-2063.85 2152.06,-2064.04 2149.78,-2064.14 2147.5,-2064.14 2145.22,-2064.04 2142.95,-2063.85 2140.68,-2063.56 2138.41,-2063.18 2136.15,-2062.7 2133.9,-2062.13 2131.67,-2061.47 2129.44,-2060.72 2127.24,-2059.88 2125.05,-2058.96 2122.89,-2057.95 2120.76,-2056.87 2118.66,-2055.71 2116.59,-2054.47 2114.57,-2053.17 2112.6,-2051.8 2110.68,-2050.36 2108.82,-2048.87 2107.02,-2047.32 2105.3,-2045.72 2103.66,-2044.08 2102.11,-2042.39 2100.66,-2040.67 2099.3,-2038.92 2098.06,-2037.13 2096.93,-2035.33 2095.93,-2033.51 2095.07,-2031.67 2094.34,-2029.83 2093.76,-2027.98 2093.33,-2026.14 2093.06,-2024.3 2092.96,-2022.48 2093.02,-2020.68 2093.26,-2018.89 2093.67,-2017.14 2094.26,-2015.42 2095.04,-2013.73 2095.99,-2012.09 2097.13,-2010.49 2098.45,-2008.94 2099.96,-2007.45 2101.63,-2006.01 2103.49,-2004.64 2105.51,-2003.34 2107.69,-2002.1 2110.04,-2000.94 2112.53,-1999.86 2115.16,-1998.85 2117.93,-1997.93 2120.82,-1997.09 2123.82,-1996.34 2126.92,-1995.68 2130.11,-1995.11 2133.37,-1994.63 2136.7,-1994.25 2140.08,-1993.96 2143.49,-1993.77 2146.92,-1993.67 2150.36,-1993.67 2153.79,-1993.77"/>
<text text-anchor="start" x="2119.73" y="-2038.71" font-family="Times,serif" font-size="14.00">C1708611</text>
<text text-anchor="start" x="2121.03" y="-2024.71" font-family="Times,serif" font-size="14.00">kingdoms</text>
<text text-anchor="start" x="2132.7" y="-2010.71" font-family="Times,serif" font-size="14.00">41:41</text>
</g>
<!-- id_28129043_DOT_5&#45;&#45;id_28129043_DOT_9 -->
<g id="edge9" class="edge">
<title>id_28129043_DOT_5&#45;&#45;id_28129043_DOT_9</title>
<path fill="none" stroke="black" stroke-dasharray="1,5" d="M2386.56,-2250.43C2333.1,-2200.66 2228.9,-2103.63 2178.02,-2056.26"/>
<text text-anchor="middle" x="2256.04" y="-2156.15" font-family="Times,serif" font-size="14.00">0.742147</text>
</g>
<!-- id_28129043_DOT_6&#45;&#45;id_28129043_DOT_12 -->
<g id="edge10" class="edge">
<title>id_28129043_DOT_6&#45;&#45;id_28129043_DOT_12</title>
<path fill="none" stroke="black" stroke-dasharray="1,5" d="M1136.09,-1623.93C1077.99,-1643.57 981.24,-1676.28 911.23,-1699.95"/>
<text text-anchor="middle" x="997.41" y="-1664.74" font-family="Times,serif" font-size="14.00">0.843784</text>
</g>
<!-- id_28129043_DOT_8&#45;&#45;id_28129043_DOT_9 -->
<g id="edge11" class="edge">
<title>id_28129043_DOT_8&#45;&#45;id_28129043_DOT_9</title>
<path fill="none" stroke="black" stroke-dasharray="1,5" d="M1900.25,-1794.78C1952.45,-1843.97 2061.43,-1946.7 2116.02,-1998.15"/>
<text text-anchor="middle" x="1981.88" y="-1899.26" font-family="Times,serif" font-size="14.00">0.750377</text>
</g>
<!-- id_28129043_DOT_10 -->
<g id="node10" class="node">
<title>id_28129043_DOT_10</title>
<polygon fill="bisque" stroke="bisque" points="2031.06,-0.23 2036.73,-0.42 2042.34,-0.71 2047.88,-1.09 2053.3,-1.57 2058.61,-2.14 2063.76,-2.8 2068.75,-3.55 2073.56,-4.39 2078.16,-5.31 2082.54,-6.32 2086.68,-7.4 2090.58,-8.57 2094.21,-9.8 2097.57,-11.1 2100.65,-12.48 2103.44,-13.91 2105.94,-15.4 2108.14,-16.95 2110.03,-18.55 2111.62,-20.19 2112.91,-21.88 2113.89,-23.6 2114.58,-25.36 2114.98,-27.14 2115.08,-28.94 2114.91,-30.77 2114.46,-32.6 2113.75,-34.44 2112.78,-36.29 2111.57,-38.13 2110.13,-39.97 2108.47,-41.79 2106.6,-43.6 2104.53,-45.38 2102.28,-47.13 2099.86,-48.86 2097.28,-50.54 2094.55,-52.19 2091.69,-53.78 2088.71,-55.33 2085.62,-56.82 2082.42,-58.26 2079.14,-59.63 2075.78,-60.94 2072.35,-62.17 2068.85,-63.33 2065.31,-64.42 2061.71,-65.42 2058.08,-66.34 2054.41,-67.18 2050.71,-67.93 2046.99,-68.59 2043.25,-69.16 2039.5,-69.64 2035.73,-70.02 2031.95,-70.31 2028.17,-70.51 2024.38,-70.6 2020.59,-70.6 2016.81,-70.51 2013.02,-70.31 2009.25,-70.02 2005.48,-69.64 2001.72,-69.16 1997.98,-68.59 1994.26,-67.93 1990.57,-67.18 1986.9,-66.34 1983.26,-65.42 1979.67,-64.42 1976.12,-63.33 1972.63,-62.17 1969.2,-60.94 1965.83,-59.63 1962.55,-58.26 1959.36,-56.82 1956.27,-55.33 1953.28,-53.78 1950.42,-52.19 1947.7,-50.54 1945.12,-48.86 1942.7,-47.13 1940.45,-45.38 1938.38,-43.6 1936.51,-41.79 1934.85,-39.97 1933.4,-38.13 1932.19,-36.29 1931.23,-34.44 1930.52,-32.6 1930.07,-30.77 1929.89,-28.94 1930,-27.14 1930.39,-25.36 1931.08,-23.6 1932.07,-21.88 1933.35,-20.19 1934.94,-18.55 1936.84,-16.95 1939.04,-15.4 1941.53,-13.91 1944.32,-12.48 1947.4,-11.1 1950.76,-9.8 1954.4,-8.57 1958.29,-7.4 1962.44,-6.32 1966.82,-5.31 1971.42,-4.39 1976.22,-3.55 1981.21,-2.8 1986.37,-2.14 1991.67,-1.57 1997.1,-1.09 2002.63,-0.71 2008.25,-0.42 2013.92,-0.23 2019.63,-0.13 2025.35,-0.13 2031.06,-0.23"/>
<text text-anchor="start" x="1993.32" y="-45.17" font-family="Times,serif" font-size="14.00">C0040648</text>
<text text-anchor="start" x="1969.04" y="-31.17" font-family="Times,serif" font-size="14.00">transcription factor</text>
<text text-anchor="start" x="2006.54" y="-17.17" font-family="Times,serif" font-size="14.00">50:51</text>
</g>
<!-- id_28129043_DOT_10&#45;&#45;id_28129043_DOT_11 -->
<g id="edge4" class="edge">
<title>id_28129043_DOT_10&#45;&#45;id_28129043_DOT_11</title>
<path fill="none" stroke="black" d="M2007.3,-69.9C1979.14,-133.92 1919.13,-270.32 1890.79,-334.76"/>
<text text-anchor="middle" x="1922.79" y="-205.13" font-family="Times,serif" font-size="14.00">0.001343</text>
</g>
</g>
</svg>
