<?xml version="1.0" encoding="UTF-8" standalone="no"?>
<!DOCTYPE svg PUBLIC "-//W3C//DTD SVG 1.1//EN"
 "http://www.w3.org/Graphics/SVG/1.1/DTD/svg11.dtd">
<!-- Generated by graphviz version 2.42.3 (20191010.1750)
 -->
<!-- Title: MST Pages: 1 -->
<svg width="4658pt" height="4054pt"
 viewBox="0.00 0.00 4657.60 4054.04" xmlns="http://www.w3.org/2000/svg" xmlns:xlink="http://www.w3.org/1999/xlink">
<g id="graph0" class="graph" transform="scale(1 1) rotate(0) translate(4 4050.04)">
<title>MST</title>
<polygon fill="white" stroke="transparent" points="-4,4 -4,-4050.04 4653.6,-4050.04 4653.6,4 -4,4"/>
<!-- id_28134415_DOT_1 -->
<g id="node1" class="node">
<title>id_28134415_DOT_1</title>
<polygon fill="aquamarine" stroke="aquamarine" points="2483,-1457.03 2486.43,-1457.22 2489.82,-1457.51 2493.16,-1457.89 2496.45,-1458.37 2499.65,-1458.94 2502.77,-1459.6 2505.78,-1460.35 2508.68,-1461.19 2511.46,-1462.11 2514.11,-1463.12 2516.62,-1464.2 2518.97,-1465.36 2521.17,-1466.6 2523.2,-1467.9 2525.06,-1469.27 2526.75,-1470.71 2528.25,-1472.2 2529.58,-1473.75 2530.73,-1475.35 2531.69,-1476.99 2532.47,-1478.68 2533.06,-1480.4 2533.48,-1482.15 2533.71,-1483.94 2533.78,-1485.74 2533.67,-1487.56 2533.4,-1489.4 2532.97,-1491.24 2532.39,-1493.09 2531.66,-1494.93 2530.79,-1496.77 2529.78,-1498.59 2528.65,-1500.39 2527.4,-1502.18 2526.04,-1503.93 2524.58,-1505.65 2523.02,-1507.34 2521.37,-1508.98 2519.64,-1510.58 2517.84,-1512.13 2515.97,-1513.62 2514.04,-1515.06 2512.06,-1516.43 2510.03,-1517.73 2507.95,-1518.97 2505.84,-1520.13 2503.7,-1521.21 2501.53,-1522.22 2499.33,-1523.14 2497.11,-1523.98 2494.88,-1524.73 2492.63,-1525.39 2490.37,-1525.96 2488.1,-1526.44 2485.82,-1526.82 2483.54,-1527.11 2481.26,-1527.3 2478.97,-1527.4 2476.68,-1527.4 2474.39,-1527.3 2472.1,-1527.11 2469.82,-1526.82 2467.54,-1526.44 2465.27,-1525.96 2463.01,-1525.39 2460.77,-1524.73 2458.53,-1523.98 2456.31,-1523.14 2454.12,-1522.22 2451.95,-1521.21 2449.8,-1520.13 2447.69,-1518.97 2445.62,-1517.73 2443.59,-1516.43 2441.6,-1515.06 2439.67,-1513.62 2437.8,-1512.13 2436,-1510.58 2434.27,-1508.98 2432.63,-1507.34 2431.07,-1505.65 2429.6,-1503.93 2428.24,-1502.18 2426.99,-1500.39 2425.86,-1498.59 2424.86,-1496.77 2423.99,-1494.93 2423.26,-1493.09 2422.67,-1491.24 2422.24,-1489.4 2421.97,-1487.56 2421.87,-1485.74 2421.93,-1483.94 2422.17,-1482.15 2422.58,-1480.4 2423.18,-1478.68 2423.96,-1476.99 2424.92,-1475.35 2426.06,-1473.75 2427.39,-1472.2 2428.9,-1470.71 2430.59,-1469.27 2432.45,-1467.9 2434.48,-1466.6 2436.67,-1465.36 2439.03,-1464.2 2441.53,-1463.12 2444.18,-1462.11 2446.96,-1461.19 2449.86,-1460.35 2452.88,-1459.6 2455.99,-1458.94 2459.2,-1458.37 2462.48,-1457.89 2465.82,-1457.51 2469.22,-1457.22 2472.64,-1457.03 2476.09,-1456.93 2479.55,-1456.93 2483,-1457.03"/>
<text text-anchor="start" x="2448.65" y="-1501.97" font-family="Times,serif" font-size="14.00">C2004062</text>
<text text-anchor="start" x="2456.82" y="-1487.97" font-family="Times,serif" font-size="14.00">History</text>
<text text-anchor="start" x="2468.88" y="-1473.97" font-family="Times,serif" font-size="14.00">6:6</text>
</g>
<!-- id_28134415_DOT_10 -->
<g id="node10" class="node">
<title>id_28134415_DOT_10</title>
<polygon fill="crimson" stroke="crimson" points="2105.22,-1391.26 2110.77,-1391.46 2116.26,-1391.74 2121.68,-1392.13 2126.99,-1392.61 2132.18,-1393.18 2137.23,-1393.84 2142.11,-1394.59 2146.81,-1395.42 2151.31,-1396.35 2155.6,-1397.35 2159.65,-1398.44 2163.47,-1399.6 2167.02,-1400.83 2170.31,-1402.14 2173.33,-1403.51 2176.06,-1404.94 2178.5,-1406.44 2180.65,-1407.98 2182.5,-1409.58 2184.06,-1411.23 2185.32,-1412.91 2186.29,-1414.64 2186.96,-1416.39 2187.34,-1418.17 2187.45,-1419.98 2187.28,-1421.8 2186.84,-1423.64 2186.14,-1425.48 2185.2,-1427.32 2184.01,-1429.17 2182.6,-1431 2180.97,-1432.82 2179.14,-1434.63 2177.12,-1436.41 2174.92,-1438.17 2172.55,-1439.89 2170.02,-1441.58 2167.36,-1443.22 2164.56,-1444.82 2161.64,-1446.37 2158.61,-1447.86 2155.49,-1449.29 2152.27,-1450.66 2148.99,-1451.97 2145.63,-1453.2 2142.21,-1454.36 2138.74,-1455.45 2135.22,-1456.45 2131.66,-1457.38 2128.07,-1458.21 2124.45,-1458.97 2120.81,-1459.63 2117.15,-1460.2 2113.48,-1460.67 2109.79,-1461.06 2106.09,-1461.35 2102.39,-1461.54 2098.69,-1461.64 2094.98,-1461.64 2091.27,-1461.54 2087.57,-1461.35 2083.87,-1461.06 2080.19,-1460.67 2076.51,-1460.2 2072.85,-1459.63 2069.21,-1458.97 2065.59,-1458.21 2062,-1457.38 2058.45,-1456.45 2054.93,-1455.45 2051.46,-1454.36 2048.04,-1453.2 2044.68,-1451.97 2041.39,-1450.66 2038.18,-1449.29 2035.05,-1447.86 2032.03,-1446.37 2029.11,-1444.82 2026.31,-1443.22 2023.64,-1441.58 2021.12,-1439.89 2018.75,-1438.17 2016.54,-1436.41 2014.52,-1434.63 2012.69,-1432.82 2011.06,-1431 2009.65,-1429.17 2008.47,-1427.32 2007.52,-1425.48 2006.83,-1423.64 2006.39,-1421.8 2006.22,-1419.98 2006.32,-1418.17 2006.71,-1416.39 2007.38,-1414.64 2008.34,-1412.91 2009.6,-1411.23 2011.16,-1409.58 2013.01,-1407.98 2015.16,-1406.44 2017.61,-1404.94 2020.34,-1403.51 2023.35,-1402.14 2026.64,-1400.83 2030.2,-1399.6 2034.01,-1398.44 2038.07,-1397.35 2042.35,-1396.35 2046.86,-1395.42 2051.56,-1394.59 2056.44,-1393.84 2061.48,-1393.18 2066.67,-1392.61 2071.99,-1392.13 2077.4,-1391.74 2082.9,-1391.46 2088.45,-1391.26 2094.03,-1391.17 2099.63,-1391.17 2105.22,-1391.26"/>
<text text-anchor="start" x="2067.66" y="-1436.2" font-family="Times,serif" font-size="14.00">C0376554</text>
<text text-anchor="start" x="2044.54" y="-1422.2" font-family="Times,serif" font-size="14.00">limited knowledge</text>
<text text-anchor="start" x="2080.89" y="-1408.2" font-family="Times,serif" font-size="14.00">50:51</text>
</g>
<!-- id_28134415_DOT_1&#45;&#45;id_28134415_DOT_10 -->
<g id="edge11" class="edge">
<title>id_28134415_DOT_1&#45;&#45;id_28134415_DOT_10</title>
<path fill="none" stroke="black" stroke-dasharray="1,5" d="M2422.02,-1482.53C2356.29,-1471.19 2246.77,-1452.28 2173.2,-1439.58"/>
<text text-anchor="middle" x="2271.36" y="-1463.86" font-family="Times,serif" font-size="14.00">0.704241</text>
</g>
<!-- id_28134415_DOT_14 -->
<g id="node14" class="node">
<title>id_28134415_DOT_14</title>
<polygon fill="aquamarine" stroke="aquamarine" points="2458.95,-1886.83 2462.38,-1887.03 2465.77,-1887.31 2469.12,-1887.7 2472.4,-1888.18 2475.6,-1888.75 2478.72,-1889.41 2481.73,-1890.16 2484.64,-1891 2487.42,-1891.92 2490.06,-1892.92 2492.57,-1894.01 2494.92,-1895.17 2497.12,-1896.4 2499.15,-1897.71 2501.01,-1899.08 2502.7,-1900.51 2504.21,-1902.01 2505.53,-1903.55 2506.68,-1905.15 2507.64,-1906.8 2508.42,-1908.48 2509.01,-1910.21 2509.43,-1911.96 2509.67,-1913.74 2509.73,-1915.55 2509.63,-1917.37 2509.35,-1919.21 2508.92,-1921.05 2508.34,-1922.89 2507.61,-1924.74 2506.74,-1926.57 2505.73,-1928.39 2504.6,-1930.2 2503.35,-1931.98 2501.99,-1933.74 2500.53,-1935.46 2498.97,-1937.15 2497.32,-1938.79 2495.6,-1940.39 2493.79,-1941.94 2491.92,-1943.43 2489.99,-1944.86 2488.01,-1946.23 2485.98,-1947.54 2483.91,-1948.77 2481.79,-1949.94 2479.65,-1951.02 2477.48,-1952.02 2475.28,-1952.95 2473.07,-1953.79 2470.83,-1954.54 2468.58,-1955.2 2466.32,-1955.77 2464.05,-1956.25 2461.78,-1956.63 2459.49,-1956.92 2457.21,-1957.11 2454.92,-1957.21 2452.63,-1957.21 2450.34,-1957.11 2448.06,-1956.92 2445.77,-1956.63 2443.5,-1956.25 2441.23,-1955.77 2438.97,-1955.2 2436.72,-1954.54 2434.48,-1953.79 2432.27,-1952.95 2430.07,-1952.02 2427.9,-1951.02 2425.75,-1949.94 2423.64,-1948.77 2421.57,-1947.54 2419.54,-1946.23 2417.55,-1944.86 2415.63,-1943.43 2413.76,-1941.94 2411.95,-1940.39 2410.23,-1938.79 2408.58,-1937.15 2407.02,-1935.46 2405.56,-1933.74 2404.2,-1931.98 2402.95,-1930.2 2401.82,-1928.39 2400.81,-1926.57 2399.94,-1924.74 2399.21,-1922.89 2398.62,-1921.05 2398.19,-1919.21 2397.92,-1917.37 2397.82,-1915.55 2397.88,-1913.74 2398.12,-1911.96 2398.54,-1910.21 2399.13,-1908.48 2399.91,-1906.8 2400.87,-1905.15 2402.02,-1903.55 2403.34,-1902.01 2404.85,-1900.51 2406.54,-1899.08 2408.4,-1897.71 2410.43,-1896.4 2412.63,-1895.17 2414.98,-1894.01 2417.49,-1892.92 2420.13,-1891.92 2422.91,-1891 2425.82,-1890.16 2428.83,-1889.41 2431.95,-1888.75 2435.15,-1888.18 2438.43,-1887.7 2441.78,-1887.31 2445.17,-1887.03 2448.6,-1886.83 2452.05,-1886.74 2455.5,-1886.74 2458.95,-1886.83"/>
<text text-anchor="start" x="2424.61" y="-1931.77" font-family="Times,serif" font-size="14.00">C2004062</text>
<text text-anchor="start" x="2434.33" y="-1917.77" font-family="Times,serif" font-size="14.00">history</text>
<text text-anchor="start" x="2437.83" y="-1903.77" font-family="Times,serif" font-size="14.00">75:75</text>
</g>
<!-- id_28134415_DOT_1&#45;&#45;id_28134415_DOT_14 -->
<g id="edge1" class="edge">
<title>id_28134415_DOT_1&#45;&#45;id_28134415_DOT_14</title>
<path fill="none" stroke="black" d="M2475.83,-1527.7C2471.3,-1608.66 2460.26,-1805.99 2455.75,-1886.69"/>
<text text-anchor="middle" x="2439.54" y="-1710" font-family="Times,serif" font-size="14.00">0.014886</text>
</g>
<!-- id_28134415_DOT_25 -->
<g id="node25" class="node">
<title>id_28134415_DOT_25</title>
<polygon fill="darkslateblue" stroke="darkslateblue" points="2616.94,-1035.51 2621.44,-1035.7 2625.9,-1035.99 2630.3,-1036.37 2634.61,-1036.85 2638.82,-1037.42 2642.91,-1038.08 2646.87,-1038.83 2650.69,-1039.67 2654.34,-1040.59 2657.82,-1041.6 2661.11,-1042.68 2664.2,-1043.84 2667.09,-1045.08 2669.76,-1046.38 2672.2,-1047.76 2674.42,-1049.19 2676.4,-1050.68 2678.14,-1052.23 2679.65,-1053.83 2680.91,-1055.47 2681.93,-1057.16 2682.72,-1058.88 2683.26,-1060.64 2683.57,-1062.42 2683.66,-1064.22 2683.52,-1066.05 2683.16,-1067.88 2682.6,-1069.72 2681.83,-1071.57 2680.87,-1073.41 2679.73,-1075.25 2678.41,-1077.07 2676.92,-1078.88 2675.28,-1080.66 2673.49,-1082.41 2671.57,-1084.14 2669.52,-1085.82 2667.36,-1087.47 2665.09,-1089.06 2662.72,-1090.61 2660.26,-1092.1 2657.73,-1093.54 2655.12,-1094.91 2652.45,-1096.21 2649.73,-1097.45 2646.95,-1098.61 2644.14,-1099.7 2641.28,-1100.7 2638.4,-1101.62 2635.48,-1102.46 2632.55,-1103.21 2629.59,-1103.87 2626.62,-1104.44 2623.64,-1104.92 2620.65,-1105.3 2617.65,-1105.59 2614.65,-1105.79 2611.64,-1105.88 2608.63,-1105.88 2605.63,-1105.79 2602.62,-1105.59 2599.62,-1105.3 2596.63,-1104.92 2593.65,-1104.44 2590.68,-1103.87 2587.72,-1103.21 2584.79,-1102.46 2581.88,-1101.62 2578.99,-1100.7 2576.14,-1099.7 2573.32,-1098.61 2570.55,-1097.45 2567.82,-1096.21 2565.15,-1094.91 2562.55,-1093.54 2560.01,-1092.1 2557.55,-1090.61 2555.19,-1089.06 2552.92,-1087.47 2550.75,-1085.82 2548.7,-1084.14 2546.78,-1082.41 2544.99,-1080.66 2543.35,-1078.88 2541.87,-1077.07 2540.55,-1075.25 2539.4,-1073.41 2538.44,-1071.57 2537.67,-1069.72 2537.11,-1067.88 2536.75,-1066.05 2536.61,-1064.22 2536.7,-1062.42 2537.01,-1060.64 2537.56,-1058.88 2538.34,-1057.16 2539.36,-1055.47 2540.62,-1053.83 2542.13,-1052.23 2543.87,-1050.68 2545.85,-1049.19 2548.07,-1047.76 2550.52,-1046.38 2553.19,-1045.08 2556.07,-1043.84 2559.16,-1042.68 2562.46,-1041.6 2565.93,-1040.59 2569.59,-1039.67 2573.4,-1038.83 2577.36,-1038.08 2581.46,-1037.42 2585.67,-1036.85 2589.98,-1036.37 2594.37,-1035.99 2598.83,-1035.7 2603.33,-1035.51 2607.87,-1035.41 2612.41,-1035.41 2616.94,-1035.51"/>
<text text-anchor="start" x="2580.97" y="-1080.45" font-family="Times,serif" font-size="14.00">C3887460</text>
<text text-anchor="start" x="2569.33" y="-1066.45" font-family="Times,serif" font-size="14.00">cardiovascular</text>
<text text-anchor="start" x="2587.19" y="-1052.45" font-family="Times,serif" font-size="14.00">181:181</text>
</g>
<!-- id_28134415_DOT_1&#45;&#45;id_28134415_DOT_25 -->
<g id="edge12" class="edge">
<title>id_28134415_DOT_1&#45;&#45;id_28134415_DOT_25</title>
<path fill="none" stroke="black" stroke-dasharray="1,5" d="M2488.76,-1457.31C2513.65,-1378.02 2574.28,-1184.87 2599.18,-1105.54"/>
<text text-anchor="middle" x="2517.72" y="-1284.23" font-family="Times,serif" font-size="14.00">0.777182</text>
</g>
<!-- id_28134415_DOT_2 -->
<g id="node2" class="node">
<title>id_28134415_DOT_2</title>
<polygon fill="bisque" stroke="bisque" points="3174.9,-3560.67 3181.44,-3560.86 3187.91,-3561.15 3194.29,-3561.53 3200.54,-3562.01 3206.65,-3562.58 3212.6,-3563.24 3218.35,-3563.99 3223.88,-3564.83 3229.18,-3565.75 3234.23,-3566.76 3239.01,-3567.84 3243.5,-3569 3247.68,-3570.24 3251.56,-3571.54 3255.11,-3572.91 3258.33,-3574.35 3261.2,-3575.84 3263.73,-3577.39 3265.92,-3578.99 3267.75,-3580.63 3269.23,-3582.32 3270.37,-3584.04 3271.16,-3585.79 3271.61,-3587.58 3271.74,-3589.38 3271.54,-3591.2 3271.02,-3593.04 3270.2,-3594.88 3269.09,-3596.73 3267.69,-3598.57 3266.03,-3600.41 3264.11,-3602.23 3261.96,-3604.03 3259.58,-3605.82 3256.98,-3607.57 3254.19,-3609.29 3251.22,-3610.98 3248.08,-3612.62 3244.78,-3614.22 3241.34,-3615.77 3237.78,-3617.26 3234.1,-3618.7 3230.32,-3620.07 3226.44,-3621.37 3222.49,-3622.61 3218.46,-3623.77 3214.37,-3624.85 3210.23,-3625.86 3206.04,-3626.78 3201.81,-3627.62 3197.55,-3628.37 3193.27,-3629.03 3188.96,-3629.6 3184.63,-3630.08 3180.29,-3630.46 3175.93,-3630.75 3171.57,-3630.94 3167.21,-3631.04 3162.84,-3631.04 3158.48,-3630.94 3154.12,-3630.75 3149.77,-3630.46 3145.42,-3630.08 3141.1,-3629.6 3136.79,-3629.03 3132.5,-3628.37 3128.24,-3627.62 3124.01,-3626.78 3119.82,-3625.86 3115.68,-3624.85 3111.59,-3623.77 3107.57,-3622.61 3103.61,-3621.37 3099.74,-3620.07 3095.95,-3618.7 3092.27,-3617.26 3088.71,-3615.77 3085.27,-3614.22 3081.98,-3612.62 3078.84,-3610.98 3075.86,-3609.29 3073.07,-3607.57 3070.48,-3605.82 3068.1,-3604.03 3065.94,-3602.23 3064.02,-3600.41 3062.36,-3598.57 3060.97,-3596.73 3059.85,-3594.88 3059.03,-3593.04 3058.52,-3591.2 3058.32,-3589.38 3058.44,-3587.58 3058.89,-3585.79 3059.68,-3584.04 3060.82,-3582.32 3062.3,-3580.63 3064.14,-3578.99 3066.32,-3577.39 3068.85,-3575.84 3071.73,-3574.35 3074.94,-3572.91 3078.49,-3571.54 3082.37,-3570.24 3086.56,-3569 3091.05,-3567.84 3095.82,-3566.76 3100.87,-3565.75 3106.17,-3564.83 3111.71,-3563.99 3117.46,-3563.24 3123.4,-3562.58 3129.51,-3562.01 3135.77,-3561.53 3142.14,-3561.15 3148.61,-3560.86 3155.15,-3560.67 3161.73,-3560.57 3168.32,-3560.57 3174.9,-3560.67"/>
<text text-anchor="start" x="3135.86" y="-3605.6" font-family="Times,serif" font-size="14.00">C0427350</text>
<text text-anchor="start" x="3102.24" y="-3591.6" font-family="Times,serif" font-size="14.00">clinical considerations</text>
<text text-anchor="start" x="3156.08" y="-3577.6" font-family="Times,serif" font-size="14.00">8:9</text>
</g>
<!-- id_28134415_DOT_15 -->
<g id="node15" class="node">
<title>id_28134415_DOT_15</title>
<polygon fill="bisque" stroke="bisque" points="3305.85,-3174.66 3312.39,-3174.85 3318.86,-3175.14 3325.24,-3175.52 3331.49,-3176 3337.6,-3176.57 3343.55,-3177.23 3349.3,-3177.98 3354.83,-3178.82 3360.13,-3179.74 3365.18,-3180.75 3369.96,-3181.83 3374.45,-3182.99 3378.63,-3184.23 3382.51,-3185.53 3386.06,-3186.91 3389.27,-3188.34 3392.15,-3189.83 3394.68,-3191.38 3396.87,-3192.98 3398.7,-3194.62 3400.18,-3196.31 3401.32,-3198.03 3402.11,-3199.79 3402.56,-3201.57 3402.69,-3203.37 3402.49,-3205.2 3401.97,-3207.03 3401.15,-3208.87 3400.04,-3210.72 3398.64,-3212.56 3396.98,-3214.4 3395.06,-3216.22 3392.91,-3218.03 3390.53,-3219.81 3387.93,-3221.56 3385.14,-3223.29 3382.17,-3224.97 3379.03,-3226.62 3375.73,-3228.21 3372.29,-3229.76 3368.73,-3231.25 3365.05,-3232.69 3361.27,-3234.06 3357.39,-3235.36 3353.44,-3236.6 3349.41,-3237.76 3345.32,-3238.85 3341.18,-3239.85 3336.99,-3240.77 3332.76,-3241.61 3328.5,-3242.36 3324.22,-3243.02 3319.91,-3243.59 3315.58,-3244.07 3311.24,-3244.45 3306.88,-3244.74 3302.52,-3244.94 3298.16,-3245.03 3293.79,-3245.03 3289.43,-3244.94 3285.07,-3244.74 3280.72,-3244.45 3276.37,-3244.07 3272.05,-3243.59 3267.74,-3243.02 3263.45,-3242.36 3259.19,-3241.61 3254.96,-3240.77 3250.77,-3239.85 3246.63,-3238.85 3242.54,-3237.76 3238.52,-3236.6 3234.56,-3235.36 3230.69,-3234.06 3226.9,-3232.69 3223.22,-3231.25 3219.66,-3229.76 3216.22,-3228.21 3212.93,-3226.62 3209.78,-3224.97 3206.81,-3223.29 3204.02,-3221.56 3201.43,-3219.81 3199.05,-3218.03 3196.89,-3216.22 3194.97,-3214.4 3193.31,-3212.56 3191.92,-3210.72 3190.8,-3208.87 3189.98,-3207.03 3189.47,-3205.2 3189.27,-3203.37 3189.39,-3201.57 3189.84,-3199.79 3190.63,-3198.03 3191.77,-3196.31 3193.25,-3194.62 3195.09,-3192.98 3197.27,-3191.38 3199.8,-3189.83 3202.68,-3188.34 3205.89,-3186.91 3209.44,-3185.53 3213.32,-3184.23 3217.51,-3182.99 3222,-3181.83 3226.77,-3180.75 3231.82,-3179.74 3237.12,-3178.82 3242.66,-3177.98 3248.41,-3177.23 3254.35,-3176.57 3260.46,-3176 3266.72,-3175.52 3273.09,-3175.14 3279.56,-3174.85 3286.1,-3174.66 3292.68,-3174.56 3299.27,-3174.56 3305.85,-3174.66"/>
<text text-anchor="start" x="3266.81" y="-3219.6" font-family="Times,serif" font-size="14.00">C0427350</text>
<text text-anchor="start" x="3233.19" y="-3205.6" font-family="Times,serif" font-size="14.00">clinical considerations</text>
<text text-anchor="start" x="3280.03" y="-3191.6" font-family="Times,serif" font-size="14.00">77:78</text>
</g>
<!-- id_28134415_DOT_2&#45;&#45;id_28134415_DOT_15 -->
<g id="edge2" class="edge">
<title>id_28134415_DOT_2&#45;&#45;id_28134415_DOT_15</title>
<path fill="none" stroke="black" d="M3176.99,-3560.53C3201.93,-3487.01 3259.21,-3318.18 3284.08,-3244.85"/>
<text text-anchor="middle" x="3204.29" y="-3405.49" font-family="Times,serif" font-size="14.00">0.026013</text>
</g>
<!-- id_28134415_DOT_3 -->
<g id="node3" class="node">
<title>id_28134415_DOT_3</title>
<polygon fill="blue" stroke="blue" points="3696.15,-3272.81 3700.83,-3273 3705.45,-3273.29 3710.01,-3273.67 3714.49,-3274.15 3718.85,-3274.72 3723.1,-3275.38 3727.21,-3276.13 3731.17,-3276.97 3734.96,-3277.89 3738.57,-3278.9 3741.99,-3279.98 3745.2,-3281.14 3748.19,-3282.38 3750.96,-3283.68 3753.5,-3285.05 3755.8,-3286.49 3757.85,-3287.98 3759.66,-3289.53 3761.23,-3291.13 3762.54,-3292.77 3763.6,-3294.46 3764.41,-3296.18 3764.98,-3297.93 3765.3,-3299.72 3765.39,-3301.52 3765.24,-3303.34 3764.87,-3305.18 3764.29,-3307.02 3763.49,-3308.87 3762.49,-3310.71 3761.31,-3312.55 3759.94,-3314.37 3758.4,-3316.17 3756.69,-3317.96 3754.84,-3319.71 3752.84,-3321.43 3750.72,-3323.12 3748.47,-3324.76 3746.11,-3326.36 3743.66,-3327.91 3741.11,-3329.4 3738.48,-3330.84 3735.77,-3332.21 3733,-3333.51 3730.18,-3334.75 3727.3,-3335.91 3724.37,-3336.99 3721.41,-3338 3718.42,-3338.92 3715.4,-3339.76 3712.35,-3340.51 3709.28,-3341.17 3706.2,-3341.74 3703.11,-3342.22 3700,-3342.6 3696.89,-3342.89 3693.77,-3343.08 3690.65,-3343.18 3687.53,-3343.18 3684.41,-3343.08 3681.3,-3342.89 3678.18,-3342.6 3675.08,-3342.22 3671.98,-3341.74 3668.9,-3341.17 3665.84,-3340.51 3662.79,-3339.76 3659.77,-3338.92 3656.77,-3338 3653.81,-3336.99 3650.89,-3335.91 3648.01,-3334.75 3645.18,-3333.51 3642.41,-3332.21 3639.71,-3330.84 3637.08,-3329.4 3634.53,-3327.91 3632.07,-3326.36 3629.72,-3324.76 3627.47,-3323.12 3625.34,-3321.43 3623.35,-3319.71 3621.49,-3317.96 3619.79,-3316.17 3618.25,-3314.37 3616.88,-3312.55 3615.69,-3310.71 3614.7,-3308.87 3613.9,-3307.02 3613.31,-3305.18 3612.94,-3303.34 3612.8,-3301.52 3612.89,-3299.72 3613.21,-3297.93 3613.78,-3296.18 3614.59,-3294.46 3615.65,-3292.77 3616.96,-3291.13 3618.52,-3289.53 3620.33,-3287.98 3622.39,-3286.49 3624.69,-3285.05 3627.23,-3283.68 3630,-3282.38 3632.99,-3281.14 3636.2,-3279.98 3639.62,-3278.9 3643.22,-3277.89 3647.01,-3276.97 3650.97,-3276.13 3655.08,-3275.38 3659.33,-3274.72 3663.7,-3274.15 3668.17,-3273.67 3672.73,-3273.29 3677.36,-3273 3682.03,-3272.81 3686.74,-3272.71 3691.45,-3272.71 3696.15,-3272.81"/>
<text text-anchor="start" x="3659.92" y="-3317.75" font-family="Times,serif" font-size="14.00">C0025080</text>
<text text-anchor="start" x="3646.53" y="-3303.75" font-family="Times,serif" font-size="14.00">current devices</text>
<text text-anchor="start" x="3673.15" y="-3289.75" font-family="Times,serif" font-size="14.00">12:13</text>
</g>
<!-- id_28134415_DOT_3&#45;&#45;id_28134415_DOT_15 -->
<g id="edge13" class="edge">
<title>id_28134415_DOT_3&#45;&#45;id_28134415_DOT_15</title>
<path fill="none" stroke="black" stroke-dasharray="1,5" d="M3617.45,-3290.06C3548.57,-3272.86 3444.76,-3246.94 3373.86,-3229.24"/>
<text text-anchor="middle" x="3469.66" y="-3262.45" font-family="Times,serif" font-size="14.00">0.894611</text>
</g>
<!-- id_28134415_DOT_16 -->
<g id="node16" class="node">
<title>id_28134415_DOT_16</title>
<polygon fill="blue" stroke="blue" points="4023.35,-3474.01 4026.78,-3474.2 4030.17,-3474.49 4033.52,-3474.87 4036.8,-3475.35 4040,-3475.92 4043.12,-3476.58 4046.13,-3477.33 4049.04,-3478.17 4051.82,-3479.09 4054.46,-3480.1 4056.97,-3481.18 4059.32,-3482.34 4061.52,-3483.58 4063.55,-3484.88 4065.41,-3486.25 4067.1,-3487.69 4068.6,-3489.18 4069.93,-3490.73 4071.08,-3492.33 4072.04,-3493.97 4072.82,-3495.66 4073.41,-3497.38 4073.83,-3499.14 4074.07,-3500.92 4074.13,-3502.72 4074.02,-3504.55 4073.75,-3506.38 4073.32,-3508.22 4072.74,-3510.07 4072.01,-3511.91 4071.14,-3513.75 4070.13,-3515.57 4069,-3517.37 4067.75,-3519.16 4066.39,-3520.91 4064.93,-3522.63 4063.37,-3524.32 4061.72,-3525.96 4059.99,-3527.56 4058.19,-3529.11 4056.32,-3530.6 4054.39,-3532.04 4052.41,-3533.41 4050.38,-3534.71 4048.3,-3535.95 4046.19,-3537.11 4044.05,-3538.19 4041.88,-3539.2 4039.68,-3540.12 4037.46,-3540.96 4035.23,-3541.71 4032.98,-3542.37 4030.72,-3542.94 4028.45,-3543.42 4026.17,-3543.8 4023.89,-3544.09 4021.61,-3544.28 4019.32,-3544.38 4017.03,-3544.38 4014.74,-3544.28 4012.45,-3544.09 4010.17,-3543.8 4007.89,-3543.42 4005.62,-3542.94 4003.36,-3542.37 4001.12,-3541.71 3998.88,-3540.96 3996.67,-3540.12 3994.47,-3539.2 3992.3,-3538.19 3990.15,-3537.11 3988.04,-3535.95 3985.97,-3534.71 3983.94,-3533.41 3981.95,-3532.04 3980.02,-3530.6 3978.15,-3529.11 3976.35,-3527.56 3974.62,-3525.96 3972.98,-3524.32 3971.42,-3522.63 3969.95,-3520.91 3968.59,-3519.16 3967.34,-3517.37 3966.21,-3515.57 3965.21,-3513.75 3964.34,-3511.91 3963.61,-3510.07 3963.02,-3508.22 3962.59,-3506.38 3962.32,-3504.55 3962.22,-3502.72 3962.28,-3500.92 3962.52,-3499.14 3962.93,-3497.38 3963.53,-3495.66 3964.31,-3493.97 3965.27,-3492.33 3966.41,-3490.73 3967.74,-3489.18 3969.25,-3487.69 3970.94,-3486.25 3972.8,-3484.88 3974.83,-3483.58 3977.02,-3482.34 3979.38,-3481.18 3981.88,-3480.1 3984.53,-3479.09 3987.31,-3478.17 3990.21,-3477.33 3993.23,-3476.58 3996.34,-3475.92 3999.55,-3475.35 4002.83,-3474.87 4006.17,-3474.49 4009.57,-3474.2 4012.99,-3474.01 4016.44,-3473.91 4019.9,-3473.91 4023.35,-3474.01"/>
<text text-anchor="start" x="3989" y="-3518.95" font-family="Times,serif" font-size="14.00">C0025080</text>
<text text-anchor="start" x="3997.18" y="-3504.95" font-family="Times,serif" font-size="14.00">devices</text>
<text text-anchor="start" x="4002.23" y="-3490.95" font-family="Times,serif" font-size="14.00">81:81</text>
</g>
<!-- id_28134415_DOT_3&#45;&#45;id_28134415_DOT_16 -->
<g id="edge3" class="edge">
<title>id_28134415_DOT_3&#45;&#45;id_28134415_DOT_16</title>
<path fill="none" stroke="black" d="M3732.11,-3334.25C3795.27,-3372.86 3912.39,-3444.47 3975.4,-3483"/>
<text text-anchor="middle" x="3827.51" y="-3411.42" font-family="Times,serif" font-size="14.00">0.029980</text>
</g>
<!-- id_28134415_DOT_4 -->
<g id="node4" class="node">
<title>id_28134415_DOT_4</title>
<polygon fill="blueviolet" stroke="blueviolet" points="1332.11,-3308.58 1335.54,-3308.77 1338.93,-3309.06 1342.28,-3309.44 1345.56,-3309.92 1348.76,-3310.49 1351.88,-3311.15 1354.89,-3311.9 1357.8,-3312.74 1360.58,-3313.66 1363.22,-3314.67 1365.73,-3315.75 1368.08,-3316.91 1370.28,-3318.15 1372.31,-3319.45 1374.17,-3320.82 1375.86,-3322.26 1377.37,-3323.75 1378.69,-3325.3 1379.84,-3326.9 1380.8,-3328.54 1381.58,-3330.23 1382.17,-3331.95 1382.59,-3333.71 1382.83,-3335.49 1382.89,-3337.29 1382.78,-3339.12 1382.51,-3340.95 1382.08,-3342.79 1381.5,-3344.64 1380.77,-3346.48 1379.9,-3348.32 1378.89,-3350.14 1377.76,-3351.94 1376.51,-3353.73 1375.15,-3355.48 1373.69,-3357.2 1372.13,-3358.89 1370.48,-3360.53 1368.75,-3362.13 1366.95,-3363.68 1365.08,-3365.17 1363.15,-3366.61 1361.17,-3367.98 1359.14,-3369.28 1357.06,-3370.52 1354.95,-3371.68 1352.81,-3372.76 1350.64,-3373.77 1348.44,-3374.69 1346.22,-3375.53 1343.99,-3376.28 1341.74,-3376.94 1339.48,-3377.51 1337.21,-3377.99 1334.94,-3378.37 1332.65,-3378.66 1330.37,-3378.85 1328.08,-3378.95 1325.79,-3378.95 1323.5,-3378.85 1321.21,-3378.66 1318.93,-3378.37 1316.65,-3377.99 1314.39,-3377.51 1312.13,-3376.94 1309.88,-3376.28 1307.64,-3375.53 1305.43,-3374.69 1303.23,-3373.77 1301.06,-3372.76 1298.91,-3371.68 1296.8,-3370.52 1294.73,-3369.28 1292.7,-3367.98 1290.71,-3366.61 1288.78,-3365.17 1286.91,-3363.68 1285.11,-3362.13 1283.38,-3360.53 1281.74,-3358.89 1280.18,-3357.2 1278.71,-3355.48 1277.35,-3353.73 1276.1,-3351.94 1274.97,-3350.14 1273.97,-3348.32 1273.1,-3346.48 1272.37,-3344.64 1271.78,-3342.79 1271.35,-3340.95 1271.08,-3339.12 1270.98,-3337.29 1271.04,-3335.49 1271.28,-3333.71 1271.69,-3331.95 1272.29,-3330.23 1273.07,-3328.54 1274.03,-3326.9 1275.17,-3325.3 1276.5,-3323.75 1278.01,-3322.26 1279.7,-3320.82 1281.56,-3319.45 1283.59,-3318.15 1285.79,-3316.91 1288.14,-3315.75 1290.64,-3314.67 1293.29,-3313.66 1296.07,-3312.74 1298.97,-3311.9 1301.99,-3311.15 1305.11,-3310.49 1308.31,-3309.92 1311.59,-3309.44 1314.93,-3309.06 1318.33,-3308.77 1321.76,-3308.58 1325.21,-3308.48 1328.66,-3308.48 1332.11,-3308.58"/>
<text text-anchor="start" x="1297.76" y="-3353.52" font-family="Times,serif" font-size="14.00">C0025663</text>
<text text-anchor="start" x="1305.94" y="-3339.52" font-family="Times,serif" font-size="14.00">method</text>
<text text-anchor="start" x="1310.99" y="-3325.52" font-family="Times,serif" font-size="14.00">18:18</text>
</g>
<!-- id_28134415_DOT_5 -->
<g id="node5" class="node">
<title>id_28134415_DOT_5</title>
<polygon fill="brown" stroke="brown" points="1274.44,-2903.6 1282.49,-2903.8 1290.47,-2904.09 1298.32,-2904.47 1306.03,-2904.95 1313.56,-2905.52 1320.88,-2906.18 1327.97,-2906.93 1334.79,-2907.77 1341.32,-2908.69 1347.54,-2909.69 1353.43,-2910.78 1358.96,-2911.94 1364.12,-2913.18 1368.9,-2914.48 1373.27,-2915.85 1377.23,-2917.29 1380.78,-2918.78 1383.9,-2920.33 1386.59,-2921.92 1388.84,-2923.57 1390.67,-2925.25 1392.07,-2926.98 1393.05,-2928.73 1393.61,-2930.51 1393.76,-2932.32 1393.51,-2934.14 1392.87,-2935.98 1391.86,-2937.82 1390.49,-2939.67 1388.77,-2941.51 1386.73,-2943.34 1384.37,-2945.17 1381.71,-2946.97 1378.77,-2948.75 1375.58,-2950.51 1372.14,-2952.23 1368.48,-2953.92 1364.6,-2955.56 1360.54,-2957.16 1356.31,-2958.71 1351.92,-2960.2 1347.38,-2961.63 1342.72,-2963.01 1337.95,-2964.31 1333.07,-2965.55 1328.11,-2966.71 1323.07,-2967.79 1317.97,-2968.8 1312.81,-2969.72 1307.6,-2970.56 1302.35,-2971.31 1297.07,-2971.97 1291.76,-2972.54 1286.42,-2973.02 1281.07,-2973.4 1275.71,-2973.69 1270.34,-2973.88 1264.96,-2973.98 1259.58,-2973.98 1254.2,-2973.88 1248.83,-2973.69 1243.47,-2973.4 1238.12,-2973.02 1232.78,-2972.54 1227.47,-2971.97 1222.19,-2971.31 1216.94,-2970.56 1211.73,-2969.72 1206.57,-2968.8 1201.47,-2967.79 1196.43,-2966.71 1191.47,-2965.55 1186.59,-2964.31 1181.82,-2963.01 1177.16,-2961.63 1172.63,-2960.2 1168.23,-2958.71 1164,-2957.16 1159.94,-2955.56 1156.07,-2953.92 1152.4,-2952.23 1148.96,-2950.51 1145.77,-2948.75 1142.83,-2946.97 1140.18,-2945.17 1137.81,-2943.34 1135.77,-2941.51 1134.05,-2939.67 1132.68,-2937.82 1131.67,-2935.98 1131.03,-2934.14 1130.78,-2932.32 1130.93,-2930.51 1131.49,-2928.73 1132.47,-2926.98 1133.87,-2925.25 1135.7,-2923.57 1137.96,-2921.92 1140.65,-2920.33 1143.76,-2918.78 1147.31,-2917.29 1151.27,-2915.85 1155.65,-2914.48 1160.42,-2913.18 1165.58,-2911.94 1171.11,-2910.78 1177,-2909.69 1183.22,-2908.69 1189.75,-2907.77 1196.57,-2906.93 1203.66,-2906.18 1210.98,-2905.52 1218.51,-2904.95 1226.22,-2904.47 1234.07,-2904.09 1242.05,-2903.8 1250.1,-2903.6 1258.21,-2903.51 1266.33,-2903.51 1274.44,-2903.6"/>
<text text-anchor="start" x="1233.1" y="-2948.54" font-family="Times,serif" font-size="14.00">C0002458</text>
<text text-anchor="start" x="1182.96" y="-2934.54" font-family="Times,serif" font-size="14.00">American Heart Association</text>
<text text-anchor="start" x="1246.33" y="-2920.54" font-family="Times,serif" font-size="14.00">22:24</text>
</g>
<!-- id_28134415_DOT_4&#45;&#45;id_28134415_DOT_5 -->
<g id="edge14" class="edge">
<title>id_28134415_DOT_4&#45;&#45;id_28134415_DOT_5</title>
<path fill="none" stroke="black" stroke-dasharray="1,5" d="M1321.31,-3308.49C1309.08,-3231.9 1280.19,-3050.96 1267.93,-2974.18"/>
<text text-anchor="middle" x="1268.37" y="-3144.13" font-family="Times,serif" font-size="14.00">0.875450</text>
</g>
<!-- id_28134415_DOT_6 -->
<g id="node6" class="node">
<title>id_28134415_DOT_6</title>
<polygon fill="cadetblue" stroke="cadetblue" points="861.45,-2955.36 870.51,-2955.55 879.47,-2955.84 888.3,-2956.22 896.97,-2956.7 905.43,-2957.27 913.66,-2957.93 921.63,-2958.68 929.3,-2959.52 936.64,-2960.44 943.63,-2961.45 950.25,-2962.53 956.46,-2963.7 962.26,-2964.93 967.63,-2966.24 972.55,-2967.61 977,-2969.04 980.99,-2970.53 984.49,-2972.08 987.51,-2973.68 990.05,-2975.32 992.11,-2977.01 993.68,-2978.73 994.78,-2980.49 995.41,-2982.27 995.58,-2984.07 995.3,-2985.9 994.58,-2987.73 993.45,-2989.58 991.9,-2991.42 989.97,-2993.26 987.67,-2995.1 985.02,-2996.92 982.03,-2998.73 978.73,-3000.51 975.14,-3002.26 971.28,-3003.99 967.16,-3005.67 962.81,-3007.32 958.24,-3008.91 953.48,-3010.46 948.54,-3011.96 943.45,-3013.39 938.21,-3014.76 932.84,-3016.07 927.36,-3017.3 921.79,-3018.46 916.12,-3019.55 910.39,-3020.55 904.59,-3021.47 898.73,-3022.31 892.83,-3023.06 886.89,-3023.72 880.92,-3024.29 874.93,-3024.77 868.91,-3025.16 862.88,-3025.44 856.85,-3025.64 850.8,-3025.73 844.75,-3025.73 838.71,-3025.64 832.67,-3025.44 826.64,-3025.16 820.63,-3024.77 814.63,-3024.29 808.66,-3023.72 802.73,-3023.06 796.82,-3022.31 790.97,-3021.47 785.17,-3020.55 779.43,-3019.55 773.77,-3018.46 768.19,-3017.3 762.71,-3016.07 757.35,-3014.76 752.11,-3013.39 747.01,-3011.96 742.08,-3010.46 737.32,-3008.91 732.75,-3007.32 728.4,-3005.67 724.28,-3003.99 720.42,-3002.26 716.82,-3000.51 713.52,-2998.73 710.54,-2996.92 707.88,-2995.1 705.58,-2993.26 703.65,-2991.42 702.11,-2989.58 700.97,-2987.73 700.26,-2985.9 699.98,-2984.07 700.15,-2982.27 700.78,-2980.49 701.87,-2978.73 703.45,-2977.01 705.5,-2975.32 708.04,-2973.68 711.07,-2972.08 714.57,-2970.53 718.56,-2969.04 723.01,-2967.61 727.93,-2966.24 733.29,-2964.93 739.09,-2963.7 745.31,-2962.53 751.93,-2961.45 758.92,-2960.44 766.26,-2959.52 773.93,-2958.68 781.89,-2957.93 790.12,-2957.27 798.59,-2956.7 807.25,-2956.22 816.08,-2955.84 825.05,-2955.55 834.1,-2955.36 843.21,-2955.26 852.34,-2955.26 861.45,-2955.36"/>
<text text-anchor="start" x="818.61" y="-3000.3" font-family="Times,serif" font-size="14.00">C1708333</text>
<text text-anchor="start" x="757.57" y="-2986.3" font-family="Times,serif" font-size="14.00">European Resuscitation Council</text>
<text text-anchor="start" x="831.83" y="-2972.3" font-family="Times,serif" font-size="14.00">27:29</text>
</g>
<!-- id_28134415_DOT_5&#45;&#45;id_28134415_DOT_6 -->
<g id="edge15" class="edge">
<title>id_28134415_DOT_5&#45;&#45;id_28134415_DOT_6</title>
<path fill="none" stroke="black" stroke-dasharray="1,5" d="M1152.55,-2952.44C1101.71,-2958.79 1040.72,-2966.41 986.7,-2973.15"/>
<text text-anchor="middle" x="1043.89" y="-2965.6" font-family="Times,serif" font-size="14.00">0.451113</text>
</g>
<!-- id_28134415_DOT_24 -->
<g id="node24" class="node">
<title>id_28134415_DOT_24</title>
<polygon fill="darkseagreen" stroke="darkseagreen" points="1614.34,-2677.27 1617.77,-2677.46 1621.17,-2677.75 1624.51,-2678.14 1627.79,-2678.61 1630.99,-2679.18 1634.11,-2679.85 1637.13,-2680.6 1640.03,-2681.43 1642.81,-2682.36 1645.46,-2683.36 1647.96,-2684.45 1650.31,-2685.61 1652.51,-2686.84 1654.54,-2688.15 1656.4,-2689.52 1658.09,-2690.95 1659.6,-2692.45 1660.93,-2693.99 1662.07,-2695.59 1663.03,-2697.24 1663.81,-2698.92 1664.41,-2700.64 1664.82,-2702.4 1665.06,-2704.18 1665.12,-2705.99 1665.02,-2707.81 1664.75,-2709.64 1664.32,-2711.49 1663.73,-2713.33 1663,-2715.18 1662.13,-2717.01 1661.13,-2718.83 1660,-2720.64 1658.75,-2722.42 1657.39,-2724.18 1655.92,-2725.9 1654.36,-2727.58 1652.72,-2729.23 1650.99,-2730.83 1649.19,-2732.37 1647.32,-2733.87 1645.39,-2735.3 1643.4,-2736.67 1641.37,-2737.98 1639.3,-2739.21 1637.19,-2740.37 1635.04,-2741.46 1632.87,-2742.46 1630.67,-2743.39 1628.46,-2744.22 1626.22,-2744.97 1623.98,-2745.64 1621.72,-2746.21 1619.45,-2746.68 1617.17,-2747.07 1614.89,-2747.36 1612.6,-2747.55 1610.31,-2747.64 1608.02,-2747.64 1605.73,-2747.55 1603.45,-2747.36 1601.16,-2747.07 1598.89,-2746.68 1596.62,-2746.21 1594.36,-2745.64 1592.11,-2744.97 1589.88,-2744.22 1587.66,-2743.39 1585.46,-2742.46 1583.29,-2741.46 1581.15,-2740.37 1579.04,-2739.21 1576.96,-2737.98 1574.93,-2736.67 1572.95,-2735.3 1571.02,-2733.87 1569.15,-2732.37 1567.35,-2730.83 1565.62,-2729.23 1563.97,-2727.58 1562.41,-2725.9 1560.95,-2724.18 1559.59,-2722.42 1558.34,-2720.64 1557.21,-2718.83 1556.2,-2717.01 1555.33,-2715.18 1554.6,-2713.33 1554.02,-2711.49 1553.59,-2709.64 1553.32,-2707.81 1553.21,-2705.99 1553.27,-2704.18 1553.51,-2702.4 1553.93,-2700.64 1554.52,-2698.92 1555.3,-2697.24 1556.26,-2695.59 1557.41,-2693.99 1558.73,-2692.45 1560.24,-2690.95 1561.93,-2689.52 1563.79,-2688.15 1565.82,-2686.84 1568.02,-2685.61 1570.37,-2684.45 1572.88,-2683.36 1575.52,-2682.36 1578.3,-2681.43 1581.21,-2680.6 1584.22,-2679.85 1587.34,-2679.18 1590.54,-2678.61 1593.82,-2678.14 1597.17,-2677.75 1600.56,-2677.46 1603.99,-2677.27 1607.44,-2677.17 1610.9,-2677.17 1614.34,-2677.27"/>
<text text-anchor="start" x="1580" y="-2722.21" font-family="Times,serif" font-size="14.00">C0679878</text>
<text text-anchor="start" x="1581" y="-2708.21" font-family="Times,serif" font-size="14.00">acute care</text>
<text text-anchor="start" x="1586.22" y="-2694.21" font-family="Times,serif" font-size="14.00">176:177</text>
</g>
<!-- id_28134415_DOT_5&#45;&#45;id_28134415_DOT_24 -->
<g id="edge16" class="edge">
<title>id_28134415_DOT_5&#45;&#45;id_28134415_DOT_24</title>
<path fill="none" stroke="black" stroke-dasharray="1,5" d="M1313.46,-2905.35C1384.51,-2858.99 1511.25,-2776.29 1573.15,-2735.91"/>
<text text-anchor="middle" x="1417.05" y="-2823.43" font-family="Times,serif" font-size="14.00">0.720724</text>
</g>
<!-- id_28134415_DOT_22 -->
<g id="node22" class="node">
<title>id_28134415_DOT_22</title>
<polygon fill="darksalmon" stroke="darksalmon" points="695.24,-3339.08 701.65,-3339.28 707.99,-3339.57 714.24,-3339.95 720.37,-3340.43 726.37,-3341 732.19,-3341.66 737.83,-3342.41 743.25,-3343.25 748.45,-3344.17 753.4,-3345.17 758.08,-3346.26 762.48,-3347.42 766.59,-3348.66 770.38,-3349.96 773.86,-3351.33 777.02,-3352.77 779.84,-3354.26 782.32,-3355.81 784.46,-3357.4 786.25,-3359.05 787.71,-3360.73 788.82,-3362.46 789.6,-3364.21 790.04,-3365.99 790.16,-3367.8 789.97,-3369.62 789.46,-3371.46 788.66,-3373.3 787.56,-3375.15 786.2,-3376.99 784.57,-3378.82 782.69,-3380.65 780.58,-3382.45 778.24,-3384.23 775.7,-3385.99 772.96,-3387.71 770.05,-3389.4 766.97,-3391.04 763.74,-3392.64 760.37,-3394.19 756.88,-3395.68 753.27,-3397.11 749.56,-3398.49 745.76,-3399.79 741.89,-3401.03 737.94,-3402.19 733.93,-3403.27 729.87,-3404.28 725.77,-3405.2 721.62,-3406.04 717.45,-3406.79 713.24,-3407.45 709.02,-3408.02 704.78,-3408.5 700.52,-3408.88 696.25,-3409.17 691.98,-3409.36 687.7,-3409.46 683.42,-3409.46 679.14,-3409.36 674.87,-3409.17 670.6,-3408.88 666.35,-3408.5 662.1,-3408.02 657.88,-3407.45 653.68,-3406.79 649.5,-3406.04 645.36,-3405.2 641.25,-3404.28 637.19,-3403.27 633.18,-3402.19 629.24,-3401.03 625.36,-3399.79 621.56,-3398.49 617.85,-3397.11 614.25,-3395.68 610.75,-3394.19 607.38,-3392.64 604.15,-3391.04 601.07,-3389.4 598.16,-3387.71 595.42,-3385.99 592.88,-3384.23 590.54,-3382.45 588.43,-3380.65 586.55,-3378.82 584.92,-3376.99 583.56,-3375.15 582.47,-3373.3 581.66,-3371.46 581.16,-3369.62 580.96,-3367.8 581.08,-3365.99 581.52,-3364.21 582.3,-3362.46 583.41,-3360.73 584.87,-3359.05 586.67,-3357.4 588.8,-3355.81 591.29,-3354.26 594.11,-3352.77 597.26,-3351.33 600.74,-3349.96 604.54,-3348.66 608.64,-3347.42 613.04,-3346.26 617.72,-3345.17 622.67,-3344.17 627.87,-3343.25 633.3,-3342.41 638.93,-3341.66 644.76,-3341 650.75,-3340.43 656.88,-3339.95 663.13,-3339.57 669.47,-3339.28 675.88,-3339.08 682.33,-3338.99 688.79,-3338.99 695.24,-3339.08"/>
<text text-anchor="start" x="656.39" y="-3384.02" font-family="Times,serif" font-size="14.00">C1513749</text>
<text text-anchor="start" x="624.14" y="-3370.02" font-family="Times,serif" font-size="14.00">several anatomic sites</text>
<text text-anchor="start" x="662.62" y="-3356.02" font-family="Times,serif" font-size="14.00">165:167</text>
</g>
<!-- id_28134415_DOT_6&#45;&#45;id_28134415_DOT_22 -->
<g id="edge17" class="edge">
<title>id_28134415_DOT_6&#45;&#45;id_28134415_DOT_22</title>
<path fill="none" stroke="black" stroke-dasharray="1,5" d="M832.95,-3025.57C802.1,-3098.56 731.29,-3266.06 700.41,-3339.1"/>
<text text-anchor="middle" x="740.43" y="-3185.13" font-family="Times,serif" font-size="14.00">0.834597</text>
</g>
<!-- id_28134415_DOT_28 -->
<g id="node28" class="node">
<title>id_28134415_DOT_28</title>
<polygon fill="cadetblue" stroke="cadetblue" points="485.31,-2812.93 492.95,-2813.12 500.5,-2813.41 507.95,-2813.79 515.26,-2814.27 522.4,-2814.84 529.34,-2815.5 536.06,-2816.25 542.52,-2817.09 548.72,-2818.01 554.61,-2819.02 560.19,-2820.1 565.44,-2821.26 570.33,-2822.5 574.86,-2823.8 579,-2825.17 582.76,-2826.61 586.12,-2828.1 589.08,-2829.65 591.63,-2831.25 593.77,-2832.89 595.5,-2834.58 596.83,-2836.3 597.75,-2838.05 598.28,-2839.84 598.43,-2841.64 598.19,-2843.46 597.59,-2845.3 596.63,-2847.14 595.33,-2848.99 593.7,-2850.83 591.76,-2852.67 589.52,-2854.49 587,-2856.29 584.22,-2858.08 581.19,-2859.83 577.93,-2861.55 574.46,-2863.24 570.79,-2864.88 566.94,-2866.48 562.92,-2868.03 558.76,-2869.52 554.46,-2870.96 550.04,-2872.33 545.52,-2873.63 540.9,-2874.87 536.19,-2876.03 531.42,-2877.11 526.58,-2878.12 521.69,-2879.04 516.75,-2879.88 511.77,-2880.63 506.76,-2881.29 501.73,-2881.86 496.67,-2882.34 491.6,-2882.72 486.52,-2883.01 481.42,-2883.2 476.32,-2883.3 471.23,-2883.3 466.13,-2883.2 461.03,-2883.01 455.95,-2882.72 450.88,-2882.34 445.82,-2881.86 440.79,-2881.29 435.78,-2880.63 430.8,-2879.88 425.86,-2879.04 420.97,-2878.12 416.13,-2877.11 411.36,-2876.03 406.65,-2874.87 402.03,-2873.63 397.51,-2872.33 393.09,-2870.96 388.79,-2869.52 384.63,-2868.03 380.61,-2866.48 376.76,-2864.88 373.09,-2863.24 369.62,-2861.55 366.36,-2859.83 363.33,-2858.08 360.55,-2856.29 358.03,-2854.49 355.79,-2852.67 353.85,-2850.83 352.22,-2848.99 350.92,-2847.14 349.96,-2845.3 349.36,-2843.46 349.12,-2841.64 349.27,-2839.84 349.8,-2838.05 350.72,-2836.3 352.05,-2834.58 353.78,-2832.89 355.92,-2831.25 358.47,-2829.65 361.43,-2828.1 364.79,-2826.61 368.55,-2825.17 372.69,-2823.8 377.22,-2822.5 382.11,-2821.26 387.36,-2820.1 392.94,-2819.02 398.83,-2818.01 405.03,-2817.09 411.49,-2816.25 418.21,-2815.5 425.15,-2814.84 432.29,-2814.27 439.6,-2813.79 447.05,-2813.41 454.6,-2813.12 462.24,-2812.93 469.92,-2812.83 477.63,-2812.83 485.31,-2812.93"/>
<text text-anchor="start" x="444.61" y="-2857.86" font-family="Times,serif" font-size="14.00">C1708333</text>
<text text-anchor="start" x="399.06" y="-2843.86" font-family="Times,serif" font-size="14.00">resuscitation organizations</text>
<text text-anchor="start" x="450.83" y="-2829.86" font-family="Times,serif" font-size="14.00">204:205</text>
</g>
<!-- id_28134415_DOT_6&#45;&#45;id_28134415_DOT_28 -->
<g id="edge18" class="edge">
<title>id_28134415_DOT_6&#45;&#45;id_28134415_DOT_28</title>
<path fill="none" stroke="black" stroke-dasharray="1,5" d="M766.16,-2959.42C699.43,-2934 606.1,-2898.46 542.98,-2874.42"/>
<text text-anchor="middle" x="628.32" y="-2919.72" font-family="Times,serif" font-size="14.00">0.586808</text>
</g>
<!-- id_28134415_DOT_7 -->
<g id="node7" class="node">
<title>id_28134415_DOT_7</title>
<polygon fill="chartreuse" stroke="chartreuse" points="99.19,-2813.98 104.74,-2814.17 110.23,-2814.46 115.64,-2814.84 120.96,-2815.32 126.15,-2815.89 131.19,-2816.55 136.07,-2817.3 140.77,-2818.14 145.28,-2819.06 149.56,-2820.07 153.62,-2821.15 157.43,-2822.31 160.98,-2823.55 164.27,-2824.85 167.29,-2826.23 170.02,-2827.66 172.46,-2829.15 174.61,-2830.7 176.46,-2832.3 178.02,-2833.94 179.28,-2835.63 180.24,-2837.35 180.92,-2839.11 181.3,-2840.89 181.41,-2842.69 181.23,-2844.52 180.8,-2846.35 180.1,-2848.19 179.15,-2850.04 177.97,-2851.88 176.56,-2853.72 174.93,-2855.54 173.1,-2857.34 171.08,-2859.13 168.88,-2860.88 166.51,-2862.61 163.98,-2864.29 161.32,-2865.94 158.52,-2867.53 155.6,-2869.08 152.57,-2870.57 149.45,-2872.01 146.24,-2873.38 142.95,-2874.68 139.59,-2875.92 136.17,-2877.08 132.7,-2878.16 129.18,-2879.17 125.63,-2880.09 122.04,-2880.93 118.42,-2881.68 114.78,-2882.34 111.12,-2882.91 107.45,-2883.39 103.76,-2883.77 100.06,-2884.06 96.36,-2884.26 92.66,-2884.35 88.95,-2884.35 85.24,-2884.26 81.54,-2884.06 77.85,-2883.77 74.16,-2883.39 70.48,-2882.91 66.82,-2882.34 63.18,-2881.68 59.57,-2880.93 55.98,-2880.09 52.42,-2879.17 48.9,-2878.16 45.43,-2877.08 42.01,-2875.92 38.66,-2874.68 35.37,-2873.38 32.15,-2872.01 29.03,-2870.57 26,-2869.08 23.09,-2867.53 20.29,-2865.94 17.62,-2864.29 15.09,-2862.61 12.73,-2860.88 10.52,-2859.13 8.5,-2857.34 6.67,-2855.54 5.04,-2853.72 3.63,-2851.88 2.45,-2850.04 1.5,-2848.19 0.81,-2846.35 0.37,-2844.52 0.2,-2842.69 0.3,-2840.89 0.69,-2839.11 1.36,-2837.35 2.32,-2835.63 3.58,-2833.94 5.14,-2832.3 6.99,-2830.7 9.14,-2829.15 11.59,-2827.66 14.32,-2826.23 17.33,-2824.85 20.62,-2823.55 24.18,-2822.31 27.99,-2821.15 32.04,-2820.07 36.33,-2819.06 40.83,-2818.14 45.53,-2817.3 50.41,-2816.55 55.46,-2815.89 60.65,-2815.32 65.96,-2814.84 71.37,-2814.46 76.87,-2814.17 82.42,-2813.98 88,-2813.88 93.6,-2813.88 99.19,-2813.98"/>
<text text-anchor="start" x="61.63" y="-2858.92" font-family="Times,serif" font-size="14.00">C1254351</text>
<text text-anchor="start" x="38.51" y="-2844.92" font-family="Times,serif" font-size="14.00">resuscitative drugs</text>
<text text-anchor="start" x="74.86" y="-2830.92" font-family="Times,serif" font-size="14.00">32:33</text>
</g>
<!-- id_28134415_DOT_7&#45;&#45;id_28134415_DOT_28 -->
<g id="edge4" class="edge">
<title>id_28134415_DOT_7&#45;&#45;id_28134415_DOT_28</title>
<path fill="none" stroke="black" d="M180.11,-2848.87C231.17,-2848.73 295.93,-2848.55 351.64,-2848.4"/>
<text text-anchor="middle" x="239.62" y="-2851.44" font-family="Times,serif" font-size="14.00">0.203553</text>
</g>
<!-- id_28134415_DOT_8 -->
<g id="node8" class="node">
<title>id_28134415_DOT_8</title>
<polygon fill="coral" stroke="coral" points="3205.71,-0.23 3211.26,-0.42 3216.75,-0.71 3222.16,-1.09 3227.47,-1.57 3232.66,-2.14 3237.71,-2.8 3242.59,-3.55 3247.29,-4.39 3251.79,-5.31 3256.07,-6.32 3260.13,-7.4 3263.94,-8.57 3267.49,-9.8 3270.78,-11.1 3273.79,-12.48 3276.52,-13.91 3278.97,-15.4 3281.11,-16.95 3282.97,-18.55 3284.52,-20.19 3285.78,-21.88 3286.75,-23.6 3287.42,-25.36 3287.81,-27.14 3287.91,-28.94 3287.74,-30.77 3287.3,-32.6 3286.6,-34.44 3285.66,-36.29 3284.48,-38.13 3283.06,-39.97 3281.44,-41.79 3279.61,-43.6 3277.59,-45.38 3275.38,-47.13 3273.02,-48.86 3270.49,-50.54 3267.82,-52.19 3265.03,-53.78 3262.11,-55.33 3259.08,-56.82 3255.96,-58.26 3252.75,-59.63 3249.46,-60.94 3246.1,-62.17 3242.69,-63.33 3239.21,-64.42 3235.7,-65.42 3232.14,-66.34 3228.55,-67.18 3224.94,-67.93 3221.3,-68.59 3217.64,-69.16 3213.97,-69.64 3210.28,-70.02 3206.58,-70.31 3202.88,-70.51 3199.18,-70.6 3195.47,-70.6 3191.77,-70.51 3188.07,-70.31 3184.37,-70.02 3180.69,-69.64 3177.01,-69.16 3173.35,-68.59 3169.71,-67.93 3166.1,-67.18 3162.51,-66.34 3158.95,-65.42 3155.44,-64.42 3151.97,-63.33 3148.55,-62.17 3145.19,-60.94 3141.9,-59.63 3138.69,-58.26 3135.57,-56.82 3132.54,-55.33 3129.62,-53.78 3126.83,-52.19 3124.16,-50.54 3121.64,-48.86 3119.27,-47.13 3117.07,-45.38 3115.04,-43.6 3113.21,-41.79 3111.59,-39.97 3110.18,-38.13 3108.99,-36.29 3108.05,-34.44 3107.35,-32.6 3106.91,-30.77 3106.74,-28.94 3106.85,-27.14 3107.23,-25.36 3107.9,-23.6 3108.87,-21.88 3110.13,-20.19 3111.68,-18.55 3113.54,-16.95 3115.69,-15.4 3118.13,-13.91 3120.86,-12.48 3123.87,-11.1 3127.16,-9.8 3130.71,-8.57 3134.53,-7.4 3138.58,-6.32 3142.87,-5.31 3147.37,-4.39 3152.06,-3.55 3156.95,-2.8 3161.99,-2.14 3167.18,-1.57 3172.49,-1.09 3177.9,-0.71 3183.39,-0.42 3188.94,-0.23 3194.53,-0.13 3200.12,-0.13 3205.71,-0.23"/>
<text text-anchor="start" x="3168.16" y="-45.17" font-family="Times,serif" font-size="14.00">C0013125</text>
<text text-anchor="start" x="3145.04" y="-31.17" font-family="Times,serif" font-size="14.00">intravenous access</text>
<text text-anchor="start" x="3181.38" y="-17.17" font-family="Times,serif" font-size="14.00">37:38</text>
</g>
<!-- id_28134415_DOT_29 -->
<g id="node29" class="node">
<title>id_28134415_DOT_29</title>
<polygon fill="coral" stroke="coral" points="3003.78,-324.29 3009.33,-324.48 3014.82,-324.77 3020.23,-325.15 3025.54,-325.63 3030.73,-326.2 3035.77,-326.86 3040.65,-327.61 3045.35,-328.45 3049.85,-329.37 3054.14,-330.38 3058.19,-331.46 3062,-332.62 3065.56,-333.86 3068.85,-335.16 3071.86,-336.53 3074.59,-337.97 3077.03,-339.46 3079.18,-341.01 3081.04,-342.61 3082.59,-344.25 3083.85,-345.94 3084.82,-347.66 3085.49,-349.41 3085.87,-351.2 3085.98,-353 3085.81,-354.82 3085.37,-356.66 3084.67,-358.5 3083.73,-360.35 3082.54,-362.19 3081.13,-364.03 3079.51,-365.85 3077.68,-367.65 3075.65,-369.44 3073.45,-371.19 3071.08,-372.91 3068.56,-374.6 3065.89,-376.24 3063.09,-377.84 3060.18,-379.39 3057.15,-380.88 3054.03,-382.32 3050.82,-383.69 3047.53,-384.99 3044.17,-386.23 3040.75,-387.39 3037.28,-388.47 3033.77,-389.48 3030.21,-390.4 3026.62,-391.24 3023.01,-391.99 3019.37,-392.65 3015.71,-393.22 3012.03,-393.7 3008.35,-394.08 3004.65,-394.37 3000.95,-394.56 2997.25,-394.66 2993.54,-394.66 2989.84,-394.56 2986.13,-394.37 2982.44,-394.08 2978.75,-393.7 2975.08,-393.22 2971.42,-392.65 2967.78,-391.99 2964.16,-391.24 2960.58,-390.4 2957.02,-389.48 2953.5,-388.47 2950.03,-387.39 2946.62,-386.23 2943.26,-384.99 2939.97,-383.69 2936.76,-382.32 2933.64,-380.88 2930.61,-379.39 2927.69,-377.84 2924.89,-376.24 2922.23,-374.6 2919.7,-372.91 2917.33,-371.19 2915.13,-369.44 2913.11,-367.65 2911.28,-365.85 2909.65,-364.03 2908.24,-362.19 2907.06,-360.35 2906.12,-358.5 2905.42,-356.66 2904.98,-354.82 2904.81,-353 2904.91,-351.2 2905.3,-349.41 2905.97,-347.66 2906.94,-345.94 2908.2,-344.25 2909.75,-342.61 2911.6,-341.01 2913.75,-339.46 2916.19,-337.97 2918.92,-336.53 2921.94,-335.16 2925.23,-333.86 2928.78,-332.62 2932.59,-331.46 2936.65,-330.38 2940.93,-329.37 2945.43,-328.45 2950.13,-327.61 2955.01,-326.86 2960.06,-326.2 2965.25,-325.63 2970.56,-325.15 2975.97,-324.77 2981.46,-324.48 2987.01,-324.29 2992.6,-324.19 2998.19,-324.19 3003.78,-324.29"/>
<text text-anchor="start" x="2966.22" y="-369.23" font-family="Times,serif" font-size="14.00">C0013125</text>
<text text-anchor="start" x="2943.11" y="-355.23" font-family="Times,serif" font-size="14.00">intravenous access</text>
<text text-anchor="start" x="2972.45" y="-341.23" font-family="Times,serif" font-size="14.00">216:217</text>
</g>
<!-- id_28134415_DOT_8&#45;&#45;id_28134415_DOT_29 -->
<g id="edge5" class="edge">
<title>id_28134415_DOT_8&#45;&#45;id_28134415_DOT_29</title>
<path fill="none" stroke="black" d="M3176.29,-69.13C3137.7,-131.06 3056,-262.17 3016.99,-324.76"/>
<text text-anchor="middle" x="3070.39" y="-199.75" font-family="Times,serif" font-size="14.00">0.121052</text>
</g>
<!-- id_28134415_DOT_9 -->
<g id="node9" class="node">
<title>id_28134415_DOT_9</title>
<polygon fill="cornflowerblue" stroke="cornflowerblue" points="3031.44,-1065.5 3034.87,-1065.69 3038.26,-1065.98 3041.61,-1066.37 3044.89,-1066.84 3048.09,-1067.41 3051.21,-1068.08 3054.22,-1068.83 3057.12,-1069.66 3059.9,-1070.59 3062.55,-1071.59 3065.06,-1072.68 3067.41,-1073.84 3069.61,-1075.07 3071.64,-1076.38 3073.5,-1077.75 3075.19,-1079.18 3076.69,-1080.68 3078.02,-1082.22 3079.17,-1083.82 3080.13,-1085.47 3080.91,-1087.15 3081.5,-1088.87 3081.92,-1090.63 3082.16,-1092.41 3082.22,-1094.22 3082.11,-1096.04 3081.84,-1097.87 3081.41,-1099.72 3080.83,-1101.56 3080.1,-1103.41 3079.23,-1105.24 3078.22,-1107.06 3077.09,-1108.87 3075.84,-1110.65 3074.48,-1112.41 3073.02,-1114.13 3071.46,-1115.81 3069.81,-1117.46 3068.08,-1119.06 3066.28,-1120.6 3064.41,-1122.1 3062.48,-1123.53 3060.5,-1124.9 3058.47,-1126.21 3056.39,-1127.44 3054.28,-1128.6 3052.14,-1129.69 3049.97,-1130.69 3047.77,-1131.62 3045.55,-1132.45 3043.32,-1133.2 3041.07,-1133.87 3038.81,-1134.44 3036.54,-1134.91 3034.26,-1135.3 3031.98,-1135.59 3029.7,-1135.78 3027.41,-1135.88 3025.12,-1135.88 3022.83,-1135.78 3020.54,-1135.59 3018.26,-1135.3 3015.98,-1134.91 3013.71,-1134.44 3011.45,-1133.87 3009.21,-1133.2 3006.97,-1132.45 3004.76,-1131.62 3002.56,-1130.69 3000.39,-1129.69 2998.24,-1128.6 2996.13,-1127.44 2994.06,-1126.21 2992.03,-1124.9 2990.04,-1123.53 2988.11,-1122.1 2986.24,-1120.6 2984.44,-1119.06 2982.71,-1117.46 2981.07,-1115.81 2979.51,-1114.13 2978.04,-1112.41 2976.68,-1110.65 2975.43,-1108.87 2974.3,-1107.06 2973.3,-1105.24 2972.43,-1103.41 2971.7,-1101.56 2971.11,-1099.72 2970.68,-1097.87 2970.41,-1096.04 2970.31,-1094.22 2970.37,-1092.41 2970.61,-1090.63 2971.02,-1088.87 2971.62,-1087.15 2972.4,-1085.47 2973.36,-1083.82 2974.5,-1082.22 2975.83,-1080.68 2977.34,-1079.18 2979.03,-1077.75 2980.89,-1076.38 2982.92,-1075.07 2985.11,-1073.84 2987.47,-1072.68 2989.97,-1071.59 2992.62,-1070.59 2995.4,-1069.66 2998.3,-1068.83 3001.32,-1068.08 3004.43,-1067.41 3007.64,-1066.84 3010.92,-1066.37 3014.26,-1065.98 3017.66,-1065.69 3021.08,-1065.5 3024.53,-1065.4 3027.99,-1065.4 3031.44,-1065.5"/>
<text text-anchor="start" x="2997.09" y="-1110.44" font-family="Times,serif" font-size="14.00">C0871685</text>
<text text-anchor="start" x="2999.44" y="-1096.44" font-family="Times,serif" font-size="14.00">clinicians</text>
<text text-anchor="start" x="3010.32" y="-1082.44" font-family="Times,serif" font-size="14.00">48:48</text>
</g>
<!-- id_28134415_DOT_23 -->
<g id="node23" class="node">
<title>id_28134415_DOT_23</title>
<polygon fill="cornflowerblue" stroke="cornflowerblue" points="3427.58,-976.7 3431.01,-976.89 3434.4,-977.18 3437.75,-977.57 3441.03,-978.04 3444.23,-978.61 3447.35,-979.27 3450.36,-980.03 3453.26,-980.86 3456.04,-981.79 3458.69,-982.79 3461.2,-983.88 3463.55,-985.04 3465.75,-986.27 3467.78,-987.58 3469.64,-988.95 3471.33,-990.38 3472.83,-991.87 3474.16,-993.42 3475.31,-995.02 3476.27,-996.66 3477.05,-998.35 3477.64,-1000.07 3478.06,-1001.83 3478.3,-1003.61 3478.36,-1005.42 3478.25,-1007.24 3477.98,-1009.07 3477.55,-1010.92 3476.97,-1012.76 3476.24,-1014.6 3475.37,-1016.44 3474.36,-1018.26 3473.23,-1020.07 3471.98,-1021.85 3470.62,-1023.61 3469.16,-1025.33 3467.6,-1027.01 3465.95,-1028.66 3464.22,-1030.26 3462.42,-1031.8 3460.55,-1033.3 3458.62,-1034.73 3456.64,-1036.1 3454.61,-1037.41 3452.53,-1038.64 3450.42,-1039.8 3448.28,-1040.89 3446.11,-1041.89 3443.91,-1042.82 3441.69,-1043.65 3439.46,-1044.4 3437.21,-1045.06 3434.95,-1045.64 3432.68,-1046.11 3430.4,-1046.5 3428.12,-1046.79 3425.84,-1046.98 3423.55,-1047.07 3421.26,-1047.07 3418.97,-1046.98 3416.68,-1046.79 3414.4,-1046.5 3412.12,-1046.11 3409.85,-1045.64 3407.59,-1045.06 3405.35,-1044.4 3403.11,-1043.65 3400.9,-1042.82 3398.7,-1041.89 3396.53,-1040.89 3394.38,-1039.8 3392.27,-1038.64 3390.2,-1037.41 3388.17,-1036.1 3386.18,-1034.73 3384.25,-1033.3 3382.38,-1031.8 3380.58,-1030.26 3378.85,-1028.66 3377.21,-1027.01 3375.65,-1025.33 3374.18,-1023.61 3372.82,-1021.85 3371.57,-1020.07 3370.44,-1018.26 3369.44,-1016.44 3368.57,-1014.6 3367.84,-1012.76 3367.25,-1010.92 3366.82,-1009.07 3366.55,-1007.24 3366.45,-1005.42 3366.51,-1003.61 3366.75,-1001.83 3367.16,-1000.07 3367.76,-998.35 3368.54,-996.66 3369.5,-995.02 3370.64,-993.42 3371.97,-991.87 3373.48,-990.38 3375.17,-988.95 3377.03,-987.58 3379.06,-986.27 3381.25,-985.04 3383.61,-983.88 3386.11,-982.79 3388.76,-981.79 3391.54,-980.86 3394.44,-980.03 3397.46,-979.27 3400.57,-978.61 3403.78,-978.04 3407.06,-977.57 3410.4,-977.18 3413.8,-976.89 3417.22,-976.7 3420.67,-976.6 3424.13,-976.6 3427.58,-976.7"/>
<text text-anchor="start" x="3393.23" y="-1021.64" font-family="Times,serif" font-size="14.00">C0871685</text>
<text text-anchor="start" x="3395.58" y="-1007.64" font-family="Times,serif" font-size="14.00">clinicians</text>
<text text-anchor="start" x="3399.46" y="-993.64" font-family="Times,serif" font-size="14.00">173:173</text>
</g>
<!-- id_28134415_DOT_9&#45;&#45;id_28134415_DOT_23 -->
<g id="edge6" class="edge">
<title>id_28134415_DOT_9&#45;&#45;id_28134415_DOT_23</title>
<path fill="none" stroke="black" d="M3081.34,-1088.29C3158.94,-1070.9 3299.23,-1039.45 3373.39,-1022.83"/>
<text text-anchor="middle" x="3201.12" y="-1058.36" font-family="Times,serif" font-size="14.00">0.009712</text>
</g>
<!-- id_28134415_DOT_9&#45;&#45;id_28134415_DOT_25 -->
<g id="edge19" class="edge">
<title>id_28134415_DOT_9&#45;&#45;id_28134415_DOT_25</title>
<path fill="none" stroke="black" stroke-dasharray="1,5" d="M2970.14,-1096.6C2894.83,-1091.17 2761.1,-1081.53 2679.55,-1075.65"/>
<text text-anchor="middle" x="2798.59" y="-1088.92" font-family="Times,serif" font-size="14.00">0.807792</text>
</g>
<!-- id_28134415_DOT_11 -->
<g id="node11" class="node">
<title>id_28134415_DOT_11</title>
<polygon fill="darkgoldenrod" stroke="darkgoldenrod" points="2387.35,-2317.33 2390.9,-2317.52 2394.41,-2317.81 2397.87,-2318.2 2401.26,-2318.67 2404.58,-2319.24 2407.8,-2319.9 2410.92,-2320.65 2413.93,-2321.49 2416.8,-2322.42 2419.54,-2323.42 2422.13,-2324.51 2424.57,-2325.67 2426.84,-2326.9 2428.94,-2328.21 2430.87,-2329.58 2432.61,-2331.01 2434.17,-2332.5 2435.55,-2334.05 2436.73,-2335.65 2437.73,-2337.29 2438.53,-2338.98 2439.15,-2340.7 2439.58,-2342.46 2439.82,-2344.24 2439.89,-2346.05 2439.78,-2347.87 2439.5,-2349.7 2439.05,-2351.55 2438.45,-2353.39 2437.69,-2355.23 2436.79,-2357.07 2435.75,-2358.89 2434.58,-2360.7 2433.29,-2362.48 2431.88,-2364.23 2430.37,-2365.96 2428.76,-2367.64 2427.05,-2369.29 2425.26,-2370.89 2423.4,-2372.43 2421.47,-2373.93 2419.47,-2375.36 2417.42,-2376.73 2415.32,-2378.04 2413.17,-2379.27 2410.98,-2380.43 2408.77,-2381.52 2406.52,-2382.52 2404.25,-2383.44 2401.95,-2384.28 2399.64,-2385.03 2397.32,-2385.69 2394.98,-2386.26 2392.63,-2386.74 2390.27,-2387.13 2387.91,-2387.41 2385.55,-2387.61 2383.18,-2387.7 2380.81,-2387.7 2378.44,-2387.61 2376.08,-2387.41 2373.71,-2387.13 2371.36,-2386.74 2369.01,-2386.26 2366.67,-2385.69 2364.35,-2385.03 2362.03,-2384.28 2359.74,-2383.44 2357.47,-2382.52 2355.22,-2381.52 2353,-2380.43 2350.82,-2379.27 2348.67,-2378.04 2346.57,-2376.73 2344.52,-2375.36 2342.52,-2373.93 2340.59,-2372.43 2338.72,-2370.89 2336.93,-2369.29 2335.23,-2367.64 2333.62,-2365.96 2332.1,-2364.23 2330.7,-2362.48 2329.4,-2360.7 2328.23,-2358.89 2327.19,-2357.07 2326.29,-2355.23 2325.54,-2353.39 2324.93,-2351.55 2324.49,-2349.7 2324.21,-2347.87 2324.1,-2346.05 2324.16,-2344.24 2324.41,-2342.46 2324.84,-2340.7 2325.46,-2338.98 2326.26,-2337.29 2327.26,-2335.65 2328.44,-2334.05 2329.81,-2332.5 2331.37,-2331.01 2333.12,-2329.58 2335.05,-2328.21 2337.15,-2326.9 2339.42,-2325.67 2341.86,-2324.51 2344.45,-2323.42 2347.19,-2322.42 2350.06,-2321.49 2353.07,-2320.65 2356.19,-2319.9 2359.41,-2319.24 2362.72,-2318.67 2366.12,-2318.2 2369.58,-2317.81 2373.09,-2317.52 2376.64,-2317.33 2380.21,-2317.23 2383.78,-2317.23 2387.35,-2317.33"/>
<text text-anchor="start" x="2352.82" y="-2362.27" font-family="Times,serif" font-size="14.00">C0596545</text>
<text text-anchor="start" x="2351.68" y="-2348.27" font-family="Times,serif" font-size="14.00">experience</text>
<text text-anchor="start" x="2366.05" y="-2334.27" font-family="Times,serif" font-size="14.00">53:53</text>
</g>
<!-- id_28134415_DOT_11&#45;&#45;id_28134415_DOT_14 -->
<g id="edge20" class="edge">
<title>id_28134415_DOT_11&#45;&#45;id_28134415_DOT_14</title>
<path fill="none" stroke="black" stroke-dasharray="1,5" d="M2387.87,-2317.24C2401.36,-2236.31 2434.45,-2037.9 2447.92,-1957.08"/>
<text text-anchor="middle" x="2391.64" y="-2139.96" font-family="Times,serif" font-size="14.00">0.522294</text>
</g>
<!-- id_28134415_DOT_20 -->
<g id="node20" class="node">
<title>id_28134415_DOT_20</title>
<polygon fill="darkred" stroke="darkred" points="2727.65,-2592.23 2734.02,-2592.42 2740.32,-2592.71 2746.52,-2593.09 2752.61,-2593.57 2758.56,-2594.14 2764.35,-2594.8 2769.95,-2595.55 2775.34,-2596.39 2780.5,-2597.31 2785.41,-2598.32 2790.06,-2599.4 2794.43,-2600.56 2798.51,-2601.8 2802.28,-2603.1 2805.74,-2604.47 2808.87,-2605.91 2811.67,-2607.4 2814.13,-2608.95 2816.26,-2610.55 2818.04,-2612.19 2819.49,-2613.88 2820.59,-2615.6 2821.36,-2617.36 2821.8,-2619.14 2821.92,-2620.94 2821.73,-2622.77 2821.22,-2624.6 2820.43,-2626.44 2819.34,-2628.29 2817.99,-2630.13 2816.37,-2631.97 2814.5,-2633.79 2812.4,-2635.59 2810.08,-2637.38 2807.56,-2639.13 2804.84,-2640.85 2801.95,-2642.54 2798.89,-2644.18 2795.68,-2645.78 2792.34,-2647.33 2788.87,-2648.82 2785.28,-2650.26 2781.6,-2651.63 2777.83,-2652.93 2773.98,-2654.17 2770.06,-2655.33 2766.08,-2656.41 2762.05,-2657.42 2757.97,-2658.34 2753.85,-2659.18 2749.71,-2659.93 2745.53,-2660.59 2741.34,-2661.16 2737.12,-2661.64 2732.9,-2662.02 2728.66,-2662.31 2724.41,-2662.51 2720.17,-2662.6 2715.92,-2662.6 2711.67,-2662.51 2707.42,-2662.31 2703.18,-2662.02 2698.96,-2661.64 2694.74,-2661.16 2690.55,-2660.59 2686.37,-2659.93 2682.23,-2659.18 2678.11,-2658.34 2674.03,-2657.42 2670,-2656.41 2666.02,-2655.33 2662.1,-2654.17 2658.25,-2652.93 2654.48,-2651.63 2650.8,-2650.26 2647.22,-2648.82 2643.75,-2647.33 2640.4,-2645.78 2637.19,-2644.18 2634.13,-2642.54 2631.24,-2640.85 2628.52,-2639.13 2626,-2637.38 2623.68,-2635.59 2621.58,-2633.79 2619.71,-2631.97 2618.09,-2630.13 2616.74,-2628.29 2615.65,-2626.44 2614.86,-2624.6 2614.35,-2622.77 2614.16,-2620.94 2614.28,-2619.14 2614.72,-2617.36 2615.49,-2615.6 2616.6,-2613.88 2618.04,-2612.19 2619.82,-2610.55 2621.95,-2608.95 2624.41,-2607.4 2627.21,-2605.91 2630.34,-2604.47 2633.8,-2603.1 2637.57,-2601.8 2641.65,-2600.56 2646.02,-2599.4 2650.67,-2598.32 2655.58,-2597.31 2660.74,-2596.39 2666.13,-2595.55 2671.73,-2594.8 2677.52,-2594.14 2683.47,-2593.57 2689.56,-2593.09 2695.76,-2592.71 2702.06,-2592.42 2708.43,-2592.23 2714.83,-2592.13 2721.25,-2592.13 2727.65,-2592.23"/>
<text text-anchor="start" x="2688.87" y="-2637.17" font-family="Times,serif" font-size="14.00">C0009566</text>
<text text-anchor="start" x="2657.19" y="-2623.17" font-family="Times,serif" font-size="14.00">serious complications</text>
<text text-anchor="start" x="2695.1" y="-2609.17" font-family="Times,serif" font-size="14.00">152:153</text>
</g>
<!-- id_28134415_DOT_11&#45;&#45;id_28134415_DOT_20 -->
<g id="edge21" class="edge">
<title>id_28134415_DOT_11&#45;&#45;id_28134415_DOT_20</title>
<path fill="none" stroke="black" stroke-dasharray="1,5" d="M2414.22,-2378.83C2475.74,-2429.15 2609.81,-2538.83 2677.38,-2594.11"/>
<text text-anchor="middle" x="2519.55" y="-2489.27" font-family="Times,serif" font-size="14.00">0.771687</text>
</g>
<!-- id_28134415_DOT_26 -->
<g id="node26" class="node">
<title>id_28134415_DOT_26</title>
<polygon fill="darkslategrey" stroke="darkslategrey" points="1989.65,-2498.53 1993.61,-2498.73 1997.52,-2499.02 2001.38,-2499.4 2005.17,-2499.88 2008.87,-2500.45 2012.46,-2501.11 2015.95,-2501.86 2019.3,-2502.7 2022.5,-2503.62 2025.56,-2504.62 2028.45,-2505.71 2031.17,-2506.87 2033.7,-2508.11 2036.05,-2509.41 2038.2,-2510.78 2040.14,-2512.22 2041.88,-2513.71 2043.42,-2515.26 2044.74,-2516.85 2045.85,-2518.5 2046.74,-2520.18 2047.43,-2521.91 2047.91,-2523.66 2048.19,-2525.44 2048.26,-2527.25 2048.14,-2529.07 2047.83,-2530.91 2047.33,-2532.75 2046.66,-2534.6 2045.81,-2536.44 2044.81,-2538.27 2043.65,-2540.1 2042.34,-2541.9 2040.9,-2543.68 2039.33,-2545.44 2037.64,-2547.16 2035.84,-2548.85 2033.94,-2550.49 2031.95,-2552.09 2029.86,-2553.64 2027.71,-2555.13 2025.48,-2556.56 2023.19,-2557.94 2020.85,-2559.24 2018.45,-2560.48 2016.02,-2561.64 2013.54,-2562.72 2011.03,-2563.73 2008.5,-2564.65 2005.94,-2565.49 2003.36,-2566.24 2000.77,-2566.9 1998.16,-2567.47 1995.54,-2567.95 1992.91,-2568.33 1990.27,-2568.62 1987.64,-2568.81 1984.99,-2568.91 1982.35,-2568.91 1979.71,-2568.81 1977.07,-2568.62 1974.44,-2568.33 1971.81,-2567.95 1969.19,-2567.47 1966.58,-2566.9 1963.99,-2566.24 1961.41,-2565.49 1958.85,-2564.65 1956.31,-2563.73 1953.81,-2562.72 1951.33,-2561.64 1948.89,-2560.48 1946.5,-2559.24 1944.16,-2557.94 1941.87,-2556.56 1939.64,-2555.13 1937.48,-2553.64 1935.4,-2552.09 1933.41,-2550.49 1931.5,-2548.85 1929.71,-2547.16 1928.02,-2545.44 1926.45,-2543.68 1925,-2541.9 1923.7,-2540.1 1922.54,-2538.27 1921.53,-2536.44 1920.69,-2534.6 1920.02,-2532.75 1919.52,-2530.91 1919.21,-2529.07 1919.09,-2527.25 1919.16,-2525.44 1919.43,-2523.66 1919.91,-2521.91 1920.6,-2520.18 1921.5,-2518.5 1922.61,-2516.85 1923.93,-2515.26 1925.46,-2513.71 1927.2,-2512.22 1929.15,-2510.78 1931.3,-2509.41 1933.64,-2508.11 1936.18,-2506.87 1938.9,-2505.71 1941.79,-2504.62 1944.84,-2503.62 1948.05,-2502.7 1951.4,-2501.86 1954.88,-2501.11 1958.48,-2500.45 1962.18,-2499.88 1965.96,-2499.4 1969.82,-2499.02 1973.74,-2498.73 1977.7,-2498.53 1981.68,-2498.44 1985.67,-2498.44 1989.65,-2498.53"/>
<text text-anchor="start" x="1954.5" y="-2543.47" font-family="Times,serif" font-size="14.00">C2745965</text>
<text text-anchor="start" x="1948.82" y="-2529.47" font-family="Times,serif" font-size="14.00">emergencies</text>
<text text-anchor="start" x="1960.73" y="-2515.47" font-family="Times,serif" font-size="14.00">182:182</text>
</g>
<!-- id_28134415_DOT_11&#45;&#45;id_28134415_DOT_26 -->
<g id="edge22" class="edge">
<title>id_28134415_DOT_11&#45;&#45;id_28134415_DOT_26</title>
<path fill="none" stroke="black" stroke-dasharray="1,5" d="M2339.37,-2371.86C2266.11,-2405.19 2116.53,-2473.23 2036.68,-2509.56"/>
<text text-anchor="middle" x="2161.77" y="-2443.51" font-family="Times,serif" font-size="14.00">0.690765</text>
</g>
<!-- id_28134415_DOT_12 -->
<g id="node12" class="node">
<title>id_28134415_DOT_12</title>
<polygon fill="darkgreen" stroke="darkgreen" points="1784.69,-133.44 1788.12,-133.63 1791.51,-133.92 1794.85,-134.3 1798.13,-134.78 1801.34,-135.35 1804.46,-136.01 1807.47,-136.76 1810.37,-137.6 1813.15,-138.52 1815.8,-139.53 1818.31,-140.61 1820.66,-141.77 1822.86,-143.01 1824.89,-144.31 1826.75,-145.69 1828.44,-147.12 1829.94,-148.61 1831.27,-150.16 1832.42,-151.76 1833.38,-153.4 1834.15,-155.09 1834.75,-156.81 1835.17,-158.57 1835.4,-160.35 1835.47,-162.15 1835.36,-163.98 1835.09,-165.81 1834.66,-167.65 1834.08,-169.5 1833.35,-171.34 1832.48,-173.18 1831.47,-175 1830.34,-176.81 1829.09,-178.59 1827.73,-180.34 1826.27,-182.07 1824.71,-183.75 1823.06,-185.4 1821.33,-186.99 1819.53,-188.54 1817.66,-190.03 1815.73,-191.47 1813.75,-192.84 1811.72,-194.14 1809.64,-195.38 1807.53,-196.54 1805.39,-197.63 1803.22,-198.63 1801.02,-199.55 1798.8,-200.39 1796.57,-201.14 1794.32,-201.8 1792.06,-202.37 1789.79,-202.85 1787.51,-203.23 1785.23,-203.52 1782.94,-203.72 1780.66,-203.81 1778.37,-203.81 1776.08,-203.72 1773.79,-203.52 1771.51,-203.23 1769.23,-202.85 1766.96,-202.37 1764.7,-201.8 1762.45,-201.14 1760.22,-200.39 1758,-199.55 1755.81,-198.63 1753.64,-197.63 1751.49,-196.54 1749.38,-195.38 1747.31,-194.14 1745.27,-192.84 1743.29,-191.47 1741.36,-190.03 1739.49,-188.54 1737.69,-186.99 1735.96,-185.4 1734.31,-183.75 1732.76,-182.07 1731.29,-180.34 1729.93,-178.59 1728.68,-176.81 1727.55,-175 1726.55,-173.18 1725.68,-171.34 1724.95,-169.5 1724.36,-167.65 1723.93,-165.81 1723.66,-163.98 1723.55,-162.15 1723.62,-160.35 1723.86,-158.57 1724.27,-156.81 1724.87,-155.09 1725.65,-153.4 1726.61,-151.76 1727.75,-150.16 1729.08,-148.61 1730.59,-147.12 1732.27,-145.69 1734.14,-144.31 1736.17,-143.01 1738.36,-141.77 1740.72,-140.61 1743.22,-139.53 1745.87,-138.52 1748.65,-137.6 1751.55,-136.76 1754.57,-136.01 1757.68,-135.35 1760.89,-134.78 1764.17,-134.3 1767.51,-133.92 1770.91,-133.63 1774.33,-133.44 1777.78,-133.34 1781.24,-133.34 1784.69,-133.44"/>
<text text-anchor="start" x="1750.34" y="-178.38" font-family="Times,serif" font-size="14.00">C0282443</text>
<text text-anchor="start" x="1760.47" y="-164.38" font-family="Times,serif" font-size="14.00">review</text>
<text text-anchor="start" x="1763.57" y="-150.38" font-family="Times,serif" font-size="14.00">63:63</text>
</g>
<!-- id_28134415_DOT_13 -->
<g id="node13" class="node">
<title>id_28134415_DOT_13</title>
<polygon fill="darkgreen" stroke="darkgreen" points="2012.08,-446.97 2016.85,-447.17 2021.57,-447.45 2026.22,-447.84 2030.78,-448.32 2035.24,-448.89 2039.57,-449.55 2043.76,-450.3 2047.8,-451.14 2051.66,-452.06 2055.35,-453.06 2058.83,-454.15 2062.1,-455.31 2065.16,-456.54 2067.98,-457.85 2070.57,-459.22 2072.92,-460.65 2075.01,-462.15 2076.86,-463.69 2078.45,-465.29 2079.79,-466.94 2080.87,-468.62 2081.7,-470.35 2082.28,-472.1 2082.61,-473.88 2082.7,-475.69 2082.55,-477.51 2082.17,-479.35 2081.57,-481.19 2080.76,-483.03 2079.75,-484.88 2078.53,-486.71 2077.14,-488.53 2075.56,-490.34 2073.83,-492.12 2071.94,-493.88 2069.9,-495.6 2067.73,-497.29 2065.44,-498.93 2063.04,-500.53 2060.53,-502.08 2057.93,-503.57 2055.25,-505 2052.49,-506.37 2049.67,-507.68 2046.78,-508.91 2043.85,-510.08 2040.86,-511.16 2037.84,-512.16 2034.79,-513.09 2031.71,-513.93 2028.6,-514.68 2025.47,-515.34 2022.33,-515.91 2019.18,-516.39 2016.01,-516.77 2012.83,-517.06 2009.66,-517.25 2006.47,-517.35 2003.29,-517.35 2000.11,-517.25 1996.93,-517.06 1993.75,-516.77 1990.59,-516.39 1987.43,-515.91 1984.29,-515.34 1981.16,-514.68 1978.05,-513.93 1974.97,-513.09 1971.92,-512.16 1968.9,-511.16 1965.92,-510.08 1962.98,-508.91 1960.1,-507.68 1957.27,-506.37 1954.51,-505 1951.83,-503.57 1949.23,-502.08 1946.72,-500.53 1944.32,-498.93 1942.03,-497.29 1939.86,-495.6 1937.83,-493.88 1935.93,-492.12 1934.2,-490.34 1932.63,-488.53 1931.23,-486.71 1930.02,-484.88 1929,-483.03 1928.19,-481.19 1927.59,-479.35 1927.21,-477.51 1927.07,-475.69 1927.16,-473.88 1927.49,-472.1 1928.06,-470.35 1928.89,-468.62 1929.98,-466.94 1931.31,-465.29 1932.9,-463.69 1934.75,-462.15 1936.85,-460.65 1939.19,-459.22 1941.78,-457.85 1944.61,-456.54 1947.66,-455.31 1950.93,-454.15 1954.42,-453.06 1958.1,-452.06 1961.96,-451.14 1966,-450.3 1970.19,-449.55 1974.53,-448.89 1978.98,-448.32 1983.55,-447.84 1988.2,-447.45 1992.91,-447.17 1997.68,-446.97 2002.48,-446.88 2007.28,-446.88 2012.08,-446.97"/>
<text text-anchor="start" x="1975.71" y="-491.91" font-family="Times,serif" font-size="14.00">C0282443</text>
<text text-anchor="start" x="1961.15" y="-477.91" font-family="Times,serif" font-size="14.00">succinct review</text>
<text text-anchor="start" x="1988.94" y="-463.91" font-family="Times,serif" font-size="14.00">71:72</text>
</g>
<!-- id_28134415_DOT_12&#45;&#45;id_28134415_DOT_13 -->
<g id="edge7" class="edge">
<title>id_28134415_DOT_12&#45;&#45;id_28134415_DOT_13</title>
<path fill="none" stroke="black" d="M1801.74,-199.5C1844.16,-258.51 1936.36,-386.79 1980.45,-448.12"/>
<text text-anchor="middle" x="1864.84" y="-326.61" font-family="Times,serif" font-size="14.00">0.026308</text>
</g>
<!-- id_28134415_DOT_19 -->
<g id="node19" class="node">
<title>id_28134415_DOT_19</title>
<polygon fill="darkorange" stroke="darkorange" points="2284.09,-754.81 2291.46,-755 2298.74,-755.29 2305.93,-755.68 2312.97,-756.15 2319.86,-756.72 2326.55,-757.39 2333.03,-758.14 2339.27,-758.97 2345.24,-759.9 2350.93,-760.9 2356.31,-761.99 2361.36,-763.15 2366.08,-764.38 2370.45,-765.69 2374.44,-767.06 2378.07,-768.49 2381.31,-769.99 2384.16,-771.53 2386.62,-773.13 2388.68,-774.78 2390.35,-776.46 2391.63,-778.18 2392.53,-779.94 2393.04,-781.72 2393.18,-783.53 2392.95,-785.35 2392.37,-787.18 2391.44,-789.03 2390.19,-790.87 2388.62,-792.72 2386.75,-794.55 2384.59,-796.37 2382.16,-798.18 2379.48,-799.96 2376.55,-801.72 2373.41,-803.44 2370.06,-805.12 2366.52,-806.77 2362.81,-808.37 2358.94,-809.91 2354.92,-811.41 2350.78,-812.84 2346.52,-814.21 2342.15,-815.52 2337.7,-816.75 2333.16,-817.91 2328.55,-819 2323.89,-820 2319.17,-820.93 2314.41,-821.76 2309.61,-822.51 2304.78,-823.18 2299.92,-823.75 2295.05,-824.22 2290.16,-824.61 2285.25,-824.9 2280.34,-825.09 2275.43,-825.19 2270.51,-825.19 2265.59,-825.09 2260.68,-824.9 2255.78,-824.61 2250.89,-824.22 2246.01,-823.75 2241.15,-823.18 2236.32,-822.51 2231.52,-821.76 2226.76,-820.93 2222.04,-820 2217.38,-819 2212.77,-817.91 2208.24,-816.75 2203.78,-815.52 2199.42,-814.21 2195.16,-812.84 2191.01,-811.41 2187,-809.91 2183.12,-808.37 2179.41,-806.77 2175.87,-805.12 2172.52,-803.44 2169.38,-801.72 2166.46,-799.96 2163.77,-798.18 2161.34,-796.37 2159.19,-794.55 2157.31,-792.72 2155.74,-790.87 2154.49,-789.03 2153.57,-787.18 2152.98,-785.35 2152.76,-783.53 2152.9,-781.72 2153.41,-779.94 2154.3,-778.18 2155.58,-776.46 2157.25,-774.78 2159.32,-773.13 2161.77,-771.53 2164.63,-769.99 2167.87,-768.49 2171.49,-767.06 2175.49,-765.69 2179.85,-764.38 2184.57,-763.15 2189.63,-761.99 2195.01,-760.9 2200.69,-759.9 2206.67,-758.97 2212.9,-758.14 2219.38,-757.39 2226.07,-756.72 2232.96,-756.15 2240.01,-755.68 2247.19,-755.29 2254.48,-755 2261.84,-754.81 2269.25,-754.71 2276.68,-754.71 2284.09,-754.81"/>
<text text-anchor="start" x="2243.8" y="-799.75" font-family="Times,serif" font-size="14.00">C0444454</text>
<text text-anchor="start" x="2201.05" y="-785.75" font-family="Times,serif" font-size="14.00">prompt circulatory access</text>
<text text-anchor="start" x="2250.02" y="-771.75" font-family="Times,serif" font-size="14.00">135:137</text>
</g>
<!-- id_28134415_DOT_13&#45;&#45;id_28134415_DOT_19 -->
<g id="edge23" class="edge">
<title>id_28134415_DOT_13&#45;&#45;id_28134415_DOT_19</title>
<path fill="none" stroke="black" stroke-dasharray="1,5" d="M2032.56,-513.9C2083.13,-571.96 2190.07,-694.76 2242.58,-755.05"/>
<text text-anchor="middle" x="2111.58" y="-637.27" font-family="Times,serif" font-size="14.00">0.711639</text>
</g>
<!-- id_28134415_DOT_18 -->
<g id="node18" class="node">
<title>id_28134415_DOT_18</title>
<polygon fill="darkmagenta" stroke="darkmagenta" points="3034.85,-2865.13 3040.5,-2865.32 3046.09,-2865.61 3051.6,-2865.99 3057,-2866.47 3062.28,-2867.04 3067.41,-2867.7 3072.38,-2868.45 3077.17,-2869.29 3081.75,-2870.21 3086.11,-2871.22 3090.23,-2872.3 3094.11,-2873.46 3097.73,-2874.7 3101.08,-2876 3104.14,-2877.37 3106.92,-2878.81 3109.41,-2880.3 3111.59,-2881.85 3113.48,-2883.45 3115.06,-2885.09 3116.35,-2886.78 3117.33,-2888.5 3118.01,-2890.25 3118.4,-2892.04 3118.51,-2893.84 3118.34,-2895.66 3117.89,-2897.5 3117.18,-2899.34 3116.22,-2901.19 3115.02,-2903.03 3113.58,-2904.87 3111.92,-2906.69 3110.06,-2908.49 3108,-2910.28 3105.76,-2912.03 3103.35,-2913.75 3100.78,-2915.44 3098.07,-2917.08 3095.22,-2918.68 3092.25,-2920.23 3089.17,-2921.72 3085.99,-2923.16 3082.73,-2924.53 3079.38,-2925.83 3075.96,-2927.07 3072.48,-2928.23 3068.95,-2929.31 3065.37,-2930.32 3061.75,-2931.24 3058.1,-2932.08 3054.42,-2932.83 3050.72,-2933.49 3046.99,-2934.06 3043.25,-2934.54 3039.5,-2934.92 3035.74,-2935.21 3031.97,-2935.4 3028.2,-2935.5 3024.43,-2935.5 3020.66,-2935.4 3016.89,-2935.21 3013.13,-2934.92 3009.38,-2934.54 3005.64,-2934.06 3001.92,-2933.49 2998.21,-2932.83 2994.53,-2932.08 2990.88,-2931.24 2987.26,-2930.32 2983.68,-2929.31 2980.15,-2928.23 2976.67,-2927.07 2973.26,-2925.83 2969.91,-2924.53 2966.64,-2923.16 2963.46,-2921.72 2960.38,-2920.23 2957.41,-2918.68 2954.57,-2917.08 2951.85,-2915.44 2949.28,-2913.75 2946.87,-2912.03 2944.63,-2910.28 2942.57,-2908.49 2940.71,-2906.69 2939.06,-2904.87 2937.62,-2903.03 2936.42,-2901.19 2935.45,-2899.34 2934.75,-2897.5 2934.3,-2895.66 2934.12,-2893.84 2934.23,-2892.04 2934.62,-2890.25 2935.31,-2888.5 2936.29,-2886.78 2937.57,-2885.09 2939.15,-2883.45 2941.04,-2881.85 2943.23,-2880.3 2945.71,-2878.81 2948.49,-2877.37 2951.56,-2876 2954.9,-2874.7 2958.52,-2873.46 2962.4,-2872.3 2966.53,-2871.22 2970.89,-2870.21 2975.47,-2869.29 2980.25,-2868.45 2985.22,-2867.7 2990.35,-2867.04 2995.63,-2866.47 3001.04,-2865.99 3006.55,-2865.61 3012.14,-2865.32 3017.79,-2865.13 3023.47,-2865.03 3029.17,-2865.03 3034.85,-2865.13"/>
<text text-anchor="start" x="2997.15" y="-2910.06" font-family="Times,serif" font-size="14.00">C0233467</text>
<text text-anchor="start" x="2973" y="-2896.06" font-family="Times,serif" font-size="14.00">negatively affected</text>
<text text-anchor="start" x="3003.37" y="-2882.06" font-family="Times,serif" font-size="14.00">132:133</text>
</g>
<!-- id_28134415_DOT_15&#45;&#45;id_28134415_DOT_18 -->
<g id="edge24" class="edge">
<title>id_28134415_DOT_15&#45;&#45;id_28134415_DOT_18</title>
<path fill="none" stroke="black" stroke-dasharray="1,5" d="M3266.09,-3175.49C3213.71,-3115.36 3106.02,-2991.75 3054.71,-2932.86"/>
<text text-anchor="middle" x="3134.15" y="-3056.97" font-family="Times,serif" font-size="14.00">0.777804</text>
</g>
<!-- id_28134415_DOT_27 -->
<g id="node27" class="node">
<title>id_28134415_DOT_27</title>
<polygon fill="blue" stroke="blue" points="4318.86,-3705.88 4322.29,-3706.08 4325.68,-3706.37 4329.02,-3706.75 4332.3,-3707.23 4335.51,-3707.8 4338.62,-3708.46 4341.64,-3709.21 4344.54,-3710.05 4347.32,-3710.97 4349.97,-3711.98 4352.47,-3713.06 4354.83,-3714.22 4357.02,-3715.46 4359.06,-3716.76 4360.92,-3718.13 4362.6,-3719.57 4364.11,-3721.06 4365.44,-3722.61 4366.58,-3724.21 4367.54,-3725.85 4368.32,-3727.54 4368.92,-3729.26 4369.33,-3731.01 4369.57,-3732.8 4369.64,-3734.6 4369.53,-3736.42 4369.26,-3738.26 4368.83,-3740.1 4368.25,-3741.95 4367.51,-3743.79 4366.64,-3745.62 4365.64,-3747.45 4364.51,-3749.25 4363.26,-3751.03 4361.9,-3752.79 4360.44,-3754.51 4358.88,-3756.2 4357.23,-3757.84 4355.5,-3759.44 4353.7,-3760.99 4351.83,-3762.48 4349.9,-3763.92 4347.92,-3765.29 4345.89,-3766.59 4343.81,-3767.83 4341.7,-3768.99 4339.56,-3770.07 4337.38,-3771.08 4335.19,-3772 4332.97,-3772.84 4330.74,-3773.59 4328.49,-3774.25 4326.23,-3774.82 4323.96,-3775.3 4321.68,-3775.68 4319.4,-3775.97 4317.11,-3776.16 4314.82,-3776.26 4312.54,-3776.26 4310.25,-3776.16 4307.96,-3775.97 4305.68,-3775.68 4303.4,-3775.3 4301.13,-3774.82 4298.87,-3774.25 4296.62,-3773.59 4294.39,-3772.84 4292.17,-3772 4289.98,-3771.08 4287.8,-3770.07 4285.66,-3768.99 4283.55,-3767.83 4281.47,-3766.59 4279.44,-3765.29 4277.46,-3763.92 4275.53,-3762.48 4273.66,-3760.99 4271.86,-3759.44 4270.13,-3757.84 4268.48,-3756.2 4266.92,-3754.51 4265.46,-3752.79 4264.1,-3751.03 4262.85,-3749.25 4261.72,-3747.45 4260.72,-3745.62 4259.84,-3743.79 4259.11,-3741.95 4258.53,-3740.1 4258.1,-3738.26 4257.83,-3736.42 4257.72,-3734.6 4257.79,-3732.8 4258.03,-3731.01 4258.44,-3729.26 4259.04,-3727.54 4259.81,-3725.85 4260.78,-3724.21 4261.92,-3722.61 4263.25,-3721.06 4264.76,-3719.57 4266.44,-3718.13 4268.3,-3716.76 4270.34,-3715.46 4272.53,-3714.22 4274.89,-3713.06 4277.39,-3711.98 4280.04,-3710.97 4282.82,-3710.05 4285.72,-3709.21 4288.74,-3708.46 4291.85,-3707.8 4295.06,-3707.23 4298.34,-3706.75 4301.68,-3706.37 4305.07,-3706.08 4308.5,-3705.88 4311.95,-3705.79 4315.41,-3705.79 4318.86,-3705.88"/>
<text text-anchor="start" x="4284.51" y="-3750.82" font-family="Times,serif" font-size="14.00">C0025080</text>
<text text-anchor="start" x="4292.69" y="-3736.82" font-family="Times,serif" font-size="14.00">devices</text>
<text text-anchor="start" x="4290.73" y="-3722.82" font-family="Times,serif" font-size="14.00">194:194</text>
</g>
<!-- id_28134415_DOT_16&#45;&#45;id_28134415_DOT_27 -->
<g id="edge8" class="edge">
<title>id_28134415_DOT_16&#45;&#45;id_28134415_DOT_27</title>
<path fill="none" stroke="black" d="M4050.64,-3534.62C4105.97,-3578.04 4218.17,-3666.08 4276.53,-3711.88"/>
<text text-anchor="middle" x="4137.34" y="-3626.05" font-family="Times,serif" font-size="14.00">0.021404</text>
</g>
<!-- id_28134415_DOT_17 -->
<g id="node17" class="node">
<title>id_28134415_DOT_17</title>
<polygon fill="darkkhaki" stroke="darkkhaki" points="2800.11,-673.07 2803.88,-673.27 2807.61,-673.55 2811.28,-673.94 2814.88,-674.42 2818.4,-674.99 2821.83,-675.65 2825.14,-676.4 2828.33,-677.24 2831.38,-678.16 2834.29,-679.16 2837.04,-680.25 2839.63,-681.41 2842.04,-682.64 2844.27,-683.95 2846.32,-685.32 2848.17,-686.75 2849.83,-688.25 2851.28,-689.79 2852.54,-691.39 2853.6,-693.04 2854.45,-694.72 2855.11,-696.45 2855.56,-698.2 2855.82,-699.98 2855.9,-701.79 2855.78,-703.61 2855.48,-705.45 2855.01,-707.29 2854.37,-709.13 2853.56,-710.98 2852.61,-712.81 2851.5,-714.64 2850.26,-716.44 2848.89,-718.22 2847.4,-719.98 2845.79,-721.7 2844.08,-723.39 2842.27,-725.03 2840.37,-726.63 2838.39,-728.18 2836.33,-729.67 2834.21,-731.1 2832.04,-732.47 2829.8,-733.78 2827.53,-735.01 2825.21,-736.18 2822.85,-737.26 2820.47,-738.27 2818.05,-739.19 2815.62,-740.03 2813.16,-740.78 2810.69,-741.44 2808.21,-742.01 2805.72,-742.49 2803.22,-742.87 2800.71,-743.16 2798.2,-743.35 2795.68,-743.45 2793.17,-743.45 2790.65,-743.35 2788.14,-743.16 2785.64,-742.87 2783.13,-742.49 2780.64,-742.01 2778.16,-741.44 2775.69,-740.78 2773.23,-740.03 2770.8,-739.19 2768.39,-738.27 2766,-737.26 2763.65,-736.18 2761.33,-735.01 2759.05,-733.78 2756.82,-732.47 2754.64,-731.1 2752.52,-729.67 2750.47,-728.18 2748.49,-726.63 2746.59,-725.03 2744.78,-723.39 2743.06,-721.7 2741.46,-719.98 2739.96,-718.22 2738.59,-716.44 2737.35,-714.64 2736.24,-712.81 2735.29,-710.98 2734.48,-709.13 2733.84,-707.29 2733.37,-705.45 2733.07,-703.61 2732.96,-701.79 2733.03,-699.98 2733.29,-698.2 2733.75,-696.45 2734.4,-694.72 2735.25,-693.04 2736.31,-691.39 2737.57,-689.79 2739.03,-688.25 2740.68,-686.75 2742.54,-685.32 2744.58,-683.95 2746.81,-682.64 2749.22,-681.41 2751.81,-680.25 2754.56,-679.16 2757.47,-678.16 2760.52,-677.24 2763.71,-676.4 2767.03,-675.65 2770.45,-674.99 2773.97,-674.42 2777.57,-673.94 2781.25,-673.55 2784.97,-673.27 2788.74,-673.07 2792.53,-672.98 2796.32,-672.98 2800.11,-673.07"/>
<text text-anchor="start" x="2765.26" y="-718.01" font-family="Times,serif" font-size="14.00">C0348016</text>
<text text-anchor="start" x="2761.77" y="-704.01" font-family="Times,serif" font-size="14.00">intravenous</text>
<text text-anchor="start" x="2771.99" y="-690.01" font-family="Times,serif" font-size="14.00">119:119</text>
</g>
<!-- id_28134415_DOT_17&#45;&#45;id_28134415_DOT_25 -->
<g id="edge25" class="edge">
<title>id_28134415_DOT_17&#45;&#45;id_28134415_DOT_25</title>
<path fill="none" stroke="black" stroke-dasharray="1,5" d="M2777.58,-741.34C2742.8,-809.75 2663.3,-966.08 2627.81,-1035.88"/>
<text text-anchor="middle" x="2676.45" y="-891.41" font-family="Times,serif" font-size="14.00">0.763425</text>
</g>
<!-- id_28134415_DOT_17&#45;&#45;id_28134415_DOT_29 -->
<g id="edge9" class="edge">
<title>id_28134415_DOT_17&#45;&#45;id_28134415_DOT_29</title>
<path fill="none" stroke="black" d="M2814.06,-674.13C2852.53,-607.37 2937.41,-460.05 2975.83,-393.38"/>
<text text-anchor="middle" x="2868.69" y="-536.56" font-family="Times,serif" font-size="14.00">0.087870</text>
</g>
<!-- id_28134415_DOT_18&#45;&#45;id_28134415_DOT_20 -->
<g id="edge26" class="edge">
<title>id_28134415_DOT_18&#45;&#45;id_28134415_DOT_20</title>
<path fill="none" stroke="black" stroke-dasharray="1,5" d="M2988.82,-2867.08C2929.13,-2814.23 2813.24,-2711.64 2754.32,-2659.48"/>
<text text-anchor="middle" x="2845.32" y="-2766.08" font-family="Times,serif" font-size="14.00">0.777749</text>
</g>
<!-- id_28134415_DOT_19&#45;&#45;id_28134415_DOT_25 -->
<g id="edge27" class="edge">
<title>id_28134415_DOT_19&#45;&#45;id_28134415_DOT_25</title>
<path fill="none" stroke="black" stroke-dasharray="1,5" d="M2311.97,-822.42C2377.15,-876.69 2507.4,-985.12 2572,-1038.9"/>
<text text-anchor="middle" x="2415.74" y="-933.46" font-family="Times,serif" font-size="14.00">0.778278</text>
</g>
<!-- id_28134415_DOT_21 -->
<g id="node21" class="node">
<title>id_28134415_DOT_21</title>
<polygon fill="blue" stroke="blue" points="4574.66,-3975.53 4579.72,-3975.73 4584.74,-3976.01 4589.68,-3976.4 4594.53,-3976.88 4599.26,-3977.45 4603.87,-3978.11 4608.32,-3978.86 4612.61,-3979.7 4616.72,-3980.62 4620.63,-3981.62 4624.33,-3982.71 4627.81,-3983.87 4631.05,-3985.1 4634.06,-3986.41 4636.81,-3987.78 4639.3,-3989.21 4641.53,-3990.71 4643.49,-3992.25 4645.18,-3993.85 4646.6,-3995.5 4647.75,-3997.18 4648.63,-3998.91 4649.24,-4000.66 4649.6,-4002.44 4649.69,-4004.25 4649.53,-4006.07 4649.13,-4007.91 4648.5,-4009.75 4647.64,-4011.59 4646.56,-4013.44 4645.27,-4015.27 4643.78,-4017.09 4642.11,-4018.9 4640.27,-4020.68 4638.26,-4022.44 4636.1,-4024.16 4633.79,-4025.85 4631.36,-4027.49 4628.8,-4029.09 4626.14,-4030.64 4623.38,-4032.13 4620.53,-4033.56 4617.6,-4034.93 4614.6,-4036.24 4611.53,-4037.47 4608.41,-4038.64 4605.24,-4039.72 4602.03,-4040.72 4598.79,-4041.65 4595.51,-4042.49 4592.21,-4043.24 4588.89,-4043.9 4585.55,-4044.47 4582.2,-4044.95 4578.83,-4045.33 4575.46,-4045.62 4572.08,-4045.81 4568.7,-4045.91 4565.32,-4045.91 4561.93,-4045.81 4558.56,-4045.62 4555.18,-4045.33 4551.82,-4044.95 4548.47,-4044.47 4545.13,-4043.9 4541.8,-4043.24 4538.5,-4042.49 4535.23,-4041.65 4531.98,-4040.72 4528.77,-4039.72 4525.6,-4038.64 4522.48,-4037.47 4519.42,-4036.24 4516.42,-4034.93 4513.49,-4033.56 4510.64,-4032.13 4507.87,-4030.64 4505.21,-4029.09 4502.66,-4027.49 4500.22,-4025.85 4497.92,-4024.16 4495.76,-4022.44 4493.75,-4020.68 4491.9,-4018.9 4490.23,-4017.09 4488.75,-4015.27 4487.46,-4013.44 4486.38,-4011.59 4485.52,-4009.75 4484.88,-4007.91 4484.48,-4006.07 4484.32,-4004.25 4484.42,-4002.44 4484.77,-4000.66 4485.39,-3998.91 4486.27,-3997.18 4487.42,-3995.5 4488.84,-3993.85 4490.53,-3992.25 4492.49,-3990.71 4494.72,-3989.21 4497.21,-3987.78 4499.96,-3986.41 4502.96,-3985.1 4506.21,-3983.87 4509.68,-3982.71 4513.39,-3981.62 4517.3,-3980.62 4521.4,-3979.7 4525.69,-3978.86 4530.15,-3978.11 4534.75,-3977.45 4539.49,-3976.88 4544.34,-3976.4 4549.28,-3976.01 4554.29,-3975.73 4559.36,-3975.53 4564.45,-3975.44 4569.56,-3975.44 4574.66,-3975.53"/>
<text text-anchor="start" x="4537.84" y="-4020.47" font-family="Times,serif" font-size="14.00">C0025080</text>
<text text-anchor="start" x="4520.17" y="-4006.47" font-family="Times,serif" font-size="14.00">powered devices</text>
<text text-anchor="start" x="4544.06" y="-3992.47" font-family="Times,serif" font-size="14.00">158:159</text>
</g>
<!-- id_28134415_DOT_21&#45;&#45;id_28134415_DOT_27 -->
<g id="edge10" class="edge">
<title>id_28134415_DOT_21&#45;&#45;id_28134415_DOT_27</title>
<path fill="none" stroke="black" d="M4535.44,-3977.07C4485.17,-3923.56 4387.81,-3819.93 4340.62,-3769.7"/>
<text text-anchor="middle" x="4411.78" y="-3876.18" font-family="Times,serif" font-size="14.00">0.028090</text>
</g>
<!-- id_28134415_DOT_24&#45;&#45;id_28134415_DOT_26 -->
<g id="edge28" class="edge">
<title>id_28134415_DOT_24&#45;&#45;id_28134415_DOT_26</title>
<path fill="none" stroke="black" stroke-dasharray="1,5" d="M1656.98,-2689.59C1729.94,-2654.77 1868.06,-2588.85 1939.06,-2554.96"/>
<text text-anchor="middle" x="1771.77" y="-2625.08" font-family="Times,serif" font-size="14.00">0.716874</text>
</g>
</g>
</svg>
