<?xml version="1.0" encoding="UTF-8" standalone="no"?>
<!DOCTYPE svg PUBLIC "-//W3C//DTD SVG 1.1//EN"
 "http://www.w3.org/Graphics/SVG/1.1/DTD/svg11.dtd">
<!-- Generated by graphviz version 2.42.3 (20191010.1750)
 -->
<!-- Title: MST Pages: 1 -->
<svg width="1738pt" height="2745pt"
 viewBox="0.00 0.00 1737.81 2745.50" xmlns="http://www.w3.org/2000/svg" xmlns:xlink="http://www.w3.org/1999/xlink">
<g id="graph0" class="graph" transform="scale(1 1) rotate(0) translate(4 2741.5)">
<title>MST</title>
<polygon fill="white" stroke="transparent" points="-4,4 -4,-2741.5 1733.81,-2741.5 1733.81,4 -4,4"/>
<!-- id_28138631_DOT_1 -->
<g id="node1" class="node">
<title>id_28138631_DOT_1</title>
<polygon fill="aquamarine" stroke="aquamarine" points="1203.17,-1680.41 1206.6,-1680.6 1209.99,-1680.89 1213.33,-1681.28 1216.61,-1681.75 1219.82,-1682.32 1222.93,-1682.98 1225.95,-1683.74 1228.85,-1684.57 1231.63,-1685.5 1234.28,-1686.5 1236.78,-1687.59 1239.14,-1688.75 1241.33,-1689.98 1243.37,-1691.29 1245.23,-1692.66 1246.91,-1694.09 1248.42,-1695.58 1249.75,-1697.13 1250.89,-1698.73 1251.86,-1700.37 1252.63,-1702.06 1253.23,-1703.78 1253.65,-1705.54 1253.88,-1707.32 1253.95,-1709.13 1253.84,-1710.95 1253.57,-1712.78 1253.14,-1714.63 1252.56,-1716.47 1251.83,-1718.31 1250.95,-1720.15 1249.95,-1721.97 1248.82,-1723.78 1247.57,-1725.56 1246.21,-1727.31 1244.75,-1729.04 1243.19,-1730.72 1241.54,-1732.37 1239.81,-1733.97 1238.01,-1735.51 1236.14,-1737.01 1234.21,-1738.44 1232.23,-1739.81 1230.2,-1741.12 1228.12,-1742.35 1226.01,-1743.51 1223.87,-1744.6 1221.69,-1745.6 1219.5,-1746.52 1217.28,-1747.36 1215.05,-1748.11 1212.8,-1748.77 1210.54,-1749.34 1208.27,-1749.82 1205.99,-1750.21 1203.71,-1750.49 1201.42,-1750.69 1199.14,-1750.78 1196.85,-1750.78 1194.56,-1750.69 1192.27,-1750.49 1189.99,-1750.21 1187.71,-1749.82 1185.44,-1749.34 1183.18,-1748.77 1180.93,-1748.11 1178.7,-1747.36 1176.48,-1746.52 1174.29,-1745.6 1172.11,-1744.6 1169.97,-1743.51 1167.86,-1742.35 1165.79,-1741.12 1163.75,-1739.81 1161.77,-1738.44 1159.84,-1737.01 1157.97,-1735.51 1156.17,-1733.97 1154.44,-1732.37 1152.79,-1730.72 1151.23,-1729.04 1149.77,-1727.31 1148.41,-1725.56 1147.16,-1723.78 1146.03,-1721.97 1145.03,-1720.15 1144.16,-1718.31 1143.42,-1716.47 1142.84,-1714.63 1142.41,-1712.78 1142.14,-1710.95 1142.03,-1709.13 1142.1,-1707.32 1142.34,-1705.54 1142.75,-1703.78 1143.35,-1702.06 1144.13,-1700.37 1145.09,-1698.73 1146.23,-1697.13 1147.56,-1695.58 1149.07,-1694.09 1150.75,-1692.66 1152.62,-1691.29 1154.65,-1689.98 1156.84,-1688.75 1159.2,-1687.59 1161.7,-1686.5 1164.35,-1685.5 1167.13,-1684.57 1170.03,-1683.74 1173.05,-1682.98 1176.16,-1682.32 1179.37,-1681.75 1182.65,-1681.28 1185.99,-1680.89 1189.38,-1680.6 1192.81,-1680.41 1196.26,-1680.31 1199.72,-1680.31 1203.17,-1680.41"/>
<text text-anchor="start" x="1168.82" y="-1725.35" font-family="Times,serif" font-size="14.00">C0030274</text>
<text text-anchor="start" x="1168.84" y="-1711.35" font-family="Times,serif" font-size="14.00">Pancreatic</text>
<text text-anchor="start" x="1189.05" y="-1697.35" font-family="Times,serif" font-size="14.00">0:0</text>
</g>
<!-- id_28138631_DOT_4 -->
<g id="node4" class="node">
<title>id_28138631_DOT_4</title>
<polygon fill="aquamarine" stroke="aquamarine" points="1147.77,-1311.36 1151.2,-1311.55 1154.59,-1311.84 1157.93,-1312.22 1161.21,-1312.7 1164.42,-1313.27 1167.54,-1313.93 1170.55,-1314.68 1173.45,-1315.52 1176.23,-1316.44 1178.88,-1317.45 1181.39,-1318.53 1183.74,-1319.69 1185.94,-1320.93 1187.97,-1322.23 1189.83,-1323.6 1191.52,-1325.04 1193.02,-1326.53 1194.35,-1328.08 1195.5,-1329.68 1196.46,-1331.32 1197.23,-1333.01 1197.83,-1334.73 1198.25,-1336.48 1198.48,-1338.27 1198.55,-1340.07 1198.44,-1341.89 1198.17,-1343.73 1197.74,-1345.57 1197.16,-1347.42 1196.43,-1349.26 1195.56,-1351.09 1194.55,-1352.92 1193.42,-1354.72 1192.17,-1356.5 1190.81,-1358.26 1189.35,-1359.98 1187.79,-1361.67 1186.14,-1363.31 1184.41,-1364.91 1182.61,-1366.46 1180.74,-1367.95 1178.81,-1369.39 1176.83,-1370.76 1174.8,-1372.06 1172.72,-1373.3 1170.61,-1374.46 1168.47,-1375.54 1166.3,-1376.55 1164.1,-1377.47 1161.88,-1378.31 1159.65,-1379.06 1157.4,-1379.72 1155.14,-1380.29 1152.87,-1380.77 1150.59,-1381.15 1148.31,-1381.44 1146.02,-1381.63 1143.74,-1381.73 1141.45,-1381.73 1139.16,-1381.63 1136.87,-1381.44 1134.59,-1381.15 1132.31,-1380.77 1130.04,-1380.29 1127.78,-1379.72 1125.53,-1379.06 1123.3,-1378.31 1121.08,-1377.47 1118.89,-1376.55 1116.72,-1375.54 1114.57,-1374.46 1112.46,-1373.3 1110.39,-1372.06 1108.35,-1370.76 1106.37,-1369.39 1104.44,-1367.95 1102.57,-1366.46 1100.77,-1364.91 1099.04,-1363.31 1097.39,-1361.67 1095.84,-1359.98 1094.37,-1358.26 1093.01,-1356.5 1091.76,-1354.72 1090.63,-1352.92 1089.63,-1351.09 1088.76,-1349.26 1088.03,-1347.42 1087.44,-1345.57 1087.01,-1343.73 1086.74,-1341.89 1086.64,-1340.07 1086.7,-1338.27 1086.94,-1336.48 1087.35,-1334.73 1087.95,-1333.01 1088.73,-1331.32 1089.69,-1329.68 1090.83,-1328.08 1092.16,-1326.53 1093.67,-1325.04 1095.35,-1323.6 1097.22,-1322.23 1099.25,-1320.93 1101.44,-1319.69 1103.8,-1318.53 1106.3,-1317.45 1108.95,-1316.44 1111.73,-1315.52 1114.63,-1314.68 1117.65,-1313.93 1120.76,-1313.27 1123.97,-1312.7 1127.25,-1312.22 1130.59,-1311.84 1133.99,-1311.55 1137.41,-1311.36 1140.86,-1311.26 1144.32,-1311.26 1147.77,-1311.36"/>
<text text-anchor="start" x="1113.42" y="-1356.29" font-family="Times,serif" font-size="14.00">C0030274</text>
<text text-anchor="start" x="1113.44" y="-1342.29" font-family="Times,serif" font-size="14.00">Pancreatic</text>
<text text-anchor="start" x="1126.65" y="-1328.29" font-family="Times,serif" font-size="14.00">15:15</text>
</g>
<!-- id_28138631_DOT_1&#45;&#45;id_28138631_DOT_4 -->
<g id="edge1" class="edge">
<title>id_28138631_DOT_1&#45;&#45;id_28138631_DOT_4</title>
<path fill="none" stroke="black" d="M1192.68,-1680.16C1182.08,-1609.53 1158.4,-1451.82 1147.85,-1381.5"/>
<text text-anchor="middle" x="1144.01" y="-1533.63" font-family="Times,serif" font-size="14.00">0.001430</text>
</g>
<!-- id_28138631_DOT_7 -->
<g id="node7" class="node">
<title>id_28138631_DOT_7</title>
<polygon fill="cadetblue" stroke="cadetblue" points="1300.26,-2034.85 1303.69,-2035.04 1307.09,-2035.33 1310.43,-2035.71 1313.71,-2036.19 1316.91,-2036.76 1320.03,-2037.42 1323.05,-2038.17 1325.95,-2039.01 1328.73,-2039.93 1331.38,-2040.94 1333.88,-2042.02 1336.23,-2043.18 1338.43,-2044.42 1340.46,-2045.72 1342.32,-2047.09 1344.01,-2048.53 1345.52,-2050.02 1346.85,-2051.57 1347.99,-2053.17 1348.95,-2054.81 1349.73,-2056.5 1350.33,-2058.22 1350.74,-2059.97 1350.98,-2061.76 1351.04,-2063.56 1350.94,-2065.38 1350.67,-2067.22 1350.24,-2069.06 1349.65,-2070.91 1348.92,-2072.75 1348.05,-2074.59 1347.05,-2076.41 1345.92,-2078.21 1344.67,-2080 1343.31,-2081.75 1341.84,-2083.47 1340.28,-2085.16 1338.64,-2086.8 1336.91,-2088.4 1335.11,-2089.95 1333.24,-2091.44 1331.31,-2092.88 1329.32,-2094.25 1327.29,-2095.55 1325.22,-2096.79 1323.11,-2097.95 1320.96,-2099.03 1318.79,-2100.04 1316.59,-2100.96 1314.38,-2101.8 1312.14,-2102.55 1309.9,-2103.21 1307.63,-2103.78 1305.37,-2104.26 1303.09,-2104.64 1300.81,-2104.93 1298.52,-2105.12 1296.23,-2105.22 1293.94,-2105.22 1291.65,-2105.12 1289.37,-2104.93 1287.08,-2104.64 1284.81,-2104.26 1282.54,-2103.78 1280.28,-2103.21 1278.03,-2102.55 1275.8,-2101.8 1273.58,-2100.96 1271.38,-2100.04 1269.21,-2099.03 1267.07,-2097.95 1264.96,-2096.79 1262.88,-2095.55 1260.85,-2094.25 1258.87,-2092.88 1256.94,-2091.44 1255.07,-2089.95 1253.27,-2088.4 1251.54,-2086.8 1249.89,-2085.16 1248.33,-2083.47 1246.87,-2081.75 1245.51,-2080 1244.26,-2078.21 1243.13,-2076.41 1242.12,-2074.59 1241.25,-2072.75 1240.52,-2070.91 1239.94,-2069.06 1239.51,-2067.22 1239.24,-2065.38 1239.13,-2063.56 1239.19,-2061.76 1239.43,-2059.97 1239.85,-2058.22 1240.44,-2056.5 1241.22,-2054.81 1242.18,-2053.17 1243.33,-2051.57 1244.65,-2050.02 1246.16,-2048.53 1247.85,-2047.09 1249.71,-2045.72 1251.74,-2044.42 1253.94,-2043.18 1256.29,-2042.02 1258.8,-2040.94 1261.44,-2039.93 1264.22,-2039.01 1267.13,-2038.17 1270.14,-2037.42 1273.26,-2036.76 1276.46,-2036.19 1279.74,-2035.71 1283.09,-2035.33 1286.48,-2035.04 1289.91,-2034.85 1293.36,-2034.75 1296.81,-2034.75 1300.26,-2034.85"/>
<text text-anchor="start" x="1265.92" y="-2079.79" font-family="Times,serif" font-size="14.00">C0023884</text>
<text text-anchor="start" x="1282.26" y="-2065.79" font-family="Times,serif" font-size="14.00">liver</text>
<text text-anchor="start" x="1279.14" y="-2051.79" font-family="Times,serif" font-size="14.00">44:44</text>
</g>
<!-- id_28138631_DOT_1&#45;&#45;id_28138631_DOT_7 -->
<g id="edge6" class="edge">
<title>id_28138631_DOT_1&#45;&#45;id_28138631_DOT_7</title>
<path fill="none" stroke="black" stroke-dasharray="1,5" d="M1207.48,-1750.18C1226.02,-1817.85 1266.86,-1966.96 1285.49,-2034.95"/>
<text text-anchor="middle" x="1220.23" y="-1895.37" font-family="Times,serif" font-size="14.00">0.662578</text>
</g>
<!-- id_28138631_DOT_2 -->
<g id="node2" class="node">
<title>id_28138631_DOT_2</title>
<polygon fill="bisque" stroke="bisque" points="1454.65,-2366.74 1459.5,-2366.93 1464.3,-2367.22 1469.03,-2367.6 1473.67,-2368.08 1478.2,-2368.65 1482.61,-2369.31 1486.88,-2370.06 1490.99,-2370.9 1494.92,-2371.82 1498.67,-2372.83 1502.21,-2373.91 1505.54,-2375.07 1508.65,-2376.31 1511.52,-2377.61 1514.16,-2378.98 1516.54,-2380.42 1518.68,-2381.91 1520.55,-2383.46 1522.17,-2385.06 1523.53,-2386.7 1524.63,-2388.39 1525.48,-2390.11 1526.07,-2391.86 1526.4,-2393.65 1526.49,-2395.45 1526.34,-2397.27 1525.96,-2399.11 1525.35,-2400.95 1524.53,-2402.8 1523.49,-2404.64 1522.26,-2406.47 1520.84,-2408.3 1519.24,-2410.1 1517.47,-2411.89 1515.55,-2413.64 1513.48,-2415.36 1511.27,-2417.05 1508.94,-2418.69 1506.49,-2420.29 1503.94,-2421.84 1501.3,-2423.33 1498.57,-2424.77 1495.76,-2426.14 1492.89,-2427.44 1489.95,-2428.68 1486.97,-2429.84 1483.93,-2430.92 1480.86,-2431.93 1477.75,-2432.85 1474.62,-2433.69 1471.45,-2434.44 1468.27,-2435.1 1465.08,-2435.67 1461.86,-2436.15 1458.64,-2436.53 1455.41,-2436.82 1452.18,-2437.01 1448.94,-2437.11 1445.7,-2437.11 1442.46,-2437.01 1439.23,-2436.82 1436,-2436.53 1432.78,-2436.15 1429.57,-2435.67 1426.37,-2435.1 1423.19,-2434.44 1420.03,-2433.69 1416.89,-2432.85 1413.78,-2431.93 1410.71,-2430.92 1407.68,-2429.84 1404.69,-2428.68 1401.75,-2427.44 1398.88,-2426.14 1396.07,-2424.77 1393.34,-2423.33 1390.7,-2421.84 1388.15,-2420.29 1385.7,-2418.69 1383.37,-2417.05 1381.17,-2415.36 1379.1,-2413.64 1377.17,-2411.89 1375.4,-2410.1 1373.8,-2408.3 1372.38,-2406.47 1371.15,-2404.64 1370.12,-2402.8 1369.29,-2400.95 1368.68,-2399.11 1368.3,-2397.27 1368.15,-2395.45 1368.24,-2393.65 1368.58,-2391.86 1369.16,-2390.11 1370.01,-2388.39 1371.11,-2386.7 1372.47,-2385.06 1374.09,-2383.46 1375.97,-2381.91 1378.1,-2380.42 1380.49,-2378.98 1383.12,-2377.61 1385.99,-2376.31 1389.1,-2375.07 1392.43,-2373.91 1395.98,-2372.83 1399.72,-2371.82 1403.65,-2370.9 1407.76,-2370.06 1412.03,-2369.31 1416.44,-2368.65 1420.97,-2368.08 1425.61,-2367.6 1430.34,-2367.22 1435.14,-2366.93 1439.99,-2366.74 1444.88,-2366.64 1449.77,-2366.64 1454.65,-2366.74"/>
<text text-anchor="start" x="1418.15" y="-2411.67" font-family="Times,serif" font-size="14.00">C0494165</text>
<text text-anchor="start" x="1402.81" y="-2397.67" font-family="Times,serif" font-size="14.00">liver metastases</text>
<text text-anchor="start" x="1438.38" y="-2383.67" font-family="Times,serif" font-size="14.00">4:5</text>
</g>
<!-- id_28138631_DOT_2&#45;&#45;id_28138631_DOT_7 -->
<g id="edge2" class="edge">
<title>id_28138631_DOT_2&#45;&#45;id_28138631_DOT_7</title>
<path fill="none" stroke="black" d="M1431.32,-2366.98C1401.85,-2302.74 1339.38,-2166.56 1310.42,-2103.42"/>
<text text-anchor="middle" x="1344.88" y="-2238" font-family="Times,serif" font-size="14.00">0.110788</text>
</g>
<!-- id_28138631_DOT_8 -->
<g id="node8" class="node">
<title>id_28138631_DOT_8</title>
<polygon fill="bisque" stroke="bisque" points="1659.62,-2666.99 1664.35,-2667.18 1669.03,-2667.47 1673.64,-2667.85 1678.16,-2668.33 1682.58,-2668.9 1686.88,-2669.56 1691.04,-2670.31 1695.04,-2671.15 1698.88,-2672.07 1702.53,-2673.08 1705.98,-2674.16 1709.23,-2675.33 1712.26,-2676.56 1715.06,-2677.86 1717.63,-2679.24 1719.95,-2680.67 1722.03,-2682.16 1723.86,-2683.71 1725.44,-2685.31 1726.77,-2686.95 1727.84,-2688.64 1728.66,-2690.36 1729.23,-2692.12 1729.56,-2693.9 1729.65,-2695.7 1729.51,-2697.53 1729.13,-2699.36 1728.54,-2701.2 1727.73,-2703.05 1726.73,-2704.89 1725.52,-2706.73 1724.14,-2708.55 1722.58,-2710.36 1720.86,-2712.14 1718.98,-2713.89 1716.96,-2715.62 1714.81,-2717.3 1712.54,-2718.95 1710.16,-2720.54 1707.67,-2722.09 1705.09,-2723.58 1702.43,-2725.02 1699.7,-2726.39 1696.89,-2727.7 1694.03,-2728.93 1691.12,-2730.09 1688.17,-2731.18 1685.17,-2732.18 1682.14,-2733.1 1679.08,-2733.94 1676,-2734.69 1672.9,-2735.35 1669.79,-2735.92 1666.66,-2736.4 1663.51,-2736.78 1660.37,-2737.07 1657.21,-2737.27 1654.06,-2737.36 1650.9,-2737.36 1647.74,-2737.27 1644.59,-2737.07 1641.44,-2736.78 1638.3,-2736.4 1635.17,-2735.92 1632.06,-2735.35 1628.96,-2734.69 1625.87,-2733.94 1622.82,-2733.1 1619.79,-2732.18 1616.79,-2731.18 1613.84,-2730.09 1610.92,-2728.93 1608.06,-2727.7 1605.26,-2726.39 1602.53,-2725.02 1599.87,-2723.58 1597.29,-2722.09 1594.8,-2720.54 1592.42,-2718.95 1590.15,-2717.3 1588,-2715.62 1585.98,-2713.89 1584.1,-2712.14 1582.38,-2710.36 1580.82,-2708.55 1579.43,-2706.73 1578.23,-2704.89 1577.22,-2703.05 1576.42,-2701.2 1575.83,-2699.36 1575.45,-2697.53 1575.31,-2695.7 1575.4,-2693.9 1575.72,-2692.12 1576.3,-2690.36 1577.12,-2688.64 1578.19,-2686.95 1579.52,-2685.31 1581.1,-2683.71 1582.93,-2682.16 1585.01,-2680.67 1587.33,-2679.24 1589.9,-2677.86 1592.7,-2676.56 1595.73,-2675.33 1598.98,-2674.16 1602.43,-2673.08 1606.08,-2672.07 1609.92,-2671.15 1613.92,-2670.31 1618.08,-2669.56 1622.38,-2668.9 1626.8,-2668.33 1631.32,-2667.85 1635.93,-2667.47 1640.61,-2667.18 1645.34,-2666.99 1650.1,-2666.89 1654.86,-2666.89 1659.62,-2666.99"/>
<text text-anchor="start" x="1623.31" y="-2711.93" font-family="Times,serif" font-size="14.00">C0494165</text>
<text text-anchor="start" x="1609.13" y="-2697.93" font-family="Times,serif" font-size="14.00">liver metastasis</text>
<text text-anchor="start" x="1636.53" y="-2683.93" font-family="Times,serif" font-size="14.00">62:63</text>
</g>
<!-- id_28138631_DOT_2&#45;&#45;id_28138631_DOT_8 -->
<g id="edge3" class="edge">
<title>id_28138631_DOT_2&#45;&#45;id_28138631_DOT_8</title>
<path fill="none" stroke="black" d="M1469.86,-2434.87C1509,-2492.14 1589.14,-2609.43 1628.95,-2667.7"/>
<text text-anchor="middle" x="1523.16" y="-2554.08" font-family="Times,serif" font-size="14.00">0.012133</text>
</g>
<!-- id_28138631_DOT_3 -->
<g id="node3" class="node">
<title>id_28138631_DOT_3</title>
<polygon fill="blue" stroke="blue" points="549.93,-393.13 558.5,-393.32 566.98,-393.61 575.33,-393.99 583.54,-394.47 591.55,-395.04 599.34,-395.7 606.87,-396.45 614.13,-397.29 621.08,-398.21 627.7,-399.22 633.96,-400.3 639.84,-401.46 645.33,-402.7 650.41,-404 655.06,-405.37 659.28,-406.81 663.05,-408.3 666.37,-409.85 669.23,-411.45 671.63,-413.09 673.58,-414.78 675.07,-416.5 676.1,-418.25 676.7,-420.04 676.86,-421.84 676.6,-423.66 675.92,-425.5 674.84,-427.34 673.38,-429.19 671.56,-431.03 669.38,-432.87 666.87,-434.69 664.04,-436.49 660.92,-438.28 657.52,-440.03 653.86,-441.75 649.96,-443.44 645.85,-445.08 641.52,-446.68 637.02,-448.23 632.35,-449.72 627.52,-451.16 622.57,-452.53 617.49,-453.83 612.3,-455.07 607.03,-456.23 601.67,-457.31 596.24,-458.32 590.75,-459.24 585.2,-460.08 579.62,-460.83 574,-461.49 568.35,-462.06 562.68,-462.54 556.98,-462.92 551.28,-463.21 545.56,-463.4 539.84,-463.5 534.12,-463.5 528.4,-463.4 522.68,-463.21 516.98,-462.92 511.29,-462.54 505.61,-462.06 499.96,-461.49 494.34,-460.83 488.76,-460.08 483.22,-459.24 477.73,-458.32 472.3,-457.31 466.94,-456.23 461.66,-455.07 456.48,-453.83 451.4,-452.53 446.44,-451.16 441.62,-449.72 436.94,-448.23 432.44,-446.68 428.12,-445.08 424,-443.44 420.1,-441.75 416.44,-440.03 413.04,-438.28 409.92,-436.49 407.1,-434.69 404.58,-432.87 402.41,-431.03 400.58,-429.19 399.12,-427.34 398.04,-425.5 397.37,-423.66 397.1,-421.84 397.26,-420.04 397.86,-418.25 398.9,-416.5 400.39,-414.78 402.33,-413.09 404.73,-411.45 407.6,-409.85 410.91,-408.3 414.68,-406.81 418.9,-405.37 423.55,-404 428.63,-402.7 434.12,-401.46 440.01,-400.3 446.27,-399.22 452.88,-398.21 459.83,-397.29 467.09,-396.45 474.63,-395.7 482.42,-395.04 490.43,-394.47 498.63,-393.99 506.99,-393.61 515.47,-393.32 524.04,-393.13 532.66,-393.03 541.3,-393.03 549.93,-393.13"/>
<text text-anchor="start" x="507.81" y="-438.07" font-family="Times,serif" font-size="14.00">C0346989</text>
<text text-anchor="start" x="452.23" y="-424.07" font-family="Times,serif" font-size="14.00">multiple peritoneal metastases</text>
<text text-anchor="start" x="528.04" y="-410.07" font-family="Times,serif" font-size="14.00">7:9</text>
</g>
<!-- id_28138631_DOT_6 -->
<g id="node6" class="node">
<title>id_28138631_DOT_6</title>
<polygon fill="brown" stroke="brown" points="812.07,-678.73 815.5,-678.92 818.89,-679.21 822.24,-679.59 825.52,-680.07 828.72,-680.64 831.84,-681.3 834.85,-682.05 837.76,-682.89 840.54,-683.81 843.18,-684.82 845.69,-685.9 848.04,-687.07 850.24,-688.3 852.27,-689.61 854.13,-690.98 855.82,-692.41 857.33,-693.9 858.65,-695.45 859.8,-697.05 860.76,-698.69 861.54,-700.38 862.13,-702.1 862.55,-703.86 862.79,-705.64 862.85,-707.44 862.75,-709.27 862.47,-711.1 862.04,-712.95 861.46,-714.79 860.73,-716.63 859.86,-718.47 858.85,-720.29 857.72,-722.1 856.47,-723.88 855.11,-725.63 853.65,-727.36 852.09,-729.04 850.44,-730.69 848.72,-732.28 846.91,-733.83 845.04,-735.33 843.11,-736.76 841.13,-738.13 839.1,-739.44 837.03,-740.67 834.91,-741.83 832.77,-742.92 830.6,-743.92 828.4,-744.84 826.19,-745.68 823.95,-746.43 821.7,-747.09 819.44,-747.66 817.17,-748.14 814.9,-748.53 812.61,-748.81 810.33,-749.01 808.04,-749.1 805.75,-749.1 803.46,-749.01 801.17,-748.81 798.89,-748.53 796.62,-748.14 794.35,-747.66 792.09,-747.09 789.84,-746.43 787.6,-745.68 785.39,-744.84 783.19,-743.92 781.02,-742.92 778.87,-741.83 776.76,-740.67 774.69,-739.44 772.66,-738.13 770.67,-736.76 768.74,-735.33 766.88,-733.83 765.07,-732.28 763.35,-730.69 761.7,-729.04 760.14,-727.36 758.67,-725.63 757.31,-723.88 756.07,-722.1 754.94,-720.29 753.93,-718.47 753.06,-716.63 752.33,-714.79 751.74,-712.95 751.31,-711.1 751.04,-709.27 750.94,-707.44 751,-705.64 751.24,-703.86 751.66,-702.1 752.25,-700.38 753.03,-698.69 753.99,-697.05 755.14,-695.45 756.46,-693.9 757.97,-692.41 759.66,-690.98 761.52,-689.61 763.55,-688.3 765.75,-687.07 768.1,-685.9 770.61,-684.82 773.25,-683.81 776.03,-682.89 778.94,-682.05 781.95,-681.3 785.07,-680.64 788.27,-680.07 791.55,-679.59 794.9,-679.21 798.29,-678.92 801.72,-678.73 805.17,-678.63 808.62,-678.63 812.07,-678.73"/>
<text text-anchor="start" x="777.73" y="-723.67" font-family="Times,serif" font-size="14.00">C0150312</text>
<text text-anchor="start" x="790.56" y="-709.67" font-family="Times,serif" font-size="14.00">found</text>
<text text-anchor="start" x="790.95" y="-695.67" font-family="Times,serif" font-size="14.00">41:41</text>
</g>
<!-- id_28138631_DOT_3&#45;&#45;id_28138631_DOT_6 -->
<g id="edge7" class="edge">
<title>id_28138631_DOT_3&#45;&#45;id_28138631_DOT_6</title>
<path fill="none" stroke="black" stroke-dasharray="1,5" d="M569,-462.15C621.65,-517.85 725.75,-628 776.98,-682.21"/>
<text text-anchor="middle" x="646.74" y="-574.98" font-family="Times,serif" font-size="14.00">0.870288</text>
</g>
<!-- id_28138631_DOT_9 -->
<g id="node9" class="node">
<title>id_28138631_DOT_9</title>
<polygon fill="chartreuse" stroke="chartreuse" points="155.19,-405.82 163.89,-406.01 172.51,-406.3 181,-406.68 189.33,-407.16 197.47,-407.73 205.38,-408.39 213.03,-409.14 220.41,-409.98 227.46,-410.9 234.19,-411.91 240.55,-412.99 246.52,-414.16 252.1,-415.39 257.26,-416.7 261.98,-418.07 266.27,-419.5 270.1,-420.99 273.47,-422.54 276.37,-424.14 278.81,-425.78 280.79,-427.47 282.3,-429.19 283.36,-430.95 283.96,-432.73 284.12,-434.53 283.86,-436.36 283.17,-438.19 282.08,-440.04 280.59,-441.88 278.74,-443.72 276.53,-445.56 273.97,-447.38 271.1,-449.19 267.93,-450.97 264.48,-452.72 260.76,-454.45 256.8,-456.13 252.62,-457.78 248.23,-459.38 243.66,-460.92 238.91,-462.42 234.01,-463.85 228.97,-465.22 223.82,-466.53 218.55,-467.76 213.19,-468.92 207.74,-470.01 202.23,-471.01 196.65,-471.93 191.02,-472.77 185.35,-473.52 179.64,-474.18 173.9,-474.75 168.14,-475.23 162.36,-475.62 156.56,-475.9 150.76,-476.1 144.95,-476.19 139.13,-476.19 133.32,-476.1 127.52,-475.9 121.72,-475.62 115.94,-475.23 110.18,-474.75 104.44,-474.18 98.73,-473.52 93.06,-472.77 87.43,-471.93 81.85,-471.01 76.34,-470.01 70.89,-468.92 65.53,-467.76 60.27,-466.53 55.11,-465.22 50.07,-463.85 45.17,-462.42 40.43,-460.92 35.85,-459.38 31.46,-457.78 27.28,-456.13 23.32,-454.45 19.6,-452.72 16.15,-450.97 12.98,-449.19 10.11,-447.38 7.56,-445.56 5.34,-443.72 3.49,-441.88 2.01,-440.04 0.91,-438.19 0.23,-436.36 -0.04,-434.53 0.12,-432.73 0.73,-430.95 1.78,-429.19 3.29,-427.47 5.27,-425.78 7.71,-424.14 10.62,-422.54 13.99,-420.99 17.82,-419.5 22.1,-418.07 26.83,-416.7 31.98,-415.39 37.56,-414.16 43.54,-412.99 49.9,-411.91 56.62,-410.9 63.68,-409.98 71.05,-409.14 78.7,-408.39 86.62,-407.73 94.75,-407.16 103.08,-406.68 111.57,-406.3 120.19,-406.01 128.89,-405.82 137.65,-405.72 146.43,-405.72 155.19,-405.82"/>
<text text-anchor="start" x="112.87" y="-450.76" font-family="Times,serif" font-size="14.00">C0854198</text>
<text text-anchor="start" x="55.73" y="-436.76" font-family="Times,serif" font-size="14.00">multiple abdominal metastases</text>
<text text-anchor="start" x="126.1" y="-422.76" font-family="Times,serif" font-size="14.00">65:67</text>
</g>
<!-- id_28138631_DOT_3&#45;&#45;id_28138631_DOT_9 -->
<g id="edge4" class="edge">
<title>id_28138631_DOT_3&#45;&#45;id_28138631_DOT_9</title>
<path fill="none" stroke="black" d="M404.1,-432.54C365.46,-433.78 323.11,-435.14 283.93,-436.4"/>
<text text-anchor="middle" x="317.77" y="-437.27" font-family="Times,serif" font-size="14.00">0.126366</text>
</g>
<!-- id_28138631_DOT_10 -->
<g id="node10" class="node">
<title>id_28138631_DOT_10</title>
<polygon fill="coral" stroke="coral" points="599.9,-0.23 603.94,-0.42 607.93,-0.71 611.86,-1.09 615.72,-1.57 619.49,-2.14 623.15,-2.8 626.7,-3.55 630.11,-4.39 633.38,-5.31 636.5,-6.32 639.44,-7.4 642.21,-8.57 644.79,-9.8 647.18,-11.1 649.37,-12.48 651.36,-13.91 653.13,-15.4 654.69,-16.95 656.04,-18.55 657.17,-20.19 658.08,-21.88 658.79,-23.6 659.27,-25.36 659.55,-27.14 659.63,-28.94 659.5,-30.77 659.19,-32.6 658.68,-34.44 657.99,-36.29 657.13,-38.13 656.11,-39.97 654.93,-41.79 653.6,-43.6 652.13,-45.38 650.53,-47.13 648.81,-48.86 646.97,-50.54 645.04,-52.19 643,-53.78 640.88,-55.33 638.69,-56.82 636.42,-58.26 634.08,-59.63 631.69,-60.94 629.25,-62.17 626.77,-63.33 624.25,-64.42 621.69,-65.42 619.11,-66.34 616.5,-67.18 613.88,-67.93 611.23,-68.59 608.57,-69.16 605.9,-69.64 603.23,-70.02 600.54,-70.31 597.85,-70.51 595.16,-70.6 592.47,-70.6 589.78,-70.51 587.09,-70.31 584.4,-70.02 581.72,-69.64 579.05,-69.16 576.4,-68.59 573.75,-67.93 571.12,-67.18 568.52,-66.34 565.93,-65.42 563.38,-64.42 560.86,-63.33 558.37,-62.17 555.93,-60.94 553.54,-59.63 551.21,-58.26 548.94,-56.82 546.74,-55.33 544.62,-53.78 542.59,-52.19 540.65,-50.54 538.82,-48.86 537.1,-47.13 535.5,-45.38 534.03,-43.6 532.7,-41.79 531.52,-39.97 530.49,-38.13 529.63,-36.29 528.95,-34.44 528.44,-32.6 528.12,-30.77 528,-28.94 528.07,-27.14 528.35,-25.36 528.84,-23.6 529.54,-21.88 530.46,-20.19 531.59,-18.55 532.93,-16.95 534.5,-15.4 536.27,-13.91 538.25,-12.48 540.44,-11.1 542.83,-9.8 545.41,-8.57 548.18,-7.4 551.13,-6.32 554.24,-5.31 557.51,-4.39 560.93,-3.55 564.47,-2.8 568.14,-2.14 571.91,-1.57 575.77,-1.09 579.7,-0.71 583.69,-0.42 587.72,-0.23 591.78,-0.13 595.85,-0.13 599.9,-0.23"/>
<text text-anchor="start" x="564.64" y="-45.17" font-family="Times,serif" font-size="14.00">C0376636</text>
<text text-anchor="start" x="558.05" y="-31.17" font-family="Times,serif" font-size="14.00">management</text>
<text text-anchor="start" x="577.87" y="-17.17" font-family="Times,serif" font-size="14.00">72:72</text>
</g>
<!-- id_28138631_DOT_3&#45;&#45;id_28138631_DOT_10 -->
<g id="edge8" class="edge">
<title>id_28138631_DOT_3&#45;&#45;id_28138631_DOT_10</title>
<path fill="none" stroke="black" stroke-dasharray="1,5" d="M542.13,-392.71C552.95,-317.9 577.95,-145.05 588.72,-70.56"/>
<text text-anchor="middle" x="539.17" y="-234.43" font-family="Times,serif" font-size="14.00">0.884312</text>
</g>
<!-- id_28138631_DOT_5 -->
<g id="node5" class="node">
<title>id_28138631_DOT_5</title>
<polygon fill="blueviolet" stroke="blueviolet" points="1134.96,-916.75 1140.07,-916.94 1145.12,-917.23 1150.1,-917.61 1154.99,-918.09 1159.76,-918.66 1164.4,-919.32 1168.89,-920.07 1173.22,-920.91 1177.36,-921.83 1181.3,-922.84 1185.03,-923.92 1188.54,-925.08 1191.81,-926.32 1194.83,-927.62 1197.61,-928.99 1200.12,-930.43 1202.36,-931.92 1204.34,-933.47 1206.05,-935.07 1207.48,-936.71 1208.64,-938.4 1209.52,-940.12 1210.14,-941.87 1210.5,-943.66 1210.59,-945.46 1210.44,-947.28 1210.03,-949.12 1209.39,-950.96 1208.52,-952.81 1207.43,-954.65 1206.14,-956.49 1204.64,-958.31 1202.96,-960.11 1201.09,-961.9 1199.07,-963.65 1196.89,-965.37 1194.57,-967.06 1192.11,-968.7 1189.54,-970.3 1186.85,-971.85 1184.07,-973.34 1181.2,-974.78 1178.24,-976.15 1175.22,-977.45 1172.13,-978.69 1168.98,-979.85 1165.79,-980.93 1162.55,-981.94 1159.28,-982.86 1155.98,-983.7 1152.65,-984.45 1149.3,-985.11 1145.94,-985.68 1142.56,-986.16 1139.17,-986.54 1135.77,-986.83 1132.36,-987.02 1128.95,-987.12 1125.54,-987.12 1122.13,-987.02 1118.73,-986.83 1115.33,-986.54 1111.94,-986.16 1108.56,-985.68 1105.19,-985.11 1101.84,-984.45 1098.51,-983.7 1095.21,-982.86 1091.94,-981.94 1088.7,-980.93 1085.51,-979.85 1082.37,-978.69 1079.28,-977.45 1076.25,-976.15 1073.3,-974.78 1070.42,-973.34 1067.64,-971.85 1064.95,-970.3 1062.38,-968.7 1059.93,-967.06 1057.6,-965.37 1055.42,-963.65 1053.4,-961.9 1051.54,-960.11 1049.85,-958.31 1048.36,-956.49 1047.06,-954.65 1045.97,-952.81 1045.1,-950.96 1044.46,-949.12 1044.06,-947.28 1043.9,-945.46 1044,-943.66 1044.35,-941.87 1044.97,-940.12 1045.86,-938.4 1047.01,-936.71 1048.45,-935.07 1050.15,-933.47 1052.13,-931.92 1054.38,-930.43 1056.89,-928.99 1059.66,-927.62 1062.69,-926.32 1065.96,-925.08 1069.46,-923.92 1073.19,-922.84 1077.14,-921.83 1081.28,-920.91 1085.6,-920.07 1090.09,-919.32 1094.73,-918.66 1099.51,-918.09 1104.39,-917.61 1109.37,-917.23 1114.43,-916.94 1119.53,-916.75 1124.67,-916.65 1129.82,-916.65 1134.96,-916.75"/>
<text text-anchor="start" x="1098.08" y="-961.69" font-family="Times,serif" font-size="14.00">C0030297</text>
<text text-anchor="start" x="1080.02" y="-947.69" font-family="Times,serif" font-size="14.00">pancreatic tumor</text>
<text text-anchor="start" x="1111.3" y="-933.69" font-family="Times,serif" font-size="14.00">21:22</text>
</g>
<!-- id_28138631_DOT_4&#45;&#45;id_28138631_DOT_5 -->
<g id="edge9" class="edge">
<title>id_28138631_DOT_4&#45;&#45;id_28138631_DOT_5</title>
<path fill="none" stroke="black" stroke-dasharray="1,5" d="M1141.22,-1311.13C1138.3,-1236.22 1131.54,-1062.28 1128.62,-987.31"/>
<text text-anchor="middle" x="1108.67" y="-1152.02" font-family="Times,serif" font-size="14.00">0.850942</text>
</g>
<!-- id_28138631_DOT_5&#45;&#45;id_28138631_DOT_6 -->
<g id="edge10" class="edge">
<title>id_28138631_DOT_5&#45;&#45;id_28138631_DOT_6</title>
<path fill="none" stroke="black" stroke-dasharray="1,5" d="M1084.37,-920.03C1019.93,-872.15 899.4,-782.6 840.72,-739"/>
<text text-anchor="middle" x="936.3" y="-832.32" font-family="Times,serif" font-size="14.00">0.851895</text>
</g>
<!-- id_28138631_DOT_11 -->
<g id="node11" class="node">
<title>id_28138631_DOT_11</title>
<polygon fill="cornflowerblue" stroke="cornflowerblue" points="1494.25,-729.82 1497.68,-730.01 1501.07,-730.3 1504.42,-730.68 1507.7,-731.16 1510.9,-731.73 1514.02,-732.39 1517.03,-733.14 1519.94,-733.98 1522.72,-734.9 1525.36,-735.91 1527.87,-736.99 1530.22,-738.15 1532.42,-739.39 1534.45,-740.69 1536.31,-742.06 1538,-743.5 1539.51,-744.99 1540.83,-746.54 1541.98,-748.14 1542.94,-749.78 1543.72,-751.47 1544.31,-753.19 1544.73,-754.94 1544.97,-756.73 1545.03,-758.53 1544.93,-760.35 1544.66,-762.19 1544.22,-764.03 1543.64,-765.88 1542.91,-767.72 1542.04,-769.56 1541.03,-771.38 1539.9,-773.18 1538.65,-774.97 1537.29,-776.72 1535.83,-778.44 1534.27,-780.13 1532.62,-781.77 1530.9,-783.37 1529.09,-784.92 1527.22,-786.41 1525.3,-787.85 1523.31,-789.22 1521.28,-790.52 1519.21,-791.76 1517.09,-792.92 1514.95,-794 1512.78,-795.01 1510.58,-795.93 1508.37,-796.77 1506.13,-797.52 1503.88,-798.18 1501.62,-798.75 1499.35,-799.23 1497.08,-799.61 1494.79,-799.9 1492.51,-800.09 1490.22,-800.19 1487.93,-800.19 1485.64,-800.09 1483.36,-799.9 1481.07,-799.61 1478.8,-799.23 1476.53,-798.75 1474.27,-798.18 1472.02,-797.52 1469.78,-796.77 1467.57,-795.93 1465.37,-795.01 1463.2,-794 1461.06,-792.92 1458.94,-791.76 1456.87,-790.52 1454.84,-789.22 1452.85,-787.85 1450.93,-786.41 1449.06,-784.92 1447.25,-783.37 1445.53,-781.77 1443.88,-780.13 1442.32,-778.44 1440.86,-776.72 1439.5,-774.97 1438.25,-773.18 1437.12,-771.38 1436.11,-769.56 1435.24,-767.72 1434.51,-765.88 1433.93,-764.03 1433.5,-762.19 1433.22,-760.35 1433.12,-758.53 1433.18,-756.73 1433.42,-754.94 1433.84,-753.19 1434.43,-751.47 1435.21,-749.78 1436.17,-748.14 1437.32,-746.54 1438.64,-744.99 1440.15,-743.5 1441.84,-742.06 1443.7,-740.69 1445.73,-739.39 1447.93,-738.15 1450.28,-736.99 1452.79,-735.91 1455.43,-734.9 1458.21,-733.98 1461.12,-733.14 1464.13,-732.39 1467.25,-731.73 1470.45,-731.16 1473.73,-730.68 1477.08,-730.3 1480.47,-730.01 1483.9,-729.82 1487.35,-729.72 1490.8,-729.72 1494.25,-729.82"/>
<text text-anchor="start" x="1459.91" y="-774.75" font-family="Times,serif" font-size="14.00">C0027651</text>
<text text-anchor="start" x="1472.35" y="-760.75" font-family="Times,serif" font-size="14.00">tumor</text>
<text text-anchor="start" x="1473.13" y="-746.75" font-family="Times,serif" font-size="14.00">75:75</text>
</g>
<!-- id_28138631_DOT_5&#45;&#45;id_28138631_DOT_11 -->
<g id="edge5" class="edge">
<title>id_28138631_DOT_5&#45;&#45;id_28138631_DOT_11</title>
<path fill="none" stroke="black" d="M1182.99,-923.09C1256.73,-884.99 1384.9,-818.78 1449.48,-785.41"/>
<text text-anchor="middle" x="1289.98" y="-857.05" font-family="Times,serif" font-size="14.00">0.192086</text>
</g>
</g>
</svg>
