<?xml version="1.0" encoding="UTF-8" standalone="no"?>
<!DOCTYPE svg PUBLIC "-//W3C//DTD SVG 1.1//EN"
 "http://www.w3.org/Graphics/SVG/1.1/DTD/svg11.dtd">
<!-- Generated by graphviz version 2.42.3 (20191010.1750)
 -->
<!-- Title: MST Pages: 1 -->
<svg width="1331pt" height="1589pt"
 viewBox="0.00 0.00 1330.87 1589.19" xmlns="http://www.w3.org/2000/svg" xmlns:xlink="http://www.w3.org/1999/xlink">
<g id="graph0" class="graph" transform="scale(1 1) rotate(0) translate(4 1585.19)">
<title>MST</title>
<polygon fill="white" stroke="transparent" points="-4,4 -4,-1585.19 1326.87,-1585.19 1326.87,4 -4,4"/>
<!-- id_28149973_DOT_1 -->
<g id="node1" class="node">
<title>id_28149973_DOT_1</title>
<polygon fill="aquamarine" stroke="aquamarine" points="849.19,-1510.68 852.62,-1510.88 856.01,-1511.17 859.35,-1511.55 862.64,-1512.03 865.84,-1512.6 868.96,-1513.26 871.97,-1514.01 874.87,-1514.85 877.65,-1515.77 880.3,-1516.77 882.81,-1517.86 885.16,-1519.02 887.36,-1520.25 889.39,-1521.56 891.25,-1522.93 892.94,-1524.37 894.44,-1525.86 895.77,-1527.41 896.92,-1529 897.88,-1530.65 898.66,-1532.33 899.25,-1534.06 899.67,-1535.81 899.9,-1537.59 899.97,-1539.4 899.86,-1541.22 899.59,-1543.06 899.16,-1544.9 898.58,-1546.75 897.85,-1548.59 896.98,-1550.42 895.97,-1552.25 894.84,-1554.05 893.59,-1555.83 892.23,-1557.59 890.77,-1559.31 889.21,-1561 887.56,-1562.64 885.83,-1564.24 884.03,-1565.79 882.16,-1567.28 880.23,-1568.71 878.25,-1570.09 876.22,-1571.39 874.14,-1572.62 872.03,-1573.79 869.89,-1574.87 867.72,-1575.88 865.52,-1576.8 863.3,-1577.64 861.07,-1578.39 858.82,-1579.05 856.56,-1579.62 854.29,-1580.1 852.01,-1580.48 849.73,-1580.77 847.45,-1580.96 845.16,-1581.06 842.87,-1581.06 840.58,-1580.96 838.29,-1580.77 836.01,-1580.48 833.73,-1580.1 831.46,-1579.62 829.2,-1579.05 826.96,-1578.39 824.72,-1577.64 822.5,-1576.8 820.31,-1575.88 818.14,-1574.87 815.99,-1573.79 813.88,-1572.62 811.81,-1571.39 809.78,-1570.09 807.79,-1568.71 805.86,-1567.28 803.99,-1565.79 802.19,-1564.24 800.46,-1562.64 798.82,-1561 797.26,-1559.31 795.79,-1557.59 794.43,-1555.83 793.18,-1554.05 792.05,-1552.25 791.05,-1550.42 790.18,-1548.59 789.45,-1546.75 788.86,-1544.9 788.43,-1543.06 788.16,-1541.22 788.06,-1539.4 788.12,-1537.59 788.36,-1535.81 788.77,-1534.06 789.37,-1532.33 790.15,-1530.65 791.11,-1529 792.25,-1527.41 793.58,-1525.86 795.09,-1524.37 796.78,-1522.93 798.64,-1521.56 800.67,-1520.25 802.86,-1519.02 805.22,-1517.86 807.72,-1516.77 810.37,-1515.77 813.15,-1514.85 816.05,-1514.01 819.07,-1513.26 822.18,-1512.6 825.39,-1512.03 828.67,-1511.55 832.01,-1511.17 835.41,-1510.88 838.83,-1510.68 842.28,-1510.59 845.74,-1510.59 849.19,-1510.68"/>
<text text-anchor="start" x="814.84" y="-1555.62" font-family="Times,serif" font-size="14.00">C0242402</text>
<text text-anchor="start" x="821.84" y="-1541.62" font-family="Times,serif" font-size="14.00">Opioids</text>
<text text-anchor="start" x="835.07" y="-1527.62" font-family="Times,serif" font-size="14.00">0:0</text>
</g>
<!-- id_28149973_DOT_5 -->
<g id="node5" class="node">
<title>id_28149973_DOT_5</title>
<polygon fill="blueviolet" stroke="blueviolet" points="867.02,-1141.95 870.45,-1142.14 873.84,-1142.43 877.18,-1142.82 880.46,-1143.29 883.67,-1143.86 886.78,-1144.52 889.8,-1145.27 892.7,-1146.11 895.48,-1147.04 898.13,-1148.04 900.63,-1149.12 902.99,-1150.29 905.18,-1151.52 907.22,-1152.83 909.08,-1154.2 910.76,-1155.63 912.27,-1157.12 913.6,-1158.67 914.74,-1160.27 915.71,-1161.91 916.48,-1163.6 917.08,-1165.32 917.49,-1167.08 917.73,-1168.86 917.8,-1170.67 917.69,-1172.49 917.42,-1174.32 916.99,-1176.17 916.41,-1178.01 915.68,-1179.85 914.8,-1181.69 913.8,-1183.51 912.67,-1185.32 911.42,-1187.1 910.06,-1188.85 908.6,-1190.58 907.04,-1192.26 905.39,-1193.91 903.66,-1195.51 901.86,-1197.05 899.99,-1198.55 898.06,-1199.98 896.08,-1201.35 894.05,-1202.66 891.97,-1203.89 889.86,-1205.05 887.72,-1206.14 885.54,-1207.14 883.35,-1208.06 881.13,-1208.9 878.9,-1209.65 876.65,-1210.31 874.39,-1210.88 872.12,-1211.36 869.84,-1211.75 867.56,-1212.03 865.27,-1212.23 862.99,-1212.32 860.7,-1212.32 858.41,-1212.23 856.12,-1212.03 853.84,-1211.75 851.56,-1211.36 849.29,-1210.88 847.03,-1210.31 844.78,-1209.65 842.55,-1208.9 840.33,-1208.06 838.14,-1207.14 835.96,-1206.14 833.82,-1205.05 831.71,-1203.89 829.64,-1202.66 827.6,-1201.35 825.62,-1199.98 823.69,-1198.55 821.82,-1197.05 820.02,-1195.51 818.29,-1193.91 816.64,-1192.26 815.08,-1190.58 813.62,-1188.85 812.26,-1187.1 811.01,-1185.32 809.88,-1183.51 808.88,-1181.69 808.01,-1179.85 807.27,-1178.01 806.69,-1176.17 806.26,-1174.32 805.99,-1172.49 805.88,-1170.67 805.95,-1168.86 806.19,-1167.08 806.6,-1165.32 807.2,-1163.6 807.98,-1161.91 808.94,-1160.27 810.08,-1158.67 811.41,-1157.12 812.92,-1155.63 814.6,-1154.2 816.46,-1152.83 818.5,-1151.52 820.69,-1150.29 823.05,-1149.12 825.55,-1148.04 828.2,-1147.04 830.98,-1146.11 833.88,-1145.27 836.9,-1144.52 840.01,-1143.86 843.22,-1143.29 846.5,-1142.82 849.84,-1142.43 853.23,-1142.14 856.66,-1141.95 860.11,-1141.85 863.57,-1141.85 867.02,-1141.95"/>
<text text-anchor="start" x="832.67" y="-1186.89" font-family="Times,serif" font-size="14.00">C0871685</text>
<text text-anchor="start" x="835.02" y="-1172.89" font-family="Times,serif" font-size="14.00">clinicians</text>
<text text-anchor="start" x="845.9" y="-1158.89" font-family="Times,serif" font-size="14.00">23:23</text>
</g>
<!-- id_28149973_DOT_1&#45;&#45;id_28149973_DOT_5 -->
<g id="edge2" class="edge">
<title>id_28149973_DOT_1&#45;&#45;id_28149973_DOT_5</title>
<path fill="none" stroke="black" stroke-dasharray="1,5" d="M845.72,-1510.47C849.13,-1439.99 856.73,-1282.73 860.14,-1212.34"/>
<text text-anchor="middle" x="826.68" y="-1364.2" font-family="Times,serif" font-size="14.00">0.989453</text>
</g>
<!-- id_28149973_DOT_2 -->
<g id="node2" class="node">
<title>id_28149973_DOT_2</title>
<polygon fill="bisque" stroke="bisque" points="1264.38,-607.48 1268.33,-607.67 1272.23,-607.96 1276.08,-608.34 1279.85,-608.82 1283.54,-609.39 1287.13,-610.05 1290.6,-610.8 1293.94,-611.64 1297.14,-612.56 1300.18,-613.57 1303.06,-614.65 1305.77,-615.81 1308.3,-617.05 1310.64,-618.35 1312.78,-619.72 1314.72,-621.16 1316.46,-622.65 1317.98,-624.2 1319.3,-625.8 1320.41,-627.44 1321.3,-629.13 1321.99,-630.85 1322.47,-632.6 1322.74,-634.39 1322.81,-636.19 1322.69,-638.01 1322.38,-639.85 1321.89,-641.69 1321.21,-643.54 1320.37,-645.38 1319.37,-647.22 1318.21,-649.04 1316.91,-650.84 1315.48,-652.63 1313.91,-654.38 1312.23,-656.1 1310.43,-657.79 1308.54,-659.43 1306.55,-661.03 1304.47,-662.58 1302.32,-664.07 1300.1,-665.51 1297.82,-666.88 1295.48,-668.18 1293.1,-669.42 1290.67,-670.58 1288.2,-671.66 1285.7,-672.67 1283.17,-673.59 1280.62,-674.43 1278.05,-675.18 1275.46,-675.84 1272.86,-676.41 1270.25,-676.89 1267.63,-677.27 1265,-677.56 1262.37,-677.75 1259.74,-677.85 1257.11,-677.85 1254.47,-677.75 1251.84,-677.56 1249.21,-677.27 1246.59,-676.89 1243.98,-676.41 1241.38,-675.84 1238.79,-675.18 1236.22,-674.43 1233.67,-673.59 1231.15,-672.67 1228.65,-671.66 1226.18,-670.58 1223.75,-669.42 1221.36,-668.18 1219.02,-666.88 1216.74,-665.51 1214.52,-664.07 1212.37,-662.58 1210.3,-661.03 1208.31,-659.43 1206.41,-657.79 1204.62,-656.1 1202.93,-654.38 1201.37,-652.63 1199.93,-650.84 1198.63,-649.04 1197.47,-647.22 1196.47,-645.38 1195.63,-643.54 1194.96,-641.69 1194.46,-639.85 1194.15,-638.01 1194.03,-636.19 1194.1,-634.39 1194.38,-632.6 1194.86,-630.85 1195.54,-629.13 1196.44,-627.44 1197.54,-625.8 1198.86,-624.2 1200.39,-622.65 1202.12,-621.16 1204.06,-619.72 1206.21,-618.35 1208.54,-617.05 1211.07,-615.81 1213.78,-614.65 1216.66,-613.57 1219.71,-612.56 1222.91,-611.64 1226.25,-610.8 1229.72,-610.05 1233.3,-609.39 1236.99,-608.82 1240.77,-608.34 1244.61,-607.96 1248.52,-607.67 1252.46,-607.48 1256.43,-607.38 1260.41,-607.38 1264.38,-607.48"/>
<text text-anchor="start" x="1229.25" y="-652.42" font-family="Times,serif" font-size="14.00">C0150055</text>
<text text-anchor="start" x="1223.63" y="-638.42" font-family="Times,serif" font-size="14.00">chronic pain</text>
<text text-anchor="start" x="1249.48" y="-624.42" font-family="Times,serif" font-size="14.00">2:3</text>
</g>
<!-- id_28149973_DOT_3 -->
<g id="node3" class="node">
<title>id_28149973_DOT_3</title>
<polygon fill="blue" stroke="blue" points="892.55,-751.11 895.97,-751.31 899.37,-751.59 902.71,-751.98 905.99,-752.46 909.2,-753.03 912.31,-753.69 915.33,-754.44 918.23,-755.28 921.01,-756.2 923.66,-757.2 926.16,-758.29 928.52,-759.45 930.71,-760.68 932.74,-761.99 934.61,-763.36 936.29,-764.79 937.8,-766.29 939.13,-767.84 940.27,-769.43 941.23,-771.08 942.01,-772.76 942.61,-774.49 943.02,-776.24 943.26,-778.02 943.32,-779.83 943.22,-781.65 942.95,-783.49 942.52,-785.33 941.93,-787.17 941.2,-789.02 940.33,-790.85 939.33,-792.68 938.2,-794.48 936.95,-796.26 935.59,-798.02 934.12,-799.74 932.57,-801.43 930.92,-803.07 929.19,-804.67 927.39,-806.22 925.52,-807.71 923.59,-809.14 921.61,-810.51 919.57,-811.82 917.5,-813.05 915.39,-814.22 913.24,-815.3 911.07,-816.31 908.88,-817.23 906.66,-818.07 904.43,-818.82 902.18,-819.48 899.92,-820.05 897.65,-820.53 895.37,-820.91 893.09,-821.2 890.8,-821.39 888.51,-821.49 886.22,-821.49 883.94,-821.39 881.65,-821.2 879.37,-820.91 877.09,-820.53 874.82,-820.05 872.56,-819.48 870.31,-818.82 868.08,-818.07 865.86,-817.23 863.66,-816.31 861.49,-815.3 859.35,-814.22 857.24,-813.05 855.16,-811.82 853.13,-810.51 851.15,-809.14 849.22,-807.71 847.35,-806.22 845.55,-804.67 843.82,-803.07 842.17,-801.43 840.61,-799.74 839.15,-798.02 837.79,-796.26 836.54,-794.48 835.41,-792.68 834.4,-790.85 833.53,-789.02 832.8,-787.17 832.22,-785.33 831.79,-783.49 831.52,-781.65 831.41,-779.83 831.48,-778.02 831.71,-776.24 832.13,-774.49 832.73,-772.76 833.5,-771.08 834.46,-769.43 835.61,-767.84 836.94,-766.29 838.44,-764.79 840.13,-763.36 841.99,-761.99 844.02,-760.68 846.22,-759.45 848.57,-758.29 851.08,-757.2 853.73,-756.2 856.51,-755.28 859.41,-754.44 862.42,-753.69 865.54,-753.03 868.75,-752.46 872.03,-751.98 875.37,-751.59 878.76,-751.31 882.19,-751.11 885.64,-751.02 889.1,-751.02 892.55,-751.11"/>
<text text-anchor="start" x="858.2" y="-796.05" font-family="Times,serif" font-size="14.00">C0007670</text>
<text text-anchor="start" x="867.24" y="-782.05" font-family="Times,serif" font-size="14.00">CDC &#39;s</text>
<text text-anchor="start" x="878.42" y="-768.05" font-family="Times,serif" font-size="14.00">6:7</text>
</g>
<!-- id_28149973_DOT_2&#45;&#45;id_28149973_DOT_3 -->
<g id="edge3" class="edge">
<title>id_28149973_DOT_2&#45;&#45;id_28149973_DOT_3</title>
<path fill="none" stroke="black" stroke-dasharray="1,5" d="M1210.29,-661.25C1140,-688.46 1009.82,-738.85 938.09,-766.62"/>
<text text-anchor="middle" x="1047.94" y="-716.73" font-family="Times,serif" font-size="14.00">1.006381</text>
</g>
<!-- id_28149973_DOT_4 -->
<g id="node4" class="node">
<title>id_28149973_DOT_4</title>
<polygon fill="blue" stroke="blue" points="607.18,-501.14 619.17,-501.33 631.04,-501.62 642.74,-502 654.21,-502.48 665.42,-503.05 676.32,-503.71 686.87,-504.46 697.02,-505.3 706.75,-506.22 716.01,-507.23 724.77,-508.31 733,-509.47 740.68,-510.71 747.79,-512.01 754.3,-513.39 760.2,-514.82 765.48,-516.31 770.12,-517.86 774.13,-519.46 777.49,-521.1 780.21,-522.79 782.29,-524.51 783.75,-526.27 784.58,-528.05 784.8,-529.85 784.43,-531.68 783.49,-533.51 781.98,-535.35 779.94,-537.2 777.38,-539.04 774.34,-540.88 770.82,-542.7 766.87,-544.51 762.5,-546.29 757.74,-548.04 752.62,-549.77 747.17,-551.45 741.4,-553.1 735.36,-554.69 729.05,-556.24 722.52,-557.73 715.77,-559.17 708.83,-560.54 701.72,-561.84 694.47,-563.08 687.08,-564.24 679.58,-565.33 671.98,-566.33 664.3,-567.25 656.55,-568.09 648.73,-568.84 640.87,-569.5 632.96,-570.07 625.02,-570.55 617.06,-570.93 609.07,-571.22 601.08,-571.42 593.07,-571.51 585.06,-571.51 577.06,-571.42 569.06,-571.22 561.08,-570.93 553.11,-570.55 545.17,-570.07 537.27,-569.5 529.4,-568.84 521.59,-568.09 513.83,-567.25 506.15,-566.33 498.55,-565.33 491.05,-564.24 483.67,-563.08 476.41,-561.84 469.31,-560.54 462.37,-559.17 455.62,-557.73 449.08,-556.24 442.78,-554.69 436.73,-553.1 430.97,-551.45 425.51,-549.77 420.4,-548.04 415.64,-546.29 411.27,-544.51 407.31,-542.7 403.8,-540.88 400.75,-539.04 398.2,-537.2 396.15,-535.35 394.65,-533.51 393.7,-531.68 393.33,-529.85 393.56,-528.05 394.39,-526.27 395.84,-524.51 397.93,-522.79 400.65,-521.1 404.01,-519.46 408.01,-517.86 412.66,-516.31 417.93,-514.82 423.83,-513.39 430.34,-512.01 437.45,-510.71 445.13,-509.47 453.37,-508.31 462.13,-507.23 471.39,-506.22 481.11,-505.3 491.27,-504.46 501.81,-503.71 512.71,-503.05 523.92,-502.48 535.4,-502 547.09,-501.62 558.96,-501.33 570.95,-501.14 583.02,-501.04 595.11,-501.04 607.18,-501.14"/>
<text text-anchor="start" x="559.9" y="-546.08" font-family="Times,serif" font-size="14.00">C0007670</text>
<text text-anchor="start" x="467.18" y="-532.08" font-family="Times,serif" font-size="14.00">Centers for Disease Control and Prevention</text>
<text text-anchor="start" x="573.38" y="-518.08" font-family="Times,serif" font-size="14.00">11:16</text>
</g>
<!-- id_28149973_DOT_3&#45;&#45;id_28149973_DOT_4 -->
<g id="edge1" class="edge">
<title>id_28149973_DOT_3&#45;&#45;id_28149973_DOT_4</title>
<path fill="none" stroke="black" d="M851.98,-756.6C796.26,-709.91 688.41,-619.53 629.64,-570.28"/>
<text text-anchor="middle" x="714.56" y="-666.24" font-family="Times,serif" font-size="14.00">0.178438</text>
</g>
<!-- id_28149973_DOT_3&#45;&#45;id_28149973_DOT_5 -->
<g id="edge4" class="edge">
<title>id_28149973_DOT_3&#45;&#45;id_28149973_DOT_5</title>
<path fill="none" stroke="black" stroke-dasharray="1,5" d="M885.06,-821.63C880.2,-895.94 869,-1067.55 864.15,-1141.8"/>
<text text-anchor="middle" x="848.35" y="-984.51" font-family="Times,serif" font-size="14.00">0.879542</text>
</g>
<!-- id_28149973_DOT_6 -->
<g id="node6" class="node">
<title>id_28149973_DOT_6</title>
<polygon fill="brown" stroke="brown" points="316.37,-258.57 319.8,-258.76 323.19,-259.05 326.53,-259.43 329.81,-259.91 333.02,-260.48 336.13,-261.14 339.15,-261.89 342.05,-262.73 344.83,-263.65 347.48,-264.66 349.98,-265.74 352.34,-266.9 354.53,-268.14 356.56,-269.44 358.43,-270.81 360.11,-272.25 361.62,-273.74 362.95,-275.29 364.09,-276.89 365.05,-278.53 365.83,-280.22 366.43,-281.94 366.84,-283.69 367.08,-285.48 367.15,-287.28 367.04,-289.1 366.77,-290.94 366.34,-292.78 365.75,-294.63 365.02,-296.47 364.15,-298.31 363.15,-300.13 362.02,-301.93 360.77,-303.72 359.41,-305.47 357.94,-307.19 356.39,-308.88 354.74,-310.52 353.01,-312.12 351.21,-313.67 349.34,-315.16 347.41,-316.6 345.43,-317.97 343.39,-319.27 341.32,-320.51 339.21,-321.67 337.06,-322.75 334.89,-323.76 332.7,-324.68 330.48,-325.52 328.25,-326.27 326,-326.93 323.74,-327.5 321.47,-327.98 319.19,-328.36 316.91,-328.65 314.62,-328.84 312.33,-328.94 310.04,-328.94 307.76,-328.84 305.47,-328.65 303.19,-328.36 300.91,-327.98 298.64,-327.5 296.38,-326.93 294.13,-326.27 291.9,-325.52 289.68,-324.68 287.48,-323.76 285.31,-322.75 283.17,-321.67 281.06,-320.51 278.98,-319.27 276.95,-317.97 274.97,-316.6 273.04,-315.16 271.17,-313.67 269.37,-312.12 267.64,-310.52 265.99,-308.88 264.43,-307.19 262.97,-305.47 261.61,-303.72 260.36,-301.93 259.23,-300.13 258.23,-298.31 257.35,-296.47 256.62,-294.63 256.04,-292.78 255.61,-290.94 255.34,-289.1 255.23,-287.28 255.3,-285.48 255.53,-283.69 255.95,-281.94 256.55,-280.22 257.32,-278.53 258.28,-276.89 259.43,-275.29 260.76,-273.74 262.27,-272.25 263.95,-270.81 265.81,-269.44 267.84,-268.14 270.04,-266.9 272.4,-265.74 274.9,-264.66 277.55,-263.65 280.33,-262.73 283.23,-261.89 286.24,-261.14 289.36,-260.48 292.57,-259.91 295.85,-259.43 299.19,-259.05 302.58,-258.76 306.01,-258.57 309.46,-258.47 312.92,-258.47 316.37,-258.57"/>
<text text-anchor="start" x="282.02" y="-303.51" font-family="Times,serif" font-size="14.00">C0033080</text>
<text text-anchor="start" x="285.54" y="-289.51" font-family="Times,serif" font-size="14.00">prescribe</text>
<text text-anchor="start" x="295.24" y="-275.51" font-family="Times,serif" font-size="14.00">24:24</text>
</g>
<!-- id_28149973_DOT_4&#45;&#45;id_28149973_DOT_6 -->
<g id="edge5" class="edge">
<title>id_28149973_DOT_4&#45;&#45;id_28149973_DOT_6</title>
<path fill="none" stroke="black" stroke-dasharray="1,5" d="M549.25,-501.52C493.28,-452.66 392.51,-364.7 341.92,-320.54"/>
<text text-anchor="middle" x="419.34" y="-413.83" font-family="Times,serif" font-size="14.00">0.897483</text>
</g>
<!-- id_28149973_DOT_7 -->
<g id="node7" class="node">
<title>id_28149973_DOT_7</title>
<polygon fill="cadetblue" stroke="cadetblue" points="60.33,-0.23 63.73,-0.42 67.09,-0.71 70.4,-1.09 73.65,-1.57 76.82,-2.14 79.91,-2.8 82.89,-3.55 85.77,-4.39 88.52,-5.31 91.14,-6.32 93.62,-7.4 95.95,-8.57 98.13,-9.8 100.14,-11.1 101.98,-12.48 103.65,-13.91 105.15,-15.4 106.46,-16.95 107.6,-18.55 108.55,-20.19 109.32,-21.88 109.91,-23.6 110.32,-25.36 110.56,-27.14 110.62,-28.94 110.51,-30.77 110.25,-32.6 109.82,-34.44 109.24,-36.29 108.52,-38.13 107.66,-39.97 106.66,-41.79 105.54,-43.6 104.3,-45.38 102.96,-47.13 101.51,-48.86 99.96,-50.54 98.33,-52.19 96.62,-53.78 94.84,-55.33 92.99,-56.82 91.07,-58.26 89.11,-59.63 87.1,-60.94 85.04,-62.17 82.95,-63.33 80.83,-64.42 78.68,-65.42 76.5,-66.34 74.31,-67.18 72.1,-67.93 69.87,-68.59 67.63,-69.16 65.39,-69.64 63.13,-70.02 60.87,-70.31 58.61,-70.51 56.34,-70.6 54.07,-70.6 51.81,-70.51 49.54,-70.31 47.28,-70.02 45.03,-69.64 42.78,-69.16 40.54,-68.59 38.31,-67.93 36.1,-67.18 33.91,-66.34 31.73,-65.42 29.58,-64.42 27.46,-63.33 25.37,-62.17 23.31,-60.94 21.3,-59.63 19.34,-58.26 17.43,-56.82 15.58,-55.33 13.79,-53.78 12.08,-52.19 10.45,-50.54 8.9,-48.86 7.46,-47.13 6.11,-45.38 4.87,-43.6 3.75,-41.79 2.76,-39.97 1.89,-38.13 1.17,-36.29 0.59,-34.44 0.17,-32.6 -0.1,-30.77 -0.21,-28.94 -0.14,-27.14 0.09,-25.36 0.5,-23.6 1.09,-21.88 1.86,-20.19 2.82,-18.55 3.95,-16.95 5.26,-15.4 6.76,-13.91 8.43,-12.48 10.27,-11.1 12.28,-9.8 14.46,-8.57 16.79,-7.4 19.27,-6.32 21.89,-5.31 24.64,-4.39 27.52,-3.55 30.5,-2.8 33.59,-2.14 36.76,-1.57 40.01,-1.09 43.32,-0.71 46.68,-0.42 50.08,-0.23 53.49,-0.13 56.92,-0.13 60.33,-0.23"/>
<text text-anchor="start" x="26.55" y="-45.17" font-family="Times,serif" font-size="14.00">C0087111</text>
<text text-anchor="start" x="28.77" y="-31.17" font-family="Times,serif" font-size="14.00">treatment</text>
<text text-anchor="start" x="39.26" y="-17.17" font-family="Times,serif" font-size="14.00">31:31</text>
</g>
<!-- id_28149973_DOT_6&#45;&#45;id_28149973_DOT_7 -->
<g id="edge6" class="edge">
<title>id_28149973_DOT_6&#45;&#45;id_28149973_DOT_7</title>
<path fill="none" stroke="black" stroke-dasharray="1,5" d="M280.31,-262.54C230.05,-211.82 131.31,-112.17 83.06,-63.48"/>
<text text-anchor="middle" x="155.44" y="-165.81" font-family="Times,serif" font-size="14.00">0.875399</text>
</g>
</g>
</svg>
