<?xml version="1.0" encoding="UTF-8" standalone="no"?>
<!DOCTYPE svg PUBLIC "-//W3C//DTD SVG 1.1//EN"
 "http://www.w3.org/Graphics/SVG/1.1/DTD/svg11.dtd">
<!-- Generated by graphviz version 2.42.3 (20191010.1750)
 -->
<!-- Title: MST Pages: 1 -->
<svg width="3765pt" height="2818pt"
 viewBox="0.00 0.00 3764.87 2818.40" xmlns="http://www.w3.org/2000/svg" xmlns:xlink="http://www.w3.org/1999/xlink">
<g id="graph0" class="graph" transform="scale(1 1) rotate(0) translate(4 2814.4)">
<title>MST</title>
<polygon fill="white" stroke="transparent" points="-4,4 -4,-2814.4 3760.87,-2814.4 3760.87,4 -4,4"/>
<!-- id_28182129_DOT_1 -->
<g id="node1" class="node">
<title>id_28182129_DOT_1</title>
<polygon fill="aquamarine" stroke="aquamarine" points="109.1,-32.91 115.21,-33.1 121.26,-33.39 127.22,-33.78 133.07,-34.25 138.78,-34.82 144.34,-35.49 149.71,-36.24 154.88,-37.07 159.84,-38 164.56,-39 169.02,-40.09 173.22,-41.25 177.13,-42.48 180.76,-43.79 184.07,-45.16 187.08,-46.59 189.77,-48.09 192.13,-49.63 194.17,-51.23 195.89,-52.88 197.28,-54.56 198.34,-56.28 199.08,-58.04 199.5,-59.82 199.62,-61.63 199.43,-63.45 198.95,-65.28 198.18,-67.13 197.14,-68.97 195.83,-70.81 194.28,-72.65 192.49,-74.47 190.48,-76.28 188.25,-78.06 185.82,-79.82 183.22,-81.54 180.44,-83.22 177.5,-84.87 174.42,-86.47 171.21,-88.01 167.88,-89.51 164.44,-90.94 160.9,-92.31 157.28,-93.62 153.58,-94.85 149.82,-96.01 146,-97.1 142.12,-98.1 138.21,-99.03 134.26,-99.86 130.28,-100.61 126.27,-101.28 122.24,-101.85 118.19,-102.32 114.14,-102.71 110.07,-103 105.99,-103.19 101.91,-103.28 97.83,-103.28 93.75,-103.19 89.68,-103 85.61,-102.71 81.55,-102.32 77.5,-101.85 73.48,-101.28 69.47,-100.61 65.49,-99.86 61.53,-99.03 57.62,-98.1 53.75,-97.1 49.93,-96.01 46.16,-94.85 42.46,-93.62 38.84,-92.31 35.31,-90.94 31.87,-89.51 28.54,-88.01 25.32,-86.47 22.24,-84.87 19.31,-83.22 16.53,-81.54 13.92,-79.82 11.5,-78.06 9.27,-76.28 7.25,-74.47 5.46,-72.65 3.91,-70.81 2.61,-68.97 1.57,-67.13 0.8,-65.28 0.32,-63.45 0.13,-61.63 0.24,-59.82 0.67,-58.04 1.41,-56.28 2.47,-54.56 3.86,-52.88 5.57,-51.23 7.61,-49.63 9.98,-48.09 12.66,-46.59 15.67,-45.16 18.99,-43.79 22.61,-42.48 26.52,-41.25 30.72,-40.09 35.19,-39 39.9,-38 44.86,-37.07 50.03,-36.24 55.41,-35.49 60.96,-34.82 66.68,-34.25 72.52,-33.78 78.48,-33.39 84.53,-33.1 90.64,-32.91 96.79,-32.81 102.95,-32.81 109.1,-32.91"/>
<text text-anchor="start" x="70.7" y="-77.85" font-family="Times,serif" font-size="14.00">C2063407</text>
<text text-anchor="start" x="41.56" y="-63.85" font-family="Times,serif" font-size="14.00">Hepatitis E Infection</text>
<text text-anchor="start" x="90.93" y="-49.85" font-family="Times,serif" font-size="14.00">4:6</text>
</g>
<!-- id_28182129_DOT_10 -->
<g id="node10" class="node">
<title>id_28182129_DOT_10</title>
<polygon fill="aquamarine" stroke="aquamarine" points="385.05,-281.73 392.45,-281.92 399.78,-282.21 407,-282.59 414.08,-283.07 421,-283.64 427.73,-284.3 434.24,-285.05 440.51,-285.89 446.52,-286.81 452.23,-287.82 457.64,-288.9 462.72,-290.06 467.47,-291.3 471.85,-292.6 475.87,-293.98 479.52,-295.41 482.77,-296.9 485.64,-298.45 488.11,-300.05 490.19,-301.69 491.87,-303.38 493.15,-305.1 494.05,-306.86 494.56,-308.64 494.7,-310.44 494.47,-312.27 493.89,-314.1 492.96,-315.94 491.7,-317.79 490.12,-319.63 488.24,-321.47 486.07,-323.29 483.63,-325.09 480.93,-326.88 477.99,-328.63 474.83,-330.36 471.47,-332.04 467.91,-333.69 464.18,-335.28 460.29,-336.83 456.25,-338.32 452.08,-339.76 447.8,-341.13 443.41,-342.43 438.93,-343.67 434.37,-344.83 429.74,-345.91 425.05,-346.92 420.31,-347.84 415.52,-348.68 410.7,-349.43 405.84,-350.09 400.96,-350.66 396.06,-351.14 391.15,-351.52 386.22,-351.81 381.28,-352.01 376.34,-352.1 371.39,-352.1 366.45,-352.01 361.51,-351.81 356.59,-351.52 351.67,-351.14 346.77,-350.66 341.89,-350.09 337.03,-349.43 332.21,-348.68 327.42,-347.84 322.68,-346.92 317.99,-345.91 313.36,-344.83 308.8,-343.67 304.32,-342.43 299.93,-341.13 295.65,-339.76 291.48,-338.32 287.45,-336.83 283.55,-335.28 279.82,-333.69 276.26,-332.04 272.9,-330.36 269.74,-328.63 266.8,-326.88 264.1,-325.09 261.66,-323.29 259.49,-321.47 257.61,-319.63 256.03,-317.79 254.77,-315.94 253.84,-314.1 253.26,-312.27 253.03,-310.44 253.17,-308.64 253.68,-306.86 254.58,-305.1 255.87,-303.38 257.55,-301.69 259.62,-300.05 262.09,-298.45 264.96,-296.9 268.22,-295.41 271.86,-293.98 275.88,-292.6 280.27,-291.3 285.01,-290.06 290.09,-288.9 295.5,-287.82 301.22,-286.81 307.22,-285.89 313.49,-285.05 320,-284.3 326.73,-283.64 333.65,-283.07 340.73,-282.59 347.95,-282.21 355.28,-281.92 362.68,-281.73 370.13,-281.63 377.6,-281.63 385.05,-281.73"/>
<text text-anchor="start" x="344.7" y="-326.67" font-family="Times,serif" font-size="14.00">C2063407</text>
<text text-anchor="start" x="301.74" y="-312.67" font-family="Times,serif" font-size="14.00">hepatitis E virus infection</text>
<text text-anchor="start" x="357.92" y="-298.67" font-family="Times,serif" font-size="14.00">44:47</text>
</g>
<!-- id_28182129_DOT_1&#45;&#45;id_28182129_DOT_10 -->
<g id="edge1" class="edge">
<title>id_28182129_DOT_1&#45;&#45;id_28182129_DOT_10</title>
<path fill="none" stroke="black" d="M134.85,-99.82C186.5,-146.72 282.78,-234.15 336.02,-282.5"/>
<text text-anchor="middle" x="209.19" y="-193.96" font-family="Times,serif" font-size="14.00">0.062652</text>
</g>
<!-- id_28182129_DOT_2 -->
<g id="node2" class="node">
<title>id_28182129_DOT_2</title>
<polygon fill="bisque" stroke="bisque" points="3353.91,-2623.44 3361.66,-2623.63 3369.34,-2623.92 3376.9,-2624.3 3384.33,-2624.78 3391.58,-2625.35 3398.63,-2626.01 3405.45,-2626.76 3412.01,-2627.6 3418.3,-2628.52 3424.29,-2629.53 3429.96,-2630.61 3435.28,-2631.78 3440.25,-2633.01 3444.85,-2634.31 3449.06,-2635.69 3452.88,-2637.12 3456.29,-2638.61 3459.29,-2640.16 3461.88,-2641.76 3464.06,-2643.4 3465.82,-2645.09 3467.16,-2646.81 3468.1,-2648.57 3468.64,-2650.35 3468.79,-2652.15 3468.55,-2653.98 3467.94,-2655.81 3466.96,-2657.65 3465.64,-2659.5 3463.99,-2661.34 3462.02,-2663.18 3459.74,-2665 3457.19,-2666.81 3454.36,-2668.59 3451.28,-2670.34 3447.97,-2672.07 3444.44,-2673.75 3440.72,-2675.4 3436.81,-2676.99 3432.73,-2678.54 3428.5,-2680.03 3424.14,-2681.47 3419.65,-2682.84 3415.05,-2684.15 3410.36,-2685.38 3405.58,-2686.54 3400.73,-2687.63 3395.82,-2688.63 3390.85,-2689.55 3385.84,-2690.39 3380.78,-2691.14 3375.7,-2691.8 3370.58,-2692.37 3365.45,-2692.85 3360.3,-2693.23 3355.13,-2693.52 3349.96,-2693.72 3344.78,-2693.81 3339.6,-2693.81 3334.43,-2693.72 3329.25,-2693.52 3324.09,-2693.23 3318.94,-2692.85 3313.8,-2692.37 3308.69,-2691.8 3303.6,-2691.14 3298.55,-2690.39 3293.53,-2689.55 3288.57,-2688.63 3283.65,-2687.63 3278.8,-2686.54 3274.03,-2685.38 3269.33,-2684.15 3264.74,-2682.84 3260.25,-2681.47 3255.88,-2680.03 3251.66,-2678.54 3247.58,-2676.99 3243.67,-2675.4 3239.94,-2673.75 3236.41,-2672.07 3233.1,-2670.34 3230.03,-2668.59 3227.2,-2666.81 3224.64,-2665 3222.37,-2663.18 3220.4,-2661.34 3218.74,-2659.5 3217.42,-2657.65 3216.45,-2655.81 3215.84,-2653.98 3215.6,-2652.15 3215.74,-2650.35 3216.28,-2648.57 3217.22,-2646.81 3218.57,-2645.09 3220.33,-2643.4 3222.51,-2641.76 3225.09,-2640.16 3228.1,-2638.61 3231.51,-2637.12 3235.33,-2635.69 3239.54,-2634.31 3244.13,-2633.01 3249.1,-2631.78 3254.43,-2630.61 3260.09,-2629.53 3266.08,-2628.52 3272.37,-2627.6 3278.94,-2626.76 3285.76,-2626.01 3292.81,-2625.35 3300.06,-2624.78 3307.48,-2624.3 3315.05,-2623.92 3322.72,-2623.63 3330.48,-2623.44 3338.28,-2623.34 3346.1,-2623.34 3353.91,-2623.44"/>
<text text-anchor="start" x="3313.02" y="-2668.38" font-family="Times,serif" font-size="14.00">C0024305</text>
<text text-anchor="start" x="3266.17" y="-2654.38" font-family="Times,serif" font-size="14.00">Non &#45; Hodgkin Lymphoma</text>
<text text-anchor="start" x="3326.5" y="-2640.38" font-family="Times,serif" font-size="14.00">11:14</text>
</g>
<!-- id_28182129_DOT_7 -->
<g id="node7" class="node">
<title>id_28182129_DOT_7</title>
<polygon fill="bisque" stroke="bisque" points="3029.16,-2453.14 3036.57,-2453.34 3043.91,-2453.63 3051.14,-2454.01 3058.24,-2454.49 3065.17,-2455.06 3071.91,-2455.72 3078.44,-2456.47 3084.72,-2457.31 3090.73,-2458.23 3096.46,-2459.24 3101.87,-2460.32 3106.97,-2461.48 3111.72,-2462.72 3116.11,-2464.02 3120.14,-2465.39 3123.79,-2466.83 3127.05,-2468.32 3129.92,-2469.87 3132.4,-2471.46 3134.47,-2473.11 3136.16,-2474.79 3137.45,-2476.52 3138.34,-2478.27 3138.86,-2480.06 3139,-2481.86 3138.77,-2483.68 3138.18,-2485.52 3137.25,-2487.36 3135.99,-2489.21 3134.41,-2491.05 3132.52,-2492.88 3130.35,-2494.71 3127.91,-2496.51 3125.2,-2498.29 3122.26,-2500.05 3119.1,-2501.77 3115.72,-2503.46 3112.16,-2505.1 3108.42,-2506.7 3104.52,-2508.25 3100.48,-2509.74 3096.31,-2511.17 3092.02,-2512.55 3087.62,-2513.85 3083.13,-2515.09 3078.57,-2516.25 3073.93,-2517.33 3069.23,-2518.34 3064.48,-2519.26 3059.69,-2520.1 3054.85,-2520.85 3049.99,-2521.51 3045.1,-2522.08 3040.19,-2522.56 3035.27,-2522.94 3030.33,-2523.23 3025.38,-2523.42 3020.43,-2523.52 3015.48,-2523.52 3010.53,-2523.42 3005.58,-2523.23 3000.65,-2522.94 2995.72,-2522.56 2990.81,-2522.08 2985.92,-2521.51 2981.06,-2520.85 2976.23,-2520.1 2971.43,-2519.26 2966.68,-2518.34 2961.98,-2517.33 2957.35,-2516.25 2952.78,-2515.09 2948.29,-2513.85 2943.9,-2512.55 2939.61,-2511.17 2935.43,-2509.74 2931.39,-2508.25 2927.49,-2506.7 2923.75,-2505.1 2920.19,-2503.46 2916.82,-2501.77 2913.65,-2500.05 2910.71,-2498.29 2908.01,-2496.51 2905.56,-2494.71 2903.39,-2492.88 2901.5,-2491.05 2899.92,-2489.21 2898.66,-2487.36 2897.73,-2485.52 2897.14,-2483.68 2896.91,-2481.86 2897.05,-2480.06 2897.57,-2478.27 2898.47,-2476.52 2899.76,-2474.79 2901.44,-2473.11 2903.52,-2471.46 2905.99,-2469.87 2908.87,-2468.32 2912.13,-2466.83 2915.78,-2465.39 2919.8,-2464.02 2924.2,-2462.72 2928.95,-2461.48 2934.04,-2460.32 2939.46,-2459.24 2945.18,-2458.23 2951.2,-2457.31 2957.48,-2456.47 2964,-2455.72 2970.74,-2455.06 2977.67,-2454.49 2984.77,-2454.01 2992,-2453.63 2999.34,-2453.34 3006.76,-2453.14 3014.22,-2453.05 3021.7,-2453.05 3029.16,-2453.14"/>
<text text-anchor="start" x="2988.79" y="-2498.08" font-family="Times,serif" font-size="14.00">C0024305</text>
<text text-anchor="start" x="2945.43" y="-2484.08" font-family="Times,serif" font-size="14.00">non &#45; Hodgkin lymphoma</text>
<text text-anchor="start" x="3002.01" y="-2470.08" font-family="Times,serif" font-size="14.00">32:35</text>
</g>
<!-- id_28182129_DOT_2&#45;&#45;id_28182129_DOT_7 -->
<g id="edge2" class="edge">
<title>id_28182129_DOT_2&#45;&#45;id_28182129_DOT_7</title>
<path fill="none" stroke="black" d="M3280.83,-2626.35C3221.16,-2595.01 3131.32,-2547.83 3073.66,-2517.54"/>
<text text-anchor="middle" x="3150.99" y="-2574.74" font-family="Times,serif" font-size="14.00">0.007186</text>
</g>
<!-- id_28182129_DOT_11 -->
<g id="node11" class="node">
<title>id_28182129_DOT_11</title>
<polygon fill="cornflowerblue" stroke="cornflowerblue" points="3694.15,-2739.89 3698.39,-2740.08 3702.59,-2740.37 3706.73,-2740.75 3710.79,-2741.23 3714.76,-2741.8 3718.62,-2742.46 3722.35,-2743.21 3725.94,-2744.05 3729.38,-2744.97 3732.66,-2745.98 3735.76,-2747.06 3738.68,-2748.23 3741.39,-2749.46 3743.91,-2750.77 3746.21,-2752.14 3748.3,-2753.57 3750.17,-2755.06 3751.81,-2756.61 3753.23,-2758.21 3754.42,-2759.85 3755.38,-2761.54 3756.12,-2763.26 3756.63,-2765.02 3756.93,-2766.8 3757.01,-2768.6 3756.88,-2770.43 3756.54,-2772.26 3756.01,-2774.11 3755.29,-2775.95 3754.38,-2777.79 3753.3,-2779.63 3752.06,-2781.45 3750.66,-2783.26 3749.11,-2785.04 3747.43,-2786.79 3745.62,-2788.52 3743.69,-2790.2 3741.65,-2791.85 3739.51,-2793.44 3737.28,-2794.99 3734.96,-2796.49 3732.58,-2797.92 3730.12,-2799.29 3727.6,-2800.6 3725.04,-2801.83 3722.42,-2802.99 3719.77,-2804.08 3717.08,-2805.08 3714.36,-2806 3711.62,-2806.84 3708.85,-2807.59 3706.07,-2808.25 3703.27,-2808.82 3700.46,-2809.3 3697.64,-2809.69 3694.82,-2809.97 3691.99,-2810.17 3689.15,-2810.26 3686.32,-2810.26 3683.49,-2810.17 3680.66,-2809.97 3677.83,-2809.69 3675.01,-2809.3 3672.2,-2808.82 3669.4,-2808.25 3666.62,-2807.59 3663.85,-2806.84 3661.11,-2806 3658.39,-2805.08 3655.7,-2804.08 3653.05,-2802.99 3650.44,-2801.83 3647.87,-2800.6 3645.35,-2799.29 3642.9,-2797.92 3640.51,-2796.49 3638.19,-2794.99 3635.96,-2793.44 3633.82,-2791.85 3631.78,-2790.2 3629.85,-2788.52 3628.04,-2786.79 3626.36,-2785.04 3624.81,-2783.26 3623.41,-2781.45 3622.17,-2779.63 3621.09,-2777.79 3620.19,-2775.95 3619.46,-2774.11 3618.93,-2772.26 3618.6,-2770.43 3618.46,-2768.6 3618.54,-2766.8 3618.84,-2765.02 3619.35,-2763.26 3620.09,-2761.54 3621.05,-2759.85 3622.24,-2758.21 3623.66,-2756.61 3625.3,-2755.06 3627.17,-2753.57 3629.26,-2752.14 3631.56,-2750.77 3634.08,-2749.46 3636.8,-2748.23 3639.71,-2747.06 3642.81,-2745.98 3646.09,-2744.97 3649.53,-2744.05 3653.12,-2743.21 3656.86,-2742.46 3660.71,-2741.8 3664.68,-2741.23 3668.74,-2740.75 3672.88,-2740.37 3677.08,-2740.08 3681.33,-2739.89 3685.6,-2739.79 3689.88,-2739.79 3694.15,-2739.89"/>
<text text-anchor="start" x="3658.57" y="-2784.83" font-family="Times,serif" font-size="14.00">C0232741</text>
<text text-anchor="start" x="3649.83" y="-2770.83" font-family="Times,serif" font-size="14.00">liver function</text>
<text text-anchor="start" x="3671.79" y="-2756.83" font-family="Times,serif" font-size="14.00">55:56</text>
</g>
<!-- id_28182129_DOT_2&#45;&#45;id_28182129_DOT_11 -->
<g id="edge4" class="edge">
<title>id_28182129_DOT_2&#45;&#45;id_28182129_DOT_11</title>
<path fill="none" stroke="black" stroke-dasharray="1,5" d="M3416.75,-2683.7C3479.24,-2704.76 3567.41,-2734.48 3626.01,-2754.23"/>
<text text-anchor="middle" x="3495.13" y="-2721.76" font-family="Times,serif" font-size="14.00">0.862382</text>
</g>
<!-- id_28182129_DOT_3 -->
<g id="node3" class="node">
<title>id_28182129_DOT_3</title>
<polygon fill="blue" stroke="blue" points="1817.13,-335.39 1820.56,-335.58 1823.95,-335.87 1827.29,-336.25 1830.57,-336.73 1833.78,-337.3 1836.89,-337.96 1839.91,-338.71 1842.81,-339.55 1845.59,-340.47 1848.24,-341.48 1850.74,-342.56 1853.1,-343.72 1855.29,-344.96 1857.32,-346.26 1859.19,-347.63 1860.87,-349.07 1862.38,-350.56 1863.71,-352.11 1864.85,-353.71 1865.81,-355.35 1866.59,-357.04 1867.19,-358.76 1867.6,-360.52 1867.84,-362.3 1867.91,-364.1 1867.8,-365.93 1867.53,-367.76 1867.1,-369.6 1866.51,-371.45 1865.78,-373.29 1864.91,-375.13 1863.91,-376.95 1862.78,-378.75 1861.53,-380.54 1860.17,-382.29 1858.7,-384.01 1857.15,-385.7 1855.5,-387.34 1853.77,-388.94 1851.97,-390.49 1850.1,-391.98 1848.17,-393.42 1846.19,-394.79 1844.15,-396.09 1842.08,-397.33 1839.97,-398.49 1837.82,-399.57 1835.65,-400.58 1833.46,-401.5 1831.24,-402.34 1829.01,-403.09 1826.76,-403.75 1824.5,-404.32 1822.23,-404.8 1819.95,-405.18 1817.67,-405.47 1815.38,-405.66 1813.09,-405.76 1810.8,-405.76 1808.52,-405.66 1806.23,-405.47 1803.95,-405.18 1801.67,-404.8 1799.4,-404.32 1797.14,-403.75 1794.89,-403.09 1792.66,-402.34 1790.44,-401.5 1788.24,-400.58 1786.07,-399.57 1783.93,-398.49 1781.82,-397.33 1779.74,-396.09 1777.71,-394.79 1775.73,-393.42 1773.8,-391.98 1771.93,-390.49 1770.13,-388.94 1768.4,-387.34 1766.75,-385.7 1765.19,-384.01 1763.73,-382.29 1762.37,-380.54 1761.12,-378.75 1759.99,-376.95 1758.98,-375.13 1758.11,-373.29 1757.38,-371.45 1756.8,-369.6 1756.37,-367.76 1756.1,-365.93 1755.99,-364.1 1756.06,-362.3 1756.29,-360.52 1756.71,-358.76 1757.31,-357.04 1758.08,-355.35 1759.04,-353.71 1760.19,-352.11 1761.52,-350.56 1763.03,-349.07 1764.71,-347.63 1766.57,-346.26 1768.6,-344.96 1770.8,-343.72 1773.15,-342.56 1775.66,-341.48 1778.31,-340.47 1781.09,-339.55 1783.99,-338.71 1787,-337.96 1790.12,-337.3 1793.33,-336.73 1796.61,-336.25 1799.95,-335.87 1803.34,-335.58 1806.77,-335.39 1810.22,-335.29 1813.68,-335.29 1817.13,-335.39"/>
<text text-anchor="start" x="1782.78" y="-380.33" font-family="Times,serif" font-size="14.00">C0332293</text>
<text text-anchor="start" x="1790.82" y="-366.33" font-family="Times,serif" font-size="14.00">Treated</text>
<text text-anchor="start" x="1796" y="-352.33" font-family="Times,serif" font-size="14.00">15:15</text>
</g>
<!-- id_28182129_DOT_8 -->
<g id="node8" class="node">
<title>id_28182129_DOT_8</title>
<polygon fill="chartreuse" stroke="chartreuse" points="1604.77,-671.35 1608.2,-671.54 1611.59,-671.83 1614.94,-672.21 1618.22,-672.69 1621.42,-673.26 1624.54,-673.92 1627.55,-674.67 1630.45,-675.51 1633.23,-676.43 1635.88,-677.44 1638.39,-678.52 1640.74,-679.68 1642.94,-680.92 1644.97,-682.22 1646.83,-683.59 1648.52,-685.03 1650.02,-686.52 1651.35,-688.07 1652.5,-689.67 1653.46,-691.31 1654.24,-693 1654.83,-694.72 1655.25,-696.47 1655.48,-698.26 1655.55,-700.06 1655.44,-701.88 1655.17,-703.72 1654.74,-705.56 1654.16,-707.41 1653.43,-709.25 1652.56,-711.09 1651.55,-712.91 1650.42,-714.71 1649.17,-716.5 1647.81,-718.25 1646.35,-719.97 1644.79,-721.66 1643.14,-723.3 1641.41,-724.9 1639.61,-726.45 1637.74,-727.94 1635.81,-729.38 1633.83,-730.75 1631.8,-732.05 1629.72,-733.29 1627.61,-734.45 1625.47,-735.53 1623.3,-736.54 1621.1,-737.46 1618.88,-738.3 1616.65,-739.05 1614.4,-739.71 1612.14,-740.28 1609.87,-740.76 1607.59,-741.14 1605.31,-741.43 1603.03,-741.62 1600.74,-741.72 1598.45,-741.72 1596.16,-741.62 1593.87,-741.43 1591.59,-741.14 1589.31,-740.76 1587.04,-740.28 1584.78,-739.71 1582.54,-739.05 1580.3,-738.3 1578.08,-737.46 1575.89,-736.54 1573.72,-735.53 1571.57,-734.45 1569.46,-733.29 1567.39,-732.05 1565.36,-730.75 1563.37,-729.38 1561.44,-727.94 1559.57,-726.45 1557.77,-724.9 1556.04,-723.3 1554.4,-721.66 1552.84,-719.97 1551.37,-718.25 1550.01,-716.5 1548.76,-714.71 1547.63,-712.91 1546.63,-711.09 1545.76,-709.25 1545.03,-707.41 1544.44,-705.56 1544.01,-703.72 1543.74,-701.88 1543.64,-700.06 1543.7,-698.26 1543.94,-696.47 1544.35,-694.72 1544.95,-693 1545.73,-691.31 1546.69,-689.67 1547.83,-688.07 1549.16,-686.52 1550.67,-685.03 1552.36,-683.59 1554.22,-682.22 1556.25,-680.92 1558.44,-679.68 1560.8,-678.52 1563.3,-677.44 1565.95,-676.43 1568.73,-675.51 1571.63,-674.67 1574.65,-673.92 1577.76,-673.26 1580.97,-672.69 1584.25,-672.21 1587.59,-671.83 1590.99,-671.54 1594.41,-671.35 1597.86,-671.25 1601.32,-671.25 1604.77,-671.35"/>
<text text-anchor="start" x="1570.42" y="-716.29" font-family="Times,serif" font-size="14.00">C0439663</text>
<text text-anchor="start" x="1577.05" y="-702.29" font-family="Times,serif" font-size="14.00">infected</text>
<text text-anchor="start" x="1583.65" y="-688.29" font-family="Times,serif" font-size="14.00">38:38</text>
</g>
<!-- id_28182129_DOT_3&#45;&#45;id_28182129_DOT_8 -->
<g id="edge5" class="edge">
<title>id_28182129_DOT_3&#45;&#45;id_28182129_DOT_8</title>
<path fill="none" stroke="black" stroke-dasharray="1,5" d="M1791.97,-402.13C1751.91,-465.51 1662.09,-607.61 1620.93,-672.73"/>
<text text-anchor="middle" x="1680.2" y="-540.23" font-family="Times,serif" font-size="14.00">0.847150</text>
</g>
<!-- id_28182129_DOT_17 -->
<g id="node17" class="node">
<title>id_28182129_DOT_17</title>
<polygon fill="darkorange" stroke="darkorange" points="2000.51,-0.23 2003.91,-0.42 2007.27,-0.71 2010.58,-1.09 2013.83,-1.57 2017,-2.14 2020.09,-2.8 2023.07,-3.55 2025.95,-4.39 2028.7,-5.31 2031.32,-6.32 2033.8,-7.4 2036.13,-8.57 2038.31,-9.8 2040.32,-11.1 2042.16,-12.48 2043.83,-13.91 2045.33,-15.4 2046.64,-16.95 2047.77,-18.55 2048.73,-20.19 2049.5,-21.88 2050.09,-23.6 2050.5,-25.36 2050.73,-27.14 2050.8,-28.94 2050.69,-30.77 2050.42,-32.6 2050,-34.44 2049.42,-36.29 2048.7,-38.13 2047.83,-39.97 2046.84,-41.79 2045.72,-43.6 2044.48,-45.38 2043.13,-47.13 2041.69,-48.86 2040.14,-50.54 2038.51,-52.19 2036.8,-53.78 2035.01,-55.33 2033.16,-56.82 2031.25,-58.26 2029.29,-59.63 2027.28,-60.94 2025.22,-62.17 2023.13,-63.33 2021.01,-64.42 2018.86,-65.42 2016.68,-66.34 2014.49,-67.18 2012.28,-67.93 2010.05,-68.59 2007.81,-69.16 2005.56,-69.64 2003.31,-70.02 2001.05,-70.31 1998.78,-70.51 1996.52,-70.6 1994.25,-70.6 1991.98,-70.51 1989.72,-70.31 1987.46,-70.02 1985.2,-69.64 1982.96,-69.16 1980.72,-68.59 1978.49,-67.93 1976.28,-67.18 1974.09,-66.34 1971.91,-65.42 1969.76,-64.42 1967.64,-63.33 1965.55,-62.17 1963.49,-60.94 1961.48,-59.63 1959.52,-58.26 1957.6,-56.82 1955.75,-55.33 1953.97,-53.78 1952.26,-52.19 1950.63,-50.54 1949.08,-48.86 1947.63,-47.13 1946.29,-45.38 1945.05,-43.6 1943.93,-41.79 1942.93,-39.97 1942.07,-38.13 1941.35,-36.29 1940.77,-34.44 1940.34,-32.6 1940.08,-30.77 1939.97,-28.94 1940.03,-27.14 1940.27,-25.36 1940.68,-23.6 1941.27,-21.88 1942.04,-20.19 1942.99,-18.55 1944.13,-16.95 1945.44,-15.4 1946.94,-13.91 1948.61,-12.48 1950.45,-11.1 1952.46,-9.8 1954.64,-8.57 1956.97,-7.4 1959.45,-6.32 1962.07,-5.31 1964.82,-4.39 1967.7,-3.55 1970.68,-2.8 1973.77,-2.14 1976.94,-1.57 1980.19,-1.09 1983.5,-0.71 1986.86,-0.42 1990.26,-0.23 1993.67,-0.13 1997.1,-0.13 2000.51,-0.23"/>
<text text-anchor="start" x="1966.73" y="-45.17" font-family="Times,serif" font-size="14.00">C0087111</text>
<text text-anchor="start" x="1968.95" y="-31.17" font-family="Times,serif" font-size="14.00">treatment</text>
<text text-anchor="start" x="1972.44" y="-17.17" font-family="Times,serif" font-size="14.00">105:105</text>
</g>
<!-- id_28182129_DOT_3&#45;&#45;id_28182129_DOT_17 -->
<g id="edge3" class="edge">
<title>id_28182129_DOT_3&#45;&#45;id_28182129_DOT_17</title>
<path fill="none" stroke="black" d="M1830.55,-336.54C1865.98,-271.81 1942.72,-131.59 1977.55,-67.95"/>
<text text-anchor="middle" x="1877.8" y="-205.05" font-family="Times,serif" font-size="14.00">0.012356</text>
</g>
<!-- id_28182129_DOT_4 -->
<g id="node4" class="node">
<title>id_28182129_DOT_4</title>
<polygon fill="blueviolet" stroke="blueviolet" points="404.32,-2175.49 407.74,-2175.68 411.14,-2175.97 414.48,-2176.35 417.76,-2176.83 420.97,-2177.4 424.08,-2178.06 427.1,-2178.81 430,-2179.65 432.78,-2180.57 435.43,-2181.58 437.93,-2182.66 440.29,-2183.83 442.48,-2185.06 444.51,-2186.36 446.37,-2187.74 448.06,-2189.17 449.57,-2190.66 450.9,-2192.21 452.04,-2193.81 453,-2195.45 453.78,-2197.14 454.38,-2198.86 454.79,-2200.62 455.03,-2202.4 455.09,-2204.2 454.99,-2206.03 454.72,-2207.86 454.29,-2209.71 453.7,-2211.55 452.97,-2213.39 452.1,-2215.23 451.1,-2217.05 449.97,-2218.86 448.72,-2220.64 447.36,-2222.39 445.89,-2224.12 444.33,-2225.8 442.69,-2227.45 440.96,-2229.04 439.16,-2230.59 437.29,-2232.08 435.36,-2233.52 433.37,-2234.89 431.34,-2236.2 429.27,-2237.43 427.16,-2238.59 425.01,-2239.68 422.84,-2240.68 420.64,-2241.6 418.43,-2242.44 416.19,-2243.19 413.95,-2243.85 411.69,-2244.42 409.42,-2244.9 407.14,-2245.28 404.86,-2245.57 402.57,-2245.77 400.28,-2245.86 397.99,-2245.86 395.7,-2245.77 393.42,-2245.57 391.14,-2245.28 388.86,-2244.9 386.59,-2244.42 384.33,-2243.85 382.08,-2243.19 379.85,-2242.44 377.63,-2241.6 375.43,-2240.68 373.26,-2239.68 371.12,-2238.59 369.01,-2237.43 366.93,-2236.2 364.9,-2234.89 362.92,-2233.52 360.99,-2232.08 359.12,-2230.59 357.32,-2229.04 355.59,-2227.45 353.94,-2225.8 352.38,-2224.12 350.92,-2222.39 349.56,-2220.64 348.31,-2218.86 347.18,-2217.05 346.17,-2215.23 345.3,-2213.39 344.57,-2211.55 343.99,-2209.71 343.56,-2207.86 343.29,-2206.03 343.18,-2204.2 343.24,-2202.4 343.48,-2200.62 343.9,-2198.86 344.49,-2197.14 345.27,-2195.45 346.23,-2193.81 347.38,-2192.21 348.71,-2190.66 350.21,-2189.17 351.9,-2187.74 353.76,-2186.36 355.79,-2185.06 357.99,-2183.83 360.34,-2182.66 362.85,-2181.58 365.5,-2180.57 368.28,-2179.65 371.18,-2178.81 374.19,-2178.06 377.31,-2177.4 380.51,-2176.83 383.79,-2176.35 387.14,-2175.97 390.53,-2175.68 393.96,-2175.49 397.41,-2175.39 400.87,-2175.39 404.32,-2175.49"/>
<text text-anchor="start" x="369.97" y="-2220.43" font-family="Times,serif" font-size="14.00">C0035525</text>
<text text-anchor="start" x="372.7" y="-2206.43" font-family="Times,serif" font-size="14.00">Ribavirin</text>
<text text-anchor="start" x="383.19" y="-2192.43" font-family="Times,serif" font-size="14.00">18:18</text>
</g>
<!-- id_28182129_DOT_18 -->
<g id="node18" class="node">
<title>id_28182129_DOT_18</title>
<polygon fill="blueviolet" stroke="blueviolet" points="696.01,-1924.89 699.44,-1925.09 702.84,-1925.37 706.18,-1925.76 709.46,-1926.24 712.66,-1926.81 715.78,-1927.47 718.8,-1928.22 721.7,-1929.06 724.48,-1929.98 727.13,-1930.98 729.63,-1932.07 731.98,-1933.23 734.18,-1934.46 736.21,-1935.77 738.07,-1937.14 739.76,-1938.57 741.27,-1940.07 742.6,-1941.61 743.74,-1943.21 744.7,-1944.86 745.48,-1946.54 746.07,-1948.27 746.49,-1950.02 746.73,-1951.8 746.79,-1953.61 746.69,-1955.43 746.42,-1957.27 745.99,-1959.11 745.4,-1960.95 744.67,-1962.8 743.8,-1964.63 742.8,-1966.45 741.66,-1968.26 740.42,-1970.04 739.06,-1971.8 737.59,-1973.52 736.03,-1975.21 734.39,-1976.85 732.66,-1978.45 730.85,-1980 728.99,-1981.49 727.06,-1982.92 725.07,-1984.29 723.04,-1985.6 720.97,-1986.83 718.86,-1987.99 716.71,-1989.08 714.54,-1990.08 712.34,-1991.01 710.13,-1991.85 707.89,-1992.6 705.64,-1993.26 703.38,-1993.83 701.11,-1994.3 698.84,-1994.69 696.56,-1994.98 694.27,-1995.17 691.98,-1995.27 689.69,-1995.27 687.4,-1995.17 685.12,-1994.98 682.83,-1994.69 680.56,-1994.3 678.29,-1993.83 676.03,-1993.26 673.78,-1992.6 671.55,-1991.85 669.33,-1991.01 667.13,-1990.08 664.96,-1989.08 662.82,-1987.99 660.7,-1986.83 658.63,-1985.6 656.6,-1984.29 654.62,-1982.92 652.69,-1981.49 650.82,-1980 649.02,-1978.45 647.29,-1976.85 645.64,-1975.21 644.08,-1973.52 642.62,-1971.8 641.26,-1970.04 640.01,-1968.26 638.88,-1966.45 637.87,-1964.63 637,-1962.8 636.27,-1960.95 635.69,-1959.11 635.26,-1957.27 634.99,-1955.43 634.88,-1953.61 634.94,-1951.8 635.18,-1950.02 635.6,-1948.27 636.19,-1946.54 636.97,-1944.86 637.93,-1943.21 639.08,-1941.61 640.4,-1940.07 641.91,-1938.57 643.6,-1937.14 645.46,-1935.77 647.49,-1934.46 649.69,-1933.23 652.04,-1932.07 654.55,-1930.98 657.19,-1929.98 659.97,-1929.06 662.88,-1928.22 665.89,-1927.47 669.01,-1926.81 672.21,-1926.24 675.49,-1925.76 678.84,-1925.37 682.23,-1925.09 685.66,-1924.89 689.11,-1924.8 692.56,-1924.8 696.01,-1924.89"/>
<text text-anchor="start" x="661.67" y="-1969.83" font-family="Times,serif" font-size="14.00">C0035525</text>
<text text-anchor="start" x="666.73" y="-1955.83" font-family="Times,serif" font-size="14.00">ribavirin</text>
<text text-anchor="start" x="667.89" y="-1941.83" font-family="Times,serif" font-size="14.00">107:107</text>
</g>
<!-- id_28182129_DOT_4&#45;&#45;id_28182129_DOT_18 -->
<g id="edge6" class="edge">
<title>id_28182129_DOT_4&#45;&#45;id_28182129_DOT_18</title>
<path fill="none" stroke="black" stroke-dasharray="1,5" d="M433.74,-2180.9C491.09,-2131.63 604.93,-2033.83 659.82,-1986.68"/>
<text text-anchor="middle" x="520.53" y="-2086.59" font-family="Times,serif" font-size="14.00">0.276368</text>
</g>
<!-- id_28182129_DOT_5 -->
<g id="node5" class="node">
<title>id_28182129_DOT_5</title>
<polygon fill="brown" stroke="brown" points="2415.85,-2023.68 2419.28,-2023.87 2422.67,-2024.16 2426.02,-2024.54 2429.3,-2025.02 2432.5,-2025.59 2435.62,-2026.25 2438.63,-2027 2441.54,-2027.84 2444.32,-2028.76 2446.96,-2029.77 2449.47,-2030.85 2451.82,-2032.01 2454.02,-2033.25 2456.05,-2034.55 2457.91,-2035.92 2459.6,-2037.36 2461.11,-2038.85 2462.43,-2040.4 2463.58,-2042 2464.54,-2043.64 2465.32,-2045.33 2465.91,-2047.05 2466.33,-2048.8 2466.57,-2050.59 2466.63,-2052.39 2466.53,-2054.21 2466.26,-2056.05 2465.83,-2057.89 2465.24,-2059.74 2464.51,-2061.58 2463.64,-2063.42 2462.63,-2065.24 2461.5,-2067.04 2460.26,-2068.83 2458.9,-2070.58 2457.43,-2072.3 2455.87,-2073.99 2454.23,-2075.63 2452.5,-2077.23 2450.69,-2078.78 2448.83,-2080.27 2446.9,-2081.71 2444.91,-2083.08 2442.88,-2084.38 2440.81,-2085.62 2438.7,-2086.78 2436.55,-2087.86 2434.38,-2088.87 2432.18,-2089.79 2429.97,-2090.63 2427.73,-2091.38 2425.48,-2092.04 2423.22,-2092.61 2420.95,-2093.09 2418.68,-2093.47 2416.4,-2093.76 2414.11,-2093.95 2411.82,-2094.05 2409.53,-2094.05 2407.24,-2093.95 2404.96,-2093.76 2402.67,-2093.47 2400.4,-2093.09 2398.13,-2092.61 2395.87,-2092.04 2393.62,-2091.38 2391.38,-2090.63 2389.17,-2089.79 2386.97,-2088.87 2384.8,-2087.86 2382.66,-2086.78 2380.54,-2085.62 2378.47,-2084.38 2376.44,-2083.08 2374.46,-2081.71 2372.53,-2080.27 2370.66,-2078.78 2368.85,-2077.23 2367.13,-2075.63 2365.48,-2073.99 2363.92,-2072.3 2362.46,-2070.58 2361.1,-2068.83 2359.85,-2067.04 2358.72,-2065.24 2357.71,-2063.42 2356.84,-2061.58 2356.11,-2059.74 2355.53,-2057.89 2355.1,-2056.05 2354.83,-2054.21 2354.72,-2052.39 2354.78,-2050.59 2355.02,-2048.8 2355.44,-2047.05 2356.03,-2045.33 2356.81,-2043.64 2357.77,-2042 2358.92,-2040.4 2360.24,-2038.85 2361.75,-2037.36 2363.44,-2035.92 2365.3,-2034.55 2367.33,-2033.25 2369.53,-2032.01 2371.88,-2030.85 2374.39,-2029.77 2377.03,-2028.76 2379.81,-2027.84 2382.72,-2027 2385.73,-2026.25 2388.85,-2025.59 2392.05,-2025.02 2395.33,-2024.54 2398.68,-2024.16 2402.07,-2023.87 2405.5,-2023.68 2408.95,-2023.58 2412.4,-2023.58 2415.85,-2023.68"/>
<text text-anchor="start" x="2381.51" y="-2068.62" font-family="Times,serif" font-size="14.00">C0025266</text>
<text text-anchor="start" x="2398.62" y="-2054.62" font-family="Times,serif" font-size="14.00">man</text>
<text text-anchor="start" x="2394.73" y="-2040.62" font-family="Times,serif" font-size="14.00">25:25</text>
</g>
<!-- id_28182129_DOT_6 -->
<g id="node6" class="node">
<title>id_28182129_DOT_6</title>
<polygon fill="cadetblue" stroke="cadetblue" points="2096.68,-1817.37 2105.17,-1817.56 2113.58,-1817.85 2121.86,-1818.23 2129.99,-1818.71 2137.93,-1819.28 2145.65,-1819.94 2153.12,-1820.69 2160.32,-1821.53 2167.21,-1822.45 2173.76,-1823.46 2179.97,-1824.54 2185.8,-1825.7 2191.25,-1826.94 2196.28,-1828.24 2200.89,-1829.61 2205.07,-1831.05 2208.81,-1832.54 2212.1,-1834.09 2214.93,-1835.69 2217.31,-1837.33 2219.24,-1839.02 2220.72,-1840.74 2221.75,-1842.49 2222.34,-1844.28 2222.5,-1846.08 2222.23,-1847.9 2221.56,-1849.74 2220.5,-1851.58 2219.05,-1853.43 2217.24,-1855.27 2215.08,-1857.11 2212.59,-1858.93 2209.79,-1860.73 2206.7,-1862.52 2203.33,-1864.27 2199.7,-1865.99 2195.84,-1867.68 2191.75,-1869.32 2187.47,-1870.92 2183.01,-1872.47 2178.37,-1873.96 2173.59,-1875.4 2168.68,-1876.77 2163.65,-1878.07 2158.51,-1879.31 2153.28,-1880.47 2147.96,-1881.55 2142.58,-1882.56 2137.14,-1883.48 2131.65,-1884.32 2126.11,-1885.07 2120.54,-1885.73 2114.94,-1886.3 2109.32,-1886.78 2103.67,-1887.16 2098.02,-1887.45 2092.35,-1887.64 2086.68,-1887.74 2081.01,-1887.74 2075.34,-1887.64 2069.68,-1887.45 2064.02,-1887.16 2058.38,-1886.78 2052.76,-1886.3 2047.16,-1885.73 2041.58,-1885.07 2036.05,-1884.32 2030.56,-1883.48 2025.11,-1882.56 2019.73,-1881.55 2014.42,-1880.47 2009.19,-1879.31 2004.05,-1878.07 1999.02,-1876.77 1994.1,-1875.4 1989.32,-1873.96 1984.69,-1872.47 1980.22,-1870.92 1975.94,-1869.32 1971.86,-1867.68 1968,-1865.99 1964.37,-1864.27 1961,-1862.52 1957.9,-1860.73 1955.1,-1858.93 1952.61,-1857.11 1950.46,-1855.27 1948.64,-1853.43 1947.2,-1851.58 1946.13,-1849.74 1945.46,-1847.9 1945.2,-1846.08 1945.36,-1844.28 1945.95,-1842.49 1946.98,-1840.74 1948.45,-1839.02 1950.38,-1837.33 1952.76,-1835.69 1955.6,-1834.09 1958.89,-1832.54 1962.63,-1831.05 1966.8,-1829.61 1971.42,-1828.24 1976.45,-1826.94 1981.89,-1825.7 1987.72,-1824.54 1993.93,-1823.46 2000.49,-1822.45 2007.38,-1821.53 2014.57,-1820.69 2022.04,-1819.94 2029.76,-1819.28 2037.7,-1818.71 2045.83,-1818.23 2054.12,-1817.85 2062.52,-1817.56 2071.02,-1817.37 2079.57,-1817.27 2088.13,-1817.27 2096.68,-1817.37"/>
<text text-anchor="start" x="2054.68" y="-1862.31" font-family="Times,serif" font-size="14.00">C0021079</text>
<text text-anchor="start" x="1999.67" y="-1848.31" font-family="Times,serif" font-size="14.00">immunosuppressive treatment</text>
<text text-anchor="start" x="2067.9" y="-1834.31" font-family="Times,serif" font-size="14.00">29:30</text>
</g>
<!-- id_28182129_DOT_5&#45;&#45;id_28182129_DOT_6 -->
<g id="edge7" class="edge">
<title>id_28182129_DOT_5&#45;&#45;id_28182129_DOT_6</title>
<path fill="none" stroke="black" stroke-dasharray="1,5" d="M2368.62,-2032.27C2308.45,-1994.28 2197.99,-1924.56 2133.76,-1884.01"/>
<text text-anchor="middle" x="2224.94" y="-1960.94" font-family="Times,serif" font-size="14.00">0.875229</text>
</g>
<!-- id_28182129_DOT_15 -->
<g id="node15" class="node">
<title>id_28182129_DOT_15</title>
<polygon fill="darkkhaki" stroke="darkkhaki" points="2717.03,-2247.5 2720.63,-2247.7 2724.2,-2247.99 2727.71,-2248.37 2731.16,-2248.85 2734.53,-2249.42 2737.8,-2250.08 2740.97,-2250.83 2744.02,-2251.67 2746.94,-2252.59 2749.72,-2253.6 2752.36,-2254.68 2754.83,-2255.84 2757.14,-2257.08 2759.27,-2258.38 2761.23,-2259.75 2763,-2261.19 2764.59,-2262.68 2765.98,-2264.23 2767.18,-2265.83 2768.19,-2267.47 2769.01,-2269.16 2769.64,-2270.88 2770.08,-2272.63 2770.33,-2274.42 2770.39,-2276.22 2770.28,-2278.04 2770,-2279.88 2769.54,-2281.72 2768.93,-2283.57 2768.16,-2285.41 2767.25,-2287.24 2766.19,-2289.07 2765,-2290.87 2763.69,-2292.65 2762.26,-2294.41 2760.72,-2296.13 2759.09,-2297.82 2757.35,-2299.46 2755.54,-2301.06 2753.64,-2302.61 2751.68,-2304.1 2749.65,-2305.54 2747.57,-2306.91 2745.43,-2308.21 2743.25,-2309.45 2741.03,-2310.61 2738.78,-2311.69 2736.5,-2312.7 2734.19,-2313.62 2731.86,-2314.46 2729.51,-2315.21 2727.15,-2315.87 2724.78,-2316.44 2722.39,-2316.92 2720,-2317.3 2717.6,-2317.59 2715.2,-2317.78 2712.79,-2317.88 2710.39,-2317.88 2707.98,-2317.78 2705.58,-2317.59 2703.18,-2317.3 2700.79,-2316.92 2698.4,-2316.44 2696.03,-2315.87 2693.66,-2315.21 2691.32,-2314.46 2688.99,-2313.62 2686.68,-2312.7 2684.4,-2311.69 2682.14,-2310.61 2679.92,-2309.45 2677.74,-2308.21 2675.61,-2306.91 2673.52,-2305.54 2671.5,-2304.1 2669.53,-2302.61 2667.64,-2301.06 2665.82,-2299.46 2664.09,-2297.82 2662.45,-2296.13 2660.91,-2294.41 2659.49,-2292.65 2658.17,-2290.87 2656.98,-2289.07 2655.93,-2287.24 2655.01,-2285.41 2654.25,-2283.57 2653.63,-2281.72 2653.18,-2279.88 2652.9,-2278.04 2652.78,-2276.22 2652.85,-2274.42 2653.1,-2272.63 2653.54,-2270.88 2654.16,-2269.16 2654.98,-2267.47 2655.99,-2265.83 2657.19,-2264.23 2658.59,-2262.68 2660.17,-2261.19 2661.95,-2259.75 2663.9,-2258.38 2666.04,-2257.08 2668.35,-2255.84 2670.82,-2254.68 2673.45,-2253.6 2676.23,-2252.59 2679.16,-2251.67 2682.21,-2250.83 2685.37,-2250.08 2688.65,-2249.42 2692.02,-2248.85 2695.46,-2248.37 2698.98,-2247.99 2702.54,-2247.7 2706.15,-2247.5 2709.77,-2247.41 2713.4,-2247.41 2717.03,-2247.5"/>
<text text-anchor="start" x="2682.42" y="-2292.44" font-family="Times,serif" font-size="14.00">C0237401</text>
<text text-anchor="start" x="2680.48" y="-2278.44" font-family="Times,serif" font-size="14.00">individuals</text>
<text text-anchor="start" x="2695.64" y="-2264.44" font-family="Times,serif" font-size="14.00">82:82</text>
</g>
<!-- id_28182129_DOT_5&#45;&#45;id_28182129_DOT_15 -->
<g id="edge8" class="edge">
<title>id_28182129_DOT_5&#45;&#45;id_28182129_DOT_15</title>
<path fill="none" stroke="black" stroke-dasharray="1,5" d="M2444.32,-2083.84C2500.45,-2125.59 2612.91,-2209.24 2672.48,-2253.55"/>
<text text-anchor="middle" x="2532.15" y="-2171.5" font-family="Times,serif" font-size="14.00">0.873301</text>
</g>
<!-- id_28182129_DOT_13 -->
<g id="node13" class="node">
<title>id_28182129_DOT_13</title>
<polygon fill="darkgoldenrod" stroke="darkgoldenrod" points="1702.59,-1699.71 1708.53,-1699.9 1714.41,-1700.19 1720.2,-1700.57 1725.89,-1701.05 1731.44,-1701.62 1736.84,-1702.28 1742.06,-1703.03 1747.09,-1703.87 1751.91,-1704.79 1756.49,-1705.8 1760.83,-1706.88 1764.91,-1708.05 1768.72,-1709.28 1772.24,-1710.58 1775.46,-1711.96 1778.38,-1713.39 1781,-1714.88 1783.3,-1716.43 1785.28,-1718.03 1786.95,-1719.67 1788.29,-1721.36 1789.33,-1723.08 1790.05,-1724.84 1790.46,-1726.62 1790.57,-1728.42 1790.39,-1730.25 1789.92,-1732.08 1789.17,-1733.92 1788.16,-1735.77 1786.89,-1737.61 1785.38,-1739.45 1783.64,-1741.27 1781.68,-1743.08 1779.52,-1744.86 1777.16,-1746.61 1774.63,-1748.34 1771.93,-1750.02 1769.07,-1751.67 1766.08,-1753.26 1762.96,-1754.81 1759.72,-1756.3 1756.37,-1757.74 1752.94,-1759.11 1749.42,-1760.42 1745.83,-1761.65 1742.17,-1762.81 1738.45,-1763.9 1734.69,-1764.9 1730.88,-1765.82 1727.04,-1766.66 1723.17,-1767.41 1719.28,-1768.07 1715.36,-1768.64 1711.43,-1769.12 1707.48,-1769.5 1703.53,-1769.79 1699.57,-1769.99 1695.6,-1770.08 1691.64,-1770.08 1687.67,-1769.99 1683.71,-1769.79 1679.76,-1769.5 1675.81,-1769.12 1671.88,-1768.64 1667.96,-1768.07 1664.07,-1767.41 1660.2,-1766.66 1656.36,-1765.82 1652.55,-1764.9 1648.79,-1763.9 1645.08,-1762.81 1641.42,-1761.65 1637.82,-1760.42 1634.3,-1759.11 1630.87,-1757.74 1627.52,-1756.3 1624.29,-1754.81 1621.16,-1753.26 1618.17,-1751.67 1615.31,-1750.02 1612.61,-1748.34 1610.08,-1746.61 1607.72,-1744.86 1605.56,-1743.08 1603.6,-1741.27 1601.86,-1739.45 1600.35,-1737.61 1599.08,-1735.77 1598.07,-1733.92 1597.33,-1732.08 1596.86,-1730.25 1596.67,-1728.42 1596.78,-1726.62 1597.2,-1724.84 1597.92,-1723.08 1598.95,-1721.36 1600.3,-1719.67 1601.96,-1718.03 1603.95,-1716.43 1606.24,-1714.88 1608.86,-1713.39 1611.78,-1711.96 1615.01,-1710.58 1618.53,-1709.28 1622.33,-1708.05 1626.41,-1706.88 1630.75,-1705.8 1635.33,-1704.79 1640.15,-1703.87 1645.18,-1703.03 1650.4,-1702.28 1655.8,-1701.62 1661.36,-1701.05 1667.04,-1700.57 1672.83,-1700.19 1678.71,-1699.9 1684.65,-1699.71 1690.63,-1699.61 1696.62,-1699.61 1702.59,-1699.71"/>
<text text-anchor="start" x="1664.45" y="-1744.65" font-family="Times,serif" font-size="14.00">C4048329</text>
<text text-anchor="start" x="1637.23" y="-1730.65" font-family="Times,serif" font-size="14.00">immunosuppression</text>
<text text-anchor="start" x="1677.68" y="-1716.65" font-family="Times,serif" font-size="14.00">64:64</text>
</g>
<!-- id_28182129_DOT_6&#45;&#45;id_28182129_DOT_13 -->
<g id="edge9" class="edge">
<title>id_28182129_DOT_6&#45;&#45;id_28182129_DOT_13</title>
<path fill="none" stroke="black" stroke-dasharray="1,5" d="M1989.38,-1824.02C1919.12,-1802.84 1824.88,-1774.42 1761.84,-1755.42"/>
<text text-anchor="middle" x="1849.36" y="-1792.52" font-family="Times,serif" font-size="14.00">0.789067</text>
</g>
<!-- id_28182129_DOT_7&#45;&#45;id_28182129_DOT_15 -->
<g id="edge10" class="edge">
<title>id_28182129_DOT_7&#45;&#45;id_28182129_DOT_15</title>
<path fill="none" stroke="black" stroke-dasharray="1,5" d="M2968.73,-2455.24C2906.99,-2413.8 2802.6,-2343.73 2747.74,-2306.91"/>
<text text-anchor="middle" x="2831.99" y="-2383.88" font-family="Times,serif" font-size="14.00">0.840734</text>
</g>
<!-- id_28182129_DOT_14 -->
<g id="node14" class="node">
<title>id_28182129_DOT_14</title>
<polygon fill="darkgreen" stroke="darkgreen" points="1332.04,-988.93 1337.03,-989.12 1341.96,-989.41 1346.82,-989.8 1351.59,-990.27 1356.25,-990.84 1360.78,-991.51 1365.16,-992.26 1369.38,-993.09 1373.43,-994.02 1377.27,-995.02 1380.92,-996.11 1384.34,-997.27 1387.53,-998.5 1390.49,-999.81 1393.19,-1001.18 1395.64,-1002.61 1397.84,-1004.11 1399.77,-1005.65 1401.43,-1007.25 1402.83,-1008.9 1403.96,-1010.58 1404.83,-1012.3 1405.43,-1014.06 1405.78,-1015.84 1405.87,-1017.65 1405.72,-1019.47 1405.32,-1021.31 1404.7,-1023.15 1403.85,-1024.99 1402.79,-1026.84 1401.52,-1028.67 1400.06,-1030.49 1398.41,-1032.3 1396.6,-1034.08 1394.62,-1035.84 1392.49,-1037.56 1390.23,-1039.25 1387.83,-1040.89 1385.32,-1042.49 1382.7,-1044.04 1379.98,-1045.53 1377.17,-1046.96 1374.29,-1048.33 1371.34,-1049.64 1368.32,-1050.87 1365.25,-1052.03 1362.13,-1053.12 1358.98,-1054.12 1355.78,-1055.05 1352.56,-1055.88 1349.31,-1056.64 1346.04,-1057.3 1342.76,-1057.87 1339.46,-1058.34 1336.15,-1058.73 1332.83,-1059.02 1329.5,-1059.21 1326.18,-1059.31 1322.85,-1059.31 1319.52,-1059.21 1316.2,-1059.02 1312.88,-1058.73 1309.57,-1058.34 1306.27,-1057.87 1302.98,-1057.3 1299.71,-1056.64 1296.47,-1055.88 1293.24,-1055.05 1290.05,-1054.12 1286.89,-1053.12 1283.77,-1052.03 1280.7,-1050.87 1277.69,-1049.64 1274.74,-1048.33 1271.85,-1046.96 1269.05,-1045.53 1266.33,-1044.04 1263.71,-1042.49 1261.2,-1040.89 1258.8,-1039.25 1256.53,-1037.56 1254.41,-1035.84 1252.43,-1034.08 1250.61,-1032.3 1248.97,-1030.49 1247.51,-1028.67 1246.24,-1026.84 1245.18,-1024.99 1244.33,-1023.15 1243.7,-1021.31 1243.31,-1019.47 1243.16,-1017.65 1243.25,-1015.84 1243.6,-1014.06 1244.2,-1012.3 1245.07,-1010.58 1246.2,-1008.9 1247.6,-1007.25 1249.26,-1005.65 1251.19,-1004.11 1253.38,-1002.61 1255.83,-1001.18 1258.54,-999.81 1261.49,-998.5 1264.69,-997.27 1268.11,-996.11 1271.75,-995.02 1275.6,-994.02 1279.64,-993.09 1283.86,-992.26 1288.25,-991.51 1292.78,-990.84 1297.44,-990.27 1302.21,-989.8 1307.07,-989.41 1312,-989.12 1316.98,-988.93 1322,-988.84 1327.03,-988.84 1332.04,-988.93"/>
<text text-anchor="start" x="1295.34" y="-1033.87" font-family="Times,serif" font-size="14.00">C0017446</text>
<text text-anchor="start" x="1278.45" y="-1019.87" font-family="Times,serif" font-size="14.00">endemic regions</text>
<text text-anchor="start" x="1308.57" y="-1005.87" font-family="Times,serif" font-size="14.00">70:71</text>
</g>
<!-- id_28182129_DOT_8&#45;&#45;id_28182129_DOT_14 -->
<g id="edge11" class="edge">
<title>id_28182129_DOT_8&#45;&#45;id_28182129_DOT_14</title>
<path fill="none" stroke="black" stroke-dasharray="1,5" d="M1574.21,-735.79C1523.13,-794.76 1408.22,-927.43 1353.95,-990.08"/>
<text text-anchor="middle" x="1437.83" y="-865.74" font-family="Times,serif" font-size="14.00">0.780426</text>
</g>
<!-- id_28182129_DOT_9 -->
<g id="node9" class="node">
<title>id_28182129_DOT_9</title>
<polygon fill="coral" stroke="coral" points="1011.29,-1669.54 1015.57,-1669.74 1019.81,-1670.02 1023.99,-1670.41 1028.09,-1670.89 1032.1,-1671.46 1035.99,-1672.12 1039.76,-1672.87 1043.39,-1673.71 1046.87,-1674.63 1050.18,-1675.63 1053.31,-1676.72 1056.25,-1677.88 1058.99,-1679.11 1061.53,-1680.42 1063.86,-1681.79 1065.97,-1683.22 1067.85,-1684.72 1069.51,-1686.27 1070.94,-1687.86 1072.15,-1689.51 1073.12,-1691.19 1073.86,-1692.92 1074.38,-1694.67 1074.68,-1696.45 1074.76,-1698.26 1074.63,-1700.08 1074.29,-1701.92 1073.75,-1703.76 1073.02,-1705.6 1072.11,-1707.45 1071.02,-1709.28 1069.76,-1711.11 1068.35,-1712.91 1066.79,-1714.69 1065.09,-1716.45 1063.26,-1718.17 1061.31,-1719.86 1059.25,-1721.5 1057.09,-1723.1 1054.84,-1724.65 1052.5,-1726.14 1050.09,-1727.57 1047.61,-1728.94 1045.07,-1730.25 1042.48,-1731.48 1039.84,-1732.65 1037.16,-1733.73 1034.44,-1734.74 1031.7,-1735.66 1028.93,-1736.5 1026.14,-1737.25 1023.32,-1737.91 1020.5,-1738.48 1017.66,-1738.96 1014.82,-1739.34 1011.96,-1739.63 1009.11,-1739.82 1006.25,-1739.92 1003.38,-1739.92 1000.52,-1739.82 997.67,-1739.63 994.81,-1739.34 991.97,-1738.96 989.13,-1738.48 986.3,-1737.91 983.49,-1737.25 980.7,-1736.5 977.93,-1735.66 975.18,-1734.74 972.47,-1733.73 969.79,-1732.65 967.15,-1731.48 964.56,-1730.25 962.02,-1728.94 959.54,-1727.57 957.13,-1726.14 954.79,-1724.65 952.54,-1723.1 950.38,-1721.5 948.32,-1719.86 946.37,-1718.17 944.54,-1716.45 942.84,-1714.69 941.28,-1712.91 939.87,-1711.11 938.61,-1709.28 937.52,-1707.45 936.61,-1705.6 935.88,-1703.76 935.34,-1701.92 935,-1700.08 934.87,-1698.26 934.95,-1696.45 935.25,-1694.67 935.77,-1692.92 936.51,-1691.19 937.48,-1689.51 938.68,-1687.86 940.12,-1686.27 941.77,-1684.72 943.66,-1683.22 945.77,-1681.79 948.1,-1680.42 950.63,-1679.11 953.38,-1677.88 956.32,-1676.72 959.45,-1675.63 962.76,-1674.63 966.24,-1673.71 969.87,-1672.87 973.63,-1672.12 977.53,-1671.46 981.54,-1670.89 985.64,-1670.41 989.82,-1670.02 994.06,-1669.74 998.34,-1669.54 1002.65,-1669.45 1006.97,-1669.45 1011.29,-1669.54"/>
<text text-anchor="start" x="975.65" y="-1714.48" font-family="Times,serif" font-size="14.00">C0085293</text>
<text text-anchor="start" x="966.52" y="-1700.48" font-family="Times,serif" font-size="14.00">viral hepatitis</text>
<text text-anchor="start" x="988.87" y="-1686.48" font-family="Times,serif" font-size="14.00">40:41</text>
</g>
<!-- id_28182129_DOT_12 -->
<g id="node12" class="node">
<title>id_28182129_DOT_12</title>
<polygon fill="crimson" stroke="crimson" points="1374.76,-1427.27 1383.03,-1427.46 1391.2,-1427.75 1399.27,-1428.13 1407.17,-1428.61 1414.9,-1429.18 1422.41,-1429.84 1429.68,-1430.59 1436.68,-1431.43 1443.38,-1432.35 1449.76,-1433.36 1455.8,-1434.44 1461.48,-1435.6 1466.77,-1436.84 1471.67,-1438.14 1476.16,-1439.51 1480.22,-1440.95 1483.86,-1442.44 1487.06,-1443.99 1489.82,-1445.59 1492.14,-1447.23 1494.01,-1448.92 1495.45,-1450.64 1496.45,-1452.39 1497.02,-1454.18 1497.18,-1455.98 1496.92,-1457.8 1496.27,-1459.64 1495.23,-1461.48 1493.83,-1463.33 1492.06,-1465.17 1489.96,-1467.01 1487.54,-1468.83 1484.82,-1470.63 1481.8,-1472.42 1478.53,-1474.17 1475,-1475.89 1471.24,-1477.58 1467.27,-1479.22 1463.1,-1480.82 1458.76,-1482.37 1454.25,-1483.86 1449.6,-1485.3 1444.82,-1486.67 1439.92,-1487.97 1434.92,-1489.21 1429.83,-1490.37 1424.66,-1491.45 1419.42,-1492.46 1414.13,-1493.38 1408.78,-1494.22 1403.4,-1494.97 1397.98,-1495.63 1392.53,-1496.2 1387.06,-1496.68 1381.57,-1497.06 1376.07,-1497.35 1370.55,-1497.54 1365.04,-1497.64 1359.52,-1497.64 1354,-1497.54 1348.49,-1497.35 1342.99,-1497.06 1337.5,-1496.68 1332.02,-1496.2 1326.58,-1495.63 1321.16,-1494.97 1315.77,-1494.22 1310.43,-1493.38 1305.13,-1492.46 1299.89,-1491.45 1294.73,-1490.37 1289.64,-1489.21 1284.64,-1487.97 1279.74,-1486.67 1274.96,-1485.3 1270.3,-1483.86 1265.8,-1482.37 1261.45,-1480.82 1257.29,-1479.22 1253.31,-1477.58 1249.56,-1475.89 1246.03,-1474.17 1242.75,-1472.42 1239.74,-1470.63 1237.01,-1468.83 1234.59,-1467.01 1232.49,-1465.17 1230.73,-1463.33 1229.32,-1461.48 1228.28,-1459.64 1227.63,-1457.8 1227.37,-1455.98 1227.53,-1454.18 1228.1,-1452.39 1229.1,-1450.64 1230.54,-1448.92 1232.42,-1447.23 1234.73,-1445.59 1237.49,-1443.99 1240.69,-1442.44 1244.33,-1440.95 1248.4,-1439.51 1252.88,-1438.14 1257.78,-1436.84 1263.08,-1435.6 1268.75,-1434.44 1274.79,-1433.36 1281.17,-1432.35 1287.87,-1431.43 1294.87,-1430.59 1302.14,-1429.84 1309.65,-1429.18 1317.38,-1428.61 1325.29,-1428.13 1333.35,-1427.75 1341.53,-1427.46 1349.79,-1427.27 1358.11,-1427.17 1366.44,-1427.17 1374.76,-1427.27"/>
<text text-anchor="start" x="1333.11" y="-1472.21" font-family="Times,serif" font-size="14.00">C0376545</text>
<text text-anchor="start" x="1280.84" y="-1458.21" font-family="Times,serif" font-size="14.00">haematological malignancies</text>
<text text-anchor="start" x="1346.33" y="-1444.21" font-family="Times,serif" font-size="14.00">61:62</text>
</g>
<!-- id_28182129_DOT_9&#45;&#45;id_28182129_DOT_12 -->
<g id="edge12" class="edge">
<title>id_28182129_DOT_9&#45;&#45;id_28182129_DOT_12</title>
<path fill="none" stroke="black" stroke-dasharray="1,5" d="M1048.65,-1674.97C1116.32,-1629.11 1245.68,-1541.43 1315.25,-1494.28"/>
<text text-anchor="middle" x="1155.7" y="-1587.43" font-family="Times,serif" font-size="14.00">0.893245</text>
</g>
<!-- id_28182129_DOT_9&#45;&#45;id_28182129_DOT_18 -->
<g id="edge13" class="edge">
<title>id_28182129_DOT_9&#45;&#45;id_28182129_DOT_18</title>
<path fill="none" stroke="black" stroke-dasharray="1,5" d="M970.01,-1732.98C909.98,-1781.81 787.56,-1881.37 726.76,-1930.82"/>
<text text-anchor="middle" x="822.14" y="-1834.7" font-family="Times,serif" font-size="14.00">0.872716</text>
</g>
<!-- id_28182129_DOT_16 -->
<g id="node16" class="node">
<title>id_28182129_DOT_16</title>
<polygon fill="darkmagenta" stroke="darkmagenta" points="672.52,-527.7 679.75,-527.89 686.91,-528.18 693.96,-528.56 700.88,-529.04 707.64,-529.61 714.21,-530.27 720.57,-531.02 726.69,-531.86 732.55,-532.79 738.13,-533.79 743.42,-534.87 748.38,-536.04 753.01,-537.27 757.3,-538.58 761.22,-539.95 764.78,-541.38 767.96,-542.87 770.76,-544.42 773.18,-546.02 775.2,-547.66 776.84,-549.35 778.1,-551.07 778.98,-552.83 779.48,-554.61 779.61,-556.42 779.39,-558.24 778.82,-560.07 777.91,-561.92 776.68,-563.76 775.14,-565.6 773.3,-567.44 771.18,-569.26 768.8,-571.07 766.16,-572.85 763.3,-574.6 760.21,-576.33 756.92,-578.01 753.45,-579.66 749.8,-581.26 746,-582.8 742.06,-584.3 737.99,-585.73 733.81,-587.1 729.52,-588.41 725.15,-589.64 720.69,-590.8 716.17,-591.89 711.59,-592.89 706.96,-593.81 702.28,-594.65 697.57,-595.4 692.83,-596.06 688.06,-596.63 683.28,-597.11 678.48,-597.5 673.66,-597.78 668.84,-597.98 664.01,-598.07 659.19,-598.07 654.36,-597.98 649.54,-597.78 644.72,-597.5 639.92,-597.11 635.13,-596.63 630.37,-596.06 625.63,-595.4 620.91,-594.65 616.24,-593.81 611.61,-592.89 607.03,-591.89 602.5,-590.8 598.05,-589.64 593.68,-588.41 589.39,-587.1 585.21,-585.73 581.14,-584.3 577.2,-582.8 573.4,-581.26 569.75,-579.66 566.28,-578.01 562.99,-576.33 559.9,-574.6 557.03,-572.85 554.4,-571.07 552.02,-569.26 549.9,-567.44 548.06,-565.6 546.52,-563.76 545.29,-561.92 544.38,-560.07 543.81,-558.24 543.58,-556.42 543.72,-554.61 544.22,-552.83 545.1,-551.07 546.35,-549.35 548,-547.66 550.02,-546.02 552.44,-544.42 555.24,-542.87 558.42,-541.38 561.97,-539.95 565.9,-538.58 570.19,-537.27 574.82,-536.04 579.78,-534.87 585.06,-533.79 590.65,-532.79 596.51,-531.86 602.63,-531.02 608.99,-530.27 615.56,-529.61 622.32,-529.04 629.24,-528.56 636.29,-528.18 643.45,-527.89 650.68,-527.7 657.95,-527.6 665.24,-527.6 672.52,-527.7"/>
<text text-anchor="start" x="632.43" y="-572.64" font-family="Times,serif" font-size="14.00">C1864936</text>
<text text-anchor="start" x="591.24" y="-558.64" font-family="Times,serif" font-size="14.00">protracted disease course</text>
<text text-anchor="start" x="645.65" y="-544.64" font-family="Times,serif" font-size="14.00">95:97</text>
</g>
<!-- id_28182129_DOT_10&#45;&#45;id_28182129_DOT_16 -->
<g id="edge14" class="edge">
<title>id_28182129_DOT_10&#45;&#45;id_28182129_DOT_16</title>
<path fill="none" stroke="black" stroke-dasharray="1,5" d="M411.78,-349.28C466.26,-395.85 566.22,-481.3 621.75,-528.78"/>
<text text-anchor="middle" x="490.52" y="-441.83" font-family="Times,serif" font-size="14.00">0.919036</text>
</g>
<!-- id_28182129_DOT_12&#45;&#45;id_28182129_DOT_13 -->
<g id="edge15" class="edge">
<title>id_28182129_DOT_12&#45;&#45;id_28182129_DOT_13</title>
<path fill="none" stroke="black" stroke-dasharray="1,5" d="M1402.24,-1495.27C1465.93,-1547.63 1589.74,-1649.43 1653.51,-1701.87"/>
<text text-anchor="middle" x="1501.63" y="-1601.37" font-family="Times,serif" font-size="14.00">0.823901</text>
</g>
<!-- id_28182129_DOT_12&#45;&#45;id_28182129_DOT_14 -->
<g id="edge16" class="edge">
<title>id_28182129_DOT_12&#45;&#45;id_28182129_DOT_14</title>
<path fill="none" stroke="black" stroke-dasharray="1,5" d="M1359.22,-1426.91C1352.12,-1344.57 1334.62,-1141.36 1327.55,-1059.29"/>
<text text-anchor="middle" x="1317.13" y="-1245.9" font-family="Times,serif" font-size="14.00">0.738467</text>
</g>
<!-- id_28182129_DOT_19 -->
<g id="node19" class="node">
<title>id_28182129_DOT_19</title>
<polygon fill="darkred" stroke="darkred" points="1584.71,-2086.26 1590.68,-2086.45 1596.59,-2086.74 1602.41,-2087.13 1608.12,-2087.6 1613.7,-2088.17 1619.13,-2088.83 1624.38,-2089.59 1629.44,-2090.42 1634.28,-2091.35 1638.89,-2092.35 1643.25,-2093.44 1647.35,-2094.6 1651.18,-2095.83 1654.71,-2097.14 1657.95,-2098.51 1660.89,-2099.94 1663.52,-2101.43 1665.83,-2102.98 1667.82,-2104.58 1669.5,-2106.22 1670.85,-2107.91 1671.89,-2109.63 1672.61,-2111.39 1673.03,-2113.17 1673.14,-2114.98 1672.96,-2116.8 1672.49,-2118.63 1671.74,-2120.48 1670.72,-2122.32 1669.45,-2124.16 1667.93,-2126 1666.18,-2127.82 1664.21,-2129.63 1662.03,-2131.41 1659.67,-2133.17 1657.12,-2134.89 1654.4,-2136.57 1651.53,-2138.22 1648.52,-2139.82 1645.38,-2141.36 1642.13,-2142.86 1638.77,-2144.29 1635.31,-2145.66 1631.78,-2146.97 1628.16,-2148.2 1624.49,-2149.36 1620.75,-2150.45 1616.97,-2151.45 1613.15,-2152.38 1609.28,-2153.21 1605.39,-2153.96 1601.48,-2154.63 1597.54,-2155.2 1593.59,-2155.67 1589.62,-2156.06 1585.65,-2156.35 1581.67,-2156.54 1577.68,-2156.63 1573.69,-2156.63 1569.71,-2156.54 1565.73,-2156.35 1561.75,-2156.06 1557.79,-2155.67 1553.83,-2155.2 1549.9,-2154.63 1545.98,-2153.96 1542.09,-2153.21 1538.23,-2152.38 1534.41,-2151.45 1530.62,-2150.45 1526.89,-2149.36 1523.21,-2148.2 1519.6,-2146.97 1516.06,-2145.66 1512.61,-2144.29 1509.25,-2142.86 1505.99,-2141.36 1502.85,-2139.82 1499.84,-2138.22 1496.97,-2136.57 1494.26,-2134.89 1491.71,-2133.17 1489.34,-2131.41 1487.17,-2129.63 1485.2,-2127.82 1483.45,-2126 1481.93,-2124.16 1480.66,-2122.32 1479.64,-2120.48 1478.89,-2118.63 1478.42,-2116.8 1478.24,-2114.98 1478.35,-2113.17 1478.76,-2111.39 1479.48,-2109.63 1480.52,-2107.91 1481.88,-2106.22 1483.55,-2104.58 1485.54,-2102.98 1487.86,-2101.43 1490.48,-2099.94 1493.42,-2098.51 1496.66,-2097.14 1500.2,-2095.83 1504.03,-2094.6 1508.13,-2093.44 1512.49,-2092.35 1517.1,-2091.35 1521.94,-2090.42 1526.99,-2089.59 1532.25,-2088.83 1537.67,-2088.17 1543.25,-2087.6 1548.97,-2087.13 1554.79,-2086.74 1560.7,-2086.45 1566.67,-2086.26 1572.68,-2086.16 1578.7,-2086.16 1584.71,-2086.26"/>
<text text-anchor="start" x="1546.52" y="-2131.2" font-family="Times,serif" font-size="14.00">C0907160</text>
<text text-anchor="start" x="1519.13" y="-2117.2" font-family="Times,serif" font-size="14.00">pegylated interferon</text>
<text text-anchor="start" x="1553" y="-2103.2" font-family="Times,serif" font-size="14.00">109:110</text>
</g>
<!-- id_28182129_DOT_13&#45;&#45;id_28182129_DOT_19 -->
<g id="edge17" class="edge">
<title>id_28182129_DOT_13&#45;&#45;id_28182129_DOT_19</title>
<path fill="none" stroke="black" stroke-dasharray="1,5" d="M1682.95,-1769.83C1660.55,-1843.24 1608.87,-2012.63 1586.42,-2086.21"/>
<text text-anchor="middle" x="1608.43" y="-1930.82" font-family="Times,serif" font-size="14.00">0.810979</text>
</g>
<!-- id_28182129_DOT_20 -->
<g id="node20" class="node">
<title>id_28182129_DOT_20</title>
<polygon fill="darksalmon" stroke="darksalmon" points="976.92,-768.51 980.52,-768.7 984.08,-768.99 987.59,-769.38 991.04,-769.85 994.4,-770.42 997.67,-771.09 1000.84,-771.84 1003.89,-772.67 1006.8,-773.6 1009.58,-774.6 1012.21,-775.69 1014.69,-776.85 1016.99,-778.08 1019.12,-779.39 1021.08,-780.76 1022.85,-782.19 1024.43,-783.69 1025.83,-785.23 1027.03,-786.83 1028.04,-788.48 1028.86,-790.16 1029.48,-791.88 1029.92,-793.64 1030.17,-795.42 1030.23,-797.23 1030.12,-799.05 1029.84,-800.88 1029.39,-802.73 1028.77,-804.57 1028.01,-806.42 1027.09,-808.25 1026.04,-810.07 1024.85,-811.88 1023.54,-813.66 1022.11,-815.42 1020.57,-817.14 1018.94,-818.82 1017.21,-820.47 1015.39,-822.07 1013.5,-823.61 1011.54,-825.11 1009.51,-826.54 1007.43,-827.91 1005.3,-829.22 1003.12,-830.45 1000.9,-831.61 998.65,-832.7 996.37,-833.7 994.06,-834.63 991.74,-835.46 989.39,-836.21 987.03,-836.88 984.66,-837.45 982.27,-837.92 979.88,-838.31 977.49,-838.6 975.09,-838.79 972.68,-838.89 970.28,-838.89 967.88,-838.79 965.48,-838.6 963.08,-838.31 960.69,-837.92 958.31,-837.45 955.93,-836.88 953.57,-836.21 951.23,-835.46 948.9,-834.63 946.59,-833.7 944.31,-832.7 942.06,-831.61 939.84,-830.45 937.67,-829.22 935.53,-827.91 933.45,-826.54 931.43,-825.11 929.46,-823.61 927.57,-822.07 925.76,-820.47 924.03,-818.82 922.39,-817.14 920.85,-815.42 919.42,-813.66 918.11,-811.88 916.93,-810.07 915.87,-808.25 914.96,-806.42 914.19,-804.57 913.58,-802.73 913.12,-800.88 912.84,-799.05 912.73,-797.23 912.8,-795.42 913.05,-793.64 913.48,-791.88 914.11,-790.16 914.92,-788.48 915.93,-786.83 917.14,-785.23 918.53,-783.69 920.11,-782.19 921.88,-780.76 923.84,-779.39 925.97,-778.08 928.28,-776.85 930.75,-775.69 933.38,-774.6 936.16,-773.6 939.08,-772.67 942.13,-771.84 945.29,-771.09 948.56,-770.42 951.93,-769.85 955.37,-769.38 958.88,-768.99 962.45,-768.7 966.04,-768.51 969.67,-768.41 973.3,-768.41 976.92,-768.51"/>
<text text-anchor="start" x="942.31" y="-813.45" font-family="Times,serif" font-size="14.00">C3178994</text>
<text text-anchor="start" x="940.39" y="-799.45" font-family="Times,serif" font-size="14.00">eradication</text>
<text text-anchor="start" x="948.54" y="-785.45" font-family="Times,serif" font-size="14.00">125:125</text>
</g>
<!-- id_28182129_DOT_14&#45;&#45;id_28182129_DOT_20 -->
<g id="edge18" class="edge">
<title>id_28182129_DOT_14&#45;&#45;id_28182129_DOT_20</title>
<path fill="none" stroke="black" stroke-dasharray="1,5" d="M1276.17,-993.88C1204.97,-949.43 1073.43,-867.3 1009.01,-827.08"/>
<text text-anchor="middle" x="1116.34" y="-913.28" font-family="Times,serif" font-size="14.00">0.702517</text>
</g>
<!-- id_28182129_DOT_16&#45;&#45;id_28182129_DOT_20 -->
<g id="edge19" class="edge">
<title>id_28182129_DOT_16&#45;&#45;id_28182129_DOT_20</title>
<path fill="none" stroke="black" stroke-dasharray="1,5" d="M702.75,-594.82C763.17,-641.77 875.05,-728.71 933.57,-774.19"/>
<text text-anchor="middle" x="791.91" y="-687.3" font-family="Times,serif" font-size="14.00">0.888662</text>
</g>
</g>
</svg>
