<?xml version="1.0" encoding="UTF-8" standalone="no"?>
<!DOCTYPE svg PUBLIC "-//W3C//DTD SVG 1.1//EN"
 "http://www.w3.org/Graphics/SVG/1.1/DTD/svg11.dtd">
<!-- Generated by graphviz version 2.42.3 (20191010.1750)
 -->
<!-- Title: MST Pages: 1 -->
<svg width="3320pt" height="6501pt"
 viewBox="0.00 0.00 3319.70 6500.86" xmlns="http://www.w3.org/2000/svg" xmlns:xlink="http://www.w3.org/1999/xlink">
<g id="graph0" class="graph" transform="scale(1 1) rotate(0) translate(4 6496.86)">
<title>MST</title>
<polygon fill="white" stroke="transparent" points="-4,4 -4,-6496.86 3315.7,-6496.86 3315.7,4 -4,4"/>
<!-- id_28217611_DOT_1 -->
<g id="node1" class="node">
<title>id_28217611_DOT_1</title>
<polygon fill="aquamarine" stroke="aquamarine" points="352.18,-6137.39 359.19,-6137.59 366.13,-6137.88 372.97,-6138.26 379.68,-6138.74 386.23,-6139.31 392.61,-6139.97 398.77,-6140.72 404.71,-6141.56 410.4,-6142.48 415.81,-6143.48 420.94,-6144.57 425.75,-6145.73 430.24,-6146.97 434.4,-6148.27 438.21,-6149.64 441.66,-6151.08 444.74,-6152.57 447.46,-6154.12 449.8,-6155.71 451.76,-6157.36 453.36,-6159.04 454.57,-6160.77 455.42,-6162.52 455.91,-6164.3 456.04,-6166.11 455.83,-6167.93 455.27,-6169.77 454.39,-6171.61 453.2,-6173.46 451.7,-6175.3 449.92,-6177.13 447.87,-6178.96 445.55,-6180.76 443,-6182.54 440.22,-6184.3 437.22,-6186.02 434.03,-6187.71 430.66,-6189.35 427.13,-6190.95 423.44,-6192.5 419.62,-6193.99 415.67,-6195.42 411.62,-6196.8 407.46,-6198.1 403.22,-6199.34 398.9,-6200.5 394.51,-6201.58 390.07,-6202.59 385.58,-6203.51 381.04,-6204.35 376.47,-6205.1 371.88,-6205.76 367.25,-6206.33 362.61,-6206.81 357.95,-6207.19 353.28,-6207.48 348.61,-6207.67 343.93,-6207.77 339.24,-6207.77 334.56,-6207.67 329.89,-6207.48 325.22,-6207.19 320.56,-6206.81 315.92,-6206.33 311.29,-6205.76 306.69,-6205.1 302.13,-6204.35 297.59,-6203.51 293.1,-6202.59 288.66,-6201.58 284.27,-6200.5 279.95,-6199.34 275.71,-6198.1 271.55,-6196.8 267.5,-6195.42 263.55,-6193.99 259.73,-6192.5 256.04,-6190.95 252.51,-6189.35 249.14,-6187.71 245.95,-6186.02 242.95,-6184.3 240.17,-6182.54 237.62,-6180.76 235.3,-6178.96 233.25,-6177.13 231.47,-6175.3 229.97,-6173.46 228.78,-6171.61 227.9,-6169.77 227.34,-6167.93 227.13,-6166.11 227.26,-6164.3 227.74,-6162.52 228.59,-6160.77 229.81,-6159.04 231.4,-6157.36 233.37,-6155.71 235.71,-6154.12 238.43,-6152.57 241.51,-6151.08 244.96,-6149.64 248.77,-6148.27 252.93,-6146.97 257.42,-6145.73 262.23,-6144.57 267.36,-6143.48 272.77,-6142.48 278.46,-6141.56 284.39,-6140.72 290.56,-6139.97 296.94,-6139.31 303.49,-6138.74 310.2,-6138.26 317.04,-6137.88 323.98,-6137.59 330.99,-6137.39 338.05,-6137.3 345.12,-6137.3 352.18,-6137.39"/>
<text text-anchor="start" x="312.42" y="-6182.33" font-family="Times,serif" font-size="14.00">C0085652</text>
<text text-anchor="start" x="273.74" y="-6168.33" font-family="Times,serif" font-size="14.00">Pyoderma gangrenosum</text>
<text text-anchor="start" x="332.64" y="-6154.33" font-family="Times,serif" font-size="14.00">0:1</text>
</g>
<!-- id_28217611_DOT_4 -->
<g id="node4" class="node">
<title>id_28217611_DOT_4</title>
<polygon fill="aquamarine" stroke="aquamarine" points="124.82,-6422.36 131.83,-6422.55 138.77,-6422.84 145.61,-6423.22 152.32,-6423.7 158.88,-6424.27 165.25,-6424.93 171.42,-6425.68 177.36,-6426.52 183.04,-6427.44 188.46,-6428.45 193.58,-6429.53 198.4,-6430.69 202.89,-6431.93 207.04,-6433.23 210.85,-6434.6 214.3,-6436.04 217.39,-6437.53 220.1,-6439.08 222.44,-6440.68 224.41,-6442.32 226,-6444.01 227.22,-6445.73 228.07,-6447.49 228.56,-6449.27 228.69,-6451.07 228.47,-6452.9 227.92,-6454.73 227.04,-6456.57 225.84,-6458.42 224.35,-6460.26 222.57,-6462.1 220.51,-6463.92 218.2,-6465.72 215.64,-6467.51 212.86,-6469.26 209.87,-6470.98 206.68,-6472.67 203.31,-6474.31 199.77,-6475.91 196.09,-6477.46 192.26,-6478.95 188.32,-6480.39 184.26,-6481.76 180.1,-6483.06 175.86,-6484.3 171.54,-6485.46 167.16,-6486.54 162.71,-6487.55 158.22,-6488.47 153.69,-6489.31 149.12,-6490.06 144.52,-6490.72 139.9,-6491.29 135.25,-6491.77 130.6,-6492.15 125.93,-6492.44 121.25,-6492.63 116.57,-6492.73 111.89,-6492.73 107.21,-6492.63 102.53,-6492.44 97.86,-6492.15 93.2,-6491.77 88.56,-6491.29 83.94,-6490.72 79.34,-6490.06 74.77,-6489.31 70.24,-6488.47 65.74,-6487.55 61.3,-6486.54 56.91,-6485.46 52.6,-6484.3 48.35,-6483.06 44.2,-6481.76 40.14,-6480.39 36.19,-6478.95 32.37,-6477.46 28.68,-6475.91 25.15,-6474.31 21.78,-6472.67 18.59,-6470.98 15.6,-6469.26 12.81,-6467.51 10.26,-6465.72 7.95,-6463.92 5.89,-6462.1 4.11,-6460.26 2.61,-6458.42 1.42,-6456.57 0.54,-6454.73 -0.01,-6452.9 -0.23,-6451.07 -0.1,-6449.27 0.39,-6447.49 1.24,-6445.73 2.46,-6444.01 4.05,-6442.32 6.01,-6440.68 8.36,-6439.08 11.07,-6437.53 14.16,-6436.04 17.61,-6434.6 21.41,-6433.23 25.57,-6431.93 30.06,-6430.69 34.88,-6429.53 40,-6428.45 45.41,-6427.44 51.1,-6426.52 57.04,-6425.68 63.21,-6424.93 69.58,-6424.27 76.14,-6423.7 82.85,-6423.22 89.68,-6422.84 96.62,-6422.55 103.64,-6422.36 110.69,-6422.26 117.76,-6422.26 124.82,-6422.36"/>
<text text-anchor="start" x="85.06" y="-6467.3" font-family="Times,serif" font-size="14.00">C0085652</text>
<text text-anchor="start" x="46.38" y="-6453.3" font-family="Times,serif" font-size="14.00">Pyoderma gangrenosum</text>
<text text-anchor="start" x="105.28" y="-6439.3" font-family="Times,serif" font-size="14.00">7:8</text>
</g>
<!-- id_28217611_DOT_1&#45;&#45;id_28217611_DOT_4 -->
<g id="edge1" class="edge">
<title>id_28217611_DOT_1&#45;&#45;id_28217611_DOT_4</title>
<path fill="none" stroke="black" d="M314.61,-6206.34C271.09,-6260.89 185.82,-6367.76 141.88,-6422.84"/>
<text text-anchor="middle" x="201.99" y="-6317.39" font-family="Times,serif" font-size="14.00">0.003418</text>
</g>
<!-- id_28217611_DOT_30 -->
<g id="node30" class="node">
<title>id_28217611_DOT_30</title>
<polygon fill="aquamarine" stroke="aquamarine" points="584.05,-5852.06 591.06,-5852.25 598,-5852.54 604.84,-5852.92 611.55,-5853.4 618.11,-5853.97 624.48,-5854.63 630.65,-5855.38 636.58,-5856.22 642.27,-5857.14 647.69,-5858.15 652.81,-5859.23 657.62,-5860.39 662.12,-5861.63 666.27,-5862.93 670.08,-5864.3 673.53,-5865.74 676.61,-5867.23 679.33,-5868.78 681.67,-5870.38 683.64,-5872.02 685.23,-5873.71 686.45,-5875.43 687.3,-5877.18 687.78,-5878.97 687.91,-5880.77 687.7,-5882.59 687.14,-5884.43 686.26,-5886.27 685.07,-5888.12 683.58,-5889.96 681.79,-5891.8 679.74,-5893.62 677.43,-5895.42 674.87,-5897.21 672.09,-5898.96 669.09,-5900.68 665.91,-5902.37 662.54,-5904.01 659,-5905.61 655.31,-5907.16 651.49,-5908.65 647.54,-5910.09 643.49,-5911.46 639.33,-5912.76 635.09,-5914 630.77,-5915.16 626.39,-5916.24 621.94,-5917.25 617.45,-5918.17 612.92,-5919.01 608.35,-5919.76 603.75,-5920.42 599.12,-5920.99 594.48,-5921.47 589.82,-5921.85 585.16,-5922.14 580.48,-5922.33 575.8,-5922.43 571.12,-5922.43 566.43,-5922.33 561.76,-5922.14 557.09,-5921.85 552.43,-5921.47 547.79,-5920.99 543.17,-5920.42 538.57,-5919.76 534,-5919.01 529.46,-5918.17 524.97,-5917.25 520.53,-5916.24 516.14,-5915.16 511.82,-5914 507.58,-5912.76 503.43,-5911.46 499.37,-5910.09 495.42,-5908.65 491.6,-5907.16 487.91,-5905.61 484.38,-5904.01 481.01,-5902.37 477.82,-5900.68 474.82,-5898.96 472.04,-5897.21 469.49,-5895.42 467.17,-5893.62 465.12,-5891.8 463.34,-5889.96 461.84,-5888.12 460.65,-5886.27 459.77,-5884.43 459.21,-5882.59 459,-5880.77 459.13,-5878.97 459.62,-5877.18 460.47,-5875.43 461.69,-5873.71 463.28,-5872.02 465.24,-5870.38 467.58,-5868.78 470.3,-5867.23 473.38,-5865.74 476.83,-5864.3 480.64,-5862.93 484.8,-5861.63 489.29,-5860.39 494.1,-5859.23 499.23,-5858.15 504.64,-5857.14 510.33,-5856.22 516.27,-5855.38 522.43,-5854.63 528.81,-5853.97 535.36,-5853.4 542.07,-5852.92 548.91,-5852.54 555.85,-5852.25 562.86,-5852.06 569.92,-5851.96 576.99,-5851.96 584.05,-5852.06"/>
<text text-anchor="start" x="544.29" y="-5897" font-family="Times,serif" font-size="14.00">C0085652</text>
<text text-anchor="start" x="505.61" y="-5883" font-family="Times,serif" font-size="14.00">Pyoderma gangrenosum</text>
<text text-anchor="start" x="550.51" y="-5869" font-family="Times,serif" font-size="14.00">152:153</text>
</g>
<!-- id_28217611_DOT_1&#45;&#45;id_28217611_DOT_30 -->
<g id="edge2" class="edge">
<title>id_28217611_DOT_1&#45;&#45;id_28217611_DOT_30</title>
<path fill="none" stroke="black" d="M369.78,-6137.83C414.56,-6082.73 501.39,-5975.88 545.81,-5921.21"/>
<text text-anchor="middle" x="431.55" y="-6032.32" font-family="Times,serif" font-size="14.00">0.009083</text>
</g>
<!-- id_28217611_DOT_2 -->
<g id="node2" class="node">
<title>id_28217611_DOT_2</title>
<polygon fill="bisque" stroke="bisque" points="2712.91,-4825.14 2716.4,-4825.33 2719.85,-4825.62 2723.25,-4826 2726.59,-4826.48 2729.86,-4827.05 2733.03,-4827.71 2736.1,-4828.46 2739.05,-4829.3 2741.88,-4830.22 2744.58,-4831.23 2747.13,-4832.31 2749.52,-4833.48 2751.76,-4834.71 2753.83,-4836.02 2755.72,-4837.39 2757.44,-4838.82 2758.98,-4840.31 2760.33,-4841.86 2761.49,-4843.46 2762.47,-4845.1 2763.26,-4846.79 2763.87,-4848.51 2764.29,-4850.27 2764.53,-4852.05 2764.6,-4853.85 2764.49,-4855.68 2764.22,-4857.51 2763.78,-4859.36 2763.18,-4861.2 2762.44,-4863.04 2761.55,-4864.88 2760.53,-4866.7 2759.38,-4868.51 2758.11,-4870.29 2756.72,-4872.04 2755.23,-4873.77 2753.65,-4875.45 2751.97,-4877.1 2750.21,-4878.69 2748.37,-4880.24 2746.47,-4881.74 2744.51,-4883.17 2742.49,-4884.54 2740.42,-4885.85 2738.31,-4887.08 2736.16,-4888.24 2733.98,-4889.33 2731.77,-4890.33 2729.53,-4891.25 2727.27,-4892.09 2725,-4892.84 2722.71,-4893.5 2720.41,-4894.07 2718.1,-4894.55 2715.78,-4894.94 2713.46,-4895.22 2711.13,-4895.42 2708.8,-4895.51 2706.47,-4895.51 2704.14,-4895.42 2701.81,-4895.22 2699.49,-4894.94 2697.17,-4894.55 2694.86,-4894.07 2692.56,-4893.5 2690.27,-4892.84 2688,-4892.09 2685.74,-4891.25 2683.5,-4890.33 2681.29,-4889.33 2679.11,-4888.24 2676.96,-4887.08 2674.85,-4885.85 2672.78,-4884.54 2670.76,-4883.17 2668.8,-4881.74 2666.9,-4880.24 2665.06,-4878.69 2663.3,-4877.1 2661.62,-4875.45 2660.04,-4873.77 2658.55,-4872.04 2657.16,-4870.29 2655.89,-4868.51 2654.74,-4866.7 2653.72,-4864.88 2652.83,-4863.04 2652.09,-4861.2 2651.49,-4859.36 2651.05,-4857.51 2650.78,-4855.68 2650.67,-4853.85 2650.74,-4852.05 2650.98,-4850.27 2651.4,-4848.51 2652.01,-4846.79 2652.8,-4845.1 2653.78,-4843.46 2654.94,-4841.86 2656.3,-4840.31 2657.83,-4838.82 2659.55,-4837.39 2661.44,-4836.02 2663.51,-4834.71 2665.75,-4833.48 2668.14,-4832.31 2670.69,-4831.23 2673.39,-4830.22 2676.22,-4829.3 2679.17,-4828.46 2682.24,-4827.71 2685.41,-4827.05 2688.68,-4826.48 2692.02,-4826 2695.42,-4825.62 2698.87,-4825.33 2702.36,-4825.14 2705.88,-4825.04 2709.4,-4825.04 2712.91,-4825.14"/>
<text text-anchor="start" x="2678.47" y="-4870.08" font-family="Times,serif" font-size="14.00">C0871685</text>
<text text-anchor="start" x="2677.8" y="-4856.08" font-family="Times,serif" font-size="14.00">clinician &#39;s</text>
<text text-anchor="start" x="2698.69" y="-4842.08" font-family="Times,serif" font-size="14.00">4:5</text>
</g>
<!-- id_28217611_DOT_18 -->
<g id="node18" class="node">
<title>id_28217611_DOT_18</title>
<polygon fill="darkorange" stroke="darkorange" points="2331.53,-4693.75 2335.86,-4693.94 2340.15,-4694.23 2344.38,-4694.61 2348.52,-4695.09 2352.57,-4695.66 2356.51,-4696.32 2360.32,-4697.07 2363.99,-4697.91 2367.5,-4698.83 2370.84,-4699.84 2374.01,-4700.92 2376.98,-4702.08 2379.76,-4703.32 2382.32,-4704.62 2384.68,-4705.99 2386.81,-4707.43 2388.71,-4708.92 2390.39,-4710.47 2391.84,-4712.07 2393.05,-4713.71 2394.04,-4715.4 2394.79,-4717.12 2395.31,-4718.87 2395.61,-4720.66 2395.69,-4722.46 2395.56,-4724.28 2395.22,-4726.12 2394.68,-4727.96 2393.94,-4729.81 2393.01,-4731.65 2391.91,-4733.49 2390.64,-4735.31 2389.22,-4737.11 2387.64,-4738.9 2385.92,-4740.65 2384.07,-4742.37 2382.1,-4744.06 2380.02,-4745.7 2377.83,-4747.3 2375.56,-4748.85 2373.19,-4750.34 2370.76,-4751.78 2368.25,-4753.15 2365.68,-4754.45 2363.06,-4755.69 2360.39,-4756.85 2357.69,-4757.93 2354.94,-4758.94 2352.17,-4759.86 2349.36,-4760.7 2346.54,-4761.45 2343.7,-4762.11 2340.85,-4762.68 2337.98,-4763.16 2335.1,-4763.54 2332.22,-4763.83 2329.33,-4764.02 2326.44,-4764.12 2323.54,-4764.12 2320.65,-4764.02 2317.76,-4763.83 2314.88,-4763.54 2312,-4763.16 2309.13,-4762.68 2306.28,-4762.11 2303.44,-4761.45 2300.61,-4760.7 2297.81,-4759.86 2295.04,-4758.94 2292.29,-4757.93 2289.58,-4756.85 2286.92,-4755.69 2284.3,-4754.45 2281.73,-4753.15 2279.22,-4751.78 2276.78,-4750.34 2274.42,-4748.85 2272.15,-4747.3 2269.96,-4745.7 2267.88,-4744.06 2265.91,-4742.37 2264.06,-4740.65 2262.34,-4738.9 2260.76,-4737.11 2259.33,-4735.31 2258.07,-4733.49 2256.96,-4731.65 2256.04,-4729.81 2255.3,-4727.96 2254.76,-4726.12 2254.42,-4724.28 2254.28,-4722.46 2254.36,-4720.66 2254.67,-4718.87 2255.19,-4717.12 2255.94,-4715.4 2256.93,-4713.71 2258.14,-4712.07 2259.59,-4710.47 2261.26,-4708.92 2263.17,-4707.43 2265.3,-4705.99 2267.65,-4704.62 2270.22,-4703.32 2273,-4702.08 2275.97,-4700.92 2279.14,-4699.84 2282.48,-4698.83 2285.99,-4697.91 2289.66,-4697.07 2293.47,-4696.32 2297.41,-4695.66 2301.46,-4695.09 2305.6,-4694.61 2309.83,-4694.23 2314.11,-4693.94 2318.45,-4693.75 2322.81,-4693.65 2327.17,-4693.65 2331.53,-4693.75"/>
<text text-anchor="start" x="2295.82" y="-4738.69" font-family="Times,serif" font-size="14.00">C0035452</text>
<text text-anchor="start" x="2286.11" y="-4724.69" font-family="Times,serif" font-size="14.00">rheumatology</text>
<text text-anchor="start" x="2309.04" y="-4710.69" font-family="Times,serif" font-size="14.00">80:80</text>
</g>
<!-- id_28217611_DOT_2&#45;&#45;id_28217611_DOT_18 -->
<g id="edge9" class="edge">
<title>id_28217611_DOT_2&#45;&#45;id_28217611_DOT_18</title>
<path fill="none" stroke="black" stroke-dasharray="1,5" d="M2654.43,-4842.01C2581.53,-4816.98 2451.34,-4772.27 2378.36,-4747.21"/>
<text text-anchor="middle" x="2490.14" y="-4797.41" font-family="Times,serif" font-size="14.00">0.739795</text>
</g>
<!-- id_28217611_DOT_3 -->
<g id="node3" class="node">
<title>id_28217611_DOT_3</title>
<polygon fill="blue" stroke="blue" points="1839.54,-2172.57 1842.97,-2172.76 1846.36,-2173.05 1849.7,-2173.44 1852.98,-2173.91 1856.19,-2174.48 1859.3,-2175.15 1862.32,-2175.9 1865.22,-2176.73 1868,-2177.66 1870.65,-2178.66 1873.15,-2179.75 1875.51,-2180.91 1877.7,-2182.14 1879.73,-2183.45 1881.6,-2184.82 1883.28,-2186.25 1884.79,-2187.75 1886.12,-2189.29 1887.26,-2190.89 1888.22,-2192.54 1889,-2194.22 1889.6,-2195.94 1890.01,-2197.7 1890.25,-2199.48 1890.32,-2201.29 1890.21,-2203.11 1889.94,-2204.94 1889.51,-2206.79 1888.93,-2208.63 1888.19,-2210.48 1887.32,-2212.31 1886.32,-2214.13 1885.19,-2215.94 1883.94,-2217.72 1882.58,-2219.48 1881.12,-2221.2 1879.56,-2222.88 1877.91,-2224.53 1876.18,-2226.13 1874.38,-2227.67 1872.51,-2229.17 1870.58,-2230.6 1868.6,-2231.97 1866.56,-2233.28 1864.49,-2234.51 1862.38,-2235.67 1860.24,-2236.76 1858.06,-2237.76 1855.87,-2238.69 1853.65,-2239.52 1851.42,-2240.27 1849.17,-2240.94 1846.91,-2241.51 1844.64,-2241.98 1842.36,-2242.37 1840.08,-2242.66 1837.79,-2242.85 1835.5,-2242.94 1833.21,-2242.94 1830.93,-2242.85 1828.64,-2242.66 1826.36,-2242.37 1824.08,-2241.98 1821.81,-2241.51 1819.55,-2240.94 1817.3,-2240.27 1815.07,-2239.52 1812.85,-2238.69 1810.66,-2237.76 1808.48,-2236.76 1806.34,-2235.67 1804.23,-2234.51 1802.15,-2233.28 1800.12,-2231.97 1798.14,-2230.6 1796.21,-2229.17 1794.34,-2227.67 1792.54,-2226.13 1790.81,-2224.53 1789.16,-2222.88 1787.6,-2221.2 1786.14,-2219.48 1784.78,-2217.72 1783.53,-2215.94 1782.4,-2214.13 1781.4,-2212.31 1780.52,-2210.48 1779.79,-2208.63 1779.21,-2206.79 1778.78,-2204.94 1778.51,-2203.11 1778.4,-2201.29 1778.47,-2199.48 1778.7,-2197.7 1779.12,-2195.94 1779.72,-2194.22 1780.49,-2192.54 1781.46,-2190.89 1782.6,-2189.29 1783.93,-2187.75 1785.44,-2186.25 1787.12,-2184.82 1788.98,-2183.45 1791.02,-2182.14 1793.21,-2180.91 1795.57,-2179.75 1798.07,-2178.66 1800.72,-2177.66 1803.5,-2176.73 1806.4,-2175.9 1809.42,-2175.15 1812.53,-2174.48 1815.74,-2173.91 1819.02,-2173.44 1822.36,-2173.05 1825.75,-2172.76 1829.18,-2172.57 1832.63,-2172.47 1836.09,-2172.47 1839.54,-2172.57"/>
<text text-anchor="start" x="1805.19" y="-2217.51" font-family="Times,serif" font-size="14.00">C0028084</text>
<text text-anchor="start" x="1805.98" y="-2203.51" font-family="Times,serif" font-size="14.00">nightmare</text>
<text text-anchor="start" x="1825.41" y="-2189.51" font-family="Times,serif" font-size="14.00">6:6</text>
</g>
<!-- id_28217611_DOT_5 -->
<g id="node5" class="node">
<title>id_28217611_DOT_5</title>
<polygon fill="blueviolet" stroke="blueviolet" points="1585.54,-2498.73 1589.3,-2498.93 1593.03,-2499.22 1596.71,-2499.6 1600.32,-2500.08 1603.84,-2500.65 1607.26,-2501.31 1610.58,-2502.06 1613.77,-2502.9 1616.83,-2503.82 1619.74,-2504.83 1622.49,-2505.91 1625.08,-2507.07 1627.49,-2508.31 1629.72,-2509.61 1631.77,-2510.98 1633.63,-2512.42 1635.28,-2513.91 1636.74,-2515.46 1638,-2517.06 1639.06,-2518.7 1639.91,-2520.39 1640.57,-2522.11 1641.02,-2523.86 1641.29,-2525.65 1641.36,-2527.45 1641.24,-2529.27 1640.94,-2531.11 1640.47,-2532.95 1639.83,-2534.8 1639.02,-2536.64 1638.07,-2538.47 1636.96,-2540.3 1635.72,-2542.1 1634.35,-2543.88 1632.85,-2545.64 1631.24,-2547.36 1629.53,-2549.05 1627.72,-2550.69 1625.82,-2552.29 1623.84,-2553.84 1621.78,-2555.33 1619.66,-2556.77 1617.48,-2558.14 1615.25,-2559.44 1612.97,-2560.68 1610.65,-2561.84 1608.29,-2562.92 1605.9,-2563.93 1603.49,-2564.85 1601.05,-2565.69 1598.59,-2566.44 1596.12,-2567.1 1593.64,-2567.67 1591.14,-2568.15 1588.64,-2568.53 1586.13,-2568.82 1583.62,-2569.01 1581.1,-2569.11 1578.58,-2569.11 1576.07,-2569.01 1573.56,-2568.82 1571.05,-2568.53 1568.54,-2568.15 1566.05,-2567.67 1563.56,-2567.1 1561.09,-2566.44 1558.64,-2565.69 1556.2,-2564.85 1553.79,-2563.93 1551.4,-2562.92 1549.04,-2561.84 1546.72,-2560.68 1544.44,-2559.44 1542.21,-2558.14 1540.03,-2556.77 1537.9,-2555.33 1535.85,-2553.84 1533.87,-2552.29 1531.97,-2550.69 1530.16,-2549.05 1528.44,-2547.36 1526.83,-2545.64 1525.34,-2543.88 1523.97,-2542.1 1522.72,-2540.3 1521.62,-2538.47 1520.66,-2536.64 1519.86,-2534.8 1519.22,-2532.95 1518.74,-2531.11 1518.45,-2529.27 1518.33,-2527.45 1518.4,-2525.65 1518.66,-2523.86 1519.12,-2522.11 1519.77,-2520.39 1520.63,-2518.7 1521.69,-2517.06 1522.94,-2515.46 1524.4,-2513.91 1526.06,-2512.42 1527.91,-2510.98 1529.96,-2509.61 1532.19,-2508.31 1534.61,-2507.07 1537.2,-2505.91 1539.95,-2504.83 1542.86,-2503.82 1545.92,-2502.9 1549.11,-2502.06 1552.42,-2501.31 1555.85,-2500.65 1559.37,-2500.08 1562.98,-2499.6 1566.65,-2499.22 1570.38,-2498.93 1574.15,-2498.73 1577.94,-2498.64 1581.74,-2498.64 1585.54,-2498.73"/>
<text text-anchor="start" x="1550.67" y="-2543.67" font-family="Times,serif" font-size="14.00">C0678236</text>
<text text-anchor="start" x="1547" y="-2529.67" font-family="Times,serif" font-size="14.00">rare disease</text>
<text text-anchor="start" x="1564.15" y="-2515.67" font-family="Times,serif" font-size="14.00">11:12</text>
</g>
<!-- id_28217611_DOT_3&#45;&#45;id_28217611_DOT_5 -->
<g id="edge10" class="edge">
<title>id_28217611_DOT_3&#45;&#45;id_28217611_DOT_5</title>
<path fill="none" stroke="black" stroke-dasharray="1,5" d="M1810.64,-2238.1C1762.89,-2299.3 1655.46,-2436.97 1605.86,-2500.54"/>
<text text-anchor="middle" x="1682" y="-2372.12" font-family="Times,serif" font-size="14.00">0.797366</text>
</g>
<!-- id_28217611_DOT_26 -->
<g id="node26" class="node">
<title>id_28217611_DOT_26</title>
<polygon fill="cornflowerblue" stroke="cornflowerblue" points="2034.04,-1831.45 2037.47,-1831.65 2040.86,-1831.94 2044.21,-1832.32 2047.49,-1832.8 2050.69,-1833.37 2053.81,-1834.03 2056.82,-1834.78 2059.73,-1835.62 2062.51,-1836.54 2065.15,-1837.55 2067.66,-1838.63 2070.01,-1839.79 2072.21,-1841.03 2074.24,-1842.33 2076.1,-1843.7 2077.79,-1845.14 2079.3,-1846.63 2080.62,-1848.18 2081.77,-1849.78 2082.73,-1851.42 2083.51,-1853.11 2084.1,-1854.83 2084.52,-1856.58 2084.76,-1858.37 2084.82,-1860.17 2084.72,-1861.99 2084.44,-1863.83 2084.01,-1865.67 2083.43,-1867.52 2082.7,-1869.36 2081.83,-1871.19 2080.82,-1873.02 2079.69,-1874.82 2078.44,-1876.6 2077.08,-1878.36 2075.62,-1880.08 2074.06,-1881.77 2072.41,-1883.41 2070.69,-1885.01 2068.88,-1886.56 2067.01,-1888.05 2065.09,-1889.49 2063.1,-1890.86 2061.07,-1892.16 2059,-1893.4 2056.88,-1894.56 2054.74,-1895.64 2052.57,-1896.65 2050.37,-1897.57 2048.16,-1898.41 2045.92,-1899.16 2043.67,-1899.82 2041.41,-1900.39 2039.14,-1900.87 2036.87,-1901.25 2034.58,-1901.54 2032.3,-1901.73 2030.01,-1901.83 2027.72,-1901.83 2025.43,-1901.73 2023.15,-1901.54 2020.86,-1901.25 2018.59,-1900.87 2016.32,-1900.39 2014.06,-1899.82 2011.81,-1899.16 2009.57,-1898.41 2007.36,-1897.57 2005.16,-1896.65 2002.99,-1895.64 2000.84,-1894.56 1998.73,-1893.4 1996.66,-1892.16 1994.63,-1890.86 1992.64,-1889.49 1990.72,-1888.05 1988.85,-1886.56 1987.04,-1885.01 1985.32,-1883.41 1983.67,-1881.77 1982.11,-1880.08 1980.65,-1878.36 1979.29,-1876.6 1978.04,-1874.82 1976.91,-1873.02 1975.9,-1871.19 1975.03,-1869.36 1974.3,-1867.52 1973.72,-1865.67 1973.28,-1863.83 1973.01,-1861.99 1972.91,-1860.17 1972.97,-1858.37 1973.21,-1856.58 1973.63,-1854.83 1974.22,-1853.11 1975,-1851.42 1975.96,-1849.78 1977.11,-1848.18 1978.43,-1846.63 1979.94,-1845.14 1981.63,-1843.7 1983.49,-1842.33 1985.52,-1841.03 1987.72,-1839.79 1990.07,-1838.63 1992.58,-1837.55 1995.22,-1836.54 1998,-1835.62 2000.91,-1834.78 2003.92,-1834.03 2007.04,-1833.37 2010.24,-1832.8 2013.52,-1832.32 2016.87,-1831.94 2020.26,-1831.65 2023.69,-1831.45 2027.14,-1831.36 2030.59,-1831.36 2034.04,-1831.45"/>
<text text-anchor="start" x="1999.7" y="-1876.39" font-family="Times,serif" font-size="14.00">C0041582</text>
<text text-anchor="start" x="2014.88" y="-1862.39" font-family="Times,serif" font-size="14.00">ulcer</text>
<text text-anchor="start" x="2005.92" y="-1848.39" font-family="Times,serif" font-size="14.00">128:128</text>
</g>
<!-- id_28217611_DOT_3&#45;&#45;id_28217611_DOT_26 -->
<g id="edge11" class="edge">
<title>id_28217611_DOT_3&#45;&#45;id_28217611_DOT_26</title>
<path fill="none" stroke="black" stroke-dasharray="1,5" d="M1853.72,-2173.75C1891.29,-2107.86 1973.62,-1963.48 2010.44,-1898.91"/>
<text text-anchor="middle" x="1905.83" y="-2039.13" font-family="Times,serif" font-size="14.00">0.783050</text>
</g>
<!-- id_28217611_DOT_9 -->
<g id="node9" class="node">
<title>id_28217611_DOT_9</title>
<polygon fill="coral" stroke="coral" points="1169.94,-2416.95 1173.37,-2417.14 1176.77,-2417.43 1180.11,-2417.82 1183.39,-2418.29 1186.59,-2418.87 1189.71,-2419.53 1192.73,-2420.28 1195.63,-2421.11 1198.41,-2422.04 1201.06,-2423.04 1203.56,-2424.13 1205.91,-2425.29 1208.11,-2426.52 1210.14,-2427.83 1212,-2429.2 1213.69,-2430.63 1215.2,-2432.13 1216.53,-2433.67 1217.67,-2435.27 1218.63,-2436.92 1219.41,-2438.6 1220.01,-2440.33 1220.42,-2442.08 1220.66,-2443.86 1220.72,-2445.67 1220.62,-2447.49 1220.35,-2449.33 1219.92,-2451.17 1219.33,-2453.01 1218.6,-2454.86 1217.73,-2456.69 1216.73,-2458.51 1215.6,-2460.32 1214.35,-2462.1 1212.99,-2463.86 1211.52,-2465.58 1209.96,-2467.27 1208.32,-2468.91 1206.59,-2470.51 1204.79,-2472.06 1202.92,-2473.55 1200.99,-2474.98 1199,-2476.35 1196.97,-2477.66 1194.9,-2478.89 1192.79,-2480.05 1190.64,-2481.14 1188.47,-2482.14 1186.27,-2483.07 1184.06,-2483.9 1181.82,-2484.66 1179.58,-2485.32 1177.31,-2485.89 1175.05,-2486.36 1172.77,-2486.75 1170.49,-2487.04 1168.2,-2487.23 1165.91,-2487.33 1163.62,-2487.33 1161.33,-2487.23 1159.05,-2487.04 1156.76,-2486.75 1154.49,-2486.36 1152.22,-2485.89 1149.96,-2485.32 1147.71,-2484.66 1145.48,-2483.9 1143.26,-2483.07 1141.06,-2482.14 1138.89,-2481.14 1136.75,-2480.05 1134.64,-2478.89 1132.56,-2477.66 1130.53,-2476.35 1128.55,-2474.98 1126.62,-2473.55 1124.75,-2472.06 1122.95,-2470.51 1121.22,-2468.91 1119.57,-2467.27 1118.01,-2465.58 1116.55,-2463.86 1115.19,-2462.1 1113.94,-2460.32 1112.81,-2458.51 1111.8,-2456.69 1110.93,-2454.86 1110.2,-2453.01 1109.62,-2451.17 1109.19,-2449.33 1108.92,-2447.49 1108.81,-2445.67 1108.87,-2443.86 1109.11,-2442.08 1109.53,-2440.33 1110.12,-2438.6 1110.9,-2436.92 1111.86,-2435.27 1113.01,-2433.67 1114.33,-2432.13 1115.84,-2430.63 1117.53,-2429.2 1119.39,-2427.83 1121.42,-2426.52 1123.62,-2425.29 1125.97,-2424.13 1128.48,-2423.04 1131.12,-2422.04 1133.9,-2421.11 1136.81,-2420.28 1139.82,-2419.53 1142.94,-2418.87 1146.14,-2418.29 1149.42,-2417.82 1152.77,-2417.43 1156.16,-2417.14 1159.59,-2416.95 1163.04,-2416.86 1166.49,-2416.86 1169.94,-2416.95"/>
<text text-anchor="start" x="1135.6" y="-2461.89" font-family="Times,serif" font-size="14.00">C0030193</text>
<text text-anchor="start" x="1144.94" y="-2447.89" font-family="Times,serif" font-size="14.00">painful</text>
<text text-anchor="start" x="1148.82" y="-2433.89" font-family="Times,serif" font-size="14.00">44:44</text>
</g>
<!-- id_28217611_DOT_5&#45;&#45;id_28217611_DOT_9 -->
<g id="edge12" class="edge">
<title>id_28217611_DOT_5&#45;&#45;id_28217611_DOT_9</title>
<path fill="none" stroke="black" stroke-dasharray="1,5" d="M1519.04,-2521.89C1436.63,-2505.66 1291,-2476.96 1214.66,-2461.92"/>
<text text-anchor="middle" x="1340.6" y="-2494.71" font-family="Times,serif" font-size="14.00">0.834234</text>
</g>
<!-- id_28217611_DOT_15 -->
<g id="node15" class="node">
<title>id_28217611_DOT_15</title>
<polygon fill="darkkhaki" stroke="darkkhaki" points="1703.12,-2893.26 1706.55,-2893.46 1709.94,-2893.74 1713.28,-2894.13 1716.56,-2894.61 1719.77,-2895.18 1722.88,-2895.84 1725.9,-2896.59 1728.8,-2897.43 1731.58,-2898.35 1734.23,-2899.35 1736.73,-2900.44 1739.09,-2901.6 1741.28,-2902.83 1743.32,-2904.14 1745.18,-2905.51 1746.86,-2906.94 1748.37,-2908.44 1749.7,-2909.99 1750.84,-2911.58 1751.81,-2913.23 1752.58,-2914.91 1753.18,-2916.64 1753.6,-2918.39 1753.83,-2920.17 1753.9,-2921.98 1753.79,-2923.8 1753.52,-2925.64 1753.09,-2927.48 1752.51,-2929.32 1751.78,-2931.17 1750.9,-2933 1749.9,-2934.83 1748.77,-2936.63 1747.52,-2938.41 1746.16,-2940.17 1744.7,-2941.89 1743.14,-2943.58 1741.49,-2945.22 1739.76,-2946.82 1737.96,-2948.37 1736.09,-2949.86 1734.16,-2951.29 1732.18,-2952.66 1730.15,-2953.97 1728.07,-2955.2 1725.96,-2956.37 1723.82,-2957.45 1721.64,-2958.46 1719.45,-2959.38 1717.23,-2960.22 1715,-2960.97 1712.75,-2961.63 1710.49,-2962.2 1708.22,-2962.68 1705.94,-2963.06 1703.66,-2963.35 1701.37,-2963.54 1699.09,-2963.64 1696.8,-2963.64 1694.51,-2963.54 1692.22,-2963.35 1689.94,-2963.06 1687.66,-2962.68 1685.39,-2962.2 1683.13,-2961.63 1680.88,-2960.97 1678.65,-2960.22 1676.43,-2959.38 1674.24,-2958.46 1672.06,-2957.45 1669.92,-2956.37 1667.81,-2955.2 1665.74,-2953.97 1663.7,-2952.66 1661.72,-2951.29 1659.79,-2949.86 1657.92,-2948.37 1656.12,-2946.82 1654.39,-2945.22 1652.74,-2943.58 1651.18,-2941.89 1649.72,-2940.17 1648.36,-2938.41 1647.11,-2936.63 1645.98,-2934.83 1644.98,-2933 1644.11,-2931.17 1643.37,-2929.32 1642.79,-2927.48 1642.36,-2925.64 1642.09,-2923.8 1641.98,-2921.98 1642.05,-2920.17 1642.29,-2918.39 1642.7,-2916.64 1643.3,-2914.91 1644.08,-2913.23 1645.04,-2911.58 1646.18,-2909.99 1647.51,-2908.44 1649.02,-2906.94 1650.7,-2905.51 1652.57,-2904.14 1654.6,-2902.83 1656.79,-2901.6 1659.15,-2900.44 1661.65,-2899.35 1664.3,-2898.35 1667.08,-2897.43 1669.98,-2896.59 1673,-2895.84 1676.11,-2895.18 1679.32,-2894.61 1682.6,-2894.13 1685.94,-2893.74 1689.33,-2893.46 1692.76,-2893.26 1696.21,-2893.17 1699.67,-2893.17 1703.12,-2893.26"/>
<text text-anchor="start" x="1668.77" y="-2938.2" font-family="Times,serif" font-size="14.00">C0012634</text>
<text text-anchor="start" x="1677.73" y="-2924.2" font-family="Times,serif" font-size="14.00">disease</text>
<text text-anchor="start" x="1682" y="-2910.2" font-family="Times,serif" font-size="14.00">64:64</text>
</g>
<!-- id_28217611_DOT_5&#45;&#45;id_28217611_DOT_15 -->
<g id="edge13" class="edge">
<title>id_28217611_DOT_5&#45;&#45;id_28217611_DOT_15</title>
<path fill="none" stroke="black" stroke-dasharray="1,5" d="M1590.22,-2568.54C1612.57,-2643.19 1665.02,-2818.43 1687.46,-2893.39"/>
<text text-anchor="middle" x="1612.59" y="-2733.77" font-family="Times,serif" font-size="14.00">0.257602</text>
</g>
<!-- id_28217611_DOT_6 -->
<g id="node6" class="node">
<title>id_28217611_DOT_6</title>
<polygon fill="brown" stroke="brown" points="2257.84,-351.71 2262.47,-351.9 2267.06,-352.19 2271.58,-352.57 2276.02,-353.05 2280.35,-353.62 2284.56,-354.28 2288.64,-355.03 2292.56,-355.87 2296.32,-356.79 2299.9,-357.8 2303.29,-358.88 2306.47,-360.04 2309.44,-361.28 2312.19,-362.58 2314.7,-363.95 2316.99,-365.39 2319.02,-366.88 2320.82,-368.43 2322.37,-370.03 2323.67,-371.67 2324.72,-373.36 2325.52,-375.08 2326.09,-376.83 2326.41,-378.62 2326.49,-380.42 2326.35,-382.24 2325.99,-384.08 2325.4,-385.92 2324.61,-387.77 2323.63,-389.61 2322.45,-391.45 2321.09,-393.27 2319.56,-395.07 2317.87,-396.86 2316.03,-398.61 2314.05,-400.33 2311.95,-402.02 2309.72,-403.66 2307.38,-405.26 2304.94,-406.81 2302.42,-408.3 2299.81,-409.74 2297.13,-411.11 2294.38,-412.41 2291.58,-413.65 2288.72,-414.81 2285.82,-415.89 2282.88,-416.9 2279.92,-417.82 2276.92,-418.66 2273.9,-419.41 2270.86,-420.07 2267.8,-420.64 2264.73,-421.12 2261.65,-421.5 2258.57,-421.79 2255.48,-421.98 2252.38,-422.08 2249.29,-422.08 2246.19,-421.98 2243.1,-421.79 2240.01,-421.5 2236.94,-421.12 2233.87,-420.64 2230.81,-420.07 2227.77,-419.41 2224.75,-418.66 2221.75,-417.82 2218.78,-416.9 2215.85,-415.89 2212.95,-414.81 2210.09,-413.65 2207.29,-412.41 2204.54,-411.11 2201.86,-409.74 2199.25,-408.3 2196.72,-406.81 2194.29,-405.26 2191.95,-403.66 2189.72,-402.02 2187.61,-400.33 2185.63,-398.61 2183.8,-396.86 2182.11,-395.07 2180.58,-393.27 2179.22,-391.45 2178.04,-389.61 2177.05,-387.77 2176.26,-385.92 2175.68,-384.08 2175.32,-382.24 2175.17,-380.42 2175.26,-378.62 2175.58,-376.83 2176.14,-375.08 2176.95,-373.36 2178,-371.67 2179.3,-370.03 2180.85,-368.43 2182.64,-366.88 2184.68,-365.39 2186.96,-363.95 2189.48,-362.58 2192.23,-361.28 2195.2,-360.04 2198.38,-358.88 2201.77,-357.8 2205.34,-356.79 2209.1,-355.87 2213.03,-355.03 2217.11,-354.28 2221.32,-353.62 2225.65,-353.05 2230.09,-352.57 2234.61,-352.19 2239.2,-351.9 2243.83,-351.71 2248.5,-351.61 2253.17,-351.61 2257.84,-351.71"/>
<text text-anchor="start" x="2221.66" y="-396.65" font-family="Times,serif" font-size="14.00">C0230463</text>
<text text-anchor="start" x="2208.65" y="-382.65" font-family="Times,serif" font-size="14.00">sole of the foot</text>
<text text-anchor="start" x="2234.89" y="-368.65" font-family="Times,serif" font-size="14.00">18:21</text>
</g>
<!-- id_28217611_DOT_11 -->
<g id="node11" class="node">
<title>id_28217611_DOT_11</title>
<polygon fill="brown" stroke="brown" points="2085.5,-0.23 2091.52,-0.42 2097.47,-0.71 2103.35,-1.09 2109.11,-1.57 2114.73,-2.14 2120.2,-2.8 2125.5,-3.55 2130.6,-4.39 2135.48,-5.31 2140.13,-6.32 2144.52,-7.4 2148.66,-8.57 2152.51,-9.8 2156.08,-11.1 2159.35,-12.48 2162.31,-13.91 2164.96,-15.4 2167.29,-16.95 2169.3,-18.55 2170.99,-20.19 2172.35,-21.88 2173.4,-23.6 2174.13,-25.36 2174.55,-27.14 2174.66,-28.94 2174.47,-30.77 2174,-32.6 2173.24,-34.44 2172.22,-36.29 2170.93,-38.13 2169.4,-39.97 2167.64,-41.79 2165.66,-43.6 2163.46,-45.38 2161.07,-47.13 2158.5,-48.86 2155.77,-50.54 2152.87,-52.19 2149.84,-53.78 2146.67,-55.33 2143.39,-56.82 2140,-58.26 2136.52,-59.63 2132.95,-60.94 2129.31,-62.17 2125.61,-63.33 2121.84,-64.42 2118.03,-65.42 2114.17,-66.34 2110.28,-67.18 2106.36,-67.93 2102.41,-68.59 2098.44,-69.16 2094.45,-69.64 2090.46,-70.02 2086.45,-70.31 2082.43,-70.51 2078.42,-70.6 2074.4,-70.6 2070.38,-70.51 2066.36,-70.31 2062.35,-70.02 2058.36,-69.64 2054.37,-69.16 2050.4,-68.59 2046.45,-67.93 2042.53,-67.18 2038.64,-66.34 2034.78,-65.42 2030.97,-64.42 2027.2,-63.33 2023.5,-62.17 2019.86,-60.94 2016.29,-59.63 2012.81,-58.26 2009.42,-56.82 2006.14,-55.33 2002.97,-53.78 1999.94,-52.19 1997.04,-50.54 1994.31,-48.86 1991.74,-47.13 1989.35,-45.38 1987.16,-43.6 1985.17,-41.79 1983.41,-39.97 1981.88,-38.13 1980.59,-36.29 1979.57,-34.44 1978.81,-32.6 1978.34,-30.77 1978.15,-28.94 1978.26,-27.14 1978.68,-25.36 1979.41,-23.6 1980.46,-21.88 1981.82,-20.19 1983.51,-18.55 1985.52,-16.95 1987.85,-15.4 1990.5,-13.91 1993.46,-12.48 1996.73,-11.1 2000.3,-9.8 2004.15,-8.57 2008.29,-7.4 2012.68,-6.32 2017.33,-5.31 2022.21,-4.39 2027.31,-3.55 2032.61,-2.8 2038.08,-2.14 2043.7,-1.57 2049.46,-1.09 2055.34,-0.71 2061.29,-0.42 2067.31,-0.23 2073.37,-0.13 2079.44,-0.13 2085.5,-0.23"/>
<text text-anchor="start" x="2047.24" y="-45.17" font-family="Times,serif" font-size="14.00">C0230463</text>
<text text-anchor="start" x="2019.25" y="-31.17" font-family="Times,serif" font-size="14.00">sole of the right foot</text>
<text text-anchor="start" x="2060.46" y="-17.17" font-family="Times,serif" font-size="14.00">48:52</text>
</g>
<!-- id_28217611_DOT_6&#45;&#45;id_28217611_DOT_11 -->
<g id="edge3" class="edge">
<title>id_28217611_DOT_6&#45;&#45;id_28217611_DOT_11</title>
<path fill="none" stroke="black" d="M2233.63,-352.18C2200.2,-284.81 2126.81,-136.93 2093.48,-69.77"/>
<text text-anchor="middle" x="2137.31" y="-213.78" font-family="Times,serif" font-size="14.00">0.018287</text>
</g>
<!-- id_28217611_DOT_23 -->
<g id="node23" class="node">
<title>id_28217611_DOT_23</title>
<polygon fill="darkslateblue" stroke="darkslateblue" points="2466.89,-723.19 2473.48,-723.38 2480,-723.67 2486.43,-724.06 2492.74,-724.53 2498.9,-725.1 2504.89,-725.76 2510.69,-726.52 2516.27,-727.35 2521.61,-728.28 2526.7,-729.28 2531.51,-730.37 2536.04,-731.53 2540.26,-732.76 2544.17,-734.07 2547.74,-735.44 2550.99,-736.87 2553.89,-738.36 2556.44,-739.91 2558.64,-741.51 2560.49,-743.15 2561.98,-744.84 2563.13,-746.56 2563.93,-748.32 2564.38,-750.1 2564.51,-751.91 2564.3,-753.73 2563.78,-755.56 2562.96,-757.41 2561.83,-759.25 2560.43,-761.09 2558.75,-762.93 2556.82,-764.75 2554.65,-766.56 2552.25,-768.34 2549.63,-770.09 2546.82,-771.82 2543.82,-773.5 2540.66,-775.15 2537.33,-776.75 2533.87,-778.29 2530.28,-779.79 2526.57,-781.22 2522.75,-782.59 2518.85,-783.9 2514.86,-785.13 2510.8,-786.29 2506.68,-787.38 2502.51,-788.38 2498.28,-789.31 2494.02,-790.14 2489.73,-790.89 2485.41,-791.55 2481.06,-792.13 2476.7,-792.6 2472.32,-792.99 2467.93,-793.28 2463.54,-793.47 2459.14,-793.56 2454.74,-793.56 2450.34,-793.47 2445.94,-793.28 2441.56,-792.99 2437.18,-792.6 2432.82,-792.13 2428.47,-791.55 2424.15,-790.89 2419.85,-790.14 2415.59,-789.31 2411.37,-788.38 2407.2,-787.38 2403.07,-786.29 2399.01,-785.13 2395.03,-783.9 2391.12,-782.59 2387.31,-781.22 2383.6,-779.79 2380.01,-778.29 2376.54,-776.75 2373.22,-775.15 2370.05,-773.5 2367.06,-771.82 2364.24,-770.09 2361.63,-768.34 2359.23,-766.56 2357.05,-764.75 2355.12,-762.93 2353.45,-761.09 2352.04,-759.25 2350.92,-757.41 2350.09,-755.56 2349.57,-753.73 2349.37,-751.91 2349.49,-750.1 2349.95,-748.32 2350.75,-746.56 2351.89,-744.84 2353.39,-743.15 2355.24,-741.51 2357.44,-739.91 2359.99,-738.36 2362.89,-736.87 2366.13,-735.44 2369.71,-734.07 2373.62,-732.76 2377.84,-731.53 2382.36,-730.37 2387.18,-729.28 2392.27,-728.28 2397.61,-727.35 2403.19,-726.52 2408.99,-725.76 2414.98,-725.1 2421.14,-724.53 2427.44,-724.06 2433.87,-723.67 2440.39,-723.38 2446.98,-723.19 2453.62,-723.09 2460.26,-723.09 2466.89,-723.19"/>
<text text-anchor="start" x="2427.77" y="-768.13" font-family="Times,serif" font-size="14.00">C0419839</text>
<text text-anchor="start" x="2393.37" y="-754.13" font-family="Times,serif" font-size="14.00">started on oral steroids</text>
<text text-anchor="start" x="2434.25" y="-740.13" font-family="Times,serif" font-size="14.00">107:110</text>
</g>
<!-- id_28217611_DOT_6&#45;&#45;id_28217611_DOT_23 -->
<g id="edge14" class="edge">
<title>id_28217611_DOT_6&#45;&#45;id_28217611_DOT_23</title>
<path fill="none" stroke="black" stroke-dasharray="1,5" d="M2269.49,-420.47C2308.43,-490.66 2398.03,-652.16 2437.58,-723.43"/>
<text text-anchor="middle" x="2327.28" y="-574.75" font-family="Times,serif" font-size="14.00">0.767835</text>
</g>
<!-- id_28217611_DOT_7 -->
<g id="node7" class="node">
<title>id_28217611_DOT_7</title>
<polygon fill="cadetblue" stroke="cadetblue" points="3260.9,-696.12 3264.33,-696.31 3267.72,-696.6 3271.07,-696.99 3274.35,-697.46 3277.55,-698.03 3280.67,-698.69 3283.68,-699.45 3286.59,-700.28 3289.37,-701.21 3292.01,-702.21 3294.52,-703.3 3296.87,-704.46 3299.07,-705.69 3301.1,-707 3302.96,-708.37 3304.65,-709.8 3306.16,-711.29 3307.48,-712.84 3308.63,-714.44 3309.59,-716.08 3310.37,-717.77 3310.96,-719.49 3311.38,-721.25 3311.62,-723.03 3311.68,-724.84 3311.58,-726.66 3311.3,-728.49 3310.87,-730.34 3310.29,-732.18 3309.56,-734.02 3308.69,-735.86 3307.68,-737.68 3306.55,-739.49 3305.3,-741.27 3303.94,-743.02 3302.48,-744.75 3300.92,-746.43 3299.27,-748.08 3297.55,-749.68 3295.74,-751.22 3293.87,-752.72 3291.94,-754.15 3289.96,-755.52 3287.93,-756.83 3285.86,-758.06 3283.74,-759.22 3281.6,-760.31 3279.43,-761.31 3277.23,-762.24 3275.02,-763.07 3272.78,-763.82 3270.53,-764.48 3268.27,-765.06 3266,-765.53 3263.73,-765.92 3261.44,-766.21 3259.16,-766.4 3256.87,-766.49 3254.58,-766.49 3252.29,-766.4 3250.01,-766.21 3247.72,-765.92 3245.45,-765.53 3243.18,-765.06 3240.92,-764.48 3238.67,-763.82 3236.43,-763.07 3234.22,-762.24 3232.02,-761.31 3229.85,-760.31 3227.7,-759.22 3225.59,-758.06 3223.52,-756.83 3221.49,-755.52 3219.5,-754.15 3217.57,-752.72 3215.71,-751.22 3213.9,-749.68 3212.18,-748.08 3210.53,-746.43 3208.97,-744.75 3207.51,-743.02 3206.15,-741.27 3204.9,-739.49 3203.77,-737.68 3202.76,-735.86 3201.89,-734.02 3201.16,-732.18 3200.57,-730.34 3200.14,-728.49 3199.87,-726.66 3199.77,-724.84 3199.83,-723.03 3200.07,-721.25 3200.49,-719.49 3201.08,-717.77 3201.86,-716.08 3202.82,-714.44 3203.97,-712.84 3205.29,-711.29 3206.8,-709.8 3208.49,-708.37 3210.35,-707 3212.38,-705.69 3214.58,-704.46 3216.93,-703.3 3219.44,-702.21 3222.08,-701.21 3224.86,-700.28 3227.77,-699.45 3230.78,-698.69 3233.9,-698.03 3237.1,-697.46 3240.38,-696.99 3243.73,-696.6 3247.12,-696.31 3250.55,-696.12 3254,-696.02 3257.45,-696.02 3260.9,-696.12"/>
<text text-anchor="start" x="3226.56" y="-741.06" font-family="Times,serif" font-size="14.00">C0684224</text>
<text text-anchor="start" x="3239.01" y="-727.06" font-family="Times,serif" font-size="14.00">report</text>
<text text-anchor="start" x="3239.78" y="-713.06" font-family="Times,serif" font-size="14.00">30:30</text>
</g>
<!-- id_28217611_DOT_8 -->
<g id="node8" class="node">
<title>id_28217611_DOT_8</title>
<polygon fill="chartreuse" stroke="chartreuse" points="2869.64,-621.13 2873.07,-621.32 2876.46,-621.61 2879.81,-622 2883.09,-622.47 2886.29,-623.04 2889.41,-623.7 2892.42,-624.45 2895.33,-625.29 2898.11,-626.22 2900.75,-627.22 2903.26,-628.31 2905.61,-629.47 2907.81,-630.7 2909.84,-632.01 2911.7,-633.38 2913.39,-634.81 2914.9,-636.3 2916.22,-637.85 2917.37,-639.45 2918.33,-641.09 2919.11,-642.78 2919.7,-644.5 2920.12,-646.26 2920.36,-648.04 2920.42,-649.85 2920.31,-651.67 2920.04,-653.5 2919.61,-655.35 2919.03,-657.19 2918.3,-659.03 2917.43,-660.87 2916.42,-662.69 2915.29,-664.5 2914.04,-666.28 2912.68,-668.03 2911.22,-669.76 2909.66,-671.44 2908.01,-673.09 2906.28,-674.69 2904.48,-676.23 2902.61,-677.73 2900.68,-679.16 2898.7,-680.53 2896.67,-681.84 2894.59,-683.07 2892.48,-684.23 2890.34,-685.32 2888.17,-686.32 2885.97,-687.24 2883.75,-688.08 2881.52,-688.83 2879.27,-689.49 2877.01,-690.06 2874.74,-690.54 2872.47,-690.93 2870.18,-691.21 2867.9,-691.41 2865.61,-691.5 2863.32,-691.5 2861.03,-691.41 2858.74,-691.21 2856.46,-690.93 2854.18,-690.54 2851.92,-690.06 2849.66,-689.49 2847.41,-688.83 2845.17,-688.08 2842.96,-687.24 2840.76,-686.32 2838.59,-685.32 2836.44,-684.23 2834.33,-683.07 2832.26,-681.84 2830.23,-680.53 2828.24,-679.16 2826.31,-677.73 2824.44,-676.23 2822.64,-674.69 2820.91,-673.09 2819.27,-671.44 2817.71,-669.76 2816.24,-668.03 2814.88,-666.28 2813.64,-664.5 2812.5,-662.69 2811.5,-660.87 2810.63,-659.03 2809.9,-657.19 2809.31,-655.35 2808.88,-653.5 2808.61,-651.67 2808.51,-649.85 2808.57,-648.04 2808.81,-646.26 2809.22,-644.5 2809.82,-642.78 2810.6,-641.09 2811.56,-639.45 2812.7,-637.85 2814.03,-636.3 2815.54,-634.81 2817.23,-633.38 2819.09,-632.01 2821.12,-630.7 2823.32,-629.47 2825.67,-628.31 2828.17,-627.22 2830.82,-626.22 2833.6,-625.29 2836.5,-624.45 2839.52,-623.7 2842.64,-623.04 2845.84,-622.47 2849.12,-622 2852.46,-621.61 2855.86,-621.32 2859.29,-621.13 2862.74,-621.03 2866.19,-621.03 2869.64,-621.13"/>
<text text-anchor="start" x="2835.29" y="-666.07" font-family="Times,serif" font-size="14.00">C0184666</text>
<text text-anchor="start" x="2839.97" y="-652.07" font-family="Times,serif" font-size="14.00">admitted</text>
<text text-anchor="start" x="2848.52" y="-638.07" font-family="Times,serif" font-size="14.00">41:41</text>
</g>
<!-- id_28217611_DOT_7&#45;&#45;id_28217611_DOT_8 -->
<g id="edge15" class="edge">
<title>id_28217611_DOT_7&#45;&#45;id_28217611_DOT_8</title>
<path fill="none" stroke="black" stroke-dasharray="1,5" d="M3200.08,-720.59C3123.81,-705.98 2987.93,-679.93 2914.64,-665.89"/>
<text text-anchor="middle" x="3031.11" y="-696.04" font-family="Times,serif" font-size="14.00">0.772672</text>
</g>
<!-- id_28217611_DOT_12 -->
<g id="node12" class="node">
<title>id_28217611_DOT_12</title>
<polygon fill="crimson" stroke="crimson" points="3047.19,-259.94 3051,-260.13 3054.77,-260.42 3058.49,-260.8 3062.14,-261.28 3065.7,-261.85 3069.16,-262.51 3072.52,-263.26 3075.74,-264.1 3078.83,-265.02 3081.78,-266.03 3084.56,-267.11 3087.18,-268.27 3089.62,-269.51 3091.88,-270.81 3093.95,-272.18 3095.82,-273.62 3097.5,-275.11 3098.98,-276.66 3100.25,-278.26 3101.32,-279.9 3102.18,-281.59 3102.84,-283.31 3103.31,-285.06 3103.57,-286.85 3103.64,-288.65 3103.52,-290.47 3103.22,-292.31 3102.74,-294.15 3102.1,-296 3101.28,-297.84 3100.31,-299.68 3099.2,-301.5 3097.94,-303.3 3096.55,-305.09 3095.04,-306.84 3093.41,-308.56 3091.68,-310.25 3089.85,-311.89 3087.93,-313.49 3085.92,-315.04 3083.85,-316.53 3081.7,-317.97 3079.5,-319.34 3077.24,-320.64 3074.93,-321.88 3072.58,-323.04 3070.2,-324.12 3067.79,-325.13 3065.34,-326.05 3062.88,-326.89 3060.4,-327.64 3057.9,-328.3 3055.38,-328.87 3052.86,-329.35 3050.33,-329.73 3047.79,-330.02 3045.25,-330.21 3042.71,-330.31 3040.16,-330.31 3037.62,-330.21 3035.08,-330.02 3032.54,-329.73 3030.01,-329.35 3027.48,-328.87 3024.97,-328.3 3022.47,-327.64 3019.99,-326.89 3017.52,-326.05 3015.08,-325.13 3012.67,-324.12 3010.28,-323.04 3007.94,-321.88 3005.63,-320.64 3003.37,-319.34 3001.17,-317.97 2999.02,-316.53 2996.94,-315.04 2994.94,-313.49 2993.02,-311.89 2991.19,-310.25 2989.45,-308.56 2987.83,-306.84 2986.31,-305.09 2984.93,-303.3 2983.67,-301.5 2982.55,-299.68 2981.58,-297.84 2980.77,-296 2980.12,-294.15 2979.64,-292.31 2979.34,-290.47 2979.23,-288.65 2979.3,-286.85 2979.56,-285.06 2980.02,-283.31 2980.69,-281.59 2981.55,-279.9 2982.62,-278.26 2983.89,-276.66 2985.37,-275.11 2987.04,-273.62 2988.92,-272.18 2990.99,-270.81 2993.25,-269.51 2995.69,-268.27 2998.31,-267.11 3001.09,-266.03 3004.03,-265.02 3007.12,-264.1 3010.35,-263.26 3013.7,-262.51 3017.17,-261.85 3020.73,-261.28 3024.38,-260.8 3028.09,-260.42 3031.87,-260.13 3035.68,-259.94 3039.51,-259.84 3043.35,-259.84 3047.19,-259.94"/>
<text text-anchor="start" x="3012.26" y="-304.87" font-family="Times,serif" font-size="14.00">C0332293</text>
<text text-anchor="start" x="3008.2" y="-290.87" font-family="Times,serif" font-size="14.00">treated with</text>
<text text-anchor="start" x="3025.49" y="-276.87" font-family="Times,serif" font-size="14.00">56:57</text>
</g>
<!-- id_28217611_DOT_8&#45;&#45;id_28217611_DOT_12 -->
<g id="edge16" class="edge">
<title>id_28217611_DOT_8&#45;&#45;id_28217611_DOT_12</title>
<path fill="none" stroke="black" stroke-dasharray="1,5" d="M2881.27,-621.96C2915.22,-552.67 2991.59,-396.8 3025.12,-328.37"/>
<text text-anchor="middle" x="2926.95" y="-477.96" font-family="Times,serif" font-size="14.00">0.710103</text>
</g>
<!-- id_28217611_DOT_8&#45;&#45;id_28217611_DOT_23 -->
<g id="edge17" class="edge">
<title>id_28217611_DOT_8&#45;&#45;id_28217611_DOT_23</title>
<path fill="none" stroke="black" stroke-dasharray="1,5" d="M2816.11,-668.38C2750.23,-684.88 2630.97,-714.75 2548.03,-735.52"/>
<text text-anchor="middle" x="2655.82" y="-704.75" font-family="Times,serif" font-size="14.00">0.741016</text>
</g>
<!-- id_28217611_DOT_25 -->
<g id="node25" class="node">
<title>id_28217611_DOT_25</title>
<polygon fill="coral" stroke="coral" points="784.4,-2326.63 787.83,-2326.82 791.22,-2327.11 794.57,-2327.49 797.85,-2327.97 801.05,-2328.54 804.17,-2329.2 807.18,-2329.95 810.09,-2330.79 812.87,-2331.71 815.51,-2332.72 818.02,-2333.8 820.37,-2334.96 822.57,-2336.2 824.6,-2337.5 826.46,-2338.87 828.15,-2340.31 829.65,-2341.8 830.98,-2343.35 832.13,-2344.95 833.09,-2346.59 833.87,-2348.28 834.46,-2350 834.88,-2351.75 835.12,-2353.54 835.18,-2355.34 835.07,-2357.16 834.8,-2359 834.37,-2360.84 833.79,-2362.69 833.06,-2364.53 832.19,-2366.37 831.18,-2368.19 830.05,-2369.99 828.8,-2371.78 827.44,-2373.53 825.98,-2375.25 824.42,-2376.94 822.77,-2378.58 821.04,-2380.18 819.24,-2381.73 817.37,-2383.22 815.44,-2384.66 813.46,-2386.03 811.43,-2387.33 809.35,-2388.57 807.24,-2389.73 805.1,-2390.81 802.93,-2391.82 800.73,-2392.74 798.51,-2393.58 796.28,-2394.33 794.03,-2394.99 791.77,-2395.56 789.5,-2396.04 787.22,-2396.42 784.94,-2396.71 782.66,-2396.9 780.37,-2397 778.08,-2397 775.79,-2396.9 773.5,-2396.71 771.22,-2396.42 768.94,-2396.04 766.67,-2395.56 764.41,-2394.99 762.17,-2394.33 759.93,-2393.58 757.72,-2392.74 755.52,-2391.82 753.35,-2390.81 751.2,-2389.73 749.09,-2388.57 747.02,-2387.33 744.99,-2386.03 743,-2384.66 741.07,-2383.22 739.2,-2381.73 737.4,-2380.18 735.67,-2378.58 734.03,-2376.94 732.47,-2375.25 731,-2373.53 729.64,-2371.78 728.39,-2369.99 727.26,-2368.19 726.26,-2366.37 725.39,-2364.53 724.66,-2362.69 724.07,-2360.84 723.64,-2359 723.37,-2357.16 723.27,-2355.34 723.33,-2353.54 723.57,-2351.75 723.98,-2350 724.58,-2348.28 725.36,-2346.59 726.32,-2344.95 727.46,-2343.35 728.79,-2341.8 730.3,-2340.31 731.99,-2338.87 733.85,-2337.5 735.88,-2336.2 738.08,-2334.96 740.43,-2333.8 742.93,-2332.72 745.58,-2331.71 748.36,-2330.79 751.26,-2329.95 754.28,-2329.2 757.4,-2328.54 760.6,-2327.97 763.88,-2327.49 767.22,-2327.11 770.62,-2326.82 774.04,-2326.63 777.49,-2326.53 780.95,-2326.53 784.4,-2326.63"/>
<text text-anchor="start" x="750.05" y="-2371.57" font-family="Times,serif" font-size="14.00">C0030193</text>
<text text-anchor="start" x="759.4" y="-2357.57" font-family="Times,serif" font-size="14.00">painful</text>
<text text-anchor="start" x="756.28" y="-2343.57" font-family="Times,serif" font-size="14.00">127:127</text>
</g>
<!-- id_28217611_DOT_9&#45;&#45;id_28217611_DOT_25 -->
<g id="edge4" class="edge">
<title>id_28217611_DOT_9&#45;&#45;id_28217611_DOT_25</title>
<path fill="none" stroke="black" d="M1109.53,-2439.15C1034.05,-2421.47 899.88,-2390.03 827.96,-2373.18"/>
<text text-anchor="middle" x="942.49" y="-2408.97" font-family="Times,serif" font-size="14.00">0.015328</text>
</g>
<!-- id_28217611_DOT_10 -->
<g id="node10" class="node">
<title>id_28217611_DOT_10</title>
<polygon fill="cornflowerblue" stroke="cornflowerblue" points="2168.96,-1464.86 2172.39,-1465.06 2175.78,-1465.35 2179.12,-1465.73 2182.4,-1466.21 2185.61,-1466.78 2188.72,-1467.44 2191.74,-1468.19 2194.64,-1469.03 2197.42,-1469.95 2200.07,-1470.95 2202.57,-1472.04 2204.93,-1473.2 2207.12,-1474.44 2209.16,-1475.74 2211.02,-1477.11 2212.7,-1478.55 2214.21,-1480.04 2215.54,-1481.59 2216.68,-1483.18 2217.65,-1484.83 2218.42,-1486.51 2219.02,-1488.24 2219.43,-1489.99 2219.67,-1491.77 2219.74,-1493.58 2219.63,-1495.4 2219.36,-1497.24 2218.93,-1499.08 2218.35,-1500.93 2217.62,-1502.77 2216.74,-1504.6 2215.74,-1506.43 2214.61,-1508.23 2213.36,-1510.01 2212,-1511.77 2210.54,-1513.49 2208.98,-1515.18 2207.33,-1516.82 2205.6,-1518.42 2203.8,-1519.97 2201.93,-1521.46 2200,-1522.89 2198.02,-1524.27 2195.99,-1525.57 2193.91,-1526.81 2191.8,-1527.97 2189.66,-1529.05 2187.48,-1530.06 2185.29,-1530.98 2183.07,-1531.82 2180.84,-1532.57 2178.59,-1533.23 2176.33,-1533.8 2174.06,-1534.28 2171.78,-1534.66 2169.5,-1534.95 2167.21,-1535.14 2164.93,-1535.24 2162.64,-1535.24 2160.35,-1535.14 2158.06,-1534.95 2155.78,-1534.66 2153.5,-1534.28 2151.23,-1533.8 2148.97,-1533.23 2146.72,-1532.57 2144.49,-1531.82 2142.27,-1530.98 2140.08,-1530.06 2137.9,-1529.05 2135.76,-1527.97 2133.65,-1526.81 2131.58,-1525.57 2129.54,-1524.27 2127.56,-1522.89 2125.63,-1521.46 2123.76,-1519.97 2121.96,-1518.42 2120.23,-1516.82 2118.58,-1515.18 2117.02,-1513.49 2115.56,-1511.77 2114.2,-1510.01 2112.95,-1508.23 2111.82,-1506.43 2110.82,-1504.6 2109.95,-1502.77 2109.21,-1500.93 2108.63,-1499.08 2108.2,-1497.24 2107.93,-1495.4 2107.82,-1493.58 2107.89,-1491.77 2108.13,-1489.99 2108.54,-1488.24 2109.14,-1486.51 2109.92,-1484.83 2110.88,-1483.18 2112.02,-1481.59 2113.35,-1480.04 2114.86,-1478.55 2116.54,-1477.11 2118.41,-1475.74 2120.44,-1474.44 2122.63,-1473.2 2124.99,-1472.04 2127.49,-1470.95 2130.14,-1469.95 2132.92,-1469.03 2135.82,-1468.19 2138.84,-1467.44 2141.95,-1466.78 2145.16,-1466.21 2148.44,-1465.73 2151.78,-1465.35 2155.17,-1465.06 2158.6,-1464.86 2162.05,-1464.77 2165.51,-1464.77 2168.96,-1464.86"/>
<text text-anchor="start" x="2134.61" y="-1509.8" font-family="Times,serif" font-size="14.00">C0041582</text>
<text text-anchor="start" x="2149.79" y="-1495.8" font-family="Times,serif" font-size="14.00">ulcer</text>
<text text-anchor="start" x="2147.84" y="-1481.8" font-family="Times,serif" font-size="14.00">45:45</text>
</g>
<!-- id_28217611_DOT_13 -->
<g id="node13" class="node">
<title>id_28217611_DOT_13</title>
<polygon fill="darkgoldenrod" stroke="darkgoldenrod" points="2211.75,-1062.24 2215.18,-1062.43 2218.57,-1062.72 2221.91,-1063.1 2225.19,-1063.58 2228.4,-1064.15 2231.52,-1064.81 2234.53,-1065.56 2237.43,-1066.4 2240.21,-1067.32 2242.86,-1068.33 2245.36,-1069.41 2247.72,-1070.57 2249.92,-1071.81 2251.95,-1073.11 2253.81,-1074.49 2255.49,-1075.92 2257,-1077.41 2258.33,-1078.96 2259.47,-1080.56 2260.44,-1082.2 2261.21,-1083.89 2261.81,-1085.61 2262.23,-1087.37 2262.46,-1089.15 2262.53,-1090.95 2262.42,-1092.78 2262.15,-1094.61 2261.72,-1096.45 2261.14,-1098.3 2260.41,-1100.14 2259.53,-1101.98 2258.53,-1103.8 2257.4,-1105.61 2256.15,-1107.39 2254.79,-1109.14 2253.33,-1110.87 2251.77,-1112.55 2250.12,-1114.2 2248.39,-1115.79 2246.59,-1117.34 2244.72,-1118.83 2242.79,-1120.27 2240.81,-1121.64 2238.78,-1122.94 2236.7,-1124.18 2234.59,-1125.34 2232.45,-1126.43 2230.27,-1127.43 2228.08,-1128.35 2225.86,-1129.19 2223.63,-1129.94 2221.38,-1130.6 2219.12,-1131.17 2216.85,-1131.65 2214.57,-1132.03 2212.29,-1132.32 2210,-1132.52 2207.72,-1132.61 2205.43,-1132.61 2203.14,-1132.52 2200.85,-1132.32 2198.57,-1132.03 2196.29,-1131.65 2194.02,-1131.17 2191.76,-1130.6 2189.51,-1129.94 2187.28,-1129.19 2185.06,-1128.35 2182.87,-1127.43 2180.7,-1126.43 2178.55,-1125.34 2176.44,-1124.18 2174.37,-1122.94 2172.33,-1121.64 2170.35,-1120.27 2168.42,-1118.83 2166.55,-1117.34 2164.75,-1115.79 2163.02,-1114.2 2161.37,-1112.55 2159.82,-1110.87 2158.35,-1109.14 2156.99,-1107.39 2155.74,-1105.61 2154.61,-1103.8 2153.61,-1101.98 2152.74,-1100.14 2152.01,-1098.3 2151.42,-1096.45 2150.99,-1094.61 2150.72,-1092.78 2150.61,-1090.95 2150.68,-1089.15 2150.92,-1087.37 2151.33,-1085.61 2151.93,-1083.89 2152.71,-1082.2 2153.67,-1080.56 2154.81,-1078.96 2156.14,-1077.41 2157.65,-1075.92 2159.33,-1074.49 2161.2,-1073.11 2163.23,-1071.81 2165.42,-1070.57 2167.78,-1069.41 2170.28,-1068.33 2172.93,-1067.32 2175.71,-1066.4 2178.61,-1065.56 2181.63,-1064.81 2184.74,-1064.15 2187.95,-1063.58 2191.23,-1063.1 2194.57,-1062.72 2197.96,-1062.43 2201.39,-1062.24 2204.84,-1062.14 2208.3,-1062.14 2211.75,-1062.24"/>
<text text-anchor="start" x="2177.4" y="-1107.18" font-family="Times,serif" font-size="14.00">C0003232</text>
<text text-anchor="start" x="2177.41" y="-1093.18" font-family="Times,serif" font-size="14.00">antibiotics</text>
<text text-anchor="start" x="2190.63" y="-1079.18" font-family="Times,serif" font-size="14.00">59:59</text>
</g>
<!-- id_28217611_DOT_10&#45;&#45;id_28217611_DOT_13 -->
<g id="edge18" class="edge">
<title>id_28217611_DOT_10&#45;&#45;id_28217611_DOT_13</title>
<path fill="none" stroke="black" stroke-dasharray="1,5" d="M2167.54,-1464.63C2175.66,-1388.25 2194.74,-1208.7 2202.84,-1132.53"/>
<text text-anchor="middle" x="2158.94" y="-1301.38" font-family="Times,serif" font-size="14.00">0.788347</text>
</g>
<!-- id_28217611_DOT_10&#45;&#45;id_28217611_DOT_26 -->
<g id="edge5" class="edge">
<title>id_28217611_DOT_10&#45;&#45;id_28217611_DOT_26</title>
<path fill="none" stroke="black" d="M2151.33,-1533.83C2125.76,-1603.32 2067.56,-1761.46 2041.68,-1831.78"/>
<text text-anchor="middle" x="2070.25" y="-1685.6" font-family="Times,serif" font-size="14.00">0.009828</text>
</g>
<!-- id_28217611_DOT_13&#45;&#45;id_28217611_DOT_23 -->
<g id="edge19" class="edge">
<title>id_28217611_DOT_13&#45;&#45;id_28217611_DOT_23</title>
<path fill="none" stroke="black" stroke-dasharray="1,5" d="M2230.8,-1064.56C2278.42,-1000.08 2383.73,-857.46 2431.95,-792.17"/>
<text text-anchor="middle" x="2305.13" y="-931.16" font-family="Times,serif" font-size="14.00">0.742256</text>
</g>
<!-- id_28217611_DOT_28 -->
<g id="node28" class="node">
<title>id_28217611_DOT_28</title>
<polygon fill="deepskyblue" stroke="deepskyblue" points="1835.37,-897.25 1841.14,-897.44 1846.85,-897.73 1852.47,-898.12 1857.99,-898.59 1863.38,-899.16 1868.62,-899.83 1873.69,-900.58 1878.57,-901.41 1883.25,-902.34 1887.7,-903.34 1891.91,-904.43 1895.87,-905.59 1899.57,-906.82 1902.98,-908.13 1906.11,-909.5 1908.95,-910.93 1911.49,-912.43 1913.72,-913.97 1915.65,-915.57 1917.26,-917.22 1918.57,-918.9 1919.57,-920.62 1920.27,-922.38 1920.67,-924.16 1920.78,-925.97 1920.6,-927.79 1920.15,-929.63 1919.42,-931.47 1918.44,-933.31 1917.21,-935.16 1915.75,-936.99 1914.06,-938.81 1912.16,-940.62 1910.05,-942.4 1907.77,-944.16 1905.31,-945.88 1902.68,-947.57 1899.91,-949.21 1897.01,-950.81 1893.97,-952.35 1890.83,-953.85 1887.59,-955.28 1884.25,-956.65 1880.83,-957.96 1877.34,-959.19 1873.79,-960.35 1870.19,-961.44 1866.53,-962.44 1862.84,-963.37 1859.11,-964.2 1855.35,-964.96 1851.57,-965.62 1847.77,-966.19 1843.95,-966.66 1840.12,-967.05 1836.28,-967.34 1832.44,-967.53 1828.59,-967.63 1824.74,-967.63 1820.89,-967.53 1817.05,-967.34 1813.21,-967.05 1809.38,-966.66 1805.56,-966.19 1801.76,-965.62 1797.98,-964.96 1794.22,-964.2 1790.49,-963.37 1786.8,-962.44 1783.14,-961.44 1779.54,-960.35 1775.99,-959.19 1772.5,-957.96 1769.08,-956.65 1765.74,-955.28 1762.5,-953.85 1759.36,-952.35 1756.32,-950.81 1753.42,-949.21 1750.65,-947.57 1748.02,-945.88 1745.56,-944.16 1743.28,-942.4 1741.17,-940.62 1739.27,-938.81 1737.58,-936.99 1736.12,-935.16 1734.89,-933.31 1733.91,-931.47 1733.18,-929.63 1732.73,-927.79 1732.55,-925.97 1732.66,-924.16 1733.06,-922.38 1733.76,-920.62 1734.76,-918.9 1736.07,-917.22 1737.68,-915.57 1739.61,-913.97 1741.84,-912.43 1744.38,-910.93 1747.22,-909.5 1750.35,-908.13 1753.76,-906.82 1757.46,-905.59 1761.42,-904.43 1765.63,-903.34 1770.08,-902.34 1774.76,-901.41 1779.64,-900.58 1784.71,-899.83 1789.95,-899.16 1795.34,-898.59 1800.86,-898.12 1806.48,-897.73 1812.19,-897.44 1817.96,-897.25 1823.76,-897.16 1829.57,-897.16 1835.37,-897.25"/>
<text text-anchor="start" x="1797.5" y="-942.19" font-family="Times,serif" font-size="14.00">C0338237</text>
<text text-anchor="start" x="1772.05" y="-928.19" font-family="Times,serif" font-size="14.00">antibiotic treatment</text>
<text text-anchor="start" x="1803.72" y="-914.19" font-family="Times,serif" font-size="14.00">137:138</text>
</g>
<!-- id_28217611_DOT_13&#45;&#45;id_28217611_DOT_28 -->
<g id="edge20" class="edge">
<title>id_28217611_DOT_13&#45;&#45;id_28217611_DOT_28</title>
<path fill="none" stroke="black" stroke-dasharray="1,5" d="M2157.29,-1075.98C2086.93,-1045.42 1957.96,-989.41 1883.6,-957.11"/>
<text text-anchor="middle" x="1994.2" y="-1019.35" font-family="Times,serif" font-size="14.00">0.661853</text>
</g>
<!-- id_28217611_DOT_14 -->
<g id="node14" class="node">
<title>id_28217611_DOT_14</title>
<polygon fill="darkgreen" stroke="darkgreen" points="1822.6,-4060.21 1826.58,-4060.4 1830.52,-4060.69 1834.4,-4061.08 1838.21,-4061.55 1841.93,-4062.12 1845.55,-4062.79 1849.05,-4063.54 1852.42,-4064.37 1855.65,-4065.3 1858.73,-4066.3 1861.63,-4067.39 1864.37,-4068.55 1866.92,-4069.78 1869.28,-4071.09 1871.44,-4072.46 1873.4,-4073.89 1875.15,-4075.39 1876.69,-4076.93 1878.02,-4078.53 1879.14,-4080.18 1880.04,-4081.86 1880.73,-4083.58 1881.21,-4085.34 1881.49,-4087.12 1881.56,-4088.93 1881.44,-4090.75 1881.13,-4092.58 1880.63,-4094.43 1879.95,-4096.27 1879.1,-4098.12 1878.09,-4099.95 1876.92,-4101.77 1875.61,-4103.58 1874.16,-4105.36 1872.58,-4107.12 1870.88,-4108.84 1869.07,-4110.52 1867.16,-4112.17 1865.15,-4113.77 1863.06,-4115.31 1860.89,-4116.81 1858.65,-4118.24 1856.34,-4119.61 1853.98,-4120.92 1851.57,-4122.15 1849.12,-4123.31 1846.63,-4124.4 1844.11,-4125.4 1841.56,-4126.33 1838.99,-4127.16 1836.39,-4127.91 1833.78,-4128.58 1831.16,-4129.15 1828.52,-4129.62 1825.88,-4130.01 1823.23,-4130.3 1820.57,-4130.49 1817.91,-4130.59 1815.26,-4130.59 1812.6,-4130.49 1809.94,-4130.3 1807.29,-4130.01 1804.65,-4129.62 1802.01,-4129.15 1799.39,-4128.58 1796.78,-4127.91 1794.18,-4127.16 1791.61,-4126.33 1789.06,-4125.4 1786.54,-4124.4 1784.05,-4123.31 1781.59,-4122.15 1779.19,-4120.92 1776.83,-4119.61 1774.52,-4118.24 1772.28,-4116.81 1770.11,-4115.31 1768.02,-4113.77 1766.01,-4112.17 1764.1,-4110.52 1762.29,-4108.84 1760.59,-4107.12 1759.01,-4105.36 1757.56,-4103.58 1756.25,-4101.77 1755.08,-4099.95 1754.07,-4098.12 1753.22,-4096.27 1752.54,-4094.43 1752.04,-4092.58 1751.73,-4090.75 1751.6,-4088.93 1751.68,-4087.12 1751.96,-4085.34 1752.44,-4083.58 1753.13,-4081.86 1754.03,-4080.18 1755.15,-4078.53 1756.48,-4076.93 1758.02,-4075.39 1759.77,-4073.89 1761.73,-4072.46 1763.89,-4071.09 1766.25,-4069.78 1768.8,-4068.55 1771.54,-4067.39 1774.44,-4066.3 1777.52,-4065.3 1780.75,-4064.37 1784.12,-4063.54 1787.62,-4062.79 1791.24,-4062.12 1794.96,-4061.55 1798.77,-4061.08 1802.65,-4060.69 1806.59,-4060.4 1810.57,-4060.21 1814.58,-4060.11 1818.59,-4060.11 1822.6,-4060.21"/>
<text text-anchor="start" x="1787.67" y="-4105.15" font-family="Times,serif" font-size="14.00">C0011079</text>
<text text-anchor="start" x="1781.6" y="-4091.15" font-family="Times,serif" font-size="14.00">debridement</text>
<text text-anchor="start" x="1800.64" y="-4077.15" font-family="Times,serif" font-size="14.00">61:61</text>
</g>
<!-- id_28217611_DOT_16 -->
<g id="node16" class="node">
<title>id_28217611_DOT_16</title>
<polygon fill="darkgreen" stroke="darkgreen" points="1787.25,-3665.82 1791.24,-3666.02 1795.18,-3666.3 1799.06,-3666.69 1802.87,-3667.17 1806.59,-3667.74 1810.21,-3668.4 1813.71,-3669.15 1817.08,-3669.99 1820.31,-3670.91 1823.38,-3671.91 1826.29,-3673 1829.02,-3674.16 1831.57,-3675.39 1833.93,-3676.7 1836.1,-3678.07 1838.05,-3679.5 1839.81,-3681 1841.35,-3682.55 1842.68,-3684.14 1843.79,-3685.79 1844.7,-3687.47 1845.39,-3689.2 1845.87,-3690.95 1846.15,-3692.73 1846.22,-3694.54 1846.1,-3696.36 1845.78,-3698.2 1845.28,-3700.04 1844.61,-3701.88 1843.76,-3703.73 1842.75,-3705.56 1841.58,-3707.39 1840.27,-3709.19 1838.82,-3710.97 1837.24,-3712.73 1835.54,-3714.45 1833.73,-3716.14 1831.81,-3717.78 1829.81,-3719.38 1827.71,-3720.93 1825.54,-3722.42 1823.3,-3723.85 1821,-3725.22 1818.64,-3726.53 1816.23,-3727.76 1813.78,-3728.93 1811.29,-3730.01 1808.77,-3731.02 1806.22,-3731.94 1803.64,-3732.78 1801.05,-3733.53 1798.44,-3734.19 1795.81,-3734.76 1793.18,-3735.24 1790.53,-3735.62 1787.88,-3735.91 1785.23,-3736.1 1782.57,-3736.2 1779.91,-3736.2 1777.25,-3736.1 1774.6,-3735.91 1771.95,-3735.62 1769.3,-3735.24 1766.67,-3734.76 1764.04,-3734.19 1761.43,-3733.53 1758.84,-3732.78 1756.27,-3731.94 1753.71,-3731.02 1751.19,-3730.01 1748.7,-3728.93 1746.25,-3727.76 1743.84,-3726.53 1741.48,-3725.22 1739.18,-3723.85 1736.94,-3722.42 1734.77,-3720.93 1732.68,-3719.38 1730.67,-3717.78 1728.76,-3716.14 1726.95,-3714.45 1725.25,-3712.73 1723.67,-3710.97 1722.22,-3709.19 1720.9,-3707.39 1719.74,-3705.56 1718.72,-3703.73 1717.88,-3701.88 1717.2,-3700.04 1716.7,-3698.2 1716.38,-3696.36 1716.26,-3694.54 1716.34,-3692.73 1716.61,-3690.95 1717.09,-3689.2 1717.79,-3687.47 1718.69,-3685.79 1719.81,-3684.14 1721.14,-3682.55 1722.68,-3681 1724.43,-3679.5 1726.39,-3678.07 1728.55,-3676.7 1730.91,-3675.39 1733.46,-3674.16 1736.19,-3673 1739.1,-3671.91 1742.17,-3670.91 1745.4,-3669.99 1748.77,-3669.15 1752.27,-3668.4 1755.89,-3667.74 1759.61,-3667.17 1763.42,-3666.69 1767.31,-3666.3 1771.25,-3666.02 1775.23,-3665.82 1779.23,-3665.73 1783.25,-3665.73 1787.25,-3665.82"/>
<text text-anchor="start" x="1752.33" y="-3710.76" font-family="Times,serif" font-size="14.00">C0011079</text>
<text text-anchor="start" x="1746.25" y="-3696.76" font-family="Times,serif" font-size="14.00">debridement</text>
<text text-anchor="start" x="1765.3" y="-3682.76" font-family="Times,serif" font-size="14.00">72:72</text>
</g>
<!-- id_28217611_DOT_14&#45;&#45;id_28217611_DOT_16 -->
<g id="edge6" class="edge">
<title>id_28217611_DOT_14&#45;&#45;id_28217611_DOT_16</title>
<path fill="none" stroke="black" d="M1813.42,-4060C1806.71,-3985.13 1791.13,-3811.3 1784.41,-3736.37"/>
<text text-anchor="middle" x="1772.67" y="-3900.99" font-family="Times,serif" font-size="14.00">0.004259</text>
</g>
<!-- id_28217611_DOT_19 -->
<g id="node19" class="node">
<title>id_28217611_DOT_19</title>
<polygon fill="darkred" stroke="darkred" points="1942.72,-4471.45 1946.15,-4471.64 1949.54,-4471.93 1952.89,-4472.31 1956.17,-4472.79 1959.37,-4473.36 1962.49,-4474.02 1965.5,-4474.77 1968.41,-4475.61 1971.19,-4476.53 1973.83,-4477.54 1976.34,-4478.62 1978.69,-4479.78 1980.89,-4481.02 1982.92,-4482.32 1984.78,-4483.69 1986.47,-4485.13 1987.98,-4486.62 1989.3,-4488.17 1990.45,-4489.77 1991.41,-4491.41 1992.19,-4493.1 1992.78,-4494.82 1993.2,-4496.57 1993.44,-4498.36 1993.5,-4500.16 1993.4,-4501.98 1993.12,-4503.82 1992.69,-4505.66 1992.11,-4507.51 1991.38,-4509.35 1990.51,-4511.19 1989.5,-4513.01 1988.37,-4514.81 1987.12,-4516.6 1985.76,-4518.35 1984.3,-4520.07 1982.74,-4521.76 1981.09,-4523.4 1979.37,-4525 1977.56,-4526.55 1975.69,-4528.04 1973.77,-4529.48 1971.78,-4530.85 1969.75,-4532.15 1967.68,-4533.39 1965.56,-4534.55 1963.42,-4535.63 1961.25,-4536.64 1959.05,-4537.56 1956.84,-4538.4 1954.6,-4539.15 1952.35,-4539.81 1950.09,-4540.38 1947.82,-4540.86 1945.55,-4541.24 1943.26,-4541.53 1940.98,-4541.72 1938.69,-4541.82 1936.4,-4541.82 1934.11,-4541.72 1931.83,-4541.53 1929.54,-4541.24 1927.27,-4540.86 1925,-4540.38 1922.74,-4539.81 1920.49,-4539.15 1918.25,-4538.4 1916.04,-4537.56 1913.84,-4536.64 1911.67,-4535.63 1909.52,-4534.55 1907.41,-4533.39 1905.34,-4532.15 1903.31,-4530.85 1901.32,-4529.48 1899.4,-4528.04 1897.53,-4526.55 1895.72,-4525 1894,-4523.4 1892.35,-4521.76 1890.79,-4520.07 1889.33,-4518.35 1887.97,-4516.6 1886.72,-4514.81 1885.59,-4513.01 1884.58,-4511.19 1883.71,-4509.35 1882.98,-4507.51 1882.39,-4505.66 1881.96,-4503.82 1881.69,-4501.98 1881.59,-4500.16 1881.65,-4498.36 1881.89,-4496.57 1882.31,-4494.82 1882.9,-4493.1 1883.68,-4491.41 1884.64,-4489.77 1885.79,-4488.17 1887.11,-4486.62 1888.62,-4485.13 1890.31,-4483.69 1892.17,-4482.32 1894.2,-4481.02 1896.4,-4479.78 1898.75,-4478.62 1901.26,-4477.54 1903.9,-4476.53 1906.68,-4475.61 1909.59,-4474.77 1912.6,-4474.02 1915.72,-4473.36 1918.92,-4472.79 1922.2,-4472.31 1925.55,-4471.93 1928.94,-4471.64 1932.37,-4471.45 1935.82,-4471.35 1939.27,-4471.35 1942.72,-4471.45"/>
<text text-anchor="start" x="1908.38" y="-4516.38" font-family="Times,serif" font-size="14.00">C0750430</text>
<text text-anchor="start" x="1916.16" y="-4502.38" font-family="Times,serif" font-size="14.00">workup</text>
<text text-anchor="start" x="1921.6" y="-4488.38" font-family="Times,serif" font-size="14.00">81:81</text>
</g>
<!-- id_28217611_DOT_14&#45;&#45;id_28217611_DOT_19 -->
<g id="edge21" class="edge">
<title>id_28217611_DOT_14&#45;&#45;id_28217611_DOT_19</title>
<path fill="none" stroke="black" stroke-dasharray="1,5" d="M1826.79,-4130.06C1849.58,-4207.51 1904.36,-4393.76 1927.24,-4471.53"/>
<text text-anchor="middle" x="1850.76" y="-4303.6" font-family="Times,serif" font-size="14.00">0.625476</text>
</g>
<!-- id_28217611_DOT_29 -->
<g id="node29" class="node">
<title>id_28217611_DOT_29</title>
<polygon fill="darkgreen" stroke="darkgreen" points="1764.07,-3279.1 1768.05,-3279.29 1771.99,-3279.58 1775.87,-3279.97 1779.68,-3280.44 1783.4,-3281.01 1787.02,-3281.68 1790.52,-3282.43 1793.9,-3283.26 1797.12,-3284.19 1800.2,-3285.19 1803.11,-3286.28 1805.84,-3287.44 1808.39,-3288.67 1810.75,-3289.98 1812.91,-3291.35 1814.87,-3292.78 1816.62,-3294.28 1818.16,-3295.82 1819.49,-3297.42 1820.61,-3299.07 1821.51,-3300.75 1822.2,-3302.47 1822.69,-3304.23 1822.96,-3306.01 1823.04,-3307.82 1822.91,-3309.64 1822.6,-3311.48 1822.1,-3313.32 1821.42,-3315.16 1820.57,-3317.01 1819.56,-3318.84 1818.39,-3320.66 1817.08,-3322.47 1815.63,-3324.25 1814.05,-3326.01 1812.35,-3327.73 1810.54,-3329.41 1808.63,-3331.06 1806.62,-3332.66 1804.53,-3334.2 1802.36,-3335.7 1800.12,-3337.13 1797.81,-3338.5 1795.45,-3339.81 1793.05,-3341.04 1790.59,-3342.2 1788.1,-3343.29 1785.58,-3344.29 1783.03,-3345.22 1780.46,-3346.05 1777.86,-3346.8 1775.25,-3347.47 1772.63,-3348.04 1769.99,-3348.51 1767.35,-3348.9 1764.7,-3349.19 1762.04,-3349.38 1759.39,-3349.48 1756.73,-3349.48 1754.07,-3349.38 1751.41,-3349.19 1748.76,-3348.9 1746.12,-3348.51 1743.48,-3348.04 1740.86,-3347.47 1738.25,-3346.8 1735.65,-3346.05 1733.08,-3345.22 1730.53,-3344.29 1728.01,-3343.29 1725.52,-3342.2 1723.07,-3341.04 1720.66,-3339.81 1718.3,-3338.5 1716,-3337.13 1713.75,-3335.7 1711.58,-3334.2 1709.49,-3332.66 1707.48,-3331.06 1705.57,-3329.41 1703.76,-3327.73 1702.06,-3326.01 1700.48,-3324.25 1699.03,-3322.47 1697.72,-3320.66 1696.55,-3318.84 1695.54,-3317.01 1694.69,-3315.16 1694.01,-3313.32 1693.51,-3311.48 1693.2,-3309.64 1693.08,-3307.82 1693.15,-3306.01 1693.43,-3304.23 1693.91,-3302.47 1694.6,-3300.75 1695.5,-3299.07 1696.62,-3297.42 1697.95,-3295.82 1699.49,-3294.28 1701.24,-3292.78 1703.2,-3291.35 1705.36,-3289.98 1707.72,-3288.67 1710.27,-3287.44 1713.01,-3286.28 1715.92,-3285.19 1718.99,-3284.19 1722.22,-3283.26 1725.59,-3282.43 1729.09,-3281.68 1732.71,-3281.01 1736.43,-3280.44 1740.24,-3279.97 1744.12,-3279.58 1748.06,-3279.29 1752.04,-3279.1 1756.05,-3279.01 1760.06,-3279.01 1764.07,-3279.1"/>
<text text-anchor="start" x="1729.14" y="-3324.04" font-family="Times,serif" font-size="14.00">C0011079</text>
<text text-anchor="start" x="1723.07" y="-3310.04" font-family="Times,serif" font-size="14.00">debridement</text>
<text text-anchor="start" x="1735.11" y="-3296.04" font-family="Times,serif" font-size="14.00">142:142</text>
</g>
<!-- id_28217611_DOT_15&#45;&#45;id_28217611_DOT_29 -->
<g id="edge22" class="edge">
<title>id_28217611_DOT_15&#45;&#45;id_28217611_DOT_29</title>
<path fill="none" stroke="black" stroke-dasharray="1,5" d="M1703.44,-2963.67C1714.87,-3037.06 1741.11,-3205.48 1752.55,-3278.92"/>
<text text-anchor="middle" x="1702" y="-3124.09" font-family="Times,serif" font-size="14.00">0.777611</text>
</g>
<!-- id_28217611_DOT_16&#45;&#45;id_28217611_DOT_29 -->
<g id="edge7" class="edge">
<title>id_28217611_DOT_16&#45;&#45;id_28217611_DOT_29</title>
<path fill="none" stroke="black" d="M1779.12,-3665.62C1774.71,-3592.06 1764.59,-3423.25 1760.18,-3349.64"/>
<text text-anchor="middle" x="1743.4" y="-3510.43" font-family="Times,serif" font-size="14.00">0.006067</text>
</g>
<!-- id_28217611_DOT_17 -->
<g id="node17" class="node">
<title>id_28217611_DOT_17</title>
<polygon fill="darkmagenta" stroke="darkmagenta" points="1100.15,-5307.27 1103.58,-5307.46 1106.97,-5307.75 1110.31,-5308.13 1113.59,-5308.61 1116.8,-5309.18 1119.92,-5309.84 1122.93,-5310.59 1125.83,-5311.43 1128.61,-5312.35 1131.26,-5313.36 1133.77,-5314.44 1136.12,-5315.6 1138.32,-5316.84 1140.35,-5318.14 1142.21,-5319.52 1143.9,-5320.95 1145.4,-5322.44 1146.73,-5323.99 1147.88,-5325.59 1148.84,-5327.23 1149.61,-5328.92 1150.21,-5330.64 1150.63,-5332.4 1150.86,-5334.18 1150.93,-5335.98 1150.82,-5337.81 1150.55,-5339.64 1150.12,-5341.48 1149.54,-5343.33 1148.81,-5345.17 1147.94,-5347.01 1146.93,-5348.83 1145.8,-5350.64 1144.55,-5352.42 1143.19,-5354.17 1141.73,-5355.9 1140.17,-5357.58 1138.52,-5359.23 1136.79,-5360.82 1134.99,-5362.37 1133.12,-5363.86 1131.19,-5365.3 1129.21,-5366.67 1127.18,-5367.97 1125.1,-5369.21 1122.99,-5370.37 1120.85,-5371.46 1118.68,-5372.46 1116.48,-5373.38 1114.26,-5374.22 1112.03,-5374.97 1109.78,-5375.63 1107.52,-5376.2 1105.25,-5376.68 1102.97,-5377.06 1100.69,-5377.35 1098.4,-5377.55 1096.12,-5377.64 1093.83,-5377.64 1091.54,-5377.55 1089.25,-5377.35 1086.97,-5377.06 1084.69,-5376.68 1082.42,-5376.2 1080.16,-5375.63 1077.91,-5374.97 1075.68,-5374.22 1073.46,-5373.38 1071.27,-5372.46 1069.1,-5371.46 1066.95,-5370.37 1064.84,-5369.21 1062.77,-5367.97 1060.73,-5366.67 1058.75,-5365.3 1056.82,-5363.86 1054.95,-5362.37 1053.15,-5360.82 1051.42,-5359.23 1049.77,-5357.58 1048.22,-5355.9 1046.75,-5354.17 1045.39,-5352.42 1044.14,-5350.64 1043.01,-5348.83 1042.01,-5347.01 1041.14,-5345.17 1040.41,-5343.33 1039.82,-5341.48 1039.39,-5339.64 1039.12,-5337.81 1039.02,-5335.98 1039.08,-5334.18 1039.32,-5332.4 1039.73,-5330.64 1040.33,-5328.92 1041.11,-5327.23 1042.07,-5325.59 1043.21,-5323.99 1044.54,-5322.44 1046.05,-5320.95 1047.73,-5319.52 1049.6,-5318.14 1051.63,-5316.84 1053.82,-5315.6 1056.18,-5314.44 1058.68,-5313.36 1061.33,-5312.35 1064.11,-5311.43 1067.01,-5310.59 1070.03,-5309.84 1073.14,-5309.18 1076.35,-5308.61 1079.63,-5308.13 1082.97,-5307.75 1086.37,-5307.46 1089.79,-5307.27 1093.24,-5307.17 1096.7,-5307.17 1100.15,-5307.27"/>
<text text-anchor="start" x="1065.8" y="-5352.21" font-family="Times,serif" font-size="14.00">C0205160</text>
<text text-anchor="start" x="1071.26" y="-5338.21" font-family="Times,serif" font-size="14.00">negative</text>
<text text-anchor="start" x="1079.03" y="-5324.21" font-family="Times,serif" font-size="14.00">78:78</text>
</g>
<!-- id_28217611_DOT_21 -->
<g id="node21" class="node">
<title>id_28217611_DOT_21</title>
<polygon fill="darkseagreen" stroke="darkseagreen" points="1464.08,-5134.22 1468.28,-5134.41 1472.45,-5134.7 1476.55,-5135.09 1480.57,-5135.56 1484.5,-5136.13 1488.32,-5136.8 1492.02,-5137.55 1495.58,-5138.38 1498.99,-5139.31 1502.24,-5140.31 1505.31,-5141.4 1508.2,-5142.56 1510.89,-5143.79 1513.38,-5145.1 1515.66,-5146.47 1517.73,-5147.9 1519.58,-5149.4 1521.21,-5150.94 1522.61,-5152.54 1523.79,-5154.19 1524.75,-5155.87 1525.48,-5157.59 1525.99,-5159.35 1526.28,-5161.13 1526.36,-5162.94 1526.23,-5164.76 1525.9,-5166.59 1525.37,-5168.44 1524.65,-5170.28 1523.76,-5172.13 1522.69,-5173.96 1521.46,-5175.78 1520.07,-5177.59 1518.54,-5179.37 1516.87,-5181.13 1515.07,-5182.85 1513.16,-5184.53 1511.14,-5186.18 1509.02,-5187.78 1506.81,-5189.32 1504.52,-5190.82 1502.15,-5192.25 1499.72,-5193.62 1497.23,-5194.93 1494.68,-5196.16 1492.09,-5197.32 1489.46,-5198.41 1486.8,-5199.41 1484.11,-5200.34 1481.39,-5201.17 1478.65,-5201.92 1475.89,-5202.59 1473.12,-5203.16 1470.34,-5203.63 1467.54,-5204.02 1464.74,-5204.31 1461.94,-5204.5 1459.13,-5204.6 1456.33,-5204.6 1453.52,-5204.5 1450.71,-5204.31 1447.92,-5204.02 1445.12,-5203.63 1442.34,-5203.16 1439.57,-5202.59 1436.81,-5201.92 1434.07,-5201.17 1431.35,-5200.34 1428.66,-5199.41 1425.99,-5198.41 1423.36,-5197.32 1420.77,-5196.16 1418.23,-5194.93 1415.74,-5193.62 1413.31,-5192.25 1410.94,-5190.82 1408.65,-5189.32 1406.44,-5187.78 1404.32,-5186.18 1402.3,-5184.53 1400.38,-5182.85 1398.59,-5181.13 1396.92,-5179.37 1395.39,-5177.59 1394,-5175.78 1392.77,-5173.96 1391.7,-5172.13 1390.81,-5170.28 1390.09,-5168.44 1389.56,-5166.59 1389.23,-5164.76 1389.1,-5162.94 1389.18,-5161.13 1389.47,-5159.35 1389.98,-5157.59 1390.71,-5155.87 1391.67,-5154.19 1392.84,-5152.54 1394.25,-5150.94 1395.88,-5149.4 1397.73,-5147.9 1399.79,-5146.47 1402.08,-5145.1 1404.57,-5143.79 1407.26,-5142.56 1410.15,-5141.4 1413.22,-5140.31 1416.47,-5139.31 1419.88,-5138.38 1423.44,-5137.55 1427.14,-5136.8 1430.96,-5136.13 1434.89,-5135.56 1438.91,-5135.09 1443.01,-5134.7 1447.17,-5134.41 1451.38,-5134.22 1455.61,-5134.12 1459.85,-5134.12 1464.08,-5134.22"/>
<text text-anchor="start" x="1428.56" y="-5179.16" font-family="Times,serif" font-size="14.00">C0442816</text>
<text text-anchor="start" x="1420.2" y="-5165.16" font-family="Times,serif" font-size="14.00">normal limits</text>
<text text-anchor="start" x="1441.78" y="-5151.16" font-family="Times,serif" font-size="14.00">87:88</text>
</g>
<!-- id_28217611_DOT_17&#45;&#45;id_28217611_DOT_21 -->
<g id="edge23" class="edge">
<title>id_28217611_DOT_17&#45;&#45;id_28217611_DOT_21</title>
<path fill="none" stroke="black" stroke-dasharray="1,5" d="M1142.77,-5319.61C1212.8,-5286.2 1342.45,-5224.35 1411.55,-5191.39"/>
<text text-anchor="middle" x="1250.91" y="-5258.3" font-family="Times,serif" font-size="14.00">0.759079</text>
</g>
<!-- id_28217611_DOT_22 -->
<g id="node22" class="node">
<title>id_28217611_DOT_22</title>
<polygon fill="aquamarine" stroke="aquamarine" points="825.23,-5567.38 832.24,-5567.57 839.18,-5567.86 846.02,-5568.24 852.73,-5568.72 859.29,-5569.29 865.66,-5569.95 871.83,-5570.7 877.77,-5571.54 883.45,-5572.46 888.87,-5573.47 893.99,-5574.55 898.8,-5575.72 903.3,-5576.95 907.45,-5578.26 911.26,-5579.63 914.71,-5581.06 917.8,-5582.55 920.51,-5584.1 922.85,-5585.7 924.82,-5587.34 926.41,-5589.03 927.63,-5590.75 928.48,-5592.51 928.96,-5594.29 929.1,-5596.09 928.88,-5597.92 928.33,-5599.75 927.45,-5601.6 926.25,-5603.44 924.76,-5605.28 922.97,-5607.12 920.92,-5608.94 918.61,-5610.75 916.05,-5612.53 913.27,-5614.28 910.28,-5616.01 907.09,-5617.69 903.72,-5619.34 900.18,-5620.93 896.5,-5622.48 892.67,-5623.98 888.73,-5625.41 884.67,-5626.78 880.51,-5628.09 876.27,-5629.32 871.95,-5630.48 867.57,-5631.57 863.12,-5632.57 858.63,-5633.49 854.1,-5634.33 849.53,-5635.08 844.93,-5635.74 840.31,-5636.31 835.66,-5636.79 831.01,-5637.18 826.34,-5637.46 821.66,-5637.66 816.98,-5637.75 812.3,-5637.75 807.62,-5637.66 802.94,-5637.46 798.27,-5637.18 793.61,-5636.79 788.97,-5636.31 784.35,-5635.74 779.75,-5635.08 775.18,-5634.33 770.64,-5633.49 766.15,-5632.57 761.71,-5631.57 757.32,-5630.48 753,-5629.32 748.76,-5628.09 744.61,-5626.78 740.55,-5625.41 736.6,-5623.98 732.78,-5622.48 729.09,-5620.93 725.56,-5619.34 722.19,-5617.69 719,-5616.01 716.01,-5614.28 713.22,-5612.53 710.67,-5610.75 708.36,-5608.94 706.3,-5607.12 704.52,-5605.28 703.02,-5603.44 701.83,-5601.6 700.95,-5599.75 700.4,-5597.92 700.18,-5596.09 700.31,-5594.29 700.8,-5592.51 701.65,-5590.75 702.87,-5589.03 704.46,-5587.34 706.42,-5585.7 708.76,-5584.1 711.48,-5582.55 714.57,-5581.06 718.02,-5579.63 721.82,-5578.26 725.98,-5576.95 730.47,-5575.72 735.29,-5574.55 740.41,-5573.47 745.82,-5572.46 751.51,-5571.54 757.45,-5570.7 763.62,-5569.95 769.99,-5569.29 776.54,-5568.72 783.25,-5568.24 790.09,-5567.86 797.03,-5567.57 804.05,-5567.38 811.1,-5567.28 818.17,-5567.28 825.23,-5567.38"/>
<text text-anchor="start" x="785.47" y="-5612.32" font-family="Times,serif" font-size="14.00">C0085652</text>
<text text-anchor="start" x="746.79" y="-5598.32" font-family="Times,serif" font-size="14.00">Pyoderma gangrenosum</text>
<text text-anchor="start" x="798.69" y="-5584.32" font-family="Times,serif" font-size="14.00">94:95</text>
</g>
<!-- id_28217611_DOT_17&#45;&#45;id_28217611_DOT_22 -->
<g id="edge24" class="edge">
<title>id_28217611_DOT_17&#45;&#45;id_28217611_DOT_22</title>
<path fill="none" stroke="black" stroke-dasharray="1,5" d="M1065.5,-5369.75C1013.91,-5417.62 907.39,-5516.46 851.19,-5568.6"/>
<text text-anchor="middle" x="932.09" y="-5471.98" font-family="Times,serif" font-size="14.00">0.947832</text>
</g>
<!-- id_28217611_DOT_18&#45;&#45;id_28217611_DOT_19 -->
<g id="edge25" class="edge">
<title>id_28217611_DOT_18&#45;&#45;id_28217611_DOT_19</title>
<path fill="none" stroke="black" stroke-dasharray="1,5" d="M2275.92,-4700.73C2197.63,-4655.81 2046.09,-4568.87 1975.48,-4528.35"/>
<text text-anchor="middle" x="2099.45" y="-4617.34" font-family="Times,serif" font-size="14.00">0.844454</text>
</g>
<!-- id_28217611_DOT_20 -->
<g id="node20" class="node">
<title>id_28217611_DOT_20</title>
<polygon fill="darksalmon" stroke="darksalmon" points="1649.62,-4769.41 1654.04,-4769.6 1658.41,-4769.89 1662.73,-4770.27 1666.96,-4770.75 1671.09,-4771.32 1675.11,-4771.98 1678.99,-4772.73 1682.74,-4773.57 1686.32,-4774.49 1689.73,-4775.5 1692.96,-4776.58 1696,-4777.74 1698.83,-4778.98 1701.45,-4780.28 1703.85,-4781.66 1706.03,-4783.09 1707.97,-4784.58 1709.68,-4786.13 1711.16,-4787.73 1712.4,-4789.37 1713.4,-4791.06 1714.17,-4792.78 1714.7,-4794.54 1715.01,-4796.32 1715.09,-4798.12 1714.96,-4799.95 1714.61,-4801.78 1714.05,-4803.62 1713.3,-4805.47 1712.36,-4807.31 1711.23,-4809.15 1709.94,-4810.97 1708.48,-4812.78 1706.87,-4814.56 1705.12,-4816.31 1703.23,-4818.04 1701.22,-4819.72 1699.1,-4821.37 1696.87,-4822.96 1694.54,-4824.51 1692.13,-4826 1689.65,-4827.44 1687.09,-4828.81 1684.47,-4830.11 1681.79,-4831.35 1679.07,-4832.51 1676.31,-4833.6 1673.51,-4834.6 1670.68,-4835.52 1667.82,-4836.36 1664.94,-4837.11 1662.04,-4837.77 1659.12,-4838.34 1656.2,-4838.82 1653.26,-4839.2 1650.32,-4839.49 1647.37,-4839.69 1644.42,-4839.78 1641.47,-4839.78 1638.52,-4839.69 1635.57,-4839.49 1632.63,-4839.2 1629.69,-4838.82 1626.76,-4838.34 1623.85,-4837.77 1620.95,-4837.11 1618.07,-4836.36 1615.21,-4835.52 1612.38,-4834.6 1609.58,-4833.6 1606.81,-4832.51 1604.09,-4831.35 1601.42,-4830.11 1598.8,-4828.81 1596.24,-4827.44 1593.75,-4826 1591.34,-4824.51 1589.02,-4822.96 1586.79,-4821.37 1584.67,-4819.72 1582.66,-4818.04 1580.77,-4816.31 1579.02,-4814.56 1577.41,-4812.78 1575.95,-4810.97 1574.65,-4809.15 1573.53,-4807.31 1572.59,-4805.47 1571.83,-4803.62 1571.28,-4801.78 1570.93,-4799.95 1570.79,-4798.12 1570.88,-4796.32 1571.18,-4794.54 1571.72,-4792.78 1572.49,-4791.06 1573.49,-4789.37 1574.73,-4787.73 1576.21,-4786.13 1577.92,-4784.58 1579.86,-4783.09 1582.04,-4781.66 1584.44,-4780.28 1587.06,-4778.98 1589.89,-4777.74 1592.92,-4776.58 1596.15,-4775.5 1599.57,-4774.49 1603.15,-4773.57 1606.89,-4772.73 1610.78,-4771.98 1614.8,-4771.32 1618.93,-4770.75 1623.16,-4770.27 1627.47,-4769.89 1631.85,-4769.6 1636.27,-4769.41 1640.71,-4769.31 1645.17,-4769.31 1649.62,-4769.41"/>
<text text-anchor="start" x="1613.77" y="-4814.35" font-family="Times,serif" font-size="14.00">C0554756</text>
<text text-anchor="start" x="1603.09" y="-4800.35" font-family="Times,serif" font-size="14.00">Doppler study</text>
<text text-anchor="start" x="1627" y="-4786.35" font-family="Times,serif" font-size="14.00">83:84</text>
</g>
<!-- id_28217611_DOT_19&#45;&#45;id_28217611_DOT_20 -->
<g id="edge26" class="edge">
<title>id_28217611_DOT_19&#45;&#45;id_28217611_DOT_20</title>
<path fill="none" stroke="black" stroke-dasharray="1,5" d="M1909.56,-4534.88C1854.7,-4590.38 1733.29,-4713.17 1675.17,-4771.95"/>
<text text-anchor="middle" x="1766.12" y="-4656.22" font-family="Times,serif" font-size="14.00">0.685144</text>
</g>
<!-- id_28217611_DOT_24 -->
<g id="node24" class="node">
<title>id_28217611_DOT_24</title>
<polygon fill="darkslategrey" stroke="darkslategrey" points="2287.48,-4357.47 2290.89,-4357.66 2294.26,-4357.95 2297.59,-4358.33 2300.86,-4358.81 2304.04,-4359.38 2307.15,-4360.04 2310.15,-4360.79 2313.03,-4361.63 2315.8,-4362.55 2318.44,-4363.56 2320.93,-4364.64 2323.27,-4365.81 2325.46,-4367.04 2327.48,-4368.35 2329.33,-4369.72 2331.01,-4371.15 2332.51,-4372.64 2333.83,-4374.19 2334.97,-4375.79 2335.93,-4377.43 2336.7,-4379.12 2337.29,-4380.84 2337.71,-4382.6 2337.94,-4384.38 2338.01,-4386.18 2337.9,-4388.01 2337.63,-4389.84 2337.2,-4391.69 2336.62,-4393.53 2335.9,-4395.37 2335.03,-4397.21 2334.03,-4399.03 2332.9,-4400.84 2331.66,-4402.62 2330.31,-4404.37 2328.85,-4406.1 2327.3,-4407.78 2325.66,-4409.43 2323.94,-4411.02 2322.15,-4412.57 2320.29,-4414.07 2318.37,-4415.5 2316.39,-4416.87 2314.37,-4418.18 2312.31,-4419.41 2310.21,-4420.57 2308.07,-4421.66 2305.91,-4422.66 2303.73,-4423.58 2301.52,-4424.42 2299.3,-4425.17 2297.06,-4425.83 2294.81,-4426.4 2292.55,-4426.88 2290.29,-4427.27 2288.01,-4427.55 2285.74,-4427.75 2283.46,-4427.84 2281.18,-4427.84 2278.91,-4427.75 2276.63,-4427.55 2274.36,-4427.27 2272.09,-4426.88 2269.84,-4426.4 2267.59,-4425.83 2265.35,-4425.17 2263.13,-4424.42 2260.92,-4423.58 2258.73,-4422.66 2256.57,-4421.66 2254.44,-4420.57 2252.34,-4419.41 2250.27,-4418.18 2248.25,-4416.87 2246.28,-4415.5 2244.36,-4414.07 2242.5,-4412.57 2240.7,-4411.02 2238.98,-4409.43 2237.35,-4407.78 2235.79,-4406.1 2234.34,-4404.37 2232.98,-4402.62 2231.74,-4400.84 2230.62,-4399.03 2229.62,-4397.21 2228.75,-4395.37 2228.02,-4393.53 2227.44,-4391.69 2227.01,-4389.84 2226.74,-4388.01 2226.64,-4386.18 2226.7,-4384.38 2226.94,-4382.6 2227.35,-4380.84 2227.95,-4379.12 2228.72,-4377.43 2229.68,-4375.79 2230.81,-4374.19 2232.14,-4372.64 2233.64,-4371.15 2235.32,-4369.72 2237.17,-4368.35 2239.19,-4367.04 2241.37,-4365.81 2243.72,-4364.64 2246.21,-4363.56 2248.84,-4362.55 2251.61,-4361.63 2254.5,-4360.79 2257.5,-4360.04 2260.6,-4359.38 2263.79,-4358.81 2267.05,-4358.33 2270.38,-4357.95 2273.76,-4357.66 2277.17,-4357.47 2280.6,-4357.37 2284.04,-4357.37 2287.48,-4357.47"/>
<text text-anchor="start" x="2253.41" y="-4402.41" font-family="Times,serif" font-size="14.00">C0184511</text>
<text text-anchor="start" x="2255.49" y="-4388.41" font-family="Times,serif" font-size="14.00">improved</text>
<text text-anchor="start" x="2259.89" y="-4374.41" font-family="Times,serif" font-size="14.00">115:115</text>
</g>
<!-- id_28217611_DOT_19&#45;&#45;id_28217611_DOT_24 -->
<g id="edge27" class="edge">
<title>id_28217611_DOT_19&#45;&#45;id_28217611_DOT_24</title>
<path fill="none" stroke="black" stroke-dasharray="1,5" d="M1990.28,-4489.15C2057.72,-4466.86 2173.37,-4428.63 2237.02,-4407.59"/>
<text text-anchor="middle" x="2087.4" y="-4451.17" font-family="Times,serif" font-size="14.00">0.767669</text>
</g>
<!-- id_28217611_DOT_20&#45;&#45;id_28217611_DOT_21 -->
<g id="edge28" class="edge">
<title>id_28217611_DOT_20&#45;&#45;id_28217611_DOT_21</title>
<path fill="none" stroke="black" stroke-dasharray="1,5" d="M1625.85,-4838.21C1590.75,-4907.36 1510.85,-5064.74 1475.32,-5134.71"/>
<text text-anchor="middle" x="1524.34" y="-4989.26" font-family="Times,serif" font-size="14.00">0.780695</text>
</g>
<!-- id_28217611_DOT_27 -->
<g id="node27" class="node">
<title>id_28217611_DOT_27</title>
<polygon fill="darkviolet" stroke="darkviolet" points="1706.79,-5471.14 1711.04,-5471.33 1715.24,-5471.62 1719.38,-5472.01 1723.44,-5472.48 1727.4,-5473.06 1731.26,-5473.72 1734.99,-5474.47 1738.59,-5475.3 1742.03,-5476.23 1745.31,-5477.23 1748.41,-5478.32 1751.32,-5479.48 1754.04,-5480.71 1756.56,-5482.02 1758.86,-5483.39 1760.95,-5484.82 1762.81,-5486.32 1764.46,-5487.86 1765.87,-5489.46 1767.06,-5491.11 1768.03,-5492.79 1768.77,-5494.52 1769.28,-5496.27 1769.57,-5498.05 1769.65,-5499.86 1769.52,-5501.68 1769.19,-5503.52 1768.66,-5505.36 1767.93,-5507.2 1767.03,-5509.05 1765.95,-5510.88 1764.71,-5512.7 1763.31,-5514.51 1761.76,-5516.29 1760.08,-5518.05 1758.26,-5519.77 1756.33,-5521.46 1754.29,-5523.1 1752.15,-5524.7 1749.92,-5526.25 1747.61,-5527.74 1745.22,-5529.17 1742.77,-5530.54 1740.25,-5531.85 1737.68,-5533.08 1735.07,-5534.24 1732.42,-5535.33 1729.73,-5536.33 1727.01,-5537.26 1724.26,-5538.09 1721.5,-5538.85 1718.71,-5539.51 1715.92,-5540.08 1713.11,-5540.55 1710.29,-5540.94 1707.46,-5541.23 1704.63,-5541.42 1701.8,-5541.52 1698.97,-5541.52 1696.13,-5541.42 1693.3,-5541.23 1690.48,-5540.94 1687.66,-5540.55 1684.85,-5540.08 1682.05,-5539.51 1679.27,-5538.85 1676.5,-5538.09 1673.76,-5537.26 1671.04,-5536.33 1668.35,-5535.33 1665.7,-5534.24 1663.08,-5533.08 1660.51,-5531.85 1658,-5530.54 1655.54,-5529.17 1653.15,-5527.74 1650.84,-5526.25 1648.61,-5524.7 1646.47,-5523.1 1644.43,-5521.46 1642.5,-5519.77 1640.69,-5518.05 1639.01,-5516.29 1637.46,-5514.51 1636.06,-5512.7 1634.82,-5510.88 1633.74,-5509.05 1632.83,-5507.2 1632.11,-5505.36 1631.58,-5503.52 1631.24,-5501.68 1631.11,-5499.86 1631.19,-5498.05 1631.48,-5496.27 1632,-5494.52 1632.74,-5492.79 1633.7,-5491.11 1634.89,-5489.46 1636.31,-5487.86 1637.95,-5486.32 1639.82,-5484.82 1641.91,-5483.39 1644.21,-5482.02 1646.72,-5480.71 1649.44,-5479.48 1652.36,-5478.32 1655.46,-5477.23 1658.74,-5476.23 1662.18,-5475.3 1665.77,-5474.47 1669.5,-5473.72 1673.36,-5473.06 1677.33,-5472.48 1681.39,-5472.01 1685.53,-5471.62 1689.73,-5471.33 1693.97,-5471.14 1698.24,-5471.05 1702.52,-5471.05 1706.79,-5471.14"/>
<text text-anchor="start" x="1671.21" y="-5516.08" font-family="Times,serif" font-size="14.00">C0015385</text>
<text text-anchor="start" x="1662.48" y="-5502.08" font-family="Times,serif" font-size="14.00">vascular limb</text>
<text text-anchor="start" x="1677.44" y="-5488.08" font-family="Times,serif" font-size="14.00">131:132</text>
</g>
<!-- id_28217611_DOT_21&#45;&#45;id_28217611_DOT_27 -->
<g id="edge29" class="edge">
<title>id_28217611_DOT_21&#45;&#45;id_28217611_DOT_27</title>
<path fill="none" stroke="black" stroke-dasharray="1,5" d="M1480.78,-5201.36C1526.68,-5265.09 1629.12,-5407.34 1676.06,-5472.5"/>
<text text-anchor="middle" x="1552.17" y="-5339.73" font-family="Times,serif" font-size="14.00">0.803746</text>
</g>
<!-- id_28217611_DOT_22&#45;&#45;id_28217611_DOT_30 -->
<g id="edge8" class="edge">
<title>id_28217611_DOT_22&#45;&#45;id_28217611_DOT_30</title>
<path fill="none" stroke="black" d="M786.26,-5636.01C740.19,-5690.39 649.57,-5797.35 602.85,-5852.5"/>
<text text-anchor="middle" x="668.31" y="-5747.05" font-family="Times,serif" font-size="14.00">0.005203</text>
</g>
</g>
</svg>
