<?xml version="1.0" encoding="UTF-8" standalone="no"?>
<!DOCTYPE svg PUBLIC "-//W3C//DTD SVG 1.1//EN"
 "http://www.w3.org/Graphics/SVG/1.1/DTD/svg11.dtd">
<!-- Generated by graphviz version 2.42.3 (20191010.1750)
 -->
<!-- Title: MST Pages: 1 -->
<svg width="3937pt" height="1653pt"
 viewBox="0.00 0.00 3936.80 1653.47" xmlns="http://www.w3.org/2000/svg" xmlns:xlink="http://www.w3.org/1999/xlink">
<g id="graph0" class="graph" transform="scale(1 1) rotate(0) translate(4 1649.47)">
<title>MST</title>
<polygon fill="white" stroke="transparent" points="-4,4 -4,-1649.47 3932.8,-1649.47 3932.8,4 -4,4"/>
<!-- id_28210819_DOT_1 -->
<g id="node1" class="node">
<title>id_28210819_DOT_1</title>
<polygon fill="aquamarine" stroke="aquamarine" points="494.47,-1431.1 501.57,-1431.3 508.6,-1431.59 515.53,-1431.97 522.33,-1432.45 528.97,-1433.02 535.42,-1433.68 541.67,-1434.43 547.69,-1435.27 553.45,-1436.19 558.93,-1437.19 564.12,-1438.28 569,-1439.44 573.55,-1440.68 577.76,-1441.98 581.62,-1443.35 585.11,-1444.79 588.24,-1446.28 590.99,-1447.83 593.36,-1449.42 595.35,-1451.07 596.96,-1452.75 598.2,-1454.48 599.06,-1456.23 599.55,-1458.01 599.68,-1459.82 599.46,-1461.64 598.9,-1463.48 598.01,-1465.32 596.8,-1467.17 595.29,-1469.01 593.48,-1470.84 591.4,-1472.67 589.06,-1474.47 586.47,-1476.25 583.65,-1478.01 580.62,-1479.73 577.39,-1481.42 573.98,-1483.06 570.39,-1484.66 566.66,-1486.21 562.79,-1487.7 558.79,-1489.13 554.68,-1490.51 550.47,-1491.81 546.17,-1493.05 541.8,-1494.21 537.35,-1495.29 532.85,-1496.3 528.3,-1497.22 523.71,-1498.06 519.08,-1498.81 514.42,-1499.47 509.74,-1500.04 505.04,-1500.52 500.32,-1500.9 495.59,-1501.19 490.85,-1501.38 486.11,-1501.48 481.36,-1501.48 476.62,-1501.38 471.88,-1501.19 467.16,-1500.9 462.44,-1500.52 457.73,-1500.04 453.05,-1499.47 448.39,-1498.81 443.76,-1498.06 439.17,-1497.22 434.62,-1496.3 430.12,-1495.29 425.68,-1494.21 421.3,-1493.05 417,-1491.81 412.79,-1490.51 408.68,-1489.13 404.69,-1487.7 400.81,-1486.21 397.08,-1484.66 393.5,-1483.06 390.08,-1481.42 386.85,-1479.73 383.82,-1478.01 381,-1476.25 378.41,-1474.47 376.07,-1472.67 373.99,-1470.84 372.18,-1469.01 370.67,-1467.17 369.46,-1465.32 368.57,-1463.48 368.01,-1461.64 367.79,-1459.82 367.92,-1458.01 368.41,-1456.23 369.28,-1454.48 370.51,-1452.75 372.12,-1451.07 374.11,-1449.42 376.49,-1447.83 379.24,-1446.28 382.36,-1444.79 385.86,-1443.35 389.71,-1441.98 393.92,-1440.68 398.47,-1439.44 403.35,-1438.28 408.54,-1437.19 414.03,-1436.19 419.79,-1435.27 425.8,-1434.43 432.05,-1433.68 438.51,-1433.02 445.15,-1432.45 451.94,-1431.97 458.87,-1431.59 465.9,-1431.3 473.01,-1431.1 480.15,-1431.01 487.32,-1431.01 494.47,-1431.1"/>
<text text-anchor="start" x="454.57" y="-1476.04" font-family="Times,serif" font-size="14.00">C0039333</text>
<text text-anchor="start" x="414.73" y="-1462.04" font-family="Times,serif" font-size="14.00">task &#45; set representations</text>
<text text-anchor="start" x="471.29" y="-1448.04" font-family="Times,serif" font-size="14.00">7:10</text>
</g>
<!-- id_28210819_DOT_15 -->
<g id="node15" class="node">
<title>id_28210819_DOT_15</title>
<polygon fill="aquamarine" stroke="aquamarine" points="725.2,-1096.42 729.19,-1096.61 733.13,-1096.9 737.03,-1097.29 740.84,-1097.76 744.57,-1098.33 748.2,-1098.99 751.71,-1099.75 755.09,-1100.58 758.32,-1101.51 761.4,-1102.51 764.32,-1103.6 767.06,-1104.76 769.61,-1105.99 771.98,-1107.3 774.14,-1108.67 776.11,-1110.1 777.86,-1111.59 779.41,-1113.14 780.74,-1114.74 781.86,-1116.38 782.76,-1118.07 783.46,-1119.79 783.94,-1121.55 784.22,-1123.33 784.29,-1125.14 784.17,-1126.96 783.85,-1128.79 783.35,-1130.64 782.67,-1132.48 781.82,-1134.32 780.81,-1136.16 779.64,-1137.98 778.32,-1139.79 776.87,-1141.57 775.29,-1143.32 773.58,-1145.05 771.77,-1146.73 769.85,-1148.38 767.84,-1149.98 765.74,-1151.52 763.57,-1153.02 761.32,-1154.45 759.02,-1155.82 756.65,-1157.13 754.24,-1158.36 751.78,-1159.52 749.28,-1160.61 746.76,-1161.61 744.2,-1162.54 741.62,-1163.37 739.02,-1164.12 736.4,-1164.78 733.77,-1165.35 731.13,-1165.83 728.48,-1166.22 725.83,-1166.5 723.17,-1166.7 720.5,-1166.79 717.84,-1166.79 715.17,-1166.7 712.51,-1166.5 709.86,-1166.22 707.21,-1165.83 704.57,-1165.35 701.94,-1164.78 699.32,-1164.12 696.72,-1163.37 694.14,-1162.54 691.58,-1161.61 689.06,-1160.61 686.56,-1159.52 684.1,-1158.36 681.69,-1157.13 679.33,-1155.82 677.02,-1154.45 674.77,-1153.02 672.6,-1151.52 670.5,-1149.98 668.49,-1148.38 666.57,-1146.73 664.76,-1145.05 663.05,-1143.32 661.47,-1141.57 660.02,-1139.79 658.7,-1137.98 657.53,-1136.16 656.52,-1134.32 655.67,-1132.48 654.99,-1130.64 654.49,-1128.79 654.17,-1126.96 654.05,-1125.14 654.12,-1123.33 654.4,-1121.55 654.88,-1119.79 655.58,-1118.07 656.48,-1116.38 657.6,-1114.74 658.93,-1113.14 660.48,-1111.59 662.23,-1110.1 664.2,-1108.67 666.36,-1107.3 668.73,-1105.99 671.28,-1104.76 674.02,-1103.6 676.94,-1102.51 680.02,-1101.51 683.25,-1100.58 686.63,-1099.75 690.14,-1098.99 693.77,-1098.33 697.5,-1097.76 701.31,-1097.29 705.21,-1096.9 709.15,-1096.61 713.14,-1096.42 717.16,-1096.32 721.18,-1096.32 725.2,-1096.42"/>
<text text-anchor="start" x="690" y="-1141.36" font-family="Times,serif" font-size="14.00">C0039333</text>
<text text-anchor="start" x="683.8" y="-1127.36" font-family="Times,serif" font-size="14.00">performance</text>
<text text-anchor="start" x="696.23" y="-1113.36" font-family="Times,serif" font-size="14.00">132:132</text>
</g>
<!-- id_28210819_DOT_1&#45;&#45;id_28210819_DOT_15 -->
<g id="edge8" class="edge">
<title>id_28210819_DOT_1&#45;&#45;id_28210819_DOT_15</title>
<path fill="none" stroke="black" stroke-dasharray="1,5" d="M508.27,-1431.37C554.2,-1366.08 652.53,-1226.3 696.78,-1163.39"/>
<text text-anchor="middle" x="576.27" y="-1300.18" font-family="Times,serif" font-size="14.00">0.853852</text>
</g>
<!-- id_28210819_DOT_2 -->
<g id="node2" class="node">
<title>id_28210819_DOT_2</title>
<polygon fill="bisque" stroke="bisque" points="3294.19,-589.15 3298.49,-589.34 3302.74,-589.63 3306.94,-590.01 3311.05,-590.49 3315.07,-591.06 3318.98,-591.72 3322.76,-592.47 3326.41,-593.31 3329.89,-594.23 3333.21,-595.24 3336.36,-596.32 3339.31,-597.48 3342.06,-598.72 3344.61,-600.02 3346.95,-601.39 3349.06,-602.83 3350.96,-604.32 3352.62,-605.87 3354.06,-607.47 3355.26,-609.11 3356.24,-610.8 3356.99,-612.52 3357.51,-614.27 3357.81,-616.06 3357.89,-617.86 3357.75,-619.68 3357.41,-621.52 3356.87,-623.36 3356.14,-625.21 3355.23,-627.05 3354.13,-628.89 3352.87,-630.71 3351.45,-632.51 3349.89,-634.3 3348.18,-636.05 3346.34,-637.77 3344.39,-639.46 3342.32,-641.1 3340.15,-642.7 3337.89,-644.25 3335.55,-645.74 3333.13,-647.18 3330.64,-648.55 3328.09,-649.85 3325.49,-651.09 3322.84,-652.25 3320.15,-653.33 3317.43,-654.34 3314.67,-655.26 3311.89,-656.1 3309.09,-656.85 3306.27,-657.51 3303.43,-658.08 3300.58,-658.56 3297.73,-658.94 3294.87,-659.23 3292,-659.42 3289.13,-659.52 3286.25,-659.52 3283.38,-659.42 3280.52,-659.23 3277.65,-658.94 3274.8,-658.56 3271.95,-658.08 3269.11,-657.51 3266.29,-656.85 3263.49,-656.1 3260.71,-655.26 3257.95,-654.34 3255.23,-653.33 3252.54,-652.25 3249.89,-651.09 3247.29,-649.85 3244.74,-648.55 3242.25,-647.18 3239.83,-645.74 3237.49,-644.25 3235.23,-642.7 3233.06,-641.1 3230.99,-639.46 3229.04,-637.77 3227.2,-636.05 3225.49,-634.3 3223.93,-632.51 3222.51,-630.71 3221.25,-628.89 3220.15,-627.05 3219.24,-625.21 3218.51,-623.36 3217.97,-621.52 3217.63,-619.68 3217.49,-617.86 3217.57,-616.06 3217.87,-614.27 3218.39,-612.52 3219.14,-610.8 3220.12,-609.11 3221.32,-607.47 3222.76,-605.87 3224.42,-604.32 3226.32,-602.83 3228.43,-601.39 3230.77,-600.02 3233.32,-598.72 3236.07,-597.48 3239.02,-596.32 3242.17,-595.24 3245.49,-594.23 3248.97,-593.31 3252.62,-592.47 3256.4,-591.72 3260.31,-591.06 3264.33,-590.49 3268.44,-590.01 3272.64,-589.63 3276.89,-589.34 3281.19,-589.15 3285.52,-589.05 3289.86,-589.05 3294.19,-589.15"/>
<text text-anchor="start" x="3258.52" y="-634.09" font-family="Times,serif" font-size="14.00">C0237614</text>
<text text-anchor="start" x="3249.15" y="-620.09" font-family="Times,serif" font-size="14.00">fadeout effect</text>
<text text-anchor="start" x="3271.75" y="-606.09" font-family="Times,serif" font-size="14.00">14:15</text>
</g>
<!-- id_28210819_DOT_7 -->
<g id="node7" class="node">
<title>id_28210819_DOT_7</title>
<polygon fill="blueviolet" stroke="blueviolet" points="3557.47,-275.81 3560.9,-276 3564.3,-276.29 3567.64,-276.68 3570.92,-277.15 3574.12,-277.73 3577.24,-278.39 3580.26,-279.14 3583.16,-279.97 3585.94,-280.9 3588.59,-281.9 3591.09,-282.99 3593.44,-284.15 3595.64,-285.38 3597.67,-286.69 3599.53,-288.06 3601.22,-289.49 3602.73,-290.99 3604.06,-292.53 3605.2,-294.13 3606.16,-295.78 3606.94,-297.46 3607.54,-299.18 3607.95,-300.94 3608.19,-302.72 3608.25,-304.53 3608.15,-306.35 3607.88,-308.19 3607.45,-310.03 3606.86,-311.87 3606.13,-313.72 3605.26,-315.55 3604.26,-317.37 3603.12,-319.18 3601.88,-320.96 3600.52,-322.72 3599.05,-324.44 3597.49,-326.13 3595.85,-327.77 3594.12,-329.37 3592.32,-330.92 3590.45,-332.41 3588.52,-333.84 3586.53,-335.21 3584.5,-336.52 3582.43,-337.75 3580.32,-338.91 3578.17,-340 3576,-341 3573.8,-341.93 3571.59,-342.76 3569.35,-343.52 3567.1,-344.18 3564.84,-344.75 3562.58,-345.22 3560.3,-345.61 3558.02,-345.9 3555.73,-346.09 3553.44,-346.19 3551.15,-346.19 3548.86,-346.09 3546.58,-345.9 3544.29,-345.61 3542.02,-345.22 3539.75,-344.75 3537.49,-344.18 3535.24,-343.52 3533.01,-342.76 3530.79,-341.93 3528.59,-341 3526.42,-340 3524.28,-338.91 3522.17,-337.75 3520.09,-336.52 3518.06,-335.21 3516.08,-333.84 3514.15,-332.41 3512.28,-330.92 3510.48,-329.37 3508.75,-327.77 3507.1,-326.13 3505.54,-324.44 3504.08,-322.72 3502.72,-320.96 3501.47,-319.18 3500.34,-317.37 3499.33,-315.55 3498.46,-313.72 3497.73,-311.87 3497.15,-310.03 3496.72,-308.19 3496.45,-306.35 3496.34,-304.53 3496.4,-302.72 3496.64,-300.94 3497.06,-299.18 3497.65,-297.46 3498.43,-295.78 3499.39,-294.13 3500.54,-292.53 3501.86,-290.99 3503.37,-289.49 3505.06,-288.06 3506.92,-286.69 3508.95,-285.38 3511.15,-284.15 3513.5,-282.99 3516.01,-281.9 3518.65,-280.9 3521.43,-279.97 3524.34,-279.14 3527.35,-278.39 3530.47,-277.73 3533.67,-277.15 3536.95,-276.68 3540.3,-276.29 3543.69,-276 3547.12,-275.81 3550.57,-275.72 3554.02,-275.72 3557.47,-275.81"/>
<text text-anchor="start" x="3523.13" y="-320.75" font-family="Times,serif" font-size="14.00">C0035168</text>
<text text-anchor="start" x="3528.98" y="-306.75" font-family="Times,serif" font-size="14.00">research</text>
<text text-anchor="start" x="3536.35" y="-292.75" font-family="Times,serif" font-size="14.00">58:58</text>
</g>
<!-- id_28210819_DOT_2&#45;&#45;id_28210819_DOT_7 -->
<g id="edge9" class="edge">
<title>id_28210819_DOT_2&#45;&#45;id_28210819_DOT_7</title>
<path fill="none" stroke="black" stroke-dasharray="1,5" d="M3315.76,-591.05C3367.63,-529.62 3477.72,-399.26 3527.24,-340.62"/>
<text text-anchor="middle" x="3395.25" y="-468.63" font-family="Times,serif" font-size="14.00">0.886154</text>
</g>
<!-- id_28210819_DOT_8 -->
<g id="node8" class="node">
<title>id_28210819_DOT_8</title>
<polygon fill="bisque" stroke="bisque" points="2890.26,-551.9 2894.56,-552.09 2898.82,-552.38 2903.01,-552.76 2907.13,-553.24 2911.15,-553.81 2915.06,-554.47 2918.84,-555.22 2922.48,-556.06 2925.97,-556.98 2929.29,-557.99 2932.43,-559.07 2935.38,-560.23 2938.14,-561.47 2940.69,-562.77 2943.02,-564.14 2945.14,-565.58 2947.03,-567.07 2948.7,-568.62 2950.13,-570.22 2951.34,-571.86 2952.31,-573.55 2953.06,-575.27 2953.58,-577.02 2953.88,-578.81 2953.96,-580.61 2953.83,-582.43 2953.49,-584.27 2952.95,-586.11 2952.22,-587.96 2951.3,-589.8 2950.21,-591.63 2948.95,-593.46 2947.53,-595.26 2945.96,-597.04 2944.26,-598.8 2942.42,-600.52 2940.46,-602.21 2938.4,-603.85 2936.23,-605.45 2933.97,-607 2931.62,-608.49 2929.2,-609.93 2926.71,-611.3 2924.17,-612.6 2921.56,-613.84 2918.92,-615 2916.23,-616.08 2913.5,-617.09 2910.75,-618.01 2907.96,-618.85 2905.16,-619.6 2902.34,-620.26 2899.51,-620.83 2896.66,-621.31 2893.8,-621.69 2890.94,-621.98 2888.07,-622.17 2885.2,-622.27 2882.33,-622.27 2879.46,-622.17 2876.59,-621.98 2873.73,-621.69 2870.87,-621.31 2868.02,-620.83 2865.19,-620.26 2862.37,-619.6 2859.56,-618.85 2856.78,-618.01 2854.03,-617.09 2851.3,-616.08 2848.61,-615 2845.97,-613.84 2843.36,-612.6 2840.82,-611.3 2838.33,-609.93 2835.91,-608.49 2833.56,-607 2831.3,-605.45 2829.13,-603.85 2827.07,-602.21 2825.11,-600.52 2823.27,-598.8 2821.57,-597.04 2820,-595.26 2818.58,-593.46 2817.32,-591.63 2816.23,-589.8 2815.31,-587.96 2814.58,-586.11 2814.04,-584.27 2813.7,-582.43 2813.57,-580.61 2813.65,-578.81 2813.95,-577.02 2814.47,-575.27 2815.22,-573.55 2816.19,-571.86 2817.4,-570.22 2818.83,-568.62 2820.5,-567.07 2822.39,-565.58 2824.51,-564.14 2826.84,-562.77 2829.39,-561.47 2832.15,-560.23 2835.1,-559.07 2838.24,-557.99 2841.56,-556.98 2845.05,-556.06 2848.69,-555.22 2852.47,-554.47 2856.38,-553.81 2860.4,-553.24 2864.52,-552.76 2868.71,-552.38 2872.97,-552.09 2877.27,-551.9 2881.6,-551.8 2885.93,-551.8 2890.26,-551.9"/>
<text text-anchor="start" x="2854.6" y="-596.83" font-family="Times,serif" font-size="14.00">C0237614</text>
<text text-anchor="start" x="2845.22" y="-582.83" font-family="Times,serif" font-size="14.00">fadeout effect</text>
<text text-anchor="start" x="2867.82" y="-568.83" font-family="Times,serif" font-size="14.00">62:63</text>
</g>
<!-- id_28210819_DOT_2&#45;&#45;id_28210819_DOT_8 -->
<g id="edge1" class="edge">
<title>id_28210819_DOT_2&#45;&#45;id_28210819_DOT_8</title>
<path fill="none" stroke="black" d="M3217.33,-617.8C3141.84,-610.83 3022.89,-599.86 2949.31,-593.08"/>
<text text-anchor="middle" x="3057.07" y="-608.24" font-family="Times,serif" font-size="14.00">0.005402</text>
</g>
<!-- id_28210819_DOT_13 -->
<g id="node13" class="node">
<title>id_28210819_DOT_13</title>
<polygon fill="chartreuse" stroke="chartreuse" points="3552.19,-892.3 3555.95,-892.5 3559.68,-892.78 3563.35,-893.17 3566.96,-893.65 3570.48,-894.22 3573.9,-894.88 3577.21,-895.63 3580.4,-896.47 3583.46,-897.39 3586.36,-898.39 3589.12,-899.48 3591.7,-900.64 3594.11,-901.87 3596.35,-903.18 3598.39,-904.55 3600.24,-905.98 3601.9,-907.48 3603.36,-909.02 3604.62,-910.62 3605.67,-912.27 3606.53,-913.95 3607.18,-915.68 3607.64,-917.43 3607.9,-919.21 3607.97,-921.02 3607.85,-922.84 3607.55,-924.68 3607.08,-926.52 3606.44,-928.36 3605.64,-930.21 3604.68,-932.04 3603.58,-933.87 3602.34,-935.67 3600.96,-937.45 3599.47,-939.21 3597.86,-940.93 3596.15,-942.62 3594.34,-944.26 3592.44,-945.86 3590.46,-947.41 3588.41,-948.9 3586.29,-950.33 3584.11,-951.7 3581.88,-953.01 3579.6,-954.24 3577.28,-955.41 3574.92,-956.49 3572.54,-957.5 3570.13,-958.42 3567.69,-959.26 3565.24,-960.01 3562.77,-960.67 3560.28,-961.24 3557.79,-961.72 3555.29,-962.1 3552.78,-962.39 3550.27,-962.58 3547.76,-962.68 3545.24,-962.68 3542.73,-962.58 3540.22,-962.39 3537.71,-962.1 3535.21,-961.72 3532.72,-961.24 3530.23,-960.67 3527.76,-960.01 3525.31,-959.26 3522.87,-958.42 3520.46,-957.5 3518.07,-956.49 3515.72,-955.41 3513.4,-954.24 3511.12,-953.01 3508.89,-951.7 3506.71,-950.33 3504.59,-948.9 3502.54,-947.41 3500.56,-945.86 3498.66,-944.26 3496.85,-942.62 3495.14,-940.93 3493.53,-939.21 3492.04,-937.45 3490.66,-935.67 3489.42,-933.87 3488.32,-932.04 3487.36,-930.21 3486.56,-928.36 3485.92,-926.52 3485.44,-924.68 3485.15,-922.84 3485.03,-921.02 3485.1,-919.21 3485.36,-917.43 3485.82,-915.68 3486.47,-913.95 3487.33,-912.27 3488.38,-910.62 3489.64,-909.02 3491.1,-907.48 3492.76,-905.98 3494.61,-904.55 3496.65,-903.18 3498.89,-901.87 3501.3,-900.64 3503.88,-899.48 3506.64,-898.39 3509.54,-897.39 3512.6,-896.47 3515.79,-895.63 3519.1,-894.88 3522.52,-894.22 3526.04,-893.65 3529.65,-893.17 3533.32,-892.78 3537.05,-892.5 3540.81,-892.3 3544.6,-892.21 3548.4,-892.21 3552.19,-892.3"/>
<text text-anchor="start" x="3517.33" y="-937.24" font-family="Times,serif" font-size="14.00">C0562357</text>
<text text-anchor="start" x="3513.84" y="-923.24" font-family="Times,serif" font-size="14.00">uninformed</text>
<text text-anchor="start" x="3524.07" y="-909.24" font-family="Times,serif" font-size="14.00">119:119</text>
</g>
<!-- id_28210819_DOT_2&#45;&#45;id_28210819_DOT_13 -->
<g id="edge10" class="edge">
<title>id_28210819_DOT_2&#45;&#45;id_28210819_DOT_13</title>
<path fill="none" stroke="black" stroke-dasharray="1,5" d="M3314.41,-655.59C3363.75,-713.38 3468.66,-836.26 3518.75,-894.94"/>
<text text-anchor="middle" x="3390.33" y="-778.06" font-family="Times,serif" font-size="14.00">0.893405</text>
</g>
<!-- id_28210819_DOT_3 -->
<g id="node3" class="node">
<title>id_28210819_DOT_3</title>
<polygon fill="blue" stroke="blue" points="90.92,-659.12 96.03,-659.31 101.08,-659.6 106.07,-659.98 110.96,-660.46 115.73,-661.03 120.38,-661.69 124.87,-662.44 129.2,-663.28 133.34,-664.2 137.28,-665.21 141.02,-666.29 144.53,-667.46 147.8,-668.69 150.83,-670 153.6,-671.37 156.12,-672.8 158.36,-674.29 160.34,-675.84 162.05,-677.44 163.48,-679.08 164.64,-680.77 165.53,-682.49 166.15,-684.25 166.5,-686.03 166.6,-687.83 166.44,-689.66 166.04,-691.49 165.39,-693.34 164.52,-695.18 163.44,-697.02 162.14,-698.86 160.64,-700.68 158.95,-702.49 157.09,-704.27 155.07,-706.02 152.88,-707.75 150.56,-709.43 148.11,-711.08 145.53,-712.67 142.84,-714.22 140.06,-715.72 137.18,-717.15 134.23,-718.52 131.2,-719.83 128.11,-721.06 124.96,-722.22 121.76,-723.31 118.53,-724.31 115.25,-725.23 111.95,-726.07 108.62,-726.82 105.27,-727.48 101.9,-728.05 98.52,-728.53 95.12,-728.92 91.72,-729.2 88.32,-729.4 84.9,-729.49 81.49,-729.49 78.08,-729.4 74.67,-729.2 71.27,-728.92 67.88,-728.53 64.5,-728.05 61.13,-727.48 57.78,-726.82 54.45,-726.07 51.14,-725.23 47.87,-724.31 44.63,-723.31 41.44,-722.22 38.29,-721.06 35.2,-719.83 32.17,-718.52 29.22,-717.15 26.34,-715.72 23.55,-714.22 20.87,-712.67 18.29,-711.08 15.84,-709.43 13.51,-707.75 11.33,-706.02 9.31,-704.27 7.44,-702.49 5.76,-700.68 4.26,-698.86 2.96,-697.02 1.87,-695.18 1,-693.34 0.36,-691.49 -0.04,-689.66 -0.2,-687.83 -0.1,-686.03 0.25,-684.25 0.87,-682.49 1.76,-680.77 2.92,-679.08 4.35,-677.44 6.06,-675.84 8.03,-674.29 10.28,-672.8 12.8,-671.37 15.57,-670 18.6,-668.69 21.87,-667.46 25.38,-666.29 29.11,-665.21 33.06,-664.2 37.2,-663.28 41.53,-662.44 46.02,-661.69 50.67,-661.03 55.44,-660.46 60.33,-659.98 65.32,-659.6 70.37,-659.31 75.48,-659.12 80.62,-659.02 85.77,-659.02 90.92,-659.12"/>
<text text-anchor="start" x="54.03" y="-704.06" font-family="Times,serif" font-size="14.00">C0392335</text>
<text text-anchor="start" x="35.96" y="-690.06" font-family="Times,serif" font-size="14.00">cognitive system</text>
<text text-anchor="start" x="67.25" y="-676.06" font-family="Times,serif" font-size="14.00">17:18</text>
</g>
<!-- id_28210819_DOT_5 -->
<g id="node5" class="node">
<title>id_28210819_DOT_5</title>
<polygon fill="blue" stroke="blue" points="428.19,-829.01 432.79,-829.2 437.34,-829.49 441.82,-829.87 446.21,-830.35 450.51,-830.92 454.69,-831.58 458.73,-832.33 462.62,-833.17 466.34,-834.09 469.89,-835.1 473.25,-836.18 476.4,-837.34 479.35,-838.58 482.07,-839.88 484.57,-841.25 486.83,-842.69 488.85,-844.18 490.63,-845.73 492.16,-847.33 493.45,-848.97 494.49,-850.66 495.29,-852.38 495.85,-854.13 496.17,-855.92 496.25,-857.72 496.11,-859.54 495.75,-861.38 495.17,-863.22 494.39,-865.07 493.41,-866.91 492.24,-868.75 490.89,-870.57 489.38,-872.37 487.7,-874.16 485.88,-875.91 483.92,-877.63 481.83,-879.32 479.62,-880.96 477.31,-882.56 474.89,-884.11 472.39,-885.6 469.8,-887.04 467.14,-888.41 464.42,-889.71 461.64,-890.95 458.81,-892.11 455.94,-893.19 453.02,-894.2 450.08,-895.12 447.11,-895.96 444.12,-896.71 441.1,-897.37 438.07,-897.94 435.03,-898.42 431.98,-898.8 428.92,-899.09 425.86,-899.28 422.79,-899.38 419.72,-899.38 416.65,-899.28 413.59,-899.09 410.53,-898.8 407.48,-898.42 404.44,-897.94 401.41,-897.37 398.39,-896.71 395.4,-895.96 392.43,-895.12 389.48,-894.2 386.57,-893.19 383.7,-892.11 380.87,-890.95 378.09,-889.71 375.37,-888.41 372.71,-887.04 370.12,-885.6 367.62,-884.11 365.2,-882.56 362.89,-880.96 360.68,-879.32 358.59,-877.63 356.63,-875.91 354.8,-874.16 353.13,-872.37 351.61,-870.57 350.27,-868.75 349.1,-866.91 348.12,-865.07 347.34,-863.22 346.76,-861.38 346.4,-859.54 346.26,-857.72 346.34,-855.92 346.66,-854.13 347.22,-852.38 348.02,-850.66 349.06,-848.97 350.35,-847.33 351.88,-845.73 353.66,-844.18 355.68,-842.69 357.94,-841.25 360.44,-839.88 363.16,-838.58 366.1,-837.34 369.26,-836.18 372.62,-835.1 376.16,-834.09 379.89,-833.17 383.78,-832.33 387.82,-831.58 392,-830.92 396.29,-830.35 400.69,-829.87 405.17,-829.49 409.72,-829.2 414.31,-829.01 418.94,-828.91 423.57,-828.91 428.19,-829.01"/>
<text text-anchor="start" x="392.09" y="-873.95" font-family="Times,serif" font-size="14.00">C0392335</text>
<text text-anchor="start" x="379.46" y="-859.95" font-family="Times,serif" font-size="14.00">cognitive tasks</text>
<text text-anchor="start" x="405.31" y="-845.95" font-family="Times,serif" font-size="14.00">29:30</text>
</g>
<!-- id_28210819_DOT_3&#45;&#45;id_28210819_DOT_5 -->
<g id="edge11" class="edge">
<title>id_28210819_DOT_3&#45;&#45;id_28210819_DOT_5</title>
<path fill="none" stroke="black" stroke-dasharray="1,5" d="M133.08,-719.33C195.62,-750.75 302.43,-804.43 366.97,-836.86"/>
<text text-anchor="middle" x="223.77" y="-780.89" font-family="Times,serif" font-size="14.00">0.834473</text>
</g>
<!-- id_28210819_DOT_4 -->
<g id="node4" class="node">
<title>id_28210819_DOT_4</title>
<polygon fill="aquamarine" stroke="aquamarine" points="1832.69,-814.85 1836.68,-815.04 1840.63,-815.33 1844.52,-815.71 1848.33,-816.19 1852.06,-816.76 1855.69,-817.42 1859.2,-818.17 1862.58,-819.01 1865.81,-819.93 1868.89,-820.94 1871.81,-822.02 1874.55,-823.18 1877.1,-824.42 1879.47,-825.72 1881.64,-827.09 1883.6,-828.53 1885.35,-830.02 1886.9,-831.57 1888.23,-833.17 1889.35,-834.81 1890.25,-836.5 1890.95,-838.22 1891.43,-839.97 1891.71,-841.76 1891.78,-843.56 1891.66,-845.38 1891.34,-847.22 1890.84,-849.06 1890.16,-850.91 1889.31,-852.75 1888.3,-854.59 1887.13,-856.41 1885.82,-858.21 1884.36,-860 1882.78,-861.75 1881.08,-863.47 1879.26,-865.16 1877.34,-866.8 1875.33,-868.4 1873.23,-869.95 1871.06,-871.44 1868.81,-872.88 1866.51,-874.25 1864.14,-875.55 1861.73,-876.79 1859.27,-877.95 1856.78,-879.03 1854.25,-880.04 1851.69,-880.96 1849.11,-881.8 1846.51,-882.55 1843.89,-883.21 1841.26,-883.78 1838.62,-884.26 1835.97,-884.64 1833.32,-884.93 1830.66,-885.12 1827.99,-885.22 1825.33,-885.22 1822.67,-885.12 1820,-884.93 1817.35,-884.64 1814.7,-884.26 1812.06,-883.78 1809.43,-883.21 1806.81,-882.55 1804.21,-881.8 1801.63,-880.96 1799.07,-880.04 1796.55,-879.03 1794.05,-877.95 1791.59,-876.79 1789.18,-875.55 1786.82,-874.25 1784.51,-872.88 1782.26,-871.44 1780.09,-869.95 1777.99,-868.4 1775.98,-866.8 1774.06,-865.16 1772.25,-863.47 1770.54,-861.75 1768.96,-860 1767.51,-858.21 1766.19,-856.41 1765.02,-854.59 1764.01,-852.75 1763.16,-850.91 1762.48,-849.06 1761.98,-847.22 1761.66,-845.38 1761.54,-843.56 1761.61,-841.76 1761.89,-839.97 1762.37,-838.22 1763.07,-836.5 1763.97,-834.81 1765.09,-833.17 1766.42,-831.57 1767.97,-830.02 1769.72,-828.53 1771.69,-827.09 1773.85,-825.72 1776.22,-824.42 1778.77,-823.18 1781.51,-822.02 1784.43,-820.94 1787.51,-819.93 1790.74,-819.01 1794.12,-818.17 1797.63,-817.42 1801.26,-816.76 1804.99,-816.19 1808.8,-815.71 1812.7,-815.33 1816.64,-815.04 1820.63,-814.85 1824.65,-814.75 1828.67,-814.75 1832.69,-814.85"/>
<text text-anchor="start" x="1797.49" y="-859.79" font-family="Times,serif" font-size="14.00">C0039333</text>
<text text-anchor="start" x="1791.29" y="-845.79" font-family="Times,serif" font-size="14.00">performance</text>
<text text-anchor="start" x="1810.72" y="-831.79" font-family="Times,serif" font-size="14.00">27:27</text>
</g>
<!-- id_28210819_DOT_6 -->
<g id="node6" class="node">
<title>id_28210819_DOT_6</title>
<polygon fill="aquamarine" stroke="aquamarine" points="1477.9,-961.54 1481.89,-961.74 1485.83,-962.02 1489.73,-962.41 1493.54,-962.89 1497.27,-963.46 1500.9,-964.12 1504.41,-964.87 1507.79,-965.71 1511.02,-966.63 1514.1,-967.63 1517.02,-968.72 1519.76,-969.88 1522.31,-971.11 1524.68,-972.42 1526.84,-973.79 1528.81,-975.22 1530.56,-976.72 1532.11,-978.26 1533.44,-979.86 1534.56,-981.51 1535.46,-983.19 1536.16,-984.92 1536.64,-986.67 1536.92,-988.45 1536.99,-990.26 1536.87,-992.08 1536.55,-993.92 1536.05,-995.76 1535.37,-997.6 1534.52,-999.45 1533.51,-1001.28 1532.34,-1003.1 1531.02,-1004.91 1529.57,-1006.69 1527.99,-1008.45 1526.28,-1010.17 1524.47,-1011.86 1522.55,-1013.5 1520.54,-1015.1 1518.44,-1016.65 1516.27,-1018.14 1514.02,-1019.57 1511.71,-1020.94 1509.35,-1022.25 1506.94,-1023.48 1504.48,-1024.64 1501.98,-1025.73 1499.46,-1026.73 1496.9,-1027.66 1494.32,-1028.49 1491.72,-1029.25 1489.1,-1029.91 1486.47,-1030.48 1483.83,-1030.95 1481.18,-1031.34 1478.53,-1031.63 1475.86,-1031.82 1473.2,-1031.92 1470.54,-1031.92 1467.87,-1031.82 1465.21,-1031.63 1462.56,-1031.34 1459.91,-1030.95 1457.27,-1030.48 1454.64,-1029.91 1452.02,-1029.25 1449.42,-1028.49 1446.84,-1027.66 1444.28,-1026.73 1441.75,-1025.73 1439.26,-1024.64 1436.8,-1023.48 1434.39,-1022.25 1432.02,-1020.94 1429.72,-1019.57 1427.47,-1018.14 1425.3,-1016.65 1423.2,-1015.1 1421.19,-1013.5 1419.27,-1011.86 1417.45,-1010.17 1415.75,-1008.45 1414.17,-1006.69 1412.71,-1004.91 1411.4,-1003.1 1410.23,-1001.28 1409.22,-999.45 1408.37,-997.6 1407.69,-995.76 1407.19,-993.92 1406.87,-992.08 1406.75,-990.26 1406.82,-988.45 1407.1,-986.67 1407.58,-984.92 1408.28,-983.19 1409.18,-981.51 1410.3,-979.86 1411.63,-978.26 1413.18,-976.72 1414.93,-975.22 1416.89,-973.79 1419.06,-972.42 1421.43,-971.11 1423.98,-969.88 1426.72,-968.72 1429.64,-967.63 1432.72,-966.63 1435.95,-965.71 1439.33,-964.87 1442.84,-964.12 1446.47,-963.46 1450.2,-962.89 1454.01,-962.41 1457.9,-962.02 1461.85,-961.74 1465.84,-961.54 1469.86,-961.45 1473.88,-961.45 1477.9,-961.54"/>
<text text-anchor="start" x="1442.7" y="-1006.48" font-family="Times,serif" font-size="14.00">C0039333</text>
<text text-anchor="start" x="1436.5" y="-992.48" font-family="Times,serif" font-size="14.00">performance</text>
<text text-anchor="start" x="1455.92" y="-978.48" font-family="Times,serif" font-size="14.00">55:55</text>
</g>
<!-- id_28210819_DOT_4&#45;&#45;id_28210819_DOT_6 -->
<g id="edge2" class="edge">
<title>id_28210819_DOT_4&#45;&#45;id_28210819_DOT_6</title>
<path fill="none" stroke="black" d="M1779.18,-869.62C1713.85,-896.63 1596.47,-945.16 1527.23,-973.79"/>
<text text-anchor="middle" x="1626.96" y="-924.5" font-family="Times,serif" font-size="14.00">0.001570</text>
</g>
<!-- id_28210819_DOT_10 -->
<g id="node10" class="node">
<title>id_28210819_DOT_10</title>
<polygon fill="aquamarine" stroke="aquamarine" points="2177.97,-639.13 2182.13,-639.32 2186.26,-639.61 2190.32,-639.99 2194.31,-640.47 2198.21,-641.04 2201.99,-641.7 2205.66,-642.45 2209.19,-643.29 2212.57,-644.21 2215.79,-645.22 2218.83,-646.3 2221.69,-647.47 2224.36,-648.7 2226.83,-650.01 2229.09,-651.38 2231.15,-652.81 2232.98,-654.3 2234.59,-655.85 2235.98,-657.45 2237.15,-659.09 2238.1,-660.78 2238.82,-662.5 2239.33,-664.26 2239.62,-666.04 2239.69,-667.84 2239.57,-669.67 2239.24,-671.5 2238.71,-673.35 2238,-675.19 2237.12,-677.03 2236.06,-678.87 2234.84,-680.69 2233.46,-682.5 2231.94,-684.28 2230.29,-686.03 2228.51,-687.76 2226.61,-689.44 2224.61,-691.09 2222.51,-692.68 2220.32,-694.23 2218.05,-695.73 2215.7,-697.16 2213.29,-698.53 2210.82,-699.84 2208.3,-701.07 2205.73,-702.23 2203.13,-703.32 2200.49,-704.32 2197.82,-705.24 2195.12,-706.08 2192.41,-706.83 2189.67,-707.49 2186.93,-708.06 2184.17,-708.54 2181.4,-708.93 2178.63,-709.21 2175.85,-709.41 2173.06,-709.5 2170.28,-709.5 2167.5,-709.41 2164.72,-709.21 2161.95,-708.93 2159.18,-708.54 2156.42,-708.06 2153.67,-707.49 2150.94,-706.83 2148.22,-706.08 2145.53,-705.24 2142.86,-704.32 2140.22,-703.32 2137.61,-702.23 2135.04,-701.07 2132.52,-699.84 2130.05,-698.53 2127.64,-697.16 2125.3,-695.73 2123.03,-694.23 2120.83,-692.68 2118.73,-691.09 2116.73,-689.44 2114.84,-687.76 2113.06,-686.03 2111.4,-684.28 2109.88,-682.5 2108.51,-680.69 2107.29,-678.87 2106.23,-677.03 2105.34,-675.19 2104.63,-673.35 2104.11,-671.5 2103.78,-669.67 2103.65,-667.84 2103.73,-666.04 2104.02,-664.26 2104.52,-662.5 2105.25,-660.78 2106.19,-659.09 2107.36,-657.45 2108.75,-655.85 2110.37,-654.3 2112.2,-652.81 2114.25,-651.38 2116.51,-650.01 2118.98,-648.7 2121.65,-647.47 2124.51,-646.3 2127.56,-645.22 2130.78,-644.21 2134.16,-643.29 2137.68,-642.45 2141.35,-641.7 2145.14,-641.04 2149.03,-640.47 2153.02,-639.99 2157.09,-639.61 2161.21,-639.32 2165.38,-639.13 2169.57,-639.03 2173.77,-639.03 2177.97,-639.13"/>
<text text-anchor="start" x="2142.5" y="-684.07" font-family="Times,serif" font-size="14.00">C0039333</text>
<text text-anchor="start" x="2134.35" y="-670.07" font-family="Times,serif" font-size="14.00">improvement</text>
<text text-anchor="start" x="2155.73" y="-656.07" font-family="Times,serif" font-size="14.00">67:67</text>
</g>
<!-- id_28210819_DOT_4&#45;&#45;id_28210819_DOT_10 -->
<g id="edge12" class="edge">
<title>id_28210819_DOT_4&#45;&#45;id_28210819_DOT_10</title>
<path fill="none" stroke="black" stroke-dasharray="1,5" d="M1877.2,-824.25C1944.58,-789.93 2062.79,-729.72 2127.04,-697"/>
<text text-anchor="middle" x="1975.87" y="-763.42" font-family="Times,serif" font-size="14.00">0.835842</text>
</g>
<!-- id_28210819_DOT_5&#45;&#45;id_28210819_DOT_15 -->
<g id="edge13" class="edge">
<title>id_28210819_DOT_5&#45;&#45;id_28210819_DOT_15</title>
<path fill="none" stroke="black" stroke-dasharray="1,5" d="M454.27,-893.78C510.93,-944.64 626.16,-1048.07 684.16,-1100.13"/>
<text text-anchor="middle" x="542.97" y="-999.76" font-family="Times,serif" font-size="14.00">0.762752</text>
</g>
<!-- id_28210819_DOT_9 -->
<g id="node9" class="node">
<title>id_28210819_DOT_9</title>
<polygon fill="aquamarine" stroke="aquamarine" points="1133.72,-1163.07 1137.71,-1163.27 1141.65,-1163.56 1145.55,-1163.94 1149.36,-1164.42 1153.09,-1164.99 1156.72,-1165.65 1160.23,-1166.4 1163.61,-1167.24 1166.84,-1168.16 1169.92,-1169.16 1172.84,-1170.25 1175.58,-1171.41 1178.13,-1172.64 1180.5,-1173.95 1182.66,-1175.32 1184.63,-1176.76 1186.38,-1178.25 1187.93,-1179.8 1189.26,-1181.39 1190.38,-1183.04 1191.28,-1184.72 1191.98,-1186.45 1192.46,-1188.2 1192.74,-1189.98 1192.81,-1191.79 1192.69,-1193.61 1192.37,-1195.45 1191.87,-1197.29 1191.19,-1199.14 1190.34,-1200.98 1189.33,-1202.81 1188.16,-1204.64 1186.84,-1206.44 1185.39,-1208.22 1183.81,-1209.98 1182.1,-1211.7 1180.29,-1213.39 1178.37,-1215.03 1176.36,-1216.63 1174.26,-1218.18 1172.09,-1219.67 1169.84,-1221.1 1167.53,-1222.48 1165.17,-1223.78 1162.76,-1225.01 1160.3,-1226.18 1157.8,-1227.26 1155.28,-1228.27 1152.72,-1229.19 1150.14,-1230.03 1147.54,-1230.78 1144.92,-1231.44 1142.29,-1232.01 1139.65,-1232.49 1137,-1232.87 1134.35,-1233.16 1131.69,-1233.35 1129.02,-1233.45 1126.36,-1233.45 1123.69,-1233.35 1121.03,-1233.16 1118.38,-1232.87 1115.73,-1232.49 1113.09,-1232.01 1110.46,-1231.44 1107.84,-1230.78 1105.24,-1230.03 1102.66,-1229.19 1100.1,-1228.27 1097.58,-1227.26 1095.08,-1226.18 1092.62,-1225.01 1090.21,-1223.78 1087.84,-1222.48 1085.54,-1221.1 1083.29,-1219.67 1081.12,-1218.18 1079.02,-1216.63 1077.01,-1215.03 1075.09,-1213.39 1073.27,-1211.7 1071.57,-1209.98 1069.99,-1208.22 1068.54,-1206.44 1067.22,-1204.64 1066.05,-1202.81 1065.04,-1200.98 1064.19,-1199.14 1063.51,-1197.29 1063.01,-1195.45 1062.69,-1193.61 1062.57,-1191.79 1062.64,-1189.98 1062.92,-1188.2 1063.4,-1186.45 1064.1,-1184.72 1065,-1183.04 1066.12,-1181.39 1067.45,-1179.8 1069,-1178.25 1070.75,-1176.76 1072.72,-1175.32 1074.88,-1173.95 1077.25,-1172.64 1079.8,-1171.41 1082.54,-1170.25 1085.46,-1169.16 1088.54,-1168.16 1091.77,-1167.24 1095.15,-1166.4 1098.66,-1165.65 1102.29,-1164.99 1106.02,-1164.42 1109.83,-1163.94 1113.73,-1163.56 1117.67,-1163.27 1121.66,-1163.07 1125.68,-1162.98 1129.7,-1162.98 1133.72,-1163.07"/>
<text text-anchor="start" x="1098.52" y="-1208.01" font-family="Times,serif" font-size="14.00">C0039333</text>
<text text-anchor="start" x="1092.32" y="-1194.01" font-family="Times,serif" font-size="14.00">performance</text>
<text text-anchor="start" x="1111.74" y="-1180.01" font-family="Times,serif" font-size="14.00">66:66</text>
</g>
<!-- id_28210819_DOT_6&#45;&#45;id_28210819_DOT_9 -->
<g id="edge3" class="edge">
<title>id_28210819_DOT_6&#45;&#45;id_28210819_DOT_9</title>
<path fill="none" stroke="black" d="M1431.04,-1020.59C1366.75,-1058.23 1242.32,-1131.09 1174.51,-1170.8"/>
<text text-anchor="middle" x="1276.52" y="-1098.49" font-family="Times,serif" font-size="14.00">0.001970</text>
</g>
<!-- id_28210819_DOT_14 -->
<g id="node14" class="node">
<title>id_28210819_DOT_14</title>
<polygon fill="bisque" stroke="bisque" points="2505.48,-387.72 2509.79,-387.91 2514.04,-388.2 2518.24,-388.58 2522.35,-389.06 2526.37,-389.63 2530.28,-390.29 2534.06,-391.04 2537.71,-391.88 2541.19,-392.8 2544.51,-393.81 2547.66,-394.89 2550.61,-396.05 2553.36,-397.29 2555.91,-398.59 2558.25,-399.96 2560.36,-401.4 2562.26,-402.89 2563.92,-404.44 2565.36,-406.04 2566.56,-407.68 2567.54,-409.37 2568.29,-411.09 2568.81,-412.84 2569.11,-414.63 2569.19,-416.43 2569.05,-418.25 2568.71,-420.09 2568.17,-421.93 2567.44,-423.78 2566.52,-425.62 2565.43,-427.46 2564.17,-429.28 2562.75,-431.08 2561.19,-432.87 2559.48,-434.62 2557.64,-436.34 2555.69,-438.03 2553.62,-439.67 2551.45,-441.27 2549.19,-442.82 2546.85,-444.31 2544.43,-445.75 2541.94,-447.12 2539.39,-448.42 2536.79,-449.66 2534.14,-450.82 2531.45,-451.9 2528.73,-452.91 2525.97,-453.83 2523.19,-454.67 2520.39,-455.42 2517.57,-456.08 2514.73,-456.65 2511.88,-457.13 2509.03,-457.51 2506.16,-457.8 2503.3,-457.99 2500.43,-458.09 2497.55,-458.09 2494.68,-457.99 2491.81,-457.8 2488.95,-457.51 2486.09,-457.13 2483.25,-456.65 2480.41,-456.08 2477.59,-455.42 2474.79,-454.67 2472.01,-453.83 2469.25,-452.91 2466.53,-451.9 2463.84,-450.82 2461.19,-449.66 2458.59,-448.42 2456.04,-447.12 2453.55,-445.75 2451.13,-444.31 2448.79,-442.82 2446.53,-441.27 2444.36,-439.67 2442.29,-438.03 2440.33,-436.34 2438.5,-434.62 2436.79,-432.87 2435.23,-431.08 2433.81,-429.28 2432.55,-427.46 2431.45,-425.62 2430.54,-423.78 2429.8,-421.93 2429.27,-420.09 2428.93,-418.25 2428.79,-416.43 2428.87,-414.63 2429.17,-412.84 2429.69,-411.09 2430.44,-409.37 2431.42,-407.68 2432.62,-406.04 2434.06,-404.44 2435.72,-402.89 2437.62,-401.4 2439.73,-399.96 2442.07,-398.59 2444.61,-397.29 2447.37,-396.05 2450.32,-394.89 2453.47,-393.81 2456.79,-392.8 2460.27,-391.88 2463.91,-391.04 2467.7,-390.29 2471.61,-389.63 2475.63,-389.06 2479.74,-388.58 2483.94,-388.2 2488.19,-387.91 2492.49,-387.72 2496.82,-387.62 2501.16,-387.62 2505.48,-387.72"/>
<text text-anchor="start" x="2469.82" y="-432.65" font-family="Times,serif" font-size="14.00">C0237614</text>
<text text-anchor="start" x="2460.44" y="-418.65" font-family="Times,serif" font-size="14.00">fadeout effect</text>
<text text-anchor="start" x="2476.04" y="-404.65" font-family="Times,serif" font-size="14.00">127:128</text>
</g>
<!-- id_28210819_DOT_8&#45;&#45;id_28210819_DOT_14 -->
<g id="edge4" class="edge">
<title>id_28210819_DOT_8&#45;&#45;id_28210819_DOT_14</title>
<path fill="none" stroke="black" d="M2826.58,-562.63C2751,-530.39 2619.14,-474.12 2547.94,-443.74"/>
<text text-anchor="middle" x="2661.01" y="-505.99" font-family="Times,serif" font-size="14.00">0.012005</text>
</g>
<!-- id_28210819_DOT_12 -->
<g id="node12" class="node">
<title>id_28210819_DOT_12</title>
<polygon fill="cadetblue" stroke="cadetblue" points="1188.44,-1574.96 1192.21,-1575.15 1195.94,-1575.44 1199.61,-1575.82 1203.21,-1576.3 1206.73,-1576.87 1210.15,-1577.53 1213.46,-1578.28 1216.65,-1579.12 1219.71,-1580.04 1222.61,-1581.05 1225.36,-1582.13 1227.95,-1583.3 1230.36,-1584.53 1232.59,-1585.84 1234.64,-1587.21 1236.49,-1588.64 1238.15,-1590.13 1239.6,-1591.68 1240.86,-1593.28 1241.92,-1594.92 1242.77,-1596.61 1243.43,-1598.33 1243.88,-1600.09 1244.14,-1601.87 1244.21,-1603.67 1244.1,-1605.5 1243.8,-1607.33 1243.33,-1609.18 1242.69,-1611.02 1241.88,-1612.86 1240.93,-1614.7 1239.82,-1616.52 1238.58,-1618.33 1237.21,-1620.11 1235.72,-1621.86 1234.11,-1623.59 1232.4,-1625.27 1230.59,-1626.92 1228.69,-1628.52 1226.71,-1630.06 1224.66,-1631.56 1222.54,-1632.99 1220.36,-1634.36 1218.13,-1635.67 1215.85,-1636.9 1213.53,-1638.06 1211.18,-1639.15 1208.79,-1640.15 1206.38,-1641.07 1203.94,-1641.91 1201.49,-1642.66 1199.02,-1643.32 1196.54,-1643.89 1194.05,-1644.37 1191.54,-1644.76 1189.04,-1645.04 1186.53,-1645.24 1184.01,-1645.33 1181.5,-1645.33 1178.99,-1645.24 1176.47,-1645.04 1173.97,-1644.76 1171.47,-1644.37 1168.97,-1643.89 1166.49,-1643.32 1164.02,-1642.66 1161.57,-1641.91 1159.13,-1641.07 1156.72,-1640.15 1154.34,-1639.15 1151.98,-1638.06 1149.66,-1636.9 1147.38,-1635.67 1145.15,-1634.36 1142.97,-1632.99 1140.86,-1631.56 1138.8,-1630.06 1136.82,-1628.52 1134.92,-1626.92 1133.12,-1625.27 1131.4,-1623.59 1129.8,-1621.86 1128.3,-1620.11 1126.93,-1618.33 1125.69,-1616.52 1124.58,-1614.7 1123.63,-1612.86 1122.82,-1611.02 1122.18,-1609.18 1121.71,-1607.33 1121.41,-1605.5 1121.3,-1603.67 1121.37,-1601.87 1121.63,-1600.09 1122.09,-1598.33 1122.74,-1596.61 1123.59,-1594.92 1124.65,-1593.28 1125.91,-1591.68 1127.37,-1590.13 1129.02,-1588.64 1130.87,-1587.21 1132.92,-1585.84 1135.15,-1584.53 1137.56,-1583.3 1140.15,-1582.13 1142.9,-1581.05 1145.81,-1580.04 1148.86,-1579.12 1152.05,-1578.28 1155.36,-1577.53 1158.78,-1576.87 1162.3,-1576.3 1165.91,-1575.82 1169.58,-1575.44 1173.3,-1575.15 1177.07,-1574.96 1180.86,-1574.86 1184.65,-1574.86 1188.44,-1574.96"/>
<text text-anchor="start" x="1153.59" y="-1619.9" font-family="Times,serif" font-size="14.00">C0679646</text>
<text text-anchor="start" x="1150.1" y="-1605.9" font-family="Times,serif" font-size="14.00">participants</text>
<text text-anchor="start" x="1160.32" y="-1591.9" font-family="Times,serif" font-size="14.00">115:115</text>
</g>
<!-- id_28210819_DOT_9&#45;&#45;id_28210819_DOT_12 -->
<g id="edge14" class="edge">
<title>id_28210819_DOT_9&#45;&#45;id_28210819_DOT_12</title>
<path fill="none" stroke="black" stroke-dasharray="1,5" d="M1132.38,-1233.33C1142.78,-1311.05 1167.62,-1496.87 1178.03,-1574.78"/>
<text text-anchor="middle" x="1128.96" y="-1406.85" font-family="Times,serif" font-size="14.00">0.901261</text>
</g>
<!-- id_28210819_DOT_9&#45;&#45;id_28210819_DOT_15 -->
<g id="edge5" class="edge">
<title>id_28210819_DOT_9&#45;&#45;id_28210819_DOT_15</title>
<path fill="none" stroke="black" d="M1062.96,-1187.65C984.33,-1174.82 852.85,-1153.37 777.32,-1141.05"/>
<text text-anchor="middle" x="894.14" y="-1167.15" font-family="Times,serif" font-size="14.00">0.011027</text>
</g>
<!-- id_28210819_DOT_10&#45;&#45;id_28210819_DOT_14 -->
<g id="edge15" class="edge">
<title>id_28210819_DOT_10&#45;&#45;id_28210819_DOT_14</title>
<path fill="none" stroke="black" stroke-dasharray="1,5" d="M2211.48,-643.69C2275.71,-594.36 2401.23,-497.94 2462.96,-450.53"/>
<text text-anchor="middle" x="2310.97" y="-549.91" font-family="Times,serif" font-size="14.00">0.900153</text>
</g>
<!-- id_28210819_DOT_11 -->
<g id="node11" class="node">
<title>id_28210819_DOT_11</title>
<polygon fill="brown" stroke="brown" points="2303.84,-27.8 2307.27,-27.99 2310.66,-28.28 2314,-28.67 2317.28,-29.14 2320.49,-29.71 2323.6,-30.37 2326.62,-31.12 2329.52,-31.96 2332.3,-32.89 2334.95,-33.89 2337.45,-34.98 2339.81,-36.14 2342,-37.37 2344.04,-38.68 2345.9,-40.05 2347.58,-41.48 2349.09,-42.97 2350.42,-44.52 2351.56,-46.12 2352.53,-47.76 2353.3,-49.45 2353.9,-51.17 2354.31,-52.93 2354.55,-54.71 2354.62,-56.52 2354.51,-58.34 2354.24,-60.17 2353.81,-62.02 2353.23,-63.86 2352.5,-65.7 2351.62,-67.54 2350.62,-69.36 2349.49,-71.17 2348.24,-72.95 2346.88,-74.7 2345.42,-76.43 2343.86,-78.11 2342.21,-79.76 2340.48,-81.36 2338.68,-82.9 2336.81,-84.4 2334.88,-85.83 2332.9,-87.2 2330.87,-88.51 2328.79,-89.74 2326.68,-90.9 2324.54,-91.99 2322.36,-92.99 2320.17,-93.91 2317.95,-94.75 2315.72,-95.5 2313.47,-96.16 2311.21,-96.73 2308.94,-97.21 2306.66,-97.6 2304.38,-97.88 2302.09,-98.08 2299.81,-98.17 2297.52,-98.17 2295.23,-98.08 2292.94,-97.88 2290.66,-97.6 2288.38,-97.21 2286.11,-96.73 2283.85,-96.16 2281.6,-95.5 2279.37,-94.75 2277.15,-93.91 2274.96,-92.99 2272.78,-91.99 2270.64,-90.9 2268.53,-89.74 2266.46,-88.51 2264.42,-87.2 2262.44,-85.83 2260.51,-84.4 2258.64,-82.9 2256.84,-81.36 2255.11,-79.76 2253.46,-78.11 2251.9,-76.43 2250.44,-74.7 2249.08,-72.95 2247.83,-71.17 2246.7,-69.36 2245.7,-67.54 2244.83,-65.7 2244.09,-63.86 2243.51,-62.02 2243.08,-60.17 2242.81,-58.34 2242.7,-56.52 2242.77,-54.71 2243.01,-52.93 2243.42,-51.17 2244.02,-49.45 2244.8,-47.76 2245.76,-46.12 2246.9,-44.52 2248.23,-42.97 2249.74,-41.48 2251.42,-40.05 2253.28,-38.68 2255.32,-37.37 2257.51,-36.14 2259.87,-34.98 2262.37,-33.89 2265.02,-32.89 2267.8,-31.96 2270.7,-31.12 2273.72,-30.37 2276.83,-29.71 2280.04,-29.14 2283.32,-28.67 2286.66,-28.28 2290.05,-27.99 2293.48,-27.8 2296.93,-27.7 2300.39,-27.7 2303.84,-27.8"/>
<text text-anchor="start" x="2269.49" y="-72.74" font-family="Times,serif" font-size="14.00">C0023185</text>
<text text-anchor="start" x="2275.73" y="-58.74" font-family="Times,serif" font-size="14.00">learning</text>
<text text-anchor="start" x="2282.72" y="-44.74" font-family="Times,serif" font-size="14.00">87:87</text>
</g>
<!-- id_28210819_DOT_11&#45;&#45;id_28210819_DOT_14 -->
<g id="edge16" class="edge">
<title>id_28210819_DOT_11&#45;&#45;id_28210819_DOT_14</title>
<path fill="none" stroke="black" stroke-dasharray="1,5" d="M2316.79,-95.51C2354.55,-163.35 2441.29,-319.19 2479.88,-388.52"/>
<text text-anchor="middle" x="2372.08" y="-244.82" font-family="Times,serif" font-size="14.00">0.765503</text>
</g>
<!-- id_28210819_DOT_16 -->
<g id="node16" class="node">
<title>id_28210819_DOT_16</title>
<polygon fill="chartreuse" stroke="chartreuse" points="3873.25,-1089.68 3877.02,-1089.87 3880.74,-1090.16 3884.42,-1090.55 3888.02,-1091.02 3891.54,-1091.59 3894.96,-1092.25 3898.28,-1093 3901.47,-1093.84 3904.52,-1094.77 3907.43,-1095.77 3910.18,-1096.85 3912.76,-1098.02 3915.18,-1099.25 3917.41,-1100.56 3919.45,-1101.93 3921.31,-1103.36 3922.96,-1104.85 3924.42,-1106.4 3925.68,-1108 3926.73,-1109.64 3927.59,-1111.33 3928.24,-1113.05 3928.7,-1114.81 3928.96,-1116.59 3929.03,-1118.4 3928.92,-1120.22 3928.62,-1122.05 3928.15,-1123.9 3927.5,-1125.74 3926.7,-1127.58 3925.74,-1129.42 3924.64,-1131.24 3923.4,-1133.05 3922.03,-1134.83 3920.53,-1136.58 3918.92,-1138.31 3917.21,-1139.99 3915.4,-1141.64 3913.5,-1143.24 3911.52,-1144.78 3909.47,-1146.28 3907.35,-1147.71 3905.17,-1149.08 3902.94,-1150.39 3900.66,-1151.62 3898.34,-1152.78 3895.99,-1153.87 3893.6,-1154.87 3891.19,-1155.79 3888.75,-1156.63 3886.3,-1157.38 3883.83,-1158.04 3881.35,-1158.61 3878.85,-1159.09 3876.35,-1159.48 3873.85,-1159.76 3871.33,-1159.96 3868.82,-1160.05 3866.31,-1160.05 3863.79,-1159.96 3861.28,-1159.76 3858.77,-1159.48 3856.27,-1159.09 3853.78,-1158.61 3851.3,-1158.04 3848.83,-1157.38 3846.37,-1156.63 3843.94,-1155.79 3841.52,-1154.87 3839.14,-1153.87 3836.78,-1152.78 3834.46,-1151.62 3832.19,-1150.39 3829.95,-1149.08 3827.77,-1147.71 3825.66,-1146.28 3823.6,-1144.78 3821.62,-1143.24 3819.72,-1141.64 3817.91,-1139.99 3816.2,-1138.31 3814.59,-1136.58 3813.1,-1134.83 3811.73,-1133.05 3810.49,-1131.24 3809.38,-1129.42 3808.42,-1127.58 3807.62,-1125.74 3806.98,-1123.9 3806.51,-1122.05 3806.21,-1120.22 3806.09,-1118.4 3806.16,-1116.59 3806.43,-1114.81 3806.88,-1113.05 3807.54,-1111.33 3808.39,-1109.64 3809.45,-1108 3810.7,-1106.4 3812.16,-1104.85 3813.82,-1103.36 3815.67,-1101.93 3817.72,-1100.56 3819.95,-1099.25 3822.36,-1098.02 3824.95,-1096.85 3827.7,-1095.77 3830.61,-1094.77 3833.66,-1093.84 3836.85,-1093 3840.16,-1092.25 3843.58,-1091.59 3847.11,-1091.02 3850.71,-1090.55 3854.38,-1090.16 3858.11,-1089.87 3861.87,-1089.68 3865.66,-1089.58 3869.46,-1089.58 3873.25,-1089.68"/>
<text text-anchor="start" x="3838.39" y="-1134.62" font-family="Times,serif" font-size="14.00">C0562357</text>
<text text-anchor="start" x="3834.9" y="-1120.62" font-family="Times,serif" font-size="14.00">uninformed</text>
<text text-anchor="start" x="3844.62" y="-1106.62" font-family="Times,serif" font-size="14.00">137:137</text>
</g>
<!-- id_28210819_DOT_13&#45;&#45;id_28210819_DOT_16 -->
<g id="edge6" class="edge">
<title>id_28210819_DOT_13&#45;&#45;id_28210819_DOT_16</title>
<path fill="none" stroke="black" d="M3585.23,-951.25C3645.1,-988.06 3759.82,-1058.58 3823.04,-1097.44"/>
<text text-anchor="middle" x="3678.14" y="-1027.15" font-family="Times,serif" font-size="14.00">0.002411</text>
</g>
<!-- id_28210819_DOT_17 -->
<g id="node17" class="node">
<title>id_28210819_DOT_17</title>
<polygon fill="bisque" stroke="bisque" points="2630.75,-0.23 2634.18,-0.42 2637.57,-0.71 2640.91,-1.09 2644.19,-1.57 2647.4,-2.14 2650.51,-2.8 2653.53,-3.55 2656.43,-4.39 2659.21,-5.31 2661.86,-6.32 2664.36,-7.4 2666.72,-8.57 2668.91,-9.8 2670.94,-11.1 2672.81,-12.48 2674.49,-13.91 2676,-15.4 2677.33,-16.95 2678.47,-18.55 2679.43,-20.19 2680.21,-21.88 2680.81,-23.6 2681.22,-25.36 2681.46,-27.14 2681.53,-28.94 2681.42,-30.77 2681.15,-32.6 2680.72,-34.44 2680.14,-36.29 2679.4,-38.13 2678.53,-39.97 2677.53,-41.79 2676.4,-43.6 2675.15,-45.38 2673.79,-47.13 2672.32,-48.86 2670.77,-50.54 2669.12,-52.19 2667.39,-53.78 2665.59,-55.33 2663.72,-56.82 2661.79,-58.26 2659.81,-59.63 2657.77,-60.94 2655.7,-62.17 2653.59,-63.33 2651.44,-64.42 2649.27,-65.42 2647.08,-66.34 2644.86,-67.18 2642.63,-67.93 2640.38,-68.59 2638.12,-69.16 2635.85,-69.64 2633.57,-70.02 2631.29,-70.31 2629,-70.51 2626.71,-70.6 2624.42,-70.6 2622.14,-70.51 2619.85,-70.31 2617.57,-70.02 2615.29,-69.64 2613.02,-69.16 2610.76,-68.59 2608.51,-67.93 2606.28,-67.18 2604.06,-66.34 2601.87,-65.42 2599.69,-64.42 2597.55,-63.33 2595.44,-62.17 2593.36,-60.94 2591.33,-59.63 2589.35,-58.26 2587.42,-56.82 2585.55,-55.33 2583.75,-53.78 2582.02,-52.19 2580.37,-50.54 2578.81,-48.86 2577.35,-47.13 2575.99,-45.38 2574.74,-43.6 2573.61,-41.79 2572.61,-39.97 2571.73,-38.13 2571,-36.29 2570.42,-34.44 2569.99,-32.6 2569.72,-30.77 2569.61,-28.94 2569.68,-27.14 2569.91,-25.36 2570.33,-23.6 2570.93,-21.88 2571.7,-20.19 2572.67,-18.55 2573.81,-16.95 2575.14,-15.4 2576.65,-13.91 2578.33,-12.48 2580.19,-11.1 2582.23,-9.8 2584.42,-8.57 2586.78,-7.4 2589.28,-6.32 2591.93,-5.31 2594.71,-4.39 2597.61,-3.55 2600.63,-2.8 2603.74,-2.14 2606.95,-1.57 2610.23,-1.09 2613.57,-0.71 2616.96,-0.42 2620.39,-0.23 2623.84,-0.13 2627.3,-0.13 2630.75,-0.23"/>
<text text-anchor="start" x="2596.4" y="-45.17" font-family="Times,serif" font-size="14.00">C0237614</text>
<text text-anchor="start" x="2604.58" y="-31.17" font-family="Times,serif" font-size="14.00">fadeout</text>
<text text-anchor="start" x="2602.62" y="-17.17" font-family="Times,serif" font-size="14.00">138:138</text>
</g>
<!-- id_28210819_DOT_14&#45;&#45;id_28210819_DOT_17 -->
<g id="edge7" class="edge">
<title>id_28210819_DOT_14&#45;&#45;id_28210819_DOT_17</title>
<path fill="none" stroke="black" d="M2510.45,-387.78C2534.61,-313.82 2590.51,-142.68 2614.41,-69.52"/>
<text text-anchor="middle" x="2536.18" y="-231.45" font-family="Times,serif" font-size="14.00">0.043355</text>
</g>
</g>
</svg>
