<?xml version="1.0" encoding="UTF-8" standalone="no"?>
<!DOCTYPE svg PUBLIC "-//W3C//DTD SVG 1.1//EN"
 "http://www.w3.org/Graphics/SVG/1.1/DTD/svg11.dtd">
<!-- Generated by graphviz version 2.42.3 (20191010.1750)
 -->
<!-- Title: MST Pages: 1 -->
<svg width="3622pt" height="2560pt"
 viewBox="0.00 0.00 3621.58 2560.14" xmlns="http://www.w3.org/2000/svg" xmlns:xlink="http://www.w3.org/1999/xlink">
<g id="graph0" class="graph" transform="scale(1 1) rotate(0) translate(4 2556.14)">
<title>MST</title>
<polygon fill="white" stroke="transparent" points="-4,4 -4,-2556.14 3617.58,-2556.14 3617.58,4 -4,4"/>
<!-- id_28243780_DOT_1 -->
<g id="node1" class="node">
<title>id_28243780_DOT_1</title>
<polygon fill="aquamarine" stroke="aquamarine" points="3254.22,-663.92 3257.65,-664.11 3261.04,-664.4 3264.39,-664.79 3267.67,-665.26 3270.87,-665.83 3273.99,-666.5 3277,-667.25 3279.91,-668.08 3282.69,-669.01 3285.33,-670.01 3287.84,-671.1 3290.19,-672.26 3292.39,-673.49 3294.42,-674.8 3296.28,-676.17 3297.97,-677.6 3299.48,-679.1 3300.8,-680.64 3301.95,-682.24 3302.91,-683.89 3303.69,-685.57 3304.28,-687.29 3304.7,-689.05 3304.94,-690.83 3305,-692.64 3304.89,-694.46 3304.62,-696.3 3304.19,-698.14 3303.61,-699.98 3302.88,-701.83 3302.01,-703.66 3301,-705.48 3299.87,-707.29 3298.62,-709.07 3297.26,-710.83 3295.8,-712.55 3294.24,-714.23 3292.59,-715.88 3290.86,-717.48 3289.06,-719.02 3287.19,-720.52 3285.26,-721.95 3283.28,-723.32 3281.25,-724.63 3279.18,-725.86 3277.06,-727.02 3274.92,-728.11 3272.75,-729.11 3270.55,-730.04 3268.33,-730.87 3266.1,-731.62 3263.85,-732.29 3261.59,-732.86 3259.32,-733.33 3257.05,-733.72 3254.76,-734.01 3252.48,-734.2 3250.19,-734.3 3247.9,-734.3 3245.61,-734.2 3243.32,-734.01 3241.04,-733.72 3238.76,-733.33 3236.5,-732.86 3234.24,-732.29 3231.99,-731.62 3229.75,-730.87 3227.54,-730.04 3225.34,-729.11 3223.17,-728.11 3221.02,-727.02 3218.91,-725.86 3216.84,-724.63 3214.81,-723.32 3212.82,-721.95 3210.89,-720.52 3209.02,-719.02 3207.22,-717.48 3205.49,-715.88 3203.85,-714.23 3202.29,-712.55 3200.82,-710.83 3199.46,-709.07 3198.22,-707.29 3197.08,-705.48 3196.08,-703.66 3195.21,-701.83 3194.48,-699.98 3193.89,-698.14 3193.46,-696.3 3193.19,-694.46 3193.09,-692.64 3193.15,-690.83 3193.39,-689.05 3193.8,-687.29 3194.4,-685.57 3195.18,-683.89 3196.14,-682.24 3197.28,-680.64 3198.61,-679.1 3200.12,-677.6 3201.81,-676.17 3203.67,-674.8 3205.7,-673.49 3207.9,-672.26 3210.25,-671.1 3212.75,-670.01 3215.4,-669.01 3218.18,-668.08 3221.08,-667.25 3224.1,-666.5 3227.22,-665.83 3230.42,-665.26 3233.7,-664.79 3237.04,-664.4 3240.44,-664.11 3243.87,-663.92 3247.32,-663.83 3250.77,-663.83 3254.22,-663.92"/>
<text text-anchor="start" x="3219.87" y="-708.86" font-family="Times,serif" font-size="14.00">C0025519</text>
<text text-anchor="start" x="3221.44" y="-694.86" font-family="Times,serif" font-size="14.00">metabolic</text>
<text text-anchor="start" x="3240.1" y="-680.86" font-family="Times,serif" font-size="14.00">6:6</text>
</g>
<!-- id_28243780_DOT_3 -->
<g id="node3" class="node">
<title>id_28243780_DOT_3</title>
<polygon fill="aquamarine" stroke="aquamarine" points="2956.63,-936.84 2960.06,-937.04 2963.45,-937.32 2966.8,-937.71 2970.08,-938.19 2973.28,-938.76 2976.4,-939.42 2979.41,-940.17 2982.32,-941.01 2985.1,-941.93 2987.74,-942.93 2990.25,-944.02 2992.6,-945.18 2994.8,-946.41 2996.83,-947.72 2998.69,-949.09 3000.38,-950.52 3001.89,-952.02 3003.21,-953.57 3004.36,-955.16 3005.32,-956.81 3006.1,-958.49 3006.69,-960.22 3007.11,-961.97 3007.35,-963.75 3007.41,-965.56 3007.31,-967.38 3007.04,-969.22 3006.6,-971.06 3006.02,-972.9 3005.29,-974.75 3004.42,-976.58 3003.41,-978.41 3002.28,-980.21 3001.03,-981.99 2999.67,-983.75 2998.21,-985.47 2996.65,-987.16 2995,-988.8 2993.28,-990.4 2991.47,-991.95 2989.6,-993.44 2987.68,-994.87 2985.69,-996.24 2983.66,-997.55 2981.59,-998.78 2979.47,-999.95 2977.33,-1001.03 2975.16,-1002.04 2972.96,-1002.96 2970.75,-1003.8 2968.51,-1004.55 2966.26,-1005.21 2964,-1005.78 2961.73,-1006.26 2959.46,-1006.64 2957.17,-1006.93 2954.89,-1007.12 2952.6,-1007.22 2950.31,-1007.22 2948.02,-1007.12 2945.74,-1006.93 2943.45,-1006.64 2941.18,-1006.26 2938.91,-1005.78 2936.65,-1005.21 2934.4,-1004.55 2932.16,-1003.8 2929.95,-1002.96 2927.75,-1002.04 2925.58,-1001.03 2923.44,-999.95 2921.32,-998.78 2919.25,-997.55 2917.22,-996.24 2915.23,-994.87 2913.31,-993.44 2911.44,-991.95 2909.63,-990.4 2907.91,-988.8 2906.26,-987.16 2904.7,-985.47 2903.24,-983.75 2901.88,-981.99 2900.63,-980.21 2899.5,-978.41 2898.49,-976.58 2897.62,-974.75 2896.89,-972.9 2896.31,-971.06 2895.87,-969.22 2895.6,-967.38 2895.5,-965.56 2895.56,-963.75 2895.8,-961.97 2896.22,-960.22 2896.81,-958.49 2897.59,-956.81 2898.55,-955.16 2899.7,-953.57 2901.02,-952.02 2902.53,-950.52 2904.22,-949.09 2906.08,-947.72 2908.11,-946.41 2910.31,-945.18 2912.66,-944.02 2915.17,-942.93 2917.81,-941.93 2920.59,-941.01 2923.5,-940.17 2926.51,-939.42 2929.63,-938.76 2932.83,-938.19 2936.11,-937.71 2939.46,-937.32 2942.85,-937.04 2946.28,-936.84 2949.73,-936.75 2953.18,-936.75 2956.63,-936.84"/>
<text text-anchor="start" x="2922.29" y="-981.78" font-family="Times,serif" font-size="14.00">C0025519</text>
<text text-anchor="start" x="2923.85" y="-967.78" font-family="Times,serif" font-size="14.00">metabolic</text>
<text text-anchor="start" x="2935.51" y="-953.78" font-family="Times,serif" font-size="14.00">30:30</text>
</g>
<!-- id_28243780_DOT_1&#45;&#45;id_28243780_DOT_3 -->
<g id="edge1" class="edge">
<title>id_28243780_DOT_1&#45;&#45;id_28243780_DOT_3</title>
<path fill="none" stroke="black" d="M3219.42,-726.23C3163.56,-777.46 3043.01,-888.02 2984.56,-941.62"/>
<text text-anchor="middle" x="3075.74" y="-836.72" font-family="Times,serif" font-size="14.00">0.001970</text>
</g>
<!-- id_28243780_DOT_9 -->
<g id="node9" class="node">
<title>id_28243780_DOT_9</title>
<polygon fill="brown" stroke="brown" points="3553.88,-429.09 3557.9,-429.28 3561.87,-429.57 3565.79,-429.96 3569.63,-430.43 3573.38,-431 3577.03,-431.67 3580.56,-432.42 3583.96,-433.25 3587.22,-434.18 3590.32,-435.18 3593.25,-436.27 3596.01,-437.43 3598.58,-438.66 3600.96,-439.97 3603.14,-441.34 3605.11,-442.77 3606.88,-444.27 3608.43,-445.81 3609.77,-447.41 3610.9,-449.06 3611.81,-450.74 3612.51,-452.46 3612.99,-454.22 3613.27,-456 3613.35,-457.81 3613.22,-459.63 3612.91,-461.46 3612.4,-463.31 3611.72,-465.15 3610.86,-467 3609.84,-468.83 3608.67,-470.65 3607.34,-472.46 3605.88,-474.24 3604.29,-476 3602.57,-477.72 3600.75,-479.4 3598.82,-481.05 3596.79,-482.65 3594.68,-484.19 3592.49,-485.69 3590.23,-487.12 3587.91,-488.49 3585.53,-489.8 3583.1,-491.03 3580.63,-492.19 3578.12,-493.28 3575.58,-494.28 3573.01,-495.21 3570.41,-496.04 3567.79,-496.79 3565.16,-497.46 3562.51,-498.03 3559.86,-498.5 3557.19,-498.89 3554.52,-499.18 3551.84,-499.37 3549.16,-499.46 3546.48,-499.46 3543.8,-499.37 3541.12,-499.18 3538.45,-498.89 3535.78,-498.5 3533.12,-498.03 3530.48,-497.46 3527.84,-496.79 3525.23,-496.04 3522.63,-495.21 3520.06,-494.28 3517.52,-493.28 3515.01,-492.19 3512.53,-491.03 3510.1,-489.8 3507.72,-488.49 3505.4,-487.12 3503.14,-485.69 3500.95,-484.19 3498.84,-482.65 3496.82,-481.05 3494.89,-479.4 3493.06,-477.72 3491.35,-476 3489.76,-474.24 3488.29,-472.46 3486.97,-470.65 3485.79,-468.83 3484.77,-467 3483.92,-465.15 3483.23,-463.31 3482.73,-461.46 3482.41,-459.63 3482.29,-457.81 3482.36,-456 3482.64,-454.22 3483.13,-452.46 3483.83,-450.74 3484.74,-449.06 3485.86,-447.41 3487.2,-445.81 3488.76,-444.27 3490.53,-442.77 3492.5,-441.34 3494.68,-439.97 3497.06,-438.66 3499.63,-437.43 3502.39,-436.27 3505.32,-435.18 3508.42,-434.18 3511.68,-433.25 3515.08,-432.42 3518.61,-431.67 3522.26,-431 3526.01,-430.43 3529.85,-429.96 3533.77,-429.57 3537.74,-429.28 3541.75,-429.09 3545.79,-428.99 3549.84,-428.99 3553.88,-429.09"/>
<text text-anchor="start" x="3518.65" y="-474.03" font-family="Times,serif" font-size="14.00">C0679646</text>
<text text-anchor="start" x="3512.15" y="-460.03" font-family="Times,serif" font-size="14.00">participant &#39;s</text>
<text text-anchor="start" x="3525.13" y="-446.03" font-family="Times,serif" font-size="14.00">119:120</text>
</g>
<!-- id_28243780_DOT_1&#45;&#45;id_28243780_DOT_9 -->
<g id="edge11" class="edge">
<title>id_28243780_DOT_1&#45;&#45;id_28243780_DOT_9</title>
<path fill="none" stroke="black" stroke-dasharray="1,5" d="M3285.98,-670.03C3344.06,-624.38 3455.96,-536.42 3512.82,-491.74"/>
<text text-anchor="middle" x="3373.15" y="-583.68" font-family="Times,serif" font-size="14.00">0.910350</text>
</g>
<!-- id_28243780_DOT_2 -->
<g id="node2" class="node">
<title>id_28243780_DOT_2</title>
<polygon fill="bisque" stroke="bisque" points="1975.01,-1072 1981.08,-1072.19 1987.08,-1072.48 1992.99,-1072.86 1998.8,-1073.34 2004.47,-1073.91 2009.98,-1074.57 2015.32,-1075.32 2020.45,-1076.16 2025.37,-1077.08 2030.05,-1078.09 2034.49,-1079.17 2038.65,-1080.33 2042.54,-1081.57 2046.13,-1082.87 2049.42,-1084.24 2052.41,-1085.68 2055.08,-1087.17 2057.43,-1088.72 2059.45,-1090.32 2061.15,-1091.96 2062.53,-1093.65 2063.58,-1095.37 2064.32,-1097.12 2064.74,-1098.91 2064.85,-1100.71 2064.67,-1102.53 2064.19,-1104.37 2063.43,-1106.21 2062.39,-1108.06 2061.1,-1109.9 2059.56,-1111.74 2057.78,-1113.56 2055.78,-1115.36 2053.57,-1117.15 2051.16,-1118.9 2048.57,-1120.62 2045.82,-1122.31 2042.9,-1123.95 2039.84,-1125.55 2036.65,-1127.1 2033.35,-1128.59 2029.93,-1130.03 2026.42,-1131.4 2022.83,-1132.7 2019.16,-1133.94 2015.42,-1135.1 2011.63,-1136.18 2007.79,-1137.19 2003.9,-1138.11 1999.98,-1138.95 1996.03,-1139.7 1992.05,-1140.36 1988.05,-1140.93 1984.03,-1141.41 1980.01,-1141.79 1975.97,-1142.08 1971.92,-1142.27 1967.87,-1142.37 1963.82,-1142.37 1959.77,-1142.27 1955.73,-1142.08 1951.69,-1141.79 1947.66,-1141.41 1943.65,-1140.93 1939.65,-1140.36 1935.67,-1139.7 1931.72,-1138.95 1927.79,-1138.11 1923.91,-1137.19 1920.07,-1136.18 1916.27,-1135.1 1912.54,-1133.94 1908.87,-1132.7 1905.27,-1131.4 1901.76,-1130.03 1898.35,-1128.59 1895.04,-1127.1 1891.85,-1125.55 1888.8,-1123.95 1885.88,-1122.31 1883.12,-1120.62 1880.53,-1118.9 1878.13,-1117.15 1875.92,-1115.36 1873.92,-1113.56 1872.14,-1111.74 1870.6,-1109.9 1869.3,-1108.06 1868.27,-1106.21 1867.51,-1104.37 1867.03,-1102.53 1866.84,-1100.71 1866.96,-1098.91 1867.38,-1097.12 1868.11,-1095.37 1869.17,-1093.65 1870.54,-1091.96 1872.24,-1090.32 1874.27,-1088.72 1876.62,-1087.17 1879.29,-1085.68 1882.27,-1084.24 1885.56,-1082.87 1889.16,-1081.57 1893.04,-1080.33 1897.21,-1079.17 1901.64,-1078.09 1906.32,-1077.08 1911.24,-1076.16 1916.38,-1075.32 1921.71,-1074.57 1927.23,-1073.91 1932.9,-1073.34 1938.7,-1072.86 1944.62,-1072.48 1950.62,-1072.19 1956.69,-1072 1962.79,-1071.9 1968.91,-1071.9 1975.01,-1072"/>
<text text-anchor="start" x="1936.68" y="-1116.94" font-family="Times,serif" font-size="14.00">C0025361</text>
<text text-anchor="start" x="1908.11" y="-1102.94" font-family="Times,serif" font-size="14.00">cognitive processing</text>
<text text-anchor="start" x="1949.9" y="-1088.94" font-family="Times,serif" font-size="14.00">24:25</text>
</g>
<!-- id_28243780_DOT_15 -->
<g id="node15" class="node">
<title>id_28243780_DOT_15</title>
<polygon fill="blueviolet" stroke="blueviolet" points="1618.64,-938.39 1622.07,-938.58 1625.46,-938.87 1628.8,-939.25 1632.08,-939.73 1635.29,-940.3 1638.4,-940.96 1641.42,-941.71 1644.32,-942.55 1647.1,-943.47 1649.75,-944.48 1652.25,-945.56 1654.61,-946.72 1656.8,-947.96 1658.84,-949.26 1660.7,-950.64 1662.38,-952.07 1663.89,-953.56 1665.22,-955.11 1666.36,-956.71 1667.33,-958.35 1668.1,-960.04 1668.7,-961.76 1669.11,-963.52 1669.35,-965.3 1669.42,-967.1 1669.31,-968.93 1669.04,-970.76 1668.61,-972.6 1668.03,-974.45 1667.3,-976.29 1666.42,-978.13 1665.42,-979.95 1664.29,-981.76 1663.04,-983.54 1661.68,-985.29 1660.22,-987.02 1658.66,-988.7 1657.01,-990.35 1655.28,-991.94 1653.48,-993.49 1651.61,-994.98 1649.68,-996.42 1647.7,-997.79 1645.67,-999.09 1643.59,-1000.33 1641.48,-1001.49 1639.34,-1002.58 1637.16,-1003.58 1634.97,-1004.5 1632.75,-1005.34 1630.52,-1006.09 1628.27,-1006.75 1626.01,-1007.32 1623.74,-1007.8 1621.46,-1008.18 1619.18,-1008.47 1616.89,-1008.67 1614.61,-1008.76 1612.32,-1008.76 1610.03,-1008.67 1607.74,-1008.47 1605.46,-1008.18 1603.18,-1007.8 1600.91,-1007.32 1598.65,-1006.75 1596.4,-1006.09 1594.17,-1005.34 1591.95,-1004.5 1589.76,-1003.58 1587.58,-1002.58 1585.44,-1001.49 1583.33,-1000.33 1581.26,-999.09 1579.22,-997.79 1577.24,-996.42 1575.31,-994.98 1573.44,-993.49 1571.64,-991.94 1569.91,-990.35 1568.26,-988.7 1566.7,-987.02 1565.24,-985.29 1563.88,-983.54 1562.63,-981.76 1561.5,-979.95 1560.5,-978.13 1559.63,-976.29 1558.89,-974.45 1558.31,-972.6 1557.88,-970.76 1557.61,-968.93 1557.5,-967.1 1557.57,-965.3 1557.81,-963.52 1558.22,-961.76 1558.82,-960.04 1559.6,-958.35 1560.56,-956.71 1561.7,-955.11 1563.03,-953.56 1564.54,-952.07 1566.22,-950.64 1568.08,-949.26 1570.12,-947.96 1572.31,-946.72 1574.67,-945.56 1577.17,-944.48 1579.82,-943.47 1582.6,-942.55 1585.5,-941.71 1588.52,-940.96 1591.63,-940.3 1594.84,-939.73 1598.12,-939.25 1601.46,-938.87 1604.85,-938.58 1608.28,-938.39 1611.73,-938.29 1615.19,-938.29 1618.64,-938.39"/>
<text text-anchor="start" x="1584.29" y="-983.33" font-family="Times,serif" font-size="14.00">C0009240</text>
<text text-anchor="start" x="1587.41" y="-969.33" font-family="Times,serif" font-size="14.00">cognitive</text>
<text text-anchor="start" x="1590.52" y="-955.33" font-family="Times,serif" font-size="14.00">225:225</text>
</g>
<!-- id_28243780_DOT_2&#45;&#45;id_28243780_DOT_15 -->
<g id="edge12" class="edge">
<title>id_28243780_DOT_2&#45;&#45;id_28243780_DOT_15</title>
<path fill="none" stroke="black" stroke-dasharray="1,5" d="M1894.11,-1079.94C1823.08,-1053 1716.59,-1012.63 1657.3,-990.15"/>
<text text-anchor="middle" x="1749.45" y="-1037.84" font-family="Times,serif" font-size="14.00">0.443401</text>
</g>
<!-- id_28243780_DOT_16 -->
<g id="node16" class="node">
<title>id_28243780_DOT_16</title>
<polygon fill="bisque" stroke="bisque" points="2339.62,-1205.46 2345.82,-1205.65 2351.96,-1205.94 2358,-1206.32 2363.94,-1206.8 2369.73,-1207.37 2375.37,-1208.03 2380.82,-1208.78 2386.07,-1209.62 2391.1,-1210.54 2395.89,-1211.55 2400.42,-1212.63 2404.68,-1213.79 2408.65,-1215.03 2412.33,-1216.33 2415.69,-1217.71 2418.74,-1219.14 2421.47,-1220.63 2423.87,-1222.18 2425.94,-1223.78 2427.68,-1225.42 2429.09,-1227.11 2430.17,-1228.83 2430.92,-1230.59 2431.35,-1232.37 2431.46,-1234.17 2431.27,-1236 2430.78,-1237.83 2430,-1239.67 2428.95,-1241.52 2427.63,-1243.36 2426.05,-1245.2 2424.23,-1247.02 2422.19,-1248.83 2419.93,-1250.61 2417.47,-1252.36 2414.82,-1254.09 2412,-1255.77 2409.02,-1257.42 2405.9,-1259.01 2402.64,-1260.56 2399.26,-1262.05 2395.77,-1263.49 2392.18,-1264.86 2388.5,-1266.16 2384.75,-1267.4 2380.93,-1268.56 2377.06,-1269.65 2373.13,-1270.65 2369.16,-1271.57 2365.15,-1272.41 2361.11,-1273.16 2357.04,-1273.82 2352.95,-1274.39 2348.85,-1274.87 2344.73,-1275.25 2340.6,-1275.54 2336.46,-1275.74 2332.32,-1275.83 2328.18,-1275.83 2324.04,-1275.74 2319.91,-1275.54 2315.78,-1275.25 2311.66,-1274.87 2307.56,-1274.39 2303.47,-1273.82 2299.4,-1273.16 2295.36,-1272.41 2291.35,-1271.57 2287.38,-1270.65 2283.45,-1269.65 2279.57,-1268.56 2275.76,-1267.4 2272,-1266.16 2268.33,-1264.86 2264.74,-1263.49 2261.25,-1262.05 2257.87,-1260.56 2254.61,-1259.01 2251.49,-1257.42 2248.51,-1255.77 2245.69,-1254.09 2243.04,-1252.36 2240.58,-1250.61 2238.32,-1248.83 2236.27,-1247.02 2234.46,-1245.2 2232.88,-1243.36 2231.56,-1241.52 2230.5,-1239.67 2229.73,-1237.83 2229.24,-1236 2229.04,-1234.17 2229.16,-1232.37 2229.59,-1230.59 2230.34,-1228.83 2231.42,-1227.11 2232.83,-1225.42 2234.57,-1223.78 2236.64,-1222.18 2239.04,-1220.63 2241.77,-1219.14 2244.82,-1217.71 2248.18,-1216.33 2251.86,-1215.03 2255.83,-1213.79 2260.09,-1212.63 2264.62,-1211.55 2269.4,-1210.54 2274.43,-1209.62 2279.68,-1208.78 2285.14,-1208.03 2290.77,-1207.37 2296.57,-1206.8 2302.5,-1206.32 2308.55,-1205.94 2314.69,-1205.65 2320.89,-1205.46 2327.13,-1205.36 2333.38,-1205.36 2339.62,-1205.46"/>
<text text-anchor="start" x="2301.09" y="-1250.4" font-family="Times,serif" font-size="14.00">C0025361</text>
<text text-anchor="start" x="2270.96" y="-1236.4" font-family="Times,serif" font-size="14.00">Cognitive processing</text>
<text text-anchor="start" x="2307.31" y="-1222.4" font-family="Times,serif" font-size="14.00">298:299</text>
</g>
<!-- id_28243780_DOT_2&#45;&#45;id_28243780_DOT_16 -->
<g id="edge2" class="edge">
<title>id_28243780_DOT_2&#45;&#45;id_28243780_DOT_16</title>
<path fill="none" stroke="black" d="M2029.32,-1130.38C2092.64,-1153.57 2189.83,-1189.17 2256.53,-1213.6"/>
<text text-anchor="middle" x="2116.68" y="-1174.79" font-family="Times,serif" font-size="14.00">0.035071</text>
</g>
<!-- id_28243780_DOT_18 -->
<g id="node18" class="node">
<title>id_28243780_DOT_18</title>
<polygon fill="aquamarine" stroke="aquamarine" points="2729.22,-1323.39 2732.65,-1323.58 2736.04,-1323.87 2739.38,-1324.25 2742.66,-1324.73 2745.87,-1325.3 2748.98,-1325.96 2752,-1326.71 2754.9,-1327.55 2757.68,-1328.47 2760.33,-1329.48 2762.83,-1330.56 2765.19,-1331.72 2767.38,-1332.96 2769.41,-1334.26 2771.28,-1335.63 2772.96,-1337.07 2774.47,-1338.56 2775.8,-1340.11 2776.94,-1341.71 2777.9,-1343.35 2778.68,-1345.04 2779.28,-1346.76 2779.69,-1348.51 2779.93,-1350.3 2780,-1352.1 2779.89,-1353.92 2779.62,-1355.76 2779.19,-1357.6 2778.6,-1359.45 2777.87,-1361.29 2777,-1363.13 2776,-1364.95 2774.87,-1366.75 2773.62,-1368.54 2772.26,-1370.29 2770.79,-1372.01 2769.24,-1373.7 2767.59,-1375.34 2765.86,-1376.94 2764.06,-1378.49 2762.19,-1379.98 2760.26,-1381.42 2758.28,-1382.79 2756.24,-1384.09 2754.17,-1385.33 2752.06,-1386.49 2749.91,-1387.57 2747.74,-1388.58 2745.55,-1389.5 2743.33,-1390.34 2741.1,-1391.09 2738.85,-1391.75 2736.59,-1392.32 2734.32,-1392.8 2732.04,-1393.18 2729.76,-1393.47 2727.47,-1393.66 2725.18,-1393.76 2722.89,-1393.76 2720.61,-1393.66 2718.32,-1393.47 2716.04,-1393.18 2713.76,-1392.8 2711.49,-1392.32 2709.23,-1391.75 2706.98,-1391.09 2704.75,-1390.34 2702.53,-1389.5 2700.33,-1388.58 2698.16,-1387.57 2696.02,-1386.49 2693.91,-1385.33 2691.83,-1384.09 2689.8,-1382.79 2687.82,-1381.42 2685.89,-1379.98 2684.02,-1378.49 2682.22,-1376.94 2680.49,-1375.34 2678.84,-1373.7 2677.28,-1372.01 2675.82,-1370.29 2674.46,-1368.54 2673.21,-1366.75 2672.08,-1364.95 2671.08,-1363.13 2670.2,-1361.29 2669.47,-1359.45 2668.89,-1357.6 2668.46,-1355.76 2668.19,-1353.92 2668.08,-1352.1 2668.15,-1350.3 2668.38,-1348.51 2668.8,-1346.76 2669.4,-1345.04 2670.17,-1343.35 2671.13,-1341.71 2672.28,-1340.11 2673.61,-1338.56 2675.12,-1337.07 2676.8,-1335.63 2678.66,-1334.26 2680.69,-1332.96 2682.89,-1331.72 2685.25,-1330.56 2687.75,-1329.48 2690.4,-1328.47 2693.18,-1327.55 2696.08,-1326.71 2699.09,-1325.96 2702.21,-1325.3 2705.42,-1324.73 2708.7,-1324.25 2712.04,-1323.87 2715.43,-1323.58 2718.86,-1323.39 2722.31,-1323.29 2725.77,-1323.29 2729.22,-1323.39"/>
<text text-anchor="start" x="2694.87" y="-1368.33" font-family="Times,serif" font-size="14.00">C0025519</text>
<text text-anchor="start" x="2696.44" y="-1354.33" font-family="Times,serif" font-size="14.00">metabolic</text>
<text text-anchor="start" x="2701.09" y="-1340.33" font-family="Times,serif" font-size="14.00">337:337</text>
</g>
<!-- id_28243780_DOT_3&#45;&#45;id_28243780_DOT_18 -->
<g id="edge3" class="edge">
<title>id_28243780_DOT_3&#45;&#45;id_28243780_DOT_18</title>
<path fill="none" stroke="black" d="M2932.46,-1004.27C2889.92,-1076.58 2787.34,-1250.93 2743.95,-1324.68"/>
<text text-anchor="middle" x="2812.47" y="-1167.28" font-family="Times,serif" font-size="14.00">0.031114</text>
</g>
<!-- id_28243780_DOT_4 -->
<g id="node4" class="node">
<title>id_28243780_DOT_4</title>
<polygon fill="blue" stroke="blue" points="2557.19,-2481.64 2560.62,-2481.83 2564.01,-2482.12 2567.35,-2482.5 2570.63,-2482.98 2573.84,-2483.55 2576.95,-2484.21 2579.97,-2484.96 2582.87,-2485.8 2585.65,-2486.72 2588.3,-2487.73 2590.8,-2488.81 2593.16,-2489.97 2595.35,-2491.21 2597.39,-2492.51 2599.25,-2493.88 2600.93,-2495.32 2602.44,-2496.81 2603.77,-2498.36 2604.91,-2499.96 2605.88,-2501.6 2606.65,-2503.29 2607.25,-2505.01 2607.67,-2506.76 2607.9,-2508.55 2607.97,-2510.35 2607.86,-2512.17 2607.59,-2514.01 2607.16,-2515.85 2606.58,-2517.7 2605.85,-2519.54 2604.97,-2521.37 2603.97,-2523.2 2602.84,-2525 2601.59,-2526.79 2600.23,-2528.54 2598.77,-2530.26 2597.21,-2531.95 2595.56,-2533.59 2593.83,-2535.19 2592.03,-2536.74 2590.16,-2538.23 2588.23,-2539.67 2586.25,-2541.04 2584.22,-2542.34 2582.14,-2543.58 2580.03,-2544.74 2577.89,-2545.82 2575.71,-2546.83 2573.52,-2547.75 2571.3,-2548.59 2569.07,-2549.34 2566.82,-2550 2564.56,-2550.57 2562.29,-2551.05 2560.01,-2551.43 2557.73,-2551.72 2555.44,-2551.91 2553.16,-2552.01 2550.87,-2552.01 2548.58,-2551.91 2546.29,-2551.72 2544.01,-2551.43 2541.73,-2551.05 2539.46,-2550.57 2537.2,-2550 2534.95,-2549.34 2532.72,-2548.59 2530.5,-2547.75 2528.31,-2546.83 2526.13,-2545.82 2523.99,-2544.74 2521.88,-2543.58 2519.81,-2542.34 2517.77,-2541.04 2515.79,-2539.67 2513.86,-2538.23 2511.99,-2536.74 2510.19,-2535.19 2508.46,-2533.59 2506.81,-2531.95 2505.25,-2530.26 2503.79,-2528.54 2502.43,-2526.79 2501.18,-2525 2500.05,-2523.2 2499.05,-2521.37 2498.18,-2519.54 2497.44,-2517.7 2496.86,-2515.85 2496.43,-2514.01 2496.16,-2512.17 2496.05,-2510.35 2496.12,-2508.55 2496.36,-2506.76 2496.77,-2505.01 2497.37,-2503.29 2498.15,-2501.6 2499.11,-2499.96 2500.25,-2498.36 2501.58,-2496.81 2503.09,-2495.32 2504.77,-2493.88 2506.64,-2492.51 2508.67,-2491.21 2510.86,-2489.97 2513.22,-2488.81 2515.72,-2487.73 2518.37,-2486.72 2521.15,-2485.8 2524.05,-2484.96 2527.07,-2484.21 2530.18,-2483.55 2533.39,-2482.98 2536.67,-2482.5 2540.01,-2482.12 2543.4,-2481.83 2546.83,-2481.64 2550.28,-2481.54 2553.74,-2481.54 2557.19,-2481.64"/>
<text text-anchor="start" x="2522.84" y="-2526.57" font-family="Times,serif" font-size="14.00">C4042775</text>
<text text-anchor="start" x="2534.52" y="-2512.57" font-family="Times,serif" font-size="14.00">seated</text>
<text text-anchor="start" x="2536.07" y="-2498.57" font-family="Times,serif" font-size="14.00">68:68</text>
</g>
<!-- id_28243780_DOT_6 -->
<g id="node6" class="node">
<title>id_28243780_DOT_6</title>
<polygon fill="blue" stroke="blue" points="2798.22,-2170.23 2801.65,-2170.42 2805.04,-2170.71 2808.39,-2171.1 2811.67,-2171.57 2814.87,-2172.14 2817.99,-2172.81 2821,-2173.56 2823.91,-2174.39 2826.69,-2175.32 2829.33,-2176.32 2831.84,-2177.41 2834.19,-2178.57 2836.39,-2179.8 2838.42,-2181.11 2840.28,-2182.48 2841.97,-2183.91 2843.48,-2185.41 2844.8,-2186.95 2845.95,-2188.55 2846.91,-2190.2 2847.69,-2191.88 2848.28,-2193.6 2848.7,-2195.36 2848.94,-2197.14 2849,-2198.95 2848.9,-2200.77 2848.63,-2202.61 2848.2,-2204.45 2847.61,-2206.29 2846.88,-2208.14 2846.01,-2209.97 2845,-2211.79 2843.87,-2213.6 2842.62,-2215.38 2841.26,-2217.14 2839.8,-2218.86 2838.24,-2220.55 2836.59,-2222.19 2834.87,-2223.79 2833.06,-2225.34 2831.2,-2226.83 2829.27,-2228.26 2827.28,-2229.63 2825.25,-2230.94 2823.18,-2232.17 2821.07,-2233.33 2818.92,-2234.42 2816.75,-2235.42 2814.55,-2236.35 2812.34,-2237.18 2810.1,-2237.94 2807.85,-2238.6 2805.59,-2239.17 2803.32,-2239.64 2801.05,-2240.03 2798.76,-2240.32 2796.48,-2240.51 2794.19,-2240.61 2791.9,-2240.61 2789.61,-2240.51 2787.33,-2240.32 2785.04,-2240.03 2782.77,-2239.64 2780.5,-2239.17 2778.24,-2238.6 2775.99,-2237.94 2773.75,-2237.18 2771.54,-2236.35 2769.34,-2235.42 2767.17,-2234.42 2765.03,-2233.33 2762.91,-2232.17 2760.84,-2230.94 2758.81,-2229.63 2756.83,-2228.26 2754.9,-2226.83 2753.03,-2225.34 2751.22,-2223.79 2749.5,-2222.19 2747.85,-2220.55 2746.29,-2218.86 2744.83,-2217.14 2743.47,-2215.38 2742.22,-2213.6 2741.09,-2211.79 2740.08,-2209.97 2739.21,-2208.14 2738.48,-2206.29 2737.9,-2204.45 2737.47,-2202.61 2737.19,-2200.77 2737.09,-2198.95 2737.15,-2197.14 2737.39,-2195.36 2737.81,-2193.6 2738.4,-2191.88 2739.18,-2190.2 2740.14,-2188.55 2741.29,-2186.95 2742.61,-2185.41 2744.12,-2183.91 2745.81,-2182.48 2747.67,-2181.11 2749.7,-2179.8 2751.9,-2178.57 2754.25,-2177.41 2756.76,-2176.32 2759.4,-2175.32 2762.18,-2174.39 2765.09,-2173.56 2768.1,-2172.81 2771.22,-2172.14 2774.42,-2171.57 2777.7,-2171.1 2781.05,-2170.71 2784.44,-2170.42 2787.87,-2170.23 2791.32,-2170.14 2794.77,-2170.14 2798.22,-2170.23"/>
<text text-anchor="start" x="2763.88" y="-2215.17" font-family="Times,serif" font-size="14.00">C4042775</text>
<text text-anchor="start" x="2775.56" y="-2201.17" font-family="Times,serif" font-size="14.00">seated</text>
<text text-anchor="start" x="2777.1" y="-2187.17" font-family="Times,serif" font-size="14.00">81:81</text>
</g>
<!-- id_28243780_DOT_4&#45;&#45;id_28243780_DOT_6 -->
<g id="edge4" class="edge">
<title>id_28243780_DOT_4&#45;&#45;id_28243780_DOT_6</title>
<path fill="none" stroke="black" d="M2577.35,-2484.04C2624.25,-2423.45 2723.94,-2294.66 2769.47,-2235.83"/>
<text text-anchor="middle" x="2647.16" y="-2362.73" font-family="Times,serif" font-size="14.00">0.002535</text>
</g>
<!-- id_28243780_DOT_5 -->
<g id="node5" class="node">
<title>id_28243780_DOT_5</title>
<polygon fill="blueviolet" stroke="blueviolet" points="327.14,-249.2 330.57,-249.39 333.96,-249.68 337.31,-250.06 340.59,-250.54 343.79,-251.11 346.91,-251.77 349.92,-252.52 352.82,-253.36 355.6,-254.28 358.25,-255.29 360.76,-256.37 363.11,-257.53 365.31,-258.77 367.34,-260.07 369.2,-261.45 370.89,-262.88 372.39,-264.37 373.72,-265.92 374.87,-267.52 375.83,-269.16 376.61,-270.85 377.2,-272.57 377.62,-274.33 377.85,-276.11 377.92,-277.91 377.81,-279.74 377.54,-281.57 377.11,-283.41 376.53,-285.26 375.8,-287.1 374.93,-288.94 373.92,-290.76 372.79,-292.56 371.54,-294.35 370.18,-296.1 368.72,-297.83 367.16,-299.51 365.51,-301.16 363.78,-302.75 361.98,-304.3 360.11,-305.79 358.18,-307.23 356.2,-308.6 354.17,-309.9 352.09,-311.14 349.98,-312.3 347.84,-313.38 345.67,-314.39 343.47,-315.31 341.25,-316.15 339.02,-316.9 336.77,-317.56 334.51,-318.13 332.24,-318.61 329.96,-318.99 327.68,-319.28 325.4,-319.48 323.11,-319.57 320.82,-319.57 318.53,-319.48 316.24,-319.28 313.96,-318.99 311.68,-318.61 309.41,-318.13 307.15,-317.56 304.91,-316.9 302.67,-316.15 300.45,-315.31 298.26,-314.39 296.09,-313.38 293.94,-312.3 291.83,-311.14 289.76,-309.9 287.73,-308.6 285.74,-307.23 283.81,-305.79 281.94,-304.3 280.14,-302.75 278.41,-301.16 276.77,-299.51 275.21,-297.83 273.74,-296.1 272.38,-294.35 271.13,-292.56 270,-290.76 269,-288.94 268.13,-287.1 267.4,-285.26 266.81,-283.41 266.38,-281.57 266.11,-279.74 266.01,-277.91 266.07,-276.11 266.31,-274.33 266.72,-272.57 267.32,-270.85 268.1,-269.16 269.06,-267.52 270.2,-265.92 271.53,-264.37 273.04,-262.88 274.73,-261.45 276.59,-260.07 278.62,-258.77 280.81,-257.53 283.17,-256.37 285.67,-255.29 288.32,-254.28 291.1,-253.36 294,-252.52 297.02,-251.77 300.13,-251.11 303.34,-250.54 306.62,-250.06 309.96,-249.68 313.36,-249.39 316.78,-249.2 320.23,-249.1 323.69,-249.1 327.14,-249.2"/>
<text text-anchor="start" x="292.79" y="-294.14" font-family="Times,serif" font-size="14.00">C0009240</text>
<text text-anchor="start" x="295.91" y="-280.14" font-family="Times,serif" font-size="14.00">cognitive</text>
<text text-anchor="start" x="306.02" y="-266.14" font-family="Times,serif" font-size="14.00">78:78</text>
</g>
<!-- id_28243780_DOT_7 -->
<g id="node7" class="node">
<title>id_28243780_DOT_7</title>
<polygon fill="blueviolet" stroke="blueviolet" points="621.71,-465.41 625.14,-465.6 628.53,-465.89 631.88,-466.28 635.16,-466.75 638.36,-467.32 641.48,-467.99 644.49,-468.74 647.4,-469.57 650.18,-470.5 652.82,-471.5 655.33,-472.59 657.68,-473.75 659.88,-474.98 661.91,-476.29 663.77,-477.66 665.46,-479.09 666.97,-480.59 668.29,-482.13 669.44,-483.73 670.4,-485.38 671.18,-487.06 671.77,-488.78 672.19,-490.54 672.43,-492.32 672.49,-494.13 672.39,-495.95 672.11,-497.78 671.68,-499.63 671.1,-501.47 670.37,-503.32 669.5,-505.15 668.49,-506.97 667.36,-508.78 666.11,-510.56 664.75,-512.32 663.29,-514.04 661.73,-515.72 660.08,-517.37 658.36,-518.97 656.55,-520.51 654.68,-522.01 652.76,-523.44 650.77,-524.81 648.74,-526.12 646.67,-527.35 644.55,-528.51 642.41,-529.6 640.24,-530.6 638.04,-531.53 635.83,-532.36 633.59,-533.11 631.34,-533.78 629.08,-534.35 626.81,-534.82 624.54,-535.21 622.25,-535.5 619.97,-535.69 617.68,-535.79 615.39,-535.79 613.1,-535.69 610.82,-535.5 608.53,-535.21 606.26,-534.82 603.99,-534.35 601.73,-533.78 599.48,-533.11 597.24,-532.36 595.03,-531.53 592.83,-530.6 590.66,-529.6 588.51,-528.51 586.4,-527.35 584.33,-526.12 582.3,-524.81 580.31,-523.44 578.39,-522.01 576.52,-520.51 574.71,-518.97 572.99,-517.37 571.34,-515.72 569.78,-514.04 568.32,-512.32 566.96,-510.56 565.71,-508.78 564.58,-506.97 563.57,-505.15 562.7,-503.32 561.97,-501.47 561.38,-499.63 560.95,-497.78 560.68,-495.95 560.58,-494.13 560.64,-492.32 560.88,-490.54 561.3,-488.78 561.89,-487.06 562.67,-485.38 563.63,-483.73 564.78,-482.13 566.1,-480.59 567.61,-479.09 569.3,-477.66 571.16,-476.29 573.19,-474.98 575.39,-473.75 577.74,-472.59 580.25,-471.5 582.89,-470.5 585.67,-469.57 588.58,-468.74 591.59,-467.99 594.71,-467.32 597.91,-466.75 601.19,-466.28 604.54,-465.89 607.93,-465.6 611.36,-465.41 614.81,-465.31 618.26,-465.31 621.71,-465.41"/>
<text text-anchor="start" x="587.37" y="-510.35" font-family="Times,serif" font-size="14.00">C0009240</text>
<text text-anchor="start" x="590.49" y="-496.35" font-family="Times,serif" font-size="14.00">cognitive</text>
<text text-anchor="start" x="600.59" y="-482.35" font-family="Times,serif" font-size="14.00">83:83</text>
</g>
<!-- id_28243780_DOT_5&#45;&#45;id_28243780_DOT_7 -->
<g id="edge5" class="edge">
<title>id_28243780_DOT_5&#45;&#45;id_28243780_DOT_7</title>
<path fill="none" stroke="black" d="M355.75,-309.14C410.91,-349.63 519.96,-429.66 578.03,-472.29"/>
<text text-anchor="middle" x="440.64" y="-393.51" font-family="Times,serif" font-size="14.00">0.001593</text>
</g>
<!-- id_28243780_DOT_8 -->
<g id="node8" class="node">
<title>id_28243780_DOT_8</title>
<polygon fill="blueviolet" stroke="blueviolet" points="61.16,-0.23 64.58,-0.42 67.98,-0.71 71.32,-1.09 74.6,-1.57 77.81,-2.14 80.92,-2.8 83.94,-3.55 86.84,-4.39 89.62,-5.31 92.27,-6.32 94.77,-7.4 97.13,-8.57 99.32,-9.8 101.35,-11.1 103.22,-12.48 104.9,-13.91 106.41,-15.4 107.74,-16.95 108.88,-18.55 109.84,-20.19 110.62,-21.88 111.22,-23.6 111.63,-25.36 111.87,-27.14 111.93,-28.94 111.83,-30.77 111.56,-32.6 111.13,-34.44 110.54,-36.29 109.81,-38.13 108.94,-39.97 107.94,-41.79 106.81,-43.6 105.56,-45.38 104.2,-47.13 102.73,-48.86 101.18,-50.54 99.53,-52.19 97.8,-53.78 96,-55.33 94.13,-56.82 92.2,-58.26 90.22,-59.63 88.18,-60.94 86.11,-62.17 84,-63.33 81.85,-64.42 79.68,-65.42 77.49,-66.34 75.27,-67.18 73.04,-67.93 70.79,-68.59 68.53,-69.16 66.26,-69.64 63.98,-70.02 61.7,-70.31 59.41,-70.51 57.12,-70.6 54.83,-70.6 52.55,-70.51 50.26,-70.31 47.98,-70.02 45.7,-69.64 43.43,-69.16 41.17,-68.59 38.92,-67.93 36.69,-67.18 34.47,-66.34 32.27,-65.42 30.1,-64.42 27.96,-63.33 25.85,-62.17 23.77,-60.94 21.74,-59.63 19.76,-58.26 17.83,-56.82 15.96,-55.33 14.16,-53.78 12.43,-52.19 10.78,-50.54 9.22,-48.86 7.76,-47.13 6.4,-45.38 5.15,-43.6 4.02,-41.79 3.01,-39.97 2.14,-38.13 1.41,-36.29 0.83,-34.44 0.4,-32.6 0.13,-30.77 0.02,-28.94 0.09,-27.14 0.32,-25.36 0.74,-23.6 1.34,-21.88 2.11,-20.19 3.07,-18.55 4.22,-16.95 5.55,-15.4 7.05,-13.91 8.74,-12.48 10.6,-11.1 12.63,-9.8 14.83,-8.57 17.18,-7.4 19.69,-6.32 22.34,-5.31 25.12,-4.39 28.02,-3.55 31.03,-2.8 34.15,-2.14 37.35,-1.57 40.64,-1.09 43.98,-0.71 47.37,-0.42 50.8,-0.23 54.25,-0.13 57.71,-0.13 61.16,-0.23"/>
<text text-anchor="start" x="26.81" y="-45.17" font-family="Times,serif" font-size="14.00">C0009240</text>
<text text-anchor="start" x="29.93" y="-31.17" font-family="Times,serif" font-size="14.00">cognitive</text>
<text text-anchor="start" x="40.03" y="-17.17" font-family="Times,serif" font-size="14.00">97:97</text>
</g>
<!-- id_28243780_DOT_5&#45;&#45;id_28243780_DOT_8 -->
<g id="edge6" class="edge">
<title>id_28243780_DOT_5&#45;&#45;id_28243780_DOT_8</title>
<path fill="none" stroke="black" d="M289.35,-253.81C237.05,-204.86 135.24,-109.56 85.19,-62.71"/>
<text text-anchor="middle" x="161.02" y="-161.06" font-family="Times,serif" font-size="14.00">0.003779</text>
</g>
<!-- id_28243780_DOT_14 -->
<g id="node14" class="node">
<title>id_28243780_DOT_14</title>
<polygon fill="blue" stroke="blue" points="3077.56,-2471.58 3080.99,-2471.77 3084.39,-2472.06 3087.73,-2472.45 3091.01,-2472.92 3094.21,-2473.49 3097.33,-2474.16 3100.35,-2474.91 3103.25,-2475.74 3106.03,-2476.67 3108.68,-2477.67 3111.18,-2478.76 3113.53,-2479.92 3115.73,-2481.15 3117.76,-2482.46 3119.62,-2483.83 3121.31,-2485.26 3122.82,-2486.76 3124.15,-2488.3 3125.29,-2489.9 3126.25,-2491.55 3127.03,-2493.23 3127.62,-2494.95 3128.04,-2496.71 3128.28,-2498.49 3128.34,-2500.3 3128.24,-2502.12 3127.97,-2503.95 3127.54,-2505.8 3126.95,-2507.64 3126.22,-2509.49 3125.35,-2511.32 3124.35,-2513.14 3123.21,-2514.95 3121.97,-2516.73 3120.61,-2518.49 3119.14,-2520.21 3117.58,-2521.89 3115.94,-2523.54 3114.21,-2525.14 3112.4,-2526.68 3110.54,-2528.18 3108.61,-2529.61 3106.62,-2530.98 3104.59,-2532.29 3102.52,-2533.52 3100.41,-2534.68 3098.26,-2535.77 3096.09,-2536.77 3093.89,-2537.7 3091.68,-2538.53 3089.44,-2539.28 3087.19,-2539.95 3084.93,-2540.52 3082.66,-2540.99 3080.39,-2541.38 3078.11,-2541.67 3075.82,-2541.86 3073.53,-2541.96 3071.24,-2541.96 3068.95,-2541.86 3066.67,-2541.67 3064.38,-2541.38 3062.11,-2540.99 3059.84,-2540.52 3057.58,-2539.95 3055.33,-2539.28 3053.1,-2538.53 3050.88,-2537.7 3048.68,-2536.77 3046.51,-2535.77 3044.37,-2534.68 3042.25,-2533.52 3040.18,-2532.29 3038.15,-2530.98 3036.17,-2529.61 3034.24,-2528.18 3032.37,-2526.68 3030.57,-2525.14 3028.84,-2523.54 3027.19,-2521.89 3025.63,-2520.21 3024.17,-2518.49 3022.81,-2516.73 3021.56,-2514.95 3020.43,-2513.14 3019.42,-2511.32 3018.55,-2509.49 3017.82,-2507.64 3017.24,-2505.8 3016.81,-2503.95 3016.54,-2502.12 3016.43,-2500.3 3016.49,-2498.49 3016.73,-2496.71 3017.15,-2494.95 3017.74,-2493.23 3018.52,-2491.55 3019.48,-2489.9 3020.63,-2488.3 3021.95,-2486.76 3023.46,-2485.26 3025.15,-2483.83 3027.01,-2482.46 3029.04,-2481.15 3031.24,-2479.92 3033.59,-2478.76 3036.1,-2477.67 3038.74,-2476.67 3041.52,-2475.74 3044.43,-2474.91 3047.44,-2474.16 3050.56,-2473.49 3053.76,-2472.92 3057.04,-2472.45 3060.39,-2472.06 3063.78,-2471.77 3067.21,-2471.58 3070.66,-2471.48 3074.11,-2471.48 3077.56,-2471.58"/>
<text text-anchor="start" x="3043.22" y="-2516.52" font-family="Times,serif" font-size="14.00">C4042775</text>
<text text-anchor="start" x="3054.9" y="-2502.52" font-family="Times,serif" font-size="14.00">seated</text>
<text text-anchor="start" x="3049.44" y="-2488.52" font-family="Times,serif" font-size="14.00">224:224</text>
</g>
<!-- id_28243780_DOT_6&#45;&#45;id_28243780_DOT_14 -->
<g id="edge7" class="edge">
<title>id_28243780_DOT_6&#45;&#45;id_28243780_DOT_14</title>
<path fill="none" stroke="black" d="M2819.83,-2234.27C2872.4,-2290.98 2988.72,-2416.46 3043.18,-2475.21"/>
<text text-anchor="middle" x="2905.26" y="-2357.54" font-family="Times,serif" font-size="14.00">0.015984</text>
</g>
<!-- id_28243780_DOT_17 -->
<g id="node17" class="node">
<title>id_28243780_DOT_17</title>
<polygon fill="coral" stroke="coral" points="2841.02,-1756.17 2844.49,-1756.36 2847.92,-1756.65 2851.3,-1757.03 2854.62,-1757.51 2857.86,-1758.08 2861.01,-1758.74 2864.06,-1759.49 2867,-1760.33 2869.81,-1761.25 2872.48,-1762.26 2875.02,-1763.34 2877.4,-1764.5 2879.62,-1765.74 2881.67,-1767.04 2883.56,-1768.42 2885.26,-1769.85 2886.79,-1771.34 2888.13,-1772.89 2889.29,-1774.49 2890.26,-1776.13 2891.05,-1777.82 2891.65,-1779.54 2892.07,-1781.3 2892.31,-1783.08 2892.37,-1784.88 2892.27,-1786.71 2891.99,-1788.54 2891.56,-1790.38 2890.97,-1792.23 2890.23,-1794.07 2889.35,-1795.91 2888.33,-1797.73 2887.19,-1799.54 2885.92,-1801.32 2884.55,-1803.07 2883.07,-1804.8 2881.49,-1806.48 2879.83,-1808.13 2878.08,-1809.72 2876.26,-1811.27 2874.37,-1812.76 2872.41,-1814.2 2870.41,-1815.57 2868.35,-1816.87 2866.26,-1818.11 2864.12,-1819.27 2861.95,-1820.36 2859.76,-1821.36 2857.54,-1822.28 2855.29,-1823.12 2853.03,-1823.87 2850.76,-1824.53 2848.47,-1825.1 2846.18,-1825.58 2843.88,-1825.96 2841.57,-1826.25 2839.26,-1826.45 2836.94,-1826.54 2834.63,-1826.54 2832.31,-1826.45 2830,-1826.25 2827.69,-1825.96 2825.39,-1825.58 2823.09,-1825.1 2820.81,-1824.53 2818.53,-1823.87 2816.28,-1823.12 2814.03,-1822.28 2811.81,-1821.36 2809.62,-1820.36 2807.45,-1819.27 2805.31,-1818.11 2803.22,-1816.87 2801.16,-1815.57 2799.15,-1814.2 2797.2,-1812.76 2795.31,-1811.27 2793.49,-1809.72 2791.74,-1808.13 2790.08,-1806.48 2788.5,-1804.8 2787.02,-1803.07 2785.64,-1801.32 2784.38,-1799.54 2783.24,-1797.73 2782.22,-1795.91 2781.34,-1794.07 2780.6,-1792.23 2780.01,-1790.38 2779.58,-1788.54 2779.3,-1786.71 2779.2,-1784.88 2779.26,-1783.08 2779.5,-1781.3 2779.92,-1779.54 2780.52,-1777.82 2781.31,-1776.13 2782.28,-1774.49 2783.44,-1772.89 2784.78,-1771.34 2786.31,-1769.85 2788.01,-1768.42 2789.9,-1767.04 2791.95,-1765.74 2794.17,-1764.5 2796.55,-1763.34 2799.09,-1762.26 2801.76,-1761.25 2804.57,-1760.33 2807.51,-1759.49 2810.56,-1758.74 2813.71,-1758.08 2816.95,-1757.51 2820.27,-1757.03 2823.65,-1756.65 2827.08,-1756.36 2830.55,-1756.17 2834.04,-1756.07 2837.53,-1756.07 2841.02,-1756.17"/>
<text text-anchor="start" x="2806.62" y="-1801.11" font-family="Times,serif" font-size="14.00">C0004268</text>
<text text-anchor="start" x="2806.24" y="-1787.11" font-family="Times,serif" font-size="14.00">attentional</text>
<text text-anchor="start" x="2812.84" y="-1773.11" font-family="Times,serif" font-size="14.00">331:331</text>
</g>
<!-- id_28243780_DOT_6&#45;&#45;id_28243780_DOT_17 -->
<g id="edge13" class="edge">
<title>id_28243780_DOT_6&#45;&#45;id_28243780_DOT_17</title>
<path fill="none" stroke="black" stroke-dasharray="1,5" d="M2796.69,-2170.07C2804.76,-2091.84 2824.08,-1904.67 2832.15,-1826.52"/>
<text text-anchor="middle" x="2788.17" y="-2001.09" font-family="Times,serif" font-size="14.00">0.818303</text>
</g>
<!-- id_28243780_DOT_11 -->
<g id="node11" class="node">
<title>id_28243780_DOT_11</title>
<polygon fill="blueviolet" stroke="blueviolet" points="939.33,-648.17 942.76,-648.37 946.15,-648.66 949.49,-649.04 952.77,-649.52 955.98,-650.09 959.1,-650.75 962.11,-651.5 965.01,-652.34 967.79,-653.26 970.44,-654.26 972.95,-655.35 975.3,-656.51 977.5,-657.75 979.53,-659.05 981.39,-660.42 983.08,-661.86 984.58,-663.35 985.91,-664.9 987.06,-666.49 988.02,-668.14 988.79,-669.82 989.39,-671.55 989.81,-673.3 990.04,-675.08 990.11,-676.89 990,-678.71 989.73,-680.55 989.3,-682.39 988.72,-684.24 987.99,-686.08 987.12,-687.91 986.11,-689.74 984.98,-691.54 983.73,-693.32 982.37,-695.08 980.91,-696.8 979.35,-698.49 977.7,-700.13 975.97,-701.73 974.17,-703.28 972.3,-704.77 970.37,-706.2 968.39,-707.58 966.36,-708.88 964.28,-710.12 962.17,-711.28 960.03,-712.36 957.86,-713.37 955.66,-714.29 953.44,-715.13 951.21,-715.88 948.96,-716.54 946.7,-717.11 944.43,-717.59 942.15,-717.97 939.87,-718.26 937.58,-718.45 935.3,-718.55 933.01,-718.55 930.72,-718.45 928.43,-718.26 926.15,-717.97 923.87,-717.59 921.6,-717.11 919.34,-716.54 917.09,-715.88 914.86,-715.13 912.64,-714.29 910.45,-713.37 908.28,-712.36 906.13,-711.28 904.02,-710.12 901.95,-708.88 899.91,-707.58 897.93,-706.2 896,-704.77 894.13,-703.28 892.33,-701.73 890.6,-700.13 888.95,-698.49 887.4,-696.8 885.93,-695.08 884.57,-693.32 883.32,-691.54 882.19,-689.74 881.19,-687.91 880.32,-686.08 879.59,-684.24 879,-682.39 878.57,-680.55 878.3,-678.71 878.2,-676.89 878.26,-675.08 878.5,-673.3 878.91,-671.55 879.51,-669.82 880.29,-668.14 881.25,-666.49 882.39,-664.9 883.72,-663.35 885.23,-661.86 886.91,-660.42 888.78,-659.05 890.81,-657.75 893,-656.51 895.36,-655.35 897.86,-654.26 900.51,-653.26 903.29,-652.34 906.19,-651.5 909.21,-650.75 912.32,-650.09 915.53,-649.52 918.81,-649.04 922.15,-648.66 925.55,-648.37 928.97,-648.17 932.42,-648.08 935.88,-648.08 939.33,-648.17"/>
<text text-anchor="start" x="904.98" y="-693.11" font-family="Times,serif" font-size="14.00">C0009240</text>
<text text-anchor="start" x="908.1" y="-679.11" font-family="Times,serif" font-size="14.00">cognitive</text>
<text text-anchor="start" x="911.21" y="-665.11" font-family="Times,serif" font-size="14.00">178:178</text>
</g>
<!-- id_28243780_DOT_7&#45;&#45;id_28243780_DOT_11 -->
<g id="edge8" class="edge">
<title>id_28243780_DOT_7&#45;&#45;id_28243780_DOT_11</title>
<path fill="none" stroke="black" d="M654.53,-522.41C713.73,-556.48 827.65,-622.03 890.26,-658.06"/>
<text text-anchor="middle" x="746.15" y="-593.04" font-family="Times,serif" font-size="14.00">0.008370</text>
</g>
<!-- id_28243780_DOT_10 -->
<g id="node10" class="node">
<title>id_28243780_DOT_10</title>
<polygon fill="cadetblue" stroke="cadetblue" points="3263.49,-1835.38 3274.4,-1835.57 3285.21,-1835.86 3295.85,-1836.24 3306.29,-1836.72 3316.5,-1837.29 3326.42,-1837.95 3336.02,-1838.7 3345.26,-1839.54 3354.11,-1840.46 3362.54,-1841.47 3370.51,-1842.55 3378,-1843.71 3385,-1844.95 3391.46,-1846.25 3397.39,-1847.62 3402.76,-1849.06 3407.56,-1850.55 3411.79,-1852.1 3415.43,-1853.7 3418.49,-1855.34 3420.97,-1857.03 3422.86,-1858.75 3424.19,-1860.5 3424.94,-1862.29 3425.15,-1864.09 3424.81,-1865.91 3423.95,-1867.75 3422.58,-1869.59 3420.72,-1871.44 3418.4,-1873.28 3415.62,-1875.12 3412.42,-1876.94 3408.82,-1878.74 3404.85,-1880.53 3400.52,-1882.28 3395.86,-1884 3390.89,-1885.69 3385.65,-1887.33 3380.15,-1888.93 3374.41,-1890.48 3368.46,-1891.97 3362.32,-1893.41 3356,-1894.78 3349.53,-1896.08 3342.93,-1897.32 3336.21,-1898.48 3329.38,-1899.56 3322.47,-1900.57 3315.48,-1901.49 3308.42,-1902.33 3301.31,-1903.08 3294.15,-1903.74 3286.95,-1904.31 3279.73,-1904.79 3272.48,-1905.17 3265.21,-1905.46 3257.93,-1905.65 3250.65,-1905.75 3243.36,-1905.75 3236.07,-1905.65 3228.8,-1905.46 3221.53,-1905.17 3214.28,-1904.79 3207.06,-1904.31 3199.86,-1903.74 3192.7,-1903.08 3185.59,-1902.33 3178.53,-1901.49 3171.54,-1900.57 3164.63,-1899.56 3157.8,-1898.48 3151.08,-1897.32 3144.48,-1896.08 3138.01,-1894.78 3131.69,-1893.41 3125.55,-1891.97 3119.6,-1890.48 3113.86,-1888.93 3108.36,-1887.33 3103.12,-1885.69 3098.15,-1884 3093.49,-1882.28 3089.16,-1880.53 3085.19,-1878.74 3081.59,-1876.94 3078.39,-1875.12 3075.61,-1873.28 3073.29,-1871.44 3071.43,-1869.59 3070.06,-1867.75 3069.2,-1865.91 3068.86,-1864.09 3069.06,-1862.29 3069.82,-1860.5 3071.15,-1858.75 3073.04,-1857.03 3075.52,-1855.34 3078.58,-1853.7 3082.22,-1852.1 3086.45,-1850.55 3091.25,-1849.06 3096.62,-1847.62 3102.55,-1846.25 3109.01,-1844.95 3116.01,-1843.71 3123.5,-1842.55 3131.47,-1841.47 3139.9,-1840.46 3148.75,-1839.54 3157.99,-1838.7 3167.59,-1837.95 3177.51,-1837.29 3187.72,-1836.72 3198.16,-1836.24 3208.8,-1835.86 3219.61,-1835.57 3230.52,-1835.38 3241.5,-1835.28 3252.51,-1835.28 3263.49,-1835.38"/>
<text text-anchor="start" x="3217.84" y="-1880.31" font-family="Times,serif" font-size="14.00">C0030055</text>
<text text-anchor="start" x="3136.6" y="-1866.31" font-family="Times,serif" font-size="14.00">oxygen consumed per distance traveled</text>
<text text-anchor="start" x="3224.06" y="-1852.31" font-family="Times,serif" font-size="14.00">157:161</text>
</g>
<!-- id_28243780_DOT_10&#45;&#45;id_28243780_DOT_17 -->
<g id="edge14" class="edge">
<title>id_28243780_DOT_10&#45;&#45;id_28243780_DOT_17</title>
<path fill="none" stroke="black" stroke-dasharray="1,5" d="M3111.5,-1844.41C3034.28,-1829.54 2942.06,-1811.78 2886.26,-1801.03"/>
<text text-anchor="middle" x="2972.63" y="-1825.52" font-family="Times,serif" font-size="14.00">0.938736</text>
</g>
<!-- id_28243780_DOT_12 -->
<g id="node12" class="node">
<title>id_28243780_DOT_12</title>
<polygon fill="blueviolet" stroke="blueviolet" points="1273.68,-801.96 1277.11,-802.16 1280.5,-802.45 1283.85,-802.83 1287.13,-803.31 1290.33,-803.88 1293.45,-804.54 1296.46,-805.29 1299.37,-806.13 1302.15,-807.05 1304.79,-808.05 1307.3,-809.14 1309.65,-810.3 1311.85,-811.53 1313.88,-812.84 1315.74,-814.21 1317.43,-815.65 1318.94,-817.14 1320.26,-818.69 1321.41,-820.28 1322.37,-821.93 1323.15,-823.61 1323.74,-825.34 1324.16,-827.09 1324.4,-828.87 1324.46,-830.68 1324.36,-832.5 1324.08,-834.34 1323.65,-836.18 1323.07,-838.03 1322.34,-839.87 1321.47,-841.7 1320.46,-843.53 1319.33,-845.33 1318.08,-847.11 1316.72,-848.87 1315.26,-850.59 1313.7,-852.28 1312.05,-853.92 1310.33,-855.52 1308.52,-857.07 1306.65,-858.56 1304.72,-859.99 1302.74,-861.37 1300.71,-862.67 1298.64,-863.9 1296.52,-865.07 1294.38,-866.15 1292.21,-867.16 1290.01,-868.08 1287.8,-868.92 1285.56,-869.67 1283.31,-870.33 1281.05,-870.9 1278.78,-871.38 1276.51,-871.76 1274.22,-872.05 1271.94,-872.24 1269.65,-872.34 1267.36,-872.34 1265.07,-872.24 1262.78,-872.05 1260.5,-871.76 1258.23,-871.38 1255.96,-870.9 1253.7,-870.33 1251.45,-869.67 1249.21,-868.92 1247,-868.08 1244.8,-867.16 1242.63,-866.15 1240.48,-865.07 1238.37,-863.9 1236.3,-862.67 1234.27,-861.37 1232.28,-859.99 1230.35,-858.56 1228.49,-857.07 1226.68,-855.52 1224.95,-853.92 1223.31,-852.28 1221.75,-850.59 1220.28,-848.87 1218.92,-847.11 1217.68,-845.33 1216.55,-843.53 1215.54,-841.7 1214.67,-839.87 1213.94,-838.03 1213.35,-836.18 1212.92,-834.34 1212.65,-832.5 1212.55,-830.68 1212.61,-828.87 1212.85,-827.09 1213.27,-825.34 1213.86,-823.61 1214.64,-821.93 1215.6,-820.28 1216.75,-818.69 1218.07,-817.14 1219.58,-815.65 1221.27,-814.21 1223.13,-812.84 1225.16,-811.53 1227.36,-810.3 1229.71,-809.14 1232.22,-808.05 1234.86,-807.05 1237.64,-806.13 1240.55,-805.29 1243.56,-804.54 1246.68,-803.88 1249.88,-803.31 1253.16,-802.83 1256.51,-802.45 1259.9,-802.16 1263.33,-801.96 1266.78,-801.87 1270.23,-801.87 1273.68,-801.96"/>
<text text-anchor="start" x="1239.34" y="-846.9" font-family="Times,serif" font-size="14.00">C0009240</text>
<text text-anchor="start" x="1242.46" y="-832.9" font-family="Times,serif" font-size="14.00">cognitive</text>
<text text-anchor="start" x="1245.56" y="-818.9" font-family="Times,serif" font-size="14.00">184:184</text>
</g>
<!-- id_28243780_DOT_11&#45;&#45;id_28243780_DOT_12 -->
<g id="edge9" class="edge">
<title>id_28243780_DOT_11&#45;&#45;id_28243780_DOT_12</title>
<path fill="none" stroke="black" d="M975.49,-702.32C1037.51,-730.85 1154.39,-784.62 1220.24,-814.9"/>
<text text-anchor="middle" x="1071.61" y="-761.41" font-family="Times,serif" font-size="14.00">0.001409</text>
</g>
<!-- id_28243780_DOT_12&#45;&#45;id_28243780_DOT_15 -->
<g id="edge10" class="edge">
<title>id_28243780_DOT_12&#45;&#45;id_28243780_DOT_15</title>
<path fill="none" stroke="black" d="M1311.84,-854.24C1375.72,-879.5 1494.89,-926.63 1562.74,-953.47"/>
<text text-anchor="middle" x="1411.04" y="-906.66" font-family="Times,serif" font-size="14.00">0.006343</text>
</g>
<!-- id_28243780_DOT_13 -->
<g id="node13" class="node">
<title>id_28243780_DOT_13</title>
<polygon fill="chartreuse" stroke="chartreuse" points="3079.84,-1300 3083.27,-1300.19 3086.67,-1300.48 3090.01,-1300.87 3093.29,-1301.34 3096.49,-1301.91 3099.61,-1302.58 3102.63,-1303.33 3105.53,-1304.16 3108.31,-1305.09 3110.96,-1306.09 3113.46,-1307.18 3115.81,-1308.34 3118.01,-1309.57 3120.04,-1310.88 3121.9,-1312.25 3123.59,-1313.68 3125.1,-1315.18 3126.43,-1316.72 3127.57,-1318.32 3128.53,-1319.97 3129.31,-1321.65 3129.91,-1323.37 3130.32,-1325.13 3130.56,-1326.91 3130.62,-1328.72 3130.52,-1330.54 3130.25,-1332.37 3129.82,-1334.22 3129.23,-1336.06 3128.5,-1337.91 3127.63,-1339.74 3126.63,-1341.56 3125.5,-1343.37 3124.25,-1345.15 3122.89,-1346.91 3121.42,-1348.63 3119.86,-1350.31 3118.22,-1351.96 3116.49,-1353.56 3114.69,-1355.1 3112.82,-1356.6 3110.89,-1358.03 3108.9,-1359.4 3106.87,-1360.71 3104.8,-1361.94 3102.69,-1363.1 3100.54,-1364.19 3098.37,-1365.19 3096.17,-1366.12 3093.96,-1366.95 3091.72,-1367.7 3089.48,-1368.37 3087.22,-1368.94 3084.95,-1369.41 3082.67,-1369.8 3080.39,-1370.09 3078.1,-1370.28 3075.81,-1370.38 3073.52,-1370.38 3071.23,-1370.28 3068.95,-1370.09 3066.67,-1369.8 3064.39,-1369.41 3062.12,-1368.94 3059.86,-1368.37 3057.61,-1367.7 3055.38,-1366.95 3053.16,-1366.12 3050.96,-1365.19 3048.79,-1364.19 3046.65,-1363.1 3044.54,-1361.94 3042.46,-1360.71 3040.43,-1359.4 3038.45,-1358.03 3036.52,-1356.6 3034.65,-1355.1 3032.85,-1353.56 3031.12,-1351.96 3029.47,-1350.31 3027.91,-1348.63 3026.45,-1346.91 3025.09,-1345.15 3023.84,-1343.37 3022.71,-1341.56 3021.7,-1339.74 3020.83,-1337.91 3020.1,-1336.06 3019.52,-1334.22 3019.09,-1332.37 3018.82,-1330.54 3018.71,-1328.72 3018.77,-1326.91 3019.01,-1325.13 3019.43,-1323.37 3020.02,-1321.65 3020.8,-1319.97 3021.76,-1318.32 3022.91,-1316.72 3024.24,-1315.18 3025.74,-1313.68 3027.43,-1312.25 3029.29,-1310.88 3031.32,-1309.57 3033.52,-1308.34 3035.87,-1307.18 3038.38,-1306.09 3041.02,-1305.09 3043.8,-1304.16 3046.71,-1303.33 3049.72,-1302.58 3052.84,-1301.91 3056.04,-1301.34 3059.32,-1300.87 3062.67,-1300.48 3066.06,-1300.19 3069.49,-1300 3072.94,-1299.9 3076.4,-1299.9 3079.84,-1300"/>
<text text-anchor="start" x="3045.5" y="-1344.94" font-family="Times,serif" font-size="14.00">C0936012</text>
<text text-anchor="start" x="3049.79" y="-1330.94" font-family="Times,serif" font-size="14.00">analyzed</text>
<text text-anchor="start" x="3051.72" y="-1316.94" font-family="Times,serif" font-size="14.00">200:200</text>
</g>
<!-- id_28243780_DOT_13&#45;&#45;id_28243780_DOT_18 -->
<g id="edge15" class="edge">
<title>id_28243780_DOT_13&#45;&#45;id_28243780_DOT_18</title>
<path fill="none" stroke="black" stroke-dasharray="1,5" d="M3021.03,-1338.72C2955.81,-1343.07 2846.24,-1350.38 2779.99,-1354.79"/>
<text text-anchor="middle" x="2874.26" y="-1349.56" font-family="Times,serif" font-size="14.00">0.813849</text>
</g>
<!-- id_28243780_DOT_16&#45;&#45;id_28243780_DOT_18 -->
<g id="edge16" class="edge">
<title>id_28243780_DOT_16&#45;&#45;id_28243780_DOT_18</title>
<path fill="none" stroke="black" stroke-dasharray="1,5" d="M2400.65,-1261.68C2477.97,-1284.84 2600.42,-1321.5 2670.36,-1342.45"/>
<text text-anchor="middle" x="2509.51" y="-1304.86" font-family="Times,serif" font-size="14.00">0.591131</text>
</g>
<!-- id_28243780_DOT_17&#45;&#45;id_28243780_DOT_18 -->
<g id="edge17" class="edge">
<title>id_28243780_DOT_17&#45;&#45;id_28243780_DOT_18</title>
<path fill="none" stroke="black" stroke-dasharray="1,5" d="M2826.73,-1756.26C2805.74,-1674.96 2753.94,-1474.32 2733.02,-1393.3"/>
<text text-anchor="middle" x="2753.63" y="-1577.58" font-family="Times,serif" font-size="14.00">0.929738</text>
</g>
</g>
</svg>
