<?xml version="1.0" encoding="UTF-8" standalone="no"?>
<!DOCTYPE svg PUBLIC "-//W3C//DTD SVG 1.1//EN"
 "http://www.w3.org/Graphics/SVG/1.1/DTD/svg11.dtd">
<!-- Generated by graphviz version 2.42.3 (20191010.1750)
 -->
<!-- Title: MST Pages: 1 -->
<svg width="3554pt" height="1681pt"
 viewBox="0.00 0.00 3553.67 1681.40" xmlns="http://www.w3.org/2000/svg" xmlns:xlink="http://www.w3.org/1999/xlink">
<g id="graph0" class="graph" transform="scale(1 1) rotate(0) translate(4 1677.4)">
<title>MST</title>
<polygon fill="white" stroke="transparent" points="-4,4 -4,-1677.4 3549.67,-1677.4 3549.67,4 -4,4"/>
<!-- id_28269523_DOT_1 -->
<g id="node1" class="node">
<title>id_28269523_DOT_1</title>
<polygon fill="aquamarine" stroke="aquamarine" points="1466.87,-1476.87 1472.42,-1477.06 1477.91,-1477.35 1483.32,-1477.73 1488.63,-1478.21 1493.82,-1478.78 1498.86,-1479.44 1503.74,-1480.19 1508.43,-1481.03 1512.93,-1481.95 1517.22,-1482.96 1521.27,-1484.04 1525.08,-1485.2 1528.63,-1486.44 1531.92,-1487.74 1534.93,-1489.11 1537.66,-1490.55 1540.1,-1492.04 1542.25,-1493.59 1544.1,-1495.19 1545.66,-1496.83 1546.91,-1498.52 1547.88,-1500.24 1548.55,-1501.99 1548.94,-1503.78 1549.04,-1505.58 1548.87,-1507.4 1548.43,-1509.24 1547.73,-1511.08 1546.79,-1512.93 1545.61,-1514.77 1544.2,-1516.6 1542.57,-1518.43 1540.74,-1520.23 1538.72,-1522.01 1536.52,-1523.77 1534.15,-1525.49 1531.63,-1527.18 1528.96,-1528.82 1526.17,-1530.42 1523.25,-1531.97 1520.23,-1533.46 1517.1,-1534.9 1513.89,-1536.27 1510.61,-1537.57 1507.25,-1538.81 1503.84,-1539.97 1500.37,-1541.05 1496.85,-1542.06 1493.3,-1542.98 1489.71,-1543.82 1486.1,-1544.57 1482.46,-1545.23 1478.8,-1545.8 1475.13,-1546.28 1471.44,-1546.66 1467.75,-1546.95 1464.05,-1547.14 1460.35,-1547.24 1456.64,-1547.24 1452.94,-1547.14 1449.24,-1546.95 1445.55,-1546.66 1441.86,-1546.28 1438.19,-1545.8 1434.53,-1545.23 1430.9,-1544.57 1427.28,-1543.82 1423.7,-1542.98 1420.14,-1542.06 1416.63,-1541.05 1413.16,-1539.97 1409.74,-1538.81 1406.39,-1537.57 1403.1,-1536.27 1399.89,-1534.9 1396.77,-1533.46 1393.74,-1531.97 1390.83,-1530.42 1388.03,-1528.82 1385.36,-1527.18 1382.84,-1525.49 1380.47,-1523.77 1378.27,-1522.01 1376.25,-1520.23 1374.42,-1518.43 1372.8,-1516.6 1371.39,-1514.77 1370.2,-1512.93 1369.26,-1511.08 1368.56,-1509.24 1368.12,-1507.4 1367.95,-1505.58 1368.06,-1503.78 1368.44,-1501.99 1369.12,-1500.24 1370.08,-1498.52 1371.34,-1496.83 1372.89,-1495.19 1374.75,-1493.59 1376.89,-1492.04 1379.33,-1490.55 1382.06,-1489.11 1385.07,-1487.74 1388.36,-1486.44 1391.92,-1485.2 1395.72,-1484.04 1399.78,-1482.96 1404.06,-1481.95 1408.56,-1481.03 1413.26,-1480.19 1418.13,-1479.44 1423.18,-1478.78 1428.36,-1478.21 1433.67,-1477.73 1439.08,-1477.35 1444.57,-1477.06 1450.12,-1476.87 1455.7,-1476.77 1461.29,-1476.77 1466.87,-1476.87"/>
<text text-anchor="start" x="1429.33" y="-1521.8" font-family="Times,serif" font-size="14.00">C0018827</text>
<text text-anchor="start" x="1406.23" y="-1507.8" font-family="Times,serif" font-size="14.00">cardiac ventricular</text>
<text text-anchor="start" x="1449.55" y="-1493.8" font-family="Times,serif" font-size="14.00">4:5</text>
</g>
<!-- id_28269523_DOT_8 -->
<g id="node8" class="node">
<title>id_28269523_DOT_8</title>
<polygon fill="cadetblue" stroke="cadetblue" points="1582.54,-1083.17 1589.2,-1083.37 1595.79,-1083.66 1602.29,-1084.04 1608.67,-1084.52 1614.89,-1085.09 1620.95,-1085.75 1626.81,-1086.5 1632.45,-1087.34 1637.85,-1088.26 1643,-1089.26 1647.87,-1090.35 1652.44,-1091.51 1656.71,-1092.74 1660.66,-1094.05 1664.27,-1095.42 1667.55,-1096.86 1670.48,-1098.35 1673.06,-1099.9 1675.29,-1101.49 1677.16,-1103.14 1678.67,-1104.82 1679.83,-1106.55 1680.63,-1108.3 1681.1,-1110.08 1681.22,-1111.89 1681.01,-1113.71 1680.49,-1115.55 1679.65,-1117.39 1678.52,-1119.24 1677.1,-1121.08 1675.4,-1122.91 1673.45,-1124.74 1671.25,-1126.54 1668.83,-1128.32 1666.18,-1130.08 1663.34,-1131.8 1660.31,-1133.49 1657.11,-1135.13 1653.75,-1136.73 1650.25,-1138.28 1646.61,-1139.77 1642.86,-1141.2 1639.01,-1142.58 1635.06,-1143.88 1631.03,-1145.11 1626.93,-1146.28 1622.76,-1147.36 1618.54,-1148.37 1614.27,-1149.29 1609.96,-1150.13 1605.62,-1150.88 1601.25,-1151.54 1596.86,-1152.11 1592.45,-1152.59 1588.03,-1152.97 1583.59,-1153.26 1579.15,-1153.45 1574.7,-1153.55 1570.25,-1153.55 1565.8,-1153.45 1561.36,-1153.26 1556.92,-1152.97 1552.5,-1152.59 1548.09,-1152.11 1543.7,-1151.54 1539.33,-1150.88 1534.98,-1150.13 1530.68,-1149.29 1526.41,-1148.37 1522.19,-1147.36 1518.02,-1146.28 1513.92,-1145.11 1509.89,-1143.88 1505.94,-1142.58 1502.08,-1141.2 1498.33,-1139.77 1494.7,-1138.28 1491.2,-1136.73 1487.84,-1135.13 1484.64,-1133.49 1481.61,-1131.8 1478.76,-1130.08 1476.12,-1128.32 1473.69,-1126.54 1471.5,-1124.74 1469.54,-1122.91 1467.85,-1121.08 1466.43,-1119.24 1465.3,-1117.39 1464.46,-1115.55 1463.93,-1113.71 1463.73,-1111.89 1463.85,-1110.08 1464.32,-1108.3 1465.12,-1106.55 1466.28,-1104.82 1467.79,-1103.14 1469.66,-1101.49 1471.88,-1099.9 1474.46,-1098.35 1477.4,-1096.86 1480.67,-1095.42 1484.29,-1094.05 1488.24,-1092.74 1492.51,-1091.51 1497.08,-1090.35 1501.95,-1089.26 1507.09,-1088.26 1512.5,-1087.34 1518.14,-1086.5 1524,-1085.75 1530.05,-1085.09 1536.28,-1084.52 1542.66,-1084.04 1549.15,-1083.66 1555.75,-1083.37 1562.41,-1083.17 1569.12,-1083.08 1575.83,-1083.08 1582.54,-1083.17"/>
<text text-anchor="start" x="1543.31" y="-1128.11" font-family="Times,serif" font-size="14.00">C2339371</text>
<text text-anchor="start" x="1508.35" y="-1114.11" font-family="Times,serif" font-size="14.00">ventricular cardiac cell</text>
<text text-anchor="start" x="1556.53" y="-1100.11" font-family="Times,serif" font-size="14.00">78:80</text>
</g>
<!-- id_28269523_DOT_1&#45;&#45;id_28269523_DOT_8 -->
<g id="edge6" class="edge">
<title>id_28269523_DOT_1&#45;&#45;id_28269523_DOT_8</title>
<path fill="none" stroke="black" stroke-dasharray="1,5" d="M1468.71,-1476.72C1490.38,-1401.89 1540.71,-1228.01 1562.32,-1153.38"/>
<text text-anchor="middle" x="1489.27" y="-1317.85" font-family="Times,serif" font-size="14.00">0.319339</text>
</g>
<!-- id_28269523_DOT_2 -->
<g id="node2" class="node">
<title>id_28269523_DOT_2</title>
<polygon fill="bisque" stroke="bisque" points="3466.2,-960.12 3471.57,-960.32 3476.89,-960.61 3482.13,-960.99 3487.27,-961.47 3492.29,-962.04 3497.17,-962.7 3501.89,-963.45 3506.44,-964.29 3510.8,-965.21 3514.94,-966.22 3518.87,-967.3 3522.56,-968.46 3526,-969.7 3529.18,-971 3532.1,-972.37 3534.74,-973.81 3537.1,-975.3 3539.18,-976.85 3540.98,-978.44 3542.48,-980.09 3543.7,-981.77 3544.63,-983.5 3545.28,-985.25 3545.66,-987.04 3545.76,-988.84 3545.59,-990.66 3545.17,-992.5 3544.49,-994.34 3543.58,-996.19 3542.43,-998.03 3541.07,-999.86 3539.5,-1001.69 3537.72,-1003.49 3535.77,-1005.27 3533.64,-1007.03 3531.34,-1008.75 3528.9,-1010.44 3526.32,-1012.08 3523.61,-1013.68 3520.79,-1015.23 3517.86,-1016.72 3514.84,-1018.15 3511.73,-1019.53 3508.55,-1020.83 3505.3,-1022.07 3501.99,-1023.23 3498.63,-1024.31 3495.23,-1025.32 3491.79,-1026.24 3488.31,-1027.08 3484.81,-1027.83 3481.29,-1028.49 3477.75,-1029.06 3474.19,-1029.54 3470.63,-1029.92 3467.05,-1030.21 3463.47,-1030.4 3459.88,-1030.5 3456.3,-1030.5 3452.71,-1030.4 3449.13,-1030.21 3445.55,-1029.92 3441.98,-1029.54 3438.43,-1029.06 3434.89,-1028.49 3431.37,-1027.83 3427.86,-1027.08 3424.39,-1026.24 3420.95,-1025.32 3417.55,-1024.31 3414.19,-1023.23 3410.88,-1022.07 3407.63,-1020.83 3404.45,-1019.53 3401.34,-1018.15 3398.32,-1016.72 3395.39,-1015.23 3392.57,-1013.68 3389.86,-1012.08 3387.28,-1010.44 3384.83,-1008.75 3382.54,-1007.03 3380.41,-1005.27 3378.45,-1003.49 3376.68,-1001.69 3375.11,-999.86 3373.74,-998.03 3372.6,-996.19 3371.68,-994.34 3371.01,-992.5 3370.59,-990.66 3370.42,-988.84 3370.52,-987.04 3370.89,-985.25 3371.54,-983.5 3372.48,-981.77 3373.7,-980.09 3375.2,-978.44 3377,-976.85 3379.07,-975.3 3381.44,-973.81 3384.08,-972.37 3387,-971 3390.18,-969.7 3393.62,-968.46 3397.31,-967.3 3401.23,-966.22 3405.38,-965.21 3409.74,-964.29 3414.28,-963.45 3419.01,-962.7 3423.89,-962.04 3428.91,-961.47 3434.05,-960.99 3439.29,-960.61 3444.6,-960.32 3449.98,-960.12 3455.38,-960.03 3460.8,-960.03 3466.2,-960.12"/>
<text text-anchor="start" x="3428.92" y="-1005.06" font-family="Times,serif" font-size="14.00">C0430467</text>
<text text-anchor="start" x="3407.93" y="-991.06" font-family="Times,serif" font-size="14.00">electrophysiology</text>
<text text-anchor="start" x="3449.14" y="-977.06" font-family="Times,serif" font-size="14.00">6:6</text>
</g>
<!-- id_28269523_DOT_9 -->
<g id="node9" class="node">
<title>id_28269523_DOT_9</title>
<polygon fill="bisque" stroke="bisque" points="3102.48,-980.81 3107.86,-981 3113.17,-981.29 3118.41,-981.67 3123.55,-982.15 3128.57,-982.72 3133.45,-983.38 3138.18,-984.13 3142.73,-984.97 3147.08,-985.89 3151.23,-986.9 3155.15,-987.98 3158.84,-989.14 3162.28,-990.38 3165.46,-991.68 3168.38,-993.05 3171.02,-994.49 3173.39,-995.98 3175.47,-997.53 3177.26,-999.13 3178.76,-1000.77 3179.98,-1002.46 3180.92,-1004.18 3181.57,-1005.93 3181.94,-1007.72 3182.04,-1009.52 3181.88,-1011.34 3181.45,-1013.18 3180.78,-1015.02 3179.86,-1016.87 3178.72,-1018.71 3177.35,-1020.54 3175.78,-1022.37 3174.01,-1024.17 3172.05,-1025.95 3169.92,-1027.71 3167.63,-1029.43 3165.18,-1031.12 3162.6,-1032.76 3159.89,-1034.36 3157.07,-1035.91 3154.14,-1037.4 3151.12,-1038.84 3148.01,-1040.21 3144.83,-1041.51 3141.58,-1042.75 3138.27,-1043.91 3134.91,-1044.99 3131.51,-1046 3128.07,-1046.92 3124.6,-1047.76 3121.1,-1048.51 3117.57,-1049.17 3114.03,-1049.74 3110.48,-1050.22 3106.91,-1050.6 3103.33,-1050.89 3099.75,-1051.08 3096.17,-1051.18 3092.58,-1051.18 3088.99,-1051.08 3085.41,-1050.89 3081.84,-1050.6 3078.27,-1050.22 3074.71,-1049.74 3071.17,-1049.17 3067.65,-1048.51 3064.15,-1047.76 3060.68,-1046.92 3057.23,-1046 3053.83,-1044.99 3050.47,-1043.91 3047.16,-1042.75 3043.91,-1041.51 3040.73,-1040.21 3037.62,-1038.84 3034.6,-1037.4 3031.67,-1035.91 3028.85,-1034.36 3026.14,-1032.76 3023.56,-1031.12 3021.12,-1029.43 3018.82,-1027.71 3016.69,-1025.95 3014.74,-1024.17 3012.97,-1022.37 3011.39,-1020.54 3010.03,-1018.71 3008.88,-1016.87 3007.97,-1015.02 3007.29,-1013.18 3006.87,-1011.34 3006.7,-1009.52 3006.8,-1007.72 3007.18,-1005.93 3007.83,-1004.18 3008.76,-1002.46 3009.98,-1000.77 3011.49,-999.13 3013.28,-997.53 3015.36,-995.98 3017.72,-994.49 3020.36,-993.05 3023.28,-991.68 3026.46,-990.38 3029.9,-989.14 3033.59,-987.98 3037.52,-986.9 3041.66,-985.89 3046.02,-984.97 3050.57,-984.13 3055.29,-983.38 3060.17,-982.72 3065.19,-982.15 3070.33,-981.67 3075.57,-981.29 3080.89,-981 3086.26,-980.81 3091.66,-980.71 3097.08,-980.71 3102.48,-980.81"/>
<text text-anchor="start" x="3065.2" y="-1025.74" font-family="Times,serif" font-size="14.00">C0430467</text>
<text text-anchor="start" x="3044.22" y="-1011.74" font-family="Times,serif" font-size="14.00">electrophysiology</text>
<text text-anchor="start" x="3078.43" y="-997.74" font-family="Times,serif" font-size="14.00">81:81</text>
</g>
<!-- id_28269523_DOT_2&#45;&#45;id_28269523_DOT_9 -->
<g id="edge1" class="edge">
<title>id_28269523_DOT_2&#45;&#45;id_28269523_DOT_9</title>
<path fill="none" stroke="black" d="M3375.1,-999.98C3317.44,-1003.26 3240.74,-1007.62 3182.08,-1010.96"/>
<text text-anchor="middle" x="3252.34" y="-1008.27" font-family="Times,serif" font-size="14.00">0.022944</text>
</g>
<!-- id_28269523_DOT_3 -->
<g id="node3" class="node">
<title>id_28269523_DOT_3</title>
<polygon fill="blue" stroke="blue" points="1245.52,-812.14 1248.95,-812.33 1252.34,-812.62 1255.68,-813.01 1258.97,-813.48 1262.17,-814.05 1265.29,-814.71 1268.3,-815.47 1271.2,-816.3 1273.98,-817.23 1276.63,-818.23 1279.14,-819.32 1281.49,-820.48 1283.69,-821.71 1285.72,-823.02 1287.58,-824.39 1289.27,-825.82 1290.77,-827.31 1292.1,-828.86 1293.25,-830.46 1294.21,-832.1 1294.98,-833.79 1295.58,-835.51 1296,-837.27 1296.23,-839.05 1296.3,-840.86 1296.19,-842.68 1295.92,-844.51 1295.49,-846.36 1294.91,-848.2 1294.18,-850.04 1293.31,-851.88 1292.3,-853.7 1291.17,-855.51 1289.92,-857.29 1288.56,-859.04 1287.1,-860.77 1285.54,-862.45 1283.89,-864.1 1282.16,-865.7 1280.36,-867.24 1278.49,-868.74 1276.56,-870.17 1274.58,-871.54 1272.55,-872.85 1270.47,-874.08 1268.36,-875.24 1266.22,-876.33 1264.05,-877.33 1261.85,-878.26 1259.63,-879.09 1257.4,-879.84 1255.15,-880.5 1252.89,-881.08 1250.62,-881.55 1248.34,-881.94 1246.06,-882.22 1243.78,-882.42 1241.49,-882.51 1239.2,-882.51 1236.91,-882.42 1234.62,-882.22 1232.34,-881.94 1230.06,-881.55 1227.79,-881.08 1225.53,-880.5 1223.28,-879.84 1221.05,-879.09 1218.83,-878.26 1216.64,-877.33 1214.47,-876.33 1212.32,-875.24 1210.21,-874.08 1208.14,-872.85 1206.11,-871.54 1204.12,-870.17 1202.19,-868.74 1200.32,-867.24 1198.52,-865.7 1196.79,-864.1 1195.15,-862.45 1193.59,-860.77 1192.12,-859.04 1190.76,-857.29 1189.51,-855.51 1188.38,-853.7 1187.38,-851.88 1186.51,-850.04 1185.78,-848.2 1185.19,-846.36 1184.76,-844.51 1184.49,-842.68 1184.39,-840.86 1184.45,-839.05 1184.69,-837.27 1185.1,-835.51 1185.7,-833.79 1186.48,-832.1 1187.44,-830.46 1188.58,-828.86 1189.91,-827.31 1191.42,-825.82 1193.1,-824.39 1194.97,-823.02 1197,-821.71 1199.19,-820.48 1201.55,-819.32 1204.05,-818.23 1206.7,-817.23 1209.48,-816.3 1212.38,-815.47 1215.4,-814.71 1218.51,-814.05 1221.72,-813.48 1225,-813.01 1228.34,-812.62 1231.74,-812.33 1235.16,-812.14 1238.61,-812.04 1242.07,-812.04 1245.52,-812.14"/>
<text text-anchor="start" x="1211.17" y="-857.08" font-family="Times,serif" font-size="14.00">C1519941</text>
<text text-anchor="start" x="1212.35" y="-843.08" font-family="Times,serif" font-size="14.00">validation</text>
<text text-anchor="start" x="1224.4" y="-829.08" font-family="Times,serif" font-size="14.00">22:22</text>
</g>
<!-- id_28269523_DOT_5 -->
<g id="node5" class="node">
<title>id_28269523_DOT_5</title>
<polygon fill="brown" stroke="brown" points="819.98,-875.78 823.75,-875.97 827.49,-876.26 831.17,-876.65 834.78,-877.12 838.31,-877.69 841.74,-878.35 845.06,-879.11 848.25,-879.94 851.31,-880.87 854.23,-881.87 856.98,-882.96 859.57,-884.12 861.99,-885.35 864.23,-886.66 866.28,-888.03 868.14,-889.46 869.8,-890.95 871.26,-892.5 872.52,-894.1 873.57,-895.74 874.43,-897.43 875.09,-899.15 875.54,-900.91 875.81,-902.69 875.88,-904.5 875.76,-906.32 875.46,-908.15 874.99,-910 874.35,-911.84 873.54,-913.68 872.58,-915.52 871.48,-917.34 870.23,-919.15 868.86,-920.93 867.36,-922.69 865.75,-924.41 864.03,-926.09 862.22,-927.74 860.32,-929.34 858.33,-930.88 856.27,-932.38 854.15,-933.81 851.97,-935.18 849.73,-936.49 847.45,-937.72 845.12,-938.88 842.76,-939.97 840.37,-940.97 837.95,-941.9 835.51,-942.73 833.05,-943.48 830.58,-944.14 828.09,-944.72 825.59,-945.19 823.09,-945.58 820.57,-945.87 818.06,-946.06 815.54,-946.15 813.02,-946.15 810.5,-946.06 807.98,-945.87 805.47,-945.58 802.96,-945.19 800.46,-944.72 797.97,-944.14 795.5,-943.48 793.04,-942.73 790.6,-941.9 788.18,-940.97 785.79,-939.97 783.43,-938.88 781.11,-937.72 778.82,-936.49 776.59,-935.18 774.4,-933.81 772.28,-932.38 770.22,-930.88 768.24,-929.34 766.33,-927.74 764.52,-926.09 762.8,-924.41 761.19,-922.69 759.7,-920.93 758.32,-919.15 757.08,-917.34 755.97,-915.52 755.01,-913.68 754.21,-911.84 753.56,-910 753.09,-908.15 752.79,-906.32 752.68,-904.5 752.75,-902.69 753.01,-900.91 753.47,-899.15 754.12,-897.43 754.98,-895.74 756.04,-894.1 757.3,-892.5 758.76,-890.95 760.42,-889.46 762.27,-888.03 764.32,-886.66 766.56,-885.35 768.98,-884.12 771.57,-882.96 774.33,-881.87 777.24,-880.87 780.3,-879.94 783.5,-879.11 786.82,-878.35 790.25,-877.69 793.77,-877.12 797.39,-876.65 801.07,-876.26 804.8,-875.97 808.58,-875.78 812.37,-875.68 816.18,-875.68 819.98,-875.78"/>
<text text-anchor="start" x="785.11" y="-920.72" font-family="Times,serif" font-size="14.00">C0810633</text>
<text text-anchor="start" x="781.24" y="-906.72" font-family="Times,serif" font-size="14.00">pacemakers</text>
<text text-anchor="start" x="798.33" y="-892.72" font-family="Times,serif" font-size="14.00">33:33</text>
</g>
<!-- id_28269523_DOT_3&#45;&#45;id_28269523_DOT_5 -->
<g id="edge7" class="edge">
<title>id_28269523_DOT_3&#45;&#45;id_28269523_DOT_5</title>
<path fill="none" stroke="black" stroke-dasharray="1,5" d="M1188.95,-854.96C1110.27,-866.71 960.22,-889.12 875.84,-901.72"/>
<text text-anchor="middle" x="1006.14" y="-881.14" font-family="Times,serif" font-size="14.00">0.872576</text>
</g>
<!-- id_28269523_DOT_3&#45;&#45;id_28269523_DOT_8 -->
<g id="edge8" class="edge">
<title>id_28269523_DOT_3&#45;&#45;id_28269523_DOT_8</title>
<path fill="none" stroke="black" stroke-dasharray="1,5" d="M1272.19,-873.27C1332.75,-922.69 1464.44,-1030.16 1531.49,-1084.86"/>
<text text-anchor="middle" x="1375.59" y="-981.87" font-family="Times,serif" font-size="14.00">0.905102</text>
</g>
<!-- id_28269523_DOT_10 -->
<g id="node10" class="node">
<title>id_28269523_DOT_10</title>
<polygon fill="blue" stroke="blue" points="1314.88,-395.54 1318.31,-395.73 1321.7,-396.02 1325.04,-396.41 1328.33,-396.88 1331.53,-397.45 1334.65,-398.11 1337.66,-398.86 1340.56,-399.7 1343.34,-400.63 1345.99,-401.63 1348.5,-402.72 1350.85,-403.88 1353.05,-405.11 1355.08,-406.42 1356.94,-407.79 1358.63,-409.22 1360.13,-410.71 1361.46,-412.26 1362.61,-413.86 1363.57,-415.5 1364.34,-417.19 1364.94,-418.91 1365.36,-420.67 1365.59,-422.45 1365.66,-424.26 1365.55,-426.08 1365.28,-427.91 1364.85,-429.76 1364.27,-431.6 1363.54,-433.44 1362.67,-435.28 1361.66,-437.1 1360.53,-438.91 1359.28,-440.69 1357.92,-442.44 1356.46,-444.17 1354.9,-445.85 1353.25,-447.5 1351.52,-449.1 1349.72,-450.64 1347.85,-452.14 1345.92,-453.57 1343.94,-454.94 1341.91,-456.25 1339.83,-457.48 1337.72,-458.64 1335.58,-459.73 1333.41,-460.73 1331.21,-461.65 1328.99,-462.49 1326.76,-463.24 1324.51,-463.9 1322.25,-464.47 1319.98,-464.95 1317.7,-465.34 1315.42,-465.62 1313.13,-465.82 1310.85,-465.91 1308.56,-465.91 1306.27,-465.82 1303.98,-465.62 1301.7,-465.34 1299.42,-464.95 1297.15,-464.47 1294.89,-463.9 1292.64,-463.24 1290.41,-462.49 1288.19,-461.65 1286,-460.73 1283.83,-459.73 1281.68,-458.64 1279.57,-457.48 1277.5,-456.25 1275.46,-454.94 1273.48,-453.57 1271.55,-452.14 1269.68,-450.64 1267.88,-449.1 1266.15,-447.5 1264.5,-445.85 1262.95,-444.17 1261.48,-442.44 1260.12,-440.69 1258.87,-438.91 1257.74,-437.1 1256.74,-435.28 1255.87,-433.44 1255.14,-431.6 1254.55,-429.76 1254.12,-427.91 1253.85,-426.08 1253.75,-424.26 1253.81,-422.45 1254.05,-420.67 1254.46,-418.91 1255.06,-417.19 1255.84,-415.5 1256.8,-413.86 1257.94,-412.26 1259.27,-410.71 1260.78,-409.22 1262.46,-407.79 1264.33,-406.42 1266.36,-405.11 1268.55,-403.88 1270.91,-402.72 1273.41,-401.63 1276.06,-400.63 1278.84,-399.7 1281.74,-398.86 1284.76,-398.11 1287.87,-397.45 1291.08,-396.88 1294.36,-396.41 1297.7,-396.02 1301.1,-395.73 1304.52,-395.54 1307.97,-395.44 1311.43,-395.44 1314.88,-395.54"/>
<text text-anchor="start" x="1280.53" y="-440.48" font-family="Times,serif" font-size="14.00">C1519941</text>
<text text-anchor="start" x="1281.71" y="-426.48" font-family="Times,serif" font-size="14.00">validation</text>
<text text-anchor="start" x="1287.27" y="-412.48" font-family="Times,serif" font-size="14.00">110:110</text>
</g>
<!-- id_28269523_DOT_3&#45;&#45;id_28269523_DOT_10 -->
<g id="edge2" class="edge">
<title>id_28269523_DOT_3&#45;&#45;id_28269523_DOT_10</title>
<path fill="none" stroke="black" d="M1246.2,-812.12C1259.28,-733.55 1290.75,-544.51 1303.84,-465.89"/>
<text text-anchor="middle" x="1249.28" y="-641.81" font-family="Times,serif" font-size="14.00">0.011154</text>
</g>
<!-- id_28269523_DOT_4 -->
<g id="node4" class="node">
<title>id_28269523_DOT_4</title>
<polygon fill="blueviolet" stroke="blueviolet" points="474.77,-1110.99 479.66,-1111.19 484.5,-1111.48 489.27,-1111.86 493.95,-1112.34 498.52,-1112.91 502.97,-1113.57 507.27,-1114.32 511.41,-1115.16 515.37,-1116.08 519.15,-1117.08 522.72,-1118.17 526.08,-1119.33 529.21,-1120.57 532.11,-1121.87 534.77,-1123.24 537.17,-1124.68 539.33,-1126.17 541.22,-1127.72 542.85,-1129.31 544.22,-1130.96 545.33,-1132.64 546.18,-1134.37 546.78,-1136.12 547.12,-1137.9 547.21,-1139.71 547.06,-1141.53 546.67,-1143.37 546.06,-1145.21 545.22,-1147.06 544.18,-1148.9 542.94,-1150.73 541.5,-1152.56 539.89,-1154.36 538.11,-1156.14 536.17,-1157.9 534.08,-1159.62 531.86,-1161.31 529.51,-1162.95 527.04,-1164.55 524.47,-1166.1 521.8,-1167.59 519.05,-1169.02 516.22,-1170.4 513.32,-1171.7 510.37,-1172.94 507.35,-1174.1 504.3,-1175.18 501.2,-1176.19 498.06,-1177.11 494.9,-1177.95 491.71,-1178.7 488.51,-1179.36 485.28,-1179.93 482.05,-1180.41 478.8,-1180.79 475.54,-1181.08 472.28,-1181.27 469.01,-1181.37 465.75,-1181.37 462.48,-1181.27 459.22,-1181.08 455.97,-1180.79 452.72,-1180.41 449.48,-1179.93 446.26,-1179.36 443.05,-1178.7 439.86,-1177.95 436.7,-1177.11 433.57,-1176.19 430.47,-1175.18 427.41,-1174.1 424.4,-1172.94 421.44,-1171.7 418.54,-1170.4 415.71,-1169.02 412.96,-1167.59 410.29,-1166.1 407.72,-1164.55 405.26,-1162.95 402.91,-1161.31 400.68,-1159.62 398.59,-1157.9 396.65,-1156.14 394.87,-1154.36 393.26,-1152.56 391.83,-1150.73 390.58,-1148.9 389.54,-1147.06 388.71,-1145.21 388.09,-1143.37 387.71,-1141.53 387.56,-1139.71 387.65,-1137.9 387.99,-1136.12 388.58,-1134.37 389.43,-1132.64 390.54,-1130.96 391.91,-1129.31 393.54,-1127.72 395.44,-1126.17 397.59,-1124.68 400,-1123.24 402.65,-1121.87 405.55,-1120.57 408.68,-1119.33 412.04,-1118.17 415.61,-1117.08 419.39,-1116.08 423.36,-1115.16 427.5,-1114.32 431.8,-1113.57 436.24,-1112.91 440.81,-1112.34 445.49,-1111.86 450.26,-1111.48 455.1,-1111.19 460,-1110.99 464.92,-1110.9 469.85,-1110.9 474.77,-1110.99"/>
<text text-anchor="start" x="438.21" y="-1155.93" font-family="Times,serif" font-size="14.00">C0025080</text>
<text text-anchor="start" x="422.49" y="-1141.93" font-family="Times,serif" font-size="14.00">medical devices</text>
<text text-anchor="start" x="451.44" y="-1127.93" font-family="Times,serif" font-size="14.00">28:29</text>
</g>
<!-- id_28269523_DOT_4&#45;&#45;id_28269523_DOT_5 -->
<g id="edge9" class="edge">
<title>id_28269523_DOT_4&#45;&#45;id_28269523_DOT_5</title>
<path fill="none" stroke="black" stroke-dasharray="1,5" d="M512.73,-1115.38C582.15,-1068.31 713.43,-979.3 777.39,-935.93"/>
<text text-anchor="middle" x="619.32" y="-1028.46" font-family="Times,serif" font-size="14.00">0.911192</text>
</g>
<!-- id_28269523_DOT_6 -->
<g id="node6" class="node">
<title>id_28269523_DOT_6</title>
<polygon fill="blueviolet" stroke="blueviolet" points="314.04,-1476.84 318.93,-1477.04 323.77,-1477.32 328.54,-1477.71 333.22,-1478.19 337.79,-1478.76 342.23,-1479.42 346.53,-1480.17 350.68,-1481.01 354.64,-1481.93 358.42,-1482.93 361.99,-1484.02 365.35,-1485.18 368.48,-1486.41 371.38,-1487.72 374.04,-1489.09 376.44,-1490.52 378.59,-1492.02 380.49,-1493.56 382.12,-1495.16 383.49,-1496.81 384.6,-1498.49 385.45,-1500.22 386.04,-1501.97 386.38,-1503.75 386.47,-1505.56 386.32,-1507.38 385.94,-1509.22 385.32,-1511.06 384.49,-1512.9 383.45,-1514.75 382.21,-1516.58 380.77,-1518.41 379.16,-1520.21 377.38,-1521.99 375.44,-1523.75 373.35,-1525.47 371.12,-1527.16 368.77,-1528.8 366.31,-1530.4 363.74,-1531.95 361.07,-1533.44 358.32,-1534.87 355.49,-1536.24 352.59,-1537.55 349.63,-1538.78 346.62,-1539.95 343.56,-1541.03 340.46,-1542.04 337.33,-1542.96 334.17,-1543.8 330.98,-1544.55 327.77,-1545.21 324.55,-1545.78 321.31,-1546.26 318.06,-1546.64 314.81,-1546.93 311.55,-1547.12 308.28,-1547.22 305.02,-1547.22 301.75,-1547.12 298.49,-1546.93 295.23,-1546.64 291.99,-1546.26 288.75,-1545.78 285.52,-1545.21 282.32,-1544.55 279.13,-1543.8 275.97,-1542.96 272.83,-1542.04 269.74,-1541.03 266.68,-1539.95 263.66,-1538.78 260.71,-1537.55 257.81,-1536.24 254.98,-1534.87 252.23,-1533.44 249.56,-1531.95 246.99,-1530.4 244.52,-1528.8 242.17,-1527.16 239.95,-1525.47 237.86,-1523.75 235.92,-1521.99 234.14,-1520.21 232.53,-1518.41 231.09,-1516.58 229.85,-1514.75 228.81,-1512.9 227.97,-1511.06 227.36,-1509.22 226.97,-1507.38 226.82,-1505.56 226.92,-1503.75 227.25,-1501.97 227.85,-1500.22 228.7,-1498.49 229.81,-1496.81 231.18,-1495.16 232.81,-1493.56 234.7,-1492.02 236.86,-1490.52 239.26,-1489.09 241.92,-1487.72 244.82,-1486.41 247.95,-1485.18 251.31,-1484.02 254.88,-1482.93 258.66,-1481.93 262.62,-1481.01 266.76,-1480.17 271.06,-1479.42 275.51,-1478.76 280.08,-1478.19 284.76,-1477.71 289.53,-1477.32 294.37,-1477.04 299.26,-1476.84 304.18,-1476.75 309.11,-1476.75 314.04,-1476.84"/>
<text text-anchor="start" x="277.48" y="-1521.78" font-family="Times,serif" font-size="14.00">C0025080</text>
<text text-anchor="start" x="261.75" y="-1507.78" font-family="Times,serif" font-size="14.00">medical devices</text>
<text text-anchor="start" x="290.7" y="-1493.78" font-family="Times,serif" font-size="14.00">45:46</text>
</g>
<!-- id_28269523_DOT_4&#45;&#45;id_28269523_DOT_6 -->
<g id="edge3" class="edge">
<title>id_28269523_DOT_4&#45;&#45;id_28269523_DOT_6</title>
<path fill="none" stroke="black" d="M452.26,-1180.55C421.67,-1250.19 352.72,-1407.11 321.96,-1477.12"/>
<text text-anchor="middle" x="360.86" y="-1331.64" font-family="Times,serif" font-size="14.00">0.003292</text>
</g>
<!-- id_28269523_DOT_16 -->
<g id="node16" class="node">
<title>id_28269523_DOT_16</title>
<polygon fill="blueviolet" stroke="blueviolet" points="87.05,-994.39 91.94,-994.58 96.78,-994.87 101.55,-995.26 106.23,-995.73 110.8,-996.3 115.25,-996.97 119.55,-997.72 123.69,-998.55 127.66,-999.48 131.43,-1000.48 135,-1001.57 138.36,-1002.73 141.5,-1003.96 144.39,-1005.27 147.05,-1006.64 149.45,-1008.07 151.61,-1009.57 153.5,-1011.11 155.13,-1012.71 156.5,-1014.36 157.61,-1016.04 158.46,-1017.76 159.06,-1019.52 159.4,-1021.3 159.49,-1023.11 159.34,-1024.93 158.95,-1026.76 158.34,-1028.61 157.5,-1030.45 156.46,-1032.3 155.22,-1034.13 153.79,-1035.95 152.17,-1037.76 150.39,-1039.54 148.45,-1041.3 146.36,-1043.02 144.14,-1044.7 141.79,-1046.35 139.32,-1047.95 136.75,-1049.49 134.09,-1050.99 131.33,-1052.42 128.5,-1053.79 125.61,-1055.1 122.65,-1056.33 119.63,-1057.49 116.58,-1058.58 113.48,-1059.58 110.34,-1060.51 107.18,-1061.34 104,-1062.09 100.79,-1062.76 97.56,-1063.33 94.33,-1063.8 91.08,-1064.19 87.82,-1064.48 84.56,-1064.67 81.3,-1064.77 78.03,-1064.77 74.76,-1064.67 71.5,-1064.48 68.25,-1064.19 65,-1063.8 61.76,-1063.33 58.54,-1062.76 55.33,-1062.09 52.14,-1061.34 48.98,-1060.51 45.85,-1059.58 42.75,-1058.58 39.69,-1057.49 36.68,-1056.33 33.72,-1055.1 30.82,-1053.79 27.99,-1052.42 25.24,-1050.99 22.57,-1049.49 20,-1047.95 17.54,-1046.35 15.19,-1044.7 12.96,-1043.02 10.87,-1041.3 8.93,-1039.54 7.15,-1037.76 5.54,-1035.95 4.11,-1034.13 2.86,-1032.3 1.82,-1030.45 0.99,-1028.61 0.37,-1026.76 -0.01,-1024.93 -0.16,-1023.11 -0.07,-1021.3 0.27,-1019.52 0.86,-1017.76 1.71,-1016.04 2.82,-1014.36 4.19,-1012.71 5.82,-1011.11 7.72,-1009.57 9.87,-1008.07 12.28,-1006.64 14.93,-1005.27 17.83,-1003.96 20.96,-1002.73 24.32,-1001.57 27.89,-1000.48 31.67,-999.48 35.64,-998.55 39.78,-997.72 44.08,-996.97 48.52,-996.3 53.1,-995.73 57.78,-995.26 62.54,-994.87 67.39,-994.58 72.28,-994.39 77.2,-994.29 82.13,-994.29 87.05,-994.39"/>
<text text-anchor="start" x="50.49" y="-1039.33" font-family="Times,serif" font-size="14.00">C0025080</text>
<text text-anchor="start" x="34.77" y="-1025.33" font-family="Times,serif" font-size="14.00">medical devices</text>
<text text-anchor="start" x="56.72" y="-1011.33" font-family="Times,serif" font-size="14.00">172:173</text>
</g>
<!-- id_28269523_DOT_4&#45;&#45;id_28269523_DOT_16 -->
<g id="edge4" class="edge">
<title>id_28269523_DOT_4&#45;&#45;id_28269523_DOT_16</title>
<path fill="none" stroke="black" d="M396.72,-1124.88C323.22,-1102.78 209.38,-1068.54 139.97,-1047.67"/>
<text text-anchor="middle" x="242.1" y="-1089.07" font-family="Times,serif" font-size="14.00">0.037513</text>
</g>
<!-- id_28269523_DOT_11 -->
<g id="node11" class="node">
<title>id_28269523_DOT_11</title>
<polygon fill="brown" stroke="brown" points="606.08,-525.97 609.85,-526.17 613.59,-526.45 617.27,-526.84 620.88,-527.32 624.41,-527.89 627.84,-528.55 631.16,-529.3 634.35,-530.14 637.41,-531.06 640.33,-532.06 643.08,-533.15 645.68,-534.31 648.09,-535.54 650.33,-536.85 652.38,-538.22 654.24,-539.65 655.9,-541.15 657.36,-542.7 658.62,-544.29 659.68,-545.94 660.53,-547.62 661.19,-549.35 661.64,-551.1 661.91,-552.88 661.98,-554.69 661.86,-556.51 661.56,-558.35 661.09,-560.19 660.45,-562.03 659.64,-563.88 658.68,-565.71 657.58,-567.54 656.33,-569.34 654.96,-571.12 653.46,-572.88 651.85,-574.6 650.13,-576.29 648.32,-577.93 646.42,-579.53 644.43,-581.08 642.37,-582.57 640.25,-584 638.07,-585.37 635.83,-586.68 633.55,-587.91 631.22,-589.08 628.86,-590.16 626.47,-591.17 624.05,-592.09 621.61,-592.93 619.15,-593.68 616.68,-594.34 614.19,-594.91 611.69,-595.39 609.19,-595.77 606.67,-596.06 604.16,-596.25 601.64,-596.35 599.12,-596.35 596.6,-596.25 594.08,-596.06 591.57,-595.77 589.06,-595.39 586.56,-594.91 584.07,-594.34 581.6,-593.68 579.14,-592.93 576.7,-592.09 574.28,-591.17 571.89,-590.16 569.53,-589.08 567.21,-587.91 564.92,-586.68 562.69,-585.37 560.5,-584 558.38,-582.57 556.32,-581.08 554.34,-579.53 552.43,-577.93 550.62,-576.29 548.9,-574.6 547.29,-572.88 545.8,-571.12 544.42,-569.34 543.18,-567.54 542.07,-565.71 541.11,-563.88 540.31,-562.03 539.66,-560.19 539.19,-558.35 538.89,-556.51 538.78,-554.69 538.85,-552.88 539.11,-551.1 539.57,-549.35 540.22,-547.62 541.08,-545.94 542.14,-544.29 543.4,-542.7 544.86,-541.15 546.52,-539.65 548.37,-538.22 550.42,-536.85 552.66,-535.54 555.08,-534.31 557.67,-533.15 560.43,-532.06 563.34,-531.06 566.4,-530.14 569.6,-529.3 572.92,-528.55 576.35,-527.89 579.87,-527.32 583.49,-526.84 587.17,-526.45 590.9,-526.17 594.68,-525.97 598.47,-525.88 602.28,-525.88 606.08,-525.97"/>
<text text-anchor="start" x="571.21" y="-570.91" font-family="Times,serif" font-size="14.00">C0810633</text>
<text text-anchor="start" x="567.34" y="-556.91" font-family="Times,serif" font-size="14.00">pacemakers</text>
<text text-anchor="start" x="577.94" y="-542.91" font-family="Times,serif" font-size="14.00">112:112</text>
</g>
<!-- id_28269523_DOT_5&#45;&#45;id_28269523_DOT_11 -->
<g id="edge5" class="edge">
<title>id_28269523_DOT_5&#45;&#45;id_28269523_DOT_11</title>
<path fill="none" stroke="black" d="M793.57,-877.06C752.37,-809.68 660.59,-659.59 620.16,-593.46"/>
<text text-anchor="middle" x="680.61" y="-738.06" font-family="Times,serif" font-size="14.00">0.041310</text>
</g>
<!-- id_28269523_DOT_7 -->
<g id="node7" class="node">
<title>id_28269523_DOT_7</title>
<polygon fill="blueviolet" stroke="blueviolet" points="1322.19,-0.23 1325.62,-0.42 1329.01,-0.71 1332.36,-1.09 1335.64,-1.57 1338.84,-2.14 1341.96,-2.8 1344.97,-3.55 1347.88,-4.39 1350.66,-5.31 1353.3,-6.32 1355.81,-7.4 1358.16,-8.57 1360.36,-9.8 1362.39,-11.1 1364.25,-12.48 1365.94,-13.91 1367.45,-15.4 1368.77,-16.95 1369.92,-18.55 1370.88,-20.19 1371.66,-21.88 1372.25,-23.6 1372.67,-25.36 1372.91,-27.14 1372.97,-28.94 1372.86,-30.77 1372.59,-32.6 1372.16,-34.44 1371.58,-36.29 1370.85,-38.13 1369.98,-39.97 1368.97,-41.79 1367.84,-43.6 1366.59,-45.38 1365.23,-47.13 1363.77,-48.86 1362.21,-50.54 1360.56,-52.19 1358.83,-53.78 1357.03,-55.33 1355.16,-56.82 1353.23,-58.26 1351.25,-59.63 1349.22,-60.94 1347.15,-62.17 1345.03,-63.33 1342.89,-64.42 1340.72,-65.42 1338.52,-66.34 1336.3,-67.18 1334.07,-67.93 1331.82,-68.59 1329.56,-69.16 1327.29,-69.64 1325.02,-70.02 1322.73,-70.31 1320.45,-70.51 1318.16,-70.6 1315.87,-70.6 1313.58,-70.51 1311.29,-70.31 1309.01,-70.02 1306.74,-69.64 1304.47,-69.16 1302.21,-68.59 1299.96,-67.93 1297.72,-67.18 1295.51,-66.34 1293.31,-65.42 1291.14,-64.42 1288.99,-63.33 1286.88,-62.17 1284.81,-60.94 1282.78,-59.63 1280.79,-58.26 1278.86,-56.82 1277,-55.33 1275.19,-53.78 1273.46,-52.19 1271.82,-50.54 1270.26,-48.86 1268.79,-47.13 1267.43,-45.38 1266.19,-43.6 1265.05,-41.79 1264.05,-39.97 1263.18,-38.13 1262.45,-36.29 1261.86,-34.44 1261.43,-32.6 1261.16,-30.77 1261.06,-28.94 1261.12,-27.14 1261.36,-25.36 1261.78,-23.6 1262.37,-21.88 1263.15,-20.19 1264.11,-18.55 1265.25,-16.95 1266.58,-15.4 1268.09,-13.91 1269.78,-12.48 1271.64,-11.1 1273.67,-9.8 1275.87,-8.57 1278.22,-7.4 1280.72,-6.32 1283.37,-5.31 1286.15,-4.39 1289.05,-3.55 1292.07,-2.8 1295.19,-2.14 1298.39,-1.57 1301.67,-1.09 1305.01,-0.71 1308.41,-0.42 1311.84,-0.23 1315.29,-0.13 1318.74,-0.13 1322.19,-0.23"/>
<text text-anchor="start" x="1287.85" y="-45.17" font-family="Times,serif" font-size="14.00">C0025080</text>
<text text-anchor="start" x="1299.12" y="-31.17" font-family="Times,serif" font-size="14.00">FPGA</text>
<text text-anchor="start" x="1301.07" y="-17.17" font-family="Times,serif" font-size="14.00">71:71</text>
</g>
<!-- id_28269523_DOT_7&#45;&#45;id_28269523_DOT_10 -->
<g id="edge10" class="edge">
<title>id_28269523_DOT_7&#45;&#45;id_28269523_DOT_10</title>
<path fill="none" stroke="black" stroke-dasharray="1,5" d="M1316.36,-70.8C1314.97,-145.84 1311.75,-320.09 1310.36,-395.19"/>
<text text-anchor="middle" x="1287.11" y="-235.79" font-family="Times,serif" font-size="14.00">0.877750</text>
</g>
<!-- id_28269523_DOT_12 -->
<g id="node12" class="node">
<title>id_28269523_DOT_12</title>
<polygon fill="chartreuse" stroke="chartreuse" points="1983.12,-1190.57 1987.07,-1190.76 1990.97,-1191.05 1994.82,-1191.43 1998.59,-1191.91 2002.27,-1192.48 2005.86,-1193.14 2009.33,-1193.89 2012.67,-1194.73 2015.86,-1195.65 2018.91,-1196.66 2021.79,-1197.74 2024.5,-1198.9 2027.02,-1200.14 2029.36,-1201.44 2031.5,-1202.82 2033.44,-1204.25 2035.18,-1205.74 2036.7,-1207.29 2038.02,-1208.89 2039.12,-1210.53 2040.02,-1212.22 2040.7,-1213.94 2041.18,-1215.7 2041.46,-1217.48 2041.53,-1219.28 2041.41,-1221.11 2041.1,-1222.94 2040.6,-1224.78 2039.93,-1226.63 2039.09,-1228.47 2038.09,-1230.31 2036.93,-1232.13 2035.63,-1233.94 2034.19,-1235.72 2032.63,-1237.47 2030.95,-1239.2 2029.15,-1240.88 2027.26,-1242.53 2025.27,-1244.12 2023.2,-1245.67 2021.05,-1247.16 2018.83,-1248.6 2016.55,-1249.97 2014.21,-1251.27 2011.83,-1252.51 2009.4,-1253.67 2006.93,-1254.76 2004.43,-1255.76 2001.91,-1256.68 1999.36,-1257.52 1996.79,-1258.27 1994.2,-1258.93 1991.6,-1259.5 1988.99,-1259.98 1986.37,-1260.36 1983.75,-1260.65 1981.12,-1260.85 1978.48,-1260.94 1975.85,-1260.94 1973.22,-1260.85 1970.59,-1260.65 1967.96,-1260.36 1965.35,-1259.98 1962.73,-1259.5 1960.14,-1258.93 1957.55,-1258.27 1954.98,-1257.52 1952.43,-1256.68 1949.9,-1255.76 1947.41,-1254.76 1944.94,-1253.67 1942.51,-1252.51 1940.13,-1251.27 1937.79,-1249.97 1935.51,-1248.6 1933.29,-1247.16 1931.14,-1245.67 1929.07,-1244.12 1927.08,-1242.53 1925.18,-1240.88 1923.39,-1239.2 1921.71,-1237.47 1920.14,-1235.72 1918.7,-1233.94 1917.4,-1232.13 1916.25,-1230.31 1915.25,-1228.47 1914.41,-1226.63 1913.73,-1224.78 1913.24,-1222.94 1912.93,-1221.11 1912.81,-1219.28 1912.88,-1217.48 1913.15,-1215.7 1913.63,-1213.94 1914.32,-1212.22 1915.21,-1210.53 1916.32,-1208.89 1917.63,-1207.29 1919.16,-1205.74 1920.9,-1204.25 1922.84,-1202.82 1924.98,-1201.44 1927.31,-1200.14 1929.84,-1198.9 1932.55,-1197.74 1935.43,-1196.66 1938.47,-1195.65 1941.67,-1194.73 1945.01,-1193.89 1948.48,-1193.14 1952.06,-1192.48 1955.75,-1191.91 1959.52,-1191.43 1963.37,-1191.05 1967.27,-1190.76 1971.21,-1190.57 1975.18,-1190.47 1979.16,-1190.47 1983.12,-1190.57"/>
<text text-anchor="start" x="1948" y="-1235.51" font-family="Times,serif" font-size="14.00">C0225828</text>
<text text-anchor="start" x="1942.39" y="-1221.51" font-family="Times,serif" font-size="14.00">cardiac cells</text>
<text text-anchor="start" x="1954.22" y="-1207.51" font-family="Times,serif" font-size="14.00">136:137</text>
</g>
<!-- id_28269523_DOT_8&#45;&#45;id_28269523_DOT_12 -->
<g id="edge11" class="edge">
<title>id_28269523_DOT_8&#45;&#45;id_28269523_DOT_12</title>
<path fill="none" stroke="black" stroke-dasharray="1,5" d="M1649.55,-1138.77C1726.95,-1159.3 1844.66,-1190.54 1915.91,-1209.45"/>
<text text-anchor="middle" x="1756.48" y="-1176.91" font-family="Times,serif" font-size="14.00">0.282266</text>
</g>
<!-- id_28269523_DOT_13 -->
<g id="node13" class="node">
<title>id_28269523_DOT_13</title>
<polygon fill="coral" stroke="coral" points="2733.75,-1025.24 2737.18,-1025.43 2740.57,-1025.72 2743.92,-1026.11 2747.2,-1026.58 2750.4,-1027.15 2753.52,-1027.81 2756.54,-1028.57 2759.44,-1029.4 2762.22,-1030.33 2764.86,-1031.33 2767.37,-1032.42 2769.72,-1033.58 2771.92,-1034.81 2773.95,-1036.12 2775.81,-1037.49 2777.5,-1038.92 2779.01,-1040.41 2780.34,-1041.96 2781.48,-1043.56 2782.44,-1045.2 2783.22,-1046.89 2783.81,-1048.61 2784.23,-1050.37 2784.47,-1052.15 2784.53,-1053.96 2784.43,-1055.78 2784.16,-1057.61 2783.73,-1059.46 2783.14,-1061.3 2782.41,-1063.14 2781.54,-1064.98 2780.54,-1066.8 2779.4,-1068.61 2778.16,-1070.39 2776.8,-1072.14 2775.33,-1073.87 2773.77,-1075.55 2772.13,-1077.2 2770.4,-1078.8 2768.59,-1080.34 2766.73,-1081.84 2764.8,-1083.27 2762.81,-1084.64 2760.78,-1085.95 2758.71,-1087.18 2756.6,-1088.34 2754.45,-1089.43 2752.28,-1090.43 2750.08,-1091.36 2747.87,-1092.19 2745.63,-1092.94 2743.38,-1093.6 2741.12,-1094.18 2738.85,-1094.65 2736.58,-1095.04 2734.3,-1095.32 2732.01,-1095.52 2729.72,-1095.61 2727.43,-1095.61 2725.14,-1095.52 2722.86,-1095.32 2720.57,-1095.04 2718.3,-1094.65 2716.03,-1094.18 2713.77,-1093.6 2711.52,-1092.94 2709.28,-1092.19 2707.07,-1091.36 2704.87,-1090.43 2702.7,-1089.43 2700.56,-1088.34 2698.44,-1087.18 2696.37,-1085.95 2694.34,-1084.64 2692.36,-1083.27 2690.43,-1081.84 2688.56,-1080.34 2686.75,-1078.8 2685.03,-1077.2 2683.38,-1075.55 2681.82,-1073.87 2680.36,-1072.14 2679,-1070.39 2677.75,-1068.61 2676.62,-1066.8 2675.61,-1064.98 2674.74,-1063.14 2674.01,-1061.3 2673.43,-1059.46 2673,-1057.61 2672.73,-1055.78 2672.62,-1053.96 2672.68,-1052.15 2672.92,-1050.37 2673.34,-1048.61 2673.93,-1046.89 2674.71,-1045.2 2675.67,-1043.56 2676.82,-1041.96 2678.14,-1040.41 2679.65,-1038.92 2681.34,-1037.49 2683.2,-1036.12 2685.23,-1034.81 2687.43,-1033.58 2689.78,-1032.42 2692.29,-1031.33 2694.93,-1030.33 2697.71,-1029.4 2700.62,-1028.57 2703.63,-1027.81 2706.75,-1027.15 2709.95,-1026.58 2713.23,-1026.11 2716.58,-1025.72 2719.97,-1025.43 2723.4,-1025.24 2726.85,-1025.14 2730.3,-1025.14 2733.75,-1025.24"/>
<text text-anchor="start" x="2699.41" y="-1070.18" font-family="Times,serif" font-size="14.00">C0870071</text>
<text text-anchor="start" x="2702.13" y="-1056.18" font-family="Times,serif" font-size="14.00">modeling</text>
<text text-anchor="start" x="2705.63" y="-1042.18" font-family="Times,serif" font-size="14.00">153:153</text>
</g>
<!-- id_28269523_DOT_9&#45;&#45;id_28269523_DOT_13 -->
<g id="edge12" class="edge">
<title>id_28269523_DOT_9&#45;&#45;id_28269523_DOT_13</title>
<path fill="none" stroke="black" stroke-dasharray="1,5" d="M3015.9,-1025.48C2946.31,-1033.93 2846.38,-1046.07 2784.58,-1053.58"/>
<text text-anchor="middle" x="2873.99" y="-1042.33" font-family="Times,serif" font-size="14.00">0.882083</text>
</g>
<!-- id_28269523_DOT_14 -->
<g id="node14" class="node">
<title>id_28269523_DOT_14</title>
<polygon fill="cornflowerblue" stroke="cornflowerblue" points="2356.39,-1052.54 2359.82,-1052.74 2363.21,-1053.03 2366.56,-1053.41 2369.84,-1053.89 2373.04,-1054.46 2376.16,-1055.12 2379.17,-1055.87 2382.07,-1056.71 2384.85,-1057.63 2387.5,-1058.63 2390.01,-1059.72 2392.36,-1060.88 2394.56,-1062.12 2396.59,-1063.42 2398.45,-1064.79 2400.14,-1066.23 2401.64,-1067.72 2402.97,-1069.27 2404.12,-1070.86 2405.08,-1072.51 2405.86,-1074.19 2406.45,-1075.92 2406.87,-1077.67 2407.1,-1079.45 2407.17,-1081.26 2407.06,-1083.08 2406.79,-1084.92 2406.36,-1086.76 2405.78,-1088.61 2405.05,-1090.45 2404.18,-1092.28 2403.17,-1094.11 2402.04,-1095.91 2400.79,-1097.69 2399.43,-1099.45 2397.97,-1101.17 2396.41,-1102.86 2394.76,-1104.5 2393.03,-1106.1 2391.23,-1107.65 2389.36,-1109.14 2387.43,-1110.57 2385.45,-1111.95 2383.42,-1113.25 2381.34,-1114.49 2379.23,-1115.65 2377.09,-1116.73 2374.92,-1117.74 2372.72,-1118.66 2370.5,-1119.5 2368.27,-1120.25 2366.02,-1120.91 2363.76,-1121.48 2361.49,-1121.96 2359.21,-1122.34 2356.93,-1122.63 2354.65,-1122.82 2352.36,-1122.92 2350.07,-1122.92 2347.78,-1122.82 2345.49,-1122.63 2343.21,-1122.34 2340.93,-1121.96 2338.66,-1121.48 2336.4,-1120.91 2334.16,-1120.25 2331.92,-1119.5 2329.7,-1118.66 2327.51,-1117.74 2325.34,-1116.73 2323.19,-1115.65 2321.08,-1114.49 2319.01,-1113.25 2316.98,-1111.95 2314.99,-1110.57 2313.06,-1109.14 2311.19,-1107.65 2309.39,-1106.1 2307.66,-1104.5 2306.02,-1102.86 2304.46,-1101.17 2302.99,-1099.45 2301.63,-1097.69 2300.38,-1095.91 2299.25,-1094.11 2298.25,-1092.28 2297.38,-1090.45 2296.65,-1088.61 2296.06,-1086.76 2295.63,-1084.92 2295.36,-1083.08 2295.26,-1081.26 2295.32,-1079.45 2295.56,-1077.67 2295.97,-1075.92 2296.57,-1074.19 2297.35,-1072.51 2298.31,-1070.86 2299.45,-1069.27 2300.78,-1067.72 2302.29,-1066.23 2303.98,-1064.79 2305.84,-1063.42 2307.87,-1062.12 2310.06,-1060.88 2312.42,-1059.72 2314.92,-1058.63 2317.57,-1057.63 2320.35,-1056.71 2323.25,-1055.87 2326.27,-1055.12 2329.38,-1054.46 2332.59,-1053.89 2335.87,-1053.41 2339.21,-1053.03 2342.61,-1052.74 2346.03,-1052.54 2349.48,-1052.45 2352.94,-1052.45 2356.39,-1052.54"/>
<text text-anchor="start" x="2322.04" y="-1097.48" font-family="Times,serif" font-size="14.00">C0018787</text>
<text text-anchor="start" x="2337.22" y="-1083.48" font-family="Times,serif" font-size="14.00">heart</text>
<text text-anchor="start" x="2328.27" y="-1069.48" font-family="Times,serif" font-size="14.00">155:155</text>
</g>
<!-- id_28269523_DOT_12&#45;&#45;id_28269523_DOT_14 -->
<g id="edge13" class="edge">
<title>id_28269523_DOT_12&#45;&#45;id_28269523_DOT_14</title>
<path fill="none" stroke="black" stroke-dasharray="1,5" d="M2034.38,-1204.59C2109.29,-1176.95 2239,-1129.09 2306.89,-1104.04"/>
<text text-anchor="middle" x="2144.39" y="-1157.12" font-family="Times,serif" font-size="14.00">0.723048</text>
</g>
<!-- id_28269523_DOT_15 -->
<g id="node15" class="node">
<title>id_28269523_DOT_15</title>
<polygon fill="crimson" stroke="crimson" points="2068.71,-1602.89 2072.14,-1603.08 2075.53,-1603.37 2078.88,-1603.76 2082.16,-1604.23 2085.36,-1604.8 2088.48,-1605.46 2091.49,-1606.22 2094.4,-1607.05 2097.18,-1607.98 2099.82,-1608.98 2102.33,-1610.07 2104.68,-1611.23 2106.88,-1612.46 2108.91,-1613.77 2110.77,-1615.14 2112.46,-1616.57 2113.97,-1618.06 2115.29,-1619.61 2116.44,-1621.21 2117.4,-1622.85 2118.18,-1624.54 2118.77,-1626.26 2119.19,-1628.02 2119.43,-1629.8 2119.49,-1631.61 2119.39,-1633.43 2119.11,-1635.26 2118.68,-1637.11 2118.1,-1638.95 2117.37,-1640.79 2116.5,-1642.63 2115.49,-1644.45 2114.36,-1646.26 2113.11,-1648.04 2111.75,-1649.79 2110.29,-1651.52 2108.73,-1653.2 2107.08,-1654.85 2105.36,-1656.45 2103.55,-1657.99 2101.68,-1659.49 2099.75,-1660.92 2097.77,-1662.29 2095.74,-1663.6 2093.67,-1664.83 2091.55,-1665.99 2089.41,-1667.08 2087.24,-1668.08 2085.04,-1669.01 2082.83,-1669.84 2080.59,-1670.59 2078.34,-1671.25 2076.08,-1671.82 2073.81,-1672.3 2071.54,-1672.69 2069.25,-1672.97 2066.97,-1673.17 2064.68,-1673.26 2062.39,-1673.26 2060.1,-1673.17 2057.82,-1672.97 2055.53,-1672.69 2053.26,-1672.3 2050.99,-1671.82 2048.73,-1671.25 2046.48,-1670.59 2044.24,-1669.84 2042.03,-1669.01 2039.83,-1668.08 2037.66,-1667.08 2035.51,-1665.99 2033.4,-1664.83 2031.33,-1663.6 2029.3,-1662.29 2027.31,-1660.92 2025.38,-1659.49 2023.52,-1657.99 2021.71,-1656.45 2019.99,-1654.85 2018.34,-1653.2 2016.78,-1651.52 2015.32,-1649.79 2013.95,-1648.04 2012.71,-1646.26 2011.58,-1644.45 2010.57,-1642.63 2009.7,-1640.79 2008.97,-1638.95 2008.38,-1637.11 2007.95,-1635.26 2007.68,-1633.43 2007.58,-1631.61 2007.64,-1629.8 2007.88,-1628.02 2008.3,-1626.26 2008.89,-1624.54 2009.67,-1622.85 2010.63,-1621.21 2011.78,-1619.61 2013.1,-1618.06 2014.61,-1616.57 2016.3,-1615.14 2018.16,-1613.77 2020.19,-1612.46 2022.39,-1611.23 2024.74,-1610.07 2027.25,-1608.98 2029.89,-1607.98 2032.67,-1607.05 2035.58,-1606.22 2038.59,-1605.46 2041.71,-1604.8 2044.91,-1604.23 2048.19,-1603.76 2051.54,-1603.37 2054.93,-1603.08 2058.36,-1602.89 2061.81,-1602.79 2065.26,-1602.79 2068.71,-1602.89"/>
<text text-anchor="start" x="2034.37" y="-1647.83" font-family="Times,serif" font-size="14.00">C0007634</text>
<text text-anchor="start" x="2050.71" y="-1633.83" font-family="Times,serif" font-size="14.00">cells</text>
<text text-anchor="start" x="2040.59" y="-1619.83" font-family="Times,serif" font-size="14.00">161:161</text>
</g>
<!-- id_28269523_DOT_12&#45;&#45;id_28269523_DOT_15 -->
<g id="edge14" class="edge">
<title>id_28269523_DOT_12&#45;&#45;id_28269523_DOT_15</title>
<path fill="none" stroke="black" stroke-dasharray="1,5" d="M1984.53,-1260.86C2000.85,-1338.76 2039.89,-1525.15 2056.19,-1602.96"/>
<text text-anchor="middle" x="1994.11" y="-1434.71" font-family="Times,serif" font-size="14.00">0.287620</text>
</g>
<!-- id_28269523_DOT_13&#45;&#45;id_28269523_DOT_14 -->
<g id="edge15" class="edge">
<title>id_28269523_DOT_13&#45;&#45;id_28269523_DOT_14</title>
<path fill="none" stroke="black" stroke-dasharray="1,5" d="M2674.91,-1064.26C2603.89,-1069.4 2479.29,-1078.42 2407.15,-1083.64"/>
<text text-anchor="middle" x="2514.78" y="-1076.75" font-family="Times,serif" font-size="14.00">0.890775</text>
</g>
</g>
</svg>
