<?xml version="1.0" encoding="UTF-8" standalone="no"?>
<!DOCTYPE svg PUBLIC "-//W3C//DTD SVG 1.1//EN"
 "http://www.w3.org/Graphics/SVG/1.1/DTD/svg11.dtd">
<!-- Generated by graphviz version 2.42.3 (20191010.1750)
 -->
<!-- Title: MST Pages: 1 -->
<svg width="6175pt" height="4070pt"
 viewBox="0.00 0.00 6174.79 4070.06" xmlns="http://www.w3.org/2000/svg" xmlns:xlink="http://www.w3.org/1999/xlink">
<g id="graph0" class="graph" transform="scale(1 1) rotate(0) translate(4 4066.06)">
<title>MST</title>
<polygon fill="white" stroke="transparent" points="-4,4 -4,-4066.06 6170.79,-4066.06 6170.79,4 -4,4"/>
<!-- id_28299515_DOT_1 -->
<g id="node1" class="node">
<title>id_28299515_DOT_1</title>
<polygon fill="aquamarine" stroke="aquamarine" points="1317.49,-1513.9 1322.99,-1514.1 1328.44,-1514.39 1333.8,-1514.77 1339.07,-1515.25 1344.21,-1515.82 1349.21,-1516.48 1354.04,-1517.23 1358.7,-1518.07 1363.16,-1518.99 1367.41,-1519.99 1371.43,-1521.08 1375.21,-1522.24 1378.73,-1523.48 1381.99,-1524.78 1384.97,-1526.15 1387.68,-1527.59 1390.1,-1529.08 1392.23,-1530.63 1394.07,-1532.22 1395.61,-1533.87 1396.86,-1535.55 1397.81,-1537.28 1398.48,-1539.03 1398.86,-1540.81 1398.96,-1542.62 1398.79,-1544.44 1398.36,-1546.28 1397.67,-1548.12 1396.73,-1549.97 1395.56,-1551.81 1394.16,-1553.64 1392.55,-1555.47 1390.74,-1557.27 1388.73,-1559.05 1386.55,-1560.81 1384.2,-1562.53 1381.7,-1564.22 1379.06,-1565.86 1376.28,-1567.46 1373.39,-1569.01 1370.39,-1570.5 1367.3,-1571.93 1364.12,-1573.31 1360.86,-1574.61 1357.53,-1575.85 1354.14,-1577.01 1350.7,-1578.09 1347.22,-1579.1 1343.69,-1580.02 1340.14,-1580.86 1336.55,-1581.61 1332.95,-1582.27 1329.32,-1582.84 1325.68,-1583.32 1322.03,-1583.7 1318.36,-1583.99 1314.69,-1584.18 1311.02,-1584.28 1307.35,-1584.28 1303.68,-1584.18 1300.01,-1583.99 1296.35,-1583.7 1292.7,-1583.32 1289.05,-1582.84 1285.43,-1582.27 1281.82,-1581.61 1278.24,-1580.86 1274.68,-1580.02 1271.16,-1579.1 1267.67,-1578.09 1264.23,-1577.01 1260.84,-1575.85 1257.52,-1574.61 1254.26,-1573.31 1251.07,-1571.93 1247.98,-1570.5 1244.98,-1569.01 1242.09,-1567.46 1239.32,-1565.86 1236.67,-1564.22 1234.17,-1562.53 1231.82,-1560.81 1229.64,-1559.05 1227.64,-1557.27 1225.82,-1555.47 1224.21,-1553.64 1222.81,-1551.81 1221.64,-1549.97 1220.7,-1548.12 1220.01,-1546.28 1219.58,-1544.44 1219.41,-1542.62 1219.51,-1540.81 1219.89,-1539.03 1220.56,-1537.28 1221.52,-1535.55 1222.76,-1533.87 1224.31,-1532.22 1226.14,-1530.63 1228.27,-1529.08 1230.69,-1527.59 1233.4,-1526.15 1236.39,-1524.78 1239.65,-1523.48 1243.17,-1522.24 1246.95,-1521.08 1250.96,-1519.99 1255.21,-1518.99 1259.67,-1518.07 1264.33,-1517.23 1269.17,-1516.48 1274.17,-1515.82 1279.31,-1515.25 1284.57,-1514.77 1289.94,-1514.39 1295.38,-1514.1 1300.88,-1513.9 1306.41,-1513.81 1311.96,-1513.81 1317.49,-1513.9"/>
<text text-anchor="start" x="1280.02" y="-1558.84" font-family="Times,serif" font-size="14.00">C1014924</text>
<text text-anchor="start" x="1257.67" y="-1544.84" font-family="Times,serif" font-size="14.00">Spartium junceum</text>
<text text-anchor="start" x="1300.24" y="-1530.84" font-family="Times,serif" font-size="14.00">5:6</text>
</g>
<!-- id_28299515_DOT_7 -->
<g id="node7" class="node">
<title>id_28299515_DOT_7</title>
<polygon fill="aquamarine" stroke="aquamarine" points="973.54,-1294.6 979.74,-1294.79 985.87,-1295.08 991.92,-1295.47 997.85,-1295.94 1003.65,-1296.52 1009.28,-1297.18 1014.74,-1297.93 1019.99,-1298.76 1025.02,-1299.69 1029.8,-1300.69 1034.33,-1301.78 1038.59,-1302.94 1042.56,-1304.17 1046.24,-1305.48 1049.6,-1306.85 1052.65,-1308.28 1055.38,-1309.78 1057.78,-1311.32 1059.85,-1312.92 1061.59,-1314.57 1063,-1316.25 1064.07,-1317.98 1064.82,-1319.73 1065.26,-1321.51 1065.37,-1323.32 1065.18,-1325.14 1064.69,-1326.98 1063.91,-1328.82 1062.86,-1330.66 1061.53,-1332.51 1059.96,-1334.34 1058.14,-1336.16 1056.1,-1337.97 1053.84,-1339.75 1051.38,-1341.51 1048.73,-1343.23 1045.91,-1344.92 1042.93,-1346.56 1039.81,-1348.16 1036.55,-1349.71 1033.17,-1351.2 1029.68,-1352.63 1026.09,-1354 1022.42,-1355.31 1018.67,-1356.54 1014.85,-1357.7 1010.97,-1358.79 1007.04,-1359.79 1003.07,-1360.72 999.06,-1361.55 995.02,-1362.31 990.95,-1362.97 986.87,-1363.54 982.76,-1364.01 978.64,-1364.4 974.52,-1364.69 970.38,-1364.88 966.24,-1364.98 962.1,-1364.98 957.96,-1364.88 953.83,-1364.69 949.7,-1364.4 945.58,-1364.01 941.48,-1363.54 937.39,-1362.97 933.32,-1362.31 929.28,-1361.55 925.27,-1360.72 921.3,-1359.79 917.37,-1358.79 913.5,-1357.7 909.68,-1356.54 905.93,-1355.31 902.25,-1354 898.67,-1352.63 895.18,-1351.2 891.8,-1349.71 888.54,-1348.16 885.41,-1346.56 882.43,-1344.92 879.61,-1343.23 876.97,-1341.51 874.51,-1339.75 872.25,-1337.97 870.2,-1336.16 868.39,-1334.34 866.81,-1332.51 865.49,-1330.66 864.43,-1328.82 863.65,-1326.98 863.16,-1325.14 862.97,-1323.32 863.09,-1321.51 863.52,-1319.73 864.27,-1317.98 865.35,-1316.25 866.76,-1314.57 868.49,-1312.92 870.56,-1311.32 872.96,-1309.78 875.69,-1308.28 878.74,-1306.85 882.11,-1305.48 885.78,-1304.17 889.75,-1302.94 894.01,-1301.78 898.54,-1300.69 903.33,-1299.69 908.36,-1298.76 913.61,-1297.93 919.06,-1297.18 924.7,-1296.52 930.49,-1295.94 936.42,-1295.47 942.47,-1295.08 948.61,-1294.79 954.81,-1294.6 961.05,-1294.51 967.3,-1294.51 973.54,-1294.6"/>
<text text-anchor="start" x="935" y="-1339.54" font-family="Times,serif" font-size="14.00">C1014924</text>
<text text-anchor="start" x="904.88" y="-1325.54" font-family="Times,serif" font-size="14.00">Spartium junceum L.</text>
<text text-anchor="start" x="948.23" y="-1311.54" font-family="Times,serif" font-size="14.00">63:65</text>
</g>
<!-- id_28299515_DOT_1&#45;&#45;id_28299515_DOT_7 -->
<g id="edge1" class="edge">
<title>id_28299515_DOT_1&#45;&#45;id_28299515_DOT_7</title>
<path fill="none" stroke="black" d="M1260.12,-1517.86C1193.52,-1475.52 1075.36,-1400.42 1010.31,-1359.07"/>
<text text-anchor="middle" x="1108.97" y="-1441.26" font-family="Times,serif" font-size="14.00">0.013718</text>
</g>
<!-- id_28299515_DOT_33 -->
<g id="node33" class="node">
<title>id_28299515_DOT_33</title>
<polygon fill="darkorange" stroke="darkorange" points="1619.07,-1787.08 1622.5,-1787.28 1625.89,-1787.56 1629.23,-1787.95 1632.51,-1788.43 1635.72,-1789 1638.83,-1789.66 1641.85,-1790.41 1644.75,-1791.25 1647.53,-1792.17 1650.18,-1793.17 1652.68,-1794.26 1655.04,-1795.42 1657.23,-1796.65 1659.27,-1797.96 1661.13,-1799.33 1662.81,-1800.76 1664.32,-1802.26 1665.65,-1803.8 1666.79,-1805.4 1667.76,-1807.05 1668.53,-1808.73 1669.13,-1810.46 1669.55,-1812.21 1669.78,-1813.99 1669.85,-1815.8 1669.74,-1817.62 1669.47,-1819.46 1669.04,-1821.3 1668.46,-1823.14 1667.73,-1824.99 1666.85,-1826.82 1665.85,-1828.64 1664.72,-1830.45 1663.47,-1832.23 1662.11,-1833.99 1660.65,-1835.71 1659.09,-1837.4 1657.44,-1839.04 1655.71,-1840.64 1653.91,-1842.19 1652.04,-1843.68 1650.11,-1845.11 1648.13,-1846.48 1646.1,-1847.79 1644.02,-1849.02 1641.91,-1850.19 1639.77,-1851.27 1637.59,-1852.27 1635.4,-1853.2 1633.18,-1854.04 1630.95,-1854.79 1628.7,-1855.45 1626.44,-1856.02 1624.17,-1856.5 1621.89,-1856.88 1619.61,-1857.17 1617.32,-1857.36 1615.04,-1857.46 1612.75,-1857.46 1610.46,-1857.36 1608.17,-1857.17 1605.89,-1856.88 1603.61,-1856.5 1601.34,-1856.02 1599.08,-1855.45 1596.83,-1854.79 1594.6,-1854.04 1592.38,-1853.2 1590.19,-1852.27 1588.01,-1851.27 1585.87,-1850.19 1583.76,-1849.02 1581.69,-1847.79 1579.65,-1846.48 1577.67,-1845.11 1575.74,-1843.68 1573.87,-1842.19 1572.07,-1840.64 1570.34,-1839.04 1568.69,-1837.4 1567.13,-1835.71 1565.67,-1833.99 1564.31,-1832.23 1563.06,-1830.45 1561.93,-1828.64 1560.93,-1826.82 1560.06,-1824.99 1559.32,-1823.14 1558.74,-1821.3 1558.31,-1819.46 1558.04,-1817.62 1557.93,-1815.8 1558,-1813.99 1558.24,-1812.21 1558.65,-1810.46 1559.25,-1808.73 1560.03,-1807.05 1560.99,-1805.4 1562.13,-1803.8 1563.46,-1802.26 1564.97,-1800.76 1566.65,-1799.33 1568.52,-1797.96 1570.55,-1796.65 1572.74,-1795.42 1575.1,-1794.26 1577.6,-1793.17 1580.25,-1792.17 1583.03,-1791.25 1585.93,-1790.41 1588.95,-1789.66 1592.06,-1789 1595.27,-1788.43 1598.55,-1787.95 1601.89,-1787.56 1605.28,-1787.28 1608.71,-1787.08 1612.16,-1786.99 1615.62,-1786.99 1619.07,-1787.08"/>
<text text-anchor="start" x="1584.72" y="-1832.02" font-family="Times,serif" font-size="14.00">C1514137</text>
<text text-anchor="start" x="1595.22" y="-1818.02" font-family="Times,serif" font-size="14.00">tissues</text>
<text text-anchor="start" x="1590.95" y="-1804.02" font-family="Times,serif" font-size="14.00">271:271</text>
</g>
<!-- id_28299515_DOT_1&#45;&#45;id_28299515_DOT_33 -->
<g id="edge20" class="edge">
<title>id_28299515_DOT_1&#45;&#45;id_28299515_DOT_33</title>
<path fill="none" stroke="black" stroke-dasharray="1,5" d="M1343.84,-1580.11C1402.8,-1632.97 1521.9,-1739.75 1580.2,-1792.01"/>
<text text-anchor="middle" x="1435.77" y="-1688.86" font-family="Times,serif" font-size="14.00">0.922905</text>
</g>
<!-- id_28299515_DOT_2 -->
<g id="node2" class="node">
<title>id_28299515_DOT_2</title>
<polygon fill="bisque" stroke="bisque" points="3408.58,-2471.57 3412.32,-2471.76 3416.01,-2472.05 3419.65,-2472.44 3423.22,-2472.91 3426.71,-2473.48 3430.1,-2474.14 3433.38,-2474.9 3436.54,-2475.73 3439.56,-2476.66 3442.44,-2477.66 3445.17,-2478.75 3447.73,-2479.91 3450.12,-2481.14 3452.33,-2482.45 3454.36,-2483.82 3456.2,-2485.25 3457.84,-2486.74 3459.28,-2488.29 3460.53,-2489.89 3461.57,-2491.53 3462.42,-2493.22 3463.07,-2494.94 3463.52,-2496.7 3463.78,-2498.48 3463.85,-2500.29 3463.74,-2502.11 3463.44,-2503.94 3462.97,-2505.79 3462.34,-2507.63 3461.54,-2509.47 3460.59,-2511.31 3459.5,-2513.13 3458.27,-2514.94 3456.91,-2516.72 3455.43,-2518.47 3453.84,-2520.2 3452.14,-2521.88 3450.35,-2523.53 3448.47,-2525.13 3446.5,-2526.67 3444.47,-2528.17 3442.37,-2529.6 3440.21,-2530.97 3438,-2532.28 3435.74,-2533.51 3433.44,-2534.67 3431.11,-2535.76 3428.75,-2536.76 3426.36,-2537.69 3423.94,-2538.52 3421.51,-2539.27 3419.07,-2539.93 3416.61,-2540.51 3414.14,-2540.98 3411.66,-2541.37 3409.17,-2541.65 3406.69,-2541.85 3404.19,-2541.94 3401.7,-2541.94 3399.21,-2541.85 3396.72,-2541.65 3394.24,-2541.37 3391.76,-2540.98 3389.29,-2540.51 3386.83,-2539.93 3384.38,-2539.27 3381.95,-2538.52 3379.54,-2537.69 3377.15,-2536.76 3374.79,-2535.76 3372.45,-2534.67 3370.15,-2533.51 3367.9,-2532.28 3365.69,-2530.97 3363.53,-2529.6 3361.43,-2528.17 3359.39,-2526.67 3357.43,-2525.13 3355.55,-2523.53 3353.76,-2521.88 3352.06,-2520.2 3350.47,-2518.47 3348.99,-2516.72 3347.63,-2514.94 3346.4,-2513.13 3345.3,-2511.31 3344.36,-2509.47 3343.56,-2507.63 3342.92,-2505.79 3342.46,-2503.94 3342.16,-2502.11 3342.05,-2500.29 3342.12,-2498.48 3342.38,-2496.7 3342.83,-2494.94 3343.48,-2493.22 3344.32,-2491.53 3345.37,-2489.89 3346.61,-2488.29 3348.06,-2486.74 3349.7,-2485.25 3351.54,-2483.82 3353.56,-2482.45 3355.77,-2481.14 3358.16,-2479.91 3360.73,-2478.75 3363.45,-2477.66 3366.33,-2476.66 3369.36,-2475.73 3372.52,-2474.9 3375.8,-2474.14 3379.19,-2473.48 3382.68,-2472.91 3386.25,-2472.44 3389.89,-2472.05 3393.58,-2471.76 3397.31,-2471.57 3401.07,-2471.47 3404.83,-2471.47 3408.58,-2471.57"/>
<text text-anchor="start" x="3373.78" y="-2516.51" font-family="Times,serif" font-size="14.00">C0242726</text>
<text text-anchor="start" x="3370.48" y="-2502.51" font-family="Times,serif" font-size="14.00">root system</text>
<text text-anchor="start" x="3394" y="-2488.51" font-family="Times,serif" font-size="14.00">7:8</text>
</g>
<!-- id_28299515_DOT_6 -->
<g id="node6" class="node">
<title>id_28299515_DOT_6</title>
<polygon fill="bisque" stroke="bisque" points="3702.96,-2733.4 3706.69,-2733.59 3710.38,-2733.88 3714.02,-2734.27 3717.59,-2734.74 3721.08,-2735.31 3724.47,-2735.97 3727.75,-2736.73 3730.91,-2737.56 3733.94,-2738.49 3736.82,-2739.49 3739.54,-2740.58 3742.11,-2741.74 3744.5,-2742.97 3746.71,-2744.28 3748.73,-2745.65 3750.57,-2747.08 3752.21,-2748.57 3753.65,-2750.12 3754.9,-2751.72 3755.95,-2753.36 3756.79,-2755.05 3757.44,-2756.77 3757.89,-2758.53 3758.15,-2760.31 3758.22,-2762.12 3758.11,-2763.94 3757.81,-2765.77 3757.34,-2767.62 3756.71,-2769.46 3755.91,-2771.3 3754.97,-2773.14 3753.87,-2774.96 3752.64,-2776.77 3751.28,-2778.55 3749.8,-2780.3 3748.21,-2782.03 3746.51,-2783.71 3744.72,-2785.36 3742.84,-2786.96 3740.88,-2788.5 3738.84,-2790 3736.74,-2791.43 3734.58,-2792.8 3732.37,-2794.11 3730.12,-2795.34 3727.82,-2796.5 3725.48,-2797.59 3723.12,-2798.59 3720.73,-2799.52 3718.32,-2800.35 3715.89,-2801.1 3713.44,-2801.76 3710.98,-2802.34 3708.51,-2802.81 3706.03,-2803.2 3703.55,-2803.49 3701.06,-2803.68 3698.57,-2803.77 3696.08,-2803.77 3693.58,-2803.68 3691.1,-2803.49 3688.61,-2803.2 3686.13,-2802.81 3683.66,-2802.34 3681.2,-2801.76 3678.76,-2801.1 3676.33,-2800.35 3673.91,-2799.52 3671.52,-2798.59 3669.16,-2797.59 3666.83,-2796.5 3664.53,-2795.34 3662.27,-2794.11 3660.06,-2792.8 3657.9,-2791.43 3655.8,-2790 3653.77,-2788.5 3651.8,-2786.96 3649.92,-2785.36 3648.13,-2783.71 3646.43,-2782.03 3644.84,-2780.3 3643.36,-2778.55 3642,-2776.77 3640.77,-2774.96 3639.68,-2773.14 3638.73,-2771.3 3637.93,-2769.46 3637.3,-2767.62 3636.83,-2765.77 3636.53,-2763.94 3636.42,-2762.12 3636.49,-2760.31 3636.75,-2758.53 3637.2,-2756.77 3637.85,-2755.05 3638.7,-2753.36 3639.74,-2751.72 3640.99,-2750.12 3642.43,-2748.57 3644.07,-2747.08 3645.91,-2745.65 3647.94,-2744.28 3650.15,-2742.97 3652.54,-2741.74 3655.1,-2740.58 3657.82,-2739.49 3660.71,-2738.49 3663.73,-2737.56 3666.89,-2736.73 3670.17,-2735.97 3673.56,-2735.31 3677.05,-2734.74 3680.62,-2734.27 3684.26,-2733.88 3687.95,-2733.59 3691.69,-2733.4 3695.44,-2733.3 3699.2,-2733.3 3702.96,-2733.4"/>
<text text-anchor="start" x="3668.15" y="-2778.34" font-family="Times,serif" font-size="14.00">C0242726</text>
<text text-anchor="start" x="3664.85" y="-2764.34" font-family="Times,serif" font-size="14.00">root system</text>
<text text-anchor="start" x="3681.38" y="-2750.34" font-family="Times,serif" font-size="14.00">52:53</text>
</g>
<!-- id_28299515_DOT_2&#45;&#45;id_28299515_DOT_6 -->
<g id="edge2" class="edge">
<title>id_28299515_DOT_2&#45;&#45;id_28299515_DOT_6</title>
<path fill="none" stroke="black" d="M3434.17,-2534.48C3489.66,-2583.84 3605.03,-2686.45 3662.8,-2737.83"/>
<text text-anchor="middle" x="3522.24" y="-2638.96" font-family="Times,serif" font-size="14.00">0.003209</text>
</g>
<!-- id_28299515_DOT_18 -->
<g id="node18" class="node">
<title>id_28299515_DOT_18</title>
<polygon fill="blueviolet" stroke="blueviolet" points="3107.98,-2168.52 3111.41,-2168.71 3114.8,-2169 3118.15,-2169.38 3121.43,-2169.86 3124.63,-2170.43 3127.75,-2171.09 3130.76,-2171.84 3133.67,-2172.68 3136.45,-2173.6 3139.09,-2174.61 3141.6,-2175.69 3143.95,-2176.85 3146.15,-2178.09 3148.18,-2179.39 3150.04,-2180.76 3151.73,-2182.2 3153.24,-2183.69 3154.56,-2185.24 3155.71,-2186.84 3156.67,-2188.48 3157.45,-2190.17 3158.04,-2191.89 3158.46,-2193.64 3158.7,-2195.43 3158.76,-2197.23 3158.66,-2199.06 3158.38,-2200.89 3157.95,-2202.73 3157.37,-2204.58 3156.64,-2206.42 3155.77,-2208.26 3154.76,-2210.08 3153.63,-2211.88 3152.38,-2213.67 3151.02,-2215.42 3149.56,-2217.14 3148,-2218.83 3146.35,-2220.47 3144.63,-2222.07 3142.82,-2223.62 3140.95,-2225.11 3139.02,-2226.55 3137.04,-2227.92 3135.01,-2229.22 3132.94,-2230.46 3130.82,-2231.62 3128.68,-2232.7 3126.51,-2233.71 3124.31,-2234.63 3122.1,-2235.47 3119.86,-2236.22 3117.61,-2236.88 3115.35,-2237.45 3113.08,-2237.93 3110.81,-2238.31 3108.52,-2238.6 3106.24,-2238.79 3103.95,-2238.89 3101.66,-2238.89 3099.37,-2238.79 3097.08,-2238.6 3094.8,-2238.31 3092.53,-2237.93 3090.26,-2237.45 3088,-2236.88 3085.75,-2236.22 3083.51,-2235.47 3081.3,-2234.63 3079.1,-2233.71 3076.93,-2232.7 3074.78,-2231.62 3072.67,-2230.46 3070.6,-2229.22 3068.57,-2227.92 3066.58,-2226.55 3064.65,-2225.11 3062.79,-2223.62 3060.98,-2222.07 3059.25,-2220.47 3057.61,-2218.83 3056.05,-2217.14 3054.58,-2215.42 3053.22,-2213.67 3051.98,-2211.88 3050.85,-2210.08 3049.84,-2208.26 3048.97,-2206.42 3048.24,-2204.58 3047.65,-2202.73 3047.22,-2200.89 3046.95,-2199.06 3046.85,-2197.23 3046.91,-2195.43 3047.15,-2193.64 3047.57,-2191.89 3048.16,-2190.17 3048.94,-2188.48 3049.9,-2186.84 3051.05,-2185.24 3052.37,-2183.69 3053.88,-2182.2 3055.57,-2180.76 3057.43,-2179.39 3059.46,-2178.09 3061.66,-2176.85 3064.01,-2175.69 3066.52,-2174.61 3069.16,-2173.6 3071.94,-2172.68 3074.85,-2171.84 3077.86,-2171.09 3080.98,-2170.43 3084.18,-2169.86 3087.46,-2169.38 3090.81,-2169 3094.2,-2168.71 3097.63,-2168.52 3101.08,-2168.42 3104.53,-2168.42 3107.98,-2168.52"/>
<text text-anchor="start" x="3073.64" y="-2213.46" font-family="Times,serif" font-size="14.00">C0032098</text>
<text text-anchor="start" x="3086.08" y="-2199.46" font-family="Times,serif" font-size="14.00">plants</text>
<text text-anchor="start" x="3079.86" y="-2185.46" font-family="Times,serif" font-size="14.00">166:166</text>
</g>
<!-- id_28299515_DOT_2&#45;&#45;id_28299515_DOT_18 -->
<g id="edge21" class="edge">
<title>id_28299515_DOT_2&#45;&#45;id_28299515_DOT_18</title>
<path fill="none" stroke="black" stroke-dasharray="1,5" d="M3371.4,-2474.85C3312.55,-2415.43 3186.94,-2288.61 3130.86,-2231.98"/>
<text text-anchor="middle" x="3224.88" y="-2356.21" font-family="Times,serif" font-size="14.00">0.858335</text>
</g>
<!-- id_28299515_DOT_3 -->
<g id="node3" class="node">
<title>id_28299515_DOT_3</title>
<polygon fill="blue" stroke="blue" points="2168.39,-384.85 2171.81,-385.04 2175.21,-385.33 2178.55,-385.72 2181.83,-386.19 2185.04,-386.76 2188.15,-387.43 2191.17,-388.18 2194.07,-389.01 2196.85,-389.94 2199.5,-390.94 2202,-392.03 2204.36,-393.19 2206.55,-394.42 2208.58,-395.73 2210.45,-397.1 2212.13,-398.53 2213.64,-400.03 2214.97,-401.57 2216.11,-403.17 2217.07,-404.82 2217.85,-406.5 2218.45,-408.22 2218.86,-409.98 2219.1,-411.76 2219.16,-413.57 2219.06,-415.39 2218.79,-417.22 2218.36,-419.07 2217.77,-420.91 2217.04,-422.76 2216.17,-424.59 2215.17,-426.41 2214.04,-428.22 2212.79,-430 2211.43,-431.76 2209.96,-433.48 2208.41,-435.16 2206.76,-436.81 2205.03,-438.41 2203.23,-439.95 2201.36,-441.45 2199.43,-442.88 2197.45,-444.25 2195.41,-445.56 2193.34,-446.79 2191.23,-447.95 2189.08,-449.04 2186.91,-450.04 2184.72,-450.97 2182.5,-451.8 2180.27,-452.55 2178.02,-453.22 2175.76,-453.79 2173.49,-454.26 2171.21,-454.65 2168.93,-454.94 2166.64,-455.13 2164.35,-455.23 2162.06,-455.23 2159.78,-455.13 2157.49,-454.94 2155.21,-454.65 2152.93,-454.26 2150.66,-453.79 2148.4,-453.22 2146.15,-452.55 2143.92,-451.8 2141.7,-450.97 2139.5,-450.04 2137.33,-449.04 2135.19,-447.95 2133.08,-446.79 2131,-445.56 2128.97,-444.25 2126.99,-442.88 2125.06,-441.45 2123.19,-439.95 2121.39,-438.41 2119.66,-436.81 2118.01,-435.16 2116.45,-433.48 2114.99,-431.76 2113.63,-430 2112.38,-428.22 2111.25,-426.41 2110.24,-424.59 2109.37,-422.76 2108.64,-420.91 2108.06,-419.07 2107.63,-417.22 2107.36,-415.39 2107.25,-413.57 2107.32,-411.76 2107.55,-409.98 2107.97,-408.22 2108.57,-406.5 2109.34,-404.82 2110.3,-403.17 2111.45,-401.57 2112.78,-400.03 2114.28,-398.53 2115.97,-397.1 2117.83,-395.73 2119.86,-394.42 2122.06,-393.19 2124.41,-392.03 2126.92,-390.94 2129.57,-389.94 2132.35,-389.01 2135.25,-388.18 2138.26,-387.43 2141.38,-386.76 2144.58,-386.19 2147.87,-385.72 2151.21,-385.33 2154.6,-385.04 2158.03,-384.85 2161.48,-384.75 2164.94,-384.75 2168.39,-384.85"/>
<text text-anchor="start" x="2134.04" y="-429.79" font-family="Times,serif" font-size="14.00">C0392673</text>
<text text-anchor="start" x="2134.05" y="-415.79" font-family="Times,serif" font-size="14.00">adaptation</text>
<text text-anchor="start" x="2147.26" y="-401.79" font-family="Times,serif" font-size="14.00">15:15</text>
</g>
<!-- id_28299515_DOT_16 -->
<g id="node16" class="node">
<title>id_28299515_DOT_16</title>
<polygon fill="coral" stroke="coral" points="1921.83,-701.9 1925.6,-702.09 1929.33,-702.38 1933,-702.77 1936.6,-703.24 1940.12,-703.81 1943.54,-704.48 1946.86,-705.23 1950.04,-706.06 1953.1,-706.99 1956,-707.99 1958.76,-709.08 1961.34,-710.24 1963.75,-711.47 1965.98,-712.78 1968.03,-714.15 1969.88,-715.58 1971.54,-717.08 1973,-718.62 1974.25,-720.22 1975.31,-721.87 1976.16,-723.55 1976.82,-725.27 1977.27,-727.03 1977.54,-728.81 1977.61,-730.62 1977.49,-732.44 1977.19,-734.28 1976.72,-736.12 1976.08,-737.96 1975.28,-739.81 1974.32,-741.64 1973.22,-743.46 1971.97,-745.27 1970.6,-747.05 1969.11,-748.81 1967.5,-750.53 1965.79,-752.22 1963.98,-753.86 1962.08,-755.46 1960.1,-757.01 1958.05,-758.5 1955.93,-759.93 1953.75,-761.3 1951.52,-762.61 1949.24,-763.84 1946.92,-765 1944.57,-766.09 1942.18,-767.09 1939.77,-768.02 1937.33,-768.85 1934.88,-769.61 1932.41,-770.27 1929.93,-770.84 1927.44,-771.31 1924.94,-771.7 1922.43,-771.99 1919.92,-772.18 1917.4,-772.28 1914.89,-772.28 1912.38,-772.18 1909.87,-771.99 1907.36,-771.7 1904.86,-771.31 1902.36,-770.84 1899.88,-770.27 1897.41,-769.61 1894.96,-768.85 1892.52,-768.02 1890.11,-767.09 1887.73,-766.09 1885.37,-765 1883.05,-763.84 1880.78,-762.61 1878.54,-761.3 1876.37,-759.93 1874.25,-758.5 1872.19,-757.01 1870.21,-755.46 1868.32,-753.86 1866.51,-752.22 1864.79,-750.53 1863.19,-748.81 1861.69,-747.05 1860.32,-745.27 1859.08,-743.46 1857.98,-741.64 1857.02,-739.81 1856.22,-737.96 1855.57,-736.12 1855.1,-734.28 1854.8,-732.44 1854.69,-730.62 1854.76,-728.81 1855.02,-727.03 1855.48,-725.27 1856.13,-723.55 1856.99,-721.87 1858.04,-720.22 1859.3,-718.62 1860.76,-717.08 1862.41,-715.58 1864.27,-714.15 1866.31,-712.78 1868.54,-711.47 1870.95,-710.24 1873.54,-709.08 1876.29,-707.99 1879.2,-706.99 1882.25,-706.06 1885.44,-705.23 1888.75,-704.48 1892.17,-703.81 1895.69,-703.24 1899.3,-702.77 1902.97,-702.38 1906.69,-702.09 1910.46,-701.9 1914.25,-701.81 1918.05,-701.81 1921.83,-701.9"/>
<text text-anchor="start" x="1886.98" y="-746.84" font-family="Times,serif" font-size="14.00">C0332514</text>
<text text-anchor="start" x="1883.49" y="-732.84" font-family="Times,serif" font-size="14.00">asymmetric</text>
<text text-anchor="start" x="1893.2" y="-718.84" font-family="Times,serif" font-size="14.00">147:147</text>
</g>
<!-- id_28299515_DOT_3&#45;&#45;id_28299515_DOT_16 -->
<g id="edge22" class="edge">
<title>id_28299515_DOT_3&#45;&#45;id_28299515_DOT_16</title>
<path fill="none" stroke="black" stroke-dasharray="1,5" d="M2139.52,-450.39C2093.02,-510.06 1990.15,-642.07 1941.98,-703.89"/>
<text text-anchor="middle" x="2014.5" y="-579.94" font-family="Times,serif" font-size="14.00">0.663631</text>
</g>
<!-- id_28299515_DOT_4 -->
<g id="node4" class="node">
<title>id_28299515_DOT_4</title>
<polygon fill="bisque" stroke="bisque" points="3999.14,-2982.49 4003.34,-2982.68 4007.51,-2982.97 4011.61,-2983.35 4015.63,-2983.83 4019.57,-2984.4 4023.39,-2985.06 4027.09,-2985.81 4030.65,-2986.65 4034.06,-2987.57 4037.31,-2988.58 4040.38,-2989.66 4043.27,-2990.82 4045.96,-2992.06 4048.45,-2993.36 4050.74,-2994.73 4052.81,-2996.17 4054.66,-2997.66 4056.29,-2999.21 4057.69,-3000.81 4058.87,-3002.45 4059.82,-3004.14 4060.55,-3005.86 4061.06,-3007.61 4061.36,-3009.4 4061.43,-3011.2 4061.31,-3013.02 4060.97,-3014.86 4060.45,-3016.7 4059.73,-3018.55 4058.83,-3020.39 4057.76,-3022.23 4056.53,-3024.05 4055.14,-3025.85 4053.61,-3027.64 4051.94,-3029.39 4050.15,-3031.11 4048.23,-3032.8 4046.21,-3034.44 4044.09,-3036.04 4041.88,-3037.59 4039.59,-3039.08 4037.22,-3040.52 4034.79,-3041.89 4032.3,-3043.19 4029.75,-3044.43 4027.16,-3045.59 4024.53,-3046.67 4021.87,-3047.68 4019.17,-3048.6 4016.45,-3049.44 4013.71,-3050.19 4010.95,-3050.85 4008.18,-3051.42 4005.4,-3051.9 4002.6,-3052.28 3999.8,-3052.57 3997,-3052.76 3994.19,-3052.86 3991.38,-3052.86 3988.57,-3052.76 3985.77,-3052.57 3982.97,-3052.28 3980.18,-3051.9 3977.39,-3051.42 3974.62,-3050.85 3971.86,-3050.19 3969.12,-3049.44 3966.4,-3048.6 3963.71,-3047.68 3961.04,-3046.67 3958.41,-3045.59 3955.82,-3044.43 3953.28,-3043.19 3950.78,-3041.89 3948.35,-3040.52 3945.98,-3039.08 3943.69,-3037.59 3941.48,-3036.04 3939.36,-3034.44 3937.34,-3032.8 3935.42,-3031.11 3933.63,-3029.39 3931.96,-3027.64 3930.43,-3025.85 3929.04,-3024.05 3927.81,-3022.23 3926.74,-3020.39 3925.84,-3018.55 3925.13,-3016.7 3924.6,-3014.86 3924.27,-3013.02 3924.14,-3011.2 3924.22,-3009.4 3924.51,-3007.61 3925.02,-3005.86 3925.75,-3004.14 3926.7,-3002.45 3927.88,-3000.81 3929.29,-2999.21 3930.91,-2997.66 3932.76,-2996.17 3934.83,-2994.73 3937.12,-2993.36 3939.61,-2992.06 3942.3,-2990.82 3945.19,-2989.66 3948.27,-2988.58 3951.51,-2987.57 3954.92,-2986.65 3958.48,-2985.81 3962.18,-2985.06 3966.01,-2984.4 3969.94,-2983.83 3973.96,-2983.35 3978.07,-2982.97 3982.23,-2982.68 3986.43,-2982.49 3990.67,-2982.39 3994.91,-2982.39 3999.14,-2982.49"/>
<text text-anchor="start" x="3963.62" y="-3027.43" font-family="Times,serif" font-size="14.00">C0242726</text>
<text text-anchor="start" x="3955.25" y="-3013.43" font-family="Times,serif" font-size="14.00">Root systems</text>
<text text-anchor="start" x="3976.84" y="-2999.43" font-family="Times,serif" font-size="14.00">16:17</text>
</g>
<!-- id_28299515_DOT_4&#45;&#45;id_28299515_DOT_6 -->
<g id="edge3" class="edge">
<title>id_28299515_DOT_4&#45;&#45;id_28299515_DOT_6</title>
<path fill="none" stroke="black" d="M3955.66,-2986.33C3897.23,-2937.07 3784.78,-2842.27 3729.54,-2795.7"/>
<text text-anchor="middle" x="3816.35" y="-2893.82" font-family="Times,serif" font-size="14.00">0.003570</text>
</g>
<!-- id_28299515_DOT_34 -->
<g id="node34" class="node">
<title>id_28299515_DOT_34</title>
<polygon fill="bisque" stroke="bisque" points="4267.25,-3278.17 4270.68,-3278.37 4274.07,-3278.66 4277.41,-3279.04 4280.69,-3279.52 4283.9,-3280.09 4287.02,-3280.75 4290.03,-3281.5 4292.93,-3282.34 4295.71,-3283.26 4298.36,-3284.26 4300.87,-3285.35 4303.22,-3286.51 4305.42,-3287.75 4307.45,-3289.05 4309.31,-3290.42 4310.99,-3291.86 4312.5,-3293.35 4313.83,-3294.9 4314.98,-3296.49 4315.94,-3298.14 4316.71,-3299.82 4317.31,-3301.55 4317.73,-3303.3 4317.96,-3305.08 4318.03,-3306.89 4317.92,-3308.71 4317.65,-3310.55 4317.22,-3312.39 4316.64,-3314.24 4315.91,-3316.08 4315.04,-3317.91 4314.03,-3319.74 4312.9,-3321.54 4311.65,-3323.32 4310.29,-3325.08 4308.83,-3326.8 4307.27,-3328.49 4305.62,-3330.13 4303.89,-3331.73 4302.09,-3333.28 4300.22,-3334.77 4298.29,-3336.2 4296.31,-3337.58 4294.28,-3338.88 4292.2,-3340.12 4290.09,-3341.28 4287.95,-3342.36 4285.78,-3343.37 4283.58,-3344.29 4281.36,-3345.13 4279.13,-3345.88 4276.88,-3346.54 4274.62,-3347.11 4272.35,-3347.59 4270.07,-3347.97 4267.79,-3348.26 4265.5,-3348.45 4263.22,-3348.55 4260.93,-3348.55 4258.64,-3348.45 4256.35,-3348.26 4254.07,-3347.97 4251.79,-3347.59 4249.52,-3347.11 4247.26,-3346.54 4245.01,-3345.88 4242.78,-3345.13 4240.56,-3344.29 4238.37,-3343.37 4236.2,-3342.36 4234.05,-3341.28 4231.94,-3340.12 4229.87,-3338.88 4227.83,-3337.58 4225.85,-3336.2 4223.92,-3334.77 4222.05,-3333.28 4220.25,-3331.73 4218.52,-3330.13 4216.87,-3328.49 4215.32,-3326.8 4213.85,-3325.08 4212.49,-3323.32 4211.24,-3321.54 4210.11,-3319.74 4209.11,-3317.91 4208.24,-3316.08 4207.51,-3314.24 4206.92,-3312.39 4206.49,-3310.55 4206.22,-3308.71 4206.11,-3306.89 4206.18,-3305.08 4206.42,-3303.3 4206.83,-3301.55 4207.43,-3299.82 4208.21,-3298.14 4209.17,-3296.49 4210.31,-3294.9 4211.64,-3293.35 4213.15,-3291.86 4214.83,-3290.42 4216.7,-3289.05 4218.73,-3287.75 4220.92,-3286.51 4223.28,-3285.35 4225.78,-3284.26 4228.43,-3283.26 4231.21,-3282.34 4234.11,-3281.5 4237.13,-3280.75 4240.24,-3280.09 4243.45,-3279.52 4246.73,-3279.04 4250.07,-3278.66 4253.46,-3278.37 4256.89,-3278.17 4260.34,-3278.08 4263.8,-3278.08 4267.25,-3278.17"/>
<text text-anchor="start" x="4232.9" y="-3323.11" font-family="Times,serif" font-size="14.00">C0242726</text>
<text text-anchor="start" x="4250.8" y="-3309.11" font-family="Times,serif" font-size="14.00">root</text>
<text text-anchor="start" x="4239.13" y="-3295.11" font-family="Times,serif" font-size="14.00">279:279</text>
</g>
<!-- id_28299515_DOT_4&#45;&#45;id_28299515_DOT_34 -->
<g id="edge23" class="edge">
<title>id_28299515_DOT_4&#45;&#45;id_28299515_DOT_34</title>
<path fill="none" stroke="black" stroke-dasharray="1,5" d="M4020.59,-3048.16C4071.92,-3104.52 4181.08,-3224.38 4233.2,-3281.61"/>
<text text-anchor="middle" x="4100.65" y="-3167.68" font-family="Times,serif" font-size="14.00">0.771601</text>
</g>
<!-- id_28299515_DOT_5 -->
<g id="node5" class="node">
<title>id_28299515_DOT_5</title>
<polygon fill="blueviolet" stroke="blueviolet" points="3437,-1977.56 3440.43,-1977.75 3443.82,-1978.04 3447.17,-1978.42 3450.45,-1978.9 3453.65,-1979.47 3456.77,-1980.13 3459.78,-1980.88 3462.68,-1981.72 3465.46,-1982.64 3468.11,-1983.65 3470.62,-1984.73 3472.97,-1985.89 3475.17,-1987.13 3477.2,-1988.43 3479.06,-1989.8 3480.75,-1991.24 3482.25,-1992.73 3483.58,-1994.28 3484.73,-1995.88 3485.69,-1997.52 3486.47,-1999.21 3487.06,-2000.93 3487.48,-2002.69 3487.72,-2004.47 3487.78,-2006.27 3487.67,-2008.1 3487.4,-2009.93 3486.97,-2011.77 3486.39,-2013.62 3485.66,-2015.46 3484.79,-2017.3 3483.78,-2019.12 3482.65,-2020.92 3481.4,-2022.71 3480.04,-2024.46 3478.58,-2026.19 3477.02,-2027.87 3475.37,-2029.52 3473.64,-2031.11 3471.84,-2032.66 3469.97,-2034.15 3468.04,-2035.59 3466.06,-2036.96 3464.03,-2038.26 3461.95,-2039.5 3459.84,-2040.66 3457.7,-2041.74 3455.53,-2042.75 3453.33,-2043.67 3451.11,-2044.51 3448.88,-2045.26 3446.63,-2045.92 3444.37,-2046.49 3442.1,-2046.97 3439.82,-2047.35 3437.54,-2047.64 3435.26,-2047.84 3432.97,-2047.93 3430.68,-2047.93 3428.39,-2047.84 3426.1,-2047.64 3423.82,-2047.35 3421.54,-2046.97 3419.27,-2046.49 3417.01,-2045.92 3414.77,-2045.26 3412.53,-2044.51 3410.32,-2043.67 3408.12,-2042.75 3405.95,-2041.74 3403.8,-2040.66 3401.69,-2039.5 3399.62,-2038.26 3397.59,-2036.96 3395.6,-2035.59 3393.67,-2034.15 3391.8,-2032.66 3390,-2031.11 3388.27,-2029.52 3386.63,-2027.87 3385.07,-2026.19 3383.6,-2024.46 3382.24,-2022.71 3380.99,-2020.92 3379.86,-2019.12 3378.86,-2017.3 3377.99,-2015.46 3377.26,-2013.62 3376.67,-2011.77 3376.24,-2009.93 3375.97,-2008.1 3375.87,-2006.27 3375.93,-2004.47 3376.17,-2002.69 3376.58,-2000.93 3377.18,-1999.21 3377.96,-1997.52 3378.92,-1995.88 3380.06,-1994.28 3381.39,-1992.73 3382.9,-1991.24 3384.59,-1989.8 3386.45,-1988.43 3388.48,-1987.13 3390.67,-1985.89 3393.03,-1984.73 3395.53,-1983.65 3398.18,-1982.64 3400.96,-1981.72 3403.86,-1980.88 3406.88,-1980.13 3409.99,-1979.47 3413.2,-1978.9 3416.48,-1978.42 3419.82,-1978.04 3423.22,-1977.75 3426.64,-1977.56 3430.09,-1977.46 3433.55,-1977.46 3437,-1977.56"/>
<text text-anchor="start" x="3402.65" y="-2022.5" font-family="Times,serif" font-size="14.00">C0032098</text>
<text text-anchor="start" x="3417.83" y="-2008.5" font-family="Times,serif" font-size="14.00">plant</text>
<text text-anchor="start" x="3415.88" y="-1994.5" font-family="Times,serif" font-size="14.00">23:23</text>
</g>
<!-- id_28299515_DOT_5&#45;&#45;id_28299515_DOT_18 -->
<g id="edge4" class="edge">
<title>id_28299515_DOT_5&#45;&#45;id_28299515_DOT_18</title>
<path fill="none" stroke="black" d="M3394.08,-2034.6C3332.72,-2070.21 3211.67,-2140.47 3146.61,-2178.23"/>
<text text-anchor="middle" x="3244.1" y="-2109.22" font-family="Times,serif" font-size="14.00">0.028474</text>
</g>
<!-- id_28299515_DOT_8 -->
<g id="node8" class="node">
<title>id_28299515_DOT_8</title>
<polygon fill="brown" stroke="brown" points="2425.72,-1733.34 2431.49,-1733.53 2437.19,-1733.82 2442.81,-1734.2 2448.33,-1734.68 2453.72,-1735.25 2458.96,-1735.91 2464.03,-1736.66 2468.91,-1737.5 2473.58,-1738.42 2478.03,-1739.43 2482.25,-1740.51 2486.2,-1741.67 2489.9,-1742.91 2493.31,-1744.21 2496.44,-1745.59 2499.28,-1747.02 2501.81,-1748.51 2504.05,-1750.06 2505.97,-1751.66 2507.59,-1753.3 2508.89,-1754.99 2509.9,-1756.71 2510.59,-1758.47 2510.99,-1760.25 2511.1,-1762.05 2510.92,-1763.88 2510.47,-1765.71 2509.75,-1767.55 2508.76,-1769.4 2507.54,-1771.24 2506.07,-1773.08 2504.38,-1774.9 2502.48,-1776.71 2500.38,-1778.49 2498.09,-1780.24 2495.63,-1781.97 2493.01,-1783.65 2490.24,-1785.3 2487.34,-1786.89 2484.3,-1788.44 2481.16,-1789.93 2477.92,-1791.37 2474.58,-1792.74 2471.17,-1794.04 2467.68,-1795.28 2464.13,-1796.44 2460.53,-1797.53 2456.87,-1798.53 2453.18,-1799.45 2449.45,-1800.29 2445.7,-1801.04 2441.92,-1801.7 2438.12,-1802.27 2434.3,-1802.75 2430.47,-1803.13 2426.63,-1803.42 2422.79,-1803.62 2418.94,-1803.71 2415.09,-1803.71 2411.25,-1803.62 2407.4,-1803.42 2403.56,-1803.13 2399.74,-1802.75 2395.92,-1802.27 2392.12,-1801.7 2388.34,-1801.04 2384.58,-1800.29 2380.86,-1799.45 2377.16,-1798.53 2373.51,-1797.53 2369.91,-1796.44 2366.36,-1795.28 2362.87,-1794.04 2359.45,-1792.74 2356.12,-1791.37 2352.87,-1789.93 2349.73,-1788.44 2346.7,-1786.89 2343.79,-1785.3 2341.02,-1783.65 2338.4,-1781.97 2335.94,-1780.24 2333.66,-1778.49 2331.56,-1776.71 2329.65,-1774.9 2327.97,-1773.08 2326.5,-1771.24 2325.27,-1769.4 2324.29,-1767.55 2323.57,-1765.71 2323.11,-1763.88 2322.93,-1762.05 2323.04,-1760.25 2323.44,-1758.47 2324.14,-1756.71 2325.14,-1754.99 2326.45,-1753.3 2328.07,-1751.66 2329.99,-1750.06 2332.22,-1748.51 2334.76,-1747.02 2337.59,-1745.59 2340.72,-1744.21 2344.14,-1742.91 2347.83,-1741.67 2351.79,-1740.51 2356,-1739.43 2360.45,-1738.42 2365.13,-1737.5 2370.01,-1736.66 2375.08,-1735.91 2380.32,-1735.25 2385.7,-1734.68 2391.22,-1734.2 2396.84,-1733.82 2402.55,-1733.53 2408.31,-1733.34 2414.11,-1733.24 2419.92,-1733.24 2425.72,-1733.34"/>
<text text-anchor="start" x="2387.85" y="-1778.28" font-family="Times,serif" font-size="14.00">C0502371</text>
<text text-anchor="start" x="2362.41" y="-1764.28" font-family="Times,serif" font-size="14.00">anatomical features</text>
<text text-anchor="start" x="2401.07" y="-1750.28" font-family="Times,serif" font-size="14.00">85:86</text>
</g>
<!-- id_28299515_DOT_21 -->
<g id="node21" class="node">
<title>id_28299515_DOT_21</title>
<polygon fill="cornflowerblue" stroke="cornflowerblue" points="2020.29,-1576.08 2027.78,-1576.27 2035.2,-1576.56 2042.51,-1576.94 2049.69,-1577.42 2056.69,-1577.99 2063.51,-1578.65 2070.1,-1579.4 2076.45,-1580.24 2082.53,-1581.16 2088.32,-1582.17 2093.79,-1583.25 2098.94,-1584.41 2103.74,-1585.65 2108.19,-1586.95 2112.26,-1588.32 2115.94,-1589.76 2119.24,-1591.25 2122.14,-1592.8 2124.65,-1594.4 2126.75,-1596.04 2128.45,-1597.73 2129.75,-1599.45 2130.66,-1601.2 2131.18,-1602.99 2131.32,-1604.79 2131.09,-1606.61 2130.5,-1608.45 2129.56,-1610.29 2128.28,-1612.14 2126.68,-1613.98 2124.78,-1615.82 2122.58,-1617.64 2120.11,-1619.44 2117.38,-1621.23 2114.4,-1622.98 2111.2,-1624.7 2107.79,-1626.39 2104.19,-1628.03 2100.41,-1629.63 2096.47,-1631.18 2092.38,-1632.67 2088.17,-1634.11 2083.83,-1635.48 2079.39,-1636.78 2074.85,-1638.02 2070.23,-1639.18 2065.55,-1640.26 2060.8,-1641.27 2055.99,-1642.19 2051.15,-1643.03 2046.26,-1643.78 2041.35,-1644.44 2036.4,-1645.01 2031.44,-1645.49 2026.46,-1645.87 2021.47,-1646.16 2016.47,-1646.35 2011.47,-1646.45 2006.46,-1646.45 2001.46,-1646.35 1996.46,-1646.16 1991.47,-1645.87 1986.49,-1645.49 1981.53,-1645.01 1976.58,-1644.44 1971.67,-1643.78 1966.78,-1643.03 1961.93,-1642.19 1957.13,-1641.27 1952.38,-1640.26 1947.69,-1639.18 1943.08,-1638.02 1938.54,-1636.78 1934.1,-1635.48 1929.76,-1634.11 1925.54,-1632.67 1921.46,-1631.18 1917.52,-1629.63 1913.74,-1628.03 1910.13,-1626.39 1906.72,-1624.7 1903.52,-1622.98 1900.55,-1621.23 1897.82,-1619.44 1895.35,-1617.64 1893.15,-1615.82 1891.25,-1613.98 1889.65,-1612.14 1888.37,-1610.29 1887.43,-1608.45 1886.84,-1606.61 1886.61,-1604.79 1886.75,-1602.99 1887.27,-1601.2 1888.18,-1599.45 1889.48,-1597.73 1891.18,-1596.04 1893.28,-1594.4 1895.78,-1592.8 1898.69,-1591.25 1901.99,-1589.76 1905.67,-1588.32 1909.74,-1586.95 1914.19,-1585.65 1918.99,-1584.41 1924.14,-1583.25 1929.61,-1582.17 1935.4,-1581.16 1941.48,-1580.24 1947.83,-1579.4 1954.42,-1578.65 1961.23,-1577.99 1968.24,-1577.42 1975.42,-1576.94 1982.73,-1576.56 1990.15,-1576.27 1997.64,-1576.08 2005.19,-1575.98 2012.74,-1575.98 2020.29,-1576.08"/>
<text text-anchor="start" x="1979.8" y="-1621.01" font-family="Times,serif" font-size="14.00">C0242481</text>
<text text-anchor="start" x="1935.67" y="-1607.01" font-family="Times,serif" font-size="14.00">Anatomical investigations</text>
<text text-anchor="start" x="1986.02" y="-1593.01" font-family="Times,serif" font-size="14.00">195:196</text>
</g>
<!-- id_28299515_DOT_8&#45;&#45;id_28299515_DOT_21 -->
<g id="edge24" class="edge">
<title>id_28299515_DOT_8&#45;&#45;id_28299515_DOT_21</title>
<path fill="none" stroke="black" stroke-dasharray="1,5" d="M2347.33,-1741.62C2271.76,-1712.5 2151.92,-1666.31 2077,-1637.44"/>
<text text-anchor="middle" x="2185.92" y="-1692.33" font-family="Times,serif" font-size="14.00">0.526672</text>
</g>
<!-- id_28299515_DOT_29 -->
<g id="node29" class="node">
<title>id_28299515_DOT_29</title>
<polygon fill="darkkhaki" stroke="darkkhaki" points="2852.91,-1806.31 2856.34,-1806.51 2859.73,-1806.79 2863.07,-1807.18 2866.36,-1807.66 2869.56,-1808.23 2872.68,-1808.89 2875.69,-1809.64 2878.59,-1810.48 2881.37,-1811.4 2884.02,-1812.4 2886.53,-1813.49 2888.88,-1814.65 2891.08,-1815.88 2893.11,-1817.19 2894.97,-1818.56 2896.66,-1819.99 2898.16,-1821.49 2899.49,-1823.03 2900.64,-1824.63 2901.6,-1826.28 2902.38,-1827.96 2902.97,-1829.69 2903.39,-1831.44 2903.62,-1833.22 2903.69,-1835.03 2903.58,-1836.85 2903.31,-1838.69 2902.88,-1840.53 2902.3,-1842.37 2901.57,-1844.22 2900.7,-1846.05 2899.69,-1847.87 2898.56,-1849.68 2897.31,-1851.46 2895.95,-1853.22 2894.49,-1854.94 2892.93,-1856.63 2891.28,-1858.27 2889.55,-1859.87 2887.75,-1861.42 2885.88,-1862.91 2883.95,-1864.34 2881.97,-1865.71 2879.94,-1867.02 2877.86,-1868.25 2875.75,-1869.42 2873.61,-1870.5 2871.44,-1871.5 2869.24,-1872.43 2867.02,-1873.27 2864.79,-1874.02 2862.54,-1874.68 2860.28,-1875.25 2858.01,-1875.73 2855.73,-1876.11 2853.45,-1876.4 2851.17,-1876.59 2848.88,-1876.69 2846.59,-1876.69 2844.3,-1876.59 2842.01,-1876.4 2839.73,-1876.11 2837.45,-1875.73 2835.18,-1875.25 2832.92,-1874.68 2830.68,-1874.02 2828.44,-1873.27 2826.22,-1872.43 2824.03,-1871.5 2821.86,-1870.5 2819.71,-1869.42 2817.6,-1868.25 2815.53,-1867.02 2813.5,-1865.71 2811.51,-1864.34 2809.58,-1862.91 2807.71,-1861.42 2805.91,-1859.87 2804.18,-1858.27 2802.54,-1856.63 2800.98,-1854.94 2799.51,-1853.22 2798.15,-1851.46 2796.9,-1849.68 2795.77,-1847.87 2794.77,-1846.05 2793.9,-1844.22 2793.17,-1842.37 2792.58,-1840.53 2792.15,-1838.69 2791.88,-1836.85 2791.78,-1835.03 2791.84,-1833.22 2792.08,-1831.44 2792.49,-1829.69 2793.09,-1827.96 2793.87,-1826.28 2794.83,-1824.63 2795.97,-1823.03 2797.3,-1821.49 2798.81,-1819.99 2800.5,-1818.56 2802.36,-1817.19 2804.39,-1815.88 2806.58,-1814.65 2808.94,-1813.49 2811.44,-1812.4 2814.09,-1811.4 2816.87,-1810.48 2819.77,-1809.64 2822.79,-1808.89 2825.9,-1808.23 2829.11,-1807.66 2832.39,-1807.18 2835.73,-1806.79 2839.13,-1806.51 2842.55,-1806.31 2846,-1806.22 2849.46,-1806.22 2852.91,-1806.31"/>
<text text-anchor="start" x="2818.56" y="-1851.25" font-family="Times,serif" font-size="14.00">C0007623</text>
<text text-anchor="start" x="2823.83" y="-1837.25" font-family="Times,serif" font-size="14.00">cell wall</text>
<text text-anchor="start" x="2824.79" y="-1823.25" font-family="Times,serif" font-size="14.00">242:243</text>
</g>
<!-- id_28299515_DOT_8&#45;&#45;id_28299515_DOT_29 -->
<g id="edge25" class="edge">
<title>id_28299515_DOT_8&#45;&#45;id_28299515_DOT_29</title>
<path fill="none" stroke="black" stroke-dasharray="1,5" d="M2496.02,-1781.86C2581.75,-1796.39 2716.45,-1819.21 2791.84,-1831.98"/>
<text text-anchor="middle" x="2617.68" y="-1809.72" font-family="Times,serif" font-size="14.00">0.785031</text>
</g>
<!-- id_28299515_DOT_9 -->
<g id="node9" class="node">
<title>id_28299515_DOT_9</title>
<polygon fill="bisque" stroke="bisque" points="6115.99,-3426.11 6119.42,-3426.3 6122.81,-3426.59 6126.15,-3426.98 6129.43,-3427.45 6132.64,-3428.02 6135.75,-3428.68 6138.77,-3429.44 6141.67,-3430.27 6144.45,-3431.2 6147.1,-3432.2 6149.6,-3433.29 6151.96,-3434.45 6154.15,-3435.68 6156.19,-3436.99 6158.05,-3438.36 6159.73,-3439.79 6161.24,-3441.28 6162.57,-3442.83 6163.71,-3444.43 6164.67,-3446.07 6165.45,-3447.76 6166.05,-3449.48 6166.46,-3451.24 6166.7,-3453.02 6166.77,-3454.83 6166.66,-3456.65 6166.39,-3458.48 6165.96,-3460.33 6165.38,-3462.17 6164.64,-3464.01 6163.77,-3465.85 6162.77,-3467.67 6161.64,-3469.48 6160.39,-3471.26 6159.03,-3473.02 6157.57,-3474.74 6156.01,-3476.42 6154.36,-3478.07 6152.63,-3479.67 6150.83,-3481.21 6148.96,-3482.71 6147.03,-3484.14 6145.05,-3485.51 6143.02,-3486.82 6140.94,-3488.05 6138.83,-3489.21 6136.69,-3490.3 6134.51,-3491.3 6132.32,-3492.23 6130.1,-3493.06 6127.87,-3493.81 6125.62,-3494.48 6123.36,-3495.05 6121.09,-3495.52 6118.81,-3495.91 6116.53,-3496.2 6114.24,-3496.39 6111.95,-3496.48 6109.67,-3496.48 6107.38,-3496.39 6105.09,-3496.2 6102.81,-3495.91 6100.53,-3495.52 6098.26,-3495.05 6096,-3494.48 6093.75,-3493.81 6091.52,-3493.06 6089.3,-3492.23 6087.11,-3491.3 6084.93,-3490.3 6082.79,-3489.21 6080.68,-3488.05 6078.6,-3486.82 6076.57,-3485.51 6074.59,-3484.14 6072.66,-3482.71 6070.79,-3481.21 6068.99,-3479.67 6067.26,-3478.07 6065.61,-3476.42 6064.05,-3474.74 6062.59,-3473.02 6061.23,-3471.26 6059.98,-3469.48 6058.85,-3467.67 6057.85,-3465.85 6056.97,-3464.01 6056.24,-3462.17 6055.66,-3460.33 6055.23,-3458.48 6054.96,-3456.65 6054.85,-3454.83 6054.92,-3453.02 6055.16,-3451.24 6055.57,-3449.48 6056.17,-3447.76 6056.94,-3446.07 6057.91,-3444.43 6059.05,-3442.83 6060.38,-3441.28 6061.89,-3439.79 6063.57,-3438.36 6065.43,-3436.99 6067.47,-3435.68 6069.66,-3434.45 6072.02,-3433.29 6074.52,-3432.2 6077.17,-3431.2 6079.95,-3430.27 6082.85,-3429.44 6085.87,-3428.68 6088.98,-3428.02 6092.19,-3427.45 6095.47,-3426.98 6098.81,-3426.59 6102.2,-3426.3 6105.63,-3426.11 6109.08,-3426.01 6112.54,-3426.01 6115.99,-3426.11"/>
<text text-anchor="start" x="6081.64" y="-3471.05" font-family="Times,serif" font-size="14.00">C0242726</text>
<text text-anchor="start" x="6099.53" y="-3457.05" font-family="Times,serif" font-size="14.00">root</text>
<text text-anchor="start" x="6088.38" y="-3443.05" font-family="Times,serif" font-size="14.00">117:117</text>
</g>
<!-- id_28299515_DOT_14 -->
<g id="node14" class="node">
<title>id_28299515_DOT_14</title>
<polygon fill="bisque" stroke="bisque" points="5767.82,-3619.38 5771.25,-3619.57 5774.64,-3619.86 5777.98,-3620.25 5781.26,-3620.72 5784.47,-3621.3 5787.58,-3621.96 5790.6,-3622.71 5793.5,-3623.54 5796.28,-3624.47 5798.93,-3625.47 5801.43,-3626.56 5803.79,-3627.72 5805.98,-3628.95 5808.02,-3630.26 5809.88,-3631.63 5811.56,-3633.06 5813.07,-3634.56 5814.4,-3636.1 5815.54,-3637.7 5816.51,-3639.35 5817.28,-3641.03 5817.88,-3642.76 5818.3,-3644.51 5818.53,-3646.29 5818.6,-3648.1 5818.49,-3649.92 5818.22,-3651.76 5817.79,-3653.6 5817.21,-3655.44 5816.48,-3657.29 5815.6,-3659.12 5814.6,-3660.94 5813.47,-3662.75 5812.22,-3664.53 5810.86,-3666.29 5809.4,-3668.01 5807.84,-3669.7 5806.19,-3671.34 5804.46,-3672.94 5802.66,-3674.49 5800.79,-3675.98 5798.86,-3677.41 5796.88,-3678.78 5794.85,-3680.09 5792.77,-3681.32 5790.66,-3682.48 5788.52,-3683.57 5786.34,-3684.57 5784.15,-3685.5 5781.93,-3686.33 5779.7,-3687.09 5777.45,-3687.75 5775.19,-3688.32 5772.92,-3688.79 5770.64,-3689.18 5768.36,-3689.47 5766.07,-3689.66 5763.79,-3689.76 5761.5,-3689.76 5759.21,-3689.66 5756.92,-3689.47 5754.64,-3689.18 5752.36,-3688.79 5750.09,-3688.32 5747.83,-3687.75 5745.58,-3687.09 5743.35,-3686.33 5741.13,-3685.5 5738.94,-3684.57 5736.76,-3683.57 5734.62,-3682.48 5732.51,-3681.32 5730.44,-3680.09 5728.4,-3678.78 5726.42,-3677.41 5724.49,-3675.98 5722.62,-3674.49 5720.82,-3672.94 5719.09,-3671.34 5717.44,-3669.7 5715.88,-3668.01 5714.42,-3666.29 5713.06,-3664.53 5711.81,-3662.75 5710.68,-3660.94 5709.68,-3659.12 5708.81,-3657.29 5708.07,-3655.44 5707.49,-3653.6 5707.06,-3651.76 5706.79,-3649.92 5706.68,-3648.1 5706.75,-3646.29 5706.99,-3644.51 5707.4,-3642.76 5708,-3641.03 5708.78,-3639.35 5709.74,-3637.7 5710.88,-3636.1 5712.21,-3634.56 5713.72,-3633.06 5715.4,-3631.63 5717.27,-3630.26 5719.3,-3628.95 5721.49,-3627.72 5723.85,-3626.56 5726.35,-3625.47 5729,-3624.47 5731.78,-3623.54 5734.68,-3622.71 5737.7,-3621.96 5740.81,-3621.3 5744.02,-3620.72 5747.3,-3620.25 5750.64,-3619.86 5754.03,-3619.57 5757.46,-3619.38 5760.91,-3619.29 5764.37,-3619.29 5767.82,-3619.38"/>
<text text-anchor="start" x="5733.47" y="-3664.32" font-family="Times,serif" font-size="14.00">C0242726</text>
<text text-anchor="start" x="5748.64" y="-3650.32" font-family="Times,serif" font-size="14.00">roots</text>
<text text-anchor="start" x="5739.7" y="-3636.32" font-family="Times,serif" font-size="14.00">138:138</text>
</g>
<!-- id_28299515_DOT_9&#45;&#45;id_28299515_DOT_14 -->
<g id="edge5" class="edge">
<title>id_28299515_DOT_9&#45;&#45;id_28299515_DOT_14</title>
<path fill="none" stroke="black" d="M6072.22,-3482.67C6007.24,-3518.74 5876.35,-3591.4 5807.43,-3629.66"/>
<text text-anchor="middle" x="5913.58" y="-3558.96" font-family="Times,serif" font-size="14.00">0.002049</text>
</g>
<!-- id_28299515_DOT_10 -->
<g id="node10" class="node">
<title>id_28299515_DOT_10</title>
<polygon fill="cadetblue" stroke="cadetblue" points="3371.08,-1125.04 3374.51,-1125.23 3377.9,-1125.52 3381.24,-1125.9 3384.52,-1126.38 3387.73,-1126.95 3390.84,-1127.61 3393.86,-1128.36 3396.76,-1129.2 3399.54,-1130.13 3402.19,-1131.13 3404.69,-1132.21 3407.05,-1133.38 3409.24,-1134.61 3411.28,-1135.92 3413.14,-1137.29 3414.82,-1138.72 3416.33,-1140.21 3417.66,-1141.76 3418.8,-1143.36 3419.77,-1145 3420.54,-1146.69 3421.14,-1148.41 3421.55,-1150.17 3421.79,-1151.95 3421.86,-1153.76 3421.75,-1155.58 3421.48,-1157.41 3421.05,-1159.26 3420.47,-1161.1 3419.74,-1162.94 3418.86,-1164.78 3417.86,-1166.6 3416.73,-1168.41 3415.48,-1170.19 3414.12,-1171.94 3412.66,-1173.67 3411.1,-1175.35 3409.45,-1177 3407.72,-1178.6 3405.92,-1180.14 3404.05,-1181.64 3402.12,-1183.07 3400.14,-1184.44 3398.11,-1185.75 3396.03,-1186.98 3393.92,-1188.14 3391.78,-1189.23 3389.6,-1190.23 3387.41,-1191.15 3385.19,-1191.99 3382.96,-1192.74 3380.71,-1193.4 3378.45,-1193.97 3376.18,-1194.45 3373.9,-1194.84 3371.62,-1195.12 3369.33,-1195.32 3367.05,-1195.41 3364.76,-1195.41 3362.47,-1195.32 3360.18,-1195.12 3357.9,-1194.84 3355.62,-1194.45 3353.35,-1193.97 3351.09,-1193.4 3348.84,-1192.74 3346.61,-1191.99 3344.39,-1191.15 3342.2,-1190.23 3340.02,-1189.23 3337.88,-1188.14 3335.77,-1186.98 3333.7,-1185.75 3331.66,-1184.44 3329.68,-1183.07 3327.75,-1181.64 3325.88,-1180.14 3324.08,-1178.6 3322.35,-1177 3320.7,-1175.35 3319.14,-1173.67 3317.68,-1171.94 3316.32,-1170.19 3315.07,-1168.41 3313.94,-1166.6 3312.94,-1164.78 3312.07,-1162.94 3311.33,-1161.1 3310.75,-1159.26 3310.32,-1157.41 3310.05,-1155.58 3309.94,-1153.76 3310.01,-1151.95 3310.25,-1150.17 3310.66,-1148.41 3311.26,-1146.69 3312.04,-1145 3313,-1143.36 3314.14,-1141.76 3315.47,-1140.21 3316.98,-1138.72 3318.66,-1137.29 3320.52,-1135.92 3322.56,-1134.61 3324.75,-1133.38 3327.11,-1132.21 3329.61,-1131.13 3332.26,-1130.13 3335.04,-1129.2 3337.94,-1128.36 3340.96,-1127.61 3344.07,-1126.95 3347.28,-1126.38 3350.56,-1125.9 3353.9,-1125.52 3357.29,-1125.23 3360.72,-1125.04 3364.17,-1124.94 3367.63,-1124.94 3371.08,-1125.04"/>
<text text-anchor="start" x="3336.73" y="-1169.98" font-family="Times,serif" font-size="14.00">C0205093</text>
<text text-anchor="start" x="3348.41" y="-1155.98" font-family="Times,serif" font-size="14.00">lateral</text>
<text text-anchor="start" x="3342.96" y="-1141.98" font-family="Times,serif" font-size="14.00">125:125</text>
</g>
<!-- id_28299515_DOT_13 -->
<g id="node13" class="node">
<title>id_28299515_DOT_13</title>
<polygon fill="cadetblue" stroke="cadetblue" points="3619.91,-817.69 3623.34,-817.88 3626.73,-818.17 3630.07,-818.56 3633.36,-819.03 3636.56,-819.6 3639.68,-820.26 3642.69,-821.01 3645.59,-821.85 3648.37,-822.78 3651.02,-823.78 3653.53,-824.87 3655.88,-826.03 3658.08,-827.26 3660.11,-828.57 3661.97,-829.94 3663.66,-831.37 3665.16,-832.86 3666.49,-834.41 3667.64,-836.01 3668.6,-837.65 3669.38,-839.34 3669.97,-841.06 3670.39,-842.82 3670.62,-844.6 3670.69,-846.41 3670.58,-848.23 3670.31,-850.06 3669.88,-851.91 3669.3,-853.75 3668.57,-855.59 3667.7,-857.43 3666.69,-859.25 3665.56,-861.06 3664.31,-862.84 3662.95,-864.59 3661.49,-866.32 3659.93,-868 3658.28,-869.65 3656.55,-871.25 3654.75,-872.79 3652.88,-874.29 3650.95,-875.72 3648.97,-877.09 3646.94,-878.4 3644.86,-879.63 3642.75,-880.79 3640.61,-881.88 3638.44,-882.88 3636.24,-883.8 3634.02,-884.64 3631.79,-885.39 3629.54,-886.05 3627.28,-886.62 3625.01,-887.1 3622.73,-887.49 3620.45,-887.77 3618.17,-887.97 3615.88,-888.06 3613.59,-888.06 3611.3,-887.97 3609.01,-887.77 3606.73,-887.49 3604.45,-887.1 3602.18,-886.62 3599.92,-886.05 3597.68,-885.39 3595.44,-884.64 3593.22,-883.8 3591.03,-882.88 3588.86,-881.88 3586.71,-880.79 3584.6,-879.63 3582.53,-878.4 3580.5,-877.09 3578.51,-875.72 3576.58,-874.29 3574.71,-872.79 3572.91,-871.25 3571.18,-869.65 3569.54,-868 3567.98,-866.32 3566.51,-864.59 3565.15,-862.84 3563.9,-861.06 3562.77,-859.25 3561.77,-857.43 3560.9,-855.59 3560.17,-853.75 3559.58,-851.91 3559.15,-850.06 3558.88,-848.23 3558.78,-846.41 3558.84,-844.6 3559.08,-842.82 3559.49,-841.06 3560.09,-839.34 3560.87,-837.65 3561.83,-836.01 3562.97,-834.41 3564.3,-832.86 3565.81,-831.37 3567.5,-829.94 3569.36,-828.57 3571.39,-827.26 3573.58,-826.03 3575.94,-824.87 3578.44,-823.78 3581.09,-822.78 3583.87,-821.85 3586.77,-821.01 3589.79,-820.26 3592.9,-819.6 3596.11,-819.03 3599.39,-818.56 3602.73,-818.17 3606.13,-817.88 3609.55,-817.69 3613,-817.59 3616.46,-817.59 3619.91,-817.69"/>
<text text-anchor="start" x="3585.56" y="-862.63" font-family="Times,serif" font-size="14.00">C0205093</text>
<text text-anchor="start" x="3597.25" y="-848.63" font-family="Times,serif" font-size="14.00">lateral</text>
<text text-anchor="start" x="3591.79" y="-834.63" font-family="Times,serif" font-size="14.00">137:137</text>
</g>
<!-- id_28299515_DOT_10&#45;&#45;id_28299515_DOT_13 -->
<g id="edge6" class="edge">
<title>id_28299515_DOT_10&#45;&#45;id_28299515_DOT_13</title>
<path fill="none" stroke="black" d="M3392.06,-1127.87C3440.47,-1068.07 3543.39,-940.95 3590.4,-882.89"/>
<text text-anchor="middle" x="3464.98" y="-1008.18" font-family="Times,serif" font-size="14.00">0.000709</text>
</g>
<!-- id_28299515_DOT_19 -->
<g id="node19" class="node">
<title>id_28299515_DOT_19</title>
<polygon fill="cadetblue" stroke="cadetblue" points="3105.09,-1445.79 3108.52,-1445.99 3111.91,-1446.28 3115.26,-1446.66 3118.54,-1447.14 3121.74,-1447.71 3124.86,-1448.37 3127.87,-1449.12 3130.78,-1449.96 3133.56,-1450.88 3136.2,-1451.88 3138.71,-1452.97 3141.06,-1454.13 3143.26,-1455.36 3145.29,-1456.67 3147.15,-1458.04 3148.84,-1459.47 3150.35,-1460.97 3151.67,-1462.52 3152.82,-1464.11 3153.78,-1465.76 3154.56,-1467.44 3155.15,-1469.17 3155.57,-1470.92 3155.81,-1472.7 3155.87,-1474.51 3155.77,-1476.33 3155.49,-1478.17 3155.06,-1480.01 3154.48,-1481.85 3153.75,-1483.7 3152.88,-1485.53 3151.87,-1487.36 3150.74,-1489.16 3149.49,-1490.94 3148.13,-1492.7 3146.67,-1494.42 3145.11,-1496.11 3143.46,-1497.75 3141.74,-1499.35 3139.93,-1500.9 3138.06,-1502.39 3136.14,-1503.82 3134.15,-1505.2 3132.12,-1506.5 3130.05,-1507.73 3127.93,-1508.9 3125.79,-1509.98 3123.62,-1510.99 3121.42,-1511.91 3119.21,-1512.75 3116.97,-1513.5 3114.72,-1514.16 3112.46,-1514.73 3110.19,-1515.21 3107.92,-1515.59 3105.63,-1515.88 3103.35,-1516.07 3101.06,-1516.17 3098.77,-1516.17 3096.48,-1516.07 3094.2,-1515.88 3091.91,-1515.59 3089.64,-1515.21 3087.37,-1514.73 3085.11,-1514.16 3082.86,-1513.5 3080.62,-1512.75 3078.41,-1511.91 3076.21,-1510.99 3074.04,-1509.98 3071.9,-1508.9 3069.78,-1507.73 3067.71,-1506.5 3065.68,-1505.2 3063.69,-1503.82 3061.77,-1502.39 3059.9,-1500.9 3058.09,-1499.35 3056.37,-1497.75 3054.72,-1496.11 3053.16,-1494.42 3051.7,-1492.7 3050.34,-1490.94 3049.09,-1489.16 3047.96,-1487.36 3046.95,-1485.53 3046.08,-1483.7 3045.35,-1481.85 3044.77,-1480.01 3044.33,-1478.17 3044.06,-1476.33 3043.96,-1474.51 3044.02,-1472.7 3044.26,-1470.92 3044.68,-1469.17 3045.27,-1467.44 3046.05,-1465.76 3047.01,-1464.11 3048.16,-1462.52 3049.48,-1460.97 3050.99,-1459.47 3052.68,-1458.04 3054.54,-1456.67 3056.57,-1455.36 3058.77,-1454.13 3061.12,-1452.97 3063.63,-1451.88 3066.27,-1450.88 3069.05,-1449.96 3071.96,-1449.12 3074.97,-1448.37 3078.09,-1447.71 3081.29,-1447.14 3084.57,-1446.66 3087.92,-1446.28 3091.31,-1445.99 3094.74,-1445.79 3098.19,-1445.7 3101.64,-1445.7 3105.09,-1445.79"/>
<text text-anchor="start" x="3070.75" y="-1490.73" font-family="Times,serif" font-size="14.00">C0205093</text>
<text text-anchor="start" x="3082.43" y="-1476.73" font-family="Times,serif" font-size="14.00">lateral</text>
<text text-anchor="start" x="3076.97" y="-1462.73" font-family="Times,serif" font-size="14.00">177:177</text>
</g>
<!-- id_28299515_DOT_10&#45;&#45;id_28299515_DOT_19 -->
<g id="edge7" class="edge">
<title>id_28299515_DOT_10&#45;&#45;id_28299515_DOT_19</title>
<path fill="none" stroke="black" d="M3341.12,-1190.07C3291.08,-1250.41 3178.36,-1386.33 3126.7,-1448.63"/>
<text text-anchor="middle" x="3207.66" y="-1322.15" font-family="Times,serif" font-size="14.00">0.003867</text>
</g>
<!-- id_28299515_DOT_11 -->
<g id="node11" class="node">
<title>id_28299515_DOT_11</title>
<polygon fill="bisque" stroke="bisque" points="5910.6,-3991.55 5914.03,-3991.75 5917.42,-3992.03 5920.76,-3992.42 5924.04,-3992.9 5927.25,-3993.47 5930.36,-3994.13 5933.38,-3994.88 5936.28,-3995.72 5939.06,-3996.64 5941.71,-3997.64 5944.21,-3998.73 5946.57,-3999.89 5948.76,-4001.12 5950.79,-4002.43 5952.66,-4003.8 5954.34,-4005.23 5955.85,-4006.73 5957.18,-4008.27 5958.32,-4009.87 5959.28,-4011.52 5960.06,-4013.2 5960.66,-4014.93 5961.07,-4016.68 5961.31,-4018.46 5961.38,-4020.27 5961.27,-4022.09 5961,-4023.93 5960.57,-4025.77 5959.99,-4027.61 5959.25,-4029.46 5958.38,-4031.29 5957.38,-4033.11 5956.25,-4034.92 5955,-4036.7 5953.64,-4038.46 5952.18,-4040.18 5950.62,-4041.87 5948.97,-4043.51 5947.24,-4045.11 5945.44,-4046.66 5943.57,-4048.15 5941.64,-4049.58 5939.66,-4050.95 5937.62,-4052.26 5935.55,-4053.49 5933.44,-4054.66 5931.3,-4055.74 5929.12,-4056.74 5926.93,-4057.67 5924.71,-4058.51 5922.48,-4059.26 5920.23,-4059.92 5917.97,-4060.49 5915.7,-4060.97 5913.42,-4061.35 5911.14,-4061.64 5908.85,-4061.83 5906.56,-4061.93 5904.27,-4061.93 5901.99,-4061.83 5899.7,-4061.64 5897.42,-4061.35 5895.14,-4060.97 5892.87,-4060.49 5890.61,-4059.92 5888.36,-4059.26 5886.13,-4058.51 5883.91,-4057.67 5881.72,-4056.74 5879.54,-4055.74 5877.4,-4054.66 5875.29,-4053.49 5873.21,-4052.26 5871.18,-4050.95 5869.2,-4049.58 5867.27,-4048.15 5865.4,-4046.66 5863.6,-4045.11 5861.87,-4043.51 5860.22,-4041.87 5858.66,-4040.18 5857.2,-4038.46 5855.84,-4036.7 5854.59,-4034.92 5853.46,-4033.11 5852.46,-4031.29 5851.58,-4029.46 5850.85,-4027.61 5850.27,-4025.77 5849.84,-4023.93 5849.57,-4022.09 5849.46,-4020.27 5849.53,-4018.46 5849.76,-4016.68 5850.18,-4014.93 5850.78,-4013.2 5851.55,-4011.52 5852.52,-4009.87 5853.66,-4008.27 5854.99,-4006.73 5856.5,-4005.23 5858.18,-4003.8 5860.04,-4002.43 5862.08,-4001.12 5864.27,-3999.89 5866.63,-3998.73 5869.13,-3997.64 5871.78,-3996.64 5874.56,-3995.72 5877.46,-3994.88 5880.48,-3994.13 5883.59,-3993.47 5886.8,-3992.9 5890.08,-3992.42 5893.42,-3992.03 5896.81,-3991.75 5900.24,-3991.55 5903.69,-3991.46 5907.15,-3991.46 5910.6,-3991.55"/>
<text text-anchor="start" x="5876.25" y="-4036.49" font-family="Times,serif" font-size="14.00">C0242726</text>
<text text-anchor="start" x="5891.42" y="-4022.49" font-family="Times,serif" font-size="14.00">roots</text>
<text text-anchor="start" x="5882.47" y="-4008.49" font-family="Times,serif" font-size="14.00">126:126</text>
</g>
<!-- id_28299515_DOT_11&#45;&#45;id_28299515_DOT_14 -->
<g id="edge8" class="edge">
<title>id_28299515_DOT_11&#45;&#45;id_28299515_DOT_14</title>
<path fill="none" stroke="black" d="M5892.12,-3992.01C5864.8,-3920.82 5802.71,-3758.98 5775.65,-3688.44"/>
<text text-anchor="middle" x="5807.63" y="-3843.03" font-family="Times,serif" font-size="14.00">0.000625</text>
</g>
<!-- id_28299515_DOT_12 -->
<g id="node12" class="node">
<title>id_28299515_DOT_12</title>
<polygon fill="chartreuse" stroke="chartreuse" points="1548.62,-0.23 1552.04,-0.42 1555.44,-0.71 1558.78,-1.09 1562.06,-1.57 1565.27,-2.14 1568.38,-2.8 1571.4,-3.55 1574.3,-4.39 1577.08,-5.31 1579.73,-6.32 1582.23,-7.4 1584.59,-8.57 1586.78,-9.8 1588.81,-11.1 1590.67,-12.48 1592.36,-13.91 1593.87,-15.4 1595.2,-16.95 1596.34,-18.55 1597.3,-20.19 1598.08,-21.88 1598.68,-23.6 1599.09,-25.36 1599.33,-27.14 1599.39,-28.94 1599.29,-30.77 1599.02,-32.6 1598.59,-34.44 1598,-36.29 1597.27,-38.13 1596.4,-39.97 1595.4,-41.79 1594.27,-43.6 1593.02,-45.38 1591.66,-47.13 1590.19,-48.86 1588.63,-50.54 1586.99,-52.19 1585.26,-53.78 1583.46,-55.33 1581.59,-56.82 1579.66,-58.26 1577.67,-59.63 1575.64,-60.94 1573.57,-62.17 1571.46,-63.33 1569.31,-64.42 1567.14,-65.42 1564.94,-66.34 1562.73,-67.18 1560.49,-67.93 1558.25,-68.59 1555.99,-69.16 1553.72,-69.64 1551.44,-70.02 1549.16,-70.31 1546.87,-70.51 1544.58,-70.6 1542.29,-70.6 1540,-70.51 1537.72,-70.31 1535.44,-70.02 1533.16,-69.64 1530.89,-69.16 1528.63,-68.59 1526.38,-67.93 1524.15,-67.18 1521.93,-66.34 1519.73,-65.42 1517.56,-64.42 1515.42,-63.33 1513.31,-62.17 1511.23,-60.94 1509.2,-59.63 1507.22,-58.26 1505.29,-56.82 1503.42,-55.33 1501.62,-53.78 1499.89,-52.19 1498.24,-50.54 1496.68,-48.86 1495.22,-47.13 1493.86,-45.38 1492.61,-43.6 1491.48,-41.79 1490.47,-39.97 1489.6,-38.13 1488.87,-36.29 1488.29,-34.44 1487.86,-32.6 1487.59,-30.77 1487.48,-28.94 1487.54,-27.14 1487.78,-25.36 1488.2,-23.6 1488.79,-21.88 1489.57,-20.19 1490.53,-18.55 1491.68,-16.95 1493.01,-15.4 1494.51,-13.91 1496.2,-12.48 1498.06,-11.1 1500.09,-9.8 1502.29,-8.57 1504.64,-7.4 1507.15,-6.32 1509.79,-5.31 1512.57,-4.39 1515.48,-3.55 1518.49,-2.8 1521.61,-2.14 1524.81,-1.57 1528.09,-1.09 1531.44,-0.71 1534.83,-0.42 1538.26,-0.23 1541.71,-0.13 1545.17,-0.13 1548.62,-0.23"/>
<text text-anchor="start" x="1514.27" y="-45.17" font-family="Times,serif" font-size="14.00">C0205125</text>
<text text-anchor="start" x="1527.89" y="-31.17" font-family="Times,serif" font-size="14.00">depth</text>
<text text-anchor="start" x="1520.49" y="-17.17" font-family="Times,serif" font-size="14.00">130:130</text>
</g>
<!-- id_28299515_DOT_23 -->
<g id="node23" class="node">
<title>id_28299515_DOT_23</title>
<polygon fill="crimson" stroke="crimson" points="1670.32,-372.16 1673.75,-372.35 1677.14,-372.64 1680.48,-373.02 1683.77,-373.5 1686.97,-374.07 1690.09,-374.73 1693.1,-375.48 1696,-376.32 1698.78,-377.24 1701.43,-378.25 1703.94,-379.33 1706.29,-380.49 1708.49,-381.73 1710.52,-383.03 1712.38,-384.41 1714.07,-385.84 1715.57,-387.33 1716.9,-388.88 1718.05,-390.48 1719.01,-392.12 1719.79,-393.81 1720.38,-395.53 1720.8,-397.29 1721.03,-399.07 1721.1,-400.87 1720.99,-402.7 1720.72,-404.53 1720.29,-406.37 1719.71,-408.22 1718.98,-410.06 1718.11,-411.9 1717.1,-413.72 1715.97,-415.53 1714.72,-417.31 1713.36,-419.06 1711.9,-420.79 1710.34,-422.47 1708.69,-424.12 1706.96,-425.71 1705.16,-427.26 1703.29,-428.75 1701.36,-430.19 1699.38,-431.56 1697.35,-432.86 1695.27,-434.1 1693.16,-435.26 1691.02,-436.35 1688.85,-437.35 1686.65,-438.27 1684.43,-439.11 1682.2,-439.86 1679.95,-440.52 1677.69,-441.09 1675.42,-441.57 1673.14,-441.95 1670.86,-442.24 1668.58,-442.44 1666.29,-442.53 1664,-442.53 1661.71,-442.44 1659.42,-442.24 1657.14,-441.95 1654.86,-441.57 1652.59,-441.09 1650.33,-440.52 1648.09,-439.86 1645.85,-439.11 1643.63,-438.27 1641.44,-437.35 1639.27,-436.35 1637.12,-435.26 1635.01,-434.1 1632.94,-432.86 1630.91,-431.56 1628.92,-430.19 1626.99,-428.75 1625.12,-427.26 1623.32,-425.71 1621.59,-424.12 1619.95,-422.47 1618.39,-420.79 1616.92,-419.06 1615.56,-417.31 1614.31,-415.53 1613.18,-413.72 1612.18,-411.9 1611.31,-410.06 1610.58,-408.22 1609.99,-406.37 1609.56,-404.53 1609.29,-402.7 1609.19,-400.87 1609.25,-399.07 1609.49,-397.29 1609.9,-395.53 1610.5,-393.81 1611.28,-392.12 1612.24,-390.48 1613.38,-388.88 1614.71,-387.33 1616.22,-385.84 1617.91,-384.41 1619.77,-383.03 1621.8,-381.73 1623.99,-380.49 1626.35,-379.33 1628.85,-378.25 1631.5,-377.24 1634.28,-376.32 1637.18,-375.48 1640.2,-374.73 1643.31,-374.07 1646.52,-373.5 1649.8,-373.02 1653.14,-372.64 1656.54,-372.35 1659.96,-372.16 1663.41,-372.06 1666.87,-372.06 1670.32,-372.16"/>
<text text-anchor="start" x="1635.97" y="-417.1" font-family="Times,serif" font-size="14.00">C0205146</text>
<text text-anchor="start" x="1653.49" y="-403.1" font-family="Times,serif" font-size="14.00">area</text>
<text text-anchor="start" x="1642.2" y="-389.1" font-family="Times,serif" font-size="14.00">208:208</text>
</g>
<!-- id_28299515_DOT_12&#45;&#45;id_28299515_DOT_23 -->
<g id="edge26" class="edge">
<title>id_28299515_DOT_12&#45;&#45;id_28299515_DOT_23</title>
<path fill="none" stroke="black" stroke-dasharray="1,5" d="M1554.67,-69.69C1577.8,-140.37 1630.51,-301.45 1653.76,-372.52"/>
<text text-anchor="middle" x="1577.96" y="-223.9" font-family="Times,serif" font-size="14.00">0.877362</text>
</g>
<!-- id_28299515_DOT_20 -->
<g id="node20" class="node">
<title>id_28299515_DOT_20</title>
<polygon fill="bisque" stroke="bisque" points="5399.67,-3495.96 5403.1,-3496.15 5406.49,-3496.44 5409.83,-3496.82 5413.12,-3497.3 5416.32,-3497.87 5419.44,-3498.53 5422.45,-3499.28 5425.35,-3500.12 5428.13,-3501.04 5430.78,-3502.05 5433.29,-3503.13 5435.64,-3504.29 5437.84,-3505.53 5439.87,-3506.83 5441.73,-3508.2 5443.42,-3509.64 5444.92,-3511.13 5446.25,-3512.68 5447.4,-3514.28 5448.36,-3515.92 5449.13,-3517.61 5449.73,-3519.33 5450.15,-3521.08 5450.38,-3522.87 5450.45,-3524.67 5450.34,-3526.49 5450.07,-3528.33 5449.64,-3530.17 5449.06,-3532.02 5448.33,-3533.86 5447.46,-3535.7 5446.45,-3537.52 5445.32,-3539.32 5444.07,-3541.11 5442.71,-3542.86 5441.25,-3544.58 5439.69,-3546.27 5438.04,-3547.91 5436.31,-3549.51 5434.51,-3551.06 5432.64,-3552.55 5430.71,-3553.99 5428.73,-3555.36 5426.7,-3556.66 5424.62,-3557.9 5422.51,-3559.06 5420.37,-3560.14 5418.2,-3561.15 5416,-3562.07 5413.78,-3562.91 5411.55,-3563.66 5409.3,-3564.32 5407.04,-3564.89 5404.77,-3565.37 5402.49,-3565.75 5400.21,-3566.04 5397.93,-3566.23 5395.64,-3566.33 5393.35,-3566.33 5391.06,-3566.23 5388.77,-3566.04 5386.49,-3565.75 5384.21,-3565.37 5381.94,-3564.89 5379.68,-3564.32 5377.43,-3563.66 5375.2,-3562.91 5372.98,-3562.07 5370.79,-3561.15 5368.62,-3560.14 5366.47,-3559.06 5364.36,-3557.9 5362.29,-3556.66 5360.26,-3555.36 5358.27,-3553.99 5356.34,-3552.55 5354.47,-3551.06 5352.67,-3549.51 5350.94,-3547.91 5349.3,-3546.27 5347.74,-3544.58 5346.27,-3542.86 5344.91,-3541.11 5343.66,-3539.32 5342.53,-3537.52 5341.53,-3535.7 5340.66,-3533.86 5339.93,-3532.02 5339.34,-3530.17 5338.91,-3528.33 5338.64,-3526.49 5338.54,-3524.67 5338.6,-3522.87 5338.84,-3521.08 5339.25,-3519.33 5339.85,-3517.61 5340.63,-3515.92 5341.59,-3514.28 5342.73,-3512.68 5344.06,-3511.13 5345.57,-3509.64 5347.25,-3508.2 5349.12,-3506.83 5351.15,-3505.53 5353.34,-3504.29 5355.7,-3503.13 5358.2,-3502.05 5360.85,-3501.04 5363.63,-3500.12 5366.53,-3499.28 5369.55,-3498.53 5372.66,-3497.87 5375.87,-3497.3 5379.15,-3496.82 5382.49,-3496.44 5385.89,-3496.15 5389.31,-3495.96 5392.76,-3495.86 5396.22,-3495.86 5399.67,-3495.96"/>
<text text-anchor="start" x="5365.32" y="-3540.9" font-family="Times,serif" font-size="14.00">C0242726</text>
<text text-anchor="start" x="5380.49" y="-3526.9" font-family="Times,serif" font-size="14.00">roots</text>
<text text-anchor="start" x="5371.55" y="-3512.9" font-family="Times,serif" font-size="14.00">178:178</text>
</g>
<!-- id_28299515_DOT_14&#45;&#45;id_28299515_DOT_20 -->
<g id="edge9" class="edge">
<title>id_28299515_DOT_14&#45;&#45;id_28299515_DOT_20</title>
<path fill="none" stroke="black" d="M5709.89,-3636.84C5637.42,-3612.54 5508.29,-3569.25 5439.9,-3546.32"/>
<text text-anchor="middle" x="5548.64" y="-3594.38" font-family="Times,serif" font-size="14.00">0.001593</text>
</g>
<!-- id_28299515_DOT_15 -->
<g id="node15" class="node">
<title>id_28299515_DOT_15</title>
<polygon fill="blueviolet" stroke="blueviolet" points="2906.2,-2499.67 2909.63,-2499.86 2913.02,-2500.15 2916.37,-2500.53 2919.65,-2501.01 2922.85,-2501.58 2925.97,-2502.24 2928.98,-2502.99 2931.89,-2503.83 2934.67,-2504.75 2937.31,-2505.76 2939.82,-2506.84 2942.17,-2508.01 2944.37,-2509.24 2946.4,-2510.55 2948.26,-2511.92 2949.95,-2513.35 2951.46,-2514.84 2952.78,-2516.39 2953.93,-2517.99 2954.89,-2519.63 2955.67,-2521.32 2956.26,-2523.04 2956.68,-2524.8 2956.92,-2526.58 2956.98,-2528.39 2956.87,-2530.21 2956.6,-2532.04 2956.17,-2533.89 2955.59,-2535.73 2954.86,-2537.57 2953.99,-2539.41 2952.98,-2541.23 2951.85,-2543.04 2950.6,-2544.82 2949.24,-2546.57 2947.78,-2548.3 2946.22,-2549.98 2944.57,-2551.63 2942.84,-2553.23 2941.04,-2554.77 2939.17,-2556.27 2937.24,-2557.7 2935.26,-2559.07 2933.23,-2560.38 2931.15,-2561.61 2929.04,-2562.77 2926.9,-2563.86 2924.73,-2564.86 2922.53,-2565.78 2920.31,-2566.62 2918.08,-2567.37 2915.83,-2568.03 2913.57,-2568.6 2911.3,-2569.08 2909.03,-2569.47 2906.74,-2569.75 2904.46,-2569.95 2902.17,-2570.04 2899.88,-2570.04 2897.59,-2569.95 2895.3,-2569.75 2893.02,-2569.47 2890.74,-2569.08 2888.48,-2568.6 2886.22,-2568.03 2883.97,-2567.37 2881.73,-2566.62 2879.52,-2565.78 2877.32,-2564.86 2875.15,-2563.86 2873,-2562.77 2870.89,-2561.61 2868.82,-2560.38 2866.79,-2559.07 2864.8,-2557.7 2862.87,-2556.27 2861,-2554.77 2859.2,-2553.23 2857.47,-2551.63 2855.83,-2549.98 2854.27,-2548.3 2852.8,-2546.57 2851.44,-2544.82 2850.19,-2543.04 2849.06,-2541.23 2848.06,-2539.41 2847.19,-2537.57 2846.46,-2535.73 2845.87,-2533.89 2845.44,-2532.04 2845.17,-2530.21 2845.07,-2528.39 2845.13,-2526.58 2845.37,-2524.8 2845.78,-2523.04 2846.38,-2521.32 2847.16,-2519.63 2848.12,-2517.99 2849.26,-2516.39 2850.59,-2514.84 2852.1,-2513.35 2853.79,-2511.92 2855.65,-2510.55 2857.68,-2509.24 2859.88,-2508.01 2862.23,-2506.84 2864.73,-2505.76 2867.38,-2504.75 2870.16,-2503.83 2873.06,-2502.99 2876.08,-2502.24 2879.2,-2501.58 2882.4,-2501.01 2885.68,-2500.53 2889.02,-2500.15 2892.42,-2499.86 2895.85,-2499.67 2899.3,-2499.57 2902.75,-2499.57 2906.2,-2499.67"/>
<text text-anchor="start" x="2871.85" y="-2544.61" font-family="Times,serif" font-size="14.00">C0032098</text>
<text text-anchor="start" x="2884.3" y="-2530.61" font-family="Times,serif" font-size="14.00">plants</text>
<text text-anchor="start" x="2878.08" y="-2516.61" font-family="Times,serif" font-size="14.00">140:140</text>
</g>
<!-- id_28299515_DOT_15&#45;&#45;id_28299515_DOT_18 -->
<g id="edge10" class="edge">
<title>id_28299515_DOT_15&#45;&#45;id_28299515_DOT_18</title>
<path fill="none" stroke="black" d="M2921.48,-2501.23C2960.46,-2437.27 3044.88,-2298.73 3083.19,-2235.85"/>
<text text-anchor="middle" x="2976.08" y="-2371.34" font-family="Times,serif" font-size="14.00">0.003082</text>
</g>
<!-- id_28299515_DOT_17 -->
<g id="node17" class="node">
<title>id_28299515_DOT_17</title>
<polygon fill="coral" stroke="coral" points="1982.41,-1129.41 1986.17,-1129.6 1989.9,-1129.89 1993.57,-1130.28 1997.18,-1130.75 2000.7,-1131.32 2004.12,-1131.98 2007.43,-1132.73 2010.62,-1133.57 2013.67,-1134.5 2016.58,-1135.5 2019.33,-1136.59 2021.91,-1137.75 2024.33,-1138.98 2026.56,-1140.29 2028.6,-1141.66 2030.45,-1143.09 2032.11,-1144.58 2033.57,-1146.13 2034.83,-1147.73 2035.88,-1149.37 2036.74,-1151.06 2037.39,-1152.78 2037.85,-1154.54 2038.11,-1156.32 2038.18,-1158.13 2038.06,-1159.95 2037.77,-1161.78 2037.29,-1163.63 2036.65,-1165.47 2035.85,-1167.31 2034.89,-1169.15 2033.79,-1170.97 2032.55,-1172.78 2031.18,-1174.56 2029.68,-1176.31 2028.07,-1178.04 2026.36,-1179.72 2024.55,-1181.37 2022.65,-1182.97 2020.67,-1184.51 2018.62,-1186.01 2016.5,-1187.44 2014.32,-1188.81 2012.09,-1190.12 2009.81,-1191.35 2007.5,-1192.51 2005.14,-1193.6 2002.76,-1194.6 2000.34,-1195.52 1997.91,-1196.36 1995.45,-1197.11 1992.99,-1197.77 1990.5,-1198.34 1988.01,-1198.82 1985.51,-1199.21 1983,-1199.49 1980.49,-1199.69 1977.98,-1199.78 1975.46,-1199.78 1972.95,-1199.69 1970.44,-1199.49 1967.93,-1199.21 1965.43,-1198.82 1962.94,-1198.34 1960.46,-1197.77 1957.99,-1197.11 1955.53,-1196.36 1953.1,-1195.52 1950.69,-1194.6 1948.3,-1193.6 1945.95,-1192.51 1943.63,-1191.35 1941.35,-1190.12 1939.12,-1188.81 1936.94,-1187.44 1934.82,-1186.01 1932.77,-1184.51 1930.79,-1182.97 1928.89,-1181.37 1927.08,-1179.72 1925.37,-1178.04 1923.76,-1176.31 1922.27,-1174.56 1920.89,-1172.78 1919.65,-1170.97 1918.55,-1169.15 1917.59,-1167.31 1916.79,-1165.47 1916.15,-1163.63 1915.68,-1161.78 1915.38,-1159.95 1915.26,-1158.13 1915.33,-1156.32 1915.59,-1154.54 1916.05,-1152.78 1916.7,-1151.06 1917.56,-1149.37 1918.62,-1147.73 1919.87,-1146.13 1921.33,-1144.58 1922.99,-1143.09 1924.84,-1141.66 1926.88,-1140.29 1929.11,-1138.98 1931.53,-1137.75 1934.11,-1136.59 1936.86,-1135.5 1939.77,-1134.5 1942.82,-1133.57 1946.01,-1132.73 1949.32,-1131.98 1952.75,-1131.32 1956.27,-1130.75 1959.87,-1130.28 1963.54,-1129.89 1967.27,-1129.6 1971.03,-1129.41 1974.82,-1129.31 1978.62,-1129.31 1982.41,-1129.41"/>
<text text-anchor="start" x="1947.55" y="-1174.35" font-family="Times,serif" font-size="14.00">C0332514</text>
<text text-anchor="start" x="1944.07" y="-1160.35" font-family="Times,serif" font-size="14.00">asymmetric</text>
<text text-anchor="start" x="1953.78" y="-1146.35" font-family="Times,serif" font-size="14.00">160:160</text>
</g>
<!-- id_28299515_DOT_16&#45;&#45;id_28299515_DOT_17 -->
<g id="edge11" class="edge">
<title>id_28299515_DOT_16&#45;&#45;id_28299515_DOT_17</title>
<path fill="none" stroke="black" d="M1921.16,-772.39C1932.55,-852.81 1960.31,-1048.7 1971.71,-1129.16"/>
<text text-anchor="middle" x="1920.18" y="-953.57" font-family="Times,serif" font-size="14.00">0.002674</text>
</g>
<!-- id_28299515_DOT_16&#45;&#45;id_28299515_DOT_23 -->
<g id="edge27" class="edge">
<title>id_28299515_DOT_16&#45;&#45;id_28299515_DOT_23</title>
<path fill="none" stroke="black" stroke-dasharray="1,5" d="M1890.93,-703.91C1842.2,-639.89 1735.73,-500.03 1688.51,-437.99"/>
<text text-anchor="middle" x="1763.47" y="-573.75" font-family="Times,serif" font-size="14.00">0.775664</text>
</g>
<!-- id_28299515_DOT_17&#45;&#45;id_28299515_DOT_21 -->
<g id="edge28" class="edge">
<title>id_28299515_DOT_17&#45;&#45;id_28299515_DOT_21</title>
<path fill="none" stroke="black" stroke-dasharray="1,5" d="M1979.28,-1199.97C1985.31,-1283.54 2000.37,-1492.22 2006.41,-1575.79"/>
<text text-anchor="middle" x="1966.59" y="-1390.68" font-family="Times,serif" font-size="14.00">0.795274</text>
</g>
<!-- id_28299515_DOT_18&#45;&#45;id_28299515_DOT_29 -->
<g id="edge29" class="edge">
<title>id_28299515_DOT_18&#45;&#45;id_28299515_DOT_29</title>
<path fill="none" stroke="black" stroke-dasharray="1,5" d="M3079.49,-2170.55C3030.48,-2100.96 2917.37,-1940.33 2869.62,-1872.54"/>
<text text-anchor="middle" x="2948.31" y="-2024.35" font-family="Times,serif" font-size="14.00">0.813417</text>
</g>
<!-- id_28299515_DOT_19&#45;&#45;id_28299515_DOT_29 -->
<g id="edge30" class="edge">
<title>id_28299515_DOT_19&#45;&#45;id_28299515_DOT_29</title>
<path fill="none" stroke="black" stroke-dasharray="1,5" d="M3078.2,-1511.98C3031,-1579.45 2919.46,-1738.91 2870.94,-1808.27"/>
<text text-anchor="middle" x="2948.32" y="-1662.93" font-family="Times,serif" font-size="14.00">0.604370</text>
</g>
<!-- id_28299515_DOT_22 -->
<g id="node22" class="node">
<title>id_28299515_DOT_22</title>
<polygon fill="bisque" stroke="bisque" points="5040.46,-3380.59 5043.89,-3380.78 5047.28,-3381.07 5050.63,-3381.45 5053.91,-3381.93 5057.11,-3382.5 5060.23,-3383.16 5063.24,-3383.91 5066.15,-3384.75 5068.93,-3385.67 5071.57,-3386.68 5074.08,-3387.76 5076.43,-3388.92 5078.63,-3390.16 5080.66,-3391.46 5082.52,-3392.83 5084.21,-3394.27 5085.72,-3395.76 5087.04,-3397.31 5088.19,-3398.91 5089.15,-3400.55 5089.93,-3402.24 5090.52,-3403.96 5090.94,-3405.72 5091.18,-3407.5 5091.24,-3409.3 5091.14,-3411.13 5090.86,-3412.96 5090.43,-3414.8 5089.85,-3416.65 5089.12,-3418.49 5088.25,-3420.33 5087.24,-3422.15 5086.11,-3423.95 5084.86,-3425.74 5083.5,-3427.49 5082.04,-3429.21 5080.48,-3430.9 5078.83,-3432.54 5077.11,-3434.14 5075.3,-3435.69 5073.43,-3437.18 5071.5,-3438.62 5069.52,-3439.99 5067.49,-3441.29 5065.42,-3442.53 5063.3,-3443.69 5061.16,-3444.77 5058.99,-3445.78 5056.79,-3446.7 5054.58,-3447.54 5052.34,-3448.29 5050.09,-3448.95 5047.83,-3449.52 5045.56,-3450 5043.29,-3450.38 5041,-3450.67 5038.72,-3450.87 5036.43,-3450.96 5034.14,-3450.96 5031.85,-3450.87 5029.57,-3450.67 5027.28,-3450.38 5025.01,-3450 5022.74,-3449.52 5020.48,-3448.95 5018.23,-3448.29 5015.99,-3447.54 5013.78,-3446.7 5011.58,-3445.78 5009.41,-3444.77 5007.26,-3443.69 5005.15,-3442.53 5003.08,-3441.29 5001.05,-3439.99 4999.06,-3438.62 4997.13,-3437.18 4995.27,-3435.69 4993.46,-3434.14 4991.74,-3432.54 4990.09,-3430.9 4988.53,-3429.21 4987.07,-3427.49 4985.71,-3425.74 4984.46,-3423.95 4983.33,-3422.15 4982.32,-3420.33 4981.45,-3418.49 4980.72,-3416.65 4980.13,-3414.8 4979.7,-3412.96 4979.43,-3411.13 4979.33,-3409.3 4979.39,-3407.5 4979.63,-3405.72 4980.05,-3403.96 4980.64,-3402.24 4981.42,-3400.55 4982.38,-3398.91 4983.53,-3397.31 4984.85,-3395.76 4986.36,-3394.27 4988.05,-3392.83 4989.91,-3391.46 4991.94,-3390.16 4994.14,-3388.92 4996.49,-3387.76 4999,-3386.68 5001.64,-3385.67 5004.42,-3384.75 5007.33,-3383.91 5010.34,-3383.16 5013.46,-3382.5 5016.66,-3381.93 5019.94,-3381.45 5023.29,-3381.07 5026.68,-3380.78 5030.11,-3380.59 5033.56,-3380.49 5037.01,-3380.49 5040.46,-3380.59"/>
<text text-anchor="start" x="5006.12" y="-3425.53" font-family="Times,serif" font-size="14.00">C0242726</text>
<text text-anchor="start" x="5021.28" y="-3411.53" font-family="Times,serif" font-size="14.00">roots</text>
<text text-anchor="start" x="5012.34" y="-3397.53" font-family="Times,serif" font-size="14.00">201:201</text>
</g>
<!-- id_28299515_DOT_20&#45;&#45;id_28299515_DOT_22 -->
<g id="edge12" class="edge">
<title>id_28299515_DOT_20&#45;&#45;id_28299515_DOT_22</title>
<path fill="none" stroke="black" d="M5341.49,-3514.07C5271.04,-3491.44 5147.71,-3451.83 5081.09,-3430.44"/>
<text text-anchor="middle" x="5185.04" y="-3475.06" font-family="Times,serif" font-size="14.00">0.003222</text>
</g>
<!-- id_28299515_DOT_21&#45;&#45;id_28299515_DOT_33 -->
<g id="edge31" class="edge">
<title>id_28299515_DOT_21&#45;&#45;id_28299515_DOT_33</title>
<path fill="none" stroke="black" stroke-dasharray="1,5" d="M1953.62,-1640.78C1874.93,-1682.8 1732.23,-1759.02 1659.36,-1797.93"/>
<text text-anchor="middle" x="1780.24" y="-1722.16" font-family="Times,serif" font-size="14.00">0.862573</text>
</g>
<!-- id_28299515_DOT_27 -->
<g id="node27" class="node">
<title>id_28299515_DOT_27</title>
<polygon fill="bisque" stroke="bisque" points="4670.13,-3287.98 4673.55,-3288.17 4676.95,-3288.46 4680.29,-3288.84 4683.57,-3289.32 4686.78,-3289.89 4689.89,-3290.55 4692.91,-3291.3 4695.81,-3292.14 4698.59,-3293.06 4701.24,-3294.07 4703.74,-3295.15 4706.1,-3296.31 4708.29,-3297.55 4710.32,-3298.85 4712.18,-3300.22 4713.87,-3301.66 4715.38,-3303.15 4716.71,-3304.7 4717.85,-3306.3 4718.81,-3307.94 4719.59,-3309.63 4720.19,-3311.35 4720.6,-3313.1 4720.84,-3314.89 4720.9,-3316.69 4720.8,-3318.51 4720.53,-3320.35 4720.1,-3322.19 4719.51,-3324.04 4718.78,-3325.88 4717.91,-3327.71 4716.91,-3329.54 4715.78,-3331.34 4714.53,-3333.12 4713.17,-3334.88 4711.7,-3336.6 4710.14,-3338.29 4708.5,-3339.93 4706.77,-3341.53 4704.97,-3343.08 4703.1,-3344.57 4701.17,-3346.01 4699.18,-3347.38 4697.15,-3348.68 4695.08,-3349.92 4692.97,-3351.08 4690.82,-3352.16 4688.65,-3353.17 4686.46,-3354.09 4684.24,-3354.93 4682,-3355.68 4679.76,-3356.34 4677.5,-3356.91 4675.23,-3357.39 4672.95,-3357.77 4670.67,-3358.06 4668.38,-3358.25 4666.09,-3358.35 4663.8,-3358.35 4661.51,-3358.25 4659.23,-3358.06 4656.95,-3357.77 4654.67,-3357.39 4652.4,-3356.91 4650.14,-3356.34 4647.89,-3355.68 4645.66,-3354.93 4643.44,-3354.09 4641.24,-3353.17 4639.07,-3352.16 4636.93,-3351.08 4634.82,-3349.92 4632.74,-3348.68 4630.71,-3347.38 4628.73,-3346.01 4626.8,-3344.57 4624.93,-3343.08 4623.13,-3341.53 4621.4,-3339.93 4619.75,-3338.29 4618.19,-3336.6 4616.73,-3334.88 4615.37,-3333.12 4614.12,-3331.34 4612.99,-3329.54 4611.98,-3327.71 4611.11,-3325.88 4610.38,-3324.04 4609.8,-3322.19 4609.37,-3320.35 4609.1,-3318.51 4608.99,-3316.69 4609.06,-3314.89 4609.29,-3313.1 4609.71,-3311.35 4610.3,-3309.63 4611.08,-3307.94 4612.04,-3306.3 4613.19,-3304.7 4614.52,-3303.15 4616.02,-3301.66 4617.71,-3300.22 4619.57,-3298.85 4621.6,-3297.55 4623.8,-3296.31 4626.15,-3295.15 4628.66,-3294.07 4631.31,-3293.06 4634.09,-3292.14 4636.99,-3291.3 4640,-3290.55 4643.12,-3289.89 4646.32,-3289.32 4649.61,-3288.84 4652.95,-3288.46 4656.34,-3288.17 4659.77,-3287.98 4663.22,-3287.88 4666.68,-3287.88 4670.13,-3287.98"/>
<text text-anchor="start" x="4635.78" y="-3332.91" font-family="Times,serif" font-size="14.00">C0242726</text>
<text text-anchor="start" x="4653.67" y="-3318.91" font-family="Times,serif" font-size="14.00">root</text>
<text text-anchor="start" x="4642" y="-3304.91" font-family="Times,serif" font-size="14.00">222:222</text>
</g>
<!-- id_28299515_DOT_22&#45;&#45;id_28299515_DOT_27 -->
<g id="edge13" class="edge">
<title>id_28299515_DOT_22&#45;&#45;id_28299515_DOT_27</title>
<path fill="none" stroke="black" d="M4980.64,-3402.06C4908.31,-3383.97 4781.91,-3352.36 4713.03,-3335.14"/>
<text text-anchor="middle" x="4820.59" y="-3371.4" font-family="Times,serif" font-size="14.00">0.002953</text>
</g>
<!-- id_28299515_DOT_24 -->
<g id="node24" class="node">
<title>id_28299515_DOT_24</title>
<polygon fill="darkgoldenrod" stroke="darkgoldenrod" points="751.84,-2668.46 755.79,-2668.65 759.7,-2668.94 763.55,-2669.33 767.32,-2669.8 771.01,-2670.37 774.6,-2671.03 778.07,-2671.79 781.41,-2672.62 784.62,-2673.55 787.66,-2674.55 790.55,-2675.64 793.26,-2676.8 795.79,-2678.03 798.12,-2679.34 800.27,-2680.71 802.21,-2682.14 803.95,-2683.63 805.47,-2685.18 806.79,-2686.78 807.9,-2688.42 808.79,-2690.11 809.48,-2691.83 809.96,-2693.59 810.23,-2695.37 810.31,-2697.18 810.18,-2699 809.87,-2700.83 809.38,-2702.68 808.71,-2704.52 807.86,-2706.36 806.86,-2708.2 805.7,-2710.02 804.4,-2711.83 802.96,-2713.61 801.4,-2715.37 799.71,-2717.09 797.92,-2718.77 796.02,-2720.42 794.03,-2722.02 791.96,-2723.56 789.8,-2725.06 787.58,-2726.49 785.3,-2727.86 782.96,-2729.17 780.57,-2730.4 778.14,-2731.56 775.67,-2732.65 773.17,-2733.65 770.64,-2734.58 768.09,-2735.41 765.52,-2736.16 762.93,-2736.83 760.33,-2737.4 757.72,-2737.87 755.1,-2738.26 752.47,-2738.55 749.84,-2738.74 747.2,-2738.83 744.57,-2738.83 741.93,-2738.74 739.3,-2738.55 736.67,-2738.26 734.05,-2737.87 731.44,-2737.4 728.83,-2736.83 726.25,-2736.16 723.67,-2735.41 721.12,-2734.58 718.59,-2733.65 716.09,-2732.65 713.62,-2731.56 711.19,-2730.4 708.8,-2729.17 706.47,-2727.86 704.18,-2726.49 701.96,-2725.06 699.81,-2723.56 697.73,-2722.02 695.74,-2720.42 693.85,-2718.77 692.05,-2717.09 690.37,-2715.37 688.8,-2713.61 687.36,-2711.83 686.06,-2710.02 684.91,-2708.2 683.9,-2706.36 683.06,-2704.52 682.39,-2702.68 681.89,-2700.83 681.58,-2699 681.46,-2697.18 681.53,-2695.37 681.81,-2693.59 682.29,-2691.83 682.97,-2690.11 683.87,-2688.42 684.97,-2686.78 686.29,-2685.18 687.82,-2683.63 689.56,-2682.14 691.5,-2680.71 693.64,-2679.34 695.98,-2678.03 698.51,-2676.8 701.22,-2675.64 704.1,-2674.55 707.15,-2673.55 710.35,-2672.62 713.69,-2671.79 717.16,-2671.03 720.75,-2670.37 724.44,-2669.8 728.22,-2669.33 732.07,-2668.94 735.97,-2668.65 739.92,-2668.46 743.89,-2668.36 747.87,-2668.36 751.84,-2668.46"/>
<text text-anchor="start" x="716.71" y="-2713.4" font-family="Times,serif" font-size="14.00">C1720877</text>
<text text-anchor="start" x="711.08" y="-2699.4" font-family="Times,serif" font-size="14.00">xylem fibers</text>
<text text-anchor="start" x="723.19" y="-2685.4" font-family="Times,serif" font-size="14.00">211:212</text>
</g>
<!-- id_28299515_DOT_28 -->
<g id="node28" class="node">
<title>id_28299515_DOT_28</title>
<polygon fill="darkgoldenrod" stroke="darkgoldenrod" points="1089.52,-2452.01 1093.21,-2452.21 1096.86,-2452.5 1100.46,-2452.88 1103.99,-2453.36 1107.44,-2453.93 1110.79,-2454.59 1114.03,-2455.34 1117.16,-2456.18 1120.15,-2457.1 1123,-2458.1 1125.69,-2459.19 1128.23,-2460.35 1130.59,-2461.59 1132.78,-2462.89 1134.78,-2464.26 1136.59,-2465.7 1138.22,-2467.19 1139.65,-2468.74 1140.88,-2470.33 1141.91,-2471.98 1142.75,-2473.66 1143.39,-2475.39 1143.84,-2477.14 1144.09,-2478.92 1144.16,-2480.73 1144.05,-2482.55 1143.76,-2484.39 1143.29,-2486.23 1142.67,-2488.08 1141.88,-2489.92 1140.94,-2491.75 1139.86,-2493.58 1138.64,-2495.38 1137.3,-2497.16 1135.84,-2498.92 1134.26,-2500.64 1132.58,-2502.33 1130.81,-2503.97 1128.95,-2505.57 1127.01,-2507.12 1125,-2508.61 1122.92,-2510.04 1120.79,-2511.42 1118.6,-2512.72 1116.37,-2513.96 1114.1,-2515.12 1111.79,-2516.2 1109.45,-2517.21 1107.09,-2518.13 1104.7,-2518.97 1102.3,-2519.72 1099.88,-2520.38 1097.45,-2520.95 1095.01,-2521.43 1092.56,-2521.81 1090.1,-2522.1 1087.64,-2522.29 1085.18,-2522.39 1082.71,-2522.39 1080.25,-2522.29 1077.79,-2522.1 1075.33,-2521.81 1072.88,-2521.43 1070.44,-2520.95 1068.01,-2520.38 1065.59,-2519.72 1063.18,-2518.97 1060.8,-2518.13 1058.44,-2517.21 1056.1,-2516.2 1053.79,-2515.12 1051.52,-2513.96 1049.29,-2512.72 1047.1,-2511.42 1044.97,-2510.04 1042.89,-2508.61 1040.88,-2507.12 1038.94,-2505.57 1037.08,-2503.97 1035.31,-2502.33 1033.63,-2500.64 1032.05,-2498.92 1030.59,-2497.16 1029.25,-2495.38 1028.03,-2493.58 1026.95,-2491.75 1026.01,-2489.92 1025.22,-2488.08 1024.59,-2486.23 1024.13,-2484.39 1023.84,-2482.55 1023.73,-2480.73 1023.8,-2478.92 1024.05,-2477.14 1024.5,-2475.39 1025.14,-2473.66 1025.98,-2471.98 1027.01,-2470.33 1028.24,-2468.74 1029.67,-2467.19 1031.3,-2465.7 1033.11,-2464.26 1035.11,-2462.89 1037.3,-2461.59 1039.66,-2460.35 1042.2,-2459.19 1044.89,-2458.1 1047.74,-2457.1 1050.73,-2456.18 1053.86,-2455.34 1057.1,-2454.59 1060.45,-2453.93 1063.9,-2453.36 1067.43,-2452.88 1071.03,-2452.5 1074.68,-2452.21 1078.37,-2452.01 1082.08,-2451.92 1085.8,-2451.92 1089.52,-2452.01"/>
<text text-anchor="start" x="1054.78" y="-2496.95" font-family="Times,serif" font-size="14.00">C1720877</text>
<text text-anchor="start" x="1051.87" y="-2482.95" font-family="Times,serif" font-size="14.00">xylem fiber</text>
<text text-anchor="start" x="1061" y="-2468.95" font-family="Times,serif" font-size="14.00">240:241</text>
</g>
<!-- id_28299515_DOT_24&#45;&#45;id_28299515_DOT_28 -->
<g id="edge14" class="edge">
<title>id_28299515_DOT_24&#45;&#45;id_28299515_DOT_28</title>
<path fill="none" stroke="black" d="M790.08,-2675.3C857.19,-2632.33 983.64,-2551.38 1046.5,-2511.13"/>
<text text-anchor="middle" x="892.04" y="-2596.02" font-family="Times,serif" font-size="14.00">0.008355</text>
</g>
<!-- id_28299515_DOT_32 -->
<g id="node32" class="node">
<title>id_28299515_DOT_32</title>
<polygon fill="darkgoldenrod" stroke="darkgoldenrod" points="402.71,-2830.95 406.14,-2831.14 409.53,-2831.43 412.87,-2831.82 416.15,-2832.29 419.36,-2832.86 422.47,-2833.52 425.49,-2834.28 428.39,-2835.11 431.17,-2836.04 433.82,-2837.04 436.32,-2838.13 438.68,-2839.29 440.87,-2840.52 442.91,-2841.83 444.77,-2843.2 446.45,-2844.63 447.96,-2846.12 449.29,-2847.67 450.43,-2849.27 451.4,-2850.91 452.17,-2852.6 452.77,-2854.32 453.18,-2856.08 453.42,-2857.86 453.49,-2859.67 453.38,-2861.49 453.11,-2863.32 452.68,-2865.17 452.1,-2867.01 451.37,-2868.85 450.49,-2870.69 449.49,-2872.51 448.36,-2874.32 447.11,-2876.1 445.75,-2877.86 444.29,-2879.58 442.73,-2881.26 441.08,-2882.91 439.35,-2884.51 437.55,-2886.05 435.68,-2887.55 433.75,-2888.98 431.77,-2890.35 429.74,-2891.66 427.66,-2892.89 425.55,-2894.05 423.41,-2895.14 421.23,-2896.14 419.04,-2897.07 416.82,-2897.9 414.59,-2898.65 412.34,-2899.32 410.08,-2899.89 407.81,-2900.36 405.53,-2900.75 403.25,-2901.04 400.96,-2901.23 398.67,-2901.32 396.39,-2901.32 394.1,-2901.23 391.81,-2901.04 389.53,-2900.75 387.25,-2900.36 384.98,-2899.89 382.72,-2899.32 380.47,-2898.65 378.24,-2897.9 376.02,-2897.07 373.83,-2896.14 371.65,-2895.14 369.51,-2894.05 367.4,-2892.89 365.32,-2891.66 363.29,-2890.35 361.31,-2888.98 359.38,-2887.55 357.51,-2886.05 355.71,-2884.51 353.98,-2882.91 352.33,-2881.26 350.77,-2879.58 349.31,-2877.86 347.95,-2876.1 346.7,-2874.32 345.57,-2872.51 344.57,-2870.69 343.69,-2868.85 342.96,-2867.01 342.38,-2865.17 341.95,-2863.32 341.68,-2861.49 341.57,-2859.67 341.64,-2857.86 341.88,-2856.08 342.29,-2854.32 342.89,-2852.6 343.66,-2850.91 344.63,-2849.27 345.77,-2847.67 347.1,-2846.12 348.61,-2844.63 350.29,-2843.2 352.15,-2841.83 354.19,-2840.52 356.38,-2839.29 358.74,-2838.13 361.24,-2837.04 363.89,-2836.04 366.67,-2835.11 369.57,-2834.28 372.59,-2833.52 375.7,-2832.86 378.91,-2832.29 382.19,-2831.82 385.53,-2831.43 388.92,-2831.14 392.35,-2830.95 395.8,-2830.85 399.26,-2830.85 402.71,-2830.95"/>
<text text-anchor="start" x="368.36" y="-2875.89" font-family="Times,serif" font-size="14.00">C1720877</text>
<text text-anchor="start" x="369.93" y="-2861.89" font-family="Times,serif" font-size="14.00">xylematic</text>
<text text-anchor="start" x="374.59" y="-2847.89" font-family="Times,serif" font-size="14.00">270:270</text>
</g>
<!-- id_28299515_DOT_24&#45;&#45;id_28299515_DOT_32 -->
<g id="edge32" class="edge">
<title>id_28299515_DOT_24&#45;&#45;id_28299515_DOT_32</title>
<path fill="none" stroke="black" stroke-dasharray="1,5" d="M701.06,-2724.51C635.27,-2755.2 513.09,-2812.19 445.54,-2843.7"/>
<text text-anchor="middle" x="547.05" y="-2786.9" font-family="Times,serif" font-size="14.00">0.783767</text>
</g>
<!-- id_28299515_DOT_25 -->
<g id="node25" class="node">
<title>id_28299515_DOT_25</title>
<polygon fill="darkgoldenrod" stroke="darkgoldenrod" points="61.16,-2982.37 64.58,-2982.56 67.98,-2982.85 71.32,-2983.23 74.6,-2983.71 77.81,-2984.28 80.92,-2984.94 83.94,-2985.69 86.84,-2986.53 89.62,-2987.45 92.27,-2988.46 94.77,-2989.54 97.13,-2990.7 99.32,-2991.94 101.35,-2993.24 103.22,-2994.61 104.9,-2996.05 106.41,-2997.54 107.74,-2999.09 108.88,-3000.69 109.84,-3002.33 110.62,-3004.02 111.22,-3005.74 111.63,-3007.49 111.87,-3009.28 111.93,-3011.08 111.83,-3012.9 111.56,-3014.74 111.13,-3016.58 110.54,-3018.43 109.81,-3020.27 108.94,-3022.1 107.94,-3023.93 106.81,-3025.73 105.56,-3027.51 104.2,-3029.27 102.73,-3030.99 101.18,-3032.68 99.53,-3034.32 97.8,-3035.92 96,-3037.47 94.13,-3038.96 92.2,-3040.4 90.22,-3041.77 88.18,-3043.07 86.11,-3044.31 84,-3045.47 81.85,-3046.55 79.68,-3047.56 77.49,-3048.48 75.27,-3049.32 73.04,-3050.07 70.79,-3050.73 68.53,-3051.3 66.26,-3051.78 63.98,-3052.16 61.7,-3052.45 59.41,-3052.64 57.12,-3052.74 54.83,-3052.74 52.55,-3052.64 50.26,-3052.45 47.98,-3052.16 45.7,-3051.78 43.43,-3051.3 41.17,-3050.73 38.92,-3050.07 36.69,-3049.32 34.47,-3048.48 32.27,-3047.56 30.1,-3046.55 27.96,-3045.47 25.85,-3044.31 23.77,-3043.07 21.74,-3041.77 19.76,-3040.4 17.83,-3038.96 15.96,-3037.47 14.16,-3035.92 12.43,-3034.32 10.78,-3032.68 9.22,-3030.99 7.76,-3029.27 6.4,-3027.51 5.15,-3025.73 4.02,-3023.93 3.01,-3022.1 2.14,-3020.27 1.41,-3018.43 0.83,-3016.58 0.4,-3014.74 0.13,-3012.9 0.02,-3011.08 0.09,-3009.28 0.32,-3007.49 0.74,-3005.74 1.34,-3004.02 2.11,-3002.33 3.07,-3000.69 4.22,-2999.09 5.55,-2997.54 7.05,-2996.05 8.74,-2994.61 10.6,-2993.24 12.63,-2991.94 14.83,-2990.7 17.18,-2989.54 19.69,-2988.46 22.34,-2987.45 25.12,-2986.53 28.02,-2985.69 31.03,-2984.94 34.15,-2984.28 37.35,-2983.71 40.64,-2983.23 43.98,-2982.85 47.37,-2982.56 50.8,-2982.37 54.25,-2982.27 57.71,-2982.27 61.16,-2982.37"/>
<text text-anchor="start" x="26.81" y="-3027.3" font-family="Times,serif" font-size="14.00">C1720877</text>
<text text-anchor="start" x="38.48" y="-3013.3" font-family="Times,serif" font-size="14.00">xylem</text>
<text text-anchor="start" x="33.03" y="-2999.3" font-family="Times,serif" font-size="14.00">217:217</text>
</g>
<!-- id_28299515_DOT_25&#45;&#45;id_28299515_DOT_32 -->
<g id="edge15" class="edge">
<title>id_28299515_DOT_25&#45;&#45;id_28299515_DOT_32</title>
<path fill="none" stroke="black" d="M104.91,-2995.81C172.24,-2965.96 292.29,-2912.75 355.67,-2884.65"/>
<text text-anchor="middle" x="204.04" y="-2943.03" font-family="Times,serif" font-size="14.00">0.053544</text>
</g>
<!-- id_28299515_DOT_26 -->
<g id="node26" class="node">
<title>id_28299515_DOT_26</title>
<polygon fill="darkgreen" stroke="darkgreen" points="950.45,-1976.22 954.74,-1976.41 958.98,-1976.7 963.16,-1977.08 967.26,-1977.56 971.27,-1978.13 975.17,-1978.79 978.94,-1979.54 982.57,-1980.38 986.04,-1981.3 989.35,-1982.31 992.49,-1983.39 995.43,-1984.55 998.17,-1985.79 1000.71,-1987.09 1003.04,-1988.46 1005.15,-1989.9 1007.04,-1991.39 1008.7,-1992.94 1010.13,-1994.54 1011.33,-1996.18 1012.3,-1997.87 1013.05,-1999.59 1013.57,-2001.35 1013.86,-2003.13 1013.94,-2004.93 1013.81,-2006.76 1013.47,-2008.59 1012.94,-2010.43 1012.21,-2012.28 1011.29,-2014.12 1010.2,-2015.96 1008.95,-2017.78 1007.53,-2019.58 1005.97,-2021.37 1004.27,-2023.12 1002.44,-2024.85 1000.49,-2026.53 998.43,-2028.18 996.27,-2029.77 994.02,-2031.32 991.68,-2032.81 989.27,-2034.25 986.79,-2035.62 984.25,-2036.92 981.65,-2038.16 979.01,-2039.32 976.33,-2040.4 973.62,-2041.41 970.87,-2042.33 968.1,-2043.17 965.31,-2043.92 962.49,-2044.58 959.67,-2045.15 956.83,-2045.63 953.98,-2046.01 951.13,-2046.3 948.27,-2046.5 945.41,-2046.59 942.55,-2046.59 939.69,-2046.5 936.83,-2046.3 933.97,-2046.01 931.13,-2045.63 928.29,-2045.15 925.46,-2044.58 922.65,-2043.92 919.86,-2043.17 917.09,-2042.33 914.34,-2041.41 911.62,-2040.4 908.94,-2039.32 906.3,-2038.16 903.71,-2036.92 901.17,-2035.62 898.69,-2034.25 896.28,-2032.81 893.94,-2031.32 891.69,-2029.77 889.53,-2028.18 887.47,-2026.53 885.52,-2024.85 883.69,-2023.12 881.99,-2021.37 880.42,-2019.58 879.01,-2017.78 877.75,-2015.96 876.67,-2014.12 875.75,-2012.28 875.02,-2010.43 874.48,-2008.59 874.14,-2006.76 874.01,-2004.93 874.09,-2003.13 874.39,-2001.35 874.91,-1999.59 875.65,-1997.87 876.63,-1996.18 877.83,-1994.54 879.26,-1992.94 880.92,-1991.39 882.81,-1989.9 884.92,-1988.46 887.24,-1987.09 889.78,-1985.79 892.53,-1984.55 895.47,-1983.39 898.6,-1982.31 901.91,-1981.3 905.39,-1980.38 909.02,-1979.54 912.79,-1978.79 916.69,-1978.13 920.69,-1977.56 924.79,-1977.08 928.98,-1976.7 933.22,-1976.41 937.5,-1976.22 941.82,-1976.12 946.14,-1976.12 950.45,-1976.22"/>
<text text-anchor="start" x="914.81" y="-2021.16" font-family="Times,serif" font-size="14.00">C1720878</text>
<text text-anchor="start" x="905.68" y="-2007.16" font-family="Times,serif" font-size="14.00">phloem fibers</text>
<text text-anchor="start" x="921.03" y="-1993.16" font-family="Times,serif" font-size="14.00">219:220</text>
</g>
<!-- id_28299515_DOT_31 -->
<g id="node31" class="node">
<title>id_28299515_DOT_31</title>
<polygon fill="darkmagenta" stroke="darkmagenta" points="1325.66,-2107.95 1329.09,-2108.14 1332.48,-2108.43 1335.82,-2108.82 1339.11,-2109.29 1342.31,-2109.86 1345.43,-2110.53 1348.44,-2111.28 1351.34,-2112.11 1354.12,-2113.04 1356.77,-2114.04 1359.28,-2115.13 1361.63,-2116.29 1363.83,-2117.52 1365.86,-2118.83 1367.72,-2120.2 1369.41,-2121.63 1370.91,-2123.13 1372.24,-2124.67 1373.39,-2126.27 1374.35,-2127.92 1375.13,-2129.6 1375.72,-2131.32 1376.14,-2133.08 1376.37,-2134.86 1376.44,-2136.67 1376.33,-2138.49 1376.06,-2140.33 1375.63,-2142.17 1375.05,-2144.01 1374.32,-2145.86 1373.45,-2147.69 1372.44,-2149.51 1371.31,-2151.32 1370.06,-2153.1 1368.7,-2154.86 1367.24,-2156.58 1365.68,-2158.27 1364.03,-2159.91 1362.3,-2161.51 1360.5,-2163.06 1358.63,-2164.55 1356.7,-2165.98 1354.72,-2167.35 1352.69,-2168.66 1350.61,-2169.89 1348.5,-2171.05 1346.36,-2172.14 1344.19,-2173.14 1341.99,-2174.07 1339.77,-2174.9 1337.54,-2175.66 1335.29,-2176.32 1333.03,-2176.89 1330.76,-2177.36 1328.48,-2177.75 1326.2,-2178.04 1323.92,-2178.23 1321.63,-2178.33 1319.34,-2178.33 1317.05,-2178.23 1314.76,-2178.04 1312.48,-2177.75 1310.2,-2177.36 1307.93,-2176.89 1305.67,-2176.32 1303.43,-2175.66 1301.19,-2174.9 1298.97,-2174.07 1296.78,-2173.14 1294.61,-2172.14 1292.46,-2171.05 1290.35,-2169.89 1288.28,-2168.66 1286.25,-2167.35 1284.26,-2165.98 1282.33,-2164.55 1280.46,-2163.06 1278.66,-2161.51 1276.93,-2159.91 1275.29,-2158.27 1273.73,-2156.58 1272.26,-2154.86 1270.9,-2153.1 1269.65,-2151.32 1268.52,-2149.51 1267.52,-2147.69 1266.65,-2145.86 1265.92,-2144.01 1265.33,-2142.17 1264.9,-2140.33 1264.63,-2138.49 1264.53,-2136.67 1264.59,-2134.86 1264.83,-2133.08 1265.24,-2131.32 1265.84,-2129.6 1266.62,-2127.92 1267.58,-2126.27 1268.72,-2124.67 1270.05,-2123.13 1271.56,-2121.63 1273.25,-2120.2 1275.11,-2118.83 1277.14,-2117.52 1279.33,-2116.29 1281.69,-2115.13 1284.19,-2114.04 1286.84,-2113.04 1289.62,-2112.11 1292.52,-2111.28 1295.54,-2110.53 1298.65,-2109.86 1301.86,-2109.29 1305.14,-2108.82 1308.48,-2108.43 1311.88,-2108.14 1315.3,-2107.95 1318.75,-2107.86 1322.21,-2107.86 1325.66,-2107.95"/>
<text text-anchor="start" x="1291.31" y="-2152.89" font-family="Times,serif" font-size="14.00">C1260603</text>
<text text-anchor="start" x="1304.93" y="-2138.89" font-family="Times,serif" font-size="14.00">fibers</text>
<text text-anchor="start" x="1297.54" y="-2124.89" font-family="Times,serif" font-size="14.00">267:267</text>
</g>
<!-- id_28299515_DOT_26&#45;&#45;id_28299515_DOT_31 -->
<g id="edge16" class="edge">
<title>id_28299515_DOT_26&#45;&#45;id_28299515_DOT_31</title>
<path fill="none" stroke="black" d="M996.73,-2029.81C1068.67,-2054.99 1196.79,-2099.81 1268.39,-2124.87"/>
<text text-anchor="middle" x="1106.31" y="-2080.14" font-family="Times,serif" font-size="14.00">0.066006</text>
</g>
<!-- id_28299515_DOT_27&#45;&#45;id_28299515_DOT_34 -->
<g id="edge17" class="edge">
<title>id_28299515_DOT_27&#45;&#45;id_28299515_DOT_34</title>
<path fill="none" stroke="black" d="M4609.35,-3321.76C4532.18,-3319.88 4393.47,-3316.51 4316.77,-3314.64"/>
<text text-anchor="middle" x="4436.81" y="-3321" font-family="Times,serif" font-size="14.00">0.001375</text>
</g>
<!-- id_28299515_DOT_28&#45;&#45;id_28299515_DOT_31 -->
<g id="edge18" class="edge">
<title>id_28299515_DOT_28&#45;&#45;id_28299515_DOT_31</title>
<path fill="none" stroke="black" d="M1107.06,-2453.54C1152.86,-2386.91 1254.55,-2238.99 1299,-2174.34"/>
<text text-anchor="middle" x="1176.78" y="-2316.74" font-family="Times,serif" font-size="14.00">0.066810</text>
</g>
<!-- id_28299515_DOT_30 -->
<g id="node30" class="node">
<title>id_28299515_DOT_30</title>
<polygon fill="bisque" stroke="bisque" points="4136.24,-3672.45 4139.67,-3672.64 4143.06,-3672.93 4146.4,-3673.31 4149.68,-3673.79 4152.89,-3674.36 4156,-3675.02 4159.02,-3675.77 4161.92,-3676.61 4164.7,-3677.53 4167.35,-3678.54 4169.85,-3679.62 4172.21,-3680.78 4174.4,-3682.02 4176.44,-3683.32 4178.3,-3684.69 4179.98,-3686.13 4181.49,-3687.62 4182.82,-3689.17 4183.96,-3690.77 4184.93,-3692.41 4185.7,-3694.1 4186.3,-3695.82 4186.71,-3697.57 4186.95,-3699.36 4187.02,-3701.16 4186.91,-3702.98 4186.64,-3704.82 4186.21,-3706.66 4185.63,-3708.51 4184.9,-3710.35 4184.02,-3712.19 4183.02,-3714.01 4181.89,-3715.81 4180.64,-3717.6 4179.28,-3719.35 4177.82,-3721.07 4176.26,-3722.76 4174.61,-3724.4 4172.88,-3726 4171.08,-3727.55 4169.21,-3729.04 4167.28,-3730.48 4165.3,-3731.85 4163.27,-3733.15 4161.19,-3734.39 4159.08,-3735.55 4156.94,-3736.63 4154.76,-3737.64 4152.57,-3738.56 4150.35,-3739.4 4148.12,-3740.15 4145.87,-3740.81 4143.61,-3741.38 4141.34,-3741.86 4139.06,-3742.24 4136.78,-3742.53 4134.49,-3742.72 4132.21,-3742.82 4129.92,-3742.82 4127.63,-3742.72 4125.34,-3742.53 4123.06,-3742.24 4120.78,-3741.86 4118.51,-3741.38 4116.25,-3740.81 4114,-3740.15 4111.77,-3739.4 4109.55,-3738.56 4107.36,-3737.64 4105.18,-3736.63 4103.04,-3735.55 4100.93,-3734.39 4098.86,-3733.15 4096.82,-3731.85 4094.84,-3730.48 4092.91,-3729.04 4091.04,-3727.55 4089.24,-3726 4087.51,-3724.4 4085.86,-3722.76 4084.3,-3721.07 4082.84,-3719.35 4081.48,-3717.6 4080.23,-3715.81 4079.1,-3714.01 4078.1,-3712.19 4077.23,-3710.35 4076.49,-3708.51 4075.91,-3706.66 4075.48,-3704.82 4075.21,-3702.98 4075.1,-3701.16 4075.17,-3699.36 4075.41,-3697.57 4075.82,-3695.82 4076.42,-3694.1 4077.2,-3692.41 4078.16,-3690.77 4079.3,-3689.17 4080.63,-3687.62 4082.14,-3686.13 4083.82,-3684.69 4085.68,-3683.32 4087.72,-3682.02 4089.91,-3680.78 4092.27,-3679.62 4094.77,-3678.54 4097.42,-3677.53 4100.2,-3676.61 4103.1,-3675.77 4106.12,-3675.02 4109.23,-3674.36 4112.44,-3673.79 4115.72,-3673.31 4119.06,-3672.93 4122.45,-3672.64 4125.88,-3672.45 4129.33,-3672.35 4132.79,-3672.35 4136.24,-3672.45"/>
<text text-anchor="start" x="4101.89" y="-3717.38" font-family="Times,serif" font-size="14.00">C0242726</text>
<text text-anchor="start" x="4114.72" y="-3703.38" font-family="Times,serif" font-size="14.00">Roots</text>
<text text-anchor="start" x="4108.12" y="-3689.38" font-family="Times,serif" font-size="14.00">246:246</text>
</g>
<!-- id_28299515_DOT_30&#45;&#45;id_28299515_DOT_34 -->
<g id="edge19" class="edge">
<title>id_28299515_DOT_30&#45;&#45;id_28299515_DOT_34</title>
<path fill="none" stroke="black" d="M4142.69,-3672.6C4167.64,-3597.49 4226.07,-3421.65 4250.75,-3347.38"/>
<text text-anchor="middle" x="4170.47" y="-3512.79" font-family="Times,serif" font-size="14.00">0.002500</text>
</g>
<!-- id_28299515_DOT_31&#45;&#45;id_28299515_DOT_33 -->
<g id="edge33" class="edge">
<title>id_28299515_DOT_31&#45;&#45;id_28299515_DOT_33</title>
<path fill="none" stroke="black" stroke-dasharray="1,5" d="M1349.42,-2111.45C1406.38,-2049.15 1532.29,-1911.46 1587.3,-1851.3"/>
<text text-anchor="middle" x="1442.11" y="-1984.17" font-family="Times,serif" font-size="14.00">0.900293</text>
</g>
</g>
</svg>
