<?xml version="1.0" encoding="UTF-8" standalone="no"?>
<!DOCTYPE svg PUBLIC "-//W3C//DTD SVG 1.1//EN"
 "http://www.w3.org/Graphics/SVG/1.1/DTD/svg11.dtd">
<!-- Generated by graphviz version 2.42.3 (20191010.1750)
 -->
<!-- Title: MST Pages: 1 -->
<svg width="4203pt" height="2999pt"
 viewBox="0.00 0.00 4203.11 2998.77" xmlns="http://www.w3.org/2000/svg" xmlns:xlink="http://www.w3.org/1999/xlink">
<g id="graph0" class="graph" transform="scale(1 1) rotate(0) translate(4 2994.77)">
<title>MST</title>
<polygon fill="white" stroke="transparent" points="-4,4 -4,-2994.77 4199.11,-2994.77 4199.11,4 -4,4"/>
<!-- id_28362102_DOT_1 -->
<g id="node1" class="node">
<title>id_28362102_DOT_1</title>
<polygon fill="aquamarine" stroke="aquamarine" points="925.65,-2219.97 929.32,-2220.16 932.94,-2220.45 936.52,-2220.83 940.03,-2221.31 943.45,-2221.88 946.79,-2222.54 950.01,-2223.29 953.11,-2224.13 956.09,-2225.05 958.92,-2226.06 961.6,-2227.14 964.11,-2228.3 966.46,-2229.54 968.63,-2230.84 970.62,-2232.21 972.43,-2233.65 974.04,-2235.14 975.46,-2236.69 976.68,-2238.29 977.71,-2239.93 978.54,-2241.62 979.18,-2243.34 979.62,-2245.09 979.88,-2246.88 979.95,-2248.68 979.83,-2250.5 979.54,-2252.34 979.08,-2254.18 978.46,-2256.03 977.68,-2257.87 976.75,-2259.71 975.67,-2261.53 974.46,-2263.33 973.13,-2265.12 971.67,-2266.87 970.11,-2268.59 968.44,-2270.28 966.68,-2271.92 964.83,-2273.52 962.91,-2275.07 960.91,-2276.56 958.84,-2278 956.72,-2279.37 954.55,-2280.67 952.33,-2281.91 950.08,-2283.07 947.78,-2284.15 945.46,-2285.16 943.11,-2286.08 940.74,-2286.92 938.35,-2287.67 935.95,-2288.33 933.53,-2288.9 931.11,-2289.38 928.67,-2289.76 926.23,-2290.05 923.79,-2290.24 921.34,-2290.34 918.89,-2290.34 916.44,-2290.24 914,-2290.05 911.56,-2289.76 909.12,-2289.38 906.7,-2288.9 904.28,-2288.33 901.88,-2287.67 899.49,-2286.92 897.12,-2286.08 894.77,-2285.16 892.45,-2284.15 890.15,-2283.07 887.9,-2281.91 885.68,-2280.67 883.51,-2279.37 881.39,-2278 879.32,-2276.56 877.32,-2275.07 875.4,-2273.52 873.55,-2271.92 871.79,-2270.28 870.12,-2268.59 868.55,-2266.87 867.1,-2265.12 865.76,-2263.33 864.56,-2261.53 863.48,-2259.71 862.55,-2257.87 861.77,-2256.03 861.14,-2254.18 860.68,-2252.34 860.39,-2250.5 860.28,-2248.68 860.35,-2246.88 860.6,-2245.09 861.05,-2243.34 861.69,-2241.62 862.52,-2239.93 863.55,-2238.29 864.77,-2236.69 866.19,-2235.14 867.8,-2233.65 869.61,-2232.21 871.6,-2230.84 873.77,-2229.54 876.12,-2228.3 878.63,-2227.14 881.31,-2226.06 884.14,-2225.05 887.11,-2224.13 890.22,-2223.29 893.44,-2222.54 896.77,-2221.88 900.2,-2221.31 903.71,-2220.83 907.28,-2220.45 910.91,-2220.16 914.58,-2219.97 918.27,-2219.87 921.96,-2219.87 925.65,-2219.97"/>
<text text-anchor="start" x="890.95" y="-2264.9" font-family="Times,serif" font-size="14.00">C0040541</text>
<text text-anchor="start" x="888.33" y="-2250.9" font-family="Times,serif" font-size="14.00">Toxicology</text>
<text text-anchor="start" x="911.17" y="-2236.9" font-family="Times,serif" font-size="14.00">1:1</text>
</g>
<!-- id_28362102_DOT_3 -->
<g id="node3" class="node">
<title>id_28362102_DOT_3</title>
<polygon fill="aquamarine" stroke="aquamarine" points="1195.13,-1923.56 1198.8,-1923.76 1202.42,-1924.04 1206,-1924.43 1209.51,-1924.91 1212.93,-1925.48 1216.27,-1926.14 1219.49,-1926.89 1222.59,-1927.73 1225.57,-1928.65 1228.4,-1929.65 1231.08,-1930.74 1233.59,-1931.9 1235.94,-1933.13 1238.11,-1934.44 1240.1,-1935.81 1241.91,-1937.24 1243.52,-1938.74 1244.94,-1940.28 1246.16,-1941.88 1247.19,-1943.53 1248.02,-1945.21 1248.66,-1946.94 1249.1,-1948.69 1249.36,-1950.47 1249.43,-1952.28 1249.31,-1954.1 1249.02,-1955.94 1248.56,-1957.78 1247.94,-1959.62 1247.16,-1961.47 1246.23,-1963.3 1245.15,-1965.12 1243.94,-1966.93 1242.61,-1968.71 1241.15,-1970.47 1239.59,-1972.19 1237.92,-1973.88 1236.16,-1975.52 1234.31,-1977.12 1232.38,-1978.67 1230.39,-1980.16 1228.32,-1981.59 1226.2,-1982.96 1224.03,-1984.27 1221.81,-1985.5 1219.55,-1986.66 1217.26,-1987.75 1214.94,-1988.75 1212.59,-1989.68 1210.22,-1990.52 1207.83,-1991.27 1205.43,-1991.93 1203.01,-1992.5 1200.58,-1992.97 1198.15,-1993.36 1195.71,-1993.65 1193.27,-1993.84 1190.82,-1993.94 1188.37,-1993.94 1185.92,-1993.84 1183.48,-1993.65 1181.04,-1993.36 1178.6,-1992.97 1176.18,-1992.5 1173.76,-1991.93 1171.36,-1991.27 1168.97,-1990.52 1166.6,-1989.68 1164.25,-1988.75 1161.93,-1987.75 1159.63,-1986.66 1157.38,-1985.5 1155.16,-1984.27 1152.99,-1982.96 1150.86,-1981.59 1148.8,-1980.16 1146.8,-1978.67 1144.88,-1977.12 1143.03,-1975.52 1141.27,-1973.88 1139.6,-1972.19 1138.03,-1970.47 1136.58,-1968.71 1135.24,-1966.93 1134.04,-1965.12 1132.96,-1963.3 1132.03,-1961.47 1131.25,-1959.62 1130.62,-1957.78 1130.16,-1955.94 1129.87,-1954.1 1129.76,-1952.28 1129.83,-1950.47 1130.08,-1948.69 1130.53,-1946.94 1131.17,-1945.21 1132,-1943.53 1133.03,-1941.88 1134.25,-1940.28 1135.67,-1938.74 1137.28,-1937.24 1139.09,-1935.81 1141.08,-1934.44 1143.25,-1933.13 1145.6,-1931.9 1148.11,-1930.74 1150.79,-1929.65 1153.62,-1928.65 1156.59,-1927.73 1159.7,-1926.89 1162.92,-1926.14 1166.25,-1925.48 1169.68,-1924.91 1173.19,-1924.43 1176.76,-1924.04 1180.39,-1923.76 1184.06,-1923.56 1187.75,-1923.47 1191.44,-1923.47 1195.13,-1923.56"/>
<text text-anchor="start" x="1160.43" y="-1968.5" font-family="Times,serif" font-size="14.00">C0040541</text>
<text text-anchor="start" x="1157.81" y="-1954.5" font-family="Times,serif" font-size="14.00">Toxicology</text>
<text text-anchor="start" x="1180.65" y="-1940.5" font-family="Times,serif" font-size="14.00">9:9</text>
</g>
<!-- id_28362102_DOT_1&#45;&#45;id_28362102_DOT_3 -->
<g id="edge1" class="edge">
<title>id_28362102_DOT_1&#45;&#45;id_28362102_DOT_3</title>
<path fill="none" stroke="black" d="M949.21,-2223.1C1001.74,-2165.32 1111.69,-2044.38 1162.63,-1988.36"/>
<text text-anchor="middle" x="1029.67" y="-2108.53" font-family="Times,serif" font-size="14.00">0.003350</text>
</g>
<!-- id_28362102_DOT_5 -->
<g id="node5" class="node">
<title>id_28362102_DOT_5</title>
<polygon fill="aquamarine" stroke="aquamarine" points="655.01,-2483.49 658.67,-2483.68 662.3,-2483.97 665.88,-2484.35 669.39,-2484.83 672.81,-2485.4 676.14,-2486.06 679.37,-2486.81 682.47,-2487.65 685.44,-2488.57 688.28,-2489.58 690.95,-2490.66 693.47,-2491.82 695.82,-2493.06 697.99,-2494.36 699.98,-2495.73 701.78,-2497.17 703.4,-2498.66 704.82,-2500.21 706.04,-2501.81 707.07,-2503.45 707.9,-2505.14 708.54,-2506.86 708.98,-2508.61 709.24,-2510.4 709.3,-2512.2 709.19,-2514.02 708.9,-2515.86 708.44,-2517.7 707.82,-2519.55 707.04,-2521.39 706.1,-2523.23 705.03,-2525.05 703.82,-2526.85 702.49,-2528.64 701.03,-2530.39 699.47,-2532.11 697.8,-2533.8 696.04,-2535.44 694.19,-2537.04 692.26,-2538.59 690.26,-2540.08 688.2,-2541.52 686.08,-2542.89 683.91,-2544.19 681.69,-2545.43 679.43,-2546.59 677.14,-2547.67 674.82,-2548.68 672.47,-2549.6 670.1,-2550.44 667.71,-2551.19 665.31,-2551.85 662.89,-2552.42 660.46,-2552.9 658.03,-2553.28 655.59,-2553.57 653.14,-2553.76 650.7,-2553.86 648.25,-2553.86 645.8,-2553.76 643.36,-2553.57 640.92,-2553.28 638.48,-2552.9 636.05,-2552.42 633.64,-2551.85 631.23,-2551.19 628.85,-2550.44 626.48,-2549.6 624.13,-2548.68 621.8,-2547.67 619.51,-2546.59 617.25,-2545.43 615.04,-2544.19 612.86,-2542.89 610.74,-2541.52 608.68,-2540.08 606.68,-2538.59 604.75,-2537.04 602.91,-2535.44 601.14,-2533.8 599.48,-2532.11 597.91,-2530.39 596.46,-2528.64 595.12,-2526.85 593.91,-2525.05 592.84,-2523.23 591.91,-2521.39 591.13,-2519.55 590.5,-2517.7 590.04,-2515.86 589.75,-2514.02 589.64,-2512.2 589.71,-2510.4 589.96,-2508.61 590.41,-2506.86 591.04,-2505.14 591.88,-2503.45 592.9,-2501.81 594.13,-2500.21 595.55,-2498.66 597.16,-2497.17 598.96,-2495.73 600.95,-2494.36 603.13,-2493.06 605.47,-2491.82 607.99,-2490.66 610.67,-2489.58 613.5,-2488.57 616.47,-2487.65 619.58,-2486.81 622.8,-2486.06 626.13,-2485.4 629.56,-2484.83 633.07,-2484.35 636.64,-2483.97 640.27,-2483.68 643.94,-2483.49 647.62,-2483.39 651.32,-2483.39 655.01,-2483.49"/>
<text text-anchor="start" x="620.3" y="-2528.43" font-family="Times,serif" font-size="14.00">C0040541</text>
<text text-anchor="start" x="617.69" y="-2514.43" font-family="Times,serif" font-size="14.00">Toxicology</text>
<text text-anchor="start" x="633.53" y="-2500.43" font-family="Times,serif" font-size="14.00">46:46</text>
</g>
<!-- id_28362102_DOT_1&#45;&#45;id_28362102_DOT_5 -->
<g id="edge2" class="edge">
<title>id_28362102_DOT_1&#45;&#45;id_28362102_DOT_5</title>
<path fill="none" stroke="black" d="M890.89,-2283.56C839.91,-2333.2 735.08,-2435.27 681.92,-2487.03"/>
<text text-anchor="middle" x="760.16" y="-2388.09" font-family="Times,serif" font-size="14.00">0.003238</text>
</g>
<!-- id_28362102_DOT_2 -->
<g id="node2" class="node">
<title>id_28362102_DOT_2</title>
<polygon fill="bisque" stroke="bisque" points="2823.22,-1573.24 2826.65,-1573.43 2830.04,-1573.72 2833.39,-1574.1 2836.67,-1574.58 2839.87,-1575.15 2842.99,-1575.81 2846,-1576.56 2848.91,-1577.4 2851.69,-1578.32 2854.33,-1579.33 2856.84,-1580.41 2859.19,-1581.57 2861.39,-1582.81 2863.42,-1584.11 2865.28,-1585.48 2866.97,-1586.92 2868.48,-1588.41 2869.8,-1589.96 2870.95,-1591.56 2871.91,-1593.2 2872.69,-1594.89 2873.28,-1596.61 2873.7,-1598.36 2873.94,-1600.15 2874,-1601.95 2873.9,-1603.77 2873.62,-1605.61 2873.19,-1607.45 2872.61,-1609.3 2871.88,-1611.14 2871.01,-1612.98 2870,-1614.8 2868.87,-1616.6 2867.62,-1618.39 2866.26,-1620.14 2864.8,-1621.86 2863.24,-1623.55 2861.59,-1625.19 2859.87,-1626.79 2858.06,-1628.34 2856.19,-1629.83 2854.27,-1631.27 2852.28,-1632.64 2850.25,-1633.94 2848.18,-1635.18 2846.06,-1636.34 2843.92,-1637.42 2841.75,-1638.43 2839.55,-1639.35 2837.34,-1640.19 2835.1,-1640.94 2832.85,-1641.6 2830.59,-1642.17 2828.32,-1642.65 2826.05,-1643.03 2823.76,-1643.32 2821.48,-1643.51 2819.19,-1643.61 2816.9,-1643.61 2814.61,-1643.51 2812.33,-1643.32 2810.04,-1643.03 2807.77,-1642.65 2805.5,-1642.17 2803.24,-1641.6 2800.99,-1640.94 2798.75,-1640.19 2796.54,-1639.35 2794.34,-1638.43 2792.17,-1637.42 2790.02,-1636.34 2787.91,-1635.18 2785.84,-1633.94 2783.81,-1632.64 2781.82,-1631.27 2779.9,-1629.83 2778.03,-1628.34 2776.22,-1626.79 2774.5,-1625.19 2772.85,-1623.55 2771.29,-1621.86 2769.83,-1620.14 2768.47,-1618.39 2767.22,-1616.6 2766.09,-1614.8 2765.08,-1612.98 2764.21,-1611.14 2763.48,-1609.3 2762.89,-1607.45 2762.46,-1605.61 2762.19,-1603.77 2762.09,-1601.95 2762.15,-1600.15 2762.39,-1598.36 2762.81,-1596.61 2763.4,-1594.89 2764.18,-1593.2 2765.14,-1591.56 2766.29,-1589.96 2767.61,-1588.41 2769.12,-1586.92 2770.81,-1585.48 2772.67,-1584.11 2774.7,-1582.81 2776.9,-1581.57 2779.25,-1580.41 2781.76,-1579.33 2784.4,-1578.32 2787.18,-1577.4 2790.09,-1576.56 2793.1,-1575.81 2796.22,-1575.15 2799.42,-1574.58 2802.7,-1574.1 2806.05,-1573.72 2809.44,-1573.43 2812.87,-1573.24 2816.32,-1573.14 2819.77,-1573.14 2823.22,-1573.24"/>
<text text-anchor="start" x="2788.88" y="-1618.17" font-family="Times,serif" font-size="14.00">C2700280</text>
<text text-anchor="start" x="2800.72" y="-1604.17" font-family="Times,serif" font-size="14.00">World</text>
<text text-anchor="start" x="2809.1" y="-1590.17" font-family="Times,serif" font-size="14.00">4:4</text>
</g>
<!-- id_28362102_DOT_8 -->
<g id="node8" class="node">
<title>id_28362102_DOT_8</title>
<polygon fill="cadetblue" stroke="cadetblue" points="3125.62,-1665.16 3131.76,-1665.35 3137.85,-1665.64 3143.84,-1666.02 3149.73,-1666.5 3155.47,-1667.07 3161.06,-1667.73 3166.46,-1668.48 3171.67,-1669.32 3176.65,-1670.24 3181.4,-1671.25 3185.89,-1672.33 3190.11,-1673.49 3194.05,-1674.73 3197.69,-1676.03 3201.03,-1677.4 3204.05,-1678.84 3206.76,-1680.33 3209.14,-1681.88 3211.19,-1683.48 3212.91,-1685.12 3214.31,-1686.81 3215.38,-1688.53 3216.12,-1690.28 3216.55,-1692.07 3216.66,-1693.87 3216.47,-1695.69 3215.99,-1697.53 3215.22,-1699.37 3214.17,-1701.22 3212.86,-1703.06 3211.3,-1704.89 3209.5,-1706.72 3207.47,-1708.52 3205.23,-1710.3 3202.79,-1712.06 3200.17,-1713.78 3197.37,-1715.47 3194.42,-1717.11 3191.32,-1718.71 3188.09,-1720.26 3184.74,-1721.75 3181.28,-1723.19 3177.72,-1724.56 3174.08,-1725.86 3170.36,-1727.1 3166.57,-1728.26 3162.73,-1729.34 3158.83,-1730.35 3154.9,-1731.27 3150.92,-1732.11 3146.92,-1732.86 3142.89,-1733.52 3138.83,-1734.09 3134.76,-1734.57 3130.68,-1734.95 3126.59,-1735.24 3122.49,-1735.43 3118.39,-1735.53 3114.28,-1735.53 3110.18,-1735.43 3106.08,-1735.24 3101.99,-1734.95 3097.9,-1734.57 3093.83,-1734.09 3089.78,-1733.52 3085.75,-1732.86 3081.74,-1732.11 3077.77,-1731.27 3073.83,-1730.35 3069.94,-1729.34 3066.09,-1728.26 3062.31,-1727.1 3058.59,-1725.86 3054.95,-1724.56 3051.39,-1723.19 3047.93,-1721.75 3044.58,-1720.26 3041.35,-1718.71 3038.25,-1717.11 3035.29,-1715.47 3032.5,-1713.78 3029.87,-1712.06 3027.44,-1710.3 3025.2,-1708.52 3023.17,-1706.72 3021.37,-1704.89 3019.81,-1703.06 3018.5,-1701.22 3017.45,-1699.37 3016.68,-1697.53 3016.19,-1695.69 3016,-1693.87 3016.12,-1692.07 3016.54,-1690.28 3017.29,-1688.53 3018.36,-1686.81 3019.75,-1685.12 3021.48,-1683.48 3023.53,-1681.88 3025.91,-1680.33 3028.61,-1678.84 3031.64,-1677.4 3034.97,-1676.03 3038.62,-1674.73 3042.55,-1673.49 3046.78,-1672.33 3051.27,-1671.25 3056.01,-1670.24 3061,-1669.32 3066.2,-1668.48 3071.61,-1667.73 3077.2,-1667.07 3082.94,-1666.5 3088.82,-1666.02 3094.82,-1665.64 3100.9,-1665.35 3107.05,-1665.16 3113.23,-1665.06 3119.43,-1665.06 3125.62,-1665.16"/>
<text text-anchor="start" x="3087.16" y="-1710.09" font-family="Times,serif" font-size="14.00">C0086272</text>
<text text-anchor="start" x="3057.82" y="-1696.09" font-family="Times,serif" font-size="14.00">experimental models</text>
<text text-anchor="start" x="3100.39" y="-1682.09" font-family="Times,serif" font-size="14.00">81:82</text>
</g>
<!-- id_28362102_DOT_2&#45;&#45;id_28362102_DOT_8 -->
<g id="edge12" class="edge">
<title>id_28362102_DOT_2&#45;&#45;id_28362102_DOT_8</title>
<path fill="none" stroke="black" stroke-dasharray="1,5" d="M2864.33,-1622.64C2910.06,-1636.73 2980.96,-1658.58 3035.92,-1675.52"/>
<text text-anchor="middle" x="2923.87" y="-1651.88" font-family="Times,serif" font-size="14.00">0.878150</text>
</g>
<!-- id_28362102_DOT_14 -->
<g id="node14" class="node">
<title>id_28362102_DOT_14</title>
<polygon fill="crimson" stroke="crimson" points="2400.92,-1608.55 2405.82,-1608.74 2410.66,-1609.03 2415.43,-1609.42 2420.11,-1609.89 2424.69,-1610.46 2429.13,-1611.12 2433.43,-1611.88 2437.58,-1612.71 2441.55,-1613.64 2445.32,-1614.64 2448.9,-1615.73 2452.26,-1616.89 2455.39,-1618.12 2458.29,-1619.43 2460.95,-1620.8 2463.35,-1622.23 2465.51,-1623.72 2467.4,-1625.27 2469.03,-1626.87 2470.41,-1628.51 2471.52,-1630.2 2472.37,-1631.92 2472.96,-1633.68 2473.3,-1635.46 2473.39,-1637.27 2473.24,-1639.09 2472.85,-1640.92 2472.24,-1642.77 2471.41,-1644.61 2470.36,-1646.45 2469.12,-1648.29 2467.69,-1650.11 2466.07,-1651.92 2464.29,-1653.7 2462.35,-1655.46 2460.26,-1657.18 2458.04,-1658.86 2455.68,-1660.51 2453.22,-1662.11 2450.65,-1663.65 2447.98,-1665.15 2445.22,-1666.58 2442.39,-1667.95 2439.49,-1669.26 2436.53,-1670.49 2433.52,-1671.65 2430.46,-1672.74 2427.36,-1673.74 2424.23,-1674.67 2421.06,-1675.5 2417.88,-1676.25 2414.67,-1676.92 2411.44,-1677.49 2408.2,-1677.96 2404.95,-1678.35 2401.7,-1678.64 2398.43,-1678.83 2395.17,-1678.92 2391.9,-1678.92 2388.63,-1678.83 2385.37,-1678.64 2382.11,-1678.35 2378.87,-1677.96 2375.63,-1677.49 2372.4,-1676.92 2369.19,-1676.25 2366,-1675.5 2362.84,-1674.67 2359.71,-1673.74 2356.61,-1672.74 2353.55,-1671.65 2350.53,-1670.49 2347.57,-1669.26 2344.67,-1667.95 2341.84,-1666.58 2339.09,-1665.15 2336.42,-1663.65 2333.85,-1662.11 2331.38,-1660.51 2329.03,-1658.86 2326.81,-1657.18 2324.72,-1655.46 2322.78,-1653.7 2321,-1651.92 2319.38,-1650.11 2317.95,-1648.29 2316.71,-1646.45 2315.66,-1644.61 2314.83,-1642.77 2314.22,-1640.92 2313.83,-1639.09 2313.68,-1637.27 2313.77,-1635.46 2314.11,-1633.68 2314.7,-1631.92 2315.55,-1630.2 2316.66,-1628.51 2318.03,-1626.87 2319.67,-1625.27 2321.56,-1623.72 2323.71,-1622.23 2326.12,-1620.8 2328.78,-1619.43 2331.68,-1618.12 2334.81,-1616.89 2338.17,-1615.73 2341.75,-1614.64 2345.52,-1613.64 2349.49,-1612.71 2353.63,-1611.88 2357.94,-1611.12 2362.38,-1610.46 2366.96,-1609.89 2371.64,-1609.42 2376.41,-1609.03 2381.25,-1608.74 2386.14,-1608.55 2391.07,-1608.45 2396,-1608.45 2400.92,-1608.55"/>
<text text-anchor="start" x="2364.37" y="-1653.49" font-family="Times,serif" font-size="14.00">C0022885</text>
<text text-anchor="start" x="2348.63" y="-1639.49" font-family="Times,serif" font-size="14.00">omics strategies</text>
<text text-anchor="start" x="2370.59" y="-1625.49" font-family="Times,serif" font-size="14.00">138:139</text>
</g>
<!-- id_28362102_DOT_2&#45;&#45;id_28362102_DOT_14 -->
<g id="edge13" class="edge">
<title>id_28362102_DOT_2&#45;&#45;id_28362102_DOT_14</title>
<path fill="none" stroke="black" stroke-dasharray="1,5" d="M2764.71,-1612.81C2691.34,-1618.92 2558.67,-1629.95 2473.42,-1637.04"/>
<text text-anchor="middle" x="2592.82" y="-1627.73" font-family="Times,serif" font-size="14.00">0.860648</text>
</g>
<!-- id_28362102_DOT_20 -->
<g id="node20" class="node">
<title>id_28362102_DOT_20</title>
<polygon fill="darkkhaki" stroke="darkkhaki" points="3027.78,-1161.9 3031.6,-1162.09 3035.38,-1162.38 3039.1,-1162.76 3042.75,-1163.24 3046.32,-1163.81 3049.79,-1164.47 3053.15,-1165.22 3056.38,-1166.06 3059.48,-1166.98 3062.42,-1167.99 3065.21,-1169.07 3067.83,-1170.23 3070.28,-1171.47 3072.54,-1172.77 3074.61,-1174.15 3076.49,-1175.58 3078.17,-1177.07 3079.65,-1178.62 3080.92,-1180.22 3081.99,-1181.86 3082.86,-1183.55 3083.52,-1185.27 3083.99,-1187.03 3084.25,-1188.81 3084.32,-1190.61 3084.2,-1192.44 3083.9,-1194.27 3083.42,-1196.11 3082.77,-1197.96 3081.96,-1199.8 3080.99,-1201.64 3079.87,-1203.46 3078.61,-1205.26 3077.22,-1207.05 3075.71,-1208.8 3074.08,-1210.53 3072.34,-1212.21 3070.51,-1213.86 3068.58,-1215.45 3066.58,-1217 3064.5,-1218.49 3062.35,-1219.93 3060.14,-1221.3 3057.88,-1222.6 3055.57,-1223.84 3053.22,-1225 3050.83,-1226.08 3048.41,-1227.09 3045.97,-1228.01 3043.5,-1228.85 3041.01,-1229.6 3038.51,-1230.26 3035.99,-1230.83 3033.46,-1231.31 3030.93,-1231.69 3028.39,-1231.98 3025.84,-1232.18 3023.29,-1232.27 3020.74,-1232.27 3018.2,-1232.18 3015.65,-1231.98 3013.11,-1231.69 3010.57,-1231.31 3008.05,-1230.83 3005.53,-1230.26 3003.03,-1229.6 3000.54,-1228.85 2998.07,-1228.01 2995.62,-1227.09 2993.21,-1226.08 2990.82,-1225 2988.47,-1223.84 2986.16,-1222.6 2983.9,-1221.3 2981.69,-1219.93 2979.54,-1218.49 2977.46,-1217 2975.45,-1215.45 2973.53,-1213.86 2971.69,-1212.21 2969.96,-1210.53 2968.33,-1208.8 2966.81,-1207.05 2965.42,-1205.26 2964.16,-1203.46 2963.04,-1201.64 2962.07,-1199.8 2961.26,-1197.96 2960.61,-1196.11 2960.13,-1194.27 2959.83,-1192.44 2959.71,-1190.61 2959.78,-1188.81 2960.05,-1187.03 2960.51,-1185.27 2961.18,-1183.55 2962.04,-1181.86 2963.11,-1180.22 2964.39,-1178.62 2965.86,-1177.07 2967.54,-1175.58 2969.42,-1174.15 2971.49,-1172.77 2973.76,-1171.47 2976.2,-1170.23 2978.82,-1169.07 2981.61,-1167.99 2984.56,-1166.98 2987.65,-1166.06 2990.89,-1165.22 2994.24,-1164.47 2997.71,-1163.81 3001.28,-1163.24 3004.93,-1162.76 3008.66,-1162.38 3012.43,-1162.09 3016.25,-1161.9 3020.09,-1161.8 3023.94,-1161.8 3027.78,-1161.9"/>
<text text-anchor="start" x="2992.85" y="-1206.84" font-family="Times,serif" font-size="14.00">C0039021</text>
<text text-anchor="start" x="2988.58" y="-1192.84" font-family="Times,serif" font-size="14.00">Switzerland</text>
<text text-anchor="start" x="2999.07" y="-1178.84" font-family="Times,serif" font-size="14.00">212:212</text>
</g>
<!-- id_28362102_DOT_2&#45;&#45;id_28362102_DOT_20 -->
<g id="edge14" class="edge">
<title>id_28362102_DOT_2&#45;&#45;id_28362102_DOT_20</title>
<path fill="none" stroke="black" stroke-dasharray="1,5" d="M2835.08,-1574.01C2873.67,-1496.2 2967.33,-1307.33 3005.45,-1230.44"/>
<text text-anchor="middle" x="2894.02" y="-1405.02" font-family="Times,serif" font-size="14.00">0.732677</text>
</g>
<!-- id_28362102_DOT_24 -->
<g id="node24" class="node">
<title>id_28362102_DOT_24</title>
<polygon fill="blueviolet" stroke="blueviolet" points="3050.89,-1993.93 3054.32,-1994.12 3057.72,-1994.41 3061.06,-1994.8 3064.34,-1995.27 3067.54,-1995.84 3070.66,-1996.5 3073.68,-1997.26 3076.58,-1998.09 3079.36,-1999.02 3082.01,-2000.02 3084.51,-2001.11 3086.86,-2002.27 3089.06,-2003.5 3091.09,-2004.81 3092.95,-2006.18 3094.64,-2007.61 3096.15,-2009.1 3097.48,-2010.65 3098.62,-2012.25 3099.58,-2013.89 3100.36,-2015.58 3100.96,-2017.3 3101.37,-2019.06 3101.61,-2020.84 3101.67,-2022.65 3101.57,-2024.47 3101.3,-2026.3 3100.87,-2028.15 3100.28,-2029.99 3099.55,-2031.83 3098.68,-2033.67 3097.68,-2035.49 3096.55,-2037.3 3095.3,-2039.08 3093.94,-2040.84 3092.47,-2042.56 3090.91,-2044.24 3089.27,-2045.89 3087.54,-2047.49 3085.74,-2049.03 3083.87,-2050.53 3081.94,-2051.96 3079.95,-2053.33 3077.92,-2054.64 3075.85,-2055.87 3073.74,-2057.03 3071.59,-2058.12 3069.42,-2059.12 3067.22,-2060.05 3065.01,-2060.88 3062.77,-2061.63 3060.53,-2062.3 3058.27,-2062.87 3056,-2063.34 3053.72,-2063.73 3051.44,-2064.02 3049.15,-2064.21 3046.86,-2064.3 3044.57,-2064.3 3042.28,-2064.21 3040,-2064.02 3037.71,-2063.73 3035.44,-2063.34 3033.17,-2062.87 3030.91,-2062.3 3028.66,-2061.63 3026.43,-2060.88 3024.21,-2060.05 3022.01,-2059.12 3019.84,-2058.12 3017.7,-2057.03 3015.59,-2055.87 3013.51,-2054.64 3011.48,-2053.33 3009.5,-2051.96 3007.57,-2050.53 3005.7,-2049.03 3003.9,-2047.49 3002.17,-2045.89 3000.52,-2044.24 2998.96,-2042.56 2997.5,-2040.84 2996.14,-2039.08 2994.89,-2037.3 2993.76,-2035.49 2992.75,-2033.67 2991.88,-2031.83 2991.15,-2029.99 2990.57,-2028.15 2990.14,-2026.3 2989.87,-2024.47 2989.76,-2022.65 2989.82,-2020.84 2990.06,-2019.06 2990.48,-2017.3 2991.07,-2015.58 2991.85,-2013.89 2992.81,-2012.25 2993.96,-2010.65 2995.28,-2009.1 2996.79,-2007.61 2998.48,-2006.18 3000.34,-2004.81 3002.37,-2003.5 3004.57,-2002.27 3006.92,-2001.11 3009.43,-2000.02 3012.07,-1999.02 3014.85,-1998.09 3017.76,-1997.26 3020.77,-1996.5 3023.89,-1995.84 3027.09,-1995.27 3030.37,-1994.8 3033.72,-1994.41 3037.11,-1994.12 3040.54,-1993.93 3043.99,-1993.83 3047.45,-1993.83 3050.89,-1993.93"/>
<text text-anchor="start" x="3016.55" y="-2038.87" font-family="Times,serif" font-size="14.00">C1515655</text>
<text text-anchor="start" x="3026.08" y="-2024.87" font-family="Times,serif" font-size="14.00">in vivo</text>
<text text-anchor="start" x="3022.77" y="-2010.87" font-family="Times,serif" font-size="14.00">263:264</text>
</g>
<!-- id_28362102_DOT_2&#45;&#45;id_28362102_DOT_24 -->
<g id="edge15" class="edge">
<title>id_28362102_DOT_2&#45;&#45;id_28362102_DOT_24</title>
<path fill="none" stroke="black" stroke-dasharray="1,5" d="M2835.72,-1641.04C2877.93,-1719.03 2984.28,-1915.54 3027.26,-1994.97"/>
<text text-anchor="middle" x="2905.24" y="-1820.8" font-family="Times,serif" font-size="14.00">0.799622</text>
</g>
<!-- id_28362102_DOT_10 -->
<g id="node10" class="node">
<title>id_28362102_DOT_10</title>
<polygon fill="aquamarine" stroke="aquamarine" points="1545.89,-1655.48 1549.55,-1655.68 1553.18,-1655.97 1556.75,-1656.35 1560.26,-1656.83 1563.69,-1657.4 1567.02,-1658.06 1570.24,-1658.81 1573.35,-1659.65 1576.32,-1660.57 1579.15,-1661.57 1581.83,-1662.66 1584.35,-1663.82 1586.69,-1665.05 1588.87,-1666.36 1590.86,-1667.73 1592.66,-1669.16 1594.27,-1670.66 1595.69,-1672.21 1596.92,-1673.8 1597.94,-1675.45 1598.78,-1677.13 1599.41,-1678.86 1599.86,-1680.61 1600.11,-1682.39 1600.18,-1684.2 1600.07,-1686.02 1599.78,-1687.86 1599.32,-1689.7 1598.69,-1691.54 1597.91,-1693.39 1596.98,-1695.22 1595.91,-1697.05 1594.7,-1698.85 1593.36,-1700.63 1591.91,-1702.39 1590.34,-1704.11 1588.68,-1705.8 1586.91,-1707.44 1585.07,-1709.04 1583.14,-1710.59 1581.14,-1712.08 1579.08,-1713.51 1576.96,-1714.89 1574.78,-1716.19 1572.57,-1717.42 1570.31,-1718.59 1568.02,-1719.67 1565.69,-1720.68 1563.35,-1721.6 1560.98,-1722.44 1558.59,-1723.19 1556.18,-1723.85 1553.77,-1724.42 1551.34,-1724.9 1548.9,-1725.28 1546.46,-1725.57 1544.02,-1725.76 1541.57,-1725.86 1539.12,-1725.86 1536.68,-1725.76 1534.23,-1725.57 1531.79,-1725.28 1529.36,-1724.9 1526.93,-1724.42 1524.51,-1723.85 1522.11,-1723.19 1519.72,-1722.44 1517.35,-1721.6 1515,-1720.68 1512.68,-1719.67 1510.39,-1718.59 1508.13,-1717.42 1505.91,-1716.19 1503.74,-1714.89 1501.62,-1713.51 1499.56,-1712.08 1497.56,-1710.59 1495.63,-1709.04 1493.78,-1707.44 1492.02,-1705.8 1490.35,-1704.11 1488.79,-1702.39 1487.33,-1700.63 1486,-1698.85 1484.79,-1697.05 1483.72,-1695.22 1482.78,-1693.39 1482,-1691.54 1481.38,-1689.7 1480.92,-1687.86 1480.63,-1686.02 1480.52,-1684.2 1480.58,-1682.39 1480.84,-1680.61 1481.28,-1678.86 1481.92,-1677.13 1482.75,-1675.45 1483.78,-1673.8 1485,-1672.21 1486.42,-1670.66 1488.04,-1669.16 1489.84,-1667.73 1491.83,-1666.36 1494,-1665.05 1496.35,-1663.82 1498.87,-1662.66 1501.55,-1661.57 1504.38,-1660.57 1507.35,-1659.65 1510.45,-1658.81 1513.68,-1658.06 1517.01,-1657.4 1520.44,-1656.83 1523.94,-1656.35 1527.52,-1655.97 1531.15,-1655.68 1534.81,-1655.48 1538.5,-1655.39 1542.2,-1655.39 1545.89,-1655.48"/>
<text text-anchor="start" x="1511.18" y="-1700.42" font-family="Times,serif" font-size="14.00">C0040541</text>
<text text-anchor="start" x="1508.56" y="-1686.42" font-family="Times,serif" font-size="14.00">Toxicology</text>
<text text-anchor="start" x="1524.4" y="-1672.42" font-family="Times,serif" font-size="14.00">93:93</text>
</g>
<!-- id_28362102_DOT_3&#45;&#45;id_28362102_DOT_10 -->
<g id="edge3" class="edge">
<title>id_28362102_DOT_3&#45;&#45;id_28362102_DOT_10</title>
<path fill="none" stroke="black" d="M1228.13,-1929.25C1297.18,-1876.47 1440.88,-1766.65 1506.43,-1716.55"/>
<text text-anchor="middle" x="1341.03" y="-1825.7" font-family="Times,serif" font-size="14.00">0.014200</text>
</g>
<!-- id_28362102_DOT_4 -->
<g id="node4" class="node">
<title>id_28362102_DOT_4</title>
<polygon fill="blue" stroke="blue" points="2051.04,-2118.58 2054.77,-2118.77 2058.46,-2119.06 2062.09,-2119.45 2065.65,-2119.92 2069.14,-2120.5 2072.52,-2121.16 2075.8,-2121.91 2078.95,-2122.74 2081.97,-2123.67 2084.85,-2124.67 2087.57,-2125.76 2090.13,-2126.92 2092.52,-2128.15 2094.72,-2129.46 2096.75,-2130.83 2098.58,-2132.26 2100.22,-2133.76 2101.66,-2135.3 2102.9,-2136.9 2103.95,-2138.55 2104.79,-2140.23 2105.44,-2141.95 2105.89,-2143.71 2106.15,-2145.49 2106.22,-2147.3 2106.11,-2149.12 2105.81,-2150.96 2105.35,-2152.8 2104.71,-2154.64 2103.92,-2156.49 2102.97,-2158.32 2101.88,-2160.14 2100.65,-2161.95 2099.29,-2163.73 2097.81,-2165.49 2096.22,-2167.21 2094.53,-2168.9 2092.74,-2170.54 2090.86,-2172.14 2088.9,-2173.69 2086.87,-2175.18 2084.78,-2176.61 2082.62,-2177.98 2080.41,-2179.29 2078.16,-2180.52 2075.86,-2181.68 2073.53,-2182.77 2071.17,-2183.77 2068.79,-2184.7 2066.38,-2185.53 2063.95,-2186.29 2061.51,-2186.95 2059.05,-2187.52 2056.59,-2187.99 2054.11,-2188.38 2051.63,-2188.67 2049.15,-2188.86 2046.66,-2188.96 2044.17,-2188.96 2041.69,-2188.86 2039.2,-2188.67 2036.72,-2188.38 2034.25,-2187.99 2031.78,-2187.52 2029.32,-2186.95 2026.88,-2186.29 2024.45,-2185.53 2022.05,-2184.7 2019.66,-2183.77 2017.3,-2182.77 2014.97,-2181.68 2012.67,-2180.52 2010.42,-2179.29 2008.21,-2177.98 2006.06,-2176.61 2003.96,-2175.18 2001.93,-2173.69 1999.97,-2172.14 1998.09,-2170.54 1996.3,-2168.9 1994.61,-2167.21 1993.02,-2165.49 1991.54,-2163.73 1990.18,-2161.95 1988.96,-2160.14 1987.86,-2158.32 1986.92,-2156.49 1986.12,-2154.64 1985.49,-2152.8 1985.02,-2150.96 1984.73,-2149.12 1984.61,-2147.3 1984.68,-2145.49 1984.94,-2143.71 1985.39,-2141.95 1986.04,-2140.23 1986.88,-2138.55 1987.93,-2136.9 1989.17,-2135.3 1990.61,-2133.76 1992.25,-2132.26 1994.09,-2130.83 1996.11,-2129.46 1998.32,-2128.15 2000.7,-2126.92 2003.26,-2125.76 2005.98,-2124.67 2008.86,-2123.67 2011.88,-2122.74 2015.03,-2121.91 2018.31,-2121.16 2021.7,-2120.5 2025.18,-2119.92 2028.74,-2119.45 2032.38,-2119.06 2036.06,-2118.77 2039.79,-2118.58 2043.54,-2118.49 2047.29,-2118.49 2051.04,-2118.58"/>
<text text-anchor="start" x="2016.25" y="-2163.52" font-family="Times,serif" font-size="14.00">C0043335</text>
<text text-anchor="start" x="2013.14" y="-2149.52" font-family="Times,serif" font-size="14.00">xenobiotics</text>
<text text-anchor="start" x="2029.47" y="-2135.52" font-family="Times,serif" font-size="14.00">21:21</text>
</g>
<!-- id_28362102_DOT_22 -->
<g id="node22" class="node">
<title>id_28362102_DOT_22</title>
<polygon fill="blue" stroke="blue" points="1989.92,-1704.13 1993.65,-1704.33 1997.33,-1704.61 2000.97,-1705 2004.53,-1705.48 2008.01,-1706.05 2011.4,-1706.71 2014.68,-1707.46 2017.83,-1708.3 2020.85,-1709.22 2023.73,-1710.22 2026.45,-1711.31 2029.01,-1712.47 2031.39,-1713.7 2033.6,-1715.01 2035.62,-1716.38 2037.46,-1717.81 2039.1,-1719.31 2040.54,-1720.86 2041.78,-1722.45 2042.83,-1724.1 2043.67,-1725.78 2044.32,-1727.51 2044.77,-1729.26 2045.03,-1731.04 2045.1,-1732.85 2044.99,-1734.67 2044.69,-1736.51 2044.22,-1738.35 2043.59,-1740.19 2042.79,-1742.04 2041.85,-1743.87 2040.76,-1745.7 2039.53,-1747.5 2038.17,-1749.28 2036.69,-1751.04 2035.1,-1752.76 2033.41,-1754.45 2031.62,-1756.09 2029.74,-1757.69 2027.78,-1759.24 2025.75,-1760.73 2023.65,-1762.16 2021.5,-1763.53 2019.29,-1764.84 2017.04,-1766.07 2014.74,-1767.24 2012.41,-1768.32 2010.05,-1769.33 2007.67,-1770.25 2005.26,-1771.09 2002.83,-1771.84 2000.39,-1772.5 1997.93,-1773.07 1995.46,-1773.55 1992.99,-1773.93 1990.51,-1774.22 1988.03,-1774.41 1985.54,-1774.51 1983.05,-1774.51 1980.56,-1774.41 1978.08,-1774.22 1975.6,-1773.93 1973.13,-1773.55 1970.66,-1773.07 1968.2,-1772.5 1965.76,-1771.84 1963.33,-1771.09 1960.92,-1770.25 1958.54,-1769.33 1956.18,-1768.32 1953.85,-1767.24 1951.55,-1766.07 1949.3,-1764.84 1947.09,-1763.53 1944.94,-1762.16 1942.84,-1760.73 1940.81,-1759.24 1938.85,-1757.69 1936.97,-1756.09 1935.18,-1754.45 1933.49,-1752.76 1931.9,-1751.04 1930.42,-1749.28 1929.06,-1747.5 1927.83,-1745.7 1926.74,-1743.87 1925.8,-1742.04 1925,-1740.19 1924.37,-1738.35 1923.9,-1736.51 1923.61,-1734.67 1923.49,-1732.85 1923.56,-1731.04 1923.82,-1729.26 1924.27,-1727.51 1924.92,-1725.78 1925.76,-1724.1 1926.81,-1722.45 1928.05,-1720.86 1929.49,-1719.31 1931.13,-1717.81 1932.97,-1716.38 1934.99,-1715.01 1937.2,-1713.7 1939.58,-1712.47 1942.14,-1711.31 1944.86,-1710.22 1947.74,-1709.22 1950.76,-1708.3 1953.91,-1707.46 1957.19,-1706.71 1960.58,-1706.05 1964.06,-1705.48 1967.62,-1705 1971.26,-1704.61 1974.94,-1704.33 1978.67,-1704.13 1982.42,-1704.04 1986.17,-1704.04 1989.92,-1704.13"/>
<text text-anchor="start" x="1955.13" y="-1749.07" font-family="Times,serif" font-size="14.00">C0043335</text>
<text text-anchor="start" x="1952.02" y="-1735.07" font-family="Times,serif" font-size="14.00">xenobiotics</text>
<text text-anchor="start" x="1961.35" y="-1721.07" font-family="Times,serif" font-size="14.00">242:242</text>
</g>
<!-- id_28362102_DOT_4&#45;&#45;id_28362102_DOT_22 -->
<g id="edge4" class="edge">
<title>id_28362102_DOT_4&#45;&#45;id_28362102_DOT_22</title>
<path fill="none" stroke="black" d="M2040.21,-2118.39C2028.66,-2040.08 2001.03,-1852.74 1989.49,-1774.52"/>
<text text-anchor="middle" x="1988.6" y="-1949.25" font-family="Times,serif" font-size="14.00">0.008951</text>
</g>
<!-- id_28362102_DOT_21 -->
<g id="node21" class="node">
<title>id_28362102_DOT_21</title>
<polygon fill="aquamarine" stroke="aquamarine" points="363.07,-2709.32 366.74,-2709.52 370.37,-2709.8 373.94,-2710.19 377.45,-2710.67 380.88,-2711.24 384.21,-2711.9 387.43,-2712.65 390.54,-2713.49 393.51,-2714.41 396.34,-2715.41 399.02,-2716.5 401.53,-2717.66 403.88,-2718.89 406.05,-2720.2 408.04,-2721.57 409.85,-2723 411.46,-2724.5 412.88,-2726.05 414.1,-2727.64 415.13,-2729.29 415.96,-2730.97 416.6,-2732.7 417.05,-2734.45 417.3,-2736.23 417.37,-2738.04 417.26,-2739.86 416.97,-2741.7 416.51,-2743.54 415.88,-2745.38 415.1,-2747.23 414.17,-2749.06 413.09,-2750.89 411.89,-2752.69 410.55,-2754.47 409.1,-2756.23 407.53,-2757.95 405.86,-2759.64 404.1,-2761.28 402.25,-2762.88 400.33,-2764.43 398.33,-2765.92 396.27,-2767.35 394.14,-2768.72 391.97,-2770.03 389.75,-2771.26 387.5,-2772.43 385.2,-2773.51 382.88,-2774.52 380.53,-2775.44 378.16,-2776.28 375.77,-2777.03 373.37,-2777.69 370.95,-2778.26 368.53,-2778.74 366.09,-2779.12 363.65,-2779.41 361.21,-2779.6 358.76,-2779.7 356.31,-2779.7 353.86,-2779.6 351.42,-2779.41 348.98,-2779.12 346.55,-2778.74 344.12,-2778.26 341.7,-2777.69 339.3,-2777.03 336.91,-2776.28 334.54,-2775.44 332.19,-2774.52 329.87,-2773.51 327.58,-2772.43 325.32,-2771.26 323.1,-2770.03 320.93,-2768.72 318.81,-2767.35 316.74,-2765.92 314.75,-2764.43 312.82,-2762.88 310.97,-2761.28 309.21,-2759.64 307.54,-2757.95 305.98,-2756.23 304.52,-2754.47 303.19,-2752.69 301.98,-2750.89 300.9,-2749.06 299.97,-2747.23 299.19,-2745.38 298.57,-2743.54 298.11,-2741.7 297.82,-2739.86 297.7,-2738.04 297.77,-2736.23 298.03,-2734.45 298.47,-2732.7 299.11,-2730.97 299.94,-2729.29 300.97,-2727.64 302.19,-2726.05 303.61,-2724.5 305.22,-2723 307.03,-2721.57 309.02,-2720.2 311.19,-2718.89 313.54,-2717.66 316.05,-2716.5 318.73,-2715.41 321.56,-2714.41 324.54,-2713.49 327.64,-2712.65 330.86,-2711.9 334.2,-2711.24 337.62,-2710.67 341.13,-2710.19 344.71,-2709.8 348.33,-2709.52 352,-2709.32 355.69,-2709.23 359.38,-2709.23 363.07,-2709.32"/>
<text text-anchor="start" x="328.37" y="-2754.26" font-family="Times,serif" font-size="14.00">C0040541</text>
<text text-anchor="start" x="325.75" y="-2740.26" font-family="Times,serif" font-size="14.00">Toxicology</text>
<text text-anchor="start" x="334.59" y="-2726.26" font-family="Times,serif" font-size="14.00">230:230</text>
</g>
<!-- id_28362102_DOT_5&#45;&#45;id_28362102_DOT_21 -->
<g id="edge5" class="edge">
<title>id_28362102_DOT_5&#45;&#45;id_28362102_DOT_21</title>
<path fill="none" stroke="black" d="M615.7,-2544.75C560.92,-2587.13 453.04,-2670.58 395.61,-2715.01"/>
<text text-anchor="middle" x="479.4" y="-2632.68" font-family="Times,serif" font-size="14.00">0.009760</text>
</g>
<!-- id_28362102_DOT_6 -->
<g id="node6" class="node">
<title>id_28362102_DOT_6</title>
<polygon fill="blueviolet" stroke="blueviolet" points="3101.7,-2393.22 3105.13,-2393.42 3108.52,-2393.71 3111.86,-2394.09 3115.14,-2394.57 3118.35,-2395.14 3121.46,-2395.8 3124.48,-2396.55 3127.38,-2397.39 3130.16,-2398.31 3132.81,-2399.31 3135.31,-2400.4 3137.67,-2401.56 3139.86,-2402.8 3141.9,-2404.1 3143.76,-2405.47 3145.44,-2406.91 3146.95,-2408.4 3148.28,-2409.95 3149.42,-2411.54 3150.38,-2413.19 3151.16,-2414.87 3151.76,-2416.6 3152.17,-2418.35 3152.41,-2420.13 3152.48,-2421.94 3152.37,-2423.76 3152.1,-2425.6 3151.67,-2427.44 3151.09,-2429.29 3150.35,-2431.13 3149.48,-2432.96 3148.48,-2434.79 3147.35,-2436.59 3146.1,-2438.37 3144.74,-2440.13 3143.28,-2441.85 3141.72,-2443.54 3140.07,-2445.18 3138.34,-2446.78 3136.54,-2448.33 3134.67,-2449.82 3132.74,-2451.25 3130.76,-2452.63 3128.73,-2453.93 3126.65,-2455.17 3124.54,-2456.33 3122.4,-2457.41 3120.22,-2458.42 3118.03,-2459.34 3115.81,-2460.18 3113.58,-2460.93 3111.33,-2461.59 3109.07,-2462.16 3106.8,-2462.64 3104.52,-2463.02 3102.24,-2463.31 3099.95,-2463.5 3097.66,-2463.6 3095.38,-2463.6 3093.09,-2463.5 3090.8,-2463.31 3088.52,-2463.02 3086.24,-2462.64 3083.97,-2462.16 3081.71,-2461.59 3079.46,-2460.93 3077.23,-2460.18 3075.01,-2459.34 3072.82,-2458.42 3070.64,-2457.41 3068.5,-2456.33 3066.39,-2455.17 3064.31,-2453.93 3062.28,-2452.63 3060.3,-2451.25 3058.37,-2449.82 3056.5,-2448.33 3054.7,-2446.78 3052.97,-2445.18 3051.32,-2443.54 3049.76,-2441.85 3048.3,-2440.13 3046.94,-2438.37 3045.69,-2436.59 3044.56,-2434.79 3043.56,-2432.96 3042.68,-2431.13 3041.95,-2429.29 3041.37,-2427.44 3040.94,-2425.6 3040.67,-2423.76 3040.56,-2421.94 3040.63,-2420.13 3040.87,-2418.35 3041.28,-2416.6 3041.88,-2414.87 3042.65,-2413.19 3043.62,-2411.54 3044.76,-2409.95 3046.09,-2408.4 3047.6,-2406.91 3049.28,-2405.47 3051.14,-2404.1 3053.18,-2402.8 3055.37,-2401.56 3057.73,-2400.4 3060.23,-2399.31 3062.88,-2398.31 3065.66,-2397.39 3068.56,-2396.55 3071.58,-2395.8 3074.69,-2395.14 3077.9,-2394.57 3081.18,-2394.09 3084.52,-2393.71 3087.91,-2393.42 3091.34,-2393.22 3094.79,-2393.13 3098.25,-2393.13 3101.7,-2393.22"/>
<text text-anchor="start" x="3067.35" y="-2438.16" font-family="Times,serif" font-size="14.00">C1515655</text>
<text text-anchor="start" x="3076.88" y="-2424.16" font-family="Times,serif" font-size="14.00">in vivo</text>
<text text-anchor="start" x="3080.57" y="-2410.16" font-family="Times,serif" font-size="14.00">54:55</text>
</g>
<!-- id_28362102_DOT_6&#45;&#45;id_28362102_DOT_24 -->
<g id="edge6" class="edge">
<title>id_28362102_DOT_6&#45;&#45;id_28362102_DOT_24</title>
<path fill="none" stroke="black" d="M3092.01,-2392.93C3082.36,-2317.06 3059.79,-2139.68 3050.18,-2064.14"/>
<text text-anchor="middle" x="3044.84" y="-2231.33" font-family="Times,serif" font-size="14.00">0.004255</text>
</g>
<!-- id_28362102_DOT_7 -->
<g id="node7" class="node">
<title>id_28362102_DOT_7</title>
<polygon fill="brown" stroke="brown" points="932.47,-1159.7 935.89,-1159.89 939.29,-1160.18 942.63,-1160.57 945.91,-1161.04 949.12,-1161.61 952.23,-1162.27 955.25,-1163.03 958.15,-1163.86 960.93,-1164.79 963.58,-1165.79 966.08,-1166.88 968.44,-1168.04 970.63,-1169.27 972.66,-1170.58 974.53,-1171.95 976.21,-1173.38 977.72,-1174.88 979.05,-1176.42 980.19,-1178.02 981.15,-1179.66 981.93,-1181.35 982.53,-1183.07 982.94,-1184.83 983.18,-1186.61 983.24,-1188.42 983.14,-1190.24 982.87,-1192.07 982.44,-1193.92 981.85,-1195.76 981.12,-1197.6 980.25,-1199.44 979.25,-1201.26 978.12,-1203.07 976.87,-1204.85 975.51,-1206.61 974.04,-1208.33 972.49,-1210.01 970.84,-1211.66 969.11,-1213.26 967.31,-1214.8 965.44,-1216.3 963.51,-1217.73 961.53,-1219.1 959.49,-1220.41 957.42,-1221.64 955.31,-1222.8 953.16,-1223.89 950.99,-1224.89 948.8,-1225.82 946.58,-1226.65 944.35,-1227.4 942.1,-1228.07 939.84,-1228.64 937.57,-1229.11 935.29,-1229.5 933.01,-1229.79 930.72,-1229.98 928.43,-1230.07 926.14,-1230.07 923.86,-1229.98 921.57,-1229.79 919.29,-1229.5 917.01,-1229.11 914.74,-1228.64 912.48,-1228.07 910.23,-1227.4 908,-1226.65 905.78,-1225.82 903.58,-1224.89 901.41,-1223.89 899.27,-1222.8 897.16,-1221.64 895.08,-1220.41 893.05,-1219.1 891.07,-1217.73 889.14,-1216.3 887.27,-1214.8 885.47,-1213.26 883.74,-1211.66 882.09,-1210.01 880.53,-1208.33 879.07,-1206.61 877.71,-1204.85 876.46,-1203.07 875.33,-1201.26 874.32,-1199.44 873.45,-1197.6 872.72,-1195.76 872.14,-1193.92 871.71,-1192.07 871.44,-1190.24 871.33,-1188.42 871.4,-1186.61 871.63,-1184.83 872.05,-1183.07 872.65,-1181.35 873.42,-1179.66 874.38,-1178.02 875.53,-1176.42 876.86,-1174.88 878.36,-1173.38 880.05,-1171.95 881.91,-1170.58 883.94,-1169.27 886.14,-1168.04 888.49,-1166.88 891,-1165.79 893.65,-1164.79 896.43,-1163.86 899.33,-1163.03 902.34,-1162.27 905.46,-1161.61 908.66,-1161.04 911.95,-1160.57 915.29,-1160.18 918.68,-1159.89 922.11,-1159.7 925.56,-1159.6 929.02,-1159.6 932.47,-1159.7"/>
<text text-anchor="start" x="898.12" y="-1204.64" font-family="Times,serif" font-size="14.00">C0600688</text>
<text text-anchor="start" x="905.9" y="-1190.64" font-family="Times,serif" font-size="14.00">toxicity</text>
<text text-anchor="start" x="911.34" y="-1176.64" font-family="Times,serif" font-size="14.00">56:56</text>
</g>
<!-- id_28362102_DOT_23 -->
<g id="node23" class="node">
<title>id_28362102_DOT_23</title>
<polygon fill="brown" stroke="brown" points="1314.83,-1294.48 1318.26,-1294.67 1321.65,-1294.96 1325,-1295.34 1328.28,-1295.82 1331.48,-1296.39 1334.6,-1297.05 1337.61,-1297.8 1340.51,-1298.64 1343.29,-1299.56 1345.94,-1300.57 1348.45,-1301.65 1350.8,-1302.81 1353,-1304.05 1355.03,-1305.35 1356.89,-1306.72 1358.58,-1308.16 1360.08,-1309.65 1361.41,-1311.2 1362.56,-1312.8 1363.52,-1314.44 1364.3,-1316.13 1364.89,-1317.85 1365.31,-1319.6 1365.55,-1321.39 1365.61,-1323.19 1365.5,-1325.01 1365.23,-1326.85 1364.8,-1328.69 1364.22,-1330.54 1363.49,-1332.38 1362.62,-1334.22 1361.61,-1336.04 1360.48,-1337.84 1359.23,-1339.63 1357.87,-1341.38 1356.41,-1343.1 1354.85,-1344.79 1353.2,-1346.43 1351.47,-1348.03 1349.67,-1349.58 1347.8,-1351.07 1345.87,-1352.51 1343.89,-1353.88 1341.86,-1355.18 1339.78,-1356.42 1337.67,-1357.58 1335.53,-1358.66 1333.36,-1359.67 1331.16,-1360.59 1328.94,-1361.43 1326.71,-1362.18 1324.46,-1362.84 1322.2,-1363.41 1319.93,-1363.89 1317.65,-1364.27 1315.37,-1364.56 1313.09,-1364.75 1310.8,-1364.85 1308.51,-1364.85 1306.22,-1364.75 1303.93,-1364.56 1301.65,-1364.27 1299.37,-1363.89 1297.1,-1363.41 1294.84,-1362.84 1292.6,-1362.18 1290.36,-1361.43 1288.14,-1360.59 1285.95,-1359.67 1283.78,-1358.66 1281.63,-1357.58 1279.52,-1356.42 1277.45,-1355.18 1275.42,-1353.88 1273.43,-1352.51 1271.5,-1351.07 1269.63,-1349.58 1267.83,-1348.03 1266.1,-1346.43 1264.46,-1344.79 1262.9,-1343.1 1261.43,-1341.38 1260.07,-1339.63 1258.82,-1337.84 1257.69,-1336.04 1256.69,-1334.22 1255.82,-1332.38 1255.09,-1330.54 1254.5,-1328.69 1254.07,-1326.85 1253.8,-1325.01 1253.7,-1323.19 1253.76,-1321.39 1254,-1319.6 1254.41,-1317.85 1255.01,-1316.13 1255.79,-1314.44 1256.75,-1312.8 1257.89,-1311.2 1259.22,-1309.65 1260.73,-1308.16 1262.42,-1306.72 1264.28,-1305.35 1266.31,-1304.05 1268.5,-1302.81 1270.86,-1301.65 1273.36,-1300.57 1276.01,-1299.56 1278.79,-1298.64 1281.69,-1297.8 1284.71,-1297.05 1287.82,-1296.39 1291.03,-1295.82 1294.31,-1295.34 1297.65,-1294.96 1301.05,-1294.67 1304.47,-1294.48 1307.92,-1294.38 1311.38,-1294.38 1314.83,-1294.48"/>
<text text-anchor="start" x="1280.48" y="-1339.42" font-family="Times,serif" font-size="14.00">C0600688</text>
<text text-anchor="start" x="1288.27" y="-1325.42" font-family="Times,serif" font-size="14.00">toxicity</text>
<text text-anchor="start" x="1286.71" y="-1311.42" font-family="Times,serif" font-size="14.00">253:253</text>
</g>
<!-- id_28362102_DOT_7&#45;&#45;id_28362102_DOT_23 -->
<g id="edge7" class="edge">
<title>id_28362102_DOT_7&#45;&#45;id_28362102_DOT_23</title>
<path fill="none" stroke="black" d="M972.27,-1210.7C1043.54,-1235.82 1182.03,-1284.63 1257.52,-1311.24"/>
<text text-anchor="middle" x="1088.65" y="-1263.77" font-family="Times,serif" font-size="14.00">0.008968</text>
</g>
<!-- id_28362102_DOT_9 -->
<g id="node9" class="node">
<title>id_28362102_DOT_9</title>
<polygon fill="chartreuse" stroke="chartreuse" points="3372.4,-889.6 3378.98,-889.79 3385.5,-890.08 3391.91,-890.47 3398.21,-890.94 3404.36,-891.51 3410.34,-892.18 3416.13,-892.93 3421.7,-893.76 3427.04,-894.69 3432.12,-895.69 3436.93,-896.78 3441.45,-897.94 3445.66,-899.17 3449.56,-900.48 3453.13,-901.85 3456.37,-903.28 3459.27,-904.78 3461.81,-906.32 3464.01,-907.92 3465.86,-909.57 3467.35,-911.25 3468.49,-912.97 3469.29,-914.73 3469.75,-916.51 3469.87,-918.32 3469.67,-920.14 3469.15,-921.98 3468.32,-923.82 3467.2,-925.66 3465.8,-927.51 3464.13,-929.34 3462.2,-931.16 3460.03,-932.97 3457.63,-934.75 3455.02,-936.51 3452.21,-938.23 3449.22,-939.92 3446.06,-941.56 3442.74,-943.16 3439.28,-944.71 3435.69,-946.2 3431.99,-947.63 3428.18,-949 3424.28,-950.31 3420.3,-951.54 3416.25,-952.7 3412.13,-953.79 3407.96,-954.79 3403.75,-955.72 3399.49,-956.55 3395.2,-957.31 3390.89,-957.97 3386.55,-958.54 3382.19,-959.01 3377.82,-959.4 3373.44,-959.69 3369.05,-959.88 3364.66,-959.98 3360.27,-959.98 3355.88,-959.88 3351.49,-959.69 3347.11,-959.4 3342.74,-959.01 3338.38,-958.54 3334.04,-957.97 3329.73,-957.31 3325.44,-956.55 3321.18,-955.72 3316.97,-954.79 3312.8,-953.79 3308.68,-952.7 3304.63,-951.54 3300.65,-950.31 3296.75,-949 3292.94,-947.63 3289.24,-946.2 3285.65,-944.71 3282.19,-943.16 3278.87,-941.56 3275.71,-939.92 3272.72,-938.23 3269.91,-936.51 3267.3,-934.75 3264.9,-932.97 3262.73,-931.16 3260.8,-929.34 3259.13,-927.51 3257.73,-925.66 3256.61,-923.82 3255.78,-921.98 3255.26,-920.14 3255.06,-918.32 3255.18,-916.51 3255.64,-914.73 3256.44,-912.97 3257.58,-911.25 3259.07,-909.57 3260.92,-907.92 3263.12,-906.32 3265.66,-904.78 3268.56,-903.28 3271.8,-901.85 3275.37,-900.48 3279.27,-899.17 3283.48,-897.94 3288,-896.78 3292.81,-895.69 3297.89,-894.69 3303.23,-893.76 3308.8,-892.93 3314.59,-892.18 3320.57,-891.51 3326.72,-890.94 3333.02,-890.47 3339.43,-890.08 3345.95,-889.79 3352.53,-889.6 3359.15,-889.51 3365.78,-889.51 3372.4,-889.6"/>
<text text-anchor="start" x="3333.3" y="-934.54" font-family="Times,serif" font-size="14.00">C0242481</text>
<text text-anchor="start" x="3299.28" y="-920.54" font-family="Times,serif" font-size="14.00">bioanalysis techniques</text>
<text text-anchor="start" x="3346.52" y="-906.54" font-family="Times,serif" font-size="14.00">84:85</text>
</g>
<!-- id_28362102_DOT_11 -->
<g id="node11" class="node">
<title>id_28362102_DOT_11</title>
<polygon fill="coral" stroke="coral" points="3657.78,-606.41 3661.72,-606.61 3665.63,-606.9 3669.47,-607.28 3673.25,-607.76 3676.94,-608.33 3680.52,-608.99 3683.99,-609.74 3687.33,-610.58 3690.53,-611.5 3693.58,-612.51 3696.46,-613.59 3699.17,-614.75 3701.7,-615.99 3704.03,-617.29 3706.18,-618.66 3708.12,-620.1 3709.85,-621.59 3711.38,-623.14 3712.7,-624.73 3713.8,-626.38 3714.7,-628.07 3715.38,-629.79 3715.86,-631.54 3716.14,-633.33 3716.21,-635.13 3716.09,-636.95 3715.78,-638.79 3715.28,-640.63 3714.61,-642.48 3713.77,-644.32 3712.77,-646.15 3711.61,-647.98 3710.31,-649.78 3708.87,-651.56 3707.31,-653.32 3705.62,-655.04 3703.83,-656.73 3701.93,-658.37 3699.94,-659.97 3697.87,-661.52 3695.72,-663.01 3693.5,-664.45 3691.22,-665.82 3688.88,-667.12 3686.49,-668.36 3684.06,-669.52 3681.59,-670.6 3679.09,-671.61 3676.57,-672.53 3674.02,-673.37 3671.45,-674.12 3668.86,-674.78 3666.26,-675.35 3663.65,-675.83 3661.03,-676.21 3658.4,-676.5 3655.77,-676.69 3653.13,-676.79 3650.5,-676.79 3647.87,-676.69 3645.24,-676.5 3642.61,-676.21 3639.99,-675.83 3637.38,-675.35 3634.78,-674.78 3632.19,-674.12 3629.62,-673.37 3627.07,-672.53 3624.54,-671.61 3622.04,-670.6 3619.57,-669.52 3617.14,-668.36 3614.76,-667.12 3612.42,-665.82 3610.14,-664.45 3607.92,-663.01 3605.77,-661.52 3603.69,-659.97 3601.7,-658.37 3599.81,-656.73 3598.01,-655.04 3596.33,-653.32 3594.76,-651.56 3593.33,-649.78 3592.03,-647.98 3590.87,-646.15 3589.87,-644.32 3589.03,-642.48 3588.35,-640.63 3587.86,-638.79 3587.55,-636.95 3587.43,-635.13 3587.5,-633.33 3587.77,-631.54 3588.25,-629.79 3588.94,-628.07 3589.83,-626.38 3590.94,-624.73 3592.26,-623.14 3593.78,-621.59 3595.52,-620.1 3597.46,-618.66 3599.6,-617.29 3601.94,-615.99 3604.47,-614.75 3607.18,-613.59 3610.06,-612.51 3613.1,-611.5 3616.3,-610.58 3619.64,-609.74 3623.11,-608.99 3626.7,-608.33 3630.39,-607.76 3634.16,-607.28 3638.01,-606.9 3641.91,-606.61 3645.86,-606.41 3649.83,-606.32 3653.81,-606.32 3657.78,-606.41"/>
<text text-anchor="start" x="3622.65" y="-651.35" font-family="Times,serif" font-size="14.00">C0150098</text>
<text text-anchor="start" x="3617.03" y="-637.35" font-family="Times,serif" font-size="14.00">data streams</text>
<text text-anchor="start" x="3628.87" y="-623.35" font-family="Times,serif" font-size="14.00">101:102</text>
</g>
<!-- id_28362102_DOT_9&#45;&#45;id_28362102_DOT_11 -->
<g id="edge16" class="edge">
<title>id_28362102_DOT_9&#45;&#45;id_28362102_DOT_11</title>
<path fill="none" stroke="black" stroke-dasharray="1,5" d="M3397.37,-890.58C3454.79,-834.39 3568.17,-723.42 3622.04,-670.7"/>
<text text-anchor="middle" x="3483.45" y="-783.44" font-family="Times,serif" font-size="14.00">0.880878</text>
</g>
<!-- id_28362102_DOT_16 -->
<g id="node16" class="node">
<title>id_28362102_DOT_16</title>
<polygon fill="crimson" stroke="crimson" points="3746.98,-1073.9 3753.65,-1074.09 3760.25,-1074.38 3766.76,-1074.76 3773.14,-1075.24 3779.38,-1075.81 3785.44,-1076.47 3791.31,-1077.22 3796.96,-1078.06 3802.37,-1078.98 3807.52,-1079.99 3812.39,-1081.07 3816.97,-1082.23 3821.25,-1083.47 3825.2,-1084.77 3828.82,-1086.14 3832.1,-1087.58 3835.04,-1089.07 3837.62,-1090.62 3839.85,-1092.22 3841.72,-1093.86 3843.23,-1095.55 3844.39,-1097.27 3845.2,-1099.02 3845.66,-1100.81 3845.79,-1102.61 3845.58,-1104.43 3845.06,-1106.27 3844.22,-1108.11 3843.08,-1109.96 3841.66,-1111.8 3839.97,-1113.63 3838.01,-1115.46 3835.81,-1117.26 3833.38,-1119.04 3830.73,-1120.8 3827.89,-1122.52 3824.85,-1124.21 3821.65,-1125.85 3818.28,-1127.45 3814.78,-1129 3811.14,-1130.49 3807.39,-1131.93 3803.53,-1133.3 3799.57,-1134.6 3795.54,-1135.84 3791.43,-1137 3787.26,-1138.08 3783.03,-1139.09 3778.76,-1140.01 3774.44,-1140.85 3770.1,-1141.6 3765.72,-1142.26 3761.32,-1142.83 3756.91,-1143.31 3752.48,-1143.69 3748.03,-1143.98 3743.59,-1144.17 3739.13,-1144.27 3734.68,-1144.27 3730.22,-1144.17 3725.78,-1143.98 3721.33,-1143.69 3716.9,-1143.31 3712.49,-1142.83 3708.09,-1142.26 3703.71,-1141.6 3699.37,-1140.85 3695.05,-1140.01 3690.78,-1139.09 3686.55,-1138.08 3682.38,-1137 3678.27,-1135.84 3674.24,-1134.6 3670.28,-1133.3 3666.42,-1131.93 3662.67,-1130.49 3659.03,-1129 3655.53,-1127.45 3652.16,-1125.85 3648.96,-1124.21 3645.92,-1122.52 3643.08,-1120.8 3640.43,-1119.04 3638,-1117.26 3635.8,-1115.46 3633.84,-1113.63 3632.15,-1111.8 3630.73,-1109.96 3629.59,-1108.11 3628.75,-1106.27 3628.23,-1104.43 3628.02,-1102.61 3628.15,-1100.81 3628.61,-1099.02 3629.42,-1097.27 3630.58,-1095.55 3632.09,-1093.86 3633.96,-1092.22 3636.19,-1090.62 3638.77,-1089.07 3641.71,-1087.58 3644.99,-1086.14 3648.61,-1084.77 3652.56,-1083.47 3656.84,-1082.23 3661.42,-1081.07 3666.29,-1079.99 3671.44,-1078.98 3676.85,-1078.06 3682.5,-1077.22 3688.37,-1076.47 3694.43,-1075.81 3700.67,-1075.24 3707.05,-1074.76 3713.56,-1074.38 3720.16,-1074.09 3726.83,-1073.9 3733.54,-1073.8 3740.27,-1073.8 3746.98,-1073.9"/>
<text text-anchor="start" x="3707.74" y="-1118.83" font-family="Times,serif" font-size="14.00">C0022885</text>
<text text-anchor="start" x="3672.57" y="-1104.83" font-family="Times,serif" font-size="14.00">bioanalytical strategies</text>
<text text-anchor="start" x="3713.96" y="-1090.83" font-family="Times,serif" font-size="14.00">165:166</text>
</g>
<!-- id_28362102_DOT_9&#45;&#45;id_28362102_DOT_16 -->
<g id="edge8" class="edge">
<title>id_28362102_DOT_9&#45;&#45;id_28362102_DOT_16</title>
<path fill="none" stroke="black" d="M3418.52,-952.33C3487.17,-986.12 3603.11,-1043.18 3674.52,-1078.33"/>
<text text-anchor="middle" x="3520.27" y="-1018.13" font-family="Times,serif" font-size="14.00">0.146029</text>
</g>
<!-- id_28362102_DOT_9&#45;&#45;id_28362102_DOT_20 -->
<g id="edge17" class="edge">
<title>id_28362102_DOT_9&#45;&#45;id_28362102_DOT_20</title>
<path fill="none" stroke="black" stroke-dasharray="1,5" d="M3323.08,-956.24C3257,-1009.09 3124.7,-1114.91 3059.75,-1166.86"/>
<text text-anchor="middle" x="3165.16" y="-1064.35" font-family="Times,serif" font-size="14.00">0.876714</text>
</g>
<!-- id_28362102_DOT_25 -->
<g id="node25" class="node">
<title>id_28362102_DOT_25</title>
<polygon fill="crimson" stroke="crimson" points="3215.48,-498.65 3222.97,-498.84 3230.39,-499.13 3237.7,-499.52 3244.87,-499.99 3251.88,-500.56 3258.69,-501.23 3265.28,-501.98 3271.63,-502.81 3277.7,-503.74 3283.49,-504.74 3288.97,-505.83 3294.11,-506.99 3298.91,-508.22 3303.36,-509.53 3307.42,-510.9 3311.11,-512.33 3314.41,-513.83 3317.31,-515.37 3319.81,-516.97 3321.91,-518.62 3323.62,-520.3 3324.92,-522.02 3325.83,-523.78 3326.35,-525.56 3326.49,-527.37 3326.26,-529.19 3325.66,-531.02 3324.72,-532.87 3323.45,-534.71 3321.85,-536.56 3319.94,-538.39 3317.75,-540.21 3315.28,-542.02 3312.55,-543.8 3309.57,-545.56 3306.37,-547.28 3302.96,-548.96 3299.36,-550.61 3295.58,-552.21 3291.64,-553.75 3287.56,-555.25 3283.34,-556.68 3279,-558.05 3274.56,-559.36 3270.03,-560.59 3265.41,-561.75 3260.73,-562.84 3255.98,-563.84 3251.18,-564.77 3246.33,-565.6 3241.45,-566.35 3236.53,-567.02 3231.59,-567.59 3226.63,-568.06 3221.65,-568.45 3216.66,-568.74 3211.66,-568.93 3206.66,-569.03 3201.66,-569.03 3196.65,-568.93 3191.66,-568.74 3186.67,-568.45 3181.69,-568.06 3176.73,-567.59 3171.79,-567.02 3166.87,-566.35 3161.99,-565.6 3157.14,-564.77 3152.34,-563.84 3147.59,-562.84 3142.9,-561.75 3138.29,-560.59 3133.76,-559.36 3129.31,-558.05 3124.98,-556.68 3120.76,-555.25 3116.67,-553.75 3112.73,-552.21 3108.96,-550.61 3105.35,-548.96 3101.95,-547.28 3098.75,-545.56 3095.77,-543.8 3093.04,-542.02 3090.57,-540.21 3088.37,-538.39 3086.47,-536.56 3084.87,-534.71 3083.6,-532.87 3082.66,-531.02 3082.06,-529.19 3081.83,-527.37 3081.97,-525.56 3082.49,-523.78 3083.4,-522.02 3084.7,-520.3 3086.4,-518.62 3088.51,-516.97 3091.01,-515.37 3093.91,-513.83 3097.21,-512.33 3100.89,-510.9 3104.96,-509.53 3109.4,-508.22 3114.21,-506.99 3119.35,-505.83 3124.83,-504.74 3130.61,-503.74 3136.69,-502.81 3143.04,-501.98 3149.63,-501.23 3156.44,-500.56 3163.45,-499.99 3170.62,-499.52 3177.93,-499.13 3185.35,-498.84 3192.84,-498.65 3200.38,-498.55 3207.94,-498.55 3215.48,-498.65"/>
<text text-anchor="start" x="3174.99" y="-543.59" font-family="Times,serif" font-size="14.00">C0022885</text>
<text text-anchor="start" x="3130.88" y="-529.59" font-family="Times,serif" font-size="14.00">bioanalytical technologies</text>
<text text-anchor="start" x="3181.21" y="-515.59" font-family="Times,serif" font-size="14.00">273:274</text>
</g>
<!-- id_28362102_DOT_9&#45;&#45;id_28362102_DOT_25 -->
<g id="edge18" class="edge">
<title>id_28362102_DOT_9&#45;&#45;id_28362102_DOT_25</title>
<path fill="none" stroke="black" stroke-dasharray="1,5" d="M3348.28,-889.7C3318.22,-815.48 3248.45,-643.16 3218.37,-568.89"/>
<text text-anchor="middle" x="3257.07" y="-732.1" font-family="Times,serif" font-size="14.00">0.286433</text>
</g>
<!-- id_28362102_DOT_15 -->
<g id="node15" class="node">
<title>id_28362102_DOT_15</title>
<polygon fill="aquamarine" stroke="aquamarine" points="1546.77,-2015.71 1550.44,-2015.9 1554.07,-2016.19 1557.64,-2016.57 1561.15,-2017.05 1564.58,-2017.62 1567.91,-2018.28 1571.13,-2019.03 1574.24,-2019.87 1577.21,-2020.79 1580.04,-2021.8 1582.72,-2022.88 1585.24,-2024.04 1587.58,-2025.28 1589.76,-2026.58 1591.75,-2027.95 1593.55,-2029.39 1595.16,-2030.88 1596.58,-2032.43 1597.81,-2034.03 1598.83,-2035.67 1599.67,-2037.36 1600.3,-2039.08 1600.75,-2040.83 1601,-2042.62 1601.07,-2044.42 1600.96,-2046.24 1600.67,-2048.08 1600.21,-2049.92 1599.58,-2051.77 1598.8,-2053.61 1597.87,-2055.44 1596.8,-2057.27 1595.59,-2059.07 1594.25,-2060.85 1592.8,-2062.61 1591.23,-2064.33 1589.57,-2066.02 1587.8,-2067.66 1585.96,-2069.26 1584.03,-2070.81 1582.03,-2072.3 1579.97,-2073.74 1577.85,-2075.11 1575.67,-2076.41 1573.46,-2077.65 1571.2,-2078.81 1568.91,-2079.89 1566.58,-2080.9 1564.24,-2081.82 1561.87,-2082.66 1559.48,-2083.41 1557.07,-2084.07 1554.66,-2084.64 1552.23,-2085.12 1549.79,-2085.5 1547.35,-2085.79 1544.91,-2085.98 1542.46,-2086.08 1540.01,-2086.08 1537.57,-2085.98 1535.12,-2085.79 1532.68,-2085.5 1530.25,-2085.12 1527.82,-2084.64 1525.4,-2084.07 1523,-2083.41 1520.61,-2082.66 1518.24,-2081.82 1515.89,-2080.9 1513.57,-2079.89 1511.28,-2078.81 1509.02,-2077.65 1506.8,-2076.41 1504.63,-2075.11 1502.51,-2073.74 1500.45,-2072.3 1498.45,-2070.81 1496.52,-2069.26 1494.67,-2067.66 1492.91,-2066.02 1491.24,-2064.33 1489.68,-2062.61 1488.22,-2060.85 1486.89,-2059.07 1485.68,-2057.27 1484.61,-2055.44 1483.67,-2053.61 1482.89,-2051.77 1482.27,-2049.92 1481.81,-2048.08 1481.52,-2046.24 1481.41,-2044.42 1481.47,-2042.62 1481.73,-2040.83 1482.17,-2039.08 1482.81,-2037.36 1483.64,-2035.67 1484.67,-2034.03 1485.89,-2032.43 1487.31,-2030.88 1488.93,-2029.39 1490.73,-2027.95 1492.72,-2026.58 1494.89,-2025.28 1497.24,-2024.04 1499.76,-2022.88 1502.44,-2021.8 1505.27,-2020.79 1508.24,-2019.87 1511.34,-2019.03 1514.57,-2018.28 1517.9,-2017.62 1521.32,-2017.05 1524.83,-2016.57 1528.41,-2016.19 1532.04,-2015.9 1535.7,-2015.71 1539.39,-2015.61 1543.09,-2015.61 1546.77,-2015.71"/>
<text text-anchor="start" x="1512.07" y="-2060.64" font-family="Times,serif" font-size="14.00">C0040541</text>
<text text-anchor="start" x="1509.45" y="-2046.64" font-family="Times,serif" font-size="14.00">Toxicology</text>
<text text-anchor="start" x="1518.29" y="-2032.64" font-family="Times,serif" font-size="14.00">147:147</text>
</g>
<!-- id_28362102_DOT_10&#45;&#45;id_28362102_DOT_15 -->
<g id="edge9" class="edge">
<title>id_28362102_DOT_10&#45;&#45;id_28362102_DOT_15</title>
<path fill="none" stroke="black" d="M1540.44,-1726.15C1540.61,-1795.19 1540.98,-1946.75 1541.15,-2015.58"/>
<text text-anchor="middle" x="1514.54" y="-1873.67" font-family="Times,serif" font-size="14.00">0.030932</text>
</g>
<!-- id_28362102_DOT_10&#45;&#45;id_28362102_DOT_22 -->
<g id="edge19" class="edge">
<title>id_28362102_DOT_10&#45;&#45;id_28362102_DOT_22</title>
<path fill="none" stroke="black" stroke-dasharray="1,5" d="M1596.13,-1696.73C1679.73,-1705.9 1836.93,-1723.12 1923.42,-1732.6"/>
<text text-anchor="middle" x="1733.52" y="-1717.47" font-family="Times,serif" font-size="14.00">0.662566</text>
</g>
<!-- id_28362102_DOT_10&#45;&#45;id_28362102_DOT_23 -->
<g id="edge20" class="edge">
<title>id_28362102_DOT_10&#45;&#45;id_28362102_DOT_23</title>
<path fill="none" stroke="black" stroke-dasharray="1,5" d="M1518.85,-1656.98C1474.45,-1587.49 1373.13,-1428.94 1329.85,-1361.23"/>
<text text-anchor="middle" x="1398.1" y="-1511.9" font-family="Times,serif" font-size="14.00">0.527950</text>
</g>
<!-- id_28362102_DOT_17 -->
<g id="node17" class="node">
<title>id_28362102_DOT_17</title>
<polygon fill="darkgoldenrod" stroke="darkgoldenrod" points="3905.14,-314.52 3908.57,-314.71 3911.97,-315 3915.31,-315.38 3918.59,-315.86 3921.79,-316.43 3924.91,-317.09 3927.93,-317.84 3930.83,-318.68 3933.61,-319.6 3936.26,-320.61 3938.76,-321.69 3941.11,-322.85 3943.31,-324.09 3945.34,-325.39 3947.2,-326.77 3948.89,-328.2 3950.4,-329.69 3951.73,-331.24 3952.87,-332.84 3953.83,-334.48 3954.61,-336.17 3955.21,-337.89 3955.62,-339.65 3955.86,-341.43 3955.92,-343.23 3955.82,-345.06 3955.55,-346.89 3955.12,-348.73 3954.53,-350.58 3953.8,-352.42 3952.93,-354.26 3951.93,-356.08 3950.8,-357.89 3949.55,-359.67 3948.19,-361.42 3946.72,-363.15 3945.16,-364.83 3943.52,-366.48 3941.79,-368.07 3939.99,-369.62 3938.12,-371.11 3936.19,-372.55 3934.2,-373.92 3932.17,-375.22 3930.1,-376.46 3927.99,-377.62 3925.84,-378.71 3923.67,-379.71 3921.47,-380.63 3919.26,-381.47 3917.02,-382.22 3914.77,-382.88 3912.51,-383.45 3910.25,-383.93 3907.97,-384.31 3905.69,-384.6 3903.4,-384.8 3901.11,-384.89 3898.82,-384.89 3896.53,-384.8 3894.25,-384.6 3891.96,-384.31 3889.69,-383.93 3887.42,-383.45 3885.16,-382.88 3882.91,-382.22 3880.68,-381.47 3878.46,-380.63 3876.26,-379.71 3874.09,-378.71 3871.95,-377.62 3869.84,-376.46 3867.76,-375.22 3865.73,-373.92 3863.75,-372.55 3861.82,-371.11 3859.95,-369.62 3858.15,-368.07 3856.42,-366.48 3854.77,-364.83 3853.21,-363.15 3851.75,-361.42 3850.39,-359.67 3849.14,-357.89 3848.01,-356.08 3847,-354.26 3846.13,-352.42 3845.4,-350.58 3844.82,-348.73 3844.39,-346.89 3844.12,-345.06 3844.01,-343.23 3844.07,-341.43 3844.31,-339.65 3844.73,-337.89 3845.32,-336.17 3846.1,-334.48 3847.06,-332.84 3848.21,-331.24 3849.53,-329.69 3851.04,-328.2 3852.73,-326.77 3854.59,-325.39 3856.62,-324.09 3858.82,-322.85 3861.17,-321.69 3863.68,-320.61 3866.32,-319.6 3869.1,-318.68 3872.01,-317.84 3875.02,-317.09 3878.14,-316.43 3881.34,-315.86 3884.62,-315.38 3887.97,-315 3891.36,-314.71 3894.79,-314.52 3898.24,-314.42 3901.69,-314.42 3905.14,-314.52"/>
<text text-anchor="start" x="3870.8" y="-359.46" font-family="Times,serif" font-size="14.00">C1552616</text>
<text text-anchor="start" x="3873.91" y="-345.46" font-family="Times,serif" font-size="14.00">summary</text>
<text text-anchor="start" x="3877.02" y="-331.46" font-family="Times,serif" font-size="14.00">195:195</text>
</g>
<!-- id_28362102_DOT_11&#45;&#45;id_28362102_DOT_17 -->
<g id="edge21" class="edge">
<title>id_28362102_DOT_11&#45;&#45;id_28362102_DOT_17</title>
<path fill="none" stroke="black" stroke-dasharray="1,5" d="M3679.8,-608.64C3728.47,-551.38 3827.98,-434.33 3874.69,-379.39"/>
<text text-anchor="middle" x="3751" y="-496.81" font-family="Times,serif" font-size="14.00">0.832810</text>
</g>
<!-- id_28362102_DOT_12 -->
<g id="node12" class="node">
<title>id_28362102_DOT_12</title>
<polygon fill="chartreuse" stroke="chartreuse" points="4104.23,-0.23 4110.37,-0.42 4116.46,-0.71 4122.45,-1.09 4128.34,-1.57 4134.08,-2.14 4139.67,-2.8 4145.08,-3.55 4150.28,-4.39 4155.27,-5.31 4160.02,-6.32 4164.51,-7.4 4168.73,-8.57 4172.67,-9.8 4176.31,-11.1 4179.65,-12.48 4182.67,-13.91 4185.38,-15.4 4187.76,-16.95 4189.81,-18.55 4191.53,-20.19 4192.93,-21.88 4194,-23.6 4194.74,-25.36 4195.17,-27.14 4195.28,-28.94 4195.09,-30.77 4194.61,-32.6 4193.84,-34.44 4192.79,-36.29 4191.48,-38.13 4189.92,-39.97 4188.11,-41.79 4186.09,-43.6 4183.85,-45.38 4181.41,-47.13 4178.78,-48.86 4175.99,-50.54 4173.03,-52.19 4169.94,-53.78 4166.7,-55.33 4163.35,-56.82 4159.89,-58.26 4156.34,-59.63 4152.69,-60.94 4148.97,-62.17 4145.19,-63.33 4141.34,-64.42 4137.45,-65.42 4133.51,-66.34 4129.53,-67.18 4125.53,-67.93 4121.5,-68.59 4117.44,-69.16 4113.37,-69.64 4109.29,-70.02 4105.2,-70.31 4101.1,-70.51 4096.99,-70.6 4092.89,-70.6 4088.79,-70.51 4084.69,-70.31 4080.59,-70.02 4076.51,-69.64 4072.44,-69.16 4068.39,-68.59 4064.35,-67.93 4060.35,-67.18 4056.37,-66.34 4052.44,-65.42 4048.54,-64.42 4044.7,-63.33 4040.91,-62.17 4037.19,-60.94 4033.55,-59.63 4029.99,-58.26 4026.53,-56.82 4023.18,-55.33 4019.95,-53.78 4016.85,-52.19 4013.89,-50.54 4011.1,-48.86 4008.47,-47.13 4006.04,-45.38 4003.8,-43.6 4001.77,-41.79 3999.97,-39.97 3998.4,-38.13 3997.09,-36.29 3996.05,-34.44 3995.27,-32.6 3994.79,-30.77 3994.6,-28.94 3994.71,-27.14 3995.14,-25.36 3995.89,-23.6 3996.96,-21.88 3998.35,-20.19 4000.07,-18.55 4002.13,-16.95 4004.51,-15.4 4007.21,-13.91 4010.24,-12.48 4013.57,-11.1 4017.22,-9.8 4021.15,-8.57 4025.38,-7.4 4029.87,-6.32 4034.61,-5.31 4039.6,-4.39 4044.8,-3.55 4050.21,-2.8 4055.8,-2.14 4061.55,-1.57 4067.43,-1.09 4073.42,-0.71 4079.51,-0.42 4085.66,-0.23 4091.84,-0.13 4098.04,-0.13 4104.23,-0.23"/>
<text text-anchor="start" x="4065.77" y="-45.17" font-family="Times,serif" font-size="14.00">C0242481</text>
<text text-anchor="start" x="4036.43" y="-31.17" font-family="Times,serif" font-size="14.00">omics measurements</text>
<text text-anchor="start" x="4072.51" y="-17.17" font-family="Times,serif" font-size="14.00">115:116</text>
</g>
<!-- id_28362102_DOT_12&#45;&#45;id_28362102_DOT_17 -->
<g id="edge22" class="edge">
<title>id_28362102_DOT_12&#45;&#45;id_28362102_DOT_17</title>
<path fill="none" stroke="black" stroke-dasharray="1,5" d="M4073.7,-69.6C4036.1,-130.22 3958.26,-255.7 3920.88,-315.94"/>
<text text-anchor="middle" x="3971.04" y="-195.57" font-family="Times,serif" font-size="14.00">0.708907</text>
</g>
<!-- id_28362102_DOT_13 -->
<g id="node13" class="node">
<title>id_28362102_DOT_13</title>
<polygon fill="cornflowerblue" stroke="cornflowerblue" points="3439.87,-2167.54 3445.63,-2167.74 3451.33,-2168.03 3456.94,-2168.41 3462.45,-2168.89 3467.83,-2169.46 3473.06,-2170.12 3478.12,-2170.87 3483,-2171.71 3487.67,-2172.63 3492.11,-2173.64 3496.32,-2174.72 3500.27,-2175.88 3503.96,-2177.12 3507.37,-2178.42 3510.49,-2179.79 3513.32,-2181.23 3515.86,-2182.72 3518.09,-2184.27 3520.01,-2185.86 3521.62,-2187.51 3522.93,-2189.19 3523.93,-2190.92 3524.63,-2192.67 3525.03,-2194.46 3525.13,-2196.26 3524.96,-2198.08 3524.5,-2199.92 3523.78,-2201.76 3522.8,-2203.61 3521.57,-2205.45 3520.11,-2207.28 3518.42,-2209.11 3516.52,-2210.91 3514.43,-2212.69 3512.14,-2214.45 3509.69,-2216.17 3507.07,-2217.86 3504.3,-2219.5 3501.4,-2221.1 3498.37,-2222.65 3495.23,-2224.14 3492,-2225.57 3488.67,-2226.95 3485.25,-2228.25 3481.77,-2229.49 3478.23,-2230.65 3474.63,-2231.73 3470.98,-2232.74 3467.29,-2233.66 3463.57,-2234.5 3459.82,-2235.25 3456.04,-2235.91 3452.25,-2236.48 3448.44,-2236.96 3444.62,-2237.34 3440.78,-2237.63 3436.95,-2237.82 3433.1,-2237.92 3429.26,-2237.92 3425.42,-2237.82 3421.58,-2237.63 3417.75,-2237.34 3413.92,-2236.96 3410.11,-2236.48 3406.32,-2235.91 3402.54,-2235.25 3398.79,-2234.5 3395.07,-2233.66 3391.38,-2232.74 3387.73,-2231.73 3384.13,-2230.65 3380.59,-2229.49 3377.11,-2228.25 3373.7,-2226.95 3370.37,-2225.57 3367.13,-2224.14 3363.99,-2222.65 3360.96,-2221.1 3358.06,-2219.5 3355.29,-2217.86 3352.68,-2216.17 3350.22,-2214.45 3347.94,-2212.69 3345.84,-2210.91 3343.94,-2209.11 3342.25,-2207.28 3340.79,-2205.45 3339.56,-2203.61 3338.58,-2201.76 3337.86,-2199.92 3337.41,-2198.08 3337.23,-2196.26 3337.34,-2194.46 3337.74,-2192.67 3338.43,-2190.92 3339.43,-2189.19 3340.74,-2187.51 3342.35,-2185.86 3344.28,-2184.27 3346.5,-2182.72 3349.04,-2181.23 3351.87,-2179.79 3354.99,-2178.42 3358.41,-2177.12 3362.09,-2175.88 3366.05,-2174.72 3370.25,-2173.64 3374.69,-2172.63 3379.36,-2171.71 3384.24,-2170.87 3389.3,-2170.12 3394.53,-2169.46 3399.91,-2168.89 3405.42,-2168.41 3411.03,-2168.03 3416.73,-2167.74 3422.49,-2167.54 3428.28,-2167.45 3434.08,-2167.45 3439.87,-2167.54"/>
<text text-anchor="start" x="3402.01" y="-2212.48" font-family="Times,serif" font-size="14.00">C0936012</text>
<text text-anchor="start" x="3376.95" y="-2198.48" font-family="Times,serif" font-size="14.00">integrative analysis</text>
<text text-anchor="start" x="3408.24" y="-2184.48" font-family="Times,serif" font-size="14.00">128:129</text>
</g>
<!-- id_28362102_DOT_13&#45;&#45;id_28362102_DOT_24 -->
<g id="edge23" class="edge">
<title>id_28362102_DOT_13&#45;&#45;id_28362102_DOT_24</title>
<path fill="none" stroke="black" stroke-dasharray="1,5" d="M3367.96,-2174.21C3288.61,-2138.47 3154.76,-2078.18 3087.27,-2047.79"/>
<text text-anchor="middle" x="3201.62" y="-2113.8" font-family="Times,serif" font-size="14.00">0.891181</text>
</g>
<!-- id_28362102_DOT_14&#45;&#45;id_28362102_DOT_22 -->
<g id="edge24" class="edge">
<title>id_28362102_DOT_14&#45;&#45;id_28362102_DOT_22</title>
<path fill="none" stroke="black" stroke-dasharray="1,5" d="M2328.69,-1658.83C2250.26,-1677.15 2119.34,-1707.73 2043.52,-1725.44"/>
<text text-anchor="middle" x="2159.86" y="-1694.94" font-family="Times,serif" font-size="14.00">0.732607</text>
</g>
<!-- id_28362102_DOT_18 -->
<g id="node18" class="node">
<title>id_28362102_DOT_18</title>
<polygon fill="aquamarine" stroke="aquamarine" points="65.45,-2920.26 69.12,-2920.46 72.75,-2920.75 76.32,-2921.13 79.83,-2921.61 83.26,-2922.18 86.59,-2922.84 89.81,-2923.59 92.92,-2924.43 95.89,-2925.35 98.72,-2926.36 101.4,-2927.44 103.91,-2928.6 106.26,-2929.84 108.43,-2931.14 110.43,-2932.51 112.23,-2933.95 113.84,-2935.44 115.26,-2936.99 116.48,-2938.58 117.51,-2940.23 118.34,-2941.91 118.98,-2943.64 119.43,-2945.39 119.68,-2947.18 119.75,-2948.98 119.64,-2950.8 119.35,-2952.64 118.89,-2954.48 118.26,-2956.33 117.48,-2958.17 116.55,-2960 115.47,-2961.83 114.27,-2963.63 112.93,-2965.41 111.48,-2967.17 109.91,-2968.89 108.24,-2970.58 106.48,-2972.22 104.63,-2973.82 102.71,-2975.37 100.71,-2976.86 98.65,-2978.29 96.52,-2979.67 94.35,-2980.97 92.13,-2982.21 89.88,-2983.37 87.58,-2984.45 85.26,-2985.46 82.91,-2986.38 80.54,-2987.22 78.15,-2987.97 75.75,-2988.63 73.33,-2989.2 70.91,-2989.68 68.47,-2990.06 66.03,-2990.35 63.59,-2990.54 61.14,-2990.64 58.69,-2990.64 56.25,-2990.54 53.8,-2990.35 51.36,-2990.06 48.93,-2989.68 46.5,-2989.2 44.08,-2988.63 41.68,-2987.97 39.29,-2987.22 36.92,-2986.38 34.57,-2985.46 32.25,-2984.45 29.96,-2983.37 27.7,-2982.21 25.48,-2980.97 23.31,-2979.67 21.19,-2978.29 19.12,-2976.86 17.13,-2975.37 15.2,-2973.82 13.35,-2972.22 11.59,-2970.58 9.92,-2968.89 8.36,-2967.17 6.9,-2965.41 5.57,-2963.63 4.36,-2961.83 3.28,-2960 2.35,-2958.17 1.57,-2956.33 0.95,-2954.48 0.49,-2952.64 0.2,-2950.8 0.08,-2948.98 0.15,-2947.18 0.41,-2945.39 0.85,-2943.64 1.49,-2941.91 2.32,-2940.23 3.35,-2938.58 4.57,-2936.99 5.99,-2935.44 7.6,-2933.95 9.41,-2932.51 11.4,-2931.14 13.57,-2929.84 15.92,-2928.6 18.44,-2927.44 21.11,-2926.36 23.94,-2925.35 26.92,-2924.43 30.02,-2923.59 33.24,-2922.84 36.58,-2922.18 40,-2921.61 43.51,-2921.13 47.09,-2920.75 50.71,-2920.46 54.38,-2920.26 58.07,-2920.17 61.76,-2920.17 65.45,-2920.26"/>
<text text-anchor="start" x="30.75" y="-2965.2" font-family="Times,serif" font-size="14.00">C0040541</text>
<text text-anchor="start" x="28.13" y="-2951.2" font-family="Times,serif" font-size="14.00">Toxicology</text>
<text text-anchor="start" x="36.97" y="-2937.2" font-family="Times,serif" font-size="14.00">201:201</text>
</g>
<!-- id_28362102_DOT_18&#45;&#45;id_28362102_DOT_21 -->
<g id="edge10" class="edge">
<title>id_28362102_DOT_18&#45;&#45;id_28362102_DOT_21</title>
<path fill="none" stroke="black" d="M100.36,-2926.74C158.85,-2885.28 266.12,-2809.25 321.83,-2769.77"/>
<text text-anchor="middle" x="184.85" y="-2851.05" font-family="Times,serif" font-size="14.00">0.007688</text>
</g>
<!-- id_28362102_DOT_19 -->
<g id="node19" class="node">
<title>id_28362102_DOT_19</title>
<polygon fill="darkgreen" stroke="darkgreen" points="2789.42,-846.83 2792.84,-847.02 2796.24,-847.31 2799.58,-847.69 2802.86,-848.17 2806.07,-848.74 2809.18,-849.4 2812.2,-850.15 2815.1,-850.99 2817.88,-851.91 2820.53,-852.92 2823.03,-854 2825.39,-855.16 2827.58,-856.4 2829.61,-857.7 2831.48,-859.08 2833.16,-860.51 2834.67,-862 2836,-863.55 2837.14,-865.15 2838.1,-866.79 2838.88,-868.48 2839.48,-870.2 2839.89,-871.96 2840.13,-873.74 2840.19,-875.54 2840.09,-877.37 2839.82,-879.2 2839.39,-881.04 2838.8,-882.89 2838.07,-884.73 2837.2,-886.57 2836.2,-888.39 2835.07,-890.2 2833.82,-891.98 2832.46,-893.73 2830.99,-895.46 2829.43,-897.14 2827.79,-898.79 2826.06,-900.38 2824.26,-901.93 2822.39,-903.42 2820.46,-904.86 2818.47,-906.23 2816.44,-907.53 2814.37,-908.77 2812.26,-909.93 2810.11,-911.02 2807.94,-912.02 2805.75,-912.94 2803.53,-913.78 2801.29,-914.53 2799.05,-915.19 2796.79,-915.76 2794.52,-916.24 2792.24,-916.62 2789.96,-916.91 2787.67,-917.11 2785.38,-917.2 2783.09,-917.2 2780.8,-917.11 2778.52,-916.91 2776.24,-916.62 2773.96,-916.24 2771.69,-915.76 2769.43,-915.19 2767.18,-914.53 2764.95,-913.78 2762.73,-912.94 2760.53,-912.02 2758.36,-911.02 2756.22,-909.93 2754.11,-908.77 2752.03,-907.53 2750,-906.23 2748.02,-904.86 2746.09,-903.42 2744.22,-901.93 2742.42,-900.38 2740.69,-898.79 2739.04,-897.14 2737.48,-895.46 2736.02,-893.73 2734.66,-891.98 2733.41,-890.2 2732.28,-888.39 2731.27,-886.57 2730.4,-884.73 2729.67,-882.89 2729.09,-881.04 2728.66,-879.2 2728.39,-877.37 2728.28,-875.54 2728.35,-873.74 2728.58,-871.96 2729,-870.2 2729.6,-868.48 2730.37,-866.79 2731.33,-865.15 2732.48,-863.55 2733.81,-862 2735.31,-860.51 2737,-859.08 2738.86,-857.7 2740.89,-856.4 2743.09,-855.16 2745.44,-854 2747.95,-852.92 2750.6,-851.91 2753.38,-850.99 2756.28,-850.15 2759.29,-849.4 2762.41,-848.74 2765.61,-848.17 2768.9,-847.69 2772.24,-847.31 2775.63,-847.02 2779.06,-846.83 2782.51,-846.73 2785.97,-846.73 2789.42,-846.83"/>
<text text-anchor="start" x="2755.07" y="-891.77" font-family="Times,serif" font-size="14.00">C0017446</text>
<text text-anchor="start" x="2771.01" y="-877.77" font-family="Times,serif" font-size="14.00">Alps</text>
<text text-anchor="start" x="2761.29" y="-863.77" font-family="Times,serif" font-size="14.00">210:210</text>
</g>
<!-- id_28362102_DOT_19&#45;&#45;id_28362102_DOT_20 -->
<g id="edge25" class="edge">
<title>id_28362102_DOT_19&#45;&#45;id_28362102_DOT_20</title>
<path fill="none" stroke="black" stroke-dasharray="1,5" d="M2807.25,-912.46C2852.01,-971.77 2950.44,-1102.19 2996.85,-1163.69"/>
<text text-anchor="middle" x="2876.06" y="-1040.88" font-family="Times,serif" font-size="14.00">0.608011</text>
</g>
<!-- id_28362102_DOT_26 -->
<g id="node26" class="node">
<title>id_28362102_DOT_26</title>
<polygon fill="brown" stroke="brown" points="1240.82,-899.2 1244.25,-899.39 1247.64,-899.68 1250.98,-900.06 1254.26,-900.54 1257.47,-901.11 1260.58,-901.77 1263.6,-902.52 1266.5,-903.36 1269.28,-904.28 1271.93,-905.29 1274.43,-906.37 1276.79,-907.54 1278.98,-908.77 1281.02,-910.08 1282.88,-911.45 1284.56,-912.88 1286.07,-914.37 1287.4,-915.92 1288.54,-917.52 1289.5,-919.16 1290.28,-920.85 1290.88,-922.57 1291.29,-924.33 1291.53,-926.11 1291.6,-927.91 1291.49,-929.74 1291.22,-931.57 1290.79,-933.42 1290.21,-935.26 1289.47,-937.1 1288.6,-938.94 1287.6,-940.76 1286.47,-942.57 1285.22,-944.35 1283.86,-946.1 1282.4,-947.83 1280.84,-949.51 1279.19,-951.16 1277.46,-952.76 1275.66,-954.3 1273.79,-955.8 1271.86,-957.23 1269.88,-958.6 1267.84,-959.91 1265.77,-961.14 1263.66,-962.3 1261.52,-963.39 1259.34,-964.39 1257.15,-965.31 1254.93,-966.15 1252.7,-966.9 1250.45,-967.56 1248.19,-968.13 1245.92,-968.61 1243.64,-969 1241.36,-969.28 1239.07,-969.48 1236.78,-969.57 1234.49,-969.57 1232.21,-969.48 1229.92,-969.28 1227.64,-969 1225.36,-968.61 1223.09,-968.13 1220.83,-967.56 1218.58,-966.9 1216.35,-966.15 1214.13,-965.31 1211.94,-964.39 1209.76,-963.39 1207.62,-962.3 1205.51,-961.14 1203.43,-959.91 1201.4,-958.6 1199.42,-957.23 1197.49,-955.8 1195.62,-954.3 1193.82,-952.76 1192.09,-951.16 1190.44,-949.51 1188.88,-947.83 1187.42,-946.1 1186.06,-944.35 1184.81,-942.57 1183.68,-940.76 1182.68,-938.94 1181.8,-937.1 1181.07,-935.26 1180.49,-933.42 1180.06,-931.57 1179.79,-929.74 1179.68,-927.91 1179.75,-926.11 1179.99,-924.33 1180.4,-922.57 1181,-920.85 1181.77,-919.16 1182.74,-917.52 1183.88,-915.92 1185.21,-914.37 1186.72,-912.88 1188.4,-911.45 1190.26,-910.08 1192.3,-908.77 1194.49,-907.54 1196.85,-906.37 1199.35,-905.29 1202,-904.28 1204.78,-903.36 1207.68,-902.52 1210.7,-901.77 1213.81,-901.11 1217.02,-900.54 1220.3,-900.06 1223.64,-899.68 1227.03,-899.39 1230.46,-899.2 1233.91,-899.1 1237.37,-899.1 1240.82,-899.2"/>
<text text-anchor="start" x="1206.47" y="-944.14" font-family="Times,serif" font-size="14.00">C0600688</text>
<text text-anchor="start" x="1214.25" y="-930.14" font-family="Times,serif" font-size="14.00">toxicity</text>
<text text-anchor="start" x="1212.69" y="-916.14" font-family="Times,serif" font-size="14.00">309:309</text>
</g>
<!-- id_28362102_DOT_23&#45;&#45;id_28362102_DOT_26 -->
<g id="edge11" class="edge">
<title>id_28362102_DOT_23&#45;&#45;id_28362102_DOT_26</title>
<path fill="none" stroke="black" d="M1303.08,-1294.54C1289.04,-1219.53 1256.23,-1044.28 1242.19,-969.34"/>
<text text-anchor="middle" x="1246.39" y="-1134.74" font-family="Times,serif" font-size="14.00">0.004727</text>
</g>
</g>
</svg>
