<?xml version="1.0" encoding="UTF-8" standalone="no"?>
<!DOCTYPE svg PUBLIC "-//W3C//DTD SVG 1.1//EN"
 "http://www.w3.org/Graphics/SVG/1.1/DTD/svg11.dtd">
<!-- Generated by graphviz version 2.42.3 (20191010.1750)
 -->
<!-- Title: MST Pages: 1 -->
<svg width="1554pt" height="2570pt"
 viewBox="0.00 0.00 1553.76 2570.00" xmlns="http://www.w3.org/2000/svg" xmlns:xlink="http://www.w3.org/1999/xlink">
<g id="graph0" class="graph" transform="scale(1 1) rotate(0) translate(4 2566)">
<title>MST</title>
<polygon fill="white" stroke="transparent" points="-4,4 -4,-2566 1549.76,-2566 1549.76,4 -4,4"/>
<!-- id_28375952_DOT_1 -->
<g id="node1" class="node">
<title>id_28375952_DOT_1</title>
<polygon fill="aquamarine" stroke="aquamarine" points="706.68,-1401.38 714.04,-1401.57 721.32,-1401.86 728.5,-1402.24 735.54,-1402.72 742.42,-1403.29 749.11,-1403.95 755.59,-1404.7 761.82,-1405.54 767.79,-1406.46 773.47,-1407.47 778.85,-1408.55 783.9,-1409.71 788.62,-1410.95 792.98,-1412.25 796.97,-1413.62 800.59,-1415.06 803.83,-1416.55 806.68,-1418.1 809.14,-1419.7 811.2,-1421.34 812.87,-1423.03 814.15,-1424.75 815.04,-1426.5 815.56,-1428.29 815.69,-1430.09 815.47,-1431.91 814.89,-1433.75 813.96,-1435.59 812.71,-1437.44 811.14,-1439.28 809.27,-1441.12 807.11,-1442.94 804.68,-1444.74 802,-1446.53 799.08,-1448.28 795.94,-1450 792.59,-1451.69 789.06,-1453.33 785.35,-1454.93 781.48,-1456.48 777.46,-1457.97 773.32,-1459.41 769.06,-1460.78 764.7,-1462.08 760.25,-1463.32 755.72,-1464.48 751.11,-1465.56 746.45,-1466.57 741.74,-1467.49 736.98,-1468.33 732.18,-1469.08 727.35,-1469.74 722.5,-1470.31 717.63,-1470.79 712.74,-1471.17 707.84,-1471.46 702.93,-1471.65 698.02,-1471.75 693.1,-1471.75 688.19,-1471.65 683.28,-1471.46 678.38,-1471.17 673.49,-1470.79 668.62,-1470.31 663.77,-1469.74 658.94,-1469.08 654.15,-1468.33 649.39,-1467.49 644.67,-1466.57 640.01,-1465.56 635.41,-1464.48 630.87,-1463.32 626.42,-1462.08 622.06,-1460.78 617.8,-1459.41 613.66,-1457.97 609.65,-1456.48 605.78,-1454.93 602.07,-1453.33 598.53,-1451.69 595.18,-1450 592.04,-1448.28 589.12,-1446.53 586.44,-1444.74 584.01,-1442.94 581.85,-1441.12 579.98,-1439.28 578.41,-1437.44 577.16,-1435.59 576.24,-1433.75 575.66,-1431.91 575.43,-1430.09 575.57,-1428.29 576.08,-1426.5 576.97,-1424.75 578.25,-1423.03 579.92,-1421.34 581.98,-1419.7 584.44,-1418.1 587.29,-1416.55 590.53,-1415.06 594.15,-1413.62 598.14,-1412.25 602.51,-1410.95 607.22,-1409.71 612.28,-1408.55 617.65,-1407.47 623.34,-1406.46 629.3,-1405.54 635.54,-1404.7 642.01,-1403.95 648.7,-1403.29 655.58,-1402.72 662.62,-1402.24 669.8,-1401.86 677.08,-1401.57 684.44,-1401.38 691.85,-1401.28 699.27,-1401.28 706.68,-1401.38"/>
<text text-anchor="start" x="666.39" y="-1446.31" font-family="Times,serif" font-size="14.00">C0243095</text>
<text text-anchor="start" x="623.84" y="-1432.31" font-family="Times,serif" font-size="14.00">Interprofessional Barriers</text>
<text text-anchor="start" x="686.62" y="-1418.31" font-family="Times,serif" font-size="14.00">0:1</text>
</g>
<!-- id_28375952_DOT_4 -->
<g id="node4" class="node">
<title>id_28375952_DOT_4</title>
<polygon fill="aquamarine" stroke="aquamarine" points="736.17,-1024.53 743.4,-1024.72 750.55,-1025.01 757.6,-1025.39 764.51,-1025.87 771.27,-1026.44 777.83,-1027.1 784.19,-1027.85 790.31,-1028.69 796.17,-1029.61 801.75,-1030.62 807.03,-1031.7 811.99,-1032.86 816.62,-1034.1 820.9,-1035.4 824.82,-1036.77 828.38,-1038.21 831.56,-1039.7 834.36,-1041.25 836.77,-1042.85 838.8,-1044.49 840.44,-1046.18 841.69,-1047.9 842.57,-1049.65 843.07,-1051.44 843.2,-1053.24 842.98,-1055.06 842.41,-1056.9 841.5,-1058.74 840.27,-1060.59 838.73,-1062.43 836.9,-1064.27 834.78,-1066.09 832.4,-1067.89 829.76,-1069.68 826.9,-1071.43 823.81,-1073.15 820.52,-1074.84 817.05,-1076.48 813.41,-1078.08 809.61,-1079.63 805.67,-1081.12 801.6,-1082.56 797.42,-1083.93 793.14,-1085.23 788.77,-1086.47 784.32,-1087.63 779.8,-1088.71 775.22,-1089.72 770.59,-1090.64 765.92,-1091.48 761.21,-1092.23 756.47,-1092.89 751.71,-1093.46 746.92,-1093.94 742.12,-1094.32 737.31,-1094.61 732.49,-1094.8 727.67,-1094.9 722.84,-1094.9 718.02,-1094.8 713.2,-1094.61 708.39,-1094.32 703.59,-1093.94 698.81,-1093.46 694.04,-1092.89 689.3,-1092.23 684.59,-1091.48 679.92,-1090.64 675.29,-1089.72 670.71,-1088.71 666.19,-1087.63 661.74,-1086.47 657.37,-1085.23 653.09,-1083.93 648.91,-1082.56 644.84,-1081.12 640.9,-1079.63 637.1,-1078.08 633.46,-1076.48 629.99,-1074.84 626.7,-1073.15 623.62,-1071.43 620.75,-1069.68 618.12,-1067.89 615.73,-1066.09 613.62,-1064.27 611.78,-1062.43 610.24,-1060.59 609.01,-1058.74 608.1,-1056.9 607.53,-1055.06 607.31,-1053.24 607.44,-1051.44 607.94,-1049.65 608.82,-1047.9 610.08,-1046.18 611.72,-1044.49 613.74,-1042.85 616.15,-1041.25 618.95,-1039.7 622.13,-1038.21 625.69,-1036.77 629.61,-1035.4 633.89,-1034.1 638.52,-1032.86 643.48,-1031.7 648.76,-1030.62 654.34,-1029.61 660.2,-1028.69 666.32,-1027.85 672.68,-1027.1 679.25,-1026.44 686,-1025.87 692.92,-1025.39 699.96,-1025.01 707.12,-1024.72 714.34,-1024.53 721.61,-1024.43 728.9,-1024.43 736.17,-1024.53"/>
<text text-anchor="start" x="696.09" y="-1069.47" font-family="Times,serif" font-size="14.00">C0243095</text>
<text text-anchor="start" x="655.09" y="-1055.47" font-family="Times,serif" font-size="14.00">interprofessional barriers</text>
<text text-anchor="start" x="709.31" y="-1041.47" font-family="Times,serif" font-size="14.00">16:17</text>
</g>
<!-- id_28375952_DOT_1&#45;&#45;id_28375952_DOT_4 -->
<g id="edge1" class="edge">
<title>id_28375952_DOT_1&#45;&#45;id_28375952_DOT_4</title>
<path fill="none" stroke="black" d="M698.35,-1401.06C704.02,-1329.15 716.81,-1166.86 722.47,-1095.02"/>
<text text-anchor="middle" x="684.16" y="-1250.84" font-family="Times,serif" font-size="14.00">0.003325</text>
</g>
<!-- id_28375952_DOT_5 -->
<g id="node5" class="node">
<title>id_28375952_DOT_5</title>
<polygon fill="bisque" stroke="bisque" points="676.3,-1769.08 679.72,-1769.27 683.12,-1769.56 686.46,-1769.94 689.74,-1770.42 692.95,-1770.99 696.06,-1771.65 699.08,-1772.4 701.98,-1773.24 704.76,-1774.16 707.41,-1775.17 709.91,-1776.25 712.27,-1777.41 714.46,-1778.65 716.49,-1779.95 718.35,-1781.33 720.04,-1782.76 721.55,-1784.25 722.88,-1785.8 724.02,-1787.4 724.98,-1789.04 725.76,-1790.73 726.36,-1792.45 726.77,-1794.21 727.01,-1795.99 727.07,-1797.79 726.97,-1799.62 726.7,-1801.45 726.27,-1803.29 725.68,-1805.14 724.95,-1806.98 724.08,-1808.82 723.08,-1810.64 721.95,-1812.45 720.7,-1814.23 719.34,-1815.98 717.87,-1817.71 716.31,-1819.39 714.67,-1821.04 712.94,-1822.63 711.14,-1824.18 709.27,-1825.67 707.34,-1827.11 705.35,-1828.48 703.32,-1829.78 701.25,-1831.02 699.14,-1832.18 696.99,-1833.27 694.82,-1834.27 692.62,-1835.19 690.41,-1836.03 688.17,-1836.78 685.93,-1837.44 683.67,-1838.01 681.4,-1838.49 679.12,-1838.87 676.84,-1839.16 674.55,-1839.36 672.26,-1839.45 669.97,-1839.45 667.68,-1839.36 665.4,-1839.16 663.12,-1838.87 660.84,-1838.49 658.57,-1838.01 656.31,-1837.44 654.06,-1836.78 651.83,-1836.03 649.61,-1835.19 647.41,-1834.27 645.24,-1833.27 643.1,-1832.18 640.99,-1831.02 638.91,-1829.78 636.88,-1828.48 634.9,-1827.11 632.97,-1825.67 631.1,-1824.18 629.3,-1822.63 627.57,-1821.04 625.92,-1819.39 624.36,-1817.71 622.9,-1815.98 621.54,-1814.23 620.29,-1812.45 619.16,-1810.64 618.15,-1808.82 617.28,-1806.98 616.55,-1805.14 615.97,-1803.29 615.54,-1801.45 615.27,-1799.62 615.16,-1797.79 615.22,-1795.99 615.46,-1794.21 615.88,-1792.45 616.47,-1790.73 617.25,-1789.04 618.21,-1787.4 619.36,-1785.8 620.69,-1784.25 622.19,-1782.76 623.88,-1781.33 625.74,-1779.95 627.77,-1778.65 629.97,-1777.41 632.32,-1776.25 634.83,-1775.17 637.47,-1774.16 640.25,-1773.24 643.16,-1772.4 646.17,-1771.65 649.29,-1770.99 652.49,-1770.42 655.77,-1769.94 659.12,-1769.56 662.51,-1769.27 665.94,-1769.08 669.39,-1768.98 672.85,-1768.98 676.3,-1769.08"/>
<text text-anchor="start" x="641.95" y="-1814.02" font-family="Times,serif" font-size="14.00">C0028661</text>
<text text-anchor="start" x="653.23" y="-1800.02" font-family="Times,serif" font-size="14.00">nurses</text>
<text text-anchor="start" x="655.17" y="-1786.02" font-family="Times,serif" font-size="14.00">19:19</text>
</g>
<!-- id_28375952_DOT_1&#45;&#45;id_28375952_DOT_5 -->
<g id="edge6" class="edge">
<title>id_28375952_DOT_1&#45;&#45;id_28375952_DOT_5</title>
<path fill="none" stroke="black" stroke-dasharray="1,5" d="M693.22,-1471.77C688.55,-1541.96 678.15,-1698.47 673.47,-1768.8"/>
<text text-anchor="middle" x="657.09" y="-1623.08" font-family="Times,serif" font-size="14.00">0.991942</text>
</g>
<!-- id_28375952_DOT_2 -->
<g id="node2" class="node">
<title>id_28375952_DOT_2</title>
<polygon fill="bisque" stroke="bisque" points="755.25,-2491.49 758.68,-2491.69 762.07,-2491.97 765.42,-2492.36 768.7,-2492.84 771.9,-2493.41 775.02,-2494.07 778.03,-2494.82 780.94,-2495.66 783.72,-2496.58 786.36,-2497.58 788.87,-2498.67 791.22,-2499.83 793.42,-2501.06 795.45,-2502.37 797.31,-2503.74 799,-2505.17 800.51,-2506.67 801.83,-2508.22 802.98,-2509.81 803.94,-2511.46 804.72,-2513.14 805.31,-2514.87 805.73,-2516.62 805.97,-2518.4 806.03,-2520.21 805.92,-2522.03 805.65,-2523.87 805.22,-2525.71 804.64,-2527.55 803.91,-2529.4 803.04,-2531.23 802.03,-2533.06 800.9,-2534.86 799.65,-2536.64 798.29,-2538.4 796.83,-2540.12 795.27,-2541.81 793.62,-2543.45 791.89,-2545.05 790.09,-2546.6 788.22,-2548.09 786.29,-2549.52 784.31,-2550.89 782.28,-2552.2 780.21,-2553.43 778.09,-2554.6 775.95,-2555.68 773.78,-2556.69 771.58,-2557.61 769.36,-2558.45 767.13,-2559.2 764.88,-2559.86 762.62,-2560.43 760.35,-2560.91 758.08,-2561.29 755.79,-2561.58 753.51,-2561.77 751.22,-2561.87 748.93,-2561.87 746.64,-2561.77 744.35,-2561.58 742.07,-2561.29 739.8,-2560.91 737.53,-2560.43 735.27,-2559.86 733.02,-2559.2 730.78,-2558.45 728.57,-2557.61 726.37,-2556.69 724.2,-2555.68 722.05,-2554.6 719.94,-2553.43 717.87,-2552.2 715.84,-2550.89 713.85,-2549.52 711.92,-2548.09 710.06,-2546.6 708.25,-2545.05 706.52,-2543.45 704.88,-2541.81 703.32,-2540.12 701.85,-2538.4 700.49,-2536.64 699.25,-2534.86 698.11,-2533.06 697.11,-2531.23 696.24,-2529.4 695.51,-2527.55 694.92,-2525.71 694.49,-2523.87 694.22,-2522.03 694.12,-2520.21 694.18,-2518.4 694.42,-2516.62 694.84,-2514.87 695.43,-2513.14 696.21,-2511.46 697.17,-2509.81 698.31,-2508.22 699.64,-2506.67 701.15,-2505.17 702.84,-2503.74 704.7,-2502.37 706.73,-2501.06 708.93,-2499.83 711.28,-2498.67 713.78,-2497.58 716.43,-2496.58 719.21,-2495.66 722.11,-2494.82 725.13,-2494.07 728.25,-2493.41 731.45,-2492.84 734.73,-2492.36 738.07,-2491.97 741.47,-2491.69 744.9,-2491.49 748.35,-2491.4 751.8,-2491.4 755.25,-2491.49"/>
<text text-anchor="start" x="720.9" y="-2536.43" font-family="Times,serif" font-size="14.00">C0028661</text>
<text text-anchor="start" x="730.63" y="-2522.43" font-family="Times,serif" font-size="14.00">Nurses</text>
<text text-anchor="start" x="734.13" y="-2508.43" font-family="Times,serif" font-size="14.00">10:10</text>
</g>
<!-- id_28375952_DOT_7 -->
<g id="node7" class="node">
<title>id_28375952_DOT_7</title>
<polygon fill="bisque" stroke="bisque" points="687.94,-2134.49 691.37,-2134.69 694.76,-2134.98 698.11,-2135.36 701.39,-2135.84 704.59,-2136.41 707.71,-2137.07 710.72,-2137.82 713.63,-2138.66 716.41,-2139.58 719.05,-2140.59 721.56,-2141.67 723.91,-2142.83 726.11,-2144.07 728.14,-2145.37 730,-2146.74 731.69,-2148.18 733.2,-2149.67 734.52,-2151.22 735.67,-2152.82 736.63,-2154.46 737.41,-2156.15 738,-2157.87 738.42,-2159.62 738.66,-2161.41 738.72,-2163.21 738.62,-2165.03 738.34,-2166.87 737.91,-2168.71 737.33,-2170.56 736.6,-2172.4 735.73,-2174.23 734.72,-2176.06 733.59,-2177.86 732.34,-2179.64 730.98,-2181.4 729.52,-2183.12 727.96,-2184.81 726.31,-2186.45 724.59,-2188.05 722.78,-2189.6 720.91,-2191.09 718.98,-2192.53 717,-2193.9 714.97,-2195.2 712.9,-2196.44 710.78,-2197.6 708.64,-2198.68 706.47,-2199.69 704.27,-2200.61 702.06,-2201.45 699.82,-2202.2 697.57,-2202.86 695.31,-2203.43 693.04,-2203.91 690.77,-2204.29 688.48,-2204.58 686.2,-2204.77 683.91,-2204.87 681.62,-2204.87 679.33,-2204.77 677.05,-2204.58 674.76,-2204.29 672.49,-2203.91 670.22,-2203.43 667.96,-2202.86 665.71,-2202.2 663.47,-2201.45 661.26,-2200.61 659.06,-2199.69 656.89,-2198.68 654.74,-2197.6 652.63,-2196.44 650.56,-2195.2 648.53,-2193.9 646.54,-2192.53 644.61,-2191.09 642.75,-2189.6 640.94,-2188.05 639.22,-2186.45 637.57,-2184.81 636.01,-2183.12 634.55,-2181.4 633.18,-2179.64 631.94,-2177.86 630.81,-2176.06 629.8,-2174.23 628.93,-2172.4 628.2,-2170.56 627.61,-2168.71 627.18,-2166.87 626.91,-2165.03 626.81,-2163.21 626.87,-2161.41 627.11,-2159.62 627.53,-2157.87 628.12,-2156.15 628.9,-2154.46 629.86,-2152.82 631.01,-2151.22 632.33,-2149.67 633.84,-2148.18 635.53,-2146.74 637.39,-2145.37 639.42,-2144.07 641.62,-2142.83 643.97,-2141.67 646.48,-2140.59 649.12,-2139.58 651.9,-2138.66 654.81,-2137.82 657.82,-2137.07 660.94,-2136.41 664.14,-2135.84 667.42,-2135.36 670.77,-2134.98 674.16,-2134.69 677.59,-2134.49 681.04,-2134.4 684.49,-2134.4 687.94,-2134.49"/>
<text text-anchor="start" x="653.6" y="-2179.43" font-family="Times,serif" font-size="14.00">C0028661</text>
<text text-anchor="start" x="664.88" y="-2165.43" font-family="Times,serif" font-size="14.00">nurses</text>
<text text-anchor="start" x="666.82" y="-2151.43" font-family="Times,serif" font-size="14.00">34:34</text>
</g>
<!-- id_28375952_DOT_2&#45;&#45;id_28375952_DOT_7 -->
<g id="edge2" class="edge">
<title>id_28375952_DOT_2&#45;&#45;id_28375952_DOT_7</title>
<path fill="none" stroke="black" d="M743.44,-2491.42C730.53,-2423 702.21,-2272.8 689.35,-2204.58"/>
<text text-anchor="middle" x="690.14" y="-2350.8" font-family="Times,serif" font-size="14.00">0.003761</text>
</g>
<!-- id_28375952_DOT_3 -->
<g id="node3" class="node">
<title>id_28375952_DOT_3</title>
<polygon fill="blue" stroke="blue" points="1155.44,-0.23 1158.95,-0.42 1162.43,-0.71 1165.85,-1.09 1169.21,-1.57 1172.49,-2.14 1175.68,-2.8 1178.77,-3.55 1181.74,-4.39 1184.59,-5.31 1187.3,-6.32 1189.86,-7.4 1192.27,-8.57 1194.52,-9.8 1196.6,-11.1 1198.51,-12.48 1200.24,-13.91 1201.78,-15.4 1203.14,-16.95 1204.31,-18.55 1205.3,-20.19 1206.09,-21.88 1206.7,-23.6 1207.13,-25.36 1207.37,-27.14 1207.44,-28.94 1207.33,-30.77 1207.05,-32.6 1206.61,-34.44 1206.01,-36.29 1205.26,-38.13 1204.37,-39.97 1203.34,-41.79 1202.19,-43.6 1200.91,-45.38 1199.51,-47.13 1198.02,-48.86 1196.42,-50.54 1194.73,-52.19 1192.96,-53.78 1191.12,-55.33 1189.2,-56.82 1187.23,-58.26 1185.2,-59.63 1183.12,-60.94 1180.99,-62.17 1178.83,-63.33 1176.64,-64.42 1174.41,-65.42 1172.16,-66.34 1169.89,-67.18 1167.61,-67.93 1165.31,-68.59 1162.99,-69.16 1160.67,-69.64 1158.34,-70.02 1156,-70.31 1153.66,-70.51 1151.31,-70.6 1148.97,-70.6 1146.63,-70.51 1144.29,-70.31 1141.95,-70.02 1139.62,-69.64 1137.29,-69.16 1134.98,-68.59 1132.68,-67.93 1130.39,-67.18 1128.12,-66.34 1125.87,-65.42 1123.65,-64.42 1121.45,-63.33 1119.29,-62.17 1117.17,-60.94 1115.09,-59.63 1113.06,-58.26 1111.08,-56.82 1109.17,-55.33 1107.32,-53.78 1105.55,-52.19 1103.87,-50.54 1102.27,-48.86 1100.77,-47.13 1099.38,-45.38 1098.1,-43.6 1096.94,-41.79 1095.91,-39.97 1095.02,-38.13 1094.27,-36.29 1093.67,-34.44 1093.23,-32.6 1092.96,-30.77 1092.85,-28.94 1092.91,-27.14 1093.16,-25.36 1093.58,-23.6 1094.19,-21.88 1094.99,-20.19 1095.97,-18.55 1097.15,-16.95 1098.51,-15.4 1100.05,-13.91 1101.78,-12.48 1103.68,-11.1 1105.76,-9.8 1108.01,-8.57 1110.42,-7.4 1112.99,-6.32 1115.7,-5.31 1118.54,-4.39 1121.52,-3.55 1124.6,-2.8 1127.79,-2.14 1131.07,-1.57 1134.43,-1.09 1137.86,-0.71 1141.33,-0.42 1144.84,-0.23 1148.37,-0.13 1151.91,-0.13 1155.44,-0.23"/>
<text text-anchor="start" x="1120.97" y="-45.17" font-family="Times,serif" font-size="14.00">C0031831</text>
<text text-anchor="start" x="1120.2" y="-31.17" font-family="Times,serif" font-size="14.00">Physicians</text>
<text text-anchor="start" x="1134.2" y="-17.17" font-family="Times,serif" font-size="14.00">12:12</text>
</g>
<!-- id_28375952_DOT_6 -->
<g id="node6" class="node">
<title>id_28375952_DOT_6</title>
<polygon fill="blue" stroke="blue" points="1097.1,-393.11 1100.56,-393.3 1104,-393.59 1107.38,-393.98 1110.7,-394.45 1113.94,-395.02 1117.09,-395.69 1120.14,-396.44 1123.08,-397.27 1125.89,-398.2 1128.57,-399.2 1131.1,-400.29 1133.49,-401.45 1135.71,-402.68 1137.76,-403.99 1139.65,-405.36 1141.35,-406.79 1142.88,-408.29 1144.22,-409.83 1145.38,-411.43 1146.35,-413.08 1147.14,-414.76 1147.74,-416.48 1148.16,-418.24 1148.4,-420.02 1148.47,-421.83 1148.36,-423.65 1148.09,-425.48 1147.65,-427.33 1147.06,-429.17 1146.32,-431.02 1145.44,-432.85 1144.42,-434.67 1143.28,-436.48 1142.02,-438.26 1140.64,-440.02 1139.16,-441.74 1137.58,-443.42 1135.92,-445.07 1134.17,-446.67 1132.34,-448.21 1130.45,-449.71 1128.5,-451.14 1126.49,-452.51 1124.44,-453.82 1122.34,-455.05 1120.2,-456.21 1118.04,-457.3 1115.84,-458.3 1113.62,-459.23 1111.37,-460.06 1109.11,-460.81 1106.84,-461.48 1104.55,-462.05 1102.26,-462.52 1099.95,-462.91 1097.64,-463.2 1095.33,-463.39 1093.02,-463.49 1090.7,-463.49 1088.38,-463.39 1086.07,-463.2 1083.76,-462.91 1081.46,-462.52 1079.16,-462.05 1076.88,-461.48 1074.6,-460.81 1072.34,-460.06 1070.1,-459.23 1067.88,-458.3 1065.68,-457.3 1063.51,-456.21 1061.37,-455.05 1059.28,-453.82 1057.22,-452.51 1055.21,-451.14 1053.26,-449.71 1051.37,-448.21 1049.55,-446.67 1047.8,-445.07 1046.13,-443.42 1044.56,-441.74 1043.08,-440.02 1041.7,-438.26 1040.44,-436.48 1039.29,-434.67 1038.28,-432.85 1037.39,-431.02 1036.65,-429.17 1036.06,-427.33 1035.63,-425.48 1035.36,-423.65 1035.25,-421.83 1035.31,-420.02 1035.55,-418.24 1035.97,-416.48 1036.58,-414.76 1037.36,-413.08 1038.34,-411.43 1039.49,-409.83 1040.84,-408.29 1042.36,-406.79 1044.07,-405.36 1045.95,-403.99 1048.01,-402.68 1050.23,-401.45 1052.61,-400.29 1055.15,-399.2 1057.82,-398.2 1060.64,-397.27 1063.57,-396.44 1066.62,-395.69 1069.78,-395.02 1073.02,-394.45 1076.34,-393.98 1079.72,-393.59 1083.15,-393.3 1086.62,-393.11 1090.11,-393.01 1093.61,-393.01 1097.1,-393.11"/>
<text text-anchor="start" x="1062.69" y="-438.05" font-family="Times,serif" font-size="14.00">C0031831</text>
<text text-anchor="start" x="1062.31" y="-424.05" font-family="Times,serif" font-size="14.00">physicians</text>
<text text-anchor="start" x="1075.91" y="-410.05" font-family="Times,serif" font-size="14.00">21:21</text>
</g>
<!-- id_28375952_DOT_3&#45;&#45;id_28375952_DOT_6 -->
<g id="edge3" class="edge">
<title>id_28375952_DOT_3&#45;&#45;id_28375952_DOT_6</title>
<path fill="none" stroke="black" d="M1144.92,-70.58C1133.85,-145.16 1108.16,-318.34 1097.09,-392.98"/>
<text text-anchor="middle" x="1094.75" y="-234.58" font-family="Times,serif" font-size="14.00">0.001461</text>
</g>
<!-- id_28375952_DOT_10 -->
<g id="node10" class="node">
<title>id_28375952_DOT_10</title>
<polygon fill="brown" stroke="brown" points="748.91,-622.97 752.34,-623.16 755.73,-623.45 759.07,-623.84 762.35,-624.31 765.56,-624.88 768.67,-625.54 771.69,-626.29 774.59,-627.13 777.37,-628.06 780.02,-629.06 782.52,-630.15 784.88,-631.31 787.07,-632.54 789.11,-633.85 790.97,-635.22 792.65,-636.65 794.16,-638.14 795.49,-639.69 796.63,-641.29 797.6,-642.93 798.37,-644.62 798.97,-646.34 799.39,-648.1 799.62,-649.88 799.69,-651.69 799.58,-653.51 799.31,-655.34 798.88,-657.19 798.3,-659.03 797.57,-660.87 796.69,-662.71 795.69,-664.53 794.56,-666.34 793.31,-668.12 791.95,-669.87 790.49,-671.6 788.93,-673.28 787.28,-674.93 785.55,-676.53 783.75,-678.07 781.88,-679.57 779.95,-681 777.97,-682.37 775.94,-683.68 773.86,-684.91 771.75,-686.07 769.61,-687.16 767.43,-688.16 765.24,-689.08 763.02,-689.92 760.79,-690.67 758.54,-691.33 756.28,-691.9 754.01,-692.38 751.73,-692.77 749.45,-693.05 747.16,-693.25 744.88,-693.34 742.59,-693.34 740.3,-693.25 738.01,-693.05 735.73,-692.77 733.45,-692.38 731.18,-691.9 728.92,-691.33 726.67,-690.67 724.44,-689.92 722.22,-689.08 720.03,-688.16 717.85,-687.16 715.71,-686.07 713.6,-684.91 711.53,-683.68 709.49,-682.37 707.51,-681 705.58,-679.57 703.71,-678.07 701.91,-676.53 700.18,-674.93 698.53,-673.28 696.97,-671.6 695.51,-669.87 694.15,-668.12 692.9,-666.34 691.77,-664.53 690.77,-662.71 689.9,-660.87 689.16,-659.03 688.58,-657.19 688.15,-655.34 687.88,-653.51 687.77,-651.69 687.84,-649.88 688.08,-648.1 688.49,-646.34 689.09,-644.62 689.87,-642.93 690.83,-641.29 691.97,-639.69 693.3,-638.14 694.81,-636.65 696.49,-635.22 698.36,-633.85 700.39,-632.54 702.58,-631.31 704.94,-630.15 707.44,-629.06 710.09,-628.06 712.87,-627.13 715.77,-626.29 718.79,-625.54 721.9,-624.88 725.11,-624.31 728.39,-623.84 731.73,-623.45 735.12,-623.16 738.55,-622.97 742,-622.87 745.46,-622.87 748.91,-622.97"/>
<text text-anchor="start" x="714.56" y="-667.91" font-family="Times,serif" font-size="14.00">C0019994</text>
<text text-anchor="start" x="718.84" y="-653.91" font-family="Times,serif" font-size="14.00">hospitals</text>
<text text-anchor="start" x="727.79" y="-639.91" font-family="Times,serif" font-size="14.00">42:42</text>
</g>
<!-- id_28375952_DOT_4&#45;&#45;id_28375952_DOT_10 -->
<g id="edge7" class="edge">
<title>id_28375952_DOT_4&#45;&#45;id_28375952_DOT_10</title>
<path fill="none" stroke="black" stroke-dasharray="1,5" d="M726.88,-1024.38C730.38,-948.31 738.6,-769.59 742.1,-693.46"/>
<text text-anchor="middle" x="708.24" y="-861.72" font-family="Times,serif" font-size="14.00">0.942903</text>
</g>
<!-- id_28375952_DOT_5&#45;&#45;id_28375952_DOT_7 -->
<g id="edge4" class="edge">
<title>id_28375952_DOT_5&#45;&#45;id_28375952_DOT_7</title>
<path fill="none" stroke="black" d="M672.24,-1839.59C674.47,-1909.44 679.41,-2064.37 681.64,-2134.24"/>
<text text-anchor="middle" x="650.69" y="-1989.72" font-family="Times,serif" font-size="14.00">0.000668</text>
</g>
<!-- id_28375952_DOT_8 -->
<g id="node8" class="node">
<title>id_28375952_DOT_8</title>
<polygon fill="blue" stroke="blue" points="1494.44,-423.2 1497.91,-423.4 1501.34,-423.68 1504.72,-424.07 1508.04,-424.55 1511.28,-425.12 1514.44,-425.78 1517.49,-426.53 1520.42,-427.36 1523.24,-428.29 1525.91,-429.29 1528.45,-430.38 1530.83,-431.54 1533.05,-432.77 1535.11,-434.08 1536.99,-435.45 1538.7,-436.88 1540.22,-438.38 1541.56,-439.92 1542.72,-441.52 1543.69,-443.17 1544.48,-444.85 1545.08,-446.58 1545.51,-448.33 1545.75,-450.11 1545.81,-451.92 1545.7,-453.74 1545.43,-455.58 1544.99,-457.42 1544.4,-459.26 1543.66,-461.11 1542.78,-462.94 1541.77,-464.76 1540.62,-466.57 1539.36,-468.35 1537.98,-470.11 1536.5,-471.83 1534.93,-473.52 1533.26,-475.16 1531.51,-476.76 1529.69,-478.31 1527.8,-479.8 1525.84,-481.23 1523.84,-482.6 1521.78,-483.91 1519.68,-485.14 1517.55,-486.3 1515.38,-487.39 1513.18,-488.39 1510.96,-489.32 1508.72,-490.15 1506.46,-490.91 1504.18,-491.57 1501.9,-492.14 1499.6,-492.61 1497.3,-493 1494.99,-493.29 1492.67,-493.48 1490.36,-493.58 1488.04,-493.58 1485.73,-493.48 1483.41,-493.29 1481.11,-493 1478.8,-492.61 1476.51,-492.14 1474.22,-491.57 1471.95,-490.91 1469.69,-490.15 1467.44,-489.32 1465.22,-488.39 1463.02,-487.39 1460.85,-486.3 1458.72,-485.14 1456.62,-483.91 1454.56,-482.6 1452.56,-481.23 1450.61,-479.8 1448.72,-478.31 1446.89,-476.76 1445.14,-475.16 1443.48,-473.52 1441.9,-471.83 1440.42,-470.11 1439.04,-468.35 1437.78,-466.57 1436.64,-464.76 1435.62,-462.94 1434.74,-461.11 1434,-459.26 1433.41,-457.42 1432.97,-455.58 1432.7,-453.74 1432.59,-451.92 1432.66,-450.11 1432.9,-448.33 1433.32,-446.58 1433.92,-444.85 1434.71,-443.17 1435.68,-441.52 1436.84,-439.92 1438.18,-438.38 1439.71,-436.88 1441.41,-435.45 1443.3,-434.08 1445.35,-432.77 1447.57,-431.54 1449.95,-430.38 1452.49,-429.29 1455.17,-428.29 1457.98,-427.36 1460.92,-426.53 1463.97,-425.78 1467.12,-425.12 1470.36,-424.55 1473.68,-424.07 1477.06,-423.68 1480.49,-423.4 1483.96,-423.2 1487.45,-423.11 1490.95,-423.11 1494.44,-423.2"/>
<text text-anchor="start" x="1460.03" y="-468.14" font-family="Times,serif" font-size="14.00">C0031831</text>
<text text-anchor="start" x="1459.65" y="-454.14" font-family="Times,serif" font-size="14.00">physicians</text>
<text text-anchor="start" x="1473.26" y="-440.14" font-family="Times,serif" font-size="14.00">37:37</text>
</g>
<!-- id_28375952_DOT_6&#45;&#45;id_28375952_DOT_8 -->
<g id="edge5" class="edge">
<title>id_28375952_DOT_6&#45;&#45;id_28375952_DOT_8</title>
<path fill="none" stroke="black" d="M1145.86,-432.34C1220.87,-438.02 1355.97,-448.25 1432.43,-454.04"/>
<text text-anchor="middle" x="1262.89" y="-445.99" font-family="Times,serif" font-size="14.00">0.000878</text>
</g>
<!-- id_28375952_DOT_6&#45;&#45;id_28375952_DOT_10 -->
<g id="edge8" class="edge">
<title>id_28375952_DOT_6&#45;&#45;id_28375952_DOT_10</title>
<path fill="none" stroke="black" stroke-dasharray="1,5" d="M1055.91,-451.98C990.77,-495 853.58,-585.58 784.83,-630.97"/>
<text text-anchor="middle" x="894.12" y="-544.28" font-family="Times,serif" font-size="14.00">1.063133</text>
</g>
<!-- id_28375952_DOT_9 -->
<g id="node9" class="node">
<title>id_28375952_DOT_9</title>
<polygon fill="blueviolet" stroke="blueviolet" points="386.67,-431 390.45,-431.19 394.19,-431.48 397.87,-431.86 401.48,-432.34 405.01,-432.91 408.44,-433.57 411.76,-434.32 414.96,-435.16 418.02,-436.08 420.94,-437.09 423.69,-438.17 426.29,-439.33 428.7,-440.57 430.94,-441.87 432.99,-443.24 434.85,-444.68 436.51,-446.17 437.97,-447.72 439.23,-449.32 440.29,-450.96 441.15,-452.65 441.8,-454.37 442.26,-456.12 442.52,-457.91 442.59,-459.71 442.48,-461.53 442.18,-463.37 441.71,-465.21 441.06,-467.06 440.26,-468.9 439.3,-470.74 438.19,-472.56 436.95,-474.36 435.57,-476.15 434.07,-477.9 432.46,-479.62 430.74,-481.31 428.93,-482.95 427.03,-484.55 425.04,-486.1 422.98,-487.59 420.86,-489.03 418.68,-490.4 416.44,-491.7 414.15,-492.94 411.83,-494.1 409.47,-495.18 407.08,-496.19 404.66,-497.11 402.22,-497.95 399.76,-498.7 397.28,-499.36 394.79,-499.93 392.29,-500.41 389.78,-500.79 387.27,-501.08 384.75,-501.27 382.23,-501.37 379.71,-501.37 377.19,-501.27 374.67,-501.08 372.16,-500.79 369.65,-500.41 367.15,-499.93 364.66,-499.36 362.19,-498.7 359.73,-497.95 357.29,-497.11 354.87,-496.19 352.48,-495.18 350.12,-494.1 347.79,-492.94 345.51,-491.7 343.27,-490.4 341.08,-489.03 338.96,-487.59 336.9,-486.1 334.92,-484.55 333.01,-482.95 331.2,-481.31 329.48,-479.62 327.87,-477.9 326.37,-476.15 325,-474.36 323.75,-472.56 322.65,-470.74 321.69,-468.9 320.88,-467.06 320.24,-465.21 319.77,-463.37 319.47,-461.53 319.35,-459.71 319.42,-457.91 319.68,-456.12 320.14,-454.37 320.8,-452.65 321.65,-450.96 322.71,-449.32 323.97,-447.72 325.43,-446.17 327.1,-444.68 328.95,-443.24 331,-441.87 333.24,-440.57 335.66,-439.33 338.25,-438.17 341.01,-437.09 343.92,-436.08 346.99,-435.16 350.18,-434.32 353.5,-433.57 356.93,-432.91 360.46,-432.34 364.08,-431.86 367.76,-431.48 371.49,-431.19 375.27,-431 379.07,-430.9 382.88,-430.9 386.67,-431"/>
<text text-anchor="start" x="351.8" y="-475.93" font-family="Times,serif" font-size="14.00">C0018260</text>
<text text-anchor="start" x="347.93" y="-461.93" font-family="Times,serif" font-size="14.00">interviewed</text>
<text text-anchor="start" x="365.03" y="-447.93" font-family="Times,serif" font-size="14.00">39:39</text>
</g>
<!-- id_28375952_DOT_9&#45;&#45;id_28375952_DOT_10 -->
<g id="edge9" class="edge">
<title>id_28375952_DOT_9&#45;&#45;id_28375952_DOT_10</title>
<path fill="none" stroke="black" stroke-dasharray="1,5" d="M422.59,-488.16C491.07,-524.4 627.01,-596.34 698.06,-633.94"/>
<text text-anchor="middle" x="534.07" y="-563.85" font-family="Times,serif" font-size="14.00">0.848462</text>
</g>
<!-- id_28375952_DOT_11 -->
<g id="node11" class="node">
<title>id_28375952_DOT_11</title>
<polygon fill="cadetblue" stroke="cadetblue" points="61.16,-231.74 64.58,-231.93 67.98,-232.22 71.32,-232.6 74.6,-233.08 77.81,-233.65 80.92,-234.31 83.94,-235.06 86.84,-235.9 89.62,-236.82 92.27,-237.83 94.77,-238.91 97.13,-240.08 99.32,-241.31 101.35,-242.61 103.22,-243.99 104.9,-245.42 106.41,-246.91 107.74,-248.46 108.88,-250.06 109.84,-251.7 110.62,-253.39 111.22,-255.11 111.63,-256.87 111.87,-258.65 111.93,-260.45 111.83,-262.28 111.56,-264.11 111.13,-265.96 110.54,-267.8 109.81,-269.64 108.94,-271.48 107.94,-273.3 106.81,-275.11 105.56,-276.89 104.2,-278.64 102.73,-280.37 101.18,-282.05 99.53,-283.7 97.8,-285.29 96,-286.84 94.13,-288.34 92.2,-289.77 90.22,-291.14 88.18,-292.45 86.11,-293.68 84,-294.84 81.85,-295.93 79.68,-296.93 77.49,-297.85 75.27,-298.69 73.04,-299.44 70.79,-300.1 68.53,-300.67 66.26,-301.15 63.98,-301.54 61.7,-301.82 59.41,-302.02 57.12,-302.11 54.83,-302.11 52.55,-302.02 50.26,-301.82 47.98,-301.54 45.7,-301.15 43.43,-300.67 41.17,-300.1 38.92,-299.44 36.69,-298.69 34.47,-297.85 32.27,-296.93 30.1,-295.93 27.96,-294.84 25.85,-293.68 23.77,-292.45 21.74,-291.14 19.76,-289.77 17.83,-288.34 15.96,-286.84 14.16,-285.29 12.43,-283.7 10.78,-282.05 9.22,-280.37 7.76,-278.64 6.4,-276.89 5.15,-275.11 4.02,-273.3 3.01,-271.48 2.14,-269.64 1.41,-267.8 0.83,-265.96 0.4,-264.11 0.13,-262.28 0.02,-260.45 0.09,-258.65 0.32,-256.87 0.74,-255.11 1.34,-253.39 2.11,-251.7 3.07,-250.06 4.22,-248.46 5.55,-246.91 7.05,-245.42 8.74,-243.99 10.6,-242.61 12.63,-241.31 14.83,-240.08 17.18,-238.91 19.69,-237.83 22.34,-236.82 25.12,-235.9 28.02,-235.06 31.03,-234.31 34.15,-233.65 37.35,-233.08 40.64,-232.6 43.98,-232.22 47.37,-231.93 50.8,-231.74 54.25,-231.64 57.71,-231.64 61.16,-231.74"/>
<text text-anchor="start" x="26.81" y="-276.68" font-family="Times,serif" font-size="14.00">C0038995</text>
<text text-anchor="start" x="33.82" y="-262.68" font-family="Times,serif" font-size="14.00">Sweden</text>
<text text-anchor="start" x="40.03" y="-248.68" font-family="Times,serif" font-size="14.00">44:44</text>
</g>
<!-- id_28375952_DOT_9&#45;&#45;id_28375952_DOT_11 -->
<g id="edge10" class="edge">
<title>id_28375952_DOT_9&#45;&#45;id_28375952_DOT_11</title>
<path fill="none" stroke="black" stroke-dasharray="1,5" d="M336.46,-438.85C271.79,-399.2 153.03,-326.38 92.92,-289.53"/>
<text text-anchor="middle" x="188.44" y="-366.99" font-family="Times,serif" font-size="14.00">0.891678</text>
</g>
</g>
</svg>
