<?xml version="1.0" encoding="UTF-8" standalone="no"?>
<!DOCTYPE svg PUBLIC "-//W3C//DTD SVG 1.1//EN"
 "http://www.w3.org/Graphics/SVG/1.1/DTD/svg11.dtd">
<!-- Generated by graphviz version 2.42.3 (20191010.1750)
 -->
<!-- Title: MST Pages: 1 -->
<svg width="4847pt" height="3235pt"
 viewBox="0.00 0.00 4847.29 3234.57" xmlns="http://www.w3.org/2000/svg" xmlns:xlink="http://www.w3.org/1999/xlink">
<g id="graph0" class="graph" transform="scale(1 1) rotate(0) translate(4 3230.57)">
<title>MST</title>
<polygon fill="white" stroke="transparent" points="-4,4 -4,-3230.57 4843.29,-3230.57 4843.29,4 -4,4"/>
<!-- id_28429154_DOT_1 -->
<g id="node1" class="node">
<title>id_28429154_DOT_1</title>
<polygon fill="aquamarine" stroke="aquamarine" points="97.92,-1601.8 103.42,-1601.99 108.86,-1602.28 114.22,-1602.66 119.48,-1603.14 124.62,-1603.71 129.62,-1604.37 134.46,-1605.12 139.11,-1605.96 143.57,-1606.88 147.81,-1607.89 151.83,-1608.97 155.61,-1610.13 159.13,-1611.37 162.39,-1612.67 165.37,-1614.04 168.08,-1615.48 170.49,-1616.97 172.62,-1618.52 174.46,-1620.12 176,-1621.76 177.25,-1623.45 178.2,-1625.17 178.87,-1626.92 179.25,-1628.71 179.35,-1630.51 179.18,-1632.33 178.75,-1634.17 178.06,-1636.01 177.12,-1637.86 175.95,-1639.7 174.55,-1641.54 172.94,-1643.36 171.13,-1645.16 169.13,-1646.95 166.95,-1648.7 164.6,-1650.42 162.1,-1652.11 159.46,-1653.75 156.69,-1655.35 153.8,-1656.9 150.8,-1658.39 147.7,-1659.83 144.52,-1661.2 141.26,-1662.5 137.94,-1663.74 134.55,-1664.9 131.11,-1665.98 127.63,-1666.99 124.11,-1667.91 120.55,-1668.75 116.97,-1669.5 113.37,-1670.16 109.74,-1670.73 106.1,-1671.21 102.45,-1671.59 98.79,-1671.88 95.12,-1672.07 91.45,-1672.17 87.78,-1672.17 84.11,-1672.07 80.45,-1671.88 76.79,-1671.59 73.13,-1671.21 69.49,-1670.73 65.87,-1670.16 62.26,-1669.5 58.68,-1668.75 55.13,-1667.91 51.6,-1666.99 48.12,-1665.98 44.68,-1664.9 41.3,-1663.74 37.97,-1662.5 34.71,-1661.2 31.53,-1659.83 28.44,-1658.39 25.44,-1656.9 22.55,-1655.35 19.78,-1653.75 17.14,-1652.11 14.64,-1650.42 12.29,-1648.7 10.11,-1646.95 8.11,-1645.16 6.29,-1643.36 4.68,-1641.54 3.28,-1639.7 2.11,-1637.86 1.18,-1636.01 0.49,-1634.17 0.05,-1632.33 -0.12,-1630.51 -0.02,-1628.71 0.37,-1626.92 1.03,-1625.17 1.99,-1623.45 3.24,-1621.76 4.78,-1620.12 6.61,-1618.52 8.74,-1616.97 11.16,-1615.48 13.87,-1614.04 16.85,-1612.67 20.11,-1611.37 23.63,-1610.13 27.41,-1608.97 31.42,-1607.89 35.67,-1606.88 40.12,-1605.96 44.78,-1605.12 49.62,-1604.37 54.61,-1603.71 59.75,-1603.14 65.01,-1602.66 70.38,-1602.28 75.82,-1601.99 81.31,-1601.8 86.85,-1601.7 92.39,-1601.7 97.92,-1601.8"/>
<text text-anchor="start" x="60.45" y="-1646.73" font-family="Times,serif" font-size="14.00">C0027923</text>
<text text-anchor="start" x="38.11" y="-1632.73" font-family="Times,serif" font-size="14.00">Neurospora crassa</text>
<text text-anchor="start" x="80.67" y="-1618.73" font-family="Times,serif" font-size="14.00">2:3</text>
</g>
<!-- id_28429154_DOT_20 -->
<g id="node20" class="node">
<title>id_28429154_DOT_20</title>
<polygon fill="aquamarine" stroke="aquamarine" points="425.05,-1365.45 430.54,-1365.64 435.99,-1365.93 441.35,-1366.32 446.61,-1366.79 451.75,-1367.37 456.74,-1368.03 461.58,-1368.78 466.24,-1369.61 470.69,-1370.54 474.94,-1371.54 478.96,-1372.63 482.73,-1373.79 486.25,-1375.02 489.51,-1376.33 492.5,-1377.7 495.2,-1379.13 497.62,-1380.63 499.75,-1382.17 501.58,-1383.77 503.12,-1385.42 504.37,-1387.1 505.33,-1388.83 505.99,-1390.58 506.38,-1392.36 506.48,-1394.17 506.31,-1395.99 505.87,-1397.83 505.19,-1399.67 504.25,-1401.51 503.08,-1403.36 501.68,-1405.19 500.07,-1407.01 498.26,-1408.82 496.25,-1410.6 494.07,-1412.36 491.72,-1414.08 489.22,-1415.77 486.58,-1417.41 483.81,-1419.01 480.92,-1420.56 477.92,-1422.05 474.83,-1423.48 471.65,-1424.85 468.39,-1426.16 465.06,-1427.39 461.68,-1428.55 458.24,-1429.64 454.76,-1430.64 451.23,-1431.57 447.68,-1432.4 444.1,-1433.16 440.49,-1433.82 436.87,-1434.39 433.23,-1434.86 429.58,-1435.25 425.91,-1435.54 422.25,-1435.73 418.58,-1435.83 414.91,-1435.83 411.24,-1435.73 407.57,-1435.54 403.91,-1435.25 400.26,-1434.86 396.62,-1434.39 392.99,-1433.82 389.39,-1433.16 385.81,-1432.4 382.25,-1431.57 378.73,-1430.64 375.25,-1429.64 371.81,-1428.55 368.42,-1427.39 365.1,-1426.16 361.84,-1424.85 358.66,-1423.48 355.56,-1422.05 352.57,-1420.56 349.68,-1419.01 346.9,-1417.41 344.26,-1415.77 341.76,-1414.08 339.41,-1412.36 337.23,-1410.6 335.23,-1408.82 333.42,-1407.01 331.81,-1405.19 330.41,-1403.36 329.24,-1401.51 328.3,-1399.67 327.61,-1397.83 327.18,-1395.99 327.01,-1394.17 327.11,-1392.36 327.49,-1390.58 328.16,-1388.83 329.11,-1387.1 330.36,-1385.42 331.9,-1383.77 333.74,-1382.17 335.87,-1380.63 338.28,-1379.13 340.99,-1377.7 343.97,-1376.33 347.23,-1375.02 350.75,-1373.79 354.53,-1372.63 358.55,-1371.54 362.79,-1370.54 367.25,-1369.61 371.91,-1368.78 376.74,-1368.03 381.74,-1367.37 386.88,-1366.79 392.14,-1366.32 397.5,-1365.93 402.94,-1365.64 408.44,-1365.45 413.97,-1365.36 419.51,-1365.36 425.05,-1365.45"/>
<text text-anchor="start" x="387.57" y="-1410.39" font-family="Times,serif" font-size="14.00">C0027923</text>
<text text-anchor="start" x="365.24" y="-1396.39" font-family="Times,serif" font-size="14.00">Neurospora crassa</text>
<text text-anchor="start" x="393.8" y="-1382.39" font-family="Times,serif" font-size="14.00">101:102</text>
</g>
<!-- id_28429154_DOT_1&#45;&#45;id_28429154_DOT_20 -->
<g id="edge1" class="edge">
<title>id_28429154_DOT_1&#45;&#45;id_28429154_DOT_20</title>
<path fill="none" stroke="black" d="M134.08,-1604.81C197.84,-1558.75 314.34,-1474.57 375.99,-1430.04"/>
<text text-anchor="middle" x="229.04" y="-1520.23" font-family="Times,serif" font-size="14.00">0.011815</text>
</g>
<!-- id_28429154_DOT_2 -->
<g id="node2" class="node">
<title>id_28429154_DOT_2</title>
<polygon fill="bisque" stroke="bisque" points="4430.6,-2122.55 4434.03,-2122.74 4437.42,-2123.03 4440.76,-2123.42 4444.04,-2123.89 4447.25,-2124.46 4450.36,-2125.12 4453.38,-2125.88 4456.28,-2126.71 4459.06,-2127.64 4461.71,-2128.64 4464.21,-2129.73 4466.57,-2130.89 4468.76,-2132.12 4470.79,-2133.43 4472.66,-2134.8 4474.34,-2136.23 4475.85,-2137.72 4477.18,-2139.27 4478.32,-2140.87 4479.28,-2142.51 4480.06,-2144.2 4480.66,-2145.92 4481.07,-2147.68 4481.31,-2149.46 4481.38,-2151.27 4481.27,-2153.09 4481,-2154.92 4480.57,-2156.77 4479.99,-2158.61 4479.25,-2160.45 4478.38,-2162.29 4477.38,-2164.11 4476.25,-2165.92 4475,-2167.7 4473.64,-2169.45 4472.18,-2171.18 4470.62,-2172.86 4468.97,-2174.51 4467.24,-2176.11 4465.44,-2177.65 4463.57,-2179.15 4461.64,-2180.58 4459.66,-2181.95 4457.62,-2183.26 4455.55,-2184.49 4453.44,-2185.65 4451.3,-2186.74 4449.12,-2187.74 4446.93,-2188.67 4444.71,-2189.5 4442.48,-2190.25 4440.23,-2190.91 4437.97,-2191.49 4435.7,-2191.96 4433.42,-2192.35 4431.14,-2192.64 4428.85,-2192.83 4426.56,-2192.92 4424.27,-2192.92 4421.99,-2192.83 4419.7,-2192.64 4417.42,-2192.35 4415.14,-2191.96 4412.87,-2191.49 4410.61,-2190.91 4408.36,-2190.25 4406.13,-2189.5 4403.91,-2188.67 4401.72,-2187.74 4399.54,-2186.74 4397.4,-2185.65 4395.29,-2184.49 4393.21,-2183.26 4391.18,-2181.95 4389.2,-2180.58 4387.27,-2179.15 4385.4,-2177.65 4383.6,-2176.11 4381.87,-2174.51 4380.22,-2172.86 4378.66,-2171.18 4377.2,-2169.45 4375.84,-2167.7 4374.59,-2165.92 4373.46,-2164.11 4372.46,-2162.29 4371.58,-2160.45 4370.85,-2158.61 4370.27,-2156.77 4369.84,-2154.92 4369.57,-2153.09 4369.46,-2151.27 4369.53,-2149.46 4369.76,-2147.68 4370.18,-2145.92 4370.78,-2144.2 4371.55,-2142.51 4372.52,-2140.87 4373.66,-2139.27 4374.99,-2137.72 4376.5,-2136.23 4378.18,-2134.8 4380.04,-2133.43 4382.08,-2132.12 4384.27,-2130.89 4386.63,-2129.73 4389.13,-2128.64 4391.78,-2127.64 4394.56,-2126.71 4397.46,-2125.88 4400.48,-2125.12 4403.59,-2124.46 4406.8,-2123.89 4410.08,-2123.42 4413.42,-2123.03 4416.81,-2122.74 4420.24,-2122.55 4423.69,-2122.45 4427.15,-2122.45 4430.6,-2122.55"/>
<text text-anchor="start" x="4396.25" y="-2167.49" font-family="Times,serif" font-size="14.00">C0007648</text>
<text text-anchor="start" x="4398.59" y="-2153.49" font-family="Times,serif" font-size="14.00">cellulosic</text>
<text text-anchor="start" x="4416.47" y="-2139.49" font-family="Times,serif" font-size="14.00">6:6</text>
</g>
<!-- id_28429154_DOT_6 -->
<g id="node6" class="node">
<title>id_28429154_DOT_6</title>
<polygon fill="bisque" stroke="bisque" points="4084.81,-2364.39 4088.24,-2364.58 4091.63,-2364.87 4094.97,-2365.26 4098.25,-2365.73 4101.46,-2366.3 4104.57,-2366.96 4107.59,-2367.71 4110.49,-2368.55 4113.27,-2369.48 4115.92,-2370.48 4118.42,-2371.57 4120.78,-2372.73 4122.97,-2373.96 4125,-2375.27 4126.87,-2376.64 4128.55,-2378.07 4130.06,-2379.56 4131.39,-2381.11 4132.53,-2382.71 4133.49,-2384.35 4134.27,-2386.04 4134.87,-2387.76 4135.28,-2389.52 4135.52,-2391.3 4135.59,-2393.11 4135.48,-2394.93 4135.21,-2396.76 4134.78,-2398.61 4134.2,-2400.45 4133.46,-2402.29 4132.59,-2404.13 4131.59,-2405.95 4130.46,-2407.76 4129.21,-2409.54 4127.85,-2411.29 4126.39,-2413.02 4124.83,-2414.7 4123.18,-2416.35 4121.45,-2417.95 4119.65,-2419.49 4117.78,-2420.99 4115.85,-2422.42 4113.87,-2423.79 4111.83,-2425.1 4109.76,-2426.33 4107.65,-2427.49 4105.51,-2428.58 4103.33,-2429.58 4101.14,-2430.5 4098.92,-2431.34 4096.69,-2432.09 4094.44,-2432.75 4092.18,-2433.32 4089.91,-2433.8 4087.63,-2434.19 4085.35,-2434.47 4083.06,-2434.67 4080.77,-2434.76 4078.48,-2434.76 4076.2,-2434.67 4073.91,-2434.47 4071.63,-2434.19 4069.35,-2433.8 4067.08,-2433.32 4064.82,-2432.75 4062.57,-2432.09 4060.34,-2431.34 4058.12,-2430.5 4055.93,-2429.58 4053.75,-2428.58 4051.61,-2427.49 4049.5,-2426.33 4047.42,-2425.1 4045.39,-2423.79 4043.41,-2422.42 4041.48,-2420.99 4039.61,-2419.49 4037.81,-2417.95 4036.08,-2416.35 4034.43,-2414.7 4032.87,-2413.02 4031.41,-2411.29 4030.05,-2409.54 4028.8,-2407.76 4027.67,-2405.95 4026.67,-2404.13 4025.79,-2402.29 4025.06,-2400.45 4024.48,-2398.61 4024.05,-2396.76 4023.78,-2394.93 4023.67,-2393.11 4023.74,-2391.3 4023.98,-2389.52 4024.39,-2387.76 4024.99,-2386.04 4025.76,-2384.35 4026.73,-2382.71 4027.87,-2381.11 4029.2,-2379.56 4030.71,-2378.07 4032.39,-2376.64 4034.25,-2375.27 4036.29,-2373.96 4038.48,-2372.73 4040.84,-2371.57 4043.34,-2370.48 4045.99,-2369.48 4048.77,-2368.55 4051.67,-2367.71 4054.69,-2366.96 4057.8,-2366.3 4061.01,-2365.73 4064.29,-2365.26 4067.63,-2364.87 4071.02,-2364.58 4074.45,-2364.39 4077.9,-2364.29 4081.36,-2364.29 4084.81,-2364.39"/>
<text text-anchor="start" x="4050.46" y="-2409.33" font-family="Times,serif" font-size="14.00">C0007648</text>
<text text-anchor="start" x="4052.81" y="-2395.33" font-family="Times,serif" font-size="14.00">cellulosic</text>
<text text-anchor="start" x="4063.68" y="-2381.33" font-family="Times,serif" font-size="14.00">27:27</text>
</g>
<!-- id_28429154_DOT_2&#45;&#45;id_28429154_DOT_6 -->
<g id="edge2" class="edge">
<title>id_28429154_DOT_2&#45;&#45;id_28429154_DOT_6</title>
<path fill="none" stroke="black" d="M4390.68,-2181.98C4326.03,-2227.2 4187.62,-2324 4119.36,-2371.74"/>
<text text-anchor="middle" x="4228.77" y="-2279.66" font-family="Times,serif" font-size="14.00">0.001572</text>
</g>
<!-- id_28429154_DOT_25 -->
<g id="node25" class="node">
<title>id_28429154_DOT_25</title>
<polygon fill="darkred" stroke="darkred" points="4788.49,-1956.8 4791.92,-1957 4795.31,-1957.29 4798.65,-1957.67 4801.94,-1958.15 4805.14,-1958.72 4808.26,-1959.38 4811.27,-1960.13 4814.17,-1960.97 4816.95,-1961.89 4819.6,-1962.89 4822.11,-1963.98 4824.46,-1965.14 4826.66,-1966.37 4828.69,-1967.68 4830.55,-1969.05 4832.24,-1970.49 4833.74,-1971.98 4835.07,-1973.53 4836.22,-1975.12 4837.18,-1976.77 4837.96,-1978.45 4838.55,-1980.18 4838.97,-1981.93 4839.2,-1983.71 4839.27,-1985.52 4839.16,-1987.34 4838.89,-1989.18 4838.46,-1991.02 4837.88,-1992.87 4837.15,-1994.71 4836.28,-1996.54 4835.27,-1998.37 4834.14,-2000.17 4832.89,-2001.95 4831.53,-2003.71 4830.07,-2005.43 4828.51,-2007.12 4826.86,-2008.76 4825.13,-2010.36 4823.33,-2011.91 4821.46,-2013.4 4819.53,-2014.83 4817.55,-2016.21 4815.52,-2017.51 4813.44,-2018.74 4811.33,-2019.91 4809.19,-2020.99 4807.02,-2022 4804.82,-2022.92 4802.6,-2023.76 4800.37,-2024.51 4798.12,-2025.17 4795.86,-2025.74 4793.59,-2026.22 4791.31,-2026.6 4789.03,-2026.89 4786.75,-2027.08 4784.46,-2027.18 4782.17,-2027.18 4779.88,-2027.08 4777.59,-2026.89 4775.31,-2026.6 4773.03,-2026.22 4770.76,-2025.74 4768.5,-2025.17 4766.26,-2024.51 4764.02,-2023.76 4761.8,-2022.92 4759.61,-2022 4757.44,-2020.99 4755.29,-2019.91 4753.18,-2018.74 4751.11,-2017.51 4749.08,-2016.21 4747.09,-2014.83 4745.16,-2013.4 4743.29,-2011.91 4741.49,-2010.36 4739.76,-2008.76 4738.12,-2007.12 4736.56,-2005.43 4735.09,-2003.71 4733.73,-2001.95 4732.48,-2000.17 4731.35,-1998.37 4730.35,-1996.54 4729.48,-1994.71 4728.75,-1992.87 4728.16,-1991.02 4727.73,-1989.18 4727.46,-1987.34 4727.36,-1985.52 4727.42,-1983.71 4727.66,-1981.93 4728.07,-1980.18 4728.67,-1978.45 4729.45,-1976.77 4730.41,-1975.12 4731.55,-1973.53 4732.88,-1971.98 4734.39,-1970.49 4736.08,-1969.05 4737.94,-1967.68 4739.97,-1966.37 4742.16,-1965.14 4744.52,-1963.98 4747.02,-1962.89 4749.67,-1961.89 4752.45,-1960.97 4755.35,-1960.13 4758.37,-1959.38 4761.48,-1958.72 4764.69,-1958.15 4767.97,-1957.67 4771.31,-1957.29 4774.71,-1957 4778.13,-1956.8 4781.58,-1956.71 4785.04,-1956.71 4788.49,-1956.8"/>
<text text-anchor="start" x="4754.14" y="-2001.74" font-family="Times,serif" font-size="14.00">C0002085</text>
<text text-anchor="start" x="4765.43" y="-1987.74" font-family="Times,serif" font-size="14.00">alleles</text>
<text text-anchor="start" x="4760.37" y="-1973.74" font-family="Times,serif" font-size="14.00">161:161</text>
</g>
<!-- id_28429154_DOT_2&#45;&#45;id_28429154_DOT_25 -->
<g id="edge9" class="edge">
<title>id_28429154_DOT_2&#45;&#45;id_28429154_DOT_25</title>
<path fill="none" stroke="black" stroke-dasharray="1,5" d="M4473.69,-2135.34C4544.57,-2102.51 4675.6,-2041.83 4742.17,-2010.99"/>
<text text-anchor="middle" x="4581.68" y="-2075.96" font-family="Times,serif" font-size="14.00">0.720998</text>
</g>
<!-- id_28429154_DOT_3 -->
<g id="node3" class="node">
<title>id_28429154_DOT_3</title>
<polygon fill="blue" stroke="blue" points="2474.53,-1153.18 2480.12,-1153.38 2485.66,-1153.66 2491.11,-1154.05 2496.46,-1154.52 2501.69,-1155.1 2506.77,-1155.76 2511.69,-1156.51 2516.43,-1157.34 2520.96,-1158.27 2525.28,-1159.27 2529.37,-1160.36 2533.21,-1161.52 2536.79,-1162.75 2540.1,-1164.06 2543.14,-1165.43 2545.89,-1166.86 2548.35,-1168.36 2550.52,-1169.9 2552.38,-1171.5 2553.95,-1173.15 2555.22,-1174.83 2556.19,-1176.56 2556.87,-1178.31 2557.26,-1180.09 2557.36,-1181.9 2557.19,-1183.72 2556.75,-1185.56 2556.05,-1187.4 2555.09,-1189.24 2553.9,-1191.09 2552.48,-1192.92 2550.84,-1194.74 2549,-1196.55 2546.96,-1198.33 2544.74,-1200.09 2542.35,-1201.81 2539.81,-1203.5 2537.12,-1205.14 2534.3,-1206.74 2531.36,-1208.29 2528.32,-1209.78 2525.17,-1211.21 2521.93,-1212.58 2518.62,-1213.89 2515.24,-1215.12 2511.79,-1216.28 2508.29,-1217.37 2504.75,-1218.37 2501.17,-1219.3 2497.55,-1220.13 2493.91,-1220.89 2490.24,-1221.55 2486.55,-1222.12 2482.85,-1222.59 2479.14,-1222.98 2475.41,-1223.27 2471.68,-1223.46 2467.95,-1223.56 2464.22,-1223.56 2460.48,-1223.46 2456.75,-1223.27 2453.03,-1222.98 2449.32,-1222.59 2445.62,-1222.12 2441.93,-1221.55 2438.26,-1220.89 2434.62,-1220.13 2431,-1219.3 2427.42,-1218.37 2423.88,-1217.37 2420.38,-1216.28 2416.93,-1215.12 2413.55,-1213.89 2410.24,-1212.58 2407,-1211.21 2403.85,-1209.78 2400.8,-1208.29 2397.87,-1206.74 2395.05,-1205.14 2392.36,-1203.5 2389.81,-1201.81 2387.43,-1200.09 2385.21,-1198.33 2383.17,-1196.55 2381.33,-1194.74 2379.69,-1192.92 2378.27,-1191.09 2377.07,-1189.24 2376.12,-1187.4 2375.42,-1185.56 2374.98,-1183.72 2374.81,-1181.9 2374.91,-1180.09 2375.3,-1178.31 2375.98,-1176.56 2376.95,-1174.83 2378.22,-1173.15 2379.79,-1171.5 2381.65,-1169.9 2383.82,-1168.36 2386.28,-1166.86 2389.03,-1165.43 2392.07,-1164.06 2395.38,-1162.75 2398.96,-1161.52 2402.8,-1160.36 2406.89,-1159.27 2411.21,-1158.27 2415.74,-1157.34 2420.48,-1156.51 2425.4,-1155.76 2430.48,-1155.1 2435.71,-1154.52 2441.06,-1154.05 2446.51,-1153.66 2452.05,-1153.38 2457.64,-1153.18 2463.27,-1153.09 2468.9,-1153.09 2474.53,-1153.18"/>
<text text-anchor="start" x="2436.92" y="-1198.12" font-family="Times,serif" font-size="14.00">C0678710</text>
<text text-anchor="start" x="2413.4" y="-1184.12" font-family="Times,serif" font-size="14.00">ethanol production</text>
<text text-anchor="start" x="2457.14" y="-1170.12" font-family="Times,serif" font-size="14.00">7:8</text>
</g>
<!-- id_28429154_DOT_7 -->
<g id="node7" class="node">
<title>id_28429154_DOT_7</title>
<polygon fill="cadetblue" stroke="cadetblue" points="2054.59,-1233.25 2058.02,-1233.44 2061.41,-1233.73 2064.75,-1234.11 2068.03,-1234.59 2071.24,-1235.16 2074.35,-1235.82 2077.37,-1236.57 2080.27,-1237.41 2083.05,-1238.33 2085.7,-1239.34 2088.2,-1240.42 2090.56,-1241.58 2092.75,-1242.82 2094.78,-1244.12 2096.65,-1245.49 2098.33,-1246.93 2099.84,-1248.42 2101.17,-1249.97 2102.31,-1251.57 2103.27,-1253.21 2104.05,-1254.9 2104.65,-1256.62 2105.06,-1258.37 2105.3,-1260.16 2105.37,-1261.96 2105.26,-1263.78 2104.99,-1265.62 2104.56,-1267.46 2103.97,-1269.31 2103.24,-1271.15 2102.37,-1272.99 2101.37,-1274.81 2100.24,-1276.61 2098.99,-1278.4 2097.63,-1280.15 2096.16,-1281.87 2094.61,-1283.56 2092.96,-1285.2 2091.23,-1286.8 2089.43,-1288.35 2087.56,-1289.84 2085.63,-1291.28 2083.65,-1292.65 2081.61,-1293.95 2079.54,-1295.19 2077.43,-1296.35 2075.28,-1297.43 2073.11,-1298.44 2070.92,-1299.36 2068.7,-1300.2 2066.47,-1300.95 2064.22,-1301.61 2061.96,-1302.18 2059.69,-1302.66 2057.41,-1303.04 2055.13,-1303.33 2052.84,-1303.52 2050.55,-1303.62 2048.26,-1303.62 2045.98,-1303.52 2043.69,-1303.33 2041.41,-1303.04 2039.13,-1302.66 2036.86,-1302.18 2034.6,-1301.61 2032.35,-1300.95 2030.12,-1300.2 2027.9,-1299.36 2025.7,-1298.44 2023.53,-1297.43 2021.39,-1296.35 2019.28,-1295.19 2017.2,-1293.95 2015.17,-1292.65 2013.19,-1291.28 2011.26,-1289.84 2009.39,-1288.35 2007.59,-1286.8 2005.86,-1285.2 2004.21,-1283.56 2002.65,-1281.87 2001.19,-1280.15 1999.83,-1278.4 1998.58,-1276.61 1997.45,-1274.81 1996.45,-1272.99 1995.57,-1271.15 1994.84,-1269.31 1994.26,-1267.46 1993.83,-1265.62 1993.56,-1263.78 1993.45,-1261.96 1993.52,-1260.16 1993.75,-1258.37 1994.17,-1256.62 1994.77,-1254.9 1995.54,-1253.21 1996.5,-1251.57 1997.65,-1249.97 1998.98,-1248.42 2000.49,-1246.93 2002.17,-1245.49 2004.03,-1244.12 2006.06,-1242.82 2008.26,-1241.58 2010.62,-1240.42 2013.12,-1239.34 2015.77,-1238.33 2018.55,-1237.41 2021.45,-1236.57 2024.46,-1235.82 2027.58,-1235.16 2030.79,-1234.59 2034.07,-1234.11 2037.41,-1233.73 2040.8,-1233.44 2044.23,-1233.25 2047.68,-1233.15 2051.14,-1233.15 2054.59,-1233.25"/>
<text text-anchor="start" x="2020.24" y="-1278.18" font-family="Times,serif" font-size="14.00">C0001962</text>
<text text-anchor="start" x="2028.81" y="-1264.18" font-family="Times,serif" font-size="14.00">ethanol</text>
<text text-anchor="start" x="2033.46" y="-1250.18" font-family="Times,serif" font-size="14.00">34:34</text>
</g>
<!-- id_28429154_DOT_3&#45;&#45;id_28429154_DOT_7 -->
<g id="edge10" class="edge">
<title>id_28429154_DOT_3&#45;&#45;id_28429154_DOT_7</title>
<path fill="none" stroke="black" stroke-dasharray="1,5" d="M2391.11,-1202.73C2308.87,-1218.53 2178.8,-1243.52 2105.13,-1257.68"/>
<text text-anchor="middle" x="2221.87" y="-1233" font-family="Times,serif" font-size="14.00">0.471208</text>
</g>
<!-- id_28429154_DOT_24 -->
<g id="node24" class="node">
<title>id_28429154_DOT_24</title>
<polygon fill="blue" stroke="blue" points="2794.57,-1428.94 2800.16,-1429.13 2805.69,-1429.42 2811.15,-1429.8 2816.5,-1430.28 2821.73,-1430.85 2826.81,-1431.51 2831.73,-1432.26 2836.46,-1433.1 2841,-1434.02 2845.32,-1435.03 2849.4,-1436.11 2853.24,-1437.28 2856.83,-1438.51 2860.14,-1439.82 2863.18,-1441.19 2865.93,-1442.62 2868.39,-1444.11 2870.55,-1445.66 2872.42,-1447.26 2873.99,-1448.9 2875.26,-1450.59 2876.23,-1452.31 2876.91,-1454.07 2877.29,-1455.85 2877.4,-1457.65 2877.23,-1459.48 2876.79,-1461.31 2876.08,-1463.16 2875.13,-1465 2873.94,-1466.84 2872.52,-1468.68 2870.88,-1470.5 2869.03,-1472.31 2867,-1474.09 2864.78,-1475.84 2862.39,-1477.57 2859.85,-1479.25 2857.16,-1480.9 2854.34,-1482.49 2851.4,-1484.04 2848.35,-1485.54 2845.21,-1486.97 2841.97,-1488.34 2838.66,-1489.65 2835.27,-1490.88 2831.83,-1492.04 2828.33,-1493.13 2824.79,-1494.13 2821.21,-1495.05 2817.59,-1495.89 2813.95,-1496.64 2810.28,-1497.3 2806.59,-1497.87 2802.89,-1498.35 2799.17,-1498.74 2795.45,-1499.02 2791.72,-1499.22 2787.99,-1499.31 2784.25,-1499.31 2780.52,-1499.22 2776.79,-1499.02 2773.07,-1498.74 2769.35,-1498.35 2765.65,-1497.87 2761.97,-1497.3 2758.3,-1496.64 2754.65,-1495.89 2751.04,-1495.05 2747.46,-1494.13 2743.91,-1493.13 2740.41,-1492.04 2736.97,-1490.88 2733.59,-1489.65 2730.27,-1488.34 2727.04,-1486.97 2723.89,-1485.54 2720.84,-1484.04 2717.9,-1482.49 2715.08,-1480.9 2712.4,-1479.25 2709.85,-1477.57 2707.46,-1475.84 2705.25,-1474.09 2703.21,-1472.31 2701.36,-1470.5 2699.73,-1468.68 2698.3,-1466.84 2697.11,-1465 2696.16,-1463.16 2695.46,-1461.31 2695.02,-1459.48 2694.84,-1457.65 2694.95,-1455.85 2695.34,-1454.07 2696.01,-1452.31 2696.99,-1450.59 2698.26,-1448.9 2699.82,-1447.26 2701.69,-1445.66 2703.86,-1444.11 2706.32,-1442.62 2709.07,-1441.19 2712.1,-1439.82 2715.42,-1438.51 2719,-1437.28 2722.84,-1436.11 2726.93,-1435.03 2731.24,-1434.02 2735.78,-1433.1 2740.51,-1432.26 2745.43,-1431.51 2750.52,-1430.85 2755.74,-1430.28 2761.09,-1429.8 2766.55,-1429.42 2772.08,-1429.13 2777.68,-1428.94 2783.3,-1428.84 2788.94,-1428.84 2794.57,-1428.94"/>
<text text-anchor="start" x="2756.95" y="-1473.88" font-family="Times,serif" font-size="14.00">C0678710</text>
<text text-anchor="start" x="2733.44" y="-1459.88" font-family="Times,serif" font-size="14.00">ethanol production</text>
<text text-anchor="start" x="2763.18" y="-1445.88" font-family="Times,serif" font-size="14.00">153:154</text>
</g>
<!-- id_28429154_DOT_3&#45;&#45;id_28429154_DOT_24 -->
<g id="edge3" class="edge">
<title>id_28429154_DOT_3&#45;&#45;id_28429154_DOT_24</title>
<path fill="none" stroke="black" d="M2501.87,-1219.15C2562.62,-1271.5 2685.43,-1377.32 2747.85,-1431.1"/>
<text text-anchor="middle" x="2598.61" y="-1327.92" font-family="Times,serif" font-size="14.00">0.056480</text>
</g>
<!-- id_28429154_DOT_26 -->
<g id="node26" class="node">
<title>id_28429154_DOT_26</title>
<polygon fill="blueviolet" stroke="blueviolet" points="2597.25,-745.55 2600.68,-745.74 2604.07,-746.03 2607.41,-746.42 2610.7,-746.89 2613.9,-747.46 2617.02,-748.13 2620.03,-748.88 2622.93,-749.71 2625.71,-750.64 2628.36,-751.64 2630.87,-752.73 2633.22,-753.89 2635.42,-755.12 2637.45,-756.43 2639.31,-757.8 2641,-759.23 2642.5,-760.73 2643.83,-762.27 2644.98,-763.87 2645.94,-765.52 2646.71,-767.2 2647.31,-768.92 2647.73,-770.68 2647.96,-772.46 2648.03,-774.27 2647.92,-776.09 2647.65,-777.92 2647.22,-779.77 2646.64,-781.61 2645.91,-783.46 2645.04,-785.29 2644.03,-787.11 2642.9,-788.92 2641.65,-790.7 2640.29,-792.46 2638.83,-794.18 2637.27,-795.86 2635.62,-797.51 2633.89,-799.11 2632.09,-800.65 2630.22,-802.15 2628.29,-803.58 2626.31,-804.95 2624.28,-806.26 2622.2,-807.49 2620.09,-808.65 2617.95,-809.74 2615.78,-810.74 2613.58,-811.67 2611.36,-812.5 2609.13,-813.25 2606.88,-813.92 2604.62,-814.49 2602.35,-814.96 2600.07,-815.35 2597.79,-815.64 2595.5,-815.83 2593.22,-815.93 2590.93,-815.93 2588.64,-815.83 2586.35,-815.64 2584.07,-815.35 2581.79,-814.96 2579.52,-814.49 2577.26,-813.92 2575.01,-813.25 2572.78,-812.5 2570.56,-811.67 2568.37,-810.74 2566.2,-809.74 2564.05,-808.65 2561.94,-807.49 2559.87,-806.26 2557.83,-804.95 2555.85,-803.58 2553.92,-802.15 2552.05,-800.65 2550.25,-799.11 2548.52,-797.51 2546.87,-795.86 2545.32,-794.18 2543.85,-792.46 2542.49,-790.7 2541.24,-788.92 2540.11,-787.11 2539.11,-785.29 2538.24,-783.46 2537.51,-781.61 2536.92,-779.77 2536.49,-777.92 2536.22,-776.09 2536.12,-774.27 2536.18,-772.46 2536.42,-770.68 2536.83,-768.92 2537.43,-767.2 2538.21,-765.52 2539.17,-763.87 2540.31,-762.27 2541.64,-760.73 2543.15,-759.23 2544.83,-757.8 2546.7,-756.43 2548.73,-755.12 2550.92,-753.89 2553.28,-752.73 2555.78,-751.64 2558.43,-750.64 2561.21,-749.71 2564.11,-748.88 2567.13,-748.13 2570.24,-747.46 2573.45,-746.89 2576.73,-746.42 2580.07,-746.03 2583.47,-745.74 2586.89,-745.55 2590.34,-745.46 2593.8,-745.46 2597.25,-745.55"/>
<text text-anchor="start" x="2562.9" y="-790.49" font-family="Times,serif" font-size="14.00">C1260875</text>
<text text-anchor="start" x="2567.58" y="-776.49" font-family="Times,serif" font-size="14.00">breeding</text>
<text text-anchor="start" x="2569.13" y="-762.49" font-family="Times,serif" font-size="14.00">167:167</text>
</g>
<!-- id_28429154_DOT_3&#45;&#45;id_28429154_DOT_26 -->
<g id="edge11" class="edge">
<title>id_28429154_DOT_3&#45;&#45;id_28429154_DOT_26</title>
<path fill="none" stroke="black" stroke-dasharray="1,5" d="M2476.94,-1153.21C2500.84,-1075.87 2557.8,-891.59 2581.47,-814.99"/>
<text text-anchor="middle" x="2502.95" y="-986.9" font-family="Times,serif" font-size="14.00">0.747232</text>
</g>
<!-- id_28429154_DOT_4 -->
<g id="node4" class="node">
<title>id_28429154_DOT_4</title>
<polygon fill="blueviolet" stroke="blueviolet" points="2723.44,-365.7 2726.87,-365.89 2730.26,-366.18 2733.6,-366.56 2736.88,-367.04 2740.09,-367.61 2743.2,-368.27 2746.22,-369.02 2749.12,-369.86 2751.9,-370.78 2754.55,-371.79 2757.05,-372.87 2759.41,-374.03 2761.6,-375.27 2763.63,-376.57 2765.5,-377.94 2767.18,-379.38 2768.69,-380.87 2770.02,-382.42 2771.16,-384.02 2772.12,-385.66 2772.9,-387.35 2773.5,-389.07 2773.91,-390.82 2774.15,-392.61 2774.22,-394.41 2774.11,-396.23 2773.84,-398.07 2773.41,-399.91 2772.83,-401.76 2772.09,-403.6 2771.22,-405.44 2770.22,-407.26 2769.09,-409.06 2767.84,-410.85 2766.48,-412.6 2765.02,-414.32 2763.46,-416.01 2761.81,-417.65 2760.08,-419.25 2758.28,-420.8 2756.41,-422.29 2754.48,-423.73 2752.5,-425.1 2750.46,-426.4 2748.39,-427.64 2746.28,-428.8 2744.14,-429.88 2741.96,-430.89 2739.77,-431.81 2737.55,-432.65 2735.32,-433.4 2733.07,-434.06 2730.81,-434.63 2728.54,-435.11 2726.26,-435.49 2723.98,-435.78 2721.69,-435.97 2719.4,-436.07 2717.11,-436.07 2714.83,-435.97 2712.54,-435.78 2710.26,-435.49 2707.98,-435.11 2705.71,-434.63 2703.45,-434.06 2701.2,-433.4 2698.97,-432.65 2696.75,-431.81 2694.56,-430.89 2692.38,-429.88 2690.24,-428.8 2688.13,-427.64 2686.05,-426.4 2684.02,-425.1 2682.04,-423.73 2680.11,-422.29 2678.24,-420.8 2676.44,-419.25 2674.71,-417.65 2673.06,-416.01 2671.5,-414.32 2670.04,-412.6 2668.68,-410.85 2667.43,-409.06 2666.3,-407.26 2665.3,-405.44 2664.42,-403.6 2663.69,-401.76 2663.11,-399.91 2662.68,-398.07 2662.41,-396.23 2662.3,-394.41 2662.37,-392.61 2662.61,-390.82 2663.02,-389.07 2663.62,-387.35 2664.39,-385.66 2665.36,-384.02 2666.5,-382.42 2667.83,-380.87 2669.34,-379.38 2671.02,-377.94 2672.88,-376.57 2674.92,-375.27 2677.11,-374.03 2679.47,-372.87 2681.97,-371.79 2684.62,-370.78 2687.4,-369.86 2690.3,-369.02 2693.32,-368.27 2696.43,-367.61 2699.64,-367.04 2702.92,-366.56 2706.26,-366.18 2709.65,-365.89 2713.08,-365.7 2716.53,-365.6 2719.99,-365.6 2723.44,-365.7"/>
<text text-anchor="start" x="2689.09" y="-410.63" font-family="Times,serif" font-size="14.00">C1260875</text>
<text text-anchor="start" x="2693.77" y="-396.63" font-family="Times,serif" font-size="14.00">breeding</text>
<text text-anchor="start" x="2702.83" y="-382.63" font-family="Times,serif" font-size="14.00">11:11</text>
</g>
<!-- id_28429154_DOT_9 -->
<g id="node9" class="node">
<title>id_28429154_DOT_9</title>
<polygon fill="coral" stroke="coral" points="2844.69,-0.23 2848.11,-0.42 2851.51,-0.71 2854.85,-1.09 2858.13,-1.57 2861.34,-2.14 2864.45,-2.8 2867.47,-3.55 2870.37,-4.39 2873.15,-5.31 2875.8,-6.32 2878.3,-7.4 2880.66,-8.57 2882.85,-9.8 2884.88,-11.1 2886.74,-12.48 2888.43,-13.91 2889.94,-15.4 2891.27,-16.95 2892.41,-18.55 2893.37,-20.19 2894.15,-21.88 2894.75,-23.6 2895.16,-25.36 2895.4,-27.14 2895.46,-28.94 2895.36,-30.77 2895.09,-32.6 2894.66,-34.44 2894.07,-36.29 2893.34,-38.13 2892.47,-39.97 2891.47,-41.79 2890.34,-43.6 2889.09,-45.38 2887.73,-47.13 2886.26,-48.86 2884.7,-50.54 2883.06,-52.19 2881.33,-53.78 2879.53,-55.33 2877.66,-56.82 2875.73,-58.26 2873.74,-59.63 2871.71,-60.94 2869.64,-62.17 2867.53,-63.33 2865.38,-64.42 2863.21,-65.42 2861.02,-66.34 2858.8,-67.18 2856.56,-67.93 2854.32,-68.59 2852.06,-69.16 2849.79,-69.64 2847.51,-70.02 2845.23,-70.31 2842.94,-70.51 2840.65,-70.6 2838.36,-70.6 2836.07,-70.51 2833.79,-70.31 2831.51,-70.02 2829.23,-69.64 2826.96,-69.16 2824.7,-68.59 2822.45,-67.93 2820.22,-67.18 2818,-66.34 2815.8,-65.42 2813.63,-64.42 2811.49,-63.33 2809.38,-62.17 2807.3,-60.94 2805.27,-59.63 2803.29,-58.26 2801.36,-56.82 2799.49,-55.33 2797.69,-53.78 2795.96,-52.19 2794.31,-50.54 2792.75,-48.86 2791.29,-47.13 2789.93,-45.38 2788.68,-43.6 2787.55,-41.79 2786.54,-39.97 2785.67,-38.13 2784.94,-36.29 2784.36,-34.44 2783.93,-32.6 2783.66,-30.77 2783.55,-28.94 2783.62,-27.14 2783.85,-25.36 2784.27,-23.6 2784.86,-21.88 2785.64,-20.19 2786.6,-18.55 2787.75,-16.95 2789.08,-15.4 2790.58,-13.91 2792.27,-12.48 2794.13,-11.1 2796.16,-9.8 2798.36,-8.57 2800.71,-7.4 2803.22,-6.32 2805.87,-5.31 2808.65,-4.39 2811.55,-3.55 2814.56,-2.8 2817.68,-2.14 2820.88,-1.57 2824.17,-1.09 2827.51,-0.71 2830.9,-0.42 2834.33,-0.23 2837.78,-0.13 2841.24,-0.13 2844.69,-0.23"/>
<text text-anchor="start" x="2810.34" y="-45.17" font-family="Times,serif" font-size="14.00">C2603343</text>
<text text-anchor="start" x="2824.34" y="-31.17" font-family="Times,serif" font-size="14.00">study</text>
<text text-anchor="start" x="2823.56" y="-17.17" font-family="Times,serif" font-size="14.00">46:46</text>
</g>
<!-- id_28429154_DOT_4&#45;&#45;id_28429154_DOT_9 -->
<g id="edge12" class="edge">
<title>id_28429154_DOT_4&#45;&#45;id_28429154_DOT_9</title>
<path fill="none" stroke="black" stroke-dasharray="1,5" d="M2729.78,-366.12C2752.98,-296.19 2805.09,-139.1 2828.16,-69.58"/>
<text text-anchor="middle" x="2752.72" y="-220.65" font-family="Times,serif" font-size="14.00">0.951571</text>
</g>
<!-- id_28429154_DOT_4&#45;&#45;id_28429154_DOT_26 -->
<g id="edge4" class="edge">
<title>id_28429154_DOT_4&#45;&#45;id_28429154_DOT_26</title>
<path fill="none" stroke="black" d="M2706.84,-435.21C2682.9,-507.26 2627.72,-673.39 2603.65,-745.84"/>
<text text-anchor="middle" x="2628.99" y="-593.33" font-family="Times,serif" font-size="14.00">0.019768</text>
</g>
<!-- id_28429154_DOT_5 -->
<g id="node5" class="node">
<title>id_28429154_DOT_5</title>
<polygon fill="brown" stroke="brown" points="1158.73,-1759.69 1162.16,-1759.88 1165.56,-1760.17 1168.9,-1760.56 1172.18,-1761.03 1175.38,-1761.6 1178.5,-1762.27 1181.52,-1763.02 1184.42,-1763.85 1187.2,-1764.78 1189.85,-1765.78 1192.35,-1766.87 1194.7,-1768.03 1196.9,-1769.26 1198.93,-1770.57 1200.79,-1771.94 1202.48,-1773.37 1203.99,-1774.87 1205.32,-1776.41 1206.46,-1778.01 1207.42,-1779.66 1208.2,-1781.34 1208.8,-1783.06 1209.21,-1784.82 1209.45,-1786.6 1209.51,-1788.41 1209.41,-1790.23 1209.14,-1792.06 1208.71,-1793.91 1208.12,-1795.75 1207.39,-1797.6 1206.52,-1799.43 1205.52,-1801.25 1204.39,-1803.06 1203.14,-1804.84 1201.78,-1806.6 1200.31,-1808.32 1198.75,-1810 1197.11,-1811.65 1195.38,-1813.25 1193.58,-1814.79 1191.71,-1816.29 1189.78,-1817.72 1187.79,-1819.09 1185.76,-1820.4 1183.69,-1821.63 1181.58,-1822.79 1179.43,-1823.88 1177.26,-1824.88 1175.06,-1825.81 1172.85,-1826.64 1170.61,-1827.39 1168.37,-1828.06 1166.11,-1828.63 1163.84,-1829.1 1161.56,-1829.49 1159.28,-1829.78 1156.99,-1829.97 1154.7,-1830.07 1152.41,-1830.07 1150.12,-1829.97 1147.84,-1829.78 1145.55,-1829.49 1143.28,-1829.1 1141.01,-1828.63 1138.75,-1828.06 1136.5,-1827.39 1134.27,-1826.64 1132.05,-1825.81 1129.85,-1824.88 1127.68,-1823.88 1125.54,-1822.79 1123.43,-1821.63 1121.35,-1820.4 1119.32,-1819.09 1117.34,-1817.72 1115.41,-1816.29 1113.54,-1814.79 1111.74,-1813.25 1110.01,-1811.65 1108.36,-1810 1106.8,-1808.32 1105.34,-1806.6 1103.98,-1804.84 1102.73,-1803.06 1101.6,-1801.25 1100.59,-1799.43 1099.72,-1797.6 1098.99,-1795.75 1098.41,-1793.91 1097.98,-1792.06 1097.71,-1790.23 1097.6,-1788.41 1097.66,-1786.6 1097.9,-1784.82 1098.32,-1783.06 1098.91,-1781.34 1099.69,-1779.66 1100.65,-1778.01 1101.8,-1776.41 1103.12,-1774.87 1104.63,-1773.37 1106.32,-1771.94 1108.18,-1770.57 1110.21,-1769.26 1112.41,-1768.03 1114.76,-1766.87 1117.27,-1765.78 1119.91,-1764.78 1122.69,-1763.85 1125.6,-1763.02 1128.61,-1762.27 1131.73,-1761.6 1134.93,-1761.03 1138.21,-1760.56 1141.56,-1760.17 1144.95,-1759.88 1148.38,-1759.69 1151.83,-1759.59 1155.29,-1759.59 1158.73,-1759.69"/>
<text text-anchor="start" x="1124.39" y="-1804.63" font-family="Times,serif" font-size="14.00">C0543488</text>
<text text-anchor="start" x="1132.95" y="-1790.63" font-family="Times,serif" font-size="14.00">interest</text>
<text text-anchor="start" x="1137.61" y="-1776.63" font-family="Times,serif" font-size="14.00">22:22</text>
</g>
<!-- id_28429154_DOT_14 -->
<g id="node14" class="node">
<title>id_28429154_DOT_14</title>
<polygon fill="darkgreen" stroke="darkgreen" points="1234.42,-1338.67 1237.85,-1338.86 1241.24,-1339.15 1244.58,-1339.53 1247.87,-1340.01 1251.07,-1340.58 1254.19,-1341.24 1257.2,-1341.99 1260.1,-1342.83 1262.88,-1343.75 1265.53,-1344.76 1268.04,-1345.84 1270.39,-1347 1272.59,-1348.24 1274.62,-1349.54 1276.48,-1350.92 1278.17,-1352.35 1279.67,-1353.84 1281,-1355.39 1282.15,-1356.99 1283.11,-1358.63 1283.88,-1360.32 1284.48,-1362.04 1284.9,-1363.8 1285.13,-1365.58 1285.2,-1367.38 1285.09,-1369.21 1284.82,-1371.04 1284.39,-1372.88 1283.81,-1374.73 1283.08,-1376.57 1282.21,-1378.41 1281.2,-1380.23 1280.07,-1382.04 1278.82,-1383.82 1277.46,-1385.57 1276,-1387.3 1274.44,-1388.98 1272.79,-1390.63 1271.06,-1392.22 1269.26,-1393.77 1267.39,-1395.26 1265.46,-1396.7 1263.48,-1398.07 1261.45,-1399.37 1259.37,-1400.61 1257.26,-1401.77 1255.12,-1402.86 1252.95,-1403.86 1250.75,-1404.78 1248.53,-1405.62 1246.3,-1406.37 1244.05,-1407.03 1241.79,-1407.6 1239.52,-1408.08 1237.24,-1408.46 1234.96,-1408.75 1232.67,-1408.95 1230.39,-1409.04 1228.1,-1409.04 1225.81,-1408.95 1223.52,-1408.75 1221.24,-1408.46 1218.96,-1408.08 1216.69,-1407.6 1214.43,-1407.03 1212.18,-1406.37 1209.95,-1405.62 1207.73,-1404.78 1205.54,-1403.86 1203.37,-1402.86 1201.22,-1401.77 1199.11,-1400.61 1197.04,-1399.37 1195,-1398.07 1193.02,-1396.7 1191.09,-1395.26 1189.22,-1393.77 1187.42,-1392.22 1185.69,-1390.63 1184.04,-1388.98 1182.49,-1387.3 1181.02,-1385.57 1179.66,-1383.82 1178.41,-1382.04 1177.28,-1380.23 1176.28,-1378.41 1175.41,-1376.57 1174.68,-1374.73 1174.09,-1372.88 1173.66,-1371.04 1173.39,-1369.21 1173.29,-1367.38 1173.35,-1365.58 1173.59,-1363.8 1174,-1362.04 1174.6,-1360.32 1175.38,-1358.63 1176.34,-1356.99 1177.48,-1355.39 1178.81,-1353.84 1180.32,-1352.35 1182,-1350.92 1183.87,-1349.54 1185.9,-1348.24 1188.09,-1347 1190.45,-1345.84 1192.95,-1344.76 1195.6,-1343.75 1198.38,-1342.83 1201.28,-1341.99 1204.3,-1341.24 1207.41,-1340.58 1210.62,-1340.01 1213.9,-1339.53 1217.24,-1339.15 1220.64,-1338.86 1224.06,-1338.67 1227.51,-1338.57 1230.97,-1338.57 1234.42,-1338.67"/>
<text text-anchor="start" x="1200.07" y="-1383.61" font-family="Times,serif" font-size="14.00">C0871648</text>
<text text-anchor="start" x="1207.47" y="-1369.61" font-family="Times,serif" font-size="14.00">habitats</text>
<text text-anchor="start" x="1213.3" y="-1355.61" font-family="Times,serif" font-size="14.00">76:76</text>
</g>
<!-- id_28429154_DOT_5&#45;&#45;id_28429154_DOT_14 -->
<g id="edge13" class="edge">
<title>id_28429154_DOT_5&#45;&#45;id_28429154_DOT_14</title>
<path fill="none" stroke="black" stroke-dasharray="1,5" d="M1159.88,-1759.66C1174.14,-1680.31 1208.69,-1488.13 1222.94,-1408.88"/>
<text text-anchor="middle" x="1165.41" y="-1587.07" font-family="Times,serif" font-size="14.00">0.701170</text>
</g>
<!-- id_28429154_DOT_10 -->
<g id="node10" class="node">
<title>id_28429154_DOT_10</title>
<polygon fill="cornflowerblue" stroke="cornflowerblue" points="3758.98,-2107.09 3765.18,-2107.29 3771.31,-2107.57 3777.36,-2107.96 3783.29,-2108.44 3789.09,-2109.01 3794.72,-2109.67 3800.17,-2110.42 3805.42,-2111.26 3810.45,-2112.18 3815.24,-2113.18 3819.77,-2114.27 3824.02,-2115.43 3828,-2116.66 3831.67,-2117.97 3835.03,-2119.34 3838.09,-2120.77 3840.81,-2122.27 3843.21,-2123.82 3845.28,-2125.41 3847.02,-2127.06 3848.43,-2128.74 3849.51,-2130.47 3850.26,-2132.22 3850.69,-2134 3850.8,-2135.81 3850.61,-2137.63 3850.12,-2139.47 3849.34,-2141.31 3848.29,-2143.15 3846.97,-2145 3845.39,-2146.83 3843.57,-2148.66 3841.53,-2150.46 3839.27,-2152.24 3836.81,-2154 3834.17,-2155.72 3831.35,-2157.41 3828.37,-2159.05 3825.24,-2160.65 3821.98,-2162.2 3818.6,-2163.69 3815.11,-2165.12 3811.53,-2166.49 3807.85,-2167.8 3804.1,-2169.03 3800.28,-2170.2 3796.41,-2171.28 3792.48,-2172.29 3788.51,-2173.21 3784.5,-2174.05 3780.46,-2174.8 3776.39,-2175.46 3772.31,-2176.03 3768.2,-2176.51 3764.08,-2176.89 3759.96,-2177.18 3755.82,-2177.37 3751.68,-2177.47 3747.54,-2177.47 3743.41,-2177.37 3739.27,-2177.18 3735.14,-2176.89 3731.03,-2176.51 3726.92,-2176.03 3722.84,-2175.46 3718.77,-2174.8 3714.73,-2174.05 3710.72,-2173.21 3706.75,-2172.29 3702.82,-2171.28 3698.94,-2170.2 3695.13,-2169.03 3691.38,-2167.8 3687.7,-2166.49 3684.12,-2165.12 3680.63,-2163.69 3677.25,-2162.2 3673.99,-2160.65 3670.86,-2159.05 3667.88,-2157.41 3665.06,-2155.72 3662.42,-2154 3659.96,-2152.24 3657.7,-2150.46 3655.65,-2148.66 3653.84,-2146.83 3652.26,-2145 3650.94,-2143.15 3649.88,-2141.31 3649.11,-2139.47 3648.62,-2137.63 3648.43,-2135.81 3648.54,-2134 3648.97,-2132.22 3649.72,-2130.47 3650.8,-2128.74 3652.21,-2127.06 3653.95,-2125.41 3656.02,-2123.82 3658.42,-2122.27 3661.14,-2120.77 3664.19,-2119.34 3667.56,-2117.97 3671.23,-2116.66 3675.2,-2115.43 3679.46,-2114.27 3683.99,-2113.18 3688.78,-2112.18 3693.8,-2111.26 3699.05,-2110.42 3704.51,-2109.67 3710.14,-2109.01 3715.94,-2108.44 3721.87,-2107.96 3727.92,-2107.57 3734.05,-2107.29 3740.25,-2107.09 3746.49,-2107 3752.74,-2107 3758.98,-2107.09"/>
<text text-anchor="start" x="3720.7" y="-2152.03" font-family="Times,serif" font-size="14.00">C1157836</text>
<text text-anchor="start" x="3690.32" y="-2138.03" font-family="Times,serif" font-size="14.00">cellulose metabolism</text>
<text text-anchor="start" x="3733.67" y="-2124.03" font-family="Times,serif" font-size="14.00">47:48</text>
</g>
<!-- id_28429154_DOT_6&#45;&#45;id_28429154_DOT_10 -->
<g id="edge14" class="edge">
<title>id_28429154_DOT_6&#45;&#45;id_28429154_DOT_10</title>
<path fill="none" stroke="black" stroke-dasharray="1,5" d="M4042.41,-2370.51C3979.71,-2321.62 3853.55,-2223.27 3789.25,-2173.14"/>
<text text-anchor="middle" x="3889.58" y="-2274.62" font-family="Times,serif" font-size="14.00">0.759441</text>
</g>
<!-- id_28429154_DOT_15 -->
<g id="node15" class="node">
<title>id_28429154_DOT_15</title>
<polygon fill="bisque" stroke="bisque" points="3842.83,-2673.77 3846.25,-2673.96 3849.65,-2674.25 3852.99,-2674.63 3856.27,-2675.11 3859.48,-2675.68 3862.59,-2676.34 3865.61,-2677.09 3868.51,-2677.93 3871.29,-2678.85 3873.94,-2679.86 3876.44,-2680.94 3878.8,-2682.1 3880.99,-2683.34 3883.02,-2684.64 3884.88,-2686.02 3886.57,-2687.45 3888.08,-2688.94 3889.41,-2690.49 3890.55,-2692.09 3891.51,-2693.73 3892.29,-2695.42 3892.89,-2697.14 3893.3,-2698.9 3893.54,-2700.68 3893.6,-2702.48 3893.5,-2704.31 3893.23,-2706.14 3892.8,-2707.98 3892.21,-2709.83 3891.48,-2711.67 3890.61,-2713.51 3889.61,-2715.33 3888.48,-2717.14 3887.23,-2718.92 3885.87,-2720.67 3884.4,-2722.4 3882.84,-2724.08 3881.2,-2725.73 3879.47,-2727.32 3877.67,-2728.87 3875.8,-2730.36 3873.87,-2731.8 3871.88,-2733.17 3869.85,-2734.47 3867.78,-2735.71 3865.67,-2736.87 3863.52,-2737.96 3861.35,-2738.96 3859.15,-2739.88 3856.94,-2740.72 3854.7,-2741.47 3852.46,-2742.13 3850.2,-2742.7 3847.93,-2743.18 3845.65,-2743.56 3843.37,-2743.85 3841.08,-2744.05 3838.79,-2744.14 3836.5,-2744.14 3834.21,-2744.05 3831.93,-2743.85 3829.65,-2743.56 3827.37,-2743.18 3825.1,-2742.7 3822.84,-2742.13 3820.59,-2741.47 3818.36,-2740.72 3816.14,-2739.88 3813.94,-2738.96 3811.77,-2737.96 3809.63,-2736.87 3807.52,-2735.71 3805.44,-2734.47 3803.41,-2733.17 3801.43,-2731.8 3799.5,-2730.36 3797.63,-2728.87 3795.83,-2727.32 3794.1,-2725.73 3792.45,-2724.08 3790.89,-2722.4 3789.43,-2720.67 3788.07,-2718.92 3786.82,-2717.14 3785.69,-2715.33 3784.68,-2713.51 3783.81,-2711.67 3783.08,-2709.83 3782.5,-2707.98 3782.07,-2706.14 3781.8,-2704.31 3781.69,-2702.48 3781.75,-2700.68 3781.99,-2698.9 3782.41,-2697.14 3783,-2695.42 3783.78,-2693.73 3784.74,-2692.09 3785.89,-2690.49 3787.22,-2688.94 3788.72,-2687.45 3790.41,-2686.02 3792.27,-2684.64 3794.3,-2683.34 3796.5,-2682.1 3798.85,-2680.94 3801.36,-2679.86 3804.01,-2678.85 3806.79,-2677.93 3809.69,-2677.09 3812.7,-2676.34 3815.82,-2675.68 3819.02,-2675.11 3822.3,-2674.63 3825.65,-2674.25 3829.04,-2673.96 3832.47,-2673.77 3835.92,-2673.67 3839.38,-2673.67 3842.83,-2673.77"/>
<text text-anchor="start" x="3808.48" y="-2718.71" font-family="Times,serif" font-size="14.00">C0007648</text>
<text text-anchor="start" x="3812.77" y="-2704.71" font-family="Times,serif" font-size="14.00">cellulose</text>
<text text-anchor="start" x="3821.7" y="-2690.71" font-family="Times,serif" font-size="14.00">87:87</text>
</g>
<!-- id_28429154_DOT_6&#45;&#45;id_28429154_DOT_15 -->
<g id="edge5" class="edge">
<title>id_28429154_DOT_6&#45;&#45;id_28429154_DOT_15</title>
<path fill="none" stroke="black" d="M4055.99,-2429.76C4010.32,-2488.14 3910.34,-2615.97 3863.2,-2676.24"/>
<text text-anchor="middle" x="3933.34" y="-2555.8" font-family="Times,serif" font-size="14.00">0.065443</text>
</g>
<!-- id_28429154_DOT_21 -->
<g id="node21" class="node">
<title>id_28429154_DOT_21</title>
<polygon fill="chartreuse" stroke="chartreuse" points="4281.63,-2745.96 4285.4,-2746.16 4289.13,-2746.44 4292.8,-2746.83 4296.4,-2747.31 4299.93,-2747.88 4303.35,-2748.54 4306.66,-2749.29 4309.85,-2750.13 4312.91,-2751.05 4315.82,-2752.05 4318.57,-2753.14 4321.16,-2754.3 4323.57,-2755.53 4325.8,-2756.84 4327.85,-2758.21 4329.7,-2759.64 4331.36,-2761.14 4332.82,-2762.68 4334.07,-2764.28 4335.13,-2765.93 4335.99,-2767.61 4336.64,-2769.34 4337.1,-2771.09 4337.36,-2772.87 4337.43,-2774.68 4337.31,-2776.5 4337.02,-2778.34 4336.54,-2780.18 4335.9,-2782.02 4335.1,-2783.87 4334.14,-2785.7 4333.04,-2787.52 4331.79,-2789.33 4330.42,-2791.11 4328.93,-2792.87 4327.32,-2794.59 4325.61,-2796.28 4323.8,-2797.92 4321.9,-2799.52 4319.92,-2801.07 4317.86,-2802.56 4315.74,-2803.99 4313.56,-2805.36 4311.33,-2806.67 4309.05,-2807.9 4306.73,-2809.06 4304.37,-2810.15 4301.99,-2811.15 4299.57,-2812.08 4297.14,-2812.92 4294.68,-2813.67 4292.21,-2814.33 4289.73,-2814.9 4287.23,-2815.37 4284.73,-2815.76 4282.22,-2816.05 4279.71,-2816.24 4277.2,-2816.34 4274.68,-2816.34 4272.17,-2816.24 4269.65,-2816.05 4267.15,-2815.76 4264.64,-2815.37 4262.15,-2814.9 4259.67,-2814.33 4257.2,-2813.67 4254.74,-2812.92 4252.31,-2812.08 4249.89,-2811.15 4247.51,-2810.15 4245.15,-2809.06 4242.83,-2807.9 4240.55,-2806.67 4238.32,-2805.36 4236.14,-2803.99 4234.02,-2802.56 4231.96,-2801.07 4229.98,-2799.52 4228.08,-2797.92 4226.27,-2796.28 4224.56,-2794.59 4222.95,-2792.87 4221.46,-2791.11 4220.09,-2789.33 4218.84,-2787.52 4217.74,-2785.7 4216.78,-2783.87 4215.98,-2782.02 4215.34,-2780.18 4214.86,-2778.34 4214.57,-2776.5 4214.45,-2774.68 4214.52,-2772.87 4214.78,-2771.09 4215.24,-2769.34 4215.89,-2767.61 4216.75,-2765.93 4217.8,-2764.28 4219.06,-2762.68 4220.52,-2761.14 4222.18,-2759.64 4224.03,-2758.21 4226.08,-2756.84 4228.31,-2755.53 4230.72,-2754.3 4233.31,-2753.14 4236.06,-2752.05 4238.97,-2751.05 4242.03,-2750.13 4245.22,-2749.29 4248.53,-2748.54 4251.95,-2747.88 4255.47,-2747.31 4259.08,-2746.83 4262.75,-2746.44 4266.48,-2746.16 4270.25,-2745.96 4274.04,-2745.87 4277.84,-2745.87 4281.63,-2745.96"/>
<text text-anchor="start" x="4246.77" y="-2790.9" font-family="Times,serif" font-size="14.00">C0016832</text>
<text text-anchor="start" x="4243.27" y="-2776.9" font-family="Times,serif" font-size="14.00">populations</text>
<text text-anchor="start" x="4253.51" y="-2762.9" font-family="Times,serif" font-size="14.00">116:116</text>
</g>
<!-- id_28429154_DOT_6&#45;&#45;id_28429154_DOT_21 -->
<g id="edge15" class="edge">
<title>id_28429154_DOT_6&#45;&#45;id_28429154_DOT_21</title>
<path fill="none" stroke="black" stroke-dasharray="1,5" d="M4096.54,-2432.39C4133.41,-2504.07 4220.77,-2673.86 4258.3,-2746.81"/>
<text text-anchor="middle" x="4151.17" y="-2592.4" font-family="Times,serif" font-size="14.00">0.789431</text>
</g>
<!-- id_28429154_DOT_17 -->
<g id="node17" class="node">
<title>id_28429154_DOT_17</title>
<polygon fill="darkmagenta" stroke="darkmagenta" points="1656.2,-1353.28 1659.63,-1353.48 1663.02,-1353.77 1666.37,-1354.15 1669.65,-1354.63 1672.85,-1355.2 1675.97,-1355.86 1678.98,-1356.61 1681.89,-1357.45 1684.67,-1358.37 1687.31,-1359.37 1689.82,-1360.46 1692.17,-1361.62 1694.37,-1362.86 1696.4,-1364.16 1698.26,-1365.53 1699.95,-1366.97 1701.46,-1368.46 1702.78,-1370.01 1703.93,-1371.6 1704.89,-1373.25 1705.67,-1374.93 1706.26,-1376.66 1706.68,-1378.41 1706.92,-1380.19 1706.98,-1382 1706.88,-1383.82 1706.61,-1385.66 1706.17,-1387.5 1705.59,-1389.35 1704.86,-1391.19 1703.99,-1393.02 1702.98,-1394.85 1701.85,-1396.65 1700.6,-1398.43 1699.24,-1400.19 1697.78,-1401.91 1696.22,-1403.6 1694.57,-1405.24 1692.85,-1406.84 1691.04,-1408.39 1689.17,-1409.88 1687.25,-1411.31 1685.26,-1412.69 1683.23,-1413.99 1681.16,-1415.23 1679.04,-1416.39 1676.9,-1417.47 1674.73,-1418.48 1672.53,-1419.4 1670.32,-1420.24 1668.08,-1420.99 1665.83,-1421.65 1663.57,-1422.22 1661.3,-1422.7 1659.03,-1423.08 1656.74,-1423.37 1654.46,-1423.56 1652.17,-1423.66 1649.88,-1423.66 1647.59,-1423.56 1645.31,-1423.37 1643.02,-1423.08 1640.75,-1422.7 1638.48,-1422.22 1636.22,-1421.65 1633.97,-1420.99 1631.73,-1420.24 1629.52,-1419.4 1627.32,-1418.48 1625.15,-1417.47 1623.01,-1416.39 1620.89,-1415.23 1618.82,-1413.99 1616.79,-1412.69 1614.8,-1411.31 1612.88,-1409.88 1611.01,-1408.39 1609.2,-1406.84 1607.48,-1405.24 1605.83,-1403.6 1604.27,-1401.91 1602.81,-1400.19 1601.45,-1398.43 1600.2,-1396.65 1599.07,-1394.85 1598.06,-1393.02 1597.19,-1391.19 1596.46,-1389.35 1595.88,-1387.5 1595.44,-1385.66 1595.17,-1383.82 1595.07,-1382 1595.13,-1380.19 1595.37,-1378.41 1595.79,-1376.66 1596.38,-1374.93 1597.16,-1373.25 1598.12,-1371.6 1599.27,-1370.01 1600.59,-1368.46 1602.1,-1366.97 1603.79,-1365.53 1605.65,-1364.16 1607.68,-1362.86 1609.88,-1361.62 1612.23,-1360.46 1614.74,-1359.37 1617.38,-1358.37 1620.16,-1357.45 1623.07,-1356.61 1626.08,-1355.86 1629.2,-1355.2 1632.4,-1354.63 1635.68,-1354.15 1639.03,-1353.77 1642.42,-1353.48 1645.85,-1353.28 1649.3,-1353.19 1652.75,-1353.19 1656.2,-1353.28"/>
<text text-anchor="start" x="1621.86" y="-1398.22" font-family="Times,serif" font-size="14.00">C0022877</text>
<text text-anchor="start" x="1622.26" y="-1384.22" font-family="Times,serif" font-size="14.00">laboratory</text>
<text text-anchor="start" x="1635.08" y="-1370.22" font-family="Times,serif" font-size="14.00">95:95</text>
</g>
<!-- id_28429154_DOT_7&#45;&#45;id_28429154_DOT_17 -->
<g id="edge16" class="edge">
<title>id_28429154_DOT_7&#45;&#45;id_28429154_DOT_17</title>
<path fill="none" stroke="black" stroke-dasharray="1,5" d="M2002.93,-1282.39C1928.53,-1304.81 1783.08,-1348.63 1704.48,-1372.32"/>
<text text-anchor="middle" x="1827.71" y="-1330.15" font-family="Times,serif" font-size="14.00">0.739117</text>
</g>
<!-- id_28429154_DOT_8 -->
<g id="node8" class="node">
<title>id_28429154_DOT_8</title>
<polygon fill="chartreuse" stroke="chartreuse" points="663.89,-808.89 669.57,-809.08 675.18,-809.37 680.72,-809.75 686.15,-810.23 691.46,-810.8 696.62,-811.46 701.61,-812.21 706.42,-813.05 711.02,-813.97 715.41,-814.98 719.55,-816.06 723.45,-817.22 727.09,-818.46 730.45,-819.76 733.53,-821.14 736.33,-822.57 738.82,-824.06 741.02,-825.61 742.92,-827.21 744.51,-828.85 745.8,-830.54 746.78,-832.26 747.47,-834.02 747.87,-835.8 747.97,-837.6 747.8,-839.43 747.35,-841.26 746.64,-843.1 745.67,-844.95 744.46,-846.79 743.02,-848.63 741.35,-850.45 739.48,-852.26 737.41,-854.04 735.16,-855.79 732.74,-857.52 730.16,-859.2 727.43,-860.85 724.57,-862.44 721.58,-863.99 718.49,-865.48 715.29,-866.92 712.01,-868.29 708.64,-869.59 705.21,-870.83 701.71,-871.99 698.16,-873.08 694.57,-874.08 690.93,-875 687.26,-875.84 683.56,-876.59 679.84,-877.25 676.09,-877.82 672.34,-878.3 668.57,-878.68 664.79,-878.97 661,-879.17 657.21,-879.26 653.42,-879.26 649.63,-879.17 645.85,-878.97 642.07,-878.68 638.3,-878.3 634.54,-877.82 630.8,-877.25 627.07,-876.59 623.37,-875.84 619.7,-875 616.07,-874.08 612.47,-873.08 608.92,-871.99 605.42,-870.83 601.99,-869.59 598.62,-868.29 595.34,-866.92 592.15,-865.48 589.05,-863.99 586.07,-862.44 583.2,-860.85 580.48,-859.2 577.89,-857.52 575.47,-855.79 573.22,-854.04 571.15,-852.26 569.28,-850.45 567.62,-848.63 566.17,-846.79 564.96,-844.95 564,-843.1 563.28,-841.26 562.84,-839.43 562.66,-837.6 562.77,-835.8 563.16,-834.02 563.85,-832.26 564.84,-830.54 566.12,-828.85 567.71,-827.21 569.61,-825.61 571.81,-824.06 574.31,-822.57 577.1,-821.14 580.18,-819.76 583.54,-818.46 587.18,-817.22 591.08,-816.06 595.23,-814.98 599.61,-813.97 604.21,-813.05 609.02,-812.21 614.01,-811.46 619.17,-810.8 624.48,-810.23 629.91,-809.75 635.45,-809.37 641.07,-809.08 646.74,-808.89 652.45,-808.79 658.18,-808.79 663.89,-808.89"/>
<text text-anchor="start" x="626.15" y="-853.83" font-family="Times,serif" font-size="14.00">C0016832</text>
<text text-anchor="start" x="601.85" y="-839.83" font-family="Times,serif" font-size="14.00">filamentous fungus</text>
<text text-anchor="start" x="639.37" y="-825.83" font-family="Times,serif" font-size="14.00">37:38</text>
</g>
<!-- id_28429154_DOT_12 -->
<g id="node12" class="node">
<title>id_28429154_DOT_12</title>
<polygon fill="darkgoldenrod" stroke="darkgoldenrod" points="821.2,-1203.23 824.63,-1203.42 828.02,-1203.71 831.36,-1204.09 834.64,-1204.57 837.85,-1205.14 840.96,-1205.8 843.98,-1206.55 846.88,-1207.39 849.66,-1208.31 852.31,-1209.32 854.81,-1210.4 857.17,-1211.56 859.36,-1212.8 861.4,-1214.1 863.26,-1215.48 864.94,-1216.91 866.45,-1218.4 867.78,-1219.95 868.92,-1221.55 869.88,-1223.19 870.66,-1224.88 871.26,-1226.6 871.67,-1228.36 871.91,-1230.14 871.98,-1231.94 871.87,-1233.77 871.6,-1235.6 871.17,-1237.44 870.59,-1239.29 869.85,-1241.13 868.98,-1242.97 867.98,-1244.79 866.85,-1246.6 865.6,-1248.38 864.24,-1250.13 862.78,-1251.86 861.22,-1253.54 859.57,-1255.19 857.84,-1256.78 856.04,-1258.33 854.17,-1259.82 852.24,-1261.26 850.26,-1262.63 848.23,-1263.93 846.15,-1265.17 844.04,-1266.33 841.9,-1267.42 839.72,-1268.42 837.53,-1269.34 835.31,-1270.18 833.08,-1270.93 830.83,-1271.59 828.57,-1272.16 826.3,-1272.64 824.02,-1273.02 821.74,-1273.31 819.45,-1273.51 817.16,-1273.6 814.88,-1273.6 812.59,-1273.51 810.3,-1273.31 808.02,-1273.02 805.74,-1272.64 803.47,-1272.16 801.21,-1271.59 798.96,-1270.93 796.73,-1270.18 794.51,-1269.34 792.32,-1268.42 790.14,-1267.42 788,-1266.33 785.89,-1265.17 783.81,-1263.93 781.78,-1262.63 779.8,-1261.26 777.87,-1259.82 776,-1258.33 774.2,-1256.78 772.47,-1255.19 770.82,-1253.54 769.26,-1251.86 767.8,-1250.13 766.44,-1248.38 765.19,-1246.6 764.06,-1244.79 763.06,-1242.97 762.18,-1241.13 761.45,-1239.29 760.87,-1237.44 760.44,-1235.6 760.17,-1233.77 760.06,-1231.94 760.13,-1230.14 760.37,-1228.36 760.78,-1226.6 761.38,-1224.88 762.15,-1223.19 763.12,-1221.55 764.26,-1219.95 765.59,-1218.4 767.1,-1216.91 768.78,-1215.48 770.64,-1214.1 772.68,-1212.8 774.87,-1211.56 777.23,-1210.4 779.73,-1209.32 782.38,-1208.31 785.16,-1207.39 788.06,-1206.55 791.08,-1205.8 794.19,-1205.14 797.4,-1204.57 800.68,-1204.09 804.02,-1203.71 807.41,-1203.42 810.84,-1203.23 814.29,-1203.13 817.75,-1203.13 821.2,-1203.23"/>
<text text-anchor="start" x="786.85" y="-1248.17" font-family="Times,serif" font-size="14.00">C0596988</text>
<text text-anchor="start" x="793.85" y="-1234.17" font-family="Times,serif" font-size="14.00">mutants</text>
<text text-anchor="start" x="800.07" y="-1220.17" font-family="Times,serif" font-size="14.00">56:56</text>
</g>
<!-- id_28429154_DOT_8&#45;&#45;id_28429154_DOT_12 -->
<g id="edge17" class="edge">
<title>id_28429154_DOT_8&#45;&#45;id_28429154_DOT_12</title>
<path fill="none" stroke="black" stroke-dasharray="1,5" d="M669.44,-878.68C699.92,-953.48 771.59,-1129.33 801.99,-1203.94"/>
<text text-anchor="middle" x="709.46" y="-1044.11" font-family="Times,serif" font-size="14.00">0.872154</text>
</g>
<!-- id_28429154_DOT_16 -->
<g id="node16" class="node">
<title>id_28429154_DOT_16</title>
<polygon fill="darkkhaki" stroke="darkkhaki" points="659.66,-410.11 663.7,-410.3 667.69,-410.59 671.62,-410.97 675.48,-411.45 679.25,-412.02 682.91,-412.68 686.46,-413.43 689.87,-414.27 693.14,-415.19 696.26,-416.2 699.2,-417.28 701.97,-418.45 704.55,-419.68 706.94,-420.99 709.13,-422.36 711.12,-423.79 712.89,-425.28 714.45,-426.83 715.8,-428.43 716.93,-430.07 717.84,-431.76 718.55,-433.48 719.03,-435.24 719.31,-437.02 719.39,-438.82 719.26,-440.65 718.95,-442.48 718.44,-444.33 717.75,-446.17 716.89,-448.01 715.87,-449.85 714.69,-451.67 713.36,-453.48 711.89,-455.26 710.29,-457.01 708.57,-458.74 706.73,-460.42 704.8,-462.07 702.76,-463.66 700.64,-465.21 698.44,-466.71 696.18,-468.14 693.84,-469.51 691.45,-470.82 689.01,-472.05 686.53,-473.21 684.01,-474.3 681.45,-475.3 678.87,-476.22 676.26,-477.06 673.64,-477.81 670.99,-478.47 668.33,-479.04 665.66,-479.52 662.98,-479.91 660.3,-480.19 657.61,-480.39 654.92,-480.48 652.23,-480.48 649.54,-480.39 646.85,-480.19 644.16,-479.91 641.48,-479.52 638.81,-479.04 636.16,-478.47 633.51,-477.81 630.88,-477.06 628.28,-476.22 625.69,-475.3 623.14,-474.3 620.62,-473.21 618.13,-472.05 615.69,-470.82 613.3,-469.51 610.97,-468.14 608.7,-466.71 606.5,-465.21 604.38,-463.66 602.35,-462.07 600.41,-460.42 598.58,-458.74 596.86,-457.01 595.26,-455.26 593.79,-453.48 592.46,-451.67 591.28,-449.85 590.25,-448.01 589.39,-446.17 588.71,-444.33 588.2,-442.48 587.88,-440.65 587.76,-438.82 587.83,-437.02 588.11,-435.24 588.6,-433.48 589.3,-431.76 590.22,-430.07 591.35,-428.43 592.69,-426.83 594.25,-425.28 596.03,-423.79 598.01,-422.36 600.2,-420.99 602.59,-419.68 605.17,-418.45 607.94,-417.28 610.89,-416.2 614,-415.19 617.27,-414.27 620.69,-413.43 624.23,-412.68 627.9,-412.02 631.67,-411.45 635.53,-410.97 639.46,-410.59 643.45,-410.3 647.48,-410.11 651.54,-410.01 655.61,-410.01 659.66,-410.11"/>
<text text-anchor="start" x="624.4" y="-455.05" font-family="Times,serif" font-size="14.00">C0015852</text>
<text text-anchor="start" x="617.81" y="-441.05" font-family="Times,serif" font-size="14.00">fermentation</text>
<text text-anchor="start" x="637.63" y="-427.05" font-family="Times,serif" font-size="14.00">89:89</text>
</g>
<!-- id_28429154_DOT_8&#45;&#45;id_28429154_DOT_16 -->
<g id="edge18" class="edge">
<title>id_28429154_DOT_8&#45;&#45;id_28429154_DOT_16</title>
<path fill="none" stroke="black" stroke-dasharray="1,5" d="M655.16,-808.64C654.83,-732.96 654.06,-556.16 653.73,-480.56"/>
<text text-anchor="middle" x="628.19" y="-647.4" font-family="Times,serif" font-size="14.00">0.733547</text>
</g>
<!-- id_28429154_DOT_19 -->
<g id="node19" class="node">
<title>id_28429154_DOT_19</title>
<polygon fill="chartreuse" stroke="chartreuse" points="279.89,-662.15 283.32,-662.34 286.72,-662.63 290.06,-663.02 293.34,-663.49 296.54,-664.06 299.66,-664.73 302.68,-665.48 305.58,-666.31 308.36,-667.24 311.01,-668.24 313.51,-669.33 315.86,-670.49 318.06,-671.72 320.09,-673.03 321.95,-674.4 323.64,-675.83 325.15,-677.33 326.48,-678.87 327.62,-680.47 328.58,-682.12 329.36,-683.8 329.95,-685.52 330.37,-687.28 330.61,-689.06 330.67,-690.87 330.57,-692.69 330.3,-694.52 329.87,-696.37 329.28,-698.21 328.55,-700.06 327.68,-701.89 326.68,-703.71 325.54,-705.52 324.3,-707.3 322.94,-709.06 321.47,-710.78 319.91,-712.46 318.27,-714.11 316.54,-715.71 314.73,-717.25 312.87,-718.75 310.94,-720.18 308.95,-721.55 306.92,-722.86 304.85,-724.09 302.74,-725.25 300.59,-726.34 298.42,-727.34 296.22,-728.27 294.01,-729.1 291.77,-729.85 289.52,-730.52 287.26,-731.09 284.99,-731.56 282.72,-731.95 280.44,-732.24 278.15,-732.43 275.86,-732.53 273.57,-732.53 271.28,-732.43 269,-732.24 266.71,-731.95 264.44,-731.56 262.17,-731.09 259.91,-730.52 257.66,-729.85 255.43,-729.1 253.21,-728.27 251.01,-727.34 248.84,-726.34 246.7,-725.25 244.58,-724.09 242.51,-722.86 240.48,-721.55 238.5,-720.18 236.57,-718.75 234.7,-717.25 232.9,-715.71 231.17,-714.11 229.52,-712.46 227.96,-710.78 226.5,-709.06 225.14,-707.3 223.89,-705.52 222.76,-703.71 221.75,-701.89 220.88,-700.06 220.15,-698.21 219.57,-696.37 219.14,-694.52 218.87,-692.69 218.76,-690.87 218.82,-689.06 219.06,-687.28 219.48,-685.52 220.07,-683.8 220.85,-682.12 221.81,-680.47 222.96,-678.87 224.28,-677.33 225.79,-675.83 227.48,-674.4 229.34,-673.03 231.37,-671.72 233.57,-670.49 235.92,-669.33 238.43,-668.24 241.07,-667.24 243.85,-666.31 246.76,-665.48 249.77,-664.73 252.89,-664.06 256.09,-663.49 259.37,-663.02 262.72,-662.63 266.11,-662.34 269.54,-662.15 272.99,-662.05 276.44,-662.05 279.89,-662.15"/>
<text text-anchor="start" x="245.55" y="-707.09" font-family="Times,serif" font-size="14.00">C0016832</text>
<text text-anchor="start" x="255.66" y="-693.09" font-family="Times,serif" font-size="14.00">fungus</text>
<text text-anchor="start" x="251.77" y="-679.09" font-family="Times,serif" font-size="14.00">100:100</text>
</g>
<!-- id_28429154_DOT_8&#45;&#45;id_28429154_DOT_19 -->
<g id="edge19" class="edge">
<title>id_28429154_DOT_8&#45;&#45;id_28429154_DOT_19</title>
<path fill="none" stroke="black" stroke-dasharray="1,5" d="M586.39,-817.45C508.52,-787.43 384.12,-739.47 318.51,-714.18"/>
<text text-anchor="middle" x="426.2" y="-768.61" font-family="Times,serif" font-size="14.00">0.386587</text>
</g>
<!-- id_28429154_DOT_13 -->
<g id="node13" class="node">
<title>id_28429154_DOT_13</title>
<polygon fill="cornflowerblue" stroke="cornflowerblue" points="3433.17,-1888.09 3439.37,-1888.28 3445.51,-1888.57 3451.56,-1888.95 3457.49,-1889.43 3463.28,-1890 3468.92,-1890.66 3474.37,-1891.41 3479.62,-1892.25 3484.65,-1893.17 3489.43,-1894.18 3493.96,-1895.26 3498.22,-1896.42 3502.19,-1897.66 3505.87,-1898.96 3509.23,-1900.33 3512.28,-1901.77 3515.01,-1903.26 3517.41,-1904.81 3519.48,-1906.41 3521.22,-1908.05 3522.62,-1909.74 3523.7,-1911.46 3524.45,-1913.21 3524.88,-1915 3525,-1916.8 3524.81,-1918.62 3524.32,-1920.46 3523.54,-1922.3 3522.48,-1924.15 3521.16,-1925.99 3519.59,-1927.83 3517.77,-1929.65 3515.73,-1931.45 3513.47,-1933.24 3511.01,-1934.99 3508.36,-1936.71 3505.54,-1938.4 3502.56,-1940.04 3499.44,-1941.64 3496.18,-1943.19 3492.8,-1944.68 3489.31,-1946.12 3485.72,-1947.49 3482.05,-1948.79 3478.3,-1950.03 3474.48,-1951.19 3470.6,-1952.27 3466.68,-1953.28 3462.7,-1954.2 3458.7,-1955.04 3454.66,-1955.79 3450.59,-1956.45 3446.5,-1957.02 3442.4,-1957.5 3438.28,-1957.88 3434.15,-1958.17 3430.02,-1958.36 3425.88,-1958.46 3421.74,-1958.46 3417.6,-1958.36 3413.47,-1958.17 3409.34,-1957.88 3405.22,-1957.5 3401.12,-1957.02 3397.03,-1956.45 3392.97,-1955.79 3388.93,-1955.04 3384.92,-1954.2 3380.95,-1953.28 3377.02,-1952.27 3373.14,-1951.19 3369.32,-1950.03 3365.57,-1948.79 3361.9,-1947.49 3358.31,-1946.12 3354.82,-1944.68 3351.44,-1943.19 3348.18,-1941.64 3345.06,-1940.04 3342.08,-1938.4 3339.26,-1936.71 3336.61,-1934.99 3334.15,-1933.24 3331.89,-1931.45 3329.85,-1929.65 3328.03,-1927.83 3326.46,-1925.99 3325.14,-1924.15 3324.08,-1922.3 3323.3,-1920.46 3322.81,-1918.62 3322.62,-1916.8 3322.74,-1915 3323.17,-1913.21 3323.92,-1911.46 3325,-1909.74 3326.4,-1908.05 3328.14,-1906.41 3330.21,-1904.81 3332.61,-1903.26 3335.34,-1901.77 3338.39,-1900.33 3341.76,-1898.96 3345.43,-1897.66 3349.4,-1896.42 3353.66,-1895.26 3358.19,-1894.18 3362.97,-1893.17 3368,-1892.25 3373.25,-1891.41 3378.7,-1890.66 3384.34,-1890 3390.13,-1889.43 3396.07,-1888.95 3402.11,-1888.57 3408.25,-1888.28 3414.45,-1888.09 3420.68,-1887.99 3426.94,-1887.99 3433.17,-1888.09"/>
<text text-anchor="start" x="3394.9" y="-1933.02" font-family="Times,serif" font-size="14.00">C1157836</text>
<text text-anchor="start" x="3364.52" y="-1919.02" font-family="Times,serif" font-size="14.00">cellulose metabolism</text>
<text text-anchor="start" x="3407.87" y="-1905.02" font-family="Times,serif" font-size="14.00">69:70</text>
</g>
<!-- id_28429154_DOT_10&#45;&#45;id_28429154_DOT_13 -->
<g id="edge6" class="edge">
<title>id_28429154_DOT_10&#45;&#45;id_28429154_DOT_13</title>
<path fill="none" stroke="black" d="M3701.54,-2109.92C3638.61,-2067.62 3529.18,-1994.05 3468.16,-1953.03"/>
<text text-anchor="middle" x="3558.6" y="-2034.27" font-family="Times,serif" font-size="14.00">0.004234</text>
</g>
<!-- id_28429154_DOT_11 -->
<g id="node11" class="node">
<title>id_28429154_DOT_11</title>
<polygon fill="crimson" stroke="crimson" points="4653.26,-2877.34 4656.94,-2877.53 4660.59,-2877.82 4664.18,-2878.2 4667.71,-2878.68 4671.15,-2879.25 4674.5,-2879.91 4677.74,-2880.66 4680.86,-2881.5 4683.85,-2882.42 4686.69,-2883.43 4689.38,-2884.51 4691.91,-2885.68 4694.27,-2886.91 4696.46,-2888.22 4698.46,-2889.59 4700.27,-2891.02 4701.89,-2892.51 4703.32,-2894.06 4704.55,-2895.66 4705.58,-2897.3 4706.41,-2898.99 4707.05,-2900.71 4707.5,-2902.47 4707.76,-2904.25 4707.83,-2906.05 4707.71,-2907.88 4707.42,-2909.71 4706.96,-2911.56 4706.33,-2913.4 4705.55,-2915.24 4704.61,-2917.08 4703.53,-2918.9 4702.32,-2920.71 4700.97,-2922.49 4699.51,-2924.24 4697.94,-2925.97 4696.26,-2927.65 4694.49,-2929.3 4692.64,-2930.89 4690.7,-2932.44 4688.69,-2933.94 4686.62,-2935.37 4684.49,-2936.74 4682.3,-2938.05 4680.07,-2939.28 4677.81,-2940.44 4675.5,-2941.53 4673.17,-2942.53 4670.81,-2943.45 4668.43,-2944.29 4666.02,-2945.04 4663.61,-2945.7 4661.18,-2946.27 4658.74,-2946.75 4656.29,-2947.14 4653.84,-2947.42 4651.38,-2947.62 4648.93,-2947.71 4646.47,-2947.71 4644.01,-2947.62 4641.55,-2947.42 4639.1,-2947.14 4636.65,-2946.75 4634.21,-2946.27 4631.78,-2945.7 4629.37,-2945.04 4626.97,-2944.29 4624.58,-2943.45 4622.22,-2942.53 4619.89,-2941.53 4617.58,-2940.44 4615.32,-2939.28 4613.09,-2938.05 4610.9,-2936.74 4608.77,-2935.37 4606.7,-2933.94 4604.69,-2932.44 4602.75,-2930.89 4600.9,-2929.3 4599.13,-2927.65 4597.45,-2925.97 4595.88,-2924.24 4594.42,-2922.49 4593.07,-2920.71 4591.86,-2918.9 4590.78,-2917.08 4589.84,-2915.24 4589.06,-2913.4 4588.43,-2911.56 4587.97,-2909.71 4587.68,-2907.88 4587.56,-2906.05 4587.63,-2904.25 4587.89,-2902.47 4588.34,-2900.71 4588.98,-2898.99 4589.81,-2897.3 4590.84,-2895.66 4592.07,-2894.06 4593.5,-2892.51 4595.12,-2891.02 4596.93,-2889.59 4598.93,-2888.22 4601.12,-2886.91 4603.48,-2885.68 4606.01,-2884.51 4608.7,-2883.43 4611.54,-2882.42 4614.53,-2881.5 4617.65,-2880.66 4620.89,-2879.91 4624.24,-2879.25 4627.68,-2878.68 4631.21,-2878.2 4634.8,-2877.82 4638.45,-2877.53 4642.13,-2877.34 4645.84,-2877.24 4649.55,-2877.24 4653.26,-2877.34"/>
<text text-anchor="start" x="4618.53" y="-2922.28" font-family="Times,serif" font-size="14.00">C1522225</text>
<text text-anchor="start" x="4615.81" y="-2908.28" font-family="Times,serif" font-size="14.00">knock &#45; out</text>
<text text-anchor="start" x="4631.75" y="-2894.28" font-family="Times,serif" font-size="14.00">53:55</text>
</g>
<!-- id_28429154_DOT_11&#45;&#45;id_28429154_DOT_21 -->
<g id="edge20" class="edge">
<title>id_28429154_DOT_11&#45;&#45;id_28429154_DOT_21</title>
<path fill="none" stroke="black" stroke-dasharray="1,5" d="M4592.84,-2893.09C4520.13,-2867.4 4393,-2822.47 4323.92,-2798.06"/>
<text text-anchor="middle" x="4432.13" y="-2848.38" font-family="Times,serif" font-size="14.00">0.820982</text>
</g>
<!-- id_28429154_DOT_12&#45;&#45;id_28429154_DOT_14 -->
<g id="edge21" class="edge">
<title>id_28429154_DOT_12&#45;&#45;id_28429154_DOT_14</title>
<path fill="none" stroke="black" stroke-dasharray="1,5" d="M861.82,-1253.38C939.04,-1278.69 1094.7,-1329.71 1176.42,-1356.49"/>
<text text-anchor="middle" x="992.87" y="-1307.74" font-family="Times,serif" font-size="14.00">0.789666</text>
</g>
<!-- id_28429154_DOT_12&#45;&#45;id_28429154_DOT_20 -->
<g id="edge22" class="edge">
<title>id_28429154_DOT_12&#45;&#45;id_28429154_DOT_20</title>
<path fill="none" stroke="black" stroke-dasharray="1,5" d="M772.91,-1255.88C703.14,-1284.23 565.01,-1340.35 482.78,-1373.76"/>
<text text-anchor="middle" x="601.6" y="-1317.62" font-family="Times,serif" font-size="14.00">0.879599</text>
</g>
<!-- id_28429154_DOT_23 -->
<g id="node23" class="node">
<title>id_28429154_DOT_23</title>
<polygon fill="chartreuse" stroke="chartreuse" points="681.41,-1572.37 684.84,-1572.56 688.23,-1572.85 691.57,-1573.23 694.85,-1573.71 698.06,-1574.28 701.17,-1574.94 704.19,-1575.69 707.09,-1576.53 709.87,-1577.45 712.52,-1578.46 715.02,-1579.54 717.38,-1580.71 719.57,-1581.94 721.61,-1583.24 723.47,-1584.62 725.15,-1586.05 726.66,-1587.54 727.99,-1589.09 729.13,-1590.69 730.09,-1592.33 730.87,-1594.02 731.47,-1595.74 731.88,-1597.5 732.12,-1599.28 732.19,-1601.08 732.08,-1602.91 731.81,-1604.74 731.38,-1606.58 730.8,-1608.43 730.06,-1610.27 729.19,-1612.11 728.19,-1613.93 727.06,-1615.74 725.81,-1617.52 724.45,-1619.27 722.99,-1621 721.43,-1622.68 719.78,-1624.33 718.05,-1625.92 716.25,-1627.47 714.38,-1628.96 712.45,-1630.4 710.47,-1631.77 708.43,-1633.08 706.36,-1634.31 704.25,-1635.47 702.11,-1636.56 699.93,-1637.56 697.74,-1638.48 695.52,-1639.32 693.29,-1640.07 691.04,-1640.73 688.78,-1641.3 686.51,-1641.78 684.23,-1642.16 681.95,-1642.45 679.66,-1642.65 677.37,-1642.74 675.08,-1642.74 672.8,-1642.65 670.51,-1642.45 668.23,-1642.16 665.95,-1641.78 663.68,-1641.3 661.42,-1640.73 659.17,-1640.07 656.94,-1639.32 654.72,-1638.48 652.53,-1637.56 650.35,-1636.56 648.21,-1635.47 646.1,-1634.31 644.02,-1633.08 641.99,-1631.77 640.01,-1630.4 638.08,-1628.96 636.21,-1627.47 634.41,-1625.92 632.68,-1624.33 631.03,-1622.68 629.47,-1621 628.01,-1619.27 626.65,-1617.52 625.4,-1615.74 624.27,-1613.93 623.27,-1612.11 622.39,-1610.27 621.66,-1608.43 621.08,-1606.58 620.65,-1604.74 620.38,-1602.91 620.27,-1601.08 620.34,-1599.28 620.58,-1597.5 620.99,-1595.74 621.59,-1594.02 622.36,-1592.33 623.33,-1590.69 624.47,-1589.09 625.8,-1587.54 627.31,-1586.05 628.99,-1584.62 630.85,-1583.24 632.89,-1581.94 635.08,-1580.71 637.44,-1579.54 639.94,-1578.46 642.59,-1577.45 645.37,-1576.53 648.27,-1575.69 651.29,-1574.94 654.4,-1574.28 657.61,-1573.71 660.89,-1573.23 664.23,-1572.85 667.62,-1572.56 671.05,-1572.37 674.5,-1572.27 677.96,-1572.27 681.41,-1572.37"/>
<text text-anchor="start" x="647.06" y="-1617.31" font-family="Times,serif" font-size="14.00">C0016832</text>
<text text-anchor="start" x="656.02" y="-1603.31" font-family="Times,serif" font-size="14.00">parents</text>
<text text-anchor="start" x="653.28" y="-1589.31" font-family="Times,serif" font-size="14.00">142:142</text>
</g>
<!-- id_28429154_DOT_12&#45;&#45;id_28429154_DOT_23 -->
<g id="edge23" class="edge">
<title>id_28429154_DOT_12&#45;&#45;id_28429154_DOT_23</title>
<path fill="none" stroke="black" stroke-dasharray="1,5" d="M803.12,-1272.43C776.59,-1342.49 716.17,-1502.05 689.4,-1572.72"/>
<text text-anchor="middle" x="720.27" y="-1425.38" font-family="Times,serif" font-size="14.00">0.867118</text>
</g>
<!-- id_28429154_DOT_27 -->
<g id="node27" class="node">
<title>id_28429154_DOT_27</title>
<polygon fill="blue" stroke="blue" points="3113.81,-1666.78 3120.22,-1666.97 3126.57,-1667.26 3132.83,-1667.64 3138.97,-1668.12 3144.97,-1668.69 3150.8,-1669.35 3156.44,-1670.1 3161.88,-1670.94 3167.08,-1671.86 3172.03,-1672.87 3176.72,-1673.95 3181.12,-1675.11 3185.23,-1676.35 3189.04,-1677.65 3192.52,-1679.03 3195.68,-1680.46 3198.5,-1681.95 3200.98,-1683.5 3203.13,-1685.1 3204.92,-1686.74 3206.38,-1688.43 3207.5,-1690.15 3208.27,-1691.91 3208.72,-1693.69 3208.84,-1695.49 3208.64,-1697.32 3208.13,-1699.15 3207.33,-1700.99 3206.24,-1702.84 3204.87,-1704.68 3203.24,-1706.52 3201.36,-1708.34 3199.24,-1710.15 3196.9,-1711.93 3194.36,-1713.68 3191.62,-1715.41 3188.7,-1717.09 3185.62,-1718.74 3182.38,-1720.33 3179.01,-1721.88 3175.51,-1723.37 3171.9,-1724.81 3168.19,-1726.18 3164.39,-1727.48 3160.51,-1728.72 3156.56,-1729.88 3152.54,-1730.97 3148.48,-1731.97 3144.37,-1732.89 3140.22,-1733.73 3136.04,-1734.48 3131.83,-1735.14 3127.6,-1735.71 3123.35,-1736.19 3119.09,-1736.57 3114.82,-1736.86 3110.54,-1737.06 3106.26,-1737.15 3101.98,-1737.15 3097.69,-1737.06 3093.41,-1736.86 3089.14,-1736.57 3084.88,-1736.19 3080.63,-1735.71 3076.4,-1735.14 3072.2,-1734.48 3068.02,-1733.73 3063.87,-1732.89 3059.76,-1731.97 3055.69,-1730.97 3051.68,-1729.88 3047.73,-1728.72 3043.85,-1727.48 3040.05,-1726.18 3036.33,-1724.81 3032.72,-1723.37 3029.22,-1721.88 3025.85,-1720.33 3022.62,-1718.74 3019.53,-1717.09 3016.62,-1715.41 3013.88,-1713.68 3011.33,-1711.93 3008.99,-1710.15 3006.88,-1708.34 3005,-1706.52 3003.37,-1704.68 3002,-1702.84 3000.91,-1700.99 3000.1,-1699.15 2999.6,-1697.32 2999.4,-1695.49 2999.52,-1693.69 2999.96,-1691.91 3000.74,-1690.15 3001.86,-1688.43 3003.31,-1686.74 3005.11,-1685.1 3007.25,-1683.5 3009.74,-1681.95 3012.56,-1680.46 3015.72,-1679.03 3019.2,-1677.65 3023,-1676.35 3027.11,-1675.11 3031.52,-1673.95 3036.2,-1672.87 3041.16,-1671.86 3046.36,-1670.94 3051.79,-1670.1 3057.44,-1669.35 3063.27,-1668.69 3069.27,-1668.12 3075.41,-1667.64 3081.66,-1667.26 3088.01,-1666.97 3094.43,-1666.78 3100.88,-1666.68 3107.35,-1666.68 3113.81,-1666.78"/>
<text text-anchor="start" x="3074.95" y="-1711.72" font-family="Times,serif" font-size="14.00">C0678710</text>
<text text-anchor="start" x="3042.49" y="-1697.72" font-family="Times,serif" font-size="14.00">bioethanol production</text>
<text text-anchor="start" x="3081.17" y="-1683.72" font-family="Times,serif" font-size="14.00">174:175</text>
</g>
<!-- id_28429154_DOT_13&#45;&#45;id_28429154_DOT_27 -->
<g id="edge24" class="edge">
<title>id_28429154_DOT_13&#45;&#45;id_28429154_DOT_27</title>
<path fill="none" stroke="black" stroke-dasharray="1,5" d="M3376.98,-1890.81C3315.41,-1848.19 3208.04,-1773.86 3147.99,-1732.29"/>
<text text-anchor="middle" x="3236.23" y="-1814.35" font-family="Times,serif" font-size="14.00">0.773421</text>
</g>
<!-- id_28429154_DOT_14&#45;&#45;id_28429154_DOT_17 -->
<g id="edge25" class="edge">
<title>id_28429154_DOT_14&#45;&#45;id_28429154_DOT_17</title>
<path fill="none" stroke="black" stroke-dasharray="1,5" d="M1283.52,-1375.69C1364.06,-1378.48 1514.43,-1383.69 1595.62,-1386.5"/>
<text text-anchor="middle" x="1413.32" y="-1383.9" font-family="Times,serif" font-size="14.00">0.831870</text>
</g>
<!-- id_28429154_DOT_18 -->
<g id="node18" class="node">
<title>id_28429154_DOT_18</title>
<polygon fill="darkorange" stroke="darkorange" points="1694.42,-1761.89 1697.85,-1762.08 1701.24,-1762.37 1704.58,-1762.75 1707.86,-1763.23 1711.07,-1763.8 1714.19,-1764.46 1717.2,-1765.21 1720.1,-1766.05 1722.88,-1766.97 1725.53,-1767.98 1728.04,-1769.06 1730.39,-1770.22 1732.59,-1771.46 1734.62,-1772.76 1736.48,-1774.13 1738.17,-1775.57 1739.67,-1777.06 1741,-1778.61 1742.15,-1780.21 1743.11,-1781.85 1743.88,-1783.54 1744.48,-1785.26 1744.9,-1787.01 1745.13,-1788.8 1745.2,-1790.6 1745.09,-1792.42 1744.82,-1794.26 1744.39,-1796.1 1743.81,-1797.95 1743.08,-1799.79 1742.21,-1801.63 1741.2,-1803.45 1740.07,-1805.25 1738.82,-1807.04 1737.46,-1808.79 1736,-1810.51 1734.44,-1812.2 1732.79,-1813.84 1731.06,-1815.44 1729.26,-1816.99 1727.39,-1818.48 1725.46,-1819.92 1723.48,-1821.29 1721.45,-1822.59 1719.37,-1823.83 1717.26,-1824.99 1715.12,-1826.07 1712.95,-1827.08 1710.75,-1828 1708.53,-1828.84 1706.3,-1829.59 1704.05,-1830.25 1701.79,-1830.82 1699.52,-1831.3 1697.24,-1831.68 1694.96,-1831.97 1692.67,-1832.16 1690.39,-1832.26 1688.1,-1832.26 1685.81,-1832.16 1683.52,-1831.97 1681.24,-1831.68 1678.96,-1831.3 1676.69,-1830.82 1674.43,-1830.25 1672.18,-1829.59 1669.95,-1828.84 1667.73,-1828 1665.54,-1827.08 1663.37,-1826.07 1661.22,-1824.99 1659.11,-1823.83 1657.04,-1822.59 1655,-1821.29 1653.02,-1819.92 1651.09,-1818.48 1649.22,-1816.99 1647.42,-1815.44 1645.69,-1813.84 1644.04,-1812.2 1642.49,-1810.51 1641.02,-1808.79 1639.66,-1807.04 1638.41,-1805.25 1637.28,-1803.45 1636.28,-1801.63 1635.41,-1799.79 1634.68,-1797.95 1634.09,-1796.1 1633.66,-1794.26 1633.39,-1792.42 1633.28,-1790.6 1633.35,-1788.8 1633.59,-1787.01 1634,-1785.26 1634.6,-1783.54 1635.38,-1781.85 1636.34,-1780.21 1637.48,-1778.61 1638.81,-1777.06 1640.32,-1775.57 1642,-1774.13 1643.87,-1772.76 1645.9,-1771.46 1648.09,-1770.22 1650.45,-1769.06 1652.95,-1767.98 1655.6,-1766.97 1658.38,-1766.05 1661.28,-1765.21 1664.3,-1764.46 1667.41,-1763.8 1670.62,-1763.23 1673.9,-1762.75 1677.24,-1762.37 1680.64,-1762.08 1684.06,-1761.89 1687.51,-1761.79 1690.97,-1761.79 1694.42,-1761.89"/>
<text text-anchor="start" x="1660.07" y="-1806.83" font-family="Times,serif" font-size="14.00">C3161035</text>
<text text-anchor="start" x="1671.74" y="-1792.83" font-family="Times,serif" font-size="14.00">model</text>
<text text-anchor="start" x="1673.3" y="-1778.83" font-family="Times,serif" font-size="14.00">99:99</text>
</g>
<!-- id_28429154_DOT_17&#45;&#45;id_28429154_DOT_18 -->
<g id="edge26" class="edge">
<title>id_28429154_DOT_17&#45;&#45;id_28429154_DOT_18</title>
<path fill="none" stroke="black" stroke-dasharray="1,5" d="M1654.32,-1423.61C1661.54,-1500.85 1678.72,-1684.48 1685.94,-1761.77"/>
<text text-anchor="middle" x="1643.88" y="-1595.49" font-family="Times,serif" font-size="14.00">0.844708</text>
</g>
<!-- id_28429154_DOT_22 -->
<g id="node22" class="node">
<title>id_28429154_DOT_22</title>
<polygon fill="chartreuse" stroke="chartreuse" points="4216.86,-3156.06 4220.37,-3156.25 4223.85,-3156.54 4227.27,-3156.93 4230.63,-3157.4 4233.91,-3157.97 4237.1,-3158.63 4240.19,-3159.39 4243.16,-3160.22 4246,-3161.15 4248.71,-3162.15 4251.28,-3163.24 4253.69,-3164.4 4255.94,-3165.63 4258.02,-3166.94 4259.92,-3168.31 4261.65,-3169.74 4263.19,-3171.23 4264.55,-3172.78 4265.72,-3174.38 4266.71,-3176.02 4267.5,-3177.71 4268.11,-3179.43 4268.54,-3181.19 4268.78,-3182.97 4268.85,-3184.78 4268.74,-3186.6 4268.46,-3188.43 4268.02,-3190.28 4267.42,-3192.12 4266.68,-3193.96 4265.78,-3195.8 4264.75,-3197.62 4263.6,-3199.43 4262.32,-3201.21 4260.93,-3202.96 4259.43,-3204.69 4257.83,-3206.37 4256.15,-3208.02 4254.38,-3209.62 4252.53,-3211.16 4250.62,-3212.66 4248.64,-3214.09 4246.61,-3215.46 4244.53,-3216.77 4242.41,-3218 4240.25,-3219.16 4238.05,-3220.25 4235.83,-3221.25 4233.58,-3222.18 4231.31,-3223.01 4229.02,-3223.76 4226.72,-3224.42 4224.41,-3224.99 4222.09,-3225.47 4219.76,-3225.86 4217.42,-3226.14 4215.08,-3226.34 4212.74,-3226.43 4210.39,-3226.43 4208.05,-3226.34 4205.71,-3226.14 4203.37,-3225.86 4201.04,-3225.47 4198.72,-3224.99 4196.4,-3224.42 4194.1,-3223.76 4191.82,-3223.01 4189.55,-3222.18 4187.3,-3221.25 4185.07,-3220.25 4182.88,-3219.16 4180.72,-3218 4178.59,-3216.77 4176.51,-3215.46 4174.48,-3214.09 4172.51,-3212.66 4170.6,-3211.16 4168.75,-3209.62 4166.98,-3208.02 4165.29,-3206.37 4163.7,-3204.69 4162.2,-3202.96 4160.81,-3201.21 4159.53,-3199.43 4158.37,-3197.62 4157.34,-3195.8 4156.45,-3193.96 4155.7,-3192.12 4155.11,-3190.28 4154.67,-3188.43 4154.39,-3186.6 4154.28,-3184.78 4154.35,-3182.97 4154.59,-3181.19 4155.01,-3179.43 4155.62,-3177.71 4156.42,-3176.02 4157.4,-3174.38 4158.58,-3172.78 4159.94,-3171.23 4161.48,-3169.74 4163.21,-3168.31 4165.11,-3166.94 4167.19,-3165.63 4169.44,-3164.4 4171.85,-3163.24 4174.41,-3162.15 4177.12,-3161.15 4179.97,-3160.22 4182.94,-3159.39 4186.03,-3158.63 4189.22,-3157.97 4192.5,-3157.4 4195.86,-3156.93 4199.28,-3156.54 4202.75,-3156.25 4206.26,-3156.06 4209.79,-3155.96 4213.33,-3155.96 4216.86,-3156.06"/>
<text text-anchor="start" x="4182.39" y="-3201" font-family="Times,serif" font-size="14.00">C0016832</text>
<text text-anchor="start" x="4181.62" y="-3187" font-family="Times,serif" font-size="14.00">population</text>
<text text-anchor="start" x="4188.62" y="-3173" font-family="Times,serif" font-size="14.00">139:139</text>
</g>
<!-- id_28429154_DOT_21&#45;&#45;id_28429154_DOT_22 -->
<g id="edge7" class="edge">
<title>id_28429154_DOT_21&#45;&#45;id_28429154_DOT_22</title>
<path fill="none" stroke="black" d="M4270.4,-2816.42C4258.23,-2893.94 4229.3,-3078.24 4217.12,-3155.82"/>
<text text-anchor="middle" x="4217.51" y="-2988.92" font-family="Times,serif" font-size="14.00">0.002692</text>
</g>
<!-- id_28429154_DOT_24&#45;&#45;id_28429154_DOT_27 -->
<g id="edge8" class="edge">
<title>id_28429154_DOT_24&#45;&#45;id_28429154_DOT_27</title>
<path fill="none" stroke="black" d="M2826.07,-1493.96C2885.79,-1538.62 2997.94,-1622.5 3059.99,-1668.92"/>
<text text-anchor="middle" x="2916.78" y="-1584.24" font-family="Times,serif" font-size="14.00">0.018219</text>
</g>
</g>
</svg>
