<?xml version="1.0" encoding="UTF-8" standalone="no"?>
<!DOCTYPE svg PUBLIC "-//W3C//DTD SVG 1.1//EN"
 "http://www.w3.org/Graphics/SVG/1.1/DTD/svg11.dtd">
<!-- Generated by graphviz version 2.42.3 (20191010.1750)
 -->
<!-- Title: MST Pages: 1 -->
<svg width="5229pt" height="3723pt"
 viewBox="0.00 0.00 5229.23 3723.18" xmlns="http://www.w3.org/2000/svg" xmlns:xlink="http://www.w3.org/1999/xlink">
<g id="graph0" class="graph" transform="scale(1 1) rotate(0) translate(4 3719.18)">
<title>MST</title>
<polygon fill="white" stroke="transparent" points="-4,4 -4,-3719.18 5225.23,-3719.18 5225.23,4 -4,4"/>
<!-- id_28434897_DOT_1 -->
<g id="node1" class="node">
<title>id_28434897_DOT_1</title>
<polygon fill="aquamarine" stroke="aquamarine" points="1993.57,-775.88 1997.95,-776.07 2002.29,-776.36 2006.57,-776.75 2010.76,-777.22 2014.86,-777.79 2018.85,-778.46 2022.7,-779.21 2026.41,-780.04 2029.97,-780.97 2033.35,-781.97 2036.56,-783.06 2039.57,-784.22 2042.38,-785.45 2044.98,-786.76 2047.36,-788.13 2049.51,-789.56 2051.44,-791.06 2053.14,-792.6 2054.6,-794.2 2055.83,-795.85 2056.83,-797.53 2057.59,-799.25 2058.12,-801.01 2058.43,-802.79 2058.51,-804.6 2058.37,-806.42 2058.03,-808.26 2057.48,-810.1 2056.73,-811.94 2055.79,-813.79 2054.68,-815.62 2053.4,-817.44 2051.95,-819.25 2050.35,-821.03 2048.61,-822.79 2046.74,-824.51 2044.75,-826.2 2042.64,-827.84 2040.43,-829.44 2038.12,-830.99 2035.73,-832.48 2033.27,-833.91 2030.73,-835.28 2028.13,-836.59 2025.48,-837.82 2022.78,-838.98 2020.04,-840.07 2017.26,-841.07 2014.45,-842 2011.62,-842.83 2008.76,-843.59 2005.88,-844.25 2002.99,-844.82 2000.09,-845.29 1997.18,-845.68 1994.26,-845.97 1991.33,-846.16 1988.41,-846.26 1985.48,-846.26 1982.55,-846.16 1979.63,-845.97 1976.71,-845.68 1973.8,-845.29 1970.9,-844.82 1968.01,-844.25 1965.13,-843.59 1962.27,-842.83 1959.44,-842 1956.63,-841.07 1953.85,-840.07 1951.11,-838.98 1948.41,-837.82 1945.76,-836.59 1943.16,-835.28 1940.62,-833.91 1938.15,-832.48 1935.76,-830.99 1933.46,-829.44 1931.25,-827.84 1929.14,-826.2 1927.15,-824.51 1925.28,-822.79 1923.54,-821.03 1921.94,-819.25 1920.49,-817.44 1919.21,-815.62 1918.09,-813.79 1917.16,-811.94 1916.41,-810.1 1915.86,-808.26 1915.52,-806.42 1915.38,-804.6 1915.46,-802.79 1915.77,-801.01 1916.3,-799.25 1917.06,-797.53 1918.06,-795.85 1919.28,-794.2 1920.75,-792.6 1922.45,-791.06 1924.38,-789.56 1926.53,-788.13 1928.91,-786.76 1931.51,-785.45 1934.32,-784.22 1937.33,-783.06 1940.53,-781.97 1943.92,-780.97 1947.47,-780.04 1951.19,-779.21 1955.04,-778.46 1959.03,-777.79 1963.13,-777.22 1967.32,-776.75 1971.6,-776.36 1975.94,-776.07 1980.32,-775.88 1984.73,-775.79 1989.15,-775.79 1993.57,-775.88"/>
<text text-anchor="start" x="1957.78" y="-820.82" font-family="Times,serif" font-size="14.00">C0014507</text>
<text text-anchor="start" x="1947.28" y="-806.82" font-family="Times,serif" font-size="14.00">Epidemiology</text>
<text text-anchor="start" x="1978" y="-792.82" font-family="Times,serif" font-size="14.00">0:0</text>
</g>
<!-- id_28434897_DOT_9 -->
<g id="node9" class="node">
<title>id_28434897_DOT_9</title>
<polygon fill="aquamarine" stroke="aquamarine" points="1848.85,-385.22 1853.14,-385.42 1857.39,-385.7 1861.57,-386.09 1865.68,-386.57 1869.69,-387.14 1873.59,-387.8 1877.37,-388.55 1881,-389.39 1884.48,-390.31 1887.79,-391.31 1890.93,-392.4 1893.88,-393.56 1896.62,-394.79 1899.17,-396.1 1901.5,-397.47 1903.61,-398.9 1905.5,-400.4 1907.16,-401.94 1908.59,-403.54 1909.79,-405.19 1910.77,-406.87 1911.51,-408.6 1912.03,-410.35 1912.33,-412.13 1912.41,-413.94 1912.28,-415.76 1911.94,-417.6 1911.4,-419.44 1910.67,-421.28 1909.76,-423.13 1908.67,-424.96 1907.41,-426.78 1905.99,-428.59 1904.43,-430.37 1902.73,-432.13 1900.9,-433.85 1898.94,-435.54 1896.88,-437.18 1894.72,-438.78 1892.46,-440.33 1890.12,-441.82 1887.71,-443.25 1885.23,-444.62 1882.68,-445.93 1880.09,-447.16 1877.44,-448.33 1874.76,-449.41 1872.04,-450.41 1869.29,-451.34 1866.52,-452.18 1863.72,-452.93 1860.91,-453.59 1858.08,-454.16 1855.24,-454.63 1852.39,-455.02 1849.53,-455.31 1846.67,-455.5 1843.8,-455.6 1840.94,-455.6 1838.07,-455.5 1835.21,-455.31 1832.35,-455.02 1829.5,-454.63 1826.66,-454.16 1823.83,-453.59 1821.02,-452.93 1818.22,-452.18 1815.45,-451.34 1812.7,-450.41 1809.98,-449.41 1807.3,-448.33 1804.65,-447.16 1802.06,-445.93 1799.52,-444.62 1797.03,-443.25 1794.62,-441.82 1792.28,-440.33 1790.02,-438.78 1787.86,-437.18 1785.8,-435.54 1783.84,-433.85 1782.01,-432.13 1780.31,-430.37 1778.75,-428.59 1777.33,-426.78 1776.07,-424.96 1774.98,-423.13 1774.07,-421.28 1773.34,-419.44 1772.8,-417.6 1772.46,-415.76 1772.33,-413.94 1772.41,-412.13 1772.71,-410.35 1773.23,-408.6 1773.97,-406.87 1774.95,-405.19 1776.15,-403.54 1777.58,-401.94 1779.24,-400.4 1781.13,-398.9 1783.24,-397.47 1785.57,-396.1 1788.12,-394.79 1790.86,-393.56 1793.81,-392.4 1796.95,-391.31 1800.26,-390.31 1803.74,-389.39 1807.37,-388.55 1811.15,-387.8 1815.05,-387.14 1819.06,-386.57 1823.17,-386.09 1827.35,-385.7 1831.6,-385.42 1835.89,-385.22 1840.21,-385.13 1844.53,-385.13 1848.85,-385.22"/>
<text text-anchor="start" x="1813.2" y="-430.16" font-family="Times,serif" font-size="14.00">C0014507</text>
<text text-anchor="start" x="1803.88" y="-416.16" font-family="Times,serif" font-size="14.00">epidemiology</text>
<text text-anchor="start" x="1826.43" y="-402.16" font-family="Times,serif" font-size="14.00">29:29</text>
</g>
<!-- id_28434897_DOT_1&#45;&#45;id_28434897_DOT_9 -->
<g id="edge1" class="edge">
<title>id_28434897_DOT_1&#45;&#45;id_28434897_DOT_9</title>
<path fill="none" stroke="black" d="M1973.99,-776.01C1946.47,-701.66 1882.49,-528.78 1855.14,-454.88"/>
<text text-anchor="middle" x="1888.31" y="-618.24" font-family="Times,serif" font-size="14.00">0.002560</text>
</g>
<!-- id_28434897_DOT_17 -->
<g id="node17" class="node">
<title>id_28434897_DOT_17</title>
<polygon fill="darkgoldenrod" stroke="darkgoldenrod" points="2259.73,-1110.79 2265.63,-1110.98 2271.46,-1111.27 2277.2,-1111.65 2282.84,-1112.13 2288.35,-1112.7 2293.7,-1113.36 2298.88,-1114.11 2303.87,-1114.95 2308.65,-1115.87 2313.2,-1116.88 2317.5,-1117.96 2321.55,-1119.12 2325.32,-1120.36 2328.81,-1121.66 2332.01,-1123.04 2334.91,-1124.47 2337.5,-1125.96 2339.78,-1127.51 2341.75,-1129.11 2343.4,-1130.75 2344.74,-1132.44 2345.76,-1134.16 2346.47,-1135.92 2346.88,-1137.7 2346.99,-1139.5 2346.81,-1141.33 2346.35,-1143.16 2345.61,-1145 2344.6,-1146.85 2343.35,-1148.69 2341.85,-1150.53 2340.12,-1152.35 2338.18,-1154.16 2336.03,-1155.94 2333.7,-1157.69 2331.18,-1159.42 2328.5,-1161.1 2325.67,-1162.75 2322.7,-1164.34 2319.61,-1165.89 2316.39,-1167.38 2313.08,-1168.82 2309.67,-1170.19 2306.18,-1171.49 2302.61,-1172.73 2298.99,-1173.89 2295.3,-1174.98 2291.57,-1175.98 2287.8,-1176.9 2283.99,-1177.74 2280.15,-1178.49 2276.28,-1179.15 2272.4,-1179.72 2268.5,-1180.2 2264.59,-1180.58 2260.66,-1180.87 2256.74,-1181.07 2252.8,-1181.16 2248.87,-1181.16 2244.94,-1181.07 2241.01,-1180.87 2237.09,-1180.58 2233.17,-1180.2 2229.27,-1179.72 2225.39,-1179.15 2221.53,-1178.49 2217.69,-1177.74 2213.88,-1176.9 2210.1,-1175.98 2206.37,-1174.98 2202.69,-1173.89 2199.06,-1172.73 2195.49,-1171.49 2192,-1170.19 2188.59,-1168.82 2185.28,-1167.38 2182.07,-1165.89 2178.97,-1164.34 2176,-1162.75 2173.17,-1161.1 2170.49,-1159.42 2167.98,-1157.69 2165.64,-1155.94 2163.49,-1154.16 2161.55,-1152.35 2159.82,-1150.53 2158.33,-1148.69 2157.07,-1146.85 2156.07,-1145 2155.33,-1143.16 2154.86,-1141.33 2154.68,-1139.5 2154.79,-1137.7 2155.2,-1135.92 2155.91,-1134.16 2156.94,-1132.44 2158.27,-1130.75 2159.93,-1129.11 2161.89,-1127.51 2164.17,-1125.96 2166.77,-1124.47 2169.66,-1123.04 2172.86,-1121.66 2176.35,-1120.36 2180.13,-1119.12 2184.17,-1117.96 2188.48,-1116.88 2193.03,-1115.87 2197.8,-1114.95 2202.79,-1114.11 2207.97,-1113.36 2213.33,-1112.7 2218.83,-1112.13 2224.47,-1111.65 2230.22,-1111.27 2236.05,-1110.98 2241.94,-1110.79 2247.87,-1110.69 2253.81,-1110.69 2259.73,-1110.79"/>
<text text-anchor="start" x="2221.67" y="-1155.73" font-family="Times,serif" font-size="14.00">C0034869</text>
<text text-anchor="start" x="2195.04" y="-1141.73" font-family="Times,serif" font-size="14.00">institutional records</text>
<text text-anchor="start" x="2234.89" y="-1127.73" font-family="Times,serif" font-size="14.00">61:62</text>
</g>
<!-- id_28434897_DOT_1&#45;&#45;id_28434897_DOT_17 -->
<g id="edge19" class="edge">
<title>id_28434897_DOT_1&#45;&#45;id_28434897_DOT_17</title>
<path fill="none" stroke="black" stroke-dasharray="1,5" d="M2012.01,-842.83C2061.73,-905.94 2172.48,-1046.49 2223.79,-1111.6"/>
<text text-anchor="middle" x="2091.65" y="-980.01" font-family="Times,serif" font-size="14.00">0.863006</text>
</g>
<!-- id_28434897_DOT_2 -->
<g id="node2" class="node">
<title>id_28434897_DOT_2</title>
<polygon fill="bisque" stroke="bisque" points="1544.93,-3279.34 1549.22,-3279.54 1553.47,-3279.82 1557.66,-3280.21 1561.76,-3280.69 1565.77,-3281.26 1569.67,-3281.92 1573.45,-3282.67 1577.08,-3283.51 1580.56,-3284.43 1583.88,-3285.43 1587.01,-3286.52 1589.96,-3287.68 1592.71,-3288.91 1595.25,-3290.22 1597.58,-3291.59 1599.7,-3293.02 1601.58,-3294.52 1603.25,-3296.07 1604.68,-3297.66 1605.88,-3299.31 1606.86,-3300.99 1607.6,-3302.72 1608.12,-3304.47 1608.42,-3306.25 1608.5,-3308.06 1608.37,-3309.88 1608.03,-3311.72 1607.49,-3313.56 1606.76,-3315.4 1605.84,-3317.25 1604.75,-3319.08 1603.5,-3320.91 1602.08,-3322.71 1600.52,-3324.49 1598.81,-3326.25 1596.98,-3327.97 1595.03,-3329.66 1592.97,-3331.3 1590.8,-3332.9 1588.55,-3334.45 1586.21,-3335.94 1583.79,-3337.37 1581.31,-3338.74 1578.77,-3340.05 1576.17,-3341.28 1573.53,-3342.45 1570.84,-3343.53 1568.12,-3344.54 1565.37,-3345.46 1562.6,-3346.3 1559.8,-3347.05 1556.99,-3347.71 1554.16,-3348.28 1551.32,-3348.76 1548.47,-3349.14 1545.61,-3349.43 1542.75,-3349.62 1539.88,-3349.72 1537.01,-3349.72 1534.15,-3349.62 1531.29,-3349.43 1528.43,-3349.14 1525.58,-3348.76 1522.74,-3348.28 1519.91,-3347.71 1517.09,-3347.05 1514.3,-3346.3 1511.52,-3345.46 1508.77,-3344.54 1506.05,-3343.53 1503.37,-3342.45 1500.73,-3341.28 1498.13,-3340.05 1495.59,-3338.74 1493.1,-3337.37 1490.69,-3335.94 1488.35,-3334.45 1486.09,-3332.9 1483.93,-3331.3 1481.87,-3329.66 1479.91,-3327.97 1478.08,-3326.25 1476.38,-3324.49 1474.81,-3322.71 1473.4,-3320.91 1472.14,-3319.08 1471.05,-3317.25 1470.14,-3315.4 1469.41,-3313.56 1468.87,-3311.72 1468.53,-3309.88 1468.4,-3308.06 1468.48,-3306.25 1468.77,-3304.47 1469.29,-3302.72 1470.04,-3300.99 1471.01,-3299.31 1472.22,-3297.66 1473.65,-3296.07 1475.31,-3294.52 1477.2,-3293.02 1479.31,-3291.59 1481.64,-3290.22 1484.18,-3288.91 1486.93,-3287.68 1489.88,-3286.52 1493.02,-3285.43 1496.33,-3284.43 1499.81,-3283.51 1503.45,-3282.67 1507.22,-3281.92 1511.12,-3281.26 1515.13,-3280.69 1519.24,-3280.21 1523.43,-3279.82 1527.67,-3279.54 1531.97,-3279.34 1536.28,-3279.25 1540.61,-3279.25 1544.93,-3279.34"/>
<text text-anchor="start" x="1509.28" y="-3324.28" font-family="Times,serif" font-size="14.00">C0005670</text>
<text text-anchor="start" x="1499.95" y="-3310.28" font-family="Times,serif" font-size="14.00">polyomavirus</text>
<text text-anchor="start" x="1529.5" y="-3296.28" font-family="Times,serif" font-size="14.00">2:2</text>
</g>
<!-- id_28434897_DOT_27 -->
<g id="node27" class="node">
<title>id_28434897_DOT_27</title>
<polygon fill="darkgreen" stroke="darkgreen" points="1627.9,-2894.7 1631.33,-2894.89 1634.73,-2895.18 1638.07,-2895.56 1641.35,-2896.04 1644.55,-2896.61 1647.67,-2897.27 1650.69,-2898.02 1653.59,-2898.86 1656.37,-2899.78 1659.02,-2900.79 1661.52,-2901.87 1663.87,-2903.03 1666.07,-2904.27 1668.1,-2905.57 1669.96,-2906.94 1671.65,-2908.38 1673.16,-2909.87 1674.49,-2911.42 1675.63,-2913.02 1676.59,-2914.66 1677.37,-2916.35 1677.97,-2918.07 1678.38,-2919.82 1678.62,-2921.61 1678.68,-2923.41 1678.58,-2925.23 1678.31,-2927.07 1677.88,-2928.91 1677.29,-2930.76 1676.56,-2932.6 1675.69,-2934.44 1674.69,-2936.26 1673.56,-2938.06 1672.31,-2939.85 1670.95,-2941.6 1669.48,-2943.32 1667.92,-2945.01 1666.28,-2946.65 1664.55,-2948.25 1662.75,-2949.8 1660.88,-2951.29 1658.95,-2952.73 1656.96,-2954.1 1654.93,-2955.4 1652.86,-2956.64 1650.75,-2957.8 1648.6,-2958.88 1646.43,-2959.89 1644.23,-2960.81 1642.02,-2961.65 1639.78,-2962.4 1637.54,-2963.06 1635.28,-2963.63 1633.01,-2964.11 1630.73,-2964.49 1628.45,-2964.78 1626.16,-2964.97 1623.87,-2965.07 1621.58,-2965.07 1619.29,-2964.97 1617.01,-2964.78 1614.72,-2964.49 1612.45,-2964.11 1610.18,-2963.63 1607.92,-2963.06 1605.67,-2962.4 1603.44,-2961.65 1601.22,-2960.81 1599.02,-2959.89 1596.85,-2958.88 1594.71,-2957.8 1592.6,-2956.64 1590.52,-2955.4 1588.49,-2954.1 1586.51,-2952.73 1584.58,-2951.29 1582.71,-2949.8 1580.91,-2948.25 1579.18,-2946.65 1577.53,-2945.01 1575.97,-2943.32 1574.51,-2941.6 1573.15,-2939.85 1571.9,-2938.06 1570.77,-2936.26 1569.76,-2934.44 1568.89,-2932.6 1568.16,-2930.76 1567.58,-2928.91 1567.15,-2927.07 1566.88,-2925.23 1566.77,-2923.41 1566.83,-2921.61 1567.07,-2919.82 1567.49,-2918.07 1568.08,-2916.35 1568.86,-2914.66 1569.82,-2913.02 1570.97,-2911.42 1572.29,-2909.87 1573.8,-2908.38 1575.49,-2906.94 1577.35,-2905.57 1579.38,-2904.27 1581.58,-2903.03 1583.93,-2901.87 1586.44,-2900.79 1589.08,-2899.78 1591.86,-2898.86 1594.77,-2898.02 1597.78,-2897.27 1600.9,-2896.61 1604.1,-2896.04 1607.38,-2895.56 1610.73,-2895.18 1614.12,-2894.89 1617.55,-2894.7 1621,-2894.6 1624.46,-2894.6 1627.9,-2894.7"/>
<text text-anchor="start" x="1593.56" y="-2939.63" font-family="Times,serif" font-size="14.00">C1446409</text>
<text text-anchor="start" x="1600.56" y="-2925.63" font-family="Times,serif" font-size="14.00">positive</text>
<text text-anchor="start" x="1599.78" y="-2911.63" font-family="Times,serif" font-size="14.00">121:121</text>
</g>
<!-- id_28434897_DOT_2&#45;&#45;id_28434897_DOT_27 -->
<g id="edge20" class="edge">
<title>id_28434897_DOT_2&#45;&#45;id_28434897_DOT_27</title>
<path fill="none" stroke="black" stroke-dasharray="1,5" d="M1546.15,-3279.33C1562.2,-3206.07 1599.06,-3037.83 1615.07,-2964.77"/>
<text text-anchor="middle" x="1554.36" y="-3124.85" font-family="Times,serif" font-size="14.00">0.632510</text>
</g>
<!-- id_28434897_DOT_3 -->
<g id="node3" class="node">
<title>id_28434897_DOT_3</title>
<polygon fill="bisque" stroke="bisque" points="3407.9,-2281.22 3411.33,-2281.41 3414.72,-2281.7 3418.07,-2282.08 3421.35,-2282.56 3424.55,-2283.13 3427.67,-2283.79 3430.68,-2284.54 3433.59,-2285.38 3436.37,-2286.3 3439.01,-2287.31 3441.52,-2288.39 3443.87,-2289.55 3446.07,-2290.79 3448.1,-2292.09 3449.96,-2293.47 3451.65,-2294.9 3453.16,-2296.39 3454.48,-2297.94 3455.63,-2299.54 3456.59,-2301.18 3457.37,-2302.87 3457.96,-2304.59 3458.38,-2306.35 3458.62,-2308.13 3458.68,-2309.93 3458.58,-2311.76 3458.31,-2313.59 3457.88,-2315.43 3457.29,-2317.28 3456.56,-2319.12 3455.69,-2320.96 3454.68,-2322.78 3453.55,-2324.59 3452.31,-2326.37 3450.94,-2328.12 3449.48,-2329.85 3447.92,-2331.53 3446.27,-2333.18 3444.55,-2334.77 3442.74,-2336.32 3440.88,-2337.81 3438.95,-2339.25 3436.96,-2340.62 3434.93,-2341.92 3432.86,-2343.16 3430.75,-2344.32 3428.6,-2345.41 3426.43,-2346.41 3424.23,-2347.33 3422.02,-2348.17 3419.78,-2348.92 3417.53,-2349.58 3415.27,-2350.15 3413,-2350.63 3410.73,-2351.01 3408.44,-2351.3 3406.16,-2351.5 3403.87,-2351.59 3401.58,-2351.59 3399.29,-2351.5 3397.01,-2351.3 3394.72,-2351.01 3392.45,-2350.63 3390.18,-2350.15 3387.92,-2349.58 3385.67,-2348.92 3383.43,-2348.17 3381.22,-2347.33 3379.02,-2346.41 3376.85,-2345.41 3374.71,-2344.32 3372.59,-2343.16 3370.52,-2341.92 3368.49,-2340.62 3366.51,-2339.25 3364.58,-2337.81 3362.71,-2336.32 3360.9,-2334.77 3359.18,-2333.18 3357.53,-2331.53 3355.97,-2329.85 3354.51,-2328.12 3353.15,-2326.37 3351.9,-2324.59 3350.77,-2322.78 3349.76,-2320.96 3348.89,-2319.12 3348.16,-2317.28 3347.58,-2315.43 3347.15,-2313.59 3346.87,-2311.76 3346.77,-2309.93 3346.83,-2308.13 3347.07,-2306.35 3347.49,-2304.59 3348.08,-2302.87 3348.86,-2301.18 3349.82,-2299.54 3350.97,-2297.94 3352.29,-2296.39 3353.8,-2294.9 3355.49,-2293.47 3357.35,-2292.09 3359.38,-2290.79 3361.58,-2289.55 3363.93,-2288.39 3366.44,-2287.31 3369.08,-2286.3 3371.86,-2285.38 3374.77,-2284.54 3377.78,-2283.79 3380.9,-2283.13 3384.1,-2282.56 3387.38,-2282.08 3390.73,-2281.7 3394.12,-2281.41 3397.55,-2281.22 3401,-2281.12 3404.45,-2281.12 3407.9,-2281.22"/>
<text text-anchor="start" x="3373.56" y="-2326.16" font-family="Times,serif" font-size="14.00">C0005670</text>
<text text-anchor="start" x="3387.95" y="-2312.16" font-family="Times,serif" font-size="14.00">BKV</text>
<text text-anchor="start" x="3393.78" y="-2298.16" font-family="Times,serif" font-size="14.00">3:3</text>
</g>
<!-- id_28434897_DOT_10 -->
<g id="node10" class="node">
<title>id_28434897_DOT_10</title>
<polygon fill="bisque" stroke="bisque" points="3754.78,-2470.52 3758.21,-2470.71 3761.6,-2471 3764.94,-2471.39 3768.22,-2471.86 3771.43,-2472.43 3774.54,-2473.09 3777.56,-2473.85 3780.46,-2474.68 3783.24,-2475.61 3785.89,-2476.61 3788.39,-2477.7 3790.75,-2478.86 3792.94,-2480.09 3794.97,-2481.4 3796.84,-2482.77 3798.52,-2484.2 3800.03,-2485.69 3801.36,-2487.24 3802.5,-2488.84 3803.46,-2490.48 3804.24,-2492.17 3804.84,-2493.89 3805.25,-2495.65 3805.49,-2497.43 3805.56,-2499.24 3805.45,-2501.06 3805.18,-2502.89 3804.75,-2504.74 3804.17,-2506.58 3803.43,-2508.42 3802.56,-2510.26 3801.56,-2512.08 3800.43,-2513.89 3799.18,-2515.67 3797.82,-2517.42 3796.36,-2519.15 3794.8,-2520.83 3793.15,-2522.48 3791.42,-2524.08 3789.62,-2525.62 3787.75,-2527.12 3785.82,-2528.55 3783.84,-2529.92 3781.8,-2531.23 3779.73,-2532.46 3777.62,-2533.62 3775.48,-2534.71 3773.3,-2535.71 3771.11,-2536.64 3768.89,-2537.47 3766.66,-2538.22 3764.41,-2538.88 3762.15,-2539.46 3759.88,-2539.93 3757.6,-2540.32 3755.32,-2540.61 3753.03,-2540.8 3750.74,-2540.89 3748.45,-2540.89 3746.17,-2540.8 3743.88,-2540.61 3741.6,-2540.32 3739.32,-2539.93 3737.05,-2539.46 3734.79,-2538.88 3732.54,-2538.22 3730.31,-2537.47 3728.09,-2536.64 3725.9,-2535.71 3723.72,-2534.71 3721.58,-2533.62 3719.47,-2532.46 3717.39,-2531.23 3715.36,-2529.92 3713.38,-2528.55 3711.45,-2527.12 3709.58,-2525.62 3707.78,-2524.08 3706.05,-2522.48 3704.4,-2520.83 3702.84,-2519.15 3701.38,-2517.42 3700.02,-2515.67 3698.77,-2513.89 3697.64,-2512.08 3696.64,-2510.26 3695.76,-2508.42 3695.03,-2506.58 3694.45,-2504.74 3694.02,-2502.89 3693.75,-2501.06 3693.64,-2499.24 3693.71,-2497.43 3693.95,-2495.65 3694.36,-2493.89 3694.96,-2492.17 3695.73,-2490.48 3696.7,-2488.84 3697.84,-2487.24 3699.17,-2485.69 3700.68,-2484.2 3702.36,-2482.77 3704.22,-2481.4 3706.26,-2480.09 3708.45,-2478.86 3710.81,-2477.7 3713.31,-2476.61 3715.96,-2475.61 3718.74,-2474.68 3721.64,-2473.85 3724.66,-2473.09 3727.77,-2472.43 3730.98,-2471.86 3734.26,-2471.39 3737.6,-2471 3740.99,-2470.71 3744.42,-2470.52 3747.87,-2470.42 3751.33,-2470.42 3754.78,-2470.52"/>
<text text-anchor="start" x="3720.43" y="-2515.46" font-family="Times,serif" font-size="14.00">C0005670</text>
<text text-anchor="start" x="3734.82" y="-2501.46" font-family="Times,serif" font-size="14.00">BKV</text>
<text text-anchor="start" x="3733.65" y="-2487.46" font-family="Times,serif" font-size="14.00">31:31</text>
</g>
<!-- id_28434897_DOT_3&#45;&#45;id_28434897_DOT_10 -->
<g id="edge2" class="edge">
<title>id_28434897_DOT_3&#45;&#45;id_28434897_DOT_10</title>
<path fill="none" stroke="black" d="M3441.51,-2337.52C3506.21,-2372.83 3635.84,-2443.58 3704.51,-2481.05"/>
<text text-anchor="middle" x="3546.76" y="-2412.09" font-family="Times,serif" font-size="14.00">0.001387</text>
</g>
<!-- id_28434897_DOT_13 -->
<g id="node13" class="node">
<title>id_28434897_DOT_13</title>
<polygon fill="brown" stroke="brown" points="3060.79,-2053.56 3064.95,-2053.75 3069.07,-2054.04 3073.13,-2054.42 3077.11,-2054.9 3081,-2055.47 3084.79,-2056.13 3088.45,-2056.88 3091.97,-2057.72 3095.34,-2058.64 3098.56,-2059.65 3101.6,-2060.73 3104.45,-2061.9 3107.12,-2063.13 3109.59,-2064.44 3111.85,-2065.81 3113.89,-2067.24 3115.72,-2068.73 3117.34,-2070.28 3118.72,-2071.88 3119.89,-2073.52 3120.84,-2075.21 3121.56,-2076.93 3122.06,-2078.69 3122.35,-2080.47 3122.43,-2082.27 3122.3,-2084.1 3121.97,-2085.93 3121.45,-2087.78 3120.74,-2089.62 3119.86,-2091.46 3118.8,-2093.3 3117.58,-2095.12 3116.21,-2096.93 3114.69,-2098.71 3113.04,-2100.46 3111.26,-2102.19 3109.37,-2103.87 3107.37,-2105.52 3105.27,-2107.12 3103.08,-2108.66 3100.82,-2110.16 3098.47,-2111.59 3096.07,-2112.96 3093.6,-2114.27 3091.08,-2115.5 3088.52,-2116.66 3085.92,-2117.75 3083.28,-2118.75 3080.61,-2119.67 3077.92,-2120.51 3075.21,-2121.26 3072.48,-2121.92 3069.74,-2122.49 3066.98,-2122.97 3064.22,-2123.36 3061.45,-2123.64 3058.67,-2123.84 3055.9,-2123.93 3053.12,-2123.93 3050.34,-2123.84 3047.56,-2123.64 3044.79,-2123.36 3042.03,-2122.97 3039.27,-2122.49 3036.53,-2121.92 3033.8,-2121.26 3031.09,-2120.51 3028.4,-2119.67 3025.73,-2118.75 3023.1,-2117.75 3020.49,-2116.66 3017.93,-2115.5 3015.41,-2114.27 3012.95,-2112.96 3010.54,-2111.59 3008.2,-2110.16 3005.93,-2108.66 3003.74,-2107.12 3001.64,-2105.52 2999.64,-2103.87 2997.75,-2102.19 2995.97,-2100.46 2994.32,-2098.71 2992.81,-2096.93 2991.43,-2095.12 2990.22,-2093.3 2989.16,-2091.46 2988.27,-2089.62 2987.56,-2087.78 2987.04,-2085.93 2986.71,-2084.1 2986.58,-2082.27 2986.66,-2080.47 2986.95,-2078.69 2987.45,-2076.93 2988.18,-2075.21 2989.12,-2073.52 2990.29,-2071.88 2991.68,-2070.28 2993.29,-2068.73 2995.12,-2067.24 2997.17,-2065.81 2999.43,-2064.44 3001.89,-2063.13 3004.56,-2061.9 3007.42,-2060.73 3010.46,-2059.65 3013.67,-2058.64 3017.04,-2057.72 3020.57,-2056.88 3024.23,-2056.13 3028.01,-2055.47 3031.9,-2054.9 3035.88,-2054.42 3039.94,-2054.04 3044.06,-2053.75 3048.22,-2053.56 3052.41,-2053.46 3056.6,-2053.46 3060.79,-2053.56"/>
<text text-anchor="start" x="3025.34" y="-2098.5" font-family="Times,serif" font-size="14.00">C0005953</text>
<text text-anchor="start" x="3017.38" y="-2084.5" font-family="Times,serif" font-size="14.00">bone marrow</text>
<text text-anchor="start" x="3038.56" y="-2070.5" font-family="Times,serif" font-size="14.00">42:43</text>
</g>
<!-- id_28434897_DOT_3&#45;&#45;id_28434897_DOT_13 -->
<g id="edge21" class="edge">
<title>id_28434897_DOT_3&#45;&#45;id_28434897_DOT_13</title>
<path fill="none" stroke="black" stroke-dasharray="1,5" d="M3361.41,-2289.35C3293.67,-2245.06 3159.91,-2157.61 3093.63,-2114.27"/>
<text text-anchor="middle" x="3201.27" y="-2204.61" font-family="Times,serif" font-size="14.00">0.708436</text>
</g>
<!-- id_28434897_DOT_4 -->
<g id="node4" class="node">
<title>id_28434897_DOT_4</title>
<polygon fill="blue" stroke="blue" points="61.16,-2191.86 64.58,-2192.05 67.98,-2192.34 71.32,-2192.72 74.6,-2193.2 77.81,-2193.77 80.92,-2194.43 83.94,-2195.18 86.84,-2196.02 89.62,-2196.94 92.27,-2197.95 94.77,-2199.03 97.13,-2200.19 99.32,-2201.43 101.35,-2202.73 103.22,-2204.1 104.9,-2205.54 106.41,-2207.03 107.74,-2208.58 108.88,-2210.18 109.84,-2211.82 110.62,-2213.51 111.22,-2215.23 111.63,-2216.98 111.87,-2218.77 111.93,-2220.57 111.83,-2222.39 111.56,-2224.23 111.13,-2226.07 110.54,-2227.92 109.81,-2229.76 108.94,-2231.6 107.94,-2233.42 106.81,-2235.22 105.56,-2237.01 104.2,-2238.76 102.73,-2240.48 101.18,-2242.17 99.53,-2243.81 97.8,-2245.41 96,-2246.96 94.13,-2248.45 92.2,-2249.89 90.22,-2251.26 88.18,-2252.56 86.11,-2253.8 84,-2254.96 81.85,-2256.04 79.68,-2257.05 77.49,-2257.97 75.27,-2258.81 73.04,-2259.56 70.79,-2260.22 68.53,-2260.79 66.26,-2261.27 63.98,-2261.65 61.7,-2261.94 59.41,-2262.13 57.12,-2262.23 54.83,-2262.23 52.55,-2262.13 50.26,-2261.94 47.98,-2261.65 45.7,-2261.27 43.43,-2260.79 41.17,-2260.22 38.92,-2259.56 36.69,-2258.81 34.47,-2257.97 32.27,-2257.05 30.1,-2256.04 27.96,-2254.96 25.85,-2253.8 23.77,-2252.56 21.74,-2251.26 19.76,-2249.89 17.83,-2248.45 15.96,-2246.96 14.16,-2245.41 12.43,-2243.81 10.78,-2242.17 9.22,-2240.48 7.76,-2238.76 6.4,-2237.01 5.15,-2235.22 4.02,-2233.42 3.01,-2231.6 2.14,-2229.76 1.41,-2227.92 0.83,-2226.07 0.4,-2224.23 0.13,-2222.39 0.02,-2220.57 0.09,-2218.77 0.32,-2216.98 0.74,-2215.23 1.34,-2213.51 2.11,-2211.82 3.07,-2210.18 4.22,-2208.58 5.55,-2207.03 7.05,-2205.54 8.74,-2204.1 10.6,-2202.73 12.63,-2201.43 14.83,-2200.19 17.18,-2199.03 19.69,-2197.95 22.34,-2196.94 25.12,-2196.02 28.02,-2195.18 31.03,-2194.43 34.15,-2193.77 37.35,-2193.2 40.64,-2192.72 43.98,-2192.34 47.37,-2192.05 50.8,-2191.86 54.25,-2191.76 57.71,-2191.76 61.16,-2191.86"/>
<text text-anchor="start" x="26.81" y="-2236.79" font-family="Times,serif" font-size="14.00">C0001737</text>
<text text-anchor="start" x="34.6" y="-2222.79" font-family="Times,serif" font-size="14.00">African</text>
<text text-anchor="start" x="47.03" y="-2208.79" font-family="Times,serif" font-size="14.00">7:7</text>
</g>
<!-- id_28434897_DOT_12 -->
<g id="node12" class="node">
<title>id_28434897_DOT_12</title>
<polygon fill="blue" stroke="blue" points="417.94,-2381.18 421.36,-2381.38 424.76,-2381.67 428.1,-2382.05 431.38,-2382.53 434.59,-2383.1 437.7,-2383.76 440.72,-2384.51 443.62,-2385.35 446.4,-2386.27 449.05,-2387.27 451.55,-2388.36 453.91,-2389.52 456.1,-2390.75 458.13,-2392.06 459.99,-2393.43 461.68,-2394.87 463.19,-2396.36 464.52,-2397.91 465.66,-2399.5 466.62,-2401.15 467.4,-2402.83 468,-2404.56 468.41,-2406.31 468.65,-2408.09 468.71,-2409.9 468.61,-2411.72 468.34,-2413.56 467.91,-2415.4 467.32,-2417.25 466.59,-2419.09 465.72,-2420.92 464.72,-2422.75 463.59,-2424.55 462.34,-2426.33 460.98,-2428.09 459.51,-2429.81 457.95,-2431.5 456.31,-2433.14 454.58,-2434.74 452.78,-2436.29 450.91,-2437.78 448.98,-2439.21 446.99,-2440.59 444.96,-2441.89 442.89,-2443.12 440.78,-2444.29 438.63,-2445.37 436.46,-2446.38 434.27,-2447.3 432.05,-2448.14 429.81,-2448.89 427.57,-2449.55 425.31,-2450.12 423.04,-2450.6 420.76,-2450.98 418.48,-2451.27 416.19,-2451.46 413.9,-2451.56 411.61,-2451.56 409.32,-2451.46 407.04,-2451.27 404.76,-2450.98 402.48,-2450.6 400.21,-2450.12 397.95,-2449.55 395.7,-2448.89 393.47,-2448.14 391.25,-2447.3 389.05,-2446.38 386.88,-2445.37 384.74,-2444.29 382.63,-2443.12 380.55,-2441.89 378.52,-2440.59 376.54,-2439.21 374.61,-2437.78 372.74,-2436.29 370.94,-2434.74 369.21,-2433.14 367.56,-2431.5 366,-2429.81 364.54,-2428.09 363.18,-2426.33 361.93,-2424.55 360.8,-2422.75 359.79,-2420.92 358.92,-2419.09 358.19,-2417.25 357.61,-2415.4 357.18,-2413.56 356.91,-2411.72 356.8,-2409.9 356.87,-2408.09 357.1,-2406.31 357.52,-2404.56 358.11,-2402.83 358.89,-2401.15 359.85,-2399.5 361,-2397.91 362.33,-2396.36 363.83,-2394.87 365.52,-2393.43 367.38,-2392.06 369.41,-2390.75 371.61,-2389.52 373.96,-2388.36 376.47,-2387.27 379.12,-2386.27 381.9,-2385.35 384.8,-2384.51 387.81,-2383.76 390.93,-2383.1 394.13,-2382.53 397.42,-2382.05 400.76,-2381.67 404.15,-2381.38 407.58,-2381.18 411.03,-2381.09 414.49,-2381.09 417.94,-2381.18"/>
<text text-anchor="start" x="383.59" y="-2426.12" font-family="Times,serif" font-size="14.00">C0001737</text>
<text text-anchor="start" x="391.38" y="-2412.12" font-family="Times,serif" font-size="14.00">African</text>
<text text-anchor="start" x="396.81" y="-2398.12" font-family="Times,serif" font-size="14.00">39:39</text>
</g>
<!-- id_28434897_DOT_4&#45;&#45;id_28434897_DOT_12 -->
<g id="edge3" class="edge">
<title>id_28434897_DOT_4&#45;&#45;id_28434897_DOT_12</title>
<path fill="none" stroke="black" d="M95.18,-2247.8C161.7,-2283.1 296.35,-2354.55 367.05,-2392.06"/>
<text text-anchor="middle" x="205.12" y="-2322.73" font-family="Times,serif" font-size="14.00">0.001174</text>
</g>
<!-- id_28434897_DOT_5 -->
<g id="node5" class="node">
<title>id_28434897_DOT_5</title>
<polygon fill="blueviolet" stroke="blueviolet" points="1999.05,-1833.11 2002.48,-1833.3 2005.87,-1833.59 2009.22,-1833.97 2012.5,-1834.45 2015.7,-1835.02 2018.82,-1835.68 2021.83,-1836.43 2024.74,-1837.27 2027.52,-1838.19 2030.16,-1839.2 2032.67,-1840.28 2035.02,-1841.45 2037.22,-1842.68 2039.25,-1843.98 2041.11,-1845.36 2042.8,-1846.79 2044.31,-1848.28 2045.63,-1849.83 2046.78,-1851.43 2047.74,-1853.07 2048.52,-1854.76 2049.11,-1856.48 2049.53,-1858.24 2049.77,-1860.02 2049.83,-1861.82 2049.73,-1863.65 2049.45,-1865.48 2049.02,-1867.32 2048.44,-1869.17 2047.71,-1871.01 2046.84,-1872.85 2045.83,-1874.67 2044.7,-1876.48 2043.45,-1878.26 2042.09,-1880.01 2040.63,-1881.74 2039.07,-1883.42 2037.42,-1885.07 2035.7,-1886.66 2033.89,-1888.21 2032.02,-1889.7 2030.09,-1891.14 2028.11,-1892.51 2026.08,-1893.82 2024.01,-1895.05 2021.89,-1896.21 2019.75,-1897.3 2017.58,-1898.3 2015.38,-1899.22 2013.17,-1900.06 2010.93,-1900.81 2008.68,-1901.47 2006.42,-1902.04 2004.15,-1902.52 2001.88,-1902.9 1999.59,-1903.19 1997.31,-1903.39 1995.02,-1903.48 1992.73,-1903.48 1990.44,-1903.39 1988.16,-1903.19 1985.87,-1902.9 1983.6,-1902.52 1981.33,-1902.04 1979.07,-1901.47 1976.82,-1900.81 1974.58,-1900.06 1972.37,-1899.22 1970.17,-1898.3 1968,-1897.3 1965.85,-1896.21 1963.74,-1895.05 1961.67,-1893.82 1959.64,-1892.51 1957.65,-1891.14 1955.72,-1889.7 1953.86,-1888.21 1952.05,-1886.66 1950.33,-1885.07 1948.68,-1883.42 1947.12,-1881.74 1945.66,-1880.01 1944.3,-1878.26 1943.05,-1876.48 1941.92,-1874.67 1940.91,-1872.85 1940.04,-1871.01 1939.31,-1869.17 1938.72,-1867.32 1938.29,-1865.48 1938.02,-1863.65 1937.92,-1861.82 1937.98,-1860.02 1938.22,-1858.24 1938.64,-1856.48 1939.23,-1854.76 1940.01,-1853.07 1940.97,-1851.43 1942.12,-1849.83 1943.44,-1848.28 1944.95,-1846.79 1946.64,-1845.36 1948.5,-1843.98 1950.53,-1842.68 1952.73,-1841.45 1955.08,-1840.28 1957.59,-1839.2 1960.23,-1838.19 1963.01,-1837.27 1965.92,-1836.43 1968.93,-1835.68 1972.05,-1835.02 1975.25,-1834.45 1978.53,-1833.97 1981.88,-1833.59 1985.27,-1833.3 1988.7,-1833.11 1992.15,-1833.01 1995.6,-1833.01 1999.05,-1833.11"/>
<text text-anchor="start" x="1964.71" y="-1878.05" font-family="Times,serif" font-size="14.00">C0022646</text>
<text text-anchor="start" x="1974.82" y="-1864.05" font-family="Times,serif" font-size="14.00">kidney</text>
<text text-anchor="start" x="1977.93" y="-1850.05" font-family="Times,serif" font-size="14.00">10:10</text>
</g>
<!-- id_28434897_DOT_11 -->
<g id="node11" class="node">
<title>id_28434897_DOT_11</title>
<polygon fill="coral" stroke="coral" points="2349.21,-1556.88 2352.63,-1557.07 2356.03,-1557.36 2359.37,-1557.74 2362.65,-1558.22 2365.86,-1558.79 2368.97,-1559.45 2371.99,-1560.2 2374.89,-1561.04 2377.67,-1561.96 2380.32,-1562.97 2382.82,-1564.05 2385.18,-1565.21 2387.37,-1566.45 2389.4,-1567.75 2391.26,-1569.12 2392.95,-1570.56 2394.46,-1572.05 2395.79,-1573.6 2396.93,-1575.2 2397.89,-1576.84 2398.67,-1578.53 2399.27,-1580.25 2399.68,-1582 2399.92,-1583.79 2399.98,-1585.59 2399.88,-1587.41 2399.61,-1589.25 2399.18,-1591.09 2398.59,-1592.94 2397.86,-1594.78 2396.99,-1596.61 2395.99,-1598.44 2394.86,-1600.24 2393.61,-1602.02 2392.25,-1603.78 2390.78,-1605.5 2389.22,-1607.19 2387.58,-1608.83 2385.85,-1610.43 2384.05,-1611.98 2382.18,-1613.47 2380.25,-1614.91 2378.26,-1616.28 2376.23,-1617.58 2374.16,-1618.82 2372.05,-1619.98 2369.9,-1621.06 2367.73,-1622.07 2365.54,-1622.99 2363.32,-1623.83 2361.08,-1624.58 2358.84,-1625.24 2356.58,-1625.81 2354.31,-1626.29 2352.03,-1626.67 2349.75,-1626.96 2347.46,-1627.15 2345.17,-1627.25 2342.88,-1627.25 2340.59,-1627.15 2338.31,-1626.96 2336.03,-1626.67 2333.75,-1626.29 2331.48,-1625.81 2329.22,-1625.24 2326.97,-1624.58 2324.74,-1623.83 2322.52,-1622.99 2320.32,-1622.07 2318.15,-1621.06 2316.01,-1619.98 2313.9,-1618.82 2311.82,-1617.58 2309.79,-1616.28 2307.81,-1614.91 2305.88,-1613.47 2304.01,-1611.98 2302.21,-1610.43 2300.48,-1608.83 2298.83,-1607.19 2297.27,-1605.5 2295.81,-1603.78 2294.45,-1602.02 2293.2,-1600.24 2292.07,-1598.44 2291.06,-1596.61 2290.19,-1594.78 2289.46,-1592.94 2288.88,-1591.09 2288.45,-1589.25 2288.18,-1587.41 2288.07,-1585.59 2288.14,-1583.79 2288.37,-1582 2288.79,-1580.25 2289.38,-1578.53 2290.16,-1576.84 2291.12,-1575.2 2292.27,-1573.6 2293.6,-1572.05 2295.1,-1570.56 2296.79,-1569.12 2298.65,-1567.75 2300.68,-1566.45 2302.88,-1565.21 2305.23,-1564.05 2307.74,-1562.97 2310.39,-1561.96 2313.17,-1561.04 2316.07,-1560.2 2319.08,-1559.45 2322.2,-1558.79 2325.4,-1558.22 2328.68,-1557.74 2332.03,-1557.36 2335.42,-1557.07 2338.85,-1556.88 2342.3,-1556.78 2345.76,-1556.78 2349.21,-1556.88"/>
<text text-anchor="start" x="2314.86" y="-1601.81" font-family="Times,serif" font-size="14.00">C0150312</text>
<text text-anchor="start" x="2319.54" y="-1587.81" font-family="Times,serif" font-size="14.00">presence</text>
<text text-anchor="start" x="2328.08" y="-1573.81" font-family="Times,serif" font-size="14.00">36:36</text>
</g>
<!-- id_28434897_DOT_5&#45;&#45;id_28434897_DOT_11 -->
<g id="edge22" class="edge">
<title>id_28434897_DOT_5&#45;&#45;id_28434897_DOT_11</title>
<path fill="none" stroke="black" stroke-dasharray="1,5" d="M2030.69,-1839.21C2099.43,-1784.98 2246.25,-1669.15 2311.55,-1617.63"/>
<text text-anchor="middle" x="2144.87" y="-1731.22" font-family="Times,serif" font-size="14.00">0.845002</text>
</g>
<!-- id_28434897_DOT_14 -->
<g id="node14" class="node">
<title>id_28434897_DOT_14</title>
<polygon fill="cornflowerblue" stroke="cornflowerblue" points="1624.92,-2064.99 1632.29,-2065.18 1639.58,-2065.47 1646.77,-2065.85 1653.82,-2066.33 1660.71,-2066.9 1667.4,-2067.56 1673.88,-2068.31 1680.12,-2069.15 1686.09,-2070.07 1691.78,-2071.08 1697.16,-2072.16 1702.22,-2073.32 1706.94,-2074.56 1711.31,-2075.86 1715.31,-2077.24 1718.93,-2078.67 1722.18,-2080.16 1725.03,-2081.71 1727.49,-2083.31 1729.55,-2084.95 1731.22,-2086.64 1732.51,-2088.36 1733.4,-2090.12 1733.91,-2091.9 1734.05,-2093.7 1733.82,-2095.53 1733.24,-2097.36 1732.31,-2099.2 1731.06,-2101.05 1729.49,-2102.89 1727.62,-2104.73 1725.46,-2106.55 1723.03,-2108.36 1720.34,-2110.14 1717.42,-2111.89 1714.28,-2113.62 1710.92,-2115.3 1707.38,-2116.95 1703.67,-2118.54 1699.8,-2120.09 1695.78,-2121.58 1691.63,-2123.02 1687.37,-2124.39 1683.01,-2125.69 1678.55,-2126.93 1674.01,-2128.09 1669.4,-2129.18 1664.74,-2130.18 1660.02,-2131.1 1655.25,-2131.94 1650.45,-2132.69 1645.62,-2133.35 1640.76,-2133.92 1635.89,-2134.4 1630.99,-2134.78 1626.09,-2135.07 1621.17,-2135.27 1616.26,-2135.36 1611.34,-2135.36 1606.42,-2135.27 1601.51,-2135.07 1596.6,-2134.78 1591.71,-2134.4 1586.83,-2133.92 1581.97,-2133.35 1577.14,-2132.69 1572.34,-2131.94 1567.58,-2131.1 1562.86,-2130.18 1558.19,-2129.18 1553.58,-2128.09 1549.05,-2126.93 1544.59,-2125.69 1540.22,-2124.39 1535.96,-2123.02 1531.81,-2121.58 1527.8,-2120.09 1523.92,-2118.54 1520.21,-2116.95 1516.67,-2115.3 1513.32,-2113.62 1510.17,-2111.89 1507.25,-2110.14 1504.57,-2108.36 1502.14,-2106.55 1499.98,-2104.73 1498.11,-2102.89 1496.53,-2101.05 1495.28,-2099.2 1494.36,-2097.36 1493.77,-2095.53 1493.55,-2093.7 1493.68,-2091.9 1494.2,-2090.12 1495.09,-2088.36 1496.37,-2086.64 1498.04,-2084.95 1500.11,-2083.31 1502.57,-2081.71 1505.42,-2080.16 1508.66,-2078.67 1512.29,-2077.24 1516.29,-2075.86 1520.65,-2074.56 1525.37,-2073.32 1530.43,-2072.16 1535.81,-2071.08 1541.5,-2070.07 1547.47,-2069.15 1553.71,-2068.31 1560.19,-2067.56 1566.89,-2066.9 1573.78,-2066.33 1580.83,-2065.85 1588.01,-2065.47 1595.3,-2065.18 1602.67,-2064.99 1610.08,-2064.89 1617.51,-2064.89 1624.92,-2064.99"/>
<text text-anchor="start" x="1584.63" y="-2109.93" font-family="Times,serif" font-size="14.00">C4304779</text>
<text text-anchor="start" x="1541.87" y="-2095.93" font-family="Times,serif" font-size="14.00">kidney transplant patients</text>
<text text-anchor="start" x="1597.85" y="-2081.93" font-family="Times,serif" font-size="14.00">45:47</text>
</g>
<!-- id_28434897_DOT_5&#45;&#45;id_28434897_DOT_14 -->
<g id="edge23" class="edge">
<title>id_28434897_DOT_5&#45;&#45;id_28434897_DOT_14</title>
<path fill="none" stroke="black" stroke-dasharray="1,5" d="M1956.74,-1890.9C1889.12,-1932.16 1745.68,-2019.66 1667.44,-2067.4"/>
<text text-anchor="middle" x="1785.84" y="-1981.95" font-family="Times,serif" font-size="14.00">0.251900</text>
</g>
<!-- id_28434897_DOT_6 -->
<g id="node6" class="node">
<title>id_28434897_DOT_6</title>
<polygon fill="brown" stroke="brown" points="2777.88,-1680.29 2782.04,-1680.48 2786.16,-1680.77 2790.22,-1681.15 2794.2,-1681.63 2798.09,-1682.2 2801.87,-1682.86 2805.53,-1683.61 2809.06,-1684.45 2812.43,-1685.37 2815.64,-1686.38 2818.68,-1687.46 2821.54,-1688.62 2824.21,-1689.86 2826.67,-1691.16 2828.93,-1692.54 2830.98,-1693.97 2832.81,-1695.46 2834.42,-1697.01 2835.81,-1698.61 2836.98,-1700.25 2837.92,-1701.94 2838.65,-1703.66 2839.15,-1705.42 2839.44,-1707.2 2839.52,-1709 2839.39,-1710.83 2839.06,-1712.66 2838.54,-1714.5 2837.83,-1716.35 2836.94,-1718.19 2835.88,-1720.03 2834.67,-1721.85 2833.29,-1723.66 2831.78,-1725.44 2830.13,-1727.19 2828.35,-1728.92 2826.46,-1730.6 2824.46,-1732.25 2822.36,-1733.84 2820.17,-1735.39 2817.9,-1736.88 2815.56,-1738.32 2813.15,-1739.69 2810.69,-1740.99 2808.17,-1742.23 2805.61,-1743.39 2803,-1744.48 2800.37,-1745.48 2797.7,-1746.4 2795.01,-1747.24 2792.3,-1747.99 2789.57,-1748.65 2786.83,-1749.22 2784.07,-1749.7 2781.31,-1750.08 2778.54,-1750.37 2775.76,-1750.57 2772.98,-1750.66 2770.2,-1750.66 2767.43,-1750.57 2764.65,-1750.37 2761.88,-1750.08 2759.12,-1749.7 2756.36,-1749.22 2753.62,-1748.65 2750.89,-1747.99 2748.18,-1747.24 2745.49,-1746.4 2742.82,-1745.48 2740.18,-1744.48 2737.58,-1743.39 2735.02,-1742.23 2732.5,-1740.99 2730.03,-1739.69 2727.63,-1738.32 2725.28,-1736.88 2723.02,-1735.39 2720.83,-1733.84 2718.73,-1732.25 2716.73,-1730.6 2714.84,-1728.92 2713.06,-1727.19 2711.41,-1725.44 2709.89,-1723.66 2708.52,-1721.85 2707.3,-1720.03 2706.24,-1718.19 2705.36,-1716.35 2704.65,-1714.5 2704.13,-1712.66 2703.8,-1710.83 2703.67,-1709 2703.75,-1707.2 2704.04,-1705.42 2704.54,-1703.66 2705.26,-1701.94 2706.21,-1700.25 2707.38,-1698.61 2708.76,-1697.01 2710.38,-1695.46 2712.21,-1693.97 2714.25,-1692.54 2716.51,-1691.16 2718.98,-1689.86 2721.65,-1688.62 2724.5,-1687.46 2727.54,-1686.38 2730.76,-1685.37 2734.13,-1684.45 2737.65,-1683.61 2741.31,-1682.86 2745.1,-1682.2 2748.99,-1681.63 2752.97,-1681.15 2757.03,-1680.77 2761.15,-1680.48 2765.31,-1680.29 2769.5,-1680.19 2773.69,-1680.19 2777.88,-1680.29"/>
<text text-anchor="start" x="2742.42" y="-1725.23" font-family="Times,serif" font-size="14.00">C0005953</text>
<text text-anchor="start" x="2734.47" y="-1711.23" font-family="Times,serif" font-size="14.00">bone marrow</text>
<text text-anchor="start" x="2755.65" y="-1697.23" font-family="Times,serif" font-size="14.00">12:13</text>
</g>
<!-- id_28434897_DOT_6&#45;&#45;id_28434897_DOT_11 -->
<g id="edge24" class="edge">
<title>id_28434897_DOT_6&#45;&#45;id_28434897_DOT_11</title>
<path fill="none" stroke="black" stroke-dasharray="1,5" d="M2708.5,-1697.22C2621.86,-1672.21 2468.02,-1627.8 2390.87,-1605.54"/>
<text text-anchor="middle" x="2523.44" y="-1654.18" font-family="Times,serif" font-size="14.00">0.842560</text>
</g>
<!-- id_28434897_DOT_6&#45;&#45;id_28434897_DOT_13 -->
<g id="edge4" class="edge">
<title>id_28434897_DOT_6&#45;&#45;id_28434897_DOT_13</title>
<path fill="none" stroke="black" d="M2795.71,-1747.25C2848.7,-1817.16 2974.82,-1983.56 3029.03,-2055.08"/>
<text text-anchor="middle" x="2886.12" y="-1903.97" font-family="Times,serif" font-size="14.00">0.003402</text>
</g>
<!-- id_28434897_DOT_29 -->
<g id="node29" class="node">
<title>id_28434897_DOT_29</title>
<polygon fill="brown" stroke="brown" points="3051.31,-1701.41 3055.47,-1701.6 3059.59,-1701.89 3063.65,-1702.28 3067.63,-1702.75 3071.52,-1703.32 3075.3,-1703.99 3078.96,-1704.74 3082.49,-1705.57 3085.86,-1706.5 3089.07,-1707.5 3092.12,-1708.59 3094.97,-1709.75 3097.64,-1710.98 3100.1,-1712.29 3102.36,-1713.66 3104.41,-1715.09 3106.24,-1716.59 3107.85,-1718.13 3109.24,-1719.73 3110.41,-1721.38 3111.35,-1723.06 3112.08,-1724.78 3112.58,-1726.54 3112.87,-1728.32 3112.95,-1730.13 3112.82,-1731.95 3112.49,-1733.78 3111.97,-1735.63 3111.26,-1737.47 3110.37,-1739.32 3109.32,-1741.15 3108.1,-1742.97 3106.72,-1744.78 3105.21,-1746.56 3103.56,-1748.32 3101.78,-1750.04 3099.89,-1751.72 3097.89,-1753.37 3095.79,-1754.97 3093.6,-1756.51 3091.33,-1758.01 3088.99,-1759.44 3086.58,-1760.81 3084.12,-1762.12 3081.6,-1763.35 3079.04,-1764.51 3076.43,-1765.6 3073.8,-1766.6 3071.13,-1767.53 3068.44,-1768.36 3065.73,-1769.11 3063,-1769.78 3060.26,-1770.35 3057.5,-1770.82 3054.74,-1771.21 3051.97,-1771.5 3049.19,-1771.69 3046.41,-1771.79 3043.64,-1771.79 3040.86,-1771.69 3038.08,-1771.5 3035.31,-1771.21 3032.55,-1770.82 3029.79,-1770.35 3027.05,-1769.78 3024.32,-1769.11 3021.61,-1768.36 3018.92,-1767.53 3016.25,-1766.6 3013.61,-1765.6 3011.01,-1764.51 3008.45,-1763.35 3005.93,-1762.12 3003.47,-1760.81 3001.06,-1759.44 2998.72,-1758.01 2996.45,-1756.51 2994.26,-1754.97 2992.16,-1753.37 2990.16,-1751.72 2988.27,-1750.04 2986.49,-1748.32 2984.84,-1746.56 2983.33,-1744.78 2981.95,-1742.97 2980.73,-1741.15 2979.68,-1739.32 2978.79,-1737.47 2978.08,-1735.63 2977.56,-1733.78 2977.23,-1731.95 2977.1,-1730.13 2977.18,-1728.32 2977.47,-1726.54 2977.97,-1724.78 2978.7,-1723.06 2979.64,-1721.38 2980.81,-1719.73 2982.2,-1718.13 2983.81,-1716.59 2985.64,-1715.09 2987.69,-1713.66 2989.94,-1712.29 2992.41,-1710.98 2995.08,-1709.75 2997.93,-1708.59 3000.97,-1707.5 3004.19,-1706.5 3007.56,-1705.57 3011.09,-1704.74 3014.75,-1703.99 3018.53,-1703.32 3022.42,-1702.75 3026.4,-1702.28 3030.46,-1701.89 3034.58,-1701.6 3038.74,-1701.41 3042.93,-1701.31 3047.12,-1701.31 3051.31,-1701.41"/>
<text text-anchor="start" x="3015.86" y="-1746.35" font-family="Times,serif" font-size="14.00">C0005953</text>
<text text-anchor="start" x="3007.9" y="-1732.35" font-family="Times,serif" font-size="14.00">bone marrow</text>
<text text-anchor="start" x="3022.08" y="-1718.35" font-family="Times,serif" font-size="14.00">134:135</text>
</g>
<!-- id_28434897_DOT_6&#45;&#45;id_28434897_DOT_29 -->
<g id="edge5" class="edge">
<title>id_28434897_DOT_6&#45;&#45;id_28434897_DOT_29</title>
<path fill="none" stroke="black" d="M2835.7,-1720.38C2878.16,-1723.66 2933.79,-1727.96 2977.02,-1731.3"/>
<text text-anchor="middle" x="2880.37" y="-1728.64" font-family="Times,serif" font-size="14.00">0.011943</text>
</g>
<!-- id_28434897_DOT_33 -->
<g id="node33" class="node">
<title>id_28434897_DOT_33</title>
<polygon fill="chartreuse" stroke="chartreuse" points="3087.46,-1340.97 3090.89,-1341.16 3094.28,-1341.45 3097.63,-1341.83 3100.91,-1342.31 3104.11,-1342.88 3107.23,-1343.54 3110.24,-1344.29 3113.15,-1345.13 3115.93,-1346.05 3118.57,-1347.06 3121.08,-1348.14 3123.43,-1349.3 3125.63,-1350.54 3127.66,-1351.84 3129.52,-1353.21 3131.21,-1354.65 3132.72,-1356.14 3134.04,-1357.69 3135.19,-1359.29 3136.15,-1360.93 3136.93,-1362.62 3137.52,-1364.34 3137.94,-1366.1 3138.18,-1367.88 3138.24,-1369.68 3138.14,-1371.51 3137.87,-1373.34 3137.44,-1375.18 3136.85,-1377.03 3136.12,-1378.87 3135.25,-1380.71 3134.24,-1382.53 3133.11,-1384.33 3131.87,-1386.12 3130.5,-1387.87 3129.04,-1389.59 3127.48,-1391.28 3125.83,-1392.92 3124.11,-1394.52 3122.3,-1396.07 3120.44,-1397.56 3118.51,-1399 3116.52,-1400.37 3114.49,-1401.67 3112.42,-1402.91 3110.31,-1404.07 3108.16,-1405.15 3105.99,-1406.16 3103.79,-1407.08 3101.58,-1407.92 3099.34,-1408.67 3097.09,-1409.33 3094.83,-1409.9 3092.56,-1410.38 3090.29,-1410.76 3088.01,-1411.05 3085.72,-1411.25 3083.43,-1411.34 3081.14,-1411.34 3078.85,-1411.25 3076.57,-1411.05 3074.28,-1410.76 3072.01,-1410.38 3069.74,-1409.9 3067.48,-1409.33 3065.23,-1408.67 3062.99,-1407.92 3060.78,-1407.08 3058.58,-1406.16 3056.41,-1405.15 3054.27,-1404.07 3052.15,-1402.91 3050.08,-1401.67 3048.05,-1400.37 3046.07,-1399 3044.14,-1397.56 3042.27,-1396.07 3040.46,-1394.52 3038.74,-1392.92 3037.09,-1391.28 3035.53,-1389.59 3034.07,-1387.87 3032.71,-1386.12 3031.46,-1384.33 3030.33,-1382.53 3029.32,-1380.71 3028.45,-1378.87 3027.72,-1377.03 3027.14,-1375.18 3026.71,-1373.34 3026.43,-1371.51 3026.33,-1369.68 3026.39,-1367.88 3026.63,-1366.1 3027.05,-1364.34 3027.64,-1362.62 3028.42,-1360.93 3029.38,-1359.29 3030.53,-1357.69 3031.85,-1356.14 3033.36,-1354.65 3035.05,-1353.21 3036.91,-1351.84 3038.94,-1350.54 3041.14,-1349.3 3043.49,-1348.14 3046,-1347.06 3048.64,-1346.05 3051.42,-1345.13 3054.33,-1344.29 3057.34,-1343.54 3060.46,-1342.88 3063.66,-1342.31 3066.94,-1341.83 3070.29,-1341.45 3073.68,-1341.16 3077.11,-1340.97 3080.56,-1340.87 3084.01,-1340.87 3087.46,-1340.97"/>
<text text-anchor="start" x="3053.12" y="-1385.91" font-family="Times,serif" font-size="14.00">C3245499</text>
<text text-anchor="start" x="3054.68" y="-1371.91" font-family="Times,serif" font-size="14.00">Colombia</text>
<text text-anchor="start" x="3059.34" y="-1357.91" font-family="Times,serif" font-size="14.00">152:152</text>
</g>
<!-- id_28434897_DOT_6&#45;&#45;id_28434897_DOT_33 -->
<g id="edge25" class="edge">
<title>id_28434897_DOT_6&#45;&#45;id_28434897_DOT_33</title>
<path fill="none" stroke="black" stroke-dasharray="1,5" d="M2801.67,-1682.58C2862.28,-1616.39 2998.23,-1467.91 3055.76,-1405.08"/>
<text text-anchor="middle" x="2902.46" y="-1546.63" font-family="Times,serif" font-size="14.00">0.825401</text>
</g>
<!-- id_28434897_DOT_7 -->
<g id="node7" class="node">
<title>id_28434897_DOT_7</title>
<polygon fill="cadetblue" stroke="cadetblue" points="1041.67,-1502.48 1050.57,-1502.67 1059.37,-1502.96 1068.04,-1503.34 1076.55,-1503.82 1084.87,-1504.39 1092.95,-1505.05 1100.77,-1505.8 1108.3,-1506.64 1115.52,-1507.56 1122.38,-1508.57 1128.88,-1509.65 1134.99,-1510.81 1140.69,-1512.05 1145.96,-1513.35 1150.79,-1514.72 1155.16,-1516.16 1159.07,-1517.65 1162.52,-1519.2 1165.49,-1520.8 1167.98,-1522.44 1170,-1524.13 1171.54,-1525.85 1172.62,-1527.6 1173.24,-1529.39 1173.41,-1531.19 1173.13,-1533.01 1172.43,-1534.85 1171.31,-1536.69 1169.8,-1538.54 1167.9,-1540.38 1165.64,-1542.22 1163.04,-1544.04 1160.1,-1545.84 1156.86,-1547.63 1153.33,-1549.38 1149.54,-1551.1 1145.49,-1552.79 1141.22,-1554.43 1136.73,-1556.03 1132.06,-1557.58 1127.21,-1559.07 1122.21,-1560.51 1117.06,-1561.88 1111.79,-1563.18 1106.41,-1564.42 1100.93,-1565.58 1095.37,-1566.66 1089.73,-1567.67 1084.04,-1568.59 1078.29,-1569.43 1072.49,-1570.18 1066.66,-1570.84 1060.79,-1571.41 1054.91,-1571.89 1049,-1572.27 1043.08,-1572.56 1037.15,-1572.75 1031.21,-1572.85 1025.27,-1572.85 1019.33,-1572.75 1013.4,-1572.56 1007.48,-1572.27 1001.57,-1571.89 995.68,-1571.41 989.82,-1570.84 983.99,-1570.18 978.19,-1569.43 972.44,-1568.59 966.74,-1567.67 961.11,-1566.66 955.55,-1565.58 950.07,-1564.42 944.69,-1563.18 939.42,-1561.88 934.27,-1560.51 929.27,-1559.07 924.42,-1557.58 919.74,-1556.03 915.26,-1554.43 910.99,-1552.79 906.94,-1551.1 903.14,-1549.38 899.62,-1547.63 896.37,-1545.84 893.44,-1544.04 890.84,-1542.22 888.58,-1540.38 886.68,-1538.54 885.16,-1536.69 884.05,-1534.85 883.35,-1533.01 883.07,-1531.19 883.24,-1529.39 883.86,-1527.6 884.93,-1525.85 886.48,-1524.13 888.5,-1522.44 890.99,-1520.8 893.96,-1519.2 897.4,-1517.65 901.32,-1516.16 905.69,-1514.72 910.52,-1513.35 915.79,-1512.05 921.49,-1510.81 927.6,-1509.65 934.09,-1508.57 940.96,-1507.56 948.17,-1506.64 955.7,-1505.8 963.53,-1505.05 971.61,-1504.39 979.92,-1503.82 988.44,-1503.34 997.11,-1502.96 1005.91,-1502.67 1014.81,-1502.48 1023.76,-1502.38 1032.72,-1502.38 1041.67,-1502.48"/>
<text text-anchor="start" x="999.07" y="-1547.41" font-family="Times,serif" font-size="14.00">C1708333</text>
<text text-anchor="start" x="939.91" y="-1533.41" font-family="Times,serif" font-size="14.00">Fundacion Valle del Lili in Cali</text>
<text text-anchor="start" x="1012.29" y="-1519.41" font-family="Times,serif" font-size="14.00">18:23</text>
</g>
<!-- id_28434897_DOT_18 -->
<g id="node18" class="node">
<title>id_28434897_DOT_18</title>
<polygon fill="cadetblue" stroke="cadetblue" points="1360.64,-1759.92 1369.19,-1760.11 1377.65,-1760.4 1385.99,-1760.78 1394.17,-1761.26 1402.16,-1761.83 1409.93,-1762.49 1417.45,-1763.24 1424.69,-1764.08 1431.62,-1765.01 1438.22,-1766.01 1444.47,-1767.09 1450.34,-1768.26 1455.81,-1769.49 1460.88,-1770.8 1465.52,-1772.17 1469.73,-1773.6 1473.49,-1775.09 1476.8,-1776.64 1479.65,-1778.24 1482.05,-1779.88 1483.99,-1781.57 1485.47,-1783.29 1486.51,-1785.05 1487.1,-1786.83 1487.26,-1788.64 1487,-1790.46 1486.33,-1792.29 1485.25,-1794.14 1483.8,-1795.98 1481.97,-1797.82 1479.8,-1799.66 1477.3,-1801.48 1474.48,-1803.29 1471.36,-1805.07 1467.97,-1806.82 1464.32,-1808.55 1460.43,-1810.23 1456.32,-1811.88 1452.01,-1813.48 1447.52,-1815.02 1442.86,-1816.52 1438.05,-1817.95 1433.1,-1819.32 1428.04,-1820.63 1422.86,-1821.86 1417.6,-1823.02 1412.25,-1824.11 1406.84,-1825.11 1401.36,-1826.03 1395.83,-1826.87 1390.26,-1827.62 1384.65,-1828.28 1379.02,-1828.85 1373.36,-1829.33 1367.68,-1829.72 1361.99,-1830 1356.29,-1830.2 1350.58,-1830.29 1344.87,-1830.29 1339.17,-1830.2 1333.46,-1830 1327.77,-1829.72 1322.09,-1829.33 1316.43,-1828.85 1310.8,-1828.28 1305.19,-1827.62 1299.62,-1826.87 1294.09,-1826.03 1288.62,-1825.11 1283.2,-1824.11 1277.85,-1823.02 1272.59,-1821.86 1267.42,-1820.63 1262.35,-1819.32 1257.4,-1817.95 1252.59,-1816.52 1247.93,-1815.02 1243.44,-1813.48 1239.13,-1811.88 1235.02,-1810.23 1231.13,-1808.55 1227.48,-1806.82 1224.09,-1805.07 1220.98,-1803.29 1218.16,-1801.48 1215.65,-1799.66 1213.48,-1797.82 1211.66,-1795.98 1210.2,-1794.14 1209.13,-1792.29 1208.45,-1790.46 1208.19,-1788.64 1208.35,-1786.83 1208.94,-1785.05 1209.98,-1783.29 1211.46,-1781.57 1213.4,-1779.88 1215.8,-1778.24 1218.65,-1776.64 1221.96,-1775.09 1225.73,-1773.6 1229.93,-1772.17 1234.57,-1770.8 1239.64,-1769.49 1245.12,-1768.26 1250.99,-1767.09 1257.23,-1766.01 1263.83,-1765.01 1270.77,-1764.08 1278,-1763.24 1285.52,-1762.49 1293.29,-1761.83 1301.29,-1761.26 1309.47,-1760.78 1317.8,-1760.4 1326.26,-1760.11 1334.81,-1759.92 1343.42,-1759.82 1352.04,-1759.82 1360.64,-1759.92"/>
<text text-anchor="start" x="1318.56" y="-1804.86" font-family="Times,serif" font-size="14.00">C1708333</text>
<text text-anchor="start" x="1263.09" y="-1790.86" font-family="Times,serif" font-size="14.00">Fundación Valle del Lili , Cali</text>
<text text-anchor="start" x="1331.78" y="-1776.86" font-family="Times,serif" font-size="14.00">66:71</text>
</g>
<!-- id_28434897_DOT_7&#45;&#45;id_28434897_DOT_18 -->
<g id="edge6" class="edge">
<title>id_28434897_DOT_7&#45;&#45;id_28434897_DOT_18</title>
<path fill="none" stroke="black" d="M1069.35,-1570.74C1130.19,-1619.77 1243.63,-1711.18 1305.25,-1760.83"/>
<text text-anchor="middle" x="1161.05" y="-1668.59" font-family="Times,serif" font-size="14.00">0.026829</text>
</g>
<!-- id_28434897_DOT_8 -->
<g id="node8" class="node">
<title>id_28434897_DOT_8</title>
<polygon fill="chartreuse" stroke="chartreuse" points="3661.51,-770.03 3664.94,-770.22 3668.33,-770.51 3671.68,-770.9 3674.96,-771.37 3678.16,-771.94 3681.28,-772.6 3684.29,-773.36 3687.2,-774.19 3689.98,-775.12 3692.62,-776.12 3695.13,-777.21 3697.48,-778.37 3699.68,-779.6 3701.71,-780.91 3703.57,-782.28 3705.26,-783.71 3706.77,-785.2 3708.09,-786.75 3709.24,-788.35 3710.2,-789.99 3710.98,-791.68 3711.57,-793.4 3711.99,-795.16 3712.23,-796.94 3712.29,-798.75 3712.18,-800.57 3711.91,-802.4 3711.48,-804.25 3710.9,-806.09 3710.17,-807.93 3709.3,-809.77 3708.29,-811.59 3707.16,-813.4 3705.91,-815.18 3704.55,-816.94 3703.09,-818.66 3701.53,-820.34 3699.88,-821.99 3698.16,-823.59 3696.35,-825.13 3694.48,-826.63 3692.55,-828.06 3690.57,-829.43 3688.54,-830.74 3686.47,-831.97 3684.35,-833.13 3682.21,-834.22 3680.04,-835.22 3677.84,-836.15 3675.63,-836.98 3673.39,-837.73 3671.14,-838.39 3668.88,-838.97 3666.61,-839.44 3664.34,-839.83 3662.05,-840.12 3659.77,-840.31 3657.48,-840.4 3655.19,-840.4 3652.9,-840.31 3650.61,-840.12 3648.33,-839.83 3646.06,-839.44 3643.79,-838.97 3641.53,-838.39 3639.28,-837.73 3637.04,-836.98 3634.83,-836.15 3632.63,-835.22 3630.46,-834.22 3628.31,-833.13 3626.2,-831.97 3624.13,-830.74 3622.1,-829.43 3620.11,-828.06 3618.18,-826.63 3616.32,-825.13 3614.51,-823.59 3612.78,-821.99 3611.14,-820.34 3609.58,-818.66 3608.11,-816.94 3606.75,-815.18 3605.51,-813.4 3604.37,-811.59 3603.37,-809.77 3602.5,-807.93 3601.77,-806.09 3601.18,-804.25 3600.75,-802.4 3600.48,-800.57 3600.38,-798.75 3600.44,-796.94 3600.68,-795.16 3601.1,-793.4 3601.69,-791.68 3602.47,-789.99 3603.43,-788.35 3604.57,-786.75 3605.9,-785.2 3607.41,-783.71 3609.1,-782.28 3610.96,-780.91 3612.99,-779.6 3615.19,-778.37 3617.54,-777.21 3620.05,-776.12 3622.69,-775.12 3625.47,-774.19 3628.37,-773.36 3631.39,-772.6 3634.51,-771.94 3637.71,-771.37 3640.99,-770.9 3644.34,-770.51 3647.73,-770.22 3651.16,-770.03 3654.61,-769.93 3658.06,-769.93 3661.51,-770.03"/>
<text text-anchor="start" x="3627.17" y="-814.97" font-family="Times,serif" font-size="14.00">C3245499</text>
<text text-anchor="start" x="3628.72" y="-800.97" font-family="Times,serif" font-size="14.00">Colombia</text>
<text text-anchor="start" x="3640.39" y="-786.97" font-family="Times,serif" font-size="14.00">25:25</text>
</g>
<!-- id_28434897_DOT_19 -->
<g id="node19" class="node">
<title>id_28434897_DOT_19</title>
<polygon fill="chartreuse" stroke="chartreuse" points="3401.9,-1069.06 3405.33,-1069.25 3408.72,-1069.54 3412.07,-1069.93 3415.35,-1070.4 3418.55,-1070.98 3421.67,-1071.64 3424.68,-1072.39 3427.59,-1073.22 3430.37,-1074.15 3433.01,-1075.15 3435.52,-1076.24 3437.87,-1077.4 3440.07,-1078.63 3442.1,-1079.94 3443.96,-1081.31 3445.65,-1082.74 3447.16,-1084.24 3448.49,-1085.78 3449.63,-1087.38 3450.59,-1089.03 3451.37,-1090.71 3451.96,-1092.44 3452.38,-1094.19 3452.62,-1095.97 3452.68,-1097.78 3452.58,-1099.6 3452.31,-1101.44 3451.88,-1103.28 3451.29,-1105.12 3450.56,-1106.97 3449.69,-1108.8 3448.69,-1110.62 3447.55,-1112.43 3446.31,-1114.21 3444.95,-1115.97 3443.48,-1117.69 3441.92,-1119.38 3440.28,-1121.02 3438.55,-1122.62 3436.74,-1124.17 3434.88,-1125.66 3432.95,-1127.09 3430.96,-1128.46 3428.93,-1129.77 3426.86,-1131 3424.75,-1132.16 3422.6,-1133.25 3420.43,-1134.25 3418.23,-1135.18 3416.02,-1136.01 3413.78,-1136.77 3411.53,-1137.43 3409.27,-1138 3407,-1138.47 3404.73,-1138.86 3402.45,-1139.15 3400.16,-1139.34 3397.87,-1139.44 3395.58,-1139.44 3393.29,-1139.34 3391.01,-1139.15 3388.72,-1138.86 3386.45,-1138.47 3384.18,-1138 3381.92,-1137.43 3379.67,-1136.77 3377.43,-1136.01 3375.22,-1135.18 3373.02,-1134.25 3370.85,-1133.25 3368.71,-1132.16 3366.59,-1131 3364.52,-1129.77 3362.49,-1128.46 3360.51,-1127.09 3358.58,-1125.66 3356.71,-1124.17 3354.9,-1122.62 3353.18,-1121.02 3351.53,-1119.38 3349.97,-1117.69 3348.51,-1115.97 3347.15,-1114.21 3345.9,-1112.43 3344.77,-1110.62 3343.76,-1108.8 3342.89,-1106.97 3342.16,-1105.12 3341.58,-1103.28 3341.15,-1101.44 3340.88,-1099.6 3340.77,-1097.78 3340.83,-1095.97 3341.07,-1094.19 3341.49,-1092.44 3342.08,-1090.71 3342.86,-1089.03 3343.82,-1087.38 3344.97,-1085.78 3346.29,-1084.24 3347.8,-1082.74 3349.49,-1081.31 3351.35,-1079.94 3353.38,-1078.63 3355.58,-1077.4 3357.93,-1076.24 3360.44,-1075.15 3363.08,-1074.15 3365.86,-1073.22 3368.77,-1072.39 3371.78,-1071.64 3374.9,-1070.98 3378.1,-1070.4 3381.38,-1069.93 3384.73,-1069.54 3388.12,-1069.25 3391.55,-1069.06 3395,-1068.97 3398.45,-1068.97 3401.9,-1069.06"/>
<text text-anchor="start" x="3367.56" y="-1114" font-family="Times,serif" font-size="14.00">C3245499</text>
<text text-anchor="start" x="3369.12" y="-1100" font-family="Times,serif" font-size="14.00">Colombia</text>
<text text-anchor="start" x="3380.78" y="-1086" font-family="Times,serif" font-size="14.00">73:73</text>
</g>
<!-- id_28434897_DOT_8&#45;&#45;id_28434897_DOT_19 -->
<g id="edge7" class="edge">
<title>id_28434897_DOT_8&#45;&#45;id_28434897_DOT_19</title>
<path fill="none" stroke="black" d="M3630.73,-834.66C3581.74,-891.09 3475.1,-1013.93 3424.47,-1072.24"/>
<text text-anchor="middle" x="3501.35" y="-956.25" font-family="Times,serif" font-size="14.00">0.006601</text>
</g>
<!-- id_28434897_DOT_30 -->
<g id="node30" class="node">
<title>id_28434897_DOT_30</title>
<polygon fill="crimson" stroke="crimson" points="1770.03,-0.23 1776.49,-0.42 1782.88,-0.71 1789.18,-1.09 1795.36,-1.57 1801.4,-2.14 1807.26,-2.8 1812.94,-3.55 1818.41,-4.39 1823.65,-5.31 1828.63,-6.32 1833.35,-7.4 1837.78,-8.57 1841.92,-9.8 1845.75,-11.1 1849.25,-12.48 1852.43,-13.91 1855.27,-15.4 1857.77,-16.95 1859.93,-18.55 1861.74,-20.19 1863.2,-21.88 1864.32,-23.6 1865.11,-25.36 1865.56,-27.14 1865.68,-28.94 1865.48,-30.77 1864.97,-32.6 1864.16,-34.44 1863.06,-36.29 1861.68,-38.13 1860.04,-39.97 1858.15,-41.79 1856.02,-43.6 1853.66,-45.38 1851.1,-47.13 1848.35,-48.86 1845.41,-50.54 1842.31,-52.19 1839.05,-53.78 1835.66,-55.33 1832.14,-56.82 1828.5,-58.26 1824.77,-59.63 1820.94,-60.94 1817.03,-62.17 1813.06,-63.33 1809.02,-64.42 1804.93,-65.42 1800.79,-66.34 1796.62,-67.18 1792.41,-67.93 1788.17,-68.59 1783.92,-69.16 1779.64,-69.64 1775.35,-70.02 1771.05,-70.31 1766.75,-70.51 1762.44,-70.6 1758.13,-70.6 1753.82,-70.51 1749.51,-70.31 1745.21,-70.02 1740.92,-69.64 1736.65,-69.16 1732.39,-68.59 1728.16,-67.93 1723.95,-67.18 1719.77,-66.34 1715.64,-65.42 1711.54,-64.42 1707.51,-63.33 1703.53,-62.17 1699.62,-60.94 1695.8,-59.63 1692.06,-58.26 1688.43,-56.82 1684.91,-55.33 1681.51,-53.78 1678.26,-52.19 1675.15,-50.54 1672.22,-48.86 1669.46,-47.13 1666.9,-45.38 1664.55,-43.6 1662.42,-41.79 1660.52,-39.97 1658.88,-38.13 1657.51,-36.29 1656.41,-34.44 1655.6,-32.6 1655.09,-30.77 1654.89,-28.94 1655.01,-27.14 1655.46,-25.36 1656.24,-23.6 1657.36,-21.88 1658.83,-20.19 1660.64,-18.55 1662.79,-16.95 1665.29,-15.4 1668.13,-13.91 1671.31,-12.48 1674.82,-11.1 1678.64,-9.8 1682.78,-8.57 1687.21,-7.4 1691.93,-6.32 1696.92,-5.31 1702.15,-4.39 1707.62,-3.55 1713.3,-2.8 1719.17,-2.14 1725.21,-1.57 1731.38,-1.09 1737.68,-0.71 1744.07,-0.42 1750.53,-0.23 1757.03,-0.13 1763.54,-0.13 1770.03,-0.23"/>
<text text-anchor="start" x="1731.11" y="-45.17" font-family="Times,serif" font-size="14.00">C0002783</text>
<text text-anchor="start" x="1698.27" y="-31.17" font-family="Times,serif" font-size="14.00">epidemiological study</text>
<text text-anchor="start" x="1737.34" y="-17.17" font-family="Times,serif" font-size="14.00">143:144</text>
</g>
<!-- id_28434897_DOT_9&#45;&#45;id_28434897_DOT_30 -->
<g id="edge8" class="edge">
<title>id_28434897_DOT_9&#45;&#45;id_28434897_DOT_30</title>
<path fill="none" stroke="black" d="M1834.87,-385.18C1819.25,-311.95 1783.42,-143.89 1767.8,-70.61"/>
<text text-anchor="middle" x="1775.08" y="-230.69" font-family="Times,serif" font-size="14.00">0.051933</text>
</g>
<!-- id_28434897_DOT_20 -->
<g id="node20" class="node">
<title>id_28434897_DOT_20</title>
<polygon fill="bisque" stroke="bisque" points="4101.46,-2640.59 4104.89,-2640.78 4108.28,-2641.07 4111.62,-2641.45 4114.9,-2641.93 4118.11,-2642.5 4121.22,-2643.16 4124.24,-2643.91 4127.14,-2644.75 4129.92,-2645.67 4132.57,-2646.68 4135.07,-2647.76 4137.43,-2648.93 4139.62,-2650.16 4141.66,-2651.47 4143.52,-2652.84 4145.2,-2654.27 4146.71,-2655.76 4148.04,-2657.31 4149.18,-2658.91 4150.15,-2660.55 4150.92,-2662.24 4151.52,-2663.96 4151.93,-2665.72 4152.17,-2667.5 4152.24,-2669.31 4152.13,-2671.13 4151.86,-2672.96 4151.43,-2674.81 4150.85,-2676.65 4150.12,-2678.49 4149.24,-2680.33 4148.24,-2682.15 4147.11,-2683.96 4145.86,-2685.74 4144.5,-2687.49 4143.04,-2689.22 4141.48,-2690.9 4139.83,-2692.55 4138.1,-2694.15 4136.3,-2695.69 4134.43,-2697.19 4132.5,-2698.62 4130.52,-2699.99 4128.49,-2701.3 4126.41,-2702.53 4124.3,-2703.69 4122.16,-2704.78 4119.98,-2705.78 4117.79,-2706.7 4115.57,-2707.54 4113.34,-2708.29 4111.09,-2708.95 4108.83,-2709.52 4106.56,-2710 4104.28,-2710.39 4102,-2710.67 4099.71,-2710.87 4097.42,-2710.96 4095.14,-2710.96 4092.85,-2710.87 4090.56,-2710.67 4088.28,-2710.39 4086,-2710 4083.73,-2709.52 4081.47,-2708.95 4079.22,-2708.29 4076.99,-2707.54 4074.77,-2706.7 4072.58,-2705.78 4070.4,-2704.78 4068.26,-2703.69 4066.15,-2702.53 4064.07,-2701.3 4062.04,-2699.99 4060.06,-2698.62 4058.13,-2697.19 4056.26,-2695.69 4054.46,-2694.15 4052.73,-2692.55 4051.08,-2690.9 4049.52,-2689.22 4048.06,-2687.49 4046.7,-2685.74 4045.45,-2683.96 4044.32,-2682.15 4043.32,-2680.33 4042.45,-2678.49 4041.71,-2676.65 4041.13,-2674.81 4040.7,-2672.96 4040.43,-2671.13 4040.32,-2669.31 4040.39,-2667.5 4040.63,-2665.72 4041.04,-2663.96 4041.64,-2662.24 4042.42,-2660.55 4043.38,-2658.91 4044.52,-2657.31 4045.85,-2655.76 4047.36,-2654.27 4049.04,-2652.84 4050.9,-2651.47 4052.94,-2650.16 4055.13,-2648.93 4057.49,-2647.76 4059.99,-2646.68 4062.64,-2645.67 4065.42,-2644.75 4068.32,-2643.91 4071.34,-2643.16 4074.45,-2642.5 4077.66,-2641.93 4080.94,-2641.45 4084.28,-2641.07 4087.67,-2640.78 4091.1,-2640.59 4094.55,-2640.49 4098.01,-2640.49 4101.46,-2640.59"/>
<text text-anchor="start" x="4067.11" y="-2685.53" font-family="Times,serif" font-size="14.00">C0005670</text>
<text text-anchor="start" x="4081.5" y="-2671.53" font-family="Times,serif" font-size="14.00">BKV</text>
<text text-anchor="start" x="4080.34" y="-2657.53" font-family="Times,serif" font-size="14.00">79:79</text>
</g>
<!-- id_28434897_DOT_10&#45;&#45;id_28434897_DOT_20 -->
<g id="edge9" class="edge">
<title>id_28434897_DOT_10&#45;&#45;id_28434897_DOT_20</title>
<path fill="none" stroke="black" d="M3790.05,-2525.5C3854.62,-2557.18 3980.67,-2619.01 4049.19,-2652.63"/>
<text text-anchor="middle" x="3893.37" y="-2591.87" font-family="Times,serif" font-size="14.00">0.001366</text>
</g>
<!-- id_28434897_DOT_11&#45;&#45;id_28434897_DOT_17 -->
<g id="edge26" class="edge">
<title>id_28434897_DOT_11&#45;&#45;id_28434897_DOT_17</title>
<path fill="none" stroke="black" stroke-dasharray="1,5" d="M2336.64,-1556.64C2319.18,-1473.07 2275.56,-1264.26 2258.16,-1181"/>
<text text-anchor="middle" x="2271.15" y="-1371.62" font-family="Times,serif" font-size="14.00">0.836394</text>
</g>
<!-- id_28434897_DOT_21 -->
<g id="node21" class="node">
<title>id_28434897_DOT_21</title>
<polygon fill="blue" stroke="blue" points="811.92,-2288.47 815.35,-2288.66 818.74,-2288.95 822.09,-2289.34 825.37,-2289.81 828.57,-2290.39 831.69,-2291.05 834.7,-2291.8 837.61,-2292.63 840.39,-2293.56 843.03,-2294.56 845.54,-2295.65 847.89,-2296.81 850.09,-2298.04 852.12,-2299.35 853.98,-2300.72 855.67,-2302.15 857.18,-2303.65 858.5,-2305.19 859.65,-2306.79 860.61,-2308.44 861.39,-2310.12 861.98,-2311.85 862.4,-2313.6 862.64,-2315.38 862.7,-2317.19 862.6,-2319.01 862.33,-2320.85 861.9,-2322.69 861.31,-2324.53 860.58,-2326.38 859.71,-2328.21 858.7,-2330.03 857.57,-2331.84 856.33,-2333.62 854.97,-2335.38 853.5,-2337.1 851.94,-2338.79 850.3,-2340.43 848.57,-2342.03 846.76,-2343.58 844.9,-2345.07 842.97,-2346.5 840.98,-2347.87 838.95,-2349.18 836.88,-2350.41 834.77,-2351.57 832.62,-2352.66 830.45,-2353.66 828.25,-2354.59 826.04,-2355.42 823.8,-2356.18 821.55,-2356.84 819.29,-2357.41 817.02,-2357.88 814.75,-2358.27 812.47,-2358.56 810.18,-2358.75 807.89,-2358.85 805.6,-2358.85 803.31,-2358.75 801.03,-2358.56 798.74,-2358.27 796.47,-2357.88 794.2,-2357.41 791.94,-2356.84 789.69,-2356.18 787.45,-2355.42 785.24,-2354.59 783.04,-2353.66 780.87,-2352.66 778.73,-2351.57 776.61,-2350.41 774.54,-2349.18 772.51,-2347.87 770.53,-2346.5 768.6,-2345.07 766.73,-2343.58 764.92,-2342.03 763.2,-2340.43 761.55,-2338.79 759.99,-2337.1 758.53,-2335.38 757.17,-2333.62 755.92,-2331.84 754.79,-2330.03 753.78,-2328.21 752.91,-2326.38 752.18,-2324.53 751.6,-2322.69 751.17,-2320.85 750.9,-2319.01 750.79,-2317.19 750.85,-2315.38 751.09,-2313.6 751.51,-2311.85 752.1,-2310.12 752.88,-2308.44 753.84,-2306.79 754.99,-2305.19 756.31,-2303.65 757.82,-2302.15 759.51,-2300.72 761.37,-2299.35 763.4,-2298.04 765.6,-2296.81 767.95,-2295.65 770.46,-2294.56 773.1,-2293.56 775.88,-2292.63 778.79,-2291.8 781.8,-2291.05 784.92,-2290.39 788.12,-2289.81 791.4,-2289.34 794.75,-2288.95 798.14,-2288.66 801.57,-2288.47 805.02,-2288.38 808.47,-2288.38 811.92,-2288.47"/>
<text text-anchor="start" x="777.58" y="-2333.41" font-family="Times,serif" font-size="14.00">C0001737</text>
<text text-anchor="start" x="785.37" y="-2319.41" font-family="Times,serif" font-size="14.00">African</text>
<text text-anchor="start" x="790.8" y="-2305.41" font-family="Times,serif" font-size="14.00">89:89</text>
</g>
<!-- id_28434897_DOT_12&#45;&#45;id_28434897_DOT_21 -->
<g id="edge10" class="edge">
<title>id_28434897_DOT_12&#45;&#45;id_28434897_DOT_21</title>
<path fill="none" stroke="black" d="M467.96,-2403.33C545.25,-2385.14 684.52,-2352.37 758.12,-2335.05"/>
<text text-anchor="middle" x="586.79" y="-2371.99" font-family="Times,serif" font-size="14.00">0.003270</text>
</g>
<!-- id_28434897_DOT_31 -->
<g id="node31" class="node">
<title>id_28434897_DOT_31</title>
<polygon fill="blue" stroke="blue" points="210.54,-2725.8 213.97,-2725.99 217.37,-2726.28 220.71,-2726.66 223.99,-2727.14 227.19,-2727.71 230.31,-2728.37 233.33,-2729.12 236.23,-2729.96 239.01,-2730.88 241.66,-2731.89 244.16,-2732.97 246.51,-2734.13 248.71,-2735.37 250.74,-2736.67 252.6,-2738.04 254.29,-2739.48 255.8,-2740.97 257.13,-2742.52 258.27,-2744.12 259.23,-2745.76 260.01,-2747.45 260.61,-2749.17 261.02,-2750.92 261.26,-2752.71 261.32,-2754.51 261.22,-2756.33 260.95,-2758.17 260.52,-2760.01 259.93,-2761.86 259.2,-2763.7 258.33,-2765.54 257.33,-2767.36 256.2,-2769.16 254.95,-2770.95 253.59,-2772.7 252.12,-2774.42 250.56,-2776.11 248.92,-2777.75 247.19,-2779.35 245.39,-2780.9 243.52,-2782.39 241.59,-2783.83 239.6,-2785.2 237.57,-2786.5 235.5,-2787.74 233.39,-2788.9 231.24,-2789.98 229.07,-2790.99 226.87,-2791.91 224.66,-2792.75 222.42,-2793.5 220.17,-2794.16 217.91,-2794.73 215.65,-2795.21 213.37,-2795.59 211.09,-2795.88 208.8,-2796.07 206.51,-2796.17 204.22,-2796.17 201.93,-2796.07 199.65,-2795.88 197.36,-2795.59 195.09,-2795.21 192.82,-2794.73 190.56,-2794.16 188.31,-2793.5 186.08,-2792.75 183.86,-2791.91 181.66,-2790.99 179.49,-2789.98 177.35,-2788.9 175.24,-2787.74 173.16,-2786.5 171.13,-2785.2 169.15,-2783.83 167.22,-2782.39 165.35,-2780.9 163.55,-2779.35 161.82,-2777.75 160.17,-2776.11 158.61,-2774.42 157.15,-2772.7 155.79,-2770.95 154.54,-2769.16 153.41,-2767.36 152.4,-2765.54 151.53,-2763.7 150.8,-2761.86 150.22,-2760.01 149.79,-2758.17 149.52,-2756.33 149.41,-2754.51 149.47,-2752.71 149.71,-2750.92 150.13,-2749.17 150.72,-2747.45 151.5,-2745.76 152.46,-2744.12 153.61,-2742.52 154.93,-2740.97 156.44,-2739.48 158.13,-2738.04 159.99,-2736.67 162.02,-2735.37 164.22,-2734.13 166.57,-2732.97 169.08,-2731.89 171.72,-2730.88 174.5,-2729.96 177.41,-2729.12 180.42,-2728.37 183.54,-2727.71 186.74,-2727.14 190.02,-2726.66 193.37,-2726.28 196.76,-2725.99 200.19,-2725.8 203.64,-2725.7 207.09,-2725.7 210.54,-2725.8"/>
<text text-anchor="start" x="176.2" y="-2770.74" font-family="Times,serif" font-size="14.00">C0001737</text>
<text text-anchor="start" x="183.99" y="-2756.74" font-family="Times,serif" font-size="14.00">African</text>
<text text-anchor="start" x="182.42" y="-2742.74" font-family="Times,serif" font-size="14.00">147:147</text>
</g>
<!-- id_28434897_DOT_12&#45;&#45;id_28434897_DOT_31 -->
<g id="edge11" class="edge">
<title>id_28434897_DOT_12&#45;&#45;id_28434897_DOT_31</title>
<path fill="none" stroke="black" d="M393.43,-2448.43C354.22,-2513.6 265.62,-2660.81 225.63,-2727.26"/>
<text text-anchor="middle" x="283.54" y="-2590.65" font-family="Times,serif" font-size="14.00">0.004118</text>
</g>
<!-- id_28434897_DOT_14&#45;&#45;id_28434897_DOT_18 -->
<g id="edge27" class="edge">
<title>id_28434897_DOT_14&#45;&#45;id_28434897_DOT_18</title>
<path fill="none" stroke="black" stroke-dasharray="1,5" d="M1583.53,-2065.43C1532.19,-2006.55 1428.61,-1887.79 1377.55,-1829.26"/>
<text text-anchor="middle" x="1454.29" y="-1950.14" font-family="Times,serif" font-size="14.00">0.942082</text>
</g>
<!-- id_28434897_DOT_22 -->
<g id="node22" class="node">
<title>id_28434897_DOT_22</title>
<polygon fill="darkgreen" stroke="darkgreen" points="1670.56,-2486.44 1673.98,-2486.63 1677.38,-2486.92 1680.72,-2487.31 1684,-2487.78 1687.21,-2488.35 1690.32,-2489.01 1693.34,-2489.77 1696.24,-2490.6 1699.02,-2491.53 1701.67,-2492.53 1704.17,-2493.62 1706.53,-2494.78 1708.72,-2496.01 1710.75,-2497.32 1712.61,-2498.69 1714.3,-2500.12 1715.81,-2501.61 1717.14,-2503.16 1718.28,-2504.76 1719.24,-2506.4 1720.02,-2508.09 1720.62,-2509.81 1721.03,-2511.57 1721.27,-2513.35 1721.33,-2515.16 1721.23,-2516.98 1720.96,-2518.81 1720.53,-2520.66 1719.94,-2522.5 1719.21,-2524.34 1718.34,-2526.18 1717.34,-2528 1716.21,-2529.81 1714.96,-2531.59 1713.6,-2533.35 1712.13,-2535.07 1710.57,-2536.75 1708.93,-2538.4 1707.2,-2540 1705.4,-2541.54 1703.53,-2543.04 1701.6,-2544.47 1699.61,-2545.84 1697.58,-2547.15 1695.51,-2548.38 1693.4,-2549.54 1691.25,-2550.63 1689.08,-2551.63 1686.88,-2552.56 1684.67,-2553.39 1682.43,-2554.14 1680.19,-2554.8 1677.93,-2555.38 1675.66,-2555.85 1673.38,-2556.24 1671.1,-2556.53 1668.81,-2556.72 1666.52,-2556.81 1664.23,-2556.81 1661.94,-2556.72 1659.66,-2556.53 1657.38,-2556.24 1655.1,-2555.85 1652.83,-2555.38 1650.57,-2554.8 1648.32,-2554.14 1646.09,-2553.39 1643.87,-2552.56 1641.67,-2551.63 1639.5,-2550.63 1637.36,-2549.54 1635.25,-2548.38 1633.17,-2547.15 1631.14,-2545.84 1629.16,-2544.47 1627.23,-2543.04 1625.36,-2541.54 1623.56,-2540 1621.83,-2538.4 1620.18,-2536.75 1618.62,-2535.07 1617.16,-2533.35 1615.8,-2531.59 1614.55,-2529.81 1613.42,-2528 1612.41,-2526.18 1611.54,-2524.34 1610.81,-2522.5 1610.23,-2520.66 1609.8,-2518.81 1609.53,-2516.98 1609.42,-2515.16 1609.48,-2513.35 1609.72,-2511.57 1610.14,-2509.81 1610.73,-2508.09 1611.51,-2506.4 1612.47,-2504.76 1613.62,-2503.16 1614.95,-2501.61 1616.45,-2500.12 1618.14,-2498.69 1620,-2497.32 1622.03,-2496.01 1624.23,-2494.78 1626.58,-2493.62 1629.09,-2492.53 1631.74,-2491.53 1634.52,-2490.6 1637.42,-2489.77 1640.43,-2489.01 1643.55,-2488.35 1646.75,-2487.78 1650.03,-2487.31 1653.38,-2486.92 1656.77,-2486.63 1660.2,-2486.44 1663.65,-2486.34 1667.11,-2486.34 1670.56,-2486.44"/>
<text text-anchor="start" x="1636.21" y="-2531.38" font-family="Times,serif" font-size="14.00">C1446409</text>
<text text-anchor="start" x="1643.21" y="-2517.38" font-family="Times,serif" font-size="14.00">positive</text>
<text text-anchor="start" x="1642.43" y="-2503.38" font-family="Times,serif" font-size="14.00">100:100</text>
</g>
<!-- id_28434897_DOT_14&#45;&#45;id_28434897_DOT_22 -->
<g id="edge28" class="edge">
<title>id_28434897_DOT_14&#45;&#45;id_28434897_DOT_22</title>
<path fill="none" stroke="black" stroke-dasharray="1,5" d="M1618.11,-2135.33C1627.82,-2214.67 1651.31,-2406.66 1661.04,-2486.18"/>
<text text-anchor="middle" x="1613.33" y="-2313.55" font-family="Times,serif" font-size="14.00">0.817307</text>
</g>
<!-- id_28434897_DOT_28 -->
<g id="node28" class="node">
<title>id_28434897_DOT_28</title>
<polygon fill="cornflowerblue" stroke="cornflowerblue" points="1221.81,-2194.95 1229.69,-2195.14 1237.49,-2195.43 1245.18,-2195.81 1252.72,-2196.29 1260.09,-2196.86 1267.25,-2197.52 1274.18,-2198.27 1280.85,-2199.11 1287.25,-2200.03 1293.33,-2201.04 1299.09,-2202.12 1304.5,-2203.28 1309.55,-2204.52 1314.22,-2205.82 1318.5,-2207.2 1322.37,-2208.63 1325.84,-2210.12 1328.89,-2211.67 1331.52,-2213.27 1333.73,-2214.91 1335.52,-2216.6 1336.89,-2218.32 1337.85,-2220.08 1338.39,-2221.86 1338.54,-2223.66 1338.3,-2225.49 1337.67,-2227.32 1336.69,-2229.16 1335.34,-2231.01 1333.66,-2232.85 1331.66,-2234.69 1329.35,-2236.51 1326.75,-2238.32 1323.88,-2240.1 1320.75,-2241.85 1317.39,-2243.58 1313.81,-2245.26 1310.02,-2246.91 1306.05,-2248.5 1301.9,-2250.05 1297.61,-2251.54 1293.17,-2252.98 1288.61,-2254.35 1283.94,-2255.66 1279.17,-2256.89 1274.32,-2258.05 1269.39,-2259.14 1264.4,-2260.14 1259.35,-2261.06 1254.26,-2261.9 1249.12,-2262.65 1243.95,-2263.31 1238.76,-2263.88 1233.54,-2264.36 1228.3,-2264.74 1223.06,-2265.03 1217.8,-2265.23 1212.54,-2265.32 1207.28,-2265.32 1202.02,-2265.23 1196.76,-2265.03 1191.52,-2264.74 1186.28,-2264.36 1181.06,-2263.88 1175.87,-2263.31 1170.7,-2262.65 1165.57,-2261.9 1160.47,-2261.06 1155.42,-2260.14 1150.43,-2259.14 1145.5,-2258.05 1140.65,-2256.89 1135.88,-2255.66 1131.21,-2254.35 1126.65,-2252.98 1122.21,-2251.54 1117.92,-2250.05 1113.77,-2248.5 1109.8,-2246.91 1106.01,-2245.26 1102.43,-2243.58 1099.07,-2241.85 1095.94,-2240.1 1093.07,-2238.32 1090.47,-2236.51 1088.16,-2234.69 1086.16,-2232.85 1084.48,-2231.01 1083.13,-2229.16 1082.15,-2227.32 1081.52,-2225.49 1081.28,-2223.66 1081.43,-2221.86 1081.97,-2220.08 1082.93,-2218.32 1084.3,-2216.6 1086.09,-2214.91 1088.3,-2213.27 1090.93,-2211.67 1093.98,-2210.12 1097.45,-2208.63 1101.32,-2207.2 1105.6,-2205.82 1110.27,-2204.52 1115.32,-2203.28 1120.73,-2202.12 1126.49,-2201.04 1132.58,-2200.03 1138.97,-2199.11 1145.64,-2198.27 1152.57,-2197.52 1159.73,-2196.86 1167.1,-2196.29 1174.64,-2195.81 1182.33,-2195.43 1190.13,-2195.14 1198.01,-2194.95 1205.94,-2194.85 1213.88,-2194.85 1221.81,-2194.95"/>
<text text-anchor="start" x="1180.74" y="-2239.89" font-family="Times,serif" font-size="14.00">C4304779</text>
<text text-anchor="start" x="1132.54" y="-2225.89" font-family="Times,serif" font-size="14.00">kidney transplant recipients</text>
<text text-anchor="start" x="1186.97" y="-2211.89" font-family="Times,serif" font-size="14.00">127:129</text>
</g>
<!-- id_28434897_DOT_14&#45;&#45;id_28434897_DOT_28 -->
<g id="edge29" class="edge">
<title>id_28434897_DOT_14&#45;&#45;id_28434897_DOT_28</title>
<path fill="none" stroke="black" stroke-dasharray="1,5" d="M1539.25,-2124.12C1470.98,-2146.08 1369.89,-2178.61 1297.73,-2201.83"/>
<text text-anchor="middle" x="1392.24" y="-2165.77" font-family="Times,serif" font-size="14.00">0.594168</text>
</g>
<!-- id_28434897_DOT_15 -->
<g id="node15" class="node">
<title>id_28434897_DOT_15</title>
<polygon fill="bisque" stroke="bisque" points="5157.61,-3644.67 5161.04,-3644.87 5164.44,-3645.16 5167.78,-3645.54 5171.06,-3646.02 5174.26,-3646.59 5177.38,-3647.25 5180.4,-3648 5183.3,-3648.84 5186.08,-3649.76 5188.73,-3650.76 5191.23,-3651.85 5193.58,-3653.01 5195.78,-3654.24 5197.81,-3655.55 5199.67,-3656.92 5201.36,-3658.36 5202.87,-3659.85 5204.2,-3661.4 5205.34,-3662.99 5206.3,-3664.64 5207.08,-3666.32 5207.68,-3668.05 5208.09,-3669.8 5208.33,-3671.58 5208.39,-3673.39 5208.29,-3675.21 5208.02,-3677.05 5207.59,-3678.89 5207,-3680.74 5206.27,-3682.58 5205.4,-3684.41 5204.4,-3686.24 5203.27,-3688.04 5202.02,-3689.82 5200.66,-3691.58 5199.19,-3693.3 5197.63,-3694.99 5195.99,-3696.63 5194.26,-3698.23 5192.46,-3699.78 5190.59,-3701.27 5188.66,-3702.7 5186.67,-3704.08 5184.64,-3705.38 5182.57,-3706.61 5180.46,-3707.78 5178.31,-3708.86 5176.14,-3709.87 5173.94,-3710.79 5171.73,-3711.63 5169.49,-3712.38 5167.25,-3713.04 5164.99,-3713.61 5162.72,-3714.09 5160.44,-3714.47 5158.16,-3714.76 5155.87,-3714.95 5153.58,-3715.05 5151.29,-3715.05 5149,-3714.95 5146.72,-3714.76 5144.43,-3714.47 5142.16,-3714.09 5139.89,-3713.61 5137.63,-3713.04 5135.38,-3712.38 5133.15,-3711.63 5130.93,-3710.79 5128.73,-3709.87 5126.56,-3708.86 5124.42,-3707.78 5122.31,-3706.61 5120.23,-3705.38 5118.2,-3704.08 5116.22,-3702.7 5114.29,-3701.27 5112.42,-3699.78 5110.62,-3698.23 5108.89,-3696.63 5107.24,-3694.99 5105.68,-3693.3 5104.22,-3691.58 5102.86,-3689.82 5101.61,-3688.04 5100.48,-3686.24 5099.47,-3684.41 5098.6,-3682.58 5097.87,-3680.74 5097.29,-3678.89 5096.86,-3677.05 5096.59,-3675.21 5096.48,-3673.39 5096.54,-3671.58 5096.78,-3669.8 5097.2,-3668.05 5097.79,-3666.32 5098.57,-3664.64 5099.53,-3662.99 5100.68,-3661.4 5102,-3659.85 5103.51,-3658.36 5105.2,-3656.92 5107.06,-3655.55 5109.09,-3654.24 5111.29,-3653.01 5113.64,-3651.85 5116.15,-3650.76 5118.79,-3649.76 5121.57,-3648.84 5124.48,-3648 5127.49,-3647.25 5130.61,-3646.59 5133.81,-3646.02 5137.09,-3645.54 5140.44,-3645.16 5143.83,-3644.87 5147.26,-3644.67 5150.71,-3644.58 5154.17,-3644.58 5157.61,-3644.67"/>
<text text-anchor="start" x="5123.27" y="-3689.61" font-family="Times,serif" font-size="14.00">C0005670</text>
<text text-anchor="start" x="5137.66" y="-3675.61" font-family="Times,serif" font-size="14.00">BKV</text>
<text text-anchor="start" x="5136.49" y="-3661.61" font-family="Times,serif" font-size="14.00">51:51</text>
</g>
<!-- id_28434897_DOT_32 -->
<g id="node32" class="node">
<title>id_28434897_DOT_32</title>
<polygon fill="bisque" stroke="bisque" points="4945.58,-3333.61 4949.01,-3333.8 4952.4,-3334.09 4955.75,-3334.47 4959.03,-3334.95 4962.23,-3335.52 4965.35,-3336.18 4968.36,-3336.93 4971.26,-3337.77 4974.04,-3338.69 4976.69,-3339.7 4979.2,-3340.78 4981.55,-3341.94 4983.75,-3343.18 4985.78,-3344.48 4987.64,-3345.85 4989.33,-3347.29 4990.83,-3348.78 4992.16,-3350.33 4993.31,-3351.93 4994.27,-3353.57 4995.05,-3355.26 4995.64,-3356.98 4996.06,-3358.73 4996.29,-3360.52 4996.36,-3362.32 4996.25,-3364.14 4995.98,-3365.98 4995.55,-3367.82 4994.97,-3369.67 4994.24,-3371.51 4993.37,-3373.35 4992.36,-3375.17 4991.23,-3376.97 4989.98,-3378.76 4988.62,-3380.51 4987.16,-3382.23 4985.6,-3383.92 4983.95,-3385.56 4982.22,-3387.16 4980.42,-3388.71 4978.55,-3390.2 4976.62,-3391.64 4974.64,-3393.01 4972.61,-3394.31 4970.53,-3395.55 4968.42,-3396.71 4966.28,-3397.79 4964.11,-3398.8 4961.91,-3399.72 4959.69,-3400.56 4957.46,-3401.31 4955.21,-3401.97 4952.95,-3402.54 4950.68,-3403.02 4948.4,-3403.4 4946.12,-3403.69 4943.84,-3403.88 4941.55,-3403.98 4939.26,-3403.98 4936.97,-3403.88 4934.68,-3403.69 4932.4,-3403.4 4930.12,-3403.02 4927.85,-3402.54 4925.59,-3401.97 4923.35,-3401.31 4921.11,-3400.56 4918.89,-3399.72 4916.7,-3398.8 4914.53,-3397.79 4912.38,-3396.71 4910.27,-3395.55 4908.2,-3394.31 4906.17,-3393.01 4904.18,-3391.64 4902.25,-3390.2 4900.38,-3388.71 4898.58,-3387.16 4896.85,-3385.56 4895.21,-3383.92 4893.65,-3382.23 4892.18,-3380.51 4890.82,-3378.76 4889.57,-3376.97 4888.44,-3375.17 4887.44,-3373.35 4886.57,-3371.51 4885.84,-3369.67 4885.25,-3367.82 4884.82,-3365.98 4884.55,-3364.14 4884.45,-3362.32 4884.51,-3360.52 4884.75,-3358.73 4885.16,-3356.98 4885.76,-3355.26 4886.54,-3353.57 4887.5,-3351.93 4888.64,-3350.33 4889.97,-3348.78 4891.48,-3347.29 4893.17,-3345.85 4895.03,-3344.48 4897.06,-3343.18 4899.25,-3341.94 4901.61,-3340.78 4904.11,-3339.7 4906.76,-3338.69 4909.54,-3337.77 4912.44,-3336.93 4915.46,-3336.18 4918.57,-3335.52 4921.78,-3334.95 4925.06,-3334.47 4928.4,-3334.09 4931.8,-3333.8 4935.22,-3333.61 4938.67,-3333.51 4942.13,-3333.51 4945.58,-3333.61"/>
<text text-anchor="start" x="4911.23" y="-3378.54" font-family="Times,serif" font-size="14.00">C0005670</text>
<text text-anchor="start" x="4925.62" y="-3364.54" font-family="Times,serif" font-size="14.00">BKV</text>
<text text-anchor="start" x="4917.46" y="-3350.54" font-family="Times,serif" font-size="14.00">150:150</text>
</g>
<!-- id_28434897_DOT_15&#45;&#45;id_28434897_DOT_32 -->
<g id="edge12" class="edge">
<title>id_28434897_DOT_15&#45;&#45;id_28434897_DOT_32</title>
<path fill="none" stroke="black" d="M5129.75,-3646.52C5088.51,-3586.02 5001.83,-3458.86 4961.67,-3399.94"/>
<text text-anchor="middle" x="5019.46" y="-3526.03" font-family="Times,serif" font-size="14.00">0.001348</text>
</g>
<!-- id_28434897_DOT_16 -->
<g id="node16" class="node">
<title>id_28434897_DOT_16</title>
<polygon fill="crimson" stroke="crimson" points="2469.84,-761.04 2474.96,-761.23 2480.03,-761.52 2485.02,-761.91 2489.92,-762.38 2494.7,-762.95 2499.36,-763.62 2503.86,-764.37 2508.2,-765.2 2512.35,-766.13 2516.3,-767.13 2520.04,-768.22 2523.56,-769.38 2526.83,-770.61 2529.87,-771.92 2532.65,-773.29 2535.17,-774.72 2537.42,-776.22 2539.4,-777.76 2541.11,-779.36 2542.55,-781.01 2543.71,-782.69 2544.6,-784.41 2545.22,-786.17 2545.57,-787.95 2545.67,-789.76 2545.51,-791.58 2545.11,-793.41 2544.46,-795.26 2543.59,-797.1 2542.5,-798.95 2541.2,-800.78 2539.7,-802.6 2538.01,-804.41 2536.15,-806.19 2534.12,-807.95 2531.93,-809.67 2529.6,-811.35 2527.14,-813 2524.56,-814.6 2521.87,-816.14 2519.08,-817.64 2516.2,-819.07 2513.23,-820.44 2510.2,-821.75 2507.1,-822.98 2503.95,-824.14 2500.75,-825.23 2497.51,-826.23 2494.23,-827.16 2490.92,-827.99 2487.58,-828.74 2484.22,-829.41 2480.85,-829.98 2477.46,-830.45 2474.06,-830.84 2470.65,-831.13 2467.23,-831.32 2463.82,-831.42 2460.4,-831.42 2456.98,-831.32 2453.57,-831.13 2450.16,-830.84 2446.76,-830.45 2443.37,-829.98 2439.99,-829.41 2436.64,-828.74 2433.3,-827.99 2429.99,-827.16 2426.71,-826.23 2423.47,-825.23 2420.26,-824.14 2417.11,-822.98 2414.01,-821.75 2410.98,-820.44 2408.02,-819.07 2405.14,-817.64 2402.35,-816.14 2399.65,-814.6 2397.07,-813 2394.61,-811.35 2392.29,-809.67 2390.1,-807.95 2388.07,-806.19 2386.2,-804.41 2384.52,-802.6 2383.01,-800.78 2381.71,-798.95 2380.62,-797.1 2379.75,-795.26 2379.11,-793.41 2378.7,-791.58 2378.55,-789.76 2378.64,-787.95 2379,-786.17 2379.62,-784.41 2380.51,-782.69 2381.67,-781.01 2383.1,-779.36 2384.81,-777.76 2386.8,-776.22 2389.05,-774.72 2391.57,-773.29 2394.35,-771.92 2397.38,-770.61 2400.66,-769.38 2404.18,-768.22 2407.92,-767.13 2411.87,-766.13 2416.02,-765.2 2420.36,-764.37 2424.86,-763.62 2429.51,-762.95 2434.3,-762.38 2439.2,-761.91 2444.19,-761.52 2449.26,-761.23 2454.38,-761.04 2459.53,-760.94 2464.69,-760.94 2469.84,-761.04"/>
<text text-anchor="start" x="2432.94" y="-805.98" font-family="Times,serif" font-size="14.00">C0002783</text>
<text text-anchor="start" x="2414.48" y="-791.98" font-family="Times,serif" font-size="14.00">descriptive study</text>
<text text-anchor="start" x="2446.16" y="-777.98" font-family="Times,serif" font-size="14.00">55:56</text>
</g>
<!-- id_28434897_DOT_16&#45;&#45;id_28434897_DOT_17 -->
<g id="edge30" class="edge">
<title>id_28434897_DOT_16&#45;&#45;id_28434897_DOT_17</title>
<path fill="none" stroke="black" stroke-dasharray="1,5" d="M2441.66,-830.03C2401.43,-896.63 2312.38,-1044.04 2271.77,-1111.28"/>
<text text-anchor="middle" x="2330.72" y="-973.46" font-family="Times,serif" font-size="14.00">0.879116</text>
</g>
<!-- id_28434897_DOT_24 -->
<g id="node24" class="node">
<title>id_28434897_DOT_24</title>
<polygon fill="darkkhaki" stroke="darkkhaki" points="2601.15,-372.35 2604.58,-372.54 2607.97,-372.83 2611.32,-373.21 2614.6,-373.69 2617.8,-374.26 2620.92,-374.92 2623.93,-375.67 2626.84,-376.51 2629.62,-377.43 2632.26,-378.44 2634.77,-379.52 2637.12,-380.69 2639.32,-381.92 2641.35,-383.23 2643.21,-384.6 2644.9,-386.03 2646.41,-387.52 2647.73,-389.07 2648.88,-390.67 2649.84,-392.31 2650.62,-394 2651.21,-395.72 2651.63,-397.48 2651.87,-399.26 2651.93,-401.07 2651.83,-402.89 2651.55,-404.72 2651.12,-406.57 2650.54,-408.41 2649.81,-410.25 2648.94,-412.09 2647.93,-413.91 2646.8,-415.72 2645.55,-417.5 2644.19,-419.25 2642.73,-420.98 2641.17,-422.66 2639.52,-424.31 2637.8,-425.91 2635.99,-427.45 2634.12,-428.95 2632.19,-430.38 2630.21,-431.75 2628.18,-433.06 2626.11,-434.29 2623.99,-435.45 2621.85,-436.54 2619.68,-437.54 2617.48,-438.46 2615.27,-439.3 2613.03,-440.05 2610.78,-440.71 2608.52,-441.28 2606.25,-441.76 2603.98,-442.15 2601.69,-442.43 2599.41,-442.63 2597.12,-442.72 2594.83,-442.72 2592.54,-442.63 2590.26,-442.43 2587.97,-442.15 2585.7,-441.76 2583.43,-441.28 2581.17,-440.71 2578.92,-440.05 2576.68,-439.3 2574.47,-438.46 2572.27,-437.54 2570.1,-436.54 2567.95,-435.45 2565.84,-434.29 2563.77,-433.06 2561.74,-431.75 2559.75,-430.38 2557.82,-428.95 2555.96,-427.45 2554.15,-425.91 2552.43,-424.31 2550.78,-422.66 2549.22,-420.98 2547.76,-419.25 2546.4,-417.5 2545.15,-415.72 2544.02,-413.91 2543.01,-412.09 2542.14,-410.25 2541.41,-408.41 2540.82,-406.57 2540.39,-404.72 2540.12,-402.89 2540.02,-401.07 2540.08,-399.26 2540.32,-397.48 2540.74,-395.72 2541.33,-394 2542.11,-392.31 2543.07,-390.67 2544.22,-389.07 2545.54,-387.52 2547.05,-386.03 2548.74,-384.6 2550.6,-383.23 2552.63,-381.92 2554.83,-380.69 2557.18,-379.52 2559.69,-378.44 2562.33,-377.43 2565.11,-376.51 2568.02,-375.67 2571.03,-374.92 2574.15,-374.26 2577.35,-373.69 2580.63,-373.21 2583.98,-372.83 2587.37,-372.54 2590.8,-372.35 2594.25,-372.25 2597.7,-372.25 2601.15,-372.35"/>
<text text-anchor="start" x="2566.81" y="-417.29" font-family="Times,serif" font-size="14.00">C1883559</text>
<text text-anchor="start" x="2583.53" y="-403.29" font-family="Times,serif" font-size="14.00">wild</text>
<text text-anchor="start" x="2573.54" y="-389.29" font-family="Times,serif" font-size="14.00">114:114</text>
</g>
<!-- id_28434897_DOT_16&#45;&#45;id_28434897_DOT_24 -->
<g id="edge31" class="edge">
<title>id_28434897_DOT_16&#45;&#45;id_28434897_DOT_24</title>
<path fill="none" stroke="black" stroke-dasharray="1,5" d="M2474.22,-761C2499.81,-686.72 2559.05,-514.7 2584.27,-441.48"/>
<text text-anchor="middle" x="2503" y="-604.04" font-family="Times,serif" font-size="14.00">0.901664</text>
</g>
<!-- id_28434897_DOT_19&#45;&#45;id_28434897_DOT_33 -->
<g id="edge13" class="edge">
<title>id_28434897_DOT_19&#45;&#45;id_28434897_DOT_33</title>
<path fill="none" stroke="black" d="M3366,-1130.77C3307.13,-1181.68 3178.77,-1292.68 3116.94,-1346.14"/>
<text text-anchor="middle" x="3215.22" y="-1241.25" font-family="Times,serif" font-size="14.00">0.010015</text>
</g>
<!-- id_28434897_DOT_23 -->
<g id="node23" class="node">
<title>id_28434897_DOT_23</title>
<polygon fill="bisque" stroke="bisque" points="4449.33,-2802.99 4452.76,-2803.18 4456.15,-2803.47 4459.49,-2803.85 4462.78,-2804.33 4465.98,-2804.9 4469.1,-2805.56 4472.11,-2806.31 4475.01,-2807.15 4477.79,-2808.07 4480.44,-2809.08 4482.95,-2810.16 4485.3,-2811.32 4487.5,-2812.56 4489.53,-2813.86 4491.39,-2815.23 4493.08,-2816.67 4494.58,-2818.16 4495.91,-2819.71 4497.06,-2821.31 4498.02,-2822.95 4498.79,-2824.64 4499.39,-2826.36 4499.81,-2828.12 4500.04,-2829.9 4500.11,-2831.7 4500,-2833.53 4499.73,-2835.36 4499.3,-2837.2 4498.72,-2839.05 4497.99,-2840.89 4497.12,-2842.73 4496.11,-2844.55 4494.98,-2846.35 4493.73,-2848.14 4492.37,-2849.89 4490.91,-2851.61 4489.35,-2853.3 4487.7,-2854.94 4485.97,-2856.54 4484.17,-2858.09 4482.3,-2859.58 4480.37,-2861.02 4478.39,-2862.39 4476.36,-2863.69 4474.28,-2864.93 4472.17,-2866.09 4470.03,-2867.17 4467.86,-2868.18 4465.66,-2869.1 4463.44,-2869.94 4461.21,-2870.69 4458.96,-2871.35 4456.7,-2871.92 4454.43,-2872.4 4452.15,-2872.78 4449.87,-2873.07 4447.58,-2873.26 4445.3,-2873.36 4443.01,-2873.36 4440.72,-2873.26 4438.43,-2873.07 4436.15,-2872.78 4433.87,-2872.4 4431.6,-2871.92 4429.34,-2871.35 4427.09,-2870.69 4424.86,-2869.94 4422.64,-2869.1 4420.45,-2868.18 4418.28,-2867.17 4416.13,-2866.09 4414.02,-2864.93 4411.95,-2863.69 4409.91,-2862.39 4407.93,-2861.02 4406,-2859.58 4404.13,-2858.09 4402.33,-2856.54 4400.6,-2854.94 4398.96,-2853.3 4397.4,-2851.61 4395.93,-2849.89 4394.57,-2848.14 4393.32,-2846.35 4392.19,-2844.55 4391.19,-2842.73 4390.32,-2840.89 4389.59,-2839.05 4389,-2837.2 4388.57,-2835.36 4388.3,-2833.53 4388.2,-2831.7 4388.26,-2829.9 4388.5,-2828.12 4388.91,-2826.36 4389.51,-2824.64 4390.29,-2822.95 4391.25,-2821.31 4392.39,-2819.71 4393.72,-2818.16 4395.23,-2816.67 4396.91,-2815.23 4398.78,-2813.86 4400.81,-2812.56 4403,-2811.32 4405.36,-2810.16 4407.86,-2809.08 4410.51,-2808.07 4413.29,-2807.15 4416.19,-2806.31 4419.21,-2805.56 4422.32,-2804.9 4425.53,-2804.33 4428.81,-2803.85 4432.15,-2803.47 4435.55,-2803.18 4438.97,-2802.99 4442.42,-2802.89 4445.88,-2802.89 4449.33,-2802.99"/>
<text text-anchor="start" x="4414.98" y="-2847.93" font-family="Times,serif" font-size="14.00">C0005670</text>
<text text-anchor="start" x="4429.37" y="-2833.93" font-family="Times,serif" font-size="14.00">BKV</text>
<text text-anchor="start" x="4421.21" y="-2819.93" font-family="Times,serif" font-size="14.00">102:102</text>
</g>
<!-- id_28434897_DOT_20&#45;&#45;id_28434897_DOT_23 -->
<g id="edge14" class="edge">
<title>id_28434897_DOT_20&#45;&#45;id_28434897_DOT_23</title>
<path fill="none" stroke="black" d="M4137.55,-2695C4202.34,-2725.24 4327.6,-2783.72 4396.26,-2815.77"/>
<text text-anchor="middle" x="4240.66" y="-2758.18" font-family="Times,serif" font-size="14.00">0.000953</text>
</g>
<!-- id_28434897_DOT_21&#45;&#45;id_28434897_DOT_28 -->
<g id="edge32" class="edge">
<title>id_28434897_DOT_21&#45;&#45;id_28434897_DOT_28</title>
<path fill="none" stroke="black" stroke-dasharray="1,5" d="M861.96,-2310.8C928.49,-2295.37 1041.17,-2269.23 1120.23,-2250.89"/>
<text text-anchor="middle" x="964.85" y="-2283.65" font-family="Times,serif" font-size="14.00">0.846489</text>
</g>
<!-- id_28434897_DOT_22&#45;&#45;id_28434897_DOT_27 -->
<g id="edge15" class="edge">
<title>id_28434897_DOT_22&#45;&#45;id_28434897_DOT_27</title>
<path fill="none" stroke="black" d="M1661.7,-2556.74C1653.64,-2633.91 1634.47,-2817.39 1626.41,-2894.61"/>
<text text-anchor="middle" x="1617.81" y="-2728.48" font-family="Times,serif" font-size="14.00">0.004766</text>
</g>
<!-- id_28434897_DOT_25 -->
<g id="node25" class="node">
<title>id_28434897_DOT_25</title>
<polygon fill="bisque" stroke="bisque" points="4815.25,-2954.96 4818.68,-2955.16 4822.07,-2955.45 4825.41,-2955.83 4828.69,-2956.31 4831.9,-2956.88 4835.01,-2957.54 4838.03,-2958.29 4840.93,-2959.13 4843.71,-2960.05 4846.36,-2961.06 4848.86,-2962.14 4851.22,-2963.3 4853.41,-2964.54 4855.44,-2965.84 4857.31,-2967.21 4858.99,-2968.65 4860.5,-2970.14 4861.83,-2971.69 4862.97,-2973.28 4863.93,-2974.93 4864.71,-2976.61 4865.31,-2978.34 4865.72,-2980.09 4865.96,-2981.88 4866.03,-2983.68 4865.92,-2985.5 4865.65,-2987.34 4865.22,-2989.18 4864.64,-2991.03 4863.9,-2992.87 4863.03,-2994.7 4862.03,-2996.53 4860.9,-2998.33 4859.65,-3000.11 4858.29,-3001.87 4856.83,-3003.59 4855.27,-3005.28 4853.62,-3006.92 4851.89,-3008.52 4850.09,-3010.07 4848.22,-3011.56 4846.29,-3013 4844.31,-3014.37 4842.27,-3015.67 4840.2,-3016.91 4838.09,-3018.07 4835.95,-3019.15 4833.77,-3020.16 4831.58,-3021.08 4829.36,-3021.92 4827.13,-3022.67 4824.88,-3023.33 4822.62,-3023.9 4820.35,-3024.38 4818.07,-3024.76 4815.79,-3025.05 4813.5,-3025.24 4811.21,-3025.34 4808.92,-3025.34 4806.64,-3025.24 4804.35,-3025.05 4802.07,-3024.76 4799.79,-3024.38 4797.52,-3023.9 4795.26,-3023.33 4793.01,-3022.67 4790.78,-3021.92 4788.56,-3021.08 4786.37,-3020.16 4784.19,-3019.15 4782.05,-3018.07 4779.94,-3016.91 4777.86,-3015.67 4775.83,-3014.37 4773.85,-3013 4771.92,-3011.56 4770.05,-3010.07 4768.25,-3008.52 4766.52,-3006.92 4764.87,-3005.28 4763.31,-3003.59 4761.85,-3001.87 4760.49,-3000.11 4759.24,-2998.33 4758.11,-2996.53 4757.11,-2994.7 4756.23,-2992.87 4755.5,-2991.03 4754.92,-2989.18 4754.49,-2987.34 4754.22,-2985.5 4754.11,-2983.68 4754.18,-2981.88 4754.41,-2980.09 4754.83,-2978.34 4755.43,-2976.61 4756.2,-2974.93 4757.17,-2973.28 4758.31,-2971.69 4759.64,-2970.14 4761.15,-2968.65 4762.83,-2967.21 4764.69,-2965.84 4766.73,-2964.54 4768.92,-2963.3 4771.28,-2962.14 4773.78,-2961.06 4776.43,-2960.05 4779.21,-2959.13 4782.11,-2958.29 4785.13,-2957.54 4788.24,-2956.88 4791.45,-2956.31 4794.73,-2955.83 4798.07,-2955.45 4801.46,-2955.16 4804.89,-2954.96 4808.34,-2954.87 4811.8,-2954.87 4815.25,-2954.96"/>
<text text-anchor="start" x="4780.9" y="-2999.9" font-family="Times,serif" font-size="14.00">C0005670</text>
<text text-anchor="start" x="4795.29" y="-2985.9" font-family="Times,serif" font-size="14.00">BKV</text>
<text text-anchor="start" x="4787.64" y="-2971.9" font-family="Times,serif" font-size="14.00">117:117</text>
</g>
<!-- id_28434897_DOT_23&#45;&#45;id_28434897_DOT_25 -->
<g id="edge16" class="edge">
<title>id_28434897_DOT_23&#45;&#45;id_28434897_DOT_25</title>
<path fill="none" stroke="black" d="M4486.84,-2855.86C4554.9,-2884.12 4687.67,-2939.27 4760.07,-2969.34"/>
<text text-anchor="middle" x="4597.46" y="-2915.4" font-family="Times,serif" font-size="14.00">0.001136</text>
</g>
<!-- id_28434897_DOT_26 -->
<g id="node26" class="node">
<title>id_28434897_DOT_26</title>
<polygon fill="bisque" stroke="bisque" points="5170.43,-2753.19 5173.86,-2753.38 5177.25,-2753.67 5180.6,-2754.06 5183.88,-2754.53 5187.08,-2755.1 5190.2,-2755.77 5193.21,-2756.52 5196.12,-2757.35 5198.9,-2758.28 5201.54,-2759.28 5204.05,-2760.37 5206.4,-2761.53 5208.6,-2762.76 5210.63,-2764.07 5212.49,-2765.44 5214.18,-2766.87 5215.69,-2768.37 5217.01,-2769.91 5218.16,-2771.51 5219.12,-2773.16 5219.9,-2774.84 5220.49,-2776.56 5220.91,-2778.32 5221.15,-2780.1 5221.21,-2781.91 5221.11,-2783.73 5220.84,-2785.56 5220.4,-2787.41 5219.82,-2789.25 5219.09,-2791.1 5218.22,-2792.93 5217.21,-2794.75 5216.08,-2796.56 5214.83,-2798.34 5213.47,-2800.1 5212.01,-2801.82 5210.45,-2803.5 5208.8,-2805.15 5207.08,-2806.75 5205.27,-2808.29 5203.4,-2809.79 5201.48,-2811.22 5199.49,-2812.59 5197.46,-2813.9 5195.39,-2815.13 5193.27,-2816.29 5191.13,-2817.38 5188.96,-2818.38 5186.76,-2819.31 5184.55,-2820.14 5182.31,-2820.89 5180.06,-2821.56 5177.8,-2822.13 5175.53,-2822.6 5173.26,-2822.99 5170.97,-2823.28 5168.69,-2823.47 5166.4,-2823.57 5164.11,-2823.57 5161.82,-2823.47 5159.54,-2823.28 5157.25,-2822.99 5154.98,-2822.6 5152.71,-2822.13 5150.45,-2821.56 5148.2,-2820.89 5145.96,-2820.14 5143.75,-2819.31 5141.55,-2818.38 5139.38,-2817.38 5137.24,-2816.29 5135.12,-2815.13 5133.05,-2813.9 5131.02,-2812.59 5129.03,-2811.22 5127.11,-2809.79 5125.24,-2808.29 5123.43,-2806.75 5121.71,-2805.15 5120.06,-2803.5 5118.5,-2801.82 5117.04,-2800.1 5115.68,-2798.34 5114.43,-2796.56 5113.3,-2794.75 5112.29,-2792.93 5111.42,-2791.1 5110.69,-2789.25 5110.11,-2787.41 5109.67,-2785.56 5109.4,-2783.73 5109.3,-2781.91 5109.36,-2780.1 5109.6,-2778.32 5110.02,-2776.56 5110.61,-2774.84 5111.39,-2773.16 5112.35,-2771.51 5113.5,-2769.91 5114.82,-2768.37 5116.33,-2766.87 5118.02,-2765.44 5119.88,-2764.07 5121.91,-2762.76 5124.11,-2761.53 5126.46,-2760.37 5128.97,-2759.28 5131.61,-2758.28 5134.39,-2757.35 5137.3,-2756.52 5140.31,-2755.77 5143.43,-2755.1 5146.63,-2754.53 5149.91,-2754.06 5153.26,-2753.67 5156.65,-2753.38 5160.08,-2753.19 5163.53,-2753.09 5166.98,-2753.09 5170.43,-2753.19"/>
<text text-anchor="start" x="5136.09" y="-2798.13" font-family="Times,serif" font-size="14.00">C0005670</text>
<text text-anchor="start" x="5150.48" y="-2784.13" font-family="Times,serif" font-size="14.00">BKV</text>
<text text-anchor="start" x="5142.31" y="-2770.13" font-family="Times,serif" font-size="14.00">120:120</text>
</g>
<!-- id_28434897_DOT_25&#45;&#45;id_28434897_DOT_26 -->
<g id="edge17" class="edge">
<title>id_28434897_DOT_25&#45;&#45;id_28434897_DOT_26</title>
<path fill="none" stroke="black" d="M4854.34,-2964.96C4924.72,-2924.97 5060.96,-2847.58 5127.22,-2809.94"/>
<text text-anchor="middle" x="4964.53" y="-2890.25" font-family="Times,serif" font-size="14.00">0.000262</text>
</g>
<!-- id_28434897_DOT_25&#45;&#45;id_28434897_DOT_32 -->
<g id="edge18" class="edge">
<title>id_28434897_DOT_25&#45;&#45;id_28434897_DOT_32</title>
<path fill="none" stroke="black" d="M4821.87,-3024.37C4846.59,-3096.19 4903.58,-3261.78 4928.44,-3334.01"/>
<text text-anchor="middle" x="4848.91" y="-3181.99" font-family="Times,serif" font-size="14.00">0.000513</text>
</g>
</g>
</svg>
