<?xml version="1.0" encoding="UTF-8" standalone="no"?>
<!DOCTYPE svg PUBLIC "-//W3C//DTD SVG 1.1//EN"
 "http://www.w3.org/Graphics/SVG/1.1/DTD/svg11.dtd">
<!-- Generated by graphviz version 2.42.3 (20191010.1750)
 -->
<!-- Title: MST Pages: 1 -->
<svg width="2161pt" height="3276pt"
 viewBox="0.00 0.00 2161.26 3275.65" xmlns="http://www.w3.org/2000/svg" xmlns:xlink="http://www.w3.org/1999/xlink">
<g id="graph0" class="graph" transform="scale(1 1) rotate(0) translate(4 3271.65)">
<title>MST</title>
<polygon fill="white" stroke="transparent" points="-4,4 -4,-3271.65 2157.26,-3271.65 2157.26,4 -4,4"/>
<!-- id_28440090_DOT_1 -->
<g id="node1" class="node">
<title>id_28440090_DOT_1</title>
<polygon fill="aquamarine" stroke="aquamarine" points="113.34,-3197.14 119.7,-3197.33 126,-3197.62 132.22,-3198 138.31,-3198.48 144.26,-3199.05 150.05,-3199.71 155.65,-3200.46 161.04,-3201.3 166.21,-3202.22 171.12,-3203.23 175.77,-3204.31 180.15,-3205.48 184.23,-3206.71 188,-3208.02 191.46,-3209.39 194.59,-3210.82 197.39,-3212.31 199.86,-3213.86 201.98,-3215.46 203.77,-3217.1 205.21,-3218.79 206.32,-3220.51 207.09,-3222.27 207.53,-3224.05 207.65,-3225.85 207.46,-3227.68 206.95,-3229.51 206.15,-3231.36 205.07,-3233.2 203.71,-3235.04 202.09,-3236.88 200.23,-3238.7 198.13,-3240.51 195.81,-3242.29 193.28,-3244.04 190.56,-3245.77 187.67,-3247.45 184.61,-3249.1 181.4,-3250.69 178.05,-3252.24 174.58,-3253.74 170.99,-3255.17 167.31,-3256.54 163.54,-3257.85 159.68,-3259.08 155.76,-3260.24 151.78,-3261.33 147.75,-3262.33 143.67,-3263.25 139.55,-3264.09 135.4,-3264.84 131.22,-3265.5 127.03,-3266.07 122.81,-3266.55 118.58,-3266.94 114.34,-3267.22 110.09,-3267.42 105.84,-3267.51 101.59,-3267.51 97.34,-3267.42 93.09,-3267.22 88.85,-3266.94 84.63,-3266.55 80.41,-3266.07 76.21,-3265.5 72.04,-3264.84 67.89,-3264.09 63.77,-3263.25 59.69,-3262.33 55.65,-3261.33 51.67,-3260.24 47.75,-3259.08 43.9,-3257.85 40.12,-3256.54 36.44,-3255.17 32.86,-3253.74 29.39,-3252.24 26.04,-3250.69 22.83,-3249.1 19.77,-3247.45 16.87,-3245.77 14.15,-3244.04 11.63,-3242.29 9.31,-3240.51 7.21,-3238.7 5.34,-3236.88 3.72,-3235.04 2.36,-3233.2 1.28,-3231.36 0.48,-3229.51 -0.02,-3227.68 -0.22,-3225.85 -0.1,-3224.05 0.34,-3222.27 1.12,-3220.51 2.22,-3218.79 3.67,-3217.1 5.45,-3215.46 7.58,-3213.86 10.04,-3212.31 12.85,-3210.82 15.98,-3209.39 19.44,-3208.02 23.21,-3206.71 27.29,-3205.48 31.66,-3204.31 36.31,-3203.23 41.23,-3202.22 46.39,-3201.3 51.79,-3200.46 57.39,-3199.71 63.17,-3199.05 69.13,-3198.48 75.22,-3198 81.43,-3197.62 87.73,-3197.33 94.1,-3197.14 100.51,-3197.04 106.93,-3197.04 113.34,-3197.14"/>
<text text-anchor="start" x="74.55" y="-3242.08" font-family="Times,serif" font-size="14.00">C0334517</text>
<text text-anchor="start" x="42.85" y="-3228.08" font-family="Times,serif" font-size="14.00">Spermatocytic Tumor</text>
<text text-anchor="start" x="94.77" y="-3214.08" font-family="Times,serif" font-size="14.00">0:1</text>
</g>
<!-- id_28440090_DOT_4 -->
<g id="node4" class="node">
<title>id_28440090_DOT_4</title>
<polygon fill="aquamarine" stroke="aquamarine" points="365.79,-2916.63 371.95,-2916.82 378.05,-2917.11 384.05,-2917.49 389.94,-2917.97 395.7,-2918.54 401.3,-2919.2 406.72,-2919.95 411.93,-2920.79 416.92,-2921.71 421.68,-2922.72 426.18,-2923.8 430.41,-2924.96 434.35,-2926.2 438,-2927.5 441.34,-2928.88 444.37,-2930.31 447.08,-2931.8 449.47,-2933.35 451.52,-2934.95 453.25,-2936.59 454.65,-2938.28 455.72,-2940 456.46,-2941.76 456.89,-2943.54 457.01,-2945.34 456.82,-2947.17 456.33,-2949 455.56,-2950.84 454.51,-2952.69 453.2,-2954.53 451.63,-2956.37 449.83,-2958.19 447.8,-2960 445.55,-2961.78 443.11,-2963.53 440.48,-2965.26 437.68,-2966.94 434.72,-2968.59 431.62,-2970.18 428.38,-2971.73 425.02,-2973.22 421.55,-2974.66 417.99,-2976.03 414.34,-2977.33 410.62,-2978.57 406.82,-2979.73 402.97,-2980.82 399.07,-2981.82 395.13,-2982.74 391.14,-2983.58 387.13,-2984.33 383.09,-2984.99 379.03,-2985.56 374.96,-2986.04 370.87,-2986.42 366.77,-2986.71 362.66,-2986.91 358.55,-2987 354.44,-2987 350.32,-2986.91 346.22,-2986.71 342.12,-2986.42 338.03,-2986.04 333.95,-2985.56 329.89,-2984.99 325.85,-2984.33 321.84,-2983.58 317.86,-2982.74 313.91,-2981.82 310.01,-2980.82 306.16,-2979.73 302.37,-2978.57 298.64,-2977.33 294.99,-2976.03 291.43,-2974.66 287.96,-2973.22 284.61,-2971.73 281.37,-2970.18 278.26,-2968.59 275.3,-2966.94 272.5,-2965.26 269.87,-2963.53 267.43,-2961.78 265.19,-2960 263.16,-2958.19 261.35,-2956.37 259.79,-2954.53 258.47,-2952.69 257.43,-2950.84 256.65,-2949 256.17,-2947.17 255.98,-2945.34 256.09,-2943.54 256.52,-2941.76 257.27,-2940 258.34,-2938.28 259.73,-2936.59 261.46,-2934.95 263.52,-2933.35 265.9,-2931.8 268.61,-2930.31 271.64,-2928.88 274.98,-2927.5 278.63,-2926.2 282.58,-2924.96 286.81,-2923.8 291.3,-2922.72 296.06,-2921.71 301.05,-2920.79 306.27,-2919.95 311.68,-2919.2 317.28,-2918.54 323.04,-2917.97 328.93,-2917.49 334.94,-2917.11 341.03,-2916.82 347.19,-2916.63 353.39,-2916.53 359.6,-2916.53 365.79,-2916.63"/>
<text text-anchor="start" x="327.32" y="-2961.57" font-family="Times,serif" font-size="14.00">C0334517</text>
<text text-anchor="start" x="297.59" y="-2947.57" font-family="Times,serif" font-size="14.00">Spermatocytic tumor</text>
<text text-anchor="start" x="344.05" y="-2933.57" font-family="Times,serif" font-size="14.00">9:10</text>
</g>
<!-- id_28440090_DOT_1&#45;&#45;id_28440090_DOT_4 -->
<g id="edge1" class="edge">
<title>id_28440090_DOT_1&#45;&#45;id_28440090_DOT_4</title>
<path fill="none" stroke="black" d="M134.46,-3198.16C183.4,-3143.85 278.44,-3038.39 326.75,-2984.78"/>
<text text-anchor="middle" x="204.35" y="-3094.27" font-family="Times,serif" font-size="14.00">0.005571</text>
</g>
<!-- id_28440090_DOT_2 -->
<g id="node2" class="node">
<title>id_28440090_DOT_2</title>
<polygon fill="bisque" stroke="bisque" points="2102.46,-1744.81 2105.89,-1745.01 2109.29,-1745.29 2112.63,-1745.68 2115.91,-1746.16 2119.11,-1746.73 2122.23,-1747.39 2125.25,-1748.14 2128.15,-1748.97 2130.93,-1749.9 2133.58,-1750.9 2136.08,-1751.99 2138.43,-1753.15 2140.63,-1754.38 2142.66,-1755.69 2144.52,-1757.06 2146.21,-1758.49 2147.72,-1759.99 2149.05,-1761.53 2150.19,-1763.13 2151.15,-1764.78 2151.93,-1766.46 2152.52,-1768.19 2152.94,-1769.94 2153.18,-1771.72 2153.24,-1773.53 2153.14,-1775.35 2152.87,-1777.19 2152.44,-1779.03 2151.85,-1780.87 2151.12,-1782.72 2150.25,-1784.55 2149.25,-1786.37 2148.11,-1788.18 2146.87,-1789.96 2145.51,-1791.72 2144.04,-1793.44 2142.48,-1795.13 2140.84,-1796.77 2139.11,-1798.37 2137.3,-1799.92 2135.44,-1801.41 2133.51,-1802.84 2131.52,-1804.21 2129.49,-1805.52 2127.42,-1806.75 2125.31,-1807.91 2123.16,-1809 2120.99,-1810 2118.79,-1810.93 2116.58,-1811.76 2114.34,-1812.52 2112.09,-1813.18 2109.83,-1813.75 2107.56,-1814.22 2105.29,-1814.61 2103.01,-1814.9 2100.72,-1815.09 2098.43,-1815.19 2096.14,-1815.19 2093.85,-1815.09 2091.57,-1814.9 2089.28,-1814.61 2087.01,-1814.22 2084.74,-1813.75 2082.48,-1813.18 2080.23,-1812.52 2078,-1811.76 2075.78,-1810.93 2073.58,-1810 2071.41,-1809 2069.27,-1807.91 2067.15,-1806.75 2065.08,-1805.52 2063.05,-1804.21 2061.07,-1802.84 2059.14,-1801.41 2057.27,-1799.92 2055.47,-1798.37 2053.74,-1796.77 2052.09,-1795.13 2050.53,-1793.44 2049.07,-1791.72 2047.71,-1789.96 2046.46,-1788.18 2045.33,-1786.37 2044.32,-1784.55 2043.45,-1782.72 2042.72,-1780.87 2042.14,-1779.03 2041.71,-1777.19 2041.44,-1775.35 2041.33,-1773.53 2041.39,-1771.72 2041.63,-1769.94 2042.05,-1768.19 2042.64,-1766.46 2043.42,-1764.78 2044.38,-1763.13 2045.53,-1761.53 2046.85,-1759.99 2048.36,-1758.49 2050.05,-1757.06 2051.91,-1755.69 2053.94,-1754.38 2056.14,-1753.15 2058.49,-1751.99 2061,-1750.9 2063.64,-1749.9 2066.42,-1748.97 2069.33,-1748.14 2072.34,-1747.39 2075.46,-1746.73 2078.66,-1746.16 2081.94,-1745.68 2085.29,-1745.29 2088.68,-1745.01 2092.11,-1744.81 2095.56,-1744.72 2099.01,-1744.72 2102.46,-1744.81"/>
<text text-anchor="start" x="2068.12" y="-1789.75" font-family="Times,serif" font-size="14.00">C1261473</text>
<text text-anchor="start" x="2072.8" y="-1775.75" font-family="Times,serif" font-size="14.00">Sarcoma</text>
<text text-anchor="start" x="2088.34" y="-1761.75" font-family="Times,serif" font-size="14.00">3:3</text>
</g>
<!-- id_28440090_DOT_17 -->
<g id="node17" class="node">
<title>id_28440090_DOT_17</title>
<polygon fill="bisque" stroke="bisque" points="1749.55,-1954.2 1752.98,-1954.39 1756.37,-1954.68 1759.72,-1955.06 1763,-1955.54 1766.2,-1956.11 1769.32,-1956.77 1772.33,-1957.52 1775.24,-1958.36 1778.02,-1959.28 1780.66,-1960.29 1783.17,-1961.37 1785.52,-1962.53 1787.72,-1963.77 1789.75,-1965.07 1791.61,-1966.44 1793.3,-1967.88 1794.81,-1969.37 1796.13,-1970.92 1797.28,-1972.52 1798.24,-1974.16 1799.02,-1975.85 1799.61,-1977.57 1800.03,-1979.32 1800.27,-1981.11 1800.33,-1982.91 1800.23,-1984.73 1799.96,-1986.57 1799.53,-1988.41 1798.94,-1990.26 1798.21,-1992.1 1797.34,-1993.94 1796.33,-1995.76 1795.2,-1997.56 1793.96,-1999.35 1792.6,-2001.1 1791.13,-2002.82 1789.57,-2004.51 1787.93,-2006.15 1786.2,-2007.75 1784.39,-2009.3 1782.53,-2010.79 1780.6,-2012.23 1778.61,-2013.6 1776.58,-2014.9 1774.51,-2016.14 1772.4,-2017.3 1770.25,-2018.38 1768.08,-2019.39 1765.88,-2020.31 1763.67,-2021.15 1761.43,-2021.9 1759.18,-2022.56 1756.92,-2023.13 1754.65,-2023.61 1752.38,-2023.99 1750.1,-2024.28 1747.81,-2024.47 1745.52,-2024.57 1743.23,-2024.57 1740.94,-2024.47 1738.66,-2024.28 1736.37,-2023.99 1734.1,-2023.61 1731.83,-2023.13 1729.57,-2022.56 1727.32,-2021.9 1725.08,-2021.15 1722.87,-2020.31 1720.67,-2019.39 1718.5,-2018.38 1716.36,-2017.3 1714.24,-2016.14 1712.17,-2014.9 1710.14,-2013.6 1708.16,-2012.23 1706.23,-2010.79 1704.36,-2009.3 1702.55,-2007.75 1700.83,-2006.15 1699.18,-2004.51 1697.62,-2002.82 1696.16,-2001.1 1694.8,-1999.35 1693.55,-1997.56 1692.42,-1995.76 1691.41,-1993.94 1690.54,-1992.1 1689.81,-1990.26 1689.23,-1988.41 1688.8,-1986.57 1688.53,-1984.73 1688.42,-1982.91 1688.48,-1981.11 1688.72,-1979.32 1689.14,-1977.57 1689.73,-1975.85 1690.51,-1974.16 1691.47,-1972.52 1692.62,-1970.92 1693.94,-1969.37 1695.45,-1967.88 1697.14,-1966.44 1699,-1965.07 1701.03,-1963.77 1703.23,-1962.53 1705.58,-1961.37 1708.09,-1960.29 1710.73,-1959.28 1713.51,-1958.36 1716.42,-1957.52 1719.43,-1956.77 1722.55,-1956.11 1725.75,-1955.54 1729.03,-1955.06 1732.38,-1954.68 1735.77,-1954.39 1739.2,-1954.2 1742.65,-1954.1 1746.1,-1954.1 1749.55,-1954.2"/>
<text text-anchor="start" x="1715.21" y="-1999.14" font-family="Times,serif" font-size="14.00">C1261473</text>
<text text-anchor="start" x="1721.05" y="-1985.14" font-family="Times,serif" font-size="14.00">sarcoma</text>
<text text-anchor="start" x="1728.43" y="-1971.14" font-family="Times,serif" font-size="14.00">84:84</text>
</g>
<!-- id_28440090_DOT_2&#45;&#45;id_28440090_DOT_17 -->
<g id="edge2" class="edge">
<title>id_28440090_DOT_2&#45;&#45;id_28440090_DOT_17</title>
<path fill="none" stroke="black" d="M2059.85,-1802.16C1993.95,-1841.26 1857.59,-1922.16 1787.72,-1963.62"/>
<text text-anchor="middle" x="1897.54" y="-1885.69" font-family="Times,serif" font-size="14.00">0.021668</text>
</g>
<!-- id_28440090_DOT_3 -->
<g id="node3" class="node">
<title>id_28440090_DOT_3</title>
<polygon fill="blue" stroke="blue" points="949.39,-144.4 955.43,-144.6 961.42,-144.88 967.31,-145.27 973.1,-145.75 978.75,-146.32 984.25,-146.98 989.56,-147.73 994.68,-148.57 999.59,-149.49 1004.25,-150.49 1008.67,-151.58 1012.82,-152.74 1016.7,-153.97 1020.28,-155.28 1023.56,-156.65 1026.54,-158.08 1029.2,-159.58 1031.54,-161.12 1033.56,-162.72 1035.25,-164.37 1036.62,-166.05 1037.67,-167.78 1038.41,-169.53 1038.83,-171.31 1038.94,-173.12 1038.75,-174.94 1038.28,-176.78 1037.52,-178.62 1036.49,-180.46 1035.2,-182.31 1033.66,-184.14 1031.89,-185.96 1029.9,-187.77 1027.69,-189.55 1025.3,-191.31 1022.71,-193.03 1019.96,-194.72 1017.06,-196.36 1014.01,-197.96 1010.83,-199.51 1007.54,-201 1004.13,-202.43 1000.64,-203.8 997.05,-205.11 993.39,-206.34 989.67,-207.51 985.89,-208.59 982.06,-209.59 978.19,-210.52 974.28,-211.36 970.34,-212.11 966.37,-212.77 962.39,-213.34 958.38,-213.82 954.37,-214.2 950.34,-214.49 946.31,-214.68 942.27,-214.78 938.24,-214.78 934.2,-214.68 930.17,-214.49 926.14,-214.2 922.13,-213.82 918.12,-213.34 914.14,-212.77 910.17,-212.11 906.23,-211.36 902.32,-210.52 898.45,-209.59 894.62,-208.59 890.84,-207.51 887.12,-206.34 883.46,-205.11 879.87,-203.8 876.38,-202.43 872.97,-201 869.68,-199.51 866.5,-197.96 863.45,-196.36 860.55,-194.72 857.8,-193.03 855.21,-191.31 852.82,-189.55 850.61,-187.77 848.62,-185.96 846.85,-184.14 845.31,-182.31 844.02,-180.46 842.99,-178.62 842.23,-176.78 841.76,-174.94 841.57,-173.12 841.68,-171.31 842.1,-169.53 842.84,-167.78 843.89,-166.05 845.26,-164.37 846.95,-162.72 848.97,-161.12 851.31,-159.58 853.97,-158.08 856.95,-156.65 860.23,-155.28 863.81,-153.97 867.69,-152.74 871.84,-151.58 876.26,-150.49 880.92,-149.49 885.83,-148.57 890.95,-147.73 896.26,-146.98 901.76,-146.32 907.41,-145.75 913.2,-145.27 919.09,-144.88 925.08,-144.6 931.12,-144.4 937.21,-144.31 943.3,-144.31 949.39,-144.4"/>
<text text-anchor="start" x="911.09" y="-189.34" font-family="Times,serif" font-size="14.00">C0039590</text>
<text text-anchor="start" x="882.62" y="-175.34" font-family="Times,serif" font-size="14.00">Testicular Neoplasm</text>
<text text-anchor="start" x="931.31" y="-161.34" font-family="Times,serif" font-size="14.00">7:8</text>
</g>
<!-- id_28440090_DOT_6 -->
<g id="node6" class="node">
<title>id_28440090_DOT_6</title>
<polygon fill="blue" stroke="blue" points="692.29,-465.68 698.04,-465.87 703.74,-466.16 709.35,-466.54 714.86,-467.02 720.24,-467.59 725.47,-468.25 730.54,-469 735.41,-469.84 740.08,-470.76 744.52,-471.77 748.73,-472.85 752.68,-474.01 756.37,-475.25 759.78,-476.55 762.9,-477.92 765.74,-479.36 768.27,-480.85 770.5,-482.4 772.42,-484 774.03,-485.64 775.34,-487.33 776.34,-489.05 777.04,-490.8 777.44,-492.59 777.54,-494.39 777.37,-496.21 776.91,-498.05 776.19,-499.89 775.21,-501.74 773.98,-503.58 772.52,-505.41 770.83,-507.24 768.93,-509.04 766.84,-510.82 764.55,-512.58 762.1,-514.3 759.48,-515.99 756.71,-517.63 753.81,-519.23 750.78,-520.78 747.65,-522.27 744.41,-523.71 741.08,-525.08 737.67,-526.38 734.18,-527.62 730.64,-528.78 727.04,-529.86 723.39,-530.87 719.7,-531.79 715.98,-532.63 712.23,-533.38 708.46,-534.04 704.66,-534.61 700.85,-535.09 697.03,-535.47 693.2,-535.76 689.36,-535.95 685.51,-536.05 681.67,-536.05 677.83,-535.95 673.99,-535.76 670.16,-535.47 666.33,-535.09 662.52,-534.61 658.73,-534.04 654.95,-533.38 651.2,-532.63 647.48,-531.79 643.79,-530.87 640.15,-529.86 636.55,-528.78 633,-527.62 629.52,-526.38 626.11,-525.08 622.78,-523.71 619.54,-522.27 616.4,-520.78 613.37,-519.23 610.47,-517.63 607.71,-515.99 605.09,-514.3 602.63,-512.58 600.35,-510.82 598.25,-509.04 596.35,-507.24 594.66,-505.41 593.2,-503.58 591.97,-501.74 590.99,-499.89 590.27,-498.05 589.82,-496.21 589.64,-494.39 589.75,-492.59 590.15,-490.8 590.84,-489.05 591.85,-487.33 593.15,-485.64 594.77,-484 596.69,-482.4 598.92,-480.85 601.45,-479.36 604.28,-477.92 607.41,-476.55 610.82,-475.25 614.5,-474.01 618.46,-472.85 622.66,-471.77 627.11,-470.76 631.77,-469.84 636.65,-469 641.71,-468.25 646.94,-467.59 652.32,-467.02 657.83,-466.54 663.45,-466.16 669.14,-465.87 674.9,-465.68 680.69,-465.58 686.49,-465.58 692.29,-465.68"/>
<text text-anchor="start" x="654.42" y="-510.61" font-family="Times,serif" font-size="14.00">C0039590</text>
<text text-anchor="start" x="629.36" y="-496.61" font-family="Times,serif" font-size="14.00">testicular neoplasm</text>
<text text-anchor="start" x="667.65" y="-482.61" font-family="Times,serif" font-size="14.00">21:22</text>
</g>
<!-- id_28440090_DOT_3&#45;&#45;id_28440090_DOT_6 -->
<g id="edge3" class="edge">
<title>id_28440090_DOT_3&#45;&#45;id_28440090_DOT_6</title>
<path fill="none" stroke="black" d="M913.75,-212.71C864.83,-273.96 760.79,-404.19 711.11,-466.37"/>
<text text-anchor="middle" x="786.18" y="-342.34" font-family="Times,serif" font-size="14.00">0.032131</text>
</g>
<!-- id_28440090_DOT_16 -->
<g id="node16" class="node">
<title>id_28440090_DOT_16</title>
<polygon fill="aquamarine" stroke="aquamarine" points="626.57,-2621.84 632.63,-2622.03 638.64,-2622.32 644.55,-2622.71 650.36,-2623.18 656.03,-2623.75 661.54,-2624.42 666.87,-2625.17 672.01,-2626 676.93,-2626.93 681.61,-2627.93 686.04,-2629.02 690.2,-2630.18 694.09,-2631.41 697.68,-2632.72 700.98,-2634.09 703.96,-2635.52 706.63,-2637.02 708.98,-2638.56 711,-2640.16 712.7,-2641.81 714.08,-2643.49 715.13,-2645.21 715.87,-2646.97 716.29,-2648.75 716.4,-2650.56 716.22,-2652.38 715.74,-2654.22 714.98,-2656.06 713.94,-2657.9 712.65,-2659.75 711.11,-2661.58 709.33,-2663.4 707.33,-2665.21 705.12,-2666.99 702.71,-2668.75 700.13,-2670.47 697.37,-2672.16 694.45,-2673.8 691.4,-2675.4 688.21,-2676.95 684.9,-2678.44 681.49,-2679.87 677.98,-2681.24 674.38,-2682.55 670.71,-2683.78 666.98,-2684.94 663.19,-2686.03 659.34,-2687.03 655.46,-2687.96 651.54,-2688.79 647.58,-2689.55 643.61,-2690.21 639.61,-2690.78 635.59,-2691.25 631.57,-2691.64 627.53,-2691.93 623.48,-2692.12 619.43,-2692.22 615.38,-2692.22 611.34,-2692.12 607.29,-2691.93 603.25,-2691.64 599.22,-2691.25 595.21,-2690.78 591.21,-2690.21 587.23,-2689.55 583.28,-2688.79 579.36,-2687.96 575.47,-2687.03 571.63,-2686.03 567.84,-2684.94 564.1,-2683.78 560.43,-2682.55 556.84,-2681.24 553.33,-2679.87 549.92,-2678.44 546.61,-2676.95 543.42,-2675.4 540.36,-2673.8 537.45,-2672.16 534.69,-2670.47 532.1,-2668.75 529.7,-2666.99 527.49,-2665.21 525.49,-2663.4 523.71,-2661.58 522.17,-2659.75 520.87,-2657.9 519.84,-2656.06 519.08,-2654.22 518.6,-2652.38 518.42,-2650.56 518.53,-2648.75 518.95,-2646.97 519.68,-2645.21 520.74,-2643.49 522.11,-2641.81 523.82,-2640.16 525.84,-2638.56 528.19,-2637.02 530.86,-2635.52 533.84,-2634.09 537.13,-2632.72 540.73,-2631.41 544.61,-2630.18 548.78,-2629.02 553.21,-2627.93 557.89,-2626.93 562.81,-2626 567.95,-2625.17 573.28,-2624.42 578.79,-2623.75 584.46,-2623.18 590.27,-2622.71 596.18,-2622.32 602.18,-2622.03 608.25,-2621.84 614.35,-2621.75 620.47,-2621.75 626.57,-2621.84"/>
<text text-anchor="start" x="588.24" y="-2666.78" font-family="Times,serif" font-size="14.00">C0334517</text>
<text text-anchor="start" x="559.68" y="-2652.78" font-family="Times,serif" font-size="14.00">spermatocytic tumor</text>
<text text-anchor="start" x="601.46" y="-2638.78" font-family="Times,serif" font-size="14.00">81:82</text>
</g>
<!-- id_28440090_DOT_4&#45;&#45;id_28440090_DOT_16 -->
<g id="edge7" class="edge">
<title>id_28440090_DOT_4&#45;&#45;id_28440090_DOT_16</title>
<path fill="none" stroke="black" stroke-dasharray="1,5" d="M386.68,-2917.66C437.25,-2860.53 538.44,-2746.2 588.29,-2689.88"/>
<text text-anchor="middle" x="461.23" y="-2806.57" font-family="Times,serif" font-size="14.00">0.514880</text>
</g>
<!-- id_28440090_DOT_5 -->
<g id="node5" class="node">
<title>id_28440090_DOT_5</title>
<polygon fill="aquamarine" stroke="aquamarine" points="931.88,-2319.75 939.07,-2319.94 946.18,-2320.23 953.19,-2320.61 960.07,-2321.09 966.78,-2321.66 973.32,-2322.32 979.64,-2323.07 985.72,-2323.91 991.55,-2324.83 997.1,-2325.84 1002.35,-2326.92 1007.28,-2328.08 1011.89,-2329.32 1016.14,-2330.62 1020.05,-2331.99 1023.58,-2333.43 1026.74,-2334.92 1029.53,-2336.47 1031.92,-2338.07 1033.94,-2339.71 1035.57,-2341.4 1036.82,-2343.12 1037.69,-2344.88 1038.19,-2346.66 1038.32,-2348.46 1038.1,-2350.29 1037.53,-2352.12 1036.63,-2353.96 1035.41,-2355.81 1033.88,-2357.65 1032.05,-2359.49 1029.94,-2361.31 1027.57,-2363.11 1024.96,-2364.9 1022.1,-2366.65 1019.04,-2368.37 1015.77,-2370.06 1012.32,-2371.7 1008.69,-2373.3 1004.91,-2374.85 1001,-2376.34 996.95,-2377.78 992.79,-2379.15 988.54,-2380.45 984.19,-2381.69 979.76,-2382.85 975.27,-2383.93 970.72,-2384.94 966.11,-2385.86 961.47,-2386.7 956.78,-2387.45 952.07,-2388.11 947.33,-2388.68 942.57,-2389.16 937.8,-2389.54 933.02,-2389.83 928.22,-2390.03 923.43,-2390.12 918.63,-2390.12 913.83,-2390.03 909.04,-2389.83 904.25,-2389.54 899.48,-2389.16 894.72,-2388.68 889.99,-2388.11 885.27,-2387.45 880.59,-2386.7 875.94,-2385.86 871.34,-2384.94 866.79,-2383.93 862.29,-2382.85 857.87,-2381.69 853.52,-2380.45 849.26,-2379.15 845.1,-2377.78 841.06,-2376.34 837.14,-2374.85 833.36,-2373.3 829.74,-2371.7 826.29,-2370.06 823.02,-2368.37 819.95,-2366.65 817.1,-2364.9 814.48,-2363.11 812.11,-2361.31 810.01,-2359.49 808.18,-2357.65 806.65,-2355.81 805.42,-2353.96 804.52,-2352.12 803.95,-2350.29 803.73,-2348.46 803.87,-2346.66 804.37,-2344.88 805.24,-2343.12 806.49,-2341.4 808.12,-2339.71 810.13,-2338.07 812.53,-2336.47 815.31,-2334.92 818.48,-2333.43 822.01,-2331.99 825.91,-2330.62 830.17,-2329.32 834.77,-2328.08 839.71,-2326.92 844.96,-2325.84 850.51,-2324.83 856.34,-2323.91 862.42,-2323.07 868.74,-2322.32 875.27,-2321.66 881.99,-2321.09 888.87,-2320.61 895.88,-2320.23 902.99,-2319.94 910.17,-2319.75 917.41,-2319.65 924.65,-2319.65 931.88,-2319.75"/>
<text text-anchor="start" x="891.86" y="-2364.69" font-family="Times,serif" font-size="14.00">C0334517</text>
<text text-anchor="start" x="851.24" y="-2350.69" font-family="Times,serif" font-size="14.00">spermatocytic seminoma</text>
<text text-anchor="start" x="905.08" y="-2336.69" font-family="Times,serif" font-size="14.00">15:16</text>
</g>
<!-- id_28440090_DOT_7 -->
<g id="node7" class="node">
<title>id_28440090_DOT_7</title>
<polygon fill="blueviolet" stroke="blueviolet" points="1302.27,-1958.19 1305.7,-1958.39 1309.09,-1958.67 1312.44,-1959.06 1315.72,-1959.54 1318.92,-1960.11 1322.04,-1960.77 1325.05,-1961.52 1327.96,-1962.36 1330.74,-1963.28 1333.38,-1964.28 1335.89,-1965.37 1338.24,-1966.53 1340.44,-1967.76 1342.47,-1969.07 1344.33,-1970.44 1346.02,-1971.87 1347.53,-1973.37 1348.85,-1974.91 1350,-1976.51 1350.96,-1978.16 1351.74,-1979.84 1352.33,-1981.57 1352.75,-1983.32 1352.99,-1985.1 1353.05,-1986.91 1352.94,-1988.73 1352.67,-1990.57 1352.24,-1992.41 1351.66,-1994.25 1350.93,-1996.1 1350.06,-1997.93 1349.05,-1999.75 1347.92,-2001.56 1346.67,-2003.34 1345.31,-2005.1 1343.85,-2006.82 1342.29,-2008.51 1340.64,-2010.15 1338.91,-2011.75 1337.11,-2013.3 1335.24,-2014.79 1333.31,-2016.22 1331.33,-2017.59 1329.3,-2018.9 1327.22,-2020.13 1325.11,-2021.29 1322.97,-2022.38 1320.8,-2023.38 1318.6,-2024.31 1316.38,-2025.15 1314.15,-2025.9 1311.9,-2026.56 1309.64,-2027.13 1307.37,-2027.6 1305.1,-2027.99 1302.81,-2028.28 1300.53,-2028.47 1298.24,-2028.57 1295.95,-2028.57 1293.66,-2028.47 1291.37,-2028.28 1289.09,-2027.99 1286.81,-2027.6 1284.55,-2027.13 1282.29,-2026.56 1280.04,-2025.9 1277.8,-2025.15 1275.59,-2024.31 1273.39,-2023.38 1271.22,-2022.38 1269.07,-2021.29 1266.96,-2020.13 1264.89,-2018.9 1262.86,-2017.59 1260.87,-2016.22 1258.94,-2014.79 1257.07,-2013.3 1255.27,-2011.75 1253.54,-2010.15 1251.9,-2008.51 1250.34,-2006.82 1248.87,-2005.1 1247.51,-2003.34 1246.27,-2001.56 1245.13,-1999.75 1244.13,-1997.93 1243.26,-1996.1 1242.53,-1994.25 1241.94,-1992.41 1241.51,-1990.57 1241.24,-1988.73 1241.14,-1986.91 1241.2,-1985.1 1241.44,-1983.32 1241.85,-1981.57 1242.45,-1979.84 1243.23,-1978.16 1244.19,-1976.51 1245.33,-1974.91 1246.66,-1973.37 1248.17,-1971.87 1249.86,-1970.44 1251.72,-1969.07 1253.75,-1967.76 1255.95,-1966.53 1258.3,-1965.37 1260.8,-1964.28 1263.45,-1963.28 1266.23,-1962.36 1269.13,-1961.52 1272.15,-1960.77 1275.27,-1960.11 1278.47,-1959.54 1281.75,-1959.06 1285.09,-1958.67 1288.49,-1958.39 1291.92,-1958.19 1295.37,-1958.1 1298.82,-1958.1 1302.27,-1958.19"/>
<text text-anchor="start" x="1267.92" y="-2003.13" font-family="Times,serif" font-size="14.00">C0036631</text>
<text text-anchor="start" x="1268.32" y="-1989.13" font-family="Times,serif" font-size="14.00">seminoma</text>
<text text-anchor="start" x="1281.15" y="-1975.13" font-family="Times,serif" font-size="14.00">31:31</text>
</g>
<!-- id_28440090_DOT_5&#45;&#45;id_28440090_DOT_7 -->
<g id="edge8" class="edge">
<title>id_28440090_DOT_5&#45;&#45;id_28440090_DOT_7</title>
<path fill="none" stroke="black" stroke-dasharray="1,5" d="M956.75,-2320.55C1030.82,-2249.33 1199.9,-2086.77 1267.94,-2021.36"/>
<text text-anchor="middle" x="1086.09" y="-2173.75" font-family="Times,serif" font-size="14.00">0.460165</text>
</g>
<!-- id_28440090_DOT_5&#45;&#45;id_28440090_DOT_16 -->
<g id="edge9" class="edge">
<title>id_28440090_DOT_5&#45;&#45;id_28440090_DOT_16</title>
<path fill="none" stroke="black" stroke-dasharray="1,5" d="M887.67,-2388.08C829.44,-2446.02 709.88,-2564.97 651.29,-2623.27"/>
<text text-anchor="middle" x="743.23" y="-2508.48" font-family="Times,serif" font-size="14.00">0.369167</text>
</g>
<!-- id_28440090_DOT_10 -->
<g id="node10" class="node">
<title>id_28440090_DOT_10</title>
<polygon fill="chartreuse" stroke="chartreuse" points="786.08,-858.5 791.19,-858.69 796.25,-858.98 801.24,-859.37 806.13,-859.84 810.91,-860.41 815.56,-861.07 820.06,-861.82 824.39,-862.66 828.53,-863.59 832.48,-864.59 836.22,-865.67 839.73,-866.84 843,-868.07 846.03,-869.38 848.81,-870.75 851.33,-872.18 853.58,-873.67 855.56,-875.22 857.26,-876.82 858.7,-878.46 859.86,-880.15 860.75,-881.87 861.37,-883.63 861.72,-885.41 861.82,-887.22 861.66,-889.04 861.26,-890.87 860.61,-892.72 859.74,-894.56 858.65,-896.4 857.35,-898.24 855.85,-900.06 854.17,-901.87 852.31,-903.65 850.28,-905.4 848.09,-907.13 845.77,-908.81 843.31,-910.46 840.73,-912.06 838.04,-913.6 835.26,-915.1 832.38,-916.53 829.42,-917.9 826.39,-919.21 823.3,-920.44 820.15,-921.6 816.95,-922.69 813.71,-923.69 810.43,-924.61 807.13,-925.45 803.8,-926.2 800.44,-926.86 797.07,-927.43 793.68,-927.91 790.29,-928.3 786.88,-928.58 783.47,-928.78 780.06,-928.87 776.65,-928.87 773.23,-928.78 769.82,-928.58 766.42,-928.3 763.02,-927.91 759.64,-927.43 756.26,-926.86 752.91,-926.2 749.58,-925.45 746.27,-924.61 743,-923.69 739.76,-922.69 736.56,-921.6 733.41,-920.44 730.32,-919.21 727.29,-917.9 724.33,-916.53 721.45,-915.1 718.66,-913.6 715.97,-912.06 713.4,-910.46 710.94,-908.81 708.61,-907.13 706.43,-905.4 704.4,-903.65 702.54,-901.87 700.85,-900.06 699.35,-898.24 698.05,-896.4 696.96,-894.56 696.09,-892.72 695.45,-890.87 695.05,-889.04 694.89,-887.22 694.98,-885.41 695.34,-883.63 695.96,-881.87 696.85,-880.15 698.01,-878.46 699.44,-876.82 701.15,-875.22 703.13,-873.67 705.38,-872.18 707.9,-870.75 710.67,-869.38 713.7,-868.07 716.98,-866.84 720.49,-865.67 724.22,-864.59 728.17,-863.59 732.32,-862.66 736.65,-861.82 741.15,-861.07 745.79,-860.41 750.57,-859.84 755.47,-859.37 760.46,-858.98 765.52,-858.69 770.63,-858.5 775.78,-858.4 780.93,-858.4 786.08,-858.5"/>
<text text-anchor="start" x="749.18" y="-903.44" font-family="Times,serif" font-size="14.00">C0205851</text>
<text text-anchor="start" x="730.92" y="-889.44" font-family="Times,serif" font-size="14.00">germ cell tumors</text>
<text text-anchor="start" x="762.41" y="-875.44" font-family="Times,serif" font-size="14.00">46:48</text>
</g>
<!-- id_28440090_DOT_6&#45;&#45;id_28440090_DOT_10 -->
<g id="edge10" class="edge">
<title>id_28440090_DOT_6&#45;&#45;id_28440090_DOT_10</title>
<path fill="none" stroke="black" stroke-dasharray="1,5" d="M692.08,-536.02C710.07,-610.59 751.84,-783.74 769.85,-858.37"/>
<text text-anchor="middle" x="704.72" y="-700" font-family="Times,serif" font-size="14.00">0.660073</text>
</g>
<!-- id_28440090_DOT_12 -->
<g id="node12" class="node">
<title>id_28440090_DOT_12</title>
<polygon fill="brown" stroke="brown" points="338.14,-269.02 341.57,-269.22 344.96,-269.5 348.3,-269.89 351.58,-270.37 354.79,-270.94 357.9,-271.6 360.92,-272.35 363.82,-273.19 366.6,-274.11 369.25,-275.11 371.75,-276.2 374.11,-277.36 376.3,-278.59 378.34,-279.9 380.2,-281.27 381.88,-282.7 383.39,-284.2 384.72,-285.75 385.86,-287.34 386.83,-288.99 387.6,-290.67 388.2,-292.4 388.61,-294.15 388.85,-295.93 388.92,-297.74 388.81,-299.56 388.54,-301.4 388.11,-303.24 387.53,-305.08 386.8,-306.93 385.92,-308.76 384.92,-310.59 383.79,-312.39 382.54,-314.17 381.18,-315.93 379.72,-317.65 378.16,-319.34 376.51,-320.98 374.78,-322.58 372.98,-324.13 371.11,-325.62 369.18,-327.05 367.2,-328.42 365.17,-329.73 363.09,-330.96 360.98,-332.13 358.84,-333.21 356.66,-334.22 354.47,-335.14 352.25,-335.98 350.02,-336.73 347.77,-337.39 345.51,-337.96 343.24,-338.44 340.96,-338.82 338.68,-339.11 336.39,-339.3 334.11,-339.4 331.82,-339.4 329.53,-339.3 327.24,-339.11 324.96,-338.82 322.68,-338.44 320.41,-337.96 318.15,-337.39 315.9,-336.73 313.67,-335.98 311.45,-335.14 309.26,-334.22 307.08,-333.21 304.94,-332.13 302.83,-330.96 300.76,-329.73 298.72,-328.42 296.74,-327.05 294.81,-325.62 292.94,-324.13 291.14,-322.58 289.41,-320.98 287.76,-319.34 286.2,-317.65 284.74,-315.93 283.38,-314.17 282.13,-312.39 281,-310.59 280,-308.76 279.13,-306.93 278.39,-305.08 277.81,-303.24 277.38,-301.4 277.11,-299.56 277,-297.74 277.07,-295.93 277.31,-294.15 277.72,-292.4 278.32,-290.67 279.1,-288.99 280.06,-287.34 281.2,-285.75 282.53,-284.2 284.04,-282.7 285.72,-281.27 287.58,-279.9 289.62,-278.59 291.81,-277.36 294.17,-276.2 296.67,-275.11 299.32,-274.11 302.1,-273.19 305,-272.35 308.02,-271.6 311.13,-270.94 314.34,-270.37 317.62,-269.89 320.96,-269.5 324.35,-269.22 327.78,-269.02 331.23,-268.93 334.69,-268.93 338.14,-269.02"/>
<text text-anchor="start" x="303.79" y="-313.96" font-family="Times,serif" font-size="14.00">C0027651</text>
<text text-anchor="start" x="313.52" y="-299.96" font-family="Times,serif" font-size="14.00">tumors</text>
<text text-anchor="start" x="317.02" y="-285.96" font-family="Times,serif" font-size="14.00">58:58</text>
</g>
<!-- id_28440090_DOT_6&#45;&#45;id_28440090_DOT_12 -->
<g id="edge11" class="edge">
<title>id_28440090_DOT_6&#45;&#45;id_28440090_DOT_12</title>
<path fill="none" stroke="black" stroke-dasharray="1,5" d="M629.19,-470.3C557.63,-430.17 433.68,-360.65 371.24,-325.63"/>
<text text-anchor="middle" x="473.97" y="-400.77" font-family="Times,serif" font-size="14.00">0.349846</text>
</g>
<!-- id_28440090_DOT_7&#45;&#45;id_28440090_DOT_17 -->
<g id="edge12" class="edge">
<title>id_28440090_DOT_7&#45;&#45;id_28440090_DOT_17</title>
<path fill="none" stroke="black" stroke-dasharray="1,5" d="M1352.39,-1992.84C1438.52,-1992.07 1603.72,-1990.59 1689.56,-1989.83"/>
<text text-anchor="middle" x="1494.72" y="-1994.13" font-family="Times,serif" font-size="14.00">0.769423</text>
</g>
<!-- id_28440090_DOT_19 -->
<g id="node19" class="node">
<title>id_28440090_DOT_19</title>
<polygon fill="darkgreen" stroke="darkgreen" points="1075.05,-1634.21 1081.26,-1634.41 1087.4,-1634.69 1093.46,-1635.08 1099.4,-1635.55 1105.2,-1636.13 1110.84,-1636.79 1116.3,-1637.54 1121.55,-1638.37 1126.59,-1639.3 1131.38,-1640.3 1135.91,-1641.39 1140.18,-1642.55 1144.15,-1643.78 1147.83,-1645.09 1151.2,-1646.46 1154.25,-1647.89 1156.98,-1649.39 1159.39,-1650.93 1161.46,-1652.53 1163.2,-1654.18 1164.61,-1655.86 1165.69,-1657.59 1166.44,-1659.34 1166.87,-1661.12 1166.99,-1662.93 1166.8,-1664.75 1166.31,-1666.59 1165.53,-1668.43 1164.47,-1670.27 1163.15,-1672.12 1161.57,-1673.95 1159.75,-1675.77 1157.7,-1677.58 1155.44,-1679.36 1152.98,-1681.12 1150.33,-1682.84 1147.51,-1684.53 1144.52,-1686.17 1141.39,-1687.77 1138.13,-1689.32 1134.75,-1690.81 1131.25,-1692.24 1127.66,-1693.61 1123.99,-1694.92 1120.23,-1696.15 1116.41,-1697.31 1112.53,-1698.4 1108.59,-1699.4 1104.62,-1700.33 1100.6,-1701.16 1096.56,-1701.92 1092.49,-1702.58 1088.4,-1703.15 1084.29,-1703.62 1080.17,-1704.01 1076.03,-1704.3 1071.89,-1704.49 1067.75,-1704.59 1063.61,-1704.59 1059.46,-1704.49 1055.32,-1704.3 1051.19,-1704.01 1047.07,-1703.62 1042.96,-1703.15 1038.87,-1702.58 1034.8,-1701.92 1030.75,-1701.16 1026.74,-1700.33 1022.76,-1699.4 1018.83,-1698.4 1014.95,-1697.31 1011.13,-1696.15 1007.37,-1694.92 1003.69,-1693.61 1000.1,-1692.24 996.61,-1690.81 993.23,-1689.32 989.96,-1687.77 986.83,-1686.17 983.85,-1684.53 981.03,-1682.84 978.38,-1681.12 975.92,-1679.36 973.65,-1677.58 971.61,-1675.77 969.79,-1673.95 968.21,-1672.12 966.89,-1670.27 965.83,-1668.43 965.05,-1666.59 964.56,-1664.75 964.37,-1662.93 964.49,-1661.12 964.92,-1659.34 965.67,-1657.59 966.75,-1655.86 968.16,-1654.18 969.9,-1652.53 971.97,-1650.93 974.37,-1649.39 977.1,-1647.89 980.16,-1646.46 983.53,-1645.09 987.21,-1643.78 991.18,-1642.55 995.44,-1641.39 999.98,-1640.3 1004.77,-1639.3 1009.8,-1638.37 1015.06,-1637.54 1020.52,-1636.79 1026.16,-1636.13 1031.96,-1635.55 1037.9,-1635.08 1043.95,-1634.69 1050.1,-1634.41 1056.3,-1634.21 1062.55,-1634.12 1068.81,-1634.12 1075.05,-1634.21"/>
<text text-anchor="start" x="1036.77" y="-1679.15" font-family="Times,serif" font-size="14.00">C0011906</text>
<text text-anchor="start" x="1006.51" y="-1665.15" font-family="Times,serif" font-size="14.00">differential diagnosis</text>
<text text-anchor="start" x="1049.73" y="-1651.15" font-family="Times,serif" font-size="14.00">95:96</text>
</g>
<!-- id_28440090_DOT_7&#45;&#45;id_28440090_DOT_19 -->
<g id="edge13" class="edge">
<title>id_28440090_DOT_7&#45;&#45;id_28440090_DOT_19</title>
<path fill="none" stroke="black" stroke-dasharray="1,5" d="M1273.42,-1960.18C1229.18,-1898.25 1134.45,-1765.63 1089.84,-1703.18"/>
<text text-anchor="middle" x="1155.38" y="-1834.48" font-family="Times,serif" font-size="14.00">0.881356</text>
</g>
<!-- id_28440090_DOT_8 -->
<g id="node8" class="node">
<title>id_28440090_DOT_8</title>
<polygon fill="brown" stroke="brown" points="75.71,-0.23 79.13,-0.42 82.53,-0.71 85.87,-1.09 89.15,-1.57 92.36,-2.14 95.47,-2.8 98.49,-3.55 101.39,-4.39 104.17,-5.31 106.82,-6.32 109.32,-7.4 111.68,-8.57 113.87,-9.8 115.9,-11.1 117.76,-12.48 119.45,-13.91 120.96,-15.4 122.29,-16.95 123.43,-18.55 124.39,-20.19 125.17,-21.88 125.77,-23.6 126.18,-25.36 126.42,-27.14 126.48,-28.94 126.38,-30.77 126.11,-32.6 125.68,-34.44 125.09,-36.29 124.36,-38.13 123.49,-39.97 122.49,-41.79 121.36,-43.6 120.11,-45.38 118.75,-47.13 117.28,-48.86 115.72,-50.54 114.08,-52.19 112.35,-53.78 110.55,-55.33 108.68,-56.82 106.75,-58.26 104.76,-59.63 102.73,-60.94 100.66,-62.17 98.55,-63.33 96.4,-64.42 94.23,-65.42 92.04,-66.34 89.82,-67.18 87.58,-67.93 85.34,-68.59 83.08,-69.16 80.81,-69.64 78.53,-70.02 76.25,-70.31 73.96,-70.51 71.67,-70.6 69.38,-70.6 67.09,-70.51 64.81,-70.31 62.53,-70.02 60.25,-69.64 57.98,-69.16 55.72,-68.59 53.47,-67.93 51.24,-67.18 49.02,-66.34 46.82,-65.42 44.65,-64.42 42.51,-63.33 40.4,-62.17 38.32,-60.94 36.29,-59.63 34.31,-58.26 32.38,-56.82 30.51,-55.33 28.71,-53.78 26.98,-52.19 25.33,-50.54 23.77,-48.86 22.31,-47.13 20.95,-45.38 19.7,-43.6 18.57,-41.79 17.56,-39.97 16.69,-38.13 15.96,-36.29 15.38,-34.44 14.95,-32.6 14.68,-30.77 14.57,-28.94 14.64,-27.14 14.87,-25.36 15.29,-23.6 15.88,-21.88 16.66,-20.19 17.62,-18.55 18.77,-16.95 20.1,-15.4 21.6,-13.91 23.29,-12.48 25.15,-11.1 27.18,-9.8 29.38,-8.57 31.73,-7.4 34.24,-6.32 36.89,-5.31 39.67,-4.39 42.57,-3.55 45.58,-2.8 48.7,-2.14 51.9,-1.57 55.19,-1.09 58.53,-0.71 61.92,-0.42 65.35,-0.23 68.8,-0.13 72.26,-0.13 75.71,-0.23"/>
<text text-anchor="start" x="41.36" y="-45.17" font-family="Times,serif" font-size="14.00">C0027651</text>
<text text-anchor="start" x="51.08" y="-31.17" font-family="Times,serif" font-size="14.00">tumors</text>
<text text-anchor="start" x="54.58" y="-17.17" font-family="Times,serif" font-size="14.00">34:34</text>
</g>
<!-- id_28440090_DOT_8&#45;&#45;id_28440090_DOT_12 -->
<g id="edge4" class="edge">
<title>id_28440090_DOT_8&#45;&#45;id_28440090_DOT_12</title>
<path fill="none" stroke="black" d="M98.12,-63.63C147.6,-114.31 251.06,-220.27 302.53,-272.99"/>
<text text-anchor="middle" x="174.07" y="-171.11" font-family="Times,serif" font-size="14.00">0.003380</text>
</g>
<!-- id_28440090_DOT_9 -->
<g id="node9" class="node">
<title>id_28440090_DOT_9</title>
<polygon fill="cadetblue" stroke="cadetblue" points="919.97,-1246.77 925.73,-1246.97 931.43,-1247.26 937.05,-1247.64 942.56,-1248.12 947.95,-1248.69 953.18,-1249.35 958.25,-1250.1 963.13,-1250.94 967.8,-1251.86 972.24,-1252.86 976.45,-1253.95 980.41,-1255.11 984.1,-1256.35 987.51,-1257.65 990.64,-1259.02 993.47,-1260.46 996.01,-1261.95 998.24,-1263.5 1000.16,-1265.09 1001.77,-1266.74 1003.08,-1268.42 1004.08,-1270.15 1004.78,-1271.9 1005.18,-1273.68 1005.29,-1275.49 1005.11,-1277.31 1004.66,-1279.15 1003.93,-1280.99 1002.95,-1282.84 1001.72,-1284.68 1000.26,-1286.51 998.57,-1288.34 996.67,-1290.14 994.57,-1291.92 992.29,-1293.68 989.83,-1295.4 987.21,-1297.09 984.44,-1298.73 981.54,-1300.33 978.51,-1301.88 975.37,-1303.37 972.13,-1304.8 968.8,-1306.18 965.38,-1307.48 961.9,-1308.72 958.35,-1309.88 954.75,-1310.96 951.1,-1311.97 947.41,-1312.89 943.68,-1313.73 939.93,-1314.48 936.15,-1315.14 932.35,-1315.71 928.54,-1316.19 924.72,-1316.57 920.88,-1316.86 917.04,-1317.05 913.19,-1317.15 909.35,-1317.15 905.5,-1317.05 901.66,-1316.86 897.83,-1316.57 894,-1316.19 890.19,-1315.71 886.39,-1315.14 882.61,-1314.48 878.86,-1313.73 875.13,-1312.89 871.44,-1311.97 867.79,-1310.96 864.19,-1309.88 860.64,-1308.72 857.16,-1307.48 853.75,-1306.18 850.41,-1304.8 847.17,-1303.37 844.03,-1301.88 841,-1300.33 838.1,-1298.73 835.33,-1297.09 832.71,-1295.4 830.25,-1293.68 827.97,-1291.92 825.87,-1290.14 823.97,-1288.34 822.28,-1286.51 820.82,-1284.68 819.59,-1282.84 818.61,-1280.99 817.89,-1279.15 817.43,-1277.31 817.25,-1275.49 817.36,-1273.68 817.76,-1271.9 818.46,-1270.15 819.46,-1268.42 820.77,-1266.74 822.38,-1265.09 824.31,-1263.5 826.54,-1261.95 829.07,-1260.46 831.9,-1259.02 835.03,-1257.65 838.44,-1256.35 842.13,-1255.11 846.09,-1253.95 850.3,-1252.86 854.75,-1251.86 859.42,-1250.94 864.29,-1250.1 869.36,-1249.35 874.6,-1248.69 879.98,-1248.12 885.49,-1247.64 891.11,-1247.26 896.81,-1246.97 902.57,-1246.77 908.37,-1246.68 914.18,-1246.68 919.97,-1246.77"/>
<text text-anchor="start" x="882.1" y="-1291.71" font-family="Times,serif" font-size="14.00">C4021985</text>
<text text-anchor="start" x="856.85" y="-1277.71" font-family="Times,serif" font-size="14.00">germ cell neoplasia</text>
<text text-anchor="start" x="895.33" y="-1263.71" font-family="Times,serif" font-size="14.00">39:41</text>
</g>
<!-- id_28440090_DOT_9&#45;&#45;id_28440090_DOT_10 -->
<g id="edge14" class="edge">
<title>id_28440090_DOT_9&#45;&#45;id_28440090_DOT_10</title>
<path fill="none" stroke="black" stroke-dasharray="1,5" d="M899.24,-1246.77C873.94,-1172.85 815.46,-1002.03 790.26,-928.42"/>
<text text-anchor="middle" x="818.5" y="-1090.4" font-family="Times,serif" font-size="14.00">0.430518</text>
</g>
<!-- id_28440090_DOT_11 -->
<g id="node11" class="node">
<title>id_28440090_DOT_11</title>
<polygon fill="coral" stroke="coral" points="1274.74,-1032.81 1280.68,-1033 1286.57,-1033.29 1292.36,-1033.67 1298.05,-1034.15 1303.61,-1034.72 1309.01,-1035.38 1314.24,-1036.13 1319.27,-1036.97 1324.09,-1037.89 1328.68,-1038.9 1333.02,-1039.98 1337.1,-1041.14 1340.91,-1042.38 1344.43,-1043.68 1347.66,-1045.05 1350.58,-1046.49 1353.2,-1047.98 1355.5,-1049.53 1357.49,-1051.13 1359.15,-1052.77 1360.5,-1054.46 1361.53,-1056.18 1362.25,-1057.93 1362.67,-1059.72 1362.78,-1061.52 1362.59,-1063.34 1362.13,-1065.18 1361.38,-1067.02 1360.37,-1068.87 1359.1,-1070.71 1357.59,-1072.55 1355.85,-1074.37 1353.89,-1076.17 1351.72,-1077.96 1349.36,-1079.71 1346.83,-1081.43 1344.12,-1083.12 1341.27,-1084.76 1338.27,-1086.36 1335.15,-1087.91 1331.91,-1089.4 1328.56,-1090.84 1325.12,-1092.21 1321.6,-1093.51 1318,-1094.75 1314.34,-1095.91 1310.63,-1096.99 1306.86,-1098 1303.05,-1098.92 1299.21,-1099.76 1295.34,-1100.51 1291.44,-1101.17 1287.52,-1101.74 1283.58,-1102.22 1279.64,-1102.6 1275.68,-1102.89 1271.72,-1103.08 1267.75,-1103.18 1263.78,-1103.18 1259.81,-1103.08 1255.85,-1102.89 1251.89,-1102.6 1247.94,-1102.22 1244.01,-1101.74 1240.09,-1101.17 1236.19,-1100.51 1232.32,-1099.76 1228.47,-1098.92 1224.67,-1098 1220.9,-1096.99 1217.18,-1095.91 1213.52,-1094.75 1209.93,-1093.51 1206.41,-1092.21 1202.97,-1090.84 1199.62,-1089.4 1196.38,-1087.91 1193.26,-1086.36 1190.26,-1084.76 1187.4,-1083.12 1184.7,-1081.43 1182.16,-1079.71 1179.8,-1077.96 1177.64,-1076.17 1175.68,-1074.37 1173.94,-1072.55 1172.43,-1070.71 1171.16,-1068.87 1170.15,-1067.02 1169.4,-1065.18 1168.93,-1063.34 1168.75,-1061.52 1168.86,-1059.72 1169.27,-1057.93 1169.99,-1056.18 1171.03,-1054.46 1172.37,-1052.77 1174.04,-1051.13 1176.03,-1049.53 1178.33,-1047.98 1180.94,-1046.49 1183.87,-1045.05 1187.09,-1043.68 1190.62,-1042.38 1194.42,-1041.14 1198.5,-1039.98 1202.85,-1038.9 1207.44,-1037.89 1212.26,-1036.97 1217.29,-1036.13 1222.52,-1035.38 1227.92,-1034.72 1233.48,-1034.15 1239.16,-1033.67 1244.96,-1033.29 1250.84,-1033 1256.79,-1032.81 1262.77,-1032.71 1268.76,-1032.71 1274.74,-1032.81"/>
<text text-anchor="start" x="1236.59" y="-1077.75" font-family="Times,serif" font-size="14.00">C1515647</text>
<text text-anchor="start" x="1209.19" y="-1063.75" font-family="Times,serif" font-size="14.00">isochromosome 12p</text>
<text text-anchor="start" x="1249.82" y="-1049.75" font-family="Times,serif" font-size="14.00">51:52</text>
</g>
<!-- id_28440090_DOT_9&#45;&#45;id_28440090_DOT_11 -->
<g id="edge15" class="edge">
<title>id_28440090_DOT_9&#45;&#45;id_28440090_DOT_11</title>
<path fill="none" stroke="black" stroke-dasharray="1,5" d="M962.82,-1250.8C1031.56,-1209.31 1152.28,-1136.44 1218.69,-1096.36"/>
<text text-anchor="middle" x="1064.5" y="-1176.38" font-family="Times,serif" font-size="14.00">0.810541</text>
</g>
<!-- id_28440090_DOT_18 -->
<g id="node18" class="node">
<title>id_28440090_DOT_18</title>
<polygon fill="darkgoldenrod" stroke="darkgoldenrod" points="513.41,-1301.15 522.51,-1301.34 531.51,-1301.63 540.39,-1302.01 549.1,-1302.49 557.6,-1303.06 565.88,-1303.72 573.88,-1304.47 581.59,-1305.31 588.97,-1306.23 595.99,-1307.24 602.64,-1308.32 608.89,-1309.48 614.72,-1310.72 620.11,-1312.02 625.05,-1313.4 629.53,-1314.83 633.53,-1316.32 637.06,-1317.87 640.1,-1319.47 642.65,-1321.11 644.71,-1322.8 646.29,-1324.52 647.4,-1326.28 648.03,-1328.06 648.2,-1329.86 647.92,-1331.69 647.2,-1333.52 646.06,-1335.36 644.51,-1337.21 642.57,-1339.05 640.26,-1340.89 637.59,-1342.71 634.59,-1344.52 631.27,-1346.3 627.66,-1348.05 623.78,-1349.78 619.64,-1351.46 615.26,-1353.11 610.68,-1354.7 605.89,-1356.25 600.93,-1357.74 595.81,-1359.18 590.54,-1360.55 585.15,-1361.85 579.65,-1363.09 574.04,-1364.25 568.35,-1365.34 562.58,-1366.34 556.75,-1367.26 550.87,-1368.1 544.94,-1368.85 538.97,-1369.51 532.97,-1370.08 526.95,-1370.56 520.9,-1370.94 514.84,-1371.23 508.77,-1371.43 502.7,-1371.52 496.62,-1371.52 490.55,-1371.43 484.48,-1371.23 478.42,-1370.94 472.37,-1370.56 466.35,-1370.08 460.35,-1369.51 454.38,-1368.85 448.45,-1368.1 442.57,-1367.26 436.74,-1366.34 430.97,-1365.34 425.28,-1364.25 419.68,-1363.09 414.17,-1361.85 408.78,-1360.55 403.51,-1359.18 398.39,-1357.74 393.43,-1356.25 388.64,-1354.7 384.06,-1353.11 379.68,-1351.46 375.54,-1349.78 371.66,-1348.05 368.05,-1346.3 364.73,-1344.52 361.73,-1342.71 359.07,-1340.89 356.75,-1339.05 354.81,-1337.21 353.26,-1335.36 352.12,-1333.52 351.4,-1331.69 351.12,-1329.86 351.29,-1328.06 351.92,-1326.28 353.03,-1324.52 354.61,-1322.8 356.67,-1321.11 359.22,-1319.47 362.26,-1317.87 365.79,-1316.32 369.79,-1314.83 374.27,-1313.4 379.21,-1312.02 384.6,-1310.72 390.43,-1309.48 396.68,-1308.32 403.33,-1307.24 410.36,-1306.23 417.74,-1305.31 425.44,-1304.47 433.45,-1303.72 441.72,-1303.06 450.22,-1302.49 458.93,-1302.01 467.81,-1301.63 476.81,-1301.34 485.92,-1301.15 495.07,-1301.05 504.25,-1301.05 513.41,-1301.15"/>
<text text-anchor="start" x="470.49" y="-1346.09" font-family="Times,serif" font-size="14.00">C0008479</text>
<text text-anchor="start" x="408.88" y="-1332.09" font-family="Times,serif" font-size="14.00">chondrosarcomatous component</text>
<text text-anchor="start" x="483.72" y="-1318.09" font-family="Times,serif" font-size="14.00">87:88</text>
</g>
<!-- id_28440090_DOT_9&#45;&#45;id_28440090_DOT_18 -->
<g id="edge16" class="edge">
<title>id_28440090_DOT_9&#45;&#45;id_28440090_DOT_18</title>
<path fill="none" stroke="black" stroke-dasharray="1,5" d="M828.96,-1292.79C774.3,-1300.01 701.19,-1309.66 637.75,-1318.05"/>
<text text-anchor="middle" x="707.11" y="-1308.22" font-family="Times,serif" font-size="14.00">0.762184</text>
</g>
<!-- id_28440090_DOT_9&#45;&#45;id_28440090_DOT_19 -->
<g id="edge17" class="edge">
<title>id_28440090_DOT_9&#45;&#45;id_28440090_DOT_19</title>
<path fill="none" stroke="black" stroke-dasharray="1,5" d="M925.11,-1316.64C954.39,-1390.1 1022.31,-1560.53 1051.7,-1634.29"/>
<text text-anchor="middle" x="962.16" y="-1478.26" font-family="Times,serif" font-size="14.00">0.805325</text>
</g>
<!-- id_28440090_DOT_13 -->
<g id="node13" class="node">
<title>id_28440090_DOT_13</title>
<polygon fill="cornflowerblue" stroke="cornflowerblue" points="1273.93,-2405.51 1277.36,-2405.7 1280.75,-2405.99 1284.09,-2406.38 1287.37,-2406.85 1290.58,-2407.42 1293.69,-2408.09 1296.71,-2408.84 1299.61,-2409.67 1302.39,-2410.6 1305.04,-2411.6 1307.54,-2412.69 1309.9,-2413.85 1312.09,-2415.08 1314.13,-2416.39 1315.99,-2417.76 1317.67,-2419.19 1319.18,-2420.69 1320.51,-2422.23 1321.65,-2423.83 1322.61,-2425.48 1323.39,-2427.16 1323.99,-2428.88 1324.4,-2430.64 1324.64,-2432.42 1324.71,-2434.23 1324.6,-2436.05 1324.33,-2437.88 1323.9,-2439.73 1323.32,-2441.57 1322.58,-2443.42 1321.71,-2445.25 1320.71,-2447.07 1319.58,-2448.88 1318.33,-2450.66 1316.97,-2452.42 1315.51,-2454.14 1313.95,-2455.82 1312.3,-2457.47 1310.57,-2459.07 1308.77,-2460.61 1306.9,-2462.11 1304.97,-2463.54 1302.99,-2464.91 1300.96,-2466.22 1298.88,-2467.45 1296.77,-2468.61 1294.63,-2469.7 1292.45,-2470.7 1290.26,-2471.63 1288.04,-2472.46 1285.81,-2473.21 1283.56,-2473.88 1281.3,-2474.45 1279.03,-2474.92 1276.75,-2475.31 1274.47,-2475.6 1272.18,-2475.79 1269.89,-2475.89 1267.61,-2475.89 1265.32,-2475.79 1263.03,-2475.6 1260.75,-2475.31 1258.47,-2474.92 1256.2,-2474.45 1253.94,-2473.88 1251.69,-2473.21 1249.46,-2472.46 1247.24,-2471.63 1245.05,-2470.7 1242.87,-2469.7 1240.73,-2468.61 1238.62,-2467.45 1236.54,-2466.22 1234.51,-2464.91 1232.53,-2463.54 1230.6,-2462.11 1228.73,-2460.61 1226.93,-2459.07 1225.2,-2457.47 1223.55,-2455.82 1221.99,-2454.14 1220.53,-2452.42 1219.17,-2450.66 1217.92,-2448.88 1216.79,-2447.07 1215.79,-2445.25 1214.91,-2443.42 1214.18,-2441.57 1213.6,-2439.73 1213.17,-2437.88 1212.9,-2436.05 1212.79,-2434.23 1212.86,-2432.42 1213.1,-2430.64 1213.51,-2428.88 1214.11,-2427.16 1214.88,-2425.48 1215.85,-2423.83 1216.99,-2422.23 1218.32,-2420.69 1219.83,-2419.19 1221.51,-2417.76 1223.37,-2416.39 1225.41,-2415.08 1227.6,-2413.85 1229.96,-2412.69 1232.46,-2411.6 1235.11,-2410.6 1237.89,-2409.67 1240.79,-2408.84 1243.81,-2408.09 1246.92,-2407.42 1250.13,-2406.85 1253.41,-2406.38 1256.75,-2405.99 1260.14,-2405.7 1263.57,-2405.51 1267.02,-2405.41 1270.48,-2405.41 1273.93,-2405.51"/>
<text text-anchor="start" x="1239.58" y="-2450.45" font-family="Times,serif" font-size="14.00">C0033325</text>
<text text-anchor="start" x="1241.53" y="-2436.45" font-family="Times,serif" font-size="14.00">prognosis</text>
<text text-anchor="start" x="1252.8" y="-2422.45" font-family="Times,serif" font-size="14.00">62:62</text>
</g>
<!-- id_28440090_DOT_15 -->
<g id="node15" class="node">
<title>id_28440090_DOT_15</title>
<polygon fill="crimson" stroke="crimson" points="1005.92,-1997.77 1011.82,-1997.97 1017.66,-1998.25 1023.41,-1998.64 1029.05,-1999.12 1034.56,-1999.69 1039.92,-2000.35 1045.11,-2001.1 1050.1,-2001.94 1054.88,-2002.86 1059.44,-2003.86 1063.75,-2004.95 1067.8,-2006.11 1071.57,-2007.34 1075.07,-2008.65 1078.27,-2010.02 1081.17,-2011.45 1083.77,-2012.95 1086.05,-2014.49 1088.02,-2016.09 1089.67,-2017.74 1091.01,-2019.42 1092.03,-2021.15 1092.75,-2022.9 1093.16,-2024.68 1093.27,-2026.49 1093.09,-2028.31 1092.62,-2030.15 1091.88,-2031.99 1090.88,-2033.83 1089.62,-2035.68 1088.12,-2037.51 1086.39,-2039.33 1084.45,-2041.14 1082.3,-2042.92 1079.96,-2044.68 1077.44,-2046.4 1074.76,-2048.09 1071.93,-2049.73 1068.95,-2051.33 1065.85,-2052.88 1062.64,-2054.37 1059.32,-2055.8 1055.91,-2057.17 1052.41,-2058.48 1048.85,-2059.71 1045.21,-2060.87 1041.53,-2061.96 1037.79,-2062.96 1034.01,-2063.89 1030.2,-2064.73 1026.36,-2065.48 1022.49,-2066.14 1018.6,-2066.71 1014.7,-2067.18 1010.78,-2067.57 1006.85,-2067.86 1002.92,-2068.05 998.98,-2068.15 995.05,-2068.15 991.11,-2068.05 987.18,-2067.86 983.25,-2067.57 979.33,-2067.18 975.43,-2066.71 971.54,-2066.14 967.67,-2065.48 963.83,-2064.73 960.02,-2063.89 956.24,-2062.96 952.5,-2061.96 948.82,-2060.87 945.18,-2059.71 941.62,-2058.48 938.12,-2057.17 934.71,-2055.8 931.39,-2054.37 928.18,-2052.88 925.08,-2051.33 922.1,-2049.73 919.27,-2048.09 916.59,-2046.4 914.07,-2044.68 911.73,-2042.92 909.58,-2041.14 907.64,-2039.33 905.91,-2037.51 904.41,-2035.68 903.15,-2033.83 902.15,-2031.99 901.41,-2030.15 900.94,-2028.31 900.76,-2026.49 900.87,-2024.68 901.28,-2022.9 902,-2021.15 903.02,-2019.42 904.36,-2017.74 906.01,-2016.09 907.98,-2014.49 910.26,-2012.95 912.86,-2011.45 915.76,-2010.02 918.96,-2008.65 922.46,-2007.34 926.23,-2006.11 930.28,-2004.95 934.59,-2003.86 939.15,-2002.86 943.93,-2001.94 948.92,-2001.1 954.11,-2000.35 959.47,-1999.69 964.98,-1999.12 970.62,-1998.64 976.37,-1998.25 982.21,-1997.97 988.11,-1997.77 994.04,-1997.68 999.99,-1997.68 1005.92,-1997.77"/>
<text text-anchor="start" x="967.85" y="-2042.71" font-family="Times,serif" font-size="14.00">C0278252</text>
<text text-anchor="start" x="941.02" y="-2028.71" font-family="Times,serif" font-size="14.00">very poor prognosis</text>
<text text-anchor="start" x="981.07" y="-2014.71" font-family="Times,serif" font-size="14.00">72:74</text>
</g>
<!-- id_28440090_DOT_13&#45;&#45;id_28440090_DOT_15 -->
<g id="edge5" class="edge">
<title>id_28440090_DOT_13&#45;&#45;id_28440090_DOT_15</title>
<path fill="none" stroke="black" d="M1246.51,-2407.28C1195.56,-2330.82 1070.81,-2143.64 1019.56,-2066.74"/>
<text text-anchor="middle" x="1106.79" y="-2239.81" font-family="Times,serif" font-size="14.00">0.134605</text>
</g>
<!-- id_28440090_DOT_20 -->
<g id="node20" class="node">
<title>id_28440090_DOT_20</title>
<polygon fill="darkkhaki" stroke="darkkhaki" points="1491.76,-2769.89 1495.36,-2770.09 1498.92,-2770.37 1502.44,-2770.76 1505.88,-2771.24 1509.25,-2771.81 1512.53,-2772.47 1515.69,-2773.22 1518.74,-2774.06 1521.67,-2774.98 1524.45,-2775.98 1527.08,-2777.07 1529.55,-2778.23 1531.86,-2779.46 1533.99,-2780.77 1535.95,-2782.14 1537.72,-2783.57 1539.31,-2785.07 1540.7,-2786.61 1541.9,-2788.21 1542.91,-2789.86 1543.73,-2791.54 1544.36,-2793.27 1544.79,-2795.02 1545.04,-2796.8 1545.11,-2798.61 1545,-2800.43 1544.72,-2802.27 1544.26,-2804.11 1543.65,-2805.95 1542.88,-2807.8 1541.97,-2809.63 1540.91,-2811.45 1539.72,-2813.26 1538.41,-2815.04 1536.98,-2816.8 1535.44,-2818.52 1533.81,-2820.21 1532.07,-2821.85 1530.26,-2823.45 1528.37,-2825 1526.4,-2826.49 1524.37,-2827.92 1522.29,-2829.29 1520.16,-2830.6 1517.98,-2831.83 1515.76,-2833 1513.51,-2834.08 1511.22,-2835.09 1508.92,-2836.01 1506.59,-2836.85 1504.24,-2837.6 1501.88,-2838.26 1499.5,-2838.83 1497.12,-2839.31 1494.72,-2839.69 1492.33,-2839.98 1489.92,-2840.17 1487.52,-2840.27 1485.11,-2840.27 1482.71,-2840.17 1480.31,-2839.98 1477.91,-2839.69 1475.52,-2839.31 1473.13,-2838.83 1470.76,-2838.26 1468.4,-2837.6 1466.05,-2836.85 1463.72,-2836.01 1461.41,-2835.09 1459.13,-2834.08 1456.88,-2833 1454.66,-2831.83 1452.48,-2830.6 1450.34,-2829.29 1448.26,-2827.92 1446.23,-2826.49 1444.27,-2825 1442.38,-2823.45 1440.56,-2821.85 1438.83,-2820.21 1437.19,-2818.52 1435.65,-2816.8 1434.22,-2815.04 1432.91,-2813.26 1431.72,-2811.45 1430.67,-2809.63 1429.75,-2807.8 1428.98,-2805.95 1428.37,-2804.11 1427.92,-2802.27 1427.63,-2800.43 1427.52,-2798.61 1427.59,-2796.8 1427.84,-2795.02 1428.28,-2793.27 1428.9,-2791.54 1429.72,-2789.86 1430.73,-2788.21 1431.93,-2786.61 1433.33,-2785.07 1434.91,-2783.57 1436.68,-2782.14 1438.64,-2780.77 1440.78,-2779.46 1443.08,-2778.23 1445.56,-2777.07 1448.19,-2775.98 1450.97,-2774.98 1453.89,-2774.06 1456.94,-2773.22 1460.11,-2772.47 1463.38,-2771.81 1466.75,-2771.24 1470.2,-2770.76 1473.71,-2770.37 1477.27,-2770.09 1480.88,-2769.89 1484.5,-2769.8 1488.13,-2769.8 1491.76,-2769.89"/>
<text text-anchor="start" x="1457.15" y="-2814.83" font-family="Times,serif" font-size="14.00">C1522577</text>
<text text-anchor="start" x="1455.21" y="-2800.83" font-family="Times,serif" font-size="14.00">follow &#45; up</text>
<text text-anchor="start" x="1466.87" y="-2786.83" font-family="Times,serif" font-size="14.00">99:101</text>
</g>
<!-- id_28440090_DOT_13&#45;&#45;id_28440090_DOT_20 -->
<g id="edge18" class="edge">
<title>id_28440090_DOT_13&#45;&#45;id_28440090_DOT_20</title>
<path fill="none" stroke="black" stroke-dasharray="1,5" d="M1287.87,-2472.67C1328.72,-2541.09 1424.22,-2701.03 1466.06,-2771.11"/>
<text text-anchor="middle" x="1350.72" y="-2624.69" font-family="Times,serif" font-size="14.00">0.831278</text>
</g>
<!-- id_28440090_DOT_14 -->
<g id="node14" class="node">
<title>id_28440090_DOT_14</title>
<polygon fill="bisque" stroke="bisque" points="2074.4,-2205.54 2077.83,-2205.73 2081.22,-2206.02 2084.57,-2206.4 2087.85,-2206.88 2091.05,-2207.45 2094.17,-2208.11 2097.18,-2208.86 2100.09,-2209.7 2102.87,-2210.62 2105.51,-2211.63 2108.02,-2212.71 2110.37,-2213.87 2112.57,-2215.11 2114.6,-2216.41 2116.46,-2217.78 2118.15,-2219.22 2119.66,-2220.71 2120.98,-2222.26 2122.13,-2223.86 2123.09,-2225.5 2123.87,-2227.19 2124.46,-2228.91 2124.88,-2230.66 2125.12,-2232.45 2125.18,-2234.25 2125.07,-2236.07 2124.8,-2237.91 2124.37,-2239.75 2123.79,-2241.6 2123.06,-2243.44 2122.19,-2245.28 2121.18,-2247.1 2120.05,-2248.9 2118.8,-2250.69 2117.44,-2252.44 2115.98,-2254.16 2114.42,-2255.85 2112.77,-2257.49 2111.04,-2259.09 2109.24,-2260.64 2107.37,-2262.13 2105.44,-2263.57 2103.46,-2264.94 2101.43,-2266.24 2099.35,-2267.48 2097.24,-2268.64 2095.1,-2269.72 2092.93,-2270.73 2090.73,-2271.65 2088.51,-2272.49 2086.28,-2273.24 2084.03,-2273.9 2081.77,-2274.47 2079.5,-2274.95 2077.23,-2275.33 2074.94,-2275.62 2072.66,-2275.81 2070.37,-2275.91 2068.08,-2275.91 2065.79,-2275.81 2063.5,-2275.62 2061.22,-2275.33 2058.94,-2274.95 2056.68,-2274.47 2054.42,-2273.9 2052.17,-2273.24 2049.93,-2272.49 2047.72,-2271.65 2045.52,-2270.73 2043.35,-2269.72 2041.2,-2268.64 2039.09,-2267.48 2037.02,-2266.24 2034.99,-2264.94 2033,-2263.57 2031.07,-2262.13 2029.2,-2260.64 2027.4,-2259.09 2025.67,-2257.49 2024.03,-2255.85 2022.47,-2254.16 2021,-2252.44 2019.64,-2250.69 2018.39,-2248.9 2017.26,-2247.1 2016.26,-2245.28 2015.39,-2243.44 2014.66,-2241.6 2014.07,-2239.75 2013.64,-2237.91 2013.37,-2236.07 2013.27,-2234.25 2013.33,-2232.45 2013.57,-2230.66 2013.98,-2228.91 2014.58,-2227.19 2015.36,-2225.5 2016.32,-2223.86 2017.46,-2222.26 2018.79,-2220.71 2020.3,-2219.22 2021.99,-2217.78 2023.85,-2216.41 2025.88,-2215.11 2028.08,-2213.87 2030.43,-2212.71 2032.93,-2211.63 2035.58,-2210.62 2038.36,-2209.7 2041.26,-2208.86 2044.28,-2208.11 2047.4,-2207.45 2050.6,-2206.88 2053.88,-2206.4 2057.22,-2206.02 2060.62,-2205.73 2064.05,-2205.54 2067.5,-2205.44 2070.95,-2205.44 2074.4,-2205.54"/>
<text text-anchor="start" x="2040.05" y="-2250.47" font-family="Times,serif" font-size="14.00">C1261473</text>
<text text-anchor="start" x="2045.9" y="-2236.47" font-family="Times,serif" font-size="14.00">sarcoma</text>
<text text-anchor="start" x="2053.28" y="-2222.47" font-family="Times,serif" font-size="14.00">68:68</text>
</g>
<!-- id_28440090_DOT_14&#45;&#45;id_28440090_DOT_17 -->
<g id="edge6" class="edge">
<title>id_28440090_DOT_14&#45;&#45;id_28440090_DOT_17</title>
<path fill="none" stroke="black" d="M2031.96,-2211.84C1967.96,-2162.33 1838.2,-2061.93 1777.31,-2014.82"/>
<text text-anchor="middle" x="1878.39" y="-2116.13" font-family="Times,serif" font-size="14.00">0.003925</text>
</g>
<!-- id_28440090_DOT_15&#45;&#45;id_28440090_DOT_19 -->
<g id="edge19" class="edge">
<title>id_28440090_DOT_15&#45;&#45;id_28440090_DOT_19</title>
<path fill="none" stroke="black" stroke-dasharray="1,5" d="M1003.66,-1997.72C1016.79,-1928.22 1045.9,-1774.08 1059.03,-1704.56"/>
<text text-anchor="middle" x="1005.1" y="-1853.94" font-family="Times,serif" font-size="14.00">0.713500</text>
</g>
</g>
</svg>
