<?xml version="1.0" encoding="UTF-8" standalone="no"?>
<!DOCTYPE svg PUBLIC "-//W3C//DTD SVG 1.1//EN"
 "http://www.w3.org/Graphics/SVG/1.1/DTD/svg11.dtd">
<!-- Generated by graphviz version 2.42.3 (20191010.1750)
 -->
<!-- Title: MST Pages: 1 -->
<svg width="3687pt" height="5708pt"
 viewBox="0.00 0.00 3687.19 5707.98" xmlns="http://www.w3.org/2000/svg" xmlns:xlink="http://www.w3.org/1999/xlink">
<g id="graph0" class="graph" transform="scale(1 1) rotate(0) translate(4 5703.98)">
<title>MST</title>
<polygon fill="white" stroke="transparent" points="-4,4 -4,-5703.98 3683.19,-5703.98 3683.19,4 -4,4"/>
<!-- id_28494421_DOT_1 -->
<g id="node1" class="node">
<title>id_28494421_DOT_1</title>
<polygon fill="aquamarine" stroke="aquamarine" points="2037.02,-5327.5 2041.66,-5327.7 2046.24,-5327.98 2050.76,-5328.37 2055.19,-5328.85 2059.52,-5329.42 2063.73,-5330.08 2067.81,-5330.83 2071.73,-5331.67 2075.48,-5332.59 2079.06,-5333.59 2082.45,-5334.68 2085.63,-5335.84 2088.59,-5337.07 2091.34,-5338.38 2093.85,-5339.75 2096.13,-5341.18 2098.17,-5342.68 2099.96,-5344.22 2101.51,-5345.82 2102.81,-5347.47 2103.86,-5349.15 2104.67,-5350.88 2105.23,-5352.63 2105.55,-5354.41 2105.64,-5356.22 2105.49,-5358.04 2105.13,-5359.88 2104.55,-5361.72 2103.76,-5363.56 2102.77,-5365.41 2101.59,-5367.24 2100.23,-5369.06 2098.71,-5370.87 2097.02,-5372.65 2095.18,-5374.41 2093.2,-5376.13 2091.1,-5377.82 2088.87,-5379.46 2086.54,-5381.06 2084.1,-5382.61 2081.58,-5384.1 2078.97,-5385.53 2076.29,-5386.9 2073.54,-5388.21 2070.74,-5389.44 2067.89,-5390.6 2064.99,-5391.69 2062.06,-5392.69 2059.09,-5393.62 2056.09,-5394.46 2053.07,-5395.21 2050.04,-5395.87 2046.98,-5396.44 2043.92,-5396.91 2040.84,-5397.3 2037.75,-5397.59 2034.67,-5397.78 2031.57,-5397.88 2028.48,-5397.88 2025.39,-5397.78 2022.3,-5397.59 2019.21,-5397.3 2016.14,-5396.91 2013.07,-5396.44 2010.02,-5395.87 2006.98,-5395.21 2003.96,-5394.46 2000.97,-5393.62 1998,-5392.69 1995.06,-5391.69 1992.17,-5390.6 1989.31,-5389.44 1986.51,-5388.21 1983.77,-5386.9 1981.09,-5385.53 1978.48,-5384.1 1975.95,-5382.61 1973.52,-5381.06 1971.18,-5379.46 1968.96,-5377.82 1966.85,-5376.13 1964.87,-5374.41 1963.03,-5372.65 1961.35,-5370.87 1959.82,-5369.06 1958.46,-5367.24 1957.28,-5365.41 1956.3,-5363.56 1955.51,-5361.72 1954.93,-5359.88 1954.56,-5358.04 1954.42,-5356.22 1954.5,-5354.41 1954.83,-5352.63 1955.39,-5350.88 1956.19,-5349.15 1957.24,-5347.47 1958.54,-5345.82 1960.09,-5344.22 1961.88,-5342.68 1963.92,-5341.18 1966.2,-5339.75 1968.71,-5338.38 1971.46,-5337.07 1974.43,-5335.84 1977.61,-5334.68 1980.99,-5333.59 1984.57,-5332.59 1988.33,-5331.67 1992.25,-5330.83 1996.32,-5330.08 2000.53,-5329.42 2004.86,-5328.85 2009.3,-5328.37 2013.81,-5327.98 2018.4,-5327.7 2023.03,-5327.5 2027.69,-5327.41 2032.36,-5327.41 2037.02,-5327.5"/>
<text text-anchor="start" x="2000.86" y="-5372.44" font-family="Times,serif" font-size="14.00">C0017446</text>
<text text-anchor="start" x="1987.86" y="-5358.44" font-family="Times,serif" font-size="14.00">protected areas</text>
<text text-anchor="start" x="2021.08" y="-5344.44" font-family="Times,serif" font-size="14.00">1:2</text>
</g>
<!-- id_28494421_DOT_6 -->
<g id="node6" class="node">
<title>id_28494421_DOT_6</title>
<polygon fill="aquamarine" stroke="aquamarine" points="1709.72,-5555.24 1714.35,-5555.44 1718.94,-5555.73 1723.45,-5556.11 1727.89,-5556.59 1732.22,-5557.16 1736.43,-5557.82 1740.5,-5558.57 1744.42,-5559.41 1748.18,-5560.33 1751.76,-5561.33 1755.14,-5562.42 1758.32,-5563.58 1761.29,-5564.82 1764.03,-5566.12 1766.55,-5567.49 1768.83,-5568.93 1770.87,-5570.42 1772.66,-5571.97 1774.21,-5573.56 1775.51,-5575.21 1776.56,-5576.89 1777.36,-5578.62 1777.92,-5580.37 1778.25,-5582.15 1778.33,-5583.96 1778.19,-5585.78 1777.82,-5587.62 1777.24,-5589.46 1776.45,-5591.31 1775.47,-5593.15 1774.29,-5594.98 1772.93,-5596.81 1771.4,-5598.61 1769.72,-5600.39 1767.88,-5602.15 1765.9,-5603.87 1763.79,-5605.56 1761.57,-5607.2 1759.23,-5608.8 1756.8,-5610.35 1754.27,-5611.84 1751.66,-5613.27 1748.98,-5614.65 1746.24,-5615.95 1743.44,-5617.19 1740.58,-5618.35 1737.69,-5619.43 1734.75,-5620.44 1731.78,-5621.36 1728.79,-5622.2 1725.77,-5622.95 1722.73,-5623.61 1719.68,-5624.18 1716.61,-5624.66 1713.54,-5625.04 1710.45,-5625.33 1707.36,-5625.52 1704.27,-5625.62 1701.18,-5625.62 1698.08,-5625.52 1694.99,-5625.33 1691.91,-5625.04 1688.83,-5624.66 1685.77,-5624.18 1682.71,-5623.61 1679.68,-5622.95 1676.66,-5622.2 1673.66,-5621.36 1670.69,-5620.44 1667.76,-5619.43 1664.86,-5618.35 1662.01,-5617.19 1659.21,-5615.95 1656.46,-5614.65 1653.78,-5613.27 1651.17,-5611.84 1648.65,-5610.35 1646.21,-5608.8 1643.88,-5607.2 1641.65,-5605.56 1639.55,-5603.87 1637.57,-5602.15 1635.73,-5600.39 1634.04,-5598.61 1632.51,-5596.81 1631.16,-5594.98 1629.98,-5593.15 1628.99,-5591.31 1628.2,-5589.46 1627.62,-5587.62 1627.26,-5585.78 1627.11,-5583.96 1627.2,-5582.15 1627.52,-5580.37 1628.08,-5578.62 1628.89,-5576.89 1629.94,-5575.21 1631.24,-5573.56 1632.78,-5571.97 1634.58,-5570.42 1636.62,-5568.93 1638.9,-5567.49 1641.41,-5566.12 1644.16,-5564.82 1647.12,-5563.58 1650.3,-5562.42 1653.69,-5561.33 1657.26,-5560.33 1661.02,-5559.41 1664.94,-5558.57 1669.02,-5557.82 1673.23,-5557.16 1677.56,-5556.59 1681.99,-5556.11 1686.51,-5555.73 1691.09,-5555.44 1695.73,-5555.24 1700.39,-5555.15 1705.06,-5555.15 1709.72,-5555.24"/>
<text text-anchor="start" x="1673.55" y="-5600.18" font-family="Times,serif" font-size="14.00">C0017446</text>
<text text-anchor="start" x="1660.56" y="-5586.18" font-family="Times,serif" font-size="14.00">protected areas</text>
<text text-anchor="start" x="1686.78" y="-5572.18" font-family="Times,serif" font-size="14.00">38:39</text>
</g>
<!-- id_28494421_DOT_1&#45;&#45;id_28494421_DOT_6 -->
<g id="edge1" class="edge">
<title>id_28494421_DOT_1&#45;&#45;id_28494421_DOT_6</title>
<path fill="none" stroke="black" d="M1990.55,-5390.11C1929,-5432.94 1810.6,-5515.32 1746.51,-5559.91"/>
<text text-anchor="middle" x="1842.28" y="-5477.81" font-family="Times,serif" font-size="14.00">0.002543</text>
</g>
<!-- id_28494421_DOT_14 -->
<g id="node14" class="node">
<title>id_28494421_DOT_14</title>
<polygon fill="chartreuse" stroke="chartreuse" points="2080.66,-4939.83 2084.08,-4940.02 2087.48,-4940.31 2090.82,-4940.69 2094.1,-4941.17 2097.31,-4941.74 2100.42,-4942.4 2103.44,-4943.15 2106.34,-4943.99 2109.12,-4944.91 2111.77,-4945.92 2114.27,-4947 2116.63,-4948.16 2118.82,-4949.4 2120.85,-4950.7 2122.71,-4952.07 2124.4,-4953.51 2125.91,-4955 2127.24,-4956.55 2128.38,-4958.15 2129.34,-4959.79 2130.12,-4961.48 2130.72,-4963.2 2131.13,-4964.96 2131.37,-4966.74 2131.43,-4968.54 2131.33,-4970.37 2131.06,-4972.2 2130.63,-4974.04 2130.04,-4975.89 2129.31,-4977.73 2128.44,-4979.57 2127.44,-4981.39 2126.31,-4983.19 2125.06,-4984.98 2123.7,-4986.73 2122.23,-4988.45 2120.67,-4990.14 2119.03,-4991.78 2117.3,-4993.38 2115.5,-4994.93 2113.63,-4996.42 2111.7,-4997.86 2109.71,-4999.23 2107.68,-5000.53 2105.61,-5001.77 2103.5,-5002.93 2101.35,-5004.01 2099.18,-5005.02 2096.99,-5005.94 2094.77,-5006.78 2092.53,-5007.53 2090.29,-5008.19 2088.03,-5008.76 2085.76,-5009.24 2083.48,-5009.62 2081.2,-5009.91 2078.91,-5010.1 2076.62,-5010.2 2074.33,-5010.2 2072.04,-5010.1 2069.76,-5009.91 2067.48,-5009.62 2065.2,-5009.24 2062.93,-5008.76 2060.67,-5008.19 2058.42,-5007.53 2056.19,-5006.78 2053.97,-5005.94 2051.77,-5005.02 2049.6,-5004.01 2047.46,-5002.93 2045.35,-5001.77 2043.27,-5000.53 2041.24,-4999.23 2039.26,-4997.86 2037.33,-4996.42 2035.46,-4994.93 2033.66,-4993.38 2031.93,-4991.78 2030.28,-4990.14 2028.72,-4988.45 2027.26,-4986.73 2025.9,-4984.98 2024.65,-4983.19 2023.52,-4981.39 2022.51,-4979.57 2021.64,-4977.73 2020.91,-4975.89 2020.33,-4974.04 2019.9,-4972.2 2019.63,-4970.37 2019.52,-4968.54 2019.59,-4966.74 2019.82,-4964.96 2020.24,-4963.2 2020.83,-4961.48 2021.61,-4959.79 2022.57,-4958.15 2023.72,-4956.55 2025.05,-4955 2026.55,-4953.51 2028.24,-4952.07 2030.1,-4950.7 2032.13,-4949.4 2034.33,-4948.16 2036.68,-4947 2039.19,-4945.92 2041.84,-4944.91 2044.62,-4943.99 2047.52,-4943.15 2050.53,-4942.4 2053.65,-4941.74 2056.85,-4941.17 2060.13,-4940.69 2063.48,-4940.31 2066.87,-4940.02 2070.3,-4939.83 2073.75,-4939.73 2077.21,-4939.73 2080.66,-4939.83"/>
<text text-anchor="start" x="2046.31" y="-4984.77" font-family="Times,serif" font-size="14.00">C0439792</text>
<text text-anchor="start" x="2058.37" y="-4970.77" font-family="Times,serif" font-size="14.00">extent</text>
<text text-anchor="start" x="2053.05" y="-4956.77" font-family="Times,serif" font-size="14.00">115:115</text>
</g>
<!-- id_28494421_DOT_1&#45;&#45;id_28494421_DOT_14 -->
<g id="edge16" class="edge">
<title>id_28494421_DOT_1&#45;&#45;id_28494421_DOT_14</title>
<path fill="none" stroke="black" stroke-dasharray="1,5" d="M2034.18,-5327.21C2042.84,-5253.38 2062.72,-5083.81 2071.35,-5010.17"/>
<text text-anchor="middle" x="2026.52" y="-5171.49" font-family="Times,serif" font-size="14.00">0.838091</text>
</g>
<!-- id_28494421_DOT_24 -->
<g id="node24" class="node">
<title>id_28494421_DOT_24</title>
<polygon fill="aquamarine" stroke="aquamarine" points="2300.49,-5629.48 2306.76,-5629.67 2312.97,-5629.96 2319.08,-5630.34 2325.09,-5630.82 2330.95,-5631.39 2336.65,-5632.05 2342.17,-5632.8 2347.48,-5633.64 2352.57,-5634.56 2357.41,-5635.57 2361.99,-5636.65 2366.3,-5637.81 2370.32,-5639.05 2374.04,-5640.35 2377.44,-5641.72 2380.53,-5643.16 2383.29,-5644.65 2385.72,-5646.2 2387.81,-5647.8 2389.57,-5649.44 2391,-5651.13 2392.09,-5652.85 2392.85,-5654.6 2393.28,-5656.39 2393.4,-5658.19 2393.2,-5660.01 2392.71,-5661.85 2391.92,-5663.69 2390.85,-5665.54 2389.52,-5667.38 2387.92,-5669.22 2386.08,-5671.04 2384.02,-5672.84 2381.73,-5674.63 2379.24,-5676.38 2376.56,-5678.1 2373.71,-5679.79 2370.7,-5681.43 2367.53,-5683.03 2364.24,-5684.58 2360.82,-5686.07 2357.29,-5687.51 2353.66,-5688.88 2349.94,-5690.18 2346.14,-5691.42 2342.28,-5692.58 2338.36,-5693.66 2334.38,-5694.67 2330.36,-5695.59 2326.31,-5696.43 2322.22,-5697.18 2318.11,-5697.84 2313.97,-5698.41 2309.82,-5698.89 2305.65,-5699.27 2301.48,-5699.56 2297.29,-5699.75 2293.11,-5699.85 2288.92,-5699.85 2284.73,-5699.75 2280.55,-5699.56 2276.37,-5699.27 2272.2,-5698.89 2268.05,-5698.41 2263.91,-5697.84 2259.8,-5697.18 2255.71,-5696.43 2251.66,-5695.59 2247.64,-5694.67 2243.66,-5693.66 2239.74,-5692.58 2235.88,-5691.42 2232.08,-5690.18 2228.37,-5688.88 2224.74,-5687.51 2221.21,-5686.07 2217.79,-5684.58 2214.49,-5683.03 2211.33,-5681.43 2208.31,-5679.79 2205.46,-5678.1 2202.78,-5676.38 2200.29,-5674.63 2198.01,-5672.84 2195.94,-5671.04 2194.1,-5669.22 2192.5,-5667.38 2191.17,-5665.54 2190.1,-5663.69 2189.31,-5661.85 2188.82,-5660.01 2188.62,-5658.19 2188.74,-5656.39 2189.18,-5654.6 2189.94,-5652.85 2191.03,-5651.13 2192.45,-5649.44 2194.21,-5647.8 2196.3,-5646.2 2198.73,-5644.65 2201.49,-5643.16 2204.58,-5641.72 2207.98,-5640.35 2211.7,-5639.05 2215.72,-5637.81 2220.03,-5636.65 2224.61,-5635.57 2229.45,-5634.56 2234.54,-5633.64 2239.85,-5632.8 2245.37,-5632.05 2251.07,-5631.39 2256.93,-5630.82 2262.94,-5630.34 2269.06,-5629.96 2275.26,-5629.67 2281.54,-5629.48 2287.85,-5629.38 2294.17,-5629.38 2300.49,-5629.48"/>
<text text-anchor="start" x="2261.84" y="-5674.41" font-family="Times,serif" font-size="14.00">C0017446</text>
<text text-anchor="start" x="2231.16" y="-5660.41" font-family="Times,serif" font-size="14.00">forest protected areas</text>
<text text-anchor="start" x="2268.07" y="-5646.41" font-family="Times,serif" font-size="14.00">259:261</text>
</g>
<!-- id_28494421_DOT_1&#45;&#45;id_28494421_DOT_24 -->
<g id="edge2" class="edge">
<title>id_28494421_DOT_1&#45;&#45;id_28494421_DOT_24</title>
<path fill="none" stroke="black" d="M2057.46,-5394.39C2106.8,-5451.47 2210.11,-5571 2261.15,-5630.07"/>
<text text-anchor="middle" x="2133.06" y="-5515.03" font-family="Times,serif" font-size="14.00">0.080982</text>
</g>
<!-- id_28494421_DOT_2 -->
<g id="node2" class="node">
<title>id_28494421_DOT_2</title>
<polygon fill="bisque" stroke="bisque" points="3627.36,-3291.1 3630.86,-3291.3 3634.34,-3291.59 3637.76,-3291.97 3641.11,-3292.45 3644.39,-3293.02 3647.58,-3293.68 3650.67,-3294.43 3653.64,-3295.27 3656.48,-3296.19 3659.19,-3297.19 3661.76,-3298.28 3664.16,-3299.44 3666.41,-3300.68 3668.49,-3301.98 3670.4,-3303.35 3672.12,-3304.79 3673.67,-3306.28 3675.02,-3307.83 3676.2,-3309.42 3677.18,-3311.07 3677.97,-3312.75 3678.58,-3314.48 3679.01,-3316.23 3679.25,-3318.01 3679.32,-3319.82 3679.21,-3321.64 3678.93,-3323.48 3678.49,-3325.32 3677.9,-3327.17 3677.15,-3329.01 3676.26,-3330.84 3675.23,-3332.67 3674.07,-3334.47 3672.79,-3336.25 3671.4,-3338.01 3669.9,-3339.73 3668.31,-3341.42 3666.62,-3343.06 3664.85,-3344.66 3663.01,-3346.21 3661.1,-3347.7 3659.12,-3349.13 3657.09,-3350.51 3655.01,-3351.81 3652.89,-3353.05 3650.73,-3354.21 3648.54,-3355.29 3646.31,-3356.3 3644.07,-3357.22 3641.8,-3358.06 3639.51,-3358.81 3637.21,-3359.47 3634.9,-3360.04 3632.57,-3360.52 3630.24,-3360.9 3627.91,-3361.19 3625.57,-3361.38 3623.23,-3361.48 3620.88,-3361.48 3618.54,-3361.38 3616.2,-3361.19 3613.87,-3360.9 3611.54,-3360.52 3609.21,-3360.04 3606.9,-3359.47 3604.6,-3358.81 3602.31,-3358.06 3600.05,-3357.22 3597.8,-3356.3 3595.58,-3355.29 3593.38,-3354.21 3591.22,-3353.05 3589.1,-3351.81 3587.02,-3350.51 3584.99,-3349.13 3583.02,-3347.7 3581.1,-3346.21 3579.26,-3344.66 3577.49,-3343.06 3575.8,-3341.42 3574.21,-3339.73 3572.71,-3338.01 3571.32,-3336.25 3570.04,-3334.47 3568.88,-3332.67 3567.86,-3330.84 3566.96,-3329.01 3566.22,-3327.17 3565.62,-3325.32 3565.18,-3323.48 3564.9,-3321.64 3564.79,-3319.82 3564.86,-3318.01 3565.1,-3316.23 3565.53,-3314.48 3566.14,-3312.75 3566.93,-3311.07 3567.92,-3309.42 3569.09,-3307.83 3570.45,-3306.28 3571.99,-3304.79 3573.72,-3303.35 3575.62,-3301.98 3577.7,-3300.68 3579.95,-3299.44 3582.36,-3298.28 3584.92,-3297.19 3587.63,-3296.19 3590.47,-3295.27 3593.44,-3294.43 3596.53,-3293.68 3599.72,-3293.02 3603,-3292.45 3606.36,-3291.97 3609.78,-3291.59 3613.25,-3291.3 3616.76,-3291.1 3620.29,-3291.01 3623.82,-3291.01 3627.36,-3291.1"/>
<text text-anchor="start" x="3592.89" y="-3336.04" font-family="Times,serif" font-size="14.00">C0043476</text>
<text text-anchor="start" x="3592.12" y="-3322.04" font-family="Times,serif" font-size="14.00">Zimbabwe</text>
<text text-anchor="start" x="3613.11" y="-3308.04" font-family="Times,serif" font-size="14.00">5:5</text>
</g>
<!-- id_28494421_DOT_7 -->
<g id="node7" class="node">
<title>id_28494421_DOT_7</title>
<polygon fill="bisque" stroke="bisque" points="3238.47,-3267.64 3241.98,-3267.83 3245.45,-3268.12 3248.87,-3268.5 3252.23,-3268.98 3255.51,-3269.55 3258.7,-3270.21 3261.78,-3270.96 3264.75,-3271.8 3267.6,-3272.72 3270.31,-3273.73 3272.87,-3274.81 3275.28,-3275.97 3277.52,-3277.21 3279.6,-3278.51 3281.51,-3279.88 3283.23,-3281.32 3284.78,-3282.81 3286.14,-3284.36 3287.31,-3285.96 3288.29,-3287.6 3289.09,-3289.29 3289.7,-3291.01 3290.12,-3292.76 3290.37,-3294.55 3290.43,-3296.35 3290.32,-3298.17 3290.05,-3300.01 3289.61,-3301.85 3289.01,-3303.7 3288.26,-3305.54 3287.37,-3307.37 3286.34,-3309.2 3285.18,-3311 3283.91,-3312.78 3282.51,-3314.54 3281.02,-3316.26 3279.42,-3317.95 3277.73,-3319.59 3275.97,-3321.19 3274.12,-3322.74 3272.21,-3324.23 3270.23,-3325.67 3268.2,-3327.04 3266.13,-3328.34 3264,-3329.58 3261.84,-3330.74 3259.65,-3331.82 3257.43,-3332.83 3255.18,-3333.75 3252.91,-3334.59 3250.62,-3335.34 3248.32,-3336 3246.01,-3336.57 3243.69,-3337.05 3241.36,-3337.43 3239.02,-3337.72 3236.68,-3337.91 3234.34,-3338.01 3232,-3338.01 3229.66,-3337.91 3227.32,-3337.72 3224.98,-3337.43 3222.65,-3337.05 3220.33,-3336.57 3218.01,-3336 3215.71,-3335.34 3213.43,-3334.59 3211.16,-3333.75 3208.91,-3332.83 3206.69,-3331.82 3204.49,-3330.74 3202.33,-3329.58 3200.21,-3328.34 3198.13,-3327.04 3196.1,-3325.67 3194.13,-3324.23 3192.22,-3322.74 3190.37,-3321.19 3188.6,-3319.59 3186.92,-3317.95 3185.32,-3316.26 3183.82,-3314.54 3182.43,-3312.78 3181.15,-3311 3180,-3309.2 3178.97,-3307.37 3178.08,-3305.54 3177.33,-3303.7 3176.73,-3301.85 3176.29,-3300.01 3176.01,-3298.17 3175.91,-3296.35 3175.97,-3294.55 3176.21,-3292.76 3176.64,-3291.01 3177.25,-3289.29 3178.05,-3287.6 3179.03,-3285.96 3180.2,-3284.36 3181.56,-3282.81 3183.1,-3281.32 3184.83,-3279.88 3186.73,-3278.51 3188.81,-3277.21 3191.06,-3275.97 3193.47,-3274.81 3196.03,-3273.73 3198.74,-3272.72 3201.59,-3271.8 3204.56,-3270.96 3207.64,-3270.21 3210.83,-3269.55 3214.11,-3268.98 3217.47,-3268.5 3220.89,-3268.12 3224.36,-3267.83 3227.87,-3267.64 3231.4,-3267.54 3234.94,-3267.54 3238.47,-3267.64"/>
<text text-anchor="start" x="3204" y="-3312.57" font-family="Times,serif" font-size="14.00">C0043476</text>
<text text-anchor="start" x="3203.23" y="-3298.57" font-family="Times,serif" font-size="14.00">Zimbabwe</text>
<text text-anchor="start" x="3217.22" y="-3284.57" font-family="Times,serif" font-size="14.00">41:41</text>
</g>
<!-- id_28494421_DOT_2&#45;&#45;id_28494421_DOT_7 -->
<g id="edge3" class="edge">
<title>id_28494421_DOT_2&#45;&#45;id_28494421_DOT_7</title>
<path fill="none" stroke="black" d="M3564.67,-3322.78C3490.3,-3318.29 3361.5,-3310.52 3288.27,-3306.1"/>
<text text-anchor="middle" x="3400.22" y="-3317.24" font-family="Times,serif" font-size="14.00">0.001532</text>
</g>
<!-- id_28494421_DOT_3 -->
<g id="node3" class="node">
<title>id_28494421_DOT_3</title>
<polygon fill="blue" stroke="blue" points="1938.26,-2639.98 1942.11,-2640.17 1945.93,-2640.46 1949.69,-2640.84 1953.38,-2641.32 1956.98,-2641.89 1960.49,-2642.55 1963.88,-2643.3 1967.14,-2644.14 1970.27,-2645.06 1973.24,-2646.07 1976.06,-2647.15 1978.71,-2648.31 1981.18,-2649.55 1983.46,-2650.85 1985.55,-2652.23 1987.45,-2653.66 1989.15,-2655.15 1990.64,-2656.7 1991.93,-2658.3 1993.01,-2659.94 1993.88,-2661.63 1994.55,-2663.35 1995.02,-2665.11 1995.29,-2666.89 1995.36,-2668.69 1995.24,-2670.52 1994.94,-2672.35 1994.45,-2674.19 1993.8,-2676.04 1992.97,-2677.88 1991.99,-2679.72 1990.87,-2681.54 1989.59,-2683.35 1988.19,-2685.13 1986.66,-2686.88 1985.01,-2688.61 1983.26,-2690.29 1981.41,-2691.94 1979.46,-2693.53 1977.44,-2695.08 1975.34,-2696.57 1973.17,-2698.01 1970.94,-2699.38 1968.65,-2700.68 1966.32,-2701.92 1963.95,-2703.08 1961.53,-2704.17 1959.09,-2705.17 1956.62,-2706.09 1954.13,-2706.93 1951.62,-2707.68 1949.09,-2708.34 1946.55,-2708.91 1944,-2709.39 1941.43,-2709.77 1938.87,-2710.06 1936.3,-2710.26 1933.72,-2710.35 1931.15,-2710.35 1928.58,-2710.26 1926.01,-2710.06 1923.44,-2709.77 1920.88,-2709.39 1918.33,-2708.91 1915.78,-2708.34 1913.26,-2707.68 1910.74,-2706.93 1908.25,-2706.09 1905.78,-2705.17 1903.34,-2704.17 1900.93,-2703.08 1898.55,-2701.92 1896.22,-2700.68 1893.94,-2699.38 1891.71,-2698.01 1889.54,-2696.57 1887.44,-2695.08 1885.41,-2693.53 1883.47,-2691.94 1881.61,-2690.29 1879.86,-2688.61 1878.21,-2686.88 1876.68,-2685.13 1875.28,-2683.35 1874.01,-2681.54 1872.88,-2679.72 1871.9,-2677.88 1871.08,-2676.04 1870.42,-2674.19 1869.94,-2672.35 1869.63,-2670.52 1869.51,-2668.69 1869.59,-2666.89 1869.85,-2665.11 1870.32,-2663.35 1870.99,-2661.63 1871.87,-2659.94 1872.95,-2658.3 1874.23,-2656.7 1875.73,-2655.15 1877.42,-2653.66 1879.32,-2652.23 1881.41,-2650.85 1883.7,-2649.55 1886.17,-2648.31 1888.81,-2647.15 1891.63,-2646.07 1894.61,-2645.06 1897.73,-2644.14 1901,-2643.3 1904.39,-2642.55 1907.89,-2641.89 1911.49,-2641.32 1915.18,-2640.84 1918.94,-2640.46 1922.76,-2640.17 1926.61,-2639.98 1930.49,-2639.88 1934.38,-2639.88 1938.26,-2639.98"/>
<text text-anchor="start" x="1903.27" y="-2684.92" font-family="Times,serif" font-size="14.00">C3714536</text>
<text text-anchor="start" x="1898.8" y="-2670.92" font-family="Times,serif" font-size="14.00">long history</text>
<text text-anchor="start" x="1916.49" y="-2656.92" font-family="Times,serif" font-size="14.00">12:13</text>
</g>
<!-- id_28494421_DOT_8 -->
<g id="node8" class="node">
<title>id_28494421_DOT_8</title>
<polygon fill="brown" stroke="brown" points="1685.63,-2285.45 1689.06,-2285.65 1692.45,-2285.93 1695.79,-2286.32 1699.07,-2286.8 1702.28,-2287.37 1705.39,-2288.03 1708.41,-2288.78 1711.31,-2289.62 1714.09,-2290.54 1716.74,-2291.54 1719.24,-2292.63 1721.6,-2293.79 1723.79,-2295.02 1725.83,-2296.33 1727.69,-2297.7 1729.37,-2299.13 1730.88,-2300.63 1732.21,-2302.18 1733.35,-2303.77 1734.32,-2305.42 1735.09,-2307.1 1735.69,-2308.83 1736.11,-2310.58 1736.34,-2312.36 1736.41,-2314.17 1736.3,-2315.99 1736.03,-2317.83 1735.6,-2319.67 1735.02,-2321.51 1734.29,-2323.36 1733.41,-2325.19 1732.41,-2327.02 1731.28,-2328.82 1730.03,-2330.6 1728.67,-2332.36 1727.21,-2334.08 1725.65,-2335.77 1724,-2337.41 1722.27,-2339.01 1720.47,-2340.56 1718.6,-2342.05 1716.67,-2343.48 1714.69,-2344.86 1712.66,-2346.16 1710.58,-2347.39 1708.47,-2348.56 1706.33,-2349.64 1704.15,-2350.65 1701.96,-2351.57 1699.74,-2352.41 1697.51,-2353.16 1695.26,-2353.82 1693,-2354.39 1690.73,-2354.87 1688.45,-2355.25 1686.17,-2355.54 1683.88,-2355.73 1681.6,-2355.83 1679.31,-2355.83 1677.02,-2355.73 1674.73,-2355.54 1672.45,-2355.25 1670.17,-2354.87 1667.9,-2354.39 1665.64,-2353.82 1663.39,-2353.16 1661.16,-2352.41 1658.94,-2351.57 1656.75,-2350.65 1654.57,-2349.64 1652.43,-2348.56 1650.32,-2347.39 1648.25,-2346.16 1646.21,-2344.86 1644.23,-2343.48 1642.3,-2342.05 1640.43,-2340.56 1638.63,-2339.01 1636.9,-2337.41 1635.25,-2335.77 1633.69,-2334.08 1632.23,-2332.36 1630.87,-2330.6 1629.62,-2328.82 1628.49,-2327.02 1627.49,-2325.19 1626.62,-2323.36 1625.88,-2321.51 1625.3,-2319.67 1624.87,-2317.83 1624.6,-2315.99 1624.49,-2314.17 1624.56,-2312.36 1624.8,-2310.58 1625.21,-2308.83 1625.81,-2307.1 1626.59,-2305.42 1627.55,-2303.77 1628.69,-2302.18 1630.02,-2300.63 1631.53,-2299.13 1633.21,-2297.7 1635.08,-2296.33 1637.11,-2295.02 1639.3,-2293.79 1641.66,-2292.63 1644.16,-2291.54 1646.81,-2290.54 1649.59,-2289.62 1652.49,-2288.78 1655.51,-2288.03 1658.62,-2287.37 1661.83,-2286.8 1665.11,-2286.32 1668.45,-2285.93 1671.84,-2285.65 1675.27,-2285.45 1678.72,-2285.36 1682.18,-2285.36 1685.63,-2285.45"/>
<text text-anchor="start" x="1651.28" y="-2330.39" font-family="Times,serif" font-size="14.00">C0870077</text>
<text text-anchor="start" x="1657.9" y="-2316.39" font-family="Times,serif" font-size="14.00">colonial</text>
<text text-anchor="start" x="1664.51" y="-2302.39" font-family="Times,serif" font-size="14.00">46:46</text>
</g>
<!-- id_28494421_DOT_3&#45;&#45;id_28494421_DOT_8 -->
<g id="edge17" class="edge">
<title>id_28494421_DOT_3&#45;&#45;id_28494421_DOT_8</title>
<path fill="none" stroke="black" stroke-dasharray="1,5" d="M1908.5,-2641.44C1859.73,-2572.83 1749.48,-2417.71 1702.42,-2351.5"/>
<text text-anchor="middle" x="1779.21" y="-2499.27" font-family="Times,serif" font-size="14.00">0.779705</text>
</g>
<!-- id_28494421_DOT_26 -->
<g id="node26" class="node">
<title>id_28494421_DOT_26</title>
<polygon fill="darkgreen" stroke="darkgreen" points="2180.76,-2981.18 2184.19,-2981.37 2187.59,-2981.66 2190.93,-2982.04 2194.21,-2982.52 2197.41,-2983.09 2200.53,-2983.75 2203.55,-2984.5 2206.45,-2985.34 2209.23,-2986.26 2211.88,-2987.27 2214.38,-2988.35 2216.73,-2989.51 2218.93,-2990.75 2220.96,-2992.05 2222.82,-2993.43 2224.51,-2994.86 2226.02,-2996.35 2227.35,-2997.9 2228.49,-2999.5 2229.45,-3001.14 2230.23,-3002.83 2230.83,-3004.55 2231.24,-3006.31 2231.48,-3008.09 2231.54,-3009.89 2231.44,-3011.72 2231.17,-3013.55 2230.74,-3015.39 2230.15,-3017.24 2229.42,-3019.08 2228.55,-3020.92 2227.55,-3022.74 2226.41,-3024.55 2225.17,-3026.33 2223.81,-3028.08 2222.34,-3029.81 2220.78,-3031.49 2219.14,-3033.14 2217.41,-3034.73 2215.61,-3036.28 2213.74,-3037.77 2211.81,-3039.21 2209.82,-3040.58 2207.79,-3041.88 2205.72,-3043.12 2203.61,-3044.28 2201.46,-3045.37 2199.29,-3046.37 2197.09,-3047.29 2194.88,-3048.13 2192.64,-3048.88 2190.39,-3049.54 2188.13,-3050.11 2185.87,-3050.59 2183.59,-3050.97 2181.31,-3051.26 2179.02,-3051.46 2176.73,-3051.55 2174.44,-3051.55 2172.15,-3051.46 2169.87,-3051.26 2167.58,-3050.97 2165.31,-3050.59 2163.04,-3050.11 2160.78,-3049.54 2158.53,-3048.88 2156.3,-3048.13 2154.08,-3047.29 2151.88,-3046.37 2149.71,-3045.37 2147.57,-3044.28 2145.46,-3043.12 2143.38,-3041.88 2141.35,-3040.58 2139.37,-3039.21 2137.44,-3037.77 2135.57,-3036.28 2133.77,-3034.73 2132.04,-3033.14 2130.39,-3031.49 2128.83,-3029.81 2127.37,-3028.08 2126.01,-3026.33 2124.76,-3024.55 2123.63,-3022.74 2122.62,-3020.92 2121.75,-3019.08 2121.02,-3017.24 2120.44,-3015.39 2120.01,-3013.55 2119.74,-3011.72 2119.63,-3009.89 2119.69,-3008.09 2119.93,-3006.31 2120.35,-3004.55 2120.94,-3002.83 2121.72,-3001.14 2122.68,-2999.5 2123.83,-2997.9 2125.15,-2996.35 2126.66,-2994.86 2128.35,-2993.43 2130.21,-2992.05 2132.24,-2990.75 2134.44,-2989.51 2136.79,-2988.35 2139.3,-2987.27 2141.94,-2986.26 2144.72,-2985.34 2147.63,-2984.5 2150.64,-2983.75 2153.76,-2983.09 2156.96,-2982.52 2160.24,-2982.04 2163.59,-2981.66 2166.98,-2981.37 2170.41,-2981.18 2173.86,-2981.08 2177.31,-2981.08 2180.76,-2981.18"/>
<text text-anchor="start" x="2146.42" y="-3026.12" font-family="Times,serif" font-size="14.00">C0242456</text>
<text text-anchor="start" x="2158.09" y="-3012.12" font-family="Times,serif" font-size="14.00">policy</text>
<text text-anchor="start" x="2152.64" y="-2998.12" font-family="Times,serif" font-size="14.00">272:272</text>
</g>
<!-- id_28494421_DOT_3&#45;&#45;id_28494421_DOT_26 -->
<g id="edge18" class="edge">
<title>id_28494421_DOT_3&#45;&#45;id_28494421_DOT_26</title>
<path fill="none" stroke="black" stroke-dasharray="1,5" d="M1955.09,-2706.91C2001.13,-2771.51 2105.21,-2917.55 2152.01,-2983.23"/>
<text text-anchor="middle" x="2027.3" y="-2847.87" font-family="Times,serif" font-size="14.00">0.761254</text>
</g>
<!-- id_28494421_DOT_4 -->
<g id="node4" class="node">
<title>id_28494421_DOT_4</title>
<polygon fill="blueviolet" stroke="blueviolet" points="1744.09,-736.81 1747.52,-737 1750.91,-737.29 1754.25,-737.67 1757.53,-738.15 1760.74,-738.72 1763.85,-739.38 1766.87,-740.13 1769.77,-740.97 1772.55,-741.89 1775.2,-742.9 1777.7,-743.98 1780.06,-745.15 1782.25,-746.38 1784.29,-747.69 1786.15,-749.06 1787.83,-750.49 1789.34,-751.98 1790.67,-753.53 1791.81,-755.13 1792.78,-756.77 1793.55,-758.46 1794.15,-760.18 1794.56,-761.94 1794.8,-763.72 1794.87,-765.52 1794.76,-767.35 1794.49,-769.18 1794.06,-771.03 1793.48,-772.87 1792.75,-774.71 1791.87,-776.55 1790.87,-778.37 1789.74,-780.18 1788.49,-781.96 1787.13,-783.71 1785.67,-785.44 1784.11,-787.12 1782.46,-788.77 1780.73,-790.36 1778.93,-791.91 1777.06,-793.41 1775.13,-794.84 1773.15,-796.21 1771.12,-797.52 1769.04,-798.75 1766.93,-799.91 1764.79,-801 1762.61,-802 1760.42,-802.92 1758.2,-803.76 1755.97,-804.51 1753.72,-805.17 1751.46,-805.74 1749.19,-806.22 1746.91,-806.61 1744.63,-806.89 1742.34,-807.09 1740.05,-807.18 1737.77,-807.18 1735.48,-807.09 1733.19,-806.89 1730.91,-806.61 1728.63,-806.22 1726.36,-805.74 1724.1,-805.17 1721.85,-804.51 1719.62,-803.76 1717.4,-802.92 1715.21,-802 1713.03,-801 1710.89,-799.91 1708.78,-798.75 1706.7,-797.52 1704.67,-796.21 1702.69,-794.84 1700.76,-793.41 1698.89,-791.91 1697.09,-790.36 1695.36,-788.77 1693.71,-787.12 1692.15,-785.44 1690.69,-783.71 1689.33,-781.96 1688.08,-780.18 1686.95,-778.37 1685.95,-776.55 1685.07,-774.71 1684.34,-772.87 1683.76,-771.03 1683.33,-769.18 1683.06,-767.35 1682.95,-765.52 1683.02,-763.72 1683.26,-761.94 1683.67,-760.18 1684.27,-758.46 1685.05,-756.77 1686.01,-755.13 1687.15,-753.53 1688.48,-751.98 1689.99,-750.49 1691.67,-749.06 1693.53,-747.69 1695.57,-746.38 1697.76,-745.15 1700.12,-743.98 1702.62,-742.9 1705.27,-741.89 1708.05,-740.97 1710.95,-740.13 1713.97,-739.38 1717.08,-738.72 1720.29,-738.15 1723.57,-737.67 1726.91,-737.29 1730.3,-737 1733.73,-736.81 1737.18,-736.71 1740.64,-736.71 1744.09,-736.81"/>
<text text-anchor="start" x="1709.74" y="-781.75" font-family="Times,serif" font-size="14.00">C0205276</text>
<text text-anchor="start" x="1725.31" y="-767.75" font-family="Times,serif" font-size="14.00">local</text>
<text text-anchor="start" x="1722.97" y="-753.75" font-family="Times,serif" font-size="14.00">15:15</text>
</g>
<!-- id_28494421_DOT_5 -->
<g id="node5" class="node">
<title>id_28494421_DOT_5</title>
<polygon fill="blueviolet" stroke="blueviolet" points="1828.63,-1117.77 1832.06,-1117.97 1835.45,-1118.26 1838.79,-1118.64 1842.07,-1119.12 1845.28,-1119.69 1848.39,-1120.35 1851.41,-1121.1 1854.31,-1121.94 1857.09,-1122.86 1859.74,-1123.87 1862.24,-1124.95 1864.6,-1126.11 1866.79,-1127.35 1868.82,-1128.65 1870.69,-1130.02 1872.37,-1131.46 1873.88,-1132.95 1875.21,-1134.5 1876.35,-1136.09 1877.31,-1137.74 1878.09,-1139.42 1878.69,-1141.15 1879.1,-1142.9 1879.34,-1144.69 1879.41,-1146.49 1879.3,-1148.31 1879.03,-1150.15 1878.6,-1151.99 1878.02,-1153.84 1877.28,-1155.68 1876.41,-1157.51 1875.41,-1159.34 1874.28,-1161.14 1873.03,-1162.92 1871.67,-1164.68 1870.21,-1166.4 1868.65,-1168.09 1867,-1169.73 1865.27,-1171.33 1863.47,-1172.88 1861.6,-1174.37 1859.67,-1175.8 1857.69,-1177.18 1855.65,-1178.48 1853.58,-1179.72 1851.47,-1180.88 1849.33,-1181.96 1847.15,-1182.97 1844.96,-1183.89 1842.74,-1184.73 1840.51,-1185.48 1838.26,-1186.14 1836,-1186.71 1833.73,-1187.19 1831.45,-1187.57 1829.17,-1187.86 1826.88,-1188.05 1824.59,-1188.15 1822.3,-1188.15 1820.02,-1188.05 1817.73,-1187.86 1815.45,-1187.57 1813.17,-1187.19 1810.9,-1186.71 1808.64,-1186.14 1806.39,-1185.48 1804.16,-1184.73 1801.94,-1183.89 1799.75,-1182.97 1797.57,-1181.96 1795.43,-1180.88 1793.32,-1179.72 1791.24,-1178.48 1789.21,-1177.18 1787.23,-1175.8 1785.3,-1174.37 1783.43,-1172.88 1781.63,-1171.33 1779.9,-1169.73 1778.25,-1168.09 1776.69,-1166.4 1775.23,-1164.68 1773.87,-1162.92 1772.62,-1161.14 1771.49,-1159.34 1770.49,-1157.51 1769.61,-1155.68 1768.88,-1153.84 1768.3,-1151.99 1767.87,-1150.15 1767.6,-1148.31 1767.49,-1146.49 1767.56,-1144.69 1767.79,-1142.9 1768.21,-1141.15 1768.81,-1139.42 1769.58,-1137.74 1770.55,-1136.09 1771.69,-1134.5 1773.02,-1132.95 1774.53,-1131.46 1776.21,-1130.02 1778.07,-1128.65 1780.11,-1127.35 1782.3,-1126.11 1784.66,-1124.95 1787.16,-1123.87 1789.81,-1122.86 1792.59,-1121.94 1795.49,-1121.1 1798.51,-1120.35 1801.62,-1119.69 1804.83,-1119.12 1808.11,-1118.64 1811.45,-1118.26 1814.84,-1117.97 1818.27,-1117.77 1821.72,-1117.68 1825.18,-1117.68 1828.63,-1117.77"/>
<text text-anchor="start" x="1794.28" y="-1162.71" font-family="Times,serif" font-size="14.00">C0205276</text>
<text text-anchor="start" x="1809.85" y="-1148.71" font-family="Times,serif" font-size="14.00">local</text>
<text text-anchor="start" x="1807.5" y="-1134.71" font-family="Times,serif" font-size="14.00">31:31</text>
</g>
<!-- id_28494421_DOT_4&#45;&#45;id_28494421_DOT_5 -->
<g id="edge4" class="edge">
<title>id_28494421_DOT_4&#45;&#45;id_28494421_DOT_5</title>
<path fill="none" stroke="black" d="M1746.64,-806.77C1762.7,-879.14 1799.53,-1045.11 1815.65,-1117.76"/>
<text text-anchor="middle" x="1754.89" y="-965.06" font-family="Times,serif" font-size="14.00">0.000641</text>
</g>
<!-- id_28494421_DOT_22 -->
<g id="node22" class="node">
<title>id_28494421_DOT_22</title>
<polygon fill="blueviolet" stroke="blueviolet" points="1695.84,-362.52 1699.27,-362.71 1702.66,-363 1706.01,-363.38 1709.29,-363.86 1712.49,-364.43 1715.61,-365.09 1718.62,-365.84 1721.53,-366.68 1724.31,-367.6 1726.95,-368.61 1729.46,-369.69 1731.81,-370.86 1734.01,-372.09 1736.04,-373.4 1737.9,-374.77 1739.59,-376.2 1741.1,-377.69 1742.42,-379.24 1743.57,-380.84 1744.53,-382.48 1745.31,-384.17 1745.9,-385.89 1746.32,-387.65 1746.56,-389.43 1746.62,-391.23 1746.52,-393.06 1746.25,-394.89 1745.82,-396.74 1745.23,-398.58 1744.5,-400.42 1743.63,-402.26 1742.62,-404.08 1741.49,-405.89 1740.25,-407.67 1738.88,-409.42 1737.42,-411.15 1735.86,-412.83 1734.21,-414.48 1732.49,-416.07 1730.68,-417.62 1728.82,-419.12 1726.89,-420.55 1724.9,-421.92 1722.87,-423.23 1720.8,-424.46 1718.69,-425.62 1716.54,-426.71 1714.37,-427.71 1712.17,-428.63 1709.96,-429.47 1707.72,-430.22 1705.47,-430.88 1703.21,-431.45 1700.94,-431.93 1698.67,-432.32 1696.39,-432.6 1694.1,-432.8 1691.81,-432.89 1689.52,-432.89 1687.23,-432.8 1684.95,-432.6 1682.66,-432.32 1680.39,-431.93 1678.12,-431.45 1675.86,-430.88 1673.61,-430.22 1671.37,-429.47 1669.16,-428.63 1666.96,-427.71 1664.79,-426.71 1662.65,-425.62 1660.53,-424.46 1658.46,-423.23 1656.43,-421.92 1654.45,-420.55 1652.52,-419.12 1650.65,-417.62 1648.84,-416.07 1647.12,-414.48 1645.47,-412.83 1643.91,-411.15 1642.45,-409.42 1641.09,-407.67 1639.84,-405.89 1638.71,-404.08 1637.7,-402.26 1636.83,-400.42 1636.1,-398.58 1635.52,-396.74 1635.09,-394.89 1634.81,-393.06 1634.71,-391.23 1634.77,-389.43 1635.01,-387.65 1635.43,-385.89 1636.02,-384.17 1636.8,-382.48 1637.76,-380.84 1638.91,-379.24 1640.23,-377.69 1641.74,-376.2 1643.43,-374.77 1645.29,-373.4 1647.32,-372.09 1649.52,-370.86 1651.87,-369.69 1654.38,-368.61 1657.02,-367.6 1659.8,-366.68 1662.71,-365.84 1665.72,-365.09 1668.84,-364.43 1672.04,-363.86 1675.32,-363.38 1678.67,-363 1682.06,-362.71 1685.49,-362.52 1688.94,-362.42 1692.39,-362.42 1695.84,-362.52"/>
<text text-anchor="start" x="1661.5" y="-407.46" font-family="Times,serif" font-size="14.00">C0205276</text>
<text text-anchor="start" x="1677.06" y="-393.46" font-family="Times,serif" font-size="14.00">local</text>
<text text-anchor="start" x="1667.72" y="-379.46" font-family="Times,serif" font-size="14.00">245:245</text>
</g>
<!-- id_28494421_DOT_4&#45;&#45;id_28494421_DOT_22 -->
<g id="edge5" class="edge">
<title>id_28494421_DOT_4&#45;&#45;id_28494421_DOT_22</title>
<path fill="none" stroke="black" d="M1734.37,-736.74C1725.16,-665.31 1704.39,-504.13 1695.19,-432.78"/>
<text text-anchor="middle" x="1688.53" y="-587.56" font-family="Times,serif" font-size="14.00">0.017373</text>
</g>
<!-- id_28494421_DOT_11 -->
<g id="node11" class="node">
<title>id_28494421_DOT_11</title>
<polygon fill="blueviolet" stroke="blueviolet" points="2009.06,-1489.4 2012.49,-1489.59 2015.89,-1489.88 2019.23,-1490.26 2022.51,-1490.74 2025.71,-1491.31 2028.83,-1491.97 2031.85,-1492.72 2034.75,-1493.56 2037.53,-1494.48 2040.18,-1495.49 2042.68,-1496.57 2045.03,-1497.74 2047.23,-1498.97 2049.26,-1500.27 2051.12,-1501.65 2052.81,-1503.08 2054.32,-1504.57 2055.65,-1506.12 2056.79,-1507.72 2057.75,-1509.36 2058.53,-1511.05 2059.13,-1512.77 2059.54,-1514.53 2059.78,-1516.31 2059.84,-1518.11 2059.74,-1519.94 2059.47,-1521.77 2059.04,-1523.61 2058.45,-1525.46 2057.72,-1527.3 2056.85,-1529.14 2055.85,-1530.96 2054.71,-1532.77 2053.47,-1534.55 2052.11,-1536.3 2050.64,-1538.03 2049.08,-1539.71 2047.44,-1541.36 2045.71,-1542.95 2043.91,-1544.5 2042.04,-1545.99 2040.11,-1547.43 2038.12,-1548.8 2036.09,-1550.11 2034.02,-1551.34 2031.91,-1552.5 2029.76,-1553.59 2027.59,-1554.59 2025.39,-1555.51 2023.18,-1556.35 2020.94,-1557.1 2018.69,-1557.76 2016.43,-1558.33 2014.17,-1558.81 2011.89,-1559.19 2009.61,-1559.48 2007.32,-1559.68 2005.03,-1559.77 2002.74,-1559.77 2000.45,-1559.68 1998.17,-1559.48 1995.88,-1559.19 1993.61,-1558.81 1991.34,-1558.33 1989.08,-1557.76 1986.83,-1557.1 1984.6,-1556.35 1982.38,-1555.51 1980.18,-1554.59 1978.01,-1553.59 1975.87,-1552.5 1973.75,-1551.34 1971.68,-1550.11 1969.65,-1548.8 1967.67,-1547.43 1965.74,-1545.99 1963.87,-1544.5 1962.07,-1542.95 1960.34,-1541.36 1958.69,-1539.71 1957.13,-1538.03 1955.67,-1536.3 1954.31,-1534.55 1953.06,-1532.77 1951.93,-1530.96 1950.92,-1529.14 1950.05,-1527.3 1949.32,-1525.46 1948.74,-1523.61 1948.31,-1521.77 1948.04,-1519.94 1947.93,-1518.11 1947.99,-1516.31 1948.23,-1514.53 1948.65,-1512.77 1949.24,-1511.05 1950.02,-1509.36 1950.98,-1507.72 1952.13,-1506.12 1953.45,-1504.57 1954.96,-1503.08 1956.65,-1501.65 1958.51,-1500.27 1960.54,-1498.97 1962.74,-1497.74 1965.09,-1496.57 1967.6,-1495.49 1970.24,-1494.48 1973.02,-1493.56 1975.93,-1492.72 1978.94,-1491.97 1982.06,-1491.31 1985.26,-1490.74 1988.54,-1490.26 1991.89,-1489.88 1995.28,-1489.59 1998.71,-1489.4 2002.16,-1489.3 2005.61,-1489.3 2009.06,-1489.4"/>
<text text-anchor="start" x="1974.72" y="-1534.34" font-family="Times,serif" font-size="14.00">C0205276</text>
<text text-anchor="start" x="1990.28" y="-1520.34" font-family="Times,serif" font-size="14.00">local</text>
<text text-anchor="start" x="1987.94" y="-1506.34" font-family="Times,serif" font-size="14.00">89:89</text>
</g>
<!-- id_28494421_DOT_5&#45;&#45;id_28494421_DOT_11 -->
<g id="edge6" class="edge">
<title>id_28494421_DOT_5&#45;&#45;id_28494421_DOT_11</title>
<path fill="none" stroke="black" d="M1839.46,-1185.89C1873.49,-1255.97 1952.69,-1419.1 1987.26,-1490.29"/>
<text text-anchor="middle" x="1887.11" y="-1340.89" font-family="Times,serif" font-size="14.00">0.003775</text>
</g>
<!-- id_28494421_DOT_13 -->
<g id="node13" class="node">
<title>id_28494421_DOT_13</title>
<polygon fill="bisque" stroke="bisque" points="2830.24,-3278.9 2833.74,-3279.1 2837.22,-3279.39 2840.64,-3279.77 2844,-3280.25 2847.27,-3280.82 2850.46,-3281.48 2853.55,-3282.23 2856.52,-3283.07 2859.36,-3283.99 2862.07,-3285 2864.64,-3286.08 2867.05,-3287.24 2869.29,-3288.48 2871.37,-3289.78 2873.28,-3291.15 2875,-3292.59 2876.55,-3294.08 2877.9,-3295.63 2879.08,-3297.23 2880.06,-3298.87 2880.86,-3300.56 2881.47,-3302.28 2881.89,-3304.03 2882.13,-3305.82 2882.2,-3307.62 2882.09,-3309.44 2881.81,-3311.28 2881.37,-3313.12 2880.78,-3314.97 2880.03,-3316.81 2879.14,-3318.64 2878.11,-3320.47 2876.95,-3322.27 2875.67,-3324.05 2874.28,-3325.81 2872.78,-3327.53 2871.19,-3329.22 2869.5,-3330.86 2867.73,-3332.46 2865.89,-3334.01 2863.98,-3335.5 2862,-3336.94 2859.97,-3338.31 2857.89,-3339.61 2855.77,-3340.85 2853.61,-3342.01 2851.42,-3343.09 2849.19,-3344.1 2846.95,-3345.02 2844.68,-3345.86 2842.39,-3346.61 2840.09,-3347.27 2837.78,-3347.84 2835.46,-3348.32 2833.13,-3348.7 2830.79,-3348.99 2828.45,-3349.18 2826.11,-3349.28 2823.77,-3349.28 2821.42,-3349.18 2819.08,-3348.99 2816.75,-3348.7 2814.42,-3348.32 2812.1,-3347.84 2809.78,-3347.27 2807.48,-3346.61 2805.2,-3345.86 2802.93,-3345.02 2800.68,-3344.1 2798.46,-3343.09 2796.26,-3342.01 2794.1,-3340.85 2791.98,-3339.61 2789.9,-3338.31 2787.87,-3336.94 2785.9,-3335.5 2783.98,-3334.01 2782.14,-3332.46 2780.37,-3330.86 2778.68,-3329.22 2777.09,-3327.53 2775.59,-3325.81 2774.2,-3324.05 2772.92,-3322.27 2771.76,-3320.47 2770.74,-3318.64 2769.84,-3316.81 2769.1,-3314.97 2768.5,-3313.12 2768.06,-3311.28 2767.78,-3309.44 2767.67,-3307.62 2767.74,-3305.82 2767.98,-3304.03 2768.41,-3302.28 2769.02,-3300.56 2769.81,-3298.87 2770.8,-3297.23 2771.97,-3295.63 2773.33,-3294.08 2774.87,-3292.59 2776.6,-3291.15 2778.5,-3289.78 2780.58,-3288.48 2782.83,-3287.24 2785.24,-3286.08 2787.8,-3285 2790.51,-3283.99 2793.35,-3283.07 2796.33,-3282.23 2799.41,-3281.48 2802.6,-3280.82 2805.88,-3280.25 2809.24,-3279.77 2812.66,-3279.39 2816.13,-3279.1 2819.64,-3278.9 2823.17,-3278.81 2826.71,-3278.81 2830.24,-3278.9"/>
<text text-anchor="start" x="2795.77" y="-3323.84" font-family="Times,serif" font-size="14.00">C0043476</text>
<text text-anchor="start" x="2795" y="-3309.84" font-family="Times,serif" font-size="14.00">Zimbabwe</text>
<text text-anchor="start" x="2801.99" y="-3295.84" font-family="Times,serif" font-size="14.00">107:107</text>
</g>
<!-- id_28494421_DOT_7&#45;&#45;id_28494421_DOT_13 -->
<g id="edge7" class="edge">
<title>id_28494421_DOT_7&#45;&#45;id_28494421_DOT_13</title>
<path fill="none" stroke="black" d="M3177.26,-3304.32C3099.63,-3306.46 2959.95,-3310.32 2881.81,-3312.47"/>
<text text-anchor="middle" x="3003.28" y="-3311.2" font-family="Times,serif" font-size="14.00">0.015162</text>
</g>
<!-- id_28494421_DOT_9 -->
<g id="node9" class="node">
<title>id_28494421_DOT_9</title>
<polygon fill="brown" stroke="brown" points="1858.4,-1886.27 1862.9,-1886.47 1867.35,-1886.76 1871.74,-1887.14 1876.05,-1887.62 1880.26,-1888.19 1884.35,-1888.85 1888.31,-1889.6 1892.12,-1890.44 1895.77,-1891.36 1899.25,-1892.36 1902.54,-1893.45 1905.63,-1894.61 1908.51,-1895.84 1911.18,-1897.15 1913.62,-1898.52 1915.84,-1899.95 1917.82,-1901.45 1919.56,-1903 1921.06,-1904.59 1922.33,-1906.24 1923.35,-1907.92 1924.13,-1909.65 1924.68,-1911.4 1924.99,-1913.18 1925.07,-1914.99 1924.93,-1916.81 1924.58,-1918.65 1924.01,-1920.49 1923.25,-1922.33 1922.29,-1924.18 1921.14,-1926.01 1919.82,-1927.84 1918.34,-1929.64 1916.7,-1931.42 1914.91,-1933.18 1912.99,-1934.9 1910.94,-1936.59 1908.78,-1938.23 1906.51,-1939.83 1904.15,-1941.38 1901.69,-1942.87 1899.16,-1944.3 1896.55,-1945.68 1893.89,-1946.98 1891.16,-1948.21 1888.39,-1949.38 1885.57,-1950.46 1882.72,-1951.47 1879.84,-1952.39 1876.93,-1953.23 1873.99,-1953.98 1871.04,-1954.64 1868.07,-1955.21 1865.09,-1955.69 1862.1,-1956.07 1859.11,-1956.36 1856.1,-1956.55 1853.1,-1956.65 1850.09,-1956.65 1847.09,-1956.55 1844.09,-1956.36 1841.09,-1956.07 1838.1,-1955.69 1835.12,-1955.21 1832.15,-1954.64 1829.2,-1953.98 1826.26,-1953.23 1823.35,-1952.39 1820.47,-1951.47 1817.62,-1950.46 1814.8,-1949.38 1812.03,-1948.21 1809.31,-1946.98 1806.64,-1945.68 1804.03,-1944.3 1801.5,-1942.87 1799.05,-1941.38 1796.68,-1939.83 1794.41,-1938.23 1792.25,-1936.59 1790.2,-1934.9 1788.28,-1933.18 1786.49,-1931.42 1784.85,-1929.64 1783.37,-1927.84 1782.05,-1926.01 1780.9,-1924.18 1779.94,-1922.33 1779.18,-1920.49 1778.61,-1918.65 1778.26,-1916.81 1778.12,-1914.99 1778.2,-1913.18 1778.52,-1911.4 1779.06,-1909.65 1779.84,-1907.92 1780.86,-1906.24 1782.13,-1904.59 1783.63,-1903 1785.37,-1901.45 1787.35,-1899.95 1789.57,-1898.52 1792.01,-1897.15 1794.68,-1895.84 1797.56,-1894.61 1800.66,-1893.45 1803.94,-1892.36 1807.42,-1891.36 1811.07,-1890.44 1814.88,-1889.6 1818.84,-1888.85 1822.93,-1888.19 1827.14,-1887.62 1831.45,-1887.14 1835.84,-1886.76 1840.29,-1886.47 1844.8,-1886.27 1849.33,-1886.18 1853.87,-1886.18 1858.4,-1886.27"/>
<text text-anchor="start" x="1822.43" y="-1931.21" font-family="Times,serif" font-size="14.00">C0870077</text>
<text text-anchor="start" x="1810.97" y="-1917.21" font-family="Times,serif" font-size="14.00">colonial forms</text>
<text text-anchor="start" x="1835.65" y="-1903.21" font-family="Times,serif" font-size="14.00">50:51</text>
</g>
<!-- id_28494421_DOT_8&#45;&#45;id_28494421_DOT_9 -->
<g id="edge8" class="edge">
<title>id_28494421_DOT_8&#45;&#45;id_28494421_DOT_9</title>
<path fill="none" stroke="black" d="M1695.19,-2286.21C1727.58,-2210.66 1804.65,-2030.91 1836.95,-1955.57"/>
<text text-anchor="middle" x="1740.08" y="-2123.69" font-family="Times,serif" font-size="14.00">0.060118</text>
</g>
<!-- id_28494421_DOT_20 -->
<g id="node20" class="node">
<title>id_28494421_DOT_20</title>
<polygon fill="aquamarine" stroke="aquamarine" points="1245.86,-2305.32 1249.29,-2305.52 1252.68,-2305.81 1256.03,-2306.19 1259.31,-2306.67 1262.51,-2307.24 1265.63,-2307.9 1268.64,-2308.65 1271.55,-2309.49 1274.33,-2310.41 1276.97,-2311.41 1279.48,-2312.5 1281.83,-2313.66 1284.03,-2314.9 1286.06,-2316.2 1287.92,-2317.57 1289.61,-2319.01 1291.12,-2320.5 1292.44,-2322.05 1293.59,-2323.64 1294.55,-2325.29 1295.33,-2326.97 1295.92,-2328.7 1296.34,-2330.45 1296.58,-2332.23 1296.64,-2334.04 1296.54,-2335.86 1296.26,-2337.7 1295.83,-2339.54 1295.25,-2341.39 1294.52,-2343.23 1293.65,-2345.06 1292.64,-2346.89 1291.51,-2348.69 1290.26,-2350.47 1288.9,-2352.23 1287.44,-2353.95 1285.88,-2355.64 1284.23,-2357.28 1282.51,-2358.88 1280.7,-2360.43 1278.83,-2361.92 1276.9,-2363.35 1274.92,-2364.73 1272.89,-2366.03 1270.82,-2367.27 1268.7,-2368.43 1266.56,-2369.51 1264.39,-2370.52 1262.19,-2371.44 1259.98,-2372.28 1257.74,-2373.03 1255.49,-2373.69 1253.23,-2374.26 1250.96,-2374.74 1248.69,-2375.12 1246.4,-2375.41 1244.12,-2375.6 1241.83,-2375.7 1239.54,-2375.7 1237.25,-2375.6 1234.96,-2375.41 1232.68,-2375.12 1230.41,-2374.74 1228.14,-2374.26 1225.88,-2373.69 1223.63,-2373.03 1221.39,-2372.28 1219.18,-2371.44 1216.98,-2370.52 1214.81,-2369.51 1212.66,-2368.43 1210.55,-2367.27 1208.48,-2366.03 1206.45,-2364.73 1204.46,-2363.35 1202.53,-2361.92 1200.67,-2360.43 1198.86,-2358.88 1197.13,-2357.28 1195.49,-2355.64 1193.93,-2353.95 1192.46,-2352.23 1191.1,-2350.47 1189.86,-2348.69 1188.73,-2346.89 1187.72,-2345.06 1186.85,-2343.23 1186.12,-2341.39 1185.53,-2339.54 1185.1,-2337.7 1184.83,-2335.86 1184.73,-2334.04 1184.79,-2332.23 1185.03,-2330.45 1185.45,-2328.7 1186.04,-2326.97 1186.82,-2325.29 1187.78,-2323.64 1188.93,-2322.05 1190.25,-2320.5 1191.76,-2319.01 1193.45,-2317.57 1195.31,-2316.2 1197.34,-2314.9 1199.54,-2313.66 1201.89,-2312.5 1204.4,-2311.41 1207.04,-2310.41 1209.82,-2309.49 1212.73,-2308.65 1215.74,-2307.9 1218.86,-2307.24 1222.06,-2306.67 1225.34,-2306.19 1228.69,-2305.81 1232.08,-2305.52 1235.51,-2305.32 1238.96,-2305.23 1242.41,-2305.23 1245.86,-2305.32"/>
<text text-anchor="start" x="1211.52" y="-2350.26" font-family="Times,serif" font-size="14.00">C0017446</text>
<text text-anchor="start" x="1228.49" y="-2336.26" font-family="Times,serif" font-size="14.00">FPA</text>
<text text-anchor="start" x="1217.74" y="-2322.26" font-family="Times,serif" font-size="14.00">216:216</text>
</g>
<!-- id_28494421_DOT_8&#45;&#45;id_28494421_DOT_20 -->
<g id="edge19" class="edge">
<title>id_28494421_DOT_8&#45;&#45;id_28494421_DOT_20</title>
<path fill="none" stroke="black" stroke-dasharray="1,5" d="M1626.09,-2323.05C1541.98,-2326.85 1381.18,-2334.11 1296.31,-2337.95"/>
<text text-anchor="middle" x="1434.95" y="-2333.3" font-family="Times,serif" font-size="14.00">0.884760</text>
</g>
<!-- id_28494421_DOT_9&#45;&#45;id_28494421_DOT_11 -->
<g id="edge20" class="edge">
<title>id_28494421_DOT_9&#45;&#45;id_28494421_DOT_11</title>
<path fill="none" stroke="black" stroke-dasharray="1,5" d="M1864.98,-1886.54C1893.97,-1810.97 1962.29,-1632.94 1990.91,-1558.34"/>
<text text-anchor="middle" x="1901.7" y="-1725.24" font-family="Times,serif" font-size="14.00">0.849137</text>
</g>
<!-- id_28494421_DOT_10 -->
<g id="node10" class="node">
<title>id_28494421_DOT_10</title>
<polygon fill="cadetblue" stroke="cadetblue" points="2739.97,-1145.53 2743.4,-1145.72 2746.79,-1146.01 2750.14,-1146.39 2753.42,-1146.87 2756.62,-1147.44 2759.74,-1148.1 2762.75,-1148.85 2765.66,-1149.69 2768.44,-1150.61 2771.08,-1151.62 2773.59,-1152.7 2775.94,-1153.87 2778.14,-1155.1 2780.17,-1156.41 2782.03,-1157.78 2783.72,-1159.21 2785.23,-1160.7 2786.55,-1162.25 2787.7,-1163.85 2788.66,-1165.49 2789.44,-1167.18 2790.03,-1168.9 2790.45,-1170.66 2790.69,-1172.44 2790.75,-1174.24 2790.65,-1176.07 2790.38,-1177.9 2789.94,-1179.75 2789.36,-1181.59 2788.63,-1183.43 2787.76,-1185.27 2786.75,-1187.09 2785.62,-1188.9 2784.37,-1190.68 2783.01,-1192.43 2781.55,-1194.16 2779.99,-1195.84 2778.34,-1197.49 2776.62,-1199.08 2774.81,-1200.63 2772.94,-1202.13 2771.02,-1203.56 2769.03,-1204.93 2767,-1206.24 2764.93,-1207.47 2762.81,-1208.63 2760.67,-1209.72 2758.5,-1210.72 2756.3,-1211.64 2754.09,-1212.48 2751.85,-1213.23 2749.6,-1213.89 2747.34,-1214.46 2745.07,-1214.94 2742.8,-1215.33 2740.51,-1215.61 2738.23,-1215.81 2735.94,-1215.9 2733.65,-1215.9 2731.36,-1215.81 2729.08,-1215.61 2726.79,-1215.33 2724.52,-1214.94 2722.25,-1214.46 2719.99,-1213.89 2717.74,-1213.23 2715.5,-1212.48 2713.29,-1211.64 2711.09,-1210.72 2708.92,-1209.72 2706.78,-1208.63 2704.66,-1207.47 2702.59,-1206.24 2700.56,-1204.93 2698.57,-1203.56 2696.65,-1202.13 2694.78,-1200.63 2692.97,-1199.08 2691.25,-1197.49 2689.6,-1195.84 2688.04,-1194.16 2686.58,-1192.43 2685.22,-1190.68 2683.97,-1188.9 2682.84,-1187.09 2681.83,-1185.27 2680.96,-1183.43 2680.23,-1181.59 2679.65,-1179.75 2679.22,-1177.9 2678.94,-1176.07 2678.84,-1174.24 2678.9,-1172.44 2679.14,-1170.66 2679.56,-1168.9 2680.15,-1167.18 2680.93,-1165.49 2681.89,-1163.85 2683.04,-1162.25 2684.36,-1160.7 2685.87,-1159.21 2687.56,-1157.78 2689.42,-1156.41 2691.45,-1155.1 2693.65,-1153.87 2696,-1152.7 2698.51,-1151.62 2701.15,-1150.61 2703.93,-1149.69 2706.84,-1148.85 2709.85,-1148.1 2712.97,-1147.44 2716.17,-1146.87 2719.45,-1146.39 2722.8,-1146.01 2726.19,-1145.72 2729.62,-1145.53 2733.07,-1145.43 2736.52,-1145.43 2739.97,-1145.53"/>
<text text-anchor="start" x="2705.63" y="-1190.47" font-family="Times,serif" font-size="14.00">C0332128</text>
<text text-anchor="start" x="2707.58" y="-1176.47" font-family="Times,serif" font-size="14.00">examined</text>
<text text-anchor="start" x="2718.85" y="-1162.47" font-family="Times,serif" font-size="14.00">68:68</text>
</g>
<!-- id_28494421_DOT_16 -->
<g id="node16" class="node">
<title>id_28494421_DOT_16</title>
<polygon fill="blueviolet" stroke="blueviolet" points="2403.1,-1353.01 2406.53,-1353.21 2409.92,-1353.5 2413.26,-1353.88 2416.55,-1354.36 2419.75,-1354.93 2422.87,-1355.59 2425.88,-1356.34 2428.78,-1357.18 2431.56,-1358.1 2434.21,-1359.1 2436.72,-1360.19 2439.07,-1361.35 2441.27,-1362.59 2443.3,-1363.89 2445.16,-1365.26 2446.85,-1366.7 2448.35,-1368.19 2449.68,-1369.74 2450.83,-1371.33 2451.79,-1372.98 2452.57,-1374.66 2453.16,-1376.39 2453.58,-1378.14 2453.81,-1379.92 2453.88,-1381.73 2453.77,-1383.55 2453.5,-1385.39 2453.07,-1387.23 2452.49,-1389.08 2451.76,-1390.92 2450.89,-1392.75 2449.88,-1394.58 2448.75,-1396.38 2447.5,-1398.16 2446.14,-1399.92 2444.68,-1401.64 2443.12,-1403.33 2441.47,-1404.97 2439.74,-1406.57 2437.94,-1408.12 2436.07,-1409.61 2434.14,-1411.04 2432.16,-1412.42 2430.13,-1413.72 2428.05,-1414.96 2425.94,-1416.12 2423.8,-1417.2 2421.63,-1418.21 2419.43,-1419.13 2417.21,-1419.97 2414.98,-1420.72 2412.73,-1421.38 2410.47,-1421.95 2408.2,-1422.43 2405.92,-1422.81 2403.64,-1423.1 2401.36,-1423.29 2399.07,-1423.39 2396.78,-1423.39 2394.49,-1423.29 2392.2,-1423.1 2389.92,-1422.81 2387.64,-1422.43 2385.37,-1421.95 2383.11,-1421.38 2380.87,-1420.72 2378.63,-1419.97 2376.41,-1419.13 2374.22,-1418.21 2372.05,-1417.2 2369.9,-1416.12 2367.79,-1414.96 2365.72,-1413.72 2363.69,-1412.42 2361.7,-1411.04 2359.77,-1409.61 2357.9,-1408.12 2356.1,-1406.57 2354.37,-1404.97 2352.73,-1403.33 2351.17,-1401.64 2349.7,-1399.92 2348.34,-1398.16 2347.09,-1396.38 2345.96,-1394.58 2344.96,-1392.75 2344.09,-1390.92 2343.36,-1389.08 2342.77,-1387.23 2342.34,-1385.39 2342.07,-1383.55 2341.97,-1381.73 2342.03,-1379.92 2342.27,-1378.14 2342.68,-1376.39 2343.28,-1374.66 2344.06,-1372.98 2345.02,-1371.33 2346.16,-1369.74 2347.49,-1368.19 2349,-1366.7 2350.69,-1365.26 2352.55,-1363.89 2354.58,-1362.59 2356.77,-1361.35 2359.13,-1360.19 2361.63,-1359.1 2364.28,-1358.1 2367.06,-1357.18 2369.96,-1356.34 2372.98,-1355.59 2376.09,-1354.93 2379.3,-1354.36 2382.58,-1353.88 2385.92,-1353.5 2389.32,-1353.21 2392.74,-1353.01 2396.19,-1352.92 2399.65,-1352.92 2403.1,-1353.01"/>
<text text-anchor="start" x="2368.75" y="-1397.95" font-family="Times,serif" font-size="14.00">C0205276</text>
<text text-anchor="start" x="2381.99" y="-1383.95" font-family="Times,serif" font-size="14.00">Local</text>
<text text-anchor="start" x="2374.98" y="-1369.95" font-family="Times,serif" font-size="14.00">160:160</text>
</g>
<!-- id_28494421_DOT_10&#45;&#45;id_28494421_DOT_16 -->
<g id="edge21" class="edge">
<title>id_28494421_DOT_10&#45;&#45;id_28494421_DOT_16</title>
<path fill="none" stroke="black" stroke-dasharray="1,5" d="M2698.1,-1203.27C2635.18,-1242.02 2507.04,-1320.95 2440.36,-1362.01"/>
<text text-anchor="middle" x="2542.98" y="-1285.44" font-family="Times,serif" font-size="14.00">0.889854</text>
</g>
<!-- id_28494421_DOT_11&#45;&#45;id_28494421_DOT_16 -->
<g id="edge9" class="edge">
<title>id_28494421_DOT_11&#45;&#45;id_28494421_DOT_16</title>
<path fill="none" stroke="black" d="M2056.21,-1506.43C2134.19,-1479.44 2279.58,-1429.11 2353.01,-1403.7"/>
<text text-anchor="middle" x="2178.36" y="-1457.86" font-family="Times,serif" font-size="14.00">0.023492</text>
</g>
<!-- id_28494421_DOT_12 -->
<g id="node12" class="node">
<title>id_28494421_DOT_12</title>
<polygon fill="aquamarine" stroke="aquamarine" points="61.16,-2179.5 64.58,-2179.69 67.98,-2179.98 71.32,-2180.37 74.6,-2180.84 77.81,-2181.41 80.92,-2182.08 83.94,-2182.83 86.84,-2183.66 89.62,-2184.59 92.27,-2185.59 94.77,-2186.68 97.13,-2187.84 99.32,-2189.07 101.35,-2190.38 103.22,-2191.75 104.9,-2193.18 106.41,-2194.68 107.74,-2196.22 108.88,-2197.82 109.84,-2199.47 110.62,-2201.15 111.22,-2202.87 111.63,-2204.63 111.87,-2206.41 111.93,-2208.22 111.83,-2210.04 111.56,-2211.87 111.13,-2213.72 110.54,-2215.56 109.81,-2217.41 108.94,-2219.24 107.94,-2221.06 106.81,-2222.87 105.56,-2224.65 104.2,-2226.41 102.73,-2228.13 101.18,-2229.81 99.53,-2231.46 97.8,-2233.06 96,-2234.6 94.13,-2236.1 92.2,-2237.53 90.22,-2238.9 88.18,-2240.21 86.11,-2241.44 84,-2242.6 81.85,-2243.69 79.68,-2244.69 77.49,-2245.62 75.27,-2246.45 73.04,-2247.2 70.79,-2247.87 68.53,-2248.44 66.26,-2248.91 63.98,-2249.3 61.7,-2249.59 59.41,-2249.78 57.12,-2249.88 54.83,-2249.88 52.55,-2249.78 50.26,-2249.59 47.98,-2249.3 45.7,-2248.91 43.43,-2248.44 41.17,-2247.87 38.92,-2247.2 36.69,-2246.45 34.47,-2245.62 32.27,-2244.69 30.1,-2243.69 27.96,-2242.6 25.85,-2241.44 23.77,-2240.21 21.74,-2238.9 19.76,-2237.53 17.83,-2236.1 15.96,-2234.6 14.16,-2233.06 12.43,-2231.46 10.78,-2229.81 9.22,-2228.13 7.76,-2226.41 6.4,-2224.65 5.15,-2222.87 4.02,-2221.06 3.01,-2219.24 2.14,-2217.41 1.41,-2215.56 0.83,-2213.72 0.4,-2211.87 0.13,-2210.04 0.02,-2208.22 0.09,-2206.41 0.32,-2204.63 0.74,-2202.87 1.34,-2201.15 2.11,-2199.47 3.07,-2197.82 4.22,-2196.22 5.55,-2194.68 7.05,-2193.18 8.74,-2191.75 10.6,-2190.38 12.63,-2189.07 14.83,-2187.84 17.18,-2186.68 19.69,-2185.59 22.34,-2184.59 25.12,-2183.66 28.02,-2182.83 31.03,-2182.08 34.15,-2181.41 37.35,-2180.84 40.64,-2180.37 43.98,-2179.98 47.37,-2179.69 50.8,-2179.5 54.25,-2179.4 57.71,-2179.4 61.16,-2179.5"/>
<text text-anchor="start" x="26.81" y="-2224.44" font-family="Times,serif" font-size="14.00">C0017446</text>
<text text-anchor="start" x="43.78" y="-2210.44" font-family="Times,serif" font-size="14.00">FPA</text>
<text text-anchor="start" x="40.03" y="-2196.44" font-family="Times,serif" font-size="14.00">94:94</text>
</g>
<!-- id_28494421_DOT_17 -->
<g id="node17" class="node">
<title>id_28494421_DOT_17</title>
<polygon fill="aquamarine" stroke="aquamarine" points="441.98,-2181.66 445.41,-2181.86 448.8,-2182.14 452.14,-2182.53 455.42,-2183.01 458.63,-2183.58 461.74,-2184.24 464.76,-2184.99 467.66,-2185.83 470.44,-2186.75 473.09,-2187.75 475.59,-2188.84 477.95,-2190 480.14,-2191.23 482.18,-2192.54 484.04,-2193.91 485.72,-2195.34 487.23,-2196.84 488.56,-2198.38 489.7,-2199.98 490.67,-2201.63 491.44,-2203.31 492.04,-2205.04 492.46,-2206.79 492.69,-2208.57 492.76,-2210.38 492.65,-2212.2 492.38,-2214.04 491.95,-2215.88 491.37,-2217.72 490.64,-2219.57 489.76,-2221.4 488.76,-2223.22 487.63,-2225.03 486.38,-2226.81 485.02,-2228.57 483.56,-2230.29 482,-2231.98 480.35,-2233.62 478.62,-2235.22 476.82,-2236.77 474.95,-2238.26 473.02,-2239.69 471.04,-2241.06 469.01,-2242.37 466.93,-2243.6 464.82,-2244.76 462.68,-2245.85 460.5,-2246.85 458.31,-2247.78 456.09,-2248.62 453.86,-2249.37 451.61,-2250.03 449.35,-2250.6 447.08,-2251.07 444.8,-2251.46 442.52,-2251.75 440.23,-2251.94 437.95,-2252.04 435.66,-2252.04 433.37,-2251.94 431.08,-2251.75 428.8,-2251.46 426.52,-2251.07 424.25,-2250.6 421.99,-2250.03 419.74,-2249.37 417.51,-2248.62 415.29,-2247.78 413.1,-2246.85 410.92,-2245.85 408.78,-2244.76 406.67,-2243.6 404.6,-2242.37 402.56,-2241.06 400.58,-2239.69 398.65,-2238.26 396.78,-2236.77 394.98,-2235.22 393.25,-2233.62 391.6,-2231.98 390.04,-2230.29 388.58,-2228.57 387.22,-2226.81 385.97,-2225.03 384.84,-2223.22 383.84,-2221.4 382.97,-2219.57 382.23,-2217.72 381.65,-2215.88 381.22,-2214.04 380.95,-2212.2 380.84,-2210.38 380.91,-2208.57 381.15,-2206.79 381.56,-2205.04 382.16,-2203.31 382.94,-2201.63 383.9,-2199.98 385.04,-2198.38 386.37,-2196.84 387.88,-2195.34 389.56,-2193.91 391.43,-2192.54 393.46,-2191.23 395.65,-2190 398.01,-2188.84 400.51,-2187.75 403.16,-2186.75 405.94,-2185.83 408.84,-2184.99 411.86,-2184.24 414.97,-2183.58 418.18,-2183.01 421.46,-2182.53 424.8,-2182.14 428.19,-2181.86 431.62,-2181.66 435.07,-2181.57 438.53,-2181.57 441.98,-2181.66"/>
<text text-anchor="start" x="407.63" y="-2226.6" font-family="Times,serif" font-size="14.00">C0017446</text>
<text text-anchor="start" x="424.6" y="-2212.6" font-family="Times,serif" font-size="14.00">FPA</text>
<text text-anchor="start" x="413.86" y="-2198.6" font-family="Times,serif" font-size="14.00">167:167</text>
</g>
<!-- id_28494421_DOT_12&#45;&#45;id_28494421_DOT_17 -->
<g id="edge10" class="edge">
<title>id_28494421_DOT_12&#45;&#45;id_28494421_DOT_17</title>
<path fill="none" stroke="black" d="M110.95,-2214.95C183.14,-2215.36 309.2,-2216.08 381.54,-2216.49"/>
<text text-anchor="middle" x="219.99" y="-2218.52" font-family="Times,serif" font-size="14.00">0.019466</text>
</g>
<!-- id_28494421_DOT_23 -->
<g id="node23" class="node">
<title>id_28494421_DOT_23</title>
<polygon fill="crimson" stroke="crimson" points="2412.22,-3357.56 2416.65,-3357.75 2421.03,-3358.04 2425.34,-3358.42 2429.58,-3358.9 2433.71,-3359.47 2437.74,-3360.13 2441.63,-3360.88 2445.38,-3361.72 2448.96,-3362.64 2452.38,-3363.65 2455.61,-3364.73 2458.65,-3365.89 2461.49,-3367.13 2464.11,-3368.43 2466.51,-3369.81 2468.69,-3371.24 2470.64,-3372.73 2472.35,-3374.28 2473.83,-3375.88 2475.07,-3377.52 2476.07,-3379.21 2476.84,-3380.93 2477.38,-3382.69 2477.68,-3384.47 2477.77,-3386.27 2477.63,-3388.1 2477.28,-3389.93 2476.72,-3391.77 2475.97,-3393.62 2475.03,-3395.46 2473.9,-3397.3 2472.61,-3399.12 2471.15,-3400.92 2469.53,-3402.71 2467.78,-3404.46 2465.89,-3406.19 2463.88,-3407.87 2461.75,-3409.52 2459.52,-3411.11 2457.19,-3412.66 2454.78,-3414.15 2452.29,-3415.59 2449.73,-3416.96 2447.11,-3418.26 2444.43,-3419.5 2441.71,-3420.66 2438.94,-3421.74 2436.14,-3422.75 2433.3,-3423.67 2430.44,-3424.51 2427.56,-3425.26 2424.65,-3425.92 2421.74,-3426.49 2418.81,-3426.97 2415.87,-3427.35 2412.92,-3427.64 2409.97,-3427.84 2407.02,-3427.93 2404.06,-3427.93 2401.11,-3427.84 2398.16,-3427.64 2395.21,-3427.35 2392.27,-3426.97 2389.34,-3426.49 2386.43,-3425.92 2383.52,-3425.26 2380.64,-3424.51 2377.78,-3423.67 2374.94,-3422.75 2372.14,-3421.74 2369.37,-3420.66 2366.65,-3419.5 2363.97,-3418.26 2361.35,-3416.96 2358.79,-3415.59 2356.3,-3414.15 2353.88,-3412.66 2351.56,-3411.11 2349.33,-3409.52 2347.2,-3407.87 2345.19,-3406.19 2343.3,-3404.46 2341.54,-3402.71 2339.93,-3400.92 2338.47,-3399.12 2337.18,-3397.3 2336.05,-3395.46 2335.11,-3393.62 2334.35,-3391.77 2333.8,-3389.93 2333.45,-3388.1 2333.31,-3386.27 2333.4,-3384.47 2333.7,-3382.69 2334.24,-3380.93 2335.01,-3379.21 2336.01,-3377.52 2337.25,-3375.88 2338.73,-3374.28 2340.44,-3372.73 2342.39,-3371.24 2344.57,-3369.81 2346.97,-3368.43 2349.59,-3367.13 2352.43,-3365.89 2355.47,-3364.73 2358.7,-3363.65 2362.12,-3362.64 2365.7,-3361.72 2369.45,-3360.88 2373.34,-3360.13 2377.36,-3359.47 2381.5,-3358.9 2385.74,-3358.42 2390.05,-3358.04 2394.43,-3357.75 2398.86,-3357.56 2403.31,-3357.46 2407.77,-3357.46 2412.22,-3357.56"/>
<text text-anchor="start" x="2376.37" y="-3402.5" font-family="Times,serif" font-size="14.00">C0870433</text>
<text text-anchor="start" x="2365.49" y="-3388.5" font-family="Times,serif" font-size="14.00">dissatisfaction</text>
<text text-anchor="start" x="2382.59" y="-3374.5" font-family="Times,serif" font-size="14.00">249:249</text>
</g>
<!-- id_28494421_DOT_13&#45;&#45;id_28494421_DOT_23 -->
<g id="edge22" class="edge">
<title>id_28494421_DOT_13&#45;&#45;id_28494421_DOT_23</title>
<path fill="none" stroke="black" stroke-dasharray="1,5" d="M2773.51,-3323.69C2698.92,-3337.68 2560.46,-3363.64 2476.3,-3379.43"/>
<text text-anchor="middle" x="2598.65" y="-3354.36" font-family="Times,serif" font-size="14.00">0.776210</text>
</g>
<!-- id_28494421_DOT_29 -->
<g id="node29" class="node">
<title>id_28494421_DOT_29</title>
<polygon fill="cornflowerblue" stroke="cornflowerblue" points="2126.42,-4560.72 2129.83,-4560.91 2133.21,-4561.2 2136.53,-4561.59 2139.8,-4562.06 2142.99,-4562.63 2146.09,-4563.3 2149.09,-4564.05 2151.98,-4564.88 2154.74,-4565.81 2157.38,-4566.81 2159.87,-4567.9 2162.21,-4569.06 2164.4,-4570.29 2166.42,-4571.6 2168.27,-4572.97 2169.95,-4574.4 2171.45,-4575.9 2172.77,-4577.44 2173.91,-4579.04 2174.87,-4580.69 2175.64,-4582.37 2176.23,-4584.09 2176.65,-4585.85 2176.88,-4587.63 2176.95,-4589.44 2176.84,-4591.26 2176.57,-4593.1 2176.15,-4594.94 2175.57,-4596.78 2174.84,-4598.63 2173.97,-4600.46 2172.97,-4602.28 2171.85,-4604.09 2170.6,-4605.87 2169.25,-4607.63 2167.79,-4609.35 2166.24,-4611.03 2164.6,-4612.68 2162.88,-4614.28 2161.09,-4615.82 2159.23,-4617.32 2157.31,-4618.75 2155.33,-4620.12 2153.31,-4621.43 2151.25,-4622.66 2149.15,-4623.82 2147.01,-4624.91 2144.85,-4625.91 2142.67,-4626.84 2140.46,-4627.67 2138.24,-4628.42 2136,-4629.09 2133.75,-4629.66 2131.49,-4630.13 2129.23,-4630.52 2126.96,-4630.81 2124.68,-4631 2122.4,-4631.1 2120.13,-4631.1 2117.85,-4631 2115.57,-4630.81 2113.3,-4630.52 2111.04,-4630.13 2108.78,-4629.66 2106.53,-4629.09 2104.29,-4628.42 2102.07,-4627.67 2099.86,-4626.84 2097.68,-4625.91 2095.51,-4624.91 2093.38,-4623.82 2091.28,-4622.66 2089.22,-4621.43 2087.19,-4620.12 2085.22,-4618.75 2083.3,-4617.32 2081.44,-4615.82 2079.65,-4614.28 2077.93,-4612.68 2076.29,-4611.03 2074.74,-4609.35 2073.28,-4607.63 2071.93,-4605.87 2070.68,-4604.09 2069.56,-4602.28 2068.56,-4600.46 2067.69,-4598.63 2066.96,-4596.78 2066.38,-4594.94 2065.95,-4593.1 2065.69,-4591.26 2065.58,-4589.44 2065.64,-4587.63 2065.88,-4585.85 2066.29,-4584.09 2066.89,-4582.37 2067.66,-4580.69 2068.62,-4579.04 2069.76,-4577.44 2071.08,-4575.9 2072.58,-4574.4 2074.26,-4572.97 2076.11,-4571.6 2078.13,-4570.29 2080.32,-4569.06 2082.66,-4567.9 2085.15,-4566.81 2087.79,-4565.81 2090.55,-4564.88 2093.44,-4564.05 2096.44,-4563.3 2099.54,-4562.63 2102.73,-4562.06 2106,-4561.59 2109.32,-4561.2 2112.7,-4560.91 2116.11,-4560.72 2119.54,-4560.63 2122.98,-4560.63 2126.42,-4560.72"/>
<text text-anchor="start" x="2092.35" y="-4605.66" font-family="Times,serif" font-size="14.00">C0184511</text>
<text text-anchor="start" x="2097.94" y="-4591.66" font-family="Times,serif" font-size="14.00">improve</text>
<text text-anchor="start" x="2098.32" y="-4577.66" font-family="Times,serif" font-size="14.00">279:279</text>
</g>
<!-- id_28494421_DOT_14&#45;&#45;id_28494421_DOT_29 -->
<g id="edge23" class="edge">
<title>id_28494421_DOT_14&#45;&#45;id_28494421_DOT_29</title>
<path fill="none" stroke="black" stroke-dasharray="1,5" d="M2079.74,-4939.64C2088.48,-4867.31 2108.31,-4703.1 2117.03,-4630.96"/>
<text text-anchor="middle" x="2072.13" y="-4788.1" font-family="Times,serif" font-size="14.00">0.730313</text>
</g>
<!-- id_28494421_DOT_15 -->
<g id="node15" class="node">
<title>id_28494421_DOT_15</title>
<polygon fill="coral" stroke="coral" points="2753.74,-3975.06 2757.17,-3975.26 2760.56,-3975.54 2763.91,-3975.93 2767.19,-3976.41 2770.39,-3976.98 2773.51,-3977.64 2776.52,-3978.39 2779.43,-3979.23 2782.21,-3980.15 2784.85,-3981.15 2787.36,-3982.24 2789.71,-3983.4 2791.91,-3984.63 2793.94,-3985.94 2795.8,-3987.31 2797.49,-3988.74 2799,-3990.24 2800.32,-3991.78 2801.47,-3993.38 2802.43,-3995.03 2803.21,-3996.71 2803.8,-3998.44 2804.22,-4000.19 2804.46,-4001.97 2804.52,-4003.78 2804.41,-4005.6 2804.14,-4007.44 2803.71,-4009.28 2803.13,-4011.12 2802.4,-4012.97 2801.53,-4014.8 2800.52,-4016.62 2799.39,-4018.43 2798.14,-4020.21 2796.78,-4021.97 2795.32,-4023.69 2793.76,-4025.38 2792.11,-4027.02 2790.39,-4028.62 2788.58,-4030.17 2786.71,-4031.66 2784.78,-4033.09 2782.8,-4034.46 2780.77,-4035.77 2778.7,-4037 2776.58,-4038.17 2774.44,-4039.25 2772.27,-4040.25 2770.07,-4041.18 2767.85,-4042.02 2765.62,-4042.77 2763.37,-4043.43 2761.11,-4044 2758.84,-4044.47 2756.57,-4044.86 2754.28,-4045.15 2752,-4045.34 2749.71,-4045.44 2747.42,-4045.44 2745.13,-4045.34 2742.84,-4045.15 2740.56,-4044.86 2738.29,-4044.47 2736.02,-4044 2733.76,-4043.43 2731.51,-4042.77 2729.27,-4042.02 2727.06,-4041.18 2724.86,-4040.25 2722.69,-4039.25 2720.54,-4038.17 2718.43,-4037 2716.36,-4035.77 2714.33,-4034.46 2712.34,-4033.09 2710.41,-4031.66 2708.55,-4030.17 2706.74,-4028.62 2705.01,-4027.02 2703.37,-4025.38 2701.81,-4023.69 2700.34,-4021.97 2698.98,-4020.21 2697.74,-4018.43 2696.6,-4016.62 2695.6,-4014.8 2694.73,-4012.97 2694,-4011.12 2693.41,-4009.28 2692.98,-4007.44 2692.71,-4005.6 2692.61,-4003.78 2692.67,-4001.97 2692.91,-4000.19 2693.33,-3998.44 2693.92,-3996.71 2694.7,-3995.03 2695.66,-3993.38 2696.8,-3991.78 2698.13,-3990.24 2699.64,-3988.74 2701.33,-3987.31 2703.19,-3985.94 2705.22,-3984.63 2707.42,-3983.4 2709.77,-3982.24 2712.27,-3981.15 2714.92,-3980.15 2717.7,-3979.23 2720.6,-3978.39 2723.62,-3977.64 2726.74,-3976.98 2729.94,-3976.41 2733.22,-3975.93 2736.56,-3975.54 2739.96,-3975.26 2743.39,-3975.06 2746.84,-3974.97 2750.29,-3974.97 2753.74,-3975.06"/>
<text text-anchor="start" x="2719.4" y="-4020" font-family="Times,serif" font-size="14.00">C0027361</text>
<text text-anchor="start" x="2729.91" y="-4006" font-family="Times,serif" font-size="14.00">people</text>
<text text-anchor="start" x="2725.62" y="-3992" font-family="Times,serif" font-size="14.00">141:141</text>
</g>
<!-- id_28494421_DOT_25 -->
<g id="node25" class="node">
<title>id_28494421_DOT_25</title>
<polygon fill="darkgoldenrod" stroke="darkgoldenrod" points="2395.62,-3804.4 2399.87,-3804.59 2404.07,-3804.88 2408.22,-3805.27 2412.28,-3805.74 2416.26,-3806.32 2420.12,-3806.98 2423.85,-3807.73 2427.45,-3808.56 2430.9,-3809.49 2434.18,-3810.49 2437.28,-3811.58 2440.2,-3812.74 2442.92,-3813.97 2445.44,-3815.28 2447.74,-3816.65 2449.84,-3818.08 2451.7,-3819.58 2453.35,-3821.12 2454.77,-3822.72 2455.96,-3824.37 2456.92,-3826.05 2457.66,-3827.78 2458.18,-3829.53 2458.47,-3831.31 2458.55,-3833.12 2458.42,-3834.94 2458.08,-3836.78 2457.55,-3838.62 2456.83,-3840.46 2455.92,-3842.31 2454.84,-3844.14 2453.6,-3845.96 2452.2,-3847.77 2450.65,-3849.55 2448.96,-3851.31 2447.15,-3853.03 2445.22,-3854.72 2443.17,-3856.36 2441.03,-3857.96 2438.8,-3859.51 2436.48,-3861 2434.09,-3862.43 2431.63,-3863.8 2429.12,-3865.11 2426.55,-3866.34 2423.93,-3867.5 2421.27,-3868.59 2418.58,-3869.59 2415.86,-3870.52 2413.11,-3871.35 2410.34,-3872.11 2407.56,-3872.77 2404.75,-3873.34 2401.94,-3873.81 2399.12,-3874.2 2396.29,-3874.49 2393.46,-3874.68 2390.62,-3874.78 2387.78,-3874.78 2384.95,-3874.68 2382.12,-3874.49 2379.29,-3874.2 2376.46,-3873.81 2373.65,-3873.34 2370.85,-3872.77 2368.06,-3872.11 2365.3,-3871.35 2362.55,-3870.52 2359.83,-3869.59 2357.13,-3868.59 2354.48,-3867.5 2351.86,-3866.34 2349.29,-3865.11 2346.77,-3863.8 2344.31,-3862.43 2341.92,-3861 2339.61,-3859.51 2337.37,-3857.96 2335.23,-3856.36 2333.19,-3854.72 2331.26,-3853.03 2329.44,-3851.31 2327.76,-3849.55 2326.21,-3847.77 2324.81,-3845.96 2323.56,-3844.14 2322.48,-3842.31 2321.58,-3840.46 2320.86,-3838.62 2320.32,-3836.78 2319.99,-3834.94 2319.86,-3833.12 2319.93,-3831.31 2320.23,-3829.53 2320.74,-3827.78 2321.48,-3826.05 2322.45,-3824.37 2323.64,-3822.72 2325.06,-3821.12 2326.7,-3819.58 2328.57,-3818.08 2330.66,-3816.65 2332.97,-3815.28 2335.49,-3813.97 2338.21,-3812.74 2341.13,-3811.58 2344.23,-3810.49 2347.51,-3809.49 2350.96,-3808.56 2354.55,-3807.73 2358.29,-3806.98 2362.15,-3806.32 2366.12,-3805.74 2370.19,-3805.27 2374.33,-3804.88 2378.54,-3804.59 2382.79,-3804.4 2387.06,-3804.31 2391.35,-3804.31 2395.62,-3804.4"/>
<text text-anchor="start" x="2360.03" y="-3849.34" font-family="Times,serif" font-size="14.00">C0243095</text>
<text text-anchor="start" x="2351.11" y="-3835.34" font-family="Times,serif" font-size="14.00">ungovernable</text>
<text text-anchor="start" x="2366.26" y="-3821.34" font-family="Times,serif" font-size="14.00">264:264</text>
</g>
<!-- id_28494421_DOT_15&#45;&#45;id_28494421_DOT_25 -->
<g id="edge24" class="edge">
<title>id_28494421_DOT_15&#45;&#45;id_28494421_DOT_25</title>
<path fill="none" stroke="black" stroke-dasharray="1,5" d="M2700.84,-3987.54C2631.63,-3954.67 2504.21,-3894.16 2435.7,-3861.62"/>
<text text-anchor="middle" x="2542.02" y="-3927.38" font-family="Times,serif" font-size="14.00">0.869509</text>
</g>
<!-- id_28494421_DOT_19 -->
<g id="node19" class="node">
<title>id_28494421_DOT_19</title>
<polygon fill="aquamarine" stroke="aquamarine" points="841.51,-2184.65 844.94,-2184.84 848.33,-2185.13 851.67,-2185.51 854.95,-2185.99 858.16,-2186.56 861.27,-2187.22 864.29,-2187.97 867.19,-2188.81 869.97,-2189.73 872.62,-2190.74 875.12,-2191.82 877.48,-2192.98 879.67,-2194.22 881.71,-2195.52 883.57,-2196.9 885.25,-2198.33 886.76,-2199.82 888.09,-2201.37 889.23,-2202.97 890.19,-2204.61 890.97,-2206.3 891.57,-2208.02 891.98,-2209.78 892.22,-2211.56 892.29,-2213.36 892.18,-2215.19 891.91,-2217.02 891.48,-2218.86 890.9,-2220.71 890.17,-2222.55 889.29,-2224.39 888.29,-2226.21 887.16,-2228.02 885.91,-2229.8 884.55,-2231.55 883.09,-2233.28 881.53,-2234.96 879.88,-2236.61 878.15,-2238.2 876.35,-2239.75 874.48,-2241.24 872.55,-2242.68 870.57,-2244.05 868.54,-2245.35 866.46,-2246.59 864.35,-2247.75 862.21,-2248.84 860.03,-2249.84 857.84,-2250.76 855.62,-2251.6 853.39,-2252.35 851.14,-2253.01 848.88,-2253.58 846.61,-2254.06 844.33,-2254.44 842.05,-2254.73 839.76,-2254.93 837.47,-2255.02 835.19,-2255.02 832.9,-2254.93 830.61,-2254.73 828.33,-2254.44 826.05,-2254.06 823.78,-2253.58 821.52,-2253.01 819.27,-2252.35 817.04,-2251.6 814.82,-2250.76 812.63,-2249.84 810.45,-2248.84 808.31,-2247.75 806.2,-2246.59 804.12,-2245.35 802.09,-2244.05 800.11,-2242.68 798.18,-2241.24 796.31,-2239.75 794.51,-2238.2 792.78,-2236.61 791.13,-2234.96 789.57,-2233.28 788.11,-2231.55 786.75,-2229.8 785.5,-2228.02 784.37,-2226.21 783.37,-2224.39 782.49,-2222.55 781.76,-2220.71 781.18,-2218.86 780.75,-2217.02 780.48,-2215.19 780.37,-2213.36 780.44,-2211.56 780.68,-2209.78 781.09,-2208.02 781.69,-2206.3 782.46,-2204.61 783.43,-2202.97 784.57,-2201.37 785.9,-2199.82 787.41,-2198.33 789.09,-2196.9 790.95,-2195.52 792.99,-2194.22 795.18,-2192.98 797.54,-2191.82 800.04,-2190.74 802.69,-2189.73 805.47,-2188.81 808.37,-2187.97 811.39,-2187.22 814.5,-2186.56 817.71,-2185.99 820.99,-2185.51 824.33,-2185.13 827.72,-2184.84 831.15,-2184.65 834.6,-2184.55 838.06,-2184.55 841.51,-2184.65"/>
<text text-anchor="start" x="807.16" y="-2229.59" font-family="Times,serif" font-size="14.00">C0017446</text>
<text text-anchor="start" x="824.13" y="-2215.59" font-family="Times,serif" font-size="14.00">FPA</text>
<text text-anchor="start" x="813.39" y="-2201.59" font-family="Times,serif" font-size="14.00">193:193</text>
</g>
<!-- id_28494421_DOT_17&#45;&#45;id_28494421_DOT_19 -->
<g id="edge11" class="edge">
<title>id_28494421_DOT_17&#45;&#45;id_28494421_DOT_19</title>
<path fill="none" stroke="black" d="M491.93,-2217.21C568.14,-2217.78 704.87,-2218.8 781.12,-2219.37"/>
<text text-anchor="middle" x="610.28" y="-2221.09" font-family="Times,serif" font-size="14.00">0.002407</text>
</g>
<!-- id_28494421_DOT_18 -->
<g id="node18" class="node">
<title>id_28494421_DOT_18</title>
<polygon fill="cornflowerblue" stroke="cornflowerblue" points="2208.37,-4179.17 2211.78,-4179.36 2215.16,-4179.65 2218.48,-4180.04 2221.75,-4180.51 2224.94,-4181.08 2228.04,-4181.75 2231.04,-4182.5 2233.93,-4183.33 2236.69,-4184.26 2239.33,-4185.26 2241.82,-4186.35 2244.16,-4187.51 2246.35,-4188.74 2248.37,-4190.05 2250.22,-4191.42 2251.9,-4192.85 2253.4,-4194.35 2254.72,-4195.89 2255.86,-4197.49 2256.82,-4199.14 2257.59,-4200.82 2258.19,-4202.54 2258.6,-4204.3 2258.84,-4206.08 2258.9,-4207.89 2258.79,-4209.71 2258.52,-4211.54 2258.1,-4213.39 2257.52,-4215.23 2256.79,-4217.07 2255.92,-4218.91 2254.92,-4220.73 2253.8,-4222.54 2252.55,-4224.32 2251.2,-4226.08 2249.74,-4227.8 2248.19,-4229.48 2246.55,-4231.13 2244.83,-4232.73 2243.04,-4234.27 2241.18,-4235.77 2239.26,-4237.2 2237.29,-4238.57 2235.26,-4239.88 2233.2,-4241.11 2231.1,-4242.27 2228.97,-4243.36 2226.8,-4244.36 2224.62,-4245.29 2222.41,-4246.12 2220.19,-4246.87 2217.95,-4247.54 2215.7,-4248.11 2213.44,-4248.58 2211.18,-4248.97 2208.91,-4249.26 2206.63,-4249.45 2204.35,-4249.54 2202.08,-4249.54 2199.8,-4249.45 2197.52,-4249.26 2195.25,-4248.97 2192.99,-4248.58 2190.73,-4248.11 2188.48,-4247.54 2186.24,-4246.87 2184.02,-4246.12 2181.81,-4245.29 2179.63,-4244.36 2177.46,-4243.36 2175.33,-4242.27 2173.23,-4241.11 2171.17,-4239.88 2169.14,-4238.57 2167.17,-4237.2 2165.25,-4235.77 2163.39,-4234.27 2161.6,-4232.73 2159.88,-4231.13 2158.24,-4229.48 2156.69,-4227.8 2155.23,-4226.08 2153.88,-4224.32 2152.63,-4222.54 2151.51,-4220.73 2150.51,-4218.91 2149.64,-4217.07 2148.91,-4215.23 2148.33,-4213.39 2147.91,-4211.54 2147.64,-4209.71 2147.53,-4207.89 2147.59,-4206.08 2147.83,-4204.3 2148.24,-4202.54 2148.84,-4200.82 2149.61,-4199.14 2150.57,-4197.49 2151.71,-4195.89 2153.03,-4194.35 2154.53,-4192.85 2156.21,-4191.42 2158.06,-4190.05 2160.08,-4188.74 2162.27,-4187.51 2164.61,-4186.35 2167.1,-4185.26 2169.74,-4184.26 2172.5,-4183.33 2175.39,-4182.5 2178.39,-4181.75 2181.49,-4181.08 2184.68,-4180.51 2187.95,-4180.04 2191.27,-4179.65 2194.65,-4179.36 2198.06,-4179.17 2201.5,-4179.07 2204.94,-4179.07 2208.37,-4179.17"/>
<text text-anchor="start" x="2174.3" y="-4224.11" font-family="Times,serif" font-size="14.00">C0184511</text>
<text text-anchor="start" x="2176.39" y="-4210.11" font-family="Times,serif" font-size="14.00">improved</text>
<text text-anchor="start" x="2180.27" y="-4196.11" font-family="Times,serif" font-size="14.00">169:169</text>
</g>
<!-- id_28494421_DOT_18&#45;&#45;id_28494421_DOT_25 -->
<g id="edge25" class="edge">
<title>id_28494421_DOT_18&#45;&#45;id_28494421_DOT_25</title>
<path fill="none" stroke="black" stroke-dasharray="1,5" d="M2220.21,-4180.06C2255.68,-4108.59 2337.19,-3944.35 2372.45,-3873.31"/>
<text text-anchor="middle" x="2270.08" y="-4029.48" font-family="Times,serif" font-size="14.00">0.764799</text>
</g>
<!-- id_28494421_DOT_18&#45;&#45;id_28494421_DOT_29 -->
<g id="edge12" class="edge">
<title>id_28494421_DOT_18&#45;&#45;id_28494421_DOT_29</title>
<path fill="none" stroke="black" d="M2195.73,-4249.18C2180.16,-4321.66 2144.46,-4487.89 2128.83,-4560.66"/>
<text text-anchor="middle" x="2136.03" y="-4407.72" font-family="Times,serif" font-size="14.00">0.015754</text>
</g>
<!-- id_28494421_DOT_19&#45;&#45;id_28494421_DOT_20 -->
<g id="edge13" class="edge">
<title>id_28494421_DOT_19&#45;&#45;id_28494421_DOT_20</title>
<path fill="none" stroke="black" d="M883.11,-2233.75C958.68,-2256.3 1107.18,-2300.62 1186.96,-2324.43"/>
<text text-anchor="middle" x="1008.79" y="-2281.89" font-family="Times,serif" font-size="14.00">0.000920</text>
</g>
<!-- id_28494421_DOT_27 -->
<g id="node27" class="node">
<title>id_28494421_DOT_27</title>
<polygon fill="aquamarine" stroke="aquamarine" points="1016.84,-2609.11 1020.27,-2609.3 1023.66,-2609.59 1027,-2609.97 1030.29,-2610.45 1033.49,-2611.02 1036.61,-2611.68 1039.62,-2612.43 1042.52,-2613.27 1045.3,-2614.19 1047.95,-2615.2 1050.46,-2616.28 1052.81,-2617.44 1055.01,-2618.68 1057.04,-2619.98 1058.9,-2621.35 1060.59,-2622.79 1062.09,-2624.28 1063.42,-2625.83 1064.57,-2627.43 1065.53,-2629.07 1066.31,-2630.76 1066.9,-2632.48 1067.32,-2634.23 1067.55,-2636.02 1067.62,-2637.82 1067.51,-2639.64 1067.24,-2641.48 1066.81,-2643.32 1066.23,-2645.17 1065.5,-2647.01 1064.63,-2648.85 1063.62,-2650.67 1062.49,-2652.47 1061.24,-2654.26 1059.88,-2656.01 1058.42,-2657.73 1056.86,-2659.42 1055.21,-2661.06 1053.48,-2662.66 1051.68,-2664.21 1049.81,-2665.7 1047.88,-2667.14 1045.9,-2668.51 1043.87,-2669.81 1041.79,-2671.05 1039.68,-2672.21 1037.54,-2673.29 1035.37,-2674.3 1033.17,-2675.22 1030.95,-2676.06 1028.72,-2676.81 1026.47,-2677.47 1024.21,-2678.04 1021.94,-2678.52 1019.66,-2678.9 1017.38,-2679.19 1015.1,-2679.38 1012.81,-2679.48 1010.52,-2679.48 1008.23,-2679.38 1005.94,-2679.19 1003.66,-2678.9 1001.38,-2678.52 999.11,-2678.04 996.85,-2677.47 994.61,-2676.81 992.37,-2676.06 990.15,-2675.22 987.96,-2674.3 985.79,-2673.29 983.64,-2672.21 981.53,-2671.05 979.46,-2669.81 977.43,-2668.51 975.44,-2667.14 973.51,-2665.7 971.64,-2664.21 969.84,-2662.66 968.11,-2661.06 966.47,-2659.42 964.91,-2657.73 963.44,-2656.01 962.08,-2654.26 960.83,-2652.47 959.7,-2650.67 958.7,-2648.85 957.83,-2647.01 957.1,-2645.17 956.51,-2643.32 956.08,-2641.48 955.81,-2639.64 955.71,-2637.82 955.77,-2636.02 956.01,-2634.23 956.42,-2632.48 957.02,-2630.76 957.8,-2629.07 958.76,-2627.43 959.9,-2625.83 961.23,-2624.28 962.74,-2622.79 964.43,-2621.35 966.29,-2619.98 968.32,-2618.68 970.51,-2617.44 972.87,-2616.28 975.37,-2615.2 978.02,-2614.19 980.8,-2613.27 983.7,-2612.43 986.72,-2611.68 989.83,-2611.02 993.04,-2610.45 996.32,-2609.97 999.66,-2609.59 1003.06,-2609.3 1006.48,-2609.11 1009.93,-2609.01 1013.39,-2609.01 1016.84,-2609.11"/>
<text text-anchor="start" x="982.49" y="-2654.05" font-family="Times,serif" font-size="14.00">C0017446</text>
<text text-anchor="start" x="999.46" y="-2640.05" font-family="Times,serif" font-size="14.00">FPA</text>
<text text-anchor="start" x="988.72" y="-2626.05" font-family="Times,serif" font-size="14.00">276:276</text>
</g>
<!-- id_28494421_DOT_20&#45;&#45;id_28494421_DOT_27 -->
<g id="edge14" class="edge">
<title>id_28494421_DOT_20&#45;&#45;id_28494421_DOT_27</title>
<path fill="none" stroke="black" d="M1217.68,-2370.98C1174.35,-2428.46 1080.99,-2552.28 1036.38,-2611.46"/>
<text text-anchor="middle" x="1100.78" y="-2494.02" font-family="Times,serif" font-size="14.00">0.003097</text>
</g>
<!-- id_28494421_DOT_21 -->
<g id="node21" class="node">
<title>id_28494421_DOT_21</title>
<polygon fill="blueviolet" stroke="blueviolet" points="1623.36,-0.23 1626.79,-0.42 1630.18,-0.71 1633.53,-1.09 1636.81,-1.57 1640.01,-2.14 1643.13,-2.8 1646.14,-3.55 1649.05,-4.39 1651.83,-5.31 1654.47,-6.32 1656.98,-7.4 1659.33,-8.57 1661.53,-9.8 1663.56,-11.1 1665.42,-12.48 1667.11,-13.91 1668.62,-15.4 1669.94,-16.95 1671.09,-18.55 1672.05,-20.19 1672.83,-21.88 1673.42,-23.6 1673.84,-25.36 1674.08,-27.14 1674.14,-28.94 1674.03,-30.77 1673.76,-32.6 1673.33,-34.44 1672.75,-36.29 1672.02,-38.13 1671.15,-39.97 1670.14,-41.79 1669.01,-43.6 1667.76,-45.38 1666.4,-47.13 1664.94,-48.86 1663.38,-50.54 1661.73,-52.19 1660,-53.78 1658.2,-55.33 1656.33,-56.82 1654.4,-58.26 1652.42,-59.63 1650.39,-60.94 1648.31,-62.17 1646.2,-63.33 1644.06,-64.42 1641.89,-65.42 1639.69,-66.34 1637.47,-67.18 1635.24,-67.93 1632.99,-68.59 1630.73,-69.16 1628.46,-69.64 1626.19,-70.02 1623.9,-70.31 1621.62,-70.51 1619.33,-70.6 1617.04,-70.6 1614.75,-70.51 1612.46,-70.31 1610.18,-70.02 1607.9,-69.64 1605.64,-69.16 1603.37,-68.59 1601.13,-67.93 1598.89,-67.18 1596.68,-66.34 1594.48,-65.42 1592.31,-64.42 1590.16,-63.33 1588.05,-62.17 1585.98,-60.94 1583.95,-59.63 1581.96,-58.26 1580.03,-56.82 1578.16,-55.33 1576.36,-53.78 1574.63,-52.19 1572.99,-50.54 1571.43,-48.86 1569.96,-47.13 1568.6,-45.38 1567.35,-43.6 1566.22,-41.79 1565.22,-39.97 1564.35,-38.13 1563.62,-36.29 1563.03,-34.44 1562.6,-32.6 1562.33,-30.77 1562.23,-28.94 1562.29,-27.14 1562.53,-25.36 1562.94,-23.6 1563.54,-21.88 1564.32,-20.19 1565.28,-18.55 1566.42,-16.95 1567.75,-15.4 1569.26,-13.91 1570.95,-12.48 1572.81,-11.1 1574.84,-9.8 1577.04,-8.57 1579.39,-7.4 1581.89,-6.32 1584.54,-5.31 1587.32,-4.39 1590.22,-3.55 1593.24,-2.8 1596.36,-2.14 1599.56,-1.57 1602.84,-1.09 1606.18,-0.71 1609.58,-0.42 1613.01,-0.23 1616.46,-0.13 1619.91,-0.13 1623.36,-0.23"/>
<text text-anchor="start" x="1589.01" y="-45.17" font-family="Times,serif" font-size="14.00">C0205276</text>
<text text-anchor="start" x="1604.58" y="-31.17" font-family="Times,serif" font-size="14.00">local</text>
<text text-anchor="start" x="1595.24" y="-17.17" font-family="Times,serif" font-size="14.00">222:222</text>
</g>
<!-- id_28494421_DOT_21&#45;&#45;id_28494421_DOT_22 -->
<g id="edge15" class="edge">
<title>id_28494421_DOT_21&#45;&#45;id_28494421_DOT_22</title>
<path fill="none" stroke="black" d="M1625.2,-70.43C1639.06,-139.69 1669.79,-293.3 1683.65,-362.57"/>
<text text-anchor="middle" x="1628.43" y="-219.3" font-family="Times,serif" font-size="14.00">0.002118</text>
</g>
<!-- id_28494421_DOT_23&#45;&#45;id_28494421_DOT_25 -->
<g id="edge26" class="edge">
<title>id_28494421_DOT_23&#45;&#45;id_28494421_DOT_25</title>
<path fill="none" stroke="black" stroke-dasharray="1,5" d="M2404.24,-3428.13C2401.19,-3511.73 2393.56,-3720.5 2390.5,-3804.1"/>
<text text-anchor="middle" x="2371.12" y="-3618.92" font-family="Times,serif" font-size="14.00">0.763555</text>
</g>
<!-- id_28494421_DOT_23&#45;&#45;id_28494421_DOT_26 -->
<g id="edge27" class="edge">
<title>id_28494421_DOT_23&#45;&#45;id_28494421_DOT_26</title>
<path fill="none" stroke="black" stroke-dasharray="1,5" d="M2384.52,-3358.3C2340.23,-3285.8 2237.85,-3118.23 2195,-3048.09"/>
<text text-anchor="middle" x="2263.51" y="-3206" font-family="Times,serif" font-size="14.00">0.657721</text>
</g>
<!-- id_28494421_DOT_28 -->
<g id="node28" class="node">
<title>id_28494421_DOT_28</title>
<polygon fill="darkkhaki" stroke="darkkhaki" points="2072.53,-3474.23 2075.96,-3474.42 2079.35,-3474.71 2082.69,-3475.1 2085.98,-3475.57 2089.18,-3476.14 2092.3,-3476.81 2095.31,-3477.56 2098.21,-3478.39 2100.99,-3479.32 2103.64,-3480.32 2106.15,-3481.41 2108.5,-3482.57 2110.7,-3483.8 2112.73,-3485.11 2114.59,-3486.48 2116.28,-3487.91 2117.78,-3489.41 2119.11,-3490.95 2120.26,-3492.55 2121.22,-3494.2 2122,-3495.88 2122.59,-3497.6 2123.01,-3499.36 2123.24,-3501.14 2123.31,-3502.95 2123.2,-3504.77 2122.93,-3506.6 2122.5,-3508.45 2121.92,-3510.29 2121.19,-3512.14 2120.32,-3513.97 2119.31,-3515.79 2118.18,-3517.6 2116.93,-3519.38 2115.57,-3521.14 2114.11,-3522.86 2112.55,-3524.54 2110.9,-3526.19 2109.17,-3527.79 2107.37,-3529.33 2105.5,-3530.83 2103.57,-3532.26 2101.59,-3533.63 2099.56,-3534.94 2097.48,-3536.17 2095.37,-3537.33 2093.23,-3538.42 2091.06,-3539.42 2088.86,-3540.35 2086.64,-3541.18 2084.41,-3541.93 2082.16,-3542.6 2079.9,-3543.17 2077.63,-3543.64 2075.35,-3544.03 2073.07,-3544.32 2070.79,-3544.51 2068.5,-3544.61 2066.21,-3544.61 2063.92,-3544.51 2061.63,-3544.32 2059.35,-3544.03 2057.07,-3543.64 2054.8,-3543.17 2052.54,-3542.6 2050.3,-3541.93 2048.06,-3541.18 2045.84,-3540.35 2043.65,-3539.42 2041.48,-3538.42 2039.33,-3537.33 2037.22,-3536.17 2035.15,-3534.94 2033.12,-3533.63 2031.13,-3532.26 2029.2,-3530.83 2027.33,-3529.33 2025.53,-3527.79 2023.8,-3526.19 2022.16,-3524.54 2020.6,-3522.86 2019.13,-3521.14 2017.77,-3519.38 2016.52,-3517.6 2015.39,-3515.79 2014.39,-3513.97 2013.52,-3512.14 2012.79,-3510.29 2012.2,-3508.45 2011.77,-3506.6 2011.5,-3504.77 2011.4,-3502.95 2011.46,-3501.14 2011.7,-3499.36 2012.11,-3497.6 2012.71,-3495.88 2013.49,-3494.2 2014.45,-3492.55 2015.59,-3490.95 2016.92,-3489.41 2018.43,-3487.91 2020.12,-3486.48 2021.98,-3485.11 2024.01,-3483.8 2026.2,-3482.57 2028.56,-3481.41 2031.06,-3480.32 2033.71,-3479.32 2036.49,-3478.39 2039.39,-3477.56 2042.41,-3476.81 2045.52,-3476.14 2048.73,-3475.57 2052.01,-3475.1 2055.35,-3474.71 2058.75,-3474.42 2062.17,-3474.23 2065.62,-3474.13 2069.08,-3474.13 2072.53,-3474.23"/>
<text text-anchor="start" x="2038.18" y="-3519.17" font-family="Times,serif" font-size="14.00">C1708237</text>
<text text-anchor="start" x="2050.64" y="-3505.17" font-family="Times,serif" font-size="14.00">sector</text>
<text text-anchor="start" x="2044.41" y="-3491.17" font-family="Times,serif" font-size="14.00">277:277</text>
</g>
<!-- id_28494421_DOT_23&#45;&#45;id_28494421_DOT_28 -->
<g id="edge28" class="edge">
<title>id_28494421_DOT_23&#45;&#45;id_28494421_DOT_28</title>
<path fill="none" stroke="black" stroke-dasharray="1,5" d="M2351.58,-3411.31C2287.8,-3433.32 2182.41,-3469.68 2119.45,-3491.39"/>
<text text-anchor="middle" x="2209.27" y="-3454.15" font-family="Times,serif" font-size="14.00">0.638370</text>
</g>
</g>
</svg>
