<?xml version="1.0" encoding="UTF-8" standalone="no"?>
<!DOCTYPE svg PUBLIC "-//W3C//DTD SVG 1.1//EN"
 "http://www.w3.org/Graphics/SVG/1.1/DTD/svg11.dtd">
<!-- Generated by graphviz version 2.42.3 (20191010.1750)
 -->
<!-- Title: MST Pages: 1 -->
<svg width="1266pt" height="1787pt"
 viewBox="0.00 0.00 1266.26 1787.29" xmlns="http://www.w3.org/2000/svg" xmlns:xlink="http://www.w3.org/1999/xlink">
<g id="graph0" class="graph" transform="scale(1 1) rotate(0) translate(4 1783.29)">
<title>MST</title>
<polygon fill="white" stroke="transparent" points="-4,4 -4,-1783.29 1262.26,-1783.29 1262.26,4 -4,4"/>
<!-- id_28523090_DOT_1 -->
<g id="node1" class="node">
<title>id_28523090_DOT_1</title>
<polygon fill="aquamarine" stroke="aquamarine" points="1015.4,-1708.78 1031.81,-1708.97 1048.05,-1709.26 1064.04,-1709.65 1079.74,-1710.12 1095.08,-1710.69 1109.99,-1711.36 1124.42,-1712.11 1138.31,-1712.94 1151.61,-1713.87 1164.28,-1714.87 1176.27,-1715.96 1187.53,-1717.12 1198.04,-1718.35 1207.76,-1719.66 1216.67,-1721.03 1224.74,-1722.46 1231.96,-1723.96 1238.31,-1725.5 1243.79,-1727.1 1248.39,-1728.75 1252.11,-1730.43 1254.96,-1732.15 1256.95,-1733.91 1258.09,-1735.69 1258.39,-1737.5 1257.89,-1739.32 1256.59,-1741.15 1254.53,-1743 1251.74,-1744.84 1248.24,-1746.69 1244.07,-1748.52 1239.26,-1750.34 1233.85,-1752.15 1227.88,-1753.93 1221.37,-1755.69 1214.37,-1757.41 1206.91,-1759.09 1199.02,-1760.74 1190.75,-1762.34 1182.13,-1763.88 1173.18,-1765.38 1163.95,-1766.81 1154.46,-1768.18 1144.74,-1769.49 1134.81,-1770.72 1124.71,-1771.88 1114.45,-1772.97 1104.06,-1773.97 1093.55,-1774.9 1082.94,-1775.73 1072.25,-1776.48 1061.49,-1777.15 1050.67,-1777.72 1039.81,-1778.19 1028.92,-1778.58 1018,-1778.87 1007.05,-1779.06 996.1,-1779.15 985.15,-1779.15 974.2,-1779.06 963.26,-1778.87 952.34,-1778.58 941.44,-1778.19 930.58,-1777.72 919.76,-1777.15 909,-1776.48 898.31,-1775.73 887.71,-1774.9 877.2,-1773.97 866.8,-1772.97 856.54,-1771.88 846.44,-1770.72 836.52,-1769.49 826.79,-1768.18 817.3,-1766.81 808.07,-1765.38 799.13,-1763.88 790.5,-1762.34 782.23,-1760.74 774.35,-1759.09 766.89,-1757.41 759.88,-1755.69 753.38,-1753.93 747.4,-1752.15 741.99,-1750.34 737.18,-1748.52 733.01,-1746.69 729.51,-1744.84 726.72,-1743 724.66,-1741.15 723.37,-1739.32 722.86,-1737.5 723.17,-1735.69 724.31,-1733.91 726.29,-1732.15 729.15,-1730.43 732.87,-1728.75 737.47,-1727.1 742.94,-1725.5 749.3,-1723.96 756.51,-1722.46 764.59,-1721.03 773.49,-1719.66 783.21,-1718.35 793.72,-1717.12 804.99,-1715.96 816.97,-1714.87 829.64,-1713.87 842.94,-1712.94 856.83,-1712.11 871.26,-1711.36 886.17,-1710.69 901.51,-1710.12 917.21,-1709.65 933.21,-1709.26 949.44,-1708.97 965.85,-1708.78 982.36,-1708.68 998.9,-1708.68 1015.4,-1708.78"/>
<text text-anchor="start" x="961.46" y="-1753.72" font-family="Times,serif" font-size="14.00">C0418073</text>
<text text-anchor="start" x="820.92" y="-1739.72" font-family="Times,serif" font-size="14.00">Craniomaxillofacial Injury Caused by a Pneumatic Nail Gun</text>
<text text-anchor="start" x="981.68" y="-1725.72" font-family="Times,serif" font-size="14.00">1:8</text>
</g>
<!-- id_28523090_DOT_5 -->
<g id="node5" class="node">
<title>id_28523090_DOT_5</title>
<polygon fill="brown" stroke="brown" points="806.64,-1387.92 815,-1388.11 823.27,-1388.4 831.42,-1388.78 839.41,-1389.26 847.23,-1389.83 854.82,-1390.49 862.17,-1391.24 869.25,-1392.08 876.02,-1393 882.48,-1394.01 888.58,-1395.09 894.32,-1396.25 899.67,-1397.49 904.63,-1398.79 909.16,-1400.17 913.27,-1401.6 916.95,-1403.09 920.19,-1404.64 922.98,-1406.24 925.32,-1407.88 927.22,-1409.57 928.67,-1411.29 929.68,-1413.05 930.26,-1414.83 930.42,-1416.63 930.16,-1418.46 929.5,-1420.29 928.45,-1422.13 927.03,-1423.98 925.25,-1425.82 923.12,-1427.66 920.67,-1429.48 917.92,-1431.29 914.87,-1433.07 911.56,-1434.82 907.99,-1436.55 904.19,-1438.23 900.17,-1439.88 895.96,-1441.47 891.57,-1443.02 887.01,-1444.51 882.31,-1445.95 877.47,-1447.32 872.52,-1448.62 867.47,-1449.86 862.32,-1451.02 857.09,-1452.11 851.8,-1453.11 846.44,-1454.03 841.04,-1454.87 835.59,-1455.62 830.11,-1456.28 824.6,-1456.85 819.07,-1457.33 813.52,-1457.71 807.96,-1458 802.38,-1458.2 796.81,-1458.29 791.23,-1458.29 785.65,-1458.2 780.07,-1458 774.51,-1457.71 768.96,-1457.33 763.43,-1456.85 757.92,-1456.28 752.44,-1455.62 746.99,-1454.87 741.59,-1454.03 736.23,-1453.11 730.94,-1452.11 725.71,-1451.02 720.57,-1449.86 715.51,-1448.62 710.56,-1447.32 705.72,-1445.95 701.02,-1444.51 696.46,-1443.02 692.07,-1441.47 687.86,-1439.88 683.84,-1438.23 680.04,-1436.55 676.47,-1434.82 673.16,-1433.07 670.11,-1431.29 667.36,-1429.48 664.91,-1427.66 662.79,-1425.82 661,-1423.98 659.58,-1422.13 658.53,-1420.29 657.87,-1418.46 657.61,-1416.63 657.77,-1414.83 658.35,-1413.05 659.36,-1411.29 660.82,-1409.57 662.71,-1407.88 665.06,-1406.24 667.85,-1404.64 671.08,-1403.09 674.76,-1401.6 678.87,-1400.17 683.41,-1398.79 688.36,-1397.49 693.71,-1396.25 699.45,-1395.09 705.56,-1394.01 712.01,-1393 718.79,-1392.08 725.86,-1391.24 733.21,-1390.49 740.81,-1389.83 748.62,-1389.26 756.62,-1388.78 764.77,-1388.4 773.04,-1388.11 781.39,-1387.92 789.8,-1387.82 798.23,-1387.82 806.64,-1387.92"/>
<text text-anchor="start" x="764.85" y="-1432.86" font-family="Times,serif" font-size="14.00">C0394801</text>
<text text-anchor="start" x="711.41" y="-1418.86" font-family="Times,serif" font-size="14.00">inferior alveolar nerve blocks</text>
<text text-anchor="start" x="778.07" y="-1404.86" font-family="Times,serif" font-size="14.00">89:92</text>
</g>
<!-- id_28523090_DOT_1&#45;&#45;id_28523090_DOT_5 -->
<g id="edge1" class="edge">
<title>id_28523090_DOT_1&#45;&#45;id_28523090_DOT_5</title>
<path fill="none" stroke="black" stroke-dasharray="1,5" d="M969.02,-1708.66C931.12,-1646.8 853.08,-1519.44 815.36,-1457.88"/>
<text text-anchor="middle" x="865.94" y="-1586.07" font-family="Times,serif" font-size="14.00">0.940922</text>
</g>
<!-- id_28523090_DOT_2 -->
<g id="node2" class="node">
<title>id_28523090_DOT_2</title>
<polygon fill="bisque" stroke="bisque" points="525.19,-1093.54 528.62,-1093.74 532.01,-1094.03 535.35,-1094.41 538.63,-1094.89 541.84,-1095.46 544.95,-1096.12 547.97,-1096.87 550.87,-1097.71 553.65,-1098.63 556.3,-1099.63 558.8,-1100.72 561.16,-1101.88 563.35,-1103.12 565.39,-1104.42 567.25,-1105.79 568.93,-1107.23 570.44,-1108.72 571.77,-1110.27 572.91,-1111.86 573.88,-1113.51 574.65,-1115.19 575.25,-1116.92 575.67,-1118.67 575.9,-1120.45 575.97,-1122.26 575.86,-1124.08 575.59,-1125.92 575.16,-1127.76 574.58,-1129.61 573.85,-1131.45 572.97,-1133.28 571.97,-1135.11 570.84,-1136.91 569.59,-1138.69 568.23,-1140.45 566.77,-1142.17 565.21,-1143.86 563.56,-1145.5 561.83,-1147.1 560.03,-1148.65 558.16,-1150.14 556.23,-1151.57 554.25,-1152.95 552.22,-1154.25 550.14,-1155.49 548.03,-1156.65 545.89,-1157.73 543.71,-1158.74 541.52,-1159.66 539.3,-1160.5 537.07,-1161.25 534.82,-1161.91 532.56,-1162.48 530.29,-1162.96 528.01,-1163.34 525.73,-1163.63 523.44,-1163.82 521.16,-1163.92 518.87,-1163.92 516.58,-1163.82 514.29,-1163.63 512.01,-1163.34 509.73,-1162.96 507.46,-1162.48 505.2,-1161.91 502.95,-1161.25 500.72,-1160.5 498.5,-1159.66 496.31,-1158.74 494.13,-1157.73 491.99,-1156.65 489.88,-1155.49 487.81,-1154.25 485.77,-1152.95 483.79,-1151.57 481.86,-1150.14 479.99,-1148.65 478.19,-1147.1 476.46,-1145.5 474.81,-1143.86 473.25,-1142.17 471.79,-1140.45 470.43,-1138.69 469.18,-1136.91 468.05,-1135.11 467.05,-1133.28 466.18,-1131.45 465.44,-1129.61 464.86,-1127.76 464.43,-1125.92 464.16,-1124.08 464.05,-1122.26 464.12,-1120.45 464.36,-1118.67 464.77,-1116.92 465.37,-1115.19 466.15,-1113.51 467.11,-1111.86 468.25,-1110.27 469.58,-1108.72 471.09,-1107.23 472.77,-1105.79 474.64,-1104.42 476.67,-1103.12 478.86,-1101.88 481.22,-1100.72 483.72,-1099.63 486.37,-1098.63 489.15,-1097.71 492.05,-1096.87 495.07,-1096.12 498.18,-1095.46 501.39,-1094.89 504.67,-1094.41 508.01,-1094.03 511.4,-1093.74 514.83,-1093.54 518.28,-1093.45 521.74,-1093.45 525.19,-1093.54"/>
<text text-anchor="start" x="490.84" y="-1138.48" font-family="Times,serif" font-size="14.00">C0226896</text>
<text text-anchor="start" x="509.13" y="-1124.48" font-family="Times,serif" font-size="14.00">oral</text>
<text text-anchor="start" x="504.07" y="-1110.48" font-family="Times,serif" font-size="14.00">56:56</text>
</g>
<!-- id_28523090_DOT_3 -->
<g id="node3" class="node">
<title>id_28523090_DOT_3</title>
<polygon fill="blue" stroke="blue" points="519.33,-661.39 523.54,-661.58 527.7,-661.87 531.79,-662.26 535.82,-662.73 539.74,-663.3 543.56,-663.96 547.26,-664.71 550.82,-665.55 554.22,-666.48 557.47,-667.48 560.54,-668.56 563.42,-669.73 566.12,-670.96 568.61,-672.27 570.89,-673.64 572.96,-675.07 574.8,-676.56 576.43,-678.11 577.83,-679.71 579.01,-681.35 579.97,-683.04 580.7,-684.76 581.21,-686.52 581.5,-688.3 581.58,-690.11 581.45,-691.93 581.11,-693.76 580.59,-695.61 579.87,-697.45 578.98,-699.29 577.91,-701.13 576.68,-702.95 575.29,-704.76 573.76,-706.54 572.09,-708.29 570.3,-710.02 568.39,-711.7 566.37,-713.35 564.25,-714.95 562.04,-716.49 559.75,-717.99 557.38,-719.42 554.95,-720.79 552.46,-722.1 549.92,-723.33 547.33,-724.49 544.7,-725.58 542.04,-726.58 539.35,-727.5 536.63,-728.34 533.9,-729.09 531.14,-729.75 528.37,-730.32 525.59,-730.8 522.8,-731.19 520,-731.47 517.2,-731.67 514.39,-731.76 511.59,-731.76 508.78,-731.67 505.98,-731.47 503.18,-731.19 500.39,-730.8 497.61,-730.32 494.84,-729.75 492.08,-729.09 489.34,-728.34 486.63,-727.5 483.93,-726.58 481.27,-725.58 478.64,-724.49 476.06,-723.33 473.51,-722.1 471.02,-720.79 468.59,-719.42 466.23,-717.99 463.94,-716.49 461.73,-714.95 459.61,-713.35 457.59,-711.7 455.68,-710.02 453.88,-708.29 452.22,-706.54 450.69,-704.76 449.3,-702.95 448.07,-701.13 447,-699.29 446.11,-697.45 445.39,-695.61 444.86,-693.76 444.53,-691.93 444.4,-690.11 444.48,-688.3 444.77,-686.52 445.28,-684.76 446.01,-683.04 446.96,-681.35 448.14,-679.71 449.55,-678.11 451.17,-676.56 453.02,-675.07 455.09,-673.64 457.37,-672.27 459.86,-670.96 462.55,-669.73 465.44,-668.56 468.51,-667.48 471.75,-666.48 475.16,-665.55 478.72,-664.71 482.41,-663.96 486.23,-663.3 490.16,-662.73 494.18,-662.26 498.28,-661.87 502.44,-661.58 506.64,-661.39 510.87,-661.29 515.11,-661.29 519.33,-661.39"/>
<text text-anchor="start" x="483.82" y="-706.33" font-family="Times,serif" font-size="14.00">C0027423</text>
<text text-anchor="start" x="475.48" y="-692.33" font-family="Times,serif" font-size="14.00">nasal cavities</text>
<text text-anchor="start" x="497.04" y="-678.33" font-family="Times,serif" font-size="14.00">58:59</text>
</g>
<!-- id_28523090_DOT_2&#45;&#45;id_28523090_DOT_3 -->
<g id="edge2" class="edge">
<title>id_28523090_DOT_2&#45;&#45;id_28523090_DOT_3</title>
<path fill="none" stroke="black" stroke-dasharray="1,5" d="M519.44,-1093.32C518.12,-1012.08 514.88,-812.9 513.56,-731.78"/>
<text text-anchor="middle" x="490.25" y="-915.35" font-family="Times,serif" font-size="14.00">0.806486</text>
</g>
<!-- id_28523090_DOT_2&#45;&#45;id_28523090_DOT_5 -->
<g id="edge3" class="edge">
<title>id_28523090_DOT_2&#45;&#45;id_28523090_DOT_5</title>
<path fill="none" stroke="black" stroke-dasharray="1,5" d="M546.78,-1157.44C597.42,-1211.84 707.02,-1329.59 761.67,-1388.31"/>
<text text-anchor="middle" x="627.98" y="-1275.67" font-family="Times,serif" font-size="14.00">0.921030</text>
</g>
<!-- id_28523090_DOT_9 -->
<g id="node9" class="node">
<title>id_28523090_DOT_9</title>
<polygon fill="cornflowerblue" stroke="cornflowerblue" points="203.03,-1352.27 206.46,-1352.46 209.85,-1352.75 213.19,-1353.13 216.47,-1353.61 219.68,-1354.18 222.79,-1354.84 225.81,-1355.59 228.71,-1356.43 231.49,-1357.35 234.14,-1358.36 236.64,-1359.44 239,-1360.61 241.19,-1361.84 243.22,-1363.14 245.09,-1364.52 246.77,-1365.95 248.28,-1367.44 249.61,-1368.99 250.75,-1370.59 251.71,-1372.23 252.49,-1373.92 253.09,-1375.64 253.5,-1377.4 253.74,-1379.18 253.81,-1380.98 253.7,-1382.81 253.43,-1384.64 253,-1386.48 252.42,-1388.33 251.68,-1390.17 250.81,-1392.01 249.81,-1393.83 248.68,-1395.64 247.43,-1397.42 246.07,-1399.17 244.6,-1400.9 243.05,-1402.58 241.4,-1404.23 239.67,-1405.82 237.87,-1407.37 236,-1408.86 234.07,-1410.3 232.09,-1411.67 230.05,-1412.98 227.98,-1414.21 225.87,-1415.37 223.72,-1416.46 221.55,-1417.46 219.36,-1418.38 217.14,-1419.22 214.91,-1419.97 212.66,-1420.63 210.4,-1421.2 208.13,-1421.68 205.85,-1422.06 203.57,-1422.35 201.28,-1422.55 198.99,-1422.64 196.7,-1422.64 194.42,-1422.55 192.13,-1422.35 189.85,-1422.06 187.57,-1421.68 185.3,-1421.2 183.04,-1420.63 180.79,-1419.97 178.56,-1419.22 176.34,-1418.38 174.15,-1417.46 171.97,-1416.46 169.83,-1415.37 167.72,-1414.21 165.64,-1412.98 163.61,-1411.67 161.63,-1410.3 159.7,-1408.86 157.83,-1407.37 156.03,-1405.82 154.3,-1404.23 152.65,-1402.58 151.09,-1400.9 149.63,-1399.17 148.27,-1397.42 147.02,-1395.64 145.89,-1393.83 144.89,-1392.01 144.01,-1390.17 143.28,-1388.33 142.7,-1386.48 142.27,-1384.64 142,-1382.81 141.89,-1380.98 141.96,-1379.18 142.19,-1377.4 142.61,-1375.64 143.21,-1373.92 143.98,-1372.23 144.95,-1370.59 146.09,-1368.99 147.42,-1367.44 148.93,-1365.95 150.61,-1364.52 152.47,-1363.14 154.5,-1361.84 156.7,-1360.61 159.06,-1359.44 161.56,-1358.36 164.21,-1357.35 166.99,-1356.43 169.89,-1355.59 172.91,-1354.84 176.02,-1354.18 179.23,-1353.61 182.51,-1353.13 185.85,-1352.75 189.24,-1352.46 192.67,-1352.27 196.12,-1352.17 199.58,-1352.17 203.03,-1352.27"/>
<text text-anchor="start" x="168.68" y="-1397.21" font-family="Times,serif" font-size="14.00">C0700374</text>
<text text-anchor="start" x="181.14" y="-1383.21" font-family="Times,serif" font-size="14.00">palate</text>
<text text-anchor="start" x="175.42" y="-1369.21" font-family="Times,serif" font-size="14.00">110:110</text>
</g>
<!-- id_28523090_DOT_2&#45;&#45;id_28523090_DOT_9 -->
<g id="edge4" class="edge">
<title>id_28523090_DOT_2&#45;&#45;id_28523090_DOT_9</title>
<path fill="none" stroke="black" stroke-dasharray="1,5" d="M487.94,-1154.44C427.62,-1202.88 297.65,-1307.26 234.19,-1358.22"/>
<text text-anchor="middle" x="334.82" y="-1259.13" font-family="Times,serif" font-size="14.00">0.685443</text>
</g>
<!-- id_28523090_DOT_4 -->
<g id="node4" class="node">
<title>id_28523090_DOT_4</title>
<polygon fill="blueviolet" stroke="blueviolet" points="292.38,-310.93 296.5,-311.12 300.57,-311.41 304.59,-311.79 308.54,-312.27 312.39,-312.84 316.13,-313.5 319.76,-314.25 323.25,-315.09 326.59,-316.01 329.77,-317.02 332.78,-318.1 335.61,-319.26 338.25,-320.5 340.69,-321.8 342.92,-323.17 344.95,-324.61 346.76,-326.1 348.36,-327.65 349.74,-329.25 350.89,-330.89 351.83,-332.58 352.54,-334.3 353.04,-336.06 353.33,-337.84 353.4,-339.64 353.28,-341.47 352.95,-343.3 352.43,-345.14 351.73,-346.99 350.85,-348.83 349.81,-350.67 348.6,-352.49 347.24,-354.29 345.74,-356.08 344.11,-357.83 342.35,-359.55 340.47,-361.24 338.49,-362.88 336.42,-364.48 334.25,-366.03 332,-367.52 329.68,-368.96 327.3,-370.33 324.86,-371.63 322.37,-372.87 319.83,-374.03 317.25,-375.11 314.64,-376.12 312,-377.04 309.34,-377.88 306.65,-378.63 303.95,-379.29 301.24,-379.86 298.51,-380.34 295.77,-380.72 293.03,-381.01 290.28,-381.21 287.53,-381.3 284.78,-381.3 282.03,-381.21 279.28,-381.01 276.54,-380.72 273.8,-380.34 271.07,-379.86 268.36,-379.29 265.65,-378.63 262.97,-377.88 260.31,-377.04 257.67,-376.12 255.06,-375.11 252.48,-374.03 249.94,-372.87 247.45,-371.63 245.01,-370.33 242.62,-368.96 240.3,-367.52 238.06,-366.03 235.89,-364.48 233.81,-362.88 231.83,-361.24 229.96,-359.55 228.2,-357.83 226.57,-356.08 225.07,-354.29 223.71,-352.49 222.5,-350.67 221.45,-348.83 220.57,-346.99 219.87,-345.14 219.36,-343.3 219.03,-341.47 218.9,-339.64 218.98,-337.84 219.27,-336.06 219.77,-334.3 220.48,-332.58 221.42,-330.89 222.57,-329.25 223.95,-327.65 225.54,-326.1 227.36,-324.61 229.38,-323.17 231.62,-321.8 234.06,-320.5 236.7,-319.26 239.53,-318.1 242.54,-317.02 245.72,-316.01 249.06,-315.09 252.55,-314.25 256.18,-313.5 259.92,-312.84 263.77,-312.27 267.71,-311.79 271.73,-311.41 275.81,-311.12 279.93,-310.93 284.08,-310.83 288.23,-310.83 292.38,-310.93"/>
<text text-anchor="start" x="256.99" y="-355.87" font-family="Times,serif" font-size="14.00">C0394805</text>
<text text-anchor="start" x="249.42" y="-341.87" font-family="Times,serif" font-size="14.00">lingual nerve</text>
<text text-anchor="start" x="270.21" y="-327.87" font-family="Times,serif" font-size="14.00">86:87</text>
</g>
<!-- id_28523090_DOT_3&#45;&#45;id_28523090_DOT_4 -->
<g id="edge5" class="edge">
<title>id_28523090_DOT_3&#45;&#45;id_28523090_DOT_4</title>
<path fill="none" stroke="black" stroke-dasharray="1,5" d="M491.03,-662.61C447.39,-595.18 350.26,-445.11 307.29,-378.73"/>
<text text-anchor="middle" x="372.91" y="-523.47" font-family="Times,serif" font-size="14.00">0.796864</text>
</g>
<!-- id_28523090_DOT_6 -->
<g id="node6" class="node">
<title>id_28523090_DOT_6</title>
<polygon fill="cadetblue" stroke="cadetblue" points="122.23,-717.28 129.08,-717.48 135.85,-717.77 142.53,-718.15 149.09,-718.63 155.49,-719.2 161.71,-719.86 167.74,-720.61 173.53,-721.45 179.09,-722.37 184.37,-723.38 189.38,-724.46 194.08,-725.62 198.47,-726.86 202.52,-728.16 206.24,-729.53 209.61,-730.97 212.62,-732.46 215.28,-734.01 217.56,-735.6 219.48,-737.25 221.04,-738.94 222.23,-740.66 223.06,-742.41 223.53,-744.2 223.66,-746 223.45,-747.82 222.91,-749.66 222.05,-751.5 220.88,-753.35 219.42,-755.19 217.68,-757.02 215.68,-758.85 213.42,-760.65 210.92,-762.43 208.21,-764.19 205.28,-765.91 202.17,-767.6 198.88,-769.24 195.42,-770.84 191.82,-772.39 188.09,-773.88 184.24,-775.32 180.27,-776.69 176.22,-777.99 172.07,-779.23 167.86,-780.39 163.57,-781.47 159.24,-782.48 154.85,-783.4 150.42,-784.24 145.96,-784.99 141.47,-785.65 136.95,-786.22 132.42,-786.7 127.87,-787.08 123.31,-787.37 118.74,-787.56 114.17,-787.66 109.6,-787.66 105.03,-787.56 100.46,-787.37 95.9,-787.08 91.35,-786.7 86.82,-786.22 82.31,-785.65 77.82,-784.99 73.35,-784.24 68.92,-783.4 64.54,-782.48 60.2,-781.47 55.92,-780.39 51.7,-779.23 47.56,-777.99 43.5,-776.69 39.54,-775.32 35.68,-773.88 31.95,-772.39 28.35,-770.84 24.9,-769.24 21.61,-767.6 18.49,-765.91 15.57,-764.19 12.85,-762.43 10.36,-760.65 8.1,-758.85 6.09,-757.02 4.35,-755.19 2.89,-753.35 1.72,-751.5 0.87,-749.66 0.32,-747.82 0.11,-746 0.24,-744.2 0.72,-742.41 1.55,-740.66 2.74,-738.94 4.29,-737.25 6.21,-735.6 8.5,-734.01 11.15,-732.46 14.16,-730.97 17.53,-729.53 21.25,-728.16 25.31,-726.86 29.69,-725.62 34.4,-724.46 39.4,-723.38 44.69,-722.37 50.24,-721.45 56.04,-720.61 62.06,-719.86 68.29,-719.2 74.69,-718.63 81.24,-718.15 87.92,-717.77 94.7,-717.48 101.54,-717.28 108.43,-717.19 115.34,-717.19 122.23,-717.28"/>
<text text-anchor="start" x="82.72" y="-762.22" font-family="Times,serif" font-size="14.00">C0412771</text>
<text text-anchor="start" x="45.6" y="-748.22" font-family="Times,serif" font-size="14.00">spontaneous respiration</text>
<text text-anchor="start" x="88.94" y="-734.22" font-family="Times,serif" font-size="14.00">101:102</text>
</g>
<!-- id_28523090_DOT_3&#45;&#45;id_28523090_DOT_6 -->
<g id="edge6" class="edge">
<title>id_28523090_DOT_3&#45;&#45;id_28523090_DOT_6</title>
<path fill="none" stroke="black" stroke-dasharray="1,5" d="M450.76,-705.2C389.25,-713.77 293.91,-727.06 220.01,-737.36"/>
<text text-anchor="middle" x="309.13" y="-724.08" font-family="Times,serif" font-size="14.00">0.755799</text>
</g>
<!-- id_28523090_DOT_8 -->
<g id="node8" class="node">
<title>id_28523090_DOT_8</title>
<polygon fill="coral" stroke="coral" points="927.95,-644.64 931.38,-644.83 934.77,-645.12 938.11,-645.5 941.39,-645.98 944.6,-646.55 947.71,-647.21 950.73,-647.96 953.63,-648.8 956.41,-649.72 959.06,-650.73 961.56,-651.81 963.92,-652.97 966.11,-654.21 968.15,-655.51 970.01,-656.88 971.69,-658.32 973.2,-659.81 974.53,-661.36 975.67,-662.96 976.64,-664.6 977.41,-666.29 978.01,-668.01 978.42,-669.76 978.66,-671.55 978.73,-673.35 978.62,-675.18 978.35,-677.01 977.92,-678.85 977.34,-680.7 976.61,-682.54 975.73,-684.38 974.73,-686.2 973.6,-688 972.35,-689.79 970.99,-691.54 969.53,-693.26 967.97,-694.95 966.32,-696.59 964.59,-698.19 962.79,-699.74 960.92,-701.23 958.99,-702.67 957.01,-704.04 954.98,-705.34 952.9,-706.58 950.79,-707.74 948.65,-708.82 946.47,-709.83 944.28,-710.75 942.06,-711.59 939.83,-712.34 937.58,-713 935.32,-713.57 933.05,-714.05 930.77,-714.43 928.49,-714.72 926.2,-714.91 923.91,-715.01 921.63,-715.01 919.34,-714.91 917.05,-714.72 914.77,-714.43 912.49,-714.05 910.22,-713.57 907.96,-713 905.71,-712.34 903.48,-711.59 901.26,-710.75 899.07,-709.83 896.89,-708.82 894.75,-707.74 892.64,-706.58 890.56,-705.34 888.53,-704.04 886.55,-702.67 884.62,-701.23 882.75,-699.74 880.95,-698.19 879.22,-696.59 877.57,-694.95 876.01,-693.26 874.55,-691.54 873.19,-689.79 871.94,-688 870.81,-686.2 869.81,-684.38 868.94,-682.54 868.2,-680.7 867.62,-678.85 867.19,-677.01 866.92,-675.18 866.81,-673.35 866.88,-671.55 867.12,-669.76 867.53,-668.01 868.13,-666.29 868.91,-664.6 869.87,-662.96 871.01,-661.36 872.34,-659.81 873.85,-658.32 875.53,-656.88 877.39,-655.51 879.43,-654.21 881.62,-652.97 883.98,-651.81 886.48,-650.73 889.13,-649.72 891.91,-648.8 894.81,-647.96 897.83,-647.21 900.94,-646.55 904.15,-645.98 907.43,-645.5 910.77,-645.12 914.16,-644.83 917.59,-644.64 921.04,-644.54 924.5,-644.54 927.95,-644.64"/>
<text text-anchor="start" x="893.6" y="-689.58" font-family="Times,serif" font-size="14.00">C0243095</text>
<text text-anchor="start" x="895.56" y="-675.58" font-family="Times,serif" font-size="14.00">distracted</text>
<text text-anchor="start" x="899.83" y="-661.58" font-family="Times,serif" font-size="14.00">107:107</text>
</g>
<!-- id_28523090_DOT_3&#45;&#45;id_28523090_DOT_8 -->
<g id="edge7" class="edge">
<title>id_28523090_DOT_3&#45;&#45;id_28523090_DOT_8</title>
<path fill="none" stroke="black" stroke-dasharray="1,5" d="M581.58,-693.72C662.35,-690.42 794.84,-685.01 868.7,-681.99"/>
<text text-anchor="middle" x="698.89" y="-690.66" font-family="Times,serif" font-size="14.00">0.855694</text>
</g>
<!-- id_28523090_DOT_10 -->
<g id="node10" class="node">
<title>id_28523090_DOT_10</title>
<polygon fill="crimson" stroke="crimson" points="767.87,-334.42 771.99,-334.61 776.06,-334.9 780.08,-335.28 784.02,-335.76 787.88,-336.33 791.62,-336.99 795.24,-337.74 798.73,-338.58 802.07,-339.5 805.25,-340.51 808.26,-341.59 811.09,-342.75 813.73,-343.99 816.17,-345.29 818.41,-346.66 820.43,-348.1 822.25,-349.59 823.84,-351.14 825.22,-352.74 826.37,-354.38 827.31,-356.07 828.02,-357.79 828.52,-359.54 828.81,-361.33 828.89,-363.13 828.76,-364.95 828.43,-366.79 827.92,-368.63 827.22,-370.48 826.34,-372.32 825.29,-374.15 824.08,-375.98 822.72,-377.78 821.22,-379.56 819.59,-381.32 817.83,-383.04 815.96,-384.73 813.98,-386.37 811.9,-387.97 809.73,-389.52 807.49,-391.01 805.17,-392.45 802.79,-393.82 800.35,-395.12 797.85,-396.36 795.32,-397.52 792.74,-398.6 790.13,-399.61 787.49,-400.53 784.83,-401.37 782.14,-402.12 779.44,-402.78 776.72,-403.35 774,-403.83 771.26,-404.21 768.52,-404.5 765.77,-404.69 763.02,-404.79 760.27,-404.79 757.52,-404.69 754.77,-404.5 752.03,-404.21 749.29,-403.83 746.57,-403.35 743.85,-402.78 741.15,-402.12 738.46,-401.37 735.8,-400.53 733.16,-399.61 730.55,-398.6 727.98,-397.52 725.44,-396.36 722.95,-395.12 720.51,-393.82 718.12,-392.45 715.8,-391.01 713.56,-389.52 711.39,-387.97 709.31,-386.37 707.34,-384.73 705.46,-383.04 703.7,-381.32 702.07,-379.56 700.57,-377.78 699.21,-375.98 698,-374.15 696.95,-372.32 696.08,-370.48 695.38,-368.63 694.86,-366.79 694.53,-364.95 694.41,-363.13 694.48,-361.33 694.77,-359.54 695.27,-357.79 695.98,-356.07 696.92,-354.38 698.07,-352.74 699.45,-351.14 701.04,-349.59 702.86,-348.1 704.88,-346.66 707.12,-345.29 709.56,-343.99 712.2,-342.75 715.03,-341.59 718.04,-340.51 721.22,-339.5 724.56,-338.58 728.05,-337.74 731.67,-336.99 735.42,-336.33 739.27,-335.76 743.21,-335.28 747.23,-334.9 751.3,-334.61 755.42,-334.42 759.57,-334.32 763.72,-334.32 767.87,-334.42"/>
<text text-anchor="start" x="732.48" y="-379.35" font-family="Times,serif" font-size="14.00">C0458827</text>
<text text-anchor="start" x="724.91" y="-365.35" font-family="Times,serif" font-size="14.00">upper airway</text>
<text text-anchor="start" x="738.7" y="-351.35" font-family="Times,serif" font-size="14.00">162:163</text>
</g>
<!-- id_28523090_DOT_3&#45;&#45;id_28523090_DOT_10 -->
<g id="edge8" class="edge">
<title>id_28523090_DOT_3&#45;&#45;id_28523090_DOT_10</title>
<path fill="none" stroke="black" stroke-dasharray="1,5" d="M538.43,-663.07C586.58,-599.76 690.41,-463.22 737.52,-401.27"/>
<text text-anchor="middle" x="611.73" y="-534.97" font-family="Times,serif" font-size="14.00">0.787580</text>
</g>
<!-- id_28523090_DOT_7 -->
<g id="node7" class="node">
<title>id_28523090_DOT_7</title>
<polygon fill="chartreuse" stroke="chartreuse" points="67.71,-0.23 71.14,-0.42 74.53,-0.71 77.88,-1.09 81.16,-1.57 84.36,-2.14 87.48,-2.8 90.49,-3.55 93.4,-4.39 96.18,-5.31 98.82,-6.32 101.33,-7.4 103.68,-8.57 105.88,-9.8 107.91,-11.1 109.77,-12.48 111.46,-13.91 112.97,-15.4 114.29,-16.95 115.44,-18.55 116.4,-20.19 117.18,-21.88 117.77,-23.6 118.19,-25.36 118.43,-27.14 118.49,-28.94 118.38,-30.77 118.11,-32.6 117.68,-34.44 117.1,-36.29 116.37,-38.13 115.5,-39.97 114.49,-41.79 113.36,-43.6 112.11,-45.38 110.75,-47.13 109.29,-48.86 107.73,-50.54 106.08,-52.19 104.36,-53.78 102.55,-55.33 100.68,-56.82 98.75,-58.26 96.77,-59.63 94.74,-60.94 92.67,-62.17 90.55,-63.33 88.41,-64.42 86.24,-65.42 84.04,-66.34 81.83,-67.18 79.59,-67.93 77.34,-68.59 75.08,-69.16 72.81,-69.64 70.54,-70.02 68.25,-70.31 65.97,-70.51 63.68,-70.6 61.39,-70.6 59.1,-70.51 56.81,-70.31 54.53,-70.02 52.26,-69.64 49.99,-69.16 47.73,-68.59 45.48,-67.93 43.24,-67.18 41.03,-66.34 38.83,-65.42 36.66,-64.42 34.51,-63.33 32.4,-62.17 30.33,-60.94 28.3,-59.63 26.31,-58.26 24.38,-56.82 22.52,-55.33 20.71,-53.78 18.98,-52.19 17.34,-50.54 15.78,-48.86 14.31,-47.13 12.95,-45.38 11.71,-43.6 10.58,-41.79 9.57,-39.97 8.7,-38.13 7.97,-36.29 7.38,-34.44 6.95,-32.6 6.68,-30.77 6.58,-28.94 6.64,-27.14 6.88,-25.36 7.3,-23.6 7.89,-21.88 8.67,-20.19 9.63,-18.55 10.78,-16.95 12.1,-15.4 13.61,-13.91 15.3,-12.48 17.16,-11.1 19.19,-9.8 21.39,-8.57 23.74,-7.4 26.25,-6.32 28.89,-5.31 31.67,-4.39 34.58,-3.55 37.59,-2.8 40.71,-2.14 43.91,-1.57 47.19,-1.09 50.54,-0.71 53.93,-0.42 57.36,-0.23 60.81,-0.13 64.26,-0.13 67.71,-0.23"/>
<text text-anchor="start" x="33.37" y="-45.17" font-family="Times,serif" font-size="14.00">C0040408</text>
<text text-anchor="start" x="43.48" y="-31.17" font-family="Times,serif" font-size="14.00">tongue</text>
<text text-anchor="start" x="39.59" y="-17.17" font-family="Times,serif" font-size="14.00">105:105</text>
</g>
<!-- id_28523090_DOT_4&#45;&#45;id_28523090_DOT_7 -->
<g id="edge9" class="edge">
<title>id_28523090_DOT_4&#45;&#45;id_28523090_DOT_7</title>
<path fill="none" stroke="black" stroke-dasharray="1,5" d="M262.01,-312.52C218.42,-251.95 127.18,-125.18 84.91,-66.46"/>
<text text-anchor="middle" x="147.21" y="-192.29" font-family="Times,serif" font-size="14.00">0.681682</text>
</g>
</g>
</svg>
