<?xml version="1.0" encoding="UTF-8" standalone="no"?>
<!DOCTYPE svg PUBLIC "-//W3C//DTD SVG 1.1//EN"
 "http://www.w3.org/Graphics/SVG/1.1/DTD/svg11.dtd">
<!-- Generated by graphviz version 2.42.3 (20191010.1750)
 -->
<!-- Title: MST Pages: 1 -->
<svg width="6851pt" height="3165pt"
 viewBox="0.00 0.00 6851.15 3165.29" xmlns="http://www.w3.org/2000/svg" xmlns:xlink="http://www.w3.org/1999/xlink">
<g id="graph0" class="graph" transform="scale(1 1) rotate(0) translate(4 3161.29)">
<title>MST</title>
<polygon fill="white" stroke="transparent" points="-4,4 -4,-3161.29 6847.15,-3161.29 6847.15,4 -4,4"/>
<!-- id_28520661_DOT_1 -->
<g id="node1" class="node">
<title>id_28520661_DOT_1</title>
<polygon fill="aquamarine" stroke="aquamarine" points="2321.24,-1419.02 2327.94,-1419.22 2334.58,-1419.51 2341.12,-1419.89 2347.53,-1420.37 2353.8,-1420.94 2359.89,-1421.6 2365.79,-1422.35 2371.46,-1423.19 2376.9,-1424.11 2382.07,-1425.12 2386.97,-1426.2 2391.57,-1427.36 2395.87,-1428.6 2399.84,-1429.9 2403.48,-1431.27 2406.78,-1432.71 2409.73,-1434.2 2412.32,-1435.75 2414.56,-1437.35 2416.44,-1438.99 2417.96,-1440.68 2419.13,-1442.4 2419.94,-1444.15 2420.4,-1445.94 2420.53,-1447.74 2420.32,-1449.56 2419.79,-1451.4 2418.95,-1453.24 2417.81,-1455.09 2416.38,-1456.93 2414.68,-1458.76 2412.71,-1460.59 2410.5,-1462.39 2408.06,-1464.17 2405.4,-1465.93 2402.54,-1467.65 2399.49,-1469.34 2396.27,-1470.98 2392.89,-1472.58 2389.37,-1474.13 2385.71,-1475.62 2381.94,-1477.06 2378.06,-1478.43 2374.09,-1479.73 2370.03,-1480.97 2365.9,-1482.13 2361.71,-1483.21 2357.47,-1484.22 2353.17,-1485.14 2348.84,-1485.98 2344.47,-1486.73 2340.07,-1487.39 2335.65,-1487.96 2331.21,-1488.44 2326.76,-1488.82 2322.3,-1489.11 2317.83,-1489.3 2313.35,-1489.4 2308.88,-1489.4 2304.4,-1489.3 2299.93,-1489.11 2295.47,-1488.82 2291.02,-1488.44 2286.58,-1487.96 2282.16,-1487.39 2277.76,-1486.73 2273.4,-1485.98 2269.06,-1485.14 2264.77,-1484.22 2260.52,-1483.21 2256.33,-1482.13 2252.2,-1480.97 2248.14,-1479.73 2244.17,-1478.43 2240.29,-1477.06 2236.52,-1475.62 2232.87,-1474.13 2229.34,-1472.58 2225.96,-1470.98 2222.74,-1469.34 2219.69,-1467.65 2216.83,-1465.93 2214.17,-1464.17 2211.73,-1462.39 2209.52,-1460.59 2207.55,-1458.76 2205.85,-1456.93 2204.42,-1455.09 2203.28,-1453.24 2202.44,-1451.4 2201.91,-1449.56 2201.7,-1447.74 2201.83,-1445.94 2202.29,-1444.15 2203.11,-1442.4 2204.27,-1440.68 2205.79,-1438.99 2207.67,-1437.35 2209.91,-1435.75 2212.5,-1434.2 2215.45,-1432.71 2218.75,-1431.27 2222.39,-1429.9 2226.36,-1428.6 2230.66,-1427.36 2235.26,-1426.2 2240.16,-1425.12 2245.33,-1424.11 2250.77,-1423.19 2256.45,-1422.35 2262.34,-1421.6 2268.43,-1420.94 2274.7,-1420.37 2281.12,-1419.89 2287.65,-1419.51 2294.29,-1419.22 2300.99,-1419.02 2307.74,-1418.93 2314.5,-1418.93 2321.24,-1419.02"/>
<text text-anchor="start" x="2281.95" y="-1463.96" font-family="Times,serif" font-size="14.00">C0876926</text>
<text text-anchor="start" x="2246.44" y="-1449.96" font-family="Times,serif" font-size="14.00">Traumatic Brain Injury</text>
<text text-anchor="start" x="2302.17" y="-1435.96" font-family="Times,serif" font-size="14.00">0:2</text>
</g>
<!-- id_28520661_DOT_3 -->
<g id="node3" class="node">
<title>id_28520661_DOT_3</title>
<polygon fill="aquamarine" stroke="aquamarine" points="2707.1,-1300.91 2713.85,-1301.1 2720.54,-1301.39 2727.14,-1301.77 2733.6,-1302.25 2739.92,-1302.82 2746.06,-1303.48 2752.01,-1304.23 2757.73,-1305.07 2763.21,-1305.99 2768.43,-1307 2773.37,-1308.08 2778.01,-1309.24 2782.34,-1310.48 2786.35,-1311.78 2790.02,-1313.16 2793.34,-1314.59 2796.31,-1316.08 2798.93,-1317.63 2801.19,-1319.23 2803.08,-1320.87 2804.62,-1322.56 2805.79,-1324.28 2806.61,-1326.04 2807.08,-1327.82 2807.21,-1329.62 2807,-1331.45 2806.46,-1333.28 2805.62,-1335.12 2804.46,-1336.97 2803.02,-1338.81 2801.31,-1340.65 2799.33,-1342.47 2797.1,-1344.28 2794.63,-1346.06 2791.95,-1347.81 2789.07,-1349.54 2785.99,-1351.22 2782.75,-1352.87 2779.34,-1354.46 2775.78,-1356.01 2772.1,-1357.5 2768.3,-1358.94 2764.39,-1360.31 2760.38,-1361.61 2756.29,-1362.85 2752.13,-1364.01 2747.9,-1365.1 2743.62,-1366.1 2739.29,-1367.02 2734.92,-1367.86 2730.52,-1368.61 2726.08,-1369.27 2721.63,-1369.84 2717.15,-1370.32 2712.66,-1370.7 2708.16,-1370.99 2703.66,-1371.19 2699.14,-1371.28 2694.63,-1371.28 2690.12,-1371.19 2685.61,-1370.99 2681.11,-1370.7 2676.62,-1370.32 2672.15,-1369.84 2667.69,-1369.27 2663.26,-1368.61 2658.86,-1367.86 2654.48,-1367.02 2650.15,-1366.1 2645.87,-1365.1 2641.65,-1364.01 2637.48,-1362.85 2633.39,-1361.61 2629.39,-1360.31 2625.48,-1358.94 2621.67,-1357.5 2617.99,-1356.01 2614.44,-1354.46 2611.03,-1352.87 2607.78,-1351.22 2604.71,-1349.54 2601.82,-1347.81 2599.14,-1346.06 2596.68,-1344.28 2594.45,-1342.47 2592.47,-1340.65 2590.75,-1338.81 2589.31,-1336.97 2588.16,-1335.12 2587.31,-1333.28 2586.78,-1331.45 2586.57,-1329.62 2586.7,-1327.82 2587.16,-1326.04 2587.98,-1324.28 2589.16,-1322.56 2590.69,-1320.87 2592.59,-1319.23 2594.84,-1317.63 2597.46,-1316.08 2600.43,-1314.59 2603.76,-1313.16 2607.43,-1311.78 2611.43,-1310.48 2615.76,-1309.24 2620.41,-1308.08 2625.34,-1307 2630.56,-1305.99 2636.04,-1305.07 2641.77,-1304.23 2647.71,-1303.48 2653.85,-1302.82 2660.17,-1302.25 2666.64,-1301.77 2673.23,-1301.39 2679.92,-1301.1 2686.68,-1300.91 2693.48,-1300.81 2700.29,-1300.81 2707.1,-1300.91"/>
<text text-anchor="start" x="2667.72" y="-1345.85" font-family="Times,serif" font-size="14.00">C0876926</text>
<text text-anchor="start" x="2631.58" y="-1331.85" font-family="Times,serif" font-size="14.00">traumatic brain injuries</text>
<text text-anchor="start" x="2680.94" y="-1317.85" font-family="Times,serif" font-size="14.00">26:28</text>
</g>
<!-- id_28520661_DOT_1&#45;&#45;id_28520661_DOT_3 -->
<g id="edge1" class="edge">
<title>id_28520661_DOT_1&#45;&#45;id_28520661_DOT_3</title>
<path fill="none" stroke="black" d="M2395.3,-1428.39C2463.58,-1407.48 2558.85,-1378.31 2623.93,-1358.39"/>
<text text-anchor="middle" x="2483.36" y="-1396.19" font-family="Times,serif" font-size="14.00">0.000267</text>
</g>
<!-- id_28520661_DOT_7 -->
<g id="node7" class="node">
<title>id_28520661_DOT_7</title>
<polygon fill="aquamarine" stroke="aquamarine" points="1942.87,-1514.72 1946.3,-1514.91 1949.69,-1515.2 1953.04,-1515.59 1956.32,-1516.06 1959.52,-1516.63 1962.64,-1517.29 1965.65,-1518.05 1968.56,-1518.88 1971.34,-1519.81 1973.98,-1520.81 1976.49,-1521.9 1978.84,-1523.06 1981.04,-1524.29 1983.07,-1525.6 1984.93,-1526.97 1986.62,-1528.4 1988.13,-1529.89 1989.45,-1531.44 1990.6,-1533.04 1991.56,-1534.68 1992.34,-1536.37 1992.93,-1538.09 1993.35,-1539.85 1993.59,-1541.63 1993.65,-1543.44 1993.54,-1545.26 1993.27,-1547.09 1992.84,-1548.94 1992.26,-1550.78 1991.53,-1552.62 1990.66,-1554.46 1989.65,-1556.28 1988.52,-1558.09 1987.27,-1559.87 1985.91,-1561.62 1984.45,-1563.35 1982.89,-1565.03 1981.24,-1566.68 1979.51,-1568.28 1977.71,-1569.82 1975.84,-1571.32 1973.91,-1572.75 1971.93,-1574.12 1969.9,-1575.43 1967.83,-1576.66 1965.71,-1577.82 1963.57,-1578.91 1961.4,-1579.91 1959.2,-1580.84 1956.98,-1581.67 1954.75,-1582.42 1952.5,-1583.08 1950.24,-1583.66 1947.97,-1584.13 1945.7,-1584.52 1943.41,-1584.81 1941.13,-1585 1938.84,-1585.09 1936.55,-1585.09 1934.26,-1585 1931.97,-1584.81 1929.69,-1584.52 1927.42,-1584.13 1925.15,-1583.66 1922.89,-1583.08 1920.64,-1582.42 1918.4,-1581.67 1916.19,-1580.84 1913.99,-1579.91 1911.82,-1578.91 1909.67,-1577.82 1907.56,-1576.66 1905.49,-1575.43 1903.46,-1574.12 1901.47,-1572.75 1899.54,-1571.32 1897.68,-1569.82 1895.87,-1568.28 1894.14,-1566.68 1892.5,-1565.03 1890.94,-1563.35 1889.47,-1561.62 1888.11,-1559.87 1886.87,-1558.09 1885.73,-1556.28 1884.73,-1554.46 1883.86,-1552.62 1883.13,-1550.78 1882.54,-1548.94 1882.11,-1547.09 1881.84,-1545.26 1881.74,-1543.44 1881.8,-1541.63 1882.04,-1539.85 1882.46,-1538.09 1883.05,-1536.37 1883.83,-1534.68 1884.79,-1533.04 1885.93,-1531.44 1887.26,-1529.89 1888.77,-1528.4 1890.46,-1526.97 1892.32,-1525.6 1894.35,-1524.29 1896.55,-1523.06 1898.9,-1521.9 1901.4,-1520.81 1904.05,-1519.81 1906.83,-1518.88 1909.73,-1518.05 1912.75,-1517.29 1915.87,-1516.63 1919.07,-1516.06 1922.35,-1515.59 1925.69,-1515.2 1929.09,-1514.91 1932.52,-1514.72 1935.97,-1514.62 1939.42,-1514.62 1942.87,-1514.72"/>
<text text-anchor="start" x="1908.52" y="-1559.66" font-family="Times,serif" font-size="14.00">C0876926</text>
<text text-anchor="start" x="1926.42" y="-1545.66" font-family="Times,serif" font-size="14.00">TBI</text>
<text text-anchor="start" x="1921.75" y="-1531.66" font-family="Times,serif" font-size="14.00">57:57</text>
</g>
<!-- id_28520661_DOT_1&#45;&#45;id_28520661_DOT_7 -->
<g id="edge2" class="edge">
<title>id_28520661_DOT_1&#45;&#45;id_28520661_DOT_7</title>
<path fill="none" stroke="black" d="M2232.83,-1474.22C2160.76,-1492.69 2055.7,-1519.62 1992.3,-1535.86"/>
<text text-anchor="middle" x="2086.32" y="-1507.84" font-family="Times,serif" font-size="14.00">0.003591</text>
</g>
<!-- id_28520661_DOT_2 -->
<g id="node2" class="node">
<title>id_28520661_DOT_2</title>
<polygon fill="bisque" stroke="bisque" points="6097.09,-2915.49 6100.74,-2915.68 6104.34,-2915.97 6107.9,-2916.35 6111.38,-2916.83 6114.79,-2917.4 6118.1,-2918.06 6121.3,-2918.81 6124.39,-2919.65 6127.34,-2920.57 6130.15,-2921.58 6132.81,-2922.66 6135.32,-2923.82 6137.65,-2925.06 6139.81,-2926.36 6141.79,-2927.73 6143.58,-2929.17 6145.18,-2930.66 6146.59,-2932.21 6147.81,-2933.81 6148.83,-2935.45 6149.65,-2937.14 6150.29,-2938.86 6150.73,-2940.61 6150.98,-2942.4 6151.05,-2944.2 6150.94,-2946.02 6150.65,-2947.86 6150.19,-2949.7 6149.57,-2951.55 6148.8,-2953.39 6147.87,-2955.23 6146.8,-2957.05 6145.6,-2958.85 6144.27,-2960.64 6142.83,-2962.39 6141.27,-2964.11 6139.62,-2965.8 6137.87,-2967.44 6136.03,-2969.04 6134.12,-2970.59 6132.13,-2972.08 6130.08,-2973.52 6127.97,-2974.89 6125.81,-2976.19 6123.61,-2977.43 6121.37,-2978.59 6119.09,-2979.67 6116.78,-2980.68 6114.45,-2981.6 6112.09,-2982.44 6109.72,-2983.19 6107.33,-2983.85 6104.93,-2984.42 6102.51,-2984.9 6100.1,-2985.28 6097.67,-2985.57 6095.24,-2985.76 6092.81,-2985.86 6090.38,-2985.86 6087.94,-2985.76 6085.52,-2985.57 6083.09,-2985.28 6080.67,-2984.9 6078.26,-2984.42 6075.86,-2983.85 6073.47,-2983.19 6071.1,-2982.44 6068.74,-2981.6 6066.41,-2980.68 6064.1,-2979.67 6061.82,-2978.59 6059.58,-2977.43 6057.37,-2976.19 6055.21,-2974.89 6053.11,-2973.52 6051.06,-2972.08 6049.07,-2970.59 6047.16,-2969.04 6045.32,-2967.44 6043.57,-2965.8 6041.91,-2964.11 6040.36,-2962.39 6038.91,-2960.64 6037.58,-2958.85 6036.38,-2957.05 6035.32,-2955.23 6034.39,-2953.39 6033.61,-2951.55 6032.99,-2949.7 6032.54,-2947.86 6032.25,-2946.02 6032.14,-2944.2 6032.2,-2942.4 6032.46,-2940.61 6032.9,-2938.86 6033.53,-2937.14 6034.36,-2935.45 6035.38,-2933.81 6036.6,-2932.21 6038.01,-2930.66 6039.61,-2929.17 6041.4,-2927.73 6043.38,-2926.36 6045.54,-2925.06 6047.87,-2923.82 6050.37,-2922.66 6053.03,-2921.58 6055.85,-2920.57 6058.8,-2919.65 6061.88,-2918.81 6065.09,-2918.06 6068.4,-2917.4 6071.8,-2916.83 6075.29,-2916.35 6078.84,-2915.97 6082.45,-2915.68 6086.09,-2915.49 6089.76,-2915.39 6093.43,-2915.39 6097.09,-2915.49"/>
<text text-anchor="start" x="6062.68" y="-2960.43" font-family="Times,serif" font-size="14.00">C0011570</text>
<text text-anchor="start" x="6060.1" y="-2946.43" font-family="Times,serif" font-size="14.00">Depression</text>
<text text-anchor="start" x="6082.65" y="-2932.43" font-family="Times,serif" font-size="14.00">4:4</text>
</g>
<!-- id_28520661_DOT_5 -->
<g id="node5" class="node">
<title>id_28520661_DOT_5</title>
<polygon fill="bisque" stroke="bisque" points="5764.62,-2695.25 5768.12,-2695.45 5771.6,-2695.73 5775.02,-2696.12 5778.38,-2696.6 5781.66,-2697.17 5784.85,-2697.83 5787.93,-2698.58 5790.9,-2699.42 5793.75,-2700.34 5796.46,-2701.34 5799.02,-2702.43 5801.43,-2703.59 5803.68,-2704.82 5805.76,-2706.13 5807.66,-2707.5 5809.39,-2708.93 5810.93,-2710.43 5812.29,-2711.98 5813.46,-2713.57 5814.45,-2715.22 5815.24,-2716.9 5815.85,-2718.63 5816.28,-2720.38 5816.52,-2722.16 5816.59,-2723.97 5816.48,-2725.79 5816.2,-2727.63 5815.76,-2729.47 5815.17,-2731.31 5814.42,-2733.16 5813.53,-2734.99 5812.5,-2736.82 5811.34,-2738.62 5810.06,-2740.4 5808.67,-2742.16 5807.17,-2743.88 5805.58,-2745.57 5803.89,-2747.21 5802.12,-2748.81 5800.28,-2750.36 5798.36,-2751.85 5796.39,-2753.28 5794.36,-2754.65 5792.28,-2755.96 5790.16,-2757.19 5788,-2758.36 5785.8,-2759.44 5783.58,-2760.45 5781.33,-2761.37 5779.06,-2762.21 5776.77,-2762.96 5774.47,-2763.62 5772.16,-2764.19 5769.84,-2764.67 5767.51,-2765.05 5765.17,-2765.34 5762.83,-2765.53 5760.49,-2765.63 5758.14,-2765.63 5755.8,-2765.53 5753.46,-2765.34 5751.13,-2765.05 5748.8,-2764.67 5746.47,-2764.19 5744.16,-2763.62 5741.86,-2762.96 5739.57,-2762.21 5737.3,-2761.37 5735.05,-2760.45 5732.83,-2759.44 5730.64,-2758.36 5728.48,-2757.19 5726.35,-2755.96 5724.27,-2754.65 5722.24,-2753.28 5720.27,-2751.85 5718.36,-2750.36 5716.51,-2748.81 5714.74,-2747.21 5713.06,-2745.57 5711.46,-2743.88 5709.96,-2742.16 5708.57,-2740.4 5707.29,-2738.62 5706.13,-2736.82 5705.11,-2734.99 5704.21,-2733.16 5703.47,-2731.31 5702.87,-2729.47 5702.43,-2727.63 5702.15,-2725.79 5702.04,-2723.97 5702.11,-2722.16 5702.35,-2720.38 5702.78,-2718.63 5703.39,-2716.9 5704.18,-2715.22 5705.17,-2713.57 5706.34,-2711.98 5707.7,-2710.43 5709.24,-2708.93 5710.97,-2707.5 5712.87,-2706.13 5714.95,-2704.82 5717.2,-2703.59 5719.61,-2702.43 5722.17,-2701.34 5724.88,-2700.34 5727.73,-2699.42 5730.7,-2698.58 5733.78,-2697.83 5736.97,-2697.17 5740.25,-2696.6 5743.61,-2696.12 5747.03,-2695.73 5750.51,-2695.45 5754.02,-2695.25 5757.55,-2695.16 5761.08,-2695.16 5764.62,-2695.25"/>
<text text-anchor="start" x="5730.4" y="-2740.19" font-family="Times,serif" font-size="14.00">C0011570</text>
<text text-anchor="start" x="5729.38" y="-2726.19" font-family="Times,serif" font-size="14.00">depression</text>
<text text-anchor="start" x="5743.37" y="-2712.19" font-family="Times,serif" font-size="14.00">40:40</text>
</g>
<!-- id_28520661_DOT_2&#45;&#45;id_28520661_DOT_5 -->
<g id="edge3" class="edge">
<title>id_28520661_DOT_2&#45;&#45;id_28520661_DOT_5</title>
<path fill="none" stroke="black" d="M6049.51,-2922.73C5983.67,-2879.1 5857.45,-2795.44 5795.47,-2754.36"/>
<text text-anchor="middle" x="5896.24" y="-2841.34" font-family="Times,serif" font-size="14.00">0.000841</text>
</g>
<!-- id_28520661_DOT_4 -->
<g id="node4" class="node">
<title>id_28520661_DOT_4</title>
<polygon fill="blue" stroke="blue" points="3101.52,-1133.98 3107.5,-1134.17 3113.43,-1134.46 3119.26,-1134.84 3124.99,-1135.32 3130.58,-1135.89 3136.02,-1136.55 3141.28,-1137.3 3146.35,-1138.14 3151.2,-1139.06 3155.82,-1140.07 3160.19,-1141.15 3164.3,-1142.31 3168.13,-1143.55 3171.68,-1144.85 3174.93,-1146.22 3177.87,-1147.66 3180.51,-1149.15 3182.82,-1150.7 3184.82,-1152.3 3186.5,-1153.94 3187.86,-1155.63 3188.9,-1157.35 3189.62,-1159.1 3190.04,-1160.89 3190.15,-1162.69 3189.96,-1164.51 3189.49,-1166.35 3188.74,-1168.19 3187.72,-1170.04 3186.45,-1171.88 3184.93,-1173.72 3183.17,-1175.54 3181.2,-1177.34 3179.02,-1179.13 3176.64,-1180.88 3174.09,-1182.6 3171.37,-1184.29 3168.49,-1185.93 3165.48,-1187.53 3162.33,-1189.08 3159.07,-1190.57 3155.7,-1192.01 3152.24,-1193.38 3148.69,-1194.68 3145.07,-1195.92 3141.39,-1197.08 3137.65,-1198.16 3133.85,-1199.17 3130.02,-1200.09 3126.15,-1200.93 3122.25,-1201.68 3118.33,-1202.34 3114.38,-1202.91 3110.42,-1203.39 3106.45,-1203.77 3102.46,-1204.06 3098.47,-1204.25 3094.48,-1204.35 3090.48,-1204.35 3086.49,-1204.25 3082.5,-1204.06 3078.51,-1203.77 3074.54,-1203.39 3070.58,-1202.91 3066.63,-1202.34 3062.71,-1201.68 3058.81,-1200.93 3054.94,-1200.09 3051.11,-1199.17 3047.32,-1198.16 3043.58,-1197.08 3039.89,-1195.92 3036.27,-1194.68 3032.72,-1193.38 3029.26,-1192.01 3025.89,-1190.57 3022.63,-1189.08 3019.49,-1187.53 3016.47,-1185.93 3013.59,-1184.29 3010.87,-1182.6 3008.32,-1180.88 3005.94,-1179.13 3003.76,-1177.34 3001.79,-1175.54 3000.04,-1173.72 2998.52,-1171.88 2997.24,-1170.04 2996.22,-1168.19 2995.47,-1166.35 2995,-1164.51 2994.81,-1162.69 2994.93,-1160.89 2995.34,-1159.1 2996.07,-1157.35 2997.11,-1155.63 2998.46,-1153.94 3000.14,-1152.3 3002.14,-1150.7 3004.46,-1149.15 3007.09,-1147.66 3010.03,-1146.22 3013.28,-1144.85 3016.83,-1143.55 3020.66,-1142.31 3024.77,-1141.15 3029.14,-1140.07 3033.76,-1139.06 3038.61,-1138.14 3043.68,-1137.3 3048.94,-1136.55 3054.38,-1135.89 3059.98,-1135.32 3065.7,-1134.84 3071.54,-1134.46 3077.46,-1134.17 3083.44,-1133.98 3089.46,-1133.88 3095.5,-1133.88 3101.52,-1133.98"/>
<text text-anchor="start" x="3063.31" y="-1178.91" font-family="Times,serif" font-size="14.00">C2826293</text>
<text text-anchor="start" x="3035.52" y="-1164.91" font-family="Times,serif" font-size="14.00">clinically significant</text>
<text text-anchor="start" x="3076.54" y="-1150.91" font-family="Times,serif" font-size="14.00">38:39</text>
</g>
<!-- id_28520661_DOT_3&#45;&#45;id_28520661_DOT_4 -->
<g id="edge16" class="edge">
<title>id_28520661_DOT_3&#45;&#45;id_28520661_DOT_4</title>
<path fill="none" stroke="black" stroke-dasharray="1,5" d="M2766.7,-1306.59C2842.56,-1274.58 2962.43,-1223.99 3033.67,-1193.93"/>
<text text-anchor="middle" x="2873.94" y="-1253.06" font-family="Times,serif" font-size="14.00">0.989490</text>
</g>
<!-- id_28520661_DOT_23 -->
<g id="node23" class="node">
<title>id_28520661_DOT_23</title>
<polygon fill="darkmagenta" stroke="darkmagenta" points="3507.06,-1331.08 3512.69,-1331.27 3518.27,-1331.56 3523.76,-1331.95 3529.15,-1332.42 3534.42,-1332.99 3539.54,-1333.65 3544.49,-1334.4 3549.26,-1335.24 3553.83,-1336.17 3558.18,-1337.17 3562.3,-1338.26 3566.17,-1339.42 3569.78,-1340.65 3573.11,-1341.96 3576.17,-1343.33 3578.94,-1344.76 3581.42,-1346.25 3583.6,-1347.8 3585.48,-1349.4 3587.06,-1351.04 3588.34,-1352.73 3589.32,-1354.45 3590,-1356.21 3590.4,-1357.99 3590.5,-1359.8 3590.33,-1361.62 3589.88,-1363.45 3589.18,-1365.3 3588.22,-1367.14 3587.01,-1368.98 3585.58,-1370.82 3583.93,-1372.64 3582.07,-1374.45 3580.02,-1376.23 3577.79,-1377.98 3575.38,-1379.71 3572.82,-1381.39 3570.11,-1383.04 3567.27,-1384.64 3564.31,-1386.18 3561.24,-1387.68 3558.07,-1389.11 3554.81,-1390.48 3551.47,-1391.79 3548.06,-1393.02 3544.59,-1394.18 3541.07,-1395.27 3537.5,-1396.27 3533.89,-1397.19 3530.25,-1398.03 3526.58,-1398.78 3522.88,-1399.44 3519.17,-1400.01 3515.44,-1400.49 3511.7,-1400.88 3507.95,-1401.16 3504.19,-1401.36 3500.43,-1401.45 3496.67,-1401.45 3492.91,-1401.36 3489.15,-1401.16 3485.4,-1400.88 3481.66,-1400.49 3477.93,-1400.01 3474.22,-1399.44 3470.52,-1398.78 3466.85,-1398.03 3463.21,-1397.19 3459.6,-1396.27 3456.03,-1395.27 3452.51,-1394.18 3449.04,-1393.02 3445.63,-1391.79 3442.29,-1390.48 3439.03,-1389.11 3435.86,-1387.68 3432.79,-1386.18 3429.83,-1384.64 3426.99,-1383.04 3424.28,-1381.39 3421.72,-1379.71 3419.31,-1377.98 3417.08,-1376.23 3415.02,-1374.45 3413.17,-1372.64 3411.52,-1370.82 3410.08,-1368.98 3408.88,-1367.14 3407.92,-1365.3 3407.22,-1363.45 3406.77,-1361.62 3406.6,-1359.8 3406.7,-1357.99 3407.09,-1356.21 3407.78,-1354.45 3408.76,-1352.73 3410.04,-1351.04 3411.61,-1349.4 3413.5,-1347.8 3415.68,-1346.25 3418.16,-1344.76 3420.93,-1343.33 3423.99,-1341.96 3427.32,-1340.65 3430.93,-1339.42 3434.8,-1338.26 3438.92,-1337.17 3443.27,-1336.17 3447.83,-1335.24 3452.61,-1334.4 3457.56,-1333.65 3462.68,-1332.99 3467.95,-1332.42 3473.34,-1331.95 3478.83,-1331.56 3484.41,-1331.27 3490.04,-1331.08 3495.71,-1330.98 3501.39,-1330.98 3507.06,-1331.08"/>
<text text-anchor="start" x="3469.38" y="-1376.02" font-family="Times,serif" font-size="14.00">C0243095</text>
<text text-anchor="start" x="3445.48" y="-1362.02" font-family="Times,serif" font-size="14.00">medical conditions</text>
<text text-anchor="start" x="3475.6" y="-1348.02" font-family="Times,serif" font-size="14.00">200:201</text>
</g>
<!-- id_28520661_DOT_4&#45;&#45;id_28520661_DOT_23 -->
<g id="edge17" class="edge">
<title>id_28520661_DOT_4&#45;&#45;id_28520661_DOT_23</title>
<path fill="none" stroke="black" stroke-dasharray="1,5" d="M3146.82,-1195.49C3222.68,-1232.31 3359.83,-1298.89 3438.59,-1337.11"/>
<text text-anchor="middle" x="3266.46" y="-1269.1" font-family="Times,serif" font-size="14.00">0.798901</text>
</g>
<!-- id_28520661_DOT_25 -->
<g id="node25" class="node">
<title>id_28520661_DOT_25</title>
<polygon fill="blue" stroke="blue" points="2990.44,-720.26 2996.42,-720.46 3002.34,-720.75 3008.18,-721.13 3013.91,-721.61 3019.5,-722.18 3024.94,-722.84 3030.2,-723.59 3035.27,-724.43 3040.12,-725.35 3044.74,-726.36 3049.11,-727.44 3053.22,-728.6 3057.05,-729.84 3060.6,-731.14 3063.85,-732.51 3066.79,-733.95 3069.43,-735.44 3071.74,-736.99 3073.74,-738.59 3075.42,-740.23 3076.78,-741.92 3077.82,-743.64 3078.54,-745.39 3078.96,-747.18 3079.07,-748.98 3078.88,-750.8 3078.41,-752.64 3077.66,-754.48 3076.64,-756.33 3075.37,-758.17 3073.85,-760 3072.09,-761.83 3070.12,-763.63 3067.94,-765.41 3065.56,-767.17 3063.01,-768.89 3060.29,-770.58 3057.41,-772.22 3054.4,-773.82 3051.25,-775.37 3047.99,-776.86 3044.62,-778.3 3041.16,-779.67 3037.61,-780.97 3033.99,-782.21 3030.31,-783.37 3026.57,-784.45 3022.77,-785.46 3018.94,-786.38 3015.07,-787.22 3011.17,-787.97 3007.25,-788.63 3003.3,-789.2 2999.34,-789.68 2995.37,-790.06 2991.38,-790.35 2987.39,-790.54 2983.4,-790.64 2979.4,-790.64 2975.41,-790.54 2971.42,-790.35 2967.43,-790.06 2963.46,-789.68 2959.5,-789.2 2955.55,-788.63 2951.63,-787.97 2947.73,-787.22 2943.86,-786.38 2940.03,-785.46 2936.24,-784.45 2932.49,-783.37 2928.81,-782.21 2925.19,-780.97 2921.64,-779.67 2918.18,-778.3 2914.81,-776.86 2911.55,-775.37 2908.41,-773.82 2905.39,-772.22 2902.51,-770.58 2899.79,-768.89 2897.24,-767.17 2894.86,-765.41 2892.68,-763.63 2890.71,-761.83 2888.96,-760 2887.44,-758.17 2886.16,-756.33 2885.14,-754.48 2884.39,-752.64 2883.92,-750.8 2883.73,-748.98 2883.85,-747.18 2884.26,-745.39 2884.99,-743.64 2886.03,-741.92 2887.38,-740.23 2889.06,-738.59 2891.06,-736.99 2893.38,-735.44 2896.01,-733.95 2898.95,-732.51 2902.2,-731.14 2905.75,-729.84 2909.58,-728.6 2913.69,-727.44 2918.06,-726.36 2922.68,-725.35 2927.53,-724.43 2932.6,-723.59 2937.86,-722.84 2943.3,-722.18 2948.9,-721.61 2954.62,-721.13 2960.46,-720.75 2966.38,-720.46 2972.36,-720.26 2978.38,-720.17 2984.42,-720.17 2990.44,-720.26"/>
<text text-anchor="start" x="2952.23" y="-765.2" font-family="Times,serif" font-size="14.00">C2826293</text>
<text text-anchor="start" x="2924.44" y="-751.2" font-family="Times,serif" font-size="14.00">clinically significant</text>
<text text-anchor="start" x="2958.46" y="-737.2" font-family="Times,serif" font-size="14.00">230:231</text>
</g>
<!-- id_28520661_DOT_4&#45;&#45;id_28520661_DOT_25 -->
<g id="edge4" class="edge">
<title>id_28520661_DOT_4&#45;&#45;id_28520661_DOT_25</title>
<path fill="none" stroke="black" d="M3083.01,-1133.84C3062.02,-1055.68 3011.81,-868.67 2990.85,-790.59"/>
<text text-anchor="middle" x="3010.68" y="-965.01" font-family="Times,serif" font-size="14.00">0.024776</text>
</g>
<!-- id_28520661_DOT_6 -->
<g id="node6" class="node">
<title>id_28520661_DOT_6</title>
<polygon fill="bisque" stroke="bisque" points="5668.54,-3086.78 5672.05,-3086.97 5675.52,-3087.26 5678.94,-3087.65 5682.3,-3088.12 5685.58,-3088.69 5688.77,-3089.36 5691.85,-3090.11 5694.83,-3090.94 5697.67,-3091.87 5700.38,-3092.87 5702.94,-3093.96 5705.35,-3095.12 5707.6,-3096.35 5709.68,-3097.66 5711.59,-3099.03 5713.31,-3100.46 5714.86,-3101.96 5716.22,-3103.5 5717.39,-3105.1 5718.37,-3106.75 5719.17,-3108.43 5719.78,-3110.15 5720.2,-3111.91 5720.45,-3113.69 5720.51,-3115.5 5720.4,-3117.32 5720.13,-3119.15 5719.69,-3121 5719.09,-3122.84 5718.34,-3124.69 5717.45,-3126.52 5716.42,-3128.34 5715.26,-3130.15 5713.98,-3131.93 5712.59,-3133.69 5711.09,-3135.41 5709.5,-3137.09 5707.81,-3138.74 5706.04,-3140.34 5704.2,-3141.88 5702.29,-3143.38 5700.31,-3144.81 5698.28,-3146.18 5696.2,-3147.49 5694.08,-3148.72 5691.92,-3149.88 5689.72,-3150.97 5687.5,-3151.97 5685.25,-3152.9 5682.98,-3153.73 5680.7,-3154.48 5678.39,-3155.15 5676.08,-3155.72 5673.76,-3156.19 5671.43,-3156.58 5669.09,-3156.87 5666.75,-3157.06 5664.41,-3157.16 5662.07,-3157.16 5659.72,-3157.06 5657.38,-3156.87 5655.05,-3156.58 5652.72,-3156.19 5650.39,-3155.72 5648.08,-3155.15 5645.78,-3154.48 5643.49,-3153.73 5641.22,-3152.9 5638.98,-3151.97 5636.75,-3150.97 5634.56,-3149.88 5632.4,-3148.72 5630.27,-3147.49 5628.2,-3146.18 5626.17,-3144.81 5624.19,-3143.38 5622.28,-3141.88 5620.43,-3140.34 5618.66,-3138.74 5616.98,-3137.09 5615.38,-3135.41 5613.88,-3133.69 5612.49,-3131.93 5611.21,-3130.15 5610.06,-3128.34 5609.03,-3126.52 5608.14,-3124.69 5607.39,-3122.84 5606.79,-3121 5606.35,-3119.15 5606.07,-3117.32 5605.96,-3115.5 5606.03,-3113.69 5606.27,-3111.91 5606.7,-3110.15 5607.31,-3108.43 5608.11,-3106.75 5609.09,-3105.1 5610.26,-3103.5 5611.62,-3101.96 5613.16,-3100.46 5614.89,-3099.03 5616.79,-3097.66 5618.87,-3096.35 5621.12,-3095.12 5623.53,-3093.96 5626.09,-3092.87 5628.8,-3091.87 5631.65,-3090.94 5634.62,-3090.11 5637.71,-3089.36 5640.9,-3088.69 5644.18,-3088.12 5647.53,-3087.65 5650.96,-3087.26 5654.43,-3086.97 5657.94,-3086.78 5661.47,-3086.68 5665.01,-3086.68 5668.54,-3086.78"/>
<text text-anchor="start" x="5634.33" y="-3131.72" font-family="Times,serif" font-size="14.00">C0011570</text>
<text text-anchor="start" x="5633.3" y="-3117.72" font-family="Times,serif" font-size="14.00">depression</text>
<text text-anchor="start" x="5647.29" y="-3103.72" font-family="Times,serif" font-size="14.00">54:54</text>
</g>
<!-- id_28520661_DOT_5&#45;&#45;id_28520661_DOT_6 -->
<g id="edge5" class="edge">
<title>id_28520661_DOT_5&#45;&#45;id_28520661_DOT_6</title>
<path fill="none" stroke="black" d="M5750.79,-2765.14C5732.6,-2839.25 5690.17,-3012.15 5671.88,-3086.69"/>
<text text-anchor="middle" x="5685.09" y="-2928.71" font-family="Times,serif" font-size="14.00">0.000465</text>
</g>
<!-- id_28520661_DOT_20 -->
<g id="node20" class="node">
<title>id_28520661_DOT_20</title>
<polygon fill="bisque" stroke="bisque" points="5693.12,-2273.69 5696.63,-2273.88 5700.1,-2274.17 5703.52,-2274.55 5706.88,-2275.03 5710.16,-2275.6 5713.35,-2276.26 5716.44,-2277.01 5719.41,-2277.85 5722.25,-2278.77 5724.96,-2279.78 5727.52,-2280.86 5729.93,-2282.03 5732.18,-2283.26 5734.26,-2284.56 5736.17,-2285.94 5737.89,-2287.37 5739.44,-2288.86 5740.8,-2290.41 5741.97,-2292.01 5742.95,-2293.65 5743.75,-2295.34 5744.36,-2297.06 5744.78,-2298.82 5745.03,-2300.6 5745.09,-2302.4 5744.98,-2304.23 5744.71,-2306.06 5744.27,-2307.9 5743.67,-2309.75 5742.92,-2311.59 5742.03,-2313.43 5741,-2315.25 5739.84,-2317.06 5738.56,-2318.84 5737.17,-2320.59 5735.67,-2322.32 5734.08,-2324 5732.39,-2325.65 5730.62,-2327.24 5728.78,-2328.79 5726.87,-2330.28 5724.89,-2331.72 5722.86,-2333.09 5720.78,-2334.4 5718.66,-2335.63 5716.5,-2336.79 5714.3,-2337.88 5712.08,-2338.88 5709.83,-2339.8 5707.56,-2340.64 5705.28,-2341.39 5702.98,-2342.05 5700.66,-2342.62 5698.34,-2343.1 5696.01,-2343.48 5693.67,-2343.77 5691.33,-2343.97 5688.99,-2344.06 5686.65,-2344.06 5684.3,-2343.97 5681.96,-2343.77 5679.63,-2343.48 5677.3,-2343.1 5674.97,-2342.62 5672.66,-2342.05 5670.36,-2341.39 5668.07,-2340.64 5665.8,-2339.8 5663.56,-2338.88 5661.33,-2337.88 5659.14,-2336.79 5656.98,-2335.63 5654.86,-2334.4 5652.78,-2333.09 5650.75,-2331.72 5648.77,-2330.28 5646.86,-2328.79 5645.01,-2327.24 5643.24,-2325.65 5641.56,-2324 5639.96,-2322.32 5638.46,-2320.59 5637.07,-2318.84 5635.79,-2317.06 5634.64,-2315.25 5633.61,-2313.43 5632.72,-2311.59 5631.97,-2309.75 5631.37,-2307.9 5630.93,-2306.06 5630.65,-2304.23 5630.55,-2302.4 5630.61,-2300.6 5630.85,-2298.82 5631.28,-2297.06 5631.89,-2295.34 5632.69,-2293.65 5633.67,-2292.01 5634.84,-2290.41 5636.2,-2288.86 5637.74,-2287.37 5639.47,-2285.94 5641.37,-2284.56 5643.45,-2283.26 5645.7,-2282.03 5648.11,-2280.86 5650.68,-2279.78 5653.38,-2278.77 5656.23,-2277.85 5659.2,-2277.01 5662.29,-2276.26 5665.48,-2275.6 5668.76,-2275.03 5672.11,-2274.55 5675.54,-2274.17 5679.01,-2273.88 5682.52,-2273.69 5686.05,-2273.59 5689.59,-2273.59 5693.12,-2273.69"/>
<text text-anchor="start" x="5658.91" y="-2318.63" font-family="Times,serif" font-size="14.00">C0011570</text>
<text text-anchor="start" x="5657.88" y="-2304.63" font-family="Times,serif" font-size="14.00">depression</text>
<text text-anchor="start" x="5664.87" y="-2290.63" font-family="Times,serif" font-size="14.00">184:184</text>
</g>
<!-- id_28520661_DOT_5&#45;&#45;id_28520661_DOT_20 -->
<g id="edge6" class="edge">
<title>id_28520661_DOT_5&#45;&#45;id_28520661_DOT_20</title>
<path fill="none" stroke="black" d="M5753.34,-2695.17C5739.87,-2615.72 5707.23,-2423.3 5693.77,-2343.94"/>
<text text-anchor="middle" x="5697.31" y="-2522.36" font-family="Times,serif" font-size="14.00">0.003361</text>
</g>
<!-- id_28520661_DOT_24 -->
<g id="node24" class="node">
<title>id_28520661_DOT_24</title>
<polygon fill="aquamarine" stroke="aquamarine" points="1575.51,-1593.79 1578.94,-1593.98 1582.33,-1594.27 1585.68,-1594.65 1588.96,-1595.13 1592.16,-1595.7 1595.28,-1596.36 1598.29,-1597.11 1601.2,-1597.95 1603.98,-1598.87 1606.62,-1599.88 1609.13,-1600.96 1611.48,-1602.12 1613.68,-1603.36 1615.71,-1604.66 1617.57,-1606.03 1619.26,-1607.47 1620.77,-1608.96 1622.09,-1610.51 1623.24,-1612.11 1624.2,-1613.75 1624.98,-1615.44 1625.57,-1617.16 1625.99,-1618.91 1626.23,-1620.7 1626.29,-1622.5 1626.19,-1624.32 1625.92,-1626.16 1625.49,-1628 1624.9,-1629.85 1624.17,-1631.69 1623.3,-1633.53 1622.29,-1635.35 1621.16,-1637.15 1619.91,-1638.94 1618.55,-1640.69 1617.09,-1642.41 1615.53,-1644.1 1613.88,-1645.74 1612.16,-1647.34 1610.35,-1648.89 1608.48,-1650.38 1606.56,-1651.82 1604.57,-1653.19 1602.54,-1654.49 1600.47,-1655.73 1598.36,-1656.89 1596.21,-1657.97 1594.04,-1658.98 1591.84,-1659.9 1589.63,-1660.74 1587.39,-1661.49 1585.14,-1662.15 1582.88,-1662.72 1580.61,-1663.2 1578.34,-1663.58 1576.05,-1663.87 1573.77,-1664.06 1571.48,-1664.16 1569.19,-1664.16 1566.9,-1664.06 1564.62,-1663.87 1562.33,-1663.58 1560.06,-1663.2 1557.79,-1662.72 1555.53,-1662.15 1553.28,-1661.49 1551.04,-1660.74 1548.83,-1659.9 1546.63,-1658.98 1544.46,-1657.97 1542.32,-1656.89 1540.2,-1655.73 1538.13,-1654.49 1536.1,-1653.19 1534.11,-1651.82 1532.19,-1650.38 1530.32,-1648.89 1528.51,-1647.34 1526.79,-1645.74 1525.14,-1644.1 1523.58,-1642.41 1522.12,-1640.69 1520.76,-1638.94 1519.51,-1637.15 1518.38,-1635.35 1517.37,-1633.53 1516.5,-1631.69 1515.77,-1629.85 1515.19,-1628 1514.76,-1626.16 1514.48,-1624.32 1514.38,-1622.5 1514.44,-1620.7 1514.68,-1618.91 1515.1,-1617.16 1515.69,-1615.44 1516.47,-1613.75 1517.43,-1612.11 1518.58,-1610.51 1519.9,-1608.96 1521.41,-1607.47 1523.1,-1606.03 1524.96,-1604.66 1526.99,-1603.36 1529.19,-1602.12 1531.54,-1600.96 1534.05,-1599.88 1536.69,-1598.87 1539.47,-1597.95 1542.38,-1597.11 1545.39,-1596.36 1548.51,-1595.7 1551.71,-1595.13 1554.99,-1594.65 1558.34,-1594.27 1561.73,-1593.98 1565.16,-1593.79 1568.61,-1593.69 1572.06,-1593.69 1575.51,-1593.79"/>
<text text-anchor="start" x="1541.17" y="-1638.72" font-family="Times,serif" font-size="14.00">C0876926</text>
<text text-anchor="start" x="1559.06" y="-1624.72" font-family="Times,serif" font-size="14.00">TBI</text>
<text text-anchor="start" x="1547.39" y="-1610.72" font-family="Times,serif" font-size="14.00">227:227</text>
</g>
<!-- id_28520661_DOT_7&#45;&#45;id_28520661_DOT_24 -->
<g id="edge7" class="edge">
<title>id_28520661_DOT_7&#45;&#45;id_28520661_DOT_24</title>
<path fill="none" stroke="black" d="M1888.53,-1560.44C1820.3,-1575.13 1697.24,-1601.61 1625.8,-1616.99"/>
<text text-anchor="middle" x="1731.17" y="-1591.51" font-family="Times,serif" font-size="14.00">0.011556</text>
</g>
<!-- id_28520661_DOT_8 -->
<g id="node8" class="node">
<title>id_28520661_DOT_8</title>
<polygon fill="blueviolet" stroke="blueviolet" points="3033.09,-313.32 3036.64,-313.51 3040.15,-313.8 3043.62,-314.19 3047.01,-314.66 3050.33,-315.24 3053.56,-315.9 3056.69,-316.65 3059.69,-317.48 3062.57,-318.41 3065.32,-319.41 3067.91,-320.5 3070.35,-321.66 3072.62,-322.89 3074.73,-324.2 3076.66,-325.57 3078.4,-327 3079.97,-328.5 3081.34,-330.04 3082.53,-331.64 3083.52,-333.29 3084.33,-334.97 3084.95,-336.69 3085.38,-338.45 3085.62,-340.23 3085.69,-342.04 3085.58,-343.86 3085.3,-345.7 3084.85,-347.54 3084.25,-349.38 3083.49,-351.23 3082.59,-353.06 3081.55,-354.88 3080.38,-356.69 3079.08,-358.47 3077.67,-360.23 3076.16,-361.95 3074.54,-363.64 3072.84,-365.28 3071.05,-366.88 3069.18,-368.43 3067.24,-369.92 3065.24,-371.35 3063.19,-372.72 3061.08,-374.03 3058.94,-375.26 3056.75,-376.42 3054.53,-377.51 3052.28,-378.51 3050,-379.44 3047.71,-380.27 3045.39,-381.03 3043.06,-381.69 3040.72,-382.26 3038.37,-382.73 3036.01,-383.12 3033.65,-383.41 3031.28,-383.6 3028.91,-383.7 3026.54,-383.7 3024.17,-383.6 3021.8,-383.41 3019.43,-383.12 3017.07,-382.73 3014.72,-382.26 3012.38,-381.69 3010.05,-381.03 3007.74,-380.27 3005.44,-379.44 3003.17,-378.51 3000.92,-377.51 2998.69,-376.42 2996.51,-375.26 2994.36,-374.03 2992.25,-372.72 2990.2,-371.35 2988.2,-369.92 2986.26,-368.43 2984.4,-366.88 2982.61,-365.28 2980.9,-363.64 2979.28,-361.95 2977.77,-360.23 2976.36,-358.47 2975.07,-356.69 2973.89,-354.88 2972.85,-353.06 2971.95,-351.23 2971.19,-349.38 2970.59,-347.54 2970.14,-345.7 2969.86,-343.86 2969.75,-342.04 2969.82,-340.23 2970.07,-338.45 2970.5,-336.69 2971.11,-334.97 2971.92,-333.29 2972.92,-331.64 2974.1,-330.04 2975.48,-328.5 2977.04,-327 2978.79,-325.57 2980.72,-324.2 2982.82,-322.89 2985.09,-321.66 2987.53,-320.5 2990.13,-319.41 2992.87,-318.41 2995.75,-317.48 2998.76,-316.65 3001.88,-315.9 3005.11,-315.24 3008.43,-314.66 3011.83,-314.19 3015.29,-313.8 3018.81,-313.51 3022.36,-313.32 3025.93,-313.23 3029.51,-313.23 3033.09,-313.32"/>
<text text-anchor="start" x="2998.55" y="-358.26" font-family="Times,serif" font-size="14.00">C1257890</text>
<text text-anchor="start" x="2997.39" y="-344.26" font-family="Times,serif" font-size="14.00">Population</text>
<text text-anchor="start" x="3011.78" y="-330.26" font-family="Times,serif" font-size="14.00">59:59</text>
</g>
<!-- id_28520661_DOT_8&#45;&#45;id_28520661_DOT_25 -->
<g id="edge18" class="edge">
<title>id_28520661_DOT_8&#45;&#45;id_28520661_DOT_25</title>
<path fill="none" stroke="black" stroke-dasharray="1,5" d="M3023.69,-383.86C3014.92,-460.92 2994.18,-643.1 2985.42,-720.08"/>
<text text-anchor="middle" x="2978.31" y="-554.77" font-family="Times,serif" font-size="14.00">0.846844</text>
</g>
<!-- id_28520661_DOT_9 -->
<g id="node9" class="node">
<title>id_28520661_DOT_9</title>
<polygon fill="brown" stroke="brown" points="2682.95,-460.96 2686.38,-461.15 2689.77,-461.44 2693.12,-461.82 2696.4,-462.3 2699.6,-462.87 2702.72,-463.53 2705.73,-464.28 2708.64,-465.12 2711.42,-466.04 2714.06,-467.05 2716.57,-468.13 2718.92,-469.29 2721.12,-470.53 2723.15,-471.83 2725.01,-473.2 2726.7,-474.64 2728.21,-476.13 2729.53,-477.68 2730.68,-479.28 2731.64,-480.92 2732.42,-482.61 2733.01,-484.33 2733.43,-486.09 2733.67,-487.87 2733.73,-489.67 2733.63,-491.5 2733.35,-493.33 2732.92,-495.17 2732.34,-497.02 2731.61,-498.86 2730.74,-500.7 2729.73,-502.52 2728.6,-504.32 2727.35,-506.11 2725.99,-507.86 2724.53,-509.58 2722.97,-511.27 2721.32,-512.91 2719.6,-514.51 2717.79,-516.06 2715.92,-517.55 2713.99,-518.99 2712.01,-520.36 2709.98,-521.66 2707.91,-522.9 2705.79,-524.06 2703.65,-525.14 2701.48,-526.15 2699.28,-527.07 2697.07,-527.91 2694.83,-528.66 2692.58,-529.32 2690.32,-529.89 2688.05,-530.37 2685.78,-530.75 2683.49,-531.04 2681.21,-531.23 2678.92,-531.33 2676.63,-531.33 2674.34,-531.23 2672.06,-531.04 2669.77,-530.75 2667.5,-530.37 2665.23,-529.89 2662.97,-529.32 2660.72,-528.66 2658.48,-527.91 2656.27,-527.07 2654.07,-526.15 2651.9,-525.14 2649.75,-524.06 2647.64,-522.9 2645.57,-521.66 2643.54,-520.36 2641.55,-518.99 2639.62,-517.55 2637.76,-516.06 2635.95,-514.51 2634.23,-512.91 2632.58,-511.27 2631.02,-509.58 2629.56,-507.86 2628.2,-506.11 2626.95,-504.32 2625.82,-502.52 2624.81,-500.7 2623.94,-498.86 2623.21,-497.02 2622.62,-495.17 2622.19,-493.33 2621.92,-491.5 2621.82,-489.67 2621.88,-487.87 2622.12,-486.09 2622.54,-484.33 2623.13,-482.61 2623.91,-480.92 2624.87,-479.28 2626.02,-477.68 2627.34,-476.13 2628.85,-474.64 2630.54,-473.2 2632.4,-471.83 2634.43,-470.53 2636.63,-469.29 2638.98,-468.13 2641.49,-467.05 2644.13,-466.04 2646.91,-465.12 2649.82,-464.28 2652.83,-463.53 2655.95,-462.87 2659.15,-462.3 2662.43,-461.82 2665.78,-461.44 2669.17,-461.15 2672.6,-460.96 2676.05,-460.86 2679.5,-460.86 2682.95,-460.96"/>
<text text-anchor="start" x="2648.61" y="-505.9" font-family="Times,serif" font-size="14.00">C2603343</text>
<text text-anchor="start" x="2662.61" y="-491.9" font-family="Times,serif" font-size="14.00">study</text>
<text text-anchor="start" x="2661.83" y="-477.9" font-family="Times,serif" font-size="14.00">63:63</text>
</g>
<!-- id_28520661_DOT_9&#45;&#45;id_28520661_DOT_25 -->
<g id="edge19" class="edge">
<title>id_28520661_DOT_9&#45;&#45;id_28520661_DOT_25</title>
<path fill="none" stroke="black" stroke-dasharray="1,5" d="M2708.84,-522.63C2764.61,-570.26 2881.57,-670.14 2942.54,-722.22"/>
<text text-anchor="middle" x="2799.44" y="-625.22" font-family="Times,serif" font-size="14.00">0.910515</text>
</g>
<!-- id_28520661_DOT_10 -->
<g id="node10" class="node">
<title>id_28520661_DOT_10</title>
<polygon fill="cadetblue" stroke="cadetblue" points="3536.47,-2135.89 3539.9,-2136.08 3543.29,-2136.37 3546.63,-2136.75 3549.91,-2137.23 3553.12,-2137.8 3556.24,-2138.46 3559.25,-2139.21 3562.15,-2140.05 3564.93,-2140.97 3567.58,-2141.98 3570.09,-2143.06 3572.44,-2144.22 3574.64,-2145.46 3576.67,-2146.76 3578.53,-2148.13 3580.21,-2149.57 3581.72,-2151.06 3583.05,-2152.61 3584.2,-2154.21 3585.16,-2155.85 3585.93,-2157.54 3586.53,-2159.26 3586.95,-2161.01 3587.18,-2162.8 3587.25,-2164.6 3587.14,-2166.42 3586.87,-2168.26 3586.44,-2170.1 3585.86,-2171.95 3585.13,-2173.79 3584.26,-2175.63 3583.25,-2177.45 3582.12,-2179.25 3580.87,-2181.04 3579.51,-2182.79 3578.05,-2184.51 3576.49,-2186.2 3574.84,-2187.84 3573.11,-2189.44 3571.31,-2190.99 3569.44,-2192.48 3567.51,-2193.92 3565.53,-2195.29 3563.5,-2196.59 3561.42,-2197.83 3559.31,-2198.99 3557.17,-2200.07 3555,-2201.08 3552.8,-2202 3550.58,-2202.84 3548.35,-2203.59 3546.1,-2204.25 3543.84,-2204.82 3541.57,-2205.3 3539.29,-2205.68 3537.01,-2205.97 3534.72,-2206.16 3532.44,-2206.26 3530.15,-2206.26 3527.86,-2206.16 3525.57,-2205.97 3523.29,-2205.68 3521.01,-2205.3 3518.74,-2204.82 3516.48,-2204.25 3514.23,-2203.59 3512,-2202.84 3509.78,-2202 3507.59,-2201.08 3505.42,-2200.07 3503.27,-2198.99 3501.16,-2197.83 3499.09,-2196.59 3497.05,-2195.29 3495.07,-2193.92 3493.14,-2192.48 3491.27,-2190.99 3489.47,-2189.44 3487.74,-2187.84 3486.09,-2186.2 3484.54,-2184.51 3483.07,-2182.79 3481.71,-2181.04 3480.46,-2179.25 3479.33,-2177.45 3478.33,-2175.63 3477.46,-2173.79 3476.73,-2171.95 3476.14,-2170.1 3475.71,-2168.26 3475.44,-2166.42 3475.33,-2164.6 3475.4,-2162.8 3475.64,-2161.01 3476.05,-2159.26 3476.65,-2157.54 3477.43,-2155.85 3478.39,-2154.21 3479.53,-2152.61 3480.86,-2151.06 3482.37,-2149.57 3484.05,-2148.13 3485.92,-2146.76 3487.95,-2145.46 3490.14,-2144.22 3492.5,-2143.06 3495,-2141.98 3497.65,-2140.97 3500.43,-2140.05 3503.33,-2139.21 3506.35,-2138.46 3509.46,-2137.8 3512.67,-2137.23 3515.95,-2136.75 3519.29,-2136.37 3522.69,-2136.08 3526.11,-2135.89 3529.56,-2135.79 3533.02,-2135.79 3536.47,-2135.89"/>
<text text-anchor="start" x="3502.12" y="-2180.82" font-family="Times,serif" font-size="14.00">C0454764</text>
<text text-anchor="start" x="3505.64" y="-2166.82" font-family="Times,serif" font-size="14.00">Canberra</text>
<text text-anchor="start" x="3515.35" y="-2152.82" font-family="Times,serif" font-size="14.00">65:65</text>
</g>
<!-- id_28520661_DOT_31 -->
<g id="node31" class="node">
<title>id_28520661_DOT_31</title>
<polygon fill="darkred" stroke="darkred" points="3436.84,-1747.7 3440.27,-1747.89 3443.66,-1748.18 3447.01,-1748.56 3450.29,-1749.04 3453.49,-1749.61 3456.61,-1750.27 3459.62,-1751.02 3462.53,-1751.86 3465.31,-1752.78 3467.95,-1753.79 3470.46,-1754.87 3472.81,-1756.04 3475.01,-1757.27 3477.04,-1758.58 3478.9,-1759.95 3480.59,-1761.38 3482.1,-1762.87 3483.42,-1764.42 3484.57,-1766.02 3485.53,-1767.66 3486.31,-1769.35 3486.9,-1771.07 3487.32,-1772.83 3487.56,-1774.61 3487.62,-1776.42 3487.51,-1778.24 3487.24,-1780.07 3486.81,-1781.92 3486.23,-1783.76 3485.5,-1785.6 3484.63,-1787.44 3483.62,-1789.26 3482.49,-1791.07 3481.24,-1792.85 3479.88,-1794.6 3478.42,-1796.33 3476.86,-1798.01 3475.21,-1799.66 3473.48,-1801.26 3471.68,-1802.8 3469.81,-1804.3 3467.88,-1805.73 3465.9,-1807.1 3463.87,-1808.41 3461.79,-1809.64 3459.68,-1810.8 3457.54,-1811.89 3455.37,-1812.89 3453.17,-1813.81 3450.95,-1814.65 3448.72,-1815.4 3446.47,-1816.06 3444.21,-1816.63 3441.94,-1817.11 3439.66,-1817.5 3437.38,-1817.78 3435.1,-1817.98 3432.81,-1818.07 3430.52,-1818.07 3428.23,-1817.98 3425.94,-1817.78 3423.66,-1817.5 3421.38,-1817.11 3419.11,-1816.63 3416.85,-1816.06 3414.61,-1815.4 3412.37,-1814.65 3410.16,-1813.81 3407.96,-1812.89 3405.79,-1811.89 3403.64,-1810.8 3401.53,-1809.64 3399.46,-1808.41 3397.43,-1807.1 3395.44,-1805.73 3393.51,-1804.3 3391.64,-1802.8 3389.84,-1801.26 3388.11,-1799.66 3386.47,-1798.01 3384.91,-1796.33 3383.44,-1794.6 3382.08,-1792.85 3380.83,-1791.07 3379.7,-1789.26 3378.7,-1787.44 3377.83,-1785.6 3377.1,-1783.76 3376.51,-1781.92 3376.08,-1780.07 3375.81,-1778.24 3375.71,-1776.42 3375.77,-1774.61 3376.01,-1772.83 3376.42,-1771.07 3377.02,-1769.35 3377.8,-1767.66 3378.76,-1766.02 3379.9,-1764.42 3381.23,-1762.87 3382.74,-1761.38 3384.43,-1759.95 3386.29,-1758.58 3388.32,-1757.27 3390.52,-1756.04 3392.87,-1754.87 3395.37,-1753.79 3398.02,-1752.78 3400.8,-1751.86 3403.7,-1751.02 3406.72,-1750.27 3409.84,-1749.61 3413.04,-1749.04 3416.32,-1748.56 3419.66,-1748.18 3423.06,-1747.89 3426.49,-1747.7 3429.93,-1747.6 3433.39,-1747.6 3436.84,-1747.7"/>
<text text-anchor="start" x="3402.49" y="-1792.64" font-family="Times,serif" font-size="14.00">C1521743</text>
<text text-anchor="start" x="3402.89" y="-1778.64" font-family="Times,serif" font-size="14.00">monitored</text>
<text text-anchor="start" x="3408.72" y="-1764.64" font-family="Times,serif" font-size="14.00">266:266</text>
</g>
<!-- id_28520661_DOT_10&#45;&#45;id_28520661_DOT_31 -->
<g id="edge20" class="edge">
<title>id_28520661_DOT_10&#45;&#45;id_28520661_DOT_31</title>
<path fill="none" stroke="black" stroke-dasharray="1,5" d="M3522.27,-2135.89C3503.31,-2061.99 3459.48,-1891.2 3440.59,-1817.61"/>
<text text-anchor="middle" x="3455.18" y="-1979.55" font-family="Times,serif" font-size="14.00">0.806052</text>
</g>
<!-- id_28520661_DOT_11 -->
<g id="node11" class="node">
<title>id_28520661_DOT_11</title>
<polygon fill="chartreuse" stroke="chartreuse" points="4457.42,-665.72 4460.85,-665.91 4464.24,-666.2 4467.59,-666.59 4470.87,-667.06 4474.07,-667.63 4477.19,-668.3 4480.2,-669.05 4483.11,-669.88 4485.89,-670.81 4488.53,-671.81 4491.04,-672.9 4493.39,-674.06 4495.59,-675.29 4497.62,-676.6 4499.48,-677.97 4501.17,-679.4 4502.68,-680.9 4504,-682.44 4505.15,-684.04 4506.11,-685.69 4506.89,-687.37 4507.48,-689.09 4507.9,-690.85 4508.14,-692.63 4508.2,-694.44 4508.1,-696.26 4507.83,-698.09 4507.39,-699.94 4506.81,-701.78 4506.08,-703.63 4505.21,-705.46 4504.2,-707.28 4503.07,-709.09 4501.82,-710.87 4500.46,-712.63 4499,-714.35 4497.44,-716.03 4495.79,-717.68 4494.07,-719.28 4492.26,-720.82 4490.39,-722.32 4488.47,-723.75 4486.48,-725.12 4484.45,-726.43 4482.38,-727.66 4480.26,-728.82 4478.12,-729.91 4475.95,-730.91 4473.75,-731.84 4471.54,-732.67 4469.3,-733.42 4467.05,-734.09 4464.79,-734.66 4462.52,-735.13 4460.25,-735.52 4457.96,-735.81 4455.68,-736 4453.39,-736.1 4451.1,-736.1 4448.81,-736 4446.53,-735.81 4444.24,-735.52 4441.97,-735.13 4439.7,-734.66 4437.44,-734.09 4435.19,-733.42 4432.95,-732.67 4430.74,-731.84 4428.54,-730.91 4426.37,-729.91 4424.23,-728.82 4422.11,-727.66 4420.04,-726.43 4418.01,-725.12 4416.02,-723.75 4414.1,-722.32 4412.23,-720.82 4410.42,-719.28 4408.7,-717.68 4407.05,-716.03 4405.49,-714.35 4404.03,-712.63 4402.67,-710.87 4401.42,-709.09 4400.29,-707.28 4399.28,-705.46 4398.41,-703.63 4397.68,-701.78 4397.1,-699.94 4396.67,-698.09 4396.39,-696.26 4396.29,-694.44 4396.35,-692.63 4396.59,-690.85 4397.01,-689.09 4397.6,-687.37 4398.38,-685.69 4399.34,-684.04 4400.49,-682.44 4401.81,-680.9 4403.32,-679.4 4405.01,-677.97 4406.87,-676.6 4408.9,-675.29 4411.1,-674.06 4413.45,-672.9 4415.96,-671.81 4418.6,-670.81 4421.38,-669.88 4424.29,-669.05 4427.3,-668.3 4430.42,-667.63 4433.62,-667.06 4436.9,-666.59 4440.25,-666.2 4443.64,-665.91 4447.07,-665.72 4450.52,-665.62 4453.97,-665.62 4457.42,-665.72"/>
<text text-anchor="start" x="4423.08" y="-710.66" font-family="Times,serif" font-size="14.00">C0004340</text>
<text text-anchor="start" x="4426.59" y="-696.66" font-family="Times,serif" font-size="14.00">Australia</text>
<text text-anchor="start" x="4436.3" y="-682.66" font-family="Times,serif" font-size="14.00">69:69</text>
</g>
<!-- id_28520661_DOT_21 -->
<g id="node21" class="node">
<title>id_28520661_DOT_21</title>
<polygon fill="darkkhaki" stroke="darkkhaki" points="4106.24,-801.93 4111.83,-802.13 4117.37,-802.42 4122.82,-802.8 4128.17,-803.28 4133.4,-803.85 4138.49,-804.51 4143.41,-805.26 4148.14,-806.1 4152.68,-807.02 4157,-808.03 4161.08,-809.11 4164.92,-810.27 4168.51,-811.51 4171.82,-812.81 4174.86,-814.18 4177.61,-815.62 4180.07,-817.11 4182.24,-818.66 4184.11,-820.25 4185.67,-821.9 4186.94,-823.58 4187.92,-825.31 4188.59,-827.06 4188.98,-828.85 4189.09,-830.65 4188.91,-832.47 4188.47,-834.31 4187.77,-836.15 4186.82,-838 4185.63,-839.84 4184.2,-841.67 4182.56,-843.5 4180.72,-845.3 4178.68,-847.08 4176.46,-848.84 4174.07,-850.56 4171.53,-852.25 4168.84,-853.89 4166.02,-855.49 4163.08,-857.04 4160.03,-858.53 4156.89,-859.96 4153.65,-861.34 4150.33,-862.64 4146.95,-863.88 4143.51,-865.04 4140.01,-866.12 4136.46,-867.13 4132.88,-868.05 4129.26,-868.89 4125.62,-869.64 4121.95,-870.3 4118.26,-870.87 4114.56,-871.35 4110.84,-871.73 4107.12,-872.02 4103.39,-872.21 4099.66,-872.31 4095.92,-872.31 4092.19,-872.21 4088.46,-872.02 4084.73,-871.73 4081.02,-871.35 4077.31,-870.87 4073.63,-870.3 4069.96,-869.64 4066.31,-868.89 4062.7,-868.05 4059.11,-867.13 4055.57,-866.12 4052.07,-865.04 4048.63,-863.88 4045.24,-862.64 4041.93,-861.34 4038.69,-859.96 4035.54,-858.53 4032.49,-857.04 4029.55,-855.49 4026.73,-853.89 4024.05,-852.25 4021.5,-850.56 4019.11,-848.84 4016.89,-847.08 4014.86,-845.3 4013.01,-843.5 4011.37,-841.67 4009.95,-839.84 4008.76,-838 4007.81,-836.15 4007.1,-834.31 4006.66,-832.47 4006.49,-830.65 4006.59,-828.85 4006.98,-827.06 4007.66,-825.31 4008.63,-823.58 4009.9,-821.9 4011.47,-820.25 4013.34,-818.66 4015.5,-817.11 4017.96,-815.62 4020.72,-814.18 4023.75,-812.81 4027.07,-811.51 4030.65,-810.27 4034.49,-809.11 4038.58,-808.03 4042.9,-807.02 4047.43,-806.1 4052.17,-805.26 4057.09,-804.51 4062.17,-803.85 4067.4,-803.28 4072.76,-802.8 4078.21,-802.42 4083.75,-802.13 4089.34,-801.93 4094.97,-801.84 4100.61,-801.84 4106.24,-801.93"/>
<text text-anchor="start" x="4068.62" y="-846.87" font-family="Times,serif" font-size="14.00">C0242271</text>
<text text-anchor="start" x="4045.1" y="-832.87" font-family="Times,serif" font-size="14.00">employment status</text>
<text text-anchor="start" x="4074.84" y="-818.87" font-family="Times,serif" font-size="14.00">192:193</text>
</g>
<!-- id_28520661_DOT_11&#45;&#45;id_28520661_DOT_21 -->
<g id="edge21" class="edge">
<title>id_28520661_DOT_11&#45;&#45;id_28520661_DOT_21</title>
<path fill="none" stroke="black" stroke-dasharray="1,5" d="M4408.43,-717.7C4347.86,-740.97 4237.95,-783.21 4166.43,-810.7"/>
<text text-anchor="middle" x="4261.18" y="-767" font-family="Times,serif" font-size="14.00">0.840905</text>
</g>
<!-- id_28520661_DOT_12 -->
<g id="node12" class="node">
<title>id_28520661_DOT_12</title>
<polygon fill="coral" stroke="coral" points="4293.59,-0.23 4297.28,-0.42 4300.93,-0.71 4304.52,-1.09 4308.05,-1.57 4311.5,-2.14 4314.85,-2.8 4318.1,-3.55 4321.22,-4.39 4324.21,-5.31 4327.06,-6.32 4329.75,-7.4 4332.28,-8.57 4334.65,-9.8 4336.83,-11.1 4338.83,-12.48 4340.65,-13.91 4342.27,-15.4 4343.7,-16.95 4344.93,-18.55 4345.96,-20.19 4346.8,-21.88 4347.44,-23.6 4347.89,-25.36 4348.15,-27.14 4348.21,-28.94 4348.1,-30.77 4347.81,-32.6 4347.35,-34.44 4346.72,-36.29 4345.93,-38.13 4345,-39.97 4343.91,-41.79 4342.7,-43.6 4341.35,-45.38 4339.89,-47.13 4338.32,-48.86 4336.64,-50.54 4334.87,-52.19 4333.01,-53.78 4331.07,-55.33 4329.06,-56.82 4326.98,-58.26 4324.85,-59.63 4322.66,-60.94 4320.43,-62.17 4318.16,-63.33 4315.85,-64.42 4313.52,-65.42 4311.16,-66.34 4308.77,-67.18 4306.37,-67.93 4303.95,-68.59 4301.52,-69.16 4299.08,-69.64 4296.63,-70.02 4294.17,-70.31 4291.71,-70.51 4289.25,-70.6 4286.79,-70.6 4284.32,-70.51 4281.86,-70.31 4279.41,-70.02 4276.96,-69.64 4274.52,-69.16 4272.09,-68.59 4269.67,-67.93 4267.26,-67.18 4264.88,-66.34 4262.52,-65.42 4260.18,-64.42 4257.87,-63.33 4255.6,-62.17 4253.37,-60.94 4251.19,-59.63 4249.05,-58.26 4246.98,-56.82 4244.97,-55.33 4243.03,-53.78 4241.17,-52.19 4239.39,-50.54 4237.72,-48.86 4236.14,-47.13 4234.68,-45.38 4233.34,-43.6 4232.12,-41.79 4231.04,-39.97 4230.1,-38.13 4229.32,-36.29 4228.69,-34.44 4228.22,-32.6 4227.93,-30.77 4227.82,-28.94 4227.89,-27.14 4228.14,-25.36 4228.59,-23.6 4229.23,-21.88 4230.07,-20.19 4231.1,-18.55 4232.34,-16.95 4233.76,-15.4 4235.39,-13.91 4237.2,-12.48 4239.2,-11.1 4241.39,-9.8 4243.75,-8.57 4246.28,-7.4 4248.98,-6.32 4251.83,-5.31 4254.82,-4.39 4257.94,-3.55 4261.18,-2.8 4264.53,-2.14 4267.98,-1.57 4271.51,-1.09 4275.11,-0.71 4278.76,-0.42 4282.45,-0.23 4286.16,-0.13 4289.88,-0.13 4293.59,-0.23"/>
<text text-anchor="start" x="4258.85" y="-45.17" font-family="Times,serif" font-size="14.00">C2348001</text>
<text text-anchor="start" x="4255.95" y="-31.17" font-family="Times,serif" font-size="14.00">age cohorts</text>
<text text-anchor="start" x="4272.07" y="-17.17" font-family="Times,serif" font-size="14.00">73:74</text>
</g>
<!-- id_28520661_DOT_13 -->
<g id="node13" class="node">
<title>id_28520661_DOT_13</title>
<polygon fill="cornflowerblue" stroke="cornflowerblue" points="4147.81,-375.71 4151.24,-375.9 4154.63,-376.19 4157.97,-376.57 4161.25,-377.05 4164.46,-377.62 4167.57,-378.28 4170.59,-379.03 4173.49,-379.87 4176.27,-380.79 4178.92,-381.8 4181.42,-382.88 4183.78,-384.04 4185.97,-385.28 4188.01,-386.58 4189.87,-387.95 4191.55,-389.39 4193.06,-390.88 4194.39,-392.43 4195.53,-394.03 4196.5,-395.67 4197.27,-397.36 4197.87,-399.08 4198.28,-400.83 4198.52,-402.62 4198.59,-404.42 4198.48,-406.24 4198.21,-408.08 4197.78,-409.92 4197.2,-411.77 4196.47,-413.61 4195.59,-415.45 4194.59,-417.27 4193.46,-419.07 4192.21,-420.86 4190.85,-422.61 4189.39,-424.33 4187.83,-426.02 4186.18,-427.66 4184.45,-429.26 4182.65,-430.81 4180.78,-432.3 4178.85,-433.74 4176.87,-435.11 4174.84,-436.41 4172.76,-437.65 4170.65,-438.81 4168.51,-439.89 4166.33,-440.9 4164.14,-441.82 4161.92,-442.66 4159.69,-443.41 4157.44,-444.07 4155.18,-444.64 4152.91,-445.12 4150.63,-445.5 4148.35,-445.79 4146.06,-445.98 4143.78,-446.08 4141.49,-446.08 4139.2,-445.98 4136.91,-445.79 4134.63,-445.5 4132.35,-445.12 4130.08,-444.64 4127.82,-444.07 4125.57,-443.41 4123.34,-442.66 4121.12,-441.82 4118.93,-440.9 4116.75,-439.89 4114.61,-438.81 4112.5,-437.65 4110.43,-436.41 4108.39,-435.11 4106.41,-433.74 4104.48,-432.3 4102.61,-430.81 4100.81,-429.26 4099.08,-427.66 4097.43,-426.02 4095.87,-424.33 4094.41,-422.61 4093.05,-420.86 4091.8,-419.07 4090.67,-417.27 4089.67,-415.45 4088.8,-413.61 4088.06,-411.77 4087.48,-409.92 4087.05,-408.08 4086.78,-406.24 4086.67,-404.42 4086.74,-402.62 4086.98,-400.83 4087.39,-399.08 4087.99,-397.36 4088.77,-395.67 4089.73,-394.03 4090.87,-392.43 4092.2,-390.88 4093.71,-389.39 4095.39,-387.95 4097.26,-386.58 4099.29,-385.28 4101.48,-384.04 4103.84,-382.88 4106.34,-381.8 4108.99,-380.79 4111.77,-379.87 4114.67,-379.03 4117.69,-378.28 4120.8,-377.62 4124.01,-377.05 4127.29,-376.57 4130.63,-376.19 4134.02,-375.9 4137.45,-375.71 4140.9,-375.61 4144.36,-375.61 4147.81,-375.71"/>
<text text-anchor="start" x="4113.46" y="-420.64" font-family="Times,serif" font-size="14.00">C0001792</text>
<text text-anchor="start" x="4128.25" y="-406.64" font-family="Times,serif" font-size="14.00">older</text>
<text text-anchor="start" x="4126.69" y="-392.64" font-family="Times,serif" font-size="14.00">83:83</text>
</g>
<!-- id_28520661_DOT_12&#45;&#45;id_28520661_DOT_13 -->
<g id="edge22" class="edge">
<title>id_28520661_DOT_12&#45;&#45;id_28520661_DOT_13</title>
<path fill="none" stroke="black" stroke-dasharray="1,5" d="M4274.86,-69.35C4247.32,-140.48 4183.86,-304.36 4156.08,-376.12"/>
<text text-anchor="middle" x="4189.22" y="-225.54" font-family="Times,serif" font-size="14.00">0.650310</text>
</g>
<!-- id_28520661_DOT_13&#45;&#45;id_28520661_DOT_21 -->
<g id="edge23" class="edge">
<title>id_28520661_DOT_13&#45;&#45;id_28520661_DOT_21</title>
<path fill="none" stroke="black" stroke-dasharray="1,5" d="M4138.92,-446.09C4130.49,-526.27 4109.94,-721.57 4101.5,-801.79"/>
<text text-anchor="middle" x="4093.96" y="-626.74" font-family="Times,serif" font-size="14.00">0.865476</text>
</g>
<!-- id_28520661_DOT_14 -->
<g id="node14" class="node">
<title>id_28520661_DOT_14</title>
<polygon fill="crimson" stroke="crimson" points="4637,-1692.55 4640.43,-1692.74 4643.82,-1693.03 4647.16,-1693.41 4650.44,-1693.89 4653.65,-1694.46 4656.76,-1695.12 4659.78,-1695.87 4662.68,-1696.71 4665.46,-1697.63 4668.11,-1698.64 4670.61,-1699.72 4672.97,-1700.89 4675.16,-1702.12 4677.19,-1703.42 4679.06,-1704.8 4680.74,-1706.23 4682.25,-1707.72 4683.58,-1709.27 4684.72,-1710.87 4685.68,-1712.51 4686.46,-1714.2 4687.06,-1715.92 4687.47,-1717.68 4687.71,-1719.46 4687.78,-1721.26 4687.67,-1723.09 4687.4,-1724.92 4686.97,-1726.77 4686.38,-1728.61 4685.65,-1730.45 4684.78,-1732.29 4683.78,-1734.11 4682.65,-1735.92 4681.4,-1737.7 4680.04,-1739.45 4678.57,-1741.18 4677.02,-1742.86 4675.37,-1744.51 4673.64,-1746.1 4671.84,-1747.65 4669.97,-1749.15 4668.04,-1750.58 4666.06,-1751.95 4664.02,-1753.26 4661.95,-1754.49 4659.84,-1755.65 4657.69,-1756.74 4655.52,-1757.74 4653.33,-1758.66 4651.11,-1759.5 4648.88,-1760.25 4646.63,-1760.91 4644.37,-1761.48 4642.1,-1761.96 4639.82,-1762.34 4637.54,-1762.63 4635.25,-1762.83 4632.96,-1762.92 4630.67,-1762.92 4628.39,-1762.83 4626.1,-1762.63 4623.82,-1762.34 4621.54,-1761.96 4619.27,-1761.48 4617.01,-1760.91 4614.76,-1760.25 4612.53,-1759.5 4610.31,-1758.66 4608.11,-1757.74 4605.94,-1756.74 4603.8,-1755.65 4601.69,-1754.49 4599.61,-1753.26 4597.58,-1751.95 4595.6,-1750.58 4593.67,-1749.15 4591.8,-1747.65 4590,-1746.1 4588.27,-1744.51 4586.62,-1742.86 4585.06,-1741.18 4583.6,-1739.45 4582.24,-1737.7 4580.99,-1735.92 4579.86,-1734.11 4578.85,-1732.29 4577.98,-1730.45 4577.25,-1728.61 4576.67,-1726.77 4576.24,-1724.92 4575.97,-1723.09 4575.86,-1721.26 4575.93,-1719.46 4576.16,-1717.68 4576.58,-1715.92 4577.18,-1714.2 4577.95,-1712.51 4578.91,-1710.87 4580.06,-1709.27 4581.39,-1707.72 4582.9,-1706.23 4584.58,-1704.8 4586.44,-1703.42 4588.47,-1702.12 4590.67,-1700.89 4593.02,-1699.72 4595.53,-1698.64 4598.18,-1697.63 4600.96,-1696.71 4603.86,-1695.87 4606.87,-1695.12 4609.99,-1694.46 4613.2,-1693.89 4616.48,-1693.41 4619.82,-1693.03 4623.21,-1692.74 4626.64,-1692.55 4630.09,-1692.45 4633.55,-1692.45 4637,-1692.55"/>
<text text-anchor="start" x="4602.65" y="-1737.49" font-family="Times,serif" font-size="14.00">C0027361</text>
<text text-anchor="start" x="4613.16" y="-1723.49" font-family="Times,serif" font-size="14.00">people</text>
<text text-anchor="start" x="4608.87" y="-1709.49" font-family="Times,serif" font-size="14.00">129:129</text>
</g>
<!-- id_28520661_DOT_16 -->
<g id="node16" class="node">
<title>id_28520661_DOT_16</title>
<polygon fill="darkgoldenrod" stroke="darkgoldenrod" points="4290.69,-1471.86 4294.12,-1472.06 4297.51,-1472.34 4300.85,-1472.73 4304.13,-1473.21 4307.34,-1473.78 4310.45,-1474.44 4313.47,-1475.19 4316.37,-1476.03 4319.15,-1476.95 4321.8,-1477.95 4324.3,-1479.04 4326.66,-1480.2 4328.85,-1481.43 4330.89,-1482.74 4332.75,-1484.11 4334.43,-1485.54 4335.94,-1487.04 4337.27,-1488.59 4338.41,-1490.18 4339.38,-1491.83 4340.15,-1493.51 4340.75,-1495.24 4341.17,-1496.99 4341.4,-1498.77 4341.47,-1500.58 4341.36,-1502.4 4341.09,-1504.24 4340.66,-1506.08 4340.08,-1507.92 4339.35,-1509.77 4338.47,-1511.6 4337.47,-1513.43 4336.34,-1515.23 4335.09,-1517.01 4333.73,-1518.77 4332.27,-1520.49 4330.71,-1522.18 4329.06,-1523.82 4327.33,-1525.42 4325.53,-1526.97 4323.66,-1528.46 4321.73,-1529.89 4319.75,-1531.26 4317.72,-1532.57 4315.64,-1533.8 4313.53,-1534.97 4311.39,-1536.05 4309.21,-1537.06 4307.02,-1537.98 4304.8,-1538.82 4302.57,-1539.57 4300.32,-1540.23 4298.06,-1540.8 4295.79,-1541.28 4293.51,-1541.66 4291.23,-1541.95 4288.94,-1542.14 4286.66,-1542.24 4284.37,-1542.24 4282.08,-1542.14 4279.79,-1541.95 4277.51,-1541.66 4275.23,-1541.28 4272.96,-1540.8 4270.7,-1540.23 4268.45,-1539.57 4266.22,-1538.82 4264,-1537.98 4261.81,-1537.06 4259.63,-1536.05 4257.49,-1534.97 4255.38,-1533.8 4253.31,-1532.57 4251.27,-1531.26 4249.29,-1529.89 4247.36,-1528.46 4245.49,-1526.97 4243.69,-1525.42 4241.96,-1523.82 4240.31,-1522.18 4238.75,-1520.49 4237.29,-1518.77 4235.93,-1517.01 4234.68,-1515.23 4233.55,-1513.43 4232.55,-1511.6 4231.68,-1509.77 4230.94,-1507.92 4230.36,-1506.08 4229.93,-1504.24 4229.66,-1502.4 4229.55,-1500.58 4229.62,-1498.77 4229.86,-1496.99 4230.27,-1495.24 4230.87,-1493.51 4231.65,-1491.83 4232.61,-1490.18 4233.75,-1488.59 4235.08,-1487.04 4236.59,-1485.54 4238.27,-1484.11 4240.14,-1482.74 4242.17,-1481.43 4244.36,-1480.2 4246.72,-1479.04 4249.22,-1477.95 4251.87,-1476.95 4254.65,-1476.03 4257.55,-1475.19 4260.57,-1474.44 4263.68,-1473.78 4266.89,-1473.21 4270.17,-1472.73 4273.51,-1472.34 4276.9,-1472.06 4280.33,-1471.86 4283.78,-1471.77 4287.24,-1471.77 4290.69,-1471.86"/>
<text text-anchor="start" x="4256.34" y="-1516.8" font-family="Times,serif" font-size="14.00">C0005615</text>
<text text-anchor="start" x="4272.29" y="-1502.8" font-family="Times,serif" font-size="14.00">birth</text>
<text text-anchor="start" x="4262.57" y="-1488.8" font-family="Times,serif" font-size="14.00">149:149</text>
</g>
<!-- id_28520661_DOT_14&#45;&#45;id_28520661_DOT_16 -->
<g id="edge24" class="edge">
<title>id_28520661_DOT_14&#45;&#45;id_28520661_DOT_16</title>
<path fill="none" stroke="black" stroke-dasharray="1,5" d="M4590.05,-1701.07C4521.51,-1657.39 4386.34,-1571.25 4321.66,-1530.04"/>
<text text-anchor="middle" x="4429.6" y="-1618.35" font-family="Times,serif" font-size="14.00">0.818095</text>
</g>
<!-- id_28520661_DOT_30 -->
<g id="node30" class="node">
<title>id_28520661_DOT_30</title>
<polygon fill="darkorange" stroke="darkorange" points="4979.71,-1893.18 4983.31,-1893.37 4986.88,-1893.66 4990.39,-1894.05 4993.84,-1894.52 4997.2,-1895.09 5000.48,-1895.75 5003.65,-1896.5 5006.7,-1897.34 5009.62,-1898.27 5012.4,-1899.27 5015.03,-1900.35 5017.51,-1901.52 5019.82,-1902.75 5021.95,-1904.06 5023.91,-1905.43 5025.68,-1906.86 5027.26,-1908.35 5028.66,-1909.9 5029.86,-1911.5 5030.87,-1913.14 5031.69,-1914.83 5032.32,-1916.55 5032.75,-1918.31 5033,-1920.09 5033.07,-1921.9 5032.96,-1923.72 5032.67,-1925.55 5032.22,-1927.4 5031.61,-1929.24 5030.84,-1931.08 5029.93,-1932.92 5028.87,-1934.74 5027.68,-1936.55 5026.37,-1938.33 5024.94,-1940.08 5023.4,-1941.81 5021.76,-1943.49 5020.03,-1945.14 5018.22,-1946.74 5016.32,-1948.28 5014.36,-1949.78 5012.33,-1951.21 5010.25,-1952.58 5008.11,-1953.89 5005.93,-1955.12 5003.71,-1956.28 5001.46,-1957.37 4999.18,-1958.37 4996.87,-1959.29 4994.54,-1960.13 4992.19,-1960.88 4989.83,-1961.54 4987.45,-1962.11 4985.07,-1962.59 4982.68,-1962.98 4980.28,-1963.26 4977.87,-1963.46 4975.47,-1963.55 4973.06,-1963.55 4970.66,-1963.46 4968.26,-1963.26 4965.86,-1962.98 4963.46,-1962.59 4961.08,-1962.11 4958.7,-1961.54 4956.34,-1960.88 4953.99,-1960.13 4951.66,-1959.29 4949.36,-1958.37 4947.07,-1957.37 4944.82,-1956.28 4942.6,-1955.12 4940.42,-1953.89 4938.29,-1952.58 4936.2,-1951.21 4934.17,-1949.78 4932.21,-1948.28 4930.32,-1946.74 4928.5,-1945.14 4926.77,-1943.49 4925.13,-1941.81 4923.59,-1940.08 4922.16,-1938.33 4920.85,-1936.55 4919.66,-1934.74 4918.61,-1932.92 4917.69,-1931.08 4916.92,-1929.24 4916.31,-1927.4 4915.86,-1925.55 4915.57,-1923.72 4915.46,-1921.9 4915.53,-1920.09 4915.78,-1918.31 4916.22,-1916.55 4916.84,-1914.83 4917.66,-1913.14 4918.67,-1911.5 4919.87,-1909.9 4921.27,-1908.35 4922.85,-1906.86 4924.62,-1905.43 4926.58,-1904.06 4928.72,-1902.75 4931.02,-1901.52 4933.5,-1900.35 4936.13,-1899.27 4938.91,-1898.27 4941.83,-1897.34 4944.88,-1896.5 4948.05,-1895.75 4951.33,-1895.09 4954.69,-1894.52 4958.14,-1894.05 4961.66,-1893.66 4965.22,-1893.37 4968.82,-1893.18 4972.45,-1893.08 4976.08,-1893.08 4979.71,-1893.18"/>
<text text-anchor="start" x="4945.1" y="-1938.12" font-family="Times,serif" font-size="14.00">C0237401</text>
<text text-anchor="start" x="4943.16" y="-1924.12" font-family="Times,serif" font-size="14.00">individuals</text>
<text text-anchor="start" x="4951.32" y="-1910.12" font-family="Times,serif" font-size="14.00">263:263</text>
</g>
<!-- id_28520661_DOT_14&#45;&#45;id_28520661_DOT_30 -->
<g id="edge25" class="edge">
<title>id_28520661_DOT_14&#45;&#45;id_28520661_DOT_30</title>
<path fill="none" stroke="black" stroke-dasharray="1,5" d="M4669.45,-1749.73C4733.04,-1786.99 4861.48,-1862.24 4929.56,-1902.12"/>
<text text-anchor="middle" x="4773.51" y="-1828.73" font-family="Times,serif" font-size="14.00">0.791611</text>
</g>
<!-- id_28520661_DOT_15 -->
<g id="node15" class="node">
<title>id_28520661_DOT_15</title>
<polygon fill="aquamarine" stroke="aquamarine" points="475.16,-1681.15 478.59,-1681.35 481.99,-1681.63 485.33,-1682.02 488.61,-1682.5 491.81,-1683.07 494.93,-1683.73 497.95,-1684.48 500.85,-1685.32 503.63,-1686.24 506.28,-1687.24 508.78,-1688.33 511.13,-1689.49 513.33,-1690.72 515.36,-1692.03 517.22,-1693.4 518.91,-1694.83 520.42,-1696.33 521.75,-1697.87 522.89,-1699.47 523.85,-1701.12 524.63,-1702.8 525.22,-1704.53 525.64,-1706.28 525.88,-1708.06 525.94,-1709.87 525.84,-1711.69 525.57,-1713.53 525.14,-1715.37 524.55,-1717.21 523.82,-1719.06 522.95,-1720.89 521.95,-1722.71 520.81,-1724.52 519.57,-1726.3 518.21,-1728.06 516.74,-1729.78 515.18,-1731.47 513.54,-1733.11 511.81,-1734.71 510,-1736.26 508.14,-1737.75 506.21,-1739.18 504.22,-1740.55 502.19,-1741.86 500.12,-1743.09 498.01,-1744.26 495.86,-1745.34 493.69,-1746.34 491.49,-1747.27 489.28,-1748.11 487.04,-1748.86 484.79,-1749.52 482.53,-1750.09 480.26,-1750.57 477.99,-1750.95 475.71,-1751.24 473.42,-1751.43 471.13,-1751.53 468.84,-1751.53 466.55,-1751.43 464.27,-1751.24 461.98,-1750.95 459.71,-1750.57 457.44,-1750.09 455.18,-1749.52 452.93,-1748.86 450.7,-1748.11 448.48,-1747.27 446.28,-1746.34 444.11,-1745.34 441.97,-1744.26 439.85,-1743.09 437.78,-1741.86 435.75,-1740.55 433.77,-1739.18 431.84,-1737.75 429.97,-1736.26 428.16,-1734.71 426.44,-1733.11 424.79,-1731.47 423.23,-1729.78 421.77,-1728.06 420.41,-1726.3 419.16,-1724.52 418.03,-1722.71 417.02,-1720.89 416.15,-1719.06 415.42,-1717.21 414.84,-1715.37 414.41,-1713.53 414.14,-1711.69 414.03,-1709.87 414.09,-1708.06 414.33,-1706.28 414.75,-1704.53 415.34,-1702.8 416.12,-1701.12 417.08,-1699.47 418.23,-1697.87 419.55,-1696.33 421.06,-1694.83 422.75,-1693.4 424.61,-1692.03 426.64,-1690.72 428.84,-1689.49 431.19,-1688.33 433.7,-1687.24 436.34,-1686.24 439.12,-1685.32 442.03,-1684.48 445.04,-1683.73 448.16,-1683.07 451.36,-1682.5 454.64,-1682.02 457.99,-1681.63 461.38,-1681.35 464.81,-1681.15 468.26,-1681.06 471.71,-1681.06 475.16,-1681.15"/>
<text text-anchor="start" x="440.82" y="-1726.09" font-family="Times,serif" font-size="14.00">C0876926</text>
<text text-anchor="start" x="458.71" y="-1712.09" font-family="Times,serif" font-size="14.00">TBI</text>
<text text-anchor="start" x="447.04" y="-1698.09" font-family="Times,serif" font-size="14.00">132:132</text>
</g>
<!-- id_28520661_DOT_17 -->
<g id="node17" class="node">
<title>id_28520661_DOT_17</title>
<polygon fill="aquamarine" stroke="aquamarine" points="120.62,-1616.21 127.38,-1616.4 134.07,-1616.69 140.66,-1617.07 147.13,-1617.55 153.44,-1618.12 159.59,-1618.78 165.53,-1619.53 171.25,-1620.37 176.73,-1621.29 181.95,-1622.3 186.89,-1623.38 191.53,-1624.54 195.86,-1625.78 199.87,-1627.08 203.54,-1628.45 206.86,-1629.89 209.84,-1631.38 212.45,-1632.93 214.71,-1634.53 216.6,-1636.17 218.14,-1637.86 219.31,-1639.58 220.13,-1641.33 220.6,-1643.12 220.73,-1644.92 220.52,-1646.75 219.99,-1648.58 219.14,-1650.42 217.99,-1652.27 216.55,-1654.11 214.83,-1655.95 212.85,-1657.77 210.62,-1659.57 208.16,-1661.36 205.47,-1663.11 202.59,-1664.83 199.52,-1666.52 196.27,-1668.16 192.86,-1669.76 189.31,-1671.31 185.62,-1672.8 181.82,-1674.24 177.91,-1675.61 173.9,-1676.91 169.81,-1678.15 165.65,-1679.31 161.42,-1680.39 157.14,-1681.4 152.81,-1682.32 148.44,-1683.16 144.04,-1683.91 139.6,-1684.57 135.15,-1685.14 130.67,-1685.62 126.18,-1686 121.69,-1686.29 117.18,-1686.48 112.67,-1686.58 108.15,-1686.58 103.64,-1686.48 99.13,-1686.29 94.63,-1686 90.14,-1685.62 85.67,-1685.14 81.21,-1684.57 76.78,-1683.91 72.38,-1683.16 68.01,-1682.32 63.68,-1681.4 59.39,-1680.39 55.17,-1679.31 51.01,-1678.15 46.92,-1676.91 42.91,-1675.61 39,-1674.24 35.2,-1672.8 31.51,-1671.31 27.96,-1669.76 24.55,-1668.16 21.3,-1666.52 18.23,-1664.83 15.34,-1663.11 12.66,-1661.36 10.2,-1659.57 7.97,-1657.77 5.99,-1655.95 4.27,-1654.11 2.83,-1652.27 1.68,-1650.42 0.83,-1648.58 0.3,-1646.75 0.09,-1644.92 0.22,-1643.12 0.69,-1641.33 1.51,-1639.58 2.68,-1637.86 4.21,-1636.17 6.11,-1634.53 8.37,-1632.93 10.98,-1631.38 13.96,-1629.89 17.28,-1628.45 20.95,-1627.08 24.96,-1625.78 29.29,-1624.54 33.93,-1623.38 38.87,-1622.3 44.08,-1621.29 49.56,-1620.37 55.29,-1619.53 61.23,-1618.78 67.38,-1618.12 73.69,-1617.55 80.16,-1617.07 86.75,-1616.69 93.44,-1616.4 100.2,-1616.21 107,-1616.11 113.82,-1616.11 120.62,-1616.21"/>
<text text-anchor="start" x="81.24" y="-1661.15" font-family="Times,serif" font-size="14.00">C0876926</text>
<text text-anchor="start" x="45.1" y="-1647.15" font-family="Times,serif" font-size="14.00">traumatic brain injuries</text>
<text text-anchor="start" x="87.46" y="-1633.15" font-family="Times,serif" font-size="14.00">172:174</text>
</g>
<!-- id_28520661_DOT_15&#45;&#45;id_28520661_DOT_17 -->
<g id="edge8" class="edge">
<title>id_28520661_DOT_15&#45;&#45;id_28520661_DOT_17</title>
<path fill="none" stroke="black" d="M414.2,-1706.22C356.5,-1695.79 265.58,-1679.37 198.22,-1667.21"/>
<text text-anchor="middle" x="279.96" y="-1689.51" font-family="Times,serif" font-size="14.00">0.007065</text>
</g>
<!-- id_28520661_DOT_28 -->
<g id="node28" class="node">
<title>id_28520661_DOT_28</title>
<polygon fill="aquamarine" stroke="aquamarine" points="840.9,-1666.55 844.33,-1666.74 847.72,-1667.03 851.06,-1667.41 854.34,-1667.89 857.55,-1668.46 860.66,-1669.12 863.68,-1669.87 866.58,-1670.71 869.36,-1671.63 872.01,-1672.64 874.51,-1673.72 876.87,-1674.88 879.06,-1676.12 881.1,-1677.42 882.96,-1678.8 884.64,-1680.23 886.15,-1681.72 887.48,-1683.27 888.62,-1684.87 889.58,-1686.51 890.36,-1688.2 890.96,-1689.92 891.37,-1691.68 891.61,-1693.46 891.68,-1695.26 891.57,-1697.09 891.3,-1698.92 890.87,-1700.76 890.29,-1702.61 889.55,-1704.45 888.68,-1706.29 887.68,-1708.11 886.55,-1709.92 885.3,-1711.7 883.94,-1713.45 882.48,-1715.18 880.92,-1716.86 879.27,-1718.51 877.54,-1720.1 875.74,-1721.65 873.87,-1723.14 871.94,-1724.58 869.96,-1725.95 867.93,-1727.25 865.85,-1728.49 863.74,-1729.65 861.6,-1730.74 859.42,-1731.74 857.23,-1732.66 855.01,-1733.5 852.78,-1734.25 850.53,-1734.91 848.27,-1735.48 846,-1735.96 843.72,-1736.34 841.44,-1736.63 839.15,-1736.83 836.86,-1736.92 834.58,-1736.92 832.29,-1736.83 830,-1736.63 827.72,-1736.34 825.44,-1735.96 823.17,-1735.48 820.91,-1734.91 818.66,-1734.25 816.43,-1733.5 814.21,-1732.66 812.02,-1731.74 809.84,-1730.74 807.7,-1729.65 805.59,-1728.49 803.51,-1727.25 801.48,-1725.95 799.5,-1724.58 797.57,-1723.14 795.7,-1721.65 793.9,-1720.1 792.17,-1718.51 790.52,-1716.86 788.96,-1715.18 787.5,-1713.45 786.14,-1711.7 784.89,-1709.92 783.76,-1708.11 782.76,-1706.29 781.88,-1704.45 781.15,-1702.61 780.57,-1700.76 780.14,-1698.92 779.87,-1697.09 779.76,-1695.26 779.83,-1693.46 780.07,-1691.68 780.48,-1689.92 781.08,-1688.2 781.85,-1686.51 782.82,-1684.87 783.96,-1683.27 785.29,-1681.72 786.8,-1680.23 788.48,-1678.8 790.34,-1677.42 792.38,-1676.12 794.57,-1674.88 796.93,-1673.72 799.43,-1672.64 802.08,-1671.63 804.86,-1670.71 807.76,-1669.87 810.78,-1669.12 813.89,-1668.46 817.1,-1667.89 820.38,-1667.41 823.72,-1667.03 827.11,-1666.74 830.54,-1666.55 833.99,-1666.45 837.45,-1666.45 840.9,-1666.55"/>
<text text-anchor="start" x="806.55" y="-1711.49" font-family="Times,serif" font-size="14.00">C0876926</text>
<text text-anchor="start" x="824.44" y="-1697.49" font-family="Times,serif" font-size="14.00">TBI</text>
<text text-anchor="start" x="812.77" y="-1683.49" font-family="Times,serif" font-size="14.00">254:254</text>
</g>
<!-- id_28520661_DOT_15&#45;&#45;id_28520661_DOT_28 -->
<g id="edge9" class="edge">
<title>id_28520661_DOT_15&#45;&#45;id_28520661_DOT_28</title>
<path fill="none" stroke="black" d="M525.53,-1714.07C594.87,-1711.3 712.7,-1706.6 781.44,-1703.85"/>
<text text-anchor="middle" x="627.24" y="-1711.76" font-family="Times,serif" font-size="14.00">0.002538</text>
</g>
<!-- id_28520661_DOT_32 -->
<g id="node32" class="node">
<title>id_28520661_DOT_32</title>
<polygon fill="darksalmon" stroke="darksalmon" points="3945.91,-1210.12 3951.97,-1210.31 3957.98,-1210.6 3963.89,-1210.98 3969.7,-1211.46 3975.37,-1212.03 3980.88,-1212.69 3986.21,-1213.44 3991.35,-1214.28 3996.27,-1215.2 4000.95,-1216.21 4005.38,-1217.29 4009.54,-1218.45 4013.43,-1219.69 4017.02,-1220.99 4020.32,-1222.37 4023.3,-1223.8 4025.97,-1225.29 4028.32,-1226.84 4030.34,-1228.44 4032.04,-1230.08 4033.42,-1231.77 4034.47,-1233.49 4035.21,-1235.25 4035.63,-1237.03 4035.74,-1238.83 4035.56,-1240.66 4035.08,-1242.49 4034.32,-1244.33 4033.28,-1246.18 4031.99,-1248.02 4030.45,-1249.86 4028.67,-1251.68 4026.67,-1253.49 4024.46,-1255.27 4022.05,-1257.02 4019.47,-1258.75 4016.71,-1260.43 4013.79,-1262.08 4010.74,-1263.67 4007.55,-1265.22 4004.24,-1266.71 4000.83,-1268.15 3997.32,-1269.52 3993.72,-1270.82 3990.05,-1272.06 3986.32,-1273.22 3982.53,-1274.31 3978.68,-1275.31 3974.8,-1276.23 3970.88,-1277.07 3966.92,-1277.82 3962.95,-1278.48 3958.95,-1279.05 3954.93,-1279.53 3950.91,-1279.91 3946.87,-1280.2 3942.82,-1280.4 3938.77,-1280.49 3934.72,-1280.49 3930.68,-1280.4 3926.63,-1280.2 3922.59,-1279.91 3918.56,-1279.53 3914.55,-1279.05 3910.55,-1278.48 3906.57,-1277.82 3902.62,-1277.07 3898.7,-1276.23 3894.81,-1275.31 3890.97,-1274.31 3887.18,-1273.22 3883.44,-1272.06 3879.77,-1270.82 3876.18,-1269.52 3872.67,-1268.15 3869.26,-1266.71 3865.95,-1265.22 3862.76,-1263.67 3859.7,-1262.08 3856.79,-1260.43 3854.03,-1258.75 3851.44,-1257.02 3849.04,-1255.27 3846.83,-1253.49 3844.83,-1251.68 3843.05,-1249.86 3841.51,-1248.02 3840.21,-1246.18 3839.18,-1244.33 3838.42,-1242.49 3837.94,-1240.66 3837.75,-1238.83 3837.87,-1237.03 3838.29,-1235.25 3839.02,-1233.49 3840.08,-1231.77 3841.45,-1230.08 3843.16,-1228.44 3845.18,-1226.84 3847.53,-1225.29 3850.2,-1223.8 3853.18,-1222.37 3856.47,-1220.99 3860.07,-1219.69 3863.95,-1218.45 3868.12,-1217.29 3872.55,-1216.21 3877.23,-1215.2 3882.15,-1214.28 3887.29,-1213.44 3892.62,-1212.69 3898.13,-1212.03 3903.8,-1211.46 3909.61,-1210.98 3915.52,-1210.6 3921.52,-1210.31 3927.59,-1210.12 3933.69,-1210.02 3939.81,-1210.02 3945.91,-1210.12"/>
<text text-anchor="start" x="3907.58" y="-1255.06" font-family="Times,serif" font-size="14.00">C0025353</text>
<text text-anchor="start" x="3879.02" y="-1241.06" font-family="Times,serif" font-size="14.00">psychological health</text>
<text text-anchor="start" x="3913.8" y="-1227.06" font-family="Times,serif" font-size="14.00">275:276</text>
</g>
<!-- id_28520661_DOT_16&#45;&#45;id_28520661_DOT_32 -->
<g id="edge26" class="edge">
<title>id_28520661_DOT_16&#45;&#45;id_28520661_DOT_32</title>
<path fill="none" stroke="black" stroke-dasharray="1,5" d="M4247.52,-1478.49C4181.32,-1428.81 4045.38,-1326.78 3977.37,-1275.75"/>
<text text-anchor="middle" x="4086.2" y="-1379.92" font-family="Times,serif" font-size="14.00">0.614913</text>
</g>
<!-- id_28520661_DOT_18 -->
<g id="node18" class="node">
<title>id_28520661_DOT_18</title>
<polygon fill="bisque" stroke="bisque" points="5326.87,-2082.29 5330.38,-2082.48 5333.85,-2082.77 5337.28,-2083.15 5340.63,-2083.63 5343.91,-2084.2 5347.1,-2084.86 5350.19,-2085.61 5353.16,-2086.45 5356.01,-2087.37 5358.71,-2088.38 5361.28,-2089.46 5363.69,-2090.63 5365.94,-2091.86 5368.01,-2093.17 5369.92,-2094.54 5371.65,-2095.97 5373.19,-2097.46 5374.55,-2099.01 5375.72,-2100.61 5376.7,-2102.25 5377.5,-2103.94 5378.11,-2105.66 5378.54,-2107.42 5378.78,-2109.2 5378.84,-2111.01 5378.74,-2112.83 5378.46,-2114.66 5378.02,-2116.51 5377.42,-2118.35 5376.67,-2120.19 5375.78,-2122.03 5374.75,-2123.85 5373.6,-2125.66 5372.32,-2127.44 5370.93,-2129.19 5369.43,-2130.92 5367.83,-2132.6 5366.15,-2134.25 5364.38,-2135.85 5362.53,-2137.39 5360.62,-2138.89 5358.64,-2140.32 5356.61,-2141.69 5354.53,-2143 5352.41,-2144.23 5350.25,-2145.39 5348.06,-2146.48 5345.83,-2147.48 5343.59,-2148.4 5341.32,-2149.24 5339.03,-2149.99 5336.73,-2150.65 5334.42,-2151.22 5332.09,-2151.7 5329.76,-2152.09 5327.43,-2152.37 5325.09,-2152.57 5322.74,-2152.66 5320.4,-2152.66 5318.06,-2152.57 5315.72,-2152.37 5313.38,-2152.09 5311.05,-2151.7 5308.73,-2151.22 5306.41,-2150.65 5304.11,-2149.99 5301.83,-2149.24 5299.56,-2148.4 5297.31,-2147.48 5295.09,-2146.48 5292.89,-2145.39 5290.73,-2144.23 5288.61,-2143 5286.53,-2141.69 5284.5,-2140.32 5282.52,-2138.89 5280.61,-2137.39 5278.77,-2135.85 5277,-2134.25 5275.31,-2132.6 5273.72,-2130.92 5272.22,-2129.19 5270.83,-2127.44 5269.55,-2125.66 5268.39,-2123.85 5267.36,-2122.03 5266.47,-2120.19 5265.72,-2118.35 5265.12,-2116.51 5264.68,-2114.66 5264.41,-2112.83 5264.3,-2111.01 5264.36,-2109.2 5264.61,-2107.42 5265.03,-2105.66 5265.64,-2103.94 5266.44,-2102.25 5267.42,-2100.61 5268.59,-2099.01 5269.95,-2097.46 5271.5,-2095.97 5273.22,-2094.54 5275.13,-2093.17 5277.21,-2091.86 5279.46,-2090.63 5281.86,-2089.46 5284.43,-2088.38 5287.14,-2087.37 5289.98,-2086.45 5292.95,-2085.61 5296.04,-2084.86 5299.23,-2084.2 5302.51,-2083.63 5305.87,-2083.15 5309.29,-2082.77 5312.76,-2082.48 5316.27,-2082.29 5319.8,-2082.19 5323.34,-2082.19 5326.87,-2082.29"/>
<text text-anchor="start" x="5292.66" y="-2127.23" font-family="Times,serif" font-size="14.00">C0011570</text>
<text text-anchor="start" x="5291.63" y="-2113.23" font-family="Times,serif" font-size="14.00">depression</text>
<text text-anchor="start" x="5298.63" y="-2099.23" font-family="Times,serif" font-size="14.00">177:177</text>
</g>
<!-- id_28520661_DOT_18&#45;&#45;id_28520661_DOT_20 -->
<g id="edge10" class="edge">
<title>id_28520661_DOT_18&#45;&#45;id_28520661_DOT_20</title>
<path fill="none" stroke="black" d="M5361.46,-2138.28C5429.78,-2173.98 5568.81,-2246.64 5641.38,-2284.56"/>
<text text-anchor="middle" x="5475.17" y="-2214.22" font-family="Times,serif" font-size="14.00">0.000438</text>
</g>
<!-- id_28520661_DOT_18&#45;&#45;id_28520661_DOT_30 -->
<g id="edge27" class="edge">
<title>id_28520661_DOT_18&#45;&#45;id_28520661_DOT_30</title>
<path fill="none" stroke="black" stroke-dasharray="1,5" d="M5275.81,-2092.51C5207.29,-2055.2 5079.15,-1985.43 5014.2,-1950.07"/>
<text text-anchor="middle" x="5118.76" y="-2024.09" font-family="Times,serif" font-size="14.00">1.002077</text>
</g>
<!-- id_28520661_DOT_19 -->
<g id="node19" class="node">
<title>id_28520661_DOT_19</title>
<polygon fill="darkgreen" stroke="darkgreen" points="3194.16,-2070.18 3197.8,-2070.38 3201.4,-2070.66 3204.95,-2071.05 3208.43,-2071.53 3211.83,-2072.1 3215.13,-2072.76 3218.33,-2073.51 3221.41,-2074.35 3224.36,-2075.27 3227.17,-2076.27 3229.83,-2077.36 3232.32,-2078.52 3234.65,-2079.75 3236.81,-2081.06 3238.78,-2082.43 3240.57,-2083.86 3242.17,-2085.36 3243.58,-2086.9 3244.79,-2088.5 3245.81,-2090.15 3246.64,-2091.83 3247.27,-2093.56 3247.71,-2095.31 3247.96,-2097.09 3248.03,-2098.9 3247.92,-2100.72 3247.63,-2102.56 3247.18,-2104.4 3246.56,-2106.24 3245.78,-2108.09 3244.86,-2109.92 3243.79,-2111.74 3242.59,-2113.55 3241.27,-2115.33 3239.82,-2117.09 3238.27,-2118.81 3236.62,-2120.5 3234.87,-2122.14 3233.04,-2123.74 3231.12,-2125.29 3229.14,-2126.78 3227.1,-2128.21 3224.99,-2129.58 3222.84,-2130.89 3220.64,-2132.12 3218.4,-2133.28 3216.12,-2134.37 3213.82,-2135.37 3211.49,-2136.3 3209.14,-2137.14 3206.77,-2137.89 3204.38,-2138.55 3201.98,-2139.12 3199.58,-2139.59 3197.16,-2139.98 3194.74,-2140.27 3192.31,-2140.46 3189.89,-2140.56 3187.46,-2140.56 3185.03,-2140.46 3182.6,-2140.27 3180.18,-2139.98 3177.77,-2139.59 3175.36,-2139.12 3172.96,-2138.55 3170.58,-2137.89 3168.21,-2137.14 3165.86,-2136.3 3163.53,-2135.37 3161.22,-2134.37 3158.95,-2133.28 3156.71,-2132.12 3154.51,-2130.89 3152.35,-2129.58 3150.25,-2128.21 3148.2,-2126.78 3146.22,-2125.29 3144.31,-2123.74 3142.47,-2122.14 3140.72,-2120.5 3139.07,-2118.81 3137.52,-2117.09 3136.08,-2115.33 3134.75,-2113.55 3133.55,-2111.74 3132.49,-2109.92 3131.56,-2108.09 3130.79,-2106.24 3130.17,-2104.4 3129.71,-2102.56 3129.42,-2100.72 3129.31,-2098.9 3129.38,-2097.09 3129.63,-2095.31 3130.07,-2093.56 3130.7,-2091.83 3131.53,-2090.15 3132.55,-2088.5 3133.76,-2086.9 3135.17,-2085.36 3136.77,-2083.86 3138.56,-2082.43 3140.54,-2081.06 3142.69,-2079.75 3145.02,-2078.52 3147.52,-2077.36 3150.17,-2076.27 3152.98,-2075.27 3155.93,-2074.35 3159.01,-2073.51 3162.21,-2072.76 3165.52,-2072.1 3168.92,-2071.53 3172.4,-2071.05 3175.94,-2070.66 3179.54,-2070.38 3183.18,-2070.18 3186.84,-2070.09 3190.5,-2070.09 3194.16,-2070.18"/>
<text text-anchor="start" x="3159.5" y="-2115.12" font-family="Times,serif" font-size="14.00">C0035648</text>
<text text-anchor="start" x="3157.38" y="-2101.12" font-family="Times,serif" font-size="14.00">risk factors</text>
<text text-anchor="start" x="3165.73" y="-2087.12" font-family="Times,serif" font-size="14.00">181:182</text>
</g>
<!-- id_28520661_DOT_19&#45;&#45;id_28520661_DOT_31 -->
<g id="edge28" class="edge">
<title>id_28520661_DOT_19&#45;&#45;id_28520661_DOT_31</title>
<path fill="none" stroke="black" stroke-dasharray="1,5" d="M3213.53,-2072.33C3260.71,-2009.72 3362.58,-1874.53 3408.45,-1813.65"/>
<text text-anchor="middle" x="3284.74" y="-1945.79" font-family="Times,serif" font-size="14.00">0.742099</text>
</g>
<!-- id_28520661_DOT_22 -->
<g id="node22" class="node">
<title>id_28520661_DOT_22</title>
<polygon fill="bisque" stroke="bisque" points="6056.45,-2059.01 6059.96,-2059.2 6063.43,-2059.49 6066.85,-2059.87 6070.21,-2060.35 6073.49,-2060.92 6076.68,-2061.58 6079.77,-2062.33 6082.74,-2063.17 6085.58,-2064.09 6088.29,-2065.1 6090.86,-2066.18 6093.26,-2067.34 6095.51,-2068.58 6097.59,-2069.88 6099.5,-2071.25 6101.22,-2072.69 6102.77,-2074.18 6104.13,-2075.73 6105.3,-2077.33 6106.28,-2078.97 6107.08,-2080.66 6107.69,-2082.38 6108.11,-2084.13 6108.36,-2085.92 6108.42,-2087.72 6108.31,-2089.54 6108.04,-2091.38 6107.6,-2093.22 6107,-2095.07 6106.25,-2096.91 6105.36,-2098.74 6104.33,-2100.57 6103.17,-2102.37 6101.89,-2104.15 6100.5,-2105.91 6099,-2107.63 6097.41,-2109.32 6095.72,-2110.96 6093.95,-2112.56 6092.11,-2114.11 6090.2,-2115.6 6088.22,-2117.04 6086.19,-2118.41 6084.11,-2119.71 6081.99,-2120.95 6079.83,-2122.11 6077.63,-2123.19 6075.41,-2124.2 6073.16,-2125.12 6070.89,-2125.96 6068.61,-2126.71 6066.31,-2127.37 6063.99,-2127.94 6061.67,-2128.42 6059.34,-2128.8 6057,-2129.09 6054.66,-2129.28 6052.32,-2129.38 6049.98,-2129.38 6047.63,-2129.28 6045.29,-2129.09 6042.96,-2128.8 6040.63,-2128.42 6038.3,-2127.94 6035.99,-2127.37 6033.69,-2126.71 6031.4,-2125.96 6029.13,-2125.12 6026.89,-2124.2 6024.66,-2123.19 6022.47,-2122.11 6020.31,-2120.95 6018.19,-2119.71 6016.11,-2118.41 6014.08,-2117.04 6012.1,-2115.6 6010.19,-2114.11 6008.34,-2112.56 6006.57,-2110.96 6004.89,-2109.32 6003.29,-2107.63 6001.79,-2105.91 6000.4,-2104.15 5999.12,-2102.37 5997.97,-2100.57 5996.94,-2098.74 5996.05,-2096.91 5995.3,-2095.07 5994.7,-2093.22 5994.26,-2091.38 5993.98,-2089.54 5993.88,-2087.72 5993.94,-2085.92 5994.18,-2084.13 5994.61,-2082.38 5995.22,-2080.66 5996.02,-2078.97 5997,-2077.33 5998.17,-2075.73 5999.53,-2074.18 6001.07,-2072.69 6002.8,-2071.25 6004.71,-2069.88 6006.78,-2068.58 6009.03,-2067.34 6011.44,-2066.18 6014.01,-2065.1 6016.71,-2064.09 6019.56,-2063.17 6022.53,-2062.33 6025.62,-2061.58 6028.81,-2060.92 6032.09,-2060.35 6035.44,-2059.87 6038.87,-2059.49 6042.34,-2059.2 6045.85,-2059.01 6049.38,-2058.91 6052.92,-2058.91 6056.45,-2059.01"/>
<text text-anchor="start" x="6022.24" y="-2103.94" font-family="Times,serif" font-size="14.00">C0011570</text>
<text text-anchor="start" x="6021.21" y="-2089.94" font-family="Times,serif" font-size="14.00">depression</text>
<text text-anchor="start" x="6028.2" y="-2075.94" font-family="Times,serif" font-size="14.00">198:198</text>
</g>
<!-- id_28520661_DOT_20&#45;&#45;id_28520661_DOT_22 -->
<g id="edge11" class="edge">
<title>id_28520661_DOT_20&#45;&#45;id_28520661_DOT_22</title>
<path fill="none" stroke="black" d="M5731.64,-2282.93C5803.55,-2240.44 5945.37,-2156.65 6013.23,-2116.55"/>
<text text-anchor="middle" x="5846.19" y="-2202.54" font-family="Times,serif" font-size="14.00">0.000448</text>
</g>
<!-- id_28520661_DOT_21&#45;&#45;id_28520661_DOT_32 -->
<g id="edge29" class="edge">
<title>id_28520661_DOT_21&#45;&#45;id_28520661_DOT_32</title>
<path fill="none" stroke="black" stroke-dasharray="1,5" d="M4084.06,-871.87C4053.67,-948.9 3981.02,-1133.05 3950.56,-1210.25"/>
<text text-anchor="middle" x="3991.06" y="-1043.86" font-family="Times,serif" font-size="14.00">0.812589</text>
</g>
<!-- id_28520661_DOT_27 -->
<g id="node27" class="node">
<title>id_28520661_DOT_27</title>
<polygon fill="bisque" stroke="bisque" points="6425.24,-1920.47 6428.75,-1920.66 6432.22,-1920.95 6435.64,-1921.34 6439,-1921.81 6442.28,-1922.39 6445.47,-1923.05 6448.55,-1923.8 6451.53,-1924.63 6454.37,-1925.56 6457.08,-1926.56 6459.64,-1927.65 6462.05,-1928.81 6464.3,-1930.04 6466.38,-1931.35 6468.29,-1932.72 6470.01,-1934.15 6471.56,-1935.65 6472.91,-1937.19 6474.09,-1938.79 6475.07,-1940.44 6475.87,-1942.12 6476.48,-1943.85 6476.9,-1945.6 6477.15,-1947.38 6477.21,-1949.19 6477.1,-1951.01 6476.83,-1952.85 6476.39,-1954.69 6475.79,-1956.53 6475.04,-1958.38 6474.15,-1960.21 6473.12,-1962.03 6471.96,-1963.84 6470.68,-1965.62 6469.29,-1967.38 6467.79,-1969.1 6466.2,-1970.79 6464.51,-1972.43 6462.74,-1974.03 6460.9,-1975.58 6458.99,-1977.07 6457.01,-1978.5 6454.98,-1979.87 6452.9,-1981.18 6450.78,-1982.41 6448.62,-1983.57 6446.42,-1984.66 6444.2,-1985.66 6441.95,-1986.59 6439.68,-1987.42 6437.4,-1988.18 6435.09,-1988.84 6432.78,-1989.41 6430.46,-1989.88 6428.13,-1990.27 6425.79,-1990.56 6423.45,-1990.75 6421.11,-1990.85 6418.77,-1990.85 6416.42,-1990.75 6414.08,-1990.56 6411.75,-1990.27 6409.42,-1989.88 6407.09,-1989.41 6404.78,-1988.84 6402.48,-1988.18 6400.19,-1987.42 6397.92,-1986.59 6395.68,-1985.66 6393.45,-1984.66 6391.26,-1983.57 6389.1,-1982.41 6386.97,-1981.18 6384.9,-1979.87 6382.87,-1978.5 6380.89,-1977.07 6378.98,-1975.58 6377.13,-1974.03 6375.36,-1972.43 6373.68,-1970.79 6372.08,-1969.1 6370.58,-1967.38 6369.19,-1965.62 6367.91,-1963.84 6366.76,-1962.03 6365.73,-1960.21 6364.84,-1958.38 6364.09,-1956.53 6363.49,-1954.69 6363.05,-1952.85 6362.77,-1951.01 6362.66,-1949.19 6362.73,-1947.38 6362.97,-1945.6 6363.4,-1943.85 6364.01,-1942.12 6364.81,-1940.44 6365.79,-1938.79 6366.96,-1937.19 6368.32,-1935.65 6369.86,-1934.15 6371.59,-1932.72 6373.49,-1931.35 6375.57,-1930.04 6377.82,-1928.81 6380.23,-1927.65 6382.79,-1926.56 6385.5,-1925.56 6388.35,-1924.63 6391.32,-1923.8 6394.41,-1923.05 6397.6,-1922.39 6400.88,-1921.81 6404.23,-1921.34 6407.66,-1920.95 6411.13,-1920.66 6414.64,-1920.47 6418.17,-1920.38 6421.71,-1920.38 6425.24,-1920.47"/>
<text text-anchor="start" x="6391.03" y="-1965.41" font-family="Times,serif" font-size="14.00">C0011570</text>
<text text-anchor="start" x="6390" y="-1951.41" font-family="Times,serif" font-size="14.00">depression</text>
<text text-anchor="start" x="6396.99" y="-1937.41" font-family="Times,serif" font-size="14.00">252:252</text>
</g>
<!-- id_28520661_DOT_22&#45;&#45;id_28520661_DOT_27 -->
<g id="edge12" class="edge">
<title>id_28520661_DOT_22&#45;&#45;id_28520661_DOT_27</title>
<path fill="none" stroke="black" d="M6103.2,-2074.59C6175.87,-2047.29 6306.5,-1998.22 6375.09,-1972.46"/>
<text text-anchor="middle" x="6212.9" y="-2026.32" font-family="Times,serif" font-size="14.00">0.001041</text>
</g>
<!-- id_28520661_DOT_23&#45;&#45;id_28520661_DOT_31 -->
<g id="edge30" class="edge">
<title>id_28520661_DOT_23&#45;&#45;id_28520661_DOT_31</title>
<path fill="none" stroke="black" stroke-dasharray="1,5" d="M3492.9,-1401.38C3480.29,-1479.95 3449.94,-1669.01 3437.32,-1747.62"/>
<text text-anchor="middle" x="3438.86" y="-1577.3" font-family="Times,serif" font-size="14.00">0.670927</text>
</g>
<!-- id_28520661_DOT_23&#45;&#45;id_28520661_DOT_32 -->
<g id="edge31" class="edge">
<title>id_28520661_DOT_23&#45;&#45;id_28520661_DOT_32</title>
<path fill="none" stroke="black" stroke-dasharray="1,5" d="M3578.16,-1344.24C3660.08,-1321.63 3786.54,-1286.72 3865.33,-1264.97"/>
<text text-anchor="middle" x="3695.75" y="-1307.41" font-family="Times,serif" font-size="14.00">0.718311</text>
</g>
<!-- id_28520661_DOT_29 -->
<g id="node29" class="node">
<title>id_28520661_DOT_29</title>
<polygon fill="aquamarine" stroke="aquamarine" points="1206.94,-1630.82 1210.37,-1631.01 1213.76,-1631.3 1217.1,-1631.69 1220.38,-1632.16 1223.59,-1632.73 1226.7,-1633.4 1229.72,-1634.15 1232.62,-1634.98 1235.4,-1635.91 1238.05,-1636.91 1240.55,-1638 1242.91,-1639.16 1245.1,-1640.39 1247.13,-1641.7 1249,-1643.07 1250.68,-1644.5 1252.19,-1646 1253.52,-1647.54 1254.66,-1649.14 1255.62,-1650.79 1256.4,-1652.47 1257,-1654.19 1257.41,-1655.95 1257.65,-1657.73 1257.72,-1659.54 1257.61,-1661.36 1257.34,-1663.19 1256.91,-1665.04 1256.32,-1666.88 1255.59,-1668.73 1254.72,-1670.56 1253.72,-1672.38 1252.59,-1674.19 1251.34,-1675.97 1249.98,-1677.73 1248.51,-1679.45 1246.96,-1681.13 1245.31,-1682.78 1243.58,-1684.38 1241.78,-1685.92 1239.91,-1687.42 1237.98,-1688.85 1236,-1690.22 1233.96,-1691.53 1231.89,-1692.76 1229.78,-1693.92 1227.63,-1695.01 1225.46,-1696.01 1223.27,-1696.94 1221.05,-1697.77 1218.82,-1698.52 1216.57,-1699.19 1214.31,-1699.76 1212.04,-1700.23 1209.76,-1700.62 1207.48,-1700.91 1205.19,-1701.1 1202.9,-1701.2 1200.61,-1701.2 1198.33,-1701.1 1196.04,-1700.91 1193.76,-1700.62 1191.48,-1700.23 1189.21,-1699.76 1186.95,-1699.19 1184.7,-1698.52 1182.47,-1697.77 1180.25,-1696.94 1178.06,-1696.01 1175.88,-1695.01 1173.74,-1693.92 1171.63,-1692.76 1169.55,-1691.53 1167.52,-1690.22 1165.54,-1688.85 1163.61,-1687.42 1161.74,-1685.92 1159.94,-1684.38 1158.21,-1682.78 1156.56,-1681.13 1155,-1679.45 1153.54,-1677.73 1152.18,-1675.97 1150.93,-1674.19 1149.8,-1672.38 1148.8,-1670.56 1147.92,-1668.73 1147.19,-1666.88 1146.61,-1665.04 1146.18,-1663.19 1145.91,-1661.36 1145.8,-1659.54 1145.87,-1657.73 1146.1,-1655.95 1146.52,-1654.19 1147.12,-1652.47 1147.89,-1650.79 1148.86,-1649.14 1150,-1647.54 1151.33,-1646 1152.84,-1644.5 1154.52,-1643.07 1156.38,-1641.7 1158.41,-1640.39 1160.61,-1639.16 1162.97,-1638 1165.47,-1636.91 1168.12,-1635.91 1170.9,-1634.98 1173.8,-1634.15 1176.81,-1633.4 1179.93,-1632.73 1183.14,-1632.16 1186.42,-1631.69 1189.76,-1631.3 1193.15,-1631.01 1196.58,-1630.82 1200.03,-1630.72 1203.49,-1630.72 1206.94,-1630.82"/>
<text text-anchor="start" x="1172.59" y="-1675.76" font-family="Times,serif" font-size="14.00">C0876926</text>
<text text-anchor="start" x="1190.48" y="-1661.76" font-family="Times,serif" font-size="14.00">TBI</text>
<text text-anchor="start" x="1178.81" y="-1647.76" font-family="Times,serif" font-size="14.00">261:261</text>
</g>
<!-- id_28520661_DOT_24&#45;&#45;id_28520661_DOT_29 -->
<g id="edge13" class="edge">
<title>id_28520661_DOT_24&#45;&#45;id_28520661_DOT_29</title>
<path fill="none" stroke="black" d="M1517.53,-1634.23C1448.56,-1641.16 1328.32,-1653.24 1257.79,-1660.33"/>
<text text-anchor="middle" x="1361.41" y="-1650.08" font-family="Times,serif" font-size="14.00">0.000525</text>
</g>
<!-- id_28520661_DOT_26 -->
<g id="node26" class="node">
<title>id_28520661_DOT_26</title>
<polygon fill="bisque" stroke="bisque" points="6791.32,-1823.81 6794.82,-1824 6798.3,-1824.29 6801.72,-1824.68 6805.08,-1825.15 6808.36,-1825.72 6811.55,-1826.39 6814.63,-1827.14 6817.6,-1827.97 6820.45,-1828.9 6823.16,-1829.9 6825.72,-1830.99 6828.13,-1832.15 6830.38,-1833.38 6832.46,-1834.69 6834.36,-1836.06 6836.09,-1837.49 6837.63,-1838.99 6838.99,-1840.53 6840.16,-1842.13 6841.15,-1843.78 6841.94,-1845.46 6842.55,-1847.18 6842.98,-1848.94 6843.22,-1850.72 6843.29,-1852.53 6843.18,-1854.35 6842.9,-1856.18 6842.46,-1858.03 6841.87,-1859.87 6841.12,-1861.72 6840.23,-1863.55 6839.2,-1865.37 6838.04,-1867.18 6836.76,-1868.96 6835.37,-1870.72 6833.87,-1872.44 6832.28,-1874.12 6830.59,-1875.77 6828.82,-1877.37 6826.98,-1878.91 6825.06,-1880.41 6823.09,-1881.84 6821.06,-1883.21 6818.98,-1884.52 6816.86,-1885.75 6814.69,-1886.91 6812.5,-1888 6810.28,-1889 6808.03,-1889.93 6805.76,-1890.76 6803.47,-1891.51 6801.17,-1892.18 6798.86,-1892.75 6796.54,-1893.22 6794.21,-1893.61 6791.87,-1893.9 6789.53,-1894.09 6787.19,-1894.18 6784.84,-1894.18 6782.5,-1894.09 6780.16,-1893.9 6777.83,-1893.61 6775.49,-1893.22 6773.17,-1892.75 6770.86,-1892.18 6768.56,-1891.51 6766.27,-1890.76 6764,-1889.93 6761.75,-1889 6759.53,-1888 6757.34,-1886.91 6755.18,-1885.75 6753.05,-1884.52 6750.97,-1883.21 6748.94,-1881.84 6746.97,-1880.41 6745.06,-1878.91 6743.21,-1877.37 6741.44,-1875.77 6739.76,-1874.12 6738.16,-1872.44 6736.66,-1870.72 6735.27,-1868.96 6733.99,-1867.18 6732.83,-1865.37 6731.81,-1863.55 6730.91,-1861.72 6730.17,-1859.87 6729.57,-1858.03 6729.13,-1856.18 6728.85,-1854.35 6728.74,-1852.53 6728.81,-1850.72 6729.05,-1848.94 6729.48,-1847.18 6730.09,-1845.46 6730.88,-1843.78 6731.87,-1842.13 6733.04,-1840.53 6734.4,-1838.99 6735.94,-1837.49 6737.67,-1836.06 6739.57,-1834.69 6741.65,-1833.38 6743.9,-1832.15 6746.31,-1830.99 6748.87,-1829.9 6751.58,-1828.9 6754.43,-1827.97 6757.4,-1827.14 6760.48,-1826.39 6763.67,-1825.72 6766.95,-1825.15 6770.31,-1824.68 6773.73,-1824.29 6777.21,-1824 6780.72,-1823.81 6784.25,-1823.71 6787.78,-1823.71 6791.32,-1823.81"/>
<text text-anchor="start" x="6757.1" y="-1868.75" font-family="Times,serif" font-size="14.00">C0011570</text>
<text text-anchor="start" x="6756.08" y="-1854.75" font-family="Times,serif" font-size="14.00">depression</text>
<text text-anchor="start" x="6763.07" y="-1840.75" font-family="Times,serif" font-size="14.00">232:232</text>
</g>
<!-- id_28520661_DOT_26&#45;&#45;id_28520661_DOT_27 -->
<g id="edge14" class="edge">
<title>id_28520661_DOT_26&#45;&#45;id_28520661_DOT_27</title>
<path fill="none" stroke="black" d="M6737.4,-1871.79C6669.53,-1889.71 6546.68,-1922.15 6475.34,-1940.98"/>
<text text-anchor="middle" x="6580.12" y="-1909.18" font-family="Times,serif" font-size="14.00">0.000263</text>
</g>
<!-- id_28520661_DOT_28&#45;&#45;id_28520661_DOT_29 -->
<g id="edge15" class="edge">
<title>id_28520661_DOT_28&#45;&#45;id_28520661_DOT_29</title>
<path fill="none" stroke="black" d="M891.71,-1696.22C961.71,-1689.39 1080.61,-1677.78 1149.04,-1671.11"/>
<text text-anchor="middle" x="994.13" y="-1686.46" font-family="Times,serif" font-size="14.00">0.000227</text>
</g>
</g>
</svg>
