<?xml version="1.0" encoding="UTF-8" standalone="no"?>
<!DOCTYPE svg PUBLIC "-//W3C//DTD SVG 1.1//EN"
 "http://www.w3.org/Graphics/SVG/1.1/DTD/svg11.dtd">
<!-- Generated by graphviz version 2.42.3 (20191010.1750)
 -->
<!-- Title: MST Pages: 1 -->
<svg width="4416pt" height="4542pt"
 viewBox="0.00 0.00 4416.23 4542.08" xmlns="http://www.w3.org/2000/svg" xmlns:xlink="http://www.w3.org/1999/xlink">
<g id="graph0" class="graph" transform="scale(1 1) rotate(0) translate(4 4538.08)">
<title>MST</title>
<polygon fill="white" stroke="transparent" points="-4,4 -4,-4538.08 4412.23,-4538.08 4412.23,4 -4,4"/>
<!-- id_28538990_DOT_1 -->
<g id="node1" class="node">
<title>id_28538990_DOT_1</title>
<polygon fill="aquamarine" stroke="aquamarine" points="3009.79,-345.67 3013.22,-345.86 3016.61,-346.15 3019.96,-346.53 3023.24,-347.01 3026.44,-347.58 3029.56,-348.24 3032.58,-348.99 3035.48,-349.83 3038.26,-350.75 3040.9,-351.76 3043.41,-352.84 3045.76,-354 3047.96,-355.24 3049.99,-356.54 3051.85,-357.91 3053.54,-359.35 3055.05,-360.84 3056.38,-362.39 3057.52,-363.99 3058.48,-365.63 3059.26,-367.32 3059.85,-369.04 3060.27,-370.79 3060.51,-372.58 3060.57,-374.38 3060.47,-376.2 3060.2,-378.04 3059.77,-379.88 3059.18,-381.73 3058.45,-383.57 3057.58,-385.41 3056.58,-387.23 3055.44,-389.03 3054.2,-390.82 3052.84,-392.57 3051.37,-394.29 3049.81,-395.98 3048.17,-397.62 3046.44,-399.22 3044.63,-400.77 3042.77,-402.26 3040.84,-403.7 3038.85,-405.07 3036.82,-406.37 3034.75,-407.61 3032.64,-408.77 3030.49,-409.85 3028.32,-410.86 3026.12,-411.78 3023.91,-412.62 3021.67,-413.37 3019.42,-414.03 3017.16,-414.6 3014.89,-415.08 3012.62,-415.46 3010.34,-415.75 3008.05,-415.94 3005.76,-416.04 3003.47,-416.04 3001.18,-415.94 2998.9,-415.75 2996.61,-415.46 2994.34,-415.08 2992.07,-414.6 2989.81,-414.03 2987.56,-413.37 2985.32,-412.62 2983.11,-411.78 2980.91,-410.86 2978.74,-409.85 2976.6,-408.77 2974.48,-407.61 2972.41,-406.37 2970.38,-405.07 2968.4,-403.7 2966.47,-402.26 2964.6,-400.77 2962.79,-399.22 2961.07,-397.62 2959.42,-395.98 2957.86,-394.29 2956.4,-392.57 2955.04,-390.82 2953.79,-389.03 2952.66,-387.23 2951.65,-385.41 2950.78,-383.57 2950.05,-381.73 2949.47,-379.88 2949.04,-378.04 2948.77,-376.2 2948.66,-374.38 2948.72,-372.58 2948.96,-370.79 2949.38,-369.04 2949.97,-367.32 2950.75,-365.63 2951.71,-363.99 2952.86,-362.39 2954.18,-360.84 2955.69,-359.35 2957.38,-357.91 2959.24,-356.54 2961.27,-355.24 2963.47,-354 2965.82,-352.84 2968.33,-351.76 2970.97,-350.75 2973.75,-349.83 2976.66,-348.99 2979.67,-348.24 2982.79,-347.58 2985.99,-347.01 2989.27,-346.53 2992.62,-346.15 2996.01,-345.86 2999.44,-345.67 3002.89,-345.57 3006.34,-345.57 3009.79,-345.67"/>
<text text-anchor="start" x="2975.45" y="-390.61" font-family="Times,serif" font-size="14.00">C0013819</text>
<text text-anchor="start" x="2991.01" y="-376.61" font-family="Times,serif" font-size="14.00">EEG</text>
<text text-anchor="start" x="2995.67" y="-362.61" font-family="Times,serif" font-size="14.00">5:5</text>
</g>
<!-- id_28538990_DOT_8 -->
<g id="node8" class="node">
<title>id_28538990_DOT_8</title>
<polygon fill="coral" stroke="coral" points="3132.01,-0.23 3135.44,-0.42 3138.83,-0.71 3142.18,-1.09 3145.46,-1.57 3148.66,-2.14 3151.78,-2.8 3154.79,-3.55 3157.7,-4.39 3160.48,-5.31 3163.12,-6.32 3165.63,-7.4 3167.98,-8.57 3170.18,-9.8 3172.21,-11.1 3174.07,-12.48 3175.76,-13.91 3177.27,-15.4 3178.59,-16.95 3179.74,-18.55 3180.7,-20.19 3181.48,-21.88 3182.07,-23.6 3182.49,-25.36 3182.73,-27.14 3182.79,-28.94 3182.68,-30.77 3182.41,-32.6 3181.98,-34.44 3181.4,-36.29 3180.67,-38.13 3179.8,-39.97 3178.79,-41.79 3177.66,-43.6 3176.41,-45.38 3175.05,-47.13 3173.59,-48.86 3172.03,-50.54 3170.38,-52.19 3168.65,-53.78 3166.85,-55.33 3164.98,-56.82 3163.05,-58.26 3161.07,-59.63 3159.04,-60.94 3156.96,-62.17 3154.85,-63.33 3152.71,-64.42 3150.54,-65.42 3148.34,-66.34 3146.12,-67.18 3143.89,-67.93 3141.64,-68.59 3139.38,-69.16 3137.11,-69.64 3134.84,-70.02 3132.55,-70.31 3130.27,-70.51 3127.98,-70.6 3125.69,-70.6 3123.4,-70.51 3121.11,-70.31 3118.83,-70.02 3116.55,-69.64 3114.28,-69.16 3112.02,-68.59 3109.78,-67.93 3107.54,-67.18 3105.33,-66.34 3103.13,-65.42 3100.96,-64.42 3098.81,-63.33 3096.7,-62.17 3094.63,-60.94 3092.6,-59.63 3090.61,-58.26 3088.68,-56.82 3086.81,-55.33 3085.01,-53.78 3083.28,-52.19 3081.64,-50.54 3080.08,-48.86 3078.61,-47.13 3077.25,-45.38 3076,-43.6 3074.87,-41.79 3073.87,-39.97 3073,-38.13 3072.27,-36.29 3071.68,-34.44 3071.25,-32.6 3070.98,-30.77 3070.88,-28.94 3070.94,-27.14 3071.18,-25.36 3071.59,-23.6 3072.19,-21.88 3072.97,-20.19 3073.93,-18.55 3075.07,-16.95 3076.4,-15.4 3077.91,-13.91 3079.6,-12.48 3081.46,-11.1 3083.49,-9.8 3085.69,-8.57 3088.04,-7.4 3090.54,-6.32 3093.19,-5.31 3095.97,-4.39 3098.87,-3.55 3101.89,-2.8 3105.01,-2.14 3108.21,-1.57 3111.49,-1.09 3114.83,-0.71 3118.23,-0.42 3121.66,-0.23 3125.1,-0.13 3128.56,-0.13 3132.01,-0.23"/>
<text text-anchor="start" x="3097.66" y="-45.17" font-family="Times,serif" font-size="14.00">C0150098</text>
<text text-anchor="start" x="3107.4" y="-31.17" font-family="Times,serif" font-size="14.00">dataset</text>
<text text-anchor="start" x="3110.89" y="-17.17" font-family="Times,serif" font-size="14.00">88:88</text>
</g>
<!-- id_28538990_DOT_1&#45;&#45;id_28538990_DOT_8 -->
<g id="edge11" class="edge">
<title>id_28538990_DOT_1&#45;&#45;id_28538990_DOT_8</title>
<path fill="none" stroke="black" stroke-dasharray="1,5" d="M3016.89,-346.1C3040.41,-279.63 3091.54,-135.13 3114.83,-69.28"/>
<text text-anchor="middle" x="3039.61" y="-210.49" font-family="Times,serif" font-size="14.00">0.812106</text>
</g>
<!-- id_28538990_DOT_27 -->
<g id="node27" class="node">
<title>id_28538990_DOT_27</title>
<polygon fill="aquamarine" stroke="aquamarine" points="2941.25,-710.9 2944.68,-711.1 2948.07,-711.38 2951.42,-711.77 2954.7,-712.25 2957.9,-712.82 2961.02,-713.48 2964.03,-714.23 2966.94,-715.07 2969.72,-715.99 2972.36,-716.99 2974.87,-718.08 2977.22,-719.24 2979.42,-720.47 2981.45,-721.78 2983.31,-723.15 2985,-724.58 2986.51,-726.08 2987.83,-727.62 2988.98,-729.22 2989.94,-730.87 2990.72,-732.55 2991.31,-734.28 2991.73,-736.03 2991.97,-737.81 2992.03,-739.62 2991.92,-741.44 2991.65,-743.28 2991.22,-745.12 2990.64,-746.96 2989.91,-748.81 2989.04,-750.64 2988.03,-752.46 2986.9,-754.27 2985.65,-756.05 2984.29,-757.81 2982.83,-759.53 2981.27,-761.22 2979.62,-762.86 2977.89,-764.46 2976.09,-766.01 2974.22,-767.5 2972.29,-768.93 2970.31,-770.3 2968.28,-771.61 2966.2,-772.84 2964.09,-774.01 2961.95,-775.09 2959.78,-776.09 2957.58,-777.02 2955.36,-777.86 2953.13,-778.61 2950.88,-779.27 2948.62,-779.84 2946.35,-780.31 2944.08,-780.7 2941.79,-780.99 2939.51,-781.18 2937.22,-781.28 2934.93,-781.28 2932.64,-781.18 2930.35,-780.99 2928.07,-780.7 2925.79,-780.31 2923.53,-779.84 2921.26,-779.27 2919.02,-778.61 2916.78,-777.86 2914.57,-777.02 2912.37,-776.09 2910.2,-775.09 2908.05,-774.01 2905.94,-772.84 2903.87,-771.61 2901.84,-770.3 2899.85,-768.93 2897.92,-767.5 2896.05,-766.01 2894.25,-764.46 2892.52,-762.86 2890.88,-761.22 2889.32,-759.53 2887.85,-757.81 2886.49,-756.05 2885.24,-754.27 2884.11,-752.46 2883.11,-750.64 2882.24,-748.81 2881.51,-746.96 2880.92,-745.12 2880.49,-743.28 2880.22,-741.44 2880.12,-739.62 2880.18,-737.81 2880.42,-736.03 2880.83,-734.28 2881.43,-732.55 2882.21,-730.87 2883.17,-729.22 2884.31,-727.62 2885.64,-726.08 2887.15,-724.58 2888.84,-723.15 2890.7,-721.78 2892.73,-720.47 2894.93,-719.24 2897.28,-718.08 2899.78,-716.99 2902.43,-715.99 2905.21,-715.07 2908.11,-714.23 2911.13,-713.48 2914.25,-712.82 2917.45,-712.25 2920.73,-711.77 2924.07,-711.38 2927.47,-711.1 2930.9,-710.9 2934.35,-710.81 2937.8,-710.81 2941.25,-710.9"/>
<text text-anchor="start" x="2906.9" y="-755.84" font-family="Times,serif" font-size="14.00">C0013819</text>
<text text-anchor="start" x="2922.47" y="-741.84" font-family="Times,serif" font-size="14.00">EEG</text>
<text text-anchor="start" x="2913.13" y="-727.84" font-family="Times,serif" font-size="14.00">233:233</text>
</g>
<!-- id_28538990_DOT_1&#45;&#45;id_28538990_DOT_27 -->
<g id="edge1" class="edge">
<title>id_28538990_DOT_1&#45;&#45;id_28538990_DOT_27</title>
<path fill="none" stroke="black" d="M2998.04,-415.83C2984.96,-485.55 2955.79,-641 2942.68,-710.86"/>
<text text-anchor="middle" x="2944.11" y="-566.14" font-family="Times,serif" font-size="14.00">0.056275</text>
</g>
<!-- id_28538990_DOT_2 -->
<g id="node2" class="node">
<title>id_28538990_DOT_2</title>
<polygon fill="bisque" stroke="bisque" points="2814.73,-2594.95 2818.16,-2595.14 2821.55,-2595.43 2824.89,-2595.81 2828.18,-2596.29 2831.38,-2596.86 2834.5,-2597.52 2837.51,-2598.27 2840.41,-2599.11 2843.19,-2600.03 2845.84,-2601.04 2848.35,-2602.12 2850.7,-2603.28 2852.9,-2604.52 2854.93,-2605.82 2856.79,-2607.19 2858.48,-2608.63 2859.98,-2610.12 2861.31,-2611.67 2862.46,-2613.27 2863.42,-2614.91 2864.19,-2616.6 2864.79,-2618.32 2865.21,-2620.07 2865.44,-2621.86 2865.51,-2623.66 2865.4,-2625.48 2865.13,-2627.32 2864.7,-2629.16 2864.12,-2631.01 2863.39,-2632.85 2862.52,-2634.69 2861.51,-2636.51 2860.38,-2638.31 2859.13,-2640.1 2857.77,-2641.85 2856.31,-2643.57 2854.75,-2645.26 2853.1,-2646.9 2851.37,-2648.5 2849.57,-2650.05 2847.7,-2651.54 2845.77,-2652.98 2843.79,-2654.35 2841.76,-2655.65 2839.68,-2656.89 2837.57,-2658.05 2835.43,-2659.13 2833.26,-2660.14 2831.06,-2661.06 2828.84,-2661.9 2826.61,-2662.65 2824.36,-2663.31 2822.1,-2663.88 2819.83,-2664.36 2817.55,-2664.74 2815.27,-2665.03 2812.99,-2665.22 2810.7,-2665.32 2808.41,-2665.32 2806.12,-2665.22 2803.83,-2665.03 2801.55,-2664.74 2799.27,-2664.36 2797,-2663.88 2794.74,-2663.31 2792.49,-2662.65 2790.26,-2661.9 2788.04,-2661.06 2785.85,-2660.14 2783.68,-2659.13 2781.53,-2658.05 2779.42,-2656.89 2777.35,-2655.65 2775.32,-2654.35 2773.33,-2652.98 2771.4,-2651.54 2769.53,-2650.05 2767.73,-2648.5 2766,-2646.9 2764.36,-2645.26 2762.8,-2643.57 2761.33,-2641.85 2759.97,-2640.1 2758.72,-2638.31 2757.59,-2636.51 2756.59,-2634.69 2755.72,-2632.85 2754.99,-2631.01 2754.4,-2629.16 2753.97,-2627.32 2753.7,-2625.48 2753.6,-2623.66 2753.66,-2621.86 2753.9,-2620.07 2754.31,-2618.32 2754.91,-2616.6 2755.69,-2614.91 2756.65,-2613.27 2757.79,-2611.67 2759.12,-2610.12 2760.63,-2608.63 2762.31,-2607.19 2764.18,-2605.82 2766.21,-2604.52 2768.4,-2603.28 2770.76,-2602.12 2773.26,-2601.04 2775.91,-2600.03 2778.69,-2599.11 2781.59,-2598.27 2784.61,-2597.52 2787.72,-2596.86 2790.93,-2596.29 2794.21,-2595.81 2797.55,-2595.43 2800.95,-2595.14 2804.37,-2594.95 2807.82,-2594.85 2811.28,-2594.85 2814.73,-2594.95"/>
<text text-anchor="start" x="2780.38" y="-2639.88" font-family="Times,serif" font-size="14.00">C0205132</text>
<text text-anchor="start" x="2793.62" y="-2625.88" font-family="Times,serif" font-size="14.00">linear</text>
<text text-anchor="start" x="2793.61" y="-2611.88" font-family="Times,serif" font-size="14.00">15:15</text>
</g>
<!-- id_28538990_DOT_20 -->
<g id="node20" class="node">
<title>id_28538990_DOT_20</title>
<polygon fill="darkmagenta" stroke="darkmagenta" points="2728.94,-2324.9 2734.27,-2325.1 2739.55,-2325.38 2744.76,-2325.77 2749.86,-2326.25 2754.85,-2326.82 2759.7,-2327.48 2764.39,-2328.23 2768.91,-2329.06 2773.24,-2329.99 2777.35,-2330.99 2781.25,-2332.08 2784.92,-2333.24 2788.33,-2334.47 2791.5,-2335.78 2794.39,-2337.15 2797.02,-2338.58 2799.36,-2340.08 2801.43,-2341.62 2803.21,-2343.22 2804.71,-2344.87 2805.92,-2346.55 2806.85,-2348.28 2807.49,-2350.03 2807.86,-2351.81 2807.96,-2353.62 2807.8,-2355.44 2807.38,-2357.28 2806.71,-2359.12 2805.8,-2360.96 2804.66,-2362.81 2803.31,-2364.64 2801.74,-2366.46 2799.98,-2368.27 2798.04,-2370.05 2795.92,-2371.81 2793.64,-2373.53 2791.22,-2375.22 2788.65,-2376.86 2785.96,-2378.46 2783.16,-2380.01 2780.25,-2381.5 2777.25,-2382.93 2774.16,-2384.3 2771,-2385.61 2767.77,-2386.84 2764.49,-2388 2761.15,-2389.09 2757.77,-2390.09 2754.35,-2391.02 2750.9,-2391.85 2747.42,-2392.61 2743.93,-2393.27 2740.41,-2393.84 2736.88,-2394.31 2733.33,-2394.7 2729.78,-2394.99 2726.22,-2395.18 2722.66,-2395.28 2719.1,-2395.28 2715.54,-2395.18 2711.98,-2394.99 2708.43,-2394.7 2704.88,-2394.31 2701.35,-2393.84 2697.83,-2393.27 2694.33,-2392.61 2690.86,-2391.85 2687.41,-2391.02 2683.99,-2390.09 2680.61,-2389.09 2677.27,-2388 2673.99,-2386.84 2670.76,-2385.61 2667.6,-2384.3 2664.51,-2382.93 2661.51,-2381.5 2658.6,-2380.01 2655.79,-2378.46 2653.11,-2376.86 2650.54,-2375.22 2648.11,-2373.53 2645.84,-2371.81 2643.72,-2370.05 2641.78,-2368.27 2640.02,-2366.46 2638.45,-2364.64 2637.1,-2362.81 2635.96,-2360.96 2635.05,-2359.12 2634.38,-2357.28 2633.96,-2355.44 2633.8,-2353.62 2633.9,-2351.81 2634.27,-2350.03 2634.91,-2348.28 2635.84,-2346.55 2637.05,-2344.87 2638.55,-2343.22 2640.33,-2341.62 2642.39,-2340.08 2644.74,-2338.58 2647.37,-2337.15 2650.26,-2335.78 2653.42,-2334.47 2656.84,-2333.24 2660.51,-2332.08 2664.4,-2330.99 2668.52,-2329.99 2672.85,-2329.06 2677.37,-2328.23 2682.06,-2327.48 2686.91,-2326.82 2691.9,-2326.25 2697,-2325.77 2702.21,-2325.38 2707.49,-2325.1 2712.82,-2324.9 2718.19,-2324.81 2723.57,-2324.81 2728.94,-2324.9"/>
<text text-anchor="start" x="2691.71" y="-2369.84" font-family="Times,serif" font-size="14.00">C3161035</text>
<text text-anchor="start" x="2670.92" y="-2355.84" font-family="Times,serif" font-size="14.00">two &#45; stage model</text>
<text text-anchor="start" x="2697.93" y="-2341.84" font-family="Times,serif" font-size="14.00">192:195</text>
</g>
<!-- id_28538990_DOT_2&#45;&#45;id_28538990_DOT_20 -->
<g id="edge12" class="edge">
<title>id_28538990_DOT_2&#45;&#45;id_28538990_DOT_20</title>
<path fill="none" stroke="black" stroke-dasharray="1,5" d="M2798.14,-2595.33C2781.16,-2543.62 2749.42,-2446.97 2732.39,-2395.09"/>
<text text-anchor="middle" x="2739.01" y="-2498.01" font-family="Times,serif" font-size="14.00">0.753820</text>
</g>
<!-- id_28538990_DOT_3 -->
<g id="node3" class="node">
<title>id_28538990_DOT_3</title>
<polygon fill="blue" stroke="blue" points="2211.32,-1785.45 2214.74,-1785.65 2218.14,-1785.93 2221.48,-1786.32 2224.76,-1786.8 2227.97,-1787.37 2231.08,-1788.03 2234.1,-1788.78 2237,-1789.62 2239.78,-1790.54 2242.43,-1791.54 2244.93,-1792.63 2247.29,-1793.79 2249.48,-1795.02 2251.51,-1796.33 2253.37,-1797.7 2255.06,-1799.13 2256.57,-1800.63 2257.9,-1802.18 2259.04,-1803.77 2260,-1805.42 2260.78,-1807.1 2261.38,-1808.83 2261.79,-1810.58 2262.03,-1812.36 2262.09,-1814.17 2261.99,-1815.99 2261.72,-1817.83 2261.29,-1819.67 2260.7,-1821.51 2259.97,-1823.36 2259.1,-1825.19 2258.1,-1827.02 2256.97,-1828.82 2255.72,-1830.6 2254.36,-1832.36 2252.89,-1834.08 2251.33,-1835.77 2249.69,-1837.41 2247.96,-1839.01 2246.16,-1840.56 2244.29,-1842.05 2242.36,-1843.48 2240.37,-1844.85 2238.34,-1846.16 2236.27,-1847.39 2234.16,-1848.56 2232.01,-1849.64 2229.84,-1850.65 2227.65,-1851.57 2225.43,-1852.41 2223.19,-1853.16 2220.95,-1853.82 2218.69,-1854.39 2216.42,-1854.87 2214.14,-1855.25 2211.86,-1855.54 2209.57,-1855.73 2207.28,-1855.83 2204.99,-1855.83 2202.7,-1855.73 2200.42,-1855.54 2198.14,-1855.25 2195.86,-1854.87 2193.59,-1854.39 2191.33,-1853.82 2189.08,-1853.16 2186.85,-1852.41 2184.63,-1851.57 2182.43,-1850.65 2180.26,-1849.64 2178.12,-1848.56 2176.01,-1847.39 2173.93,-1846.16 2171.9,-1844.85 2169.92,-1843.48 2167.99,-1842.05 2166.12,-1840.56 2164.32,-1839.01 2162.59,-1837.41 2160.94,-1835.77 2159.38,-1834.08 2157.92,-1832.36 2156.56,-1830.6 2155.31,-1828.82 2154.18,-1827.02 2153.17,-1825.19 2152.3,-1823.36 2151.57,-1821.51 2150.99,-1819.67 2150.56,-1817.83 2150.29,-1815.99 2150.18,-1814.17 2150.25,-1812.36 2150.48,-1810.58 2150.9,-1808.83 2151.49,-1807.1 2152.27,-1805.42 2153.23,-1803.77 2154.38,-1802.18 2155.71,-1800.63 2157.21,-1799.13 2158.9,-1797.7 2160.76,-1796.33 2162.79,-1795.02 2164.99,-1793.79 2167.34,-1792.63 2169.85,-1791.54 2172.5,-1790.54 2175.28,-1789.62 2178.18,-1788.78 2181.19,-1788.03 2184.31,-1787.37 2187.51,-1786.8 2190.8,-1786.32 2194.14,-1785.93 2197.53,-1785.65 2200.96,-1785.45 2204.41,-1785.36 2207.87,-1785.36 2211.32,-1785.45"/>
<text text-anchor="start" x="2176.97" y="-1830.39" font-family="Times,serif" font-size="14.00">C0038446</text>
<text text-anchor="start" x="2197.58" y="-1816.39" font-family="Times,serif" font-size="14.00">V1</text>
<text text-anchor="start" x="2190.19" y="-1802.39" font-family="Times,serif" font-size="14.00">25:25</text>
</g>
<!-- id_28538990_DOT_26 -->
<g id="node26" class="node">
<title>id_28538990_DOT_26</title>
<polygon fill="darkseagreen" stroke="darkseagreen" points="2614.67,-1903.3 2618.1,-1903.5 2621.49,-1903.79 2624.83,-1904.17 2628.11,-1904.65 2631.32,-1905.22 2634.44,-1905.88 2637.45,-1906.63 2640.35,-1907.47 2643.13,-1908.39 2645.78,-1909.39 2648.28,-1910.48 2650.64,-1911.64 2652.84,-1912.88 2654.87,-1914.18 2656.73,-1915.55 2658.41,-1916.99 2659.92,-1918.48 2661.25,-1920.03 2662.39,-1921.62 2663.36,-1923.27 2664.13,-1924.95 2664.73,-1926.68 2665.15,-1928.43 2665.38,-1930.21 2665.45,-1932.02 2665.34,-1933.84 2665.07,-1935.68 2664.64,-1937.52 2664.06,-1939.37 2663.33,-1941.21 2662.45,-1943.04 2661.45,-1944.87 2660.32,-1946.67 2659.07,-1948.45 2657.71,-1950.21 2656.25,-1951.93 2654.69,-1953.62 2653.04,-1955.26 2651.31,-1956.86 2649.51,-1958.41 2647.64,-1959.9 2645.71,-1961.33 2643.73,-1962.71 2641.7,-1964.01 2639.62,-1965.25 2637.51,-1966.41 2635.37,-1967.49 2633.19,-1968.5 2631,-1969.42 2628.78,-1970.26 2626.55,-1971.01 2624.3,-1971.67 2622.04,-1972.24 2619.77,-1972.72 2617.49,-1973.1 2615.21,-1973.39 2612.92,-1973.58 2610.64,-1973.68 2608.35,-1973.68 2606.06,-1973.58 2603.77,-1973.39 2601.49,-1973.1 2599.21,-1972.72 2596.94,-1972.24 2594.68,-1971.67 2592.43,-1971.01 2590.2,-1970.26 2587.98,-1969.42 2585.79,-1968.5 2583.62,-1967.49 2581.47,-1966.41 2579.36,-1965.25 2577.29,-1964.01 2575.25,-1962.71 2573.27,-1961.33 2571.34,-1959.9 2569.47,-1958.41 2567.67,-1956.86 2565.94,-1955.26 2564.29,-1953.62 2562.74,-1951.93 2561.27,-1950.21 2559.91,-1948.45 2558.66,-1946.67 2557.53,-1944.87 2556.53,-1943.04 2555.66,-1941.21 2554.93,-1939.37 2554.34,-1937.52 2553.91,-1935.68 2553.64,-1933.84 2553.53,-1932.02 2553.6,-1930.21 2553.84,-1928.43 2554.25,-1926.68 2554.85,-1924.95 2555.63,-1923.27 2556.59,-1921.62 2557.73,-1920.03 2559.06,-1918.48 2560.57,-1916.99 2562.25,-1915.55 2564.12,-1914.18 2566.15,-1912.88 2568.34,-1911.64 2570.7,-1910.48 2573.2,-1909.39 2575.85,-1908.39 2578.63,-1907.47 2581.53,-1906.63 2584.55,-1905.88 2587.66,-1905.22 2590.87,-1904.65 2594.15,-1904.17 2597.49,-1903.79 2600.88,-1903.5 2604.31,-1903.3 2607.76,-1903.21 2611.22,-1903.21 2614.67,-1903.3"/>
<text text-anchor="start" x="2580.32" y="-1948.24" font-family="Times,serif" font-size="14.00">C0332149</text>
<text text-anchor="start" x="2586.55" y="-1934.24" font-family="Times,serif" font-size="14.00">possible</text>
<text text-anchor="start" x="2586.55" y="-1920.24" font-family="Times,serif" font-size="14.00">225:225</text>
</g>
<!-- id_28538990_DOT_3&#45;&#45;id_28538990_DOT_26 -->
<g id="edge13" class="edge">
<title>id_28538990_DOT_3&#45;&#45;id_28538990_DOT_26</title>
<path fill="none" stroke="black" stroke-dasharray="1,5" d="M2252.8,-1834.23C2328.18,-1856.25 2476.32,-1899.53 2555.9,-1922.79"/>
<text text-anchor="middle" x="2378.1" y="-1881.31" font-family="Times,serif" font-size="14.00">0.797590</text>
</g>
<!-- id_28538990_DOT_28 -->
<g id="node28" class="node">
<title>id_28538990_DOT_28</title>
<polygon fill="darkslateblue" stroke="darkslateblue" points="1856.68,-1578.19 1860.11,-1578.38 1863.51,-1578.67 1866.85,-1579.06 1870.13,-1579.53 1873.33,-1580.1 1876.45,-1580.77 1879.47,-1581.52 1882.37,-1582.35 1885.15,-1583.28 1887.8,-1584.28 1890.3,-1585.37 1892.65,-1586.53 1894.85,-1587.76 1896.88,-1589.07 1898.74,-1590.44 1900.43,-1591.87 1901.94,-1593.37 1903.27,-1594.91 1904.41,-1596.51 1905.37,-1598.16 1906.15,-1599.84 1906.75,-1601.56 1907.16,-1603.32 1907.4,-1605.1 1907.46,-1606.91 1907.36,-1608.73 1907.09,-1610.56 1906.66,-1612.41 1906.07,-1614.25 1905.34,-1616.1 1904.47,-1617.93 1903.47,-1619.75 1902.33,-1621.56 1901.09,-1623.34 1899.73,-1625.1 1898.26,-1626.82 1896.7,-1628.5 1895.06,-1630.15 1893.33,-1631.75 1891.52,-1633.29 1889.66,-1634.79 1887.73,-1636.22 1885.74,-1637.59 1883.71,-1638.9 1881.64,-1640.13 1879.53,-1641.29 1877.38,-1642.38 1875.21,-1643.38 1873.01,-1644.31 1870.8,-1645.14 1868.56,-1645.89 1866.31,-1646.56 1864.05,-1647.13 1861.79,-1647.6 1859.51,-1647.99 1857.23,-1648.28 1854.94,-1648.47 1852.65,-1648.57 1850.36,-1648.57 1848.07,-1648.47 1845.79,-1648.28 1843.5,-1647.99 1841.23,-1647.6 1838.96,-1647.13 1836.7,-1646.56 1834.45,-1645.89 1832.22,-1645.14 1830,-1644.31 1827.8,-1643.38 1825.63,-1642.38 1823.49,-1641.29 1821.37,-1640.13 1819.3,-1638.9 1817.27,-1637.59 1815.29,-1636.22 1813.36,-1634.79 1811.49,-1633.29 1809.69,-1631.75 1807.96,-1630.15 1806.31,-1628.5 1804.75,-1626.82 1803.29,-1625.1 1801.93,-1623.34 1800.68,-1621.56 1799.55,-1619.75 1798.54,-1617.93 1797.67,-1616.1 1796.94,-1614.25 1796.36,-1612.41 1795.93,-1610.56 1795.66,-1608.73 1795.55,-1606.91 1795.61,-1605.1 1795.85,-1603.32 1796.27,-1601.56 1796.86,-1599.84 1797.64,-1598.16 1798.6,-1596.51 1799.75,-1594.91 1801.07,-1593.37 1802.58,-1591.87 1804.27,-1590.44 1806.13,-1589.07 1808.16,-1587.76 1810.36,-1586.53 1812.71,-1585.37 1815.22,-1584.28 1817.86,-1583.28 1820.64,-1582.35 1823.55,-1581.52 1826.56,-1580.77 1829.68,-1580.1 1832.88,-1579.53 1836.16,-1579.06 1839.51,-1578.67 1842.9,-1578.38 1846.33,-1578.19 1849.78,-1578.09 1853.23,-1578.09 1856.68,-1578.19"/>
<text text-anchor="start" x="1822.34" y="-1623.13" font-family="Times,serif" font-size="14.00">C2603343</text>
<text text-anchor="start" x="1836.34" y="-1609.13" font-family="Times,serif" font-size="14.00">study</text>
<text text-anchor="start" x="1828.56" y="-1595.13" font-family="Times,serif" font-size="14.00">256:256</text>
</g>
<!-- id_28538990_DOT_3&#45;&#45;id_28538990_DOT_28 -->
<g id="edge14" class="edge">
<title>id_28538990_DOT_3&#45;&#45;id_28538990_DOT_28</title>
<path fill="none" stroke="black" stroke-dasharray="1,5" d="M2162.3,-1794.97C2091.97,-1753.87 1955.15,-1673.9 1889.05,-1635.27"/>
<text text-anchor="middle" x="1999.42" y="-1717.92" font-family="Times,serif" font-size="14.00">0.967204</text>
</g>
<!-- id_28538990_DOT_4 -->
<g id="node4" class="node">
<title>id_28538990_DOT_4</title>
<polygon fill="blueviolet" stroke="blueviolet" points="3325.04,-2839.19 3328.46,-2839.39 3331.86,-2839.68 3335.2,-2840.06 3338.48,-2840.54 3341.69,-2841.11 3344.8,-2841.77 3347.82,-2842.52 3350.72,-2843.36 3353.5,-2844.28 3356.15,-2845.28 3358.65,-2846.37 3361.01,-2847.53 3363.2,-2848.77 3365.23,-2850.07 3367.09,-2851.44 3368.78,-2852.88 3370.29,-2854.37 3371.62,-2855.92 3372.76,-2857.51 3373.72,-2859.16 3374.5,-2860.84 3375.1,-2862.57 3375.51,-2864.32 3375.75,-2866.1 3375.81,-2867.91 3375.71,-2869.73 3375.44,-2871.57 3375.01,-2873.41 3374.42,-2875.26 3373.69,-2877.1 3372.82,-2878.93 3371.82,-2880.76 3370.69,-2882.56 3369.44,-2884.34 3368.08,-2886.1 3366.61,-2887.82 3365.05,-2889.51 3363.41,-2891.15 3361.68,-2892.75 3359.88,-2894.3 3358.01,-2895.79 3356.08,-2897.22 3354.09,-2898.6 3352.06,-2899.9 3349.99,-2901.14 3347.88,-2902.3 3345.73,-2903.38 3343.56,-2904.39 3341.37,-2905.31 3339.15,-2906.15 3336.91,-2906.9 3334.67,-2907.56 3332.41,-2908.13 3330.14,-2908.61 3327.86,-2908.99 3325.58,-2909.28 3323.29,-2909.47 3321,-2909.57 3318.71,-2909.57 3316.42,-2909.47 3314.14,-2909.28 3311.86,-2908.99 3309.58,-2908.61 3307.31,-2908.13 3305.05,-2907.56 3302.8,-2906.9 3300.57,-2906.15 3298.35,-2905.31 3296.15,-2904.39 3293.98,-2903.38 3291.84,-2902.3 3289.73,-2901.14 3287.65,-2899.9 3285.62,-2898.6 3283.64,-2897.22 3281.71,-2895.79 3279.84,-2894.3 3278.04,-2892.75 3276.31,-2891.15 3274.66,-2889.51 3273.1,-2887.82 3271.64,-2886.1 3270.28,-2884.34 3269.03,-2882.56 3267.9,-2880.76 3266.89,-2878.93 3266.02,-2877.1 3265.29,-2875.26 3264.71,-2873.41 3264.28,-2871.57 3264.01,-2869.73 3263.9,-2867.91 3263.97,-2866.1 3264.2,-2864.32 3264.62,-2862.57 3265.21,-2860.84 3265.99,-2859.16 3266.95,-2857.51 3268.1,-2855.92 3269.43,-2854.37 3270.93,-2852.88 3272.62,-2851.44 3274.48,-2850.07 3276.51,-2848.77 3278.71,-2847.53 3281.06,-2846.37 3283.57,-2845.28 3286.22,-2844.28 3289,-2843.36 3291.9,-2842.52 3294.91,-2841.77 3298.03,-2841.11 3301.23,-2840.54 3304.52,-2840.06 3307.86,-2839.68 3311.25,-2839.39 3314.68,-2839.19 3318.13,-2839.1 3321.59,-2839.1 3325.04,-2839.19"/>
<text text-anchor="start" x="3290.69" y="-2884.13" font-family="Times,serif" font-size="14.00">C0243095</text>
<text text-anchor="start" x="3293.03" y="-2870.13" font-family="Times,serif" font-size="14.00">flickering</text>
<text text-anchor="start" x="3303.91" y="-2856.13" font-family="Times,serif" font-size="14.00">34:34</text>
</g>
<!-- id_28538990_DOT_10 -->
<g id="node10" class="node">
<title>id_28538990_DOT_10</title>
<polygon fill="cornflowerblue" stroke="cornflowerblue" points="3189.89,-2466.96 3197.5,-2467.16 3205.04,-2467.45 3212.47,-2467.83 3219.76,-2468.31 3226.88,-2468.88 3233.8,-2469.54 3240.5,-2470.29 3246.95,-2471.13 3253.12,-2472.05 3259.01,-2473.05 3264.57,-2474.14 3269.8,-2475.3 3274.68,-2476.54 3279.19,-2477.84 3283.33,-2479.21 3287.08,-2480.65 3290.43,-2482.14 3293.37,-2483.69 3295.92,-2485.28 3298.05,-2486.93 3299.78,-2488.61 3301.11,-2490.34 3302.03,-2492.09 3302.56,-2493.87 3302.7,-2495.68 3302.46,-2497.5 3301.86,-2499.34 3300.91,-2501.18 3299.61,-2503.03 3297.99,-2504.87 3296.05,-2506.7 3293.82,-2508.53 3291.31,-2510.33 3288.53,-2512.11 3285.51,-2513.87 3282.26,-2515.59 3278.8,-2517.28 3275.14,-2518.92 3271.3,-2520.52 3267.29,-2522.07 3263.14,-2523.56 3258.85,-2524.99 3254.45,-2526.37 3249.93,-2527.67 3245.32,-2528.91 3240.63,-2530.07 3235.87,-2531.15 3231.04,-2532.16 3226.17,-2533.08 3221.24,-2533.92 3216.28,-2534.67 3211.28,-2535.33 3206.26,-2535.9 3201.22,-2536.38 3196.16,-2536.76 3191.09,-2537.05 3186.01,-2537.24 3180.93,-2537.34 3175.84,-2537.34 3170.76,-2537.24 3165.68,-2537.05 3160.6,-2536.76 3155.55,-2536.38 3150.5,-2535.9 3145.48,-2535.33 3140.49,-2534.67 3135.52,-2533.92 3130.6,-2533.08 3125.72,-2532.16 3120.89,-2531.15 3116.13,-2530.07 3111.44,-2528.91 3106.83,-2527.67 3102.32,-2526.37 3097.91,-2524.99 3093.63,-2523.56 3089.47,-2522.07 3085.47,-2520.52 3081.63,-2518.92 3077.97,-2517.28 3074.51,-2515.59 3071.25,-2513.87 3068.23,-2512.11 3065.46,-2510.33 3062.95,-2508.53 3060.71,-2506.7 3058.78,-2504.87 3057.15,-2503.03 3055.86,-2501.18 3054.9,-2499.34 3054.3,-2497.5 3054.07,-2495.68 3054.21,-2493.87 3054.74,-2492.09 3055.66,-2490.34 3056.98,-2488.61 3058.71,-2486.93 3060.85,-2485.28 3063.39,-2483.69 3066.34,-2482.14 3069.69,-2480.65 3073.44,-2479.21 3077.57,-2477.84 3082.09,-2476.54 3086.96,-2475.3 3092.2,-2474.14 3097.76,-2473.05 3103.64,-2472.05 3109.82,-2471.13 3116.27,-2470.29 3122.96,-2469.54 3129.89,-2468.88 3137.01,-2468.31 3144.3,-2467.83 3151.72,-2467.45 3159.26,-2467.16 3166.88,-2466.96 3174.54,-2466.87 3182.22,-2466.87 3189.89,-2466.96"/>
<text text-anchor="start" x="3149.21" y="-2511.9" font-family="Times,serif" font-size="14.00">C0456340</text>
<text text-anchor="start" x="3103.94" y="-2497.9" font-family="Times,serif" font-size="14.00">looking like a checkerboar</text>
<text text-anchor="start" x="3155.69" y="-2483.9" font-family="Times,serif" font-size="14.00">118:121</text>
</g>
<!-- id_28538990_DOT_4&#45;&#45;id_28538990_DOT_10 -->
<g id="edge15" class="edge">
<title>id_28538990_DOT_4&#45;&#45;id_28538990_DOT_10</title>
<path fill="none" stroke="black" stroke-dasharray="1,5" d="M3306.68,-2839.65C3279.75,-2768.81 3218.71,-2608.21 3191.69,-2537.11"/>
<text text-anchor="middle" x="3222.93" y="-2691.18" font-family="Times,serif" font-size="14.00">0.815002</text>
</g>
<!-- id_28538990_DOT_5 -->
<g id="node5" class="node">
<title>id_28538990_DOT_5</title>
<polygon fill="brown" stroke="brown" points="2871.4,-1090.46 2878.38,-1090.65 2885.29,-1090.94 2892.09,-1091.33 2898.77,-1091.8 2905.29,-1092.37 2911.63,-1093.03 2917.76,-1093.79 2923.67,-1094.62 2929.33,-1095.55 2934.71,-1096.55 2939.81,-1097.64 2944.6,-1098.8 2949.07,-1100.03 2953.21,-1101.34 2956.99,-1102.71 2960.43,-1104.14 2963.5,-1105.63 2966.2,-1107.18 2968.53,-1108.78 2970.48,-1110.42 2972.06,-1112.11 2973.28,-1113.83 2974.12,-1115.59 2974.61,-1117.37 2974.74,-1119.18 2974.52,-1121 2973.97,-1122.83 2973.1,-1124.68 2971.91,-1126.52 2970.42,-1128.36 2968.65,-1130.2 2966.6,-1132.02 2964.3,-1133.83 2961.76,-1135.61 2958.99,-1137.37 2956.01,-1139.09 2952.84,-1140.77 2949.49,-1142.42 2945.97,-1144.02 2942.3,-1145.56 2938.5,-1147.06 2934.57,-1148.49 2930.54,-1149.86 2926.4,-1151.17 2922.18,-1152.4 2917.89,-1153.56 2913.52,-1154.65 2909.1,-1155.65 2904.63,-1156.58 2900.12,-1157.41 2895.58,-1158.16 2891,-1158.82 2886.4,-1159.4 2881.78,-1159.87 2877.15,-1160.26 2872.51,-1160.55 2867.85,-1160.74 2863.2,-1160.83 2858.54,-1160.83 2853.88,-1160.74 2849.23,-1160.55 2844.58,-1160.26 2839.95,-1159.87 2835.33,-1159.4 2830.73,-1158.82 2826.16,-1158.16 2821.61,-1157.41 2817.1,-1156.58 2812.63,-1155.65 2808.21,-1154.65 2803.85,-1153.56 2799.55,-1152.4 2795.33,-1151.17 2791.2,-1149.86 2787.16,-1148.49 2783.23,-1147.06 2779.43,-1145.56 2775.76,-1144.02 2772.24,-1142.42 2768.89,-1140.77 2765.72,-1139.09 2762.74,-1137.37 2759.97,-1135.61 2757.43,-1133.83 2755.13,-1132.02 2753.09,-1130.2 2751.31,-1128.36 2749.83,-1126.52 2748.64,-1124.68 2747.76,-1122.83 2747.21,-1121 2747,-1119.18 2747.13,-1117.37 2747.61,-1115.59 2748.46,-1113.83 2749.67,-1112.11 2751.25,-1110.42 2753.21,-1108.78 2755.54,-1107.18 2758.24,-1105.63 2761.31,-1104.14 2764.74,-1102.71 2768.53,-1101.34 2772.66,-1100.03 2777.13,-1098.8 2781.92,-1097.64 2787.02,-1096.55 2792.41,-1095.55 2798.06,-1094.62 2803.97,-1093.79 2810.11,-1093.03 2816.45,-1092.37 2822.97,-1091.8 2829.64,-1091.33 2836.45,-1090.94 2843.35,-1090.65 2850.33,-1090.46 2857.35,-1090.36 2864.38,-1090.36 2871.4,-1090.46"/>
<text text-anchor="start" x="2831.7" y="-1135.4" font-family="Times,serif" font-size="14.00">C0015217</text>
<text text-anchor="start" x="2793.22" y="-1121.4" font-family="Times,serif" font-size="14.00">visual evoked potentials</text>
<text text-anchor="start" x="2844.92" y="-1107.4" font-family="Times,serif" font-size="14.00">48:50</text>
</g>
<!-- id_28538990_DOT_5&#45;&#45;id_28538990_DOT_27 -->
<g id="edge16" class="edge">
<title>id_28538990_DOT_5&#45;&#45;id_28538990_DOT_27</title>
<path fill="none" stroke="black" stroke-dasharray="1,5" d="M2867.87,-1090.23C2882.24,-1017.72 2914.88,-852.99 2929.17,-780.91"/>
<text text-anchor="middle" x="2872.27" y="-938.37" font-family="Times,serif" font-size="14.00">0.670391</text>
</g>
<!-- id_28538990_DOT_29 -->
<g id="node29" class="node">
<title>id_28538990_DOT_29</title>
<polygon fill="chartreuse" stroke="chartreuse" points="2762.33,-1493.89 2765.76,-1494.09 2769.15,-1494.37 2772.49,-1494.76 2775.77,-1495.24 2778.98,-1495.81 2782.09,-1496.47 2785.11,-1497.22 2788.01,-1498.06 2790.79,-1498.98 2793.44,-1499.98 2795.94,-1501.07 2798.3,-1502.23 2800.49,-1503.46 2802.52,-1504.77 2804.39,-1506.14 2806.07,-1507.57 2807.58,-1509.07 2808.91,-1510.62 2810.05,-1512.21 2811.01,-1513.86 2811.79,-1515.54 2812.39,-1517.27 2812.8,-1519.02 2813.04,-1520.8 2813.11,-1522.61 2813,-1524.43 2812.73,-1526.27 2812.3,-1528.11 2811.72,-1529.95 2810.98,-1531.8 2810.11,-1533.63 2809.11,-1535.46 2807.98,-1537.26 2806.73,-1539.04 2805.37,-1540.8 2803.91,-1542.52 2802.35,-1544.21 2800.7,-1545.85 2798.97,-1547.45 2797.17,-1549 2795.3,-1550.49 2793.37,-1551.92 2791.39,-1553.29 2789.35,-1554.6 2787.28,-1555.83 2785.17,-1557 2783.03,-1558.08 2780.85,-1559.09 2778.66,-1560.01 2776.44,-1560.85 2774.21,-1561.6 2771.96,-1562.26 2769.7,-1562.83 2767.43,-1563.31 2765.15,-1563.69 2762.87,-1563.98 2760.58,-1564.17 2758.29,-1564.27 2756,-1564.27 2753.72,-1564.17 2751.43,-1563.98 2749.15,-1563.69 2746.87,-1563.31 2744.6,-1562.83 2742.34,-1562.26 2740.09,-1561.6 2737.86,-1560.85 2735.64,-1560.01 2733.45,-1559.09 2731.27,-1558.08 2729.13,-1557 2727.02,-1555.83 2724.94,-1554.6 2722.91,-1553.29 2720.93,-1551.92 2719,-1550.49 2717.13,-1549 2715.33,-1547.45 2713.6,-1545.85 2711.95,-1544.21 2710.39,-1542.52 2708.93,-1540.8 2707.57,-1539.04 2706.32,-1537.26 2705.19,-1535.46 2704.19,-1533.63 2703.31,-1531.8 2702.58,-1529.95 2702,-1528.11 2701.57,-1526.27 2701.3,-1524.43 2701.19,-1522.61 2701.26,-1520.8 2701.49,-1519.02 2701.91,-1517.27 2702.51,-1515.54 2703.28,-1513.86 2704.25,-1512.21 2705.39,-1510.62 2706.72,-1509.07 2708.23,-1507.57 2709.91,-1506.14 2711.77,-1504.77 2713.81,-1503.46 2716,-1502.23 2718.36,-1501.07 2720.86,-1499.98 2723.51,-1498.98 2726.29,-1498.06 2729.19,-1497.22 2732.21,-1496.47 2735.32,-1495.81 2738.53,-1495.24 2741.81,-1494.76 2745.15,-1494.37 2748.54,-1494.09 2751.97,-1493.89 2755.42,-1493.8 2758.88,-1493.8 2762.33,-1493.89"/>
<text text-anchor="start" x="2727.98" y="-1538.83" font-family="Times,serif" font-size="14.00">C0456984</text>
<text text-anchor="start" x="2738.87" y="-1524.83" font-family="Times,serif" font-size="14.00">results</text>
<text text-anchor="start" x="2734.2" y="-1510.83" font-family="Times,serif" font-size="14.00">258:258</text>
</g>
<!-- id_28538990_DOT_5&#45;&#45;id_28538990_DOT_29 -->
<g id="edge17" class="edge">
<title>id_28538990_DOT_5&#45;&#45;id_28538990_DOT_29</title>
<path fill="none" stroke="black" stroke-dasharray="1,5" d="M2851.84,-1160.7C2832.2,-1237.09 2785.77,-1417.7 2766.15,-1494.02"/>
<text text-anchor="middle" x="2782.75" y="-1330.16" font-family="Times,serif" font-size="14.00">0.798185</text>
</g>
<!-- id_28538990_DOT_6 -->
<g id="node6" class="node">
<title>id_28538990_DOT_6</title>
<polygon fill="cadetblue" stroke="cadetblue" points="448.25,-3567.8 452.03,-3568 455.77,-3568.28 459.45,-3568.67 463.07,-3569.15 466.6,-3569.72 470.03,-3570.38 473.35,-3571.13 476.55,-3571.97 479.62,-3572.89 482.53,-3573.89 485.29,-3574.98 487.89,-3576.14 490.31,-3577.37 492.55,-3578.68 494.6,-3580.05 496.46,-3581.48 498.12,-3582.98 499.58,-3584.53 500.84,-3586.12 501.9,-3587.77 502.76,-3589.45 503.42,-3591.18 503.87,-3592.93 504.14,-3594.71 504.21,-3596.52 504.09,-3598.34 503.79,-3600.18 503.32,-3602.02 502.67,-3603.86 501.87,-3605.71 500.91,-3607.54 499.8,-3609.37 498.56,-3611.17 497.18,-3612.95 495.68,-3614.71 494.07,-3616.43 492.35,-3618.12 490.53,-3619.76 488.63,-3621.36 486.64,-3622.91 484.58,-3624.4 482.46,-3625.83 480.27,-3627.2 478.03,-3628.51 475.75,-3629.74 473.42,-3630.91 471.06,-3631.99 468.67,-3633 466.25,-3633.92 463.8,-3634.76 461.34,-3635.51 458.86,-3636.17 456.37,-3636.74 453.87,-3637.22 451.36,-3637.6 448.85,-3637.89 446.33,-3638.08 443.81,-3638.18 441.28,-3638.18 438.76,-3638.08 436.24,-3637.89 433.73,-3637.6 431.22,-3637.22 428.72,-3636.74 426.23,-3636.17 423.75,-3635.51 421.29,-3634.76 418.84,-3633.92 416.42,-3633 414.03,-3631.99 411.67,-3630.91 409.34,-3629.74 407.06,-3628.51 404.82,-3627.2 402.63,-3625.83 400.5,-3624.4 398.44,-3622.91 396.46,-3621.36 394.55,-3619.76 392.74,-3618.12 391.02,-3616.43 389.41,-3614.71 387.91,-3612.95 386.53,-3611.17 385.29,-3609.37 384.18,-3607.54 383.22,-3605.71 382.41,-3603.86 381.77,-3602.02 381.3,-3600.18 381,-3598.34 380.88,-3596.52 380.95,-3594.71 381.21,-3592.93 381.67,-3591.18 382.33,-3589.45 383.19,-3587.77 384.25,-3586.12 385.51,-3584.53 386.97,-3582.98 388.63,-3581.48 390.49,-3580.05 392.54,-3578.68 394.78,-3577.37 397.2,-3576.14 399.79,-3574.98 402.55,-3573.89 405.47,-3572.89 408.54,-3571.97 411.73,-3571.13 415.06,-3570.38 418.49,-3569.72 422.02,-3569.15 425.64,-3568.67 429.32,-3568.28 433.06,-3568 436.84,-3567.8 440.64,-3567.71 444.45,-3567.71 448.25,-3567.8"/>
<text text-anchor="start" x="413.63" y="-3612.74" font-family="Times,serif" font-size="14.00">C0221103</text>
<text text-anchor="start" x="409.49" y="-3598.74" font-family="Times,serif" font-size="14.00">suppression</text>
<text text-anchor="start" x="426.6" y="-3584.74" font-family="Times,serif" font-size="14.00">65:65</text>
</g>
<!-- id_28538990_DOT_19 -->
<g id="node19" class="node">
<title>id_28538990_DOT_19</title>
<polygon fill="cadetblue" stroke="cadetblue" points="818.06,-3723.89 821.84,-3724.08 825.58,-3724.37 829.26,-3724.75 832.87,-3725.23 836.41,-3725.8 839.84,-3726.46 843.16,-3727.21 846.36,-3728.05 849.43,-3728.97 852.34,-3729.98 855.1,-3731.06 857.7,-3732.22 860.12,-3733.46 862.36,-3734.76 864.41,-3736.13 866.27,-3737.57 867.93,-3739.06 869.39,-3740.61 870.65,-3742.21 871.71,-3743.85 872.57,-3745.54 873.22,-3747.26 873.68,-3749.02 873.94,-3750.8 874.02,-3752.6 873.9,-3754.43 873.6,-3756.26 873.13,-3758.1 872.48,-3759.95 871.68,-3761.79 870.72,-3763.63 869.61,-3765.45 868.36,-3767.25 866.99,-3769.04 865.49,-3770.79 863.88,-3772.51 862.16,-3774.2 860.34,-3775.84 858.44,-3777.44 856.45,-3778.99 854.39,-3780.48 852.27,-3781.92 850.08,-3783.29 847.84,-3784.59 845.56,-3785.83 843.23,-3786.99 840.87,-3788.07 838.47,-3789.08 836.05,-3790 833.61,-3790.84 831.15,-3791.59 828.67,-3792.25 826.18,-3792.82 823.68,-3793.3 821.17,-3793.68 818.66,-3793.97 816.14,-3794.16 813.61,-3794.26 811.09,-3794.26 808.57,-3794.16 806.05,-3793.97 803.53,-3793.68 801.03,-3793.3 798.52,-3792.82 796.03,-3792.25 793.56,-3791.59 791.09,-3790.84 788.65,-3790 786.23,-3789.08 783.84,-3788.07 781.48,-3786.99 779.15,-3785.83 776.86,-3784.59 774.62,-3783.29 772.44,-3781.92 770.31,-3780.48 768.25,-3778.99 766.27,-3777.44 764.36,-3775.84 762.55,-3774.2 760.83,-3772.51 759.22,-3770.79 757.72,-3769.04 756.34,-3767.25 755.09,-3765.45 753.99,-3763.63 753.03,-3761.79 752.22,-3759.95 751.58,-3758.1 751.1,-3756.26 750.81,-3754.43 750.69,-3752.6 750.76,-3750.8 751.02,-3749.02 751.48,-3747.26 752.14,-3745.54 752.99,-3743.85 754.05,-3742.21 755.31,-3740.61 756.78,-3739.06 758.44,-3737.57 760.3,-3736.13 762.35,-3734.76 764.59,-3733.46 767.01,-3732.22 769.6,-3731.06 772.36,-3729.98 775.28,-3728.97 778.34,-3728.05 781.54,-3727.21 784.86,-3726.46 788.3,-3725.8 791.83,-3725.23 795.45,-3724.75 799.13,-3724.37 802.87,-3724.08 806.65,-3723.89 810.45,-3723.79 814.26,-3723.79 818.06,-3723.89"/>
<text text-anchor="start" x="783.44" y="-3768.83" font-family="Times,serif" font-size="14.00">C0221103</text>
<text text-anchor="start" x="779.3" y="-3754.83" font-family="Times,serif" font-size="14.00">suppression</text>
<text text-anchor="start" x="789.41" y="-3740.83" font-family="Times,serif" font-size="14.00">180:180</text>
</g>
<!-- id_28538990_DOT_6&#45;&#45;id_28538990_DOT_19 -->
<g id="edge2" class="edge">
<title>id_28538990_DOT_6&#45;&#45;id_28538990_DOT_19</title>
<path fill="none" stroke="black" d="M487.89,-3622.08C556.55,-3651.06 686.6,-3705.95 759.47,-3736.7"/>
<text text-anchor="middle" x="597.43" y="-3682.19" font-family="Times,serif" font-size="14.00">0.029857</text>
</g>
<!-- id_28538990_DOT_22 -->
<g id="node22" class="node">
<title>id_28538990_DOT_22</title>
<polygon fill="darkorange" stroke="darkorange" points="60.74,-3578.79 64.16,-3578.98 67.53,-3579.27 70.86,-3579.66 74.12,-3580.13 77.31,-3580.7 80.41,-3581.37 83.42,-3582.12 86.3,-3582.95 89.07,-3583.88 91.7,-3584.88 94.2,-3585.97 96.54,-3587.13 98.73,-3588.36 100.75,-3589.67 102.6,-3591.04 104.28,-3592.47 105.78,-3593.97 107.1,-3595.51 108.24,-3597.11 109.2,-3598.76 109.97,-3600.44 110.56,-3602.16 110.98,-3603.92 111.21,-3605.7 111.28,-3607.51 111.17,-3609.33 110.9,-3611.16 110.47,-3613.01 109.89,-3614.85 109.17,-3616.7 108.3,-3618.53 107.3,-3620.35 106.17,-3622.16 104.93,-3623.94 103.58,-3625.7 102.12,-3627.42 100.57,-3629.1 98.93,-3630.75 97.21,-3632.35 95.42,-3633.89 93.56,-3635.39 91.64,-3636.82 89.66,-3638.19 87.64,-3639.5 85.58,-3640.73 83.48,-3641.89 81.34,-3642.98 79.18,-3643.98 77,-3644.91 74.79,-3645.74 72.57,-3646.49 70.33,-3647.16 68.08,-3647.73 65.82,-3648.2 63.56,-3648.59 61.28,-3648.88 59.01,-3649.07 56.73,-3649.17 54.45,-3649.17 52.18,-3649.07 49.9,-3648.88 47.63,-3648.59 45.36,-3648.2 43.1,-3647.73 40.86,-3647.16 38.62,-3646.49 36.4,-3645.74 34.19,-3644.91 32,-3643.98 29.84,-3642.98 27.71,-3641.89 25.61,-3640.73 23.54,-3639.5 21.52,-3638.19 19.55,-3636.82 17.63,-3635.39 15.77,-3633.89 13.97,-3632.35 12.25,-3630.75 10.62,-3629.1 9.06,-3627.42 7.61,-3625.7 6.25,-3623.94 5.01,-3622.16 3.89,-3620.35 2.89,-3618.53 2.02,-3616.7 1.29,-3614.85 0.71,-3613.01 0.28,-3611.16 0.01,-3609.33 -0.09,-3607.51 -0.03,-3605.7 0.21,-3603.92 0.62,-3602.16 1.21,-3600.44 1.99,-3598.76 2.95,-3597.11 4.08,-3595.51 5.41,-3593.97 6.91,-3592.47 8.58,-3591.04 10.44,-3589.67 12.46,-3588.36 14.64,-3587.13 16.99,-3585.97 19.48,-3584.88 22.11,-3583.88 24.88,-3582.95 27.77,-3582.12 30.77,-3581.37 33.87,-3580.7 37.06,-3580.13 40.32,-3579.66 43.65,-3579.27 47.03,-3578.98 50.44,-3578.79 53.87,-3578.69 57.31,-3578.69 60.74,-3578.79"/>
<text text-anchor="start" x="26.68" y="-3623.73" font-family="Times,serif" font-size="14.00">C1511790</text>
<text text-anchor="start" x="29.94" y="-3609.73" font-family="Times,serif" font-size="14.00">detection</text>
<text text-anchor="start" x="32.65" y="-3595.73" font-family="Times,serif" font-size="14.00">201:201</text>
</g>
<!-- id_28538990_DOT_6&#45;&#45;id_28538990_DOT_22 -->
<g id="edge18" class="edge">
<title>id_28538990_DOT_6&#45;&#45;id_28538990_DOT_22</title>
<path fill="none" stroke="black" stroke-dasharray="1,5" d="M382.51,-3604.65C308.21,-3606.76 182.72,-3610.32 110.75,-3612.36"/>
<text text-anchor="middle" x="220.38" y="-3611.31" font-family="Times,serif" font-size="14.00">0.773648</text>
</g>
<!-- id_28538990_DOT_7 -->
<g id="node7" class="node">
<title>id_28538990_DOT_7</title>
<polygon fill="chartreuse" stroke="chartreuse" points="2439.96,-1248.06 2443.39,-1248.25 2446.78,-1248.54 2450.13,-1248.92 2453.41,-1249.4 2456.61,-1249.97 2459.73,-1250.63 2462.74,-1251.38 2465.65,-1252.22 2468.43,-1253.14 2471.07,-1254.15 2473.58,-1255.23 2475.93,-1256.39 2478.13,-1257.63 2480.16,-1258.93 2482.02,-1260.3 2483.71,-1261.74 2485.22,-1263.23 2486.54,-1264.78 2487.69,-1266.38 2488.65,-1268.02 2489.43,-1269.71 2490.02,-1271.43 2490.44,-1273.18 2490.68,-1274.97 2490.74,-1276.77 2490.63,-1278.59 2490.36,-1280.43 2489.93,-1282.27 2489.35,-1284.12 2488.62,-1285.96 2487.75,-1287.79 2486.74,-1289.62 2485.61,-1291.42 2484.36,-1293.2 2483,-1294.96 2481.54,-1296.68 2479.98,-1298.37 2478.33,-1300.01 2476.6,-1301.61 2474.8,-1303.16 2472.93,-1304.65 2471,-1306.09 2469.02,-1307.46 2466.99,-1308.76 2464.91,-1310 2462.8,-1311.16 2460.66,-1312.24 2458.49,-1313.25 2456.29,-1314.17 2454.07,-1315.01 2451.84,-1315.76 2449.59,-1316.42 2447.33,-1316.99 2445.06,-1317.47 2442.79,-1317.85 2440.5,-1318.14 2438.22,-1318.33 2435.93,-1318.43 2433.64,-1318.43 2431.35,-1318.33 2429.06,-1318.14 2426.78,-1317.85 2424.5,-1317.47 2422.24,-1316.99 2419.97,-1316.42 2417.73,-1315.76 2415.49,-1315.01 2413.28,-1314.17 2411.08,-1313.25 2408.91,-1312.24 2406.76,-1311.16 2404.65,-1310 2402.58,-1308.76 2400.55,-1307.46 2398.56,-1306.09 2396.63,-1304.65 2394.76,-1303.16 2392.96,-1301.61 2391.23,-1300.01 2389.59,-1298.37 2388.03,-1296.68 2386.56,-1294.96 2385.2,-1293.2 2383.95,-1291.42 2382.82,-1289.62 2381.82,-1287.79 2380.95,-1285.96 2380.22,-1284.12 2379.63,-1282.27 2379.2,-1280.43 2378.93,-1278.59 2378.83,-1276.77 2378.89,-1274.97 2379.13,-1273.18 2379.54,-1271.43 2380.14,-1269.71 2380.92,-1268.02 2381.88,-1266.38 2383.02,-1264.78 2384.35,-1263.23 2385.86,-1261.74 2387.55,-1260.3 2389.41,-1258.93 2391.44,-1257.63 2393.64,-1256.39 2395.99,-1255.23 2398.49,-1254.15 2401.14,-1253.14 2403.92,-1252.22 2406.82,-1251.38 2409.84,-1250.63 2412.96,-1249.97 2416.16,-1249.4 2419.44,-1248.92 2422.78,-1248.54 2426.18,-1248.25 2429.61,-1248.06 2433.06,-1247.96 2436.51,-1247.96 2439.96,-1248.06"/>
<text text-anchor="start" x="2405.61" y="-1292.99" font-family="Times,serif" font-size="14.00">C0456984</text>
<text text-anchor="start" x="2419.23" y="-1278.99" font-family="Times,serif" font-size="14.00">result</text>
<text text-anchor="start" x="2418.84" y="-1264.99" font-family="Times,serif" font-size="14.00">83:83</text>
</g>
<!-- id_28538990_DOT_7&#45;&#45;id_28538990_DOT_29 -->
<g id="edge3" class="edge">
<title>id_28538990_DOT_7&#45;&#45;id_28538990_DOT_29</title>
<path fill="none" stroke="black" d="M2467.77,-1308.35C2528.1,-1354.36 2655.89,-1451.81 2719.51,-1500.33"/>
<text text-anchor="middle" x="2567.39" y="-1407.14" font-family="Times,serif" font-size="14.00">0.053980</text>
</g>
<!-- id_28538990_DOT_9 -->
<g id="node9" class="node">
<title>id_28538990_DOT_9</title>
<polygon fill="blueviolet" stroke="blueviolet" points="1892.11,-3303.22 1896.36,-3303.41 1900.56,-3303.7 1904.7,-3304.08 1908.76,-3304.56 1912.73,-3305.13 1916.58,-3305.79 1920.32,-3306.54 1923.91,-3307.38 1927.35,-3308.3 1930.63,-3309.31 1933.73,-3310.39 1936.64,-3311.56 1939.36,-3312.79 1941.88,-3314.1 1944.18,-3315.47 1946.27,-3316.9 1948.14,-3318.39 1949.78,-3319.94 1951.2,-3321.54 1952.39,-3323.18 1953.35,-3324.87 1954.09,-3326.59 1954.6,-3328.35 1954.9,-3330.13 1954.97,-3331.94 1954.84,-3333.76 1954.51,-3335.59 1953.98,-3337.44 1953.25,-3339.28 1952.35,-3341.12 1951.27,-3342.96 1950.03,-3344.78 1948.63,-3346.59 1947.08,-3348.37 1945.4,-3350.12 1943.58,-3351.85 1941.65,-3353.53 1939.62,-3355.18 1937.48,-3356.78 1935.24,-3358.32 1932.93,-3359.82 1930.54,-3361.25 1928.09,-3362.62 1925.57,-3363.93 1923,-3365.16 1920.39,-3366.32 1917.74,-3367.41 1915.05,-3368.41 1912.33,-3369.33 1909.58,-3370.17 1906.82,-3370.92 1904.04,-3371.58 1901.24,-3372.15 1898.43,-3372.63 1895.61,-3373.02 1892.78,-3373.3 1889.95,-3373.5 1887.12,-3373.59 1884.29,-3373.59 1881.45,-3373.5 1878.62,-3373.3 1875.8,-3373.02 1872.98,-3372.63 1870.17,-3372.15 1867.37,-3371.58 1864.59,-3370.92 1861.82,-3370.17 1859.08,-3369.33 1856.36,-3368.41 1853.67,-3367.41 1851.02,-3366.32 1848.4,-3365.16 1845.83,-3363.93 1843.32,-3362.62 1840.86,-3361.25 1838.48,-3359.82 1836.16,-3358.32 1833.93,-3356.78 1831.79,-3355.18 1829.75,-3353.53 1827.82,-3351.85 1826.01,-3350.12 1824.33,-3348.37 1822.78,-3346.59 1821.38,-3344.78 1820.14,-3342.96 1819.06,-3341.12 1818.15,-3339.28 1817.43,-3337.44 1816.9,-3335.59 1816.56,-3333.76 1816.43,-3331.94 1816.51,-3330.13 1816.81,-3328.35 1817.32,-3326.59 1818.06,-3324.87 1819.02,-3323.18 1820.21,-3321.54 1821.63,-3319.94 1823.27,-3318.39 1825.14,-3316.9 1827.23,-3315.47 1829.53,-3314.1 1832.05,-3312.79 1834.76,-3311.56 1837.68,-3310.39 1840.78,-3309.31 1844.06,-3308.3 1847.5,-3307.38 1851.09,-3306.54 1854.82,-3305.79 1858.68,-3305.13 1862.65,-3304.56 1866.71,-3304.08 1870.85,-3303.7 1875.05,-3303.41 1879.29,-3303.22 1883.56,-3303.12 1887.84,-3303.12 1892.11,-3303.22"/>
<text text-anchor="start" x="1856.53" y="-3348.16" font-family="Times,serif" font-size="14.00">C0243095</text>
<text text-anchor="start" x="1847.8" y="-3334.16" font-family="Times,serif" font-size="14.00">plaid patterns</text>
<text text-anchor="start" x="1863.53" y="-3320.16" font-family="Times,serif" font-size="14.00">110:111</text>
</g>
<!-- id_28538990_DOT_16 -->
<g id="node16" class="node">
<title>id_28538990_DOT_16</title>
<polygon fill="darkkhaki" stroke="darkkhaki" points="2128.6,-2972.4 2132.03,-2972.59 2135.43,-2972.88 2138.77,-2973.27 2142.05,-2973.74 2145.25,-2974.31 2148.37,-2974.97 2151.39,-2975.73 2154.29,-2976.56 2157.07,-2977.49 2159.72,-2978.49 2162.22,-2979.58 2164.57,-2980.74 2166.77,-2981.97 2168.8,-2983.28 2170.66,-2984.65 2172.35,-2986.08 2173.86,-2987.57 2175.19,-2989.12 2176.33,-2990.72 2177.29,-2992.36 2178.07,-2994.05 2178.67,-2995.77 2179.08,-2997.53 2179.32,-2999.31 2179.38,-3001.12 2179.28,-3002.94 2179.01,-3004.77 2178.58,-3006.62 2177.99,-3008.46 2177.26,-3010.3 2176.39,-3012.14 2175.39,-3013.96 2174.25,-3015.77 2173.01,-3017.55 2171.65,-3019.3 2170.18,-3021.03 2168.62,-3022.71 2166.98,-3024.36 2165.25,-3025.96 2163.45,-3027.5 2161.58,-3029 2159.65,-3030.43 2157.66,-3031.8 2155.63,-3033.11 2153.56,-3034.34 2151.45,-3035.5 2149.3,-3036.59 2147.13,-3037.59 2144.93,-3038.52 2142.72,-3039.35 2140.48,-3040.1 2138.23,-3040.76 2135.97,-3041.34 2133.71,-3041.81 2131.43,-3042.2 2129.15,-3042.49 2126.86,-3042.68 2124.57,-3042.77 2122.28,-3042.77 2119.99,-3042.68 2117.71,-3042.49 2115.42,-3042.2 2113.15,-3041.81 2110.88,-3041.34 2108.62,-3040.76 2106.37,-3040.1 2104.14,-3039.35 2101.92,-3038.52 2099.72,-3037.59 2097.55,-3036.59 2095.41,-3035.5 2093.29,-3034.34 2091.22,-3033.11 2089.19,-3031.8 2087.21,-3030.43 2085.28,-3029 2083.41,-3027.5 2081.61,-3025.96 2079.88,-3024.36 2078.23,-3022.71 2076.67,-3021.03 2075.21,-3019.3 2073.85,-3017.55 2072.6,-3015.77 2071.47,-3013.96 2070.46,-3012.14 2069.59,-3010.3 2068.86,-3008.46 2068.28,-3006.62 2067.85,-3004.77 2067.58,-3002.94 2067.47,-3001.12 2067.53,-2999.31 2067.77,-2997.53 2068.19,-2995.77 2068.78,-2994.05 2069.56,-2992.36 2070.52,-2990.72 2071.67,-2989.12 2072.99,-2987.57 2074.5,-2986.08 2076.19,-2984.65 2078.05,-2983.28 2080.08,-2981.97 2082.28,-2980.74 2084.63,-2979.58 2087.14,-2978.49 2089.78,-2977.49 2092.56,-2976.56 2095.47,-2975.73 2098.48,-2974.97 2101.6,-2974.31 2104.8,-2973.74 2108.08,-2973.27 2111.43,-2972.88 2114.82,-2972.59 2118.25,-2972.4 2121.7,-2972.3 2125.15,-2972.3 2128.6,-2972.4"/>
<text text-anchor="start" x="2094.26" y="-3017.34" font-family="Times,serif" font-size="14.00">C0449774</text>
<text text-anchor="start" x="2103.99" y="-3003.34" font-family="Times,serif" font-size="14.00">pattern</text>
<text text-anchor="start" x="2100.48" y="-2989.34" font-family="Times,serif" font-size="14.00">165:165</text>
</g>
<!-- id_28538990_DOT_9&#45;&#45;id_28538990_DOT_16 -->
<g id="edge4" class="edge">
<title>id_28538990_DOT_9&#45;&#45;id_28538990_DOT_16</title>
<path fill="none" stroke="black" d="M1910.03,-3304.51C1956.3,-3240.12 2056.35,-3100.88 2101.06,-3038.67"/>
<text text-anchor="middle" x="1979.29" y="-3174.39" font-family="Times,serif" font-size="14.00">0.210785</text>
</g>
<!-- id_28538990_DOT_30 -->
<g id="node30" class="node">
<title>id_28538990_DOT_30</title>
<polygon fill="blueviolet" stroke="blueviolet" points="1678.44,-3668.57 1682.68,-3668.76 1686.88,-3669.05 1691.02,-3669.43 1695.08,-3669.91 1699.05,-3670.48 1702.91,-3671.14 1706.64,-3671.89 1710.24,-3672.73 1713.68,-3673.65 1716.95,-3674.66 1720.06,-3675.74 1722.97,-3676.9 1725.69,-3678.14 1728.2,-3679.44 1730.51,-3680.81 1732.6,-3682.25 1734.46,-3683.74 1736.11,-3685.29 1737.52,-3686.89 1738.71,-3688.53 1739.68,-3690.22 1740.41,-3691.94 1740.93,-3693.69 1741.22,-3695.48 1741.3,-3697.28 1741.17,-3699.1 1740.84,-3700.94 1740.3,-3702.78 1739.58,-3704.63 1738.68,-3706.47 1737.6,-3708.31 1736.35,-3710.13 1734.95,-3711.93 1733.41,-3713.72 1731.72,-3715.47 1729.91,-3717.19 1727.98,-3718.88 1725.94,-3720.52 1723.8,-3722.12 1721.57,-3723.67 1719.26,-3725.16 1716.87,-3726.6 1714.41,-3727.97 1711.9,-3729.27 1709.33,-3730.51 1706.72,-3731.67 1704.06,-3732.75 1701.37,-3733.76 1698.66,-3734.68 1695.91,-3735.52 1693.15,-3736.27 1690.36,-3736.93 1687.56,-3737.5 1684.75,-3737.98 1681.94,-3738.36 1679.11,-3738.65 1676.28,-3738.84 1673.45,-3738.94 1670.61,-3738.94 1667.78,-3738.84 1664.95,-3738.65 1662.12,-3738.36 1659.31,-3737.98 1656.5,-3737.5 1653.7,-3736.93 1650.91,-3736.27 1648.15,-3735.52 1645.4,-3734.68 1642.69,-3733.76 1640,-3732.75 1637.34,-3731.67 1634.73,-3730.51 1632.16,-3729.27 1629.65,-3727.97 1627.19,-3726.6 1624.8,-3725.16 1622.49,-3723.67 1620.26,-3722.12 1618.12,-3720.52 1616.08,-3718.88 1614.15,-3717.19 1612.34,-3715.47 1610.65,-3713.72 1609.11,-3711.93 1607.71,-3710.13 1606.46,-3708.31 1605.38,-3706.47 1604.48,-3704.63 1603.76,-3702.78 1603.22,-3700.94 1602.89,-3699.1 1602.76,-3697.28 1602.84,-3695.48 1603.13,-3693.69 1603.65,-3691.94 1604.38,-3690.22 1605.35,-3688.53 1606.54,-3686.89 1607.95,-3685.29 1609.6,-3683.74 1611.47,-3682.25 1613.55,-3680.81 1615.86,-3679.44 1618.37,-3678.14 1621.09,-3676.9 1624.01,-3675.74 1627.11,-3674.66 1630.38,-3673.65 1633.82,-3672.73 1637.42,-3671.89 1641.15,-3671.14 1645.01,-3670.48 1648.98,-3669.91 1653.04,-3669.43 1657.18,-3669.05 1661.38,-3668.76 1665.62,-3668.57 1669.89,-3668.47 1674.17,-3668.47 1678.44,-3668.57"/>
<text text-anchor="start" x="1642.86" y="-3713.51" font-family="Times,serif" font-size="14.00">C0243095</text>
<text text-anchor="start" x="1634.12" y="-3699.51" font-family="Times,serif" font-size="14.00">plaid patterns</text>
<text text-anchor="start" x="1649.09" y="-3685.51" font-family="Times,serif" font-size="14.00">269:270</text>
</g>
<!-- id_28538990_DOT_9&#45;&#45;id_28538990_DOT_30 -->
<g id="edge5" class="edge">
<title>id_28538990_DOT_9&#45;&#45;id_28538990_DOT_30</title>
<path fill="none" stroke="black" d="M1866.36,-3371.42C1825.99,-3440.46 1733.1,-3599.29 1692.1,-3669.39"/>
<text text-anchor="middle" x="1752.98" y="-3523.21" font-family="Times,serif" font-size="14.00">0.133431</text>
</g>
<!-- id_28538990_DOT_11 -->
<g id="node11" class="node">
<title>id_28538990_DOT_11</title>
<polygon fill="blueviolet" stroke="blueviolet" points="3606.81,-2482.67 3610.75,-2482.86 3614.65,-2483.15 3618.49,-2483.53 3622.26,-2484.01 3625.95,-2484.58 3629.53,-2485.24 3632.99,-2485.99 3636.33,-2486.83 3639.52,-2487.75 3642.56,-2488.76 3645.44,-2489.84 3648.15,-2491.01 3650.67,-2492.24 3653.01,-2493.55 3655.15,-2494.92 3657.08,-2496.35 3658.82,-2497.84 3660.34,-2499.39 3661.66,-2500.99 3662.76,-2502.63 3663.66,-2504.32 3664.34,-2506.04 3664.82,-2507.8 3665.09,-2509.58 3665.17,-2511.38 3665.05,-2513.21 3664.73,-2515.04 3664.24,-2516.89 3663.57,-2518.73 3662.73,-2520.57 3661.73,-2522.41 3660.57,-2524.23 3659.27,-2526.04 3657.84,-2527.82 3656.28,-2529.57 3654.59,-2531.3 3652.8,-2532.98 3650.91,-2534.63 3648.92,-2536.22 3646.85,-2537.77 3644.7,-2539.27 3642.49,-2540.7 3640.21,-2542.07 3637.87,-2543.38 3635.49,-2544.61 3633.06,-2545.77 3630.6,-2546.86 3628.1,-2547.86 3625.58,-2548.78 3623.03,-2549.62 3620.46,-2550.37 3617.88,-2551.03 3615.28,-2551.6 3612.67,-2552.08 3610.06,-2552.47 3607.43,-2552.75 3604.81,-2552.95 3602.18,-2553.04 3599.55,-2553.04 3596.92,-2552.95 3594.29,-2552.75 3591.67,-2552.47 3589.05,-2552.08 3586.44,-2551.6 3583.84,-2551.03 3581.26,-2550.37 3578.69,-2549.62 3576.14,-2548.78 3573.62,-2547.86 3571.12,-2546.86 3568.66,-2545.77 3566.23,-2544.61 3563.85,-2543.38 3561.52,-2542.07 3559.24,-2540.7 3557.02,-2539.27 3554.87,-2537.77 3552.8,-2536.22 3550.81,-2534.63 3548.92,-2532.98 3547.13,-2531.3 3545.45,-2529.57 3543.88,-2527.82 3542.45,-2526.04 3541.15,-2524.23 3539.99,-2522.41 3538.99,-2520.57 3538.15,-2518.73 3537.48,-2516.89 3536.99,-2515.04 3536.68,-2513.21 3536.56,-2511.38 3536.63,-2509.58 3536.9,-2507.8 3537.38,-2506.04 3538.06,-2504.32 3538.96,-2502.63 3540.06,-2500.99 3541.38,-2499.39 3542.9,-2497.84 3544.64,-2496.35 3546.58,-2494.92 3548.71,-2493.55 3551.05,-2492.24 3553.57,-2491.01 3556.28,-2489.84 3559.16,-2488.76 3562.2,-2487.75 3565.39,-2486.83 3568.73,-2485.99 3572.2,-2485.24 3575.78,-2484.58 3579.46,-2484.01 3583.23,-2483.53 3587.07,-2483.15 3590.97,-2482.86 3594.91,-2482.67 3598.87,-2482.57 3602.85,-2482.57 3606.81,-2482.67"/>
<text text-anchor="start" x="3571.69" y="-2527.61" font-family="Times,serif" font-size="14.00">C0243095</text>
<text text-anchor="start" x="3566.26" y="-2513.61" font-family="Times,serif" font-size="14.00">noncoherent</text>
<text text-anchor="start" x="3577.92" y="-2499.61" font-family="Times,serif" font-size="14.00">126:126</text>
</g>
<!-- id_28538990_DOT_10&#45;&#45;id_28538990_DOT_11 -->
<g id="edge19" class="edge">
<title>id_28538990_DOT_10&#45;&#45;id_28538990_DOT_11</title>
<path fill="none" stroke="black" stroke-dasharray="1,5" d="M3296.35,-2506.49C3374.23,-2509.38 3473.27,-2513.06 3536.87,-2515.43"/>
<text text-anchor="middle" x="3390.36" y="-2513.76" font-family="Times,serif" font-size="14.00">0.634612</text>
</g>
<!-- id_28538990_DOT_10&#45;&#45;id_28538990_DOT_20 -->
<g id="edge20" class="edge">
<title>id_28538990_DOT_10&#45;&#45;id_28538990_DOT_20</title>
<path fill="none" stroke="black" stroke-dasharray="1,5" d="M3089.9,-2474.63C3000.15,-2446.76 2863.49,-2404.32 2784.1,-2379.67"/>
<text text-anchor="middle" x="2910.75" y="-2429.95" font-family="Times,serif" font-size="14.00">0.703985</text>
</g>
<!-- id_28538990_DOT_24 -->
<g id="node24" class="node">
<title>id_28538990_DOT_24</title>
<polygon fill="blueviolet" stroke="blueviolet" points="3988.05,-2604.77 3991.99,-2604.96 3995.89,-2605.25 3999.73,-2605.64 4003.5,-2606.11 4007.19,-2606.69 4010.77,-2607.35 4014.23,-2608.1 4017.57,-2608.93 4020.76,-2609.86 4023.81,-2610.86 4026.68,-2611.95 4029.39,-2613.11 4031.91,-2614.34 4034.25,-2615.65 4036.39,-2617.02 4038.32,-2618.45 4040.06,-2619.95 4041.58,-2621.49 4042.9,-2623.09 4044,-2624.74 4044.9,-2626.42 4045.58,-2628.14 4046.06,-2629.9 4046.33,-2631.68 4046.41,-2633.49 4046.29,-2635.31 4045.97,-2637.15 4045.48,-2638.99 4044.81,-2640.83 4043.97,-2642.68 4042.97,-2644.51 4041.81,-2646.33 4040.51,-2648.14 4039.08,-2649.92 4037.52,-2651.68 4035.83,-2653.4 4034.04,-2655.09 4032.15,-2656.73 4030.16,-2658.33 4028.09,-2659.88 4025.94,-2661.37 4023.73,-2662.8 4021.45,-2664.17 4019.11,-2665.48 4016.73,-2666.71 4014.3,-2667.87 4011.84,-2668.96 4009.34,-2669.96 4006.82,-2670.89 4004.27,-2671.72 4001.7,-2672.48 3999.12,-2673.14 3996.52,-2673.71 3993.91,-2674.18 3991.3,-2674.57 3988.67,-2674.86 3986.05,-2675.05 3983.42,-2675.15 3980.79,-2675.15 3978.16,-2675.05 3975.53,-2674.86 3972.91,-2674.57 3970.29,-2674.18 3967.68,-2673.71 3965.08,-2673.14 3962.5,-2672.48 3959.93,-2671.72 3957.38,-2670.89 3954.86,-2669.96 3952.36,-2668.96 3949.9,-2667.87 3947.47,-2666.71 3945.09,-2665.48 3942.76,-2664.17 3940.48,-2662.8 3938.26,-2661.37 3936.11,-2659.88 3934.04,-2658.33 3932.05,-2656.73 3930.16,-2655.09 3928.37,-2653.4 3926.69,-2651.68 3925.12,-2649.92 3923.69,-2648.14 3922.39,-2646.33 3921.23,-2644.51 3920.23,-2642.68 3919.39,-2640.83 3918.72,-2638.99 3918.23,-2637.15 3917.92,-2635.31 3917.8,-2633.49 3917.87,-2631.68 3918.14,-2629.9 3918.62,-2628.14 3919.31,-2626.42 3920.2,-2624.74 3921.3,-2623.09 3922.62,-2621.49 3924.14,-2619.95 3925.88,-2618.45 3927.82,-2617.02 3929.96,-2615.65 3932.29,-2614.34 3934.81,-2613.11 3937.52,-2611.95 3940.4,-2610.86 3943.44,-2609.86 3946.63,-2608.93 3949.97,-2608.1 3953.44,-2607.35 3957.02,-2606.69 3960.7,-2606.11 3964.47,-2605.64 3968.31,-2605.25 3972.21,-2604.96 3976.15,-2604.77 3980.12,-2604.68 3984.09,-2604.68 3988.05,-2604.77"/>
<text text-anchor="start" x="3952.93" y="-2649.71" font-family="Times,serif" font-size="14.00">C0243095</text>
<text text-anchor="start" x="3947.5" y="-2635.71" font-family="Times,serif" font-size="14.00">noncoherent</text>
<text text-anchor="start" x="3959.16" y="-2621.71" font-family="Times,serif" font-size="14.00">218:218</text>
</g>
<!-- id_28538990_DOT_11&#45;&#45;id_28538990_DOT_24 -->
<g id="edge6" class="edge">
<title>id_28538990_DOT_11&#45;&#45;id_28538990_DOT_24</title>
<path fill="none" stroke="black" d="M3651.88,-2534.15C3722.19,-2556.67 3848.57,-2597.14 3922.93,-2620.96"/>
<text text-anchor="middle" x="3761.41" y="-2580.35" font-family="Times,serif" font-size="14.00">0.011493</text>
</g>
<!-- id_28538990_DOT_12 -->
<g id="node12" class="node">
<title>id_28538990_DOT_12</title>
<polygon fill="crimson" stroke="crimson" points="1896.61,-4056.2 1901.72,-4056.4 1906.78,-4056.68 1911.76,-4057.07 1916.65,-4057.55 1921.42,-4058.12 1926.07,-4058.78 1930.56,-4059.53 1934.88,-4060.37 1939.03,-4061.29 1942.97,-4062.29 1946.7,-4063.38 1950.21,-4064.54 1953.48,-4065.77 1956.51,-4067.08 1959.28,-4068.45 1961.8,-4069.88 1964.04,-4071.38 1966.02,-4072.93 1967.73,-4074.52 1969.16,-4076.17 1970.32,-4077.85 1971.21,-4079.58 1971.83,-4081.33 1972.18,-4083.11 1972.28,-4084.92 1972.12,-4086.74 1971.71,-4088.58 1971.07,-4090.42 1970.2,-4092.26 1969.11,-4094.11 1967.82,-4095.94 1966.32,-4097.77 1964.64,-4099.57 1962.77,-4101.35 1960.75,-4103.11 1958.57,-4104.83 1956.24,-4106.52 1953.79,-4108.16 1951.21,-4109.76 1948.53,-4111.31 1945.74,-4112.8 1942.87,-4114.23 1939.91,-4115.6 1936.89,-4116.91 1933.8,-4118.14 1930.65,-4119.31 1927.45,-4120.39 1924.22,-4121.4 1920.95,-4122.32 1917.64,-4123.16 1914.31,-4123.91 1910.96,-4124.57 1907.6,-4125.14 1904.21,-4125.62 1900.82,-4126 1897.42,-4126.29 1894.01,-4126.48 1890.6,-4126.58 1887.19,-4126.58 1883.78,-4126.48 1880.38,-4126.29 1876.98,-4126 1873.58,-4125.62 1870.2,-4125.14 1866.83,-4124.57 1863.48,-4123.91 1860.15,-4123.16 1856.85,-4122.32 1853.58,-4121.4 1850.34,-4120.39 1847.15,-4119.31 1844,-4118.14 1840.91,-4116.91 1837.88,-4115.6 1834.93,-4114.23 1832.05,-4112.8 1829.27,-4111.31 1826.58,-4109.76 1824.01,-4108.16 1821.55,-4106.52 1819.23,-4104.83 1817.05,-4103.11 1815.02,-4101.35 1813.16,-4099.57 1811.48,-4097.77 1809.98,-4095.94 1808.68,-4094.11 1807.59,-4092.26 1806.72,-4090.42 1806.08,-4088.58 1805.68,-4086.74 1805.52,-4084.92 1805.62,-4083.11 1805.97,-4081.33 1806.59,-4079.58 1807.48,-4077.85 1808.64,-4076.17 1810.07,-4074.52 1811.77,-4072.93 1813.75,-4071.38 1816,-4069.88 1818.51,-4068.45 1821.29,-4067.08 1824.31,-4065.77 1827.59,-4064.54 1831.09,-4063.38 1834.83,-4062.29 1838.77,-4061.29 1842.91,-4060.37 1847.24,-4059.53 1851.73,-4058.78 1856.37,-4058.12 1861.15,-4057.55 1866.04,-4057.07 1871.02,-4056.68 1876.07,-4056.4 1881.18,-4056.2 1886.32,-4056.11 1891.47,-4056.11 1896.61,-4056.2"/>
<text text-anchor="start" x="1859.73" y="-4101.14" font-family="Times,serif" font-size="14.00">C0456341</text>
<text text-anchor="start" x="1841.66" y="-4087.14" font-family="Times,serif" font-size="14.00">overlaid gratings</text>
<text text-anchor="start" x="1865.95" y="-4073.14" font-family="Times,serif" font-size="14.00">135:136</text>
</g>
<!-- id_28538990_DOT_23 -->
<g id="node23" class="node">
<title>id_28538990_DOT_23</title>
<polygon fill="darkred" stroke="darkred" points="2206.16,-4315.05 2209.59,-4315.25 2212.98,-4315.54 2216.32,-4315.92 2219.61,-4316.4 2222.81,-4316.97 2225.93,-4317.63 2228.94,-4318.38 2231.84,-4319.22 2234.62,-4320.14 2237.27,-4321.14 2239.78,-4322.23 2242.13,-4323.39 2244.33,-4324.63 2246.36,-4325.93 2248.22,-4327.3 2249.91,-4328.74 2251.41,-4330.23 2252.74,-4331.78 2253.89,-4333.37 2254.85,-4335.02 2255.63,-4336.7 2256.22,-4338.43 2256.64,-4340.18 2256.87,-4341.96 2256.94,-4343.77 2256.83,-4345.59 2256.56,-4347.43 2256.13,-4349.27 2255.55,-4351.12 2254.82,-4352.96 2253.95,-4354.79 2252.94,-4356.62 2251.81,-4358.42 2250.56,-4360.2 2249.2,-4361.96 2247.74,-4363.68 2246.18,-4365.37 2244.53,-4367.01 2242.8,-4368.61 2241,-4370.16 2239.13,-4371.65 2237.2,-4373.08 2235.22,-4374.46 2233.19,-4375.76 2231.11,-4377 2229,-4378.16 2226.86,-4379.24 2224.69,-4380.25 2222.49,-4381.17 2220.27,-4382.01 2218.04,-4382.76 2215.79,-4383.42 2213.53,-4383.99 2211.26,-4384.47 2208.98,-4384.85 2206.7,-4385.14 2204.42,-4385.33 2202.13,-4385.43 2199.84,-4385.43 2197.55,-4385.33 2195.26,-4385.14 2192.98,-4384.85 2190.7,-4384.47 2188.43,-4383.99 2186.17,-4383.42 2183.93,-4382.76 2181.69,-4382.01 2179.47,-4381.17 2177.28,-4380.25 2175.11,-4379.24 2172.96,-4378.16 2170.85,-4377 2168.78,-4375.76 2166.75,-4374.46 2164.76,-4373.08 2162.83,-4371.65 2160.96,-4370.16 2159.16,-4368.61 2157.43,-4367.01 2155.79,-4365.37 2154.23,-4363.68 2152.76,-4361.96 2151.4,-4360.2 2150.15,-4358.42 2149.02,-4356.62 2148.02,-4354.79 2147.15,-4352.96 2146.42,-4351.12 2145.83,-4349.27 2145.4,-4347.43 2145.13,-4345.59 2145.03,-4343.77 2145.09,-4341.96 2145.33,-4340.18 2145.74,-4338.43 2146.34,-4336.7 2147.12,-4335.02 2148.08,-4333.37 2149.22,-4331.78 2150.55,-4330.23 2152.06,-4328.74 2153.75,-4327.3 2155.61,-4325.93 2157.64,-4324.63 2159.83,-4323.39 2162.19,-4322.23 2164.69,-4321.14 2167.34,-4320.14 2170.12,-4319.22 2173.02,-4318.38 2176.04,-4317.63 2179.15,-4316.97 2182.36,-4316.4 2185.64,-4315.92 2188.98,-4315.54 2192.38,-4315.25 2195.8,-4315.05 2199.25,-4314.96 2202.71,-4314.96 2206.16,-4315.05"/>
<text text-anchor="start" x="2171.81" y="-4359.99" font-family="Times,serif" font-size="14.00">C0282574</text>
<text text-anchor="start" x="2172.41" y="-4345.99" font-family="Times,serif" font-size="14.00">AND gate</text>
<text text-anchor="start" x="2178.04" y="-4331.99" font-family="Times,serif" font-size="14.00">205:206</text>
</g>
<!-- id_28538990_DOT_12&#45;&#45;id_28538990_DOT_23 -->
<g id="edge21" class="edge">
<title>id_28538990_DOT_12&#45;&#45;id_28538990_DOT_23</title>
<path fill="none" stroke="black" stroke-dasharray="1,5" d="M1925,-4121.29C1985.17,-4171.19 2105.25,-4270.79 2165.2,-4320.52"/>
<text text-anchor="middle" x="2018.85" y="-4223.7" font-family="Times,serif" font-size="14.00">0.747069</text>
</g>
<!-- id_28538990_DOT_25 -->
<g id="node25" class="node">
<title>id_28538990_DOT_25</title>
<polygon fill="darksalmon" stroke="darksalmon" points="1838.55,-4463.57 1841.98,-4463.76 1845.37,-4464.05 1848.72,-4464.44 1852,-4464.91 1855.2,-4465.49 1858.32,-4466.15 1861.33,-4466.9 1864.24,-4467.73 1867.02,-4468.66 1869.66,-4469.66 1872.17,-4470.75 1874.52,-4471.91 1876.72,-4473.14 1878.75,-4474.45 1880.61,-4475.82 1882.3,-4477.25 1883.81,-4478.75 1885.13,-4480.29 1886.28,-4481.89 1887.24,-4483.54 1888.02,-4485.22 1888.61,-4486.94 1889.03,-4488.7 1889.27,-4490.48 1889.33,-4492.29 1889.23,-4494.11 1888.96,-4495.95 1888.53,-4497.79 1887.94,-4499.63 1887.21,-4501.48 1886.34,-4503.31 1885.33,-4505.13 1884.2,-4506.94 1882.95,-4508.72 1881.59,-4510.48 1880.13,-4512.2 1878.57,-4513.89 1876.92,-4515.53 1875.2,-4517.13 1873.39,-4518.68 1871.53,-4520.17 1869.6,-4521.6 1867.61,-4522.97 1865.58,-4524.28 1863.51,-4525.51 1861.4,-4526.67 1859.25,-4527.76 1857.08,-4528.76 1854.88,-4529.69 1852.67,-4530.52 1850.43,-4531.28 1848.18,-4531.94 1845.92,-4532.51 1843.65,-4532.98 1841.38,-4533.37 1839.09,-4533.66 1836.81,-4533.85 1834.52,-4533.95 1832.23,-4533.95 1829.94,-4533.85 1827.66,-4533.66 1825.37,-4533.37 1823.1,-4532.98 1820.83,-4532.51 1818.57,-4531.94 1816.32,-4531.28 1814.08,-4530.52 1811.87,-4529.69 1809.67,-4528.76 1807.5,-4527.76 1805.36,-4526.67 1803.24,-4525.51 1801.17,-4524.28 1799.14,-4522.97 1797.16,-4521.6 1795.23,-4520.17 1793.36,-4518.68 1791.55,-4517.13 1789.83,-4515.53 1788.18,-4513.89 1786.62,-4512.2 1785.16,-4510.48 1783.8,-4508.72 1782.55,-4506.94 1781.42,-4505.13 1780.41,-4503.31 1779.54,-4501.48 1778.81,-4499.63 1778.23,-4497.79 1777.8,-4495.95 1777.52,-4494.11 1777.42,-4492.29 1777.48,-4490.48 1777.72,-4488.7 1778.14,-4486.94 1778.73,-4485.22 1779.51,-4483.54 1780.47,-4481.89 1781.62,-4480.29 1782.94,-4478.75 1784.45,-4477.25 1786.14,-4475.82 1788,-4474.45 1790.03,-4473.14 1792.23,-4471.91 1794.58,-4470.75 1797.09,-4469.66 1799.73,-4468.66 1802.51,-4467.73 1805.42,-4466.9 1808.43,-4466.15 1811.55,-4465.49 1814.75,-4464.91 1818.03,-4464.44 1821.38,-4464.05 1824.77,-4463.76 1828.2,-4463.57 1831.65,-4463.48 1835.1,-4463.48 1838.55,-4463.57"/>
<text text-anchor="start" x="1804.21" y="-4508.51" font-family="Times,serif" font-size="14.00">C1510941</text>
<text text-anchor="start" x="1819" y="-4494.51" font-family="Times,serif" font-size="14.00">array</text>
<text text-anchor="start" x="1810.43" y="-4480.51" font-family="Times,serif" font-size="14.00">223:223</text>
</g>
<!-- id_28538990_DOT_12&#45;&#45;id_28538990_DOT_25 -->
<g id="edge22" class="edge">
<title>id_28538990_DOT_12&#45;&#45;id_28538990_DOT_25</title>
<path fill="none" stroke="black" stroke-dasharray="1,5" d="M1884.07,-4126.78C1873.55,-4203.92 1848.7,-4386.29 1838.19,-4463.35"/>
<text text-anchor="middle" x="1834.88" y="-4297.87" font-family="Times,serif" font-size="14.00">0.815247</text>
</g>
<!-- id_28538990_DOT_12&#45;&#45;id_28538990_DOT_30 -->
<g id="edge23" class="edge">
<title>id_28538990_DOT_12&#45;&#45;id_28538990_DOT_30</title>
<path fill="none" stroke="black" stroke-dasharray="1,5" d="M1869.46,-4056.6C1828.03,-3982.55 1731.49,-3809.99 1690.73,-3737.12"/>
<text text-anchor="middle" x="1753.84" y="-3899.66" font-family="Times,serif" font-size="14.00">0.386436</text>
</g>
<!-- id_28538990_DOT_13 -->
<g id="node13" class="node">
<title>id_28538990_DOT_13</title>
<polygon fill="darkgoldenrod" stroke="darkgoldenrod" points="1190.14,-4115.44 1193.74,-4115.63 1197.31,-4115.92 1200.82,-4116.3 1204.27,-4116.78 1207.64,-4117.35 1210.91,-4118.01 1214.08,-4118.76 1217.13,-4119.6 1220.05,-4120.52 1222.83,-4121.53 1225.47,-4122.61 1227.94,-4123.77 1230.25,-4125.01 1232.38,-4126.31 1234.34,-4127.68 1236.11,-4129.12 1237.7,-4130.61 1239.09,-4132.16 1240.3,-4133.76 1241.31,-4135.4 1242.12,-4137.09 1242.75,-4138.81 1243.19,-4140.57 1243.44,-4142.35 1243.5,-4144.15 1243.39,-4145.98 1243.11,-4147.81 1242.66,-4149.65 1242.04,-4151.5 1241.27,-4153.34 1240.36,-4155.18 1239.3,-4157 1238.11,-4158.8 1236.8,-4160.59 1235.37,-4162.34 1233.83,-4164.06 1232.2,-4165.75 1230.46,-4167.39 1228.65,-4168.99 1226.75,-4170.54 1224.79,-4172.03 1222.76,-4173.47 1220.68,-4174.84 1218.54,-4176.14 1216.36,-4177.38 1214.14,-4178.54 1211.89,-4179.62 1209.61,-4180.63 1207.3,-4181.55 1204.97,-4182.39 1202.62,-4183.14 1200.26,-4183.8 1197.89,-4184.37 1195.5,-4184.85 1193.11,-4185.23 1190.71,-4185.52 1188.31,-4185.71 1185.9,-4185.81 1183.5,-4185.81 1181.09,-4185.71 1178.69,-4185.52 1176.29,-4185.23 1173.9,-4184.85 1171.51,-4184.37 1169.14,-4183.8 1166.77,-4183.14 1164.43,-4182.39 1162.1,-4181.55 1159.79,-4180.63 1157.51,-4179.62 1155.25,-4178.54 1153.03,-4177.38 1150.85,-4176.14 1148.72,-4174.84 1146.64,-4173.47 1144.61,-4172.03 1142.64,-4170.54 1140.75,-4168.99 1138.93,-4167.39 1137.2,-4165.75 1135.56,-4164.06 1134.03,-4162.34 1132.6,-4160.59 1131.28,-4158.8 1130.1,-4157 1129.04,-4155.18 1128.12,-4153.34 1127.36,-4151.5 1126.74,-4149.65 1126.29,-4147.81 1126.01,-4145.98 1125.89,-4144.15 1125.96,-4142.35 1126.21,-4140.57 1126.65,-4138.81 1127.27,-4137.09 1128.09,-4135.4 1129.1,-4133.76 1130.31,-4132.16 1131.7,-4130.61 1133.29,-4129.12 1135.06,-4127.68 1137.01,-4126.31 1139.15,-4125.01 1141.46,-4123.77 1143.93,-4122.61 1146.56,-4121.53 1149.34,-4120.52 1152.27,-4119.6 1155.32,-4118.76 1158.49,-4118.01 1161.76,-4117.35 1165.13,-4116.78 1168.58,-4116.3 1172.09,-4115.92 1175.65,-4115.63 1179.26,-4115.44 1182.88,-4115.34 1186.52,-4115.34 1190.14,-4115.44"/>
<text text-anchor="start" x="1155.53" y="-4160.38" font-family="Times,serif" font-size="14.00">C0234109</text>
<text text-anchor="start" x="1153.59" y="-4146.38" font-family="Times,serif" font-size="14.00">summation</text>
<text text-anchor="start" x="1161.75" y="-4132.38" font-family="Times,serif" font-size="14.00">150:150</text>
</g>
<!-- id_28538990_DOT_21 -->
<g id="node21" class="node">
<title>id_28538990_DOT_21</title>
<polygon fill="darkgoldenrod" stroke="darkgoldenrod" points="1242.6,-3720.11 1246.2,-3720.31 1249.77,-3720.6 1253.28,-3720.98 1256.73,-3721.46 1260.1,-3722.03 1263.37,-3722.69 1266.54,-3723.44 1269.59,-3724.28 1272.51,-3725.2 1275.3,-3726.2 1277.93,-3727.29 1280.4,-3728.45 1282.71,-3729.68 1284.84,-3730.99 1286.8,-3732.36 1288.57,-3733.8 1290.16,-3735.29 1291.55,-3736.84 1292.76,-3738.43 1293.77,-3740.08 1294.58,-3741.76 1295.21,-3743.49 1295.65,-3745.24 1295.9,-3747.02 1295.96,-3748.83 1295.85,-3750.65 1295.57,-3752.49 1295.12,-3754.33 1294.5,-3756.18 1293.73,-3758.02 1292.82,-3759.85 1291.76,-3761.68 1290.58,-3763.48 1289.26,-3765.26 1287.83,-3767.02 1286.3,-3768.74 1284.66,-3770.43 1282.93,-3772.07 1281.11,-3773.67 1279.22,-3775.22 1277.25,-3776.71 1275.22,-3778.14 1273.14,-3779.52 1271,-3780.82 1268.82,-3782.05 1266.61,-3783.22 1264.35,-3784.3 1262.07,-3785.31 1259.76,-3786.23 1257.43,-3787.07 1255.08,-3787.82 1252.72,-3788.48 1250.35,-3789.05 1247.96,-3789.53 1245.57,-3789.91 1243.17,-3790.2 1240.77,-3790.39 1238.36,-3790.49 1235.96,-3790.49 1233.55,-3790.39 1231.15,-3790.2 1228.75,-3789.91 1226.36,-3789.53 1223.97,-3789.05 1221.6,-3788.48 1219.23,-3787.82 1216.89,-3787.07 1214.56,-3786.23 1212.25,-3785.31 1209.97,-3784.3 1207.71,-3783.22 1205.49,-3782.05 1203.32,-3780.82 1201.18,-3779.52 1199.1,-3778.14 1197.07,-3776.71 1195.1,-3775.22 1193.21,-3773.67 1191.39,-3772.07 1189.66,-3770.43 1188.02,-3768.74 1186.49,-3767.02 1185.06,-3765.26 1183.74,-3763.48 1182.56,-3761.68 1181.5,-3759.85 1180.58,-3758.02 1179.82,-3756.18 1179.2,-3754.33 1178.75,-3752.49 1178.47,-3750.65 1178.36,-3748.83 1178.42,-3747.02 1178.67,-3745.24 1179.11,-3743.49 1179.74,-3741.76 1180.55,-3740.08 1181.56,-3738.43 1182.77,-3736.84 1184.16,-3735.29 1185.75,-3733.8 1187.52,-3732.36 1189.47,-3730.99 1191.61,-3729.68 1193.92,-3728.45 1196.39,-3727.29 1199.02,-3726.2 1201.81,-3725.2 1204.73,-3724.28 1207.78,-3723.44 1210.95,-3722.69 1214.22,-3722.03 1217.59,-3721.46 1221.04,-3720.98 1224.55,-3720.6 1228.12,-3720.31 1231.72,-3720.11 1235.34,-3720.02 1238.98,-3720.02 1242.6,-3720.11"/>
<text text-anchor="start" x="1207.99" y="-3765.05" font-family="Times,serif" font-size="14.00">C0234109</text>
<text text-anchor="start" x="1206.05" y="-3751.05" font-family="Times,serif" font-size="14.00">summation</text>
<text text-anchor="start" x="1214.21" y="-3737.05" font-family="Times,serif" font-size="14.00">198:198</text>
</g>
<!-- id_28538990_DOT_13&#45;&#45;id_28538990_DOT_21 -->
<g id="edge7" class="edge">
<title>id_28538990_DOT_13&#45;&#45;id_28538990_DOT_21</title>
<path fill="none" stroke="black" d="M1189.4,-4115.15C1199.37,-4040 1222.54,-3865.41 1232.49,-3790.46"/>
<text text-anchor="middle" x="1184.69" y="-3955.6" font-family="Times,serif" font-size="14.00">0.009934</text>
</g>
<!-- id_28538990_DOT_14 -->
<g id="node14" class="node">
<title>id_28538990_DOT_14</title>
<polygon fill="darkgreen" stroke="darkgreen" points="3159.57,-1447.25 3164.98,-1447.44 3170.33,-1447.73 3175.61,-1448.12 3180.79,-1448.59 3185.85,-1449.17 3190.77,-1449.83 3195.53,-1450.58 3200.11,-1451.41 3204.5,-1452.34 3208.68,-1453.34 3212.63,-1454.43 3216.35,-1455.59 3219.82,-1456.82 3223.02,-1458.13 3225.96,-1459.5 3228.62,-1460.93 3231,-1462.43 3233.1,-1463.97 3234.91,-1465.57 3236.42,-1467.22 3237.65,-1468.9 3238.59,-1470.63 3239.25,-1472.38 3239.62,-1474.16 3239.73,-1475.97 3239.56,-1477.79 3239.13,-1479.63 3238.45,-1481.47 3237.53,-1483.31 3236.38,-1485.16 3235,-1486.99 3233.42,-1488.81 3231.63,-1490.62 3229.66,-1492.4 3227.51,-1494.16 3225.2,-1495.88 3222.74,-1497.57 3220.14,-1499.21 3217.41,-1500.81 3214.57,-1502.36 3211.62,-1503.85 3208.57,-1505.28 3205.44,-1506.65 3202.23,-1507.96 3198.96,-1509.19 3195.63,-1510.35 3192.24,-1511.44 3188.81,-1512.44 3185.35,-1513.37 3181.85,-1514.2 3178.32,-1514.96 3174.77,-1515.62 3171.2,-1516.19 3167.62,-1516.66 3164.02,-1517.05 3160.42,-1517.34 3156.81,-1517.53 3153.2,-1517.63 3149.59,-1517.63 3145.97,-1517.53 3142.36,-1517.34 3138.76,-1517.05 3135.17,-1516.66 3131.58,-1516.19 3128.02,-1515.62 3124.47,-1514.96 3120.94,-1514.2 3117.44,-1513.37 3113.97,-1512.44 3110.55,-1511.44 3107.16,-1510.35 3103.83,-1509.19 3100.55,-1507.96 3097.35,-1506.65 3094.22,-1505.28 3091.17,-1503.85 3088.22,-1502.36 3085.37,-1500.81 3082.65,-1499.21 3080.05,-1497.57 3077.58,-1495.88 3075.27,-1494.16 3073.13,-1492.4 3071.15,-1490.62 3069.37,-1488.81 3067.78,-1486.99 3066.41,-1485.16 3065.25,-1483.31 3064.33,-1481.47 3063.65,-1479.63 3063.23,-1477.79 3063.06,-1475.97 3063.16,-1474.16 3063.54,-1472.38 3064.19,-1470.63 3065.13,-1468.9 3066.36,-1467.22 3067.88,-1465.57 3069.69,-1463.97 3071.78,-1462.43 3074.16,-1460.93 3076.82,-1459.5 3079.76,-1458.13 3082.97,-1456.82 3086.44,-1455.59 3090.15,-1454.43 3094.11,-1453.34 3098.29,-1452.34 3102.67,-1451.41 3107.26,-1450.58 3112.02,-1449.83 3116.94,-1449.17 3121.99,-1448.59 3127.17,-1448.12 3132.45,-1447.73 3137.81,-1447.44 3143.22,-1447.25 3148.66,-1447.16 3154.12,-1447.16 3159.57,-1447.25"/>
<text text-anchor="start" x="3122.22" y="-1492.19" font-family="Times,serif" font-size="14.00">C1704322</text>
<text text-anchor="start" x="3100.85" y="-1478.19" font-family="Times,serif" font-size="14.00">cross &#45; orientation</text>
<text text-anchor="start" x="3128.45" y="-1464.19" font-family="Times,serif" font-size="14.00">158:160</text>
</g>
<!-- id_28538990_DOT_14&#45;&#45;id_28538990_DOT_29 -->
<g id="edge24" class="edge">
<title>id_28538990_DOT_14&#45;&#45;id_28538990_DOT_29</title>
<path fill="none" stroke="black" stroke-dasharray="1,5" d="M3072.09,-1491.77C2995.3,-1500.86 2880.84,-1514.4 2813.12,-1522.41"/>
<text text-anchor="middle" x="2916.35" y="-1509.89" font-family="Times,serif" font-size="14.00">0.827678</text>
</g>
<!-- id_28538990_DOT_15 -->
<g id="node15" class="node">
<title>id_28538990_DOT_15</title>
<polygon fill="cadetblue" stroke="cadetblue" points="606.16,-4087.42 609.94,-4087.61 613.68,-4087.9 617.37,-4088.28 620.98,-4088.76 624.51,-4089.33 627.95,-4089.99 631.27,-4090.74 634.47,-4091.58 637.53,-4092.5 640.45,-4093.51 643.21,-4094.59 645.8,-4095.75 648.22,-4096.99 650.46,-4098.29 652.51,-4099.66 654.37,-4101.1 656.03,-4102.59 657.5,-4104.14 658.76,-4105.74 659.82,-4107.38 660.67,-4109.07 661.33,-4110.79 661.79,-4112.54 662.05,-4114.33 662.12,-4116.13 662,-4117.95 661.71,-4119.79 661.23,-4121.63 660.59,-4123.48 659.78,-4125.32 658.82,-4127.16 657.72,-4128.98 656.47,-4130.78 655.09,-4132.57 653.59,-4134.32 651.98,-4136.04 650.26,-4137.73 648.45,-4139.37 646.54,-4140.97 644.56,-4142.52 642.5,-4144.01 640.37,-4145.45 638.19,-4146.82 635.95,-4148.12 633.66,-4149.36 631.34,-4150.52 628.97,-4151.6 626.58,-4152.61 624.16,-4153.53 621.72,-4154.37 619.25,-4155.12 616.78,-4155.78 614.29,-4156.35 611.79,-4156.83 609.28,-4157.21 606.76,-4157.5 604.24,-4157.69 601.72,-4157.79 599.2,-4157.79 596.68,-4157.69 594.16,-4157.5 591.64,-4157.21 589.13,-4156.83 586.63,-4156.35 584.14,-4155.78 581.66,-4155.12 579.2,-4154.37 576.76,-4153.53 574.34,-4152.61 571.94,-4151.6 569.58,-4150.52 567.25,-4149.36 564.97,-4148.12 562.73,-4146.82 560.54,-4145.45 558.42,-4144.01 556.36,-4142.52 554.37,-4140.97 552.47,-4139.37 550.65,-4137.73 548.93,-4136.04 547.32,-4134.32 545.82,-4132.57 544.45,-4130.78 543.2,-4128.98 542.09,-4127.16 541.13,-4125.32 540.33,-4123.48 539.68,-4121.63 539.21,-4119.79 538.91,-4117.95 538.8,-4116.13 538.87,-4114.33 539.13,-4112.54 539.59,-4110.79 540.24,-4109.07 541.1,-4107.38 542.16,-4105.74 543.42,-4104.14 544.88,-4102.59 546.55,-4101.1 548.4,-4099.66 550.46,-4098.29 552.69,-4096.99 555.11,-4095.75 557.71,-4094.59 560.47,-4093.51 563.39,-4092.5 566.45,-4091.58 569.65,-4090.74 572.97,-4089.99 576.4,-4089.33 579.94,-4088.76 583.55,-4088.28 587.24,-4087.9 590.97,-4087.61 594.75,-4087.42 598.55,-4087.32 602.36,-4087.32 606.16,-4087.42"/>
<text text-anchor="start" x="571.55" y="-4132.36" font-family="Times,serif" font-size="14.00">C0221103</text>
<text text-anchor="start" x="567.4" y="-4118.36" font-family="Times,serif" font-size="14.00">suppression</text>
<text text-anchor="start" x="577.51" y="-4104.36" font-family="Times,serif" font-size="14.00">161:161</text>
</g>
<!-- id_28538990_DOT_15&#45;&#45;id_28538990_DOT_19 -->
<g id="edge8" class="edge">
<title>id_28538990_DOT_15&#45;&#45;id_28538990_DOT_19</title>
<path fill="none" stroke="black" d="M620.39,-4088.36C661.14,-4018.45 753.48,-3860.03 793.39,-3791.56"/>
<text text-anchor="middle" x="680.64" y="-3942.76" font-family="Times,serif" font-size="14.00">0.003693</text>
</g>
<!-- id_28538990_DOT_18 -->
<g id="node18" class="node">
<title>id_28538990_DOT_18</title>
<polygon fill="darkkhaki" stroke="darkkhaki" points="2387.25,-2646.67 2390.68,-2646.86 2394.07,-2647.15 2397.41,-2647.53 2400.7,-2648.01 2403.9,-2648.58 2407.02,-2649.24 2410.03,-2649.99 2412.93,-2650.83 2415.71,-2651.75 2418.36,-2652.76 2420.87,-2653.84 2423.22,-2655 2425.42,-2656.24 2427.45,-2657.54 2429.31,-2658.91 2431,-2660.35 2432.5,-2661.84 2433.83,-2663.39 2434.98,-2664.99 2435.94,-2666.63 2436.72,-2668.32 2437.31,-2670.04 2437.73,-2671.79 2437.96,-2673.58 2438.03,-2675.38 2437.92,-2677.2 2437.65,-2679.04 2437.22,-2680.88 2436.64,-2682.73 2435.91,-2684.57 2435.04,-2686.41 2434.03,-2688.23 2432.9,-2690.03 2431.65,-2691.82 2430.29,-2693.57 2428.83,-2695.29 2427.27,-2696.98 2425.62,-2698.62 2423.89,-2700.22 2422.09,-2701.77 2420.22,-2703.26 2418.29,-2704.7 2416.31,-2706.07 2414.28,-2707.37 2412.2,-2708.61 2410.09,-2709.77 2407.95,-2710.85 2405.78,-2711.86 2403.58,-2712.78 2401.36,-2713.62 2399.13,-2714.37 2396.88,-2715.03 2394.62,-2715.6 2392.35,-2716.08 2390.07,-2716.46 2387.79,-2716.75 2385.51,-2716.94 2383.22,-2717.04 2380.93,-2717.04 2378.64,-2716.94 2376.35,-2716.75 2374.07,-2716.46 2371.79,-2716.08 2369.52,-2715.6 2367.26,-2715.03 2365.02,-2714.37 2362.78,-2713.62 2360.56,-2712.78 2358.37,-2711.86 2356.2,-2710.85 2354.05,-2709.77 2351.94,-2708.61 2349.87,-2707.37 2347.84,-2706.07 2345.85,-2704.7 2343.92,-2703.26 2342.05,-2701.77 2340.25,-2700.22 2338.52,-2698.62 2336.88,-2696.98 2335.32,-2695.29 2333.85,-2693.57 2332.49,-2691.82 2331.24,-2690.03 2330.11,-2688.23 2329.11,-2686.41 2328.24,-2684.57 2327.51,-2682.73 2326.92,-2680.88 2326.49,-2679.04 2326.22,-2677.2 2326.12,-2675.38 2326.18,-2673.58 2326.42,-2671.79 2326.83,-2670.04 2327.43,-2668.32 2328.21,-2666.63 2329.17,-2664.99 2330.31,-2663.39 2331.64,-2661.84 2333.15,-2660.35 2334.84,-2658.91 2336.7,-2657.54 2338.73,-2656.24 2340.92,-2655 2343.28,-2653.84 2345.78,-2652.76 2348.43,-2651.75 2351.21,-2650.83 2354.11,-2649.99 2357.13,-2649.24 2360.24,-2648.58 2363.45,-2648.01 2366.73,-2647.53 2370.07,-2647.15 2373.47,-2646.86 2376.89,-2646.67 2380.34,-2646.57 2383.8,-2646.57 2387.25,-2646.67"/>
<text text-anchor="start" x="2352.9" y="-2691.6" font-family="Times,serif" font-size="14.00">C0449774</text>
<text text-anchor="start" x="2359.91" y="-2677.6" font-family="Times,serif" font-size="14.00">patterns</text>
<text text-anchor="start" x="2359.13" y="-2663.6" font-family="Times,serif" font-size="14.00">174:174</text>
</g>
<!-- id_28538990_DOT_16&#45;&#45;id_28538990_DOT_18 -->
<g id="edge9" class="edge">
<title>id_28538990_DOT_16&#45;&#45;id_28538990_DOT_18</title>
<path fill="none" stroke="black" d="M2149.17,-2975.12C2199.26,-2912.04 2309.17,-2773.61 2357.94,-2712.19"/>
<text text-anchor="middle" x="2227.31" y="-2846.45" font-family="Times,serif" font-size="14.00">0.003190</text>
</g>
<!-- id_28538990_DOT_17 -->
<g id="node17" class="node">
<title>id_28538990_DOT_17</title>
<polygon fill="blueviolet" stroke="blueviolet" points="4350.03,-2722.25 4353.97,-2722.44 4357.86,-2722.73 4361.71,-2723.11 4365.48,-2723.59 4369.16,-2724.16 4372.74,-2724.82 4376.21,-2725.57 4379.54,-2726.41 4382.74,-2727.33 4385.78,-2728.34 4388.66,-2729.42 4391.36,-2730.58 4393.89,-2731.82 4396.22,-2733.12 4398.36,-2734.49 4400.3,-2735.93 4402.03,-2737.42 4403.56,-2738.97 4404.87,-2740.57 4405.98,-2742.21 4406.87,-2743.9 4407.56,-2745.62 4408.03,-2747.37 4408.31,-2749.16 4408.38,-2750.96 4408.26,-2752.78 4407.95,-2754.62 4407.45,-2756.46 4406.78,-2758.31 4405.94,-2760.15 4404.94,-2761.98 4403.79,-2763.81 4402.49,-2765.61 4401.05,-2767.39 4399.49,-2769.15 4397.81,-2770.87 4396.02,-2772.56 4394.12,-2774.2 4392.14,-2775.8 4390.07,-2777.35 4387.92,-2778.84 4385.7,-2780.28 4383.42,-2781.65 4381.09,-2782.95 4378.7,-2784.19 4376.28,-2785.35 4373.81,-2786.43 4371.32,-2787.44 4368.79,-2788.36 4366.24,-2789.2 4363.68,-2789.95 4361.09,-2790.61 4358.5,-2791.18 4355.89,-2791.66 4353.27,-2792.04 4350.65,-2792.33 4348.02,-2792.52 4345.39,-2792.62 4342.76,-2792.62 4340.13,-2792.52 4337.5,-2792.33 4334.88,-2792.04 4332.26,-2791.66 4329.65,-2791.18 4327.06,-2790.61 4324.47,-2789.95 4321.91,-2789.2 4319.36,-2788.36 4316.83,-2787.44 4314.34,-2786.43 4311.87,-2785.35 4309.45,-2784.19 4307.06,-2782.95 4304.73,-2781.65 4302.45,-2780.28 4300.23,-2778.84 4298.09,-2777.35 4296.01,-2775.8 4294.03,-2774.2 4292.13,-2772.56 4290.34,-2770.87 4288.66,-2769.15 4287.1,-2767.39 4285.66,-2765.61 4284.36,-2763.81 4283.21,-2761.98 4282.21,-2760.15 4281.37,-2758.31 4280.7,-2756.46 4280.2,-2754.62 4279.89,-2752.78 4279.77,-2750.96 4279.84,-2749.16 4280.12,-2747.37 4280.59,-2745.62 4281.28,-2743.9 4282.17,-2742.21 4283.28,-2740.57 4284.59,-2738.97 4286.12,-2737.42 4287.85,-2735.93 4289.79,-2734.49 4291.93,-2733.12 4294.26,-2731.82 4296.79,-2730.58 4299.49,-2729.42 4302.37,-2728.34 4305.41,-2727.33 4308.61,-2726.41 4311.94,-2725.57 4315.41,-2724.82 4318.99,-2724.16 4322.67,-2723.59 4326.44,-2723.11 4330.29,-2722.73 4334.18,-2722.44 4338.12,-2722.25 4342.09,-2722.15 4346.06,-2722.15 4350.03,-2722.25"/>
<text text-anchor="start" x="4314.91" y="-2767.18" font-family="Times,serif" font-size="14.00">C0243095</text>
<text text-anchor="start" x="4309.48" y="-2753.18" font-family="Times,serif" font-size="14.00">noncoherent</text>
<text text-anchor="start" x="4321.13" y="-2739.18" font-family="Times,serif" font-size="14.00">173:173</text>
</g>
<!-- id_28538990_DOT_17&#45;&#45;id_28538990_DOT_24 -->
<g id="edge10" class="edge">
<title>id_28538990_DOT_17&#45;&#45;id_28538990_DOT_24</title>
<path fill="none" stroke="black" d="M4285.11,-2738.25C4215,-2715.49 4099.15,-2677.9 4032.85,-2656.38"/>
<text text-anchor="middle" x="4132.73" y="-2700.11" font-family="Times,serif" font-size="14.00">0.003401</text>
</g>
<!-- id_28538990_DOT_18&#45;&#45;id_28538990_DOT_20 -->
<g id="edge25" class="edge">
<title>id_28538990_DOT_18&#45;&#45;id_28538990_DOT_20</title>
<path fill="none" stroke="black" stroke-dasharray="1,5" d="M2414.25,-2651.24C2478.67,-2590.06 2622.86,-2453.13 2687.92,-2391.34"/>
<text text-anchor="middle" x="2524.84" y="-2524.09" font-family="Times,serif" font-size="14.00">0.834103</text>
</g>
<!-- id_28538990_DOT_19&#45;&#45;id_28538990_DOT_21 -->
<g id="edge26" class="edge">
<title>id_28538990_DOT_19&#45;&#45;id_28538990_DOT_21</title>
<path fill="none" stroke="black" stroke-dasharray="1,5" d="M873.22,-3758.49C955.01,-3757.76 1099.34,-3756.48 1179.47,-3755.76"/>
<text text-anchor="middle" x="1000.09" y="-3759.93" font-family="Times,serif" font-size="14.00">0.677055</text>
</g>
<!-- id_28538990_DOT_20&#45;&#45;id_28538990_DOT_26 -->
<g id="edge27" class="edge">
<title>id_28538990_DOT_20&#45;&#45;id_28538990_DOT_26</title>
<path fill="none" stroke="black" stroke-dasharray="1,5" d="M2711.57,-2324.82C2690.53,-2245.16 2639.48,-2051.97 2618.61,-1972.97"/>
<text text-anchor="middle" x="2638.84" y="-2151.7" font-family="Times,serif" font-size="14.00">0.791038</text>
</g>
<!-- id_28538990_DOT_21&#45;&#45;id_28538990_DOT_30 -->
<g id="edge28" class="edge">
<title>id_28538990_DOT_21&#45;&#45;id_28538990_DOT_30</title>
<path fill="none" stroke="black" stroke-dasharray="1,5" d="M1296.26,-3748.25C1377.89,-3738.57 1524.54,-3721.19 1608.47,-3711.24"/>
<text text-anchor="middle" x="1426.11" y="-3732.54" font-family="Times,serif" font-size="14.00">0.790204</text>
</g>
<!-- id_28538990_DOT_26&#45;&#45;id_28538990_DOT_29 -->
<g id="edge29" class="edge">
<title>id_28538990_DOT_26&#45;&#45;id_28538990_DOT_29</title>
<path fill="none" stroke="black" stroke-dasharray="1,5" d="M2622.08,-1903.54C2650.08,-1825.9 2717.23,-1639.73 2744.9,-1562.99"/>
<text text-anchor="middle" x="2657.24" y="-1736.06" font-family="Times,serif" font-size="14.00">0.804587</text>
</g>
</g>
</svg>
